<?xml version="1.0" encoding="utf-8"?>
<!-- Generator: Adobe Illustrator 19.1.0, SVG Export Plug-In . SVG Version: 6.00 Build 0)  -->
<svg version="1.1" xmlns="http://www.w3.org/2000/svg" xmlns:xlink="http://www.w3.org/1999/xlink" x="0px" y="0px"
	 viewBox="0 0 647 400" style="enable-background:new 0 0 647 400;" xml:space="preserve">
<style type="text/css">
	.st0{fill:#E6E6E6;stroke:#B3B3B3;stroke-miterlimit:10;}
	.st1{fill:#999999;}
	.st2{font-family:'SourceSansPro-Regular';}
	.st3{font-size:10px;}
</style>
<g id="background">
	<g>
		<polygon class="st0" points="80,67.1 80,80.1 62,80.1 62,23.1 106.1,23.1 106,67.1 		"/>
		<polygon class="st0" points="80,143 80,156.1 62,156.1 62,112 93,112 93,143 		"/>
		<rect x="140" y="218" class="st0" width="31" height="31"/>
		<rect x="127" y="257" class="st0" width="44" height="44"/>
		<rect x="218.1" y="257" class="st0" width="83" height="83"/>
		<polygon class="st0" points="144.9,106 113.9,106 113.9,88 144.9,88 		"/>
		<rect x="556" y="166" class="st0" width="18" height="18"/>
		<rect x="140" y="127" class="st0" width="18" height="18"/>
		<rect x="322" y="101" class="st0" width="44" height="44"/>
		<rect x="608" y="10" class="st0" width="31" height="18"/>
		<rect x="374" y="101" class="st0" width="57" height="57"/>
		<rect x="504" y="114" class="st0" width="57" height="44"/>
		<polygon class="st0" points="197.1,236 197.1,249 179,249 179,205 223,205 223,236 		"/>
		<polygon class="st0" points="249,54 249,67 218,67 218,23 262,23 262,54 		"/>
		<polygon class="st0" points="392,67 392,80 361,80 361,23 418,23 418,67 		"/>
		<polygon class="st0" points="470,288 470,301 439,301 439,244 496,244 496,288 		"/>
		<polygon class="st0" points="522,262 522,275 504,275 504,218 561,218 561,262 		"/>
		<polygon class="st0" points="496,80 496,93 465,93 465,10 535,10 535,80 		"/>
		<polygon class="st0" points="470,158 470,171 439,171 439,101 496,101 496,158 		"/>
		<polygon class="st0" points="67.1,275.1 67.1,288.1 10.1,288.1 10.1,179.1 106.1,179.1 106.1,275.1 		"/>
		<polygon class="st0" points="262,236 262,249.1 244,249.1 244,205 275,205 275,236 		"/>
		<polygon class="st0" points="587,132 587,145 569,145 569,101 600,101 600,132 		"/>
		<polygon class="st0" points="418,184 418,197 400,197 400,166 431,166 431,184 		"/>
		<polygon class="st0" points="223,132 223,145 205,145 205,114 236,114 236,132 		"/>
		<polygon class="st0" points="196.9,275 196.9,288 178.9,288 178.9,257 209.9,257 209.9,275 		"/>
		<polygon class="st0" points="287.9,132 287.9,145 257,145 257,75 314.1,75 314.1,132 		"/>
		<rect x="127" y="166" class="st0" width="31" height="31"/>
		<rect x="140.1" y="23" class="st0" width="18" height="18"/>
		<rect x="179" y="62" class="st0" width="18" height="18"/>
		<rect x="179" y="23" class="st0" width="18" height="18"/>
		<rect x="49" y="361.1" class="st0" width="18" height="18"/>
		<rect x="75.1" y="361" class="st0" width="31" height="18"/>
		<rect x="218" y="75" class="st0" width="31" height="31"/>
		<rect x="218" y="166" class="st0" width="31" height="31"/>
		<rect x="283" y="205" class="st0" width="31" height="31"/>
		<rect x="349" y="257.1" class="st0" width="31" height="31"/>
		<polygon class="st0" points="314,54 314,67 282.3,67 282.3,23 327,23 327,54 		"/>
		<polygon class="st0" points="288,184 288,197 257,197 257,153 301,153 301,184 		"/>
		<rect x="569" y="23" class="st0" width="31" height="18"/>
		<rect x="543" y="23" class="st0" width="18" height="18"/>
		<rect x="608" y="101" class="st0" width="31" height="18"/>
		<polygon class="st0" points="470,223 470,236 439,236 439,179 483,179 483,223 		"/>
		<rect x="322" y="296" class="st0" width="44" height="31"/>
		<rect x="335" y="205" class="st0" width="44" height="44"/>
		<rect x="348" y="166" class="st0" width="44" height="31"/>
		<polygon class="st0" points="404.6,275 404.6,288 386.5,288 386.5,244 430.5,244 430.5,275 		"/>
		<polygon class="st0" points="522,314 522,327 504,327 504,283 548,283 548,314 		"/>
		<polygon class="st0" points="535.2,197 535.2,210 504,210 504,166 548,166 548,197 		"/>
		<rect x="543" y="49" class="st0" width="44" height="44"/>
		<polygon class="st0" points="457.1,378.9 457.1,391.9 426,391.9 426,309 496,309 496,378.9 		"/>
	</g>
</g>
<g id="wy">
	<rect x="143" y="130" width="12" height="12"/>
</g>
<g id="wv">
	<g>
		<rect x="403" y="169" width="12" height="12"/>
		<rect x="416" y="169" width="12" height="12"/>
		<rect x="403" y="182" width="12" height="12"/>
	</g>
</g>
<g id="wi">
	<g>
		<rect x="286" y="26.1" width="12" height="12"/>
		<rect x="299" y="26.1" width="12" height="12"/>
		<rect x="311.9" y="26.1" width="12" height="12"/>
		<rect x="285.9" y="39.2" width="12" height="12"/>
		<rect x="298.9" y="39.2" width="12" height="12"/>
		<rect x="311.9" y="39.2" width="12" height="12"/>
		<rect x="285.9" y="52.1" width="12" height="12"/>
		<rect x="298.9" y="52.1" width="12" height="12"/>
	</g>
</g>
<g id="wa">
	<g>
		<rect x="65" y="26" width="12" height="12"/>
		<rect x="77.9" y="26" width="12" height="12"/>
		<rect x="90.9" y="26" width="12" height="12"/>
		<rect x="65" y="39.1" width="12" height="12"/>
		<rect x="77.9" y="39.1" width="12" height="12"/>
		<rect x="90.9" y="39.1" width="12" height="12"/>
		<rect x="65" y="52.1" width="12" height="12"/>
		<rect x="77.9" y="52.1" width="12" height="12"/>
		<rect x="90.9" y="52.1" width="12" height="12"/>
		<rect x="65" y="65.1" width="12" height="12"/>
	</g>
</g>
<g id="vt">
	<rect x="546" y="26" width="12" height="12"/>
</g>
<g id="va">
	<g>
		<rect x="442" y="182" width="12" height="12"/>
		<rect x="455" y="182" width="12" height="12"/>
		<rect x="468" y="182" width="12" height="12"/>
		<rect x="442" y="195" width="12" height="12"/>
		<rect x="455" y="195" width="12" height="12"/>
		<rect x="468" y="195" width="12" height="12"/>
		<rect x="442" y="207.9" width="12" height="12"/>
		<rect x="455" y="207.9" width="12" height="12"/>
		<rect x="468" y="207.9" width="12" height="12"/>
		<rect x="442" y="221" width="12" height="12"/>
		<rect x="455" y="221" width="12" height="12"/>
	</g>
</g>
<g id="ut">
	<g>
		<rect x="143" y="221" width="12" height="12"/>
		<rect x="156" y="221" width="12" height="12"/>
		<rect x="142.9" y="234" width="12" height="12"/>
		<rect x="156" y="234" width="12" height="12"/>
	</g>
</g>
<g id="tx">
	<g>
		<rect x="221" y="260" width="12" height="12"/>
		<rect x="234" y="260" width="12" height="12"/>
		<rect x="247" y="260" width="12" height="12"/>
		<rect x="260.1" y="260" width="12" height="12"/>
		<rect x="273.1" y="260" width="12" height="12"/>
		<rect x="286.1" y="260" width="12" height="12"/>
		<rect x="221" y="273" width="12" height="12"/>
		<rect x="234" y="273" width="12" height="12"/>
		<rect x="247" y="273" width="12" height="12"/>
		<rect x="260.1" y="273" width="12" height="12"/>
		<rect x="273.1" y="273" width="12" height="12"/>
		<rect x="286.1" y="273" width="12" height="12"/>
		<rect x="221" y="286" width="12" height="12"/>
		<rect x="234" y="286" width="12" height="12"/>
		<rect x="247" y="286" width="12" height="12"/>
		<rect x="260.1" y="286" width="12" height="12"/>
		<rect x="273.1" y="286" width="12" height="12"/>
		<rect x="286.1" y="286" width="12" height="12"/>
		<rect x="221" y="299" width="12" height="12"/>
		<rect x="234" y="299" width="12" height="12"/>
		<rect x="247" y="299" width="12" height="12"/>
		<rect x="260.1" y="299" width="12" height="12"/>
		<rect x="273.1" y="299" width="12" height="12"/>
		<rect x="286.1" y="299" width="12" height="12"/>
		<rect x="221" y="312" width="12" height="12"/>
		<rect x="234" y="312" width="12" height="12"/>
		<rect x="247" y="312" width="12" height="12"/>
		<rect x="260" y="312" width="12" height="12"/>
		<rect x="273" y="312" width="12" height="12"/>
		<rect x="286" y="312" width="12" height="12"/>
		<rect x="221" y="325" width="12" height="12"/>
		<rect x="234" y="325" width="12" height="12"/>
		<rect x="247" y="325" width="12" height="12"/>
		<rect x="260.1" y="325" width="12" height="12"/>
		<rect x="273.1" y="325" width="12" height="12"/>
		<rect x="286" y="325" width="12" height="12"/>
	</g>
</g>
<g id="tn">
	<g>
		<rect x="338" y="208" width="12" height="12"/>
		<rect x="351" y="208" width="12" height="12"/>
		<rect x="364" y="208" width="12" height="12"/>
		<rect x="338" y="221" width="12" height="12"/>
		<rect x="351" y="221" width="12" height="12"/>
		<rect x="364" y="221" width="12" height="12"/>
		<rect x="338" y="234" width="12" height="12"/>
		<rect x="351" y="234" width="12" height="12"/>
		<rect x="364" y="234" width="12" height="12"/>
	</g>
</g>
<g id="sd">
	<rect x="182" y="65.1" width="12" height="12"/>
</g>
<g id="sc">
	<g>
		<rect x="507" y="285.9" width="12" height="12"/>
		<rect x="520" y="285.9" width="12" height="12"/>
		<rect x="533" y="285.9" width="12" height="12"/>
		<rect x="506.9" y="298.9" width="12" height="12"/>
		<rect x="520" y="298.9" width="12" height="12"/>
		<rect x="532.9" y="298.9" width="12" height="12"/>
		<rect x="506.9" y="311.9" width="12" height="12"/>
	</g>
</g>
<g id="ri">
	<g>
		<rect x="611" y="104" width="12" height="12"/>
		<rect x="624" y="104" width="12" height="12"/>
	</g>
</g>
<g id="pa">
	<g>
		<rect x="442" y="104" width="12" height="12"/>
		<rect x="455" y="104" width="12" height="12"/>
		<rect x="468" y="104" width="12" height="12"/>
		<rect x="481" y="104" width="12" height="12"/>
		<rect x="442" y="117" width="12" height="12"/>
		<rect x="455" y="117" width="12" height="12"/>
		<rect x="468" y="117" width="12" height="12"/>
		<rect x="481" y="117" width="12" height="12"/>
		<rect x="442" y="130" width="12" height="12"/>
		<rect x="455" y="130" width="12" height="12"/>
		<rect x="468" y="130" width="12" height="12"/>
		<rect x="481" y="130" width="12" height="12"/>
		<rect x="442" y="143" width="12" height="12"/>
		<rect x="455" y="143" width="12" height="12"/>
		<rect x="468" y="143" width="12" height="12"/>
		<rect x="481" y="143" width="12" height="12"/>
		<rect x="442" y="156" width="12" height="12"/>
		<rect x="455" y="156" width="12" height="12"/>
	</g>
</g>
<g id="or">
	<g>
		<rect x="65" y="115" width="12" height="12"/>
		<rect x="77.9" y="115" width="12" height="12"/>
		<rect x="65" y="128" width="12" height="12"/>
		<rect x="77.9" y="128" width="12" height="12"/>
		<rect x="65" y="141" width="12" height="12"/>
	</g>
</g>
<g id="ok">
	<g>
		<rect x="247" y="208" width="12" height="12"/>
		<rect x="260" y="208" width="12" height="12"/>
		<rect x="247" y="221" width="12" height="12"/>
		<rect x="260" y="221" width="12" height="12"/>
		<rect x="247" y="234" width="12" height="12"/>
	</g>
</g>
<g id="oh">
	<g>
		<rect x="377" y="104" width="12" height="12"/>
		<rect x="390" y="104" width="12" height="12"/>
		<rect x="403" y="104" width="12" height="12"/>
		<rect x="416" y="104" width="12" height="12"/>
		<rect x="377" y="117" width="12" height="12"/>
		<rect x="390" y="117" width="12" height="12"/>
		<rect x="403" y="117" width="12" height="12"/>
		<rect x="416" y="117" width="12" height="12"/>
		<rect x="377" y="130" width="12" height="12"/>
		<rect x="389.9" y="130" width="12" height="12"/>
		<rect x="402.9" y="130" width="12" height="12"/>
		<rect x="415.9" y="130" width="12" height="12"/>
		<rect x="377" y="143" width="12" height="12"/>
		<rect x="390" y="143" width="12" height="12"/>
		<rect x="403" y="143" width="12" height="12"/>
		<rect x="416" y="143" width="12" height="12"/>
	</g>
</g>
<g id="ny">
	<g>
		<rect x="468" y="13" width="12" height="12"/>
		<rect x="481" y="13" width="12" height="12"/>
		<rect x="494" y="13" width="12" height="12"/>
		<rect x="507.1" y="13" width="12" height="12"/>
		<rect x="520.1" y="13" width="12" height="12"/>
		<rect x="468" y="26" width="12" height="12"/>
		<rect x="481" y="26" width="12" height="12"/>
		<rect x="494" y="26" width="12" height="12"/>
		<rect x="507.1" y="26" width="12" height="12"/>
		<rect x="520.1" y="26" width="12" height="12"/>
		<rect x="468" y="39" width="12" height="12"/>
		<rect x="481" y="39" width="12" height="12"/>
		<rect x="494" y="39" width="12" height="12"/>
		<rect x="507.1" y="39" width="12" height="12"/>
		<rect x="520.1" y="39" width="12" height="12"/>
		<rect x="468" y="52" width="12" height="12"/>
		<rect x="481" y="52" width="12" height="12"/>
		<rect x="494" y="52" width="12" height="12"/>
		<rect x="507.1" y="52" width="12" height="12"/>
		<rect x="520.1" y="52" width="12" height="12"/>
		<rect x="468" y="65.1" width="12" height="12"/>
		<rect x="481" y="65.1" width="12" height="12"/>
		<rect x="494" y="65.1" width="12" height="12"/>
		<rect x="507.1" y="65.1" width="12" height="12"/>
		<rect x="520.1" y="65.1" width="12" height="12"/>
		<rect x="468" y="78.1" width="12" height="12"/>
		<rect x="481" y="78.1" width="12" height="12"/>
	</g>
</g>
<g id="nv">
	<g>
		<rect x="130" y="169" width="12" height="12"/>
		<rect x="143" y="169" width="12" height="12"/>
		<rect x="130" y="182" width="12" height="12"/>
		<rect x="143" y="182" width="12" height="12"/>
	</g>
</g>
<g id="nm">
	<g>
		<rect x="182" y="260" width="12" height="12"/>
		<rect x="195" y="260" width="12" height="12"/>
		<rect x="182" y="273" width="12" height="12"/>
	</g>
</g>
<g id="nj">
	<g>
		<rect x="507" y="117" width="12" height="12"/>
		<rect x="520" y="117" width="12" height="12"/>
		<rect x="533" y="117" width="12" height="12"/>
		<rect x="546" y="117" width="12" height="12"/>
		<rect x="507" y="130" width="12" height="12"/>
		<rect x="520" y="130" width="12" height="12"/>
		<rect x="533" y="130" width="12" height="12"/>
		<rect x="546" y="130" width="12" height="12"/>
		<rect x="507" y="143" width="12" height="12"/>
		<rect x="520" y="143" width="12" height="12"/>
		<rect x="533" y="143" width="12" height="12"/>
		<rect x="546" y="143" width="12" height="12"/>
	</g>
</g>
<g id="nh">
	<g>
		<rect x="572" y="26" width="12" height="12"/>
		<rect x="585" y="26" width="12" height="12"/>
	</g>
</g>
<g id="ne">
	<g>
		<rect x="208" y="117" width="12" height="12"/>
		<rect x="221" y="117" width="12" height="12"/>
		<rect x="208" y="130" width="12" height="12"/>
	</g>
</g>
<g id="nd">
	<rect x="182" y="26" width="12" height="12"/>
</g>
<g id="nc">
	<g>
		<rect x="507" y="221" width="12" height="12"/>
		<rect x="520" y="221" width="12" height="12"/>
		<rect x="533" y="221" width="12" height="12"/>
		<rect x="546" y="221" width="12" height="12"/>
		<rect x="506.9" y="234" width="12" height="12"/>
		<rect x="519.9" y="234" width="12" height="12"/>
		<rect x="532.9" y="234" width="12" height="12"/>
		<rect x="546" y="234" width="12" height="12"/>
		<rect x="506.9" y="247" width="12" height="12"/>
		<rect x="519.9" y="247" width="12" height="12"/>
		<rect x="532.9" y="247" width="12" height="12"/>
		<rect x="546" y="247" width="12" height="12"/>
		<rect x="506.9" y="260" width="12" height="12"/>
	</g>
</g>
<g id="mt">
	<rect x="142.9" y="26" width="12" height="12"/>
</g>
<g id="ms">
	<g>
		<rect x="352" y="260" width="12" height="12"/>
		<rect x="365" y="260" width="12" height="12"/>
		<rect x="351.9" y="273" width="12" height="12"/>
		<rect x="365" y="273" width="12" height="12"/>
	</g>
</g>
<g id="mo">
	<g>
		<rect x="260" y="156" width="12" height="12"/>
		<rect x="273" y="156" width="12" height="12"/>
		<rect x="286" y="156" width="12" height="12"/>
		<rect x="260" y="169" width="12" height="12"/>
		<rect x="273" y="169" width="12" height="12"/>
		<rect x="286" y="169" width="12" height="12"/>
		<rect x="260" y="182" width="12" height="12"/>
		<rect x="273" y="182" width="12" height="12"/>
	</g>
</g>
<g id="mn">
	<g>
		<rect x="221" y="26.1" width="12" height="12"/>
		<rect x="234" y="26.1" width="12" height="12"/>
		<rect x="247" y="26.1" width="12" height="12"/>
		<rect x="221" y="39.2" width="12" height="12"/>
		<rect x="234" y="39.2" width="12" height="12"/>
		<rect x="247" y="39.2" width="12" height="12"/>
		<rect x="221" y="52.1" width="12" height="12"/>
		<rect x="234" y="52.1" width="12" height="12"/>
	</g>
</g>
<g id="mi">
	<g>
		<rect x="364" y="26" width="12" height="12"/>
		<rect x="377" y="26" width="12" height="12"/>
		<rect x="390" y="26" width="12" height="12"/>
		<rect x="403" y="26" width="12" height="12"/>
		<rect x="364" y="39" width="12" height="12"/>
		<rect x="377" y="39" width="12" height="12"/>
		<rect x="390" y="39" width="12" height="12"/>
		<rect x="403" y="39" width="12" height="12"/>
		<rect x="364" y="52" width="12" height="12"/>
		<rect x="377" y="52" width="12" height="12"/>
		<rect x="390" y="52" width="12" height="12"/>
		<rect x="403" y="52" width="12" height="12"/>
		<rect x="364" y="65" width="12" height="12"/>
		<rect x="377" y="65" width="12" height="12"/>
	</g>
</g>
<g id="me">
	<g>
		<rect x="611" y="13" width="12" height="12"/>
		<rect x="624" y="13" width="12" height="12"/>
	</g>
</g>
<g id="md">
	<g>
		<rect x="507" y="169" width="12" height="12"/>
		<rect x="520" y="169" width="12" height="12"/>
		<rect x="533" y="169" width="12" height="12"/>
		<rect x="507" y="182" width="12" height="12"/>
		<rect x="520" y="182" width="12" height="12"/>
		<rect x="533" y="182" width="12" height="12"/>
		<rect x="507" y="194.9" width="12" height="12"/>
		<rect x="520" y="194.9" width="12" height="12"/>
	</g>
</g>
<g id="ma">
	<g>
		<rect x="546" y="52" width="12" height="12"/>
		<rect x="559" y="52" width="12" height="12"/>
		<rect x="572" y="52" width="12" height="12"/>
		<rect x="546" y="65" width="12" height="12"/>
		<rect x="559" y="65" width="12" height="12"/>
		<rect x="572" y="65" width="12" height="12"/>
		<rect x="546" y="78" width="12" height="12"/>
		<rect x="559" y="78" width="12" height="12"/>
		<rect x="572" y="78" width="12" height="12"/>
	</g>
</g>
<g id="la">
	<g>
		<rect x="324.8" y="299" width="12" height="12"/>
		<rect x="337.8" y="299" width="12" height="12"/>
		<rect x="350.8" y="299" width="12" height="12"/>
		<rect x="324.8" y="312" width="12" height="12"/>
		<rect x="337.8" y="312" width="12" height="12"/>
		<rect x="350.8" y="312" width="12" height="12"/>
	</g>
</g>
<g id="ky">
	<g>
		<rect x="351" y="169" width="12" height="12"/>
		<rect x="364" y="169" width="12" height="12"/>
		<rect x="377" y="169" width="12" height="12"/>
		<rect x="351" y="182" width="12" height="12"/>
		<rect x="364" y="182" width="12" height="12"/>
		<rect x="377" y="182" width="12" height="12"/>
	</g>
</g>
<g id="ks">
	<g>
		<rect x="220.9" y="169" width="12" height="12"/>
		<rect x="233.9" y="169" width="12" height="12"/>
		<rect x="220.9" y="182" width="12" height="12"/>
		<rect x="233.9" y="182" width="12" height="12"/>
	</g>
</g>
<g id="in">
	<g>
		<rect x="325" y="104" width="12" height="12"/>
		<rect x="338" y="104" width="12" height="12"/>
		<rect x="351" y="104" width="12" height="12"/>
		<rect x="325" y="117" width="12" height="12"/>
		<rect x="338" y="117" width="12" height="12"/>
		<rect x="351" y="117" width="12" height="12"/>
		<rect x="325" y="130" width="12" height="12"/>
		<rect x="338" y="130" width="12" height="12"/>
		<rect x="351" y="130" width="12" height="12"/>
	</g>
</g>
<g id="il">
	<g>
		<rect x="260" y="78" width="12" height="12"/>
		<rect x="273" y="78" width="12" height="12"/>
		<rect x="286" y="78" width="12" height="12"/>
		<rect x="299" y="78" width="12" height="12"/>
		<rect x="260" y="91" width="12" height="12"/>
		<rect x="273" y="91" width="12" height="12"/>
		<rect x="286" y="91" width="12" height="12"/>
		<rect x="299" y="91" width="12" height="12"/>
		<rect x="260" y="104" width="12" height="12"/>
		<rect x="273" y="104" width="12" height="12"/>
		<rect x="286" y="104" width="12" height="12"/>
		<rect x="299" y="104" width="12" height="12"/>
		<rect x="260" y="117" width="12" height="12"/>
		<rect x="273" y="117" width="12" height="12"/>
		<rect x="286" y="117" width="12" height="12"/>
		<rect x="299" y="117" width="12" height="12"/>
		<rect x="260" y="130.1" width="12" height="12"/>
		<rect x="273" y="130.1" width="12" height="12"/>
	</g>
</g>
<g id="id">
	<g>
		<rect x="117" y="91" width="12" height="12"/>
		<rect x="130" y="91" width="12" height="12"/>
	</g>
</g>
<g id="ia">
	<g>
		<rect x="221" y="78" width="12" height="12"/>
		<rect x="234" y="78" width="12" height="12"/>
		<rect x="221" y="91" width="12" height="12"/>
		<rect x="234" y="91" width="12" height="12"/>
	</g>
</g>
<g id="hi">
	<g>
		<rect x="78" y="364" width="12" height="12"/>
		<rect x="91" y="364" width="12" height="12"/>
	</g>
</g>
<g id="ga">
	<g>
		<rect x="442" y="247" width="12" height="12"/>
		<rect x="455" y="247" width="12" height="12"/>
		<rect x="468" y="247" width="12" height="12"/>
		<rect x="481.1" y="247" width="12" height="12"/>
		<rect x="442" y="260" width="12" height="12"/>
		<rect x="455" y="260" width="12" height="12"/>
		<rect x="468" y="260" width="12" height="12"/>
		<rect x="481.1" y="260" width="12" height="12"/>
		<rect x="442" y="273" width="12" height="12"/>
		<rect x="455" y="273" width="12" height="12"/>
		<rect x="468" y="273" width="12" height="12"/>
		<rect x="481.1" y="273" width="12" height="12"/>
		<rect x="442" y="286" width="12" height="12"/>
		<rect x="455" y="286" width="12" height="12"/>
	</g>
</g>
<g id="fl">
	<g>
		<rect x="429" y="312" width="12" height="12"/>
		<rect x="442" y="312" width="12" height="12"/>
		<rect x="455" y="312" width="12" height="12"/>
		<rect x="468" y="312" width="12" height="12"/>
		<rect x="481" y="312" width="12" height="12"/>
		<rect x="429" y="325" width="12" height="12"/>
		<rect x="442" y="325" width="12" height="12"/>
		<rect x="455" y="325" width="12" height="12"/>
		<rect x="468" y="325" width="12" height="12"/>
		<rect x="481" y="325" width="12" height="12"/>
		<rect x="429" y="338" width="12" height="12"/>
		<rect x="442" y="338" width="12" height="12"/>
		<rect x="455" y="338" width="12" height="12"/>
		<rect x="468" y="338" width="12" height="12"/>
		<rect x="481" y="338" width="12" height="12"/>
		<rect x="429" y="351" width="12" height="12"/>
		<rect x="442" y="351" width="12" height="12"/>
		<rect x="455" y="351" width="12" height="12"/>
		<rect x="468" y="351" width="12" height="12"/>
		<rect x="481" y="351" width="12" height="12"/>
		<rect x="429" y="364" width="12" height="12"/>
		<rect x="442" y="364" width="12" height="12"/>
		<rect x="455" y="364" width="12" height="12"/>
		<rect x="468" y="364" width="12" height="12"/>
		<rect x="481" y="364" width="12" height="12"/>
		<rect x="429" y="377" width="12" height="12"/>
		<rect x="442" y="377" width="12" height="12"/>
	</g>
</g>
<g id="de">
	<rect x="559" y="169" width="12" height="12"/>
</g>
<g id="ct">
	<g>
		<rect x="572" y="104" width="12" height="12"/>
		<rect x="585" y="104" width="12" height="12"/>
		<rect x="572" y="117" width="12" height="12"/>
		<rect x="585" y="117" width="12" height="12"/>
		<rect x="572" y="130" width="12" height="12"/>
	</g>
</g>
<g id="co">
	<g>
		<rect x="182" y="208" width="12" height="12"/>
		<rect x="195" y="208" width="12" height="12"/>
		<rect x="208" y="208" width="12" height="12"/>
		<rect x="182" y="221" width="12" height="12"/>
		<rect x="195" y="221" width="12" height="12"/>
		<rect x="208" y="221" width="12" height="12"/>
		<rect x="182" y="234" width="12" height="12"/>
	</g>
</g>
<g id="ca">
	<g>
		<rect x="12.9" y="182" width="12" height="12"/>
		<rect x="25.9" y="182" width="12" height="12"/>
		<rect x="38.9" y="182" width="12" height="12"/>
		<rect x="51.9" y="182" width="12" height="12"/>
		<rect x="65" y="182" width="12" height="12"/>
		<rect x="78" y="182" width="12" height="12"/>
		<rect x="91" y="182" width="12" height="12"/>
		<rect x="12.9" y="195" width="12" height="12"/>
		<rect x="25.9" y="195" width="12" height="12"/>
		<rect x="38.9" y="195" width="12" height="12"/>
		<rect x="51.9" y="195" width="12" height="12"/>
		<rect x="65" y="195" width="12" height="12"/>
		<rect x="78" y="195" width="12" height="12"/>
		<rect x="90.9" y="195" width="12" height="12"/>
		<rect x="12.9" y="208" width="12" height="12"/>
		<rect x="25.9" y="208" width="12" height="12"/>
		<rect x="38.9" y="208" width="12" height="12"/>
		<rect x="51.9" y="208" width="12" height="12"/>
		<rect x="64.9" y="208" width="12" height="12"/>
		<rect x="77.9" y="208" width="12" height="12"/>
		<rect x="90.9" y="208" width="12" height="12"/>
		<rect x="12.9" y="221" width="12" height="12"/>
		<rect x="25.9" y="221" width="12" height="12"/>
		<rect x="38.9" y="221" width="12" height="12"/>
		<rect x="51.9" y="221" width="12" height="12"/>
		<rect x="65" y="221" width="12" height="12"/>
		<rect x="78" y="221" width="12" height="12"/>
		<rect x="90.9" y="221" width="12" height="12"/>
		<rect x="12.9" y="234.1" width="12" height="12"/>
		<rect x="25.9" y="234.1" width="12" height="12"/>
		<rect x="38.9" y="234.1" width="12" height="12"/>
		<rect x="51.9" y="234.1" width="12" height="12"/>
		<rect x="65" y="234.1" width="12" height="12"/>
		<rect x="78" y="234.1" width="12" height="12"/>
		<rect x="90.9" y="234.1" width="12" height="12"/>
		<rect x="12.9" y="247.1" width="12" height="12"/>
		<rect x="25.9" y="247.1" width="12" height="12"/>
		<rect x="38.9" y="247.1" width="12" height="12"/>
		<rect x="51.9" y="247.1" width="12" height="12"/>
		<rect x="64.9" y="247.1" width="12" height="12"/>
		<rect x="77.9" y="247.1" width="12" height="12"/>
		<rect x="90.9" y="247.1" width="12" height="12"/>
		<rect x="12.9" y="260.1" width="12" height="12"/>
		<rect x="25.9" y="260.1" width="12" height="12"/>
		<rect x="38.9" y="260.1" width="12" height="12"/>
		<rect x="51.9" y="260.1" width="12" height="12"/>
		<rect x="65" y="260.1" width="12" height="12"/>
		<rect x="78" y="260.1" width="12" height="12"/>
		<rect x="90.9" y="260.1" width="12" height="12"/>
		<rect x="12.9" y="273" width="12" height="12"/>
		<rect x="25.9" y="273" width="12" height="12"/>
		<rect x="38.9" y="273" width="12" height="12"/>
		<rect x="51.9" y="273" width="12" height="12"/>
	</g>
</g>
<g id="az">
	<g>
		<rect x="130" y="260" width="12" height="12"/>
		<rect x="143" y="260" width="12" height="12"/>
		<rect x="156" y="260" width="12" height="12"/>
		<rect x="130" y="273" width="12" height="12"/>
		<rect x="143" y="273" width="12" height="12"/>
		<rect x="156" y="273" width="12" height="12"/>
		<rect x="130" y="286" width="12" height="12"/>
		<rect x="143" y="286" width="12" height="12"/>
		<rect x="156" y="286" width="12" height="12"/>
	</g>
</g>
<g id="ar">
	<g>
		<rect x="286" y="208" width="12" height="12"/>
		<rect x="299" y="208" width="12" height="12"/>
		<rect x="286" y="221" width="12" height="12"/>
		<rect x="299" y="221" width="12" height="12"/>
	</g>
</g>
<g id="al">
	<g>
		<rect x="390" y="247" width="12" height="12"/>
		<rect x="403" y="247" width="12" height="12"/>
		<rect x="416" y="247" width="12" height="12"/>
		<rect x="390" y="260" width="12" height="12"/>
		<rect x="403" y="260" width="12" height="12"/>
		<rect x="416" y="260" width="12" height="12"/>
		<rect x="390" y="273" width="12" height="12"/>
	</g>
</g>
<g id="ak">
	<g>
		<rect x="52" y="364" width="12" height="12"/>
	</g>
</g>
<g id="state-names">
	<text transform="matrix(1 0 0 1 12.0481 174.9612)" class="st1 st2 st3">Calif.</text>
	<text transform="matrix(1 0 0 1 63.0138 108.2388)" class="st1 st2 st3">Ore.</text>
	<text transform="matrix(1 0 0 1 63.0136 19.3828)" class="st1 st2 st3">Wash.</text>
	<text transform="matrix(1 0 0 1 114.9139 85.3312)" class="st1 st2 st3">Idaho</text>
	<text transform="matrix(1 0 0 1 140.6327 19.3826)" class="st1 st2 st3">Mont.</text>
	<text transform="matrix(1 0 0 1 179.1389 19.3828)" class="st1 st2 st3">N.D.</text>
	<text transform="matrix(1 0 0 1 179.139 58.1464)" class="st1 st2 st3">S.D.</text>
	<text transform="matrix(1 0 0 1 139.6008 123.0135)" class="st1 st2 st3">Wyo.</text>
	<text transform="matrix(1 0 0 1 127.9973 162.407)" class="st1 st2 st3">Nev.</text>
	<text transform="matrix(1 0 0 1 35.4271 356.6898)" class="st1 st2 st3">Alaska</text>
	<text transform="matrix(1 0 0 1 110.862 373.8486)" class="st1 st2 st3">Hawaii</text>
	<text transform="matrix(1 0 0 1 126.8802 311.4972)" class="st1 st2 st3">Ariz.</text>
	<text transform="matrix(1 0 0 1 179.1389 200.9721)" class="st1 st2 st3">Colo.</text>
	<text transform="matrix(1 0 0 1 178.4512 299.5869)" class="st1 st2 st3">N.M.</text>
	<text transform="matrix(1 0 0 1 140.977 214.0013)" class="st1 st2 st3">Utah</text>
	<text transform="matrix(1 0 0 1 217.6458 19.3829)" class="st1 st2 st3">Minn.</text>
	<text transform="matrix(1 0 0 1 282.6253 19.3826)" class="st1 st2 st3">Wisc.</text>
	<text transform="matrix(1 0 0 1 360.67 19.3829)" class="st1 st2 st3">Mich.</text>
	<text transform="matrix(1 0 0 1 218.3332 351.5014)" class="st1 st2 st3">Texas</text>
	<text transform="matrix(1 0 0 1 323.0072 338.1242)" class="st1 st2 st3">La.</text>
	<text transform="matrix(1 0 0 1 181.4512 133.3595)" class="st1 st2 st3">Neb.</text>
	<text transform="matrix(1 0 0 1 194.1407 95.021)" class="st1 st2 st3">Iowa</text>
	<text transform="matrix(1 0 0 1 219.0065 162.6875)" class="st1 st2 st3">Kans.</text>
	<text transform="matrix(1 0 0 1 461.9836 390.0083)" class="st1 st2 st3">Fla.</text>
	<text transform="matrix(1 0 0 1 526.8982 326.0598)" class="st1 st2 st3">S.C.</text>
	<text transform="matrix(1 0 0 1 526.3847 272.4871)" class="st1 st2 st3">N.C.</text>
	<text transform="matrix(1 0 0 1 578.3001 178.9927)" class="st1 st2 st3">Del.</text>
	<text transform="matrix(1 0 0 1 540.4809 208.0013)" class="st1 st2 st3">Md.</text>
	<text transform="matrix(1 0 0 1 474.4699 299.5869)" class="st1 st2 st3">Ga.</text>
	<text transform="matrix(1 0 0 1 408.4593 286.5217)" class="st1 st2 st3">Ala.</text>
	<text transform="matrix(1 0 0 1 324.6242 276.2078)" class="st1 st2 st3">Miss.</text>
	<text transform="matrix(1 0 0 1 401.9268 208.8216)" class="st1 st2 st3">W. Va.</text>
	<text transform="matrix(1 0 0 1 473.1888 233.5757)" class="st1 st2 st3">Va.</text>
	<text transform="matrix(1 0 0 1 505.7568 110.4924)" class="st1 st2 st3">N.J.</text>
	<text transform="matrix(1 0 0 1 591.0214 143.8413)" class="st1 st2 st3">Conn.</text>
	<text transform="matrix(1 0 0 1 608.2111 97.0116)" class="st1 st2 st3">R.I.</text>
	<text transform="matrix(1 0 0 1 590.0378 70.2665)" class="st1 st2 st3">Mass.</text>
	<text transform="matrix(1 0 0 1 608.2111 38.3552)" class="st1 st2 st3">Maine</text>
	<text transform="matrix(1 0 0 1 544.0184 19.727)" class="st1 st2 st3">Vt.</text>
	<text transform="matrix(1 0 0 1 570.393 19.727)" class="st1 st2 st3">N.H.</text>
	<text transform="matrix(1 0 0 1 501.2876 91.0116)" class="st1 st2 st3">N.Y.</text>
	<text transform="matrix(1 0 0 1 297.0651 201.972)" class="st1 st2 st3">Ark.</text>
	<text transform="matrix(1 0 0 1 266.4661 246.9921)" class="st1 st2 st3">Okla.</text>
	<text transform="matrix(1 0 0 1 304.9726 173.065)" class="st1 st2 st3">Mo.</text>
	<text transform="matrix(1 0 0 1 291.6271 142.9967)" class="st1 st2 st3">Ill.</text>
	<text transform="matrix(1 0 0 1 322.1635 97.7712)" class="st1 st2 st3">Ind.</text>
	<text transform="matrix(1 0 0 1 375.0039 97.7711)" class="st1 st2 st3">Ohio</text>
	<text transform="matrix(1 0 0 1 440.7772 97.7712)" class="st1 st2 st3">Pa.</text>
	<text transform="matrix(1 0 0 1 382.6738 228.0744)" class="st1 st2 st3">Tenn.</text>
	<text transform="matrix(1 0 0 1 349.0154 162.6568)" class="st1 st2 st3">Ky.</text>
</g>
</svg>
