<?xml version="1.0" encoding="utf-8"?>
<!-- Generator: Adobe Illustrator 19.1.0, SVG Export Plug-In . SVG Version: 6.00 Build 0)  -->
<svg version="1.1" id="Layer_1" xmlns="http://www.w3.org/2000/svg" xmlns:xlink="http://www.w3.org/1999/xlink" x="0px" y="0px"
	 viewBox="0 0 647 400" style="enable-background:new 0 0 647 400;" xml:space="preserve">
<style type="text/css">
	.st0{fill:#E6E6E6;stroke:#B3B3B3;stroke-miterlimit:10;}
	.st1{fill:#999999;}
	.st2{font-family:'SourceSansPro-Regular';}
	.st3{font-size:10px;}
</style>
<g id="background">
	<g>
		<polygon class="st0" points="61.9,51.1 48.9,51.1 48.9,33.1 105.9,33.1 105.9,77.2 61.9,77.1 		"/>
		<polygon class="st0" points="62.1,103 49,103 49,85 93.1,85 93.1,116 62.1,116 		"/>
		<rect x="127" y="189" class="st0" width="31" height="31"/>
		<rect x="114" y="228" class="st0" width="44" height="44"/>
		<rect x="231.1" y="293" class="st0" width="83" height="83"/>
		<polygon class="st0" points="144.9,116 113.9,116 113.9,98 144.9,98 		"/>
		<rect x="582" y="163" class="st0" width="18" height="18"/>
		<rect x="192" y="137" class="st0" width="18" height="18"/>
		<polygon class="st0" points="334.9,124 366,124 366,180.9 353,180.9 353,194 334.9,194 		"/>
		<rect x="608" y="10" class="st0" width="31" height="18"/>
		<polygon class="st0" points="374.2,124 431.2,124 431.2,159.8 431.2,181 405,181 374.2,181 		"/>
		<rect x="504" y="114" class="st0" width="57" height="44"/>
		<polygon class="st0" points="184.1,207 184.1,220 166,220 166,176 210,176 210,207 		"/>
		<polygon class="st0" points="301,89.8 301,102.8 270,102.8 270,58.8 314,58.8 314,89.8 		"/>
		<polygon class="st0" points="405,103 405,116 374,116 374,59 431,59 431,103 		"/>
		<polygon class="st0" points="483,284.8 483,297.8 452,297.8 452,240.8 509,240.8 509,284.8 		"/>
		<polygon class="st0" points="535,259 535,272 517,272 517,215 574,215 574,259 		"/>
		<polygon class="st0" points="496,80 496,93 465,93 465,10 535,10 535,80 		"/>
		<polygon class="st0" points="470,158 470,171 439,171 439,101 496,101 496,158 		"/>
		<polygon class="st0" points="27.9,298 27.9,311 10,311 10,124.1 66.8,124.1 66.8,298 		"/>
		<polygon class="st0" points="296.8,272.1 283.7,272.1 283.7,254.1 327.8,254.1 327.8,285.1 296.8,285.1 		"/>
		<polygon class="st0" points="587,132 587,145 569,145 569,101 600,101 600,132 		"/>
		<polygon class="st0" points="439,194 439,176 470,176 470,207 452,207 452,194 		"/>
		<polygon class="st0" points="249,207 249,220 231,220 231,189 262,189 262,207 		"/>
		<polygon class="st0" points="183.9,246 183.9,259 165.9,259 165.9,228 196.9,228 196.9,246 		"/>
		<polygon class="st0" points="301,181 301,194 270.1,194 270.1,124 327.2,124 327.2,181 		"/>
		<rect x="75" y="150" class="st0" width="31" height="31"/>
		<rect x="179.2" y="59" class="st0" width="18" height="18"/>
		<rect x="244" y="98" class="st0" width="18" height="18"/>
		<rect x="244" y="59" class="st0" width="18" height="18"/>
		<rect x="101" y="358.1" class="st0" width="18" height="18"/>
		<rect x="127.1" y="358" class="st0" width="31" height="18"/>
		<rect x="231" y="137.1" class="st0" width="31" height="31"/>
		<rect x="257.1" y="214.9" class="st0" width="31" height="31"/>
		<rect x="322" y="293" class="st0" width="31" height="31"/>
		<rect x="360.9" y="280" class="st0" width="31" height="31"/>
		<polygon class="st0" points="353,90 353,103 321.3,103 321.3,59 366,59 366,90 		"/>
		<polygon class="st0" points="340,233 340,246 309,246 309,202 353,202 353,233 		"/>
		<rect x="569" y="23" class="st0" width="31" height="18"/>
		<rect x="543" y="23" class="st0" width="18" height="18"/>
		<rect x="608" y="101" class="st0" width="31" height="18"/>
		<polygon class="st0" points="509.1,207 509.1,220 478.1,220 478.1,163 522.1,163 522.1,207 		"/>
		<rect x="360.9" y="332.2" class="st0" width="31" height="44"/>
		<polygon class="st0" points="361.1,241.2 431,241.2 431,259.3 418,259.3 418,272.1 361.1,272.1 		"/>
		<rect x="400" y="202" class="st0" width="44" height="31"/>
		<polygon class="st0" points="418,324 418,337 399.9,337 399.9,280 430.9,280 430.9,324 		"/>
		<polygon class="st0" points="535,311.2 535,324.2 517,324.2 517,280.2 561,280.2 561,311.2 		"/>
		<polygon class="st0" points="561.2,194 561.2,207 530,207 530,163 574,163 574,194 		"/>
		<rect x="543" y="49" class="st0" width="44" height="44"/>
		<polygon class="st0" points="470.1,375.8 470.1,388.8 439,388.8 439,305.9 509,305.9 509,375.8 		"/>
	</g>
</g>
<g id="wy">
	<rect x="195" y="140" width="12" height="12"/>
</g>
<g id="wv">
	<g>
		<rect x="442" y="179" width="12" height="12"/>
		<rect x="455" y="179" width="12" height="12"/>
		<rect x="455" y="192" width="12" height="12"/>
	</g>
</g>
<g id="wi">
	<g>
		<rect x="325" y="62.1" width="12" height="12"/>
		<rect x="338" y="62.1" width="12" height="12"/>
		<rect x="350.9" y="62.1" width="12" height="12"/>
		<rect x="324.9" y="75.2" width="12" height="12"/>
		<rect x="337.9" y="75.2" width="12" height="12"/>
		<rect x="350.9" y="75.2" width="12" height="12"/>
		<rect x="324.9" y="88.1" width="12" height="12"/>
		<rect x="337.9" y="88.1" width="12" height="12"/>
	</g>
</g>
<g id="wa">
	<g>
		<rect x="51.9" y="36.1" width="12" height="12"/>
		<rect x="64.9" y="36.1" width="12" height="12"/>
		<rect x="77.9" y="36.1" width="12" height="12"/>
		<rect x="91" y="36.1" width="12" height="12"/>
		<rect x="64.9" y="49" width="12" height="12"/>
		<rect x="77.9" y="49" width="12" height="12"/>
		<rect x="91" y="49" width="12" height="12"/>
		<rect x="64.9" y="62" width="12" height="12"/>
		<rect x="77.9" y="62" width="12" height="12"/>
		<rect x="91" y="62" width="12" height="12"/>
	</g>
</g>
<g id="vt">
	<rect x="546" y="26" width="12" height="12"/>
</g>
<g id="va">
	<g>
		<rect x="481.1" y="166" width="12" height="12"/>
		<rect x="494.1" y="166" width="12" height="12"/>
		<rect x="507.1" y="166" width="12" height="12"/>
		<rect x="481.1" y="179" width="12" height="12"/>
		<rect x="494.1" y="179" width="12" height="12"/>
		<rect x="507.1" y="179" width="12" height="12"/>
		<rect x="481.1" y="191.9" width="12" height="12"/>
		<rect x="494.1" y="191.9" width="12" height="12"/>
		<rect x="507.1" y="191.9" width="12" height="12"/>
		<rect x="481.1" y="205" width="12" height="12"/>
		<rect x="494.1" y="205" width="12" height="12"/>
	</g>
</g>
<g id="ut">
	<g>
		<rect x="130" y="192" width="12" height="12"/>
		<rect x="143" y="192" width="12" height="12"/>
		<rect x="129.9" y="205" width="12" height="12"/>
		<rect x="143" y="205" width="12" height="12"/>
	</g>
</g>
<g id="tx">
	<g>
		<rect x="234" y="296" width="12" height="12"/>
		<rect x="247" y="296" width="12" height="12"/>
		<rect x="260" y="296" width="12" height="12"/>
		<rect x="273.1" y="296" width="12" height="12"/>
		<rect x="286.1" y="296" width="12" height="12"/>
		<rect x="299.1" y="296" width="12" height="12"/>
		<rect x="234" y="309" width="12" height="12"/>
		<rect x="247" y="309" width="12" height="12"/>
		<rect x="260" y="309" width="12" height="12"/>
		<rect x="273.1" y="309" width="12" height="12"/>
		<rect x="286.1" y="309" width="12" height="12"/>
		<rect x="299.1" y="309" width="12" height="12"/>
		<rect x="234" y="322" width="12" height="12"/>
		<rect x="247" y="322" width="12" height="12"/>
		<rect x="260" y="322" width="12" height="12"/>
		<rect x="273.1" y="322" width="12" height="12"/>
		<rect x="286.1" y="322" width="12" height="12"/>
		<rect x="299.1" y="322" width="12" height="12"/>
		<rect x="234" y="335" width="12" height="12"/>
		<rect x="247" y="335" width="12" height="12"/>
		<rect x="260" y="335" width="12" height="12"/>
		<rect x="273.1" y="335" width="12" height="12"/>
		<rect x="286.1" y="335" width="12" height="12"/>
		<rect x="299.1" y="335" width="12" height="12"/>
		<rect x="234" y="348" width="12" height="12"/>
		<rect x="247" y="348" width="12" height="12"/>
		<rect x="260" y="348" width="12" height="12"/>
		<rect x="273" y="348" width="12" height="12"/>
		<rect x="286" y="348" width="12" height="12"/>
		<rect x="299" y="348" width="12" height="12"/>
		<rect x="234" y="361" width="12" height="12"/>
		<rect x="247" y="361" width="12" height="12"/>
		<rect x="260" y="361" width="12" height="12"/>
		<rect x="273.1" y="361" width="12" height="12"/>
		<rect x="286.1" y="361" width="12" height="12"/>
		<rect x="299" y="361" width="12" height="12"/>
	</g>
</g>
<g id="tn">
	<g>
		<rect x="364" y="244" width="12" height="12"/>
		<rect x="377" y="244" width="12" height="12"/>
		<rect x="390" y="244" width="12" height="12"/>
		<rect x="403" y="244" width="12" height="12"/>
		<rect x="416" y="244" width="12" height="12"/>
		<rect x="364" y="257" width="12" height="12"/>
		<rect x="377" y="257" width="12" height="12"/>
		<rect x="390" y="257" width="12" height="12"/>
		<rect x="403" y="257" width="12" height="12"/>
		
	</g>
</g>
<g id="sd">
	<rect x="247" y="101" width="12" height="12"/>
</g>
<g id="sc">
	<g>
		<rect x="520" y="283.1" width="12" height="12"/>
		<rect x="533" y="283.1" width="12" height="12"/>
		<rect x="546" y="283.1" width="12" height="12"/>
		<rect x="519.9" y="296.1" width="12" height="12"/>
		<rect x="533" y="296.1" width="12" height="12"/>
		<rect x="545.9" y="296.1" width="12" height="12"/>
		<rect x="519.9" y="309.1" width="12" height="12"/>
	</g>
</g>
<g id="ri">
	<g>
		<rect x="611" y="104" width="12" height="12"/>
		<rect x="624" y="104" width="12" height="12"/>
	</g>
</g>
<g id="pa">
	<g>
		<rect x="442" y="104" width="12" height="12"/>
		<rect x="455" y="104" width="12" height="12"/>
		<rect x="468" y="104" width="12" height="12"/>
		<rect x="481" y="104" width="12" height="12"/>
		<rect x="442" y="117" width="12" height="12"/>
		<rect x="455" y="117" width="12" height="12"/>
		<rect x="468" y="117" width="12" height="12"/>
		<rect x="481" y="117" width="12" height="12"/>
		<rect x="442" y="130" width="12" height="12"/>
		<rect x="455" y="130" width="12" height="12"/>
		<rect x="468" y="130" width="12" height="12"/>
		<rect x="481" y="130" width="12" height="12"/>
		<rect x="442" y="143" width="12" height="12"/>
		<rect x="455" y="143" width="12" height="12"/>
		<rect x="468" y="143" width="12" height="12"/>
		<rect x="481" y="143" width="12" height="12"/>
		<rect x="442" y="156" width="12" height="12"/>
		<rect x="455" y="156" width="12" height="12"/>
	</g>
</g>
<g id="or">
	<g>
		<rect x="52.1" y="88" width="12" height="12"/>
		<rect x="65.1" y="88" width="12" height="12"/>
		<rect x="78.1" y="88" width="12" height="12"/>
		<rect x="65.1" y="100.9" width="12" height="12"/>
		<rect x="78.1" y="100.9" width="12" height="12"/>
		
	</g>
</g>
<g id="ok">
	<g>
		<rect x="286.8" y="257.1" width="12" height="12"/>
		<rect x="299.8" y="257.1" width="12" height="12"/>
		<rect x="312.8" y="257.1" width="12" height="12"/>
		<rect x="299.8" y="270.1" width="12" height="12"/>
		<rect x="312.8" y="270.1" width="12" height="12"/>
	</g>
</g>
<g id="oh">
	<g>
		<rect x="377.2" y="127.3" width="12" height="12"/>
		<rect x="390.2" y="127.3" width="12" height="12"/>
		<rect x="403.2" y="127.3" width="12" height="12"/>
		<rect x="416.2" y="127.3" width="12" height="12"/>
		<rect x="377.2" y="140.3" width="12" height="12"/>
		<rect x="390.1" y="140.3" width="12" height="12"/>
		<rect x="403.1" y="140.3" width="12" height="12"/>
		<rect x="416.1" y="140.3" width="12" height="12"/>
		<rect x="377.2" y="153.3" width="12" height="12"/>
		<rect x="390.2" y="153.3" width="12" height="12"/>
		<rect x="403.2" y="153.3" width="12" height="12"/>
		<rect x="416.2" y="153.3" width="12" height="12"/>
		<rect x="377.2" y="166.1" width="12" height="12"/>
		<rect x="390.2" y="166.1" width="12" height="12"/>
		<rect x="403.2" y="166.1" width="12" height="12"/>
		<rect x="416.2" y="166.1" width="12" height="12"/>
	</g>
</g>
<g id="ny">
	<g>
		<rect x="468" y="13" width="12" height="12"/>
		<rect x="481" y="13" width="12" height="12"/>
		<rect x="494" y="13" width="12" height="12"/>
		<rect x="507.1" y="13" width="12" height="12"/>
		<rect x="520.1" y="13" width="12" height="12"/>
		<rect x="468" y="26" width="12" height="12"/>
		<rect x="481" y="26" width="12" height="12"/>
		<rect x="494" y="26" width="12" height="12"/>
		<rect x="507.1" y="26" width="12" height="12"/>
		<rect x="520.1" y="26" width="12" height="12"/>
		<rect x="468" y="39" width="12" height="12"/>
		<rect x="481" y="39" width="12" height="12"/>
		<rect x="494" y="39" width="12" height="12"/>
		<rect x="507.1" y="39" width="12" height="12"/>
		<rect x="520.1" y="39" width="12" height="12"/>
		<rect x="468" y="52" width="12" height="12"/>
		<rect x="481" y="52" width="12" height="12"/>
		<rect x="494" y="52" width="12" height="12"/>
		<rect x="507.1" y="52" width="12" height="12"/>
		<rect x="520.1" y="52" width="12" height="12"/>
		<rect x="468" y="65.1" width="12" height="12"/>
		<rect x="481" y="65.1" width="12" height="12"/>
		<rect x="494" y="65.1" width="12" height="12"/>
		<rect x="507.1" y="65.1" width="12" height="12"/>
		<rect x="520.1" y="65.1" width="12" height="12"/>
		<rect x="468" y="78.1" width="12" height="12"/>
		<rect x="481" y="78.1" width="12" height="12"/>
	</g>
</g>
<g id="nv">
	<g>
		<rect x="78" y="153" width="12" height="12"/>
		<rect x="91" y="153" width="12" height="12"/>
		<rect x="78" y="166" width="12" height="12"/>
		<rect x="91" y="166" width="12" height="12"/>
	</g>
</g>
<g id="nm">
	<g>
		<rect x="169" y="231" width="12" height="12"/>
		<rect x="182" y="231" width="12" height="12"/>
		<rect x="169" y="244" width="12" height="12"/>
	</g>
</g>
<g id="nj">
	<g>
		<rect x="507" y="117" width="12" height="12"/>
		<rect x="520" y="117" width="12" height="12"/>
		<rect x="533" y="117" width="12" height="12"/>
		<rect x="546" y="117" width="12" height="12"/>
		<rect x="507" y="130" width="12" height="12"/>
		<rect x="520" y="130" width="12" height="12"/>
		<rect x="533" y="130" width="12" height="12"/>
		<rect x="546" y="130" width="12" height="12"/>
		<rect x="507" y="143" width="12" height="12"/>
		<rect x="520" y="143" width="12" height="12"/>
		<rect x="533" y="143" width="12" height="12"/>
		<rect x="546" y="143" width="12" height="12"/>
	</g>
</g>
<g id="nh">
	<g>
		<rect x="572" y="26" width="12" height="12"/>
		<rect x="585" y="26" width="12" height="12"/>
	</g>
</g>
<g id="ne">
	<g>
		<rect x="234" y="192" width="12" height="12"/>
		<rect x="247" y="192" width="12" height="12"/>
		<rect x="234" y="205" width="12" height="12"/>
	</g>
</g>
<g id="nd">
	<rect x="247" y="62" width="12" height="12"/>
</g>
<g id="nc">
	<g>
		<rect x="520" y="218" width="12" height="12"/>
		<rect x="533" y="218" width="12" height="12"/>
		<rect x="546" y="218" width="12" height="12"/>
		<rect x="559" y="218" width="12" height="12"/>
		<rect x="519.9" y="231" width="12" height="12"/>
		<rect x="532.9" y="231" width="12" height="12"/>
		<rect x="545.9" y="231" width="12" height="12"/>
		<rect x="559" y="231" width="12" height="12"/>
		<rect x="519.9" y="244" width="12" height="12"/>
		<rect x="532.9" y="244" width="12" height="12"/>
		<rect x="545.9" y="244" width="12" height="12"/>
		<rect x="559" y="244" width="12" height="12"/>
		<rect x="519.9" y="257" width="12" height="12"/>
	</g>
</g>
<g id="mt">
	<rect x="182" y="62" width="12" height="12"/>
</g>
<g id="ms">
	<g>
		<rect x="363.9" y="282.9" width="12" height="12"/>
		<rect x="376.9" y="282.9" width="12" height="12"/>
		<rect x="363.8" y="295.9" width="12" height="12"/>
		<rect x="376.9" y="295.9" width="12" height="12"/>
	</g>
</g>
<g id="mo">
	<g>
		<rect x="312" y="205" width="12" height="12"/>
		<rect x="325" y="205" width="12" height="12"/>
		<rect x="338" y="205" width="12" height="12"/>
		<rect x="312" y="218" width="12" height="12"/>
		<rect x="325" y="218" width="12" height="12"/>
		<rect x="338" y="218" width="12" height="12"/>
		<rect x="312" y="231" width="12" height="12"/>
		<rect x="325" y="231" width="12" height="12"/>
	</g>
</g>
<g id="mn">
	<g>
		<rect x="273" y="61.9" width="12" height="12"/>
		<rect x="286" y="61.9" width="12" height="12"/>
		<rect x="299" y="61.9" width="12" height="12"/>
		<rect x="273" y="75" width="12" height="12"/>
		<rect x="286" y="75" width="12" height="12"/>
		<rect x="299" y="75" width="12" height="12"/>
		<rect x="273" y="87.9" width="12" height="12"/>
		<rect x="286" y="87.9" width="12" height="12"/>
	</g>
</g>
<g id="mi">
	<g>
		<rect x="377" y="62" width="12" height="12"/>
		<rect x="390" y="62" width="12" height="12"/>
		<rect x="403" y="62" width="12" height="12"/>
		<rect x="416" y="62" width="12" height="12"/>
		<rect x="377" y="75" width="12" height="12"/>
		<rect x="390" y="75" width="12" height="12"/>
		<rect x="403" y="75" width="12" height="12"/>
		<rect x="416" y="75" width="12" height="12"/>
		<rect x="377" y="88" width="12" height="12"/>
		<rect x="390" y="88" width="12" height="12"/>
		<rect x="403" y="88" width="12" height="12"/>
		<rect x="416" y="88" width="12" height="12"/>
		<rect x="377" y="101" width="12" height="12"/>
		<rect x="390" y="101" width="12" height="12"/>
	</g>
</g>
<g id="me">
	<g>
		<rect x="611" y="13" width="12" height="12"/>
		<rect x="624" y="13" width="12" height="12"/>
	</g>
</g>
<g id="md">
	<g>
		<rect x="533" y="166" width="12" height="12"/>
		<rect x="546" y="166" width="12" height="12"/>
		<rect x="559" y="166" width="12" height="12"/>
		<rect x="533" y="179" width="12" height="12"/>
		<rect x="546" y="179" width="12" height="12"/>
		<rect x="559" y="179" width="12" height="12"/>
		<rect x="533" y="192" width="12" height="12"/>
		<rect x="546" y="192" width="12" height="12"/>
	</g>
</g>
<g id="ma">
	<g>
		<rect x="546" y="52" width="12" height="12"/>
		<rect x="559" y="52" width="12" height="12"/>
		<rect x="572" y="52" width="12" height="12"/>
		<rect x="546" y="65" width="12" height="12"/>
		<rect x="559" y="65" width="12" height="12"/>
		<rect x="572" y="65" width="12" height="12"/>
		<rect x="546" y="78" width="12" height="12"/>
		<rect x="559" y="78" width="12" height="12"/>
		<rect x="572" y="78" width="12" height="12"/>
	</g>
</g>
<g id="la">
	<g>
		<rect x="363.9" y="335" width="12" height="12"/>
		<rect x="376.9" y="335" width="12" height="12"/>
		<rect x="363.9" y="348" width="12" height="12"/>
		<rect x="376.9" y="348" width="12" height="12"/>
		<rect x="363.9" y="361" width="12" height="12"/>
		<rect x="376.9" y="361" width="12" height="12"/>
	</g>
</g>
<g id="ky">
	<g>
		<rect x="403" y="205" width="12" height="12"/>
		<rect x="416" y="205" width="12" height="12"/>
		<rect x="429" y="205" width="12" height="12"/>
		<rect x="403" y="218" width="12" height="12"/>
		<rect x="416" y="218" width="12" height="12"/>
		<rect x="429" y="218" width="12" height="12"/>
	</g>
</g>
<g id="ks">
	<g>
		<rect x="260" y="217.9" width="12" height="12"/>
		<rect x="273" y="217.9" width="12" height="12"/>
		<rect x="260" y="230.9" width="12" height="12"/>
		<rect x="273" y="230.9" width="12" height="12"/>
	</g>
</g>
<g id="in">
	<g>
		
		<rect x="338" y="127" width="12" height="12"/>
		<rect x="351" y="127" width="12" height="12"/>
		<rect x="338" y="140" width="12" height="12"/>
		<rect x="351" y="140" width="12" height="12"/>
		<rect x="338" y="153" width="12" height="12"/>
		<rect x="351" y="153" width="12" height="12"/>
		<rect x="338" y="166" width="12" height="12"/>
		<rect x="351" y="166" width="12" height="12"/>
		<rect x="338" y="179" width="12" height="12"/>
	</g>
</g>
<g id="il">
	<g>
		<rect x="273.1" y="127" width="12" height="12"/>
		<rect x="286.1" y="127" width="12" height="12"/>
		<rect x="299.1" y="127" width="12" height="12"/>
		<rect x="312.1" y="127" width="12" height="12"/>
		<rect x="273.1" y="140" width="12" height="12"/>
		<rect x="286.1" y="140" width="12" height="12"/>
		<rect x="299.1" y="140" width="12" height="12"/>
		<rect x="312.1" y="140" width="12" height="12"/>
		<rect x="273.1" y="153" width="12" height="12"/>
		<rect x="286.1" y="153" width="12" height="12"/>
		<rect x="299.1" y="153" width="12" height="12"/>
		<rect x="312.1" y="153" width="12" height="12"/>
		<rect x="273.1" y="166" width="12" height="12"/>
		<rect x="286.1" y="166" width="12" height="12"/>
		<rect x="299.1" y="166" width="12" height="12"/>
		<rect x="312.1" y="166" width="12" height="12"/>
		<rect x="273.1" y="179" width="12" height="12"/>
		<rect x="286.1" y="179" width="12" height="12"/>
	</g>
</g>
<g id="id">
	<g>
		<rect x="117" y="101" width="12" height="12"/>
		<rect x="130" y="101" width="12" height="12"/>
	</g>
</g>
<g id="ia">
	<g>
		<rect x="234" y="140.1" width="12" height="12"/>
		<rect x="247" y="140.1" width="12" height="12"/>
		<rect x="234" y="153.1" width="12" height="12"/>
		<rect x="247" y="153.1" width="12" height="12"/>
	</g>
</g>
<g id="hi">
	<g>
		<rect x="130" y="361" width="12" height="12"/>
		<rect x="143" y="361" width="12" height="12"/>
	</g>
</g>
<g id="ga">
	<g>
		<rect x="455" y="243.8" width="12" height="12"/>
		<rect x="468" y="243.8" width="12" height="12"/>
		<rect x="481" y="243.8" width="12" height="12"/>
		<rect x="494.1" y="243.8" width="12" height="12"/>
		<rect x="455" y="256.8" width="12" height="12"/>
		<rect x="468" y="256.8" width="12" height="12"/>
		<rect x="481" y="256.8" width="12" height="12"/>
		<rect x="494.1" y="256.8" width="12" height="12"/>
		<rect x="455" y="269.8" width="12" height="12"/>
		<rect x="468" y="269.8" width="12" height="12"/>
		<rect x="481" y="269.8" width="12" height="12"/>
		<rect x="494.1" y="269.8" width="12" height="12"/>
		<rect x="455" y="282.8" width="12" height="12"/>
		<rect x="468" y="282.8" width="12" height="12"/>
	</g>
</g>
<g id="fl">
	<g>
		<rect x="442" y="308.9" width="12" height="12"/>
		<rect x="455" y="308.9" width="12" height="12"/>
		<rect x="468" y="308.9" width="12" height="12"/>
		<rect x="481" y="308.9" width="12" height="12"/>
		<rect x="494" y="308.9" width="12" height="12"/>
		<rect x="442" y="321.9" width="12" height="12"/>
		<rect x="455" y="321.9" width="12" height="12"/>
		<rect x="468" y="321.9" width="12" height="12"/>
		<rect x="481" y="321.9" width="12" height="12"/>
		<rect x="494" y="321.9" width="12" height="12"/>
		<rect x="442" y="334.9" width="12" height="12"/>
		<rect x="455" y="334.9" width="12" height="12"/>
		<rect x="468" y="334.9" width="12" height="12"/>
		<rect x="481" y="334.9" width="12" height="12"/>
		<rect x="494" y="334.9" width="12" height="12"/>
		<rect x="442" y="347.9" width="12" height="12"/>
		<rect x="455" y="347.9" width="12" height="12"/>
		<rect x="468" y="347.9" width="12" height="12"/>
		<rect x="481" y="347.9" width="12" height="12"/>
		<rect x="494" y="347.9" width="12" height="12"/>
		<rect x="442" y="360.9" width="12" height="12"/>
		<rect x="455" y="360.9" width="12" height="12"/>
		<rect x="468" y="360.9" width="12" height="12"/>
		<rect x="481" y="360.9" width="12" height="12"/>
		<rect x="494" y="360.9" width="12" height="12"/>
		<rect x="442" y="373.9" width="12" height="12"/>
		<rect x="455" y="373.9" width="12" height="12"/>
	</g>
</g>
<g id="de">
	<rect x="585" y="166" width="12" height="12"/>
</g>
<g id="ct">
	<g>
		<rect x="572" y="104" width="12" height="12"/>
		<rect x="585" y="104" width="12" height="12"/>
		<rect x="572" y="117" width="12" height="12"/>
		<rect x="585" y="117" width="12" height="12"/>
		<rect x="572" y="130" width="12" height="12"/>
	</g>
</g>
<g id="co">
	<g>
		<rect x="169" y="179" width="12" height="12"/>
		<rect x="182" y="179" width="12" height="12"/>
		<rect x="195" y="179" width="12" height="12"/>
		<rect x="169" y="192" width="12" height="12"/>
		<rect x="182" y="192" width="12" height="12"/>
		<rect x="195" y="192" width="12" height="12"/>
		<rect x="169" y="205" width="12" height="12"/>
	</g>
</g>
<g id="ca">
	<g>
		<rect x="13.1" y="127" width="12" height="12"/>
		<rect x="25.8" y="127" width="12" height="12"/>
		<rect x="38.8" y="127" width="12" height="12"/>
		<rect x="51.8" y="127" width="12" height="12"/>
		<rect x="13.1" y="140" width="12" height="12"/>
		<rect x="25.8" y="140" width="12" height="12"/>
		<rect x="38.8" y="140" width="12" height="12"/>
		<rect x="51.8" y="140" width="12" height="12"/>
		<rect x="13.1" y="153" width="12" height="12"/>
		<rect x="25.8" y="153" width="12" height="12"/>
		<rect x="38.8" y="153" width="12" height="12"/>
		<rect x="51.8" y="153" width="12" height="12"/>
		<rect x="13.1" y="166" width="12" height="12"/>
		<rect x="25.8" y="166" width="12" height="12"/>
		<rect x="38.8" y="166" width="12" height="12"/>
		<rect x="51.8" y="166" width="12" height="12"/>
		<rect x="13.1" y="179" width="12" height="12"/>
		<rect x="25.8" y="179" width="12" height="12"/>
		<rect x="38.8" y="179" width="12" height="12"/>
		<rect x="51.8" y="179" width="12" height="12"/>
		<rect x="13.1" y="192" width="12" height="12"/>
		<rect x="25.8" y="192" width="12" height="12"/>
		<rect x="38.8" y="192" width="12" height="12"/>
		<rect x="51.8" y="192" width="12" height="12"/>
		<rect x="13.1" y="205" width="12" height="12"/>
		<rect x="25.8" y="205" width="12" height="12"/>
		<rect x="38.8" y="205" width="12" height="12"/>
		<rect x="51.8" y="205" width="12" height="12"/>
		<rect x="13.1" y="218" width="12" height="12"/>
		<rect x="25.8" y="218" width="12" height="12"/>
		<rect x="38.8" y="218" width="12" height="12"/>
		<rect x="51.8" y="218" width="12" height="12"/>
		<rect x="13.1" y="231" width="12" height="12"/>
		<rect x="25.8" y="231" width="12" height="12"/>
		<rect x="38.8" y="231" width="12" height="12"/>
		<rect x="51.8" y="231" width="12" height="12"/>
		<rect x="13.1" y="244" width="12" height="12"/>
		<rect x="25.8" y="244" width="12" height="12"/>
		<rect x="38.8" y="244" width="12" height="12"/>
		<rect x="51.8" y="244" width="12" height="12"/>
		<rect x="13.1" y="257.1" width="12" height="12"/>
		<rect x="25.8" y="257.1" width="12" height="12"/>
		<rect x="38.8" y="257.1" width="12" height="12"/>
		<rect x="51.8" y="257.1" width="12" height="12"/>
		<rect x="13.1" y="270.1" width="12" height="12"/>
		<rect x="25.8" y="270.1" width="12" height="12"/>
		<rect x="38.8" y="270.1" width="12" height="12"/>
		<rect x="51.8" y="270.1" width="12" height="12"/>
		<rect x="13.1" y="283.1" width="12" height="12"/>
		<rect x="25.8" y="283.1" width="12" height="12"/>
		<rect x="38.8" y="283.1" width="12" height="12"/>
		<rect x="51.8" y="283.1" width="12" height="12"/>
		<rect x="13.1" y="296.1" width="12" height="12"/>
	</g>
</g>
<g id="az">
	<g>
		<rect x="117" y="231" width="12" height="12"/>
		<rect x="130" y="231" width="12" height="12"/>
		<rect x="143" y="231" width="12" height="12"/>
		<rect x="117" y="244" width="12" height="12"/>
		<rect x="130" y="244" width="12" height="12"/>
		<rect x="143" y="244" width="12" height="12"/>
		<rect x="117" y="257" width="12" height="12"/>
		<rect x="130" y="257" width="12" height="12"/>
		<rect x="143" y="257" width="12" height="12"/>
	</g>
</g>
<g id="ar">
	<g>
		<rect x="325" y="296" width="12" height="12"/>
		<rect x="338" y="296" width="12" height="12"/>
		<rect x="325" y="309" width="12" height="12"/>
		<rect x="338" y="309" width="12" height="12"/>
	</g>
</g>
<g id="al">
	<g>
		<rect x="403" y="283.1" width="12" height="12"/>
		<rect x="416" y="283.1" width="12" height="12"/>
		<rect x="403" y="296.1" width="12" height="12"/>
		<rect x="416" y="296.1" width="12" height="12"/>
		<rect x="403" y="309.1" width="12" height="12"/>
		<rect x="416" y="309.1" width="12" height="12"/>
		<rect x="403" y="322" width="12" height="12"/>
	</g>
</g>
<g id="ak">
	<g>
		<rect x="104" y="361" width="12" height="12"/>
	</g>
</g>
<g id="state-names">
	<text transform="matrix(1 0 0 1 31.3554 309.6398)" class="st1 st2 st3">Calif.</text>
	<text transform="matrix(1 0 0 1 42.0465 113.3125)" class="st1 st2 st3">Ore.</text>
	<text transform="matrix(1 0 0 1 35.1236 62.0999)" class="st1 st2 st3">Wash.</text>
	<text transform="matrix(1 0 0 1 113.6104 126.1164)" class="st1 st2 st3">Idaho</text>
	<text transform="matrix(1 0 0 1 178.1066 87.4998)" class="st1 st2 st3">Mont.</text>
	<text transform="matrix(1 0 0 1 244.7608 87)" class="st1 st2 st3">N.D.</text>
	<text transform="matrix(1 0 0 1 243.9553 127.024)" class="st1 st2 st3">S.D.</text>
	<text transform="matrix(1 0 0 1 192.3112 164.9986)" class="st1 st2 st3">Wyo.</text>
	<text transform="matrix(1 0 0 1 74.0487 190.3365)" class="st1 st2 st3">Nev.</text>
	<text transform="matrix(1 0 0 1 70.7251 370.8596)" class="st1 st2 st3">Alaska</text>
	<text transform="matrix(1 0 0 1 162.8126 370.8596)" class="st1 st2 st3">Hawaii</text>
	<text transform="matrix(1 0 0 1 113.9176 282.4899)" class="st1 st2 st3">Ariz.</text>
	<text transform="matrix(1 0 0 1 186.287 216.6866)" class="st1 st2 st3">Colo.</text>
	<text transform="matrix(1 0 0 1 165.4886 270.5796)" class="st1 st2 st3">N.M.</text>
	<text transform="matrix(1 0 0 1 101.6751 207.7876)" class="st1 st2 st3">Utah</text>
	<text transform="matrix(1 0 0 1 269.3322 114.798)" class="st1 st2 st3">Minn.</text>
	<text transform="matrix(1 0 0 1 320.5713 112.4904)" class="st1 st2 st3">Wisc.</text>
	<text transform="matrix(1 0 0 1 408.5755 113.8306)" class="st1 st2 st3">Mich.</text>
	<text transform="matrix(1 0 0 1 231.3346 387.5034)" class="st1 st2 st3">Texas</text>
	<text transform="matrix(1 0 0 1 360.3991 386.0426)" class="st1 st2 st3">La.</text>
	<text transform="matrix(1 0 0 1 229.9326 229.2622)" class="st1 st2 st3">Neb.</text>
	<text transform="matrix(1 0 0 1 230.8225 178.1452)" class="st1 st2 st3">Iowa</text>
	<text transform="matrix(1 0 0 1 256.2181 254.8925)" class="st1 st2 st3">Kan.</text>
	<text transform="matrix(1 0 0 1 474.9836 386.8606)" class="st1 st2 st3">Fla.</text>
	<text transform="matrix(1 0 0 1 539.8982 323.2902)" class="st1 st2 st3">S.C.</text>
	<text transform="matrix(1 0 0 1 539.3847 269.4871)" class="st1 st2 st3">N.C.</text>
	<text transform="matrix(1 0 0 1 604.3441 175.9975)" class="st1 st2 st3">Del.</text>
	<text transform="matrix(1 0 0 1 566.4809 204.994)" class="st1 st2 st3">Md.</text>
	<text transform="matrix(1 0 0 1 487.4699 296.4322)" class="st1 st2 st3">Ga.</text>
	<text transform="matrix(1 0 0 1 399.9193 348.7788)" class="st1 st2 st3">Ala.</text>
	<text transform="matrix(1 0 0 1 360.399 321.2331)" class="st1 st2 st3">Miss.</text>
	<text transform="matrix(1 0 0 1 449.7638 216.6868)" class="st1 st2 st3">W. Va.</text>
	<text transform="matrix(1 0 0 1 478.0997 229.7823)" class="st1 st2 st3">Va.</text>
	<text transform="matrix(1 0 0 1 505.7568 110.4924)" class="st1 st2 st3">N.J.</text>
	<text transform="matrix(1 0 0 1 591.0214 143.8413)" class="st1 st2 st3">Conn.</text>
	<text transform="matrix(1 0 0 1 608.2111 97.0116)" class="st1 st2 st3">R.I.</text>
	<text transform="matrix(1 0 0 1 590.0378 70.2665)" class="st1 st2 st3">Mass.</text>
	<text transform="matrix(1 0 0 1 608.2111 38.3552)" class="st1 st2 st3">Maine</text>
	<text transform="matrix(1 0 0 1 544.0184 19.727)" class="st1 st2 st3">Vt.</text>
	<text transform="matrix(1 0 0 1 570.393 19.727)" class="st1 st2 st3">N.H.</text>
	<text transform="matrix(1 0 0 1 501.2876 91.0116)" class="st1 st2 st3">N.Y.</text>
	<text transform="matrix(1 0 0 1 320.5712 334.0225)" class="st1 st2 st3">Ark.</text>
	<text transform="matrix(1 0 0 1 273.1031 283.1418)" class="st1 st2 st3">Okla.</text>
	<text transform="matrix(1 0 0 1 343.1533 244.4339)" class="st1 st2 st3">Mo.</text>
	<text transform="matrix(1 0 0 1 304.7302 191.4922)" class="st1 st2 st3">Ill.</text>
	<text transform="matrix(1 0 0 1 354.718 191.4975)" class="st1 st2 st3">Ind.</text>
	<text transform="matrix(1 0 0 1 410.4493 191.4975)" class="st1 st2 st3">Ohio</text>
	<text transform="matrix(1 0 0 1 437.863 99.1042)" class="st1 st2 st3">Pa.</text>
	<text transform="matrix(1 0 0 1 420.1705 269.7755)" class="st1 st2 st3">Tenn.</text>
	<text transform="matrix(1 0 0 1 386.4507 230.9998)" class="st1 st2 st3">Ky.</text>
</g>
</svg>
