<?xml version="1.0" encoding="utf-8"?>
<!-- Generator: Adobe Illustrator 19.1.0, SVG Export Plug-In . SVG Version: 6.00 Build 0)  -->
<svg version="1.1" id="Layer_1" xmlns="http://www.w3.org/2000/svg" xmlns:xlink="http://www.w3.org/1999/xlink" x="0px" y="0px"
	 viewBox="15 -10.7 40 31.7" style="enable-background:new 15 -10.7 40 31.7;" xml:space="preserve">
<style type="text/css">
	.st0{fill:#BACBE8;}
	.st1{fill:#E3EAF6;}
	.st2{fill:#5578BA;}
</style>
<g>
	<g>
		<path class="st0" d="M20.8,3.3c0.6-0.7,1.4-2.5,6.8-1.7c5.5,0.8,6.2,0.4,8.5-0.5c2.4-0.9,4.5-4.9,5.3-5.9c0.7-0.9,3-3.1,3-3.1
			s0.6-2.6,1.3-2.8c0.7-0.2,0.5,2.3,0.5,2.3h0.3c0,0,1.3-2.1,1.8-2.3s-0.2,1.4,0.1,2.4C49.1-8,49.7-7,49.7-7s1.9,1.8,2.3,2.5
			c0.4,0.7,1.1,1.3,0.8,2.9c-0.3,1.4-0.6,1.7-1.3,2.3c-0.4-0.3-0.7-0.4-0.7-0.4s-0.4,0.1-1.5,0.2c-1.4,0.2-2.5-0.1-2.9-0.8
			c0,1-0.7,4.3-0.7,4.3s0,7.5,0,8.6v7.1c0,0,0.2,1.2-0.3,1.2c-0.6,0-1.4,0-1.4,0s-0.3,0.1-0.5-1.1c-0.2-1.2-1.2-7.2-1.2-7.2
			s-0.1-0.2-0.4-0.2c-0.3,0-0.5,0-0.5,0s-0.5-0.2-0.5,0.2c0,0.4,0,7.7,0,7.7s0,0.6-0.5,0.6c-0.5,0-1.1,0-1.1,0s-0.5,0-0.6-1
			c-0.1-1.2-1.1-6.9-1.1-6.9s0.1-0.8-0.8-0.6c-5.5,1.5-8.9,0-8.9,0s-0.5-0.1-0.6,0.5c-0.1,0.6-0.6,7.1-0.6,7.1s0,0.9-0.5,0.8h-1
			c0,0-0.4-0.1-0.4-0.8c0-1-0.5-7-0.5-7s0.1-0.7-0.3-0.7c-0.4,0-0.9,0-0.9,0s-0.1,0.2-0.2,0.7c-0.1,0.5-1,7.1-1,7.1s0,0.8-0.4,0.7
			h-1.5c0,0-0.3,0-0.2-1.3c0-0.5,0.1-0.5,0-11.9c0,0,0-2.2,0.5-3.2L20.8,3.3z"/>
		<path class="st1" d="M54.7-1.7c0,0,1.4,3-1.6,3c-1.3-0.3-1.6-0.5-1.6-0.5s0.3-1.1,0.8-1.8c0.5-0.7,0.6-1.3,0.4-1.8
			c-0.2-0.5-1.3-2.4-1.3-2.4S54.1-3.3,54.7-1.7z"/>
		<ellipse class="st2" cx="53.9" cy="-1.4" rx="0.3" ry="0.3"/>
		<ellipse class="st2" cx="49.3" cy="-4.1" rx="0.6" ry="0.7"/>
		<path class="st2" d="M45.7-9.9c0.1-0.1,0.3,0,0.3,0c0.1,0.2,0.1,0.3,0.1,0.4c0,0.3,0,0.5,0,0.7c0,0.5,0,0.9,0,1.3
			C46-6.7,46-6.2,46-6.2s0-0.5,0-1.3c0-0.4,0-0.8,0-1.3c0-0.2,0-0.5-0.1-0.7c0-0.1,0-0.3-0.1-0.3c0,0,0.1,0.1,0.1,0c0,0,0,0-0.1,0.1
			c0,0,0,0.1,0,0.1c-0.2,0.4-0.3,0.9-0.3,1.4c-0.1,0.5-0.2,0.9-0.2,1.3c0,0.4-0.1,0.7-0.1,0.9c0,0.2,0,0.3,0,0.3s0-0.1-0.1-0.3
			c0-0.2,0-0.5,0-0.9c0-0.4,0-0.8,0.1-1.3c0.1-0.5,0.1-1,0.3-1.5"/>
		<path class="st2" d="M47.9-9.7c0.1-0.1,0.2-0.1,0.2-0.1s0,0.1-0.1,0.2c-0.1,0.1-0.2,0.3-0.3,0.5c-0.2,0.3-0.4,0.7-0.4,0.7
			c0,0,0,0,0-0.1c0,0,0-0.1,0-0.2c0-0.1,0-0.2,0.1-0.3c0-0.1,0.1-0.2,0.2-0.3"/>
		<path class="st2" d="M49.5-7.4l1.1,1.8L48.8-7l0.1,1.4L47.8-7v1.2l-1.7-1c0,0-0.1-1.6,0.5-1.6C47.3-8.4,48.8-8.7,49.5-7.4z"/>
	</g>
	<path class="st0" d="M16.9,11l-0.8-0.7c0.7-0.8,1.1-1.5,1.4-2.3c0.1-0.2,0.1-0.5,0.2-0.8c0.1-0.5,0.2-1.1,0.5-1.6
		c0.5-1.1,1.4-1.7,2.3-2.3c0.4-0.3,0.9-0.6,1.3-1L22.6,3c-0.4,0.4-0.9,0.8-1.4,1.1c-0.8,0.6-1.5,1.1-2,2c-0.2,0.4-0.3,0.9-0.4,1.3
		c-0.1,0.3-0.1,0.6-0.2,0.9C18.2,9.3,17.7,10.1,16.9,11z"/>
	<path class="st2" d="M17.1,9.6c0,0,0.3,2.1-1.1,3.6c-0.2,0,0.1-0.9,0.1-0.9l-0.3,0.6c0,0-0.2-0.1-0.1-0.9C15.9,11.1,15,13,15,13
		s-0.2-1.1,0.5-2.1C16.2,9.9,17.1,9.6,17.1,9.6z"/>
	<path class="st2" d="M44.3-7.7c0,0-1.8,1.4-3.1,3.3c-1.3,1.9-2.7,3.8-3.1,4.2s0,2.5,0,2.5l2-2.1l-0.3,2.1l2.1-3.6l0.4,1.6l0.1-3.6
		l1.5,3.1l-0.5-3.5l1.7-0.6l-0.6-1.5L44.3-7.7"/>
</g>
</svg>
