<?xml version="1.0" encoding="utf-8"?>
<!-- Generator: Adobe Illustrator 19.1.0, SVG Export Plug-In . SVG Version: 6.00 Build 0)  -->
<svg version="1.1" id="Layer_1" xmlns="http://www.w3.org/2000/svg" xmlns:xlink="http://www.w3.org/1999/xlink" x="0px" y="0px"
	 viewBox="0 0 20 20" style="enable-background:new 0 0 20 20;" xml:space="preserve">
<style type="text/css">
	.st0{fill:#EFC41D;}
	.st1{fill:#E42728;}
	.st2{fill:#5578BA;}
	.st3{fill:#A1C566;}
	.st4{fill:none;stroke:#A1C566;stroke-linecap:round;stroke-linejoin:round;stroke-miterlimit:10;}
</style>
<polygon class="st0" points="5.1,7.1 13,15 0,19.9 "/>
<path class="st1" d="M8.4,8.6c-0.1,0-0.2,0-0.2-0.1c-1.3-0.7-2-1.3-2.1-1.8c0-0.3,0.1-0.5,0.3-0.6c0.3-0.2,0.9-0.3,1.4-0.4
	c0.1,0,0.2,0,0.3,0C7.9,5.6,7.6,5.4,7.4,5.3C6.6,4.9,6.1,4.7,6.2,4.2c0-0.1,0.1-0.4,0.6-0.5c0.8-0.1,1.4-0.3,1.7-0.4
	C8.2,3.2,7.8,3,7.4,2.9C6.3,2.4,5.8,2.2,5.9,1.7c0.1-0.5,0.6-0.6,0.8-0.6c1.4-0.2,1.9-0.3,1.9-0.7c0-0.3,0.2-0.5,0.5-0.5
	c0.3,0,0.5,0.3,0.5,0.5C9.5,1.4,8.7,1.8,7.8,1.9c0,0,0,0,0.1,0c0.5,0.2,1.1,0.5,1.5,0.7c0.5,0.3,0.5,0.7,0.4,0.8
	C9.6,3.8,9.4,4.2,8,4.5c0.6,0.3,1.1,0.6,1.4,0.9C9.6,5.7,9.5,6,9.5,6.1C9.3,6.6,8.7,6.7,8,6.8c-0.2,0-0.5,0.1-0.7,0.1
	c0.3,0.2,0.8,0.5,1.3,0.8C8.9,7.8,9,8.1,8.8,8.3C8.8,8.5,8.6,8.6,8.4,8.6z"/>
<path class="st2" d="M12,13.5C12,13.5,11.9,13.5,12,13.5c-0.3,0-0.5-0.3-0.5-0.6c0.2-1.5,0.5-2.4,1-2.6c0.2-0.1,0.5-0.1,0.7,0.1
	c0.3,0.2,0.6,0.7,0.8,1.2c0,0.1,0.1,0.2,0.1,0.3c0.1-0.3,0.1-0.6,0.1-0.9c0.1-0.9,0.1-1.4,0.6-1.5c0.1,0,0.4,0,0.7,0.4
	c0.4,0.7,0.7,1.2,1,1.4c0-0.3,0.1-0.7,0.1-1.1c0-1.2,0.1-1.8,0.6-1.9c0.5-0.1,0.7,0.4,0.8,0.6c0.7,1.3,1,1.6,1.3,1.5
	c0.3-0.1,0.5,0.1,0.6,0.3c0.1,0.3-0.1,0.5-0.3,0.6c-0.9,0.3-1.5-0.4-2-1.2c0,0,0,0,0,0.1c0,0.6,0,1.2-0.1,1.6
	c-0.1,0.5-0.4,0.7-0.6,0.7c-0.3,0.1-0.8-0.1-1.6-1.3c-0.1,0.7-0.2,1.3-0.4,1.6c-0.2,0.3-0.5,0.4-0.6,0.4c-0.5,0-0.8-0.5-1.1-1.2
	c-0.1-0.2-0.2-0.4-0.3-0.6c-0.1,0.4-0.2,0.9-0.3,1.5C12.5,13.3,12.2,13.5,12,13.5z"/>
<path class="st3" d="M11.6,8.3c-0.2,0-0.4-0.2-0.4-0.4c-0.4-1.5-0.4-2.4,0-2.7c0.2-0.2,0.4-0.2,0.7-0.2c0.4,0.1,0.8,0.5,1.2,0.8
	C13.2,6,13.2,6,13.3,6.1c-0.1-0.3-0.1-0.6-0.2-0.9c-0.2-0.9-0.3-1.3,0.1-1.6c0.1-0.1,0.4-0.2,0.8,0.1c0.6,0.5,1.1,0.8,1.4,1
	C15.2,4.4,15.1,4,15,3.7c-0.4-1.1-0.6-1.7-0.1-2c0.4-0.3,0.8,0.1,1,0.2c1.1,0.9,1.5,1.2,1.8,1c0.2-0.2,0.5-0.1,0.7,0.1
	c0.2,0.2,0.1,0.5-0.1,0.7c-0.8,0.6-1.6,0.2-2.3-0.4c0,0,0,0,0,0.1c0.2,0.6,0.4,1.1,0.4,1.6c0.1,0.5-0.2,0.8-0.4,0.9
	C15.7,6,15.3,6,14.1,5.2c0.2,0.7,0.3,1.2,0.2,1.6c-0.1,0.4-0.3,0.5-0.4,0.6c-0.5,0.2-0.9-0.2-1.5-0.7c-0.2-0.1-0.3-0.3-0.5-0.4
	c0,0.4,0.1,1,0.3,1.5c0.1,0.3-0.1,0.5-0.4,0.6C11.7,8.4,11.7,8.4,11.6,8.3z"/>
<path class="st4" d="M12.1,7.4"/>
</svg>
