<?xml version="1.0" encoding="utf-8"?>
<!-- Generator: Adobe Illustrator 19.1.0, SVG Export Plug-In . SVG Version: 6.00 Build 0)  -->
<svg version="1.1" id="Layer_1" xmlns="http://www.w3.org/2000/svg" xmlns:xlink="http://www.w3.org/1999/xlink" x="0px" y="0px"
	 viewBox="-410 412 78 78" style="enable-background:new -410 412 78 78;" xml:space="preserve">
<style type="text/css">
	.st0{fill:#E52426;}
</style>
<g>
	<path class="st0" d="M-371,468.6c-8.4,0-15.4-5.9-17.2-13.8h11.3l-16.5-24.4l-16.6,24.4h11.3c1.9,13.6,13.5,24.2,27.7,24.2
		c4.7,0,9.1-1.2,13-3.2l-7.9-8C-367.5,468.3-369.2,468.6-371,468.6z"/>
	<path class="st0" d="M-343.5,446.5c-2.2-13.3-13.7-23.5-27.6-23.5c-4.7,0-9.1,1.2-13,3.2l7.9,7.9c1.6-0.5,3.3-0.8,5.1-0.8
		c8.2,0,15,5.6,17,13.1h-11.1l16.6,24.4l16.6-24.3H-343.5L-343.5,446.5z"/>
</g>
</svg>
