<?xml version="1.0" encoding="utf-8"?>
<!-- Generator: Adobe Illustrator 15.0.0, SVG Export Plug-In . SVG Version: 6.00 Build 0)  -->
<!DOCTYPE svg PUBLIC "-//W3C//DTD SVG 1.1//EN" "http://www.w3.org/Graphics/SVG/1.1/DTD/svg11.dtd">
<svg version="1.1" id="Layer_1" xmlns="http://www.w3.org/2000/svg" xmlns:xlink="http://www.w3.org/1999/xlink" x="0px" y="0px"
	 width="78px" height="78px" viewBox="0 0 78 78" enable-background="new 0 0 78 78" xml:space="preserve">
<g>
	<path fill="#FFFFFF" d="M38.912,56.98c-8.401,0-15.414-5.893-17.157-13.777h11.347L16.5,18.777L-0.093,43.203h11.335
		c1.862,13.641,13.524,24.172,27.677,24.172c4.7,0,9.117-1.174,13-3.221L44,56.23C42.384,56.715,40.686,56.98,38.912,56.98z"/>
	<path fill="#FFFFFF" d="M66.486,34.896c-2.153-13.299-13.658-23.461-27.566-23.468c-4.692,0-9.117,1.177-13,3.222l7.92,7.919
		c1.608-0.488,3.321-0.754,5.088-0.754c8.157,0,14.984,5.558,16.98,13.082H44.764l16.601,24.431l16.597-24.431H66.486z"/>
</g>
</svg>
