<?xml version="1.0" encoding="utf-8"?>
<!DOCTYPE svg PUBLIC "-//W3C//DTD SVG 1.1//EN" "http://www.w3.org/Graphics/SVG/1.1/DTD/svg11.dtd">
<svg version="1.1" xmlns="http://www.w3.org/2000/svg" width="1000" height="564" viewBox="0 0 1000 564">
  <path class="state" d="M32,444l6,4l-1,4l-7,-1l-5,-9ZM481,49l12,-5l10,-7v9l2,-5l-3,-5l6,-6l9,2l9,-4l8,-13l6,5h5l-4,6l5,3l2,-7l6,2v5l6,1l7,-4l10,1v7l6,1l-2,3l12,-2l1,1l-1,2v1l8,-6l10,1l16,4l14,-2l7,4l7,-1l6,-4l2,-2h10l5,3l14,3l1,1v2l2,5v1l1,3l1,4v1l1,4l1,2l1,4v2l2,3l1,6v3l1,4l2,4v3l3,11h1l5,18l1,3l1,4v2l1,1l1,6l1,1v1l1,4l1,2v3l1,3l1,4v2l1,1l2,6l1,4v3l1,3l1,1v2l1,2v2l1,1v2l1,4l1,2l2,6l1,5v1l1,3l2,4v4l2,6l1,7l1,4h1v1l2,6v1l1,2v3l2,6l1,2v1l1,2v2l1,2l1,4l1,3l1,4l2,8l1,3l2,5v2l3,14l1,2h1l7,-1h5l4,-5l9,-3l1,8l29,16l2,4l2,3v2h1l3,-5l3,-3l4,-3l1,-4v-6h1l-2,-4l1,-1h1l1,-2l1,-1l1,-1l1,-1l3,-4l7,4v-1l3,6h2l-1,1v1h1l1,1l3,-1v1l7,3l1,2h1l2,3l5,1l3,1h1l1,2h2l5,3l-1,1l2,1l12,11l6,4l3,3l5,4l2,6l5,-1l1,4v1h5v2l2,2l5,-1l1,1h2l3,1h1l2,1h10l1,1l1,1h4l5,1v7l8,11v14l-7,7l-8,-9v-9l-3,-7l-12,-4l-3,5l1,11l-5,-2l-1,-2v-15l-12,-6v-4h-1v1h-4l-7,-8l-11,2l2,-5l-8,-6l-2,-6l-1,-3l1,-1l-1,3l-1,1l-11,-8l-16,-8l-3,-8v-1v1l1,4l-4,-4l-6,-9h-1l-1,4l16,21l-4,5l-4,-6l1,3h-6v-1l-1,-2l-6,-3l-12,-3l10,5l6,4l1,5h-5l-5,5l-21,-9l-6,-6h-7l-12,-5l-6,-3l2,-5l-4,-9l-2,8l-10,6l-13,-1l1,-7h-4v5l-15,-1l-17,7l-6,-3l-11,-1l1,-4l-1,-5l-5,9l-7,-4v-4l-7,2v-4l-15,-5l-2,4l-5,-7l-1,10l-6,-8l-1,9l-5,3l1,3l6,-2l-6,6v1l10,-2l-6,16l-1,1h-1l-9,-1l-5,3v7l-7,7l-2,-1l-9,11l-13,1l1,-6l9,-4l1,-7l-5,5l-5,-2l1,-10l4,-6l1,-9l-3,-5l5,-2l7,-9l20,3l-2,-2l-8,-2l-5,-3l4,-7l6,-4l-6,1l-2,7l-14,3l-2,5l-9,4v4l-6,9l-5,20l-3,4l-16,12v9h7l7,5h-1l-4,8l-9,10l-3,7l-8,1v4l-8,3l1,4l-7,3l-9,9l4,3l-9,6l-3,6l-5,-3v7h-7l1,4h-8l-2,6h5l-8,10l-14,2l-1,7v-5l-5,-1l-5,5l-21,7l1,-7h-3l-2,8l-6,3l1,4l-9,2l-2,-7l1,8l-4,2l-5,-7l1,6l-6,3l2,-8l13,-7v-4l8,-7l10,-5h9l11,6l-4,-5l3,-10l23,-17v2l4,1l-1,-6l6,-9l9,-10l3,-25l4,-4l4,-8h-2v1h-2v1h-1v-1l-1,1h-1v1h-2v1h-1l-1,1h-1v1h-1v1h-2l-4,1l-4,-6l-4,2l-5,-2l5,8l-5,4l-3,-10l-4,-3l-10,-1l-2,-4l-7,4l-3,1v1l-5,2l-3,4l-4,-2l1,-11l4,-2l-6,-1l1,-8l3,-2l-5,-12l-2,-9l-4,-5l1,9l-15,6l-10,-1l-5,-12l2,-8l9,-8l1,6l5,-1l-4,-9l-12,1l-7,-3l1,-6l-7,1l-3,-8v-1l2,-4l-6,-3l7,-1l-5,-5h7l-1,-7l10,-12h4l4,-6l8,6l-2,-10l17,-6l4,-3l5,-8l2,3h10l7,-8l-2,-15l-6,-8l9,-2l-3,-10l-5,5h-6l-9,6l-3,5l-3,-8l-3,4l-7,-4l-12,2l-3,2l-13,-6l-4,-3l1,-8l-4,-5l5,-4l6,1l3,6l3,-2l-14,-9l-7,-1l-9,-7l8,-4l3,-4l12,-6l7,2l-1,-6l18,-6h7l-3,12l1,3l1,1l12,-1l9,3l5,-7l5,5l1,-3l-1,-4l-9,-1v-5l-8,-11l4,-1l2,9l6,6l5,-3l3,6l7,-1v-3l-6,-5l-6,4l-5,-3l-1,-6l3,-6h-10l-14,-4v-9l-4,-7l-12,-12l-13,-12h4l3,-14l21,1l7,-4l6,-7v-10ZM948,372l8,6l2,13l-13,-2l-2,-14ZM931,372l-6,-7l10,4ZM922,381l10,3l4,6l-4,-1v5l3,-2l10,3v8l6,7l-9,-2l-2,-1l-2,-4l-13,-1l2,-3l-3,-6l-4,2v-9l-4,-7l-7,1l-1,-4l8,-2l2,6ZM933,375l2,3l-11,-1v-7l10,3ZM914,359l7,4l-5,4ZM928,403l3,4l10,8l-10,-4ZM907,358l-1,-1h-1l8,1l1,13h-4l-4,3l-4,-8l-6,-9ZM900,367l4,4v17l-6,-7v-5l-6,-6v-6ZM872,332h6l2,-2l9,9l-8,-1l9,5l-1,6l5,2l-9,11l-3,-12l-5,-5l-4,-10l-1,-2v1h1v1ZM882,374l-5,-1v-6l-4,-5h-4l-1,-8l12,2l10,17l4,12l1,2l-6,-2l-7,-7v-4ZM854,352l-1,-1h-1l-1,-5l7,3l-9,-5l7,-9l5,2l-1,4l-1,2l5,-6h7l2,7l-3,3l-12,-3l10,4l7,-2l3,6l-12,1l1,7l-7,-2ZM680,321l-2,15l-7,4ZM612,387l5,6l-11,6l-7,-5l7,-2l-2,-4l5,-2l2,4l1,-3ZM607,403h4l1,8h5l-3,5l-13,7l-10,15l-4,-11v6l-6,-1v-7l-4,-2l1,-7l9,-4l4,7l-2,-14l11,2v-5ZM432,487l5,4l-1,8h-13l-3,5l-8,1l-1,-7l3,-1l3,-6ZM446,247l6,5l-3,5l-5,1l-6,-5ZM439,254l5,4l-1,5l-9,-3ZM433,328l-3,5l-4,-1l-6,-7l7,-4l5,-5l5,3ZM410,327l5,5l-2,12l-13,-1l-7,-4l-1,-8l7,2v-3ZM380,512l4,1l2,8l-8,7h-9l-9,4l-1,-4l10,-1l2,-11ZM334,541l6,-10l8,-1l3,-8l7,2l-1,4l-7,2l-5,6ZM351,219l1,6l8,2l8,-2l2,6l5,5l11,3l-1,4l-8,-1l-5,2l-6,-4l-1,-5l-6,-5l-8,3l-4,-8ZM315,306v4l7,6h-5l-4,-6ZM253,545l4,3h-6l-7,-4ZM243,535l-1,9h-12l-11,-3h16l5,-2ZM198,535l1,8h-11ZM171,530l8,5l-5,3Z"/>
<g class="geos"><path data-name="Ketchikan Gateway" class="geo-130" d="M937,386l2,-2l-2,-11l3,-3l4,-4l1,-7h10l1,1l1,1h4l1,3l-2,2l6,3l8,11v14l-7,7l-8,-9v-9l-3,-7l-12,-4l-3,5l1,11ZM948,372l8,6l2,13l-13,-2l-2,-14Z"/><path data-name="Northwest Arctic" class="geo-188" d="M442,108l10,1v-6l19,2v-3l13,1l6,3h41v2h11l9,3v7l8,4v10l8,2v13l-8,1v5h-8v8h-4l-3,-5h-5v5h-5v-5h-10l1,11h-14v4h-6v13l-3,3l-48,-2l-2,-11h-2v-23h7l-3,12l1,3l1,1l12,-1l9,3l5,-7l5,5l1,-3l-1,-4l-9,-1v-5l-8,-11l4,-1l2,9l6,6l5,-3l3,6l7,-1v-3l-6,-5l-6,4l-5,-3l-1,-6l3,-6h-10l-14,-4v-9l-4,-7Z"/><path data-name="Sitka" class="geo-220" d="M853,351l5,-2v-5l10,4l7,-2l3,6l-12,1l1,7l-7,-2l-6,-6ZM894,385l1,2l-6,-2l-7,-7v-4l-5,-1v-6l-4,-5h-4l-1,-8l12,2l10,17Z"/><path data-name="Yukon-Koyukuk" class="geo-290" d="M702,72l1,6v3l1,4l2,4v3l3,11h1l5,18l1,3l1,4v2l1,1l1,6l1,1v1l1,4l1,2v2l-1,1l-1,1l-3,8l-1,2l-5,2l-2,2h-1l-3,4l1,1l-3,6l-1,2l-1,1l-1,1v5l-1,5l-1,1h-4v-13l-23,6l1,-4h-6l-2,-6l-7,6l-8,4l-13,2l3,17l4,3l2,1l1,2l1,1h1h-1l-34,5l-5,10l-6,-1l-3,2l-1,11l-8,1l1,8l5,1v6l-6,11l1,13l-9,9l-22,2h-23v-3l-20,1v3h-9v2h-18l-5,-1l-1,-7l1,-21l2,-3l3,-7v-8l7,-2l5,-5v-8h-3v-20l6,-6v-30h6v-4h14l-1,-11h10v5h5v-5h5l3,5h4v-8h8v-5l8,-1v-13l-8,-2v-10l-8,-4v-7l51,-4l44,-7l6,-1l-3,-14l29,-6Z"/><path data-name="Anchorage" class="geo-020" d="M645,293h11l2,17l-3,3l-5,-2l-2,-2l-8,-2l-5,-3l4,-7Z"/><path data-name="Prince of Wales-Hyder" class="geo-198" d="M962,364l-1,-3l5,1v7l-6,-3ZM907,358l-2,5v2h-1h1l5,6l-4,3l-4,-8l-6,-9ZM922,381l10,3l4,6l-4,-1v5l3,-2l10,3v8l6,7l-9,-2l-2,-1l-2,-4l-13,-1l2,-3l-3,-6l-4,2v-9l-4,-7l-7,1l-1,-4l8,-2l2,6ZM928,403l3,4l10,8l-10,-4ZM900,367l4,4v17l-6,-7v-5l-6,-6v-6Z"/><path data-name="Petersburg" class="geo-195" d="M893,337l2,-2l1,1l1,-1l1,1l2,-1h3l2,2l3,-1l3,3l5,4l2,6l5,-1l1,4l-5,8l-7,-8l-11,2l2,-5l-8,-6l-2,-6ZM910,371l-5,-6h-1h1v-2l2,-5l-1,-1h-1l8,1l1,13h-4ZM914,359l7,4l-5,4Z"/><path data-name="Wrangell" class="geo-275" d="M919,360l5,-8v1h5v2l2,2l5,-1l1,1h2l3,1h1l2,1l-1,7l-4,4l-3,3l2,11l-2,2l-1,-2v-15l-12,-6v-4h-1v1ZM931,372l-6,-7l10,4ZM933,375l2,3l-11,-1v-7l10,3Z"/><path data-name="Juneau" class="geo-110" d="M861,312l9,-3l2,3l5,1l3,1h1l1,2h2l5,3l-1,1l2,1l5,4l-2,8l-1,3l-1,1l-11,-8l-16,-8l-3,-8Z"/><path data-name="Kenai Peninsula" class="geo-122" d="M650,311l5,2h1l1,3v5l3,3l1,11l-1,1h-1l-9,-1l-5,3v7l-7,7l-2,-1l-9,11l-13,1l1,-6l9,-4l1,-7l-5,5l-5,-2l1,-10l4,-6l1,-9l-3,-5l5,-2l7,-9ZM596,376h-1l-7,6l-7,1l-5,1l-3,-18l5,-1v-4l5,-1l2,-8l3,-3l-1,-10l3,-18l-2,-5l-1,-15h6l24,-3v5l6,1l-2,5l-9,4v4l-6,9l-5,20l-3,4l-16,12v9h7Z"/><path data-name="Denali" class="geo-068" d="M647,208h2l2,1l10,-1l4,22l-13,3v4l-19,3l-16,12l-12,7v2l-15,1l6,-11v-6l-5,-1l-1,-8l8,-1l1,-11l3,-2l6,1l5,-10Z"/><path data-name="Southeast Fairbanks" class="geo-240" d="M661,208l3,-1l6,-5l21,-10l3,-3h4l1,-1l1,-5v-5l1,-1l1,-1l1,-2l3,-6l-1,-1l3,-4h1l2,-2l5,-2l1,-2l3,-8l1,-1l1,-1v1l1,3l1,4v2l1,1l2,6l1,4v3l1,3l1,1v2l1,2v2l1,1v2l1,4l1,2l2,6l1,5v1l1,3l2,4v4l2,6l1,7l1,4h1v1l2,6v1l1,2v3l2,6l1,2v1l1,2v2l1,2l-11,3l-4,-6l-2,-11l-6,-4l-6,1l-4,4l-3,-14l-27,5v-2l-14,3h-1l-2,1l-2,-9l-6,1Z"/><path data-name="Valdez-Cordova" class="geo-261" d="M673,238l2,-1h1l14,-3v2l27,-5l3,14l4,-4l6,-1l6,4l2,11l4,6l11,-3l1,4l1,3l1,4l2,8l1,3l2,5v2l3,14l-10,1l-1,-3l-14,4l-6,2l-6,16l-6,-3l-11,-1l1,-4l-1,-5l-5,9l-7,-4v-4l-7,2v-4l-15,-5l-2,4l-5,-7l-1,10l-6,-8l-1,9l-5,3h-1l3,-3l-2,-17l17,-3l3,-2l-4,-22l7,-1l-3,-18ZM660,336l1,-1l-1,-11l-3,-3l10,-2l-6,16ZM680,321l-2,15l-7,4Z"/><path data-name="Fairbanks North Star" class="geo-090" d="M694,189l-3,3l-21,10l-6,5l-3,1l-10,1l-2,-1h-2l-1,-1l-1,-2l-2,-1l-4,-3l-3,-17l13,-2l8,-4l7,-6l2,6h6l-1,4l23,-6Z"/><path data-name="Haines" class="geo-100" d="M837,311v-5h1l-2,-4l1,-1h1l1,-2l1,-1l1,-1l1,-1l9,8l-1,4l16,21l-4,5l-4,-6v-4l-5,-1v-7l-4,-4h-12ZM852,304l4,-1h1l1,1l3,-1v1l7,3l1,2h1l-9,3l-3,1Z"/><path data-name="Bethel" class="geo-050" d="M490,289h18v-2h9v-3l20,-1v3h23l22,-2l9,-9l2,26h-6l1,15l-24,2h-11l-16,1l-6,-2l-4,2h-16l-1,6l-4,2l-1,7h-3l-6,18h-4l-2,10l-6,5l-4,12v1l-5,2l-3,4l-4,-2l1,-11l4,-2l-6,-1l1,-8l3,-2l-5,-12l-2,-9l-4,-5l1,9l-15,6l-10,-1l-5,-12l2,-8l9,-8l1,6l5,-1l-4,-9l-12,1l-7,-3h13v-5l5,-2l-1,-4l7,1l10,-5l12,3l9,-3l11,-7ZM433,328l-3,5l-4,-1l-6,-7l7,-4l5,-5l5,3ZM410,327l5,5l-2,12l-13,-1l-7,-4l-1,-8l7,2v-3ZM315,306v4l7,6h-5l-4,-6Z"/><path data-name="Lake and Peninsula" class="geo-164" d="M512,439l4,1l-1,-6l6,-9l9,-10l3,-25l4,-4h14l-1,-8h-11v1h-1l-1,-12l7,-2l4,-8l7,-3l-2,-36h11l24,-2l2,5l-3,18l1,10l-3,3l-2,8l-5,1v4l-5,1l3,18l5,-1l1,5l-4,5l-11,4v10l-5,2l-3,7l-8,1l-5,11h6l-9,6l-3,6l-5,-3v7h-7l1,4h-8l-2,6h5l-8,10l-14,2l-1,7v-7l-4,-3l-1,-15l10,-2Z"/><path data-name="Bristol Bay" class="geo-060" d="M541,378h9l1,8h-14Z"/><path data-name="Dillingham" class="geo-070" d="M480,379l4,-12l6,-5l2,-10h4l6,-18h3l1,-7l4,-2l1,-6h16l4,-2l6,2l16,-1l2,36l-7,3l-4,8l-7,2l1,12h-1v1h-1v-1l-1,1h-1v1h-2v1h-2v1h-1v1h-1v1h-2l-4,1l-4,-6l-4,2l-5,-2l5,8l-5,4l-3,-10l-4,-3l-10,-1l-2,-4l-7,4Z"/><path data-name="Matanuska-Susitna" class="geo-170" d="M591,275l-1,-13l15,-1v-2l12,-7l16,-12l19,-3v-4l13,-3l6,-1l2,9l3,9l3,18l-7,1l4,22l-3,2l-17,3h-11l-6,1l-2,7l-14,3l-6,-1v-5l-24,3Z"/><path data-name="Aleutians East" class="geo-013" d="M512,437v2l-6,7l-10,2l1,15l4,3v7v-5l-5,-1l-5,5l-21,7l1,-7h-3l-2,8l-6,3l1,4l-9,2l-2,-7l1,8l-4,2l-5,-7l1,6l-6,3l2,-8l13,-7v-4l8,-7l10,-5h9l11,6l-4,-5l3,-10ZM432,487l5,4l-1,8h-13l-3,5l-8,1l-1,-7l3,-1l3,-6Z"/><path data-name="Kusilvak" class="geo-158" d="M465,249l7,5v3h15l-2,3l-1,21l1,7l5,1l1,3l-11,7l-9,3l-12,-3l-10,5l-7,-1l1,4l-5,2v5h-13l1,-6l-7,1l-3,-8v-1l2,-4l-6,-3l7,-1l-5,-5h7l-1,-7l10,-12h4l4,-6l8,6l-2,-10l17,-6ZM446,247l6,5l-3,5l-5,1l-6,-5ZM439,254l5,4l-1,5l-9,-3Z"/><path data-name="North Slope" class="geo-185" d="M692,40l1,1v2l2,5v1l1,3l1,4v1l1,4l1,2l1,4v2l2,3l-24,7l-29,6l3,14l-6,1l-44,7l-51,4l-9,-3h-11v-2h-41l-6,-3l-13,-1v3l-19,-2v6l-10,-1l-13,-12h4l3,-14l21,1l7,-4l6,-7v-10l11,-13l12,-5l10,-7v9l2,-5l-3,-5l6,-6l9,2l9,-4l8,-13l6,5h5l-4,6l5,3l2,-7l6,2v5l6,1l7,-4l10,1v7l6,1l-2,3l12,-2l1,1l-1,2v1l8,-6l10,1l16,4l14,-2l7,4l7,-1l6,-4l2,-2h10l5,3Z"/><path data-name="Nome" class="geo-180" d="M450,151v23h2l2,11l48,2l3,-3v17l-6,6v20h3v8l-5,5l-7,2v8l-3,7h-15v-3l-7,-5l5,-8l2,3h10l7,-8l-2,-15l-6,-8l9,-2l-3,-10l-5,5h-6l-9,6l-3,5l-3,-8l-3,4l-7,-4l-12,2l-3,2l-13,-6l-4,-3l1,-8l-4,-5l5,-4l6,1l3,6l3,-2l-14,-9l-7,-1l-9,-7l8,-4l3,-4l12,-6l7,2l-1,-6ZM351,219l1,6l8,2l8,-2l2,6l5,5l11,3l-1,4l-8,-1l-5,2l-6,-4l-1,-5l-6,-5l-8,3l-4,-8Z"/><path data-name="Aleutians West" class="geo-016" d="M32,444l6,4l-1,4l-7,-1l-5,-9ZM380,512l4,1l2,8l-8,7h-9l-9,4l-1,-4l10,-1l2,-11ZM334,541l6,-10l8,-1l3,-8l7,2l-1,4l-7,2l-5,6ZM253,545l4,3h-6l-7,-4ZM243,535l-1,9h-12l-11,-3h16l5,-2ZM198,535l1,8h-11ZM171,530l8,5l-5,3Z"/><path data-name="Kodiak Island" class="geo-150" d="M581,383l7,-1l7,-6l-4,8l-9,10l-3,7l-8,1v4l-8,3l1,4l-7,3l-9,9l4,3h-6l5,-11l8,-1l3,-7l5,-2v-10l11,-4l4,-5ZM612,387l5,6l-11,6l-7,-5l7,-2l-2,-4l5,-2l2,4l1,-3ZM607,403h4l1,8h5l-3,5l-13,7l-10,15l-4,-11v6l-6,-1v-7l-4,-2l1,-7l9,-4l4,7l-2,-14l11,2v-5Z"/><path data-name="Yakutat" class="geo-282" d="M739,303l14,-4l1,3l10,-1l1,2h1l7,-1h5l4,-5l9,-3l1,8l29,16l2,4l2,3v2l-5,5l-6,-6h-7l-12,-5l-6,-3l2,-5l-4,-9l-2,8l-10,6l-13,-1l1,-7h-4v5l-15,-1l-17,7l6,-16Z"/><path data-name="Skagway" class="geo-230" d="M852,296v-1l3,6h2l-1,1v1l-4,1h-1l-9,-8l3,-4l7,4Z"/><path data-name="Hoonah-Angoon" class="geo-105" d="M892,334l1,-1l2,-8l7,7l6,4l-3,1l-2,-2h-3l-2,1l-1,-1l-1,1l-1,-1l-2,2ZM858,344v5l-5,2h-1l-1,-5l7,3l-9,-5l7,-9l5,2l-1,4l-1,2l5,-6h7l2,7l-3,3ZM820,332l5,-5h1l3,-5l3,-3l4,-3l1,-4h12l4,4v7l5,1v4l1,3h-6v-1l-1,-2l-6,-3l-12,-3l10,5l6,4l1,5h-5l-5,5ZM873,335h3l2,-3l2,-2l9,9l-8,-1l9,5l-1,6l5,2l-9,11l-3,-12l-5,-5Z"/></g>
  <path class="counties-mesh" d="M853,351l5,-2v-5M442,108l10,1v-6l19,2v-3l13,1l6,3h41v2h11l9,3l51,-4l44,-7l6,-1l-3,-14l29,-6l24,-7M645,293h11l2,17l-3,3l-5,-2M907,358l-2,5v2h-1h1l5,6M937,386l2,-2l-2,-11l3,-3l4,-4l1,-7M893,337l2,-2l1,1l1,-1l1,1l2,-1h3l2,2l3,-1M924,352l-5,8M861,312l9,-3M895,325l-2,8M655,313h1M657,321l3,3l1,11l-1,1M595,376l-7,6l-7,1l-5,1l-3,-18l5,-1v-4l5,-1l2,-8l3,-3l-1,-10l3,-18l-2,-5l-1,-15h6l24,-3v5l6,1M961,361l1,3l-2,2l6,3M648,208h1l2,1l10,-1l4,22l-13,3v4l-19,3l-16,12l-12,7v2l-15,1M551,111v7l8,4v10l8,2v13l-8,1v5h-8v8h-4l-3,-5h-5v5h-5v-5h-10l1,11h-14v4h-6v13l-3,3l-48,-2l-2,-11h-2v-23M753,258l-11,3l-4,-6l-2,-11l-6,-4l-6,1l-4,4l-3,-14l-27,5v-2l-14,3h-1l-2,1l-2,-9l-6,1M764,301l-10,1l-1,-3l-14,4l-6,2l-6,16M656,293l17,-3l3,-2l-4,-22l7,-1l-3,-18l-3,-9M842,296l9,8M858,328v-4l-5,-1v-7l-4,-4h-12M852,304l4,-1M591,275l2,26M588,316l-24,2h-11l-16,1l-6,-2l-4,2h-16l-1,6l-4,2l-1,7h-3l-6,18h-4l-2,10l-6,5l-4,12M425,314h13v-5l5,-2l-1,-4l7,1l10,-5l12,3l9,-3l11,-7l-1,-3M537,386h14l-1,-8h-9M538,379l-1,-12l7,-2l4,-8l7,-3l-2,-36M581,383l1,5l-4,5l-11,4v10l-5,2l-3,7l-8,1l-5,11h6M501,473v-7l-4,-3l-1,-15l10,-2l6,-7M722,147l-1,1l-1,1l-3,8l-1,2l-5,2l-2,2h-1l-3,4l1,1l-3,6l-1,2l-1,1l-1,1v5l-1,5l-1,1h-4v-13l-23,6l1,-4h-6l-2,-6l-7,6l-8,4l-13,2l3,17l4,3l2,1l1,2l1,1h1h-1l-34,5l-5,10l-6,-1l-3,2l-1,11l-8,1l1,8l5,1v6l-6,11l1,13l-9,9l-22,2h-23v-3l-20,1v3h-9v2h-18l-5,-1l-1,-7l1,-21l2,-3l3,-7v-8l7,-2l5,-5v-8h-3v-20l6,-6v-17M465,249l7,5v3h15M825,327l-5,5M661,208l3,-1l6,-5l21,-10l3,-3"/>
<g class="districts"><path data-name="Congressional District (at Large)" class="district-0200" d="M692,40l1,1v2l2,5v1l1,3l1,4v1l1,4l1,2l1,4v2l2,3l1,6v3l1,4l2,4v3l3,11h1l5,18l1,3l1,4v2l1,1l1,6l1,1v1l1,4l1,2v3l1,3l1,4v2l1,1l2,6l1,4v3l1,3l1,1v2l1,2v2l1,1v2l1,4l1,2l2,6l1,5v1l1,3l2,4v4l2,6l1,7l1,4h1v1l2,6v1l1,2v3l2,6l1,2v1l1,2v2l1,2l1,4l1,3l1,4l2,8l1,3l2,5v2l3,14l1,2h1l7,-1h5l4,-5l9,-3l1,8l29,16l2,4l2,3v2h1l3,-5l3,-3l4,-3l1,-4v-6h1l-2,-4l1,-1h1l1,-2l1,-1l1,-1l1,-1l3,-4l7,4v-1l3,6h2l-1,1v1h1l1,1l3,-1v1l7,3l1,2h1l2,3l5,1l3,1h1l1,2h2l5,3l-1,1l2,1l5,4l7,7l6,4l3,3l5,4l2,6l5,-1l1,4v1h5v2l2,2l5,-1l1,1h2l3,1h1l2,1h10l1,1l1,1h4l5,1v7l8,11v14l-7,7l-8,-9v-9l-3,-7l-12,-4l-3,5l1,11l-5,-2l-1,-2v-15l-12,-6v-4h-1v1h-4l-7,-8l-11,2l2,-5l-8,-6l-2,-6l-1,-3l1,-1l-1,3l-1,1l-11,-8l-16,-8l-3,-8v-1v1l1,4l-4,-4l-6,-9h-1l-1,4l16,21l-4,5l-4,-6l1,3h-6v-1l-1,-2l-6,-3l-12,-3l10,5l6,4l1,5h-5l-5,5l-21,-9l-6,-6h-7l-12,-5l-6,-3l2,-5l-4,-9l-2,8l-10,6l-13,-1l1,-7h-4v5l-15,-1l-17,7l-6,-3l-11,-1l1,-4l-1,-5l-5,9l-7,-4v-4l-7,2v-4l-15,-5l-2,4l-5,-7l-1,10l-6,-8l-1,9l-5,3l1,3l6,-2l-6,6v1l10,-2l-6,16l-1,1h-1l-9,-1l-5,3v7l-7,7l-2,-1l-9,11l-13,1l1,-6l9,-4l1,-7l-5,5l-5,-2l1,-10l4,-6l1,-9l-3,-5l5,-2l7,-9l20,3l-2,-2l-8,-2l-5,-3l4,-7l6,-4l-6,1l-2,7l-14,3l-2,5l-9,4v4l-6,9l-5,20l-3,4l-16,12v9h7l7,5h-1l-4,8l-9,10l-3,7l-8,1v4l-8,3l1,4l-7,3l-9,9l4,3l-9,6l-3,6l-5,-3v7h-7l1,4h-8l-2,6h5l-8,10l-14,2l-1,7v-5l-5,-1l-5,5l-21,7l1,-7h-3l-2,8l-6,3l1,4l-9,2l-2,-7l1,8l-4,2l-5,-7l1,6l-6,3l2,-8l13,-7v-4l8,-7l10,-5h9l11,6l-4,-5l3,-10l23,-17v2l4,1l-1,-6l6,-9l9,-10l3,-25l4,-4l4,-8h-2v1h-2v1h-1v-1l-1,1h-1v1h-2v1h-1l-1,1h-1v1h-1v1h-2l-4,1l-4,-6l-4,2l-5,-2l5,8l-5,4l-3,-10l-4,-3l-10,-1l-2,-4l-7,4l-3,1v1l-5,2l-3,4l-4,-2l1,-11l4,-2l-6,-1l1,-8l3,-2l-5,-12l-2,-9l-4,-5l1,9l-15,6l-10,-1l-5,-12l2,-8l9,-8l1,6l5,-1l-4,-9l-12,1l-7,-3l1,-6l-7,1l-3,-8v-1l2,-4l-6,-3l7,-1l-5,-5h7l-1,-7l10,-12h4l4,-6l8,6l-2,-10l17,-6l4,-3l5,-8l2,3h10l7,-8l-2,-15l-6,-8l9,-2l-3,-10l-5,5h-6l-9,6l-3,5l-3,-8l-3,4l-7,-4l-12,2l-3,2l-13,-6l-4,-3l1,-8l-4,-5l5,-4l6,1l3,6l3,-2l-14,-9l-7,-1l-9,-7l8,-4l3,-4l12,-6l7,2l-1,-6l18,-6h7l-3,12l1,3l1,1l12,-1l9,3l5,-7l5,5l1,-3l-1,-4l-9,-1v-5l-8,-11l4,-1l2,9l6,6l5,-3l3,6l7,-1v-3l-6,-5l-6,4l-5,-3l-1,-6l3,-6h-10l-14,-4v-9l-4,-7l-12,-12l-13,-12h4l3,-14l21,1l7,-4l6,-7v-10l11,-13l12,-5l10,-7v9l2,-5l-3,-5l6,-6l9,2l9,-4l8,-13l6,5h5l-4,6l5,3l2,-7l6,2v5l6,1l7,-4l10,1v7l6,1l-2,3l12,-2l1,1l-1,2v1l8,-6l10,1l16,4l14,-2l7,4l7,-1l6,-4l2,-2h10l5,3ZM32,444l6,4l-1,4l-7,-1l-5,-9ZM948,372l8,6l2,13l-13,-2l-2,-14ZM931,372l-6,-7l10,4ZM922,381l10,3l4,6l-4,-1v5l3,-2l10,3v8l6,7l-9,-2l-2,-1l-2,-4l-13,-1l2,-3l-3,-6l-4,2v-9l-4,-7l-7,1l-1,-4l8,-2l2,6ZM933,375l2,3l-11,-1v-7l10,3ZM914,359l7,4l-5,4ZM928,403l3,4l10,8l-10,-4ZM907,358l-1,-1h-1l8,1l1,13h-4l-4,3l-4,-8l-6,-9ZM900,367l4,4v17l-6,-7v-5l-6,-6v-6ZM872,332h6l2,-2l9,9l-8,-1l9,5l-1,6l5,2l-9,11l-3,-12l-5,-5l-4,-10l-1,-2v1h1v1ZM882,374l-5,-1v-6l-4,-5h-4l-1,-8l12,2l10,17l4,12l1,2l-6,-2l-7,-7v-4ZM854,352l-1,-1h-1l-1,-5l7,3l-9,-5l7,-9l5,2l-1,4l-1,2l5,-6h7l2,7l-3,3l-12,-3l10,4l7,-2l3,6l-12,1l1,7l-7,-2ZM680,321l-2,15l-7,4ZM612,387l5,6l-11,6l-7,-5l7,-2l-2,-4l5,-2l2,4l1,-3ZM607,403h4l1,8h5l-3,5l-13,7l-10,15l-4,-11v6l-6,-1v-7l-4,-2l1,-7l9,-4l4,7l-2,-14l11,2v-5ZM432,487l5,4l-1,8h-13l-3,5l-8,1l-1,-7l3,-1l3,-6ZM446,247l6,5l-3,5l-5,1l-6,-5ZM439,254l5,4l-1,5l-9,-3ZM433,328l-3,5l-4,-1l-6,-7l7,-4l5,-5l5,3ZM410,327l5,5l-2,12l-13,-1l-7,-4l-1,-8l7,2v-3ZM380,512l4,1l2,8l-8,7h-9l-9,4l-1,-4l10,-1l2,-11ZM334,541l6,-10l8,-1l3,-8l7,2l-1,4l-7,2l-5,6ZM351,219l1,6l8,2l8,-2l2,6l5,5l11,3l-1,4l-8,-1l-5,2l-6,-4l-1,-5l-6,-5l-8,3l-4,-8ZM315,306v4l7,6h-5l-4,-6ZM253,545l4,3h-6l-7,-4ZM243,535l-1,9h-12l-11,-3h16l5,-2ZM198,535l1,8h-11ZM171,530l8,5l-5,3Z"/></g>

</svg>