<?xml version="1.0" encoding="utf-8"?>
<!DOCTYPE svg PUBLIC "-//W3C//DTD SVG 1.1//EN" "http://www.w3.org/Graphics/SVG/1.1/DTD/svg11.dtd">
<svg version="1.1" xmlns="http://www.w3.org/2000/svg" width="633" height="1000" viewBox="0 0 633 1000">
  <path class="state" d="M292,29h157l15,1h27l2,9v6h1v8h1v3l1,4v3l1,2v5l2,7v4l1,2v2l1,2v3l1,1v4l3,13v4l1,2v2l1,1v5l1,3v4l1,1v2h1v6l1,3l1,4v2l1,2l1,8v3l1,1l1,3v4l1,4v5l2,4v6l1,7l1,2l1,7l1,5v3l1,1v1l1,5v3l1,3l1,7v1l1,3v2l1,4v5l1,3l1,4v4h1v6l2,5v6l1,1v3l1,6l1,3v3l1,3l3,20l1,3v2l1,4v1l1,3v1l1,5v3l1,2v2l1,9l1,3l4,22v3l1,3v3l2,11l1,3v4l1,1l1,3v6l1,2v3l1,4v1l1,2v5l1,1v4l1,3v2l1,1v6l1,1v3l6,4l-2,7l7,8l-2,5l3,4l1,9l4,5l-3,2l5,8v3l12,12l1,3v1l1,5v2l-1,2v1h1v1h1l2,1l2,2v3l-2,2v1l2,3l-1,1h-1l-1,1l2,1v1h-2v2l-4,5l3,3l1,1h2l1,1h1v1h2l2,1l2,2v1l2,2l2,1l1,1l2,1h-3l-2,2v3h-1v2l-2,1l-4,1l-1,-1l-2,1v2h2l-1,3h-1l-2,1l-1,1h-1l-5,4l-2,3l-1,1h-1l-1,1l1,3v1l1,1l1,4l-1,2v2l-1,1v6l1,2v2l-2,2v2h-1v4h1v1h-1v1h-2l-1,1l1,1v3l-1,1v1l-1,1h-1v2h-1l-1,1h1v1l-1,1h1v1h-1l-1,1h-3l1,1l1,1v1h-1l-1,1v5l-1,1h1v2l1,1v1l1,1h-1v5h-1v2l2,1v4h1v7h-1v3h1v3h2v2h1v1h1v1h1v1h1v1h2v1h-1v1h-1v2h2v1h1v1h1l2,4v1l2,10v7l-2,3l-3,6l2,8l-5,13l1,11l-1,4h-1l-2,6l3,5l-2,9l2,2v3l6,4l2,5l4,8l3,6l1,9h-23v1h-1l-1,-1l-2,1h-74l-3,1h-45l-4,1h-137l-1,-1h-125l-5,-1v1h-8v-1h-11v3h1v7l-1,2l-3,7v1l-3,5v1l-1,1h1l1,1v3h1v1l1,1h-1l2,1h1v3h2l1,1l1,1h1l1,1v1h1l1,1v1h1v3l2,1v3l1,1v1l2,1l1,1l1,1l1,1h1v1h2l1,1v1h2v1h3l1,2h2v1h1l1,1h1l1,1v1l1,2v1l1,2v6l-1,1l-1,1v3l-1,1v2h-1v3l-4,4v2h-1v4h1v1h1l1,2v1h-1l6,13l-9,4l-2,8l-8,4l-5,6h-7l-3,-9l-3,1l3,6l-4,4l10,2v4l-16,4l-18,2l-7,2h-34l8,-2l3,-5l7,5l12,-3h7l8,-9l-12,-6l-5,-8l3,-5l-1,-4l-5,7l-9,-6l-2,-13l-3,-2l6,-11l-2,-9v-14l-3,-11l2,-8l-6,1l-9,6l4,-10l-5,4v7l-3,7l-1,-13l4,-6h-1l1,-1l3,-2h-3l-4,9l1,18h-4l1,8l-6,8l-4,-7l1,7l4,6l-4,6l-1,25l-2,6l-6,5l-7,2l2,-10l-5,1l-8,-5l-17,-4l-6,3l-1,-9v-39l-1,-4v-24l-1,-2v-40l-1,-17v-9l-1,-23v-11l-1,-13v-4l-1,-48v-1l-1,-15v-24l-1,-7l1,-15v-1l1,-1l2,-20v-1l3,-25v-1l4,-26l3,-24v-5l5,-42v-2l3,-25v-3l4,-34l3,-31l3,-20l6,-50v-1l1,-6l3,-28v-1l5,-45l1,-1v-3l4,-25l1,-20l4,-29l1,-4l1,-10v-8l1,-1l4,-32v-4l3,-18v-1l1,-5l3,-34h-1l-2,-1l-3,-2l-3,-2v-2l-3,-6l-2,-3l-1,-2v-1l-1,-1v-2h35l28,1h33l24,1h38l2,1h30l10,1h20ZM102,876l-2,8l-2,-7h-3l3,-7h5ZM72,962l5,6l-23,-1l15,-1Z"/>
<g class="geos"><path data-name="Clay" class="geo-027" d="M454,325l-6,6h17l3,-6h20l-1,77l-19,1h-34l-6,3v-3h-27v-18h9v-20h22l1,-17l8,-3v-10l4,-1v-9Z"/><path data-name="Marengo" class="geo-091" d="M107,559l-14,-11l-5,-1l2,-12l14,-7l8,-11l7,2l2,-4l5,-2l2,4h14v9h33v35h9v8l-9,1v25h-16v25l-8,3h-68l-7,-3v-11l8,-1l4,-5l1,-11l5,-5v-19l-2,-4l8,-4l8,5Z"/><path data-name="DeKalb" class="geo-049" d="M495,55v1l1,4v3l1,2v5l2,7v4l1,2v2l1,2v3l1,1v4l3,13v4l1,2v2l1,1v4l-7,4l-4,14l-5,8l-3,-1l-1,7h-4l-4,7l-13,14h-6v4l-6,-1v9h-43l-1,-45l9,-10l6,-1l8,-3l2,-2l7,-7l20,-16l14,-22l6,-3l5,-9l1,-8Z"/><path data-name="Cherokee" class="geo-019" d="M454,186v-9l6,1v-4h6l13,-14l4,-7h4l1,-7l3,1l5,-8l4,-14l7,-4v1l1,3v4l1,1v2h1v6l1,3l1,4v2l1,2l1,8v3l1,1l1,3v4l1,4v5l2,4v6l1,7l1,2l1,7l1,5v3l1,1v1l1,5v3l1,3l1,7v1l-16,2l-5,3v-3l-35,-2l1,-5l-11,-21l2,-6l-9,3Z"/><path data-name="Hale" class="geo-065" d="M138,436l4,-4l-3,-4l7,-2l-1,-4h23l3,1h23v34h-9l-1,34h-8l-1,35h-33v-9h-14l4,-11l9,-1l-3,-6l-7,2l-2,-7l10,1v-4l-5,1l-3,-13l-6,-1l5,-5l-4,-4l-7,1l8,-6v-14l5,-7l6,-1Z"/><path data-name="Perry" class="geo-105" d="M194,449h16v8l17,-1h33v21l-2,7l-2,13v3l-2,7l-4,2v6l-4,7l-3,4h-50v35h-18v-35l1,-35h8l1,-34h9Z"/><path data-name="Colbert" class="geo-033" d="M195,67l2,6l-3,7l1,5l-4,2l1,10l-6,3l-2,2l-3,6l-3,5l-19,-1h-25l-1,-1h-26l-28,-2v-4l3,-18v-1l1,-5l3,-34l12,-2l14,11l3,9l16,15h10l7,-7l20,-8l2,-2l11,-2l5,3Z"/><path data-name="Greene" class="geo-063" d="M69,423l4,-9l10,1l2,-3l7,2l1,-4l13,-5l1,-5l6,-1l12,-6v26h20v3l1,4l-7,2l3,4l-4,4v6l-6,1l-5,7v14l-8,6l7,-1l4,4l-5,5l6,1l3,13l5,-1v4l-10,-1l2,7l7,-2l3,6l-9,1l-4,11l-2,-4l-5,2l-3,-7l-5,-4l3,-4l7,2l-2,-4l-9,1l-4,-3l-13,6l-8,1l-4,-5l5,-5l1,-10l-8,2l-3,-4l5,-3l-4,-6v-5l6,1v-7l-5,2l-5,-8l-8,1l4,-6l-4,-2v-5l-4,-6l5,-1l2,-4Z"/><path data-name="Butler" class="geo-013" d="M279,671l-1,-15v-27h77l1,2v59h-9v26l-34,1l-23,-1l-5,-5l-2,-8l-5,-8Z"/><path data-name="Lee" class="geo-081" d="M574,472l3,4l1,9l4,5l-3,1l5,9l4,9l9,9v1h-10v8h-21l-1,1h-24l1,11l-17,1l-1,-17h-8l-29,-14l-6,-6v-20l2,-3h12l2,-3l5,-1h47l1,-4Z"/><path data-name="Mobile" class="geo-097" d="M21,847v-26l-1,-17v-9h16l1,-6l5,1h48l5,-6l3,2l5,3v5l-6,6l5,5l1,5l-4,7l-1,8l8,7l-6,2l-5,11l7,8l-8,4l-2,4h-3l-4,9l1,18h-4l1,8l-6,8l-4,-7l1,7l4,6l-4,6l-1,25l-2,6l-6,5l-7,2l2,-10l-5,1l-8,-5l-17,-4l-6,3l-1,-9v-39l-1,-4v-24l-1,-2v-12ZM89,864v12l-3,7l-1,-13ZM72,962l5,6l-23,-1l15,-1Z"/><path data-name="Fayette" class="geo-057" d="M108,240l52,2v9l17,1v34l17,1v17l-31,-1l-3,-1v6h-6v12l-29,-1h-18l1,-2Z"/><path data-name="Chambers" class="geo-017" d="M497,402l8,-1h52l1,3v6l1,2v3l1,4v1l1,2v5l1,1v4l1,3v2l1,1v6l1,1v3l5,3l-1,9l7,6l-2,6h-24l-1,4h-47l-5,1v-51Z"/><path data-name="Tuscaloosa" class="geo-125" d="M125,393v-74l29,1v-12h6v-6l3,1l31,1h9v3h9v15h8l-5,5l-6,-1l-2,5l10,5l6,6l2,10l6,3l3,4l9,7l10,3v6l-7,5l-7,-3l-8,8v13l-14,-1l-5,8l-1,17l-17,1h-23l-3,-1h-23v-3h-20v-24Z"/><path data-name="Wilcox" class="geo-131" d="M184,569l5,-1l6,7h3l3,6l8,2l7,10h5l3,9l4,2l6,8h53v17h-9v27h-53v-1h-47l-19,1v-9l-8,-2v-22l8,-3v-25h16v-25Z"/><path data-name="Marshall" class="geo-095" d="M338,118l2,8l7,5h11l6,-8l6,-1l3,3l5,-14l-2,-4h-2h30v13h-1h1l8,4l1,9l6,-2l-9,10l1,45v3h-14l-19,17l-17,-21l-7,-10l-4,-9l-17,-1v-17Z"/><path data-name="Escambia" class="geo-053" d="M159,771l11,3l10,-6h122v13l11,1v38l2,1h-4l-1,-1h-125l-5,-1v1h-8v-1h-14v-44Z"/><path data-name="Limestone" class="geo-083" d="M231,28h32l7,1h30l-1,28v60l-9,-1l-13,-6l-29,-20l-8,-9l-10,-6l-8,1l-3,-5l11,-7Z"/><path data-name="Blount" class="geo-009" d="M336,192l4,-11l3,-5l11,-1l7,10l17,21l-5,12v12l-4,6l6,2l-2,3v6l-15,14h-7l-8,4h-9v8h-12v-2l-18,-14h-21l-11,5l-2,-8l7,-2v-9l6,-1l10,-7l6,1l5,-10l9,-7v-10h6l2,-5l9,-2Z"/><path data-name="Monroe" class="geo-099" d="M178,655h47v1h53l1,15l-5,1l-9,6l-13,2v7l-4,4l-8,2l-1,9l-3,6l-2,10l-6,11l-4,1l-8,9l-3,1l-11,17l-10,7l-1,4h-11l-10,6l-11,-3l-11,-4l-6,-7l-9,1l-3,-7l5,-7l1,6l5,-1l-1,-7l4,-5l7,-5l10,4l5,-5l2,-10l-10,-6l10,-8v-28h8v-20Z"/><path data-name="Marion" class="geo-093" d="M72,164l1,-4l44,3h33l10,1v78l-52,-2v-20h-6l-2,-6l-33,-1l1,-20l4,-29Z"/><path data-name="Lowndes" class="geo-085" d="M348,554l3,2l-2,10l2,2h4l7,5v8l1,31v17h-76v-17h-9v-35h16l-2,-2l-1,-1h-1v-1l-4,-4v-2l6,-6l-4,-4l6,-3l-1,6h5l3,-5l-1,-11l6,1l4,-3v6l7,3l4,-3v-5l7,-1l-1,5l13,2l1,6Z"/><path data-name="Coosa" class="geo-037" d="M428,406v54l1,4v8h-62l-13,-11l1,-10l-5,-1l-6,-12v-18l1,-13l3,-3l9,-1h71Z"/><path data-name="Pike" class="geo-109" d="M431,611l18,1v12l2,4h15v17h22l-1,3v19l-5,5l-1,7l-2,11l-5,7h-55l-12,1h-6l2,-4l4,-6l-1,-24h-8l2,-8l2,-18l-3,-10h33Z"/><path data-name="Sumter" class="geo-119" d="M37,458l4,-34l6,-1h22l1,9l-2,4l-5,1l4,6v5l4,2l-4,6l8,-1l5,8l5,-2v7l-6,-1v5l4,6l-5,3l3,4l8,-2l-1,10l-5,5l4,5l8,-1l13,-6l4,3l9,-1l2,4l-7,-2l-3,4l5,4l3,7l-2,4l-7,-2l-8,11l-14,7l-2,12l5,1l14,11h-81l3,-24v-5l5,-42v-2l3,-25Z"/><path data-name="Winston" class="geo-133" d="M160,225v-61l18,1l21,1h47v61h-7l-25,-1h-37Z"/><path data-name="Talladega" class="geo-121" d="M405,289l15,1l5,6v8l4,4l34,-1v7l-9,11h-9v9l-4,1v10l-8,3l-1,17h-22v20h-9v18h-44l-9,1l5,-6l-7,-8l2,-6l4,1l2,-10l3,1v-6h7l6,-4l-1,-11l4,-1l-7,-7l6,-4l7,-9l4,-12l3,5l4,-1l3,-7l4,-3l-4,-10l5,1l-2,-5l5,-1v-8l-6,-3l4,-5l2,5Z"/><path data-name="Jackson" class="geo-071" d="M403,120h1v-13h-30l-5,-6v-21l3,-1l2,-18l-3,-4l1,-9l4,-4l-1,-3l11,-1l-8,-6l-2,-5h73l15,1h27l2,9v6h1v8h1v2l-7,5l-1,8l-5,9l-6,3l-14,22l-20,16l-7,7l-2,2l-8,3l-6,1l-6,2l-1,-9l-8,-4Z"/><path data-name="Baldwin" class="geo-003" d="M89,869v-5h-1l1,-1l3,-2l2,-4l8,-4l-7,-8l5,-11l6,-2l-8,-7l1,-8l4,-7l-1,-5l-5,-5l6,-6v-5l-5,-3l5,1l-1,-6l5,1l8,-2l6,-5l-1,-7l3,-5l6,2l-2,-6l6,2l9,-1l6,7l11,4l-1,4v44h3v3h1v7l-1,2l-3,7v1l-3,5v1l-1,1h1l1,1v3h1v1l1,1h-1l2,1h1v3h2l1,1l1,1h1l1,1v1h1l1,1v1h1v3l2,1v3l1,1v1l2,1l1,1l1,1l1,1h1v1h2l1,1v1h2v1h3l1,2h2v1h1l1,1h1l1,1v1l1,2v1l1,2v6l-1,1l-1,1v3l-1,1v2h-1v3l-4,4v2h-1v4h1v1h1l1,2v1h-1l6,13l-9,4l-2,8l-8,4l-5,6h-7l-3,-9l-3,1l3,6l-4,4l10,2v4l-16,4l-18,2l-7,2h-34l8,-2l3,-5l7,5l12,-3h7l8,-9l-12,-6l-5,-8l3,-5l-1,-4l-5,7l-9,-6l-2,-13l-3,-2l6,-11l-2,-9v-14l-3,-11l2,-8l-6,1l-9,6l4,-10ZM102,876l-2,8l-2,-7h-3l3,-7h5Z"/><path data-name="Bullock" class="geo-011" d="M431,611v-39l2,-4l11,-1l4,-4l4,3v1l-1,2v3l1,1l2,1l1,1h55l15,-1l2,18l2,-1l-2,2v25h-14l-3,4h-10l-3,7l-6,7l-3,9h-22v-17h-15l-2,-4v-12Z"/><path data-name="Autauga" class="geo-001" d="M277,490l11,1h23v-9h50v59l-8,1v6l-5,1v5l-7,1l-1,-6l-13,-2l1,-5l-7,1v5l-4,3l-7,-3v-6l-4,3l-6,-1l1,11l-3,5h-5l1,-6l1,-5l-6,-6l3,-4l-9,-11l-3,-11v-12Z"/><path data-name="Macon" class="geo-087" d="M449,524h15v-17h8l9,-4l6,6l29,14h8l1,17v34l-15,1h-55l-1,-1l-2,-1l-1,-1v-3l1,-2v-1l-4,-3l-4,4l-2,-2h-1l-3,-6h-1l-1,-3h-1l-3,-2v-1l-1,-4l-5,-10l8,-5l17,-2Z"/><path data-name="St. Clair" class="geo-115" d="M373,247v-6l2,-3l5,-9h4l2,3l10,-4l5,5v5l2,3l2,5l6,-1l1,8l5,-1l1,5v9l4,7l-5,1l-12,9v6l-4,1l-2,-5l-4,5l6,3v8l-5,1l2,5l-5,-1l4,10l-4,3l-3,7l-4,1l-3,-5l-4,12l-7,9l-6,4l1,-23h-18v-9h-6l-5,-2v-12l4,-7v-13l-3,-8h-5v-8h9l8,-4h7Z"/><path data-name="Choctaw" class="geo-023" d="M22,586v-1l4,-26h81l1,6l-8,-5l-8,4l2,4v19l-5,5l-1,11l-4,5l-8,1v11l7,3v5l-5,-1l-4,4l6,5l-7,3l-2,9l-7,8l6,13l7,-2l3,13h-64v-24l-1,-7l1,-15v-1l1,-1l2,-20v-1l3,-25Z"/><path data-name="Cullman" class="geo-043" d="M333,165l17,1l4,9l-11,1l-3,5l-4,11l-6,10l-9,2l-2,5h-6v10l-9,7l-5,10l-6,-1l-10,7l-6,1v9l-7,2l-7,-1v-5h-14l2,-5l-5,-9l-4,-1l-3,-6h7v-64l3,1h37l1,1Z"/><path data-name="Shelby" class="geo-117" d="M259,375l9,-2l8,-4l1,-5l6,-6h9v-5l9,-1v-5l4,-6h5l8,-9h11l7,-11l7,-1v-5h6v9h18l-1,23l7,7l-4,1l1,11l-6,4h-7v6l-3,-1l-2,10l-4,-1l-2,6l7,8l-5,6l-3,3l-1,13h-8l-11,-9h-32l-10,-1v4l-8,-2l-3,-8h-3l-1,-12l-8,-1Z"/><path data-name="Dallas" class="geo-047" d="M246,522l4,-7v-6l4,-2l2,-7v-3l2,-13l2,-7v13h17l3,15v12l3,11l9,11l-3,4l6,6l-1,5l-6,3l4,4l-6,6v2l4,4v1h1l1,1l2,2h-16v35h-44l-6,-8l-4,-2l-3,-9h-5l-7,-10l-8,-2l-3,-6h-3l-6,-7l-5,1v-8h9v-35h50Z"/><path data-name="Pickens" class="geo-107" d="M53,323v-1l1,-6l34,1l19,2h18v74l-12,6l-6,1l-1,5l-13,5l-1,4l-7,-2l-2,3l-10,-1l-4,9h-22l-6,1l3,-31l3,-20Z"/><path data-name="Lauderdale" class="geo-077" d="M86,47h-1l-2,-1l-3,-2l-3,-2v-2l-3,-6l-2,-3l-1,-2v-1l-1,-1v-2h35l28,1h33l24,1h38l2,1h1l-1,36l-11,7l3,5l-6,1l-8,-10h-13l-9,-3l-5,-3l-11,2l-2,2l-20,8l-7,7h-10l-16,-15l-3,-9l-14,-11Z"/><path data-name="Cleburne" class="geo-029" d="M506,237l5,-3l16,-2l1,3v2l1,4v5l1,3l1,4v4h1v6l2,5v6l1,1v3l1,6l1,3v3l1,3l3,20l1,3v2l1,4v1l1,3v1l-8,-2h-68l-3,6h-17l6,-6l9,-11h8l1,-10l13,-5l3,-4v-25l9,-6v-8h-9v-6l6,-3h11Z"/><path data-name="Barbour" class="geo-005" d="M529,591h26l9,11l3,6l22,-1v6l1,2v2l-2,2v2h-1v4h1v1h-1v1h-2l-1,1l1,1v3l-1,1v1l-1,1h-1v2h-1l-1,1h1v1l-1,1h1v1h-1l-1,1h-3l1,1l1,1v1h-1l-1,1v5l-1,1h1v2l1,1v1l1,1h-1v5h-1v2l2,1v2l-2,-2l-11,6l-1,7l-3,1h-32l1,17l-19,1h-37l5,-7l2,-11l1,-7l5,-5v-19l1,-3l3,-9l6,-7l3,-7h10l3,-4h14v-25Z"/><path data-name="Geneva" class="geo-061" d="M467,781h39l13,-1v39h-19l-3,1h-45l-4,1h-47l-2,-10v-30h33Z"/><path data-name="Dale" class="geo-045" d="M530,696v47l1,14v5h-12v8l-11,-1l-8,-4h-11l-5,14l-3,2h-14v-84h44Z"/><path data-name="Tallapoosa" class="geo-123" d="M487,402h10v75l-2,3h-12l-2,3v20l-9,4h-8v17h-15l-1,-25l1,-7l-4,-4l5,-13l-1,-3h-20v-8l-1,-4v-54l6,-3h34Z"/><path data-name="Clarke" class="geo-025" d="M80,680l-3,-13l-7,2l-6,-13l7,-8l2,-9l7,-3l-6,-5l4,-4l5,1v-5h68v22l8,2v9l19,-1l-2,7v20h-8v28l-10,8l10,6l-2,10l-5,5l-10,-4l-7,5l-4,5l1,7l-5,1l-1,-6l-5,7l3,7l-6,-2l2,6l-6,-2l-3,5l1,7l-6,5l-8,2l-5,-1l3,-7l-2,-4l-8,-2l6,-3l-1,-8l6,1l6,-10l-5,-16l3,-10l-7,-8h-5l-10,-9l3,-2l-9,-1l-3,-14l2,-2Z"/><path data-name="Houston" class="geo-069" d="M586,757l-1,4h-1l-2,1l3,10l-2,9l2,2v3l6,4l2,5l4,8l3,6l1,9h-23v1h-1l-1,-1l-2,1h-55v-39l-13,1h-25l3,-2l5,-14h11l8,4l11,1v-8h12v-5h31l16,1Z"/><path data-name="Washington" class="geo-129" d="M17,695l-1,-15h64l1,6l-2,2l3,14l9,1l-3,2l10,9h5l7,8l-3,10l5,16l-6,10l-6,-1l1,8l-6,3l8,2l2,4l-3,7l1,6l-5,-1l-3,-2l-5,6h-48l-5,-1l-1,6h-16l-1,-23v-11l-1,-13v-4l-1,-48Z"/><path data-name="Madison" class="geo-089" d="M342,29h34l2,5l8,6l-11,1l1,3l-4,4l-1,9l3,4l-2,18l-3,1v21l5,6h2l2,4l-5,14l-3,-3l-6,1l-6,8h-11l-7,-5l-2,-8l-2,-6l-8,-1l-4,6h-5l-1,-6l-7,-2l-7,8h-5v-60l1,-28h18Z"/><path data-name="Crenshaw" class="geo-041" d="M355,629h8v-17l17,-1v18l19,-1l3,10l-2,18l-2,8h8l1,24l-4,6l-2,4h6v15l-8,2v18h-12l-2,-3l-1,-15h-3l-6,8h-5l-6,8v-15h-17v-26h9v-59Z"/><path data-name="Calhoun" class="geo-015" d="M471,232l35,2v3l-1,10h-11l-6,3v6h9v8l-9,6v25l-3,4l-13,5l-1,10h-8v-7l-34,1l-4,-4v-8l-5,-6l-15,-1v-6l12,-9l5,-1l-4,-7v-9l11,-4l5,-11l11,2v-7l13,-1l13,2Z"/><path data-name="Lawrence" class="geo-079" d="M178,113l3,-5l3,-6l2,-2l6,-3l-1,-10l4,-2l-1,-5l3,-7l-2,-6h13l8,10l6,-1l8,-1l10,6l8,9l-1,12v33l-1,28v3h-47l-21,-1v-51Z"/><path data-name="Morgan" class="geo-103" d="M248,90l29,20l13,6l9,1h5l7,-8l7,2l1,6h5l4,-6l8,1l2,6l-5,30v17h-46l-1,-1h-37l-3,-1l1,-28v-33Z"/><path data-name="Lamar" class="geo-075" d="M63,241v-3l4,-25l33,1l2,6h6v97l-1,2l-19,-2l-34,-1l3,-28v-1l5,-45Z"/><path data-name="Russell" class="geo-113" d="M597,519l1,5v2l-1,2v1h1v1h1l2,1l2,2v3l-2,2v1l2,3l-1,1h-1l-1,1l2,1v1h-2v2l-4,6l3,2l1,1h2l1,1h1v1h2l2,1l2,2v1l2,2l2,1l1,1l2,1h-3l-2,2v3h-1v2l-2,1l-4,1l-1,-1l-2,1v2h2l-1,3h-1l-2,1l-1,1h-1l-5,4l-2,3l-1,1h-1l-1,1l1,3v1l1,1l1,4l-1,2v2l-1,1l-22,1l-3,-6l-9,-11h-26l-2,1l-2,-18v-34l17,-1l-1,-11h24l1,-1h21v-8Z"/><path data-name="Franklin" class="geo-059" d="M74,148v-6l1,-1l4,-32l28,2h26l1,1h25l19,1v52l-18,-1l-10,-1h-33l-44,-3l1,-10v-2Z"/><path data-name="Conecuh" class="geo-035" d="M279,671l-1,24l5,8l2,8l5,5l23,1v17h5l1,8l-2,8l-4,1v31l-11,-1v-13h-111l1,-4l10,-7l11,-17l3,-1l8,-9l4,-1l6,-11l2,-10l3,-6l1,-9l8,-2l4,-4v-7l13,-2l9,-6Z"/><path data-name="Elmore" class="geo-051" d="M367,472h82l1,3l-5,13l4,4l-1,7l1,25l2,8l-17,2l-8,5l-6,2l-15,-3l-7,-3l-7,-11l-8,5l-5,-4l1,15l-6,-4l-9,1l-3,4v-68Z"/><path data-name="Jefferson" class="geo-073" d="M272,262l11,-5h21l18,14v2h17l3,8v13l-4,7v12l5,2v5l-7,1l-7,11h-11l-8,9h-5l-4,6v5l-9,1v5h-9l-6,6l-1,5l-8,4l-9,2h-6v-6l-10,-3l-9,-7l-3,-4l-6,-3l-2,-10l-6,-6l-10,-5l2,-5l6,1l5,-5l4,-5h5l2,-11l9,-7h9v-5h5l3,-6v-9l3,-8l9,-3Z"/><path data-name="Walker" class="geo-127" d="M160,242v-17l17,1h37l25,1l3,6l4,1l5,9l-2,5h14v5l7,1l2,8l-3,6l-9,3l-3,8v9l-3,6h-5v5h-9l-9,7l-2,11h-5l-4,5h-8v-15h-9v-3h-9v-17l-17,-1v-34l-17,-1Z"/><path data-name="Randolph" class="geo-111" d="M488,325h48l8,2l1,5v3l1,2v2l1,9l1,3l4,22v3l1,3v3l2,11l1,3v4l1,1h-52l-8,1h-10Z"/><path data-name="Montgomery" class="geo-101" d="M349,566l2,-10l-3,-2v-5l5,-1v-6l8,-1l3,-4l9,-1l6,4l-1,-15l5,4l8,-5l7,11l7,3l15,3l6,-2l5,10l1,4v1l3,2h1l1,3h1l3,6h1l2,2l-11,1l-2,4v39l1,17h-33l-19,1v-18l-17,1l-1,-31v-8l-7,-5h-4Z"/><path data-name="Bibb" class="geo-007" d="M253,375h6l1,16l8,1l1,12h3l3,8l8,2l1,2v40h-57l-17,1v-8h-16v-26l17,-1l1,-17l5,-8l14,1v-13l8,-8l7,3Z"/><path data-name="Etowah" class="geo-055" d="M411,186h43v17l9,-3l-2,6l11,21l-1,5v6l-13,-2l-13,1v7l-11,-2l-5,11l-11,4l-1,-5l-5,1l-1,-8l-6,1l-2,-5l-2,-3v-5l-5,-5l-10,4l-2,-3h-4l-5,9l-6,-2l4,-6v-12l5,-12l19,-17h14Z"/><path data-name="Chilton" class="geo-021" d="M283,414v-4l10,1h32l11,9h8v18l6,12l5,1l-1,10l13,11l-6,1v9h-50v9h-23l-11,-1h-17v-34h24v-40Z"/><path data-name="Coffee" class="geo-031" d="M407,698l12,-1h48v84h-68v-66l8,-2Z"/><path data-name="Covington" class="geo-039" d="M381,715h3l1,15l2,3h12v78l2,10h-86l-2,-1v-69l4,-1l2,-8l-1,-8h-5v-17l34,-1h17v15l6,-8h5Z"/><path data-name="Henry" class="geo-067" d="M530,696l-1,-17h32l3,-1l1,-7l11,-6l2,2v2h1v7h-1v3h1v3h2v2h1v1h1v1h1v1h1v1h2v1h-1v1h-1v2h2v1h1v1h1l2,4v1l2,10v7l-2,3l-3,6l2,8l-5,15l1,9l-8,1l-16,-1h-31l-1,-14Z"/></g>
  <path class="counties-mesh" d="M375,238l5,-9h4l2,3l10,-4l5,5v5l2,3l2,5l6,-1l1,8l5,-1l1,5l11,-4l5,-11l11,2v-7l13,-1l13,2v-6l1,-5l-11,-21l2,-6l-9,3v-17h-43l-1,-45l9,-10l6,-1l8,-3l2,-2l7,-7l20,-16l14,-22l6,-3l5,-9l1,-8l7,-5M278,612v-35h16l-2,-2l-1,-1h-1v-1l-4,-4v-2l6,-6l-4,-4l6,-3l-1,6h5l3,-5l-1,-11l6,1l4,-3v6l7,3l4,-3v-5l7,-1l-1,5l13,2l1,6l7,-1l3,2l-2,10l2,2h4l7,5v8l1,31v17h-8l1,2v59h-9v26l-34,1l-23,-1l-5,-5l-2,-8l-5,-8l1,-24l-5,1l-9,6l-13,2v7l-4,4l-8,2l-1,9l-3,6l-2,10l-6,11l-4,1l-8,9l-3,1l-11,17l-10,7l-1,4h111v13l11,1v38l2,1M128,517l4,-11l9,-1l-3,-6l-7,2l-2,-7l10,1v-4l-5,1l-3,-13l-6,-1l5,-5l-4,-4l-7,1l8,-6v-14l5,-7l6,-1v-6l4,-4l-3,-4l7,-2l-1,-4h23l3,1h23M194,449v8h-9l-1,34h-8l-1,35M102,781l3,-7l-2,-4l-8,-2l6,-3l-1,-8l6,1l6,-10l-5,-16l3,-10l-7,-8h-5l-10,-9l3,-2l-9,-1l-3,-14l2,-2l-1,-6h-64M260,477l-2,7l-2,13v3l-2,7l-4,2v6l-4,7l-3,4h-50v35h-9M248,90l-8,-9l-10,-6l-8,1l-6,1l-8,-10h-13l2,6l-3,7l1,5l-4,2l1,10l-6,3l-2,2l-3,6l-3,5l-19,-1h-25l-1,-1h-26l-28,-2M125,393v26h20v3M597,519h-10v8h-21l-1,1h-24l1,11l-17,1l-1,-17h-8l-29,-14l-6,-6v-20l2,-3h12l2,-3l5,-1h47l1,-4h24M20,795h16l1,-6l5,1h48l5,-6l3,2l5,3v5l-6,6l5,5l1,5l-4,7l-1,8l8,7l-6,2l-5,11l7,8l-8,4l-2,4M89,864v5M121,515l-3,-7l-5,-4l3,-4l7,2l-2,-4l-9,1l-4,-3l-13,6l-8,1l-4,-5l5,-5l1,-10l-8,2l-3,-4l5,-3l-4,-6v-5l6,1v-7l-5,2l-5,-8l-8,1l4,-6l-4,-2v-5l-4,-6l5,-1l2,-4l-1,-9l4,-9l10,1l2,-3l7,2l1,-4l13,-5l1,-5l6,-1l12,-6v-74h-18l1,-2v-77l52,2v9l17,1v34l17,1v17l-31,-1l-3,-1v6h-6v12l-29,-1M497,477v-75l8,-1h52M194,304h9v3h9v15h8l-5,5l-6,-1l-2,5l10,5l6,6l2,10l6,3l3,4l9,7l10,3v6M184,569l5,-1l6,7h3l3,6l8,2l7,10h5l3,9l4,2l6,8h53v17M98,786l5,1l-1,-6l5,1l8,-2l6,-5l-1,-7l3,-5l6,2l-2,-6l6,2l-3,-7l5,-7l1,6l5,-1l-1,-7l4,-5l7,-5l10,4l5,-5l2,-10l-10,-6l10,-8v-28h8v-20l2,-7l-19,1v-9l-8,-2v-22M404,120h-1h1M300,29l-1,28v60l-9,-1l-13,-6l-29,-20l-1,12v33l-1,28l3,1h37l1,1h46v-17l5,-30l2,8l7,5h11l6,-8l6,-1l3,3l5,-14l-2,-4h-2h30v13l8,4l1,9l6,-2M411,186v3h-14l-19,17l-17,-21l-7,-10l-4,-9l-17,-1M161,819h-3v-44l1,-4l11,3l10,-6h11M222,76l-3,-5l11,-7l1,-36M220,322l4,-5h5l2,-11l9,-7h9v-5h5l3,-6v-9l3,-8l9,-3l3,-6l-2,-8l7,-2v-9l6,-1l10,-7l6,1l5,-10l9,-7v-10h6l2,-5l9,-2l6,-10l4,-11l3,-5l11,-1M378,206l-5,12v12l-4,6l6,2l-2,3v6l-15,14h-7l-8,4h-9v8h-12v-2l-18,-14h-21l-11,5M73,160l44,3h33l10,1v78M108,240v-20h-6l-2,-6l-33,-1M431,611l18,1v12l2,4h15v17h22l-1,3v19l-5,5l-1,7l-2,11l-5,7h-55l-12,1h-6l2,-4l4,-6l-1,-24h-8l2,-8l2,-18l-3,-10h33l-1,-17v-39l2,-4l11,-1l4,-4l4,3v1l-1,2v3l1,1l2,1l1,1h55l15,-1l2,18l2,-1h26l9,11l3,6l22,-1M41,424l6,-1h22M107,559l-14,-11l-5,-1l2,-12l14,-7l8,-11l7,2l2,-4l5,-2l2,4h14v9h33v35h9v8l-9,1v25h-16v25l-8,3h-68l-7,-3v-11l8,-1l4,-5l1,-11l5,-5v-19l-2,-4l8,-4l8,5l-1,-6h-81M160,164l18,1l21,1h47v61h-7l-25,-1h-37l-17,-1M348,404l5,-6l-7,-8l2,-6l4,1l2,-10l3,1v-6h7l6,-4l-1,-11l4,-1l-7,-7l6,-4l7,-9l4,-12l3,5l4,-1l3,-7l4,-3l-4,-10l5,1l-2,-5l5,-1v-8l-6,-3l4,-5l2,5l4,-1l15,1l5,6v8l4,4l34,-1v7l-9,11M374,107l-5,-6v-21l3,-1l2,-18l-3,-4l1,-9l4,-4l-1,-3l11,-1l-8,-6l-2,-5M529,591l-2,2v25h-14l-3,4h-10l-3,7l-6,7l-3,9M361,482v59l-8,1v6l-5,1v5M449,524h15v-17h8l9,-4M525,540v34M507,121l-7,4l-4,14l-5,8l-3,-1l-1,7h-4l-4,7l-13,14h-6v4l-6,-1v9M428,406v-3h-27v-18h9v-20h22l1,-17l8,-3v-10l4,-1v-9h9l-6,6h17l3,-6h20l-1,77l-19,1h-34l-6,3v54l1,4v8M279,671l-1,-15h-53v-1h-47M444,567l-2,-2h-1l-3,-6h-1l-1,-3h-1l-3,-2v-1l-1,-4l-5,-10l8,-5l17,-2l-2,-8l-1,-25l1,-7l-4,-4l5,-13l-1,-3h-82l-13,-11l1,-10l-5,-1l-6,-12v-18l1,-13l3,-3l9,-1h44M418,257v9l4,7l-5,1l-12,9v6M83,623v5l-5,-1l-4,4l6,5l-7,3l-2,9l-7,8l6,13l7,-2l3,13M270,254l-7,-1v-5h-14l2,-5l-5,-9l-4,-1l-3,-6M246,166v-3M544,327l-8,-2h-48M463,314h8l1,-10l13,-5l3,-4v-25l9,-6v-8h-9v-6l6,-3h11l1,-10M578,667l-2,-2l-11,6l-1,7l-3,1h-32l1,17l-19,1h-37M401,821l-2,-10v-30h107l13,-1v39M530,696v47l1,14v5h-12v8l-11,-1l-8,-4h-11l-5,14l-3,2M467,781v-84M487,402h10M531,757h31l16,1l8,-1M338,118l-2,-6l-8,-1l-4,6h-5l-1,-6l-7,-2l-7,8h-5M363,612l17,-1v18l19,-1M344,420h-8l-11,-9h-32l-10,-1v4l-8,-2l-3,-8h-3l-1,-12l-8,-1l-1,-16l9,-2l8,-4l1,-5l6,-6h9v-5l9,-1v-5l4,-6h5l8,-9h11l7,-11l7,-1v-5l-5,-2v-12l4,-7v-13l-3,-8h-5M407,698v15l-8,2v18h-12l-2,-3l-1,-15h-3l-6,8h-5l-6,8v-15h-17M178,165v-52M313,717v17h5l1,8l-2,8l-4,1v31M426,539l-6,2l-15,-3l-7,-3l-7,-11l-8,5l-5,-4l1,15l-6,-4l-9,1l-3,4M283,414l1,2v40h-24M399,781v-48M86,47l12,-2l14,11l3,9l16,15h10l7,-7l20,-8l2,-2l11,-2l5,3l9,3M54,316l34,1l19,2M527,232l-16,2l-5,3v-3l-35,-2M159,771l-11,-4l-6,-7l-9,1M366,347l1,-23h-18v-9h-6M253,375l-7,5l-7,-3l-8,8v13l-14,-1l-5,8l-1,17l-17,1M259,375h-6M260,477v13h17M260,456v21M194,449h16v8l17,-1h33M194,423v26M278,656v-27h9M287,629h68M294,554l1,-5l-6,-6l3,-4l-9,-11l-3,-11v-12l-3,-15M277,490l11,1h23v-9h50M361,482v-9l6,-1"/>
<g class="districts"><path data-name="Congressional District 1" class="district-0101" d="M16,680h64l1,6l6,-5l11,21l11,-11h9v-11l-12,-7l1,-5l10,-1l12,-4l4,8l7,-2l-2,8l-9,7h4l3,5l7,4l-2,9l-9,3l-3,-4l-8,4l1,11l-8,-5l-2,10l-2,1l-3,10l5,16l-6,10l-6,-1l1,8l-6,3l8,2l2,4l-3,7l5,1l8,-2l6,-5l-1,-7l3,-5l6,2l-2,-6l6,2l-3,-7l5,-7l1,6l5,-1l-1,-7l4,-5l7,-5l10,4l5,-5l2,-10l-10,-6l10,-8v-28h8v-20l2,-7h47v1h53l1,15l-5,1l-9,6l-13,2v7l-4,4l-8,2l-1,9l-3,6l-2,10l-6,11l-4,1l-8,9l-3,1l-11,17l-10,7l-1,4h111v13l11,1v38l2,1h-4l-1,-1h-125l-5,-1v1h-8v-1h-11v3h1v7l-1,2l-3,7v1l-3,5v1l-1,1h1l1,1v3h1v1l1,1h-1l2,1h1v3h2l1,1l1,1h1l1,1v1h1l1,1v1h1v3l2,1v3l1,1v1l2,1l1,1l1,1l1,1h1v1h2l1,1v1h2v1h3l1,2h2v1h1l1,1h1l1,1v1l1,2v1l1,2v6l-1,1l-1,1v3l-1,1v2h-1v3l-4,4v2h-1v4h1v1h1l1,2v1h-1l6,13l-9,4l-2,8l-8,4l-5,6h-7l-3,-9l-3,1l3,6l-4,4l10,2v4l-16,4l-18,2l-7,2h-34l8,-2l3,-5l7,5l12,-3h7l8,-9l-12,-6l-5,-8l3,-5l-1,-4l-5,7l-9,-6l-2,-13l-3,-2l6,-11l-2,-9v-14l-3,-11l2,-8l-6,1l-9,6l4,-10l-5,4v7l-3,7l-1,-13l4,-6h-1l1,-1l3,-2h-3l-4,9l1,18h-4l1,8l-6,8l-4,-7l1,7l4,6l-4,6l-1,25l-2,6l-6,5l-7,2l2,-10l-5,1l-8,-5l-17,-4l-6,3l-1,-9v-39l-1,-4v-24l-1,-2v-40l-1,-17v-9l-1,-23v-11l-1,-13v-4l-1,-48v-1ZM102,876l-2,8l-2,-7h-3l3,-7h5ZM72,962l5,6l-23,-1l15,-1Z"/><path data-name="Congressional District 2" class="district-0102" d="M279,671l-1,-15v-27h85v-17l-1,-31l5,-4h1v1h1v1l3,-4l8,4l-1,-18l2,2l3,3l2,-1l4,-1v-7h-9l-5,-9l-17,7l-2,8l-8,3l2,-10l-3,-2l-7,1l-1,-6l-13,-2l1,-5l-7,1v5l-4,3l-7,-3v-6l-4,3l-6,-1l1,11l-3,5h-5l1,-6l1,-5l-6,-6l3,-4l-9,-11l-3,-11v-12l-3,-15l11,1h23v-9h50v-9l6,-1h82l1,3l-5,13l4,4l-1,7l1,25l2,8l-17,2l-8,5l-6,2l-15,-3l-7,-3l1,2l1,1l-1,1l2,3l-4,5h8l-3,3l2,5l-5,11l12,10l1,15l7,-3l5,5h7v-21l2,-4l11,-1l4,-4l4,3v1l-1,2v3l1,1l2,1l1,1h55l15,-1l2,18l2,-1h26l9,11l3,6l22,-1v6l1,2v2l-2,2v2h-1v4h1v1h-1v1h-2l-1,1l1,1v3l-1,1v1l-1,1h-1v2h-1l-1,1h1v1l-1,1h1v1h-1l-1,1h-3l1,1l1,1v1h-1l-1,1v5l-1,1h1v2l1,1v1l1,1h-1v5h-1v2l2,1v4h1v7h-1v3h1v3h2v2h1v1h1v1h1v1h1v1h2v1h-1v1h-1v2h2v1h1v1h1l2,4v1l2,10v7l-2,3l-3,6l2,8l-5,15l1,9l-1,4h-1l-2,1l3,10l-2,9l2,2v3l6,4l2,5l4,8l3,6l1,9h-23v1h-1l-1,-1l-2,1h-74l-3,1h-45l-4,1h-133l-2,-1v-38l-11,-1v-13h-111l1,-4l10,-7l11,-17l3,-1l8,-9l4,-1l6,-11l2,-10l3,-6l1,-9l8,-2l4,-4v-7l13,-2l9,-6Z"/><path data-name="Congressional District 3" class="district-0103" d="M373,247v-6l2,-3l5,-9h4l2,3l10,-4l5,5v5l2,3l2,5l6,-1l1,8l5,-1l1,5l11,-4l5,-11l11,2v-7l13,-1l13,2v-6l1,-5l-11,-21l2,-6l-9,3v-26l6,1v-4h6l13,-14l4,-7h4l1,-7l3,2l1,9l5,6l5,-3l2,3l10,-6v3l1,1l1,3v4l1,4v5l2,4v6l1,7l1,2l1,7l1,5v3l1,1v1l1,5v3l1,3l1,7v1l1,3v2l1,4v5l1,3l1,4v4h1v6l2,5v6l1,1v3l1,6l1,3v3l1,3l3,20l1,3v2l1,4v1l1,3v1l1,5v3l1,2v2l1,9l1,3l4,22v3l1,3v3l2,11l1,3v4l1,1l1,3v6l1,2v3l1,4v1l1,2v5l1,1v4l1,3v2l1,1v6l1,1v3l5,3l-1,9l7,6l-2,6l3,4l1,9l4,5l-3,1l5,9l4,9l9,9v1l1,5v2l-1,2v1h1v1h1l2,1l2,2v3l-2,2v1l2,3l-1,1h-1l-1,1l2,1v1h-2v2l-4,6l3,2l1,1h2l1,1h1v1h2l2,1l2,2v1l2,2l2,1l1,1l2,1h-3l-2,2v3h-1v2l-2,1l-4,1l-1,-1l-2,1v2h2l-1,3h-1l-2,1l-1,1h-1l-5,4l-2,3l-1,1h-1l-1,1l1,3v1l1,1l1,4l-1,2v2l-1,1l-22,1l-3,-6l-9,-11h-26l-2,1l-2,-18l-15,1h-55l-1,-1l-2,-1l-1,-1v-3l1,-2v-1l-4,-3l-4,4l-11,1l-2,4v21h-7l-5,-5l-7,3l-1,-15l-12,-10l5,-11l-2,-5l3,-3h-8l4,-5l-2,-3l1,-1l-1,-1l-1,-2l7,3l15,3l6,-2l8,-5l17,-2l-2,-8l-1,-25l1,-7l-4,-4l5,-13l-1,-3h-20v-8l-1,-4v-57h-71l-9,1l5,-6l-7,-8l2,-6l4,1l2,-10l3,1v-6h7l6,-4l-1,-11l4,-1l-7,-7l1,-23h-18v-9h-6l-5,-2v-12l4,-7v-13l-3,-8h-5v-8h9l8,-4h7Z"/><path data-name="Congressional District 4" class="district-0104" d="M57,287l5,-45l1,-1v-3l4,-25l1,-20l4,-29l1,-4l1,-10v-8l1,-1l4,-32v-4l3,-18v-1l1,-5l3,-34l12,-2l14,11l3,9l16,15h10l7,-7l20,-8l2,-2l11,-2l5,3l9,3h13l8,10l6,-1l8,-1l10,6l8,9l-1,12v33l-1,28l3,1h37l1,1h46v-17l5,-30l2,8l7,5h11l6,-8l6,-1l3,3l5,-14l-2,-4h-2h30v13l8,4l8,1l5,5l8,-3l2,-2l7,-7l20,-16l14,-22l6,-3l5,-9l1,-8l7,-5v1l1,4v3l1,2v5l2,7v4l1,2v2l1,2v3l1,1v4l3,13v4l1,2v2l1,1v5l1,3v4l1,1v2h1v6l1,3l1,4v2l1,2l1,8l-10,6l-2,-3l-5,3l-5,-6l-1,-9l-3,-2l-1,7h-4l-4,7l-13,14h-6v4l-6,-1v26l9,-3l-2,6l11,21l-1,5v6l-13,-2l-13,1v7l-11,-2l-5,11l-11,4l-1,-5l-5,1l-1,-8l-6,1l-2,-5l-2,-3v-5l-5,-5l-10,4l-2,-3h-4l-5,9l-6,-2l4,-6v-12l-12,-4l-1,-2h-1l4,-9l-12,-9h-8l-7,-2l-6,10l-9,2l-2,5h-6v10l-9,7l-5,10l-6,-1l-10,7l-6,1v9l-7,2l2,8l-3,6l-9,3l-3,8v9l-3,6h-5v5h-9l-9,7l-2,11h-5l-4,5l-5,5l-6,-1l-2,5l10,5l6,6l2,10l6,3l-9,15l2,5l-11,5h-9l-4,-2v-5l-2,-4l-5,4h-10l-6,6l-7,1l1,-4l-6,-1l-1,-4l-7,-1l2,13h-5l-1,6l-8,4l-2,-3l-8,7l-10,-2v-76h-18l-19,-2l-34,-1l3,-28Z"/><path data-name="Congressional District 5" class="district-0105" d="M73,25h32l28,1h33l24,1h38l2,1h33l7,1h179l15,1h27l2,9v6h1v8h1v2l-7,5l-1,8l-5,9l-6,3l-14,22l-20,16l-7,7l-2,2l-8,3l-5,-5l-8,-1l-8,-4v-13h-30h2l2,4l-5,14l-3,-3l-6,1l-6,8h-11l-7,-5l-2,-8l-5,30v17h-46l-1,-1h-37l-3,-1l1,-28v-33l1,-12l-8,-9l-10,-6l-8,1l-6,1l-8,-10h-13l-9,-3l-5,-3l-11,2l-2,2l-20,8l-7,7h-10l-16,-15l-3,-9l-14,-11l-12,2h-1l-2,-1l-3,-2l-3,-2v-2l-3,-6l-2,-3l-1,-2v-1l-1,-1v-2Z"/><path data-name="Congressional District 6" class="district-0106" d="M194,423l17,-1l1,-17l5,-8l14,1v-13l8,-8l7,3l7,-5h6l9,-2v-1l6,-8h-4l4,-10l7,-2l3,3l3,-5l-1,-5l7,-13l5,-2l6,-12l6,1l7,-11l-2,-4h8l-1,-7l-3,-6l-7,5h-1l-9,11l-5,3l-4,-4l-4,2l-2,-9h-3l-3,7l-5,4l5,1v4h-12l-1,5l7,3l-5,10l-1,10l-7,8l-2,-4l-11,10l-12,-1l-3,3l-3,-4l-6,-3l-2,-10l-6,-6l-10,-5l2,-5l6,1l5,-5l4,-5h5l2,-11l9,-7h9v-5h5l3,-6v-9l3,-8l9,-3l3,-6l-2,-8l7,-2v-9l6,-1l10,-7l6,1l5,-10l9,-7v-10h6l2,-5l9,-2l6,-10l7,2h8l12,9l-4,9h1l1,2l12,4v12l-4,6l6,2l-2,3v6l-15,14h-7l-8,4h-9v8h5l3,8v13l-4,7v12l5,2h6v9h18l-1,23l7,7l-4,1l1,11l-6,4h-7v6l-3,-1l-2,10l-4,-1l-2,6l7,8l-5,6l9,-1h71v57l1,4v8h-62l-6,1v9h-50v9h-23l-11,-1h-17v-34h-33l-17,1v-8h-16Z"/><path data-name="Congressional District 7" class="district-0107" d="M16,633l1,-1l2,-20v-1l3,-25v-1l4,-26l3,-24v-5l5,-42v-2l3,-25v-3l4,-34l3,-31l3,-20l6,-50v-1l1,-6l34,1l19,2h18v76l10,2l8,-7l2,3l8,-4l1,-6h5l-2,-13l7,1l1,4l6,1l-1,4l7,-1l6,-6h10l5,-4l2,4v5l4,2h9l11,-5l-2,-5l9,-15l3,4l3,-3l12,1l11,-10l2,4l7,-8l1,-10l5,-10l-7,-3l1,-5h12v-4l-5,-1l5,-4l3,-7h3l2,9l4,-2l4,4l5,-3l9,-11h1l7,-5l3,6l1,7h-8l2,4l-7,11l-6,-1l-6,12l-5,2l-7,13l1,5l-3,5l-3,-3l-7,2l-4,10h4l-6,8v1l-9,2h-6l-7,5l-7,-3l-8,8v13l-14,-1l-5,8l-1,17l-17,1v26h16v8l17,-1h33v34h17l3,15v12l3,11l9,11l-3,4l6,6l-1,5l-1,6h5l3,-5l-1,-11l6,1l4,-3v6l7,3l4,-3v-5l7,-1l-1,5l13,2l1,6l7,-1l3,2l-2,10l8,-3l2,-8l17,-7l5,9h9v7l-4,1l-2,1l-3,-3l-2,-2l1,18l-8,-4l-3,4v-1h-1v-1h-1l-5,4l1,31v17h-85v27h-53v-1h-47l-2,7v20h-8v28l-10,8l10,6l-2,10l-5,5l-10,-4l-7,5l-4,5l1,7l-5,1l-1,-6l-5,7l3,7l-6,-2l2,6l-6,-2l-3,5l1,7l-6,5l-8,2l-5,-1l3,-7l-2,-4l-8,-2l6,-3l-1,-8l6,1l6,-10l-5,-16l3,-10l2,-1l2,-10l8,5l-1,-11l8,-4l3,4l9,-3l2,-9l-7,-4l-3,-5h-4l9,-7l2,-8l-7,2l-4,-8l-12,4l-10,1l-1,5l12,7v11h-9l-11,11l-11,-21l-6,5l-1,-6h-64v-24l-1,-7l1,-15Z"/></g>
  <path class="districts-mesh" d="M16,680h64l1,6l6,-5l11,21l11,-11h9v-11l-12,-7l1,-5l10,-1l12,-4l4,8l7,-2l-2,8l-9,7h4l3,5l7,4l-2,9l-9,3l-3,-4l-8,4l1,11l-8,-5l-2,10l-2,1l-3,10l5,16l-6,10l-6,-1l1,8l-6,3l8,2l2,4l-3,7l5,1l8,-2l6,-5l-1,-7l3,-5l6,2l-2,-6l6,2l-3,-7l5,-7l1,6l5,-1l-1,-7l4,-5l7,-5l10,4l5,-5l2,-10l-10,-6l10,-8v-28h8v-20l2,-7h47v1h53l1,15l-5,1l-9,6l-13,2v7l-4,4l-8,2l-1,9l-3,6l-2,10l-6,11l-4,1l-8,9l-3,1l-11,17l-10,7l-1,4h111v13l11,1v38l2,1M278,656v-27h85v-17l-1,-31l5,-4h1v1h1v1l3,-4l8,4l-1,-18l2,2l3,3l2,-1l4,-1v-7h-9l-5,-9l-17,7l-2,8l-8,3l2,-10l-3,-2l-7,1l-1,-6l-13,-2l1,-5l-7,1v5l-4,3l-7,-3v-6l-4,3l-6,-1l1,11l-3,5h-5l1,-6l1,-5l-6,-6l3,-4l-9,-11l-3,-11v-12l-3,-15l11,1h23v-9h50v-9l6,-1h82l1,3l-5,13l4,4l-1,7l1,25l2,8l-17,2l-8,5l-6,2l-15,-3l-7,-3l1,2l1,1l-1,1l2,3l-4,5h8l-3,3l2,5l-5,11l12,10l1,15l7,-3l5,5h7v-21l2,-4l11,-1l4,-4l4,3v1l-1,2v3l1,1l2,1l1,1h55l15,-1l2,18l2,-1h26l9,11l3,6l22,-1M429,472v-8l-1,-4v-57h-71l-9,1l5,-6l-7,-8l2,-6l4,1l2,-10l3,1v-6h7l6,-4l-1,-11l4,-1l-7,-7l1,-23h-18v-9h-6l-5,-2v-12l4,-7v-13l-3,-8h-5v-8h9l8,-4h7l15,-14v-6l2,-3l5,-9h4l2,3l10,-4l5,5v5l2,3l2,5l6,-1l1,8l5,-1l1,5l11,-4l5,-11l11,2v-7l13,-1l13,2v-6l1,-5l-11,-21l2,-6l-9,3v-26l6,1v-4h6l13,-14l4,-7h4l1,-7l3,2l1,9l5,6l5,-3l2,3l10,-6M86,47l12,-2l14,11l3,9l16,15h10l7,-7l20,-8l2,-2l11,-2l5,3l9,3h13l8,10l6,-1l8,-1l10,6l8,9l-1,12v33l-1,28l3,1h37l1,1h46v-17l5,-30l2,8l7,5h11l6,-8l6,-1l3,3l5,-14l-2,-4h-2h30v13l8,4l8,1l5,5l8,-3l2,-2l7,-7l20,-16l14,-22l6,-3l5,-9l1,-8l7,-5M375,238l-6,-2l4,-6v-12l-12,-4l-1,-2h-1l4,-9l-12,-9h-8l-7,-2l-6,10l-9,2l-2,5h-6v10l-9,7l-5,10l-6,-1l-10,7l-6,1v9l-7,2l2,8l-3,6l-9,3l-3,8v9l-3,6h-5v5h-9l-9,7l-2,11h-5l-4,5l-5,5l-6,-1l-2,5l10,5l6,6l2,10l6,3l-9,15l2,5l-11,5h-9l-4,-2v-5l-2,-4l-5,4h-10l-6,6l-7,1l1,-4l-6,-1l-1,-4l-7,-1l2,13h-5l-1,6l-8,4l-2,-3l-8,7l-10,-2v-76h-18l-19,-2l-34,-1M277,490h-17v-34h-33l-17,1v-8h-16v-26l17,-1l1,-17l5,-8l14,1v-13l8,-8l7,3l7,-5h6l9,-2v-1l6,-8h-4l4,-10l7,-2l3,3l3,-5l-1,-5l7,-13l5,-2l6,-12l6,1l7,-11l-2,-4h8l-1,-7l-3,-6l-7,5h-1l-9,11l-5,3l-4,-4l-4,2l-2,-9h-3l-3,7l-5,4l5,1v4h-12l-1,5l7,3l-5,10l-1,10l-7,8l-2,-4l-11,10l-12,-1l-3,3l-3,-4"/>
</svg>