<?xml version="1.0" encoding="utf-8"?>
<!DOCTYPE svg PUBLIC "-//W3C//DTD SVG 1.1//EN" "http://www.w3.org/Graphics/SVG/1.1/DTD/svg11.dtd">
<svg version="1.1" xmlns="http://www.w3.org/2000/svg" width="1000" height="877" viewBox="0 0 1000 877">
  <path class="state" d="M142,24l25,1h32l6,1h52v1v-1l13,1h49l2,1h349l24,-1h47l2,-1h54l3,-1h56l1,-1h17v1h1l-1,1v2h-1l1,1h2l1,1v3l1,2v4l-1,1v2l1,1v-1v2l1,-1v1l1,1h2v1h2v1h1v-1l4,1v1h2v3h1v6h-1v1h-1v4h-1v1h1l-1,2v2l1,-1v1l1,1h1v3h-1v2h-1v3l-1,1l-1,1h-4l-2,1v3l-1,1v1h-1l-1,1h1l1,1v1l-1,1h-2l-1,1l-1,1v2h-1l-1,-1v1h-1l-1,1h-3v1l-1,1v1h-1l-1,2l-1,1h-2v-1l-2,5l-1,2v1h1v2h-1v1l-2,3l-1,1h-2v1h-1l-1,1h-3l-1,1v1l-1,1h1h-1v2h-2l-1,1l-1,1v2h1v1h-1l-1,1v1h-2v5h-1v1h-1v5h-2v1l-1,1v1h-1v2h-1v1l16,-1h33l13,-1h24l4,-1h6l23,-1h9l-3,4l1,4l2,2l1,1l5,2l6,6l1,4v2l-4,3l-3,-1v-1l-12,-3l-4,3v6l8,6l2,6l-2,1v1h-2l-2,1l-2,-2l-2,1l-3,1l-2,2l-1,3v1l-2,3l-1,1l-7,1l-3,4l-3,-3l-5,-1h-1l-6,5h-2v11l1,4l2,2l3,3h8l2,-3l3,-1l1,3v6l-7,4h-4l-5,3l-2,1l-1,1l-1,2v2l1,2l1,1l1,2l2,1l1,1h3v3l-2,5l-5,-1l-2,-2v-3l-3,-3l-4,-2l-4,2l-5,2v2l-2,5l2,6l2,3l3,2v1l-2,5h1l-1,2v2l-1,1h-1l-1,1v2l-2,2l1,1h2l-1,1l-2,1l-1,-2v-4l-1,-2l-1,-2v-2l1,-2v-4l-1,-1l-2,-2h-3l-2,1l-2,2l-1,1l-1,5l-3,1l-5,5l-1,8l3,2h4l1,-1l-2,-6l7,-1v1l3,3h1l3,2l-1,1v1l-2,3l-2,3l-2,2l1,1v1l-1,7h-3l-6,1h-1l-1,5l2,4l1,1l2,1l4,-1l6,3l4,7h-3v1l-1,1v3h-1l-2,-1l-2,2l1,2l2,4l7,3v1l-3,6l-8,-2l-8,1l-2,6v3l-3,12l-5,3l-1,-1h-4l-3,-1l-1,-1l-4,-1l-1,1h-1l-2,7v3l1,3l2,2l10,10l-3,9l-9,4l-1,2l1,1l-4,4l-3,-2l-3,1l-3,2l-3,2l-3,1h-3l-1,-1l-1,-6v-2l-1,-1v-1h-1l-4,-2h-1l-2,2l-1,1v4l1,2l1,2l1,1v1h1v2l1,1v1l-1,1l-1,1l-1,1v1l-1,1l1,3v2l3,4l-1,6l-2,2h-3l-7,-3v-2l2,-3l2,-2l1,-1v-1l-1,-1l-2,-4v-1h-2l-1,1h-2l-1,2l-1,1v1l1,1v3h1v2h1v2h-1v1h-2l-3,5v1h1l1,1l2,3h1l1,1h6l3,-1l5,2v4l-1,1l-1,1l-1,1v2l-2,1l-1,1l-1,1l-1,1l-1,1v1h-6l-2,-8l1,-1l2,-1v-2l-1,-2l-1,-1l-1,-1h-2v1h-1l-1,1l-1,1v1l-1,1v7h1v2l-1,2v4l1,4l6,7l2,4l-1,2v1h-1l-1,2l-2,1h-2v1l-1,2v2l-1,3v5l1,2l1,1l2,4l-1,4v1l-1,1l-1,1l-1,2l-7,3l-3,2l-3,1h-1l1,1l-2,4v2l1,3l1,2v1l-1,2h-2l-4,-4l1,-1l1,-5l1,-3v-1l-4,2h-8l-3,-1l-2,7l1,1l2,1l2,5v1l-1,2l-1,1l-1,1l-2,2h-8v1l-4,1l-3,10l-1,5h-6l-1,-1v-1l-2,-1l-1,-2l-1,-2v-1h-1l-2,-1l-2,1l-1,2l-1,1l1,2v1l2,2l2,4l1,1l6,1h2l2,-1l3,1h2l5,2v4l-1,2l-1,1l-1,1l-2,1h-5l-2,-1l-1,-1h-2v-2l-2,-1l-1,-1l-2,-1l-5,5l-2,1l-2,5v1l2,3l5,3h4l1,-1l4,2l1,1l-1,2v1l-2,2v7l-1,2h-1l-1,1h-15l-2,1l1,3v1l1,1l1,1l2,2v4l-1,1l-2,1l-4,-3l-1,-1l-1,-2l-1,-3v-1l-5,2v1l-7,1l-2,6l3,1l2,1h1l3,1l4,3l-3,8l-3,3l-1,2l-3,6v3h1l1,2h1l2,4l2,1l3,1l2,1l3,1l1,1v5l-1,1h-2l-2,1h-1l-1,-1l-5,-2h-4l-6,2l-1,-1l-2,-1l-2,-1h-1l-1,1l-1,2v2h1v1l-1,1v6l1,1l2,3l1,1h7l1,-1l2,-1l1,-1l4,3l1,1l1,1v1l1,1v4l-1,1h-2l-2,1h-2l-2,1h-2l-2,-1h-2l-4,-3l-2,-2l-4,-5h-1l-5,1h-1l-3,1l-1,1l-1,1l-1,1v4l1,1h1l1,1h1l1,1h3l2,2h1v1h2l4,4l2,7l-4,3l-1,1h-6l-2,2l-4,1h-1l-1,2h-1v1l1,2v1l2,2l2,2l3,2l1,2l1,2l-1,1l-1,1v1l-2,3l-1,1l-1,1l-1,1h-1l-1,1l-1,1v3l7,2l3,-2l1,-1l1,-1l1,-1h-1v-1l-1,-4l2,-5l8,5l1,2l1,5h-1l-1,2v1h-1l-1,1h-3l-2,1l-2,2l-2,-1h-3v1l-1,1l-1,1l1,1v1l2,1l1,1l6,2h4v-1h2v-1h1l2,-1l2,-2l1,-2l1,-2v-6l5,-2h1l1,4v1l-1,3l-3,3l-2,1l-1,2v1l-2,1l-1,2v1l-1,1l-3,2l-2,3v3l-1,1v2l1,2v4l1,2l2,1v4l1,1h1l1,3v1l2,1h1v-4l1,-3l4,-4l5,6l-1,1v2l-1,1l-2,2v1h-1v1h-2v2h-3v1l1,1v3l1,13l-2,2h-1l-1,1h-9v-1h-1l-1,-1h-5l-1,1l-1,3v4l1,1l2,1l1,2h1l1,1h1l2,1l2,1l1,1h1l1,1l1,1l1,2l-1,1v3l-1,1v1h-3l-1,1h-1l-2,2l-1,2v1h-209l-17,-1h-82l-25,-1h-25l-3,-1h-51l-15,-1h-34l-29,-1h-25l-8,-1h-47v-21l1,-34v-32l1,-10v-29h-5l-1,-1l3,-1l-2,-2l-3,-2h-1l-2,1h-1v1h-9l-2,-3l-1,-2h-6v1h-5l1,4l-4,3l-2,-1l2,-7l-6,3l-4,4l-1,-2v-1l1,-1h1v-2h-1v-1h-1v1h-1l-1,1l-1,2l-1,3l-1,2h-1l-2,-1l-3,-4l-1,1l1,2v1l-1,1v1h-3l-1,-1l-1,1h-2v-1l-1,-1l-2,-2l1,-2l1,1l2,-1l1,-2v-1l-1,-1h-1l-1,1l-1,1l-1,2l-4,-3v-1h-1v-1l-1,-1h-3l-1,-2h-1v-1v1h-2l3,-4l-1,-2v-1l1,-1h1l1,-1v-2h-3l-1,1h-4v1v-10l1,-7v-11l1,-8v-16l1,-20v-4l1,-4v-5l1,-22v-9l1,-1v-14l1,-21v-2l1,-15v-2l1,-11v-1l1,-54v-1l1,-15l1,-5l1,-30v-7l1,-2v-12l1,-7v-6l1,-15v-13l1,-1v-16l1,-5v-15l1,-1v-8l1,-11v-11l-1,-4v-5l-1,-1v-2l-1,-9v-1l-2,-22h-1v-3l-3,-30v-1l-1,-3v-13h-1v-9l-1,-1v-5l-1,-10h-1v-9h-1v-8l-1,-1v-5l-1,-8v-1l-2,-12v-3l-1,-5l-1,-9v-4h-1v-9l-1,-4v-4l-1,-1v-7l-1,-1v-3l-1,-13v-3l-1,-4v-5l-1,-1v-5l-1,-5v-11h14l1,1h67l2,1Z"/>
<g class="geos"><path data-name="Stone" class="geo-137" d="M444,152h20l1,-20h20l1,-18l1,7l9,-3l6,14h5l5,7l-5,1l-3,6l3,8l-5,4l2,5l12,-4l3,7l7,-6h4l3,5l11,9l4,-1l4,5l-4,10v12l6,4v12l-6,-1h-45l-26,-1l-6,-1h-28v-51Z"/><path data-name="Polk" class="geo-113" d="M45,447l1,-5l27,1l1,7l57,2v2l17,1l-1,3v28l-1,2v27l-1,18l-30,-1l-32,-1v20h1v18h-44l1,-21v-2l1,-15v-2l1,-11v-1l1,-54v-1Z"/><path data-name="Independence" class="geo-063" d="M552,178l1,-3l17,-16h9l5,1h42v11h51l-8,17l-8,6l-9,11l-1,8h-4l1,10l6,8l-9,-1v28h-29l-12,-1l-14,-1h-27l1,-42l-10,2v-12l-6,-4v-12Z"/><path data-name="Lonoke" class="geo-085" d="M500,380v-13h3l6,-2h2l11,1l2,2l6,2l8,2l3,3l10,1v1v-1v1l11,-2v26l21,1v25l-1,1v32l2,1l9,7l1,4l-5,5l1,7l5,6l-8,8v7h-6l-52,-2h-11v-30l-17,-1l3,-6l1,-15l4,-4v-67Z"/><path data-name="Clark" class="geo-019" d="M235,537l13,1h10v14l31,1v6l22,1l-1,3h11l2,8l-4,4l2,6l29,1l-1,17v22l-12,1l3,13l4,-1l2,19l6,4l-4,7l-8,-2l-1,3l-8,5l-13,3l-4,-4l-8,2l-6,-8h-3l-6,2l-2,-4l-13,-3l-9,-9l2,-6l-7,-5l-8,-10l-1,-8l-6,-5v-5l-5,-3l-1,-14l-3,-6v-14l3,-5l-11,-1v-9h4Z"/><path data-name="Fulton" class="geo-049" d="M494,28h133v35l-1,3h-20v21l-24,-1l-17,-1h-49l-23,-1v-32h1Z"/><path data-name="Logan" class="geo-083" d="M175,278l2,7l7,8l9,-1l9,-8l4,5l10,1l5,-4l8,-2l7,3l5,-7l7,1v8l6,10l-5,4h9l8,-3l7,3l4,3l-1,25l-35,-1l-4,3v5l-6,1l-4,7l-26,-1v3h-8l-1,21l1,7l-27,-2h-21l-24,-1v-7h-13l1,-11v-10l21,1l1,-17v-5l21,1l1,-21l21,2Z"/><path data-name="Miller" class="geo-091" d="M120,769v-8l1,-10v-29l9,-3l-1,6l6,-2l1,-7l3,7l3,-2v-6l8,3l6,-10l7,1l3,5l-3,5l7,3l-3,3l6,4l2,7l3,-2l5,5l-3,4l5,10l-4,2l6,7v11l8,2l-7,3l3,10l-10,1l6,7l-6,2l-2,10l3,3l-7,-1l-3,10l-4,-6l-6,3l1,5l-6,-4l-2,14l6,7v6l4,3h-46v-43l1,-12v-5Z"/><path data-name="Arkansas" class="geo-001" d="M645,485l17,1l-1,7h6l-1,7l7,5l5,-2l-2,11l8,-2l2,9l6,2l1,5l6,4l-1,3l10,3l1,5l-5,5l3,10l-2,14l-2,-1l-1,11l1,3l-6,5l-6,3l-1,5l-4,-2l-4,5l-1,6l3,7l4,3v6l6,5l-5,5l-2,-5l-8,1l-5,-6l-4,6l-4,-4l-6,3l-10,1l7,-6l-5,-5l-6,5h-3l-6,-7v-1l-3,-2v-11l-2,-2l1,-8l-2,-5l-8,2v-6l-4,2l-3,-9v-8l-12,-3l-16,-1h-8v-17l1,-7v-35h22v-21l2,1Z"/><path data-name="Carroll" class="geo-015" d="M251,26h6v1v-1l13,1h7l-1,13v39l-1,2v35l-35,-2h-14v-6l-7,-1l1,-7l-6,-4v-13l-9,-5l2,-6l-30,-1l-4,-4h-4v1v-1l-1,-4v1v-1l-2,-10l-2,2v-2l2,-1h1v-27h32l6,1h2Z"/><path data-name="Van Buren" class="geo-141" d="M368,211l34,2v-18l41,1v17h28l6,1l-1,10v31h-1v23l-1,19l-7,-1h-25l-11,-1v-21h-25v-1h-47v-21l8,1v-37Z"/><path data-name="Johnson" class="geo-071" d="M198,198l33,2v7l25,1h39l4,1l-1,31h-10v23l-2,7h-12l-1,5v28l-7,-3l-8,3h-9l5,-4l-6,-10v-8l-7,-1l-5,7l-7,-3l-8,2l-5,4l-10,-1l-4,-5l-9,8l1,-25l2,-20v-22Z"/><path data-name="Searcy" class="geo-129" d="M343,148l-1,-30h11l10,2v8l1,1h27l2,1h31l20,1v21l-1,10v34l-41,-1v18l-34,-2l-28,-1v-16l2,-16v-25Z"/><path data-name="Garland" class="geo-051" d="M249,524v-28l1,-2v-32l2,-6v-21h21l16,1h46v21h-2v11h20v11h13l3,7v14l-24,-1v14h-7v14l-13,-1h-25l-22,-2Z"/><path data-name="Sevier" class="geo-133" d="M39,589v-5l1,-1v-14h44l29,1l1,8l-2,6l4,1l-2,13l1,13l3,2l1,9v15l2,2v4l5,3v3l1,2l3,4l8,9l1,11l-18,-1l1,-6l-12,-3l-9,1l-7,-2v-4l-9,3l-11,-8l-4,2l1,-8l-7,-1v-5l-10,-4l2,-11h-8l2,4l-13,-4v-4l1,-4v-5l1,-22Z"/><path data-name="Jefferson" class="geo-069" d="M483,503h46l52,2v35l-1,7v17h8l16,1l12,3v8l3,9l4,-2v6l8,-2l2,5l-1,8l-4,-2l-7,4l-8,-8l-12,4l-1,-5l5,-5h-10l-11,-10h-7v26h-4v-7l-41,1v6h-54v-39h4v-25l1,-1Z"/><path data-name="Lincoln" class="geo-079" d="M580,578h4l11,10h10l-5,5l1,5l12,-4l8,8l7,-4l4,2l2,2v11l3,2v4l-9,-1v7l-16,-1l-1,14v26l-1,6l-17,-2h-64v-43l3,-2v-25l41,-1v7h4v-26Z"/><path data-name="Randolph" class="geo-121" d="M636,28h34l24,-1h47l2,-1h11l3,2l-1,15l5,3v32l-10,-1v4l-1,27l-45,1l-3,2l-2,7l-2,-8l-12,-5l-2,-7l-14,-6l-6,-8v-17h-3v-10l-7,-4l1,-7h-9l-1,-13l-8,-1Z"/><path data-name="Izard" class="geo-065" d="M486,114h-4v-10l10,1l1,-21l23,1h49l17,1v10h4l-2,11v39l-5,-1v14h-9l-17,16l-1,3l-4,-5l-4,1l-11,-9l-3,-5h-4l-7,6l-3,-7l-12,4l-2,-5l5,-4l-3,-8l3,-6l5,-1l-5,-7h-5l-6,-14l-9,3Z"/><path data-name="Scott" class="geo-127" d="M109,355l-1,11h13v7l24,1h21l27,2l-1,14v30l-1,21l-7,-1v3h-7v4l-7,1h-10l-2,11l-11,-1l1,-3l-17,-1v-2l-57,-2l-1,-7l-27,-1l1,-30v-7l1,-2v-10l8,-4h23l12,-3v-20l-4,-3Z"/><path data-name="Perry" class="geo-105" d="M416,356l2,12l-2,5l-8,6v7l9,7v5l-20,-1v6h-20l-1,14h3l-2,3l-12,-2l-5,-2l-19,-1h-26v21h-26l-16,-1v-21l4,-10h3l7,-11l4,1l11,-10l7,-11l7,-3l6,-7l4,1h31l1,1h26l9,-1l6,-8l4,4l-5,4h6l9,-9Z"/><path data-name="Craighead" class="geo-031" d="M834,144l16,-1h1v23l1,3v42l1,2h-89l-1,1h-45l-10,-1v-41l32,1l2,-21h87Z"/><path data-name="Cleburne" class="geo-023" d="M477,214l26,1h45l6,1l10,-2l-1,42v18l-8,2l-3,3l-1,19h-35l-14,-1h-28l1,-19v-23h1v-31Z"/><path data-name="Hot Spring" class="geo-059" d="M369,500h10v7h11v14h3v32h-1l-1,30h-27l-14,-1l-29,-1l-2,-6l4,-4l-2,-8h-11l1,-3l-22,-1v-6l-31,-1v-14h-10l1,-14h29l22,2h25l13,1v-14h7v-14Z"/><path data-name="Columbia" class="geo-027" d="M252,752l2,-3l23,1l5,-2h21l-1,17l29,1l-1,5v26h-1v31h-1v23h-51l-15,-1h-34l2,-32v-23l8,-2l3,-8l3,-17Z"/><path data-name="Ouachita" class="geo-103" d="M409,666l-1,17v1h-1l-1,2v2h-1l-2,1h-1v1l-1,1l-3,2v1l-1,1v1l-4,3l-2,1l-7,1h-2l-2,3v1h-1v6l4,2v11l-10,5v10l9,1l-2,7l4,6h11l1,9l5,-3l7,2l4,8l-2,-1h-5l-16,3l-4,-3l-3,-2l-9,-1l-1,1l-5,2l-31,-1l-5,-1l-29,-1l1,-17l1,-9v-22h1v-23l1,-1v-22l8,-2l4,4l13,-3l8,-5l1,-3l8,2Z"/><path data-name="Yell" class="geo-149" d="M277,306l6,11h8l7,6l8,18l9,-3l-3,12l8,4l4,-2v-8l5,-2h21h-6l-10,12h-9l-3,9l-6,7l-7,3l-7,11l-11,10l-4,-1l-7,11h-3l-4,10v21h-21v7h-28l-4,-1h-29l1,-21v-30l1,-14l-1,-7l1,-21h8v-3l26,1l4,-7l6,-1v-5l4,-3l35,1Z"/><path data-name="Monroe" class="geo-095" d="M645,403h15l1,-18h10v-4h17v22h7v10h3v31h10v63h11v31h-11l-10,-3l1,-3l-6,-4l-1,-5l-6,-2l-2,-9l-8,2l2,-11l-5,2l-7,-5l1,-7h-6l1,-7l-17,-1v-7h-7v-3h-7v-14h14v-38l2,-9Z"/><path data-name="Mississippi" class="geo-093" d="M883,143l13,-1h24l4,-1h6l23,-1l6,4l1,4l2,2l1,1l5,2l6,6l1,4v2l-4,3l-3,-1v-1l-12,-3l-5,4l1,7l8,4l2,6l-2,1v1h-2l-2,1l-2,-2l-2,1l-3,1l-2,2l-1,3v1l-2,3l-1,1l-7,1l-3,4l-3,-3l-5,-1h-1l-6,5h-2v11l1,4l2,2l3,3h8l2,-3l3,-1l1,3v6l-7,4h-4l-5,3l-2,1l-1,1l-1,2v2l1,2l1,1l1,2l2,1l1,1h3v3l-2,5l-5,-1l-2,-2v-3l-3,-3l-4,-2l-4,2l-5,2v2l-2,5l2,6l2,3l3,2v1l-2,5h1l-1,2v2l-1,1h-1l-1,1v2l-2,2l1,1h2l-1,1l-2,1l-1,-2v-4l-1,-2l-1,-2v-2l1,-2v-4l-1,-1l-2,-2h-3l-2,1l-2,2l-1,1l-1,5l-3,1l-27,1l-1,-14v-49l-1,-2v-42l-1,-3v-23h31Z"/><path data-name="Washington" class="geo-143" d="M37,131l-2,-12v-3l30,2l1,-10l11,-1v-17l36,3h20l3,-3l10,4l-1,-5l7,-2l10,1l-11,33l-2,36v22l-3,4v16l-31,-1v3l-17,-1l-25,-2h-29v-10h-1v-9l-1,-1v-5l-1,-10h-1v-9h-1v-8l-1,-1v-5l-1,-8Z"/><path data-name="Newton" class="geo-101" d="M240,114l35,2h6l5,1h31v1h25l1,30l-1,5v25l-2,16v16l-41,-1l-4,-1h-39l-25,-1v-7l1,-14h-2l1,-14l4,-1v-9l3,-7l7,-3l1,-27h-7Z"/><path data-name="Calhoun" class="geo-013" d="M409,666l49,2v8l-1,2l-1,1l1,2v2l1,2v3l3,8l-1,26l2,17l-3,13l-9,15l-1,15l5,3l-4,5l-12,2l-8,-6l3,-4l-7,-4l-7,3l-1,-9l-6,-3l-4,-8l-7,-2l-5,3l-1,-9h-11l-4,-6l2,-7l-9,-1v-10l10,-5v-11l-4,-2v-6h1v-1l2,-3h2l7,-1l2,-1l4,-3v-1l1,-1v-1l3,-2l1,-1v-1h1l2,-1h1v-2l1,-2h1v-1Z"/><path data-name="Cross" class="geo-037" d="M779,274h12v2l21,-1v63l1,8h-90l-15,1v-71l1,1h26l14,-2Z"/><path data-name="Phillips" class="geo-107" d="M708,465l14,1h32l2,-1h44v1l-1,2v4l1,4l6,7l2,4l-1,2v1h-1l-1,2l-2,1h-2v1l-1,2v2l-1,3v5l1,2l1,1l2,4l-1,4v1l-1,1l-1,1l-1,2l-7,3l-3,2l-3,1h-1l1,1l-2,4v2l1,3l1,2v1l-1,2h-2l-4,-4l1,-1l1,-5l1,-3v-1l-4,2h-8l-3,-1l-2,7l1,1l2,1l2,5v1l-1,2l-1,1l-1,1l-2,2h-8v1l-4,1l-3,10l-1,5h-6l-1,-1v-1l-2,-1l-1,-2l-1,-2v-1h-1l-2,-1l-2,1l-1,2l-1,1l1,2v1l2,2l2,4l1,1l6,1h2l2,-1l3,1h2l5,2v4l-1,2l-1,1l-1,1l-2,1h-5l-2,-1l-1,-1h-2v-2l-2,-1l-1,-1l-2,-1l-5,5l-2,1l-2,5v1h-31l6,-5l-1,-3l1,-11l2,1l2,-14l-3,-10l5,-5l-1,-5h11v-31h-11Z"/><path data-name="Franklin" class="geo-047" d="M156,200l2,-3l40,1l-2,27v22l-2,20l-1,25l-9,1l-7,-8l-2,-7l-1,28l-21,-2l-1,21l-21,-1v4h-10v-17l2,-38l9,-3l-4,-7l2,-2l2,-1l-2,-10l4,-7h-11l1,-20h17v-10h4v-7l11,1l4,-7Z"/><path data-name="Crawford" class="geo-033" d="M45,204l-1,-3v-3h29l25,2l17,1v-3l31,1l10,1h4l-4,7l-11,-1v7h-4v10h-17l-1,20h11l-4,7l2,10l-2,1l-2,2l4,7l-9,3l-13,-1l-4,3l5,7v6l-7,1l-3,-2l-4,7h-7l-7,-1l-4,2l-9,-6l2,-9l-10,-9l-7,4l-1,9v-2l-1,-4v-5l-1,-1v-2l-1,-9v-1l-2,-22h-1v-3l-3,-30Z"/><path data-name="Jackson" class="geo-067" d="M677,171l31,1v126h-41v-22l-19,1l1,1h-45v-21l12,1h29v-28l9,1l-6,-8l-1,-10h4l1,-8l9,-11l8,-6Z"/><path data-name="Clay" class="geo-021" d="M861,24h13v1h1l-1,1v2h-1l1,1h2l1,1v3l1,2v4l-1,1v2l1,1v-1v2l1,-1v1l1,1h2v1h2v1h1v-1l4,1v1h2v3h1v6h-1v1h-1v4h-1v1h1l-1,2v2l1,-1v1l1,1h1v3h-1v2h-1v3l-1,1l-1,1h-4l-2,1v3l-1,1v1h-1l-1,1h1l1,1v1l-1,1h-2l-1,1l-1,1v2h-1l-1,-1v1h-1l-1,1h-3v1l-26,1v-13h-43v-1h-49v-4l10,1v-32l-5,-3l1,-15l-3,-2h43l3,-1h56l1,-1h2Z"/><path data-name="Faulkner" class="geo-045" d="M431,295l11,1h25l7,1h28l-1,13v41l-1,16v13l-21,-1v21l-5,-1h-28l-10,6l1,13l-4,-1l2,-13l-6,-11h-12l-9,-7v-7l8,-6l2,-5l-2,-12l7,-1l4,-12l-6,-5l-1,-8l6,-7l-2,-2l6,-3Z"/><path data-name="Baxter" class="geo-005" d="M422,28h72v24h-1v32l-1,21l-10,-1v10h4l-1,18h-20l-1,20h-20v-21l1,-17l-6,-7l-7,-6l3,-6l-3,-3l1,-7l-7,-2h-7l4,-5l-4,-6l-6,1l4,-7l5,-3l-11,1l-1,-3l11,-7Z"/><path data-name="Little River" class="geo-081" d="M35,673v-1l1,-8v-16l1,-20l13,4l-2,-4h8l-2,11l10,4v5l7,1l-1,8l4,-2l11,8l9,-3v4l7,2l9,-1l12,3l-1,6l18,1l-3,3l2,11l-1,6l6,3l3,-2l6,8l11,5l-7,-1l-6,10l-8,-3v6l-3,2l-3,-7l-1,7l-6,2l1,-6l-9,3h-5l-1,-1l3,-1l-2,-2l-3,-2h-1l-2,1h-1v1h-9l-2,-3l-1,-2h-6v1h-5l1,4l-4,3l-2,-1l2,-7l-6,3l-4,4l-1,-2v-1l1,-1h1v-2h-1v-1h-1v1h-1l-1,1l-1,2l-1,3l-1,2h-1l-2,-1l-3,-4l-1,1l1,2v1l-1,1v1h-3l-1,-1l-1,1h-2v-1l-1,-1l-2,-2l1,-2l1,1l2,-1l1,-2v-1l-1,-1h-1l-1,1l-1,1l-1,2l-4,-3v-1h-1v-1l-1,-1h-3l-1,-2h-1v-1v1h-2l3,-4l-1,-2v-1l1,-1h1l1,-1v-2h-3l-1,1h-4v1v-10l1,-7v-9Z"/><path data-name="Boone" class="geo-009" d="M277,27h42l2,1h39v7l-6,-6v65l-1,1v23h-36v-1h-31l-5,-1h-6v-35l1,-2v-39Z"/><path data-name="Ashley" class="geo-003" d="M631,763v91h-121l-2,-6h-6l-1,-9l-6,-6l5,-5l2,-10h-6v-6l5,-9l9,-4l8,-10l6,-1l-1,-4l6,1v-11l2,-8l-5,-4l14,1h50Z"/><path data-name="Desha" class="geo-041" d="M697,590h31l2,3l5,3h4l1,-1l4,2l1,1l-1,2v1l-2,2v7l-1,2h-1l-1,1h-15l-2,1l1,3v1l1,1l1,1l2,2v4l-1,1l-2,1l-4,-3l-1,-1l-1,-2l-1,-3v-1l-5,2v1l-7,1l-2,6l3,1l2,1h1l3,1l4,3l-3,8l-3,3l-1,2l-3,6v3h1l1,2h1l2,4l2,1l3,1l2,1l3,1l1,1v5l-1,1h-2l-2,1h-1l-1,-1l-5,-2h-4l-6,2l-1,-1l-2,-1l-2,-1h-1l-1,1l-1,2v2h1v1l-1,1v6l1,1l2,3l1,1h7l1,-1l2,-1l1,-1l4,3l1,1l1,1v1l1,1v4l-1,1h-2l-2,1h-2l-2,1h-2l-2,-1h-2l-4,-3l-2,-2l-4,-5h-1l-5,1h-1l-3,1l-1,1l-1,1l-1,1v4l1,1h1l1,1h1l1,1h3l2,2h1v1h2l4,4l2,7l-4,3l-1,1h-6l-2,2l-4,1h-1l-1,2h-1l-2,10h-16l-4,-4l-1,-7l-21,1v-40l1,-12l-22,-1l1,-6v-26l1,-14l16,1v-7l9,1v-4v1l6,7h3l6,-5l5,5l-7,6l10,-1l6,-3l4,4l4,-6l5,6l8,-1l2,5l5,-5l-6,-5v-6l-4,-3l-3,-7l1,-6l4,-5l4,2l1,-5Z"/><path data-name="St. Francis" class="geo-123" d="M813,346l20,-2v35h-1v24h-134v10h-3v-10h-7v-22h20v-34l15,-1Z"/><path data-name="Montgomery" class="geo-097" d="M147,458l11,1l2,-11h10l7,-1v-4h7v-3l7,1h29l4,1h28v14l-2,6v32l-1,2v28l-1,14l-13,-1l-49,-2v-1h-29l-12,-1l1,-18v-27l1,-2Z"/><path data-name="Sharp" class="geo-135" d="M627,28h9l1,4l8,1l1,13h9l-1,7l7,4v10h3v21h-14l-3,3v47h-1v33h-20v-11h-42l-5,-1v-14l5,1v-39l2,-11h-4v-10l24,1v-21h20l1,-3Z"/><path data-name="Greene" class="geo-055" d="M750,108l1,-27h49v1h43v13l26,-1l-1,1v1h-1l-1,2l-1,1h-2v-1l-2,5l-1,2v1h1v2h-1v1l-2,3l-1,1h-2v1h-1l-1,1h-3l-1,1v1l-1,1h1h-1v2h-2l-1,1l-1,1v2h1v1h-1l-1,1v1h-2v5h-1v1h-1v5h-2v1l-1,1v1h-1v2h-1v1l-5,8h-87l1,-4l2,-14l3,-9l6,-3l8,-14Z"/><path data-name="Woodruff" class="geo-147" d="M649,278l-1,-1l19,-1v22h41v83h-37v4h-10l-1,18h-15l1,-9v-24l-21,-1l5,-2l-4,-6l8,-5l-5,-5l5,-1l-1,-14h7l4,-5l-2,-8l-5,-4v-9l-6,1l3,-5l-2,-12l17,-10Z"/><path data-name="White" class="geo-145" d="M563,256h27l14,1v21h45v6l-17,10l2,12l-3,5l6,-1v9l5,4l2,8l-4,5h-7l1,14l-5,1l5,5l-8,5h-22v15h-8l-9,-7l-4,-1l-9,3h-7l-5,4l-11,2v-1v1v-1l-10,-1l-3,-3l-8,-2l-6,-2l-2,-2l-11,-1h-2l-6,2h-3l1,-16v-41l1,-13l14,1h35l1,-19l3,-3l8,-2Z"/><path data-name="Lee" class="geo-077" d="M698,413v-10h134l1,16h-3l-1,-1l-1,-6v-2l-1,-1v-1h-1l-4,-2h-1l-2,2l-1,1v4l1,2l1,2l1,1v1h1v2l1,1v1l-1,1l-1,1l-1,1v1l-1,1l1,3v2l3,4l-1,6l-2,2h-3l-7,-3v-2l2,-3l2,-2l1,-1v-1l-1,-1l-2,-4v-1h-2l-1,1h-2l-1,2l-1,1v1l1,1v3h1v2h1v2h-1v1h-2l-3,5v1h1l1,1l2,3h1l1,1h6l3,-1l5,2v4l-1,1l-1,1l-1,1v2l-2,1l-1,1l-1,1l-1,1l-1,1v1h-6l-2,-8l1,-1l2,-1v-2l-1,-2l-1,-1l-1,-1h-2v1h-1l-1,1l-1,1v1l-1,1v7h1v1h-44l-2,1h-32l-14,-1v-21h-10Z"/><path data-name="Conway" class="geo-029" d="M359,273h47v1h25v21l-1,23l-6,3l2,2l-6,7l1,8l6,5l-4,12l-7,1l-3,-1l-9,9h-6l5,-4l-4,-4l-6,8l-9,1h-26l-1,-1h-31l-4,-1l3,-9h9l10,-12h6l8,-1v-48Z"/><path data-name="Howard" class="geo-061" d="M84,569v-18h-1v-20l32,1l30,1l-1,21h3l-1,18l21,1l-1,13v28l-1,4v22l-1,2l-1,34l-24,-1l-1,-11l-8,-9l-3,-4l-1,-2v-3l-5,-3v-4l-2,-2v-15l-1,-9l-3,-2l-1,-13l2,-13l-4,-1l2,-6l-1,-8Z"/><path data-name="Nevada" class="geo-099" d="M238,628l8,1l6,-1h2l8,10l7,5l-2,6l9,9l13,3l2,4l6,-2h3l6,8v22l-1,1v23h-1v22l-1,9h-21l-5,2l-23,-1l-23,-1v-6l2,-34v-24l1,-21l3,-4Z"/><path data-name="Pulaski" class="geo-119" d="M483,503h-8l1,-21h-21l1,-11h-20l1,-11h-11v-4h-10v-13l-2,-5h-18l1,-20l-18,-1h-3l1,-14h20v-6l20,1v-5h12l6,11l-2,13l4,1l-1,-13l10,-6h28l5,1v-21l21,1h9v67l-4,4l-1,15l-3,6l17,1v30Z"/><path data-name="Grant" class="geo-053" d="M445,502l30,1h8v36l-1,1v25h-4v39l-21,1l-6,-2l-6,-10l-18,-8l-31,-1l-5,-1l1,-30h1v-32h10l-1,-3l5,-6h30l8,1Z"/><path data-name="Benton" class="geo-007" d="M29,71v-2l-1,-13v-3l-1,-4v-5l-1,-1v-5l-1,-5v-11h14l1,1h67l2,1h33l25,1v27h-1l-2,1v2l2,-2l2,10v1v-1l1,4v1v-1h4l4,4l-11,-1v18h-4l-10,-1l-7,2l1,5l-10,-4l-3,3h-20l-36,-3v17l-11,1l-1,10l-30,-2l-1,-5l-1,-9v-4h-1v-9l-1,-4v-4l-1,-1v-7l-1,-1Z"/><path data-name="Madison" class="geo-087" d="M162,88h4v-18l11,1l30,1l-2,6l9,5v13l6,4l-1,7l7,1v6h14l-1,11h7l-1,27l-7,3l-3,7v9l-4,1l-1,14h2l-1,14l-33,-2l-40,-1l-2,3l-10,-1v-16l3,-4v-22l2,-36Z"/><path data-name="Dallas" class="geo-039" d="M350,582l14,1h27l5,1l31,1l18,8l6,10l6,2l-26,2v19l4,2v1l3,2l2,2l6,10l5,9l2,2l2,3l2,5v1l-1,3l2,2l-49,-2l-61,-2l4,-7l-6,-4l-2,-19l-4,1l-3,-13l12,-1v-22Z"/><path data-name="Cleveland" class="geo-025" d="M457,605l21,-1h54v19l-3,2v64h-65l-6,-1v-3l-1,-2v-2l-1,-2l1,-1l1,-2v-8l-2,-2l1,-3v-1l-2,-5l-2,-3l-2,-2l-5,-9l-6,-10l-2,-2l-3,-2v-1l-4,-2v-19Z"/><path data-name="Crittenden" class="geo-035" d="M812,275l13,1h29l27,-1l-5,5l-1,8l3,2h4l1,-1l-2,-6l7,-1v1l3,3h1l3,2l-1,1v1l-2,3l-2,3l-2,2l1,1v1l-1,7h-3l-6,1h-1l-1,5l2,4l1,1l2,1l4,-1l6,3l4,7h-3v1l-1,1v3h-1l-2,-1l-2,2l1,2l2,4l7,3v1l-3,6l-8,-2l-4,-1l-6,8v3l-3,12l-5,3l-1,-1h-4l-3,-1l-1,-1l-4,-1l-1,1h-1l-2,7v3l1,3l2,2l10,10l-1,6l-11,7l-1,2l1,1l-4,4l-3,-2l-3,1l-3,2l-3,2l-3,1l-1,-16v-24h1v-35l-20,2l-1,-8Z"/><path data-name="Lafayette" class="geo-073" d="M183,739l48,3v6l23,1l-2,3l-8,16l-3,17l-3,8l-8,2v23l-2,32l-29,-1h-25l-8,-1h-1l-4,-3v-6l-6,-7l2,-14l6,4l-1,-5l6,-3l4,6l3,-10l7,1l-3,-3l2,-10l6,-2l-6,-7l10,-1l-3,-10l7,-3l-8,-2v-11l-6,-7l4,-2l-5,-10Z"/><path data-name="Saline" class="geo-125" d="M315,436v-21h26l19,1l5,2l12,2l2,-3l18,1l-1,20h18l2,5v13h10v4h11l-1,11h20l-1,11h21l-1,21l-30,-1v11l-8,-1h-30l-5,6l1,3h-13v-14h-11v-7h-10v-14l-3,-7h-13v-11h-20v-11h2v-21Z"/><path data-name="Chicot" class="geo-017" d="M631,723l21,-1l1,7l4,4h16l2,-10h1h-1v1l1,2v1l2,2l2,2l3,2l1,2l1,2l-1,1l-1,1v1l-2,3l-1,1l-1,1l-1,1h-1l-1,1l-1,1v3l7,2l3,-2l1,-1l1,-1l1,-1h-1v-1l-1,-4l2,-5l8,5l1,2l1,5h-1l-1,2v1h-1l-1,1h-3l-2,1l-2,2l-2,-1h-3v1l-1,1l-1,1l1,1v1l2,1l1,1l6,2h4v-1h2v-1h1l2,-1l2,-2l1,-2l1,-2v-6l5,-2h1l1,4v1l-1,3l-3,3l-2,1l-1,2v1l-2,1l-1,2v1l-1,1l-3,2l-2,3v3l-1,1v2l1,2v4l1,2l2,1v4l1,1h1l1,3v1l2,1h1v-4l1,-3l4,-4l5,6l-1,1v2l-1,1l-2,2v1h-1v1h-2v2h-3v1l1,1v3l1,11l-2,4h-1l-1,1h-9v-1h-1l-1,-1h-5l-1,1l-1,3v4l1,1l2,1l1,2h1l1,1h1l2,1l2,1l1,1h1l1,1l1,1l1,2l-1,1v3l-1,1v1h-3l-1,1h-1l-2,2l-1,2v1h-58v-91Z"/><path data-name="Pope" class="geo-115" d="M299,209l41,1l28,1l-1,5v37l-8,-1v21l-1,20v48l-8,1h-21l-5,2v8l-4,2l-8,-4l3,-12l-9,3l-8,-18l-7,-6h-8l-6,-11l-4,-3v-28l1,-5h12l2,-7v-23h10Z"/><path data-name="Marion" class="geo-089" d="M360,28h62l-1,26l-11,7l1,3l11,-1l-5,3l-4,7l6,-1l4,6l-4,5h7l7,2l-1,7l3,3l-3,6l7,6l6,7l-1,17l-20,-1h-31l-2,-1h-27l-1,-1v-8l-10,-2v-23l1,-1v-65l6,6Z"/><path data-name="Prairie" class="geo-117" d="M562,375l5,-4h7l9,-3l4,1l9,7h8v-15h22l4,6l-5,2l21,1v24l-1,9l2,11l-2,9v38h-14v14h7v3h7v7h-40l-2,-1v21h-16v-7l8,-8l-5,-6l-1,-7l5,-5l-1,-4l-9,-7l-2,-1v-32l1,-1v-25l-21,-1Z"/><path data-name="Bradley" class="geo-011" d="M458,688l6,1h65v42h-7l2,12l-3,7l4,2l1,10l5,4l-2,8v11l-6,-1l1,4l-6,1l-8,10l-9,4l-5,9v6h-4l-3,-7l-9,-4l-3,-6l2,-5l-17,-2l-3,-4l-7,-1l2,-4l-5,-3l1,-15l9,-15l3,-13l-2,-17l1,-26Z"/><path data-name="Drew" class="geo-043" d="M529,689v-21h64l17,2l22,1l-1,12v80h-91l-14,-1l-1,-10l-4,-2l3,-7l-2,-12h7Z"/><path data-name="Pike" class="geo-109" d="M145,533l12,1h29v1l49,2l-1,21h-4v9l11,1l-3,5v14l3,6l1,14l5,3v5l6,5l1,8h-2l-6,1l-8,-1l-8,2l-19,-4h-2l-6,-3l-23,-8l-14,-1v-28l1,-13l-21,-1l1,-18h-3Z"/><path data-name="Union" class="geo-139" d="M331,766l5,1l31,1l5,-2l1,-1l9,1l3,2l4,3l16,-3h5l2,1l6,3l1,9l7,-3l7,4l-3,4l8,6l12,-2l4,-5l-2,4l7,1l3,4l17,2l-2,5l3,6l9,4l3,7h10l-2,10l-5,5l6,6l1,9h6l2,6h-30l-17,-1h-82l-25,-1h-25l-3,-1v-23h1v-31h1v-26Z"/><path data-name="Sebastian" class="geo-131" d="M54,292v-8l1,-9l7,-4l10,9l-2,9l9,6l4,-2l7,1h7l4,-7l3,2l7,-1v-6l-5,-7l4,-3l13,1l-2,38v17h10v1l-1,17l-21,-1v10l-22,8l4,3v20l-12,3h-23l-8,4v-2l1,-7v-6l1,-15v-13l1,-1v-16l1,-5v-15l1,-1v-8l1,-11Z"/><path data-name="Lawrence" class="geo-075" d="M750,108h12l-8,14l-6,3l-3,9l-2,14l-1,4l-2,21l-32,-1l-31,-1h-31v-33h1v-47l3,-3h14v-4l6,8l14,6l2,7l12,5l2,8l2,-7l3,-2Z"/><path data-name="Poinsett" class="geo-111" d="M763,214l1,-1h89v49l1,14h-29l-13,-1l-21,1v-2h-12l-30,1l-14,2h-26l-1,-1v-63l10,1Z"/><path data-name="Hempstead" class="geo-057" d="M166,614l14,1l23,8l6,3h2l19,4l8,-2l-1,31l-3,4l-1,21v24l-2,34l-48,-3l-5,-5l-3,2l-2,-7l-6,-4l3,-3l-7,-3l3,-5l-3,-5l-11,-5l-6,-8l-3,2l-6,-3l1,-6l-2,-11l3,-3l24,1l1,-34l1,-2v-22Z"/></g>
  <path class="counties-mesh" d="M275,116l-35,-2h-14v-6l-7,-1l1,-7l-6,-4v-13l-9,-5l2,-6l-30,-1l-4,-4h-4v1v-1l-1,-4v1v-1l-2,-10l-2,2v-2l2,-1h1v-27M477,214l-1,10v31h-1v23l-1,19M46,442l27,1l1,7l57,2v2l17,1l-1,3v28l-1,2v27l-1,18l-30,-1l-32,-1v20h1v18l29,1l1,8l-2,6l4,1l-2,13l1,13l3,2l1,9v15l2,2v4l5,3v3l1,2l3,4l8,9l1,11l-18,-1l1,-6l-12,-3l-9,1l-7,-2v-4l-9,3l-11,-8l-4,2l1,-8l-7,-1v-5l-10,-4l2,-11h-8l2,4l-13,-4M754,26l3,2l-1,15l5,3v32l-10,-1v4l-1,27l-45,1l-3,2l-2,7l-2,-8l-12,-5l-2,-7l-14,-6l-6,-8v-17h-3v-10l-7,-4l1,-7h-9l-1,-13l-8,-1l-1,-4M510,854l-2,-6h-6l-1,-9l-6,-6l5,-5l2,-10h-6v-6l5,-9l9,-4l8,-10l6,-1l-1,-4l6,1v-11l2,-8l-5,-4l14,1h91v-80l1,-12l-22,-1l-17,-2h-64v-43l3,-2v-19h-54v-39h4v-25l1,-1v-36h35M851,143v23l1,3v42l1,2h-89l-1,1h-45l-10,-1v-41l32,1l2,-21h87l5,-8M348,664l-8,-2l-1,3l-8,5l-13,3l-4,-4l-8,2l-6,-8h-3l-6,2l-2,-4l-13,-3l-9,-9l2,-6l-7,-5l-8,-10l-1,-8l-6,-5v-5l-5,-3l-1,-14l-3,-6v-14l3,-5l-11,-1v-9h4l1,-21l13,1l1,-14M228,850l2,-32v-23l8,-2l3,-8l3,-17l8,-16l2,-3l23,1l5,-2h21l-1,17l29,1l-1,5v26h-1v31h-1v23M369,500l-24,-1v14h-7v14l-13,-1h-25l-22,-2h-29v-28l1,-2v-32l2,-6v-21h21l16,1h26M273,435v-21l4,-10h3l7,-11l4,1l11,-10l7,-11l7,-3l6,-7M444,131l1,-17l-6,-7l-7,-6l3,-6l-3,-3l1,-7l-7,-2h-7l4,-5l-4,-6l-6,1l4,-7l5,-3l-11,1l-1,-3l11,-7l1,-26M486,114l1,7l9,-3l6,14h5l5,7l-5,1l-3,6l3,8l-5,4l2,5l12,-4l3,7l7,-6h4l3,5l11,9l4,-1l4,5l-4,10v12l6,4v12l-6,-1h-45l-26,-1l-6,-1h-28v-51l1,-10M84,569h-44M552,178l1,-3l17,-16h9l5,1h42v11h51l-8,17l-8,6l-9,11l-1,8h-4l1,10l6,8l-9,-1v28h-29l-12,-1M563,256l1,-42l-10,2M631,763v91M248,538h10v14l31,1v6l22,1l-1,3h11l2,8l-4,4l2,6l29,1l-1,17v22l-12,1l3,13l4,-1l2,19l6,4l-4,7l61,2l-1,17v1h-1l-1,2v2h-1l-2,1h-1v1l-1,1l-3,2v1l-1,1v1l-4,3l-2,1l-7,1h-2l-2,3v1h-1v6l4,2v11l-10,5v10l9,1l-2,7l4,6h11l1,9l5,-3l7,2l4,8l-2,-1h-5l-16,3l-4,-3l-3,-2l-9,-1l-1,1l-5,2l-31,-1l-5,-1M252,442h-28l-4,-1h-29M881,275l-27,1l-1,-14v-49M35,116l30,2l1,-10l11,-1v-17l36,3h20l3,-3l10,4l-1,-5l7,-2l10,1M177,71l-11,-1v18h-4l-11,33l-2,36v22l-3,4v16l-31,-1v3l-17,-1l-25,-2h-29M277,27l-1,13v39l-1,2v35h6l5,1h31v1h25M340,210l-41,-1M231,200l1,-14h-2l1,-14l4,-1v-9l3,-7l7,-3l1,-27h-7l1,-11M409,666l49,2v8l-1,2l-1,1l1,2v2l1,2v3l3,8l-1,26l2,17l-3,13l-9,15l-1,15l5,3l-4,5l-12,2l-8,-6l3,-4l-7,-4l-7,3l-1,-9l-6,-3M627,28v35l-1,3h-20v21l-24,-1v10h4l-2,11v39l-5,-1v14M779,274h12v2l21,-1v63l1,8h-90l-15,1v-71l1,1h26l14,-2l30,-1M708,465l14,1h32l2,-1h44M193,376l-27,-2h-21l-24,-1v-7h-13l1,-11v-10l21,1l1,-17v-1h-10v-17l2,-38l9,-3l-4,-7l2,-2l2,-1l-2,-10l4,-7h-11l1,-20h17v-10h4v-7l11,1l4,-7h-4l2,-3l40,1M146,199l10,1M123,273l-13,-1l-4,3l5,7v6l-7,1l-3,-2l-4,7h-7l-7,-1l-4,2l-9,-6l2,-9l-10,-9l-7,4l-1,9M677,171l31,1M708,213v63M708,298h-41v-22l-19,1l1,1M869,94l-26,1v-13h-43v-1h-49M502,297l-1,13v41l-1,16M500,380l-21,-1v21l-5,-1h-28l-10,6l1,13l-4,-1l2,-13l-6,-11h-12M416,356l7,-1l4,-12l-6,-5l-1,-8l6,-7l-2,-2l6,-3l1,-23M582,86l-17,-1h-49l-23,-1v-32h1v-24M360,28v7l-6,-6v65l-1,1v23M676,723h-1l-2,10h-16l-4,-4l-1,-7l-21,1M813,346l20,-2v35h-1v24h-134v10M688,381h20v-34M664,84v4h-14l-3,3v47h-1v33M193,292l9,-8l4,5l10,1l5,-4l8,-2l7,3l5,-7l7,1v8l6,10l-5,4h9l8,-3l7,3M742,152l1,-4l2,-14l3,-9l6,-3l8,-14h-12M832,403l1,16M277,306l-1,25l-35,-1l-4,3v5l-6,1l-4,7l-26,-1v3h-8l-1,21l1,7l-1,14v30l-1,21l-7,-1v3h-7v4l-7,1h-10l-2,11l-11,-1M254,749l-23,-1v-6l2,-34v-24l1,-21l3,-4l1,-31l8,1l6,-1h2M131,328v-4l21,1l1,-21l21,2l1,-28l2,7l7,8l9,-1l1,-25l2,-20v-22l2,-27l33,2v7l25,1h39l4,1l-1,31h-10v23l-2,7h-12l-1,5v28l4,3l6,11h8l7,6l8,18l9,-3l-3,12l8,4l4,-2v-8l5,-2h21h-6l-10,12h-9l-3,9l4,1h31l1,1h26l9,-1l6,-8l4,4l-5,4h6l9,-9l3,1l2,12l-2,5l-8,6v7l9,7v5l-20,-1v6h-20l-1,14h3l-2,3l-12,-2l-5,-2l-19,-1h-26v21h20v21h-2v11h20v11h13l3,7v14h10v7h11v14h13l-1,-3l5,-6h30l8,1v-11l30,1l1,-21h-21l1,-11h-20l1,-11h-11v-4h-10v-13l-2,-5h-18l1,-20l-18,-1M478,604l-21,1l-6,-2l-6,-10l-18,-8l-31,-1l-5,-1M637,616v-1l-3,-2v-11l-2,-2l-4,-2l-7,4l-8,-8l-12,4l-1,-5l5,-5h-10l-11,-10h-7v26h-4v-7l-41,1v6M121,722l9,-3l-1,6l6,-2l1,-7l3,7l3,-2v-6l8,3l6,-10l7,1l3,5l-3,5l7,3l-3,3l6,4l2,7l3,-2l5,5l-3,4l5,10l-4,2l6,7v11l8,2l-7,3l3,10l-10,1l6,7l-6,2l-2,10l3,3l-7,-1l-3,10l-4,-6l-6,3l1,5l-6,-4l-2,14l6,7v6l4,3M645,485l17,1l-1,7h6l-1,7l7,5l5,-2l-2,11l8,-2l2,9l6,2l1,5l6,4l-1,3l10,3l1,5l-5,5l3,10l-2,14l-2,-1l-1,11l1,3l-6,5l-6,3l-1,5l-4,-2l-4,5l-1,6l3,7l4,3v6l6,5l-5,5l-2,-5l-8,1l-5,-6l-4,6l-4,-4l-6,3l-10,1l7,-6l-5,-5l-6,5h-3l-6,-7v3l-9,-1v7l-16,-1l-1,14v26l-1,6M457,605l-26,2v19l4,2v1l3,2l2,2l6,10l5,9l2,2l2,3l2,5v1l-1,3l2,2M587,505h-6l-52,-2h-11v-30l-17,-1l3,-6l1,-15l4,-4v-67h-9v-13h3l6,-2h2l11,1l2,2l6,2l8,2l3,3l10,1v1l11,-2M529,668v21h-65l-6,-1M812,275l13,1h29M183,739l48,3M529,689v42h-7l2,12l-3,7l4,2l1,10M496,818h-4l-3,-7l-9,-4l-3,-6l2,-5l-17,-2l-3,-4l-7,-1l2,-4M632,600l1,-8l-2,-5l-8,2v-6l-4,2l-3,-9v-8l-12,-3l-16,-1h-8v-17l1,-7v-35M238,628l-8,2l-19,-4h-2l-6,-3l-23,-8l-14,-1M48,393l8,-4h23l12,-3v-20l-4,-3l22,-8M483,503h-8M350,342l8,-1v-48l1,-20v-21l8,1v-37l1,-5l-28,-1v-16l2,-16v-25l1,-5l-1,-30h11l10,2v8l1,1h27l2,1h31l20,1v21h20l1,-20h20l1,-18h-4v-10l10,1l1,-21M303,748l1,-9v-22h1v-23l1,-1v-22M728,590h-31M235,537l-49,-2v-1h-29l-12,-1l-1,21h3l-1,18l21,1l-1,13v28l-1,4v22l-1,2l-1,34l-24,-1l-3,3l2,11l-1,6l6,3l3,-2l6,8l11,5M645,403l1,-9v-24l-21,-1l5,-2l-4,-6h-22v15h-8l-9,-7l-4,-1l-9,3h-7l-5,4v26l21,1v25l-1,1v32l2,1l9,7l1,4l-5,5l1,7l5,6l-8,8v7h16v-21l2,1h40v-7h-7v-3h-7v-14h14v-38l2,-9l-2,-11h15l1,-18h10v-4h17v22h7v10h3v31h10v63h11v31h-11M378,583M474,297l-7,-1h-25l-11,-1M431,295v-21h-25v-1h-47M626,361l8,-5l-5,-5l5,-1l-1,-14h7l4,-5l-2,-8l-5,-4v-9l-6,1l3,-5l-2,-12l17,-10v-6M649,278h-45v-21M604,257l-14,-1h-27M563,256v18l-8,2l-3,3l-1,19h-35l-14,-1M502,297h-28M368,211l34,2v-18l41,1M393,521v32h-1l-1,30M391,583h-13M378,583h-14l-14,-1"/>
<g class="districts"><path data-name="Congressional District 1" class="district-0501" d="M343,148l6,-3v-7l14,1v-11l1,1h27l2,1h31l20,1l1,-17l-6,-7l-7,-6l3,-6l-3,-3l1,-7l-7,-2h-7l4,-5l-4,-6l-6,1l4,-7l5,-3l-11,1l-1,-3l11,-7l1,-26h248l24,-1h47l2,-1h54l3,-1h56l1,-1h17v1h1l-1,1v2h-1l1,1h2l1,1v3l1,2v4l-1,1v2l1,1v-1v2l1,-1v1l1,1h2v1h2v1h1v-1l4,1v1h2v3h1v6h-1v1h-1v4h-1v1h1l-1,2v2l1,-1v1l1,1h1v3h-1v2h-1v3l-1,1l-1,1h-4l-2,1v3l-1,1v1h-1l-1,1h1l1,1v1l-1,1h-2l-1,1l-1,1v2h-1l-1,-1v1h-1l-1,1h-3v1l-1,1v1h-1l-1,2l-1,1h-2v-1l-2,5l-1,2v1h1v2h-1v1l-2,3l-1,1h-2v1h-1l-1,1h-3l-1,1v1l-1,1h1h-1v2h-2l-1,1l-1,1v2h1v1h-1l-1,1v1h-2v5h-1v1h-1v5h-2v1l-1,1v1h-1v2h-1v1l16,-1h33l13,-1h24l4,-1h6l23,-1l6,4l1,4l2,2l1,1l5,2l6,6l1,4v2l-4,3l-3,-1v-1l-12,-3l-5,4l1,7l8,4l2,6l-2,1v1h-2l-2,1l-2,-2l-2,1l-3,1l-2,2l-1,3v1l-2,3l-1,1l-7,1l-3,4l-3,-3l-5,-1h-1l-6,5h-2v11l1,4l2,2l3,3h8l2,-3l3,-1l1,3v6l-7,4h-4l-5,3l-2,1l-1,1l-1,2v2l1,2l1,1l1,2l2,1l1,1h3v3l-2,5l-5,-1l-2,-2v-3l-3,-3l-4,-2l-4,2l-5,2v2l-2,5l2,6l2,3l3,2v1l-2,5h1l-1,2v2l-1,1h-1l-1,1v2l-2,2l1,1h2l-1,1l-2,1l-1,-2v-4l-1,-2l-1,-2v-2l1,-2v-4l-1,-1l-2,-2h-3l-2,1l-2,2l-1,1l-1,5l-3,1l-5,5l-1,8l3,2h4l1,-1l-2,-6l7,-1v1l3,3h1l3,2l-1,1v1l-2,3l-2,3l-2,2l1,1v1l-1,7h-3l-6,1h-1l-1,5l2,4l1,1l2,1l4,-1l6,3l4,7h-3v1l-1,1v3h-1l-2,-1l-2,2l1,2l2,4l7,3v1l-3,6l-8,-2l-4,-1l-6,8v3l-3,12l-5,3l-1,-1h-4l-3,-1l-1,-1l-4,-1l-1,1h-1l-2,7v3l1,3l2,2l10,10l-1,6l-11,7l-1,2l1,1l-4,4l-3,-2l-3,1l-3,2l-3,2l-3,1h-3l-1,-1l-1,-6v-2l-1,-1v-1h-1l-4,-2h-1l-2,2l-1,1v4l1,2l1,2l1,1v1h1v2l1,1v1l-1,1l-1,1l-1,1v1l-1,1l1,3v2l3,4l-1,6l-2,2h-3l-7,-3v-2l2,-3l2,-2l1,-1v-1l-1,-1l-2,-4v-1h-2l-1,1h-2l-1,2l-1,1v1l1,1v3h1v2h1v2h-1v1h-2l-3,5v1h1l1,1l2,3h1l1,1h6l3,-1l5,2v4l-1,1l-1,1l-1,1v2l-2,1l-1,1l-1,1l-1,1l-1,1v1h-6l-2,-8l1,-1l2,-1v-2l-1,-2l-1,-1l-1,-1h-2v1h-1l-1,1l-1,1v1l-1,1v7h1v2l-1,2v4l1,4l6,7l2,4l-1,2v1h-1l-1,2l-2,1h-2v1l-1,2v2l-1,3v5l1,2l1,1l2,4l-1,4v1l-1,1l-1,1l-1,2l-7,3l-3,2l-3,1h-1l1,1l-2,4v2l1,3l1,2v1l-1,2h-2l-4,-4l1,-1l1,-5l1,-3v-1l-4,2h-8l-3,-1l-2,7l1,1l2,1l2,5v1l-1,2l-1,1l-1,1l-2,2h-8v1l-4,1l-3,10l-1,5h-6l-1,-1v-1l-2,-1l-1,-2l-1,-2v-1h-1l-2,-1l-2,1l-1,2l-1,1l1,2v1l2,2l2,4l1,1l6,1h2l2,-1l3,1h2l5,2v4l-1,2l-1,1l-1,1l-2,1h-5l-2,-1l-1,-1h-2v-2l-2,-1l-1,-1l-2,-1l-5,5l-2,1l-2,5v1l2,3l5,3h4l1,-1l4,2l1,1l-1,2v1l-2,2v7l-1,2h-1l-1,1h-15l-2,1l1,3v1l1,1l1,1l2,2v4l-1,1l-2,1l-4,-3l-1,-1l-1,-2l-1,-3v-1l-5,2v1l-7,1l-2,6l3,1l2,1h1l3,1l4,3l-3,8l-3,3l-1,2l-3,6v3h1l1,2h1l2,4l2,1l3,1l2,1l3,1l1,1v5l-1,1h-2l-2,1h-1l-1,-1l-5,-2h-4l-6,2l-1,-1l-2,-1l-2,-1h-1l-1,1l-1,2v2h1v1l-1,1v6l1,1l2,3l1,1h7l1,-1l2,-1l1,-1l4,3l1,1l1,1v1l1,1v4l-1,1h-2l-2,1h-2l-2,1h-2l-2,-1h-2l-4,-3l-2,-2l-4,-5h-1l-5,1h-1l-3,1l-1,1l-1,1l-1,1v4l1,1h1l1,1h1l1,1h3l2,2h1v1h2l4,4l2,7l-4,3l-1,1h-6l-2,2l-4,1h-1l-1,2h-1v1l1,2v1l2,2l2,2l3,2l1,2l1,2l-1,1l-1,1v1l-2,3l-1,1l-1,1l-1,1h-1l-1,1l-1,1v3l7,2l3,-2l1,-1l1,-1l1,-1h-1v-1l-1,-4l2,-5l8,5l1,2l1,5h-1l-1,2v1h-1l-1,1h-3l-2,1l-2,2l-2,-1h-3v1l-1,1l-1,1l1,1v1l2,1l1,1l6,2h4v-1h2v-1h1l2,-1l2,-2l1,-2l1,-2v-6l5,-2h1l1,4v1l-1,3l-3,3l-2,1l-1,2v1l-2,1l-1,2v1l-1,1l-3,2l-2,3v3l-1,1v2l1,2v4l1,2l2,1v4l1,1h1l1,3v1l2,1h1v-4l1,-3l4,-4l5,6l-1,1v2l-1,1l-2,2v1h-1v1h-2v2h-3v1l1,1v3l1,11l-2,4h-1l-1,1h-9v-1h-1l-1,-1h-5l-1,1l-1,3v4l1,1l2,1l1,2h1l1,1h1l2,1l2,1l1,1h1l1,1l1,1l1,2l-1,1v3l-1,1v1h-3l-1,1h-1l-2,2l-1,2v1h-58v-171l1,-12l-22,-1l-17,-2h-64v-43l3,-2v-25l41,-1v7h4v-26h3v-31l-20,-1v-7h-4v-11h-18v-5l-9,-1v-19h-11v-30l-17,-1l3,-6l1,-15l4,-4v-67h-9v-13h3l6,-2h2l11,1l2,2l6,2l8,2l3,3l10,1v1v-1v1l11,-2l5,-4h7l9,-3l4,1l9,7h8v-15h22l8,-5l-5,-5l5,-1l-1,-14h7l4,-5l-2,-8l-5,-4v-9l-6,1l3,-5l-2,-12l17,-10v-6h-45v-21l-14,-1h-27v18l-8,2l-3,3l-1,19h-35l-14,-1h-28l1,-19v-23h1v-31l1,-10l-6,-1h-28v-17l-41,-1v18l-34,-2l-28,-1v-16l2,-16v-25Z"/><path data-name="Congressional District 2" class="district-0502" d="M322,363l3,-9h9l10,-12h6l8,-1v-48l1,-20v-21l8,1v-37l1,-5l34,2v-18l41,1v17h28l6,1l-1,10v31h-1v23l-1,19h28l14,1h35l1,-19l3,-3l8,-2v-18h27l14,1v21h45v6l-17,10l2,12l-3,5l6,-1v9l5,4l2,8l-4,5h-7l1,14l-5,1l5,5l-8,5h-22v15h-8l-9,-7l-4,-1l-9,3h-7l-5,4l-11,2v-1v1v-1l-10,-1l-3,-3l-8,-2l-6,-2l-2,-2l-11,-1h-2l-6,2h-3v13h9v67l-4,4l-1,15l-3,6l17,1v30h-43l-30,-1v11l-8,-1h-30l-5,6l1,3h-13v-14h-11v-7h-10v-14l-3,-7h-13v-11h-20v-11h2v-21h-46l-16,-1v-21l4,-10h3l7,-11l4,1l11,-10l7,-11l7,-3Z"/><path data-name="Congressional District 3" class="district-0503" d="M39,22l1,1h67l2,1h33l25,1h32l6,1h52v1v-1l13,1h49l2,1h101l-1,26l-11,7l1,3l11,-1l-5,3l-4,7l6,-1l4,6l-4,5h7l7,2l-1,7l3,3l-3,6l7,6l6,7l-1,17l-20,-1h-31l-2,-1h-27l-1,-1v11l-14,-1v7l-6,3l-1,5v25l-2,16v16l28,1l-1,5v37l-8,-1v21l-1,20v48l-8,1h-21l-5,2v8l-4,2l-8,-4l3,-12l-9,3l-8,-18l-7,-6h-8l-6,-11l-4,-3v-28l1,-5h12l2,-7v-23h10l1,-31v-14l2,-7l1,-20h-10v-7h7l3,-8l7,1l1,-11l-10,-2v-7l5,-4l-21,-1l-4,-2l1,-11h-6l-35,-2h-14v-6l-7,-1l1,-7l-6,-4v-13l-9,-5l2,-6l-30,-1l-11,-1v18h-4l-11,33l-2,36v22l-3,4v16l-31,-1v3l-17,-1v11l-4,-1v7h-4l-1,17h11l-1,16l-4,2l-1,12l-9,4l4,1v14h2l-1,11h2l1,4l2,7l10,2l6,4h10v17h10v1l-4,6l-14,-1l-17,4v6l-6,-4l-23,-1l-4,4v14h3v6h-16v-13l1,-1v-16l1,-5v-15l1,-1v-8l1,-11v-11l-1,-4v-5l-1,-1v-2l-1,-9v-1l-2,-22h-1v-3l-3,-30v-1l-1,-3v-13h-1v-9l-1,-1v-5l-1,-10h-1v-9h-1v-8l-1,-1v-5l-1,-8v-1l-2,-12v-3l-1,-5l-1,-9v-4h-1v-9l-1,-4v-4l-1,-1v-7l-1,-1v-3l-1,-13v-3l-1,-4v-5l-1,-1v-5l-1,-5v-11h13Z"/><path data-name="Congressional District 4" class="district-0504" d="M34,700v-10l1,-7v-11l1,-8v-16l1,-20v-4l1,-4v-5l1,-22v-9l1,-1v-14l1,-21v-2l1,-15v-2l1,-11v-1l1,-54v-1l1,-15l1,-5l1,-30v-7l1,-2v-12l1,-7v-6l1,-15h16v-6h-3v-14l4,-4l23,1l6,4v-6l17,-4l14,1l4,-6v-1h-10v-17h-10l-6,-4l-10,-2l-2,-7l-1,-4h-2l1,-11h-2v-14l-4,-1l9,-4l1,-12l4,-2l1,-16h-11l1,-17h4v-7l4,1v-11l17,1v-3l31,1v-16l3,-4v-22l2,-36l11,-33h4v-18l11,1l30,1l-2,6l9,5v13l6,4l-1,7l7,1v6h14l35,2h6l-1,11l4,2l21,1l-5,4v7l10,2l-1,11l-7,-1l-3,8h-7v7h10l-1,20l-2,7v14l-1,31h-10v23l-2,7h-12l-1,5v28l4,3l6,11h8l7,6l8,18l9,-3l-3,12l8,4l4,-2v-8l5,-2h21h-6l-10,12h-9l-3,9l-6,7l-7,3l-7,11l-11,10l-4,-1l-7,11h-3l-4,10v21l16,1h46v21h-2v11h20v11h13l3,7v14h10v7h11v14h13l-1,-3l5,-6h30l8,1v-11l30,1h54v19l9,1v5h18v11h4v7l20,1v31h-3v26h-4v-7l-41,1v25l-3,2v43h64l17,2l22,1l-1,12v171h-151l-17,-1h-82l-25,-1h-25l-3,-1h-51l-15,-1h-34l-29,-1h-25l-8,-1h-47v-43l1,-12v-32l1,-10v-29h-5l-1,-1l3,-1l-2,-2l-3,-2h-1l-2,1h-1v1h-9l-2,-3l-1,-2h-6v1h-5l1,4l-4,3l-2,-1l2,-7l-6,3l-4,4l-1,-2v-1l1,-1h1v-2h-1v-1h-1v1h-1l-1,1l-1,2l-1,3l-1,2h-1l-2,-1l-3,-4l-1,1l1,2v1l-1,1v1h-3l-1,-1l-1,1h-2v-1l-1,-1l-2,-2l1,-2l1,1l2,-1l1,-2v-1l-1,-1h-1l-1,1l-1,1l-1,2l-4,-3v-1h-1v-1l-1,-1h-3l-1,-2h-1v-1v1h-2l3,-4l-1,-2v-1l1,-1h1l1,-1v-2h-3l-1,1h-4Z"/></g>
  <path class="districts-mesh" d="M518,503v-30l-17,-1l3,-6l1,-15l4,-4v-67h-9v-13h3l6,-2h2l11,1l2,2l6,2l8,2l3,3l10,1v1l11,-2l5,-4h7l9,-3l4,1l9,7h8v-15h22l8,-5l-5,-5l5,-1l-1,-14h7l4,-5l-2,-8l-5,-4v-9l-6,1l3,-5l-2,-12l17,-10v-6h-45v-21l-14,-1h-27v18l-8,2l-3,3l-1,19h-35l-14,-1h-28l1,-19v-23h1v-31l1,-10l-6,-1h-28v-17l-41,-1v18l-34,-2l-28,-1v-16l2,-16v-25l1,-5l6,-3v-7l14,1v-11l1,1h27l2,1h31l20,1l1,-17l-6,-7l-7,-6l3,-6l-3,-3l1,-7l-7,-2h-7l4,-5l-4,-6l-6,1l4,-7l5,-3l-11,1l-1,-3l11,-7l1,-26M631,854v-171l1,-12l-22,-1l-17,-2h-64v-43l3,-2v-25l41,-1v7h4v-26h3v-31l-20,-1v-7h-4v-11h-18v-5l-9,-1v-19h-54l-30,-1v11l-8,-1h-30l-5,6l1,3h-13v-14h-11v-7h-10v-14l-3,-7h-13v-11h-20v-11h2v-21h-46l-16,-1v-21l4,-10h3l7,-11l4,1l11,-10l7,-11l7,-3l6,-7l3,-9h9l10,-12h6l8,-1v-48l1,-20v-21l8,1v-37l1,-5M350,342h-21l-5,2v8l-4,2l-8,-4l3,-12l-9,3l-8,-18l-7,-6h-8l-6,-11l-4,-3v-28l1,-5h12l2,-7v-23h10l1,-31v-14l2,-7l1,-20h-10v-7h7l3,-8l7,1l1,-11l-10,-2v-7l5,-4l-21,-1l-4,-2l1,-11h-6l-35,-2h-14v-6l-7,-1l1,-7l-6,-4v-13l-9,-5l2,-6l-30,-1l-11,-1v18h-4l-11,33l-2,36v22l-3,4v16l-31,-1v3l-17,-1v11l-4,-1v7h-4l-1,17h11l-1,16l-4,2l-1,12l-9,4l4,1v14h2l-1,11h2l1,4l2,7l10,2l6,4h10v17h10v1l-4,6l-14,-1l-17,4v6l-6,-4l-23,-1l-4,4v14h3v6h-16"/>
</svg>