<?xml version="1.0" encoding="utf-8"?>
<!DOCTYPE svg PUBLIC "-//W3C//DTD SVG 1.1//EN" "http://www.w3.org/Graphics/SVG/1.1/DTD/svg11.dtd">
<svg version="1.1" xmlns="http://www.w3.org/2000/svg" width="855" height="1000" viewBox="0 0 855 1000">
  <path class="state" d="M194,30h14l2,1h21l1,1h23l1,1h31l3,1h67l-1,9v74l-1,55v70l-1,8v36l-1,9v31l1,7l4,2v1l2,1l2,2v1l9,8l8,7l7,6l2,3h1l1,1l3,3l25,23h1l9,8l8,7l11,10l8,7l12,11l8,7l1,1l3,2l8,7l25,23l11,10l1,1l25,23l12,10l2,2l5,5l10,8l18,17l23,20l20,18l5,4l16,15l5,5l2,1l15,13l5,5l15,14h1l20,19l15,13l11,10l2,2l12,11l2,1l4,4l5,4l14,13v5h1v1l-1,1v1l1,1v1h-1v3h1v1h1v1h1l1,1l1,1v1l1,1v1l1,1v2h2v1h1l1,1v1h1l1,1l1,1h1v2h1v4h1v2l1,1l1,1v1h-1l2,1v2h1v1l2,3v1l1,1l-1,1v4l1,1h4v1l1,1h1l1,1v1h2v1h2l1,1v1h3v1h1l1,1h1v3h1l1,1v3l1,1v1h-3v2l-2,1v1l-1,1h-1v2h-2v1h-1l-1,1l-1,-1v1h-1v1h-1v1l-1,1h-1v1h-2v1l-2,1h-2v1h-1l-1,1v1l-1,1v3h1v2l-1,1h-1v2l-1,1h-1v1l-1,1v1h-2v2h-1v1l2,1l1,1v1h-2h1v1l1,1v2h-2v2h1v3l1,1v7h1v1l1,2h-1l-1,1l-1,2l1,2h-1l1,1v3l-1,1v2l1,1v2h-1l-1,1l-1,1v1l-1,1l-1,1v1l-1,1v1h-1v1l-1,1v2h-1v1h-1v1v-1h-3v1h-3v1l1,1l1,1v1l1,1v2l-1,3h-1l-1,1l1,2l2,1l2,1v1l-1,1l1,1v8l-1,1v1l-1,4v1l2,1l1,2h1v1l2,-1l1,1l1,1h2l1,-1h3l3,2l1,1v3h3l-1,3v2h1v1h1v7h-1l-1,1h-1l-1,1l-1,1v5l-1,1h-3v2h-4v1h-2l-1,-1h-3v-1h-1v2h-1v1h-1l-9,2l-10,1h-3l-15,2l-11,1l-9,1l-7,1h-1l-6,1l-20,3l-24,3l-32,4l-4,1l-22,2l-1,1l-8,1h-4l-6,1l-8,1l-1,-5l2,-1l-1,-9l-1,-1h-2v-1h-1v-1l-6,-1l2,-7l-6,-2l1,-4h1v-2l-2,-14l-10,-19l-15,-17h-3v-2l-11,-8l-4,-5l-9,-7l-3,-1l-9,-6l-7,-6l-1,-2l-6,3l-3,-3h-1l-3,5l-4,-1l-8,-4l3,-9l-6,-12l-4,-5l-20,-1l-5,3l-3,-3l-8,-1l-7,-4l-7,-1l-9,-4l-4,-12l-17,-11l-7,-5l-25,1l-12,-6l-23,-1l-13,2l-4,-7l-12,-5l4,-12l-2,-8l2,-10l-4,-2l1,-8l2,-13l-6,-7l-6,1l-10,-10l5,-9l-4,-10l-9,-1l-8,-9l-4,-9l-8,-2l-5,-5l-2,-9l-9,-8l-2,-10l-7,-5l-4,-9l-10,-11l-6,-2l-6,-13l-2,-11v-9l-3,-2l3,-4l6,2l3,-3l4,-17l-1,-4l-8,-13l-13,2h-1l-9,-5l-7,-11l-8,-8v-17l-3,-11l-6,-5l3,-11l-1,-8v-4l-1,-3l8,-3l3,2v8h-1l2,12l9,2l10,11l4,2l6,-1l-10,-6l-3,-15l-7,-12l-5,-1v-11l-5,-1v-5l5,-4l5,-5l8,4l5,-2l12,-1l11,4h7l3,-7l5,-1h1l2,2l-1,1v4l2,-7l-1,-1l1,1h-9v4l-7,3l4,-5l4,-10l-3,6l-6,5l-5,-1h-10l-2,-7h-7l2,2l-6,8l-8,-3l-3,-9l-1,-1h-1l1,1l3,8l-12,-9l-2,4l-6,-1v-1l-1,-1h-1v-1h-1l4,5v14l1,7l-3,2l3,5h-1v1v-1v1h-2l-1,-1v1h-1l-9,-9h-6l-7,-10l-8,-4l-7,4l5,-11l1,-7l4,3l-8,-15l-5,-2l1,-5l-4,-8l-11,-8l-8,-9l-3,-6l-9,-11l-7,-6l-8,-12l4,-7l-2,-12h-1l-3,-16l-3,-5l1,-9l4,-9l-1,-17l-2,-2l-1,-12l-13,-18l-4,-3l-2,-7l-5,-2l-13,-14v-12l-3,-6l9,-22l7,-4l3,-10l7,-1l-5,-4l4,-9v-9l-2,-1l-1,-9l3,-1l4,-16l2,-15l-2,-15l-4,-13l-5,-4l3,-9l1,-12h22v1h18v1l1,-1h11l1,1h30l2,1h20l4,1h26ZM466,882l6,1l13,6l6,10l-13,-1l-3,-10l-6,-1ZM467,927l12,14l7,5l-5,4l-6,-5l-7,-12ZM388,902l9,6l-10,-1ZM358,823l13,2l5,4l7,-3l7,1l-2,4l-10,1l-4,3l-12,-1ZM345,827l1,4l6,1l-3,5l-9,4l-4,-2l-6,-8Z"/>
<g class="geos"><path data-name="Sierra" class="geo-091" d="M343,261l11,-1v28h-39l-5,-8v-1v1v-1h-7l-6,8l-9,1l-4,2l-9,3v-16l2,-9l6,-5v-6l6,-2l5,6l4,-1l5,4l2,-3Z"/><path data-name="Sacramento" class="geo-067" d="M265,360l2,-1l7,21l-1,21l-9,4l-10,1l-5,1h-5l-3,-2l-7,5l-1,4l-1,2l-2,3l1,1h-9v4l-7,3l4,-5l4,-10l5,-3l1,-10l6,-5l-1,-7l2,-4l-4,-3l4,-10h-3l-6,-8l2,-6h3l7,1l7,1h6Z"/><path data-name="Santa Barbara" class="geo-083" d="M298,733l4,1l8,-3l9,3l8,7l-3,-12l12,-1v-2l7,-6l10,5h4l1,1l3,1l10,7h8l9,8h9v42l-1,3v1l-1,1l-2,5l-7,-5l-25,1l-12,-6l-23,-1l-13,2l-4,-7l-12,-5l4,-12l-2,-8l2,-10l-4,-2ZM358,823l13,2l5,4l7,-3l7,1l-2,4l-10,1l-4,3l-12,-1ZM345,827l1,4l6,1l-3,5l-9,4l-4,-2l-6,-8Z"/><path data-name="Calaveras" class="geo-009" d="M344,382l4,-1v6l4,2l-12,4l-16,24l-7,14l-5,1l1,4l-12,12v1v-1l-20,-25l-6,-14h9l3,-4l13,-5l6,-8l13,-7h11l6,-3Z"/><path data-name="Ventura" class="geo-111" d="M393,794l2,-5l1,-1v-1l1,-3v-42l16,3v5h22l7,2l12,29l8,18v8h-2v4l-3,3h-7l-3,3l-3,2l-7,4v3l-7,-4l-7,-1l-9,-4l-4,-12ZM388,902l9,6l-10,-1Z"/><path data-name="Los Angeles" class="geo-037" d="M457,814l3,-3v-4h2v-8l-8,-18l-12,-29l2,-3h44l10,-1h43v15l2,27l1,13l-3,10l-1,5v2l-1,1l-3,7h-1l-2,7l-15,1l-5,7l-3,2v3l-2,4l-2,4l-1,-2l-6,3l-3,-3h-1l-3,5l-4,-1l-8,-4l3,-9l-6,-12l-4,-5l-20,-1l-5,3l-3,-3l-8,-1v-3l7,-4l3,-2l3,-3ZM466,882l6,1l13,6l6,10l-13,-1l-3,-10l-6,-1ZM467,927l12,14l7,5l-5,4l-6,-5l-7,-12Z"/><path data-name="Sonoma" class="geo-097" d="M119,397l-5,-2l1,-5l-4,-8l-11,-8l-8,-9l-3,-6l-9,-11h13v-3h18v-3h25l1,2v-1l4,6l9,12l-2,7l3,4l15,22v7l3,3l-1,8h-3l-2,4l-6,-1v-1l-1,-1h-1v-1h-1l-1,-3l-9,-1l-6,-2l-12,-12l-2,1Z"/><path data-name="Kings" class="geo-031" d="M374,589h5l7,-6h4v8h4v14h-5v21l-1,26h-54l-2,-9l-6,-2l11,-12l10,-7l8,-9v-22h17Z"/><path data-name="San Diego" class="geo-073" d="M549,891l2,-7l6,-2v-4h12l-1,2l10,3h1v2h35l20,-1h27l14,-1l2,35l-2,3l1,33v10l-32,4l-4,1l-22,2l-1,1l-8,1h-4l-6,1l-8,1l-1,-5l2,-1l-1,-9l-1,-1h-2v-1h-1v-1l-6,-1l2,-7l-6,-2l1,-4h1v-2l-2,-14l-10,-19l-15,-17h-3Z"/><path data-name="Placer" class="geo-061" d="M286,314h1l5,-5l4,-4l5,-4l10,-1h40v1h2v25h-11l-1,3l-22,1v4l-7,6l-10,-4l-8,-5l-7,4l-13,4h-1v1l-1,5l-7,15l-13,-2h-6l-7,-1l2,-19h4v-7l6,-4l4,1l3,1l9,-1l5,3l3,-3l7,-13Z"/><path data-name="San Francisco" class="geo-075" d="M166,457h-10v-4l-1,-3l8,-3l3,2Z"/><path data-name="Marin" class="geo-041" d="M119,397l5,-2l2,-1l12,12l6,2l9,1l1,3l4,5v14l1,7l-3,2l3,5h-1v1v-1v1h-2l-1,-1v1h-1l-9,-9h-6l-7,-10l-8,-4l-7,4l5,-11l1,-7l4,3Z"/><path data-name="Mariposa" class="geo-043" d="M323,469v-5l5,3l-1,-7l-1,-1l6,-2l8,-5l4,1l5,-3l8,5h15l8,-4v-3l10,-6l14,8l3,4l-11,13l-8,6l-2,10l-6,3v4h-9l-5,5l-17,18l-11,-8l-7,-20Z"/><path data-name="Lassen" class="geo-035" d="M256,113l13,1h42l2,1h43v2l-1,20v105l-1,8v10l-11,1l3,-5v-18l-6,-7l-4,-10h-7l-6,-3l-7,-11l-10,-6l-9,-1l-13,13l-9,-7v-19h-21l1,-6v-40Z"/><path data-name="Napa" class="geo-055" d="M168,342l9,3l4,14l5,5l4,13l-2,10l1,2l4,8h-12v15h1l-8,1v-1h-1h1h-9h3l1,-8l-3,-3v-7l-15,-22l-3,-4l2,-7l12,-3l8,-10Z"/><path data-name="Shasta" class="geo-089" d="M159,136l1,-5l6,-3l1,-7l4,-1l1,-6l-4,-3l20,1h27l1,1h40l-1,28v40l-1,6l-13,-1l-6,2l-5,-2h-11l-7,2h-15l-4,2l-3,2h-31l-5,4l-10,-4l-5,2l-4,2h-1l-12,3l2,-7l4,-7l9,-4l7,-4l1,-4l7,-2l-3,-11l5,-14l5,-5Z"/><path data-name="Monterey" class="geo-053" d="M209,544l5,-6l8,2l1,5l11,8l1,2l1,1v2l-1,2v1l1,1h2l2,2l5,2l4,10l-1,2v2l6,3l14,14l3,7l3,-2h9l2,3l7,6l3,-3l-1,-7l3,3l4,4l-3,6l2,7l11,7l5,6h7l3,7l6,2l2,9h-33v-1h-39l-19,-1l-9,-8l-2,-10l-7,-5l-4,-9l-10,-11l-6,-2l-6,-13l-2,-11v-9l-3,-2l3,-4l6,2l3,-3l4,-17l-1,-4Z"/><path data-name="Trinity" class="geo-105" d="M100,109l9,4l3,7h10l8,6l7,3v-6l-4,-2v-11l13,-2l6,-6l6,-2l5,-7l5,2v16l4,3l-1,6l-4,1l-1,7l-6,3l-1,5v5l-5,5l-5,14l3,11l-7,2l-1,4l-7,4l-9,4l-4,7l-2,7l6,3v9l3,19l-7,-1h-24l-15,-1v-3l1,-41l2,-19v-20l-5,-12l6,-1l4,3l5,-6v-8l-2,-1Z"/><path data-name="Mendocino" class="geo-045" d="M48,223l37,2v3l15,1h24l7,1l-2,7l1,11l3,9v13l-1,5l-13,2l1,17l2,9l-5,6l-2,10l3,3l6,5v6l4,4l8,5h-25v3h-18v3h-13l-7,-6l-8,-12l4,-7l-2,-12h-1l-3,-16l-3,-5l1,-9l4,-9l-1,-17l-2,-2l-1,-12Z"/><path data-name="Inyo" class="geo-027" d="M483,557l-1,-6v-11l-6,-15l-11,-6l-6,-1l-4,-18l-6,-2v-12h48l3,-1h24l25,23l12,10l2,2l5,5l10,8l18,17l23,20l20,18l5,4l16,15l5,5l2,1l15,13l5,5l15,14l-11,2h-24v1h-35v1h-37l-1,1h-51l-31,2l2,-14l-3,-3l-3,-21l-4,-4l-2,-9l2,-5l-4,-3l1,-5h-6l-3,-11l-4,-2v-5l-5,-8Z"/><path data-name="Mono" class="geo-051" d="M382,399l1,-6l5,-1v-14l-4,-5l2,-12l2,3h1l1,1l3,3l25,23h1l9,8l8,7l11,10l8,7l12,11l8,7l1,1l3,2l8,7l25,23l11,10l1,1h-24l-3,1h-48l-13,-11l-6,-2l-3,-9l-4,-5l-13,-1l6,-6v-9l-9,-6v-9l-2,-4l-12,-7l-5,1l-6,-6Z"/><path data-name="Tuolumne" class="geo-109" d="M324,417l16,-24l12,-4l10,7l7,-4l8,-1v5l5,3v13l6,6l5,-1l12,7l2,4v9l9,6v9l-6,6l-3,-4l-3,-4l-14,-8l-10,6v3l-8,4h-15l-8,-5l-5,3l-4,-1l-8,5l-6,2l1,1l1,7l-5,-3v5l-20,-20h-2v-1l12,-12l-1,-4l5,-1Z"/><path data-name="Solano" class="geo-095" d="M189,389l-1,-2l2,-10l8,3l4,-4l20,1l-1,21l8,1l-1,10l-5,3l-3,6l-6,5l-5,-1h-10l-2,-7h-7l2,2l-6,8l-8,-3l-3,-9h-1l8,-1h-1v-15h12ZM165,412h9v1l3,8Z"/><path data-name="San Bernardino" class="geo-071" d="M541,748h3v-55l-1,-2v-41h51l1,-1h37v-1h35v-1h24l11,-2h1l20,19l15,13l11,10l2,2l12,11l2,1l4,4l5,4l14,13v5h1v1l-1,1v1l1,1v1h-1v3h1v1h1v1h1l1,1l1,1v1l1,1v1l1,1v2h2v1h1l1,1v1h1l1,1l1,1h1v2h1v4h1v2l1,1l1,1v1h-1l2,1v2h1v1l2,3v1l1,1l-1,1v4l1,1h4v1l1,1h1l1,1v1h2v1h2l1,1v1h3v1h1l1,1h1v3h1l1,1v3l1,1v1h-3v2l-2,1v1l-1,1h-1v2h-2v1h-1l-1,1l-1,-1v1h-1v1h-1v1l-1,1h-1v1h-2v1l-2,1h-2v1h-1l-1,1v1l-1,1l-30,1l-1,1l-38,1l-3,4l-10,1h-25v1h-23v1h-23l-1,1h-37l-13,1v3h-17l-20,-1l-1,-1h-14v2l-4,9l-4,1l-2,4l-9,-7l2,-7h1l3,-7l1,-1v-2l1,-5l3,-10l-1,-13l-2,-27Z"/><path data-name="Contra Costa" class="geo-013" d="M173,438h-2l-5,-1v-5l5,-4l5,-5l8,4l5,-2l12,-1l11,4h7l3,-7l5,-1h1l2,2l-1,1v4l2,7v15h-2l-23,6l-8,2l-2,-5v-1l-11,-2l-5,-4l-4,-6Z"/><path data-name="Alpine" class="geo-003" d="M348,362l10,-8l5,-8l-1,-7v1l9,8l8,7l7,6l-2,12l4,5v14l-5,1l-1,6l-5,-3v-5l-8,1l-7,4l-10,-7l-4,-2v-6Z"/><path data-name="El Dorado" class="geo-017" d="M267,359l-2,1l7,-15l1,-5v-1h1l13,-4l7,-4l8,5l10,4l7,-6v-4l22,-1l1,-3h11l1,7l4,2v1l2,1l2,2l1,7l-5,8l-10,8h-3l-3,7l-6,1l-6,7l-17,4h-10l-6,-5l-6,-1l-8,4h-3l-4,1h-2l-7,-21Z"/><path data-name="Yolo" class="geo-113" d="M168,342v-6h30l14,1l2,1v5l6,1l3,7l2,3l4,2l-2,6l6,8h3l-4,10l4,3l-2,4l1,7l-6,5l-8,-1l1,-21l-20,-1l-4,4l-8,-3l-4,-13l-5,-5l-4,-14Z"/><path data-name="Yuba" class="geo-115" d="M229,303v-2l16,-4l4,-3l5,-15h12l6,-7l5,-4l-2,9v16l-4,-1l-14,11l-2,6v19l-4,-1l-6,4l-11,3l-2,4v-16l-4,-14Z"/><path data-name="San Benito" class="geo-069" d="M222,540h5l2,-2l4,-6l7,2h16l-1,5l7,9l17,9l10,10l16,16l-1,16h-5l-2,5l-3,-3l1,7l-3,3l-7,-6l-2,-3h-9l-3,2l-3,-7l-14,-14l-6,-3v-2l1,-2l-4,-10l-5,-2l-2,-2h-2l-1,-1v-1l1,-2v-2l-1,-1l-1,-2l-11,-8Z"/><path data-name="Humboldt" class="geo-023" d="M52,78l20,1l2,8l8,1l14,1l1,13l3,7l-4,11l2,1v8l-5,6l-4,-3l-6,1l5,12v20l-2,19l-1,41l-37,-2l-4,-3l-2,-7l-5,-2l-13,-14v-12l-3,-6l9,-22l7,-4l3,-10l7,-1l-5,-4l4,-9v-9l-2,-1l-1,-9l3,-1l4,-16Z"/><path data-name="Riverside" class="geo-065" d="M542,842l2,-4l4,-1l4,-9v-2h14l1,1l20,1h17v-3l13,-1h37l1,-1h23v-1h23v-1h25l10,-1l3,-4l38,-1l1,-1l30,-1v3h1v2l-1,1h-1v2l-1,1h-1v1l-1,1v1h-2v2h-1v1l2,1l1,1v1h-2h1v1l1,1v2h-2v2h1v3l1,1v7h1v1l1,2h-1l-1,1l-1,2l1,2h-1l1,1v3l-1,1v2l1,1v2h-1l-1,1l-1,1v1l-1,1l-1,1v1l-1,1v1h-1v1l-1,1v2l-35,2h-21l-22,2h-23l-20,1l-14,1h-27l-20,1h-35v-2h-1l-10,-3l1,-2h-12l4,-8v-1l3,-5l-5,-6h-5l-12,-16Z"/><path data-name="Kern" class="geo-029" d="M358,687h-6l-2,-4l-5,-4v-10h-9v-17h176l31,-2v41l1,2v55h-46l-10,1h-44l-2,3l-7,-2h-22v-5l-16,-3h-3v-19l-7,-1l1,-9l-10,1v-9l-12,-1v-8h-5v-9Z"/><path data-name="Colusa" class="geo-011" d="M209,292l-2,7l-3,5l1,11l4,8h3v14l-14,-1h-25l-6,-3v-7l-4,-2l-1,-4v-2l1,-3v-1l-5,-6l-8,-2l-9,-8l3,-8h26l16,1l4,-3h10l1,4Z"/><path data-name="Del Norte" class="geo-015" d="M53,25h14v1h18v1l1,-1h10l-3,10l-6,2l-2,3l-2,5v12l-4,8l3,6l4,8l-4,8l-8,-1l-2,-8l-20,-1l-2,-15l-4,-13l-5,-4l3,-9l1,-12Z"/><path data-name="Modoc" class="geo-049" d="M350,34h7l-1,9v72h-43l-2,-1h-42l-13,-1h-9l1,-11v-65l1,-5h6l1,1h31l3,1h59Z"/><path data-name="Fresno" class="geo-019" d="M376,532v-1l8,-6l4,1v-9l9,-2l4,2l4,-5v-9l2,-7l11,-9l12,-14l6,2l13,11v12l6,2l4,18l6,1l11,6l6,15v11l1,6l-16,1h-34v8h-25v8h-13l-9,9l-7,6h-5l-2,2h-17v22l-8,9l-10,7l-11,12l-3,-7h-7l-5,-6l-11,-7l-2,-7l3,-6l-4,-4l2,-5h5l1,-16l-16,-16l-10,-10l21,-21h6v-6l4,-3v1l5,9l4,11l9,6h9l5,-4l6,-1l10,-1l4,-2l5,1l8,-15Z"/><path data-name="Madera" class="geo-039" d="M349,513l17,-18l5,-5h9v-4l6,-3l2,-10l8,-6l11,-13l3,4l13,1l4,5l3,9l-12,14l-11,9l-2,7v9l-4,5l-4,-2l-9,2v9l-4,-1l-8,6v1h-1l-8,15l-5,-1l-4,2l-10,1l-6,1l-5,4h-9l-9,-6l-4,-11l-5,-9v-1l4,-5l12,-3l3,-3l15,-1Z"/><path data-name="Santa Clara" class="geo-085" d="M183,500l-3,-4v-8l3,-5h1l2,-1l4,2l6,-1h5l4,-1l1,-1l30,1v6l5,3v1v-1v1l-1,8l-3,2l6,13l2,-4l4,2h1l4,2l1,2l2,7l-3,8l2,2h-16l-7,-2l-4,6l-2,2l-6,-4l-6,-8l-2,-3l-4,-3l-1,-2l-2,-1h-1l-3,-1l-6,-3v-1v1v-1l-10,-8Z"/><path data-name="Tehama" class="geo-103" d="M190,192l3,-2l4,-2h15l7,-2h11l5,2l6,-2l2,10l10,3l-2,11l-6,2v4l-4,4h-7l-5,13l-4,-1l-4,8l-22,1l-1,9l-15,-1h-25l-1,-1h-27l-1,-11l2,-7l-3,-19v-9l-6,-3l12,-3h1l4,-2l5,-2l10,4l5,-4Z"/><path data-name="San Joaquin" class="geo-077" d="M273,401l2,8l6,14l-1,1v33l-5,-2h-2h1l-3,1l-4,1l-4,1l-27,24l-1,-5l-5,-2l1,-20v-21l-2,-7l2,-7v-1h-1l2,-3l1,-2l1,-4l7,-5l3,2h5l5,-1l10,-1Z"/><path data-name="Alameda" class="geo-001" d="M171,438h2l3,1l4,6l5,4l11,2v1l2,5l8,-2l23,-6h2v6l-1,20l5,2l1,5l-30,-1l-1,1l-4,1h-5l-10,-6l-3,-15l-7,-12l-5,-1Z"/><path data-name="Nevada" class="geo-057" d="M309,279h1v1v-1v1l5,8h39l-1,7v6h-2v-1h-40l-10,1l-5,4l-4,4l-5,5h-1l-4,1l-7,13l-3,3l-5,-3l-9,1l-3,-1v-19l2,-6l14,-11l4,1l9,-3l4,-2l9,-1l6,-8Z"/><path data-name="Butte" class="geo-007" d="M202,277v-15l2,-5l-6,-7l1,-9l22,-1l4,-8l4,1l5,-13h7l4,-4h3l3,8l-3,2l-3,15l5,4l6,10l16,17l-6,7h-12l-5,15l-4,3l-16,4l-1,-2h-21l2,-7l3,-15Z"/><path data-name="Merced" class="geo-047" d="M323,469l8,16l7,20l11,8l-5,2l-15,1l-3,3l-12,3l-4,5l-4,3v6h-6l-21,21l-17,-9l-7,-9l1,-5l-2,-2l3,-8l-2,-7l20,-20v-7l16,-6l10,-6Z"/><path data-name="Tulare" class="geo-107" d="M448,652h-60l1,-26v-21h5v-14h-4v-8h-4l9,-9h13v-8h25v-8h34l16,-1v5l5,8v5l4,2l3,11h6l-1,5l4,3l-2,5l2,9l4,4l3,21l3,3l-2,14Z"/><path data-name="Stanislaus" class="geo-099" d="M281,423l20,25v1h2l20,20l-22,9l-10,6l-16,6v7l-20,20l-1,-2l-4,-2h-1l-4,-2l-2,4l-6,-13l3,-2l1,-8v-1v1v-1l-5,-3v-6l27,-24l4,-1l4,-1l3,-1h-1h2l5,2v-33Z"/><path data-name="Orange" class="geo-059" d="M506,856l2,-4l2,-4v-3l3,-2l5,-7l15,-1l9,7l12,16h5l5,6l-3,5v1l-4,8v4l-6,2l-2,7v-2l-11,-8l-4,-5l-9,-7l-3,-1l-9,-6Z"/><path data-name="Imperial" class="geo-025" d="M727,957h-1l-6,1l-20,3l-24,3v-10l-1,-33l2,-3l-2,-35l20,-1h23l22,-2h21l35,-2h-1v1h-1v1v-1h-3v1h-3v1l1,1l1,1v1l1,1v2l-1,3h-1l-1,1l1,2l2,1l2,1v1l-1,1l1,1v8l-1,1v1l-1,4v1l2,1l1,2h1v1l2,-1l1,1l1,1h2l1,-1h3l3,2l1,1v3h3l-1,3v2h1v1h1v7h-1l-1,1h-1l-1,1l-1,1v5l-1,1h-3v2h-4v1h-2l-1,-1h-3v-1h-1v2h-1v1h-1l-9,2l-10,1h-3l-15,2l-11,1l-9,1Z"/><path data-name="Sutter" class="geo-101" d="M207,299h21l1,2v2l-1,5l4,14v16l2,-4l11,-3v7h-4l-2,19l-7,-1h-3l-4,-2l-2,-3l-3,-7l-6,-1v-5l-2,-1v-14h-3l-4,-8l-1,-11Z"/><path data-name="Amador" class="geo-005" d="M274,380h2l4,-1h3l8,-4l6,1l6,5h10l17,-4l6,-7l6,-1l3,-7h3v19l-4,1h-8l-6,3h-11l-13,7l-6,8l-13,5l-3,4h-9l-2,-8Z"/><path data-name="Lake" class="geo-033" d="M133,270h12l-1,20l-3,8l9,8l8,2l5,6v1l-1,3v2l1,4l4,2v7l6,3h-5v6l2,6l-8,10l-12,3l-9,-12l-4,-6v1l-1,-2l-8,-5l-4,-4v-6l-6,-5l-3,-3l2,-10l5,-6l-2,-9l-1,-17l13,-2Z"/><path data-name="Plumas" class="geo-063" d="M245,216v-4l6,-2l2,-11l-10,-3l-2,-10l13,1h21v19l9,7l13,-13l9,1l10,6l7,11l6,3h7l4,10l6,7v18l-3,5h-38l-2,3l-5,-4l-4,1l-5,-6l-6,2v6l-6,5l-5,4l-16,-17l-6,-10l-5,-4l3,-15l3,-2l-3,-8Z"/><path data-name="San Mateo" class="geo-081" d="M156,457h9l2,12l9,2l10,11l-2,1h-1l-3,5v8l3,4l-1,7h-7l-6,2l2,8l-8,-8v-17l-3,-11l-6,-5l3,-11Z"/><path data-name="Siskiyou" class="geo-093" d="M150,28l4,1h26l14,1h14l2,1h21l1,1h17l-1,5v65l-1,11h-31l-1,-1h-27l-20,-1v-16l-5,-2l-5,7l-6,2l-6,6l-13,2v11l4,2v6l-7,-3l-8,-6h-10l-3,-7l-9,-4l-3,-7l-1,-13l-14,-1l4,-8l-4,-8l-3,-6l4,-8v-12l2,-5l2,-3l6,-2l3,-10h1l1,1h30l2,1h19Z"/><path data-name="Santa Cruz" class="geo-087" d="M183,500l3,6l10,8v1v-1v1l6,3l3,1h1l2,1l1,2l4,3l2,3l6,8l6,4h-5l-8,-2l-5,6l-8,-13l-13,2h-1l-9,-5l-7,-11l-2,-8l6,-2h7Z"/><path data-name="Glenn" class="geo-021" d="M130,248h27l1,1h25l15,1l6,7l-2,5v15h10l-3,15h-8l-1,-4h-10l-4,3l-16,-1h-26l1,-20h-12v-13Z"/><path data-name="San Luis Obispo" class="geo-079" d="M334,652h2v17h9v10l5,4l2,4h9v9h5v8l12,1v9l10,-1l-1,9l7,1v19h-6l-9,-8h-8l-10,-7l-3,-1l-1,-1h-4l-10,-5l-7,6v2l-12,1l3,12l-8,-7l-9,-3l-8,3l-4,-1l2,-13l-6,-7l-6,1l-10,-10l5,-9l-4,-10l-9,-1l-8,-9l-4,-9l-8,-2l-5,-5l-2,-9l19,1h39v1Z"/></g>
  <path class="counties-mesh" d="M150,361l-2,7l3,4l15,22v7l3,3l-1,8h-3M298,733l4,1l8,-3l9,3l8,7l-3,-12l12,-1v-2l7,-6l10,5h4l1,1l3,1l10,7h8l9,8h6v-19l-7,-1l1,-9l-10,1v-9l-12,-1v-8h-5v-9h-9l-2,-4l-5,-4v-10h-9v-17h-35v-1h-39l-19,-1M442,752l12,29l8,18v8h-2v4l-3,3h-7l-3,3l-3,2l-7,4v3M394,742h3l16,3v5h22l7,2l2,-3h44l10,-1h43v15l2,27l1,13l-3,10l-1,5v2l-1,1l-3,7h-1l-2,7l-15,1l-5,7l-3,2v3l-2,4l-2,4M275,293v-16l2,-9l6,-5v-6l6,-2l5,6l4,-1l5,4l2,-3h38l11,-1M245,331l6,-4l4,1l3,1l9,-1l5,3l3,-3l7,-13l4,-1h1l5,-5l4,-4l5,-4l10,-1h40v1h2M273,401l-9,4l-10,1l-5,1h-5l-3,-2l-7,5l-1,4l-1,2l-2,3M483,557l-1,-6v-11l-6,-15l-11,-6l-6,-1l-4,-18l-6,-2v-12l-13,-11l-6,-2l-3,-9l-4,-5l-13,-1l6,-6v-9l-9,-6v-9l-2,-4l-12,-7l-5,1l-6,-6v-13l1,-6l5,-1v-14l-4,-5l2,-12M397,742v42l-1,3v1l-1,1l-2,5M154,412l-1,-3l-9,-1l-6,-2l-12,-12l-2,1l-5,2M279,557l10,10l16,16l-1,16h-5l-2,5l4,4l-3,6l2,7l11,7l5,6h7l3,7l11,-12l10,-7l8,-9v-22h17l2,-2h5l7,-6M310,527l4,-5l12,-3l3,-3l15,-1l5,-2l-11,-8l-7,-20l-8,-16l-20,-20h-2M541,748h3v-55l-1,-2v-41l-31,2l2,-14l-3,-3l-3,-21l-4,-4l-2,-9l2,-5l-4,-3l1,-5h-6l-3,-11l-4,-2v-5l-5,-8v-5l-16,1h-34v8h-25v8h-13l-9,9h4v8h4v14h-5v21l-1,26h-52M557,878h12l-1,2l10,3h1v2h35l20,-1h27l14,-1l2,35l-2,3l1,33v10M353,326h-11l-1,3l-22,1v4l-7,6l-10,-4l-8,-5l-7,4l-13,4h-1v1l-1,5l-7,15l2,-1l7,21l-1,21l2,8M223,412l5,-3l1,-10l6,-5l-1,-7l2,-4l-4,-3l4,-10h-3l-6,-8l2,-6h3l7,1l7,1h6l13,2M165,457h-9M236,482v6l5,3v1l-1,8l-3,2l6,13l2,-4l4,2h1l4,2l1,2l20,-20v-7l16,-6l10,-6l22,-9v-5l5,3l-1,-7l-1,-1l6,-2l8,-5l4,1l5,-3l8,5h15l8,-4v-3l10,-6l14,8l3,4l-11,13l-8,6l-2,10l-6,3v4h-9l-5,5l-17,18M343,261l3,-5v-18l-6,-7l-4,-10h-7l-6,-3l-7,-11l-10,-6l-9,-1l-13,13l-9,-7v-19h-21l1,-6v-40l1,-28l13,1h42l2,1h43M122,199l6,3v9l3,19l-2,7l1,11l3,9v13l-1,5l-13,2l1,17l2,9l-5,6l-2,10l3,3l6,5v6l4,4l8,5l1,2v-1l4,6l9,12l12,-3l8,-10l-2,-6l9,3l4,14l5,5l4,13l-2,10l1,2l4,8h-12v15h1l-8,1M254,187l-13,-1l-6,2l-5,-2h-11l-7,2h-15l-4,2l-3,2h-31l-5,4l-10,-4l-5,2l-4,2h-1l-12,3l2,-7l4,-7l9,-4l7,-4l1,-4l7,-2l-3,-11l5,-14l5,-5v-5l1,-5l6,-3l1,-7l4,-1l1,-6l-4,-3l20,1h27l1,1h40M96,26l-3,10l-6,2l-2,3l-2,5v12l-4,8l3,6l4,8l-4,8l14,1l1,13l3,7l9,4l3,7h10l8,6l7,3v-6l-4,-2v-11l13,-2l6,-6l6,-2l5,-7l5,2v16M196,483h5l4,-1l1,-1l30,1l-1,-5l-5,-2l1,-20v-6h-2l-23,6l-8,2l-2,-5v-1l-11,-2l-5,-4l-4,-6l-3,-1h-2M227,540l-6,-4l-6,-8l-2,-3l-4,-3l-1,-2l-2,-1h-1l-3,-1l-6,-3v-1l-10,-8l-3,-6l-3,-4v-8l3,-5h1l2,-1M131,230l-7,-1h-24l-15,-1v-3l1,-41l2,-19v-20l-5,-12l6,-1l4,3l5,-6v-8l-2,-1l4,-11M48,223l37,2M449,486h48l3,-1h24M702,645l-11,2h-24v1h-35v1h-37l-1,1h-51M352,389l10,7l7,-4l8,-1v5l5,3M410,458l-3,-4M190,377l8,3l4,-4l20,1l-1,21l8,1M808,813l-30,1l-1,1l-38,1l-3,4l-10,1h-25v1h-23v1h-23l-1,1h-37l-13,1v3h-17l-20,-1l-1,-1h-14v2l-4,9l-4,1l-2,4l-9,-7M229,427l2,7v15M348,381v-19l10,-8l5,-8l-1,-7M348,362h-3l-3,7l-6,1l-6,7l-17,4h-10l-6,-5l-6,-1l-8,4h-3l-4,1h-2M168,342v-6h30l14,1l2,1v5l6,1l3,7l2,3l4,2M52,78l20,1l2,8l8,1M388,652h124M239,357l2,-19h4v-7l-11,3l-2,4v-16l-4,-14l1,-5v-2l-1,-2h-21l-3,5l1,11l4,8h3v14M354,288h-39l-5,-8v-1v1v-1h-7l-6,8l-9,1l-4,2l-9,3l-4,-1l-14,11l-2,6v19M173,336l-6,-3v-7l-4,-2l-1,-4v-2l1,-3v-1l-5,-6l-8,-2l-9,-8l3,-8h26l16,1l4,-3h10l1,4h8l-2,7M247,113l1,-11v-65l1,-5M255,517l2,7l-3,8l2,2l-1,5l7,9l17,9l21,-21h6v-6l4,-3v1l5,9l4,11l9,6h9l5,-4l6,-1l10,-1l4,-2l5,1l8,-15h1v-1l8,-6l4,1v-9l9,-2l4,2l4,-5v-9l2,-7l11,-9l12,-14M229,301l16,-4l4,-3l5,-15h12l6,-7l5,-4M222,540h5l2,-2l4,-6l7,2h16M241,186l2,10l10,3l-2,11l-6,2v4l-4,4h-7l-5,13l-4,-1l-4,8l-22,1l-1,9M281,423l-1,1v33l-5,-2h-2h1l-3,1l-4,1l-4,1l-27,24M334,652l-2,-9l-6,-2M209,292l3,-15h-10v-15l2,-5l-6,-7l-15,-1h-25l-1,-1h-27M245,216h3l3,8l-3,2l-3,15l5,4l6,10l16,17M133,270h12l-1,20M183,500l-1,7h-7l-6,2l2,8M209,544l5,-6l8,2l1,5l11,8l1,2l1,1v2l-1,2v1l1,1h2l2,2l5,2l4,10l-1,2v2l6,3l14,14l3,7l3,-2h9l2,3l7,6l3,-3l-1,-7l3,3M796,878l-35,2h-21l-22,2h-23l-20,1M80,348h13v-3h18v-3h25M549,891l2,-7l6,-2v-4l4,-8v-1l3,-5l-5,-6h-5l-12,-16M301,448l-20,-25l-6,-14h9l3,-4l13,-5l6,-8l13,-7h11l6,-3h8l4,-1v6l4,2l-12,4l-16,24l-7,14l-5,1l1,4l-12,12v1M174,412h-9"/>
<g class="districts"><path data-name="Congressional District 1" class="district-0601" d="M83,46l2,-5l2,-3l6,-2l3,-10h1l1,1h30l2,1h20l4,1h26l14,1h14l2,1h21l1,1h23l1,1h31l3,1h67l-1,9v74l-1,20v105l-1,8v38l-1,7v6h-2l-2,-6l-4,1l-2,-1h-8l-4,4l-1,1h-19l3,2l-2,3v1h-1v4l-20,5l-3,5h-5l1,8l-10,11h-1v1l-2,-1v-1v1h-1v1l-7,-1h-4l-5,-1l-3,-11l4,1v-19l2,-6l14,-11l4,1v-16l2,-9l-5,4l-6,7h-12l-5,15l-4,3l-16,4l-1,-2h-21l2,-7h-8l-1,-4h-10l-4,3v-20l3,-6l-2,-7l17,-1l-6,-7l-15,-1h-25l-1,-1h-27l-1,-11l2,-7l-3,-19v-9l-6,-3l2,-7l4,-7l9,-4l7,-4l1,-4l7,-2l-3,-11l5,-14l5,-5v-5l1,-5l6,-3l1,-7l4,-1l1,-6l-4,-3v-16l-5,-2l-5,7l-6,2l-6,6l-13,2v11l4,2v6l-7,-3l-8,-6h-10l-3,-7l-9,-4l-3,-7l-1,-13l-14,-1l4,-8l-4,-8l-3,-6l4,-8Z"/><path data-name="Congressional District 2" class="district-0602" d="M53,25h14v1h18v1l1,-1h10l-3,10l-6,2l-2,3l-2,5v12l-4,8l3,6l4,8l-4,8l14,1l1,13l3,7l9,4l3,7h10l8,6l7,3v-6l-4,-2v-11l13,-2l6,-6l6,-2l5,-7l5,2v16l4,3l-1,6l-4,1l-1,7l-6,3l-1,5v5l-5,5l-5,14l3,11l-7,2l-1,4l-7,4l-9,4l-4,7l-2,7l6,3v9l3,19l-2,7l1,11l3,9v13l-1,5l-13,2l1,17l2,9l-5,6l-2,10l3,3l6,5v6l4,4l8,5l1,2v-1l4,6l9,12l-2,7l3,4l-1,1l-4,2l-1,-2l-1,1l-3,4l-7,-3l-1,4h-1l2,7l6,7v1l3,5l7,2l3,4v2l1,3l1,1h1h-1l-1,1l4,5v14l1,7l-3,2l3,5h-1v1v-1v1h-2l-1,-1v1h-1l-9,-9h-6l-7,-10l-8,-4l-7,4l5,-11l1,-7l4,3l-8,-15l-5,-2l1,-5l-4,-8l-11,-8l-8,-9l-3,-6l-9,-11l-7,-6l-8,-12l4,-7l-2,-12h-1l-3,-16l-3,-5l1,-9l4,-9l-1,-17l-2,-2l-1,-12l-13,-18l-4,-3l-2,-7l-5,-2l-13,-14v-12l-3,-6l9,-22l7,-4l3,-10l7,-1l-5,-4l4,-9v-9l-2,-1l-1,-9l3,-1l4,-16l2,-15l-2,-15l-4,-13l-5,-4l3,-9l1,-12Z"/><path data-name="Congressional District 3" class="district-0603" d="M133,270v-13l-3,-9h27l1,1h25l15,1l6,7l-17,1l2,7l-3,6v20l4,-3h10l1,4h8l-2,7h21l1,2l16,-4l4,-3l5,-15h12l6,-7l5,-4l-2,9v16l-4,-1l-14,11l-2,6v19l-4,-1l-6,4v7h-4l-2,19l7,1h1l-1,1v1l-2,4l-11,-2l-1,-6h-3l-2,6l6,8l-1,2l-2,8h2l4,3v1l5,2l-3,2l3,5h7l2,7l-9,1v4l-7,5l-1,4l-1,2l-2,3l1,1h-9v4l-7,3l4,-5l4,-10l-3,6l-6,5l-5,-1h-10l-2,-7h-8l-1,-1l-4,3v-1l-2,-4h-1v-15h12l-4,-8l-1,-2l2,-10l-4,-13l-5,-5l-4,-14l-9,-3v-6l-1,-1l-4,-5l-5,1l-4,5l-5,-1v-1l-7,-3l-1,-6v1l-2,1l-6,-2h-1v-1v1v-1h-1v1v-1l-1,1l-2,-4l-1,-3l-3,2v2h-6l-3,-3l2,-10l5,-6l-2,-9l-1,-17l13,-2Z"/><path data-name="Congressional District 4" class="district-0604" d="M245,331l6,-4l3,11l5,1h4l7,1v-1h1v-1v1l2,1v-1h1l10,-11l-1,-8h5l3,-5l20,-5v-4h1v-1l2,-3l-3,-2h19l1,-1l4,-4h8l2,1l4,-1l2,6h2v25l1,7l4,2v1l2,1l2,2v1l9,8l8,7l7,6l-2,12l4,5v14l-5,1l-1,6v13l6,6l5,-1l12,7l2,4v9l9,6v9l-6,6l13,1l4,5l3,9l6,2l13,11v12l6,2l4,18l6,1l11,6l6,15v11l1,6l-16,1h-34v8h-8l-1,-6l-6,-4l-4,1l-6,2l-3,-7l-6,1l-7,2l-4,-8l-9,-5l-3,-10v-1v1h-1l-2,1l-4,2l-9,-10l-11,-2l-5,-8l5,-2l-11,-8l-7,-20l-8,-16l-20,-20h-2v-1l-20,-25l-6,-14l-2,-8l1,-21l-7,-21l-2,1l-13,-2h-6l-7,-1l2,-19h4Z"/><path data-name="Congressional District 5" class="district-0605" d="M118,322h6v-2l3,-2l1,3l2,4l1,-1v1v-1h1v1v-1v1h1l6,2l2,-1v-1l1,6l7,3v1l5,1l4,-5l5,-1l4,5l1,1v6l9,3l4,14l5,5l4,13l-2,10l1,2l4,8h-12v15h1l2,4v1l4,-3l1,1h1l2,2l-6,8l-8,-3l-3,-9l-1,-1h-1l1,1l3,8l-12,-9l-2,4l-6,-1v-1l-1,-1h-1v-1h-1l1,-1h1h-1l-1,-1l-1,-3v-2l-3,-4l-7,-2l-3,-5v-1l-6,-7l-2,-7h1l1,-4l7,3l3,-4l1,-1l1,2l4,-2l1,-1l-3,-4l2,-7l-9,-12l-4,-6v1l-1,-2l-8,-5l-4,-4v-6ZM189,425l2,5h-6l-1,1v-1v1l1,1h-5l-10,-3l1,-1l5,-5l8,4Z"/><path data-name="Congressional District 6" class="district-0606" d="M229,356h3l1,6l11,2l2,-4v-1l1,-1h-1h6l-6,12l-1,1l2,9h-6l2,4l-2,2l-5,-2v-1l-4,-3h-2l2,-8l1,-2l-6,-8Z"/><path data-name="Congressional District 7" class="district-0607" d="M241,386l2,-2l-2,-4h6l-2,-9l1,-1l6,-12l13,2l2,-1l7,21l-1,21l-9,4l-10,1l-4,-6l-2,-7h-7l-3,-5Z"/><path data-name="Congressional District 8" class="district-0608" d="M382,399l1,-6l5,-1v-14l-4,-5l2,-12l2,3h1l1,1l3,3l25,23h1l9,8l8,7l11,10l8,7l12,11l8,7l1,1l3,2l8,7l25,23l11,10l1,1l25,23l12,10l2,2l5,5l10,8l18,17l23,20l20,18l5,4l16,15l5,5l2,1l15,13l5,5l15,14h1l20,19l15,13l11,10l2,2l12,11l2,1l4,4l5,4l14,13v5h1v1l-1,1v1l1,1v1h-1v3h1v1h1v1h1l1,1l1,1v1l1,1v1l1,1v2h2v1h1l1,1v1h1l1,1l1,1h1v2h1v4h1v2l1,1l1,1v1h-1l2,1v2h1v1l2,3v1l1,1l-1,1v4l1,1h4v1l1,1h1l1,1v1h2v1h2l1,1v1h3v1h1l1,1h1v3h1l1,1v3l1,1v1h-3v2l-2,1v1l-1,1h-1v2h-2v1h-1l-1,1l-1,-1v1h-1v1h-1v1l-1,1h-1v1h-2v1l-2,1h-2v1h-1l-1,1v1l-1,1l-30,1l-1,1l-38,1l-3,4l-10,1h-25v1h-23v1h-23l-1,1h-37l-13,1v3h-15l-2,-2l-1,-4l6,-1l-4,-1l-11,-1l2,-2h1v-1l-4,-4l-11,-5h-3l-1,5l-16,1h-4l3,-10l-1,-13l-2,-27v-15h3v-55l-1,-2v-41l-31,2l2,-14l-3,-3l-3,-21l-4,-4l-2,-9l2,-5l-4,-3l1,-5h-6l-3,-11l-4,-2v-5l-5,-8v-5l-1,-6v-11l-6,-15l-11,-6l-6,-1l-4,-18l-6,-2v-12l-13,-11l-6,-2l-3,-9l-4,-5l-13,-1l6,-6v-9l-9,-6v-9l-2,-4l-12,-7l-5,1l-6,-6Z"/><path data-name="Congressional District 9" class="district-0609" d="M211,430l1,-2h7l3,-7l5,-1h1l2,2l-1,1v4l2,-7v-1h-1l2,-3l1,-2l1,-4l7,-5v-4l9,-1l4,6l10,-1l9,-4l2,8l6,14l-1,1v33l-5,-2v-3l-14,1l-1,-4l-6,-2l-3,4l-1,1l-9,-1l-4,4h-6v-6h-2l-10,-9v1h-1v-1h-1l-1,-2l-6,-2Z"/><path data-name="Congressional District 10" class="district-0610" d="M231,455h6l4,-4l9,1l1,-1l3,-4l6,2l1,4l14,-1v3l5,2v-33l1,-1l20,25v1h2l20,20l-22,9l-10,6l-16,6v7l-20,20l-1,-2l-4,-2h-1l-4,-2l-2,4l-6,-13l3,-2l1,-8v-1v1v-1l-5,-3v-6l-1,-5l-5,-2Z"/><path data-name="Congressional District 11" class="district-0611" d="M171,428l-1,1l10,3h5l-1,-1v-1v1l1,-1h6l-2,-5l12,-1l11,4l-1,2l-1,6l6,2l1,2h1v1h1v-1l10,9l-23,6v-4h-10v1v-1l-11,-2l-5,-4l-4,-6l-3,-1h-2l-5,-1v-5Z"/><path data-name="Congressional District 12" class="district-0612" d="M166,457h-3l-7,-3v-1l-1,-3l8,-3l3,2Z"/><path data-name="Congressional District 13" class="district-0613" d="M171,438h2l3,1l4,6l5,4v1v-1l-2,-1v1v-1l1,1l5,7v-1v1l-1,1l-2,1v1l-1,1l-2,2l-7,-12l-5,-1Z"/><path data-name="Congressional District 14" class="district-0614" d="M156,454l7,3h2l2,12l9,2l10,11l-2,1l-3,-2l-8,1v1l-1,2l3,4v1h-1l1,1v1h-2l-5,1l-5,3v1v-5l-3,-11l-6,-5l3,-11l-1,-8v-3Z"/><path data-name="Congressional District 15" class="district-0615" d="M183,462l2,-2l1,-1v-1l2,-1l1,-1v-1v1l-5,-7l-1,-1v1v-1l2,1v1v-1l11,2v1v-1h10v4l23,-6h2v6l-1,20l5,2l1,5l-30,-1l-4,-8l-3,-1l-2,1l-1,-1l-5,1l-5,4l-3,-15Z"/><path data-name="Congressional District 16" class="district-0616" d="M257,524l-2,-7l20,-20v-7l16,-6l10,-6l22,-9l8,16l7,20l11,8l-5,2l5,8l11,2l9,10l4,-2l2,-1l-8,15l-5,-1l-4,2l7,5h11l2,9l-20,2v-9l-9,-1l-1,-5l-6,1l-5,4h-9l-9,-6l-4,-11l-5,-9v-1l-4,3v6h-6l-21,21l-17,-9l-7,-9l1,-5l-2,-2Z"/><path data-name="Congressional District 17" class="district-0617" d="M186,477l5,-4l5,-1l1,1l2,-1l3,1l4,8l6,9h-3l-3,3l-6,-2v4l-7,4l-5,-1l1,-3l1,1v-1h-1l1,-2v-1l1,-2l-1,-6l6,-1Z"/><path data-name="Congressional District 18" class="district-0618" d="M163,497v-1l5,-3l5,-1h2v-1l-1,-1h1v-1l-3,-4l1,-2v-1l8,-1l3,2l2,-1l4,2l1,6l-1,2v1l-1,2h1v1l-1,-1l-1,3l5,1l7,-4v1h1v1l1,2l-1,2l4,4l1,1v1h1l3,3l-3,3l-1,5v1l2,1l1,2l-1,1h-1l-1,-1h-2v1l-2,1v-1h-1l-2,2l-2,-3l-3,1v1l-5,6l-1,3h-1l-9,-5l-7,-11l-8,-8Z"/><path data-name="Congressional District 19" class="district-0619" d="M209,490h3l-6,-9l30,1v6l5,3v1v-1v1l-1,8l-3,2l6,13l2,-4l4,2h1l4,2l1,2l2,7l-3,8l2,2h-16l-7,-2h-1v-5l-5,-1l-1,2l2,1l1,9l-2,2l-6,-4l-6,-8l-2,-3l-4,-3l-1,-2l-2,-1v-1l1,-5l3,-3l-3,-3h-1v-1l-1,-1l-4,-4l1,-2l-1,-2v-1h-1v-5l6,2Z"/><path data-name="Congressional District 20" class="district-0620" d="M188,533l1,-3l5,-6v-1l3,-1l2,3l2,-2h1v1l2,-1v-1h2l1,1h1l1,-1l4,3l2,3l6,8l6,4l2,-2l-1,-9l-2,-1l1,-2l5,1v5h1l7,2h16l-1,5l7,9l17,9l10,10l16,16l-1,16h-5l-2,5l4,4l-3,6l2,7l11,7l5,6h7l3,7l6,2l2,9h-33v-1h-39l-19,-1l-9,-8l-2,-10l-7,-5l-4,-9l-10,-11l-6,-2l-6,-13l-2,-11v-9l-3,-2l3,-4l6,2l3,-3l4,-17l-1,-4l-8,-13Z"/><path data-name="Congressional District 21" class="district-0621" d="M310,527v1l5,9l4,11l9,6h9l5,-4l6,-1l1,5l9,1v9l20,-2l6,2l4,-4l7,10v3l-1,1h1l-9,9h4v8h4v14h-5v21h4l4,-3l22,-2l2,1l-2,7l4,5l10,-2l11,17v1l4,2h-20l-3,16l2,19h-15v14l8,1l3,5h9l-3,-9l3,-6l6,1l2,6h8l5,3v8h-5l-4,6v10h-5l-2,7l-3,-11h-11v-9l-9,-1l-2,-8h-5l-25,-16l-2,-6l-17,1l-5,3v1h-6l-2,-4l-5,-4v-10h-9v-17h-2l-2,-9l-6,-2l-3,-7h-7l-5,-6l-11,-7l-2,-7l3,-6l-4,-4l2,-5h5l1,-16l-16,-16l-10,-10l21,-21h6v-6Z"/><path data-name="Congressional District 22" class="district-0622" d="M362,546l5,1l8,-15h1v-1v1l3,10l9,5l4,8l7,-2l6,-1l3,7l6,-2l4,-1l6,4l1,6h-7l-3,4l-1,3v1l-2,7h6v7l6,1l-1,16l4,4l-4,4l-2,9l-2,-1l-22,2l-4,3h-4v-21h5v-14h-4v-8h-4l9,-9h-1l1,-1v-3l-7,-10l-4,4l-6,-2l-2,-9h-11l-7,-5Z"/><path data-name="Congressional District 23" class="district-0623" d="M358,686l5,-3l17,-1l2,6l25,16h5l2,8l9,1v9h11l3,11l2,-7h5v-10l4,-6h5v-8l-5,-3h-8l-2,-6l-6,-1l-3,6l3,9h-9l-3,-5l-8,-1v-14h15l-2,-19l3,-16h20l-4,-2v-1l-11,-17l-10,2l-4,-5l2,-7l2,-9l4,-4l-4,-4l1,-16l-6,-1v-7h-6l2,-7v-1l1,-3l3,-4h15v-8h34l16,-1v5l5,8v5l4,2l3,11h6l-1,5l4,3l-2,5l2,9l4,4l3,21l3,3l-2,14l31,-2v41l1,2v55h-12v6l-9,-1l-21,1l1,7l-2,1l-4,5l-8,-1l-1,-4v-13h-44l-2,3l-7,-2h-22v-5l-16,-3h-3v-19l-7,-1l1,-9l-10,1v-9l-12,-1v-8h-5v-9h-3Z"/><path data-name="Congressional District 24" class="district-0624" d="M243,650l19,1h39v1h35v17h9v10l5,4l2,4h9v9h5v8l12,1v9l10,-1l-1,9l7,1v19h3l16,3v5h22l7,2l12,29l-3,3h-13l-2,5l-10,-2v-12h-29v9h9l-5,8h-3l3,2v1h1l1,1h2l4,4l-3,2l4,2h1l-1,1l-17,-11l-7,-5l-25,1l-12,-6l-23,-1l-13,2l-4,-7l-12,-5l4,-12l-2,-8l2,-10l-4,-2l1,-8l2,-13l-6,-7l-6,1l-10,-10l5,-9l-4,-10l-9,-1l-8,-9l-4,-9l-8,-2l-5,-5ZM358,823l13,2l5,4l7,-3l7,1l-2,4l-10,1l-4,3l-12,-1ZM345,827l1,4l6,1l-3,5l-9,4l-4,-2l-6,-8Z"/><path data-name="Congressional District 25" class="district-0625" d="M488,749v13l1,4l8,1l4,-5l2,-1l-1,-7l21,-1l9,1v-6h9v15l2,27l-2,-3h-19v1v-1v1l-2,-2h-3l-2,-5h-7v2l-8,2v4h-1l-1,1v2h1h-1v-1v2h-10v-6l-6,1l-1,5h-7l-1,4v1l-5,4l-2,1h-4v4h-2l-4,1l-5,2l-4,-4l5,-4l4,-2h2l3,-1h1l-8,-18l-12,-29l2,-3Z"/><path data-name="Congressional District 26" class="district-0626" d="M397,775h29v12l10,2l2,-5h13l3,-3l8,18h-1l-3,1h-2l-4,2l-5,4l4,4l5,-2l4,3l-3,3h-7l-6,5l-7,4v3l-7,-4l-7,-1l-9,-4l-4,-12l1,-1h-1l-4,-2l3,-2l-4,-4h-2l-1,-1h-1v-1l-3,-2h3l5,-8h-9ZM388,902l9,6l-10,-1Z"/><path data-name="Congressional District 27" class="district-0627" d="M496,803l1,-1h1v-11v1h1h-1v-2l1,-1h1v-4l8,-2v-2h7l2,5h3l2,2v-1v1v-1h19l2,3l1,13l-3,10h4l1,5l-1,1l-1,-1h-4v2l-1,1l-2,-2h-2v-2l-1,-2l-8,4l-3,-6l-6,3l-1,-1l-2,4l-1,1l-2,1h-1l-1,2v3h-3l1,1h-4l-1,-1l-1,-1v-16Z"/><path data-name="Congressional District 28" class="district-0628" d="M482,800l-1,-7l1,-5l6,-1v6h10v9h-1l-1,1l5,6v9l-1,-1v-1h-4v6h-8l-5,1l1,-4v-1h2l1,-1v-1v1v-1l1,-1l-3,-2v-5l1,-4l1,-1h-1h3h-1v-1Z"/><path data-name="Congressional District 29" class="district-0629" d="M473,798v-1l1,-4h7l1,7l6,2v1h1h-3h1l-1,1l-1,4v5l-8,1l-3,-4l2,-10l-3,-2Z"/><path data-name="Congressional District 30" class="district-0630" d="M460,807h2v-4h4l2,-1l5,-4l3,2l-2,10l3,4l8,-1l3,2l-1,1v1v-1v1l-1,1h-2v1l-10,-1h-4l-13,-4l3,-3l-4,-3Z"/><path data-name="Congressional District 31" class="district-0631" d="M540,820v-2h4l1,1l1,-1l-1,-5l16,-1l1,-5h3l11,5l4,4v1h-1l-2,2l11,1l4,1l-6,1l1,4l2,2h-2l-20,-1l2,-8l-12,-3l-3,5l-14,-1Z"/><path data-name="Congressional District 32" class="district-0632" d="M510,821h1l2,-1l1,-1l2,-4l1,1l6,-3l3,6l8,-4l1,2v3l-4,3h-1l-3,1l-1,6v1h-4l-4,-2h-8l2,-2h2v-1l-1,-1h-1l-2,-1h-1v-1Z"/><path data-name="Congressional District 33" class="district-0633" d="M437,826v-3l7,-4l6,-5h7l13,4h4l10,1l-1,4l5,-1v2l-6,1l-4,5l2,3h-1v5h5l2,5l4,10l2,-2v4l-4,3l-8,-4l3,-9l-6,-12l-4,-5l-20,-1l-5,3l-3,-3l-8,-1Z"/><path data-name="Congressional District 34" class="district-0634" d="M488,824v-2h8v-6h4v1l1,1v7l-2,2l-3,2l-2,-2h-4Z"/><path data-name="Congressional District 35" class="district-0635" d="M531,824v-1h-1h1l4,-3v-1h2l2,2l1,-1l14,1l3,-5l12,3l-2,8l-1,-1h-14v2l-4,9l-4,1l-1,-3l-7,-7h-1Z"/><path data-name="Congressional District 36" class="district-0636" d="M587,828h17v-3l13,-1h37l1,-1h23v-1h23v-1h25l10,-1l3,-4l38,-1l1,-1l30,-1v3h1v2l-1,1h-1v2l-1,1h-1v1l-1,1v1h-2v2h-1v1l2,1l1,1v1h-2h1v1l1,1v2h-2v2h1v3l1,1v7h1v1l1,2h-1l-1,1l-1,2l1,2h-1l1,1v3l-1,1v2l1,1v2h-1l-1,1l-1,1v1l-1,1l-1,1v1l-1,1v1h-1v1l-1,1v2l-35,2h-21l-22,2h-23l-20,1l-14,1h-27l-20,1l-4,-8l-3,-1l-3,-9l5,-1l3,-10h-5l-8,2h-3l-3,-13h5l2,-8l-5,-1Z"/><path data-name="Congressional District 37" class="district-0637" d="M482,825l6,-1l2,3h4h-1v1l-1,6l-3,1l-1,-3l-8,1l-2,-3Z"/><path data-name="Congressional District 38" class="district-0638" d="M503,842l5,-5l-5,-10h4l-1,-1h3v-2h1l2,1h1l1,1v1h-2l-2,2h4v1l4,6l-5,7v2l-1,1l-2,-1v3l-1,-1l-8,-2Z"/><path data-name="Congressional District 39" class="district-0639" d="M513,843l5,-7l-4,-6v-1h4l4,2h4v-1l1,-6l3,-1h1v1l4,4h1l7,7l1,3l-2,4h-8l-2,3l-2,1h-1v-1l-4,-1l-3,-1l-6,3h-2l-1,-1Z"/><path data-name="Congressional District 40" class="district-0640" d="M493,828v-1h1l2,2l3,-2l2,-2l1,1l1,1l5,10l-5,5l-2,-3v-4h-7l-2,-1Z"/><path data-name="Congressional District 41" class="district-0641" d="M566,826l1,1l20,1l8,8l-12,3l-2,3l2,14l-4,1l-4,-2h-1v-5l-9,-2l4,-8h1l-11,1h-2l-1,-3l-4,-10v-2Z"/><path data-name="Congressional District 42" class="district-0642" d="M544,838l4,-1l4,-9l4,10l1,3h2l11,-1h-1l-4,8l9,2v5h1l4,2l4,-1l-2,-14l2,-3l12,-3l5,1l-2,8h-5l3,13h3l8,-2h5l-3,10l-5,1l3,9l3,1l4,8h-22v-6l-2,-3l-1,1l-4,-1v5l-2,1l-4,1h-1l-10,-3l1,-2h-12l4,-8v-1l3,-5l-5,-6h-5l-12,-16Z"/><path data-name="Congressional District 43" class="district-0643" d="M479,833h1l8,-1l1,3l3,-1l2,1l-2,3v13l-2,2l-4,-10l-2,-5h-5Z"/><path data-name="Congressional District 44" class="district-0644" d="M488,858l4,-3v-17l2,-3h7v4l2,3l-2,3l-3,1l-2,8h-1l-3,5Z"/><path data-name="Congressional District 45" class="district-0645" d="M527,860l2,-4v-10h1l2,-1l2,-3h8l12,16h5l5,6l-3,5v1l-10,-1l-3,2l-4,3h-1l-3,-3l-1,-2v1v-1l-3,-1l-9,-2Z"/><path data-name="Congressional District 46" class="district-0646" d="M515,846h1l6,-3l3,1l4,1v11l-2,4h-5v-6l-3,-4l-5,-2Z"/><path data-name="Congressional District 47" class="district-0647" d="M496,854l2,-8l3,-1l8,2l1,1v-3l2,1l1,-1l1,1h2h-1l-1,2l5,2l3,4l-4,2h-1l-5,-1l-4,-3l-2,4l-1,-2l-6,3l-3,-3ZM466,882l6,1l13,6l6,10l-13,-1l-3,-10l-6,-1ZM467,927l12,14l7,5l-5,4l-6,-5l-7,-12Z"/><path data-name="Congressional District 48" class="district-0648" d="M506,856l2,-4l4,3l5,1h1l4,-2v6h5v6l9,2l3,1v1v-1l1,2l3,3l-1,1v3h1h-1h1l-4,1l-1,2l-4,-5l-9,-7l-3,-1l-9,-6Z"/><path data-name="Congressional District 49" class="district-0649" d="M538,881l1,-2l4,-1h-1h1h-1v-3l1,-1h1l4,-3l3,-2l10,1v-1v1l-4,8h12l-1,2l10,3l1,20l3,2l1,2v5l-2,4v1l4,1l4,-2l1,6l-2,4l-2,6l-4,-2h-3v12v-1l-2,-14l-10,-19l-15,-17h-3v-2Z"/><path data-name="Congressional District 50" class="district-0650" d="M578,883h1l4,-1l2,-1v-5l4,1l1,-1l2,3v6h22l20,-1h27l14,-1l2,35l-2,3l1,33h-32l-4,-9l-16,1l-1,3l-9,2l-1,1l2,1l1,1l2,3l-7,7l-4,-1l-2,-11l2,-2h-1l-1,-1v1l-3,-5h-2v1v-14h4l-6,-10l-1,-1l10,-1l-3,-2l-5,-2l-1,3h-1v1h-1h1h-1v1l-2,1h-1l-1,-1l-2,-1v2l-1,-6l-4,2l-4,-1v-1l2,-4v-5l-1,-2l-3,-2Z"/><path data-name="Congressional District 51" class="district-0651" d="M590,970l2,-1l-1,-9h-1v-1h-2v-1h-1v-1l1,-1l6,-3l2,1v9l2,6l5,1l3,-4l1,-3l4,1l7,-7l-2,-3l-1,-1l-2,-1l1,-1l9,-2l1,-3l16,-1l4,9h32l-1,-33l2,-3l-2,-35l20,-1h23l22,-2h21l35,-2h-1v1h-1v1v-1h-3v1h-3v1l1,1l1,1v1l1,1v2l-1,3h-1l-1,1l1,2l2,1l2,1v1l-1,1l1,1v8l-1,1v1l-1,4v1l2,1l1,2h1v1l2,-1l1,1l1,1h2l1,-1h3l3,2l1,1v3h3l-1,3v2h1v1h1v7h-1l-1,1h-1l-1,1l-1,1v5l-1,1h-3v2h-4v1h-2l-1,-1h-3v-1h-1v2h-1v1h-1l-9,2l-10,1h-3l-15,2l-11,1l-9,1l-7,1h-1l-6,1l-20,3l-24,3l-32,4l-4,1l-22,2l-1,1l-8,1h-4l-6,1l-8,1l-1,-5Z"/><path data-name="Congressional District 52" class="district-0652" d="M578,943h1v-13h3l4,2l2,-6l2,-4v-2l2,1l1,1h1l2,-1v-1h1h-1h1v-1h1l1,-3l5,2l3,2l-10,1l1,1l6,10h-4v14l-2,2l-1,-1l-1,-1l-10,2l-1,2l-2,3l1,1l4,2l-1,1v1v-1l-6,-1l2,-7l-6,-2Z"/><path data-name="Congressional District 53" class="district-0653" d="M583,953l2,-3l1,-2l10,-2l1,1l1,1l2,-2v-1h2l3,5v-1l1,1h1l-2,2l2,11l-1,3l-3,4l-5,-1l-2,-6v-9l-2,-1l-6,3l-4,-2Z"/></g>
  <path class="districts-mesh" d="M543,874l-1,1v3h1l-4,1l-1,2M130,248l-1,-11l2,-7l-3,-19v-9l-6,-3l2,-7l4,-7l9,-4l7,-4l1,-4l7,-2l-3,-11l5,-14l5,-5v-5l1,-5l6,-3l1,-7l4,-1l1,-6l-4,-3v-16l-5,-2l-5,7l-6,2l-6,6l-13,2v11l4,2v6l-7,-3l-8,-6h-10l-3,-7l-9,-4l-3,-7l-1,-13l-14,-1l4,-8l-4,-8l-3,-6l4,-8v-12l2,-5l2,-3l6,-2l3,-10M353,301h-2l-2,-6l-4,1l-2,-1h-8l-4,4l-1,1h-19l3,2l-2,3v1h-1v4l-20,5l-3,5h-5l1,8l-10,11h-1v1l-2,-1v-1v1h-1v1l-7,-1h-4l-5,-1l-3,-11l4,1v-19l2,-6l14,-11l4,1v-16l2,-9l-5,4l-6,7h-12l-5,15l-4,3l-16,4l-1,-2h-21l2,-7h-8l-1,-4h-10l-4,3v-20l3,-6l-2,-7l17,-1l-6,-7l-15,-1h-25l-1,-1h-27l3,9v13l-1,5l-13,2l1,17l2,9l-5,6l-2,10l3,3l6,5v6l4,4l8,5l1,2v-1l4,6l9,12l-2,7l3,4l-1,1l-4,2l-1,-2l-1,1l-3,4l-7,-3l-1,4h-1l2,7l6,7v1l3,5l7,2l3,4v2l1,3l1,1h1h-1l-1,1M185,449v1v-1l-2,-1v1v-1l1,1l5,7v-1M200,495v1h1v1l1,2l-1,2l4,4l1,1v1h1l3,3l-3,3l-1,5v1l2,1l1,2l-1,1h-1l-1,-1h-2v1l-2,1v-1h-1l-2,2l-2,-3l-3,1v1l-5,6l-1,3M501,845l-3,1l-2,8M442,752l12,29l-3,3h-13l-2,5l-10,-2v-12h-29v9h9l-5,8h-3l3,2v1h1l1,1h2l4,4l-3,2l4,2h1l-1,1M375,532l-2,1l-4,2l-9,-10l-11,-2l-5,-8l5,-2l-11,-8l-7,-20l-8,-16l-22,9l-10,6l-16,6v7l-20,20l-1,-2l-4,-2h-1l-4,-2l-2,4l-6,-13l3,-2l1,-8v-1l-5,-3v-6l-1,-5l-5,-2l1,-20M545,813h-4l3,-10l-1,-13l-2,-3h-19v1l-2,-2h-3l-2,-5h-7v2l-8,2v4h-1l-1,1v2h1h-1v-1v2h-10v-6l-6,1l-1,5h-7l-1,4v1l-5,4l-2,1h-4v4h-2l-4,1l-5,2l-4,-4l5,-4l4,-2h2l3,-1h1l-8,-18M456,808l4,3l-3,3h-7l-6,5l-7,4v3M589,828l-2,-2l-1,-4l6,-1l-4,-1l-11,-1l2,-2h1v-1l-4,-4l-11,-5h-3l-1,5l-16,1l1,5l-1,1l-1,-1h-4v2l-1,1l-2,-2h-2v-2l-1,-2l-8,4l-3,-6l-6,3l-1,-1l-2,4l-1,1l-2,1h-1l-1,2v3h-3l1,1h-4l-1,-1l-1,-1v-16l-5,-6l1,-1h1v-9M229,449l-23,6v-4h-10v1M196,451l-11,-2l-5,-4l-4,-6l-3,-1h-2M165,457h-2l-7,-3M501,818l-1,-1v-1h-4v6h-8l-5,1l1,-4v-1h2l1,-1v-1v1v-1l1,-1l-3,-2v-5l1,-4l1,-1h-1h3h-1v-1l-6,-2l-1,-7M189,456l-1,1l-2,1v1l-1,1l-2,2M485,813l-8,1l-3,-4l2,-10l-3,-2M484,819l-10,-1h-4l-13,-4M808,813l-30,1l-1,1l-38,1l-3,4l-10,1h-25v1h-23v1h-23l-1,1h-37l-13,1v3h-17l-20,-1l2,-8l-12,-3l-3,5l-14,-1M190,415h-1l-1,-1l-4,3v-1l-2,-4h-1v-15h12l-4,-8l-1,-2l2,-10l-4,-13l-5,-5l-4,-14l-9,-3v-6l-1,-1l-4,-5l-5,1l-4,5l-5,-1v-1l-7,-3l-1,-6v1l-2,1l-6,-2h-1v-1v1v-1h-1v1v-1l-1,1l-2,-4l-1,-3l-3,2v2h-6M186,482l-2,1l-3,-2l-8,1v1l-1,2l3,4v1h-1l1,1v1h-2l-5,1l-5,3v1M236,482l-30,-1l-4,-8l-3,-1l-2,1l-1,-1l-5,1l-5,4M376,532h-1l-8,15l-5,-1l-4,2l7,5h11l2,9l-20,2v-9l-9,-1l-1,-5l-6,1l-5,4h-9l-9,-6l-4,-11l-5,-9v-1l-4,3v6h-6l-21,21l-17,-9l-7,-9l1,-5l-2,-2l3,-8l-2,-7M535,819v1l-4,3h-1l-3,1l-1,6v1h-4l-4,-2h-8l2,-2h2v-1l-1,-1h-1l-2,-1h-1M488,822v2l-6,1l-4,5l2,3h-1v5h5l2,5l4,10l2,-2v4l-4,3M501,825l-2,2l-3,2l-2,-2h-4l-2,-3M567,827l-1,-1h-14v2l-4,9l-4,1l-1,-3l-7,-7h-1l-4,-4M531,824v-1h-1M386,361l-2,12l4,5v14l-5,1l-1,6v13l6,6l5,-1l12,7l2,4v9l9,6v9l-6,6l13,1l4,5l3,9l6,2l13,11v12l6,2l4,18l6,1l11,6l6,15v11l1,6l-16,1h-34v8h-8l-1,-6l-6,-4l-4,1l-6,2l-3,-7l-6,1l-7,2l-4,-8l-9,-5l-3,-10v-1M796,878l-35,2h-21l-22,2h-23l-20,1l-14,1h-27l-20,1l-4,-8l-3,-1l-3,-9l5,-1l3,-10h-5l-8,2h-3l-3,-13h5l2,-8l-5,-1l-8,-8M493,827v1l-1,6l-3,1l-1,-3l-8,1M514,829v1l4,6l-5,7v2l-1,1l-2,-1v3l-1,-1l-8,-2l2,-3l5,-5l-5,-10M206,481l6,9h-3l-3,3l-6,-2v4l-7,4l-5,-1l1,-3l1,1v-1h-1l1,-2v-1l1,-2l-1,-6M544,838l-2,4h-8l-2,3l-2,1h-1v-1l-4,-1l-3,-1l-6,3h-2l-1,-1M503,842l-2,-3v-4h-7l-2,-1M595,836l-12,3l-2,3l2,14l-4,1l-4,-2h-1v-5l-9,-2l4,-8h1l-11,1h-2l-1,-3l-4,-10M614,885h-22v-6l-2,-3l-1,1l-4,-1v5l-2,1l-4,1h-1l-10,-3l1,-2h-12l4,-8v-1l3,-5l-5,-6h-5l-12,-16M494,835l-2,3v13M561,869v1l-10,-1l-3,2l-4,3h-1l-3,-3l-1,-2v1v-1l-3,-1l-9,-2v-6l2,-4v-10M527,860h-5v-6l-3,-4l-5,-2l1,-2M189,425l2,5h-6l-1,1v-1v1l1,1h-5l-10,-3l1,-1M522,854l-4,2h-1l-5,-1l-4,-3l-2,4M578,883l1,20l3,2l1,2v5l-2,4v1l4,1l4,-2l1,6l-2,4l-2,6l-4,-2h-3v12M251,327l-6,4v7h-4l-2,19l7,1h1l-1,1v1l-2,4l-11,-2l-1,-6h-3l-2,6l6,8l-1,2l-2,8h2l4,3v1l5,2l-3,2l3,5h7l2,7l-9,1v4l-7,5l-1,4l-1,2l-2,3M256,534h-16l-7,-2h-1v-5l-5,-1l-1,2l2,1l1,9l-2,2l-6,-4l-6,-8l-2,-3l-4,-3M279,557l10,10l16,16l-1,16h-5l-2,5l4,4l-3,6l2,7l11,7l5,6h7l3,7l6,2l2,9h-33v-1h-39l-19,-1M675,883l2,35l-2,3l1,33h-32l-4,-9l-16,1l-1,3l-9,2l-1,1l2,1l1,1l2,3l-7,7l-4,-1l-2,-11l2,-2h-1l-1,-1v1l-3,-5h-2v1v-14h4l-6,-10l-1,-1l10,-1l-3,-2l-5,-2l-1,3h-1v1h-1v1l-2,1h-1l-1,-1l-2,-1v2M541,748h3v-55l-1,-2v-41l-31,2l2,-14l-3,-3l-3,-21l-4,-4l-2,-9l2,-5l-4,-3l1,-5h-6l-3,-11l-4,-2v-5l-5,-8v-5M281,423l-1,1v33l-5,-2v-3l-14,1l-1,-4l-6,-2l-3,4l-1,1l-9,-1l-4,4h-6v-6h-2l-10,-9v1h-1v-1h-1l-1,-2l-6,-2l1,-6l1,-2M587,958v-1l1,-1l6,-3l2,1v9l2,6l5,1l3,-4l1,-3M378,562l6,2l4,-4l7,10v3l-1,1h1l-9,9h4v8h4v14h-5v21h4l4,-3l22,-2l2,1l-2,7l4,5l10,-2l11,17v1l4,2h-20l-3,16l2,19h-15v14l8,1l3,5h9l-3,-9l3,-6l6,1l2,6h8l5,3v8h-5l-4,6v10h-5l-2,7l-3,-11h-11v-9l-9,-1l-2,-8h-5l-25,-16l-2,-6l-17,1l-5,3v1h-6l-2,-4l-5,-4v-10h-9v-17h-2M425,566h-7l-3,4l-1,3v1l-2,7h6v7l6,1l-1,16l4,4l-4,4l-2,9M600,946l-2,2l-1,-1l-1,-1l-10,2l-1,2l-2,3l1,1l4,2M323,469l-20,-20h-2v-1l-20,-25l-6,-14l-2,-8l1,-21l-7,-21l-2,1l-13,-2h-6M252,358l-6,12l-1,1l2,9h-6l2,4l-2,2M273,401l-9,4l-10,1l-4,-6M543,790l-2,-27v-15h-9v6l-9,-1l-21,1l1,7l-2,1l-4,5l-8,-1l-1,-4v-13h-44l-2,3l-7,-2h-22v-5l-16,-3h-3v-19l-7,-1l1,-9l-10,1v-9l-12,-1v-8h-5v-9h-3"/>
</svg>