<?xml version="1.0" encoding="utf-8"?>
<!DOCTYPE svg PUBLIC "-//W3C//DTD SVG 1.1//EN" "http://www.w3.org/Graphics/SVG/1.1/DTD/svg11.dtd">
<svg version="1.1" xmlns="http://www.w3.org/2000/svg" width="1000" height="729" viewBox="0 0 1000 729">
  <path class="state" d="M195,19l38,2h10l16,1h13l36,2h16l23,2h16l23,1l47,1h13l12,1h16l-2,25l13,-2l8,-1l5,-4h2l-1,-2v-1l1,-2h1l-2,-1v-1h-1v-2l1,1l1,-1l1,1l2,-2l1,-3l1,-1l-2,-4h39l6,1l21,2h5v4h13l10,-4l14,-2h47l8,1h136l1,1h5l10,1h73l1,1h7l22,1h43l2,5v10l1,7v37l1,2v23l1,5v13l1,5v17l1,5v20h1v16l1,11v22l1,5v17l1,10v41l-1,7v42l-1,8v28l-1,5v28l-1,6l-12,-1l-1,2v1h-1l-3,2h-3l-1,11l1,2l2,1l1,1l1,5v8l-3,3v3l2,4h1v2l1,6l-9,8l-6,4l-5,-9h-4l-1,-6l-13,13l-3,-14l-3,12l-9,-5l-7,3l-4,-9l-4,-2l-7,9l-1,7l-9,4v8l-7,-5l1,-7l-7,8l-6,-4l4,-10l-6,8l-4,-1l-6,6l-3,-3l-5,-14l-1,-18l-2,-6l-3,-20l3,-4l-3,-10l3,-5h-5l1,31l-1,10l5,8l-3,8l2,4l-4,6l5,8l-3,9l-7,6h-12l-5,-2l-5,-7l-4,6l-5,-3l-2,-8l-7,-1l-6,7v18l-10,-9h-13v6l-4,4h-9l-10,3l-14,2l-4,-3l-6,-13l2,-19l-11,-8l-6,-12l3,-9l-7,-9l-11,-1l-7,-7v-5l-4,-10h-2l3,8l-1,7l3,8l16,2l5,9l-5,9l3,3l1,11l3,-4l7,4l6,10l-3,27l-5,-1l-2,6l11,-1l2,3h-6l-6,4l-6,-1l-3,3l-7,-12l-11,3l-6,-3h-9l-5,7l-11,-2l-8,5l-1,4h-6l-1,-9l-13,5l1,2l10,-5l-6,8l-1,2v1l-3,2l-1,-1l-10,-10l-2,-2l-8,-2l-3,1l-5,-1l-2,1l-4,-1h-5l-2,2l-2,1h-3l-9,1l-2,-2v-2l-1,1l-1,1v1h-2l-1,1h-1l-1,7l-3,-2l-1,3v2l-4,3l-7,1l-3,-2l6,-6l-2,-3l-6,4l1,-5l-7,4l-5,-4l-5,2l-1,-5l-10,2l-6,-1l-9,5l-8,7l-1,-6l7,-3l-9,-2l-5,10l-3,-7l-9,9l-17,1l-2,-2l-2,-2v-2l2,-1l1,-1l1,-1l-4,-7l-1,-2l1,-2v-2l-1,-4l3,-12l-8,5l-4,6l-1,2l-1,1l-1,1l-1,-1h-1l-2,1v2l1,2v1h1l2,1h4v1l-7,7l-9,2l-1,2l-2,-1l-8,13h-1l-1,-1l-2,-1l-3,8l-6,1l-2,4l-1,4l-2,2l-1,1h-2v-1l-4,-1l-3,1l-1,1l-1,2l-6,-6l-3,2l-8,7l-4,2l-1,2l-2,1l-2,2l-3,4v2l-1,1l-1,1l-2,1l-8,-5l7,-14v-20l-4,5l2,4v12l-6,8l-1,8l9,8v7l-12,4l-16,-7l-5,-2l5,-2l1,2v-4h-1l-9,-5l-2,9l-8,1l-6,6l-3,-2l-3,7l-3,-3l-5,12l-9,6l-13,-6l-5,2l-6,7l-5,-1l-6,3l-5,-2l-5,7l-9,-5l-4,2l5,7l-7,2l-6,7l-6,-9h-2l1,16l-5,-2l-3,6h-4v7l-7,-2l-5,4l-4,-2l-5,11l-4,-4l-3,2l-2,-5l-8,6l-6,1l3,5l-7,8l-1,-11l-5,1l-12,13l-1,7l-9,1l2,-5l4,2l2,-7l-12,2l2,-6v-11l-5,9l1,5l-8,6l-4,-1l-1,5l-9,-2l-5,10l-2,-2l1,-15l-1,-2l-1,-1l-1,-1v-1l-1,-1l-2,-3l-9,-14v-2l-1,-1l-1,-2l-2,-3l-4,-7l-1,-1l-5,-7v-2l-1,-1v-1h-1l-1,-2l-2,-2v-3l11,-6h1l1,-2l3,-1l14,-9l13,-8l1,-1l4,-2l3,-1l4,-3h1l5,-3l2,-1v-1h1l15,-9l20,-12h1l6,-4l2,-1l2,-1l6,-4h2v-1l2,-2l-4,-6l-5,-9l-3,-6l-2,-3l-2,-3l-1,-1l-3,-5l-1,-1l-6,-11l-5,-9l1,-13v-11l3,-28l1,-8v-12l1,-4v-1l1,-10v-2l1,-5v-23l1,-2v-4l2,-34l1,-1v-10l2,-25l2,-16v-2l1,-16v-5l1,-10v-3l4,-53v-3l2,-21l2,-22l1,-23l2,-31v-10l2,-18v-6l3,-34v-5l1,-19v-1l25,-1ZM892,481l-1,7l-4,5l-3,-6l3,-6Z"/>
<g class="geos"><path data-name="Middlesex" class="geo-007" d="M552,419l-12,3l-32,7l2,-9l1,-18l2,-13l-4,1l-1,-10v-11l-4,-42v-8l10,-2l1,-5l8,-2v-15l42,-8l-1,5l26,-4l16,-3l19,-2l6,16l13,24l7,19l6,10l4,10l20,-2l16,-3l17,-1v14l4,23l2,1l2,26l-60,8h-2l3,8l-1,7l3,8l16,2l5,9l-5,9l3,3l1,11l3,-4l7,4l6,10l-3,27l-5,-1l-2,6l11,-1l2,3h-6l-6,4l-6,-1l-3,3l-7,-12l-11,3l-6,-3h-9l-5,7l-11,-2l-8,5l-1,4h-6l-1,-9l-13,5l-1,-12l-4,1l-4,-8l-10,-10l-3,-9l-12,-5l1,-22l3,-3l-3,-13l-8,-9l-1,-7h-4l-5,-6l4,-5ZM610,538l-4,-3l10,-5Z"/><path data-name="New London" class="geo-011" d="M754,238l26,25l14,11l3,-6l15,3l27,7l52,11l57,-6l27,2v21l-1,7v42l-1,8v28l-1,5v28l-1,6l-12,-1l-1,2v1h-1l-3,2h-3l-2,1l1,10l1,2l2,1l1,1l1,5v8l-3,3v3l2,4h1v2l1,5l-9,9l-6,4l-5,-9h-4l-1,-6l-13,13l-3,-14l-3,12l-9,-5l-7,3l-4,-9l-4,-2l-7,9l-1,7l-9,4v8l-7,-5l1,-7l-7,8l-6,-4l4,-10l-6,8l-4,-1l-6,6l-3,-3l-5,-14l-1,-18l-2,-6l-3,-20l3,-4l-3,-10l3,-5h-5l1,31l-1,10l5,8l-3,8l2,4l-4,6l5,8l-3,9l-7,6h-12l-5,-2l-5,-7l-4,6l-5,-3l-2,-8l-7,-1l-6,7v18l-10,-9h-13v6l-4,4h-9l-10,3l-14,2l-4,-3l-6,-13l2,-19l-11,-8l-6,-12l3,-9l-7,-9l-11,-1l-7,-7v-5l-4,-10h-2h2l60,-8l-2,-26l-2,-1l-4,-23v-14l-17,1l-16,3l-20,2l-4,-10l-6,-10l-7,-19l11,-1l12,-3l4,-7l12,8l4,-8l9,2h7l8,-4l2,-10l-5,-15l15,-7l12,-12l6,-1l-1,-9l-3,-4l5,1l1,-4l8,-4ZM892,481l-1,7l-4,5l-3,-6l3,-6Z"/><path data-name="New Haven" class="geo-009" d="M311,465l-6,-8l1,-3h-8l-4,-5l-3,-4l2,-6l-12,-9l-6,-6l-9,2l-2,-8l-8,3l-3,-1l-4,-11l-12,2v-14l-6,1l-8,-9v-7l6,-8l39,-4l15,3l24,-4l-4,-23v-5h10l25,-9l6,-11h10v-12l12,-6l8,1l-1,-8l7,-1l12,-8l21,-2l2,16v11l-5,29l25,-4h7l6,10l11,3l-2,-15l11,-3v10l3,2l11,-14l22,-3l4,42v11l1,10l4,-1l-2,13l-1,18l-2,9l32,-7l12,-3l6,6l-4,5l5,6h4l1,7l8,9l3,13l-3,3l-1,22l12,5l3,9l10,10l4,8l4,-1l1,12l1,2l4,3l-1,2v1l-3,2l-1,-1l-10,-10l-2,-2l-8,-2l-3,1l-5,-1l-2,1l-4,-1h-5l-2,2l-2,1h-3l-9,1l-2,-2v-2l-1,1l-1,1v1h-2l-1,1h-1l-1,7l-3,-2l-1,3v2l-4,3l-7,1l-3,-2l6,-6l-2,-3l-6,4l1,-5l-7,4l-5,-4l-5,2l-1,-5l-10,2l-6,-1l-9,5l-8,7l-1,-6l7,-3l-9,-2l-5,10l-3,-7l-9,9l-17,1l-2,-2l-2,-2v-2l2,-1l1,-1l1,-1l-4,-7l-1,-2l1,-2v-2l-1,-4l3,-12l-8,5l-4,6l-1,2l-1,1l-1,1l-1,-1h-1l-2,1v2l1,2v1h1l2,1h4v1l-7,7l-9,2l-1,2l-2,-1l-8,13h-1l-1,-1l-2,-1l-3,8l-6,1l-2,4l-1,4l-2,2l-1,1h-2v-1l-4,-1l-3,1l-1,1l-1,2l-6,-6l-3,2l-8,7l-4,2l-1,2l-2,1l-2,2l-3,4v2l-1,1l-1,1l-2,1l-8,-5l7,-14v-20l8,-9l2,-5l-1,-12l4,-7l8,-7v-4l-13,-12l-12,-9l-4,-9l-7,-5Z"/><path data-name="Tolland" class="geo-013" d="M620,88l10,-1l-3,-22l-5,-35h36l8,1h136l1,1h5l10,1h1l2,45h-38l-20,1l1,15v65h26l1,20l3,25v9l-10,2l-5,-4v6l-4,7l3,3l-5,2h-25l6,9l-3,7l-8,4l-1,4l-5,-1l3,4l1,9l-6,1l-12,12l-15,7l5,15l-2,10l-8,4h-7l-9,-2l-4,8l-12,-8v-20l-8,-18l-11,-8l-5,-27l-2,-21l-7,-43l-14,2l1,-13l3,-21l-10,3l1,-11v-21Z"/><path data-name="Hartford" class="geo-003" d="M430,103l1,-6l7,-26l-6,-1l-31,1l-31,3l3,-19l7,-28h6l47,1h13l12,1h16l-2,25l13,-2l8,-1l5,-4h2l-1,-2v-1l1,-2h1l-2,-1v-1h-1v-2l1,1l1,-1l1,1l2,-2l1,-3l1,-1l-2,-4h39l6,1l21,2h5v4h13l10,-4l14,-2h11l5,35l3,22l-10,1l-1,26v21l-1,11l10,-3l-3,21l-1,13l14,-2l7,43l2,21l5,27l11,8l8,18v20l-4,7l-12,3l-11,1l-13,-24l-6,-16l-19,2l-16,3l-26,4l1,-5l-42,8v15l-8,2l-1,5l-10,2v8l-22,3l-11,14l-3,-2v-10l-11,3l2,15l-11,-3l-6,-10h-7l-25,4l5,-29v-11l-2,-16l-21,2l-5,-33l-3,-14l-1,-11l-5,-23l-3,-22l34,-5l5,-23l-7,-1l1,-12l4,-22l13,-1Z"/><path data-name="Windham" class="geo-015" d="M819,33h72l1,1h7l22,1h43l2,5v10l1,7v37l1,2v23l1,5v13l1,5v17l1,5v20h1v16l1,11v22l1,5v17l1,10v20l-27,-2l-57,6l-52,-11l-27,-7l-15,-3l-3,6l-14,-11l-26,-25l-6,-9h25l5,-2l-3,-3l4,-7v-6l5,4l10,-2v-9l-3,-25l-1,-20h-26v-65l-1,-15l20,-1h38Z"/><path data-name="Fairfield" class="geo-001" d="M117,457l1,-7v-12l1,-4v-1l1,-10v-2l1,-5v-23l1,-2v-4l2,-34l1,-1v-10l2,-25l2,-16v-2l1,-16v-5l1,-10l11,4l4,9l-5,6l11,31l6,20l8,25v15l3,3l22,-12l8,8v7l25,14h7l6,-1v14l12,-2l4,11l3,1l8,-3l2,8l9,-2l6,6l12,9l-2,6l3,4l4,5h8l-1,3l6,8l4,9l7,5l4,9l12,9l13,12v4l-8,7l-4,7l1,12l-2,5l-8,9l-4,5l2,4v12l-6,8l-1,8l9,8v7l-12,4l-16,-7l-5,-2l5,-2l1,2v-4h-1l-9,-5l-2,9l-8,1l-6,6l-3,-2l-3,7l-3,-3l-5,12l-9,6l-13,-6l-5,2l-6,7l-5,-1l-6,3l-5,-2l-5,7l-9,-5l-4,2l5,7l-7,2l-6,7l-6,-9h-2l1,16l-5,-2l-3,6h-4v7l-7,-2l-5,4l-4,-2l-5,11l-4,-4l-3,2l-2,-5l-8,6l-6,1l3,5l-7,8l-1,-11l-5,1l-12,13l-1,7l-9,1l2,-5l4,2l2,-7l-12,2l2,-6v-11l-5,9l1,5l-8,6l-4,-1l-1,5l-9,-2l-5,10l-2,-2l1,-15l-1,-2l-1,-1l-1,-1v-1l-1,-1l-2,-3l-9,-14v-2l-1,-1l-1,-2l-2,-3l-4,-7l-1,-1l-5,-7v-2l-1,-1v-1h-1l-1,-2l-2,-2v-3l11,-6h1l1,-2l3,-1l14,-9l13,-8l1,-1l4,-2l3,-1l4,-3h1l5,-3l2,-1v-1h1l15,-9l20,-12h1l6,-4l2,-1l2,-1l6,-4h2v-1l2,-2l-4,-6l-5,-9l-3,-6l-2,-3l-2,-3l-1,-1l-3,-5l-1,-1l-6,-11l-5,-9l1,-13v-11l3,-28Z"/><path data-name="Litchfield" class="geo-005" d="M140,143l2,-31v-10l2,-18v-6l3,-34v-5l1,-19v-1l25,-1l22,1l38,2h10l16,1h13l36,2h16l23,2h16l17,1l-7,28l-3,19l31,-3l31,-1l6,1l-7,26l-1,6l-5,17l-13,1l-4,22l-1,12l7,1l-5,23l-34,5l3,22l5,23l1,11l3,14l5,33l-12,8l-7,1l1,8l-8,-1l-12,6v12h-10l-6,11l-25,9h-10v5l4,23l-24,4l-15,-3l-39,4l-6,8v7l8,9h-7l-25,-14v-7l-8,-8l-22,12l-3,-3v-15l-8,-25l-6,-20l-11,-31l5,-6l-4,-9l-11,-4v-3l4,-53v-3l2,-21l2,-22Z"/></g>
  <path class="counties-mesh" d="M605,533l-1,-12l-4,1l-4,-8l-10,-10l-3,-9l-12,-5l1,-22l3,-3l-3,-13l-8,-9l-1,-7h-4l-5,-6l4,-5l-6,-6l-12,3l-32,7l2,-9l1,-18l2,-13l-4,1l-1,-10v-11l-4,-42M330,553l8,-9l2,-5l-1,-12l4,-7l8,-7v-4l-13,-12l-12,-9l-4,-9l-7,-5l-4,-9l-6,-8l1,-3h-8l-4,-5l-3,-4l2,-6l-12,-9l-6,-6l-9,2l-2,-8l-8,3l-3,-1l-4,-11l-12,2v-14l-6,1l-8,-9v-7l6,-8l39,-4l15,3l24,-4l-4,-23v-5h10l25,-9l6,-11h10v-12l12,-6l8,1l-1,-8l7,-1l12,-8l21,-2l2,16v11l-5,29l25,-4h7l6,10l11,3l-2,-15l11,-3v10l3,2l11,-14l22,-3v-8l10,-2l1,-5l8,-2v-15l42,-8l-1,5l26,-4l16,-3l19,-2l6,16l13,24l7,19l6,10l4,10l20,-2l16,-3l17,-1v14l4,23l2,1l2,26l-60,8h-2M610,538l-4,-3M644,323l11,-1l12,-3l4,-7l12,8l4,-8l9,2h7l8,-4l2,-10l-5,-15l15,-7l12,-12l6,-1l-1,-9l-3,-4l5,1l1,-4l8,-4l3,-7l26,25l14,11l3,-6l15,3l27,7l52,11l57,-6l27,2M671,312v-20l-8,-18l-11,-8l-5,-27l-2,-21l-7,-43l-14,2l1,-13l3,-21l-10,3l1,-11v-21l1,-26l10,-1l-3,-22l-5,-35M819,33l2,45h-38l-20,1l1,15v65h26l1,20l3,25v9l-10,2l-5,-4v6l-4,7l3,3l-5,2h-25l6,9M392,287l-5,-33l-3,-14l-1,-11l-5,-23l-3,-22l34,-5l5,-23l-7,-1l1,-12l4,-22l13,-1l5,-17l1,-6l7,-26l-6,-1l-31,1l-31,3l3,-19l7,-28M131,268l11,4l4,9l-5,6l11,31l6,20l8,25v15l3,3l22,-12l8,8v7l25,14h7"/>
<g class="districts"><path data-name="Congressional District 1" class="district-0901" d="M322,24h2l23,2h16l17,1h6l47,1h13l12,1h16l-2,25l13,-2l8,-1l-2,9l12,2l23,8l-4,15l49,4l-4,6l24,-3l29,-4l-1,26v21l-1,11l10,-3l-3,21l-1,13l14,-2l7,43l-26,4l-4,7l-1,11l6,2h15l6,3l1,11l-6,4l2,9l-10,3l-3,11l-19,2l7,17l-7,1v13l-7,11l-1,17l-8,-3h-10l-6,-4l-14,2l-5,-3l-1,-6l-10,2l-2,5h-8v-7l-5,-1v-9l3,-7l-9,-3l-8,2l-1,5l-10,2v8l-22,3l-11,14l-3,-2v-10l-11,3l2,15l-11,-3l-6,-10h-7l-25,4l5,-29v-11l-2,-16l-21,2l-5,-33l-3,-14l25,-3l24,-4l2,18l2,7l3,23l30,-4l1,7l34,-3l-6,-43v-14l-3,-2l-5,7l-1,-12l-7,-2l-2,-20l1,-7v-22h7v-19l6,-17l3,-14l3,-2l-5,-8l-30,-1l-15,-1l-21,-1l-5,17l-13,1l-4,22l-1,12l7,1l-5,23l-34,5h-32l-5,-9l-1,-7l-4,-6l-8,6v7l-8,-1l-3,6l1,10l-9,3l-2,-7l-18,2l10,-45l1,-9l5,-17l4,-21l4,-13Z"/><path data-name="Congressional District 2" class="district-0902" d="M493,51l5,-4h2l-1,-2v-1l1,-2h1l-2,-1v-1h-1v-2l1,1l1,-1l1,1l2,-2l1,-3l1,-1l-2,-4h39l6,1l21,2h5v4h13l10,-4l14,-2h47l8,1h136l1,1h5l10,1h73l1,1h7l22,1h43l2,5v10l1,7v37l1,2v23l1,5v13l1,5v17l1,5v20h1v16l1,11v22l1,5v17l1,10v41l-1,7v42l-1,8v28l-1,5v28l-1,6l-12,-1l-1,2v1h-1l-3,2h-3l-2,1l1,10l1,2l2,1l1,1l1,5v8l-3,3v3l2,4h1v2l1,5l-9,9l-6,4l-5,-9h-4l-1,-6l-13,13l-3,-14l-3,12l-9,-5l-7,3l-4,-9l-4,-2l-7,9l-1,7l-9,4v8l-7,-5l1,-7l-7,8l-6,-4l4,-10l-6,8l-4,-1l-6,6l-3,-3l-5,-14l-1,-18l-2,-6l-3,-20l3,-4l-3,-10l3,-5h-5l1,31l-1,10l5,8l-3,8l2,4l-4,6l5,8l-3,9l-7,6h-12l-5,-2l-5,-7l-4,6l-5,-3l-2,-8l-7,-1l-6,7v18l-10,-9h-13v6l-4,4h-9l-10,3l-14,2l-4,-3l-6,-13l2,-19l-11,-8l-6,-12l3,-9l-7,-9l-11,-1l-7,-7v-5l-4,-10h-2l3,8l-1,7l3,8l16,2l5,9l-5,9l3,3l1,11l3,-4l7,4l6,10l-3,27l-5,-1l-2,6l11,-1l2,3h-6l-6,4l-6,-1l-3,3l-7,-12l-11,3l-6,-3h-9l-5,7l-11,-2l-8,5l-1,4h-6l-1,-9l-13,5l1,2l10,-5l-6,8v2h-1l-2,1l2,-1v1l-3,1l-13,-12l-9,-2h-9v1v-1h-9l-3,2l-3,1l-8,1v-6l5,-5l-2,-3l8,-8v-9l-6,-8l-10,-7l-7,-14v-50l12,-3l19,-2l3,-1l-13,-13l4,-13l-2,-12l38,-7l-1,-9l3,-7l-1,-8l-4,-3l1,-17l7,-11v-13l7,-1l-7,-17l19,-2l3,-11l10,-3l-2,-9l6,-4l-1,-11l-6,-3h-15l-6,-2l1,-11l4,-7l26,-4l-7,-43l-14,2l1,-13l3,-21l-10,3l1,-11v-21l1,-26l-29,4l-24,3l4,-6l-49,-4l4,-15l-23,-8l-12,-2ZM892,481l-1,7l-4,5l-3,-6l3,-6Z"/><path data-name="Congressional District 3" class="district-0903" d="M301,602l1,-3l1,1v-4l4,-9v-10l-4,-13v-6l11,-9l-3,-12l18,-7l3,5l8,4l-1,-12l4,-7l1,-10l-3,-2v-7l-3,-4l-12,-9l-4,-9l-7,-5l-4,-9l16,-13l2,-7l11,-1l2,-2l-5,-7l8,-29v-6l-13,-11v-4l4,-7v-9h13l-7,-11l4,-1l8,2l-1,-4l4,-5l8,-2l7,2l4,7l6,5l11,-5l17,9l5,8l-3,8l-1,10l-4,10l16,3l16,7l19,-36l-2,-8l23,6l17,8l12,-2v-11l-4,-42v-8l10,-2l1,-5l8,-2l9,3l-3,7v9l5,1v7h8l2,-5l10,-2l1,6l5,3l14,-2l6,4h10l8,3l4,3l1,8l-3,7l1,9l-38,7l2,12l-4,13l13,13l-3,1l-19,2l-12,3v50l7,14l10,7l6,8v9l-8,8l2,3l-5,5v6v-1l-4,-2v-1h-1v1l-1,1v1h-1l-2,1h-1l-1,7l-3,-2l-1,2v2l-4,4l-6,1v-1h-2l-2,-1l6,-6l-2,-3l-6,4l1,-5l-7,4l-5,-4l-5,2l-1,-5l-10,2l-6,-1l-9,5l-8,7l-1,-6l7,-3l-9,-2l-5,10l-3,-7l-9,9l-17,1l-2,-2h-1l-1,-2v-1l1,-1l1,-1l1,-1l1,-5l-3,-4l-1,1l1,-1l-1,-5l-1,-3v-1l3,-12l-8,5l-4,6l-1,1v1l-3,1h-1l-2,2v2l1,1l1,1l6,1v1l-5,5l-12,5v1l-7,5l-3,7h-1l-3,-2l-3,8l-6,1l-2,4v3l-1,1l-2,3h-3l-5,-2v1l-4,3l-6,-6l-3,2l-8,7h-1l-4,3v1l-2,1l-1,1l-1,1l-3,4v2l-1,1l-1,1l-2,1l-8,-5l7,-14v-20l-4,5l2,4v12l-6,8l-1,8l9,8v7l-12,4l-16,-7Z"/><path data-name="Congressional District 4" class="district-0904" d="M37,630l1,-2l3,-1l14,-9l13,-8l1,-1l4,-2l3,-1l4,-3h1l5,-3l2,-1v-1h1l15,-9l20,-12h1l6,-4l2,-1l2,-1l6,-4h2v-1l2,-2l-4,-6l-5,-9l-3,-6l-2,-3l-2,-3l-1,-1l-3,-5l-1,-1l-6,-11l-5,-9l1,-13v-11l3,-28v-1h18l2,10l8,4l7,19l13,-3l41,-9l7,-3l6,22l51,-34l6,4l8,-5l-1,-6l4,-5l7,-2l-3,-4l2,-6l-12,-9l22,-18l-1,-7l4,-2v-18l17,2l9,-2v4l13,11v6l-8,29l5,7l-2,2l-11,1l-2,7l-16,13l4,9l7,5l4,9l12,9l3,4v7l3,2l-1,10l-4,7l1,12l-8,-4l-3,-5l-18,7l3,12l-11,9v6l4,13v10l-4,9h-1l-9,-5l-2,9l-8,1l-6,6l-3,-2l-3,7l-3,-3l-5,12l-9,6l-13,-6l-5,2l-6,7l-5,-1l-6,3l-5,-2l-5,7l-9,-5l-4,2l5,7l-7,2l-6,7l-6,-9h-2l1,16l-5,-2l-3,6h-4v7l-7,-2l-5,4l-4,-2l-5,11l-4,-4l-3,2l-2,-5l-8,6l-6,1l3,5l-7,8l-1,-11l-5,1l-12,13l-1,7l-9,1l2,-5l4,2l2,-7l-12,2l2,-6v-11l-5,9l1,5l-8,6l-4,-1l-1,5l-9,-2l-5,10l-2,-2l1,-15l-1,-2l-1,-1l-1,-1v-1l-1,-1l-2,-3l-9,-14v-2l-1,-1l-1,-2l-2,-3l-4,-7l-1,-1l-5,-7v-2l-1,-1v-1h-1l-1,-2l-2,-2v-3l11,-6Z"/><path data-name="Congressional District 5" class="district-0905" d="M118,450v-12l1,-4v-1l1,-10v-2l1,-5v-23l1,-2v-4l2,-34l1,-1v-10l2,-25l2,-16v-2l1,-16v-5l1,-10v-3l4,-53v-3l2,-21l2,-22l1,-23l2,-31v-10l2,-18v-6l3,-34v-5l1,-19v-1l25,-1l22,1l38,2h10l16,1h13l36,2h14l-12,59l-4,13l-4,21l-5,17l-1,9l-10,45l18,-2l2,7l9,-3l-1,-10l3,-6l8,1v-7l8,-6l4,6l1,7l5,9h32l34,-5l5,-23l-7,-1l1,-12l4,-22l13,-1l5,-17l21,1l15,1l30,1l5,8l-3,2l-3,14l-6,17v19h-7v22l-1,7l2,20l7,2l1,12l5,-7l3,2v14l6,43l-34,3l-1,-7l-30,4l-3,-23l-2,-7l-2,-18l-24,4l-25,3l3,14l5,33l21,-2l2,16v11l-5,29l25,-4h7l6,10l11,3l-2,-15l11,-3v10l3,2l11,-14l22,-3l4,42v11l-12,2l-17,-8l-23,-6l2,8l-19,36l-16,-7l-16,-3l4,-10l1,-10l3,-8l-5,-8l-17,-9l-11,5l-6,-5l-4,-7l-7,-2l-8,2l-4,5l1,4l-8,-2l-4,1l7,11h-13v9l-4,7l-9,2l-17,-2v18l-4,2l1,7l-22,18l12,9l-2,6l3,4l-7,2l-4,5l1,6l-8,5l-6,-4l-51,34l-6,-22l-7,3l-41,9l-13,3l-7,-19l-8,-4l-2,-10h-18Z"/></g>
  <path class="districts-mesh" d="M493,51l-2,9l12,2l23,8l-4,15l49,4l-4,6l24,-3l29,-4l-1,26v21l-1,11l10,-3l-3,21l-1,13l14,-2l7,43l-26,4l-4,7l-1,11l6,2h15l6,3l1,11l-6,4l2,9l-10,3l-3,11l-19,2l7,17l-7,1v13l-7,11l-1,17l-8,-3h-10l-6,-4l-14,2l-5,-3l-1,-6l-10,2l-2,5h-8v-7l-5,-1v-9l3,-7l-9,-3l-8,2l-1,5l-10,2v8l-22,3l-11,14l-3,-2v-10l-11,3l2,15l-11,-3l-6,-10h-7l-25,4l5,-29v-11l-2,-16l-21,2l-5,-33l-3,-14l25,-3l24,-4l2,18l2,7l3,23l30,-4l1,7l34,-3l-6,-43v-14l-3,-2l-5,7l-1,-12l-7,-2l-2,-20l1,-7v-22h7v-19l6,-17l3,-14l3,-2l-5,-8l-30,-1l-15,-1l-21,-1l-5,17l-13,1l-4,22l-1,12l7,1l-5,23l-34,5h-32l-5,-9l-1,-7l-4,-6l-8,6v7l-8,-1l-3,6l1,10l-9,3l-2,-7l-18,2l10,-45l1,-9l5,-17l4,-21l4,-13l12,-59M552,532v-6l5,-5l-2,-3l8,-8v-9l-6,-8l-10,-7l-7,-14v-50l12,-3l19,-2l3,-1l-13,-13l4,-13l-2,-12l38,-7l-1,-9l3,-7l-1,-8l-4,-3M303,596l4,-9v-10l-4,-13v-6l11,-9l-3,-12l18,-7l3,5l8,4l-1,-12l4,-7l1,-10l-3,-2v-7l-3,-4l-12,-9l-4,-9l-7,-5l-4,-9l16,-13l2,-7l11,-1l2,-2l-5,-7l8,-29v-6l-13,-11v-4l4,-7v-9h13l-7,-11l4,-1l8,2l-1,-4l4,-5l8,-2l7,2l4,7l6,5l11,-5l17,9l5,8l-3,8l-1,10l-4,10l16,3l16,7l19,-36l-2,-8l23,6l17,8l12,-2v-11l-4,-42M117,457h18l2,10l8,4l7,19l13,-3l41,-9l7,-3l6,22l51,-34l6,4l8,-5l-1,-6l4,-5l7,-2l-3,-4l2,-6l-12,-9l22,-18l-1,-7l4,-2v-18l17,2l9,-2"/>
</svg>