<?xml version="1.0" encoding="utf-8"?>
<!DOCTYPE svg PUBLIC "-//W3C//DTD SVG 1.1//EN" "http://www.w3.org/Graphics/SVG/1.1/DTD/svg11.dtd">
<svg version="1.1" xmlns="http://www.w3.org/2000/svg" width="878" height="1000" viewBox="0 0 878 1000">
  <path class="state" d="M855,548l-6,4l-24,25l-18,19l-4,3l-22,23l-13,12l-19,19l-4,5l-4,4l-5,4l-8,8l-12,13l-21,20l-13,14l-2,1l-11,11l-17,18l-20,20l-1,1l-9,9l-5,5l-7,7l-4,5h-1l-13,13l-26,26l-19,20l-15,15l-3,2l-5,5l-54,55l-10,10l-29,28v1l-13,-2l-11,4l-12,-10l-4,-13l-6,-9l2,-8l-1,-8l3,-35l2,-20l9,-23l1,-13l5,-27l9,-29l7,-20l13,-31l7,-8l16,-8l6,-8l12,-21l5,-11l7,-7l16,2l11,3l12,-2l9,-7l20,-15l23,-11l11,-4l15,-7l11,-19l18,-20l8,-13l6,-24l-2,-13l-8,13l-2,11l-25,36l-8,15l-6,8l-32,11l-19,11l-20,16l-19,-5l-17,-3l-16,7l-8,12l-8,16l-7,10l-10,2l-7,8l-10,3l-2,-15v-13l-3,-35l-5,-4l-8,-14l-13,-12l-11,-8l-11,-2l8,13l15,14l7,14l7,23l1,33l-4,15l-14,-22l-9,-21l-11,-20l-8,-13l-11,-12l-10,-7l-7,-10l-10,-3l-19,-18l-16,-18l-4,-7l-8,-13l-6,-15l-5,-28l-20,-8l-11,-8l-13,-3l-41,-6l-12,2l-14,-6l-15,-5l-9,-5l-8,-6l-8,-2l-2,10l-27,-28l-2,-11l-9,-17l-10,-15l-10,-10l-12,-14l-10,-16l-4,-14l-8,-12l3,-4l7,-7l13,-12l8,-9l23,-22l14,-14l5,-5l3,-2l14,-13l28,-29l18,-18l10,-9l7,-8l4,-3l8,-9l8,-9l22,-21l3,-3l14,-14l1,-2l18,-17l22,-22l10,-9l29,-30l3,-3l5,-4l6,-7l6,-5l17,15l15,16l6,6l18,18l13,13l14,13l5,6l12,11l49,49l9,10l26,27l25,24l10,10l4,4l38,39l18,17l16,17l13,13l16,17l60,58l10,10l5,5l8,8l22,23l13,13l10,11l34,33l9,11l10,8ZM284,604l21,21l5,6l-7,8l-5,-2l-4,-12l-11,-14l-16,-2l-6,-3l-5,-15l-13,-24l4,-4l8,4l15,21ZM263,555l-1,5l-11,-6l-16,-27v-15l10,-1l10,5l4,13Z"/>
<g class="geos"><path data-name="District of Columbia" class="geo-001" d="M32,324l13,-12l8,-9l23,-22l14,-14l5,-5l3,-2l14,-13l28,-29l18,-18l10,-9l7,-8l4,-3l8,-9l8,-9l22,-21l3,-3l14,-14l1,-2l18,-17l22,-22l10,-9l29,-30l3,-3l5,-4l6,-7l6,-5l17,15l15,16l6,6l18,18l13,13l14,13l5,6l12,11l19,19l9,11l30,29l26,27l25,24l10,10l4,4l38,39l18,17l16,17l13,13l16,17l60,58l10,10l5,5l8,8l22,23l13,13l10,11l34,33l9,11l10,8l16,18l-6,4l-16,17l-8,8l-18,19l-4,3l-22,23l-13,12l-19,19l-4,5l-4,4l-5,4l-8,8l-5,6l-28,27l-13,14l-2,1l-11,11l-17,18l-20,20l-1,1l-9,9l-5,5l-7,7l-4,5h-1l-13,13l-15,15l-11,11l-19,20l-15,15l-3,2l-5,5l-20,19l-33,36h-1l-39,39l-13,-2l-11,4l-12,-10l-4,-13l-6,-9l2,-8l-1,-8l3,-35l2,-20l9,-23l1,-13l5,-27l9,-29l7,-20l13,-31l7,-8l16,-8l6,-8l12,-21l5,-11l7,-7l16,2l11,3l12,-2l9,-7l20,-15l23,-11l11,-4l15,-7l11,-19l18,-20l8,-13l6,-24l-2,-13l-8,13l-2,11l-25,36l-8,15l-6,8l-32,11l-19,11l-20,16l-19,-5l-17,-3l-16,7l-8,12l-8,16l-7,10l-10,2l-7,8l-10,3l-2,-15v-13l-3,-35l-5,-4l-8,-14l-13,-12l-11,-8l-11,-2l8,13l15,14l7,14l7,23l1,33l-4,15l-14,-22l-9,-21l-11,-20l-8,-13l-11,-12l-10,-7l-7,-10l-10,-3l-19,-18l-16,-18l-4,-7l-8,-13l-6,-15l-5,-28l-20,-8l-11,-8l-13,-3l-41,-6l-12,2l-14,-6l-15,-5l-9,-5l-8,-6l-8,-2l-1,8l-11,-9l-17,-17l-3,-15l-4,-4l-5,-13l-7,-10l-12,-11l-13,-16l-8,-12l-5,-16l-8,-12l3,-4ZM284,604l21,21l5,6l-7,8l-5,-2l-4,-12l-11,-14l-16,-2l-6,-3l-5,-15l-13,-24l4,-4l8,4l15,21ZM263,555l-1,5l-11,-6l-16,-27v-15l10,-1l10,5l4,13Z"/></g>

<g class="districts"><path data-name="Delegate District (at Large)" class="district-1198" d="M32,324l13,-12l8,-9l23,-22l14,-14l5,-5l3,-2l14,-13l28,-29l18,-18l10,-9l7,-8l4,-3l8,-9l8,-9l22,-21l3,-3l14,-14l1,-2l18,-17l22,-22l10,-9l29,-30l3,-3l5,-4l6,-7l6,-5l17,15l15,16l6,6l18,18l13,13l14,13l5,6l12,11l19,19l9,11l30,29l26,27l25,24l10,10l4,4l38,39l18,17l16,17l13,13l16,17l60,58l10,10l5,5l8,8l22,23l13,13l10,11l34,33l9,11l10,8l16,18l-6,4l-16,17l-8,8l-18,19l-4,3l-22,23l-13,12l-19,19l-4,5l-4,4l-5,4l-8,8l-5,6l-28,27l-13,14l-2,1l-11,11l-17,18l-20,20l-1,1l-9,9l-5,5l-7,7l-4,5h-1l-13,13l-15,15l-11,11l-19,20l-15,15l-3,2l-5,5l-20,19l-33,36h-1l-39,39l-13,-2l-11,4l-12,-10l-4,-13l-6,-9l2,-8l-1,-8l3,-35l2,-20l9,-23l1,-13l5,-27l9,-29l7,-20l13,-31l7,-8l16,-8l6,-8l12,-21l5,-11l7,-7l16,2l11,3l12,-2l9,-7l20,-15l23,-11l11,-4l15,-7l11,-19l18,-20l8,-13l6,-24l-2,-13l-8,13l-2,11l-25,36l-8,15l-6,8l-32,11l-19,11l-20,16l-19,-5l-17,-3l-16,7l-8,12l-8,16l-7,10l-10,2l-7,8l-10,3l-2,-15v-13l-3,-35l-5,-4l-8,-14l-13,-12l-11,-8l-11,-2l8,13l15,14l7,14l7,23l1,33l-4,15l-14,-22l-9,-21l-11,-20l-8,-13l-11,-12l-10,-7l-7,-10l-10,-3l-19,-18l-16,-18l-4,-7l-8,-13l-6,-15l-5,-28l-20,-8l-11,-8l-13,-3l-41,-6l-12,2l-14,-6l-15,-5l-9,-5l-8,-6l-8,-2l-1,8l-11,-9l-17,-17l-3,-15l-4,-4l-5,-13l-7,-10l-12,-11l-13,-16l-8,-12l-5,-16l-8,-12l3,-4ZM284,604l21,21l5,6l-7,8l-5,-2l-4,-12l-11,-14l-16,-2l-6,-3l-5,-15l-13,-24l4,-4l8,4l15,21ZM263,555l-1,5l-11,-6l-16,-27v-15l10,-1l10,5l4,13Z"/></g>

</svg>