<?xml version="1.0" encoding="utf-8"?>
<!DOCTYPE svg PUBLIC "-//W3C//DTD SVG 1.1//EN" "http://www.w3.org/Graphics/SVG/1.1/DTD/svg11.dtd">
<svg version="1.1" xmlns="http://www.w3.org/2000/svg" width="1000" height="979" viewBox="0 0 1000 979">
  <path class="state" d="M966,752l-1,-6l1,5l-5,5l-2,9v3l-1,5l-6,5l-3,12l-5,3l1,6l-3,6l-2,3l2,17h3l-4,9l-5,3v3v-2l-6,6v4h-1v-1h-1v1h-4l-1,1h-2v2h1v1h-1l-1,-1v1h1v1h-1v-1h-1l1,-1h-1v-1h-2v1h-1l4,-3h-9l-4,3h9v1h-1v-1h-2v2h1h-1v1h-2v-1l1,1v-1h1v-1h-1v-1v1h-1v-1l-1,1v1h-1v2h-2v2h-2h1v-1h-1h2v-1h1l-1,-1v-1h-1l-1,1h-2v1h-2v1h-1l-1,1h4h-1l-1,2v1l-1,1h1h-1l-1,1v-1v1h-1v-1h2v-1h1v-1h-1v-1v1h-1l-1,-1v1h-1v-1v1h-1v2h-1v1l-1,-1h-2v-2h-1h1v1h-2v-1h-1v1l1,1h3h-1l-1,1h-1l-1,-1h-1l-1,-1h-1v2h-1v1v-1l1,-1h-1v-2h-2v1h-1v2v-3l1,-1v-1h-3h1h-1v1h1v1h-1v1h-1l-1,-1v-1h-3l-5,4l-12,3h-10l-14,-13l3,-17h7l-1,5l4,8l9,5h10l3,-6l-12,-13l-6,4l-2,-4l-9,-1l2,-4h-5l-3,-14l-6,-6l3,-4l7,-2l11,5l-1,-6l-7,-1l-3,-5l-6,9l-7,-1l-6,-19l8,-4v-3l-8,-1l-1,6l-7,-2v-5l-5,-1l4,-6l-7,-7l-6,-1l-3,-4l-17,-1l1,-4h-8l-10,-9l1,-4l-7,-3l-1,-10l-3,1l-2,-19l-4,-12l-1,-17h-8l-4,-4l-9,-1l1,-6l4,2l7,-4l6,-14l9,-8l-10,5h1l-5,3l-4,13l-12,2l-1,-13l-4,-5l2,-15l1,-16l-4,-1l-1,-6l13,-6h-8l-1,3l-8,-2l-5,5l-3,-5h-5l-4,-6v1l2,5l8,4l3,13l-4,5h-8l-8,-6l-5,-13l-13,-16l-5,-16l-1,-7l-5,-5l-1,-11l-3,-9l-2,-3l-11,-4l4,-4l-1,-5l-4,3v-5l8,2h10l-10,-2l5,-4l-4,-2l6,-12l10,-15l5,-2l5,-10v-1l1,-3h6h-6l-9,-11l-4,2l2,15l-8,-2l1,-6l-2,-12l-8,-2l-5,-6l-3,-2l-4,8h-1h2l-4,6l12,4l4,10l-2,4l-1,12l-3,4l-6,-2v-4l-6,-2l-2,-11l-1,5l-6,-6l-1,4l-4,-8l6,-12l1,-7l2,-8l-1,-17l4,-8l2,-14l4,-5v-6l4,-5l3,-13l-2,-18l4,-6l-8,-5l6,-4l-6,-2l1,-6h-4v-8l8,2v-7l-9,-6l-4,-7l1,-7l-9,-4l1,-13l-7,1l-21,-1l-4,-5v-7l-5,-4l-7,-1l7,-5h-6l-10,-16l-5,1l-4,-5l-11,-7l-1,-22h2l-9,-1l-5,-6l-7,-3l-4,-12l-11,-13l-10,-6l-3,-4h-7l-12,-7l-8,-9l-10,-1l-12,4l-8,-2l-4,-4v8l-7,-3l-4,4v12l-11,-1l15,6l-1,5l-15,-5l-10,3l-13,10h-3l-11,8l-18,7l4,-8l-8,4l-1,3h-8l-5,-5l6,5l1,4l-16,-1l-12,3l-14,2l-3,3l-4,-5l8,2l2,-3l1,-15l-11,-17l-3,-3l-8,-1l-1,-3l-11,-11l-13,-6l7,1l-8,-5h9v3h6l10,12l7,-3l5,2v-4l-11,3l-1,-9l-5,-1l1,-4l-9,2l-9,-7l-7,-2l6,-10l11,-3l4,-12l-7,11l-11,1l-3,5l-1,-8l-13,-1l-2,9l5,2l5,-4l3,11l4,4l-10,-4l-10,-8l-14,-7l-11,-5l-21,-8l-17,-3l-14,-1l2,-5l12,3l8,2l12,-1l1,-4l7,6h6v-7l-15,-8l-11,1l-7,2l-4,1l-4,-5l-12,7l-7,-3l1,8l-16,-2l-9,1l-23,1l-19,4l5,-5h10l12,-8l-11,-7l3,-3v-7l-5,4l-4,13l-5,1l1,-11l-6,-7l-4,-2l1,5l2,12l-3,6l-13,7l2,3h-5l-13,5l-5,-1l4,-4l-1,-8l10,-2l-1,-5h-6l-4,-5h1v-1l-1,-1v-1l-1,-1h-1h1v-3h1v-2h1v-1h2v-2l1,-1v-4h1l1,-1v-6h-1v-3l-2,-1h-1l-1,-1h-1v-1h-2v-1h-1v-1l-1,-1v-1h-2l-2,-1l-1,-1h-1v-2h-1v-2l-1,-1v-1l-1,-1v-1h-1v-1h-1v-1h-1v-2h-3v-2h-2v-2h-1v-6h1v-2h1v-1l1,-2v-1h1v-2l1,-1v-6h-1v-1h17v1h26l2,1l9,-1l12,1h5l17,1h21l1,1h30l1,1h40v1h134l4,1l-1,1v3h3v5h1v1h1l1,2v1l1,1v2l1,1l-1,1h1v2l1,1v1h-1v1l2,11l1,1l6,6h1l26,2h13l4,1h1l26,1h2l2,1h30l4,1h1l14,1h12v1h14l4,1l20,1h2l15,1l75,5h1l14,1h5l9,1h23l2,1h5l-2,1v2h-1v3h1v2l1,1v1h1l1,2h1v2l-1,1l1,1v2l-1,1v4h1v2l1,1l1,1l1,1v1h1v1h3l1,-1h5v1h5l1,-1h1v-1h1h-1v-1h1h-1v-5l1,-1l-1,-2l1,-1v-1h1v-3l1,-1v-11l1,-2v-2h-1v-3h-2v-3v1v-1h-1v-2l-1,-2h-1v-2h1h-1v-1l1,-1h-1h1v-3h1v-2l-1,-1v-3l1,-1v-1l1,1v-1h2v-1l-1,-1v-1h-1v-1h1v-1l1,1v-1h1v1h1l2,2l1,-1v-2h1v-4l1,-1h2v1h4l-1,-1h1v-1l4,6h4l1,1v-1l1,1v-1h2l2,2v-1l1,2l1,1v-2l4,2v1l2,1h2l5,1v-2h-1v1l-1,-1h3v1h1l1,2h2v-1v2h1l1,1l7,4l9,-4l6,2l-1,23l-5,-4l-8,3l-7,-2l3,-1v1l-1,3l9,6h4l-1,-8l3,4l2,16h-11l-1,4l-6,-4l-5,3l3,6l-1,5l-4,-1l-1,1v1l-8,6l4,3l3,1l-1,7l-1,6l-7,2l-2,5l7,-6l3,2l-1,13l3,7l8,4l-1,13l2,5l6,7l-3,10h-7l-1,6l3,5h4l-3,6h-8l-2,9l3,1l-1,13h3l1,11v3v-1h-2v1l-1,1v1h1v2l1,1h1v1h1v2l1,1v1l1,1v3h1v1h1v3l1,1h1v1h2l1,-1l3,2l4,-5l-3,-6l2,-4l-6,-8l-10,-6v-6h-3v-14l-3,-1l2,-7l10,-1l1,-6l-5,-9h8l6,-8l-1,-1l-4,-13l-5,-9l4,-9l-13,-8l4,-13l5,1l-8,-1l4,-12l-5,-15l3,1h5l-3,-11l3,1l9,3l-1,-4l10,2l3,8l-1,9l4,8l1,7l4,7v10l5,4l2,11v14l7,8l6,13h-1l-3,2l10,16l5,14l3,2l1,12l6,7l10,24l4,7l17,35l4,6l3,5l11,12l4,-2l-11,-12l-1,-3h1l6,8l9,14l4,5l8,19l-8,8l-1,-9l2,-12l-2,-7l-1,8l-7,16v23l-7,-14l-2,-25l1,-6l-8,-4v-10l5,-5l-12,-9h-2l5,24l11,34l8,18l4,12l7,17l14,26l-1,4l1,-2l12,20l6,21l6,22l11,19l3,7l-10,-1l-1,-1v-1h-1l2,4v1l3,6l1,-5h6l5,6l6,11l6,15h-7l3,4h6l5,18l1,4v2l-1,-1v-4l-1,-1l-1,1v7l1,2v30h1v-31l1,1v29l-3,16l-1,15l-3,33l-2,1l1,17ZM966,752l1,3v13l-3,1l2,-13l-1,-1ZM951,557h-1l-2,-6l-11,-18l1,-3ZM951,831l-10,22l-4,7l-11,11l-5,8l-6,7l1,-6l16,-16l4,-5v-6l6,-5l1,-8ZM935,516l3,11l-2,1l-3,-12l-2,-8l-5,-9v-7l-7,-7v-7l6,10l5,18ZM893,409l2,-11l1,19l4,21l8,18l6,10l-5,-3l-2,-9l-9,-14l-3,-12l1,-15ZM829,251l-8,-17l-5,-10l-1,-7l5,15l10,19l18,41l-13,-25ZM856,845l4,7l-9,-2ZM809,196v5l-5,-6l-1,-7l4,-4ZM821,778l4,3l-4,3l-3,-4ZM793,135l2,6l7,35l-7,-12l1,-7l-5,-8l-4,-14l1,-5l-3,-6l1,-10l4,3ZM809,925l5,5l-4,4l-4,-13ZM783,98l5,4v6l-6,-4ZM780,942l4,-1l-1,-5l4,-7l5,9ZM761,748l9,3l-4,5l-4,-1l-4,-7ZM755,946l7,-2l1,4l-10,2ZM701,675l10,1l4,4l3,-4l4,3l-6,4l-8,-2ZM704,643l5,2l1,10l5,15h-5l-4,-19l-4,-4ZM381,210l-6,6l-24,13l-5,1l18,-10l9,-3ZM332,217l4,3l-6,6l-11,-7l10,1ZM125,115l-15,2v-1l15,-2l2,-1h24l1,1h-27Z"/>
<g class="geos"><path data-name="Hernando" class="geo-053" d="M687,363l-2,2l10,11h1l1,1h2l2,-1l7,7h5v6l-25,1v6h-52l3,-13l-2,-18l4,-6h26v4Z"/><path data-name="Wakulla" class="geo-129" d="M434,130l6,4l21,1l-1,24l-12,4l-8,-2l-4,-4v8l-7,-3l-4,4v12l-11,-1l-1,-3l-7,1l-3,-3l-7,-2l-6,-10v-2l-2,-3l-1,-8l-3,-9l-4,-1l2,-7Z"/><path data-name="Walton" class="geo-131" d="M178,29h32v1h11l-1,2v36l-1,3l24,1l-3,5l-5,3l3,8v12l3,2l-4,6h-8l-5,8v17l-11,-5l-21,-8l-17,-3v-3l8,2l12,-1l1,-4l7,6h6v-7l-15,-8l-11,1l-7,2v-25l1,-1v-32Z"/><path data-name="Volusia" class="geo-127" d="M774,287l4,-5l-3,-6l2,-4l-6,-8l16,-4v-1l1,-2h2l1,19h29l4,-1l-1,-21l6,-3l1,12l6,7l10,24l4,7l17,35l4,6h-8l-14,1v24l-2,1l-3,-3l-2,-10l-5,-7l-1,-9l-7,-1l-7,5l-4,-1l-1,-5h-14l-4,-7l1,-15l-11,-8l-3,-7l-4,1l-3,-11ZM829,251h1l18,41l-13,-25Z"/><path data-name="Hendry" class="geo-051" d="M780,669v-16l-1,-20l17,-1h41l21,-1l7,-27v28h1v30h1v23l1,7v11l-13,1h-24l-12,1l-1,-10v-27h-24Z"/><path data-name="Orange" class="geo-095" d="M762,347l1,-3h30l-6,16v5h17v4h25l18,-1l5,4l2,2l4,8l2,6l-2,4v2l1,6l4,5l-7,1h-22l-27,1h-37l-7,1v-29l-1,-7Z"/><path data-name="Broward" class="geo-011" d="M949,689l9,2h13l-3,33l-2,1l1,17h-12l-15,2l-10,1h-32l-3,-3l-25,1l-2,-40v-11h32v-1h33l9,-1Z"/><path data-name="Palm Beach" class="geo-099" d="M960,599l3,4h6l5,18l1,4v2l-1,-1v-4l-1,-1l-1,1v7l1,2v30h1v-31l1,1v29l-3,16l-1,15h-13l-9,-2l-7,1l-9,1h-33v1h-32l-1,-7v-23h-1v-30h-1v-28l1,-1h38l6,-1h35l14,-1Z"/><path data-name="Gilchrist" class="geo-041" d="M603,198h3l2,-9l10,-6l12,14h6v38l1,1h-13l-2,-3l-20,-1l-3,1l1,-26Z"/><path data-name="Miami-Dade" class="geo-086" d="M940,744l15,-2h12l-1,10l-1,-6l1,5l-5,5l-2,9v3l-1,5l-6,5l-3,12l-5,3l1,6l-3,6l-2,3l2,17h3l-4,9l-5,3v1l-6,6v4h-1v-1h-1v1h-4l-1,1h-2v2h1v1h-1l-1,-1v1h1v1h-1v-1h-1l1,-1h-1v-1h-2v1h-1l4,-3h-9l-4,3h9v1h-1v-1h-2v2h1h-1v1h-2v-1l1,1v-1h1v-1h-1v-1v1h-1v-1l-1,1v1h-1v2h-2v2h-2h1v-1h-1h2v-1h1l-1,-1v-1h-1l-1,1h-2v1h-2v1h-1l-1,1h4h-1l-1,2v1l-1,1h1h-1l-1,1v-1v1h-1v-1h2v-1h1v-1h-1v-1v1h-1l-1,-1v1h-1v-1v1h-1v2h-1v1l-1,-1h-2v-2h-1h1v1h-2v-1h-1v1l1,1h3h-1l-1,1h-1l-1,-1h-1l-1,-1h-1v2h-1v1v-1l1,-1h-1v-2h-2v1h-1v2v-3l1,-1v-1h-3h1h-1v1h1v1h-1v1h-1l-1,-1v-1h-3l-1,-27h-2v-28l-1,-4v-31l-1,-25l25,-1l3,3h32ZM966,752l1,3v13l-3,1l2,-13l-1,-1Z"/><path data-name="Highlands" class="geo-055" d="M777,507h4l19,-1h30v3l1,4l-3,3l-2,2l-4,5l1,2v4l6,4v1h1l1,3v1l1,2l1,1l4,3l2,-1l2,1l3,3v4l1,1l1,2l1,1h1l2,2v3l2,3v2l3,2l2,1l-29,1l-2,13h-10l1,12l-5,1h-33v-32l-1,-12v-36Z"/><path data-name="Citrus" class="geo-017" d="M641,359l-8,-5l6,-4l-6,-2l1,-6h-4v-8l8,2v-7l-9,-6l-4,-7l8,-5l11,4l8,-6l3,1v-1l2,1v-1h1v-1h2l4,2v2l9,4h2l1,1l5,4l9,15l7,4v9l-9,7l-1,7h-20v-4Z"/><path data-name="Okeechobee" class="geo-093" d="M852,563l-2,-3v-3l-2,-2h-1l-1,-1l-1,-2l-1,-1v-4l-3,-3l-2,-1l-2,1l-4,-3l-1,-1l-1,-2v-1l-1,-3h-1v-1l-6,-4v-4l-1,-2l4,-5l2,-2l3,-3l-1,-4v-3h34l13,-1v12h12l1,14v30l1,7v12l-26,24l1,-29l-3,-1l-1,-1h-1l-4,-5l-2,-1l-3,-2Z"/><path data-name="St. Johns" class="geo-109" d="M786,135l4,8l1,7l4,7v10l5,4l2,11v14l7,8l6,13h-1l-3,2h-1l-4,2l-5,3l-24,1v-19l-1,-1l-4,-13l-5,-9l4,-9l-13,-8l4,-13l5,1l7,3l12,-1ZM787,135h6l2,6l7,35l-7,-12l1,-7l-5,-8ZM809,196v5l-5,-6l-1,-7l4,-4Z"/><path data-name="DeSoto" class="geo-027" d="M778,551l1,12v32h-63v-43h33l1,-1Z"/><path data-name="Glades" class="geo-043" d="M857,568l4,5h1l1,1l3,1l-1,29l-7,27l-21,1h-41l-17,1v-38h33l5,-1l-1,-12h10l2,-13Z"/><path data-name="Manatee" class="geo-081" d="M652,509h31l1,-1h31v26l1,18v18h-25l-1,-25l-25,1l-14,-1l-2,-3l-11,-4l4,-4l-1,-5l-4,3v-5l8,2h10l-10,-2l5,-4l-4,-2Z"/><path data-name="Calhoun" class="geo-013" d="M326,90l1,-2l5,-1h23l-7,11v12l-5,2l-3,20l-7,12h-31l-4,-1l1,-18v-31l1,-3l26,1Z"/><path data-name="Lake" class="geo-069" d="M724,320h37v-13l2,-4v-28v1l1,1v3h1v1h1v4h2v1h2l1,-1l3,2l5,3l3,11l4,-1l3,7l11,8l-1,15l-1,3l-2,2l-1,1l-2,8h-30l-1,3v25l1,7v29h-24l-14,1v-88Z"/><path data-name="Pinellas" class="geo-103" d="M622,434h17v4l1,18l-3,-2l-4,8h-1h2l-4,6l12,4l4,10l-2,4l-1,12l-3,4l-6,-2v-4l-6,-2l-2,-11l-1,5l-6,-6l-1,4l-4,-8l6,-12l1,-7l2,-8Z"/><path data-name="Franklin" class="geo-037" d="M403,172l3,3l7,-1l1,3l15,6l-1,5l-15,-5l-10,3l-13,10h-3l-11,8l-18,7l4,-8l-8,4l-1,3h-8l-5,-5l2,-7l-2,-14l3,-7l1,-4l2,-2h-1h48ZM319,216l13,-11h8l6,5l1,4l-16,-1ZM381,210l-6,6l-24,13l-5,1l18,-10l9,-3ZM332,217l4,3l-6,6l-11,-7l10,1Z"/><path data-name="Pasco" class="geo-101" d="M713,389l1,24v8h-7v13h-85l4,-8l2,-14l4,-5v-6l4,-5h52v-6Z"/><path data-name="Sumter" class="geo-119" d="M681,321h26l17,-1l1,1v88l-2,4l-2,-1l-1,-1h-2l-2,1l-2,1l-1,-24v-6h-5l-7,-7l-2,1h-2l-1,-1h-1l-10,-11l2,-2l1,-7l9,-7v-9l-7,-4Z"/><path data-name="Seminole" class="geo-117" d="M793,344l2,-8l1,-1l2,-2l1,-3l4,7h14l1,5l4,1l7,-5l7,1l1,9l5,7l2,10l3,3l-18,1h-25v-4h-17v-5Z"/><path data-name="Bradford" class="geo-007" d="M684,171v-1l3,-1l13,-13l-1,-4h11l1,5v55l-6,-8l-4,-8l-16,-2v1l-4,-1l-9,-4h-2l-1,-1h-1l-1,-2v-1l-1,-1v-2h-1h8l4,-4l3,-1l2,-3Z"/><path data-name="Duval" class="geo-031" d="M749,91l3,-1l6,1l4,-3l2,3l3,-1v1l-1,3l9,6h4l-1,-8l3,4l2,16h-11l-1,4l-6,-4l-5,3l3,6l-1,5l-4,-1l-1,1v1l-8,6l4,3l3,1l-1,7h-3l-15,1h-27v-12l2,-2l2,-2l34,-34ZM793,135h-6l1,-5l-3,-6l1,-10l4,3ZM786,135v21l-12,1l-7,-3l-8,-1l4,-12l-5,-15l3,1h5l-3,-11l3,1l9,3l-1,-4l10,2l3,8ZM783,98l5,4v6l-6,-4Z"/><path data-name="Martin" class="geo-085" d="M940,566l3,6l1,-5h6l5,6l6,11l6,15h-7l-1,2l-14,1h-35l-6,1h-38l-1,1l26,-24v-12l13,-1h34ZM939,562v-1l8,-4l3,7l-10,-1Z"/><path data-name="Dixie" class="geo-029" d="M554,199l13,-1h37h-1l-3,9l-1,26l3,-1l-6,8v9l-5,5v6l-5,3v4l-5,3h-6l-10,-16l-5,1l-4,-5l-11,-7l-1,-22h2l2,1l5,-15Z"/><path data-name="Escambia" class="geo-033" d="M46,68h-1v-1h-1v-1l-1,-1v-1h-2l-2,-1l-1,-1h-1v-2h-1v-2l-1,-1v-1l-1,-1v-1h-1v-1h-1v-1h-1v-2h-3v-2h-2v-2h-1v-6h1v-2h1v-1l1,-2v-1h1v-2l1,-1v-6h-1v-1h17v1h26l2,1l9,-1l-11,10l-5,1l-4,27l6,3v15l7,9h4l2,12l-3,6l-13,7l2,3h-5l-13,5l-5,-1l4,-4l-1,-8l10,-2l-1,-5h-6l-4,-5h1v-1l-1,-1v-1l-1,-1h-1h1v-3h1v-2h1v-1h2v-2l1,-1v-4h1l1,-1v-6h-1v-3l-2,-1h-1l-1,-1h-1v-1Z"/><path data-name="Monroe" class="geo-087" d="M810,769h31l26,-1h4v31l1,4v28h2l1,27l-5,4l-12,3h-10l-14,-13l3,-17h7l-1,5l4,8l9,5h10l3,-6l-12,-13l-6,4l-2,-4l-9,-1l2,-4h-5l-3,-14l-6,-6l3,-4l7,-2l11,5l-1,-6l-7,-1l-3,-5l-6,9l-7,-1l-6,-19l8,-4v-3l-8,-1l-1,6l-7,-2v-5l-5,-1ZM951,831l-10,22l-4,7l-11,11l-5,8l-6,7l1,-6l16,-16l4,-5v-6l6,-5l1,-8ZM856,845l4,7l-9,-2ZM821,778l4,3l-4,3l-3,-4ZM809,925l5,5l-4,4l-4,-13ZM780,942l4,-1l-1,-5l4,-7l5,9ZM755,946l7,-2l1,4l-10,2Z"/><path data-name="Flagler" class="geo-035" d="M810,219h1l10,16l5,14l3,2l-6,3l1,21l-4,1h-29l-1,-19h-2l-6,-1l-1,-9l-3,-3l-1,-19l24,-1l5,-3ZM815,217l5,15l10,19h-1l-8,-17l-5,-10Z"/><path data-name="Lee" class="geo-071" d="M716,634l17,-1h46l1,20v16l1,13h-13v15h-10l-10,1l-4,-2l-1,-17h-8l-4,-4l-9,-1l1,-6l4,2l7,-4l6,-14l9,-8l-10,5h1l-5,3l-4,13l-12,2l-1,-13l-4,-5ZM701,675l10,1l4,4l3,-4l4,3l-6,4l-8,-2ZM704,643l5,2l1,10l5,15h-5l-4,-19l-4,-4Z"/><path data-name="Bay" class="geo-005" d="M224,116l4,-3h11l2,-4h25l21,1v-19h13l-1,3v31l-1,18v25v-3l-11,3l-1,-9l-5,-1l1,-4l-9,2l-9,-7l-7,-2l6,-10l11,-3l4,-12l-7,11l-11,1l-3,5l-1,-8l-13,-1l-2,9l5,2l5,-4l3,11l4,4l-10,-4l-10,-8l-14,-7ZM298,169v14l-3,-3l-8,-1l-1,-3l-11,-11l-13,-6l7,1l-8,-5h9v3h6l10,12l7,-3Z"/><path data-name="Putnam" class="geo-107" d="M728,242l-3,-1l-5,2l-9,5v-36l7,-3l7,-1l3,-7l7,-1l6,-5h25l6,7l-3,10h-7l-1,6l3,5h4l-3,6h-8l-2,9l3,1l-1,13h3l1,11l-11,-1v-9h-4v-8h-8v-5ZM777,206v19l1,19l3,3l1,9l6,1l-1,2v1l-16,4l-10,-6v-6h-3v-14l-3,-1l2,-7l10,-1l1,-6l-5,-9h8l6,-8Z"/><path data-name="Jefferson" class="geo-065" d="M470,92l-1,-15l4,1h1l14,1h12v1h14l4,1l1,9l-5,5l-7,2l-5,5l2,10l-5,7h-5l-1,2l3,7l-2,1l-2,1l-1,2l-1,1v1l-2,1h-1l-5,4h-1l-1,1v3l-5,5l-5,12l-10,-1l1,-24v-24l4,-5v-6h7Z"/><path data-name="Lafayette" class="geo-067" d="M548,137l15,-1v12l4,11l9,-1l9,4l11,10l4,8h3l1,9h4l-2,9h-39l-13,1h-5l-1,-9Z"/><path data-name="Hamilton" class="geo-047" d="M572,118l-1,-3l-5,-1l1,-6l-4,-2l-2,-16l-1,-5l-5,-2l75,5h1l-5,4v8l3,4v1l7,7l-5,14l-5,1l-8,-2l-7,-1l-5,-6l-4,-1l-2,-1l-5,-3h-9l-9,-1Z"/><path data-name="Levy" class="geo-075" d="M602,232l20,1l2,3h13l4,3h8l2,9l16,-2l1,18v21h-16v24l-8,6l-11,-4l-8,5l1,-7l-9,-4l1,-13l-7,1l-21,-1l-4,-5v-7l-5,-4l-7,-1l7,-5l5,-3v-4l5,-3v-6l5,-5v-9Z"/><path data-name="Polk" class="geo-105" d="M707,434v-13h7v-8l2,-1l2,-1h2l1,1l2,1l2,-4l14,-1h24v11l14,1l4,7v9h8v8l14,1v1l-1,1l-4,5l-7,-4l-1,1h-1l3,2l1,2l1,2l5,1l1,2v1l3,3h1v2h-1l5,2l2,10l7,1h1l4,6l4,9l4,9l1,2l-1,3h-30l-19,1h-30v1h-36v-37l-1,-3v-35Z"/><path data-name="St. Lucie" class="geo-111" d="M891,568l-1,-7v-30l-1,-14l11,-1h30l6,22l11,19l-8,4h-1l2,4v1l-2,1h-34ZM933,516h2l3,11l-2,1ZM951,557h-1l-2,-6l-11,-18l1,-3Z"/><path data-name="Okaloosa" class="geo-091" d="M129,27h9l1,1h30l1,1h8l-1,18v32l-1,1v25l-4,1l-4,-5l-12,7l-7,-3l1,8l-16,-2l-9,1l2,-32v-22h1v-21ZM175,114v3l-14,-1l2,-5ZM125,115v-1l2,-1h24l1,1h-27Z"/><path data-name="Columbia" class="geo-023" d="M629,105v-1l-3,-4v-8l5,-4l14,1h5l9,1h1v64l1,4l-9,4l-2,4l1,3l-1,1l-4,1v5l5,6l-4,2l-2,1v7l-9,5h-6l-12,-14l2,-3l4,-4l-5,-1v-46l-1,-4l8,2l5,-1l5,-14Z"/><path data-name="Holmes" class="geo-059" d="M256,30h31l-5,4v5l-5,6l-3,7v2l-3,8l1,4l-15,-1v-3l-6,-3h-4l-3,11l-1,2l-24,-1l1,-3v-36l1,-2h19Z"/><path data-name="Collier" class="geo-021" d="M744,696l4,2l10,-1h10v-15h13l-1,-13l14,-1h24v27l1,10l12,-1h24l13,-1l2,40l1,25h-4l-26,1h-31l-7,-7l-6,-1l-3,-4l-17,-1l1,-4h-8l-10,-9l1,-4l-7,-3l-1,-10l-3,1l-2,-19ZM761,748l9,3l-4,5l-4,-1l-4,-7Z"/><path data-name="Baker" class="geo-003" d="M703,120h1v1h5l1,-1v32h-11l-39,2v-64h-1h23l2,1h5l-2,1v2h-1v3h1v2l1,1v1h1l1,2h1v2l-1,1l1,1v2l-1,1v4h1v2l1,1l1,1l1,1v1h1v1h3l1,-1h4Z"/><path data-name="Sarasota" class="geo-115" d="M651,545l14,1l25,-1l1,25h25v25l-25,1v13h-12l-13,-16l-5,-16l-1,-7l-5,-5l-1,-11Z"/><path data-name="Suwannee" class="geo-121" d="M563,136l4,-6l2,-10l3,-2l5,-6l9,1h9l5,3l2,1l4,1l5,6l7,1l1,4v46l5,1l-4,4l-2,3l-10,6h-4l-1,-9h-3l-4,-8l-11,-10l-9,-4l-9,1l-4,-11Z"/><path data-name="Taylor" class="geo-123" d="M470,160l5,-12l5,-5v-3l1,-1h1l5,-4h1l2,-1v-1l1,-1l1,-2h43v7h13v53l1,9h5l-1,8l-5,15l-2,-1l-9,-1l-5,-6l-7,-3l-4,-12l-11,-13l-10,-6l-3,-4h-7l-12,-7l-8,-9Z"/><path data-name="Union" class="geo-125" d="M699,152l1,4l-13,13l-3,1v1l-2,4l-2,3l-3,1l-4,4h-8l-9,-1h-5l-5,-6v-5l4,-1l1,-1l-1,-3l2,-4l9,-4l-1,-4Z"/><path data-name="Clay" class="geo-019" d="M752,144h3l-1,6l-7,2l-2,5l7,-6l3,2l-1,13l3,7l8,4l-1,13l2,5h-25l-6,5l-7,1l-3,7l-7,1l-7,3v-55l-1,-5v-7h27Z"/><path data-name="Madison" class="geo-079" d="M492,130l2,-1l2,-1l-3,-7l1,-2h5l5,-7l-2,-10l5,-5l7,-2l5,-5l-1,-9l20,1h2l15,1l5,2l1,5l2,16l4,2l-1,6l5,1l1,3l-3,2l-2,10l-4,6l-15,1h-13v-7Z"/><path data-name="Osceola" class="geo-097" d="M763,419v-11l7,-1h37l27,-1h22l7,-1v59l1,16h-2l2,13v13h-34l1,-3l-1,-2l-4,-9l-4,-9l-4,-6h-1l-7,-1l-2,-10l-5,-2h1v-2h-1l-3,-3v-1l-1,-2l-5,-1l-1,-2l-1,-2l-3,-2h1l1,-1l7,4l4,-5l1,-1v-1l-14,-1v-8h-8v-9l-4,-7Z"/><path data-name="Marion" class="geo-083" d="M668,264l-1,-18h25l1,3l1,1h1h-1h1h-3v3l5,2v-1h2v1v-1l1,1l6,-2h1l4,-5l9,-5l5,-2l3,1l10,-2v5h8v8h4v9l11,1v3v-1h-2v1l-1,1v1h1v2l1,1h1v1h1v3h1v28l-2,4v13h-37l-17,1h-26l-5,-4l-1,-1h-2l-9,-4v-2l-4,-2h-2v1h-1v1l-2,-1v1l-3,-1v-24h16Z"/><path data-name="Jackson" class="geo-063" d="M338,30h6l4,1l-1,1v3h3v5h1v1h1l1,2v1l1,1v2l1,1l-1,1h1v2l1,1v1h-1v1l2,11l1,1l6,6l-1,5l-8,10h-23l-5,1l-1,2v2l-26,-1h-6l1,-30h-7v-7h-14v-2l3,-7l5,-6v-5l5,-4h51Z"/><path data-name="Alachua" class="geo-001" d="M636,197l9,-5v-7l2,-1l4,-2h5l9,1h1v2l1,1v1l1,2h1l1,1h2l9,4l4,1v-1l16,2l4,8l6,8v36l-4,5h-1l-6,2l-1,-1v1v-1h-2v1l-5,-2v-3h3h-1h1h-1l-1,-1l-1,-3h-25l-16,2l-2,-9h-8l-4,-3l-1,-1Z"/><path data-name="Hardee" class="geo-049" d="M715,508h36v-1h26l1,8v36h-28l-1,1h-33l-1,-18Z"/><path data-name="Nassau" class="geo-089" d="M764,91l-2,-3l-4,3l-6,-1l-3,1l-1,4l-34,34l-2,2l-2,2v-13h1v-1h1h-1v-1h1h-1v-5l1,-1l-1,-2l1,-1v-1h1v-3l1,-1v-11l1,-2v-2h-1v-3h-2v-3v1v-1h-1v-2l-1,-2h-1v-2h1h-1v-1l1,-1h-1h1v-3h1v-2l-1,-1v-3l1,-1v-1l1,1v-1h2v-1l-1,-1v-1h-1v-1h1v-1l1,1v-1h1v1h1l2,2l1,-1v-2h1v-4l1,-1h2v1h4l-1,-1h1v-1l4,6h4l1,1v-1l1,1v-1h2l2,2v-1l1,2l1,1v-2l4,2v1l2,1h2l5,1v-2h-1v1l-1,-1h3v1h1l1,2h2v-1v2h1l1,1l7,4l9,-4l6,2l-1,23l-5,-4l-8,3Z"/><path data-name="Washington" class="geo-133" d="M274,54h14v7h7l-1,30h-7v19l-21,-1h-25l-2,4h-11l-4,3l5,-8h8l4,-6l-3,-2v-12l-3,-8l5,-3l3,-5l1,-2l3,-11h4l6,3v3l15,1l-1,-4Z"/><path data-name="Santa Rosa" class="geo-113" d="M83,25l12,1h5l17,1h12l-1,10v21h-1v22l-2,32l-23,1l-19,4l5,-5h10l12,-8l-11,-7l3,-3v-7l-5,4l-4,13l-5,1l1,-11l-6,-7l-4,-2l1,5h-4l-7,-9v-15l-6,-3l4,-27l5,-1Z"/><path data-name="Brevard" class="geo-009" d="M863,405l-4,-5l-1,-6v-2l2,-4l-2,-6l-4,-8l-2,-2l-5,-4l2,-1v-24l14,-1l5,24l11,34l8,18l4,12l7,17l14,26l-1,4l-1,2h-33l-13,1l-1,-16ZM865,342h6l3,5l11,12l4,-2l-11,-12l-1,-3h1l6,8l9,14l4,5l8,19l-8,8l-1,-9l2,-12l-2,-7l-1,8l-7,16v23l-7,-14l-2,-25l1,-6l-8,-4v-10l5,-5ZM893,409l2,-11l1,19l4,21l8,18l6,10l-5,-3l-2,-9l-9,-14l-3,-12l1,-15Z"/><path data-name="Liberty" class="geo-077" d="M391,118l-9,8v4l-2,7l4,1l3,9l1,8l2,3v2l6,10l7,2l-10,-1h-48h1l-2,2l-1,4l-4,-5l-7,-2l-4,-13l2,-10l3,-3l7,-12l3,-20l5,-2v-12l7,-11h6v10h9l3,3v8h9v6l4,4Z"/><path data-name="Indian River" class="geo-061" d="M889,517h-12v-12l-13,1v-13l-2,-13h2l13,-1h33l1,-2l1,-2l12,20l6,21h-30ZM935,516h-2l-2,-8l-5,-9v-7l-7,-7v-7l6,10l5,18Z"/><path data-name="Gadsden" class="geo-039" d="M355,87l8,-10l1,-5h1l26,2h13l4,1h1l26,1l-1,1h-1l-1,3v5h-1l-1,2l-1,2h-1l-3,1l-3,9v1h-1v4l-1,1l-4,3l-9,1l-9,6h-5l-2,3h-5l-4,-4v-6h-9v-8l-3,-3h-9v-10Z"/><path data-name="Gulf" class="geo-045" d="M298,169v-26l4,1h31l-3,3l-2,10l4,13l7,2l4,5l-3,7l2,14l-2,7h-8l-13,11l-14,2l-3,3l-4,-5l8,2l2,-3l1,-15l-11,-17Z"/><path data-name="Leon" class="geo-073" d="M421,104v-4h1v-1l3,-9l3,-1h1l1,-2l1,-2h1v-5l1,-3h1l1,-1h2l2,1h30l1,15l2,8h-7v6l-4,5v24l-21,-1l-6,-4h-52v-4l9,-8l2,-3h5l9,-6l9,-1l4,-3Z"/><path data-name="Hillsborough" class="geo-057" d="M640,456l-1,-18v-4h68l7,-1v35l1,3v37h-31l-1,1h-31l10,-15l5,-2l5,-10v-1l1,-3h6h-6l-9,-11l-4,2l2,15l-8,-2l1,-6l-2,-12l-8,-2Z"/><path data-name="Charlotte" class="geo-015" d="M691,600v-4l25,-1h63v38h-46l-17,1l1,-16l-4,-1l-1,-6l13,-6h-8l-1,3l-8,-2l-5,5l-3,-5h-5ZM679,609h12v-8l2,5l8,4l3,13l-4,5h-8l-8,-6Z"/></g>
  <path class="counties-mesh" d="M725,409v-88l-1,-1h37v-13l2,-4v-28M811,219h-1l-4,2l-5,3l-24,1v-19M602,232l-3,1l1,-26l3,-9h1M891,568l13,-1h34l2,-1M492,130l-1,2l-1,1v1l-2,1h-1l-5,4h-1l-1,1v3l-5,5l-5,12M933,516h2M713,389l-25,1v6h-52M622,434h17v4l1,18M889,517l1,14v30l1,7v12l-26,24l1,-29l-3,-1l-1,-1h-1l-4,-5M767,154l7,3l12,-1v-21M787,135h6M716,570v-18h33l1,-1h28M652,509h31l1,-1h31v26l1,18M716,634l17,-1h46v-38h-63v-25h-25l-1,-25l-25,1l-14,-1M326,90l1,-2l5,-1h23l-7,11v12l-5,2l-3,20l-7,12h-31l-4,-1l1,-18v-31l1,-3l26,1v-2M763,408h-24l-14,1l-2,4l-2,-1l-1,-1h-2l-2,1l-2,1M625,316l8,-5l11,4l8,-6l3,1v-1l2,1v-1h1v-1h2l4,2v2l9,4h2l1,1l5,4l9,15l7,4v9l-9,7l-1,7l-2,2l10,11h1l1,1h2l2,-1l7,7h5v6l1,24v8h-7v13h-68M681,321h26l17,-1M641,359h26v4h20M364,72l-1,5l-8,10h6v10h9l3,3v8h9v6l4,4h5l-9,8v4h52l6,4l21,1l-1,24M710,145v-12l2,-2l2,-2l34,-34l1,-4l3,-1l6,1l4,-3l2,3M939,561l8,-4M637,236h-13l-2,-3l-20,-1l-6,8v9l-5,5v6l-5,3v4l-5,3M83,25l-11,10l-5,1l-4,27l6,3v15l7,9h4M780,669l1,13h-13v15h-10l-10,1l-4,-2M221,30l-1,2v36l-1,3l24,1l-3,5l-5,3l3,8v12l3,2l-4,6h-8l-5,8l4,-3h11l2,-4h25l21,1v-19h13M298,143v25M298,169v14M224,116v17M761,263l-11,-1v-9h-4v-8h-8v-5l-10,2l-3,-1l-5,2l-9,5v-36l7,-3l7,-1l3,-7l7,-1l6,-5h25M461,135v-24l4,-5v-6h7l-2,-8l-1,-15M175,117v-3M176,105v-25l1,-1v-32l1,-18M763,408v-29l-1,-7v-25l1,-3h30l-6,16v5h17v4h25l18,-1l-3,-3l-2,-10l-5,-7l-1,-9l-7,-1l-7,5l-4,-1l-1,-5h-14l-4,-7l1,-15l-11,-8l-3,-7l-4,1l-3,-11l-5,-3M788,257h2l1,19h29l4,-1l-1,-21l6,-3h1M554,199h-5l-1,-9v-53M518,81l1,9l-5,5l-7,2l-5,5l2,10l-5,7h-5l-1,2l3,7l-2,1l-2,1h43v7h13l15,-1l4,-6l2,-10l3,-2l-1,-3l-5,-1l1,-6l-4,-2l-2,-16l-1,-5l-5,-2M659,90h1v64l1,4l-9,4l-2,4l1,3l-1,1l-4,1v5l5,6l-4,2l-2,1v7l-9,5v38l1,1l4,3h8l2,9l16,-2l1,18v21h-16v24M755,144h-3l-15,1h-27v7M789,449M618,183l2,-3l4,-4l-5,-1v-46l-1,-4l-7,-1l-5,-6l-4,-1l-2,-1l-5,-3h-9l-9,-1l-5,6M863,342l-14,1v24l-2,1l5,4l2,2l4,8l2,6l-2,4v2l1,6l4,5l-7,1h-22l-27,1h-37l-7,1v11l14,1l4,7v9h8v8l14,1v1l-1,1l-4,5l-7,-4l-1,1h-1M868,692h32v-1h33l9,-1l7,-1l9,2h13M967,742h-12l-15,2l-10,1h-32l-3,-3l-25,1l-2,-40M865,604v28h1v30h1v23l1,7v11l-13,1h-24l-12,1l-1,-10v-27h-24l-14,1v-16l-1,-20l17,-1h41l21,-1l7,-27l1,-1h38l6,-1h35l14,-1l1,-2M606,198l2,-9l10,-6l12,14h6M789,449l3,2l1,2l1,2l5,1l1,2v1l3,3h1v2h-1l5,2l2,10l7,1h1l4,6l4,9l4,9l1,2l-1,3v3l1,4l-3,3l-2,2l-4,5l1,2v4l6,4v1h1l1,3v1l1,2l1,1l4,3l2,-1l2,1l3,3v4l1,1l1,2l1,1h1l2,2v3l2,3v2l3,2l2,1l-29,1l-2,13h-10l1,12l-5,1h-33v-32l-1,-12v-36l-1,-8h-26v1h-36M715,508v-37l-1,-3v-35l-7,1M125,112l2,-32v-22h1v-21l1,-10M875,858l-1,-27h-2v-28l-1,-4v-31l-1,-25M771,264l16,-4v-1l1,-2l-6,-1l-1,-9l-3,-3l-1,-19M716,595l-25,1v4M691,601v8h-12M665,183l-9,-1h-5M710,120v13M871,342h-6M667,246h25l1,3l1,1h1h-1M631,88l-5,4v8l3,4v1l7,7l-5,14l-5,1l-8,-2M695,250h-3v3l5,2v-1h2v1v-1l1,1l6,-2h1l4,-5M294,91l1,-30h-7v-7h-14M343,177l-4,-5l-7,-2l-4,-13l2,-10l3,-3M287,30l-5,4v5l-5,6l-3,7v2l-3,8l1,4l-15,-1v-3l-6,-3h-4l-3,11l-1,2M777,507h4l19,-1h64l13,-1v12h12l11,-1h30M911,477l-1,2h-33l-13,1h-2l2,13v13M435,76l-1,1h-1l-1,3v5h-1l-1,2l-1,2h-1l-3,1l-3,9v1h-1v4l-1,1l-4,3l-9,1l-9,6h-5l-2,3M319,216l13,-11h8l2,-7l-2,-14l3,-7l1,-4l2,-2h-1h48l10,1M810,769h31l26,-1h4M414,177l-1,-3l-7,1l-3,-3l-7,-2l-6,-10v-2l-2,-3l-1,-8l-3,-9l-4,-1l2,-7M546,221l2,1l5,-15l1,-8l13,-1h37M563,136v12l4,11l9,-1l9,4l11,10l4,8h3l1,9h4M699,152h11l1,5v55l-6,-8l-4,-8l-16,-2v1l-4,-1l-9,-4h-2l-1,-1h-1l-1,-2v-1l-1,-1v-2h-1h8l4,-4l3,-1l2,-3l2,-4v-1l3,-1l13,-13l-1,-4l-39,2M799,330l-1,3l-2,2l-1,1l-2,8M863,405v59l1,16"/>
<g class="districts"><path data-name="Congressional District 1" class="district-1201" d="M25,43v-3h1v-2h1v-1l1,-2v-1h1v-2l1,-1v-6h-1v-1h17v1h26l2,1l9,-1l12,1h5l17,1h21l1,1h30l1,1h40v1h67v7l-3,8l-5,4l-10,-1l-7,7l-1,4h-4l-3,11l-1,2l-3,5l-5,3l3,8v12l3,2l-4,6h-8l-5,8v17l-11,-5l-21,-8l-17,-3l-14,-1l2,-5l12,3l8,2l12,-1l1,-4l7,6h6v-7l-15,-8l-11,1l-7,2l-4,1l-4,-5l-12,7l-7,-3l1,8l-16,-2l-9,1l-23,1l-19,4l5,-5h10l12,-8l-11,-7l3,-3v-7l-5,4l-4,13l-5,1l1,-11l-6,-7l-4,-2l1,5l2,12l-3,6l-13,7l2,3h-5l-13,5l-5,-1l4,-4l-1,-8l10,-2l-1,-5h-6l-4,-5h1v-1l-1,-1v-1l-1,-1h-1h1v-3h1v-2h1v-1h2v-2l1,-1v-4h1l1,-1v-6h-1v-3l-2,-1h-1l-1,-1h-1v-1h-2v-1h-1v-1l-1,-1v-1h-2l-2,-1l-1,-1h-1v-2h-1v-2l-1,-1v-1l-1,-1v-1h-1v-1h-1v-1h-1v-2h-3v-2h-2v-2h-1v-3ZM125,115l-15,2v-1l15,-2l2,-1h24l1,1h-27Z"/><path data-name="Congressional District 2" class="district-1202" d="M224,133v-17l5,-8h8l4,-6l-3,-2v-12l-3,-8l5,-3l3,-5l1,-2l3,-11h4l1,-4l7,-7l10,1l5,-4l3,-8v-7h67l4,1l-1,1v3h3v5h1v1h1l1,2v1l1,1v2l1,1l-1,1h1v2l1,1v1h-1v1l2,11l1,1l6,6l-1,5l-8,10h6v10h9l3,3v8h9v6l4,4h5l-9,8v4h52l4,-4l-1,-6h4v-6l12,2l4,-2l-11,-4l-4,-7h-3l3,8l-10,-1l4,-6l-6,-2l-4,-4l9,-1l4,-13l4,-1v8l6,1v5h5l-2,7l11,2h5v11l7,8l9,1l-1,6l5,3l2,-1v-1l1,-1l1,-2h43v7h13l15,-1l4,-6l2,-10l3,-2l5,-6l9,1h9l5,3l2,1l4,1l5,6l7,1l8,2l13,1l-2,15l3,4h1h-1h1l1,2v-1l1,-1l3,3l14,-1v5l1,4l-9,4l-2,4l1,3l-1,1l-4,1v5l5,6l-4,2l-2,1v7l-9,5v38l1,1l4,3h8l2,9l16,-2l1,18l10,14l16,7l-1,4l-6,2l5,7l-16,19l-1,-1h-2l-9,-4v-2l-4,-2h-2v1h-1v1l-2,-1v1l-3,-1l-8,6l-11,-4l-8,5l1,-7l-9,-4l1,-13l-7,1l-21,-1l-4,-5v-7l-5,-4l-7,-1l7,-5h-6l-10,-16l-5,1l-4,-5l-11,-7l-1,-22h2l-9,-1l-5,-6l-7,-3l-4,-12l-11,-13l-10,-6l-3,-4h-7l-12,-7l-8,-9l-10,-1l-12,4l-8,-2l-4,-4v8l-7,-3l-4,4v12l-11,-1l15,6l-1,5l-15,-5l-10,3l-13,10h-3l-11,8l-18,7l4,-8l-8,4l-1,3h-8l-5,-5l6,5l1,4l-16,-1l-12,3l-14,2l-3,3l-4,-5l8,2l2,-3l1,-15l-11,-17l-3,-3l-8,-1l-1,-3l-11,-11l-13,-6l7,1l-8,-5h9v3h6l10,12l7,-3l5,2v-4l-11,3l-1,-9l-5,-1l1,-4l-9,2l-9,-7l-7,-2l6,-10l11,-3l4,-12l-7,11l-11,1l-3,5l-1,-8l-13,-1l-2,9l5,2l5,-4l3,11l4,4l-10,-4l-10,-8ZM381,210l-6,6l-24,13l-5,1l18,-10l9,-3ZM332,217l4,3l-6,6l-11,-7l10,1Z"/><path data-name="Congressional District 3" class="district-1203" d="M636,197l9,-5v-7l2,-1l4,-2l-5,-6v-5l4,-1l1,-1l-1,-3l2,-4l9,-4l-1,-4l39,-2h11v-7h27l15,-1h3l-1,6l-7,2l-2,5l7,-6l3,2l-1,13l3,7l8,4l-1,13l2,5l6,7l-3,10h-7l-1,6l3,5h4l-3,6h-8l-2,9l3,1l-1,13h3l1,11v3v-1h-2v1l-1,1v1h1v2l1,1h1v1h1v3h1v15l-7,-1l-23,1l-4,-4l-5,3l-12,-1v10h-20l-5,-7l6,-2l1,-4l-16,-7l-10,-14l-1,-18l-16,2l-2,-9h-8l-4,-3l-1,-1ZM777,206v19l1,19l3,3l1,9l6,1l-1,2v1l-16,4l-10,-6v-6h-3v-14l-3,-1l2,-7l10,-1l1,-6l-5,-9h8l6,-8Z"/><path data-name="Congressional District 4" class="district-1204" d="M709,76l1,-1h-1h1v-3h1v-2l-1,-1v-3l1,-1v-1l1,1v-1h2v-1l-1,-1v-1h-1v-1h1v-1l1,1v-1h1v1h1l2,2l1,-1v-2h1v-4l1,-1h2v1h4l-1,-1h1v-1l4,6h4l1,1v-1l1,1v-1h2l2,2v-1l1,2l1,1v-2l4,2v1l2,1h2l5,1v-2h-1v1l-1,-1h3v1h1l1,2h2v-1v2h1l1,1l7,4l9,-4l6,2l-1,23l-5,-4l-8,3l-7,-2l3,-1v1l-1,3l9,6h4l-1,-8l3,4l2,16h-11l-1,4l-6,-4l-5,3l-1,-10l-12,-3l-4,2l1,12h4l-1,10l-5,1l-17,2l-13,2l-2,2v-13h1v-1h1h-1v-1h1h-1v-5l1,-1l-1,-2l1,-1v-1h1v-3l1,-1v-11l1,-2v-2h-1v-3h-2v-3v1v-1h-1v-2l-1,-2h-1v-2h1h-1ZM809,196v1l-2,-1l-3,-1l-1,-7l4,-4l2,12ZM802,196l-1,1v-1v1v-1h-1v1h-1l-2,-4l-12,10l-4,8l-4,-1v-4l-1,-1l-4,-13l-5,-9l4,-9l-13,-8l4,-13l5,1l-8,-1l4,-12l-5,-15l3,1l1,1h-1l3,9l-1,-6l2,-3l1,-1h1l2,3l5,-3l-1,-7l-7,-3l9,3l-1,-4l10,2l3,8l-1,9l4,8l1,7l4,7v10l5,4l2,11ZM755,144h-3l1,-8l3,1ZM749,133v-6h8l-8,6ZM793,135l2,6l7,35l-7,-12l1,-7l-5,-8l-4,-14l1,-5l-3,-6l1,-10l4,3ZM783,98l5,4v6l-6,-4Z"/><path data-name="Congressional District 5" class="district-1205" d="M355,87l8,-10l1,-5h1l26,2h13l4,1h1l26,1h2l2,1h30l4,1h1l14,1h12v1h14l4,1l20,1h2l15,1l75,5h1l14,1h5l9,1h23l2,1h5l-2,1v2h-1v3h1v2l1,1v1h1l1,2h1v2l-1,1l1,1v2l-1,1v4h1v2l1,1l1,1l1,1v1h1v1h3l1,-1h5v1h5l1,-1v13l2,-2l13,-2l17,-2l5,-1l1,-10h-4l-1,-12l4,-2l12,3l1,10l3,6l-1,5l-4,-1l-1,1v1h-8v6l4,3l-1,8l-15,1h-27v7h-11l-39,2v-5l-14,1l-3,-3l-1,1v1l-1,-2h-1h1h-1l-3,-4l2,-15l-13,-1l-8,-2l-7,-1l-5,-6l-4,-1l-2,-1l-5,-3h-9l-9,-1l-5,6l-3,2l-2,10l-4,6l-15,1h-13v-7h-43l-1,2l-1,1v1l-2,1l-5,-3l1,-6l-9,-1l-7,-8v-11h-5l-11,-2l2,-7h-5v-5l-6,-1v-8l-4,1l-4,13l-9,1l4,4l6,2l-4,6l10,1l-3,-8h3l4,7l11,4l-4,2l-12,-2v6h-4l1,6l-4,4h-52v-4l9,-8h-5l-4,-4v-6h-9v-8l-3,-3h-9v-10ZM766,117l7,3l1,7l-5,3l-2,-3h-1l-3,-11l3,1Z"/><path data-name="Congressional District 6" class="district-1206" d="M749,320h12v-13l2,-4v-28h-1h1v1l1,1v3h1v1h1v3l1,1h1v1h2l1,-1l3,2l4,-5l-3,-6l2,-4l-6,-8l16,-4v-1l1,-2l-6,-1l-1,-9l-3,-3l-1,-19v-15l4,1l4,-8l12,-10l2,4h1v-1h1v1v-1v1l1,-1l7,8l6,13h-1l-3,2l10,16l5,14l3,2l1,12l6,7l10,24l4,7l17,35l4,6h-8l-14,1v24l-2,1l-3,-3l-2,-10l-5,-7l-1,-9l-7,-1l-7,5l-4,-1l-1,-5h-14l-4,-7l-1,3l-2,2l-1,1l-2,8h-30l-7,-4l1,-1v-7h-5l-1,-1l-3,-2ZM829,251l-8,-17l-5,-10l-1,-7l5,15l10,19l18,41l-13,-25Z"/><path data-name="Congressional District 7" class="district-1207" d="M787,360l6,-16l2,-8l1,-1l2,-2l1,-3l4,7h14l1,5l4,1l7,-5l7,1l1,9l5,7l2,10l3,3l-18,1l2,6h-5l-3,3l-16,1l-1,4l-6,2h-1v-13l-2,-1l-3,-6h-7Z"/><path data-name="Congressional District 8" class="district-1208" d="M828,385l1,-8l-3,-2h5l-2,-6l18,-1l2,-1v-24l14,-1l5,24l11,34l8,18l4,12l7,17l14,26l-1,4l1,-2l12,20l6,21h-30l-11,1h-12v-12l-13,1v-13l-2,-13h2l-1,-16v-59l-7,1h-22l-1,-15h-7ZM865,342h6l3,5l11,12l4,-2l-11,-12l-1,-3h1l6,8l9,14l4,5l8,19l-8,8l-1,-9l2,-12l-2,-7l-1,8l-7,16v23l-7,-14l-2,-25l1,-6l-8,-4v-10l5,-5ZM935,516h-2l-2,-8l-5,-9v-7l-7,-7v-7l6,10l5,18ZM893,409l2,-11l1,19l4,21l8,18l6,10l-5,-3l-2,-9l-9,-14l-3,-12l1,-15Z"/><path data-name="Congressional District 9" class="district-1209" d="M740,458l2,-3l1,-12l-1,-10l4,1l17,-9v-17l7,-1h37l-1,-24l1,-4l16,-1l3,-3l3,2l-1,8l-2,6h7l1,15h22l7,-1v59l1,16h-2l2,13v13h-64l-19,1l-4,-10l-10,-13l-1,-11l-9,-2v-8l-10,3l-1,-5l-6,-1v-2Z"/><path data-name="Congressional District 10" class="district-1210" d="M762,347l1,-3h30l-6,16v5h7l3,6l2,1v13h1l6,-2l1,24h-37l-7,1v-29l-1,-7Z"/><path data-name="Congressional District 11" class="district-1211" d="M625,316l8,-5l11,4l8,-6l3,1v-1l2,1v-1h1v-1h2l4,2v2l9,4h2l1,1l16,-19h20v-10l12,1l5,-3l4,4l23,-1l7,1v13l-2,4v13h-12l-1,9l3,2l1,1h5v7l-1,1l7,4l-1,3v25l1,7l-5,-1l-1,-5l-6,3l-4,-10l-5,-6v9l-6,3l-1,7h-10v30l-2,4l-2,-1l-1,-1h-2l-2,1l-2,1l-1,-24l-25,1v6h-52l3,-13l-2,-18l4,-6l-8,-5l6,-4l-6,-2l1,-6h-4v-8l8,2v-7l-9,-6l-4,-7Z"/><path data-name="Congressional District 12" class="district-1212" d="M636,396h52v-6l25,-1l1,24v8h-7v13h-45l-3,3l-20,1l1,18l-3,-2l-4,8h-1l-1,-5l-2,3l-8,-1l2,-8l-1,-17l4,-8l2,-14l4,-5v-6Z"/><path data-name="Congressional District 13" class="district-1213" d="M621,459l8,1l2,-3l1,5h2l-4,6l12,4l4,10l-2,4l-1,12l-3,4l-6,-2v-4l-6,-2l-2,-11l-1,5l-6,-6l-1,4l-4,-8l6,-12Z"/><path data-name="Congressional District 14" class="district-1214" d="M639,438l20,-1l3,-3h26l-4,8l-7,7h-7l2,10h4l-3,19l-9,-11l-4,2l2,15l-8,-2l1,-6l-2,-12l-8,-2l-5,-6Z"/><path data-name="Congressional District 15" class="district-1215" d="M688,434h19v-13h7v-8l2,-1l2,-1h2l1,1l2,1l2,-4v-30h10l1,-7l6,-3v-9l5,6l4,10l6,-3l1,5l5,1v46l-17,9l-4,-1l1,10l-1,12l-2,3v2l-4,4l-13,2l-9,2l1,3l-10,5h-11l-7,2l-4,-3l-4,3h-6l3,-19h-4l-2,-10h7l7,-7Z"/><path data-name="Congressional District 16" class="district-1216" d="M672,481l1,-3h6l4,-3l4,3l7,-2h11l10,-5v63l1,18v18h-25l-11,-4l-15,-3l2,10l-7,-3l-5,-5l-1,-11l-3,-9l-2,-3l-11,-4l4,-4l-1,-5l-4,3v-5l8,2h10l-10,-2l5,-4l-4,-2l6,-12l10,-15l5,-2l5,-10Z"/><path data-name="Congressional District 17" class="district-1217" d="M660,570l7,3l-2,-10l15,3l11,4h25v-18l-1,-18v-63l-1,-3l9,-2l13,-2l4,-4l6,1l1,5l10,-3v8l9,2l1,11l10,13l4,10l19,-1h64l13,-1v12h12l1,14v30l1,7v12l-26,24l-7,27l-21,1h-41l-17,1l1,20v4l-19,-3l-3,-8l-9,-2l-10,5h1l-7,-16l-17,1l1,-16l-4,-1l-1,-6l13,-6h-8l-1,3l-8,-2l-5,5l-3,-5h-5l-4,-6v1l2,5l8,4l3,13l-4,5h-8l-8,-6l-5,-13l-13,-16l-5,-16l-1,-7Z"/><path data-name="Congressional District 18" class="district-1218" d="M891,568l-1,-7v-30l-1,-14l11,-1h30l6,22l11,19l3,7l-10,-1l-1,-1v-1h-1l2,4v1l3,6l1,-5h6l5,6l6,11l6,15h-7l3,4h6l5,18h-1l-1,1h-5l-3,6l3,7l-14,4l-6,-2l-2,-4l-5,-1v5l-10,-8l-24,-22l-2,-4h-38l-1,1l26,-24ZM933,516h2l3,11l-2,1ZM951,557h-1l-2,-6l-11,-18l1,-3Z"/><path data-name="Congressional District 19" class="district-1219" d="M716,634l17,-1l7,16l-5,3l-4,13l-12,2l-1,-13l-4,-5ZM749,644l9,2l3,8l19,3v12l1,13h-13v15h-10l-1,15l1,15h7v7l13,9l-5,1l-3,8l-10,-9l1,-4l-7,-3l-1,-10l-3,1l-2,-19l-4,-12l-1,-17h-8l-4,-4l-9,-1l1,-6l4,2l7,-4l6,-14ZM761,748l9,3l-4,5l-4,-1l-4,-7ZM701,675l10,1l4,4l3,-4l4,3l-6,4l-8,-2ZM704,643l5,2l1,10l5,15h-5l-4,-19l-4,-4Z"/><path data-name="Congressional District 20" class="district-1220" d="M865,604l1,-1h38l2,4l24,22l10,8v-5l5,1l2,4l6,2l14,-4l-3,-7l3,-6h5v6l-2,14l-6,5l-3,-4l-6,1l-4,-3h-18l2,5l10,7l7,11v8l-3,17l-7,1v15h11l3,4l5,-2l-2,-6l6,1l-4,9l-1,1l3,6l-3,2l-5,3v-2l-1,-3h-1h1h-1l-11,-5l-7,7l-11,-2l1,12v10h11l17,-1h1l1,3l-15,2l-10,1h-32l-3,-3l-25,1l-2,-40v-11l-1,-7v-23h-1v-30h-1Z"/><path data-name="Congressional District 21" class="district-1221" d="M972,628v1l1,2v30h1v-31l1,1v29l-3,16l-14,3v12l-9,-2l3,-17v-8l-7,-11l-10,-7l-2,-5h18l4,3l6,-1l3,4l6,-5Z"/><path data-name="Congressional District 22" class="district-1222" d="M942,705v-15l7,-1l9,2v-12l14,-3l-1,15l-3,33l-2,1l-2,1l-4,1l-2,-2l-3,-2l5,-3l3,-2l-3,-6l1,-1l4,-9l-6,-1l2,6l-5,2l-3,-4Z"/><path data-name="Congressional District 23" class="district-1223" d="M924,718l11,2l7,-7l11,5h1h-1h1l1,3v2l3,2l2,2l4,-1l2,-1l1,17l-1,10l-1,-6h-2v-4h-3l2,-7l-5,-1l-2,3l-1,2h-1l-17,1h-11v-10Z"/><path data-name="Congressional District 24" class="district-1224" d="M940,744l15,-2l-1,-3l1,-2l2,-3l5,1l-2,7h3v4h2l1,5l-5,5l-2,9v3h-4l-3,-2l-3,-11h-4v-6Z"/><path data-name="Congressional District 25" class="district-1225" d="M758,697h10v-15h13l-1,-13v-16l-1,-20l17,-1h41l21,-1l7,-27v28h1v30h1v23l1,7v11l2,40l25,-1l3,3h32l10,-1l5,5v6h4l3,11l-6,5l-7,1l-5,1h-27l-14,1h-22v-6h-4l-26,1h-31l-7,-7l-6,-1l-3,-4l-17,-1l1,-4h-8l3,-8l5,-1l-13,-9v-7h-7l-1,-15Z"/><path data-name="Congressional District 26" class="district-1226" d="M810,769h31l26,-1h4v6h22l14,-1h27l5,-1l1,5l-6,3v11l5,1l-3,8l6,5l-2,3l2,17h3l-4,9l-5,3v3v-2l-6,6v4h-1v-1h-1v1h-4l-1,1h-2v2h1v1h-1l-1,-1v1h1v1h-1v-1h-1l1,-1h-1v-1h-2v1h-1l4,-3h-9l-4,3h9v1h-1v-1h-2v2h1h-1v1h-2v-1l1,1v-1h1v-1h-1v-1v1h-1v-1l-1,1v1h-1v2h-2v2h-2h1v-1h-1h2v-1h1l-1,-1v-1h-1l-1,1h-2v1h-2v1h-1l-1,1h4h-1l-1,2v1l-1,1h1h-1l-1,1v-1v1h-1v-1h2v-1h1v-1h-1v-1v1h-1l-1,-1v1h-1v-1v1h-1v2h-1v1l-1,-1h-2v-2h-1h1v1h-2v-1h-1v1l1,1h3h-1l-1,1h-1l-1,-1h-1l-1,-1h-1v2h-1v1v-1l1,-1h-1v-2h-2v1h-1v2v-3l1,-1v-1h-3h1h-1v1h1v1h-1v1h-1l-1,-1v-1h-3l-5,4l-12,3h-10l-14,-13l3,-17h7l-1,5l4,8l9,5h10l3,-6l-12,-13l-6,4l-2,-4l-9,-1l2,-4h-5l-3,-14l-6,-6l3,-4l7,-2l11,5l-1,-6l-7,-1l-3,-5l-6,9l-7,-1l-6,-19l8,-4v-3l-8,-1l-1,6l-7,-2v-5l-5,-1ZM951,831l-10,22l-4,7l-11,11l-5,8l-6,7l1,-6l16,-16l4,-5v-6l6,-5l1,-8ZM856,845l4,7l-9,-2ZM821,778l4,3l-4,3l-3,-4ZM809,925l5,5l-4,4l-4,-13ZM780,942l4,-1l-1,-5l4,-7l5,9ZM755,946l7,-2l1,4l-10,2Z"/><path data-name="Congressional District 27" class="district-1227" d="M939,772l7,-1l6,-5l3,2h4l-1,5l-6,5l-3,12l-5,3l1,6l-3,6l-6,-5l3,-8l-5,-1v-11l6,-3ZM966,755h1v13l-3,1l2,-13Z"/></g>
  <path class="districts-mesh" d="M660,154l1,4l-9,4l-2,4l1,3l-1,1l-4,1v5l5,6l-4,2l-2,1v7l-9,5v38l1,1l4,3h8l2,9l16,-2l1,18l10,14l16,7l-1,4l-6,2l5,7l-16,19l-1,-1h-2l-9,-4v-2l-4,-2h-2v1h-1v1l-2,-1v1l-3,-1l-8,6l-11,-4l-8,5M780,657v12l1,13h-13v15h-10l-1,15l1,15h7v7l13,9l-5,1l-3,8M766,127h1l2,3l5,-3l-1,-7l-7,-3M364,72l-1,5l-8,10h6v10h9l3,3v8h9v6l4,4h5l-9,8v4h52l4,-4l-1,-6h4v-6l12,2l4,-2l-11,-4l-4,-7h-3l3,8l-10,-1l4,-6l-6,-2l-4,-4l9,-1l4,-13l4,-1v8l6,1v5h5l-2,7l11,2h5v11l7,8l9,1l-1,6l5,3l2,-1v-1l1,-1l1,-2h43v7h13l15,-1l4,-6l2,-10l3,-2l5,-6l9,1h9l5,3l2,1l4,1l5,6l7,1l8,2l13,1l-2,15l3,4h1l1,2v-1l1,-1l3,3l14,-1v5l39,-2h11v-7h27l15,-1l1,-8M749,133v-6h8M871,342h-6M847,368l-18,1l2,6h-5l-3,3l-16,1l-1,4l-6,2h-1v-13l-2,-1l-3,-6h-7v-5l6,-16M930,516h-30l-11,1h-12v-12l-13,1v-13l-2,-13h2l-1,-16v-59l-7,1h-22l-1,-15h-7l2,-6l1,-8l-3,-2M935,516h-2M864,506h-64l-19,1l-4,-10l-10,-13l-1,-11l-9,-2v-8l-10,3l-1,-5l-6,-1v-2l2,-3l1,-12l-1,-10l4,1l17,-9v-17l7,-1h37l-1,-24M763,408v-29l-1,-7v-25l1,-3M752,144h3M762,275h1v15l-7,-1l-23,1l-4,-4l-5,3l-12,-1v10h-20M763,379l-5,-1l-1,-5l-6,3l-4,-10l-5,-6v9l-6,3l-1,7h-10v30l-2,4l-2,-1l-1,-1h-2l-2,1l-2,1l-1,-24l-25,1v6h-52M714,413v8h-7v13h-45l-3,3l-20,1l1,18M632,462l-1,-5l-2,3l-8,-1M688,434l-4,8l-7,7h-7l2,10h4l-3,19M277,30v7l-3,8l-5,4l-10,-1l-7,7l-1,4h-4l-3,11l-1,2l-3,5l-5,3l3,8v12l3,2l-4,6h-8l-5,8v17M777,206v19l1,19l3,3l1,9l6,1l-1,2v1l-16,4M760,115l-1,-10l-12,-3l-4,2l1,12h4l-1,10l-5,1l-17,2l-13,2l-2,2v-13M740,460l-4,4l-13,2l-9,2l1,3l-10,5h-11l-7,2l-4,-3l-4,3M715,471v63l1,18v18h-25l-11,-4l-15,-3l2,10l-7,-3M889,517l1,14v30l1,7v12l-26,24l-7,27l-21,1h-41l-17,1l1,20v4l-19,-3l-3,-8l-9,-2M740,649l-7,-16l-17,1M954,718h-1l-11,-5l-7,7l-11,-2l1,12v10h11l17,-1h1l1,3l-15,2l-10,1h-32l-3,-3l-25,1l-2,-40v-11l-1,-7v-23h-1v-30h-1v-28M972,676l-14,3v12l-9,-2M966,725l-2,1l-4,1l-2,-2l-3,-2M965,746h-2v-4h-3l2,-7l-5,-1l-2,3l-1,2M959,768h-4l-3,-2l-3,-11h-4v-6l-5,-5M801,197v-1h-1v1h-1l-2,-4l-12,10l-4,8l-4,-1M800,197M952,766l-6,5l-7,1l-5,1h-27l-14,1h-22v-6h-4l-26,1h-31M939,772l1,5l-6,3v11l5,1l-3,8l6,5M863,342l-14,1v24l-2,1l-3,-3l-2,-10l-5,-7l-1,-9l-7,-1l-7,5l-4,-1l-1,-5h-14l-4,-7l-1,3l-2,2l-1,1l-2,8h-30l-7,-4l1,-1v-7h-5l-1,-1l-3,-2l1,-9h12v-13l2,-4v-13M802,196l-1,1v-1M972,622h-5l-3,6l3,7l-14,4l-6,-2l-2,-4l-5,-1v5l-10,-8l-24,-22l-2,-4h-38l-1,1M972,628l-2,14l-6,5l-3,-4l-6,1l-4,-3h-18l2,5l10,7l7,11v8l-3,17l-7,1v15h11l3,4l5,-2l-2,-6l6,1M965,702l-4,9l-1,1l3,6l-3,2l-5,3v-2l-1,-3h-1"/>
</svg>