<?xml version="1.0" encoding="utf-8"?>
<!DOCTYPE svg PUBLIC "-//W3C//DTD SVG 1.1//EN" "http://www.w3.org/Graphics/SVG/1.1/DTD/svg11.dtd">
<svg version="1.1" xmlns="http://www.w3.org/2000/svg" width="1000" height="653" viewBox="0 0 1000 653">
  <path class="state" d="M789,383l14,4l6,4l1,4l15,8l10,7l6,-1l21,6l25,13h3l14,10l20,19v25l9,-2l7,1l4,8l-1,10l7,2v4l11,9l13,6l-1,8l-8,8l-12,9l-8,8l-16,7l-11,7l-10,3l-9,-2l-10,2l-9,9l-14,7l-5,6l-7,1l-10,11v7l-6,9l-1,5l-5,2l-9,9l-5,-8l-8,-3l-9,-8l-9,-1l-6,-3l-6,-14l2,-18v-9l3,-14l-4,-15l-2,-3v-9l-5,-1l-2,-12l-6,-17l-6,-3l-1,-7l-5,-6l2,-10l12,-13l10,-2l7,-15l9,-8v-11l-7,-7l-6,-16v-13l2,-5ZM657,242h3l10,8v4l9,12l17,-3l8,-6l15,2l3,4l18,11l2,6l6,-1l4,4l9,2l4,4v10l-10,12l-12,3l-4,4l-14,-1l-14,8l-11,1l-10,-1l-5,-4l-1,-23l-3,-11l-7,-2l-5,5l-18,-11l-8,-9l-2,-6l1,-8l8,-13ZM664,321l4,5l-2,8l2,4h-11l-12,3l-4,-4l1,-4l18,-11ZM585,213l1,1l4,-1l3,-5l4,7l5,1l9,2l9,-3h13l5,5l-6,8l-7,6l-15,5l-33,-10l-15,2h-21l-7,-1l5,-12l5,-3l-1,-8h9l3,3ZM590,261l16,3l14,13l2,7l-6,9l-9,4h-11l-5,-2l-2,-6l1,-8l-4,-6l-7,-3l-1,-8ZM474,190v2l-10,8v-5h-5l-13,5l-1,-3l-13,-10l-2,4h-8l-3,-9l6,-5l-10,-2l3,8l-6,-6l-2,4l8,3v5l-21,4l-3,-1l-2,-9l-1,-1l-4,-8l-4,-1l-2,-8l-8,-8l1,-8l-9,-8l4,-2h24l10,-11l5,-8l8,-5h4l8,12v4l7,9v4h5l3,6l-4,4l2,8l13,9l-1,-9l9,2l-4,7l7,6l-1,3l5,7ZM173,17l7,2l7,6l3,7v8l-8,11l1,16l-4,1l1,4l-16,12l-7,-3l-13,-1l-10,-3l-10,-10l-14,-4l-6,-9l1,-8l7,-5l3,-9l10,-4l16,-10l14,3l2,-4ZM54,58l5,1l-6,12l2,6l-16,7l-7,15l-7,-7l2,-12l13,-11l7,-4l1,-6Z"/>
<g class="geos"><path data-name="Honolulu" class="geo-003" d="M474,190v2l-10,8v-5h-5l-13,5l-1,-3l-13,-10l-2,4h-8l-3,-9l6,-5l-10,-2l3,8l-6,-6l-2,4l8,3v5l-21,4l-3,-1l-2,-9l-1,-1l-4,-8l-4,-1l-2,-8l-8,-8l1,-8l-9,-8l4,-2h24l10,-11l5,-8l8,-5h4l8,12v4l7,9v4h5l3,6l-4,4l2,8l13,9l-1,-9l9,2l-4,7l7,6l-1,3l5,7Z"/><path data-name="Kalawao" class="geo-005" d="M602,216l4,5l-5,2l-7,-7l-7,-1l-2,-2l1,1l4,-1l3,-5l4,7Z"/><path data-name="Kauai" class="geo-007" d="M173,17l7,2l7,6l3,7v8l-8,11l1,16l-4,1l1,4l-16,12l-7,-3l-13,-1l-10,-3l-10,-10l-14,-4l-6,-9l1,-8l7,-5l3,-9l10,-4l16,-10l14,3l2,-4ZM54,58l5,1l-6,12l2,6l-16,7l-7,15l-7,-7l2,-12l13,-11l7,-4l1,-6Z"/><path data-name="Maui" class="geo-009" d="M585,213l2,2l7,1l7,7l5,-2l-4,-5l9,2l9,-3h13l5,5l-6,8l-7,6l-15,5l-33,-10l-15,2h-21l-7,-1l5,-12l5,-3l-1,-8h9l3,3l30,3ZM657,242h3l10,8v4l9,12l17,-3l8,-6l15,2l3,4l18,11l2,6l6,-1l4,4l9,2l4,4v10l-10,12l-12,3l-4,4l-14,-1l-14,8l-11,1l-10,-1l-5,-4l-1,-23l-3,-11l-7,-2l-5,5l-18,-11l-8,-9l-2,-6l1,-8l8,-13ZM664,321l4,5l-2,8l2,4h-11l-12,3l-4,-4l1,-4l18,-11ZM590,261l16,3l14,13l2,7l-6,9l-9,4h-11l-5,-2l-2,-6l1,-8l-4,-6l-7,-3l-1,-8Z"/><path data-name="Hawaii" class="geo-001" d="M789,383l14,4l6,4l1,4l15,8l10,7l6,-1l21,6l25,13h3l14,10l20,19v25l9,-2l7,1l4,8l-1,10l7,2v4l11,9l13,6l-1,8l-8,8l-12,9l-8,8l-16,7l-11,7l-10,3l-9,-2l-10,2l-9,9l-14,7l-5,6l-7,1l-10,11v7l-6,9l-1,5l-5,2l-9,9l-5,-8l-8,-3l-9,-8l-9,-1l-6,-3l-6,-14l2,-18v-9l3,-14l-4,-15l-2,-3v-9l-5,-1l-2,-12l-6,-17l-6,-3l-1,-7l-5,-6l2,-10l12,-13l10,-2l7,-15l9,-8v-11l-7,-7l-6,-16v-13l2,-5Z"/></g>
  <path class="counties-mesh" d="M602,216l4,5l-5,2l-7,-7l-7,-1l-2,-2"/>
<g class="districts"><path data-name="Congressional District 1" class="district-1501" d="M392,182l5,3l8,-8l6,-2l-2,-4v-15h1v1l1,-1h2l19,-1l3,11l7,4l5,9l4,1v5l11,4l12,1v2l-10,8v-5h-5l-13,5l-1,-3l-13,-10l-2,4h-8l-3,-9l6,-5l-10,-2l3,8l-6,-6l-2,4l8,3v5l-21,4l-3,-1l-2,-9Z"/><path data-name="Congressional District 2" class="district-1502" d="M474,190l-12,-1l-11,-4v-5l-4,-1l-5,-9l-7,-4l-3,-11l-19,1h-2l-1,1v-1h-1v15l2,4l-6,2l-8,8l-5,-3h-1l-4,-8l-4,-1l-2,-8l-8,-8l1,-8l-9,-8l4,-2h24l10,-11l5,-8l8,-5h4l8,12v4l7,9v4h5l3,6l-4,4l2,8l13,9l-1,-9l9,2l-4,7l7,6l-1,3l5,7l5,3ZM789,383l14,4l6,4l1,4l15,8l10,7l6,-1l21,6l25,13h3l14,10l20,19v25l9,-2l7,1l4,8l-1,10l7,2v4l11,9l13,6l-1,8l-8,8l-12,9l-8,8l-16,7l-11,7l-10,3l-9,-2l-10,2l-9,9l-14,7l-5,6l-7,1l-10,11v7l-6,9l-1,5l-5,2l-9,9l-5,-8l-8,-3l-9,-8l-9,-1l-6,-3l-6,-14l2,-18v-9l3,-14l-4,-15l-2,-3v-9l-5,-1l-2,-12l-6,-17l-6,-3l-1,-7l-5,-6l2,-10l12,-13l10,-2l7,-15l9,-8v-11l-7,-7l-6,-16v-13l2,-5ZM657,242h3l10,8v4l9,12l17,-3l8,-6l15,2l3,4l18,11l2,6l6,-1l4,4l9,2l4,4v10l-10,12l-12,3l-4,4l-14,-1l-14,8l-11,1l-10,-1l-5,-4l-1,-23l-3,-11l-7,-2l-5,5l-18,-11l-8,-9l-2,-6l1,-8l8,-13ZM664,321l4,5l-2,8l2,4h-11l-12,3l-4,-4l1,-4l18,-11ZM585,213l1,1l4,-1l3,-5l4,7l5,1l9,2l9,-3h13l5,5l-6,8l-7,6l-15,5l-33,-10l-15,2h-21l-7,-1l5,-12l5,-3l-1,-8h9l3,3ZM590,261l16,3l14,13l2,7l-6,9l-9,4h-11l-5,-2l-2,-6l1,-8l-4,-6l-7,-3l-1,-8ZM173,17l7,2l7,6l3,7v8l-8,11l1,16l-4,1l1,4l-16,12l-7,-3l-13,-1l-10,-3l-10,-10l-14,-4l-6,-9l1,-8l7,-5l3,-9l10,-4l16,-10l14,3l2,-4ZM54,58l5,1l-6,12l2,6l-16,7l-7,15l-7,-7l2,-12l13,-11l7,-4l1,-6Z"/></g>
  <path class="districts-mesh" d="M392,182l5,3l8,-8l6,-2l-2,-4v-15h1v1l1,-1h2M413,156l19,-1l3,11l7,4l5,9l4,1v5l11,4l12,1"/>
</svg>