<?xml version="1.0" encoding="utf-8"?>
<!DOCTYPE svg PUBLIC "-//W3C//DTD SVG 1.1//EN" "http://www.w3.org/Graphics/SVG/1.1/DTD/svg11.dtd">
<svg version="1.1" xmlns="http://www.w3.org/2000/svg" width="609" height="1000" viewBox="0 0 609 1000">
  <path class="state" d="M161,25h55l8,1h42l12,1h48l11,1h49l27,-1h80l100,-2l-6,26l-2,12l-13,88h-2l-26,1h-12v56l1,13v56l1,3v25l1,2v59l1,1v106l1,2v51l1,2v22l1,3v12h-3v2h-5v1l-2,2v1l-1,1h-1v1h3v1l-1,1l-1,1l1,1v3l1,1l1,1v1l1,-1h1v6l-1,1v2h-2v1l-1,1h-2v2h1v1h-3v2h1v1l-1,-1l-1,1l-1,1l-1,1v1l3,2l-1,2h-1h1v1l1,-1h1v1h2v4h3l1,1v1h1v1l1,1v2l-1,1l1,1l1,2v2l-2,2v1h3h-3l1,1l4,1l2,1v1l1,1l1,1h1v1l-1,1h-1v1l1,1l-1,1v1l-1,1l1,1h-1v1h2l-1,1h-1l-1,1v1v-1l-1,1h1v1h1h-2v1l1,1v1h-2l2,1l1,1h1v6l1,2h1v2h1v1h1v1l-1,2h-1h2v2h-1v2h1l-1,2v1l-1,3l-1,3l-1,2h-1v1l-4,1l-5,3l-2,2v2l1,1l-1,1v1l-1,1v1l1,1h1l1,1l-1,1h-1l-2,-1h-1v3l-1,1v3l-2,1l1,2l1,2l1,1l-1,2h-2v-1h-1v2l-1,1l-3,2h-4l-1,1v1l-2,1v2h3v3l-1,1v4l-3,5l-3,2h-1l-1,1h-1v1l-1,2l-1,1v7l-1,2l-1,1l-1,1l-1,-1v-6h-2l-1,1v3l-1,1h-1v1l-1,1v1h-1l-1,-2l1,-1v-1h1l-1,-1v-1h-2v1h-1v1l-1,1v1h-1l-1,1v1h1l1,2l-1,1h-1v2l-1,1l-1,-1v-1l-1,-1v-1h-1l1,2l-1,6l5,5h1l1,1v3h1v-1l2,-1v2h-1l-1,2v1h-1v1l-1,1h-1l-1,-1v1l-1,-1l-1,1v3l-1,1h-3l-1,1l-1,1h1v1h2l2,-1h2l1,-1v3l-1,2l-2,2h-1l-1,1h-6v3l1,1l3,1l-1,1v1l-1,1v1h1v2l1,1v3l-1,1h-2v3l1,1v2h-3v-2h-1l-1,1l-1,1h1v1l5,1h1v1l1,1v2l-1,1v-1h-6l-1,-1h-1v-1h-2v2l3,2v2h1v1l1,2h1l4,2v1l-1,1h-1l-1,1h-1l-1,-1h-1l-1,-1h-1l-1,1v2l1,1h1v1h3l3,-1v1h1v1h-1v1l-1,2v2h-1l-1,3v1h-1l-1,1l-1,1h-1v1h-2v1l-2,2h-2v2l-1,1v1l-2,3l-1,1v4l1,2v1l1,2v1l1,2v2l1,1v1h1l1,1l1,1v1h1l2,3v1h2v1h1v1h1v2l-2,3v1l-1,2h-1v-1l-5,1h-2l-12,3h-5l-2,1h-2l-1,1l-1,1h-1v1h-1l-3,2l-2,3h-2v-2h-1l-1,-1h-2l-9,5l-2,7v2l-2,4v1l-1,1l-1,2v2h1v3h1h-1v1h1v1h1l1,1v1l1,1l2,3l1,1l1,1l1,1v1l1,1v2l2,4l-1,2v1l-2,5h1l-1,1v2l-1,1l-3,2h-4v1h-1l-2,-1h-2l-1,-1l-4,-1l-2,-2v-1l-5,-3h-1l-1,-1h-2l-3,-2h-1v-1h-5l-8,-5v-1l-2,-2h-2v-1h-4l-1,-1h-1l-2,-1l-7,-3h-3h2h-1l-11,2l-9,8l-2,6l-12,14v5l5,5l1,2h1l-2,1h-2l-1,1l-3,-5l-1,-2v-1l-2,-1v-1l-4,-4v-2l-2,-1l-7,-1v4h1l1,1l2,1l2,2l1,2l-1,3l-2,2l-2,-1l-1,-2l-1,-1l-1,-1l-2,-1l-3,-1l-4,-6l1,-3v-2l-1,-2l-1,-1l-1,-1l-3,-2l-5,-11l-1,-6l1,-3l-1,-1l-1,-1h-3l-3,-4v-6h1l1,-1l1,-1v-1l1,-1h2l3,-1h2v-1l1,-1l1,-4l-2,-9l-1,-1l-2,-3l-2,-3l-1,-1l-2,-5l-1,-2l-1,-2l-1,-1l-1,-2v-4l1,-3l3,1h1l1,-3l-2,-3l-1,-2l-1,-1l-1,-1v-9l-1,-1h-1l-1,-1h-2l-3,-1l-1,-2l-5,-4l-1,-1h-3l-2,-1v-2l1,-1v-2l-1,-1l-1,-2l-2,-1l-3,-2l-3,-2l-1,-3h-3l-1,-1h-2l-2,-1v-3l-5,-4l-1,-1l-1,1l-2,1l-1,2l-1,1h-2l-1,1l-5,-1l-2,-1l-1,-3l-2,-3v-2l3,-2l3,-3l-1,-2l-5,1h-3l-1,-1l-1,-2l-3,-2l-1,-1l-1,-1l-3,-2l-7,-7l-6,-2l-1,-1l-3,-2l-1,-1l-3,-1v-1l-3,-3v-1l-1,-1l-4,-7l-2,-1l-3,-1l-5,-12l-1,-3v-10l1,-1v-2l1,-1l1,-1v-2l1,-2l1,-1v-1l2,-1v-1l1,-2l4,-6l1,-4l1,-3l1,-3l1,-4v-1l2,-2l1,-1l1,-3h1l3,-2v-1l1,-1l1,-1v-2l1,-2v-4l-1,-2v-1l-3,-6l2,-6l2,-2v-2l2,-2l1,-1h1l5,-4v-5l1,-1l-4,-4h-1l-2,-2l-1,-1l-2,-1h-1l-3,-1l-1,-2l-1,-1h-1l-1,-1l-1,-1h-3l-4,-1h-1l-2,-1l-5,-3l-3,-2l-3,-1h-3l-1,-1h-2l-1,1l-1,1l-1,1l-1,2l-1,1l-4,7l-5,4l-8,-1l-1,-2l-1,-1l-1,-2v-1l-3,-3l-1,-3v-1l-1,-3v-5h-1v-2l-3,-5l1,-5l3,-5l-1,-3v-2l-1,-2h-1l-2,-11v-6l-1,-2v-2l-2,-1h-1v-1l-7,-8l-2,-2l-1,-1l-3,-2l-2,-1l-4,-4l-2,-1l-3,-2v-2h-1l-1,-1l-2,-1l-1,-1l-2,-1h-1v-1l-8,-7l-1,-4l-3,-6l-1,-1v-1l-4,-1h-2l-3,-5l-1,-3v-2h-1l-2,-1h-1v-1l-5,-4l-1,-1v-1h-1v-1l-1,-2l-2,-1l-3,-1v-1l-2,-3l-3,-2l-3,-5v-3l1,-4v-2l-2,-3l-2,-2l-4,-3l-1,-1v-1l-1,-5l2,-6l1,-2v-1l-1,-1l-1,-1v-1l-3,-5l-1,-2v-2l-2,-4l-1,-6v-4l-1,-4v-2l-1,-1v-4l1,-2l-1,-2l1,-4v-6l1,-3l1,-2v-6l3,-5l1,-3l1,-1l2,-3l1,-1h1l1,-1l7,-4l-1,-10l1,-3l1,-2v-2l-1,-2l-1,-4h-2v-6l2,-1l4,-5l8,-4l2,-1h12l1,-1l7,-5v-1l1,-3v-5l1,-5l1,-2l1,-3v-3l1,-4l2,-2l2,-2l1,-2l2,-3h1l1,-1v-1l6,-5l2,-1v-2l1,-3v-1l-1,-3l1,-2v-2l1,-2v-2l1,-1l-1,-2l1,-1l-1,-1v-1l-1,-2l1,-1v-3l-2,-4v-1l-1,-2l-1,-1l-1,-1v-1l-1,-1l-1,-1h-2l-6,-6l-4,-5l-2,-3l1,-2v-1l1,-3l1,-1l2,-3v-2l1,-3v-5l1,-2l1,-2l1,-1l4,-6l3,-1h2l2,1l2,1h3l2,-1l3,-2l7,-3h2l4,1h11l2,-1h2l2,-1l6,-5l1,-1l4,-2l6,-1h8l1,-2l1,-1l2,-2l1,-1l1,-2h1l1,-1l4,-1l2,-1l1,-1v-10l1,-3l1,-3l1,-1l1,-1v-4l3,-6l1,-1l2,-2h1l1,-1l1,-1l8,-4v-6l1,-2v-2l1,-1v-2l1,-1l1,-1v-13l1,-6v-3l-1,-1v-1l-2,-1v-6l1,-1v-6l-1,-1h-2l-2,-4l-1,-1l-5,-3h-2l-2,-1l-1,-1l-4,-2l-1,-1l-2,-1h-1l-2,-1l-2,-2l-1,-1l-1,-2l-2,-3l-1,-1v-4l1,-4v-3l-1,-1l-2,-2v-2l-2,-1l-1,-1l-1,-2v-1h-2v-1l-1,-1h-1l-3,-1l-4,-4v-1l-1,-2l-2,-1h-2l-1,-1l-2,-1l-2,-2l-1,-2l-1,-1l2,-3h21Z"/>
<g class="geos"><path data-name="Hancock" class="geo-067" d="M35,371l1,-2v-2l-1,-2l-1,-4h-2v-6l2,-1l4,-5l8,-4l2,-1h48l-2,61v15h-26v-1h-23l-1,-1h-25v-1h-3v-4l1,-3l1,-2v-6l3,-5l1,-3l1,-1l2,-3l1,-1h1l1,-1l7,-4l-1,-10Z"/><path data-name="Clay" class="geo-025" d="M385,657v-15h44v10h14l1,20h-4v7l2,6l-3,3l4,5l1,2h-25l-1,-1h-33Z"/><path data-name="Wabash" class="geo-185" d="M485,700h5l6,-1h29v3l-2,1l1,2l1,2l1,1l-1,2h-2v-1h-1v2l-1,1l-3,2h-4l-1,1v1l-2,1v2h3v3l-1,1v4l-3,5l-3,2h-1l-1,1h-1v1l-1,2l-1,1v7l-1,2l-1,1l-1,1l-1,-1v-6h-2l-1,1v3l-1,1h-1v1l-1,1v1h-1l-1,-2l1,-1v-1h1l-1,-1v-1h-2v1h-1v1l-1,1v1h-1l-1,1v1h1l1,2l-1,1h-1v2l-1,1l-1,-1v-1l-1,-1v-1h-2l4,-5l1,-9l-3,-8l3,-6Z"/><path data-name="McLean" class="geo-113" d="M308,354h18l7,-6h5v-6l7,-1v-14l8,-1h41l3,-1l2,25h15v57h-90l-15,1v-48Z"/><path data-name="Bond" class="geo-005" d="M311,622l-1,19l1,30h-46l-1,-23h-4l-1,-7h1l-1,-14h7v-5l33,1Z"/><path data-name="Brown" class="geo-009" d="M93,435h16l12,2l4,3l-1,7l8,3l1,7l12,-1l-3,14l-6,5l1,7l-20,-1h-23l-2,-1Z"/><path data-name="Jersey" class="geo-083" d="M131,606l5,-13l11,3h23v-9h15v-5h7v44h-17v14l-4,-1h-1l-2,-1l-5,-3l-3,-2l-3,-1h-3l-1,-1h-2l-11,2l-5,-7l-1,-11Z"/><path data-name="Piatt" class="geo-147" d="M377,446v-8h8v-7l14,-24h15v66l1,3v14h-29l-9,1Z"/><path data-name="Pope" class="geo-151" d="M385,912v-45l40,-1v31l-8,5l-2,7v2l-2,4v1l-1,1l-1,2v2h1v3h1h-1v1h1v1h1l1,1v1l1,1l2,3l1,1l1,1l1,1v1l1,1v2l2,4l-1,2v1l-2,5h1l-1,1v2l-1,1l-3,2h-2v-16Z"/><path data-name="Bureau" class="geo-011" d="M233,184h89v47l-14,-2l-8,4l-3,11h-14v14h-22v-14h-28v-49Z"/><path data-name="Coles" class="geo-029" d="M480,509l1,34l-7,1l1,17h-2l-6,1h-42l-11,1v-48l8,-1h45v-5Z"/><path data-name="Mercer" class="geo-131" d="M86,255l-1,-1h-2l-6,-6l-4,-5l-2,-3l1,-2v-1l1,-3l1,-1l2,-3v-2l1,-3h27v1h27v1h27v30l-1,16l-44,-2l-22,-1l1,-1v-3l-2,-4v-1l-1,-2l-1,-1l-1,-1v-1Z"/><path data-name="Effingham" class="geo-049" d="M370,589h44v8h15v45h-59Z"/><path data-name="Cumberland" class="geo-035" d="M414,563l11,-1h42l6,-1h2l1,35l-17,1h-45v-8Z"/><path data-name="Crawford" class="geo-033" d="M484,596l25,-1l17,3v1l-1,-1l-1,1l-1,1l-1,1v1l3,2l-1,2h-1h1v1l1,-1h1v1h2v4h3l1,1v1h1v1l1,1v2l-1,1l1,1l1,2v2l-2,2v1h3h-3l1,1l4,1l2,1v1l1,1l1,1h1v1l-1,1h-1v1l1,1l-1,1v1l-1,1l1,1h-1v1h2l-1,1h-1l-1,1v1v-1l-1,1h1v1h1h-2v1l1,1v1h-2l2,1l1,1h-23v1h-32Z"/><path data-name="Fulton" class="geo-057" d="M156,347v-15l3,1h54l2,1v14h15v20l-2,3l-5,9l-7,8l-8,3l-4,14l-9,12l-8,6l-33,-1v-15Z"/><path data-name="Montgomery" class="geo-135" d="M252,537h22v30h52v22h-15v33l-12,1l-33,-1v5h-14l-1,-17v-43Z"/><path data-name="Macon" class="geo-115" d="M315,488v-18h10v-23h34l18,-1v45l-1,9h-7v15h-28l-15,-1l-1,-24Z"/><path data-name="Franklin" class="geo-055" d="M327,779v-2h58v44h-41l-19,1v-15h-4l5,-7l3,-13Z"/><path data-name="Clark" class="geo-023" d="M475,561l-1,-17l7,-1l36,-1v2l21,-1v7l1,3v12h-3v2h-5v1l-2,2v1l-1,1h-1v1h3v1l-1,1l-1,1l1,1v3l1,1l1,1v1l1,-1h1v6l-1,1v2h-2v1l-1,1h-2v2h1v1h-3v2h1l-17,-3l-25,1h-8Z"/><path data-name="Rock Island" class="geo-161" d="M174,165l1,-1v-4l3,-6l1,-1l2,-2h1l1,-1l1,-1l1,12v7l9,6v8l-3,1l-1,8l-5,3l-15,2l-7,8l-4,1l-1,22h-27v-1h-27v-1h-27v-5l1,-2l1,-2l1,-1l4,-6l3,-1h2l2,1l2,1h3l2,-1l3,-2l7,-3h2l4,1h11l2,-1h2l2,-1l6,-5l1,-1l4,-2l6,-1h8l1,-2l1,-1l2,-2l1,-1l1,-2h1l1,-1l4,-1l2,-1l1,-1v-10l1,-3l1,-3Z"/><path data-name="Kendall" class="geo-093" d="M419,160h18v4l1,17l1,8v15l-13,1h-31v-17l-1,-12v-16h23Z"/><path data-name="Cook" class="geo-031" d="M440,97v-12h60l31,-1h51l-8,56l-4,11l-26,1h-12v49l-33,1l-1,-10l-3,-5h-12l-1,-10v-4h-15v-8h3l8,-3l4,-2l-1,-5v-28l-1,-6l-2,-8l-30,1h-1l-9,1h-1v-9l-1,-5Z"/><path data-name="Gallatin" class="geo-059" d="M429,814l3,-1h33l2,3l3,2v2h1v1l1,2h1l4,2v1l-1,1h-1l-1,1h-1l-1,-1h-1l-1,-1h-1l-1,1v2l1,1h1v1h3l3,-1v1h1v1h-1v1l-1,2v2h-1l-1,3v1h-1l-1,1l-1,1h-1v1h-2v1l-2,2h-2v2l-1,1v1l-2,3l-1,1v4l1,2v1l1,2v1l1,2v2l1,1l-6,-4h-27v-42Z"/><path data-name="Lee" class="geo-103" d="M263,130l19,-2l15,1v3h46l8,-1v46h-29v7h-60v-36Z"/><path data-name="DeKalb" class="geo-037" d="M351,86h44v16l-2,7l1,51v16h-14l-29,1v-46l-1,-7Z"/><path data-name="Stark" class="geo-175" d="M216,258h15l2,-14h28v45l-20,-1h-25Z"/><path data-name="Adams" class="geo-001" d="M25,463l-1,-1v-1l-3,-5l-1,-2v-2l-2,-4l-1,-6v-4l-1,-4v-2l-1,-1v-4l1,-2l-1,-2l1,-4v-2h3v1h25l1,1h23v1h26l-1,15l-1,45v15h-15l-9,-1h-32l-3,-1v-5l-2,-3l-2,-2l-4,-3l-1,-1v-1l-1,-5l2,-6l1,-2v-1l-1,-1Z"/><path data-name="Iroquois" class="geo-075" d="M455,284l1,-1h23l21,-2h22l12,-1v25l1,2v59l1,1v2l-1,1h-22v1h-55v-22l-2,-28Z"/><path data-name="Ford" class="geo-053" d="M441,284h14l1,37l2,28v22h24v15h-39l-14,1h-15v-37l7,-1h22Z"/><path data-name="Douglas" class="geo-041" d="M484,475v15h-4v19h-13v5h-45l-8,1l-1,-25h2v-14l14,-1Z"/><path data-name="St. Clair" class="geo-163" d="M180,699h1l3,-2v-1l1,-1l1,-1v-2l1,-2v-4l-1,-2l20,1h40l4,1v75h-26l-3,-8l1,-8h-17l-4,-7l-6,-6l-4,-8l-16,-16l1,-2v-1l2,-2l1,-1Z"/><path data-name="Washington" class="geo-189" d="M250,727l10,-6l2,-4h21l7,-3l8,-5l11,2l16,1v49h-75Z"/><path data-name="Scott" class="geo-171" d="M134,490h15v7h15l-1,15h5v5h4v20l-37,-1l2,-3l-5,-18l-5,-8Z"/><path data-name="Richland" class="geo-159" d="M485,651h5v49h-31v-5h-15l-1,-2l-4,-5l3,-3l-2,-6v-7h4l-1,-20h28Z"/><path data-name="Menard" class="geo-129" d="M213,436l5,-5l16,3l12,-1l2,-2l12,-2l5,5l3,6v20h-16v10h-9v2h-30Z"/><path data-name="Hamilton" class="geo-065" d="M385,777v-23h44v60h-44Z"/><path data-name="White" class="geo-193" d="M459,754l21,-1h1l1,2l-1,6l5,5h1l1,1v3h1v-1l2,-1v2h-1l-1,2v1h-1v1l-1,1h-1l-1,-1v1l-1,-1l-1,1v3l-1,1h-3l-1,1l-1,1h1v1h2l2,-1h2l1,-1v3l-1,2l-2,2h-1l-1,1h-6v3l1,1l3,1l-1,1v1l-1,1v1h1v2l1,1v3l-1,1h-2v3l1,1v2h-3v-2h-1l-1,1l-1,1h1v1l5,1h1v1l1,1v2l-1,1v-1h-6l-1,-1h-1v-1h-2v2l-2,-3h-33l-3,1v-60Z"/><path data-name="De Witt" class="geo-039" d="M324,407h75l-14,24v7h-8v8l-18,1h-34v-39Z"/><path data-name="Putnam" class="geo-155" d="M283,258v-14h14l3,-11l8,-4l14,2v35h-24l3,-8Z"/><path data-name="Schuyler" class="geo-169" d="M187,423l-2,7l-9,-1l-9,4h-3l-3,9l-4,3l-1,6l-11,5l-12,1l-1,-7l-8,-3l1,-7l-4,-3l-12,-2h-16l1,-15v-15l30,2h30v15Z"/><path data-name="Stephenson" class="geo-177" d="M226,26h40l12,1h14v52h-66v-17Z"/><path data-name="Union" class="geo-181" d="M324,867h16l-1,46h-25l-3,-1l-23,1l-9,-1h2l3,-1h2v-1l1,-1l1,-4l-2,-9l-1,-1l-2,-3l-2,-3l-1,-1l-2,-5l-1,-2l-1,-2l-1,-1l-1,-2v-4l8,1l2,-6Z"/><path data-name="Kankakee" class="geo-091" d="M533,231v46l1,3l-12,1h-22l-21,2h-23l-1,1h-14l-1,-20l1,-15l29,-1v-15l19,-1h32Z"/><path data-name="Clinton" class="geo-027" d="M250,686l15,-1v-14h46l15,1l-1,40l-16,-1l-11,-2l-8,5l-7,3h-21l-2,4l-10,6Z"/><path data-name="Jo Daviess" class="geo-085" d="M149,43l-4,-4v-1l-1,-2l-2,-1h-2l-1,-1l-2,-1l-2,-2l-1,-2l-1,-1l2,-3h81l8,1h2v53h-51l-1,-1l-2,-1h-1l-2,-1l-2,-2l-1,-1l-1,-2l-2,-3l-1,-1v-4l1,-4v-3l-1,-1l-2,-2v-2l-2,-1l-1,-1l-1,-2v-1h-2v-1l-1,-1h-1Z"/><path data-name="Williamson" class="geo-199" d="M325,822l19,-1h41v46h-61l1,-9Z"/><path data-name="Mason" class="geo-125" d="M223,380l27,1v20h15v33l-5,-5l-12,2l-2,2l-12,1l-16,-3l-5,5h-6l-11,8l-21,1l-4,-11l-4,-1l9,-4l9,1l2,-7l8,-6l9,-12l4,-14l8,-3Z"/><path data-name="Livingston" class="geo-105" d="M352,296v-30h13l32,-1h26l17,-1l1,20l2,65h-22l-7,1h-15l-2,-25l-3,1h-41Z"/><path data-name="Wayne" class="geo-191" d="M385,694h33l1,1h40v59h-74v-37Z"/><path data-name="Kane" class="geo-089" d="M393,109l2,-7v-16h30l12,-1h3v12l-4,4l1,5v54h-43Z"/><path data-name="Hardin" class="geo-069" d="M425,866h32l6,4v1h1l1,1l1,1v1h1l2,3v1h2v1h1v1h1v2l-2,3v1l-1,2h-1v-1l-5,1h-2l-12,3h-5l-2,1h-2l-1,1l-1,1h-1v1h-1l-3,2l-2,3h-2v-2h-1l-1,-1h-3Z"/><path data-name="Grundy" class="geo-063" d="M439,204l2,45l-1,15l-17,1h-26l-2,-60h31Z"/><path data-name="McDonough" class="geo-109" d="M96,344l15,1l8,1h22l15,1l-2,60h-30l-30,-2Z"/><path data-name="Massac" class="geo-127" d="M385,912l30,29v16h-2v1h-1l-2,-1h-2l-1,-1l-4,-1l-2,-2v-1l-5,-3h-1l-1,-1h-2l-3,-2h-1v-1h-5l-8,-5v-1l-2,-2h-2v-1h-4l-1,-1h-1l-2,-1l-7,-3h-1v-14l3,-5Z"/><path data-name="Henry" class="geo-073" d="M191,183h3l39,1v60l-2,14h-15l-17,-1h-41v-30l1,-22l4,-1l7,-8l15,-2l5,-3Z"/><path data-name="Greene" class="geo-061" d="M131,558l-1,-6l5,-16l37,1h19l1,45h-7v5h-15v9h-23l-11,-3l-5,13l-1,-9l3,-5l-2,-10l-1,-22Z"/><path data-name="Randolph" class="geo-157" d="M224,761h41v36l-1,9l-8,17v3h-1v1l-1,5l-2,-1l-3,-2l-3,-2l-1,-3h-3l-1,-1h-2l-2,-1v-3l-5,-4l-1,-1l-1,1l-2,1l-1,2l-1,1h-2l-1,1l-5,-1l-2,-1l-1,-3l-2,-3v-2l3,-2l3,-3l-1,-2l-5,1h-3l-1,-1l-1,-2l-3,-2l-1,-1l-1,-1l-3,-2l-7,-7l-6,-2l-1,-1l-3,-2l-1,-1l23,-7v-15Z"/><path data-name="Pike" class="geo-149" d="M77,495h15v-15l2,1h23l20,1l-3,8l-7,17l5,8l5,18l-2,3l-5,16l1,6l-10,-1h-23l-10,-1h-1l-1,-1l-2,-1l-1,-1l-2,-1h-1v-1l-8,-7l-1,-4l-3,-6l-1,-1v-1l-4,-1h-2l-3,-5l-1,-3v-2h-1l-2,-1h-1v-1l-5,-4l-1,-1v-1h-1v-1l-1,-2l-2,-1l-3,-1v-1l-2,-3l-3,-2l-3,-5v-3l1,-1l3,1h32Z"/><path data-name="Woodford" class="geo-203" d="M337,296h15l1,30l-8,1v14l-7,1v6h-5l-7,6h-18v-4h-7v-23l-30,1v-12l4,-4l7,-15h31l1,-1Z"/><path data-name="Perry" class="geo-145" d="M265,761h60v16h2v2l2,8l-3,13l-5,7l-19,-1h-38l1,-9Z"/><path data-name="Johnson" class="geo-087" d="M385,867v45h-27l-3,5h-5l-8,-1l-3,3v-6l1,-46Z"/><path data-name="Shelby" class="geo-173" d="M341,515h28v13h12v9h11l2,6l5,2l1,4h14v40h-65l-1,1l-22,-1v-22h15Z"/><path data-name="Fayette" class="geo-051" d="M326,589l22,1l1,-1h21v53h15v15h-59v15l-15,-1l-1,-30l1,-19v-33Z"/><path data-name="Winnebago" class="geo-201" d="M292,27h34l11,1h13v49l1,9l-20,1h-11v-9l-28,1v-18Z"/><path data-name="Ogle" class="geo-141" d="M255,79h37l28,-1v9h11l20,-1l-1,38l1,7l-8,1h-46v-3l-15,-1l-19,2v-6h-7v-38Z"/><path data-name="Moultrie" class="geo-139" d="M377,491l9,-1h27l1,25v34h-14l-1,-4l-5,-2l-2,-6h-11v-9h-12v-28h7Z"/><path data-name="Cass" class="geo-017" d="M213,436v41h-26l-1,-1h-36l-14,-1l6,-5l3,-14l11,-5l1,-6l4,-3l3,-9h3l4,1l4,11l21,-1l11,-8Z"/><path data-name="Sangamon" class="geo-167" d="M213,477v-5h30v-2h9v-10h16l13,-1v8h9v3h25v18h-2l-5,2l-4,4l-7,1l-5,5l-4,-1v10h-7v8h-7v20h-52v-7l-8,-26Z"/><path data-name="Tazewell" class="geo-179" d="M267,338l5,-3l-1,-7l30,-1v23h7v4l1,6v40h-43l-1,1h-15v-20l-27,-1l5,-9l2,-3l8,-6l10,-1l11,-4l-1,-5Z"/><path data-name="LaSalle" class="geo-099" d="M322,184v-7h29l29,-1h14l1,12v17l2,60l-32,1h-13v30h-15v-30h-15v-47Z"/><path data-name="Vermilion" class="geo-183" d="M482,386v-15h31v-1h22l1,-1v104l-10,1h-37l-5,1l-1,-5l-1,-55h2Z"/><path data-name="Boone" class="geo-007" d="M350,28h30v58h-29l-1,-9Z"/><path data-name="Morgan" class="geo-137" d="M134,490l3,-8l-1,-7l14,1h36l1,1h26l1,27l8,26v7h-50v-20h-4v-5h-5l1,-15h-15v-7Z"/><path data-name="Marshall" class="geo-123" d="M261,260v-2h40l-3,8h39v30h-23l-1,1h-31l3,-8h-24Z"/><path data-name="Jasper" class="geo-079" d="M429,597h30l17,-1h8l1,55l-14,1h-42v-10Z"/><path data-name="Calhoun" class="geo-013" d="M116,591v-6l-1,-2v-2l-2,-1h-1v-1l-7,-8l-2,-2l-1,-1l-3,-2l-2,-1l-4,-4l-2,-1l-3,-2v-2l10,1h23l10,1l-1,2l1,22l2,10l-3,5l1,9l3,9l1,11l5,7l11,-2l-1,1l-1,1l-1,1l-1,2l-1,1l-4,7l-5,4l-9,-3l-1,-1l-1,-2v-1l-3,-3l-1,-3v-1l-1,-3v-5h-1v-2l-3,-5l1,-5l3,-5l-1,-3v-2l-1,-2h-1Z"/><path data-name="Marion" class="geo-121" d="M385,657v60h-60v-5l1,-40v-15h22Z"/><path data-name="Warren" class="geo-187" d="M113,271l44,2l-1,59v15l-15,-1h-22l-8,-1l1,-41Z"/><path data-name="Will" class="geo-197" d="M439,189l-1,-8l-1,-17v-4h10l5,-1h15v14h15v4l1,10h12l3,5l1,10l33,-1v7l1,13v10l-12,1h-32l-19,1v15l-29,1l-2,-45v-9Z"/><path data-name="Pulaski" class="geo-153" d="M350,917h5v14h-2h2h-10l-12,11l-2,5l-9,10l-8,-2l-6,-7l3,-11v-8l1,-5l6,-4l-1,-5l-6,-3l3,1h25v6l3,-3Z"/><path data-name="Madison" class="geo-119" d="M196,655l1,-1l-4,-4h-1l-2,-2l-1,-1l-2,-1h-1l-3,-1v-1l-1,-1l-1,-1h-1l-1,-1l-1,-1h-3v-14h52l1,1h31l1,14h-1l1,7h4l1,23v14l-15,1l-4,-1h-40l-20,-1v-1l-3,-6l2,-6l2,-2v-2l2,-2l1,-1h1l5,-4Z"/><path data-name="Monroe" class="geo-133" d="M173,716l1,-3l1,-3v-2l16,16l4,8l6,6l4,7h17l-1,8l3,8l-19,-1v15l-23,7l-3,-1v-1l-3,-3v-1l-1,-1l-4,-7l-2,-1l-3,-1l-5,-12l-1,-3v-10l1,-1v-2l1,-1l1,-1v-2l1,-2l1,-1v-1l2,-1v-1l1,-2l4,-6Z"/><path data-name="Alexander" class="geo-003" d="M316,965l-4,-4v-2l-2,-1l-7,-1v4h1l1,1l2,1l2,2l1,2l-1,3l-2,2l-2,-1l-1,-2l-1,-1l-1,-1l-2,-1l-3,-1l-4,-6l1,-3v-2l-1,-2l-1,-1l-1,-1l-3,-2l-5,-11l-1,-6l1,-3l-1,-1l-1,-1h-3l-3,-4v-6h1l1,-1l1,-1v-1l1,-1l9,1l23,-1l6,3l1,5l-6,4l-1,5v8l-3,11l6,7l8,2l-2,4v5l5,5l1,2h1l-2,1h-2l-1,1l-3,-5l-1,-2v-1l-2,-1v-1Z"/><path data-name="DuPage" class="geo-043" d="M478,113l2,8l1,6v28l1,5l-4,2l-8,3h-3v-6h-15l-5,1h-10v-45h1l9,-1h1Z"/><path data-name="Saline" class="geo-165" d="M385,821v-7h44l1,10v42h-5l-40,1Z"/><path data-name="Lake" class="geo-097" d="M489,27h5l56,-2h43l-6,26l-2,12l-3,21h-51l-31,1h-56v-58h44Z"/><path data-name="Macoupin" class="geo-117" d="M191,537h61l-1,30v43l1,17h-24l-1,-1h-35v-44Z"/><path data-name="Whiteside" class="geo-195" d="M193,137v-2l1,-1v-2l1,-1l1,-1v-6h67v6l-1,18v36h-29l-39,-1h-3l3,-1v-8l-9,-6v-7l-1,-12l8,-4v-6Z"/><path data-name="Logan" class="geo-107" d="M309,400v8l15,-1l1,1v62h-35v-3h-9v-8l-13,1v-20l-3,-6v-33l1,-1Z"/><path data-name="Jefferson" class="geo-081" d="M325,717h60v60h-60v-16Z"/><path data-name="Lawrence" class="geo-101" d="M540,650h1v6l1,2h1v2h1v1h1v1l-1,2h-1h2v2h-1v2h1l-1,2v1l-1,3l-1,3l-1,2h-1v1l-4,1l-5,3l-2,2v2l1,1l-1,1v1l-1,1v1l1,1h1l1,1l-1,1h-1l-2,-1h-1v3l-1,1h-29l-6,1v-49h27v-1Z"/><path data-name="Peoria" class="geo-143" d="M216,288h25l20,1h24l-3,8l-7,15l-4,4v12l1,7l-5,3l-9,14l1,5l-11,4l-10,1l-8,6v-20h-15v-14l1,-2Z"/><path data-name="Champaign" class="geo-019" d="M414,431v-44h15l14,-1h39l2,29h-2l1,55l1,5h-55l-14,1l-1,-3Z"/><path data-name="Edgar" class="geo-045" d="M484,475l5,-1h37l10,-1l1,2v51l1,2v15l-21,1v-2l-36,1l-1,-34v-19h4Z"/><path data-name="Christian" class="geo-021" d="M313,488h2l10,2l1,24l15,1v52h-67v-50h7v-8h7v-10l4,1l5,-5l7,-1l4,-4Z"/><path data-name="Knox" class="geo-095" d="M157,273l1,-16h41l17,1v74l-1,2l-2,-1h-54l-3,-1Z"/><path data-name="McHenry" class="geo-111" d="M444,27v58h-7l-12,1h-45v-58h6l27,-1h22Z"/><path data-name="Carroll" class="geo-015" d="M195,92l-1,-1h-2l-2,-4l-1,-1l-5,-3h-2l-2,-1l-1,-1l-4,-2h80l1,7v38h-60v-7l1,-6v-3l-1,-1v-1l-2,-1v-6l1,-1v-3Z"/><path data-name="Edwards" class="geo-047" d="M459,700h26v25l-3,6l3,8l-1,9l-4,5l-21,1Z"/><path data-name="Henderson" class="geo-071" d="M88,296l2,-1v-2l1,-3v-1l-1,-3l1,-2v-2l1,-2v-2l1,-1l-1,-2l1,-1l-1,-1v-3h-1l22,1l-1,33l-1,41l-15,-1h-36l1,-1l7,-5v-1l1,-3v-5l1,-5l1,-2l1,-3v-3l1,-4l2,-2l2,-2l1,-2l2,-3h1l1,-1v-1Z"/><path data-name="Jackson" class="geo-077" d="M264,806h38l19,1h4v51l-1,9h-40l-2,6l-8,-1l1,-3l3,1h1l1,-3l-2,-3l-1,-2l-1,-1l-1,-1v-9l-1,-1h-1l-1,-1h-2l-3,-1l-1,-2l-5,-4l-1,-1h-3l-2,-1v-2l1,-1v-2l-1,-1l-1,-2l1,-5v-1h1v-3Z"/></g>
  <path class="counties-mesh" d="M131,558l-10,-1h-23l-10,-1M353,326h41l3,-1l2,25h15v37M96,344l-2,61v15h-26v-1h-23l-1,-1h-25v-1h-3M481,753h-1l4,-5l1,-9l-3,-8l3,-6v-25h5l6,-1h29M315,488h-2l-5,2l-4,4l-7,1l-5,5l-4,-1v10h-7v8h-7v50h52v22h-15v33l-1,19l1,30h-46l-1,-23h-4l-1,-7h1l-1,-14h7v-5l33,1l12,-1M94,420l-1,15h16l12,2l4,3l-1,7l8,3l1,7l12,-1l-3,14l-6,5l1,7l-20,-1h-23l-2,-1l1,-45M151,631l-11,2l-5,-7l-1,-11l-3,-9l5,-13l11,3h23v-9h15v-5h7v44h-17v14M377,491v-53h8v-7l14,-24M415,957v-16l-30,-29v-45l40,-1v31M262,184h60v47l-14,-2l-8,4l-3,11h-14v14M261,258v-14h-28M415,476l14,-1h55v15h-4v19l1,34l-7,1l1,17h-2l-6,1h-42l-11,1v-48l8,-1h45v-5h13M77,225h27v1h27v1h27v30l-1,16l-44,-2l-22,-1M385,642h-15v-53h44v8h15v45M475,561l1,35l-17,1h-30M414,589v-26M540,650h-23v1h-32l-1,-55l25,-1l17,3M60,344h36l15,1l8,1h22l15,1v-15l3,1h54l2,1v14h15v20l-2,3l-5,9l-7,8l-8,3l-4,14l-9,12l-8,6l-33,-1v-15l2,-60M259,627h-7l-1,-17v-43l1,-30h22M325,447h34l18,-1M482,371v15h-39l-14,1h-15v86l1,3v14h-29l-9,1l-1,9h-7v15h-28l-15,-1l-1,-24l-10,-2v-18h10v-62l-1,-1M481,543l36,-1v2l21,-1M484,596h-8M184,149l1,12v7l9,6v8l-3,1l-1,8l-5,3l-15,2l-7,8l-4,1l-1,22M395,86h30l12,-1h63l31,-1h51M532,201l-33,1l-1,-10l-3,-5h-12l-1,-10v-4h-15v-8h3l8,-3l4,-2l-1,-5v-28l-1,-6l-2,-8l-30,1h-1l-9,1h-1v-9l-1,-5l4,-4v-12M463,870l-6,-4h-27v-42l-1,-10l3,-1h33l2,3M263,130l19,-2l15,1v3h46l8,-1v46h-29v7M351,131l-1,-7l1,-38h29M380,28v58h15v16l-2,7l1,51M437,115v49l1,17l1,8v15l-13,1h-31v-17l-1,-12h-14l-29,1M308,354v-4h-7v-23l-30,1v-12l4,-4l7,-15h31l1,-1h23v-30h-39l3,-8h-40v31l-20,-1h-25M92,480v15h-15l-9,-1h-32l-3,-1M414,515l-1,-25M250,727v34h-26l-3,-8l1,-8h-17l-4,-7l-6,-6l-4,-8l-16,-16M490,651v49M485,700h-26v-5h-15M443,652h28l14,-1M429,754h30l21,-1M322,231v35M187,423l-2,7l-9,-1l-9,4h-3l-3,9l-4,3l-1,6l-11,5M94,405l30,2h30M292,27v52M215,334l1,-2v-74h15l2,-14v-60h29v-36l1,-18v-6h-7v-38l-1,-7h-29v-53M385,821v46h-45l-1,46h-25l-3,-1l-23,1l-9,-1M439,204l2,45l29,-1v-15l19,-1h32l12,-1M186,684l20,1h40l4,1l15,-1v-14M311,671l15,1l-1,40M226,79h-51M324,867l1,-9v-36M223,380l27,1v20h15v33M213,436l5,-5l16,3l12,-1l2,-2l12,-2l5,5l3,6v20h-16v10h-9v2h-30v-36h-6l-11,8l-21,1l-4,-11l-4,-1M414,407h-90l-15,1v-48l-1,-6h18l7,-6h5v-6l7,-1v-14l8,-1l-1,-30v-30h13l32,-1h26l17,-1M459,700v54M385,717v-23M425,866h5M397,265l-2,-60M355,917l3,-5h27M265,761h-15M191,183h3l39,1M216,258l-17,-1h-41M172,537l-37,-1l2,-3l-5,-18l-5,-8l7,-17h15v7h15l-1,15h5v5h4v20h19l1,45M131,606l-1,-9l3,-5l-2,-10l-1,-22l1,-2l-1,-6l5,-16M385,777v44h-41l-19,1v-15h-4l5,-7l3,-13l-2,-8v-2h58v-60h-60M536,369l-1,1h-22v1h-55v-22l-2,-28l-1,-37l1,-1h23l21,-2h22l12,-1M250,686v41l10,-6l2,-4h21l7,-3l8,-5l11,2l16,1v49h-60v36l-1,9l-8,17v3h-1v1l-1,5M182,782l23,-7v-15l19,1M137,482l-3,8M325,761v16h2M321,807l-19,-1h-38M369,515v13h12v9h11l2,6l5,2l1,4h14M370,589h-21l-1,1l-22,-1M385,657v-15h44v10h14l1,20h-4v7l2,6l-3,3l4,5l1,2h-25l-1,-1h-33v-37h-59v15M350,28v49l1,9l-20,1h-11v-9l-28,1h-37M213,472v5h-26l-1,-1h-36l-14,-1M268,460l13,-1v8h9v3h25M222,537v-7l-8,-26l-1,-27M230,368l8,-6l10,-1l11,-4l-1,-5l9,-14l5,-3l-1,-7M309,400h-43l-1,1M536,473l-10,1h-37l-5,1l-1,-5l-1,-55h2l-2,-29M282,297l3,-8h-24M157,273l-1,59M111,345l1,-41l1,-33M394,176v-16h53l5,-1h15v6M355,931v-14h-5l-8,-1l-3,3v-6M441,284h14M322,957l-8,-2l-6,-7l3,-11v-8l1,-5l6,-4l-1,-5l-6,-3M192,626h35l1,1h24M444,85v-58M196,124h60M414,350l7,-1h22l-2,-65l-1,-20l1,-15M274,872l8,1l2,-6h56M222,537h-31M252,537h-30M326,567h15v-52M337,296h15M385,754h44M429,754v60M429,814h-44"/>
<g class="districts"><path data-name="Congressional District 1" class="district-1701" d="M454,211l5,-3h10v-8h4l7,-9l-2,-3l5,-1h12l1,-7l-5,1v-9l6,-2l5,-6l5,2h4l1,-6h-6l2,-10l7,1l9,-8v2l1,12v1h-1l-7,2v10l-4,5l-3,3l-4,4l-2,3l-6,7l1,10v15l-2,1h-43Z"/><path data-name="Congressional District 2" class="district-1702" d="M440,264l1,-15l29,-1v-15l-1,-15h28l2,-1v-15l-1,-10l6,-7l2,-3l4,-4l3,-3l4,-5v-10l7,-2h1v-1l-1,-12l1,2v2l1,1l6,2v56l1,13v56l1,3l-12,1h-22l-21,2h-23l-1,1h-14Z"/><path data-name="Congressional District 3" class="district-1703" d="M467,168v-3h3v-5l8,2l4,-2l2,-2l-2,-8v-4l-1,-4h7l9,-1h6l4,7l6,-5l3,-6l1,7h-4l-5,6l-2,10h6l-1,6h-4l-5,-2l-5,6l-6,2v9l5,-1l-1,7h-12l-5,1h-23v-16l9,-1Z"/><path data-name="Congressional District 4" class="district-1704" d="M481,127h11l9,-7l7,-3l3,6l-1,5l-12,-3l-8,5h-8l2,8l5,2l1,-1h1l6,-4l7,-1v4l7,-3l5,2l-3,6l-6,5l-4,-7h-6l-9,1l-7,-7v-2Z"/><path data-name="Congressional District 5" class="district-1705" d="M480,121l-2,-8l2,-6l12,9l7,-7l2,3l10,1l4,6l2,3l1,5h-1l-3,2l-4,-1l1,-5l-3,-6l-7,3l-9,7h-11v8l7,7h-7l1,4h-1v1l-4,-4l-1,-5h-1l1,-9l-2,-10Z"/><path data-name="Congressional District 6" class="district-1706" d="M420,86h5v-15h19l20,-1h5v15h-2v3l-1,13h-11v-5h-11l-4,1v-12h-3l-4,8l2,1l1,7h-6l-2,10l4,2l5,-4v6h1l5,-5l4,4h1l1,6l9,10l11,-2l-4,10h11l1,5l4,4v-1h1v4l-1,1l-6,3l-6,1l-5,-9l-10,9l-3,-6h-6l-1,-5l5,-1l-3,-7l-2,-4h-7v-3l-3,-1l-12,-4v-23l-2,-2Z"/><path data-name="Congressional District 7" class="district-1707" d="M510,128l4,1l3,-2h1l2,3l4,13l-9,8l-7,-1l5,-6h4l-1,-7l-5,-2l-7,3v-4l-7,1l-6,4h-1l-1,1l-5,-2l-2,-8h8l8,-5Z"/><path data-name="Congressional District 8" class="district-1708" d="M435,94l-2,-1l4,-8h3v12l4,-1h11v5h11l1,-13v-3h10l-2,5l-6,-1l1,13l9,1l1,4l-2,6l2,8l-6,-2l2,10l-1,9h-10l4,-10l-11,2l-9,-10l-1,-6h-1l-4,-4l-5,5h-1v-6l-5,4l-4,-2l2,-10h6Z"/><path data-name="Congressional District 9" class="district-1709" d="M475,90h3l-1,7l4,7h11l-1,-5v-10l12,2v-2v1l7,8l7,24l-2,-3l-4,-6l-10,-1l-2,-3l-7,7l-12,-9l-1,-4l-9,-1l-1,-13Z"/><path data-name="Congressional District 10" class="district-1710" d="M444,41h20l10,4l2,8l6,-3l-2,-6h4l-2,-17h12l1,4v4l-2,14l-2,8v6l4,13l5,9l3,4v2l-12,-2v10l1,5h-11l-4,-7l1,-7h-3l2,-5h-8v-15h-5v-10h-10v-4h-10Z"/><path data-name="Congressional District 11" class="district-1711" d="M419,160h4v-14l14,-2h7l1,5h6l3,6l10,-9l5,9l6,-1l6,-3l1,-1l2,8l-2,2l-4,2l-8,-2v5h-3v3l-3,3l-9,1v16h23l2,3l-7,9h-4v8h-10l-5,3v-8l-8,1l-2,-7l-5,-2v-6h-7l-1,-7l7,-1h4l8,-2l1,-5l-1,-5l2,-10l-5,1h-10v4l-10,-1h-1l-6,-1Z"/><path data-name="Congressional District 12" class="district-1712" d="M160,746v-5l1,-1v-2l1,-1l1,-1v-2l1,-2l1,-1v-1l2,-1v-1l1,-2l4,-6l1,-4l1,-3l1,-3v-2l1,-2v-1l2,-2l1,-1l1,-3h1l3,-2v-1l1,-1l1,-1v-2l1,-2v-4l-1,-2v-1l-3,-6l2,-6l2,-2v-2l2,-2l1,-1h1l5,-4v-5l1,-1l-4,-4h-1l-2,-2l-1,-1l-2,-1h-1l-3,-1v-1l1,-2l2,-2l3,-1h1v1v-1h-1h5l14,1l-2,5v40h40l4,1v75h75v-44h60v150h-45l-1,46v6l3,-3l8,1h5v14h-2h2h-10l-12,11l-2,5l-9,10l-2,4v5l5,5l1,2h1l-2,1h-2l-1,1l-3,-5l-1,-2v-1l-2,-1v-1l-4,-4v-2l-2,-1l-7,-1v4h1l1,1l2,1l2,2l1,2l-1,3l-2,2l-2,-1l-1,-2l-1,-1l-1,-1l-2,-1l-3,-1l-4,-6l1,-3v-2l-1,-2l-1,-1l-1,-1l-3,-2l-5,-11l-1,-6l1,-3l-1,-1l-1,-1h-3l-3,-4v-6h1l1,-1l1,-1v-1l1,-1h2l3,-1h2v-1l1,-1l1,-4l-2,-9l-1,-1l-2,-3l-2,-3l-1,-1l-2,-5l-1,-2l-1,-2l-1,-1l-1,-2v-4l1,-3l3,1h1l1,-3l-2,-3l-1,-2l-1,-1l-1,-1v-9l-1,-1h-1l-1,-1h-2l-3,-1l-1,-2l-5,-4l-1,-1h-3l-2,-1v-2l1,-1v-2l-1,-1l-1,-2l-2,-1l-3,-2l-3,-2l-1,-3h-3l-1,-1h-2l-2,-1v-3l-5,-4l-1,-1l-1,1l-2,1l-1,2l-1,1h-2l-1,1l-5,-1l-2,-1l-1,-3l-2,-3v-2l3,-2l3,-3l-1,-2l-5,1h-3l-1,-1l-1,-2l-3,-2l-1,-1l-1,-1l-3,-2l-7,-7l-6,-2l-1,-1l-3,-2l-1,-1l-3,-1v-1l-3,-3v-1l-1,-1l-4,-7l-2,-1l-3,-1l-5,-12l-1,-3v-1Z"/><path data-name="Congressional District 13" class="district-1713" d="M88,556l10,1h23l10,1l-1,-6l5,-16l37,1h102v-15h-8l-1,-14h-1h1h-1l-1,1l-1,-1h-1v1l-1,-2l-1,-7h-4v-8l-4,-1l2,-5l9,-3l1,5h2l1,1l7,4l1,1v4l14,1l4,1l5,-5l7,-1l4,-4l5,-2h2v-18h10v-62l-1,-1v-34l17,-2l-1,-8h4l2,13l-1,21l2,5h7v5h60v24h23l-1,-5h12l2,5h8l1,29l-27,1l-3,2v12l-14,1v14h-29l-9,1l-1,9h-7v15h-28v52h-15v22h-15v33l-1,19l-24,1l-26,-1h-39l-1,6v23h-3l1,9l-2,4h-10v-38l2,-5l-14,-1h-5h1v1v-1h-1l-3,1l-2,2l-1,2l-1,-1l-1,-1h-1l-1,-1l-1,-1h-3l-4,-1h-1l-2,-1l-5,-3l-3,-2l-3,-1h-3l-1,-1h-2l-1,1l-1,1l-1,1l-1,2l-1,1l-4,7l-5,4l-9,-3l-1,-1l-1,-2v-1l-3,-3l-1,-3v-1l-1,-3v-5h-1v-2l-3,-5l1,-5l3,-5l-1,-3v-2l-1,-2h-1l-2,-11v-6l-1,-2v-2l-2,-1h-1v-1l-7,-8l-2,-2l-1,-1l-3,-2l-2,-1l-4,-4l-2,-1l-3,-2Z"/><path data-name="Congressional District 14" class="district-1714" d="M393,109l2,-7v-16h-15v-58h6l27,-1h69l2,17h-4l2,6l-6,3l-2,-8l-10,-4h-20v15h10v4h10v10l-20,1h-19v15h-5v13l2,2v23l12,4l3,1v3h7l2,4l3,7l-5,1h-7l-14,2v14h-4l1,2l6,1h1l10,1v-4h10l5,-1l-2,10l1,5l-1,5l-8,2h-4l-7,1l1,7h7v6l5,2l2,7h-7l-13,1h-31v-17l-1,-12h-14v-50l-1,-18l4,2Z"/><path data-name="Congressional District 15" class="district-1715" d="M206,683h10l2,-4l-1,-9h3v-23l1,-6h39l26,1l24,-1l1,-19v-33h15v-22h15v-52h28v-15h7l1,-9l9,-1h29v-14l14,-1v-12l3,-2l27,-1l-1,-29h-8l-2,-5h-12l1,5h-23v-44h15v-23l7,3l22,-1v5h55v-1h22l1,-1v104l1,2v51l1,2v22l1,3v12h-3v2h-5v1l-2,2v1l-1,1h-1v1h3v1l-1,1l-1,1l1,1v3l1,1l1,1v1l1,-1h1v6l-1,1v2h-2v1l-1,1h-2v2h1v1h-3v2h1v1l-1,-1l-1,1l-1,1l-1,1v1l3,2l-1,2h-1h1v1l1,-1h1v1h2v4h3l1,1v1h1v1l1,1v2l-1,1l1,1l1,2v2l-2,2v1h3h-3l1,1l4,1l2,1v1l1,1l1,1h1v1l-1,1h-1v1l1,1l-1,1v1l-1,1l1,1h-1v1h2l-1,1h-1l-1,1v1v-1l-1,1h1v1h1h-2v1l1,1v1h-2l2,1l1,1h1v6l1,2h1v2h1v1h1v1l-1,2h-1h2v2h-1v2h1l-1,2v1l-1,3l-1,3l-1,2h-1v1l-4,1l-5,3l-2,2v2l1,1l-1,1v1l-1,1v1l1,1h1l1,1l-1,1h-1l-2,-1h-1v3l-1,1v3l-2,1l1,2l1,2l1,1l-1,2h-2v-1h-1v2l-1,1l-3,2h-4l-1,1v1l-2,1v2h3v3l-1,1v4l-3,5l-3,2h-1l-1,1h-1v1l-1,2l-1,1v7l-1,2l-1,1l-1,1l-1,-1v-6h-2l-1,1v3l-1,1h-1v1l-1,1v1h-1l-1,-2l1,-1v-1h1l-1,-1v-1h-2v1h-1v1l-1,1v1h-1l-1,1v1h1l1,2l-1,1h-1v2l-1,1l-1,-1v-1l-1,-1v-1h-1l1,2l-1,6l5,5h1l1,1v3h1v-1l2,-1v2h-1l-1,2v1h-1v1l-1,1h-1l-1,-1v1l-1,-1l-1,1v3l-1,1h-3l-1,1l-1,1h1v1h2l2,-1h2l1,-1v3l-1,2l-2,2h-1l-1,1h-6v3l1,1l3,1l-1,1v1l-1,1v1h1v2l1,1v3l-1,1h-2v3l1,1v2h-3v-2h-1l-1,1l-1,1h1v1l5,1h1v1l1,1v2l-1,1v-1h-6l-1,-1h-1v-1h-2v2l3,2v2h1v1l1,2h1l4,2v1l-1,1h-1l-1,1h-1l-1,-1h-1l-1,-1h-1l-1,1v2l1,1h1v1h3l3,-1v1h1v1h-1v1l-1,2v2h-1l-1,3v1h-1l-1,1l-1,1h-1v1h-2v1l-2,2h-2v2l-1,1v1l-2,3l-1,1v4l1,2v1l1,2v1l1,2v2l1,1v1h1l1,1l1,1v1h1l2,3v1h2v1h1v1h1v2l-2,3v1l-1,2h-1v-1l-5,1h-2l-12,3h-5l-2,1h-2l-1,1l-1,1h-1v1h-1l-3,2l-2,3h-2v-2h-1l-1,-1h-3l-8,5l-2,7v2l-2,4v1l-1,1l-1,2v2h1v3h1h-1v1h1v1h1l1,1v1l1,1l2,3l1,1l1,1l1,1v1l1,1v2l2,4l-1,2v1l-2,5h1l-1,1v2l-1,1l-3,2h-4v1h-1l-2,-1h-2l-1,-1l-4,-1l-2,-2v-1l-5,-3h-1l-1,-1h-2l-3,-2h-1v-1h-5l-8,-5v-1l-2,-2h-2v-1h-4l-1,-1h-1l-2,-1l-7,-3h-1v-14h-5l-8,-1l-3,3v-6l1,-46h45v-150h-60v44h-75v-75l-4,-1h-40Z"/><path data-name="Congressional District 16" class="district-1716" d="M231,258l2,-14v-60h29v-36l1,-18v-6h-7v-38l-1,-7h37l28,-1v9h11l3,-10h6l2,-5l-8,-3l1,-5l-1,-1l-3,-4l-11,-1v-2h-13v6l-15,-1v-34h34l11,1h43v58h15v16l-2,7l-10,1l-4,-2l1,18v50h14l1,12v17h31l13,-1h7l8,-1v15h15l1,15v15l-29,1l-1,15l1,20h14l1,-1h23l21,-2h22l12,-1v25l1,2v59l1,1v2l-1,1h-22v1h-55v-5l-22,1l-7,-3v23h-15v-37h-15l-2,-25l-3,1h-41l-1,-30h-15v-30h-39l3,-8h-40v2l-15,-2Z"/><path data-name="Congressional District 17" class="district-1717" d="M68,338v-1l1,-3v-5l1,-5l1,-2l1,-3v-3l1,-4l2,-2l2,-2l1,-2l2,-3h1l1,-1v-1l6,-5l2,-1v-2l1,-3v-1l-1,-3l1,-2v-2l1,-2v-2l1,-1l-1,-2l1,-1l-1,-1v-3h-1l1,-1v-3l-2,-4v-1l-1,-2l-1,-1l-1,-1v-1l-1,-1l-1,-1h-2l-6,-6l-4,-5l-2,-3l1,-2v-1l1,-3l1,-1l2,-3v-2l1,-3v-5l1,-2l1,-2l1,-1l4,-6l3,-1h2l2,1l2,1h3l2,-1l3,-2l7,-3h2l4,1h11l2,-1h2l2,-1l6,-5l1,-1l4,-2l6,-1h8l1,-2l1,-1l2,-2l1,-1l1,-2h1l1,-1l4,-1l2,-1l1,-1v-10l1,-3l1,-3l1,-1l1,-1v-4l3,-6l1,-1l2,-2h1l1,-1l1,-1l8,-4v-6l1,-2v-2l1,-1v-2l1,-1l1,-1v-13l1,-6v-3l-1,-1v-1l-2,-1v-6l1,-1v-6l-1,-1h-2l-2,-4l-1,-1l-5,-3h-2l-2,-1l-1,-1l-4,-2l-1,-1l-2,-1h-1l-2,-1l-2,-2l-1,-1l-1,-2l-2,-3l-1,-1v-4l1,-4v-3l-1,-1l-2,-2v-2l-2,-1l-1,-1l-1,-2v-1h-2v-1l-1,-1h-1l-3,-1l-4,-4v-1l-1,-2l-2,-1h-2l-1,-1l-2,-1l-2,-2l-1,-2l-1,-1l2,-3h81l8,1h42l12,1h14v34l15,1v-6h13v2l11,1l3,4l1,1l-1,5l8,3l-2,5h-6l-3,10h-11v-9l-28,1h-37l1,7v38h7v6l-1,18v36h-29v60l-2,14h-15v74l-1,2v14h15l1,1h24l-1,-3l-2,-6l6,-2l2,-3l-1,-6l8,-1l5,7l-5,3v6l3,4l-6,3v22h-14v-2h-22l-5,9l-7,8l-8,3l-4,14l-9,12l-8,6l-33,-1v-15l2,-60l-15,-1h-22l-8,-1l-15,-1h-36l1,-1Z"/><path data-name="Congressional District 18" class="district-1718" d="M16,418v-5l1,-3l1,-2v-6l3,-5l1,-3l1,-1l2,-3l1,-1h1l1,-1l7,-4l-1,-10l1,-3l1,-2v-2l-1,-2l-1,-4h-2v-6l2,-1l4,-5l8,-4l2,-1h48l15,1l8,1h22l15,1l-2,60v15l33,1l8,-6l9,-12l4,-14l8,-3l7,-8l5,-9h22v2h14v-22l6,-3l-3,-4v-6l5,-3l-5,-7l-8,1l1,6l-2,3l-6,2l2,6l1,3h-24l-1,-1h-15v-14l1,-2v-74h30l15,2v-2h40l-3,8h39v30h15l1,30h41l3,-1l2,25h15v57h-60v-5h-7l-2,-5l1,-21l-2,-13h-4l1,8l-17,2v34l1,1v62h-10v18h-2l-5,2l-4,4l-7,1l-5,5l-4,-1l-14,-1v-4l-1,-1l-7,-4l-1,-1h-2l-1,-5l-9,3l-2,5l4,1v8h4l1,7l1,2v-1h1l1,1l1,-1h1h-1h1l1,14h8v15h-102l-37,-1l-5,16l1,6l-10,-1h-23l-10,-1h-1l-1,-1l-2,-1l-1,-1l-2,-1h-1v-1l-8,-7l-1,-4l-3,-6l-1,-1v-1l-4,-1h-2l-3,-5l-1,-3v-2h-1l-2,-1h-1v-1l-5,-4l-1,-1v-1h-1v-1l-1,-2l-2,-1l-3,-1v-1l-2,-3l-3,-2l-3,-5v-3l1,-1v-5l-2,-3l-2,-2l-4,-3l-1,-1v-1l-1,-5l2,-6l1,-2v-1l-1,-1l-1,-1v-1l-3,-5l-1,-2v-2l-2,-4l-1,-6v-4l-1,-4v-2l-1,-1v-4l1,-2l-1,-2l1,-4Z"/><path data-name="Congressional Districts not defined" class="district-17ZZ" d="M491,57l2,-8l2,-14v-4l-1,-4l56,-2h43l-6,26l-2,12l-11,77l-4,11l-26,1h-12l-6,-2l-1,-1v-2l-1,-2v-2l-4,-13l-2,-3l-1,-5l-7,-24l-7,-8v-1l-3,-4l-5,-9l-4,-13Z"/></g>
  <path class="districts-mesh" d="M88,556l10,1h23l10,1l-1,-6l5,-16l37,1h102v-15h-8l-1,-14h-1h1h-1l-1,1l-1,-1h-1v1l-1,-2l-1,-7h-4v-8l-4,-1l2,-5l9,-3l1,5h2l1,1l7,4l1,1v4l14,1l4,1l5,-5l7,-1l4,-4l5,-2h2v-18h10v-62l-1,-1v-34l17,-2l-1,-8h4l2,13l-1,21l2,5h7v5h60v24h23l-1,-5h12l2,5M482,150l-1,1l-6,3l-6,1l-5,-9l-10,9l-3,-6h-6l-1,-5l5,-1l-3,-7l-2,-4h-7v-3l-3,-1l-12,-4v-23l-2,-2v-13h5v-15h19l20,-1v-10h-10v-4h-10v-15h20l10,4l2,8l6,-3l-2,-6h4l-2,-17M488,142l-7,-7v-8h11l9,-7l7,-3l3,6l-1,5l-12,-3l-8,5h-8l2,8l5,2l1,-1h1l6,-4l7,-1v4l7,-3l5,2M494,27l1,4v4l-2,14l-2,8v6l4,13l5,9l3,4M534,280l-12,1h-22l-21,2h-23l-1,1h-14l-1,-20l1,-15l29,-1v-15l-1,-15M482,146h-1v1l-4,-4l-1,-5h-1l1,-9l-2,-10l6,2l-2,-8l2,-6l12,9l7,-7l2,3l10,1l4,6l2,3l1,5h-1l-3,2l-4,-1M183,644l1,-2l2,-2l3,-1h1v1v-1h-1h5l14,1l-2,5v40h40l4,1v75h75v-44h60v150h-45l-1,46v6l3,-3l8,1h5v14M464,70h5v15h-2v3l-1,13h-11v-5h-11l-4,1v-12h-3l-4,8l2,1l1,7h-6l-2,10l4,2l5,-4v6h1l5,-5l4,4h1l1,6l9,10l11,-2l-4,10h10M524,145l1,2v2l1,1l6,2M450,431h8l1,29l-27,1l-3,2v12l-14,1v14h-29l-9,1l-1,9h-7v15h-28v52h-15v22h-15v33l-1,19l-24,1l-26,-1h-39l-1,6v23h-3l1,9l-2,4h-10M446,204h-7l-13,1h-31v-17l-1,-12h-14v-50l-1,-18l4,2l10,-1l2,-7v-16h-15v-58M414,407v-20h15v-23l7,3l22,-1v5h55v-1h22l1,-1M454,211l5,-3h10v-8h4l7,-9l-2,-3h-23v-16l9,-1l3,-3v-3h3v-5l8,2l4,-2l2,-2l-2,-8v-4l-1,-4h7l9,-1h6l4,7l6,-5l3,-6l1,7h-4l-5,6M414,387v-37h-15l-2,-25l-3,1h-41l-1,-30h-15v-30h-39l3,-8h-40v2l-15,-2h-15l2,-14v-60h29v-36l1,-18v-6h-7v-38l-1,-7h37l28,-1v9h11l3,-10h6l2,-5l-8,-3l1,-5l-1,-1l-3,-4l-11,-1v-2h-13v6l-15,-1v-34M478,188l5,-1h12l1,-7l-5,1v-9l6,-2l5,-6l5,2h4l1,-6h-6l2,-10l7,1l9,-8v2l1,12v1h-1l-7,2v10l-4,5l-3,3l-4,4l-2,3l-6,7l1,10v15l-2,1h-43v-15l-8,1l-2,-7l-5,-2v-6h-7l-1,-7l7,-1h4l8,-2l1,-5l-1,-5l2,-10l-5,1h-10v4l-10,-1h-1l-6,-1l-1,-2h4v-14l14,-2h7M518,127l2,3l4,13M469,85h8l-2,5l-6,-1l1,13l9,1l1,4M475,90h3l-1,7l4,7h11l-1,-5v-10l12,2v-2v1l7,8l7,24M231,258h-15v74l-1,2v14h15l1,1h24l-1,-3l-2,-6l6,-2l2,-3l-1,-6l8,-1l5,7l-5,3v6l3,4l-6,3v22h-14v-2h-22l-5,9l-7,8l-8,3l-4,14l-9,12l-8,6l-33,-1v-15l2,-60l-15,-1h-22l-8,-1l-15,-1h-36"/>
</svg>