<?xml version="1.0" encoding="utf-8"?>
<!DOCTYPE svg PUBLIC "-//W3C//DTD SVG 1.1//EN" "http://www.w3.org/Graphics/SVG/1.1/DTD/svg11.dtd">
<svg version="1.1" xmlns="http://www.w3.org/2000/svg" width="651" height="1000" viewBox="0 0 651 1000">
  <path class="state" d="M418,27h41l7,-1h65l7,-1h47l24,-1h8l1,13v22l1,1v47l1,6v27l1,1v63h1v58l1,2v32l1,2v166l1,6v51l1,1v118l1,3v1l-1,1v1h1v10l-4,3l-1,1v1l-2,2l-1,1l-3,1h-2l-1,5l3,5l6,7v1l1,1h1v1l1,1v1l1,1v2h-1v2h-1v1l-2,1v1h-1v1l-1,1h-1v2h-1l-1,1v2h-1h1v2l1,1l1,1h10l1,1l4,3l-7,11l-1,1l1,4h1l1,2v5h-1l-1,1l-1,-1l-4,-1h-2l-2,-1h-4l-10,5l-1,-1h-5l-4,2l-1,1h-1l-1,1l-6,3h-1l-1,1h-1v1l-2,1h-1v1l-3,2h-1v1l-1,1l-1,1h-1v1l-1,1l-1,1h-1l-8,4h-1l-1,-1h-2l-1,-1l-2,-2l-1,-1l-1,-2l-1,-1v-1l-2,-2v-1h-1l-1,-1h-2l-1,-1h-6l-1,1h-2l-2,1h-1l-2,1h-6l-6,-1l-2,1l-3,3l-2,2v2l-1,1v5l1,1h1l1,2v3l1,1l-1,1v9l1,3h1l1,2l2,5v6l-1,2l-7,5l-3,3v1l-2,4h-1v2h-1l-8,4h-8l-7,6l-3,13l-1,4l-2,8l-1,1l-4,6h-1l-2,1v1h-1l-2,2l-3,2h-3l-4,-2v-1l-1,-1h-4l-3,1h-1l-2,1l-2,2v7l-6,7v1l-2,1l-2,3l-1,1l-2,6v19l-1,2v1l-1,9l-6,6h-5l-1,1h-3l-4,1l-1,1l-2,2v1l1,3l-1,3h-1l-4,-5l-1,-1v-1h-1v-2l-1,-1h1l-1,-1l-10,-4l-4,1l-4,1l-2,-1l-1,-1l-4,-2h-2l-2,-2l-2,-2l-2,-1l-3,-4v-1l-1,-2v-1l-1,-2v-2l1,-2v-9l-7,-7l-3,-2l-2,-2l-3,-1h-3v1l1,7l8,4v2l-5,2h-5l-1,1h-1l-1,2l-2,2l-1,-1l-2,-1l-2,-2h-4l-2,1v2h-1v1l1,1l1,1l4,3h1v1l-1,4l-1,3h-1l-3,2h-9l-1,1l-1,5l-1,5v2l1,1v8l1,1l1,1l1,1v1l-1,2l-1,1l-2,1h-5v-1h-2l-7,2v10l-1,4h-2l-1,1l-2,2h-3l-2,-2v-4l1,-1l1,-1v-3h1v-4l-1,-1l-2,-1h-4l-7,5h-2l-3,-4l-1,-1l-3,-6l-1,-1l-1,-1v-2h-1v-2l-1,-1v-4h-1v-1h-1v-1h-2v-1h-1v-1h-1l-1,1h-1v1h-2l-1,1h-1l-1,1l-1,1h-1v1l-2,1v1h-1v2l-1,1h-1v1l-1,1l-1,1h-1l-1,1h-3l-1,1h-7l-1,1l-7,3l-6,7l1,1v5l-4,11v2l-6,6h-6v-1l-2,-7l-5,-7h-7l-12,-8l-12,-7h-1l-1,-1l-2,-1v-1l-1,-1l-9,-5h-6l-2,1l-3,1l-9,7l-1,-1v-1h-1l-1,-1h-1l-2,-2h-1l-5,-6v-1l-1,-5h-1l-8,11l3,7l4,3v7l-1,2h-1v2h-1l-1,2h-1l-2,1h-8l-2,-2v-5l1,-1l1,-1l1,-7l-4,-2h-1v1h-1l-1,1h-9l-1,1h-1l-3,2l-2,1l-1,1h-2l-4,-1l-2,-1l-1,-1l-3,-4l-2,-4l-1,-2h-2l-2,-1l-2,2h-1v1h-1v1l-1,1v1l-1,1l-1,1h-1v5l1,3v1h1v1h2v2l1,1v1l1,2v5h-1l-2,2h-2l-1,2v1l-1,2l-1,1h-3l-1,-1l-1,-1l-2,-2h-1v-1l-2,-1h-1l-2,-1h-1l-1,1l-1,-2l-1,-1h-1l-1,1h-1l-1,1h-3l-2,-2v-1h-1l5,-2h4l2,-1h1l-1,-3v-1h-2l-2,-1h-1v-1h-1l-1,-1v-2l-1,-3l-2,-2v-1h-1l3,-2l1,1l3,1l4,-1l1,1v1h2v-1l1,-1l-1,-4v-1h-7l-2,-2h-1v-1l3,-1l1,1h1l1,1l1,-1l1,-1h-1v-6l4,-1v-1l-2,-8v-2l2,-4h1v-2h-2l-1,1h-2v-1h-1l1,-4l9,-1l2,-1l2,-2l1,-3v-1h1v-1l-1,-2h-3v1h-1l-1,1h-2l-1,1h-1v-2l-1,-1l3,-2h3l1,-1h1v-3l1,-1h5l2,-3h1v-2l1,-2l2,-1v-2l-2,-1h-1v4l-2,-4v-1h-3l-6,-8l1,-9l-1,-3l3,3v2h1v1h1v-1h1v-1l2,-3v-1l1,-4v-1l2,-3v-1l4,1v1l-1,1v1l-1,1v3h2l3,-4h1v-1l1,-2v-1l1,-2l1,-1l2,1v3l-1,1v2l4,1l2,-1v-2l1,-3l-1,-1v-4l1,-1v-3h1l2,-2l1,-1v-1l1,-1h1l5,-3l3,-5l1,-1v-1l1,-1v-1l1,-3v-2l1,-1v-3h-2l-2,-1v-2l2,-3h1l2,-1l2,1l1,-1h1l2,-1l1,-1l2,-1l1,-1v-1l1,-1h1l1,1h1l1,-1h1v-1h-1v-1l-1,-1l-1,-1v-1l-1,-1l-1,-3h1l2,-2l1,-1v-3h1l1,-1v-4h1l4,1v-1h-2v-6l2,-2l-1,-2l3,-6l6,-3h1l6,-1v-1h1l2,-2v-6l2,-3v-2h1l2,-1l-1,-1l-1,-1v-1l1,-3h-3v-2h2l2,-2v-1l-2,-2h-1l-1,-1v-2l-2,-3v-1h1v-2l-1,-1v-2l-1,-1l-1,-1l-3,-1v-1h1l1,-1l-1,-2h2v-3h-1l1,-2v1v-1l1,-1v-1h3v-1l-2,-1v-2h2v-3l-1,-1v-1h1v-1l1,-1v-1l-2,-2l-4,-3v-1l-6,-3h3v-1h-3v-2l1,-1v-1l1,-1v-1l-2,-3v-3l1,-1v-2h-1v-1l-1,-1l-1,-1l-1,-1v-1h-4l-1,-1v-2h1v-3h-7v-1l1,-1h2l1,-2h-1l-4,-4l2,-2v-2l2,-1l1,1h1v-1h-2v-2h2l2,-1h-1v-3h3l1,-1l1,-1l1,-1l1,-1v-1h1v-1h1v-5l-1,-2l2,-2h-3l-1,1v-1h-1l-1,-2l-1,-1l1,-1l1,-2h-1l-1,-1v-3l2,-1v-2h-3l-1,-1l3,-2l1,-2l1,-2l1,-1h1l1,-1h1l1,1h2v-1h1v-1l1,-1v-1h1l2,2v-112l1,-25v-53l1,-1v-26l1,-2v-47l1,-3v-45l1,-2v-107l1,-2v-79l1,-4v-42h1v-25h56l68,1h151Z"/>
<g class="geos"><path data-name="Jasper" class="geo-073" d="M177,156l11,-6l4,-6l11,-4l14,3l15,13l8,-4l-1,15v62h-10v17h-21v25l-30,-1l1,-38l-2,-3v-17Z"/><path data-name="Steuben" class="geo-151" d="M548,25h37l24,-1h8l1,13v22l1,1v20h-24v1h-36l-10,1Z"/><path data-name="Ohio" class="geo-115" d="M569,700l1,-5l2,3l11,-3l3,-7l7,-1l2,-4l5,1l16,-9l6,7v1l1,1h1v1l1,1v1l1,1v2h-1v2h-1v1l-2,1v1h-1v1l-1,1h-1v2h-1l-1,1v2h-1h1v2l1,1h-49Z"/><path data-name="Perry" class="geo-123" d="M259,888l3,-14v-11h21v-3l20,-1v14l20,1v22h-1v1l1,1l1,1l4,3h1v1l-1,4l-1,3h-1l-3,2h-9l-1,1l-1,5l-1,5v2l1,1v8l1,1l1,1l1,1v1l-1,2l-1,1l-2,1h-5v-1h-2l-7,2v10l-1,4h-2l-1,1l-2,2h-3l-2,-2v-4l1,-1l1,-1v-3h1v-4l-1,-1l-2,-1h-4l-7,5h-2l-3,-4l-1,-1l-3,-6l-1,-1l-1,-1v-2h-1v-2l-1,-1v-4h-1v-1h-1v-1h-2v-1h-1l3,-5l5,3l-2,-17l2,-7h-3Z"/><path data-name="Benton" class="geo-007" d="M131,291v-4l1,-2v-15h46l30,1h1v62h-38v-1h-40v-38Z"/><path data-name="Huntington" class="geo-069" d="M471,207l16,-1h39v66l1,17l-20,1h-35l-1,-22v-35Z"/><path data-name="Wabash" class="geo-169" d="M416,208v-10h27l20,-1v10h8v61l1,22l-9,1h-45v-35Z"/><path data-name="Allen" class="geo-003" d="M551,143h25l1,-1h21l1,-1h22v63h1v20l-16,1h-24l-9,1h-37l-10,1v-21l-1,-42h5v-20Z"/><path data-name="Marshall" class="geo-099" d="M395,94v10l1,63h-73v-72h21v-1Z"/><path data-name="Orange" class="geo-117" d="M352,759v70l-14,-1h-43l-12,1l-1,-31v-39Z"/><path data-name="Newton" class="geo-111" d="M132,181v-3l1,-2v-9l17,-1l4,3l6,-4l7,-1l10,-8v73l2,3l-1,38h-46v-88Z"/><path data-name="Warrick" class="geo-173" d="M163,863l4,4h42v7h10v20h-10l-5,15l-6,3l-3,-4l-2,9l-5,2l-9,14l-7,6v12l-12,-7h-1l-1,-1l-2,-1v-1l-1,-1l-9,-5h-6l-2,1v-22h-5l2,-32v-8h28Z"/><path data-name="Wells" class="geo-179" d="M573,226l1,41h1v42l-24,1h-34l-10,1v-21l20,-1l-1,-17v-45l10,-1Z"/><path data-name="Warren" class="geo-171" d="M130,348v-13l1,-3h40v1h38v25l-7,7l-8,1l-13,6l-6,6l-3,7l-13,11l-9,3l-4,9l6,4l-1,3h-14v-5h-8v-26l1,-2v-31Z"/><path data-name="Lake" class="geo-089" d="M134,51h1v-25h54l-1,52v72l-11,6l-10,8l-7,1l-6,4l-4,-3l-17,1v-70l1,-4Z"/><path data-name="Tippecanoe" class="geo-157" d="M209,358v-46l20,1h52v82h-39l-1,-1h-32Z"/><path data-name="LaPorte" class="geo-091" d="M240,27h72v24l7,3v18l-2,12h-5v21h-21l-10,7l-5,13l-10,16l-6,2l-8,1l-12,8Z"/><path data-name="Hamilton" class="geo-057" d="M432,393v46l1,20v4l-14,1h-55v-58l-1,-3v-9h63Z"/><path data-name="Posey" class="geo-129" d="M52,882v-2l-2,-1h-1v4l-2,-4v-1h-3l-6,-9l1,-4l10,1h24v7h21v8l-2,10l-1,54l-1,1h-9l-1,1h-1l-3,2l-2,1l-1,1h-2l-4,-1l-2,-1l-1,-1l-3,-4l-2,-4l-1,-2h-2l-2,-1l-2,2h-1v1h-1v1l-1,1v1l-1,1l-1,1h-1v5l1,3v1h1v1h2v2l1,1v1l1,2v5h-1l-2,2h-2l-1,2v1l-1,2l-1,1h-3l-1,-1l-1,-1l-2,-2h-1v-1l-2,-1h-1l-2,-1h-1l-1,1l-1,-2l-1,-1h-1l-1,1h-1l-1,1h-3l-2,-2v-1h-1l5,-2h4l2,-1h1l-1,-3v-1h-2l-2,-1h-1v-1h-1l-1,-1v-2l-1,-3l-2,-2v-1h-1l3,-2l1,1l3,1l4,-1l1,1v1h2v-1l1,-1l-1,-4v-1h-7l-2,-2h-1v-1l3,-1l1,1h1l1,1l1,-1l1,-1h-1v-6l4,-1v-1l-2,-8v-2l2,-4h1v-2h-2l-1,1h-2v-1h-1l1,-4l9,-1l2,-1l2,-2l1,-3v-1h1v-1l-1,-2h-3v1h-1l-1,1h-2l-1,1h-1v-2l-1,-1l3,-2h3l1,-1h1v-3l1,-1h5l2,-3h1v-2l1,-2Z"/><path data-name="Decatur" class="geo-031" d="M538,575v44l-26,18l-23,15l-23,1v-52h10v-25h31v-1Z"/><path data-name="Dubois" class="geo-037" d="M210,800l2,3l6,-2l19,1l9,2l9,-6h27l1,31v34h-21v11h-53v-7l1,-25Z"/><path data-name="Scott" class="geo-143" d="M468,728v18l7,2v5h7v8h7v17h-40l-1,3l-10,8l-1,-4h-6l-1,-38l4,2l5,-3l8,-16l12,-5Z"/><path data-name="Ripley" class="geo-137" d="M512,637l26,-18l14,-10h28l-5,38v10l-5,28v10l-1,5h-12v3h-31l-14,1Z"/><path data-name="Union" class="geo-161" d="M585,512v-3h40v12l1,1v35h-41Z"/><path data-name="Franklin" class="geo-047" d="M538,575l-1,-17h22l1,-1h66v52h-74l-14,10Z"/><path data-name="Bartholomew" class="geo-005" d="M393,603l25,-1l6,-1h42v52h-21l1,14l-9,2l-5,6h-23l-15,1v-4Z"/><path data-name="Cass" class="geo-017" d="M302,229l20,1h54l1,6v77h-37v-32h-28v-10h-10Z"/><path data-name="Carroll" class="geo-015" d="M268,313l-1,-25h3v-11l1,-6h41v10h28v32l-1,30l-5,1h-31l-22,-1v-30Z"/><path data-name="Montgomery" class="geo-107" d="M209,394h32l1,1h39v83h-58l-15,-1v-20h1Z"/><path data-name="Gibson" class="geo-051" d="M82,826l1,-1v-1l1,-1v-1l15,-3l-1,-4l6,-2l7,2l4,-11l20,-4l2,-5v16h3v7h7l1,14l8,-3l8,2l-1,32v11h-28v8l-11,-1h-30v-8h-21v-7h-24l-10,-1v-4l-1,-3l3,3v2h1v1h1v-1h1v-1l2,-3v-1l1,-4v-1l2,-3v-1l4,1v1l-1,1v1l-1,1v3h2l3,-4h1v-1l1,-2v-1l1,-2l1,-1l2,1v3l-1,1v2l4,1l2,-1v-2l1,-3l-1,-1v-4l1,-1v-3h1l2,-2l1,-1v-1l1,-1h1l5,-3Z"/><path data-name="Vermillion" class="geo-165" d="M128,442v-31l1,-1h8v5h14l-1,17l-4,7l2,17l-2,6l9,6l3,4l-2,4l5,2l-7,7l2,9l-2,27l-1,6l1,12h-27v-50l1,-25v-19Z"/><path data-name="Henry" class="geo-065" d="M485,427h66v17h2l1,31h-4l1,20h-15l-4,1h-50l-1,-20h4v-18Z"/><path data-name="Fulton" class="geo-049" d="M416,198v10l-18,1h-22v21h-54v-49l1,-14h69l1,21l10,-1v11Z"/><path data-name="Porter" class="geo-127" d="M188,78l1,-52h26l25,1v125l-8,4l-15,-13l-14,-3l-11,4l-4,6Z"/><path data-name="Greene" class="geo-055" d="M180,643l5,1h26l3,1h69v62h-78l-26,-2v-55Z"/><path data-name="Rush" class="geo-139" d="M475,517v-21h57l4,-1v25l1,38l1,17h-31v1h-31Z"/><path data-name="Vanderburgh" class="geo-163" d="M94,881h30l11,1l-2,32h5v22l-3,1l-9,7l-1,-1v-1h-1l-1,-1h-1l-2,-2h-1l-5,-6v-1l-1,-5h-1l-8,11l3,7l4,3v7l-1,2h-1v2h-1l-1,2h-1l-2,1h-8l-2,-2v-5l1,-1l1,-1l1,-7l-4,-2h-1v1h-1l1,-54Z"/><path data-name="Johnson" class="geo-081" d="M417,532v69l1,1l-25,1h-31v-70h31v-1Z"/><path data-name="Owen" class="geo-119" d="M236,571l14,1h42v8l1,22l-6,-1l1,5l-6,-1l1,40h-69l1,-42h20Z"/><path data-name="Clinton" class="geo-023" d="M281,343l22,1h31l5,-1h12v11l5,3h7v46l-20,1h-62v-24Z"/><path data-name="Hancock" class="geo-059" d="M485,458v18h-4l1,20h-7v21h-25l-2,1h-31l-1,-38l3,-3v-13l14,-1v-4h40Z"/><path data-name="Randolph" class="geo-135" d="M624,370v72l-15,1h-34l-1,1h-23v-17l-2,-34v-21h23l1,-1h37Z"/><path data-name="Jefferson" class="geo-077" d="M512,704l14,-1h31v54l-1,-1l-2,-2l-1,-1l-1,-2l-1,-1v-1l-2,-2v-1h-1l-1,-1h-2l-1,-1h-6l-1,1h-2l-2,1h-1l-2,1h-6l-6,-1l-2,1l-3,3l-2,2v2l-1,1v5l1,1h1l1,2v3l1,1l-1,1v9l1,3h1l1,2h-10l-3,-4h-14v-17h-7v-8h-7v-5l-7,-2v-21h13v-6h7v-7h7l-1,-8Z"/><path data-name="Vigo" class="geo-167" d="M127,556v-17h61v21h-8v62h-67l-1,-1l1,-1l1,-2h-1l-1,-1v-3l2,-1v-2h-3l-1,-1l3,-2l1,-2l1,-2l1,-1h1l1,-1h1l1,1h2v-1h1v-1l1,-1v-1h1l2,2v-36Z"/><path data-name="Elkhart" class="geo-039" d="M395,27h64l7,-1v5l2,52v20l-18,1h-55v-44Z"/><path data-name="Floyd" class="geo-043" d="M403,823l8,-1l5,4h29l9,13l-6,3v12l-3,1h-1l-2,1l-2,2v7l-6,7v1l-2,1l-2,3l-1,1v1l-11,-1v-18l-7,-3v-6h-4v-8h-4Z"/><path data-name="LaGrange" class="geo-087" d="M466,31v-5h65l7,-1h10l1,57h-42l-1,1h-38Z"/><path data-name="Harrison" class="geo-061" d="M362,822h31l10,1v20h4v8h4v6l7,3v18l11,1l-2,5v19l-1,2v1l-1,9l-6,6h-5l-1,1h-3l-4,1l-1,1l-2,2v1l1,3l-1,3h-1l-4,-5l-1,-1v-1h-1v-2l-1,-1h1l-1,-1l-10,-4l-4,1l-4,1l-2,-1l-1,-1l-4,-2h-2l-2,-2l-2,-2l-2,-1l-3,-4v-1l-1,-2v-1l-1,-2v-2l1,-2l1,-7l-8,-9l-3,-2l8,-4l-2,-6h4v-14h4l-4,-10v-6l3,-3Z"/><path data-name="Knox" class="geo-083" d="M131,739h-3v-2h2l2,-2v-1l-2,-2h-1l-1,-1v-2l-2,-3v-1h1v-2l-1,-1v-2l-1,-1l-1,-1l-3,-1v-1h1l1,-1l-1,-2h2v-3h-1l1,-2v1v-1l1,-1v-1h2l18,1h34v-2l26,2l-5,3l-3,12l-3,-1l-5,6l-7,3l-3,-3l-1,10l-2,3l3,5l-4,2l-3,13l4,6l3,-2v7l-3,5l1,1l1,15l-2,5l-9,3l-12,-8v8l-3,-6l-5,2l-10,-1l-2,5l-20,4l-4,11l-7,-2l-6,2l1,4l-15,3l1,-3v-2l1,-1v-3h-2l-2,-1v-2l2,-3h1l2,-1l2,1l1,-1h1l2,-1l1,-1l2,-1l1,-1v-1l1,-1h1l1,1h1l1,-1h1v-1h-1v-1l-1,-1l-1,-1v-1l-1,-1l-1,-3h1l2,-2l1,-1v-3h1l1,-1v-4h1l4,1v-1h-2v-6l2,-2l-1,-2l3,-6l6,-3h1l6,-1v-1h1l2,-2v-6l2,-3v-2h1l2,-1l-1,-1l-1,-1v-1Z"/><path data-name="Pulaski" class="geo-131" d="M239,167h84l-1,14v49l-20,-1h-63Z"/><path data-name="Brown" class="geo-013" d="M338,604l24,-1h31l1,69l-6,1h-48v-48h-2Z"/><path data-name="Clark" class="geo-019" d="M438,789l10,-8l1,-3h54l3,4h10l2,5v6l-1,2l-7,5l-3,3v1l-2,4h-1v2h-1l-8,4h-8l-7,6l-3,13l-1,4l-2,8l-1,1l-4,6h-1l-2,1v1h-1l-2,2l-3,2h-3l-4,-2v-1l-1,-1h-4v-12l6,-3l-9,-13h-29l-5,-4v-16h7l1,-4h12l3,-3v-7Z"/><path data-name="Morgan" class="geo-109" d="M288,541l6,1h29v-8h25l14,-1v70l-24,1h-45v-2l-1,-22v-8h-10v-12l7,-9Z"/><path data-name="Grant" class="geo-053" d="M432,312l-1,-21h32l9,-1h35v21l1,44h-76v-6Z"/><path data-name="St. Joseph" class="geo-141" d="M347,27h48v67h-51v1h-21v10h-11v-21h5l2,-12v-18l-7,-3v-24Z"/><path data-name="Starke" class="geo-149" d="M312,105h11v62h-84l1,-15l12,-8l8,-1l6,-2l10,-16l5,-13l10,-7Z"/><path data-name="Fountain" class="geo-045" d="M209,358v99h-56l-5,-1l-2,-17l4,-7l1,-17l1,-3l-6,-4l4,-9l9,-3l13,-11l3,-7l6,-6l13,-6l8,-1Z"/><path data-name="Tipton" class="geo-159" d="M396,350h24l12,-1v44l-6,1h-63v-43l9,-1Z"/><path data-name="Crawford" class="geo-025" d="M283,829l12,-1h43l14,1v-7h10l-1,14l-3,3v6l4,10h-4v14h-4l2,6l-8,4l-2,-2l-3,-1h-3v2l1,6l8,4v2l-5,2h-5l-1,1h-1l-1,2l-2,2l-1,-1l-2,-1l-2,-2h-4l-2,1v-20l-20,-1v-14l-20,1Z"/><path data-name="Switzerland" class="geo-155" d="M557,703v-3h12v5h49l1,1h10l1,1l4,3l-7,11l-1,1l1,4h1l1,2v5h-1l-1,1l-1,-1l-4,-1h-2l-2,-1h-4l-10,5l-1,-1h-5l-4,2l-1,1h-1l-1,1l-6,3h-1l-1,1h-1v1l-2,1h-1v1l-3,2h-1v1l-1,1l-1,1h-1v1l-1,1l-1,1h-1l-8,4h-1l-1,-1h-2v-15Z"/><path data-name="Delaware" class="geo-035" d="M484,355h24l18,-1h23v39l2,34h-66l-1,-10v-44Z"/><path data-name="Spencer" class="geo-147" d="M219,874h43l-3,14l3,9h3l-2,7l2,17l-5,-3l-3,5v-1h-1l-1,1h-1v1h-2l-1,1h-1l-1,1l-1,1h-1v1l-2,1v1h-1v2l-1,1h-1v1l-1,1l-1,1h-1l-1,1h-3l-1,1h-6h1h-2l-1,1l-7,3l-6,7l1,1v5l-4,11v2l-6,6h-6v-1l-2,-7l-5,-7h-7l-12,-8v-12l7,-6l9,-14l5,-2l2,-9l3,4l6,-3l5,-15h10Z"/><path data-name="Kosciusko" class="geo-085" d="M468,103v62h-5v32l-20,1h-40v-11l-10,1l-1,-21h4l-1,-63h55Z"/><path data-name="Boone" class="geo-011" d="M281,404h62l20,-1l1,3v58l-16,1h-67Z"/><path data-name="Jay" class="geo-075" d="M551,310l24,-1l19,-1h27l3,-1v63l-14,1h-37l-1,1h-23v-18h2v-23h1Z"/><path data-name="Sullivan" class="geo-153" d="M110,642h-1v-3h3l1,-1l1,-1l1,-1l1,-1v-1h1v-1h1v-5l-1,-2l2,-2h-3l-1,1v-1h-1l-1,-2h67v21l-1,7v57h-34l-18,-1h1v-1l-2,-1v-2h2v-3l-1,-1v-1h1v-1l1,-1v-1l-2,-2l-4,-3v-1l-6,-3h3v-1h-3v-2l1,-1v-1l1,-1v-1l-2,-3v-3l1,-1v-2h-1v-1l-1,-1l-1,-1l-1,-1v-1h-4l-1,-1v-2h1v-3h-7v-1l1,-1h2l1,-2h-1l-4,-4l2,-2v-2l2,-1l1,1h1v-1h-2v-2h2l2,-1Z"/><path data-name="White" class="geo-181" d="M208,271v-25h21v-17h73v42h-31l-1,6v11h-3l1,25h-39l-20,-1v-41Z"/><path data-name="Noble" class="geo-113" d="M468,103v-20h38l1,-1h42l1,7v39l1,15l-21,1h-41v-7l-21,1v-14Z"/><path data-name="Clay" class="geo-021" d="M188,539l5,1h30l-1,31h14l-1,32h-20l-1,42l-3,-1h-26l-5,-1v-83h8Z"/><path data-name="Jennings" class="geo-079" d="M446,667l-1,-14h21l23,-1l23,-15v67h-18l1,8h-7v7h-7v6h-13v3l-9,-3l-12,5v-42Z"/><path data-name="Daviess" class="geo-027" d="M205,707h36v21h-3l-1,14v60l-19,-1l-6,2l-2,-3l-8,-6l-7,6l-6,-9l-7,3l-4,-2l-1,-15l-1,-1l3,-5v-7l-3,2l-4,-6l3,-13l4,-2l-3,-5l2,-3l1,-10l3,3l7,-3l5,-6l3,1l3,-12Z"/><path data-name="DeKalb" class="geo-033" d="M549,82l10,-1h36v-1h24v27l1,6v27l1,1h-22l-1,1h-21l-1,1h-25l-1,-15v-39Z"/><path data-name="Howard" class="geo-067" d="M377,313l5,-1h50v37l-12,1h-48l-9,1v6h-7l-5,-3v-11h-12l1,-30Z"/><path data-name="Pike" class="geo-125" d="M137,795l10,1l5,-2l3,6v-8l12,8l9,-3l2,-5l4,2l7,-3l6,9l7,-6l8,6v42l-1,25h-42l-4,-4l1,-32l-8,-2l-8,3l-1,-14h-7v-7h-3Z"/><path data-name="Dearborn" class="geo-029" d="M580,609h46v31l1,3v1l-1,1v1h1v10l-4,3l-1,1v1l-2,2l-1,1l-3,1h-2l-1,5l3,5l-16,9l-5,-1l-2,4l-7,1l-3,7l-11,3l-2,-3v-10l5,-28v-10Z"/><path data-name="Jackson" class="geo-071" d="M350,686v-13h38l6,-1v4l15,-1h23l5,-6l9,-2l1,21v42l-8,16l-5,3l-4,-2l-18,-7l-11,2l-3,-5l-7,-1v4l-8,1l-11,-5l-3,3l-11,2l-1,-55Z"/><path data-name="Martin" class="geo-101" d="M241,707h42l-1,52v39h-27l-9,6l-9,-2v-60l1,-14h3Z"/><path data-name="Wayne" class="geo-177" d="M553,444h21l1,-1h34l15,-1v22l1,6v39h-40v3h-28v-17h-6l-1,-20h4Z"/><path data-name="Shelby" class="geo-145" d="M417,532v-14h31l2,-1h25l1,59v25h-52l-6,1l-1,-1Z"/><path data-name="Monroe" class="geo-105" d="M293,602v2h45v21h2v48h10v13h-67v-41l-1,-40l6,1l-1,-5Z"/><path data-name="Miami" class="geo-103" d="M376,230v-21h22l18,-1l2,48v35h13l1,21h-50l-5,1v-77Z"/><path data-name="Madison" class="geo-095" d="M432,393v-38h52v62l1,10v31l-12,1h-40l-1,-20Z"/><path data-name="Putnam" class="geo-133" d="M223,478h58l1,10v46h8l-2,7l1,10l-7,9v12h-32l-14,-1h-14l1,-31v-32Z"/><path data-name="Marion" class="geo-097" d="M419,464v13l-3,3l1,38v14h-24v1h-31l-14,1v-69l16,-1Z"/><path data-name="Parke" class="geo-121" d="M148,456l5,1h55v20l15,1v62h-30l-5,-1h-34l-1,-12l1,-6l2,-27l-2,-9l7,-7l-5,-2l2,-4l-3,-4l-9,-6Z"/><path data-name="Whitley" class="geo-183" d="M468,138l21,-1v7h41v20h-5l1,42h-39l-16,1h-8v-42h5Z"/><path data-name="Fayette" class="geo-041" d="M536,495h21v17h28v45h-25l-1,1h-22l-1,-38Z"/><path data-name="Adams" class="geo-001" d="M573,226l9,-1h24l16,-1v38l1,2v32l1,2v9l-3,1h-27l-19,1v-42h-1Z"/><path data-name="Washington" class="geo-175" d="M352,759v-12h3l3,-6l11,-2l3,-3l11,5l8,-1v-4l7,1l3,5l11,-2l18,7l1,38h6l1,4l-4,3v7l-3,3h-12l-1,4h-7v16l-8,1l-10,-1h-41Z"/><path data-name="Blackford" class="geo-009" d="M507,311l10,-1h34l1,21h-1v23h-25l-18,1Z"/><path data-name="Hendricks" class="geo-063" d="M281,478v-13h67v69h-25v8h-29l-6,-1l2,-7h-8v-46Z"/><path data-name="Lawrence" class="geo-093" d="M283,707v-21h74l1,55l-3,6h-3v12h-70Z"/></g>
  <path class="counties-mesh" d="M549,354v18h23l1,-1h37l14,-1M209,333v25l-7,7l-8,1l-13,6l-6,6l-3,7l-13,11l-9,3l-4,9l6,4l-1,3h-14v-5h-8M619,80h-24v1h-36l-10,1l-1,-57M618,705h-49v-5l1,-5l2,3l11,-3l3,-7l7,-1l2,-4l5,1l16,-9M257,923l3,-5l5,3l-2,-17l2,-7h-3l-3,-9l3,-14v-11h21v-3l20,-1v14l20,1v20M132,270h46M133,167l17,-1l4,3l6,-4l7,-1l10,-8M208,271h1v62h-38v-1h-40M472,290l-1,-22v-61l16,-1h39v66l1,17l-20,1M573,226l1,41h1v42l-24,1h-34l-10,1v-21h-35l-9,1h-45v-35l-2,-48v-10h27l20,-1v10h8M526,206l-1,-42h5v-20l21,-1h25l1,-1h21l1,-1h22M622,224l-16,1h-24l-9,1h-37l-10,1M138,936v-22h-5l2,-32v-8h28v-11l4,4h42v7h10v20h-10l-5,15l-6,3l-3,-4l-2,9l-5,2l-9,14l-7,6v12M209,312l20,1h52v82h-39l-1,-1h-32v-36M312,27v24l7,3v18l-2,12h-5v21h-21l-10,7l-5,13l-10,16l-6,2l-8,1l-12,8l-1,15v62h-10v17h-21v25l-30,-1l1,-38l-2,-3v-73l11,-6l4,-6l11,-4l14,3l15,13l8,-4v-125M39,865l10,1h24v7h21v8l-2,10l-1,54M209,867l1,-25v-42l2,3l6,-2l19,1l9,2l9,-6h27M283,829v31M262,874h-43M447,730l12,-5l9,3v18l7,2v5h7v8h7v17M538,619l14,-10h28l-5,38v10l-5,28v10M569,700h-12v3h-31l-14,1v-67M626,557h-41v-48h40M538,575v44l-26,18l-23,15l-23,1v-52h10v-25h31v-1h31l-1,-17h22l1,-1h25M626,609h-46M516,782h-10l-3,-4h-54l-1,3l-10,8l-1,-4h-6l-1,-38l4,2l5,-3l8,-16v-42l-1,-21l-9,2l-5,6h-23l-15,1v-4l-1,-69l25,-1l6,-1h42M466,653h-21l1,14M377,313h-37v-32h-28v-10h-10v-42h-63M268,313l-1,-25h3v-11l1,-6h31M340,313l-1,30l-5,1h-31l-22,-1M281,395v83h-58M208,457h1v-63M84,822l15,-3l-1,-4l6,-2l7,2l4,-11l20,-4l2,-5v16h3v7h7l1,14l8,-3l8,2l-1,32M135,882l-11,-1h-30M151,415l-1,17l-4,7l2,17l-2,6l9,6l3,4l-2,4l5,2l-7,7l2,9l-2,27l-1,6l1,12h-27M485,427h66v17h2l1,31h-4l1,20h-15l-4,1h-50l-1,-20h4v-18M416,208l-18,1h-22v21M239,167h84M392,167l1,21l10,-1v11h13M283,707h-78l-26,-2v-55l1,-7l5,1h26l3,1h69M476,576l-1,-59v-21h7M536,495v25l1,38M393,603h-31v-70M214,645l1,-42h20l1,-32M339,343h12v11l5,3h7v37M363,403v-9h63l6,-1v46l1,20v4l-14,1h-55v-58l-1,-3l-20,1h-62M475,517h-25l-2,1h-31M624,442l-15,1h-34l-1,1h-21M551,427l-2,-34v-21M557,703v54M468,728v-3h13v-6h7v-7h7l-1,-8h18M154,539h34v21h-8v62h-67M466,26v5l2,52v20l-18,1h-55M395,94v10l1,63h-73v-72h21v-1h51v-67M429,879l-11,-1v-18l-7,-3v-6h-4v-8h-4v-20l8,-1l5,4h29l9,13l-6,3v12M549,82h-42l-1,1h-38M348,879l8,-4l-2,-6h4v-14h4l-4,-10v-6l3,-3l1,-14h31l10,1M127,706l18,1h34v-2M205,707l-5,3l-3,12l-3,-1l-5,6l-7,3l-3,-3l-1,10l-2,3l3,5l-4,2l-3,13l4,6l3,-2v7l-3,5l1,1l1,15l-2,5l-9,3l-12,-8v8l-3,-6l-5,2l-10,-1M394,672l-6,1h-48v-48h-2v-21l24,-1M411,822v-16h7l1,-4h12l3,-3v-7l4,-3M338,604h-45v-2M507,311l1,44h-76v-43M323,105h-11M363,357v-6l9,-1h48l12,-1M432,355v38M352,822h10M468,103v62h-5v32M364,464l-16,1M282,572v-12l7,-9l-1,-10l6,1h29v-8h25v-69h-67M575,309l19,-1h27l3,-1M508,355l18,-1h25v-23h1l-1,-21M180,622v21M549,82l1,7v39l1,15M530,144h-41v-7l-21,1M188,539l5,1h30l-1,31h14l14,1h42v8l1,22l-6,-1l1,5l-6,-1l1,40v62l-1,52M241,707v21h-3l-1,14v60M210,800l-8,-6l-7,6l-6,-9l-7,3l-4,-2M430,747l-18,-7l-11,2l-3,-5l-7,-1v4l-8,1l-11,-5l-3,3l-11,2l-1,-55h-7v-13M585,512h-28v-17h-6M350,686h-67M281,478l1,10v46h8l-2,7M352,759v70l-14,-1h-43l-12,1l-1,-31v-39h70v-12h3l3,-6M348,534l14,-1h31v-1h24v-14l-1,-38l3,-3v-13M189,26l-1,52v72M322,230v-49l1,-14M432,312l-1,-21M405,312h27M377,313l5,-1h23M376,230l1,6v77M322,230h54M302,229l20,1M223,540v-62M223,478l-15,-1v-20M208,457h-55l-5,-1M485,427l-1,-10v-62M485,458v-31M433,459h40l12,-1M417,532v69l1,1"/>
<g class="districts"><path data-name="Congressional District 1" class="district-1801" d="M133,133v-36l1,-4v-42h1v-25h80l35,1h42l-4,2v14h-7v3h-21v97l-8,1l-12,8l-8,4l-15,-13l-14,-3l-11,4l-4,6l-11,6l-10,8l-7,1l-6,4l-4,-3l-17,1v-33Z"/><path data-name="Congressional District 2" class="district-1802" d="M239,167l1,-15l12,-8l8,-1v-97h21v-3h7v-14l4,-2h167l7,-1v5l2,52v41h-32l-5,2l-4,2v17h-5v21l20,-1l1,33l20,-1v10h8v61l1,22l-9,1h-32l1,21h-50l-5,1v-77l-1,-6h-54l-20,-1h-63Z"/><path data-name="Congressional District 3" class="district-1803" d="M431,126l5,-2h32v-41l-2,-52v-5h65l7,-1h47l24,-1h8l1,13v22l1,1v47l1,6v27l1,1v63h1v58l1,2v32l1,2v72l-14,1h-37l-1,1h-23v-18h2v-23h-33l3,-3v-8h-4v-10l-10,1v-21h-35l-1,-22v-61h-8v-10l-20,1l-1,-33l-20,1v-21h5v-17Z"/><path data-name="Congressional District 4" class="district-1804" d="M129,407v-23l1,-2v-47l1,-3v-45l1,-2v-107l1,-2v-9l17,-1l4,3l6,-4l7,-1l10,-8l11,-6l4,-6l11,-4l14,3l15,13l8,-4l-1,15v62h63l20,1h54l1,6v77l5,-1h23v19l-2,-1l-12,-2v15h5v7h-24l-9,1v52l-20,1v33l6,3v13l-6,1v11h5v69h-2v17l-4,2l-19,-1l-1,14h-20l-5,-4l1,10l6,3l5,-1v6h-17v-8h-42l-14,-1h-14l1,-31v-62l-15,-1v-20h-55l-5,-1l-2,-17l4,-7l1,-17h-14v-5h-8Z"/><path data-name="Congressional District 5" class="district-1805" d="M343,404l20,-1v-52l9,-1h24v-7h-5v-15l12,2l2,1v-19h27l-1,-21h32l9,-1h35v21l10,-1v10h4v8l-3,3h33v23h-25l-18,1h-24v62l1,10v31l-12,1h-40v4l-14,1v13l-3,3l-10,-1l-7,-4l-5,6l-9,1l-8,1l-3,-8l-11,-1l-5,4l-5,11h-5v-24h-5v-11l6,-1v-13l-6,-3Z"/><path data-name="Congressional District 6" class="district-1806" d="M393,603l25,-1l-1,-1v-83l-1,-38l3,-3v-13l14,-1v-4h40l12,-1v-31l-1,-10v-62h24l18,-1h23v18h23l1,-1h37l14,-1v94l1,6v51l1,1v118l1,3v1l-1,1v1h1v10l-4,3l-1,1v1l-2,2l-1,1l-3,1h-2l-1,5l3,5l6,7v1l1,1h1v1l1,1v1l1,1v2h-1v2h-1v1l-2,1v1h-1v1l-1,1h-1v2h-1l-1,1v2h-1h1v2l1,1l1,1h10l1,1l4,3l-7,11l-1,1l1,4h1l1,2v5h-1l-1,1l-1,-1l-4,-1h-2l-2,-1h-4l-10,5l-1,-1h-5l-4,2l-1,1h-1l-1,1l-6,3h-1l-1,1h-1v1l-2,1h-1v1l-3,2h-1v1l-1,1l-1,1h-1v1l-1,1l-1,1h-1l-8,4h-1l-1,-1h-2l-1,-1l-2,-2l-1,-1l-1,-2l-1,-1v-1l-2,-2v-1h-1l-1,-1h-2l-1,-1h-6l-1,1h-2l-2,1h-1l-2,1h-6l-6,-1l-2,1l-3,3l-2,2v2l-1,1v5l1,1h1l1,2v3l1,1l-1,1v9l1,3h1l1,2h-10l-3,-4h-42l5,-4l-5,-10l2,-7h-10l-6,-8h-13l5,-3l8,-16v-42l-1,-21l-9,2l-5,6h-23l-15,1v-4Z"/><path data-name="Congressional District 7" class="district-1807" d="M348,489h5l5,-11l5,-4l11,1l3,8l8,-1l9,-1l5,-6l7,4l10,1l1,38v14h-24v1h-31l-14,1Z"/><path data-name="Congressional District 8" class="district-1808" d="M20,944l1,1l3,1l4,-1l1,1v1h2v-1l1,-1l-1,-4v-1h-7l-2,-2h-1v-1l3,-1l1,1h1l1,1l1,-1l1,-1h-1v-6l4,-1v-1l-2,-8v-2l2,-4h1v-2h-2l-1,1h-2v-1h-1l1,-4l9,-1l2,-1l2,-2l1,-3v-1h1v-1l-1,-2h-3v1h-1l-1,1h-2l-1,1h-1v-2l-1,-1l3,-2h3l1,-1h1v-3l1,-1h5l2,-3h1v-2l1,-2l2,-1v-2l-2,-1h-1v4l-2,-4v-1h-3l-6,-9l1,-4v-4l-1,-3l3,3v2h1v1h1v-1h1v-1l2,-3v-1l1,-4v-1l2,-3v-1l4,1v1l-1,1v1l-1,1v3h2l3,-4h1v-1l1,-2v-1l1,-2l1,-1l2,1v3l-1,1v2l4,1l2,-1v-2l1,-3l-1,-1v-4l1,-1v-3h1l2,-2l1,-1v-1l1,-1h1l5,-3l3,-5l1,-1v-1l1,-1v-1l1,-3v-2l1,-1v-3h-2l-2,-1v-2l2,-3h1l2,-1l2,1l1,-1h1l2,-1l1,-1l2,-1l1,-1v-1l1,-1h1l1,1h1l1,-1h1v-1h-1v-1l-1,-1l-1,-1v-1l-1,-1l-1,-3h1l2,-2l1,-1v-3h1l1,-1v-4h1l4,1v-1h-2v-6l2,-2l-1,-2l3,-6l6,-3h1l6,-1v-1h1l2,-2v-6l2,-3v-2h1l2,-1l-1,-1l-1,-1v-1l1,-3h-3v-2h2l2,-2v-1l-2,-2h-1l-1,-1v-2l-2,-3v-1h1v-2l-1,-1v-2l-1,-1l-1,-1l-3,-1v-1h1l1,-1l-1,-2h2v-3h-1l1,-2v1v-1l1,-1v-1h3v-1l-2,-1v-2h2v-3l-1,-1v-1h1v-1l1,-1v-1l-2,-2l-4,-3v-1l-6,-3h3v-1h-3v-2l1,-1v-1l1,-1v-1l-2,-3v-3l1,-1v-2h-1v-1l-1,-1l-1,-1l-1,-1v-1h-4l-1,-1v-2h1v-3h-7v-1l1,-1h2l1,-2h-1l-4,-4l2,-2v-2l2,-1l1,1h1v-1h-2v-2h2l2,-1h-1v-3h3l1,-1l1,-1l1,-1l1,-1v-1h1v-1h1v-5l-1,-2l2,-2h-3l-1,1v-1h-1l-1,-2l-1,-1l1,-1l1,-2h-1l-1,-1v-3l2,-1v-2h-3l-1,-1l3,-2l1,-2l1,-2l1,-1h1l1,-1h1l1,1h2v-1h1v-1l1,-1v-1h1l2,2v-112l1,-25v-53l1,-1h8v5h14l-1,17l-4,7l2,17l5,1h55v20l15,1v62l-1,31h14l14,1h42v8l1,22l-6,-1l1,5l-6,-1l1,40v62l-1,52v39l1,31l12,-1l-1,7l1,11l8,-1v14l3,2l4,5l13,-1v10l2,2l7,2l8,-1l1,6l8,4v2l-5,2h-5l-1,1h-1l-1,2l-2,2l-1,-1l-2,-1l-2,-2h-4l-2,1v2h-1v1l1,1l1,1l4,3h1v1l-1,4l-1,3h-1l-3,2h-9l-1,1l-1,5l-1,5v2l1,1v8l1,1l1,1l1,1v1l-1,2l-1,1l-2,1h-5v-1h-2l-7,2v10l-1,4h-2l-1,1l-2,2h-3l-2,-2v-4l1,-1l1,-1v-3h1v-4l-1,-1l-2,-1h-4l-7,5h-2l-3,-4l-1,-1l-3,-6l-1,-1l-1,-1v-2h-1v-2l-1,-1v-4h-1v-1h-1v-1h-2v-1h-1v-1h-1l-1,1h-1v1h-2l-1,1h-1l-1,1l-1,1h-1v1l-2,1v1h-1v2l-1,1h-1v1l-1,1l-1,1h-1l-1,1h-3l-1,1h-6h1h-2l-1,1l-7,3l-6,7l1,1v5l-4,11v2l-6,6h-6v-1l-2,-7l-5,-7h-7l-12,-8l-12,-7h-1l-1,-1l-2,-1v-1l-1,-1l-9,-5h-6l-2,1l-3,1l-9,7l-1,-1v-1h-1l-1,-1h-1l-2,-2h-1l-5,-6v-1l-1,-5h-1l-8,11l3,7l4,3v7l-1,2h-1v2h-1l-1,2h-1l-2,1h-8l-2,-2v-5l1,-1l1,-1l1,-7l-4,-2h-1v1h-1l-1,1h-9l-1,1h-1l-3,2l-2,1l-1,1h-2l-4,-1l-2,-1l-1,-1l-3,-4l-2,-4l-1,-2h-2l-2,-1l-2,2h-1v1h-1v1l-1,1v1l-1,1l-1,1h-1v5l1,3v1h1v1h2v2l1,1v1l1,2v5h-1l-2,2h-2l-1,2v1l-1,2l-1,1h-3l-1,-1l-1,-1l-2,-2h-1v-1l-2,-1h-1l-2,-1h-1l-1,1l-1,-2l-1,-1h-1l-1,1h-1l-1,1h-3l-2,-2v-1h-1l5,-2h4l2,-1h1l-1,-3v-1h-2l-2,-1h-1v-1h-1l-1,-1v-2l-1,-3l-2,-2v-1h-1Z"/><path data-name="Congressional District 9" class="district-1809" d="M293,602l-1,-22h17v-6l-5,1l-6,-3l-1,-10l5,4h20l1,-14l19,1l4,-2v-17h2l14,-1h31v-1h24v69l1,1l-25,1l1,69v4l15,-1h23l5,-6l9,-2l1,21v42l-8,16l-5,3h13l6,8h10l-2,7l5,10l-5,4h42l3,4h10l2,5v6l-1,2l-7,5l-3,3v1l-2,4h-1v2h-1l-8,4h-8l-7,6l-3,13l-1,4l-2,8l-1,1l-4,6h-1l-2,1v1h-1l-2,2l-3,2h-3l-4,-2v-1l-1,-1h-4l-3,1h-1l-2,1l-2,2v7l-6,7v1l-2,1l-2,3l-1,1v1l-2,5v19l-1,2v1l-1,9l-6,6h-5l-1,1h-3l-4,1l-1,1l-2,2v1l1,3l-1,3h-1l-4,-5l-1,-1v-1h-1v-2l-1,-1h1l-1,-1l-10,-4l-4,1l-4,1l-2,-1l-1,-1l-4,-2h-2l-2,-2l-2,-2l-2,-1l-3,-4v-1l-1,-2v-1l-1,-2v-2l1,-2l1,-7l-8,-9l-3,-2l-2,-2l-3,-1h-3v2l-8,1l-7,-2l-2,-2v-10l-13,1l-4,-5l-3,-2v-14l-8,1l-1,-11l1,-7l-12,1l-1,-31v-39l1,-52v-62l-1,-40l6,1l-1,-5Z"/></g>
  <path class="districts-mesh" d="M624,370l-14,1h-37l-1,1h-23v-18h2v-23h-33l3,-3v-8h-4v-10l-10,1v-21h-35M405,312v19l-2,-1l-12,-2v15h5v7h-24l-9,1v52l-20,1v33l6,3v13l-6,1v11h5v69h-2v17l-4,2l-19,-1l-1,14h-20l-5,-4l1,10l6,3l5,-1v6h-17v-8h-42l-14,-1h-14l1,-31v-62l-15,-1v-20h-55l-5,-1l-2,-17l4,-7l1,-17h-14v-5h-8M549,354h-23l-18,1h-24v62l1,10v31l-12,1h-40v4l-14,1v13l-3,3l-10,-1l-7,-4l-5,6l-9,1l-8,1l-3,-8l-11,-1l-5,4l-5,11h-5M516,782h-10l-3,-4h-42l5,-4l-5,-10l2,-7h-10l-6,-8h-13l5,-3l8,-16v-42l-1,-21l-9,2l-5,6h-23l-15,1v-4l-1,-69l25,-1l-1,-1v-83l-1,-38M417,532h-24v1h-31l-14,1M292,27l-4,2v14h-7v3h-21v97l-8,1l-12,8l-8,4l-15,-13l-14,-3l-11,4l-4,6l-11,6l-10,8l-7,1l-6,4l-4,-3l-17,1M466,26v5l2,52v41h-32l-5,2l-4,2v17h-5v21l20,-1l1,33l20,-1v10h8v61l1,22l-9,1h-32l1,21h-50l-5,1v-77l-1,-6h-54l-20,-1h-63v-62l1,-15M292,580l1,22l-6,-1l1,5l-6,-1l1,40v62l-1,52v39l1,31l12,-1l-1,7l1,11l8,-1v14l3,2l4,5l13,-1v10l2,2l7,2l8,-1"/>
</svg>