<?xml version="1.0" encoding="utf-8"?>
<!DOCTYPE svg PUBLIC "-//W3C//DTD SVG 1.1//EN" "http://www.w3.org/Graphics/SVG/1.1/DTD/svg11.dtd">
<svg version="1.1" xmlns="http://www.w3.org/2000/svg" width="1000" height="517" viewBox="0 0 1000 517">
  <path class="state" d="M117,16h6l35,1h22l22,1h23l5,1h37l4,1h48l3,1h87l5,1h176l10,-1h73l13,-1h53l4,-1h38l3,-1h36l9,-1h42l5,4v1l8,4v5l3,1l1,-1l4,2v2l1,1h2l3,2l3,-1h1l4,-3v-2h1l3,-1v1h1l1,-1h3l3,2v1l-1,1v1h-1v3l2,2h4l2,1v1l1,1v1l-1,1v1h-1v1h-5v1h-1v2l1,1h1v1h3v-1h1l1,-1h2l1,1v4l-1,1h-1v1h-1l-1,1h-2l-1,-1h-1v-1h-1l-1,-1h-1v-1v1h-1l-1,1v9h-1v1h-5v1h-1v1l-1,1v1l-1,1v1h-1v5h1v3h-1v1l-1,1h-3v-1h-1v1h-2v7h1l7,5v4h1v2l9,4v2l1,1l2,1v3l2,1h7v2l-3,2l-1,1v4l1,1v3l1,1l1,1l2,2h1l4,2v1h1v1h1v2l-1,2v2l3,1h3l1,1v2h1v1l2,1l2,1h9v1l1,1l4,-1h3l1,2v2l-1,1l-1,1v10h1v26h1v28l1,1v31l1,5v20l1,4v20h1v28l1,1v29h1v29h1v21l1,1v24h1v25l1,1v22l1,1v13h-13l-5,1h-14l-16,1h-24l-1,1h-27l-1,1h-33v1h-50l-5,1h-42l-2,1h-52l-2,1h-69l-3,1h-216l-15,-1h-60v-1h-44v-1h-52l-7,-1h-67l-1,-1h-37l-5,-1h-33l-1,-1h-32v-1h-21v-24l1,-18v-1l1,-21v-13l2,-29v-16l1,-32l1,-15l1,-34v-3l2,-31l1,-18v-18l1,-21l1,-14v-21l1,-3v-11l1,-16v-15l1,-31l1,-8v-10l1,-19v-11l1,-25v-4h17l1,1l43,1h1l9,1Z"/>
<g class="geos"><path data-name="Greenwood" class="geo-073" d="M748,313l26,-1h25v20l1,12v59h-57l-15,1v-55l-1,-22h21Z"/><path data-name="Doniphan" class="geo-043" d="M867,17h4l5,4v1l8,4v5l3,1l1,-1l4,2v2l1,1h2l3,2l3,-1h1l4,-3v-2h1l3,-1v1h1l1,-1h3l3,2v1l-1,1v1h-1v3l2,2h4l2,1v1l1,1v1l-1,1v1h-1v1h-5v1h-1v2l1,1h1v1h3v-1h1l1,-1h2l1,1v4l-1,1h-1v1h-1l-1,1h-2l-1,-1h-1v-1h-1l-1,-1h-1v-1v1h-1l-1,1v9h-1v1h-5v1h-1v1l-1,1v1l-1,1v1h-1v4h-4l-3,-6l-29,1v-28l-1,-1Z"/><path data-name="Republic" class="geo-157" d="M548,22h42l10,-1h18v56h-51l-19,1Z"/><path data-name="Decatur" class="geo-039" d="M204,18h21l5,1h37l4,1h2l-1,20v41l-1,8l-67,-1h-2v-35h1v-29Z"/><path data-name="Phillips" class="geo-147" d="M340,21h69v70h-70v-31l1,-1Z"/><path data-name="Lyon" class="geo-111" d="M747,257v-29l-1,-6l52,-2v44l1,6v42h-25l-26,1v-28h-1Z"/><path data-name="Hamilton" class="geo-075" d="M32,292v-1l28,2l32,1h4l-1,8v28l-1,2l-1,31h2v15l-66,-3v-2l1,-32l1,-15Z"/><path data-name="Wallace" class="geo-199" d="M108,154l-2,38l-1,32l-10,-1l-60,-1l1,-21l1,-14v-21l1,-3v-11Z"/><path data-name="Riley" class="geo-161" d="M669,91l18,-1h29l-7,5l-4,10l-5,2l-1,11l9,11l2,6l10,7v10l12,2v-4l9,3v20h-14v-4h-24l-1,-3l-18,1v-21h-15Z"/><path data-name="Ellis" class="geo-051" d="M343,160h48l20,1h1v46h-1v24l-68,-1h-2v-22l1,-1v-39Z"/><path data-name="Pratt" class="geo-151" d="M413,386v-16l1,1h68l1,15v42h-55l-16,-1v-41Z"/><path data-name="Lane" class="geo-101" d="M253,228h7l-1,2v59l-1,10l-55,-2l1,-16v-47l1,-7Z"/><path data-name="Trego" class="geo-195" d="M274,159l27,1h42l-1,8v39l-1,1v22h-40l-29,-1l1,-21v-30Z"/><path data-name="Greeley" class="geo-071" d="M35,235v-13l60,1l-1,17v22l-1,4v26l-1,2l-32,-1l-28,-2v-2l2,-31l1,-18Z"/><path data-name="McPherson" class="geo-113" d="M550,259v-14h56l14,-1v70h1l-42,1h-28l-1,-14Z"/><path data-name="Cowley" class="geo-035" d="M649,426l58,-1l22,-1v26l1,2v49h-40l-2,1h-37l-1,-8v-51Z"/><path data-name="Osage" class="geo-139" d="M798,220l-1,-20l56,-2v58l1,12l-55,2l-1,-6Z"/><path data-name="Marion" class="geo-115" d="M620,244h55v14h14v27h-2v43h-39l-1,-14h-27Z"/><path data-name="Rush" class="geo-165" d="M343,230l68,1h1v56l-70,-1v-51Z"/><path data-name="Stanton" class="geo-187" d="M27,431v-13l2,-29v-14l66,3l-1,7v29l-1,20h-4Z"/><path data-name="Franklin" class="geo-059" d="M853,219l56,-2l-1,7l1,19v29l1,1l-56,2v-7l-1,-12Z"/><path data-name="Pottawatomie" class="geo-149" d="M716,90l42,-1l25,-1v29l1,2v40l-6,-4l3,-2l-1,-4h-14l-7,-3l-3,5l-4,-3l-6,8l-5,-3l-9,-3v4l-12,-2v-10l-10,-7l-2,-6l-9,-11l1,-11l5,-2l4,-10Z"/><path data-name="Sherman" class="geo-181" d="M41,82l35,1l43,2h2v44l-1,1v25l-12,-1l-70,-2l1,-16v-15l1,-31Z"/><path data-name="Allen" class="geo-001" d="M855,331l55,-2l1,35l-1,15l-55,1v-23Z"/><path data-name="Labette" class="geo-099" d="M858,436l32,-1l23,-1l2,8v22l1,2v30h-13l-1,1h-27l-1,1h-16v-45Z"/><path data-name="Johnson" class="geo-091" d="M958,166h5v24h1v25l-37,1l-18,1l-1,-5v-27l-1,-7l7,-3l6,3l5,-2l3,-10l4,-2l6,3Z"/><path data-name="Cherokee" class="geo-021" d="M915,442l30,-2h28v17l1,1v22l1,1v13h-13l-5,1h-14l-16,1h-11v-30l-1,-2Z"/><path data-name="Cheyenne" class="geo-023" d="M42,53v-11l1,-25v-4h17l1,1l43,1h1l9,1h7v42l-1,2l-1,25l-43,-2l-35,-1v-10Z"/><path data-name="Atchison" class="geo-005" d="M840,73l28,-1l29,-1l3,6h4v1h1v3h-1v1l-1,1h-3v-1h-1v1h-2v7h1l7,5v4h1v2l9,4v2l1,1l-27,1h-31l-17,1l-1,-8Z"/><path data-name="Cloud" class="geo-029" d="M548,92v-14l19,-1h51v14l1,1v41h-70v-41Z"/><path data-name="Geary" class="geo-061" d="M669,160v-14h15v21l18,-1l1,3h24v32l-48,1h-4l-1,-16l-4,1Z"/><path data-name="Russell" class="geo-167" d="M412,161h68v70h-69v-24h1Z"/><path data-name="Barton" class="geo-009" d="M412,231h69v70h-69v-14Z"/><path data-name="Shawnee" class="geo-177" d="M784,159v-15l55,-1v24l13,1v24l1,6l-56,2v-25l-1,-12Z"/><path data-name="Butler" class="geo-015" d="M648,356v-28h39l40,-1l1,22v55l1,20l-22,1l-58,1v-35h-1Z"/><path data-name="Jewell" class="geo-089" d="M478,22h70v70h-70Z"/><path data-name="Mitchell" class="geo-123" d="M480,92h69v55h-69Z"/><path data-name="Scott" class="geo-171" d="M150,225l38,1l17,1l-1,7v47l-1,16l-52,-2h-3v-28l1,-2v-31Z"/><path data-name="Stevens" class="geo-189" d="M89,434h17l42,2h3l-1,19v34l-1,9h-32l-5,-1h-25v-28h1v-29Z"/><path data-name="Douglas" class="geo-045" d="M852,168l6,-2l6,1l6,4l21,-2v13l10,-1l6,-3l1,7v27l1,5l-56,2v-21l-1,-6Z"/><path data-name="Comanche" class="geo-033" d="M385,502h-40v-61h69l-1,15v47h-13Z"/><path data-name="Pawnee" class="geo-145" d="M343,311l-1,-11v-14l70,1v14h15l-1,4v38l-14,-1h-41v-14h-28Z"/><path data-name="Wyandotte" class="geo-209" d="M941,142v2h1v1l2,1l2,1h9v1l1,1l4,-1h3l1,2v2l-1,1l-1,1v10h1v2h-5l-20,1l-6,-3l-4,2l-3,10v-34Z"/><path data-name="Graham" class="geo-065" d="M274,89l25,1l40,1h3v39l-1,1v29h-40l-27,-1h-2v-21l1,-1v-38Z"/><path data-name="Morton" class="geo-129" d="M25,471l1,-18v-1l1,-21l62,3l-1,6v29h-1v28h-8l-1,-1h-32v-1h-21v-12Z"/><path data-name="Sumner" class="geo-191" d="M567,441l-1,-14l32,-1h51l1,17v51l1,8h-32l-3,1h-49v-21Z"/><path data-name="Miami" class="geo-121" d="M909,217l18,-1l37,-1v3l1,1v31l1,5v16l-15,1l-41,1l-1,-1v-29l-1,-19Z"/><path data-name="Gove" class="geo-063" d="M191,157l11,1h37l33,1h2l-1,19v30l-1,21l-12,-1h-7l-48,-1l-17,-1l1,-4v-23h1v-21Z"/><path data-name="Ford" class="geo-057" d="M259,354l26,1l58,1l1,29v42h-32l-38,-2l-15,-1l1,-6v-35l1,-15h-2Z"/><path data-name="Neosho" class="geo-133" d="M910,379l1,9l1,20v25l1,1l-23,1l-32,1h-1l-1,-18v-27l-1,-11Z"/><path data-name="Linn" class="geo-107" d="M910,273l41,-1l15,-1v4l1,4v20h1v28l1,1l-59,1Z"/><path data-name="Brown" class="geo-013" d="M812,18h8l9,-1h38v26l1,1v28l-28,1h-27v-26l-1,-1Z"/><path data-name="Bourbon" class="geo-011" d="M910,329l59,-1v29h1v29h1h-16l-44,2l-1,-9l1,-15Z"/><path data-name="Clay" class="geo-027" d="M618,91h51v69l-50,1v-69Z"/><path data-name="Lincoln" class="geo-105" d="M480,161v-14h69v56h-69Z"/><path data-name="Smith" class="geo-183" d="M409,21l5,1h64v70h-41l-25,-1h-3Z"/><path data-name="Morris" class="geo-127" d="M679,202l48,-1l1,7h14v12l4,2l1,6v29l-58,1h-14v-46l5,-1Z"/><path data-name="Barber" class="geo-007" d="M483,428v14h14v61h-84v-47l1,-15h-2v-14l16,1Z"/><path data-name="Logan" class="geo-109" d="M108,154l12,1l43,2h28l-1,21v21h-1v23l-1,4l-38,-1l-16,-1h-29l1,-32Z"/><path data-name="Chase" class="geo-017" d="M747,257v28h1v42h-21l-40,1v-43h2v-27Z"/><path data-name="Crawford" class="geo-037" d="M911,388l44,-2h16v21l1,1v24h1v8h-28l-30,2l-2,-8l-1,-1v-25Z"/><path data-name="Woodson" class="geo-207" d="M799,332l56,-1v49l-55,2v-38Z"/><path data-name="Jefferson" class="geo-087" d="M841,110l17,-1h31l1,1v26l1,1v32l-21,2l-6,-4l-6,-1l-6,2l-13,-1v-50Z"/><path data-name="Rawlins" class="geo-153" d="M159,17h21l22,1h2l-1,6v29h-1v35l-81,-3h-2l1,-25l1,-2v-42h2l35,1Z"/><path data-name="Thomas" class="geo-193" d="M202,88h2v23h-1v31l-1,16l-11,-1h-28l-43,-2v-25l1,-1v-44Z"/><path data-name="Ottawa" class="geo-143" d="M549,147v-14h70v56h-70Z"/><path data-name="Rice" class="geo-159" d="M481,259h69v42l1,14h-28v2l-9,-2h-32l-1,-14Z"/><path data-name="Ness" class="geo-135" d="M260,228l12,1l29,1h42l-1,5v65h-35l-46,-1h-3l1,-10v-59Z"/><path data-name="Wilson" class="geo-205" d="M800,382l55,-2l1,11v27l1,18l-56,1l-1,-3v-31Z"/><path data-name="Osborne" class="geo-141" d="M412,91l25,1h43v69h-69v-49Z"/><path data-name="Clark" class="geo-025" d="M274,425l38,2h32l1,14v61h-20v-1h-44v-1h-6v-49l1,-12h-2Z"/><path data-name="Haskell" class="geo-081" d="M151,436h-3l1,-11v-34l1,-11l55,2v25l-1,16v14Z"/><path data-name="Saline" class="geo-169" d="M549,203v-14h70v36l1,19l-14,1h-56l-1,-14Z"/><path data-name="Kingman" class="geo-095" d="M483,386h83v41l1,14l-25,1h-59v-14Z"/><path data-name="Stafford" class="geo-185" d="M427,301h54l1,14v56h-68l-1,-1h-1v-28l14,1v-38Z"/><path data-name="Dickinson" class="geo-041" d="M619,189v-28l50,-1l1,27l4,-1l1,16h4l1,9l-5,1v32h-55l-1,-19Z"/><path data-name="Finney" class="geo-055" d="M151,295l52,2l55,2h3l-1,17v24l-55,-1l-1,27h2l-1,16l-55,-2l-1,-15v-27l1,-1v-31Z"/><path data-name="Montgomery" class="geo-125" d="M801,451v-14l56,-1h1v62h-17v1h-39l-1,-14Z"/><path data-name="Edwards" class="geo-047" d="M385,342h27v28h1v16l-3,-1h-66l-1,-29v-28h28v14Z"/><path data-name="Harvey" class="geo-079" d="M579,315l42,-1h26l1,14v28l-24,1h-45Z"/><path data-name="Sheridan" class="geo-179" d="M204,88l67,1h3l-1,10v38l-1,1v21l-33,-1h-37l1,-16v-31h1Z"/><path data-name="Kiowa" class="geo-097" d="M344,385h66l3,1h-1v55h-67l-1,-14Z"/><path data-name="Harper" class="geo-077" d="M497,442h45l25,-1v62h-70Z"/><path data-name="Washington" class="geo-201" d="M618,21h55l13,-1l1,7v63l-18,1h-51v-14Z"/><path data-name="Elk" class="geo-049" d="M800,403v31l1,3v14l-71,1l-1,-2v-26l-1,-20l15,-1Z"/><path data-name="Seward" class="geo-175" d="M151,436l53,1h2l-1,19v43h-50l-1,-1h-5l1,-9v-34Z"/><path data-name="Nemaha" class="geo-131" d="M757,33v-14h24l3,-1h28v28l1,1v26l1,15h-31l-25,1v-26h-1Z"/><path data-name="Norton" class="geo-137" d="M273,20h46l3,1h18v38l-1,1v31l-40,-1l-25,-1h-3l1,-8v-41Z"/><path data-name="Coffey" class="geo-031" d="M799,270l55,-2v7l1,21h-1v33l1,2l-56,1v-20Z"/><path data-name="Kearny" class="geo-093" d="M96,294l52,1h3l-1,11v31l-1,1v27l1,15l-55,-2v-15h-2l1,-31l1,-2v-28Z"/><path data-name="Ellsworth" class="geo-053" d="M480,203h69v28l1,14v14h-69v-28h-1Z"/><path data-name="Hodgeman" class="geo-083" d="M342,300l1,11v45l-58,-1l-26,-1l1,-14v-24l1,-17l46,1Z"/><path data-name="Meade" class="geo-119" d="M259,424l15,1v14h2l-1,12v49h-46l-7,-1h-17v-43l1,-19h-2v-14l34,1Z"/><path data-name="Anderson" class="geo-003" d="M910,273v56l-55,2l-1,-2v-33h1l-1,-21Z"/><path data-name="Marshall" class="geo-117" d="M687,48v-21l-1,-7h53l4,-1h14v44h1v26l-42,1h-29Z"/><path data-name="Wichita" class="geo-203" d="M95,223l10,1h29l16,1l-1,9v31l-1,2v28l-52,-1h-4l1,-2v-26l1,-4v-22Z"/><path data-name="Grant" class="geo-067" d="M95,378l55,2l-1,11v34l-1,11l-42,-2h-13l1,-20v-29Z"/><path data-name="Leavenworth" class="geo-103" d="M889,109l27,-1l2,1v3l2,1h7v2l-3,2l-1,1v4l1,1v3l1,1l1,1l2,2h1l4,2v1h1v1h1v2l-1,2v2l3,1h3l1,1h-16v34l-5,2l-6,-3l-7,3l-6,3l-10,1v-45l-1,-1v-26Z"/><path data-name="Chautauqua" class="geo-019" d="M730,452l71,-1v34l1,14h-11l-5,1h-42l-2,1h-12Z"/><path data-name="Rooks" class="geo-163" d="M342,91h70l-1,21v49l-20,-1h-50v-29l1,-1Z"/><path data-name="Reno" class="geo-155" d="M551,315h28v42l1,28l-14,1h-83l-1,-15v-56h32l9,2v-2Z"/><path data-name="Gray" class="geo-069" d="M260,340l-1,14v14h2l-1,15v35l-1,6h-21l-34,-1l1,-16v-25l1,-16h-2l1,-27Z"/><path data-name="Wabaunsee" class="geo-197" d="M741,153l5,3l6,-8l4,3l3,-5l7,3h14l1,4l-3,2l6,4l12,4l1,12v25l1,20l-52,2l-4,-2v-12h-14l-1,-7v-28h14Z"/><path data-name="Sedgwick" class="geo-173" d="M579,357h45l24,-1v35h1v35h-51l-32,1v-41l14,-1Z"/><path data-name="Jackson" class="geo-085" d="M813,73h27v29l1,8l-2,7v26l-55,1v-25l-1,-2v-29h31Z"/></g>
  <path class="counties-mesh" d="M964,215l-37,1l-18,1l-1,-5v-27l-1,-7l7,-3l6,3l5,-2v-34h16M758,89v-26h-1v-44M619,189v36l1,19h55v14h14v27h-2v43l40,-1h21v-14l26,-1h25v20l1,12v59h-57l-15,1v-55l-1,-22M904,77h-4l-3,-6l-29,1v-28l-1,-1v-26M618,21v56h-51l-19,1v-56M273,20l-1,20v41l-1,8l-67,-1h-2v-35h1v-29l1,-6M409,21v70h-70v-31l1,-1v-38M748,313v-28h-1v-57l-1,-6l52,-2v44l1,6v42M32,291l28,2l32,1h4l-1,8v28l-1,2l-1,31h2v15l-66,-3M38,152l70,2l-2,38l-1,32l-10,-1l-60,-1M341,230h-40l-29,-1l1,-21v-30l1,-19l27,1h90l20,1h1v46h-1v24l-68,-1h-2v-22l1,-1v-39l1,-8M483,386v42h-55l-16,-1v-41h1v-16l1,1h68M253,228h7l-1,2v59l-1,10l-55,-2l1,-16v-47l1,-7l48,1M95,223l-1,17v22l-1,4v26l-1,2M648,356l-24,1h-45v-42h-28l-1,-14v-56h56l14,-1v70h1M651,502l-1,-8v-51l-1,-17l58,-1l22,-1v26l1,2v49M797,200l56,-2v58l1,12l-55,2M411,231h1v56l-70,-1v-51l1,-5M150,380l-55,-2l-1,7v29l-1,20h-4l-62,-3M853,219l56,-2l-1,7l1,19v29l1,1l-56,2v-7M716,90l42,-1l25,-1v29l1,2v40l-6,-4l3,-2l-1,-4h-14l-7,-3l-3,5l-4,-3l-6,8l-5,-3M41,82l35,1l43,2h2v44l-1,1v25l-12,-1M686,20l1,7v63h29l-7,5l-4,10l-5,2l-1,11l9,11l2,6l10,7v10l12,2v-4l9,3v20h-14v-4h-24l-1,-3l-18,1v-21h-15v-55l18,-1M854,275l1,21h-1v33l1,2M858,498v-62l32,-1l23,-1l2,8v22l1,2v30M925,176l3,-10l4,-2l6,3l20,-1h5M915,442l30,-2h28M121,16v42l-1,2l-1,25M916,108l-27,1h-31l-17,1l-1,-8v-29l28,-1M618,77v14l1,1v41h-70v-41h-1v-14M727,173v28l-48,1h-4l-1,-16l-4,1l-1,-27v-14M412,161h68v70h-68M480,231h1v70M427,301h-15v-14M784,144l55,-1v24l13,1v24l1,6M567,503v-62l-1,-14l32,-1h51v-35h-1v-63M728,404l1,20M548,92h-70v-70M549,133v14h-69v-55M203,297l-52,-2h-3v-28l1,-2v-31l1,-9l38,1l17,1M798,220l-1,-20v-25l-1,-12l-12,-4M93,434h13l42,2h3l-1,19v34l-1,9M87,497v-28h1v-29l1,-6M852,168l6,-2l6,1l6,4l21,-2v13l10,-1l6,-3M345,502v-61h69l-1,15v47M344,427h-32l-38,-2l-15,-1l1,-6v-35l1,-15h-2v-14l26,1l58,1v-45l-1,-11v-14M551,315h-28v2l-9,-2h-32l-1,-14h-54l-1,4v38l-14,-1h-41v-14h-28M274,159h-2v-21l1,-1v-38l1,-10l25,1l40,1M342,91v39l-1,1v29M969,328l-59,1v-56M188,226l1,-4v-23h1v-21l1,-21l11,1h37l33,1M272,229l-12,-1M910,379l1,9l1,20v25l1,1M840,73h-27v-26l-1,-1v-28M971,386h-16l-44,2M618,91h51M669,160l-50,1v-28M480,161v-14M549,147v56h-69M478,92h-41l-25,-1h-3M727,201l1,7h14v12l4,2M747,257l-58,1M675,244v-32l5,-1l-1,-9M483,428v14h14v61M412,441v-14M120,155l43,2h28M150,225l-16,-1h-29M858,436h-1l-1,-18v-27l-1,-11l-55,2M889,109l1,1v26l1,1v32M839,143v-26l2,-7M202,88l-81,-3M204,88v23h-1v31l-1,16M619,161v28h-70M481,259h69M342,300h-35l-46,-1h-3M857,436l-56,1M411,161v-49l1,-21M275,500v-49l1,-12h-2v-14M148,436l1,-11v-34l1,-11l55,2v25l-1,16v14l-53,-1M550,245l-1,-14v-28M482,315v56l1,15h83v41M567,441l-25,1h-45M413,370h-1v-28M261,299l-1,17v24l-55,-1l-1,27h2l-1,16M150,380l-1,-15v-27l1,-1v-31l1,-11M413,386l-3,-1h-66M271,89h3M801,451l-71,1M204,437h2l-1,19v43M813,73l1,15h-31M96,294l52,1M259,354l1,-14M204,423l34,1h21M802,499l-1,-14v-48l-1,-3v-31M966,271l-15,1l-41,1M799,332l56,-1l55,-2l1,35l-1,15l-55,1v-49M687,328h-39M648,328l-1,-14h-26M621,314l-42,1M579,357M579,357l1,28l-14,1M343,356l1,29M344,385v42M344,427l1,14"/>
<g class="districts"><path data-name="Congressional District 1" class="district-2001" d="M48,13h12l1,1l43,1h1l9,1h9l35,1h22l22,1h23l5,1h37l4,1h48l3,1h87l5,1h176l10,-1h73l13,-1h53l4,-1h14v14l-23,1l-5,5v4h-7l-2,5h-33v42h29l42,-1l25,-1v29l1,2v40l12,4l1,12v25l1,20v44l1,6v42h-25l-26,1v14h-21l-40,1h-39l-1,-14h-26l-42,1v42l1,28l-14,1h-83l-1,-15v-56l-1,-14h-54l-1,4v38l-14,-1h-27v-28h-12l-2,-2l-28,-1v45l1,29v42l1,14v61h-20v-1h-44v-1h-52l-7,-1h-67l-1,-1h-37l-5,-1h-33l-1,-1h-32v-1h-21v-24l1,-18v-1l1,-21v-13l2,-29v-16l1,-32l1,-15l1,-34v-3l2,-31l1,-18v-18l1,-21l1,-14v-21l1,-3v-11l1,-16v-15l1,-31l1,-8v-10l1,-19v-11l1,-25v-4Z"/><path data-name="Congressional District 2" class="district-2002" d="M687,48h33l2,-5h7v-4l5,-5l23,-1v-14h24l3,-1h36l9,-1h42l5,4v1l8,4v5l3,1l1,-1l4,2v2l1,1h2l3,2l3,-1h1l4,-3v-2h1l3,-1v1h1l1,-1h3l3,2v1l-1,1v1h-1v3l2,2h4l2,1v1l1,1v1l-1,1v1h-1v1h-5v1h-1v2l1,1h1v1h3v-1h1l1,-1h2l1,1v4l-1,1h-1v1h-1l-1,1h-2l-1,-1h-1v-1h-1l-1,-1h-1v-1v1h-1l-1,1v9h-1v1h-5v1h-1v1l-1,1v1l-1,1v1h-1v5h1v3h-1v1l-1,1h-3v-1h-1v1h-2v7h1l7,5v4h1v2l9,4v2l1,1l2,1v3l2,1h7v2l-3,2l-1,1v4l1,1v3l1,1l1,1l2,2h1l4,2v1h1v1h1v2l-1,2v2l3,1h3l1,1h-16v34l-5,2l-6,-3l-7,3l1,7v27l1,5l18,-1v5h9v7h4v9h13l1,9h11v4l1,5v20l1,4v20h1v28l1,1v29h1v29h1v21l1,1v24h1v25l1,1v22l1,1v13h-13l-5,1h-14l-16,1h-24l-1,1h-27l-1,1h-33v1h-39l-1,-14v-48l-1,-3v-90l-1,-12v-62l-1,-6v-44l-1,-20v-25l-1,-12l-12,-4v-40l-1,-2v-29l-25,1l-42,1h-29Z"/><path data-name="Congressional District 3" class="district-2003" d="M907,178l7,-3l6,3l5,-2v-34h16v2h1v1l2,1l2,1h9v1l1,1l4,-1h3l1,2v2l-1,1l-1,1v10h1v26h1v28l1,1v27h-11l-1,-9h-13v-9h-4v-7h-9v-5l-18,1l-1,-5v-27Z"/><path data-name="Congressional District 4" class="district-2004" d="M343,356v-45l28,1l2,2h12v28h27l14,1v-38l1,-4h54l1,14v56l1,15h83l14,-1l-1,-28v-42l42,-1h26l1,14h39l40,-1h21v-14l26,-1h25v20l1,12v90l1,3v48l1,14h-11l-5,1h-42l-2,1h-52l-2,1h-69l-3,1h-216l-15,-1h-40v-61l-1,-14v-42Z"/></g>
  <path class="districts-mesh" d="M757,19v14l-23,1l-5,5v4h-7l-2,5h-33v42h29l42,-1l25,-1v29l1,2v40l12,4l1,12v25l1,20v44l1,6v42h-25l-26,1v14h-21l-40,1h-39l-1,-14h-26l-42,1v42l1,28l-14,1h-83l-1,-15v-56l-1,-14h-54l-1,4v38l-14,-1h-27v-28h-12l-2,-2l-28,-1v45l1,29v42l1,14v61M941,142h-16v34l-5,2l-6,-3l-7,3l1,7v27l1,5l18,-1v5h9v7h4v9h13l1,9h11M802,499l-1,-14v-48l-1,-3v-90l-1,-12v-20"/>
</svg>