<?xml version="1.0" encoding="utf-8"?>
<!DOCTYPE svg PUBLIC "-//W3C//DTD SVG 1.1//EN" "http://www.w3.org/Graphics/SVG/1.1/DTD/svg11.dtd">
<svg version="1.1" xmlns="http://www.w3.org/2000/svg" width="1000" height="434" viewBox="0 0 1000 434">
  <path class="state" d="M629,11v1l1,1l2,2l7,4l1,2l1,1h4v-1h2v-1h2v-1l1,-1v-1h1v1h2v1h2l1,-1h1l6,-3h1v2l1,7v1h1l2,1h2l6,1l1,1l3,3l4,10l1,2l1,1l1,2l1,1v1l2,3v10l1,1l1,1h1v1h7v1l3,1l1,1h1h-1l3,1h8v-1h4l2,-1l6,2h3l7,3l1,5l6,3l4,8l12,3l2,-2l5,-7h1l10,-3l8,5h9l6,5l3,5l4,-3l4,-2l10,2l8,-10l1,-1h2v-1h1v-1h1v-1l1,-1v-1l1,-1v-1h6l12,-5l1,11l2,7v4h1v3l1,1l2,2h1l11,2h1l6,7l1,1l1,1v1h1l2,2h1l3,2l2,8v11l1,1l1,1l1,3l-1,3l1,1v1l-3,5l-1,1l1,4l1,1v1l-1,3l-1,2l-3,3l1,3l1,1l2,1l2,2h1v1l1,2v1h1v1l1,1h1v2l1,1l1,1v2l1,1v1l1,1l1,1v1h3v8h-1v2l1,1h1v1l3,1l1,1l2,1l1,1v1l1,1v5l1,1v1l2,2l-1,2h3l1,1l1,1h2v1h1l1,1v1h2v1l-1,1h3h-1l-1,2l-1,1v1h1v1h1v2h1v1l1,1l1,3l-1,1v1l1,-1l3,2l4,1l3,5l5,-1l-1,1l6,8l-1,1h1l1,1v1l1,-1h2v1l5,2h5l1,-1v1l1,1l1,-1v-1h1v1l1,-1h1l1,-1l1,1l-11,10l-1,1l-1,1l-11,11l-5,4l-2,2l-7,6l-1,2l-3,3v1h-1v1h-1v1h-2v2h-3v1h-3v1h-3l-1,1h-2l-1,1v1h-2l-2,1v1h-3v1h-1v1h-2v1h-1l-1,1v-1l-1,1h-1v1h-1l-1,1l-1,1h-1v1l-1,1h-1l-1,1v1h-1v1h-3v1h-1v1h-1v1h-1v-1l-1,1h-1v1h-2l-1,1h-1v2h1v1h-1h1v1h-1v1h1v2l-1,1v1h1v3l-1,1v-1h-1l-1,1v3h-1v-1h-1v2h-1l-1,1h-3l-1,1v-1h-1v1h-1v2h-1v1h-2v1h-1l-1,1v2h1v1h1l-1,1v2h1v1h-1v2h-1l-1,1l1,1v1h-1v1h-1v1h-1l-1,1h-1v1h-2v1h-2l-1,1h-5v1h-1v1h-3v-1h-1l-1,1h-3l-1,-1v2h-1v1l-1,1h-1v1h1v2l-1,1h-1v1l-1,1v1l-1,2l-1,1l1,1v2h-1v1h-4l-2,1h-3l-1,1h-3v1h-1l-3,1h-1v1h-3l-2,1l-1,1h-2l-1,1h-2l-1,1h-1l-1,1l-1,1l-1,1h-1v1h-10v-1v1l-1,-1v1h-4v1l-1,1h-1l-1,1l-1,1h-2l-3,2h-1l-1,1h-3v1h-1v1l-1,1h-2v2l-1,1l-1,1h-29l-10,-1h-16l-12,1h-5l-22,-1h-51l-15,-2l-8,-1h-37l-10,1h-9l-2,1h-1l-24,-1l-17,-1h-19l-41,-4h-25l-5,1h-1v1h-1l-1,-1l-14,-1h-148l1,-5l-6,-1l-8,-1l-13,-1v4l2,4l1,7v2l1,1v5l-1,1v3l-2,2l-55,-2h-3l-23,-1l-2,-1h-15l-41,-2l-17,-1h-7l-1,1h-7v-2l3,-10l2,-6l2,-2h4l4,4l1,3l3,3h1l6,-3v-1l3,-7l4,-4l-1,-1v-3l-2,-1l-2,-7l4,-3l3,1l2,1l1,-1l1,-1v-1l-1,-3h-1l-4,-1l-2,-2v-2l1,-3l5,-1l1,-2l1,-3v-2l2,-6v-2l1,-3l-6,-5l-1,-1l-3,-4v-4l11,-13l1,-4l12,-9l8,-1h-1h3v1l8,3l1,1h1l1,1h1v1h2l1,1l1,1h1l2,3h1l1,1h1v1h6l1,1l1,1h1l1,1h1v1h3l4,3l2,3l4,2l2,1h5l4,-2l1,-3l1,-1v-1l1,-4h1v-3l-1,-1v-3h-1v-2l-1,-1v-1h-1v-1h-1l-1,-1l-2,-5l-2,-1h-1v-1h1l-1,-2v-2l8,-18l8,-2l3,2v1h1v-1l7,-5l1,-1l6,-1h5l3,-1h3l2,-1h8l1,-2h1l1,-2v-4h-1v-1h-1v-1h-1l-2,-3l-1,-1v-1h-2v-1h-1v-2h-1v-4l-1,-1v-1l-1,-7l3,-3v-1l1,-1l1,-1l7,-4v-1l1,-1l1,-2l1,-1v-3l1,-1v-1h1l1,-1h1v1h1l2,1l2,1v1h1v1h3v-1l1,-2l1,-1h1l1,-1v-7h-1l-1,-1l-1,-1v-5l1,-1h1v-2l3,-2h1l1,1l4,6l1,1l5,1h1l1,-1l1,-1l3,-1h4l1,-1h5v2l-1,3v1l-1,1v3l1,1h8v-1h1v-1h1v-3l-3,-8l-1,-1v-1l2,-2l1,-2l1,-3v-1h1v1l1,3l1,2l2,2l4,2v1h1v1l7,-5h1v-1h2l7,2l1,1h1l1,1v1h1l1,1h2l8,6l1,1l1,1l2,1h2l2,1l5,1l3,8h2l2,-1h1l2,-2v-2l1,-1l1,-4l1,-2v-3l8,-7h1v-1v1h1v-1h6v-1h1l1,-1v-1h1v-1h1v-1h1v-1h1v-1h1v-1h2v-1h2v-1h1l3,2v3h1v1l1,1h-1l1,1v1h1v1l1,1v1l1,1v1l1,1l1,1l1,1l7,-3h2l1,1v2l-1,1v4l-1,1h1v2h2l2,-1l1,-1h1l1,-2v-7l4,-1l8,-2v-1l-1,-1l-1,-1v-2l-1,-1l1,-1v-1h-1l1,-1h-1v-1l1,-3v-4h1l1,-1h5l1,-1h1l1,-1l1,-1v-2l-1,-1l-3,-2l-1,-2v-1h1v-1h4l1,1h1l1,1h2v-1l2,-2l2,1l4,-2v-2l-6,-2v-5l5,2l5,3l2,8v7l1,2h1v1h1l1,1l1,1h1l1,1l3,2h1v1h4l10,3v-1v2l1,1l4,-1v-1l2,-1h3v-1h2l7,-3l1,-7l1,-2v-14l1,-1l1,-3l2,-2v-1l3,-3l1,-2v-3l1,-2h1l5,-1h1l1,1l2,2h1l3,-2l1,-1h1l1,-1h1l1,-1l2,-3l1,-1v-3l1,-2v-3l1,-1v-1l1,-2v-2l1,-1v-1l5,-4l9,-2l1,-1v-1h1v-1l1,-1v-2l6,-3l2,-2v-6l-1,-1l-1,-1v-2h-1v-11h-1v-1h-1v-5l1,-1l3,-3h10l1,-1h3v-1h4v1h2l1,1h1v3h1l5,4l7,-2l1,-1l1,-1h1v-1h1v-1l2,-1l1,-1v-1h1l5,-3h1l1,-1h1v-1l2,-1l6,1l6,-3h1l2,1h4v1h1l1,-1l-2,-7l1,-1l1,-1v-1h2l2,-3v-2h-1v-1h-1l-1,-1h-8l-1,-1v-3l1,-2h1l1,-1v-1l2,-1v-1l1,-1v-2h-1v-1l-2,-2l-6,-8v-1l1,-1l1,-1l3,-1l2,-2v-1h1v-1l2,-1h1l2,-1l1,-1h1l1,-2l1,-1ZM35,416l-1,1l-6,-1l-3,-4l1,-8h4l5,1l1,1l1,3l-1,6l-1,1Z"/>
<g class="geos"><path data-name="Clinton" class="geo-053" d="M572,370l-3,-5l15,9l6,-5l6,8l2,10l-1,7l2,12h2l1,1h1l-8,-1h-33Z"/><path data-name="Allen" class="geo-003" d="M452,358h4l4,9l4,-3v7l4,6l-1,6l5,2l4,6l4,9l-4,6l-11,-1l-30,-3h-13l1,-20l17,-14v-4l8,-2Z"/><path data-name="Wayne" class="geo-231" d="M619,347l11,6l9,-3l7,12l5,5l1,8l-12,9l-4,11l-9,14h-9l-15,-2h-1l-1,-1h-2l-2,-12l1,-7l-2,-10l-6,-8l14,-9l1,-6l5,1Z"/><path data-name="Scott" class="geo-209" d="M648,116l3,-3l6,11l5,4l2,11l1,6l5,12l-26,13v2h-3v-10l-9,1l-1,-4l-2,-7l-1,-17l15,-12Z"/><path data-name="Edmonson" class="geo-061" d="M424,321l-9,-24l39,-2l14,18l-1,8l-2,18l-6,-1l-8,-2l-4,-5l-9,4Z"/><path data-name="Adair" class="geo-001" d="M554,317l11,-11h6l3,-3l4,-5l13,9l2,11l-15,24l-5,5l-4,12l-27,-2l2,-3l-9,-8l-3,-16l19,-9Z"/><path data-name="Gallatin" class="geo-077" d="M594,71l1,-1h1v-1l2,-1l6,1l6,-3h1l2,1h4v1h1l1,-1l-2,-7l1,-1l1,-1v-1h2v-1l3,1l14,11l-15,2v7l-11,4l-7,6l-4,-3l-8,-13h1Z"/><path data-name="Harrison" class="geo-097" d="M694,98l-1,5l6,-1l-2,10l4,2l5,3l-10,14l-13,9l-9,5v1h-1l-1,-1h-7l-1,-6l-2,-11l-5,-4l-6,-11l9,-3l1,-5l5,1l6,-4Z"/><path data-name="Bourbon" class="geo-017" d="M696,131l4,2l12,19l10,2v5l-2,4l-10,8l-25,8l-3,-4l-7,-1l1,-15l-6,-2l-5,-12h7l1,1h1v-1l9,-5Z"/><path data-name="Perry" class="geo-193" d="M784,307l-3,-3l-2,-5v-7l7,-4l1,-3l4,-1l6,7l3,-2l3,-3l11,-5l5,-7l2,4l10,1l2,7l-1,19l7,-1l1,5l8,3l-8,11l3,10l-4,2l2,5l-7,3l-8,-3v-14l-7,-7l3,-3l-17,-10l-2,-9l-6,-3l-3,4l-7,2Z"/><path data-name="Crittenden" class="geo-055" d="M180,279l7,-5l1,-1l6,-1h5l3,-1h3l2,-1h8l1,-2h1l1,-2v-1l7,-7l1,8l8,3l-1,9l3,3l8,-2l-1,7l7,-1l-17,12l-19,12l-1,7h-1l-1,2l-7,5l-5,-3l-2,-5l2,-8l-1,-7l-10,-9l-2,-10Z"/><path data-name="Knott" class="geo-119" d="M836,261h3l3,2h11l3,3l12,3l-1,8l10,-2v12l1,6h1l4,3l-3,3l-11,1l-4,3l-4,5l-11,7l-2,-3l-8,-3l-1,-5l-7,1l1,-19l-2,-7l-1,-8Z"/><path data-name="Lawrence" class="geo-127" d="M892,145l-1,1l1,4l1,1v1l-1,3l-1,2l-3,3l1,3l1,1l2,1l2,2h1v1l1,2v1h1v1l1,1h1v2l1,1l1,1v2l1,1v1l1,1l1,1v1h3v8h-1l-10,-1l-3,12l-9,-2l-17,-10l-17,-6l-5,7l-4,-7l5,-7h4l4,-8l3,-4l-4,-8l12,-6l1,-4l2,-1l8,1l3,-4l9,-2Z"/><path data-name="Morgan" class="geo-175" d="M790,182l7,-4l7,-5l7,-5v10l7,4l1,3h12l8,2l2,-2l4,7l2,4l2,6l-5,6l-5,-4l-11,-1l3,5l-19,16l4,3l-3,5l-7,-6l-3,-4l-3,-4l-10,-3l-7,-6v-5l7,-10Z"/><path data-name="Muhlenberg" class="geo-177" d="M313,284l9,2h1l5,-5h9v7l-5,5l4,2l2,-5l6,-2l7,8l2,10l7,3l1,4l1,6l-4,1l3,12l-5,4l-14,1l-8,2l-17,1l-1,-5l-5,-6l-4,-8l3,-4v-1l-7,-7v-1l-2,-3v-5l11,-12Z"/><path data-name="Green" class="geo-087" d="M516,281l3,-7h7l-1,5l14,12l10,17l-1,4l6,5l-3,4l-19,9l-12,-2l-8,-9l1,-17l-1,-10l5,-6Z"/><path data-name="Wolfe" class="geo-237" d="M783,209l7,6l10,3l3,4l3,4l7,6l2,6l-16,-3l-5,1l-1,1l-2,6l-2,2l-2,1l-6,-2l-12,-4l-11,-8l9,-17h10Z"/><path data-name="Robertson" class="geo-201" d="M699,102h4l7,-8l10,2h2l1,9l5,7l-6,8l-16,-3l-5,-3l-4,-2Z"/><path data-name="Lee" class="geo-129" d="M756,232h2l11,8l12,4l-6,21l-3,-1l-4,-4l-7,5l-5,-2l-2,4l-12,1l-3,-3l-2,-1l-3,-4l6,-13l5,-1l-2,-5Z"/><path data-name="Kenton" class="geo-117" d="M642,22h3v-1h2v-1h2v-1l1,-1v-1h1v1h2v1h2l1,-1l2,12l5,5l-1,8l2,5l-1,13l4,2l-14,3l-9,-2l1,-21Z"/><path data-name="Madison" class="geo-151" d="M656,226l8,-4l-2,-9h5l9,-1l-1,-7l5,1l7,-4l1,7l11,-1l12,4l-3,6l4,2l-2,22l-4,5l5,10l-10,1l-3,6h-14l1,-2h-6l-3,-9l-4,-1l-7,-15l-5,-4l1,-4Z"/><path data-name="Martin" class="geo-159" d="M911,197l1,1l2,1l1,1v1l1,1v5l1,1v1l2,2l-1,2h3l1,1l1,1h2v1h1l1,1v1h2v1l-1,1h3h-1l-1,2l-1,1v1h-6l-4,5l1,5l-20,-1l-9,-5l-2,-9l-3,-1l4,-7l-4,-3l8,-5l3,-12l10,1v2l1,1h1v1Z"/><path data-name="Owsley" class="geo-189" d="M772,264l3,1l3,7l1,20v7l2,5l-10,-7l-5,-9l-6,4l-11,-2l-4,-5l-3,-10l-5,-5v-6l2,1l3,3l12,-1l2,-4l5,2l7,-5Z"/><path data-name="Clay" class="geo-051" d="M730,306v-1h2l17,-15l11,2l6,-4l5,9l10,7l3,3v5l-4,6l1,20l4,16l-10,-3h-7l-11,-7l-1,-4h-10l-6,-4l-1,-4l-4,-4l-8,-9l3,-5Z"/><path data-name="Harlan" class="geo-095" d="M788,360l10,1l1,-3l3,-4l11,-3l13,-11l8,3l-4,2l3,4l3,-1l13,-5l4,-1l1,-1l2,-1l9,6v2h1v1h1l-1,1v2h1v1h-1v2h-1l-1,1l1,1v1h-1v1h-1v1h-1l-1,1h-1v1h-2v1h-2l-1,1h-5v1h-1v1h-3v-1h-1l-1,1h-3l-1,-1v2h-1v1l-1,1h-1v1h1v2l-1,1h-1v1l-1,1v1l-1,2l-1,1l1,1v2h-1v1h-4l-2,1h-3l-1,1h-3v1h-1l-3,1h-1v1h-3l-2,1l-1,1h-2l-1,1h-2l-1,1h-1l-1,1l-1,1l-1,1h-1v1h-6l-3,-6l-2,-4l2,-8l-3,-2l3,-9Z"/><path data-name="Elliott" class="geo-063" d="M853,158l4,8l-3,4l-4,8h-4l-5,7l-2,2l-8,-2h-12l-1,-3l-7,-4v-10l6,-3l1,-6l-6,-2l1,-1l3,-7l5,-4l9,4l7,8Z"/><path data-name="Fayette" class="geo-067" d="M670,157l6,2l-1,15l7,1l3,4l-1,8l-3,2l1,9l-2,8l-5,-1l1,7l-9,1l-2,-9l-3,-5l-12,-6l-11,-4l5,-17v-2Z"/><path data-name="Hancock" class="geo-091" d="M364,216h-2l-1,-11h-1l-2,-1h-5l1,-3v-1v1h1v-1h6v-1h1l1,-1v-1h1v-1h1v-1h1v-1h1v-1h1v-1h2v-1h2v-1h1l3,2v3h1v1l1,1h-1l1,1v1h1v1l1,1v1l1,1v1l1,1l1,1l1,1l7,-3h2l1,1v2l-1,1v4l-1,1h1v2l-3,7l6,20l-2,1l-22,-12l1,-9l-4,-7Z"/><path data-name="Daviess" class="geo-059" d="M335,223h2l2,-1h1l2,-2v-2l1,-1l1,-4l1,-2v-3l8,-7h1l-1,3h5l2,1h1l1,11h2l5,-1l4,7l-1,9l-5,6l6,4l-12,7h-6l-10,10l-11,-2l-23,-11l-12,-6l4,-9h7l6,-7l-4,-2l-1,-8l2,-8l6,5l1,1l1,1l2,1h2l2,1l5,2Z"/><path data-name="Powell" class="geo-197" d="M721,214l1,-13l3,-2l11,4h11l2,-2l2,3l16,11l-9,17h-2l-4,-3l-3,-3l-10,1l-14,-7v-7Z"/><path data-name="Graves" class="geo-083" d="M121,377v-27l15,1l26,1v21l-1,8l-1,17v23h-3l-23,-1l-2,-1h-13l1,-8v-33Z"/><path data-name="Jessamine" class="geo-113" d="M639,189l11,4l12,6l3,5l2,9h-5l2,9l-8,4l-5,6l-2,-3l-7,-4l3,-5h-5l-2,-3l-6,2l1,-7Z"/><path data-name="Monroe" class="geo-171" d="M507,372l17,2v2l1,6l6,1l2,6h7l-2,10l7,8h-6l-2,1h-1l-24,-1l-17,-1h-19l4,-6l-4,-9l20,-15Z"/><path data-name="Grant" class="geo-081" d="M638,68l6,-4l9,2l8,39l-1,5l-9,3l-3,3l-5,-2l-7,-12l-12,-10l-1,-15v-7Z"/><path data-name="Taylor" class="geo-217" d="M526,274l4,2l6,-4l2,2h14l5,1l5,3l5,3l6,-4l5,-2l11,7l-7,5l-4,11l-4,5l-3,3h-6l-11,11l-6,-5l1,-4l-10,-17l-14,-12Z"/><path data-name="Greenup" class="geo-089" d="M837,72h6l12,-5l1,11l2,7v4h1v3l1,1l2,2h1l11,2h1l6,7l1,1l-12,12l-6,9l-12,-3h-8l-6,-8l-17,-8l8,-7l3,-6v-7l5,-5Z"/><path data-name="Henderson" class="geo-101" d="M274,215h1v-1h1v-1h1v-3l-3,-8l-1,-1v-1l2,-2l1,-2l1,-3v-1h1v1l1,3l1,2l2,2l4,2v1h1v1l7,-5h1v-1h2l7,2l1,1h1l1,1v1h1l1,1h2l2,1l-2,8l1,8l4,2l-6,7h-7l-4,9l-10,5l-31,1l-1,-4l-1,-16l-7,-1l-13,-21h1v-2l3,-2h1l1,1l4,6l1,1l5,1h1l1,-1l1,-1l3,-1h4l1,-1h5v2l-1,3v1l-1,1v3l1,1Z"/><path data-name="Logan" class="geo-141" d="M342,337l14,-1l12,2l22,9l7,18h-4l-6,6l-8,17l-2,14h-37l1,-22v-30Z"/><path data-name="Butler" class="geo-031" d="M397,285l16,5l2,7l9,24l-9,2l-2,-5h-17l-1,11l-5,18l-22,-9l-12,-2l5,-4l-3,-12l4,-1l-1,-6l10,-10l1,-8l5,1l2,3Z"/><path data-name="Floyd" class="geo-071" d="M854,238l-1,-8l3,1l19,-7l6,1l5,2l4,1l9,5l-5,2l2,5l-3,22h4v10l-3,9h-4l-2,12l-5,3l-4,-3h-1l-1,-6v-12l-10,2l1,-8l-12,-3l5,-8l-3,-9v-8Z"/><path data-name="Boyle" class="geo-021" d="M629,235l6,2l1,9l4,1l-9,8l-14,6l-7,3l-17,-2l1,-14v-5l1,-2Z"/><path data-name="Estill" class="geo-065" d="M711,212l1,5l9,-3l4,-1v7l14,7l10,-1l3,3l4,3l-13,9l2,5l-5,1l-6,13l-9,-6l-8,3h-6l-5,-10l4,-5l2,-22l-4,-2Z"/><path data-name="Bullitt" class="geo-029" d="M532,178l13,-6l-1,2l-5,2l-5,14l3,2l-11,17l-1,1l-7,7l-10,3h-1l-14,-10l2,-6l-3,-5l-6,1v-8l-4,-1l3,-4h1l11,-6l12,-4l20,2Z"/><path data-name="Boone" class="geo-015" d="M615,20v-1h1v-1l2,-1h1l2,-1l1,-1h1l1,-2l1,-1l4,-1v1l1,1l2,2l7,4l1,2l1,1h1l3,21l-1,21l-6,4l-14,-11l-3,-1l2,-2v-2h-1v-1h-1l-1,-1h-8l-1,-1v-3l1,-2h1l1,-1v-1l2,-1v-1l1,-1v-2h-1v-1l-2,-2l-6,-8v-1l1,-1l1,-1l3,-1Z"/><path data-name="Washington" class="geo-229" d="M579,206l3,-2l3,4l9,-1l1,3l2,3l-2,28l-1,2v5h-28l-15,-6l-3,-9l3,-1l2,-7l7,-2l3,-10h8l2,-6Z"/><path data-name="Carlisle" class="geo-039" d="M102,352l4,-1l1,-1h4l4,-1h5l1,-1v29l-32,-1l-7,-3h-1l-4,-1l-2,-2v-2l1,-3l5,-1l1,-2l1,-3v-2l2,-6v-2l2,3h8Z"/><path data-name="Whitley" class="geo-235" d="M686,354l5,-2l3,3l9,-1l1,-3l8,1v2l1,4l1,1l-1,1l1,2h1l1,7l5,5l6,3l-1,6l4,5l10,6l-9,5l3,11l-10,-1h-16l-12,1l-12,-17v-9l-3,-3v-7l3,-5v-12Z"/><path data-name="Ohio" class="geo-183" d="M345,258l10,-10h6l12,-7l-6,-4l5,-6l22,12v8l6,7l-2,4l-6,-2l1,7l4,18l-18,14l-2,-3l-5,-1l-1,8l-10,10l-1,-4l-7,-3l-2,-10l-7,-8l-6,2l-2,5l-4,-2l5,-5v-7l-2,-9Z"/><path data-name="Mason" class="geo-161" d="M720,96l10,-28l7,3l1,5l6,3l4,8l12,3l2,-2l2,4l-1,14l-10,3l-16,8l-9,-5l-5,-7l-1,-9Z"/><path data-name="Bracken" class="geo-023" d="M690,60v1l1,1l1,1h1v1h7v1l3,1l1,1h1h-1l3,1h8v-1h4l2,-1l6,2h3l-10,28l-10,-2l-7,8h-4l-6,1l1,-5l-4,-29Z"/><path data-name="Carter" class="geo-043" d="M814,126v-6l7,-13l17,8l6,8h8l12,3l6,2l-2,19l-2,1l-1,4l-12,6l-16,-1l-7,-8l-9,-4l-5,4l-3,7l-7,-4l-6,-15l9,-2l5,-1Z"/><path data-name="Hopkins" class="geo-107" d="M303,256l3,24l7,4l-1,4l-11,12v5l2,3v1l7,7v1l-3,4l-3,3l-16,2l-2,1h-1v1h-4l-17,-7l-4,-3l-4,-4l-5,-4l-1,-15l-6,1l2,-5l2,-1l17,-10l9,-6l14,-5Z"/><path data-name="Bell" class="geo-013" d="M740,394l5,-5l5,-12l13,-7l11,-10l4,-6l-3,-3l10,3l1,2l2,4l1,7l-3,9l3,2l-2,8l2,4l3,6h-4v-1v1l-1,-1v1h-4v1l-1,1h-1l-1,1l-1,1h-2l-3,2h-1l-1,1h-3v1h-1v1l-1,1h-2v2l-1,1l-1,1h-29l-3,-11Z"/><path data-name="Pike" class="geo-195" d="M899,233l20,1l-1,-5l4,-5h7v1h1v2h1v1l1,1l1,3l-1,1v1l1,-1l3,2l4,1l3,5l5,-1l-1,1l6,8l-1,1h1l1,1v1l1,-1h2v1l5,2h5l1,-1v1l1,1l1,-1v-1h1v1l1,-1h1l1,-1l1,1l-11,10l-1,1l-1,1l-11,11l-5,4l-2,2l-7,6l-1,2l-3,3v1h-1v1h-1v1h-2v2h-3v1h-3v1h-3l-1,1h-2l-1,1v1h-2l-2,1v1h-3v1h-1v1h-2v1h-1l-1,1v-1l-1,1h-1v1l-8,-8l-8,3l-6,-6l3,-3l5,-3l2,-12h4l3,-9v-10h-4l3,-22l-2,-5Z"/><path data-name="Breathitt" class="geo-025" d="M787,246l2,-1l2,-2l2,-6l1,-1l5,-1l16,3l10,6l4,4l7,-4l3,6l5,1v5l9,7h-11l-3,-2h-3l-6,10l1,8l-10,-1l-2,-4l-5,7l-11,5l-3,3l-3,2l-6,-7l-4,1l-1,3l-7,4l-1,-20l-3,-7l6,-21Z"/><path data-name="Warren" class="geo-227" d="M390,347l5,-18l1,-11h17l2,5l9,-2l14,14l9,-4l4,5l8,2l-7,20l-4,4l-8,2v4l-17,14v-5l-23,-4l-3,-8Z"/><path data-name="Hickman" class="geo-105" d="M75,394l2,-2l-1,-1v-3l-2,-1l-2,-7l4,-3l3,1l2,1l1,-1l1,-1v-1l-1,-3l7,3l32,1l-1,1v33l-1,8h-2l-9,-12l-5,-3h-11l-1,-1Z"/><path data-name="McCracken" class="geo-145" d="M108,305h-1h3v1l8,3l1,1h1l1,1h1v1h2l1,1l1,1h1l2,3h1l1,1h1v1h6l1,1l1,1h1l1,1h1v1h3l4,3l2,3l1,2l5,6l5,2l-1,13l-26,-1l-15,-1v-2Z"/><path data-name="Union" class="geo-225" d="M221,224v-3l1,-1v-1h1l1,-1h1v1h1l2,1l2,1v1h1v1h3v-1l1,-2l1,-1h1l1,-1v-7h-1l-1,-1l-1,-1v-5l1,-1l13,21l7,1l1,16l1,4l-9,10l-15,14l-8,-3l-1,-8l-7,7v-3h-1v-1h-1v-1h-1l-2,-3l-1,-1v-1h-2v-1h-1v-2h-1v-4l-1,-1v-1l-1,-7l3,-3v-1l1,-1l1,-1l7,-4v-1l1,-1l1,-2Z"/><path data-name="Leslie" class="geo-131" d="M784,307l3,-7l7,-2l3,-4l6,3l2,9l17,10l-3,3l7,7v14l-13,11l-11,3l-3,4l-1,3l-10,-1l-2,-4l-1,-2l-4,-16l-1,-20l4,-6Z"/><path data-name="Lyon" class="geo-143" d="M199,320l5,3l7,-5l1,-2l6,1l11,20l9,14l-18,8l-17,5l-4,-11l-5,-7l2,-5l1,-16Z"/><path data-name="Knox" class="geo-121" d="M715,362h-1l-1,-2l1,-1l-1,-1l-1,-4v-2l7,-5l10,2l6,-9l5,-4l6,4h10l1,4l11,7h7l3,3l-4,6l-11,10l-13,7l-5,12l-5,5l-10,-6l-4,-5l1,-6l-6,-3l-5,-5Z"/><path data-name="Calloway" class="geo-035" d="M161,381l39,2h9l5,11v4l2,4l1,7v2l1,1v5l-1,1v3l-2,2l-55,-2v-23Z"/><path data-name="Jackson" class="geo-109" d="M734,260l3,4v6l5,5l3,10l4,5l-17,15h-2v1h-8l-11,-7l-3,-6l-3,3l1,-7l-4,-3l-1,-9l-4,-7l1,-6l3,-6l10,-1h6l8,-3Z"/><path data-name="Ballard" class="geo-007" d="M108,305l13,43l-1,1h-5l-4,1h-4l-1,1l-4,1h-15l-2,-3v-5l-5,-3l-1,-1l-3,-4v-4l11,-13l1,-4l12,-9Z"/><path data-name="Henry" class="geo-103" d="M576,99l11,-2v4l9,2l-3,9l6,-3l-1,5l5,2l-1,7l9,1l-2,8l4,3l-5,-3l-11,6l-35,-3l-5,-7l-3,-9l4,-5l5,-1Z"/><path data-name="Mercer" class="geo-167" d="M595,210l-1,-3l11,-9l8,1l10,-4l-1,13l3,-2l2,8l6,-2l-1,7l4,11l-7,5l-34,6l2,-28Z"/><path data-name="Lewis" class="geo-135" d="M808,90l4,-2l10,2l8,-10l1,-1h2v-1h1v-1h1v-1l1,-1v-1l1,-1v-1v10l-5,5v7l-3,6l-8,7l-7,13v14l-5,1l-9,2l-2,-2l-5,-9l-6,2h-1l-1,-3l-11,-4h-3v-5l-3,-7l-5,-3l1,-14l-2,-4l5,-7h1l10,-3l8,5h9l6,5l3,5l4,-3Z"/><path data-name="Trigg" class="geo-221" d="M238,351l2,1l14,-4l3,-3l9,5l-2,11l-1,26l-3,15h-20l1,-5l-6,-1l-8,-1l-13,-1l-5,-11l-6,-19l17,-5Z"/><path data-name="Marshall" class="geo-157" d="M163,339l6,-4l10,-2l6,2l9,11l5,7l4,11l6,19h-9l-39,-2l1,-8v-21Z"/><path data-name="Hart" class="geo-099" d="M468,277l19,2l29,2l1,5l-5,6l1,10l-1,17l-6,2l-16,3h-7l-16,-3l1,-8l-14,-18l12,-4l3,-7Z"/><path data-name="Lincoln" class="geo-137" d="M617,261l14,-6l9,-8l2,4l19,16l5,3l-6,25l-7,-4l-20,19l2,-10l-2,-9l-10,-6l-7,-6Z"/><path data-name="Pulaski" class="geo-199" d="M633,310l20,-19l7,4l27,27l1,9l-4,3v12l-5,6l-12,5l-16,10l-5,-5l-7,-12l-9,3l-11,-6l-9,-7l1,-11Z"/><path data-name="Campbell" class="geo-037" d="M656,18h1l6,-3h1v2l1,7v1h1l2,1h2l6,1l1,1l3,3l4,10l1,2l1,1l1,2l1,1v1l2,3v1l-14,8l-9,3l-4,-2l1,-13l-2,-5l1,-8l-5,-5Z"/><path data-name="Cumberland" class="geo-057" d="M533,389l-2,-6l-6,-1l-1,-6l3,-2l-3,-7l5,4l7,-3l6,-11l27,2l-4,5l7,6l-10,36h-4l-10,1h-3l-7,-8l2,-10Z"/><path data-name="Laurel" class="geo-125" d="M687,322l4,-14h5v-6l9,-6l3,-3l3,6l11,7h8v8l-3,5l8,9l4,4l1,4l-5,4l-6,9l-10,-2l-7,5l-8,-1l-1,3l-9,1l-3,-3l-5,2l-8,1l1,-3l5,-6v-12l4,-3Z"/><path data-name="Grayson" class="geo-085" d="M400,258l2,-5l10,-1l11,6l8,1v-3l9,-2l7,3h1l4,3l2,-1l6,-1l7,11l1,8l1,7l-3,7l-12,4l-39,2l-2,-7l-16,-5l-4,-18l-1,-7l6,2Z"/><path data-name="Magoffin" class="geo-153" d="M825,244l-10,-6l-2,-6l3,-5l-4,-3l19,-16l-3,-5l11,1l5,4l2,7l5,3l2,12l1,8l4,3v8l3,9l-5,8l-3,-3l-9,-7v-5l-5,-1l-3,-6l-7,4Z"/><path data-name="Montgomery" class="geo-173" d="M710,171l10,-8l2,-4l1,4l5,3l8,2l7,9l7,11l-2,2l1,11l-2,2h-11l-11,-4Z"/><path data-name="Larue" class="geo-123" d="M494,258h1l3,-5h1v-2l1,-2l2,-2l5,-1l6,-13l6,6l5,-1v9l4,4h-6l1,9l-3,2l9,3v-5h4l4,3l3,11h-2l-2,-2l-6,4l-4,-2h-7l-3,7l-29,-2l2,-15Z"/><path data-name="Livingston" class="geo-139" d="M171,319v-1l-1,-1v-3h-1v-2l-1,-1v-1h-1v-1h-1l-1,-1l-2,-5l-2,-1h-1v-1h1l-1,-2v-1v1v-2l8,-18l8,-2l3,2v1h1v-1l6,2l2,10l10,9l1,7l-2,8l2,5l-2,5l-1,16l-2,5l-9,-11l-6,-2l-10,2l-6,4l-5,-2l-5,-6h3l2,1h5l4,-2l1,-3l1,-1v-1l1,-4h1v-2Z"/><path data-name="Shelby" class="geo-211" d="M545,168l3,-19l-8,-3h-1h1l1,-2l16,-2l5,-7l35,3h5l-5,9l-1,16l-2,7l-4,10l-5,5l-12,-6Z"/><path data-name="Todd" class="geo-219" d="M316,335l1,5l17,-1l8,-2l-1,13v30l-1,22h-34l2,-18l3,-12l2,-18Z"/><path data-name="Breckinridge" class="geo-027" d="M412,201v-1l-1,-1l-1,-1v-2l-1,-1l1,-1v-1h-1l1,-1h-1v-1l1,-3v-4h1l1,-1h1l14,13l17,14l11,12l-15,32l-9,2v3l-8,-1l-11,-6l-10,1l-2,5l-6,-7v-8l2,-1l-6,-20l3,-7h2l2,-1l1,-1h1l1,-2v-7l4,-1l8,-2Z"/><path data-name="Simpson" class="geo-213" d="M388,402h-11l2,-14l8,-17l6,-6h4l3,8l23,4v5l-1,20h-12l-5,1h-1v1h-1l-1,-1Z"/><path data-name="Rowan" class="geo-205" d="M765,159l9,-5l3,-6l4,-3l1,-12l5,-5h-1h1l6,-2l5,9l2,2l6,15l7,4l-1,1l6,2l-1,6l-6,3l-7,5l-7,5l-7,4l-2,3l-6,-5l4,-6l-6,2v-7l-5,-4l-5,3Z"/><path data-name="Carroll" class="geo-041" d="M580,81l1,-1l1,-1h1v-1h1v-1l2,-1l1,-1v-1h1l5,-3l8,13l4,3l-5,4l-13,6l-11,2l-6,1l-2,-8l-11,-13l-1,-4h3v-1h4v1h2l1,1h1v3h1l5,4l7,-2Z"/><path data-name="Jefferson" class="geo-111" d="M493,154l1,-2v-3l1,-2h1l5,-1h1l1,1l2,2h1l3,-2l1,-1h1l1,-1h1l1,-1l2,-3l1,-1v-3l1,-2v-3l1,-1l19,14l1,1h1l8,3l-3,19v4l-13,6l-3,1l-20,-2l-12,4l-11,6h-1l-3,4l-2,-1l4,-3l1,-7l1,-2v-14l1,-1l1,-3l2,-2v-1Z"/><path data-name="Fulton" class="geo-075" d="M91,403l1,1h11l5,3l9,12l-41,-2l-17,-1h-7l-1,1h-7v-2l3,-10l2,-6l2,-2h4l4,4l1,3l3,3h1l6,-3v-1l3,-7l2,-2ZM30,404l5,1l1,1l1,3l-1,6l-1,1l-1,1l-6,-1l-3,-4l1,-8Z"/><path data-name="Hardin" class="geo-093" d="M455,222l18,-3l4,-10l-3,-18h1v-1h5l2,1l4,1v8l6,-1l3,5l-2,6l14,10v6l6,3v4l-6,13l-5,1l-2,2l-1,2v2h-1l-3,5h-1l-5,6l-2,15l-19,-2l-1,-8l-7,-11l-6,1l-2,1l-4,-3h-1l-7,-3Z"/><path data-name="Christian" class="geo-047" d="M257,345l2,-3l5,-21l17,7h4v-1h1l2,-1l16,-2l3,-3l4,8l5,6l-3,19l-2,18l-3,12l-2,18h-46l3,-15l1,-26l2,-11Z"/><path data-name="Anderson" class="geo-005" d="M585,185l5,-5l4,-10l14,6l6,-4l5,6l-3,4l3,11l4,2l-10,4l-8,-1l-11,9l-9,1l-3,-4l-3,2l-2,-11l5,-4Z"/><path data-name="Oldham" class="geo-185" d="M535,118l1,-1v-1h1v-1l1,-1v-2l6,-3h6l8,5l-4,5l3,9l5,7l-5,7l-16,2l-1,2h-1l-1,-1l-19,-14v-1l1,-2v-2l1,-1v-1l4,-4Z"/><path data-name="Rockcastle" class="geo-203" d="M677,270l2,-8h6l-1,2h14l-1,6l4,7l1,9l4,3l-1,7l-9,6v6h-5l-4,14l-27,-27l6,-25l10,2Z"/><path data-name="Trimble" class="geo-223" d="M543,97v-11h-1v-1h-1v-5l1,-1l3,-3h10l1,-1l1,4l11,13l2,8l6,-1l-13,14l-5,1l-8,-5h-6l2,-2v-6l-1,-1l-1,-1v-2Z"/><path data-name="Barren" class="geo-009" d="M459,338l6,1l2,-18l16,3h7l16,-3l-4,4l2,5v13l2,12l1,17l-11,4l-20,15l-4,-6l-5,-2l1,-6l-4,-6v-7l-4,3l-4,-9h-4Z"/><path data-name="McCreary" class="geo-147" d="M651,367l16,-10l12,-5l-1,3l8,-1l-2,3v12l-3,5v7l3,3v9l12,17h-5l-22,-1h-42l9,-14l4,-11l12,-9Z"/><path data-name="Pendleton" class="geo-191" d="M653,66l14,-3l9,-3l14,-8v17l4,29l-22,4l-6,4l-5,-1Z"/><path data-name="Spencer" class="geo-215" d="M573,179l12,6l-3,6l-5,4l-29,5l-11,-8l-3,-2l5,-14l5,-2l1,-2v-4Z"/><path data-name="Letcher" class="geo-133" d="M865,303l4,-3l11,-1l6,6l8,-3l8,8h-1l-1,1l-1,1h-1v1l-1,1h-1l-1,1v1h-1v1h-3v1h-1v1h-1v1h-1v-1l-1,1h-1v1h-2l-1,1h-1v2h1v1h-1h1v1h-1v1h1v2l-1,1v1h1v3l-1,1v-1h-1l-1,1v3h-1v-1h-1v2h-1l-1,1h-3l-1,1v-1h-1v1h-1v2h-1v1h-2v1h-1l-1,1l-9,-6l-2,1l-1,1l-4,1l-13,5l-3,1l-3,-4l4,-2l7,-3l-2,-5l4,-2l-3,-10l8,-11l2,3l11,-7Z"/><path data-name="Clark" class="geo-049" d="M685,179l25,-8l15,28l-3,2l-1,13l-9,3l-1,-5l-12,-4l-11,1l-1,-7l-7,4l2,-8l-1,-9l3,-2Z"/><path data-name="Woodford" class="geo-239" d="M631,159l1,4l9,-1v10h3l-5,17l-6,23l-6,2l-2,-8l-3,2l1,-13l-4,-2l-3,-11l3,-4l-5,-6v-4Z"/><path data-name="McLean" class="geo-149" d="M303,256l-2,-3h-7l-6,-5l1,-4l10,-5l12,6l23,11l11,2l-10,14l2,9h-9l-5,5h-1l-9,-2l-7,-4Z"/><path data-name="Franklin" class="geo-073" d="M613,135h4l6,2l5,-2l1,17l2,7l-17,9v4l-6,4l-14,-6l2,-7l1,-16l5,-9h-5l11,-6Z"/><path data-name="Menifee" class="geo-165" d="M767,215l-16,-11l-2,-3l-1,-11l2,-2l11,-4l12,2v-8l9,2l6,5l2,-3v12l-7,10v5l-6,6Z"/><path data-name="Marion" class="geo-155" d="M577,248h17l-1,14l-1,20h-3l-11,-7l-5,2l-6,4l-5,-3l-5,-3l-5,-1h-12l-3,-11l-4,-3l5,-12l10,-15l3,9l15,6Z"/><path data-name="Fleming" class="geo-069" d="M763,106l5,3l3,7v5h3l11,4l1,3h1l-5,5l-1,12l-4,3l-3,6l-9,5l-7,-5v-7h-6v-4l-8,2l-5,-3l-3,-10l-6,-1l-5,-9l-3,-2l6,-8l9,5l16,-8Z"/><path data-name="Caldwell" class="geo-033" d="M212,316h1l1,-7l19,-12l17,-12l-2,5l-2,1l-2,5l6,-1l1,15l5,4l4,4l4,3l-5,21l-2,3l-3,3l-14,4l-2,-1l-9,-14l-11,-20Z"/><path data-name="Garrard" class="geo-079" d="M629,235l7,-5l-4,-11l6,-2l2,3h5l-3,5l7,4l2,3l5,-6l5,3l-1,4l5,4l7,15l4,1l3,9l-2,8l-1,2l-10,-2l-5,-3l-19,-16l-2,-4l-4,-1l-1,-9Z"/><path data-name="Casey" class="geo-045" d="M593,262l17,2l7,-3l-1,18l7,6l10,6l2,9l-2,10l-22,19l-6,2l-12,-13l-2,-11l-13,-9l4,-11l7,-5h3Z"/><path data-name="Metcalfe" class="geo-169" d="M506,321l6,-2l8,9l12,2l3,16l9,8l-2,3l-6,11l-7,3l-5,-4l3,7l-3,2v-2l-17,-2l-1,-17l-2,-12v-13l-2,-5Z"/><path data-name="Russell" class="geo-207" d="M593,318l12,13l6,-2l-1,11l9,7l-9,8l-5,-1l-1,6l-14,9l-6,5l-15,-9l3,5l-7,-6l4,-5l4,-12l5,-5Z"/><path data-name="Meade" class="geo-163" d="M413,183h4l1,-1h1l1,-1l1,-1v-2l-1,-1l-3,-2l-1,-2v-1h1v-1h4l1,1h1l1,1h2v-1l2,-2l2,1l4,-2v-2l-6,-2v-5l5,2l5,3l2,8v7l1,2h1v1h1l1,1l1,1h1l1,1l3,2h1v1h4l10,3v-1v2l1,1l4,-1v-1l2,-1h2l3,18l-4,10l-18,3l-11,-12l-17,-14Z"/><path data-name="Nelson" class="geo-179" d="M525,210l1,-1l11,-17l11,8l29,-5l2,11l-6,1l-2,6h-8l-3,10l-7,2l-2,7l-3,1l-10,15l-5,12h-4v5l-9,-3l3,-2l-1,-9h6l-4,-4v-9l-5,1l-6,-6v-4l-6,-3v-6h1l10,-3Z"/><path data-name="Owen" class="geo-187" d="M587,97l13,-6l5,-4l7,-6l11,-4l1,15l12,10l7,12l5,2l-5,7l-15,12l-5,2l-6,-2h-4l-4,-3l2,-8l-9,-1l1,-7l-5,-2l1,-5l-6,3l3,-9l-9,-2Z"/><path data-name="Bath" class="geo-011" d="M728,166l-5,-3l-1,-4l17,-17l5,3l8,-2v4h6v7l7,5l5,9l5,-3l5,4v7l6,-2l-4,6l-9,-2v8l-12,-2l-11,4l-7,-11l-7,-9Z"/><path data-name="Nicholas" class="geo-181" d="M696,131l10,-14l16,3l3,2l5,9l6,1l3,10l-17,17v-5l-10,-2l-12,-19Z"/><path data-name="Boyd" class="geo-019" d="M864,126l6,-9l12,-12l1,1v1h1l2,2h1l3,2l2,8v11l1,1l1,1l1,3l-1,3l1,1v1l-3,5l-4,-3l-9,2l-3,4l-8,-1l2,-19Z"/><path data-name="Johnson" class="geo-115" d="M844,208l5,-6l-2,-6l-2,-4l5,-7l17,6l17,10l9,2l-8,5l4,3l-4,7l3,1l2,9l-4,-1l-5,-2l-6,-1l-19,7l-3,-1l-2,-12l-5,-3Z"/><path data-name="Webster" class="geo-233" d="M258,245l31,-1l-1,4l6,5h7l2,3l-15,13l-14,5l-9,6l-17,10l2,-5l-7,1l1,-7l-8,2l-3,-3l1,-9l15,-14Z"/></g>
  <path class="counties-mesh" d="M882,105l-12,12l-6,9l-12,-3h-8l-6,-8l-17,-8l8,-7l3,-6v-7l5,-5v-10M218,265l7,-7l1,8l8,3l-1,9l3,3l8,-2l-1,7l7,-1l-17,12l-19,12l-1,7h-1l-1,2l-7,5l-5,-3l-2,-5l2,-8l-1,-7l-10,-9l-2,-10l-6,-2M831,279l-1,-8l6,-10h3l3,2h11l3,3l12,3l-1,8l10,-2v12l1,6h1l4,3l-3,3l-11,1l-4,3l-4,5l-11,7l-2,-3M906,192l-10,-1l-3,12l-9,-2l-17,-10l-17,-6l-5,7l-4,-7l5,-7h4l4,-8l3,-4l-4,-8l12,-6l1,-4l2,-1l8,1l3,-4l9,-2l4,3M813,232l-7,-6l-3,-4l-3,-4l-10,-3l-7,-6v-5l7,-10v-12l7,-4l7,-5l7,-5v10l7,4l1,3h12l8,2l2,-2M813,156l-7,-4l-6,-15l-2,-2l-5,-9l-6,2h-1l-1,-3l-11,-4h-3v-5l-3,-7l-5,-3l-10,3l-16,8l-9,-5l-6,8l-16,-3M656,18l2,12l5,5l-1,8l2,5l-1,13l4,2l-14,3l-9,-2l1,-21l-3,-21M928,224h-6l-4,5l1,5l-20,-1l-9,-5l-2,-9l-3,-1l4,-7l-4,-3l8,-5M775,265l3,7l1,20M781,304l-10,-7l-5,-9l-6,4l-11,-2l-4,-5l-3,-10l-5,-5v-6M784,307l-3,-3l-2,-5v-7l7,-4l1,-3l4,-1l6,7l3,-2l3,-3l11,-5l5,-7l2,4l10,1l2,7l-1,19l7,-1l1,5l8,3l-8,11l3,10l-4,2l2,5l-7,3l-8,-3v-14l-7,-7l3,-3l-17,-10l-2,-9l-6,-3l-3,4l-7,2l-3,7v5l-4,6l1,20l4,16l-10,-3h-7l-11,-7l-1,-4h-10l-6,-4l-1,-4l-4,-4l-8,-9l3,-5v-9h2l17,-15M651,113l9,-3l1,-5l5,1l6,-4l22,-4l-1,5l6,-1h4l7,-8l10,2h2l1,9l5,7M792,396l-3,-6l-2,-4l2,-8l-3,-2l3,-9l-1,-7l10,1l1,-3l3,-4l11,-3l13,-11M834,343l-4,2l3,4l3,-1l13,-5l4,-1l1,-1l2,-1l9,6M299,239l4,-9h7l6,-7l-4,-2l-1,-8l2,-8M811,168l6,-3l1,-6l-6,-2l1,-1l3,-7l5,-4l9,4l7,8l16,1M685,179l-1,8l-3,2l1,9l-2,8M393,215l-3,7l6,20l-2,1l-22,-12l1,-9l-4,-7l-5,1h-2l-1,-11h-1l-2,-1h-5l1,-3M734,260l6,-13l5,-1l-2,-5l13,-9l-4,-3l-3,-3l-10,1l-14,-7v-7l-4,1l1,-13l3,-2l11,4h11l2,-2l2,3l16,11M119,419l1,-8v-33l1,-1v-27l15,1l26,1v21l-1,8l-1,17v23M640,247l2,4l19,16l5,3l10,2l1,-2l2,-8l-3,-9l-4,-1l-7,-15l-5,-4l1,-4l-5,-3l-5,6l-2,-3l-7,-4l3,-5h-5l-2,-3l-6,2l1,-7M512,319l-6,2l-4,4l2,5v13l2,12l1,17l17,2v2l1,6l6,1l2,6h7l-2,10l7,8M621,56l3,1l14,11l6,-4M653,66l8,39M590,369l14,-9l1,-6l5,1l9,-8l-9,-7l1,-11l22,-19l2,-10l-2,-9l-10,-6l-7,-6l1,-18M613,135l-5,-3l-11,6h5l-5,9l-1,16l-2,7l-4,10l-5,5M656,226l8,-4l-2,-9h5l9,-1l-1,-7l5,1l7,-4l1,7l11,-1l12,4l-3,6l4,2l-2,22l-4,5l5,10l-10,1l-3,6h-14l1,-2h-6M337,281l-2,-9l10,-14l-11,-2l-23,-11l-12,-6l-10,5l-31,1l-1,-4l-1,-16l-7,-1l-13,-21M356,336l-14,1l-8,2l-17,1l-1,-5l-5,-6l-4,-8l3,-4v-1l-7,-7v-1l-2,-3v-5l11,-12l1,-4l9,2h1l5,-5h9v7l-5,5l4,2l2,-5l6,-2l7,8l2,10l7,3l1,4l1,6l-4,1l3,12l-5,4l12,2l22,9l7,18h-4l-6,6l-8,17l-2,14M340,402l1,-22v-30l1,-13M424,321l-9,2l-2,-5h-17l-1,11l-5,18M781,244l-6,21l-3,-1l-4,-4l-7,5l-5,-2l-2,4l-12,1l-3,-3l-2,-1l-3,-4l-9,-6l-8,3h-6M856,266l5,-8l-3,-9v-8l-4,-3l-1,-8l3,1l19,-7l6,1l5,2l4,1M899,233l-5,2l2,5l-3,22h4v10l-3,9h-4l-2,12l-5,3M632,219l4,11l-7,5l6,2l1,9l4,1l-9,8l-14,6l-7,3l-17,-2l1,-14v-5l1,-2l34,-6M711,212l1,5l9,-3M845,192l2,4l2,6l-5,6l-5,-4l-11,-1l3,5l-19,16l4,3l-3,5l2,6l-16,-3l-5,1l-1,1l-2,6l-2,2l-2,1l-6,-2l-12,-4l-11,-8M594,207l1,3l2,3l-2,28M594,248h-28l-15,-6l-3,-9l3,-1l2,-7l7,-2l3,-10h8l2,-6l6,-1l3,-2l3,4l9,-1l11,-9l8,1l10,-4l-1,13l3,-2l2,8l6,-2l6,-23M562,406l10,-36l-3,-5l15,9l6,-5l6,8l2,10l-1,7l2,12h2l1,1h1M85,349l2,3h15l4,-1l1,-1h4l4,-1h5l1,-1v2M121,377l-32,-1l-7,-3M482,191l3,-4h1l11,-6l12,-4l20,2l3,-1l13,-6l-1,2l-5,2l-5,14l3,2l-11,17l-1,1l-7,7l-10,3h-1l-14,-10l2,-6l-3,-5l-6,1v-8l-4,-1l-2,-1M696,410l-12,-17v-9l-3,-3v-7l3,-5v-12l2,-3l5,-2l3,3l9,-1l1,-3l8,1v2l1,4l1,1l-1,1l1,2h1l1,7l5,5l6,3l-1,6l4,5l10,6l-9,5l3,11M720,96l10,-28M762,88l2,4l-1,14M694,98l-4,-29v-9M864,126l6,2l-2,19M307,321l-3,3l-16,2l-2,1h-1v1h-4l-17,-7l-4,-3l-4,-4l-5,-4l-1,-15l-6,1l2,-5l2,-1l17,-10l9,-6l14,-5l15,-13l3,24l7,4M790,182l-2,3l-6,-5l4,-6l-6,2v-7l-5,-4l-5,3l-5,-9l9,-5l3,-6l4,-3l1,-12l5,-5h-1M476,391l4,9l-4,6M422,402l1,-20l17,-14v-4l8,-2l4,-4h4l4,9l4,-3v7l4,6l-1,6l5,2l4,6l20,-15l11,-4M619,347l11,6l9,-3l7,12l5,5l1,8l-12,9l-4,11l-9,14M740,394l5,-5l5,-12l13,-7l11,-10l4,-6l-3,-3M785,354l1,2l2,4M902,310l-8,-8l-8,3l-6,-6M815,238l10,6l4,4l7,-4l3,6l5,1v5l9,7M459,338l-8,-2l-4,-5l-9,4l-14,-14l-9,-24l39,-2l14,18l-1,8l-2,18l-6,-1l-7,20M597,138l-35,-3l-5,-7l-3,-9l4,-5l5,-1l13,-14l11,-2v4l9,2l-3,9l6,-3l-1,5l5,2l-1,7l9,1l-2,8l4,3h4l6,2l5,-2l15,-12l5,-7l3,-3l6,11l5,4l2,11l1,6l5,12l-26,13v2h-3v-10l-9,1l-1,-4l-2,-7l-1,-17M117,419l-9,-12l-5,-3h-11l-1,-1l-16,-9M153,331l5,6l5,2l-1,13M121,348l-13,-43M258,245l-9,10l-15,14M212,316l6,1l11,20l9,14l-18,8l-17,5l-4,-11l-5,-7l2,-5l1,-16l2,-5M712,352l7,-5l10,2l6,-9l5,-4M161,381l39,2h9l5,11M730,306h-8l-11,-7l-3,-6l-3,3l1,-7l-4,-3l-1,-9l-4,-7l1,-6M238,351l2,1l14,-4l3,-3l9,5l-2,11l-1,26l-3,15M209,383l-6,-19M163,339l6,-4l10,-2l6,2l9,11M454,295l12,-4l3,-7l-1,-7l19,2l29,2M506,321l-16,3h-7l-16,-3M666,270l-6,25l-7,-4l-20,19M660,295l27,27l1,9l-4,3v12l-5,6l-12,5l-16,10M690,52l-14,8l-9,3M569,359l-27,-2l2,-3l-9,-8l-3,-16l-12,-2l-8,-9l1,-17l-1,-10l5,-6l-1,-5l3,-7h7l-1,5l14,12l10,17l-1,4l6,5l11,-11h6l3,-3l4,-5l13,9l2,11l-15,24l-5,5l-4,12l-4,5l7,6M687,322l4,-14h5v-6l9,-6M686,354l-8,1l1,-3M361,313l10,-10l1,-8l5,1l2,3l18,-14M400,258l2,-5l10,-1l11,6l8,1v-3l9,-2l7,3h1l4,3l2,-1l6,-1l7,11l1,8M844,208l2,7l5,3l2,12M722,159l1,4l5,3l8,2l7,9l7,11l-2,2l1,11M725,199l-15,-28M487,279l2,-15l5,-6h1l3,-5h1v-2l1,-2l2,-2l5,-1l6,-13l6,6l5,-1v9l4,4h-6l1,9l-3,2l9,3v-5h4l4,3l3,11h12l5,1l5,3l5,3l6,-4l5,-2l11,7l-7,5l-4,11M519,131l19,14l1,1M540,146l1,-2l16,-2l5,-7M306,402l2,-18l3,-12l2,-18l3,-19M413,183l14,13l17,14l11,12l-15,32M638,68l-15,2v7l-11,4l-7,6l-5,4l-13,6M576,99l-6,1l-2,-8l-11,-13l-1,-4M545,168v4M455,222l18,-3l4,-10l-3,-18M507,220v6l6,3v4M257,345l2,-3l5,-21M594,170l14,6l6,-4l5,6l-3,4l3,11l4,2M544,109h6l8,5M577,195l-29,5l-11,-8M614,172v-4l17,-9M303,256l-2,-3h-7l-6,-5l1,-4M605,87l-4,-3l-8,-13M750,188l11,-4l12,2v-8l9,2M593,262l-1,20h-3M765,159l-7,-5v-7h-6v-4l-8,2l-5,-3l-3,-10l-6,-1l-5,-9l-3,-2M250,285l-2,5M611,329l-6,2l-12,-13M722,159l17,-17M696,131l4,2l12,19l10,2v5l-2,4l-10,8l-25,8l-3,-4l-7,-1l1,-15l-6,-2M526,274l4,2l6,-4l2,2h2M699,102l-2,10l4,2l5,3l-10,14l-13,9l-9,5v1h-1l-1,-1h-7M667,213l-2,-9l-3,-5l-12,-6l-11,-4l5,-17M648,116l-5,-2l-7,-12l-12,-10l-1,-15M756,232h2l9,-17h10l6,-6M394,243v8l6,7l-2,4l-6,-2l1,7l4,18l16,5l2,7M372,231l-5,6l6,4l-12,7h-6l-10,10M524,376l3,-2l-3,-7l5,4l7,-3l6,-11M579,206l-2,-11l5,-4l3,-6l-12,-6l-28,-11l3,-19l-8,-3h-1M814,120M814,126M809,135M423,382v-5l-23,-4l-3,-8M814,120l7,-13M814,126v-6M809,135l5,-1v-8M800,137l9,-2M532,330l19,-9l3,-4M533,260l5,-12l10,-15"/>
<g class="districts"><path data-name="Congressional District 1" class="district-2101" d="M44,415l3,-10l2,-6l2,-2h4l4,4l1,3l3,3h1l6,-3v-1l3,-7l2,-2l2,-2l-1,-1v-3l-2,-1l-2,-7l4,-3l3,1l2,1l1,-1l1,-1v-1l-1,-3h-1l-4,-1l-2,-2v-2l1,-3l5,-1l1,-2l1,-3v-2l2,-6v-7l-5,-3l-1,-1l-3,-4v-4l11,-13l1,-4l12,-9l8,-1h-1h3v1l8,3l1,1h1l1,1h1v1h2l1,1l1,1h1l2,3h1l1,1h1v1h6l1,1l1,1h1l1,1h1v1h3l4,3l2,3l1,2h3l2,1h5l4,-2l1,-3l1,-1v-1l1,-4h1v-3l-1,-1v-3h-1v-2l-1,-1v-1h-1v-1h-1l-1,-1l-2,-5l-2,-1h-1v-1h1l-1,-2v-1v1v-2l8,-18l8,-2l3,2v1h1v-1l7,-5l1,-1l6,-1h5l3,-1h3l2,-1h8l1,-2h1l1,-2v-4h-1v-1h-1v-1h-1l-2,-3l-1,-1v-1h-2v-1h-1v-2h-1v-4l-1,-1v-1l-1,-7l3,-3v-1l1,-1l1,-1l7,-4v-1l1,-1l1,-2l1,-1v-3l1,-1v-1h1l1,-1h1v1h1l2,1l2,1v1h1v1h3v-1l1,-2l1,-1h1l1,-1v-7h-1l-1,-1l-1,-1v-5l1,-1h1v-2l3,-2h1l1,1l4,6l1,1l5,1h1l1,-1l1,-1l3,-1h4l1,-1h5v2l-1,3v1l-1,1v3l1,1h8v-1h1v-1h1v-3l-3,-8l-1,-1v-1l2,-2l1,-2l1,-3v-1h1v1l1,3l1,2l2,2l4,2v1h1v1l7,-5h1v-1h2l7,2l1,1h1l1,1v1h1l1,1h2l2,1l-2,8l1,8l4,2l-6,7h-7l-4,9l12,6l23,11l11,2l10,-10h6l12,-7l-6,-4l5,-6l22,12v8l6,7l-2,4l-6,-2l1,7l4,18l-18,14l-2,-3l-5,-1l-1,8l-10,10l1,6l-4,1l3,12l-5,4l12,2l22,9l7,18l3,8l23,4v5l17,-14v-4l8,-2l4,-4h4l4,9l4,-3v7l4,6l-1,6l5,2l4,6l20,-15l11,-4l-1,-17l-2,-12v-13l-2,-5l4,-4l6,-2l8,9l12,2l19,-9l3,-4l-6,-5l1,-4l-10,-17l-14,-12l1,-5l4,2l6,-4l2,2h2l-3,-11l-4,-3l5,-12l10,-15l3,9l15,6h11l11,-9l6,4v5l-1,14l17,2l7,-3l-1,18l7,6l10,6l2,9l-2,10l-22,19l-1,11l9,7l-9,8l-5,-1l-1,6l-14,9l6,8l2,10l-1,7l2,12h2l1,1h1l-8,-1h-37l-10,1h-9l-2,1h-1l-24,-1l-17,-1h-19l-11,-1l-30,-3h-25l-5,1h-1v1h-1l-1,-1l-14,-1h-148l1,-5l-6,-1l-8,-1l-13,-1v4l2,4l1,7v2l1,1v5l-1,1v3l-2,2l-55,-2h-3l-23,-1l-2,-1h-15l-41,-2l-17,-1h-7l-1,1h-7ZM30,404l5,1l1,1l1,3l-1,6l-1,1l-1,1l-6,-1l-3,-4l1,-8Z"/><path data-name="Congressional District 2" class="district-2102" d="M299,239l4,-9h7l6,-7l-4,-2l-1,-8l2,-8l6,5l1,1l1,1l2,1h2l2,1l5,2l3,7h2l2,-1h1l2,-2v-2l1,-1l1,-4l1,-2v-3l8,-7h1v-1v1h1v-1h6v-1h1l1,-1v-1h1v-1h1v-1h1v-1h1v-1h1v-1h2v-1h2v-1h1l3,2v3h1v1l1,1h-1l1,1v1h1v1l1,1v1l1,1v1l1,1l1,1l1,1l7,-3h2l1,1v2l-1,1v4l-1,1h1v2h2l2,-1l1,-1h1l1,-2v-7l4,-1l8,-2v-1l-1,-1l-1,-1v-2l-1,-1l1,-1v-1h-1l1,-1h-1v-1l1,-3v-4h1l1,-1h5l1,-1h1l1,-1l1,-1v-2l-1,-1l-3,-2l-1,-2v-1h1v-1h4l1,1h1l1,1h2v-1l2,-2l2,1l4,-2v-2l-6,-2v-5l5,2l5,3l2,8v7l1,2h1v1h1l1,1l1,1h1l1,1l3,2h1v1h4l10,3v-1v2l1,1l4,-1v-1l2,-1h3v-1h5l2,1l3,-4h1l11,-6l12,-4l20,2l3,-1l13,-6l-1,2l1,7h3v6l4,2h1l1,-1v-1l1,-1l-1,1v1l-1,1h-1l-2,3l13,-3l10,-10l12,6l-3,6l-5,4l2,11l3,-2l3,4l9,-1l11,-9l8,1l10,-4l-1,13l3,-2l2,8l6,-2l6,-23l11,4v2l-3,-1l1,8l-2,1l-1,1v4l-4,5l-1,7h5l-3,5l7,4l2,3l5,-6l5,3l-1,4l5,4l7,15l4,1l3,9l-2,8l-1,2l-10,-2l-5,-3l-19,-16l-2,-4l-9,8l-14,6l-7,3l-17,-2l1,-14v-5l-6,-4l-11,9h-11l-15,-6l-3,-9l-10,15l-5,12l4,3l3,11h-2l-2,-2l-6,4l-4,-2l-1,5l14,12l10,17l-1,4l6,5l-3,4l-19,9l-12,-2l-8,-9l-6,2l-4,4l2,5v13l2,12l1,17l-11,4l-20,15l-4,-6l-5,-2l1,-6l-4,-6v-7l-4,3l-4,-9h-4l-4,4l-8,2v4l-17,14v-5l-23,-4l-3,-8l-7,-18l-22,-9l-12,-2l5,-4l-3,-12l4,-1l-1,-6l10,-10l1,-8l5,1l2,3l18,-14l-4,-18l-1,-7l6,2l2,-4l-6,-7v-8l-22,-12l-5,6l6,4l-12,7h-6l-10,10l-11,-2l-23,-11Z"/><path data-name="Congressional District 3" class="district-2103" d="M480,190l4,-3l1,-7l1,-2v-14l1,-1l1,-3l2,-2v-1l3,-3l1,-2v-3l1,-2h1l5,-1h1l1,1l2,2h1l3,-2l1,-1h1l1,-1h1l1,-1l2,-3l1,-1v-3l1,-2v-3l1,-1l19,14v6l-4,10l1,6l-1,-1v2l-1,2l-4,-1l1,8h1l1,1l-3,1l-20,-2l-12,4l-11,6h-1l-3,4Z"/><path data-name="Congressional District 4" class="district-2104" d="M519,131v-1l1,-2v-2l1,-1v-1l4,-4l10,-2l1,-1v-1h1v-1l1,-1v-2l6,-3l2,-2v-6l-1,-1l-1,-1v-2h-1v-11h-1v-1h-1v-5l1,-1l3,-3h10l1,-1h3v-1h4v1h2l1,1h1v3h1l5,4l7,-2l1,-1l1,-1h1v-1h1v-1l2,-1l1,-1v-1h1l5,-3h1l1,-1h1v-1l2,-1l6,1l6,-3h1l2,1h4v1h1l1,-1l-2,-7l1,-1l1,-1v-1h2v-1l2,-2v-2h-1v-1h-1l-1,-1h-8l-1,-1v-3l1,-2h1l1,-1v-1l2,-1v-1l1,-1v-2h-1v-1l-2,-2l-6,-8v-1l1,-1l1,-1l3,-1l2,-2v-1h1v-1l2,-1h1l2,-1l1,-1h1l1,-2l1,-1l4,-1v1l1,1l2,2l7,4l1,2l1,1h4v-1h2v-1h2v-1l1,-1v-1h1v1h2v1h2l1,-1h1l6,-3h1v2l1,7v1h1l2,1h2l6,1l1,1l3,3l4,10l1,2l1,1l1,2l1,1v1l2,3v10l1,1l1,1h1v1h7v1l3,1l1,1h1h-1l3,1h8v-1h4l2,-1l6,2h3l7,3l1,5l6,3l4,8l12,3l2,-2l5,-7h1l10,-3l8,5h9l6,5l3,5l4,-3l4,-2l10,2l8,-10l1,-1h2v-1h1v-1h1v-1l1,-1v-1l1,-1v-1h6l12,-5l1,11l2,7v4h1v3l1,1l2,2h1l11,2h1l6,7l1,1l1,1v1h1l2,2h1l3,2l2,8v6l-14,-3l-4,-5h-4l-6,9l-12,-3h-8l-6,-8l-17,-8l-7,13v14l-5,1l-9,2l-2,-2l-5,-9l-6,2h-1l-1,-3l-11,-4h-3v-5l-3,-7l-5,-3l-10,3l-16,8l-9,-5l-5,-7l-1,-9h-2l-10,-2l-7,8h-4l-2,10l4,2l-11,4l-2,6l-4,3v1l-2,3l1,9l-9,5v1h-1l-1,-1h-7l-1,-6l-2,-11l-5,-4l-6,-11l-3,3l-5,7l-15,12l-5,2l-6,-2h-4l-5,-3l-11,6h5l-5,9l-1,16l-2,7l-4,10l-5,5l-12,-6l-10,10l-13,3l2,-3h1l1,-1v-1l1,-1l-1,1v1l-1,1h-1l-4,-2v-6h-3l-1,-7l1,-2l-13,6l-1,-1h-1l-1,-8l4,1l1,-2v-2l1,1l-1,-6l4,-10v-6l-19,-14Z"/><path data-name="Congressional District 5" class="district-2105" d="M590,369l14,-9l1,-6l5,1l9,-8l-9,-7l1,-11l22,-19l2,-10l-2,-9l-10,-6l-7,-6l1,-18l14,-6l9,-8l2,4l19,16l5,3l10,2l1,-2l2,-8h6l-1,2h14l3,-6l10,-1h6l8,-3l9,6l6,-13l5,-1l-2,-5l13,-9h2l11,8l12,4l6,2l2,-1l2,-2l2,-6l1,-1l5,-1l16,3l-2,-6l-7,-6l-3,-4l-3,-4l-10,-3l-7,-6v-5l7,-10v-12l-2,3l-6,-5l4,-6l-6,2v-7l-5,-4l-5,3l-5,-9l9,-5l3,-6l4,-3l1,-12l5,-5h-1h1l6,-2l5,9l2,2l9,-2l5,-1v-14l7,-13l17,8l6,8h8l12,3l6,-9h4l4,5l14,3v-1v6l1,1l1,1l1,3l-1,3l1,1v1l-3,5l-1,1l1,4l1,1v1l-1,3l-1,2l-3,3l1,3l1,1l2,1l2,2h1v1l1,2v1h1v1l1,1h1v2l1,1l1,1v2l1,1v1l1,1l1,1v1h3v8h-1v2l1,1h1v1l3,1l1,1l2,1l1,1v1l1,1v5l1,1v1l2,2l-1,2h3l1,1l1,1h2v1h1l1,1v1h2v1l-1,1h3h-1l-1,2l-1,1v1h1v1h1v2h1v1l1,1l1,3l-1,1v1l1,-1l3,2l4,1l3,5l5,-1l-1,1l6,8l-1,1h1l1,1v1l1,-1h2v1l5,2h5l1,-1v1l1,1l1,-1v-1h1v1l1,-1h1l1,-1l1,1l-11,10l-1,1l-1,1l-11,11l-5,4l-2,2l-7,6l-1,2l-3,3v1h-1v1h-1v1h-2v2h-3v1h-3v1h-3l-1,1h-2l-1,1v1h-2l-2,1v1h-3v1h-1v1h-2v1h-1l-1,1v-1l-1,1h-1v1h-1l-1,1l-1,1h-1v1l-1,1h-1l-1,1v1h-1v1h-3v1h-1v1h-1v1h-1v-1l-1,1h-1v1h-2l-1,1h-1v2h1v1h-1h1v1h-1v1h1v2l-1,1v1h1v3l-1,1v-1h-1l-1,1v3h-1v-1h-1v2h-1l-1,1h-3l-1,1v-1h-1v1h-1v2h-1v1h-2v1h-1l-1,1v2h1v1h1l-1,1v2h1v1h-1v2h-1l-1,1l1,1v1h-1v1h-1v1h-1l-1,1h-1v1h-2v1h-2l-1,1h-5v1h-1v1h-3v-1h-1l-1,1h-3l-1,-1v2h-1v1l-1,1h-1v1h1v2l-1,1h-1v1l-1,1v1l-1,2l-1,1l1,1v2h-1v1h-4l-2,1h-3l-1,1h-3v1h-1l-3,1h-1v1h-3l-2,1l-1,1h-2l-1,1h-2l-1,1h-1l-1,1l-1,1l-1,1h-1v1h-10v-1v1l-1,-1v1h-4v1l-1,1h-1l-1,1l-1,1h-2l-3,2h-1l-1,1h-3v1h-1v1l-1,1h-2v2l-1,1l-1,1h-29l-10,-1h-16l-12,1h-5l-22,-1h-51l-15,-2h-1l-1,-1h-2l-2,-12l1,-7l-2,-10Z"/><path data-name="Congressional District 6" class="district-2106" d="M585,185l5,-5l4,-10l2,-7l1,-16l5,-9h-5l11,-6l5,3h4l6,2l5,-2l15,-12l5,-7l3,-3l6,11l5,4l2,11l1,6h7l1,1h1v-1l9,-5l-1,-9l2,-3v-1l4,-3l2,-6l11,-4l-4,-2l2,-10h4l7,-8l10,2h2l1,9l5,7l9,5l16,-8l10,-3l5,3l3,7v5h3l11,4l1,3h1l-5,5l-1,12l-4,3l-3,6l-9,5l5,9l5,-3l5,4v7l6,-2l-4,6l6,5l2,-3v12l-7,10v5l7,6l10,3l3,4l3,4l7,6l2,6l-16,-3l-5,1l-1,1l-2,6l-2,2l-2,1l-6,-2l-12,-4l-11,-8h-2l-13,9l2,5l-5,1l-6,13l-9,-6l-8,3h-6l-10,1l-3,6h-14l1,-2h-6l-3,-9l-4,-1l-7,-15l-5,-4l1,-4l-5,-3l-5,6l-2,-3l-7,-4l3,-5h-5l1,-7l4,-5v-4l1,-1l2,-1l-1,-8l3,1v-2l-11,-4l-6,23l-6,2l-2,-8l-3,2l1,-13l-10,4l-8,-1l-11,9l-9,1l-3,-4l-3,2l-2,-11l5,-4Z"/></g>
  <path class="districts-mesh" d="M313,205l-2,8l1,8l4,2l-6,7h-7l-4,9l12,6l23,11l11,2l10,-10h6l12,-7l-6,-4l5,-6l22,12v8l6,7l-2,4l-6,-2l1,7l4,18l-18,14l-2,-3l-5,-1l-1,8l-10,10l1,6l-4,1l3,12l-5,4l12,2l22,9l7,18l3,8l23,4v5l17,-14v-4l8,-2l4,-4h4l4,9l4,-3v7l4,6l-1,6l5,2l4,6l20,-15l11,-4l-1,-17l-2,-12v-13l-2,-5l4,-4l6,-2l8,9l12,2l19,-9l3,-4l-6,-5l1,-4l-10,-17l-14,-12l1,-5l4,2l6,-4l2,2h2l-3,-11l-4,-3l5,-12l10,-15l3,9l15,6h11l11,-9l6,4v5l-1,14l17,2l7,-3l-1,18l7,6l10,6l2,9l-2,10l-22,19l-1,11l9,7l-9,8l-5,-1l-1,6l-14,9l6,8l2,10l-1,7l2,12h2l1,1h1M480,190l2,1l3,-4h1l11,-6l12,-4l20,2l3,-1l13,-6l-1,2l1,7h3v6l4,2h1l1,-1v-1l1,-1l-1,1v1l-1,1h-1l-2,3l13,-3l10,-10l12,6l-3,6l-5,4l2,11l3,-2l3,4l9,-1l11,-9l8,1l10,-4l-1,13l3,-2l2,8l6,-2l6,-23l11,4v2l-3,-1l1,8l-2,1l-1,1v4l-4,5l-1,7h5l-3,5l7,4l2,3l5,-6l5,3l-1,4l5,4l7,15l4,1l3,9l-2,8l-1,2l-10,-2l-5,-3l-19,-16l-2,-4l-9,8l-14,6M679,262h6l-1,2h14l3,-6l10,-1h6l8,-3l9,6l6,-13l5,-1l-2,-5l13,-9h2l11,8l12,4l6,2l2,-1l2,-2l2,-6l1,-1l5,-1l16,3l-2,-6l-7,-6l-3,-4l-3,-4l-10,-3l-7,-6v-5l7,-10v-12l-2,3l-6,-5l4,-6l-6,2v-7l-5,-4l-5,3l-5,-9l9,-5l3,-6l4,-3l1,-12l5,-5h-1M519,131l19,14v6l-4,10l1,6l-1,-1v2l-1,2l-4,-1l1,8h1l1,1M892,124v1l-14,-3l-4,-5h-4l-6,9l-12,-3h-8l-6,-8l-17,-8l-7,13v14l-5,1l-9,2l-2,-2l-5,-9l-6,2h-1l-1,-3l-11,-4h-3v-5l-3,-7l-5,-3l-10,3l-16,8l-9,-5l-5,-7l-1,-9h-2l-10,-2l-7,8h-4l-2,10l4,2l-11,4l-2,6l-4,3v1l-2,3l1,9l-9,5v1h-1l-1,-1h-7l-1,-6l-2,-11l-5,-4l-6,-11l-3,3l-5,7l-15,12l-5,2l-6,-2h-4l-5,-3l-11,6h5l-5,9l-1,16l-2,7l-4,10l-5,5"/>
</svg>