<?xml version="1.0" encoding="utf-8"?>
<!DOCTYPE svg PUBLIC "-//W3C//DTD SVG 1.1//EN" "http://www.w3.org/Graphics/SVG/1.1/DTD/svg11.dtd">
<svg version="1.1" xmlns="http://www.w3.org/2000/svg" width="1000" height="916" viewBox="0 0 1000 916">
  <path class="state" d="M605,852l-1,2l-10,1l-9,-9l6,-9l9,2l8,-8l-7,-5l-5,2l-9,-7l6,1l-1,-4l-5,2l4,-9l-9,-2l-10,6l15,12l-10,5l-3,-3l-8,10l1,-8l-5,-1l3,11h-8l-7,-7l2,-8l-3,-6l17,-4l-2,-5l5,1l1,-4l-10,-3l-4,3l7,4l1,5l-6,-1l-5,3l-3,-10l-12,-6l-5,-6l2,-5l-1,-3l-1,-1h-3l-2,-2h-1l-1,-3v-17l5,-2l1,-3l1,-1l1,-3v-1h-4v7l-5,2l-2,7l-5,4l-8,1l-1,-5l-9,-2l-5,1l4,-7l-12,1l-15,6l5,-6l-6,-20l-16,2l4,-6v-18l-18,1l-2,-2l-9,1l-12,8l-6,-1l4,-6l-4,-1l5,-12l5,4v-10l-14,-1l-3,4l-11,-4l-1,7l-8,3l-16,9l-6,6l4,-10l-4,-2l-6,4l-5,-1l2,7l8,6l9,-1l-6,6l4,12l11,-1l4,-3l3,4l-11,3l5,4h-21l-10,4l-10,6h-10l-15,-4l-23,-3l-16,-3l-17,-6l-37,-17l-21,-10l-18,-7l-18,-4h-13l-10,4l-18,-3l-18,1l-5,2l-33,3l-18,10l-5,-10l-1,-1l-1,-1l-1,-3v-1l-2,-2l-1,-1l-4,-8l10,-8h1v-1h1l2,-3h1v-1l6,-8l1,-7l5,-9l1,-1h1v-1h1l2,-2l3,-3v-1l1,-1v-1l3,-2l1,-4l1,1v2h1l1,-1v-1l-1,-1h-2l-3,-5l1,2l1,-1v-1l1,-2l1,-1v-1h1l1,-1l-1,-1v-1h1v-3h1v1h1l1,-1h-1l-1,-3h-1v1h-1v-1l1,-2l1,-2v-1h-2l1,-1h-1v-1l-1,-1v-1l1,1l1,-1h-2l-1,-1h1v-2l-1,1v-2l1,-1v-1h1h-1l1,-1v-1h1l-1,-1h1v-1h-1l1,-1h-1l1,-1v-2h-1l1,-1h-1h1h-1v-1h1l-1,-1v1h1v-4h-1l-1,-1h-2v-1h-2v-1h-1v-2h-1v-2h-1v-2h-1v1l-1,-1v-1h1v-1h-1v-1l1,1l-1,-1l1,-1v-2v1h1l1,-1h-1l-1,-2h1v1v-4l-1,-1h1h-1l1,-1h1v-1h1l1,-1l1,-1v-2h2v-3l1,1v1l1,-1v-1h2v-1l1,-1v-1l-2,-1h1v-1h1v-1l-1,-1l-1,-1v-2l-1,-1h1l-1,-2v-1h1v-1h-1l1,-1h1v-1h-1v-2l-1,1v-1h-1v-1h-1l-1,-1v-2h-1v-1h2l-1,-1l1,-1l1,-1v-1l-1,-1v-1l1,-1h2v-2h2l3,-1l-1,2l1,-1v-1l1,-1v-1h-1v-8l1,-1l1,-1v-2l1,-1h2l1,-2h3l1,-1l1,-1v-2l1,-1v-2l1,-1v-2h1v1h1l-1,-2v1v-1h1l-2,-1h2l-1,-1v-2h1v-1l-1,-1v-2v1h1v-1h2l1,-1v-2h1v-5h3l1,-2v-2h1v-2l1,-1l-2,-1v-2l1,-1l-1,-2l1,-1h-1v-2l-1,1l-1,-1v-3h1v-1l1,-1h3h-1v-2h-1v-1l1,-1v-1h1v-1h1v2l1,-1h1l1,-1v-3h-1v-3h1h-1v-1l-2,1v-1h-1v-1h-1l-1,-1l-1,1l-2,-1l1,-1l1,-1v-3h-2v-2h1v-2h1v1h5v-1l1,-1l1,-1h2l1,-1h1v-1h-2v-1h-1v-1h1v-1h-1l-1,-1v-1h2v-2h-1l-1,-1h1v-1h-2v-1h-3v-2h1h-3v-1l1,-1h2v-3l2,-2v-1l-1,-1v-1l-1,-2v-2h2v-1l-1,-1v-2h2v-2h-6l-1,1h-1v2h-2v1h-1v-2l-1,-1v-5l-1,-2h1v-1l1,-1v-2h-2l-1,-1l-1,-1v-2h1v-3h-1v-2h-4l-1,-2l-1,-1l-1,1l-2,-4h-1v-1h-2v-2l1,-2h1v-3l1,-1l4,-4l1,-2l1,-1h-2v1h-3l-1,1v-6l-1,-1v-1h-1v1l-2,-2h-2v-1l2,-6h-2v-4v1h-4l-1,-1l-1,-1l-1,-1h-1v-3l1,-1h3v-1l1,-1v-1h1l1,-1v-1h1l-1,-1h-5l-1,-1h1v-2h-1v-1h-1v1h-1l-1,1h-1l-2,-1h-1l-1,-1h-2v-1h-1l-1,-3h-1l-1,-6h-1v-1l-1,-1l3,-6v-1h-1h1v-4l1,-2v-1l-1,-1h-1l1,-3v1h1v-3h1l1,-1l2,-3v-1h-1l-1,1h-1l-1,-1v-5h-1v-1l-1,-3h-1v-1l2,-1v-2l-1,-2v-1h-1v-1l-1,-3l-1,-1v1l-1,-1v-1h-1v-1h-3h1v-1h-1v-5h-1v-1h-1l1,-1v-1h-1l1,-3h-2v-2h-2l1,-1v-2l-1,-1v1h-3v1v-1v1l-1,1v-2h-1l1,-3v-1h-4l-1,-1v-1h-1v-1l-1,1h-1l-1,-3l-1,-1l-1,-2l-1,-1l-1,-2v-1l-1,-1l-1,-1h-1v-4h-1v1l-1,-1v-1h-1l-1,1v-61h1v-42l1,-1v-36l1,-7v-24l1,-13v-34h6l27,1h10l19,1h31l2,1h36l13,1h20l24,1h26l21,1h20l14,1h64l19,1h88l21,1h50l1,3l-1,1l-2,1v1l-2,2l-1,1l1,2h-1l-2,3v3l1,2l2,2l4,1h3l3,-1l2,-3v-2l-1,-5v-1h1v-2l-1,-2h1v-2h7l2,5v2l-1,1h1v1l3,5v2l-4,8l-3,3h-3l-4,6l-2,10v1l2,8l10,1l3,1l2,4l-2,5l-11,5l-3,4l2,11h1v2h2l1,-1h1l1,-1l4,-1l6,-3l2,-3v-2l1,-1l1,-1l4,4l-1,5l-1,1l-2,2l-1,2l-2,1l-5,2l-2,2l1,2l5,3l8,5l3,4l-3,2l-6,-2l-2,-2l-3,-4l-1,-2l-1,-1l-3,-3l-1,1l-3,8v6l4,4l3,2l1,1l3,1l5,1v-1l1,-1h2l1,-1h4l2,1l1,2v2l-3,3h-1l-1,1l-2,5v5l4,2l12,2l2,-2l1,-2l1,-2v5l-1,1v1h-1v2l-1,2l-2,4l-6,3l-2,-3h-2l-1,3v3l1,2l1,2l-2,7l-3,6l-1,-1l-3,-9l-2,-1h-2l-2,4l-1,1l-2,-2h-1l-2,1l-2,1l-2,2h-1l-2,-1l-1,-1v1l-4,2l-1,1l-1,1l-1,4l3,9l2,1l2,1h3l9,-1l2,1h1v-7l-1,-5l5,4h4l-1,6h-1v1l-2,1v3l-1,2l-2,1l-6,3h-1v1l1,5l-3,1h-1l-5,-5l-1,-2h-1l-2,1l-2,1v2l1,1l1,2h2l6,2l5,3v3l-2,2l-1,1l-3,1h-1l-3,1l-5,1h-1l-2,3l-2,1v3l-1,3h2v4l-2,1v1h-2l-1,2l-4,3l-1,2l-1,1h-3l-1,2v2l3,3h1v3l-1,1l-3,2h-1l-3,-7v-3l-1,-1h-1l-2,1h-3l-2,1l-2,2v5l-2,7v5l1,1l4,-1l2,-1l4,-1l3,-1h2l3,2v1l-4,4h-2l-2,-1h-12l-2,2v1l-3,5l-1,4l1,10l-1,4v1l-1,1h-6l-4,-1l-1,-1l-3,-2l-2,-3h-1l-2,3l-1,1v4l1,1l2,2l1,1l1,1h1l1,1h1l3,-1l3,-2l6,1v4l-10,8l-3,1l-1,-1h-1l-4,1h-1l-1,2v1l1,1v13l1,2v1l4,5l2,2l1,2l-1,6h-5l-5,-6l-1,-3v-4l-1,-1h-2v1l-2,1l-1,1v1l-1,2v1l1,2l1,2v-1h3v2l-1,2l1,4l3,2v2h1l2,1l1,1l1,1l-1,4l-1,4l-3,2h-3l-3,1h-1l-3,-1h-10l-2,1v4l2,2l3,1l4,3l2,3l1,2v3l-1,1l-1,2l-2,3l-1,1v1l-2,1v4l2,2l3,2l2,2l4,3v6l-1,3l-2,2l-4,2l-3,1h-1l-2,1h14l30,1h14l26,-1h122l28,-1h30l34,-1h47l1,-1v1l1,1v1l-1,1l1,1l-1,1h-1v1l2,1h-2l-1,1v1l-1,1v6l1,1l-1,1l-2,1v1h1l1,1l-1,1h-1l-1,-1v4l-1,2l2,1l-1,1v2l-1,1v-1h-1v1l-1,1v-1h-1v1h1v2h-1v1h2v1h-1v1h1l-1,2v-1h-2l1,-1h-1v2l-1,1v1h-2l1,1v2h1v-1v1h-2v-1h-1v3h-2v2h-1l1,1v1l1,1h-1v2l1,-1v-1l1,1h-1v2h-1l1,1h-2v1h2l-1,1h-1l1,1v-1h1v1h-1v2h-1v-1h-1v2h-1v1h2v3h-1l-1,1h2v1h-1h1v1h-1l-1,1v1h1v-1h1v1h-1l-1,1h-1v1h2v1h1l1,-1v1h1l1,1v2h1v1h-1v3h-2h2v3l1,1v2h1v1h1h-1v1l1,1v2h3h-1v1h1v-1h1l-1,1l-1,1v-1h-1v2h2l-1,1l1,1h3v1l1,1h-1v1h1v1h1h-1v1h1v1h1v-1v2h1l-1,1h1v1h-1v1l1,-1h1v1h1v1h-1h1v-1l1,1h3v2h1v1h1l1,1v1l1,1l1,1h2v1l1,2h-1v2h1v5v-1l-1,1v1h1v2h1l1,2v1l1,2h1v3l2,2h1l1,1v1l1,1v4h1l-1,1v1h-2v3h-1l1,1h1l1,1v2l1,1v1h-1l3,8v1l1,1h2l2,3l1,1v1l1,1v1h1l1,1h1v-1h2v-2h1l1,-1h1l1,1v1l1,1v1h-6l-5,6l-7,-1l-1,1l-3,3v1h-1v2h-1v1h-1v2h-3v7h-2v1h-4v1h-2v1h-1v2h-1v1h1v1h1v2l1,1v1l-2,1h-1v-1h-1v-1h-1v-1h-1v-1h-2v-1h-10l-1,1l-2,2v1h-1v1h-1v1h-1v2h-2v1l3,11l5,4l19,-4l-6,3v6l8,7l8,3l9,-2l4,-4v-7l4,-9l-2,-6l4,-2l12,-9l1,-7l8,3l-2,14l-4,1l4,7l5,-4l6,6l-6,1l-4,6l9,6v-4l4,-3l1,6l9,3l-18,13h6l8,5h-9l-3,5l-5,-4l1,-4l-5,-4l-2,6l5,9l-5,4l9,7l-6,3l-5,-8h-3l-5,-7l-6,5l-5,-3h-12v8l20,12l-2,-1h-12l-4,-5l-5,4l5,3l-1,5l-16,5l12,14l-3,2l23,12l6,6l-6,1v10l11,2l7,-5l8,2l2,4l6,-3l-2,9l7,1l14,-2l5,2l-1,6l6,1l6,-7l6,6l-2,2l7,4l3,6l-4,4l5,3l-2,4l7,3l-3,9l11,6l-3,5l-3,-5h-7v9h-5l-4,6l2,7l-9,-5l-3,-8l-7,-8l-1,2l1,10l-4,2l-13,13l-7,12h-4l2,-6l20,-27l-2,-6l5,-2v-12l-6,-7l-6,5v11l-3,1l2,-16l-4,9l-2,-11l-7,8h-6l-12,-14l-3,4l-14,-4l9,-1l6,3l1,-3l8,-1l-1,-10l-9,-8l-5,1l-10,-2l2,-4l-4,-6l-18,2l-4,-3l-9,4v-6l-9,4l4,-4l-6,-1l1,-7l4,-2l-6,-3l-5,6l-1,-8l-7,-4l-4,10h-7l-7,-9l-4,2l-16,-12l-5,3l-5,-5l8,-3l4,-7l-1,-14l-4,2l-3,-5l-4,1l-1,13l4,10l-8,1l-4,11l8,9l6,-1l2,5l18,1l-1,4l-1,11h5l-2,5l-6,3l4,4l7,7l-9,-4l-4,2l2,-6l-4,2l-4,-4l5,11l-4,3l3,8l6,5l-1,6l-4,3v1l-16,13l-12,3l2,-8l-6,-3l3,-1l-10,-20v-4l-6,-2l2,-4l-5,-7l-6,7l2,5l-2,6l-5,3v-4l1,-3v-12l-4,-2l-1,-6l-6,3l2,4l-9,6l1,-12l-5,-2l1,9l2,-4v8l-4,-2v5l-8,-2l5,-2l-11,-2l2,13l2,1l3,4l-9,-5v8l-4,-3l-4,-3l2,11l-3,-2l-5,7v7h-4l-5,-2v5l-8,3l1,-7l-7,4v-6ZM878,710l2,1l8,-3l1,8ZM889,649l-1,-3l8,-7l3,12l5,1l-7,6l1,-5l-15,-2ZM812,799l3,2l9,-2l5,6l-10,8l-7,1l-18,-2l8,-5ZM790,810l2,-8l5,4ZM744,771l12,7l-11,-3l-4,5l-3,-8ZM607,853l-1,6h-9ZM590,834l-2,6l-4,4l-4,-3l4,-6ZM576,833l7,5l-5,7l-8,-1v-5h6l-5,-4l2,-6ZM511,814v1h1v1l1,-1v1h5v-1h2l1,-1v-2h2v-2l1,-3v-2l3,-1l1,-1h1l5,10l5,4l6,-5l-2,11h-7l3,3l4,-2v7l6,-4l1,7h-13l-16,-7l-10,-10ZM409,746l10,1l3,5l8,2l2,4h6l6,4l-12,7v8l-10,3l-6,-5l-5,-1l-26,-13l6,-10h10l1,-5Z"/>
<g class="geos"><path data-name="Calcasieu" class="geo-019" d="M74,654l1,-4l1,1v2h1l1,-1v-1l-1,-1h-2l-3,-5l1,2l1,-1v-1l1,-2l1,-1v-1h1l1,-1l-1,-1v-1h1v-3h1v1h1l1,-1h-1l-1,-3h-1v1h-1v-1l1,-2l1,-2v-1h-2l1,-1h-1v-1l-1,-1v-1l1,1l1,-1h-2l-1,-1h1v-2l-1,1v-2l1,-1v-1h1h-1l1,-1v-1h1l-1,-1h1v-1h-1l1,-1h-1l1,-1v-2h-1l1,-1h-1h1h-1v-1h1l-1,-1v1h1v-4h-1l-1,-1h-2v-1h-2v-1h-1v-2h-1v-2h-1v-2h-1v1l-1,-1v-1h1v-1h-1v-1l1,1l-1,-1l1,-1v-2v1h1l1,-1h-1l-1,-2h1v1v-4l-1,-1h1h-1l1,-1h1v-1h1l1,-1h27l20,1v-18h19l-1,18l13,1h33v5h18v25h6v22l19,1l-3,9l4,7h-20v8h-25v-3h-51l-13,-1Z"/><path data-name="Union" class="geo-111" d="M264,28h20l14,1h64l19,1l-2,5l-1,24l5,5l-2,26l-6,9l-22,16l-5,5h-30v-19h-18v-11h-5l-3,-6l-11,-2h-18l1,-20Z"/><path data-name="Tangipahoa" class="geo-105" d="M652,530v-66l-1,-8h12l28,-1l1,20l6,4l3,9v1l1,6l1,2v2l1,2v1l1,1l2,2v3l1,1v2l1,3v2h-1l1,3v3l1,1v6l1,1v4l-1,3v3l1,21l1,30l10,11l5,15l-24,-11l-12,-1l-3,3l-21,1v-11l2,-6l-5,-1v-6l-6,-8l-3,-10l-3,-2v-9Z"/><path data-name="Caldwell" class="geo-021" d="M336,212v-28l27,1l2,4h8v-4h20v10l3,2l-5,4h4l1,7l15,1l1,2l3,14l-10,3l6,7l1,15l-2,9h-75l1,-25Z"/><path data-name="Tensas" class="geo-107" d="M484,201h30l10,-4l5,2l8,-7l11,-1l1,8l-1,-1v1l-4,2l-1,1l-1,1l-1,4l3,9l2,1l2,1h3l9,-1l2,1h5v3l-1,2l-2,1l-6,3h-1v1l1,5l-3,1h-1l-5,-5l-1,-2h-1l-2,1l-2,1v2l1,1l1,2h2l6,2l5,3v3l-2,2l-1,1l-3,1h-1l-3,1l-5,1h-1l-2,3l-2,1v3l-1,3h2v4l-2,1v1h-2l-1,2l-4,3l-1,2l-1,1h-3l-1,2v2l3,3h1v3l-1,1l-3,2h-1l-3,-7v-3l-1,-1h-1l-2,1h-3l-2,1l-2,2v5l-2,7v5l1,1l4,-1l2,-1l4,-1l3,-1h2l3,2v1l-4,4h-2l-2,-1h-12l-2,2v1v-3l-30,-1l-5,-7v-21l1,-3l10,-7l-3,-6l2,-6l4,-1l-2,-6l3,-15l-4,-1l1,-11l3,-2Z"/><path data-name="Jackson" class="geo-049" d="M254,146l27,1v-10l10,1h27v19l15,15l3,3v37h-56v-1h-34l-1,-3l4,-4v-6l4,-4l1,-1Z"/><path data-name="Grant" class="geo-043" d="M216,304l12,1h52v-19h47l2,5l-1,10l-3,6v15l-3,2l5,4l9,3l1,11l5,1l-1,8l12,1l3,2l-17,4l-24,6l-44,9l-6,-4l3,-9h-5l4,-5l-6,-9l-12,-13l-2,-5l-8,-1l-3,-3l-9,-2l2,-8l-5,-3h-6Z"/><path data-name="Lincoln" class="geo-061" d="M254,146h-19l1,-2v-26l2,-4v-4l1,-3v-1l-1,-3v-7l2,-1h1v-1l4,-3v-9h36l11,2l3,6h5v11h18v37h-27l-10,-1v10Z"/><path data-name="Jefferson Davis" class="geo-053" d="M183,581v-5h13v-2h43l10,1v-12l27,1l-1,1l6,11l-2,10l-3,3v30l7,5l-7,12v12l-21,11h-40l-8,-1v-8h20l-4,-7l3,-9l-19,-1v-22h-6v-25h-18Z"/><path data-name="Lafayette" class="geo-055" d="M338,636l7,-6l-1,-5l7,-3l1,-5h6v-6l6,-6l10,-8v-5l6,-4l3,3l10,-1l6,2l-3,7l3,11l-1,13h-4l-1,7h13v7l-5,8l-2,8l-3,8l-19,-8l-4,-11l-7,1l-12,-5h-16Z"/><path data-name="Vermilion" class="geo-113" d="M338,636v2h16l12,5l7,-1l4,11l19,8l-4,9l2,34l-1,7l-8,3l-16,9l-6,6l4,-10l-4,-2l-6,4l-5,-1l2,7l8,6l9,-1l-6,6l4,12l11,-1l4,-3l3,4l-11,3l5,4h-21l-10,4l-10,6h-10l-15,-4l-23,-3l-16,-3l1,-14v-84h-22l21,-11l8,-1l2,-4l8,2l2,6l17,6l7,-2l10,-9l1,-4Z"/><path data-name="East Carroll" class="geo-035" d="M524,31h16l1,3l-1,1l-2,1v1l-2,2l-1,1l1,2h-1l-2,3v3l1,2l2,2l4,1h3l3,-1l2,-3v-2l-1,-5v-1h1v-2l-1,-2h1v-2h7l2,5v2l-1,1h1v1l3,5v2l-4,8l-3,3h-3l-7,7l1,9v1l-2,7l4,1l10,1l3,1l2,4l-13,10l-3,4l-1,5l3,6h1v2h2l1,-1h1l1,-1l4,-1l6,-3l2,-3v-2l1,-1l1,-1l4,4l-1,5l-1,1l-2,2l-1,2l-2,1l-5,2h-7l-4,6h-58l4,-4l-2,-5l6,-5l2,-19l5,-1v-5l5,-7v-22l5,-2l1,-15l6,-3Z"/><path data-name="East Feliciana" class="geo-037" d="M540,459l1,-3h64l-7,12l3,12l-2,3l3,5v24l-1,3l-22,2l-52,2l-7,8l-1,4l-3,-1v-12l4,-1l1,-8l9,-8v-7l2,-13l6,-10l-1,-7Z"/><path data-name="St. Bernard" class="geo-087" d="M765,670h6l12,-4l3,11l5,4l19,-4l-6,3v6l8,7l8,3l9,-2l4,-4v-7l4,-9l-2,-6l4,-2l12,-9l1,-7l8,3l-2,14l-4,1l4,7l5,-4l6,6l-6,1l-4,6l9,6v-4l4,-3l1,6l9,3l-18,13h6l8,5h-9l-3,5l-5,-4l1,-4l-5,-4l-2,6l5,9l-5,4l9,7l-6,3l-5,-8h-3l-5,-7l-6,5l-5,-3h-12v8l20,12l-2,-1h-1l-12,-4l-6,-6l-5,-2l-1,-5l-5,-4l-12,1l-5,-9l-11,2l-5,-8l-3,-8l2,-5l-6,-7l-5,1l-9,-5l3,-9ZM878,710l2,1l8,-3l1,8ZM889,649l-1,-3l8,-7l3,12l5,1l-7,6l1,-5l-15,-2Z"/><path data-name="Iberville" class="geo-047" d="M445,563h22v3l8,-3h10l5,5l11,14v3l7,3l6,7l2,5h32l21,1l-6,22l-6,16l-3,7v10l-22,7l-7,-6h-19l-4,-10h-13l-1,-16l-4,-4l2,-8l-16,-2l-11,-14v-9l-4,-3l4,-4l-3,-12Z"/><path data-name="Richland" class="geo-083" d="M457,103h8v18h27l2,5l-4,4l-5,7l2,10l-2,4l2,7h-29l-11,7l-1,6l-11,2v8l-3,4l1,6l-7,7l-3,8l-9,1l-2,4l-1,-2l-15,-1l-1,-7h-4l5,-4l-3,-2v-10h-7l5,-10v-9l2,-8l10,-9v-6l5,-6l3,-7h3l7,4l4,-11l8,3l7,-2v-5l5,-5h7Z"/><path data-name="St. Martin" class="geo-099" d="M487,678l40,-3l4,12l5,3l1,8l4,4l9,2l6,5l1,15h-3l1,8l-6,-5l-10,-2l-5,-3l-15,-4h-10l-6,-3l2,-12l-8,-14ZM393,590l1,-8l8,3l2,-1l13,-3l7,4h25l-8,-12h-3l-3,-10h10l11,12l3,12l-4,4l4,3v9l11,14l16,2l-2,8l4,4l1,16h13l4,10h-22l-4,5h-17l-1,-7l-4,-1l-6,-9l-16,-2l-13,16l-11,-5l-13,-1l2,-8l5,-8v-7h-13l1,-7h4l1,-13l-3,-11l3,-7Z"/><path data-name="Claiborne" class="geo-027" d="M217,27h26l21,1v34l-1,20h-18v9l-4,3v1h-1l-2,1v7l1,3v1l-1,3v4l-2,4h-43l-11,-1l-1,-1v-1h1v-7l1,-1l-1,-1v-5h-1v-12h-9v-37l1,-1v-25h20Z"/><path data-name="Evangeline" class="geo-039" d="M282,477h8l1,-1h1l1,1h2l2,1h1l1,-1l4,-3v-8l19,-9l10,4l-1,3l9,-1v7l8,9v9h4l1,13l6,4v20l-5,3l-2,9v11h-9l-1,6h-31l-2,1l-4,8l-5,3l-25,-1l1,-1l8,-17l-3,-3v-47Z"/><path data-name="St. Landry" class="geo-097" d="M352,548v-11l2,-9l5,-3v-20l-6,-4l-1,-13h73l1,7l6,6l3,11l4,6l-1,17l-3,5v11l4,6l-4,6l3,10h3l8,12h-25l-7,-4l-13,3l-2,1l-8,-3l-1,8l-10,1l-3,-3l-6,4v5l-10,8l-3,-9l-3,-2v-18h-12v-10h-46l5,-3l4,-8l2,-1h31l1,-6Z"/><path data-name="Pointe Coupee" class="geo-077" d="M512,528l3,7l-8,8v5h-7l-3,12l-12,1v2h-10l-8,3v-3h-32l4,-6l-4,-6v-11l3,-5l1,-17l-4,-6l-3,-11l-6,-6l-1,-7l2,-3v-22l9,-10l15,1l2,4l-1,4l3,8l-3,9v9l5,2h14l-2,-11l-8,-1v-4h11l5,4l2,10l-6,15l-8,3v4l5,4l12,-3l7,1v1v-1v1l12,-5l5,1l3,8Z"/><path data-name="LaSalle" class="geo-059" d="M335,259h56v78l-1,4v46l-3,-4l-8,4l-4,-2l1,-6l-6,-3l-6,-6l-2,-14l-6,-2l-3,-2l-12,-1l1,-8l-5,-1l-1,-11l-9,-3l-5,-4l3,-2v-15l3,-6l1,-10l-2,-5l4,-3l3,-11Z"/><path data-name="Webster" class="geo-119" d="M131,78v-1l-1,-1v-1l1,-6l3,-8l-3,-7l-1,-10l-4,1l-3,-5l-2,-5v-2v1v-4l1,-6l2,1h36l13,1v25l-1,1v37h9v12h1v5l1,1l-1,1v7h-1v1l1,1v5l1,1v5l1,5l3,9v3h-16v10l-25,-1h-11l-1,-18v-26l1,-6v-25Z"/><path data-name="St. James" class="geo-093" d="M589,644l29,-6l21,-5l-2,15l-3,1l2,8l-5,5l4,10v16l2,3l-6,-2l-5,1l-2,-3l-11,-2v3l-18,1v-7l-8,1v-10h-6l-1,-18Z"/><path data-name="Plaquemines" class="geo-075" d="M756,690l6,-3l8,3l4,5l3,8l5,8l11,-2l5,9l12,-1l5,4l1,5l5,2l6,6l12,4h-11l-4,-5l-5,4l5,3l-1,5l-16,5l12,14l-3,2l23,12l6,6l-6,1v10l11,2l7,-5l8,2l2,4l6,-3l-2,9l7,1l14,-2l5,2l-1,6l6,1l6,-7l6,6l-2,2l7,4l3,6l-4,4l5,3l-2,4l7,3l-3,9l11,6l-3,5l-3,-5h-7v9h-5l-4,6l2,7l-9,-5l-3,-8l-7,-8l-1,2l1,10l-4,2l-13,13l-7,12h-4l2,-6l20,-27l-2,-6l5,-2v-12l-6,-7l-6,5v11l-3,1l2,-16l-4,9l-2,-11l-7,8h-6l-12,-14l-3,4l-14,-4l9,-1l6,3l1,-3l8,-1l-1,-10l-9,-8l-5,1l-10,-2l2,-4l-4,-6l-18,2l-4,-3l-9,4v-6l-9,4l4,-4l-6,-1l1,-7l4,-2l-6,-3l-5,6l-1,-8l-7,-4l-4,10h-7l-1,-17l-1,-6l2,-5l-5,-7l-2,-11l-6,-7l-4,-5l-2,-8l1,-13l8,-5ZM812,799l3,2l9,-2l5,6l-10,8l-7,1l-18,-2l8,-5ZM790,810l2,-8l5,4Z"/><path data-name="Morehouse" class="geo-067" d="M381,30h88l21,1h3v4l-7,10l-6,13h-6l-4,5l-1,6l-5,7l1,10l-7,6l2,8l-3,3l-5,11h-7l-5,5v5l-7,2l-8,-3l-4,11l-7,-4h-3l-3,7l-2,-17l-3,-1l4,-7l1,-9h-6l-4,-9l-10,1l-3,3l-4,-8l2,-26l-5,-5l1,-24Z"/><path data-name="Rapides" class="geo-079" d="M356,354l6,2l2,14l6,6l6,3l-1,6l-9,7l-7,-1l-4,-5h-1l-5,1v40l2,24l3,12h-14l-9,1l1,-3l-10,-4l-19,9v8l-4,3l-1,1h-1l-2,-1h-2l-1,-1h-1l-1,1h-8l-22,-1l-1,2h-18v-25h-1v-52l-8,-8v-6l-10,-1l-8,-5h5v-4h7v-5h5l3,-6l10,-5l7,-8l10,-7l6,9l-4,5h5l-3,9l6,4l44,-9l24,-6Z"/><path data-name="Avoyelles" class="geo-009" d="M354,386h1l4,5l7,1l9,-7l4,2l8,-4l3,4l2,6l-5,2l8,14l3,-5l6,3l-3,-7l2,-6h9l5,6h4l10,9h4l4,5l5,-2l5,2v8l-5,1l-2,14l2,5l-3,5l-5,6l-9,10v22l-2,3h-77v-9l-8,-9v-7h14l-3,-12l-2,-24v-40Z"/><path data-name="Winn" class="geo-127" d="M231,245l2,-6v-1l-1,-3l-1,-1v-3l-1,-7l-1,-1l-1,-2l-1,-1v-1l-1,-1l-1,-2v-1h-1l1,-1l-1,-2l-1,-1h57v1h56v22l-1,25l-1,13l-3,11l-4,3h-47v19h-52l-12,-1l1,-12l3,-4l1,-15h9l-1,-6l4,-15Z"/><path data-name="Vernon" class="geo-115" d="M167,376l6,1h31l8,1l2,3l8,5l10,1v6l8,8v52h1v28h-28l-29,-1v-1h-33l-19,-1l-9,4l-13,-4l-3,3h-1v-2l-1,1l-1,-1v-3h1v-1l1,-1h3h-1v-2h-1v-1l1,-1v-1h1v-1h1v2l1,-1h1l1,-1v-3h-1v-3h1h-1v-1l-2,1v-1h-1v-1h-1l-1,-1l-1,1l-2,-1l1,-1l1,-1v-3h-2v-2h1v-2h1v1h5v-1l1,-1l1,-1h2l1,-1h1v-1h-2v-1h-1v-1h1v-1h-1l-1,-1v-1h2v-2h-1l-1,-1h1v-1h-2v-1h-3v-2h1h-3v-1l1,-1h2v-3l2,-2v-1l-1,-1v-1l-1,-2v-2h2v-1l-1,-1v-2h2v-2h-4l1,-12l3,-8h17l10,-18Z"/><path data-name="Catahoula" class="geo-025" d="M469,269v21l5,7v6l-11,-8l-6,7l-7,-3l-4,3l-2,10l1,8l-7,6l-6,-7l-9,10v7l9,9l-5,8l3,4h9l1,8l-14,-2l-2,-10l-6,-3l-2,5l1,11l7,7h7l1,3h-12l-4,4l-1,11l8,2l-2,7h-4l-5,-6h-9l-2,6l3,7l-6,-3l-3,5l-8,-14l5,-2l-2,-6v-46l1,-4v-78h19l2,-9l8,3l7,13l14,3l8,-9h2l4,-9h10v18Z"/><path data-name="Assumption" class="geo-007" d="M554,656h3v-4l7,2l8,-2l8,3l1,18h6v10l8,-1v13h-5l-3,9l-8,16l-7,9l-13,19l-5,-4l1,-12l-1,-8h3l-1,-15l-6,-5l-9,-2l-4,-4l-1,-8l-5,-3l-4,-12l-1,-6h4l2,-6Z"/><path data-name="De Soto" class="geo-031" d="M59,185l1,-5l1,-3h1l6,-4v-1l7,-5h4l1,2v1v-1l4,4h11l7,9v8l8,9h7l2,12l2,2l-5,4l6,11l4,1l-1,5l9,10h6l5,5l3,7l-7,2l-5,-3l-2,3l-1,1v3l-1,12l-5,-1h-42l-2,-1h-31l1,-1v-1h-1l1,-3h-2v-2h-2l1,-1v-2l-1,-1v1h-3v1v-1v1l-1,1v-2h-1l1,-3v-1h-4l-1,-1v-1h-1v-1l-1,1h-1l-1,-3l-1,-1l-1,-2l-1,-1l-1,-2v-1l-1,-1l-1,-1h-1v-4h-1v1l-1,-1v-1h-1l-1,1v-42h18l4,-5l2,-1h1l5,-3l1,-1l2,-2h1Z"/><path data-name="Caddo" class="geo-017" d="M26,138v-1l1,-1v-36l1,-7v-24l1,-13v-34h6l27,1h8l-1,12l-5,4l8,3l-4,7l7,8l-3,12l3,7l-8,8v5l8,-2l-2,10l3,-1l4,16l3,3l-6,10l6,7l6,3v10l6,5l-5,1l11,6l1,9h6l11,8l1,9l4,1l4,7l-26,-1v-8l-7,-9h-11l-4,-4v1v-1l-1,-2h-4l-7,5v1l-6,4h-1l-1,3l-1,5v1h-1l-2,2l-1,1l-5,3h-1l-2,1l-4,5h-18v-19h1v-40Z"/><path data-name="Red River" class="geo-081" d="M102,190l26,1h47v10l4,3v7l5,7v7l3,6l-1,2l-2,5l-1,1l2,1l5,8l-21,-1v15l-5,2h-14l-2,-8l-3,-7l-5,-5h-6l-9,-10l1,-5l-4,-1l-6,-11l5,-4l-2,-2l-2,-12h-7Z"/><path data-name="Washington" class="geo-117" d="M721,455l9,-1h72l1,-1v1l1,1v1l-1,1l1,1l-1,1h-1v1l2,1h-2l-1,1v1l-1,1v6l1,1l-1,1l-2,1v1h1l1,1l-1,1h-1l-1,-1v4l-1,2l2,1l-1,1v2l-1,1v-1h-1v1l-1,1v-1h-1v1h1v2h-1v1h2v1h-1v1h1l-1,2v-1h-2l1,-1h-1v2l-1,1v1h-2l1,1v2h1v-1v1h-2v-1h-1v3h-2v2h-1l1,1v1l1,1h-1v2l1,-1v-1l1,1h-1v2h-1l1,1h-2v1h2l-1,1h-1l1,1v-1h1v1h-1v2h-1v-1h-1v2h-1v1h2v3h-1l-1,1h2v1h-1h1v1h-1l-1,1v1h1v-1h1v1h-1l-5,1h-24l-13,-4l-14,-1l-19,-5v-2l-1,-3v-2l-1,-1v-3l-2,-2l-1,-1v-1l-1,-2v-2l-1,-2l-1,-6v-1l-3,-9l-6,-4l-1,-20h29Z"/><path data-name="Sabine" class="geo-085" d="M132,274v27l18,1v37h18v27l-1,10h-27l-10,18h-17l-3,8l-1,12h-2l-1,1h-1v2h-2v1h-1v-2l-1,-1v-5l-1,-2h1v-1l1,-1v-2h-2l-1,-1l-1,-1v-2h1v-3h-1v-2h-4l-1,-2l-1,-1l-1,1l-2,-4h-1v-1h-2v-2l1,-2h1v-3l1,-1l4,-4l1,-2l1,-1h-2v1h-3l-1,1v-6l-1,-1v-1h-1v1l-2,-2h-2v-1l2,-6h-2v-4v1h-4l-1,-1l-1,-1l-1,-1h-1v-3l1,-1h3v-1l1,-1v-1h1l1,-1v-1h1l-1,-1h-5l-1,-1h1v-2h-1v-1h-1v1h-1l-1,1h-1l-2,-1h-1l-1,-1h-2v-1h-1l-1,-3h-1l-1,-6h-1v-1l-1,-1l3,-6v-1h-1h1v-4l1,-2v-1l-1,-1h-1l1,-3v1h1v-3h1l1,-1l2,-3v-1h-1l-1,1h-1l-1,-1v-5h-1v-1l-1,-3h-1v-1l2,-1v-2l-1,-2v-1h-1v-1l-1,-3l-1,-1v1l-1,-1v-1h-1v-1h-3h1v-1h-1v-5h-1v-1h30l2,1h42Z"/><path data-name="Jefferson" class="geo-051" d="M706,666v-17l3,-16l19,-6l9,5l-2,40v1l-1,1v1l-1,2h-1v7l3,2l10,-2l2,-4l9,10l-3,8l-8,5l-1,13l2,8l4,5l6,7l2,11l5,7l-2,5l1,6l1,17l-7,-9l-4,2l-16,-12l-5,3l-5,-5l8,-3l4,-7l-1,-14l-4,2l-3,-5l-4,1l-10,-2l5,-13l3,-6l2,-10l-13,-8l-6,-11l-1,-10ZM744,771l12,7l-11,-3l-4,5l-3,-8Z"/><path data-name="St. Tammany" class="geo-103" d="M711,561l-1,-21v-3l1,-3v-4l-1,-1v-6l-1,-1v-3l-1,-3h1l19,5l14,1l13,4h24l5,-1l-1,1h-1v1h2v1h1l1,-1v1h1l1,1v2h1v1h-1v3h-2h2v3l1,1v2h1v1h1h-1v1l1,1v2h3h-1v1h1v-1h1l-1,1l-1,1v-1h-1v2h2l-1,1l1,1h3v1l1,1h-1v1h1v1h1h-1v1h1v1h1v-1v2h1l-1,1h1v1h-1v1l1,-1h1v1h1v1h-1h1v-1l1,1h3v2h1v1h1l1,1v1l1,1l1,1h2v1l1,2h-1v2h1v5v-1l-1,1v1h1v2h1l1,2v1l1,2h1v3l2,2h1l1,1v1l1,1v4h1l-1,1v1h-2v3h-1l1,1h1l1,1v2l1,1v1h-1l3,8v1l1,1h2l2,3l1,1v1l1,1v1h1l1,1h1v-1h2v-2h1l1,-1h1l1,1v1l1,1v1h-6l-5,6l-7,-1l-12,-4l-6,3l-5,-3l-4,4l-5,-1l-9,-6l-10,-1l-14,5l-8,4h-12l-4,-2l-9,-5l-1,-10l-5,-15l-10,-11Z"/><path data-name="Cameron" class="geo-023" d="M207,658l8,1h62v84l-1,14l-17,-6l-37,-17l-21,-10l-18,-7l-18,-4h-13l-10,4l-18,-3l-18,1l-5,2l-33,3l-18,10l-5,-10l-1,-1l-1,-1l-1,-3v-1l-2,-2l-1,-1l-4,-8l10,-8h1v-1h1l2,-3h1v-1l6,-8l1,-7l5,-9l1,-1h1v-1h1l2,-2l3,-3v-1l1,-1v-1l3,-2h44l13,1h51v3Z"/><path data-name="East Baton Rouge" class="geo-033" d="M535,558l-13,4l-1,-3l8,-4l-4,-8h-9l-1,-5l5,-7l-1,-4l1,-4l7,-8l52,-2l22,-2v4l-9,7l-3,5l-11,11l1,18l-1,9h-3l2,10l7,6l1,6l6,1l2,4h-19l-5,5l-21,-1l-10,-5h-9l8,-16v-19Z"/><path data-name="Iberia" class="geo-045" d="M396,661l3,-8l13,1l11,5l13,-16l16,2l6,9l4,1l1,7h17l4,-5h41l7,6l-2,6h-4l1,6l-40,3l-28,2l-17,23l-7,4l-19,17l-4,-1l5,-12l5,4v-10l-14,-1l-3,4l-11,-4l-2,-34ZM409,746l10,1l3,5l8,2l2,4h6l6,4l-12,7v8l-10,3l-6,-5l-5,-1l-26,-13l6,-10h10l1,-5Z"/><path data-name="Natchitoches" class="geo-069" d="M132,274l1,-12v-3l1,-1l2,-3l5,3l7,-2l2,8h14l5,-2v-15l21,1l-5,-8l-2,-1l1,-1l2,-5l1,-2l-3,-6v-7l-5,-7h44l1,1l1,2l-1,1h1v1l1,2l1,1v1l1,1l1,2l1,1l1,7v3l1,1l1,3v1l-2,6l2,7l-4,15l1,6h-9l-1,15l-3,4l-1,12l2,7h6l5,3l-2,8l9,2l3,3l8,1l2,5l12,13l-10,7l-7,8l-10,5l-3,6h-5v5h-7v4h-5l-2,-3l-8,-1h-31l-6,-1l1,-10v-27h-18v-37l-18,-1Z"/><path data-name="Terrebonne" class="geo-109" d="M627,739l4,5l7,8l7,1l1,5l7,4l9,12l12,12l7,11l7,5l1,15l-4,8v-11l-4,-2l-1,-6l-6,3l2,4l-9,6l1,-12l-5,-2l1,9l2,-4v8l-4,-2v5l-8,-2l5,-2l-11,-2l2,13l2,1l3,4l-9,-5v8l-4,-3l-4,-3l2,11l-3,-2l-5,7v7h-4l-5,-2v5l-8,3l1,-7l-7,4v-6l-4,2l-1,2l-10,1l-9,-9l6,-9l9,2l8,-8l-7,-5l-5,2l-9,-7l6,1l-1,-4l-5,2l4,-9l-9,-2l-10,6l15,12l-10,5l-3,-3l-8,10l1,-8l-5,-1l3,11h-8l-7,-7l2,-8l-3,-6l17,-4l-2,-5l5,1l1,-4l-10,-3l-4,3l7,4l1,5l-6,-1l-5,3l-3,-10l-12,-6l-5,-6l2,-5l-1,-3l-1,-1h-3l-2,-2h-1l-1,-3v-17l5,-2l1,-1l1,-2v-1l1,-3v-1l6,-5l5,4l3,-4l11,-3l13,-19h24v-6l7,-1l3,-6h3l1,6l7,11ZM511,814v1h1v1h1v-1v1h5l1,-1h1l1,-1v-2h2v-2l1,-3v-2l3,-1l1,-1h1l5,10l5,4l6,-5l-2,11h-7l3,3l4,-2v7l6,-4l1,7h-13l-16,-7l-10,-10ZM607,853l-1,6h-9ZM590,834l-2,6l-4,4l-4,-3l4,-6ZM576,833l7,5l-5,7l-8,-1v-5h6l-5,-4l2,-6Z"/><path data-name="Bienville" class="geo-013" d="M187,142l-3,-9l-1,-5v-5l-1,-1v-5l11,1h43v26l-1,2h19v47l-1,1l-4,4v6l-4,4l1,3h-67v-7l-4,-3v-10h-39l4,-2l-2,-8l1,-11l2,-7l-4,-2l1,-5l5,1l3,-3l25,1v-10h16Z"/><path data-name="Bossier" class="geo-015" d="M70,23h2l19,1h31l-1,6v4v-1v2l2,5l3,5l4,-1l1,10l3,7l-3,8l-1,6v1l1,1v1l4,1v25l-1,6v26l1,18h11l-3,3l-5,-1l-1,5l4,2l-2,7l-1,11l2,8l-4,2h-8l-4,-7l-4,-1l-1,-9l-11,-8h-6l-1,-9l-11,-6l5,-1l-6,-5v-10l-6,-3l-6,-7l6,-10l-3,-3l-4,-16l-3,1l2,-10l-8,2v-5l8,-8l-3,-7l3,-12l-7,-8l4,-7l-8,-3l5,-4Z"/><path data-name="Allen" class="geo-003" d="M282,477l-1,20v47l3,3l-8,17l-27,-1v12l-10,-1h-43v2h-13l1,-36h28l1,-23v-36h28v-3h18l1,-2Z"/><path data-name="Ouachita" class="geo-073" d="M381,90l4,8l3,-3l10,-1l4,9h6l-1,9l-4,7l3,1l2,17l-5,6v6l-10,9l-2,8v9l-5,10h-13v4h-8l-2,-4l-27,-1v-9l-3,-3l-15,-15v-37h30l5,-5l22,-16Z"/><path data-name="St. John the Baptist" class="geo-095" d="M639,633l2,-12l7,3l9,2l6,-5l4,-12l21,-1l3,-3l12,1l24,11l1,10l-19,6l-12,3l-4,7l-9,7l-9,11h-4l-12,3l-2,11h3l1,17l-5,-2l-19,1l-2,-3v-16l-4,-10l5,-5l-2,-8l3,-1Z"/><path data-name="St. Helena" class="geo-091" d="M599,483l2,-3l-3,-12l7,-12h46l1,8v66h-61l-2,1l3,-5l9,-7v-4l1,-3v-24Z"/><path data-name="West Feliciana" class="geo-125" d="M452,462l5,-6h14l5,1h39l26,-1l-1,3l-3,5l1,7l-6,10l-2,13v7l-9,8l-1,8l-4,1v12l-4,-2l-3,-11l-3,-8l-5,-1l-12,5v-1v1v-1l-7,-1l-12,3l-5,-4v-4l8,-3l6,-15l-2,-10l-5,-4h-11v4l8,1l2,11h-14l-5,-2v-9l3,-9ZM436,453l5,-6l14,1l-2,10l-2,-4Z"/><path data-name="St. Mary" class="geo-101" d="M416,724l19,-17l7,-4l17,-23l28,-2l10,11l8,14l-2,12l6,3h10l15,4l5,3l10,2l6,5l-1,12l5,4l-11,3l-3,4l-5,-4l-6,5h-4v7l-5,2l-2,7l-5,4l-8,1l-1,-5l-9,-2l-5,1l4,-7l-12,1l-15,6l5,-6l-6,-20l-16,2l4,-6v-18l-18,1l-2,-2l-9,1l-12,8l-6,-1Z"/><path data-name="Lafourche" class="geo-057" d="M572,729l7,-9l8,-16l3,-9h5v-6l18,-1v-3l11,2l2,3l5,-1l6,2l19,-1l5,2l5,5l6,13l7,6l10,2l3,6v7l3,2h21l10,2l-1,13l4,10l-8,1l-4,11l8,9l6,-1l2,5l18,1l-1,4l-1,11h5l-2,5l-6,3l4,4l7,7l-9,-4l-4,2l2,-6l-4,2l-4,-4l5,11l-4,3l3,8l6,5l-5,6v4l-16,13l-12,3l2,-8l-6,-3l3,-1l-10,-20v-4l-6,-2l2,-4l-5,-7l-6,7l2,5l-2,6l-5,3v-4l1,-3v-1l4,-8l-1,-15l-7,-5l-7,-11l-12,-12l-9,-12l-7,-4l-1,-5l-7,-1l-7,-8l-4,-5l-10,-6l-7,-11l-1,-6h-3l-3,6l-7,1v6Z"/><path data-name="West Carroll" class="geo-123" d="M493,31h31l-2,11l-6,3l-1,15l-5,2v22l-5,7v5l-5,1l-2,19l-6,5h-27v-18h-8l3,-3l-2,-8l7,-6l-1,-10l5,-7l1,-6l4,-5h6l6,-13l7,-10Z"/><path data-name="Concordia" class="geo-029" d="M474,297l30,1v3l-3,5l-1,4l1,10l-1,4v1l-1,1h-6l-4,-1l-1,-1l-3,-2l-2,-3h-1l-2,3l-1,1v4l1,1l2,2l1,1l1,1h1l1,1h1l3,-1l3,-2l6,1v4l-10,8l-3,1l-1,-1h-1l-4,1h-1l-1,2v1l1,1v13l1,2v1l4,5l2,2l1,2l-1,6h-5l-5,-6l-1,-3v-4l-1,-1h-2v1l-2,1l-1,1v1l-1,2v1l1,2l1,2v-1h3v2l-1,2l1,4l3,2v2h1l2,1l1,1l1,1l-1,4l-1,4l-3,2h-3l-3,1h-1l-3,-1h-10l-2,1v4l2,2l3,1l4,3l2,3l1,2v3l-1,1l-1,2l-2,3l-1,1v1l-2,1v4l2,2l3,2l2,2l4,3v6l-1,3l-2,2l-4,2l-3,1h-1l-2,1l-5,6l1,-4l2,-10l-14,-1l3,-5l-2,-5l2,-14l5,-1v-8l-5,-2l-5,2l-4,-5h-4l-10,-9l2,-7l-8,-2l1,-11l4,-4h12l-1,-3h-7l-7,-7l-1,-11l2,-5l6,3l2,10l14,2l-1,-8h-9l-3,-4l5,-8l-9,-9v-7l9,-10l6,7l7,-6l-1,-8l2,-10l4,-3l7,3l6,-7l11,8Z"/><path data-name="Livingston" class="geo-063" d="M589,531l2,-1h61v35l3,2l3,10l6,8v6l5,1l-2,6v11l-4,12l-6,5l-9,-2l-7,-3l-3,-2l-6,5l-2,7l-4,-2l-6,-12l-8,-3l1,-5h-6l-3,-10l-4,-3h-7l-2,-4l-6,-1l-1,-6l-7,-6l-2,-10h3l1,-9l-1,-18Z"/><path data-name="West Baton Rouge" class="geo-121" d="M512,528l4,2l3,1l1,4l-5,7l1,5h9l4,8l-8,4l1,3l13,-4l2,2v19l-8,16h9l10,5h-32l-2,-5l-6,-7l-7,-3v-3l-11,-14l-5,-5v-2l12,-1l3,-12h7v-5l8,-8Z"/><path data-name="Madison" class="geo-065" d="M490,130h58l4,-6h7l-2,2l1,2l5,3l8,5l3,4l-3,2l-6,-2l-2,-2l-3,-4l-1,-2l-1,-1l-3,-3l-1,1l-3,8l-1,5l5,5l3,2l1,1l3,1l5,1v-1l1,-1h2l1,-1h4l2,1l1,2v2l-3,3h-1l-1,1l-2,5v5l4,2l12,2l2,-2l1,-2l1,-2v5l-1,1v1h-1v2l-1,2l-2,4l-6,3l-2,-3h-2l-1,3v3l1,2l1,2l-2,7l-3,6l-1,-1l-3,-9l-2,-1h-2l-2,4l-1,1l-2,-2h-1l-2,1l-2,1l-2,2h-1l-2,-1l-1,-8l-11,1l-8,7l-5,-2l-10,4h-39l4,-7l-2,-3v-11l11,-3l-2,-9l5,-1l-5,-5l1,-4l-2,-7l2,-4l-2,-10ZM567,210h4l-1,6h-1v1l-2,1h-4v-7l-1,-5Z"/><path data-name="Orleans" class="geo-071" d="M732,678v-1h1l1,-2v-1l1,-1v-1l2,-40l4,2h12l8,-4l14,-5l10,1l9,6l5,1l4,-4l5,3l6,-3l12,4l-1,1l-3,3v1h-1v2h-1v1h-1v2h-3v7h-2v1h-4v1h-2v1h-1v2h-1v1h1v1h1v2l1,1v1l-2,1h-1v-1h-1v-1h-1v-1h-1v-1h-2v-1h-10l-1,1l-2,2v1h-1v1h-1v1h-1v2h-2v1l-12,4h-12l-3,9l9,5l5,-1l6,7l-2,5l-4,-5l-8,-3l-6,3l-9,-10l-2,4l-10,2l-3,-2v-4Z"/><path data-name="Ascension" class="geo-005" d="M593,596h7l4,3l3,10h6l-1,5l8,3l6,12l4,2l2,-7l6,-5l3,2l-2,12l-21,5l-29,6l-9,11l-8,-3l-8,2l-7,-2v4h-3v-10l3,-7l6,-16l6,-22l5,-5Z"/><path data-name="Acadia" class="geo-001" d="M275,565l25,1h46v10h12v18l3,2l3,9l-6,6v6h-6l-1,5l-7,3l1,5l-7,6l-7,6l-1,4l-10,9l-7,2l-17,-6l-2,-6l-8,-2l-2,4l-8,1v-12l7,-12l-7,-5v-30l3,-3l2,-10Z"/><path data-name="St. Charles" class="geo-089" d="M671,661h4l9,-11l9,-7l4,-7l12,-3l-3,16v26l1,10l6,11l13,8l-2,10l-3,6l-5,13h-21l-3,-2v-7l-3,-6l-10,-2l-7,-6l-6,-13l-5,-5l-1,-17h-3l2,-11Z"/><path data-name="Beauregard" class="geo-011" d="M213,481v36l-1,23h-28l-1,36v5h-33l-13,-1l1,-18h-19v18l-20,-1h-27l1,-1v-2h2v-3l1,1v1l1,-1v-1h2v-1l1,-1v-1l-2,-1h1v-1h1v-1l-1,-1l-1,-1v-2l-1,-1h1l-1,-2v-1h1v-1h-1l1,-1h1v-1h-1v-2l-1,1v-1h-1v-1h-1l-1,-1v-2h-1v-1h2l-1,-1l1,-1l1,-1v-1l-1,-1v-1l1,-1h2v-2h2l3,-1l-1,2l1,-1v-1l1,-1v-1h-1v-8l1,-1l1,-1v-2l1,-1h2l1,-2h3l1,-1l1,-1v-2l1,-1v-2l1,-1v-2h1v1h1l-1,-2v1v-1h1l-2,-1h2l-1,-1v-2h1v-1l-1,-1v-2v1h1v-1h2l1,-1v-2h1v-5h3l1,-2v-2h1v-2l1,-1l-2,-1v-2l1,-1l-1,-2l1,-1l3,-3l13,4l9,-4l19,1h33v1Z"/><path data-name="Franklin" class="geo-041" d="M435,181v-8l11,-2l1,-6l11,-7h29l-1,4l5,5l-5,1l2,9l-11,3v11l2,3l-4,7h9v10l-3,2l-1,11l4,1l-3,15l2,6l-4,1l-2,6l3,6l-10,7l-1,3h-4v-18h-10l-4,9h-2l-8,9l-14,-3l-7,-13l-8,-3l-1,-15l-6,-7l10,-3l-3,-14l2,-4l9,-1l3,-8l7,-7l-1,-6Z"/></g>
  <path class="counties-mesh" d="M241,478v3h-28l-29,-1v-1h-33l-19,-1l-9,4l-13,-4l-3,3M182,117v5l1,1v5l1,5l3,9v3h-16v10l-25,-1h-11l-1,-18v-26l1,-6v-25l-4,-1v-1l-1,-1v-1l1,-6l3,-8l-3,-7l-1,-10l-4,1l-3,-5l-2,-5v-2M504,301v-3l-30,-1l-5,-7v-21l1,-3l10,-7l-3,-6l2,-6l4,-1l-2,-6l3,-15l-4,-1l1,-11l3,-2v-10h30l10,-4l5,2l8,-7l11,-1l1,8M563,218h4M336,212v-28l27,1l2,4h8v-4h20v10l3,2l-5,4h4l1,7l15,1l1,2l3,14l-10,3l6,7l1,15l-2,9h-75l1,-25v-22h-56v-1h-34l-1,-3l4,-4v-6l4,-4l1,-1v-47l27,1v-10l10,1h27v19l15,15l3,3v9M408,137l-2,-17l-3,-1l4,-7l1,-9h-6l-4,-9l-10,1l-3,3l-4,-8l-6,9l-22,16l-5,5h-30v18M396,661l-4,9l2,34M276,757l1,-14v-84h-22M276,648l8,-1l2,-4l8,2l2,6l17,6l7,-2l10,-9l1,-4l7,-6M559,124h-7l-4,6h-58l4,-4l-2,-5l6,-5l2,-19l5,-1v-5l5,-7v-22l5,-2l1,-15l6,-3l2,-11M605,456l-7,12l3,12l-2,3l3,5v24l-1,3l-22,2l-52,2l-7,8l-1,4l-3,-1v-12l4,-1l1,-8l9,-8v-7l2,-13l6,-10l-1,-7l3,-5l1,-3M839,738l-12,-4l-6,-6l-5,-2l-1,-5l-5,-4l-12,1l-5,-9l-11,2l-5,-8l-3,-8M386,185l5,-10v-9l2,-8l10,-9v-6l5,-6l3,-7h3l7,4l4,-11l8,3l7,-2v-5l5,-5h7l5,-11h8v18h27M490,130l-5,7l2,10l-2,4l2,7h-29l-11,7l-1,6l-11,2v8l-3,4l1,6l-7,7l-3,8l-9,1l-2,4M506,657h-22l-4,5h-17l-1,-7l-4,-1l-6,-9l-16,-2l-13,16l-11,-5l-13,-1M784,525l-5,1h-24l-13,-4l-14,-1l-19,-5M216,304l12,1h52v-19h47l2,5l-1,10l-3,6v15l-3,2l5,4l9,3l1,11l5,1l-1,8l12,1l3,2l-17,4l-24,6l-44,9l-6,-4l3,-9h-5l4,-5l-6,-9l-12,-13l-2,-5l-8,-1l-3,-3l-9,-2l2,-8l-5,-3h-6l-2,-7l1,-12l3,-4l1,-15h9l-1,-6l4,-15l-2,-7l2,-6v-1l-1,-3l-1,-1v-3l-1,-7l-1,-1l-1,-2l-1,-1v-1l-1,-1l-1,-2v-1h-1l1,-1l-1,-2l-1,-1h23M763,782l-1,-17l-1,-6l2,-5l-5,-7l-2,-11l-6,-7l-4,-5l-2,-8l1,-13l8,-5l3,-8l6,-3l8,3l4,5l2,-5l-6,-7l-5,1l-9,-5l3,-9h12l12,-4M236,118h-43l-11,-1l-1,-1v-1h1v-7l1,-1l-1,-1v-5h-1v-12h-9v-37l1,-1v-25M516,530l-4,-2l3,7l-8,8v5h-7l-3,12l-12,1v2M391,259v78l-1,4v46l-3,-4l-8,4l-4,-2l1,-6l-6,-3l-6,-6l-2,-14l-6,-2M327,286l4,-3l3,-11l1,-13M282,477h8l1,-1h1l1,1h2l2,1h1l1,-1l4,-3v-8l19,-9l10,4l-1,3l9,-1v7l8,9v9h4l1,13l6,4v20l-5,3l-2,9v11h-9l-1,6h-31l-2,1l-4,8l-5,3l-25,-1M364,605l10,-8v-5l6,-4l3,3l10,-1l6,2l-3,7l3,11l-1,13h-4l-1,7h13v7l-5,8l-2,8l-3,8l-19,-8l-4,-11l-7,1l-12,-5h-16v-2l7,-6l-1,-5l7,-3l1,-5h6v-6l6,-6l-3,-9l-3,-2v-18h-12v-10h-46M72,579h27l20,1v-18h19l-1,18l13,1h33v-5h13v-2h43l10,1v-12l27,1l8,-17l-3,-3v-47l1,-20l-22,-1l-1,2h-18v-25h-1v-52l-8,-8v-6l-10,-1l-8,-5h5v-4h7v-5h5l3,-6l10,-5l7,-8l10,-7M121,34v-4l1,-6M554,656l-22,7l-7,-6h-19l-4,-10h-13l-1,-16l-4,-4l2,-8l-16,-2l-11,-14v-9l-4,-3l4,-4l-3,-12l-11,-12M527,675l4,12l5,3l1,8l4,4l9,2l6,5l1,15h-3l1,8l-6,-5l-10,-2l-5,-3l-15,-4h-10l-6,-3l2,-12l-8,-14l-10,-11l40,-3l-1,-6h4l2,-6M534,756l6,-5l5,4l3,-4l11,-3l-5,-4l1,-12M639,633l-2,15l-3,1l2,8l-5,5l4,10v16l2,3M493,31v4l-7,10l-6,13h-6l-4,5l-1,6l-5,7l1,10l-7,6l2,8l-3,3M109,414l1,-12l3,-8h17l10,-18h27l6,1h31l8,1l2,3M474,297v6l-11,-8l-6,7l-7,-3l-4,3l-2,10l1,8l-7,6l-6,-7l-9,10v7l9,9l-5,8l3,4h9l1,8l-14,-2l-2,-10l-6,-3l-2,5l1,11l7,7h7l1,3h-12l-4,4l-1,11l8,2l-2,7M412,250l8,3l7,13l14,3l8,-9h2l4,-9h10v18h4M548,600l21,1l-6,22l-6,16l-3,7v10h3v-4l7,2l8,-2l8,3M661,692l-5,-2l-19,1l-6,-2l-5,1l-2,-3l-11,-2v3l-18,1v6h-5l-3,9l-8,16l-7,9l-13,19M390,387l2,6l-5,2l8,14l3,-5l6,3l-3,-7l2,-6h9l5,6h4l10,9h4l4,5l5,-2l5,2v8l-5,1l-2,14l2,5l-3,5l-5,6l15,1l2,4l-1,4l3,8l-3,9v9l5,2h14l-2,-11l-8,-1v-4h11l5,4l2,10l-6,15l-8,3v4l5,4l12,-3l7,1v1l12,-5l5,1l3,8l3,11M352,488h73l2,-3v-22l9,-10M425,488l1,7l6,6l3,11l4,6l-1,17l-3,5v11l4,6l-4,6M183,581v5h18v25h6v22l19,1l-3,9l4,7h-20v8h-25v-3h-51l-13,-1h-44M254,146h-19l1,-2v-26l2,-4v-4l1,-3v-1l-1,-3v-7l2,-1h1v-1l4,-3v-9h18l1,-20v-34M709,633l-12,3l-4,7l-9,7l-9,11h-4l-12,3l-2,11h3l1,17l5,5l6,13l7,6l10,2l3,6v7l3,2h21l5,-13l3,-6l2,-10l-13,-8l-6,-11l-1,-10v-26l3,-16l19,-6l-1,-10l-24,-11l-12,-1l-3,3l-21,1v-11l2,-6l-5,-1v-6l-6,-8l-3,-10l-3,-2v-101l-1,-8M25,198h18l4,-5l2,-1h1l5,-3l1,-1l2,-2h1v-1l1,-5l1,-3h1l6,-4v-1l7,-5h4l1,2v1v-1l4,4h11l7,9v8l8,9h7l2,12l2,2l-5,4l6,11l4,1l-1,5l9,10h6l5,5l3,7l-7,2l-5,-3l-2,3l-1,1v3l-1,12l-5,-1h-42l-2,-1h-30M70,23l-1,12l-5,4l8,3l-4,7l7,8l-3,12l3,7l-8,8v5l8,-2l-2,10l3,-1l4,16l3,3l-6,10l6,7l6,3v10l6,5l-5,1l11,6l1,9h6l11,8l1,9l4,1l4,7l-26,-1M691,455l1,20l6,4l3,9v1l1,6l1,2v2l1,2v1l1,1l2,2v3l1,1v2l1,3v2h-1l1,3v3l1,1v6l1,1v4l-1,3v3l1,21l1,30l10,11l5,15M128,191h47v10l4,3v7l5,7v7l3,6l-1,2l-2,5l-1,1l2,1l5,8l-21,-1v15l-5,2h-14l-2,-8M132,274v27l18,1v37h18v27l-1,10M728,627l9,5l-2,40v1l-1,1v1l-1,2h-1v7l3,2l10,-2l2,-4l9,10M726,735l-10,-2M826,633l-12,-4l-6,3l-5,-3l-4,4l-5,-1l-9,-6l-10,-1l-14,5l-8,4h-12l-4,-2M393,590l1,-8l8,3l2,-1l13,-3l7,4h25l-8,-12h-3l-3,-10h32v3l8,-3h10l5,5l11,14v3l7,3l6,7l2,5h32l-10,-5h-9l8,-16v-19l-2,-2l-13,4l-1,-3l8,-4l-4,-8h-9l-1,-5l5,-7l-1,-4M601,515v4l-9,7l-3,5l-11,11l1,18l-1,9h-3l2,10l7,6l1,6l6,1l2,4h-19l-5,5M487,678l-28,2l-17,23l-7,4l-19,17M179,211h44M572,729h24v-6l7,-1l3,-6h3l1,6l7,11l10,6l4,5l7,8l7,1l1,5l7,4l9,12l12,12l7,11l7,5l1,15l-4,8M136,191l4,-2l-2,-8l1,-11l2,-7l-4,-2l1,-5l5,1l3,-3M183,576l1,-36h28l1,-23v-36M595,689v-7l-8,1v-10h-6l-1,-18l9,-11l29,-6l21,-5l2,-12l7,3l9,2l6,-5l4,-12M652,530h-61l-2,1M452,462l5,-6M441,447l14,1l-2,10M641,621l-3,-2l-6,5l-2,7l-4,-2l-6,-12l-8,-3l1,-5h-6l-3,-10l-4,-3h-7M484,201h-9l4,-7l-2,-3v-11l11,-3l-2,-9l5,-1l-5,-5l1,-4M276,564l-1,1l6,11l-2,10l-3,3v30l7,5l-7,12v12l-21,11h-40l-8,-1M381,30l-2,5l-1,24l5,5l-2,26M375,385l-9,7l-7,-1l-4,-5h-1l-5,1v40l2,24l3,12h-14M318,120v-19h-18v-11h-5l-3,-6l-11,-2h-18"/>
<g class="districts"><path data-name="Congressional District 1" class="district-2201" d="M511,814v1h1v1h1v-1v1h5l1,-1h1l1,-1v-2h2v-2l1,-3v-2l3,-1l1,-1h1l5,10l5,4l6,-5l-2,11h-7l3,3l4,-2v7l6,-4l1,7h-13l-16,-7l-10,-10ZM535,792l11,-4l2,-3h7l7,-7l14,3l31,4l8,-18v-14l6,1l5,-3l5,-7l-4,-5l2,-11l-3,-1v-6l3,3h16v6l5,-1l12,7l2,-7l-3,-7l11,-12l7,6l10,2l3,6v7l3,2h21l5,-13l3,-6l2,-10l1,-3l11,-3l2,7l-4,6l8,5l1,-13l8,-5l3,-8l6,-3l8,3l4,5l2,-5l-6,-7l-5,1l-9,-5l3,-9h12l12,-4l3,11l5,4l19,-4l-6,3v6l8,7l8,3l9,-2l4,-4v-7l4,-9l-2,-6l4,-2l12,-9l1,-7l8,3l-2,14l-4,1l4,7l5,-4l6,6l-6,1l-4,6l9,6v-4l4,-3l1,6l9,3l-18,13h6l8,5h-9l-3,5l-5,-4l1,-4l-5,-4l-2,6l5,9l-5,4l9,7l-6,3l-5,-8h-3l-5,-7l-6,5l-5,-3h-12v8l20,12l-2,-1h-12l-4,-5l-5,4l5,3l-1,5l-16,5l12,14l-3,2l23,12l6,6l-6,1v10l11,2l7,-5l8,2l2,4l6,-3l-2,9l7,1l14,-2l5,2l-1,6l6,1l6,-7l6,6l-2,2l7,4l3,6l-4,4l5,3l-2,4l7,3l-3,9l11,6l-3,5l-3,-5h-7v9h-5l-4,6l2,7l-9,-5l-3,-8l-7,-8l-1,2l1,10l-4,2l-13,13l-7,12h-4l2,-6l20,-27l-2,-6l5,-2v-12l-6,-7l-6,5v11l-3,1l2,-16l-4,9l-2,-11l-7,8h-6l-12,-14l-3,4l-14,-4l9,-1l6,3l1,-3l8,-1l-1,-10l-9,-8l-5,1l-10,-2l2,-4l-4,-6l-18,2l-4,-3l-9,4v-6l-9,4l4,-4l-6,-1l1,-7l4,-2l-6,-3l-5,6l-1,-8l-7,-4l-4,10h-7l-7,-9l-4,2l-16,-12l-5,3l-5,-5l8,-3l4,-7l-1,-14l-4,2l-3,-5l-4,1l-1,13l4,10l-8,1l-4,11l8,9l6,-1l2,5l18,1l-1,4l-1,11h5l-2,5l-6,3l4,4l7,7l-9,-4l-4,2l2,-6l-4,2l-4,-4l5,11l-4,3l3,8l6,5l-1,6l-4,3v1l-16,13l-12,3l2,-8l-6,-3l3,-1l-10,-20v-4l-6,-2l2,-4l-5,-7l-6,7l2,5l-2,6l-5,3v-4l1,-3v-12l-4,-2l-1,-6l-6,3l2,4l-9,6l1,-12l-5,-2l1,9l2,-4v8l-4,-2v5l-8,-2l5,-2l-11,-2l2,13l2,1l3,4l-9,-5v8l-4,-3l-4,-3l2,11l-3,-2l-5,7v7h-4l-5,-2v5l-8,3l1,-7l-7,4v-6l-4,2l-1,2l-10,1l-9,-9l6,-9l9,2l8,-8l-7,-5l-5,2l-9,-7l6,1l-1,-4l-5,2l4,-9l-9,-2l-10,6l15,12l-10,5l-3,-3l-8,10l1,-8l-5,-1l3,11h-8l-7,-7l2,-8l-3,-6l17,-4l-2,-5l5,1l1,-4l-10,-3l-4,3l7,4l1,5l-6,-1l-5,3l-3,-10l-12,-6l-5,-6ZM825,634l-6,-2l-5,-2l-8,3v-1v1v-1l-1,-1v-1h-1l-1,1v1l1,2l-1,1v1h-1l-1,1l-1,1v1l-5,6l-8,1l-3,-5l-2,-4l1,-1v-2l-2,2h-2l-12,15l-11,8l-3,-2l-7,3h-1l-3,8l-2,5l-5,-1v1l-1,1v1l-1,2h-1h5l-2,9l-3,-2v-6l-4,-1l-6,7h-4l-6,-19l-6,1v-17l3,-16l19,-6l-1,-10l-24,-11l-12,-1l-3,3l-21,1v-11l2,-6l-5,-1v-6l-6,-8l-3,-10l-3,-2v-9l10,2v-6h5l-2,-16l4,-3l2,5l7,4l4,7l3,2l-1,8l9,2h18l-1,-21v-3l1,-3v-4l-1,-1v-6l-1,-1v-3l-1,-3h1l19,5l14,1l13,4h24l5,-1l-1,1h-1v1h2v1h1l1,-1v1h1l1,1v2h1v1h-1v3h-2h2v3l1,1v2h1v1h1h-1v1l1,1v2h3h-1v1h1v-1h1l-1,1l-1,1v-1h-1v2h2l-1,1l1,1h3v1l1,1h-1v1h1v1h1h-1v1h1v1h1v-1v2h1l-1,1h1v1h-1v1l1,-1h1v1h1v1h-1h1v-1l1,1h3v2h1v1h1l1,1v1l1,1l1,1h2v1l1,2h-1v2h1v5v-1l-1,1v1h1v2h1l1,2v1l1,2h1v3l2,2h1l1,1v1l1,1v4h1l-1,1v1h-2v3h-1l1,1h1l1,1v2l1,1v1h-1l3,8v1l1,1h2l2,3l1,1v1l1,1v1h1l1,1h1v-1h2v-2h1l1,-1h1l1,1v1l1,1v1h-6l-5,6l-7,-1ZM878,710l2,1l8,-3l1,8ZM889,649l-1,-3l8,-7l3,12l5,1l-7,6l1,-5l-15,-2ZM812,799l3,2l9,-2l5,6l-10,8l-7,1l-18,-2l8,-5ZM790,810l2,-8l5,4ZM744,771l12,7l-11,-3l-4,5l-3,-8ZM607,853l-1,6h-9ZM590,834l-2,6l-4,4l-4,-3l4,-6ZM576,833l7,5l-5,7l-8,-1v-5h6l-5,-4l2,-6Z"/><path data-name="Congressional District 2" class="district-2202" d="M514,595l2,5l5,-5v-6h5l-4,-5l9,2l3,-10l-5,-3l3,-3l5,3v3l4,-5h-4v-11l-2,-2l-2,-8l3,-11h7l-1,8h4l2,10l9,5l-4,5l3,6l-12,-1l-2,4l-5,3l-8,16h9l10,5l21,1l-6,22l4,1l3,-7l18,2l3,4l-2,6l-6,3l1,5l5,7l29,-6l21,-5l2,-12l7,3h-1v2h1l4,5h1l1,1h2l1,4v8l8,1l-1,5l4,2v-6l4,3l-3,3l2,9l1,8l16,1l-4,7l6,4l8,1l2,-7h6v-9l6,-1l6,19h4l6,-7l4,1v6l3,2l2,-9h-5h1l1,-2v-1l1,-1v-1l5,1l2,-5l3,-8h1l7,-3l3,2l11,-8l12,-15h2l2,-2v2l-1,1l2,4l3,5l8,-1l5,-6v-1l1,-1l1,-1h1v-1l1,-1l-1,-2v-1l1,-1h1v1l1,1v1v-1v1l8,-3l5,2l6,2l-3,3v1h-1v2h-1v1h-1v2h-3v7h-2v1h-4v1h-2v1h-1v2h-1v1h1v1h1v2l1,1v1l-2,1h-1v-1h-1v-1h-1v-1h-1v-1h-2v-1h-10l-1,1l-2,2v1h-1v1h-1v1h-1v2h-2v1l-12,4h-12l-3,9l9,5l5,-1l6,7l-2,5l-4,-5l-8,-3l-6,3l-3,8l-8,5l-1,13l-8,-5l4,-6l-2,-7l-11,3l-1,3l-2,10l-3,6l-5,13h-21l-3,-2v-7l-3,-6l-10,-2l-7,-6l-6,-13l-5,-5l-5,-2l-19,1l-6,-2l-5,1l-2,-3l-11,-2v3l-18,1v6h-5l-3,9l-7,-6l-2,-8l6,-5l-7,-8l-10,1l-12,-1l-7,2l-2,-10l5,-3l6,2v-12h-3v-10l3,-7l-9,-6h-11v7h-15l-1,-11l8,-4l2,-6l5,-1l3,-8l-10,3l-8,3l-7,-4l2,-5Z"/><path data-name="Congressional District 3" class="district-2203" d="M45,695h1v-1h1l2,-3h1v-1l6,-8l1,-7l5,-9l1,-1h1v-1h1l2,-2l3,-3v-1l1,-1v-1l3,-2l1,-4l1,1v2h1l1,-1v-1l-1,-1h-2l-3,-5l1,2l1,-1v-1l1,-2l1,-1v-1h1l1,-1l-1,-1v-1h1v-3h1v1h1l1,-1h-1l-1,-3h-1v1h-1v-1l1,-2l1,-2v-1h-2l1,-1h-1v-1l-1,-1v-1l1,1l1,-1h-2l-1,-1h1v-2l-1,1v-2l1,-1v-1h1h-1l1,-1v-1h1l-1,-1h1v-1h-1l1,-1h-1l1,-1v-2h-1l1,-1h-1h1h-1v-1h1l-1,-1v1h1v-4h-1l-1,-1h-2v-1h-2v-1h-1v-2h-1v-2h-1v-2h-1v1l-1,-1v-1h1v-1h-1v-1l1,1l-1,-1l1,-1v-2v1h1l1,-1h-1l-1,-2h1v1v-4l-1,-1h1h-1l1,-1h1v-1h1l1,-1h27l20,1v-18h19l-1,18l13,1h33v-5h13v-2h43l10,1v-12l27,1l-1,1l25,1h46v10h12v7l11,-1l3,14l-8,3l-3,-3l3,9l10,-8v-5l6,-4l3,3l10,-1l1,-8l8,3v-3l1,-1l1,3l13,-3l7,4h25l-8,-12h-3l-3,-10h10l11,12l3,12l-4,4l4,3v9l11,14l16,2l-2,8l4,4l1,16h13l4,10h19l7,6l-2,6h-4l1,6l4,12l5,3l1,8l4,4l9,2l6,5l1,15h-3l1,8l-1,12l5,4l-11,3l-3,4l-5,-4l-6,5h-4v7l-5,2l-2,7l-5,4l-8,1l-1,-5l-9,-2l-5,1l4,-7l-12,1l-15,6l5,-6l-6,-20l-16,2l4,-6v-18l-18,1l-2,-2l-9,1l-12,8l-6,-1l4,-6l-4,-1l5,-12l5,4v-10l-14,-1l-3,4l-11,-4l-1,7l-8,3l-16,9l-6,6l4,-10l-4,-2l-6,4l-5,-1l2,7l8,6l9,-1l-6,6l4,12l11,-1l4,-3l3,4l-11,3l5,4h-21l-10,4l-10,6h-10l-15,-4l-23,-3l-16,-3l-17,-6l-37,-17l-21,-10l-18,-7l-18,-4h-13l-10,4l-18,-3l-18,1l-5,2l-33,3l-18,10l-5,-10l-1,-1l-1,-1l-1,-3v-1l-2,-2l-1,-1l-4,-8l10,-8ZM409,746l10,1l3,5l8,2l2,4h6l6,4l-12,7v8l-10,3l-6,-5l-5,-1l-26,-13l6,-10h10l1,-5Z"/><path data-name="Congressional District 4" class="district-2204" d="M27,122v-22l1,-7v-24l1,-13v-34h6l27,1h10l19,1h31l2,1h36l13,1h20l24,1h26l21,1h20l14,1h64l19,1l-2,5l-1,24l5,5l-2,26l-6,9l-22,16l-5,5h-30v-19h-18v-11h-5l-3,-6l-11,-2h-36v9l-4,3v1h-1l-2,1v7l1,3v1l-1,3v4l-2,4v26l-1,2h19v47l-1,1l-4,4v6l-4,4l1,3h-23l1,1l1,2l-1,1h1v1l1,2l1,1v1l1,1l1,2l1,1l1,7v3l1,1l1,3v1l-2,6l2,7l-4,15l1,6h-9l-1,15l-3,4l-1,12l2,7h6l5,3l-2,8l9,2l3,3l8,1l2,5l12,13l-10,7l-7,8l-10,5l-3,6h-5v5h-7v4h-5l8,5l10,1v6l8,8v52h1v25h18l1,-2l22,1h8l1,-1h1l1,1h2l2,1h1l1,-1l4,-3v-8l19,-9l10,4l-1,3l9,-1v7l8,9v9h38v6h-5l2,7l-6,2l8,4l3,5l1,10l7,4l-8,1l5,8h-5v4l7,3l1,5l-8,2l-7,-2l-7,2v3l-1,2v6l-1,16l8,-3l14,9l-1,8l-10,1l-3,-3l-6,4v5l-10,8l-3,-9l3,3l8,-3l-3,-14l-11,1v-7h-12v-10h-46l-25,-1l1,-1l-27,-1v12l-10,-1h-43v2h-13v5h-33l-13,-1l1,-18h-19v18l-20,-1h-27l1,-1v-2h2v-3l1,1v1l1,-1v-1h2v-1l1,-1v-1l-2,-1h1v-1h1v-1l-1,-1l-1,-1v-2l-1,-1h1l-1,-2v-1h1v-1h-1l1,-1h1v-1h-1v-2l-1,1v-1h-1v-1h-1l-1,-1v-2h-1v-1h2l-1,-1l1,-1l1,-1v-1l-1,-1v-1l1,-1h2v-2h2l3,-1l-1,2l1,-1v-1l1,-1v-1h-1v-8l1,-1l1,-1v-2l1,-1h2l1,-2h3l1,-1l1,-1v-2l1,-1v-2l1,-1v-2h1v1h1l-1,-2v1v-1h1l-2,-1h2l-1,-1v-2h1v-1l-1,-1v-2v1h1v-1h2l1,-1v-2h1v-5h3l1,-2v-2h1v-2l1,-1l-2,-1v-2l1,-1l-1,-2l1,-1h-1v-2l-1,1l-1,-1v-3h1v-1l1,-1h3h-1v-2h-1v-1l1,-1v-1h1v-1h1v2l1,-1h1l1,-1v-3h-1v-3h1h-1v-1l-2,1v-1h-1v-1h-1l-1,-1l-1,1l-2,-1l1,-1l1,-1v-3h-2v-2h1v-2h1v1h5v-1l1,-1l1,-1h2l1,-1h1v-1h-2v-1h-1v-1h1v-1h-1l-1,-1v-1h2v-2h-1l-1,-1h1v-1h-2v-1h-3v-2h1h-3v-1l1,-1h2v-3l2,-2v-1l-1,-1v-1l-1,-2v-2h2v-1l-1,-1v-2h2v-2h-6l-1,1h-1v2h-2v1h-1v-2l-1,-1v-5l-1,-2h1v-1l1,-1v-2h-2l-1,-1l-1,-1v-2h1v-3h-1v-2h-4l-1,-2l-1,-1l-1,1l-2,-4h-1v-1h-2v-2l1,-2h1v-3l1,-1l4,-4l1,-2l1,-1h-2v1h-3l-1,1v-6l-1,-1v-1h-1v1l-2,-2h-2v-1l2,-6h-2v-4v1h-4l-1,-1l-1,-1l-1,-1h-1v-3l1,-1h3v-1l1,-1v-1h1l1,-1v-1h1l-1,-1h-5l-1,-1h1v-2h-1v-1h-1v1h-1l-1,1h-1l-2,-1h-1l-1,-1h-2v-1h-1l-1,-3h-1l-1,-6h-1v-1l-1,-1l3,-6v-1h-1h1v-4l1,-2v-1l-1,-1h-1l1,-3v1h1v-3h1l1,-1l2,-3v-1h-1l-1,1h-1l-1,-1v-5h-1v-1l-1,-3h-1v-1l2,-1v-2l-1,-2v-1h-1v-1l-1,-3l-1,-1v1l-1,-1v-1h-1v-1h-3h1v-1h-1v-5h-1v-1h-1l1,-1v-1h-1l1,-3h-2v-2h-2l1,-1v-2l-1,-1v1h-3v1v-1v1l-1,1v-2h-1l1,-3v-1h-4l-1,-1v-1h-1v-1l-1,1h-1l-1,-3l-1,-1l-1,-2l-1,-1l-1,-2v-1l-1,-1l-1,-1h-1v-4h-1v1l-1,-1v-1h-1l-1,1v-61h1v-42l1,-1v-14Z"/><path data-name="Congressional District 5" class="district-2205" d="M214,381h5v-4h7v-5h5l3,-6l10,-5l7,-8l10,-7l-12,-13l-2,-5l-8,-1l-3,-3l-9,-2l2,-8l-5,-3h-6l-2,-7l1,-12l3,-4l1,-15h9l-1,-6l4,-15l-2,-7l2,-6v-1l-1,-3l-1,-1v-3l-1,-7l-1,-1l-1,-2l-1,-1v-1l-1,-1l-1,-2v-1h-1l1,-1l-1,-2l-1,-1h23l-1,-3l4,-4v-6l4,-4l1,-1v-47h-19l1,-2v-26l2,-4v-4l1,-3v-1l-1,-3v-7l2,-1h1v-1l4,-3v-9h36l11,2l3,6h5v11h18v19h30l5,-5l22,-16l6,-9l2,-26l-5,-5l1,-24l2,-5h88l21,1h50l1,3l-1,1l-2,1v1l-2,2l-1,1l1,2h-1l-2,3v3l1,2l2,2l4,1h3l3,-1l2,-3v-2l-1,-5v-1h1v-2l-1,-2h1v-2h7l2,5v2l-1,1h1v1l3,5v2l-4,8l-3,3h-3l-7,7l1,9v1l-2,7l4,1l10,1l3,1l2,4l-13,10l-3,4l-1,5l3,6h1v2h2l1,-1h1l1,-1l4,-1l6,-3l2,-3v-2l1,-1l1,-1l4,4l-1,5l-1,1l-2,2l-1,2l-2,1l-5,2l-2,2l1,2l5,3l8,5l3,4l-3,2l-6,-2l-2,-2l-3,-4l-1,-2l-1,-1l-3,-3l-1,1l-3,8l-1,5l5,5l3,2l1,1l3,1l5,1v-1l1,-1h2l1,-1h4l2,1l1,2v2l-3,3h-1l-1,1l-2,5v5l4,2l12,2l2,-2l1,-2l1,-2v5l-1,1v1h-1v2l-1,2l-2,4l-6,3l-2,-3h-2l-1,3v3l1,2l1,2l-2,7l-3,6l-1,-1l-3,-9l-2,-1h-2l-2,4l-1,1l-2,-2h-1l-2,1l-2,1l-2,2h-1l-2,-1l-1,-1v1l-4,2l-1,1l-1,1l-1,4l3,9l2,1l2,1h3l9,-1l2,1h1v-7l-1,-5l5,4h4l-1,6h-1v1l-2,1v3l-1,2l-2,1l-6,3h-1v1l1,5l-3,1h-1l-5,-5l-1,-2h-1l-2,1l-2,1v2l1,1l1,2h2l6,2l5,3v3l-2,2l-1,1l-3,1h-1l-3,1l-5,1h-1l-2,3l-2,1v3l-1,3h2v4l-2,1v1h-2l-1,2l-4,3l-1,2l-1,1h-3l-1,2v2l3,3h1v3l-1,1l-3,2h-1l-3,-7v-3l-1,-1h-1l-2,1h-3l-2,1l-2,2v5l-2,7v5l1,1l4,-1l2,-1l4,-1l3,-1h2l3,2v1l-4,4h-2l-2,-1h-12l-2,2v1l-3,5l-1,4l1,10l-1,4v1l-1,1h-6l-4,-1l-1,-1l-3,-2l-2,-3h-1l-2,3l-1,1v4l1,1l2,2l1,1l1,1h1l1,1h1l3,-1l3,-2l6,1v4l-10,8l-3,1l-1,-1h-1l-4,1h-1l-1,2v1l1,1v13l1,2v1l4,5l2,2l1,2l-1,6h-5l-5,-6l-1,-3v-4l-1,-1h-2v1l-2,1l-1,1v1l-1,2v1l1,2l1,2v-1h3v2l-1,2l1,4l3,2v2h1l2,1l1,1l1,1l-1,4l-1,4l-3,2h-3l-3,1h-1l-3,-1h-10l-2,1v4l2,2l3,1l4,3l2,3l1,2v3l-1,1l-1,2l-2,3l-1,1v1l-2,1v4l2,2l3,2l2,2l4,3v6l-1,3l-2,2l-4,2l-3,1h-1l-2,1h14l5,1h39l26,-1h122l28,-1h30l9,-1h72l1,-1v1l1,1v1l-1,1l1,1l-1,1h-1v1l2,1h-2l-1,1v1l-1,1v6l1,1l-1,1l-2,1v1h1l1,1l-1,1h-1l-1,-1v4l-1,2l2,1l-1,1v2l-1,1v-1h-1v1l-1,1v-1h-1v1h1v2h-1v1h2v1h-1v1h1l-1,2v-1h-2l1,-1h-1v2l-1,1v1h-2l1,1v2h1v-1v1h-2v-1h-1v3h-2v2h-1l1,1v1l1,1h-1v2l1,-1v-1l1,1h-1v2h-1l1,1h-2v1h2l-1,1h-1l1,1v-1h1v1h-1v2h-1v-1h-1v2h-1v1h2v3h-1l-1,1h2v1h-1h1v1h-1l-1,1v1h1v-1h1v1h-1l-5,1h-24l-13,-4l-14,-1l-19,-5h-1l1,3v3l1,1v6l1,1v4l-1,3v3l1,21h-18l-9,-2l1,-8l-3,-2l-4,-7l-7,-4l-2,-5l-4,3l2,16h-5v6l-10,-2v-63h-13l-2,-5l-9,2l-16,-9l-11,-1l-2,3l-6,-2l-12,3l-2,6l-4,-2l-8,5v-4l-1,-4l-9,2l-8,4v10l-7,6l-4,-2l1,-11h-9v7l-9,8l-1,8l-4,1v12l-4,-2l-3,-11l-3,-8l-5,-1l-12,5v-1v1v-1l-7,-1l-12,3l-5,-4v-4l8,-3l6,-15l-2,-10l-5,-4h-11v4l8,1l2,11h-14l-5,-2v-9l3,-9l-3,-8l1,-4l-2,-4l-15,-1l-9,10v22l-2,3l1,7l6,6l3,11l4,6l-1,17l-3,5v11l4,6l-4,6l3,10h3l8,12h-25l-7,-4l-13,3l-1,-3l-1,1v3l-8,-3l-14,-9l-8,3l1,-16v-6l1,-2v-3l7,-2l7,2l8,-2l-1,-5l-7,-3v-4h5l-5,-8l8,-1l-7,-4l-1,-10l-3,-5l-8,-4l6,-2l-2,-7h5v-6h-38v-9l-8,-9v-7l-9,1l1,-3l-10,-4l-19,9v8l-4,3l-1,1h-1l-2,-1h-2l-1,-1h-1l-1,1h-8l-22,-1l-1,2h-18v-25h-1v-52l-8,-8v-6l-10,-1Z"/><path data-name="Congressional District 6" class="district-2206" d="M436,453l15,1l2,4l-1,4l3,8l-3,9v9l5,2h14l-2,-11l-8,-1v-4h11l5,4l2,10l-6,15l-8,3v4l5,4l12,-3l7,1v1v-1v1l12,-5l5,1l3,8l3,11l4,2v-12l4,-1l1,-8l9,-8v-7h9l-1,11l4,2l7,-6v-10l8,-4l9,-2l1,4v4l8,-5l4,2l2,-6l12,-3l6,2l2,-3l11,1l16,9l9,-2l2,5h13v72l3,2l3,10l6,8v6l5,1l-2,6v11l21,-1l3,-3l12,1l24,11l1,10l-19,6l-3,16v26h-6l-2,7l-8,-1l-6,-4l4,-7l-16,-1l-1,-8l-2,-9l3,-3l-4,-3v6l-4,-2l1,-5l-8,-1v-8l-1,-4h-2l-1,-1h-1l-4,-5h-1v-2h1l-7,-3l-2,12l-21,5l-29,6l-5,-7l-1,-5l6,-3l2,-6l-3,-4l-18,-2l-3,7l-4,-1l6,-22l-21,-1l-10,-5h-9l8,-16l5,-3l2,-4l12,1l-3,-6l4,-5l-9,-5l-2,-10h-4l1,-8h-7l-3,11l2,8l2,2v11h4l-4,5v-3l-5,-3l-3,3l5,3l-3,10l-9,-2l4,5h-5v6l-5,5l-2,-5l2,12l-2,5l7,4l8,-3l10,-3l-3,8l-5,1l-2,6l-8,4l1,11h15v-7h11l9,6l-3,7v10h3v12l-6,-2l-5,3l2,10l7,-2l12,1l10,-1l7,8l-6,5l2,8l7,6l3,-9h5v-6l18,-1v-3l11,2l2,3l5,-1l6,2l19,-1l5,2l5,5l6,13l-11,12l3,7l-2,7l-12,-7l-5,1v-6h-16l-3,-3v6l3,1l-2,11l4,5l-5,7l-5,3l-6,-1v14l-8,18l-31,-4l-14,-3l-7,7h-7l-2,3l-11,4l-1,-3l-1,-1h-3l-2,-2h-1l-1,-3v-17l5,-2l1,-1l1,-2v-1l1,-3v-1l6,-5l5,4l3,-4l11,-3l-5,-4l1,-12l-1,-8h3l-1,-15l-6,-5l-9,-2l-4,-4l-1,-8l-5,-3l-4,-12l-1,-6h4l2,-6l-7,-6h-19l-4,-10h-13l-1,-16l-4,-4l2,-8l-16,-2l-11,-14v-9l-4,-3l4,-4l-3,-12l-11,-12h-10l4,-6l-4,-6v-11l3,-5l1,-17l-4,-6l-3,-11l-6,-6l-1,-7l2,-3v-22Z"/></g>
  <path class="districts-mesh" d="M825,634l-6,-2l-5,-2l-8,3v-1l-1,-1v-1h-1l-1,1v1l1,2l-1,1v1h-1l-1,1l-1,1v1l-5,6l-8,1l-3,-5l-2,-4l1,-1v-2l-2,2h-2l-12,15l-11,8l-3,-2l-7,3h-1l-3,8l-2,5l-5,-1v1l-1,1v1l-1,2h-1h5l-2,9l-3,-2v-6l-4,-1l-6,7h-4l-6,-19l-6,1v-17l3,-16l19,-6l-1,-10l-24,-11l-12,-1l-3,3l-21,1v-11l2,-6l-5,-1v-6l-6,-8l-3,-10l-3,-2v-9l10,2v-6h5l-2,-16l4,-3l2,5l7,4l4,7l3,2l-1,8l9,2h18l-1,-21v-3l1,-3v-4l-1,-1v-6l-1,-1v-3l-1,-3h1l19,5l14,1l13,4h24l5,-1M72,579h27l20,1v-18h19l-1,18l13,1h33v-5h13v-2h43l10,1v-12l27,1l-1,1l25,1h46v10h12v7l11,-1l3,14l-8,3l-3,-3l3,9l10,-8v-5l6,-4l3,3l10,-1l1,-8l8,3v-3l1,-1l1,3l13,-3l7,4h25l-8,-12h-3l-3,-10h10l11,12l3,12l-4,4l4,3v9l11,14l16,2l-2,8l4,4l1,16h13l4,10h19l7,6l-2,6h-4l1,6l4,12l5,3l1,8l4,4l9,2l6,5l1,15h-3l1,8l-1,12l5,4l-11,3l-3,4l-5,-4l-6,5M672,710l7,6l10,2l3,6v7l3,2h21l5,-13l3,-6l2,-10l1,-3l11,-3l2,7l-4,6l8,5l1,-13l8,-5l3,-8l6,-3l8,3l4,5l2,-5l-6,-7l-5,1l-9,-5l3,-9h12l12,-4M535,792l11,-4l2,-3h7l7,-7l14,3l31,4l8,-18v-14l6,1l5,-3l5,-7l-4,-5l2,-11l-3,-1v-6l3,3h16v6l5,-1l12,7l2,-7l-3,-7l11,-12l-6,-13l-5,-5l-5,-2l-19,1l-6,-2l-5,1l-2,-3l-11,-2v3l-18,1v6h-5l-3,9l-7,-6l-2,-8l6,-5l-7,-8l-10,1l-12,-1l-7,2l-2,-10l5,-3l6,2v-12h-3v-10l3,-7l-9,-6h-11v7h-15l-1,-11l8,-4l2,-6l5,-1l3,-8l-10,3l-8,3l-7,-4l2,-5l-2,-12l2,5l5,-5v-6h5l-4,-5l9,2l3,-10l-5,-3l3,-3l5,3v3l4,-5h-4v-11l-2,-2l-2,-8l3,-11h7l-1,8h4l2,10l9,5l-4,5l3,6l-12,-1l-2,4l-5,3l-8,16h9l10,5l21,1l-6,22l4,1l3,-7l18,2l3,4l-2,6l-6,3l1,5l5,7l29,-6l21,-5l2,-12l7,3h-1v2h1l4,5h1l1,1h2l1,4v8l8,1l-1,5l4,2v-6l4,3l-3,3l2,9l1,8l16,1l-4,7l6,4l8,1l2,-7h6v-9M381,30l-2,5l-1,24l5,5l-2,26l-6,9l-22,16l-5,5h-30v-19h-18v-11h-5l-3,-6l-11,-2h-36v9l-4,3v1h-1l-2,1v7l1,3v1l-1,3v4l-2,4v26l-1,2h19v47l-1,1l-4,4v6l-4,4l1,3h-23l1,1l1,2l-1,1h1v1l1,2l1,1v1l1,1l1,2l1,1l1,7v3l1,1l1,3v1l-2,6l2,7l-4,15l1,6h-9l-1,15l-3,4l-1,12l2,7h6l5,3l-2,8l9,2l3,3l8,1l2,5l12,13l-10,7l-7,8l-10,5l-3,6h-5v5h-7v4h-5l8,5l10,1v6l8,8v52h1v25h18l1,-2l22,1h8l1,-1h1l1,1h2l2,1h1l1,-1l4,-3v-8l19,-9l10,4l-1,3l9,-1v7l8,9v9h38v6h-5l2,7l-6,2l8,4l3,5l1,10l7,4l-8,1l5,8h-5v4l7,3l1,5l-8,2l-7,-2l-7,2v3l-1,2v6l-1,16l8,-3l14,9M652,556v-63h-13l-2,-5l-9,2l-16,-9l-11,-1l-2,3l-6,-2l-12,3l-2,6l-4,-2l-8,5v-4l-1,-4l-9,2l-8,4v10l-7,6l-4,-2l1,-11h-9v7l-9,8l-1,8l-4,1v12l-4,-2l-3,-11l-3,-8l-5,-1l-12,5v-1l-7,-1l-12,3l-5,-4v-4l8,-3l6,-15l-2,-10l-5,-4h-11v4l8,1l2,11h-14l-5,-2v-9l3,-9l-3,-8l1,-4l-2,-4l-15,-1l-9,10v22l-2,3l1,7l6,6l3,11l4,6l-1,17l-3,5v11l4,6l-4,6"/>
</svg>