<?xml version="1.0" encoding="utf-8"?>
<!DOCTYPE svg PUBLIC "-//W3C//DTD SVG 1.1//EN" "http://www.w3.org/Graphics/SVG/1.1/DTD/svg11.dtd">
<svg version="1.1" xmlns="http://www.w3.org/2000/svg" width="1000" height="616" viewBox="0 0 1000 616">
  <path class="state" d="M850,464l-3,-2l-7,3v4l-5,8l-2,-5l-3,4l5,4l-2,4l-8,6l-8,1l2,-6l-3,-5l-3,10l-27,6l-5,8l-6,-5l6,-6v-6l4,-4l-3,-13l3,-7l-3,-6l9,-4l-9,-1l10,-6l-4,-6l-8,5l3,-5l8,-2l1,-7l-4,-4l1,-5l1,-1l-10,3l2,7l-3,1l-3,-4l-10,-1l2,-4l-7,1l4,10v11l-11,-11l-2,2l6,10l-5,-2l1,11l-18,1l6,3l-10,5l-1,-1l-6,1l4,6l-2,9l-3,-14l-5,-3l-3,3l-2,-7l-4,2l6,13l-2,3l-6,-6v10l-4,1l-4,-7l-1,5l4,1l5,16l-5,1v8l-4,-7l-4,-1v9l-7,-1l-8,6l-8,-4h-7l12,-3l-2,-15l-5,-4l3,9l-3,10l-8,-10l-5,-1l6,7l3,8l-8,3v-4l-1,-1v-1l-1,-13v-5l-1,-3l-3,-11v-7l1,-1l1,-10v-2h-2l-1,-1h-4l-1,-1h-3v-2h-3v-1h-3v-1l8,-10l3,-6l6,-6l1,-6l5,-4l-2,-20l-2,13l2,4l-5,4v6l-8,11l-11,3v-4l-5,-3v6l-3,-4l-4,-8l-1,-1l-2,-2l-2,-1l-3,-1v-1h-1l-1,-1l-2,-1l-2,-1h-2v-2h-1l-1,-1l-2,-1l-1,-1l1,-1l-1,-1l-2,-2v-1h-1l1,-1v-3l-2,-5l1,-8l1,-2l-1,-11l1,-5h-4l-6,1l-2,-1v-43h-24l-3,1h-16l-5,1h-22l-14,1h-27v-5h-38l-1,-1h-13l-11,-1h-24l-1,-1h-53l-8,-1h-9l-9,-1l-34,1l-3,1l-3,1h-6l-1,-1v-1h-7l-6,-1l-5,-1h-21l1,2v1l-1,3l-1,-1l-1,1v-1h-1h1v1h-1h1v1h1l-1,1v2l-1,2l-13,2l1,-14l-12,-1h-6l-42,-1h-2l-2,-1h-13l-34,-2l-4,-1h-17l-4,-1l-21,-1h-24l-1,-3l-1,-4v-6l4,-15l8,-29l19,-62l5,-19l5,-16v-3l1,-2v-1l4,-12l6,-20l2,-6l6,-21l4,-15l1,-5l3,-8l17,1l34,1h2l4,1h7l23,1l43,2l24,1h10l17,1h2l26,2h20l4,1h12l12,1h13l1,1h28l1,1h22l4,1h13l5,1l36,1h17l33,1h9l5,1h14l7,1h33l4,1h14l5,-7l2,-4h1l4,-4l1,-2h10l7,2l-1,-5v-9l-1,-5l8,-8l7,-3l17,6l1,-3l2,-7l1,-3l7,-7l5,-1h1l2,-1l6,-1h1l4,-3l4,-2v-1h1l4,-1h3l14,9l8,-3l2,17l-16,2l6,6l11,-2l1,9l9,27l-4,1l-6,-23l-4,4l1,12l7,5l1,6l12,2l5,7l-9,-4l-5,1l9,2l-5,8l12,-1v-5l13,4l-3,-5l10,-9l5,2v8h7l2,9h-4l-8,8l-5,12l-1,-10h-4l-2,6l-8,6l-4,-1l-8,3l-2,3l-7,-1l-8,5l-12,1l-4,7v11l5,-8l7,3l-4,7l-6,4l-4,7l-8,-2l-4,7l1,5l7,2l-7,4l-1,-14l-8,3l-4,6l-2,9l3,6h4v11l1,1l-1,1l-2,-2l1,-5l-5,1l-2,-5v1l-2,1h1l-1,4l1,1l3,1l1,1l-6,4l-10,-9l3,-5l-4,-2l-6,1l1,-2l-1,1v-4h-1v5l8,4l-5,3l1,1l3,4l10,5v2l-8,2l-1,11l2,6v-6l9,1l-4,3l13,9l6,-5l-2,10l5,-3l1,3l5,-5h6l3,6l2,-7h4l-5,-5l-1,-11l4,12l11,4l10,5l-1,4h1v-1l6,-3l3,9l8,6l2,14l-5,2l5,1l4,6h1l4,6h1l10,14l-2,9l5,10l7,8l-7,7l-2,-2l6,-7l-9,-11l-5,2l-2,8l-9,4l3,7l6,4l4,7l8,3l-5,-12l8,15l10,-4l9,8l5,14l2,11l-5,14l2,3l1,2l15,14l18,7l14,3h17l1,5l-5,-2l-10,1l-1,3l7,2h12l5,-2l7,-7l10,-6l13,-4l6,1l18,-7l8,-4l6,-8v-11l-2,-14l3,-11l-5,2l-6,-9l-9,9v-11l-2,-2v-19l-3,-11l-10,-9l-6,-3l-7,1l-5,4v8l-3,1l-3,-8l-8,-8l6,-4l9,-1l11,1l12,5l11,8l8,9l11,20l12,34l1,18l-4,-1l4,6l3,-3l3,23v21l-1,-21l-3,-8h-5l-2,9l-7,1l-1,8l5,-3l2,5h7v13l-4,7l-4,-6l-2,4l-5,-5l-24,4l-12,4l-15,2l-7,4l-7,3l-3,6l-3,-5l8,-3l-3,-4l-6,-1l-1,4l-11,4l-10,-3l-3,7l-8,3ZM850,464l-1,6l-7,1l1,-5ZM955,559l11,19l4,10l-2,6l-12,6l-13,-2l-15,1l-13,-4l-17,-9l9,-1l-1,-5h22l6,2l1,4l6,-7l5,1l6,-5l-2,-3l8,-4l-6,-6l-3,7l-9,7l8,-9l4,-14ZM956,491l-4,-2l6,-9v-12l6,-13l-5,23v10ZM888,575l6,6l-6,-1l-4,-4ZM798,526l4,-2l3,-5l4,5v10l-4,4l14,6l4,3l-1,12l2,3h9l-2,-4l-8,-3v-4l9,-6l5,6l1,11h-38l-23,2l-15,3l-9,7l-2,6l-10,-7l-7,-7l7,-6l6,3l1,7l6,-4l-1,-6l7,-8l1,-6l6,-5l3,-8l8,-3l3,-7l7,-2l8,-6ZM769,504l7,2l-9,2l-2,6l-11,4l1,4l-12,6l-1,-7l9,-4l9,-9ZM739,525l2,4l-6,2l-2,-6ZM730,534l-6,4h-8l13,-9Z"/>
<g class="geos"><path data-name="Hampshire" class="geo-015" d="M168,132l26,6l2,5l-2,6l1,9l18,4l10,4l2,6l14,-2l-1,16l10,-1l17,-4l31,-4v9l29,-4l3,17l2,2l1,17l-2,5l6,-4l6,-9l8,-3l3,17l16,-3l2,7l-2,15l-3,2l-18,4l-12,4l-7,7l1,5l-10,1l-2,-17l-11,1l-27,5l-14,1l-6,-7l1,-6l6,-7l-3,-7h-1l-5,5l-6,16l-10,5l1,11l-24,-6l-3,-7v-7l-6,1v-4l-11,2l-4,8l-11,-8l8,-9v-24l-3,-3l-16,-1l-12,10l-1,3l-7,-1l-2,-4l-7,-4l-1,-18l1,-3l15,3l4,-24l3,-8l1,-10l4,-14Z"/><path data-name="Suffolk" class="geo-025" d="M679,184l1,-4l1,-7l3,2v1l7,2l-2,9l3,6h4v11l1,1l-1,1l-2,-2l1,-5l-5,1l-2,-5v1l-2,1h1l-1,4l1,1l3,1l1,1l-6,4l-10,-9l3,-5l-4,-2ZM677,231l-4,2v3h-10l-5,3l1,5l-6,6l-7,-9l-8,-9l-1,-1l7,-7l4,2l8,-9l3,-10h-5l-8,7l-3,-1l1,-9l12,-2l1,3l10,-1l3,-4l1,1l3,4l10,5v2l-8,2l-1,11ZM670,200l-3,-7l8,4Z"/><path data-name="Barnstable" class="geo-001" d="M790,421l-1,-7l15,-7l8,-9l1,2l15,14l18,7l14,3h17l1,5l-5,-2l-10,1l-1,3l7,2h12l5,-2l7,-7l10,-6l13,-4l6,1l18,-7l8,-4l6,-8v-11l-2,-14l3,-11l-5,2l-6,-9l-9,9v-11l-2,-2v-19l-3,-11l-10,-9l-6,-3l-7,1l-5,4v8l-3,1l-3,-8l-8,-8l6,-4l9,-1l11,1l12,5l11,8l8,9l11,20l12,34l1,18l-4,-1l4,6l3,-3l3,23v21l-1,-21l-3,-8h-5l-2,9l-7,1l-1,8l5,-3l2,5h7v13l-4,7l-4,-6l-2,4l-5,-5l-24,4l-12,4l-15,2l-7,4l-7,3l-3,6l-3,-5l8,-3l-3,-4l-6,-1l-1,4l-11,4l-10,-3l-3,7l-8,3v-6l-3,-2l-7,3v4l-5,8l-2,-5l-3,4l5,4l-2,4l-8,6l-8,1l2,-6l-3,-5l-3,10l-27,6l-5,8l-6,-5l6,-6v-6l4,-4l-3,-13l3,-7l-3,-6l9,-4l-9,-1l10,-6l-4,-6l-8,5l3,-5l8,-2l1,-7l-4,-4l1,-5ZM850,464l-1,6l-7,1l1,-5ZM956,491l-4,-2l6,-9v-12l6,-13l-5,23v10Z"/><path data-name="Worcester" class="geo-027" d="M341,210v-23l1,-1l2,-5l6,-6l-2,-14l11,-12l-6,-10l-1,-13h3l-1,-8l4,-4l6,-1v-17l-11,-5l-3,-16h13l1,1h28l1,1h22l4,1h13l5,1h14l9,11l2,2l-1,15l22,-2l3,-1l24,10l1,3l-2,26l11,3l3,-10l6,3l5,-3l12,3l2,9l-8,16l4,6l-4,16l-11,5l5,4l-6,5l-5,8l10,14l4,-4l11,-3h11v9l-5,10l-4,3l-1,1h-6l-2,-1h-1l-8,3l-3,15l5,8l7,3v1l4,-2h10l1,8h6v13l-7,5l1,5v31h-12l-5,1h-22l-14,1h-27v-5h-38l-1,-1h-13l-11,-1h-24l-1,-1v-47l-17,3v-3l-17,-8v-6l11,-15l3,-2l2,-15l-2,-7l-16,3l-3,-17Z"/><path data-name="Nantucket" class="geo-019" d="M955,559l11,19l4,10l-2,6l-12,6l-13,-2l-15,1l-13,-4l-17,-9l9,-1l-1,-5h22l6,2l1,4l6,-7l5,1l6,-5l-2,-3l8,-4l-6,-6l-3,7l-9,7l8,-9l4,-14ZM888,575l6,6l-6,-1l-4,-4Z"/><path data-name="Dukes" class="geo-007" d="M798,526l4,-2l3,-5l4,5v10l-4,4l14,6l4,3l-1,12l2,3h9l-2,-4l-8,-3v-4l9,-6l5,6l1,11h-38l-23,2l-15,3l-9,7l-2,6l-10,-7l-7,-7l7,-6l6,3l1,7l6,-4l-1,-6l7,-8l1,-6l6,-5l3,-8l8,-3l3,-7l7,-2l8,-6ZM769,504l7,2l-9,2l-2,6l-11,4l1,4l-12,6l-1,-7l9,-4l9,-9ZM739,525l2,4l-6,2l-2,-6ZM730,534l-6,4h-8l13,-9Z"/><path data-name="Hampden" class="geo-013" d="M160,218l12,-10l16,1l3,3v24l-8,9l11,8l4,-8l11,-2v4l6,-1v7l3,7l24,6l-1,-11l10,-5l6,-16l5,-5h1l3,7l-6,7l-1,6l6,7l14,-1l27,-5l11,-1l2,17l10,-1l-1,-5l7,-7l12,-4l18,-4l-11,15v6l17,8v3l17,-3v47h-53l-8,-1h-9l-8,-1l-35,1l-3,1l-3,1h-6l-1,-1v-1h-7l-6,-1l-5,-1h-21l1,2v1l-1,3l-1,-1l-1,1v-1h-1h1v1h-1h1v1h1l-1,1v2l-2,2l-12,2l1,-14l-12,-1h-6l-42,-1h-2l-2,-1v-6l-4,-13l2,-8l-1,-11l9,2l3,-14l7,-24Z"/><path data-name="Berkshire" class="geo-003" d="M67,151v-1l4,-12l6,-20l2,-6l6,-21l4,-15l1,-5l3,-8l15,1l36,1h2l4,1h7l-1,14l20,-1l-1,5h-6l-6,6l5,4l6,-1l1,5l-4,23l-3,11l2,6l-4,14l-1,10l-3,8l-4,24l-15,-3l-1,3l1,18l7,4l2,4l7,1l1,-3v23l-7,24l-3,14l-9,-2l1,11l-2,8l4,13v6h-13l-34,-2l-4,-1h-17l-4,-1l-21,-1h-24l-1,-3l-1,-4v-6l4,-15l8,-29l19,-62l5,-19l5,-16v-3Z"/><path data-name="Bristol" class="geo-005" d="M597,369h-2l-6,1l-2,-9v-23h5l28,-16l10,-4l21,-12l15,-8l8,39l1,8l9,7l4,5l1,5h2v3h-1h2l4,16l-8,6l-8,10l5,6l-2,8l27,-5l4,10l6,1l6,26l3,8l2,13v-1l-6,1l4,6l-2,9l-3,-14l-5,-3l-3,3l-2,-7l-4,2l6,13l-2,3l-6,-6v10l-4,1l-4,-7l-1,5l4,1l5,16l-5,1v8l-4,-7l-4,-1v9l-7,-1l-8,6l-8,-4h-7l12,-3l-2,-15l-5,-4l3,9l-3,10l-8,-10l-5,-1l6,7l3,8l-8,3v-4l-1,-1v-1l-1,-13v-5l-1,-3l-3,-11v-7l1,-1l1,-10v-2h-2l-1,-1h-4l-1,-1h-3v-2h-3v-1h-3v-1l8,-10l3,-6l6,-6l1,-6l5,-4l-2,-20l-2,13l2,4l-5,4v6l-8,11l-11,3v-4l-5,-3v6l-3,-4l-4,-8l-1,-1l-2,-2l-2,-1l-3,-1v-1h-1l-1,-1l-2,-1l-2,-1h-2v-2h-1l-1,-1l-2,-1l-1,-1l1,-1l-1,-1l-2,-2v-1h-1l1,-1v-3l-2,-5l1,-8l1,-2l-1,-11l1,-5Z"/><path data-name="Middlesex" class="geo-017" d="M460,90l-9,-11l22,1h17l33,1h9l5,1h14l7,1h33l4,1h14l5,-7l2,-4h1l3,-3l4,25l-4,3l21,13l-1,4h-1l5,4l1,-5l3,1l3,3l13,-1l7,-2l7,8v5h-5l-2,-1l-4,9v7l4,2l6,3v1l1,1l-5,12l8,11l-1,7l-1,4l-5,8l-6,1l1,-1v-1h-1v1v-4h-1v5l3,7l-3,4l-10,1l-1,-3l-12,2l-1,9l3,1l-5,7l3,3l-7,7l-4,-2l-6,-11l-11,-3l-15,6l5,14l1,8h-7l1,6l-4,12l-16,4l1,4h-9l-7,7l-4,1v-4h-6l-1,-8h-10l-4,2v-1l-7,-3l-5,-8l3,-15l8,-3h1l2,1h6l1,-1l4,-3l5,-10v-9h-11l-11,3l-4,4l-10,-14l5,-8l6,-5l-5,-4l11,-5l4,-16l-4,-6l8,-16l-2,-9l-12,-3l-5,3l-6,-3l-3,10l-11,-3l2,-26l-1,-3l-24,-10l-3,1l-22,2l1,-15Z"/><path data-name="Essex" class="geo-009" d="M670,42l2,-7l1,-3l7,-7l5,-1h1l2,-1l6,-1h1l4,-3l4,-2v-1h1l4,-1h3l14,9l8,-3l2,17l-16,2l6,6l11,-2l1,9l9,27l-4,1l-6,-23l-4,4l1,12l7,5l1,6l12,2l5,7l-9,-4l-5,1l9,2l-5,8l12,-1v-5l13,4l-3,-5l10,-9l5,2v8h7l2,9h-4l-8,8l-5,12l-1,-10h-4l-2,6l-8,6l-4,-1l-8,3l-2,3l-7,-1l-8,5l-12,1l-4,7v11l5,-8l7,3l-4,7l-6,4l-4,7l-8,-2l-4,7l1,5l7,2l-7,4l-1,-14l-8,3l-4,6l-7,-2v-1l-3,-2l-8,-11l5,-12l-1,-1v-1l-6,-3l-4,-2v-7l4,-9l2,1h5v-5l-7,-8l-7,2l-13,1l-3,-3l-3,-1l-1,5l-5,-4h1l1,-4l-21,-13l4,-3l-4,-25l1,-1l1,-2h10l7,2l-1,-5v-9l-1,-5l8,-8l7,-3l17,6Z"/><path data-name="Norfolk" class="geo-021" d="M734,237l10,5l-1,4h1v-1l-1,7l-8,6l-4,-1l-5,-11l2,-8ZM616,215l11,3l6,11l4,2l1,1l8,9l7,9l6,-6l-1,-5l5,-3h10v-3l4,-2v-6l9,1l-4,3l13,9l6,-5l-2,10l5,-3l1,3l5,8l-3,25l-5,3l-36,19l-15,8l-21,12l-10,4l-28,16h-5v-12h-24l-3,1h-4v-31l-1,-5l7,-5v-9l4,-1l7,-7h9l-1,-4l16,-4l4,-12l-1,-6h7l-1,-8l-5,-14ZM646,214l8,-7h5l-3,10l-8,9l-4,-2l-3,-3Z"/><path data-name="Plymouth" class="geo-023" d="M666,298l36,-19l5,-3l3,-25l-5,-8l5,-5h6l3,6l2,-7h4l-5,-5l-1,-11l4,12l11,4l-6,1l-2,8l5,11l4,1l8,-6l1,-7l6,-3l3,9l8,6l2,14l-5,2l5,1l4,6h1l4,6h1l10,14l-2,9l5,10l7,8l-7,7l-2,-2l6,-7l-9,-11l-5,2l-2,8l-9,4l3,7l6,4l4,7l8,3l-5,-12l8,15l10,-4l9,8l5,14l2,11l-5,14l2,3l-8,9l-15,7l1,7l-10,3l2,7l-3,1l-3,-4l-10,-1l2,-4l-7,1l4,10v11l-11,-11l-2,2l6,10l-5,-2l1,11l-18,1l6,3l-10,5h-1l-2,-13l-3,-8l-6,-26l-6,-1l-4,-10l-27,5l2,-8l-5,-6l8,-10l8,-6l-4,-16h-2h1v-3h-2l-1,-5l-4,-5l-9,-7l-1,-8Z"/><path data-name="Franklin" class="geo-011" d="M157,66l23,1l43,2l24,1h10l17,1h2l13,1l13,1h20l4,1h12l12,1l3,16l11,5v17l-6,1l-4,4l1,8h-3l1,13l6,10l-11,12l2,14l-6,6l-2,5l-1,1v23l-6,9l-6,4l2,-5l-1,-17l-2,-2l-3,-17l-29,4v-9l-31,4l-17,4l-10,1l1,-16l-14,2l-2,-6l-10,-4l-18,-4l-1,-9l2,-6l-2,-5l-26,-6l3,-11l4,-23l-1,-5l-6,1l-5,-4l6,-6h6l1,-5l-20,1Z"/></g>
  <path class="counties-mesh" d="M620,70l4,25l-4,3l21,13l-1,4h-1l5,4l1,-5l3,1l3,3l13,-1l7,-2l7,8v5h-5l-2,-1l-4,9v7l4,2l6,3v1l1,1l-5,12l8,11l3,2v1l7,2M674,192l5,-8l1,-4l1,-7M677,231l-4,2v3h-10l-5,3l1,5l-6,6l-7,-9l-8,-9l-1,-1l7,-7l4,2l8,-9l3,-10h-5l-8,7l-3,-1l1,-9l12,-2l1,3l10,-1l3,-4l-3,-7M790,421l-1,-7l15,-7l8,-9M341,210v-23l1,-1l2,-5l6,-6l-2,-14l11,-12l-6,-10l-1,-13h3l-1,-8l4,-4l6,-1v-17l-11,-5l-3,-16M248,185l17,-4l31,-4v9l29,-4l3,17l2,2l1,17l-2,5l6,-4l6,-9l8,-3l3,17l16,-3l2,7l-2,15l-3,2l-18,4l-12,4l-7,7l1,5l-10,1l-2,-17l-11,1l-27,5l-14,1l-6,-7l1,-6l6,-7l-3,-7h-1l-5,5l-6,16l-10,5l1,11l-24,-6l-3,-7v-7l-6,1v-4l-11,2l-4,8l-11,-8l8,-9v-24l-3,-3l-16,-1l-12,10l-1,3l-7,-1l-2,-4l-7,-4l-1,-18l1,-3l15,3l4,-24l3,-8l1,-10l4,-14l-2,-6l26,6l2,5l-2,6l1,9l18,4l10,4l2,6l14,-2l-1,16l10,-1M451,79l9,11l2,2l-1,15l22,-2l3,-1l24,10l1,3l-2,26l11,3l3,-10l6,3l5,-3l12,3l2,9l-8,16l4,6l-4,16l-11,5l5,4l-6,5l-5,8l10,14l4,-4l11,-3h11v9l-5,10l-4,3l-1,1h-6l-2,-1h-1l-8,3l-3,15l5,8l7,3v1l4,-2h10l1,8h6v13l-7,5l1,5v31M388,321v-47l-17,3v-3l-17,-8v-6l11,-15M144,315v-6l-4,-13l2,-8l-1,-11l9,2l3,-14l7,-24v-23M157,66l-1,14l20,-1l-1,5h-6l-6,6l5,4l6,-1l1,5l-4,23l-3,11M587,338h5l28,-16l10,-4l21,-12l15,-8l8,39l1,8l9,7l4,5l1,5h2v3h-1h2l4,16l-8,6l-8,10l5,6l-2,8l27,-5l4,10l6,1l6,26l3,8l2,13M637,231l-4,-2l-6,-11l-11,-3l-15,6l5,14l1,8h-7l1,6l-4,12l-16,4l1,4h-9l-7,7l-4,1M646,214l-5,7l3,3M744,245l-1,7l-8,6l-4,-1l-5,-11l2,-8l6,-1M705,243l5,8l-3,25l-5,3l-36,19"/>
<g class="districts"><path data-name="Congressional District 1" class="district-2501" d="M67,151v-1l4,-12l6,-20l2,-6l6,-21l4,-15l1,-5l3,-8l15,1l36,1h2l4,1h7l23,1l43,2l24,1h10l17,1h2l13,1l7,23l-39,7l-5,31h-4l6,9l-4,22l1,4l-12,2l-1,16l10,-1l-1,14l-18,2v28l24,-2l9,2h1l9,-6l22,1l7,-2l5,28l11,-1l2,17l10,-1l-1,-5l7,-7v4h9l3,-8l18,-4l3,-2l7,-1l2,6l1,1l3,4l4,14l4,-12h4l1,-7l3,2h15l4,-3l2,20l28,-2l1,10l5,32l3,-2l-2,9l1,10h-16l-1,-1h-13l-11,-1h-24l-1,-1h-53l-8,-1h-9l-8,-1l-35,1l-3,1l-3,1h-6l-1,-1v-1h-7l-6,-1l-5,-1h-21l1,2v1l-1,3l-1,-1l-1,1v-1h-1h1v1h-1h1v1h1l-1,1v2l-2,2l-12,2l1,-14l-12,-1h-6l-42,-1h-2l-2,-1h-13l-34,-2l-4,-1h-17l-4,-1l-21,-1h-24l-1,-3l-1,-4v-6l4,-15l8,-29l19,-62l5,-19l5,-16v-3Z"/><path data-name="Congressional District 2" class="district-2502" d="M248,185l-10,1l1,-16l12,-2l-1,-4l4,-22l-6,-9h4l5,-31l39,-7l-7,-23l13,1h20l4,1h12l12,1h13l1,1h28l1,1h10l5,3l3,10l-7,3v16l10,11l-1,6l7,1l-3,5l31,27l12,-11l6,1l1,-12l8,1l9,-5l6,5l-1,-6l2,-4l11,14l-4,6l-3,15l3,1v22l-2,7l7,-2l7,3l-1,9l10,1l4,4l10,14l11,14l-1,2l-2,-1h-1l-8,3l-3,15l5,8l7,3v3h-1l-3,12l11,15h8v25l5,-3l4,1l2,-7v14h-4l-3,1h-16l-5,1h-22l-14,1h-27v-5h-22l-1,-10l2,-9l-3,2l-5,-32l-1,-10l-28,2l-2,-20l-4,3h-15l-3,-2l-1,7h-4l-4,12l-4,-14l-3,-4l-1,-1l-2,-6l-7,1l-3,2l-18,4l-3,8h-9v-4l-7,7l1,5l-10,1l-2,-17l-11,1l-5,-28l-7,2l-22,-1l-9,6h-1l-9,-2l-24,2v-28l18,-2Z"/><path data-name="Congressional District 3" class="district-2503" d="M403,77h12l4,1h13l5,1h14l22,1h17l33,1h9l5,1h14l7,1h33l4,1h14l5,-7l2,-4h1l3,-3l1,-1l1,-2h10l7,2l-1,-5v-9l-1,-5l8,-8l7,-3l17,6l1,-3l2,-7l14,8l-5,6v5l-6,9l-4,6h-16l-7,14l1,2h1v2l3,5l-5,8v6l4,-3l2,10l-6,2l-3,-1l-1,5l-5,-4h1l1,-4l-21,-13h-5v9l-3,6l-12,18l6,12l-2,8v12l7,3l-4,1l-13,13l-3,5l-8,-4l-4,5l-15,3l-4,16l-1,10h-11l-11,3l-4,4l-10,-14l-4,-4l-10,-1l1,-9l-7,-3l-7,2l2,-7v-22l-3,-1l3,-15l4,-6l-11,-14l-2,4l1,6l-6,-5l-9,5l-8,-1l-1,12l-6,-1l-12,11l-31,-27l3,-5l-7,-1l1,-6l-10,-11v-16l7,-3l-3,-10Z"/><path data-name="Congressional District 4" class="district-2504" d="M540,237h1l2,1h6v4l10,2v6h6l2,5l-12,10l1,8h6v4l4,-1l7,-7h9l-1,-4l16,-4l4,-12l-1,-6h7l-1,-8l-5,-14l15,-6l4,-4l-1,-5l10,-5l15,3l-1,9l3,1l8,-7h5l-3,10l-8,9l-4,-2l-7,7l1,1l-2,4l-10,3l-4,21h-4l-3,5v14h-7v8l6,13l11,-6l1,-9l12,-7l3,-5l2,6l5,4l5,9l-2,14l15,-8l8,39l-9,-2l2,5l-2,13l6,-3l13,10l1,5l4,-3h2v3h-1v1v-1h3l18,10l-1,9l7,8v13l-7,1l4,10l-5,2l1,1l-24,16v-13l-16,-4l-1,6l-4,3h-3l-1,8l-5,5l-11,1v-4l3,-6l6,-6l1,-6l5,-4l-2,-20l-2,13l2,4l-5,4v6l-8,11l-11,3v-4l-5,-3v6l-3,-4l-4,-8l-1,-1l-2,-2l-2,-1l-3,-1v-1h-1l-1,-1l-2,-1l-2,-1h-2v-2h-1l-1,-1l-2,-1l-1,-1l1,-1l-1,-1l-2,-2v-1h-1l1,-1v-3l-2,-5l1,-8l1,-2l-1,-11l1,-5h-4l-6,1l-2,-9v-35h-20v-14l-2,7l-4,-1l-5,3v-25h-8l-11,-15l3,-12h1v-3l-7,-3l-5,-8l3,-15Z"/><path data-name="Congressional District 5" class="district-2505" d="M533,222l4,-4l11,-3h11l1,-10l4,-16l15,-3l4,-5l8,4l3,-5l13,-13l4,-1l5,2l2,-6l6,-5l7,9l12,-7v-10l8,-6l4,10h9l3,5l-1,5l7,-1l8,11l3,2v1l7,2l-2,9l3,6h4v11l-1,1l-1,-1l1,-5l-5,1l-2,-5v1l1,-5h-4l-6,-7l1,-4l-12,4v4h-1v2l-10,-1l-5,-5v4l-6,3l6,4l4,-2l5,7l-5,2l-12,2l-15,-3l-10,5l1,5l-4,4l-15,6l5,14l1,8h-7l1,6l-4,12l-16,4l1,4h-9l-7,7l-4,1v-4h-6l-1,-8l12,-10l-2,-5h-6v-6l-10,-2v-4h-6l1,-2Z"/><path data-name="Congressional District 6" class="district-2506" d="M620,98l21,13l-1,4h-1l5,4l1,-5l3,1l6,-2l-2,-10l-4,3v-6l5,-8l-3,-5v-2h-1l-1,-2l7,-14h16l4,-6l6,-9v-5l5,-6l-14,-8l1,-3l7,-7l5,-1h1l2,-1l6,-1h1l4,-3l4,-2v-1h1l4,-1h3l14,9l8,-3l2,17l-16,2l6,6l11,-2l1,9l9,27l-4,1l-6,-23l-4,4l1,12l7,5l1,6l12,2l5,7l-9,-4l-5,1l9,2l-5,8l12,-1v-5l13,4l-3,-5l10,-9l5,2v8h7l2,9h-4l-8,8l-5,12l-1,-10h-4l-2,6l-8,6l-4,-1l-8,3l-2,3l-7,-1l-8,5l-12,1l-4,7v11l5,-8l7,3l-4,7l-6,4l-4,7l-8,-2l-4,7l1,5l7,2l-7,4l-1,-14l-8,3l-4,6l-7,-2v-1l-3,-2l-8,-11l-7,1l1,-5l-3,-5h-9l-4,-10l-8,6v10l-12,7l-7,-9l-6,5l-2,6l-5,-2l-7,-3v-12l2,-8l-6,-12l12,-18l3,-6v-9Z"/><path data-name="Congressional District 7" class="district-2507" d="M644,204l12,-2l5,-2l-5,-7l-4,2l-6,-4l6,-3v-4l5,5l10,1v3l8,4l-5,3l-3,4l7,3l-4,9l4,2l-1,15v3h-10v11l4,6l-1,6h7l1,-1l1,5l8,3v2l-4,15l-15,-17l-11,-16l-7,-9v-3l12,-13l2,-7l-4,-1l3,-10h-5l-8,7l-3,-1ZM668,188v-4l12,-4l-1,4l6,7h4l-1,5l-2,1h1l-1,5h1l3,1l1,1l-6,4l-10,-9l3,-5l-4,-2l-6,1l1,-2l-1,1v-4Z"/><path data-name="Congressional District 8" class="district-2508" d="M638,232l-1,-1l7,-7l4,2l8,-9l4,1l-2,7l-12,13v3l7,9l11,16l15,17l4,-15v-2l-8,-3l-1,-5l-1,1h-7l1,-6l-4,-6v-11h10v-3l1,-15l-4,-2l4,-9l-7,-3l3,-4l1,1l3,4l10,5v2l-8,2l-1,11l2,6v-6l9,1l-4,3l13,9l6,-5l-2,10l5,-3l1,3l5,-5h6l3,6l2,-7h4l-5,-5l-1,-11l4,12l11,4l10,5l-1,4h1v-1l6,-3l3,9l8,6l2,14l-5,2h-5l-6,-7l-9,-4h-7l-24,14l-5,3l3,9l9,13h-3l2,14l3,7l-1,16l-2,5l-7,3l-3,9l-7,-2l-8,4l1,5h2v3h-1v1v-1h1v-3h-2l-4,3l-1,-5l-13,-10l-6,3l2,-13l-2,-5l9,2l-8,-39l-15,8l2,-14l-5,-9l-5,-4l-2,-6l-3,5l-12,7l-1,9l-11,6l-6,-13v-8h7v-14l3,-5h4l4,-21l10,-3Z"/><path data-name="Congressional District 9" class="district-2509" d="M645,437v4l11,-1l5,-5l1,-8h3l4,-3l1,-6l16,4v13l24,-16l-1,-1l5,-2l-4,-10l7,-1v-13l-7,-8l1,-9l-18,-10h-3h1v-3h-2l-1,-5l8,-4l7,2l3,-9l7,-3l2,-5l1,-16l-3,-7l-2,-14h3l-9,-13l-3,-9l5,-3l24,-14h7l9,4l6,7h5l5,1l4,6h1l5,6l10,14l-2,9l5,10l7,8l-7,7l-2,-2l6,-7l-9,-11l-5,2l-2,8l-9,4l3,7l6,4l4,7l8,3l-5,-12l8,15l10,-4l9,8l5,14l2,11l-5,14l2,3l1,2l15,14l18,7l14,3h17l1,5l-5,-2l-10,1l-1,3l7,2h12l5,-2l7,-7l10,-6l13,-4l6,1l18,-7l8,-4l6,-8v-11l-2,-14l3,-11l-5,2l-6,-9l-9,9v-11l-2,-2v-19l-3,-11l-10,-9l-6,-3l-7,1l-5,4v8l-3,1l-3,-8l-8,-8l6,-4l9,-1l11,1l12,5l11,8l8,9l11,20l12,34l1,18l-4,-1l4,6l3,-3l3,23v21l-1,-21l-3,-8h-5l-2,9l-7,1l-1,8l5,-3l2,5h7v13l-4,7l-4,-6l-2,4l-5,-5l-24,4l-12,4l-15,2l-7,4l-7,3l-3,6l-3,-5l8,-3l-3,-4l-6,-1l-1,4l-11,4l-10,-3l-3,7l-8,3v-6l-3,-2l-7,3v4l-5,8l-2,-5l-3,4l5,4l-2,4l-8,6l-8,1l2,-6l-3,-5l-3,10l-27,6l-5,8l-6,-5l6,-6v-6l4,-4l-3,-13l3,-7l-3,-6l9,-4l-9,-1l10,-6l-4,-6l-8,5l3,-5l8,-2l1,-7l-4,-4l1,-5l1,-1l-10,3l2,7l-3,1l-3,-4l-10,-1l2,-4l-7,1l4,10v11l-11,-11l-2,2l6,10l-5,-2l1,11l-18,1l6,3l-10,5l-1,-1l-6,1l4,6l-2,9l-3,-14l-5,-3l-3,3l-2,-7l-4,2l6,13l-2,3l-6,-6v10l-4,1l-4,-7l-1,5l4,1l5,16l-5,1v8l-4,-7l-4,-1v9l-7,-1l-8,6l-8,-4h-7l12,-3l-2,-15l-5,-4l3,9l-3,10l-8,-10l-5,-1l6,7l3,8l-8,3v-4l-1,-1v-1l-1,-13v-5l-1,-3l-3,-11v-7l1,-1l1,-10v-2h-2l-1,-1h-4l-1,-1h-3v-2h-3v-1h-3v-1ZM850,464l-1,6l-7,1l1,-5ZM955,559l11,19l4,10l-2,6l-12,6l-13,-2l-15,1l-13,-4l-17,-9l9,-1l-1,-5h22l6,2l1,4l6,-7l5,1l6,-5l-2,-3l8,-4l-6,-6l-3,7l-9,7l8,-9l4,-14ZM956,491l-4,-2l6,-9v-12l6,-13l-5,23v10ZM888,575l6,6l-6,-1l-4,-4ZM798,526l4,-2l3,-5l4,5v10l-4,4l14,6l4,3l-1,12l2,3h9l-2,-4l-8,-3v-4l9,-6l5,6l1,11h-38l-23,2l-15,3l-9,7l-2,6l-10,-7l-7,-7l7,-6l6,3l1,7l6,-4l-1,-6l7,-8l1,-6l6,-5l3,-8l8,-3l3,-7l7,-2l8,-6ZM769,504l7,2l-9,2l-2,6l-11,4l1,4l-12,6l-1,-7l9,-4l9,-9ZM739,525l2,4l-6,2l-2,-6ZM730,534l-6,4h-8l13,-9Z"/></g>
  <path class="districts-mesh" d="M543,238l-2,-1h-1l-8,3l-3,15l5,8l7,3v3h-1l-3,12l11,15h8v25l5,-3l4,1l2,-7v14M289,72l7,23l-39,7l-5,31h-4l6,9l-4,22l1,4l-12,2l-1,16l10,-1l-1,14l-18,2v28l24,-2l9,2h1l9,-6l22,1l7,-2l5,28l11,-1l2,17l10,-1l-1,-5l7,-7v4h9l3,-8l18,-4l3,-2l7,-1l2,6l1,1l3,4l4,14l4,-12h4l1,-7l3,2h15l4,-3l2,20l28,-2l1,10l5,32l3,-2l-2,9l1,10M403,77l5,3l3,10l-7,3v16l10,11l-1,6l7,1l-3,5l31,27l12,-11l6,1l1,-12l8,1l9,-5l6,5l-1,-6l2,-4l11,14l-4,6l-3,15l3,1v22l-2,7l7,-2l7,3l-1,9l10,1l4,4l10,14l11,14l-1,2h6v4l10,2v6h6l2,5l-12,10l1,8h6v4l4,-1l7,-7h9l-1,-4l16,-4l4,-12l-1,-6h7l-1,-8l-5,-14l15,-6l4,-4l-1,-5l10,-5l15,3l-1,9l3,1l8,-7h5l-3,10l-8,9l-4,-2l-7,7l1,1l-2,4l-10,3l-4,21h-4l-3,5v14h-7v8l6,13l11,-6l1,-9l12,-7l3,-5l2,6l5,4l5,9l-2,14l15,-8l8,39l-9,-2l2,5l-2,13l6,-3l13,10l1,5l4,-3h2v3h-1v1v-1h3l18,10l-1,9l7,8v13l-7,1l4,10l-5,2l1,1l-24,16v-13l-16,-4l-1,6l-4,3h-3l-1,8l-5,5l-11,1v-4M611,166l5,2l2,-6l6,-5l7,9l12,-7v-10l8,-6l4,10h9l3,5l-1,5l7,-1l8,11l3,2v1l7,2M688,196l1,-5h-4l-6,-7l1,-4l-12,4v4M667,190l-10,-1l-5,-5v4l-6,3l6,4l4,-2l5,7l-5,2l-12,2M670,200l-3,4l7,3l-4,9l4,2l-1,15v3h-10v11l4,6l-1,6h7l1,-1l1,5l8,3v2l-4,15l-15,-17l-11,-16l-7,-9v-3l12,-13l2,-7l-4,-1M672,35l14,8l-5,6v5l-6,9l-4,6h-16l-7,14l1,2h1v2l3,5l-5,8v6l4,-3l2,10l-6,2l-3,-1l-1,5l-5,-4h1l1,-4l-21,-13h-5v9l-3,6l-12,18l6,12l-2,8v12l7,3l-4,1l-13,13l-3,5l-8,-4l-4,5l-15,3l-4,16l-1,10h-11l-11,3l-4,4M758,273h-5l-6,-7l-9,-4h-7l-24,14l-5,3l3,9l9,13h-3l2,14l3,7l-1,16l-2,5l-7,3l-3,9l-7,-2l-8,4l1,5h2v3h-1"/>
</svg>