<?xml version="1.0" encoding="utf-8"?>
<!DOCTYPE svg PUBLIC "-//W3C//DTD SVG 1.1//EN" "http://www.w3.org/Graphics/SVG/1.1/DTD/svg11.dtd">
<svg version="1.1" xmlns="http://www.w3.org/2000/svg" width="1000" height="527" viewBox="0 0 1000 527">
  <path class="state" d="M970,362h5l-1,13l-4,16l-3,6l5,-20ZM666,403l5,7l6,1l8,-5l5,3l-4,3l-2,9l3,10l13,16l2,7l-5,2l-2,-6l-1,9l6,3v14l-8,-3l-1,-6l-7,-6l-1,-6l-4,5l-4,-16l4,-6l-12,-7l8,10l-4,3l3,3l-9,6l-11,-4l-4,-12l-14,-8l-13,-2l12,-9l1,-5l-9,7h-7l-2,-9l-4,-5l3,12l-6,1l1,7l-4,4l-5,-1l-5,-6v-8l-6,-6l-3,-10l7,-6h-5l-8,-9v1l-11,-1l-1,2l14,5l-2,10l3,1l3,10l-1,6l-17,-6v-6l-4,-6l-7,-3l-2,-11l-4,-11l-8,-15v10l-15,10l1,-11l-3,1l-1,11l-3,4l-16,8l-8,-6l-3,-8l1,-7l-3,-8v-8l3,-8l7,-4l-2,-4l8,-1l6,-3h-9l6,-9l8,-2l7,-5l-1,-12l9,-6l10,-3l-1,-3l2,-9l4,-1h-1l-4,-2l1,-13l21,-21v-1l3,-2l1,-1h-1v-1h-1v-1h-1v-1h-1v-1h-1v-1h-1l-1,-1v-1l-1,-1l-2,-2h-1v-1h-1v-1h-1v-1h-1v-1h-1v-1l-1,-1h-1v-1h-1v-1h-1v-1h-1v-1l-3,-2v-1h-1l-1,-1l-1,-1v-1l-1,-1l-1,-1l-1,1l-1,1h-1v1h-1l-1,2h-1v1h-1v1h-1v1l-1,1h-1v1h-1v1l-1,1l-1,1h-1v1h-1l-1,1v1h-1v1l-1,-1l-1,-1v-2h-1v-1l-1,-1l-1,-1v-1h-1l-1,-1h-12v-1h-3l-1,-2h-1l-1,1v-1l-1,-1h-1v-1l-1,-1v-2h-1v-4h1v-1h1v-3h-1v-1h-2l-2,-1h-1l-1,-1h-1v-1h-1v-1h-1l-1,-1h-1l-1,-1h-2v-1h-2v-1h-2v-1h-12l-1,-1h-6v-1h-2l-2,-1h-3l-1,-1h-1v-1l-1,-2v-1h-1l-1,-2v-1l-1,-1v-1l-1,-1h-2l-1,-1h-1l-1,-1h-1l-1,-1l-1,-2v-5l1,-1v-2l1,-2v-1l2,-2v-1h2l3,-1v-1l1,-1l1,-1l-1,-1v-1h1v-1l2,-2l1,-2l-3,-4l-1,-1h-1l-10,-6l-4,-4l-1,-1l-1,-1l-1,-3v-1l-5,-1h-6l-3,-2h-4l-2,-1l-2,-3h-3l-1,1h-7l-1,-1h-2v-1l-2,-1h-1l-1,-1l-1,-1v-3h1l1,-1v-1l1,-1v-1l-1,-1v-1l-1,-1v-3h1l2,-1v-3l-1,-1v-1l-1,-1l-1,-4l-3,-1h-2l-6,-2l1,-2h3v-2h-1l-2,-2l2,-1h3l-4,-5l1,-1l2,-4h-1v1l-1,1h-1l-11,-3v-1l2,-1l1,-1l1,-1h1l-3,-5l-1,4l-1,1h-3v-7l-5,-5v-1h3l4,-1v1h1l3,-1l1,-9l-8,-4h-1l-2,-1l-1,1l1,3v1h-2l-3,-1h-2l-2,-1l-3,-4h-1v1l1,2v5l-1,1l-3,-6l-2,1h-1l-6,1h-1l-2,-2l-1,-1l-1,-1v-1l-10,-13l-5,-3l-19,-5l-4,5h-5l1,4l-7,5l-2,6l-14,-4l-5,-2l-7,5l1,4l-8,-4l-3,1l7,7l-2,4l-7,-3l-3,5l9,7h-10l2,1l-3,6v1h-1v1l-8,-3l-13,1l-4,-5h-8l-7,1l-6,-5h-1v-1l-7,-2l-1,-6l-1,-1l-1,1l-1,1l-6,-6l7,-2l-2,-4l-4,1h-1l2,-6v-1l-6,3l-1,2v3l-1,3l-2,1v1l-1,1l-1,1v4l1,2l-3,1h-3l-4,7l-1,1l-4,3l-1,2v1h-1l-2,1v1l-1,2v1h-1l-3,2l-3,3l-1,2l-2,4l-1,1l-1,3l-1,-1l-9,-5l-6,-5l-1,-1l-2,2v1h-1v-2h-1l-1,-1v2h-2l-1,1h-1l-1,-1l-1,-1h-1l-1,1l1,1l1,2h-3v1l2,1h-1v2h-1l-2,2v1l-2,1v4h-2l-1,1l1,1v1h-2v-2h-3v2l-1,1l-8,4l-3,6l-9,2l-3,8l-4,9l-9,-1l-2,3l-1,1l-2,2h-2l-7,3l-2,5l-1,1l-4,5h-1v1h-1v1h-2l-1,1v1h-1v-1h-1l-2,1v1l-1,1l-1,-1h-1l1,-59h1l1,-30l2,-53l25,1h47l43,1l29,1h9l37,1h71l42,1h54l13,1h222v-1h100l35,-1l52,-1h1v24l1,1v7l1,4v5l1,13v3l1,4v3l1,18l1,3v10l1,3v9l1,4l1,11v22l1,4v5l1,6v5l1,7v7l1,8v3l1,4v5l1,12v1l1,8v8l1,3v10l1,4v9l1,3v8l1,5v4l1,6v6l1,11v5l1,1v11l1,5v6l1,2v4l1,9v7l18,1h98l3,-1h12l-7,4l2,11l-10,-4h-6l12,6v7l7,3v7l-9,11l-2,12l-11,9l3,-11l-13,6l2,4l-4,4l-1,11l-5,4l-1,13l-7,-1l-8,8l3,6l-6,11h-1v1h-3l-5,1h-6l-3,1h-2l-5,1h-6l-1,1h-8v1h-8v1h-4l-8,9l-7,-1l-7,-5l-8,4l-5,-1l-4,5l-5,-1v6l-11,6l-3,-10l8,-1l-4,-2l3,-10l-3,1l-3,7l-1,-5l6,-13l4,3l3,-5l5,-1l8,-7l-20,1l-2,-7l6,-8l6,-3l9,1l-14,-5l-5,3l-10,-3l-7,1l3,3l-7,2v-14l15,-6l4,1l9,-9l-8,-1l13,-5l1,-4l-16,6l-3,-2l-3,7l-5,-10l3,-9l12,-19l-3,-4l7,-3l-5,-3l5,-6h-5l-2,18l-8,2l-9,13l1,7l-3,7l1,4l-7,-6v-4l-8,-9l12,-4l1,-7l-4,-5h-7l-2,8l-6,4l-1,5l4,5l-2,10l-3,1l4,4l-4,2l-4,-12l-7,-7l-14,-7l-3,-10l-8,-2l1,-6l-3,-2v13l-11,-10v-7l-12,-21l2,-3h9l-2,8l10,-15l5,4l3,-5l14,-1l-4,-2l-8,2l-1,-7l4,-2l-8,-2l-3,6l-3,-8v10l-3,-3v-10l-6,-10l6,4l6,-5l1,4l5,2l8,-6l1,7l6,1l5,5l5,-4l11,9l14,-7l1,-13l5,-5l1,-7l-11,-7l-5,-8l4,-1l-1,-6l12,-7l2,-4l-14,10l-4,10l5,8l10,6l-3,7l-6,4l-1,10l-6,5l-13,-13l-7,1l-7,-5l1,-5l6,-4l-10,3v-10l14,-4l-9,1l1,-5l9,-2l-6,-2l5,-7l-6,1v7h-3l-2,9l-7,-2l-4,11l-4,-5l2,-4l-6,-1l3,-7l8,3l-14,-12l-2,-6l1,15l-8,4l-1,-12l3,-5l-7,4l1,11l-5,5l3,6l-5,-3l1,-15l7,-11v-8l6,-2l3,-5l4,9l7,3l-1,6l7,5l2,6l6,-10l-9,-2l-2,-5l2,-12l5,-1l1,-7l12,-1l-2,-12l-2,5h-9l-7,6l-2,-13l-4,-8l12,-9l1,-5l-4,-12l3,2l4,-8l14,2l-6,-4l-7,-1l15,-12l-1,-4l10,-4l-2,-6l-6,-3l11,-11l6,-3h-6l-12,12v4l7,4l-10,5l2,5l-9,7l-1,-3l-9,7l3,-9l-4,-1l-3,10l-5,2l-1,9h-3l-3,-19l-8,-6l1,-7l4,-5l6,-16l9,-12l3,-1l-4,-6l3,-4h10l-2,-5l4,-6h13l6,3l13,-3l15,4l13,-5h-1l-11,3l-12,-5l-7,1l-12,-2l-1,-3l7,-4l6,-7l2,-7l5,-3l6,2l4,-2l8,3l-8,-7l-6,1l2,-5l10,-4l3,-4l-1,-6l4,-6l-10,10l-3,7l-4,-2l-2,6l-6,2l-10,12l5,-22l4,-2l-2,-6l5,-6l-3,-3l-2,5l-7,3l-1,6l-4,-2l-2,-6l-2,6l-6,1l-1,1l-4,1l-3,10l-4,3l7,3v10l-8,9l-4,1l-5,7l-10,-3v4l7,-2v4l-6,5l-6,-3v-7l6,-11l-3,-2l1,-7l-9,5l5,1v6l-8,14l5,2l2,6l-8,9l-1,-11l-2,-3v-9l-11,-1l-7,5h12l-2,4l3,6l-8,-3l1,11l-12,-1l5,5l-3,3l4,6l-2,4l-7,-2v-6l-13,-9l8,9l4,10l10,3l-10,10l-5,-9v6l-6,1l-1,-7l3,-7l-6,6l-4,-3l-5,-5h-1v-1v1l-1,1v-1h-2v-5h-1l-1,-1h-1v1l-1,-1v1h-1l-1,-1l-1,-1h-1v1h1v1l1,1h3v1h2v2h-1v1l-2,-1h-2v1v-1h-1v2h-1l-1,-1h-1v-3h-1v-1v1h-1v1l3,7l8,-2l4,5l-4,1l-1,5l2,5l-5,3h5v-10l9,2l-1,5l4,4l-7,8l6,-4l9,-1l9,7l3,13l-6,-1h-1l-3,4l-9,3l7,1l5,4l10,3l4,8l-4,5h-8l-4,3l-7,-7l-3,-2l-8,-14h-5l3,4l-3,3l9,4l1,4h1l10,8l1,8l5,3l-4,9l-4,-5h-5l-6,-7h-3l-1,1v1l7,4l8,13l-12,7l2,5l3,-3l7,2l-4,12l-5,6l-8,2l5,12l4,4l-1,12l4,11v29l6,14l13,12l6,11l3,1l-1,7l-6,11l-9,-1l-8,-18l-5,-6l-4,1l-13,-9l2,-4l-12,-3l-4,-13v-12l-2,-3v-17l-4,-1l3,-7l-4,-1l3,1l-3,6l5,5l-3,10l2,12l-5,-1l6,4v5l-5,4l6,1v9l5,6l14,12l10,3l8,6l1,10ZM934,480h-2l4,-2v-9l6,-5l-3,-1l7,-11v-12l5,-4l1,-8l5,-9l5,-18l3,-4l-12,38l-2,11l-5,14l-10,19ZM761,485l6,-6l7,6l2,7l-6,3l-3,-9ZM767,497v6h-2l-4,-5v-7l4,-1ZM764,458l4,3l1,8l-6,-1ZM759,434l7,8l-4,2l2,5h-4l-1,-6l-7,3l1,-7ZM749,85l4,5l-4,5l-3,-2ZM741,242l5,5h-13l-5,6v-6l4,-4ZM732,419l-5,-8h6ZM722,204v9l-6,-6l1,-3ZM708,221h7l-2,17l-3,-6l-8,4l1,-9l-3,1l1,12l-6,-1l3,14l-8,4v-20l3,-11l4,-4l2,-10l4,-7Z"/>
<g class="geos"><path data-name="Worcester" class="geo-047" d="M868,443l1,-5l-13,-18l-2,-8h6l48,-4l1,-7l7,-5l3,-5l-4,-9l2,-7l-5,-12h40l3,-1h12l-7,4l2,11l-10,-4h-6l12,6v7l7,3v7l-9,11l-2,12l-11,9l3,-11l-13,6l2,4l-4,4l-1,11l-5,4l-1,13l-7,-1l-8,8l3,6l-6,11h-1v1h-3l-5,1h-6l-3,1h-2l-5,1h-6l-1,1h-8v1h-8v1h-4l-2,-6l-7,-4v-5l5,1l4,-8l8,2l2,-6h7l-3,-10l-5,-2l1,-6ZM970,362h5l-1,13l-4,16l-3,6l5,-20ZM934,480h-2l4,-2v-9l6,-5l-3,-1l7,-11v-12l5,-4l1,-8l5,-9l5,-18l3,-4l-12,38l-2,11l-5,14l-10,19Z"/><path data-name="Allegany" class="geo-001" d="M145,15l29,1h9l37,1h50l5,5v8l-3,4h-6l6,7l-5,-2l-7,5l1,4l-8,-4l-3,1l7,7l-2,4l-7,-3l-3,5l9,7h-10l2,1l-3,6v1h-1v1l-8,-3l-13,1l-4,-5h-8l-7,1l-6,-5h-1v-1l-7,-2l-1,-6l-1,-1l-1,1l-1,1l-6,-6l7,-2l-2,-4l-4,1h-1l2,-6v-1l-6,3l-1,2v3l-1,3l-2,1v1l-1,1l-1,1v4l1,2l-3,1h-3l-4,7l-1,1l-4,3l-1,2v1h-1l-2,1v1l-1,2v1h-1l-3,2l-3,3l-1,2l-2,4l-1,1l-1,3l-1,-1l-9,-5l-6,-5l-1,-1l-2,2v1h-1v-2h-1l-1,-1l7,-17l6,-10l6,-15Z"/><path data-name="Baltimore" class="geo-510" d="M633,114h21v36l-5,-5h-1v-1v1l-1,1v-1h-2v-5h-1l-1,-1h-1v1l-1,-1v1h-1l-1,-1l-1,-1h-1v1h1v1l1,1h3v1h2v2h-1v1l-2,-1h-2v1v-1h-1v2h-1l-1,-1h-1v-3h-1v-1v1h-1v1l3,7l8,-2l4,5l-4,1l-1,5l-8,-8l-5,-3l-4,-2l-5,-3l-6,-3v-26ZM654,159l-4,3l-5,-2v-3Z"/><path data-name="Cecil" class="geo-015" d="M810,16v24l1,1v7l1,4v5l1,13v3l1,4v3l1,18l1,3v10v-1h-1l-5,1l-9,1l-11,3l-12,-5l-7,1l-12,-2l-1,-3l7,-4l6,-7l2,-7l5,-3l6,2l4,-2l8,3l-8,-7l-6,1l2,-5l10,-4l3,-4l-1,-6l4,-6l-10,10l-3,7l-4,-2l-2,6l-6,2l-10,12l5,-22l4,-2l-2,-6l5,-6l-3,-3l-2,5l-7,3l-1,6l-4,-2l-2,-6l-2,6l-6,1l-5,-7l-11,-14l-4,-10l-9,-7l-5,-10h6l35,-1l52,-1Z"/><path data-name="Baltimore" class="geo-005" d="M578,96l-1,-6l5,-6l2,-13l5,-17l6,-23l4,-12h23v-1h23v30l5,9l3,10l7,5l7,3l6,3l4,6v1l6,2l4,13l3,8l-7,5h12l-2,4l3,6l-8,-3l1,11l-12,-1l5,5l-3,3l4,6l-2,4l-7,-2v-6l-13,-9l8,9l4,10l10,3l-10,10l-5,-9v6l-6,1l-1,-7l3,-7l-6,6l-4,-3v-36h-39v26l6,3l5,3l4,2l5,3l-7,3l-9,4l-5,-3l-1,-1l-15,-10l3,-9l-3,-5l-13,-1l-4,-5l-2,-3l1,-2v-11l-4,-9Z"/><path data-name="Carroll" class="geo-013" d="M512,59l-7,-2l-4,-5l-11,-3l-1,-8l6,3l2,-9l5,-2v-7l7,-1l-1,-6h91l-4,12l-6,23l-5,17l-2,13l-5,6l1,6l-2,3l4,9v11l-1,2l-12,-3h-11l-6,2l-2,1l-12,-5h-7l-1,1l-7,4l-3,-1l3,-6l2,-13l6,-9l2,-11l-9,-8l-3,-3l-5,-8Z"/><path data-name="Calvert" class="geo-009" d="M622,286l7,-6l6,1v11l2,1h17l2,2l-1,12l4,11v29l6,14l13,12l6,11l3,1l-1,7l-6,11l-9,-1l-8,-18l-5,-6l-4,1l-13,-9l2,-4l-12,-3l-4,-13v-12l-2,-3v-17l-4,-1l3,-7l-4,-1v-20Z"/><path data-name="Dorchester" class="geo-019" d="M782,304l8,-5h8l5,-3l9,2v5l7,-2l12,10l1,3v3l1,1v11l1,5v1l-12,9v4l-12,7v6l-5,4l4,5l-2,3h-5l-2,18l-8,2l-9,13l1,7l-3,7l1,4l-7,-6v-4l-8,-9l12,-4l1,-7l-4,-5h-7l-2,8l-6,4l-1,5l4,5l-2,10l-3,1l4,4l-4,2l-4,-12l-7,-7l-14,-7l-3,-10l-8,-2l1,-6l-3,-2v13l-11,-10v-7l-12,-21l2,-3h9l-2,8l10,-15l5,4l3,-5l14,-1l-4,-2l-8,2l-1,-7l4,-2l-8,-2l-3,6l-3,-8v10l-3,-3v-10l-6,-10l6,4l6,-5l1,4l5,2l8,-6l1,7l6,1l5,5l5,-4l11,9l14,-7l1,-13l5,-5l1,-7ZM759,434l7,8l-4,2l2,5h-4l-1,-6l-7,3l1,-7ZM732,419l-5,-8h6Z"/><path data-name="Anne Arundel" class="geo-003" d="M614,164l1,-3l4,-3l9,-4l7,-3l8,8l2,5l-5,3h5v-7l5,2l4,-3l-1,5l4,4l-7,8l6,-4l9,-1l9,7l3,13l-6,-1h-1l-3,4l-9,3l7,1l5,4l10,3l4,8l-4,5h-8l-4,3l-7,-7l-3,-2l-8,-14h-5l3,4l-3,3l9,4l1,4h1l10,8l1,8l5,3l-4,9l-4,-5h-5l-6,-7h-3l-1,1v1l7,4l8,13l-12,7l2,5l3,-3l7,2l-4,12l-5,6l-8,2l5,12l4,4l-2,-2h-17l-2,-1v-11l-6,-1l-7,6l-3,-1l-3,-18h3v-8l5,-8l1,-9l-4,-5l-3,-15l-9,-9l-2,-6l-8,-3l-9,-6l1,-7l-3,-3l3,-1l2,-4l7,-1v-4l7,-10Z"/><path data-name="Frederick" class="geo-021" d="M454,19h54l1,6l-7,1v7l-5,2l-2,9l-6,-3l1,8l11,3l4,5l7,2l2,3l5,8l3,3l9,8l-2,11l-6,9l-2,13l-3,6l-20,12l-5,3l-36,21h-1l-3,-4l-1,-1h-1l-10,-6l-4,-4l-1,-1l-1,-1l-1,-3v-1l-5,-1h-6l-3,-2h-4l-2,-1l-2,-3h-2l4,-12l4,-9v-10l5,-8l-1,-14l5,-6l5,-22l10,-4l9,-20Z"/><path data-name="Prince George's" class="geo-033" d="M563,236v-1h-1v-1h-1v-1h-1v-1h-1v-1l-1,-1h-1v-1h-1v-1h-1v-1h-1v-1l6,-13l18,-32l3,4l7,3l3,3l-1,7l9,6l8,3l2,6l9,9l3,15l4,5l-1,9l-5,8v8h-3l3,18l3,1l-2,3v20l3,1l-3,6l5,5l-3,10l2,12l-5,-1h-1l-1,-1l-7,-3l-1,-16l-24,-11l-10,2l-17,-2l-8,2l-4,6l-1,3l-7,-20l10,-3l-1,-3l2,-9l4,-1h-1l-4,-2l1,-13l21,-21v-1l3,-2l1,-1h-1v-1h-1v-1h-1v-1h-1v-1h-1v-1h-1l-1,-1v-1l-1,-1l-2,-2Z"/><path data-name="Howard" class="geo-027" d="M526,141l-4,-6l-5,-5l-3,-7l4,-3l3,1l7,-4l1,-1h7l12,5l2,-1l6,-2h11l12,3l2,3l4,5l13,1l3,5l-3,9l15,10l1,1l5,3l-4,3l-1,3l-7,4l-7,10v4l-7,1l-2,4l-3,1l-7,-3l-3,-4l-6,1l-8,-2l1,-3l-6,-1l1,-4l-6,-1l-1,-7l-13,-17Z"/><path data-name="Garrett" class="geo-023" d="M30,13l25,1h47l43,1l-11,24l-6,15l-6,10l-7,17v2h-2l-1,1h-1l-1,-1l-1,-1h-1l-1,1l1,1l1,2h-3v1l2,1h-1v2h-1l-2,2v1l-2,1v4h-2l-1,1l1,1v1h-2v-2h-3v2l-1,1l-8,4l-3,6l-9,2l-3,8l-5,8h-8l-2,3l-1,1l-2,2h-2l-7,3l-2,5l-1,1l-4,5h-1v1h-1v1h-2l-1,1v1h-1v-1h-1l-2,1v1l-1,1l-1,-1h-1l1,-59h1l1,-30l1,-14v-23Z"/><path data-name="Montgomery" class="geo-031" d="M493,135l5,-3l20,-12l-4,3l3,7l5,5l4,6l14,6l13,17l1,7l6,1l-1,4l6,1l-1,3l8,2l6,-1l-18,32l-6,13l-3,-2v-1h-1l-1,-1l-1,-1v-1l-1,-1l-1,-1l-1,1l-1,1h-1v1h-1l-1,2h-1v1h-1v1h-1v1l-1,1h-1v1h-1v1l-1,1l-1,1h-1v1h-1l-1,1v1h-1v1l-1,-1l-1,-1v-2h-1v-1l-1,-1l-1,-1v-1h-1l-1,-1h-12v-1h-3l-1,-2h-1l-1,1v-1l-1,-1h-1v-1l-1,-1v-2h-1v-4h1v-1h1v-3h-1v-1h-2l-2,-1h-1l-1,-1h-1v-1h-1v-1h-1l-1,-1h-1l-1,-1h-2v-1h-2v-1h-2v-1h-12l-1,-1h-6v-1h-2l-2,-1h-3l-1,-1h-1v-1l-1,-2v-1h-1l-1,-2v-1l-1,-1v-1l-1,-1h-2l-1,-1h-1l-1,-1h-1l-1,-1l-1,-2v-5l1,-1v-2l1,-2v-1l2,-2v-1h2l3,-1v-1l1,-1l1,-1l-1,-1v-1h1v-1l2,-2l1,-2h1Z"/><path data-name="Queen Anne's" class="geo-035" d="M770,148l11,1l13,-3l2,-3l14,5l9,-1v13l1,4v5l1,6l-9,3l-4,3l-6,4l-2,10l-6,6l-1,6l-5,3l-7,10l-1,11l-1,6l-24,-5l-9,-1l-2,5l-2,5h-9l-7,6l-2,-13l-4,-8l12,-9l1,-5l-4,-12l3,2l4,-8l14,2l-6,-4l-7,-1l15,-12l-1,-4l10,-4l-2,-6l-6,-3l11,-11ZM741,242l5,5h-13l-5,6v-6l4,-4ZM708,221h7l-2,17l-3,-6l-8,4l1,-9l-3,1l1,12l-6,-1l3,14l-8,4v-20l3,-11l4,-4l2,-10l4,-7Z"/><path data-name="Talbot" class="geo-041" d="M744,236l2,-5l9,1l24,5l2,14l5,6l-2,3l6,3v4l-7,4l-14,10l-4,10l5,8l10,6l-3,7l-6,4l-1,10l-6,5l-13,-13l-7,1l-7,-5l1,-5l6,-4l-10,3v-10l14,-4l-9,1l1,-5l9,-2l-6,-2l5,-7l-6,1v7h-3l-2,9l-7,-2l-4,11l-4,-5l2,-4l-6,-1l3,-7l8,3l-14,-12l-2,-6l1,15l-8,4l-1,-12l3,-5l-7,4l1,11l-5,5l3,6l-5,-3l1,-15l7,-11v-8l6,-2l3,-5l4,9l7,3l-1,6l7,5l2,6l6,-10l-9,-2l-2,-5l2,-12l5,-1l1,-7l12,-1Z"/><path data-name="Wicomico" class="geo-045" d="M807,373l2,-3l-4,-5l5,-4v-6l12,-7v-4l12,-9v5l1,2v4l1,9v7l18,1h58l5,12l-2,7l4,9l-3,5l-7,5l-1,7l-48,4h-6l-12,-5l-4,4l-1,5h-6l-2,-4l-9,-1l-5,5l-16,6l-3,-2l-3,7l-5,-10l3,-9l12,-19l-3,-4l7,-3l-5,-3Z"/><path data-name="Somerset" class="geo-039" d="M815,416l5,-5l9,1l2,4h6l1,-5l4,-4l12,5l2,8l13,18l-1,5l-4,3l-1,6l5,2l3,10h-7l-2,6l-8,-2l-4,8l-5,-1v5l7,4l2,6l-8,9l-7,-1l-7,-5l-8,4l-5,-1l-4,5l-5,-1v6l-11,6l-3,-10l8,-1l-4,-2l3,-10l-3,1l-3,7l-1,-5l6,-13l4,3l3,-5l5,-1l8,-7l-20,1l-2,-7l6,-8l6,-3l9,1l-14,-5l-5,3l-10,-3l-7,1l3,3l-7,2v-14l15,-6l4,1l9,-9l-8,-1l13,-5l1,-4ZM767,503h-2l-4,-5v-7l4,-1l2,7ZM761,485l6,-6l7,6l2,7l-6,3l-3,-9ZM764,458l4,3l1,8l-6,-1Z"/><path data-name="Harford" class="geo-025" d="M667,75l-7,-3l-7,-5l-3,-10l-5,-9v-30h71l5,10l9,7l4,10l11,14l5,7l-1,1l-4,1l-3,10l-4,3l7,3v10l-8,9l-4,1l-5,7l-10,-3v4l7,-2v4l-6,5l-6,-3v-7l6,-11l-3,-2l1,-7l-9,5l5,1v6l-8,14l5,2l2,6l-8,9l-1,-11l-2,-3v-9l-11,-1l-3,-8l-4,-13l-6,-2v-1l-4,-6ZM749,85l4,5l-4,5l-3,-2Z"/><path data-name="St. Mary's" class="geo-037" d="M620,355l6,1v9l5,6l14,12l10,3l8,6l1,10l2,1l5,7l6,1l8,-5l5,3l-4,3l-2,9l3,10l13,16l2,7l-5,2l-2,-6l-1,9l6,3v14l-8,-3l-1,-6l-7,-6l-1,-6l-4,5l-4,-16l4,-6l-12,-7l8,10l-4,3l3,3l-9,6l-11,-4l-4,-12l-14,-8l-13,-2l12,-9l1,-5l-9,7h-7l-2,-9l-4,-5l3,12l-6,1l1,7l-4,4l-5,-1l-5,-6v-8l-6,-6l-3,-10l7,-6h-5l-8,-9v1v-1h1l9,-10v-2l12,-22l12,1Z"/><path data-name="Kent" class="geo-029" d="M801,112l9,-1l5,-1h1v1l1,3v9l1,4l1,11v9l-9,1l-14,-5l-2,3l-13,3l-11,-1h-6l-12,12v4l7,4l-10,5l2,5l-9,7l-1,-3l-9,7l3,-9l-4,-1l-3,10l-5,2l-1,9h-3l-3,-19l-8,-6l1,-7l4,-5l6,-16l9,-12l3,-1l-4,-6l3,-4h10l-2,-5l4,-6h13l6,3l13,-3l15,4l13,-5ZM722,204v9l-6,-6l1,-3Z"/><path data-name="Charles" class="geo-017" d="M538,302l7,20l1,-3l4,-6l8,-2l17,2l10,-2l24,11l1,16l7,3l1,1h1l6,4v5l-5,4l-3,-4l-12,-1l-12,22v2l-9,10h-1v1l-11,-1l-1,2l14,5l-2,10l3,1l3,10l-1,6l-17,-6v-6l-4,-6l-7,-3l-2,-11l-4,-11l-8,-15v10l-15,10l1,-11l-3,1l-1,11l-3,4l-16,8l-8,-6l-3,-8l1,-7l-3,-8v-8l3,-8l7,-4l-2,-4l8,-1l6,-3h-9l6,-9l8,-2l7,-5l-1,-12Z"/><path data-name="Washington" class="geo-043" d="M369,48l-2,-1l-1,1l1,3v1h-2l-3,-1h-2l-2,-1l-3,-4h-1v1l1,2v5l-1,1l-3,-6l-2,1h-1l-6,1h-1l-2,-2l-1,-1l-1,-1v-1l-10,-13l-5,-3l-19,-5l-4,5h-5l1,4l-7,5l-2,6l-14,-4l-6,-7h6l3,-4v-8l-5,-5h21l42,1h54l13,1h54l-3,4l-9,20l-10,4l-5,22l-5,6l1,14l-5,8v10l-4,9l-4,12h-1l-1,1h-7l-1,-1h-2v-1l-2,-1h-1l-1,-1l-1,-1v-3h1l1,-1v-1l1,-1v-1l-1,-1v-1l-1,-1v-3h1l2,-1v-3l-1,-1v-1l-1,-1l-1,-4l-3,-1h-2l-6,-2l1,-2h3v-2h-1l-2,-2l2,-1h3l-4,-5l1,-1l2,-4h-1v1l-1,1h-1l-11,-3v-1l2,-1l1,-1l1,-1h1l-3,-5l-1,4l-1,1h-3v-7l-5,-5v-1h3l4,-1v1h1l3,-1l1,-9l-8,-4Z"/><path data-name="Caroline" class="geo-011" d="M779,237l1,-6l1,-11l7,-10l5,-3l1,-6l6,-6l2,-10l6,-4l4,-3l9,-3v5l1,7v7l1,8v3l1,4v5l1,12v1l1,8v8l1,3v10l1,4v9l1,3v8l1,5v4l1,6v6l1,11v2l-1,-3l-12,-10l-7,2v-5l-9,-2l-5,3h-8l-8,5l-11,-7l-5,-8l4,-1l-1,-6l12,-7l2,-4l7,-4v-4l-6,-3l2,-3l-5,-6Z"/></g>
  <path class="counties-mesh" d="M854,490l-2,-6l-7,-4v-5l5,1l4,-8l8,2l2,-6h7l-3,-10l-5,-2l1,-6l4,-3l1,-5l-13,-18l-2,-8h6l48,-4l1,-7l7,-5l3,-5l-4,-9l2,-7l-5,-12M654,159l-4,3l-5,-2M270,17l5,5v8l-3,4h-6l6,7M115,81l7,-17l6,-10l6,-15l11,-24M643,159l-8,-8l-5,-3l-4,-2l-5,-3l-6,-3v-26h39v36M816,111v-1h-1l-5,1l-9,1M750,66l-5,-7l-11,-14l-4,-10l-9,-7l-5,-10M579,121l1,-2v-11l-4,-9l2,-3l-1,-6l5,-6l2,-13l5,-17l6,-23l4,-12M645,18v30l5,9l3,10l7,5l7,3l6,3l4,6v1l6,2l4,13l3,8M578,181l-6,1l-8,-2l1,-3l-6,-1l1,-4l-6,-1l-1,-7l-13,-17l-14,-6l-4,-6l-5,-5l-3,-7l4,-3l3,-6l2,-13l6,-9l2,-11l-9,-8l-3,-3l-5,-8l-2,-3l-7,-2l-4,-5l-11,-3l-1,-8l6,3l2,-9l5,-2v-7l7,-1l-1,-6M410,128l4,-12l4,-9v-10l5,-8l-1,-14l5,-6l5,-22l10,-4l9,-20l3,-4M620,309v-20l2,-3l7,-6l6,1v11l2,1h17l2,2M782,304l8,-5h8l5,-3l9,2v5l7,-2l12,10l1,3M834,335l-12,9v4l-12,7v6l-5,4l4,5l-2,3M635,151l-7,3l-9,4l-5,-3l-1,-1l-15,-10l3,-9l-3,-5l-13,-1l-4,-5l-2,-3l-12,-3h-11l-6,2l-2,1l-12,-5h-7l-1,1l-7,4l-3,-1l-20,12l-5,3l-36,21h-1M619,342h-1l-1,-1l-7,-3l-1,-16l-24,-11l-10,2l-17,-2l-8,2l-4,6l-1,3l-7,-20M770,148l11,1l13,-3l2,-3l14,5l9,-1M821,175l-9,3l-4,3l-6,4l-2,10l-6,6l-1,6l-5,3l-7,10l-1,11l-1,6l-24,-5l-9,-1l-2,5M779,237l2,14l5,6l-2,3l6,3v4l-7,4M854,412l-12,-5l-4,4l-1,5h-6l-2,-4l-9,-1l-5,5M622,286l-3,-1l-3,-18h3v-8l5,-8l1,-9l-4,-5l-3,-15l-9,-9l-2,-6l-8,-3l-9,-6l1,-7l-3,-3l3,-1l2,-4l7,-1v-4l7,-10l7,-4l1,-3l4,-3M583,385v-1h1l9,-10v-2l12,-22l12,1l3,4M554,226l6,-13l18,-32l3,4l7,3"/>
<g class="districts"><path data-name="Congressional District 1" class="district-2401" d="M502,33v-7l7,-1l-1,-6h114v-1h100l35,-1l52,-1h1v24l1,1v7l1,4v5l1,13v3l1,4v3l1,18l1,3v10l1,3v9l1,4l1,11v22l1,4v5l1,6v5l1,7v7l1,8v3l1,4v5l1,12v1l1,8v8l1,3v10l1,4v9l1,3v8l1,5v4l1,6v6l1,11v5l1,1v11l1,5v6l1,2v4l1,9v7l18,1h98l3,-1h12l-7,4l2,11l-10,-4h-6l12,6v7l7,3v7l-9,11l-2,12l-11,9l3,-11l-13,6l2,4l-4,4l-1,11l-5,4l-1,13l-7,-1l-8,8l3,6l-6,11h-1v1h-3l-5,1h-6l-3,1h-2l-5,1h-6l-1,1h-8v1h-8v1h-4l-8,9l-7,-1l-7,-5l-8,4l-5,-1l-4,5l-5,-1v6l-11,6l-3,-10l8,-1l-4,-2l3,-10l-3,1l-3,7l-1,-5l6,-13l4,3l3,-5l5,-1l8,-7l-20,1l-2,-7l6,-8l6,-3l9,1l-14,-5l-5,3l-10,-3l-7,1l3,3l-7,2v-14l15,-6l4,1l9,-9l-8,-1l13,-5l1,-4l-16,6l-3,-2l-3,7l-5,-10l3,-9l12,-19l-3,-4l7,-3l-5,-3l5,-6h-5l-2,18l-8,2l-9,13l1,7l-3,7l1,4l-7,-6v-4l-8,-9l12,-4l1,-7l-4,-5h-7l-2,8l-6,4l-1,5l4,5l-2,10l-3,1l4,4l-4,2l-4,-12l-7,-7l-14,-7l-3,-10l-8,-2l1,-6l-3,-2v13l-11,-10v-7l-12,-21l2,-3h9l-2,8l10,-15l5,4l3,-5l14,-1l-4,-2l-8,2l-1,-7l4,-2l-8,-2l-3,6l-3,-8v10l-3,-3v-10l-6,-10l6,4l6,-5l1,4l5,2l8,-6l1,7l6,1l5,5l5,-4l11,9l14,-7l1,-13l5,-5l1,-7l-11,-7l-5,-8l4,-1l-1,-6l12,-7l2,-4l-14,10l-4,10l5,8l10,6l-3,7l-6,4l-1,10l-6,5l-13,-13l-7,1l-7,-5l1,-5l6,-4l-10,3v-10l14,-4l-9,1l1,-5l9,-2l-6,-2l5,-7l-6,1v7h-3l-2,9l-7,-2l-4,11l-4,-5l2,-4l-6,-1l3,-7l8,3l-14,-12l-2,-6l1,15l-8,4l-1,-12l3,-5l-7,4l1,11l-5,5l3,6l-5,-3l1,-15l7,-11v-8l6,-2l3,-5l4,9l7,3l-1,6l7,5l2,6l6,-10l-9,-2l-2,-5l2,-12l5,-1l1,-7l12,-1l-2,-12l-2,5h-9l-7,6l-2,-13l-4,-8l12,-9l1,-5l-4,-12l3,2l4,-8l14,2l-6,-4l-7,-1l15,-12l-1,-4l10,-4l-2,-6l-6,-3l11,-11l6,-3h-6l-12,12v4l7,4l-10,5l2,5l-9,7l-1,-3l-9,7l3,-9l-4,-1l-3,10l-5,2l-1,9h-3l-3,-19l-8,-6l1,-7l4,-5l6,-16l9,-12l3,-1l-4,-6l3,-4h10l-2,-5l4,-6h13l6,3l13,-3l15,4l13,-5h-1l-11,3l-12,-5l-7,1l-12,-2l-1,-3l7,-4l6,-7l2,-7l5,-3l6,2l4,-2l8,3l-8,-7l-6,1l2,-5l10,-4l3,-4l-1,-6l4,-6l-10,10l-3,7l-4,-2l-2,6l-6,2l-10,12l5,-22l4,-2l-2,-6l5,-6l-3,-3l-2,5l-7,3l-1,6l-4,-2l-2,-6l-2,6l-6,1l-5,-7l-10,1l1,12l-5,-4h-5l1,9l-6,4v-4l-15,10l-11,-2l7,11l-13,2l-2,2l-12,12l-10,-2l-6,-5l-2,-7l-6,2l-1,-3l-6,7l-4,-5l8,-6l-5,-1v-9h-7l-1,3l-6,-2l2,-4l12,-4l8,7l3,5l-1,8l14,-6l10,-5v-1l-4,-6l-6,-3l-7,-3l-7,-5l-3,-10l-5,-9v-14l-7,6l-8,-3l-5,2l-1,4l-7,-1l-1,4l-12,-9h-8l-1,-6l-6,23l-5,17l-2,13l-5,6l1,6l-1,-1l-8,-2l-2,2l-7,-7l-7,-3v-9l13,-14l1,-10l-7,-10l2,-6l-10,6l-7,-3l-3,15h-5l-8,-5l-3,-4l-9,2l3,5l-7,2l-1,5l-7,-2l-4,-5l-11,-3l-1,-8l6,3l2,-9ZM970,362h5l-1,13l-4,16l-3,6l5,-20ZM934,480h-2l4,-2v-9l6,-5l-3,-1l7,-11v-12l5,-4l1,-8l5,-9l5,-18l3,-4l-12,38l-2,11l-5,14l-10,19ZM767,503h-2l-4,-5v-7l4,-1l2,7ZM761,485l6,-6l7,6l2,7l-6,3l-3,-9ZM764,458l4,3l1,8l-6,-1ZM759,434l7,8l-4,2l2,5h-4l-1,-6l-7,3l1,-7ZM741,242l5,5h-13l-5,6v-6l4,-4ZM732,419l-5,-8h6ZM722,204v9l-6,-6l1,-3ZM708,221h7l-2,17l-3,-6l-8,4l1,-9l-3,1l1,12l-6,-1l3,14l-8,4v-20l3,-11l4,-4l2,-10l4,-7Z"/><path data-name="Congressional District 2" class="district-2402" d="M615,161l4,-3l9,-4l2,-6l-4,-2l7,-4v1l3,7l8,-2l4,5l-4,1l-1,5l2,5l-5,3l-8,-5l-2,-4l-3,3h-8l3,3l-3,5v17l-6,7l-7,-1l-8,-5h-7l-10,-9l19,-11l-2,-8l8,2ZM649,145v-6l5,-4v-4l-8,-2l-1,-4l9,-7v1l10,-3l2,-5l-4,-3l-8,2l-5,-2l-4,6h-12v-3h5l1,-5l-11,-5l-13,-4l-4,-7l-6,-4h-4l-1,10l-3,1l7,9l2,7l7,4l-7,1l-1,5l-8,-3l-9,2l2,-4l-1,-5l1,-7l-3,-7l7,-3l-6,-6l5,-8l6,1l2,-4l5,-6l4,14l6,-3l2,7l7,9h6v-6l-7,-3l1,-7h4l6,2l1,-3h7v9l5,1l-8,6l4,5l6,-7l1,3l6,-2l2,7l6,5l10,2l12,-12l2,-2l13,-2l-7,-11l11,2l15,-10v4l6,-4l-1,-9h5l5,4l-1,-12l10,-1l5,7l-1,1l-4,1l-3,10l-4,3l7,3v10l-8,9l-4,1l-5,7l-10,-3v4l7,-2v4l-6,5l-6,-3v-7l6,-11l-3,-2l1,-7l-9,5l5,1v6l-8,14l5,2l2,6l-8,9l-1,-11l-2,-3v-9l-11,-1l-7,5h12l-2,4l3,6l-8,-3l1,11l-12,-1l5,5l-3,3l4,6l-2,4l-7,-2v-6l-13,-9l8,9l4,10l10,3l-10,10l-5,-9v6l-6,1l-1,-7l3,-7l-6,6l-4,-3l-5,-5ZM654,159l-4,3l-5,-2v-3ZM749,85l4,5l-4,5l-3,-2Z"/><path data-name="Congressional District 3" class="district-2403" d="M526,141l14,6l13,17l1,7l6,1l6,-7l1,-6l5,-5l4,11l5,2l6,-7l12,-5l1,3l9,1l5,-4l-1,-1l4,-7l3,1l1,-5l10,-5l3,1h4v1l1,1h1h-1h3v1h2v1v-1v2h-1v1l-2,-1h-2v1v-1h-1v2h-1l-1,-1h-1v-3l-1,-1v1h-1l-7,4l4,2l-2,6l-9,4l-4,3h-9l-8,-2l2,8l-19,11l10,9h7l8,5l7,1l6,-7v-17l3,-5l-3,-3h8l3,-3l2,4l8,5h5v-7l5,2l4,-3l-1,5l4,4l-7,8l-3,4l-11,-1v5l-12,-4l2,7l-4,2l2,5l-4,1l-5,8l-4,-3l-5,2l-10,-5l-1,-5l-5,6l1,-7l-3,-3l-7,-3l-3,-4l-18,32l-7,-4l9,-1l-5,-2l-3,-7l6,-2l-1,-1l2,-6l-13,-6l-6,2l-9,-8l-1,1l-1,-6l-1,-3l6,-14l-7,-7l-5,-1ZM638,139l8,-4l-3,-8l6,-11h-12v9l-5,2l-5,-1l2,-6l-14,-3v2l-2,-2l-7,-4l-2,-7l-7,-9l3,-1l1,-10h4l6,4l4,7l13,4l11,5l-1,5h-5v3h12l4,-6l5,2l8,-2l4,3l-2,5l-10,3v-1l-9,7l1,4l8,2v4l-5,4v6h-1v-1v1l-1,1v-1h-2v-5h-1l-1,-1h-1v1l-1,-1v1h-1l-1,-1ZM650,229l2,-4l-2,-6l5,-6h1l10,8l1,8l5,3l-4,9l-4,-5h-5l-6,-7h-3ZM661,214l7,-5l2,-7l10,3l4,8l-4,5h-8l-4,3l-7,-7ZM670,190l-5,-3l1,-5l-11,-4l1,-6l9,-1l9,7l3,13l-6,-1Z"/><path data-name="Congressional District 4" class="district-2404" d="M570,250v-1l3,-2l1,-1h-1v-1h-1v-1h-1v-1h-1v-1h-1v-1h-1l-1,-1v-1l-1,-1l-2,-2h-1v-1h-1v-1h-1v-1h-1v-1h-1v-1l-1,-1h-1v-1h-1v-1h-1v-1h-1v-1l6,-13l18,-32l3,4l7,3l3,3l-1,7l5,-6l1,5l10,5l5,-2l4,3l5,-8l4,-1l-2,-5l4,-2l-2,-7l12,4v-5l11,1l3,-4l6,-4l-1,6l11,4l-1,5l5,3l-3,4l-9,3l7,1l5,4l-2,7l-7,5l-3,-2l-8,-14h-5l3,4l-3,3l9,4l1,4l-5,6l2,6l-2,4l-1,1l-4,6l-11,2l-4,-4l1,-5l-5,-3l-1,-9l-9,-8l-9,-2l-8,-3l-12,4l2,-6l-4,-1l1,-4l-7,2l-2,-5l-6,1v5l-4,7v4l-5,5l3,7l-1,7h3l7,-2l6,2l12,-9l2,8l6,-5l6,1l1,5l-3,2l2,12h5l-3,9l5,2l-2,10l-3,1h-1l-4,2l-10,1l-6,-3l-1,7l-8,3l-3,-5l-6,3l-9,5l-8,7l-4,-2l1,-13Z"/><path data-name="Congressional District 5" class="district-2405" d="M552,286l8,-7l9,-5l6,-3l3,5l8,-3l1,-7l6,3l10,-1l4,-2h1l3,-1l2,-10l-5,-2l3,-9h-5l-2,-12l3,-2l-1,-5l-6,-1l-6,5l-2,-8l-12,9l-6,-2l-7,2h-3l1,-7l-3,-7l5,-5v-4l4,-7v-5l6,-1l2,5l7,-2l-1,4l4,1l-2,6l12,-4l8,3l9,2l9,8l1,9l5,3l-1,5l4,4l11,-2l4,-6v1l7,4l8,13l-12,7l2,5l3,-3l7,2l-4,12l-5,6l-8,2l5,12l4,4l-1,12l4,11v29l6,14l13,12l6,11l3,1l-1,7l-6,11l-9,-1l-8,-18l-5,-6l-4,1l-13,-9l2,-4l-12,-3l-4,-13v-12l-2,-3v-17l-4,-1l3,-7l-4,-1l3,1l-3,6l5,5l-3,10l2,12l-5,-1l6,4v5l-5,4l6,1v9l5,6l14,12l10,3l8,6l1,10l2,1l5,7l6,1l8,-5l5,3l-4,3l-2,9l3,10l13,16l2,7l-5,2l-2,-6l-1,9l6,3v14l-8,-3l-1,-6l-7,-6l-1,-6l-4,5l-4,-16l4,-6l-12,-7l8,10l-4,3l3,3l-9,6l-11,-4l-4,-12l-14,-8l-13,-2l12,-9l1,-5l-9,7h-7l-2,-9l-4,-5l3,12l-6,1l1,7l-4,4l-5,-1l-5,-6v-8l-6,-6l-3,-10l7,-6h-5l-8,-9v1l-11,-1l-1,2l14,5l-2,10l3,1l3,10l-1,6l-17,-6v-6l-4,-6l-7,-3l-2,-11l-4,-11l-8,-15v10l-15,10l1,-11l-3,1l-1,11l-3,4l-16,8l-8,-6l-3,-8l1,-7l-3,-8v-8l3,-8l7,-4l-2,-4l8,-1l6,-3h-9l6,-9l8,-2l7,-5l-1,-12l9,-6l10,-3l-1,-3l2,-9l4,-1Z"/><path data-name="Congressional District 6" class="district-2406" d="M30,13l25,1h47l43,1l29,1h9l37,1h71l42,1h54l13,1h54l-3,4l-9,20l-10,4l-5,22l-5,6l1,14l-5,8v10l-4,9h17l1,2l2,-4l11,-1l-1,4l8,7l3,-7l4,-1l2,-10l-7,-1l-1,-5l3,-7l3,-4l8,-1l-2,-5l6,2l-1,4l5,2l2,7h8l-1,4l-8,3l-6,7l7,8l14,2l7,10l-5,3v3l8,2l4,7l4,-9l2,12v1h1l2,1l3,7l11,4l1,8l-5,6l5,7l9,3l-1,10l-6,1l-3,-10l-2,2l-11,-6l-3,9l-4,-4l1,6l13,7l2,5l-3,12l-18,-12l-2,3v-1h-2l-2,-1h-1l-1,-1h-1v-1h-1v-1h-1l-1,-1h-1l-1,-1h-2v-1h-2v-1h-2v-1h-12l-1,-1h-6v-1h-2l-2,-1h-3l-1,-1h-1v-1l-1,-2v-1h-1l-1,-2v-1l-1,-1v-1l-1,-1h-2l-1,-1h-1l-1,-1h-1l-1,-1l-1,-2v-5l1,-1v-2l1,-2v-1l2,-2v-1h2l3,-1v-1l1,-1l1,-1l-1,-1v-1h1v-1l2,-2l1,-2l-3,-4l-1,-1h-1l-10,-6l-4,-4l-1,-1l-1,-1l-1,-3v-1l-5,-1h-6l-3,-2h-4l-2,-1l-2,-3h-3l-1,1h-7l-1,-1h-2v-1l-2,-1h-1l-1,-1l-1,-1v-3h1l1,-1v-1l1,-1v-1l-1,-1v-1l-1,-1v-3h1l2,-1v-3l-1,-1v-1l-1,-1l-1,-4l-3,-1h-2l-6,-2l1,-2h3v-2h-1l-2,-2l2,-1h3l-4,-5l1,-1l2,-4h-1v1l-1,1h-1l-11,-3v-1l2,-1l1,-1l1,-1h1l-3,-5l-1,4l-1,1h-3v-7l-5,-5v-1h3l4,-1v1h1l3,-1l1,-9l-8,-4h-1l-2,-1l-1,1l1,3v1h-2l-3,-1h-2l-2,-1l-3,-4h-1v1l1,2v5l-1,1l-3,-6l-2,1h-1l-6,1h-1l-2,-2l-1,-1l-1,-1v-1l-10,-13l-5,-3l-19,-5l-4,5h-5l1,4l-7,5l-2,6l-14,-4l-5,-2l-7,5l1,4l-8,-4l-3,1l7,7l-2,4l-7,-3l-3,5l9,7h-10l2,1l-3,6v1h-1v1l-8,-3l-13,1l-4,-5h-8l-7,1l-6,-5h-1v-1l-7,-2l-1,-6l-1,-1l-1,1l-1,1l-6,-6l7,-2l-2,-4l-4,1h-1l2,-6v-1l-6,3l-1,2v3l-1,3l-2,1v1l-1,1l-1,1v4l1,2l-3,1h-3l-4,7l-1,1l-4,3l-1,2v1h-1l-2,1v1l-1,2v1h-1l-3,2l-3,3l-1,2l-2,4l-1,1l-1,3l-1,-1l-9,-5l-6,-5l-1,-1l-2,2v1h-1v-2h-1l-1,-1v2h-2l-1,1h-1l-1,-1l-1,-1h-1l-1,1l1,1l1,2h-3v1l2,1h-1v2h-1l-2,2v1l-2,1v4h-2l-1,1l1,1v1h-2v-2h-3v2l-1,1l-8,4l-3,6l-9,2l-3,8l-5,8h-8l-2,3l-1,1l-2,2h-2l-7,3l-2,5l-1,1l-4,5h-1v1h-1v1h-2l-1,1v1h-1v-1h-1l-2,1v1l-1,1l-1,-1h-1l1,-59h1l1,-30l1,-14v-23Z"/><path data-name="Congressional District 7" class="district-2407" d="M518,120l3,1l7,-4l1,-1h7l12,5l2,-1l6,-2h11l12,3l1,-2v-11l-4,-9l2,-3l-1,-6l5,-6l2,-13l5,-17l6,-23l1,6h8l12,9l1,-4l7,1l1,-4l5,-2l8,3l7,-6v14l5,9l3,10l7,5l7,3l6,3l4,6v1l-10,5l-14,6l1,-8l-3,-5l-8,-7l-12,4l-2,4h-4l-1,7l7,3v6h-6l-7,-9l-2,-7l-6,3l-4,-14l-5,6l-2,4l-6,-1l-5,8l6,6l-7,3l3,7l-1,7l1,5l-2,4l9,-2l8,3l1,-5l7,-1l2,2v-2l14,3l-2,6l5,1l5,-2v-9h12l-6,11l3,8l-8,4v-1h-1v1h1h-4l-3,-1l-10,5l-1,5l-3,-1l-4,7l1,1l-5,4l-9,-1l-1,-3l-12,5l-6,7l-5,-2l-4,-11l-5,5l-1,6l-6,7l-6,-1l-1,-7l-13,-17l-14,-6l-4,-6l-5,-5l-3,-7Z"/><path data-name="Congressional District 8" class="district-2408" d="M454,19h54l1,6l-7,1v7l-5,2l-2,9l-6,-3l1,8l11,3l4,5l7,2l1,-5l7,-2l-3,-5l9,-2l3,4l8,5h5l3,-15l7,3l10,-6l-2,6l7,10l-1,10l-13,14v9l7,3l7,7l2,-2l8,2l1,1l-2,3l4,9v11l-1,2l-12,-3h-11l-6,2l-2,1l-12,-5h-7l-1,1l-7,4l-3,-1l-4,3l3,7l5,5l4,6l-2,7l5,1l7,7l-6,14l1,3l1,6l1,-1l9,8l6,-2l13,6l-2,6l1,1l-6,2l3,7l5,2l-9,1l7,4l-6,13l-3,-2v-1h-1l-1,-1l-1,-1v-1l-1,-1l-1,-1l-1,1l-1,1h-1v1h-1l-1,2h-1v1h-1v1h-1v1l-1,1h-1v1h-1v1l-1,1l-1,1h-1v1h-1l-1,1v1h-1v1l-1,-1l-1,-1v-2h-1v-1l-1,-1l-1,-1v-1h-1l-1,-1h-12v-1h-3l-1,-2h-1l-1,1v-1l-1,-1h-1v-1l-1,-1v-2h-1v-4h1v-1h1v-3h-1l2,-3l18,12l3,-12l-2,-5l-13,-7l-1,-6l4,4l3,-9l11,6l2,-2l3,10l6,-1l1,-10l-9,-3l-5,-7l5,-6l-1,-8l-11,-4l-3,-7l-2,-1h-1v-1l-2,-12l-4,9l-4,-7l-8,-2v-3l5,-3l-7,-10l-14,-2l-7,-8l6,-7l8,-3l1,-4h-8l-2,-7l-5,-2l1,-4l-6,-2l2,5l-8,1l-3,4l-3,7l1,5l7,1l-2,10l-4,1l-3,7l-8,-7l1,-4l-11,1l-2,4l-1,-2h-17l4,-9v-10l5,-8l-1,-14l5,-6l5,-22l10,-4l9,-20Z"/></g>
  <path class="districts-mesh" d="M654,159l-4,3l-5,-2M650,176l-3,4l-11,-1v5l-12,-4l2,7l-4,2l2,5l-4,1l-5,8l-4,-3l-5,2l-10,-5l-1,-5l-5,6l1,-7l-3,-3l-7,-3l-3,-4l-18,32l-7,-4l9,-1l-5,-2l-3,-7l6,-2l-1,-1l2,-6l-13,-6l-6,2l-9,-8l-1,1l-1,-6l-1,-3l6,-14l-7,-7l-5,-1l2,-7l14,6l13,17l1,7l6,1l6,-7l1,-6l5,-5l4,11l5,2l6,-7l12,-5l1,3l9,1l5,-4l-1,-1l4,-7l3,1l1,-5l10,-5l3,1h4M638,139l8,-4l-3,-8l6,-11h-12v9l-5,2l-5,-1l2,-6l-14,-3M650,229l2,-4l-2,-6l5,-6M661,214l7,-5l2,-7M670,190l-5,-3l1,-5l-11,-4l1,-6M554,226l6,-13M640,167l-8,-5l-2,-4l-3,3h-8l3,3l-3,5v17l-6,7l-7,-1l-8,-5h-7l-10,-9l19,-11l-2,-8l8,2h9l4,-3l9,-4l2,-6l-4,-2l7,-4M649,230l-4,6l-11,2l-4,-4l1,-5l-5,-3l-1,-9l-9,-8l-9,-2l-8,-3l-12,4l2,-6l-4,-1l1,-4l-7,2l-2,-5l-6,1v5l-4,7v4l-5,5l3,7l-1,7h3l7,-2l6,2l12,-9l2,8l6,-5l6,1l1,5l-3,2l2,12h5l-3,9l5,2l-2,10l-3,1h-1l-4,2l-10,1l-6,-3l-1,7l-8,3l-3,-5l-6,3l-9,5l-8,7M454,19l-3,4l-9,20l-10,4l-5,22l-5,6l1,14l-5,8v10l-4,9h17l1,2l2,-4l11,-1l-1,4l8,7l3,-7l4,-1l2,-10l-7,-1l-1,-5l3,-7l3,-4l8,-1l-2,-5l6,2l-1,4l5,2l2,7h8l-1,4l-8,3l-6,7l7,8l14,2l7,10l-5,3v3l8,2l4,7l4,-9l2,12v1h1l2,1l3,7l11,4l1,8l-5,6l5,7l9,3l-1,10l-6,1l-3,-10l-2,2l-11,-6l-3,9l-4,-4l1,6l13,7l2,5l-3,12l-18,-12l-2,3M750,66l-5,-7l-10,1l1,12l-5,-4h-5l1,9l-6,4v-4l-15,10l-11,-2l7,11l-13,2l-2,2l-12,12l-10,-2l-6,-5l-2,-7l-6,2l-1,-3l-6,7l-4,-5l8,-6l-5,-1v-9h-7l-1,3l-6,-2l2,-4l12,-4l8,7l3,5l-1,8l14,-6l10,-5v-1l-4,-6l-6,-3l-7,-3l-7,-5l-3,-10l-5,-9v-14l-7,6l-8,-3l-5,2l-1,4l-7,-1l-1,4l-12,-9h-8l-1,-6l-6,23l-5,17l-2,13l-5,6l1,6l-1,-1l-8,-2l-2,2l-7,-7l-7,-3v-9l13,-14l1,-10l-7,-10l2,-6l-10,6l-7,-3l-3,15h-5l-8,-5l-3,-4l-9,2l3,5l-7,2l-1,5l-7,-2l-4,-5l-11,-3l-1,-8l6,3l2,-9l5,-2v-7l7,-1l-1,-6M526,141l-4,-6l-5,-5l-3,-7l4,-3l3,1l7,-4l1,-1h7l12,5l2,-1l6,-2h11l12,3l1,-2v-11l-4,-9l2,-3M649,145v-6l5,-4v-4l-8,-2l-1,-4l9,-7v1l10,-3l2,-5l-4,-3l-8,2l-5,-2l-4,6h-12v-3h5l1,-5l-11,-5l-13,-4l-4,-7l-6,-4h-4l-1,10l-3,1l7,9l2,7l7,4l-7,1l-1,5l-8,-3l-9,2l2,-4l-1,-5l1,-7l-3,-7l7,-3l-6,-6l5,-8l6,1l2,-4l5,-6l4,14l6,-3l2,7l7,9h6v-6l-7,-3l1,-7h4M615,117v2l-2,-2"/>
</svg>