<?xml version="1.0" encoding="utf-8"?>
<!DOCTYPE svg PUBLIC "-//W3C//DTD SVG 1.1//EN" "http://www.w3.org/Graphics/SVG/1.1/DTD/svg11.dtd">
<svg version="1.1" xmlns="http://www.w3.org/2000/svg" width="655" height="1000" viewBox="0 0 655 1000">
  <path class="state" d="M209,810l-2,-25h-2v-13l-3,-10l3,-7l5,-4l-1,-9l4,-11h-1l-2,9l-3,2l-5,10v8l-3,-1l-6,4v7l-6,7v1l8,-7h1l5,-7l-1,11l4,-3v14h2l-2,14l3,9l-2,5l4,1l-12,8l-3,-18l1,-18l-1,-5l-5,8l3,4l-2,12l-2,-9l-4,12l-7,3l7,-10l-3,-2l-8,11l-4,2l14,-24l-12,1l-2,5l-8,4l1,-6l-15,18l-14,20h5l-6,7l7,-4l3,8l1,12l-10,1v-3l-8,7l-1,-4l-4,3h-1l-4,7l1,11l6,1l-6,2l-3,8h-4l-3,10l-5,2l-11,1l-8,16l1,8l-1,7l-6,7v5l-7,12h-9l-8,-4l-8,-9v-6l1,-4v-1h-1l1,-1l1,-1v-3l1,-1h-1l1,-1v-4h-1v-1l-1,-1h-1v1l-1,-1v-2h-3l-1,-2h-1v-1h-1l-1,-1v-2h-2l-1,-2v-1h1v-2h-2v-2l-1,-1v-1h-1h1v-1h-2v-2h-3v1l-1,-1v-1h-1v-1h-1v-4l-1,-1l-1,-1v-3l1,-1l-1,-1v-3l1,-1l1,-1l1,-1v-1l1,-2v-3l1,-2v-1h-2v-1h-1v-1h1v-2l1,-1l1,-1v-4h1v-2h-1v-3h1v-4h-1v-1h-1v-1h-1v-24l-1,-2v-101l-1,-13v-45l-1,-2v-66l-1,-5v-10l-1,-10v-29l-1,-2v-37l-1,-7v-6l-1,-8l3,-4l1,-1l2,1h3v-1h1l2,-1l1,-1l-1,-2v-2h1l2,1l2,1h3l1,1l2,3l2,1v2l1,1v2l-1,1v2l1,1v1l1,1l1,1v2l1,2h1v1h1l2,1h1l2,-1l1,-1l-1,-1l-1,-1v-2h1v-1l2,-2v-5h2l1,-1v-2l1,-2v-1l-1,-1l-1,-2v-1l1,-1v-1l1,-2l1,-1v-1l-1,-1l-1,-1l-1,-2v-2l2,-3v-1l1,-1l1,-1l2,-1h1l1,1h3v1l1,1l1,3h1v2l2,1h5l3,1v1l1,1h2v-3h1l1,-1v-2l-1,-2v-3l-1,-1l-1,-1v-1h-2l-2,-1l-1,-1l-1,-2v-1l-1,-2h-1v-1h-1l-1,-1v-1l1,-2l-1,-1v-3l2,-2l1,-1v-1l2,-2v-4l2,-2l1,-1l2,-2l1,-2v-1l2,-1l2,-1l1,-1l1,-2h1l3,-2l1,-2l2,-3l1,-1h3l3,-1l1,-1v-1l3,-2l1,-1l2,-2h1v-1l1,1l4,-1l2,-2h2l1,-1l2,-1v-1h-2v-4l-1,-1v-3l-1,-2l-1,-1v-2l2,-1h1v-2l2,-1v-1l1,-1l1,-1v-1h1l2,-2v-1h1v-1h1l4,-1l1,-1l3,-2v-1l2,-2l1,-1v-1l1,-3l-1,-2v-1h1l1,-2l1,-2v-1l-1,-1h-1v-2h-2l-1,-1h-5v-2l1,-1v-1h1l1,-1l1,-1h-2v-1l-1,-1l-1,-2v-2l2,-1v-3l2,-1v-1h1v-2h-3l-1,-1v-1l1,-1v-3l2,-1l1,-1h-1h2v-1l2,1h1v-3l1,-1v-2l1,-3l1,-1l-2,-2l-1,-2l-1,-1l-2,-2h-1l-1,-1v-2l2,-2v-1l1,-2v-1l1,-1v-1h1v-3l1,-3v-2h1l1,-2l1,-2l1,-1h1l1,-1l1,-3v-5l2,-2v-2l3,-1v-1h4l1,-1h1v-2l1,-1l1,-1h2v-1l1,-2v-2h4l1,-1h1l2,-12l1,-7l3,-15v-6l1,-3v-1l1,-2v-3l1,-6v-3l1,-2l1,-1l2,-3l1,-2l2,-2l1,-3l2,-3l5,-7l1,-1l1,-2l2,-2l3,-4l1,-2l5,-7l1,-2l1,-1l3,-4l2,-3l2,-3l2,-2l1,-3l4,-5l2,-3l9,-12l1,-1v-2l6,-7l1,-1l2,-4l8,-11l2,-3l1,-1l3,-5l1,-1l2,-3l11,-16h1l2,-3l1,-3l1,-1l3,-3l6,-9l2,-4l4,-6h8l1,1h2l1,1h2l1,1h1l1,1v1l1,1h1l1,1h2l2,-1v-1h1v1l1,1h-1l1,1l1,-1h-1v-1h1v3h1l1,2v1l-2,-1v1h1h-1v4h-1v1h-1v13l1,3h-1v1h1h-1v2h1v2h-1h1v4l1,2v1l1,1h1l2,2l5,3h1v1h1v1h1v1h1v1l1,-1h1v1h2v1h1v2h2v1h1v-1h5v-1l2,-1l1,-1h1v-1h1l2,-1v-1h2l1,-1l2,-1h3l1,-1h1l1,-1v-1h2l1,-1h1v1h1l2,-2l1,1h1l1,1h2v-1h4l1,-1h2v-1l2,-2v-1l-1,-1v-1l1,-1h1l1,-1v-1l2,1h1l1,1l1,-1l1,-1l1,-1h1l1,-1h2l1,1h2l1,-1l2,1v2h1l1,1l1,-1v1h1l2,-1l1,-1h3v1h1v-1l1,-1l-1,-1v-2l2,-10l1,-1h1l1,-1h3l2,1h2l2,-1l2,1l1,1h3v-1h2l1,1v1l1,1l1,1v-1l5,2l2,1l1,1v3l1,1l1,1l1,1h1l1,1v1l2,1l1,1h1l2,1l1,1v1l2,1l1,1l2,1l1,1l2,1l2,2l1,2l1,2h1l2,1l2,1l1,1v3h1v1l1,1v1l1,1v1l1,1l1,1h1l1,1v1l1,1v1h1v4l1,1v1h2l3,2h1l2,1h1l1,1v1h1l2,1v6l1,3v32l1,3v60l1,3v13l2,54v66l1,1v1h1v1h1v1h1l1,1v2h-1l-1,1l-1,1l-1,1l-2,1l-1,1l-1,1v2l1,1v2h1l1,1v1l1,1l1,1h1v2l2,2h-2v1h-2l-3,2l-1,11l4,5l-4,1l1,6l-2,1l2,3v1l5,-1l2,3l2,-1v-1l1,2h1v1h1v-1v1h1v-1l-1,-1v-1h-1v-3h1v2l2,-1v1l1,1v1l5,9h1l2,3l2,-1l-1,-2h1l4,4h3l3,2h5l6,2v-1h1v-1l-1,-1h2l1,-1l1,1l1,-1h1l1,2h1l1,2h1v2l1,1l-1,1v1l1,1v3l-1,1l-1,1l1,2v1l2,2v2h-2l-1,-1h-2v1l-2,-1h-1l1,2l-3,1l-1,1h-1v2l2,2v3l1,2h1l-1,1l1,1v2l1,1h1l1,2v1l2,1l2,3l1,2v2h-2v1l1,2v2l-1,1v1l-1,1l-1,1l-1,2v3l-1,1l-1,1v1h-1l-1,1l-1,2h1l1,1v1l1,1v2h1v1l1,1l2,1v1l1,1v3l2,1v4l2,1v1l1,1h1l-1,2l1,1v1l3,1l1,1l1,1l1,2l2,1h2l1,-1l1,-2h2v-1h2v-2l-1,-1v-2h1v-3h1v-1h2l2,1l1,1l2,1v1h2v1l4,-1l6,1l3,4l2,3l6,12l-4,3l6,7l5,9v8l-5,7l-3,-5l-4,4v8l-4,-5h-5l4,5l4,16v-15l8,2l-2,-6l7,7v8l3,-6l-3,-11l5,4v8l4,-1l2,10l-7,8h-5l-15,23l-11,6l-1,-7h-4l2,9l-5,1l-3,-9l2,-10l-10,2l-6,5l4,3l2,7l-8,6l-2,-13l-3,8l1,5l-7,-2l-9,-9l1,7l-5,13l2,7h-11l-1,-7l-8,6v5l-7,4l1,-23l-4,10l-4,2v-10l-5,10l-6,6l2,7l-5,7l-2,12l-3,-4v-16l-1,5l-1,12l-4,-3l-3,-9l1,-7h-3l-1,9l-4,-4l1,6l5,2l3,9l-6,-2l-3,11l-7,5l-1,-10l-4,1l-2,-6l-1,-13l-6,-8l-1,7h-4l-1,-11l-8,-4l-1,-5l8,-1l-8,-2l-2,9l8,4l-2,12l-5,-6l-1,-7l-5,1l5,5l-2,9l-6,-2l-5,1l-3,7l-9,6l2,-22l-7,4l2,6l-1,16h-2v-16l-8,12l-9,-3l4,7l-4,10l5,-8l2,3l-4,10l5,6l2,11l-9,-8l-13,-5l-10,-8l-3,-5l-1,5l-10,4v-9l5,-4l6,-12l11,10l-9,-13l-5,4l-4,8l-4,1l1,-10l6,-6v-9l5,-10l-4,-5l-6,-1l-5,-12l4,-12l-8,21l5,-3l5,8v12l-4,3l1,6l-5,4l1,-8l-8,6h-4l-2,5h-10l9,16l-1,7l-3,6h-4l-4,10l-5,17l-2,-3l-2,15l-2,-1l-1,8l9,-2l-4,10l-6,3l-4,6h-8v10l-10,8l-1,-7l2,-8l7,-7h-6l-3,8l-3,-3v7l-6,4l4,-12l-4,6l-4,-3l-3,4l2,-10l2,-6l-5,-5l-6,10l3,3l-7,6l-5,18l-5,11l-8,-13l2,7l-4,5l1,-18l-3,-2l7,-13l-6,4l-3,14h3l-3,9l3,3l-2,9v-10l-5,8l-4,-4l-1,13l-5,-7l4,-8l1,-17l-3,1l3,-18l-8,16l-3,-1l-2,8l-6,1l6,4l-2,14l5,-7v13l-6,7l-2,-2ZM543,650l3,12h-4l-2,-11ZM434,667h7l2,6l7,4l4,12l-8,10l-12,-1l-1,-14v18l3,6l-7,5l-1,-6h-9l-4,-13l3,-2l-1,-7l9,-7l-1,-8ZM411,726l-4,4l-3,-4l9,-4ZM411,726l6,-5l4,9l-6,3ZM416,685l-1,6l-4,-4l3,-5ZM408,691l-8,1l1,-12l2,-1ZM380,703l8,6l-5,6h7l-7,12l-6,2l-6,-5l2,-13ZM383,745l6,-3l1,7l-4,8l-6,1ZM360,640l5,8l-3,6l-4,-11ZM359,750l-2,4l-9,-4l-2,-8h-3v-7h5l7,8l7,-1ZM355,722l3,7l-10,1l-11,7l5,-9l10,-6ZM348,681l-3,7v8l-4,10l-2,-10l4,-16ZM225,776l-3,2l-1,10l-3,4l-3,-10l4,-2l8,-17ZM226,779v13l-3,-7ZM159,813l-3,8l-3,-2l2,-5Z"/>
<g class="geos"><path data-name="Androscoggin" class="geo-001" d="M140,662l6,-4l11,-2l4,19l-5,7l8,14v20l3,4l10,2l-5,5l3,7l-5,20v2h-1l-2,5l3,4l-8,11l-6,4l-11,-9l-18,-20l-7,10l-5,-2l-1,2l-8,-4l-4,-5v-7l23,-30h1l10,-33l-2,-17Z"/><path data-name="Sagadahoc" class="geo-023" d="M169,756h1v-2l5,-20l15,3l7,-13l15,4v3l-2,9l-3,2l-5,10v8l-3,-1l-6,4v7l-6,7v1l-8,1l-7,-7l-2,-7l-3,-4ZM205,755l16,4l-4,14l-2,8l-6,1l6,4l-2,14l5,-7v13l-6,7l-2,-2l-1,-1l-2,-25h-2v-13l-3,-10ZM194,782l1,-11h1l5,-7l-1,11l4,-3v14h2l-2,14l3,9l-2,5l4,1l-12,8l-3,-18l1,-18Z"/><path data-name="Washington" class="geo-029" d="M470,493l17,-3l-4,-18l1,-1l-6,-21l-4,-22l-4,-17l36,-9v1l5,-1l2,3l2,-1v-1l1,2h1v1h1v-1v1h1v-1l-1,-1v-1h-1v-3h1v2l2,-1v1l1,1v1l5,9h1l2,3l2,-1l-1,-2h1l4,4h3l3,2h5l6,2v-1h1v-1l-1,-1h2l1,-1l1,1l1,-1h1l1,2h1l1,2h1v2l1,1l-1,1v1l1,1v3l-1,1l-1,1l1,2v1l2,2v2h-2l-1,-1h-2v1l-2,-1h-1l1,2l-3,1l-1,1h-1v2l2,2v3l1,2h1l-1,1l1,1v2l1,1h1l1,2v1l2,1l2,3l1,2v2h-2v1l1,2v2l-1,1v1l-1,1l-1,1l-1,2v3l-1,1l-1,1v1h-1l-1,1l-1,2h1l1,1v1l1,1v2h1v1l1,1l2,1v1l1,1v3l2,1v4l2,1v1l1,1h1l-1,2l1,1v1l3,1l1,1l1,1l1,2l2,1h2l1,-1l1,-2h2v-1h2v-2l-1,-1v-2h1v-3h1v-1h2l2,1l1,1l2,1v1h2v1l4,-1l6,1l3,4l2,3l6,12l-4,3l6,7l5,9v8l-5,7l-3,-5l-4,4v8l-4,-5h-5l4,5l4,16v-15l8,2l-2,-6l7,7v8l3,-6l-3,-11l5,4v8l4,-1l2,10l-7,8h-5l-15,23l-11,6l-1,-7h-4l2,9l-5,1l-3,-9l2,-10l-10,2l-6,5l4,3l2,7l-8,6l-2,-13l-3,8l1,5l-7,-2l-9,-9l1,7l-5,13l2,7h-11l-1,-7l-8,6v5l-7,4l1,-23l-4,10l-4,2v-10l-5,10l-6,6l2,7l-5,7l-2,12l-3,-4v-16l-1,5l-1,12l-4,-3l-3,-9l1,-7h-3l-5,-18l4,-1l-4,-18l-3,1l-5,-28l-6,-29l19,-3l-4,-23ZM543,650l3,12h-4l-2,-11Z"/><path data-name="Waldo" class="geo-027" d="M257,613l7,-1l5,-11l7,1l3,6l9,-1l9,-1l4,18l19,-4l22,-6l11,-2l3,3l-8,21l5,-3l5,8v12l-4,3l1,6l-5,4l1,-8l-8,6h-4l-2,5h-10l9,16l-1,7l-3,6h-4l-4,10l-4,-2h-11l-15,-16l-7,-6l-11,11l-8,-7l-2,3l-15,-4l10,-25l7,2l4,-19l-7,-1l4,-19l-10,-1ZM348,681l-3,7v8l-4,10l-2,-10l4,-16Z"/><path data-name="York" class="geo-031" d="M24,868v-2l1,-1l1,-1v-4h1v-2h-1v-3h1v-4h-1v-1h-1v-1h-1v-24l-1,-2v-22l9,1l5,-3l17,-1l5,5l6,-3l9,3l1,11l-1,8l5,-1l7,4l4,-6l14,16l-6,8l22,15h-1l-4,7l1,11l6,1l-6,2l-3,8h-4l-3,10l-5,2l-11,1l-8,16l1,8l-1,7l-6,7v5l-7,12h-9l-8,-4l-8,-9v-6l1,-4v-1h-1l1,-1l1,-1v-3l1,-1h-1l1,-1v-4h-1v-1l-1,-1h-1v1l-1,-1v-2h-3l-1,-2h-1v-1h-1l-1,-1v-2h-2l-1,-2v-1h1v-2h-2v-2l-1,-1v-1h-1h1v-1h-2v-2h-3v1l-1,-1v-1h-1v-1h-1v-4l-1,-1l-1,-1v-3l1,-1l-1,-1v-3l1,-1l1,-1l1,-1v-1l1,-2v-3l1,-2v-1h-2v-1h-1v-1h1Z"/><path data-name="Penobscot" class="geo-019" d="M355,251h18v3h38v72l2,21v78l24,-4l2,-3l31,-7l4,17l4,22l6,21l-1,1l4,18l-17,3l-37,7l5,27l-19,3l3,18l-18,3v9l7,33v6l-25,4l-5,8l-6,-4l-7,8l-1,6l-4,-1l-3,-6l-4,1l-3,-3l-11,2l-22,6l-19,4l-4,-18l-9,1l-3,-23l-7,-33l-3,-19l23,-3l9,-3l15,-2l8,-3l20,-3l-4,-18l16,-3l-8,-41l-4,-20l-16,3l1,-12v-16l-1,-4l20,-5v-100l1,-1Z"/><path data-name="Kennebec" class="geo-011" d="M157,656l13,1l1,-4l-5,-6l1,-2l2,-3v-1l1,-2l1,-1v-3l13,3l3,-8l13,-2l4,3v5l5,1l1,-6l17,5l10,2l3,-12l-6,-6l-1,-9l24,-4v6l2,11l10,1l-4,19l7,1l-4,19l-7,-2l-10,25l-2,15l-3,2l-16,-2l-3,7l1,26l-15,-4h-1v-3l-15,-4l-7,13l-15,-3l-3,-7l5,-5l-10,-2l-3,-4v-20l-8,-14l5,-7Z"/><path data-name="Oxford" class="geo-017" d="M22,669v-5l-1,-2v-66l-1,-5v-10l-1,-10v-29l-1,-2v-37l-1,-7v-6l-1,-8l3,-4l1,-1l2,1h3v-1h1l2,-1l1,-1l-1,-2v-2h1l2,1l2,1h3l1,1l2,3l2,1v2l1,1v2l-1,1v2l1,1v1l1,1l1,1v2l1,2h1v1h1l2,1h1l2,-1l1,-1l-1,-1l-1,-1v-2h1v-1l2,-2v-1l2,23l3,20l1,13h-6l2,19l4,15l1,26l22,-13l12,24l3,13l-5,2l41,10v14h4l2,10l-6,3l2,17l-10,33h-1l-23,30v7l-5,-2l-5,8l-7,-6l-2,-2v-15l3,-2l-5,-11l-14,7l-16,13l-6,-4l-1,4v1l2,4l8,2v3l2,-1l9,15l-4,3l2,5l-4,4l1,4l-7,5l1,11l-17,1l-5,3l-9,-1v-79l-1,-13v-39Z"/><path data-name="Piscataquis" class="geo-021" d="M217,429l5,-7l-1,-5h1l2,-3l-1,-2h-1l1,-3l-6,-2l1,-3v-1l-3,-1l-6,-7l-2,-2l2,1v-1h1l-3,-4h3v-2l1,-2l1,-1l-1,-2l1,-1h-1h1h-2h1h-1v-1h-1h1h-1h1v1v-1v1h2v-1v1l3,5l4,1l1,-2l1,-5l1,-3l1,-4l-2,-2v-1h1l1,1v-6l-2,-2l-1,-3h-1h2l4,-1l-1,2l1,1v2l1,1v1l1,1l1,-1v-2l2,1h1v-1h1l-5,-26l-7,1v-69l1,-19h2v-38h73l1,1h57v37h1v50l-1,1v100l-20,5l1,4v16l-1,12l16,-3l4,20l8,41l-16,3l4,18l-20,3l-8,3l-15,2l-9,3l-23,3l-22,4l-2,7l-16,3l-3,-19l-3,-6l-6,-31v-4l-9,-45l-1,-11Z"/><path data-name="Lincoln" class="geo-015" d="M251,687l15,4l-6,4v10l2,8l6,4h9l5,16l-1,8l4,5l-2,3v2l-4,5l-5,2l2,-6l-5,-5l-6,10l3,3l-7,6l-5,18l-5,11l-8,-13l2,7l-4,5l1,-18l-3,-2l7,-13l-6,4l-3,14h3l-3,9l3,3l-2,9v-10l-5,8l-4,-4l-1,13l-5,-7l4,-8l1,-17l-3,1l3,-18l-8,16l-3,-1l4,-14l-16,-4l5,-4l-1,-9l4,-11l15,4l-1,-26l3,-7l16,2l3,-2ZM225,776l-3,2l-1,10l-3,4l-3,-10l4,-2l8,-17ZM226,779v13l-3,-7Z"/><path data-name="Cumberland" class="geo-005" d="M54,798l-1,-11l7,-5l-1,-4l4,-4l-2,-5l4,-3l-9,-15l-2,1v-3l-8,-2l-2,-4v-1l1,-4l6,4l16,-13l14,-7l5,11l-3,2v15l2,2l7,6l5,-8l5,2l4,5l8,4l1,-2l5,2l7,-10l18,20l11,9l6,-4l8,-11l2,7l7,7l8,-1l8,-7l-1,11l-5,8l3,4l-2,12l-2,-9l-4,12l-7,3l7,-10l-3,-2l-8,11l-4,2l14,-24l-12,1l-2,5l-8,4l1,-6l-15,18l-14,20h5l-6,7l7,-4l3,8l1,12l-10,1v-3l-8,7l-1,-4l-4,3l-22,-15l6,-8l-14,-16l-4,6l-7,-4l-5,1l1,-8l-1,-11l-9,-3l-6,3ZM159,813l-3,8l-3,-2l2,-5Z"/><path data-name="Hancock" class="geo-009" d="M470,493l8,41l4,23l-19,3l6,29l5,28l3,-1l4,18l-4,1l5,18l-1,9l-4,-4l1,6l5,2l3,9l-6,-2l-3,11l-7,5l-1,-10l-4,1l-2,-6l-1,-13l-6,-8l-1,7h-4l-1,-11l-8,-4l-1,-5l8,-1l-8,-2l-2,9l8,4l-2,12l-5,-6l-1,-7l-5,1l5,5l-2,9l-6,-2l-5,1l-3,7l-9,6l2,-22l-7,4l2,6l-1,16h-2v-16l-8,12l-9,-3l4,7l-4,10l5,-8l2,3l-4,10l5,6l2,11l-9,-8l-13,-5l-10,-8l-3,-5l-1,5l-10,4v-9l5,-4l6,-12l11,10l-9,-13l-5,4l-4,8l-4,1l1,-10l6,-6v-9l5,-10l-4,-5l-6,-1l-5,-12l4,-12l4,-1l3,6l4,1l1,-6l7,-8l6,4l5,-8l25,-4v-6l-7,-33v-9l18,-3l-3,-18l19,-3l-5,-27ZM434,667h7l2,6l7,4l4,12l-8,10l-12,-1l-1,-14v18l3,6l-7,5l-1,-6h-9l-4,-13l3,-2l-1,-7l9,-7l-1,-8ZM411,726l-4,4l-3,-4l9,-4ZM411,726l6,-5l4,9l-6,3ZM416,685l-1,6l-4,-4l3,-5ZM408,691l-8,1l1,-12l2,-1ZM380,703l8,6l-5,6h7l-7,12l-6,2l-6,-5l2,-13ZM360,640l5,8l-3,6l-4,-11Z"/><path data-name="Knox" class="geo-013" d="M266,691l2,-3l8,7l11,-11l7,6l15,16h11l4,2l-5,17l-2,-3l-2,15l-2,-1l-1,8l9,-2l-4,10l-6,3l-4,6h-8v10l-10,8l-1,-7l2,-8l7,-7h-6l-3,8l-3,-3v7l-6,4l4,-12l-4,6l-4,-3l-3,4l2,-10l5,-2l4,-5v-2l2,-3l-4,-5l1,-8l-5,-16h-9l-6,-4l-2,-8v-10ZM383,745l6,-3l1,7l-4,8l-6,1ZM359,750l-2,4l-9,-4l-2,-8h-3v-7h5l7,8l7,-1ZM355,722l3,7l-10,1l-11,7l5,-9l10,-6Z"/><path data-name="Franklin" class="geo-007" d="M54,486v-4h2l1,-1v-2l1,-2v-1l-1,-1l-1,-2v-1l1,-1v-1l1,-2l1,-1v-1l-1,-1l-1,-1l-1,-2v-2l2,-3v-1l1,-1l1,-1l2,-1h1l1,1h3v1l1,1l1,3h1v2l2,1h5l3,1v1l1,1h2v-3h1l1,-1v-2l-1,-2v-3l-1,-1l-1,-1v-1h-2l-2,-1l-1,-1l-1,-2v-1l-1,-2h-1v-1h-1l-1,-1v-1l1,-2l-1,-1v-3l2,-2l1,-1v-1l2,-2v-4l2,-2l1,-1l2,-2l1,-2v-1l2,-1l2,-1l1,-1l1,-2h1l3,-2l1,-2l2,-3l1,-1l6,33v7l7,35l5,36l17,-4l2,12l20,-3l7,38l-6,1l3,20l14,-3l1,11l4,5l-2,7l2,17l6,-1v5l4,10l-3,8l-13,-3v3l-1,1l-1,2v1l-2,3l-1,2l5,6l-1,4l-13,-1l-11,2l-6,4l-2,-10h-4v-14l-41,-10l5,-2l-3,-13l-12,-24l-22,13l-1,-26l-4,-15l-2,-19h6l-1,-13l-3,-20Z"/><path data-name="Aroostook" class="geo-003" d="M347,83h1v-1l2,-1l1,-1h1v-1h1l2,-1v-1h2l1,-1l2,-1h3l1,-1h1l1,-1v-1h2l1,-1h1v1h1l2,-2l1,1h1l1,1h2v-1h4l1,-1h2v-1l2,-2v-1l-1,-1v-1l1,-1h1l1,-1v-1l2,1h1l1,1l1,-1l1,-1l1,-1h1l1,-1h2l1,1h2l1,-1l2,1v2h1l1,1l1,-1v1h1l2,-1l1,-1h3v1h1v-1l1,-1l-1,-1v-2l2,-10l1,-1h1l1,-1h3l2,1h2l2,-1l2,1l1,1h3v-1h2l1,1v1l1,1l1,1v-1l5,2l2,1l1,1v3l1,1l1,1l1,1h1l1,1v1l2,1l1,1h1l2,1l1,1v1l2,1l1,1l2,1l1,1l2,1l2,2l1,2l1,2h1l2,1l2,1l1,1v3h1v1l1,1v1l1,1v1l1,1l1,1h1l1,1v1l1,1v1h1v4l1,1v1h2l3,2h1l2,1h1l1,1v1h1l2,1v6l1,3v32l1,3v60l1,3v13l2,54v66l1,1v1h1v1h1v1h1l1,1v2h-1l-1,1l-1,1l-1,1l-2,1l-1,1l-1,1v2l1,1v2h1l1,1v1l1,1l1,1h1v2l2,2h-2v1h-2l-3,2l-1,11l4,5l-4,1l1,6l-2,1l2,3l-36,9l-31,7l-2,3l-24,4v-78l-2,-21v-72h-38v-3h-19v-37h-57l-1,-1h-108l-9,-1v-6l1,-3v-1l1,-2v-3l1,-6v-3l1,-2l1,-1l2,-3l1,-2l2,-2l1,-3l2,-3l5,-7l1,-1l1,-2l2,-2l3,-4l1,-2l5,-7l1,-2l1,-1l3,-4l2,-3l2,-3l2,-2l1,-3l4,-5l2,-3l9,-12l1,-1v-2l6,-7l1,-1l2,-4l8,-11l2,-3l1,-1l3,-5l1,-1l2,-3l11,-16h1l2,-3l1,-3l1,-1l3,-3l6,-9l2,-4l4,-6h8l1,1h2l1,1h2l1,1h1l1,1v1l1,1h1l1,1h2l2,-1v-1h1v1l1,1h-1l1,1l1,-1h-1v-1h1v3h1l1,2v1l-2,-1v1h1h-1v4h-1v1h-1v13l1,3h-1v1h1h-1v2h1v2h-1h1v4l1,2v1l1,1h1l2,2l5,3h1v1h1v1h1v1h1v1l1,-1h1v1h2v1h1v2h2v1h1v-1h3Z"/><path data-name="Somerset" class="geo-025" d="M118,393h2l1,-1l2,-1v-1h-2v-4l-1,-1v-3l-1,-2l-1,-1v-2l2,-1h1v-2l2,-1v-1l1,-1l1,-1v-1h1l2,-2v-1h1v-1h1l4,-1l1,-1l3,-2v-1l2,-2l1,-1v-1l1,-3l-1,-2v-1h1l1,-2l1,-2v-1l-1,-1h-1v-2h-2l-1,-1h-5v-2l1,-1v-1h1l1,-1l1,-1h-2v-1l-1,-1l-1,-2v-2l2,-1v-3l2,-1v-1h1v-2h-3l-1,-1v-1l1,-1v-3l2,-1l1,-1h-1h2v-1l2,1h1v-3l1,-1v-2l1,-3l1,-1l-2,-2l-1,-2l-1,-1l-2,-2h-1l-1,-1v-2l2,-2v-1l1,-2v-1l1,-1v-1h1v-3l1,-3v-2h1l1,-2l1,-2l1,-1h1l1,-1l1,-3v-5l2,-2v-2l3,-1v-1h4l1,-1h1v-2l1,-1l1,-1h2v-1l1,-2v-2h4l1,-1h1l2,-12l1,-7l3,-15l9,1h35v38h-2l-1,19v69l7,-1l5,26h-1v1h-1l-2,-1v2l-1,1l-1,-1v-1l-1,-1v-2l-1,-1l1,-2l-4,1h-2h1l1,3l2,2v6l-1,-1h-1v1l2,2l-1,4l-1,3l-1,5l-1,2l-4,-1l-3,-5v-1v1h-2v-1v1v-1h-1h1h-1h1v1h1h-1h2h-1h1l-1,1l1,2l-1,1l-1,2v2h-3l3,4h-1v1l-2,-1l2,2l6,7l3,1v1l-1,3l6,2l-1,3h1l1,2l-2,3h-1l1,5l-5,7l-4,1l1,11l9,45v4l6,31l3,6l3,19l16,-3l2,-7l22,-4l3,19l7,33l3,23l-9,1l-3,-6l-7,-1l-5,11l-7,1v-6l-24,4l1,9l6,6l-3,12l-10,-2l-17,-5l-1,6l-5,-1v-5l-4,-3l-13,2l-4,-10v-5l-6,1l-2,-17l2,-7l-4,-5l-1,-11l-14,3l-3,-20l6,-1l-7,-38l-20,3l-2,-12l-17,4l-5,-36l-7,-35v-7l-6,-33h3l3,-1l1,-1v-1l3,-2l1,-1l2,-2h1v-1l1,1l4,-1Z"/></g>
  <path class="counties-mesh" d="M251,687l-2,15l-3,2l-16,-2l-3,7l1,26l-15,-4M187,778l-8,1l-7,-7l-2,-7l-8,11l-6,4l-11,-9l-18,-20l-7,10l-5,-2l-1,2l-8,-4l-4,-5v-7l23,-30h1l10,-33l-2,-17l6,-3M54,486l2,23l3,20l1,13h-6l2,19l4,15l1,26l22,-13l12,24l3,13l-5,2l41,10v14h4l2,10l6,-4l11,-2l4,19l-5,7l8,14v20l3,4l10,2l-5,5l3,7l15,3l7,-13l15,4v3M205,755l16,4l-4,14M194,782l1,-11M482,653l-5,-18l4,-1l-4,-18l-3,1l-5,-28l-6,-29l19,-3l-4,-23l-8,-41l17,-3l-4,-18l1,-1l-6,-21l-4,-22l-4,-17l36,-9M157,656l13,1l1,-4l-5,-6l1,-2l2,-3v-1l1,-2l1,-1v-3l13,3l3,-8l13,-2l4,3v5l5,1l1,-6l17,5l10,2l3,-12l-6,-6l-1,-9l24,-4v6l7,-1l5,-11l7,1l3,6l9,-1l9,-1l4,18l19,-4l22,-6l11,-2l3,3M324,708l-4,-2h-11l-15,-16l-7,-6l-11,11l-8,-7l-2,3l-15,-4l10,-25l7,2l4,-19l-7,-1l4,-19l-10,-1l-2,-11M102,752l-5,-2l-5,8l-7,-6l-2,-2v-15l3,-2l-5,-11l-14,7l-16,13l-6,-4l-1,4v1l2,4l8,2v3l2,-1l9,15l-4,3l2,5l-4,4l1,4l-7,5l1,11l5,5l6,-3l9,3l1,11l-1,8l5,-1l7,4l4,-6l14,16l-6,8l22,15M288,607l-3,-23l-7,-33l-3,-19l23,-3l9,-3l15,-2l8,-3l20,-3l-4,-18l16,-3l-8,-41l-4,-20l-16,3l1,-12v-16l-1,-4l20,-5v-100l1,-1v-50h18v3h38v72l2,21v78l24,-4l2,-3l31,-7M23,801l9,1l5,-3l17,-1M175,734l-5,20v2h-1l-2,5l3,4M275,532l-22,4l-2,7l-16,3l-3,-19l-3,-6l-6,-31v-4l-9,-45l-1,-11l4,-1l5,-7l-1,-5h1l2,-3l-1,-2h-1l1,-3l-6,-2l1,-3v-1l-3,-1l-6,-7l-2,-2l2,1v-1h1l-3,-4h3v-2l1,-2l1,-1l-1,-2l1,-1h-2h1h-1v-1h-1h1M209,380h1v1v-1v1h2v-1v1l3,5l4,1l1,-2l1,-5l1,-3l1,-4l-2,-2v-1h1l1,1v-6l-2,-2l-1,-3h-1h2l4,-1l-1,2l1,1v2l1,1v1l1,1l1,-1v-2l2,1h1v-1h1l-5,-26l-7,1v-69l1,-19h2v-38h73l1,1h57v37h1M211,381h1h-1M266,691l-6,4v10l2,8l6,4h9l5,16l-1,8l4,5l-2,3v2l-4,5l-5,2M97,404l6,33v7l7,35l5,36l17,-4l2,12l20,-3l7,38l-6,1l3,20l14,-3l1,11l4,5l-2,7l2,17l6,-1v5l4,10M223,213h-35l-9,-1M470,493l-37,7l5,27l-19,3l3,18l-18,3v9l7,33v6l-25,4l-5,8l-6,-4l-7,8l-1,6l-4,-1l-3,-6l-4,1"/>
<g class="districts"><path data-name="Congressional District 1" class="district-2301" d="M23,801l9,1l5,-3l17,-1l-1,-11l7,-5l-1,-4l4,-4l-2,-5l4,-3l-9,-15l-2,1v-3l-8,-2l-2,-4v-1l1,-4l6,4l16,-13l14,-7l5,11l-3,2v15l2,2l7,6l5,-8l5,2l4,5l8,4l1,-2l5,2l7,-10l18,20l11,9l6,-4l8,-11l-3,-4l2,-5h1v-2l5,-20l15,3l7,-13l15,4l1,-5v-11l5,-2l-19,-1l-10,-6h-12l-7,-4l4,-15l-2,-5l2,-9l10,1l17,6l17,3l7,-26l-5,-3l7,-9v-6l10,2l16,4l-3,14l11,6l-10,25l15,4l2,-3l8,7l11,-11l7,6l15,16h11l4,2l-5,17l-2,-3l-2,15l-2,-1l-1,8l9,-2l-4,10l-6,3l-4,6h-8v10l-10,8l-1,-7l2,-8l7,-7h-6l-3,8l-3,-3v7l-6,4l4,-12l-4,6l-4,-3l-3,4l2,-10l2,-6l-5,-5l-6,10l3,3l-7,6l-5,18l-5,11l-8,-13l2,7l-4,5l1,-18l-3,-2l7,-13l-6,4l-3,14h3l-3,9l3,3l-2,9v-10l-5,8l-4,-4l-1,13l-5,-7l4,-8l1,-17l-3,1l3,-18l-8,16l-3,-1l-2,8l-6,1l6,4l-2,14l5,-7v13l-6,7l-2,-2l-1,-1l-2,-25h-2v-13l-3,-10l3,-7l5,-4l-1,-9l4,-11h-1l-2,9l-3,2l-5,10v8l-3,-1l-6,4v7l-6,7v1l8,-7h1l5,-7l-1,11l4,-3v14h2l-2,14l3,9l-2,5l4,1l-12,8l-3,-18l1,-18l-1,-5l-5,8l3,4l-2,12l-2,-9l-4,12l-7,3l7,-10l-3,-2l-8,11l-4,2l14,-24l-12,1l-2,5l-8,4l1,-6l-15,18l-14,20h5l-6,7l7,-4l3,8l1,12l-10,1v-3l-8,7l-1,-4l-4,3h-1l-4,7l1,11l6,1l-6,2l-3,8h-4l-3,10l-5,2l-11,1l-8,16l1,8l-1,7l-6,7v5l-7,12h-9l-8,-4l-8,-9v-6l1,-4v-1h-1l1,-1l1,-1v-3l1,-1h-1l1,-1v-4h-1v-1l-1,-1h-1v1l-1,-1v-2h-3l-1,-2h-1v-1h-1l-1,-1v-2h-2l-1,-2v-1h1v-2h-2v-2l-1,-1v-1h-1h1v-1h-2v-2h-3v1l-1,-1v-1h-1v-1h-1v-4l-1,-1l-1,-1v-3l1,-1l-1,-1v-3l1,-1l1,-1l1,-1v-1l1,-2v-3l1,-2v-1h-2v-1h-1v-1h1v-2l1,-1l1,-1v-4h1v-2h-1v-3h1v-4h-1v-1h-1v-1h-1v-24l-1,-2v-13ZM383,745l6,-3l1,7l-4,8l-6,1ZM359,750l-2,4l-9,-4l-2,-8h-3v-7h5l7,8l7,-1ZM355,722l3,7l-10,1l-11,7l5,-9l10,-6ZM225,776l-3,2l-1,10l-3,4l-3,-10l4,-2l8,-17ZM226,779v13l-3,-7ZM159,813l-3,8l-3,-2l2,-5Z"/><path data-name="Congressional District 2" class="district-2302" d="M19,478l1,-1l2,1h3v-1h1l2,-1l1,-1l-1,-2v-2h1l2,1l2,1h3l1,1l2,3l2,1v2l1,1v2l-1,1v2l1,1v1l1,1l1,1v2l1,2h1v1h1l2,1h1l2,-1l1,-1l-1,-1l-1,-1v-2h1v-1l2,-2v-5h2l1,-1v-2l1,-2v-1l-1,-1l-1,-2v-1l1,-1v-1l1,-2l1,-1v-1l-1,-1l-1,-1l-1,-2v-2l2,-3v-1l1,-1l1,-1l2,-1h1l1,1h3v1l1,1l1,3h1v2l2,1h5l3,1v1l1,1h2v-3h1l1,-1v-2l-1,-2v-3l-1,-1l-1,-1v-1h-2l-2,-1l-1,-1l-1,-2v-1l-1,-2h-1v-1h-1l-1,-1v-1l1,-2l-1,-1v-3l2,-2l1,-1v-1l2,-2v-4l2,-2l1,-1l2,-2l1,-2v-1l2,-1l2,-1l1,-1l1,-2h1l3,-2l1,-2l2,-3l1,-1h3l3,-1l1,-1v-1l3,-2l1,-1l2,-2h1v-1l1,1l4,-1l2,-2h2l1,-1l2,-1v-1h-2v-4l-1,-1v-3l-1,-2l-1,-1v-2l2,-1h1v-2l2,-1v-1l1,-1l1,-1v-1h1l2,-2v-1h1v-1h1l4,-1l1,-1l3,-2v-1l2,-2l1,-1v-1l1,-3l-1,-2v-1h1l1,-2l1,-2v-1l-1,-1h-1v-2h-2l-1,-1h-5v-2l1,-1v-1h1l1,-1l1,-1h-2v-1l-1,-1l-1,-2v-2l2,-1v-3l2,-1v-1h1v-2h-3l-1,-1v-1l1,-1v-3l2,-1l1,-1h-1h2v-1l2,1h1v-3l1,-1v-2l1,-3l1,-1l-2,-2l-1,-2l-1,-1l-2,-2h-1l-1,-1v-2l2,-2v-1l1,-2v-1l1,-1v-1h1v-3l1,-3v-2h1l1,-2l1,-2l1,-1h1l1,-1l1,-3v-5l2,-2v-2l3,-1v-1h4l1,-1h1v-2l1,-1l1,-1h2v-1l1,-2v-2h4l1,-1h1l2,-12l1,-7l3,-15v-6l1,-3v-1l1,-2v-3l1,-6v-3l1,-2l1,-1l2,-3l1,-2l2,-2l1,-3l2,-3l5,-7l1,-1l1,-2l2,-2l3,-4l1,-2l5,-7l1,-2l1,-1l3,-4l2,-3l2,-3l2,-2l1,-3l4,-5l2,-3l9,-12l1,-1v-2l6,-7l1,-1l2,-4l8,-11l2,-3l1,-1l3,-5l1,-1l2,-3l11,-16h1l2,-3l1,-3l1,-1l3,-3l6,-9l2,-4l4,-6h8l1,1h2l1,1h2l1,1h1l1,1v1l1,1h1l1,1h2l2,-1v-1h1v1l1,1h-1l1,1l1,-1h-1v-1h1v3h1l1,2v1l-2,-1v1h1h-1v4h-1v1h-1v13l1,3h-1v1h1h-1v2h1v2h-1h1v4l1,2v1l1,1h1l2,2l5,3h1v1h1v1h1v1h1v1l1,-1h1v1h2v1h1v2h2v1h1v-1h5v-1l2,-1l1,-1h1v-1h1l2,-1v-1h2l1,-1l2,-1h3l1,-1h1l1,-1v-1h2l1,-1h1v1h1l2,-2l1,1h1l1,1h2v-1h4l1,-1h2v-1l2,-2v-1l-1,-1v-1l1,-1h1l1,-1v-1l2,1h1l1,1l1,-1l1,-1l1,-1h1l1,-1h2l1,1h2l1,-1l2,1v2h1l1,1l1,-1v1h1l2,-1l1,-1h3v1h1v-1l1,-1l-1,-1v-2l2,-10l1,-1h1l1,-1h3l2,1h2l2,-1l2,1l1,1h3v-1h2l1,1v1l1,1l1,1v-1l5,2l2,1l1,1v3l1,1l1,1l1,1h1l1,1v1l2,1l1,1h1l2,1l1,1v1l2,1l1,1l2,1l1,1l2,1l2,2l1,2l1,2h1l2,1l2,1l1,1v3h1v1l1,1v1l1,1v1l1,1l1,1h1l1,1v1l1,1v1h1v4l1,1v1h2l3,2h1l2,1h1l1,1v1h1l2,1v6l1,3v32l1,3v60l1,3v13l2,54v66l1,1v1h1v1h1v1h1l1,1v2h-1l-1,1l-1,1l-1,1l-2,1l-1,1l-1,1v2l1,1v2h1l1,1v1l1,1l1,1h1v2l2,2h-2v1h-2l-3,2l-1,11l4,5l-4,1l1,6l-2,1l2,3v1l5,-1l2,3l2,-1v-1l1,2h1v1h1v-1v1h1v-1l-1,-1v-1h-1v-3h1v2l2,-1v1l1,1v1l5,9h1l2,3l2,-1l-1,-2h1l4,4h3l3,2h5l6,2v-1h1v-1l-1,-1h2l1,-1l1,1l1,-1h1l1,2h1l1,2h1v2l1,1l-1,1v1l1,1v3l-1,1l-1,1l1,2v1l2,2v2h-2l-1,-1h-2v1l-2,-1h-1l1,2l-3,1l-1,1h-1v2l2,2v3l1,2h1l-1,1l1,1v2l1,1h1l1,2v1l2,1l2,3l1,2v2h-2v1l1,2v2l-1,1v1l-1,1l-1,1l-1,2v3l-1,1l-1,1v1h-1l-1,1l-1,2h1l1,1v1l1,1v2h1v1l1,1l2,1v1l1,1v3l2,1v4l2,1v1l1,1h1l-1,2l1,1v1l3,1l1,1l1,1l1,2l2,1h2l1,-1l1,-2h2v-1h2v-2l-1,-1v-2h1v-3h1v-1h2l2,1l1,1l2,1v1h2v1l4,-1l6,1l3,4l2,3l6,12l-4,3l6,7l5,9v8l-5,7l-3,-5l-4,4v8l-4,-5h-5l4,5l4,16v-15l8,2l-2,-6l7,7v8l3,-6l-3,-11l5,4v8l4,-1l2,10l-7,8h-5l-15,23l-11,6l-1,-7h-4l2,9l-5,1l-3,-9l2,-10l-10,2l-6,5l4,3l2,7l-8,6l-2,-13l-3,8l1,5l-7,-2l-9,-9l1,7l-5,13l2,7h-11l-1,-7l-8,6v5l-7,4l1,-23l-4,10l-4,2v-10l-5,10l-6,6l2,7l-5,7l-2,12l-3,-4v-16l-1,5l-1,12l-4,-3l-3,-9l1,-7h-3l-1,9l-4,-4l1,6l5,2l3,9l-6,-2l-3,11l-7,5l-1,-10l-4,1l-2,-6l-1,-13l-6,-8l-1,7h-4l-1,-11l-8,-4l-1,-5l8,-1l-8,-2l-2,9l8,4l-2,12l-5,-6l-1,-7l-5,1l5,5l-2,9l-6,-2l-5,1l-3,7l-9,6l2,-22l-7,4l2,6l-1,16h-2v-16l-8,12l-9,-3l4,7l-4,10l5,-8l2,3l-4,10l5,6l2,11l-9,-8l-13,-5l-10,-8l-3,-5l-1,5l-10,4v-9l5,-4l6,-12l11,10l-9,-13l-5,4l-4,8l-4,1l1,-10l6,-6v-9l5,-10l-4,-5l-6,-1l-5,-12l4,-12l-8,21l5,-3l5,8v12l-4,3l1,6l-5,4l1,-8l-8,6h-4l-2,5h-10l9,16l-1,7l-3,6h-4l-4,10l-4,-2h-11l-15,-16l-7,-6l-11,11l-8,-7l-2,3l-15,-4l10,-25l-11,-6l3,-14l-16,-4l-10,-2v6l-7,9l5,3l-7,26l-17,-3l-17,-6l-10,-1l-2,9l2,5l-4,15l7,4h12l10,6l19,1l-5,2v11l-1,5l-15,-4l-7,13l-15,-3l-5,20v2h-1l-2,5l3,4l-8,11l-6,4l-11,-9l-18,-20l-7,10l-5,-2l-1,2l-8,-4l-4,-5l-5,-2l-5,8l-7,-6l-2,-2v-15l3,-2l-5,-11l-14,7l-16,13l-6,-4l-1,4v1l2,4l8,2v3l2,-1l9,15l-4,3l2,5l-4,4l1,4l-7,5l1,11l-17,1l-5,3l-9,-1v-79l-1,-13v-45l-1,-2v-66l-1,-5v-10l-1,-10v-29l-1,-2v-37l-1,-7v-6l-1,-8ZM543,650l3,12h-4l-2,-11ZM434,667h7l2,6l7,4l4,12l-8,10l-12,-1l-1,-14v18l3,6l-7,5l-1,-6h-9l-4,-13l3,-2l-1,-7l9,-7l-1,-8ZM411,726l-4,4l-3,-4l9,-4ZM411,726l6,-5l4,9l-6,3ZM416,685l-1,6l-4,-4l3,-5ZM408,691l-8,1l1,-12l2,-1ZM380,703l8,6l-5,6h7l-7,12l-6,2l-6,-5l2,-13ZM360,640l5,8l-3,6l-4,-11ZM348,681l-3,7v8l-4,10l-2,-10l4,-16Z"/></g>
  <path class="districts-mesh" d="M23,801l9,1l5,-3l17,-1l-1,-11l7,-5l-1,-4l4,-4l-2,-5l4,-3l-9,-15l-2,1v-3l-8,-2l-2,-4v-1l1,-4l6,4l16,-13l14,-7l5,11l-3,2v15l2,2l7,6l5,-8l5,2l4,5l8,4l1,-2l5,2l7,-10l18,20l11,9l6,-4l8,-11l-3,-4l2,-5h1v-2l5,-20l15,3l7,-13l15,4l1,-5v-11l5,-2l-19,-1l-10,-6h-12l-7,-4l4,-15l-2,-5l2,-9l10,1l17,6l17,3l7,-26l-5,-3l7,-9v-6l10,2l16,4l-3,14l11,6l-10,25l15,4l2,-3l8,7l11,-11l7,6l15,16h11l4,2"/>
</svg>