<?xml version="1.0" encoding="utf-8"?>
<!DOCTYPE svg PUBLIC "-//W3C//DTD SVG 1.1//EN" "http://www.w3.org/Graphics/SVG/1.1/DTD/svg11.dtd">
<svg version="1.1" xmlns="http://www.w3.org/2000/svg" width="871" height="1000" viewBox="0 0 871 1000">
  <path class="state" d="M848,239l-45,116l-77,2l-39,28l-16,10l-33,24l-23,15l-35,22l-9,-6l-4,1h-1l-1,2l-1,2h-3l-1,1v3h1v2l-1,2l-1,1l1,2h-4v1h-1l-3,-1l-2,-1v-2v64l1,3v29h-2v1h-2l-1,1v3h-1v3h-1h1l-1,1h1h-1l-1,1h-1v-1h-2v-1h-5l-1,1v2h-1v1l-1,1v1h-1v2h-4v-1h-3l-1,1l-1,1v3h-1v1h-2l-1,1h-2v1h-3v1l-1,-1v2h-2l-1,1h-1v2h-2v1h-2v1h-1v2l-1,1l-1,2h1l-1,1v2h-1l-1,1h-1v7l-1,1v2l-1,1v1h-1l-1,1v1h-1v1h-1v1h-1v1h-3v2h-1v3h-1h1v1h-1v5h-1v2l-1,1l1,1l-1,1v1h1v9h1l3,1l4,1l5,-1l5,3v5l1,1l1,1l1,2l1,1v1l1,1v1l4,1v9h-1v1h-1v1h-1v1l-1,1v1h-1v1l-1,1v3h1v1h-1v1l-1,1l-1,1v1h-1v1h-2v1h-2v3l1,1l-1,3l1,4v3l-1,1v1l-1,1v1h1l1,2v4l1,1v3h1v2l-1,1h-1v1h-1v1h-1v1h-1v1l-1,1l-1,1v1l4,5v3h-1v6l1,1l1,1l1,3v1l-1,4l-1,1h-1v3l1,1v8l-1,1v5h-1v1l-1,1l-1,1v1l-1,2v1h1v1l8,5l4,3l2,2l1,1v1h1l5,4v1l1,1v1h-1v2h1l2,1h1v1h2v1h1v1h1v2l1,1h1v-1h4v1h5v1h1v-1l12,1l2,2h1v2l2,4v3h1l5,5h1l2,3l12,3h1v1l7,2l12,8v1l3,2l1,1v3l-1,1v2l3,2v2l1,2v4l2,2v2h1v1h1l4,3v1l14,8v3l5,2v1l7,6v1h1l10,2l8,4h1l1,2l1,2l2,1l1,1h1l1,1v2l1,2v1h1l1,1l1,1v1l3,3v2l1,1l1,1v1l1,1h1v1l1,1v2l1,1v1l1,2v2l1,1v2l-1,2v5l-1,1v9l1,2v6l4,4v3l-1,1v3l1,1l1,4l1,1h-9l-20,1h-17l-14,1h-33l-8,1h-56l-13,1h-168l-5,-1h-54l-20,-1h-24l-13,-1h-37l-4,-1h-31l-11,-1h-22l-2,-1h-23l-15,-1h-12l-1,-1l1,-19l1,-20v-17l1,-19v-17l1,-19v-6l1,-2v-4l1,-28l1,-10v-11l1,-10v-30l1,-18v-12l1,-7v-3l1,-32v-5l-1,-2v-1l-1,-2v-1l-1,-2l-4,-5h-1v-1h-4l-1,-1l-1,-1l-1,-1h-1l-1,-1h-4l-1,-1h-1l-4,-3v-1l-4,-5v-2l-1,-1v-4l-1,-1v-1l-2,-3l-2,-3l-4,-5v-1l-1,-1v-1l-1,-1l1,-2v-1l1,-2l1,-1v-1l2,-1l1,-1l2,-1l1,-1h1l1,-1l8,-6l6,-4l1,-2v-3h1l1,-1l2,-2v-1l1,-1l1,-1v-1l2,-11v-1h1v-12h-1l1,-1v-3h-1v-4l1,-3v-1h1v-4h1v-1l-1,-1l1,-1v-1h-1v-2h-1v-10h-1v-3h1h-1l1,-1v-2h-1v-1h-1v-3l1,-1h1v-1l-1,1v-2l-1,-1l1,-1v-1l-1,-1l1,-1h-1h1v-1h-1l1,-1h-1v-2h1l-1,-1v-1h1l-1,-1v1v-1h1h-1v-1h-1l-1,-1h1h-2v-1h-2v-1h1v-1h-2v-2h-1v-5l-1,-1l-1,1v-1h1v-1h-2v-1v1h-1v-1h1v-2l-1,1v-1l1,-1h-1l-1,1v-4h1l-1,-1v-1v1v-2h-2h1v-1l-1,-1l1,-1h-1l1,-1h-1h1l-1,-1v-1l1,1v-1l-1,-1h1v-1l-1,-2l1,1v-1l-1,-1v1l1,-1h-2l1,-1v1h1l-2,-2l1,-1h-1h2l-1,-1v-1h-1h1l-1,-1v1v-1h1h-2h2l-2,-1h1v-1h-2v-4h-1v-1h1h-2h1l1,-1h-2v-1h1v-2l-1,-1v-2h-1l1,-1h1l-1,-1h1v-1h-1h2v-2h-1v-1h1v-2h-1h1v-8h1h-1v-2h-1l1,-1v-1h-1v-4l1,-1v-2h1v-2h1h-2v-1h1l-1,-1h1v-3h1l1,-1h-1v-1h1h-1v-1l1,-2v1l1,-1v-2h1v-1h-2h2l-1,-1l-3,1v-1h-1v1v-2l-1,-1h1v-3l-1,1l-1,-1l-1,-1l1,-1l-1,-1v-2h1v-1h-1v-1h-2h1v-1l1,-1l2,-1l-1,-1l1,-1h-1v-1h-1l1,-1v-1h-1h1v-3h1l-1,-1h1v-1h-1h1v-4l-1,-1h-1l1,-1v-3h-1h1v-1h-2v-1h3h-1v-1h1v-2h-1v-1h1h-1h1h-2l2,-1h-1v-1h-1l-1,1v-1l2,-1h1h-1l-1,-1h1v-1h-1l1,-1h-2l2,-1v-1l-1,1v-1h2l-1,-1v-1h-1v1v-1l1,-1v-1h-1v1v-2l1,1v-1h-2h1v-1h1h-1l-1,-1h1v-4h2v-1h-2l1,-1h-1l1,-1h1h-1l1,-1v-1h-1v1h-1l1,-1h1v-1h-1v-1h-1v-1h1l1,-1h-2v-2h-1h2l1,-1h-1l-1,1l-1,-1h2v-1h-1l1,-1v1h1v-2h-1v-1h1l-1,-2h-2v-1h-1h1l1,-1h-1v-1h1h-1v-1h1v-1h-1v-1h1v-1h-1h1v-2h-1l1,-1h1v-1h-2v-1h2h-1l-1,-1h1l1,-1v-2v1h1v-1h-1v-1l1,1v-1h-2l-1,-1v-1h1l1,-2h-1h2h-2h1v-2l-1,-1h2v-1l-1,1h-1v-1h2h-1v-3h1v-1h-1l1,-1h-1v-2h-1v-1l-1,-1h-1v-1h1h-1v-7l-1,-1v-2h-1v-2l-1,1v-1h1v-1h-1v-2l-1,1h-1v-1h2v-1h-1v-1l-1,-1l1,-1v-1l-1,-1h1h-1v-3h-2v-1h-1h1v-1h1h-1v-2h-1v1l-1,-1v-1h-1l1,-1v1v-3h1h-1v-2h-1v-4h-1v-1h1l-1,-1h-2v-5h1v-1l-1,-1h1l-1,-1v-1h-1v-2h-1l-1,-1v-1h1v-1l-1,-1v-3l1,-1v-1l-1,-1l-1,-1v-1h1h-1v-6h-1v-1h-1v-2h-1v-1h1v-2h-1v-1l1,-1h-1l-1,-1h-1v-2l-1,-3h1l-1,-1h-1v1v-2h1l1,-1h1v-1h-3v-2h1v-1h-1v-2l1,-2l1,-1h-1v-1h1v1h1v1v-1h1h-1v-1h-1l-1,-1h-1v1v-1l2,-1l1,1v-1h-1l-1,-1h-1l1,-1h1h-2v-1l2,-1h1h-1h1v-1h-2v-1h2v-1h1v-3h-1l-1,1v-1l1,-1h1v1h1v-1l-1,-1h-1l1,-1h-2v-1h1v-1v1l2,-1l-2,-1h-2h1l1,-1l1,-1l-1,-1h-1v-1l-1,-1v-1l-1,-1h3h-1v-1h1h-2l-1,-1v-2h2l1,-1h1v-1h-1v-1h-1v1l-1,-1v-1h3l1,1v-1h-1v-1h-2v-1l2,1l1,-1v-1l-1,-1l-3,1h1v-1h1l1,-2v-1h-1l-1,-1v-1h1l1,1h1v-1h-5v-1h2l1,-1v-1l1,1v-1h-2v-2l3,-1v-1h-1l-1,1h-1v-2h1v-1h1l-1,-1h-1l-1,-1h-1v-1h4v-1h-4v-1h2v-1h1v-1h-1v-1h1l1,-2h-2l1,-1h1l1,-1h-2v-1h2v-1v1v-3h1v1l1,-2v-1h1v-1h1v-1l-1,-1h1v-3h1v-1h-2v-1l-1,-1v-1h1l-1,-1v-1h-1v-1h-1v-1h1v-1h-1v-2h-1v-1h1v-2h-1l-1,-1h2v-1h-1v-1l-1,-1h-1h1v-1h-2h1l2,-1v-1h-2l-1,-1h-1h1v-1h1l-1,-1v-1h1v-2h-1h1v-2h-2l1,-1h1v-1h-2v-3h1l-1,-1l-1,-1v-2h-1v-2h1v-1h-1l-1,-1v-4h-1v-3h1l1,-1h-1v-1h1l31,1l14,1l31,1h1l5,1h33l17,1h23l6,1h28l4,1h26v-40l1,-3v-18h2l1,1l1,1h1v1l5,2l5,-1l3,-2h3l5,3l3,3l3,2h1l1,3v2l4,13l-1,2l2,13l3,3l6,33v4h-1v6l-1,1v1l1,2v5l2,1l1,1v1l2,2v1h2l1,1l1,1h1l1,2l4,1l1,2h3l1,1h4l1,1h1l1,-1l1,-1l1,-1h1l2,-1h1l1,1l2,1l4,-1l4,1v1h2l1,2v1l-1,2l1,1h1l1,1h6l2,1h10l2,1h1l3,-1v1l9,1l9,1l3,12l-2,4l5,2h6l15,-2l13,-3v-7l10,-3h1l7,-4l4,-1l8,3l9,-1l8,1h3l3,-1l1,4l4,2h2l18,8l6,-1l4,4l1,1l-1,1v1h1l-1,1h-2v-1l-1,1l-5,4v2l5,4l13,-2h3l2,2v1h2v1l2,3l-1,2l-1,3l3,8l1,2h1l3,5v1l1,2l1,1v3l1,2h1l1,-1h1l1,-1h1l1,-1h1l3,-1h1v-2l-2,-1v-2l-1,-2l1,-3l-2,-1l2,-4l3,-2l3,1h3l1,-1v1l2,-1v-1l2,-1h1v1h10l1,1v1l3,4v3l1,2v3l1,1l3,2v1v-2h2v1l1,1h-1v2h2l1,-1h3l1,2l3,3h1l2,-1h2l1,1l1,1l1,1l3,-1v-1l1,1h1v-1l4,2v1l-2,1v1h1l1,-1v5h1v1l-1,2v1l1,1l1,-1l1,1l1,1h2v1h11l-2,2l-1,4v2l1,1l9,-3h5v2h2l3,-1l2,-1l2,-1l2,-1v1h1v-1h2l4,-1h1l1,-1l1,-1l5,-5h2v-1l2,-3l2,-1v-1h1v-1l1,-1h1l3,-1v-1h2l1,-1h2l1,-1l3,-1l-1,-1l3,-3l6,-2l4,-1h5v8l1,2h1v-1l1,1l1,1v1l2,-1l1,1v2l-2,1l1,1v1l1,1l1,1l2,4h1l6,-1l5,-1l6,-4v1l2,-1l-1,3l1,1l1,1l4,-1h4v-1h1l1,-1l1,1l1,1l4,-1h1l1,1h1v1h1l1,-1h2l2,-1l1,-1h1l1,1h1l1,-1h2l3,-1l1,1h1l2,-1h1v-1l2,1h2v-1h1v1h1l1,1l2,-1l4,1l1,1h1v1h2l1,3h1v1l2,2l-1,2l1,1v1h2l1,1h4l1,1v2l2,1h4l2,-1v-1h1v-1l1,-1v-1h7l2,-1v1h3l1,1h1v-1h4l1,1h1v-1h3l2,1h3Z"/>
<g class="geos"><path data-name="Mille Lacs" class="geo-095" d="M382,547v-15h42v15l-1,2v26h-9v40l1,28h-28v-42l-1,-2v-25h-5Z"/><path data-name="Fillmore" class="geo-045" d="M621,916v30h1v27h-33l-8,1h-43l-1,-17v-40h68Z"/><path data-name="Lac qui Parle" class="geo-073" d="M79,725l1,-7v-3l1,-32l4,1l15,3l1,4l19,8l7,4l5,7l18,19v3l2,5l8,3v6h-12l-1,14h-25v-1h-24l-20,-1v-3l1,-18v-7Z"/><path data-name="McLeod" class="geo-085" d="M301,749v-14l2,1h55v32l-1,11l-4,-1h-24v14h-28v-14Z"/><path data-name="Todd" class="geo-153" d="M232,510h34l13,1l2,3h7v49l-1,1v43l-11,-1h-44v-82Z"/><path data-name="Nobles" class="geo-105" d="M187,916h2l-1,6v26l-1,23h-31l-11,-1h-22l-2,-1h-4v-31l2,-25l5,1h26v1h31Z"/><path data-name="Aitkin" class="geo-001" d="M386,442v-36h53v1h25v69h1v71h-41v-15h-42v-55h3Z"/><path data-name="Hubbard" class="geo-057" d="M232,353v-11h22l4,1h31v90l-1,8h-14l-9,-1h-33l1,-4v-52l1,-28Z"/><path data-name="Jackson" class="geo-063" d="M189,916h69l-1,5v52h-16l-13,-1h-37l-4,-1l1,-23v-26Z"/><path data-name="Dodge" class="geo-039" d="M468,862h42l1,20v36h-43Z"/><path data-name="Freeborn" class="geo-047" d="M398,918h70v57h-71l1,-1Z"/><path data-name="Pope" class="geo-121" d="M162,620v-14l18,1h29v1h23v56h-49l-21,-1Z"/><path data-name="Sibley" class="geo-143" d="M301,778v14h28v-14h24l4,1h14v6h14v6l-6,1l-7,5l-1,9h-3l3,8l-5,6h-27v-1h-53v-41Z"/><path data-name="Olmsted" class="geo-109" d="M510,862h41l1,14h28v41h-43v3h-28v-2h2v-36Z"/><path data-name="Kandiyohi" class="geo-067" d="M218,664h51l4,1l-1,14l1,14l-1,26v30l-25,-1h-31l1,-11v-27l1,-5l-1,-13Z"/><path data-name="Rock" class="geo-133" d="M72,925v-14l1,1h22v1h24l-2,25v31h-19l-15,-1h-12l-1,-1l1,-19l1,-20Z"/><path data-name="Waseca" class="geo-161" d="M384,862h42v56h-42Z"/><path data-name="Cottonwood" class="geo-033" d="M189,859h22l17,1h2v15h28l-1,17v24h-70l1,-8v-29Z"/><path data-name="Koochiching" class="geo-071" d="M393,166l15,-2l13,-4v-6l10,-3h1l7,-4l4,-1l8,3l9,-1v61h-1v29l3,15v14h-41v-1h-34v9l-9,-1h-61v-113l1,-25l1,-1h1l2,-1h1l1,1l2,1l4,-1l4,1v1h2l1,2v1l-1,2l1,1h1l1,1h6l2,1h10l2,1h1l3,-1v1l9,1l9,1l3,8l-2,8l5,2Z"/><path data-name="Watonwan" class="geo-165" d="M258,875l18,1h38v41h-46l-10,-1h-1v-24Z"/><path data-name="Wright" class="geo-171" d="M329,686l6,-4l7,2l7,-9v-1l1,-1h-1h1l-1,-1l1,-2l1,-1v-1h1v-2l1,-2l11,8l5,-1l6,8h3l8,6h21l6,8v4l-8,1l-8,3l3,3l-4,4l-6,9l-2,3h-2l1,1h-1h1l-1,1v1l-1,14l-27,-1h-29Z"/><path data-name="Clay" class="geo-027" d="M54,431v-2h1v-2h1h-2v-1h1l-1,-1h1v-3h1l1,-1h-1v-1h1h-1v-1l1,-2v1l1,-1v-2h1v-1h-2h2l-1,-1l-3,1v-1h-1v1v-2l-1,-1h1v-3l-1,1l-1,-1l-1,-1l1,-1l-1,-1v-2h1v-1h-1v-1h-2h1v-1l1,-1l2,-1l-1,-1l1,-1h-1v-1h-1l1,-1v-1h-1h1v-3h1l-1,-1h1v-1h-1h1v-4l-1,-1h-1l1,-1v-3h-1h1v-1h-2l19,1h22l2,1h24l5,1l-1,28h1l-1,42v14l-12,-1h-24v-1h-24l-7,-1h-2v-1h1v-2l-1,-1v-2h-1l1,-1h1l-1,-1h1v-1h-1h2v-2h-1v-1h1v-2h-1h1v-8h1h-1v-2h-1l1,-1v-1h-1v-4Z"/><path data-name="Scott" class="geo-139" d="M405,769l8,-5h13l9,2l1,19v8h5l-1,13h-72h3l1,-9l7,-5l6,-1l8,-5l2,-4l7,-1l-1,-6Z"/><path data-name="Becker" class="geo-005" d="M122,381h14l11,1h23l22,1l17,1h24v52l-1,4v14l-7,-1h-46v-1h-25l-1,-1h-32l1,-42h-1Z"/><path data-name="Norman" class="geo-107" d="M53,350v-1h-1v1h-1l1,-1h1v-1h-1v-1h-1v-1h1l1,-1h-2v-2h-1h2l1,-1h-1l-1,1l-1,-1h2v-1h-1l1,-1v1h1v-2h-1v-1h1l-1,-2h-2v-1h-1h1l1,-1h-1v-1h1h-1v-1h1v-1h-1v-1h1v-1h-1h1v-2h-1l1,-1h1v-1h-2v-1h2h-1l-1,-1h1l1,-1l17,1h22l4,1h24l18,1l-1,8v48h-14l-5,-1h-24l-2,-1h-22l-19,-1v-1h3h-1v-1h1v-2h-1v-1h1h-1h1h-2l2,-1h-1v-1h-1l-1,1v-1l2,-1h1h-1l-1,-1h1v-1h-1l1,-1h-2l2,-1v-1l-1,1v-1h2l-1,-1v-1h-1v1v-1l1,-1v-1h-1v1v-2l1,1v-1h-2h1v-1h1h-1l-1,-1h1v-4h2v-1h-2l1,-1h-1l1,-1h1h-1Z"/><path data-name="Chisago" class="geo-025" d="M470,666l-1,-18v-5h-13v-28h34h-2v2h-1v3h-1h1v1h-1v5h-1v2l-1,1l1,1l-1,1v1h1v9h1l3,1l4,1l5,-1l5,3v5l1,1l1,1l1,2l1,1v1l1,1v1l4,1v9h-1v1h-1v1h-1v1l-1,1v1h-1v1l-1,1v3h1v1h-1v1l-1,1l-1,1v1h-1v1h-2v1h-31Z"/><path data-name="Marshall" class="geo-089" d="M27,180h1h-1v-1h1h-2l-1,-1v-2h2l1,-1h1v-1h-1v-1h-1v1l-1,-1v-1h3l1,1v-1h-1v-1h-2v-1l2,1l1,-1v-1l-1,-1l-3,1h1v-1h1l1,-2v-1h-1l-1,-1v-1h1l1,1h1v-1h-5v-1h2l1,-1v-1l1,1v-1h-2v-2l3,-1v-1h-1l-1,1h-1v-2h1v-1h1l-1,-1h-1l-1,-1l4,1l39,1l2,1l38,1l36,1l19,2l29,1l-1,7v51h-46v-1h-24l-28,-2l-18,-1h-22l-1,-1l-28,-1h1v-1h-1v-2l1,-2l1,-1h-1v-1h1v1h1v1v-1h1h-1v-1h-1l-1,-1h-1v1v-1l2,-1l1,1v-1h-1l-1,-1h-1l1,-1h1h-2v-1l2,-1h1h-1h1v-1h-2v-1h2v-1h1v-3h-1l-1,1v-1l1,-1h1v1h1v-1l-1,-1h-1l1,-1h-2v-1h1v-1v1l2,-1l-2,-1h-2h1l1,-1l1,-1l-1,-1h-1v-1l-1,-1v-1l-1,-1h2Z"/><path data-name="Winona" class="geo-169" d="M580,876v-15h25l4,3v1l14,8v3l5,2v1l7,6v1h1l10,2l8,4h1l1,2l1,2l2,1l1,1h1l1,1v2l1,2v1h1l1,1l1,1v1l3,3v2l1,1l1,1v1l1,1h-51l-16,1h-25Z"/><path data-name="Beltrami" class="geo-007" d="M193,160h41l-1,28l12,1h59l13,1v144l-1,4v6l-4,-1h-54l-4,-1h-22l1,-2v-72l-5,-2l-3,-3v-9l2,-4l2,-6l-11,-1h-26l-1,-17l1,-8v-51Z"/><path data-name="Lyon" class="geo-083" d="M118,787l19,1h27l11,1l-1,14h1v35l-1,20h-54l-1,-1h-2l1,-7v-26l1,-23Z"/><path data-name="Goodhue" class="geo-049" d="M503,779l4,3l2,2l1,1v1h1l5,4v1l1,1v1h-1v2h1l2,1h1v1h2v1h1v1h1v2l1,1h1v-1h4v1h5v1h1v-1l12,1l2,2h1v2l2,4v3h1l5,5h1l-22,1v14h-13v28h-56v-51h13v-5h15v-14h6Z"/><path data-name="Itasca" class="geo-061" d="M367,360v-2l-2,-1l-2,-2l-6,-4l1,-7l-5,-9l-3,-2l-23,10l-11,-5l1,-4v-60h61l9,1v-9h34v1h41l-1,27l3,1v112h-25v-1h-53l1,-30l-4,-3l2,-11l-11,-3Z"/><path data-name="Meeker" class="geo-093" d="M272,679l14,1h29v6h14v50h-26l-2,-1v14h-29v-30l1,-26Z"/><path data-name="Kanabec" class="geo-065" d="M424,547h41v28h-9v40h-42v-40h9v-26Z"/><path data-name="Lake of the Woods" class="geo-077" d="M227,101l-4,-5l2,-1v-1v1l-2,-5l1,-3v-1h18v-40l1,-3v-18h2l1,1l1,1h1v1l5,2l5,-1l3,-2h3l5,3l3,3l3,2h1l1,3v2l4,13l-1,2l2,13l3,3v16h3l3,21h-1v6l-1,1v1l1,2v5l2,1l1,1v1l2,2v1h2l1,1l1,1h1l1,2l4,1l1,2h3l1,1h4l1,1h1l1,-1l1,-1l-1,25v29l-13,-1h-59l-12,-1l1,-28h-14l1,-28l26,1l1,-33l-4,3l-13,2Z"/><path data-name="Lincoln" class="geo-081" d="M77,806v-11l1,-10l7,1h25l8,1l1,14l-1,23v26l-1,7l-20,-1h-23v-6l1,-2v-4l1,-28Z"/><path data-name="Otter Tail" class="geo-111" d="M109,464l12,1v-14h32l1,1h25v1h46l7,1v98l-20,-1h-34l-15,-1l-13,-1h-28l-15,-1l1,-27l-1,-33Z"/><path data-name="Cass" class="geo-021" d="M289,343h23l4,1v-6l11,5l23,-10l3,2l5,9l-1,7l6,4l2,2l2,1v2l7,-1l11,3l-2,11l4,3l-1,30v36h-57l-6,-1v29h1v56l-2,1l-6,-8l-7,-1l-7,4l-11,-4l-3,-4h-7l-2,-3l-5,-4v-66h14l1,-8Z"/><path data-name="Dakota" class="geo-037" d="M435,766l9,-3l6,-8l2,-4l6,-5h9l3,4l1,8l-1,10h10l8,3l7,3l8,5v13h-6v14h-15v5h-13v7h-29v-12l1,-13h-5v-8Z"/><path data-name="Lake" class="geo-075" d="M599,216l1,1l3,-1v-1l1,1h1v-1l4,2v1l-2,1v1h1l1,-1v5h1v1l-1,2v1l1,1l1,-1l1,1l1,1h2v1h11l-2,2l-1,4v2l1,1l9,-3h5v2h2l3,-1l2,-1l2,-1l2,-1v1h1v-1h2l4,-1h1l1,-1l1,-1l5,-5h2v-1l2,-3l2,-1v-1h1v-1l1,-1h1l3,-1v-1h2l1,-1h2v15l2,5v28l2,15v32l1,21l16,22l10,13l-14,10l-27,18l-33,24l-23,15l-11,7v-38l-1,-2v-67l-1,-1v-25l-2,-14v-38l-1,-1Z"/><path data-name="Anoka" class="geo-003" d="M415,666h55v47h-24v14h-6v-5l-1,-9l-2,-4l-7,-5l-6,-5l-10,-6Z"/><path data-name="Mower" class="geo-099" d="M468,918h41v2h28v37l1,17h-13l-13,1h-44Z"/><path data-name="Murray" class="geo-101" d="M119,857l1,1h54l15,1l-1,20v29l-1,8l-6,-1h-31v-1h-26l-5,-1h-2l1,-13v-24Z"/><path data-name="Ramsey" class="geo-123" d="M470,713h4v37h-4l-3,-4h-9l-6,5l-3,-3v-21h-3v-14Z"/><path data-name="Wilkin" class="geo-167" d="M109,464l-2,24l1,33l-1,27v15l-4,-1h-21l-10,-1v-1l1,-3v-1h1v-4h1v-1l-1,-1l1,-1v-1h-1v-2h-1v-10h-1v-3h1h-1l1,-1v-2h-1v-1h-1v-3l1,-1h1v-1l-1,1v-2l-1,-1l1,-1v-1l-1,-1l1,-1h-1h1v-1h-1l1,-1h-1v-2h1l-1,-1v-1h1l-1,-1v1v-1h1h-1v-1h-1l-1,-1h1h-2v-1h-2v-1h1v-1h-2v-2h-1v-5l-1,-1l-1,1v-1h1v-1h-2v-1v1h-1v-1h1v-2l-1,1v-1l1,-1h-1l-1,1v-4h1l-1,-1v-1v1v-2h-2h1v-1l-1,-1l1,-1h-1l1,-1h-1h1l-1,-1v-1l1,1v-1l-1,-1h1v-1l-1,-2l1,1v-1l-1,-1v1l1,-1h-2l1,-1v1h1l-2,-2l1,-1h-1h2l-1,-1v-1h-1h1l-1,-1v1v-1h1h-2h2l-2,-1h1v-1h-2v-4h-1v-1h1h-2h1l1,-1l7,1h24v1Z"/><path data-name="Isanti" class="geo-059" d="M415,643l-1,-28h42v28h13v5l1,18h-55Z"/><path data-name="Benton" class="geo-009" d="M329,607l-5,-1l-4,-6h58l9,1v42h-44l-6,-9l-2,-19l-5,-2Z"/><path data-name="Wadena" class="geo-159" d="M232,454v-14h33l9,1v66l5,4l-13,-1h-34v-1Z"/><path data-name="Pennington" class="geo-113" d="M94,215l28,2h24v1h46l-1,8l1,17v14h-14v-5l-8,-1h-34v-1h-27l-14,-1l-2,-10Z"/><path data-name="Wabasha" class="geo-157" d="M560,819l2,3l12,3h1v1l7,2l12,8v1l3,2l1,1v3l-1,1v2l3,2v2l1,2v4l2,2v2h1v1h1h-25v15h-28l-1,-14h-26v-28h13v-14Z"/><path data-name="Washington" class="geo-163" d="M474,713h-4v-28h31h-2v3l1,1l-1,3l1,4v3l-1,1v1l-1,1v1h1l1,2v4l1,1v3h1v2l-1,1h-1v1h-1v1h-1v1h-1v1l-1,1l-1,1v1l4,5v3h-1v6l1,1l1,1l1,3v1l-1,4l-1,1h-1v3l1,1v8l-1,1v5h-1v1l-1,1l-1,1v1l-1,2v1h1v1l-7,-3l-8,-3h-10l1,-10l-1,-8h4Z"/><path data-name="Crow Wing" class="geo-035" d="M323,470v-29l6,1h57l-1,35h-3v55h1h-1v15h-41l-1,-1h-21l-3,-8l1,-6l5,-5l2,-1v-56Z"/><path data-name="Traverse" class="geo-155" d="M72,580h1v-12h-1l1,-1v-3h-1v-3l10,1h21l4,1v42l-1,14v14l-1,-1h-24l-2,-1h-21l-18,-1v-1l-1,-1v-1l-1,-1l1,-2v-1l1,-2l1,-1v-1l2,-1l1,-1l2,-1l1,-1h1l1,-1l8,-6l6,-4l1,-2v-3h1l1,-1l2,-2v-1l1,-1l1,-1v-1l2,-11Z"/><path data-name="Yellow Medicine" class="geo-173" d="M78,771v-13l20,1h24v1h25l1,-14h12v-6l2,4l6,2l7,9l8,4l1,6l5,4l10,5l4,5l-1,25l-2,-1h-26l1,-14l-11,-1h-27l-19,-1l-8,-1h-25l-7,-1v-6Z"/><path data-name="Rice" class="geo-131" d="M412,806h28v12h29v44h-57Z"/><path data-name="Stearns" class="geo-145" d="M343,643v11l10,10l-1,2v2h-1v1l-1,1l-1,2l1,1h-1h1l-1,1v1l-7,9l-7,-2l-6,4h-14v-6h-29l-14,-1l1,-14l-4,-1h-37v-58h44l11,1h42l1,6l5,2l2,19Z"/><path data-name="Sherburne" class="geo-141" d="M343,643h72v23l-1,27h-1l-6,-8h-21l-8,-6h-3l-6,-8l-5,1l-11,-8l-10,-10Z"/><path data-name="Le Sueur" class="geo-079" d="M412,806v56h-28v-6h-28v-7l7,-5l1,-5l-1,-12l3,-7l5,-6l-3,-8Z"/><path data-name="St. Louis" class="geo-137" d="M462,267v-14l-3,-15v-29h1v-61l8,1h3l3,-1l1,4l4,2h2l18,8l6,-1l4,4l1,1l-1,1v1h1l-1,1h-2v-1l-1,1l-5,4v2l5,4l13,-2h3l2,2v1h2v1l2,3l-1,2l-1,3l3,8l1,2h1l3,5v1l1,2l1,1v3l1,2h1l1,-1h1l1,-1h1l1,-1h1l3,-1h1v-2l-2,-1v-2l-1,-2l1,-3l-2,-1l2,-4l3,-2l3,1h3l1,-1v1l2,-1v-1l2,-1h1v1h10l1,1v1l3,4v3l1,2v3l1,1l3,2v1v-2h2v1l1,1h-1v2h2l1,-1h3l1,2l3,3h1l2,-1h2l1,1l1,1v39l1,1v38l2,14v25l1,1v67l1,2v38l-19,12l-5,3l-9,-6l-4,1h-1l-1,2l-1,2h-3l-1,1v3h1v2l-1,2l-1,1l1,2h-4v1h-1l-3,-1l-2,-1v-2v1h-2v-16h-56l-1,1h-27v-154l-3,-1Z"/><path data-name="Cook" class="geo-031" d="M681,216l1,-1l3,-1l-1,-1l3,-3l6,-2l4,-1h5v8l1,2h1v-1l1,1l1,1v1l2,-1l1,1v2l-2,1l1,1v1l1,1l1,1l2,4h1l6,-1l5,-1l6,-4v1l2,-1l-1,3l1,1l1,1l4,-1h4v-1h1l1,-1l1,1l1,1l4,-1h1l1,1h1v1h1l1,-1h2l2,-1l1,-1h1l1,1h1l1,-1h2l3,-1l1,1h1l2,-1h1v-1l2,1h2v-1h1v1h1l1,1l2,-1l4,1l1,1h1v1h2l1,3h1v1l2,2l-1,2l1,1v1h2l1,1h4l1,1v2l2,1h4l2,-1v-1h1v-1l1,-1v-1h7l2,-1v1h3l1,1h1v-1h4l1,1h1v-1h3l2,1h11l-13,34l-5,13l-9,23l-18,46h-76l-15,12l-10,-13l-16,-22l-1,-21v-32l-2,-15v-28l-2,-5Z"/><path data-name="Grant" class="geo-051" d="M107,563v-15l15,1h28l13,1l-1,4v25l1,15l-1,12h-41l-14,-1v-29Z"/><path data-name="Chippewa" class="geo-023" d="M150,732v-3l-18,-19l-5,-7l19,1h29v1h43l-1,5v27l-1,11l-27,-1v22l-5,-4l-1,-6l-8,-4l-7,-9l-6,-2l-2,-4l-8,-3Z"/><path data-name="Faribault" class="geo-043" d="M329,917l2,1h67v56l-1,1h-53l-5,-1h-11v-40Z"/><path data-name="Carlton" class="geo-017" d="M464,449h27l1,-1h56v16h2v40h-85v-28h-1Z"/><path data-name="Pine" class="geo-115" d="M465,547v-43h85v23l1,3v29h-2v1h-2l-1,1v3h-1v3h-1h1l-1,1h1h-1l-1,1h-1v-1h-2v-1h-5l-1,1v2h-1v1l-1,1v1h-1v2h-4v-1h-3l-1,1l-1,1v3h-1v1h-2l-1,1h-2v1h-3v1l-1,-1v2h-2l-1,1h-1v2h-2v1h-2v1h-1v2l-1,1l-1,2h1l-1,1v2h-1l-1,1h-1v7l-1,1v2l-1,1v1h-1l-1,1v1h-1v1h-1v1h-1v1h-35v-40h9Z"/><path data-name="Stevens" class="geo-149" d="M106,633v-14l1,-14l14,1h41v57l-12,-1h-29l-1,-1h-14l1,-7Z"/><path data-name="Kittson" class="geo-069" d="M25,96h1l-1,-1l-1,-1v-2h-1v-2h1v-1h-1l-1,-1v-4h-1v-3h1l1,-1h-1v-1h1l31,1l14,1l31,1h1l5,1h5l-1,2l-1,43l1,28l-38,-1l-2,-1l-39,-1l-4,-1h-1v-1h4v-1h-4v-1h2v-1h1v-1h-1v-1h1l1,-2h-2l1,-1h1l1,-1h-2v-1h2v-1v1v-3h1v1l1,-2v-1h1v-1h1v-1l-1,-1h1v-3h1v-1h-2v-1l-1,-1v-1h1l-1,-1v-1h-1v-1h-1v-1h1v-1h-1v-2h-1v-1h1v-2h-1l-1,-1h2v-1h-1v-1l-1,-1h-1h1v-1h-2h1l2,-1v-1h-2l-1,-1h-1h1v-1h1l-1,-1v-1h1v-2h-1h1v-2h-2l1,-1h1v-1h-2v-2Z"/><path data-name="Martin" class="geo-091" d="M258,916l10,1h61l-1,17v40h-43l-20,-1h-8v-52Z"/><path data-name="Morrison" class="geo-097" d="M288,516v-2l3,4l11,4l7,-4l7,1l6,8l-5,5l-1,6l3,8h21l1,1h41l-1,27h5v25l1,2l-9,-1h-58l4,6l5,1h-42v-43l1,-1Z"/><path data-name="Pipestone" class="geo-117" d="M73,875l1,-19h23l20,1h2l-1,19v24l-1,13h-22v-1h-22l-1,-1l1,-19Z"/><path data-name="Renville" class="geo-129" d="M216,748h31l25,1h29v29h-15v41h-18l-10,-7l-21,-10l-1,-2l-14,-9l-3,-4l-3,-3l-6,1l-2,-5l-5,-1l-4,-5l-10,-5v-22Z"/><path data-name="Mahnomen" class="geo-087" d="M137,325l7,1h31l18,1v29l-1,1v26l-22,-1h-23l-11,-1v-48Z"/><path data-name="Hennepin" class="geo-053" d="M446,727h3v21l3,3l-2,4l-6,8l-9,3l-9,-2h-13v-14h-28v-13l1,-14v-1l1,-1h-1h1l-1,-1h2l2,-3l6,-9l4,-4l-3,-3l8,-3l8,-1v-4h1l10,6l6,5l7,5l2,4l1,9v5Z"/><path data-name="Brown" class="geo-015" d="M258,812l10,7l10,4l2,6l15,4l5,3l10,14l4,1v25h-38l-18,-1h-28v-15h-1l1,-14l28,1Z"/><path data-name="Nicollet" class="geo-103" d="M366,820l-3,7l1,12l-1,5l-7,5v7l1,11l-4,2l-9,-3l-2,-4l-9,-1l-9,-6l-10,-4l-4,-1l-10,-14l-5,-3l-15,-4l-2,-6l-10,-4h71v1Z"/><path data-name="Douglas" class="geo-041" d="M163,550l15,1h34l20,1v56h-23v-1h-29l-18,-1l1,-12l-1,-15v-25Z"/><path data-name="Swift" class="geo-151" d="M120,661l1,1h29l12,1l21,1h35l-1,28l1,13h-43v-1h-29l-19,-1l-7,-4l-1,-10Z"/><path data-name="Steele" class="geo-147" d="M454,862h14v56h-42v-56Z"/><path data-name="Red Lake" class="geo-125" d="M95,249l14,1h27v1h34l8,1v18h-14v14l-10,-1h-32l-15,-1l1,-14h-14Z"/><path data-name="Clearwater" class="geo-029" d="M192,257v-14h26l11,1l-2,6l-2,4v9l3,3l5,2v72l-1,2v11l2,3l-1,28h-24l-17,-1v-26l1,-1v-29l1,-28l-3,-1v-25Z"/><path data-name="Big Stone" class="geo-011" d="M49,643l-1,-1v-1l-2,-3l-2,-3l-4,-5l18,1h21l2,1h24l1,1l1,21l-1,7h14l-1,28l1,10l-19,-8l-1,-4l-15,-3l-4,-1v-5l-1,-2v-1l-1,-2v-1l-1,-2l-4,-5h-1v-1h-4l-1,-1l-1,-1l-1,-1h-1l-1,-1h-4l-1,-1h-1l-4,-3v-1l-4,-5v-2l-1,-1v-2Z"/><path data-name="Blue Earth" class="geo-013" d="M314,851l10,4l9,6l9,1l2,4l9,3l4,-2l-1,-11h28v62h-53l-2,-1h-15v-41Z"/><path data-name="Polk" class="geo-119" d="M32,237v-5h-1v-1h-1v-2h-1v-1h1v-2h-1v-1l1,-1h-1l-1,-1h-1v-2l-1,-3h1l-1,-1h-1v1v-2h1l1,-1h1v-1h-3v-2l28,1l1,1h22l18,1l-1,24l2,10l-1,19h14l-1,14l15,1h32l10,1v-14h14v-13h14l-1,16v25l3,1l-1,28l-18,-1h-31l-7,-1l-18,-1h-24l-4,-1h-22l-17,-1v-2v1h1v-1h-1v-1l1,1v-1h-2l-1,-1v-1h1l1,-2h-1h2h-2h1v-2l-1,-1h2v-1l-1,1h-1v-1h2h-1v-3h1v-1h-1l1,-1h-1v-2h-1v-1l-1,-1h-1v-1h1h-1v-7l-1,-1v-2h-1v-2l-1,1v-1h1v-1h-1v-2l-1,1h-1v-1h2v-1h-1v-1l-1,-1l1,-1v-1l-1,-1h1h-1v-3h-2v-1h-1h1v-1h1h-1v-2h-1v1l-1,-1v-1h-1l1,-1v1v-3h1h-1v-2h-1v-4h-1v-1h1l-1,-1h-2v-5h1v-1l-1,-1h1l-1,-1v-1h-1v-2h-1l-1,-1v-1h1v-1l-1,-1v-3l1,-1v-1l-1,-1l-1,-1v-1h1h-1v-1Z"/><path data-name="Redwood" class="geo-127" d="M203,779l5,1l2,5l6,-1l3,3l3,4l14,9l1,2l21,10v35l-28,-1l-1,14h-1l-17,-1h-22l-15,-1l1,-20v-35h25l2,1Z"/><path data-name="Houston" class="geo-055" d="M672,916h1v1l1,1v2l1,1v1l1,2v2l1,1v2l-1,2v5l-1,1v9l1,2v6l4,4v3l-1,1v3l1,1l1,4l1,1h-9l-20,1h-17l-14,1v-27h-1v-30h30Z"/><path data-name="Carver" class="geo-019" d="M358,736l27,1v13h28v14l-8,5l-4,6l1,6l-7,1l-2,4l-8,5v-6h-14v-6h-14l1,-11Z"/><path data-name="Roseau" class="geo-135" d="M110,83h28l17,1h23l6,1h28l4,1h8v1l-1,3l2,5v-1v1l-2,1l4,5l4,4l13,-2l4,-3l-1,33l-26,-1l-1,28h-27l-29,-1l-19,-2l-36,-1l-1,-28l1,-43Z"/></g>
  <path class="counties-mesh" d="M672,916h-51v30h1v27M604,441v-38l-1,-2v-67l-1,-1v-25l-2,-14v-38l-1,-1v-39M220,160l1,-28l26,1l1,-33l-4,3l-13,2l-4,-4l-4,-5l2,-1v-1v1l-2,-5l1,-3v-1M187,916h71l-1,5v52M397,975l1,-1v-56h70v57M162,620v-14l18,1h29v1h23v56h-49l-21,-1v-43M538,974l-1,-17v-37h-28v-2M232,664h37l4,1l-1,14l1,14l-1,26v30l-25,-1h-31l1,-11v-27l1,-5l-1,-13l1,-28M398,918h-14v-56h42v56M72,911l1,1h22v1h24l5,1h26v1h31l6,1l1,-8v-29l1,-20h22l17,1h2v15h28l-1,17v24M258,875l18,1h38v41h-46l-10,-1M357,779l-4,-1h-24v14h-28v-57l2,1h26v-50l6,-4l7,2l7,-9v-1l1,-1h-1h1l-1,-1l1,-2l1,-1v-1h1v-2l1,-2l11,8l5,-1l6,8h3l8,6h21l6,8M272,679l14,1h29v6h14M460,148v61h-1v29l3,15v14h-41v-1h-34v9l-9,-1h-61v-113l1,-25M470,685v28h-24v14h-6v-5l-1,-9l-2,-4l-7,-5l-6,-5l-10,-6h-1v4l-8,1l-8,3l3,3l-4,4l-6,9l-2,3h-2l1,1h-1h1l-1,1v1l-1,14l-27,-1M50,378l19,1h22l2,1h24l5,1l-1,28h1l-1,42v14l-12,-1h-24v-1h-24l-7,-1M232,440v14l-7,-1h-46v-1h-25l-1,-1h-32M52,322l17,1h22l4,1h24l18,1l-1,8v48M385,791l8,-5l2,-4l7,-1l-1,-6l4,-6l8,-5h13l9,2l1,19v8h5l-1,13h-72M501,685h-31v-19l-1,-18v-5h-13v-28h34M26,152l4,1l39,1l2,1l38,1l36,1l19,2l29,1l-1,7v51h-46v-1h-24l-28,-2l-18,-1h-22l-1,-1l-28,-1M193,160h41l-1,28l12,1h59l13,1M317,274v60l-1,4v6l-4,-1h-23M122,381h14l11,1h23l22,1l17,1h24l1,-28l-2,-3v-11h22l4,1h31v90l-1,8h-14l-9,-1h-33l1,-4v-52M232,342l1,-2v-72l-5,-2l-3,-3v-9l2,-4l2,-6l-11,-1h-26l-1,-17l1,-8M78,785l7,1h25l8,1l19,1h27l11,1l-1,14h1v35l-1,20h-54l-1,-1h-2l1,-7v-26l1,-23l-1,-14M468,862h1v-51h13v-5h15v-14h6v-13M383,532h-1v-55h3l1,-35v-36l1,-30l-4,-3l2,-11l-11,-3l-7,1v-2l-2,-1l-2,-2l-6,-4l1,-7l-5,-9l-3,-2l-23,10l-11,-5M301,749h-29M232,454v56h34l13,1l2,3h7v49l-1,1v43h42l-5,-1l-4,-6h58l9,1l-1,-2v-25h-5l1,-27v-15h42v15l-1,2v26h-9v40l1,28M537,920v-3h68l16,-1M510,862h41l1,14h28v41M580,876v-15h25M81,683l4,1l15,3l1,4l19,8l7,4l5,7l18,19v3l2,5l8,3v6h-12l-1,14h-25v-1h-24l-20,-1M117,857l-20,-1h-23M287,607l-11,-1h-44v-54l-20,-1h-34l-15,-1l-13,-1h-28l-15,-1l1,-27l-1,-33l2,-24M386,442h-57l-6,-1v29h1v56l-2,1l-6,-8l-7,-1l-7,4l-11,-4l-3,-4M279,511l-5,-4v-66M435,766l9,-3l6,-8l2,-4l6,-5h9l3,4l1,8l-1,10h10l8,3l7,3M469,818h-29v-12M681,216v15l2,5v28l2,15v32l1,21l16,22l10,13M414,693l1,-27h55M174,858l15,1M117,913l1,-13v-24l1,-19M470,713h4v37h-4M452,751l-3,-3v-21h-3M232,552v-42M107,548v15l-4,-1h-21l-10,-1M189,916l-1,6v26l-1,23M117,969v-31l2,-25M387,643h-44l-6,-9l-2,-19l-5,-2l-1,-6M192,243v14h-14v-5l-8,-1h-34v-1h-27l-14,-1l-2,-10l1,-24M382,547h-41l-1,-1h-21l-3,-8l1,-6l5,-5M107,563v42l-1,14v14l-1,-1h-24l-2,-1h-21l-18,-1M160,740l2,4l6,2l7,9l8,4l1,6l5,4l10,5l4,5l-1,25l-2,-1h-25M469,862h41l1,20v36h-43v-56h-42M412,862v-56M343,643v11l10,10M232,608v-2M384,862v-6h-28v-7l7,-5l1,-5l-1,-12l3,-7M550,464h-2v-16h-56l-1,1h-27M163,550l-1,4v25l1,15l-1,12h-41l-14,-1M127,703l19,1h29v1h43M216,748l-27,-1v22M328,974v-40l1,-17l2,1h53M162,663l-12,-1h-29l-1,-1h-14l1,-7l-1,-21M110,83l-1,2l-1,43l1,28M314,917h15M550,504h-85v71h-9v40h-42M465,547h-41M329,736h29v32l-1,11h14v6h14v6l-6,1l-7,5l-1,9h-3l3,8l-5,6h-27v-1h-71l-10,-7l-21,-10l-1,-2l-14,-9l-3,-4l-3,-3l-6,1l-2,-5l-5,-1M137,325l7,1h31l18,1v29l-1,1v26M413,764v-14h-28v-13M268,819l10,4l2,6l15,4l5,3l10,14l4,1v25M356,856l1,11l-4,2l-9,-3l-2,-4l-9,-1l-9,-6l-10,-4M120,699l-1,-10l1,-28M178,257v13h-14v14l-10,-1h-32l-15,-1l1,-14h-14l1,-19M193,327l1,-28l-3,-1v-25l1,-16M229,860l1,-14l28,1v-35M560,819l-22,1v14h-13v28M462,267l-1,27l3,1v112M386,406h53v1h25v69h1v28M286,819v-41h15M387,643v-42M415,643h-28M415,666v-23"/>
<g class="districts"><path data-name="Congressional District 1" class="district-2701" d="M72,928v-17l1,1h22v1h24l5,1h26v1h31l6,1h42l1,-13v-28h-7v-13l5,-2h2h-1l1,-14l28,1v-35l10,7h71v1h27l5,-6l-3,-8h64v11l8,1v17h14v27h97l1,14h28v-15h25l4,3v1l14,8v3l5,2v1l7,6v1h1l10,2l8,4h1l1,2l1,2l2,1l1,1h1l1,1v2l1,2v1h1l1,1l1,1v1l3,3v2l1,1l1,1v1l1,1h1v1l1,1v2l1,1v1l1,2v2l1,1v2l-1,2v5l-1,1v9l1,2v6l4,4v3l-1,1v3l1,1l1,4l1,1h-9l-20,1h-17l-14,1h-33l-8,1h-56l-13,1h-168l-5,-1h-54l-20,-1h-24l-13,-1h-37l-4,-1h-31l-11,-1h-22l-2,-1h-23l-15,-1h-12l-1,-1l1,-19Z"/><path data-name="Congressional District 2" class="district-2702" d="M385,791l8,-5l2,-4l7,-1l-1,-6l4,-6l8,-5h13l9,2l9,-3l6,-8l2,-4l6,-5h9l3,4l1,8h3v-3h25v5l-1,1v5h-1v1l-1,1l-1,1v1l-1,2v1h1v1l8,5l4,3l2,2l1,1v1h1l5,4v1l1,1v1h-1v2h1l2,1h1v1h2v1h1v1h1v2l1,1h1v-1h4v1h5v1h1v-1l12,1l2,2h1v2l2,4v3h1l5,5h1l2,3l12,3h1v1l7,2l12,8v1l3,2l1,1v3l-1,1v2l3,2v2l1,2v4l2,2v2h1v1h1h-25v15h-28l-1,-14h-97v-27h-14v-17l-8,-1v-11h-64h3l1,-9l7,-5Z"/><path data-name="Congressional District 3" class="district-2703" d="M386,760l-1,-10v-13l1,-14v-2v1l1,-1h-1h1h-1v-1h4v-3l6,-9l4,-4l-3,-3l8,-3l8,-1v-4h1l10,6l6,5l1,-2v-3h11v14h-3l1,9v-3h-8l1,3h-6v20l-3,1l1,5l7,-3l4,10h14l-6,8l-9,3l-9,-2h-13l-8,5h-6l-4,-5h-10Z"/><path data-name="Congressional District 4" class="district-2704" d="M446,713h56v2l-1,1h-1v1h-1v1h-1v1h-1v1l-1,1l-1,1v1l4,5v3h-1v6l1,1l1,1l1,3v1l-1,4l-1,1h-1v3l1,1v3h-25v3h-3l-1,-8l-3,-4h-9l-6,5l-3,-3v-21l-3,-2Z"/><path data-name="Congressional District 5" class="district-2705" d="M424,743l3,-1v-20h6l-1,-3h8v3l-1,-9h7v12l3,2v21l3,3l-2,4h-14l-4,-10l-7,3Z"/><path data-name="Congressional District 6" class="district-2706" d="M294,664l2,-4l6,-1v-52h27l-5,-1l-4,-6h58l9,1v42h28v23h55v19h31h-2v3l1,1l-1,3l1,4v3l-1,1v1l-1,1v1h1l1,2v4l1,1v3h-59v-14h-11v3l-1,2l-6,-5l-10,-6h-1v4l-8,1l-8,3l3,3l-4,4l-6,9v3h-4v1h1h-1h1l-1,1v-1v2l-1,14v13l1,10l-1,4h10l4,5h6l-4,6l1,6l-7,1l-2,4l-8,5v-6h-14v-6h-14l1,-11v-32h-29v-50h-14v-6h-29l1,-15Z"/><path data-name="Congressional District 7" class="district-2707" d="M21,83v-2h1l1,-1h-1v-1h1l31,1l14,1l31,1h1l5,1h33l17,1h23l6,1h28l4,1h26v-40l1,-3v-18h2l1,1l1,1h1v1l5,2l5,-1l3,-2h3l5,3l3,3l3,2h1l1,3v2l4,13l-1,2l2,13l3,3v16h3l3,21h-1v6l-1,1v1l1,2v5l2,1l1,1v1l2,2v1h2l1,1l1,1h1l1,2l4,1l1,2h3l1,1h4l1,1h1l1,-1l1,-1l-1,25v98h-35v9h-6v11h-15v48l5,2h9v14h-17l-4,-1h-22v11l2,3l-1,28v52l-1,4v70h34l13,1l2,3h7v49l-1,1v43h15v52l-6,1l-2,4l-7,1l-1,15h29v6h14v50h29v32l-1,11h14v6h14v6l-6,1l-7,5l-1,9h-3l3,8l-5,6h-27v-1h-71l-10,-7v35l-28,-1l-1,14h1h-2l-5,2v13h7v28l-1,13h-42l-6,-1h-31v-1h-26l-5,-1h-24v-1h-22l-1,-1l1,-19v-17l1,-19v-6l1,-2v-4l1,-28l1,-10v-11l1,-10v-30l1,-18v-12l1,-7v-3l1,-32v-5l-1,-2v-1l-1,-2v-1l-1,-2l-4,-5h-1v-1h-4l-1,-1l-1,-1l-1,-1h-1l-1,-1h-4l-1,-1h-1l-4,-3v-1l-4,-5v-2l-1,-1v-4l-1,-1v-1l-2,-3l-2,-3l-4,-5v-1l-1,-1v-1l-1,-1l1,-2v-1l1,-2l1,-1v-1l2,-1l1,-1l2,-1l1,-1h1l1,-1l8,-6l6,-4l1,-2v-3h1l1,-1l2,-2v-1l1,-1l1,-1v-1l2,-11v-1h1v-12h-1l1,-1v-3h-1v-4l1,-3v-1h1v-4h1v-1l-1,-1l1,-1v-1h-1v-2h-1v-10h-1v-3h1h-1l1,-1v-2h-1v-1h-1v-3l1,-1h1v-1l-1,1v-2l-1,-1l1,-1v-1l-1,-1l1,-1h-1h1v-1h-1l1,-1h-1v-2h1l-1,-1v-1h1l-1,-1v1v-1h1h-1v-1h-1l-1,-1h1h-2v-1h-2v-1h1v-1h-2v-2h-1v-5l-1,-1l-1,1v-1h1v-1h-2v-1v1h-1v-1h1v-2l-1,1v-1l1,-1h-1l-1,1v-4h1l-1,-1v-1v1v-2h-2h1v-1l-1,-1l1,-1h-1l1,-1h-1h1l-1,-1v-1l1,1v-1l-1,-1h1v-1l-1,-2l1,1v-1l-1,-1v1l1,-1h-2l1,-1v1h1l-2,-2l1,-1h-1h2l-1,-1v-1h-1h1l-1,-1v1v-1h1h-2h2l-2,-1h1v-1h-2v-4h-1v-1h1h-2h1l1,-1h-2v-1h1v-2l-1,-1v-2h-1l1,-1h1l-1,-1h1v-1h-1h2v-2h-1v-1h1v-2h-1h1v-8h1h-1v-2h-1l1,-1v-1h-1v-4l1,-1v-2h1v-2h1h-2v-1h1l-1,-1h1v-3h1l1,-1h-1v-1h1h-1v-1l1,-2v1l1,-1v-2h1v-1h-2h2l-1,-1l-3,1v-1h-1v1v-2l-1,-1h1v-3l-1,1l-1,-1l-1,-1l1,-1l-1,-1v-2h1v-1h-1v-1h-2h1v-1l1,-1l2,-1l-1,-1l1,-1h-1v-1h-1l1,-1v-1h-1h1v-3h1l-1,-1h1v-1h-1h1v-4l-1,-1h-1l1,-1v-3h-1h1v-1h-2v-1h3h-1v-1h1v-2h-1v-1h1h-1h1h-2l2,-1h-1v-1h-1l-1,1v-1l2,-1h1h-1l-1,-1h1v-1h-1l1,-1h-2l2,-1v-1l-1,1v-1h2l-1,-1v-1h-1v1v-1l1,-1v-1h-1v1v-2l1,1v-1h-2h1v-1h1h-1l-1,-1h1v-4h2v-1h-2l1,-1h-1l1,-1h1h-1l1,-1v-1h-1v1h-1l1,-1h1v-1h-1v-1h-1v-1h1l1,-1h-2v-2h-1h2l1,-1h-1l-1,1l-1,-1h2v-1h-1l1,-1v1h1v-2h-1v-1h1l-1,-2h-2v-1h-1h1l1,-1h-1v-1h1h-1v-1h1v-1h-1v-1h1v-1h-1h1v-2h-1l1,-1h1v-1h-2v-1h2h-1l-1,-1h1l1,-1v-2v1h1v-1h-1v-1l1,1v-1h-2l-1,-1v-1h1l1,-2h-1h2h-2h1v-2l-1,-1h2v-1l-1,1h-1v-1h2h-1v-3h1v-1h-1l1,-1h-1v-2h-1v-1l-1,-1h-1v-1h1h-1v-7l-1,-1v-2h-1v-2l-1,1v-1h1v-1h-1v-2l-1,1h-1v-1h2v-1h-1v-1l-1,-1l1,-1v-1l-1,-1h1h-1v-3h-2v-1h-1h1v-1h1h-1v-2h-1v1l-1,-1v-1h-1l1,-1v1v-3h1h-1v-2h-1v-4h-1v-1h1l-1,-1h-2v-5h1v-1l-1,-1h1l-1,-1v-1h-1v-2h-1l-1,-1v-1h1v-1l-1,-1v-3l1,-1v-1l-1,-1l-1,-1v-1h1h-1v-6h-1v-1h-1v-2h-1v-1h1v-2h-1v-1l1,-1h-1l-1,-1h-1v-2l-1,-3h1l-1,-1h-1v1v-2h1l1,-1h1v-1h-3v-2h1v-1h-1v-2l1,-2l1,-1h-1v-1h1v1h1v1v-1h1h-1v-1h-1l-1,-1h-1v1v-1l2,-1l1,1v-1h-1l-1,-1h-1l1,-1h1h-2v-1l2,-1h1h-1h1v-1h-2v-1h2v-1h1v-3h-1l-1,1v-1l1,-1h1v1h1v-1l-1,-1h-1l1,-1h-2v-1h1v-1v1l2,-1l-2,-1h-2h1l1,-1l1,-1l-1,-1h-1v-1l-1,-1v-1l-1,-1h3h-1v-1h1h-2l-1,-1v-2h2l1,-1h1v-1h-1v-1h-1v1l-1,-1v-1h3l1,1v-1h-1v-1h-2v-1l2,1l1,-1v-1l-1,-1l-3,1h1v-1h1l1,-2v-1h-1l-1,-1v-1h1l1,1h1v-1h-5v-1h2l1,-1v-1l1,1v-1h-2v-2l3,-1v-1h-1l-1,1h-1v-2h1v-1h1l-1,-1h-1l-1,-1h-1v-1h4v-1h-4v-1h2v-1h1v-1h-1v-1h1l1,-2h-2l1,-1h1l1,-1h-2v-1h2v-1v1v-3h1v1l1,-2v-1h1v-1h1v-1l-1,-1h1v-3h1v-1h-2v-1l-1,-1v-1h1l-1,-1v-1h-1v-1h-1v-1h1v-1h-1v-2h-1v-1h1v-2h-1l-1,-1h2v-1h-1v-1l-1,-1h-1h1v-1h-2h1l2,-1v-1h-2l-1,-1h-1h1v-1h1l-1,-1v-1h1v-2h-1h1v-2h-2l1,-1h1v-1h-2v-3h1l-1,-1l-1,-1v-2h-1v-2h1v-1h-1l-1,-1v-4h-1v-1Z"/><path data-name="Congressional District 8" class="district-2708" d="M232,342h22l4,1h17v-14h-9l-5,-2v-48h15v-11h6v-9h35v-98l1,-25l1,-1h1l2,-1h1l1,1l2,1l4,-1l4,1v1h2l1,2v1l-1,2l1,1h1l1,1h6l2,1h10l2,1h1l3,-1v1l9,1l9,1l3,8l-2,8l5,2h6l15,-2l13,-4v-6l10,-3h1l7,-4l4,-1l8,3l9,-1l8,1h3l3,-1l1,4l4,2h2l18,8l6,-1l4,4l1,1l-1,1v1h1l-1,1h-2v-1l-1,1l-5,4v2l5,4l13,-2h3l2,2v1h2v1l2,3l-1,2l-1,3l3,8l1,2h1l3,5v1l1,2l1,1v3l1,2h1l1,-1h1l1,-1h1l1,-1h1l3,-1h1v-2l-2,-1v-2l-1,-2l1,-3l-2,-1l2,-4l3,-2l3,1h3l1,-1v1l2,-1v-1l2,-1h1v1h10l1,1v1l3,4v3l1,2v3l1,1l3,2v1v-2h2v1l1,1h-1v2h2l1,-1h3l1,2l3,3h1l2,-1h2l1,1l1,1l1,1l3,-1v-1l1,1h1v-1l4,2v1l-2,1v1h1l1,-1v5h1v1l-1,2v1l1,1l1,-1l1,1l1,1h2v1h11l-2,2l-1,4v2l1,1l9,-3h5v2h2l3,-1l2,-1l2,-1l2,-1v1h1v-1h2l4,-1h1l1,-1l1,-1l5,-5h2v-1l2,-3l2,-1v-1h1v-1l1,-1h1l3,-1v-1h2l1,-1h2l1,-1l3,-1l-1,-1l3,-3l6,-2l4,-1h5v8l1,2h1v-1l1,1l1,1v1l2,-1l1,1v2l-2,1l1,1v1l1,1l1,1l2,4h1l6,-1l5,-1l6,-4v1l2,-1l-1,3l1,1l1,1l4,-1h4v-1h1l1,-1l1,1l1,1l4,-1h1l1,1h1v1h1l1,-1h2l2,-1l1,-1h1l1,1h1l1,-1h2l3,-1l1,1h1l2,-1h1v-1l2,1h2v-1h1v1h1l1,1l2,-1l4,1l1,1h1v1h2l1,3h1v1l2,2l-1,2l1,1v1h2l1,1h4l1,1v2l2,1h4l2,-1v-1h1v-1l1,-1v-1h7l2,-1v1h3l1,1h1v-1h4l1,1h1v-1h3l2,1h11l-13,34l-5,13l-9,23l-18,46h-76l-15,12l-14,10l-27,18l-33,24l-23,15l-30,19l-5,3l-9,-6l-4,1h-1l-1,2l-1,2h-3l-1,1v3h1v2l-1,2l-1,1l1,2h-4v1h-1l-3,-1l-2,-1v-2v64l1,3v29h-2v1h-2l-1,1v3h-1v3h-1h1l-1,1h1h-1l-1,1h-1v-1h-2v-1h-5l-1,1v2h-1v1l-1,1v1h-1v2h-4v-1h-3l-1,1l-1,1v3h-1v1h-2l-1,1h-2v1h-3v1l-1,-1v2h-2l-1,1h-1v2h-2v1h-2v1h-1v2l-1,1l-1,2h1l-1,1v2h-1l-1,1h-1v7l-1,1v2l-1,1v1h-1l-1,1v1h-1v1h-1v1h-1v1h-3v2h-1v3h-1h1v1h-1v5h-1v2l-1,1l1,1l-1,1v1h1v9h1l3,1l4,1l5,-1l5,3v5l1,1l1,1l1,2l1,1v1l1,1v1l4,1v9h-1v1h-1v1h-1v1l-1,1v1h-1v1l-1,1v3h1v1h-1v1l-1,1l-1,1v1h-1v1h-2v1h-31v-19h-55v-23h-28v-42l-9,-1h-58l4,6l5,1h-42v-43l1,-1v-49h-7l-2,-3l-13,-1h-34v-70l1,-4v-52l1,-28l-2,-3Z"/></g>
  <path class="districts-mesh" d="M452,751l6,-5h9l3,4l1,8h3v-3h25M405,769h-6l-4,-5h-10l1,-4l-1,-10v-13l1,-14v-2v1l1,-1h-1h1M368,806h64v11l8,1v17h14v27h97l1,14h28v-15h25M72,911l1,1h22v1h24l5,1h26v1h31l6,1h42l1,-13v-28h-7v-13l5,-2h2h-1l1,-14l28,1v-35l10,7h71v1h27l5,-6l-3,-8h3l1,-9l7,-5l6,-1l8,-5l2,-4l7,-1l-1,-6l4,-6l8,-5h13l9,2l9,-3l6,-8l2,-4l-3,-3v-21l-3,-2v-12h55M442,713h4M385,791v-6h-14v-6h-14l1,-11v-32h-29v-50h-14v-6h-29l1,-15l7,-1l2,-4l6,-1v-52h27l-5,-1l-4,-6h58l9,1v42h28v23h55v19h31M318,136l-1,25v98h-35v9h-6v11h-15v48l5,2h9v14h-17l-4,-1h-22v11l2,3l-1,28v52l-1,4v70h34l13,1l2,3h7v49l-1,1v43h15M386,721v-1h4v-3l6,-9l4,-4l-3,-3l8,-3l8,-1v-4h1l10,6l6,5l1,-2v-3h11v14h-3l1,9v-3h-8l1,3h-6v20l-3,1l1,5l7,-3l4,10h14"/>
</svg>