<?xml version="1.0" encoding="utf-8"?>
<!DOCTYPE svg PUBLIC "-//W3C//DTD SVG 1.1//EN" "http://www.w3.org/Graphics/SVG/1.1/DTD/svg11.dtd">
<svg version="1.1" xmlns="http://www.w3.org/2000/svg" width="1000" height="577" viewBox="0 0 1000 577">
  <path class="state" d="M160,23h8l5,1h12l8,1h13l5,1h24l3,1h20l14,1h3l6,1h33l10,1h15l17,1h64l3,1h91l13,-1h58l26,-1h43l5,-1l44,-1l1,-1h23l6,-1h15l33,-1l2,-1h13l14,-1h11l2,-1h7l5,-1h15l4,-1h13l7,-1h5l7,-1l20,-1l31,-2l2,1v10l1,2v11l1,3v7l1,3v9l1,4v11h1v10l1,7v6l1,1v11l1,2v4l1,7v10h1v10l1,1v13l1,3v11l1,1v12h1v12l1,2v12l1,1v23l1,1v13l1,1v10l1,3v10l1,2v10l1,2v11h1v12l1,6v7l1,1v11l1,4v6l1,8v8l1,1v8l1,3v2l1,9v9l1,4v7l1,4v11h1v9l1,2v11l1,8v1l1,5v19h-7l-2,1h-8l-8,1h-13l-12,1h-7l-1,1h-15l-4,1h-3l-32,2h-6l-9,1h-11l-2,1l-13,1h-6l-15,1h-15l-3,1h-13v1h-27l-4,1h-45l-1,1h-5l-51,1h-5l-19,1h-29l-10,1h-7l-3,-1h-26l-2,1h-75l-12,1h-12l-7,-1h-25v60l-4,-1v-1l-3,-1v-4h-1l-3,-3v-1l-2,-1h-1v-2h-1v-3h2l-1,-1l-1,-1v-1h-2l-1,-1v-1h1l-2,-2v-1h-1v-2l-3,-3h-1v1h-1v-1l-1,-1v-1l-1,-1l-2,1l1,1l-1,3h-1l-1,-1h-1v1h-3v3l1,1l-1,2l-1,2h-2l1,1v1h-1v1l-1,1h1l-1,1v1l1,1l1,1v1l2,1h1v2h-4l-1,-1v-1h-3l-2,-1h-1v1h-5v-1h-3l-1,1v1h-3v1h-1v1h-4v1h-2v-1h-1l-1,-2v-1h-1v-1l-1,-1h-1v1h-4l-2,1v1l-1,1v-1h-1v1l-1,-1v-1h-3v2h-1l-1,-1h-1v1h-2v1h-1l-1,-1h-1v-2l-1,1l-1,-1l-1,1v1l-1,-1h-1l-1,-1h-1v-2h-1l-1,-1h-4v1h-1l-1,1l-1,1h-2l-1,1v7l-1,2h-2v-1l-1,1h-2v-2h-2v-1h-2v1h-1v1l-1,-1v-1h-2l-1,-1h-2v1h-1v-1v1l-1,-1v-1h-2v1v-1h-5v-1h-1l-1,-1h-1l-1,1l-1,1h-1l-4,3l-3,2v3l1,1v1l-1,4v1l-2,-1v-1h-1v-1l-1,-1v-2l-1,1h-1v-1h-1v-1h-2l-1,-1l-2,-2l-1,-1l-1,-2v-1l-1,-1l-1,-2h1l1,-1l-1,-1l1,-1l-2,-4l-3,-4v-2l1,-1l1,-2l-1,-4v-1l-2,-3v-1l-1,-2l-1,-2l-1,-1l1,-1v-1h-1l-1,-1h-2v-1h-1v-1h-1v-1h-2v-1h-1v-1h-2v1h-2v1h-2v1h-2v1h-1v-2l-1,-3h-1v-1h-4v-3h-1l-2,-1v-2l-1,-1v-2l-1,-1v-1h-1v-2h4l1,-1v-6h1l-1,-1v-2h-1l1,-1v-2h-1v-1v1h-1l-1,-1v-1h-1l-1,-2v-2l-2,-1h-1v1l-2,-2v-1l1,-1h-2v-5l-1,-2h-1v-1h-1v-1h-1v-2h-1v-1l-1,-1h-1l-1,-1l1,-1v-2h-1v-2h-1l-1,-2h-1v-6h1h-1l1,-1v-1h-1v-1l-1,-1h-2v-1l1,-1h1l-1,-1h-1v-3l1,-1h-1l2,-1v-3h-1v-1l1,-1h-6v-3h1v-3h1l1,-1v-3h-1l-1,-1h-1l-1,-1h-4l1,-1v-3h-2v-2h-1h1l-1,-1v-2h-1l-1,1v-1l-1,-1h-2v1h-2v1l-1,1l1,1v2l-4,2v1l-2,2v1l-1,1h-1l-1,1v2h-2l-1,1h-2v1h-3v-1h-2v3l-1,1v1l-3,2l-1,1v1h-2v1h-1v-2h-1l-1,-2v-1h-1l-1,-1h-2v-1l-1,-1v-1l-1,-1l-1,-1v-1l-1,-1l-1,1v-1l-2,1v-1l-1,-1h-1l-1,1l-1,1v-1l-1,1v-1l1,-1v-2l1,-1l1,-1l-1,-2l-1,-1v-1h2v-1h2v-1h1v-1h1l-1,-1h1l-1,-1h-1h1l1,-2v-2h-1v-1h-1l-1,-1l-1,-2v-2h-1v-1l1,-1h1v-1l1,-1v-2h1v-1h1h-1v-1h1l1,-1h1v1h1l1,-1h1v-1h2v1h1l1,-1v-1h1v-3h-1v-1l-2,-4h1v-1h1v-3l-1,-1h-1v-1l-1,1v-1l-1,-1l-1,1l-1,-1v-1h1v-3h-1v1l-2,-1l1,-1l1,-1h1v-1h1v-5l-1,-1h-1v-1h-1l-1,-1v-1l-1,-1l1,-1h1v-2v1h1v-1h1l1,2v-1h1v-1h1v1v-1l1,-1l-1,-4h1v-2l-1,-1l-1,-1v-2l1,-1v1h1l1,-1l1,-1v-3l1,-2v-2l1,-1v-1l-1,-1l1,-2v-2h1v-2l1,-1h1l-1,-1v1v-3l-1,-1l-1,-3h1l1,-1v1h2l1,-1v-5l1,-1v-4h1v-1h1l-1,-1v-1l1,-1v-2l-1,-1h-1l-1,-1v-1h-2v1h-1l-1,1v-1v1h-2l-1,1l-1,1h-3v-1h-3v-1l-1,1h-2l-1,1h-1v-1h-1v-2h-1l-1,-1v-2l1,-1v-1l1,-1l-1,-1h-1v-2h-2v-1h-2v1h-1v2h-2l-2,2h-1v-2h-1v-2h1v-1h1v-3h-1v-1l-1,-1h1h-4l-1,-1v-1l-1,-1l-1,-1h-2v1l-1,-1l1,-1h-1v-1h-1l-1,-1v-9h1v-1h-1v-1h-1v-1l-1,-1l-1,-2h-1v-1h-1l-1,-1v1h-1l-1,-1l-1,-2v-4l-2,-2v-1l-1,1v-1l-1,-1l-2,-5h-1l-2,-2v-2l-1,-1l-1,-1h-1l-1,-1v-1l-1,-2h-2l-1,-1l1,-3l-1,-1v-1h-1v-2l-1,-1h-3v-1h-4v-2h-3v-1h-3v-1h-1l-1,-1v-3h-1v-3h-2v-2h-1l-1,-1h-1v-1l-1,1h-1l-1,-1v-2h-2v-1h-1v-1h-2v-1h-2v-2h1l2,-1l2,-1v1h3v-1h1v-1l1,-1h-3v-1h-2v-1l-1,-1v-1l-1,-1h1l1,-1h-3v-1h-1v-3l2,-1h1v-1h1l1,-2h-1v-2h1l-1,-1v-1h-1l-1,-1v-3l1,-2v-2h-1v-1h-1v-1h-1l-1,-2l1,-1l-2,-2l-2,1v-1l-1,-2v-6h-1v-1l-1,-1l-1,-1l-1,1l-1,-1l-1,-2l-1,-1v-1h-1l-1,-2v-2h-1v-1h-1l-1,-3v-1h-1v-1h-1v-19l3,-32v-3l1,-8l1,-13v-1l1,-7v-9l3,-27l8,1h9l5,1l7,1l19,1l8,1h10l8,1l25,1h8l3,1h9l6,1h1Z"/>
<g class="geos"><path data-name="Musselshell" class="geo-065" d="M568,290h30l29,-2h34l2,2l1,9l-2,5v1l-1,1h3l1,11l1,12h-12l-8,10v6h-18l-11,4v11l-30,1v-17l-4,-5l-6,-29h-7l-2,-5Z"/><path data-name="Chouteau" class="geo-015" d="M526,131v46h-12l-3,4l-8,-2v7l-1,4l1,1l-1,4v5l-5,2l-4,3l-2,1l-1,1h-2l-1,1l-1,1v-1v1v-1l-2,2h-1l-1,1l-3,1v1h-1l-1,1h-37v-4h-9v-9h-8l-12,-6v-9l3,-5l-33,-1v-33l1,-17l45,1v-10h15v-10h60v10h8v11Z"/><path data-name="Meagher" class="geo-059" d="M381,301l-6,-3v-8l-3,-2v-6l-8,1l-3,-3l3,-5l-4,-4h9l1,-10h20l9,-1v-9h7v10h8l9,6v4l8,2v7h4l4,2l2,6h5l4,7l3,4h10l6,-4v26h-1v35l-11,-1h-29l-22,-1l-5,-9l5,-16l-5,-5l-8,3l-2,-1l-2,-10l-5,-2l1,-11Z"/><path data-name="Rosebud" class="geo-087" d="M669,319l-4,-2l-1,-11h-3l1,-1v-1l2,-5l-1,-9l-2,-2l-1,-8l-4,-3l33,-1v-1l59,-3v2l50,-2l-2,6l1,35h-2l2,40h-3l1,38l1,2l-4,1l1,6v21h1v23h-3l1,20l-40,2l-1,-20l3,-2v-22l-1,-13l-15,-1v-12l3,-5h-6v-4l-1,-31l-6,1v-20l-3,-10h-9l-2,-10Z"/><path data-name="Sweet Grass" class="geo-097" d="M468,356v-5l12,1h38v10h4v10h15l-1,9h-7v11h-2l-2,10l1,20h-11v5h-9v5h-11v20h-10v20h-14l1,-20v-50h-5v-40Z"/><path data-name="Lewis and Clark" class="geo-049" d="M249,202l-3,-13l2,-6l-3,-10l7,-1l2,-15l-2,-5l8,-4v5l5,8v18l3,6l6,4l13,-4h8v2l7,3l1,6l6,1l4,4h18v36l6,5l1,2l1,-1l11,3v24l10,1l4,4l-3,5l3,3l8,-1v6l-5,-1l-5,2l-2,20l-11,1h-20v3l-14,4l2,6l-5,3h-5l2,-11v-13l-2,-3h-8l1,-5l-10,-1l1,-15l-21,-1l1,-5v-28l1,-6l-21,-1l1,-10v-25Z"/><path data-name="Pondera" class="geo-073" d="M323,89l7,5l7,-1l1,7h15v5l9,1v14l20,1v9l-1,17h-44v-7h-4v-5l-10,-1v-5h-26l-39,-2l-3,-2l-4,1h-1l-8,-4l1,-7l-7,-7l-2,-2l59,2l1,-20Z"/><path data-name="Garfield" class="geo-033" d="M653,257v-7l-3,-9l-1,-12v-11l3,-8v-2l4,-1v-7l8,-3l4,-11l4,-2l16,3l2,-8l11,1l2,2l18,-1l11,-2v-7h11l1,-5l12,-5l3,-16l6,-1h5l1,10h8l1,35l-2,4v17l2,3h8l1,19h7l2,37v2l-50,2v-2l-59,3v1l-33,1l-4,-3l1,-5l3,-11Z"/><path data-name="Carter" class="geo-011" d="M893,389l3,-1l-1,-23l-2,-17h4l30,-2v9h10l1,9l20,-1l1,10l8,-1v3l1,9v9l1,4v7l1,4v11h1v9l1,2v11l1,8v1l1,5v19h-7l-2,1h-8l-8,1h-13l-12,1h-7l-1,1h-15l-4,1h-3l-1,-6l-2,-35h4Z"/><path data-name="Gallatin" class="geo-031" d="M345,398h3l5,1l4,-4l6,-9l7,-2l6,-9v-7l4,-5l3,-8l23,-1l22,1l-1,5v43l-1,21h-5v7h-5v20h-10l-1,41h-1v60l-4,-1v-1l-3,-1v-4h-1l-3,-3v-1l-2,-1h-1v-2h-1v-3h2l-1,-1l-1,-1v-1h-2l-1,-1v-1h1l-2,-2v-1h-1v-2l-3,-3h-1v1h-1v-1l-1,-1v-1l-1,-1l1,-9v-34h1v-25h2v-34h-14l-10,-12Z"/><path data-name="Liberty" class="geo-051" d="M416,31h4l3,1h10v31h-1v58h-5v10l-45,-1v-9h11v-86l1,-4h7Z"/><path data-name="Silver Bow" class="geo-093" d="M257,372l3,1l2,-6h7v-10l8,1l5,-3l3,-2l5,-1v7l4,4l-1,6l4,16l-1,7l14,9l5,2h-23l-5,2l-1,4l-2,1l-8,6h-2v-3l-9,-12l-17,-8l-5,-5l5,-1l8,-6Z"/><path data-name="Cascade" class="geo-013" d="M331,201l9,1l1,-12h20v-10h20l33,1l-3,5v9l12,6h8v9h9v10h-9l-2,6l1,24h9l1,31l-1,1l-4,-2h-4v-7l-8,-2v-4l-9,-6h-8v-10h-7v9l-9,1h-20l-1,10h-9l-10,-1v-24l-11,-3l-1,1l-1,-2l-6,-5Z"/><path data-name="Flathead" class="geo-029" d="M133,21h8l3,1h9l6,1h9l5,1h9l4,4l1,16l7,-2l5,-1l6,5l-1,5l5,5l-3,4l1,12l13,2l5,6l1,10l8,3l2,4l-4,4l2,5l2,2l7,7l-1,7l8,4h1l4,-1l3,2l2,3l7,10l-1,9l-6,-1l-8,4l2,5l-2,15l-7,1l3,10l-2,6l-25,-2l-13,-1l3,-7l-1,-7l-2,1l-3,-10l2,-5l-1,-6l-8,-8l-2,-2l-3,-7l-13,-2l-2,7v-1h1v4l-35,-2v20h-9v-10l-30,-1l1,-16l-2,-1l1,-24l14,1l2,-40h-3l1,-10h16v-7l6,-3l-9,-6l3,-4Z"/><path data-name="Fergus" class="geo-027" d="M473,214h4l1,-1h1v-1l3,-1l1,-1h1l2,-2v1v-1v1l1,-1l1,-1h2l1,-1l2,-1l4,-3l5,-2v-5l1,-4l-1,-1l1,-4v-7l8,2l3,-4h12l10,1l8,-4l2,-4l11,2l4,-3l11,1l-1,6l5,1l9,6l-1,3l9,4h18l9,5l1,-2v26l1,5l-22,1v5h-10l-2,20l11,-1v31l-1,10h-60v7h-28l-1,-10l-6,-3l6,-11v-32h-9v-5h-10v-5h-10v-11h-7Z"/><path data-name="Broadwater" class="geo-007" d="M362,289l5,-2l5,1l3,2v8l6,3l4,2l-1,11l5,2l2,10l2,1l8,-3l5,5l-5,16l5,9l-23,1l-3,8l-4,5v7l-6,9l-7,2l-6,9v-25h-9v-35l1,-3v-22l11,-1Z"/><path data-name="Big Horn" class="geo-003" d="M688,369l8,-1v11l20,-1v5h10v4h9v4h6l-3,5v12l15,1l1,13v22l-3,2l1,20l40,-2l2,8v13h-9l-3,1h-13v1h-27l-4,1h-45l-1,1h-5l-51,1h-4l3,-11l4,-4l3,-10l-43,1h-4l1,-25l4,-3l26,-1v-3h10v-3l9,-1v-24l1,-20h14l6,-10h10v-7Z"/><path data-name="Sanders" class="geo-089" d="M64,193l-11,-2h-3v-1h-2v-1l-1,-1v-1l-1,-1h1l1,-1h-3v-1h-1v-3l2,-1h1v-1h1l1,-2h-1v-2h1l-1,-1v-1h-1l-1,-1v-3l1,-2v-2h-1v-1h-1v-1h-1l-1,-2l1,-1l-2,-2l-2,1v-1l-1,-2v-6h-1v-1l-1,-1l-1,-1l-1,1l-1,-1l-1,-2l-1,-1v-1h-1l-1,-2v-2h-1v-1h-1l-1,-3v-1h-1v-1h-1v-1l1,-28l2,1l1,6l6,-2l10,-4l6,-4l4,8l4,18l4,4v10l5,2l15,3l4,-2l7,-6v-6l10,1l2,1l-1,16l30,1v32h16l3,2l-3,11h6l-5,6l1,10h9v25l-6,2l-6,-4v-4l-10,-4l-5,-4h-1l-10,-3h-8l-3,-4l-11,-2v-10l-11,-3l-8,-8l-13,-1Z"/><path data-name="Lincoln" class="geo-053" d="M82,18l8,1h10l8,1l25,1l2,19l-3,4l9,6l-6,3v7h-16l-1,10h3l-2,40l-14,-1l-1,24l-10,-1v6l-7,6l-4,2l-15,-3l-5,-2v-10l-4,-4l-4,-18l-4,-8l-6,4l-10,4l-6,2l-1,-6l-2,-1l2,-22v-3l1,-8l1,-13v-1l1,-7l1,-23l2,-13l8,1h9l5,1l7,1Z"/><path data-name="Granite" class="geo-039" d="M189,302l-1,-8h12v-6h10l6,-2v-6l5,-4h9l9,8v4l6,2l6,-2l-1,6v29l-1,18v6l-20,-1v19l-8,5l-7,3l-5,5l-10,-4l-3,-8h-3l-7,-1l2,-4l3,-3l-5,-13l4,-1v-17l-6,-5l-1,-11Z"/><path data-name="Custer" class="geo-017" d="M798,272v-2l20,-1v3l17,-1v10h4v10l7,1v6l4,2h16v3l20,-1v-3l11,-1v-5l9,-1l1,15l-14,1l1,15l3,5v20h-4l2,17l1,23l-3,1h-17l-39,3l-41,1l-1,-2l-1,-38h3l-2,-40h2l-1,-35Z"/><path data-name="Richland" class="geo-083" d="M858,160v-9l2,-1l-1,-22l10,-2l3,1l6,-4l1,-6l14,4l12,-1l3,-3l15,6l1,3h20l4,3v5h1v10l1,1v13l1,3v11l1,1v12h1v13l-6,2v4l-23,2l-8,-2v-18h-6l-1,-9l-30,1l-1,-10l-20,1Z"/><path data-name="Wibaux" class="geo-109" d="M924,206l23,-2v-4l6,-2l1,1v12l1,1v23l1,1v13l1,1v10l1,3v10l1,2v10l-23,2l-6,-5l-14,1l-2,-20h8l7,-6l7,-16v-11l-4,-12l-8,-9Z"/><path data-name="Golden Valley" class="geo-037" d="M538,297v-7h30v15l2,5h7l6,29l4,5v17h-11l-40,1l1,10h-15v-10h-4v-10l20,-1l-1,-3v-28h1Z"/><path data-name="Carbon" class="geo-009" d="M583,421l5,-3l-1,9l8,4v7h5l-4,3l-1,25h4l43,-1l-3,10l-4,4l-3,11h-1l-19,1h-29l-10,1h-7l-3,-1h-26l-2,1h-28v-19h8v-11h7v-5l7,-10l13,-9h13v-7h5v-7l9,-3Z"/><path data-name="Toole" class="geo-101" d="M324,30h15l17,1h38l-1,4v86h-11l-20,-1v-14l-9,-1v-5h-15l-1,-7l-7,1l-7,-5v-22h1Z"/><path data-name="Blaine" class="geo-005" d="M585,31l26,-1h12l-1,30h-4v20h-2v15h-5v25h-1v28l-13,-1l-1,8h-20v22l-5,-1l1,-6l-11,-1l-4,3l-11,-2l-2,4l-8,4l-10,-1v-46l-1,-18h2v-12l3,-7v-8l-2,-5v-39l1,-11h22Z"/><path data-name="Judith Basin" class="geo-045" d="M440,214h33v6h7v11h10v5h10v5h9v32l-6,11l6,3l1,10h-6l-11,-7h-1h1h-3l-9,2l-1,2l-11,1l-6,4h-10l-3,-4l-4,-7h-5l-2,-6l1,-1l-1,-31h-9l-1,-24l2,-6h9Z"/><path data-name="Powell" class="geo-077" d="M230,276l1,-4v-22l1,-14l-13,-1l1,-18v-22l1,-8l25,2l3,13h3v25l-1,10l21,1l-1,6v28l-1,5l21,1l-1,15l10,1l-1,5h8l2,3v13l-2,11l-8,3l-3,7l-7,-1l-2,8l-38,-2l1,-18v-29l1,-6l-6,2l-6,-2v-4Z"/><path data-name="Park" class="geo-067" d="M428,355h29l11,1l-1,6v40h5v50l-1,20h14l22,1v19h-47l-12,1h-12l-7,-1h-24l1,-41h10v-20h5v-7h5l1,-21v-43Z"/><path data-name="Roosevelt" class="geo-085" d="M872,127l-3,-1l-10,2l-2,-3l-20,1l-3,3l-10,-1l1,4l-9,1l-6,4l-1,-19l2,-5l-2,-39l21,-2l43,-2l16,-1l1,9h9l1,10l44,-4v2l1,7v6l1,1v11l1,2v4l1,7v5l-4,-3h-20l-1,-3l-15,-6l-3,3l-12,1l-14,-4l-1,6Z"/><path data-name="Fallon" class="geo-025" d="M897,348v-20l-3,-5l-1,-15l14,-1l-1,-15l-1,-5h11v-4l14,-1l6,5l23,-2l1,2v11h1v12l1,6v7l1,1v11l1,4v6l1,8v8l1,1v8l1,2l-8,1l-1,-10l-20,1l-1,-9h-10v-9Z"/><path data-name="McCone" class="geo-055" d="M765,145v-10l9,-1l5,3l8,-1l-1,3l11,-1l-1,-3l14,2l6,-4l9,-1l-1,-4l10,1l3,-3l20,-1l2,3l1,22l-2,1v9h-10l2,30h-4l2,19l1,21l-33,2v10l-10,1l-1,-10h-16l-1,-19h-8l-2,-3v-17l2,-4l-1,-35h-8l-1,-10Z"/><path data-name="Stillwater" class="geo-095" d="M537,372l-1,-10l40,-1v20h2v32l5,8h-14l-9,3v7h-5v7h-13l-13,9l-7,10v5h-7v11h-8l-22,-1v-20h10v-20h11v-5h9v-5h11l-1,-20l2,-10h2v-11h7Z"/><path data-name="Teton" class="geo-099" d="M260,148l6,1l1,-9l-7,-10l-2,-3l39,2h26v5l10,1v5h4v7h44v33h-20v10h-20l-1,12l-9,-1h-18l-4,-4l-6,-1l-1,-6l-7,-3v-2h-8l-13,4l-6,-4l-3,-6v-18l-5,-8Z"/><path data-name="Dawson" class="geo-021" d="M849,230l-1,-21l-2,-19h4l-2,-30h10v9l20,-1l1,10l30,-1l1,9h6v18l8,2v3l8,9l4,12v11l-7,16l-7,6h-8l-34,2l-3,-6h-10v-6h-10l-1,-23Z"/><path data-name="Powder River" class="geo-075" d="M893,389l2,49h-4l2,35l1,6l-32,2h-6l-9,1h-11l-2,1l-13,1h-6l-15,1h-6v-13l-2,-8l-1,-20h3v-23h-1v-21l-1,-6l4,-1l41,-1l39,-3Z"/><path data-name="Glacier" class="geo-035" d="M324,30v37h-1v22l-29,-1l-1,20l-59,-2l-2,-5l4,-4l-2,-4l-8,-3l-1,-10l-5,-6l-13,-2l-1,-12l3,-4l-5,-5l1,-5l-6,-5l-5,1l-7,2l-1,-16l-4,-4h3l8,1h13l5,1h24l3,1h20l14,1h3l6,1h33Z"/><path data-name="Lake" class="geo-047" d="M179,139h-1v1l2,-7l13,2l3,7l2,2l8,8l1,6l-2,5l3,10l2,-1l1,7l-3,7l-23,-1l-1,12v1l3,5l1,18l4,2v11l-10,-1v5l-20,-1v-25h-9l-1,-10l5,-6h-6l3,-11l-3,-2h-16v-22h9v-20l35,2Z"/><path data-name="Hill" class="geo-041" d="M463,32h51l13,-1h2l-1,11v39l2,5v8l-3,7v12h-2l1,18l-16,1v-11h-8v-10h-60v10h-10v-58h1v-31h13Z"/><path data-name="Treasure" class="geo-103" d="M669,319l45,-2l2,10h9l3,10v20l6,-1l1,31h-9v-4h-10v-5l-20,1v-11l-8,1l3,-6l1,-10l-4,-2l-4,-11l-4,-1Z"/><path data-name="Mineral" class="geo-061" d="M83,232l-1,-1h-1l-1,-1v-1l-1,-2h-2l-1,-1l1,-3l-1,-1v-1h-1v-2l-1,-1h-3v-1h-4v-2h-3v-1h-3v-1h-1l-1,-1v-3h-1v-3h-2v-2h-1l-1,-1h-1v-1l-1,1h-1l-1,-1v-2h-2v-1h-1v-1h-2v-1h-2v-2h1l2,-1l2,-1v1h3v-1h1v-1l1,-1l11,2l6,-1l13,1l8,8l11,3v10l11,2l3,4l2,5h4l-1,5l10,7l2,7h6l2,9l-5,-2l-5,11l1,19h-12v1h-1v2h-2l-2,2h-1v-2h-1v-2h1v-1h1v-3h-1v-1l-1,-1h1h-4l-1,-1v-1l-1,-1l-1,-1h-2v1l-1,-1l1,-1h-1v-1h-1l-1,-1v-9h1v-1h-1v-1h-1v-1l-1,-1l-1,-2h-1v-1h-1l-1,-1v1h-1l-1,-1l-1,-2v-4l-2,-2v-1l-1,1v-1l-1,-1l-2,-5h-1l-2,-2v-2l-1,-1Z"/><path data-name="Yellowstone" class="geo-111" d="M665,317l4,2l11,20l4,1l4,11l4,2l-1,10l-3,6h-12v7h-10l-6,10h-14l-1,20v24l-9,1v3h-10v3l-26,1h-5v-7l-8,-4l1,-9l-5,3l-5,-8v-32h-2v-20h11l30,-1v-11l11,-4h18v-6l8,-10h12Z"/><path data-name="Jefferson" class="geo-043" d="M285,353l-2,-7l4,-3l2,-8l7,1l3,-7l8,-3h5l5,-3l-2,-6l14,-4v-3h20v22l-1,3v35h9v25l-4,4l-5,-1h-3l-15,-6h-6l-4,2l-2,8l-3,1l-5,-2l-14,-9l1,-7l-4,-16l1,-6l-4,-4v-7Z"/><path data-name="Deer Lodge" class="geo-023" d="M249,341l38,2l-4,3l2,7l-3,2l-5,3l-8,-1v10h-7l-2,6l-3,-1l-1,9l-8,6l-5,1l-1,-2h-9l-4,6l-7,1l-3,6l-1,-1v-1l-3,-4l1,-2h-1v-1v1v-2l-1,-2v-2h-1l-4,-7l5,-5l7,-3l8,-5v-19l20,1Z"/><path data-name="Wheatland" class="geo-107" d="M510,297h28v23h-1v28l1,3l-20,1h-38l-12,-1v-30h1v-26l11,-1l1,-2l9,-2h3h-1h1l11,7Z"/><path data-name="Ravalli" class="geo-081" d="M143,314l-1,-1l-1,-3h1l1,-1v1h2l1,-1v-5l1,-1v-4h1v-1h1l-1,-1v-1l1,-1v-2l-1,-1l40,2l1,8l-6,9l1,11l6,5v17l-4,1l5,13l-3,3l-2,4l7,1h3l3,8l10,4l-2,6l-5,4l-9,1l-5,3l-5,6l-6,-1v7h-4l-1,1v-1l-1,-1h-2v1h-2v1l-1,1l1,1v2l-4,2v1l-2,2v1l-1,1h-1l-1,1v2h-2l-1,1h-2v1h-3v-1h-2v3l-1,1v1l-3,2l-1,1v1h-2v1h-1v-2h-1l-1,-2v-1h-1l-1,-1h-2v-1l-1,-1v-1l-1,-1l-1,-1v-1l-1,-1l-1,1v-1l-2,1v-1l-1,-1h-1l-1,1l-1,1v-1l-1,1v-1l1,-1v-2l1,-1l1,-1l-1,-2l-1,-1v-1h2v-1h2v-1h1v-1h1l-1,-1h1l-1,-1h-1h1l1,-2v-2h-1v-1h-1l-1,-1l-1,-2v-2h-1v-1l1,-1h1v-1l1,-1v-2h1v-1h1h-1v-1h1l1,-1h1v1h1l1,-1h1v-1h2v1h1l1,-1v-1h1v-3h-1v-1l-2,-4h1v-1h1v-3l-1,-1h-1v-1l-1,1v-1l-1,-1l-1,1l-1,-1v-1h1v-3h-1v1l-2,-1l1,-1l1,-1h1v-1h1v-5l-1,-1h-1v-1h-1l-1,-1v-1l-1,-1l1,-1h1v-2v1h1v-1h1l1,2v-1h1v-1h1v1v-1l1,-1l-1,-4h1v-2l-1,-1l-1,-1v-2l1,-1v1h1l1,-1l1,-1v-3l1,-2v-2l1,-1v-1l-1,-1l1,-2v-2h1v-2l1,-1h1l-1,-1v1Z"/><path data-name="Valley" class="geo-105" d="M733,26h15l33,-1l2,-1v11h-2v9h10l2,30h16l2,39l-2,5l1,19l-14,-2l1,3l-11,1l1,-3l-8,1l-5,-3l-9,1v10l-6,1l-3,16l-12,5l-1,5h-11v7l-11,2l-18,1l-2,-2l-11,-1v-34l-1,-2v-25l2,-10h9v-9l-4,-1v-10l3,-5l4,1l-1,-21v-25l1,-10l1,-1h23Z"/><path data-name="Petroleum" class="geo-069" d="M621,193l20,-2l10,4l1,13v2l-3,8v11l1,12l3,9v7l3,1l-3,11l-1,5l4,3l4,3l1,8h-34l-29,2l1,-10v-31l-11,1l2,-20h10v-5l22,-1l-1,-5Z"/><path data-name="Phillips" class="geo-071" d="M623,30h31l5,-1l44,-1l-1,10v25l1,21l-4,-1l-3,5v10l4,1v9h-9l-2,10v25l1,2v34l-2,8l-16,-3l-4,2l-4,11l-8,3v7l-4,1l-1,-13l-10,-4l-20,2l-1,2l-9,-5h-18l-9,-4l1,-3l-9,-6v-22h20l1,-8l13,1v-28h1v-25h5v-15h2v-20h4Z"/><path data-name="Missoula" class="geo-063" d="M184,198v-1l1,-12l23,1l13,1l-1,8v22l-1,18l13,1l-1,14v22l-1,4h-9l-5,4v6l-6,2h-10v6h-12l-40,-2h-1l-1,-1v-1h-2v1h-1l-1,1v-1v1h-2l-1,1l-1,1h-3v-1h-3v-1l-1,1h-2l-1,1h-1v-1h-1v-2h-1l-1,-1v-2l1,-1v-1l1,-1l-1,-1h-1v-2h-2v-1h-1h11l-1,-19l5,-11l5,2l-2,-9h-6l-2,-7l-10,-7l1,-5h-4l-2,-5h8l10,3h1l5,4l10,4v4l6,4l6,-2l20,1v-5l10,1v-11l-4,-2l-1,-18Z"/><path data-name="Sheridan" class="geo-091" d="M863,20h4l7,-1h5l7,-1l20,-1l32,-3l1,2v10l1,2v11l1,3v7l1,3v9l1,4v11h1v8l-44,4l-1,-10h-9l-1,-9l-16,1l-1,-10h-5l-2,-30Z"/><path data-name="Daniels" class="geo-019" d="M783,24h13l14,-1h11l2,-1h7l5,-1h15l4,-1h9l2,10l2,30h5l1,10l-43,2l-21,2h-16l-2,-30h-10v-9h2Z"/><path data-name="Prairie" class="geo-079" d="M798,270l-2,-37h9l1,10l10,-1v-10l33,-2h7l1,23h10v6h10l3,6l34,-2l2,20v4h-11l1,5l-9,1v5l-11,1v3l-20,1v-3h-16l-4,-2v-6l-7,-1v-10h-4v-10l-17,1v-3Z"/><path data-name="Madison" class="geo-057" d="M330,392l15,6l12,7l10,12h14v34h-2v25h-1v34l-1,9l-2,1l1,1l-1,3h-1l-1,-1h-1v1h-27v-8l-24,-1v-5h-7l-2,-21h-12v-10h-9v-37l-3,-4l-8,1l-7,-6l1,-17h2l8,-6l2,-1l1,-4l5,-2h23l3,-1l2,-8l4,-2Z"/><path data-name="Beaverhead" class="geo-001" d="M199,467v-3l-1,-2h-1v-1h-1v-1h-1v-2h-1v-1l-1,-1h-1l-1,-1l1,-1v-2h-1v-2h-1l-1,-2h-1v-6h1h-1l1,-1v-1h-1v-1l-1,-1h-2v-1l1,-1h1l-1,-1h-1v-3l1,-1h-1l2,-1v-3h-1v-1l1,-1h-6v-3h1v-3h1l1,-1v-3h-1l-1,-1h-1l-1,-1h-4l1,-1v-3h-2v-2h-1h1l-1,-1v-2h3v-7l6,1l5,-6l5,-3l9,-1l5,-4l2,-6l4,7h1v2l1,2v2v-1v1h1l-1,2l3,4v1l1,1l3,-6l7,-1l4,-6h9l1,2l5,5l17,8l9,12v3l-1,17l7,6l8,-1l3,4v37h9v10h12l2,21h7v5l24,1v8h25h-1v3l1,1l-1,2l-1,2h-2l1,1v1h-1v1l-1,1h1l-1,1v1l1,1l1,1v1l2,1h1v2h-4l-1,-1v-1h-3l-2,-1h-1v1h-5v-1h-3l-1,1v1h-3v1h-1v1h-4v1h-2v-1h-1l-1,-2v-1h-1v-1l-1,-1h-1v1h-4l-2,1v1l-1,1v-1h-1v1l-1,-1v-1h-3v2h-1l-1,-1h-1v1h-2v1h-1l-1,-1h-1v-2l-1,1l-1,-1l-1,1v1l-1,-1h-1l-1,-1h-1v-2h-1l-1,-1h-4v1h-1l-1,1l-1,1h-2l-1,1v7l-1,2h-2v-1l-1,1h-2v-2h-2v-1h-2v1h-1v1l-1,-1v-1h-2l-1,-1h-2v1h-1v-1v1l-1,-1v-1h-2v1v-1h-5v-1h-1l-1,-1h-1l-1,1l-1,1h-1l-4,3l-3,2v3l1,1v1l-1,4v1l-2,-1v-1h-1v-1l-1,-1v-2l-1,1h-1v-1h-1v-1h-2l-1,-1l-2,-2l-1,-1l-1,-2v-1l-1,-1l-1,-2h1l1,-1l-1,-1l1,-1l-2,-4l-3,-4v-2l1,-1l1,-2l-1,-4v-1l-2,-3v-1l-1,-2l-1,-2l-1,-1l1,-1v-1h-1l-1,-1h-2v-1h-1v-1h-1v-1h-2v-1h-1v-1h-2v1h-2v1h-2v1h-2v1h-1v-2l-1,-3h-1v-1h-4v-3h-1l-2,-1v-2l-1,-1v-2l-1,-1v-1h-1v-2h4l1,-1v-6h1l-1,-1v-2h-1l1,-1v-2h-1v-1v1h-1l-1,-1v-1h-1l-1,-2v-2l-2,-1h-1v1l-2,-2v-1l1,-1h-2v-1Z"/></g>
  <path class="counties-mesh" d="M894,479l-1,-6l-2,-35h4l-2,-49l3,-1l-1,-23l-2,-17h4l30,-2v9h10l1,9l20,-1l1,10l8,-1M428,355l-22,-1l-5,-9l5,-16l-5,-5l-8,3l-2,-1l-2,-10l-5,-2l1,-11l-4,-2l-6,-3v-8l-3,-2v-6l-8,1l-3,-3l3,-5l-4,-4h9l1,-10h20l9,-1v-9h7v10h8l9,6v4l8,2v7h4l4,2l2,6h5l4,7l3,4h10l6,-4v26h-1v35l-11,-1h-29l-1,5v43l-1,21h-5v7h-5v20h-10l-1,41M258,127l-3,-2l-4,1h-1l-8,-4l1,-7l-7,-7l-2,-2l59,2l1,-20l29,1l7,5l7,-1l1,7h15v5l9,1v14l20,1h11v-86l1,-4M257,372l3,1l2,-6h7v-10l8,1l5,-3l3,-2l5,-1v7l4,4l-1,6l4,16l-1,7l14,9l5,2h-23l-5,2l-1,4l-2,1l-8,6h-2v-3l-9,-12l-17,-8l-5,-5l5,-1l8,-6l1,-9M307,326l2,-11v-13l-2,-3h-8l1,-5l-10,-1l1,-15l-21,-1l1,-5v-28l1,-6l-21,-1l1,-10v-25h-3l-3,-13l-25,-2l-13,-1l3,-7l-1,-7l-2,1l-3,-10l2,-5l-1,-6l-8,-8l-2,-2l-3,-7l-13,-2l-2,7v-1h1v4l-35,-2v20h-9v-10l-30,-1l1,-16l-2,-1l1,-24l14,1l2,-40h-3l1,-10h16v-7l6,-3l-9,-6l3,-4l-2,-19M587,361v-17l-4,-5l-6,-29h-7l-2,-5v-15h-30v7h-28l-1,-10l-6,-3l6,-11v-32h-9v-5h-10v-5h-10v-11h-7v-6M661,288l-1,-8l-4,-3l33,-1v-1l59,-3v2l50,-2l-2,6l1,35h-2l2,40h-3l1,38l1,2l-4,1l1,6v21h1v23h-3l1,20l2,8v13M135,161v22h16l3,2l-3,11h6l-5,6l1,10h9v25l-6,2l-6,-4v-4l-10,-4l-5,-4h-1l-10,-3h-8l-3,-4l-11,-2v-10l-11,-3l-8,-8l-13,-1l-6,1l-11,-2M26,104l2,1l1,6l6,-2l10,-4l6,-4l4,8l4,18l4,4v10l5,2l15,3l4,-2l7,-6v-6l10,1M468,351l12,1h38v10h4v10h15l-1,9h-7v11h-2l-2,10l1,20h-11v5h-9v5h-11v20h-10v20h-14l1,-20v-50h-5v-40l1,-6M189,302l-1,-8h12v-6h10l6,-2v-6l5,-4h9l9,8v4l6,2l6,-2l-1,6v29l-1,18v6l-20,-1v19l-8,5l-7,3l-5,5l-10,-4l-3,-8h-3l-7,-1l2,-4l3,-3l-5,-13l4,-1v-17l-6,-5l-1,-11l6,-9M765,145h5l1,10h8l1,35l-2,4v17l2,3h8l1,19h7l2,37l20,-1v3l17,-1v10h4v10l7,1v6l4,2h16v3l20,-1v-3l11,-1v-5l9,-1l1,15l-14,1l1,15l3,5v20M893,389h-17l-39,3l-41,1M953,198l-6,2v4l-23,2l-8,-2v-18h-6l-1,-9l-30,1l-1,-10l-20,1v-18l2,-1l-1,-22l10,-2l3,1l6,-4l1,-6l14,4l12,-1l3,-3l15,6l1,3h20l4,3M959,285l-23,2l-6,-5l-14,1l-2,-20h8l7,-6l7,-16v-11l-4,-12l-8,-9v-3M526,177l10,1l8,-4l2,-4l11,2l4,-3l11,1l-1,6l5,1l9,6l-1,3l9,4h18l9,5l1,-2v26l1,5l-22,1v5h-10l-2,20l11,-1v31l-1,10l29,-2h34l2,2l1,9l-2,5v1l-1,1h3l1,11l1,12h-12l-8,10v6h-18l-11,4v11l-30,1h-11l-40,1l1,10M518,352l20,-1l-1,-3v-28h1v-23M507,492v-19h8v-11h7v-5l7,-10l13,-9h13v-7h5v-7l9,-3h14l5,-3l-1,9l8,4v7h5M323,89v-22h1v-37M623,30l-1,30h-4v20h-2v15h-5v25h-1v28l-13,-1l-1,8h-20v22M526,131l-1,-18h2v-12l3,-7v-8l-2,-5v-39l1,-11M510,297h-6l-11,-7h-3l-9,2l-1,2l-11,1M230,276l1,-4v-22l1,-14l-13,-1l1,-18v-22l1,-8M372,288l-5,-1l-5,2l-2,20l-11,1h-20v3l-14,4l2,6l-5,3h-5l-8,3l-3,7l-7,-1l-2,8l-38,-2M485,472l22,1M859,128l-2,-3l-20,1l-3,3l-10,-1l1,4l-9,1l-6,4l-1,-19l2,-5l-2,-39l21,-2l43,-2l16,-1l1,9h9l1,10l44,-4M906,292l-1,-5h11v-4M656,277l-4,-3l1,-5l3,-11l-3,-1v-7l-3,-9l-1,-12v-11l3,-8v-2l4,-1v-7l8,-3l4,-11l4,-2l16,3l2,-8l11,1l2,2l18,-1l11,-2v-7h11l1,-5l12,-5l3,-16l6,-1v-10l9,-1l5,3l8,-1l-1,3l11,-1l-1,-3l14,2M576,361v20h2v32l5,8M914,263l-34,2l-3,-6h-10v-6h-10l-1,-23h-7M208,186l-23,-1l-1,12v1l3,5l1,18l4,2v11l-10,-1v5l-20,-1M688,369l3,-6l1,-10l-4,-2l-4,-11l-4,-1l-11,-20M116,220l2,5h4l-1,5l10,7l2,7h6l2,9l-5,-2l-5,11l1,19h-11M285,353l-2,-7l4,-3M345,398l-15,-6h-6l-4,2l-2,8l-3,1M568,290h30M331,201v36l6,5l1,2l1,-1l11,3v24l10,1M382,121v9M381,147h-44v-7h-4v-5l-10,-1v-5h-26l-39,-2l2,3l7,10l-1,9l-6,-1M246,189l2,-6l-3,-10l7,-1l2,-15l-2,-5l8,-4v5l5,8v18l3,6l6,4l13,-4h8v2l7,3l1,6l6,1l4,4h18l9,1l1,-12h20v-10h20v-33l1,-17l45,1v-10h15v-10h60v10h8v11l16,-1v46h-12l-3,4l-8,-2v7l-1,4l1,1l-1,4v5l-5,2l-4,3l-2,1l-1,1h-2l-1,1l-1,1v-1v1v-1l-2,2h-1l-1,1l-3,1v1h-1l-1,1h-37v-4h-9v-9h-8l-12,-6v-9l3,-5l-33,-1M798,270v2M148,292l40,2M243,388l-1,-2h-9l-4,6l-7,1l-3,6l-1,-1v-1l-3,-4l1,-2h-1v-2l-1,-2v-2h-1l-4,-7l-2,6l-5,4l-9,1l-5,3l-5,6l-6,-1v7h-3M783,24v11h-2v9h10l2,30h16M690,179v-34l-1,-2v-25l2,-10h9v-9l-4,-1v-10l3,-5l4,1l-1,-21v-25l1,-10M621,193l20,-2l10,4l1,13M873,70l-1,-10h-5l-2,-30l-2,-10M370,524h-25v-8l-24,-1v-5h-7l-2,-21h-12v-10h-9v-37l-3,-4l-8,1l-7,-6l1,-17M632,490l3,-11l4,-4l3,-10l-43,1h-4l1,-25l4,-3l26,-1v-3h10v-3l9,-1v-24l1,-20h14l6,-10h10v-7h12l8,-1v11l20,-1v5h10v4h9M377,519l1,-9v-34h1v-25h2v-34h-14l-10,-12l-12,-7h3l5,1l4,-4l6,-9l7,-2l6,-9v-7l4,-5l3,-8l23,-1M433,32v31h-1v58M440,214v6h-9l-2,6l1,24h9l1,31l-1,1M182,24l4,4l1,16l7,-2l5,-1l6,5l-1,5l5,5l-3,4l1,12l13,2l5,6l1,10l8,3l2,4l-4,4l2,5M357,395v-25h-9v-35l1,-3v-22M792,464l-40,2l-1,-20l3,-2v-22l-1,-13l-15,-1v-12l3,-5h-6v-4l-1,-31l-6,1v-20l-3,-10h-9l-2,-10l-45,2l-4,-2M858,160h-10l2,30h-4l2,19l1,21l-33,2v10l-10,1l-1,-10h-9"/>
<g class="districts"><path data-name="Congressional District (at Large)" class="district-3000" d="M26,104l2,-22v-3l1,-8l1,-13v-1l1,-7l1,-23l2,-13l8,1h9l5,1l7,1l19,1l8,1h10l8,1l25,1h8l3,1h9l6,1h9l5,1h12l8,1h13l5,1h24l3,1h20l14,1h3l6,1h33l10,1h15l17,1h64l3,1h91l13,-1h58l26,-1h43l5,-1l44,-1l1,-1h23l6,-1h15l33,-1l2,-1h13l14,-1h11l2,-1h7l5,-1h15l4,-1h13l7,-1h5l7,-1l20,-1l32,-3l1,2v10l1,2v11l1,3v7l1,3v9l1,4v11h1v10l1,7v6l1,1v11l1,2v4l1,7v10h1v10l1,1v13l1,3v11l1,1v12h1v13l1,1v12l1,1v23l1,1v13l1,1v10l1,3v10l1,2v10l1,2v11h1v12l1,6v7l1,1v11l1,4v6l1,8v8l1,1v8l1,2v3l1,9v9l1,4v7l1,4v11h1v9l1,2v11l1,8v1l1,5v19h-7l-2,1h-8l-8,1h-13l-12,1h-7l-1,1h-15l-4,1h-3l-32,2h-6l-9,1h-11l-2,1l-13,1h-6l-15,1h-15l-3,1h-13v1h-27l-4,1h-45l-1,1h-5l-51,1h-5l-19,1h-29l-10,1h-7l-3,-1h-26l-2,1h-75l-12,1h-12l-7,-1h-25v60l-4,-1v-1l-3,-1v-4h-1l-3,-3v-1l-2,-1h-1v-2h-1v-3h2l-1,-1l-1,-1v-1h-2l-1,-1v-1h1l-2,-2v-1h-1v-2l-3,-3h-1v1h-1v-1l-1,-1v-1l-1,-1l-2,1l1,1l-1,3h-1l-1,-1h-1v1h-3v3l1,1l-1,2l-1,2h-2l1,1v1h-1v1l-1,1h1l-1,1v1l1,1l1,1v1l2,1h1v2h-4l-1,-1v-1h-3l-2,-1h-1v1h-5v-1h-3l-1,1v1h-3v1h-1v1h-4v1h-2v-1h-1l-1,-2v-1h-1v-1l-1,-1h-1v1h-4l-2,1v1l-1,1v-1h-1v1l-1,-1v-1h-3v2h-1l-1,-1h-1v1h-2v1h-1l-1,-1h-1v-2l-1,1l-1,-1l-1,1v1l-1,-1h-1l-1,-1h-1v-2h-1l-1,-1h-4v1h-1l-1,1l-1,1h-2l-1,1v7l-1,2h-2v-1l-1,1h-2v-2h-2v-1h-2v1h-1v1l-1,-1v-1h-2l-1,-1h-2v1h-1v-1v1l-1,-1v-1h-2v1v-1h-5v-1h-1l-1,-1h-1l-1,1l-1,1h-1l-4,3l-3,2v3l1,1v1l-1,4v1l-2,-1v-1h-1v-1l-1,-1v-2l-1,1h-1v-1h-1v-1h-2l-1,-1l-2,-2l-1,-1l-1,-2v-1l-1,-1l-1,-2h1l1,-1l-1,-1l1,-1l-2,-4l-3,-4v-2l1,-1l1,-2l-1,-4v-1l-2,-3v-1l-1,-2l-1,-2l-1,-1l1,-1v-1h-1l-1,-1h-2v-1h-1v-1h-1v-1h-2v-1h-1v-1h-2v1h-2v1h-2v1h-2v1h-1v-2l-1,-3h-1v-1h-4v-3h-1l-2,-1v-2l-1,-1v-2l-1,-1v-1h-1v-2h4l1,-1v-6h1l-1,-1v-2h-1l1,-1v-2h-1v-1v1h-1l-1,-1v-1h-1l-1,-2v-2l-2,-1h-1v1l-2,-2v-1l1,-1h-2v-5l-1,-2h-1v-1h-1v-1h-1v-2h-1v-1l-1,-1h-1l-1,-1l1,-1v-2h-1v-2h-1l-1,-2h-1v-6h1h-1l1,-1v-1h-1v-1l-1,-1h-2v-1l1,-1h1l-1,-1h-1v-3l1,-1h-1l2,-1v-3h-1v-1l1,-1h-6v-3h1v-3h1l1,-1v-3h-1l-1,-1h-1l-1,-1h-4l1,-1v-3h-2v-2h-1h1l-1,-1v-2h-1l-1,1v-1l-1,-1h-2v1h-2v1l-1,1l1,1v2l-4,2v1l-2,2v1l-1,1h-1l-1,1v2h-2l-1,1h-2v1h-3v-1h-2v3l-1,1v1l-3,2l-1,1v1h-2v1h-1v-2h-1l-1,-2v-1h-1l-1,-1h-2v-1l-1,-1v-1l-1,-1l-1,-1v-1l-1,-1l-1,1v-1l-2,1v-1l-1,-1h-1l-1,1l-1,1v-1l-1,1v-1l1,-1v-2l1,-1l1,-1l-1,-2l-1,-1v-1h2v-1h2v-1h1v-1h1l-1,-1h1l-1,-1h-1h1l1,-2v-2h-1v-1h-1l-1,-1l-1,-2v-2h-1v-1l1,-1h1v-1l1,-1v-2h1v-1h1h-1v-1h1l1,-1h1v1h1l1,-1h1v-1h2v1h1l1,-1v-1h1v-3h-1v-1l-2,-4h1v-1h1v-3l-1,-1h-1v-1l-1,1v-1l-1,-1l-1,1l-1,-1v-1h1v-3h-1v1l-2,-1l1,-1l1,-1h1v-1h1v-5l-1,-1h-1v-1h-1l-1,-1v-1l-1,-1l1,-1h1v-2v1h1v-1h1l1,2v-1h1v-1h1v1v-1l1,-1l-1,-4h1v-2l-1,-1l-1,-1v-2l1,-1v1h1l1,-1l1,-1v-3l1,-2v-2l1,-1v-1l-1,-1l1,-2v-2h1v-2l1,-1h1l-1,-1v1v-3l-1,-1l-1,-3h1l1,-1v1h2l1,-1v-5l1,-1v-4h1v-1h1l-1,-1v-1l1,-1v-2l-1,-1h-1l-1,-1v-1h-2v1h-1l-1,1v-1v1h-2l-1,1l-1,1h-3v-1h-3v-1l-1,1h-2l-1,1h-1v-1h-1v-2h-1l-1,-1v-2l1,-1v-1l1,-1l-1,-1h-1v-2h-2v-1h-2v1h-1v2h-2l-2,2h-1v-2h-1v-2h1v-1h1v-3h-1v-1l-1,-1h1h-4l-1,-1v-1l-1,-1l-1,-1h-2v1l-1,-1l1,-1h-1v-1h-1l-1,-1v-9h1v-1h-1v-1h-1v-1l-1,-1l-1,-2h-1v-1h-1l-1,-1v1h-1l-1,-1l-1,-2v-4l-2,-2v-1l-1,1v-1l-1,-1l-2,-5h-1l-2,-2v-2l-1,-1l-1,-1h-1l-1,-1v-1l-1,-2h-2l-1,-1l1,-3l-1,-1v-1h-1v-2l-1,-1h-3v-1h-4v-2h-3v-1h-3v-1h-1l-1,-1v-3h-1v-3h-2v-2h-1l-1,-1h-1v-1l-1,1h-1l-1,-1v-2h-2v-1h-1v-1h-2v-1h-2v-2h1l2,-1l2,-1v1h3v-1h1v-1l1,-1h-3v-1h-2v-1l-1,-1v-1l-1,-1h1l1,-1h-3v-1h-1v-3l2,-1h1v-1h1l1,-2h-1v-2h1l-1,-1v-1h-1l-1,-1v-3l1,-2v-2h-1v-1h-1v-1h-1l-1,-2l1,-1l-2,-2l-2,1v-1l-1,-2v-6h-1v-1l-1,-1l-1,-1l-1,1l-1,-1l-1,-2l-1,-1v-1h-1l-1,-2v-2h-1v-1h-1l-1,-3v-1h-1v-1h-1v-1Z"/></g>

</svg>