<?xml version="1.0" encoding="utf-8"?>
<!DOCTYPE svg PUBLIC "-//W3C//DTD SVG 1.1//EN" "http://www.w3.org/Graphics/SVG/1.1/DTD/svg11.dtd">
<svg version="1.1" xmlns="http://www.w3.org/2000/svg" width="897" height="1000" viewBox="0 0 897 1000">
  <path class="state" d="M858,25l1,16v40l1,12v11l-5,4l1,23l1,23v14l1,30l1,20v37l1,21v17l1,25v11l1,5l1,32v23l1,13v15l1,44v14l1,11v23l1,2v36l1,14v67l1,6v45l1,21v39l1,34v1l1,15l1,50l1,7v14h-10l-28,1l-55,2h-44v1h-9l-62,1h-44l-21,1h-231v1l-1,1h-1l-1,1v1l1,1h2v2l-1,1h2v1h-1l-1,1v2l1,1h1v1h-2v1h-2v4h1v2h-1v2h1v1h1v1h1l1,1l1,3l1,1l10,6h-91l-18,-1h-49l-19,-1h-32l-9,-1h-21l-1,23v28l-1,25h-6l-18,-1h-34l-11,-1h-30l-21,-1v-9l1,-5v-24l1,-3v-24l1,-7v-6l1,-38v-31l1,-2v-25l1,-3v-27l1,-1v-25l1,-12l1,-17v-55l1,-4v-24l1,-4v-11l1,-34v-10l1,-2v-22l1,-5v-29l1,-2v-51l1,-24l1,-7v-25l1,-4v-24l1,-10v-16l1,-16v-19h1v-58h1v-17l1,-26v-12l1,-3v-8l1,-24v-17l1,-16v-18l1,-2v-46l1,-22v-15l1,-1v-5h41v1h40l2,1h44l8,1h42l12,1h65l17,1h19l20,1h247l19,-1h49l6,-1h26l12,-1h27l2,-1h23l14,-1h26l3,-1h38Z"/>
<g class="geos"><path data-name="De Baca" class="geo-011" d="M610,516v-85l5,-1h57l-1,-16h14v-14l29,-1v25l1,5l25,-1v36l2,22v29l-29,1v14h-27l-1,1h-59v-15Z"/><path data-name="Otero" class="geo-035" d="M410,690v-50l-1,-6h87v14h52l5,-1v58h-5l1,10v65h29v-1h42v44h1v35l1,7l-21,1h-197v-48l1,-3v-109h5Z"/><path data-name="Catron" class="geo-003" d="M39,429l9,1h26v1h38v1h85v1h24l-1,3v50l1,1v23h-1v81l-1,1v26h-31l-9,-1l-1,21v25h-41l-2,-1h-23l-10,-2h-33l-1,-1h-31l-6,-1l1,-4v-24l1,-4v-11l1,-34v-10l1,-2v-22l1,-5v-29l1,-2v-51l1,-24Z"/><path data-name="Union" class="geo-059" d="M724,28h23l2,-1h23l14,-1h26l3,-1h43l1,16v40l1,12v11l-5,4l1,23l1,23v14l1,30l1,20v18h-30l-16,1v-58l-21,1h-37v-15h-24l-5,1v-63l-1,-1v-43l-1,-2Z"/><path data-name="San Miguel" class="geo-047" d="M495,219h52l17,7h4l2,1l2,1l1,1h2l4,1l1,1h1l2,2l1,1l4,2l19,-1l15,-2h57l12,-1h35l6,-4l12,21l23,42h12v5l1,25h-30v-4l-15,10l-21,11v-12l-5,1h-64l-6,1h-85l1,29h-54l-4,1l-1,-16v-92l-1,-6Z"/><path data-name="Taos" class="geo-055" d="M462,140v-1v1v-1h1v-1l2,-24l-1,-3l-4,-31l1,-34l-4,-15h105l-3,2l5,11l-3,9v24h-4l-7,-1l-4,4l-4,3l3,9l-4,2l4,9l-4,2l5,3l3,8l-3,5l2,8l-2,25l-9,4l3,3l-5,8l1,5l-12,21l-3,1l-26,-15h-1l-17,-22l-27,-11l2,-5Z"/><path data-name="Grant" class="geo-017" d="M30,730l1,-17v-55l6,1h31l1,1h33l10,2h23l2,1h41l20,1l1,14l2,7l-2,2v11l2,5l8,2l2,7l-2,10l3,3l1,8l4,2l-3,24l2,2l15,2h-44v15h-23v-1l-21,1v38l-1,1v33l1,9v27l-13,-1h-30v-30l-1,-7v-30h1v-36l1,-6h-16v-15h-29l1,-30Z"/><path data-name="Colfax" class="geo-007" d="M584,31h24l19,-1h49l6,-1h26l12,-1h4v29l1,2v43l1,1v56h-31l-2,1h-83v-7h-21l-2,1h-41l2,-25l-2,-8l3,-5l-3,-8l-5,-3l4,-2l-4,-9l4,-2l-3,-9l4,-3l4,-4l7,1h4v-24l3,-9l-5,-11l3,-2h20Z"/><path data-name="Sandoval" class="geo-043" d="M354,328h-50l-10,-1l-5,-14h-10l1,-14v-102h-28l-14,-1l1,-36h98l1,1v37h87l-1,5l-7,-1l-2,3l-12,-1l-1,26h12l8,5l2,3v53l1,34v4h-27l-22,-1h-1l-5,3l-3,-3h-9Z"/><path data-name="Cibola" class="geo-006" d="M121,311v-1h28l2,1h35v1h36v-7h14l-1,8h54l5,14l9,23l9,22l-19,-1l-1,15v48h-26l-1,-1h-68v-1h-85v-1h-38v-1h-26l-9,-1v-25l1,-4v-24l1,-10h31v1h35l12,1l1,-10v-28Z"/><path data-name="Doña Ana" class="geo-013" d="M274,764l1,-29h23v1h35v-8l19,-8l23,-13l15,-6l20,-11v16h-5v109l-1,3v48h-34v1l-1,1h-1l-1,1v1l1,1h2v2l-1,1h2v1h-1l-1,1v2l1,1h1v1h-2v1h-2v4h1v2h-1v2h1v1h1v1h1l1,1l1,3l1,1l10,6h-89l-20,-1v-67Z"/><path data-name="Harding" class="geo-021" d="M679,233v-6l-2,-11l4,-3l3,-10l-4,-4l1,-5l-4,-6l-5,-12v-10h-4v-6h25l2,-1h31v7l5,-1h24v15h37l21,-1v58l1,14v44l-1,1h-34v-5h-12l-23,-42l-12,-21l-6,4h-35Z"/><path data-name="Hidalgo" class="geo-023" d="M30,730l27,1l-1,30h29v15h16l-1,6v36h-1v30l1,7v30h30l13,1l1,13l-1,17v38l-1,21h-6l-18,-1h-36l-9,-1h-32l-19,-1v-9l1,-5v-24l1,-3v-24l1,-7v-6l1,-38v-31l1,-2v-25l1,-3v-27l1,-1v-25l1,-12Z"/><path data-name="Socorro" class="geo-053" d="M219,618v-26l1,-1v-81h1v-23l-1,-1v-50l1,-3h44l1,1h71l14,9l22,8l16,4l6,4l6,-1v31h67v72h-18v29h-18l-11,-2h-15v31l-15,1h-50l-2,-1h-55l-1,-1Z"/><path data-name="Los Alamos" class="geo-028" d="M424,203l1,6l-1,12v3l10,2l-1,3l-5,8l-4,1l-2,-3l-8,-5h-12l1,-26l12,1l2,-3Z"/><path data-name="Mora" class="geo-033" d="M495,219v-18l11,3v-3l10,1l5,-6l3,-1l12,-21l-1,-5l5,-8l-3,-3l9,-4h41l2,-1h21v7h58v6h4v10l5,12l4,6l-1,5l4,4l-3,10l-4,3l2,11v6h-57l-15,2l-19,1l-4,-2l-1,-1l-2,-2h-1l-1,-1l-4,-1h-2l-1,-1l-2,-1l-2,-1h-4l-17,-7Z"/><path data-name="Eddy" class="geo-015" d="M764,702l1,9v37l1,1v27h12l1,8v37h1v38l1,4h-44v1h-9l-62,1h-44l-1,-7v-35h-1v-44h1v-62l-1,-13h35l1,-1h96Z"/><path data-name="Curry" class="geo-009" d="M863,367v22l1,13l1,20v53l-10,1h-37l-10,1h-28l-10,1l-1,-7v-43h4l-1,-16h29v-15h15v-13l14,-2v-14l6,-1Z"/><path data-name="Roosevelt" class="geo-041" d="M865,475l1,11v23l1,2v36l1,13v38l-18,1h-34l-12,1v-14h-29v-27h-18v-30l-1,-14h-14v-29l-2,-22v-36h29v43l1,7l10,-1h28l10,-1h37Z"/><path data-name="San Juan" class="geo-045" d="M186,28h42l12,1h28l-5,8v8l-15,8l-6,8l-2,22v30l-1,1v46l-1,36h-29l-6,-1h-33l-1,-1h-43l-2,-1h-34l-3,-1h-33l-8,-1l1,-24v-17l1,-16v-18l1,-2v-46l1,-22v-15l1,-1v-5h41v1h40l2,1h44Z"/><path data-name="Lincoln" class="geo-027" d="M468,489h84v-16h58v43l1,9v42l1,1v64l1,14l-3,1l1,28h-14l-13,2h-31v-30l-5,1h-52v-14h-90v-46h15l11,2h18v-29h18Z"/><path data-name="Guadalupe" class="geo-019" d="M555,357l-1,-29h85l6,-1h64l5,-1v73l-29,1v14h-14l1,16h-57l-5,1v42h-58v-42h3Z"/><path data-name="Torrance" class="geo-057" d="M394,412v-25h43v-14h-12v-15h72l4,-1h54v74h-3v58h-151v-44h-8Z"/><path data-name="Luna" class="geo-029" d="M231,763l21,1h22v137h-49l-19,-1h-32l-9,-1h-21l-1,-13v-27l-1,-9v-33l1,-1v-38l21,-1v1h23v-15Z"/><path data-name="McKinley" class="geo-031" d="M44,248v-8l1,-26v-12l1,-3v-8l8,1h33l3,1h34l2,1h43l1,1h33l6,1h29l14,1h28v102l-1,14h-44l1,-8h-14v7h-36v-1h-35l-2,-1h-28v1l-1,19v28l-1,10l-12,-1h-35v-1h-31v-16l1,-16v-19h1v-58h1v-8Z"/><path data-name="Rio Arriba" class="geo-039" d="M326,30h15l20,1h96l4,15l-1,34l4,31l1,3l-2,24v1h-1v1v-1v1l-10,3l-2,5l27,11l17,22h1l26,15l-5,6l-10,-1v3l-11,-3l1,-3h-48v1l2,10h-25l-1,-6l1,-5h-87v-37l-1,-1h-98v-46l1,-1v-30l2,-22l6,-8l15,-8v-8l5,-8h37l17,1Z"/><path data-name="Lea" class="geo-025" d="M804,600l12,-1h34l18,-1v30l1,6v64l1,2v39l1,34v1l1,13v28l1,24l1,7v14h-10l-28,1l-19,1h-27l-9,1l-1,-4v-38h-1v-37l-1,-8h-12v-27l-1,-1v-37l-1,-9h7v-25l-1,-2v-38l-1,-8h7l-1,-28l7,-1Z"/><path data-name="Chaves" class="geo-005" d="M610,516h16v15h59l1,-1h27v-14l29,-1h14l1,14v30h18v27h29v14h-22l-7,1l1,28h-7l1,8v38l1,2v25h-7l-12,1h-96l-1,1h-35l1,13v62h-43v1h-29v-65l-1,-10h5v-28h31l13,-2h14l-1,-28l3,-1l-1,-14v-64l-1,-1v-42Z"/><path data-name="Santa Fe" class="geo-049" d="M424,224v-3l1,-12h25l-2,-10v-1h48l-1,3v43l1,6v92l1,16h-72v-33l-1,-34v-53l4,-1l5,-8l1,-3Z"/><path data-name="Quay" class="geo-037" d="M779,296h34l1,-1v-44l-1,-14l16,-1h30v19l1,21v17l1,25v11l1,5v25l1,7v1h-27l-6,1v14l-14,2v13h-15v15h-29l1,16h-33l-25,1l-1,-5v-86l21,-11l15,-10v4h30Z"/><path data-name="Bernalillo" class="geo-001" d="M312,372l-9,-22l-9,-23l10,1h63l3,3l5,-3h1l22,1h27v44h12v14h-35l-1,-4l-1,-2l-15,-1h-22l-4,6h-42Z"/><path data-name="Sierra" class="geo-051" d="M406,619v15h3l1,6v50l-20,11l-15,6l-23,13l-19,8v8h-35v-1h-23l-1,29h-22l-21,-1l-15,-2l-2,-2l3,-24l-4,-2l-1,-8l-3,-3l2,-10l-2,-7l-8,-2l-2,-5v-11l2,-2l-2,-7l-1,-14l-20,-1v-25l1,-21l9,1h95l1,1h55l2,1h50Z"/><path data-name="Valencia" class="geo-061" d="M317,386h42l4,-6h22l15,1l1,2l1,4h-8v25l-1,33h8v13l-6,1l-6,-4l-16,-4l-22,-8l-14,-9h-45v-48l1,-15l19,1Z"/></g>
  <path class="counties-mesh" d="M726,159v-56l-1,-1v-43l-1,-2v-29M714,338v-12l-5,1h-64l-6,1h-85l1,29M740,428v36l2,22v29l-29,1v14h-27l-1,1h-59v-15h-16v-85l5,-1h57l-1,-16h14v-14l29,-1M404,866v-48l1,-3v-109h5v-66l-1,-6h87v14h52l5,-1v58h-5l1,10v65h29v-1h42v44h1v35l1,7M562,31l-3,2l5,11l-3,9v24h-4l-7,-1l-4,4l-4,3l3,9l-4,2l4,9l-4,2l5,3l3,8l-3,5l2,8l-2,25l-9,4l3,3l-5,8l1,5l-12,21l-3,1l-26,-15h-1l-17,-22l-27,-11l2,-5l10,-3v-1h1v-1l2,-24l-1,-3l-4,-31l1,-34l-4,-15M39,429l9,1h26v1h38v1h85v1h24l-1,3v50l1,1v23h-1v81l-1,1v26h-31l-9,-1l-1,21v25h-41l-2,-1h-23l-10,-2h-33l-1,-1h-31l-6,-1M178,663l20,1l1,14l2,7l-2,2v11l2,5l8,2l2,7l-2,10l3,3l1,8l4,2l-3,24l2,2l15,2h-44v15h-23v-1l-21,1v38l-1,1v33l1,9v27l-13,-1h-30v-30l-1,-7v-30h1v-36l1,-6h-16v-15h-29l1,-30l-27,-1M813,237v-58l-21,1h-37v-15h-24l-5,1v-7h-31l-2,1h-83v-7h-21l-2,1h-41M294,327l-5,-14h-10l1,-14v-102h-28l-14,-1l1,-36h98l1,1v37h87l-1,5l-7,-1l-2,3l-12,-1l-1,26h12l8,5l2,3v53l1,34v4h-27l-22,-1h-1l-5,3l-3,-3h-63l-10,-1l9,23l9,22l-19,-1l-1,15v48h-26l-1,-1h-44M41,366h31v1h35l12,1l1,-10v-28l1,-19v-1h28l2,1h35v1h36v-7h14l-1,8h44M274,901v-137l1,-29h23v1h35v-8l19,-8l23,-13l15,-6l20,-11M679,233v-6l-2,-11l4,-3l3,-10l-4,-4l1,-5l-4,-6l-5,-12v-10h-4v-6M859,236h-30l-16,1l1,14v44l-1,1h-34M143,886l1,13M468,489v72h-18v29h-18l-11,-2h-15v31l-15,1h-50l-2,-1h-55l-1,-1h-64M424,203l1,6l-1,12M424,224l10,2l-1,3l-5,8l-4,1M495,219v-18l11,3v-3l10,1l5,-6M620,779h1v-62l-1,-13h35l1,-1h96l12,-1l1,9v37l1,1v27h12l1,8v37h1v38l1,4M865,475l-10,1h-37l-10,1h-28l-10,1l-1,-7v-43h4l-1,-16h29v-15h15v-13l14,-2v-14l6,-1h27M868,598l-18,1h-34l-12,1v-14h-29v-27h-18v-30l-1,-14h-14M268,29l-5,8v8l-15,8l-6,8l-2,22v30l-1,1v46M238,196h-29l-6,-1h-33l-1,-1h-43l-2,-1h-34l-3,-1h-33l-8,-1M552,473h58M610,516l1,9v42l1,1v64l1,14l-3,1l1,28h-14l-13,2h-31M409,634h-3v-15M402,387h35v-14h-12v-15h72M231,763l21,1h22M495,201l1,-3h-48v1l2,10h-25M764,702h7v-25l-1,-2v-38l-1,-8h7l-1,-28l7,-1h22M425,358v-29M401,458v-13h-8l1,-33v-25h8l-1,-4l-1,-2l-15,-1h-22l-4,6h-42l-5,-14M292,434h45l14,9l22,8l16,4l6,4l6,-1v31h151v-58h3v-74h-54l-4,1l-1,-16v-92l-1,-6v-25h52l17,7h4l2,1l2,1l1,1h2l4,1l1,1h1l2,2l1,1l4,2l19,-1l15,-2h57l12,-1h35l6,-4l12,21l23,42h12v5l1,25h-30v-4l-15,10l-21,11v86l1,5l25,-1h29"/>
<g class="districts"><path data-name="Congressional District 1" class="district-3501" d="M354,328l1,7h12l-9,-7h18l1,-11l2,-7v-1v1l4,1v-1l6,-1l2,-4l18,-1v-14l6,-2l9,3l1,34l11,2v14h-5v17h66l4,-1h54v74h-3v58h-151v-44h-8l1,-33l-5,-4l-23,-3l-5,-2v-5l16,-2h17v-9h8l-1,-4l4,-5v-1l2,-9l-2,-4h-11l-4,3l-8,-7l-8,2l-5,2l-2,9l-9,-1h-31l-11,6l1,8l-5,-14l-9,-22l-9,-23l10,1Z"/><path data-name="Congressional District 2" class="district-3502" d="M25,896v-2l1,-38v-31l1,-2v-25l1,-3v-27l1,-1v-25l1,-12l1,-17v-55l1,-4v-24l1,-4v-11l1,-34v-10l1,-2v-22l1,-5v-29l1,-2v-51l1,-24l1,-7v-25l1,-4v-24l1,-10v-16l1,-16v-4l26,1l2,9l5,2l-3,5l7,4l7,-2l-3,-6l8,-3h10l6,3l4,-3v-22l1,-7h9v-1h28l2,1h35v1h36v-7h14l-1,8h54l5,14l9,23l9,22l5,14l-1,-8l11,-6h31l9,1l2,-9l5,-2l8,-2l8,7l4,-3h11l2,4l-2,9v1l-4,5l1,4h-8v9h-17l-16,2v5l5,2l23,3l5,4l-1,33h8v44h151v-58h3v-74l-1,-29h85l6,-1h64l5,-1v98l1,5l25,-1h29v43l1,7l10,-1h28l1,25h-2v12l13,-14l7,-4l14,2l2,5h15v5h8v1l1,2v36l1,13v68l1,6v64l1,2v39l1,34v1l1,13v28l1,24l1,7v14h-10l-28,1l-19,1h-27l-9,1h-44v1h-9l-62,1h-44l-21,1h-231v1l-1,1h-1l-1,1v1l1,1h2v2l-1,1h2v1h-1l-1,1v2l1,1h1v1h-2v1h-2v4h1v2h-1v2h1v1h1v1h1l1,1l1,3l1,1l10,6h-89l-20,-1h-49l-19,-1h-32l-9,-1h-21l-1,17v38l-1,21h-6l-18,-1h-36l-9,-1h-32l-19,-1v-9l1,-5v-24l1,-3v-24l1,-7Z"/><path data-name="Congressional District 3" class="district-3503" d="M43,267v-10h1v-17l1,-26v-12l1,-3v-8l1,-24v-17l1,-16v-18l1,-2v-46l1,-22v-15l1,-1v-5h41v1h40l2,1h44l8,1h42l12,1h65l17,1h19l20,1h247l19,-1h49l6,-1h26l12,-1h27l2,-1h23l14,-1h26l3,-1h43l1,16v40l1,12v11l-5,4l1,23l1,23v14l1,30l1,20v37l1,21v17l1,25v11l1,5v25l1,7v23l1,13l1,20v53l1,11v22h-8v-5h-15l-2,-5l-14,-2l-7,4l-13,14v-12h2l-1,-25h-28l-10,1l-1,-7v-43h-29l-25,1l-1,-5v-98l-5,1h-64l-6,1h-85l1,29h-54l-4,1h-66v-17h5v-14l-11,-2l-1,-34l-9,-3l-6,2v14l-18,1l-2,4l-6,1v1l-4,-1v-1v1l-2,7l-1,11h-18l9,7h-12l-1,-7h-50l-10,-1l-5,-14h-54l1,-8h-14v7h-36v-1h-35l-2,-1h-28v1h-9l-1,7v22l-4,3l-6,-3h-10l-8,3l3,6l-7,2l-7,-4l3,-5l-5,-2l-2,-9l-26,-1v-15h1v-47Z"/></g>
  <path class="districts-mesh" d="M367,328h9l1,-11l2,-7v-1v1l4,1v-1l6,-1l2,-4l18,-1v-14l6,-2l9,3l1,34l11,2v14h-5v17h66l4,-1h54v74h-3v58h-151v-44h-8l1,-33l-5,-4l-23,-3l-5,-2v-5l16,-2h17v-9h8l-1,-4l4,-5v-1l2,-9l-2,-4h-11l-4,3l-8,-7l-8,2l-5,2l-2,9l-9,-1h-31l-11,6l1,8l-5,-14l-9,-22l-9,-23l10,1h50l1,7h12l-9,-7h9M42,330l26,1l2,9l5,2l-3,5l7,4l7,-2l-3,-6l8,-3h10l6,3l4,-3v-22l1,-7h9v-1h28l2,1h35v1h36v-7h14l-1,8h54l5,14M555,357l-1,-29h85l6,-1h64l5,-1v98l1,5l25,-1h29v43l1,7l10,-1h28l1,25h-2v12l13,-14l7,-4l14,2l2,5h15v5h8"/>
</svg>