<?xml version="1.0" encoding="utf-8"?>
<!DOCTYPE svg PUBLIC "-//W3C//DTD SVG 1.1//EN" "http://www.w3.org/Graphics/SVG/1.1/DTD/svg11.dtd">
<svg version="1.1" xmlns="http://www.w3.org/2000/svg" width="838" height="1000" viewBox="0 0 838 1000">
  <path class="state" d="M808,114v5l1,6v28l1,19l1,15v57l1,7v26l1,7v28l1,29l1,10v47l1,21v12l-9,6l-10,-1l-8,10l8,11l1,3v1l1,4l4,6v3l-1,2v1l-1,1v1l-1,2v7l-2,2l4,5l1,16l-1,2l-1,8l-8,8l-2,10l-2,2l-4,7v13l-5,5l-1,1v2l1,9l-1,7v8l-3,2l1,12l-9,-1l3,9l-2,5l-1,1h-1l-1,1l-1,1l-1,1v11l-8,8l4,6l4,5l-2,5h-1l-3,2l-1,13l-2,4l-2,1h-6l-2,1h-1v2h-1l-10,9l-7,7l-10,11v1l-5,8l-2,4l-10,3l-6,11h-1l-5,-1l-11,6l-6,5l-7,1l-3,-3l-2,-8l-5,-5h-5l-8,10l-6,3l-3,2v1l-2,8v9l-10,-1l-13,2l-2,12l-4,1l-2,2l-2,4l-3,2l1,2l2,6v12l-4,5l-8,-1v6l9,12l-4,11l5,6l-2,4l-8,-6l-4,1l-3,8v2l-1,2l-1,1l-7,3l-3,-2l-4,-2l4,-4v-2l2,-2l-6,-15l-8,-1h-1v-1l-1,-3v-2l-2,-2l-1,-1h-3l-4,1v3l-2,3v2h-1l-2,2l-1,1l-5,4l-2,4l-4,10l-2,4l1,6l-1,7l-15,11l6,13l1,3v16l3,12l-7,4h-2l-10,-1l-3,4l-3,22l-2,8l-4,4h-14l-5,2l-3,1l-6,2l-1,1l-5,2l-4,1h-4l-6,-3l-4,-14l-3,-3h-3l-1,-1l-1,-1h-1v-1h-1v-2l-1,-1l-1,-1l-2,-4l-3,-4l-3,-2h-1l-1,-1h-3l-4,-1l-2,1h-2v-1h-4v-1h-1l-1,-1h-1l-1,-1v-1h-1l-1,-1l-1,-1l-1,-1v-3l-1,-3v-7l-4,-9l1,-10l-3,-6l-10,2l-7,4h-10l-4,6v1l-2,2h-1l-3,2l-4,1l-7,12l-11,2l-7,-3l-5,2v1l-4,5l-5,-1l-4,-11l-8,-4l-12,-1l-11,-8l-8,-1l-6,4h-5l-7,4l-2,7l-1,2l-12,-3l-11,-4l-3,-11l-7,-2l-7,-12l-12,-3l-3,-3h-10l-1,1l-2,1h-3v1h-8l-1,-1h-3l-3,-2h-1l-1,-1l-2,-1h-1l-1,-1h-5l-4,-1l-2,-1h-1l-1,-1l-2,-3v-1l-1,-1v-15l-1,-1l-1,-2l-4,-8l-1,-1v-1l-2,-1l-1,-1l-2,-11l-4,-7l-1,-1l-1,-1h-1l-4,-1l-1,-1l-5,-1h-2l-2,-1h-1l-1,-1h-1v-1l-3,-14h-1l-1,-1l-4,1l-5,4h-1l-1,1h-2l-1,-1h-1v-1h-4v1h-1v2h-1v1h-1l-2,1h-3v1h-1l-4,-1h-1l-2,-2l-1,-2h-1l-1,-1h-1l-8,-7l-1,-1v-1h-1l-1,-1l-1,-1l-3,-1h-1l-3,2l-3,4v1h-1l-1,1l-4,1h-1v-12l1,-1v-51h1v-14l1,-10v-9l1,-14v-18l1,-16v-34l1,-15v-15l1,-3l1,-31v-2l1,-3v-36l1,-2v-32l1,-1v-13l1,-11v-27l1,-3v-62l1,-9v-25l1,-16v-24l1,-3v-31l1,-6v-74l22,-1h62l23,-1h32l10,-1h19l50,-2h26l7,-1l18,-17l37,-35l7,22l70,45h51l206,-130l129,-31l1,83Z"/>
<g class="geos"><path data-name="Hancock" class="geo-063" d="M203,307h42v1h42v42h-7v10h-4v11h-7l-1,21h-47l-19,-1v-24l1,-15Z"/><path data-name="Allen" class="geo-003" d="M119,380h42v-10h21v-4l20,1v66l-1,-1h-41l-2,-2l-18,-1v-7h-32v-32l11,1Z"/><path data-name="Lake" class="geo-085" d="M633,84l45,-28l41,-11l2,90l1,5l1,34h-18v18h-30l-5,1v17h-34l-1,-11v-33Z"/><path data-name="Fayette" class="geo-047" d="M253,699l-16,-2l4,-40l14,1l21,3l39,2l-3,43l-11,17l-9,17l-19,-1h-21l2,-38Z"/><path data-name="Butler" class="geo-017" d="M23,731v-9l1,-10v-9l1,-14l18,1h44v-5h21v12l6,-1l-2,30l-1,8l-2,24l-6,-2l-29,-2v-1h-46l-6,-1v-16h1v-1Z"/><path data-name="Morgan" class="geo-115" d="M533,645h28l42,2l11,1l-1,21h11l-1,19l-18,-1l-5,3l-1,11l3,1v12l-22,-3v9l-3,2l-39,-2v-22l3,-5l1,-37l-10,-1Z"/><path data-name="Portage" class="geo-133" d="M655,280v-17h42v-1h28v52l1,17v18h-15l-17,1h-39v-35Z"/><path data-name="Scioto" class="geo-145" d="M397,843l10,1l-1,22l21,1l-3,25l-6,-1l-1,18l-12,-1v8l4,12l-13,7l-1,-1h-1l-1,-1v-1h-1l-1,-1l-1,-1l-1,-1v-3l-1,-3v-7l-4,-9l1,-15l-3,-1l-10,1l-5,5h-12l-4,6v1l-2,2h-1l-3,2l-7,5l-6,9l-10,1l-4,-3l-7,2v-95l6,1l4,5v7h21l11,1Z"/><path data-name="Vinton" class="geo-163" d="M409,742l20,1v-2l23,1v-6l42,2l-2,22h6v21h-7l-3,43l-21,-2l2,-24l-21,-2v-9l-22,-2l-3,-4h-18l1,-7Z"/><path data-name="Paulding" class="geo-125" d="M36,304v-13l1,-3v-5l14,1h48v12h21v37l-1,15h-53l-1,-1h-30v-16l1,-16v-10Z"/><path data-name="Henry" class="geo-069" d="M121,243v-14h35l1,1h47v17l-1,10v50h-52l-11,-1l1,-13v-50Z"/><path data-name="Fulton" class="geo-051" d="M112,176h10l23,-1h32l10,-1h19v25l-2,13v18h-47l-1,-1h-35v-7h-7l1,-24l-3,-1Z"/><path data-name="Brown" class="geo-015" d="M176,768l24,2l-1,9v25l-1,20h35l2,1l-2,36l-4,39l-1,16h-2l-9,-2l-3,-12l-12,-5l-2,-9l-14,-4l-4,-4l-7,1h-2l-1,1l-2,1h-3v1h-4l1,-12l7,-54l4,-35Z"/><path data-name="Logan" class="geo-091" d="M267,468l-7,66l-28,-4l-14,-1v-3l-17,-1l-25,-3l2,-11l1,-40l2,-12l21,-1l4,3l51,4Z"/><path data-name="Trumbull" class="geo-155" d="M725,262l-1,-37h32l3,-1h48l4,-1v21l1,20l1,20v28l-9,1h-55l-1,1h-23v-34Z"/><path data-name="Pike" class="geo-131" d="M289,817l7,-35l18,1l12,2h13l27,3h15l20,2l-2,25l-2,28l-44,-2l-11,-1h-21v-7l-4,-5l-6,-1l-8,-9Z"/><path data-name="Monroe" class="geo-111" d="M765,623l-1,1v11l-8,7l4,7l4,5l-2,5h-1l-4,3v10l-2,6l-2,1h-6l-2,1h-1v2h-1l-10,9l-7,7v-8l-17,-1h-22l-3,1v-7h-3v-24h-7v-39h39l19,2Z"/><path data-name="Lawrence" class="geo-087" d="M427,867l13,1v16l18,2l3,7l-1,14l23,2l-2,22h14l-3,22l-5,12l-15,1l-5,2l-3,1l-6,2l-1,1l-5,2l-4,1h-4l-6,-3l-2,-12l-5,-5h-3l-1,-1l-1,-1h-1v-1h-1v-2l-1,-1l-1,-1l-2,-4l-3,-4l-3,-2h-1l-1,-1h-3l-4,-1l-2,1h-2v-1h-4v-1h-1l13,-7l-4,-12v-8l12,1l1,-18l6,1Z"/><path data-name="Adams" class="geo-001" d="M235,825h14l19,-5l21,-3l14,1l8,9v96l-7,5l-4,-9l-7,-6l-20,-4l-9,-7l-16,4l-7,3l-2,8l-6,2l-5,-3l1,-16l4,-39Z"/><path data-name="Crawford" class="geo-033" d="M342,350l16,1h31l5,-1h19v68h-24v2h-47Z"/><path data-name="Guernsey" class="geo-059" d="M616,535l15,1h37v11h21v36l-1,17l-6,-1l-22,1v7l-14,-1v8l-21,-1l-1,14l-20,-1v-20h-7l1,-22v-26l1,-6h8l1,-17Z"/><path data-name="Van Wert" class="geo-161" d="M34,365l1,-9v-9h30l1,1h42v21h11v22l-11,-1v32l-11,-1v-10h-47l-16,-1v-44Z"/><path data-name="Pickaway" class="geo-129" d="M317,635l31,1l46,3l-1,19l-1,11l-1,27l21,1l-2,21l-27,-2h-15l-3,-8h-23v-1l-30,-1l3,-43Z"/><path data-name="Muskingum" class="geo-119" d="M510,585l2,-36l10,1h27l1,1h35l14,1l-1,6v26l-1,22h7v20l-1,21l-42,-2h-28l1,-11l-19,-1l2,-22l-14,-1l1,-8l6,-2Z"/><path data-name="Richland" class="geo-139" d="M413,350h25l1,1h30v42l5,4l2,3v14h7v22l1,20l-7,1h-45l-1,-21h-3v-6h3v-11l-11,-1h-7v-29Z"/><path data-name="Champaign" class="geo-021" d="M176,522l25,3l17,1v3l14,1l28,4l11,2l-2,26l-2,25l-19,-1l-22,-3l-32,-2l-23,-3l3,-34Z"/><path data-name="Wayne" class="geo-169" d="M609,369v59h-29v1h-58v-78h87Z"/><path data-name="Ottawa" class="geo-123" d="M288,199h43l4,-1l23,-39l7,-10l43,28l5,3l-11,26l7,5l23,9l-17,13l-3,1l-16,-2l-10,5l-14,1h-69l-1,-10h-14Z"/><path data-name="Harrison" class="geo-067" d="M680,484l10,-1l13,1h26l11,1h14l-2,23v40h-37v-1h-47v-33h11Z"/><path data-name="Clark" class="geo-023" d="M171,578l23,3l32,2l22,3l19,1l1,1l-11,40l-4,17l-11,-1l-33,-7v-6l-21,-2v-3l-21,-2v-7Z"/><path data-name="Hocking" class="geo-073" d="M478,673l-1,14l21,1v7l20,2l-1,21l-22,-1l-1,21l-42,-2v6l-23,-1v2l-20,-1l1,-24l2,-21v-3l20,1v-11l24,1v-14Z"/><path data-name="Miami" class="geo-109" d="M99,539h39l36,5l-3,34l-4,39l-19,-2l-1,-9h-48Z"/><path data-name="Delaware" class="geo-041" d="M317,483l25,2h16v4l18,1l-1,14l34,2l-1,17l-2,37l-39,-3h-5l-31,-2v-25h-15v-32Z"/><path data-name="Darke" class="geo-037" d="M30,520v-4l1,-2v-14l11,1h57v105h-72v-15l1,-3l1,-31v-2l1,-3v-31Z"/><path data-name="Greene" class="geo-057" d="M167,624l21,2v3l21,2v6l33,7l-1,13l-4,40l-19,-1l-10,-2l-28,-2l-25,-3l2,-36l2,-8v-19l8,1Z"/><path data-name="Ashland" class="geo-005" d="M466,351l-1,-18h18l31,1v17h8v78h-17l1,23l-22,4l-1,-20v-22h-7v-14l-2,-3l-5,-4v-42Z"/><path data-name="Lucas" class="geo-095" d="M276,172h12l56,-53l7,22l14,8l-7,10l-23,39l-4,1h-71l-3,4l-4,7l-12,6l-6,6v7l-8,8l-19,11l-4,-1v-35l2,-13v-25l50,-2h20Z"/><path data-name="Ashtabula" class="geo-007" d="M723,174l-1,-34l-1,-5l-2,-90l87,-20l1,39l1,44v11l1,6v28l1,19l1,15v36l-4,1h-48l-3,1h-32l-1,-25Z"/><path data-name="Preble" class="geo-135" d="M26,646v-25l1,-15h61v39h-1v45h-44l-18,-1v-18l1,-16v-8Z"/><path data-name="Jackson" class="geo-079" d="M401,790l4,-1v-8h18l3,4l22,2v9l21,2l-2,24v10l-3,20l-1,16l-22,-2l-1,2l-13,-1l-21,-1l1,-22l-10,-1l2,-28Z"/><path data-name="Stark" class="geo-151" d="M655,350h39l17,-1v22l1,9v32h-20l-7,1l-1,18h-41l-33,4l-1,-7v-59h23l19,1v-17Z"/><path data-name="Mahoning" class="geo-099" d="M726,331l-1,-17h23l1,-1h55l9,-1l1,29l1,10v17l-8,1h-47v-7h-14v8h-35v-21h15Z"/><path data-name="Tuscarawas" class="geo-157" d="M610,435l33,-4h27v20h10v33l-1,30h-11v22h-37l-15,-1v-35h-17v-18h8v-41Z"/><path data-name="Highland" class="geo-071" d="M252,739h21l19,1l-3,13l1,17l7,-1l-1,13l-7,35l-21,3l-19,5h-14l-2,-1h-35l1,-20v-25l1,-9h6v6h4l6,-11l12,-9Z"/><path data-name="Morrow" class="geo-117" d="M413,418h7l11,1v11h-3v6h3l1,21h-4l1,10l-1,40l-19,-1l-34,-2l1,-14l-18,-1v-4l1,-12l11,-2v-37h19v-16Z"/><path data-name="Marion" class="geo-101" d="M286,424h21v-4h82v14h-19v37l-11,2l-1,12h-16l-25,-2v-15h-31Z"/><path data-name="Perry" class="geo-127" d="M461,606l14,3l28,1l14,1l-2,22l19,1l-1,11l-1,10l10,1l-1,37l-3,5l-20,-1l-20,-2v-7l-21,-1l1,-14l1,-21l-7,-1l2,-21l-15,-1Z"/><path data-name="Erie" class="geo-043" d="M482,262v1l1,17h-43v-1h-48l-1,-18v-16h-19v-7l14,-1l10,-5l16,2l3,-1l17,-13l-23,-9l-7,-5l11,-26l8,6h51l9,-6v70Z"/><path data-name="Clinton" class="geo-027" d="M180,692l28,2l10,2l19,1l16,2l1,2l-2,38l-24,17l-12,9l-6,11h-4v-6h-6l-24,-2l-2,-1l1,-15l3,-27Z"/><path data-name="Lorain" class="geo-093" d="M481,180l68,-42v125h17v19h-17v18h-18v15h-17v19l-31,-1l-1,-33v-3l1,-17l-1,-17v-1l-1,-12Z"/><path data-name="Defiance" class="geo-039" d="M121,243h20v50l-1,13h-20v-10h-21v-12h-48l-14,-1v-26l1,-6v-10l16,1h54Z"/><path data-name="Athens" class="geo-009" d="M494,738l1,-21l22,1l1,-21l20,1v22l39,2l-1,29l6,7v6l18,1v13l-2,2l-2,4l-2,2h-1l-38,-1l-20,-1l-37,-3v-21h-6Z"/><path data-name="Jefferson" class="geo-081" d="M749,485h-9v-11h3v-22h10l1,-10h21v4h14l8,11l1,3v1l1,4l4,6v3l-1,2v1l-1,1v1l-1,2v7l-2,2l3,4l2,17l-1,2l-2,9l-8,7l-3,12l-4,7h-33v-40l2,-23Z"/><path data-name="Sandusky" class="geo-143" d="M288,228h14l1,10h69v7h19v16l1,18v8h-105l1,-1v-27Z"/><path data-name="Montgomery" class="geo-113" d="M88,606h59l1,9l19,2v10l-8,-1v19l-2,8l-2,36l-25,-3l-22,-1h-21v-40h1Z"/><path data-name="Auglaize" class="geo-011" d="M97,450v-29l11,1h32v7l18,1l2,2h41l1,1v25l-21,1l-2,12h-62l-1,24h-17v6l-4,-1l1,-22Z"/><path data-name="Geauga" class="geo-055" d="M723,174v26l1,25l1,37h-28v1h-42l-1,-18v-35h16v-17l5,-1h30v-18Z"/><path data-name="Hamilton" class="geo-061" d="M22,767v-15l6,1h46v1l29,2l6,2l17,1l1,3v1l-1,1l-4,3l-6,6v5h7l-3,5l-2,5l-4,34l-1,-1l-1,-1h-1l-4,-1l-1,-1l-5,-1h-2l-2,-1h-1l-1,-1h-1v-1l-3,-14h-1l-1,-1l-4,1l-4,3l-1,1h-1l-1,1h-2l-1,-1h-1v-1h-4v1h-1v2h-1v1h-1l-2,1h-3v1h-1l-4,-1h-1l-2,-2l-1,-2h-1l-1,-1h-1l-8,-7l-1,-1v-1h-1l-1,-1l-1,-1l-3,-1h-1l-3,2l-3,4v1h-1l-1,1l-4,1h-1v-12l1,-1v-9Z"/><path data-name="Holmes" class="geo-075" d="M506,452l-1,-23h75v-1h29l1,7l-3,6v41h-8l-15,-1h-41v-1h-31l1,-29Z"/><path data-name="Columbiana" class="geo-029" d="M711,371v-1h35v-8h14v7h47l8,-1v30l1,21v12l-9,6l-5,-3l-7,2l-6,10h-14v-4h-21v-10h-11v-20h-31v-32Z"/><path data-name="Carroll" class="geo-019" d="M670,431h14l1,-18l7,-1h51v20h11v10l-1,10h-10v22h-3v11l-11,-1h-26l-13,-1l-10,1v-33h-10Z"/><path data-name="Belmont" class="geo-013" d="M689,547h26v1h70l-1,14l-4,4l-1,1v2l1,9l-1,7v8l-4,4l1,11l-8,-2l-1,4l4,6l-2,4l-1,1h-1l-1,1l-1,1l-33,-1l-19,-2h-25v-20l1,-17Z"/><path data-name="Ross" class="geo-141" d="M289,753l3,-13l9,-17l11,-17l30,1v1h23l3,8h15l27,2l-1,24l-3,32l-1,7v8l-4,1l-20,-2h-15l-27,-3h-13l-12,-2l-18,-1l1,-13l-7,1Z"/><path data-name="Washington" class="geo-167" d="M681,683h3v7l3,-1h22l17,1v8l-10,11v1l-5,8l-12,7l-6,11h-11l-13,10h-7l-4,-10l-7,-6l-4,1l-6,9l-7,4l-3,2v1l-2,8v9l-10,-1h-11l-4,4v10l-4,1v-13l-18,-1v-6l-6,-7l1,-29l3,-2v-9l22,3v-12l-3,-1l1,-11l5,-3l18,1l22,1v-15l4,3h7l3,7l7,2h14Z"/><path data-name="Madison" class="geo-097" d="M267,587l2,-25l1,1h43l11,1l-1,10v4h-8l1,18l4,10l-5,3l2,26l-2,28l-39,-2l-21,-3l-14,-1l1,-13l11,1l4,-17l11,-40Z"/><path data-name="Hardin" class="geo-065" d="M202,433v-42l19,1h51v28h10l4,4v44h-19l-10,-3l-51,-4l-4,-3Z"/><path data-name="Clermont" class="geo-025" d="M174,767l2,1l-1,15l-4,35l-7,54l-1,12h-4l-1,-1h-3l-3,-2h-1l-1,-1l-2,-1h-1l-1,-1h-5l-4,-1l-2,-1h-1l-1,-1l-2,-3v-1l-1,-1v-15l-1,-1l-1,-2l-4,-8l-1,-1v-1l-2,-1l-1,-1l-2,-11l-4,-7l4,-34l2,-5l3,-5h-7v-5l6,-6l4,-3l1,-1l19,1Z"/><path data-name="Noble" class="geo-121" d="M603,647l1,-21l20,1l1,-14l21,1v-8l14,1v-7l22,-1l6,1v20h-14v39h7v24l-1,3h-14l-7,-2l-3,-7h-7l-4,-3v15l-22,-1l1,-19h-11l1,-21Z"/><path data-name="Putnam" class="geo-137" d="M120,306h20l11,1h52v45l-1,15l-20,-1v4h-21v10h-42v-11h-11v-21h11l1,-15Z"/><path data-name="Meigs" class="geo-105" d="M498,781l37,3l20,1l38,1l1,2l2,4v14l-4,5l-8,-1l-1,5l9,10l-3,13l5,7l-6,3l-4,-5l-4,1l-3,8v2l-1,2l-1,1l-7,3l-3,-2v-8l3,-4l-8,-14h-8v-1l-1,-3v-2l-2,-2l-1,-1h-3l-4,1v3l-2,3v2h-1l-2,2l-1,1l-5,4v-9l-41,-2l-1,-4l3,-43Z"/><path data-name="Franklin" class="geo-049" d="M406,560l-1,18l-3,27l-5,-1v7h3l-1,13l-1,8h-3l-1,7l-46,-3l-31,-1l-2,-26l5,-3l-4,-10l-1,-18h8v-4l1,-10h7v-9l31,2h5Z"/><path data-name="Huron" class="geo-077" d="M393,296l-1,-9v-8h48v1h43l-1,17v3l1,33h-18l1,18h-27l-1,-1h-44l-1,-6v-27Z"/><path data-name="Wood" class="geo-173" d="M257,203l3,-4h28v87l-1,1v21h-42v-1h-42v-50l1,-10l4,1l19,-11l8,-8v-7l6,-6l12,-6Z"/><path data-name="Seneca" class="geo-147" d="M287,287h105l1,9v48l1,6l-5,1h-31l-16,-1h-55v-42Z"/><path data-name="Williams" class="geo-171" d="M38,195v-18l22,-1h52v21l3,1l-1,24h7v21l-13,-1h-54l-16,-1v-45Z"/><path data-name="Union" class="geo-159" d="M267,468h50v15l-1,15v32h15v34h-7l-11,-1h-43l-1,-1l2,-26l-11,-2Z"/><path data-name="Cuyahoga" class="geo-035" d="M549,233v-95l48,-31h2l21,-15l13,-8l2,82v33l1,11h18v35l1,18h-37v6l5,11h-4l-15,1h-31l-7,1v-19h-17Z"/><path data-name="Warren" class="geo-165" d="M114,696l-6,1v-12l22,1l25,3l25,3l-2,33l-3,27l-1,15l-28,-3l-19,-1v-1l-1,-3l-17,-1l2,-24l1,-8Z"/><path data-name="Fairfield" class="geo-045" d="M399,624l1,-13h-3v-7l5,1l44,2l15,-1l-2,23l15,1l-2,21l7,1l-1,21l-22,-2v14l-24,-1v11l-20,-1v3l-21,-1l1,-27l1,-11l1,-19l1,-7h3Z"/><path data-name="Knox" class="geo-083" d="M432,457h45l7,-1l22,-4l7,-1l-1,29l-1,10l-1,42l-51,-2v-4l-51,-3l1,-17l19,1l1,-40l-1,-10Z"/><path data-name="Licking" class="geo-089" d="M406,560l2,-37l51,3v4l51,2l2,3v14l-2,36v15l-6,2l-1,8l-28,-1l-14,-3l-15,1l-44,-2l3,-27Z"/><path data-name="Summit" class="geo-153" d="M601,315v-34h3l15,-1h4l-5,-11v-6h37v87l-4,3v17l-19,-1h-23v-18h-8Z"/><path data-name="Shelby" class="geo-149" d="M99,501v-6h17l1,-24h62l-1,40l-2,11l-2,22l-36,-5h-39Z"/><path data-name="Medina" class="geo-103" d="M573,281h28v70h-87v-36h17v-15h18v-18h17Z"/><path data-name="Gallia" class="geo-053" d="M467,822l21,2l1,4l41,2v9l-2,4l-4,10l-2,4v9l-3,7l-6,2l-6,5l1,7l5,7l1,3l-1,9l4,13l-3,9l-4,1h-2l-10,-1l-3,3h-14l2,-22l-23,-2l1,-14l-3,-7l-18,-2v-16l1,-2l22,2l1,-16l3,-20Z"/><path data-name="Coshocton" class="geo-031" d="M512,480h31v1h41l15,1v18h17v35h-8l-1,17h-8l-14,-1h-35l-1,-1h-27l-10,-1v-14l-2,-3l1,-42Z"/><path data-name="Wyandot" class="geo-175" d="M287,350h55v70h-35v4h-21l-4,-4h-10v-28h-4l1,-21h7v-11h4v-10Z"/><path data-name="Mercer" class="geo-107" d="M33,451v-21l1,-3v-17l16,1h47v39l-1,28l-1,22l4,1h-57l-11,-1v-18l1,-1v-13l1,-11v-6Z"/></g>
  <path class="counties-mesh" d="M267,587l1,1l-11,40l-4,17l-11,-1l-33,-7v-6l-21,-2v-3l-21,-2v-7l-19,-2l-1,-9h-59v39h-1v40h21v12l6,-1l-2,30l-1,8l-2,24l-6,-2l-29,-2v-1h-46l-6,-1M593,786l-38,-1l-20,-1l-37,-3h-7l-3,43l-21,-2l2,-24l-21,-2v-9l-22,-2l-3,-4h-18M510,532l2,3v14M432,457l-1,-21h-3v-6h3v-11l-11,-1h-7M719,45l2,90l1,5l1,34h-18v18h-30l-5,1v17h-34l-1,-11v-33l-2,-82M533,645h28l42,2M202,391v-24l1,-15v-45h42v1h42M202,433l-1,-1h-41l-2,-2l-18,-1v-7h-32v-32l11,1v-11h42v-10h21v-4l20,1M237,697l4,-40M25,689l18,1h44v-5M311,922v-95l6,1l4,5v7h21l11,1l44,2l10,1l-1,22l21,1l-3,25l-6,-1l-1,18l-12,-1v8l4,12l-13,7M311,827l-8,-9l-14,-1l7,-35l18,1l12,2h13l27,3h15l20,2l4,-1v-8l1,-7l3,-32l20,1v-2l23,1v-6l42,2l-2,22h6v21M37,283l14,1h48v12h21v37l-1,15h-53l-1,-1h-30M38,241l16,1h54l13,1v-14h35l1,1h47v17l-1,10v50h-52l-11,-1l1,-13v-50h-20M206,174v25l-2,13v18M121,229v-7h-7l1,-24l-3,-1v-21M200,770l-1,9v25l-1,20h35l2,1l-2,36l-4,39l-1,16M163,884l1,-12l7,-54l4,-35l1,-15l24,2h6v6h4l6,-11l12,-9l24,-17M392,279v8h-105v63h-7v10h-4v11h-7l-1,21h-47l-19,-1v67l4,3l51,4l10,3l-7,66l-28,-4l-14,-1v-3l-17,-1l-25,-3l2,-11l1,-40l2,-12l21,-1M725,262l-1,-37h32l3,-1h48l4,-1M813,312l-9,1h-55l-1,1h-23M726,698v-8l-17,-1h-22l-3,1v-7h-3v-24h-7v-39h39l19,2l33,1M427,867l13,1v16l18,2l3,7l-1,14l23,2l-2,22h14M235,825h14l19,-5l21,-3M342,350l16,1h31l5,-1h19v68h-24v2h-47M616,535l15,1h37v11h21v36l-1,17l-6,-1l-22,1v7l-14,-1v8l-21,-1l-1,14l-20,-1v-20h-7l1,-22v-26l1,-6M108,348v21h11v11M108,422l-11,-1v-10h-47l-16,-1M315,663l2,-28l31,1l46,3l-1,19l-1,11l-1,27l21,1l-2,21l-27,-2h-15l-3,-8h-23v-1l-30,-1M292,740l-19,-1h-21l2,-38l-1,-2l-16,-2l-19,-1l-10,-2l-28,-2l-25,-3l-25,-3l-22,-1M260,534l11,2l-2,26l-2,25l-19,-1l-22,-3l-32,-2l-23,-3l3,-34l2,-22M481,180v70l1,12v1l1,17h-43v-1h-48l-1,-18v-16h-19v-7h-69l-1,-10h-14v-29h43l4,-1l23,-39l7,-10M413,180l-11,26l7,5l23,9l-17,13l-3,1l-16,-2l-10,5l-14,1M176,768l-2,-1l1,-15l3,-27l2,-33M668,536v-22h11l1,-30l10,-1l13,1h26l11,1h14l-2,23v40h-37v-1h-26M167,617l4,-39M412,697v-3l20,1v-11l24,1v-14l22,2l-1,14l21,1v7l20,2l-1,21l-22,-1l-1,21M409,742l1,-24M99,606v-67M317,483l25,2h16v4l18,1l-1,14l34,2M413,350h25l1,1h30v42l5,4l2,3v14h7v22l1,20l-7,1h-49l1,10l-1,40l-19,-1l-1,17l-2,37l-39,-3h-5l-31,-2M88,606h-61M155,689l2,-36l2,-8v-19l8,1v-3M466,351l-1,-18h18l31,1v17h8M522,429h-17l1,23l-22,4M288,199h-28l-3,4l-4,7l-12,6l-6,6v7l-8,8l-19,11l-4,-1M724,225l-1,-25v-26M467,822v10l-3,20l-1,16l-22,-2l-1,2M670,431h-27l-33,4l-1,-7M609,369v59h-29v1h-58v-78h87v18h23l19,1v-17l4,-3M815,368l-8,1h-47v-7h-14v8h-35M711,349l-17,1h-39v-87h42v-1h28v52l1,17v18h-15v22l1,9v32h-20l-7,1l-1,18h-14v20h10v33M577,722l-39,-2v-22l3,-5l1,-37l-10,-1l1,-10l1,-11l-19,-1l2,-22l-14,-1l1,-8l6,-2v-15l2,-36l10,1h27l1,1h35l14,1h8l1,-17h8v-35h-17v-18h8v-41l3,-6M242,644l-1,13l14,1l21,3l39,2l-3,43l-11,17l-9,17l-3,13l1,17l7,-1l-1,13M358,485l1,-12l11,-2v-37h19v-14M269,562l1,1h43l11,1h7v-34h-15v-32l1,-15v-15h-31v-44h21v-4h35v-70h-55M538,698l-20,-1M478,673l1,-21l-7,-1l2,-21l-15,-1l2,-23M549,138v125h17v19h-17v18h-18v15h-17v19M483,333l-1,-33v-3l1,-17M140,306h-20M604,626l-1,21l11,1l-1,21h11l-1,19l-18,-1l-5,3l-1,11l3,1v12l-22,-3v9l-3,2l-1,29l6,7v6l18,1v13M740,485v-11h3v-22h10l1,-10h21v4h14M785,548h-33M179,471h-62l-1,24h-17v6M31,500l11,1h57l-4,-1l1,-22l1,-28v-29M655,263l-1,-18v-35M127,763l19,1l28,3M109,758l17,1l1,3v1l-1,1l-4,3l-6,6v5h7l-3,5l-2,5l-4,34M599,482l-15,-1h-41v-1h-31l1,-29l-7,1M754,442v-10h-11v-20h-31M688,620v-20M623,688l22,1v-15l4,3h7l3,7l7,2h14l1,-3M324,564l-1,10v4h-8l1,18l4,10l-5,3l2,26M268,392h4v28h10l4,4M530,839v-9l-41,-2l-1,-4M406,560l-1,18l-3,27l-5,-1v7h3l-1,13l-1,8h-3l-1,7M394,350l-1,-6v-48l-1,-9M655,263h-37v6l5,11h-4l-15,1h-3M601,351v-70h-28l-7,1M512,480l-1,10l-1,42l-51,-2v-4l-51,-3M402,605l44,2l15,-1l14,3l28,1M99,501M401,790l-2,25l-2,28M286,468h-19M287,287l1,-1v-58M99,539h39l36,5M99,501v38"/>
<g class="districts"><path data-name="Congressional District 1" class="district-3901" d="M21,788l1,-1v-35l6,1h46v1l29,2l6,2l2,-24l1,-8l2,-30l-6,1v-12l22,1l25,3l25,3l-2,33l-3,27l-1,15l-28,-3l-19,-1v-1l-8,-2v7l3,-1v1l-6,6v5h7l-3,5l-2,5l-8,6l-4,-1l-2,-8l4,-1v-9l-3,-2l3,-12h-6l-1,7l-4,3h-8l1,-8l-10,-2h-10l-2,16l8,-2l-2,4h17l-3,16l-7,4v4l-1,1h-1l-1,1h-2l-1,-1h-1v-1h-4v1h-1v2h-1v1h-1l-2,1h-3v1h-1l-4,-1h-1l-2,-2l-1,-2h-1l-1,-1h-1l-8,-7l-1,-1v-1h-1l-1,-1l-1,-1l-3,-1h-1l-3,2l-3,4v1h-1l-1,1l-4,1h-1v-10Z"/><path data-name="Congressional District 2" class="district-3902" d="M120,783l3,-5h-7v-5l6,-6v-1l-3,1v-7l8,2v1l19,1l28,3l2,1l24,2h6v6h4l6,-11l12,-9l24,-17h21l19,1l-3,13l15,1l4,5l9,1l1,-9l5,-2l7,2l-3,3l13,2l2,-5l8,-5l16,-6l6,12l6,3l-4,8l7,9l25,2l-1,7v8l-4,1l-2,25l-2,28l-44,-2l5,18l-16,-1l8,6l-1,4h-3l4,13l10,-1l-2,-9h18l-2,14h11v7l-3,-1l-10,1l-5,5h-12l-4,6v1l-2,2h-1l-3,2l-7,5l-6,9l-10,1l-4,-3l-7,2v1l-7,5l-4,-9l-7,-6l-20,-4l-9,-7l-16,4l-7,3l-2,8l-6,2l-5,-3h-2l-9,-2l-3,-12l-12,-5l-2,-9l-14,-4l-4,-4l-7,1h-2l-1,1l-2,1h-3v1h-8l-1,-1h-3l-3,-2h-1l-1,-1l-2,-1h-1l-1,-1h-5l-4,-1l-2,-1h-1l-1,-1l-2,-3v-1l-1,-1v-15l-1,-1l-1,-2l-4,-8l-1,-1v-1l-2,-1l-1,-1l-2,-11l-4,-7l-1,-1l-1,-1h-1l-4,-1l-1,-1l-5,-1h-2l-2,-1h-1l-1,-1h-1v-1l-3,-14h-1l-1,-1l-4,1l-4,3v-4l7,-4l3,-16h-17l2,-4l-8,2l2,-16h10l10,2l-1,8h8l4,-3l1,-7h6l-3,12l3,2v9l-4,1l2,8l4,1l8,-6Z"/><path data-name="Congressional District 3" class="district-3903" d="M332,595l-1,-3v-4l11,1l1,-3l5,4l-1,4h3v-1l4,6l7,-1l1,-4l-9,-3l2,-7l7,3v-30h5v7l9,-2l4,4v1l13,2l-1,4l-1,2l5,2l-11,5l-3,-4l2,8h17l2,-9l2,1l-3,27l-5,-1v7h3l-1,13l-18,2l-3,-3l-4,4l-2,1l4,3l-10,4l-10,1l2,-4h2l-2,-12l4,-4l4,13l4,-1l1,-4l2,-3l-9,-12v-7l-4,-1v9l2,4l-4,-1l-4,1l1,-5l-5,-1l-3,8h-13l-1,-10l-2,-5v-5h-1Z"/><path data-name="Congressional District 4" class="district-3904" d="M73,462l2,-4h-1l5,-4v1v-1v1v-1l2,1l3,-4l13,-1v-29l11,1v-32l11,1v-11h42v-10h21v-4l20,1v91l4,3l51,4l10,3h19v-44h21v-4h35v-70h-55v-63l1,-1v-58h14l1,10h69v7h19v16l16,1h75v1h14v-15h18l11,-2v-3l-5,-10l12,-2v47l5,2l7,-4l-4,10l-8,-4h-18v18h-32v-3h-74l-15,-1v48l1,6h19v68h-24v16h-19v2l-4,5h-9l-8,4v19h-24v1l1,3l-9,1v14l-1,15v32h15v34h-7l-11,-1h-43l-1,-1l-2,25l-19,-1l-22,-3l-32,-2l-23,-3l3,-34l-36,-5h-39v-38l-4,-1l1,-22l-22,-1l1,-15Z"/><path data-name="Congressional District 5" class="district-3905" d="M38,181v-4l22,-1h62l23,-1h32l10,-1h19l50,-2h2l-1,10h-5v8l-12,-4l-2,10l5,4h6l3,4l5,-1l3,-4h71v21h20v18h-48l-1,-10h-14v58l-1,1v63h55v70h-35v4h-21v44h-19l-10,-3l-51,-4l-4,-3v-91l-20,-1v4h-21v10h-42v11l-11,-1v32l-11,-1v29l-13,1l-3,4l-2,-1v1v-1v1v-1l-5,4h1l-2,4l-12,-2l-3,7h-5v6h-21v-5l1,-11v-27l1,-3v-62l1,-9v-25l1,-16v-24l1,-3v-31l1,-6v-59Z"/><path data-name="Congressional District 6" class="district-3906" d="M353,841l44,2l2,-28l2,-25l4,-1v-8h18l3,4l22,2v9l21,2l-2,24l21,2l3,-43h7l37,3l20,1l2,-22l25,1v-6l-6,-7l1,-29l3,-2v-9l22,3v-12l-3,-1l1,-11l5,-3l18,1l1,-19h-11l1,-21l-11,-1l1,-21v-20h-7l-8,-1h-27l-12,-1l-2,-3v-2v2l3,-9v-6h-28l-13,-1l2,-36l10,1h27l1,1h35l14,1h8l1,-17h8v-35h20v-9l9,-3v-5h15l6,1v-13l4,1l10,1v-22h-10v-20h14l1,-18l7,-1h20v-32l-1,-9v-22h15v-18h42l11,-1v18l35,-1l1,4v47l1,21v12l-9,6l-5,-3l-7,2l-6,10l8,11l1,3v1l1,4l4,6v3l-1,2v1l-1,1v1l-1,2v7l-2,2l3,4l2,17l-1,2l-2,9l-8,7l-3,12l-4,7l-1,14l-4,4l-1,1v2l1,9l-1,7v8l-4,4l1,11l-8,-2l-1,4l4,6l-2,4l-1,1h-1l-1,1l-1,1l-1,1v11l-8,7l4,7l4,5l-2,5h-1l-4,3v10l-2,6l-2,1h-6l-2,1h-1v2h-1l-10,9l-7,7l-10,11v1l-5,8l-12,7l-6,11h-11l-13,10h-7l-4,-10l-7,-6l-4,1l-6,9l-7,4l-3,2v1l-2,8v9l-10,-1h-11l-4,4v10l-4,1l-2,2l-2,4l-2,2h-1l1,2l2,4v14l-4,5l-8,-1l-1,5l9,10l-3,13l5,7l-6,3l-4,-5l-4,1l-3,8v2l-1,2l-1,1l-7,3l-3,-2v-8l3,-4l-8,-14h-8v-1l-1,-3v-2l-2,-2l-1,-1h-3l-4,1v3l-2,3v2h-1l-2,2l-1,1l-5,4l-2,4l-4,10l-2,4v9l-3,7l-6,2l-6,5l1,7l5,7l1,3l-1,9l4,13l-3,9l-4,1h-2l-10,-1l-3,3l-3,22l-5,12l-15,1l-5,2l-3,1l-6,2l-1,1l-5,2l-4,1h-4l-6,-3l-2,-12l-5,-5h-3l-1,-1l-1,-1h-1v-1h-1v-2l-1,-1l-1,-1l-2,-4l-3,-4l-3,-2h-1l-1,-1h-3l-4,-1l-2,1h-2v-1h-4v-1h-1l-1,-1h-1l-1,-1v-1h-1l-1,-1l-1,-1l-1,-1v-3l-1,-3v-7l-4,-9l1,-15v-7h-11l2,-14h-18l2,9l-10,1l-4,-13h3l1,-4l-8,-6l16,1Z"/><path data-name="Congressional District 7" class="district-3907" d="M393,296l15,1h74v3h32v-18h18l8,4l4,-10l-7,4l-5,-2v-45h17v30h17v19l7,-1v10l3,5l8,-2v5l-18,1l1,11h-5l-2,4l1,6h15l-2,-6h10v18l-12,1h-23v17h-27v78h58v-1h29v-38l34,1l3,5v11h4v-23l8,-3v-11h3l1,-16v-4h32l-1,20l11,1v2l7,-2l1,9v32h-20l-7,1l-1,18h-14v20h10v22l-10,-1l-4,-1v13l-6,-1h-15v5l-9,3v9h-20v35h-8l-1,17h-8l-14,-1h-35l-1,-1h-27l-10,-1v-14l-2,-3l-51,-2v-4l-51,-3l1,-17l19,1l1,-40l-1,-10h49l7,-1l-1,-20h-20l-1,-22h-6l4,-12h-5l2,-9l-6,-6l-5,6l-3,8l-2,-5v19h-21v3h-7v-68h-19l-1,-6v-27Z"/><path data-name="Congressional District 8" class="district-3908" d="M22,749v-13h1v-14l1,-10v-9l1,-14v-18l1,-16v-34l1,-15v-15l1,-3l1,-31v-2l1,-3v-36l1,-2v-32l1,-1v-8h21v-6h5l3,-7l12,2h2l-1,15l22,1l-1,22l4,1v38h39l36,5l-3,34l23,3l32,2l22,3l19,1l1,1l-11,40l-4,17l-11,-1l-33,-7v-6l-21,-2v-3l-21,-2v-7l-19,-2l-1,-9h-59v39h-1v40h21v12l6,-1l-2,30l-1,8l-2,24l-6,-2l-29,-2v-1h-46l-6,-1Z"/><path data-name="Congressional District 9" class="district-3909" d="M258,172h30l56,-53l7,22l57,36l5,3l8,6h51l109,-68l2,110l3,7h7l7,3l1,7v9l-7,2l-11,-9v8h-10v6l-3,2l-7,-4l3,-3l-1,-7l5,-2l7,-11l-1,-3h-44v-2l-12,2l5,10v3l-11,2h-18v15h-14v-1h-75l-16,-1v-16h-19v-7h-21v-18h-20v-21h-71l-3,4l-5,1l-3,-4h-6l-5,-4l2,-10l12,4v-8h5Z"/><path data-name="Congressional District 10" class="district-3910" d="M88,606h59l1,9l19,2v7l21,2v3l21,2v6l33,7l-1,13l14,1l21,3l39,2l-3,43l-10,-5l-10,2l-3,3h-15v-3l-6,1v-7l-11,3l-4,-1l-16,-2l-19,-1l-10,-2l-28,-2l-25,-3l-25,-3l-22,-1h-21v-40h1Z"/><path data-name="Congressional District 11" class="district-3911" d="M597,107h2l21,-15l13,-8l2,82v33l1,11v8h-3l-2,9l14,-1l1,11l-4,1l1,7h-7v11l7,2v5h-12l-4,-8h-8l-10,-8l-4,3v13h4v9h-5v9l15,-1v32l-1,1l6,2l2,3l-7,1l4,5l16,1l2,5l-7,-3l-1,6l5,-2l5,10l-8,-1v-5l-8,1l1,-3h-5l-4,4v-11l-3,-5h-7l2,-6h-10v-34h-3l-1,-18h4v-18l-1,-7l-7,-3h-7l-3,-7l-2,-110Z"/><path data-name="Congressional District 12" class="district-3912" d="M317,483v-14l9,-1l-1,-3v-1h24v-19l8,-4h9l4,-5v-2h19v-16h31v-3h21v-19l2,5l3,-8l5,-6l6,6l-2,9h5l-4,12h6l1,22h20l1,20l-7,1h-49l1,10l-1,40l-19,-1l-1,17l51,3v4l51,2l2,3v14l-2,36l13,1h28v6l-3,9v-2v2l2,3l12,1h27l8,1h7v20l-1,21l-42,-2h-28l1,-11l-19,-1l2,-22l-14,-1l-28,-1l-14,-3l-15,1l-44,-2l3,-27l-2,-1l-2,9h-17l-2,-8l3,4l11,-5l-5,-2l1,-2l1,-4l-13,-2v-1l-4,-4l-9,2v-7h-5v30l-7,-3l-2,-15h-7l2,-5l-6,3v6l-2,1v-1v1v-1l-5,3l-12,-2l1,-10h7v-34h-15v-32Z"/><path data-name="Congressional District 13" class="district-3913" d="M612,344l7,-7l4,-4h5l-1,3l8,-1v5l8,1l-5,-10l-5,2l1,-6l7,3l-2,-5l-16,-1l-4,-5l7,-1l-2,-3l-6,-2l1,-1v-32h4l6,2l2,11h6v5h-7l-2,11l3,-2l2,6l4,-7l4,2l3,9l11,-2v-35h16v18l19,-1v-17h35v-18l15,-1h27l10,-1l2,-3l-1,11v11h17l-1,-19l15,-1l3,5l1,20v28l1,29v6l-35,1v-18l-11,1h-42v18h-15v22l-7,2v-2l-11,-1l1,-20h-3v-18h18l-1,-18l-2,1h-44l1,6l-8,2v8l-4,3l4,3v4l-8,-1l-4,3l-3,5l-6,3h-17l-3,-3l-6,2Z"/><path data-name="Congressional District 14" class="district-3914" d="M609,247l10,8h8l4,8h12v-5l-7,-2v-11h7l-1,-7l4,-1l-1,-11l-14,1l2,-9h3v-8l-1,-11v-33l-2,-82l45,-28l128,-31l1,39l1,44v11l1,6v28l1,19l1,15v57l1,20l-3,-5l-15,1l1,19h-17v-11l1,-11l-2,3l-10,1h-27l-15,1v18h-35v17l-19,1v-18h-16v35l-11,2l-3,-9l-4,-2l-4,7l-2,-6l-3,2l2,-11h7v-5h-6l-2,-11l-6,-2h-4l-15,1v-9h5v-9h-4v-13Z"/><path data-name="Congressional District 15" class="district-3915" d="M174,767l1,-15l3,-27l2,-33l28,2l10,2l19,1l16,2l4,1l11,-3v7l6,-1v3h15l3,-3l10,-2l10,5l3,-43l-39,-2l-21,-3l-14,-1l1,-13l11,1l4,-17l11,-40l-1,-1l2,-25l1,1h43l11,1l-1,10l12,2l5,-3v1v-1v1l2,-1v-6l6,-3l-2,5h7l2,15l-2,7l9,3l-1,4l-7,1l-4,-6v1h-3l1,-4l-5,-4l-1,3l-11,-1v4l1,3l-2,1h1v5l2,5l1,10h13l3,-8l5,1l-1,5l4,-1l4,1l-2,-4v-9l4,1v7l9,12l-2,3l-1,4l-4,1l-4,-13l-4,4l2,12h-2l-2,4l10,-1l10,-4l-4,-3l2,-1l4,-4l3,3l18,-2l1,-13h-3v-7l5,1l44,2l15,-1l14,3l28,1l14,1l-2,22l19,1l-1,11h28l42,2l11,1l-1,21h11l-1,19l-18,-1l-5,3l-1,11l3,1v12l-22,-3v9l-3,2l-1,29l6,7v6l-25,-1l-2,22l-20,-1l-37,-3h-7l-3,43l-21,-2l2,-24l-21,-2v-9l-22,-2l-3,-4h-18l1,-7l-25,-2l-7,-9l4,-8l-6,-3l-6,-12l-16,6l-8,5l-2,5l-13,-2l3,-3l-7,-2l-5,2l-1,9l-9,-1l-4,-5l-15,-1l3,-13l-19,-1h-21l-24,17l-12,9l-6,11h-4v-6h-6l-24,-2Z"/><path data-name="Congressional District 16" class="district-3916" d="M522,351h27v-17h23l12,-1v-18h-10l2,6h-15l-1,-6l2,-4h5l-1,-11l18,-1v-5l-8,2l-3,-5v-10l-7,1v-19h-17v-30h27l1,3l-7,11l-5,2l1,7l-3,3l7,4l3,-2v-6h10v-8l11,9l7,-2v9h-4l1,18h3v34h10l-2,6h7l3,5v11l-7,7l-4,6l6,-2l3,3h17l6,-3l3,-5l4,-3l8,1v-4l-4,-3l4,-3v-8l8,-2l-1,-6h44l2,-1l1,18h-18v18h-29v4l-1,16h-3v11l-8,3v23h-4v-11l-3,-5l-34,-1v38h-29v1h-58v-55Z"/></g>
  <path class="districts-mesh" d="M79,454l2,1l3,-4l13,-1v-29l11,1v-32l11,1v-11h42v-10h21v-4l20,1v91l4,3l51,4l10,3h19v-44h21v-4h35v-70h-55v-63l1,-1v-58h14l1,10h69v7h19v16l16,1h75v1h14v-15h18l11,-2v-3l-5,-10l12,-2v47l5,2l7,-4l-4,10l-8,-4h-18v18h-32v-3h-74l-15,-1v48l1,6h19v68h-24v16h-19v2l-4,5h-9l-8,4v19h-24v1l1,3l-9,1v14l-1,15v32h15v34h-7l-11,-1h-43l-1,-1l-2,25l-19,-1l-22,-3l-32,-2l-23,-3l3,-34l-36,-5h-39v-38l-4,-1l1,-22l-22,-1l1,-15h-2l2,-4h-1l5,-4v1M174,767l-28,-3l-19,-1v-1l-8,-2v7l3,-1v1l-6,6v5h7l-3,5l-2,5l-8,6l-4,-1l-2,-8l4,-1v-9l-3,-2l3,-12h-6l-1,7l-4,3h-8l1,-8l-10,-2h-10l-2,16l8,-2l-2,4h17l-3,16l-7,4v4M258,172l-1,10h-5v8l-12,-4l-2,10l5,4h6l3,4l5,-1l3,-4h71v21h20v18M73,462l-12,-2l-3,7h-5v6h-21M22,752l6,1h46v1l29,2l6,2l2,-24l1,-8l2,-30l-6,1v-12l22,1l25,3l25,3l-2,33l-3,27l-1,15l2,1l24,2h6v6h4l6,-11l12,-9l24,-17h21l19,1l-3,13l15,1l4,5l9,1l1,-9l5,-2l7,2l-3,3l13,2l2,-5l8,-5l16,-6l6,12l6,3l-4,8l7,9l25,2l-1,7v8l-4,1l-2,25l-2,28l-44,-2l5,18l-16,-1l8,6l-1,4h-3l4,13l10,-1l-2,-9h18l-2,14h11v7M405,781h18l3,4l22,2v9l21,2l-2,24l21,2l3,-43h7l37,3l20,1l2,-22l25,1v-6l-6,-7l1,-29l3,-2v-9l22,3v-12l-3,-1l1,-11l5,-3l18,1l1,-19h-11l1,-21l-11,-1l1,-21v-20h-7l-8,-1h-27l-12,-1l-2,-3v-2v2l3,-9v-6h-28l-13,-1l2,-36l10,1h27l1,1h35l14,1h8l1,-17h8v-35h20v-9l9,-3v-5h15l6,1v-13l4,1l10,1v-22h-10v-20h14l1,-18l7,-1h20v-32l-1,-9v-22h15v-18h42l11,-1v18l35,-1M532,233h17v30h17v19l7,-1v10l3,5l8,-2v5l-18,1l1,11h-5l-2,4l1,6h15l-2,-6h10v18l-12,1h-23v17h-27v78h58v-1h29v-38l34,1l3,5v11h4v-23l8,-3v-11h3l1,-16v-4h32l-1,20l11,1v2l7,-2M512,549v-14l-2,-3l-51,-2v-4l-51,-3l1,-17l19,1l1,-40l-1,-10h49l7,-1l-1,-20h-20l-1,-22h-6l4,-12h-5l2,-9l-6,-6l-5,6l-3,8l-2,-5v19h-21v3h-7M267,587l1,1l-11,40l-4,17l-11,-1l-33,-7v-6l-21,-2v-3l-21,-2v-7l-19,-2l-1,-9h-59v39h-1v40h21M581,118l2,110l3,7h7l7,3l1,7v9l-7,2l-11,-9v8h-10v6l-3,2l-7,-4l3,-3l-1,-7l5,-2l7,-11l-1,-3h-27M242,644l-1,13l14,1l21,3l39,2l-3,43l-10,-5l-10,2l-3,3h-15v-3l-6,1v-7l-11,3l-4,-1l-16,-2l-19,-1l-10,-2l-28,-2M633,84l2,82v33l1,11v8h-3l-2,9l14,-1l1,11l-4,1l1,7h-7v11l7,2v5h-12l-4,-8h-8l-10,-8l-4,3v13h4v9h-5v9l15,-1v32l-1,1l6,2l2,3l-7,1l4,5l16,1l2,5l-7,-3l-1,6l5,-2l5,10l-8,-1v-5l-8,1l1,-3h-5l-4,4v-11l-3,-5h-7l2,-6h-10v-34h-3l-1,-18h4v-9M603,647l-42,-2h-28l1,-11l-19,-1l2,-22l-14,-1l-28,-1l-14,-3l-15,1l-44,-2M355,584l-2,-15h-7l2,-5l-6,3v6l-2,1v-1l-5,3l-12,-2l1,-10M691,350v-18h18l-1,-18l-2,1h-44l1,6l-8,2v8l-4,3l4,3v4l-8,-1l-4,3l-3,5l-6,3h-17l-3,-3l-6,2l4,-6l7,-7M619,280h4l6,2l2,11h6v5h-7l-2,11l3,-2l2,6l4,-7l4,2l3,9l11,-2v-35h16v18l19,-1v-17h35v-18l15,-1h27l10,-1l2,-3l-1,11v11h17l-1,-19l15,-1l3,5M334,616l-1,-10l-2,-5v-5h-1l2,-1l-1,-3v-4l11,1l1,-3l5,4l-1,4h3v-1l4,6l7,-1l1,-4l-9,-3l2,-7l7,3v-30h5v7l9,-2l4,4v1l13,2l-1,4l-1,2l5,2l-11,5l-3,-4l2,8h17l2,-9l2,1l-3,27l-5,-1v7h3l-1,13l-18,2l-3,-3l-4,4l-2,1l4,3l-10,4l-10,1l2,-4h2l-2,-12l4,-4l4,13l4,-1l1,-4l2,-3l-9,-12v-7l-4,-1v9l2,4l-4,-1l-4,1l1,-5l-5,-1l-3,8h-13M79,454v1"/>
</svg>