<?xml version="1.0" encoding="utf-8"?>
<!DOCTYPE svg PUBLIC "-//W3C//DTD SVG 1.1//EN" "http://www.w3.org/Graphics/SVG/1.1/DTD/svg11.dtd">
<svg version="1.1" xmlns="http://www.w3.org/2000/svg" width="1000" height="750" viewBox="0 0 1000 750">
  <path class="state" d="M187,46l14,1l4,-6l5,-2h6l1,1v1l5,3l1,1l2,1l3,2l7,6l4,2l2,4v1l1,5l7,12l1,2l-1,4l1,5l2,5v9l2,6v19l6,3l2,2h1l3,2l19,5l2,1l6,2l3,-1l4,1l1,1l1,1l1,1h9l14,-6l10,-4l10,-4v-1h4l1,-1l4,-6l3,-1l4,-2l6,2h5l8,-1l7,-1l7,-3l5,3l5,2l3,1l4,-1l4,-1l6,4l10,3v7l1,2h6l2,-3l3,-2h1l1,-2l11,1l2,-1h2l3,1l1,1h2l2,-2l5,-4l8,-2l4,-2l4,-2l1,-1h1l5,-4l9,2l8,6l10,-1l13,-3l9,-1l2,-4l2,-2l12,-4l2,-1l5,-3l11,-3l5,-1l22,-4l5,-8l3,-2l2,-1l7,2h2l8,-1l7,-1h2l3,-2h1l6,-1h3l11,1h2l2,-1l18,-10l2,-1h4l26,-1h57l3,-1h21l5,-1h50l1,-1h14l2,-1h15l11,-1h20l5,6l1,7l9,8l1,6h8l6,7h4l1,-1l10,7l1,10l8,7l1,5l-6,7v1h-1v3h-1v3l-1,1h-1v9h-1v1h-2v2h-1v5h-1l-1,1v1h-1v1l-1,1v2h-1v2h-1v4l-1,1v1l-1,1v4l1,1v2h-1v1h-1v2h-1v2l-1,1v7h-1v4h-1v6h-1l-1,1v2h-1v2h-2l-1,1v5h-1v1h-1v2l-1,1h-1v1l-1,1h-1v3h-1h1v4h-1v2l-1,1h1v1l2,-1v1h-1v2h-1h1v3l1,1v1l-1,1v6l-1,1v1h-1v1h-1v2h-2l-1,1h1v1l-1,1l-5,10h-1v1h-2v1h-1v1h-1v1h-3v1h-1l-1,1l-1,1v1l-1,1h-1h1v2l-1,1h1l-1,1v1h-1v2h-1v1h1v1l-1,1h-1v5h-1v2h-1v1h-1v7h-1l-1,1l-1,1v1h1v3h-1v1l-1,1v1h-2v1h-1l-1,1v3h-1v1h-1v1h-1v1l1,1v2h1v6h-1v3h-1v1h-1v3h1v2h2v1l1,1v1h1v2h1h-1v2h-1v2h-1v5h1l1,1h1v1l1,1h2l5,-2v-1h3l1,1v2h1l1,1v1h2v3l3,-4l1,1h6v8h5l2,2h1l2,2v1l-6,12h-3v7l2,1h1l1,1l1,1v3l-1,1v1l1,2l-1,1l-3,2l2,2l-1,1v2l1,1v2h-2v1h-1l1,1v4l-1,1l1,1l-1,1h-3l-1,1v1l1,1v1h-1l-1,1v1l1,1v2l-1,1h1v20l1,5v22l1,23h1v22l3,45l1,22v21l1,1v22l2,45l2,22v23l1,2l-60,3l-25,1l-58,2h-18l-19,1h-17l-6,1h-20l-29,1h-35l-16,1h-211l-1,-1l-10,1h-1l-13,-1h-16l-2,-1h-17l-21,-1h-16l-9,-1h-9l-14,-1h-60l-23,-1h-10l-5,-1h-62l-1,-1v1h-11l-2,-1h-17l-12,-1h-4l-6,-1h-19l-10,-9l-7,-9v-14l-5,-10l1,-8l-2,-8l1,-25l5,-10l-2,-17l-5,-3l-1,-8l-6,-2l-1,-11l-3,-5l2,-7l8,-12l4,-10l3,-17l4,-11l2,-10l-1,-11l7,-6l3,2l7,-12l5,-1v8l6,3l-6,-13l-11,7l5,-11l6,-15l2,-10l1,-7l7,-6h-5l4,-13l2,-14l2,-13l3,-21v-11l2,-4l1,-18v-1l4,-16l1,-21l5,-19l4,7v-8l-5,-1l-2,-7l3,-6l-1,-14l4,-16l3,1l-1,-11l3,-14h1h-1l5,-20v-11l2,-7l-2,-10l2,-6l4,-3v-5l-4,-5l3,-11l7,10l2,-6l-4,-9l-5,-2l4,-20l4,1l-10,-13l2,-4l1,-21l-3,-5l7,-8v-16l-3,-13l-4,-7h5l6,8l8,2l-3,-5h13v3h12l6,-2l5,-8h6l6,5l1,7Z"/>
<g class="geos"><path data-name="Wallowa" class="geo-063" d="M800,93v-23h2l5,-1h50l1,-1h14l2,-1h15l11,-1h20l5,6l1,7l9,8l1,6h8l6,7h4l1,-1l10,7l1,10l8,7l1,5l-6,7v1h-1v3h-1v3l-1,1h-1v9h-1v1h-2v2h-1v5h-1l-1,1v1h-1v1l-1,1v2h-1v2h-1v4l-1,1v1l-1,1v4l1,1v2h-1v1h-1v2h-1v2l-1,1v7h-1v4h-1v6h-1l-1,1v2h-1v2h-2l-1,1v4l-26,2h-30v-14l-25,1v-7h-5v-9l-8,-7v-4h-7l-2,-4v-11l-3,1v-15l-6,-2v-15l-5,-11h-3v-14h5l-1,-14Z"/><path data-name="Crook" class="geo-013" d="M526,309v21h42v8h15v13h28v47l1,10h-14v43h-57v-14h-14v-14h-44v-14l-28,-1v-28l-13,-1l-1,-13v-28h14v-14h19v-15Z"/><path data-name="Clackamas" class="geo-005" d="M255,163l4,1l7,-1l-2,-3h17l50,1h30l5,10l8,4l2,12l-2,8l2,1l-3,6l-4,1l2,6l3,8h4v9l-6,5h-8l-3,4l1,12h5l5,5l-2,4l-9,-1h-39l-2,-1h-28l-15,-8v-1l-1,-2l-2,-2l-1,-3l-3,-6l-8,-3l-6,-6l-4,-7h-1v-1h-1l-1,-1l-1,-1h1v-1v1v-1l1,-2l2,-5l3,-13l-12,-2l-2,2l-1,-10l2,-4l13,2Z"/><path data-name="Clatsop" class="geo-007" d="M187,46v37h-1v22l-42,-1l-5,-2l-22,-1l1,-21l-3,-5l7,-8v-16l-3,-13l-4,-7h5l6,8l8,2l-3,-5h13v3h12l6,-2l5,-8h6l6,5l1,7Z"/><path data-name="Klamath" class="geo-035" d="M410,730l-13,-1h-16l-2,-1h-17l-21,-1h-16l-9,-1h-9l-12,-1l1,-12v-64h1v-35h1v-37l1,-13v-12h23l5,-16l2,-8l7,-6l-3,-5v-10l-6,-5v-5l-9,-5l1,-20l16,-9h32v1h46v43h-1v37h-1v62l27,1h29v123h-45l-1,-1l-10,1Z"/><path data-name="Morrow" class="geo-049" d="M569,105l11,-3l5,-1l22,-4l5,-8l3,-2l2,-1l7,2h2l8,-1v51h22v15l12,-1v65l-1,20l-22,1h-37l-14,1v-12l4,-2v-15h-14v-15h-15v-42l1,-18l-1,-3Z"/><path data-name="Jackson" class="geo-029" d="M299,564l-1,13v37h-1v35h-1v64l-1,12h-62l-23,-1h-10l-5,-1h-15l1,-20v-26l1,-1v-26l1,-7v-22l1,-12l10,-8h17l11,-2l15,-1l2,-8l5,1l8,-10h5l9,-7v-2l11,1l8,-9Z"/><path data-name="Multnomah" class="geo-051" d="M235,116h16l3,-1v13l6,3l2,2h1l3,2l19,5l2,1l6,2l3,-1l4,1l1,1l1,1l1,1h9l14,-6l10,-4l10,-4v-1h4l2,14l-1,6l4,2l6,8h-30l-50,-1h-17l2,3l-7,1l-4,-1v-13l-12,-10v-3l-8,-7Z"/><path data-name="Baker" class="geo-001" d="M886,217h30l26,-2v1h-1v1h-1v2l-1,1h-1v1l-1,1h-1v3h-1h1v4h-1v2l-1,1h1v1l2,-1v1h-1v2h-1h1v3l1,1v1l-1,1v6l-1,1v1h-1v1h-1v2h-2l-1,1h1v1l-1,1l-5,10h-1v1h-2v1h-1v1h-1v1h-3v1h-1l-1,1l-1,1v1l-1,1h-1h1v2l-1,1h1l-1,1v1h-1v2h-1v1h1v1l-1,1h-1v5h-1v2h-1v1h-1v7h-1l-1,1l-1,1v1h1v3h-1v1l-1,1v1h-2v1h-1l-1,1v3h-1v1h-1v1h-1v1l1,1v2h1v6h-1v3h-1v1h-1v3h1v2h2v1l1,1v1h1v2h1h-1v2h-1v2h-1v2h-15l-17,1v-14l-6,-5l-4,1l-2,-5l-45,1l-9,10l-4,10h-3l-5,9l-8,3l-32,1v-6l7,-12l3,-1l-3,-7l1,-7l7,-3l-1,-10h1l5,-6v-6l-4,-5h-7l-1,-2l-11,-2l-1,-6l15,-5l1,-2l11,-2v-3l-1,-3l-3,-8l2,-4h8v-13l-2,-3l3,-8l13,-6l5,5l11,2l6,-5l1,-2l2,-4l5,2l4,3l2,2l1,4l25,-1v-14Z"/><path data-name="Benton" class="geo-003" d="M204,279l9,12l-12,2l-3,5l1,3l-8,2v7l5,3v11l-4,19l7,7h-34l-25,-1l-11,-1v-6h-5v-4h10l3,-2l-1,-12h15v-22l1,-25h16l19,2Z"/><path data-name="Marion" class="geo-047" d="M241,192l2,-2l12,2l-3,13l-2,5l-1,2v1v-1v1h-1l1,1l1,1h1v1h1l4,7l6,6l8,3l3,6l1,3l2,2l1,2v1l15,8h28l2,1h39l9,1l-3,8l-8,4l1,4l6,3l-3,3l-2,3l1,6l-1,2l-27,-1l-5,-2l-9,-4l-8,4l-6,-9l-7,-1h-22v-2l-10,-5l-11,2l-10,-3l-7,3l-10,10l-9,4v-6l-5,-5h-10l2,-7l5,-3l-11,-4l4,-4l5,-12l8,-2v-7l-3,-1l1,-13l8,-6l-4,-5l4,-13v-7l5,-3l2,3Z"/><path data-name="Grant" class="geo-023" d="M608,238h37l22,-1l38,-1h37l9,1v4l11,-4l1,2l11,2l2,3v13h-8l-2,4l3,8l1,3v3l-11,2l-1,2l-15,5l1,6l11,2l1,2h7l4,5v6l-5,6h-1l1,10l-7,3l-1,7l3,7l-3,1l-7,12v6l32,-1l1,12v23l-3,1h-32l-7,-1l-28,1l1,14l-19,1h-40l-1,1h-39l-1,-10v-131h-3Z"/><path data-name="Coos" class="geo-011" d="M72,455l41,2l-1,16h7v14h5l-1,29l7,1v27h-8v15l-7,-1v34l-14,2v6l-9,8h-11l-6,3v-12h-2v-15h3l-3,-9l-10,-12l-27,-1l4,-10l3,-17l4,-11l2,-10l-1,-11l7,-6l3,2l7,-12l5,-1v8l6,3l-6,-13l-11,7l5,-11l6,-15l2,-10Z"/><path data-name="Linn" class="geo-043" d="M201,293l12,-2l-9,-12l1,-5h10l5,5v6l9,-4l10,-10l7,-3l10,3l11,-2l10,5v2h22l7,1l6,9l8,-4l9,4l5,2l27,1v19l-2,8l-4,5v32l3,5h-60l-3,7l-10,-2h-8l-16,-5l-1,-4l-8,-3h-16v5l-5,-1l-1,10l-31,-1l2,-6l-2,-8l-7,-7l4,-19v-11l-5,-3v-7l8,-2l-1,-3Z"/><path data-name="Lake" class="geo-037" d="M413,464h40l2,1h129l1,2v69h-5l1,10v33h-2v22l1,6l7,-1h62v49h1v51h1v23l-25,1h-159v-123h-29l-27,-1v-62h1v-37h1Z"/><path data-name="Wheeler" class="geo-069" d="M528,267l-10,-7l2,-3l-5,-7l-2,-23h81v12l14,-1v29h3v84h-28v-13h-15v-8h-42v-55l-2,-4Z"/><path data-name="Malheur" class="geo-045" d="M780,391v-23l-1,-12l8,-3l5,-9h3l4,-10l9,-10l45,-1l2,5l4,-1l6,5v14l17,-1h15v3h1l1,1h1v1l1,1h2l5,-2v-1h3l1,1v2h1l1,1v1h2v3l3,-4l1,1h6v8h5l2,2h1l2,2v1l-6,12h-3v7l2,1h1l1,1l1,1v3l-1,1v1l1,2l-1,1l-3,2l2,2l-1,1v2l1,1v2h-2v1h-1l1,1v4l-1,1l1,1l-1,1h-3l-1,1v1l1,1v1h-1l-1,1v1l1,1v2l-1,1h1v20l1,5v22l1,23h1v22l3,45l1,22v21l1,1v22l2,45l2,22v23l1,2h-14l-31,3l-40,1l-58,2l-1,-16v-30h-3v-29l-1,-1v-29h-1v-31l-1,-14l-2,-2v-35h-1v-34l-2,-20v-86Z"/><path data-name="Tillamook" class="geo-057" d="M117,101l22,1l5,2l42,1l-1,11h-14v5l11,10l10,2l-3,5h-5v5l-4,-1l-7,9l-1,10l-1,36l-18,-2h-19l-1,23h7v5l-32,-1h-1l5,-20v-11l2,-7l-2,-10l2,-6l4,-3v-5l-4,-5l3,-11l7,10l2,-6l-4,-9l-5,-2l4,-20l4,1l-10,-13Z"/><path data-name="Lane" class="geo-039" d="M81,415l2,-13l3,-21v-11l2,-4l1,-18v-1l3,1h37l11,1l25,1h34l2,8l-2,6l31,1l1,-10l5,1v-5h16l8,3l1,4l16,5h8l10,2l3,-7h60l4,5l1,23l-8,7l1,8l-3,5l-1,9h-8l-6,8l1,17l-1,11l-3,12l-16,9l-1,20l-34,-2h-38v-18h-43v-10l-3,-1v-28l-24,-1l-2,-5h-13v-4h-6v-6h-6v-4h-5v-5l-9,-5h-14l-10,7l-3,5Z"/><path data-name="Union" class="geo-061" d="M800,93l26,-1l1,14h-5v14h3l5,11v15l6,2v15l3,-1v11l2,4h7v4l8,7v9h5v7l25,-1v14l-34,2v14l-25,1l-1,-4l-2,-2l-4,-3l-5,-2l-2,4l-1,2l-6,5l-11,-2l-5,-5l-13,6l-3,8l-11,-2l-1,-2l-11,4v-4l-9,-1v-14h-4v-19h-13v-10h-4l-1,-14l9,1v-2l22,-1l-1,-12l27,-1v-7h9l-1,-7v-29h6l-1,-14h3v-7h7Z"/><path data-name="Douglas" class="geo-019" d="M72,455l1,-7l7,-6h-5l4,-13l2,-14h27l3,-5l10,-7h14l9,5v5h5v4h6v6h6v4h13l2,5l24,1v28l3,1v10h43v18h38l34,2l9,5v5l6,5v10l3,5l-7,6l-2,8l-5,16h-23v12h-14l-8,9l-11,-1v2l-9,7h-5l-8,10l-5,-1l-2,8l-15,1l-11,2h-17l-10,8l-5,-5h-16l-4,4l-13,-2l-4,-5h-16v-7l-6,-3l-5,1v-34l7,1v-15h8v-27l-7,-1l1,-29h-5v-14h-7l1,-16Z"/><path data-name="Columbia" class="geo-009" d="M187,46l14,1l4,-6l5,-2h6l1,1v1l5,3l1,1l2,1l3,2l7,6l4,2l2,4v1l1,5l7,12l1,2l-1,4l1,5l2,5v9l2,6v6l-3,1h-16l-12,-5l-2,-5l-35,-1v-22h1Z"/><path data-name="Hood River" class="geo-027" d="M388,121l7,-3l5,3l5,2v30h-5l-1,14v28h-25l2,-8l-2,-12l-8,-4l-5,-10l-6,-8l-4,-2l1,-6l-2,-14l1,-1l4,-6l3,-1l4,-2l6,2h5l8,-1Z"/><path data-name="Harney" class="geo-025" d="M584,465v-14h14v-43h53l1,-1h40l19,-1l-1,-14l28,-1l7,1h32l3,-1l1,8v86l2,20v34h1v35l2,2l1,14v31h1v29l1,1v29h3v30l1,16h-18l-19,1h-17l-6,1h-20l-13,1h-49v-23h-1v-51h-1v-49h-62l-7,1l-1,-6v-22h2v-33l-1,-10h5v-69Z"/><path data-name="Lincoln" class="geo-041" d="M107,222h1l32,1l-1,13v21l-1,17l2,3h12l-1,25v22h-15l1,12l-3,2h-10v4h5v6h-37l-3,-1l4,-16l1,-21l5,-19l4,7v-8l-5,-1l-2,-7l3,-6l-1,-14l4,-16l3,1l-1,-11Z"/><path data-name="Josephine" class="geo-033" d="M110,624l1,-6l10,-17l5,-7v7h16l4,5l13,2l4,-4h16l5,5l-1,12v22l-1,7v26l-1,1v26l-1,20h-47l-1,-1v1h-11l-2,-1h-11l-3,-7l3,-12l-3,-5l5,-3l1,-13l-3,-12l-5,-6l-17,-3l-2,-3l4,-5l1,-14h14Z"/><path data-name="Gilliam" class="geo-021" d="M495,117l2,-1l9,2l7,6l11,-1l13,-3l9,-1l2,-4l2,-2l12,-4l2,-1l5,-3v27l1,3l-1,18v42h15v15h14v15l-4,2h-81l-1,-2l6,-10l-4,-9l-5,-1l-3,-8l2,-3l1,-22l5,-2l-1,-9l5,-2l11,-5l-6,-7v-7l-8,-5l-2,-4l-6,-3l-2,-4l-10,-5Z"/><path data-name="Deschutes" class="geo-017" d="M441,338v28l1,13l13,1v28l28,1v14h44v14h14v14h43v14h-129l-2,-1h-86v-1h-32l3,-12l1,-11l-1,-17l6,-8h8l1,-9l3,-5l-1,-8l8,-7l-1,-23l-4,-5l-3,-5v-17h47l1,1h29Z"/><path data-name="Polk" class="geo-053" d="M140,223v-5l21,2h19l36,1l-1,13l3,1v7l-8,2l-5,12l-4,4l11,4l-5,3l-2,7l-1,5h-17l-19,-2h-28l-2,-3l1,-17v-21Z"/><path data-name="Wasco" class="geo-065" d="M371,209l-2,-6l4,-1l3,-6l-2,-1h25v-28l1,-14h5v-30l3,1l4,-1l4,-1l6,4l10,3v7l1,2h6l2,-3l3,-2h1l1,-2l11,1l2,-1h2l3,1l1,1l1,10l3,9l4,1v3l-3,7v11l-12,11l-6,2v14l4,4h14l18,14l-2,6h26l1,2l2,23l5,7l-2,3l10,7h-114l-1,-1h-42l-4,-2l3,-8l2,-4l-5,-5h-5l-1,-12l3,-4h8l6,-5v-9h-4Z"/><path data-name="Sherman" class="geo-055" d="M473,153l-4,-1l-3,-9l-1,-10h2l2,-2l5,-4l8,-2l4,-2l4,-2l1,-1h1l3,-3v2l10,5l2,4l6,3l2,4l8,5v7l6,7l-11,5l-5,2l1,9l-5,2l-1,22l-2,3l3,8l5,1l4,9l-6,10h-26l2,-6l-18,-14h-14l-4,-4v-14l6,-2l12,-11v-11l3,-7Z"/><path data-name="Yamhill" class="geo-071" d="M172,161l38,1l2,5l9,1l7,9l8,1v4h4l1,10l-10,-2l-2,-3l-5,3v7l-4,13l4,5l-8,6l-36,-1h-19l-21,-2h-7l1,-23h19l18,2Z"/><path data-name="Curry" class="geo-015" d="M36,562l27,1l10,12l3,9h-3v15h2v12l6,-3h11l9,-8v-6l14,-2l5,-1l6,3l-5,7l-10,17l-1,6l-7,15h-14l-1,14l-4,5l2,3l17,3l5,6l3,12l-1,13l-5,3l3,5l-3,12l3,7h-6l-12,-1h-4l-6,-1h-19l-10,-9l-7,-9v-14l-5,-10l1,-8l-2,-8l1,-25l5,-10l-2,-17l-5,-3l-1,-8l-6,-2l-1,-11l-3,-5l2,-7l8,-12Z"/><path data-name="Umatilla" class="geo-059" d="M667,84h2l2,-1l18,-10l2,-1h4l26,-1h57l3,-1h19v30h-7v7h-3l1,14h-6v29l1,7h-9v7l-27,1l1,12l-22,1v2l-9,-1l1,14h4v10h13v19h4v14h-37l-38,1l1,-20v-65l-12,1v-15h-22v-51l7,-1h2l3,-2h1l6,-1h3Z"/><path data-name="Jefferson" class="geo-031" d="M355,336v-15l4,-5l2,-8v-19l1,-2l-1,-6l2,-3l3,-3l-6,-3l-1,-4l8,-4l4,2h42l1,1h114l-4,4l2,4v34h-52v15h-19v14h-14l-9,-1h-29l-1,-1Z"/><path data-name="Washington" class="geo-067" d="M172,161l1,-10l7,-9l4,1v-5h5l3,-5l-10,-2l-11,-10v-5h14l1,-11l35,1l2,5l12,5v14l8,7v3l12,10v30l-13,-2l-2,4h-4v-4l-8,-1l-7,-9l-9,-1l-2,-5Z"/></g>
  <path class="counties-mesh" d="M187,46v37h-1v22l-42,-1l-5,-2l-22,-1M370,256l-9,-1h-39l-2,-1h-28l-15,-8v-1l-1,-2l-2,-2l-1,-3l-3,-6l-8,-3l-6,-6l-4,-7h-1v-1h-1l-1,-1l-1,-1h1v-1l1,-2l2,-5l3,-13l-12,-2l-2,2M350,131l2,14l-1,6l4,2l6,8l5,10l8,4l2,12l-2,8l2,1l-3,6l-4,1l2,6l3,8h4v9l-6,5h-8l-3,4l1,12h5l5,5l-2,4l-3,8l-8,4l1,4l6,3l-3,3l-2,3l1,6l-1,2v19l-2,8l-4,5v32l3,5l4,5l1,23l-8,7l1,8l-3,5l-1,9h-8l-6,8l1,17l-1,11l-3,12h32v1h46v43h-1v37h-1v62l27,1h29v123M634,87v51h22v15l12,-1v65l-1,20l-22,1h-37l-14,1v-12l4,-2v-15h-14v-15h-15v-42l1,-18l-1,-3v-27M255,163v-13l-12,-10v-3l-8,-7v-14h16l3,-1M180,723l1,-20v-26l1,-1v-26l1,-7v-22l1,-12l10,-8h17l11,-2l15,-1l2,-8l5,1l8,-10h5l9,-7v-2l11,1l8,-9h14v-12h23l5,-16l2,-8l7,-6l-3,-5v-10l-6,-5v-5l-9,-5l1,-20l16,-9M89,347l3,1h37v-6h-5v-4h10l3,-2l-1,-12h15v-22l1,-25h16l19,2h17l9,12l-12,2l-3,5l1,3l-8,2v7l5,3v11l-4,19l7,7h-34l-25,-1l-11,-1M361,289l-27,-1l-5,-2l-9,-4l-8,4l-6,-9l-7,-1h-22v-2l-10,-5l-11,2l-10,-3l-7,3l-10,10l-9,4v-6l-5,-5h-10l2,-7l5,-3l-11,-4l4,-4l5,-12l8,-2v-7l-3,-1l1,-13M667,237l38,-1h37l9,1v4l11,-4l1,2l11,2M611,351v47l1,10h-14v43h-57v-14h-14v-14h-44v-14l-28,-1v-28l-13,-1l-1,-13v-28h14v-14h19v-15h52v21h42v8h15v13h28v-84h-3v-29M72,455l41,2l-1,16h7v14h5l-1,29l7,1v27h-8v15l-7,-1v34l-14,2v6l-9,8h-11l-6,3v-12h-2v-15h3l-3,-9l-10,-12l-27,-1M742,236v-14h-4v-19h-13v-10h-4l-1,-14l9,1v-2l22,-1l-1,-12l27,-1v-7h9l-1,-7v-29h6l-1,-14h3v-7h7v-30M358,358h-60l-3,7l-10,-2h-8l-16,-5l-1,-4l-8,-3h-16v5l-5,-1l-1,10l-31,-1l2,-6l-2,-8M413,464h40l2,1h129l1,2v69h-5l1,10v33h-2v22l1,6l7,-1h62v49h1v51h1v23M526,309v-34l-2,-4l4,-4l-10,-7l2,-3l-5,-7l-2,-23h81M793,726l-1,-16v-30h-3v-29l-1,-1v-29h-1v-31l-1,-14l-2,-2v-35h-1v-34l-2,-20v-86l-1,-8M140,218v5l-32,-1M318,492l-34,-2h-38v-18h-43v-10l-3,-1v-28l-24,-1l-2,-5h-13v-4h-6v-6h-6v-4h-5v-5l-9,-5h-14l-10,7l-3,5h-27M184,609l-5,-5h-16l-4,4l-13,-2l-4,-5h-16v-7l-6,-3l-5,1M235,116l-12,-5l-2,-5l-35,-1M405,123v30h-5l-1,14v28h-25M140,223l-1,13v21l-1,17l2,3h12M942,215l-26,2h-30v-14l-25,1v-7h-5v-9l-8,-7v-4h-7l-2,-4v-11l-3,1v-15l-6,-2v-15l-5,-11h-3v-14h5l-1,-14l-26,1M108,722l-3,-7l3,-12l-3,-5l5,-3l1,-13l-3,-12l-5,-6l-17,-3l-2,-3l4,-5l1,-14h14l7,-15l1,-6l10,-17l5,-7M513,227l-1,-2l6,-10l-4,-9l-5,-1l-3,-8l2,-3l1,-22l5,-2l-1,-9l5,-2l11,-5l-6,-7v-7l-8,-5l-2,-4l-6,-3l-2,-4l-10,-5v-2M355,336h47l1,1h29l9,1M186,105l-1,11h-14v5l11,10l10,2l-3,5h-5v5l-4,-1l-7,9l-1,10l-1,36l-18,-2h-19l-1,23h7l21,2h19l36,1l8,-6l-4,-5l4,-13v-7l5,-3l2,3l10,2l-1,-10l2,-4l13,2v-17l4,1l7,-1l-2,-3h17l50,1h30M465,133l1,10l3,9l4,1v3l-3,7v11l-12,11l-6,2v14l4,4h14l18,14l-2,6h26M528,267h-114l-1,-1h-42l-4,-2M172,161l38,1l2,5l9,1l7,9l8,1v4h4M295,725l1,-12v-64h1v-35h1v-37l1,-13M897,345h-15l-17,1v-14l-6,-5l-4,1l-2,-5l-45,1l-9,10l-4,10h-3l-5,9l-8,3l-32,1v-6l7,-12l3,-1l-3,-7l1,-7l7,-3l-1,-10h1l5,-6v-6l-4,-5h-7l-1,-2l-11,-2l-1,-6l15,-5l1,-2l11,-2v-3l-1,-3l-3,-8l2,-4h8v-13l-2,-3l3,-8l13,-6l5,5l11,2l6,-5l1,-2l2,-4l5,2l4,3l2,2l1,4l25,-1v-14l34,-2M779,356l1,12v23l-3,1h-32l-7,-1l-28,1l1,14l-19,1h-40l-1,1h-39M584,465v-14M205,274M204,279l1,-5"/>
<g class="districts"><path data-name="Congressional District 1" class="district-4101" d="M205,41l5,-2h6l1,1v1l5,3l1,1l2,1l3,2l7,6l4,2l2,4v1l1,5l7,12l1,2l-1,4l1,5l2,5v9l2,6v18l-4,4l2,7l10,8l-2,3l-5,1v4l4,-1l-3,9l-1,1v17l-13,-2l-2,4l1,10l-10,-2l-2,-3l-5,3v7l-4,13l4,5l-8,6l-36,-1h-19l-21,-2h-7l1,-23h19l18,2l1,-36l1,-10l7,-9l4,1v-5h5l3,-5l-10,-2l-11,-10v-5h14l1,-11l-42,-1l-5,-2l-22,-1l1,-21l-3,-5l7,-8v-16l-3,-13l-4,-7h5l6,8l8,2l-3,-5h13v3h12l6,-2l5,-8h6l6,5l1,7l7,5l14,1Z"/><path data-name="Congressional District 2" class="district-4102" d="M162,652l-2,-4l4,-6l3,1l8,-3l6,4l2,-1v-22l1,-12l10,-8h17l11,-2l15,-1l2,-8l5,1l8,-10h5l9,-7v-2l11,1l8,-9h14v-12h23l5,-16l2,-8l7,-6l-3,-5v-10l-6,-5v-5l-9,-5l1,-20l16,-9l3,-12l1,-11l-1,-17l6,-8h8l1,-9l3,-5l-1,-8l8,-7l-1,-23l-4,-5l-3,-5v-32l4,-5l2,-8v-19l1,-2l-1,-6l2,-3l3,-3l-6,-3l-1,-4l8,-4l3,-8l2,-4l-5,-5h-5l-1,-12l3,-4h8l6,-5v-9h-4l-3,-8l-2,-6l4,-1l3,-6l-2,-1l2,-8l-2,-12l-8,-4l-5,-10l-6,-8l-4,-2l1,-6l-2,-14l1,-1l4,-6l3,-1l4,-2l6,2h5l8,-1l7,-1l7,-3l5,3l5,2l3,1l4,-1l4,-1l6,4l10,3v7l1,2h6l2,-3l3,-2h1l1,-2l11,1l2,-1h2l3,1l1,1h2l2,-2l5,-4l8,-2l4,-2l4,-2l1,-1h1l3,-3l2,-1l9,2l7,6l11,-1l13,-3l9,-1l2,-4l2,-2l12,-4l2,-1l5,-3l11,-3l5,-1l22,-4l5,-8l3,-2l2,-1l7,2h2l8,-1l7,-1h2l3,-2h1l6,-1h3l11,1h2l2,-1l18,-10l2,-1h4l26,-1h57l3,-1h21l5,-1h50l1,-1h14l2,-1h15l11,-1h20l5,6l1,7l9,8l1,6h8l6,7h4l1,-1l10,7l1,10l8,7l1,5l-6,7v1h-1v3h-1v3l-1,1h-1v9h-1v1h-2v2h-1v5h-1l-1,1v1h-1v1l-1,1v2h-1v2h-1v4l-1,1v1l-1,1v4l1,1v2h-1v1h-1v2h-1v2l-1,1v7h-1v4h-1v6h-1l-1,1v2h-1v2h-2l-1,1v5h-1v1h-1v2l-1,1h-1v1l-1,1h-1v3h-1h1v4h-1v2l-1,1h1v1l2,-1v1h-1v2h-1h1v3l1,1v1l-1,1v6l-1,1v1h-1v1h-1v2h-2l-1,1h1v1l-1,1l-5,10h-1v1h-2v1h-1v1h-1v1h-3v1h-1l-1,1l-1,1v1l-1,1h-1h1v2l-1,1h1l-1,1v1h-1v2h-1v1h1v1l-1,1h-1v5h-1v2h-1v1h-1v7h-1l-1,1l-1,1v1h1v3h-1v1l-1,1v1h-2v1h-1l-1,1v3h-1v1h-1v1h-1v1l1,1v2h1v6h-1v3h-1v1h-1v3h1v2h2v1l1,1v1h1v2h1h-1v2h-1v2h-1v5h1l1,1h1v1l1,1h2l5,-2v-1h3l1,1v2h1l1,1v1h2v3l3,-4l1,1h6v8h5l2,2h1l2,2v1l-6,12h-3v7l2,1h1l1,1l1,1v3l-1,1v1l1,2l-1,1l-3,2l2,2l-1,1v2l1,1v2h-2v1h-1l1,1v4l-1,1l1,1l-1,1h-3l-1,1v1l1,1v1h-1l-1,1v1l1,1v2l-1,1h1v20l1,5v22l1,23h1v22l3,45l1,22v21l1,1v22l2,45l2,22v23l1,2h-14l-31,3l-40,1l-58,2h-18l-19,1h-17l-6,1h-20l-13,1h-49l-25,1h-204l-1,-1l-10,1h-1l-13,-1h-16l-2,-1h-17l-21,-1h-16l-9,-1h-9l-12,-1h-62l-23,-1h-10l-5,-1h-15l1,-20v-26l1,-1l-2,-3l-5,-5l-9,-2l-8,-2l-3,-6Z"/><path data-name="Congressional District 3" class="district-4103" d="M254,127v1l6,3l2,2h1l3,2l19,5l2,1l6,2l3,-1l4,1l1,1l1,1l1,1h9l14,-6l10,-4l10,-4v-1h4l2,14l-1,6l4,2l6,8l5,10l8,4l2,12l-2,8l2,1l-3,6l-4,1l2,6l-2,-2h-30v-13h-5l-4,-7h-5v8l-12,1l-2,2v10l-8,3l-5,-3h-18l-7,-10l2,-13l3,-4l-2,-7l3,-4v-5l1,-3l1,-2h-4v-2l-2,2h-11l2,3l-7,1l-3,-2l3,-9l-4,1v-4l5,-1l2,-3l-10,-8l-2,-7Z"/><path data-name="Congressional District 4" class="district-4104" d="M89,347l3,1h37v-6h-5v-4h10l3,-2l-1,-12h15v-22l1,-25h16l19,2l7,5v7l7,2l12,-2l-9,-12l1,-5h10l5,5v6l9,-4l10,-10l7,-3l10,3l11,-2l10,5v2h22l7,1l6,9l8,-4l9,4l5,2l27,1v19l-2,8l-4,5v32l3,5l4,5l1,23l-8,7l1,8l-3,5l-1,9h-8l-6,8l1,17l-1,11l-3,12l-16,9l-1,20l9,5v5l6,5v10l3,5l-7,6l-2,8l-5,16h-23v12h-14l-8,9l-11,-1v2l-9,7h-5l-8,10l-5,-1l-2,8l-15,1l-11,2h-17l-10,8l-1,12v22l-2,1l-6,-4l-8,3l-3,-1l-4,6l2,4l-7,6l3,6l8,2l9,2l5,5l2,3l-1,1v26l-1,20h-47l-1,-1v1h-11l-2,-1h-17l-12,-1h-4l-6,-1h-19l-10,-9l-7,-9v-14l-5,-10l1,-8l-2,-8l1,-25l5,-10l-2,-17l-5,-3l-1,-8l-6,-2l-1,-11l-3,-5l2,-7l8,-12l4,-10l3,-17l4,-11l2,-10l-1,-11l7,-6l3,2l7,-12l5,-1v8l6,3l-6,-13l-11,7l5,-11l6,-15l2,-10l1,-7l7,-6h-5l4,-13l2,-14l2,-13l3,-21v-11l2,-4l1,-18Z"/><path data-name="Congressional District 5" class="district-4105" d="M117,101l22,1l5,2l42,1l-1,11h-14v5l11,10l10,2l-3,5h-5v5l-4,-1l-7,9l-1,10l-1,36l-18,-2h-19l-1,23h7l21,2h19l36,1l8,-6l-4,-5l4,-13v-7l5,-3l2,3l10,2l-1,-10l2,-4l13,2v-17l1,-1l3,2l7,-1l-2,-3h11l2,-2v2h4l-1,2l-1,3v5l-3,4l2,7l-3,4l-2,13l7,10h18l5,3l8,-3v-10l2,-2l12,-1v-8h5l4,7h5v13h30l2,2l3,8h4v9l-6,5h-8l-3,4l1,12h5l5,5l-2,4l-3,8l-8,4l1,4l6,3l-3,3l-2,3l1,6l-1,2l-27,-1l-5,-2l-9,-4l-8,4l-6,-9l-7,-1h-22v-2l-10,-5l-11,2l-10,-3l-7,3l-10,10l-9,4v-6l-5,-5h-10l-1,5l9,12l-12,2l-7,-2v-7l-7,-5l-19,-2h-16l-1,25v22h-15l1,12l-3,2h-10v4h5v6h-37l-3,-1l4,-16l1,-21l5,-19l4,7v-8l-5,-1l-2,-7l3,-6l-1,-14l4,-16l3,1l-1,-11l3,-14h1h-1l5,-20v-11l2,-7l-2,-10l2,-6l4,-3v-5l-4,-5l3,-11l7,10l2,-6l-4,-9l-5,-2l4,-20l4,1l-10,-13Z"/></g>
  <path class="districts-mesh" d="M180,723l1,-20v-26l1,-1l-2,-3l-5,-5l-9,-2l-8,-2l-3,-6l7,-6l-2,-4l4,-6l3,1l8,-3l6,4l2,-1v-22l1,-12l10,-8h17l11,-2l15,-1l2,-8l5,1l8,-10h5l9,-7v-2l11,1l8,-9h14v-12h23l5,-16l2,-8l7,-6l-3,-5v-10l-6,-5v-5l-9,-5l1,-20l16,-9l3,-12l1,-11l-1,-17l6,-8h8l1,-9l3,-5l-1,-8l8,-7l-1,-23l-4,-5l-3,-5v-32l4,-5l2,-8v-19l1,-2l-1,-6l2,-3l3,-3l-6,-3l-1,-4l8,-4l3,-8l2,-4l-5,-5h-5l-1,-12l3,-4h8l6,-5v-9h-4l-3,-8l-2,-6l4,-1l3,-6l-2,-1l2,-8l-2,-12l-8,-4l-5,-10l-6,-8l-4,-2l1,-6l-2,-14M371,209l-2,-2h-30v-13h-5l-4,-7h-5v8l-12,1l-2,2v10l-8,3l-5,-3h-18l-7,-10l2,-13l3,-4l-2,-7l3,-4v-5l1,-3l1,-2h-4v-2l-2,2h-11l2,3l-7,1l-3,-2M254,127l-4,4l2,7l10,8l-2,3l-5,1v4l4,-1l-3,9l-1,1v17l-13,-2l-2,4l1,10l-10,-2l-2,-3l-5,3v7l-4,13l4,5l-8,6l-36,-1h-19l-21,-2h-7l1,-23h19l18,2l1,-36l1,-10l7,-9l4,1v-5h5l3,-5l-10,-2l-11,-10v-5h14l1,-11l-42,-1l-5,-2l-22,-1M89,347l3,1h37v-6h-5v-4h10l3,-2l-1,-12h15v-22l1,-25h16l19,2l7,5v7l7,2l12,-2l-9,-12l1,-5h10l5,5v6l9,-4l10,-10l7,-3l10,3l11,-2l10,5v2h22l7,1l6,9l8,-4l9,4l5,2l27,1"/>
</svg>