<?xml version="1.0" encoding="utf-8"?>
<!DOCTYPE svg PUBLIC "-//W3C//DTD SVG 1.1//EN" "http://www.w3.org/Graphics/SVG/1.1/DTD/svg11.dtd">
<svg version="1.1" xmlns="http://www.w3.org/2000/svg" width="1000" height="634" viewBox="0 0 1000 634">
  <path class="state" d="M41,127l3,-74l69,-13l50,-24v1l-1,50v7l-1,27v25h7l15,1h2l48,1h26l23,1h111l30,1l58,1l39,-1h91l4,-1h88l88,-2h29l4,-1h36l3,5l7,5l2,1l1,1l2,7v4l2,1l2,4l2,1l4,-2l10,4l1,-1l1,1l3,6l7,1l-5,6l1,4l4,-1l1,1l1,1l2,4v6h-3v2h1l2,3v1l-1,4l2,9l-2,2v2h-2l1,2l7,7l1,5l3,4v2l2,1l3,6h2l2,-1l4,1h2l1,2v2h1l1,1v1h-1v2h1l5,-1h1l1,1l2,2h2v-1l1,-1l1,-1h1l1,1v2l1,1h6l1,-1h1l1,3v3l2,1l3,3l1,1l1,1h1v1l-1,2l-1,1h-2l-1,1h-1v1l-1,-1h-1v1l-3,1h-1v2l-1,1h-3v3l-1,1l-1,1v1h-2v1h-1l-1,1v1l-1,1v1l-1,3v1l-1,1h-1v1l-1,1v4l1,1l-1,2l-1,1v1l-1,1v1l-1,3l-1,1l-1,1l-1,1v2h-1l-1,2v2h-1l-1,1h-1l-1,1v1h-1l-2,2l-3,2l-2,3v1h2l2,-2h1l-1,1v1l-2,1l-1,1h-1v1h-1l-1,1h-1v1l-2,5h-1l-5,5h-3v1l-2,1l-1,1h-1v1h-2v1l-1,1h-1v5h2v1l1,2l2,4h1v2h1l3,6l1,1l1,2l2,1v1l-1,5h-5l-1,1v2l2,1v1l-6,9h-1l-7,3v2l-1,1h-1l-1,1v2l2,2v3l-1,1h-1v3l-1,1v2l1,2h3v3h-1l-1,1l-1,1v2l2,5l-1,3l1,3v5l3,2v-1l3,-2l7,1h1v1h1l1,1h1l1,2l2,1v17l1,10l1,1l2,1l4,1l2,-1h4l3,2l1,2l1,1v1l1,2v6h1v1h1l1,1l5,3l1,1h1l1,1l3,2v1l1,1l1,2l1,3v1l2,3h1l1,1l8,5h1v1h1v2l2,3v1h1l2,1l1,1l2,3v1l-1,2l-1,1h-1v1h-3v1h-2v1h-1l-1,1v1h-1l-1,-1h-2v-1h-4v2l-1,1v2l-1,1v1h-1v1h-1v1h-1v1h-2v1h-2l-1,1h-5l-1,1h-1v1h-2v1h-1v1h-1v1h-1l-1,1l-1,1l-2,2l-1,1l-2,1v1l-1,1h-3v1h-2v1l-1,1v1l-4,4l-9,5l1,12l-12,6l-1,1l-6,3l-11,-1l-10,8l-3,2l-5,3v-1l-1,-1h-2v-1l-2,-1h-1l-1,-1l-4,-1h-5l-1,-1h-7l-1,1h-6l-1,1h-2l-13,8v1h-1v1h-1v1l-1,1h-1l-1,3h-1v2h-1v1l-1,2l-1,1v2l-1,1h-37l-5,1h-28l-1,1h-87l-1,1h-244l-2,-1l-1,1v-1h-101l-1,-1h-43l-1,-1h-71l-2,-1h-33l-23,-1h-13l-4,-1h-41l-1,-1h-23l-16,-1v-33l1,-12v-7l1,-15v-29l1,-2v-23l1,-5v-17l1,-18v-16l1,-4v-22l1,-22l1,-16v-13l1,-38l1,-10v-19l1,-5v-7l1,-23v-24l1,-19v-3l1,-11v-23l1,-18v-13l1,-2v-12Z"/>
<g class="geos"><path data-name="Beaver" class="geo-007" d="M32,384l1,-16l25,1h33v39l1,12l-7,2l-3,4l-22,19l-4,4l-26,-1v-16l1,-4v-22Z"/><path data-name="Forest" class="geo-053" d="M288,209l-1,10v30l-3,-3l-14,-1v7l-5,-1l-1,18l-9,3l-2,-4l-7,2l1,-21h-24l-7,-1v10h-13v-12h-6l2,-5v-34h33l1,1h34Z"/><path data-name="Tioga" class="geo-117" d="M606,130h5l5,37l2,29l3,20l-3,2l-2,1h-3l-7,7l-46,2h-55l-1,-31v-41l-1,-1v-25h17Z"/><path data-name="Dauphin" class="geo-043" d="M604,439v-2h-1v-1l3,-4l3,-6l1,-3l6,3l12,-3l6,-4l16,-3l27,22l-23,17l5,17l7,21l3,12l4,9l-6,2l-5,5l-12,5l-2,5l-4,-4l-1,-8l-12,-5l-5,-5l-5,-5l-5,-6v-12l-4,-5h-9l-6,-6l3,-9l10,-8l-4,-7Z"/><path data-name="Wayne" class="geo-127" d="M846,202l-3,-29v-14l-3,-33h20l3,5l7,5l2,1l1,1l2,7v4l2,1l2,4l2,1l4,-2l10,4l1,-1l1,1l3,6l7,1l-5,6l1,4l4,-1l1,1l1,1l2,4v6h-3v2h1l2,3v1l-1,4l2,9l-2,2v2h-2l1,2l-10,15l-8,19l-10,5l-2,10l-9,2l-4,-2l1,6l5,3l-3,7l-5,13l-23,2l1,-2l3,-1l6,-2l-2,-27v-14l-2,-15Z"/><path data-name="Greene" class="geo-059" d="M25,577v-1l1,-12v-7l8,3l2,-3l9,-2l5,-4l11,-1l3,-4l12,5l8,-1l2,3l13,-1l6,1l-1,5l8,-2l-3,2l3,5l6,-1l5,6l-1,11l1,14l2,5l-4,1v6l5,3l-3,4h-13l-4,-1h-41l-1,-1h-23l-16,-1v-24Z"/><path data-name="Jefferson" class="geo-065" d="M246,270l7,-2l2,4l9,-3l21,-7l3,4l34,21l-1,6h5v6h-10l-5,14v26l-1,1v23l-67,-3l1,-8v-21l1,-14l1,-20Z"/><path data-name="Snyder" class="geo-109" d="M634,369l-2,7l-6,8l-1,10v11l-14,16v-2l-10,2l-4,-4l-1,-5h-10l-2,-2l-7,3l-22,-4l-10,-1l-1,-23l6,-3l36,-9l3,-1l10,1l11,-6h15Z"/><path data-name="Clarion" class="geo-031" d="M203,258h13v-10l7,1h24l-1,21v27l-1,20l-1,14l-9,6l-7,4l-16,1l-6,3l-7,-3l-2,4l-11,-3l-3,4l-5,-2l4,-13l-9,-2l-3,-8v-7l-2,-11l-1,-1l5,-2l3,-8v-7l4,-5h3v-9h11v-3h10Z"/><path data-name="Clearfield" class="geo-033" d="M326,299l10,-3v-8l58,5l8,2l23,3l9,13l-2,5l-10,3l4,12l5,5v7l-6,5l2,3v3l-7,2l-6,-4l-3,8l-6,1l-6,14h-6l-3,9l-5,2l-2,6l-1,1h-1l-3,3l3,5l2,1h-69l-4,-1l-1,-20l1,-18v-23l1,-1v-26l5,-14Z"/><path data-name="Indiana" class="geo-063" d="M243,360l67,3l-1,18l1,20l-6,14l-4,12l-6,15l-4,11l-10,18l-2,-4l-6,-1l-5,9l-11,1v-6l-4,-3h-9l-1,-3l-9,-3l-5,1v-5l-8,-2v3h-7l-6,-8l-4,2l1,-11l15,-19l14,-20l10,-12Z"/><path data-name="Perry" class="geo-099" d="M610,423l-1,3l-3,6l-3,4v1h1v2l2,12l4,7l-10,8l-3,9l6,6h9l4,5v1l-14,5l-14,1l-12,3l-20,3l-6,2l-1,-6l-9,6l-7,2l3,-5l8,-6l-7,1l-22,18l-13,4l1,-7l-7,2l1,-7l-4,-1l-1,-6l14,-14l9,-5l-1,-5l19,-12l22,-14l16,-8l1,-5l26,-5Z"/><path data-name="Cameron" class="geo-023" d="M373,214v-3h35l24,31h10v24l-17,32l-23,-3l1,-20h-4v-18h-26v-8Z"/><path data-name="Butler" class="geo-019" d="M91,351v-14l11,-14l17,-21l48,1l1,1v24l-1,1v31l-1,1v37l-1,12l-25,-1h-19l-10,-1h-20v-39Z"/><path data-name="Philadelphia" class="geo-101" d="M884,558l1,-1l4,-3l8,-5l-11,-8l8,-9l6,2l9,6l4,2l5,-12l9,-8l3,1l6,3v8l-3,3l1,4l-1,1l-2,2l-1,1l-2,1v1l-1,1h-3v1h-2v1l-1,1v1l-4,4l-9,5l1,12l-12,6h-9l-1,-1l3,-6v-2l1,-6l-3,-4h-1l-2,-1Z"/><path data-name="Fulton" class="geo-057" d="M417,522l16,9l18,4l10,10l-10,12l-2,13l-3,5l-3,11l-11,16l-4,9l-6,6h-21l-2,-1l-1,1v-1h-22l10,-14l7,-18l1,-6l12,-23v-7l3,-5l-4,-4l8,-8Z"/><path data-name="Bradford" class="geo-015" d="M611,130l4,-1h113l8,-1l2,23v10l2,12v11l2,18l-14,2l-3,22l-41,-3l-13,-2l-41,-4l-9,-1l-3,-20l-2,-29Z"/><path data-name="Huntingdon" class="geo-061" d="M410,441l2,-18l-8,-9v-3l17,-12l28,11l19,-11l7,4l16,-1l-3,5l3,4l-10,11l-6,3l-10,15l5,11l-17,21l7,1l2,6h16l2,-3l8,25l-12,13l-6,11l-4,12l-5,8l-10,-10l-18,-4l-16,-9l-17,-13l-3,-16l4,-8l8,-12l8,-15l1,-7l-4,2l1,-10Z"/><path data-name="Bedford" class="geo-009" d="M332,505l6,-18l18,8l11,9l1,-11l25,12l4,-12l3,16l17,13l-4,9l-8,8l4,4l-3,5v7l-12,23l-1,6l-7,18l-10,14h-70l9,-21v-51l3,-4l6,-14l3,-11Z"/><path data-name="Lawrence" class="geo-073" d="M34,317l1,-7h35l7,3h16l9,10l-11,14v32h-33l-25,-1v-13l1,-13Z"/><path data-name="Clinton" class="geo-035" d="M434,311l-9,-13l17,-32v-24h36l27,-1v8l3,1l6,13v3l11,6v5l17,17l7,3l25,32h4v5l-30,12l-29,6l-11,-18l1,-5l-15,-9l-12,1l-6,-8l-2,-7h-17l-1,-15l-5,8l-5,-1l-1,9l-5,6Z"/><path data-name="Columbia" class="geo-037" d="M689,284l7,-8h15l-1,23l7,15l8,-1v23l4,17l-12,14l-3,18l-12,5l-5,-12l-15,2v-12h-4v-12l2,-5l-9,-8l-1,-12l-7,-2v-5l-4,-14h6l13,-12Z"/><path data-name="Berks" class="geo-011" d="M759,432h3l2,-13l17,-9l13,11l13,10l27,21l7,6l-10,17l-7,12l-9,15l-8,6l-21,17l-27,-23l-9,-6l-9,-8l-8,-8l-6,-2l-12,-11l-6,-4l-16,-12l16,-5h13l15,-4l7,-6l11,-5Z"/><path data-name="Mercer" class="geo-085" d="M37,231l14,1l13,2l37,1v-1h20l-1,9v33l-1,2v24l-17,21l-9,-10h-16l-7,-3h-35v-22l1,-5v-7l1,-23Z"/><path data-name="Schuylkill" class="geo-107" d="M729,353l27,8l7,-1l12,13l6,8l21,17l-7,6l-14,6l-17,9l-2,13h-3l-4,-1l-11,5l-7,6l-15,4h-13l-16,5l-16,-13l-27,-22l14,-8l38,-18l12,-5l3,-18Z"/><path data-name="Sullivan" class="geo-113" d="M630,217l41,4l13,2l41,3l-9,36l-5,14h-15l-7,8l-23,-6l-25,-21Z"/><path data-name="Northumberland" class="geo-097" d="M624,331v-5l-6,-6v-6l1,-4l14,-4l11,1l1,3l-1,4v11l-6,14l-2,15l18,-4l5,1l6,4l8,1l-2,4l2,7l5,1h4v12l15,-2l5,12l-38,18l-14,8l-16,3l-6,4l-12,3l-6,-3l1,-2l14,-16v-11l1,-10l6,-8l2,-7l-7,-5l-1,-2l-1,-1l-1,-1v-1l-3,-5l4,-20Z"/><path data-name="Cambria" class="geo-021" d="M383,402l-10,17h-5v10l-8,13l-5,1l-4,9l-2,17l-1,9l-7,3l-3,6l-6,18l-33,-1l-5,-1v-4l-6,-4h-21l9,-14l4,-10l10,-18l4,-11l6,-15l4,-12l6,-14l4,1h62Z"/><path data-name="Lackawanna" class="geo-069" d="M804,204l42,-2l1,27l2,15v14l2,27l-6,2l-3,1l-1,2l-5,1l-3,5l-3,6l-4,2v2l-3,-2h-3l-1,-3l-1,-16l-5,-1l-3,-8l1,-8l-11,-4l-6,-4l-6,-3l-1,-7l10,-18l-5,-4l5,-7v-4Z"/><path data-name="Wyoming" class="geo-131" d="M804,204l-7,13v4l-5,7l5,4l-10,18l-24,8l-2,2l-45,2l9,-36l3,-22l14,-2v2h17Z"/><path data-name="Chester" class="geo-029" d="M807,508l8,-6h8l9,5l3,5l4,-2l4,12l4,-3l-1,6l8,1v5l7,1l5,8l5,-1l-9,5l1,4l-6,7h1l-13,10l-1,3l-5,7l-4,3l-1,11h-4l-1,1h-2l-13,8v1h-1v1h-1v1l-1,1h-1l-1,3h-1v2h-1v1l-1,2l-1,1v2l-1,1h-37l-5,1h-17l9,-5l6,-9l-1,-3l5,-7l2,-9h3l-2,-11l2,-3l-1,-1v-3l9,-16l-1,-16l10,-7Z"/><path data-name="Monroe" class="geo-089" d="M826,304l4,-2l3,-6l3,-5l5,-1l23,-2l9,-1l28,-3l-4,22l14,2l7,12l6,-2v1h2l2,-2h1l-1,1v1l-2,1l-1,1h-1v1h-1l-1,1h-1v1l-2,5h-1l-5,5h-3v1l-2,1l-1,1h-1v1h-2v1l-1,1h-1v5h2l-13,8l-4,7l-10,9l-14,6l-15,4l-13,-24l-4,-4l12,-8l-4,-6l-14,-15l-2,-5l-4,-3l7,-8v-1Z"/><path data-name="York" class="geo-133" d="M580,543l17,-17h4l5,-1v-3h12l-5,-7l3,-3l10,-3l5,5l12,5l1,8l4,4l9,12l15,4l7,-1l3,6v1v-1v1l3,8l2,5l1,1l15,9l1,8l4,3l7,9l1,1v1v-1v1l6,7l6,11h-82l-1,1h-41l-1,-3v-21l7,-5l-4,-7v-4l2,-2l-2,-8l-6,-13l-7,-2l-6,-7Z"/><path data-name="Elk" class="geo-047" d="M288,209h48l27,-1v6h10v43h26v18h4l-1,20l-8,-2l-58,-5v8l-10,3v-6h-5l1,-6l-34,-21l-3,-4l-21,7l1,-18l5,1v-7l14,1l3,3v-30Z"/><path data-name="Carbon" class="geo-025" d="M804,334l-4,-3v-11l16,-7l3,1l4,3l2,5l14,15l4,6l-12,8l4,4l13,24l-22,6l-13,4l-11,9l-21,-17l-6,-8l-12,-13l42,-21Z"/><path data-name="Blair" class="geo-013" d="M383,402l-2,-1l27,-2h13l-17,12v3l8,9l-2,18l5,2l-1,10l4,-2l-1,7l-8,15l-8,12l-4,8l-4,12l-25,-12l-1,11l-11,-9l-18,-8l3,-6l7,-3l1,-9l2,-17l4,-9l5,-1l8,-13v-10h5Z"/><path data-name="Somerset" class="geo-111" d="M227,546l8,-11l4,-4h7l3,-9l4,-2l8,-16l6,-9h21l6,4v4l5,1l33,1l-5,10l-3,11l-6,14l-3,4v51l-9,21h-9l-1,-1h-43l-1,-1h-42l-1,-8l3,-7l3,2v-8l-9,-7l10,-20Z"/><path data-name="Erie" class="geo-049" d="M163,16v30l-1,21v7l-1,27v25h7l15,1h2l-1,31h-36l-59,-2l-49,-1v-13l1,-2v-13l3,-74l69,-13Z"/><path data-name="Fayette" class="geo-051" d="M132,526l1,-1h3l18,1l5,4h5l4,4h8l11,-4l10,-7l14,12l7,4l1,7h8l-11,20l-10,20l9,7v8l-3,-2l-3,7l1,8h-29l-2,-1h-33l-23,-1l3,-4l-5,-3v-6l4,-1l-2,-5l-1,-14l1,-11l-5,-6l-6,1l-3,-5l3,-2v-5l5,-2l2,5l4,-5l9,-3l-3,-11l6,2l4,-5Z"/><path data-name="Juniata" class="geo-067" d="M586,412h10l1,5l4,4l10,-2v2l-1,2l-12,5l-26,5l-1,5l-16,8l-22,14l-19,12l1,5l-9,5l-14,14l-4,5l-8,-25l4,-6l17,-16l2,-6l18,-14v-7l20,-12l14,-6l22,4l7,-3Z"/><path data-name="McKean" class="geo-083" d="M408,130v81h-35v3h-10v-6l-27,1h-48l1,-15v-22l1,-7l5,-2l1,-25l-1,-9h65Z"/><path data-name="Mifflin" class="geo-087" d="M491,402l5,-4l10,-3l29,-16l8,-3l1,9l1,23l10,1l-14,6l-20,12v7l-18,14l-2,6l-17,16l-4,6l-2,3h-16l-2,-6l-7,-1l17,-21l-5,-11l10,-15l6,-3l10,-11l-3,-4Z"/><path data-name="Montgomery" class="geo-091" d="M815,502l9,-15l7,-12l10,-17l7,5l1,1l19,15l21,15l23,17l15,11l-9,8l-5,12l-4,-2l-9,-6l-6,-2l-8,9l11,8l-8,5l-4,3l-6,-9l-6,-6l-2,-3l-5,1l-5,-8l-7,-1v-5l-8,-1l1,-6l-4,3l-4,-12l-4,2l-3,-5l-9,-5Z"/><path data-name="Warren" class="geo-123" d="M185,127l48,1h26l23,1h13l1,9l-1,25l-5,2l-1,7v22l-1,15l-21,-1h-34l-1,-1h-49v-37l1,-12Z"/><path data-name="Montour" class="geo-093" d="M644,314l1,-4l-1,-3l8,3h7l4,14v5l7,2l1,12l9,8l-2,5v12l-5,-1l-2,-7l2,-4l-8,-1l-6,-4l-5,-1l-18,4l2,-15l6,-14Z"/><path data-name="Delaware" class="geo-045" d="M839,575l5,-7l1,-3l13,-10h-1l6,-7l-1,-4l9,-5l2,3l6,6l6,9l-1,1l1,1l2,1h1l3,4l-1,6v2l-3,6l1,1h8v1l-6,3l-11,-1l-10,8l-3,2l-5,3v-1l-1,-1h-2v-1l-2,-1h-1l-1,-1l-4,-1h-5l-1,-1h-8l-2,1l1,-11Z"/><path data-name="Adams" class="geo-001" d="M580,543l7,2l6,7l7,2l6,13l2,8l-2,2v4l4,7l-7,5v21l1,3h-76l-2,-47l10,-11l30,-7l6,-1Z"/><path data-name="Lehigh" class="geo-077" d="M781,410l14,-6l7,-6l11,-9l13,-4l1,7l7,7l6,-2v4l7,12l9,-4l8,10l-4,10l13,9l-15,13l-9,13l-1,-1l-7,-5l-7,-6l-27,-21l-13,-10Z"/><path data-name="Northampton" class="geo-095" d="M877,369l10,-9l4,-7l13,-8v1l1,2l2,4h1v2h1l3,6l1,1l1,2l2,1v1l-1,5h-5l-1,1v2l2,1v1l-6,9h-1l-7,3v2l-1,1h-1l-1,1v2l2,2v3l-1,1h-1v3l-1,1v2l1,2h3v3h-1l-1,1l-1,1v2l2,5l-1,3l-11,6l-11,10l-13,-9l4,-10l-8,-10l-9,4l-7,-12v-4l-6,2l-7,-7l-1,-7l22,-6l15,-4Z"/><path data-name="Cumberland" class="geo-041" d="M588,493l14,-1l14,-5v11l5,6l5,5l-10,3l-3,3l5,7h-12v3l-5,1h-4l-17,17l-8,8l-6,1l-30,7l-10,11l3,-6l-11,-13v-3l-4,-6l-4,-5v-6l-6,-6l-2,-3v-7l13,-4l22,-18l7,-1l-8,6l-3,5l7,-2l9,-6l1,6l6,-2l20,-3Z"/><path data-name="Franklin" class="geo-055" d="M514,542l4,6v3l11,13l-3,6l2,47h-106l6,-6l4,-9l11,-16l3,-11l3,-5l2,-13l10,-12l5,-8l4,-12l6,-11l12,-13l4,-5l1,6l4,1l-1,7l7,-2l-1,7v7l2,3l6,6v6Z"/><path data-name="Luzerne" class="geo-079" d="M787,250l1,7l6,3l6,4l11,4l-1,8l3,8l5,1l1,16l1,3h3l3,2v-1v1l-7,8l-3,-1l-16,7v11l4,3l1,5l-42,21l-7,1l-27,-8l-4,-17v-23l-8,1l-7,-15l1,-23l5,-14l45,-2l2,-2Z"/><path data-name="Potter" class="geo-105" d="M408,130h15l58,1l22,-1v25l1,1v41l1,31v13l-27,1h-46l-24,-31Z"/><path data-name="Allegheny" class="geo-003" d="M91,408h20l10,1h19l25,1v8l-4,3l-5,4l-4,3l1,7l10,6l-1,20l-2,5l-4,3h-4l-4,16l2,8l-6,11h4l-14,7h-7l-7,-5l-2,-4l9,-3l-30,-14l-14,-4l-11,-15l-16,-17l4,-4l22,-19l3,-4l7,-2Z"/><path data-name="Bucks" class="geo-017" d="M849,464l9,-13l15,-13l11,-10l11,-6l1,3v5l3,2v-1l3,-2l7,1h1v1h1l1,1h1l1,2l2,1v17l1,10l1,1l2,1l4,1l2,-1h4l3,2l1,2l1,1v1l1,2v6h1v1h1l1,1l5,3l1,1h1l1,1l3,2v1l1,1l1,2l1,3v1l2,3h1l1,1l8,5h1v1h1v2l2,3v1h1l2,1l1,1l2,3v1l-1,2l-1,1h-1v1h-3v1h-2v1h-1l-1,1v1h-1l-1,-1h-2v-1h-4v2l-1,1v2l-1,1v1h-1v1h-1v1h-1v1h-2v1h-2l-1,1h-5l-1,1h-1v1h-2v1h-1v1h-1v1h-1l-1,1l-1,-4l3,-3v-8l-6,-3l-3,-1l-15,-11l-23,-17l-21,-15Z"/><path data-name="Lycoming" class="geo-081" d="M505,241v-13h55l46,-2l7,-7h3l2,-1l3,-2l9,1l11,40l25,21l23,6l-11,14l-13,12h-13l-8,-3l-11,-1l-14,4l-1,4l-11,-2l-2,13h-16l-11,4h-4l-25,-32l-7,-3l-17,-17v-5l-11,-6v-3l-6,-13l-3,-1Z"/><path data-name="Lebanon" class="geo-075" d="M654,455l23,-17l16,13l16,12l6,4l12,11l6,2l8,8l-24,13l-23,4l-5,3l-16,6l-4,-9l-3,-12l-7,-21Z"/><path data-name="Centre" class="geo-027" d="M434,311l6,2l5,-6l1,-9l5,1l5,-8l1,15h17l2,7l6,8l12,-1l15,9l-1,5l11,18l29,-6l30,-12l-11,12l-12,18l-12,12l-8,3l-29,16l-10,3l-5,4l-16,1l-7,-4l-19,11l-28,-11h-13l-27,2l-3,-5l3,-3h1l1,-1l2,-6l5,-2l3,-9h6l6,-14l6,-1l3,-8l6,4l7,-2v-3l-2,-3l6,-5v-7l-5,-5l-4,-12l10,-3Z"/><path data-name="Pike" class="geo-103" d="M909,210l7,7l1,5l3,4v2l2,1l3,6h2l2,-1l4,1h2l1,2v2h1l1,1v1h-1v2h1l5,-1h1l1,1l2,2h2v-1l1,-1l1,-1h1l1,1v2l1,1h6l1,-1h1l1,3v3l2,1l3,3l1,1l1,1h1v1l-1,2l-1,1h-2l-1,1h-1v1l-1,-1h-1v1l-3,1h-1v2l-1,1h-3v3l-1,1l-1,1v1h-2v1h-1l-1,1v1l-1,1v1l-1,3v1l-1,1h-1v1l-1,1v4l1,1l-1,2l-1,1v1l-1,1v1l-1,3l-1,1l-1,1l-1,1v2h-1l-1,2v2h-1l-1,1h-1l-1,1v1h-1l-2,2l-3,2l-2,3l-6,2l-7,-12l-14,-2l4,-22l-28,3l-9,1l5,-13l3,-7l-5,-3l-1,-6l4,2l9,-2l2,-10l10,-5l8,-19Z"/><path data-name="Susquehanna" class="geo-115" d="M820,127l4,-1h16l3,33v14l3,29l-42,2h-62v-2l-2,-18v-11l-2,-12v-10l-2,-23h66Z"/><path data-name="Washington" class="geo-125" d="M29,466l1,-18l26,1l16,17l11,15l14,4l30,14l-9,3l2,4l7,5h7l3,6l-3,1l-6,2l4,6l7,6l-4,5l-6,-2l3,11l-9,3l-4,5l-2,-5l-5,2v5l-8,2l1,-5l-6,-1l-13,1l-2,-3l-8,1l-12,-5l-3,4l-11,1l-5,4l-9,2l-2,3l-8,-3l1,-15v-29l1,-2v-23l1,-5v-17Z"/><path data-name="Union" class="geo-119" d="M624,359v1l1,1l1,1l1,2l7,5l-9,-2h-15l-11,6l-10,-1l-3,1l-36,9l-6,3l-1,-9l12,-12l12,-18l11,-12v-5l11,-4h16l2,-13l11,2v6l6,6v5l1,3l-4,20Z"/><path data-name="Crawford" class="geo-039" d="M40,155l49,1l59,2h36l-1,12v37l-5,1h-7l-23,-1v4l-7,5h-3l-5,8l-12,10h-20v1l-37,-1l-13,-2l-14,-1v-2l1,-19v-3l1,-11v-26Z"/><path data-name="Venango" class="geo-121" d="M121,234l12,-10l5,-8h3l7,-5v-4l23,1h7l5,-1h16v34l-2,5h6v23h-10v3h-11v9h-3l-4,5v7l-3,8l-5,2l-48,-1v-24l1,-2v-33Z"/><path data-name="Lancaster" class="geo-071" d="M667,516l6,-2l16,-6l5,-3l23,-4l24,-13l9,8l9,6l27,23l-10,7l1,16l-9,16v3l1,1l-2,3l2,11h-3l-2,9l-5,7l1,3l-6,9l-9,5h-11l-1,1h-5l-6,-11l-6,-7v-1v1v-1l-1,-1l-7,-9l-4,-3l-1,-8l-15,-9l-1,-1l-2,-5l-3,-8v-1v1v-1l-3,-6l-7,1l-15,-4l-9,-12l2,-5l12,-5Z"/><path data-name="Armstrong" class="geo-005" d="M168,304l2,11v7l3,8l9,2l-4,13l5,2l3,-4l11,3l2,-4l7,3l6,-3l16,-1l7,-4l9,-6v21l-1,8v30l-10,12l-14,20l-15,19l-18,-7l-4,-15l-12,-10l-5,1l1,-12v-37l1,-1v-31l1,-1Z"/><path data-name="Westmoreland" class="geo-129" d="M204,441l-1,11l4,-2l6,8h7v-3l8,2v5l5,-1l9,3l1,3h9l4,3v6l11,-1l5,-9l6,1l2,4l-4,10l-9,14l-6,9l-8,16l-4,2l-3,9h-7l-4,4l-8,11h-8l-1,-7l-7,-4l-14,-12l-10,7l-11,4h-8l-4,-4h-5l-5,-4l-18,-1h-3l-1,1l-4,-6l6,-2l3,-1l-3,-6l14,-7h-4l6,-11l-2,-8l4,-16h4l4,-3l2,-5l1,-20l-10,-6l-1,-7l4,-3l5,-4l4,-3v-8l5,-1l12,10l4,15Z"/></g>
  <path class="counties-mesh" d="M682,552v1l3,8l2,5l1,1l15,9l1,8l4,3l7,9l1,1v1v-1v1l6,7l6,11M505,228l-1,-31v-41l-1,-1v-25M848,379l-13,-24l-4,-4l12,-8l-4,-6l-14,-15l-2,-5l-4,-3l7,-8M33,368l25,1h33v39l1,12l-7,2l-3,4l-22,19l-4,4l-26,-1M693,451l-16,-13M326,299l10,-3v-8l58,5l8,2l23,3l9,13l-2,5l-10,3l4,12l5,5v7l-6,5l2,3v3l-7,2l-6,-4l-3,8l-6,1l-6,14h-6l-3,9l-5,2l-2,6l-1,1h-1l-3,3l3,5l2,1h-69l-4,-1l-1,-20l1,-18l-67,-3M492,496l14,-14l9,-5l-1,-5l19,-12l22,-14l16,-8l1,-5l26,-5l12,-5l6,3l12,-3l6,-4l16,-3l27,22l-23,17l5,17l7,21l3,12l4,9M864,288l-23,2l1,-2l3,-1l6,-2l-2,-27v-14l-2,-15l-1,-27l-3,-29v-14l-3,-33M26,557l8,3l2,-3l9,-2l5,-4l11,-1l3,-4l12,5l8,-1l2,3l13,-1l6,1l-1,5l8,-2l-3,2l3,5l6,-1l5,6l-1,11l1,14l2,5l-4,1v6l5,3l-3,4M264,269l21,-7l3,4l34,21l-1,6h5v6h-10l-5,14v26l-1,1v23M310,401l-6,14l-4,12l-6,15l-4,11l-10,18l-2,-4l-6,-1l-5,9l-11,1v-6l-4,-3h-9l-1,-3l-9,-3l-5,1v-5l-8,-2v3h-7l-6,-8l-4,2l1,-11l15,-19l14,-20l10,-12v-30l1,-8v-21l1,-14l1,-20v-27M244,331l-9,6l-7,4l-16,1l-6,3l-7,-3l-2,4l-11,-3l-3,4l-5,-2l4,-13l-9,-2l-3,-8v-7l-2,-11l-1,-1l5,-2l3,-8v-7l4,-5h3v-9h11v-3h10v-11M402,295l1,-20h-4v-18h-26v-46h35l24,31h10v24l-17,32M91,369v-32l11,-14l17,-21M896,579h-8l-1,-1l3,-6v-2l1,-6l-3,-4h-1l-2,-1l-1,-1l1,-1l4,-3l8,-5l-11,-8l8,-9l6,2l9,6l4,2l5,-12l9,-8M210,614l-1,-8l3,-7l3,2v-8l-9,-7l10,-20l11,-20M376,616l10,-14l7,-18l1,-6l12,-23v-7l3,-5l-4,-4l8,-8l4,-9l16,9l18,4l10,10l-10,12l-2,13l-3,5l-3,11l-11,16l-4,9l-6,6M742,202l-14,2l-3,22l-41,-3l-13,-2l-41,-4l-9,-1M381,401l27,-2h13l28,11l19,-11l7,4l16,-1l-3,5l3,4l-10,11l-6,3l-10,15l5,11l-17,21l7,1l2,6h16l2,-3l8,25l-12,13l-6,11l-4,12l-5,8M417,522l-17,-13l-3,-16l4,-8l8,-12l8,-15l1,-7l-4,2l1,-10l-5,-2l2,-18l-8,-9v-3l17,-12M383,402l-10,17h-5v10l-8,13l-5,1l-4,9l-2,17l-1,9l-7,3l-3,6l18,8l11,9l1,-11l25,12l4,-12M306,616l9,-21v-51l3,-4l6,-14l3,-11l5,-10l6,-18M35,310h35l7,3h16l9,10M442,242h36l27,-1M578,334l-30,12l-29,6l-11,-18l1,-5l-15,-9l-12,1l-6,-8l-2,-7h-17l-1,-15l-5,8l-5,-1l-1,9l-5,6l-6,-2M841,458l-10,17l-7,12l-9,15l-8,6l-21,17M741,488l-8,-8l-6,-2l-12,-11l-6,-4l-16,-12l16,-5h13l15,-4l7,-6l11,-5l4,1h3l2,-13l17,-9M37,231l14,1l13,2l37,1v-1h20M729,353l27,8l7,-1l12,13l6,8l21,17M689,284l-23,-6l-25,-21l-11,-40M644,307l1,3l-1,4v11l-6,14l-2,15l18,-4l5,1l6,4l8,1l-2,4l2,7l5,1M745,615l9,-5l6,-9l-1,-3l5,-7l2,-9h3l-2,-11l2,-3l-1,-1v-3l9,-16l-1,-16l10,-7l-27,-23l-9,-6l-9,-8l-24,13l-23,4l-5,3l-16,6l-6,2l-5,5l-12,5l-2,5l-4,-4l-1,-8l-12,-5l-5,-5l-5,-5l-5,-6v-11l-14,5l-14,1l-12,3l-20,3l-6,2l-1,-6l-9,6l-7,2l3,-5l8,-6l-7,1l-22,18l-13,4l1,-7l-7,2l1,-7l-4,-1l-1,-6l-4,5M526,570l3,-6l-11,-13v-3l-4,-6l-4,-5v-6l-6,-6l-2,-3v-7M332,505l-33,-1l-5,-1v-4l-6,-4h-21l9,-14l4,-10M787,250l10,-18l-5,-4l5,-7v-4l7,-13l42,-2M904,345l-13,8l-4,7l-10,9l-14,6l-15,4l-22,6l-13,4l-11,9l-7,6l-14,6l13,11l13,10l27,21l7,6l7,5l1,1l19,15l21,15l23,17l15,11l3,1l6,3v8l-3,3l1,4M815,502h8l9,5l3,5l4,-2l4,12l4,-3l-1,6l8,1v5l7,1l5,8l5,-1l-9,5l1,4l-6,7h1l-13,10l-1,3l-5,7l-4,3l-1,11M528,617l-2,-47l10,-11l30,-7l6,-1l8,-8l17,-17h4l5,-1v-3h12l-5,-7l3,-3l10,-3M909,210l-10,15l-8,19l-10,5l-2,10l-9,2l-4,-2l1,6l5,3l-3,7l-5,13l9,-1l28,-3l-4,22l14,2l7,12l6,-2M604,617l-1,-3v-21l7,-5l-4,-7v-4l2,-2l-2,-8l-6,-13l-7,-2l-6,-7l-7,-2M288,209l-1,10v30l-3,-3l-14,-1v7l-5,-1l-1,18l-9,3l-2,-4l-7,2l1,-21h-24l-7,-1v10h-13v-12h-6l2,-5v-34h33l1,1h34l21,1h48l27,-1v6h10M736,128l2,23v10l2,12v11l2,18v2h62M725,226l-9,36l-5,14l-1,23l7,15l8,-1v23l4,17l-12,14l-3,18l-12,5l-5,-12l-15,2v-12h-4v-12l2,-5l-9,-8l-1,-12l-7,-2v-5l-4,-14h6l13,-12l11,-14l7,-8h15M634,369l-7,-5l-1,-2l-1,-1l-1,-1v-1l-3,-5l4,-20l-1,-3v-5l-6,-6v-6l1,-4l14,-4l11,1l8,3h7M616,487v-1l-4,-5h-9l-6,-6l3,-9l10,-8l-4,-7l-2,-12v-2h-1v-1l3,-4l3,-6l1,-3l1,-2v-2l-10,2l-4,-4l-1,-5h-10l-2,-2l-7,3l-22,-4l-10,-1l-1,-23l6,-3l36,-9l3,-1l10,1l11,-6h15l9,2l-2,7l-6,8l-1,10v11l-14,16M763,360l42,-21l-1,-5l-4,-3v-11l16,-7l3,1M168,304v24l-1,1v31l-1,1v37l-1,12v8l-4,3l-5,4l-4,3l1,7l10,6l-1,20l-2,5l-4,3h-4l-4,16l2,8l-6,11h4l-14,7l3,6l-3,1l-6,2l4,6l1,-1h3l18,1l5,4h5l4,4h8l11,-4l10,-7l14,12l7,4l1,7h8l8,-11l4,-4h7l3,-9l4,-2l8,-16l6,-9M185,127l-1,31M199,207h-16v-37l1,-12h-36l-59,-2l-49,-1M112,556v-5l5,-2l2,5l4,-5l9,-3l-3,-11l6,2l4,-5l-7,-6M480,476l4,-6l17,-16l2,-6l18,-14v-7l20,-12l14,-6M408,130v81M288,209l1,-15v-22l1,-7l5,-2l1,-25l-1,-9M611,130l5,37l2,29l3,20l-3,2l-2,1h-3l-7,7l-46,2h-55v21l3,1l6,13v3l11,6v5l17,17l7,3l25,32h4v5l-11,12l-12,18l-12,12l1,9M885,557l-6,-9l-6,-6l-2,-3M826,385l1,7l7,7l6,-2v4l7,12l9,-4l8,10l-4,10l13,9M134,511h-7l-7,-5l-2,-4l9,-3l-30,-14l-14,-4l-11,-15l-16,-17M618,314l-11,-2l-2,13h-16l-11,4M183,207l-5,1h-7l-23,-1v4l-7,5h-3l-5,8l-12,10l-1,9v33l-1,2v24l48,1M895,422l-11,6l-11,10l-15,13l-9,13M648,531l9,12l15,4l7,-1l3,6v1M841,290l-5,1l-3,5l-3,6l-4,2v2l-3,-2h-3l-1,-3l-1,-16l-5,-1l-3,-8l1,-8l-11,-4l-6,-4l-6,-3l-1,-7l-24,8l-2,2l-45,2M165,410M650,416M204,441l-18,-7l-4,-15l-12,-10l-5,1M165,410l-25,-1h-19l-10,-1h-20M650,416l14,-8l38,-18M491,402l5,-4l10,-3l29,-16l8,-3"/>
<g class="districts"><path data-name="Congressional District 1" class="district-4201" d="M866,584l4,-2l-4,-6l2,-4v-2l6,2l2,3l-3,5l-1,2l2,-1l5,-2h9l-1,-1l-4,-6l1,-14l1,-1l4,-3l2,10l6,5l6,-1l1,-10l3,-3l1,-7l9,3v-6l1,-1l9,-3l6,-4l1,4l-1,1l-2,2l-1,1l-2,1v1l-1,1h-3v1h-2v1l-1,1v1l-4,4l-9,5l1,12l-12,6l-1,1l-6,3l-11,-1l-10,8l-2,1l-5,-7Z"/><path data-name="Congressional District 2" class="district-4202" d="M876,539h1l7,-2l2,4l8,-9l6,2l9,6l-1,8l-1,7l-3,3l-1,10l-6,1l-6,-5l-2,-10l-4,3l-6,-9l-6,-6Z"/><path data-name="Congressional District 3" class="district-4203" d="M163,16v30l-1,21v2l-3,1l-9,5l-6,1l-6,4l-8,4l-4,3h1h-1v-1l-8,5l5,9l-11,6l-10,2l-1,8l-10,3v12h-10v16l9,1l-1,8l59,2h36l-1,12v37l-5,1l-5,-4h-3l1,4l-23,-1v4l-7,5h-3l-5,8l-12,10l-1,9v33l-1,2v24l48,1l1,1l2,11l5,-3l-2,-4l8,2v-6l16,3v8l7,-1l3,-10l3,2l5,-13l4,14h2l-1,15l25,-5l-1,14v21l-1,8v30l-10,12l-14,20l-15,19l-18,-7l-4,-15l-12,-10l-5,1l-25,-1h-19l-10,-1h-20v-57l-9,6h-49v-2l1,-13v-25l1,-7v-22l1,-5v-7l1,-23v-24l1,-19v-3l1,-11v-26l1,-15v-13l1,-2v-13l3,-74l69,-13Z"/><path data-name="Congressional District 4" class="district-4204" d="M526,570l10,-11l30,-7l6,-1l8,-8l17,-17h4l-1,-7h4l2,-5l-3,-4l-4,3l-13,3v-14l2,-9l14,-1l14,-5v-1l3,2h3v9h4v7h-5l5,5l5,5l12,5l1,8l4,4l9,12l15,4l7,-1l3,6v1v-1v1l3,8l2,5l1,1l15,9l1,8l4,3l7,9l1,1v1v-1v1l6,7l6,11h-82l-1,1h-117Z"/><path data-name="Congressional District 5" class="district-4205" d="M126,86v1h1h-1l4,-3l8,-4l6,-4l6,-1l9,-5l3,-1v5l-1,27v25h7l15,1h2l48,1h26l23,1h78l48,1h15l58,1l22,-1v25h22v-5l19,-1l1,19h-8v10l-5,6l1,4l4,8l-33,1l1,31v21l3,1l6,13v3l11,6v5l17,17l7,3l25,32h4v5l-11,12l-12,18l-12,12l-8,3l-29,16l-10,3l-5,4l-3,5l3,4l-10,11l-6,3l-10,15l5,11l-17,21l7,1l2,6h16l-15,22l-17,-10l-1,-3h-7l-17,-5l-4,2l-5,-7l1,-4l-4,-1l8,-15l1,-7l-4,2l1,-10l-5,-2l2,-18l-8,-9v-3l17,-12h-13l-27,2l2,1h-69l-4,-1l-1,-20l1,-18l-67,-3l1,-8v-21l1,-14l-25,5l1,-15h-2l-4,-14l-5,13l-3,-2l-3,10l-7,1v-8l-16,-3v6l-8,-2l2,4l-5,3l-2,-11l-1,-1l-48,-1v-24l1,-2v-33l1,-9l12,-10l5,-8h3l7,-5v-4l23,1l-1,-4h3l5,4l5,-1v-37l1,-12h-36l-59,-2l1,-8l-9,-1v-16h10v-12l10,-3l1,-8l10,-2l11,-6l-5,-9Z"/><path data-name="Congressional District 6" class="district-4206" d="M696,483l-2,-3l9,1l5,-3l-3,-7l4,-8l6,4h23l8,-3l-1,-10l7,-2l7,11l9,-2v-6l14,-6l5,-6l6,-3l1,5l11,9l4,-5l6,8l12,-2l-2,9l5,-2l4,-10l7,6l7,5l-3,5l-6,-1v8l8,5l-8,12l11,8l3,-2l3,1l-1,11l15,11l-4,7l-12,3l7,1l5,8l5,-1l-9,5l1,4l-6,7h1l-13,10l-1,3l-5,7l-7,-3l-7,-8l-5,4l-4,-1v-5l-6,1l-2,-3l5,-5l-8,1l-5,-8l3,-7l7,-1l-1,-7l-5,-5l-4,1l-3,-7l4,1h4l2,-1h1l1,1v-1h2l4,-6l-2,1v-4l-2,-2l-4,-3l8,-6l9,-15l-7,-6l2,-6l-9,-3l-3,-4l-8,-2l-5,6l1,7l5,5l-1,15l-5,1v-4l-11,-4l-5,7l-4,-1v-6l-5,-2l7,-2l3,4h1h-1v-2l6,-6l-4,-3l1,-8l-1,-3l-10,9l1,8l-8,-5l-3,2l-11,12l-9,-8l-24,13l-23,4l-5,3l-2,-13l12,-3l-7,-6Z"/><path data-name="Congressional District 7" class="district-4207" d="M776,532l10,-7l-27,-23l3,-7h-3v-7l10,2l5,2v6l4,1l5,-7l11,4v4l5,-1l1,-15l-5,-5l-1,-7l5,-6l8,2l3,4l9,3l-2,6l7,6l-9,15l-8,6l4,3l2,2v4l2,-1l-4,6h-2v1l-1,-1h-1l-2,1h-4l-4,-1l3,7l4,-1l5,5l1,7l-7,1l-3,7l5,8l8,-1l-5,5l2,3l6,-1v5l4,1l5,-4l7,8l7,3l5,-7l1,-3l13,-10h-1l6,-7l-1,-4l9,-5l-5,1l-5,-8l-7,-1l12,-3l4,-7l-15,-11l1,-11l10,6l8,-10l5,4l2,8l7,3l6,-1l3,-7v4l6,4l-1,3l6,3l-8,2l-8,-5l-6,1l5,4l-3,2l13,3l-1,8l-6,-2l-7,2l-4,-5l-6,3l5,-12l-4,1l-1,1l-9,9l1,3l-7,1l3,3l11,4l-3,3l6,6l6,9l-1,1l-1,14l4,6l1,1h-9l-5,2l-2,1l1,-2l3,-5l-2,-3l-6,-2v2l-2,4l4,6l-4,2h-4l5,7l-1,1l-5,3v-1l-1,-1h-2v-1l-2,-1h-1l-1,-1l-4,-1h-5l-1,-1h-8v1h-6l-1,1h-2l-13,8v1h-1v1h-1v1l-1,1h-1l-1,3h-1v2h-1v1l-1,2l-1,1v2l-1,1h-5v-10l4,-4l-1,-13l11,-1l11,-4l1,-4l-24,-6l3,-14l-4,-6l-12,3l-4,8l-5,3h8l1,1h2v3l1,1l1,1l-1,6l2,20h-11l-10,-7h-1v-1h-1v1l-3,-1l-2,1h-1l-5,7l-10,-8l-3,-6l-3,-1v-2l8,-2l-3,-12h-4l-3,-10l3,-3l-8,-8l6,-4l8,-2l9,4l6,-9Z"/><path data-name="Congressional District 8" class="district-4208" d="M848,463l1,1l9,-13l15,-13l11,-10l11,-6l1,3v5l3,2v-1l3,-2l7,1h1v1h1l1,1h1l1,2l2,1v17l1,10l1,1l2,1l4,1l2,-1h4l3,2l1,2l1,1v1l1,2v6h1v1h1l1,1l5,3l1,1h1l1,1l3,2v1l1,1l1,2l1,3v1l2,3h1l1,1l8,5h1v1h1v2l2,3v1h1l2,1l1,1l2,3v1l-1,2l-1,1h-1v1h-3v1h-2v1h-1l-1,1v1h-1l-1,-1h-2v-1h-4v2l-1,1v2l-1,1v1h-1v1h-1v1h-1v1h-2v1h-2l-1,1h-5l-1,1h-1v1h-2v1h-1v1h-1v1h-1l-1,1l-1,-4l3,-3v-8l-6,-3l-3,-1l-15,-11l-23,-17l-4,5h-6l-5,-4l-8,10l-10,-6l-3,-1l-3,2l-11,-8l8,-12l-8,-5v-8l6,1Z"/><path data-name="Congressional District 9" class="district-4209" d="M99,552l6,1l6,-4v-10l11,5l-1,-13l-7,-3l-4,3l-2,-6l6,-3l-2,-3l3,-11l5,-2l7,5h7l3,6l-3,1l1,4l-2,1l-5,-3l4,6l1,-1h3l18,1l5,4h5l4,4h8l11,-4l10,-7l14,12l7,4l1,7h8l-11,20h2l2,7v9l4,3l2,7h4l8,-7l4,3l-1,4l6,4l8,-18l2,3l11,-13v-4l10,-3l3,-18l4,-5l10,1l17,9l3,-4l3,-4l6,-14l3,-11l5,-10l6,-18l3,-6l7,-3l1,-9l-11,-6l-7,2l-5,-1l4,-10v-15h1l3,-4l1,-6h-11l-9,6l1,-15h-1l-5,-4l-6,-1l-4,12l-6,15l-4,11l-10,18l-2,-4l-6,-1l-5,9l-11,1v-6l-4,-3h-9l-1,-3l-9,-3l-5,1v-5l-8,-2v3h-7l-6,-8l-4,2l1,-11l15,-19l14,-20l10,-12v-30l67,3l-1,18l1,20l4,1h69l-2,-1l27,-2h13l-17,12v3l8,9l-2,18l5,2l-1,10l4,-2l-1,7l-8,15l4,1l-1,4l5,7l4,-2l17,5h7l1,3l17,10l15,-22l2,-3l8,25l4,-5l1,6l4,1l-1,7l7,-2l-1,7v7l2,3l6,6v6l4,5l4,6v3l11,13l-3,6l2,47h-127l-2,-1l-1,1v-1h-101l-1,-1h-43l-1,-1h-71l-2,-1h-33l-23,-1h-13l-4,-1h-3v-7l-4,-4l1,-11l-6,-12l-1,-7l4,-3Z"/><path data-name="Congressional District 10" class="district-4210" d="M491,402l5,-4l10,-3l29,-16l8,-3l12,-12l12,-18l11,-12v-5h-4l-25,-32l-7,-3l-17,-17v-5l-11,-6v-3l-6,-13l-3,-1v-21l-1,-31l33,-1l-4,-8l-1,-4l5,-6v-10h8l-1,-19l-19,1v5h-22v-25h108l4,-1h113l8,-1h66l18,-1l4,-1h36l3,5l7,5l2,1l1,1l2,7v4l2,1l2,4l2,1l4,-2l10,4l1,-1l1,1l3,6l7,1l-5,6l1,4l4,-1l1,1l1,1l2,4v6h-3v2h1l2,3v1l-1,4l2,9l-2,2v2h-2l1,2l7,7l1,5l3,4v2l2,1l3,6h2l2,-1l4,1h2l1,2v2h1l1,1v1h-1v2h1l5,-1h1l1,1l2,2h2v-1l1,-1l1,-1h1l1,1v2l1,1h6l1,-1h1l1,3v3l2,1l3,3l1,1l1,1h1v1l-1,2l-1,1h-2l-1,1h-1v1l-1,-1h-1v1l-3,1h-1v2l-1,1h-3v3l-1,1l-1,1v1h-2v1h-1l-1,1v1l-1,1v1l-1,3v1l-1,1h-1v1l-1,1v4l1,1l-1,2l-1,1v1l-1,1v1l-1,3l-1,1l-1,1l-1,1v2h-1l-1,2v2h-1l-1,1h-1l-1,1v1h-1l-2,2l-3,2l-2,3l-6,2l-7,-12l-14,-2h-4v11l2,8h-6l1,11l3,3l4,-3v5l-4,3l-3,-3l-8,-1l1,-5l-16,16l-10,-16l6,-25h5l5,-23l-9,1l-23,2l-5,1l-3,5l-1,-3h-1h1h-1l-7,-5l-3,-6h12l-1,-16l-8,1l-7,-5l2,-4l9,-2l3,-5l-8,-4l6,-1l-5,-3l5,-3l7,7l3,-4l-5,-6v-9l6,-2l-5,-4l6,-2l1,-5l-11,1l-4,12l-12,10l-7,8l-8,12v6l-6,-4l-6,-3l-1,-7l10,-18l-5,-4l5,-7v-4l7,-13h-62v-2l-14,2l-3,22l-9,36l-5,14h-15l-7,8l-11,14l-13,12h-13l-8,-3l1,3l-1,4v11l-6,14l-2,15l18,-4l5,1l-2,4l-11,5l-12,9l-2,7l-6,8l-1,10v11l-14,16l-1,2l-1,3l-3,6l-3,4v1h1v2l2,12l4,7l-10,8l-2,-6l-3,1l-29,16l-7,-6l-8,2l5,19v7l-6,2l-1,-6l-9,6l-7,2l3,-5l8,-6l-7,1l-22,18l-13,4l1,-7l-7,2l1,-7l-4,-1l-1,-6l-4,5l-8,-25l-2,3h-16l-2,-6l-7,-1l17,-21l-5,-11l10,-15l6,-3l10,-11l-3,-4Z"/><path data-name="Congressional District 11" class="district-4211" d="M502,515l13,-4l22,-18l7,-1l-8,6l-3,5l7,-2l9,-6l1,6l6,-2v-7l-5,-19l8,-2l7,6l29,-16l3,-1l2,6l10,-8l-4,-7l-2,-12v-2h-1v-1l3,-4l3,-6l1,-3l1,-2l14,-16v-11l1,-10l6,-8l2,-7l12,-9l11,-5l2,-4l-5,-1l-18,4l2,-15l6,-14v-11l1,-4l-1,-3l8,3h13l13,-12l11,-14l7,-8h15l5,-14l9,-36l3,-22l14,-2v2h62l-7,13v4l-5,7l5,4l-10,18l1,7l6,3l-2,6l-9,2l-2,4l4,6l-2,6l-10,6l8,5l8,-5l3,1l5,-4l21,-2l1,16l1,3h3l3,2v-1v1l-7,8l4,3l2,5l14,15l4,6l-12,8l4,4l-22,14l-3,-10l-5,1l-3,6l-6,-5l-21,12l-12,-13l-7,1l-27,-8l-12,14l-3,18l-12,5l-38,18l-14,8l27,22l-23,17l-10,7l3,16l-10,1l4,5l3,8v7l4,3l-3,15l-2,2l-12,-5l-5,-5l-5,-5h5v-7h-4v-9h-3l-3,-2v1l-14,5l-14,1l-2,9v14l13,-3l4,-3l3,4l-2,5h-4l1,7h-4l-17,17l-8,8l-6,1l-30,7l-10,11l3,-6l-11,-13v-3l-4,-6l-4,-5v-6l-6,-6l-2,-3Z"/><path data-name="Congressional District 12" class="district-4212" d="M30,432l1,-4v-22l1,-22l1,-16v-11h49l9,-6v57h20l10,1h19l25,1l5,-1l12,10l4,15l18,7l-1,11l4,-2l6,8h7v-3l8,2v5l5,-1l9,3l1,3h9l4,3v6l11,-1l5,-9l6,1l2,4l10,-18l4,-11l6,-15l4,-12l6,1l5,4h1l-1,15l9,-6h11l-1,6l-3,4h-1v15l-4,10l5,1l7,-2l11,6l-1,9l-7,3l-3,6l-6,18l-5,10l-3,11l-6,14l-3,4l-3,4l-17,-9l-10,-1l-4,5l-3,18l-10,3v4l-11,13l-2,-3l-8,18l-6,-4l1,-4l-4,-3l-8,7h-4l-2,-7l-4,-3v-9l-2,-7h-2l11,-20l8,-11l4,-4h7l3,-9l4,-2l8,-16l-25,-20l-3,1l-5,10l-12,-3l-1,-7v1v-1v1l-4,-1l3,-5l-7,-7l-4,4l-8,2l-13,-5l-4,-7l-14,2l-4,-3l2,-5l-2,1l-6,-3v-4h-4l-2,-11l-7,-4l10,-1l2,-4l6,-1l-3,-9l5,-4l-12,2l2,10h-15l3,14l-9,1h-9l-2,3l-5,-1l-1,-5l-6,3l-4,-5l-8,-1v-3l-8,-1l-4,-1l2,-6l-3,-5l-22,19l-4,4l-26,-1v-14Z"/><path data-name="Congressional District 13" class="district-4213" d="M877,519l1,-1l4,-1l-5,12l6,-3l4,5l7,-2l6,2l1,-8l-13,-3l3,-2l-5,-4l6,-1l8,5l8,-2l-6,-3l1,-3l-6,-4v-4l-3,7l-6,1l-7,-3l-2,-8h6l4,-5l23,17l15,11l3,1l6,3v8l-3,3l-6,4l-9,3l-1,1v6l-9,-3l1,-8l-9,-6l-6,-2l-8,9l-2,-4l-7,2h-1l-11,-4l-3,-3l7,-1l-1,-3Z"/><path data-name="Congressional District 14" class="district-4214" d="M87,438l8,1v3l8,1l4,5l6,-3l1,5l5,1l2,-3h9l9,-1l-3,-14h15l-2,-10l12,-2l-5,4l3,9l-6,1l-2,4l-10,1l7,4l2,11h4l-2,3l3,9l1,2h-4l-4,16l-8,1v6l-10,1v-7l-11,-7l-3,3l3,-9l-7,-1l-4,-3h-1l-1,-2l-4,-4l-1,-5l-5,-3l-1,-6l-9,-7Z"/><path data-name="Congressional District 15" class="district-4215" d="M654,455l23,-17l16,13l16,-5h13l15,-4l7,-6l11,-5l4,1h3l2,-13l17,-9l14,-6l7,-6l11,-9l13,-4l22,-6l15,-4l14,-6v5l3,-2l4,5l4,-1l2,10l-7,4l-10,2l-1,4h7l1,9l-15,2l6,4l-1,9v2l24,-14l1,-1h2v3h-1l-1,1l-1,1v2l2,5l-1,3l-11,6l-11,10l-15,13l-9,13l-1,-1l-7,-5l-7,-6l-4,10l-5,2l2,-9l-12,2l-6,-8l-4,5l-11,-9l-1,-5l-6,3l-5,6l-14,6v6l-9,2l-7,-11l-7,2l1,10l-8,3h-23l-6,-4l-4,8l3,7l-5,3l-9,-1l2,3l-4,3l7,6l-12,3l2,13l-16,6l-6,2l-5,5l-12,5l-2,5l-4,-4l-1,-8l2,-2l3,-15l-4,-3v-7l-3,-8l-4,-5l10,-1l-3,-16Z"/><path data-name="Congressional District 16" class="district-4216" d="M648,531l2,-5l12,-5l5,-5l6,-2l16,-6l5,-3l23,-4l24,-13l9,8l11,-12l3,-2l8,5l-1,-8l10,-9l1,3l-1,8l4,3l-6,6v2h1h-1l-3,-4l-7,2l-10,-2v7h3l-3,7l27,23l-10,7l-11,3l-6,9l-9,-4l-8,2l-6,4l8,8l-3,3l3,10h4l3,12l-8,2v2l3,1l3,6l10,8l5,-7h1l2,-1l3,1v-1h1v1h1l10,7h11l-2,-20l1,-6l-1,-1l-1,-1v-3h-2l-1,-1h-8l5,-3l4,-8l12,-3l4,6l-3,14l24,6l-1,4l-11,4l-11,1l1,13l-4,4v10h-32l-5,1h-28l-1,1h-5l-6,-11l-6,-7v-1v1v-1l-1,-1l-7,-9l-4,-3l-1,-8l-15,-9l-1,-1l-2,-5l-3,-8v-1v1v-1l-3,-6l-7,1l-15,-4Z"/><path data-name="Congressional District 17" class="district-4217" d="M650,416l14,-8l38,-18l12,-5l3,-18l12,-14l27,8l7,-1l12,13l21,-12l6,5l3,-6l5,-1l3,10l22,-14l-4,-4l12,-8l-4,-6l-14,-15l-2,-5l-4,-3l7,-8v-1v1l-3,-2h-3l-1,-3l-1,-16l-21,2l-5,4l-3,-1l-8,5l-8,-5l10,-6l2,-6l-4,-6l2,-4l9,-2l2,-6l6,4v-6l8,-12l7,-8l12,-10l4,-12l11,-1l-1,5l-6,2l5,4l-6,2v9l5,6l-3,4l-7,-7l-5,3l5,3l-6,1l8,4l-3,5l-9,2l-2,4l7,5l8,-1l1,16h-12l3,6l7,5h1h-1h1l1,3l3,-5l5,-1l23,-2l9,-1l-5,23h-5l-6,25l10,16l16,-16l-1,5l8,1l3,3l4,-3v-5l-4,3l-3,-3l-1,-11h6l-2,-8v-11h4l14,2l7,12l6,-2v1h2l2,-2h1l-1,1v1l-2,1l-1,1h-1v1h-1l-1,1h-1v1l-2,5h-1l-5,5h-3v1l-2,1l-1,1h-1v1h-2v1l-1,1h-1v5h2v1l1,2l2,4h1v2h1l3,6l1,1l1,2l2,1v1l-1,5h-5l-1,1v2l2,1v1l-6,9h-1l-7,3v2l-1,1h-1l-1,1v2l2,2v3l-1,1h-1v3l-1,1v2l1,2h1l-1,1l-24,14v-2l1,-9l-6,-4l15,-2l-1,-9h-7l1,-4l10,-2l7,-4l-2,-10l-4,1l-4,-5l-3,2v-5l-14,6l-15,4l-22,6l-13,4l-11,9l-7,6l-14,6l-17,9l-2,13h-3l-4,-1l-11,5l-7,6l-15,4h-13l-16,5l-16,-13l-27,-22Z"/><path data-name="Congressional District 18" class="district-4218" d="M25,603v-27l1,-12v-7l1,-15v-29l1,-2v-23l1,-5v-17l1,-18l26,1l4,-4l22,-19l3,5l-2,6l4,1l-1,4l9,7l1,6l5,3l1,5l4,4l1,2h1l4,3l7,1l-3,9l3,-3l11,7v7l10,-1v-6l8,-1l4,-16h4l-1,-2l-3,-9l2,-3v4l6,3l2,-1l-2,5l4,3l14,-2l4,7l13,5l8,-2l4,-4l7,7l-3,5l4,1v-1v1v-1l1,7l12,3l5,-10l3,-1l25,20l-8,16l-4,2l-3,9h-7l-4,4l-8,11h-8l-1,-7l-7,-4l-14,-12l-10,7l-11,4h-8l-4,-4h-5l-5,-4l-18,-1h-3l-1,1l-4,-6l5,3l2,-1l-1,-4l3,-1l-3,-6h-7l-7,-5l-5,2l-3,11l2,3l-6,3l2,6l4,-3l7,3l1,13l-11,-5v10l-6,4l-6,-1l-2,15l-4,3l1,7l6,12l-1,11l4,4v7h-38l-1,-1h-23l-16,-1v-5Z"/></g>
  <path class="districts-mesh" d="M885,557l4,-3l2,10l6,5l6,-1l1,-10l3,-3l1,-7l9,3v-6l1,-1l9,-3l6,-4l1,4M867,591l-5,-7h4l4,-2l-4,-6l2,-4v-2l6,2l2,3l-3,5l-1,2l2,-1l5,-2h9l-1,-1l-4,-6l1,-14l1,-1l-6,-9l-6,-6l3,-3M856,499l-1,11l15,11l-4,7l-12,3l7,1l5,8l5,-1l-9,5l1,4l-6,7h1l-13,10l-1,3l-5,7l-7,-3l-7,-8l-5,4l-4,-1v-5l-6,1l-2,-3l5,-5l-8,1l-5,-8l3,-7l7,-1l-1,-7l-5,-5l-4,1l-3,-7l4,1h4l2,-1h1l1,1v-1h2l4,-6l-2,1v-4l-2,-2l-4,-3l8,-6l9,-15l-7,-6l2,-6l-9,-3l-3,-4l-8,-2l-5,6l1,7l5,5l-1,15l-5,1v-4l-11,-4l-5,7l-4,-1v-6l-5,-2l7,-2l3,4v-2l6,-6l-4,-3l1,-8l-1,-3l-10,9l1,8l-8,-5l-3,2l-11,12l-9,-8l-24,13l-23,4l-5,3l-2,-13l12,-3l-7,-6l4,-3l-2,-3l9,1l5,-3l-3,-7l4,-8l6,4h23l8,-3l-1,-10l7,-2l7,11l9,-2v-6l14,-6l5,-6l6,-3l1,5l11,9l4,-5l6,8l12,-2l-2,9l5,-2l4,-10l7,6l7,5l1,1l9,-13l15,-13l11,-10l11,-6M933,537l3,-3v-8l-6,-3l-3,-1l-15,-11l-23,-17l-4,5h-6M682,552v1l3,8l2,5l1,1l15,9l1,8l4,3l7,9l1,1v1v-1v1l6,7l6,11M924,318l-6,2l-7,-12l-14,-2h-4v11l2,8h-6l1,11l3,3l4,-3v5l-4,3l-3,-3l-8,-1l1,-5l-16,16l-10,-16l6,-25h5l5,-23l-9,1l-23,2l-5,1l-3,5l-1,-3h-1l-7,-5l-3,-6h12l-1,-16l-8,1l-7,-5l2,-4l9,-2l3,-5l-8,-4l6,-1l-5,-3l5,-3l7,7l3,-4l-5,-6v-9l6,-2l-5,-4l6,-2l1,-5l-11,1l-4,12l-12,10l-7,8l-8,12v6l-6,-4l-6,-3l-1,-7l10,-18l-5,-4l5,-7v-4l7,-13h-62v-2l-14,2l-3,22l-9,36l-5,14h-15l-7,8l-11,14l-13,12h-13l-8,-3l1,3l-1,4v11l-6,14l-2,15l18,-4l5,1l-2,4l-11,5l-12,9l-2,7l-6,8l-1,10v11l-14,16l-1,2l-1,3l-3,6l-3,4v1h1v2l2,12l4,7l-10,8l-2,-6l-3,1l-29,16l-7,-6l-8,2l5,19v7l-6,2l-1,-6l-9,6l-7,2l3,-5l8,-6l-7,1l-22,18l-13,4M794,260l-2,6l-9,2l-2,4l4,6l-2,6l-10,6l8,5l8,-5l3,1l5,-4l21,-2l1,16l1,3h3l3,2v-1M826,306l-7,8l4,3l2,5l14,15l4,6l-12,8l4,4l-22,14l-3,-10l-5,1l-3,6l-6,-5l-21,12l-12,-13l-7,1l-27,-8l-12,14l-3,18l-12,5l-38,18l-14,8l27,22l-23,17l-10,7l3,16l-10,1l4,5l3,8v7l4,3l-3,15l-2,2M227,546l8,-11l4,-4h7l3,-9l4,-2l8,-16l-25,-20l-3,1l-5,10l-12,-3l-1,-7v1l-4,-1l3,-5l-7,-7l-4,4l-8,2l-13,-5l-4,-7l-14,2l-4,-3l2,-5l-2,1l-6,-3v-4h-4l-2,-11l-7,-4l10,-1l2,-4l6,-1l-3,-9l5,-4l-12,2l2,10h-15l3,14l-9,1h-9l-2,3l-5,-1l-1,-5l-6,3l-4,-5l-8,-1v-3l-8,-1l-4,-1l2,-6l-3,-5l-22,19l-4,4l-26,-1M162,69l-3,1l-9,5l-6,1l-6,4l-8,4l-4,3h1h-1v-1l-8,5l5,9l-11,6l-10,2l-1,8l-10,3v12h-10v16l9,1l-1,8l59,2h36l-1,12v37l-5,1l-5,-4h-3l1,4l-23,-1v4l-7,5h-3l-5,8l-12,10l-1,9v33l-1,2v24l48,1l1,1l2,11l5,-3l-2,-4l8,2v-6l16,3v8l7,-1l3,-10l3,2l5,-13l4,14h2l-1,15l25,-5l-1,14v21l-1,8v30l-10,12l-14,20l-15,19l-18,-7l-4,-15l-12,-10l-5,1l-25,-1h-19l-10,-1h-20v-57l-9,6h-49M154,455l-2,3l3,9l1,2h-4l-4,16l-8,1v6l-10,1v-7l-11,-7l-3,3l3,-9l-7,-1l-4,-3h-1l-1,-2l-4,-4l-1,-5l-5,-3l-1,-6l-9,-7l1,-4M779,492h1h-1M677,438l16,13l16,-5h13l15,-4l7,-6l11,-5l4,1h3l2,-13l17,-9l14,-6l7,-6l11,-9l13,-4l22,-6l15,-4l14,-6v5l3,-2l4,5l4,-1l2,10l-7,4l-10,2l-1,4h7l1,9l-15,2l6,4l-1,9v2l24,-14l1,-1M503,130v25h22v-5l19,-1l1,19h-8v10l-5,6l1,4l4,8l-33,1l1,31v21l3,1l6,13v3l11,6v5l17,17l7,3l25,32h4v5l-11,12l-12,18l-12,12l-8,3l-29,16l-10,3l-5,4l-3,5l3,4l-10,11l-6,3l-10,15l5,11l-17,21l7,1l2,6h16l2,-3l8,25l4,-5l1,6l4,1l-1,7l7,-2l-1,7v7l2,3l6,6v6l4,5l4,6v3l11,13l-3,6l10,-11l30,-7l6,-1l8,-8l17,-17h4l-1,-7h4l2,-5l-3,-4l-4,3l-13,3v-14l2,-9l14,-1l14,-5v-1l3,2h3v9h4v7h-5l5,5l5,5l12,5l1,8l4,4l9,12l15,4l7,-1l3,6v1M689,508l-16,6l-6,2l-5,5l-12,5l-2,5M799,614v-10l4,-4l-1,-13l11,-1l11,-4l1,-4l-24,-6l3,-14l-4,-6l-12,3l-4,8l-5,3h8l1,1h2v3l1,1l1,1l-1,6l2,20h-11l-10,-7h-1v-1h-1v1l-3,-1l-2,1h-1l-5,7l-10,-8l-3,-6l-3,-1v-2l8,-2l-3,-12h-4l-3,-10l3,-3l-8,-8l6,-4l8,-2l9,4l6,-9l11,-3l10,-7l-27,-23l3,-7h-3v-7l10,2M528,617l-2,-47M478,479l-15,22l-17,-10l-1,-3h-7l-17,-5l-4,2l-5,-7l1,-4l-4,-1l8,-15l1,-7l-4,2l1,-10l-5,-2l2,-18l-8,-9v-3l17,-12h-13l-27,2l2,1h-69l-4,-1l-1,-20l1,-18l-67,-3M103,611v-7l-4,-4l1,-11l-6,-12l-1,-7l4,-3l2,-15l6,1l6,-4v-10l11,5l-1,-13l-7,-3l-4,3l-2,-6l6,-3l-2,-3l3,-11l5,-2l7,5h7l3,6l-3,1l1,4l-2,1l-5,-3l4,6l1,-1h3l18,1l5,4h5l4,4h8l11,-4l10,-7l14,12l7,4l1,7h8l-11,20h2l2,7v9l4,3l2,7h4l8,-7l4,3l-1,4l6,4l8,-18l2,3l11,-13v-4l10,-3l3,-18l4,-5l10,1l17,9l3,-4l3,-4l6,-14l3,-11l5,-10l6,-18l3,-6l7,-3l1,-9l-11,-6l-7,2l-5,-1l4,-10v-15h1l3,-4l1,-6h-11l-9,6l1,-15h-1l-5,-4l-6,-1l-4,12l-6,15l-4,11l-10,18l-2,-4l-6,-1l-5,9l-11,1v-6l-4,-3h-9l-1,-3l-9,-3l-5,1v-5l-8,-2v3h-7l-6,-8l-4,2l1,-11M848,463l-3,5l-6,-1v8l8,5l-8,12l11,8l3,-2l3,1l10,6l8,-10l5,4l2,8l7,3l6,-1l3,-7v4l6,4l-1,3l6,3l-8,2l-8,-5l-6,1l5,4l-3,2l13,3l-1,8l-6,-2l-7,2l-4,-5l-6,3l5,-12l-4,1l-1,1l-9,9l1,3l-7,1l3,3l11,4h1l7,-2l2,4l8,-9l6,2l9,6l-1,8"/>
</svg>