<?xml version="1.0" encoding="utf-8"?>
<!DOCTYPE svg PUBLIC "-//W3C//DTD SVG 1.1//EN" "http://www.w3.org/Graphics/SVG/1.1/DTD/svg11.dtd">
<svg version="1.1" xmlns="http://www.w3.org/2000/svg" width="1000" height="803" viewBox="0 0 1000 803">
  <path class="state" d="M738,587l-2,-1l-5,11l8,-2l-21,12l-4,-5h-7v-7l5,-5l-2,-5l11,-4l1,-11l1,-1v1l6,-4l-5,3l-1,-1l-3,4l-3,9l-4,-1l-5,5l1,6h-6v-6h-1v-1l-4,1l-1,-8l6,-5l-1,-4l-3,4l-4,10l7,5l1,13v6l-4,-2h-1l-3,-3l1,-10l-4,-3l-7,3l-5,-3l7,5l8,-1l-1,9l9,9l10,1l-3,6l-10,2l2,2l-5,12l-10,5l1,-8l-4,7h-5l-8,6h-8l5,3l11,-8h5l7,4l-4,3l-5,-1l-22,7l-7,6l-4,-9l-4,2l-7,-7v-7l5,-3l-2,-4h5l9,-8v-1l-7,-1l-4,8h-5l1,6h-5l-4,8l-6,-4l2,8l13,2l10,9l-11,8l-14,11l-5,-3v-3l-9,-7l-5,-2l5,-4l-2,-6l2,-7l-6,3h1l1,-1h4l-2,1l-1,3v1l1,2v1h1v2h-1l-2,1h-1l-1,2v1l1,3v1l-7,1h4l1,-1l2,2v6h-7l-1,-1l-1,-1l-1,-1v-1l-4,-1h1v1h1l2,1v1l1,1l1,1l-6,1l-4,-3h-1l-5,-4l-3,-9h-6h4l3,9l4,4h-8l-3,-9l-5,1l6,5l2,5l-5,1l-4,-4l-10,1l-4,-3l-15,-4l-7,2l-1,8l-5,1l-6,-9l2,-10l-1,13l3,8l-2,7h1l3,6l-4,4l1,1l7,5l1,10l-7,-4l-3,-9l-4,6h4l9,10l-2,10h-3l-11,-5l8,6l5,1l4,-9l6,11l-7,10l1,8l-11,-2l11,5l-19,14l1,-4l-4,-3l-2,6l-8,1l11,6l-4,6l-7,1l-8,-1l-2,-5l-8,4l-9,-3l-1,-1l-6,-5v-2l1,-5h-2v-2h-1v-1l-1,-1h1v-1h3v-1l-1,-3h-1l1,-1h1v-1h-1l-2,-1v-1l-2,-2l-1,-1v-1h-2l1,-1v-1h-1v-1l-1,-1v-2h2v-1l-1,-1l1,-1v-1h1l1,-1h-1l1,-1h1v-1h1v1l1,-1l-1,-1h1v-7h-1v1h-1v-4h-1v-2l1,-1h1l-1,-1h-1l-1,-1v-1h-1v1h-1v1h-2v-1h1v-1h-1v-2h-1l-1,-1v-1h-1h1v-1l-2,-2v-6h-1l-1,-1l-1,-1v-1l-1,-1l-1,-1v-4h1v-1h1h-2v-2h1l1,1v-1l1,-1v1v-1l1,-1v-1h-2v-1h-2v-1l-1,-2l-2,-1v-1h-1v-1l-1,-1l-1,-1l-1,-1l1,-1h1v-1h-1l-1,-1h-2l-5,-4v-4l-1,-1v1h-1v-2l-1,-1v3h-1v-3h-2v1h-5v-1h-1l-2,-1h-2l-1,-1l1,-1l-1,-1h-1v1h-1h1v-2l-1,-1h-2l-2,-2v-1l-3,-4h-1l-1,-1l-1,-2h2l2,-1h-1v-2h1l2,-2h-1l-1,-1l-1,-1h2l-2,-6v-1l-1,-2l-1,1v-1l-2,-2v-1h1l1,-1l1,-2l-1,-1l-1,-1h2v-1l1,-2v-1h-2v-1h1v-3h-1v1v-1h-3v-2h3v-2h-3v-1v1h2v-1h-2l1,-1l1,-1l-1,-1l-1,-1h1v-2h1v-1l1,-1h-1l-1,-1l1,-2l-2,-3l-2,1l-1,-2h-1l-1,1l-1,-2h1v-5h-1l-2,-2v2l-1,-1v-2l1,-1v1h1l-1,-1v-3v2v-1h-2v-3l1,-1h-2l1,-1v-1l-4,-2v-3l-1,-2l-1,-1v-1l1,-2l1,2v-1h1v-2l1,-1v-1h-1h1v-1h-1l1,-2v-1l-2,-1h1v-1h1h-1v-1h-1v-1h-1v2h-1v-1l1,-1l-1,-2v-1h-2v-1l-1,-1h-1v-1l-1,1h-1v-2l-1,-1l-1,1h-2l-1,-1h1v-2l-1,-1h-1v2v-2v1h-1v-1h1h-1v-1l-2,-2h-3v-4v1l-1,1l-1,1v-2l1,-1h-1v-1h-2l-3,1h-1v-1h-2v-1h-1v-1h-2v-1h-1v-1h-1l-1,-1h-4l-2,-1v-1h-1l-1,-1v-1h-1l-5,-4h-1v-1l-1,-1v-3h-1v-3v1h1v-1h-1v-1l1,-1v-2h1l-1,-1l-1,-3v-1h-1v-1h-1v3h-5l-1,-1l-1,-2l-1,-1h-2l-3,-3h-1v-1h-1v-1l-1,-1h3v-1h-1v-2h1l1,1h1v-1h1h-2v-1l1,-1v-1h-3v-2h-3v-4l2,1v-1l1,-1l-2,-1v1h-1v1l-1,-3l-1,1v1h-1l-1,-1v-1l1,-1h-3h1l-2,-2v-1h-1v1h-1l1,1h-1v1h-1v-1h1v-1l-2,-2v-1l1,-1h1v-1h-1v1h-6v-1l2,-2h-1v-4h1v1l1,-1h1v-1h-1l-1,-1v-2l-1,-2l-2,-3h8v-1h-1l-1,-1h-1l-2,-2l1,-1h1l2,-1v-1l-2,-4l-2,-2l-4,-3h-1l-2,-1l-4,-4v-2l-2,-3l-2,-2v-1l-2,-1l-2,-3l-1,-2h-1v-1l-9,-6h-2l-4,-3l-4,1l-3,-2l-1,-3h-1l-7,-6l-1,-2v-1h1v-3l-2,-2l-2,-4l-4,-2v-8l-6,-11l-3,-2l-3,-4v-1l-1,-1l-2,-1l-4,-3l-4,-4h-2l-1,-2h-1l-1,-1h-1l-1,-1l-1,-1l-3,-1h-3l-11,-10l-5,-7l-5,-2l-6,-4l-1,-3l-2,-3l-1,-3l-2,-4v-2l1,-1l-3,-3l-3,-4v-1l-1,-1l-3,-1l-1,-2l1,-4l-3,-4l-1,-1v-1l-1,-1l-10,-8l-4,-14h-1v-12l-1,-3v-1h-1l-1,-1l-3,-5l-1,-2l-1,-2v-2l-2,-4h-1l-1,-1v-1l-2,-2l-4,1l-3,-9v-14l-9,-9l-1,1h-16v1h-1l-1,1l-2,-1l-6,-2l-2,-2l-1,-2l-4,-5v-1l-5,-2v-1l-3,-3l-1,-1l-2,-1l-2,-1l-2,-6l-1,-3l-5,-1l-3,-1h-4l-4,-3l-5,-5l-1,-1h-1v-1l-2,-1h-1l-1,-2v-1l-1,-1h-2l-1,-1v-1h-1l-1,-1h-2v-2l-1,-1l-1,-1v-1h1l-1,-1v-7l2,-1h1l1,-1v-2h1v-1h2l-1,-1l1,-1h-1v-1h1l-1,-2v-3l1,-1l1,-1l2,-1h1v-1l-1,-2v-1l1,1l1,1l1,-2v-1h1l1,1l1,1l1,-1v-6l1,-1h1v1h2l-1,-1v-1h1v-3l1,1h1l1,-2l-2,-1h2l1,-1v1h2v-2l1,-1v2h2l1,-1l-1,-1v-1h1l1,-1v-1l1,1l1,-1l3,-2v-2h2v-3h1v1h1l1,1l2,-1v-1h1h-1v-1h1l2,1h1v-1l-2,-3h-1v-1l1,-1l1,1v-4l1,-1h1v-2l2,-1v-1l-1,-1h1l-1,-2l9,-3l8,-2l24,-7l23,-7l1,1v3l-1,1v1h2v-1h2l1,-1v-2h2v1h1v-1l1,-1l1,-1v-1h3l1,-1l2,-1v1h1v-1h1l1,-1v-1h-1v-1h-1l1,-1h1v-2h1l1,-1v4v-1h3l1,-1v-1h2v-1h1v1h2v-1h1v-1h2l1,-1h1l1,1l1,-1h1v-1h3l1,-1l1,-1l1,1v-1l1,-2h1l2,1v1l1,-1h3v-1h2l1,-1v1h2h-1l1,-1v-1h2l1,-1v1h1v-1h3v1l-1,1l1,1l1,-1v1l1,-1h2v-1h1l1,-2l-1,-1l1,-1v-1l1,-1v-1h3l1,-1h1l-1,-1h1v-1h2l1,1l-1,1l1,1v2l-1,1h1v1l1,1l1,-1h1v-1l1,-1v1h1l1,-1h1v1h2l1,1h1v-1h1l2,-1h2l4,-2l5,1h5l1,1h1l29,1h4l13,1h2l18,1l7,1l14,1l32,1h6l7,1h6l11,1h17l6,1h2l25,2l32,1l-3,1v2l1,3v6l-3,5l1,5l1,1l1,2h2l9,-6l2,-2l5,-4l4,-3v2l3,3l3,3l10,15l2,3l1,1l5,6l2,3l3,6l-2,24v4h122l6,1h42l3,1h2l26,-1h19l29,28l5,5l9,8l2,3l13,13l2,1l2,2l1,1l1,1l1,1h1v1l7,8l11,11l2,1l2,3l3,3l4,4l18,18l4,3l1,2h1l2,2l3,3l3,3h1l11,12l22,21l28,29l12,10l2,3l4,2v1l9,9l2,3h1l2,2v9l-23,9l-15,10l-12,9l-12,13l-21,26l-4,9l-11,11l-13,28v6l-4,4l1,7l-3,9v15l-4,-13l-1,-11l-11,2l-3,-4l5,-12l8,-14l-9,11l-1,-3l-7,14v8l8,10l8,2l2,8l5,3l-2,7l-8,6l-2,-6l-5,-4l-6,4l5,2l5,6l-3,4l-1,-5l-10,-1l-17,-8v1l10,6l5,1h2l8,3l1,3l-20,14l-2,4l-9,-5l1,13l-11,2l-11,-7l-10,8l-7,11v5l-5,1l-16,19l-3,-3ZM811,538l5,3l-8,2l-2,-5ZM759,572l16,-6l-1,6l-9,3l-5,5l-5,-8ZM756,576l3,4l-8,6l-4,-2l3,-5ZM748,590l-6,1l3,-7ZM728,604h-1l15,-12l3,4ZM715,616l-3,8l-6,-5ZM606,672v-1h1v-5l-1,-1v-2h4l7,9l-11,7ZM603,695l-1,8l-5,8l-6,-6l2,-5l9,-8ZM593,709l5,5l-6,2l-17,10l-2,-4l4,-8h7l4,-5ZM558,672h9l5,3l5,-1l2,6l-4,2l18,3l4,8l-1,4l-8,2l-11,6l3,7l-9,12l-7,6l-5,-1l1,-8l-1,-18l-5,1v-12l3,-6l-7,-4v-9ZM588,675l5,4l-3,3l-10,-2v-8ZM550,673h-1v9l5,1l-3,5l2,13l-4,1l6,6v12l-7,-3l-9,-10l-8,-12v-1l-3,-8l-2,-9l4,-2l2,-10l11,-2l9,5ZM543,727l10,8l1,5l-6,6l-6,10l-17,10l-3,-2l7,-9l3,-14l-1,-3l7,-1ZM541,717l-4,1l-7,-8l2,-2ZM539,727l-3,9l-5,1l6,-12ZM521,760l-7,11l-6,-2l1,-9l12,-4ZM511,755l-3,9l-6,-1ZM507,773l4,-1l-2,6l-5,-1ZM504,772l-1,6l6,4h-5l-8,-9Z"/>
<g class="geos"><path data-name="Chester" class="geo-023" d="M508,116l4,7v15l3,8l-4,3l-2,9l2,18l1,6l-27,-1l-17,-2h-11l-22,-2l-30,-2l1,-15l-8,-9v-12l-6,-3l6,-6v-8l-5,-6Z"/><path data-name="Saluda" class="geo-081" d="M315,279v-8l4,-2l16,3l7,-5l5,4l16,7l1,4l8,3l3,3l12,6h7l-5,14l-4,6l-11,28l-16,14l-22,-6l-10,-6h-5l-6,-6l-5,-21h-7l-15,3l3,-8l9,-9l6,-13Z"/><path data-name="Williamsburg" class="geo-089" d="M711,339l9,1l6,11h12l3,5h8l10,-1l3,3l23,6l14,-2l10,-6v-3l12,5l1,4l-4,3l-3,7l-11,13l-2,11l-2,5v11l-10,9l-1,4l-10,6l-10,13l-1,5l-7,11l-9,9v9l-6,-4h-6l-5,-4l-4,-8l-16,-9l-1,-7l-20,-15h-26l-1,2l3,-9l9,-17l9,-25l4,-4l-5,-11l11,-10l5,-2Z"/><path data-name="Dorchester" class="geo-035" d="M529,509l24,-16l13,-7l6,-5l16,-9l2,13l11,5l7,-2l7,2l6,7v6l7,7l-6,6l10,7l7,6l20,17l-4,2l5,7l1,-3l5,3l-4,2l6,7l4,5l-3,10l-5,-2l-7,4v4l-5,-3v5l7,8h-5l-24,-7l-22,-3v-19l-3,-5l1,-14l4,-6l-10,-1l-2,-3l-15,-1l-9,2l-10,-1l-9,-7l-13,-19Z"/><path data-name="Berkeley" class="geo-015" d="M639,529l-7,-6l-10,-7l6,-6l-7,-7v-6l-6,-7l2,-5l7,3l5,-1l8,-7l3,-12v-10l4,-2l-1,-11l2,-2l13,1l3,-4l-4,-5l5,-4l5,2l1,-2h26l20,15l1,7l16,9l4,8l5,4h6l6,4l8,1l7,5l9,1l5,6l17,4l1,3l-5,2l-9,11v3l-6,-1l-15,4l-4,3l-3,7l-13,15l-1,4l-8,10v9l-6,1l-5,3l-1,-1l-3,4l-3,9l-4,-1l-5,5l1,6h-6v-6h-1v-1l-4,1l-1,-8l6,-5l-1,-4l-3,4l-8,2l-5,1l-2,-5l-4,-8l1,-7l-3,-3l-11,1l-8,-7Z"/><path data-name="Greenwood" class="geo-047" d="M241,213l5,6l8,4l3,9l8,3v3l9,2l6,8l9,6l3,-1l8,10l9,6l1,8l5,2l-9,11l-6,13l-9,9l-3,8l-8,3v-8l-5,2l-16,-3l-2,3l-10,-2l-6,-8l-9,9l-4,-3l-4,-18l13,-10l5,-13v-9l-4,-10l-9,-8v-11l-5,-5Z"/><path data-name="Marlboro" class="geo-069" d="M699,118l2,1h2l26,-1h19l18,18l11,10l5,5l9,8l2,3l-15,35l-8,15l-5,12l-7,16l-5,-2v-5l-7,-7l2,-11h-6l-1,-4l-6,-4l-1,-8h5l-1,-8l-8,-2l1,3l-7,3l-6,-5l1,-6l4,-19l5,-1l-6,-10h-4l-9,-9l-4,-12l-6,-5Z"/><path data-name="Bamberg" class="geo-009" d="M443,446l3,1l4,6l1,1h4l1,1l2,1l4,3h2l1,1l5,2l2,1l5,4l2,2l6,2l2,1l1,1l2,1l2,1l3,2l1,1l1,1l1,-1l4,4l2,2l6,4l9,8v5l10,9l-20,12l3,7l-3,8l-9,-10l-29,19l-3,-6l-6,-1l-13,-15l-6,-9l1,-11v-34l1,-17Z"/><path data-name="Darlington" class="geo-031" d="M674,195l12,-3l6,3l11,-2l2,1h4l3,-6l1,-1l1,-1l5,-2l-1,6l6,5l7,-3l-1,-3l8,2l1,8h-5l1,8l6,4l1,4h6l-2,11l7,7v5l-6,5l-8,-3l-4,12l-12,-1l-20,17l-32,23l-9,-9l-8,-9l10,-8v-8l-13,-21l-1,-12l-5,7l-8,3l-1,-4l-8,-5v-1Z"/><path data-name="Aiken" class="geo-003" d="M358,356l16,-14l6,5l1,6l6,5l9,3l6,6l1,7l6,3l4,1h2l2,1l6,3h3l2,3h2l4,2l1,1h2l3,2l2,1h1v1l3,2l1,1h4l-21,23l-17,16l-18,17l-21,18l-4,5l-34,30l-1,-1l-1,-3v-1h-1v-1h-1v3h-5l-1,-1l-1,-2l-1,-1h-2l-3,-3h-1v-1h-1v-1l-1,-1h3v-1h-1v-2h1l1,1h1v-1h1h-2v-1l1,-1v-1h-3v-2h-3v-4l2,1v-1l1,-1l-2,-1v1h-1v1l-1,-3l-1,1v1h-1l-1,-1v-1l1,-1h-3h1l-2,-2v-1h-1v1h-1l1,1h-1v1h-1v-1h1v-1l-2,-2v-1l1,-1h1v-1h-1v1h-6v-1l2,-2h-1v-4h1v1l1,-1h1v-1h-1l-1,-1v-2l-1,-2l-2,-3h8v-1h-1l-1,-1h-1l-2,-2l1,-1h1l2,-1v-1l-2,-4l-2,-2l-4,-3h-1l-2,-1l-4,-4v-2l-2,-3l-2,-2v-1l23,-23Z"/><path data-name="Laurens" class="geo-059" d="M262,123l8,8l5,2l2,10l13,10l10,3l5,8l7,5h7l20,8l19,4l3,4l-9,14l-10,10l-14,20h-5l-5,7l-5,1l-4,12l-9,14l-8,-10l-3,1l-9,-6l-6,-8l-9,-2v-3l-8,-3l-3,-9l-8,-4l-5,-6l-12,-14v-4l15,-12v-14l7,-16l5,-14Z"/><path data-name="Newberry" class="geo-071" d="M342,209l10,-10l9,-14l5,1l12,12l4,6l11,-9l10,-1h1l1,8l5,18l4,8l1,8l6,7l-1,6l5,6l-6,8l2,2l-9,5h-4l-7,11l4,4l5,10l-8,-3l-8,2h-7l-12,-6l-3,-3l-8,-3l-1,-4l-16,-7l-5,-4l-7,5l-16,-3l-4,2v8l-5,-2l-1,-8l-9,-6l9,-14l4,-12l5,-1l5,-7h5Z"/><path data-name="Lexington" class="geo-063" d="M421,265l3,2l5,7l-3,5l6,9h13l8,3l7,5l9,13l6,2l10,19l1,11l-6,2v10l-4,20l5,1v-5l6,-4h9l6,5l-5,5l-13,4l-5,4l-9,2l-19,10h-4l-1,-1l-3,-2v-1h-1l-2,-1l-3,-2h-2l-1,-1l-4,-2h-2l-2,-3h-3l-6,-3l-2,-1h-2l-4,-1l-6,-3l-1,-7l-6,-6l-9,-3l-6,-5l-1,-6l-6,-5l11,-28l4,-6l5,-14l8,-2l8,3l-5,-10l-4,-4l7,-11h4Z"/><path data-name="Anderson" class="geo-007" d="M196,114l5,10l-2,8l1,7h1l-2,2l2,6v14l5,5l2,12l6,3l4,7h4l7,7l-18,13l-16,13l-13,9l-39,29h-1v-12l-1,-3v-1h-1l-1,-1l-3,-5l-1,-2l-1,-2v-2l-2,-4h-1l-1,-1v-1l-2,-2l-7,-16v-8l-9,-7l-1,1h-16v1v-1l20,-21l7,-9l2,-2l1,-1l8,-9l7,-5l15,-8l17,-11Z"/><path data-name="Beaufort" class="geo-013" d="M521,654v-8l-3,-2l-4,-11l9,-10v1l9,5h13l2,3l7,-2l-3,7h4l1,8l7,7h10v4h4l3,9l4,4h-8l-3,-9l-5,1l6,5l2,5l-5,1l-4,-4l-10,1l-4,-3l-15,-4l-7,2l-1,8l-5,1l-6,-9ZM498,760l-1,-10l-9,-5l-3,-5l1,-9l4,-3l-3,-10l14,2l3,-13l8,1l4,-7h4l9,10l-2,10h-3l-11,-5l8,6l5,1l4,-9l6,11l-7,10l1,8l-11,-2l11,5l-19,14l1,-4l-4,-3l-2,6ZM520,695l2,-2l7,5l1,10l-7,-4ZM521,692l-3,-4l4,-6l3,6ZM603,695l-1,8l-5,8l-6,-6l2,-5l9,-8ZM593,709l5,5l-6,2l-17,10l-2,-4l4,-8h7l4,-5ZM558,672h9l5,3l5,-1l2,6l-4,2l18,3l4,8l-1,4l-8,2l-11,6l3,7l-9,12l-7,6l-5,-1l1,-8l-1,-18l-5,1v-12l3,-6l-7,-4v-9ZM588,675l5,4l-3,3l-10,-2v-8ZM550,673h-1v9l5,1l-3,5l2,13l-4,1l6,6v12l-7,-3l-9,-10l-8,-12v-1l-3,-8l-2,-9l4,-2l2,-10l11,-2l9,5ZM543,727l10,8l1,5l-6,6l-6,10l-17,10l-3,-2l7,-9l3,-14l-1,-3l7,-1ZM541,717l-4,1l-7,-8l2,-2ZM539,727l-3,9l-5,1l6,-12ZM521,760l-7,11l-6,-2l1,-9l12,-4ZM511,755l-3,9l-6,-1Z"/><path data-name="Pickens" class="geo-077" d="M116,56l23,-7l1,1v3l-1,1v1h2v-1h1l2,5l15,-4l7,1l6,-3l4,3l1,10l-2,2l11,-1v6l4,12l-1,4l6,6l1,19l-24,13l-17,11l-15,8l-7,5l-8,9l-3,-3l5,-5l-4,-3l-2,-8l1,-7l-7,-1l2,-6l3,-7l-5,-3l-1,-33l-6,-9l1,-8l4,1l-1,-7Z"/><path data-name="Kershaw" class="geo-055" d="M511,203l27,-20v13h7l2,-7h2l6,9l10,-5l6,2l11,-4l-4,-6l-1,-7l28,-13l4,5l2,11l3,4l5,5l2,8l1,12l4,5l2,2l1,3h-1v1l1,1l-1,1v2l-7,6h-8l3,9h-7l-10,4l2,2v12l-6,5v6l-5,3l-19,16h-7l-16,5l-5,2l-16,-16l-13,-10l8,-21l11,-26l-4,-8h-7Z"/><path data-name="Greenville" class="geo-045" d="M142,54h1l1,-1v-2h2v1h1v-1l1,-1l1,-1v-1h3l1,-1l2,-1v1h1v-1h1l1,-1v-1h-1v-1h-1l1,-1h1v-2h1l1,-1v4v-1h3l1,-1v-1h2v-1h1v1h2v-1h1v-1h2l1,-1h1l1,1l1,-1h1v-1h3l1,-1l1,-1l1,1v-1l1,-2h1l2,1v1l1,-1h3v-1h2l1,-1v1h2h-1l1,-1v-1h2l1,-1v1h1v-1h3v1l-1,1l1,1l1,-1v1l1,-1h2v-1h1l1,-2l-1,-1l1,-1v-1l1,-1v-1h3l1,-1h1l-1,-1h1v-1h2l1,1l-1,1l1,1v2l-1,1h1v1l1,1l1,-1h1v-1l1,-1v1h1l1,-1h1v1h2l1,1h1v-1h1l2,-1h2l4,-2l5,1h5l1,1h1l-1,19v31l-1,1l-1,31l9,7l2,6l4,3l-6,16l-5,14l-7,16v14l-15,12l-7,-7h-4l-4,-7l-6,-3l-2,-12l-5,-5v-14l-2,-6l2,-2h-1l-1,-7l2,-8l-5,-10l-1,-19l-6,-6l1,-4l-4,-12v-6l-11,1l2,-2l-1,-10l-4,-3l-6,3l-7,-1l-15,4Z"/><path data-name="Florence" class="geo-041" d="M753,238l5,2l2,-1l13,10l2,7l1,5l-5,8l10,12l-2,7l4,17l-1,8l7,5l-2,6l9,5l4,6l8,5l4,8h6l5,8l-2,2l-12,-5v3l-10,6l-14,2l-23,-6l-3,-3l-10,1h-8l-3,-5h-12l-6,-11l-9,-1l-15,-1l-5,-14l16,-10l-2,-3l-11,-4l-8,-6l-5,-7l-10,-3l32,-23l20,-17l12,1l4,-12l8,3Z"/><path data-name="Sumter" class="geo-085" d="M564,288h7l19,-16v13l16,8h17l4,10l6,1l2,7l6,3l8,-3l1,13l10,-5l12,-9h9l5,-9l8,6l11,4l2,3l-16,10l-21,13l-7,6h-4l-13,8l-12,10l-1,2l-26,5l1,13l-7,1l1,-5l-5,-2v5l-6,1l-3,9l-7,8l-11,-9l-2,-5l-4,-2v-8l4,-10l-2,-6l-5,-25l2,-12l-4,-9l7,-6l-1,-8l-5,-7Z"/><path data-name="Orangeburg" class="geo-075" d="M443,446h-4l-8,-6l-2,-3l-12,-1l-4,-2l17,-16l21,-23l19,-10l9,-2l11,15l4,4l6,-3v8l12,-3l15,3l21,19v5l7,8l10,1l-1,-10l5,-7l-3,-3l4,-3h10l7,7l1,-6l10,4l-4,4l2,6l4,-1l1,7l15,11l10,-3l17,-1l1,11l-4,2v10l-3,12l-8,7l-5,1l-7,-3l-2,5l-7,-2l-7,2l-11,-5l-2,-13l-16,9l-6,5l-13,7l-24,16v1l-10,-9v-5l-9,-8l-6,-4l-2,-2l-4,-4l-1,1l-1,-1l-1,-1l-3,-2l-2,-1l-2,-1l-1,-1l-2,-1l-6,-2l-2,-2l-5,-4l-2,-1l-5,-2l-1,-1h-2l-4,-3l-2,-1l-1,-1h-4l-1,-1l-4,-6Z"/><path data-name="Spartanburg" class="geo-083" d="M279,26h4l13,1h2l18,1l9,18l5,13l3,5l7,25l4,-1l4,6l-14,17l-8,38l-4,8l-3,12h-7l-7,-5l-5,-8l-10,-3l-13,-10l-2,-10l-5,-2l-8,-8l-4,-3l-2,-6l-9,-7l1,-31l1,-1v-31l1,-19Z"/><path data-name="Marion" class="geo-067" d="M775,256v-5l9,-4l4,-5l15,-4l8,1l11,7l5,-2l5,4h10l7,-7l9,8l-2,11h-3l-8,8l-5,11v5l-5,4l1,8l-12,6l-2,9h-3v10l3,2l1,7l11,8v14l5,14l8,9l1,5l-11,3l-8,-5v-6l-7,-10l-1,-4l2,-2l-5,-8h-6l-4,-8l-8,-5l-4,-6l-9,-5l2,-6l-7,-5l1,-8l-4,-17l2,-7l-10,-12l5,-8Z"/><path data-name="Charleston" class="geo-019" d="M722,570h1l6,-4l6,-1v-9l8,-10l1,-4l13,-15l3,-7l4,-3l15,-4l6,1v-3l9,-11l5,-2l9,8v1l10,6l5,1h2l8,3l1,3l-20,14l-2,4l-9,-5l1,13l-11,2l-11,-7l-10,8l-7,11v5l-5,1l-16,19l-3,-3l-3,5l-2,-1l-5,11l8,-2l-21,12l-4,-5h-7v-7l5,-5l-2,-5l11,-4ZM639,664h-7l-7,3l-5,5v-3l-9,-7l-5,-2l5,-4l-2,-6l2,-7l-6,3l-2,-5l4,-1l3,-5l-5,-3l1,-7l-7,-8v-9l4,-8l4,-3l1,-12l22,3l24,7h5l-7,-8v-5l5,3v-4l7,-4l5,2l3,-10l-4,-5l-6,-7l4,-2l-5,-3l-1,3l-5,-7l4,-2l8,7l11,-1l3,3l-1,7l4,8l2,5l5,-1l8,-2l-4,10l7,5l1,13v6l-4,-2h-1l-3,-3l1,-10l-4,-3l-7,3l-5,-3l7,5l8,-1l-1,9l9,9l10,1l-3,6l-10,2l2,2l-5,12l-10,5l1,-8l-4,7h-5l-8,6h-8l5,3l11,-8h5l7,4l-4,3l-5,-1l-22,7l-7,6l-4,-9l-4,2l-7,-7v-7l5,-3l-2,-4h5l9,-8v-1l-7,-1l-4,8h-5l1,6h-5l-4,8l-6,-4l2,8l13,2l10,9ZM811,538l5,3l-8,2l-2,-5ZM759,572l16,-6l-1,6l-9,3l-5,5l-5,-8ZM756,576l3,4l-8,6l-4,-2l3,-5ZM748,590l-6,1l3,-7ZM728,604h-1l15,-12l3,4ZM715,616l-3,8l-6,-5Z"/><path data-name="Edgefield" class="geo-037" d="M280,323l8,-3l15,-3h7l5,21l6,6h5l10,6l22,6l-49,45l-23,23l-2,-1l-2,-3l-1,-2h-1v-1l-9,-6h-2l-4,-3l4,-9l-2,-5h-4l-4,-8l-4,-1l-2,-10l3,-2l-1,-7l11,-13l-8,-13v-12Z"/><path data-name="Oconee" class="geo-073" d="M50,98h2v-2l1,-1v2h2l1,-1l-1,-1v-1h1l1,-1v-1l1,1l1,-1l3,-2v-2h2v-3h1v1h1l1,1l2,-1v-1h1h-1v-1h1l2,1h1v-1l-2,-3h-1v-1l1,-1l1,1v-4l1,-1h1v-2l2,-1v-1l-1,-1h1l-1,-2l9,-3l8,-2l24,-7l-4,5l1,7l-4,-1l-1,8l6,9l1,33l5,3l-3,7l-2,6l7,1l-1,7l2,8l4,3l-5,5l3,3l-1,1l-2,2l-7,9l-20,21v1h-1l-1,1l-2,-1l-6,-2l-2,-2l-1,-2l-4,-5v-1l-5,-2v-1l-3,-3l-1,-1l-2,-1l-2,-1l-2,-6l-1,-3l-5,-1l-3,-1h-4l-4,-3l-5,-5l-1,-1h-1v-1l-2,-1h-1l-1,-2v-1l-1,-1h-2l-1,-1v-1h-1l-1,-1h-2v-2l-1,-1l-1,-1v-1h1l-1,-1v-7l2,-1h1l1,-1v-2h1v-1h2l-1,-1l1,-1h-1v-1h1l-1,-2v-3l1,-1l1,-1l2,-1h1v-1l-1,-2v-1l1,1l1,1l1,-2v-1h1l1,1l1,1l1,-1v-6l1,-1h1v1h2l-1,-1v-1h1v-3l1,1h1l1,-2l-2,-1h2l1,-1Z"/><path data-name="Colleton" class="geo-029" d="M478,555l-7,-9l29,-19l9,10l3,-8l-3,-7l20,-12v-1l13,2l13,19l9,7l10,1l9,-2l15,1l2,3l10,1l-4,6l-1,14l3,5v19l-1,12l-4,3l-4,8v9l7,8l-1,7l5,3l-3,5l-4,1l2,5h1l1,-1h4l-2,1l-1,3v1l1,2v1h1v2h-1l-2,1h-1l-1,2v1l1,3v1l-7,1h4l1,-1l2,2v6h-7l-1,-1l-1,-1l-1,-1v-1l-4,-1h1v1h1l2,1v1l1,1l1,1l-6,1l-4,-3h-1l-5,-4l-3,-9h-6v-4h-10l-7,-7l-1,-8h-4l3,-7l-7,2l-2,-3h-13l-9,-5v-1l-5,-5l-4,-14l-5,-6l-1,-7l-16,-15l-2,-1l-6,-15ZM620,672l5,-5l7,-3h7l-14,11ZM606,672v-1h1v-5l-1,-1v-2h4l7,9l-11,7Z"/><path data-name="Hampton" class="geo-049" d="M471,546l7,9l6,5l6,15l2,1l16,15l1,7l5,6l4,14l5,5l-9,10l-5,8l-13,-3l2,-12l-4,-1l-3,-8l-6,-6l-22,20l-32,27v1h-1v-2l-1,-1v3h-1v-3h-2v1h-5v-1h-1l-2,-1h-2l-1,-1l1,-1l-1,-1h-1v1h-1h1v-2l-1,-1h-2l-2,-2v-1l-3,-4h-1l-1,-1l-1,-2h2l2,-1h-1v-2h1l2,-2h-1l-1,-1l-1,-1h2l-2,-6v-1l-1,-2l-1,1v-1l-2,-2v-1h1l1,-1l1,-2l-1,-1l-1,-1h2v-1l1,-2l12,-5l4,-7l13,-10l-3,-13l8,-4v-8l6,-5Z"/><path data-name="Abbeville" class="geo-001" d="M229,195v4l12,14l-17,16l5,5v11l9,8l4,10v9l-5,13l-13,10l-7,2l-18,-1l-4,-5l-11,2l-13,14v-2l1,-1l-3,-3l-3,-4v-1l-1,-1l-3,-1l-1,-2l-2,-8l-1,-1v-1l-1,-1l-10,-8l-4,-14l39,-29l13,-9l16,-13Z"/><path data-name="Horry" class="geo-051" d="M858,249l11,-12l3,3l3,3h1l11,12l22,21l28,29l12,10l2,3l4,2v1l9,9l2,3h1l2,2v9l-23,9l-15,10l-12,9l-12,13l-21,26l-20,1l1,-8h-5l-1,-12l-5,-1l-1,-6l-7,-5l-1,-5l-8,-9l-5,-14v-14l-11,-8l-1,-7l-3,-2v-10h3l2,-9l12,-6l-1,-8l5,-4v-5l5,-11l8,-8h3Z"/><path data-name="Cherokee" class="geo-021" d="M330,59l-5,-13l-9,-18l7,1l14,1l32,1h6l7,1h6l11,1h17l-7,10l-1,19h-12l-3,2v11l1,1l-2,12h2l1,17l3,6l-5,-7l-6,-2l-9,2l-5,-4l-9,3l-3,-6h-7l-6,-3l-4,-6l-4,1l-7,-25Z"/><path data-name="Lancaster" class="geo-057" d="M508,116l5,-5l-2,-4v-11l3,-2l-2,-13l-2,-5l-3,-4v-17l10,15l2,3l1,1l5,6l2,3l3,6l-2,24v4h46v3l9,9l5,14l4,6l8,5l-1,5l6,6l-28,13l1,7l4,6l-11,4l-6,-2l-10,5l-6,-9h-2l-2,7h-7v-13l-27,20l-3,-8l3,-2l1,-11l-1,-6l-2,-18l2,-9l4,-3l-3,-8v-15Z"/><path data-name="Allendale" class="geo-005" d="M449,524l13,15l6,1l3,6l-25,15l-6,5v8l-8,4l3,13l-13,10l-4,7l-12,5v-1h-2v-1h1v-3h-1v1v-1h-3v-2h3v-2h-3v-1v1h2v-1h-2l1,-1l1,-1l-1,-1l-1,-1h1v-2h1v-1l1,-1h-1l-1,-1l1,-2l-2,-3l-2,1l-1,-2h-1l-1,1l-1,-2h1v-5h-1l-2,-2v2l-1,-1v-2l1,-1v1h1l-1,-1v-3v2v-1h-2v-3l1,-1h-2l1,-1v-1l-4,-2v-3l-1,-2l-1,-1v-1l1,-2l1,2v-1h1v-2l1,-1v-1h-1h1v-1h-1l1,-2v-1l-2,-1h1v-1h1h-1v-1h-1v-1h-1v2h-1v-1l1,-1l-1,-2v-1h-2v-1l-1,-1h-1v-1l-1,1h-1v-2l-1,-1l-1,1h-2l-1,-1h1v-2l-1,-1h-1v2v-2v1h-1v-1h1h-1v-1l-2,-2h-3v-4v1l-1,1l-1,1v-2l1,-1h-1v-1l14,-15l35,12h18l6,-2Z"/><path data-name="Lee" class="geo-061" d="M662,282l9,9l10,3l5,7l-5,9h-9l-12,9l-10,5l-1,-13l-8,3l-6,-3l-2,-7l-6,-1l-4,-10h-17l-16,-8v-13l5,-3v-6l6,-5v-12l-2,-2l10,-4h7l-3,-9h8l7,-6l8,5l1,4l8,-3l5,-7l1,12l13,21v8l-10,8Z"/><path data-name="Clarendon" class="geo-027" d="M634,361l12,-10l13,-8h4l7,-6l21,-13l5,14l15,1l-8,16l-5,2l-11,10l5,11l-4,4l-9,25l-9,17l-3,9l-5,-2l-5,4l4,5l-3,4l-13,-1l-2,2l-17,1l-10,3l-15,-11l-1,-7l-4,1l-2,-6l4,-4l-10,-4l-3,-4l2,-4l-8,-9l2,-3l7,-8l3,-9l6,-1v-5l5,2l-1,5l7,-1l-1,-13l26,-5Z"/><path data-name="Fairfield" class="geo-039" d="M404,194l1,-19l30,2l22,2h11l17,2l27,1l-1,11l-3,2l3,8l11,11h7l4,8l-11,26l-15,2l-32,8l-5,3l-19,-1l3,6l-2,5l-9,-8l-6,1l-7,-8l-5,-1l-5,-6l1,-6l-6,-7l-1,-8l-4,-8l-5,-18Z"/><path data-name="Dillon" class="geo-033" d="M793,162l13,13l2,1l2,2l1,1l1,1l1,1h1v1l7,8l11,11l2,1l2,3l3,3l4,4l18,18l4,3l1,2h1l2,2l-11,12l-9,-8l-7,7h-10l-5,-4l-5,2l-11,-7l-8,-1l-15,4l-4,5l-9,4v5l-2,-7l-13,-10l-2,1l7,-16l5,-12l8,-15Z"/><path data-name="Jasper" class="geo-053" d="M458,708v1h-1v1h-2v-1h1v-1h-1v-2h-1l-1,-1v-1h-1h1v-1l-2,-2v-6h-1l-1,-1l-1,-1v-1l-1,-1l-1,-1v-4h1v-1h1h-2v-2h1l1,1v-1l1,-1v1v-1l1,-1v-1h-2v-1h-2v-1l-1,-2l-2,-1v-1h-1v-1l-1,-1l-1,-1l-1,-1l1,-1h1v-1h-1l-1,-1h-2l-5,-4v-4l-1,-1l32,-27l22,-20l6,6l3,8l4,1l-2,12l13,3l5,-8l4,11l3,2v8l-1,13l3,8l-2,7h1l-4,6l3,4l1,1l-2,2l-4,6l-4,7l-8,-1l-3,13l-14,-2l3,10l-4,3l-1,9l3,5l9,5l1,10l11,6l-4,6l-7,1l-8,-1l-2,-5l-8,4l-9,-3l-1,-1l-6,-5v-2l1,-5h-2v-2h-1v-1l-1,-1h1v-1h3v-1l-1,-3h-1l1,-1h1v-1h-1l-2,-1v-1l-2,-2l-1,-1v-1h-2l1,-1v-1h-1v-1l-1,-1v-2h2v-1l-1,-1l1,-1v-1h1l1,-1h-1l1,-1h1v-1h1v1l1,-1l-1,-1h1v-7h-1v1h-1v-4h-1v-2l1,-1h1l-1,-1h-1l-1,-1v-1ZM507,773l4,-1l-2,6l-5,-1ZM504,772l-1,6l6,4h-5l-8,-9Z"/><path data-name="McCormick" class="geo-065" d="M218,349h-2l-1,-2h-1l-1,-1h-1l-1,-1l-1,-1l-3,-1h-3l-11,-10l-5,-7l-5,-2l-6,-4l-1,-3l-2,-3l-1,-3l-2,-4l13,-14l11,-2l4,5l18,1l7,-2l4,18l4,3l9,-9l6,8l10,2l2,-3l16,3l5,-2v8l-22,5v12l8,13l-11,13l1,7l-3,2l2,10l4,1l4,8h4l2,5l-4,9l-4,1l-3,-2l-1,-3h-1l-7,-6l-1,-2v-1h1v-3l-2,-2l-2,-4l-4,-4v-6l-2,-7l-4,-4l-3,-2l-3,-4v-1l-1,-1l-2,-1l-4,-3Z"/><path data-name="Union" class="geo-087" d="M348,94l6,3h7l3,6l9,-3l5,4l9,-2l6,2l5,7l-5,5l5,6v8l-6,6l6,3v12l8,9l-1,15l-1,19h-1l-10,1l-11,9l-4,-6l-12,-12l-5,-1l-3,-4l-19,-4l-20,-8l3,-12l4,-8l8,-38Z"/><path data-name="Richland" class="geo-079" d="M522,248l-8,21l13,10l16,16l5,-2l16,-5l-4,3l5,7l1,8l-7,6l4,9l-2,12l5,25l2,6l-4,10l-5,-1l-2,-6l-8,4l-9,-1l-1,-4l-11,2l-15,-11h-9l2,-4l-6,1l-4,-5l-6,-1l-4,-7l-1,-11l-10,-19l-6,-2l-9,-13l-7,-5l-8,-3h-13l-6,-9l3,-5l-5,-7l-3,-2l-2,-2l6,-8l5,1l7,8l6,-1l9,8l2,-5l-3,-6l19,1l5,-3l32,-8Z"/><path data-name="Calhoun" class="geo-017" d="M490,398l-11,-15l5,-4l13,-4l5,-5l-6,-5h-9l-6,4v5l-5,-1l4,-20v-10l6,-2l4,7l6,1l4,5l6,-1l-2,4h9l15,11l11,-2l1,4l9,1l8,-4l2,6l5,1v8l4,2l2,5l11,9l-2,3l8,9l-2,4l3,4l-1,6l-7,-7h-10l-4,3l3,3l-5,7l1,10l-10,-1l-7,-8v-5l-21,-19l-15,-3l-12,3v-8l-6,3Z"/><path data-name="York" class="geo-091" d="M416,33l6,1h2l25,2l32,1l-3,1v2l1,3v6l-3,5l1,5l1,1l1,2h2l9,-6l2,-2l5,-4l4,-3v2l3,3l3,3v17l3,4l2,5l2,13l-3,2v11l2,4l-5,5h-115l5,-5l-3,-6l-1,-17h-2l2,-12l-1,-1v-11l3,-2h12l1,-19Z"/><path data-name="Barnwell" class="geo-011" d="M413,434l4,2l12,1l2,3l8,6h4l2,7l-1,17v34l-1,11l6,9h-11l-6,2h-18l-35,-12l-14,15h-2l-3,1h-1v-1h-2v-1h-1v-1h-2v-1h-1v-1h-1l-1,-1h-4l-2,-1v-1h-1l-1,-1v-1h-1l-5,-4h-1v-1l-1,-1v-3h-1v-3v1h1v-1h-1v-1l1,-1v-2h1l34,-30l4,-5l21,-18Z"/><path data-name="Georgetown" class="geo-043" d="M822,362l7,10v6l8,5l11,-3l7,5l1,6l5,1l1,12h5l-1,8l20,-1l-4,9l-11,11l-13,28v6l-4,4l1,7l-3,9v15l-4,-13l-1,-11l-11,2l-3,-4l5,-12l8,-14l-9,11l-1,-3l-7,14v8l8,10l8,2l2,8l5,3l-2,7l-8,6l-2,-6l-5,-4l-6,4l5,2l5,6l-3,4l-1,-5l-10,-1l-17,-8l-9,-8l-1,-3l-17,-4l-5,-6l-9,-1l-7,-5l-8,-1v-9l9,-9l7,-11l1,-5l10,-13l10,-6l1,-4l10,-9v-11l2,-5l2,-11l11,-13l3,-7Z"/><path data-name="Chesterfield" class="geo-025" d="M574,117h76l6,1h43v10l6,5l4,12l9,9h4l6,10l-5,1l-4,19l-5,2l-1,1l-1,1l-3,6h-4l-2,-1l-11,2l-6,-3l-12,3l-46,29v-1l1,-1l-1,-1v-1h1l-1,-3l-2,-2l-4,-5l-1,-12l-2,-8l-5,-5l-3,-4l-2,-11l-4,-5l-6,-6l1,-5l-8,-5l-4,-6l-5,-14l-9,-9Z"/></g>
  <path class="counties-mesh" d="M615,490l2,-5l7,3l5,-1l8,-7l3,-12v-10l4,-2l-1,-11l2,-2l13,1l3,-4l-4,-5l5,-4l5,2M699,572l-8,2l-5,1l-2,-5l-4,-8l1,-7l-3,-3l-11,1l-8,-7M288,320l-8,3v-8l-5,2l-16,-3l-2,3l-10,-2l-6,-8l-9,9l-4,-3l-4,-18l13,-10l5,-13v-9l-4,-10l-9,-8v-11l-5,-5l17,-16l5,6l8,4l3,9l8,3v3l9,2l6,8l9,6l3,-1l8,10l9,6l1,8l5,2M793,162l-15,35l-8,15l-5,12l-7,16l-5,-2v-5l-7,-7l2,-11h-6l-1,-4l-6,-4l-1,-8h5l-1,-8l-8,-2l1,3l-7,3l-6,-5l1,-6l4,-19l5,-1l-6,-10h-4l-9,-9l-4,-12l-6,-5v-10M520,695l2,-2M574,117v3l9,9l5,14l4,6l8,5l-1,5l6,6l4,5l2,11l3,4l5,5l2,8l1,12l4,5l2,2l1,3h-1v1l1,1l-1,1v1l46,-29l12,-3l6,3l11,-2l2,1h4l3,-6l1,-1l1,-1l5,-2M521,692l-3,-4l4,-6M365,529l14,-15l35,12h18l6,-2h11M669,579l-5,-2l-7,4v4l-5,-3v5l7,8h-5l-24,-7l-22,-3v-19l-3,-5l1,-14l4,-6l-10,-1l-2,-3l-15,-1l-9,2l-10,-1l-9,-7l-13,-19l-13,-2l24,-16l13,-7l6,-5l16,-9l2,13l11,5l7,-2l7,2l6,7v6l7,7l-6,6l10,7l7,6l20,17l-4,2l5,7l1,-3l5,3l-4,2l6,7l4,5l-3,10M799,498l-5,2l-9,11v3l-6,-1l-15,4l-4,3l-3,7l-13,15l-1,4l-8,10v9l-6,1M752,478l-6,-4h-6l-5,-4l-4,-8l-16,-9l-1,-7l-20,-15h-26l-1,2l3,-9l9,-17l9,-25l4,-4l-5,-11l11,-10l5,-2l8,-16l9,1l6,11h12l3,5h8l10,-1l3,3l23,6l14,-2l10,-6v-3l12,5l1,4l-4,3l-3,7l-11,13l-2,11l-2,5v11l-10,9l-1,4l-10,6l-10,13l-1,5l-7,11l-9,9v9l8,1l7,5l9,1l5,6l17,4l1,3l9,8M316,28l9,18l5,13l3,5l7,25l4,-1l4,6l-14,17l-8,38l-4,8l-3,12M498,760l-1,-10l-9,-5l-3,-5l1,-9l4,-3l-3,-10l14,2l3,-13l8,1l4,-7M374,342l-16,14M286,424l23,-23l49,-45l-22,-6l-10,-6h-5l-6,-6l-5,-21h-7l-15,3l3,-8l9,-9l6,-13l9,-11v-8l4,-2l16,3l7,-5l5,4l16,7l1,4l8,3l3,3l12,6h7l-5,14l-4,6l-11,28l6,5l1,6l6,5l9,3l6,6l1,7l6,3l4,1h2l2,1l6,3h3l2,3h2l4,2l1,1h2l3,2l2,1h1v1l3,2l1,1h4l-21,23l-17,16l-18,17l-21,18l-4,5l-34,30M250,25l-1,19v31l-1,1l-1,31l9,7l2,6l4,3l8,8l5,2l2,10l13,10l10,3l5,8l7,5h7l20,8l19,4l3,4l-9,14l-10,10l-14,20h-5l-5,7l-5,1l-4,12l-9,14M241,213l-12,-14v-4l15,-12v-14l7,-16l5,-14l6,-16M479,383l-9,2l-19,10M361,185l5,1l12,12l4,6l11,-9l10,-1h1l1,8l5,18l4,8l1,8l6,7l-1,6l5,6l-6,8l2,2l-9,5h-4l-7,11l4,4l5,10l-8,-3l-8,2M753,238l-6,5l-8,-3l-4,12l-12,-1l-20,17l-32,23l-9,-9l-8,-9l10,-8v-8l-13,-21l-1,-12l-5,7l-8,3l-1,-4l-8,-5v-1M142,54l2,5l15,-4l7,1l6,-3l4,3l1,10l-2,2l11,-1v6l4,12l-1,4l6,6l1,19l5,10l-2,8l1,7h1l-2,2l2,6v14l5,5l2,12l6,3l4,7h4l7,7l-18,13l-16,13l-13,9l-39,29M95,194v-1l20,-21l7,-9M479,469l6,2l2,1l1,1l2,1l2,1l3,2l1,1l1,1l1,-1l4,4l2,2l6,4l9,8v5l10,9l-20,12l3,7l-3,8l-9,-10l-29,19l-3,-6l-6,-1l-13,-15l-6,-9l1,-11v-34l1,-17l-2,-7l3,1l4,6l1,1h4l1,1l2,1l4,3h2l1,1l5,2l2,1l5,4l2,2M124,161l1,-1l8,-9l7,-5l15,-8l17,-11l24,-13M521,654v-8l-3,-2l-4,-11l9,-10v1l9,5h13l2,3l7,-2l-3,7h4l1,8l7,7h10v4M590,272v13l16,8h17l4,10l6,1l2,7l6,3l8,-3l1,13l10,-5l12,-9h9l5,-9l-5,-7l-10,-3M125,160l-3,-3l5,-5l-4,-3l-2,-8l1,-7l-7,-1l2,-6l3,-7l-5,-3l-1,-33l-6,-9l1,-8l4,1l-1,-7l4,-5M522,248l11,-26l-4,-8h-7l-11,-11l27,-20v13h7l2,-7h2l6,9l10,-5l6,2l11,-4l-4,-6l-1,-7l28,-13M443,446h-4l-8,-6l-2,-3l-12,-1l-4,-2M421,265l3,2l5,7l-3,5l6,9h13l8,3l7,5l9,13l6,2l10,19l1,11l-6,2v10l-4,20l5,1v-5l6,-4h9l6,5l-5,5l-13,4l-5,4l11,15l4,4l6,-3v8l12,-3l15,3l21,19v5l7,8l10,1l-1,-10l5,-7l-3,-3l4,-3h10l7,7l1,-6l10,4l-4,4l2,6l4,-1l1,7l15,11l10,-3l17,-1M529,509v1M691,324l-21,13l-7,6h-4l-13,8l-12,10l-1,2l-26,5l1,13l-7,1l1,-5l-5,-2v5l-6,1l-3,9l-7,8l-11,-9l-2,-5l-4,-2v-8l4,-10l-2,-6l-5,-25l2,-12l-4,-9l7,-6l-1,-8l-5,-7l4,-3l-16,5l-5,2l-16,-16l-13,-10l8,-21l-15,2l-32,8l-5,3l-19,-1l3,6l-2,5l-9,-8l-6,1l-7,-8l-5,-1M639,664h-7l-7,3l-5,5M605,646l-2,-5l4,-1l3,-5l-5,-3l1,-7l-7,-8v-9l4,-8l4,-3l1,-12M711,339l-15,-1l-5,-14l16,-10l-2,-3l-11,-4l-8,-6M265,408l4,-9l-2,-5h-4l-4,-8l-4,-1l-2,-10l3,-2l-1,-7l11,-13l-8,-13v-12l22,-5M406,613l12,-5l4,-7l13,-10l-3,-13l8,-4v-8l6,-5l25,-15M514,633l-5,8l-13,-3l2,-12l-4,-1l-3,-8l-6,-6l-22,20l-32,27M224,295l-7,2l-18,-1l-4,-5l-11,2l-13,14M858,249l11,-12M886,411l-20,1l1,-8h-5l-1,-12l-5,-1l-1,-6l-7,-5M416,33l-7,10l-1,19h-12l-3,2v11l1,1l-2,12h2l1,17l3,6l-5,-7l-6,-2l-9,2l-5,-4l-9,3l-3,-6h-7l-6,-3M508,116l4,7v15l3,8l-4,3l-2,9l2,18l1,6l-27,-1l-17,-2h-11l-22,-2l-30,-2l1,-15l-8,-9v-12l-6,-3l6,-6v-8l-5,-6h115l5,-5l-2,-4v-11l3,-2l-2,-13l-2,-5l-3,-4v-17M511,203l-3,-8l3,-2l1,-11M588,418l-3,-4l2,-4l-8,-9l2,-3M404,194l1,-19M398,111l-5,5M564,374l-5,-1l-2,-6l-8,4l-9,-1l-1,-4l-11,2l-15,-11h-9l2,-4l-6,1l-4,-5l-6,-1l-4,-7M628,225l-7,6h-8l3,9h-7l-10,4l2,2v12l-6,5v6l-5,3l-19,16h-7M758,240l2,-1l13,10l2,7l1,5l-5,8l10,12l-2,7l4,17l-1,8l7,5l-2,6l9,5l4,6l8,5l4,8h6l5,8l-2,2M775,256v-5l9,-4l4,-5l15,-4l8,1l11,7l5,-2l5,4h10l7,-7l9,8l-2,11h-3l-8,8l-5,11v5l-5,4l1,8l-12,6l-2,9h-3v10l3,2l1,7l11,8v14l5,14l8,9l1,5l-11,3l-8,-5v-6l-7,-10M523,623l-5,-5l-4,-14l-5,-6l-1,-7l-16,-15l-2,-1l-6,-15l-6,-5l-7,-9"/>
<g class="districts"><path data-name="Congressional District 1" class="district-4501" d="M486,731l4,-3l-3,-10l14,2l3,-13l8,1l4,-7h4l9,10l-2,10h-3l-11,-5l8,6l5,1l4,-9l6,11l-7,10l1,8l-11,-2l11,5l-19,14l1,-4l-4,-3l-2,6l-8,1l-1,-10l-9,-5l-3,-5ZM520,695l2,-2l7,5l1,10l-7,-4ZM521,692l-3,-4l4,-6l3,6ZM531,694l5,-4v-8h-7l2,-5l12,-5h6v10l5,1l-3,5l2,13l-4,1l6,6v12l-7,-3l-9,-10l-8,-12ZM587,669l6,-3v1h1l2,1v1l1,1l1,1l-6,1l-4,-3ZM599,671l-1,-1l-1,-1h-1v-2l4,-3h3l1,-1l2,2v6ZM606,672v-1l1,-2v-3l-1,-1v-2h4l7,9l-11,7ZM606,646l-3,-5l4,-1l3,-5l14,4l1,-2l2,8l13,2l10,9l-11,8l-14,11l-5,-3v-3l-9,-7l-5,-2l5,-4l-2,-6l2,-7l-6,3ZM649,648l2,-10l6,-6l4,1l9,-6l4,-4l-7,-4l-3,3l-9,-1v-1l1,-9l5,1l3,-9l-5,-8h-5l-24,-7l7,-14h-7v-4l6,-8l-8,-12v-11l7,-9l4,-1l-7,-6l22,-26l2,7l5,-7v-2h-1l-3,-12l23,-5l10,-11l9,1l1,-5l4,6l2,4l5,-4l9,12v8l-4,1l3,8l-5,3l-12,1l-6,3l-2,1l-5,8l8,9l1,7l-5,5l-5,11v18l3,10l-5,1l-2,-5l-2,-3l-11,-6l-3,3l4,5l-3,10l8,4l3,5l7,5l8,-1l-1,9l9,9l10,1l-3,6l-10,2l2,2l-5,12l-10,5l1,-8l-4,7h-5l-8,6h-8l5,3l11,-8h5l7,4l-4,3l-5,-1l-22,7l-7,6ZM703,591v-2h1l-1,-1h1h-1v-3h-1v-1l2,-9l16,-9l4,3l-1,-1l-3,4l-3,9l-4,-1l-5,5l1,6ZM723,569v1l6,-4l6,-1v-9l8,-10l1,-4l13,-15l3,-7l4,-3l15,-4l6,1v-3l9,-11l5,-2l9,8v1l10,6l5,1h2l8,3l1,3l-20,14l-2,4l-9,-5l1,13l-11,2l-11,-7l-10,8l-7,11v5l-5,1l-16,19l-3,-3l-3,5l-2,-1l-5,11l8,-2l-21,12l-4,-5h-7v-7l5,-5l-2,-5l11,-4l1,-11l1,-1ZM811,538l5,3l-8,2l-2,-5ZM759,572l16,-6l-1,6l-9,3l-5,5l-5,-8ZM756,576l3,4l-8,6l-4,-2l3,-5ZM748,590l-6,1l3,-7ZM728,604h-1l15,-12l3,4ZM715,616l-3,8l-6,-5ZM603,695l-1,8l-5,8l-6,-6l2,-5l9,-8ZM593,709l5,5l-6,2l-17,10l-2,-4l4,-8h7l4,-5ZM558,672h9l5,3l5,-1l2,6l-4,2l18,3l4,8l-1,4l-8,2l-11,6l3,7l-9,12l-7,6l-5,-1l1,-8l-1,-18l-5,1v-12l3,-6l-7,-4v-9ZM588,675l5,4l-3,3l-10,-2v-8ZM543,727l10,8l1,5l-6,6l-6,10l-17,10l-3,-2l7,-9l3,-14l-1,-3l7,-1ZM541,717l-4,1l-7,-8l2,-2ZM539,727l-3,9l-5,1l6,-12ZM521,760l-7,11l-6,-2l1,-9l12,-4ZM511,755l-3,9l-6,-1Z"/><path data-name="Congressional District 2" class="district-4502" d="M286,424l23,-23l49,-45l16,-14l11,-28l4,-6l5,-14l8,-2l8,3l-5,-10l-4,-4l7,-11h4l9,-5l-2,-2l6,-8l5,1l7,8l6,-1l9,8l2,-5l-3,-6l19,1l5,-3l32,-8l15,-2l-8,21l13,10l16,16l5,-2l-1,3v15l-25,2l-22,5l-5,6l-5,-3v-5h-5l5,-11l-1,-1l7,-6l2,2l7,-3l1,-9l-5,2l4,-7l-4,-5l1,-6l-6,-3l-3,4l-6,1v4l-8,-2l-7,1l-1,4h-10l6,10l-5,3l-2,2l9,13l6,2l10,19l1,11l-6,2v10l-4,20l5,1v-5l6,-4h9l6,5l-5,5l-13,4l-5,4l11,15l-2,9h-1l-3,3l3,4h-6l-5,1v5l-4,4l3,3h16l5,5l-2,5l9,6l12,4v3l1,3l-1,1l-5,8l2,13l-1,8l-1,5l-6,-4l-2,-2l-4,-4l-1,1l-1,-1l-1,-1l-3,-2l-2,-1l-2,-1l-1,-1l-2,-1l-6,-2l-2,-2l-5,-4l-2,-1l-5,-2l-1,-1h-2l-4,-3l-2,-1l-1,-1h-4l-1,-1l-4,-6l-3,-1l2,7l-1,17v34l-1,11l6,9h-11l-6,2h-18l-35,-12l-14,15h-2l-3,1h-1v-1h-2v-1h-1v-1h-2v-1h-1v-1h-1l-1,-1h-4l-2,-1v-1h-1l-1,-1v-1h-1l-5,-4h-1v-1l-1,-1v-3h-1v-3v1h1v-1h-1v-1l1,-1v-2h1l-1,-1l-1,-3v-1h-1v-1h-1v3h-5l-1,-1l-1,-2l-1,-1h-2l-3,-3h-1v-1h-1v-1l-1,-1h3v-1h-1v-2h1l1,1h1v-1h1h-2v-1l1,-1v-1h-3v-2h-3v-4l2,1v-1l1,-1l-2,-1v1h-1v1l-1,-3l-1,1v1h-1l-1,-1v-1l1,-1h-3h1l-2,-2v-1h-1v1h-1l1,1h-1v1h-1v-1h1v-1l-2,-2v-1l1,-1h1v-1h-1v1h-6v-1l2,-2h-1v-4h1v1l1,-1h1v-1h-1l-1,-1v-2l-1,-2l-2,-3h8v-1h-1l-1,-1h-1l-2,-2l1,-1h1l2,-1v-1l-2,-4l-2,-2l-4,-3h-1l-2,-1l-4,-4v-2l-2,-3l-2,-2Z"/><path data-name="Congressional District 3" class="district-4503" d="M25,139h1l-1,-1v-7l2,-1h1l1,-1v-2h1v-1h2l-1,-1l1,-1h-1v-1h1l-1,-2v-3l1,-1l1,-1l2,-1h1v-1l-1,-2v-1l1,1l1,1l1,-2v-1h1l1,1l1,1l1,-1v-6l1,-1h1v1h2l-1,-1v-1h1v-3l1,1h1l1,-2l-2,-1h2l1,-1v1h2v-2l1,-1v2h2l1,-1l-1,-1v-1h1l1,-1v-1l1,1l1,-1l3,-2v-2h2v-3h1v1h1l1,1l2,-1v-1h1h-1v-1h1l2,1h1v-1l-2,-3h-1v-1l1,-1l1,1v-4l1,-1h1v-2l2,-1v-1l-1,-1h1l-1,-2l9,-3l8,-2l24,-7l23,-7l1,1v3l-1,1v1h2v-1h1l2,5l15,-4l7,1l6,-3l4,3l1,10l-2,2l11,-1v6l4,12l-1,4l6,6l1,19l5,10l3,-3l10,2v8l-6,5l11,3l12,-3l1,7l11,-1l4,-2l3,-15l4,-5h4l4,3l8,8l5,2l2,10l13,10l10,3l5,8l7,5h7l20,8l19,4l3,4l-9,14l-10,10l9,6l2,6l14,12l-1,3l-3,1l-7,6l3,3l2,3l7,1l1,-2l4,4l3,5l-4,5l1,5l9,2l1,8l-8,11l12,6h7l-5,14l-4,6l-11,28l-16,14l-49,45l-23,23l-2,-1l-2,-3l-1,-2h-1v-1l-9,-6h-2l-4,-3l-4,1l-3,-2l-1,-3h-1l-7,-6l-1,-2v-1h1v-3l-2,-2l-2,-4l-4,-4v-6l-2,-7l-4,-4l-3,-2l-3,-4v-1l-1,-1l-2,-1l-4,-3l-4,-4h-2l-1,-2h-1l-1,-1h-1l-1,-1l-1,-1l-3,-1h-3l-11,-10l-5,-7l-5,-2l-6,-4l-1,-3l-2,-3l-1,-3l-2,-4v-2l1,-1l-3,-3l-3,-4v-1l-1,-1l-3,-1l-1,-2l-2,-8l-1,-1v-1l-1,-1l-10,-8l-4,-14h-1v-12l-1,-3v-1h-1l-1,-1l-3,-5l-1,-2l-1,-2v-2l-2,-4h-1l-1,-1v-1l-2,-2l-7,-16v-8l-9,-7l-1,1h-16v1h-1l-1,1l-2,-1l-6,-2l-2,-2l-1,-2l-4,-5v-1l-5,-2v-1l-3,-3l-1,-1l-2,-1l-2,-1l-2,-6l-1,-3l-5,-1l-3,-1h-4l-4,-3l-5,-5l-1,-1h-1v-1l-2,-1h-1l-1,-2v-1l-1,-1h-2l-1,-1v-1h-1l-1,-1h-2v-2l-1,-1l-1,-1v-1Z"/><path data-name="Congressional District 4" class="district-4504" d="M142,54h1l1,-1v-2h2v1h1v-1l1,-1l1,-1v-1h3l1,-1l2,-1v1h1v-1h1l1,-1v-1h-1v-1h-1l1,-1h1v-2h1l1,-1v4v-1h3l1,-1v-1h2v-1h1v1h2v-1h1v-1h2l1,-1h1l1,1l1,-1h1v-1h3l1,-1l1,-1l1,1v-1l1,-2h1l2,1v1l1,-1h3v-1h2l1,-1v1h2h-1l1,-1v-1h2l1,-1v1h1v-1h3v1l-1,1l1,1l1,-1v1l1,-1h2v-1h1l1,-2l-1,-1l1,-1v-1l1,-1v-1h3l1,-1h1l-1,-1h1v-1h2l1,1l-1,1l1,1v2l-1,1h1v1l1,1l1,-1h1v-1l1,-1v1h1l1,-1h1v1h2l1,1h1v-1h1l2,-1h2l4,-2l5,1h5l1,1h1l29,1h4l4,7l-2,3l8,8l4,10l7,5v5l12,2l5,-1l1,-5l8,-1l3,5l7,25l4,-1l4,6l-14,17l-8,38l-4,8l-3,12h-7l-7,-5l-5,-8l-10,-3l-13,-10l-2,-10l-5,-2l-8,-8l-4,-3h-4l-4,5l-3,15l-4,2l-11,1l-1,-7l-12,3l-11,-3l6,-5v-8l-10,-2l-3,3l-5,-10l-1,-19l-6,-6l1,-4l-4,-12v-6l-11,1l2,-2l-1,-10l-4,-3l-6,3l-7,-1l-15,4l-2,-5Z"/><path data-name="Congressional District 5" class="district-4505" d="M298,27l18,1l7,1l14,1l32,1h6l7,1h6l11,1h17l6,1h2l25,2l32,1l-3,1v2l1,3v6l-3,5l1,5l1,1l1,2h2l9,-6l2,-2l5,-4l4,-3v2l3,3l3,3l10,15l2,3l1,1l5,6l2,3l3,6l-2,24v4h46v3l9,9l5,14l4,6l8,5l-1,5l6,6l4,5l2,11l3,4l5,5l2,8l1,12l4,5l2,2l1,3h-1v1l1,1l-1,1v2l8,5l1,4l8,-3l5,-7l1,12l13,21v8l-10,8l8,9l9,9l10,3l5,7l-5,9h-9l-12,9l-10,5l-1,-13l-8,3l2,3l-4,11l6,2l-1,6l-8,-1l-4,4l-5,-4v-5l-5,-4l-7,1l1,9h3l1,7l4,1l4,10l6,7l-1,2l-26,5l1,13l-7,1l1,-5l-5,-2v5l-6,1l-3,9l-7,8l-11,-9l-2,-5l-4,-2v-8l4,-10l-2,-6l-5,-25l2,-12l-4,-9l7,-6l-1,-8l-5,-7l4,-3l-16,5l-5,2l-16,-16l-13,-10l8,-21l-15,2l-32,8l-5,3l-19,-1l3,6l-2,5l-9,-8l-6,1l-7,-8l-5,-1l-6,8l2,2l-9,5h-4l-7,11l4,4l5,10l-8,-3l-8,2h-7l-12,-6l8,-11l-1,-8l-9,-2l-1,-5l4,-5l-3,-5l-4,-4l-1,2l-7,-1l-2,-3l-3,-3l7,-6l3,-1l1,-3l-14,-12l-2,-6l-9,-6l10,-10l9,-14l-3,-4l-19,-4l-20,-8l3,-12l4,-8l8,-38l14,-17l-4,-6l-4,1l-7,-25l-3,-5l-8,1l-1,5l-5,1l-12,-2v-5l-7,-5l-4,-10l-8,-8l2,-3l-4,-7l13,1Z"/><path data-name="Congressional District 6" class="district-4506" d="M449,524l-6,-9l1,-11v-34l1,-17l-2,-7l3,1l4,6l1,1h4l1,1l2,1l4,3h2l1,1l5,2l2,1l5,4l2,2l6,2l2,1l1,1l2,1l2,1l3,2l1,1l1,1l1,-1l4,4l2,2l6,4l1,-5l1,-8l-2,-13l5,-8l1,-1l-1,-3v-3l-12,-4l-9,-6l2,-5l-5,-5h-16l-3,-3l4,-4v-5l5,-1h6l-3,-4l3,-3h1l2,-9l-11,-15l5,-4l13,-4l5,-5l-6,-5h-9l-6,4v5l-5,-1l4,-20v-10l6,-2l-1,-11l-10,-19l-6,-2l-9,-13l2,-2l5,-3l-6,-10h10l1,-4l7,-1l8,2v-4l6,-1l3,-4l6,3l-1,6l4,5l-4,7l5,-2l-1,9l-7,3l-2,-2l-7,6l1,1l-5,11h5v5l5,3l5,-6l22,-5l25,-2v-15l1,-3l16,-5l-4,3l5,7l1,8l-7,6l4,9l-2,12l5,25l2,6l-4,10v8l4,2l2,5l11,9l7,-8l3,-9l6,-1v-5l5,2l-1,5l7,-1l-1,-13l26,-5l1,-2l-6,-7l-4,-10l-4,-1l-1,-7h-3l-1,-9l7,-1l5,4v5l5,4l4,-4l8,1l1,-6l-6,-2l4,-11l-2,-3l8,-3l1,13l10,-5l12,-9h9l5,-9l8,6l11,4l2,3l6,2l-3,4l7,8l9,2l8,6l6,1l6,-6l-3,-6l6,-1l2,4l9,5l5,6l11,-2v7l-6,1l-1,5l-10,5l3,3l23,6l14,-2l10,-6v-3l12,5l1,4l-4,3l-3,7l-11,13l-2,11l-2,5v11l-10,9l-1,4l-10,6l-10,13l-1,5l-7,11l-9,9v9l8,1l7,5l9,1l5,6l17,4l1,3l-5,2l-9,11v3l-6,-1l-15,4l-4,3l-3,7l-13,15l-1,4l-8,10v9l-6,1l-5,3l-4,-3l-16,9l-2,9l-4,1l-1,-8l6,-5l-1,-4l-3,4l-4,10l7,5l1,13v1l-5,3l-3,-3l1,-10l-4,-3l-7,3l-5,-3l-3,-5l-8,-4l3,-10l-4,-5l3,-3l11,6l2,3l2,5l5,-1l-3,-10v-18l5,-11l5,-5l-1,-7l-8,-9l5,-8l2,-1l6,-3l12,-1l5,-3l-3,-8l4,-1v-8l-9,-12l-5,4l-2,-4l-4,-6l-1,5l-9,-1l-10,11l-23,5l3,12h1v2l-5,7l-2,-7l-22,26l7,6l-4,1l-7,9v11l8,12l-6,8v4h7l-7,14l24,7h5l5,8l-3,9l-5,-1l-1,9l-7,-1l-4,8h-5l1,6h-5l-4,8l-6,-4l-1,2l-14,-4l-3,5l-4,1l3,5l1,-1h4l-2,1l-1,3v1l1,2v1h1v2h-1l-3,1l-1,2v1l1,3v1l-7,1h1l-4,3l-4,-1h1l-6,3l-5,-4l-3,-9h-6h4l3,9l4,4h-8l-3,-9l-5,1l6,5l2,5l-5,1l-4,-4l-10,1l-4,-3l-15,-4l-7,2l-1,8l-5,1l-6,-9l2,-10l-1,13l3,8l-2,7h1l-4,6l3,4l1,1l-2,2l-4,6l-4,7l-8,-1l-3,13l-14,-2l3,10l-4,3l-1,9l3,5l9,5l1,10l11,6l-4,6l-7,1l-8,-1l-2,-5l-8,4l-9,-3l-1,-1l-6,-5v-2l1,-5h-2v-2h-1v-1l-1,-1h1v-1h3v-1l-1,-3h-1l1,-1h1v-1h-1l-2,-1v-1l-2,-2l-1,-1v-1h-2l1,-1v-1h-1v-1l-1,-1v-2h2v-1l-1,-1l1,-1v-1h1l1,-1h-1l1,-1h1v-1h1v1l1,-1l-1,-1h1v-7h-1v1h-1v-4h-1v-2l1,-1h1l-1,-1h-1l-1,-1v-1h-1v1h-1v1h-2v-1h1v-1h-1v-2h-1l-1,-1v-1h-1h1v-1l-2,-2v-6h-1l-1,-1l-1,-1v-1l-1,-1l-1,-1v-4h1v-1h1h-2v-2h1l1,1v-1l1,-1v1v-1l1,-1v-1h-2v-1h-2v-1l-1,-2l-2,-1v-1h-1v-1l-1,-1l-1,-1l-1,-1l1,-1h1v-1h-1l-1,-1h-2l-5,-4v-4l-1,-1v1h-1v-2l-1,-1v3h-1v-3h-2v1h-5v-1h-1l-2,-1h-2l-1,-1l1,-1l-1,-1h-1v1h-1h1v-2l-1,-1h-2l-2,-2v-1l-3,-4h-1l-1,-1l-1,-2h2l2,-1h-1v-2h1l2,-2h-1l-1,-1l-1,-1h2l-2,-6v-1l-1,-2l-1,1v-1l-2,-2v-1h1l1,-1l1,-2l-1,-1l-1,-1h2v-1l1,-2v-1h-2v-1h1v-3h-1v1v-1h-3v-2h3v-2h-3v-1v1h2v-1h-2l1,-1l1,-1l-1,-1l-1,-1h1v-2h1v-1l1,-1h-1l-1,-1l1,-2l-2,-3l-2,1l-1,-2h-1l-1,1l-1,-2h1v-5h-1l-2,-2v2l-1,-1v-2l1,-1v1h1l-1,-1v-3v2v-1h-2v-3l1,-1h-2l1,-1v-1l-4,-2v-3l-1,-2l-1,-1v-1l1,-2l1,2v-1h1v-2l1,-1v-1h-1h1v-1h-1l1,-2v-1l-2,-1h1v-1h1h-1v-1h-1v-1h-1v2h-1v-1l1,-1l-1,-2v-1h-2v-1l-1,-1h-1v-1l-1,1h-1v-2l-1,-1l-1,1h-2l-1,-1h1v-2l-1,-1h-1v2v-2v1h-1v-1h1h-1v-1l-2,-2h-3v-4v1l-1,1l-1,1v-2l1,-1h-1v-1l14,-15l35,12h18l6,-2ZM655,621l9,1l3,-3l7,4l-4,4l-9,6l-4,-1l-6,6l-2,10l-4,2l-7,-7v-7l5,-3l-2,-4h5ZM549,673v-1h-6l-12,5l-2,5h7v8l-5,4l-3,-8l-2,-9l4,-2l2,-10l11,-2l9,5l-2,5ZM507,773l4,-1l-2,6l-5,-1ZM504,772l-1,6l6,4h-5l-8,-9Z"/><path data-name="Congressional District 7" class="district-4507" d="M574,117h76l6,1h43l2,1h2l26,-1h19l18,18l11,10l5,5l9,8l2,3l13,13l2,1l2,2l1,1l1,1l1,1h1v1l7,8l11,11l2,1l2,3l3,3l4,4l18,18l4,3l1,2h1l2,2l3,3l3,3h1l11,12l22,21l28,29l12,10l2,3l4,2v1l9,9l2,3h1l2,2v9l-23,9l-15,10l-12,9l-12,13l-21,26l-4,9l-11,11l-13,28v6l-4,4l1,7l-3,9v15l-4,-13l-1,-11l-11,2l-3,-4l5,-12l8,-14l-9,11l-1,-3l-7,14v8l8,10l8,2l2,8l5,3l-2,7l-8,6l-2,-6l-5,-4l-6,4l5,2l5,6l-3,4l-1,-5l-10,-1l-17,-8l-9,-8l-1,-3l-17,-4l-5,-6l-9,-1l-7,-5l-8,-1v-9l9,-9l7,-11l1,-5l10,-13l10,-6l1,-4l10,-9v-11l2,-5l2,-11l11,-13l3,-7l4,-3l-1,-4l-12,-5v3l-10,6l-14,2l-23,-6l-3,-3l10,-5l1,-5l6,-1v-7l-11,2l-5,-6l-9,-5l-2,-4l-6,1l3,6l-6,6l-6,-1l-8,-6l-9,-2l-7,-8l3,-4l-6,-2l-2,-3l-11,-4l-8,-6l-5,-7l-10,-3l-9,-9l-8,-9l10,-8v-8l-13,-21l-1,-12l-5,7l-8,3l-1,-4l-8,-5v-2l1,-1l-1,-1v-1h1l-1,-3l-2,-2l-4,-5l-1,-12l-2,-8l-5,-5l-3,-4l-2,-11l-4,-5l-6,-6l1,-5l-8,-5l-4,-6l-5,-14l-9,-9Z"/></g>
  <path class="districts-mesh" d="M702,584l2,-9l16,-9l4,3M606,646l-3,-5l4,-1l3,-5l14,4l1,-2M655,620l1,-9l5,1l3,-9l-5,-8h-5l-24,-7l7,-14h-7v-4l6,-8l-8,-12v-11l7,-9l4,-1l-7,-6l22,-26l2,7l5,-7v-2h-1l-3,-12l23,-5l10,-11l9,1l1,-5l4,6l2,4l5,-4l9,12v8l-4,1l3,8l-5,3l-12,1l-6,3l-2,1l-5,8l8,9l1,7l-5,5l-5,11v18l3,10l-5,1l-2,-5l-2,-3l-11,-6l-3,3l4,5l-3,10l8,4l3,5M649,648l2,-10l6,-6l4,1l9,-6l4,-4l-7,-4l-3,3l-9,-1M729,566l6,-1v-9l8,-10l1,-4l13,-15l3,-7l4,-3l15,-4l6,1v-3l9,-11l5,-2l9,8M286,424l23,-23l49,-45l16,-14l11,-28l4,-6l5,-14l8,-2l8,3l-5,-10l-4,-4l7,-11h4l9,-5l-2,-2l6,-8l5,1l7,8l6,-1l9,8l2,-5l-3,-6l19,1l5,-3l32,-8l15,-2l-8,21l13,10l16,16l5,-2l-1,3v15l-25,2l-22,5l-5,6l-5,-3v-5h-5l5,-11l-1,-1l7,-6l2,2l7,-3l1,-9l-5,2l4,-7l-4,-5l1,-6l-6,-3l-3,4l-6,1v4l-8,-2l-7,1l-1,4h-10l6,10l-5,3l-2,2l9,13l6,2l10,19l1,11l-6,2v10l-4,20l5,1v-5l6,-4h9l6,5l-5,5l-13,4l-5,4l11,15l-2,9h-1l-3,3l3,4h-6l-5,1v5l-4,4l3,3h16l5,5l-2,5l9,6l12,4v3l1,3l-1,1l-5,8l2,13l-1,8l-1,5l-6,-4l-2,-2l-4,-4l-1,1l-1,-1l-1,-1l-3,-2l-2,-1l-2,-1l-1,-1l-2,-1l-6,-2l-2,-2l-5,-4l-2,-1l-5,-2l-1,-1h-2l-4,-3l-2,-1l-1,-1h-4l-1,-1l-4,-6l-3,-1l2,7l-1,17v34l-1,11l6,9h-11l-6,2h-18l-35,-12l-14,15M520,695l2,-2M521,692l-3,-4l4,-6M142,54l2,5l15,-4l7,1l6,-3l4,3l1,10l-2,2l11,-1v6l4,12l-1,4l6,6l1,19l5,10l3,-3l10,2v8l-6,5l11,3l12,-3l1,7l11,-1l4,-2l3,-15l4,-5h4l4,3l8,8l5,2l2,10l13,10l10,3l5,8l7,5h7l20,8l19,4l3,4l-9,14l-10,10l9,6l2,6l14,12l-1,3l-3,1l-7,6l3,3l2,3l7,1l1,-2l4,4l3,5l-4,5l1,5l9,2l1,8l-8,11l12,6h7M498,760l-1,-10l-9,-5l-3,-5l1,-9l4,-3l-3,-10l14,2l3,-13l8,1l4,-7M283,26l4,7l-2,3l8,8l4,10l7,5v5l12,2l5,-1l1,-5l8,-1l3,5l7,25l4,-1l4,6l-14,17l-8,38l-4,8l-3,12M531,694l5,-4v-8h-7l2,-5l12,-5h6v1M587,669l6,-3M596,667l4,-3M574,117v3l9,9l5,14l4,6l8,5l-1,5l6,6l4,5l2,11l3,4l5,5l2,8l1,12l4,5l2,2l1,3h-1v1l1,1l-1,1v2l8,5l1,4l8,-3l5,-7l1,12l13,21v8l-10,8l8,9l9,9l10,3l5,7l-5,9h-9l-12,9l-10,5l-1,-13l-8,3l2,3l-4,11l6,2l-1,6l-8,-1l-4,4l-5,-4v-5l-5,-4l-7,1l1,9h3l1,7l4,1l4,10l6,7l-1,2l-26,5l1,13l-7,1l1,-5l-5,-2v5l-6,1l-3,9l-7,8l-11,-9l-2,-5l-4,-2v-8l4,-10l-2,-6l-5,-25l2,-12l-4,-9l7,-6l-1,-8l-5,-7l4,-3l-16,5M686,301l8,6l11,4l2,3l6,2l-3,4l7,8l9,2l8,6l6,1l6,-6l-3,-6l6,-1l2,4l9,5l5,6l11,-2v7l-6,1l-1,5l-10,5l3,3l23,6l14,-2l10,-6v-3l12,5l1,4l-4,3l-3,7l-11,13l-2,11l-2,5v11l-10,9l-1,4l-10,6l-10,13l-1,5l-7,11l-9,9v9l8,1l7,5l9,1l5,6l17,4l1,3"/>
</svg>