<?xml version="1.0" encoding="utf-8"?>
<!DOCTYPE svg PUBLIC "-//W3C//DTD SVG 1.1//EN" "http://www.w3.org/Graphics/SVG/1.1/DTD/svg11.dtd">
<svg version="1.1" xmlns="http://www.w3.org/2000/svg" width="1000" height="244" viewBox="0 0 1000 244">
  <path class="state" d="M301,8l3,4h134l3,2l1,-1h1l4,-1h18l5,1h11l9,1h1l30,2h4l32,1h1l5,-1l12,-1h26l12,1l14,1h1l6,1h119l1,-1l6,-1h17l23,-1h28l18,-1h18v-1h22l27,-1h4l3,-1h22l4,-4h29l-1,1l-1,1h-1v1h-1l1,1v2h-2v4h-1v3h1v7h-1v1h-1v5h-1v1h-2l1,1v2h1v1l-1,1h1v1h1h-1l1,1v1l1,1h1v1h-3v-1h-1v1h-3l-1,-1h-2v-2l-1,1h-1v1h-3v1l-1,1h-1v2h-1v1h-1v1h-2v1h-1l-1,2v1l-1,1l-1,1v1l-1,1v1l-2,3v1h-1v2l-1,1l-1,1v2h-1v1l-1,1v2h-1v3h-1l-2,-1v2h-1l-1,1h-5v1h-1v-1h-1v-2l-1,-2l-1,-1h-3l-1,-1v1h-1l-1,-1v-1v1h-1v1l-1,1h-1v1h-2l-1,1h-1l-2,-1l-2,1l-1,1h-1l-1,1h-2l-1,1h-1l-1,1v1h-1v1h-1v1l-2,3l-1,2v1l-2,3l-1,1l-1,1h-1v1h-1v1h-1v1h-1l-1,1v-1v1h-2v1h-2v1l-1,1v-1h-1v-1h-4v-1l1,-2v-1h-1v-2l1,-1v-1l1,-1v-1h-1v1v-1h-1v-1h-1v-1h-1v-1h-2v1h-2l-1,1h-1v1h-1v1h-2v1h-1v1h-2v1h-1v1l-1,1v-1v1h-2v1h-1v3h1v1h-1v2h-1v1h-1v2h-1v1h-1v-1h-1v-1h-1v-1h-1v-1h-5v1h-1v2h-2v1h1v3h1v3h1h-1v1h-2v3l1,1h-1v2h-2v2h-1v3h-2v1h-1v1h-1v1h-1v-1h-1l-1,-1v1v-1h-4v-1v1h-2v-1l-1,1h-1v1h-1v1h-1l-1,1h-4l-1,1v2h-1v1h-1v1h-1v1h-6v1h-1v3l-1,1l-1,1h-1v3h-3l-2,-1h-1v1h-1v1l-1,1l-1,1h-1l-1,1v1h-2v1h-1l-1,1h-3v1h-1v2l-1,1v1h-1v1h-3l-1,1v-1h-6v1h-1l-1,-1l-2,-1h-1v1h-10v1h-4v1v-1h-3v1l-1,1h-1l-1,1h-1v1l-1,1l-1,1h-5l-1,1v1h-1v1h-1v2h-1v1l-1,1h-2v1h-1l-1,1l-1,-1v1h-1v1h-1v1h-1l-1,1v3h-2l1,1h-1l1,1v1h1v3l-1,1l-2,2v1h1l-1,2v2h1v3l-1,1h-1v1h-1l-1,1l-2,1v1h-1l-1,1l-1,-1h-2v1h-8v-1l-1,-1v-1h-2v1h-1l-1,1v1h-2v1h-1v1h-1v1h-1v3l-1,3v6l-1,2v9l-1,1v8h-22l-11,1h-40l-13,1h-108l-26,-1h-63l-11,-1h-27l-1,-1h-14l-28,-1h-14l-28,-1h-10l-12,-1h-3l1,2h-18l-2,-1h-24l-10,-1h-40l-5,-1h-29l-15,-1l-13,-1h-20l-20,-1h-3l-34,-2v-4l1,-2h4v1h2l2,1l4,-1l2,-7v-1l4,-4l8,-2v-1l-3,-1l-2,-3v-1l2,-1l2,-2l1,-1l-2,-3l-1,-1l-1,-1h-4v-7l1,1l1,-1h2l1,-3v-1l-1,-1l2,-1l1,-1l1,-2l1,-1l-2,-1l-2,-2v-1l-3,-1v1l-1,1v2l1,1h-1v1h-2v-7l2,-2h2v-1l1,-2v-1h5l1,1v2l-1,1v2l1,2v1l1,1v1l2,-1h-1l-1,-1l1,-1v-1h1l1,-1v-1h1v-2l1,-2l-3,-4l-1,-1v-2l2,-3v-1l2,-1l2,-1h1l3,3v2l1,1h5v-2l-1,-2h-1l-1,-1l-1,-1l-2,-3l1,-1v-1h1l6,-2l1,-1l3,-1l1,-1v-3l-4,1h-4l-2,-2v-1l-2,-2v-5l2,-2l4,-2l3,2h2l2,-1h3v-1l1,-1l1,-1v-1l2,-3h2l1,-1l2,1h2v-5l-5,-3l3,-5h1l5,2l2,1h2v-3l-3,-5l-2,-2l-2,-1v-3l2,-2v-1l2,-3l1,-6l4,-4h2l1,-1l2,-1v-1l1,-2v-1l-1,-1v-1l-2,-1l-1,-2l-2,-1h-1l-1,-2l-3,-6l15,1h1l2,-1v-2l-1,-1h-1l-4,-2l-1,-1v-6h2l4,1h2l1,-1l1,-2v-3l-2,-4l-1,-3l2,-3l1,-1v-2h-1l-1,-2l4,2v2l1,1h3l1,-1l3,-3v-1h5l4,-1h5l50,2l2,1h15l21,1h11l35,1l3,-6l-2,-12l-1,-1l-1,-2v-3h8Z"/>
<g class="geos"><path data-name="Hamilton" class="geo-065" d="M587,187l6,-13h2l2,-1h2l11,6l3,6l2,1l3,10l-6,16l-3,3l3,7l1,8l4,2l-2,4l-13,1h-42l10,-8l2,-7l-3,-7l16,-22Z"/><path data-name="Marion" class="geo-115" d="M560,199h2l2,2l5,6v8l3,7l-2,7l-10,8h-43v-32h-1l6,-3l8,4l6,-3l-1,-7l15,-4Z"/><path data-name="White" class="geo-185" d="M541,98l7,-4v-3v1h1l7,-3l16,4l5,3v5l6,1l4,12l-1,11l-3,3h-1v-4l-10,3l-6,-2l-3,-1h-3l-8,3l-6,1l-9,-5l5,-7l-3,-8Z"/><path data-name="Morgan" class="geo-129" d="M632,87l-3,1l-7,-10l-1,-8l3,-4l1,-3l1,-4h8l4,-5l6,-5l9,13h2l4,6l11,5l2,3l-1,4l8,5l5,7l-13,9h-5l-10,5l-1,-1l-1,2l-4,2h-1l-2,2h-1l-3,-11Z"/><path data-name="Campbell" class="geo-013" d="M688,30l2,-1l1,-11h30l3,12l1,4l5,7l-6,4l-2,13l-2,3l-2,-2l-6,8l-17,-2l-2,9l-5,-5l-4,1l-4,-1l-1,-6l5,-3v-12l-2,-11l2,-7Z"/><path data-name="Monroe" class="geo-123" d="M664,152v-6l7,-2h16l7,4l8,3l9,4l1,5l9,-1l4,6l1,5v1h-1v1h-1v1h-1l-1,1v3h-2l1,1h-1l1,1v1h1v3l-1,1l-2,2v1h1l-1,2v2h1v3l-1,1h-1v1h-1l-1,1l-2,1v1h-1l-1,1l-1,-1h-2v1h-8v-1l-1,-1v-1h-2v1h-1l-1,1v1h-2v1h-1v1h-1v1h-1v3h-7v-4l-16,-7l11,-6l-1,-9l-4,-3l-3,-12Z"/><path data-name="Rutherford" class="geo-149" d="M434,104l1,-6l5,-3l2,-7l3,4l1,-6l5,4l10,8l7,4l6,2l11,2v10l-6,24h-1l-3,2v8l-10,-5l-7,5l-2,-3l-6,1l-4,-6l-14,-2v2l-5,-3l-1,-1v-5l7,-7l1,-22Z"/><path data-name="Smith" class="geo-159" d="M487,60l9,-11l8,-2l1,-5l8,1l8,1l-2,18l7,6l-2,7l-1,7l-9,4l-8,-1l-4,4l-7,-1l-1,-6Z"/><path data-name="Trousdale" class="geo-169" d="M477,34l7,6l21,2l-1,5l-8,2l-9,11l-8,-7l-7,6l-1,-6l1,-14Z"/><path data-name="Sumner" class="geo-165" d="M441,14l1,-1h1l4,-1h18l5,1h10l-3,21l-5,5l-1,14l-1,5l-9,-6l-4,6l-5,-4l-11,8l-4,4l-5,-1l-3,-8h-1l-5,-4l-3,-8l12,-9v-8Z"/><path data-name="Grundy" class="geo-061" d="M511,196l4,-8l-1,-19l1,-5l2,1l29,-2l7,6v8l5,5l-1,4l-7,6l-15,4l1,7l-6,3l-8,-4l-6,3Z"/><path data-name="Bedford" class="geo-003" d="M432,142v-2l14,2l4,6l6,-1l2,3l7,-5l10,5v23l-2,6l-3,3l-19,9l-2,-5l-5,1l-8,-1l-3,-1l-4,-12Z"/><path data-name="Clay" class="geo-027" d="M530,30l-8,2l3,-16l32,1h1l5,-1l12,-1h6v9l-1,4l-2,1l-8,1l-8,2l-4,6l-1,7l-3,-3l-6,-6l-13,-3Z"/><path data-name="Lauderdale" class="geo-097" d="M94,113l-5,-3l3,-5h1l5,2l2,1h2v-3l2,-2l12,-1l4,-2l9,1l3,4l3,3l1,2v1l-1,3v1h-1v3l-5,-1l-3,5v5l-5,13v8l-2,1h-2v1l-10,-7h-1l-6,-1l-3,-1h-12l-2,2l-1,1l-7,3l-3,7l-1,-2h-1l-1,-1l-1,-1l-2,-3l1,-1v-1h1l6,-2l1,-1l3,-1l1,-1v-3l-4,1h-4l-2,-2v-1l-2,-2v-5l2,-2l4,-2l3,2h2l2,-1h3v-1l1,-1l1,-1v-1l2,-3h2l1,-1l2,1h2Z"/><path data-name="Loudon" class="geo-105" d="M663,143l1,-5l12,-9h4v-6l4,-2v-8l8,-1l11,12v13l3,7l-4,7l-8,-3l-7,-4h-16l-7,2v3l-6,-2Z"/><path data-name="DeKalb" class="geo-041" d="M495,88l7,1l4,-4l8,1l9,-4l5,9h8l5,7l-2,10l3,8l-5,7l-8,-3l-15,2v-3l-14,-14Z"/><path data-name="Hickman" class="geo-081" d="M314,120l1,-9l4,-2l11,-4v1l5,-7l35,5l-1,15l-2,17l-9,5l-4,4l-12,5v1l-16,-4l-7,4l-4,-5h-1l-3,-2Z"/><path data-name="Putnam" class="geo-141" d="M548,69l5,-2l5,-6l-1,-2l5,3l2,4l18,9l6,4l10,1l3,1l-6,5h-9l-1,6l-2,10l-6,-1v-5l-5,-3l-16,-4l-7,3h-1v-1v3l-7,4l-5,-7h-8l-5,-9l1,-7l2,-7l1,-1l5,1l8,3Z"/><path data-name="Warren" class="geo-177" d="M504,146l-1,-8l6,-10l5,-6l15,-2l8,3l9,5v18l4,17h-4l-29,2l-2,-1l-7,-6Z"/><path data-name="Lake" class="geo-095" d="M120,42v-1l-2,-4l-1,-3l2,-3l1,-1v-2h-1l-1,-2l4,2v2l1,1h3l1,-1l3,-3v-1h5l4,-1l-3,15l-5,6v6l-9,12l-1,4l-15,-1l-2,-1h-1l-1,-2l-3,-6l10,2l5,-1h1l2,-1v-2l-1,-1h-1l-4,-2l-1,-1v-6h2l4,1h2l1,-1l1,-2Z"/><path data-name="Jefferson" class="geo-089" d="M779,73l1,2h9l12,4l3,5l-4,11l-1,14l-2,1l-9,-5l-10,1l-2,-1l-2,-3l-12,-7l-3,-4l-2,1l-5,-8l5,2l-1,-6l5,3l-1,-6l4,-3Z"/><path data-name="Haywood" class="geo-075" d="M126,122l3,-5l5,1l3,4l5,4l11,3l8,6l4,1l-1,2l-2,33h-11v5l-32,-2l1,-17l-1,-6l-2,-1v-1h2l2,-1v-8l5,-13Z"/><path data-name="Lawrence" class="geo-099" d="M359,174l10,2l-1,4v29l2,3l-3,9l-1,13h-14l-28,-1l2,-7v-12l2,-1v-33l14,-3v-5h14Z"/><path data-name="Hawkins" class="geo-073" d="M846,14h18v-1h6l-1,14l-8,4l1,3l1,1l-2,3l-7,4l-6,2l-13,6l-6,7l-4,1l-5,5l-8,-12l-3,-1l-3,6l-5,1l-2,-14l-1,-1l1,1l2,-2h2l3,-4l5,-7l4,-4l12,-7l6,2Z"/><path data-name="Union" class="geo-173" d="M721,64l-1,-3l2,-3l2,-13l6,-4l5,-2l6,-1l1,1l8,12l6,-1l-3,19l-4,6l-21,-1l-2,-2Z"/><path data-name="Blount" class="geo-009" d="M719,120l3,-6l16,5l5,-6l8,17l8,9v16h-5v1h-4v1v-1h-3v1l-1,1h-1l-1,1h-1v1l-1,1l-1,1h-5l-1,1v1h-1v1h-1v2h-1v1l-1,1h-2v1h-1l-1,1l-1,-1l-1,-5l-4,-6l-9,1l-1,-5l-9,-4l4,-7l-3,-7v-13l8,-6Z"/><path data-name="Chester" class="geo-023" d="M215,152l2,-1l2,1l3,6l8,7h11v15h-23l2,1h-1l-8,1l-5,6l-5,9h-6l-1,-11l-4,-6l-1,-7h3l15,-8l6,-7Z"/><path data-name="Jackson" class="geo-087" d="M521,44l1,-12l8,-2l5,3l13,3l6,6l3,3v14l1,2l-5,6l-5,2l-8,2l-8,-3l-5,-1l-1,1l-7,-6Z"/><path data-name="Moore" class="geo-127" d="M473,179v11l2,1l-5,9l-2,8v4l-1,6h-6v-9l-5,-7l-5,-6l-7,-3v-6l5,-1l2,5l19,-9Z"/><path data-name="Sullivan" class="geo-163" d="M880,13h6l27,-1h4l3,-1h22l4,-4h9l-5,3l-12,12l-9,8l-12,8l-6,-3l-6,4l-5,-1l-1,1l-7,-7l-19,4l-10,-1l-1,-1l-1,-3l8,-4l1,-14h7Z"/><path data-name="Carter" class="geo-019" d="M905,39l6,-4l6,3l12,-8l9,-8v1l4,5l-10,12l5,6l6,9h2v1l-1,1v1l-2,3v1h-1v2l-1,1l-1,1v2h-1v1l-1,1v2h-1v3h-1l-2,-1v2h-1l-1,1h-5v1h-1v-1h-1v-2l-1,-2l-1,-1h-3l-1,-1v1h-1l-1,-1v-1v1h-1l-4,-10l-10,-3Z"/><path data-name="Washington" class="geo-179" d="M899,39l1,-1l5,1l-4,19l-3,6l-7,8l-10,1l-7,8l-6,-7v-8l1,-29l-8,1l2,-3l10,1l19,-4Z"/><path data-name="Stewart" class="geo-161" d="M278,30l3,-6l-2,-12l-1,-1l-1,-2v-3h8l16,2l3,4h20l1,14l4,23l-14,-1l-10,5l-19,-3l-1,-1l-8,-11Z"/><path data-name="Macon" class="geo-111" d="M480,13h1l9,1h1l30,2h4l-3,16l-1,12l-8,-1l-8,-1l-21,-2l-7,-6Z"/><path data-name="Hardeman" class="geo-069" d="M151,176v-5h11l27,2l1,7l4,6l1,11l-1,8v25l-1,1h-29l-5,-1h-12l2,-15Z"/><path data-name="Carroll" class="geo-017" d="M226,76l34,1v4l-1,14v22l4,1v4l-43,-2v1h-2v1l-2,2h-11l3,-37h1l1,1v-1h1l1,-7l13,1Z"/><path data-name="Wayne" class="geo-181" d="M278,180h5l-3,-4l6,-5l6,-1h2l2,-1l17,-1l7,2l8,10v33l-2,1v12l-2,7h-14l-28,-1v-23l1,-16l-4,-1Z"/><path data-name="McMinn" class="geo-107" d="M654,147h4l6,2v3l7,13l3,12l4,3l1,9l-11,6l-3,3h-16l-4,4l-4,-3l-7,-9l-7,-3l7,-13Z"/><path data-name="Van Buren" class="geo-175" d="M546,128l6,-1l8,-3h3l3,1l6,2l10,-3v4l1,1l1,2l-1,2v5l-17,20l-4,3l-12,2l-4,-17Z"/><path data-name="Houston" class="geo-083" d="M329,49v3l8,1l-2,14l-4,7l-11,-3l-6,-5h-12l-12,-1v-7l-4,-8l19,3l10,-5Z"/><path data-name="Giles" class="geo-055" d="M369,176l8,-3h2l1,1h1l2,1l2,1l5,1l5,2l1,-1l4,1l2,13l8,3h1v4l-1,13v24h-5l-11,-1h-27l-1,-1l1,-13l3,-9l-2,-3v-29Z"/><path data-name="Humphreys" class="geo-085" d="M290,65l12,1h12l6,5l11,3l2,5v18l2,2l-5,7v-1l-11,4l-4,2l-1,9h-12l-3,4l-6,-4l-6,-1l3,-3l1,-10l-9,-1l-2,-4l3,-8l10,-12Z"/><path data-name="Sequatchie" class="geo-153" d="M566,158l-1,1l2,9l10,10l10,9l-2,6l-16,22v-8l-5,-6l-2,-2h-2l-10,-7l7,-6l1,-4l-5,-5v-8l-7,-6h4l12,-2Z"/><path data-name="Roane" class="geo-145" d="M654,107l1,-2l1,1l10,-5h5l13,-9l1,7l6,11l1,2l-8,1v8l-4,2v6h-4l-12,9l-1,5l-5,4h-4l-2,-11l-5,3l-5,-6l-3,-3v-3l-4,-3l1,-1l2,-3l8,-9h1l2,-2h1Z"/><path data-name="Montgomery" class="geo-125" d="M376,12h5l-3,12l3,2l-1,11l-7,7l-2,-1l-9,8v4l-5,1l-20,-3l-8,-1v-3l-4,-23l-1,-14h33Z"/><path data-name="Henry" class="geo-079" d="M228,28l4,1h11l35,1l-1,8l8,11h-11v9l1,3l-2,2v3l-6,6l-1,1v1h-1l-4,5v1l-1,1v-4l-34,-1l2,-31Z"/><path data-name="Dickson" class="geo-043" d="M331,74l4,-7l2,-14l20,3l5,-1l14,2l-3,14l1,2l-1,19l-3,12l-35,-5l-2,-2v-18Z"/><path data-name="Greene" class="geo-059" d="M811,71l4,-2l5,-6l5,-5l4,-1l6,-7l13,-6l6,-2l7,-4l8,-1l-1,29v8l6,7v7h-1v-1h-1v-1h-1v-1h-2v1h-2l-1,1h-1v1h-1v1h-2v1h-1v1h-2v1h-1v1l-1,1v-1v1h-2v1h-1v3h1v1h-1v2h-1v1h-1v2h-1v1h-1v-1h-1v-1h-1v-1h-1v-1h-5v1h-1l-9,-11l-21,-16Z"/><path data-name="Unicoi" class="geo-171" d="M901,58l10,3l4,10v1l-1,1h-1v1h-2l-1,1h-1l-2,-1l-2,1l-1,1h-1l-1,1h-2l-1,1h-1l-1,1v1h-1v1h-1v1l-2,3l-1,2v1l-2,3l-1,1l-1,1h-1v1h-1v1h-1v1h-1l-1,1v-1v1h-2v1h-2v1l-1,1v-1h-1v-1h-4v-1l1,-2v-1h-1v-2l1,-1v-1l1,-1v-1h-1v1v-8l7,-8l10,-1l7,-8Z"/><path data-name="Coffee" class="geo-031" d="M475,150v-8l3,-2h1l12,7l13,-1l4,12l7,6l-1,5l1,19l-4,8h-1l-2,-1v-2l-4,-1l-2,1l-5,-4l-12,-3l-7,2l-5,2v-11l2,-6Z"/><path data-name="Perry" class="geo-135" d="M286,123l1,-4l6,1l6,4l3,-4h12l-3,24l3,2h1l4,5l1,6l-1,1l-6,10l-17,1l-2,1h-2l-6,1l-6,5l-3,-5l7,-4v-7l-6,-9l2,-11l-2,-5l7,-7Z"/><path data-name="Williamson" class="geo-187" d="M415,94l19,10l-1,22l-7,7v5l1,1h-11l-6,-2l-10,-4v-4h-8l-23,-10l1,-15l3,-12h1l13,1l1,8l12,-9Z"/><path data-name="Cumberland" class="geo-035" d="M585,92l1,-6h9l6,-5h3v-1l2,-1l2,-3l1,2l2,1l11,-1l7,10l3,-1l11,13l3,11l-8,9l-2,3h-3l-12,8l-13,3l-1,-3h-23l-2,-3h1l3,-3l1,-11l-4,-12Z"/><path data-name="Knox" class="geo-093" d="M713,91l-2,-3l15,-16l2,2l21,1l8,11l-5,-2l5,8l2,9l-16,12l-5,6l-16,-5l-3,6l-8,-2l-8,6l-11,-12l-1,-2l7,-5l2,-6h6l8,-5Z"/><path data-name="Cocke" class="geo-029" d="M804,84l-1,-5l4,-3h-1h1l4,2v-7v4l21,16l9,11v2h-2v1h1v3h1v3h1h-1v1h-2v3l1,1h-1v2h-2v2h-1v3h-2v1h-1v1h-1v1h-1v-1h-1l-1,-1v1v-1h-4v-1v1h-2v-1l-1,1h-1v1h-1v1h-1l-1,1h-4l-1,1v2h-1v1h-1v1h-1v1h-6v1h-1l-3,-8v-8l-3,-8l2,-1l1,-14Z"/><path data-name="Hancock" class="geo-067" d="M777,16l23,-1h28l18,-1l-13,7l-6,-2l-12,7l-4,4l-5,7l-3,4h-2l-2,2l-1,-1l-10,-2h-2l2,-2l-3,-14Z"/><path data-name="Hardin" class="geo-071" d="M241,180v-5h14l2,1v1l2,4l10,-1l5,-4l4,4l1,12l4,1l-1,16v23h-10l-12,-1h-3l1,2h-18l-2,-1l1,-26l1,-2Z"/><path data-name="Claiborne" class="geo-025" d="M765,16h12l8,8l3,14l-2,2h-5l-1,6l-9,3l-6,-2l-5,4l-4,-1l-6,1l-8,-12l-1,-1l-6,1l-5,2l-5,-7l-1,-4l-3,-12h32l1,-1l6,-1h5Z"/><path data-name="Rhea" class="geo-143" d="M621,131l12,-8h3l-1,1l4,3v3l3,3l1,8l-7,1l-2,19l-8,-2l1,9l-4,2v4l-5,1l-4,-4l-4,8l-11,-6h-2l-1,-5l4,-4v-6l6,-5Z"/><path data-name="Overton" class="geo-133" d="M570,30l8,-1l2,-1l9,4l6,6l3,6v16l4,14l-4,6l-10,-1l-6,-4l-18,-9l-2,-4l-5,-3v-14l1,-7l4,-6Z"/><path data-name="Obion" class="geo-131" d="M194,27h1v13l-2,-1v1l-1,-1v1l-4,2l-4,-2h-1v-1h-2l-1,1v25l-1,3l-21,-1l-36,-3l9,-12v-6l5,-6l3,-15h5Z"/><path data-name="Robertson" class="geo-147" d="M380,37l1,-11l-3,-2l3,-12h57l3,2l-9,14v8l-12,9l-7,7l-7,-4h-3l-3,-1l-2,1l-2,2l-10,-8Z"/><path data-name="Wilson" class="geo-189" d="M437,66l4,-4l11,-8l5,4l4,-6l9,6l1,-5l1,6l7,-6l8,7l7,22l1,6l5,17l-15,1l-11,-2l-6,-2l-7,-4l-10,-8l-5,-4l-2,-5h-3Z"/><path data-name="Grainger" class="geo-057" d="M756,50l4,1l5,-4l6,2l9,-3l1,-6h7l10,2l1,1l2,14l-12,1l-8,8l-2,7l-15,1l-4,3l1,6l-5,-3l1,6l-8,-11l4,-6Z"/><path data-name="Bradley" class="geo-011" d="M612,222l-3,-7l3,-3l6,-16l9,-9l7,3l7,9l4,3v10l-7,24h-23l2,-4l-4,-2Z"/><path data-name="Shelby" class="geo-157" d="M52,206v-1l-3,-1l-2,-3v-1l2,-1l2,-2l1,-1l-2,-3l-1,-1l-1,-1h-4v-7l1,1l1,-1h2l1,-3v-1l-1,-1l2,-1l1,-1l1,-2l1,-1l2,-1l2,-1l19,2h9l9,-2l8,5l-2,20l-1,31h-17l-20,-1h-3l-34,-2v-4l1,-2h4v1h2l2,1l4,-1l2,-7v-1l4,-4l6,1Z"/><path data-name="Meigs" class="geo-121" d="M642,133l5,6l5,-3l2,11l-20,27l-7,13l-9,9l-3,-10l-2,-1l-3,-6l4,-8l4,4l5,-1v-4l4,-2l-1,-9l8,2l2,-19l7,-1Z"/><path data-name="Lincoln" class="geo-103" d="M411,199l7,1l5,-4l12,-5l1,-5l8,1v6l7,3l5,6l5,7v9h6v18h-57v-24Z"/><path data-name="Davidson" class="geo-037" d="M394,70l3,-7l6,-11v-4h3l7,4l7,-7l3,8l5,4h1l3,8l5,1l4,15h3l2,5l-1,6l-3,-4l-2,7l-5,3l-1,6l-19,-10l-15,-2l-12,9l-1,-8l2,-7l4,-4Z"/><path data-name="Bledsoe" class="geo-007" d="M589,131h18l1,3l13,-3l-15,22l-6,5v6l-4,4l1,5l-2,1h-2l-6,13l-10,-9l-10,-10l-2,-9l1,-1l17,-20v-5l1,-2Z"/><path data-name="Weakley" class="geo-183" d="M192,40v-1l1,1v-1l2,1v-13l1,1h32v17l-2,31l-1,5l-13,-1l-1,7h-1v1l-1,-1h-2l-3,-2l-1,-1l-2,-1h1h-1l-1,-2h-1v-1l-3,-1h-4l-1,-2h-1l-1,-1l-1,-1l-1,-3h-1l-1,-1l-5,-6v-25l1,-1h2v1h1l4,2Z"/><path data-name="Marshall" class="geo-117" d="M427,139l5,3l-3,31l4,12l3,1l-1,5l-12,5l-5,4l-7,-1v-4h-1l-8,-3l-2,-13l-4,-1v-4l9,-6l5,-8l2,-19l4,-2Z"/><path data-name="Johnson" class="geo-091" d="M938,23v-1l12,-12l5,-3h20l-1,1l-1,1h-1v1h-1l1,1v2h-2v4h-1v3h1v7h-1v1h-1v5h-1v1h-2l1,1v2h1v1l-1,1h1v1h1h-1l1,1v1l1,1h1v1h-3v-1h-1v1h-3l-1,-1h-2v-2l-1,1h-1v1h-3v1l-1,1h-1v2h-1v1h-1v1h-2v1h-1l-1,2v1l-1,1l-1,1h-2l-6,-9l-5,-6l10,-12Z"/><path data-name="Sevier" class="geo-155" d="M743,113l16,-12l-2,-9l2,-1l3,4l12,7l2,3l2,1l10,-1l9,5l3,8v8l3,8v3l-1,1l-1,1h-1v3h-3l-2,-1h-1v1h-1v1l-1,1l-1,1h-1l-1,1v1h-2v1h-1l-1,1h-3v1h-1v2l-1,1v1h-1v1h-3l-1,1v-1h-6v1h-1l-1,-1l-2,-1h-1v1h-5v-16l-8,-9Z"/><path data-name="Polk" class="geo-139" d="M645,202l4,-4h16l3,-3l16,7v4h7l-1,3v6l-1,2v9l-1,1v8h-22l-11,1h-17l7,-24Z"/><path data-name="Henderson" class="geo-077" d="M216,124l2,-2v-1h2v-1l43,2l-2,29l-6,10v14h-14v-10h-11l-8,-7l-3,-6l-2,-1l-2,1l1,-5Z"/><path data-name="McNairy" class="geo-109" d="M206,188l5,-6l8,-1h1l-2,-1h23l-1,24l-1,2l-1,26h-24l-10,-1h-11l1,-1v-25l1,-8h6Z"/><path data-name="Fentress" class="geo-049" d="M598,44h2l1,-12l5,-4v-4l11,-3l10,2l7,5h6l7,18l-3,3l-6,5l-4,5h-8l-1,4l-1,3l-3,4l1,8l-11,1l-2,-1l-1,-2l-2,3l-2,1v1h-3l-3,-1l4,-6l-4,-14Z"/><path data-name="Benton" class="geo-005" d="M273,66v-3l2,-2l-1,-3v-9h11l1,1l4,8v7l3,16l-10,12l-3,8l2,4l9,1l-1,10l-3,3l-1,4h-6l-1,-4l-16,-1l-4,-1v-22l1,-14l1,-1v-1l4,-5h1v-1l1,-1Z"/><path data-name="Pickett" class="geo-137" d="M613,16l14,1h1l6,1l6,10h-6l-7,-5l-10,-2l-11,3v4l-5,4l-1,12h-2l-3,-6l-6,-6l-9,-4l1,-4v-9h20Z"/><path data-name="Franklin" class="geo-051" d="M473,190l5,-2l7,-2l12,3l5,4l2,-1l4,1v2l2,1h1l5,9h1v32h-23l-26,-1h-1v-18l1,-6v-4l2,-8l5,-9Z"/><path data-name="Tipton" class="geo-167" d="M82,144l1,-1l2,-2h12l3,1l6,1h1l10,7l2,1l1,6l-1,17l-7,-1h-1l-1,1h-5l-1,1l-2,1v1l-8,-5l-9,2h-9l-19,-2h-1l-1,-1l1,-1v-1h1l1,-1v-1h1v-2l1,-2l-3,-4l-1,-1v-2l2,-3v-1l2,-1l2,-1h1l3,3v2l1,1h5v-2l3,-7ZM43,168l2,-2h2v-1l1,-2v-1h5l1,1v2l-1,1v2l1,2v1l1,1v1l-2,1l-2,-1l-2,-2v-1l-3,-1v1l-1,1v2l1,1h-1v1h-2v-5Z"/><path data-name="Anderson" class="geo-001" d="M684,92l-5,-7l-8,-5l1,-4l4,-1l4,-6l4,1l4,-1l5,5l2,-9l17,2l6,-8l2,2l1,3l5,8l-15,16l2,3l1,3l-8,5h-6l-2,6l-7,5l-6,-11Z"/><path data-name="Cannon" class="geo-015" d="M485,106l15,-1l14,14v3l-5,6l-6,10l1,8l-13,1l-12,-7l6,-24Z"/><path data-name="Crockett" class="geo-033" d="M137,122l-3,-4v-3h1v-1l1,-3v-1l5,-1l11,-11l1,-4h1v2l3,2h2l1,11l1,3l1,1l6,2l3,-1l6,4l1,1l2,2l1,1l1,1l1,1h1l-13,14h-3l-2,-1l-1,-1l-4,-1l-8,-6l-11,-3Z"/><path data-name="Cheatham" class="geo-021" d="M362,55v-4l9,-8l2,1l7,-7l6,5l10,8l2,-2l2,-1l3,1v4l-6,11l-3,7l-1,12l-4,4l-2,7l-13,-1h-1l1,-19l-1,-2l3,-14Z"/><path data-name="Madison" class="geo-113" d="M184,124h-1l-1,-1l23,1h11v23l-1,5l-2,6l-6,7l-15,8h-3l-27,-2l2,-33l1,-2l1,1l2,1h3Z"/><path data-name="Dyer" class="geo-045" d="M122,64l36,3l-1,21l-2,3h-2v1h-2l2,2l-1,4l-11,11l-5,1l-1,-2l-3,-3l-3,-4l-9,-1l-4,2l-12,1l-2,2l-3,-5l-2,-2l-2,-1v-3l2,-2v-1l2,-3l1,-6l4,-4h2l1,-1l2,-1v-1l1,-2v-1l-1,-1v-1l-2,-1l-1,-2l15,1Z"/><path data-name="Gibson" class="geo-053" d="M159,98h-2l-3,-2v-2h-1l-2,-2h2v-1h2l2,-3l1,-21l21,1l1,-3l5,6l1,1h1l1,3l1,1l1,1h1l1,2h4l3,1v1h1l1,2h1h-1l2,1l1,1l3,2h1l-3,37l-23,-1l-1,-1l-1,-1l-2,-2l-1,-1l-6,-4l-3,1l-6,-2l-1,-1l-1,-3Z"/><path data-name="Scott" class="geo-151" d="M640,28l-6,-10h57l-1,11l-2,1h-4l-2,7l2,11v12l-5,3l1,6l-4,6l-4,1l-2,-3l-11,-5l-4,-6h-2l-9,-13l3,-3Z"/><path data-name="Decatur" class="geo-039" d="M263,122v-4l16,1l1,4h6l-1,5l-7,7l2,5l-2,11l6,9v7l-7,4l3,5l3,4h-5l-4,-4l-5,4l-10,1l-2,-4v-1l-2,-1v-14l6,-10Z"/><path data-name="Maury" class="geo-119" d="M355,148l-1,-3l4,-4l9,-5l2,-17l23,10h8v4l10,4l6,2l-4,2l-2,19l-5,8l-9,6v4l-1,1l-5,-2l-5,-1l-2,-1l-2,-1h-1l-1,-1h-2l-8,3l-10,-2l2,-11l-2,-3l-5,-5Z"/><path data-name="Fayette" class="geo-047" d="M102,177v-1l2,-1l1,-1h5l1,-1h1l7,1l32,2l-2,39l-2,15h-17l-15,-1l-13,-1h-3l1,-31Z"/><path data-name="Hamblen" class="geo-063" d="M801,57l5,-1l3,-6l3,1l8,12l-5,6l-4,2v7l-4,-2h-1h1l-4,3l1,5l-3,-5l-12,-4h-9l-1,-2l2,-7l8,-8Z"/><path data-name="Lewis" class="geo-101" d="M320,157l-1,-6l7,-4l16,4v-1l12,-5l1,3l-1,7l5,5l2,3l-2,11l-3,-2h-14v5l-14,3l-8,-10l-7,-2l6,-10Z"/></g>
  <path class="counties-mesh" d="M526,68l-2,7l-1,7l5,9h8l5,7l7,-4v-3v1h1l7,-3l16,4l5,3v5l6,1l4,12l-1,11l-3,3h-1M786,40l2,-2l-3,-14l-8,-8M359,174l10,2l8,-3h2l1,1h1l2,1l2,1l5,1l5,2l1,-1l4,1l2,13l8,3h1v4l-1,13v24M757,92l2,9l-16,12l8,17l8,9v16M102,105l2,-2l12,-1l4,-2l9,1l3,4l3,3l1,2v1l-1,3v1h-1v3l-5,-1l-3,5v5l-5,13v8l-2,1h-2v1l-10,-7h-1l-6,-1l-3,-1h-12l-2,2l-1,1l-7,3l-3,7M139,25l-3,15l-5,6v6l-9,12l-1,4l-15,-1M134,118l3,4l5,4l11,3l8,6l4,1l-1,2l-2,33h-11v5l-32,-2l1,-17l-1,-6l-2,-1M369,176l-1,4v29l2,3l-3,9l-1,13M362,55l14,2l-3,14l1,2l-1,19l-3,12l-1,15l-2,17l-9,5l-4,4l-12,5v1l-16,-4l-7,4l-4,-5h-1l-3,-2l3,-24l1,-9l4,-2l11,-4v1l5,-7l35,5M475,150l-10,-5l-7,5l-2,-3l-6,1l-4,-6l-14,-2v2l-5,-3l-1,-1v-5l7,-7l1,-22l1,-6l5,-3l2,-7l3,4l1,-6l-2,-5h-3l-4,-15l-5,-1l-3,-8h-1l-5,-4l-3,-8l-7,7l-7,-4h-3l-3,-1l-2,1l-2,2l-10,-8l-6,-5l-7,7l-2,-1l-9,8v4l-5,1l-20,-3l-2,14l-4,7l2,5v18l2,2M381,12l-3,12l3,2l-1,11M801,57l-2,-14l-1,-1l1,1l2,-2h2l3,-4l5,-7l4,-4l12,-7l6,2l13,-7M703,124l8,-6l8,2l3,-6l16,5l5,-6M215,152l2,-1l2,1l3,6l8,7h11v15h-23l2,1h-1l-8,1l-5,6l-5,9h-6l-1,-11l-4,-6l-1,-7M557,45v14M730,41l5,-2l6,-1l1,1l8,12l6,-1l-3,19l-4,6l-21,-1l-2,-2M955,7l-5,3l-12,12l-9,8l-12,8l-6,-3l-6,4l-5,-1l-1,1l-7,-7l-19,4l-10,-1M938,22v1l4,5l-10,12l5,6l6,9h2M915,71l-4,-10l-10,-3l4,-19M901,58l-3,6l-7,8l-10,1l-7,8l-6,-7v-8l1,-29l-8,1M195,197l-1,8v25l-1,1M324,12l1,14l4,23l-14,-1l-10,5l-19,-3l-1,-1h-11v9l1,3l-2,2v3l-6,6l-1,1v1h-1l-4,5v1l-1,1l-1,14v22l4,1v4l-43,-2v1h-2v1l-2,2h-11l3,-37h1l1,1v-1h1l1,-7l13,1l1,-5l34,1v4M285,49l-8,-11l1,-8M147,230l2,-15l2,-39M53,174l2,-1M642,133l1,8l-7,1l-2,19l-8,-2l1,9l-4,2v4l-5,1l-4,-4l-4,8l3,6l2,1l3,10l-6,16l-3,3l3,7l1,8l4,2l-2,4M282,232v-23l1,-16l-4,-1l-1,-12h5l-3,-4l6,-5l6,-1h2l2,-1l17,-1l7,2l8,10M654,147h4l5,-4l1,-5l12,-9h4v-6l4,-2v-8l8,-1M691,206h-7v-4l-16,-7l-3,3h-16l-4,4l-4,-3l-7,-9l-7,-3l7,-13l20,-27l-2,-11l-5,3l-5,-6l-3,-3v-3l-4,-3l1,-1h-3l-12,8l-13,3l-1,-3h-23l-1,2v5l-17,20l-4,3l-12,2M329,49v3l8,1M331,74l-11,-3l-6,-5h-12l-12,-1v-7l-4,-8M314,120h-12l-3,4l-6,-4l-6,-1l3,-3l1,-10l-9,-1l-2,-4l3,-8l10,-12l-3,-16M226,76l2,-31v-17M841,102l-9,-11l-21,-16v-4l4,-2l5,-6M874,81v7M280,176l-3,-5l7,-4v-7l-6,-9l2,-11l-2,-5l7,-7l1,-5l1,-4M319,151l1,6l-1,1l-6,10M427,139h-11l-6,-2l-10,-4v-4h-8l-23,-10M601,81h3v-1l2,-1l2,-3l1,2l2,1l11,-1M749,75l8,11M804,84l-1,-5l4,-3h-1h1l4,2v-7M870,13l-1,14l-8,4l1,3l1,1l-2,3l-7,4l-6,2l-13,6l-6,7l-4,1l-5,5l-8,-12l-3,-1l-3,6l-5,1l-12,1l-8,8l-2,7M803,134l-3,-8v-8l-3,-8M241,175h14l2,1v1l2,4l10,-1l5,-4l4,4M238,232l1,-26l1,-2l1,-24M798,42l-10,-2h-7l-1,6l-9,3l-6,-2l-5,4l-4,-1M517,237v-32h-1l6,-3l8,4l6,-3l-1,-7l15,-4l10,7h2l2,2l5,6v8l16,-22l2,-6l6,-13h2l2,-1l-1,-5l4,-4v-6l6,-5l15,-22M581,15v9l-1,4l9,4l6,6l3,6v16l4,14l-4,6M721,18l3,12l1,4l5,7l-6,4l-2,13l-2,3l-2,-2l-6,8l-17,-2l-2,9l-5,-5l-4,1l-4,-1l-1,-6l5,-3v-12l-2,-11l2,-7h4l2,-1l1,-11M537,123l5,-7l-3,-8l2,-10M195,27v13l-2,-1v1l-1,-1v1l-4,2l-4,-2h-1v-1h-2l-1,1v25l-1,3l-21,-1l-36,-3M691,110l1,2l11,12v13l3,7l-4,7l9,4l1,5l9,-1l4,6l1,5M500,105l-15,1M618,196l9,-9M645,202v10l-7,24M57,172l19,2h9l9,-2l8,5l-2,20l-1,31M467,218v18M387,93l2,-7l4,-4l1,-12l3,-7l6,-11v-4M664,150v-4l7,-2h16l7,4l8,3M684,92l-13,9h-5l-10,5l-1,-1l-1,2l-4,2h-1l-2,2h-1M516,205l-5,-9h-1l-2,-1v-2l-4,-1l-2,1l-5,-4l-12,-3l-7,2l-5,2M668,195l11,-6l-1,-9l-4,-3l-3,-12l-7,-13M208,87h-1l-3,-2l-1,-1l-2,-1h1h-1l-1,-2h-1v-1l-3,-1h-4l-1,-2h-1l-1,-1l-1,-1l-1,-3h-1l-1,-1l-5,-6M396,178v-4l9,-6l5,-8l2,-19l4,-2M263,122l-2,29l-6,10v14M598,44h2l1,-12l5,-4v-4l11,-3l10,2l7,5h6M286,123h-6l-1,-4l-16,-1M521,44l-2,18l7,6l1,-1l5,1l8,3l8,-2l5,-2l5,-6l-1,-2l5,3l2,4l18,9l6,4l10,1l3,1l-6,5h-9l-1,6l-2,10M664,149l-6,-2M487,60l-8,-7l-7,6l-1,-6l1,-14l5,-5l7,6l21,2M480,13l-3,21M471,53l-1,5l-9,-6l-4,6l-5,-4l-11,8l-4,4M420,45l12,-9v-8l9,-14M119,174l-7,-1h-1l-1,1h-5l-1,1l-2,1v1M672,76l4,-1l4,-6M511,196l4,-8l-1,-19l1,-5l2,1l29,-2l7,6v8l5,5l-1,4l-7,6M515,164l-7,-6l-4,-12l-1,-8l6,-10l5,-6v-3l-14,-14l-5,-17M473,179l-3,3l-19,9l-2,-5l-5,1l-8,-1l-3,-1l-4,-12l3,-31M582,128v-4l-10,3l-6,-2l-3,-1h-3l-8,3l-6,1l-9,-5l-8,-3l-15,2M580,28l-2,1l-8,1l-8,2l-4,6l-1,7l-3,-3l-6,-6l-13,-3l-5,-3l-8,2l3,-16M136,110l5,-1l11,-11l1,-4h1v2l3,2h2l1,11l1,3l1,1l6,2l3,-1l6,4l1,1l2,2l1,1l1,1l1,1h1l-13,14h-3l-2,-1l-1,-1M182,123l23,1M597,173h2l11,6M158,67l-1,21l-2,3h-2v1h-2l2,2M757,92l-5,-8l5,2l-1,-6l5,3l-1,-6l4,-3l15,-1l1,2h9l12,4l3,5l-4,11l-1,14l-2,1l-9,-5l-10,1l-2,-1l-2,-3l-12,-7l-3,-4l-2,1M324,233l2,-7v-12l2,-1v-33l14,-3v-5h14l3,2l2,-11l-2,-3l-5,-5l1,-7l-1,-3M584,131M636,123l2,-3l8,-9l-3,-11l-11,-13l-3,1l-7,-10l-1,-8l3,-4l1,-3l1,-4h8l4,-5l6,-5M162,171l27,2h3l15,-8l6,-7l2,-6l1,-5v-23M634,18l6,10l7,18l-3,3l9,13h2l4,6l11,5l2,3l-1,4l8,5l5,7l1,7l6,11l7,-5l2,-6h6l8,-5l-1,-3l-2,-3l15,-16l-5,-8l-1,-3M560,237l10,-8l2,-7l-3,-7M566,158l-1,1l2,9l10,10l10,9M446,86l5,4l10,8l7,4l6,2l11,2v10l-6,24l12,7l13,-1M411,199l7,1l5,-4l12,-5l1,-5M479,140h-1l-3,2v31l-2,6v11l2,1l-5,9l-2,8v4l-1,6h-6v-9l-5,-7l-5,-6l-7,-3v-6M523,82l-9,4l-8,-1l-4,4l-7,-1l-1,-6l-7,-22l9,-11l8,-2l1,-5l8,1l8,1l1,-12M434,104M434,104M546,128M415,94M374,92M546,128v18l4,17M550,163h-4M415,94l19,10M387,93l1,8l12,-9l15,2M374,92l13,1M373,92h1"/>
<g class="districts"><path data-name="Congressional District 1" class="district-4701" d="M757,92l2,-1l3,4l12,7l2,3l2,1l10,-1l9,5l2,-1l1,-14l-4,-5l-7,1l2,-7l-10,-6l1,-2l1,-1h-3l-1,-2l2,-7l8,-8l12,-1l-2,-14l-1,-1l-10,-2h-2l2,-2l-3,-14l-8,-8l23,-1h28l18,-1h18v-1h22l27,-1h4l3,-1h22l4,-4h29l-1,1l-1,1h-1v1h-1l1,1v2h-2v4h-1v3h1v7h-1v1h-1v5h-1v1h-2l1,1v2h1v1l-1,1h1v1h1h-1l1,1v1l1,1h1v1h-3v-1h-1v1h-3l-1,-1h-2v-2l-1,1h-1v1h-3v1l-1,1h-1v2h-1v1h-1v1h-2v1h-1l-1,2v1l-1,1l-1,1v1l-1,1v1l-2,3v1h-1v2l-1,1l-1,1v2h-1v1l-1,1v2h-1v3h-1l-2,-1v2h-1l-1,1h-5v1h-1v-1h-1v-2l-1,-2l-1,-1h-3l-1,-1v1h-1l-1,-1v-1v1h-1v1l-1,1h-1v1h-2l-1,1h-1l-2,-1l-2,1l-1,1h-1l-1,1h-2l-1,1h-1l-1,1v1h-1v1h-1v1l-2,3l-1,2v1l-2,3l-1,1l-1,1h-1v1h-1v1h-1v1h-1l-1,1v-1v1h-2v1h-2v1l-1,1v-1h-1v-1h-4v-1l1,-2v-1h-1v-2l1,-1v-1l1,-1v-1h-1v1v-1h-1v-1h-1v-1h-1v-1h-2v1h-2l-1,1h-1v1h-1v1h-2v1h-1v1h-2v1h-1v1l-1,1v-1v1h-2v1h-1v3h1v1h-1v2h-1v1h-1v2h-1v1h-1v-1h-1v-1h-1v-1h-1v-1h-5v1h-1v2h-2v1h1v3h1v3h1h-1v1h-2v3l1,1h-1v2h-2v2h-1v3h-2v1h-1v1h-1v1h-1v-1h-1l-1,-1v1v-1h-4v-1v1h-2v-1l-1,1h-1v1h-1v1h-1l-1,1h-4l-1,1v2h-1v1h-1v1h-1v1h-6v1h-1v3l-1,1l-1,1h-1v3h-3l-2,-1h-1v1h-1v1l-1,1l-1,1h-1l-1,1v1h-2v1h-1l-1,1h-3v1h-1v2l-1,1v1h-1v1h-3l-1,1v-1h-6v1h-1l-1,-1l-2,-1h-1v1h-5v-16l-8,-9l-8,-17l16,-12Z"/><path data-name="Congressional District 2" class="district-4702" d="M658,147l5,-4l1,-5l12,-9h4v-6l4,-2v-8l8,-1l-1,-2l7,-5l2,-6h6l8,-5l-1,-3l-2,-3l15,-16l2,2l21,1l4,-6l3,-19l-6,1l-8,-12l-1,-1l-6,1l-5,2l-6,4l-1,-12l2,1l-1,-4l-10,-1l-2,1l-3,-5l-4,-1h-2l-6,7l-1,-2l-5,1l-1,-1l1,-11h62l1,-1l6,-1h17l8,8l3,14l-2,2h2l10,2l1,1l2,14l-12,1l-8,8l-2,7l1,2h3l-1,1l-1,2l10,6l-2,7l7,-1l4,5l-1,14l-2,1l-9,-5l-10,1l-2,-1l-2,-3l-12,-7l-3,-4l-2,1l2,9l-16,12l8,17l8,9v16h-5v1h-4v1v-1h-3v1l-1,1h-1l-1,1h-1v1l-1,1l-1,1h-5l-1,1v1h-1v1h-1v2h-1v1l-1,1h-2v1h-1l-1,1l-1,-1l-1,-5l-4,-6l-9,1l-1,-5l-9,-4l-8,-3l-7,-4h-16l-7,2v3Z"/><path data-name="Congressional District 3" class="district-4703" d="M569,215l16,-22l2,-6l6,-13h2l2,-1h2l11,6l3,6l2,1l3,10l-6,16l-3,3l3,7l2,-3l9,3l4,-5l10,-11h2l1,-2l2,-1l-1,-4l-7,-9l-7,-3l7,-13l20,-27l-2,-11l-5,3l-5,-6l-3,-3v-3l-4,-3l1,-1l2,-3l8,-9l-3,-11l-11,-13l-3,1l-7,-10l-1,-8l3,-4l1,-3l1,-4h8l4,-5l6,-5l3,-3l-7,-18l-6,-10h57l-1,11l1,1l5,-1l1,2l6,-7h2l4,1l3,5l2,-1l10,1l1,4l-2,-1l1,12l6,-4l5,-2l6,-1l1,1l8,12l6,-1l-3,19l-4,6l-21,-1l-2,-2l-15,16l2,3l1,3l-8,5h-6l-2,6l-7,5l1,2l-8,1v8l-4,2v6h-4l-12,9l-1,5l-5,4l6,2v-3l7,-2h16l7,4l8,3l9,4l1,5l9,-1l4,6l1,5v1h-1v1h-1v1h-1l-1,1v3h-2l1,1h-1l1,1v1h1v3l-1,1l-2,2v1h1l-1,2v2h1v3l-1,1h-1v1h-1l-1,1l-2,1v1h-1l-1,1l-1,-1h-2v1h-8v-1l-1,-1v-1h-2v1h-1l-1,1v1h-2v1h-1v1h-1v1h-1v3l-1,3v6l-1,2v9l-1,1v8h-22l-11,1h-40l-13,1h-42l10,-8l2,-7Z"/><path data-name="Congressional District 4" class="district-4704" d="M359,160l7,-1l3,-4h8l8,-2l3,-1v-5l4,-1l1,-9l-2,-3l1,-5h8v4l10,4l6,2h11l-1,-1v-5l7,-7l1,-22l1,-6l5,-3l2,-7l3,4l1,-6l5,4l10,8l7,4l6,2l11,2v10l-6,24h-1l-3,2v31l-2,6v11l5,-2l7,-2l12,3l5,4l2,-1l4,1v2l2,1h1l4,-8l-1,-19l1,-5l-7,-6l-4,-12l-1,-8l6,-10l5,-6l15,-2l8,3l9,5l6,-1v4h6l3,-4l6,2l-1,-3h-1l1,-1l6,2l10,-3v4l1,1l1,2h23l1,3l13,-3l12,-8h3l-1,1l4,3v3l3,3l5,6l5,-3l2,11l-20,27l-7,13l7,3l7,9l1,4l-2,1l-1,2h-2l-10,11l-4,5l-9,-3l-2,3l-3,-7l3,-3l6,-16l-3,-10l-2,-1l-3,-6l-11,-6h-2l-2,1h-2l-6,13l-2,6l-16,22l3,7l-2,7l-10,8h-66l-26,-1h-58v-24l1,-13v-4h-1l-8,-3l-2,-13l-4,-1l-1,1l-5,-2l-5,-1l-2,-1l-2,-1h-1l-1,-1h-2l-8,3l-10,-2l2,-11Z"/><path data-name="Congressional District 5" class="district-4705" d="M331,74l4,-7l2,-14l20,3l5,-1v-4l9,-8l2,1l7,-7l6,5l-4,2l8,7l-1,4h-1l2,3l5,1l2,4l6,-11v-4h3l7,4l7,-7l3,8l5,4h1l3,8l5,1l4,15h3l2,5l-1,6l-3,-4l-2,7l-5,3l-1,6l-19,-10l-15,-2l-12,9l-1,-8l-13,-1h-1l-3,12l-35,-5l-2,-2v-18l-2,-5Z"/><path data-name="Congressional District 6" class="district-4706" d="M381,12h57l3,2l1,-1h1l4,-1h18l5,1h11l9,1h1l30,2h4l32,1h1l5,-1l12,-1h26l12,1l14,1h1l6,1l6,10l7,18l-3,3l-6,5l-4,5h-8l-1,4l-1,3l-3,4l1,8l7,10l3,-1l11,13l3,11l-8,9l-2,3h-3l-12,8l-13,3l-1,-3h-23l-1,-2l-1,-1v-4l-10,3l-6,-2l-1,1h1l1,3l-6,-2l-3,4h-6v-4l-6,1l-9,-5l-8,-3l-15,2l-5,6l-6,10l1,8l4,12l7,6l-1,5l1,19l-4,8h-1l-2,-1v-2l-4,-1l-2,1l-5,-4l-12,-3l-7,2l-5,2v-11l2,-6v-31l3,-2h1l6,-24v-10l-11,-2l-6,-2l-7,-4l-10,-8l-5,-4l-2,-5h-3l-4,-15l-5,-1l-3,-8h-1l-5,-4l-3,-8l-7,7l-7,-4h-3v4l-6,11l-2,-4l-5,-1l-2,-3h1l1,-4l-8,-7l4,-2l-6,-5l1,-11l-3,-2Z"/><path data-name="Congressional District 7" class="district-4707" d="M151,176v-5h11l27,2h3l15,-8l6,-7l2,-6l1,-5v-23l2,-2v-1h2v-1l43,2v-4l-4,-1v-22l1,-14l1,-1v-1l4,-5h1v-1l1,-1l6,-6v-3l2,-2v1v-1h1h-1l1,-1v-1h1l5,-5v-1l-2,-4h5l-8,-11l1,-8l3,-6l-2,-12l-1,-1l-1,-2v-3h8l16,2l3,4h77l-3,12l3,2l-1,11l-7,7l-2,-1l-9,8v4l-5,1l-20,-3l-2,14l-4,7l2,5v18l2,2l35,5l3,-12h1l13,1l1,8l12,-9l15,2l19,10l-1,22l-7,7v5l1,1h-11l-6,-2l-10,-4v-4h-8l-1,5l2,3l-1,9l-4,1v5l-3,1l-8,2h-8l-3,4l-7,1l2,3l-2,11l10,2l8,-3h2l1,1h1l2,1l2,1l5,1l5,2l1,-1l4,1l2,13l8,3h1v4l-1,13v24h-5l-11,-1h-27l-1,-1h-14l-28,-1h-14l-28,-1h-10l-12,-1h-3l1,2h-18l-2,-1h-24l-10,-1h-40l-5,-1h-12l2,-15Z"/><path data-name="Congressional District 8" class="district-4708" d="M56,170v-1h1l1,-1v-1h1v-2l1,-2l-3,-4l-1,-1v-2l2,-3v-1l2,-1l2,-1h1l3,3v2l1,1h5v-2l-1,-2h-1l-1,-1l-1,-1l-2,-3l1,-1v-1h1l6,-2l1,-1l3,-1l1,-1v-3l-4,1h-4l-2,-2v-1l-2,-2v-5l2,-2l4,-2l3,2h2l2,-1h3v-1l1,-1l1,-1v-1l2,-3h2l1,-1l2,1h2v-5l-5,-3l3,-5h1l5,2l2,1h2v-3l-3,-5l-2,-2l-2,-1v-3l2,-2v-1l2,-3l1,-6l4,-4h2l1,-1l2,-1v-1l1,-2v-1l-1,-1v-1l-2,-1l-1,-2l-2,-1h-1l-1,-2l-3,-6l10,2l5,-1h1l2,-1v-2l-1,-1h-1l-4,-2l-1,-1v-6h2l4,1h2l1,-1l1,-2v-3l-2,-4l-1,-3l2,-3l1,-1v-2h-1l-1,-2l4,2v2l1,1h3l1,-1l3,-3v-1h5l4,-1h5l50,2h1l1,1h32l4,1h11l35,1l-1,8l8,11h-5l2,4v1l-5,5h-1v1l-1,1h1h-1v1v-1l-2,2v3l-6,6l-1,1v1h-1l-4,5v1l-1,1l-1,14v22l4,1v4l-43,-2v1h-2v1l-2,2v23l-1,5l-2,6l-6,7l-15,8h-3l-27,-2h-11v5l-2,39l-2,15h-17l-15,-1l-13,-1h-17l-2,-8l-8,-7l-8,-2l5,-5l5,4l7,1l6,1v-10l4,-2l-16,-1l-1,2h-4v-12l6,-3l-4,-3l5,-2v-5l-4,-2l-19,-2h-1l-1,-1ZM43,168l2,-2h2v-1l1,-2v-1h5l1,1v2l-1,1v2l1,2v1l1,1v1l-2,1l-2,-1l-2,-2v-1l-3,-1v1l-1,1v2l1,1h-1v1h-2v-5Z"/><path data-name="Congressional District 9" class="district-4709" d="M26,219h4v1h2l2,1l4,-1l2,-7v-1l4,-4l6,1l2,-3v-1l-3,-1l-2,-3v-1l2,-1l2,-2l1,-1l-2,-3l-1,-1l-1,-1h-4v-7l1,1l1,-1h2l1,-3v-1l-1,-1l2,-1l1,-1l1,-2l1,-1l2,-1l2,-1l19,2l4,2v5l-5,2l4,3l-6,3v12h4l1,-2l16,1l-4,2v10l-6,-1l-7,-1l-5,-4l-5,5l8,2l8,7l2,8h-3l-20,-1h-3l-34,-2v-4Z"/></g>
  <path class="districts-mesh" d="M726,170l-1,-5l-4,-6l-9,1l-1,-5l-9,-4l-8,-3l-7,-4h-16l-7,2v3l-6,-2l5,-4l1,-5l12,-9h4v-6l4,-2v-8l8,-1l-1,-2l7,-5l2,-6h6l8,-5l-1,-3l-2,-3l15,-16l2,2l21,1l4,-6l3,-19l-6,1l-8,-12l-1,-1l-6,1l-5,2l-6,4l-1,-12l2,1l-1,-4l-10,-1l-2,1l-3,-5l-4,-1h-2l-6,7l-1,-2l-5,1l-1,-1l1,-11M380,37l1,-11l-3,-2l3,-12M560,237l10,-8l2,-7l-3,-7l16,-22l2,-6l6,-13h2l2,-1h2l11,6l3,6l2,1l3,10l-6,16l-3,3l3,7l2,-3l9,3l4,-5l10,-11h2l1,-2l2,-1l-1,-4l-7,-9l-7,-3l7,-13l20,-27l-2,-11l-5,3l-5,-6l-3,-3v-3l-4,-3l1,-1l2,-3l8,-9l-3,-11l-11,-13l-3,1l-7,-10l-1,-8l3,-4l1,-3l1,-4h8l4,-5l6,-5l3,-3l-7,-18l-6,-10M282,54v-1l-2,-4h5l-8,-11l1,-8M147,230l2,-15l2,-39v-5h11l27,2h3l15,-8l6,-7l2,-6l1,-5v-23l2,-2v-1h2v-1l43,2v-4l-4,-1v-22l1,-14l1,-1v-1l4,-5h1v-1l1,-1l6,-6v-3l2,-2v1v-1h1h-1l1,-1v-1h1l5,-5M759,155v-16l-8,-9l-8,-17l16,-12l-2,-9l2,-1l3,4l12,7l2,3l2,1l10,-1l9,5l2,-1l1,-14l-4,-5l-7,1l2,-7l-10,-6l1,-2l1,-1h-3l-1,-2l2,-7l8,-8l12,-1l-2,-14l-1,-1l-10,-2h-2l2,-2l-3,-14l-8,-8M434,104l1,-6l5,-3l2,-7l3,4l1,-6l5,4l10,8l7,4l6,2l11,2v10l-6,24h-1l-3,2v31l-2,6v11l5,-2l7,-2l12,3l5,4l2,-1l4,1v2l2,1h1l4,-8l-1,-19l1,-5l-7,-6l-4,-12l-1,-8l6,-10l5,-6l15,-2l8,3l9,5l6,-1v4h6l3,-4l6,2l-1,-3h-1l1,-1l6,2l10,-3v4l1,1l1,2h23l1,3l13,-3l12,-8h3M85,228l-2,-8l-8,-7l-8,-2l5,-5l5,4l7,1l6,1v-10l4,-2l-16,-1l-1,2h-4v-12l6,-3l-4,-3l5,-2v-5l-4,-2l-19,-2M55,173l-2,1M410,236v-24l1,-13v-4h-1l-8,-3l-2,-13l-4,-1l-1,1l-5,-2l-5,-1l-2,-1l-2,-1h-1l-1,-1h-2l-8,3l-10,-2l2,-11l-2,-3l7,-1l3,-4h8l8,-2l3,-1v-5l4,-1l1,-9l-2,-3l1,-5h8v4l10,4l6,2h11l-1,-1v-5l7,-7l1,-22l-19,-10l-15,-2l-12,9l-1,-8l-13,-1h-1l-3,12l-35,-5l-2,-2v-18l-2,-5l4,-7l2,-14l20,3l5,-1v-4l9,-8l2,1l7,-7l6,5l-4,2l8,7l-1,4h-1l2,3l5,1l2,4l6,-11v-4h3l7,4l7,-7l3,8l5,4h1l3,8l5,1l4,15h3l2,5"/>
</svg>