<?xml version="1.0" encoding="utf-8"?>
<!DOCTYPE svg PUBLIC "-//W3C//DTD SVG 1.1//EN" "http://www.w3.org/Graphics/SVG/1.1/DTD/svg11.dtd">
<svg version="1.1" xmlns="http://www.w3.org/2000/svg" width="1000" height="955" viewBox="0 0 1000 955">
  <path class="state" d="M688,834v12l8,7l2,13l2,7l-4,6l4,1l-2,2l5,-1l2,5l4,20l8,5l-3,9l7,-4l1,4h-11v1h1l-1,1h-2v1v-1h-1v1h-1l-1,-1v1l-1,1v3h-1h1v2h-1h1v1h-3v-1v1h-3v-1l-1,-1h-1v-1h-2v-2v1h-1v1h-1v-2h-1v-2h-2l-1,-1h-1h1v-1v1h-1v-1l-2,-1l-1,-1l-1,-1h1v-1v1h-1v-2l-2,-1h-2v1v-1l-1,-1v1h-4l-1,-1l-1,1v-1h-1v-1h-2h1h-1v-1h-1v1h-3v-1l1,-1h-1v1h-3l-1,1l-1,-1l1,1h-1l-1,-1l-1,1l-1,-1h-1l-1,1h-1v-1h-1v1l-1,1l-2,1h-1v-1h1v-1h-1v-1h-1v1l-1,-1h-2l-1,1h-1l-1,-1h-1v1h-1v-1h-1v-1h-2v1h-1v-1h-1l-1,-1h-1v-1h1l1,-1h-1v1v-1h-1l-1,1v1v-1h-1v-1h-1v-1l-1,-1v-2l-1,1h-1v-2v2h-2v-3h-2v-1h-2v-1h-2l-1,1h1h-3v-2l-1,1v-1l-1,1l-2,-2h1v1h-1v1v-1l-1,-1v1h-1v-2h-2v1h-1v-1l-1,1l-1,1h-1v-1h-1v-2h-3v-1h2l-1,-1h-1l-1,-1h-1l-1,-1h1v1h1v-1l-1,-1h-3v-1h-1v-2h-1l-2,-1v1h-4v1h-1v-2h-1v-1h-1v1l-1,1v-1h-1v-2h-2l-1,1v-1h-2v-1h-2l-1,1h-2l-1,-1v-1l-1,-1h-1l1,-1h1h-1v-1h1v-2l-1,-1v-1h-1v-1l-1,-1h-1l-1,-1v-2l-6,-15v-4l-2,-2v-3l-1,-1l-1,-1h-3v-4h-3l-1,-1l-1,-1v-2l1,-1h-1l-1,-2v-2l-1,1h-1v-2h-1v-2l1,-1v-1h1v-1l-1,-1v-1h1v-2h-1l1,-1v-4l-1,-1v-1h-1h1v-3h-5l1,-1v-2l-1,-1h-1v1h-1v-1h-1v-1h1l1,-1l1,-1v-3h1v-4l-1,-1v-1l1,-4h-3v-5h1v-2h-1l-3,-3h-1v1h-1l1,-1h-1v-1l-1,-1h-2v1h-2v-2l-1,-1h-1l-1,1l-1,-1l-1,-1l-1,-2h-1v-1l-1,-1h-2v-1h-1v-2l-1,-2l-1,1v1h-1v-1l-1,-1v-1h-2v-5h-1l-1,-1v-5h-1v-2h-1v-1h1l-2,-2h-1l-2,-1v-1h-1v-2h-1v-4h-3v-3h-1v-1h-1v-2h-1l-1,-1h-2v-1h-2l-1,-1v-1h-2l-1,-1v-2l-1,-1l-1,1v-1h-1v-1h-1l-2,-2v-2l1,-1l-1,-1l-1,-1v-1h-1v-2h-1v-1l-1,-1v-2l1,-1l-1,-2v-1h-1v-1h-1l1,-1h1l1,-1v-1h-2l-2,-1l-1,-1h-1v-2h1v-3h-2l-1,-1v-4h-4v-2l-1,-1v-3l1,-1l-1,-1v-1l-1,-1v1v-1h-1v-4l-2,-1h-1v-1l-1,-3l-1,-1h1h-1v-1h-1l-1,-1v1v-1h-1v-1h1h-1l-1,-2l1,-1v-4l-1,-1v-2l-1,-1l1,-1l-1,-2l-1,-3h-2l-1,-1v-1l-2,-1l-1,-1v-4l-1,-2h-1v-1h-1l-1,-1h-1l-2,-1h-1v-1l-1,-2h-1v-1h-1v-1h-1l-1,-1h-1v-1h-1l-1,-1h-2v-3h-1v-1h-1v-2l-1,-1v-1l-2,-1h-2l-2,-1l-2,-1l-1,-1v-1h-1l-2,-1h-2l-1,-1l1,-1v-1l1,-1h-1v-5h-1l-1,1v3l-1,1h-1l-1,-2v-1l1,-1v-3l-1,-1h-2l-1,1h-1v-3l-1,-1l-1,-1v-2h-1v-3l-1,1h-1v1h-1v-2h-1l1,-1l-1,-1h-1l-1,1v1h-1l-1,1h-1v-4h-2l-1,1v2h-1l-1,-1l-1,1l-2,1h-1v-1h-5v-1h-3v-1h-1v1h-2v-2h-1v1l-1,-1h-6l-1,1h-1l1,-1h-3v-1h-1v1h-4l-1,1h-1l-4,-1h-2l-1,-1v-1h-2v-1h1l-1,-1h-3l-2,-1h1h-2v-1h-1v-1h-1l-1,-1v1h-1v1h-2v1h-1v3l-1,2h-1v2h-2l-2,-1h-1l-1,-1v1h-1v-1h-2v2h-2v1l-1,1v-2l-1,-1v2h-3l-1,1l-1,1h-1l-1,-1h-1v1h-1v2l-1,1v2h-1v1h-1v1h-1v4h-1v1l-1,-1l-1,1h1v1l-1,1v1h-1l-1,1v6h-1v2h-1v3h1l1,1h-2v2h-1v1l-1,1h-2v3h-1v2l-1,1l1,1h-1l1,1v1h2v2h-1v1h-2v-1l-1,1v1h-2v1h-2v-1l-2,2v1h-1v1l-1,1v1h-1v2l-1,1v-1l-1,1h-1v1h-1l1,1h-1v-1l-1,1v4l-1,1v2h-2l-1,1h-1v-1h-2l-1,-1h-2l-1,1h-1v-1l-1,-1v2h-1v-2l-1,-1h-1v1v-2h-1l-1,-1h1l1,-1h-2v1l-1,1h-1l-1,-1v-1l-1,1v-1h-3l1,-1h-1v-1h-1v-1h-2h1l-1,-1h-1v-1l-1,-1v-1h-2h1v-1h-1v-1h-1l-1,-1h1h-3v-1h-5v-1h-1l-1,-1h-3l-1,-1v-2h-1l-1,-1v1h-1v-4h-2v-1h-2l-1,-1h-7v-1h-4v-1h-2v-1h-1l-1,-1v-1h-1l-1,-1v1v-1h-1v-1l-1,-1v-1h-2v-1h-2v-1h-1v-2h-1v-1h-1v-4h-1v1v-1h-1v-1l-1,-1h-3v-1h-2v-1v1h-3v-1h-1v-1l-1,-1v-1l-1,-1l-1,-1l-1,-1h-1v-1h-1v-1h-2v-1h-2l1,-1h-1v-1l-1,-1l-1,-1v-1h1l-1,-1v-3h-1h1h-1v-1h-1v-1h1h-1v-3h-1v-2v1l-1,-1h-1v-3h-1h1h-1v-2h-1v-1h-1v-2v1v-2h-1v-2h1l-1,-1h1h-1v-1h1h-1v-5h-1v-4h1l1,-1h-1h1v-1h-1v-1h1l-1,-1v-2h1h-1v-1h1v-3h-1v-1l-1,-1v-1l1,-1h-1l-1,-1v-1h-2v-2v1h-1v-1h1v-1l-1,-1h-1v-1h-1v-1h-1l-1,-1v-1l1,-2v1l-1,-1h-1v-1h-1v-3h-1l1,-1l-1,-1v-5l-1,-1v-3h-1v-2l-1,-1l-1,-1v-1h-2v-1h-1v-3l-1,-1v-1l-1,-1h-2v-1l-1,1h-1v-1l-1,-1h-1l-1,-2v-1h-1v-1h-3v-2h-1v1h-1v-2h-3v-2h-1v1h-1v-1l-1,-1v1v-1l-1,-1v1v-1h-1v1h-1v-1l-1,-1h-1v-1l-1,1v-2h-3v-1h1h-1v-1l-1,-1l-1,-1h-1v-1h-1v-1h-1v-1h-1v-1h-1v-1l-1,-1l-1,-1h-1v-1h-1l-1,-1v-1h1l-1,-1l-1,-3v-2h-1l-2,-1h-1v-2l-2,-1h-1l-1,-1h-1l-4,-3v-1l-1,-1l-3,-5v-1h-1v-2h-1v-1h-2v-1h-3v-1l-1,-2v-2l-1,-1h-1l-1,-2h-2l-4,-1l-1,-1l-2,-1h-1l-4,-3v-1h-1l-1,-1v-2l-1,-1v-2l-1,-1l-1,-1h-1v-2l-1,-1v-3h-1l-1,-1v-2h-1v-3l-1,-1v-1l-1,-2h-2l-1,-1h-1v-1h-2v1h-3v-1l-1,-1l-1,-1v-1l-5,-3v-2h-2v-5l1,-1h1l-1,-1v-1l1,-2h-1v1v-1l-1,-1l4,-2l11,1h4l28,2h11l38,2l28,1h7l21,1l31,2h9l18,1h1l27,1h18l1,-8l1,-2v-35l1,-2v-15l1,-20l1,-25v-11l1,-15v-5l1,-18v-11l1,-17v-12l1,-8v-30l1,-1v-33l1,-3v-26l1,-11v-18l1,-14v-32l1,-9v-1h54l5,1h47l5,1h97v165h3v-1h3v1h1v1h1v1h1v2h1l1,1l1,1v1h1v1l1,1l1,1h1l1,2h1l1,1h1v2h6v1h2l1,-2h-1l1,-1l1,-1h2l3,1l1,1h2v1v-1l1,1v1h1l1,-1l1,1v-2l1,-1v-3h-1h1v-1h2v1l1,1l1,1h3v1h1v1h-1v1h1l1,1h1h-1v1h1v-1v2h1l-1,1h2v1h1h-1v3h1v4l1,1v2h3v-1h1v1h9v-1h1l1,1h3v1h1v1h2v1h1v1h3v-1h1v1h1v1h2v1h1v1h1v-1h4v-1h1v-1h1v-1h3v1h1v-1h1v1h1l1,1v1h1h-1v1h1l1,1v2h2l1,1h1v-1h4l1,-1v-3h2v-1h-1v-1h1l1,-1h1v1h2l1,1h1l1,1l1,-1l1,1v-1l1,1h1l1,1h3v-1l1,-1v-1h1v-1h1l1,1l1,1v2l-1,1v1h-1v2h1l1,1l1,1h-2v1h1v1h1v1h-1h1l1,1h6v-1l1,1h1v2l-1,1l-1,1h1l1,1l-1,1l-1,1v2l1,1h3l1,1h1v1h4l1,-1l1,-1v-1v1l1,-1v-1h1v-2h2v-2h2l1,-1v-2h1v-1h3l1,1h1v1h2v4l1,1h3l1,-1h1l1,-1h1v1h1l1,1h1v4h-1v1l2,1h4l1,-1h1v-3l1,-1v3l1,-1v-2l1,1h1v1h3v-3l1,-1v-1h2l1,1l1,1v2h1v2l-1,1h-1l-1,1l1,3v1h1v1h-1v1h1l1,1v2h4v-1h1v-7l1,-1h2v-1h-1l-2,-1v-1h2l1,1v1h1v-1h1l1,-1v-1l1,-1v-6h1v1h1l1,-1h1l2,1h1l3,6l5,3l7,-6l2,-2l2,2h2v1h-1v1l-1,1v1l1,1l1,1h5v2l1,1l1,1h1l1,-1h3l1,1v1l1,1v1l2,1v1h1v1h3v-2l1,-4l1,-1l1,1l5,1l2,-1v-4h1l1,-1l2,-1h1l1,-1h2v1l1,-1v-1h1v1l1,-1h1v-1l-1,-1h1l1,1v1l2,-1h1v-1l2,-1l2,1v1l2,1h1v1h1l1,-1v-1h2l1,1v-4l1,-1h2l2,1h1v-1h3l1,-2l2,-1v-1l1,1h2l1,2l1,2l1,-1v1l4,1h2l6,-1h1l1,-1l2,-1l1,-1l1,2h1v-5h1v-2l1,1h2l1,1h3v3l3,-1h1v1h-1v1h-1v1h2v-3v2v-1l1,1v1h1v1h4v1h1v-1h1v2h1v1h-1v1l1,1h1v-2h1v4h1v1h2l4,2v-2h1v2h2l1,-2h1v1h-2l1,2h1v-1h1v1h-1v1h1v-1h1l-1,1h-1l1,1l1,1h1v-2l1,1v1h1l1,-1l1,1v1h1l1,1v-2h1v1l1,1h1v-2l1,1l-1,1h1v-1l1,1h-1v1h-1v1l1,-1h2v1h-2h4h-1v1h1v-1h1v1l1,-1h1h-1h2l1,-1l1,1h-2h1v1l-1,1l1,1v-1v1h2v1l1,1h1v-1l1,1h-2v1l1,1h3v-2l2,1l1,1v-1l1,-2h1v1h-1l2,1v-2l2,2l2,-1v-2h2v-1h2v2h4v-1h1l1,1h1l-1,1h2l1,15v9l1,14v5l1,2v12l1,6v17h1v15l1,2v16l1,2v16l1,1v1h2v1l1,1v1l1,1v2h4v1l-1,1h2l1,1v1h1v2h1v1l1,1v1h2v1l1,1v3h-1h1l1,1v2h2l-1,2l-1,1v5v-1l-1,1v2l1,1l1,1h-1h1v2h1l1,1h3l2,2h-1l-1,1v2l1,1h2v1h1v1l-1,1v1h1v1h2v2h2v-1v2h-2v3h-1v2h1l1,1v1h3l1,1v3h1v5l1,1l2,-2h1v-1v1l1,1v1h-1l1,1v2l-1,2h-1h1v1h1h-1v1l1,-1v1h1l1,1l-1,1l1,1h1h-1v1h-1v1h-1v1l-1,-1h-1v1l1,1v1h-1v1h2v1h2v3h-2v2h-1v2h1v4h1l-2,2h-1l1,1h-1v2h-1v1v-1v1h-1h1v1h-1v1h1h-1v1h1v1v-1l-1,1v2l-1,1h-1l-1,1v1h-1v4h-1h1v2h-1h1h-3v2l-1,1h1h-1v2h2v5h1v2h1h-1v1h-1v1v-1l-1,1h1h-1v1v-1v1l-1,1v1h-1h1h-1v1l1,1h-1l1,1h-1l1,2v1h1v1h1v1h1l1,1v4l-1,1v1h1h-1v1h1v2h1v1h-1v1h1v1h1h-1v2h-1l-1,1v2h1v1h1v1h-1v-1v2l-1,2l-3,2h-1l-1,3l-3,8v1l-1,1h-1l-1,1l-2,4l3,1v3l2,2v1h1v1l1,2h-12l-9,2l-17,9l-1,1l-21,11l-8,8l8,-11h4l2,-5l6,2l2,-5h-1v1h-1l-1,1h-1v-2h-1v-1h-3l-1,1h-1l-1,1h-2l-1,1h-1v1h-3l-1,1h-4v-2l6,-6v-12l-10,-3l-4,12l-3,-2l-10,-4l-2,-8l-1,8h-6l15,5h-1v1h-1v3l1,2h1v1h-1v1l-1,1v3h1v1h1v1h2v1h3l-2,7l4,-2l2,6l-2,6l-2,-1l-9,10l-7,1l-1,7l-5,12l-8,7l-10,6l-16,8h-7l-10,4l-1,6l6,-1l-23,12l-9,8l6,-8l14,-7l4,-1l-3,-5l-10,5l-5,-4l3,-4l-7,1l-3,4l-5,-3l-3,-3v10l-3,-6l-5,3l-2,-6h-1v1v-2h-6v1l7,10l13,11v3l-10,3l-8,5l-5,-6l-6,-3v1h1v2l-1,1l-5,-2l4,5v2l1,1v1l-1,4v4l-2,3l-7,5l-2,-10l-2,9l-3,-5l-5,4h-7l1,3l-5,6l7,1l-3,6l5,-8l6,-3l1,5l-8,11v2l-2,2v2h-1v2h-4v-1h-1h2v-2v1h-1v-1h-1v-2h-5v1h-2v1l-1,1v-1h1v-2h-3l-6,1v-1v2l-1,-1v1h-1v-2h-2v1h-1v1l1,1h2v1h8l-1,4l4,6l6,2l-5,11l-2,14l-4,7l-9,3l5,-9l-6,5l-5,2l-10,-10l7,12l-9,1h11v3h9l7,-2l-2,12l-3,1l2,8ZM893,626l-16,14l6,-10ZM758,721l5,-4l6,1l-9,5l-9,6l-11,11v-2l1,-2l1,-4l8,-3ZM738,740l1,2l-11,11l2,-8ZM716,770l6,-10l3,1l-5,6l-6,11ZM702,842l1,-1l5,20l-4,-6ZM703,841l-2,-3l1,-26l1,-4h-1l1,-8l7,-18h2l-7,18l-2,8l-1,10ZM708,861l1,5l3,7h-1l-5,-4l2,-3l-2,-6Z"/>
<g class="geos"><path data-name="Menard" class="geo-327" d="M531,487v12h10v19h-47v-31Z"/><path data-name="Hale" class="geo-189" d="M356,211h37v41h-38v-25Z"/><path data-name="Armstrong" class="geo-011" d="M390,137l8,1h29v37l-27,-1h-11l1,-10Z"/><path data-name="Calhoun" class="geo-057" d="M752,685l7,10l13,11v3l-10,3l-8,5l-5,-6l-6,-3v1h1h-1v-1l-2,1l-6,-6l-1,-5l3,-6l10,-3ZM758,685h1l10,-1v10l-3,-6l-5,3l-2,-6h-1ZM740,738l1,-2l1,-4l8,-3l8,-8l5,-4l6,1l-9,5l-9,6l-11,11Z"/><path data-name="Clay" class="geo-077" d="M614,231l1,-1v-3h2v-1h-1v-1h1l1,-1h1v1h2l1,1h1l1,1l1,-1l1,1v-1l1,1h1l1,1h3v-1l1,-1v-1h1v-1h1l1,1l1,1v2l-1,1v1h-1v2h1l1,1l1,1h-2v1h1v1h1v1h-1h1l1,1h6v-1l1,1h1v2l-1,1l-1,1h1l1,1l-1,1l-1,1v37l-5,1h-25l-1,-1v-31Z"/><path data-name="Orange" class="geo-361" d="M935,554l1,-5l-2,-3h16l14,-1v1l-1,1v1h1h-1v1h1v2h1v1h-1v1h1v1h1h-1v2h-1l-1,1v2h1v1h1v1h-1v-1v2l-1,2l-3,2h-1l-1,3l-3,8v1v-10l-14,-3Z"/><path data-name="Gonzales" class="geo-177" d="M675,611l3,-4v1l1,-1l2,1l20,-13l13,11v2l-5,4l-2,17l-6,6l-21,18l-9,-9l-8,-13Z"/><path data-name="Fannin" class="geo-147" d="M759,258v1h1v1h3v-2l1,-3v-1l1,-1l1,1l5,1l2,-1v-1l1,-3l1,-1l2,-1h1l1,-1h2v1l1,-1v-1h1v1l1,-1h1v-1l-1,-1h1l1,1v1l2,-1h1v-1l2,-1l2,1v1l2,1h1v37l-31,7h-5l-1,-4Z"/><path data-name="Kerr" class="geo-265" d="M532,587h-6v-14h-5v-18h33v12h28l1,2v28l-20,-10Z"/><path data-name="Refugio" class="geo-391" d="M699,713l16,-14l1,1h7l2,1l3,3h6v-1h1l6,6l2,-1v1h1v2l-1,1l-5,-2l4,5v2h1v2l-23,4l-2,2l6,4h2l-5,4h-7l1,3l-5,6l-2,-2l-4,-4l-6,1l-4,-4h-7Z"/><path data-name="Jim Hogg" class="geo-247" d="M582,811h12v-8l21,1v7l2,2l2,16h4v22l-40,1v-35Z"/><path data-name="Dimmit" class="geo-127" d="M548,694v38l-19,1h-35v-39Z"/><path data-name="Nolan" class="geo-353" d="M492,364v38h-6l-31,-1v-37Z"/><path data-name="Brazos" class="geo-041" d="M761,524l-10,-3l2,-5l8,-4l7,-15l9,-6l2,3l1,1v3l1,2v4h1l-1,2v1l1,1v2v-1v4l-1,1l1,2v5l-1,1l1,3l1,1l2,7v1v-1v1l1,2h1l-3,10v-4h-10l-6,-13Z"/><path data-name="Jefferson" class="geo-245" d="M927,553v-1v1v-1h1l4,1l1,1h2l6,11l14,3v10l-1,1h-1l-1,1l-2,4l3,1v3l2,2v1h1v1l1,2h-12l-9,2l-17,9v-4l-1,-23h-6l-1,-19h1l1,1l3,-1h1l4,-1l1,-1v-3h4v-1Z"/><path data-name="Bell" class="geo-027" d="M662,482l28,-17l6,6l5,-4l15,25l-13,8l-4,13l-14,-6l-17,-6l-7,-1l-6,-11v-2l5,-3Z"/><path data-name="Bandera" class="geo-019" d="M547,611h-15v-24h31l20,10l10,6l-2,2l-8,11h-5v-5Z"/><path data-name="Hidalgo" class="geo-215" d="M626,904v-2h-2v-1h-2v-1h-2l-1,1h1h-3v-2l-1,1v-1l-1,1l-2,-2h1v1h-1v1v-1l-1,-1v1h-1v-2l7,-16l8,-18l4,-12h26v12l3,3l-4,14l11,1v31h-3l-1,1l-1,-1l1,1h-1l-1,-1l-1,1l-1,-1h-1l-1,1h-1v-1h-1v1l-1,1l-2,1h-1v-1h1v-1h-1v-1h-1v1l-1,-1h-2l-1,1h-1l-1,-1h-1v1h-1v-1h-1v-1h-2v1h-1v-1h-1l-1,-1h-1v-1h1l1,-1h-1v1v-1h-1l-1,1v1v-1h-1v-1h-1v-1l-1,-1v-2l-1,1h-1v-2v2h-2Z"/><path data-name="Schleicher" class="geo-413" d="M494,487v31l-17,1h-45l1,-4v-28h20Z"/><path data-name="Grayson" class="geo-181" d="M718,240h1l2,1h1l3,6l5,3h5l2,-6l2,-2l2,2h2v1h-1v1l-1,1v1l1,1l1,1h5v2l1,1l1,1h1l1,-1h3l1,1v1l1,1v1l2,1v28h-32l-7,-1l-1,-6v-30Z"/><path data-name="Crosby" class="geo-107" d="M430,252v38h-37v-38Z"/><path data-name="Delta" class="geo-119" d="M806,277v-1l1,1h1h-1h1v1h1h-1h1l1,-1h1l3,-1l1,1h3v1l1,1l2,1l1,-1h1l3,1l1,1l3,1v1h2l1,1v-1l1,1h2v1l-2,1h-2l-1,-1l-1,1v-1h-2l-1,1h-3v1h-2l-1,1h-1l-1,-1h-3l-2,1l-1,1v1h-1l-3,2h-6l1,1l-2,1v1l-1,1l-1,1v1h-1l-1,1l-1,1l-1,-17v-4h3v-1h1v-1l1,-1h3l1,1Z"/><path data-name="Zavala" class="geo-507" d="M495,657l15,-1h37v33l1,5h-54v-27Z"/><path data-name="Rockwall" class="geo-397" d="M764,320h2l1,12v3l-16,1v-15h3Z"/><path data-name="Eastland" class="geo-133" d="M605,364h7v19l-6,3l-10,7l-16,9h-13v-37h24Z"/><path data-name="DeWitt" class="geo-123" d="M703,674l-8,-6l-11,10l-14,-16l10,-9l21,-18l6,-6l20,23Z"/><path data-name="Angelina" class="geo-005" d="M873,463l1,-3l-1,-2l-1,-1l-4,-1v-3l-2,-2l-2,-2l10,-9l1,1v1h2v1l1,1h3v1h3h-1h1v1h4l3,1h3h-1h2l3,3l1,-1h2l2,2l2,5l1,1h3l2,4l1,1h1l2,2l1,1v1h2l11,8l-23,7l-4,-1l-2,-1h-3v-1l-2,-1h-1h1h-7v-1h-4l-4,-2l-2,-1l-1,-1v-2l-1,-3Z"/><path data-name="McLennan" class="geo-309" d="M700,428l17,-10l7,12l10,16l-18,12l-15,9l-5,4l-6,-6l-14,-23l9,-6Z"/><path data-name="Lamar" class="geo-277" d="M796,247h1l1,-1v-1h2l1,1v-4l1,-1h2l2,1h1v-1h3l1,-2l2,-1v-1l1,1h2l1,2l1,2l1,-1v1l4,1h2l6,-1h1l1,-1l1,1v21l2,21h-2l-1,-1v1l-1,-1h-2v-1l-3,-1l-1,-1l-3,-1h-1l-1,1l-2,-1l-1,-1v-1h-3l-1,-1l-3,1h-1l-1,1h-1h1h-1v-1h-1h1h-1l-1,-1v1h-1l-1,-1h-3l-1,1v1h-1v1h-3Z"/><path data-name="Leon" class="geo-289" d="M807,436l6,-1l-2,10l1,2l2,8l4,4l-5,6l-2,15h-15l-11,7l-8,4v-2l-1,-1l-1,-1l1,-1v-2l-1,-1h-1l-2,-6l-1,-1h1v-1l-1,-2v-1l-1,-2v-2l-1,-1h1l-1,-1v-3l1,-3l-1,-1l7,-5Z"/><path data-name="Stonewall" class="geo-433" d="M466,290h38v37h-38Z"/><path data-name="McMullen" class="geo-311" d="M593,743v-11l-1,-14v-24h35v42l1,7Z"/><path data-name="Sutton" class="geo-435" d="M494,518v37h-62v-36h45Z"/><path data-name="Fort Bend" class="geo-157" d="M796,597l14,-6l6,4l4,2l5,3l5,3l9,4h1l-1,7v6h-7v5l-5,7l-1,1l-8,-2l-8,5l-7,-8l-2,-2l-1,-4h-2l-1,-1l-3,-3l1,-5l-1,-4l-2,-1l5,-3Z"/><path data-name="Parker" class="geo-367" d="M641,322h37v37h-5l-32,1Z"/><path data-name="Kinney" class="geo-271" d="M444,644l4,-1v-7l3,-6v-19h44v46h-42l-1,-3h-2l-1,-1v-1l-2,-1l-1,-1v-4l-1,-2h-1Z"/><path data-name="Fayette" class="geo-149" d="M722,572h3l13,-10l11,1l2,9l4,6l-10,15l-11,14l-20,1v-2l-13,-11l8,-10Z"/><path data-name="Briscoe" class="geo-045" d="M427,175h9v36h-37l1,-15v-22Z"/><path data-name="Harrison" class="geo-203" d="M881,344l-1,-12l14,7l12,-1l7,-4h1v1h1h-1h1v2l3,2l6,-4l4,4v6h1v15l1,2v2l-22,6l-5,-3l-6,-2l-6,1l-7,-2l-2,-1Z"/><path data-name="Reagan" class="geo-383" d="M374,438h38v10l-1,9v30h-38l1,-4Z"/><path data-name="Coleman" class="geo-083" d="M524,402h37v52l-4,-1l-4,5l-10,-2l-2,1l-4,-4l-6,-1l-8,-7v-23Z"/><path data-name="Ochiltree" class="geo-357" d="M428,63v-26l1,-11h36v37Z"/><path data-name="Crane" class="geo-103" d="M303,437h32v48h-7v-1l-1,-2v-5l-1,-3h-1v-1h-1l-1,-1h-1v-1h-1h1h-1v-1l-2,-1h-4l-1,-1l-4,-3l-7,2h-1Z"/><path data-name="Washington" class="geo-477" d="M761,546l7,-1l6,-3h10v4l5,4v5l-5,1l-2,9l4,3l-2,1h-1l-2,-1h-3v-1h-1v-1l-15,3h-9l-2,3l-2,-9l-11,-1l4,-5v-1l4,-2v-1h1v-2l2,-1h1l3,-1l1,-1Z"/><path data-name="Lynn" class="geo-305" d="M393,290v27l-1,10l-10,-1h-27v-36Z"/><path data-name="Mills" class="geo-333" d="M580,456l-2,-1l-2,-3l15,-10l1,-7l7,-1l13,-2l2,3l8,13l6,9l-5,6l-16,11l-4,-4l2,-3l-8,-9Z"/><path data-name="Oldham" class="geo-359" d="M354,99v1l-1,3v32l-1,2l-6,-1h-37l-17,-1v-26l1,-11l21,1Z"/><path data-name="Sabine" class="geo-403" d="M937,434l7,-5h-1h1h-1h1h-1h1v1h1h-1h1v1v-1l3,1l1,1l1,1h-1h1v2h1l1,1h3l2,2h-1l-1,1v2l1,1h2v1h1v1l-1,1v1h1v1h2v2h2v-1v2h-2v3h-1v2h1l1,1v1h3l1,1v3h1v5l-22,2l-9,3l-1,-24l3,-5Z"/><path data-name="Hopkins" class="geo-223" d="M805,292h4l3,-2h1v-1l1,-1l2,-1h3l1,1h1l1,-1h2v-1h3l1,-1h2v1l1,-1l1,1h2l2,-1v-1v1l1,34l-25,1l-1,1v-2h-13l-1,-19l1,-1l1,-1h1v-1l1,-1l1,-1v-1l2,-1l-1,-1Z"/><path data-name="Houston" class="geo-225" d="M812,447l-1,-2l7,-4l26,-5l4,2h2l4,2l3,1v4l1,1h2l2,1l2,2l2,2l2,2l-33,29l-14,12l-4,-6l3,-5l-5,-2l-4,-1l2,-15l5,-6l-4,-4Z"/><path data-name="Bexar" class="geo-029" d="M591,605l2,-2l8,-2l1,-1h6l1,-1l9,3l4,-1l4,11l1,1l3,3l2,1l4,2v1l1,2v-1h1l3,1v3l-8,12l-12,17l-2,-1l-28,-10Z"/><path data-name="Upton" class="geo-461" d="M335,485v-48h2l7,1h30v45l-1,4l-8,-1h-26Z"/><path data-name="Erath" class="geo-143" d="M612,364h29l9,23v1l6,12l-10,6l-14,9l-5,-5l-3,3l-18,-27l6,-3Z"/><path data-name="Randall" class="geo-381" d="M352,137h38v27l-1,10h-26l-11,-1Z"/><path data-name="Rusk" class="geo-401" d="M862,369h28l1,-3l6,-1l-1,11l-4,4l-1,21h6l1,5h1v1v-1v1h1v1h1h-1h1v1l1,1h-1l1,1v1l-34,1l-4,1l-1,-26Z"/><path data-name="Coryell" class="geo-099" d="M664,435l6,-3l6,10l14,23l-28,17l-2,2l-5,3l-20,-34Z"/><path data-name="Comal" class="geo-091" d="M622,601l-4,1l-9,-3l-1,1h-5l17,-16l8,-9l13,10l7,6l1,4l1,4l-6,6l-8,4l-9,4l-1,-1Z"/><path data-name="Aransas" class="geo-007" d="M718,754l-4,-5l5,-8l6,-3l1,5ZM714,749l-6,-9l2,2l7,1ZM726,729h-2l-6,-4l2,-2l23,-4l-1,4v4l-2,3l-7,5l-2,-10l-2,9l-3,-5ZM738,740l1,2l-11,11l2,-8Z"/><path data-name="Jack" class="geo-237" d="M615,290v-7h25l5,-1l5,3v32l1,5h-36Z"/><path data-name="Hemphill" class="geo-211" d="M466,63l9,1h28v37h-37Z"/><path data-name="Shackelford" class="geo-417" d="M567,349v16h-37v-37h11l26,-1Z"/><path data-name="San Jacinto" class="geo-407" d="M843,498l6,-3l4,6l5,4l1,10h8l-1,7l14,2l-1,4l-10,8l-12,6l-4,2v-1l1,-1v-1l-7,-3l-5,-9Z"/><path data-name="Kendall" class="geo-259" d="M582,567l24,-1l14,18l-17,16h-1l-1,1l-8,2l-10,-6v-28Z"/><path data-name="Wharton" class="geo-481" d="M785,605l7,3l2,1l1,4l-1,5l3,3l1,1h2l1,4l2,2l7,8l-1,3l-8,8l-24,16l-25,-24l20,-13l3,-9Z"/><path data-name="Floyd" class="geo-153" d="M393,231v-20h37v41h-37Z"/><path data-name="Karnes" class="geo-255" d="M671,644l9,9l-10,9l14,16l-16,13l-6,-2h-1h1h-1v-1h-1l-9,1l-6,-8l-7,-8l14,-12Z"/><path data-name="Kaufman" class="geo-257" d="M751,337v-1l16,-1v-3h15l1,10v25l1,6l-27,1v-1h1v-2l-7,-12Z"/><path data-name="Duval" class="geo-131" d="M593,743h42l1,5v47l1,16h-22v-7l-21,-1l-1,-13Z"/><path data-name="Johnson" class="geo-251" d="M690,359h21l1,24l-17,5l-11,4l-2,4l-8,-7v-10l-1,-20h5Z"/><path data-name="Franklin" class="geo-159" d="M836,285v-1h1l2,1h2v-1h3l2,-1h2l1,6v23l1,1l-2,2l-1,1v1v-1v2l-1,1h-9Z"/><path data-name="Edwards" class="geo-137" d="M494,555h27v18l-15,-1l-5,21l1,2l-1,7l1,9h-51v-56Z"/><path data-name="Waller" class="geo-473" d="M810,552l1,14l-8,-3l-1,-2l-2,-1l10,31l-14,6l-1,-6l-5,-1l-2,-6l3,-10l-5,-6l-4,-3l2,-9l5,-1Z"/><path data-name="Maverick" class="geo-323" d="M461,679h-1v-1l-1,-3l-1,-1h1h-1v-1h-1l-1,-1v1v-1h-1v-1h1h-1l-1,-2l1,-1v-4l-1,-1v-2l-1,-1l1,-1l-1,-2h42l-1,10v66h-6l-1,-1v-2l-1,-1l-1,1v-1h-1v-1h-1l-2,-2v-2l1,-1l-1,-1l-1,-1v-1h-1v-2h-1v-1l-1,-1v-2l1,-1l-1,-2v-1h-1v-1h-1l1,-1h1l1,-1v-1h-2l-2,-1l-1,-1h-1v-2h1v-3h-2l-1,-1v-4h-4v-2l-1,-1v-3l1,-1l-1,-1v-1l-1,-1v1v-1h-1v-4Z"/><path data-name="Kleberg" class="geo-273" d="M658,779l2,1l4,2v1l1,1l1,1l16,-1h22l-2,14l-4,7l-9,3l5,-9l-6,5l-5,2l-10,-10l7,12l-9,1l-8,3h-2l-3,2h-1h1h-1l-1,1l-1,-4h-5l-1,-9v-23ZM710,782h2l-7,18l-2,8h-1l1,-8Z"/><path data-name="Gaines" class="geo-165" d="M318,325l28,1l-1,37l-13,-1h-38l-11,-1l1,-2v-15l1,-20l5,1Z"/><path data-name="Martin" class="geo-317" d="M381,400h-37v-25l1,-12h37Z"/><path data-name="Bowie" class="geo-037" d="M874,255l1,1h1v-2l1,1v1h1l1,-1l1,1v1h1l1,1v-2h1v1l1,1h1v-2l1,1l-1,1h1v-1l1,1h-1v1h-1v1l1,-1h2v1h-2h4h-1v1h1v-1h1v1l1,-1h1h-1h2l1,-1l1,1h-2h1v1l-1,1l1,1v-1v1h2v1l1,1h1v-1l1,1h-2v1l1,1h3v-2l2,1l1,1v-1l1,-2h1v1h-1l2,1v-2l2,2l2,-1v-2h2v-1h2v2h4v-1h1l1,1h1l-1,1h2l1,15v9l-3,-2h-7l-2,2l-1,1v1v-1v1l-2,1h-1l-17,-2l-10,1l-2,-1l-4,-3Z"/><path data-name="Andrews" class="geo-003" d="M282,398l1,-2v-35l11,1h38l13,1l-1,12v25h-6l-1,-1h-35Z"/><path data-name="Potter" class="geo-375" d="M352,137l1,-2v-32l1,-3h37l-1,37Z"/><path data-name="Garza" class="geo-169" d="M430,290l-1,5v31l-10,1h-27l1,-10v-27Z"/><path data-name="Caldwell" class="geo-055" d="M671,576l5,-4l25,23l-20,13l-2,-1l-1,1v-2h-2v-1h-4l-4,-4l-1,-1v-1h-1v-1l-2,-2v-1v1h-1v-1l-1,-1l-2,-4l-2,-3Z"/><path data-name="Parmer" class="geo-369" d="M290,172l36,1v38l-7,-1h-30l1,-8v-9Z"/><path data-name="Titus" class="geo-449" d="M861,310h-1l-1,-1l-1,1h-3v1l-3,1v1h-2l-1,-1v-23l-1,-6l1,-1h1l4,1l13,-1h1l3,2v25l1,8l-1,-1l-2,-1l-1,-1h1h-1l-1,-1l-1,-1h-1v-1h-1v-1h-1l-1,-1Z"/><path data-name="Terry" class="geo-445" d="M319,289l36,1v36h-9l-28,-1v-32Z"/><path data-name="Foard" class="geo-155" d="M529,256l-5,-3l-4,2l-6,-3h-15v-33l4,1l15,11h11l3,2l8,-2v30l-5,-5Z"/><path data-name="Real" class="geo-385" d="M501,602l1,-7l-1,-2l5,-21l15,1h5v14h6v24h-30Z"/><path data-name="Carson" class="geo-065" d="M390,137l1,-37h37v35l-1,3h-29Z"/><path data-name="Knox" class="geo-275" d="M503,252h11l6,3l4,-2l5,3h6l5,5v29h-36l-1,-14Z"/><path data-name="Hays" class="geo-209" d="M628,575l9,-28l22,19h2l3,3l1,2l6,5l-13,11l2,3l-10,9l-1,-4l-1,-4l-7,-6Z"/><path data-name="Medina" class="geo-325" d="M547,656v-45h31v5h5l8,-11v51Z"/><path data-name="Motley" class="geo-345" d="M430,227v-16h37v39l-1,2h-36Z"/><path data-name="Wichita" class="geo-485" d="M614,251l-8,1h-29l-1,-10v-21h2v1h1v1h2v1h1v1h3v-1h1v1h1v1h2v1h1v1h1v-1h4v-1h1v-1h1v-1h3v1h1v-1h1v1h1l1,1v1h1h-1v1h1l1,1v2h2l1,1h1v-1h4Z"/><path data-name="Midland" class="geo-329" d="M338,400h37l-1,38h-30l-7,-1l1,-5Z"/><path data-name="Victoria" class="geo-469" d="M727,652l3,3l9,4l2,7l6,8l5,10v1l-5,4l-10,3l-3,6l1,5h-1v1h-6l-3,-3l-2,-1h-7l-1,-1v-1l-2,-3l1,-14l-5,-8l-6,1Z"/><path data-name="Tyler" class="geo-457" d="M897,479h3l2,1l4,1l2,1l13,-1v3l6,16l4,2l1,7l4,3v11l-35,2l-9,-41Z"/><path data-name="Falls" class="geo-145" d="M734,446l16,25l-17,11l-17,10l-15,-25l15,-9Z"/><path data-name="Presidio" class="geo-377" d="M168,596v-1h-1h1h-1v-1h-1v-1h1h-1v-3h-1v-2v1l-1,-1h-1v-3h-1h1h-1v-2h-1v-1h-1v-2v1v-2h-1v-2h1l-1,-1h1h-1v-1h1h-1v-5h-1v-4h1l1,-1h-1h1v-1h-1v-1h1l-1,-1v-2h1h-1v-1h1v-3h-1v-1l-1,-1v-1l1,-1h-1l-1,-1v-1h-2v-2v1h-1v-1h1v-1l-1,-1h-1v-1h-1v-1h-1l-1,-1v-1l1,-2v1l-1,-1h-1v-1h-1v-3h-1l1,-1l-1,-1v-5l-1,-1v-3h-1v-2l-1,-1l-1,-1v-1h-2v-1h-1v-2l20,7l39,10l18,5h8l-1,15v29l-1,1v36l-1,17h-1v-1h-2l-1,-1h-7v-1h-4v-1h-2v-1h-1l-1,-1v-1h-1l-1,-1v1v-1h-1v-1l-1,-1v-1h-2v-1h-2v-1h-1v-2h-1v-1h-1v-4h-1v1v-1h-1v-1l-1,-1h-3v-1h-2v-1v1h-3v-1h-1v-1l-1,-1v-1l-1,-1l-1,-1l-1,-1h-1v-1h-1v-1h-2v-1h-2l1,-1h-1v-1l-1,-1l-1,-1v-1h1l-1,-1v-1Z"/><path data-name="Willacy" class="geo-489" d="M659,866h39l2,7l-4,6l4,1l-2,2l5,-1l-4,8l-7,2l-26,-3v-7l-11,-1Z"/><path data-name="Lubbock" class="geo-303" d="M355,252h38v38h-38Z"/><path data-name="Henderson" class="geo-213" d="M829,372v5l-1,3l-2,2l2,3v3l1,2v2l1,1l1,2l-44,8h-1v-1l-3,-5l-1,-7l-3,-2v-1l-3,-1h-1l-2,-3l-11,-6l-5,-3l27,-1l20,-1Z"/><path data-name="Walker" class="geo-471" d="M821,494l14,-12v10l3,7l5,-1l-1,31v-1l-18,1l-17,-10l-3,-19v-1h2l1,1v-1v1v-1h1v-1v1v-1h2l1,-1h3v-1h2Z"/><path data-name="Galveston" class="geo-167" d="M858,622l-2,-4v-9h2v3l1,1h5v-1l2,-1l4,-2h1v1h1v1h1v1h2v1h3l-2,7l4,-2l2,6l-2,6l-2,-1l-9,10ZM911,606l4,-2l1,-1h2v3l-21,11l-8,8l8,-11h4l2,-5l6,2ZM893,626l-16,14l6,-10Z"/><path data-name="Harris" class="geo-201" d="M802,561l1,2l8,3h2l6,-2h2v-1v1v-1v1l1,-1v-1v1v-1h1l2,-1h1l1,-1v-1h1l1,-1h1l1,1h1l1,1v1l1,2h1v1h1v-1l3,1h1l11,5l11,-13l6,15l4,2v7l1,2l5,3v5l-1,7l-10,-4l-2,-8l-1,8h-6l15,5h-1v1h-1v3l1,2h1v1h-1v1l-1,1v2h-1l-4,2l-2,1v1h-5l-1,-1v-3h-2h1h-3l-2,-3l-1,-1h-1l-5,2h-6l-9,-4l-5,-3l-5,-3l-4,-2l-6,-4l-10,-31Z"/><path data-name="Dawson" class="geo-115" d="M382,326v37h-37l1,-37h9Z"/><path data-name="Pecos" class="geo-371" d="M285,459l1,1v1h1h-1h3l3,2l3,2l1,2l2,1l4,-1h1l7,-2l4,3l1,1h4l2,1v1h1h-1h1v1h1l1,1h1v1h1l1,3v5l1,2v1h3l2,2h2v2h6l2,2l2,1h1l1,1h2l3,1l3,-1v1h1l3,1l5,4l4,6l2,4v1l-1,1v1l1,2l3,7v2l-26,-1v4h-15v28l-17,-1v20l-27,-24l-8,-5l-11,-11l-17,-15l-11,-8l18,-20l6,-8Z"/><path data-name="Nacogdoches" class="geo-347" d="M869,435v-2l-1,-2l-1,-1v-2l-1,-7h2l-1,-2h-2v-1h2v-3l1,-1v-1l34,-1h1v1h1h-1h1v2l1,1l-1,1v1h1v1h1h-1h1h-1v1v-1v1h1h-1h1v5h1v2v-1v2h1h-1h1h-1l1,1h2v1v-1v1l1,1v1h1v-1v1h1v1h1v1l1,1v6l-1,1v1l1,1v1h-1v1h1v3v-1v1v-1l-1,1v4l1,1v3l-1,2v4l1,1l-2,-2h-1l-1,-1l-2,-4h-3l-1,-1l-2,-5l-2,-2h-2l-1,1l-3,-3h-2h1h-3l-3,-1h-4v-1h-1h1h-3v-1h-3l-1,-1v-1h-2v-1l-1,-1h-1v-1l-1,-1Z"/><path data-name="Guadalupe" class="geo-187" d="M660,590l2,4l1,1v1h1v-1v1l2,2v1h1v1l1,1l4,4h4v1h2v1l-3,4l-12,20h-21v-2l-1,-4v-3l-3,-1h-1v1l-1,-2v-1l-4,-2l-2,-1l-3,-3l9,-4l8,-4l6,-6Z"/><path data-name="Tarrant" class="geo-439" d="M703,322h4l7,-1v20l1,4v14h-37v-37h13Z"/><path data-name="Jackson" class="geo-239" d="M750,638l2,1l25,24v24h-5l-3,-3l-10,1h-1v1v-2h-6l-5,-10l-6,-8l-2,-7l-9,-4Z"/><path data-name="Swisher" class="geo-437" d="M363,174h37v22l-1,15h-37h1Z"/><path data-name="Sterling" class="geo-431" d="M412,438v-37h32v29l-1,5l-2,-1l-1,12h-24l-4,1Z"/><path data-name="Winkler" class="geo-495" d="M262,435l1,-3v-26h18l1,-8l20,1l-1,2v35h-33Z"/><path data-name="Frio" class="geo-163" d="M591,656l1,2v36h-44l-1,-5v-33Z"/><path data-name="Lipscomb" class="geo-295" d="M502,26h1v38h-28l-9,-1h-1v-37h25Z"/><path data-name="Collingsworth" class="geo-087" d="M465,138h38v37h-38Z"/><path data-name="Colorado" class="geo-089" d="M734,607l11,-14l10,-15l8,9h1l4,2v1h5l4,7l4,6l4,2l-10,12l-3,9l-20,13l-2,-1l8,-6l-17,-20Z"/><path data-name="Wise" class="geo-497" d="M681,285h7v37h-37l-1,-5v-32Z"/><path data-name="Glasscock" class="geo-173" d="M375,400h6l31,1v37h-38Z"/><path data-name="Shelby" class="geo-419" d="M934,398v1l1,1v1l1,1v2h4v1l-1,1h2l1,1v1h1v2h1v1l1,1v1h2v1l1,1v3h-1h1l1,1v2h2l-1,2l-1,1v5v-1l-1,1v2l-3,-1v1v-1h-1h1h-1v-1h-1h1h-1h1h-1h1l-7,5l-7,-5l-23,-1v-2v1v-2h-1v-5h-1h1h-1v-1v1v-1h1h-1h1h-1v-1h-1v-1l1,-1l-1,-1v-2h-1h1h-1v-1h-1v-1l-1,-1h1l-1,-1v-1h-1h1h-1v-1h-1v-1v1v-1h-1l-1,-5Z"/><path data-name="Comanche" class="geo-093" d="M606,386l18,27l3,-3l5,5l4,6l-12,7l-10,7l-2,-3l-13,2l-6,-11l-13,-21l16,-9Z"/><path data-name="Burnet" class="geo-053" d="M616,500v-9l1,-1h31l7,-1l6,11l-10,10l-6,15l-3,11l-2,6l-16,-6v-6h-5v-19Z"/><path data-name="Gray" class="geo-179" d="M465,138h-38l1,-3v-34h38v35Z"/><path data-name="Hudspeth" class="geo-229" d="M72,398h11l36,2l30,1l-1,21v22l-1,2v27h-1v24l-2,7v11l-4,2v-1l-1,-1v-1l-1,-1h-2v-1l-1,1h-1v-1l-1,-1h-1l-1,-2v-1h-1v-1h-3v-2h-1v1h-1v-2h-3v-2h-1v1h-1v-1l-1,-1v1v-1l-1,-1v1v-1h-1v1h-1v-1l-1,-1h-1v-1l-1,1v-2h-3v-1h1h-1v-1l-1,-1l-1,-1h-1v-1h-1v-1h-1v-1h-1v-1h-1v-1l-1,-1l-1,-1h-1v-1h-1l-1,-1v-1h1l-1,-1l-1,-3v-2h-1l-2,-1h-1v-2l-2,-1h-1l-1,-1h-1l-4,-3v-1l-1,-1l-3,-5v-1h-1v-2h-1v-1h-2v-1h-3v-1l-1,-2v-2l-1,-1h-1l-1,-2l3,-2l-2,-7v-15Z"/><path data-name="Cass" class="geo-067" d="M882,291l10,-1l17,2h1l2,-1v-1v1v-1l1,-1l2,-2h7l3,2l1,14v5l1,2v12l-25,1l-19,2Z"/><path data-name="Ellis" class="geo-139" d="M751,359l7,12v2h-1v1l5,3l-15,10l-9,4l-12,8l-4,2l-10,-18l-1,-24h13Z"/><path data-name="Cooke" class="geo-097" d="M692,248v-2l1,1h1v1h3v-3l1,-1v-1h2l1,1l1,1v2h1v2l-1,1h-1l-1,1l1,3v1h1v1h-1v1h1l1,1v2h4v-1h1v-7l1,-1h2v-1h-1l-2,-1v-1h2l1,1v1h1v-1h1l1,-1v-1l1,-1v-6h1v1h1l1,-1l1,9v30l1,6h-39v-35l-1,-6h1l1,1h1v4h-1v1l2,1h4l1,-1h1v-3l1,-1v3l1,-1Z"/><path data-name="Williamson" class="geo-491" d="M661,500l7,1l17,6l14,6l4,2l8,22l-13,6l-2,-2h-2l-9,-5h-2l-4,-1l-6,1l-8,5l-1,-2l-4,-4l-5,-9l-10,-1l6,-15Z"/><path data-name="Cochran" class="geo-079" d="M286,288l1,-15v-5l1,-18l8,1h22v32l1,6Z"/><path data-name="Van Zandt" class="geo-467" d="M782,332h11l3,3l1,1l2,1l2,1h1v-1h1v1l2,1h4l2,1l3,1h1l2,2h1v17l1,3h1v1v-1l1,1l2,2v1h2l2,2v1h1l1,1v1h-25l-20,1l-1,-6v-25Z"/><path data-name="Donley" class="geo-129" d="M436,175h-9v-37h38v37Z"/><path data-name="Jones" class="geo-253" d="M530,328v37h-28l-10,-1v-37h12Z"/><path data-name="Grimes" class="geo-185" d="M787,536h-1l-1,-2v-1v1v-1l-2,-7l-1,-1l-1,-3l1,-1v-5l-1,-2l1,-1v-4v1v-2l-1,-1v-1l1,-2l22,-4l3,19l3,20v13l-21,3v-5l-5,-4Z"/><path data-name="Irion" class="geo-235" d="M412,448l40,1v36l1,2h-42v-30Z"/><path data-name="Navarro" class="geo-349" d="M762,377l11,6l2,3h1l3,1v1l3,2l1,7l3,5v1l-30,19l-16,-1l-14,-22l12,-8l9,-4Z"/><path data-name="Brooks" class="geo-047" d="M615,811h40l1,4v36h-33v-22h-4l-2,-16Z"/><path data-name="Dallam" class="geo-111" d="M294,35v-1l1,-9v-1h54l5,1v38h-29v-1h-31v-16Z"/><path data-name="Hunt" class="geo-231" d="M765,290l31,-7l1,17l1,19h-6l-3,10l3,2l1,1h-26l-1,-12v-21Z"/><path data-name="Mitchell" class="geo-335" d="M455,364v37h-37v-30l1,-7Z"/><path data-name="Wood" class="geo-499" d="M837,319h9l1,-1v-2v1v-1l1,-1v9l1,21v7l-6,1l-1,-1l-3,-1l-2,-1h-8l-1,-1v1h-2h1h-1l-3,-1l-1,-1l-3,-2v-1l-1,-1v-1h-1l-2,-2l-4,-20l1,-1Z"/><path data-name="Childress" class="geo-075" d="M473,175h30v37h-30Z"/><path data-name="Jeff Davis" class="geo-243" d="M140,517l4,-2l55,-32l6,-3l20,16l16,14l11,8l-27,21h-8l-18,-5l-39,-10Z"/><path data-name="Montague" class="geo-337" d="M645,247l1,1h3l1,1h1v1h4l1,-1l1,-1v-1v1l1,-1v-1h1v-2h2v-2h2l1,-1v-2h1v-1h3l1,1h1v1h2v4l1,1h3l1,-1h1l1,-1h1v1l1,6v35h-31l-5,-3Z"/><path data-name="Brown" class="geo-049" d="M561,402h19l13,21l6,11l-7,1l-1,7l-15,10l-8,3l-7,-1Z"/><path data-name="Haskell" class="geo-207" d="M504,290h36v26l1,12h-11l-26,-1Z"/><path data-name="Fisher" class="geo-151" d="M492,327v37h-37l1,-13v-24h10Z"/><path data-name="Concho" class="geo-095" d="M495,445h28l8,7v35h-37v-27Z"/><path data-name="Coke" class="geo-081" d="M443,435l1,-5v-29h11l31,1v33Z"/><path data-name="Polk" class="geo-373" d="M878,473l2,1l4,2h4v1h7h-1h1l2,1v1l-5,5l9,41l1,2l-14,1h-9l1,-4l-14,-2l1,-7h-8l-1,-10l-5,-4l13,-15l6,-5Z"/><path data-name="Cottle" class="geo-101" d="M467,211l6,1h30v8l-4,-1v33h-33l1,-2Z"/><path data-name="Young" class="geo-503" d="M577,290h38v37h-37l-1,-4Z"/><path data-name="Lee" class="geo-287" d="M711,550l-7,-4l-6,-3l13,-6l13,-9l4,3l1,1v4h2v1l1,1v1h2v1h1l1,1h1v1v-1v1h1v1l1,1l1,2h1v1l1,1h2l2,1l2,1h1l-2,1v2h-1v1l-4,2v1l-4,5l-13,10h-3l-6,-19Z"/><path data-name="Cherokee" class="geo-073" d="M831,395l-1,-2l-1,-1v-2l30,-1l4,-1l1,26l4,-1v1l-1,1v3h-2v1h2l1,2h-2l1,7v2l1,1l1,2v2l3,3l1,1v1h1l-10,9l-2,-2l-2,-1h-2l-1,-1v-4l-3,-1l-4,-2h-2l-4,-2l1,-1l-1,-2l-1,-2v-3l-3,-1v-1h-1v-2h-2h1v-1l-2,-1h-1v-3l-1,-3h-2l-1,-1l1,-2v-1v1v-4l-1,-4l-1,-1l1,-2h-1h1h-1l2,-1Z"/><path data-name="Hall" class="geo-191" d="M436,175h37v37l-6,-1h-31Z"/><path data-name="Hood" class="geo-221" d="M673,359l1,20l-12,1l-12,8v-1l-9,-23v-4Z"/><path data-name="Archer" class="geo-009" d="M577,290v-38h29l8,-1v31l1,1v7Z"/><path data-name="Baylor" class="geo-023" d="M540,252h37v38h-37v-29Z"/><path data-name="San Augustine" class="geo-405" d="M914,450v-1l1,-1v1v-1v1v-3h-1v-1h1v-1l-1,-1v-1l1,-1v-6l-1,-1v-1h-1v-1h-1v-1v1h-1v-1l-1,-1v-1v1v-1h-2l-1,-1h1h-1h1h-1l23,1l7,5l1,8l-3,5l1,24l-1,1v1h-1l-5,1l-11,-8h-2v-1l-1,-1l-1,-1v-4l1,-2v-3l-1,-1v-2Z"/><path data-name="Madison" class="geo-313" d="M811,480l4,1l5,2l-3,5l4,6l-5,2h-2v1h-3l-1,1h-2v1v-1v1h-1v1v-1v1l-1,-1h-2v1l-22,4h-1v-4l-1,-2v-3l-1,-1l-2,-3l8,-4l11,-7Z"/><path data-name="Milam" class="geo-331" d="M716,492l17,-10l4,3l2,12l9,9l1,7l-25,15l-13,9l-8,-22l-4,-2l4,-13Z"/><path data-name="Reeves" class="geo-389" d="M205,480l2,-23l7,-53h3l6,12l4,-2l1,8l3,2v1l7,2l4,8h1l1,1h4l1,1h1l-1,1l1,2h-1h1h-1v2l1,1l1,7l1,3l1,1h1l5,1h6l1,1v-1l10,5h4l1,-1v-1h1l1,1h2l-20,23l-6,8l-18,20l-16,-14Z"/><path data-name="Nueces" class="geo-355" d="M668,748l-1,5h1l9,1l1,4l14,3h8l-1,4l4,6l6,2l-5,11h-22l-16,1l-1,-1l-1,-1v-1l-4,-2l-2,-1l1,-23ZM716,770l6,-10l3,1l-5,6l-6,11Z"/><path data-name="Camp" class="geo-063" d="M855,311v-1h3l1,-1l1,1h1l1,-1l1,1h1v1h1v1h1l1,1l1,1h1h-1l1,1l2,1l1,1l1,1h1v1h1v1l2,1l1,1l-30,2v-9l2,-2h2v-1Z"/><path data-name="Freestone" class="geo-161" d="M756,422l30,-19v-1v1h1l3,5l3,13l7,3v5h7v7l-31,18l-6,-7Z"/><path data-name="Runnels" class="geo-399" d="M495,445h-9v-43h38l-1,20v23Z"/><path data-name="Terrell" class="geo-443" d="M342,591h-3l-2,-1h1h-2v-1h-1v-1h-1l-1,-1v1l-18,-15v-20l17,1v-28h15v-4l26,1l9,2l1,7l-4,4l-2,3l-2,3l7,7l-7,1l-1,4l-1,11v31h-1v1h-2v-2h-1v1l-1,-1h-6l-1,1h-1l1,-1h-3v-1h-1v1h-4l-1,1h-1l-4,-1h-2l-1,-1v-1h-2v-1h1l-1,-1Z"/><path data-name="Deaf Smith" class="geo-117" d="M326,173l-36,-1l1,-1v-33l1,-3l17,1h37l6,1v36Z"/><path data-name="Marion" class="geo-315" d="M906,338l-12,1l-14,-7l2,-3l-2,-3v-1h3l19,-2l25,-1l1,6v11l-4,-4l-6,4l-3,-2v-2h-1h1h-1v-1h-1Z"/><path data-name="Liberty" class="geo-291" d="M862,556l-5,-14l12,-6l10,-8h9l11,32l12,-1l1,19l-40,2v-7l-4,-2Z"/><path data-name="Jasper" class="geo-241" d="M921,484v-3l-13,1l-2,-1l23,-7l5,-1h1v-1l1,-1l9,-3l4,15l1,14v49h-16l1,-1v-4l1,-4v-1h-1v-1h-1l2,-12v-11l-4,-3l-1,-7l-4,-2Z"/><path data-name="Hansford" class="geo-195" d="M392,25h9l5,1h23l-1,11v26h-37l1,-15Z"/><path data-name="Chambers" class="geo-071" d="M877,597l1,-7v-5l-5,-3l-1,-2l40,-2h6l1,23v4l-1,1v-3h-2l-1,1l-4,2h-1v1h-1l-1,1h-1v-2h-1v-1h-3l-1,1h-1l-1,1h-2l-1,1h-1v1h-3l-1,1h-4v-2l6,-6v-12l-10,-3l-4,12Z"/><path data-name="Hardin" class="geo-199" d="M936,523l-2,12h1v1h1v1l-1,4v4l-1,1l2,3l-1,5h-2l-1,-1l-4,-1h-1v1v-1v1h-1v1h-4v3l-1,1l-4,1h-1l-3,1l-1,-1h-1l-12,1l-11,-32l14,-1l-1,-2Z"/><path data-name="Collin" class="geo-085" d="M727,313v-27h32l1,4h5l1,9v21h-2l-10,1h-27Z"/><path data-name="Brazoria" class="geo-039" d="M839,614l1,-7h5l5,-2h1l1,1l2,3h3h-1v9l2,4l11,17l-7,1l-1,7l-5,12l-8,7l-10,6l-6,-1l-9,-10h-6v-4h-1v-3h1l1,-1l-7,-5v-2l-2,-7l1,-3l8,-5l8,2l1,-1l5,-7v-5h7Z"/><path data-name="Throckmorton" class="geo-447" d="M541,328l-1,-12v-26h37v33l1,4h-11Z"/><path data-name="Bastrop" class="geo-021" d="M687,559l6,-13l2,-5h1l2,2l6,3l7,4l5,3l6,19l-13,13l-8,10l-25,-23Z"/><path data-name="Scurry" class="geo-415" d="M429,326l3,1h24v24l-1,13h-36v-37Z"/><path data-name="Ector" class="geo-135" d="M338,400v32l-1,5h-34l-2,-1v-35l1,-2h35Z"/><path data-name="Limestone" class="geo-293" d="M724,430l16,-9l16,1l14,25l6,7l-7,5l-19,12l-16,-25Z"/><path data-name="Denton" class="geo-121" d="M688,285h32l7,1v35h-13l-7,1h-19v-16Z"/><path data-name="Red River" class="geo-387" d="M834,242l1,-2l1,-1l1,2h1v-5h1v-2l1,1h2l1,1h3v3l3,-1h1v1h-1v1h-1v1h2v-3v2v-1l1,1v1h1v1h4v1h1v-1h1v2h1v1h-1v1l1,1h1v-2h1v4h1v1h2l4,2v-2h1v2h2v-1l1,-1h1v1h-2l1,2h1v-1h1v1h-1v1h1v-1h1l-1,1h-1l1,1l2,32l-5,-3l-3,-2h-1l-13,1l-4,-1h-1l-1,1h-2l-2,1h-3v1h-2l-2,-1h-1l-2,-21Z"/><path data-name="Matagorda" class="geo-321" d="M777,663l24,-16l8,-8l2,7v2l7,5l-1,1h-1v3h1v4h6l9,10l6,1l-16,8h-7l-10,4l-1,6l6,-1l-23,12l-9,8l6,-8l14,-7l4,-1l-3,-5l-10,5l-5,-4l3,-4l-7,1l-3,4v-3Z"/><path data-name="Hardeman" class="geo-197" d="M503,220v-29h3v-1h3v1h1v1h1v1h1v2h1l1,1l1,1v1h1v1l1,1l1,1h1l1,2h1l1,1h1v2h6v1h2l1,-2h-1l1,-1l1,-1h2l3,1l1,1h1v26l-8,2l-3,-2h-11Z"/><path data-name="Palo Pinto" class="geo-363" d="M605,327h10v-5h26v42h-36v-18Z"/><path data-name="Live Oak" class="geo-297" d="M627,696l18,-15l6,8l-5,2l20,42l-5,6l1,4h-34l-1,-7Z"/><path data-name="Sherman" class="geo-421" d="M376,25h16v23l-1,15h-37v-38h17Z"/><path data-name="Uvalde" class="geo-463" d="M532,611h15v45h-37l-15,1v-46h7Z"/><path data-name="Bailey" class="geo-017" d="M289,215v-5h30l-1,19v22h-22l-8,-1v-11l1,-17Z"/><path data-name="Culberson" class="geo-109" d="M148,422l1,-21h7l21,1l3,1h23l5,1h6l-7,53l-2,23l-6,3l-55,32v-11l2,-7v-24h1v-27l1,-2Z"/><path data-name="Atascosa" class="geo-013" d="M591,656v-13l28,10l2,1l17,19l7,8l-18,15v-2h-35v-36Z"/><path data-name="Wilson" class="geo-493" d="M641,625l1,4v2h21l8,13l-19,17l-14,12l-17,-19l12,-17Z"/><path data-name="Starr" class="geo-427" d="M585,886v1l-1,1v-1h-1v-2h-2l-1,1v-1h-2v-1h-2l-1,1h-2l-1,-1v-1l-1,-1h-1l1,-1h1h-1v-1h1v-2l-1,-1v-1h-1v-1l-1,-1h-1l-1,-1v-2l13,-11l3,-8l40,-1h7l-4,12l-8,18l-7,16h-2v1h-1v-1l-1,1l-1,1h-1v-1h-1v-2h-3v-1h2l-1,-1h-1l-1,-1h-1l-1,-1h1v1h1v-1l-1,-1h-3v-1h-1v-2h-1l-2,-1v1h-4v1h-1v-2h-1v-1Z"/><path data-name="Dallas" class="geo-113" d="M751,359h-36v-14l-1,-4v-20h37v16Z"/><path data-name="Kimble" class="geo-267" d="M494,555v-37h47v18h13v19h-33Z"/><path data-name="McCulloch" class="geo-307" d="M561,454l7,1v33l1,10l-28,1h-10v-47l6,1l4,4l2,-1l10,2l4,-5Z"/><path data-name="Crockett" class="geo-105" d="M374,554l1,-4l7,-1l-7,-7l2,-3l2,-3l4,-4l-1,-7l-9,-2v-2l-3,-7l-1,-2v-1l1,-1v-1l-2,-4l-4,-6l-5,-4l-3,-1h-1v-1l-3,1l-3,-1h-2l-1,-1h-1l-2,-1l-2,-2h-6v-2h-2l-2,-2h-1h5l4,1h26l8,1h60v28l-1,4v36l-20,-1Z"/><path data-name="Hill" class="geo-217" d="M684,392l11,-4l17,-5l10,18l4,-2l14,22l-16,9l-7,-12l-17,10l-4,-2v-6l-9,-8l4,-4l-7,-2l-1,-11Z"/><path data-name="Kent" class="geo-263" d="M430,290h36v37h-34l-3,-1v-31Z"/><path data-name="El Paso" class="geo-141" d="M27,408h-2v-5l1,-1h1l-1,-1v-1l1,-2h-1v1v-1l-1,-1l4,-2l11,1h4l28,2l-2,27v15l2,7l-3,2h-2l-4,-1l-1,-1l-2,-1h-1l-4,-3v-1h-1l-1,-1v-2l-1,-1v-2l-1,-1l-1,-1h-1v-2l-1,-1v-3h-1l-1,-1v-2h-1v-3l-1,-1v-1l-1,-2h-2l-1,-1h-1v-1h-2v1h-3v-1l-1,-1l-1,-1v-1l-5,-3v-1Z"/><path data-name="Loving" class="geo-301" d="M217,404l18,1h23l5,1v26l-1,3h-20l-4,-8l-7,-2v-1l-3,-2l-1,-8l-4,2Z"/><path data-name="Dickens" class="geo-125" d="M430,252h36v38h-36Z"/><path data-name="La Salle" class="geo-283" d="M548,733v-39h44v24l1,14v11l-30,3h-15Z"/><path data-name="Lamb" class="geo-279" d="M319,210l7,1h30l-1,16v25l-37,-1v-22Z"/><path data-name="Austin" class="geo-015" d="M764,587h-1l-8,-9l-4,-6l2,-3h9l15,-3v1h1v1h3l2,1h1l2,-1l5,6l-3,10l2,6l5,1l1,6l1,8l-5,3l-7,-3l-4,-2l-4,-6l-4,-7h-5v-1Z"/><path data-name="Hutchinson" class="geo-233" d="M391,63h37v37h-37Z"/><path data-name="Val Verde" class="geo-465" d="M423,624h-2l-2,-1l-2,-1l-1,-1v-1h-1l-2,-1h-2l-1,-1l1,-1v-1l1,-1h-1v-5h-1l-1,1v3l-1,1h-1l-1,-2v-1l1,-1v-3l-1,-1h-2l-1,1h-1v-3l-1,-1l-1,-1v-2h-1v-3l-1,1h-1v1h-1v-2h-1l1,-1l-1,-1h-1l-1,1v1h-1l-1,1h-1v-4h-2l-1,1v2h-1l-1,-1l-1,1l-2,1h-1v-1h-5v-1h-3v-32l1,-11h38l20,1h19v75l-3,6v7l-4,1v-1h-1l-1,-1h-1l-2,-1h-1v-1l-1,-2h-1v-1h-1v-1h-1l-1,-1h-1v-1h-1l-1,-1h-2v-3h-1v-1h-1v-2l-1,-1v-1Z"/><path data-name="Smith" class="geo-423" d="M829,377v-6l-1,-1h-1v-1l-2,-2h-2v-1l-2,-2l-1,-1v1v-1h-1l-1,-3v-16l1,1v1l3,2l1,1l3,1h1h-1h2v-1l1,1h8l2,1l3,1l1,1l6,-1l5,1l7,2l1,14l1,19l-4,1l-30,1l-1,-2v-3l-2,-3l2,-2Z"/><path data-name="Robertson" class="geo-395" d="M733,482l17,-11l19,-12l1,1l-1,3v3l1,1h-1l1,1v2l1,2v1l1,2v1h-1l1,1l2,6h1l1,1v2l-1,1l1,1l1,1v2l-9,6l-7,15l-8,4l-4,-3l-1,-7l-9,-9l-2,-12Z"/><path data-name="Gillespie" class="geo-171" d="M606,536v30l-24,1h-28v-31h25Z"/><path data-name="King" class="geo-269" d="M466,252h37v24l1,14h-38Z"/><path data-name="Tom Green" class="geo-451" d="M486,435v10h9l-1,15v27h-41l-1,-2v-36l-40,-1v-1l4,-1h24l1,-12l2,1Z"/><path data-name="Yoakum" class="geo-501" d="M286,290v-2l33,1l-1,4v32h-28l-5,-1l1,-25Z"/><path data-name="Somervell" class="geo-425" d="M650,388l12,-8l12,-1v10l-4,1l-14,10Z"/><path data-name="Kenedy" class="geo-261" d="M656,815l1,-1h1h-1h1l3,-2h2l8,-3h11v3h9l7,-2l-2,12l-3,1l2,8l-7,3v12l8,7l2,13h-39l-3,-3v-12ZM703,808l-1,10l1,23l-2,-3l1,-26l1,-4ZM702,842l1,-1l5,20l-4,-6Z"/><path data-name="Borden" class="geo-033" d="M382,326l10,1h27v37h-23l-14,-1Z"/><path data-name="San Saba" class="geo-411" d="M568,455l8,-3l2,3l2,1l17,2l8,9l-2,3l4,4l2,12l6,-2l1,7v9h-38l-9,-2l-1,-10Z"/><path data-name="Burleson" class="geo-051" d="M742,548l-1,-1v-1h-1l-1,-2l-1,-1v-1h-1v-1v1v-1h-1l-1,-1h-1v-1h-2v-1l-1,-1v-1h-2v-4l-1,-1l-4,-3l25,-15l4,3l-2,5l10,3l7,5l6,13l-6,3l-7,1l-7,2l-1,1l-3,1h-2l-2,-1l-2,-1h-2Z"/><path data-name="Bee" class="geo-025" d="M651,689l9,-1h1v1h1h-1h1l6,2h1l1,1l2,2l3,7l9,2l1,6l5,1l4,3h5l-12,20l-2,3l-19,-3l-20,-42Z"/><path data-name="Trinity" class="geo-455" d="M843,498l-5,1l-3,-7v-10l33,-29v3l4,1l1,1l1,2l-1,3l3,4l1,3v2l1,1l-6,8l-6,5l-13,15l-4,-6Z"/><path data-name="Castro" class="geo-069" d="M326,173h26l11,1v37h-37Z"/><path data-name="Brewster" class="geo-043" d="M315,573l18,15h-1v1h-2v1h-1v3l-1,2h-1v2h-2l-2,-1h-1l-1,-1v1h-1v-1h-2v2h-2v1l-1,1v-2l-1,-1v2h-3l-1,1l-1,1h-1l-1,-1h-1v1h-1v2l-1,1v2h-1v1h-1v1h-1v4h-1v1l-1,-1l-1,1h1v1l-1,1v1h-1l-1,1v6h-1v2h-1v3h1l1,1h-2v2h-1v1l-1,1h-2v3h-1v2l-1,1l1,1h-1l1,1v1h2v2h-1v1h-2v-1l-1,1v1h-2v1h-2v-1l-2,2v1h-1v1l-1,1v1h-1v2l-1,1v-1l-1,1h-1v1h-1l1,1h-1v-1l-1,1v4l-1,1v2h-2l-1,1h-1v-1h-2l-1,-1h-2l-1,1h-1v-1l-1,-1v2h-1v-2l-1,-1h-1v1v-2h-1l-1,-1h1l1,-1h-2v1l-1,1h-1l-1,-1v-1l-1,1v-1h-3l1,-1h-1v-1h-1v-1h-2h1l-1,-1h-1v-1l-1,-1v-1h-2h1v-1h-1v-1h-1l-1,-1h1h-3v-1h-5v-1h-1l-1,-1h-3l-1,-1v-2h-1l-1,-1v1h-1v-4h-1l1,-17v-36l1,-1v-29l1,-15l27,-21l17,15l11,11l8,5Z"/><path data-name="Gregg" class="geo-183" d="M861,355l12,-5l5,-7l1,1h2l1,19l2,1l7,2l-1,3h-28Z"/><path data-name="Ward" class="geo-475" d="M276,460l-10,-5v1l-1,-1h-6l-5,-1h-1l-1,-1l-1,-3l-1,-7l-1,-1v-2h1h-1h1l-1,-2l1,-1h-1l-1,-1h-4l-1,-1h-1h20l6,1h33l2,1l-1,30l-4,1l-2,-1l-1,-2l-3,-2l-3,-2h-3h1h-1v-1l-1,-1h-2l-1,-1h-1v1l-1,1h-3Z"/><path data-name="Wilbarger" class="geo-487" d="M540,231v-26h1v1v-1l1,1v1h1l1,-1l1,1v-2l1,-1v-3h-1h1v-1h2v1l1,1l1,1h3v1h1v1h-1v1h1l1,1h1h-1v1h1v-1v2h1l-1,1h2v1h1h-1v3h1v4l1,1v2h3v-1h1v1h9v-1h1l1,1h1v21l1,10h-37Z"/><path data-name="Hamilton" class="geo-193" d="M632,415l14,-9l18,29l-29,18l-7,4l-6,-9l-8,-13l10,-7l12,-7Z"/><path data-name="Stephens" class="geo-429" d="M567,327h38v37l-14,1h-24v-16Z"/><path data-name="Lavaca" class="geo-285" d="M707,629l2,-17l5,-4l20,-1l7,5l17,20l-8,6l-20,17l-3,-3Z"/><path data-name="Bosque" class="geo-035" d="M674,389l8,7l2,-4l-1,3l1,11l7,2l-4,4l9,8v6l4,2l-15,8l-9,6l-6,-10l-6,3l-18,-29l10,-6l14,-10Z"/><path data-name="Goliad" class="geo-175" d="M703,674l6,-1l5,8l-1,14l2,3v1l-16,14h-5l-4,-3l-5,-1l-1,-6l-9,-2l-3,-7l-2,-2l-1,-1h-1l16,-13l11,-10Z"/><path data-name="Roberts" class="geo-393" d="M428,63h38v38h-38v-1Z"/><path data-name="Callahan" class="geo-059" d="M567,365v37h-38v-37h1Z"/><path data-name="Rains" class="geo-379" d="M802,337v1h-1l-2,-1l-2,-1l-1,-1l-3,-3l-1,-1l-3,-2l3,-10h19v2l4,20h-1l-3,-1l-2,-1h-4l-2,-1v-1Z"/><path data-name="Morris" class="geo-343" d="M871,284l5,3l4,3l2,1l1,34h-3l-1,-2l-1,-1l-1,-1l-2,-1v-1h-1v-1h-1l-1,-1l-1,-8Z"/><path data-name="Lampasas" class="geo-281" d="M628,457l7,-4l20,34v2l-7,1h-31l-1,1l-1,-7l-6,2l-2,-12l16,-11Z"/><path data-name="Upshur" class="geo-459" d="M848,324l30,-2l1,1l1,2v1l2,3l-2,3l1,12h-2l-1,-1l-5,7l-12,5l-7,-2l-5,-1v-7Z"/><path data-name="Wheeler" class="geo-483" d="M466,101h37v37h-38l1,-2Z"/><path data-name="San Patricio" class="geo-409" d="M668,753h-1l1,-5v-4l-6,-1l-1,-4l5,-6l19,3l2,-3h7l4,4l6,-1l4,4l6,9l4,5v2l-2,2v2h-1v2h-4v-1h-1h2v-2v1h-1v-1h-1v-2h-5v1h-2v1l-1,1v-1h1v-2h-3l-6,1v-1v2v-1h-1v1h-1v-2h-2v1h-1v1l1,1h2v1l-14,-3l-1,-4Z"/><path data-name="Moore" class="geo-341" d="M391,63v37h-37v-37Z"/><path data-name="Webb" class="geo-479" d="M536,782h-1v1h-1l1,-1h-1v-1l-1,-1h-2v1h-2v-2l-1,-1h-1l-1,1l-1,-1l-1,-1l-1,-2h-1v-1l-1,-1h-2v-1h-1v-2l-1,-2l-1,1v1h-1v-1l-1,-1v-1h-2v-5h-1l-1,-1v-5h-1v-2h-1v-1h1l-2,-2h-1l-2,-1v-1h-1v-2h-1v-4h-3v-3h-1v-1h-1v-2h-1l-1,-1h-2v-1h-2l-1,-1v-1h-2h41l19,-1v14h15l30,-3v47l1,13v8h-41l-3,-4l-5,5h-4l1,-1v-2l-1,-1h-1v1h-1v-1h-1v-1h1l1,-1l1,-1v-3h1v-4l-1,-1v-1l1,-4h-3v-5h1v-2h-1Z"/><path data-name="Blanco" class="geo-031" d="M606,536h18l16,6l-3,5l-9,28l-8,9l-14,-18v-27Z"/><path data-name="Newton" class="geo-351" d="M945,468l22,-2l1,1l2,-2h1v-1v1l1,1v1h-1l1,1v2l-1,2h-1h1v1h1h-1v1l1,-1v1h1l1,1l-1,1l1,1h1h-1v1h-1v1h-1v1l-1,-1h-1v1l1,1v1h-1v1h2v1h2v3h-2v2h-1v2h1v4h1l-2,2h-1l1,1h-1v2h-1v1v-1v1h-1h1v1h-1v1h1h-1v1h1v1v-1l-1,1v2l-1,1h-1l-1,1v1h-1v4h-1h1v2h-1h1h-3v2l-1,1h1h-1v2h2v5h1v2h1h-1v1h-1v1v-1l-1,1h1h-1v1v-1v1l-1,1v1h-1h1h-1v1l1,1h-1l1,1h-1l1,2v1h1v1h1v1h1l1,1v3l-14,1v-49l-1,-14Z"/><path data-name="Hockley" class="geo-219" d="M318,251l37,1v38l-36,-1l-1,-6Z"/><path data-name="Panola" class="geo-365" d="M897,365l6,2l5,3l22,-6v14l1,2v16l1,1v1h2l-37,3h-6l1,-21l4,-4Z"/><path data-name="Anderson" class="geo-001" d="M831,395l1,6l-2,1h1h-1h1l-1,2l1,1l1,4v4v-1v1l-1,2l1,1h2l1,3v3h1l2,1v1h-1h2v2h1v1l3,1v3l1,2l1,2l-1,1l-26,5l-7,4l2,-10l-6,1v-7h-7v-5l-7,-3l-3,-13l-3,-5Z"/><path data-name="Cameron" class="geo-061" d="M703,881l2,5l4,20l8,5l-3,9l7,-4l1,4h-11v1h1l-1,1h-2v1v-1h-1v1h-1l-1,-1v1l-1,1v3h-1h1v2h-1h1v1h-3v-1v1h-3v-1l-1,-1h-1v-1h-2v-2v1h-1v1h-1v-2h-1v-2h-2l-1,-1h-1h1v-1v1h-1v-1l-2,-1l-1,-1l-1,-1h1v-1v1h-1v-2l-2,-1h-2v1v-1l-1,-1v1h-4l-1,-1l-1,1v-1h-1v-1h-2h1h-1v-1h-1v1h-3v-1l1,-1h-1v-23l26,3l7,-2Z"/><path data-name="Montgomery" class="geo-339" d="M810,552v-13l-3,-20l17,10l18,-1v1l5,9l7,3v1l-1,1v1l4,-2l5,14l-11,13l-11,-5h-1l-3,-1v1h-1v-1h-1l-1,-2v-1l-1,-1h-1l-1,-1h-1l-1,1h-1v1l-1,1h-1l-2,1h-1v1v-1v1l-1,1v-1v1v-1v1h-2l-6,2h-2Z"/><path data-name="Llano" class="geo-299" d="M578,500h38l3,11v19h5v6h-45v-27Z"/><path data-name="Mason" class="geo-319" d="M554,536h-13v-37l28,-1l9,2l1,9v27Z"/><path data-name="Taylor" class="geo-441" d="M529,365v37h-37v-38l10,1Z"/><path data-name="Hartley" class="geo-205" d="M293,88v-8l1,-14v-4h31v1h29v36h-40l-21,-1v-3Z"/><path data-name="Jim Wells" class="geo-249" d="M635,743h27l6,1v4l-9,8l-1,23h-9v23l1,9h-13l-1,-16v-47Z"/><path data-name="Zapata" class="geo-505" d="M549,836l-1,-2v-2l-1,1h-1v-2h-1v-2l1,-1v-1h1v-1l-1,-1v-1h1v-2h-1l1,-1v-4l-1,-1v-1h-1h1v-3h-1l5,-5l3,4h29l1,6v35l-3,8l-13,11l-6,-15v-4l-2,-2v-3l-1,-1l-1,-1h-3v-4h-3l-1,-1l-1,-1v-2l1,-1h-1Z"/><path data-name="Travis" class="geo-453" d="M642,536l3,-11l10,1l5,9l4,4l1,2l8,-5l6,-1l4,1h2l9,5h2h-1l-2,5l-6,13l-11,13l-5,4l-6,-5l-1,-2l-3,-3h-2l-22,-19l3,-5Z"/><path data-name="Howard" class="geo-227" d="M382,363l14,1h23l-1,7v30h-6l-31,-1Z"/></g>
  <path class="counties-mesh" d="M744,709h-1v-1l-2,1l-6,-6l-1,-5l3,-6l10,-3l5,-4M743,719l-23,4l-2,2l6,4h2M703,808M930,364l-22,6l-5,-3l-6,-2l-1,11l-4,4l-1,21h6l1,5h1v1v-1M751,321h-24v-35l-7,-1l-1,-6v-30l-1,-9M899,407h1v1h1h-1M655,487l-20,-34l29,-18l6,-3l6,10M503,101h-37v-38l9,1h28M541,518v18h13v31h28l24,-1l14,18M593,743l-30,3h-15v-14l-19,1h-41M925,289l-3,-2h-7l-2,2l-1,1v1v-1v1l-2,1h-1l-17,-2l-10,1l-2,-1l-4,-3l-2,-32M352,173h-26v38l-7,-1h-30M658,779l2,1l4,2v1l1,1l1,1l16,-1h22M352,137h38M848,283l1,-1h1l4,1l13,-1h1l3,2v25l1,8l-1,-1l-2,-1l-1,-1h1h-1l-1,-1l-1,-1h-1v-1h-1v-1h-1l-1,-1l-1,1h-1l-1,-1l-1,1h-3v1l-3,1v1h-2M784,373l20,-1h25v5l-1,3l-2,2l2,3v3l1,2l30,-1l4,-1M758,685h1l10,-1M645,282l-5,1h-25l-1,-1v-51M927,552h1l4,1l1,1h2l1,-5l-2,-3h16l14,-1M796,247v36l-31,7h-5l-1,-4v-28M967,466l-22,2l-9,3l-1,1v1h-1l-5,1l-23,7l-4,-1l-2,-1h-3v-1l-2,-1h-1h1M529,256l-5,-3l-4,2l-6,-3h-15v-33l4,1l15,11h11l3,2l8,-2v30l-5,-5h-6M428,101h38v35l-1,2h-38M786,403l-30,19l-16,-1l-14,-22l-4,2l-10,-18l-17,5l-11,4l-2,4l-8,-7v-10l-1,-20l-32,1v-38h-26v5h-37l-1,-4v-33h-73l-1,-14v-24M628,575l9,-28l22,19h2l3,3l1,2l6,5M591,656h-44v-45M614,251l-8,1h-29l-1,-10v-21M337,437l1,-5v-32M727,652l3,3l9,4l2,7l6,8l5,10M715,699l1,1h7l2,1l3,3h6v-1h1M906,481l2,1l13,-1v3l6,16l4,2l1,7l4,3v11l-35,2l-9,-41l5,-5M724,430l10,16l16,25l-17,11l-17,10M149,401l-1,21v22l-1,2v27h-1v24l-2,7v11l-4,2l20,7l39,10l18,5h8l-1,15v29l-1,1v36l-1,17M656,815v48l3,3h39M868,453l-33,29v10l3,7l5,-1M494,733v-39h54v38M720,285h-32v37h19l7,-1v20l1,4v14h36M532,611v-24M583,597l10,6l-2,2l-8,11h-5v-5h-76M659,866l-4,14l11,1v30M759,286h-32M784,546v-4h-10M810,636l-7,-8l-2,-2l-1,-4h-2l-1,-1l-3,-3l1,-5l-1,-4l-2,-1l5,-3l-1,-8l14,-6M911,606l4,-2l1,-1h2v3M678,359h33l1,24M869,639l-11,-17l-2,-4v-9h1h-3l-2,-3l-1,-1h-1l-5,2h-5l-1,7v6h-7v5l-5,7l-1,1l-8,-2l-8,5l-1,3l-8,8l-24,16l-25,-24l20,-13l3,-9l10,-12l7,3M750,638l2,1M678,607v1l1,-1l2,1l20,-13l13,11v2M285,324l5,1h28l28,1l-1,37l-13,-1h-38l-11,-1M382,326h-36M419,364h-23l-14,-1M862,556l6,15l4,2v7l1,2l5,3v5l-1,7M554,536h70M521,573v-18h33M494,518v37h27M375,400l-1,38h38v10l-1,9v30h-38l1,-4v-45M302,399l-20,-1M678,322v37h-5M615,322v-39M577,290h38M436,211h-6v41M393,211v41h-38v-25l1,-16h37M290,172l36,1M822,562h1l2,-1h1l1,-1v-1h1l1,-1h1l1,1h1l1,1v1l1,2h1v1h1v-1l3,1h1l11,5l11,-13l-5,-14M822,562v1v-1M785,533v1l1,2h1l-3,10l5,4v5l21,-3l1,14h2l6,-2h2v-1v1l1,-1M826,350h1h-1l-3,-1l-1,-1l-3,-2v-1l-1,-1v16l1,3h1v1v-1l1,1l2,2v1h2l2,2v1h1l1,1v1M902,412h1v1h1v2l1,1l-1,1v1h1v1h1h-1v1v-1M856,609h2v3l1,1h5v-1l2,-1l4,-2h1M811,445l1,2l2,8l4,4l-5,6l-2,15h-15l-11,7l-8,4l2,3l1,1v3l1,2v4h1l-1,2v1l1,1v2v-1v4l-1,1l1,2v5l-1,1l1,3l1,1l2,7v1M834,242v21l2,21v1l-2,1h-2l-1,-1l-1,1v-1h-2l-1,1h-3v1h-2l-1,1h-1l-1,-1h-3l-2,1l-1,1v1h-1l-3,2h-6l1,1l-2,1v1l-1,1l-1,1v1h-1l-1,1l-1,1l-1,-17M838,672l-6,-1l-9,-10h-6v-4h-1v-3h1l1,-1l-7,-5v-2l-2,-7M796,279h3v-1h1v-1l1,-1h3l1,1h1v-1l1,1h1h-1h1v1h1M494,694v-27l1,-10l15,-1h37v33l1,5M848,315v9l1,21v7l-6,1l-1,-1l-3,-1l-2,-1h-8l-1,-1v1h-1M874,440l1,1v1h2v1l1,1h3v1h3h-1M849,352l5,1l7,2l12,-5l5,-7l1,1h2l-1,-12l14,7l12,-1l7,-4h1v1h1v2l3,2l6,-4l4,4M919,605v-4l-1,-23h-6l-1,-19h1l1,1l3,-1h1l4,-1l1,-1v-3h4v-1h1v-1v1M884,445v1h4l3,1h3h-1h2l3,3l1,-1h2l2,2l2,5l1,1h3l2,4l1,1h1l2,2l1,1v1h2l11,8M734,446l-18,12l-15,9M808,278h1l1,-1h1l3,-1l1,1h3v1l1,1l2,1l1,-1h1l3,1l1,1l3,1v1h2l1,1v-1l1,1h3l2,1h2v-1h3l2,-1h2l1,6v23l1,1l-2,2l-1,1M955,578v-10l-14,-3l-6,-11M915,449v-1l-1,1v4l1,1v3l-1,2v4l1,1M715,359h-4M641,322h47M777,663v24M412,438v-37M418,401h26v29l-1,5l-2,-1l-1,12h-24l-4,1M344,400h-6l-1,-1h-35l-1,2v35h-33l-6,-1l1,-3v-26M592,694h35v42l1,7h-35v-11l-1,-14v-24h-44M503,175h-38v-37h38M777,491v-2l-1,-1l-1,-1l1,-1v-2l-1,-1h-1l-2,-6l-1,-1h1v-1l-1,-2v-1l-1,-2v-2l-1,-1h1l-1,-1v-3l1,-3l-1,-1l7,-5l31,-18M499,252h-33v38M701,595l8,-10l13,-13h3l13,-10l11,1l2,9l4,6l8,9h1l4,2v1h5l4,7l4,6l4,2M650,285h38M937,434l-7,-5l-23,-1M897,401l37,-3M576,452l15,-10l1,-7l7,-1l-6,-11l-13,-21M699,513l-14,-6l-17,-6l-7,-1l-10,10l-6,15l-3,11l-2,6l-16,-6v-6h-5v-19l-3,-11v-9l1,-1h31l7,-1M494,555h-62v-36M927,322l-25,1l-19,2l-1,-34M762,377l-15,10l-9,4l-12,8M681,285v-35l-1,-6M288,250l8,1h22v32l1,6l-33,-1M815,341l2,2h1v1M567,365h-65l-10,-1v-37M504,327l26,1M782,504l22,-4M807,519l3,20v13M412,448l40,1v36l1,2M354,25v38h-29v-1h-31M444,644l4,-1v-7l3,-6v-75M766,320v-21l-1,-9M455,401h-11M451,611h44v46h-42M755,578l-10,15l-11,14M503,191v21h-30v-37M144,515l55,-32l6,-3l20,16l16,14M252,518l-27,21M529,402h38M540,290v26l1,12M381,400l31,1h6v-30l1,-7h73v38h-6l-31,-1v-37l1,-13v-24h10M561,402v52l-4,-1l-4,5l-10,-2l-2,1l-4,-4l-6,-1v35M486,402v33h-43M901,525l1,2l-14,1h-9M467,211l6,1M503,212v8M722,572l-6,-19l-5,-3l-7,-4l-6,-3M430,211h-31l1,-15v-22M627,696l18,-15l-7,-8l14,-12l19,-17l-8,-13l12,-20l3,-4v-1h-2v-1h-4l-4,-4l-1,-1v-1h-1v-1l-2,-2v-1v1h-1v-1l-1,-1l-2,-4l-10,9M897,365l-6,1l-7,-2l-2,-1l-1,-19M531,452l-8,-7v-23l1,-20M465,26v37h-37v-26l1,-11M832,413v-4l-1,-4l-1,-1l1,-2h-1l2,-1l-1,-6M612,364h29v-4M540,252h37M733,482l4,3l2,12l9,9l1,7l-25,15M205,480l2,-23l7,-53M787,403l3,5l3,13l7,3v5h7v7l6,-1l-2,10l7,-4l26,-5l4,2h2l4,2l3,1v4l1,1h2l2,1l2,2l10,-9h-1v-1l-1,-1l-3,-3v-2l-1,-2l-1,-1v-2l-1,-7h2l-1,-2h-2v-1h2v-3l1,-1v-1l-4,1l-1,-26l-1,-19h28l1,-3M894,477h-6v-1h-4l-4,-2l-2,-1l-1,-1v-2l-1,-3l-3,-4l1,-3l-1,-2l-1,-1l-4,-1v-3l-2,-2l-2,-2M330,485h-2v-1l-1,-2v-5l-1,-3h-1v-1h-1l-1,-1h-1v-1h-1h1h-1v-1l-2,-1h-4l-1,-1l-4,-3l-7,2h-1l1,-30l-2,-1M730,655l20,-17l8,-6l-17,-20l-7,-5l-20,1l-5,4l-2,17l-6,6l-21,18l-9,-9M710,742l-2,-2l-4,-4l-6,1l-4,-4h-7l12,-20l16,-14v-1l-2,-3l1,-14l-5,-8l-6,1l-8,-6l-11,10l-14,-16l10,-9M811,566l-8,-3l-1,-2l-2,-1l10,31l6,4l4,2l5,3l5,3l9,4h1M690,465l6,6l5,-4l15,25l-13,8l-4,13l4,2l8,22l-13,6l-2,-2h-2l-9,-5h-2l-4,-1l-6,1l-8,5l-1,-2l-4,-4l-5,-9l-10,-1M789,555l-5,1l-2,9l4,3l-2,1h-1l-2,-1h-3v-1h-1v-1l-15,3h-9l-2,3M767,332v3l-16,1v-15h3l10,-1h2l1,12h26M217,404l6,12l4,-2l1,8l3,2v1l7,2l4,8h1l1,1h4l1,1h1l-1,1l1,2h-1h1h-1v2l1,1l1,7l1,3l1,1h1l5,1h6l1,1v-1l10,5h4l1,-1v-1h1l1,1h2M684,678l-16,13l-6,-2h-1v-1h-1l-9,1l-6,-8M668,748l-1,5h1l9,1l1,4l14,3M738,562l4,-5v-1l4,-2v-1h1v-2l2,-1M607,474l-4,-4l2,-3l-8,-9l-17,-2l-2,-1l-2,-3l-8,3l-7,-1M599,434l13,-2l2,3M354,100l-1,3v32l-1,2l-6,-1h-37l-17,-1M651,689l-5,2l20,42l-5,6l1,4h-27l1,5v47l1,16h-22M671,809l-8,3h-2l-3,2h-1l-1,1l-1,-4h-5M872,317l1,1h1v1h1v1l2,1l1,1l-30,2M776,454l-6,-7l-14,-25M495,445h-9v-10M333,588l-18,-15M611,897l7,-16l8,-18l4,-12h26M944,429h-1h1v1h1h-1M373,523l9,2l1,7l-4,4l-2,3l-2,3l7,7l-7,1l-1,4l-1,11v31M630,851h-7l-40,1v-35l-1,-6h12v-8l21,1v7l2,2l2,16h4v22M880,332l2,-3l-2,-3v-1h3M888,528l11,32l12,-1M912,578l-40,2M945,468l4,15l1,14v49M69,449l3,-2l-2,-7v-15l2,-27M945,430v1v-1l3,1M936,471l-1,-24l3,-5l-1,-8l7,-5h-1M836,284v1l1,34M798,319h-6l-3,10l3,2l1,1l3,3l1,1l2,1l2,1h1v-1h1v1l2,1h4l2,1l3,1h1l-4,-20v-2h-13l-1,-19M835,482l-14,12l-4,-6l3,-5l-5,-2l-4,-1M934,546l1,-1v-4l1,-4v-1h-1v-1h-1l2,-12M428,63h-37l1,-15v-23M578,327h-11M676,572l11,-13l6,-13l2,-5h1M429,326l3,1h24M419,364v-37M769,459l-19,12M711,537l13,-9l4,3l1,1v4h2v1l1,1v1h2v1h1l1,1h1v1h1v1l1,1l1,2h1v1l1,1h2l2,1l2,1h2l3,-1l1,-1l7,-2l7,-1l6,-3l-6,-13l-7,-5l-10,-3l2,-5l8,-4l7,-15l9,-6M727,321h-13M876,287l-5,-3M540,205v26M605,364h7v19l-6,3l-10,7l-16,9h-13v-37h24l14,-1v-37M354,99v-36M318,325v-32l1,-4l36,1v-38l-37,-1M603,600l17,-16l8,-9l13,10l7,6l1,4l1,4l-6,6l-8,4l-9,4l3,3l2,1l4,2v1l1,2v-1h1l3,1v3l-8,12l-12,17l17,19M567,871l13,-11l3,-8M568,455v33l1,10l-28,1M432,555l-20,-1h-38M700,428l-4,-2v-6l-9,-8l4,-4l-7,-2l-1,-11l1,-3M262,435h-20M326,211h30M428,63v37M861,355l1,14M753,516l-4,-3M606,536v30M616,500h-38l-9,-2M593,603l8,-2l1,-1h6l1,-1l9,3l4,-1l4,11l1,1M621,654l-2,-1l-28,-10v13l1,2v36M591,643v-38M373,487l-8,-1h-26l-4,-1M668,691h1l1,1l2,2l3,7l9,2l1,6l5,1l4,3h5M687,733l-2,3l-19,-3M641,364l9,23v1l6,12l-10,6l18,29M635,453l-7,4M646,406l-14,9l4,6l-12,7l-10,7l8,13l6,9l-5,6l-16,11l2,12l6,-2l1,7M632,415l-5,-5l-3,3l-18,-27M389,174h-26M880,325l-1,-2l-1,-1M637,811h13l-1,-9v-23h9l1,-23l9,-8v-4l-6,-1M582,811h-29l-3,-4l-5,5M579,536v-27l-1,-9M901,408v1l1,1h-1l1,1v1l-34,1M718,754l-4,-5l-6,-9M645,247v35l5,3v32l1,5M582,567l1,2v28l-20,-10h-37v-14h-5l-15,-1l-5,21l1,2l-1,7l1,9h-7M391,100v-37h-37M540,261v29M703,881l-4,8l-7,2l-26,-3M829,390v2l1,1l1,2l-44,8h-1v-1l-3,-5l-1,-7l-3,-2v-1l-3,-1h-1l-2,-3l-11,-6l-5,-3v-1h1v-2l-7,-12v-23M842,529v-1l-18,1l-17,-10l-3,-19v-1h2l1,1v-1h1v-1h2l1,-1h3v-1h2l5,-2M661,500l-6,-11v-2l5,-3l2,-2l28,-17l-14,-23l9,-6l15,-8l17,-10l7,12l16,-9M492,402h37v-37M530,365v-37h11l26,-1v38M674,379l-12,1l-12,8M853,501l5,4l1,10h8l-1,7l14,2l-1,4l-10,8l-12,6l-4,2v-1l1,-1v-1l-7,-3l-5,-9l1,-31l6,-3l4,6l13,-15l6,-5l6,-8M433,487h-22M430,290h-37v-38h37v38h74v37h-38v-37M362,211h1v-37l-11,-1v-36M847,317v-1v2l-1,1h-9l-25,1l-1,1M905,420h1v5h1v3h1h-1l1,1h2v1l1,1v1h1v-1v1h1v1h1v1l1,1v6l-1,1v1l1,1v1h-1v1h1v3v-1M594,803l-1,-13v-47M466,63h-1M465,175h-29M427,175h9v36h31v39l-1,2h-36M844,436l1,-1l-1,-2l-1,-2v-3l-3,-1v-1h-1v-2h-2h1v-1l-2,-1h-1v-3l-1,-3h-2l-1,-1l1,-2v-1M335,437v48h-5h1l2,2h2v2h6l2,2l2,1h1l1,1h2l3,1l3,-1v1h1l3,1l5,4l4,6l2,4v1l-1,1v1l1,2l3,7v2l-26,-1v4h-15v28l-17,-1v20l-27,-24l-8,-5l-11,-11l-17,-15l-11,-8l18,-20l6,-8l20,-23l1,1v1h3l3,2l3,2l1,2l2,1l4,-1M355,326v-36h38v27l-1,10l-10,-1v37l-1,37h-37v-25l1,-12h37M293,98l21,1h40v1h37l-1,37l8,1h29v37l-27,-1h-11l1,-10v-27M319,210l-1,19v22M674,389l-4,1l-14,10M701,595M642,629M671,576M906,420M906,420M906,420M906,420M906,420M906,420M906,420M906,420M906,420M906,420M906,420M906,420M906,420M640,542l-3,5M393,211h6M782,332l1,10v25l1,6M784,373l-27,1M628,743h7M796,597l-1,-6l-5,-1l-2,-6l3,-10l-5,-6M727,652l-24,22M707,629l20,23M430,290l-1,5v31M429,326l-10,1M419,327h-27M676,572l25,23M660,590l-2,-3l13,-11M671,576l5,-4M531,487v12h10M541,499v19M541,518h-47M494,487h37M391,100h37M428,100v1M428,101v34l-1,3M494,518l-17,1h-45M432,519l1,-4v-28M494,518v-31M453,487h41M433,487h20M337,437l7,1h30M335,437h2M303,437h32M905,420h1M654,631h-12v-2M642,629l-1,-4M663,631h-9M495,445h28M494,487v-27l1,-15M577,290v-38"/>
<g class="districts"><path data-name="Congressional District 1" class="district-4801" d="M818,344l1,1v1l3,2l1,1l3,1h1h-1h2v-1l1,1h3l-2,-9v-1h-1v-1h-1l1,-4v-5l7,-3l1,-4l5,-1v-3h4l1,-1v-2v1v-1l1,-1v9l1,21l12,-7l4,-1l-1,1v1l-3,16l12,-5l5,-7l1,1h2l-1,-12l14,7l12,-1l7,-4h1v1h1h-1h1v2l3,2l6,-4l4,4v6h1v15l1,2v16l1,2v16l1,1v1h2v1l1,1v1l1,1v2h4v1l-1,1h2l1,1v1h1v2h1v1l1,1v1h2v1l1,1v3h-1h1l1,1v2h2l-1,2l-1,1v5v-1l-1,1v2l1,1l1,1h-1h1v2h1l1,1h3l2,2h-1l-1,1v2l1,1h2v1h1v1l-1,1v1h1v1h2v2h2v-1v2h-2v3h-1v2h1l1,1v1h3l1,1v3h1v5l-22,2l-9,3l-1,1v1h-1l-5,1l-23,7l-4,-1l-2,-1h-3v-1l-2,-1h-1h1h-7v-1h-4l-4,-2l-2,-1l-1,-1v-2l-1,-3l-3,-4l1,-3l-1,-2l-1,-1l-4,-1v-3l-2,-2l-2,-2l10,-9h-1v-1l-1,-1l-3,-3v-2l-1,-2l-1,-1v-2l-1,-7h2l-1,-2h-2v-1h2v-3l1,-1v-1l-4,1l-1,-26l-4,1l-30,1l-1,-2v-3l-2,-3l2,-2l1,-3v-6l-1,-1h-1v-1l-2,-2h-2v-1l-2,-2l-1,-1v1v-1h-1l-1,-3Z"/><path data-name="Congressional District 2" class="district-4802" d="M829,583l-2,-3v-2l-1,-5l1,-1v-1l1,-5l10,-1l1,-1h1l11,5l11,-13l6,15l-1,2l-3,4l-7,4l-6,-5l-1,-3l-3,-4h-1l-7,-1l-5,2v6l-1,2l-2,6h-1l3,3h1l5,1l4,5l-1,2l-2,3h-1v-5l-2,-1l-3,-3l-11,2v-8Z"/><path data-name="Congressional District 3" class="district-4803" d="M727,313v-15h12l4,-4v1h1v-5h8v1l6,-1v3l-1,1v1h1v2l3,7l-2,2l1,1l-2,3v3l-2,3l-1,2l-2,-1h-6l-4,4h-16Z"/><path data-name="Congressional District 4" class="district-4804" d="M718,240h1l2,1h1l3,6l5,3h5l2,-6l2,-2l2,2h2v1h-1v1l-1,1v1l1,1l1,1h5v2l1,1l1,1h1l1,-1h3l1,1v1l1,1v1l2,1v1h1v1h3v-2l1,-3v-1l1,-1l1,1l5,1l2,-1v-1l1,-3l1,-1l2,-1h1l1,-1h2v1l1,-1v-1h1v1l1,-1h1v-1l-1,-1h1l1,1v1l2,-1h1v-1l2,-1l2,1v1l2,1h1v1h1l1,-1v-1h2l1,1v-4l1,-1h2l2,1h1v-1h3l1,-2l2,-1v-1l1,1h2l1,2l1,2l1,-1v1l4,1h2l6,-1h1l1,-1l1,1l1,-2l1,-1l1,2h1v-5h1v-2l1,1h2l1,1h3v3l3,-1h1v1h-1v1h-1v1h2v-3v2v-1l1,1v1h1v1h4v1h1v-1h1v2h1v1h-1v1l1,1h1v-2h1v4h1v1h2l4,2v-2h1v2h2v-1l1,-1h1v1h-2l1,2h1v-1h1v1h-1v1h1v-1h1l-1,1h-1l1,1l1,1h1v-2l1,1v1h1l1,-1l1,1v1h1l1,1v-2h1v1l1,1h1v-2l1,1l-1,1h1v-1l1,1h-1v1h-1v1l1,-1h2v1h-2h4h-1v1h1v-1h1v1l1,-1h1h-1h2l1,-1l1,1h-2h1v1l-1,1l1,1v-1v1h2v1l1,1h1v-1l1,1h-2v1l1,1h3v-2l2,1l1,1v-1l1,-2h1v1h-1l2,1v-2l2,2l2,-1v-2h2v-1h2v2h4v-1h1l1,1h1l-1,1h2l1,15v9l1,14v5l1,2v12l1,6v11l-4,-4l-6,4l-3,-2v-2h-1h1h-1v-1h-1l-7,4l-12,1l-14,-7l1,12h-2l-1,-1l-5,7l-12,5l3,-16v-1l1,-1l-4,1l-12,7l-1,-21v-9l-1,1v1v-1v2l-1,1h-9l-25,1l-1,1l4,20h-1l-3,-1l-2,-1h-4l-2,-1v-1h-1v1h-1l-2,-1l-2,-1l-1,-1l-3,-3h-26v3l-16,1v-15h3v-2l1,-1l1,-2l2,-3v-3l2,-3l-1,-1l2,-2l-3,-7v-2h-1v-1l1,-1v-3l-6,1v-1h-8v5h-1v-1l-4,4h-12v-12l-7,-1l-1,-6v-30Z"/><path data-name="Congressional District 5" class="district-4805" d="M736,329l3,2l-2,-2h5v2h1v1l1,4l2,-2l1,-1l4,4v-1l16,-1v-3h26l3,3l1,1l2,1l2,1h1v-1h1v1l2,1h4l2,1l3,1h1l-4,-20l1,-1l25,-1h5v3l-5,1l-1,4l-7,3v5l-1,4h1v1h1v1l2,9h-3l-1,-1v1h-2h1h-1l-3,-1l-1,-1l-3,-2v-1l-1,-1v16l1,3h1v1v-1l1,1l2,2v1h2l2,2v1h1l1,1v6l-1,3l-2,2l2,3v3l1,2l30,-1l4,-1l1,26l4,-1v1l-1,1v3h-2v1h2l1,2h-2l1,7v2l1,1l1,2v2l3,3l1,1v1h1l-10,9l-2,-2l-2,-1h-2l-1,-1v-4l-3,-1l-4,-2h-2l-4,-2l-26,5l-7,4l2,-10l-6,1v-7h-7v-5l-7,-3l-3,-13l-3,-5h-1v-1l-3,-5l-1,-7l-3,-2v-1l-3,-1h-1l-2,-3l-11,-6l-5,-3v-1h1v-2l-7,-12l-4,-2l-1,-10h-3h1l-3,-8l1,-4l-7,1v-2h1l-1,-2Z"/><path data-name="Congressional District 6" class="district-4806" d="M694,352v-1v1l1,3l4,-5l1,-1l2,-2v-3v1v-1v1h1l-2,-2l-2,-2l3,1h1l2,-1l1,-1l6,-1l1,-1l1,1v2h-6l1,2l1,2l-1,1v1l1,-1l5,1v12h36l7,12v2h-1v1l5,3l11,6l2,3h1l3,1v1l3,2l1,7l3,5v1l-30,19l-16,-1l-14,-22l-4,2l-10,-18l-1,-24h-21v-8Z"/><path data-name="Congressional District 7" class="district-4807" d="M823,577l2,1h2v2l2,3h-6v8l11,-2l3,3l2,1v5h1l-2,3l-3,-1v-1h-1l-2,-4l-12,2l-4,-2v-4l-1,-4v-1l5,-9Z"/><path data-name="Congressional District 8" class="district-4808" d="M775,480l1,-2l1,-1h1l1,-2l2,-4l10,-4l2,-3l2,-1h2v2h1l7,-4l-1,-1l14,-1l-4,-4l-2,-8l-1,-2l7,-4l26,-5l4,2h2l4,2l3,1v4l1,1h2l2,1l2,2l2,2l2,2v3l4,1l1,1l1,2l-1,3l3,4l1,3v2l1,1l-6,8l-6,5l-13,15l5,4l1,10h8l-1,7l14,2l-1,4l-10,8l-12,6l5,14l-11,13l-11,-5h-1l-1,1l-10,1l-1,5v1l-1,1l-5,-6v-1h1l11,-2l-2,-1h-1l-3,-4v1l-1,1h-1l-2,1h-1v1v-1v1l-1,1v-1v1v-1v1h-2l-6,2h-2l-1,-14l-21,3v-5l-5,-4l3,-10h-1l-1,-2v-1v1v-1l-2,-7l-1,-1l-1,-3l1,-1v-5l-1,-2l1,-1v-4v1v-2l-1,-1v-1l1,-2h-1v-4l-1,-2v-3l-1,-1l-2,-3v-2l-1,-1l-1,-1l1,-1v-2l-1,-1l-1,-1Z"/><path data-name="Congressional District 9" class="district-4809" d="M820,597l12,-2l2,4h1v1l3,1l2,-3l2,-3l1,4h7v6l-5,2h-6l-1,5h-6l-2,-7v-2l-5,-3l-4,1Z"/><path data-name="Congressional District 10" class="district-4810" d="M656,536l4,-1l4,4l1,2l3,2h4h-1h1l2,2l3,-6l2,-2l5,2v2l1,2l8,2v1h11l7,4l8,-5l4,1l5,-6l3,-3l1,1v1h2v1h1l1,1h1v1v-1v1h1v1l1,1l1,2h1v1l1,1h2l2,1l2,1h2l3,-1l1,-1l7,-2l7,-1l6,-3h10v4l5,4v5l21,-3l1,14h2l6,-2h2v-1v1v-1v1l1,-1v-1v1v-1h1l2,-1h1l1,-1v-1l3,4h1l2,1l-11,2h-1v1l5,6l1,5h-2l-2,-1h-3l-5,9v1l1,4v4l-6,-4l-14,6l1,8l-5,3l-7,-3l-10,12l-3,9l-20,13l-2,-1l8,-6l-17,-20l-7,-5l-20,1v-2l-13,-11l8,-10l2,-9l-3,-5l-10,-1l-3,-9l-8,-2l-3,1v-1l-2,-3l-1,-3v-4l-8,-1l-2,-2l-1,1l3,2l-2,2h-3l-3,-2l2,-3h-2l-10,-5Z"/><path data-name="Congressional District 11" class="district-4811" d="M283,361l11,1h38l13,1l1,-37h36v37l-1,37l31,1h6v-30l1,-7h36v37l31,1h43v-37h38v-16l5,-5v1l1,-1l-1,-1h2v1v-1v1l-1,1h1v3h1l1,-1l2,-3l2,-1l21,5l4,-2v-19h10v-5h26v38l32,-1l1,20l-12,1l-12,8v-1l-5,1l-14,1l-7,-5l4,7l-2,3v9v-1l1,8l5,5l4,6l-12,7l-10,7l8,13l6,9l-5,6l-16,11l2,12l6,-2l1,7v9l3,11v19h5v6h-70v19h-60v-68h-83v-30l1,-9v-10h-68l-7,-1h-34l-2,-1v-35l1,-2l-20,-1l1,-2Z"/><path data-name="Congressional District 12" class="district-4812" d="M641,322h27l1,-6l7,2l2,-4l1,-2v-1l-3,-2h-1h1h-1l-2,-2l-1,-4l3,-4l2,6l9,1h2v16h3l7,10l-1,1l6,-2v4l-1,5h-5l-1,-2l-4,-3l-4,3l1,1l3,1l1,6l1,5v1l-4,-1v8h-17l-32,1Z"/><path data-name="Congressional District 13" class="district-4813" d="M291,166v-28l1,-3v-26l1,-11v-18l1,-14v-32l1,-9v-1h54l5,1h47l5,1h97v165h3v-1h3v1h1v1h1v1h1v2h1l1,1l1,1v1h1v1l1,1l1,1h1l1,2h1l1,1h1v2h6v1h2l1,-2h-1l1,-1l1,-1h2l3,1l1,1h2v1v-1l1,1v1h1l1,-1l1,1v-2l1,-1v-3h-1h1v-1h2v1l1,1l1,1h3v1h1v1h-1v1h1l1,1h1h-1v1h1v-1v2h1l-1,1h2v1h1h-1v3h1v4l1,1v2h3v-1h1v1h9v-1h1l1,1h3v1h1v1h2v1h1v1h3v-1h1v1h1v1h2v1h1v1h1v-1h4v-1h1v-1h1v-1h3v1h1v-1h1v1h1l1,1v1h1h-1v1h1l1,1v2h2l1,1h1v-1h4l1,-1v-3h2v-1h-1v-1h1l1,-1h1v1h2l1,1h1l1,1l1,-1l1,1v-1l1,1h1l1,1h3v-1l1,-1v-1h1v-1h1l1,1l1,1v2l-1,1v1h-1v2h1l1,1l1,1h-2v1h1v1h1v1h-1h1l1,1h6v-1l1,1h1v2l-1,1l-1,1h1l1,1l-1,1l-1,1v2l1,1h3l1,1h1v1h4l1,-1l1,-1v-1v1l1,-1v-1h1v-2h2v-2h2l1,-1v-2h1v-1h3l1,1h1v1h2v4l1,1h3l1,-1h1l1,-1h1v1h1l1,1h1v4h-1v1l2,1h4l1,-1h1v-3l1,-1v3l1,-1v-2l1,1h1v1h3v-3l1,-1v-1h2l1,1l1,1v2h1v2l-1,1h-1l-1,1l1,3v1h1v1h-1v1h1l1,1v2h4v-1h1v-7l1,-1h2v-1h-1l-2,-1v-1h2l1,1v1h1v-1h1l1,-1v-1l1,-1v-6h1v1h1l1,-1l1,9v30l1,6h-32v21h-2l-9,-1l-2,-6l-3,4l1,4l2,2h1h-1h1l3,2v1l-1,2l-2,4l-7,-2l-1,6h-53v-32h-185v-63h-9v4h-8v7l-5,1l-1,-4l-10,-2l-4,-2v-20h-31h1v-37l-11,-1h-26l-36,-1l1,-1Z"/><path data-name="Congressional District 14" class="district-4814" d="M809,639l1,-3l8,-5l8,2l1,-1l5,-7v-5h7v-6h2v13l7,-2h-1l11,-3l-2,-4v-9h2v3l1,1h5v-1l2,-1l4,-2h1v1h1v1h1v1h2v1h3l-2,7l4,-2l2,6l-2,6l-2,-1l-9,10l-7,1l-1,7l-5,12l-8,7l-10,6l-6,-1l-9,-10h-6v-4h-1v-3h1l1,-1l-7,-5v-2ZM911,606l4,-2l1,-1l3,-2l-1,-23h-6l-1,-19h1l1,1l3,-1h1l4,-1l1,-1v-3h4v-1h1v-1v1v-1h1l4,1l1,1h2l6,11l14,3v10l-1,1h-1l-1,1l-2,4l3,1v3l2,2v1h1v1l1,2h-12l-9,2l-17,9l-1,1l-21,11l-8,8l8,-11h4l2,-5l6,2ZM893,626l-16,14l6,-10Z"/><path data-name="Congressional District 15" class="district-4815" d="M582,811h12v-8l-1,-13v-47h35l-1,-7v-40l18,-15l-7,-8l14,-12l-3,-4l1,-7v-6l-1,-3l5,-5v-5h-12v-2l-1,-4v-3l-3,-1h-1v1l-1,-2v-1l-4,-2l-2,-1l4,-5l2,-2l8,-4l6,-6l10,-9l2,4l1,1v1h1v-1v1l2,2v1h1v1l1,1l4,4h4v1h2v1l-3,4l-12,20l8,13l9,9l-10,9l14,16l-16,13l-6,-2h-1h1h-1v-1h-1l-9,1l-5,2l20,42l-5,6l1,4h-27l1,5v47l1,16h18l1,4v48l3,3l-4,14l11,1v26h-1h1l-7,-3l-6,-2h-5l-4,-4l-3,14h-1v-1h-2v1h-1v-1h-1l-1,-1h-1v-1h1l1,-1h-1v1v-1h-1l-1,1v1v-1h-1l3,-14l-9,1l3,-11l-2,-4h-9l8,-18l4,-12h-7l-40,1v-35Z"/><path data-name="Congressional District 16" class="district-4816" d="M25,403l1,-1h1l-1,-1v-1l1,-2h-1v1v-1l-1,-1l4,-2l11,1h4l28,2l-2,27l-17,-1l-5,-2h-3l-1,-1v-1l-1,-2h-2l-1,-1h-1v-1h-2v1h-3v-1l-1,-1l-1,-1v-1l-5,-3v-2h-2v-5Z"/><path data-name="Congressional District 17" class="district-4817" d="M673,536l6,-1l4,1h2l9,5h2l2,2l13,-6l-8,-22l-4,-2l4,-13l13,-8l-15,-25l-5,4l-6,-6l-14,-23l9,-6l15,-8l17,-10l7,12l16,-9l16,1l30,-19v-1v1h1l3,5l3,13l7,3v5h7v7l6,-1l-2,10l1,2l2,8l4,4l-14,1l1,1l-7,4h-1v-2h-2l-2,1l-2,3l-10,4l-2,4l-1,2h-1l-1,1l-1,2l-1,2l1,1l1,1v2l-1,1l1,1l1,1v2l2,3l1,1v3l1,2v4h1l-1,2v1l1,1v2v-1v4l-1,1l1,2v5l-1,1l1,3l1,1l2,7v1v-1v1l1,2h1l-3,10v-4h-10l-6,3l-7,1l-7,2l-1,1l-3,1h-2l-2,-1l-2,-1h-2l-1,-1v-1h-1l-1,-2l-1,-1v-1h-1v-1v1v-1h-1l-1,-1h-1v-1h-2v-1l-1,-1l-3,3l-5,6l-4,-1l-8,5l-7,-4h-11v-1l-8,-2l-1,-2v-2l-5,-2l-2,2l-3,6l-2,-2h-1h1h-4l-3,-2Z"/><path data-name="Congressional District 18" class="district-4818" d="M830,584h1l2,-6l1,-2v-6l5,-2l7,1h1l3,4l1,3l-9,1l-2,6l1,2l3,5h1l3,-11l5,-1l1,13l-1,4l-5,-5l-2,5l1,2l1,2h-5l-1,-4l1,-2l-4,-5l-5,-1h-1Z"/><path data-name="Congressional District 19" class="district-4819" d="M286,290v-2l1,-15v-5l1,-18v-11l1,-17v-12l1,-8v-30l36,1h26l11,1v37h-1h31v20l4,2l10,2l1,4l5,-1v-7h8v-4h9v63h185v37h-10v19l-4,2l-21,-5l-2,1l-2,3l-1,1h-1v-3h-1l1,-1v-1v1v-1h-2l1,1l-1,1v-1l-5,5v16h-38v37h-43l-31,-1v-37h-36l-1,7v30h-6l-31,-1l1,-37v-37h-36l-1,37l-13,-1h-38l-11,-1l1,-2v-15l1,-20l1,-25Z"/><path data-name="Congressional District 20" class="district-4820" d="M600,614l1,-3l7,2l1,2h-1v4h1l5,-1l1,1l-1,5v1h-4l4,10h-7h1h-4l-1,-9h-8l-3,-5l6,-2Z"/><path data-name="Congressional District 21" class="district-4821" d="M501,602l1,-7l-1,-2l5,-21l15,1v-18h33v-19h70l16,6l-3,5l-9,28l13,10l3,-5v1v-1v1l5,-2l2,-12l10,-1v-7l-8,-4l5,-4h1h-1h1l3,4l5,-3v2v-1l2,2l-6,7l1,3l1,3v3l-1,-2l-1,2l-5,3v5l-2,7l-1,1h-2l-4,8l-3,4l-2,3l-1,1l-17,9l-5,1l-5,12h1h-3v-1l1,-5l-1,-1l-5,1h-1v-4h4l4,-8l2,-5l-9,-3l-1,1h-6l-1,1l-8,2l-2,2l-8,11h-5v-5h-76Z"/><path data-name="Congressional District 22" class="district-4822" d="M792,608l5,-3l-1,-8l14,-6l6,4l4,2l1,4l4,-1l5,3v2l2,7h6l1,-5h6l5,-2h1l7,-1l4,3v2l2,3v1h-5l-1,-1v-3h-2v9l2,4l-11,3h1l-7,2v-13h-2v6h-7v5l-5,7l-1,1l-8,-2l-8,5l-7,-8l-2,-2l-1,-4h-2l-1,-1l-3,-3l1,-5l-1,-4l-2,-1Z"/><path data-name="Congressional District 23" class="district-4823" d="M45,422h3l5,2l17,1l2,-27h11l36,2l30,1h7l21,1l3,1h23l5,1h9l18,1h23l5,1h18l1,-8l20,1l-1,2v35l2,1h34l7,1h68v10l-1,9v30h83v68h27v18l-15,-1l-5,21l1,2l-1,7l1,9h76v5h5l8,-11l2,-2l8,-2l1,-1h6l1,-1l9,3l-2,5l-4,8h-3l-1,-2l-7,-2l-1,3l-2,5l-6,2l3,5h8l1,9h4h-1h14l-2,-6h1v-1l5,2v6l-5,8l-1,9l-28,-10v13l1,2v60l1,14l-20,1v-1h-1l-24,1v-1l-19,1h-41l-1,-1v-2l-1,-1l-1,1v-1h-1v-1h-1l-2,-2v-2l1,-1l-1,-1l-1,-1v-1h-1v-2h-1v-1l-1,-1v-2l1,-1l-1,-2v-1h-1v-1h-1l1,-1h1l1,-1v-1h-2l-2,-1l-1,-1h-1v-2h1v-3h-2l-1,-1v-4h-4v-2l-1,-1v-3l1,-1l-1,-1v-1l-1,-1v1v-1h-1v-4l-2,-1h-1v-1l-1,-3l-1,-1h1h-1v-1h-1l-1,-1v1v-1h-1v-1h1h-1l-1,-2l1,-1v-4l-1,-1v-2l-1,-1l1,-1l-1,-2l-1,-3h-2l-1,-1v-1l-2,-1l-1,-1v-4l-1,-2h-1v-1h-1l-1,-1h-1l-2,-1h-1v-1l-1,-2h-1v-1h-1v-1h-1l-1,-1h-1v-1h-1l-1,-1h-2v-3h-1v-1h-1v-2l-1,-1v-1l-2,-1h-2l-2,-1l-2,-1l-1,-1v-1h-1l-2,-1h-2l-1,-1l1,-1v-1l1,-1h-1v-5h-1l-1,1v3l-1,1h-1l-1,-2v-1l1,-1v-3l-1,-1h-2l-1,1h-1v-3l-1,-1l-1,-1v-2h-1v-3l-1,1h-1v1h-1v-2h-1l1,-1l-1,-1h-1l-1,1v1h-1l-1,1h-1v-4h-2l-1,1v2h-1l-1,-1l-1,1l-2,1h-1v-1h-5v-1h-3v-1h-1v1h-2v-2h-1v1l-1,-1h-6l-1,1h-1l1,-1h-3v-1h-1v1h-4l-1,1h-1l-4,-1h-2l-1,-1v-1h-2v-1h1l-1,-1h-3l-2,-1h1h-2v-1h-1v-1h-1l-1,-1v1h-1v1h-2v1h-1v3l-1,2h-1v2h-2l-2,-1h-1l-1,-1v1h-1v-1h-2v2h-2v1l-1,1v-2l-1,-1v2h-3l-1,1l-1,1h-1l-1,-1h-1v1h-1v2l-1,1v2h-1v1h-1v1h-1v4h-1v1l-1,-1l-1,1h1v1l-1,1v1h-1l-1,1v6h-1v2h-1v3h1l1,1h-2v2h-1v1l-1,1h-2v3h-1v2l-1,1l1,1h-1l1,1v1h2v2h-1v1h-2v-1l-1,1v1h-2v1h-2v-1l-2,2v1h-1v1l-1,1v1h-1v2l-1,1v-1l-1,1h-1v1h-1l1,1h-1v-1l-1,1v4l-1,1v2h-2l-1,1h-1v-1h-2l-1,-1h-2l-1,1h-1v-1l-1,-1v2h-1v-2l-1,-1h-1v1v-2h-1l-1,-1h1l1,-1h-2v1l-1,1h-1l-1,-1v-1l-1,1v-1h-3l1,-1h-1v-1h-1v-1h-2h1l-1,-1h-1v-1l-1,-1v-1h-2h1v-1h-1v-1h-1l-1,-1h1h-3v-1h-5v-1h-1l-1,-1h-3l-1,-1v-2h-1l-1,-1v1h-1v-4h-2v-1h-2l-1,-1h-7v-1h-4v-1h-2v-1h-1l-1,-1v-1h-1l-1,-1v1v-1h-1v-1l-1,-1v-1h-2v-1h-2v-1h-1v-2h-1v-1h-1v-4h-1v1v-1h-1v-1l-1,-1h-3v-1h-2v-1v1h-3v-1h-1v-1l-1,-1v-1l-1,-1l-1,-1l-1,-1h-1v-1h-1v-1h-2v-1h-2l1,-1h-1v-1l-1,-1l-1,-1v-1h1l-1,-1v-3h-1h1h-1v-1h-1v-1h1h-1v-3h-1v-2v1l-1,-1h-1v-3h-1h1h-1v-2h-1v-1h-1v-2v1v-2h-1v-2h1l-1,-1h1h-1v-1h1h-1v-5h-1v-4h1l1,-1h-1h1v-1h-1v-1h1l-1,-1v-2h1h-1v-1h1v-3h-1v-1l-1,-1v-1l1,-1h-1l-1,-1v-1h-2v-2v1h-1v-1h1v-1l-1,-1h-1v-1h-1v-1h-1l-1,-1v-1l1,-2v1l-1,-1h-1v-1h-1v-3h-1l1,-1l-1,-1v-5l-1,-1v-3h-1v-2l-1,-1l-1,-1v-1h-2v-1h-1v-3l-1,-1v-1l-1,-1h-2v-1l-1,1h-1v-1l-1,-1h-1l-1,-2v-1h-1v-1h-3v-2h-1v1h-1v-2h-3v-2h-1v1h-1v-1l-1,-1v1v-1l-1,-1v1v-1h-1v1h-1v-1l-1,-1h-1v-1l-1,1v-2h-3v-1h1h-1v-1l-1,-1l-1,-1h-1v-1h-1v-1h-1v-1h-1v-1h-1v-1l-1,-1l-1,-1h-1v-1h-1l-1,-1v-1h1l-1,-1l-1,-3v-2h-1l-2,-1h-1v-2l-2,-1h-1l-1,-1h-1l-4,-3v-1l-1,-1l-3,-5v-1h-1v-2h-1v-1h-2v-1h-3v-1l-1,-2v-2l-1,-1h-1l-1,-2h-2l-4,-1l-1,-1l-2,-1h-1l-4,-3v-1h-1l-1,-1v-2l-1,-1v-2l-1,-1l-1,-1h-1v-2l-1,-1v-3h-1l-1,-1v-2h-1v-2Z"/><path data-name="Congressional District 24" class="district-4824" d="M703,335v-7l1,-5v-1h-1h4l7,-1h6l2,-4l5,-4v8h3l-1,8h-2l2,3l-2,1v-1l-2,-3v-1h-1h1h-1l-1,6l-2,1h-4v1l-3,1l-10,1l-2,2Z"/><path data-name="Congressional District 25" class="district-4825" d="M607,474l16,-11l5,-6l-6,-9l-8,-13l10,-7l12,-7l-4,-6l-5,-5l-1,-8v1v-9l2,-3l-4,-7l7,5l14,-1l5,-1v1l12,-8l12,-1l-1,-20h38l1,24l10,18l4,-2l14,22l-16,9l-7,-12l-17,10l-15,8l-9,6l14,23l-28,17h2l1,5l-5,-3l-5,3v2l6,11l-10,10l-6,15l10,1l5,9l-4,1l-1,5l10,5h2l-2,3l3,2h3l2,-2l3,6h-7l-2,-2v1v-2l-5,3l-3,-4h-1h1h-1l-5,4l8,4v7l-10,1l-2,12l-5,2v-1v1v-1l-3,5l-13,-10l9,-28l3,-5l-16,-6v-6h-5v-19l-3,-11v-9l-1,-7l-6,2Z"/><path data-name="Congressional District 26" class="district-4826" d="M688,306v-21h32l7,1v27l-5,4l-2,4h-6l-7,1h-4h1v1l-1,5v3l-6,2l1,-1l-7,-10h-3Z"/><path data-name="Congressional District 27" class="district-4827" d="M658,779l1,-23l9,-8v-4h1v-1v1v-1l11,2l4,8l3,-6l5,-2h-1h2h-2l-1,-2h1h-1l-5,-7l2,-3l12,-20l16,-14v-1l-2,-3l1,-14l-5,-8l-6,1l24,-22l-20,-23l-6,6h-1l-1,-1l-10,-8l-5,-5l-9,-10l3,-4v-1h-2v-1h-4l-4,-4l-1,-1v-1h-1v-1l4,-4l-3,-7l4,1h5l-3,-12h-2l5,-4l11,-13l8,2l3,9l10,1l3,5l-2,9l-8,10l13,11v2l20,-1l7,5l17,20l-8,6l2,1l20,-13l3,-9l10,-12l7,3l2,1l1,4l-1,5l3,3l1,1h2l1,4l2,2l7,8l-1,3l2,7v2l7,5l-1,1h-1v3h1v4h6l9,10l6,1l-16,8h-7l-10,4l-1,6l6,-1l-23,12l-9,8l6,-8l14,-7l4,-1l-3,-5l-10,5l-5,-4l3,-4l-7,1l-3,4l-5,-3l-3,-3v10l-3,-6l-5,3l-2,-6h-1v1v-2h-6v1l7,10l13,11v3l-10,3l-8,5l-5,-6l-6,-3v1h1v2l-1,1l-5,-2l4,5v2l1,1v1l-1,4v4l-2,3l-7,5l-2,-10l-2,9l-3,-5l-5,4h-7l1,3l-5,6l7,1l-3,6l5,-8l6,-3l1,5l-8,11v2l-2,2v2h-1v2h-4v-1h-1h2v-2v1h-1v-1h-1v-2h-5v1h-2v1l-1,1v-1h1v-2h-3l-6,1v-1v2l-1,-1v1h-1v-2h-2v1h-1v1l1,1h2v1h8l-1,4l4,6l6,2l-5,11h-22l-16,1l-1,-1l-1,-1v-1l-4,-2ZM758,721l5,-4l6,1l-9,5l-9,6l-11,11v-2l1,-2l1,-4l8,-3ZM738,740l1,2l-11,11l2,-8ZM716,770l6,-10l3,1l-5,6l-6,11Z"/><path data-name="Congressional District 28" class="district-4828" d="M488,733h41l19,-1v1l24,-1h1v1l20,-1l-1,-14v-60l-1,-2v-13l28,10l1,-9l5,-8v-6l-5,-2l5,-3l-3,-4l3,-5l2,-3l3,3l2,1l4,2v1l1,2v-1h1l3,1v3l1,4v2h12v5l-5,5l1,3v6l-1,7l3,4l-14,12l7,8l-18,15v40l1,7h-35v47l1,13v8h-12l1,6v35l40,-1h7l-4,12l-8,18h9l2,4l-3,11l9,-1l-3,14v-1h-1v-1l-1,-1v-2l-1,1h-1v-2v2h-2v-3h-2v-1h-2v-1h-2l-1,1h1h-3v-2l-1,1v-1l-1,1l-2,-2h1v1h-1v1v-1l-1,-1v1h-1v-2h-2v1h-1v-1l-1,1l-1,1h-1v-1h-1v-2h-3v-1h2l-1,-1h-1l-1,-1h-1l-1,-1h1v1h1v-1l-1,-1h-3v-1h-1v-2h-1l-2,-1v1h-4v1h-1v-2h-1v-1h-1v1l-1,1v-1h-1v-2h-2l-1,1v-1h-2v-1h-2l-1,1h-2l-1,-1v-1l-1,-1h-1l1,-1h1h-1v-1h1v-2l-1,-1v-1h-1v-1l-1,-1h-1l-1,-1v-2l-6,-15v-4l-2,-2v-3l-1,-1l-1,-1h-3v-4h-3l-1,-1l-1,-1v-2l1,-1h-1l-1,-2v-2l-1,1h-1v-2h-1v-2l1,-1v-1h1v-1l-1,-1v-1h1v-2h-1l1,-1v-4l-1,-1v-1h-1h1v-3h-5l1,-1v-2l-1,-1h-1v1h-1v-1h-1v-1h1l1,-1l1,-1v-3h1v-4l-1,-1v-1l1,-4h-3v-5h1v-2h-1l-3,-3h-1v1h-1l1,-1h-1v-1l-1,-1h-2v1h-2v-2l-1,-1h-1l-1,1l-1,-1l-1,-1l-1,-2h-1v-1l-1,-1h-2v-1h-1v-2l-1,-2l-1,1v1h-1v-1l-1,-1v-1h-2v-5h-1l-1,-1v-5h-1v-2h-1v-1h1l-2,-2h-1l-2,-1v-1h-1v-2h-1v-4h-3v-3h-1v-1h-1v-2h-1l-1,-1h-2v-1h-2l-1,-1v-1h-2Z"/><path data-name="Congressional District 29" class="district-4829" d="M842,577l9,-1l6,5l4,4l-1,6l-2,2l3,5l-4,3v3h1l-7,1h-1v-6h-2l-1,-2l-1,-2l2,-5l5,5l1,-4l-1,-13l-5,1l-3,11h-1l-3,-5l-1,-2Z"/><path data-name="Congressional District 30" class="district-4830" d="M715,347v-2h1l3,1v1l2,-2l8,1l-1,-3l-2,-2l1,-1v-8v1l2,4l1,-1l1,2l1,-1l1,2l2,-2v-1l7,-1l-1,4l3,8h-1h3l1,10l4,2h-36Z"/><path data-name="Congressional District 31" class="district-4831" d="M661,500l-6,-11v-2l5,-3l5,3l-1,-5h-2l28,-17l6,6l5,-4l15,25l-13,8l-4,13l4,2l8,22l-13,6l-2,-2h-2l-9,-5h-2l-4,-1l-6,1l-8,5l-1,-2l-4,-4l-5,-9l-10,-1l6,-15Z"/><path data-name="Congressional District 32" class="district-4832" d="M729,329l1,-8h13l4,-4h6l2,1l-1,1v2h-3v16l-4,-4l-1,1l-2,2l-1,-4v-1h-1v-2h-5l2,2l-3,-2l-1,3l1,2h-1v3l-2,2l-1,-2l-1,1l-1,-2l-1,1l-2,-4l2,-1l-2,-3Z"/><path data-name="Congressional District 33" class="district-4833" d="M688,338l4,-3l4,3l1,2h5l2,-2l10,-1l3,-1v-1h4l2,-1l1,-6h1h-1h1v1l2,3v8l-1,1l2,2l1,3l-8,-1l-2,2v-1l-3,-1h-1v2l-5,-1l-1,1v-1l1,-1l-1,-2l-1,-2h6v-2l-1,-1l-1,1l-6,1l-1,1l-2,1h-1l-3,-1l2,2l2,2h-1v-1v1v-1v3l-2,2l-1,1l-4,5l-1,-3v-1l-1,-5l-1,-6l-3,-1Z"/><path data-name="Congressional District 34" class="district-4834" d="M635,743h27l-1,-4l5,-6l-20,-42l5,-2l9,-1h1v1h1h-1h1l6,2l16,-13l-14,-16l10,-9l-9,-9l-8,-13l12,-20l9,10l5,5l10,8l1,1h1l6,-6l20,23l-24,22l6,-1l5,8l-1,14l2,3v1l-16,14l-12,20l-2,3l5,7h1h-1l1,2h2h-2h1l-5,2l-3,6l-4,-8l-11,-2v1v-1v1h-1v4l-9,8l-1,23l2,1l4,2v1l1,1l1,1l16,-1h22l-2,14l-4,7l-9,3l5,-9l-6,5l-5,2l-10,-10l7,12l-9,1h11v3h9l7,-2l-2,12l-3,1l2,8l-7,3v12l8,7l2,13l2,7l-4,6l4,1l-2,2l5,-1l2,5l4,20l8,5l-3,9l7,-4l1,4h-11v1h1l-1,1h-2v1v-1h-1v1h-1l-1,-1v1l-1,1v3h-1h1v2h-1h1v1h-3v-1v1h-3v-1l-1,-1h-1v-1h-2v-2v1h-1v1h-1v-2h-1v-2h-2l-1,-1h-1h1v-1v1h-1v-1l-2,-1l-1,-1l-1,-1h1v-1v1h-1v-2l-2,-1h-2v1v-1l-1,-1v1h-4l-1,-1l-1,1v-1h-1v-1h-2h1h-1v-1h-1v1h-3v-1l1,-1h-1v1h-3l-1,1l-1,-1l1,1h-1l-1,-1l-1,1l-1,-1h-1l-1,1h-1v-1h-1v1l-1,1l-2,1h-1v-1h1v-1h-1v-1h-1v1l-1,-1h-2l-1,1h-1l-1,-1h-1v1h-1v-1l3,-14l4,4h5l6,2l7,3h-1h1v-26l-11,-1l4,-14l-3,-3v-48l-1,-4h-18l-1,-16v-47ZM710,782h2l-7,18l-2,8l-1,10l1,23l-2,-3l1,-26l1,-4h-1l1,-8ZM702,842l1,-1l5,20l-4,-6ZM708,861l1,5l3,7h-1l-5,-4l2,-3l-2,-6Z"/><path data-name="Congressional District 35" class="district-4835" d="M614,625h3h-1l5,-12l5,-1l17,-9l1,-1l2,-3l3,-4l4,-8h2l1,-1l2,-7v-5l5,-3l1,-2l1,2v-3l-1,-3l-1,-3l6,-7h7l-3,-6l-3,-2l1,-1l2,2l8,1v4l1,3l2,3v1l3,-1l-11,13l-5,4h2l3,12h-5l-4,-1l3,7l-4,4l-2,-2v-1v1h-1v-1l-1,-1l-2,-4l-10,9l-6,6l-8,4l-2,2l-4,5l-3,-3l-2,3l-3,5l3,4l-5,3v1h-1l2,6h-7l-4,-10Z"/><path data-name="Congressional District 36" class="district-4836" d="M857,601l4,-3l-3,-5l15,5h-1v1h-1v3l1,2h1v1h-1v1l-1,1v2h-1l-4,2l-2,1v1h-1h1v-1l-2,-3v-2l-4,-3h-1ZM858,593l2,-2l1,-6l-4,-4l7,-4l3,-4l1,-2l-6,-15l-5,-14l12,-6l10,-8l1,-4l-14,-2l1,-7h-8l-1,-10l-5,-4l13,-15l6,-5l6,-8l2,1l4,2h4v1h7h-1h1l2,1v1h3l2,1l4,1l23,-7l5,-1h1v-1l1,-1l9,-3l22,-2l1,1l2,-2h1v-1v1l1,1v1h-1l1,1v2l-1,2h-1h1v1h1h-1v1l1,-1v1h1l1,1l-1,1l1,1h1h-1v1h-1v1h-1v1l-1,-1h-1v1l1,1v1h-1v1h2v1h2v3h-2v2h-1v2h1v4h1l-2,2h-1l1,1h-1v2h-1v1v-1v1h-1h1v1h-1v1h1h-1v1h1v1v-1l-1,1v2l-1,1h-1l-1,1v1h-1v4h-1h1v2h-1h1h-3v2l-1,1h1h-1v2h2v5h1v2h1h-1v1h-1v1v-1l-1,1h1h-1v1v-1v1l-1,1v1h-1h1h-1v1l1,1h-1l1,1h-1l1,2v1h1v1h1v1h1l1,1v4l-1,1v1h1h-1v1h1v2h1v1h-1v1h1v1h1h-1v2h-1l-1,1v2h1v1h1v1h-1v-1v2l-1,2l-3,2h-1l-1,3l-3,8v1v-10l-14,-3l-6,-11h-2l-1,-1l-4,-1h-1v1v-1v1h-1v1h-4v3l-1,1l-4,1h-1l-3,1l-1,-1h-1l1,19h6l1,23l-3,2l-1,1l-4,2h-1v1h-1l-1,1h-1v-2h-1v-1h-3l-1,1h-1l-1,1h-2l-1,1h-1v1h-3l-1,1h-4v-2l6,-6v-12l-10,-3l-4,12l-3,-2l-10,-4l-2,-8l-1,8Z"/></g>
  <path class="districts-mesh" d="M632,909l3,-14l-9,1l3,-11l-2,-4h-9l8,-18l4,-12h-7l-40,1v-35l-1,-6h12v-8l-1,-13v-47h35l-1,-7v-40l18,-15l-7,-8l14,-12l-3,-4l1,-7v-6l-1,-3l5,-5v-5h-12v-2l-1,-4v-3l-3,-1h-1v1l-1,-2v-1l-4,-2l-2,-1l4,-5l2,-2l8,-4l6,-6l10,-9l2,4l1,1v1h1v-1v1l2,2v1h1v1l1,1l4,4h4v1h2v1l-3,4l-12,20l8,13l9,9l-10,9l14,16l-16,13l-6,-2h-1v-1h-1l-9,1l-5,2l20,42l-5,6l1,4h-27l1,5v47l1,16h18l1,4v48l3,3l-4,14l11,1v26h-1h1l-7,-3l-6,-2h-5l-4,-4l-3,14M72,398l-2,27l-17,-1l-5,-2h-3M842,319h4l1,-1v-2l1,-1v9l1,21l12,-7l4,-1l-1,1v1l-3,16l12,-5l5,-7l1,1h2l-1,-12l14,7l12,-1l7,-4h1v1h1v2l3,2l6,-4l4,4M283,361l11,1h38l13,1l1,-37h36v37l-1,37l31,1h6v-30l1,-7h36v37l31,1h43v-37h38v-16l5,-5v1l1,-1l-1,-1h2v1l-1,1h1v3h1l1,-1l2,-3l2,-1l21,5l4,-2v-19h10v-5h26v38l32,-1l1,20l-12,1l-12,8v-1l-5,1l-14,1l-7,-5l4,7l-2,3v9v-1l1,8l5,5l4,6l-12,7l-10,7l8,13l6,9l-5,6l-16,11l2,12l6,-2l1,7v9l3,11v19h5v6h-70v19h-60v-68h-83v-30l1,-9v-10h-68l-7,-1h-34l-2,-1v-35l1,-2l-20,-1M690,359h-17M703,331v-3l1,-5v-1h-1h4l7,-1h6l2,-4l5,-4v-27l-7,-1h-32v21M615,322v-32h-185v-63h-9v4h-8v7l-5,1l-1,-4l-10,-2l-4,-2v-20h-31h1v-37l-11,-1h-26l-36,-1M838,672l-6,-1l-9,-10h-6v-4h-1v-3h1l1,-1l-7,-5v-2l-2,-7l1,-3l8,-5l8,2l1,-1l5,-7v-5h7v-6h2v13l7,-2h-1l11,-3l-2,-4v-9h2v3l1,1h5v-1l2,-1l4,-2h1M822,562v1l-1,1v-1v1h-2l-6,2h-2l-1,-14l-21,3v-5l-5,-4l3,-10h-1l-1,-2v-1v1M878,473l-1,-1v-2l-1,-3l-3,-4l1,-3l-1,-2l-1,-1l-4,-1v-3l-2,-2l-2,-2l10,-9h-1v-1l-1,-1l-3,-3v-2l-1,-2l-1,-1v-2l-1,-7h2l-1,-2h-2v-1h2v-3l1,-1v-1l-4,1l-1,-26l-4,1l-30,1l-1,-2v-3l-2,-3l2,-2l1,-3v-6l-1,-1h-1v-1l-2,-2h-2v-1l-2,-2l-1,-1v1v-1h-1l-1,-3v-16l1,1v1l3,2l1,1l3,1h2v-1l1,1h3l-2,-9v-1h-1v-1h-1l1,-4v-5l7,-3l1,-4l5,-1v-3h-5l-25,1l-1,1l4,20h-1l-3,-1l-2,-1h-4l-2,-1v-1h-1v1h-1l-2,-1l-2,-1l-1,-1l-3,-3h-26v3l-16,1v-15h3v-2l1,-1M911,606l4,-2l1,-1l3,-2l-1,-23h-6l-1,-19h1l1,1l3,-1h1l4,-1l1,-1v-3h4v-1h1v-1v1M720,285l-1,-6v-30l-1,-9M967,466l-22,2l-9,3l-1,1v1h-1l-5,1l-23,7l-4,-1l-2,-1h-3v-1l-2,-1h-1h1M927,552h1l4,1l1,1h2l6,11l14,3v10M840,598h-1v-5l-2,-1l-3,-3l-11,2v-8h6l-2,-3v-2l-1,-5l-5,-6v-1h1l11,-2l-2,-1h-1l-3,-4v1l-1,1h-1l-2,1h-1v1M786,403v-1l-3,-5l-1,-7l-3,-2v-1l-3,-1h-1l-2,-3l-11,-6l-5,-3v-1h1v-2l-7,-12l-4,-2l-1,-10h-3h1l-3,-8l1,-4l-7,1v-2h1l-1,-2l1,-3l3,2l-2,-2h5v2h1v1l1,4l2,-2l1,-1l4,4v-1M851,576l-1,-3l-3,-4h-1l-7,-1l-5,2v6l-1,2l-2,6h-1l3,3h1l5,1l4,5l-1,2l1,4h7v6l-5,2h-6l-1,5h-6l-2,-7v-2l-5,-3l-4,1l-1,-4M673,549l-2,2h-3l-3,-2l2,-3h-2l-10,-5l1,-5l4,-1l4,4l1,2l8,-5l6,-1l4,1h2l9,5h2l2,2l13,-6l-8,-22l-4,-2l4,-13l13,-8l-15,-25l-5,4l-6,-6l-14,-23l9,-6l15,-8l17,-10l7,12l16,-9M826,573l1,-1v-1l1,-5l10,-1l1,-1h1l11,5l11,-13l6,15l-1,2l-3,4l-7,4l-6,-5l-9,1l-2,6l1,2l3,5h1l3,-11l5,-1l1,13l-1,4l-5,-5l-2,5l1,2l1,2M600,614l1,-3l7,2l1,2h-1v4h1l5,-1l1,1l-1,5v1h-4l4,10h-10l-1,-9h-8l-3,-5l6,-2l2,-5M609,615h3l4,-8l2,-5l-9,-3l-1,1h-6l-1,1l-8,2l-2,2l-8,11h-5v-5h-76l-1,-9l1,-7l-1,-2l5,-21l15,1v-18M624,536l16,6l-3,5l-9,28l13,10l3,-5v1l5,-2l2,-12l10,-1v-7l-8,-4l5,-4h1h-1h1l3,4l5,-3v2v-1l2,2l-6,7l1,3l1,3v3l-1,-2l-1,2l-5,3v5l-2,7l-1,1h-2l-4,8l-3,4l-2,3l-1,1l-17,9l-5,1l-5,12h1h-3M894,477h-6v-1h-4l-4,-2l-2,-1l-6,8l-6,5l-13,15l5,4l1,10h8l-1,7l14,2l-1,4l-10,8l-12,6l5,14M850,605h1l7,-1l4,3v2l2,3v1M614,635h7l-2,-6h1v-1l5,2v6l-5,8l-1,9l-28,-10v13l1,2v60l1,14l-20,1v-1h-1l-24,1v-1l-19,1h-41M842,595l-2,3l-2,3l-3,-1v-1h-1l-2,-4l-12,2l-4,-2v-4l-1,-4v-1l5,-9h3l2,1h2M730,321l-1,8h-2l2,3l-2,1v-1l-2,-3v-1h-1h1h-1l-1,6l-2,1h-4v1l-3,1l-10,1l-2,2M690,465l-28,17h2l1,5l-5,-3l-5,3v2l6,11l-10,10l-6,15l10,1l5,9M816,595l-6,-4l-14,6l1,8l-5,3l-7,-3l-10,12l-3,9l-20,13l-2,-1l8,-6l-17,-20l-7,-5l-20,1v-2l-13,-11l8,-10l2,-9l-3,-5l-10,-1l-3,-9l-8,-2l-3,1v-1l-2,-3l-1,-3v-4l-8,-1l-2,-2l-1,1l3,2l3,6h-7M671,543h1l2,2l3,-6l2,-2l5,2v2l1,2l8,2v1h11l7,4l8,-5l4,1l5,-6l3,-3l1,1v1h2v1h1l1,1h1v1h1v1l1,1l1,2h1v1l1,1h2l2,1l2,1h2l3,-1l1,-1l7,-2l7,-1l6,-3h10v4M692,745h1h-1M704,784h-22l-16,1l-1,-1l-1,-1v-1l-4,-2l-2,-1l1,-23l9,-8v-4h1v-1l11,2l4,8l3,-6l5,-2h-1l-1,-2h1h-1l-5,-7l2,-3l12,-20l16,-14v-1l-2,-3l1,-14l-5,-8l-6,1l24,-22l-20,-23l-6,6h-1l-1,-1l-10,-8l-5,-5l-9,-10M666,598l4,-4l-3,-7l4,1h5l-3,-12h-2l5,-4l11,-13M847,317v-1M620,628l5,-3l-3,-4l3,-5l2,-3l3,3M727,298h12l4,-4v1h1v-5h8v1l6,-1v3l-1,1v1h1v2l3,7l-2,2l1,1l-2,3v3l-2,3l-1,2l-2,-1h-6l-4,4h-16v-8M857,581l4,4l-1,6l-2,2l3,5l-4,3v3h1M715,347v-2h1l3,1v1l2,-2l8,1l-1,-3l-2,-2l1,-1v-8M864,449l-2,-2l-2,-1h-2l-1,-1v-4l-3,-1l-4,-2h-2l-4,-2l-26,5l-7,4l2,-10l-6,1v-7h-7v-5l-7,-3l-3,-13l-3,-5h-1l-30,19l-16,-1l-14,-22l-4,2l-10,-18l-1,-24h-21v-8l4,1v-1v1l1,3l4,-5l1,-1l2,-2v-3v1v-1v1h1l-2,-2l-2,-2l3,1h1l2,-1l1,-1l6,-1l1,-1l1,1v2h-6l1,2l1,2l-1,1v1l1,-1l5,1v12h36M727,333l2,4l1,-1l1,2l1,-1l1,2l2,-2v-1M641,322h27l1,-6l7,2l2,-4l1,-2v-1l-3,-2h-1l-2,-2l-1,-4l3,-4l2,6l9,1h2v16h3l7,10l-1,1l6,-2v4l-1,5h-5l-1,-2l-4,-3l-4,3l1,1l3,1l1,6l1,5M785,533l-2,-7l-1,-1l-1,-3l1,-1v-5l-1,-2l1,-1v-4v1v-2l-1,-1v-1l1,-2h-1v-4l-1,-2v-3l-1,-1l-2,-3v-2l-1,-1l-1,-1l1,-1v-2l-1,-1l-1,-1l1,-2l1,-2l1,-1h1l1,-2l2,-4l10,-4l2,-3l2,-1h2v2h1l7,-4l-1,-1l14,-1l-4,-4l-2,-8l-1,-2M665,541l3,2h4M810,636l-7,-8l-2,-2l-1,-4h-2l-1,-1l-3,-3l1,-5l-1,-4l-2,-1M826,350h1"/>
</svg>