<?xml version="1.0" encoding="utf-8"?>
<!DOCTYPE svg PUBLIC "-//W3C//DTD SVG 1.1//EN" "http://www.w3.org/Graphics/SVG/1.1/DTD/svg11.dtd">
<svg version="1.1" xmlns="http://www.w3.org/2000/svg" width="613" height="1000" viewBox="0 0 613 1000">
  <path class="state" d="M215,25h34l8,1h3l18,2h34l7,1h22l7,1h15l24,-1h47l5,-1h32l27,-2h41l2,-1h56l-6,4l-4,-3l-10,6v1l-1,3l1,3l1,1l3,3v1l2,1l1,3l-1,2v3l-1,2v1l1,1v1l1,2v1l4,4l2,2v3h-1l-4,6l-2,2l-1,2l-1,1l-7,6v1l-2,6h1v3l-6,7v1l-1,2l1,2v7l-5,4l-8,11l-3,1v4l1,2v3l2,2v2l1,1l4,9l2,1l-1,2l1,2v3l1,1l1,1h2l-1,2l1,3l-2,1l4,2v2h3l1,1l1,3l-1,1l4,3v1l1,2v1l-2,7l-2,1l2,1v1l-1,2h1l2,-1v1h2v4l-2,2l-2,-1l1,3l-1,2l-2,2h-3l-8,4l5,4v9l-3,2v1l2,1l2,5l-4,1l-2,6l-8,4l-2,1l-3,2l-6,12l-3,2l-1,1l-1,2l-1,1l-2,3h-2l-6,4l-6,1l-1,2l-7,-2l-5,3h-2l-2,1l-1,1l-1,1v1l1,1v1l-3,1h-1l-1,1v6l1,4l-2,1l-3,1l-1,1h-1l-3,3h-1l-1,1h-1l-5,2l-5,-3l-5,-3l-4,2l-8,3h-9l-2,1v1l-5,4l-1,1h-7l-1,1v5l-3,5h-1v2h-2l-1,1l-3,6v2h2v3l1,5l1,1l1,1l-2,13h-1l1,2l-1,4h-1v1l-1,2v1l1,1l1,1l1,2v1l1,1l1,2l1,2v1h1v2h2l-1,1l-1,4v4h1l1,1v1l1,1h-1v1h-2l-1,1l-3,5l3,6h1l4,-2l-2,10l-11,14l-2,10l-3,-2h-1v3l1,3l-1,-2l-3,1l-1,5v1l-1,12h5l-1,5v1l-1,1l-1,1l-1,1l-3,4v2l1,5l-12,11l-7,12l-1,23v1l-1,2l-5,8v6l-8,9l-13,9l-9,12l1,9l-4,11l-1,4l-5,9l2,7l-16,13v14l-5,10l3,4l1,1l1,3v2l-1,5l-2,8v4l-4,24l-3,4l1,7l7,3l-7,10l5,6l-6,20l-6,5l-1,23l-3,3l2,6l-3,4l-2,10l4,3h1v2l2,10l-2,3l2,9l-9,11l2,14l5,5l-7,6l1,4l-4,6l-13,3l-5,5l2,4l1,9l-2,9l-6,5l-1,14l5,20l6,7l3,3l9,6l1,7l5,9l-16,-1h-19l-32,-2h-15l-53,-2l-8,-1h-1l-27,-1h-14l-7,-1h-23l-3,-1l-32,-1l-4,-23l3,-13h1l2,-37l2,-52l2,-40l4,-70v-19l2,-46v-9l1,-6v-3l-1,-1l1,-2v-1l1,-2v-4h-1v-1l-1,-2v-1l-1,-1l1,-1v-1h-1v-1l-1,-2l-1,-1l-1,-1h-1v-1h-1v-1l-3,-1v-1h-1v-1h-3l-1,1l-1,-1l2,-2v-1l-1,-1l1,-1v-5l-1,-3h-1v-1v1h-1l1,-2v-1l-1,-4h-1l-1,1h-1l-1,-1h-3l-1,1v-1h-2l-1,1l-1,-1h-1v1l-1,1l-1,-1v-1h-1l-1,1h-2l-2,1l1,1l-1,2l-1,1h1v3l-1,2l-1,1h-1v2h-1v2l1,1l-1,5h-1v2l-2,1h-1v-1l-6,-5l-2,-2l1,-7v-4l1,-2l1,-2l-3,-7l6,-13l1,-5v-2l9,-13l2,-3v-8l1,-1l1,-2l1,-3l2,-4l-3,-9l-1,-1l-3,-2l-5,-11l7,-9l-3,-5l2,-8l-6,-11l-4,-12l1,-13l-2,-5l2,-19l-9,-9l2,-14l6,-14l-1,-9l4,-5l5,-20l7,-7l6,-12h1l4,-2l4,-8v-1l1,-3l-4,-12v-13l-3,-10v-6l6,-7l7,-20l-4,-26l-4,-6v-5l-7,-10l-2,-2h-1l-1,-1l-1,-2l-1,-1l-1,-1v-2l-2,-2l-1,-4v-7l-1,-1v-2l-1,-2l-1,-1l3,-10l2,-9h1l1,-13v-19l10,-18v-8l-12,-13v-1l-1,-6l2,-4v-1l5,-17l4,-4l2,-22l-5,-7l3,-11l22,-1h144Z"/>
<g class="geos"><path data-name="Franklin" class="geo-011" d="M92,25h157l8,1h3l18,2h1l5,35l-1,15l2,23l-14,21l-10,-8l-25,5l-14,2l-3,8h-3l-1,11h-4l-4,20l-16,-8l-15,27l-7,-1v5l-19,-3l-17,-6l-23,-13l-4,-1l-26,-14l-7,-13l-2,-12l7,-12l9,-6l1,-17l3,-9v-8l-10,-5l-4,-13l5,-7Z"/><path data-name="Orange" class="geo-017" d="M334,362l18,9l15,-2l27,-2l14,6l22,8l1,1l-1,4v4h1l1,1v1l1,1h-1v1h-2l-1,1l-3,5l3,6h1l4,-2l-2,10l-12,15l1,4l-5,3h-1v3l1,3l-1,-2l-3,1l-1,5v1l-2,13l5,-1v6l-1,1l-1,1l-1,1l-3,4v7l-15,14l1,8l-5,1l-2,20l2,3v1l-1,2l-5,7v7l-29,-13l-31,-9l-51,-21l-23,-9l-15,-6l-24,-8l1,-6l-4,-1v-7l15,-28l18,7l14,-31h2l10,-23l2,-7l7,3l2,-4l25,10l9,4l7,-38Z"/><path data-name="Essex" class="geo-009" d="M471,28l27,-2h41l2,-1h56l-6,4l-4,-3l-10,6v1l-1,3l1,3l1,1l3,3v1l2,1l1,3l-1,2v3l-1,2v1l1,1v1l1,2v1l4,4l2,2v3h-1l-4,6l-2,2l-1,2l-1,1l-7,6v1l-2,6h1v3l-6,7v1l-1,2l1,2v7l-5,4l-8,11l-3,1v4l1,2v3l2,2v2l1,1l4,9l2,1l-1,2l1,2v3l1,1l1,1h2l-1,2l1,3l-2,1l4,2v2h3l1,1l1,3l-1,1l4,3v1l1,2v1l-2,7l-2,1l2,1v1l-1,2h1l2,-1v1h2v4l-2,2l-2,-1l1,3l-1,2l-2,2h-10v6l4,2v9l-3,2v1l2,1l2,5l-5,1l-2,6l-7,4l-2,1l-3,2l-6,12l-3,2l-1,1l-1,2l-1,1l-2,3h-2l-6,4l-6,1l-1,2l-8,-2l-4,3h-2l-2,1l-1,1l-1,1v1l1,1v1l-3,1h-1l-1,1v6l1,4l-2,1l-3,1l-1,1h-2l-28,-38l10,-6l13,-17l-16,-21l19,-26l-20,-15l22,-29l-30,-22l-11,-6l14,-20l2,-1l13,-17l-15,-13l7,-39Z"/><path data-name="Rutland" class="geo-021" d="M53,600h-1l-1,1h-1l-1,-1h-3l-1,1v-1h-2l-1,1l-1,-1h-1v1l-1,1l-1,-1v-1h-1l-1,1h-2l-2,1l1,1l-1,2l-1,1h1v3l-1,2l-1,1h-1v2h-1v2l1,1l-1,5h-1v2l-2,1h-1v-1l-6,-5l-2,-2l1,-7v-4l1,-2l1,-2l-3,-7l6,-13l1,-5v-2l9,-13l2,-3v-8l1,-1l1,-2l14,-2l33,-3l-3,-30l18,-1l7,-2l31,-1l4,18l17,-9l22,-10l3,-3l1,8l10,4l2,-4l10,4l5,11l-11,23l4,2l-5,11l36,14l-17,40l-5,-2l-5,40l6,1l-1,6l14,3v5l-3,15l-6,17l-1,11l-19,-10l-10,3v10h-3l-1,20l-32,-2v5h-5v-6l-17,-1h-23l-11,-2l-28,-1v-19l2,-46v-9l1,-6v-3l-1,-1l1,-2v-1l1,-2v-4h-1v-1l-1,-2v-1l-1,-1l1,-1v-1h-1v-1l-1,-2l-1,-1l-1,-1h-1v-1h-1v-1l-3,-1v-1h-1v-1h-3l-1,1l-1,-1l2,-2v-1l-1,-1l1,-1v-5l-1,-3h-1v-1v1h-1l1,-2v-1Z"/><path data-name="Lamoille" class="geo-015" d="M271,122l25,14l23,11l-8,14l-11,23l3,1l30,16l-2,3l-17,33l-18,34l-19,-15l-12,-7l-16,32l-28,-16l-17,-6l-10,-3l11,-19l-8,-5l6,-13l-6,-1l-15,-21l-9,-13l-4,-1v-5l7,1l15,-27l16,8l4,-20h4l1,-11h3l3,-8l14,-2l25,-5Z"/><path data-name="Caledonia" class="geo-005" d="M460,127l30,22l-22,29l20,15l-19,26l16,21l-13,17l-10,6l28,38l-2,3h-1l-1,1h-1l-10,-1l-5,-3l-4,2l-3,4l-5,-1h-9l-2,1v1l-5,4l-1,1h-7l-1,1v5l-3,5h-1v2h-2l-1,1l-3,6v2h2v3l1,5l1,1l1,1l-2,13h-1l1,2l-1,4h-1v1l-1,2v1l1,1l1,1l1,2v1l1,1l1,2l1,2v1h1v2l-22,-8l-14,-6l-27,2l-15,2l-18,-9l15,-28v-10l14,-20l15,-27l-1,-5h-3l2,-2l-28,-14l-34,-19l17,-33l34,17l12,-23l7,-13l14,-30l18,8l-8,-27l30,21Z"/><path data-name="Bennington" class="geo-003" d="M67,730l28,1l11,2h23l17,1v6h5v-5l32,2h15v18l-9,-3l-1,24h-4l-1,38l-25,-1l-14,-2l-4,79l26,1l-1,43l-2,35l-27,-1h-14l-7,-1h-23l-3,-1l-32,-1l-4,-23l3,-13h1l2,-37l2,-52l2,-40Z"/><path data-name="Grand Isle" class="geo-013" d="M77,25h15l-10,19l-5,7l4,13l10,5v8l-3,9l-1,17l-9,6l-7,12l2,12l7,13v14l-2,16l-5,3l-2,5l1,10l-6,8l-12,6l-14,4l-1,-1l-1,-1v-2l-2,-2l-1,-4v-7l-1,-1v-2l-1,-2l-1,-1l3,-10l2,-9h1l1,-13v-19l10,-18v-8l-12,-13v-1l-1,-6l2,-4v-1l5,-17l4,-4l2,-22l-5,-7l3,-11l22,-1Z"/><path data-name="Chittenden" class="geo-007" d="M80,146l26,14l4,1l23,13l17,6l19,3l4,1l9,13l15,21l6,1l-6,13l8,5l-11,19l10,3l-10,20l10,5l-7,13l-8,-1l-17,34l5,2l-17,47l-5,-33l-1,-22l-14,-4l1,8l-12,2l-9,-1l-5,2l-17,2l-10,2l-16,2h-11l-8,-2l1,-3l-4,-12v-13l-3,-10v-6l6,-7l7,-20l-4,-26l-4,-6v-5l-7,-10l-2,-2h-1l-1,-1l-1,-2l14,-4l12,-6l6,-8l-1,-10l2,-5l5,-3l2,-16Z"/><path data-name="Windsor" class="geo-027" d="M157,518l-6,-23l8,3l23,-11l1,14l2,3l15,-31h2l5,-11v7l4,1l-1,6l24,8l15,6l23,9l51,21l31,9l29,13l-3,1l-6,9l-12,5l-10,17l2,7l-4,11l-1,4l-5,9l2,7l-6,6l-10,5v15l-4,5v8l2,2l1,1l1,3v2l-1,5l-2,8v4l-4,24l-3,2v8l7,3l-6,10l5,7l-3,10l-6,13l-4,3l1,8l-38,-1l-8,2l-31,4l-39,-14v-18h-15l1,-20h3v-10l10,-3l19,10l1,-11l6,-17l3,-15v-5l-14,-3l1,-6l-6,-1l5,-40l5,2l17,-40l-36,-14l5,-11l-4,-2l11,-23l-5,-11l-10,-4l-2,4l-10,-4l-1,-8l-3,3Z"/><path data-name="Washington" class="geo-023" d="M314,237l34,19l28,14l-2,2h3l1,5l-15,27l-14,20v10l-15,28l-16,-7l-7,38l-9,-4l-25,-10l-2,4l-7,-3l-2,7l-10,23h-2l-14,31l-18,-7l-26,-10l-20,-9l-6,1l-5,-38l-5,1l17,-47l-5,-2l17,-34l8,1l7,-13l-10,-5l10,-20l17,6l28,16l16,-32l12,7l19,15Z"/><path data-name="Addison" class="geo-001" d="M31,365l7,-7l6,-12h1l4,-2l4,-8v-1l8,2h11l16,-2l10,-2l17,-2l5,-2l9,1l12,-2l-1,-8l14,4l1,22l5,33l5,-1l5,38l6,-1l20,9l26,10l-15,28l-5,11h-2l-15,31l-2,-3l-1,-14l-23,11l-8,-3l6,23l-17,9l-4,-18l-31,1l-7,2l-18,1l3,30l-33,3l-14,2l1,-3l2,-4l-3,-9l-1,-1l-3,-2l-5,-11l7,-9l-3,-5l2,-8l-6,-11l-4,-12l1,-13l-2,-5l2,-19l-9,-9l2,-14l6,-14l-1,-9l4,-5l5,-20Z"/><path data-name="Windham" class="geo-025" d="M198,755l39,14l31,-4l8,-2l38,1l-1,14l-4,3v23h3v2l2,10l-2,2l2,9l-10,12l2,5l-1,7l7,7l-6,3v8l-22,12l2,4v12l-1,7l-7,6l-1,13l2,4l2,14l2,2l6,7l3,3l-3,6l8,-4l5,6v5l5,9l-16,-1h-19l-32,-2h-15l-5,-1h-22l-34,-2h-1l2,-35l1,-43l-26,-1l4,-79l14,2l25,1l1,-38h4l1,-24Z"/><path data-name="Orleans" class="geo-019" d="M390,29h44l5,-1h32l-1,3l-7,39l15,13l-13,17l-2,1l-14,20l11,6l-22,30l-30,-21l8,27l-18,-8l-14,30l-7,13l-12,23l-34,-17l2,-3l-30,-16l-3,-1l11,-23l8,-14l-23,-11l-25,-14l14,-21l-2,-23l1,-15l-5,-35h33l7,1h22l7,1h15l24,-1Z"/></g>
  <path class="counties-mesh" d="M383,542l-29,-13l-31,-9l-51,-21l-23,-9l-15,-6l-24,-8l1,-6l-4,-1v-7l15,-28l18,7l14,-31h2l10,-23l2,-7l7,3l2,-4l25,10l9,4l7,-38l16,7l18,9l15,-2l27,-2l14,6l22,8M490,301l-28,-38l10,-6l13,-17l-16,-21l19,-26l-20,-15l22,-29l-30,-22l-11,-6l14,-20l2,-1l13,-17l-15,-13l7,-39l1,-3M36,548l14,-2l33,-3l-3,-30l18,-1l7,-2l31,-1l4,18l17,-9l22,-10l3,-3l1,8l10,4l2,-4l10,4l5,11l-11,23l4,2l-5,11l36,14l-17,40l-5,-2l-5,40l6,1l-1,6l14,3v5l-3,15l-6,17l-1,11l-19,-10l-10,3v10h-3l-1,20l-32,-2v5h-5v-6l-17,-1h-23l-11,-2l-28,-1M271,122l-10,-8l-25,5l-14,2l-3,8h-3l-1,11h-4l-4,20l-16,-8l-15,27l-7,-1v5l-19,-3l-17,-6l-23,-13l-4,-1l-26,-14l-7,-13l-2,-12l7,-12l9,-6l1,-17l3,-9v-8l-10,-5l-4,-13l5,-7l10,-19M334,362l15,-28v-10l14,-20l15,-27l-1,-5h-3l2,-2l-28,-14l-34,-19M331,204l34,17l12,-23l7,-13l14,-30l18,8l-8,-27l30,21l22,-30M183,737h15v18l-9,-3l-1,24h-4l-1,38l-25,-1l-14,-2l-4,79l26,1l-1,43l-2,35M80,146v14l-2,16l-5,3l-2,5l1,10l-6,8l-12,6l-14,4M204,259l-10,20l10,5l-7,13l-8,-1l-17,34l5,2l-17,47l-5,-33l-1,-22l-14,-4l1,8l-12,2l-9,-1l-5,2l-17,2l-10,2l-16,2h-11l-8,-2M157,518l-6,-23l8,3l23,-11l1,14l2,3l15,-31h2l5,-11M314,764l-38,-1l-8,2l-31,4l-39,-14M222,434l-26,-10l-20,-9l-6,1l-5,-38l-5,1M279,28l5,35l-1,15l2,23l-14,21l25,14l23,11l-8,14l-11,23l3,1l30,16l-2,3l-17,33l-18,34l-19,-15l-12,-7l-16,32l-28,-16l-17,-6l-10,-3l11,-19l-8,-5l6,-13l-6,-1l-15,-21l-9,-13l-4,-1"/>
<g class="districts"><path data-name="Congressional District (at Large)" class="district-5000" d="M31,365l7,-7l6,-12h1l4,-2l4,-8v-1l1,-3l-4,-12v-13l-3,-10v-6l6,-7l7,-20l-4,-26l-4,-6v-5l-7,-10l-2,-2h-1l-1,-1l-1,-2l-1,-1l-1,-1v-2l-2,-2l-1,-4v-7l-1,-1v-2l-1,-2l-1,-1l3,-10l2,-9h1l1,-13v-19l10,-18v-8l-12,-13v-1l-1,-6l2,-4v-1l5,-17l4,-4l2,-22l-5,-7l3,-11l22,-1h180l8,1h3l18,2h34l7,1h22l7,1h15l24,-1h47l5,-1h32l27,-2h41l2,-1h56l-6,4l-4,-3l-10,6v1l-1,3l1,3l1,1l3,3v1l2,1l1,3l-1,2v3l-1,2v1l1,1v1l1,2v1l4,4l2,2v3h-1l-4,6l-2,2l-1,2l-1,1l-7,6v1l-2,6h1v3l-6,7v1l-1,2l1,2v7l-5,4l-8,11l-3,1v4l1,2v3l2,2v2l1,1l4,9l2,1l-1,2l1,2v3l1,1l1,1h2l-1,2l1,3l-2,1l4,2v2h3l1,1l1,3l-1,1l4,3v1l1,2v1l-2,7l-2,1l2,1v1l-1,2h1l2,-1v1h2v4l-2,2l-2,-1l1,3l-1,2l-2,2h-10v6l4,2v9l-3,2v1l2,1l2,5l-5,1l-2,6l-7,4l-2,1l-3,2l-6,12l-3,2l-1,1l-1,2l-1,1l-2,3h-2l-6,4l-6,1l-1,2l-8,-2l-4,3h-2l-2,1l-1,1l-1,1v1l1,1v1l-3,1h-1l-1,1v6l1,4l-2,1l-3,1l-1,1h-2l-2,3h-1l-1,1h-1l-10,-1l-5,-3l-4,2l-3,4l-5,-1h-9l-2,1v1l-5,4l-1,1h-7l-1,1v5l-3,5h-1v2h-2l-1,1l-3,6v2h2v3l1,5l1,1l1,1l-2,13h-1l1,2l-1,4h-1v1l-1,2v1l1,1l1,1l1,2v1l1,1l1,2l1,2v1h1v2h2l-1,1l-1,4v4h1l1,1v1l1,1h-1v1h-2l-1,1l-3,5l3,6h1l4,-2l-2,10l-12,15l1,4l-5,3h-1v3l1,3l-1,-2l-3,1l-1,5v1l-2,13l5,-1v6l-1,1l-1,1l-1,1l-3,4v7l-15,14l1,8l-5,1l-2,20l2,3v1l-1,2l-5,7v7l-3,1l-6,9l-12,5l-10,17l2,7l-4,11l-1,4l-5,9l2,7l-6,6l-10,5v15l-4,5v8l2,2l1,1l1,3v2l-1,5l-2,8v4l-4,24l-3,2v8l7,3l-6,10l5,7l-3,10l-6,13l-4,3l1,8l-1,14l-4,3v23h3v2l2,10l-2,2l2,9l-10,12l2,5l-1,7l7,7l-6,3v8l-22,12l2,4v12l-1,7l-7,6l-1,13l2,4l2,14l2,2l6,7l3,3l-3,6l8,-4l5,6v5l5,9l-16,-1h-19l-32,-2h-15l-5,-1h-22l-34,-2h-1l-27,-1h-14l-7,-1h-23l-3,-1l-32,-1l-4,-23l3,-13h1l2,-37l2,-52l2,-40l4,-70v-19l2,-46v-9l1,-6v-3l-1,-1l1,-2v-1l1,-2v-4h-1v-1l-1,-2v-1l-1,-1l1,-1v-1h-1v-1l-1,-2l-1,-1l-1,-1h-1v-1h-1v-1l-3,-1v-1h-1v-1h-3l-1,1l-1,-1l2,-2v-1l-1,-1l1,-1v-5l-1,-3h-1v-1v1h-1l1,-2v-1l-1,-4h-1l-1,1h-1l-1,-1h-3l-1,1v-1h-2l-1,1l-1,-1h-1v1l-1,1l-1,-1v-1h-1l-1,1h-2l-2,1l1,1l-1,2l-1,1h1v3l-1,2l-1,1h-1v2h-1v2l1,1l-1,5h-1v2l-2,1h-1v-1l-6,-5l-2,-2l1,-7v-4l1,-2l1,-2l-3,-7l6,-13l1,-5v-2l9,-13l2,-3v-8l1,-1l1,-2l1,-3l2,-4l-3,-9l-1,-1l-3,-2l-5,-11l7,-9l-3,-5l2,-8l-6,-11l-4,-12l1,-13l-2,-5l2,-19l-9,-9l2,-14l6,-14l-1,-9l4,-5l5,-20Z"/></g>

</svg>