<?xml version="1.0" encoding="utf-8"?>
<!DOCTYPE svg PUBLIC "-//W3C//DTD SVG 1.1//EN" "http://www.w3.org/Graphics/SVG/1.1/DTD/svg11.dtd">
<svg version="1.1" xmlns="http://www.w3.org/2000/svg" width="1000" height="658" viewBox="0 0 1000 658">
  <path class="state" d="M276,130l-3,-2l3,-6l-6,-9l12,-3l-1,4l4,6l2,-6l2,6l6,1v-20l3,2l4,-8l-6,-7v-16l-2,-4l-1,-1l-2,-2l-9,1l-5,9l-2,-5l2,-4l-3,-6l-4,3v-12l-9,-6l6,-8l-10,-2l4,-7l7,3l-2,-7h5l5,1h63l2,1h31l4,1h209l2,-1h73l4,-1h55l4,-1h18l2,-1h40l5,-1h14l20,-1h7l11,-1h25l13,-1l10,-1h27l7,-1l13,-1l2,62v22l2,20v23l1,1v28l1,14l1,10l1,38l2,19v18l2,17l1,38l2,20l2,58l2,20v19l1,31l-1,14l4,2l9,15v9l4,5v7l-3,6h-1l1,4l5,6l1,8h-7l-8,1h-26l-3,1h-24l-1,1h-18l-11,1h-9l-26,1h-7l-5,1h-35l-4,1h-45v1h-21l-1,1h-4l-1,2h-1l-1,1l-2,2l-5,2l-4,3l-3,2h-2l-7,1h-2l-2,-1h-3l-1,-1h-1l-5,1h-1l-1,1l-4,1l-1,1h-10l-1,1l-6,1h-4l-5,-3l-1,1h-2l-3,3l-3,5l-2,4h-1l-12,2l-12,2h-1l-3,1h-1l-11,3h-1l-9,6l-11,3h-1l-2,4l-3,3l-8,1l-15,4h-6l-4,1l-9,-8h-13l-1,1l-3,3l-4,2l-10,3l-10,7l-2,1l-1,1l-1,-1l-2,-1l-3,-2l-3,2h-12l-2,1l-1,1l-4,3l-1,2h-5l-2,-2v-6l-2,-2l-10,-4l-1,-2l-6,-1h-3l-5,2l-4,-1l-2,-1l-7,-4l-10,2l-6,1l-9,2h-4l-8,-2l-3,1l-6,3l-1,2h-1l-1,3h-1l-1,1v1h-3l-1,1l-10,4l-4,2l-7,3l-15,7h-8l-2,-1l-1,-1l-1,-1l-1,-1l-5,-1h-8l-4,-2l-23,-7l-1,-1h-1l-2,-2l-6,-4l-2,-3l2,-10v-7l-3,-6v-10l-2,-6l-1,-5l1,-5l-1,-2l-7,-13l-1,-5v-1l-7,-6l-8,-7l-3,-2h-1l-1,-2l-7,-4l-2,-2h-6l-5,2l-6,3l-9,-2l-10,-10v-4l-7,-6l-10,2l-14,-1l-4,-9l-3,4l-11,3l-8,5l-7,-4l-4,-8h-9l-4,6l4,-23v-44l5,10l-1,15l1,23l7,2v-6l6,-6l-4,-6l7,-14l-8,-10l5,-8v-4l8,-5l4,2l-2,-5l-15,-3l-5,3l-11,-5v-17l-4,-12l6,1l1,10l6,-10l6,-4l14,-2l5,-4l-11,-4h-10v-5l-6,-6l-11,1l2,15l-6,4l1,-7v-22l-2,-18l-3,-18l-6,-4l-1,-7l-4,-3l-2,-30l-6,-38l-6,-5l-1,-8l-7,-4l-2,-6l-5,-2l-3,-3l-4,-17l-3,-24l-3,-9l5,-4l-1,-8l6,-10v-7l-4,-1l-3,-8h9l3,3l7,1l3,4l18,12l15,4l17,9v3l8,5l20,5l24,-1l4,4l10,-1l4,3l11,3h22l6,-5h8l7,7l1,10l6,7l-3,-11l11,-3v6l7,4l4,7l1,-7l-6,-6v-6l5,-4l9,-1v5l-4,6l3,7l5,3v6l5,5v7l8,7l-2,3h-8l1,7l-8,4l-1,10l-3,4l1,6l-7,1l3,-5l3,-17l-2,-7l-2,10l-6,4l-5,16v6l-10,6v1l-7,9l-2,9l-7,7l-6,20l7,-1l9,1l7,-5l8,-3l7,-8l-11,7l-9,3l-3,5l-9,-3l3,-14l7,-8l1,-4l12,-13l1,-5l10,-2l11,-8v-8l8,-13l12,-10v-10l7,1l2,5l1,17l4,7h-10l-5,10l-3,-3v10l2,3l-1,10l-6,-2l-2,-9l-4,-1l-1,7l3,6l3,-3l5,5l-9,5l10,-3l7,-7l1,12l5,1l-4,8l-3,12l1,7l-4,9l3,6l-4,5l-12,-7l2,-10l6,-5v-5h-1l-1,4l-12,7l-4,13l5,3v6l-4,1l-2,8l-7,-13l6,-11l-2,-11l-3,-8v11l-2,5l-10,5l-2,14h-16l-2,-2l-1,2l19,1l-3,5l-7,3l-1,6l-7,4l9,-4v-4l6,-1l3,-5l2,4l-9,9l-1,5l7,-4l5,8l-1,-15l7,-4l3,7v-7l4,1l1,6l11,5l13,-14l3,-11l5,-9l-3,-5l13,10v4l3,-5v-9l12,-5l-1,-10l-2,-1l-3,-8l1,-6l-4,-4l-2,-12h7l3,-4l-12,-10l8,-11l-3,-10l8,-14v-1l4,-15l10,-5v-7h4l-3,-5l-3,2l-7,-4l-7,-11l-1,-10l2,-2l-5,-8l-7,-1v6l-3,4l3,7l9,9l2,6l-13,-14l-5,-1l-3,-9l1,-12h7v-3l8,4l3,-9l-13,-13l-5,-1v-4l-5,-6l-7,4ZM282,132l-1,7l7,4l5,6l-3,4l-8,-4l-8,4l1,6l-10,2l1,3l11,-1l5,6l5,21v10l4,-4l-1,-10h3l7,10l7,1l3,15l-10,7l-2,-10l-5,-4l-7,3v-5l-6,-4l-1,-24l-8,-3l-10,-8v-5l5,-10l8,-11v-7ZM297,309l4,4l-10,9h-4l1,-22l5,-10l3,10ZM286,257l4,-2l1,20l-4,4l-2,-5l-4,2l-1,-13l3,-2v-7ZM282,105l-6,3l1,-10ZM270,331l8,8l-1,3ZM273,75l8,10l-3,2l-9,-12v-5ZM267,339l5,6l-11,-1ZM271,97l3,5l-6,4l-2,-5l2,-6ZM269,186l3,13l-8,-2l1,-10l3,11ZM268,351l-2,5l-7,-3l5,-6ZM248,75l14,8l2,4l-7,4h-4l-4,-6v-7l-4,1l1,7l6,8l-10,2l-2,-6l-8,3l2,-7ZM258,98l4,6l-5,4l-2,-7ZM250,103l2,20l3,-5l2,9l-16,-7l3,-16ZM244,330v8l3,8l-4,5l-1,-6l-4,-6v-9ZM239,96l6,5l-7,3l-2,-6ZM218,90l5,1v4l10,6l5,9l-6,3l4,7l-9,-2l-11,-10l-1,-10h3ZM235,73v6l-4,2l-4,-4ZM230,23h3l2,5h-8ZM175,522l9,9l-7,-2l-6,-5ZM105,467l4,4v10l-7,-7Z"/>
<g class="geos"><path data-name="Wahkiakum" class="geo-069" d="M134,503l1,-17l45,2h18l-1,38l-6,3l-9,-2l-10,-10v-4l-7,-6l-10,2l-14,-1l-4,-9ZM175,522l9,9l-7,-2l-6,-5Z"/><path data-name="Lewis" class="geo-041" d="M181,415l26,1l-1,5h21l18,2l49,1h29l3,2l14,1h14l9,4h6l4,-7l4,-3h37l1,3l2,5l6,2l4,3l-8,7l4,7l-5,10l1,6l-5,2l2,11l3,2l2,13h-15l-26,-1h-63l-28,-1h-28l-23,-1l-40,-1h-18v-70Z"/><path data-name="Jefferson" class="geo-031" d="M241,190l7,4l4,7l1,-7l-6,-6v-6l5,-4l9,-1v5l-4,6l3,7l5,3v6l5,5v7l8,7l-2,3h-8l1,7l-8,4l-1,10l-3,4l1,6l-7,1l3,-5l3,-17l-2,-7l-2,10l-6,4l-5,16v6l-10,6v1l-33,-1h-30v15l-65,-3v-3l-37,-1l-6,-38l-6,-5l-1,-8l-7,-4l-2,-6l-5,-2h18l51,3h16l16,1l30,1v2l42,2l25,1v-36ZM269,186l3,13l-8,-2l1,-10l3,11Z"/><path data-name="Columbia" class="geo-013" d="M809,451h2l5,6l7,-1l2,-3l18,-4l7,2l5,-8l-1,19l1,9l15,-1l3,5v8l5,2v8h8l1,11v22l2,5l1,22h-3l-11,1h-9l-26,1l-1,-37l-15,1l-1,-16l-15,1l-1,-16v-27Z"/><path data-name="Kittitas" class="geo-037" d="M421,308l9,-10h2l7,-9l2,-1l3,-6l5,1l1,-5l6,-1l1,1l8,10l4,2l6,7l3,5l5,6l20,5l1,5l5,4l6,1h5l2,5l7,-2l4,3l11,8l36,-1l3,7l7,1l1,17l-4,3v9l3,3l2,11l4,6v16l5,6l-6,14l-19,1h-47v-16h-15v-15h-47l-8,-14l-15,-14l-7,-3l-10,3l-3,-3l-2,-9h11l1,-2l-2,-6v-5l-6,-3l4,-4l-1,-6l-11,-2v-8l-4,-7l5,-2Z"/><path data-name="Snohomish" class="geo-061" d="M305,163l-1,-4l3,-9l21,1h74l31,2h37v5l9,12l3,6l-8,3l2,7l-6,5l-12,3l-6,4l4,8l-4,2l-2,8v10l2,7l10,2l-6,9h-131l-4,-1h-18l8,-14v-1l4,-15l10,-5v-7h4l-3,-5l-3,2l-7,-4l-7,-11l-1,-10l2,-2Z"/><path data-name="Yakima" class="geo-077" d="M423,431l-6,-2l-2,-5l-1,-3v-5l-7,-10l1,-5l7,-5l1,-10l5,-3l3,-15l3,3l10,-3l7,3l15,14l8,14h47v15h15v16h47l19,-1l2,9l6,8l4,3v28l1,1v44h1v24l1,7l-3,1h-152l-1,-1h-49v-24l1,-2v-35h15l-2,-13l-3,-2l-2,-11l5,-2l-1,-6l5,-10l-4,-7l8,-7Z"/><path data-name="Okanogan" class="geo-047" d="M506,111l2,-8l-5,-4l-3,3l-4,-3v-6l4,-5l4,-1l2,-6l4,-4l-8,-11v-15l-4,-1l-1,-15l-7,1l-5,-3l4,-6h96l2,-1h73l4,-1h55l4,-1l1,18v31l1,13h-3v28l3,2v38l1,1v54l-14,4l-1,-4l4,-10l-8,-5l-2,-11l-3,-4l-11,-3l-14,9l-4,-2l-4,3l-1,8h-8l-4,-5h-9v4l-16,11l-5,-3l1,-13l-20,3l-5,5l4,5l-1,10l-21,1l-2,-1l-2,-8l-8,-5v-5l-10,-4l-7,-7l-5,1l-3,-5l1,-12l-13,-7l-6,-10l-5,2l-4,-4l2,-9l-10,-3l-3,-10l3,-15Z"/><path data-name="Spokane" class="geo-063" d="M895,188l34,-2h12l1,10l1,38l2,19v18l2,17l1,38l-14,1l-41,1l-1,1l-38,1l-1,-16v-28h-1v-31l-1,-1v-21l-1,-4l13,-4l5,-7l3,9l4,1l3,6l6,-1v-22h-1v-22Z"/><path data-name="Island" class="geo-029" d="M304,159l1,4l-7,-1v6l-3,4l3,7l9,9l2,6l-13,-14l-5,-1l-3,-9l1,-12h7v-3ZM282,132l-1,7l7,4l5,6l-3,4l-8,-4l-8,4l1,6l-10,2l1,3l11,-1l5,6l5,21v10l4,-4l-1,-10h3l7,10l7,1l3,15l-10,7l-2,-10l-5,-4l-7,3v-5l-6,-4l-1,-24l-8,-3l-10,-8v-5l5,-10l8,-11v-7Z"/><path data-name="Clallam" class="geo-009" d="M241,190h-3v36l-25,-1l-42,-2v-2l-30,-1l-16,-1h-16l-51,-3h-18l-3,-3l-4,-17l-3,-24l-3,-9l5,-4l-1,-8l6,-10v-7l-4,-1l-3,-8h9l3,3l7,1l3,4l18,12l15,4l17,9v3l8,5l20,5l24,-1l4,4l10,-1l4,3l11,3h22l6,-5h8l7,7l1,10l6,7l-3,-11l11,-3v6Z"/><path data-name="Stevens" class="geo-065" d="M799,22h3l20,-1h7l11,-1h25l13,-1l10,-1v14l-8,1l1,15h-7v17h-8l1,16l15,-1l1,13v22l2,21v28l1,9h8l1,15l-12,1v22h1v22l-6,1l-3,-6l-4,-1l-3,-9l-5,7l-13,4l-2,-2l-6,-1l-4,4l-8,-2l-2,5l-9,2l-4,-9l-11,-15l-6,1l-10,7l-2,-3v-11l-6,-10l5,-4l11,2l4,-4v-7l-3,-6l6,-1v-14l6,-5v-5l-5,-10v-8l-3,-4l-1,-12l3,-10h4l4,-27l-2,-4l-1,-16l-4,-1l-4,-8l-3,-10l2,-4l-3,-14Z"/><path data-name="Pend Oreille" class="geo-051" d="M888,18h27l7,-1l13,-1l2,62v22l2,20v23l1,1v28l1,14h-12l-34,2l-1,-15h-8l-1,-9v-28l-2,-21v-22l-1,-13l-15,1l-1,-16h8v-17h7l-1,-15l8,-1Z"/><path data-name="Whatcom" class="geo-073" d="M291,25h48l2,1h31l4,1h113l-4,6l5,3l7,-1l1,15l4,1v15l8,11l-4,4l-2,6l-4,1h-18v3h-72l-1,-1h-35l-46,-1l-32,-1v-16l-2,-4l-1,-1l-2,-2l-9,1l-5,9l-2,-5l2,-4l-3,-6l-4,3v-12l-9,-6l6,-8l-10,-2l4,-7l7,3l-2,-7h5l5,1h13ZM233,23l2,5h-8l3,-5ZM273,75l8,10l-3,2l-9,-12v-5Z"/><path data-name="Chelan" class="geo-007" d="M470,153l-8,-4l4,-5l-3,-11l3,-1l-2,-12l2,-3l10,-1v-5l15,-3l1,5l7,2l7,-4l6,-1l-3,15l3,10l10,3l-2,9l4,4l5,-2l6,10l13,7l-1,12l3,5l5,-1l7,7l10,4v5l8,5l2,8l2,1l21,-1l1,4l-6,6l1,6l-7,5l-4,12l-10,3l-8,-2l-8,6l3,10l-5,8v10l-8,10l-2,10l3,13l4,2l16,4l6,5l-1,13l-36,1l-11,-8l-4,-3l-7,2l-2,-5h-5l-6,-1l-5,-4l-1,-5l-20,-5l-5,-6l-3,-5l-6,-7l-4,-2l-8,-10l-1,-1l-2,-8l1,-8l7,-3l-1,-7l-5,-7l6,-9l-10,-2l-2,-7v-10l2,-8l4,-2l-4,-8l6,-4l12,-3l6,-5l-2,-7l8,-3l-3,-6l-9,-12Z"/><path data-name="Asotin" class="geo-003" d="M933,469l2,7l20,-2l-1,14l4,2l9,15v9l4,5v7l-3,6h-1l1,4l5,6l1,8h-7l-8,1h-26l-3,1h-24l-1,1l-1,-22h8l-2,-47l7,-3v-3h16Z"/><path data-name="Ferry" class="geo-019" d="M723,24h18l2,-1h40l5,-1h11l-3,1l3,14l-2,4l3,10l4,8l4,1l1,16l2,4l-4,27h-4l-3,10l1,12l3,4v8l5,10v5l-6,5v14l-6,1l3,6v7l-4,4l-11,-2l-5,4l6,10v11l2,3l-2,10l-5,2l-7,-4v-5l-10,1l1,-6l-4,-4l-11,1l-5,-2l-2,7l-13,-3l-4,-7v-54l-1,-1v-38l-3,-2v-28h3l-1,-13v-31Z"/><path data-name="Douglas" class="geo-017" d="M605,211l1,-10l-4,-5l5,-5l20,-3l-1,13l5,3l16,-11v-4h9l4,5h8l1,-8l4,-3l4,2l14,-9l11,3l3,4l2,11l8,5l-4,10h-14l-3,9l-10,5v16h-2l-3,10l-5,3v10l-5,11h-7l-5,7h-3l-5,8h-3v15l-40,1v6l-5,3l-8,13h-3v18l-7,-1l-3,-7l1,-13l-6,-5l-16,-4l-4,-2l-3,-13l2,-10l8,-10v-10l5,-8l-3,-10l8,-6l8,2l10,-3l4,-12l7,-5l-1,-6l6,-6Z"/><path data-name="Benton" class="geo-005" d="M659,439l5,5v6l17,16l2,8v22l1,2l-1,12l6,6l12,3l10,5l10,11l2,8v9l-4,7l-1,2h-1l-1,1l-2,2l-5,2l-4,3l-3,2h-2l-7,1h-2l-2,-1h-3l-1,-1h-1l-5,1h-1l-1,1l-4,1l-1,1h-10l-1,1l-6,1h-4l-5,-3l-1,1h-2l-3,3l-3,5l-2,4h-1l-12,2l-12,2v-37l-1,-7v-24h-1v-44l-1,-1v-28h7l12,-4l10,1l7,-4l7,-11h3Z"/><path data-name="Garfield" class="geo-023" d="M855,443l9,-3l2,-9l9,-3l7,5l15,-1l5,-4l2,6l8,2v7l5,5h5l6,5l4,8l1,8v9h-16v3l-7,3l2,47h-8l1,22h-15l-1,-22l-2,-5v-22l-1,-11h-8v-8l-5,-2v-8l-3,-5l-15,1l-1,-9Z"/><path data-name="King" class="geo-033" d="M303,243h18l4,1h131l5,7l1,7l-7,3l-1,8l2,8l-6,1l-1,5l-5,-1l-3,6l-2,1l-7,9h-2l-9,10l-2,6l-5,2l4,7v8l11,2l1,6l-4,4l6,3v5l2,6l-1,2h-11l2,9h-9l-5,-6l-12,-1l-4,-5h-12l-9,-4l-3,4l-15,-1l-18,-7l-4,-12h-24l-10,-12l12,-5l-1,-10l-2,-1l-3,-8l1,-6l-4,-4l-2,-12h7l3,-4l-12,-10l8,-11ZM297,309l4,4l-10,9h-4l1,-22l5,-10l3,10Z"/><path data-name="Pacific" class="geo-049" d="M92,412l41,2h17l31,1l-1,3v70l-45,-2l-1,17l-11,3l-8,5l-7,-4l-4,-8h-9l-4,6l4,-23v-44l5,10l-1,15l1,23l7,2v-6l6,-6l-4,-6l7,-14l-8,-10l5,-8v-4l8,-5l4,2l-2,-5l-15,-3l-5,3l-11,-5ZM105,467l4,4v10l-7,-7Z"/><path data-name="Klickitat" class="geo-039" d="M610,553v37h-1l-3,1h-1l-11,3h-1l-8,5l-12,4h-1l-2,4l-3,3l-8,1l-15,4h-6l-4,1l-9,-8l-9,-2l-4,2l-1,1l-3,3l-4,2l-10,3l-10,7l-2,1l-1,1l-1,-1l-2,-1l-3,-2l-3,2h-12l-2,1l-1,1l-4,3l-1,2h-5l-2,-2v-6l-2,-2l-10,-4l-1,-2l-6,-1h-3l-5,2l-4,-1l-2,-1l-7,-4l-2,-9l-9,-3l-1,-14v-26l1,-5h60l1,1h152Z"/><path data-name="San Juan" class="geo-055" d="M248,75l14,8l2,4l-7,4h-4l-4,-6v-7l-4,1l1,7l6,8l-10,2l-2,-6l-8,3l2,-7ZM258,98l4,6l-5,4l-2,-7ZM250,103l2,20l3,-5l2,9l-16,-7l3,-16ZM239,96l6,5l-7,3l-2,-6ZM218,90l5,1v4l10,6l5,9l-6,3l4,7l-9,-2l-11,-10l-1,-10h3ZM235,73v6l-4,2l-4,-4Z"/><path data-name="Grays Harbor" class="geo-027" d="M67,279l37,1v3l65,3l-1,13v29l1,4v23l-1,8l35,1v12l5,4l-1,9v27l-26,-1l-31,-1h-17l-41,-2v-8l-4,-12l6,1l1,10l6,-10l6,-4l14,-2l5,-4l-11,-4h-10v-5l-6,-6l-11,1l2,15l-6,4l1,-7v-22l-2,-18l-3,-18l-6,-4l-1,-7l-4,-3l-2,-30Z"/><path data-name="Cowlitz" class="geo-015" d="M219,532h-1l-1,-2l-7,-4l-2,-2h-6l-5,2l1,-38l40,1l23,1h28l28,1v24l-1,2l-1,33l-3,-1l-5,6l-2,11h-7l-13,-5l-6,1l-2,5l-7,4l-11,-2l-4,5l-1,8l-6,3v-1l-2,-6l-1,-5l1,-5l-1,-2l-7,-13l-1,-5v-1l-7,-6l-8,-7Z"/><path data-name="Walla Walla" class="geo-071" d="M744,505l2,-11h6l6,-9l3,-17l8,-7l2,-4l9,-6l10,2l9,-5l10,3l-1,10v27l1,16l15,-1l1,16l15,-1l1,37h-7l-5,1h-35l-4,1h-45v1h-21l-1,1h-4l4,-7v-9l-2,-8l-10,-11l8,-8l14,-2l4,-6Z"/><path data-name="Grant" class="geo-025" d="M711,209l1,4v27l1,1v50l1,1v42l1,10v52l-12,1h-35v24l1,7v11h-10l-6,-8h-3l-7,11l-7,4l-10,-1l-12,4h-7l-4,-3l-6,-8l-2,-9l6,-14l-5,-6v-16l-4,-6l-2,-11l-3,-3v-9l4,-3l-1,-17v-18h3l8,-13l5,-3v-6l40,-1v-15h3l5,-8h3l5,-7h7l5,-11v-10l5,-3l3,-10h2v-16l10,-5l3,-9Z"/><path data-name="Adams" class="geo-001" d="M714,334h26l22,-1h22l17,-2h37l1,20v50l-8,17l-7,-1l-10,6l-4,1l-18,2h-18l-39,2h-66l-1,-7v-24h35l12,-1v-52Z"/><path data-name="Clark" class="geo-011" d="M248,594v-9l6,-3l1,-8l4,-5l11,2l7,-4l2,-5l6,-1l13,5h7l2,-11l5,-6l3,1v69h-1v22h-8l-2,-1l-1,-1l-1,-1l-1,-1l-5,-1h-8l-4,-2l-13,-5l-10,-2l-1,-1h-1l-2,-2l-6,-4l-2,-3l2,-10v-7Z"/><path data-name="Lincoln" class="geo-043" d="M788,219l10,-7l6,-1l11,15l4,9l9,-2l2,-5l8,2l4,-4l6,1l2,2l1,4v21l1,1v31h1v28l1,16l-16,1h-37l-17,2h-22l-22,1h-26v-42l-1,-1v-50l-1,-1v-27l14,-4l4,7l13,3l2,-7l5,2l11,-1l4,4l-1,6l10,-1v5l7,4l5,-2Z"/><path data-name="Kitsap" class="geo-035" d="M283,309h-9l-21,-1l1,-20l-27,-1l12,-13l1,-5l10,-2l11,-8v-8l8,-13l12,-10v-10l7,1l2,5l1,17l4,7h-10l-5,10l-3,-3v10l2,3l-1,10l-6,-2l-2,-9l-4,-1l-1,7l3,6l3,-3l5,5l-9,5l10,-3l7,-7l1,12l5,1l-4,8ZM286,257l4,-2l1,20l-4,4l-2,-5l-4,2l-1,-13l3,-2v-7Z"/><path data-name="Whitman" class="geo-075" d="M838,331l16,-1l38,-1l1,-1l41,-1l14,-1l2,20l2,58l2,20v19l1,31l-20,2l-2,-7l-1,-8l-4,-8l-6,-5h-5l-5,-5v-7l-8,-2l-2,-6l-5,4l-15,1l-7,-5l-9,3l-2,9l-9,3l-5,8l-7,-2l-18,4l-2,3l-7,1l-5,-6l2,-6l-4,-4l-2,-17h3l4,-1l10,-6l7,1l8,-17v-50Z"/><path data-name="Mason" class="geo-045" d="M218,362v1l-15,1l-35,-1l1,-8v-23l-1,-4v-29l1,-13v-15h30l33,1l-7,9l-2,9l-7,7l-6,20l7,-1l9,1l7,-5l8,-3l7,-8l-11,7l-9,3l-3,5l-9,-3l3,-14l7,-8l1,-4l27,1l-1,20v8l-3,-8v11l-2,5l-10,5l-2,14h-16l-2,-2l-1,2l19,1l-3,5l-7,3l-1,6l-7,4ZM244,330v8l3,8l-4,5l-1,-6l-4,-6v-9Z"/><path data-name="Skagit" class="geo-057" d="M277,130h-1l-3,-2l3,-6l-6,-9l12,-3l-1,4l4,6l2,-6l2,6l6,1v-20l3,2l4,-8l-6,-7l32,1l46,1h35l1,1h72v-3h18l-4,5v6l4,3l3,-3l5,4l-2,8l-7,4l-7,-2l-1,-5l-15,3v5l-10,1l-2,3l2,12l-3,1l3,11l-4,5l8,4h-37l-31,-2h-74l-21,-1l-13,-13l-5,-1v-4l-5,-6l-7,4ZM282,105l-6,3l1,-10ZM271,97l3,5l-6,4l-2,-5l2,-6Z"/><path data-name="Pierce" class="geo-053" d="M253,316v-8l21,1l-1,4l-12,7l-4,13l5,3v6l-4,1l-2,8l-7,-13l6,-11l-2,-11ZM275,309h8l1,7l-4,9l3,6l-4,5l-12,-7l2,-10l6,-5ZM299,324l10,12h24l4,12l18,7l15,1l3,-4l9,4h12l4,5l12,1l5,6h9l-3,15l-5,3l-1,10l-7,5l-1,5l7,10v5h-37l-4,3l-4,7h-6l-9,-4h-14l-14,-1l-3,-2l-10,-2l-2,-10l-15,-4l-7,-4l-1,-7l-8,-4l-1,-6h-4l-8,-9v-5l-4,-4l2,-6l13,-14l3,-11l5,-9l-3,-5l13,10v4l3,-5v-9ZM270,331l8,8l-1,3ZM267,339l5,6l-11,-1ZM268,351l-2,5l-7,-3l5,-6Z"/><path data-name="Thurston" class="geo-067" d="M203,376v-12l15,-1v-1l9,-4v-4l6,-1l3,-5l2,4l-9,9l-1,5l7,-4l5,8l-1,-15l7,-4l3,7v-7l4,1l1,6l11,5l-2,6l4,4v5l8,9h4l1,6l8,4l1,7l7,4l15,4l2,10l10,2h-29l-49,-1l-18,-2h-21l1,-5v-27l1,-9Z"/><path data-name="Franklin" class="geo-021" d="M659,439h10v-11h66l39,-2h18l18,-2h-3l2,17l4,4l-2,6h-2l-10,-3l-9,5l-10,-2l-9,6l-2,4l-8,7l-3,17l-6,9h-6l-2,11l-7,3l-4,6l-14,2l-8,8l-10,-5l-12,-3l-6,-6l1,-12l-1,-2v-22l-2,-8l-17,-16v-6Z"/><path data-name="Skamania" class="geo-059" d="M315,550l1,-33l1,-2v-24h63l26,1v35l-1,2v24h-11l-1,5v26l1,14l9,3l2,9l-10,2l-6,1l-9,2h-4l-8,-2l-3,1l-6,3l-1,2h-1l-1,3h-1l-1,1v1h-3l-1,1l-10,4l-4,2l-7,3l-7,1l-8,5v-21h1v-35Z"/></g>
  <path class="counties-mesh" d="M134,503l1,-17l45,2h18l-1,38M610,590v-37l-3,1h-152l-1,-1h-49v-24l1,-2v-35l-26,-1h-63l-28,-1h-28l-23,-1l-40,-1M232,272l-33,-1h-30v15l-65,-3v-3l-37,-1M40,216h18l51,3h16l16,1l30,1v2l42,2l25,1v-36h3M811,451l5,6l7,-1l2,-3l18,-4l7,2l5,-8l-1,19l1,9l15,-1l3,5v8l5,2v8h8l1,11v22l2,5l1,22M841,555l-1,-37l-15,1l-1,-16l-15,1l-1,-16v-27l1,-10M218,362v1l-15,1v12l5,4l-1,9v27M500,88l4,-1l2,-6l4,-4l-8,-11v-15l-4,-1l-1,-15l-7,1l-5,-3l4,-6M456,277l1,1l8,10l4,2l6,7l3,5l5,6l20,5l1,5l5,4l6,1h5l2,5l7,-2l4,3l11,8l36,-1M305,163l-1,-4M307,150l21,1h74l31,2h37v5l9,12l3,6l-8,3l2,7l-6,5l-12,3l-6,4l4,8l-4,2l-2,8v10l2,7l10,2l-6,9h-131l-4,-1h-18M595,429l2,9l6,8l4,3v28l1,1v44h1v24l1,7M948,326l-14,1l-41,1l-1,1l-38,1l-1,-16v-28h-1v-31l-1,-1v-21l-1,-4l13,-4l5,-7l3,9l4,1l3,6l6,-1v-22h-1v-22l12,-1l34,-2h12M888,18v14l-8,1l1,15h-7v17h-8l1,16l15,-1l1,13v22l2,21v28l1,9h8l1,15M323,424l3,2l14,1h14l9,4h6l4,-7l4,-3h37v-5l-7,-10l1,-5l7,-5l1,-10l5,-3l3,-15l-2,-9h11l1,-2l-2,-6v-5l-6,-3l4,-4l-1,-6l-11,-2v-8l-4,-7l5,-2l2,-6l9,-10h2l7,-9l2,-1l3,-6l5,1l1,-5l6,-1l-2,-8l1,-8l7,-3l-1,-7l-5,-7M850,229l-2,-2l-6,-1l-4,4l-8,-2l-2,5l-9,2l-4,-9l-11,-15l-6,1l-10,7l-2,-3v-11l-6,-10l5,-4l11,2l4,-4v-7l-3,-6l6,-1v-14l6,-5v-5l-5,-10v-8l-3,-4l-1,-12l3,-10h4l4,-27l-2,-4l-1,-16l-4,-1l-4,-8l-3,-10l2,-4l-3,-14l3,-1M712,213l-1,-4l4,-10l-8,-5l-2,-11l-3,-4l-11,-3l-14,9l-4,-2l-4,3l-1,8h-8l-4,-5h-9v4l-16,11l-5,-3l1,-13l-20,3l-5,5l4,5l-1,10l-21,1l-2,-1l-2,-8l-8,-5v-5l-10,-4l-7,-7l-5,1l-3,-5l1,-12l-13,-7l-6,-10l-5,2l-4,-4l2,-9l-10,-3l-3,-10l3,-15l-6,1l2,-8l-5,-4l-3,3l-4,-3v-6l4,-5h-18v3h-72l-1,-1h-35l-46,-1l-32,-1M905,553l-1,-22h8l-2,-47l7,-3v-3h16v-9l2,7l20,-2M788,219l-2,10l-5,2l-7,-4v-5l-10,1l1,-6l-4,-4l-11,1l-5,-2l-2,7l-13,-3l-4,-7M711,209h-14l-3,9l-10,5v16h-2l-3,10l-5,3v10l-5,11h-7l-5,7h-3l-5,8h-3v15l-40,1v6l-5,3l-8,13h-3v18M607,449h7l12,-4l10,1l7,-4l7,-11h3l6,8l5,5v6l17,16l2,8v22l1,2l-1,12l6,6l12,3l10,5l10,11l2,8v9l-4,7M855,443l9,-3l2,-9l9,-3l7,5l15,-1l5,-4l2,6l8,2v7l5,5h5l6,5l4,8l1,8M605,211l1,4l-6,6l1,6l-7,5l-4,12l-10,3l-8,-2l-8,6l3,10l-5,8v10l-8,10l-2,10l3,13l4,2l16,4l6,5l-1,13l3,7l7,1l1,17l-4,3v9l3,3l2,11l4,6v16l5,6l-6,14l-19,1h-47v-16h-15v-15h-47l-8,-14l-15,-14l-7,-3l-10,3l-3,-3h-9l-5,-6l-12,-1l-4,-5h-12l-9,-4l-3,4l-15,-1l-18,-7l-4,-12h-24l-10,-12M405,610l-2,-9l-9,-3l-1,-14v-26l1,-5h11M169,286l-1,13v29l1,4v23l-1,8l35,1M317,491v24l-1,2l-1,33l-3,-1l-5,6l-2,11h-7l-13,-5l-6,1l-2,5l-7,4l-11,-2l-4,5l-1,8l-6,3M714,334l1,10v52l-12,1h-35v24l1,7v11h-10M711,524l8,-8l14,-2l4,-6l7,-3l2,-11h6l6,-9l3,-17l8,-7l2,-4l9,-6l10,2l9,-5l10,3h2l2,-6l-4,-4l-2,-17h3l-18,2h-18l-39,2h-66M315,550v69h-1v21M854,330l-16,1M283,309h-8M274,309l-21,-1l1,-20l-27,-1M253,308v8M414,421l1,3l2,5l6,2l4,3l-8,7l4,7l-5,10l1,6l-5,2l2,11l3,2l2,13h-15M92,412l41,2h17l31,1l26,1l-1,5h21l18,2l49,1h29l-10,-2l-2,-10l-15,-4l-7,-4l-1,-7l-8,-4l-1,-6h-4l-8,-9v-5l-4,-4l2,-6M723,24l1,18v31l1,13h-3v28l3,2v38l1,1v54l-14,4v27l1,1v50l1,1v42h26l22,-1h22l17,-2h37l1,20v50l-8,17l-7,-1l-10,6l-4,1M180,488v-70l1,-3M470,153l-8,-4l4,-5l-3,-11l3,-1l-2,-12l2,-3l10,-1v-5l15,-3l1,5l7,2l7,-4"/>
<g class="districts"><path data-name="Congressional District 1" class="district-5301" d="M233,23l2,5h-8l3,-5ZM268,24h3l5,1h63l2,1h31l4,1h113l-4,6l5,3l7,-1l1,15l4,1v15l8,11l-4,4l-2,6l-4,1l-4,5v6l4,3l3,-3l5,4l-2,8l-7,4l-7,-2l-1,-5l-15,3v5l-10,1l-2,3l2,12l-3,1l3,11l-4,5l8,4v5l9,12l3,6l-8,3l2,7l-6,5l-12,3l-6,4l4,8l-4,2l-2,8v10l2,7l10,2l-6,9l5,7l1,7l-7,3l-1,8l2,8l-6,1l-1,5l-5,-1l-3,6l-2,1l-7,9h-2l-9,10l-8,5l-12,-2l-9,-7h-5l-3,-7h-5l-3,-8l-7,-5l-19,-8v-7l-8,-3l-2,4l-3,-3l-3,3v-6l-9,3l-1,9l-6,-3l1,-7l4,-3l-4,-7l-1,-9v-4h3v-4l5,-1l-2,-13h3l4,-7l-2,-10h6l2,-4v-1l1,-3v-31l-9,4l-5,-12h9l-5,-10l-4,-5l4,-1l-2,-8l-6,-4l-4,2h-6l-1,-5l3,-6l4,-7l7,-2l3,1v-22l2,-5v-3l-10,-5v-5l-12,-7l-3,-5l-1,-3h-10l2,7l-1,-1l-2,-2l-9,1l-5,9l-2,-5l2,-4l-3,-6l-4,3v-12l-9,-6l6,-8l-10,-2l4,-7l7,3l-2,-7ZM273,75l8,10l-3,2l-9,-12v-5Z"/><path data-name="Congressional District 2" class="district-5302" d="M294,68l-2,-7h10l1,3l3,5l12,7v5l10,5v3l-2,5v22l-3,-1l-7,2l-4,7l-3,6l1,5h6l4,-2l6,4l2,8l-4,1l4,5l5,10h-9l5,12l9,-4v31l-1,3v1l-2,4h-6l2,10l-4,7h-3l2,13l-5,1v4h-9l-1,-10l2,-2l-2,-3l4,-15l10,-5v-7h4l-3,-5l-3,2l-7,-4l-7,-11l-1,-10l2,-2l-5,-8l-7,-1v6l-3,4l3,7l9,9l2,6l-13,-14l-5,-1l-3,-9l1,-12h7v-3l8,4l3,-9l-13,-13l-5,-1v-4l-5,-6l-7,4h-1l-3,-2l3,-6l-6,-9l12,-3l-1,4l4,6l2,-6l2,6l6,1v-20l3,2l4,-8l-6,-7v-16l-2,-4ZM282,132l-1,7l7,4l5,6l-3,4l-8,-4l-8,4l1,6l-10,2l1,3l11,-1l5,6l5,21v10l4,-4l-1,-10h3l7,10l7,1l3,15l-10,7l-2,-10l-5,-4l-7,3v-5l-6,-4l-1,-24l-8,-3l-10,-8v-5l5,-10l8,-11v-7ZM282,105l-6,3l1,-10ZM271,97l3,5l-6,4l-2,-5l2,-6ZM248,75l14,8l2,4l-7,4h-4l-4,-6v-7l-4,1l1,7l6,8l-10,2l-2,-6l-8,3l2,-7ZM258,98l4,6l-5,4l-2,-7ZM250,103l2,20l3,-5l2,9l-16,-7l3,-16ZM239,96l6,5l-7,3l-2,-6ZM218,90l5,1v4l10,6l5,9l-6,3l4,7l-9,-2l-11,-10l-1,-10h3ZM235,73v6l-4,2l-4,-4Z"/><path data-name="Congressional District 3" class="district-5303" d="M92,412l41,2h17l31,1l26,1v-6l19,5l7,-4l12,-5h7l11,-4l3,4l9,3l5,-4v5l8,-1l1,-5l7,4l15,4l2,10l10,2l3,2l14,1h14l9,4h6l4,-7l4,-3h37l1,3l2,5l6,2l4,3l-8,7l4,7l-5,10l1,6l-5,2l2,11l3,2l2,13h-15v35l-1,2v24h49l1,1h152l3,-1v37h-1l-3,1h-1l-11,3h-1l-8,5l-12,4h-1l-2,4l-3,3l-8,1l-15,4h-6l-4,1l-9,-8l-9,-2l-4,2l-1,1l-3,3l-4,2l-10,3l-10,7l-2,1l-1,1l-1,-1l-2,-1l-3,-2l-3,2h-12l-2,1l-1,1l-4,3l-1,2h-5l-2,-2v-6l-2,-2l-10,-4l-1,-2l-6,-1h-3l-5,2l-4,-1l-2,-1l-7,-4l-10,2l-6,1l-9,2h-4l-8,-2l-3,1l-6,3l-1,2h-1l-1,3h-1l-1,1v1h-3l-1,1l-10,4l-4,2l-7,3l-7,1l-8,5v1h-8l-2,-1l-1,-1l-1,-1l-1,-1l-5,-1h-8l-4,-2l-13,-5l-10,-2l-1,-1h-1l-2,-2l-6,-4l-2,-3l2,-10v-7l-3,-6v-10l-2,-6l-1,-5l1,-5l-1,-2l-7,-13l-1,-5v-1l-7,-6l-8,-7l-3,-2h-1l-1,-2l-7,-4l-2,-2h-6l-5,2l-6,3l-9,-2l-10,-10v-4l-7,-6l-10,2l-14,-1l-4,-9l-3,4l-11,3l-8,5l-7,-4l-4,-8h-9l-4,6l4,-23v-44l5,10l-1,15l1,23l7,2v-6l6,-6l-4,-6l7,-14l-8,-10l5,-8v-4l8,-5l4,2l-2,-5l-15,-3l-5,3l-11,-5ZM175,522l9,9l-7,-2l-6,-5ZM105,467l4,4v10l-7,-7Z"/><path data-name="Congressional District 4" class="district-5304" d="M424,368l3,3l10,-3l7,3l15,14l8,14h47v15h15v16h47l19,-1l6,-14l-5,-6v-16l-4,-6l-2,-11l-3,-3v-9l4,-3l-1,-17l-7,-1l-3,-7l1,-13l-6,-5l-16,-4l-1,-8l-6,-7l2,-10l8,-10v-10l5,-8l-3,-10l8,-6l8,2l10,-3l4,-12l7,-5l-1,-6l6,-6l-1,-4l-21,1l-2,-1l-2,-8l-8,-5v-5l-10,-4l-7,-7l-5,1l-3,-5l1,-12l-13,-7l-6,-10l-5,2l-4,-4l2,-9l-10,-3l-3,-10l3,-15l-6,1l2,-8l-5,-4l-3,3l-4,-3v-6l4,-5l4,-1l2,-6l4,-4l-8,-11v-15l-4,-1l-1,-15l-7,1l-5,-3l4,-6h96l2,-1h73l4,-1h55l4,-1l1,18v31l1,13h-3v28l3,2v38l1,1v54l-14,4v27l1,1v50l1,1v42h26l22,-1h22l17,-2h37l1,20v50l-8,17l-7,-1l-10,6l-4,1h-3l2,17l4,4l-2,6h-2l-10,-3l-9,5l-10,-2l-9,6l-2,4l-8,7l-3,17l-6,9h-6l-2,11l2,7h22v8h3l1,26h-3l-5,5l1,6h-20v1h-21l-1,1h-4l-1,2h-1l-1,1l-2,2l-5,2l-4,3l-3,2h-2l-7,1h-2l-2,-1h-3l-1,-1h-1l-5,1h-1l-1,1l-4,1l-1,1h-10l-1,1l-6,1h-4l-5,-3l-1,1h-2l-3,3l-3,5l-2,4h-1l-12,2l-12,2v-37l-3,1h-152l-1,-1h-49v-24l1,-2v-35h15l-2,-13l-3,-2l-2,-11l5,-2l-1,-6l5,-10l-4,-7l8,-7l-4,-3l-6,-2l-2,-5l-1,-3v-5l-7,-10l1,-5l7,-5l1,-10l5,-3Z"/><path data-name="Congressional District 5" class="district-5305" d="M712,213l14,-4v-54l-1,-1v-38l-3,-2v-28h3l-1,-13v-31l-1,-18h18l2,-1h40l5,-1h14l20,-1h7l11,-1h25l13,-1l10,-1h27l7,-1l13,-1l2,62v22l2,20v23l1,1v28l1,14l1,10l1,38l2,19v18l2,17l1,38l2,20l2,58l2,20v19l1,31l-1,14l4,2l9,15v9l4,5v7l-3,6h-1l1,4l5,6l1,8h-7l-8,1h-26l-3,1h-24l-1,1h-18l-11,1h-9l-26,1h-7l-5,1h-35l-4,1h-25l-1,-6l5,-5h3l-1,-26h-3v-8h-22l-2,-7l2,-11h6l6,-9l3,-17l8,-7l2,-4l9,-6l10,2l9,-5l10,3h2l2,-6l-4,-4l-2,-17h3l4,-1l10,-6l7,1l8,-17v-50l-1,-20h-37l-17,2h-22l-22,1h-26v-42l-1,-1v-50l-1,-1Z"/><path data-name="Congressional District 6" class="district-5306" d="M296,334v4l1,2l-1,10l-8,-2v-10h-7l5,-9l-3,-5ZM218,341l-2,-1l-1,-4l-6,2l8,9l-1,13l2,3l-15,1v12l5,4l-1,9v27l-26,-1l-31,-1h-17l-41,-2v-8l-4,-12l6,1l1,10l6,-10l6,-4l14,-2l5,-4l-11,-4h-10v-5l-6,-6l-11,1l2,15l-6,4l1,-7v-22l-2,-18l-3,-18l-6,-4l-1,-7l-4,-3l-2,-30l-6,-38l-6,-5l-1,-8l-7,-4l-2,-6l-5,-2l-3,-3l-4,-17l-3,-24l-3,-9l5,-4l-1,-8l6,-10v-7l-4,-1l-3,-8h9l3,3l7,1l3,4l18,12l15,4l17,9v3l8,5l20,5l24,-1l4,4l10,-1l4,3l11,3h22l6,-5h8l7,7l1,10l6,7l-3,-11l11,-3v6l7,4l4,7l1,-7l-6,-6v-6l5,-4l9,-1v5l-4,6l3,7l5,3v6l5,5v7l8,7l-2,3h-8l1,7l-8,4l-1,10l-3,4l1,6l-7,1l3,-5l3,-17l-2,-7l-2,10l-6,4l-5,16v6l-10,6v1l-7,9l-2,9l-7,7l-6,20l7,-1l9,1l7,-5l8,-3l7,-8l-11,7l-9,3l-3,5l-9,-3l3,-14l7,-8l1,-4l12,-13l1,-5l10,-2l11,-8v-8l8,-13l12,-10v-10l7,1l2,5l1,17l4,7h-10l-5,10l-3,-3v10l2,3l-1,10l-6,-2l-2,-9l-4,-1l-1,7l3,6l3,-3l5,5l-9,5l10,-3l7,-7l1,12l5,1l-4,8l-3,12l1,7l-4,9l3,6l-4,5l-12,-7l2,-10l6,-5v-5h-1l-1,4l-12,7l-4,13l5,3v6l-4,1l-2,8l-7,-13l6,-11l-2,-11l-3,-8v11l-2,5l-10,5l-2,14h-16l-2,-2ZM286,257l4,-2l1,20l-4,4l-2,-5l-4,2l-1,-13l3,-2v-7ZM270,331l8,8l-1,3ZM269,186l3,13l-8,-2l1,-10l3,11ZM244,330v8l3,8l-4,5l-1,-6l-4,-6v-9Z"/><path data-name="Congressional District 7" class="district-5307" d="M311,228l2,3l-2,2l1,10h6v4l1,9l4,7l-4,3l-1,7h-7l1,11l-2,5l4,2l-3,7l-1,11h-1l-1,-1l-3,-8l1,-6l-4,-4l-2,-12h7l3,-4l-12,-10l8,-11l-3,-10l8,-14ZM297,309l4,4l-10,9h-4l1,-22l5,-10l3,10Z"/><path data-name="Congressional District 8" class="district-5308" d="M280,393l4,-11h13v-13l3,3h13l1,-13l3,-3l4,-1v-7l4,-1l-4,-11h-7l-4,3v-1h-1h1h-1v-2l7,-8l-1,-9l2,-5l2,5l6,-7l7,1l-1,-10l1,-4h1l2,-3l-2,-6h7l-2,-6v-11l2,-3l2,-4l8,3v7l19,8l7,5l3,8h5l3,7h5l9,7l12,2l8,-5l9,-10h2l7,-9l2,-1l3,-6l5,1l1,-5l6,-1l-2,-8l1,-8l7,-3l-1,-7l-5,-7l6,-9l-10,-2l-2,-7v-10l2,-8l4,-2l-4,-8l6,-4l12,-3l6,-5l-2,-7l8,-3l-3,-6l-9,-12v-5l-8,-4l4,-5l-3,-11l3,-1l-2,-12l2,-3l10,-1v-5l15,-3l1,5l7,2l7,-4l6,-1l-3,15l3,10l10,3l-2,9l4,4l5,-2l6,10l13,7l-1,12l3,5l5,-1l7,7l10,4v5l8,5l2,8l2,1l21,-1l1,4l-6,6l1,6l-7,5l-4,12l-10,3l-8,-2l-8,6l3,10l-5,8v10l-8,10l-2,10l6,7l1,8l16,4l6,5l-1,13l3,7l7,1l1,17l-4,3v9l3,3l2,11l4,6v16l5,6l-6,14l-19,1h-47v-16h-15v-15h-47l-8,-14l-15,-14l-7,-3l-10,3l-3,-3l-3,15l-5,3l-1,10l-7,5l-1,5l7,10v5h-37l-4,3l-4,7h-6l-9,-4h-14l-14,-1l-3,-2l-10,-2l-2,-10l-15,-4l-7,-4l-1,-7Z"/><path data-name="Congressional District 9" class="district-5309" d="M310,309l1,-11l3,-7l-4,-2l2,-5l-1,-11h7l6,3l1,-9l9,-3v6l3,-3l3,3l-2,3v11l2,6h-7l2,6l-2,3h-1l-1,4l1,10l-7,-1l-6,7l-2,-5l-2,5l1,9l-7,8v2h-2l-10,2l-1,-2l3,-5v-9l12,-5l-1,-10Z"/><path data-name="Congressional District 10" class="district-5310" d="M203,376v-12l15,-1l-2,-3l1,-13l-8,-9l6,-2l1,4l2,1l-1,2l19,1l-3,5l-7,3l-1,6l-7,4l9,-4v-4l6,-1l3,-5l2,4l-9,9l-1,5l7,-4l5,8l-1,-15l7,-4l3,7v-7l4,1l1,6l11,5l13,-14l3,-11h7v10l8,2l1,-10l10,-2h3h-1h1v1l4,-3h7l4,11l-4,1v7l-4,1l-3,3l-1,13h-13l-3,-3v13h-13l-4,11l8,4l1,7l-1,5l-8,1v-5l-5,4l-9,-3l-3,-4l-11,4h-7l-12,5l-7,4l-19,-5v-21l1,-9ZM267,339l5,6l-11,-1ZM268,351l-2,5l-7,-3l5,-6Z"/></g>
  <path class="districts-mesh" d="M318,243h3v-4l5,-1l-2,-13h3l4,-7l-2,-10h6l2,-4v-1l1,-3v-31l-9,4l-5,-12h9l-5,-10l-4,-5l4,-1l-2,-8l-6,-4l-4,2h-6l-1,-5l3,-6l4,-7l7,-2l3,1v-22l2,-5v-3l-10,-5v-5l-12,-7l-3,-5l-1,-3h-10l2,7M289,404l-1,-7l-8,-4l4,-11h13v-13l3,3h13l1,-13l3,-3l4,-1v-7l4,-1l-4,-11h-7l-4,3v-1h-1h1h-1v-2l7,-8l-1,-9l2,-5l2,5l6,-7l7,1l-1,-10l1,-4h1l2,-3l-2,-6h7l-2,-6v-11l2,-3l-3,-3l-3,3v-6l-9,3l-1,9l-6,-3l1,-7l4,-3l-4,-7l-1,-9v-4h-6l-1,-10l2,-2l-2,-3M92,412l41,2h17l31,1l26,1v-6l19,5l7,-4l12,-5h7l11,-4l3,4l9,3l5,-4v5l8,-1l1,-5l7,4l15,4l2,10l10,2l3,2l14,1h14l9,4h6l4,-7l4,-3h37l1,3l2,5l6,2l4,3l-8,7l4,7l-5,10l1,6l-5,2l2,11l3,2l2,13h-15v35l-1,2v24h49l1,1h152l3,-1v37M723,24l1,18v31l1,13h-3v28l3,2v38l1,1v54l-14,4v27l1,1v50l1,1v42h26l22,-1h22l17,-2h37l1,20v50l-8,17l-7,-1l-10,6l-4,1h-3l2,17l4,4l-2,6h-2l-10,-3l-9,5l-10,-2l-9,6l-2,4l-8,7l-3,17l-6,9h-6l-2,11l2,7h22v8h3l1,26h-3l-5,5l1,6M296,338l1,2l-1,10l-8,-2v-10h-7M218,341l-2,-1l-1,-4l-6,2l8,9l-1,13l2,3l-15,1v12l5,4l-1,9v21M318,273h-7l1,11l-2,5l4,2l-3,7l-1,11M489,27l-4,6l5,3l7,-1l1,15l4,1v15l8,11l-4,4l-2,6l-4,1l-4,5v6l4,3l3,-3l5,4l-2,8l-7,4l-7,-2l-1,-5l-15,3v5l-10,1l-2,3l2,12l-3,1l3,11l-4,5l8,4v5l9,12l3,6l-8,3l2,7l-6,5l-12,3l-6,4l4,8l-4,2l-2,8v10l2,7l10,2l-6,9l5,7l1,7l-7,3l-1,8l2,8l-6,1l-1,5l-5,-1l-3,6l-2,1l-7,9h-2l-9,10l-8,5l-12,-2l-9,-7h-5l-3,-7h-5l-3,-8l-7,-5l-19,-8v-7l-8,-3l-2,4M309,338h-2l-10,2M414,421v-5l-7,-10l1,-5l7,-5l1,-10l5,-3l3,-15l3,3l10,-3l7,3l15,14l8,14h47v15h15v16h47l19,-1l6,-14l-5,-6v-16l-4,-6l-2,-11l-3,-3v-9l4,-3l-1,-17l-7,-1l-3,-7l1,-13l-6,-5l-16,-4l-1,-8l-6,-7l2,-10l8,-10v-10l5,-8l-3,-10l8,-6l8,2l10,-3l4,-12l7,-5l-1,-6l6,-6l-1,-4l-21,1l-2,-1l-2,-8l-8,-5v-5l-10,-4l-7,-7l-5,1l-3,-5l1,-12l-13,-7l-6,-10l-5,2l-4,-4l2,-9l-10,-3l-3,-10l3,-15l-6,1"/>
</svg>