<?xml version="1.0" encoding="utf-8"?>
<!DOCTYPE svg PUBLIC "-//W3C//DTD SVG 1.1//EN" "http://www.w3.org/Graphics/SVG/1.1/DTD/svg11.dtd">
<svg version="1.1" xmlns="http://www.w3.org/2000/svg" width="1000" height="893" viewBox="0 0 1000 893">
  <path class="state" d="M440,24v86h-1v139h199l-1,14v113h1l1,1h1v-2h1l1,-1l1,1v-1h1l1,-1h1v-1h1l2,-5l2,-1l4,-6l5,-1l3,-3h1v-3h10l4,-8l2,-7l8,-2l3,-6l7,-3v-1l1,-1v-1h2v1l1,1l1,-1v-1l-1,-1l1,-1h1v-1l1,-2l2,1l1,-1h-1v-1h-1v-1h1l1,-1h1v-3h-1v-2h2v1l-1,-1v-2l1,-1v1l3,1h1l1,-1h1v-1h1v1h2l2,-2v1h1l4,3l1,1l8,5h3v-1l-1,-1v-1h1l-1,-2l1,-1l2,-1l1,-2l2,-2l3,-3v-1l1,-1v-1l2,-1l1,-3l3,-2l1,-2l3,-3l1,-2l1,-1h2l2,1l1,-2v-1l-2,-1v-4l1,-1h1v-2h2l1,-3v-1l-1,-2l1,-2l5,-2h1l-2,6h1l4,-1l3,3v1l-2,1l-1,-1l-4,1l-1,2h1l1,2l4,2l1,-1l1,-1h1l1,6h1l4,3h1l5,2l1,1l1,1h1l5,-1v-1l7,1v1l3,2l10,-1l9,3h1l1,-1l3,-6l-1,-1h-1h7l-6,-6v-5l6,2l4,-2l-6,-6h11l1,-4l3,-3l16,5l9,-15l6,-4l12,3l9,3l11,12l1,2v1l1,1v1h7v-1l1,-1h3l1,1l-1,3l1,2h2v-1l-1,-8l3,2l1,1l1,1h3l1,1h2l1,-1v-1l-2,-2h3v1h1l3,1h3l1,1l1,1v4l-1,4h-1l-1,1h-8l-1,1l3,3l1,1l1,1v4l1,1h4v-4h2l1,1v3l-1,1h-1l-1,1l-1,1v1l1,1l3,1h5l2,-1l1,-1h3v2l-3,1h-1l-1,1l-1,1v2h1v1h1l2,1l-1,1l-3,-1v1l1,1l1,1l1,1h-1v1h-2l-1,1v1l2,1l3,1h2l3,1l1,2l2,3l1,1v3h-3v3h1v2h1l-1,3l-2,1v1h-1v1l1,2h3v1h2l1,1l1,1v1l-2,1l-1,1l-1,2l-1,4h-1v2l-1,2v2h-1l-1,1l1,2l-1,2l-1,1l-1,2l-1,2l-1,2l-1,2v2l-3,7v2l-1,2l-1,1v4l-3,-3l-16,-13l-7,-5l-14,-11l-8,-6l-2,-1l-8,-7l-9,-7l-7,-6l-4,-3l-15,-11l-1,-1l-7,-6l-1,1l1,1v4l-1,1v1h1v2l-1,1l-1,1v2l1,2l1,2l-1,1h2l-1,1l-1,2v2h-1v1l-2,1l2,1l4,1v1l-1,1v1l-1,1l-1,2v1l-1,1h-1v2l-2,2l-1,1l-1,1v1l-1,1v1l-1,1h-1v1h-1l-2,4l-1,1h1l1,1h1l1,2v1l-1,1h1l-1,1l-2,4l-3,5h1v1h1l-1,1v1h1v1h1l1,1l1,1l1,1l-1,1l-1,1l-3,1l-1,4v1l-4,5h-1l-1,1l-1,1l-1,-1l-3,3l-1,1h-1l-1,1v1l-1,1v1l-1,1v1l-2,1h-1v2l-1,1l-1,1h-1l-3,5l1,1l2,1l1,1l-1,1l-1,2l-1,1l-3,3l-1,2l-1,3l-2,1v1l-2,-2v-1h-2l-1,-2l-1,1l-1,2v1h-1l-1,2l-2,3l-2,3l-2,3h-1l-2,2h-2l-1,2h-2v-1l1,-5v-1l-2,1l-2,1v1l-2,3l-1,1v1l-1,2l-3,1l-2,1l-1,3l-2,2l-6,13l-2,5l-2,4l-2,5l-6,-5l-16,-14l-3,-3l-1,1v3l-1,1v1l-2,2l-1,1v1l-1,1v2l-1,2h-3l-1,1v1l1,1v1l-2,3v1l-2,2l-1,2v1h-1v2l-1,3v1l-2,3l1,2l1,1v4l-1,1v3h-6l-1,1h-1v1l-1,3l-2,2v2l-1,3v1l-1,1v2l-1,3l-1,2v1l-1,1l-1,1v1l-1,2l-2,2l-1,1v2l-1,1l-1,4l1,2l-1,2l-1,1h-1v2l-1,1l-3,2v1l-1,3l-1,-1v2l-1,1l-1,2h-1l-2,1v3h-2l-1,1h-2l-1,1l-11,-3l-12,-5l-9,-3l-12,-23l-4,-2h-2l-5,-3h-1l-10,-4v1h-1v3h-1v1l1,2h-2v5h-1h1v1l-1,1v1h1v1l1,2h-1v2h-1v-1h-2v3l-1,1h-1v1h-1v1l1,2v1l-1,1h1v1l1,2v3h-1l1,1l-1,1v1l1,1l-1,1l-1,1h1h-1l-1,1l-1,1v2l-1,1h-1v1l-1,2l-1,1v2l-1,1l1,1v2l-1,1l-2,1h-1v-1h-2l-1,1l-1,2l1,1l-1,1v1h-2l-1,1h-1l-1,2l-1,2l-1,1h-1v1l2,3v1l2,2v1l1,1v2h-2l-1,1l-1,1l-1,-1l-1,1v2h-2l-1,1h-1v1h-2v1l-1,1v1l-1,1l-1,1l-2,1l-1,2l-2,1l-2,3l-3,2l-1,1v3h1v2h-1v2h-1v1l-1,2v1l-1,1h-2v1l1,1h-1l1,1v3h3l-1,2l-2,2l-2,2v1l-1,3v1l-1,1v2l-1,1l-1,2v3h-1l-1,3h-1l-1,2v1l-1,1v1h-1l-1,1l-1,1l-1,2h-1v1l-2,1l-1,1h-1v2l-1,1l-1,1h-1l-1,1h-1v1h-1l-1,2l-1,1l-1,1v1h-1v1h-1l-1,1v1h-1l-1,1v1h-1h1l-1,1h-1l-1,1v1l-1,1h-1v1h-1l-1,-1v1l-1,1l-1,1v2h-1l-1,1v1l-1,1h-1v3l1,1h-1l-1,1h-1l-1,1l-1,1l-1,2v1h-1l-1,1l-1,2l-1,1v2h1v2l1,-1v2h-3v1h-1l-1,1h-1v3h-1v1l-1,1l1,1l-1,1v2h1l1,1v1l-1,1h-1l-1,1v1h-1l-1,2l-1,1h-1l-2,1v1l4,6l10,10l-1,2l-2,2v1h-1l-1,1l-1,2l-2,1l-3,1l-4,2l-6,4l2,5v1h-2l4,3l6,-2l-4,7l-3,1l-2,2h-5l-3,2l1,2l-1,1h-1l-3,1l-5,4l-3,1l-4,3l-3,3h-4l-2,-2l-1,-3l1,-3l-4,-6v1h-4l-1,1h-2l-2,1l-4,2v1h-1l-1,1v1h-2l-4,3l-1,1h-1l-2,1v1h-1v1l-8,4l-5,3l-1,1h-1l-1,1h-1l-1,1h-2l-4,2l-2,-3l-1,-1v-2h-3l-1,-1h-1v-1l-1,-1l-3,-3l-3,-1h-2v-1h-1l-1,2l1,2l-5,7l3,4l4,5l-3,2l-1,1l-3,2l-3,3l-2,1l-2,1l-3,1l-1,1l-2,1l-3,1h-2l-1,-1v-2h-2l-9,3h-5l-6,1l-3,1l-7,3l-4,1l-7,5l-6,2l-1,-1l-3,-3l-11,-9l-1,-1l-4,-4v-1l-6,-7l-1,1v2h-1v2h-3v-1v1h-1v1h-1v3h-1l-1,1h1v1h-1v2h-1v1h-1v2h-1l-1,1h-1v-1h-1v1h-1v-1h-1v1l-2,1v1h-2v1h-2v1h-4v-2l-1,1v1l-1,1v3l-1,1h-1v1h-2v1h-1v1h-2l-2,2l-1,1l-12,1h-12l-1,-1v-2h-2v-1h-1v-1h-1v-1h-1l-1,-1v-1h-1v-1h-3l-1,-1v-2l1,-2h-1v-1h-1v-1h-1l-1,-1v-2h-1l-1,1l-1,-1h-1v-1h-3v-1h-3v1h-5l1,-1h-4v-1h-1l1,-2v-1h-1v-1h-1l-1,-1l1,-1v-1l-1,-1l-1,-1h-1v-1h-1l1,-1h-1l-1,1v-1h-1l-1,1v-1h-1h1v-1l-1,-1v-1h-2v-1h-2v-2h-1v-3h-1v-1h1v-1h-1v-2l1,-1l-1,-1h1v-5h1h-1l-1,-1v-1h-1v-3h1v-1l-1,-1v1l-1,-1v-1h-2v-1h-3v-1l-1,-1l-1,-1l-1,1h-1l1,-1h-1l-1,-1v-3l1,-1v-1h3v-1h2v-1h3v-2l1,-1h1v-1h2v-1l-5,-3v-2h-2v-2h1l-1,-1l-1,-1l-4,2l-1,1v-2h-1v2l-3,-1h-1l-1,1h-6l-3,-4h-5l-1,-1l-1,-1h-4v-1l-1,-1l-1,-1l2,-5h-5l-1,-7l-4,-2l1,-1l-7,2l-4,-9l-7,-1l-5,-4h-1v-1h1l-2,-6v-1l-1,-1v-2h-1v-3h-1l-1,-1v-2l1,-1v-1l2,-2h1l-1,-1h-2l-1,1v-1l1,-1v-1l-3,-3h-1l-1,-2h-2v-1l-3,-2l-4,-1l-1,-1l-1,-6l-2,-2v-2l1,-1l-1,-1v-5l-2,-2h-1v-1l-1,-3l-3,-2h-1v-1l-3,-2l-1,-1l-4,-1l2,-3v-1h1l3,-1l-2,-11h-3l-1,-1h-1l-1,-1l-1,-1v-2h-1v-2l-2,-9h-1l-1,-2v-1l-2,-2l-2,-1h-1l-1,-1v-4l-1,-1h-1l-1,-2l-2,-1h-1l-2,-2l-1,-2l-2,-4v-3l3,-2l1,1l2,-1l1,-3l1,-5h1v-3l-2,-1v-6h5l1,-10v-2l1,-4l-1,-6h-1l-2,-2v-7l1,-1l-1,-2l1,-4l-1,-3v-1l1,-1l1,1v1l2,1l1,1h4v1h2v-1h4l1,-1h1l1,-1l4,-1l6,-2l7,-2l5,1l13,-3l5,-13l3,-21l5,-3l9,2h2l2,-1l5,-4v-8l-3,-12l1,-9l-1,-3l-1,-5l-5,-3v-5l11,-7l5,-6l-1,-10l1,-4l5,-7l4,-7l1,-4l1,-1l3,-1l1,-1l2,-2h1v-1l2,-4l5,-3l6,7l1,2l9,2l6,15l-4,4v6l2,1l3,2l6,-4l1,-1l2,-3v-2l2,-6l1,-1h5l4,5l5,-4l-1,-1l-3,-4l3,-15l-8,-8v-8l8,2l3,-4l1,-1l1,-12l-2,-6l-1,-3l6,-6v-2l6,-2l1,-9l4,-4h11l9,2v-6l1,-5l1,-6l2,-3l9,-5l8,-9l9,3l6,14l2,-1h4l18,-11l6,1h1l2,-5l8,-9l8,-3l2,-3l4,-6l1,-1l9,-10l1,-1l2,-1l5,-5l1,-1l9,-8l1,-1l5,-3h5l2,-1h1l2,-8v-10l3,-1h2l2,-5h-1l-1,-3l-1,-2h-1l-3,-3v-5l8,-6v-13l1,-1h3v-1l2,-1l1,-1l-3,-13l9,2l-1,-11l5,-5v-15h1l-1,-8v-3l2,-2l4,-3l1,-14l4,-7h1l5,-16l7,-5l2,-9v-1l-2,-9l1,-7l-4,-5l2,-1h1v-9l1,-2h1v-1l1,-4l1,-1v-1l-4,-6v-1l-1,-2l-1,-2l-1,-5l-7,-10v-1l2,-4h1l4,-5l6,-2l4,4Z"/>
<g class="geos"><path data-name="Pocahontas" class="geo-075" d="M490,579l26,-21l18,3l32,-24l2,-18l3,-1l4,-15l4,-8l7,-2l4,5l-2,9l8,-1l4,4l3,-6l6,2l1,4v15l-4,4v1h-1v3h-1v1l1,2h-2v5h-1h1v1l-1,1v1h1v1l1,2h-1v2h-1v-1h-2v3l-1,1h-1v1h-1v1l1,2v1l-1,1h1v1l1,2v3h-1l1,1l-1,1v1l1,1l-1,1l-1,1h1h-1l-1,1l-1,1v2l-1,1h-1v1l-1,2l-1,1v2l-1,1l1,1v2l-1,1l-2,1h-1v-1h-2l-1,1l-1,2l1,1l-1,1v1h-2l-1,1h-1l-1,2l-1,2l-1,1h-1v1l2,3v1l2,2v1l1,1v2h-2l-1,1l-1,1l-1,-1l-1,1v2h-2l-1,1h-1v1h-2v1l-1,1v1l-1,1l-1,1l-2,1l-1,2l-2,1l-2,3l-3,2l-1,1v3h1v2h-1v2h-1v1l-1,2v1l-1,1h-2v1l1,1h-1l1,1v3h3l-1,2l-2,2l-2,2v1l-1,3v1l-29,2l-12,5l-4,-1l-15,-1l-19,-17l1,-7v-21l1,-29l4,2Z"/><path data-name="Putnam" class="geo-079" d="M141,554l-1,-34l20,-11l20,-3l16,-2l5,-1l10,15l-7,7l-5,1v17l4,4l2,10l-21,9l-14,8l-3,18l-15,13l-11,-7l1,-10l-1,-9Z"/><path data-name="Wetzel" class="geo-103" d="M378,254l2,-5h-1h79l3,1v12l2,8l-1,1l-7,-2v6l-8,4l-3,6v9l5,8l-5,9l-4,3l-1,6l-5,2l-14,-6l-10,-7l-9,1l-5,-10l-7,-5v-3l-14,-14l-6,5l-11,-6l5,-3h5l2,-1h1l2,-8v-10l3,-1Z"/><path data-name="Boone" class="geo-005" d="M159,643l3,-8l11,3l-2,-7l8,-2l3,-9l2,6l2,-6h5l1,-5l6,3v4l4,-3l17,-1v11h6l6,8l7,1v5l5,2l-4,9l5,4l5,-1l5,7l-1,8l2,4h-12l-8,10l-1,20l1,10l7,1l1,8l-5,1l-8,6l-6,-7l-7,-7v-3h-7l-6,5l-6,-5v-5l-6,-1l-1,-5l5,-5l-4,-11l-7,-3h-9l-12,-8h-7l-4,-4l9,-8h3l-10,-5Z"/><path data-name="Cabell" class="geo-011" d="M110,525l29,27l2,2v25l-10,2l-3,5l-11,1l-8,7v6l-7,3v5l-3,6l-9,-5v-9l6,-8l-6,-4l-7,6l-31,-26l1,-1l4,-1l6,-2l7,-2l5,1l13,-3l5,-13l3,-21l5,-3Z"/><path data-name="Marshall" class="geo-051" d="M398,171l27,4l14,1v73h-60l-1,-3l-1,-2h-1l-3,-3v-5l8,-6v-13l1,-1h3v-1l2,-1l1,-1l-3,-13l9,2l-1,-11l5,-5Z"/><path data-name="Jackson" class="geo-035" d="M200,440l-1,-1l-3,-4l3,-15l-8,-8v-8l8,2l3,-4v-1l33,18l8,5l1,7l-4,5l9,10l-5,4l1,24l-5,29v8l4,10l-9,9l-13,6l-11,-18l-10,-15l-5,1l-7,-10l4,-3l-10,-16l-10,-14l-2,-7l3,2l6,-4l1,-1l2,-3v-2l2,-6l1,-1h5l4,5Z"/><path data-name="Monongalia" class="geo-061" d="M554,249h29v6l-4,9l-2,11l-20,33l1,12l-9,-4l-6,-4l-34,-35h-29l-10,-1l-2,-5l-5,-1l-2,-8v-12l-3,-1h94Z"/><path data-name="Mineral" class="geo-057" d="M746,303v-1l1,-1v-1l2,-1l1,-3l3,-2l1,-2l3,-3l1,-2l1,-1h2l2,1l1,-2v-1l-2,-1v-4l1,-1h1v-2h2l1,-3v-1l-1,-2l1,-2l5,-2h1l-2,6h1l4,-1l3,3v1l-2,1l-1,-1l-4,1l-1,2h1l1,2l4,2l1,-1l1,-1h1l1,6h1l4,3h1l5,2l1,1l1,1l-6,8l-4,2l-3,7l-9,6l-4,12l-11,17l-7,1l-7,11l-8,7l-1,3l-31,-18l-19,-2l-6,-2l3,-6l7,-2l3,-7l7,-3v-1l1,-1v-1h2v1l1,1l1,-1v-1l-1,-1l1,-1h1v-1l1,-2l2,1l1,-1h-1v-1h-1v-1h1l1,-1h1v-3h-1v-2h2v1l-1,-1v-2l1,-1v1l3,1h1l1,-1h1v-1h1v1h2l2,-2v1h1l4,3l1,1l8,5h3v-1l-1,-1v-1h1l-1,-2l1,-1l2,-1l1,-2l2,-2Z"/><path data-name="Hancock" class="geo-029" d="M419,47l-7,-10v-1l2,-4h1l4,-5l6,-2l4,4l11,-5v57l-21,1l2,-1h1v-9l1,-2h1v-1l1,-4l1,-1v-1l-4,-6v-1l-1,-2l-1,-2Z"/><path data-name="Preston" class="geo-077" d="M583,249h55l-1,14v79h-1v37l-5,-6l-11,-4l-22,-9l-24,10l-7,-4v-4l-2,-6l-7,-3v-33l-1,-12l20,-33l2,-11l4,-9Z"/><path data-name="Hardy" class="geo-031" d="M734,367l16,10l18,6l11,5l10,1l6,5l7,1l4,-5l9,2l9,10v1l-1,1v1l-1,1v1l-2,1h-1v2l-1,1l-1,1h-1l-3,5l1,1l2,1l1,1l-1,1l-1,2l-1,1l-3,3l-1,2l-1,3l-2,1v1l-2,-2v-1h-2l-1,-2l-1,1l-1,2v1h-1l-1,2l-2,3l-2,3l-2,3h-1l-2,2h-2l-1,2h-2v-1l1,-5v-1l-2,1l-2,1v1l-2,3l-1,1v1l-1,2l-3,1l-2,1l-1,3l-2,2l-6,13l-2,5l-2,4l-2,5l-6,-5l-16,-14l-3,-3l-1,1v3l-1,1v1l-2,2l-1,1v1l-1,1v2l-1,2h-3l-1,1v1l1,1v1l-2,3l-15,-12l10,-14l-1,-7l8,-6v-4l-7,-15l-2,-10l7,-17l2,-2v-8l5,-7l4,-12Z"/><path data-name="Wood" class="geo-107" d="M242,339l9,-5l8,-9l9,3l6,14l2,-1l1,5h7l1,6l11,1l4,7h-4l-2,8l-4,5l-1,7l-16,10l-8,2l-14,13l-11,7l-5,7l-33,-18h1l1,-12l-2,-6l-1,-3l6,-6v-2l6,-2l1,-9l4,-4h11l9,2v-6l1,-5l1,-6Z"/><path data-name="Webster" class="geo-101" d="M451,492l1,3h11l7,-1l4,3l1,5l1,4l8,-3l9,20l10,22l-13,34l-16,13l-4,-2l-1,29l-16,-10l-15,-11l-18,-12l-9,-13l3,-3l-7,-20l5,-5v-1l28,-29Z"/><path data-name="Hampshire" class="geo-027" d="M794,293h1l5,-1v-1l7,1v1l4,3l9,-1l9,2h1l24,12l-1,1l1,1v4l-1,1v1h1v2l-1,1l-1,1v2l1,2l1,2l-1,1h2l-1,1l-1,2v2h-1v1l-2,1l2,1l4,1v1l-1,1v1l-1,1l-1,2v1l-1,1h-1v2l-2,2l-1,1l-1,1v1l-1,1v1l-1,1h-1v1h-1l-2,4l-1,1h1l1,1h1l1,2v1l-1,1h1l-1,1l-2,4l-3,5h1v1h1l-1,1v1h1v1h1l1,1l1,1l1,1l-1,1l-1,1l-3,1l-1,4v1l-4,5h-1l-1,1l-1,1l-1,-1l-3,3l-1,1h-1l-1,1l-9,-10l-9,-2l-4,5l-7,-1l-6,-5l-10,-1l-11,-5l-18,-6l-16,-10l1,-3l8,-7l7,-11l7,-1l11,-17l4,-12l9,-6l3,-7l4,-2Z"/><path data-name="McDowell" class="geo-047" d="M209,792l14,2l2,5h10l3,3l13,-1l7,8l9,-3l2,5l12,5l-10,21l-1,1v2h-1v2h-3v-1v1h-1v1h-1v3h-1l-1,1h1v1h-1v2h-1v1h-1v2h-1l-1,1h-1v-1h-1v1h-1v-1h-1v1l-2,1v1h-2v1h-2v1h-4v-2l-1,1v1l-1,1v3l-1,1h-1v1h-2v1h-1v1h-2l-2,2l-1,1l-12,1h-12l-1,-1v-2h-2v-1h-1v-1h-1v-1h-1l-1,-1v-1h-1v-1h-3l-1,-1v-2l1,-2h-1v-1h-1v-1h-1l-1,-1v-2h-1l-1,1l-1,-1h-1v-1h-3v-1h-3v1h-5l1,-1h-4v-1h-1l1,-2v-1h-1v-1h-1l-1,-1l1,-1v-1l-1,-1l-1,-1h-1v-1h-1l1,-1h-1l-1,1v-1h-1l-1,1v-1h-1h1v-1l-1,-1v-1h-2v-1h-2v-2h-1v-3h-1v-1h1v-1h-1v-2l1,-1l-1,-1h1v-5h1h-1l-1,-1v-1h-1v-3h1v-1l-1,-1v1l-1,-1v-1h-2v-1h-3v-1l-1,-1l-1,-1l-1,1h-1l1,-1h-1l-1,-1v-3l1,-1v-1h3v-1h2v-1h3v-2l1,-1h1v-1h2l8,-4l7,-6l6,6l-1,4l7,2l9,-1l8,3Z"/><path data-name="Harrison" class="geo-033" d="M434,322l5,-2l1,-6l4,-3l43,10l13,9l-1,5v24l8,8l-12,17l-1,16l-4,2l-9,-1l-31,-8l-1,-2h-13l-5,-3l-5,-3l-2,1l1,-3l6,1l6,-9l-5,-1l1,-3l-7,-7l2,-7l-5,-2l4,-6l9,-10l-2,-2Z"/><path data-name="Barbour" class="geo-001" d="M558,353l7,3l2,6v4l7,4l-3,9l-2,17l2,3l1,2l-5,3l-9,31l-36,5l2,-5l5,-1l-1,-16h-15l-7,-12l-9,-3l-3,-3l1,-16l12,-17l9,1l17,-1l14,-8l1,-5l8,2Z"/><path data-name="Tucker" class="geo-093" d="M571,399l-2,-3l2,-17l3,-9l24,-10l22,9l11,4l5,6l4,4l6,-4h9l2,-3l13,-2l4,6l-8,10v8l-4,8l5,3l6,-1l-4,9l1,6l-5,12h-3l-18,-2h-11l-39,-10l-12,-5l-2,-13Z"/><path data-name="Clay" class="geo-015" d="M329,523l10,-14l11,10l1,9l3,-2l8,9l-1,5l6,3l1,6l10,3l2,4l-18,16l-21,13l-5,1l-21,14l-16,9l-3,-28l-6,-24l17,-14l13,-9Z"/><path data-name="Logan" class="geo-045" d="M162,665l-9,8l4,4h7l12,8h9l7,3l4,11l-5,5l1,5l6,1v5l6,5l6,-5h7v3l7,7l-5,2l-12,1v2l-13,4l12,12l-7,4l-9,2l-4,4l-9,-1l-3,-4l-9,4l-1,-4l-14,4l-8,-1l-3,-10l-8,1l-1,-10l-5,-2l3,-12l-5,-2l-3,-9l4,-4l-1,-11l-6,-2v-4l-7,-8l2,-4l26,-9l7,-2Z"/><path data-name="Pleasants" class="geo-073" d="M324,313h6l12,-2l2,12l1,17l-6,1l-1,4h-10l-7,5h-16l-5,10l-4,-7l-11,-1l-1,-6h-7l-1,-5h4l18,-11l6,1h1l2,-5l8,-9l8,-3Z"/><path data-name="Fayette" class="geo-019" d="M270,681l10,-53l7,-3l12,-16l8,3l1,4h11l10,10l8,-8l3,6l2,-4h7l5,6l1,11l10,5l2,6l-2,6l5,6l6,1l1,6l6,1l2,9l4,1l-9,9l13,21l-12,-1l-27,12l-4,-3h-17l1,-6l-5,-6l-30,-1l-14,-3l1,-13l-7,-3l-2,-5Z"/><path data-name="Jefferson" class="geo-037" d="M947,313l3,-5l1,-2v-1l1,-1l1,-4h5l2,-1l1,-1h3v2l-3,1h-1l-1,1l-1,1v2h1v1h1l2,1l-1,1l-3,-1v1l1,1l1,1l1,1h-1v1h-2l-1,1v1l2,1l3,1h2l3,1l1,2l2,3l1,1v3h-3v3h1v2h1l-1,3l-2,1v1h-1v1l1,2h3v1h2l1,1l1,1v1l-2,1l-1,1l-1,2l-1,4h-1v2l-1,2v2h-1l-1,1l1,2l-1,2l-1,1l-1,2l-1,2l-1,2l-1,2v2l-3,7v2l-1,2l-1,1v4l-3,-3l-16,-13l-7,-5l-14,-11l15,-27Z"/><path data-name="Mercer" class="geo-055" d="M281,816l4,2l-3,-11l7,-3l2,-6l8,-3l4,-6l1,-10l12,-6l8,3l13,11l33,29l-1,2l1,2l-5,7l3,4l4,5l-3,2l-1,1l-3,2l-3,3l-2,1l-2,1l-3,1l-1,1l-2,1l-3,1h-2l-1,-1v-2h-2l-9,3h-5l-6,1l-3,1l-7,3l-4,1l-7,5l-6,2l-1,-1l-3,-3l-11,-9l-1,-1l-4,-4v-1l-6,-7Z"/><path data-name="Wyoming" class="geo-109" d="M186,756l4,-4l9,-2l7,-4l-12,-12l13,-4v-2l12,-1l5,-2l6,7l8,-6l5,-1l11,2l5,8l18,33l4,10v6l5,3l10,4l3,4l-8,3l-2,6l-7,3l3,11l-4,-2l-12,-5l-2,-5l-9,3l-7,-8l-13,1l-3,-3h-10l-2,-5l-14,-2l-5,5l-8,-3l-9,1l-7,-2l1,-4l-6,-6l5,-5l2,-10l4,-1Z"/><path data-name="Braxton" class="geo-007" d="M422,451l2,8l8,1v3l6,-1l9,6l-2,9l5,2l1,6v7l-11,23l-28,29v1l-12,-4l-7,4l-6,-9l-19,13l-1,-6l-6,-3l1,-5l-8,-9l-3,2l-1,-9l-11,-10l9,-12l22,-15l24,-19l16,-9l5,2Z"/><path data-name="Roane" class="geo-087" d="M293,447l6,8l-1,8h4l1,16l10,12l1,22l9,5l3,-2l3,7l-9,11l-13,9l-5,-1l-10,3l-7,-4l-26,-4l-5,1l-6,-7l-4,-10l-4,-10v-8l5,-29l-1,-24l5,-4l3,-2l6,-4l19,12Z"/><path data-name="Grant" class="geo-023" d="M734,367l-3,4l-4,12l-5,7v8l-2,2l-7,17l2,10l7,15v4l-8,6l1,7l-10,14l-25,-22l-7,-5l-9,-9l-2,-2h3l5,-12l-1,-6l4,-9l-6,1l-5,-3l4,-8v-8l8,-10l-4,-6l-13,2l-2,3h-9l-6,4l-4,-4v-3h2l1,1h1v-2h1l1,-1l1,1v-1h1l1,-1h1v-1h1l2,-5l2,-1l9,-7l3,-3h1v-3h10l4,-8l6,2l19,2Z"/><path data-name="Monroe" class="geo-063" d="M409,741l29,10h16l8,-6l2,7l8,-4l-1,4l10,-1l4,10l10,6l-1,2l-2,2v1h-1l-1,1l-1,2l-2,1l-3,1l-4,2l-6,4l2,5v1h-2l4,3l6,-2l-4,7l-3,1l-2,2h-5l-3,2l1,2l-1,1h-1l-3,1l-5,4l-3,1l-4,3l-3,3h-4l-2,-2l-1,-3l1,-3l-4,-6v1h-4l-1,1h-2l-2,1l-4,2v1h-1l-1,1v1h-2l-4,3l-1,1h-1l-2,1v1h-1v1l-8,4l-5,3l-1,1h-1l-1,1h-1l-1,1h-2l-4,2l-2,-3l-1,-1v-2h-3l-1,-1h-1v-1l-1,-1l-3,-3l-3,-1h-2v-1l8,-18l12,-18l19,-34Z"/><path data-name="Doddridge" class="geo-017" d="M420,316l14,6v15l2,2l-9,10l-4,6l5,2l-2,7l7,7l-1,3l5,1l-6,9l-6,-1l-1,3l-6,6l-7,1l-7,12l-6,-1l-16,-4l-8,-18l-11,-21l5,-7l13,-14l16,-11l4,-8l11,-1Z"/><path data-name="Wirt" class="geo-105" d="M289,380l-5,11l8,3l4,8l1,11l1,4l8,-2l9,4l-20,21l-2,7l-16,5l-19,-12l-6,4l-3,2l-9,-10l4,-5l-1,-7l-8,-5l5,-7l11,-7l14,-13l8,-2Z"/><path data-name="Tyler" class="geo-095" d="M340,293l2,-1l5,-5l1,-1l9,-8l1,-1l11,6l6,-5l14,14v3l7,5l5,10l9,-1l10,7l-8,4l-11,1l-4,8l-16,11l-13,14l2,-15l-3,-5l-8,-3l-4,11l-10,-2l-1,-17l-2,-12l-12,2h-6l1,-2l4,-6l1,-1l9,-10Z"/><path data-name="Greenbrier" class="geo-025" d="M381,707l12,1l-13,-21l9,-9l-4,-1l-2,-9l-6,-1l-1,-6l-6,-1l-5,-6l2,-6l33,7l25,-20l25,-22l3,-4l16,10v21l-1,7l19,17l15,1l4,1l12,-5l29,-2l-1,1v2l-1,1l-1,2v3h-1l-1,3h-1l-1,2v1l-1,1v1h-1l-1,1l-1,1l-1,2h-1v1l-2,1l-1,1h-1v2l-1,1l-1,1h-1l-1,1h-1v1h-1l-1,2l-1,1l-1,1v1h-1v1h-1l-1,1v1h-1l-1,1v1h-1h1l-1,1h-1l-1,1v1l-1,1h-1v1h-1l-1,-1v1l-1,1l-1,1v2h-1l-1,1v1l-1,1h-1v3l1,1h-1l-1,1h-1l-1,1l-1,1l-1,2v1h-1l-1,1l-1,2l-1,1v2h1v2l1,-1v2h-3v1h-1l-1,1h-1v3h-1v1l-1,1l1,1l-1,1v2h1l1,1v1l-1,1h-1l-1,1v1h-1l-1,2l-1,1h-1l-2,1v1l-10,1l1,-4l-8,4l-2,-7l-8,6h-16l-29,-10v-6l-13,-14l-3,-5Z"/><path data-name="Ritchie" class="geo-085" d="M289,380l1,-7l4,-5l2,-8h4l5,-10h16l7,-5h10l1,-4l6,-1l10,2l4,-11l8,3l3,5l-2,15l-5,7l11,21l8,18l-1,5l-11,4l-8,7l-8,2l-8,6h-14l-8,-6l-7,-2l-2,3l-9,-4l-8,2l-1,-4l-1,-11l-4,-8l-8,-3Z"/><path data-name="Randolph" class="geo-083" d="M572,401l-1,-2l9,6l2,13l12,5l39,10h11l18,2l2,2l-5,9l-15,-2l1,8l-9,3l-5,-2l1,8l-5,6l6,14l-5,9l-4,3l-8,17h-6l-1,-4l-6,-2l-3,6l-4,-4l-8,1l2,-9l-4,-5l-7,2l-4,8l-4,15l-3,1l-2,18l-32,24l-18,-3l-26,21l13,-34l-10,-22l-9,-20l8,-12h22l5,-21l-2,-18l4,-2l1,-10l36,-5l9,-31Z"/><path data-name="Marion" class="geo-049" d="M444,311l5,-9l-5,-8v-9l3,-6l8,-4v-6l7,2l1,-1l5,1l2,5l10,1h29l34,35l6,4l-15,10l-1,2l-12,4l-3,-6l-3,2l-15,2l-13,-9Z"/><path data-name="Pendleton" class="geo-071" d="M624,536h-2l-5,-3h-1l-10,-4l4,-4v-15h6l8,-17l4,-3l5,-9l-6,-14l5,-6l-1,-8l5,2l9,-3l-1,-8l15,2l5,-9l9,9l7,5l25,22l15,12v1l-2,2l-1,2v1h-1v2l-1,3v1l-2,3l1,2l1,1v4l-1,1v3h-6l-1,1h-1v1l-1,3l-2,2v2l-1,3v1l-1,1v2l-1,3l-1,2v1l-1,1l-1,1v1l-1,2l-2,2l-1,1v2l-1,1l-1,4l1,2l-1,2l-1,1h-1v2l-1,1l-3,2v1l-1,3l-1,-1v2l-1,1l-1,2h-1l-2,1v3h-2l-1,1h-2l-1,1l-11,-3l-12,-5l-9,-3l-12,-23Z"/><path data-name="Summers" class="geo-089" d="M354,719l27,-12l12,9l3,5l13,14v6l1,5l-19,34l-12,18l-8,18h-1l-33,-29l-13,-11l5,-4l1,-9l7,-4l12,-10l-2,-4h7l13,8l-3,-10l-6,-5l6,-6Z"/><path data-name="Berkeley" class="geo-003" d="M934,272l1,1h3l1,1h2l1,-1v-1l-2,-2h3v1h1l3,1h3l1,1l1,1v4l-1,4h-1l-1,1h-8l-1,1l3,3l1,1l1,1v4l1,1h4v-4h2l1,1v3l-1,1h-1l-1,1l-1,1v1l1,1l3,1l-1,4l-1,1v1l-1,2l-3,5l-17,17l-15,27l-8,-6l-2,-1l-8,-7l-9,-7l-7,-6l-4,-3l5,-14l3,-15l7,-18v-3l10,1l13,-9l1,2v1l1,1v1h7v-1l1,-1h3l1,1l-1,3l1,2h2v-1l-1,-8l3,2Z"/><path data-name="Upshur" class="geo-097" d="M481,401l9,1l4,-2l3,3l9,3l7,12h15l1,16l-5,1l-2,5l-1,10l-4,2l2,18l-5,21h-22l-8,12l-8,3l-1,-4l-1,-5l-4,-3l-7,1l-4,-10l4,-23l5,-6l6,-16l3,-2l-3,-10l3,-4l3,-12Z"/><path data-name="Taylor" class="geo-091" d="M549,316l9,4v33l-2,3l-8,-2l-1,5l-14,8l-17,1l-9,-1l-8,-8v-24l1,-5l15,-2l3,-2l3,6l12,-4l1,-2Z"/><path data-name="Raleigh" class="geo-081" d="M243,725l-1,-8l-7,-1l-1,-10l1,-20l8,-10h12l2,5h13l7,-2l2,5l7,3l-1,13l14,3l30,1l5,6l-1,6h17l4,3l10,13l-6,6l6,5l3,10l-13,-8h-7l2,4l-12,10l-7,4l-1,9l-5,4l-8,-3l-12,6l-1,10l-4,6l-3,-4l-10,-4l-5,-3v-6l-4,-10l-18,-33l-5,-8Z"/><path data-name="Nicholas" class="geo-067" d="M368,549l19,-13l6,9l7,-4l12,4v-1v1l-5,5l7,20l-3,3l9,13l18,12l15,11l-3,4l-25,22l-25,20l-33,-7l-2,-6l-10,-5l-1,-11l-5,-6h-7l-2,4l-3,-6l-8,8l-10,-10h-11l-1,-4l-8,-3l16,-9l21,-14l5,-1l21,-13l18,-16l-2,-4Z"/><path data-name="Mason" class="geo-053" d="M135,434l1,-4l1,-1l3,-1l1,-1l2,-2h1v-1l2,-4l5,-3l6,7l1,2l9,2l6,15l-4,4v6l2,1l2,7l10,14l10,16l-4,3l7,10l-16,2l-20,3l-20,11l1,34l-2,-2l-29,-27h2l2,-1l5,-4v-8l-3,-12l1,-9l-1,-3l-1,-5l-5,-3v-5l11,-7l5,-6l-1,-10l1,-4l5,-7Z"/><path data-name="Gilmer" class="geo-021" d="M339,424h7l8,-6l8,-2l8,-7l11,-4l1,-5l16,4l2,21l22,26l-7,5l-5,-2l-16,9l-24,19l-22,15l-2,-8l-11,-7v-5l8,-6l2,-6l-1,-11l1,-19l-6,-5Z"/><path data-name="Brooke" class="geo-009" d="M419,82l21,-1v29h-1v31l-15,-5l-15,-2h1l5,-16l7,-5l2,-9v-1l-2,-9l1,-7l-4,-5Z"/><path data-name="Calhoun" class="geo-013" d="M315,419l2,-3l7,2l8,6h7v6l6,5l-1,19l1,11l-2,6l-8,6v5l11,7l2,8l-9,12l-10,14l-3,-7l-3,2l-9,-5l-1,-22l-10,-12l-1,-16h-4l1,-8l-6,-8l2,-7Z"/><path data-name="Lincoln" class="geo-043" d="M109,594l8,-7l11,-1l3,-5l10,-2l1,9l-1,10l11,7l15,-13l6,2l14,1v23l-5,2l-3,9l-8,2l2,7l-11,-3l-3,8l-4,17l10,5h-3l-17,1l-7,2l-26,9l-23,7l12,-13l8,-6v-11l-7,-4v-4l-4,-3l2,-6l-4,-1l-2,-3l3,-7l-1,-6l3,-6l3,-6v-5l7,-3Z"/><path data-name="Ohio" class="geo-069" d="M398,171h1l-1,-8v-3l2,-2l4,-3l1,-14l4,-7l15,2l15,5v35l-14,-1Z"/><path data-name="Morgan" class="geo-065" d="M895,254l9,3l11,12l-13,9l-10,-1v3l-7,18l-3,15l-5,14l-15,-11l-1,-1l-7,-6l-24,-12l1,-1l3,-6l-1,-1h-1h7l-7,-7l1,-4l6,2l4,-2l-5,-4l-1,-4l6,2h5l1,-4l2,-2l18,5v-4l11,-11l3,-5Z"/><path data-name="Kanawha" class="geo-039" d="M167,592l3,-18l14,-8l21,-9l-2,-10l-4,-4v-17l5,-1l7,-7l11,18l13,-6l9,-9l4,10l6,7l5,-1l26,4l7,4l10,-3l5,1l-17,14l6,24l3,28l-12,16l-7,3l-10,53h-13l-2,-5l-2,-4l1,-8l-5,-7l-5,1l-5,-4l4,-9l-5,-2v-5l-7,-1l-6,-8h-6v-11l-17,1l-4,3v-4l-6,-3l-1,5h-5l-2,6l-2,-6l5,-2v-23l-14,-1Z"/><path data-name="Lewis" class="geo-041" d="M398,404l6,1l7,-12l7,-1l6,-6l2,-1l5,3l5,3h13l1,2l31,8l-1,11l-3,12l-3,4l3,10l-3,2l-6,16l-5,6l-4,23l4,10h-11l-1,-3v-7l-1,-6l-5,-2l2,-9l-9,-6l-6,1v-3l-8,-1l-2,-8l-22,-26Z"/><path data-name="Mingo" class="geo-059" d="M87,743v-1l-1,-1v-2h-1v-3h-1l-1,-1v-2l1,-1v-1l2,-2h1l-1,-1h-2l-1,1v-1l1,-1v-1l-3,-3h-1l-1,-2h-2v-1l-3,-2l-4,-1l-1,-1l-1,-6l-2,-2v-2l1,-1l22,-21l23,-7l-2,4l7,8v4l6,2l1,11l-4,4l3,9l5,2l-3,12l5,2l1,10l8,-1l3,10l8,1l14,-4l1,4l9,-4l3,4l9,1v11l-4,1l-2,10l-5,5l-7,6l-8,4v-1l-5,-3v-2h-2v-2h1l-1,-1l-1,-1l-4,2l-1,1v-2h-1v2l-3,-1h-1l-1,1h-6l-3,-5l-5,1l-1,-1l-1,-1h-4v-1l-1,-1l-1,-1h3l-1,-5h-5l-1,-7l-4,-2l1,-1l-7,1l-4,-8l-7,-1l-5,-4h-1v-1h1Z"/><path data-name="Wayne" class="geo-099" d="M35,577l1,-1l-1,-2l1,-4l-1,-3v-1l1,-1l1,1v1l2,1l1,1h4v1h2v-1h4l1,-1h1l31,26l7,-6l6,4l-6,8v9l9,5l-3,6l1,6l-3,7l2,3l4,1l-2,6l4,3v4l7,4v11l-8,6l-12,13l-22,21l-1,-1v-5l-2,-2h-1v-1l-1,-3l-3,-2h-1v-1l-3,-2l-1,-1l-4,-1l2,-3v-1h1l3,-2l-2,-10h-3l-1,-1h-1l-1,-1l-1,-1v-2h-1v-2l-2,-9h-1l-1,-2v-1l-2,-2l-2,-1h-1l-1,-1v-4l-1,-1h-1l-1,-2l-2,-1h-1l-2,-2l-1,-2l-2,-4v-3l3,-2l1,1l2,-1l1,-3l1,-5h1v-3l-2,-1v-6h1l6,-4l-1,-6v-2l1,-4l-1,-6h-1l-2,-2v-7Z"/></g>
  <path class="counties-mesh" d="M167,592l-15,13l-11,-7l1,-10l-1,-9v-25l-1,-34l20,-11l20,-3l16,-2l5,-1l10,15l-7,7l-5,1v17l4,4l2,10l-21,9l-14,8l-3,18M379,249h60M458,249l3,1v12l2,8l-1,1l-7,-2v6l-8,4l-3,6v9l5,8l-5,9l-4,3l-1,6l-5,2l-14,-6l-10,-7l-9,1l-5,-10l-7,-5v-3l-14,-14l-6,5l-11,-6M255,676h-12l-8,10l-1,20l1,10l7,1l1,8l-5,1l-8,6l-6,-7l-7,-7v-3h-7l-6,5l-6,-5v-5l-6,-1l-1,-5l5,-5l-4,-11l-7,-3h-9l-12,-8h-7l-4,-4l9,-8h3l-10,-5l4,-17l3,-8l11,3l-2,-7l8,-2l3,-9M110,525l29,27l2,2M141,579l-10,2l-3,5l-11,1l-8,7v6l-7,3v5l-3,6l-9,-5v-9l6,-8l-6,-4l-7,6l-31,-26M398,171l27,4l14,1M289,380l-16,10l-8,2l-14,13l-11,7l-5,7l8,5l1,7l-4,5l9,10l-5,4l1,24l-5,29v8l4,10l-9,9l-13,6l-11,-18M583,249v6l-4,9l-2,11l-20,33l1,12l-9,-4l-6,-4l-34,-35h-29l-10,-1l-2,-5l-5,-1M794,293l-6,8l-4,2l-3,7l-9,6l-4,12l-11,17l-7,1l-7,11l-8,7l-1,3l-31,-18l-19,-2l-6,-2M440,81l-21,1M636,376v3l-5,-6l-11,-4l-22,-9l-24,10l-7,-4v-4l-2,-6l-7,-3v-33M705,473l10,-14l-1,-7l8,-6v-4l-7,-15l-2,-10l7,-17l2,-2v-8l5,-7l4,-12l3,-4l16,10l18,6l11,5l10,1l6,5l7,1l4,-5l9,2l9,10M830,297l24,12M160,793l8,-4l7,-6l6,6l-1,4l7,2l9,-1l8,3l5,-5l14,2l2,5h10l3,3l13,-1l7,8l9,-3l2,5l12,5l-10,21M444,311l43,10l13,9l-1,5v24l8,8l-12,17l-1,16M424,386l1,-3l6,1l6,-9l-5,-1l1,-3l-7,-7l2,-7l-5,-2l4,-6l9,-10l-2,-2v-15M507,367l9,1l17,-1l14,-8l1,-5l8,2l2,-3M636,379l4,4l6,-4h9l2,-3l13,-2l4,6l-8,10v8l-4,8l5,3l6,-1l-4,9l1,6l-5,12h-3M249,446l3,-2l6,-4l19,12l16,-5l6,8l-1,8h4l1,16l10,12l1,22l9,5l3,-2l3,7l10,-14l11,10l1,9l3,-2l8,9l-1,5l6,3l1,6l10,3l2,4l-18,16l-21,13l-5,1l-21,14l-16,9l-3,-28l-6,-24l17,-14l13,-9l9,-11M224,725l-5,2l-12,1v2l-13,4l12,12l-7,4l-9,2l-4,4l-9,-1l-3,-4l-9,4l-1,-4l-14,4l-8,-1l-3,-10l-8,1l-1,-10l-5,-2l3,-12l-5,-2l-3,-9l4,-4l-1,-11l-6,-2v-4l-7,-8l2,-4l26,-9l7,-2l17,-1M202,401l33,18M324,313h6l12,-2l2,12l1,17l-6,1l-1,4h-10l-7,5h-16l-5,10M299,609l8,3l1,4h11l10,10l8,-8l3,6l2,-4h7l5,6l1,11l10,5l2,6l-2,6l5,6l6,1l1,6l6,1l2,9l4,1l-9,9l13,21l-12,-1l-27,12l-4,-3h-17l1,-6l-5,-6l-30,-1l-14,-3l1,-13l-7,-3l-2,-5l-7,2M196,504l-7,-10l4,-3l-10,-16l-10,-14l-2,-7M547,659l-29,2l-12,5l-4,-1l-15,-1l-19,-17l1,-7v-21l1,-29l4,2l16,-13l26,-21l18,3l32,-24l2,-18l3,-1l4,-15l4,-8l7,-2l4,5l-2,9l8,-1l4,4l3,-6l6,2l1,4v15l-4,4M574,370l-3,9l-2,17l2,3l1,2l-5,3l-9,31l-36,5l2,-5l5,-1l-1,-16h-15l-7,-12l-9,-3l-3,-3l-4,2l-9,-1l-31,-8l-1,-2h-13l-5,-3l-5,-3l-2,1l-6,6l-7,1l-7,12l-6,-1l2,21l22,26l2,8l8,1v3l6,-1l9,6l-2,9l5,2l1,6v7l1,3h11l7,-1l4,3l1,5l1,4l8,-3l9,20l10,22l-13,34M915,357l15,-27l17,-17l3,-5l1,-2v-1l1,-1l1,-4M281,816l4,2l-3,-11l7,-3l2,-6l8,-3l4,-6l1,-10l12,-6l8,3l13,11l33,29M243,725l11,2l5,8l18,33l4,10v6l5,3l10,4l3,4M175,783l5,-5l2,-10l4,-1v-11M307,543l-5,-1l-10,3l-7,-4l-26,-4l-5,1l-6,-7l-4,-10M371,816l8,-18l12,-18l19,-34l-1,-5l29,10h16l8,-6l2,7l8,-4l-1,4l10,-1M398,404l-16,-4l-8,-18l-11,-21l5,-7l13,-14l16,-11l4,-8l11,-1l8,-4M339,509l9,-12l-2,-8l-11,-7v-5l8,-6l2,-6l-1,-11l1,-19l-6,-5v-6h-7l-8,-6l-7,-2l-2,3l-20,21l-2,7M368,354l2,-15l-3,-5l-8,-3l-4,11l-10,-2M367,648l33,7l25,-20l25,-22l3,-4M409,741v-6l-13,-14l-3,-5l-12,-9M382,400l-1,5l-11,4l-8,7l-8,2l-8,6h-7M664,437l-5,9l-15,-2l1,8l-9,3l-5,-2l1,8l-5,6l6,14l-5,9l-4,3l-8,17h-6M484,503l8,-12h22l5,-21l-2,-18l4,-2l1,-10M549,316l-15,10l-1,2l-12,4l-3,-6l-3,2l-15,2M324,776l5,-4l1,-9l7,-4l12,-10l-2,-4h7l13,8l-3,-10l-6,-5l6,-6l-10,-13M877,327l5,-14l3,-15l7,-18v-3l10,1l13,-9M463,495l-4,-10l4,-23l5,-6l6,-16l3,-2l-3,-10l3,-4l3,-12l1,-11M439,141l-15,-5l-15,-2M469,619l-16,-10l-15,-11l-18,-12l-9,-13l3,-3l-7,-20l5,-5v-1l28,-29l11,-23M412,545l-12,-4l-7,4l-6,-9l-19,13M112,677l-23,7l12,-13l8,-6v-11l-7,-4v-4l-4,-3l2,-6l-4,-1l-2,-3l3,-7l-1,-6l3,-6M67,705l22,-21M720,485l-15,-12l-25,-22l-7,-5l-9,-9l-2,-2l-18,-2h-11l-39,-10l-12,-5l-2,-13l-9,-6M276,341l1,5h7l1,6l11,1l4,7h-4l-2,8l-4,5l-1,7l-5,11l8,3l4,8l1,11l1,4l8,-2l9,4M255,676M182,620M270,681l10,-53l7,-3l12,-16M255,676l2,5h13M182,620l2,6l2,-6h5l1,-5l6,3v4l4,-3l17,-1v11h6l6,8l7,1v5l5,2l-4,9l5,4l5,-1l5,7l-1,8l2,4M167,592l6,2l14,1v23l-5,2M348,497l22,-15l24,-19l16,-9l5,2l7,-5"/>
<g class="districts"><path data-name="Congressional District 1" class="district-5401" d="M201,380l6,-6v-2l6,-2l1,-9l4,-4h11l9,2v-6l1,-5l1,-6l2,-3l9,-5l8,-9l9,3l6,14l2,-1h4l18,-11l6,1h1l2,-5l8,-9l8,-3l1,-1l1,-2l4,-6l1,-1l9,-10l1,-1l2,-1l5,-5l1,-1l9,-8l1,-1l5,-3h5l2,-1h1l2,-8v-10l3,-1h2l2,-5h-1l-1,-3l-1,-2h-1l-3,-3v-5l8,-6v-13l1,-1h3v-1l2,-1l1,-1l-3,-13l9,2l-1,-11l5,-5v-15h1l-1,-8v-3l2,-2l4,-3l1,-14l4,-7h1l5,-16l7,-5l2,-9v-1l-2,-9l1,-7l-4,-5l2,-1h1v-9l1,-2h1v-1l1,-4l1,-1v-1l-4,-6v-1l-1,-2l-1,-2l-1,-5l-7,-10v-1l2,-4h1l4,-5l6,-2l4,4l11,-5v86h-1v139h199l-1,14v79h-1v34h2l1,1h1v-2h1l1,-1l1,1v-1h1l1,-1h1v-1h1l2,-5l2,-1l9,-7l3,-3h1v-3h10l4,-8l3,-6l7,-2l3,-7l7,-3v-1l1,-1v-1h2v1l1,1l1,-1v-1l-1,-1l1,-1h1v-1l1,-2l2,1l1,-1h-1v-1h-1v-1h1l1,-1h1v-3h-1v-2h2v1l-1,-1v-2l1,-1v1l3,1h1l1,-1h1v-1h1v1h2l2,-2v1h1l4,3l1,1l8,5h3v-1l-1,-1v-1h1l-1,-2l1,-1l2,-1l1,-2l2,-2l3,-3v-1l1,-1v-1l2,-1l1,-3l3,-2l1,-2l3,-3l1,-2l1,-1h2l2,1l1,-2v-1l-2,-1v-4l1,-1h1v-2h2l1,-3v-1l-1,-2l1,-2l5,-2h1l-2,6h1l4,-1l3,3v1l-2,1l-1,-1l-4,1l-1,2h1l1,2l4,2l1,-1l1,-1h1l1,6h1l4,3h1l5,2l1,1l1,1l-6,8l-4,2l-3,7l-9,6l-4,12l-11,17l-7,1l-7,11l-8,7l-1,3l-3,4l-4,12l-5,7v8l-2,2l-7,17l2,10l7,15v4l-8,6l1,7l-10,14l-25,-22l-7,-5l-9,-9l-2,-2l-18,-2h-11l-39,-10l-12,-5l-2,-13l-9,-6l1,2l-5,3l-9,31l-36,5l2,-5l5,-1l-1,-16h-15l-7,-12l-9,-3l-3,-3l-4,2l-9,-1l-31,-8l-1,-2h-13l-5,-3l-5,-3l-2,1l-6,6l-7,1l-7,12l-6,-1l2,21l22,26l-7,5l-5,-2l-16,9l-24,19l-22,15l-2,-8l-11,-7v-5l8,-6l2,-6l-1,-11l1,-19l-6,-5v-6h-7l-8,-6l-7,-2l-2,3l-9,-4l-8,2l-1,-4l-1,-11l-4,-8l-8,-3l5,-11l-16,10l-8,2l-14,13l-11,7l-5,7l-33,-18h1l1,-12l-2,-6Z"/><path data-name="Congressional District 2" class="district-5402" d="M196,504l-7,-10l4,-3l-10,-16l-10,-14l-2,-7l3,2l6,-4l1,-1l2,-3v-2l2,-6l1,-1h5l4,5l5,-4l-1,-1l-3,-4l3,-15l-8,-8v-8l8,2l3,-4v-1l33,18l5,-7l11,-7l14,-13l8,-2l16,-10l-5,11l8,3l4,8l1,11l1,4l8,-2l9,4l2,-3l7,2l8,6h7v6l6,5l-1,19l1,11l-2,6l-8,6v5l11,7l2,8l22,-15l24,-19l16,-9l5,2l7,-5l-22,-26l-2,-21l6,1l7,-12l7,-1l6,-6l2,-1l5,3l5,3h13l1,2l31,8l9,1l4,-2l3,3l9,3l7,12h15l1,16l-5,1l-2,5l36,-5l9,-31l5,-3l-1,-2l9,6l2,13l12,5l39,10h11l18,2l2,2l9,9l7,5l25,22l10,-14l-1,-7l8,-6v-4l-7,-15l-2,-10l7,-17l2,-2v-8l5,-7l4,-12l3,-4l1,-3l8,-7l7,-11l7,-1l11,-17l4,-12l9,-6l3,-7l4,-2l6,-8h1l5,-1v-1l7,1v1l4,3l9,-1l9,2h1l1,-1l3,-6l-1,-1h-1h7l-7,-7l1,-4l6,2l4,-2l-5,-4l-1,-4l6,2h5l1,-4l2,-2l18,5v-4l11,-11l3,-5l12,3l9,3l11,12l1,2v1l1,1v1h7v-1l1,-1h3l1,1l-1,3l1,2h2v-1l-1,-8l3,2l1,1l1,1h3l1,1h2l1,-1v-1l-2,-2h3v1h1l3,1h3l1,1l1,1v4l-1,4h-1l-1,1h-8l-1,1l3,3l1,1l1,1v4l1,1h4v-4h2l1,1v3l-1,1h-1l-1,1l-1,1v1l1,1l3,1h5l2,-1l1,-1h3v2l-3,1h-1l-1,1l-1,1v2h1v1h1l2,1l-1,1l-3,-1v1l1,1l1,1l1,1h-1v1h-2l-1,1v1l2,1l3,1h2l3,1l1,2l2,3l1,1v3h-3v3h1v2h1l-1,3l-2,1v1h-1v1l1,2h3v1h2l1,1l1,1v1l-2,1l-1,1l-1,2l-1,4h-1v2l-1,2v2h-1l-1,1l1,2l-1,2l-1,1l-1,2l-1,2l-1,2l-1,2v2l-3,7v2l-1,2l-1,1v4l-3,-3l-16,-13l-7,-5l-14,-11l-8,-6l-2,-1l-8,-7l-9,-7l-7,-6l-4,-3l-15,-11l-1,-1l-7,-6l-1,1l1,1v4l-1,1v1h1v2l-1,1l-1,1v2l1,2l1,2l-1,1h2l-1,1l-1,2v2h-1v1l-2,1l2,1l4,1v1l-1,1v1l-1,1l-1,2v1l-1,1h-1v2l-2,2l-1,1l-1,1v1l-1,1v1l-1,1h-1v1h-1l-2,4l-1,1h1l1,1h1l1,2v1l-1,1h1l-1,1l-2,4l-3,5h1v1h1l-1,1v1h1v1h1l1,1l1,1l1,1l-1,1l-1,1l-3,1l-1,4v1l-4,5h-1l-1,1l-1,1l-1,-1l-3,3l-1,1h-1l-1,1v1l-1,1v1l-1,1v1l-2,1h-1v2l-1,1l-1,1h-1l-3,5l1,1l2,1l1,1l-1,1l-1,2l-1,1l-3,3l-1,2l-1,3l-2,1v1l-2,-2v-1h-2l-1,-2l-1,1l-1,2v1h-1l-1,2l-2,3l-2,3l-2,3h-1l-2,2h-2l-1,2h-2v-1l1,-5v-1l-2,1l-2,1v1l-2,3l-1,1v1l-1,2l-3,1l-2,1l-1,3l-2,2l-6,13l-2,5l-2,4l-2,5l-6,-5l-16,-14l-3,-3l-1,1v3l-1,1v1l-2,2l-1,1v1l-1,1v2l-1,2h-3l-1,1v1l1,1v1l-2,3v1l-2,2l-1,2v1h-1v2l-1,3v1l-2,3l1,2l1,1v4l-1,1v3h-6l-1,1h-1v1l-1,3l-2,2v2l-1,3v1l-1,1v2l-1,3l-1,2v1l-1,1l-1,1v1l-1,2l-2,2l-1,1v2l-1,1l-1,4l1,2l-1,2l-1,1h-1v2l-1,1l-3,2v1l-1,3l-1,-1v2l-1,1l-1,2h-1l-2,1v3h-2l-1,1h-2l-1,1l-11,-3l-12,-5l-9,-3l-12,-23l-4,-2h-2l-5,-3h-1l-10,-4l4,-4v-15l-1,-4l-6,-2l-3,6l-4,-4l-8,1l2,-9l-4,-5l-7,2l-4,8l-4,15l-3,1l-2,18l-32,24l-18,-3l-26,21l13,-34l-10,-22l-9,-20l-8,3l-1,-4l-1,-5l-4,-3l-7,1h-11l-1,-3l-11,23l-28,29v1l-12,-4l-7,4l-6,-9l-19,13l10,3l2,4l-18,16l-21,13l-5,1l-21,14l-16,9l-12,16l-7,3l-10,53h-13l-2,-5l-2,-4l1,-8l-5,-7l-5,1l-5,-4l4,-9l-5,-2v-5l-7,-1l-6,-8h-6v-11l-17,1l-4,3v-4l-6,-3l-1,5h-5l-2,6l-2,-6l5,-2v-23l-14,-1l-6,-2l-15,13l-11,-7l1,-10l-1,-9v-25l-1,-34l20,-11l20,-3Z"/><path data-name="Congressional District 3" class="district-5403" d="M29,627l2,-1l1,-3l1,-5h1v-3l-2,-1v-6h1l6,-4l-1,-6v-2l1,-4l-1,-6h-1l-2,-2v-7l1,-1l-1,-2l1,-4l-1,-3v-1l1,-1l1,1v1l2,1l1,1h4v1h2v-1h4l1,-1h1l1,-1l4,-1l6,-2l7,-2l5,1l13,-3l5,-13l3,-21l5,-3l9,2h2l2,-1l5,-4v-8l-3,-12l1,-9l-1,-3l-1,-5l-5,-3v-5l11,-7l5,-6l-1,-10l1,-4l5,-7l4,-7l1,-4l1,-1l3,-1l1,-1l2,-2h1v-1l2,-4l5,-3l6,7l1,2l9,2l6,15l-4,4v6l2,1l2,7l10,14l10,16l-4,3l7,10l-16,2l-20,3l-20,11l1,34v25l1,9l-1,10l11,7l15,-13l6,2l14,1v23l-5,2l2,6l2,-6h5l1,-5l6,3v4l4,-3l17,-1v11h6l6,8l7,1v5l5,2l-4,9l5,4l5,-1l5,7l-1,8l2,4l2,5h13l10,-53l7,-3l12,-16l16,-9l21,-14l5,-1l21,-13l18,-16l-2,-4l-10,-3l19,-13l6,9l7,-4l12,4v-1l28,-29l11,-23l1,3h11l7,-1l4,3l1,5l1,4l8,-3l9,20l10,22l-13,34l26,-21l18,3l32,-24l2,-18l3,-1l4,-15l4,-8l7,-2l4,5l-2,9l8,-1l4,4l3,-6l6,2l1,4v15l-4,4v1h-1v3h-1v1l1,2h-2v5h-1h1v1l-1,1v1h1v1l1,2h-1v2h-1v-1h-2v3l-1,1h-1v1h-1v1l1,2v1l-1,1h1v1l1,2v3h-1l1,1l-1,1v1l1,1l-1,1l-1,1h1h-1l-1,1l-1,1v2l-1,1h-1v1l-1,2l-1,1v2l-1,1l1,1v2l-1,1l-2,1h-1v-1h-2l-1,1l-1,2l1,1l-1,1v1h-2l-1,1h-1l-1,2l-1,2l-1,1h-1v1l2,3v1l2,2v1l1,1v2h-2l-1,1l-1,1l-1,-1l-1,1v2h-2l-1,1h-1v1h-2v1l-1,1v1l-1,1l-1,1l-2,1l-1,2l-2,1l-2,3l-3,2l-1,1v3h1v2h-1v2h-1v1l-1,2v1l-1,1h-2v1l1,1h-1l1,1v3h3l-1,2l-2,2l-2,2v1l-1,3v1l-1,1v2l-1,1l-1,2v3h-1l-1,3h-1l-1,2v1l-1,1v1h-1l-1,1l-1,1l-1,2h-1v1l-2,1l-1,1h-1v2l-1,1l-1,1h-1l-1,1h-1v1h-1l-1,2l-1,1l-1,1v1h-1v1h-1l-1,1v1h-1l-1,1v1h-1h1l-1,1h-1l-1,1v1l-1,1h-1v1h-1l-1,-1v1l-1,1l-1,1v2h-1l-1,1v1l-1,1h-1v3l1,1h-1l-1,1h-1l-1,1l-1,1l-1,2v1h-1l-1,1l-1,2l-1,1v2h1v2l1,-1v2h-3v1h-1l-1,1h-1v3h-1v1l-1,1l1,1l-1,1v2h1l1,1v1l-1,1h-1l-1,1v1h-1l-1,2l-1,1h-1l-2,1v1l4,10l10,6l-1,2l-2,2v1h-1l-1,1l-1,2l-2,1l-3,1l-4,2l-6,4l2,5v1h-2l4,3l6,-2l-4,7l-3,1l-2,2h-5l-3,2l1,2l-1,1h-1l-3,1l-5,4l-3,1l-4,3l-3,3h-4l-2,-2l-1,-3l1,-3l-4,-6v1h-4l-1,1h-2l-2,1l-4,2v1h-1l-1,1v1h-2l-4,3l-1,1h-1l-2,1v1h-1v1l-8,4l-5,3l-1,1h-1l-1,1h-1l-1,1h-2l-4,2l-2,-3l-1,-1v-2h-3l-1,-1h-1v-1l-1,-1l-3,-3l-3,-1h-2v-1h-1l-1,2l1,2l-5,7l3,4l4,5l-3,2l-1,1l-3,2l-3,3l-2,1l-2,1l-3,1l-1,1l-2,1l-3,1h-2l-1,-1v-2h-2l-9,3h-5l-6,1l-3,1l-7,3l-4,1l-7,5l-6,2l-1,-1l-3,-3l-11,-9l-1,-1l-4,-4v-1l-6,-7l-1,1v2h-1v2h-3v-1v1h-1v1h-1v3h-1l-1,1h1v1h-1v2h-1v1h-1v2h-1l-1,1h-1v-1h-1v1h-1v-1h-1v1l-2,1v1h-2v1h-2v1h-4v-2l-1,1v1l-1,1v3l-1,1h-1v1h-2v1h-1v1h-2l-2,2l-1,1l-12,1h-12l-1,-1v-2h-2v-1h-1v-1h-1v-1h-1l-1,-1v-1h-1v-1h-3l-1,-1v-2l1,-2h-1v-1h-1v-1h-1l-1,-1v-2h-1l-1,1l-1,-1h-1v-1h-3v-1h-3v1h-5l1,-1h-4v-1h-1l1,-2v-1h-1v-1h-1l-1,-1l1,-1v-1l-1,-1l-1,-1h-1v-1h-1l1,-1h-1l-1,1v-1h-1l-1,1v-1h-1h1v-1l-1,-1v-1h-2v-1h-2v-2h-1v-3h-1v-1h1v-1h-1v-2l1,-1l-1,-1h1v-5h1h-1l-1,-1v-1h-1v-3h1v-1l-1,-1v1l-1,-1v-1h-2v-1h-3v-1l-1,-1l-1,-1l-1,1h-1l1,-1h-1l-1,-1v-3l1,-1v-1h3v-1h2v-1h3v-2l1,-1h1v-1h2v-1l-5,-3v-2h-2v-2h1l-1,-1l-1,-1l-4,2l-1,1v-2h-1v2l-3,-1h-1l-1,1h-6l-3,-5l-5,1l-1,-1l-1,-1h-4v-1l-1,-1l-1,-1h3l-1,-5h-5l-1,-7l-4,-2l1,-1l-7,1l-4,-8l-7,-1l-5,-4h-1v-1h1l-2,-6v-1l-1,-1v-2h-1v-3h-1l-1,-1v-2l1,-1v-1l2,-2h1l-1,-1h-2l-1,1v-1l1,-1v-1l-3,-3h-1l-1,-2h-2v-1l-3,-2l-4,-1l-1,-1l-1,-6l-2,-2v-2l1,-1l-1,-1v-5l-2,-2h-1v-1l-1,-3l-3,-2h-1v-1l-3,-2l-1,-1l-4,-1l2,-3v-1h1l3,-2l-2,-10h-3l-1,-1h-1l-1,-1l-1,-1v-2h-1v-2l-2,-9h-1l-1,-2v-1l-2,-2l-2,-1h-1l-1,-1v-4l-1,-1h-1l-1,-2l-2,-1h-1l-2,-2l-1,-2l-2,-4v-3l3,-2Z"/></g>
  <path class="districts-mesh" d="M794,293l-6,8l-4,2l-3,7l-9,6l-4,12l-11,17l-7,1l-7,11l-8,7l-1,3l-3,4l-4,12l-5,7v8l-2,2l-7,17l2,10l7,15v4l-8,6l1,7l-10,14l-25,-22l-7,-5l-9,-9l-2,-2l-18,-2h-11l-39,-10l-12,-5l-2,-13l-9,-6l1,2l-5,3l-9,31l-36,5l2,-5l5,-1l-1,-16h-15l-7,-12l-9,-3l-3,-3l-4,2l-9,-1l-31,-8l-1,-2h-13l-5,-3l-5,-3l-2,1l-6,6l-7,1l-7,12l-6,-1l2,21l22,26l-7,5l-5,-2l-16,9l-24,19l-22,15l-2,-8l-11,-7v-5l8,-6l2,-6l-1,-11l1,-19l-6,-5v-6h-7l-8,-6l-7,-2l-2,3l-9,-4l-8,2l-1,-4l-1,-11l-4,-8l-8,-3l5,-11l-16,10l-8,2l-14,13l-11,7l-5,7l-33,-18M606,529l4,-4v-15l-1,-4l-6,-2l-3,6l-4,-4l-8,1l2,-9l-4,-5l-7,2l-4,8l-4,15l-3,1l-2,18l-32,24l-18,-3l-26,21l13,-34l-10,-22l-9,-20l-8,3l-1,-4l-1,-5l-4,-3l-7,1h-11l-1,-3l-11,23l-28,29v1l-12,-4l-7,4l-6,-9l-19,13l10,3l2,4l-18,16l-21,13l-5,1l-21,14l-16,9l-12,16l-7,3l-10,53h-13l-2,-5l-2,-4l1,-8l-5,-7l-5,1l-5,-4l4,-9l-5,-2v-5l-7,-1l-6,-8h-6v-11l-17,1l-4,3v-4l-6,-3l-1,5h-5l-2,6l-2,-6l5,-2v-23l-14,-1l-6,-2l-15,13l-11,-7l1,-10l-1,-9v-25l-1,-34l20,-11l20,-3l16,-2l-7,-10l4,-3l-10,-16l-10,-14l-2,-7"/>
</svg>