<svg version="1.1" xmlns="http://www.w3.org/2000/svg" width="1000" height="564" viewBox="0 0 1000 564"><path data-geo-id="02000" d="M32,444l7,8l-12,-3v-5ZM481,49l13,-6l9,-6v9v-12l20,-4l10,-12l11,2l-4,9h6l4,-8l4,3v5l15,-3h5l3,8l5,4l8,1l3,-3l1,1l-1,3l3,-3l4,-3l12,1l8,1l2,3l8,1l10,-3l9,4l11,-5l3,-2l7,-1l8,4l14,3l1,1v2l2,5v1l1,3v4l2,1v4l1,2l1,4v2l2,3l1,6v3l2,4l1,4v3l3,11l6,18l1,3v4l2,3l1,6v1l2,5l1,2v3l1,3l2,5v1l1,7l2,4l1,2v5l2,2v4l1,1v1l1,5v2l2,6h1v5l2,1v3l1,4v2l2,2l1,4v2l1,7l2,4v1l1,6l2,1v5l3,6v3l1,2v4l1,4l2,3l1,4l2,8l1,3l2,5v2l4,16h1l6,-1h6l4,-5l9,-3l1,8l29,16l3,4l1,3v2h1l3,-5l3,-3v-2l5,-1v-4l-2,-3l2,-3h1v-3l-3,-1l2,-1l1,-2l3,-1v-1l4,-5l6,4l3,5h3v2l1,1h4l5,2l1,1v2h1l3,3l5,1l2,1h2l1,2h2l4,3v1l2,1l12,11l15,11l1,6l4,-1l2,4v1h4v2l3,2l4,-1l2,1h3l2,1l13,1l2,1v1h4l4,1l2,2l-2,6l9,10v14l-3,4l-1,1l-5,1l-5,-7v-10l-3,-7l-13,-5l-4,7l2,2v8l-7,-4l2,-10l-5,-8l-8,-3v-4l-2,1l-8,-3l-3,-4l-10,1l-4,-11l-3,-1l-2,-9l-4,2l-9,-8h-10l-5,-10l-3,2l-4,-9l-3,1l7,13l6,6v4l-13,-3v-1l-3,-4l-10,-1l10,7v4l-6,3h-11l-13,-7l-6,-5l-20,-5v-1l-7,-1l1,-2l-1,-14l-3,8l-4,5l-6,1l-13,-1l-1,-3h-16l-13,4l-4,4l-13,-4l-5,-5v-2l-4,5l-8,-3l-3,-5l-10,2l4,-5l-6,1l-7,-4l-7,7l-6,-3l-3,5l3,6l-6,3h11l-3,4l-2,11l-10,2l-3,-2l-5,5v6l-9,5l-6,10l-13,4l-2,-8l8,-2l3,-9l-6,5l-5,-2l1,-11l4,-9l-1,-11l10,-9l4,2l9,-3l-7,-4l4,-8l-6,5l-11,3l-2,5l-5,2l-2,8l-7,6v7l-4,5l1,5l-6,5v4l-7,5l-7,7l-1,9l8,-2l6,4l-2,6l-7,4l-3,12l-7,3l-7,5l-3,7l-4,-2l-1,7l-13,7l4,1l-4,9l-6,1l-3,6l-6,-2l2,6h-9l-8,7l4,3l-2,5l-5,4l-12,3l-4,5l-3,-4l-6,5h-4l-13,9l-6,-1l3,-8l-4,1l-1,8l-5,6l-11,1l-4,4l-2,-6l-4,8l-3,-7l10,-6l6,-2l4,-9l7,-6l14,-1l12,6l-4,-5l1,-8l10,-10l10,-4l3,-4l6,1v-7l5,-8l5,-1l4,-6l3,2l-2,-18l2,-11l7,-8v-4l-17,8l-4,-7v-5l-5,6h-5l5,8l-4,4l-6,-12l-7,1l-6,-8l-8,5l-6,2l-4,6l-5,-2l2,-10l3,-3l-6,1v-9l4,-2l-3,-11l-4,-6v-5l-1,-1l-3,-4l1,9l-15,6l-10,-2l1,-5l-7,-7l1,-6l3,-1l-1,-2l8,-6l2,6l5,-2l-1,-7l-14,1v-3l-9,-1l6,-4l-15,-9v-1l-2,-9l8,-4l-1,-7l7,-9l6,-4l10,-3l3,6l1,-12h1l5,-5l4,2l7,-5l4,-9l5,3l11,-1l5,-6l-2,-16l-4,-5l-3,-3l9,-1l-2,-11l-4,5h-7l-9,6l-3,5l-1,-6l-3,4l-6,-5l-16,1l-17,-4v-10l-6,-6l10,-5l-17,-6l-5,-5l4,-5l4,-1l6,-1l1,-4l7,-3l9,2l-3,-5l13,-4l4,-3l9,1l-1,9l-3,1l3,5v-1l21,2v1h1l3,-6l5,4l1,-1l2,-2l-3,-5l-8,-1l-2,-9l-6,-6l4,-1l3,11l4,4l6,-3l4,6l6,-4v-4l-11,1v1l-8,-5l2,-10l-10,1l-12,-4v-9l-15,-20l-6,-2l-1,-4l-8,-5h6l2,-14l21,1l9,-6l4,-5l1,-13ZM950,385l1,6l-6,-2l-1,-15l4,-3l9,7l1,14l-7,-2ZM922,381h6l4,6h-1l1,7h3l5,-1l5,2v8l3,-2l3,9l-6,1l-3,-4v1l-1,-1l-6,-8l-1,1l3,2l-13,-1l3,-4l-3,-4h-6l3,-7l-6,-7l-3,1l-4,-4l7,-2l3,6ZM932,375v5l-8,-3v-7l10,3ZM914,359l7,4l-6,4ZM928,403l12,13l-9,-5l-4,-5ZM902,366v-3l-7,-2v-4l15,-1l5,9l-1,6l-9,2ZM912,380l5,4l-7,5ZM900,367v-2l4,4l1,16l-4,1l-3,-9h3l-1,-1l-8,-5l-1,-6l9,2ZM884,337l-3,1l9,5l4,8l-3,2l-3,10h-3l-3,-13l-5,-4l-5,-13l9,-2l7,6ZM882,374l-5,-1l1,-7l-11,-5l1,-7h11l-1,4l6,5l1,6l6,5l3,12l-9,-6ZM854,352l-3,-6l-2,-6l6,-4l7,2l-3,3v2l5,-6h7l3,7l-7,2l8,1l3,7l-16,-3l5,2v8l-10,-7ZM688,316h5l-7,7ZM679,321l3,1l-4,7v7l-6,3ZM612,387l5,2l-1,5l-13,6l-4,-3l1,-5h5l1,-5l6,3v-3ZM599,409l1,-7l5,1v5l7,-5v8l4,-1l-1,6l-10,7h-5l-6,11h-4v-5l-6,7l-2,-4l-5,-14l7,-6l8,2l-3,-8l4,-2ZM491,492l-1,-3l6,-4l1,3ZM483,479l3,8h-6ZM431,487h5l1,9l4,2l-7,2l-11,-1l-5,6l-7,-1l-1,-5l4,-1l4,-8ZM448,258h-1l-9,-5l3,-5h6l6,4ZM440,254l4,4v6l-10,-4ZM433,326l1,2l-3,1l-6,3l-5,-7l7,-4l3,-5l7,3ZM410,327l5,5v11h-15l-9,-7v-5l7,2l5,-5ZM381,516l6,-2l-10,14l-19,3l-1,-2l13,-2l3,-14l7,-1ZM334,541l6,-5l2,-7l6,1v-6l7,-2l2,6l-9,3l-3,5ZM351,219l1,6l6,2l10,-2l2,7l5,5l10,2l-1,5l-9,-1l-4,5v-5l-6,-3l-1,-6l-7,-3l-5,2l-5,-3v-5ZM252,545l9,4l-10,-1l-6,-4ZM236,544l-12,-2l17,-3l-2,-4l6,1l-3,7ZM198,535l-2,8l-5,2l2,-9ZM172,530l7,5l-8,4Z"/><g class="cities"><circle r="7" cx="637" cy="302"/><text x="637" y="302">Anchorage</text><circle r="7" cx="650" cy="193"/><text x="650" y="193">Fairbanks</text><circle r="7" cx="876" cy="328"/><text x="876" y="328">Juneau</text></g></svg>