<svg version="1.1" xmlns="http://www.w3.org/2000/svg" width="1000" height="657" viewBox="0 0 1000 657"><path data-geo-id="19053" d="M471,540v63h-54v1h-14v-65h64Z"/><path data-geo-id="19031" d="M795,346v-18h27l41,-1l1,11v23l1,12v23l-69,2v-41Z"/><path data-geo-id="19027" d="M247,278h34l34,1v58l-1,11l-18,-1l-50,-1v-38h1Z"/><path data-geo-id="19151" d="M344,141v33l-1,19v17h-46l-22,-1v-34h1v-35h52Z"/><path data-geo-id="19109" d="M345,72v-49l28,1l40,1v47l-1,1v69h-42l-26,-1v-40l1,-1Z"/><path data-geo-id="19085" d="M100,363v-2l2,-4v-3h-1v-1h-3v-1h-1v-1h-1v-6h-1v-1l-1,-1h-1l-2,-2l26,2l43,2h18l-1,5v32l-1,14h8v20l-29,-1l-45,-2v-6l-1,-1h-3l-1,4l-1,2l-4,-1l-2,-1l-1,-9h1v-1h1v-1l-1,-1l-1,-1l-1,-1l-3,-5l3,-4v-1l-3,-7v-1l4,-3h3l1,-1v-1l-1,-1v-1h-1l-1,-1h-2v-2l2,-3h1v-1h1v-1Z"/><path data-geo-id="19187" d="M343,210v-17h61l8,1v34h5v52h-68v-25h1v-28h-7Z"/><path data-geo-id="19101" d="M677,486h35l34,-1v49l1,3l-69,1v-29Z"/><path data-geo-id="19121" d="M437,418v70h-67v-43h1v-25h56Z"/><path data-geo-id="19089" d="M617,24h18l6,-1h43l1,10v47h-37l-31,1Z"/><path data-geo-id="19147" d="M277,71v1h68v28l-1,1v40l-16,-1h-52l1,-19Z"/><path data-geo-id="19159" d="M335,539h68v65h-68Z"/><path data-geo-id="19045" d="M973,306v2l1,1v1l1,1v2l-1,2v2l-1,1v1h-1v6l2,1v5l-1,1v2l-1,2v1h-1v4l-1,2v8l-2,2h-3l-1,1l-3,2h-1v1l-2,1h-1l-2,2l-1,2l-3,5l-16,-1l-18,-7l-1,2l-10,2l-9,-1l-2,4l-6,2l-8,-7h-17v-23l-1,-11v-17l40,-1l52,-3Z"/><path data-geo-id="19025" d="M275,209l22,1h46v17h7v28h-1v25l-34,-1l-34,-1l1,-18v-34h-8Z"/><path data-geo-id="19195" d="M481,25h68v48h-68Z"/><path data-geo-id="19013" d="M619,211l-1,-17l22,-1h47v35h3v31l1,2h-35l-1,1h-33v-34h-3Z"/><path data-geo-id="19039" d="M404,488h67v52l-4,-1h-64v-33Z"/><path data-geo-id="19065" d="M686,141v-35l18,-1h51v40l1,1v46h-11l-58,1l-1,-20Z"/><path data-geo-id="19181" d="M506,423v65h-69v-70h39l17,1l6,4Z"/><path data-geo-id="19001" d="M302,418l11,1h44l14,1v25h-1v43h-35l-34,-1v-23h1Z"/><path data-geo-id="19037" d="M617,81l31,-1h37v23l1,3v35h-41l-27,1v-44Z"/><path data-geo-id="19081" d="M412,73h69v69h-69Z"/><path data-geo-id="19061" d="M825,190l34,-2v-5h3l1,1l4,1h4l3,1l1,1h2l4,1h1l6,3v1l1,1l1,2v2l1,1l1,3h1l2,2v2l1,2l1,2v3l1,1l-2,5v3l2,2l7,3l3,1l3,4v1l4,2l4,2l2,2l2,1l-28,1l1,17l-35,1l-34,1v-29l-2,-16Z"/><path data-geo-id="19157" d="M588,348h70v52l1,18h-64l-5,1v-19l-2,-4Z"/><path data-geo-id="19165" d="M246,346l-1,3v49h8l-1,20l-17,-1l-51,-1v-20h-8l1,-14v-32l1,-5h39Z"/><path data-geo-id="19011" d="M656,261h35l33,-1l1,5v65l1,17h-36l-32,1v-25h-1v-61Z"/><path data-geo-id="19185" d="M471,540h65l5,-1v63h-6l-2,1h-62Z"/><path data-geo-id="19097" d="M923,239l1,1v1l1,1l1,1l2,2l1,1l1,2h1l1,3h-1l1,2l-1,3l-1,2l1,2v3l1,1l1,1l2,2l1,2l1,1l3,2l1,1h3l1,1l2,1l2,1l3,1l2,1l2,1l7,4l1,1v2l1,2h4l2,4v3l-1,1v4h1v5h1v1h1h-18l-52,3l-40,1l-1,-5v-34l-1,-13l35,-1l-1,-17Z"/><path data-geo-id="19113" d="M724,260l20,1l16,-1h34v48l1,20v18h-57l-12,1l-1,-17v-65Z"/><path data-geo-id="19059" d="M210,22h39l28,1v48l-68,-1v-35Z"/><path data-geo-id="19043" d="M755,105l24,-1h34l4,-1v5l1,4v3h1v5l1,2v2l1,1v8h1v5h1l2,1l1,1l1,1l2,1v5l1,1v5h2v3l1,2v3l1,1v3l1,1v2l1,1v1l1,1h1l1,1v1h1l1,2h1l4,2l1,1l1,1h1l2,1l1,1h1l1,1v-1h1l3,1v1h1v5l-34,2l-59,1l-10,1v-46l-1,-1Z"/><path data-geo-id="19021" d="M207,138l69,2v35h-1v34l-31,-1l-39,-1l1,-14v-37Z"/><path data-geo-id="19129" d="M128,516l-1,-1l-1,-1v-2l2,-3v-2l-1,-1h-1v-2h-1l-1,-1v-1l2,-3l2,-3h-1v-7h-1v-1l-1,-1v-4h34l1,1h39v52l-39,-1l-26,-1l-1,-1l-1,-1l-2,-7l2,-7Z"/><path data-geo-id="19049" d="M365,348h69v38l-1,15h4v17l-10,2h-56v-20h-6Z"/><path data-geo-id="19125" d="M506,423v-4h67l1,17v52h-68Z"/><path data-geo-id="19123" d="M573,419h17l5,-1h47v36h1v33h-35l-34,1v-52Z"/><path data-geo-id="19007" d="M609,539v61h-3v1h-56l-2,1h-7v-63Z"/><path data-geo-id="19177" d="M678,538l69,-1v47l1,13l-5,-3h-11v1h-8l-4,1h-20l-1,1h-12l-3,1h-5v-34l-1,-1Z"/><path data-geo-id="19103" d="M726,347l12,-1h57l1,11v41l1,3v32h-17l-3,-5l-1,-11l-3,-1h-45v-17l-2,-13Z"/><path data-geo-id="19197" d="M412,142h69v70h-38l-31,-1v-19Z"/><path data-geo-id="19137" d="M199,484l35,2h34l-1,2v44l-1,6l-67,-2v-34Z"/><path data-geo-id="19175" d="M335,488h69l-1,18v33h-68v-2Z"/><path data-geo-id="19107" d="M711,417v48l1,21h-35l-34,1v-33h-1v-36h17Z"/><path data-geo-id="19169" d="M451,280h69v69h-69Z"/><path data-geo-id="19131" d="M617,24v57h-35l-33,1v-57h37Z"/><path data-geo-id="19075" d="M549,212h54l16,-1v17h3v34l-35,1v17h-34v-52h-4Z"/><path data-geo-id="19191" d="M684,23h31l20,-1h17l2,31v29l1,23h-51l-18,1l-1,-3v-70Z"/><path data-geo-id="19153" d="M434,348l17,1h52v52h3v22h-7l-6,-4l-17,-1h-39v-17h-4l1,-15Z"/><path data-geo-id="19161" d="M205,207l39,1l31,1l-1,17h8v34l-1,18h-34l-34,-2l1,-1v-36l1,-14l-10,-1Z"/><path data-geo-id="19127" d="M520,280h67l1,1v68h-68Z"/><path data-geo-id="19055" d="M756,192l10,-1l59,-1v24l2,16v29l-33,1h-34l-1,-2v-32h-2v-22Z"/><path data-geo-id="19051" d="M678,538v25l1,1v34h-26v1h-32v1h-12v-61h55Z"/><path data-geo-id="19067" d="M549,82l33,-1h35l1,17v44h-69Z"/><path data-geo-id="19009" d="M246,346l50,1v52h6v19h-50l1,-20h-8v-49Z"/><path data-geo-id="19105" d="M794,260l33,-1l34,-1l1,13v34l1,5v17l-41,1h-27l-1,-20Z"/><path data-geo-id="19083" d="M481,212h68v16h4v52h-67v-52h-5Z"/><path data-geo-id="19015" d="M383,280h68v69l-17,-1h-51Z"/><path data-geo-id="19099" d="M503,349h85v-1v48l2,4v19h-84v-18h-3Z"/><path data-geo-id="19149" d="M32,153h-1v-1h1v-1h1v-1h1v-2l1,-1l1,1v1l1,-1h1v-3h1v-1h1l-1,-1v-2l1,-1v-3h2v-1l-2,-1v-1h1v-1l49,2h24l25,2l-1,20v28l-1,20h-35l-16,-2h-19l-23,-1l2,-2l-3,-8h-3v-1l2,-1l-3,-7h-3l-1,-3h-2h1v-1l-2,-1v-1h-1l-1,-1v-1h-2l-2,-3v-1l-1,-3v-3l1,-1l1,-1h-1v-3l1,-1l1,-1h2v-2h1v-2l1,-1Z"/><path data-geo-id="19155" d="M117,448h-1v-4l2,-1l2,-1v-3h-1v-3l1,-3v-5l1,-1v-4l-1,-1h-1l-1,-1v1h-4v-1h-2l-1,-1h-3l-1,-1v-3h1l2,-3l45,2l29,1l51,1v37l-1,2v30l-35,-2h-39l-1,-1h-34v-1l1,-1h5v-3h-2v-1h-4l-1,1h-3l-1,-1v-1h-1v-4h1v-1l1,-1v-6l-1,-1v-1l1,-2v-1h-1l-1,-1l3,-3v3h-1v1h1v1h1v-1h2l2,-1v-2h1v-1h-1v-2l-1,-1v-1h-6v-1h-1v-1h-1v-1Z"/><path data-geo-id="19173" d="M266,538h63l6,1v65h-12l-1,-1h-42l-2,-1h-11l1,-7v-23l-2,-1Z"/><path data-geo-id="19145" d="M199,536l67,2v33l2,1v23l-1,7h-3l-3,-1h-34v-1h-11l-12,-1h-5l-1,-29v-27Z"/><path data-geo-id="19035" d="M139,137h41l27,1l-1,18v37l-1,14l-51,-1l-17,-1l1,-20v-28Z"/><path data-geo-id="19057" d="M798,501h51l11,-1l1,1v4l1,1v4l-1,1v5l-1,1v2l1,4v1h-1v3l-1,2l-1,2l-1,1l-1,1h-2l-1,1l-1,1v2l-1,1l-1,1l-1,1l-1,1l-1,2l-1,2l-2,1v1l-1,1l-2,2l-1,1v4l1,1l-1,6l-1,2l-1,6l1,1v4l-8,-4l-3,2l-16,-12l-12,-3l-6,-5h5v-43Z"/><path data-geo-id="19163" d="M951,367v8l-2,2l-1,3v3l-1,2l1,1v9l-2,1l-2,1l-1,1h-2l-2,1l-2,1l-1,1v2h-1l-2,3l-2,3l-10,1l-2,-1h-3v1l-1,1h-4l-1,2v2h-1v1l-1,1h-1l-1,1l-2,2h-1l-1,2h-3l-5,2h-2l-1,1h-8v-1l-1,-28h-17v-23l-1,-12h17l8,7l6,-2l2,-4l9,1l10,-2l1,-2l18,7Z"/><path data-geo-id="19111" d="M747,554l47,-1l6,5l12,3l16,12l3,-2l8,4v1l-1,3v1l-1,1l-1,1l-5,2l-3,3l-2,1h-1l-1,-1h-1l-4,1h-4l-6,2l-7,4l-1,2l-2,5h-1l-2,2l-1,2v2l1,1h1l4,9v1l-1,3v16l-6,2h-1l-1,-1h-2l-1,1v1h-2v-2h-1v1h-2l-1,-3v-2h-2l-3,-1l1,-4l-2,-1l1,-3v-1h-6l-1,-1h-1l-1,-1v-2l-1,-1v-1l-1,-1l-1,-1h-2l-1,-1v-7h-1l-1,-1h-2v-1h-5l-1,-1l-1,-1v-5h-1l-1,-1h-1l-1,-1l-1,-13Z"/><path data-geo-id="19071" d="M130,548l-1,-7l6,-4l-1,-3l26,1l39,1l-1,7v27l1,29h-21v-1h-28l-6,-1h-4l1,-5v-1l-1,-1l-1,-1h1l-1,-3v-2l-1,-1h-1v-1h-1v-1h-5v-1h-1v-1h-1l-1,-2v-1l-5,-5h-1l1,-8l7,-4Z"/><path data-geo-id="19095" d="M658,348l32,-1h36v39l2,13v17l-17,1l-52,1l-1,-18Z"/><path data-geo-id="19023" d="M549,142h69v52l1,17l-16,1h-54Z"/><path data-geo-id="19063" d="M277,23h68v49h-68v-3Z"/><path data-geo-id="19193" d="M58,230l1,-2h1v-4l-4,-6v-1h-7v-1l-1,1h-2v-4h-1v-3l1,-1v-1l-2,-5v-1l23,1h19l16,2h35l17,1l-1,17h11l-1,5v25l-1,22h-39l-61,-4h1l3,-1v-7l-1,-1l-1,-1l-1,-1l-2,-4v-4l-1,-2l-2,-1l-2,-1l-2,-2v-4l1,-1v-3Z"/><path data-geo-id="19041" d="M277,71v50l-1,19l-69,-2v-25l1,-3v-38l1,-2Z"/><path data-geo-id="19047" d="M162,275l26,1h25l34,2v30h-1v38l-29,-1h-57v-25h1v-30Z"/><path data-geo-id="19019" d="M687,193l58,-1h11l1,12v22h2v32l1,2l-16,1l-20,-1l-33,1l-1,-2v-31h-3Z"/><path data-geo-id="19143" d="M141,20h31l28,1l10,1l-1,13v35l-44,-2h-24v-18Z"/><path data-geo-id="19033" d="M549,73v69h-68v-69h53Z"/><path data-geo-id="19073" d="M315,279l34,1h34v68h-69l1,-11v-57Z"/><path data-geo-id="19179" d="M608,487h35l34,-1l1,23v29l-14,1h-55l-1,-13Z"/><path data-geo-id="19087" d="M746,485l35,-1h17v17l1,9v43h-5l-47,1v-17l-1,-3Z"/><path data-geo-id="19119" d="M61,17h12l19,1h22l6,1h1l16,1h4v48l-20,-1l-57,-2l-23,-1l-1,-1l-4,-1v-1l1,-1l-1,-3l1,-1h1l3,1h1l2,-1v-5l1,-4v-1l1,-6v-2h-1l-1,-1l-1,-2l-1,-1l-2,-1v-3h-1l-3,-2l-1,-1v-2l1,-1l2,-1v-5l-1,-1h-1v-1l13,1h8Z"/><path data-geo-id="19003" d="M268,486l33,1l34,1v51l-6,-1h-63l1,-6v-44Z"/><path data-geo-id="19133" d="M67,288v-3h-1l-2,-2l-1,-2v-7l-1,-1v-2l61,4h39l-1,15v30h-1v25l-43,-2l-26,-2l-1,-3v-2h-1l3,-5v-3h-1l1,-2l1,-1v-2l1,-1v-1l-1,-1h-2l-1,-1h-1l-2,1h-2l-1,-1v-1l1,-3v-2h-3l-1,2l-1,1h-2v-1l3,-5v-1l-1,-1l-1,-1l-3,-1v1h-2l-2,-7v-1l1,-1v-8h-3v-1h-1l-1,-1Z"/><path data-geo-id="19091" d="M344,141l26,1h42v52l-8,-1h-61l1,-19Z"/><path data-geo-id="19115" d="M780,433h17v16h44l-1,2l1,2l-1,2l-1,4l-2,4l-1,2v3l1,1l6,7l4,6h3l5,3l2,2l1,4l3,8l-1,1l-11,1h-51v-17h-17l-1,-20Z"/><path data-geo-id="19171" d="M587,280v-17l35,-1h33l1,-1l1,1v61h1v25h-70v-67Z"/><path data-geo-id="19135" d="M540,488h34l34,-1v39l1,13h-69Z"/><path data-geo-id="19139" d="M796,398l69,-2h17l1,28h-7l-3,1l-5,3l-2,1l-4,2l-4,-1l-3,-1l-2,1h-2l-2,1h-2l-2,1l-1,1v6l-2,2v1l-1,2v5h-44v-48Z"/><path data-geo-id="19117" d="M471,488h69v51h1l-5,1h-65Z"/><path data-geo-id="19079" d="M412,211l31,1h38v16h5v52h-69v-52h-5Z"/><path data-geo-id="19069" d="M549,142v70h-68v-70h9Z"/><path data-geo-id="19017" d="M618,142l27,-1h41v32l1,20h-47l-22,1Z"/><path data-geo-id="19141" d="M141,68h24l44,2l-1,2v38l-1,3v25l-27,-1h-41l1,-20v-44Z"/><path data-geo-id="19077" d="M365,348v52h6v20l-14,-1h-44l-11,-1v-19h-6v-52l18,1h39Z"/><path data-geo-id="19183" d="M711,417l17,-1h45l3,1l1,11l3,5v31l1,20l-35,1l-34,1l-1,-21Z"/><path data-geo-id="19167" d="M53,80v-1l-1,-4v-3h-6l-6,-1l-1,-1l-1,-1v-1l1,-1h2v-3l23,1l57,2l20,1l-1,5v44l-1,20l-25,-2h-24l-49,-2l-1,-2l1,-1l2,-2h1v-1l1,-1l-1,-1h1l1,-1v-1l-1,-1l-1,-1l2,-5l-1,-6v-2l-1,-1l1,-1l3,-1l3,-2h2v-2l1,-2v-1h-1v-1l3,-5v-2l-1,-2l-2,-2v-1Z"/><path data-geo-id="19005" d="M752,22h22l21,-1h13l1,-1l-1,2l1,1v2l-1,2v1h-1l-1,1l1,1v2l1,1l2,1l1,2v1l1,2v3l-1,2v1l-1,1v2l1,2h1l3,2l4,1l1,1l2,1l3,2l1,1l2,2l1,2v1l2,2v3h2v2l-1,1v1l-4,4l-1,1l-1,1l-1,1l-1,1l-1,2l-1,3l-1,1v2l-3,4l-1,1v10l-4,1h-34l-24,1l-1,-23v-29Z"/><path data-geo-id="19189" d="M413,25h68v48h-69l1,-1Z"/><path data-geo-id="19093" d="M154,206l51,1v17l10,1l-1,14v36l-1,1h-25l-26,-1l1,-22v-25l1,-5h-11Z"/><path data-geo-id="19029" d="M235,417l17,1h50v46h-1v23l-33,-1h-34v-30l1,-2Z"/>  <path class="mesh" d="M684,23l1,10v47h-37l-31,1h-35l-33,1v-9h-68v-48M365,348h-51l-18,-1v52h6v19h-50l-17,-1l-51,-1l-29,-1l-45,-2M335,604v-65h132l4,1v63M296,347l-50,-1v-38h1v-30h34l34,1v58l-1,11M413,25v47l-1,1v69h-42l-26,-1v33l-1,19v17h-46l-22,-1v-34h1v-35h52l16,1v-40l1,-1v-77M91,341l26,2l43,2h18l-1,5v32l-1,14h8v20M343,193h61l8,1v34h5v52h-68v-25h1v-28h-7v-17M618,142v-44l-1,-17v-57M281,278l1,-18v-34h-8l1,-17l-31,-1l-39,-1l1,-14v-37l1,-18l69,2l1,-19v-50v1h68M724,260l20,1l16,-1h34v48l1,20h27l41,-1v-17l40,-1l52,-3h18M951,367l-16,-1l-18,-7l-1,2l-10,2l-9,-1l-2,4l-6,2l-8,-7h-17M349,280l-34,-1M549,25v48M685,80v23l1,3l18,-1h51v40l1,1v46h-11l-58,1l-1,-20v-32h-41l-27,1v52l22,-1h47v35h3v31l1,2h-35l-1,1h-33v-34h-3v-17l-1,-17M412,194v-52M923,239l-28,1l1,17l-35,1l-34,1v-29l-2,-16v-24l34,-2v-5M587,280l1,1v67h70v52l1,18h-64l-5,1v-19l-2,-4v-48v1h-68M178,345h39l29,1l-1,3v49h8l-1,20M691,261l33,-1l1,5v65l1,17h-36l-32,1v-25h-1v-61l-1,-1M403,604v-98l1,-18h-34v-43h1v-25h56l10,-2v70h34v52h65l5,-1v63M863,310l-1,-5v-34l-1,-13M277,23v48l-68,-1v-35l1,-13M752,22l2,31v29l1,23l24,-1h34l4,-1M760,260l-1,-2v-32h-2v-22l-1,-12M125,483h34l1,1h39v52l-39,-1l-26,-1M434,348v38l-1,15h4v17h39l17,1l6,4h7v-4h67l1,17v52h-68M573,419h17M642,418v36h1v33h-35l-34,1M541,539h68v61M747,537v47l1,13M609,539h55l14,-1M486,280v-52h-5v-16h68v-70h-68v70h-38l-31,-1M199,599l-1,-29v-27l1,-7M267,602l1,-7v-23l-2,-1v-33h63l6,1v-51M796,398l1,3v32h-17l-3,-5l-1,-11l-3,-1h-45l-17,1v48l1,21M677,486h35l34,-1v49l1,3l-69,1v-29l-1,-23l-34,1M370,488h-35l-34,-1v-23h1v-46l11,1h44l14,1v-20h-6v-52h69l17,1v-69h69v69h-17v52h3v18M622,262l-35,1v17h-34v-52h-4v-16h54l16,-1M827,259l-33,1M618,142h-69v-60M417,280h34M383,348v-68M41,133l49,2h24l25,2l-1,20v28l-1,20h-35l-16,-2h-19l-23,-1M235,417v37l-1,2v30M247,278l-34,-2l1,-1v-36l1,-14l-10,-1v-17l-51,-1l-17,-1M839,575l-8,-4l-3,2l-16,-12l-12,-3l-6,-5h5v-43l-1,-9h51l11,-1M883,424l-1,-28h-17M747,554l47,-1M154,206l-1,17h11l-1,5v25l-1,22h-39l-61,-4M160,345v-25h1v-30l1,-15l26,1h25M139,137h41l27,1v-25l1,-3v-38l1,-2l-44,-2h-24v-48M609,539l-1,-13v-39M795,346v-18M746,485l35,-1h17v17M139,137l1,-20v-44l1,-5l-20,-1l-57,-2l-23,-1M268,486l33,1M797,433v16h44M781,484l-1,-20v-31M541,539h-1v-51M503,349h-52M412,73h69v69h-69M825,190l-59,1l-10,1M679,598v-34l-1,-1v-25M199,484l35,2h34l-1,2v44l-1,6l-67,-2M795,346h-57l-12,1M728,416v-17l-2,-13v-39M659,418l52,-1M520,280h33M686,141v-35M437,488h-33M506,488h-35M506,423v65M863,327l1,11v23M864,361l1,12v23M865,396l-69,2M796,398v-41l-1,-11"/><g class="cities"><circle r="7" cx="465" cy="401"/><text x="465" y="401">Des Moines</text><circle r="7" cx="754" cy="318"/><text x="754" y="318">Cedar Rapids</text><circle r="7" cx="914" cy="410"/><text x="914" y="410">Davenport</text></g></svg>