<svg version="1.1" xmlns="http://www.w3.org/2000/svg" width="1000" height="616" viewBox="0 0 1000 616"><path data-geo-id="2502328285" d="M719,277l9,-2l4,7v2h5l3,7l-1,5l-10,2l-5,2h-6v-10l-4,-13Z"/><path data-geo-id="2502338855" d="M753,273h5l5,1l4,6h1l5,6l10,14l-2,5l-9,5l-8,-7l-10,-6l-7,-7l-2,-14Z"/><path data-geo-id="2502350145" d="M717,270l13,-8h8l9,4l6,7l-8,3l2,14l-7,1l-3,-7h-5v-2l-4,-7l-9,2Z"/><path data-geo-id="2502372985" d="M748,417l1,-18l1,-6l8,9h6l25,-2l-2,8v7l3,6l-10,3l2,8l-6,-4l-10,-1l2,-4l-7,1l2,5l-7,-5v1l-2,-2l-1,1l-3,2Z"/><path data-geo-id="2500300975" d="M46,222l4,2l4,7v5l1,12h-5v4l-12,-2Z"/><path data-geo-id="2500334970" d="M83,182l19,4l-4,13l-2,13l-12,2v-11h-11v-6Z"/><path data-geo-id="2500344385" d="M93,104l24,1l-1,11l-8,-3v9l-14,-3l-4,-1Z"/><path data-geo-id="2500351580" d="M117,259v-18l11,-1v3l8,-1v4l9,-1h13l-8,34l-9,-2v3h-3l-1,-17l-20,3v-7Z"/><path data-geo-id="2500359665" d="M117,266l20,-3l1,17h3l1,8l-2,8l4,13v6h-13l-18,-1l-3,-40l6,-1Z"/><path data-geo-id="2500379985" d="M89,76l1,-5l3,-8l27,1l-1,12l-3,1l2,17l-1,11l-24,-1l-11,-1l3,-12Z"/><path data-geo-id="2500516425" d="M669,443l2,1l15,-9l13,-8l-2,12l-1,12l7,16l5,4v9l-4,1l-4,-7l-1,5l4,1l5,16l-5,1v8l-4,-7l-5,5l1,3l-11,2l-1,-9l-1,-13l-4,-9l2,-1v-11l-4,-5Z"/><path data-geo-id="2500525240" d="M665,402l-1,-2v-1l1,-2h14l6,6l-2,8l27,-5l4,10l-5,2l1,1l-6,3l-5,5l-13,8v-13l-16,-4l-12,-3h1l1,-5l6,-7Z"/><path data-geo-id="2500556060" d="M664,352l3,-12l-2,-5l9,2v1l1,7l9,7l4,5l1,5h2v3h-1v1l1,6l-4,1l-2,-3l-9,3v-7h-4l-7,-9Z"/><path data-geo-id="2500568750" d="M611,412l28,-2l-1,-13l5,1l1,9h4l-1,18l-7,-1l-3,9l-8,-4v6l-3,-4l-4,-8l-1,-1l-2,-2l-2,-1l-3,-1v-1h-1l-1,-1l-2,-1l-2,-1h-2v-2h-1Z"/><path data-geo-id="2501121780" d="M294,118l2,-1l7,-2l-1,-4l23,-7l4,11v4h-11l-6,-4l-10,11l-10,-1Z"/><path data-geo-id="2501127100" d="M258,101h3l10,-1l11,-2v3l-2,1l-1,11l-8,6l2,6l-5,4l-11,-4h-3Z"/><path data-geo-id="2501342145" d="M321,277l9,-3l5,2l3,4l13,1l1,18v22h-17l-8,-1h-1l-3,-25Z"/><path data-geo-id="2501365825" d="M202,294l35,8l-2,16h-12l1,2v1l-1,3l-1,-1l-1,1v-1h-1h1v1h-1h1v1h1l-1,1v2l-2,2l-12,2l1,-14l-6,-1l1,-15Z"/><path data-geo-id="2501552560" d="M325,182l2,5l3,24l-13,1l-1,-8l-17,3l-3,-21Z"/><path data-geo-id="2502174175" d="M601,221l15,-6l11,4h-1l-17,16l-3,1Z"/><path data-geo-id="2502773895" d="M455,305l14,-5l6,24h-21l-1,-10Z"/><path data-geo-id="2502775155" d="M471,188l16,2l4,4l-4,6l-1,21l-1,1l-5,-11l-4,3l-3,-10Z"/><path data-geo-id="2502741585" d="M531,310h8v18h-8Z"/><path data-geo-id="2502703740" d="M397,160h1l24,22l-8,6l-20,17l-2,-2l-22,-20Z"/><path data-geo-id="2502730945" d="M540,276l-1,2l16,13l1,5h-8l-11,-15Z"/><path data-geo-id="2502734165" d="M495,163l3,-15l4,-6l7,1l11,3l2,4l-2,13l-2,-1l-4,17l-8,-2l-8,9v-22Z"/><path data-geo-id="2502728950" d="M524,135l5,4l5,-3l12,3l2,8l-8,17l4,2l-1,7l-23,-10l2,-13l-2,-4l1,-8Z"/><path data-geo-id="2502725485" d="M412,118l16,-10l9,7l1,6l5,-3l1,3l-10,17l-4,5l-6,-5l-5,-5l1,-6l-7,-1Z"/><path data-geo-id="2502753225" d="M384,110h4l1,1l1,1l2,2v15l6,10l2,7l1,3l1,7l-4,4h-1l-22,-24l2,-12Z"/><path data-geo-id="2502753120" d="M342,186l2,-5l6,-6l-2,-14l11,-12l14,-13h2l22,24l-27,23l-4,8l-11,1l-6,7l-1,8l-7,3v-23Z"/><path data-geo-id="2502728740" d="M370,183l22,20l-5,7l-6,4l-8,10l-3,-3l-2,6v-6l-16,3l-1,-12l-3,-5l1,-8l6,-7l11,-1Z"/><path data-geo-id="2502741165" d="M540,269h1v-2l4,-2h10l1,8h6v13l-7,5l-16,-13l1,-2Z"/><path data-geo-id="2502328495" d="M714,301l4,-1h6l5,-2l2,11l-2,7l3,8l-7,2l-9,-4v3l-4,-15l-1,-9Z"/><path data-geo-id="2502375260" d="M670,314l12,-2v4l10,-1l2,13l-7,5l-13,5v-1Z"/><path data-geo-id="2502379530" d="M695,301l15,-5l4,5h-3l1,9l-5,-2l-5,2l-7,-4Z"/><path data-geo-id="2502556585" d="M680,180l1,-7l3,2v1l7,2l-2,9l3,4v1l-1,1l-2,-2l-5,-1l-5,-6Z"/><path data-geo-id="2502340850" d="M688,357l8,-4l7,2l3,-9l7,-3l10,7l2,-2l9,9l7,15l-2,4l6,12v2h2l3,3l-1,6l-32,6v-13l-7,-8l1,-9l-18,-10h-3h1v-3h-2Z"/><path data-geo-id="2502357600" d="M710,406l7,-1l32,-6l-1,18l-3,2l-3,16l-17,3l-5,-21l-6,-1Z"/><path data-geo-id="2502705490" d="M513,183l16,8l5,4l-5,6l-6,7l-4,-4l-10,-1v-9Z"/><path data-geo-id="2500916250" d="M686,130l1,-1v-1l3,-7l6,-3l8,-5l-1,5l4,3l4,6l-1,9l-1,-1l1,3l-1,1l-6,-2l-17,-6Z"/><path data-geo-id="2500927900" d="M709,107h2l3,-3l-2,-7h10l1,5l6,-2h1l1,2l-1,1l5,-1l-1,8l5,9h-4l-27,-9Z"/><path data-geo-id="2500945175" d="M695,62l1,-3l11,-8l6,-4l16,-1h2v-1h1l2,-2v2l2,-1l-1,-1l1,-1v1l1,10l3,10l-4,1l-4,-1l-13,2l-5,1l-8,3l-9,-6l-2,-1Z"/><path data-geo-id="2500932310" d="M696,92l4,-3l23,-12v-4l9,-3l3,7l5,2l1,6l12,2l5,7l-10,-4l-5,2l-2,3l-6,7l-5,1l1,-1l-1,-2h-1l-6,2l-1,-5h-10l-5,-4l-4,2ZM739,71l3,-3l4,12l-4,1Z"/><path data-geo-id="2500941095" d="M671,115l1,-7l9,-5l10,7h1l1,1v-1v1l-2,4l5,3l-6,3l-3,7v1l-1,1v1l-8,-1v-7Z"/><path data-geo-id="2500945245" d="M702,38l4,-6l5,2l4,3v1l10,8h4l-16,1l-6,4Z"/><path data-geo-id="2500958405" d="M692,84l14,-15l8,-3l5,-1l13,-2v7l-9,3v4l-23,12ZM736,64l4,-1l2,4v1l-3,3v-1Z"/><path data-geo-id="2501513590" d="M192,176l8,-1l4,-1v7l5,-1v7l11,1l-1,15l-12,2v5l-7,-1h-10l-4,-32Z"/><path data-geo-id="2501516040" d="M164,163l2,-10l26,6l3,-1l4,1l1,16l-8,1l-30,-6Z"/><path data-geo-id="2501526290" d="M199,159l24,7l1,6h-3l-1,16l-11,-1v-7l-5,1v-7l-4,1Z"/><path data-geo-id="2502104930" d="M555,291l7,-5l9,-2l-4,27v15h-4l-3,1h-4v-31Z"/><path data-geo-id="2502109175" d="M646,214l8,-7h5l-3,10l-8,9l-4,-2l-3,-3Z"/><path data-geo-id="2502111315" d="M641,273l3,-1l2,-10l3,-5l4,-6v-1v1l8,9l9,13l-8,7l-14,3l-3,-2Z"/><path data-geo-id="2502114640" d="M728,238l6,-1l10,5l-1,4h1v-1l-1,7l-9,8l-5,-5l-3,-9Z"/><path data-geo-id="2502141515" d="M587,264l10,-3l7,7l-4,5l-2,6l-5,5h-5l-6,-15l-1,-4Z"/><path data-geo-id="2502141690" d="M653,250l6,-6l-1,-5l5,-3h10v-3h3l3,8l-8,4l3,5l-8,4l-1,5l-4,1l-8,-9Z"/><path data-geo-id="2502144105" d="M608,236l1,-1l17,-16h1l6,10l4,2l1,1l-2,4h-6l-4,4l-10,1Z"/><path data-geo-id="2502150250" d="M625,267l10,-11l6,1l5,5l-2,10l-3,1l-4,6Z"/><path data-geo-id="2502155955" d="M661,260l4,-1h8l1,-1h1v5l8,3v2l-1,4l-3,11l-6,-6l-3,-4Z"/><path data-geo-id="2502167945" d="M648,283l14,-3l8,-7l3,4l-4,7l3,11l-6,3l-15,8l2,-14Z"/><path data-geo-id="2502172495" d="M607,279h8v-14l2,-4l5,-1l3,7l12,12l-11,6l-1,9l-9,3l-2,4l-6,-13Z"/><path data-geo-id="2500546575" d="M587,361v-23h5l20,-11l5,10l-23,21l-7,5Z"/><path data-geo-id="2500500520" d="M704,422l6,-3l-1,-1l5,-2l6,1l5,21l2,7l-15,6v-2l-5,-13Z"/><path data-geo-id="2500502690" d="M587,363l7,-5l23,-21l3,4l13,24l-6,-1l-19,3l-9,2h-4l-6,1Z"/><path data-geo-id="2500516950" d="M639,375l17,4l4,5l-2,11l-2,10v2h-12l-1,-9l-5,-1l-3,-23Z"/><path data-geo-id="2500520100" d="M644,310l7,-4l15,-8l4,16l4,23l-9,-2l-3,-1l-13,-2l-3,-4Z"/><path data-geo-id="2500538225" d="M612,327l29,-15l3,-2l2,18l-26,13l-3,-4Z"/><path data-geo-id="2500545000" d="M697,439l2,-12l5,-5l3,14l5,13h-1l-1,11l6,13l-2,3l-6,-6v1l-5,-4l-7,-16Z"/><path data-geo-id="2500549970" d="M620,341l26,-13l3,4l13,2l-9,13l-16,17l-4,1Z"/><path data-geo-id="2500556375" d="M608,367l19,-3l6,1l4,-1l2,11l-4,-1l3,23l1,13l-28,2l-1,-25Z"/><path data-geo-id="2500562430" d="M637,433l3,-9l7,1l1,-18h8l2,5l-5,4v6l-8,11l-8,3v-3Z"/><path data-geo-id="2501731540" d="M529,191l11,-5l10,4l13,3l-1,4l-33,4l5,-6Z"/><path data-geo-id="2501737875" d="M664,173l1,1l5,1l11,-2l-1,7l-12,4l-4,-3Z"/><path data-geo-id="2500334340" d="M80,149l14,-30l14,3v9l-3,5l7,1l-3,5l2,4l7,1l-5,9Z"/><path data-geo-id="2500938400" d="M717,154l1,-1l4,-7l7,3l-4,7l-6,4v1l-6,-2Z"/><path data-geo-id="2501529265" d="M247,199l1,-14l23,-4l2,8h-4v16l-12,1l-1,-9Z"/><path data-geo-id="2502712715" d="M416,270l2,-3l22,-2h6l1,10l4,21l-3,4l-22,7l-1,-7l-13,-7v-9l5,-2Z"/><path data-geo-id="2500926150" d="M755,101l1,-1l4,-5l13,4l-3,-5l10,-9l1,1l-1,17l6,4v1l-3,7l-8,9l3,-6l-6,-4l-2,6l-9,6l-8,-9l-3,-6Z"/><path data-geo-id="2501737000" d="M589,97l3,2l16,-4l3,6l3,-3l1,9l-3,6l-4,1l-8,-1l-9,-5l-4,-7Z"/><path data-geo-id="2500927620" d="M671,71l4,-8l6,-11l14,10l2,1l-13,7l-7,1l1,5Z"/><path data-geo-id="2500103690" d="M834,450l19,-28h1l4,1l2,1h18l1,3l-16,1l-1,3l7,2l17,-1v10l-3,13l-1,-1v5l-11,4l-7,-4l-7,4l1,4l-8,3v-6l-3,-2l-7,3l-1,6v2h-1l-1,3v1h-1l-3,-4v-1l4,-7v-1h-1h1h-1l1,-10ZM849,470h-8l6,-8l3,2l-1,5Z"/><path data-geo-id="2500107980" d="M917,419v-1h2l1,-1l2,-2l1,-1h2h-1l1,-1h2l4,-2h2l3,-1h1l2,-2h2l1,-1h1l1,-1l4,-2h1l3,1v1l4,11l-1,5l2,3h-11l-4,3l-12,-1v3l-11,4Z"/><path data-geo-id="2500123105" d="M791,453l1,-1l12,5l8,3l4,13l7,2l-2,5l-2,4v-1l-3,-3l-1,11h-1v-1h-2l-2,1h-1l-6,1l-1,1h-5l-1,1h-6l-1,1h-1l-1,1l-2,1l-1,1l-1,1v1l-1,1v2l-1,1l-6,-5l6,-6v-6l4,-4l-3,-13l3,-7l-3,-6l9,-4Z"/><path data-geo-id="2500151440" d="M953,399h2v1l4,1l-1,2l7,-7l8,5l2,26h-1v-1l-3,-14l-8,1l1,8l-7,3v1l-2,-3l1,-5l-4,-11v-1l-3,-1l3,-4Z"/><path data-geo-id="2500174385" d="M933,343l22,-3v3h1l1,3l9,24l-11,2h-1l-1,-1v-1l-3,-3l3,-5l-8,-5l-1,-4l-9,9v-11l-2,-8Z"/><path data-geo-id="2500960015" d="M678,152l6,1l2,2l4,15l5,3l-4,5l-7,-2v-1l-3,-2l-8,-11Z"/><path data-geo-id="2500970150" d="M693,111v-1l1,-3h-1l4,-7l-1,-8l7,3l4,-2l5,4l2,7l-3,3h-2l-1,3l-4,3l-8,5l-5,-3Z"/><path data-geo-id="2500977150" d="M681,52l5,-9l-1,-3l9,-2h8l5,13l-11,8l-1,3Z"/><path data-geo-id="2500901465" d="M620,98l4,-4l5,-12l8,2l1,7l9,-2l4,2l2,2l13,24l-15,1l-3,-3l-3,-1l-1,5l-5,-4h1l1,-4Z"/><path data-geo-id="2500907420" d="M671,71l7,5l2,5l12,3l8,5l-4,3l1,8l-4,7h1l-1,3v1l-1,-1h-1l-10,-7l-5,-12l-14,-15l-4,-6Z"/><path data-geo-id="2500921850" d="M735,102l6,-7l2,-3l9,1h1l-1,1l-4,7h7l-5,10l3,6l-14,2l-5,-9Z"/><path data-geo-id="2500934550" d="M651,75l-3,8l1,2h1v2l1,4l-4,-2l-9,2l-1,-7l-1,-5l6,-5Z"/><path data-geo-id="2500937490" d="M684,153l6,-4l10,6l4,1l3,9l-2,2l-1,2h-2l-7,4l-5,-3l-4,-15Z"/><path data-geo-id="2500937560" d="M667,143l1,-10l5,-5h5v2l3,9l9,10l-6,4l-6,-1v-2l-1,-1v-1l-6,-3Z"/><path data-geo-id="2500937995" d="M735,119h4l14,-2l8,9l-11,2l-2,3h-7l-4,-8Z"/><path data-geo-id="2500940710" d="M620,70l1,-1l1,-2h10l7,2l-1,-5v-9l-1,-5l1,-1l14,12l4,7l-5,7l-9,-1l-6,5l1,5l-8,-2l-5,12Z"/><path data-geo-id="2500943580" d="M703,169h1l-1,3l1,5l7,2l-7,4l-1,-14Z"/><path data-geo-id="2501116670" d="M247,134l5,-1l5,-8l11,4l5,-4l5,6l-3,14l2,6l-7,14l-7,-2h-11l-2,1l4,-22Z"/><path data-geo-id="2501142040" d="M157,66l23,1h1l-2,6h-4l1,6l-20,1Z"/><path data-geo-id="2500959105" d="M700,155l8,-9l1,-7l1,-1l1,-1l5,4v-1h6l-6,8l1,6l-4,5l-9,-3Z"/><path data-geo-id="2501135180" d="M287,150l16,-2l5,2l-3,26l-10,1l-11,2l-1,-11l3,-6Z"/><path data-geo-id="2501352144" d="M319,266l9,-2v-4l7,-7l12,-4l18,-4l-11,15v6l-1,15h-2l-13,-1l-3,-4l-5,-2l-9,3l-2,-11Z"/><path data-geo-id="2501358650" d="M187,286l2,-13l5,-20l1,-3l1,2l13,20v3l-9,8l-2,7Z"/><path data-geo-id="2501370045" d="M141,280v-3l9,2l14,2l3,21l-3,15l-4,-1h-14l-2,-1v-6l-4,-13l2,-8Z"/><path data-geo-id="2501135285" d="M257,70l8,1h3l1,23l2,6l-10,1l-1,-5l-6,-5l-1,-6l-5,-6v-9Z"/><path data-geo-id="2501145490" d="M327,153h3l1,-17l22,1l6,12l-11,12l2,14l-6,6l-2,5l-1,1v23l-6,9l-5,5v-13l-3,-24l-2,-5l-1,-14l3,-2Z"/><path data-geo-id="2501151265" d="M329,115l11,-2v-6l5,-4l2,-6l6,-6l11,5l1,8l-1,9l-6,1l-4,4l1,8h-3l1,11l-22,-1l1,-17h-3Z"/><path data-geo-id="2501336300" d="M268,305l13,4l2,10l-8,1l-3,1l-3,1h-6l-1,-1v-6Z"/><path data-geo-id="2500726325" d="M769,504l7,2l-9,2l-2,6l-11,4l1,4l-12,6l-1,-7l9,-4l9,-9ZM739,525l2,4l-6,2l-2,-6ZM730,534l-6,4h-8l13,-9Z"/><path data-geo-id="2500769940" d="M797,534l-5,-3l1,8l-12,-16h1l14,-8l1,10l3,2l-3,7Z"/><path data-geo-id="2501105560" d="M269,71h7l13,1l6,18l1,5l-14,3l-11,2l-2,-6l-1,-23Z"/><path data-geo-id="2501705070" d="M631,187l3,-3l13,5l-1,2v7l-10,-4Z"/><path data-geo-id="2501711000" d="M646,191l1,-2l5,-1l2,3l2,2l7,5l5,1l2,1l-3,4l-10,1l-1,-3h-7l-3,-4Z"/><path data-geo-id="2501713135" d="M577,100l10,1l4,7l9,5l8,1l1,3l-9,15l-4,-1l-11,5l-8,-36Z"/><path data-geo-id="2501721990" d="M668,188v-4l12,-4l-1,4l-5,8l-6,1l1,-1v-1h-1v1v-4Z"/><path data-geo-id="2501730700" d="M555,265l12,-10l-2,-5l12,-2l5,8l5,5v3l-6,1l1,4h-9l-7,7l-4,1v-4h-6Z"/><path data-geo-id="2501112505" d="M174,97l6,-5l8,-2h11l1,10l5,4h4l12,-8l2,11l9,-2l-1,2l-6,3l-19,1l-1,1l-31,-6l1,-4Z"/><path data-geo-id="2501114885" d="M247,70h1v9l5,6l1,6l6,5l1,5h-3l-26,4l-9,2l-2,-11l-3,-27h5Z"/><path data-geo-id="2501743895" d="M587,220h9l5,-6v7l5,15l1,7l-7,1l-7,-6l-8,-3l-3,-7Z"/><path data-geo-id="2501748955" d="M651,118l15,-1l5,-2l7,8v5h-5l-5,5l-8,-3l-3,2h-2l-4,3Z"/><path data-geo-id="2501752805" d="M515,81h17l5,1h7l-3,9l5,5l-12,3l-2,9l-3,2l-15,-9Z"/><path data-geo-id="2501768260" d="M562,197l1,-4l1,-4l6,-2l2,-5l2,-5l9,4l7,4l1,9h-4l-2,8l1,8l-3,1l-23,-4Z"/><path data-geo-id="2501769415" d="M608,114l4,-1l3,-6l-1,-9h6l21,13l-1,4h-1l5,4l-3,2l-4,9l-6,-2l-3,-2Z"/><path data-geo-id="2501771025" d="M556,101h6l7,-6l-2,-12h22l-2,8l2,6l-2,4l-10,-1l-20,12Z"/><path data-geo-id="2501773440" d="M630,201l6,-7l10,4l3,4l-5,2Z"/><path data-geo-id="2501773790" d="M585,202l2,-8h4l-1,-9l9,6l2,23l-5,6h-9l-4,-9l3,-1Z"/><path data-geo-id="2501780230" d="M629,132l2,-4l6,2l4,-9l3,-2l1,-5l3,1l3,3v25l-9,5l-9,-10Z"/><path data-geo-id="2501761380" d="M577,248v-7l6,-2l2,-4l8,3l7,6l-2,12l-1,5l-10,3v-3l-5,-5Z"/><path data-geo-id="2501761590" d="M512,114l1,-8l4,4l5,11l5,4l-3,10l-3,3l-1,8l-11,-3Z"/><path data-geo-id="2502308085" d="M674,338l13,-5l7,-5l16,1l5,4l-3,5l1,5l-7,3l-3,9l-7,-2l-8,4l-4,-5l-9,-7Z"/><path data-geo-id="2502309000" d="M666,298l6,-3l11,-5l4,-3l1,5l5,-1l1,5l1,5v5l-4,4l1,5l-10,1v-4l-12,2Z"/><path data-geo-id="2502311665" d="M753,350l1,5l19,31l-9,10v6h-6l-8,-9l-3,-3h-2v-2l-6,-12l2,-4l-7,-15l14,-7Z"/><path data-geo-id="2502330210" d="M722,238h6l-2,8l3,9l5,5l-4,2l-13,8l-10,6l3,-25l-5,-8l5,-5h6l3,6l3,-7Z"/><path data-geo-id="2502333920" d="M679,397l8,-8l9,-8l-4,-16h1l18,10l-1,9l7,8v13l-7,1l-27,5l2,-8Z"/><path data-geo-id="2502354310" d="M770,337l4,2l4,7l8,3l-5,-12l8,15l7,-3l12,7l5,14l2,12l-5,9l2,7l-8,9l-17,8v-7l2,-8l-25,2v-6l9,-10l-19,-31l8,-7ZM790,326h2l1,1l-7,7l-2,-2l6,-5Z"/><path data-geo-id="2502354415" d="M740,327h2l2,12l7,4l2,7h-5l-14,7l-9,-9l11,-11Z"/><path data-geo-id="2502360330" d="M734,260l9,-8l1,-7l6,-3l3,9l8,6l2,14l-5,2h-5l-6,-7l-9,-4h-8Z"/><path data-geo-id="2501147835" d="M302,73h14l9,31l-23,7l1,4l-7,2l2,-6l-2,-5l6,-7l-2,-6l-5,-3l-6,-18Z"/><path data-geo-id="2501129475" d="M168,132l6,-26l31,6l-4,19l-7,1v6Z"/><path data-geo-id="2500701585" d="M749,570l-1,6h-4l-1,-1l-9,-9l7,-6l6,3l1,7Z"/><path data-geo-id="2501531785" d="M183,245l8,-9v-24l-1,-3h10l7,1l2,29v4l-11,2l-3,5l-1,3Z"/><path data-geo-id="2502300170" d="M693,283l9,-4l1,-2l1,6l6,13l-15,5l-1,-5l-1,-5l-5,1l-1,-5Z"/><path data-geo-id="2502317895" d="M754,297l10,6l8,7l9,-5l5,14l4,3l2,4h-2v-1l-9,-11l-5,2l-2,6l3,5l-6,-1l-6,3v1l-5,-5l-11,-2l1,-8h-4Z"/><path data-geo-id="2502318455" d="M695,306l7,4l5,-2l5,2l4,15l-1,8l-5,-4l-16,-1l-2,-13l-1,-5Z"/><path data-geo-id="2502327795" d="M715,333l1,-8v-3l9,4l7,-2l6,-1l2,4l-4,10l-11,11l-2,2l-10,-7l-1,-5Z"/><path data-geo-id="2501504825" d="M330,211v13l2,7l4,4l-1,18l-7,7v4l-9,2l-2,-17l-11,1l-5,-28l-2,-15l17,-3l1,8Z"/><path data-geo-id="2501519370" d="M261,228l1,1l-5,5l-6,16h-4l-5,2l1,-8l-5,-5l2,-3l-10,-4v-3l23,-2Z"/><path data-geo-id="2501527690" d="M257,206l12,-1v-16h4l-2,-8l9,-2v10l4,-1l-2,13v22h-10l-9,6h-1l-1,-1l9,-13l-14,-7Z"/><path data-geo-id="2501572880" d="M330,224l5,-5l6,-9l7,-3l3,5l1,12l16,-3v22l-3,2l-18,4l-12,4l1,-18l-4,-4l-2,-7Z"/><path data-geo-id="2501579915" d="M220,188l1,-16h3l15,-2l-1,16l10,-1l-1,14l-18,2l-10,2Z"/><path data-geo-id="2502331645" d="M734,237l-6,1h-6l-4,-15l5,10Z"/><path data-geo-id="2502333220" d="M749,323l11,2l5,5l3,5l2,2l-8,11l-8,7l-1,-5l-2,-7l-7,-4l-2,-12Z"/><path data-geo-id="2502338540" d="M742,435l3,-16l3,-2l2,9l3,-2l1,-1l2,2l9,9v11l-11,-11l4,12l-6,-1v1l-6,1l-4,-4Z"/><path data-geo-id="2502339450" d="M725,438l17,-3v8l4,4l6,-1l2,9l-16,-2l-2,3l6,3l-10,5h-1l-4,-19Z"/><path data-geo-id="2502352630" d="M729,298l10,-2l1,-5l7,-1l7,7l-8,18h4l-1,8l-7,4h-2l-2,-4l-6,1l-3,-8l2,-7Z"/><path data-geo-id="2502357775" d="M703,277l4,-1l10,-6l2,7h-5l4,13v10l-4,1l-4,-5l-6,-13Z"/><path data-geo-id="2500523000" d="M658,416v-1l12,3l16,4v13l-15,9l-2,-1l-10,-1l-6,23v8h-1v-7l1,-1l1,-10v-2h-2l-1,-1h-4l-1,-1h-3v-2h-3v-1h-3v-1l8,-10l3,-6l6,-6l3,-9Z"/><path data-geo-id="2500569170" d="M637,364l16,-17l9,-13l3,1l2,5l-3,12l1,5l7,9h4v7l9,-3l2,3l4,-1l-1,-6v-1h2l4,16l-9,8l-18,-10l-5,-2l-4,7l-4,-5l-17,-4Z"/><path data-geo-id="2500577570" d="M653,473v-8l6,-23l10,1l7,17l4,5v11l-2,1l4,9l1,13l1,9l-4,3l-4,-3l-11,-2l12,-2l-2,-15l-5,-4l3,9l-3,10l-8,-10l-5,-1l6,7l3,8l-8,3v-4l-1,-1v-1l-1,-13v-5l-1,-3l-2,-11Z"/><path data-geo-id="2501731085" d="M529,252l3,-12l8,-3h1l2,1h6v4l10,2v6h6l2,5l-12,10h-10l-4,2v-1l-7,-3l-5,-8Z"/><path data-geo-id="2501738715" d="M523,208l6,-7l33,-4l-2,10l-1,8h-11l-11,3l-4,4Z"/><path data-geo-id="2501745560" d="M619,206l11,-5l14,3l-1,9l3,1l-5,7l3,3l-7,7l-4,-2l-6,-10l-11,-4l4,-3Z"/><path data-geo-id="2501700380" d="M556,167l7,-13l6,-3l5,-7l8,-2l4,11l-12,24l-9,-5Z"/><path data-geo-id="2501701605" d="M639,177h8l5,7v4l-5,1l-13,-5Z"/><path data-geo-id="2501701955" d="M451,79l22,1h11l-1,23v2l-22,2l1,-15l-2,-2Z"/><path data-geo-id="2501702130" d="M549,238l1,-1l4,1l2,-9l12,5l9,7v7l-12,2h-6v-6l-10,-2Z"/><path data-geo-id="2501703005" d="M524,135l3,-10h2l23,4l-4,4l-2,6l-12,-3l-5,3Z"/><path data-geo-id="2502709105" d="M385,267l4,-12h4l1,-8l3,3l8,-1l-1,1v1l-1,5l5,4l-4,8l1,4l-5,1l1,4l-7,1v-4h-6l-2,1Z"/><path data-geo-id="2501501325" d="M280,179h4l11,-2l1,9l3,21l2,15l-17,2l-2,-1v-22l2,-13l-4,1Z"/><path data-geo-id="2502507000" d="M637,231l7,-7l4,2l8,-9l3,-10h-5l-8,7l-3,-1l1,-9l5,-2h7l1,3l10,-1l3,-4l1,1l3,4l10,5v2l-8,2l-1,11l2,6l-1,2h-3v3h-10l-5,3l1,5l-6,6l-7,-9l-8,-9ZM670,200l-2,-1l-1,-6l8,4ZM679,195l5,-5l5,1l2,2l-3,3l-2,1h1l-1,5h1l3,1l1,1l-6,4l-10,-9l4,-4Z"/><path data-geo-id="2502581005" d="M688,196l3,-3l1,-1v1h4v11l-1,1l-1,-1l1,-5l-5,1l-2,-5Z"/><path data-geo-id="2502513205" d="M674,192l5,-8l5,6l-5,5v-1h-2Z"/><path data-geo-id="2502745105" d="M368,227l2,-6l3,3l8,-10l6,-4l5,-7l2,2l18,17l-19,2l-5,8l-9,-6l-11,1Z"/><path data-geo-id="2502746925" d="M505,274l13,-1l10,15l3,1v3l-16,6l-6,-2h-7l3,-7Z"/><path data-geo-id="2500304545" d="M118,227v-6l1,-9l24,-4v4l7,4l2,4l7,1l1,-3v23l-2,4h-13l-9,1v-4l-8,1v-3l-11,1Z"/><path data-geo-id="2500334655" d="M84,214l12,-2l2,-13l11,16l4,-1l5,7v6l-17,2l-5,8h-13Z"/><path data-geo-id="2500360225" d="M140,118h4l1,-20l14,1l3,5l13,-2l-1,4l-6,26l-1,5l-28,-7Z"/><path data-geo-id="2500371095" d="M96,237l5,-8l17,-2l-1,14v18l-25,-16Z"/><path data-geo-id="2500300555" d="M116,116l1,-11l1,-11l27,2v2l-1,20h-4Z"/><path data-geo-id="2500313345" d="M108,122v-9l8,3l24,2l-1,12l-6,8l-11,-2l-4,11l-7,-1l-2,-4l3,-5l-7,-1l3,-5Z"/><path data-geo-id="2502755395" d="M445,157l3,3l8,-9l7,-3l3,1l4,4l-1,4l-1,5l4,13l-3,4l-16,12l-20,-18l12,-9Z"/><path data-geo-id="2502758580" d="M359,75h4l1,1h28l1,1h2l-2,32l-5,1h-4l-4,-8l-15,2l-1,-8l-11,-5l-3,-16Z"/><path data-geo-id="2502761800" d="M486,221l8,-2l9,-5l3,3l4,16l3,3l-4,6l-15,4h-4l-2,-20l-3,-4Z"/><path data-geo-id="2502763345" d="M397,322l6,-9l9,-20l13,7l1,7l1,10l-2,6h-1l-11,-1h-15Z"/><path data-geo-id="2500314010" d="M119,76l1,-12l24,1h2l2,1h2l-4,11l-27,-1Z"/><path data-geo-id="2500316180" d="M107,181l4,-12l2,-13l5,-9l4,-11l11,2l-4,15l2,3l-3,12l-8,-1l-4,15Z"/><path data-geo-id="2501526535" d="M284,224l17,-2l5,28l-21,3l-6,2l-2,-17v-7l4,-2Z"/><path data-geo-id="2502768155" d="M388,321v-47h6v4l7,-1l-1,-4l5,-1l11,-2l1,12l-5,2v9l-9,20l-6,9h-8Z"/><path data-geo-id="2502768610" d="M469,281l18,-11l10,-5l1,6h7v18l-3,7h7l-5,2l-19,5l-2,-6h-6l-5,-11h-3Z"/><path data-geo-id="2500324120" d="M145,98v-2l1,-19l4,-11h7l-1,14l20,-1l-1,5l-7,2l-5,5l11,6l1,5l-13,2l-3,-5Z"/><path data-geo-id="2500321360" d="M38,250l12,2l1,19h6l-5,4v6h-8l1,4h-2l-9,-11l-3,-1l1,-1Z"/><path data-geo-id="2500326815" d="M54,236h9l20,1h13l-4,6l-9,14v10l-2,5l-24,-1h-6l-1,-19v-4h5Z"/><path data-geo-id="2500328180" d="M67,151v-1l4,-12l6,-20l2,-6l2,-8l1,-1l11,1l-3,14l4,1l-14,30l-3,4l-3,17l-3,9l-11,-2v-1l6,-23Z"/><path data-geo-id="2500330315" d="M131,156l12,3l-2,8v11l-4,15l-14,-4l2,-6l-9,-1l4,-15l8,1Z"/><path data-geo-id="2500778235" d="M781,523l12,16l2,9l1,14l-6,1h-7l-6,-10l-2,2l-8,-13v-1l3,-8l8,-3l3,-7Z"/><path data-geo-id="2500750390" d="M797,534v-2l8,-13l4,5l2,14v1l-1,-1l-2,-6l-3,6l-1,1h-11l-1,-8Z"/><path data-geo-id="2502773090" d="M365,245l3,-2l7,-1l2,6l1,1l3,4l4,14l1,8l-15,2v-3l-17,-8v-6Z"/><path data-geo-id="2502775400" d="M368,227l11,-1l9,6l5,1l-2,6l3,8l-1,8h-4l-4,12l-4,-14l-3,-4l-1,-1l-2,-6l-7,1Z"/><path data-geo-id="2502777010" d="M443,118l12,-5l6,-5l-1,30l7,1l-1,10l-3,-1l-7,3l-8,9l-3,-3l-15,-14l4,-5l10,-17Z"/><path data-geo-id="2500721150" d="M793,539h11l1,-1l14,6l3,3v12l2,3h9l-2,-4l-8,-3v-4l9,-6l5,6l1,11h-42l-1,-14Z"/><path data-geo-id="2500713800" d="M744,576h4l1,-6h1l4,-4l-1,-6l6,-7l2,-7l5,-4h1l8,13l2,-2l6,10l-2,1l-19,3l-9,7l-2,6l-4,-3Z"/><path data-geo-id="2500342460" d="M92,243l25,16v7l-1,7l-6,1l-10,2l-6,-7l-7,1l-4,-3v-10Z"/><path data-geo-id="2500343300" d="M31,273l3,1l9,11h2l3,6l-4,19h-17l-1,-3l-1,-4v-6l6,-24Z"/><path data-geo-id="2500345420" d="M81,272l2,-5l4,3l7,-1l6,7l10,-2l3,40l-16,-1l-4,-1h-12l-2,-22l3,-3Z"/><path data-geo-id="2500346225" d="M119,76l27,1l-1,19l-27,-2l-2,-17Z"/><path data-geo-id="2502702480" d="M358,114l6,-1l1,-9l15,-2l4,8l-7,14l-2,12h-2l-14,13l-6,-12l-1,-11h3l-1,-8Z"/><path data-geo-id="2502717685" d="M426,307l22,-7l3,-1l1,8l3,-2l-2,9l1,10h-16l-1,-1h-12l2,-6Z"/><path data-geo-id="2500353050" d="M141,178v-11l2,-8l21,4l-2,7l-3,22l-3,2l-13,-3l-1,3l-5,-1Z"/><path data-geo-id="2500353960" d="M80,149l33,7l-2,13l-4,12l-1,6l-4,-1l-19,-4l-12,-3l3,-9l3,-17Z"/><path data-geo-id="2500356795" d="M60,177l11,2l12,3l-10,15v6h-21l8,-26Z"/><path data-geo-id="2500361065" d="M45,285l-1,-4h8v-6l5,-4l24,1l1,15l-3,3l2,22h-5l-4,-1l-21,-1h-7l4,-19Z"/><path data-geo-id="2502730560" d="M453,191l16,-12l2,9l2,16l3,10l-20,17l-4,-4l-7,-19l-2,-7Z"/><path data-geo-id="2502763165" d="M533,222l4,-4l11,-3h11v9l-3,5l-2,9l-4,-1l-1,1h-6l2,-2l-11,-12Z"/><path data-geo-id="2502775015" d="M510,233l7,-2l3,-6l14,-1l11,12l-2,2l-2,-1h-1l-8,3l-3,12h-12l-1,-8l-7,-2l4,-6Z"/><path data-geo-id="2502782000" d="M454,232l2,-1l20,-17l4,-3l5,11l3,4l2,20h4v2l-17,9l-3,-7l-12,2Z"/><path data-geo-id="2502771480" d="M517,252h12v3l5,8l7,3v3h-1v7l-3,5l-6,8l-3,-1l-10,-15l1,-12Z"/><path data-geo-id="2500367595" d="M70,203h14v11l-1,23l-20,-1v-18l4,-4Z"/><path data-geo-id="2500373335" d="M102,186l4,1l1,-6l9,1l9,1l-2,6l14,4l5,1l1,14l-24,4l-1,9l-5,-7l-4,1l-11,-16Z"/><path data-geo-id="2500377990" d="M52,203h18l-3,11l-4,4v18h-9v-5l-4,-7l-4,-2l6,-19Z"/><path data-geo-id="2500380685" d="M133,138l6,-8l28,7l3,1l-4,15l-2,10l-21,-4l-12,-3l-2,-3Z"/><path data-geo-id="2502769275" d="M388,110l5,-1l12,1l7,8l1,8l7,1l-1,6l5,5l-22,18l-1,-7l-1,-3l-2,-7l-6,-10v-15l-2,-2l-1,-1Z"/><path data-geo-id="2501179110" d="M239,170l12,-2l1,-5h11l7,2l-1,8l2,8l-23,4l-10,1Z"/><path data-geo-id="2501102095" d="M201,131l18,-3l9,2h3l-4,22l-4,14l-24,-7l-4,-1l-1,-6l2,-9l-2,-5v-6Z"/><path data-geo-id="2501161905" d="M295,177l10,-1l3,-26l19,3v13l-3,2l1,14l-29,4Z"/><path data-geo-id="2502102935" d="M673,277l6,6l4,7l-11,5l-3,-11Z"/><path data-geo-id="2502117405" d="M600,244l7,-1l-1,-7l3,-1l-1,1l8,5l10,-1l-4,20l-5,1l-1,-6l-18,1Z"/><path data-geo-id="2502130455" d="M679,283l3,-11h12l-1,11l-6,4l-4,3Z"/><path data-geo-id="2502139975" d="M562,277l4,-1l7,-7h9l6,15l-1,1l-5,-2l-11,1l-9,2Z"/><path data-geo-id="2502154100" d="M587,330v-4l20,-8l4,-2l1,11l-20,11h-5v-6Z"/><path data-geo-id="2502178690" d="M622,260l4,-20l13,11l10,6l-3,5l-5,-5l-6,-1l-10,11Z"/><path data-geo-id="2502178972" d="M693,283l1,-11l2,-25l2,-3v1l6,-5l1,3l5,8l-3,25l-4,1l-1,2Z"/><path data-geo-id="2502182315" d="M567,326v-6l19,-2l7,-18h13l7,3l-2,13l-4,2l-20,8h-19Z"/><path data-geo-id="2502160785" d="M637,279l4,-6l4,8l3,2l5,9l-2,14l-7,4l-3,2l-5,-9l-3,2l-8,-11l1,-9Z"/><path data-geo-id="2501319645" d="M299,300v1l3,18h-19l-2,-10l-1,-6Z"/><path data-geo-id="2500901260" d="M686,24l2,-1l6,-1h1l4,-3l4,-2v-1h1l4,-1l4,13l-1,6l-5,-2l-4,6h-8l-3,-8l-7,-6h1Z"/><path data-geo-id="2500905595" d="M707,121h23l7,2l4,8v-1l-8,5l-12,1l-2,3l-9,-3l1,-9Z"/><path data-geo-id="2500925625" d="M697,63l9,6l-14,15l-12,-3l-2,-5l-1,-5l7,-1Z"/><path data-geo-id="2500929405" d="M670,42l2,-7l14,8l-5,9l-6,11l-4,8l-13,-1l-2,-2l-4,-7l-14,-12l7,-7l6,-3l18,6Z"/><path data-geo-id="2500940430" d="M684,24l7,6l3,8l-9,2l1,3l-14,-8l1,-3l4,-6l5,-1Z"/><path data-geo-id="2500946365" d="M651,75l5,-7l2,2l4,6l14,15l5,12l-9,5l-1,7l-5,2l-13,-24l-2,-2l-1,-4v-2h-1l-1,-2Z"/><path data-geo-id="2500957880" d="M781,86h4v9h7l2,9l-8,3l-6,-4Z"/><path data-geo-id="2500959245" d="M711,15l14,9l8,-3l2,17h-9l-4,2l-7,-3l-4,-3l1,-6l-4,-13h1Z"/><path data-geo-id="2500968645" d="M713,159l6,2l-1,1l-3,5l-8,-2l-3,-9Z"/><path data-geo-id="2500974595" d="M704,113l4,-3l27,9l2,4l-7,-2h-23l-4,-3Z"/><path data-geo-id="2500952490" d="M678,130l8,1l17,6l6,2l-1,7l-8,9l-10,-6l-9,-10Z"/><path data-geo-id="2501300840" d="M235,318l2,-16l2,-9h4l4,7l3,-4h6l3,4l9,-2v7l-6,10v5h-7l-6,-1l-5,-1h-9Z"/><path data-geo-id="2502746820" d="M506,217l3,-14l10,1l4,4l10,14l1,2l-14,1l-3,6l-7,2Z"/><path data-geo-id="2502701885" d="M428,108l1,-9v-21h3l5,1h14l9,11l2,2l-1,15v1l-6,5l-12,5l-5,3l-1,-6Z"/><path data-geo-id="2502702760" d="M451,264l5,-9l6,-3l12,-2l3,7l-8,17l-8,1l-5,-3Z"/><path data-geo-id="2502706015" d="M539,310h17v17h-12l-5,1Z"/><path data-geo-id="2502706365" d="M514,179l4,-17l2,1l23,10l-3,13l-11,5l-16,-8Z"/><path data-geo-id="2502707525" d="M486,221l1,-21l4,-6l5,-1l7,-2l6,3v9l-3,14l-3,-3l-9,5Z"/><path data-geo-id="2502714395" d="M496,193l2,-7l8,-9l8,2l-1,4l-4,11l-6,-3Z"/><path data-geo-id="2502717300" d="M477,297h6l2,6l19,-5v9l5,-1l-1,22l-5,1h-27v-5h-1l-6,-24Z"/><path data-geo-id="2502718560" d="M404,251v-1l1,-1l7,1l3,-5l3,22l-2,3l-11,2l-1,-4l4,-8l-5,-4Z"/><path data-geo-id="2502726430" d="M494,248v-2l15,-4l7,2l1,8l2,9l-1,12l-13,1v-3h-7l-1,-6Z"/><path data-geo-id="2500560645" d="M598,387l1,-2l-1,-11l1,-5l9,-2l2,20l1,25h-6l-1,-1l-2,-1l-1,-1l1,-1l-1,-1l-2,-2v-1h-1l1,-1v-3l-2,-5Z"/><path data-geo-id="2500505280" d="M658,395l2,-11l4,-7l5,2l18,10l-8,8h-14l-1,2v1l1,2v-1h-2l-4,8Z"/><path data-geo-id="2502731435" d="M398,160l4,-4l22,-18l6,5l15,14v7l-12,9l-11,9Z"/><path data-geo-id="2502735075" d="M466,149l1,-10l8,-1l9,-5l6,5l-3,-6l4,-4l11,14l-4,6l-3,15l-26,-6l1,-4Z"/><path data-geo-id="2502737420" d="M483,103l29,11l-3,29l-7,-1l-11,-14l-4,4l-3,-2l-1,-25Z"/><path data-geo-id="2502740255" d="M531,289l6,-8l11,15h8v14h-25v-18Z"/><path data-geo-id="2502741340" d="M469,274l8,-17l17,-9l3,17l-10,5l-18,11Z"/><path data-geo-id="2500522130" d="M712,451l15,-6l4,19v-1l-4,2v1h1v3h1v1l2,5v1l-2,1v3l-2,-4h-1l-1,-2l1,-1l-1,-3h-1v-5h-1v-1l-1,-1h-2v-1l-1,2v1h-1l-7,-9l1,-5Z"/><path data-geo-id="2501330665" d="M373,300h15v21h-17l-1,-4l3,-9Z"/><path data-geo-id="2501546330" d="M229,201l18,-2l9,-2l1,9l-1,2l14,7l-9,13l-8,-1l-23,2h-1Z"/><path data-geo-id="2501554030" d="M167,137l1,-5l26,6l2,5l-2,9l1,6l-3,1l-26,-6l4,-15Z"/><path data-geo-id="2501564145" d="M263,229l9,-6h10l2,1l-3,5l-4,2v7l2,17l-12,1l-8,-7l1,-6l6,-7Z"/><path data-geo-id="2501582175" d="M162,170l30,6l-6,1l4,32l1,3l-3,-3l-15,-1l-6,-12v-5l-8,1Z"/><path data-geo-id="2501562745" d="M209,239l21,-3v-4l10,4l-2,3l5,5l-1,8l5,-2v4l-6,1l1,11l-24,-6l-3,-7v-7l-6,1v-4Z"/><path data-geo-id="2501576380" d="M219,203l10,-2v28h1v7l-21,3l-2,-29v-5Z"/><path data-geo-id="2502734795" d="M434,232l20,-1v1l8,20l-6,3l-5,9l-5,1h-6l-4,-17Z"/><path data-geo-id="2502747135" d="M412,222l3,23l-3,5l-7,-1l-8,1l-3,-3l-3,-8l2,-6l-5,-1l5,-8Z"/><path data-geo-id="2502758825" d="M414,188l8,-6l11,-9l20,18l-10,10l2,7l-19,10Z"/><path data-geo-id="2502766105" d="M412,222h20l2,10l2,16l4,17l-22,2l-3,-22Z"/><path data-geo-id="2502750670" d="M394,205l20,-17l12,30l1,4h-15Z"/><path data-geo-id="2502751825" d="M446,265l5,-1l5,8l5,3l8,-1v12h3l5,11l-8,3l-14,5l-3,2l-1,-8l-3,1l3,-4l-4,-21Z"/><path data-geo-id="2502752420" d="M426,218l19,-10l7,19l4,4l-2,1v-1l-20,1l-2,-10h-5Z"/><path data-geo-id="2501540990" d="M142,194l1,-3l13,3l3,-2l8,-1v5l6,12l-13,10l-1,3l-7,-1l-2,-4l-7,-4v-4Z"/><path data-geo-id="2502767385" d="M469,157l26,6l3,1v22l-2,7l-5,1l-4,-4l-16,-2l-2,-9l3,-4l-4,-13Z"/><path data-geo-id="2502771620" d="M504,298l5,-2l6,2l16,-6v36h-23l1,-22l-5,1v-9Z"/><path data-geo-id="2502780405" d="M395,77h20l4,1h10v21l-1,9l-16,10l-7,-8l-12,-1Z"/><path data-geo-id="2501377890" d="M242,273h15l4,10l-2,4v4l9,7l-9,2l-3,-4h-6l-3,4l-4,-7h-4l3,-10Z"/><path data-geo-id="2501306085" d="M158,245l2,-4l23,4l11,8l-5,20l-2,13l-23,-5l-14,-2Z"/><path data-geo-id="2501313485" d="M160,218l13,-10l15,1l3,3v24l-8,9l-23,-4Z"/><path data-geo-id="2501313660" d="M267,256l12,-1l6,-2l2,9v12l-7,2l-21,11l2,-4l-4,-10l1,-7l10,-7Z"/><path data-geo-id="2501326675" d="M164,281l23,5l11,4l4,4l1,8l-1,15h-38l3,-15Z"/><path data-geo-id="2501328075" d="M299,301l13,-1l3,-4l8,-1l3,25h-8l-16,-1Z"/><path data-geo-id="2501330840" d="M247,250h4l6,-16l5,-5h1l3,7l-6,7l-1,6l8,7l1,3l-10,7l-1,7h-15v-7l-1,-11l6,-1Z"/><path data-geo-id="2501337175" d="M306,250l11,-1l2,17l-4,4v7l-2,-1l-12,1l-5,-1l-9,-2v-12l-2,-9Z"/><path data-geo-id="2501342530" d="M195,250l3,-5l11,-2v4l6,-1v7l3,7l-4,10l-5,5v-3l-13,-20Z"/><path data-geo-id="2501367000" d="M259,287l21,-11l7,-2l9,2l3,24l-19,3l1,6l-13,-4v-7l-9,-7Z"/><path data-geo-id="2501704615" d="M604,153l2,-6l6,-2h9l5,7l-2,5l-6,5l-3,7l-4,-3l-7,-3Z"/><path data-geo-id="2501707350" d="M548,147l5,4l10,3l-7,13l-12,-1l-4,-2Z"/><path data-geo-id="2501709840" d="M626,152l7,-14l9,10l1,11l-10,7h-2l-7,-9Z"/><path data-geo-id="2501711525" d="M582,142l3,-6l11,-5l4,1l4,3l2,12l-2,6h-18Z"/><path data-geo-id="2501715060" d="M574,177l12,-24h18v10l7,3l-4,1l-17,18l-7,-4Z"/><path data-geo-id="2500107175" d="M790,421l-3,-6l17,-8l8,-9l1,2h1v1l3,3v8l-5,18v11l-7,11l-1,5l-12,-5l-1,1l-1,-1h-8v-4h9l-3,-8l-8,5l3,-5l8,-2l1,-7l-4,-4l1,-5Z"/><path data-geo-id="2500139100" d="M812,460l5,-5l2,-9l5,2l-1,-5l5,-1l-1,7l7,1l3,4l-1,10h1h-1h1v1l-4,7l-3,4l5,4v1l-1,1v1h-1l-1,1l-1,2l-2,2l-1,1h-2l-2,1h-4l-2,1h-1l2,-7l2,-4l2,-5l-7,-2l-4,-13Z"/><path data-geo-id="2500159735" d="M812,430l5,-18v-8v1h2v2l5,4l1,1h1l15,8h1l10,2h1l-19,28l-7,-1l1,-7l-5,1l1,5l-5,-2l-2,9l-5,5l-8,-3l1,-5l7,-11Z"/><path data-geo-id="2500182525" d="M883,455l3,-13v-10l2,-3h1v1l1,-1v1v-1l-1,1v-1h1h-1l2,-2h7l1,1h1l1,-1l12,13l-9,12h-1l-5,6l-1,1l-7,3l-3,6l-3,-5l8,-3l-3,-4l-6,-1Z"/><path data-geo-id="2501308470" d="M354,266l17,8v3l15,-2l2,-1v26h-15l-21,-1l-1,-18h2Z"/><path data-geo-id="2501376030" d="M209,275l5,-5l4,-10l24,6v17l-3,10l-2,9l-35,-8l-4,-4l2,-7Z"/><path data-geo-id="2501717475" d="M589,83h2l4,1h14l5,-7l2,-4h1l3,-3l4,24l-4,4h-6l-3,3l-3,-6l-16,4l-3,-2l-2,-6Z"/><path data-geo-id="2501717825" d="M544,82h7l7,1h9l2,12l-7,6h-6l-5,2l-5,-3v-4l-5,-5Z"/><path data-geo-id="2501724925" d="M559,215l1,-8l23,4l4,9l-5,8l3,7l-2,4l-6,2l-9,-7l-12,-5l3,-5Z"/><path data-geo-id="2501943790" d="M955,559l11,19l4,10l-2,6l-12,6l-13,-2l-15,1l-13,-4l-17,-9l9,-1l-1,-5h22l6,2l1,4l6,-7l5,1l6,-5l-2,-3l8,-4l-6,-6l-3,7l-9,7l8,-9l4,-14ZM888,575l6,6l-6,-1l-4,-4Z"/><path data-geo-id="2501142285" d="M279,113l2,6l6,-3l7,2l-2,7l10,1l3,6l-2,16l-16,2l-10,1l-2,-6l3,-14l-5,-6l-2,-6Z"/><path data-geo-id="2501161135" d="M231,107l1,-2l26,-4l-4,24h3l-5,8l-5,1l-1,-3l-8,-2l-2,-7l-4,-3Z"/><path data-geo-id="2501735215" d="M615,169l3,-7l6,-5l7,9h2l4,6l2,5l-5,7l-3,3l-14,-6Z"/><path data-geo-id="2501735425" d="M590,185l17,-18l4,-1l4,3l2,12l-4,9l-14,1l-9,-6Z"/><path data-geo-id="2501735950" d="M548,133l4,-4l4,-2l4,1l3,7l11,9l-5,7l-6,3l-10,-3l-5,-4l-2,-8Z"/><path data-geo-id="2501372390" d="M352,299l21,1v8l-3,9l1,4h-19Z"/><path data-geo-id="2502107740" d="M675,258l4,-8h5l12,-3l-2,25h-12l1,-4v-2l-8,-3Z"/><path data-geo-id="2502116495" d="M626,240l4,-4h6l2,-4l8,9l7,9v1l-4,6l-10,-6Z"/><path data-geo-id="2502125172" d="M567,320v-9l4,-27l11,-1l5,2v1l6,14l-7,18Z"/><path data-geo-id="2502146050" d="M587,286v-1l1,-1h5l5,-5h9l1,9l6,13l-1,2l-7,-3h-13Z"/><path data-geo-id="2502155745" d="M666,254l8,-4l-3,-5l8,-4l-3,-8l1,-2v-6l9,1l-4,3l13,9l6,-5l-3,10v1l-2,3l-12,3h-5l-4,8h-1l-1,1h-8Z"/><path data-geo-id="2502139765" d="M598,256l18,-1l1,6l-2,4v14h-17l2,-6l4,-5l-7,-7Z"/><path data-geo-id="2500112995" d="M957,430l4,-3l2,5h7v13l-4,7l-4,-6l-2,4l-4,-4h-10v1v-1l2,-11ZM956,491l-4,-2l6,-9v-12l6,-13l-5,23v10Z"/><path data-geo-id="2500129020" d="M919,434l11,-4v-3l12,1l4,-3h11l-1,5h1l-9,5l-2,11v1h-3l-6,2h-1v-1h-1l-9,3h-1v1l-1,-1Z"/><path data-geo-id="2500155500" d="M912,301l2,6l-7,1l-5,4v8l-3,1l-3,-8l-8,-8l6,-4l9,-1l9,1Z"/><path data-geo-id="2500170605" d="M943,321h1v1h1v1l1,1v1h1v2h1v1l1,1v1l1,1l1,2v1l2,2v1l1,1l1,1v1l-22,3v-13l-3,-11l-10,-9l-5,-3h-1l-2,-6l10,3l15,10l6,7Z"/><path data-geo-id="2500116775" d="M893,424l2,-1v-1h1l1,-1h1v-1h2v-1h2l1,-1h4l5,-2l1,-1v1h1l2,-2h3l3,1l-2,2l-1,1h-2v1l2,15l5,17l-2,1h-2v1h-10l-5,2h-1v-2l1,-2l-1,1l9,-12l-12,-13l-1,1h-1l-1,-1h-7l1,-1Z"/><path data-geo-id="2500119295" d="M953,371l1,1h1l11,-2v2l4,17l-1,6l-1,-1l-3,-1l-6,8l-4,-1v-1h-2l1,-14l-2,-14Z"/><path data-geo-id="2501379740" d="M296,276l5,1l12,-1l2,1v-7l4,-4l2,11l2,18l-8,1l-3,4l-13,1v-1Z"/><path data-geo-id="2502723875" d="M461,108v-1l22,-2l1,25l3,2l3,6l-6,-5l-9,5l-8,1l-7,-1Z"/><path data-geo-id="2501762535" d="M652,184l5,5l10,1v3l1,6l-5,-1l-7,-5l-2,-2l-2,-3Z"/><path data-geo-id="2501739625" d="M565,172l9,5l-2,5l-2,5l-6,2l-3,-12Z"/><path data-geo-id="2501739835" d="M647,177h6l3,-7l8,3v8l4,3v4h-1v2l-10,-1l-5,-5Z"/><path data-geo-id="2501740115" d="M665,174l1,-11l7,-1l8,11l-11,2Z"/><path data-geo-id="2501767665" d="M655,153h6l6,5l-1,5l-1,11l-1,-1l-8,-3l2,-7Z"/><path data-geo-id="2501768050" d="M540,186l3,-13l1,-7l12,1l9,5l-4,5l3,12l-1,4l-13,-3Z"/><path data-geo-id="2501772215" d="M661,153l1,-2l5,-8l4,2l6,3v1l1,1v2l-5,10l-7,1l1,-5Z"/><path data-geo-id="2501776135" d="M557,112l20,-12l8,36l-3,6l-8,2l-11,-9l-3,-7l-4,-1Z"/><path data-geo-id="2501780510" d="M637,172l21,-9l-2,7l-3,7h-14Z"/><path data-geo-id="2501781035" d="M633,166l10,-7l-1,-11l9,-5l4,10l3,10l-21,9Z"/><path data-geo-id="2501705805" d="M600,132l9,-15l-1,-3l20,12l3,2l-2,4l4,6l-7,14l-5,-7h-9l-6,2l-2,-12Z"/><path data-geo-id="2501727480" d="M514,101l15,9l3,-2l2,-9l12,-3v4l5,3l5,-2l1,11l-1,15l-4,2l-23,-4h-2l-5,-4l-5,-11l-4,-4Z"/><path data-geo-id="2501756130" d="M651,135l4,-3h2l3,-2l8,3l-1,10l-5,8l-1,2h-6l-4,-10Z"/><path data-geo-id="2501770360" d="M484,80h6l25,1l-1,20l-1,5l-1,8l-29,-11Z"/><path data-geo-id="2501772600" d="M617,181l14,6l5,7l-6,7l-11,5l-4,-6l1,-6l-3,-4Z"/><path data-geo-id="2501777255" d="M599,191l14,-1l3,4l-1,6l4,6l1,6l-4,3l-15,6v-7Z"/><path data-geo-id="2501109595" d="M205,112l1,-1l19,-1l6,-3l1,12l4,3l-7,1l-1,7l-9,-2l-18,3Z"/><path data-geo-id="2501115200" d="M223,166l4,-14l4,-22h-3l1,-7l7,-1l2,7l8,2l1,3l7,8l-4,22l2,-1l-1,5l-12,2l-15,2Z"/><path data-geo-id="2501129650" d="M218,69l3,27l-12,8h-4l-5,-4l-1,-10v-14l-1,-9l13,1h1Z"/><path data-geo-id="2501158335" d="M176,79l-1,-6h4l2,-6h17l1,9v14h-11l-8,2l-6,5l-11,-6l5,-5l7,-2Z"/><path data-geo-id="2502124820" d="M613,303l1,-2l2,-4l9,-3l8,11l3,-2l5,9l-29,15l-1,-11Z"/><path data-geo-id="2501168400" d="M270,165l7,-14l10,-1l-1,12l-3,6l1,11h-4l-9,2l-2,-8Z"/><path data-geo-id="2501173265" d="M316,73h6l4,1h12l12,1l3,16l-6,6l-2,6l-5,4v6l-11,2l-4,-11Z"/><path data-geo-id="2501125730" d="M279,113l1,-11l2,-1v-3l14,-3l-1,-5l5,3l2,6l-6,7l2,5l-2,6l-2,1l-7,-2l-6,3Z"/><path data-geo-id="2501174525" d="M302,126l10,-11l6,4h14l-1,17l-1,17h-3l-19,-3l-5,-2l2,-16Z"/>  <path class="mesh" d="M669,443l-10,-1l-6,23v8M812,398l-8,9l-17,8l3,6M704,169h-1M717,270l13,-8h8l9,4l6,7h5M247,199l1,-14M691,193l-2,-2l-5,-1l-5,-6l-5,8M652,184v4l2,3l2,2l7,5l5,1l-1,-6M353,91l-3,-16M483,103v2l-22,2l1,-15l-2,-2l-9,-11M555,265l1,8h6v13l-7,5l1,5M192,176l8,-1l4,-1v7l5,-1v7l11,1l-1,15l-12,2v5l-7,-1h-10l-4,-32l6,-1l-30,-6l-3,22l-3,2l-13,-3l-1,3l1,14v4l7,4l2,4l7,1l1,-3v23l-2,4l-8,34l-9,-2v3l1,8l-2,8l4,13v6M176,79l-20,1l1,-14M562,286l9,-2l-4,27v15M681,103l-5,-12l-14,-15l-4,-6l-2,-2l-5,7l-3,8l1,2h1v2l1,4l2,2l13,24l-15,1l-3,-3l-3,-1l-1,5l-5,-4h1l1,-4l-21,-13l4,-4l-4,-24M744,245l-1,7l-9,8l-5,-5l-3,-9l2,-8l6,-1M672,295l11,-5l4,-3l6,-4l9,-4l1,-2l4,-1l3,-25l-5,-8M306,250l-21,3l-6,2l-12,1l-8,-7l1,-6l6,-7l-3,-7h-1M319,266l-2,-17l-11,1l-5,-28l-17,2l-2,-1h-10l-9,6M781,305l-9,5l-8,-7l-10,-6l-7,-7l-2,-14l8,-3M747,290l-7,1M719,277l9,-2l4,7v2h5l3,7l-1,5l-10,2l-5,2h-6v-10l-4,-13h5l-2,-7l-10,6M756,425l-2,-2l-1,1l-3,2l-2,-9l1,-18l1,-6l8,9h6l25,-2l-2,8v7M46,222l4,2l4,7v5l1,12h-5v4l-12,-2M141,280h-3l-1,-17l-20,3v-25l11,-1v3l8,-1v4l9,-1h13M113,314l-3,-40l6,-1l1,-7M368,227v16l-3,2M120,64l-1,12l-3,1l2,17l-1,11M93,104l24,1l-1,11l-8,-3v9l-14,-3l-4,-1l3,-14l-11,-1M710,406l4,10l-5,2l1,1l-6,3l-5,5l-2,12l-1,12l7,16l5,4M686,435v-13l-16,-4l-12,-3M605,412h6l28,-2l-1,-13l5,1l1,9h4l-1,18l-7,-1l-3,9M279,113l2,6l6,-3l7,2l2,-1l7,-2l-1,-4l23,-7l4,11v4h-11l-6,-4l-10,11l-10,-1l2,-7M326,320l-3,-25l-2,-18l9,-3l5,2l3,4l13,1l1,18v22M202,317l1,-15l-1,-8l35,8l-2,16M392,203l-5,7l-6,4l-8,10l-3,-3l-2,6v-6l-16,3l-1,-12l-3,-5l-7,3l-6,9l-5,5v-13l-13,1l-1,-8l-17,3l-3,-21M368,243l7,-1l2,6l1,1l3,4l4,14l4,-12h4l1,-8l3,3l8,-1l7,1l3,-5l3,22l22,-2h6l1,10l4,21l-3,4l3,-1l1,8l3,-2l14,-5l6,24M469,179l2,9l16,2l4,4l-4,6l-1,21l-1,1l-5,-11l-4,3l-3,-10l-2,-16M531,328v-18h8v18M540,276l-1,2l16,13M543,173l-23,-10M397,160h1l24,22l-8,6l-20,17l-2,-2l-22,-20l27,-23l-22,-24l2,-12l7,-14h4l1,1l1,1l2,2v15l6,10l2,7l1,3l1,7l-4,4M329,115l11,-2v-6l5,-4l2,-6l6,-6l11,5l1,8l-1,9l-6,1l-4,4l1,8h-3l1,11l6,12l14,-13h2M370,183l-4,8l-11,1l-6,7l-1,8M729,298l2,11l-2,7l3,8l-7,2l-9,-4v3l-4,-15l-1,-9h3l4,-1M666,298l4,16l12,-2v4l10,-1l2,13l-7,5l-13,5M712,310l-5,-2l-5,2l-7,-4v-5l15,-5M688,357l8,-4l7,2l3,-9l7,-3l10,7l2,-2l9,9l7,15l-2,4l6,12v2h2l3,3M614,98h6M710,138l-1,1l-6,-2l-17,-6v-1l1,-1v-1l3,-7l6,-3l8,-5l-1,5l4,3l4,6l-1,9M709,107h2l3,-3l-2,-7h10l1,5l6,-2h1l1,2l-1,1l5,-1l-1,8l5,9h-4l-27,-9l1,-3M732,63l-13,2l-5,1l-8,3l-9,-6l-2,-1l1,-3l11,-8l6,-4l16,-1M740,63l-4,1M454,324l-1,-10l2,-9M712,97l-5,-4l-4,2l-7,-3l4,-3l23,-12v-4l9,-3M743,92l-2,3l-6,7M739,71l3,-3M393,109l12,1l7,8l16,-10l9,7l1,6l5,-3l1,3l-10,17l-4,5l-6,-5l-5,-5l1,-6l-7,-1l-1,-8M445,157l-15,-14M651,135v8l4,10h6l6,5l-1,5l7,-1l5,-10v-2l-1,-1v-1l-6,-3l-4,-2l1,-10l5,-5h5v-5l-7,-8l1,-7l9,-5l10,7h1l1,1v-1v1l-2,4l5,3M686,131l-8,-1v-2M707,51l-5,-13l4,-6l5,2l4,3M700,89l-8,-5l14,-15M199,159l1,16M224,172h-3l-1,16M582,269h-9l-7,7l-4,1M582,269l-1,-4l6,-1l10,-3l7,7l-4,5l-2,6l-5,5h-5l-6,-15M627,219h-1l-17,16l-3,1l1,7l-7,1l-2,12l-1,5M653,250l6,-6l-1,-5l5,-3h10v-3h3l3,8l-8,4l3,5l-8,4l-1,5l-4,1M644,224l-7,7l1,1l-2,4h-6l-4,4l-10,1l-8,-5M609,235M637,279l-12,-12l10,-11l6,1l5,5M626,240l-4,20l3,7M587,326l20,-8l4,-2l1,11l5,10l-23,21l-7,5M748,417l-3,2l-3,16l-17,3l2,7l-15,6M617,337l3,4l13,24l-6,-1l-19,3l-9,2M638,397l-3,-23l4,1l17,4l4,5l-2,11M656,407h-8M665,335l-3,-1l-13,-2l-3,-4l-2,-18M646,328l-26,13M662,334l-9,13l-16,17l-4,1M637,364l2,11M611,412l-1,-25l-2,-20M467,139l8,-1l9,-5l6,5l-3,-6l4,-4l11,14l7,1l11,3l1,-8l3,-3l5,4l5,-3l12,3l2,8l-8,17l4,2l-1,7l-3,13l10,4l13,3l-1,4l-33,4M108,122v9l-3,5l7,1l-3,5l2,4l7,1l-5,9l-33,-7l14,-30M719,161l-6,-2l4,-5M448,300l-22,7l-1,-7l-13,-7v-9l5,-2l-1,-12l2,-3M781,86l-1,17l6,4M761,126l-8,-9l-3,-6l5,-10M681,52l14,10M697,63l-13,7l-7,1l1,5l-7,-5M833,472l4,-7v-1h-1l1,-10l-3,-4l19,-28M886,432v10l-3,13M644,204l-1,9l3,1l8,-7h5l-3,10l-8,9l-4,-2l-3,-3l5,-7M949,404l3,1v1l4,11l-1,5l2,3h-11l-4,3l-12,-1v3l-11,4l-2,-15v-1h2l1,-1l2,-2M653,251l8,9l9,13l-8,7l-14,3l-3,-2l-4,-8l-4,6l-11,6l-1,9l-9,3l-2,4l-6,-13l-1,-9h8v-14l2,-4l5,-1M791,453l1,-1l12,5l8,3l4,13l7,2l-2,5l-2,4M953,399h2v1l4,1M933,343l22,-3M587,338h5l20,-11l29,-15l3,-2l7,-4l2,-14l-5,-9M673,277l-4,7l3,11l-6,3l-15,8M674,337v1l1,7l9,7l4,5l1,5h2v3h-1v1l1,6l-4,1l-2,-3l-9,3v-7h-4l-7,-9l-1,-5l3,-12l-2,-5l9,2l-4,-23M520,146l2,4l-2,13l-2,-1l-4,17l-8,-2l-8,9v-22l-3,-1l3,-15l4,-6M966,370l-11,2h-1l-1,-1M678,152l6,1l2,2l4,15l5,3M679,397l8,-8l9,-8l-4,-16h-2M496,193l2,-7M749,399l-32,6v-13l-7,-8l1,-9l-18,-10h-1M693,110l1,-3h-1l4,-7l-1,-8M708,110l-4,3M658,70l13,1l4,-8l6,-11l5,-9l-1,-3l9,-2h8M624,94l5,-12l8,2l1,7l9,-2l4,2M678,76l2,5l12,3M753,117l-14,2M637,84l-1,-5l6,-5l9,1M684,153l6,-4l10,6l4,1l3,9M665,402l-1,-2v-1l1,-2h14l6,6l-2,8l27,-5l7,-1M678,130l3,9l9,10M741,131l-4,-8l-2,-4M638,49l14,12l4,7M273,125l5,6l-3,14l2,6l-7,14l-7,-2h-11M700,155l8,-9l1,-7M713,159l-9,-3M195,158l-1,-6l2,-9l-2,-5l-26,-6l-1,5l3,1l-4,15l26,6l3,-1l4,1l24,7l1,6l15,-2l-1,16l10,-1l23,-4l9,-2h4l-1,-11l3,-6l1,-12l16,-2l5,2l-3,26l-10,1l1,9l29,-4l2,5l3,24M321,277l-2,-11l9,-2v-4l7,-7l12,-4l18,-4l-11,15v6l-1,15h-2M247,250l-5,2l1,-8l-5,-5l2,-3l-10,-4v-3l23,-2l8,1l1,1l-5,5l-6,16h-4v4l-6,1l1,11l-24,-6l-3,-7v-7l-6,1v-4l-11,2l-3,5l1,2l13,20v3l-9,8l-2,7l-11,-4l2,-13l5,-20l-11,-8l8,-9v-24l-3,-3l-15,-1l-13,10M150,279l14,2l3,21l-3,15M261,101l-1,-5l-6,-5l-1,-6l-5,-6v-9M325,182l-1,-14l3,-2v-13h3l1,-17l22,1M331,136l1,-17h-3M262,320v-5l6,-10l13,4l2,10M797,534l-5,-3l1,8l-12,-16M668,199l2,1l-3,4l-10,1l-1,-3h-7l-3,-4M600,132l-4,-1l-11,5l-8,-36l10,1M491,194l5,-1l7,-2l6,3l4,-11l16,8l5,4l-5,6l-6,7l-4,-4l-10,-1v-9M541,267l4,-2h10l12,-10l-2,-5l12,-2l5,8l5,5v3M181,67l-2,6h-4l1,6l-1,5l-7,2l-5,5l11,6l6,-5l8,-2h11l1,10l5,4h4l12,-8l2,11l9,-2l-1,2l-6,3l-19,1l-1,1l-31,-6M258,101l-26,4M221,96l-3,-27M600,244l-7,-6l-8,-3l-3,-7l5,-8h9l5,-6v7M684,508l-1,-9l-1,-13l-4,-9l2,-1v-11l-4,-5l-7,-17l2,1l15,-9l13,-8M268,71l1,23l2,6l11,-2M668,133l-8,-3l-3,2h-2l-4,3v-17M544,82l-3,9l5,5l-12,3l-2,9l-3,2l-15,-9l1,-20M577,100l-20,12l-1,-11h6l7,-6l-2,-12M589,83l-2,8l2,6M649,202l-5,2l-14,-3l6,-7M651,143l-9,5l1,11l-10,7h-2l-7,-9l-6,5l-3,7l-4,-3l-4,1l-17,18l9,6l2,23M587,220l-4,-9M642,148l-9,-10l-4,-6l2,-4M577,248v-7l6,-2l2,-4M680,180l-12,4l-4,-3v-8l1,1l5,1l11,-2l-8,-11M509,143l3,-29l1,-8l4,4l5,11l5,4l-3,10M694,328l16,1l5,4M559,215h-11l-11,3l-4,4l-10,-14M687,287l1,5l5,-1l1,5l1,5M695,306l-4,4l1,5M734,357l14,-7h5l1,5l19,31l-9,10v6M722,238h6M734,260l-4,2M754,355l8,-7l8,-11M790,326h2M725,348l11,-11l4,-10h2l2,12l7,4l2,7M316,73l9,31M296,117l2,-6l-2,-5l6,-7l-2,-6l-5,-3M205,112l-4,19l-7,1v6M749,570l-1,6h-4M191,212l-1,-3M207,210l2,29v4M703,277l1,6l6,13l4,5M765,330l-5,-5l-11,-2l1,-8h-4l8,-18M732,324l6,-1l2,4M330,224l2,7l4,4l-1,18M301,222l-2,-15M280,179v10l4,-1l-2,13v22M261,228l9,-13l-14,-7l1,-2M270,165l-1,8l2,8l2,8h-4v16l-12,1l-1,-9l-9,2l-18,2l-10,2M742,327l7,-4M752,446l-6,1l-4,-4v-8M556,327v-31h-8l-11,-15l3,-5v-7h1v-3l-7,-3l-5,-8v-3l3,-12l8,-3h1l2,1l2,-2l-11,-12l-1,-2M687,389l-18,-10l-5,-2l-4,7M484,80l-1,23l29,11M563,193l1,-4l6,-2l2,-5l2,-5l9,4l7,4l1,9h-4l-2,8l1,8l-3,1l-23,-4l-1,8v9l-3,5l12,5l9,7M527,125h2l23,4l-4,4l-2,6M681,173l3,2v1l7,2M692,192l-1,1l-3,3M405,249l-1,1v1l-1,5l5,4l-4,8l1,4l-5,1l1,4l-7,1v-4h-6M386,275l-1,-8M394,205l18,17l-19,2l-5,8l-9,-6l-11,1M289,72l6,18l1,5l-14,3v3l-2,1l-1,11l-8,6l2,6l-5,4l-11,-4h-3l4,-24h3l10,-1M509,296l-5,2l-19,5l-2,-6h-6l-5,-11h-3v-5l18,-11l10,-5l1,6h7v3l13,-1l10,15l3,1v3l-16,6l-6,-2h-7l3,-7v-15M117,241l1,-14v-6l1,-9l24,-4M98,199l11,16l4,-1l5,7M118,227l-17,2l-5,8h-13l1,-23M167,137l-28,-7l1,-12h4l1,-20l14,1l3,5l13,-2M117,259l-25,-16l4,-6M118,94l27,2v2M140,118l-24,-2M139,130l-6,8l-11,-2l-4,11M443,118l12,-5l6,-5l-1,30l7,1l-1,10l4,4l-1,4l-1,5l4,13l-3,4l-16,12l-20,-18l12,-9v-7l3,3l8,-9l7,-3l3,1M395,77l-2,32l-5,1M384,110l-4,-8l-15,2M486,221l8,-2l9,-5l3,3l4,16l3,3l-4,6l-15,4h-4l-2,-20l-3,-4M397,322l6,-9l9,-20M426,307l1,10l-2,6M150,66l-4,11l-27,-1M133,138l-4,15l2,3l-3,12l-8,-1l-4,15l-9,-1l4,-12l2,-13M279,255l-2,-17v-7l4,-2l3,-5M405,272l11,-2M145,96l1,-19M50,252l1,19h6l-5,4v6h-8l1,4h-2l-9,-11l-3,-1M54,236h9l20,1M92,243l-9,14v10l-2,5l-24,-1M80,149l-3,4l-3,17l-3,9l-11,-2M131,156l12,3l-2,8v11l-4,15l-14,-4l2,-6l-9,-1M805,538l-1,1h-11l2,9l1,14M783,563l-6,-10l-2,2l-8,-13M388,232l5,1l-2,6l3,8M110,274l-10,2l-6,-7l-7,1l-4,-3M45,285l3,6l-4,19M81,312l-2,-22l3,-3l-1,-15M143,159l21,4M142,194l-5,-1M107,181l-1,6l-4,-1M83,182l19,4l-4,13l-2,13l-12,2v-11h-11v-6l10,-15l-12,-3M73,203h-21M476,214l-20,17l-4,-4l-7,-19l-2,-7l10,-10M510,233l7,-2l3,-6l14,-1M529,252h-12l-1,-8l-7,-2M494,246v2l-17,9l-3,-7l-12,2l-8,-20l2,-1M537,281l-6,8M518,273l1,-12l-2,-9M63,236v-18l4,-4l3,-11M424,138l-22,18M201,131l18,-3l9,2h3l-4,22l-4,14M308,150l19,3M679,283l4,7M617,261l-1,-6l-18,1M682,272h12l-1,11M679,184l1,-4l1,-7M588,284l-1,1l-5,-2l-11,1M626,240l13,11l10,6M694,272l2,-25l2,-3M567,320l19,-2l7,-18h13l7,3l-2,13M641,312l-5,-9l-3,2l-8,-11M281,309l-1,-6l19,-3v1l3,18M708,15l4,13l-1,6M694,38l-3,-8l-7,-6M707,121h23l7,2M237,302l2,-9h4l4,7l3,-4h6l3,4l9,-2v7M506,217l3,-14M428,108l1,-9v-21M461,107v1M477,257l-8,17l-8,1l-5,-3l-5,-8l5,-9l6,-3M539,310h17M513,183l1,-4M504,298v9l5,-1l-1,22M469,300l8,-3M497,265l-3,-17M433,173l-11,9M495,163l-26,-6M487,132l-3,-2l-1,-25M531,310v-18M469,281v-7M371,321l-1,-4l3,-9v-8h15M173,208l-6,-12v-5l-8,1M209,239l21,-3v-4M440,265l-4,-17l-2,-16l20,-1v1M451,264l-5,1M412,222l3,23M445,208l-19,10l-12,-30M412,222h20l2,10M426,218l1,4M239,293l3,-10v-10h15l4,10l-2,4v4l9,7M160,241l23,4M187,286l-23,-5M285,253l2,9v12l-7,2l-21,11M257,273l1,-7l10,-7l-1,-3M198,290l4,4M299,301l13,-1l3,-4l8,-1M242,273v-7M319,266l-4,4v7l-2,-1l-12,1l-5,-1l-9,-2M218,260l-4,10l-5,5M296,276l3,24M644,119l-3,2l-4,9l-6,-2l-3,-2l-20,-12l-8,-1l-9,-5l-4,-7l2,-4l3,2l16,-4l3,6l3,-3l1,9l-3,6l-4,1l1,3l-9,15l4,3l2,12l6,-2h9l5,7l-2,5M548,147l5,4l10,3M556,167l7,-13l6,-3l5,-7l8,-2l4,11l-12,24l-9,-5l-9,-5l-12,-1M626,152l7,-14M582,142l3,-6M604,153h-18M668,188v-4M817,404v8l-5,18v11l-7,11l-1,5M812,460l5,-5l2,-9l5,2l-1,-5l5,-1l-1,7l7,1M634,184l5,-7h8l5,7l5,5l10,1M647,189l-1,2v7l-10,-4l-5,-7l3,-3l13,5l5,-1M892,427h6l1,1h1l1,-1l12,13l-9,12M373,300l-21,-1M556,101l-5,2l-5,-3v-4M302,126l3,6l-2,16M287,150l-10,1M239,170l12,-2l1,-5l-2,1l4,-22l-7,-8l-1,-3l-8,-2l-2,-7l-4,-3l-1,-12M633,166l4,6l2,5M631,187l-14,-6l-2,-12M617,181l-4,9l-14,1M552,129l4,-2l4,1l3,7l11,9M675,258l4,-8h5l12,-3M247,134l5,-1l5,-8M587,285v1l6,14M598,279h9M614,301l-1,2M946,447v-1l2,-11l9,-5M924,451l-5,-17M912,301l2,6M564,189l-3,-12l4,-5M647,177h6l3,-7l8,3M665,174l1,-11M656,170l2,-7l-3,-10M665,259h8l1,-1h1v5l8,3v2l-1,4l-3,11l-6,-6l-3,-4M661,153l1,-2l5,-8M556,127l1,-15M637,172l21,-9M513,106l1,-5M619,206l-4,-6l1,-6l-3,-4M236,122l-7,1l-1,7M199,90v-14l-1,-9M677,231l-1,2M341,210v-23l1,-1l2,-5l6,-6l-2,-14l11,-12M388,321v-47l-2,1l-15,2v-3l-17,-8M168,132l6,-26l1,-4l-1,-5M731,464l-4,-19M672,35l14,8M549,238v4l10,2v6h6M606,236l-5,-15l15,-6l11,4l6,10l4,2M712,449l-5,-13l-3,-14M616,215l4,-3l-1,-6l11,-5M679,195l5,-5M543,238M543,238M543,238M543,238M544,238M545,238M545,238M545,238M550,237M649,257M653,251v-1M653,250l-7,-9M716,325l-1,8M715,333l-3,5l1,5M162,170l2,-7M164,163l2,-10M295,177l-11,2M194,253l1,-3M646,241l-8,-9M529,191l11,-5M550,237l4,1l2,-9M549,238l1,-1M725,438l-5,-21l-6,-1M666,117l5,-2M230,229h-1v-28M604,153l2,-6M611,166l-7,-3v-10M560,207l2,-10M543,238h1M544,238h1M545,238h4M641,273l3,-1l2,-10M646,262l3,-5M649,257l4,-6"/><g class="cities"><circle r="7" cx="672" cy="205"/><text x="672" y="205">Boston</text><circle r="7" cx="476" cy="239"/><text x="476" y="239">Worcester</text><circle r="7" cx="268" cy="296"/><text x="268" y="296">Springfield</text></g></svg>