<svg version="1.1" xmlns="http://www.w3.org/2000/svg" width="617" height="1000" viewBox="0 0 617 1000"><path data-geo-id="28061" d="M406,571h68v35l1,43l-5,1l-36,2l-27,3l-1,-29Z"/><path data-geo-id="28017" d="M485,207h17v36l1,15h-35v12h-17v4h-25v-15h8v-52Z"/><path data-geo-id="28145" d="M416,107v-3h83v20h-9v20h-5v6h-17v-3h-52v-23Z"/><path data-geo-id="28069" d="M473,432h93v7l-1,5v8l-1,4v3l-1,5v10l-1,7v7l-1,2v11h-60v1h-28v-60Z"/><path data-geo-id="28151" d="M169,315l-1,16v34l8,1l-3,7l9,6l-2,11l2,9l-4,1h-26l-9,-1v18l-5,-1h-27l-10,-1l4,-3h3v-3l1,-1v-1l-1,-2l-1,-1h-1l-1,-1l-1,-1l-2,-1h-1l-1,-1l-1,-2l-2,-1h-1v-4l1,-1l7,-1v2h7l1,-1h2l1,-1v-17h1v-1h2l1,-1v-1l2,-1v-2l1,-1v-4l-1,-1h-2l-1,-1v1h-2l-1,1v4l-1,1v2l-1,1l-3,-4l-1,-1l-1,-1l1,-1v-1l-1,-1l-1,-1v-1l-1,-2v-5l1,-1v-1l-1,-1l2,-2l3,-3l1,-1v-1l4,-4l3,-4h1v-5l-1,-1h-1l-3,2l-1,3v3l-1,1l-1,1l-1,1l-1,1l-1,1h-1l-1,1h-2l-6,-1v-1l-1,-1h-1l-1,-1l2,-4h7l1,-1h2v-1l1,-1v-1l2,-1l-1,-3l-2,-3l-4,-3l-2,-1l-1,2v3l1,3v1l-1,1l-2,2h-1l-1,1h-1l-5,-2l1,-2h-1l1,-1l1,-1l2,-1l1,-2l1,-1l1,-1l1,-2l1,-1l-1,-2l-1,-1l-3,-2h54Z"/><path data-geo-id="28055" d="M143,417v13l-4,13l-5,10v32h40l5,5l-4,3l-2,10l-22,-1v27l-2,-2l-14,2l-2,5l1,-32h-13l1,-2l2,-1l2,-2v-1l2,-2v-2l-2,-2l-2,-2l-1,1l-1,1h-1v1l-1,3l-1,1l-1,1h-3l-4,2l-1,1l-1,-1l-1,1h-1l-2,-2l-2,-8l5,-5l9,-5l1,-3l-2,-6h-2l-10,-1l-2,-8l2,-10l5,-4l2,-1l3,-2l4,-9v-2l-3,-4v-1h1l-1,-2l-1,-3v-1l-1,-1l-2,-1l-3,1l-1,1v1h-1v1h1v2l-1,1v2l1,5l-2,2l-3,1h-3l-3,-1l-2,-2v-4l1,-2h1l-1,-3h2l1,-2v-1l2,-1l1,-2v-4l10,1h27Z"/><path data-geo-id="28009" d="M399,26h54v27h-3v9h-9v42h-25v3h-9v-51h-8Z"/><path data-geo-id="28087" d="M561,282l8,-11h11v5l-1,1v12l-1,3v12h-1v4l-1,4v12h-1v13l-2,8v12l-1,2v1l-7,1h-53v-43h11l5,-3l13,-4l3,-13l-6,-1l-1,-7l4,-3l12,-1l3,-5Z"/><path data-geo-id="28073" d="M351,727h34l1,17h17v66l-13,1v5h-8l-4,-6l-9,2h-17v-51Z"/><path data-geo-id="28003" d="M520,25h38v47h-39l-18,1h-6v-20h-11v-28h21Z"/><path data-geo-id="28071" d="M396,120v1l3,-1l4,-1l13,5v23l1,44h-44l1,-6l-35,-1v-70l9,-1h31l6,7Z"/><path data-geo-id="28015" d="M329,286v51h12v3h11v23h-9l-2,4l-3,6l-3,4l-18,-6l-20,-6l-32,-11v-17h6v-8h6v-40l-4,-3Z"/><path data-geo-id="28085" d="M253,671v72h-66v-51h-17v-17h77Z"/><path data-geo-id="28143" d="M220,73l-2,-4v-1l-1,-3l2,-2h1v-3l-1,-1v-1l-1,-2l-1,-1l-1,-4v-1l4,-4l4,5l1,1l-1,1v3l1,1v1h1v1h2l3,-2h1l5,-2l3,-1l1,1l3,1h1v-3h16v27l-3,2l1,14l-4,3l3,10l4,4v8l-17,1v17h-16l-13,-9l-14,-11l2,-1l1,-1l1,-1v-3l-1,-3l-4,-6h-1l-1,-2v-4l1,-1v-2l-1,-5l4,-5l1,-1l1,1l1,1l1,2v2l-1,1l-1,1l-1,1v4l2,1v1h4v-1h1l1,-1l1,-1v-1l3,-2v-1l1,-1l1,-1h1v-4l-1,-1l-1,-1h-5l-1,1h-3l-1,-1h-1l-2,-1v-1l1,-6h2v-3l-1,-1v-2l5,-6l1,2l1,2v1l-1,3l-2,2h-1v3l1,2l5,1h2l2,-1Z"/><path data-geo-id="28097" d="M375,286v43h20v1h-2l-3,4l-1,1l-1,-1h-5v29h-31v-23h-11v-3h-12v-51Z"/><path data-geo-id="28019" d="M395,330v-1l7,-2l4,-6l7,-3l1,-1h4v-1h2l1,-1h6l16,-1v17l1,31h-4v18h-17v17h-17v-34h-23v-29h5l1,1l1,-1l3,-4Z"/><path data-geo-id="28139" d="M453,26h25l6,-1v28h11v20h6v28l-2,3h-58v-42h9v-9h3Z"/><path data-geo-id="28109" d="M403,810l1,2v69h-34v27h-8v3h-9v8h-7l-1,-1h-1v-1h-1v-1h-2v-1h-1l1,-1l-1,-1h-2v-1h-2v1v-2v1v-1h-2h1v-1h-1h1v-1h-1v-2v1h-2v-3h-1v-3h-2l-2,-1h1v-2h-2v-1h3v-1l-1,1v-1h-3h1l-1,-1v-1h-1l1,-1v1l1,-1h-1v-1h-1v-1h1l-1,-1h-1v-3h1v-1l-1,1h-1v-1h1l1,-2v-1h1v-1h-1v1l-1,-1l1,-1l-2,-1v-1h-1v1h-1v-2h-2v-1h3v-1h-1v1h-1v-1h2v-1h-1v-1h1v-1h-1v1h-1v-1h2v-3h-2v-1l1,-1v-2v1h1v1h1v-3h-1l1,-1h-1v-1h1v-2l1,-1v-1l-1,1v-2l-1,-1h1v-2h2v-3l1,1v1l1,-1v-1v1l-1,-1l-1,-1h2v-1l1,-1h1l-1,-1l1,-1v1v-1h1v1l1,-1h-1v-2l1,-1l-1,1l-1,-1l1,-1v-1l-1,-1l1,-1v2h1v-1l-1,-1h1v-1h1v1h1v-2l-1,-1v-2l1,1v-3l-1,-1h3v-2h-1v-1l1,-1l1,1l1,-1v-1h-1v-4l-1,-1l1,-1l1,-1v-1h1l1,-1h1l-1,-1v-1h1v-3l-1,-1h1v-1h30l9,-2l4,6h8v-5Z"/><path data-geo-id="28111" d="M471,726h17v86h2v17h-9l-5,1h-37v-18h-2v-85Z"/><path data-geo-id="28011" d="M187,224l-1,15v58h-17v18l-20,-1h-55l-2,-4v-3l2,-1h3l2,-2l2,-1h4l4,-4l-2,-4l-3,-3l-2,-1v-1l-4,-1h-2v-1l-1,-7l1,-1h1l4,-1h3v-1v1l4,4v2l4,2l2,1l1,1h2l1,-1h1l3,-1h1l1,-1l1,-1v-2l-1,-1v-1l-1,-1l-1,-1l-1,-2h-3l-1,1l-2,1h-4l-2,-1v-1l-2,-4v-6l1,-2v-1l3,1l1,1l7,-1l6,3h4l2,-1l1,-2v-3l-1,-1l-2,-1h-1l-2,-1l-2,-1l-2,-2l-2,-2l-1,-2v-2l2,-5l1,-1l2,-2l1,-1l4,-4l-4,-4l-1,-1h-2l-1,-1h-2l-3,-3l2,-3l2,-1h4l1,-1l3,-1l1,2l1,2l1,1v1l1,1h4v-1l1,-1v-2h-1l-1,-2l-1,-1v-1l-1,-1v-2h13l2,-1h1v-7l1,-1l1,-1l1,-1v-3l-1,-1l-1,-1h-2l-1,1h-4l-3,-3l-2,-2h21l1,1h26Z"/><path data-geo-id="28149" d="M148,543v-1h-2l-1,1v2l-1,2h-1v1h-1l-13,-2l-1,-1l-1,-5h1v-5l3,-1l2,-5h-1l-1,-2h-3l-2,1l-1,1h-6l-4,-2l-3,-2l-4,-6l1,-4l3,-7l5,4l1,3l1,2l2,1l3,2h4l1,-1v-4l-10,-5l-2,-1l-2,-1v-2l1,-2l5,-2h13l-1,32l2,-5l14,-2l2,2v-27l22,1l2,-10h4v6h6v9l16,2l1,6l-8,6v10l-6,9l1,7l-13,-1l1,10l-5,14l-3,6h-5l1,8l-7,3l-5,-4v6h-11l-1,9h-7l-12,-7v-1l3,-2v-1l1,-5l-2,1l-1,-1l-2,-1v-1l-4,-2v2l1,2l1,1v2l-1,1v2l-1,1l-1,-1l-8,1h-1l-2,-1h-3v-1h-3l-1,-8l1,-2v-2l2,-1l3,-2h1l3,1h1l3,-4h6l1,-2h5l2,3v2l1,3v1l1,-1l2,-4l1,-8l-1,-4l1,-3h2l2,2h1l4,-3l2,-1l2,-5l1,-1v-1Z"/><path data-geo-id="28101" d="M406,502h67l1,21v48h-68v-29Z"/><path data-geo-id="28135" d="M272,191h28l5,-1l1,5v62l-15,2l-20,1v17h-13l-5,-2l-3,7l-7,-4l1,-6l8,-3l9,1l4,-4l-4,-7h-41v-51h52Z"/><path data-geo-id="28125" d="M143,417v-18l9,1h33v34l-16,17l-1,4l11,-1l-4,6l5,6l-7,1l-2,6l12,5v6l-4,1l-2,-6l-3,6h-40v-32l5,-10l4,-13Z"/><path data-geo-id="28035" d="M385,727h52v85h2v18h-35v-18l-1,-2v-66h-17Z"/><path data-geo-id="28161" d="M339,184l35,1l-1,6l1,8v49l-7,1h-35v-7h-26v-47l-1,-5h34Z"/><path data-geo-id="28023" d="M554,569v4l-1,6v8l-1,4v1l-1,12v5l-1,4v4l-1,4v7l-1,7l-26,9l-30,4l-17,1l-1,-43v-35l17,-1h45Z"/><path data-geo-id="28127" d="M338,606h12l1,6v47l-17,2l-36,2l-25,1l2,-7l-7,-3l4,-4l-5,-4l4,-1l-1,-8l-5,-2v-6l-4,-2l-4,-15l-5,-2l3,-4Z"/><path data-geo-id="28131" d="M439,830h37l5,-1l1,35v12h-60v5h-18v-51Z"/><path data-geo-id="28121" d="M275,545l7,-8v-8h5l3,-7l11,-4l15,-14l1,-1v-2h12v-1v1l9,45v60h-83l-2,-9v-16l8,-2l1,-8l-3,-1l5,-8l4,-4v-6l7,-4Z"/><path data-geo-id="28091" d="M287,746v-11l13,1h23v-9h28l1,34v51h-16v1h-1v-1h-14v-14h-14l-3,-12h-12v-8h-4l-1,-12Z"/><path data-geo-id="28039" d="M490,812h63l6,-1v16l1,4v8l1,1v21l1,1v1h-50l-1,1h-29l-1,-35h9Z"/><path data-geo-id="28095" d="M531,203h55v12l-1,1v8l-1,4v3l-1,4v10l-1,1v11l-1,1v5h-1v8h-11l-8,11l-5,-1l-3,5l-12,1l-4,3l4,-6h-38v-26l-1,-15v-39Z"/><path data-geo-id="28123" d="M329,501v-1l9,-9v11l3,1h56l9,-1v69l-9,1h-59v-26Z"/><path data-geo-id="28051" d="M239,359l7,-2l2,-6l-7,-5l24,8l32,11l20,6l18,6l-5,4l-2,10l-3,5l-1,3l-2,4v1l1,1l-9,14l-1,1v1l-2,5l-1,7l-11,10l-19,-9l-18,-6l-9,-5l-15,-6h-4l-4,-8l-7,-2v-11l6,5l1,-4l9,-4Z"/><path data-geo-id="28105" d="M443,314v-6h11l18,-1h23l7,1l9,-1l1,11v43l-1,1h-67l-1,-31Z"/><path data-geo-id="28031" d="M393,656l1,23v48h-31v-13l-3,-8l-5,-3l-7,-1l-9,-9h-5v-32l17,-2l21,-1Z"/><path data-geo-id="28115" d="M485,150v57h-61h1h-1l-7,1v-17l-1,-44h52v3Z"/><path data-geo-id="28163" d="M299,443l-8,13l-3,11l-4,4l-7,6l-6,1l-9,7l-9,1l-10,3l-5,7l-5,1l-6,6h-8l-12,13h-5l-1,-6l-16,-2v-9h-6v-6h-4l4,-3l-5,-5l3,-6l2,6l4,-1v-6l-12,-5l2,-6l7,-1l-5,-6l4,-6l-11,1l1,-4l16,-17h34l1,-17h18l15,6l9,5l18,6Z"/><path data-geo-id="28137" d="M339,70v17h9v26l-9,1h-68l-9,-1l-4,-4l-3,-10l4,-3l-1,-14l3,-2l5,-7l3,1l5,-1l3,6l8,1v3h7l9,-3l3,-4l4,-4v-2Z"/><path data-geo-id="28077" d="M253,671l6,-1l12,-6h2l25,-1l-1,47h3v26l-13,-1v11l-7,2l-5,-5h-22Z"/><path data-geo-id="28007" d="M383,363h23v69h-63l-5,1v9l-39,1l11,-10l1,-7l2,-5v-1l1,-1l9,-14l-1,-1v-1l2,-4l1,-3l3,-5l2,-10l5,-4l3,-4l3,-6l2,-4h9Z"/><path data-geo-id="28117" d="M501,73l18,-1h39l6,3v31l1,23h-34v1v-9h-32v-17l2,-3Z"/><path data-geo-id="28113" d="M201,743h49v70h-16l-17,-1h-16Z"/><path data-geo-id="28029" d="M255,606l-3,4l5,2l4,15l4,2v6l5,2l1,8l-4,1l5,4l-4,4l7,3l-2,7h-2l-12,6l-6,1l-6,4h-77v-25l4,-6v-38h68Z"/><path data-geo-id="28013" d="M373,191h44v17l7,-1h1h-1h10v52h-8v18h-51l-1,-29v-49Z"/><path data-geo-id="28041" d="M488,726h45l20,-1v5l1,2v9l1,1v18l1,1v20h1v6l1,4v17l1,3l-6,1h-65v-46Z"/><path data-geo-id="28005" d="M112,753l-1,-1v-1l-1,-2l-1,-1l15,-5h77v69h-86v-56Z"/><path data-geo-id="28045" d="M405,936l-6,6l5,-1l4,5l-4,6l-13,8l1,4l-13,10h-5l-1,-1v-2h-3v1l-1,1h-1v1h-3v-1l-1,-1l-1,-1v-1l-1,-1v-1l-1,-1h-1l-1,-1l-1,-1l1,-3v-1l-3,-3v-1l-1,-1l1,-1l-1,-1v-1h-2v-1h1v-3h2v-4h-1l1,-1v-1l-1,-1v-1h-2v-1l-1,-1h-1v-3h-1l-1,-1l-1,-3v-1l-1,-1h-1v-2h2v-1l-1,-1v-2h-1v-5h7v-8h9v-3h8v-27h34v45Z"/><path data-geo-id="28129" d="M406,571v55l1,29l-14,1l-21,2l-21,1v-47l-1,-6h-12v-34h59Z"/><path data-geo-id="28021" d="M172,571l2,35v38l-4,6v8l-18,-1l1,-8l-29,-7l-34,-1l-5,-1l2,-1l2,-2l2,-2l1,-2l2,-1h1v-1l2,-1h-1v-3h-1l-1,-1l1,-1v-2l2,-2l1,-2l1,-1h6l3,-1h1l1,-1l2,-1l2,-4v-1l-1,-2l-1,-1h-3l-6,-1l-2,-2h-1l3,-5h2v1l1,1l3,4l1,1h4v-2l-1,-4l6,-4l2,-1l1,-2v-1l12,7h7l1,-9h11v-6l5,4l7,-3l-1,-8h5Z"/><path data-geo-id="28153" d="M548,635v6h1v22l1,9v2l1,2v13l1,6v15l1,4v11l-20,1h-62l-1,-5v-71l5,-1l17,-1l30,-4Z"/><path data-geo-id="28159" d="M444,362h45v52l1,18h-17l-3,2l-14,-2h-50v-35h17v-17h17v-18Z"/><path data-geo-id="28053" d="M219,354v13l6,6h8v-8l6,-6v34l-9,4l-1,4l-6,-5v11l7,2l4,8h-14l-1,17h-34v-34h-7l4,-1l-2,-9l2,-11l-9,-6l3,-7h27v-12Z"/><path data-geo-id="28103" d="M489,362h22l1,-1h53l7,-1v11l-1,2v4l-1,5v8l-1,5v8l-1,4v12l-1,5v2h-1v6h-76l-1,-18Z"/><path data-geo-id="28083" d="M220,259h41l4,7l-4,4l-9,-1l-8,3l-1,6l7,4l3,-7l5,2h13l2,9l4,3v40h-6v8h-6v17l-24,-8l7,5l-2,6l-7,2l-6,6v8h-8l-6,-6v-13l1,-21v-72Z"/><path data-geo-id="28027" d="M202,139v-4l-1,-1l-1,-1l-1,-2v-8l1,-1l1,-2h1v-1l14,11l13,9v32h-8l-1,37v17l-33,-1l-1,-25h-26l-1,-1h-21l2,-4l2,-2l4,-3h2v1l1,1l1,1h1l1,1l1,1l1,1h5v-1l1,-1l2,-1v-2h1v-2l-1,-1v-1l-2,-1h-7l-1,1l-1,-1l-2,1l-1,-1l-2,-1l-4,-5l1,-6l4,1l1,2v1l2,2l1,1h5l2,-4l1,-8l3,-1h8v-1l2,-1v-1l1,-1v-3l-1,-4l-2,-1l1,-5h9l4,-1v1l-1,2v1l-1,1v3h-1l1,2l1,1h4v-4l-1,-2l1,-6l3,-2h2l6,-4l1,-1l2,-1h1Z"/><path data-geo-id="28047" d="M405,936l-1,-10v-45h18v-5h60l1,48l-22,1l1,2h21l4,5l-11,-1l-10,1l-18,4l-27,12l-8,1l4,-7l-7,-6Z"/><path data-geo-id="28059" d="M483,924l-1,-48v-12h29l1,-1h50v20h1v22l1,1v9l1,2v15l-3,1l4,5h-7l-6,7h-6l-5,-5h-6l4,-8l-11,-5v8l-15,5h-7l-9,-7ZM532,929l4,2v9l-7,-7Z"/><path data-geo-id="28107" d="M339,114v76h-34l-5,1h-28v-21l-9,-7l-1,-7v-43l9,1Z"/><path data-geo-id="28093" d="M339,26h60v30h8v51h9v17l-13,-5l-4,1l-3,1v-1h-11l-6,-7h-31v-26h-9v-17Z"/><path data-geo-id="28043" d="M306,242h26v7h35l7,-1l1,29v9h-102l-2,-9v-17l20,-1l15,-2Z"/><path data-geo-id="28141" d="M584,25l1,1l1,2l1,1l2,4l1,3l4,5l4,3h3v4l-1,5v9l-1,1v13l-1,2v4l-1,1v10h-1v9l-1,2v11l-1,3v1l-1,2v8h-28l-1,-23v-31l-6,-3v-47h6Z"/><path data-geo-id="28119" d="M262,121v35l1,7l9,7v38h-52l1,-37h8v-32h16v-17Z"/><path data-geo-id="28157" d="M54,749l7,-4l7,-1l6,-4l7,1l7,-3l1,4l10,1h2l8,5l1,1l1,2v1l1,1l3,3v56h-20l-24,-1h-41l-11,-2h1l3,-1l4,-2l1,-2l2,-2v-4l-1,-1l-5,-5l-4,-5v-3l1,-3h2l1,-2l2,-3v-3l1,-5l8,-5l1,5l7,-2l4,-18Z"/><path data-geo-id="28079" d="M406,432v37l1,33h-1l-9,1h-56l-3,-1v-69l5,-1Z"/><path data-geo-id="28025" d="M503,258v26h38l-4,6l1,7l6,1l-3,13l-13,4l-5,3h-11l-1,-11l-9,1l-7,-1h-23l-18,1v-14h-2l-1,-21v-3h17v-12Z"/><path data-geo-id="28037" d="M170,692h17v51h-63l-15,5l-8,-5h-2l1,-52h28l1,1Z"/><path data-geo-id="28099" d="M406,469v-37h50l14,2l3,-2v70h-66Z"/><path data-geo-id="28081" d="M531,130v73l-29,1v3h-17v-63h5v-20h9v-3h32Z"/><path data-geo-id="28133" d="M187,224l33,1v108l-1,21h-16v12h-27l-8,-1v-34l1,-16v-18h17v-58Z"/><path data-geo-id="28063" d="M81,660l-3,-1l-2,1l-4,1l-2,1h-5v-5l2,-7l2,-5l3,-2h3l2,-1l1,2v4l1,2l1,1l1,1l2,-1l1,-1l1,-1v-2l-1,-1l-2,-2l2,-3l1,-1l5,1l34,1l29,7l-1,8l18,1v34h-41l-1,-1h-28v-4h-13l-4,-3l-2,-3l-1,-1l-4,-1v-9l-3,-6h6l3,-1l1,-1h-1v-1Z"/><path data-geo-id="28001" d="M57,694l-2,-1l-2,1l-4,1l-3,1h-1l-1,-1l-1,-1l-2,-1l-1,-2l3,-7l2,2l2,2l6,2h3l1,-1h1l1,-1l1,-4v-13l3,-5l1,-2h9l3,6v9l4,1l1,1l2,3l4,3h13v4l-1,52l-10,-1l-1,-4l-7,3l-7,-1l-6,4l-7,1l-7,4l-7,-1l-4,18l-7,2l-1,-5l-8,5l-1,5v-1l-2,-2l-1,-2l-3,-3l-3,-1l1,-6h3l5,1h7l3,-1l2,-1v-1l2,-3v-5h-1l-1,-1v-1h-1v-1h-1v-1l-3,-2v-5l1,-2h-3l-1,1l-2,-4v-3l2,-2l2,-1h1l1,-1h1v1l1,1l-1,1l1,3v4l2,3l3,1h3l2,-5v-3l-3,-2l-2,-4l-2,-3v-12l-1,-1l2,-4h4l2,1l11,-6Z"/><path data-geo-id="28057" d="M531,130v-1h62v2l-1,5v12l-1,2l-1,7v11l-1,3v9l-1,3v9l-1,3v5l-1,3h-55v-9Z"/><path data-geo-id="28049" d="M264,537h18l-7,8v3l-7,4v6l-4,4l-5,8l3,1l-1,8l-8,2v16l2,9h-81l-2,-35l5,-14l-1,-10l13,1l-1,-7l6,-9v-10l8,-6h5l12,-13v17h34v17Z"/><path data-geo-id="28033" d="M245,53l-1,-1l-1,-1l1,-1l9,-5l2,-6l-2,-5l-7,-4l-2,-4h54l32,1l9,-1v44h-31v2l-4,4l-3,4l-9,3h-7v-3l-8,-1l-3,-6l-5,1l-3,-1l-5,7v-27Z"/><path data-geo-id="28067" d="M470,650v71l1,5l-34,1h-43v-48l-1,-23l14,-1l27,-3Z"/><path data-geo-id="28075" d="M473,502h28v-1h60v1l-1,2v5h-1v12l-1,3v12l-1,1v4l-1,2v13l-1,5v7l-1,1l-18,1h-45l-17,1v-48Z"/><path data-geo-id="28147" d="M250,743h25l5,5l7,-2v20l1,12h4v8h12l3,12h14v14h-39l-21,1h-11Z"/><path data-geo-id="28065" d="M298,663l36,-2v32h5l9,9l7,1l5,3l3,8v13h-40v9h-23v-26h-3Z"/><path data-geo-id="28155" d="M426,274h25v-1l1,21h2v14h-11v6l-16,1h-6l-1,1h-2v1h-4l-1,1l-7,3l-4,6l-7,2h-20v-52h51Z"/><path data-geo-id="28089" d="M284,471l4,-4l3,-11l8,-13l39,-1v49l-9,9v1h-12v2l-1,1l-15,14l-11,4l-3,7h-5v8h-29v-17h-34v-17h8l6,-6l5,-1l5,-7l10,-3l9,-1l9,-7l6,-1Z"/>  <path class="mesh" d="M485,150v57h17v36l1,15h-35v12h-17v4h-25v-15h8v-52h51M512,361l-1,1h-22v52l1,18h76M95,314h54l20,1l-1,16v34l8,1l-3,7l9,6l-2,11l2,9l-4,1h-26l-9,-1v18l-5,-1h-27l-10,-1M143,417v13l-4,13l-5,10v32h40l5,5l-4,3l-2,10l-22,-1v27l-2,-2l-14,2l-2,5l1,-32h-13M453,26v27h-3v9h-9v42M416,107v-3h83v20h-9v20h-5v6h-17v-3h-52v-40h-9v-51h-8v-30M572,360l-7,1h-53v-43h11l5,-3l13,-4l3,-13l-6,-1l-1,-7l4,-3l12,-1l3,-5l5,1l8,-11h11M558,25v47h-39l-18,1h-6v-20h-11v-28M373,191l1,-6l-35,-1v-70l9,-1h31l6,7h11v1l3,-1l4,-1l13,5M339,114h-68l-9,-1v8l-17,1v17h-16l-13,-9l-14,-11M406,397v-34h-54M375,277v9M245,53h16v27l-3,2l1,14l-4,3l3,10l4,4M561,501h-60v1h-28v-70h17M501,73v28l-2,3M403,810l1,2v69h-34v27h-8v3h-9v8h-7M339,812h13M138,198h21l1,1h26l1,25l-1,15v58h-17v18M175,493h4v6h6v9l16,2l1,6l-8,6v10l-6,9l1,7l-13,-1l1,10l-5,14l-3,6h-5l1,8l-7,3l-5,-4v6h-11l-1,9h-7l-12,-7M548,635l-26,9l-30,4l-17,1l-5,1l-36,2l-27,3l-1,-29v-124M178,400h7v34l-16,17l-1,4l11,-1l-4,6l5,6l-7,1l-2,6l12,5v6l-4,1l-2,-6l-3,6M407,655l-14,1l1,23v48h43M439,830h-35M416,147l1,44h-44l1,8v49l-7,1h-35v-7h-26M305,190h34v-6M406,571h68l17,-1h45l18,-1M329,501v-1l9,-9v11l3,1h56l9,-1h1M170,675v-25l4,-6v-38h176l1,6v47l-17,2l-36,2l-25,1l2,-7l-7,-3l4,-4l-5,-4l4,-1l-1,-8l-5,-2v-6l-4,-2l-4,-15l-5,-2l3,-4l-2,-9v-16l8,-2l1,-8l-3,-1l5,-8l4,-4v-6l7,-4v-3l7,-8v-8h5l3,-7l11,-4l15,-14l1,-1v-2h12l9,45v60M490,812h63l6,-1M562,863h-50l-1,1h-29M502,207v-3l29,-1h55M537,290l4,-6h-38v-26M406,571l-9,1h-59M335,377l-5,4l-2,10l-3,5l-1,3l-2,4v1l1,1l-9,14l-1,1v1l-2,5l-1,7l-11,10l-19,-9l-18,-6l-9,-5l-15,-6h-4l-4,-8l-7,-2v-11l6,5l1,-4l9,-4v-34l7,-2l2,-6l-7,-5l24,8M395,329v1h-2l-3,4l-1,1l-1,-1h-5v29M253,671v72h-66v-51h-17v-17h77l6,-4l6,-1l12,-6h2M100,691h28l1,1h41M489,362h-45M363,727v-13l-3,-8l-5,-3l-7,-1l-9,-9h-5v-32M434,207h-10l-7,1v-17M443,314v-6h11l18,-1h23l7,1l9,-1l1,11M99,743l1,-52v-4h-13l-4,-3l-2,-3l-1,-1l-4,-1v-9l-3,-6M219,503l-12,13h-5M185,434h34l1,-17h14M261,80l5,-7l3,1l5,-1l3,6l8,1v3h7l9,-3l3,-4l4,-4v-2h31v17h9v26M287,746l-7,2l-5,-5h-22M558,72l6,3v31l1,23h-34v1v-9h-32M250,743v70M201,812v-69M426,274v3h-51l-1,-29M488,726h45l20,-1M385,727l1,17h17v66l-13,1v5h-8l-4,-6l-9,2h-17v-51l-1,-34h43M298,663l-1,47h3v26h23v-9h28M115,812v-56l-3,-3l-1,-1v-1l-1,-2l-1,-1l15,-5h63M481,829l1,35v12h-60v5h-18v45l1,10M172,571l2,35M170,658l-18,-1l1,-8l-29,-7l-34,-1l-5,-1M471,726h17v86h2v17h-9l-5,1h-37v-18h-2v-85l34,-1l-1,-5v-71M176,366h27v-12h16v13l6,6h8v-8l6,-6M271,277l2,9M219,354l1,-21v-74M229,139v32h-8l-1,37M220,225l-33,-1M482,876l1,48M272,191h28l5,-1l1,5v62l-15,2l-20,1v17h-13l-5,-2l-3,7l-7,-4l1,-6l8,-3l9,1l4,-4l-4,-7h-41v-51h52v-38l-9,-7l-1,-7v-35M339,70v-44M593,129h-28M321,812v-14h-14l-3,-12h-12v-8h-4l-1,-12v-31l13,1M26,773l1,-5l8,-5l1,5l7,-2l4,-18l7,1l7,-4l7,-1l6,-4l7,1l7,-3l1,4l10,1h2l8,5M338,491v-49M454,308v-14h-2l-1,-21M531,130v73M406,432h-63l-5,1v9l-39,1l-8,13l-3,11l-4,4l-7,6l-6,1l-9,7l-9,1l-10,3l-5,7l-5,1l-6,6h-8v17h34v17h29M329,286v51h12v3h11v23h-9l-2,4l-3,6l-3,4l-18,-6l-20,-6l-32,-11v-17h6v-8h6v-40l-4,-3h102v43h20l7,-2l4,-6l7,-3l1,-1h4v-1h2l1,-1h6l16,-1v17l1,31h-4v18h-17v17h-17v72l1,33h66l1,21v83l1,43M473,432l-3,2l-14,-2h-50M351,659l21,-1l21,-2"/><g class="cities"><circle r="7" cx="263" cy="558"/><text x="263" y="558">Jackson</text><circle r="7" cx="447" cy="937"/><text x="447" y="937">Gulfport</text><circle r="7" cx="293" cy="28"/><text x="293" y="28">Southaven</text></g></svg>