<svg version="1.1" xmlns="http://www.w3.org/2000/svg" width="1000" height="382" viewBox="0 0 1000 382"><path data-geo-id="37037" d="M538,111l33,-1l-2,-4h4l21,2l12,-1v5l-1,1v2l-1,1l-1,4v2l-3,10l-1,2l-2,7l9,4h-1v1l-1,2h-1l-3,5l-9,-6v-4l-10,-3l-6,5l-9,5l-5,3h-5l-6,1h-13l1,-16Z"/><path data-geo-id="37001" d="M539,59v-1h29v39l-1,2v3l2,4l2,4l-33,1v-8l1,-3Z"/><path data-geo-id="37057" d="M481,88h2l2,1v16l-1,8v10l-1,22v10h-13l-2,-10l-14,-12v-5l-9,-2l-4,-2l-3,-13l6,2l5,-3l-3,-6l5,1l-3,-11l1,-1h1l3,-2h12l2,-1v-3Z"/><path data-geo-id="37069" d="M669,54l7,1l7,1v-1l1,1l5,4h1v1h3v-1v1h1v-1h2v1v-1h1v1h1l1,-1v1l1,1h1l-6,13l-12,22l-7,16l-1,-1h1l-1,-2l-2,-4h-1l-1,-2l-1,-1h-2l-3,-2l-8,-9l-12,-5v-10l4,-11l7,1h2l4,-9Z"/><path data-geo-id="37155" d="M548,271v-1l14,-18l-1,-3l-1,-6h17l12,-12h1v-1l2,-2l1,-1l11,6l4,10l7,14l1,1l3,4l-3,7v1l-1,5l-2,6l1,4l-1,4l-7,4h-2l-2,5l-5,4l-2,5l-1,2l-4,4l-2,-1l-14,-15l-2,-2l-4,-4l-3,-4l-1,-1l-3,-3l-1,-1l-1,-1h-1v-1l-1,-1l-1,-1Z"/><path data-geo-id="37109" d="M334,165l-9,-19h1l61,3l1,8v11Z"/><path data-geo-id="37027" d="M305,79h-2v-2l-3,-2l-3,-2l16,-1l13,1l3,3l11,4h1l2,3l6,6l-2,8l1,19l-3,2l-1,2l-9,-3l-10,1l-9,-6l-1,-4l-8,-3l-7,-10h-1l-2,-2Z"/><path data-geo-id="37063" d="M598,80v-2l1,-1v-6l1,-1v-5l1,-7h2l10,1h4v19l6,2l-1,3l2,4l1,-1l2,2l-1,5v2l-3,3v1l-1,1h-2l-3,-1v1l-3,7h-8l-12,1l1,-5v-2l1,-3v-5l1,-8Z"/><path data-geo-id="37145" d="M581,19h16l10,-1h10v41h-4l-10,-1h-24l1,-2v-25Z"/><path data-geo-id="37115" d="M180,106l-1,-1v-2h1v-1h1v-1h-1v-1h1l-1,-1v-4h1v-2h1v-1h5v1h1v1l1,1v1h1v-1v1l1,-1h1l-1,-1h1v-1h1v-1h1v-2h1v-1h-1v-2h1v-1l2,-1h1l1,-1h1v-1h1v-1h1v-1h2v-1h2v-1h2l1,-1l1,-1v1h1v1h1v1h1v1h1l1,1l-1,1h-1v2h-1v2h1v2h-1v2h4v1h2v-1h2v-1h2v-1h1l1,10h1l7,5l1,7l-7,2h-6l-22,10l-7,4l-9,1l-3,-10l-4,2l-1,-7v-1l1,-1v-1l1,-1v-1h1l1,-1v-1h1Z"/><path data-geo-id="37151" d="M520,103h18v35l-1,16h-23l-31,1v-10l1,-22v-10l1,-8v-4h12Z"/><path data-geo-id="37131" d="M747,16h4l2,-1h32l4,-1l5,4h3l1,2l1,1l1,2h-1l-1,1h-1v-1l-3,1l-6,23l-3,7l-2,4l-7,1l1,5l-10,-4l1,-5l-4,-2l-3,-9l-13,3l-3,-5l4,-3l-3,-7l-5,-3l-2,-5h-15l-4,-2h-8l-1,-5h3l11,-1h21Z"/><path data-geo-id="37013" d="M800,144v-2l-2,-1l-1,-2h-1l-1,-1h-1h1l-2,-3v-1l-3,-11l1,-2h3l17,9l15,-8v2l22,-1l4,4l3,9l1,-1v1h1l7,4l1,5h-10l-8,3l6,5l4,12l-26,-6l-19,-6ZM853,179l-2,6l-24,3l-5,-5l-11,-9l-20,-11v-13l9,-5l4,2l11,12l4,-1l8,3l4,4l21,6l1,8Z"/><path data-geo-id="37159" d="M414,109l9,1l3,3l3,1l3,2l7,4l2,4l4,2l9,2v5l14,12l2,10h-59v-7l-1,-1v-4l-1,-1l-1,-12Z"/><path data-geo-id="37051" d="M623,187l15,2l-1,9l-1,5l-1,2h1l-1,1l-1,1l-2,3l1,2l1,4v1h1v2l1,3l2,3v1h1l1,1l2,1l1,1l1,1v1l1,1l4,4l1,2l2,1v1h-32l-12,3l-4,-10l-11,-6l-6,-11l-1,-10l1,-8v-2l23,-5l6,-4Z"/><path data-geo-id="37153" d="M482,203l6,1v-1l2,-2h1l10,-1l4,-2l7,1h5v-1h6l8,2v2h1l1,1l2,2v2l1,6h5l3,1h2v1h1l1,1l-12,6l-2,8l2,3l-6,6v6l-7,2h-26l3,-7l6,-4l-2,-12l-4,-3l3,-6l-4,-2l-1,-7l-7,4l-9,-3Z"/><path data-geo-id="37093" d="M558,226h-1v-1h-1v-1h-1v-1h-1v-1h-1v-1h-1l-1,-1v-1h-2v-1h-1v-2l14,-16l1,-1h1l3,-4h1l2,-1l4,2h4l1,1l2,1l3,1l3,-1l-1,8l1,10l6,11l-1,1l-2,2v1h-1l-12,12h-17v-2h1v-2h-1h1v-1h-1v-4l-1,-1l1,-1l-1,-2v-2h-1v-1Z"/><path data-geo-id="37025" d="M406,155h52l-10,19l-13,23l-3,-2l-1,-1l-6,-3l-7,-5v-1h-1l-2,-8l-7,-8l1,-4Z"/><path data-geo-id="37029" d="M882,32l-4,-4h-1l-1,-1h-1l-1,-1h-1l-1,-1l-6,-2v-1v1v-1l-6,-5l-5,-5l17,-1h6l18,15l6,10h2v1h7l3,6l4,1v13l5,3l-11,-2l-3,-5l-10,-8l-6,-1l-5,-10Z"/><path data-geo-id="37169" d="M443,18h12l2,1h30v28l-1,7v2h-44Z"/><path data-geo-id="37031" d="M798,248h-1l-1,-2l1,-1h1v-1h1l1,1v-1h2l1,-1l1,-1h14l7,-5l14,-1l7,-3l1,-3l3,-6l-1,-6h6l2,5l1,-7l6,-1l4,5l1,-15l4,2v15l5,1l1,-4l7,1l-4,-6l9,6l-6,4v6l-6,4l-2,-4v7h-3l-4,9l-2,-2l-3,7l-7,1l1,-7l-4,-2l-2,13l-4,-4l-2,-8l-8,3l6,2l-2,3l-19,1l-21,7l1,-5ZM908,213l-14,13l19,-22l3,2ZM883,238l-15,22l1,-5l9,-9v-4Z"/><path data-geo-id="37005" d="M347,14h22v1h18l3,1h4l-2,8l-5,7l1,6l-6,4l-8,-10l-7,1l-3,5l-7,4v-4l-1,-3l-6,-10Z"/><path data-geo-id="37139" d="M871,44l-6,-10l-5,-17l6,5v1v-1v1l6,2l1,1h1l1,1h1l1,1h1l4,4l6,2l2,9v1l9,6l6,6l3,7l-12,4l-4,-2l-9,-10l-2,-1l-1,-1l-2,-1l-2,-1Z"/><path data-geo-id="37193" d="M357,41l7,-4l3,-5l7,-1l8,10l6,-4l5,5l4,4v13l-1,24l-3,-1h-6l-7,2l-9,1h-7l-10,1l-2,2l-3,1l-6,-6l-2,-3h-1l-11,-4l-3,-3l9,-8l-1,-8l6,-6l5,1v-10Z"/><path data-geo-id="37003" d="M349,89l3,-1l2,-2l10,-1h7l9,-1l2,3v1l1,7l-1,1l-3,12l-7,11l-4,-7l-12,1l-8,3l-1,-19Z"/><path data-geo-id="37083" d="M712,22h8l4,2h15l2,5l5,3l3,7l-4,3l3,5l13,-3l3,9l4,2l-1,5l10,4l6,9l-8,2l-1,2l-9,9l-12,-5l-1,-1v-4l-3,-1h-2l-1,-1h-1l-2,-1h-1v-1l-1,-1l-3,-2h-1l-3,-1h-2l-1,2v-1h-1v-1h1h-1l-4,1v-1v1h-13l-3,-5l-5,-1l-2,2v-1l-2,-2l7,-14l2,-7v-14Z"/><path data-geo-id="37163" d="M638,189l4,-7l4,-3l5,7l9,1l11,-5l8,9l7,4v13l2,7l1,20l-4,11l-1,9l7,3l2,-2l-14,23l-1,-1v-1l-2,-2l-1,-1l-2,-1v-1v1v-2l-2,-2v-3l-1,-2l-1,-1h-1v-1v1l-3,-4l-1,-1l-1,-2l1,-1l-1,-2l-1,-1l-2,-1l-1,-1v-1l-1,-1v-1l-1,-2l-3,-2l-1,-1l-1,-1v-2l-2,-1l-1,-2l-4,-4l-1,-1v-1l-1,-1l-1,-1l-2,-1l-1,-1h-1v-1l-2,-3l-1,-3v-2h-1v-1l-1,-4l-1,-2l2,-3l1,-1l1,-1h-1l1,-2l1,-5Z"/><path data-geo-id="37189" d="M287,50l1,-2h2v-1h1l1,-1v-1h1v-1h2v-1h1v-1h3v-1h1v2h2l1,1h3v-1l1,1h2v-1h-1v-1h-1l1,-1h-1v-2h-1l1,-1v-1l10,6l6,9l11,5l1,8l-9,8l-13,-1l-16,1l-1,-7l-8,-5l1,-10Z"/><path data-geo-id="37173" d="M119,138v-1h2v-2l1,-1v1h1v-1l1,1v-1h2v-1h1l1,-1h1v-1h1l1,-1l1,-1v-1h4v1h2l1,-1v-1h1v-1h1v-1h1v-1l7,2l3,19l-3,3h-8l-6,6l-4,-1l1,19h-6l-5,1l-1,2l-25,2l-1,-5l8,-4l4,-11l-6,1l-6,-3l-28,-3h1l1,-1h2v-1v1h1v-1l1,-1v-1h1h-1h1v-1h1v-1l1,-1h5v-1h1v1v-1l2,-1v-1h1l1,-1l1,-1h7v-1h7l1,1l1,-1v1v-1h1v-1h1l1,1h1v1h8v1h2v-1h2v-2h1Z"/><path data-geo-id="37011" d="M278,64l1,-1l1,-1v-1l1,-1v-1l1,-1v-1h1v-1l1,-1l3,-5l2,1l-1,10l8,5l1,7l3,2l3,2v2h2l-8,14l-3,-1l-4,-2l-7,3l-5,7l-5,-5v-8l-4,-13v-1h2l1,-2h1v1h1l4,-8Z"/><path data-geo-id="37045" d="M309,144l6,1l1,1h1l1,-1l1,1h6l9,19l5,9l4,2l1,8l4,2l-1,13h-9l-4,-1h-10l-4,-1h-4l-17,-1l9,-28Z"/><path data-geo-id="37125" d="M537,154h13l6,-1h3v8l2,2l1,3h1l1,2h1l2,8l10,5l-4,5l14,10v2l-3,1l-3,-1l-2,-1l-1,-1h-4l-4,-2l-2,1h-1l-3,4h-1l-1,1l-14,16l-1,-1h-1v-1h-2l-3,-1h-5l-1,-6v-2l-2,-2l-1,-1h-1v-2l-1,-1h-1l-2,-2l-1,-6h-1l-4,-4v-6l-7,-27Z"/><path data-geo-id="37067" d="M465,91h-12l-3,2h-1l-1,1v-1l-7,-11l-4,2l-2,-8l8,-3l-1,-15v-2h44v16l-1,17l-2,-1h-2l-14,-1v3Z"/><path data-geo-id="37077" d="M617,18h36l-1,1l-1,2h-2l-1,1v3l-1,1v37l2,3l-4,11v10l-15,-7h-7l-6,-2v-19Z"/><path data-geo-id="37185" d="M678,17h33l1,5l-2,5v14l-2,7l-7,14h-1l-1,-1v-1l-1,1h-1v-1h-1v1v-1h-2v1h-1v-1v1h-3v-1h-1l-5,-4l-1,-1v1l-7,-1l-7,-1l3,-5l-2,-14l-4,-17h2l1,-1h8Z"/><path data-geo-id="37137" d="M853,179v-6h6l2,4l4,-3l3,7l-5,2l3,4l-10,-3l2,4l-10,6l13,1l-3,8l-9,2l7,1l-12,7l-1,3l-10,5l-14,-11v-8l-1,-1v-1v1v-1v1l-1,-1h-1l-3,-3v-1v1v-1l1,1l1,-3l2,-4l5,-7l5,5l24,-3Z"/><path data-geo-id="37033" d="M581,19l-1,12v25l-1,2h-40l2,-39h17Z"/><path data-geo-id="37107" d="M722,186v-8l2,-7l13,-1l1,3l8,-4l9,-5l5,-2l1,4l7,7l1,1v-1h-1v1h-1v1h-2l-2,4l2,7l-4,3l-6,-2l2,10l-9,12l-14,9l-2,-6v-2l-1,-3v-1l-3,-7l-6,-3Z"/><path data-geo-id="37075" d="M61,162v-1h-1v-2h-1v-1l2,-1h1v-2h1v-1h1v-1h1l1,-1l28,3l6,3l6,-1l-4,11l-8,4l1,5l-3,4h-2l-7,-2l-11,3l-9,2l-3,-2l-2,-8l1,-1l-1,-1l-1,-1l1,-1v-2h-1l1,-1h-1l1,-1l2,-1l1,-1v-1Z"/><path data-geo-id="37073" d="M816,14h-1v-1h26l1,-1h13l5,5l5,17l-11,4l-2,2l-4,2l-4,2l-1,-1h-1l-1,2l-10,-8l-17,-5l-1,-6Z"/><path data-geo-id="37161" d="M247,167v-10l4,-7l6,-1l3,2l14,-2l4,1l15,-2l2,-4l6,-4h3v1h1v-1h1v2v-1v1h1l1,2h1l-1,24l-9,28h-3l-4,-1h-14l1,-8l-3,-3l-6,-9l-11,-10Z"/><path data-geo-id="37187" d="M826,122l2,-2l1,-3l2,-4l1,-5v-3l1,-1l1,-1h1l5,-8v-1h1v-2h17l15,-6l3,6v1l2,10l-5,9v12l-25,-1l-22,1Z"/><path data-geo-id="37007" d="M460,196l3,-2l2,7l7,-2l10,4v4l9,3l7,-4l1,7l4,2l-3,6l4,3l2,12l-6,4l-3,7h-23l-4,-1h-15l3,-37Z"/><path data-geo-id="37135" d="M568,85v-27h33l-1,7v5l-1,1v6l-1,1v2l-1,5l-1,8v5l-1,3v2l-1,5l-21,-2h-4l-2,-4v-3l1,-2v-11Z"/><path data-geo-id="37049" d="M761,189l4,-3l-2,-7l2,-4h2v-1h1v-1h1v1l4,1l7,-6l5,2v-5l6,-3l20,11l11,9l-5,7l-2,4l-1,3l-1,-1v1v-1v1l3,3h1l1,1v-1v1v-1v1l1,1v4l-1,3l-10,-5l-4,4h-6l-1,2h-1l-1,-1l-1,1h-1h1h-1l-6,-5ZM847,230l-1,3l-7,3l-14,1l-7,5h-14l-3,-2v-27l-1,-3v-2h6l2,-4l6,8l1,5l8,6l10,1l6,4l5,-6l5,1l-2,7Z"/><path data-geo-id="37195" d="M712,110l8,-1l1,-4l8,5l4,14l6,6l-4,3l-13,9h-10l-15,1h-1l-5,-2l-6,-15h-1l-1,-2Z"/><path data-geo-id="37061" d="M686,195l10,2l5,-2l15,3l6,-2l6,3l3,7v1l1,3v2l2,6l6,4v1l2,4v13l-1,1v2l-1,3v10l-29,1h-4l-2,-1l-2,-1v1h-10l-2,2l-7,-3l1,-9l4,-11l-1,-20l-2,-7Z"/><path data-geo-id="37087" d="M142,124v-3h1l1,-1h2l1,1v-1h3v-1h1v-1h1v-2h1v-1l1,1l1,-1v1h1v-1h3v-1h1l1,-1v-1l1,1h5l1,1h2v1h1v-1h1l1,-1h1l1,7l4,-2l3,10l3,8l5,-1l4,11l-3,7l1,6l4,3l-10,13l-9,3l-5,-3l-4,-8l-9,-12l-10,-7l3,-3l-3,-19Z"/><path data-geo-id="37081" d="M539,59v41l-1,3h-18l-23,-2h-12v-12l1,-17v-16Z"/><path data-geo-id="37099" d="M132,172l-1,-19l4,1l6,-6h8l10,7l9,12l4,8l5,3l-1,8l-7,5v8l-7,7l1,5l3,2h-1l-5,1v1l-5,1l-6,-8l3,-2l-9,-11l1,-10h-8Z"/><path data-geo-id="37097" d="M382,96l1,-1l-1,-7v-1l-2,-3l7,-2h6l3,1h20l-2,26l-6,21l1,12l1,1v4l1,1v7h-5l-1,-1h-8l-4,-1l-1,2l-4,2l-1,-8l4,-10l-9,-11h-6l-4,-9l7,-11Z"/><path data-geo-id="37091" d="M797,23v1h1l1,-1h1l-1,-2l-1,-1l-1,-2h-3l-5,-4l3,1h5l1,-1h18l-3,12l1,6v1l17,5l8,8l-2,7l-25,1h-27l3,-7l6,-23Z"/><path data-geo-id="37149" d="M247,167l12,-2l11,10l6,9l3,3l-1,8h-1l-9,-1h-10l-1,-1h-8l-1,-1h-5v1h-2l-1,1h-1v-1l-1,1v-1h-1l1,-12l4,-4Z"/><path data-geo-id="37165" d="M548,216v2h1v1h2v1l1,1h1v1h1v1h1v1h1v1h1v1h1v2h1v2l1,2l-1,1l1,1v4h1v1h-1h1v2h-1v2l1,6l1,3l-14,18l-8,-7l-7,-7l-8,-8v-1h-2l7,-2v-6l6,-6l-2,-3l2,-8Z"/><path data-geo-id="37085" d="M595,158l5,-5l3,-5h1l1,-2v-1h1l21,8l6,2l5,8l1,1v1l2,4h1l1,1v3v-1v1l3,6l-4,3l-4,7l-15,-2h-7l-6,4l-23,5l-14,-10l4,-5Z"/><path data-geo-id="37105" d="M600,153l-5,5l-18,23l-10,-5l-2,-8h-1l-1,-2h-1l-1,-3l-2,-2v-8h2l5,-3l9,-5l6,-5l10,3v4Z"/><path data-geo-id="37017" d="M616,270v-1l3,-7l-3,-4l-1,-1l-7,-14l12,-3h32v-1v2l1,1l1,1l3,2l1,2v1l1,1v1l1,1l2,1l1,1l1,2l-1,1l1,2l1,1l3,4v-1v1h1l1,1l1,2v3l2,2v2v-1v1l2,1l1,1l2,2v1l1,1v7h1l7,4l-8,9l-8,4h-8l-15,-5l-12,-6l-2,-2l-18,2l-3,-3l1,-4l-1,-4l2,-6Z"/><path data-geo-id="37039" d="M29,182l1,-1h1v-1h1l1,-1l1,-1h1l1,-1l1,-1l1,1h1v2h1v1h2l1,-1l1,1v-1l1,1h2v-1h5v-1h1l1,-1h1l1,-1l1,-1l1,-1l2,8l3,2l9,-2l11,-3l7,2h2l-4,12h-2l-3,1l-8,1l-6,8l-6,4l-4,7h-14l-5,-1l-15,-1l1,-11v-3l1,-3l2,-13Z"/><path data-geo-id="37035" d="M326,146v-1l1,-2l1,-1v-1h1h-1h1v-1l5,-4l1,-2l2,-4l2,-3l2,-2v-1l3,-4l1,-2l3,-2l8,-3l12,-1l4,7l4,9h6l9,11l-4,10Z"/><path data-geo-id="37177" d="M899,123l-2,6l-1,4l-1,1v2h-3l-1,-1h-6l3,-11h-15v-12l5,-9l-2,-10h11l-6,-2l7,-5l9,-2h11l6,5l-10,2l5,3l5,-2l-5,10l2,23l-12,-3Z"/><path data-geo-id="37113" d="M121,173l5,-1h6l4,13h8l-1,10l9,11l-3,2l6,8h-17l-23,-1l-9,-6l-1,-5l-10,-10l-4,-1h-3l4,-12l3,-4l25,-2Z"/><path data-geo-id="37143" d="M854,38l11,-4l6,10l5,7l2,1l2,1l1,1l2,1l9,15l-17,-5l-2,-3l-8,-4l9,10l8,3l-11,2h-9l-8,-2l-2,-16Z"/><path data-geo-id="37095" d="M864,140l-7,-4h-1v-1l-1,1l-3,-9l-4,-4l25,1h15l-3,11h6l1,1h3v-2l1,-1l1,-4l2,-6l6,3h11h-1l11,-1l3,4l-3,13l-7,3l-3,13l-4,-1v6l-9,6l-13,1l-5,-2l-5,-7l-1,6l-2,-3l-2,-9l-3,7l-7,4l-5,-3l-1,-8l-4,-6l10,1l4,-8l-5,-2Z"/><path data-geo-id="37071" d="M334,165l54,3l-7,15v18l-3,1v-1h-3l-14,-1l-14,-1l1,-13l-4,-2l-1,-8l-4,-2Z"/><path data-geo-id="37101" d="M676,113l1,3v3l2,2l4,3l1,2h1l6,15l5,2h1l-2,2l-8,24v4l-3,2h-3l-10,7l-11,5l-9,-1l-5,-7l-3,-6v-1v1v-3l-1,-1h-1l-2,-4v-1l-1,-1l-5,-8l-6,-2l2,-2l1,-1l1,-1l1,-1l1,-1l2,-1l10,-11l9,-7Z"/><path data-geo-id="37015" d="M777,64l-1,-5l7,-1l2,-4h27l25,-1l-3,5v8l4,7l3,15l-3,3l2,4v-1h1v-2v2h-1v1l-5,8l-9,-2l1,4l-5,5l-2,-7l-5,-3l-11,4l2,-4l-2,-7l-8,3l-9,-3l1,-6l-14,-8v-2l1,-2l8,-2Z"/><path data-geo-id="37167" d="M458,155h12l8,6l2,9l4,2l-5,18l4,4l-1,9l-10,-4l-7,2l-2,-7l-3,2l-5,3h-15l-5,-2l13,-23Z"/><path data-geo-id="37079" d="M735,133l15,16h4l1,1h1v4v-1v1h1v1l3,7l-5,2l-9,5l-8,4l-1,-3l-13,1l-2,-9v-20Z"/><path data-geo-id="37129" d="M703,308l4,-6l12,1l6,-3l1,1h1l-1,1v1l9,9h3v-1v1l-16,18l-2,12l-4,2l-1,-11l-4,-7l1,-6l-8,-7Z"/><path data-geo-id="37147" d="M735,133l4,-3h1l1,-1l2,-2l3,-2l7,-5l6,-7h5l3,-4l5,1l10,4l3,4l3,1l2,1l1,1l-1,2l3,11v1l2,3h-1h1l1,1h1l1,2l2,1v3l-9,5v13l-6,3v5l-5,-2l-7,6l-4,-1l-1,-1l-7,-7l-1,-4l-3,-7v-1h-1v-1v1v-4h-1l-1,-1h-4Z"/><path data-geo-id="37141" d="M693,256h10v-1l2,1l2,1h4l29,-1l2,5l2,6l1,2v1l1,1v1l1,1l2,5v2l1,2l1,2l1,4h1l2,1h1l1,1l2,2h-1l-16,12l-3,7l-4,1l-9,-9v-1l1,-1h-1l-1,-1l-6,3l-12,-1l-4,6l-9,-5l-5,2h-4l-6,-6l8,-9l-7,-4h-1v-7Z"/><path data-geo-id="37179" d="M431,194l1,1l3,2l5,2h15l5,-3l-2,13l-3,37h-4l-22,-1h-25v-2l1,-11v-2l-3,-5l-2,-3h-1v-2l2,-1l1,-1h1l1,-1h3l6,-6Z"/><path data-geo-id="37121" d="M252,70v-1l1,-1h1v-1h3v1h1v1l1,-1h3v2h1v4h2l1,-1l1,1h2l4,13v8l5,5l-1,4l-12,5l-3,2l-1,-1v-11l-4,-4v-10l-16,-2v-5l-8,-1l1,-1h1l1,-1v-1h2v-1l1,-1h3l1,-1h2l2,-2l1,1l1,1l1,-1v-1h1v1h1Z"/><path data-geo-id="37133" d="M740,251v-5l1,-3v-2l1,-1v-13l-2,-4v-1l5,-1l14,2l14,7l1,-2h8l3,3h2v1l2,3l1,1l1,2l1,2l4,6l1,2h1h-1l4,7l-1,4l-7,6l-13,13l-7,-7l4,-5l-3,-8l-7,-4v6l7,5l-8,7l9,5l2,4l-18,11l-2,-2l-1,-1h-1l-2,-1h-1l-1,-4l-1,-2l-1,-2v-2l-2,-5l-1,-1v-1l-1,-1v-1l-1,-2l-2,-6l-2,-5v-1Z"/><path data-geo-id="37065" d="M734,68l3,1h1l3,2l1,1v1h1l2,1h1l1,1h2l3,1v4l1,1l12,5l7,12v12l-5,-1l-3,4h-5l-6,7l-7,5l-3,2l-2,2l-1,1h-1l-6,-6l-4,-14l-8,-5l5,-15v-4l7,-13Z"/><path data-geo-id="37119" d="M397,154h8l1,1l3,10l-1,4l7,8l2,8h1v1l7,5l6,3l-18,17l-6,6h-3l-1,1h-1l-1,1l-2,1v1l-1,-2l-5,-7v-1l-2,-2l-2,-2l-1,1l-1,1l-3,1l-6,5h-1l-1,-2v-3l1,-2v-4l-1,-1l1,-1h1l3,-1v-18l7,-15v-11l4,-2l1,-2Z"/><path data-geo-id="37199" d="M228,85l2,-2l3,-6l8,1v5l16,2v10l4,4v11l1,1l-1,2l-5,9l-9,4v-2h-1l-6,-4v-7l-4,-3l-3,1l-1,-7l-7,-5h-1l-1,-10h1v-1h1l1,-1h1v-1h1Z"/><path data-geo-id="37197" d="M397,59l10,-2l2,-3l12,3l11,-4l1,3l9,2l1,15l-8,3l2,8h-13l-8,-1h-20Z"/><path data-geo-id="37023" d="M287,104l-4,-11l7,-3l4,2l3,1l2,2h1l7,10l8,3l1,4l9,6l10,-1l9,3l-3,4v1l-2,2l-2,3l-2,4l-1,2l-5,4v1h-1h1h-1v1l-1,1l-1,2v1h-7l-1,-1l-1,1h-1l-1,-1l-6,-1h-1l-1,-2h-1v-1v1v-2h-1v1h-1v-1h-3l-6,4l-4,-19l-13,-11l2,-2Z"/><path data-geo-id="37191" d="M697,143l15,-1h10v20l2,9l-2,7v18l-6,2l-15,-3l-5,2l-10,-2l-7,-4l-8,-9l10,-7h3l3,-2v-4l8,-24Z"/><path data-geo-id="37059" d="M416,83l8,1h13l4,-2l7,11v1l3,11l-5,-1l3,6l-5,3l-6,-2l3,13l-2,-4l-7,-4l-3,-2l-3,-1l-3,-3l-9,-1Z"/><path data-geo-id="37111" d="M261,113l1,-2l3,-2l12,-5l1,-4l5,-7l4,11l-7,8l-2,2l13,11l4,19l-2,4l-15,2l-4,-1l-14,2l-3,-2l-8,-4l-3,-6l1,-1v-2l-1,-4v-2l1,-4l9,-4Z"/><path data-geo-id="37183" d="M617,99l3,1h2l1,-1v-1l3,-3v-2l1,-5l-2,-2l-1,1l-2,-4l1,-3h7l15,7l12,5l8,9l3,2h2l1,1l1,2h1l2,4l1,2h-1l1,1l-22,15l-9,7l-10,11l-2,1l-1,1l-1,1l-1,1l-1,1l-2,2l-21,-8l-9,-4l2,-7l1,-2l3,-10v-2l1,-4l1,-1v-2l1,-1v-5h8l3,-7v-1Z"/><path data-geo-id="37053" d="M878,11h14l4,-1h12l2,12l6,2l-3,4l7,6l8,11v7l8,14v6l-8,-7l-1,-8l-9,-10l1,-3l-8,-7h-7v-1h-2l-6,-10ZM911,10h9l1,7l-6,1l1,-5ZM926,10l5,21l6,20l-5,-9l-2,-14l-4,-4l-3,-15Z"/><path data-geo-id="37103" d="M740,222l-6,-4l14,-9l9,-12l-2,-10l6,2l26,16l6,5h1h-1h1l1,-1l1,1h1l1,-2h2v2l1,3v27l3,2l-1,1l-1,1h-2v1l-1,-1h-1v1h-1l-1,1l-4,-6l-1,-2l-1,-2l-1,-1l-2,-3v-1h-2l-3,-3h-8l-1,2l-14,-7l-14,-2Z"/><path data-geo-id="37041" d="M841,45l1,-2h1l1,1l4,-2l4,-2l2,-2l-2,17l2,16l8,2l8,1l-5,7l-12,2l-4,-5l-8,-1v-7l-3,-5v-9l4,-6Z"/><path data-geo-id="37021" d="M220,113h6l7,-2l3,-1l4,3v7l6,4h1v2l-1,4v2l1,4v2l-1,1l3,6l8,4l-6,1l-4,7l-9,-3l-1,3v1l-5,-2h-2l-5,3h-3l-4,1v2l-2,-3l-1,1l-2,1l-7,-3h-7l-3,4l-4,-3l-1,-6l3,-7l-4,-11l-5,1l-3,-8l9,-1l7,-4Z"/><path data-geo-id="37157" d="M494,19h47l-2,39v1l-53,-3v-2l1,-7v-28h6Z"/><path data-geo-id="37117" d="M765,86l9,-9v2l14,8l-1,6l9,3l8,-3l2,7l-2,4l11,-4l5,3l2,7l5,-5l-1,-4l9,2h-1l-1,1l-1,1v3l-1,5l-2,4l-1,3l-2,2l-15,8l-17,-9h-3l-1,-1l-2,-1l-3,-1l-3,-4l-10,-4v-12Z"/><path data-geo-id="37089" d="M218,162v-2l4,-1h3l5,-3h2l5,2v-1l1,-3l9,3v10l-5,10l-4,4l-1,12h-1v1l-1,1v-1h-1v-4h-1l-1,1l-1,1v-1v1h-1l-1,1h1h-1v2h-1v1h-2v-1h-4v1h-3v1h-1v1v-1h-1v-1h-1v1h-1l1,1h-2v1h-1l-2,-3l-1,-15l-14,-19l3,-4h7l7,3l2,-1l1,-1Z"/><path data-geo-id="37127" d="M701,62l2,2v1l2,-2l5,1l3,5h13v-1v1l4,-1h1h-1v1h1v1l1,-2h2l-1,5l-7,13v4l-5,15l-1,4l-8,1l-29,14l-4,-3l-2,-2v-3l-1,-3l7,-16l12,-22Z"/><path data-geo-id="37009" d="M313,12v-1h6l7,1h1l3,1h12v1h5l3,10l6,10l1,3v4l-12,1v10l-5,-1l-6,6l-11,-5l-6,-9l-10,-6v-1h-1v-2h1v-1h1v-2h1v-3h1v-1h1v-4h-1h1v-1l-1,-1v-3h1v-2h1v-2h1v-1Z"/><path data-geo-id="37019" d="M689,305l5,-2l9,5l1,5l8,7l-1,6l2,10l-1,18l-8,12l-12,-3l-27,1l-18,5l-2,-1l-1,-1l-1,-1l-1,-1l-4,-4l-1,-2v-1l1,-8l3,-1l2,-1l1,-1h1v-1l1,-2v-1l1,-5l-1,-1l1,-3l1,-1l3,-3l11,3l4,-8l14,-2l1,-4ZM648,371l-1,-1h-1l18,-6l-16,7ZM712,362v10l-6,-3Z"/><path data-geo-id="37123" d="M470,155h13l31,-1l7,27v6l4,4h1l1,6l2,2h1l1,1l-8,-2h-6v1h-5l-7,-1l-4,2l-10,1h-1l-2,2v1l-6,-1l1,-9l-4,-4l5,-18l-4,-2l-2,-9Z"/><path data-geo-id="37181" d="M648,25v-3l1,-1h2l1,-2l1,-1h13l4,17l2,14l-3,5l-7,4l-4,9h-2l-7,-1l-2,-3v-37Z"/><path data-geo-id="37175" d="M177,178l9,-3l10,-13l14,19l1,15l2,3h-4v1h-1l-1,1h-1v-1h-1v1h-1v1h-2v-1l-1,-1v1l-1,1v2l-1,1v-1v1h-2v1h-1v1h-2v1h-3v-2h-1l-3,1l-12,3l-6,2l-3,1l-3,-2l-1,-5l7,-7v-8l7,-5Z"/><path data-geo-id="37171" d="M393,42l-5,-5l-1,-6l5,-7l2,-8h25l1,1h18l2,1h3l-1,38v2l-9,-2l-1,-3l-11,4l-12,-3l-2,3l-10,2v-13Z"/><path data-geo-id="37043" d="M80,215h-10l-4,-1h-7l4,-7l6,-4l6,-8l8,-1l3,-1h5l4,1l10,10l1,5l9,6l-15,1l-7,-1Z"/><path data-geo-id="37055" d="M937,51l6,14l8,12l14,30l-9,-11l1,-4l-9,-11l-1,-8l-5,3l-1,-14ZM946,188v-1l12,-6l4,-4l8,-1v-11l2,-2l2,-22v-11l-2,-7l-5,-9l2,-1l6,19l-2,17v13l-2,6l-1,14l-10,-1ZM929,129l-3,-4l-11,1l2,-10l-1,-19l9,-7l11,1l-5,-3l5,-1l6,9l2,7v11l2,7h-6l5,7l-5,9l-8,-1l-3,-7ZM947,89l8,8l1,9l-4,-2v-6l-8,-7Z"/><path data-geo-id="37047" d="M679,299l6,6h4l-8,14l-1,4l-14,2l-4,8l-11,-3l-3,3l-1,1l-1,3l1,1l-1,5v1l-1,2v1h-1l-1,1l-2,1l-3,1l-1,8v1l-2,-1l-2,-1l-10,-12l-18,-18l-12,-10v-1l-2,-2l-1,-1l4,-4l1,-2l2,-5l5,-4l2,-5h2l7,-4l3,3l18,-2l2,2l12,6l15,5h8Z"/>  <path class="mesh" d="M865,34l-11,4l-2,2l-4,2l-4,2l-1,-1h-1l-1,2M853,179l-2,6l-24,3l-5,-5l-11,-9l-20,-11v-13l9,-5M237,193l1,-12l4,-4l5,-10v-10l4,-7l6,-1l3,2l14,-2l4,1l15,-2l2,-4l6,-4h3v1h1v-1h1v1M819,206v-4l-1,-1v-1M804,242l-3,-2v-27l-1,-3v-2M637,359v-1M789,14l5,4h3l1,2l1,1l1,2h-1l-1,1h-1v-1l-3,1l-6,23l-3,7l-2,4l-7,1l1,5l-10,-4l1,-5l-4,-2l-3,-9l-13,3l-3,-5l4,-3l-3,-7l-5,-3l-2,-5h-15l-4,-2h-8M712,22l-1,-5M899,123l-2,6l-1,4l-1,1v2h-3l-1,-1h-6l3,-11h-15l-25,-1l4,4l3,9l1,-1v1h1l7,4M560,243v-2h1v-2h-1h1v-1h-1v-3M548,216l-12,6l-2,8l2,3l-6,6v6l-7,2M548,217v-1l14,-16l1,-1h1l3,-4h1l2,-1l4,2h4l1,1l2,1l3,1l3,-1M878,11l18,15l6,10h2v1h7M487,19v28l-1,7v2h-44l1,-38M798,248h-1l-1,-2l1,-1h1v-1h1l1,1v-1h2l1,-1l1,-1h14l7,-5l14,-1l7,-3l1,-3M394,16l-2,8l-5,7l1,6l-6,4l-8,-10l-7,1l-3,5l-7,4v-4l-1,-3l-6,-10l-3,-10M326,73l9,-8l-1,-8l6,-6l5,1v-10l12,-1M396,83l-3,-1h-6l-7,2l-9,1h-7l-10,1l-2,2l-3,1l-2,8l1,19M328,141h1v-1l5,-4l1,-2l2,-4l2,-3l2,-2v-1l3,-4l-9,-3l-10,1l-9,-6l-1,-4l-8,-3l-7,-10h-1l-2,-2l8,-14h-2v-2l-3,-2l-3,-2l16,-1l13,1l3,3l11,4h1l2,3l6,6M800,144v-2l-2,-1l-1,-2h-1l-1,-1h-1h1l-2,-3v-1l-3,-11l1,-2h3l17,9l15,-8v2l22,-1M777,64l6,9l-8,2l-1,2l-9,9l-12,-5l-1,-1v-4l-3,-1h-2l-1,-1h-1l-2,-1h-1v-1l-1,-1l-3,-2h-1l-3,-1M560,235v-1l-1,-1l1,-1l-1,-2v-2h-1v-2h-1v-1h-1v-1h-1v-1h-1v-1h-1v-1h-1l-1,-1v-1h-2v-1h-1v-1M497,247l3,-7l6,-4l-2,-12l-4,-3l3,-6l-4,-2l-1,-7l-7,4l-9,-3v-4l6,1v-1l2,-2h1l10,-1l4,-2l7,1h5v-1h6l8,2v2h1l1,1l2,2v2l1,6h5l3,1h2v1h1l1,1M297,93l-3,-1l-4,-2l-7,3l-5,7l-5,-5v-8l-4,-13M691,61M653,18l-1,1l-1,2h-2l-1,1v3l-1,1v37l2,3l7,1h2l4,-9l7,-4l7,1l7,1v-1l1,1l5,4h1v1h1M307,37l10,6l6,9l11,5M297,73l-1,-7l-8,-5l1,-10l-2,-1M142,124l7,2l3,19l-3,3h-8l-6,6l-4,-1l1,19h-6l-5,1l-1,2l-25,2l-1,-5l8,-4l4,-11l-6,1l-6,-3l-28,-3M334,165l5,9l4,2l1,8l4,2l-1,13M531,200l-1,-1h-1l-2,-2l-1,-6h-1l-4,-4v-6l-7,-27M437,84l-2,-8l8,-3l-1,-15v-2M669,54l3,-5l-2,-14l-4,-17M470,155l8,6l2,9l4,2l-5,18l4,4l-1,9M455,246l3,-37l2,-13l-5,3h-15l-5,-2M645,87v-10l4,-11M818,201l-1,-1h-1l-3,-3v-1l1,1l1,-3l2,-4l5,-7M486,56l53,3v-1l2,-39M888,34l-6,-2l-4,-4h-1l-1,-1h-1l-1,-1h-1l-1,-1l-6,-2v-1l-6,-5l-5,-5M883,55l-2,-1l-1,-1l-2,-1l-2,-1l-5,-7l-6,-10l-5,-17M326,146l61,3l4,-10l-9,-11h-6l-4,-9M95,177l-3,4h-2l-7,-2l-11,3l-9,2l-3,-2l-2,-8M814,32l-1,-6l3,-12M387,149l1,8v11l-7,15v18l-3,1M278,195l1,-8l-3,-3l-6,-9l-11,-10l-12,2M826,122l2,-2l1,-3l2,-4l1,-5v-3l1,-1l1,-1h1l5,-8v-1h1v-2M876,93l2,10l-5,9v12M406,155l-1,-1h-8l-4,-1l-1,2l-4,2M769,174l4,1l7,-6l5,2v-5l6,-3M537,154l1,-16v-27l33,-1l-2,-4M638,189l-1,9l-1,5l-1,2h1l-1,1l-1,1l-2,3l1,2l1,4v1h1v2l1,3l2,3v1h1l1,1l2,1l1,1l1,1v1l1,1l4,4l1,2l2,1M798,208l-1,2h-1l-1,-1l-1,1h-1h1h-1l-6,-5l-26,-16M686,195l10,2l5,-2l15,3l6,-2M740,256l-29,1h-4l-2,-1l-2,-1v1h-10M223,89l1,10h1l7,5l1,7l-7,2h-6l-22,10l-7,4l-9,1l3,8l5,-1l4,11l-3,7l1,6l4,3l-10,13l-9,3l-5,-3l-4,-8l-9,-12l-10,-7M177,178l-1,8l-7,5v8l-7,7l1,5l3,2M155,216l-6,-8l3,-2l-9,-11l1,-10h-8l-4,-13M388,37l5,5l4,4v13l-1,24h20l-2,26M837,53l-25,1h-27M539,58h29v39l-1,2v3l2,4h4l21,2l12,-1v5l-1,1v2l-1,1l-1,4v2l-3,10l-1,2l-2,7l9,4h-1v1l-1,2h-1l-3,5l-9,-6v-4l-10,-3l-6,5l-9,5l-5,3h-2v8l2,2l1,3h1l1,2h1l2,8l10,5l18,-23l5,-5M538,111v-8l1,-3v-41M92,181l-4,12h-2l-3,1l-8,1l-6,8l-6,4l-4,7M448,94l1,-1h1l3,-2h12l2,-1v-3l14,1h2l2,1M115,215l-9,-6l-1,-5l-10,-10l-4,-1h-3M862,73l-8,-2l-2,-16l2,-17M915,126l11,-1l3,4M606,145l21,8l2,-2l1,-1l1,-1l1,-1l1,-1l2,-1l10,-11l9,-7l22,-15l1,3v3l2,2l4,3M697,143l-2,2l-8,24v4l-3,2h-3l-10,7M835,103l-9,-2l1,4l-5,5l-2,-7l-5,-3l-11,4l2,-4l-2,-7l-8,3l-9,-3l1,-6l-14,-8v-2M593,227l-6,-11l-1,-10l1,-8v-2l23,-5l6,-4h7l15,2l4,-7l4,-3M679,279v7h1l7,4l-8,9l-8,4h-8l-15,-5l-12,-6l-2,-2l-18,2l-3,-3l-7,4h-2l-2,5l-5,4l-2,5l-1,2l-4,4M458,155l-10,19l-13,23l-3,-2l-1,-1l-6,-3l-7,-5v-1h-1l-2,-8l-7,-8l1,-4l-3,-10h5v-7l-1,-1v-4l-1,-1l-1,-12l6,-21l9,1l3,3l3,1l3,2l7,4l2,4M735,133l15,16h4l1,1h1v4v-1v1h1v1l3,7M724,171l13,-1l1,3l8,-4l9,-5l5,-2l1,4l7,7l1,1v-1h-1v1h-1v1h-2l-2,4l2,7l-4,3l-6,-2l2,10l-9,12l-14,9l-2,-6v-2l-1,-3v-1l-3,-7l-6,-3v-18l2,-7l-2,-9v-20M711,326l1,-6l-8,-7l-1,-5l4,-6l12,1l6,-3l1,1h1l-1,1v1l9,9M548,270l14,-18l-1,-3l-1,-6h17l12,-12h1v-1l2,-2l1,-1l11,6l4,10l7,14l1,1l3,4l-3,7v1l-1,5l-2,6l1,4l-1,4M577,181l-4,5l14,10M739,130h1l1,-1l2,-2l3,-2l7,-5l6,-7h5l3,-4l5,1l10,4l3,4l3,1l2,1l1,1M388,168l-54,-3l-9,-19h1v-1l1,-2l1,-1v-1h1M703,308l-9,-5l-5,2h-4l-6,-6M734,218l6,4v1l2,4v13l-1,1v2l-1,3v10l2,5l2,6l1,2v1l1,1v1l1,1l2,5v2l1,2l1,2l1,4h1l2,1h1l1,1l2,2M399,221v-1l2,-1l1,-1h1l1,-1h3l6,-6l18,-17M278,100l-1,4l-12,5l-3,2l-1,-1v-11l-4,-4v-10l-16,-2v-5l-8,-1M594,108l1,-5v-2l1,-3v-5l1,-8l1,-5v-2l1,-1v-6l1,-1v-5l1,-7h-33M691,61h2v-1v1h1v-1h2v1v-1h1v1h1l1,-1v1l1,1h1l-6,13l-12,22l-7,16l-1,-1h1l-1,-2l-2,-4h-1l-1,-2l-1,-1h-2l-3,-2l-8,-9l-12,-5l-15,-7h-7M740,222l5,-1l14,2l14,7l1,-2h8l3,3h2v1l2,3l1,1l1,2l1,2l4,6M765,86l7,12v12M601,58h2l10,1h4v19l6,2l-1,3l2,4l1,-1l2,2l-1,5v2l-3,3v1l-1,1h-2l-3,-1v1l-3,7h-8M262,111l-1,2l-5,9l-9,4M397,59l10,-2l2,-3l12,3l11,-4l1,3l9,2M485,101v4l-1,8v10l-1,22v10h-13l-2,-10l-14,-12v-5l-9,-2l-4,-2l-3,-13l6,2l5,-3l-3,-6l5,1l-3,-11v-1l-7,-11l-4,2h-13l-8,-1M295,144l-4,-19l-13,-11l2,-2l7,-8l-4,-11M937,51M579,58l1,-2v-25l1,-12M213,199l-2,-3l-1,-15l-14,-19M182,128l-3,-10l-4,2l-1,-7M486,56v16l-1,17v12h12l23,2h18M637,358l1,-8l3,-1l2,-1l1,-1h1v-1l1,-2v-1l1,-5l-1,-1l1,-3l1,-1l3,-3l11,3l4,-8l14,-2l1,-4l8,-14M380,84l2,3v1l1,7l-1,1l-3,12l-7,11l-4,-7l-12,1l-8,3l-3,2l-1,2M299,196l9,-28l1,-24M306,141v1v-1v1h1l1,2h1l6,1l1,1h1l1,-1l1,1h6M617,18v41M247,157l-9,-3l-1,3v1l-5,-2h-2l-5,3h-3l-4,1v2l-2,-3l-1,1l-2,1l-7,-3h-7l-3,4M721,105l8,5l4,14l6,6l-4,3l-13,9h-10l-15,1h-1l-5,-2l-6,-15h-1l-1,-2l29,-14l8,-1l1,-4l5,-15v-4l7,-13l1,-5h-2l-1,2v-1h-1v-1h1h-1l-4,1v-1v1h-13l-3,-5l-5,-1l-2,2v-1l-2,-2l7,-14l2,-7v-14l2,-5M559,153h-3l-6,1h-36l-31,1M627,153l6,2l5,8l1,1v1l2,4h1l1,1v3l3,6l5,7l9,1l11,-5l8,9l7,4v13l2,7l1,20l-4,11l-1,9l7,3l2,-2l-14,23l-1,-1v-1l-2,-2l-1,-1l-2,-1v-1v1v-2l-2,-2v-3l-1,-2l-1,-1h-1v-1v1l-3,-4l-1,-1l-1,-2l1,-1l-1,-2l-1,-1l-2,-1l-1,-1v-1l-1,-1v-1l-1,-2l-3,-2l-1,-1l-1,-1v-2v1h-32l-12,3M257,149l-8,-4l-3,-6l1,-1v-2l-1,-4v-2l1,-4v-2h-1l-6,-4v-7l-4,-3l-3,1M411,155M470,155h-12M458,155h-47M460,196l3,-2l2,7l7,-2l10,4"/><g class="cities"><circle r="7" cx="400" cy="192"/><text x="400" y="192">Charlotte</text><circle r="7" cx="635" cy="120"/><text x="635" y="120">Raleigh</text><circle r="7" cx="512" cy="81"/><text x="512" y="81">Greensboro</text></g></svg>