<svg version="1.1" xmlns="http://www.w3.org/2000/svg" width="1000" height="600" viewBox="0 0 1000 600"><path data-geo-id="38099" d="M740,106l47,-1l38,-1l54,-2h2v2h-1v2h1l1,-1l1,1l-1,1h-2l1,1v2h1l1,1h-2h1v1h-2v1h-1v1h2l2,-1v2l-1,-1h-1v1l1,1h2v1l-1,1l-1,1l-1,1h2v-1l1,1v2l-1,-1h-1v2h2l1,1h-4v1h1v-1l1,1l1,1l-1,1h-1v1h-2v1h1l-1,1h1v1h3h-1v2h-2v2h1v1h2l-1,1v1l1,-1v1h1v2h-1l-1,1h1v-1l2,1l-2,1v2h2l-1,1h1l1,1v1l-1,-1h-1l-1,1v1h1v-1l1,1l1,1l-1,1h-1l1,1h-3v1h3v1h-1l1,1v1h-1l-2,1h1l1,1h-2v1l1,1h2v1l-1,-1h-1l-1,1h-1l1,1l1,-1l3,1v1h-1v-1h-2l1,1l-1,1v2l-32,1l-15,1l-45,1l-48,1l-1,-32l-2,1l-1,-7Z"/><path data-geo-id="38085" d="M409,521l1,-6l5,-1l7,-13l14,1l11,-1l12,-5l5,-1l5,12v8l-4,6l3,7l-2,7l-8,11l2,15l6,10l4,2l3,10h-120l-2,-1h-48l-11,-1h-8l1,-20h13l9,5l9,-2l4,4l8,1l3,-4l4,5l13,-2l1,-5l10,-1l3,-4l6,1l5,-9l14,-5v-7l10,-4l3,-11Z"/><path data-geo-id="38013" d="M184,21h11l19,1h33l15,1h32v25l-1,11l-16,-1v16h-10l-1,32l-79,-3l1,-16v-16h-6v-22l1,-3v-24Z"/><path data-geo-id="38071" d="M661,108l79,-2v25l1,7l2,-1l1,32l-16,1l1,11v21h-12v19h-13v-4l-4,-4v-6h-8l-4,4l1,-4l-5,-2l-1,-9l-12,6l-3,5h-6l-2,2l-1,-12l-9,6v-15h-5l-2,-7l-9,-1v-21l-1,-19l28,-1Z"/><path data-geo-id="38081" d="M789,517h36l56,-2l3,4v23l1,1v23l5,1v11h-23l-7,1h-13v1h-36l-1,1h-19l-1,-17v-37Z"/><path data-geo-id="38035" d="M792,168l45,-1l15,-1l32,-1l-1,1v1h2v2h-2h1v3h1v-1h1v-1h1v2l-2,1h-1v2l1,-1h1l1,1v1h-1v1l1,1v3h2v1h1v1l-1,1l1,1v2h1v2h1v1h1l1,1v6h2v1h-1v2l1,1h1v3h-1v1h1v1h-1v1h1v3l1,1h1h-1l1,2h1l1,1l-1,1h1v1l1,1h-2h1v1l-1,1h1v2h-1h1v2h2l1,1h-1v1h1v2l1,1h-1v1h2v2l1,1v2h-2v1h2v2h1l1,-1v1l1,1h-1v1h1v2h2v1h1v1l1,1h-1l1,1v2l1,3v1h-1h1l1,2v1h-1h1v2h1v-1l1,4h1l-42,2l-30,1l-34,1h-16v-28l-1,-1v-30l-4,-8Z"/><path data-geo-id="38057" d="M265,283l11,1l12,2l-1,4l10,1l7,6l10,2l12,-8l16,1l18,-5l8,9l-9,6l4,14l6,7l2,14l10,5v4l-63,-1v32l-1,16l-40,-1h-7l1,-6v-38l1,-20h-8l1,-19Z"/><path data-geo-id="38021" d="M786,518l3,-1l1,10v37l1,17h-21l-2,1h-66v1h-38v-63h40l39,-1Z"/><path data-geo-id="38003" d="M727,344l63,-1l31,-1l1,16v26l4,5l1,19v29l1,16l-44,1l-51,1v-30l-1,-1v-32h-4l-1,-19Z"/><path data-geo-id="38015" d="M523,331v63h5v64h-74l3,-8l-8,4l-5,-2l1,-5l-6,1l1,-9l-8,-4l3,-9l-4,-5l-7,-12l1,-8l-4,-7l7,-6v-6l-7,-7l-1,-10l-3,-3h27v-30l1,-1h15Z"/><path data-geo-id="38101" d="M266,106l1,-32h10v-16l16,1v16h22l-1,4v44h44l1,1h49v16h5v16l-1,18v30h6v24l-1,7h-89l-21,-1l1,-1v-31h-6v-36l1,-1v-26l-6,-1v-32Z"/><path data-geo-id="38009" d="M356,25h56l7,1h95v51h5v32h-32v-16l-34,-1h-44l-1,16h-47v-32h-6l1,-9Z"/><path data-geo-id="38005" d="M598,140h35l1,19v21l9,1l2,7h5v15l9,-6l1,12l2,-2h6l3,-5l12,-6l1,9l5,2l-1,4l4,-4h8v6l4,4v4h13l1,13h-40l-2,1h-53l-16,1h-47v-32h-5v-64Z"/><path data-geo-id="38089" d="M271,386l-1,6h7l-1,5v43l-1,16l-34,-1l-51,-1l-19,-1l-38,-1v-23h1v-26l1,-15l25,1l63,1v-5Z"/><path data-geo-id="38011" d="M27,513v-2l48,2l12,1l73,2v24l-1,1v26l-1,11h-1l-2,-1h-30l-2,-1h-22l-7,-1h-9l-6,-1h-23l-2,-1h-22l-7,-1v-30h1v-1l1,-25Z"/><path data-geo-id="38047" d="M606,458h38l15,-1v64h-86l-20,1h-5v-64Z"/><path data-geo-id="38029" d="M464,495l-1,-9l7,-10l-6,-7l3,-4l-13,-7h94v64h5v62h-74l-3,-1h-3l-3,-10l-4,-2l-6,-10l-2,-15l8,-11l2,-7l-3,-7l4,-6v-8Z"/><path data-geo-id="38083" d="M512,236h17v32l4,5v58h-80l1,-17v-46h11v-32Z"/><path data-geo-id="38097" d="M847,262l30,-1l42,-2v1l1,3v4h1h-1v1h1l1,1v1h2v1h-1v1h1h-1v1h1v3h-1l1,1v1h-2l1,1l1,-1h1v1h-2v1h2l-1,2h-1h2v1h-2h1v2h-2v1h1v1h1v1h1v-1h1v1h-1h1v1h-1v2h-1v1h-1h2v2l-1,-1l-1,1v1h1v-1h1v1h-1v1l1,1v1h-1v1l1,-1v1h-1v1h1v1h-1v1h1v1h-1v1h1h-1l-1,1h1l1,2h1l1,-1v1h-1v1h1v1h-1l1,1v-1h1v3h-2l1,1h-1v1h1v-1h1l-1,1h-2l1,1h1l-1,1h1l1,1l-1,-1v2l1,1l1,1l-1,1h-1l1,1v-1h1v1h-1l1,1h-1l-1,1h1v1v-1l1,1l-1,3v4h-1h2v1h-1v1v-1h1v1h-1v1h1h-1v1h1v-1l1,1l-1,1h-1v1h1v-1l1,1l-25,1l-28,1l-24,1v-14l-4,-4v-27l-1,-2v-27Z"/><path data-geo-id="38049" d="M413,156v-16h-5v-32l1,-16h44l34,1v16h16v31h5v64h4v32h-86l-9,-1l1,-7v-24h-6v-30Z"/><path data-geo-id="38045" d="M659,457l45,-1l29,-1l51,-1v27l1,1v33l1,3l-43,1l-39,1h-45Z"/><path data-geo-id="38043" d="M523,331h79v63h4v64h-78v-64h-5Z"/><path data-geo-id="38063" d="M744,169l48,-1v28l4,8v30l1,1v28l-13,1l-62,2h-4v-32l-1,-13v-19h12v-21l-1,-11Z"/><path data-geo-id="38091" d="M784,264l13,-1h16l34,-1l1,5v27l1,2v27l4,4v14l-32,1l-31,1l-1,-16h-3l-1,-18v-36Z"/><path data-geo-id="38103" d="M529,236h78l16,-1v27l4,5v64h-94v-58l-4,-5Z"/><path data-geo-id="38039" d="M722,281v-15l62,-2l1,9v36l1,18h3l1,16l-63,1l-1,-15h-4v-27Z"/><path data-geo-id="38087" d="M28,494v-7l1,-3l1,-21l31,2l1,-16l23,1l48,2l38,1l-1,2v35l-1,3v23h-9l-73,-2l-12,-1l-48,-2v-2l1,-14Z"/><path data-geo-id="38023" d="M50,33v-11h1v-7l29,2h22l17,1l16,1h17l24,1l3,1h5l-1,1v24l-1,3v22h6v16l-61,-1l-25,-2l-39,-1l-15,-1v-20h1v-10l1,-13v-6Z"/><path data-geo-id="38051" d="M659,520h5v63h-48l-10,1h-53v-62l20,-1h86Z"/><path data-geo-id="38001" d="M285,534v27l-1,20h-36l-2,-1h-38l-3,-1h-10l-6,-1h-31l1,-11v-26l1,-1v-24h9l18,1l35,1v14l61,1Z"/><path data-geo-id="38019" d="M656,25h2l6,-1h26l2,-1h13l46,-1h18l12,-1l1,15v32l4,5v30l1,2l-47,1l-79,2v-25l-1,-7l-4,-5Z"/><path data-geo-id="38105" d="M188,87l-1,16v25l-1,7h8l-1,3v28l-1,15l-6,-3l-6,3l-2,-3h-15l-3,-2l-15,1l-5,8l2,5l-6,4l-14,2l-4,-2l-7,6l-5,-6l-6,-1l4,-9l-7,-6l-11,-1l-6,6l4,4l-5,5l-6,-2l1,7l-5,5l-4,-6l-1,7l-7,3l-4,-5l-10,-3v-2l1,-7v-40l1,-2v-21l1,-2v-20l1,-1v-20l1,-1l15,1l39,1l25,2Z"/><path data-geo-id="38017" d="M821,342l32,-1l24,-1l28,-1l25,-1v1h-2l2,1h-1v1h-1h2h-1v1l1,1l-1,1h1l1,1h-1v-1l-1,1v1h2v1h-1v1l1,1h-1h1v1l1,1v1h-1l1,1h-3v1h2v1h-1l1,1v2h1v1h-2l1,1h1l1,2l-1,1l1,2h-1h1v2l-1,1h1h-1v3l1,1v1h-1h1v1h1v1h-2l1,1l1,1h-2v3h-1h1l1,1v4h1l-1,1l1,1l1,1h1v-1v4l1,1v2h1v1v-1h1l2,-1v1h-1h2l-1,1v2l-1,1l-1,2h1v2l-1,1v4h-1l1,1h1l-1,1l1,1h-2l1,1h-2h1l1,2h-1l-1,2h-1l1,1v1h-1h1v2h1v1l1,1h-1v1h1l-1,1h2v2h-1l-1,1h1v1l1,1l-1,-1l1,2l-1,1h1v2h-1v1h1l-1,1v1h1v2l-1,1h1v1h-2h1v1h-1l1,1l-1,1v1l1,1v4h-1l-60,3l-50,2l-1,-16v-29l-1,-19l-4,-5v-26Z"/><path data-geo-id="38007" d="M83,322l18,1l53,2h7v25l-1,2v37l-25,-1l-1,15v26h-1v23l-48,-2l1,-17v-22l1,-1v-21l1,-3h-7l1,-9v-21l1,-1v-23Z"/><path data-geo-id="38061" d="M187,103l79,3h31v32l6,1v26l-1,1v36h6v31l-1,1h-33l-30,-1v16h-9l-6,-5l-7,1l-9,-9v-15l7,-7l5,-9l-6,-3l-1,-6h-7l1,-6l-12,-3l3,-5l-3,-2l-8,1l1,-15v-28l1,-3h-8l1,-7Z"/><path data-geo-id="38055" d="M307,234l21,1h89l9,1h39v32h-11v46l-1,17h-8l-1,1v30h-27l-3,-5l2,-12l-10,-8l-6,-1l-10,4l-1,5l-8,-3l-10,-5l-2,-14l-6,-7l-4,-14l9,-6l-8,-9l-18,5l-16,-1l-12,8l-10,-2l-7,-6l-10,-1l1,-4l-12,-2l-11,-1l-7,-8l1,-20l-3,-5l3,-5l-10,-3l-5,7v-16l30,1Z"/><path data-geo-id="38031" d="M722,281v48l-49,1h-36l-10,1v-48Z"/><path data-geo-id="38067" d="M781,21h33l21,-2h33v1l-1,1v4h1v1l-1,2h1v1l1,2h1l-1,1v1h1l1,1l-1,1h1v1l1,1h1v1h-1v1h1h-1v1l1,1h2v1h-1v1h1l1,2v1h-1l1,1v1l-1,1v2h-1v1h1l1,1h2l-1,1h-1l-1,1h1l1,-1l1,1h-2v1h2v4l1,1l-1,1v1h2v3h1v1l-1,1h2v2l1,1h1l-1,1v1h1v1l1,1h2l-2,1l1,2l-2,1h2l-2,4v1h1v1h-1v1v-1h-1v-1l-1,1v1l1,1h-1v1h-2v2h2h-1v1h-1l-1,1h2v2l-1,1l-1,-1v1h1v2l-2,1v1h4v1h-4v1l1,1l-54,2l-38,1l-1,-2v-30l-4,-5v-32Z"/><path data-geo-id="38077" d="M881,515l-1,-3v-23l-1,-3v-22l-1,-13l60,-3l1,1l1,-1v1l-1,1h1l1,-1v1h-1v1l1,-1h1v1h-1h1v1l-1,1h1v-1l1,1l-1,1v1v-1h1v1h1l-1,1h2l-1,1h2h-1v1h-1l1,1v-1h1v1h-1h1v1l-1,1h1l-1,1h1v1h1h-1v1h1h-1v1v-1h1v2h-1h1v2h-1h1v1l1,1h-1l1,1l-1,1h1h-1h1v4v-1v1h1v1h2h-1v1h1v3h-1l1,1l-1,1l1,1h1v-1h1v1h-1v1h1v-1v3l1,-1v1h-1v1h1v-1h1v2v-1v1l1,1v1l1,1v3h1l1,1h1v3h1v-1h1v1l2,1v1h1v1h1v2l1,1v1h-1v1l1,1h-1v1h1l-1,1h1v5h1v1l1,1h-1l-1,1v1l1,2v2l1,1l1,1v1l-1,1h1l-1,1v1l1,1l1,1v5l1,1v2l1,1v1h1l-1,1l1,1v9l-1,1v2l-1,1v2l1,1v1l-1,1l1,1v6l1,1v2l1,1v2h-19l-1,1h-11v1h-25l-3,1h-23l-3,1v-11l-5,-1v-23l-1,-1v-23Z"/><path data-geo-id="38037" d="M409,521l-9,2l-3,11l-10,4v7l-14,5l-5,9l-6,-1l-3,4l-10,1l-1,5l-13,2l-4,-5l-3,4l-8,-1l-4,-4l-9,2l-9,-5h-13v-27l1,-15h-7l1,-18v-45h-5l1,-16h44l2,1v15l2,1l50,1v47h32v16Z"/><path data-geo-id="38053" d="M192,181l8,-1l3,2l-3,5l12,3l-1,6h7l1,6l6,3l-5,9l-7,7v15l-1,27l-56,-1l-1,19v25l-1,19l-53,-2l-18,-1l-25,-2h-21v-11l1,-2l1,-24v-12l1,-1v-4l1,-31l1,-2v-16l1,-2v-17l10,3l4,5l7,-3l1,-7l4,6l5,-5l-1,-7l6,2l5,-5l-4,-4l6,-6l11,1l7,6l-4,9l6,1l5,6l7,-6l4,2l14,-2l6,-4l-2,-5l5,-8l15,-1l3,2h15l2,3l6,-3Z"/><path data-geo-id="38073" d="M784,454l44,-1l50,-2l1,13v22l1,3v23l1,3l-56,2h-36l-3,1l-1,-3v-33l-1,-1Z"/><path data-geo-id="38095" d="M661,108v31l-28,1h-35v-32l-1,-2v-30h-4v-50l-1,-1h64v46l4,5l1,7Z"/><path data-geo-id="38075" d="M293,59l1,-11v-25l25,1l22,1h15v42l-1,9h6v32h47v16h-49l-1,-1h-44v-44l1,-4h-22Z"/><path data-geo-id="38093" d="M602,331h25l10,-1h36l49,-1h4l1,15v29l1,19h4v32l1,1v30l-29,1l-45,1l-15,1h-38v-64h-4Z"/><path data-geo-id="38033" d="M36,345v-15l1,-10h21l25,2v33l-1,1v21l-1,9h7l-1,3v21l-1,1v22l-1,17l-23,-1l-1,16l-31,-2l1,-33l3,-62v-1l1,-2v-18Z"/><path data-geo-id="38065" d="M317,393l1,-16v-32l63,1v-4l8,3l1,-5l10,-4l6,1l10,8l-2,12l3,5l3,3l1,10l7,7v6l-7,6h-33Z"/><path data-geo-id="38025" d="M213,236l9,9l7,-1l6,5h9l5,-7l10,3l-3,5l3,5l-1,20l7,8v26l-1,19h8l-1,20v38l-48,-1v5l-63,-1v-37l1,-2v-25h-7l1,-19v-25l1,-19l56,1Z"/><path data-geo-id="38079" d="M514,26h63l15,-1l1,1v50h4v30l1,2h-37l-3,1h-39v-32h-5Z"/><path data-geo-id="38059" d="M454,458l13,7l-3,4l6,7l-7,10l1,9l-5,1l-12,5l-11,1l-14,-1l-7,13l-5,1l-1,6h-3v-16h-32v-47l-50,-1l-2,-1v-15l-2,-1h-44v-43l1,-5l40,1l71,1h33l4,7l-1,8l7,12l4,5l-3,9l8,4l-1,9l6,-1l-1,5l5,2l8,-4Z"/><path data-geo-id="38069" d="M503,109h55l3,-1h37v32h-43v64h5v32h-48v-32h-4v-64h-5Z"/><path data-geo-id="38027" d="M623,235h53l2,-1h40v32h4v15l-95,2v-16l-4,-5Z"/><path data-geo-id="38041" d="M275,456h5v45l-1,18h7l-1,15l-2,-1l-61,-1v-14l-35,-1l-18,-1v-23l1,-3v-35l1,-2l19,1l51,1Z"/>  <path class="mesh" d="M294,23v25l-1,11v16h22l-1,4v44h44l1,1h49v16h5v16l-1,18v30h6v24l-1,7h-89l-21,-1l1,-1v-31h-6v-36l1,-1v-26l-6,-1v-32h-31l-79,-3l1,-16v-16h-6v-22l1,-3v-24l1,-1M791,581l-1,-17v-37l-1,-10h36l56,-2l3,4v23l1,1v23l5,1v11M919,259l-42,2l-30,1l-34,1h-16v-28l-1,-1v-30l-4,-8v-28M664,583v-63h40l39,-1l43,-1l3,-1M284,581l1,-20h13l9,5l9,-2l4,4l8,1l3,-4l4,5l13,-2l1,-5l10,-1l3,-4l6,1l5,-9l14,-5v-7l10,-4l3,-11l9,-2l1,-6l5,-1l7,-13l14,1l11,-1l12,-5l5,-1l5,12v8l-4,6l3,7l-2,7l-8,11l2,15l6,10l4,2l3,10M453,331l1,-17v-46h11v-32h64v32l4,5v58h-10v63h5v64h-74l3,-8l-8,4l-5,-2l1,-5l-6,1l1,-9l-8,-4l3,-9l-4,-5l-7,-12l1,-8l-4,-7l7,-6v-6l-7,-7l-1,-10l-3,-3h27v-30l1,-1h78M884,165l-32,1l-15,1l-45,1l-48,1l-16,1l1,11v21h-12v19h-13v-4l-4,-4v-6h-8l-4,4l1,-4l-5,-2l-1,-9l-12,6l-3,5h-6l-2,2l-1,-12l-9,6v-15h-5l-2,-7l-9,-1v-21l-1,-19l28,-1v-31l79,-2l47,-1l38,-1l54,-2M514,26v51h5v32h-32v-16l-34,-1h-44l-1,16h-47v-32h-6l1,-9v-42M717,221l1,13h-40l-2,1h-53l-16,1h-47v-32h-5v-64h78M277,392l-1,5v43l-1,16l-34,-1l-51,-1l-19,-1l-38,-1v-23h1v-26l1,-15l25,1l63,1v-5l48,1M27,511l48,2l12,1l73,2v24l-1,1v26l-1,11M533,331h69v63h4v64h38l15,-1v64h-86l-20,1h-5v-64h58M464,495l-1,-9l7,-10l-6,-7l3,-4l-13,-7M528,458h20M553,522v62M930,338l-25,1l-28,1l-24,1v-14l-4,-4v-27l-1,-2v-27l-1,-5M408,124v-16M503,109v31h5v64h4v32M465,236h-39l-9,-1M659,457l45,-1l29,-1M784,454v27l1,1v33l1,3M664,520h-5M797,263l-13,1l-62,2h-4v-32M853,341l-32,1M790,343l-1,-16h-3l-1,-18v-36l-1,-9M529,236h31M623,235v27l4,5v64h-25M727,344l63,-1l31,-1l1,16v26l4,5l1,19v29l1,16l-44,1l-51,1v-30l-1,-1v-32h-4l-1,-19v-29l-1,-15h-4v-63M30,463l31,2l1,-16l23,1l48,2M171,453l-1,2v35l-1,3v23h-9M188,87l-61,-1l-25,-2l-39,-1l-15,-1M169,516l18,1l35,1v14l61,1l2,1v27M781,21l1,15v32l4,5v30l1,2M661,108v-25l-1,-7l-4,-5v-46M187,103v25l-1,7h8l-1,3v28l-1,15l-6,-3l-6,3l-2,-3h-15l-3,-2l-15,1l-5,8l2,5l-6,4l-14,2l-4,-2l-7,6l-5,-6l-6,-1l4,-9l-7,-6l-11,-1l-6,6l4,4l-5,5l-6,-2l1,7l-5,5l-4,-6l-1,7l-7,3l-4,-5l-10,-3M938,448l-60,3l-50,2M85,450l1,-17v-22l1,-1v-21l1,-3h-7l1,-9v-21l1,-1v-33l18,1l53,2h7v25l-1,2v37M307,234h-33l-30,-1v16h-9l-6,-5l-7,1l-9,-9v-15l7,-7l5,-9l-6,-3l-1,-6h-7l1,-6l-12,-3l3,-5l-3,-2l-8,1M417,362l-3,-5l2,-12l-10,-8l-6,-1l-10,4l-1,5l-8,-3M265,283l11,1l12,2l-1,4l10,1l7,6l10,2l12,-8l16,1l18,-5l8,9l-9,6l4,14l6,7l2,14l10,5v4l-63,-1v32l-1,16l-40,-1h-7l1,-6v-38l1,-20h-8l1,-19v-26l-7,-8l1,-20l-3,-5l3,-5l-10,-3l-5,7M722,329l-49,1h-36l-10,1M627,283l95,-2M881,515l-1,-3v-23l-1,-3v-22l-1,-13M285,534l1,-15h-7l1,-18v-45h-5M276,440h44l2,1v15l2,1l50,1v47h32v16h3M213,236l-1,27l-56,-1l-1,19v25l-1,19M83,322l-25,-2h-21M598,140v-32l-1,-2v-30h-4v-50l-1,-1M293,59l-16,-1v16h-10l-1,32M421,394h-33l-71,-1M598,108h-37l-3,1h-39M744,169l-1,-32l-2,1l-1,-7v-25"/><g class="cities"><circle r="7" cx="938" cy="404"/><text x="938" y="404">Fargo</text><circle r="7" cx="440" cy="426"/><text x="440" y="426">Bismarck</text><circle r="7" cx="900" cy="214"/><text x="900" y="214">Grand Forks</text></g></svg>