<svg version="1.1" xmlns="http://www.w3.org/2000/svg" width="674" height="1000" viewBox="0 0 674 1000"><path data-geo-id="32001" d="M104,345l2,-5v-14l-3,-5v-10h-2l1,-14h28l1,1h81l1,1h64l8,16l-1,3l-2,5l-1,11l2,1l-1,12l2,5l-3,11l-10,2v3l-7,5l-4,10l-7,2l1,4l3,12l-2,9l-5,2l-2,8l3,3l-10,2h-58l-3,-1h-32l1,-6h-5l-9,-15l-8,-9l-8,-5l-8,-9v-17h3l2,-28Z"/><path data-geo-id="32013" d="M96,167l-2,-1l1,-37h2l1,-24l-1,-3v-44l1,-32h6l17,1h23l6,1h180l1,1v184h-24l-5,15v-21h-36v-24h-50l-5,-1h-62l1,-14l-9,-1Z"/><path data-geo-id="32003" d="M453,727h16l7,-2h52l2,-1h92v-1h31v19l1,1v22l1,1v11l1,7v27l-1,1h-1l-3,8l-1,1l-1,1h-1v1l1,1v1l-1,3h-1v5h-1v1l-1,1l-1,-1h-1l-1,1h-1l-1,1h-4v1v-1l-4,-4h-2l-1,-2l-1,1l-2,-7l-6,-5h-4l-2,1v1h-6l-2,-2h-10v1h-1v1h-1l-3,-1v1h-1v1h-1v1h-1v1h-3v1h-4v1h-2v4l2,1v2l1,2l1,1l-1,1h-1v4l1,3v1l2,4h1v4h1v1l1,1h1v1l1,1h1v1h-3l-1,1l-1,1v1h1v2l-1,1v2l1,1v13l1,1h1v3l-1,1h1v3h1l1,1v2h1l1,1v3h-1v1h-1v1h-1h1l1,1v3l1,1v1h-1v1h-1v1l-1,1v2h1v3l1,1v2l1,1v1h1l2,2v2h1v3h1v3h1v1l1,2v7l1,1v1l1,1v7l1,1v10h-1l-2,1h-3l-1,1v1h-1v1h1v1l2,1h1l1,1v3l-2,1v1h-1v1h-1v4l-18,-18l-6,-4l-6,-7l-2,-1l-16,-15l-14,-14l-5,-3l-11,-12l-34,-31l-23,-22l-1,-22v-6h-5l-1,-7v-55Z"/><path data-geo-id="32021" d="M129,424h51l3,1h58l-34,9v12l13,14l12,16l27,31l-18,19l-26,30l-15,15l-12,14h-8l-3,-3l-9,-10l-16,-14l-10,-10l-22,-20l-5,-4l-11,-12h21l6,-1v-32l1,-26h-12v-12Z"/><path data-geo-id="32023" d="M375,413h66l7,-1l17,13l17,10l22,16l8,4l19,14l13,8l1,44l1,41l-13,1h-54v1h-28v91l1,1v56l1,15v85l1,7h5v6l1,22l-5,-5l-1,-1l-22,-20l-2,-2l-8,-7l-19,-18l-21,-19l-12,-13l-55,-51v-140l-16,-18l-16,-20l-4,-4l-20,-22l-27,-31l-12,-16l-13,-14v-12l34,-9l10,-2l23,-6l21,-4Z"/><path data-geo-id="32005" d="M28,442l-1,-2l-4,-4l-6,-5v-16h25l2,5h21l25,1v12l-11,1l-1,4l1,20l-1,11l7,1l1,25l-17,-16l-6,-5l-3,-3v-1l-9,-7l-3,-3Z"/><path data-geo-id="32033" d="M453,281h95l1,-1h61l1,-1h28v16l1,1v34l1,15v12h1v42l1,1v32l1,16v7l1,13v6l-17,1h-31l-2,1h-33l-18,1l-13,-8l-19,-14l-8,-4l-22,-16l-17,-10l-17,-13l-1,-39l7,-7l3,-11l-2,-20l2,-2v-21l-3,-13Z"/><path data-geo-id="32510" d="M17,408l13,1l9,-6l9,-6l5,8l11,2l-1,7v2l2,4h-21l-2,-5h-25Z"/><path data-geo-id="32011" d="M375,164h44v47l7,30l6,19l4,22l17,-1l1,18l3,13v21l-2,2l2,20l-3,11l-7,7l1,39l-7,1h-66v-123h-1l1,-17v-52h-1v-50Z"/><path data-geo-id="32007" d="M375,164h-44v-135h72l17,-1h49l36,-1h31l22,-1h27v-1h46v7l1,5v18l1,37v5l1,5v8l2,67v27l1,5v22l1,13v30l1,2v3h-28l-1,1h-61l-1,1h-95l-17,1l-4,-22l-6,-19l-7,-30v-47Z"/><path data-geo-id="32019" d="M94,349l3,-4h7l12,-10l-2,28h-3v17l8,9l8,5l8,9l9,15h5l-1,6h-19l-9,17v12h12l-1,26v32l-6,1h-22l-17,-17l-1,-25l-7,-1l1,-11l-1,-20l1,-4l11,-1v-12l-25,-1l-2,-4v-2l1,-7l-11,-2l-5,-8l6,-1l19,-9l11,-21Z"/><path data-geo-id="32015" d="M302,228l5,-15h24v-49h44l-1,7v50h1v52l-1,17h1v123h-80l-21,4l-23,6l-3,-3l2,-8l5,-2l2,-9l-3,-12l-1,-4l7,-2l4,-10l7,-5v-3l10,-2l3,-11l-2,-5l1,-12l-2,-1l1,-11l2,-5l1,-3l-8,-16Z"/><path data-geo-id="32031" d="M20,333l1,-25l1,-27l1,-5l1,-83l2,-55v-7l1,-3l1,-37l1,-20l1,-34v-12l49,1h19l-1,32v44l1,3l-1,24h-2l-1,37l2,1l-2,60h-2l-1,36l-1,34h12l-1,14h2v10l3,5v14l-2,5h-7l-3,4l-2,1l-5,2l-12,2l-2,1h-6l-8,7l-8,-1v10h4l-4,7l3,9l-6,10l-9,6l-9,6l-13,-1v-15l1,-10v-4l1,-11v-1Z"/><path data-geo-id="32029" d="M73,355l2,-1l12,-2l5,-2l2,-1l-10,17l-11,21l-19,9l-6,1l6,-10l-3,-9l4,-7h-4v-10l8,1l8,-7Z"/><path data-geo-id="32017" d="M544,477l18,-1h33l2,-1h31l17,-1v30l1,3v8l1,8v37l1,5v15l1,3v46l1,3v32l1,6v18l1,1v27l1,7h-31v1h-92l-2,1h-52l-7,2h-16l-1,-15v-56l-1,-1v-91h28v-1h54l13,-1l-1,-41Z"/><path data-geo-id="32027" d="M96,167h45l9,1l-1,14h62l5,1h50v24h36v21l-25,71h-64l-1,-1h-81l-1,-1h-40l1,-34l1,-36h2Z"/><path data-geo-id="32009" d="M236,636l-4,-3l-14,-13l-13,-13l-22,-20l-3,-2h8l12,-14l15,-15l26,-30l18,-19l20,22l4,4l16,20l16,18v140l-13,-12l-6,-6l-3,-3l-14,-13l-12,-11l-24,-22Z"/>  <path class="mesh" d="M331,29v184h-24l-5,15v-21h-36v-24h-50l-5,-1h-62l1,-14l-9,-1h-45l-2,-1l1,-37h2l1,-24l-1,-3v-44l1,-32M460,847l-1,-22v-6h-5l-1,-7v-85h16l7,-2h52l2,-1h92v-1h31M251,423l-10,2l-34,9v12l13,14l12,16l27,31l-18,19l-26,30l-15,15l-12,14h-8M448,412l17,13l17,10l22,16l8,4l19,14l13,8l1,44l1,41l-13,1h-54v1h-28v91l1,1v56l1,15M315,711v-140l-16,-18l-16,-20l-4,-4l-20,-22M277,299l8,16l-1,3l-2,5l-1,11l2,1l-1,12l2,5l-3,11l-10,2v3l-7,5l-4,10l-7,2l1,4l3,12l-2,9l-5,2l-2,8l3,3l23,-6l21,-4h80v-123h-1l1,-17v-52h-1v-50l1,-7h44v47l7,30l6,19l4,22l17,-1h95l1,-1h61l1,-1h28M645,474l-17,1h-31l-2,1h-33l-18,1M104,512h21l6,-1v-32l1,-26h-12v-12l9,-17h19M17,415h25l2,5h21l25,1v12l-11,1l-1,4l1,20l-1,11l7,1l1,25M17,408l13,1l9,-6l9,-6l5,8l11,2l-1,7v2l2,4M375,164h-44M94,349l-2,1l-5,2l-12,2l-2,1h-6l-8,7l-8,-1v10h4l-4,7l3,9l-6,10l6,-1l19,-9l11,-21l10,-17l3,-4h7M96,167l-2,60h-2l-1,36l-1,34h40l1,1h81l1,1h64l25,-71M375,413h66l7,-1l-1,-39l7,-7l3,-11l-2,-20l2,-2v-21l-3,-13l-1,-18M241,425h-58l-3,-1h-32l1,-6h-5l-9,-15l-8,-9l-8,-5l-8,-9v-17h3l2,-28l-12,10l2,-5v-14l-3,-5v-10h-2l1,-14"/><g class="cities"><circle r="7" cx="537" cy="817"/><text x="537" y="817">Las Vegas</text><circle r="7" cx="39" cy="360"/><text x="39" y="360">Reno</text><circle r="7" cx="460" cy="187"/><text x="460" y="187">Elko</text></g></svg>