<svg version="1.1" xmlns="http://www.w3.org/2000/svg" width="919" height="1000" viewBox="0 0 919 1000"><path data-geo-id="39063" d="M223,242h51l2,1h38v47h-7v11h-4v12h-8l-1,22h-69l-3,-1v-26l1,-19Z"/><path data-geo-id="39003" d="M130,322h46v-11h23v-4l23,1v54l-1,18h-45v-4h-23v-7l-6,-1h-29v-34h12Z"/><path data-geo-id="39085" d="M792,60l1,36l-20,1l1,19h-28l-11,1v18l-18,1h-19l-1,-16l10,-13l21,-17l7,-4l7,-1l15,-7l13,-9Z"/><path data-geo-id="39047" d="M277,672l-17,-2l4,-44l39,3l15,2l27,1l-3,48l-17,28l-4,9l-17,-1h-28v-10l3,-32Z"/><path data-geo-id="39017" d="M25,707v-10l1,-11v-8l1,-16h24v1h44v-6l24,1v12l6,-2l-2,18v17l-2,17l-1,17l-41,-6l-18,-1l-1,2l-35,-1v-22Z"/><path data-geo-id="39115" d="M584,612l21,2h22l34,2h12v24h12l-1,21l-4,-1l-21,1l-2,13l3,1v13h-11v-2l-12,-1v10l-5,2l-42,-2v-24l3,-6l2,-40h-12Z"/><path data-geo-id="39133" d="M718,213v-19h55l22,-1v20l1,5v32l1,19v19h-17l-19,1h-42v-20l-1,-10v-9Z"/><path data-geo-id="39145" d="M436,831h10l-1,25l23,1l-2,26h-7l-2,19l-12,-1l-1,10l5,12l-15,8l-1,-1h-1v-1h-1v-1l-1,-1h-1v-1h-1v-1l-1,-1v-1l-1,-2l-1,-3v-7l-4,-11l1,-16l-3,-3l-7,1l-9,7h-13l-5,8l-3,2l-4,2l-7,4l-2,9l-6,3h-11l-8,-2l-3,2v-105l7,2l4,5v8l12,1h23l30,1Z"/><path data-geo-id="39163" d="M448,720l23,2v-4l24,1v-7l47,3l-2,24l8,1l-2,22h-8l-1,24l-2,23l-23,-2l2,-26l-23,-2l-2,-11l-22,-1l1,-4l-23,-2v-7l1,-20Z"/><path data-geo-id="39125" d="M39,239v-19l1,-3h43v1h25v11l23,1v39l-1,18h-57v-1h-35v-17l1,-18v-12Z"/><path data-geo-id="39069" d="M133,172v-15h44v1h47v19l-1,8v57h-35v-1h-34l1,-18v-51Z"/><path data-geo-id="39051" d="M122,98h48l24,-1h11l10,-1h10v27l-1,11v24h-47v-1h-44v-8h-8l1,-28h-4Z"/><path data-geo-id="39015" d="M193,747l26,3l-1,9v29l-1,22h41l-3,29v12l-3,31l-2,29l-14,-5l-4,-12l-10,-5v-5l-4,-6l-7,-1h-1l-6,-1l-6,-5l-7,1l-1,1h-2l-2,1l-1,1h-2l-2,1l-2,-1v1l2,-22l2,-7v-16l7,-50Z"/><path data-geo-id="39091" d="M293,418l-1,17l-3,20l-1,16l-2,19l-48,-3l1,-5h-9l-37,-4l2,-11l1,-20v-24h1l1,-14h23v2l20,1l21,2l27,2Z"/><path data-geo-id="39155" d="M795,193l-1,-41h67l4,-1h25v22l1,22v11l1,11v31h-45l-1,1h-48l-2,1v-32l-1,-5Z"/><path data-geo-id="39131" d="M317,801l7,-37l38,3h14l27,3l37,2l-2,28v12l-2,19l-19,-2l-30,-1h-23l-12,-1v-8l-4,-5l-7,-2l-9,-10Z"/><path data-geo-id="39111" d="M839,588l-1,1v13l-8,7l3,8l1,1l4,5l-2,5h-1l-4,3v12l-3,6l-2,1h-7l-1,1h-1l-1,2h-1l-11,11l-5,5l-2,2v-8l-16,-1h-31v-7l-4,-1h1v-27h-8v-42h16v1h34l15,1Z"/><path data-geo-id="39087" d="M468,857l15,1l-1,18l20,1l-1,8h5l-1,16l24,1l-1,24l15,1h-1l-2,24l-3,9l-5,5h-14l-5,2l-4,2l-7,2h-1l-4,2h-1v1h-1l-3,1h-5l-7,-3l-2,-13l-5,-5h-2l-1,-1h-1l-1,-1l-1,-1l-1,-1v-2h-1v-1l-1,-1l-1,-1l-2,-3v-1l-7,-6l-2,-1h-5l-3,-1l-1,1h-4l-1,-1l-1,-1h-2v-1h-1l15,-8l-5,-12l1,-10l12,1l2,-19h7Z"/><path data-geo-id="39001" d="M258,810l14,1l5,-2l29,-5l11,-3l15,1l9,10v106l-5,5l-6,-3l-2,-8l-11,-7l-18,-3l-8,-7h-7l-12,4l-8,5l-2,8l-5,3l-7,-4l2,-29l3,-31v-12Z"/><path data-geo-id="39033" d="M376,290h51l5,-1h21v37l-1,4v34h-26v2h-27l-1,1h-22Z"/><path data-geo-id="39059" d="M675,492l8,1h49l1,1v11h22v58h-23l-8,1v7h-16v8l-12,-1l-11,1l-1,14h-22v-24h-7v-23l1,-1v-28l1,-6h9v-19Z"/><path data-geo-id="39161" d="M38,306v-20h35v1h46v23l11,1v23h-12v34h-12v-12l-22,-1h-41l-6,-1v-14l1,-2v-31Z"/><path data-geo-id="39129" d="M348,602l47,2l37,2l-1,20l-1,13l-1,29l23,2l-2,23l-53,-3l4,-3l-1,-4l-38,-1l-20,-2l3,-48Z"/><path data-geo-id="39119" d="M560,547l1,-8v-24l1,-6h52l1,1h35l7,1l-1,6v28l-1,1v23h7v24l-1,23l-34,-2h-22l-21,-2l1,-11l-20,-1l2,-24l-15,-1l1,-9h6Z"/><path data-geo-id="39139" d="M453,289l13,1h48v47l7,1v6l1,16h8v24l1,22l-8,1h-50v-23h-4v-8h4v-11l-13,-1h-8v-34l1,-4Z"/><path data-geo-id="39021" d="M193,478l37,4h9l-1,5l48,3l11,2l-2,30l-2,27l-24,-1l-10,-2l-21,-1l-32,-4l-18,-1l2,-38Z"/><path data-geo-id="39169" d="M668,310v64l-21,1h-74v-60l-1,-1v-24h96Z"/><path data-geo-id="39123" d="M316,123h50l12,2l8,6l7,10l12,9l-20,4v1l30,-3l8,-3l4,-6v-8l4,-2l2,8l5,1l-3,5l15,-4l5,2v5l-10,5h-10l-1,4l-7,-3l-3,3l-19,1l-1,4l-13,1l-1,2h-28v-1h-30l-1,-11h-15ZM439,112l-7,9l-2,-5Z"/><path data-geo-id="39067" d="M746,435h33v1h26l6,1h16l-1,25h-1v41l-1,4l-19,-1h-27v-1h-45v-35h12v-25Z"/><path data-geo-id="39023" d="M188,540l18,1l32,4l21,1l10,2l24,1l1,2l-9,29l-7,32l-12,-1l-20,-2v-3l-17,-2v-6l-23,-2v-4l-23,-3v-7Z"/><path data-geo-id="39073" d="M524,644l-1,15l24,2v7l21,1l-1,24l-24,-1l-1,23l-47,-3v7l-24,-1v4l-23,-2l2,-27l2,-23v-4l22,1v-11l26,2v-16Z"/><path data-geo-id="39109" d="M108,497h43l6,2l19,1l14,2l-2,38l-5,42l-19,-1l-3,-3l1,-8h-54Z"/><path data-geo-id="39041" d="M348,434l13,2l32,1v5l19,1l-1,15l38,2l-2,19l-2,40l-27,-2h-15l-6,-1l-35,-2v-26h-15v-38Z"/><path data-geo-id="39037" d="M33,476v-5l1,-1v-16h25v1h49v115h-52l-2,-1h-24v-15l1,-3l1,-34v-23l1,-14v-3Z"/><path data-geo-id="39057" d="M183,589l23,3v4l23,2v6l17,2v3l20,2l-2,15l-4,44l-36,-3l-10,-2l-17,-1l-28,-2l1,-19l2,-11l3,-39h8Z"/><path data-geo-id="39005" d="M511,290l-1,-19h53v19h9v24l1,1v60h-19l1,27l-24,4l-1,-22v-24h-8l-1,-16v-6l-7,-1v-47Z"/><path data-geo-id="39095" d="M302,94h7l-4,9l9,-3l-1,4l16,2l3,-5l6,7l13,7l1,3l14,5h-79l-5,5l-4,8l-15,6l-5,7v8l-8,7h-6v4l-20,9v-43l1,-11v-27h23l4,-1h28l8,-1h6Z"/><path data-geo-id="39007" d="M793,96l-1,-36l21,-5l19,-11l19,-4l11,-6l13,-4l11,-5v11l1,11v26l1,21l1,16v32l1,9h-25l-4,1h-67v-24l-1,-3Z"/><path data-geo-id="39135" d="M28,614v-12l1,-2v-14l1,-17h24l2,1h40v40h-1v53h-44v-1h-24v-20l1,-17v-10Z"/><path data-geo-id="39079" d="M440,772l4,1l1,-12l23,2l-1,4l22,1l2,11l23,2l-2,26l-4,51l-24,-2l-1,2l-15,-1l-23,-1l1,-25h-10l2,-19v-12Z"/><path data-geo-id="39151" d="M719,289h42l19,-1v24l1,10v35h-22l-8,2l-1,19h-52l-18,4l-11,1l-1,-9v-64l21,1h25v-19Z"/><path data-geo-id="39099" d="M797,269l-1,-19l2,-1h48l1,-1h45l1,31v30l-5,1h-46l-9,1v-8h-15v8h-36l-2,1v-24h17Z"/><path data-geo-id="39157" d="M669,383l11,-1l18,-4h37v22l11,1v34l-1,10v25h-12v24l-1,-1h-49l-8,-1l1,-13v-25l-19,-1v-20h9v-43Z"/><path data-geo-id="39071" d="M276,716h28l17,1l-3,13l-1,2l1,18l8,5l-2,9l-7,37l-11,3l-29,5l-5,2l-14,-1h-41l1,-22v-29l1,-9h6v7h5l6,-12l8,-4l21,-18Z"/><path data-geo-id="39117" d="M452,364h8l13,1v11h-4v8h4v23h-4l3,7l-2,16l-1,31l-20,-1l-38,-2l1,-15l-19,-1v-5l1,-13l12,-1v-41l20,-1v-17Z"/><path data-geo-id="39101" d="M314,371h22v-4h62l1,-1h27v15l-20,1v41l-12,1l-1,13l-32,-1l-13,-2v-16h-34Z"/><path data-geo-id="39127" d="M506,571l8,2l38,2l15,1l-2,24l20,1l-1,11l-1,13h12l-2,40l-3,6l-22,-2l-21,-1v-7l-24,-2l1,-15l2,-23l-8,-1l1,-20l-1,-4l-14,-1Z"/><path data-geo-id="39043" d="M528,175v20l1,18h-56l-2,-1h-40l-1,-1l-1,-19v-18h-11l7,-2l11,-10l11,9l11,-6l17,12l-8,-10l13,13l16,7h7ZM458,126l4,-2l-1,9l-9,-4l1,-5Z"/><path data-geo-id="39027" d="M197,664l17,1l10,2l36,3l17,2l2,2l-3,32v10l-11,7l-21,18l-8,4l-6,12h-5v-7h-6l-26,-3h-3l1,-17l3,-19l1,-20Z"/><path data-geo-id="39093" d="M603,154v41h18v20h-18v20h-20v17h-20v19h-33l-2,-36v-3l1,-19l-1,-18v-20h13l6,-2l12,-10l24,-7l7,-4Z"/><path data-geo-id="39039" d="M133,172h22v51l-1,18h-23v-11l-23,-1v-11h-25v-1h-43v-37l1,-5v-5l10,1h53l1,1Z"/><path data-geo-id="39009" d="M542,715l1,-23l24,1l1,-24l22,2v24l42,2l-1,31l7,8v8h20v15l-2,2l-2,5l-2,2h-1l-13,-1h-21l-8,-1l-28,-1l-35,-3l2,-22l-8,-1Z"/><path data-geo-id="39081" d="M811,437v-12h4v-23h11l1,-11h23v3l16,-1l8,14l1,3v1l2,4l4,8v3l-1,3v1h-1v2l-1,1v7l-3,3l4,5l1,19v2l-2,8l-9,10l-3,12l-5,8l-13,1l-24,-1l1,-4v-41h1l1,-25Z"/><path data-geo-id="39143" d="M316,155h15l1,11h30v1h24l7,1l4,4l7,-4l5,9l9,-3h11v18l1,19v9h-116l1,-2v-28l1,-2Z"/><path data-geo-id="39113" d="M96,570h66l-1,8l3,3l19,1v11h-8l-3,39l-2,11l-1,19l-34,-4h-16l-24,-1v-47h1Z"/><path data-geo-id="39011" d="M106,398v-30h41l6,1v7h23v4h45v29h-23l-1,14h-1l-15,-1h-53v28l-20,-1v6l-4,-1l1,-24v-29Z"/><path data-geo-id="39055" d="M793,96v29l1,3v24l1,41l-22,1h-55l-1,-20v-38l18,-1v-18l11,-1h28l-1,-19Z"/><path data-geo-id="39061" d="M24,747v-6l1,-8v-2l35,1l1,-2l18,1l41,6l18,1l1,4l-5,5l-7,7l1,5h7l-3,5l-3,6l-2,28l-2,10l-1,-1v-1h-1l-2,-1l-4,-2l-1,-1h-2l-3,-1h-3l-2,-1h-2l-1,-1l-1,-12l-2,-4l-1,-1l-1,-1h-5l-4,5l-2,2h-5v-1h-1l-1,-1h-2l-1,1l-1,1l-1,1v1h-1v1h-1l-1,1h-3l-1,1h-1l-5,-1h-1l-2,-3l-1,-1l-1,-1h-1l-2,-1l-9,-7v-2l-1,-1l-1,-1h-1l-1,-1l-3,-1h-1l-3,2l-3,5v1h-3l-3,1v1h-2v-13l1,-1v-22Z"/><path data-geo-id="39075" d="M555,402l-1,-27h93l21,-1l1,9l-3,7v43h-53v-1h-51v-31Z"/><path data-geo-id="39029" d="M780,312l2,-1h36v-8h15v8l9,-1h46l5,-1v6l1,8v19l1,23v13l-10,7l-5,-3l-7,2l-7,9l-16,1v-3h-23v-12h-12v-23l-8,1h-26v-35Z"/><path data-geo-id="39019" d="M735,378h15l1,-19l8,-2h48l8,-1v23h12v12l-1,11h-11v23h-4v12l-6,-1h-26v-1h-33v-34l-11,-1Z"/><path data-geo-id="39013" d="M755,505h23v1h27l19,1l24,1l13,-1l-1,15l-4,4l-2,2v2l2,9l-2,9l1,8l-5,8l2,8l-11,-2l4,9l-1,7h-1l-1,1h-2l-1,1l-35,-1l-15,-1h-34v-42Z"/><path data-geo-id="39141" d="M317,732l1,-2l3,-13l4,-9l17,-28l20,2l38,1l1,4l-4,3l53,3l-2,27l-2,14l-1,20v7l-1,12l-4,-1l-37,-2l-27,-3h-14l-38,-3l2,-9l-8,-5Z"/><path data-geo-id="39167" d="M712,647l8,1l3,8l8,2h15v-4l4,1v7h31l16,1v8l-12,13l-5,9l-3,4l-7,1l-8,9l-2,5h-10l-14,10l-6,2l-5,-2l-3,-10l-8,-6l-5,2l-9,11l-5,3l-2,1l-1,2l-1,2l-1,7v9h-11l-11,-1l-5,5v10l-5,2v-15h-20v-8l-7,-8l1,-31l5,-2v-10l12,1v2h11v-13l-3,-1l2,-13l21,-1l4,1h23v-16Z"/><path data-geo-id="39097" d="M293,549l2,-27l6,1h42l13,1l-1,11l-3,5l-7,-1l2,23l4,6l-5,5l2,29l-3,30l-27,-1l-15,-2l-39,-3l2,-15l12,1l7,-32l9,-29Z"/><path data-geo-id="39065" d="M221,380l1,-18v-28l3,1h74v31h10l5,5v47h-21l-4,-2l-27,-2l-21,-2l-20,-1v-2Z"/><path data-geo-id="39025" d="M190,747h3l-3,34l-7,50v16l-2,7l-2,22h-4l-1,-1h-3l-1,-1l-3,-1v-1h-2l-1,-1l-2,-1h-1l-1,-1h-3v-1h-2l-5,-1l-2,-1h-1l-1,-1l-3,-4l-1,-1v-19l-1,-1v-1l-6,-7v-2l-2,-2l-1,-1l-3,-12l-4,-7l2,-10l2,-28l3,-6l3,-5h-7l-1,-5l7,-7l5,-5l35,4Z"/><path data-geo-id="39121" d="M661,616l1,-23h22l1,-14l11,-1l12,1v-8h16v-7l8,-1h23v22h-16v42h8v27h-1v4h-15l-8,-2l-3,-8l-8,-1l-5,-2v16h-23l1,-21h-12v-24Z"/><path data-geo-id="39137" d="M131,241h57v1h35v47l-1,19l-23,-1v4h-23v11h-46v-11l-11,-1v-23h11l1,-18Z"/><path data-geo-id="39105" d="M546,762l35,3l28,1l8,1h21l13,1l1,2l1,5v15l-1,2l-2,3l-10,-1l-1,5l4,6l7,6l-4,16l6,6l-7,3l-5,-6l-4,2l-3,8v2l-2,2v1l-8,4l-3,-2l-3,-2l2,-6h1l3,-3l-7,-17h-10l-1,-1v-1l-1,-3v-2l-2,-3h-1l-4,-1l-3,2l-1,2v1l-2,4v1l-1,1l-2,1h-1l-4,2l-1,4v-10l-46,-2l-1,-5l2,-23l1,-24Z"/><path data-geo-id="39049" d="M445,519l-1,20v13l-3,16h-6v8h3v13l-1,10h-4l-1,7l-37,-2l-47,-2l-2,-29l5,-5l-4,-6l-2,-23l7,1l3,-5l1,-11h6v-10l35,2l6,1h15Z"/><path data-geo-id="39077" d="M431,231l-1,-11v-9l1,1h40l2,1h56l-1,19v3l2,36h-20l1,19h-45l-13,-1h-21l-1,-5v-29Z"/><path data-geo-id="39173" d="M282,128l5,-5h29v65l-1,2v28l-1,2v23h-38l-2,-1h-51v-57l1,-8l20,-9v-4h6l8,-7v-8l5,-7l15,-6Z"/><path data-geo-id="39147" d="M314,220h116l1,11v53l1,5l-5,1h-113v-47Z"/><path data-geo-id="39171" d="M42,120v-21h49l31,-1v23h4l-1,28h8v23h-28l-1,-1h-53l-10,-1v-36l1,-2v-12Z"/><path data-geo-id="39159" d="M293,418h55v16l-1,16v38h15v36h-6l-13,-1h-42l-6,-1l2,-30l-11,-2l2,-19l1,-16l3,-20Z"/><path data-geo-id="39035" d="M603,161v-7l6,4l15,2l11,-4l7,1l5,2l7,-4l9,-9l12,-6l15,-17l7,-3l1,16h19v38l1,20h-41l3,12l3,7l-4,1h-23l-27,1h-8v-20h-18Z"/><path data-geo-id="39165" d="M119,658h16l34,4l28,2l-2,27l-1,20l-3,19l-1,17l-16,-1l-35,-4l-1,-4l-18,-1l1,-17l2,-17v-17l2,-18l-6,2Z"/><path data-geo-id="39045" d="M438,589v-13h-3v-8h6l39,3h26l-2,24l14,1l1,4l-1,20l8,1l-2,23l-24,-2v16l-26,-2v11l-22,-1v4l-23,-2l1,-29l1,-13l1,-20l1,-7h4Z"/><path data-geo-id="39083" d="M473,407h50l8,-1l24,-4l7,-1v31l-1,12l-1,45h-44l-13,-1l-2,-6h-14l-16,-2l-24,-1l2,-19l20,1l1,-31l2,-16l-3,-7Z"/><path data-geo-id="39089" d="M445,519l2,-40l24,1l16,2h14l2,6l13,1h44l2,3v17l-1,6v24l-1,8l-1,19h-6l-1,9l-38,-2l-8,-2h-26l-39,-3l3,-16v-13Z"/><path data-geo-id="39153" d="M659,251v-37h20l4,-1l-3,-7l-3,-12h41v65l1,10v20l-5,3v19h-25l-21,-1v-20h-9Z"/><path data-geo-id="39149" d="M108,455v-6l20,1v-28h53l15,1v24l-1,20l-2,11l-3,24l-14,-2l-19,-1l-6,-2h-43Z"/><path data-geo-id="39103" d="M629,215l27,-1h3v76h-96v-38h20v-17h20v-20h18Z"/><path data-geo-id="39053" d="M512,807l23,2l1,5l46,2v10l-3,5l-4,10l-3,4v14l-4,5l-6,1l-6,7v5l6,8l1,5l-1,9l5,20l-4,5l-5,1l-1,-1l-10,-1l-3,3l-1,1l-15,-1l1,-24l-24,-1l1,-16h-5l1,-8l-20,-1l1,-18l1,-2l24,2Z"/><path data-geo-id="39031" d="M562,432h51v1h44v20l19,1v25l-1,13h-9v19h-9l-7,-1h-35l-1,-1h-52v-17l-2,-3l1,-45Z"/><path data-geo-id="39175" d="M314,290h62v77h-40v4h-22l-5,-5h-10v-31h-5l1,-22h8v-12h4v-11Z"/><path data-geo-id="39107" d="M36,400v-24l1,-3v-19l6,1h41l22,1v42l-1,3v29l-1,24l4,1h-49v-1h-25v-20l1,-2v-14l1,-11v-6Z"/>  <path class="mesh" d="M40,217h43v1h25v11l23,1v39l-1,18h-57v-1h-35M797,671v-8l-16,-1h-31v-7l-4,-1h1v-27h-8v-42h16v1h34l15,1l35,1M528,175v20l1,18h-56l-2,-1h-40l-1,-1l-1,-19v-18h-11M560,489l2,3v17M473,407v-23h-4v-8h4v-11l-13,-1h-8M293,549l1,2l-9,29l-7,32l-12,-1l-20,-2v-3l-17,-2v-6l-23,-2v-4l-23,-3v-7l-19,-1l-3,-3l1,-8h-66v40h-1v47l24,1M792,60l1,36l-20,1l1,19h-28l-11,1v18l-18,1h-19l-1,-16M584,612l21,2h22l34,2M222,334v-26l1,-19v-47h51l2,1h38M221,380h-45v-4h-23v-7l-6,-1h-29v-34h12v-12h46v-11h23v-4l23,1M219,750h6v7h5l6,-12l8,-4l21,-18l11,-7v-10l3,-32l-2,-2l-17,-2l-36,-3l-10,-2l-17,-1l-28,-2l-34,-4h-16v12l6,-2l-2,18v17l-2,17l-1,17l18,1l1,4l35,4l16,1l1,-17l3,-19l1,-20l2,-27M260,670l4,-44M27,662h24v1h44v-6M341,917v-105l7,2l4,5v8l12,1h23l30,1l19,2h10l-1,25l23,1l-2,26h-7l-2,19l-12,-1l-1,10l5,12l-15,8M651,768l-13,-1h-21l-8,-1l-28,-1l-35,-3h-8l-1,24l-2,23l-23,-2l2,-26l-23,-2l-2,-11l-22,-1l1,-4l-23,-2v-7l1,-20l2,-14l23,2v-4l24,1v-7l47,3l-2,24l8,1l-2,22M41,170l10,1h53l1,1h28v-15h44v1h47v19l-1,8v57h-35v-1h-34l1,-18v-51h-22M225,96v27l-1,11v24M133,157v-8h-8l1,-28h-4v-23M193,747l26,3l-1,9v29l-1,22h41l-3,29v12l-3,31l-2,29M430,211v9h-116v70h-7v11h-4v12h-8l-1,22h-69l-3,-1v28l-1,18v31l20,1l21,2l27,2l4,2l-1,17l-3,20l-1,16l-2,19l-48,-3l1,-5h-9l-37,-4l2,-11l1,-20v-24h1l1,-14h23M795,193l-1,-41h67l4,-1h25M892,248h-45l-1,1h-48l-2,1M341,812l-9,-10l-15,-1l7,-37l38,3h14l27,3l37,2l-2,28v12l-2,19M179,876l2,-22l2,-7v-16l7,-50l3,-34h-3M468,857l15,1l-1,18l20,1l-1,8h5l-1,16l24,1l-1,24l15,1M258,810l14,1l5,-2l29,-5l11,-3M376,290h51l5,-1h21v37l-1,4v34h-26v2h-27l-1,1h-22M675,492l8,1h49l1,1v11h22v58h-23l-8,1v7h-16v8l-12,-1l-11,1l-1,14h-22v-24h-7v-23l1,-1v-28l1,-6M119,287v23l11,1v11M118,368h-12v-12l-22,-1h-41l-6,-1M345,632l3,-30l47,2l37,2l-1,20l-1,13l-1,29l23,2l-2,23l-53,-3l4,-3l-1,-4l-38,-1l-20,-2M286,490l11,2l-2,30l-2,27l-24,-1l-10,-2l-21,-1l-32,-4l-18,-1l2,-38l3,-24M386,167h-24v-1h-30l-1,-11h-15v-32h50M733,494v-24h12v-25l1,-10h33v1h26l6,1h16l-1,25h-1v41l-1,4l-19,-1h-27v-1h-23M183,582l5,-42M452,670v-4l22,1v-11l26,2v-16l24,2l-1,15l24,2v7l21,1l-1,24l-24,-1l-1,23M448,720l2,-27M108,570v-73M348,434l13,2l32,1v5l19,1l-1,15l38,2M453,289l13,1h48v47l7,1v6l1,16h8v24l1,22l-8,1h-54l3,7l-2,16l-1,31l-20,-1l-2,19l-2,40l-27,-2h-15l-6,-1l-35,-2M96,570h-40l-2,-1h-24M169,662l1,-19l2,-11l3,-39h8v-4M511,290l-1,-19h53v19h9M573,375h-19l1,27l-24,4M316,123h-29l-5,5l-4,8l-15,6l-5,7v8l-8,7h-6v4l-20,9M794,152v-24l-1,-3v-29M512,807l-4,51l-24,-2l-1,2M735,378h-37l-18,4l-11,1l-1,-9M668,310v64l-21,1h-74v-60l-1,-1v-24h96v20l21,1h25v-19l5,-3M893,309l-5,1h-46l-9,1v-8h-15v8h-36l-2,1M780,288l-19,1h-42v-20l-1,-10v-65h55l22,-1v20l1,5v32l1,19v19h-17v24l1,10v35h-22l-8,2l-1,19h-15v22l11,1v34M632,697l-42,-2v-24l3,-6l2,-40h-12l1,-13l1,-11l-20,-1l2,-24l-15,-1l1,-9h6l1,-19l1,-8v-24l1,-6h52l1,1h35l7,1h9v-19h9l1,-13v-25l-19,-1v-20h9v-43l3,-7M321,717l-3,13l-1,2l1,18l8,5l-2,9M393,437l1,-13l12,-1v-41l20,-1v-15M295,522l6,1h42l13,1h6v-36h-15v-38l1,-16v-16h-34v-47h22v-4h40v-77h-62M590,671l-22,-2M524,644l2,-23l-8,-1l1,-20l-1,-4l-14,-1l2,-24M603,154v41h18v20h-18v20h-20v17h-20v19M530,271l-2,-36v-3l1,-19M154,241h-23M662,593l-1,23h12v24h12l-1,21l-4,-1l-21,1l-2,13l3,1v13h-11v-2l-12,-1v10l-5,2l-1,31l7,8v8h20v15M266,611l-2,15l39,3l15,2l27,1l-3,48l-17,28l-4,9l-17,-1h-28M811,437v-12h4v-23h11l1,-11h23v3l16,-1M861,507l-13,1l-24,-1M196,423l-15,-1h-53v28l-20,-1v6M34,454h25v1h49l-4,-1l1,-24v-29l1,-3v-30M718,194l-1,-20v-38M120,737l-41,-6l-18,-1l-1,2l-35,-1M139,742l-5,5l-7,7l1,5h7l-3,5l-3,6l-2,28l-2,10M657,433h-44v-1h-51v-31l-7,1M827,391v-12h-12v-23l-8,1h-26M755,585v-22M684,661h23v-16l5,2l8,1l3,8l8,2h15v-4M356,524l-1,11l-3,5l-7,-1l2,23l4,6l-5,5l2,29M294,335h5v31h10l5,5M582,826v-10l-46,-2l-1,-5M445,519l-1,20v13l-3,16h-6v8h3v13l-1,10h-4l-1,7M432,289l-1,-5v-53l-1,-11M718,194h-41l3,12l3,7l-4,1h-20M659,290v-76h-3l-27,1h-8M562,432l-1,12l-1,45h-44l-13,-1l-2,-6h-14l-16,-2l-24,-1M441,568l39,3h26l8,2l38,2M108,455M440,772l4,1l1,-12M314,418h-21M314,220l1,-2v-28l1,-2v-33M108,497h43l6,2l19,1l14,2M108,455v42"/><g class="cities"><circle r="7" cx="398" cy="563"/><text x="398" y="563">Columbus</text><circle r="7" cx="657" cy="155"/><text x="657" y="155">Cleveland</text><circle r="7" cx="83" cy="783"/><text x="83" y="783">Cincinnati</text></g></svg>