<?xml version="1.0"?><!DOCTYPE svg PUBLIC "-//W3C//DTD SVG 1.1//EN" "http://www.w3.org/Graphics/SVG/1.1/DTD/svg11.dtd"><svg xmlns="http://www.w3.org/2000/svg" version="1.1" width="1294" height="800" viewBox="0 0 1294 800"><g class="geography"><path class="CAS1" d="M126,241l-15,59l-6,26l4,5l12,19l10,14l5,9l11,15l28,42l23,35l2,11v5l5,7l-4,1l-4,4l-3,2v7l-5,7h-2v11l3,1l-2,7v1v-1v1h-5l-58,-7l1,-3v1v-1l-2,-4h1l-1,-1v1v-1l1,-7l-5,-12l-6,-7l-4,-6h-2v-1v1v-1v1v-1v1v-1h-1l-1,1l-3,-1l1,-7l-8,-3l-8,-6l-6,-10h-4l-10,-5l-6,-1l-3,-4l4,-13l-5,-8l2,-5l-3,-1l-2,-6l-3,-1l-2,-12l-6,-9v-8l6,-6l-1,-6h-4l-5,-6v-15l5,-5v1l-1,6l4,3v-8l-2,-1v-1l-1,-4h10l3,1l1,1l3,-1l-2,1v-1h2v-1l-1,1h-2v-1l-1,1l-2,-1v-1h-1v-1l-11,-1v5l-6,-2l-2,-6l-2,-13l-3,-2l-6,-15l2,-1v-13l3,-2v-10l-5,-10l-1,-10l8,-7v-1l2,-8l6,-9l1,-15v-1v1l23,5l16,6l16,4l13,4ZM125,515h-1h1h-1v-1ZM114,488h0ZM114,488h0ZM110,482h0ZM108,481v1h-2l1,-1ZM98,487l4,4l-2,2ZM95,500l4,7h-2ZM88,465h0ZM72,463l8,4h-8ZM61,341l1,-1v1ZM60,342h-1v-1h1h-1ZM48,346v1l-2,-2ZM31,344h0ZM31,344h0Z"/><path class="CAS3" d="M126,241l-15,59l-6,26l4,5l12,19l10,14l5,9l11,15l28,42l23,35l2,11v5l5,7l-4,1l-4,4l-3,2v7l-5,7h-2v11l3,1l-2,7v1v-1v1h-5l-58,-7l1,-3v1v-1l-2,-4h1l-1,-1v1v-1l1,-7l-5,-12l-6,-7l-4,-6h-2v-1v1v-1v1v-1v1v-1h-1l-1,1l-3,-1l1,-7l-8,-3l-8,-6l-6,-10h-4l-10,-5l-6,-1l-3,-4l4,-13l-5,-8l2,-5l-3,-1l-2,-6l-3,-1l-2,-12l-6,-9v-8l6,-6l-1,-6h-4l-5,-6v-15l5,-5v1l-1,6l4,3v-8l-2,-1v-1l-1,-4h10l3,1l1,1l3,-1l-2,1v-1h2v-1l-1,1h-2v-1l-1,1l-2,-1v-1h-1v-1l-11,-1v5l-6,-2l-2,-6l-2,-13l-3,-2l-6,-15l2,-1v-13l3,-2v-10l-5,-10l-1,-10l8,-7v-1l2,-8l6,-9l1,-15v-1v1l23,5l16,6l16,4l13,4ZM125,515h-1h1h-1v-1ZM114,488h0ZM114,488h0ZM110,482h0ZM108,481v1h-2l1,-1ZM98,487l4,4l-2,2ZM95,500l4,7h-2ZM88,465h0ZM72,463l8,4h-8ZM61,341l1,-1v1ZM60,342h-1v-1h1h-1ZM48,346v1l-2,-2ZM31,344h0ZM31,344h0Z"/><path class="AKS2" d="M95,611l3,-1h3v1v-1l3,-5l4,1l6,-5v1h1l1,1v2l2,-2l7,3h1l1,3h2l4,1v1l1,-1h1l3,-1h1v1h3v1v-1v1h8l3,2h1l2,-1v-1h1h-1h1l1,-1h1l1,1l3,1l1,1l2,1h2l5,23l1,10l7,35l2,5l3,18l9,-2l12,11l3,-2l3,-9l3,4l21,16l4,5l12,2l3,7l-2,6v1v-1l-4,-3l1,-1v-1h-1v-2l-2,-2h-3v1h-1v1h1h-1h1h-1h1v2v-1v2l-3,-1v-3h1v-1h-1v-3h-2h1h-2v-3v1h-2l-2,-2h-1h1v-1v1v-1l-1,1l-1,-1l-2,-1l1,-1h-1l-1,-1l-1,-2h1l-1,-1v1v-1h-1l-2,-1l-1,-1v-1h-1h1h-3l-1,-1h-1v-1l-1,-1v-2h-2v-1l-1,-1v2h1l1,2v1v-1v1l2,2v1v-1v1h-2l-2,-1v1l-1,-1v-1h-1v-1l-1,-1l1,-1l-1,1v1l-3,-1h-1l4,2v1v-1v1h1v2l-1,1h-1v1l-1,-1l-5,-2l-5,-4h-1l-3,-1l-1,-1h-2v-2h1l-1,-1v-2l-3,3l-6,-1h-8l-6,2h-1v-1l-2,-1l-1,-2v-1h-1v1h-1h1h-1v1v-1h-4h1v-1l-1,-1h-2l-2,-1v-1h-2l-1,1h-1l-1,1h-1v-1h-1v1v-1v1l-2,1h2v1l2,1v1h-1v3v-1v1h-1v1l-5,1v1v-1l-1,2v1v-1v1v-1v1v-1l-1,-2v3l-1,-1l-2,4v-2v2v-2l-2,2v1l-5,2l-1,-2h1h-1l3,-2l1,-1h-3l2,-12l9,-7l-8,3l-8,11h1l-4,5l-4,3v2l4,2l-1,3l-2,3h-1l-1,1h1h-1h1v-1v1h-1h1l-2,2l-2,1h-1l-7,5l-1,1h1v1l-1,1v2h-1l-10,6l-2,3l-1,1h-2h1h-2l-5,2v1h-2l-3,1l-2,-2l-1,3h-1v1l-4,-2v-1v1l-4,4h-1v-3l3,-1l1,-1h1v-1l9,-4h2h-1h1l-1,1h1l9,-7v-1v1v-1l4,-1l5,-7l2,-6l2,-7l-6,3v-5l-4,2l2,3l-8,-4h-3v1v-1l-5,3l2,-6l-3,-10l1,-1h-1l1,-4l-2,6h-9v-1l-1,-4l1,-2h1v-1h1l2,-2h-1h1h-4l-1,-1h-1l1,-6l-4,1v-1l-1,-3v-1h1l6,-6v-1h2v-1l3,3v-3h-1v-1h1l2,-1v-1l6,-3h2h-1l1,1l6,-3l-2,-6l2,-5l-9,2h-10l-5,-3v-5l-4,-7h1h-1h2v-1h2l2,-2h5h-2v-1h2v-1h3l3,3v1v-1v1l1,1l7,1v1v-1v1l1,-1l3,-1h-1v1l1,-1l-1,-4h1l3,1h1h-1h1l-1,-1h-4l-1,-4l-4,-1l-4,-2l-2,-6v-1l-5,-6l1,-5h7l5,-4v-2l1,-1v-1v1v-1h1v-1v1v-1l3,-3h1h-1h1h-1h1h-1v1ZM250,738h1h-1h1h-1ZM247,734h1l2,2v1v-1v3v-1v2l-1,-1l-1,1v-1h-1v-1v2h1h-2l-1,-1h1v-1h-1v-2v1v-2l1,-1ZM250,743h1v1h-2v-1v1v-1h1ZM248,740l1,1v2h-1v-1l-1,-1v-1h1h-1ZM246,734h-1v1v-1v1v-1h1ZM249,743h0ZM249,743h-1h1ZM247,740h0ZM246,740h1v2h-1h1h-1v-2ZM246,738h0ZM241,733h-1v-1h-1v-1h1h-1h3v2v-1v1v-1v2v-1v1v-1h-1v1ZM236,734v1h1h-1h1v1h1l3,2v1v-1v1v-1v1v-1h-1l1,1l2,1h1h-2l-1,-1v2v-1h2l-1,1l1,-1h1l1,2h-1h1l1,1h-1v1h1v-1v2l-1,2v-1v1v-1v1v-1h-1h1h-2h1l-1,-1v1v-1v1v-1l-1,-1v1v-2v1h-1v-1h-1v1v-1v1l-1,-1h1h-2v-1h2h-2v-2v1v-1v1v-1h-1v1v-1v1v-1h-1v-1v1v-1h1v-1v1v-1h-1v-2h-1l-1,-1v1v-1v1v-1v1v-1h-1ZM246,744h0ZM242,734h1v1h-1h1h-1v-1v1v-1ZM246,744v-1v1ZM242,734h0ZM242,734h0ZM239,732h1v1l1,1v-1h-1h1v1h1h-1l1,1v1h-1l-1,-1h-2v-1l1,-2ZM242,734v1v-1ZM242,734h0ZM244,740h0ZM242,734h-1h1ZM244,740h-1h1ZM238,729h1h-1ZM244,747h0ZM239,729v1h-1v-1ZM239,731v1h-1h1h-1v-1ZM244,747v-1v1ZM239,731h-1v-1h1ZM241,739v-1v1ZM238,731v-1v1ZM235,728l2,1h1v2h-2v-1l-1,-1ZM238,729h-1ZM241,739l-1,-1h1ZM242,746l1,1h-1v-1ZM237,731h1v3h-2v-2ZM242,743h0ZM240,744v1h-1h1l1,1h1v1h1h-2v-1l-2,-1l-1,-1l1,-1ZM241,744h1v2l-1,-1v-2ZM241,746h0ZM241,746h0ZM241,746h0ZM237,735h1h-1ZM237,735h1h-1ZM236,734h1h-1ZM240,743h0ZM240,742h0ZM234,727l1,1v1l1,1l-1,1l-1,-1v-1h-1h1v1l1,1v1h-1l-2,1v-2h-1v-1l-1,-1h-1ZM240,742h-1h1ZM237,734h-1ZM235,731h1h-1ZM240,743h-1h1ZM238,740h0ZM239,742h0ZM239,742h-1h1ZM238,740v1v-1ZM237,743h1v1v-1v2ZM236,738h1v1h-1v-1ZM238,742v1h-1v-1ZM234,729h-1h1ZM234,729h-1h1ZM237,741v1h-1ZM234,735l1,1h1v1h-1l-1,1h-1v-2h1ZM235,739h1h-1l1,1l-2,-1h1ZM236,737h-1v1h1h-1v-1ZM235,737h0ZM235,737v1v-1ZM237,742h-1v1v-1ZM231,724h0ZM236,743h1ZM235,742h1l-1,1ZM229,721l-1,-1h1ZM234,738h0ZM230,731v-1h1v1h1h-1h1v1l-1,1l1,1l-1,1v3l-2,-4h1l1,1l-1,-1h-1v-1h-1h1v-1h-1h1h-1h1h-1l-1,-2l1,1v-1h-1h1h-1h1v-1v1v-1h1l1,1v1v-1v1ZM230,731h0ZM234,738v1v-1ZM220,717h1h-1h1l1,1l2,-1h1v2h1v2v-1h-1v-1h-1h1v-1l-1,1h1v2v-1v1h1l2,3l1,1h-2l1,1l-3,3v-4h-1v-1l1,1v-1h-1l-2,-6h-2v-2ZM230,729h0ZM230,729h-1h1ZM230,731h0ZM229,729h0ZM229,729h0ZM229,729h0ZM229,729h0ZM225,720h1h-1l1,1h-1ZM231,738h0ZM231,738v1v-1ZM229,729h-1h1ZM229,732h0ZM224,717h-2ZM229,732h-1h1ZM228,731h0ZM228,731v-1v1ZM224,732v1l-1,1v-1h1h-1v-1h1h-1h1h-2v-2v1v-1h-1v-2h-2v-2l1,-1h1l4,4l-1,4ZM221,717v-1v1ZM221,716v1h-1v-1ZM215,724h-1v-2l-1,-1v-1h2v-1l3,1v-1v1l-1,1l1,-1h1l2,5h-2l-1,-1l1,1v3v-1v1v-1v1v-1h-1v1v-1l-1,-1h-1v-1h-1v-1v1ZM215,724h0ZM220,716h-1h1ZM220,718h0ZM220,718h-1h1ZM221,728v1h-1v-1ZM216,710h0ZM221,729h0ZM220,729h1h-1h1h-1h1h-1v-1ZM216,717l1,1h-1ZM220,729h0ZM219,728h1v3l-2,-3h1ZM219,728h1v1v-1h-1ZM218,724l1,1l-1,-1ZM215,717h0ZM214,716v1v-1ZM215,717h-1h1h-1h1ZM214,716h0ZM215,719v1h-1v-1h1ZM213,715h0ZM214,716h-1h1ZM214,717l-1,-1h1ZM215,725h1h-1ZM213,715v-1v1ZM213,716h0ZM213,716h0ZM213,716h0ZM215,724v1v-1ZM213,721l1,1v2h-1ZM195,710h-1v-1ZM164,613h0ZM164,613v-1v1ZM157,611l1,-1l-1,1ZM157,611h0ZM157,611h-1h1ZM156,611h0ZM156,611h0ZM171,711h-1h1ZM156,611v1v-1ZM167,709h1h-1ZM167,707h0ZM167,707h0ZM167,707v-1v1ZM167,707h0ZM167,707h0ZM167,707v-1v1ZM167,706v1v-1ZM167,707v-1v1ZM167,707v-1v1ZM167,707h0ZM167,707h0ZM167,707h0ZM167,709h-1h1ZM167,707h0ZM167,706v1h-1v-1v1v-1ZM167,707h0ZM167,707h0ZM166,707h1h-1ZM166,707h0ZM166,707h0ZM166,707h0ZM166,707h0ZM166,707h0ZM166,708v-1v1ZM166,707v1h-1v-1ZM166,709v-1v1ZM166,709h0ZM166,709h0ZM166,709h-1h1ZM165,708h1l-1,1v-1h1ZM162,708h1h-1h1v1l-1,-1h-1ZM162,706v1h-2l2,-1ZM146,610h0ZM156,703h-1ZM146,610h0ZM155,710h-1ZM154,706h0ZM154,706h0ZM144,610h0ZM144,610h0ZM153,704h0ZM152,710v-1v1v-1h1h-1v-1h1v1h-1h1h-1h1v-1v1v-1v1v-1v1l-1,2ZM151,706h1h-1h1h-1ZM152,713h-1v-1h1v1v-1v1h-1ZM151,704v1h-1h1v-1h-1ZM142,610l1,1h-1ZM151,709h1v1h-1v-1v1ZM152,713l-1,1v-1v1v-1h1ZM151,711v2h-1h1h-1h1v-1v1v-1l-1,1v-1v1v-1h1ZM150,706h1h-1h1v1h-1v-1ZM140,610h0ZM140,610h0ZM148,706h0ZM140,610h0ZM140,610h0ZM140,610h0ZM140,610h0ZM140,610h-1h1ZM144,717h0ZM144,717h0ZM144,717h0ZM140,720h0ZM140,720h0ZM140,720h0ZM134,610h-1ZM133,610h1ZM134,610l-1,1v-1ZM138,721v-1ZM131,730v1l-2,3l-1,1h-1l-1,-2l1,-2l1,1v-2h2h-1l1,1v-1l1,1ZM126,735h2l1,1l1,-1v1h1h-1h1h-1v2v-1v1v-1v1v-1v1l1,2l-4,3h-2l-3,4h-1v-2l-3,-6l3,-1h1v2h1l-1,-1v-1l2,-2v1l1,1l-1,-1h1v1v-2h1v-1h-1ZM131,736h0ZM131,736v1v-1ZM131,737h-1v-1h1ZM129,729v-1v1v-1v1v-1h1v2h-1v-1ZM129,730h-1h1ZM129,730h-1h1ZM126,743h1h-2ZM127,735h-1v-2ZM127,735h0ZM127,735h-1h1ZM125,735l1,1h-2ZM125,738h0ZM125,738v-1v1ZM122,739l1,1h-1ZM121,750v-1v1v-1ZM121,747h1h-1h1l-1,1ZM121,749v1ZM118,603h0ZM118,603h0ZM118,603h0ZM107,754h0ZM107,754h0ZM107,754h0ZM106,754h1h-1h1ZM94,755h-1ZM92,764h0ZM93,755l-1,1v-1ZM93,746h0ZM92,764h0ZM93,746v1v-1ZM91,762v1v-1v1v-1h-1h1h-1v-1h1ZM85,760h0ZM85,760l-1,-2ZM83,753h0ZM83,753h0ZM83,753h-1h1ZM95,610h2h-2ZM78,760l1,1h-2v-1v1v-1ZM81,710h1l-1,1v-1ZM73,768h0ZM73,768h0ZM71,759l1,-1ZM68,760v3h1l-10,3l3,-5ZM79,680v1v-1v1l-2,1h-1l-1,-2ZM75,702h-1ZM75,680l1,2v1h1v3l-3,-3h-1v-1l1,-2ZM69,701h1l1,1h1v2h1h-1h1h-1v1h-1l-1,2l-4,-3l3,-2ZM73,683h1v1h-1v-1ZM75,680h-1ZM72,684h1h-1ZM65,710h-2h1h-3l-5,-4h9ZM74,647h1h-1ZM66,696v-1v1ZM50,769v-1v1ZM51,770l-1,1h-1v-1l1,1v-2l1,1v-1ZM73,648h-2ZM48,768v1h1l1,-1v1h-1v2v-1v1v-1v1h1l-5,2h-6l1,-1l6,-1ZM31,776l5,-5l4,1l-1,1l-4,2l-4,1ZM31,776h0ZM35,775h0ZM35,775h0ZM45,668h1l1,1v1ZM31,775h0ZM31,775h0ZM25,775h1ZM26,775h-1h1ZM46,668h0ZM46,668h-1h1ZM0,775l-2,-1v1v-1l-6,-1h5l1,1v-1v1v-1ZM-2,775h0ZM-2,775h0ZM-9,773h0ZM-9,773h-1h1ZM-10,773h0ZM-10,773h-1h1ZM-12,773v1v-1h-1ZM-11,772h-1ZM-13,773h1v1h-1ZM-15,774v-1ZM-15,773v1l-2,-1v-1v1v-1v1v-1ZM-20,772h0ZM-20,772h0Z"/><path class="AKS3" d="M95,611l3,-1h3v1v-1l3,-5l4,1l6,-5v1h1l1,1v2l2,-2l7,3h1l1,3h2l4,1v1l1,-1h1l3,-1h1v1h3v1v-1v1h8l3,2h1l2,-1v-1h1h-1h1l1,-1h1l1,1l3,1l1,1l2,1h2l5,23l1,10l7,35l2,5l3,18l9,-2l12,11l3,-2l3,-9l3,4l21,16l4,5l12,2l3,7l-2,6v1v-1l-4,-3l1,-1v-1h-1v-2l-2,-2h-3v1h-1v1h1h-1h1h-1h1v2v-1v2l-3,-1v-3h1v-1h-1v-3h-2h1h-2v-3v1h-2l-2,-2h-1h1v-1v1v-1l-1,1l-1,-1l-2,-1l1,-1h-1l-1,-1l-1,-2h1l-1,-1v1v-1h-1l-2,-1l-1,-1v-1h-1h1h-3l-1,-1h-1v-1l-1,-1v-2h-2v-1l-1,-1v2h1l1,2v1v-1v1l2,2v1v-1v1h-2l-2,-1v1l-1,-1v-1h-1v-1l-1,-1l1,-1l-1,1v1l-3,-1h-1l4,2v1v-1v1h1v2l-1,1h-1v1l-1,-1l-5,-2l-5,-4h-1l-3,-1l-1,-1h-2v-2h1l-1,-1v-2l-3,3l-6,-1h-8l-6,2h-1v-1l-2,-1l-1,-2v-1h-1v1h-1h1h-1v1v-1h-4h1v-1l-1,-1h-2l-2,-1v-1h-2l-1,1h-1l-1,1h-1v-1h-1v1v-1v1l-2,1h2v1l2,1v1h-1v3v-1v1h-1v1l-5,1v1v-1l-1,2v1v-1v1v-1v1v-1l-1,-2v3l-1,-1l-2,4v-2v2v-2l-2,2v1l-5,2l-1,-2h1h-1l3,-2l1,-1h-3l2,-12l9,-7l-8,3l-8,11h1l-4,5l-4,3v2l4,2l-1,3l-2,3h-1l-1,1h1h-1h1v-1v1h-1h1l-2,2l-2,1h-1l-7,5l-1,1h1v1l-1,1v2h-1l-10,6l-2,3l-1,1h-2h1h-2l-5,2v1h-2l-3,1l-2,-2l-1,3h-1v1l-4,-2v-1v1l-4,4h-1v-3l3,-1l1,-1h1v-1l9,-4h2h-1h1l-1,1h1l9,-7v-1v1v-1l4,-1l5,-7l2,-6l2,-7l-6,3v-5l-4,2l2,3l-8,-4h-3v1v-1l-5,3l2,-6l-3,-10l1,-1h-1l1,-4l-2,6h-9v-1l-1,-4l1,-2h1v-1h1l2,-2h-1h1h-4l-1,-1h-1l1,-6l-4,1v-1l-1,-3v-1h1l6,-6v-1h2v-1l3,3v-3h-1v-1h1l2,-1v-1l6,-3h2h-1l1,1l6,-3l-2,-6l2,-5l-9,2h-10l-5,-3v-5l-4,-7h1h-1h2v-1h2l2,-2h5h-2v-1h2v-1h3l3,3v1v-1v1l1,1l7,1v1v-1v1l1,-1l3,-1h-1v1l1,-1l-1,-4h1l3,1h1h-1h1l-1,-1h-4l-1,-4l-4,-1l-4,-2l-2,-6v-1l-5,-6l1,-5h7l5,-4v-2l1,-1v-1v1v-1h1v-1v1v-1l3,-3h1h-1h1h-1h1h-1v1ZM250,738h1h-1h1h-1ZM247,734h1l2,2v1v-1v3v-1v2l-1,-1l-1,1v-1h-1v-1v2h1h-2l-1,-1h1v-1h-1v-2v1v-2l1,-1ZM250,743h1v1h-2v-1v1v-1h1ZM248,740l1,1v2h-1v-1l-1,-1v-1h1h-1ZM246,734h-1v1v-1v1v-1h1ZM249,743h0ZM249,743h-1h1ZM247,740h0ZM246,740h1v2h-1h1h-1v-2ZM246,738h0ZM241,733h-1v-1h-1v-1h1h-1h3v2v-1v1v-1v2v-1v1v-1h-1v1ZM236,734v1h1h-1h1v1h1l3,2v1v-1v1v-1v1v-1h-1l1,1l2,1h1h-2l-1,-1v2v-1h2l-1,1l1,-1h1l1,2h-1h1l1,1h-1v1h1v-1v2l-1,2v-1v1v-1v1v-1h-1h1h-2h1l-1,-1v1v-1v1v-1l-1,-1v1v-2v1h-1v-1h-1v1v-1v1l-1,-1h1h-2v-1h2h-2v-2v1v-1v1v-1h-1v1v-1v1v-1h-1v-1v1v-1h1v-1v1v-1h-1v-2h-1l-1,-1v1v-1v1v-1v1v-1h-1ZM246,744h0ZM242,734h1v1h-1h1h-1v-1v1v-1ZM246,744v-1v1ZM242,734h0ZM242,734h0ZM239,732h1v1l1,1v-1h-1h1v1h1h-1l1,1v1h-1l-1,-1h-2v-1l1,-2ZM242,734v1v-1ZM242,734h0ZM244,740h0ZM242,734h-1h1ZM244,740h-1h1ZM238,729h1h-1ZM244,747h0ZM239,729v1h-1v-1ZM239,731v1h-1h1h-1v-1ZM244,747v-1v1ZM239,731h-1v-1h1ZM241,739v-1v1ZM238,731v-1v1ZM235,728l2,1h1v2h-2v-1l-1,-1ZM238,729h-1ZM241,739l-1,-1h1ZM242,746l1,1h-1v-1ZM237,731h1v3h-2v-2ZM242,743h0ZM240,744v1h-1h1l1,1h1v1h1h-2v-1l-2,-1l-1,-1l1,-1ZM241,744h1v2l-1,-1v-2ZM241,746h0ZM241,746h0ZM241,746h0ZM237,735h1h-1ZM237,735h1h-1ZM236,734h1h-1ZM240,743h0ZM240,742h0ZM234,727l1,1v1l1,1l-1,1l-1,-1v-1h-1h1v1l1,1v1h-1l-2,1v-2h-1v-1l-1,-1h-1ZM240,742h-1h1ZM237,734h-1ZM235,731h1h-1ZM240,743h-1h1ZM238,740h0ZM239,742h0ZM239,742h-1h1ZM238,740v1v-1ZM237,743h1v1v-1v2ZM236,738h1v1h-1v-1ZM238,742v1h-1v-1ZM234,729h-1h1ZM234,729h-1h1ZM237,741v1h-1ZM234,735l1,1h1v1h-1l-1,1h-1v-2h1ZM235,739h1h-1l1,1l-2,-1h1ZM236,737h-1v1h1h-1v-1ZM235,737h0ZM235,737v1v-1ZM237,742h-1v1v-1ZM231,724h0ZM236,743h1ZM235,742h1l-1,1ZM229,721l-1,-1h1ZM234,738h0ZM230,731v-1h1v1h1h-1h1v1l-1,1l1,1l-1,1v3l-2,-4h1l1,1l-1,-1h-1v-1h-1h1v-1h-1h1h-1h1h-1l-1,-2l1,1v-1h-1h1h-1h1v-1v1v-1h1l1,1v1v-1v1ZM230,731h0ZM234,738v1v-1ZM220,717h1h-1h1l1,1l2,-1h1v2h1v2v-1h-1v-1h-1h1v-1l-1,1h1v2v-1v1h1l2,3l1,1h-2l1,1l-3,3v-4h-1v-1l1,1v-1h-1l-2,-6h-2v-2ZM230,729h0ZM230,729h-1h1ZM230,731h0ZM229,729h0ZM229,729h0ZM229,729h0ZM229,729h0ZM225,720h1h-1l1,1h-1ZM231,738h0ZM231,738v1v-1ZM229,729h-1h1ZM229,732h0ZM224,717h-2ZM229,732h-1h1ZM228,731h0ZM228,731v-1v1ZM224,732v1l-1,1v-1h1h-1v-1h1h-1h1h-2v-2v1v-1h-1v-2h-2v-2l1,-1h1l4,4l-1,4ZM221,717v-1v1ZM221,716v1h-1v-1ZM215,724h-1v-2l-1,-1v-1h2v-1l3,1v-1v1l-1,1l1,-1h1l2,5h-2l-1,-1l1,1v3v-1v1v-1v1v-1h-1v1v-1l-1,-1h-1v-1h-1v-1v1ZM215,724h0ZM220,716h-1h1ZM220,718h0ZM220,718h-1h1ZM221,728v1h-1v-1ZM216,710h0ZM221,729h0ZM220,729h1h-1h1h-1h1h-1v-1ZM216,717l1,1h-1ZM220,729h0ZM219,728h1v3l-2,-3h1ZM219,728h1v1v-1h-1ZM218,724l1,1l-1,-1ZM215,717h0ZM214,716v1v-1ZM215,717h-1h1h-1h1ZM214,716h0ZM215,719v1h-1v-1h1ZM213,715h0ZM214,716h-1h1ZM214,717l-1,-1h1ZM215,725h1h-1ZM213,715v-1v1ZM213,716h0ZM213,716h0ZM213,716h0ZM215,724v1v-1ZM213,721l1,1v2h-1ZM195,710h-1v-1ZM164,613h0ZM164,613v-1v1ZM157,611l1,-1l-1,1ZM157,611h0ZM157,611h-1h1ZM156,611h0ZM156,611h0ZM171,711h-1h1ZM156,611v1v-1ZM167,709h1h-1ZM167,707h0ZM167,707h0ZM167,707v-1v1ZM167,707h0ZM167,707h0ZM167,707v-1v1ZM167,706v1v-1ZM167,707v-1v1ZM167,707v-1v1ZM167,707h0ZM167,707h0ZM167,707h0ZM167,709h-1h1ZM167,707h0ZM167,706v1h-1v-1v1v-1ZM167,707h0ZM167,707h0ZM166,707h1h-1ZM166,707h0ZM166,707h0ZM166,707h0ZM166,707h0ZM166,707h0ZM166,708v-1v1ZM166,707v1h-1v-1ZM166,709v-1v1ZM166,709h0ZM166,709h0ZM166,709h-1h1ZM165,708h1l-1,1v-1h1ZM162,708h1h-1h1v1l-1,-1h-1ZM162,706v1h-2l2,-1ZM146,610h0ZM156,703h-1ZM146,610h0ZM155,710h-1ZM154,706h0ZM154,706h0ZM144,610h0ZM144,610h0ZM153,704h0ZM152,710v-1v1v-1h1h-1v-1h1v1h-1h1h-1h1v-1v1v-1v1v-1v1l-1,2ZM151,706h1h-1h1h-1ZM152,713h-1v-1h1v1v-1v1h-1ZM151,704v1h-1h1v-1h-1ZM142,610l1,1h-1ZM151,709h1v1h-1v-1v1ZM152,713l-1,1v-1v1v-1h1ZM151,711v2h-1h1h-1h1v-1v1v-1l-1,1v-1v1v-1h1ZM150,706h1h-1h1v1h-1v-1ZM140,610h0ZM140,610h0ZM148,706h0ZM140,610h0ZM140,610h0ZM140,610h0ZM140,610h0ZM140,610h-1h1ZM144,717h0ZM144,717h0ZM144,717h0ZM140,720h0ZM140,720h0ZM140,720h0ZM134,610h-1ZM133,610h1ZM134,610l-1,1v-1ZM138,721v-1ZM131,730v1l-2,3l-1,1h-1l-1,-2l1,-2l1,1v-2h2h-1l1,1v-1l1,1ZM126,735h2l1,1l1,-1v1h1h-1h1h-1v2v-1v1v-1v1v-1v1l1,2l-4,3h-2l-3,4h-1v-2l-3,-6l3,-1h1v2h1l-1,-1v-1l2,-2v1l1,1l-1,-1h1v1v-2h1v-1h-1ZM131,736h0ZM131,736v1v-1ZM131,737h-1v-1h1ZM129,729v-1v1v-1v1v-1h1v2h-1v-1ZM129,730h-1h1ZM129,730h-1h1ZM126,743h1h-2ZM127,735h-1v-2ZM127,735h0ZM127,735h-1h1ZM125,735l1,1h-2ZM125,738h0ZM125,738v-1v1ZM122,739l1,1h-1ZM121,750v-1v1v-1ZM121,747h1h-1h1l-1,1ZM121,749v1ZM118,603h0ZM118,603h0ZM118,603h0ZM107,754h0ZM107,754h0ZM107,754h0ZM106,754h1h-1h1ZM94,755h-1ZM92,764h0ZM93,755l-1,1v-1ZM93,746h0ZM92,764h0ZM93,746v1v-1ZM91,762v1v-1v1v-1h-1h1h-1v-1h1ZM85,760h0ZM85,760l-1,-2ZM83,753h0ZM83,753h0ZM83,753h-1h1ZM95,610h2h-2ZM78,760l1,1h-2v-1v1v-1ZM81,710h1l-1,1v-1ZM73,768h0ZM73,768h0ZM71,759l1,-1ZM68,760v3h1l-10,3l3,-5ZM79,680v1v-1v1l-2,1h-1l-1,-2ZM75,702h-1ZM75,680l1,2v1h1v3l-3,-3h-1v-1l1,-2ZM69,701h1l1,1h1v2h1h-1h1h-1v1h-1l-1,2l-4,-3l3,-2ZM73,683h1v1h-1v-1ZM75,680h-1ZM72,684h1h-1ZM65,710h-2h1h-3l-5,-4h9ZM74,647h1h-1ZM66,696v-1v1ZM50,769v-1v1ZM51,770l-1,1h-1v-1l1,1v-2l1,1v-1ZM73,648h-2ZM48,768v1h1l1,-1v1h-1v2v-1v1v-1v1h1l-5,2h-6l1,-1l6,-1ZM31,776l5,-5l4,1l-1,1l-4,2l-4,1ZM31,776h0ZM35,775h0ZM35,775h0ZM45,668h1l1,1v1ZM31,775h0ZM31,775h0ZM25,775h1ZM26,775h-1h1ZM46,668h0ZM46,668h-1h1ZM0,775l-2,-1v1v-1l-6,-1h5l1,1v-1v1v-1ZM-2,775h0ZM-2,775h0ZM-9,773h0ZM-9,773h-1h1ZM-10,773h0ZM-10,773h-1h1ZM-12,773v1v-1h-1ZM-11,772h-1ZM-13,773h1v1h-1ZM-15,774v-1ZM-15,773v1l-2,-1v-1v1v-1v1v-1ZM-20,772h0ZM-20,772h0Z"/><path class="WAS1" d="M123,50v-2l1,-1h1l1,1l3,-1l-3,-5h-1v-1l1,-7l32,9l29,7l26,6l18,5l-5,21l-6,30l-5,18v15l-40,-10h-10l-20,2l-4,-3l-12,1l-5,-5l-8,-1l-9,2l-2,-2l-5,-3l1,-14l-5,-4l-1,1h-1v-1h-1v-1l-1,-1v-1l-1,-1h-3l-6,-2v-1h-1l2,-6v3l1,-1v-2l2,-5l-1,-7v1h1l1,-1h3h-1l-4,-4v-23l-2,-2v-9l2,-6l3,2l8,8l7,3l5,3h5l6,5v1l3,3l-2,5l-2,2v2h1v3l-1,1v1l-1,1v1l-2,2l-1,-1v-2l-1,3l-1,1l-1,-3l1,-2l-1,1h-1h1h-1l-2,2v1l1,1h1l1,1l2,1l2,-2l2,-3l4,1l1,-7v1v-1l1,-6l5,-4v-1l-1,-5l-2,3v-11h-1ZM124,51l1,3l-3,7h3h-4l-1,-7l3,-4l1,1v-1ZM117,80v-1l1,-1v-1l1,-1ZM119,73v1v-1h-1v-2l2,-2ZM126,47h-2v-1l1,-1ZM114,81l1,1v1h-1ZM125,42l1,1v1h-1v-3ZM113,84h1l-1,1ZM113,82l1,1h-2ZM113,84h-2l1,-1h1ZM122,44h-3h1h-1v-1h-1v-1v1v-1l1,-1ZM123,42h0ZM122,45v1h-1v-1ZM123,42h0ZM121,46h1h-1v1h1h-1ZM120,47h1h-3l1,-2h1ZM111,79l1,-1l-1,1ZM120,47h1ZM110,80v3h-1v-3l1,-1h1v1ZM109,83l-1,-1v-1h1ZM119,43v2v-1h1v1h-2v-2v1v-1ZM116,42h1v1l1,1v3l-3,-4v-1v1v-1ZM118,45h0ZM118,45h0ZM117,42h1v1h-1v-1h1ZM115,40h1v1l-1,-1ZM92,107v-1v1h1v1h1h-1l-1,-1v-1ZM89,83h1h-1ZM84,95h-1h1v2l-1,1v-3ZM86,84l1,-1l-1,1Z"/><path class="WAS3" d="M123,50v-2l1,-1h1l1,1l3,-1l-3,-5h-1v-1l1,-7l32,9l29,7l26,6l18,5l-5,21l-6,30l-5,18v15l-40,-10h-10l-20,2l-4,-3l-12,1l-5,-5l-8,-1l-9,2l-2,-2l-5,-3l1,-14l-5,-4l-1,1h-1v-1h-1v-1l-1,-1v-1l-1,-1h-3l-6,-2v-1h-1l2,-6v3l1,-1v-2l2,-5l-1,-7v1h1l1,-1h3h-1l-4,-4v-23l-2,-2v-9l2,-6l3,2l8,8l7,3l5,3h5l6,5v1l3,3l-2,5l-2,2v2h1v3l-1,1v1l-1,1v1l-2,2l-1,-1v-2l-1,3l-1,1l-1,-3l1,-2l-1,1h-1h1h-1l-2,2v1l1,1h1l1,1l2,1l2,-2l2,-3l4,1l1,-7v1v-1l1,-6l5,-4v-1l-1,-5l-2,3v-11h-1ZM124,51l1,3l-3,7h3h-4l-1,-7l3,-4l1,1v-1ZM117,80v-1l1,-1v-1l1,-1ZM119,73v1v-1h-1v-2l2,-2ZM126,47h-2v-1l1,-1ZM114,81l1,1v1h-1ZM125,42l1,1v1h-1v-3ZM113,84h1l-1,1ZM113,82l1,1h-2ZM113,84h-2l1,-1h1ZM122,44h-3h1h-1v-1h-1v-1v1v-1l1,-1ZM123,42h0ZM122,45v1h-1v-1ZM123,42h0ZM121,46h1h-1v1h1h-1ZM120,47h1h-3l1,-2h1ZM111,79l1,-1l-1,1ZM120,47h1ZM110,80v3h-1v-3l1,-1h1v1ZM109,83l-1,-1v-1h1ZM119,43v2v-1h1v1h-2v-2v1v-1ZM116,42h1v1l1,1v3l-3,-4v-1v1v-1ZM118,45h0ZM118,45h0ZM117,42h1v1h-1v-1h1ZM115,40h1v1l-1,-1ZM92,107v-1v1h1v1h1h-1l-1,-1v-1ZM89,83h1h-1ZM84,95h-1h1v2l-1,1v-3ZM86,84l1,-1l-1,1Z"/><path class="ORS2" d="M86,105l1,1v-1v1h1l1,-1h2v1h1v1l2,2h1l1,-1l5,4l-1,14l5,3l2,2l9,-2l8,1l5,5l12,-1l4,3l20,-2h10l40,10l1,5l4,3l1,5l-11,15l-1,1l1,-1l-1,1l-10,11v6l5,5l-5,10l-6,31l-5,19l-38,-8l-24,-7l-17,-4l-13,-4l-16,-4l-16,-6l-23,-5v-1l-2,-10l3,-6l-1,-10l4,-3l3,-8l5,-1v1v-1v1l1,-1h-1h1h-1l-1,-3l5,-6l1,1v-1h-1l3,-6h1h-1l2,-10l9,-19l4,-12l3,-6h1h-1l1,-8l3,-4ZM95,109h-1ZM92,106h-1v-1h1ZM91,105h1h-1ZM90,105v-1h1ZM90,105h0ZM90,105v-1v1ZM90,104v1h-1v-1ZM89,105h-1ZM88,105h1l-1,1v-1ZM88,104h1h-1ZM88,105h-1h1h-1ZM88,104h0ZM86,105h1h-1ZM86,105h0ZM86,105h0ZM82,101v1v-1h-1ZM58,171l-1,-1h1ZM54,179h-1h1ZM53,180v-1h1ZM54,179h-1h1ZM53,179h0ZM53,179h0Z"/><path class="ORS3" d="M86,105l1,1v-1v1h1l1,-1h2v1h1v1l2,2h1l1,-1l5,4l-1,14l5,3l2,2l9,-2l8,1l5,5l12,-1l4,3l20,-2h10l40,10l1,5l4,3l1,5l-11,15l-1,1l1,-1l-1,1l-10,11v6l5,5l-5,10l-6,31l-5,19l-38,-8l-24,-7l-17,-4l-13,-4l-16,-4l-16,-6l-23,-5v-1l-2,-10l3,-6l-1,-10l4,-3l3,-8l5,-1v1v-1v1l1,-1h-1h1h-1l-1,-3l5,-6l1,1v-1h-1l3,-6h1h-1l2,-10l9,-19l4,-12l3,-6h1h-1l1,-8l3,-4ZM95,109h-1ZM92,106h-1v-1h1ZM91,105h1h-1ZM90,105v-1h1ZM90,105h0ZM90,105v-1v1ZM90,104v1h-1v-1ZM89,105h-1ZM88,105h1l-1,1v-1ZM88,104h1h-1ZM88,105h-1h1h-1ZM88,104h0ZM86,105h1h-1ZM86,105h0ZM86,105h0ZM82,101v1v-1h-1ZM58,171l-1,-1h1ZM54,179h-1h1ZM53,180v-1h1ZM54,179h-1h1ZM53,179h0ZM53,179h0Z"/><path class="NVS1" d="M249,269l-6,35l-3,10l-6,36l-5,20l-4,26l-3,15l-3,11l-1,11l-4,4l-4,-4h-6l-3,1v1v-1v6l-1,1v19l-2,5l-23,-35l-28,-42l-11,-15l-5,-9l-10,-14l-12,-19l-4,-5l6,-26l15,-59l24,7l38,8l35,8Z"/><path class="NVS3" d="M249,269l-6,35l-3,10l-6,36l-5,20l-4,26l-3,15l-3,11l-1,11l-4,4l-4,-4h-6l-3,1v1v-1v6l-1,1v19l-2,5l-23,-35l-28,-42l-11,-15l-5,-9l-10,-14l-12,-19l-4,-5l6,-26l15,-59l24,7l38,8l35,8Z"/><path class="HIS1" d="M391,738l6,4h5l7,4l2,7l7,5v3l-8,5h-5l-7,5l-2,5l-6,-4v-10l-4,-7v-4l6,-7ZM371,716l3,4l7,-2l6,5v2l-7,3h-5v-4l-7,-4ZM353,710l14,2l-2,3l-14,-1ZM360,718l5,5l-4,1ZM342,707l-6,1l-2,-2l-4,2l-5,-8h5l4,-4l3,7ZM336,708h0ZM334,706h0ZM296,681l2,3l-2,7l-10,-3l3,-5Z"/><path class="HIS3" d="M391,738l6,4h5l7,4l2,7l7,5v3l-8,5h-5l-7,5l-2,5l-6,-4v-10l-4,-7v-4l6,-7ZM371,716l3,4l7,-2l6,5v2l-7,3h-5v-4l-7,-4ZM353,710l14,2l-2,3l-14,-1ZM360,718l5,5l-4,1ZM342,707l-6,1l-2,-2l-4,2l-5,-8h5l4,-4l3,7ZM336,708h0ZM334,706h0ZM296,681l2,3l-2,7l-10,-3l3,-5Z"/><path class="MTS1" d="M475,98l-1,24l-3,23v12l-3,28l-2,27l-11,-1l-24,-3h-7l-42,-5l-50,-7l-7,-2l-2,15l-6,-8l-3,3v2l-4,-1h-3l-4,-1h-3l-2,-1h-1l-1,2l-7,-2l-5,1l-2,-11l-5,-2v-4l1,-2l-4,-7v-6l-1,-2l-2,-5l-4,3h-2l-6,-1v-1v1v-1l1,-2v-4l4,-1l-1,-6v-3l4,-7l2,-7l-8,-2l-2,-6v-1l-6,-11l-7,-6v-1v1v-1h2v-1v1v-1l-2,-10h1h-1h1l-3,-8l6,-25l18,4l12,2l57,11l15,2l69,9Z"/><path class="MTS2" d="M475,98l-1,24l-3,23v12l-3,28l-2,27l-11,-1l-24,-3h-7l-42,-5l-50,-7l-7,-2l-2,15l-6,-8l-3,3v2l-4,-1h-3l-4,-1h-3l-2,-1h-1l-1,2l-7,-2l-5,1l-2,-11l-5,-2v-4l1,-2l-4,-7v-6l-1,-2l-2,-5l-4,3h-2l-6,-1v-1v1v-1l1,-2v-4l4,-1l-1,-6v-3l4,-7l2,-7l-8,-2l-2,-6v-1l-6,-11l-7,-6v-1v1v-1h2v-1v1v-1l-2,-10h1h-1h1l-3,-8l6,-25l18,4l12,2l57,11l15,2l69,9Z"/><path class="IDS2" d="M250,65l-6,25l3,8h-1h1h-1l2,10v1v-1v1h-2v1v-1v1l7,6l6,11v1l2,6l8,2l-2,7l-4,7v3l1,6l-4,1v4l-1,2v1v-1v1l6,1h2l4,-3l2,5l1,2v6l4,7l-1,2v4l5,2l2,11l5,-1l7,2l1,-2h1l2,1h3l4,1h3l4,1v-2l3,-3l6,8l-3,14l-2,18l-5,25l-2,13l-34,-5l-28,-5l-26,-5l-35,-8l5,-19l6,-31l5,-10l-5,-5v-6l10,-11l1,-1l-1,1l1,-1l11,-15l-1,-5l-4,-3l-1,-5v-15l5,-18l6,-30l5,-21Z"/><path class="IDS3" d="M250,65l-6,25l3,8h-1h1h-1l2,10v1v-1v1h-2v1v-1v1l7,6l6,11v1l2,6l8,2l-2,7l-4,7v3l1,6l-4,1v4l-1,2v1v-1v1l6,1h2l4,-3l2,5l1,2v6l4,7l-1,2v4l5,2l2,11l5,-1l7,2l1,-2h1l2,1h3l4,1h3l4,1v-2l3,-3l6,8l-3,14l-2,18l-5,25l-2,13l-34,-5l-28,-5l-26,-5l-35,-8l5,-19l6,-31l5,-10l-5,-5v-6l10,-11l1,-1l-1,1l1,-1l11,-15l-1,-5l-4,-3l-1,-5v-15l5,-18l6,-30l5,-21Z"/><path class="UTS1" d="M311,279v6l-4,19v4l42,7l-2,21l-4,21l-5,34v10l-4,28l-50,-7l-27,-5l-17,-3l-18,-3l3,-15l4,-26l5,-20l6,-36l3,-10l6,-35l28,5Z"/><path class="UTS3" d="M311,279v6l-4,19v4l42,7l-2,21l-4,21l-5,34v10l-4,28l-50,-7l-27,-5l-17,-3l-18,-3l3,-15l4,-26l5,-20l6,-36l3,-10l6,-35l28,5Z"/><path class="AZS1" d="M334,429l-3,15v7l-3,14l-4,35l-3,15l-3,29l-6,35l-1,12l-48,-7l-83,-49l3,-6h5v-1v1v-1l2,-7l-3,-1v-11h2l5,-7v-7l3,-2l4,-4l4,-1l-5,-7v-5l-2,-11l2,-5v-19l1,-1v-6v1v-1l3,-1h6l4,4l4,-4l1,-11l3,-11l18,3l17,3l27,5Z"/><path class="AZS3" d="M334,429l-3,15v7l-3,14l-4,35l-3,15l-3,29l-6,35l-1,12l-48,-7l-83,-49l3,-6h5v-1v1v-1l2,-7l-3,-1v-11h2l5,-7v-7l3,-2l4,-4l4,-1l-5,-7v-5l-2,-11l2,-5v-19l1,-1v-6v1v-1l3,-1h6l4,4l4,-4l1,-11l3,-11l18,3l17,3l27,5Z"/><path class="NDS1" d="M604,105v2h1h-1h1v4h1h-1h1l1,3l-1,1v1v-1v7v-1v4v-1v2v-1v2l-1,1l3,10h1h-1h1v2h1h-1h1v2v-1v1l1,4v9v-1v2h1h-1h1h-1h1v1h-1h1h-1h1h-1v1h1h-1h1v1h-1h1h-1h1h-1v1h1h-1h1h-1h1h-1v2l2,2h-1h1h-1v3v-1v6l1,2v1v-1v2l1,1v1l3,9l-1,5l-3,-1h-33l-64,-2l-33,-3l-15,-1l3,-28v-12l3,-23l1,-24l35,3l61,3Z"/><path class="NDS3" d="M604,105v2h1h-1h1v4h1h-1h1l1,3l-1,1v1v-1v7v-1v4v-1v2v-1v2l-1,1l3,10h1h-1h1v2h1h-1h1v2v-1v1l1,4v9v-1v2h1h-1h1h-1h1v1h-1h1h-1h1h-1v1h1h-1h1v1h-1h1h-1h1h-1v1h1h-1h1h-1h1h-1v2l2,2h-1h1h-1v3v-1v6l1,2v1v-1v2l1,1v1l3,9l-1,5l-3,-1h-33l-64,-2l-33,-3l-15,-1l3,-28v-12l3,-23l1,-24l35,3l61,3Z"/><path class="WYS1" d="M466,212l-5,57l-4,39l-1,18l-46,-4l-30,-4l-31,-3l-42,-7v-4l4,-19v-6l2,-13l5,-25l2,-18l3,-14l2,-15l7,2l50,7l42,5h7l24,3Z"/><path class="WYS2" d="M466,212l-5,57l-4,39l-1,18l-46,-4l-30,-4l-31,-3l-42,-7v-4l4,-19v-6l2,-13l5,-25l2,-18l3,-14l2,-15l7,2l50,7l42,5h7l24,3Z"/><path class="COS2" d="M456,326l26,3h16l-2,29l-1,26l-1,1v32l-2,28l-22,-2l-43,-3l-23,-2l-24,-4l-46,-5l4,-28v-10l5,-34l4,-21l2,-21l31,3l30,4Z"/><path class="COS3" d="M456,326l26,3h16l-2,29l-1,26l-1,1v32l-2,28l-22,-2l-43,-3l-23,-2l-24,-4l-46,-5l4,-28v-10l5,-34l4,-21l2,-21l31,3l30,4Z"/><path class="NMS1" d="M470,443l-1,15l-2,8l-1,23l-3,29v11l-2,11l-2,25v9l-2,13l-35,-3l-50,-5l2,6l-41,-4l-2,13l-20,-3l1,-12l6,-35l3,-29l3,-15l4,-35l3,-14v-7l3,-15l46,5l24,4l23,2Z"/><path class="NMS2" d="M470,443l-1,15l-2,8l-1,23l-3,29v11l-2,11l-2,25v9l-2,13l-35,-3l-50,-5l2,6l-41,-4l-2,13l-20,-3l1,-12l6,-35l3,-29l3,-15l4,-35l3,-14v-7l3,-15l46,5l24,4l23,2Z"/><path class="TXS1" d="M588,736l1,1v3l3,10l-1,1h1h-1h1v1l-1,1l2,2v2l3,5v1l-1,1l1,-1h1l-2,1h1l-1,1h1l1,-1v-1h1l-6,6l-10,-7h-11l-6,-5h-6l-3,-4l-8,-1v-3l-5,-12h-2l-3,-20l-9,-5l-4,-10l-4,-2l-3,-9l-7,-12v-6l-3,-4l-11,-8l-3,-7l-16,-2l-4,-2l-4,2h-7l-13,21l-8,-2l-8,-7l-7,-2l-3,-5l-5,-2l-6,-11v-11l-3,-3l-1,-7l-11,-8l-11,-16l-7,-4l-3,-8l-3,-2l-2,-6l50,5l35,3l2,-13v-9l2,-25l2,-11v-11l3,-29l1,-23l2,-8l68,4l-1,6v20l-1,4v22l7,9l2,-1l3,1v1v-1v1h1v-1v1v-1l1,-1l2,1l3,5h1v1v-1v1h3l3,1h5l4,3l5,-2l4,-1l3,6l4,3v-1v1v-1h6l4,2v-1v1v-1h1l3,5l3,-4l1,-3l11,5l6,1l5,-3h7l6,-1h6l4,-1v1v-1h1v1h-1h1v-1v1l3,1v1v-1l1,1h-1h1l2,2h2v1v-1v1l3,1v-1v1v-1l1,1v1v-1v1h1h-1h2l1,1h1v1v-1l1,1h-1h2l1,-1h1l5,1v44l2,3h1l1,2h1h-1h1v1l1,8l3,3l1,2l1,3h1h-1h1v1v-1v1l1,1v3v-1v3l1,3h-1h1h-1l-1,4l-2,5l-1,5v2v-1v1h-1h1h-1h1h-1h1h-1h1h-1h1l1,7v1v-1v1l-5,7l2,3v1h-6l-10,5l-6,-2l1,-5l-4,-1l-3,3h-1l-1,-1v1v-1l-1,-1h-1h1l1,1v1h1v7l3,4h-1l-6,6v1h1h-1l-7,7l-13,4l-2,3l-8,4l8,-4h-4l-1,-1h-9h1l-1,-1l4,7l-5,2l-1,1l-5,-4l2,6h-1v1h-1v1h-1v1h-1l1,-1l-1,1l-4,5l-1,1v1v-1l-2,3h-1l-6,-2l4,5l2,1l-3,7l-1,3l-8,1l6,1l1,4v1v-1v1v-1l-1,1h1v2h-3ZM588,736l1,1l-1,-1ZM650,677l5,-5l1,-2h2l1,-1ZM658,669h1l-1,1l-1,-1h1h-1ZM657,669h1h-1ZM654,661l-1,-2h1ZM651,657h-1ZM650,677h-1v-1v1ZM618,696l1,-1ZM613,699l4,-2v-1v1l1,-1l-12,10h-1v-2l2,-2h3l2,-2ZM617,696h1ZM617,697h0ZM605,706h1l-5,5v1v-2l3,-3ZM598,716v-1v1ZM598,716v-1l1,-2l1,-1h1h-1h1l-3,4l-1,2ZM601,712h-1l1,-1ZM597,763l1,-1v1ZM598,713h-1ZM592,739l1,5v1l1,1h-1v-2h-1h1h-1v-2ZM592,739v-10l1,-5l2,-4l2,-2l-5,13ZM594,746v2l1,2l-2,-1l1,-1v-1l-1,-1v-1v1h1h-1h1v1ZM597,713h-1h1ZM596,764h0ZM596,765h0ZM596,765v-1v1ZM595,753v-1h1ZM596,764h-1h1ZM596,752h-1v-1ZM592,751h0ZM592,751h-1h1h-1ZM591,740h-1v-1h1ZM590,739v1l-1,-1v1v-1Z"/><path class="TXS2" d="M588,736l1,1v3l3,10l-1,1h1h-1h1v1l-1,1l2,2v2l3,5v1l-1,1l1,-1h1l-2,1h1l-1,1h1l1,-1v-1h1l-6,6l-10,-7h-11l-6,-5h-6l-3,-4l-8,-1v-3l-5,-12h-2l-3,-20l-9,-5l-4,-10l-4,-2l-3,-9l-7,-12v-6l-3,-4l-11,-8l-3,-7l-16,-2l-4,-2l-4,2h-7l-13,21l-8,-2l-8,-7l-7,-2l-3,-5l-5,-2l-6,-11v-11l-3,-3l-1,-7l-11,-8l-11,-16l-7,-4l-3,-8l-3,-2l-2,-6l50,5l35,3l2,-13v-9l2,-25l2,-11v-11l3,-29l1,-23l2,-8l68,4l-1,6v20l-1,4v22l7,9l2,-1l3,1v1v-1v1h1v-1v1v-1l1,-1l2,1l3,5h1v1v-1v1h3l3,1h5l4,3l5,-2l4,-1l3,6l4,3v-1v1v-1h6l4,2v-1v1v-1h1l3,5l3,-4l1,-3l11,5l6,1l5,-3h7l6,-1h6l4,-1v1v-1h1v1h-1h1v-1v1l3,1v1v-1l1,1h-1h1l2,2h2v1v-1v1l3,1v-1v1v-1l1,1v1v-1v1h1h-1h2l1,1h1v1v-1l1,1h-1h2l1,-1h1l5,1v44l2,3h1l1,2h1h-1h1v1l1,8l3,3l1,2l1,3h1h-1h1v1v-1v1l1,1v3v-1v3l1,3h-1h1h-1l-1,4l-2,5l-1,5v2v-1v1h-1h1h-1h1h-1h1h-1h1h-1h1l1,7v1v-1v1l-5,7l2,3v1h-6l-10,5l-6,-2l1,-5l-4,-1l-3,3h-1l-1,-1v1v-1l-1,-1h-1h1l1,1v1h1v7l3,4h-1l-6,6v1h1h-1l-7,7l-13,4l-2,3l-8,4l8,-4h-4l-1,-1h-9h1l-1,-1l4,7l-5,2l-1,1l-5,-4l2,6h-1v1h-1v1h-1v1h-1l1,-1l-1,1l-4,5l-1,1v1v-1l-2,3h-1l-6,-2l4,5l2,1l-3,7l-1,3l-8,1l6,1l1,4v1v-1v1v-1l-1,1h1v2h-3ZM588,736l1,1l-1,-1ZM650,677l5,-5l1,-2h2l1,-1ZM658,669h1l-1,1l-1,-1h1h-1ZM657,669h1h-1ZM654,661l-1,-2h1ZM651,657h-1ZM650,677h-1v-1v1ZM618,696l1,-1ZM613,699l4,-2v-1v1l1,-1l-12,10h-1v-2l2,-2h3l2,-2ZM617,696h1ZM617,697h0ZM605,706h1l-5,5v1v-2l3,-3ZM598,716v-1v1ZM598,716v-1l1,-2l1,-1h1h-1h1l-3,4l-1,2ZM601,712h-1l1,-1ZM597,763l1,-1v1ZM598,713h-1ZM592,739l1,5v1l1,1h-1v-2h-1h1h-1v-2ZM592,739v-10l1,-5l2,-4l2,-2l-5,13ZM594,746v2l1,2l-2,-1l1,-1v-1l-1,-1v-1v1h1h-1h1v1ZM597,713h-1h1ZM596,764h0ZM596,765h0ZM596,765v-1v1ZM595,753v-1h1ZM596,764h-1h1ZM596,752h-1v-1ZM592,751h0ZM592,751h-1h1h-1ZM591,740h-1v-1h1ZM590,739v1l-1,-1v1v-1Z"/><path class="SDS2" d="M616,192l-1,5l-4,3l3,7l5,3v21l-1,1v29h-3l1,6v1v-1v1l2,7l-2,5v1v-1v1l-1,2h-1h1h-1l2,2v1v-1v1l2,4h-1h1h-1l-4,-4l-13,-6h-1v-1v1v-1l-5,1l-5,-1l-4,3l-7,-4l-2,-3l-51,-1l-44,-3l-20,-2l5,-57l2,-27l15,1l33,3l64,2h33Z"/><path class="SDS3" d="M616,192l-1,5l-4,3l3,7l5,3v21l-1,1v29h-3l1,6v1v-1v1l2,7l-2,5v1v-1v1l-1,2h-1h1h-1l2,2v1v-1v1l2,4h-1h1h-1l-4,-4l-13,-6h-1v-1v1v-1l-5,1l-5,-1l-4,3l-7,-4l-2,-3l-51,-1l-44,-3l-20,-2l5,-57l2,-27l15,1l33,3l64,2h33Z"/><path class="NES1" d="M578,278l7,4l4,-3l5,1l5,-1v1v-1v1h1l13,6l4,4h1l2,1v9l3,4l2,1l1,14l3,1l1,5v1v-1l-1,1h1h-1l1,2v1v-1v1l1,14l2,2l1,2v1v-1v1l4,7l5,8h-28v-1v1v-1h-36l-61,-2l-22,-2l2,-29h-16l-26,-3l1,-18l4,-39l20,2l44,3l51,1Z"/><path class="NES2" d="M578,278l7,4l4,-3l5,1l5,-1v1v-1v1h1l13,6l4,4h1l2,1v9l3,4l2,1l1,14l3,1l1,5v1v-1l-1,1h1h-1l1,2v1v-1v1l1,14l2,2l1,2v1v-1v1l4,7l5,8h-28v-1v1v-1h-36l-61,-2l-22,-2l2,-29h-16l-26,-3l1,-18l4,-39l20,2l44,3l51,1Z"/><path class="KSS2" d="M615,362v1v-1v1h28l7,2l2,3l-1,2l-1,1l-2,4l4,8l5,3h1h-1h2v63h-81l-35,-1l-13,-1h-14l-24,-2l2,-28v-32l1,-1l1,-26l22,2l61,2Z"/><path class="KSS3" d="M615,362v1v-1v1h28l7,2l2,3l-1,2l-1,1l-2,4l4,8l5,3h1h-1h2v63h-81l-35,-1l-13,-1h-14l-24,-2l2,-28v-32l1,-1l1,-26l22,2l61,2Z"/><path class="OKS2" d="M659,449l1,14l2,20l2,6v57h-2h1h-1v-1v1v-1l-1,-1v1v-1v1l-3,-1v-1v1v-1h-2l-2,-2h-1h1l-1,-1v1v-1l-3,-1v-1v1h-1h1v-1h-1v1v-1l-4,1h-6l-6,1h-7l-5,3l-6,-1l-11,-5l-1,3l-3,4l-3,-5h-1v1v-1v1l-4,-2h-6v1v-1v1l-4,-3l-3,-6l-4,1l-5,2l-4,-3h-5l-3,-1h-3v-1v1v-1h-1l-3,-5l-2,-1l-1,1v1v-1v1h-1v-1v1v-1l-3,-1l-2,1l-7,-9v-22l1,-4v-20l1,-6l-68,-4l1,-15l22,2l24,2h14l13,1l35,1Z"/><path class="OKS3" d="M659,449l1,14l2,20l2,6v57h-2h1h-1v-1v1v-1l-1,-1v1v-1v1l-3,-1v-1v1v-1h-2l-2,-2h-1h1l-1,-1v1v-1l-3,-1v-1v1h-1h1v-1h-1v1v-1l-4,1h-6l-6,1h-7l-5,3l-6,-1l-11,-5l-1,3l-3,4l-3,-5h-1v1v-1v1l-4,-2h-6v1v-1v1l-4,-3l-3,-6l-4,1l-5,2l-4,-3h-5l-3,-1h-3v-1v1v-1h-1l-3,-5l-2,-1l-1,1v1v-1v1h-1v-1v1v-1l-3,-1l-2,1l-7,-9v-22l1,-4v-20l1,-6l-68,-4l1,-15l22,2l24,2h14l13,1l35,1Z"/><path class="LAS2" d="M757,672h-1v1v-1l-2,-1l1,-1h1h-1h1l1,-1h-4l-1,1v1l-2,-1l-1,-1v-2l-3,-5h-7l-2,-7l-7,2l1,-3l-9,3l5,2l-1,2l-5,1l-14,-2l-9,-4l-16,2v1v-1l-2,-3l5,-7v-1v1v-1l-1,-7h-1h1h-1h1h-1h1h-1h1h-1h1v-1v1v-2l1,-5l2,-5l1,-4h1h-1h1l-1,-3v-3v1v-3l-1,-1v-1v1v-1h-1h1h-1l-1,-3l-1,-2l-3,-3l-1,-8v-1h-1h1h-1l-1,-2h-1l-2,-3v-29h38l30,-1l3,1l-2,6l3,4l-1,1v1v-1l1,3l4,3l-2,2l-2,3l-1,4l-1,-1l1,1l-6,9h1h-1l-4,9l-1,13l27,-2l19,-1l1,1h-1h1h-1v3v-1v1h-1h1h-1v1h1h-1h1h-1v1v-1v2v-1l-1,1h1h-1h1h-1h1v1h-1v1v-1v1l3,5v1v-1v1v-1v1l3,6h1h-1h1l1,2h1h-1l-7,7l5,3l5,-6v1l1,2h-1l1,1v-1v1l1,-1l1,1v1h-1v1h-1l1,1h-2l-1,-1v1v-1v1h1h-1l1,1v1l1,1h-2l-1,-1v-1v1h-1l-1,1h1h-1h2v1h-2v1l-1,1h-1h1h-1l1,1h1h-1l1,1h1l1,1v-1v3h4l2,1l6,5l-1,5l-4,-1v-5l-5,1l-3,-5h-1l-4,-1l-1,-1v1v-1h-2h1h-1h1h-3l-3,-3v-2l-2,5l5,1h-1l1,2v2h1h-2l1,3l-5,2l-1,-1v-1l-2,-2l-1,1v1v-1l-3,-1h-2v2h1h-1h1h-2v1l-1,2h-3v1v-1h-1ZM776,666h0ZM777,665h0ZM786,656h1v1h-1ZM790,647h0ZM800,668h0ZM793,643v-1h2v1h1l-1,1l-1,-1h-1ZM794,647h0ZM794,647h-1v1v-1ZM794,647h0ZM793,648h0ZM793,648v1v-1ZM793,649h0ZM793,649h-1h1ZM792,650h0ZM792,650h-1h1ZM791,644v1v-1ZM791,644h-1ZM791,645h-1v-1h1h-1h1ZM790,647h0ZM788,654h1h-1ZM788,662h1h-1ZM788,653h0ZM788,659h-1h1h-1v-1h1ZM788,660v-1v1ZM788,660v-1v1ZM788,653v1v-1ZM787,654v-1v1h1ZM787,653v1v-1ZM787,653v1h-1ZM786,663h1l-5,2h1ZM786,657v1v-1ZM786,659h0ZM786,659h0ZM786,658h0ZM785,658v-1h1v1ZM786,657h-1ZM786,657h-1h1ZM786,658h-1h1ZM785,657h0ZM785,657h0ZM785,657h0ZM785,657h0ZM785,657h0ZM785,657h0ZM785,657h-1h1ZM782,665v-1v1v-1l1,1ZM782,664h0ZM782,664h0ZM782,664h0ZM782,664h-1h1ZM781,665h-1h1h-1ZM781,664h0ZM781,664h0ZM780,665h1h-1ZM778,667h1h-1ZM778,667v1v-1ZM778,662h-1v-1h-1h1v1l1,-1v1ZM778,663v1v-1ZM778,663v1h-1v-1h1h-1ZM776,660l1,1h-1ZM777,662h0ZM777,662h0ZM777,665v1v-1ZM770,671l-1,1v-1ZM767,669h1h-1h1ZM758,673v-1ZM758,672v1h-2v-1v1l1,-1v1v-1ZM757,673h-1ZM755,670h-1v1v-1h1h-1h1ZM754,670v-1v2v-1v1h-2v-1l1,-1ZM752,670h0ZM752,670v1v-1ZM748,667h1v2l1,1ZM746,662h-1v1v-1ZM726,661l1,-2l8,2l-4,3Z"/><path class="LAS3" d="M757,672h-1v1v-1l-2,-1l1,-1h1h-1h1l1,-1h-4l-1,1v1l-2,-1l-1,-1v-2l-3,-5h-7l-2,-7l-7,2l1,-3l-9,3l5,2l-1,2l-5,1l-14,-2l-9,-4l-16,2v1v-1l-2,-3l5,-7v-1v1v-1l-1,-7h-1h1h-1h1h-1h1h-1h1h-1h1v-1v1v-2l1,-5l2,-5l1,-4h1h-1h1l-1,-3v-3v1v-3l-1,-1v-1v1v-1h-1h1h-1l-1,-3l-1,-2l-3,-3l-1,-8v-1h-1h1h-1l-1,-2h-1l-2,-3v-29h38l30,-1l3,1l-2,6l3,4l-1,1v1v-1l1,3l4,3l-2,2l-2,3l-1,4l-1,-1l1,1l-6,9h1h-1l-4,9l-1,13l27,-2l19,-1l1,1h-1h1h-1v3v-1v1h-1h1h-1v1h1h-1h1h-1v1v-1v2v-1l-1,1h1h-1h1h-1h1v1h-1v1v-1v1l3,5v1v-1v1v-1v1l3,6h1h-1h1l1,2h1h-1l-7,7l5,3l5,-6v1l1,2h-1l1,1v-1v1l1,-1l1,1v1h-1v1h-1l1,1h-2l-1,-1v1v-1v1h1h-1l1,1v1l1,1h-2l-1,-1v-1v1h-1l-1,1h1h-1h2v1h-2v1l-1,1h-1h1h-1l1,1h1h-1l1,1h1l1,1v-1v3h4l2,1l6,5l-1,5l-4,-1v-5l-5,1l-3,-5h-1l-4,-1l-1,-1v1v-1h-2h1h-1h1h-3l-3,-3v-2l-2,5l5,1h-1l1,2v2h1h-2l1,3l-5,2l-1,-1v-1l-2,-2l-1,1v1v-1l-3,-1h-2v2h1h-1h1h-2v1l-1,2h-3v1v-1h-1ZM776,666h0ZM777,665h0ZM786,656h1v1h-1ZM790,647h0ZM800,668h0ZM793,643v-1h2v1h1l-1,1l-1,-1h-1ZM794,647h0ZM794,647h-1v1v-1ZM794,647h0ZM793,648h0ZM793,648v1v-1ZM793,649h0ZM793,649h-1h1ZM792,650h0ZM792,650h-1h1ZM791,644v1v-1ZM791,644h-1ZM791,645h-1v-1h1h-1h1ZM790,647h0ZM788,654h1h-1ZM788,662h1h-1ZM788,653h0ZM788,659h-1h1h-1v-1h1ZM788,660v-1v1ZM788,660v-1v1ZM788,653v1v-1ZM787,654v-1v1h1ZM787,653v1v-1ZM787,653v1h-1ZM786,663h1l-5,2h1ZM786,657v1v-1ZM786,659h0ZM786,659h0ZM786,658h0ZM785,658v-1h1v1ZM786,657h-1ZM786,657h-1h1ZM786,658h-1h1ZM785,657h0ZM785,657h0ZM785,657h0ZM785,657h0ZM785,657h0ZM785,657h0ZM785,657h-1h1ZM782,665v-1v1v-1l1,1ZM782,664h0ZM782,664h0ZM782,664h0ZM782,664h-1h1ZM781,665h-1h1h-1ZM781,664h0ZM781,664h0ZM780,665h1h-1ZM778,667h1h-1ZM778,667v1v-1ZM778,662h-1v-1h-1h1v1l1,-1v1ZM778,663v1v-1ZM778,663v1h-1v-1h1h-1ZM776,660l1,1h-1ZM777,662h0ZM777,662h0ZM777,665v1v-1ZM770,671l-1,1v-1ZM767,669h1h-1h1ZM758,673v-1ZM758,672v1h-2v-1v1l1,-1v1v-1ZM757,673h-1ZM755,670h-1v1v-1h1h-1h1ZM754,670v-1v2v-1v1h-2v-1l1,-1ZM752,670h0ZM752,670v1v-1ZM748,667h1v2l1,1ZM746,662h-1v1v-1ZM726,661l1,-2l8,2l-4,3Z"/><path class="MNS1" d="M753,129l-1,1h-2l-5,4l-16,7l-10,12l-12,10l-2,4v1h1h-1v-1h-1l-1,1h-1v2h-1v17l-3,2l-5,4l-3,8l5,3l-2,4v15l4,6l12,5l3,6l13,9l2,10h-1h1h-1l-56,2h-52v-29l1,-1v-21l-5,-3l-3,-7l4,-3l2,-10l-3,-9v-1l-1,-1v-2v1v-1l-1,-2v-6v1v-3h1h-1h1l-2,-2v-2h1h-1h1h-1h1h-1v-1h1h-1h1h-1h1v-1h-1h1h-1v-1h1h-1h1h-1h1v-1h-1h1h-1h1h-1v-2v1v-9l-1,-4v-1v1v-2h-1h1h-1v-2h-1h1h-1l-3,-10l1,-1v-2v1v-2v1v-4v1v-7v1v-1l1,-1l-1,-3h-1h1h-1v-4h-1h1h-1v-2h40v-11l7,4l2,13l9,4h8v3l6,-1l5,-3l5,1l9,4l2,7l2,-4l17,8l11,-7l2,5l14,-1l2,3Z"/><path class="MNS2" d="M753,129l-1,1h-2l-5,4l-16,7l-10,12l-12,10l-2,4v1h1h-1v-1h-1l-1,1h-1v2h-1v17l-3,2l-5,4l-3,8l5,3l-2,4v15l4,6l12,5l3,6l13,9l2,10h-1h1h-1l-56,2h-52v-29l1,-1v-21l-5,-3l-3,-7l4,-3l2,-10l-3,-9v-1l-1,-1v-2v1v-1l-1,-2v-6v1v-3h1h-1h1l-2,-2v-2h1h-1h1h-1h1h-1v-1h1h-1h1h-1h1v-1h-1h1h-1v-1h1h-1h1h-1h1v-1h-1h1h-1h1h-1v-2v1v-9l-1,-4v-1v1v-2h-1h1h-1v-2h-1h1h-1l-3,-10l1,-1v-2v1v-2v1v-4v1v-7v1v-1l1,-1l-1,-3h-1h1h-1v-4h-1h1h-1v-2h40v-11l7,4l2,13l9,4h8v3l6,-1l5,-3l5,1l9,4l2,7l2,-4l17,8l11,-7l2,5l14,-1l2,3Z"/><path class="IAS2" d="M726,259h1l3,6l-2,9l3,7l7,2l2,4l5,4v3l6,3v10l-3,7l-7,4l-8,1l-1,6l4,2v6l-3,8l-5,1l-1,7h-2v-1v1v-1l-6,-5l-53,3h-29l-4,-1l-2,-2l-1,-14v-1v1v-1l-1,-2h1h-1l1,-1v1v-1l-1,-5l-3,-1l-1,-14l-2,-1l-3,-4v-9l-2,-1h-1h1l-2,-4v-1v1v-1l-2,-2h1h-1h1l1,-2v-1v1v-1l2,-5l-2,-7v-1v1v-1l-1,-6h55Z"/><path class="IAS3" d="M726,259h1l3,6l-2,9l3,7l7,2l2,4l5,4v3l6,3v10l-3,7l-7,4l-8,1l-1,6l4,2v6l-3,8l-5,1l-1,7h-2v-1v1v-1l-6,-5l-53,3h-29l-4,-1l-2,-2l-1,-14v-1v1v-1l-1,-2h1h-1l1,-1v1v-1l-1,-5l-3,-1l-1,-14l-2,-1l-3,-4v-9l-2,-1h-1h1l-2,-4v-1v1v-1l-2,-2h1h-1h1l1,-2v-1v1v-1l2,-5l-2,-7v-1v1v-1l-1,-6h55Z"/><path class="MOS1" d="M725,348v1v-1v1h2h-1l-1,9l4,11l10,9l5,3l2,11l4,-3l8,3l-1,7l-4,7v4l4,4l9,5l8,5l2,8v8l8,4l-1,12l-5,2l-1,1h-1h1h-2h1l-3,7l2,3l-3,4l-15,1l7,-11h-1h1h-1l-1,-1v-2l-64,3h-38l-1,-14v-63h-2h1h-1l-5,-3l-4,-8l2,-4l1,-1l1,-2l-2,-3l-7,-2l-5,-8l-4,-7v-1v1v-1l-1,-2l4,1h29l53,-3Z"/><path class="MOS3" d="M725,348v1v-1v1h2h-1l-1,9l4,11l10,9l5,3l2,11l4,-3l8,3l-1,7l-4,7v4l4,4l9,5l8,5l2,8v8l8,4l-1,12l-5,2l-1,1h-1h1h-2h1l-3,7l2,3l-3,4l-15,1l7,-11h-1h1h-1l-1,-1v-2l-64,3h-38l-1,-14v-63h-2h1h-1l-5,-3l-4,-8l2,-4l1,-1l1,-2l-2,-3l-7,-2l-5,-8l-4,-7v-1v1v-1l-1,-2l4,1h29l53,-3Z"/><path class="ARS2" d="M762,462l1,1h1h-1h1l-7,11l15,-1l1,4v-1v1v-1l-3,8l-4,3l-1,4h-2h2l-1,2v6l-4,4v4l-3,-1l-2,6v1v-1v9l-6,3v4l-3,5l-1,10l-3,4v1v-1l2,1v1h-1v1v-1v1h1v-2v6h1l-2,8l-30,1h-38v-15l-5,-1h-1l-1,1h-2h1l-1,-1v1v-1h-1l-1,-1v-57l-2,-6l-2,-20h38l64,-3Z"/><path class="ARS3" d="M762,462l1,1h1h-1h1l-7,11l15,-1l1,4v-1v1v-1l-3,8l-4,3l-1,4h-2h2l-1,2v6l-4,4v4l-3,-1l-2,6v1v-1v9l-6,3v4l-3,5l-1,10l-3,4v1v-1l2,1v1h-1v1v-1v1h1v-2v6h1l-2,8l-30,1h-38v-15l-5,-1h-1l-1,1h-2h1l-1,-1v1v-1h-1l-1,-1v-57l-2,-6l-2,-20h38l64,-3Z"/><path class="MSS1" d="M809,500l2,2v33h-1v63l2,8l1,16l2,10l-4,1v-1h-1l-1,1h-6l-10,3l-5,4h-1l-1,-2h-1h1h-1l-3,-6v-1v1v-1v1v-1l-3,-5v-1v1v-1h1v-1h-1h1h-1h1h-1l1,-1v1v-2v1v-1h1h-1h1h-1v-1h1h-1h1v-1v1v-3h1h-1h1l-1,-1l-19,1l-27,2l1,-13l4,-9h1h-1l6,-9l-1,-1l1,1l1,-4l2,-3l2,-2l-4,-3l-1,-3v1v-1l1,-1l-3,-4l2,-6l-3,-1l2,-8h-1v-6v2h-1v-1v1v-1h1v-1l-2,-1v1v-1l3,-4l1,-10l3,-5v-4l6,-3v-9v1v-1l2,-6l3,1v-4l35,-3ZM810,632h1h-1v1h1h-1ZM810,633h-1Z"/><path class="MSS2" d="M809,500l2,2v33h-1v63l2,8l1,16l2,10l-4,1v-1h-1l-1,1h-6l-10,3l-5,4h-1l-1,-2h-1h1h-1l-3,-6v-1v1v-1v1v-1l-3,-5v-1v1v-1h1v-1h-1h1h-1h1h-1l1,-1v1v-2v1v-1h1h-1h1h-1v-1h1h-1h1v-1v1v-3h1h-1h1l-1,-1l-19,1l-27,2l1,-13l4,-9h1h-1l6,-9l-1,-1l1,1l1,-4l2,-3l2,-2l-4,-3l-1,-3v1v-1l1,-1l-3,-4l2,-6l-3,-1l2,-8h-1v-6v2h-1v-1v1v-1h1v-1l-2,-1v1v-1l3,-4l1,-10l3,-5v-4l6,-3v-9v1v-1l2,-6l3,1v-4l35,-3ZM810,632h1h-1v1h1h-1ZM810,633h-1Z"/><path class="WIS1" d="M810,201v-1v1ZM810,201h0ZM730,160l1,2v5l7,4h1h-1h2l1,1h1l1,3h1h-1h1v2l22,4l6,3h5l1,1h2l6,1l2,4h1l2,2v9h-1h1h-1h1l3,-1v7l3,1v1l-5,4l-2,12l5,-3l2,-6l5,-1v-5l7,-9l-4,14l-5,11l1,9l-3,2v14l-3,6l1,12l3,5v9l-59,4l-2,-4l-7,-2l-3,-7l2,-9l-3,-6h-1h1l-2,-10l-13,-9l-3,-6l-12,-5l-4,-6v-15l2,-4l-5,-3l3,-8l5,-4l3,-2v-17h1l1,-1v-1v1v-1v1v-1l1,-1h1v1v-1h-1h1v1h1l10,-1l13,-7ZM803,206h0ZM803,206h0ZM732,160h0ZM732,160h-2Z"/><path class="WIS3" d="M810,201v-1v1ZM810,201h0ZM730,160l1,2v5l7,4h1h-1h2l1,1h1l1,3h1h-1h1v2l22,4l6,3h5l1,1h2l6,1l2,4h1l2,2v9h-1h1h-1h1l3,-1v7l3,1v1l-5,4l-2,12l5,-3l2,-6l5,-1v-5l7,-9l-4,14l-5,11l1,9l-3,2v14l-3,6l1,12l3,5v9l-59,4l-2,-4l-7,-2l-3,-7l2,-9l-3,-6h-1h1l-2,-10l-13,-9l-3,-6l-12,-5l-4,-6v-15l2,-4l-5,-3l3,-8l5,-4l3,-2v-17h1l1,-1v-1v1v-1v1v-1l1,-1h1v1v-1h-1h1v1h1l10,-1l13,-7ZM803,206h0ZM803,206h0ZM732,160h0ZM732,160h-2Z"/><path class="ILS2" d="M799,283v7l4,5l4,10l1,17l2,11l1,24h1v17l-1,1l1,-1l-1,1v3l3,8l1,2l-3,9l-4,7h-1v1v-1v1l-1,1l1,2l-2,4l-1,4l1,2h1v1l-3,3l3,6l-8,2l-2,5l2,5l-10,-3h-1h1h-1l-5,6l2,1l-8,-4v-8l-2,-8l-8,-5l-9,-5l-4,-4v-4l4,-7l1,-7l-8,-3l-4,3l-2,-11l-5,-3l-10,-9l-4,-11l1,-9h1l1,-7l5,-1l3,-8v-6l-4,-2l1,-6l8,-1l7,-4l3,-7v-10l-6,-3v-3l-5,-4Z"/><path class="ILS3" d="M799,283v7l4,5l4,10l1,17l2,11l1,24h1v17l-1,1l1,-1l-1,1v3l3,8l1,2l-3,9l-4,7h-1v1v-1v1l-1,1l1,2l-2,4l-1,4l1,2h1v1l-3,3l3,6l-8,2l-2,5l2,5l-10,-3h-1h1h-1l-5,6l2,1l-8,-4v-8l-2,-8l-8,-5l-9,-5l-4,-4v-4l4,-7l1,-7l-8,-3l-4,3l-2,-11l-5,-3l-10,-9l-4,-11l1,-9h1l1,-7l5,-1l3,-8v-6l-4,-2l1,-6l8,-1l7,-4l3,-7v-10l-6,-3v-3l-5,-4Z"/><path class="KYS2" d="M880,373l4,1l3,7h8l5,4l2,-3l9,2l6,-6l1,6l6,3v1l1,7l3,4l1,2l2,2l3,4v1v-1v1h3v1v-1v1l3,1v1v-1v1h1v-1v1v-1h1v1l-11,10v1v-1v1l-6,6v1v-1v1l-6,8l-12,6l-21,2l-15,1l-4,1l-25,1l-29,4l-5,-1l1,5l-31,2l5,-2l1,-12l-2,-1l5,-6h1h-1h1l10,3l-2,-5l2,-5l8,-2l-3,-6l3,-3v-1v1l2,-4l5,2h1h-1h1l1,-3h6l4,2l8,-5h1h-1h1l3,3l4,-7l4,1h1h-1h7l1,-7l5,-2v-4l4,-3l-1,-6l6,1l8,-4l-2,-9h1ZM777,459h-2h2Z"/><path class="KYS3" d="M880,373l4,1l3,7h8l5,4l2,-3l9,2l6,-6l1,6l6,3v1l1,7l3,4l1,2l2,2l3,4v1v-1v1h3v1v-1v1l3,1v1v-1v1h1v-1v1v-1h1v1l-11,10v1v-1v1l-6,6v1v-1v1l-6,8l-12,6l-21,2l-15,1l-4,1l-25,1l-29,4l-5,-1l1,5l-31,2l5,-2l1,-12l-2,-1l5,-6h1h-1h1l10,3l-2,-5l2,-5l8,-2l-3,-6l3,-3v-1v1l2,-4l5,2h1h-1h1l1,-3h6l4,2l8,-5h1h-1h1l3,3l4,-7l4,1h1h-1h7l1,-7l5,-2v-4l4,-3l-1,-6l6,1l8,-4l-2,-9h1ZM777,459h-2h2Z"/><path class="TNS1" d="M907,443l29,-4l17,-3v1l-1,4v2v-1v1l-1,1l-4,7h-6v1v-1v1l-7,6l-7,1l1,1v1v-1v1l-13,10l-5,1l-6,5l-2,5l-4,2v7l-29,3l-33,3l-27,3h-14l-35,3l4,-4v-6l1,-2h-2h2l1,-4l4,-3l3,-8v1v-1v1l-1,-4l3,-4l-2,-3l3,-7h-1h2h-1h1l1,-1l31,-2l-1,-5l5,1l29,-4l25,-1l4,-1l15,-1Z"/><path class="TNS2" d="M907,443l29,-4l17,-3v1l-1,4v2v-1v1l-1,1l-4,7h-6v1v-1v1l-7,6l-7,1l1,1v1v-1v1l-13,10l-5,1l-6,5l-2,5l-4,2v7l-29,3l-33,3l-27,3h-14l-35,3l4,-4v-6l1,-2h-2h2l1,-4l4,-3l3,-8v1v-1v1l-1,-4l3,-4l-2,-3l3,-7h-1h2h-1h1l1,-1l31,-2l-1,-5l5,1l29,-4l25,-1l4,-1l15,-1Z"/><path class="ALS2" d="M869,494l4,15l3,7l10,38l2,7l4,6v5l-2,8l2,10l1,12l3,4l-30,4l-20,1l-13,2v5l6,4v6h1l-1,1l-1,2l-1,1v1h-1l-5,2l-5,-6v-7h-1v-1l-1,1v1l-3,10l-3,-1h-3l-2,-10l-1,-16l-2,-8v-63h1v-33l-2,-2l27,-3ZM826,624l-1,-1v-1h1ZM825,622v1v-1h-1v1v-1l1,-1Z"/><path class="ALS3" d="M869,494l4,15l3,7l10,38l2,7l4,6v5l-2,8l2,10l1,12l3,4l-30,4l-20,1l-13,2v5l6,4v6h1l-1,1l-1,2l-1,1v1h-1l-5,2l-5,-6v-7h-1v-1l-1,1v1l-3,10l-3,-1h-3l-2,-10l-1,-16l-2,-8v-63h1v-33l-2,-2l27,-3ZM826,624l-1,-1v-1h1ZM825,622v1v-1h-1v1v-1l1,-1Z"/><path class="MIS1" d="M884,200h1l-4,3l5,6v11l-4,3v6l-6,4v8l7,1l3,-5v-2l2,-5l5,-3l6,2l3,4l5,20l2,2v12h-3l-4,1l-1,8l-1,1l-3,4v4v-1v3l-5,8l-27,5v-2l-43,5l4,-4l2,-9l4,-8v-12l-7,-18l-3,-3l2,-4l-2,-10l4,-7v-9l3,-4l-1,-4l6,-2l4,-6l-1,10l2,-2l3,-1l-1,-11l4,-3l2,-12l6,-1l4,3h7l2,3l15,4ZM906,269v-1h1v-1h2l-3,2v-1ZM905,268h1h-1ZM906,268h0ZM906,268v-1v1ZM906,267h1v1h-1v1v-1ZM906,268h-1v-1ZM901,276l-1,1l1,-1ZM898,284h-1v-3l1,2ZM897,286h0ZM886,200h0ZM886,200h-1h1ZM870,176h-1l3,-3l-1,-1l4,-1v5h-1h1h-5ZM870,176h-1h1ZM875,176h0ZM874,176h0ZM871,173h0ZM871,173h0ZM870,176h0ZM869,173v-1v1ZM869,173v-1v1ZM772,149l2,3l1,1v1l1,1v8l3,-5l9,-1l5,3l3,5h1l1,3l8,-1l5,1h2v-1l13,-7h8l5,-4h5v8h12l3,-2v1h1v1l1,2l1,3h-1v1l7,6h-8h1h-2v1v-1v1h1h-2v-1h1h-1h1h-6l-2,5l-8,-5h-8l-2,4l-13,2l-5,9l1,-5l-5,-1l-8,7l-6,16l-3,-1v-7l-3,1h-1h1h-1h1v-9l-2,-2h-1l-2,-4l-6,-1h-2l-1,-1h-5l-6,-3l-22,-4v-2h-1h1h-1l-1,-3h-1l-1,-1h-2h1h-1l8,-4l2,-3l10,-3l4,-4l5,-1ZM862,166v3l-1,-3ZM862,166l-2,-2v-1h-1v-1ZM861,170v-1h1ZM860,176l1,1h-2h1v-1h-1h1ZM847,184h0ZM847,184h-1h1ZM846,184h0ZM846,184h0ZM839,211h0ZM813,167v1h-2ZM797,165h-1h1ZM787,141l-2,5l-5,3l-4,7v-1l-1,-1v-1l-1,-1l-2,-3l11,-8ZM770,124l1,-1l1,1h-1v1l-4,3h-1l-1,2h-1l-5,2v-1h1h-1l11,-7ZM772,124h0ZM772,124h-1h1ZM770,124v-1h1h-1ZM764,130h1h-1ZM759,132h0ZM759,132v-1v1Z"/><path class="MIS2" d="M884,200h1l-4,3l5,6v11l-4,3v6l-6,4v8l7,1l3,-5v-2l2,-5l5,-3l6,2l3,4l5,20l2,2v12h-3l-4,1l-1,8l-1,1l-3,4v4v-1v3l-5,8l-27,5v-2l-43,5l4,-4l2,-9l4,-8v-12l-7,-18l-3,-3l2,-4l-2,-10l4,-7v-9l3,-4l-1,-4l6,-2l4,-6l-1,10l2,-2l3,-1l-1,-11l4,-3l2,-12l6,-1l4,3h7l2,3l15,4ZM906,269v-1h1v-1h2l-3,2v-1ZM905,268h1h-1ZM906,268h0ZM906,268v-1v1ZM906,267h1v1h-1v1v-1ZM906,268h-1v-1ZM901,276l-1,1l1,-1ZM898,284h-1v-3l1,2ZM897,286h0ZM886,200h0ZM886,200h-1h1ZM870,176h-1l3,-3l-1,-1l4,-1v5h-1h1h-5ZM870,176h-1h1ZM875,176h0ZM874,176h0ZM871,173h0ZM871,173h0ZM870,176h0ZM869,173v-1v1ZM869,173v-1v1ZM772,149l2,3l1,1v1l1,1v8l3,-5l9,-1l5,3l3,5h1l1,3l8,-1l5,1h2v-1l13,-7h8l5,-4h5v8h12l3,-2v1h1v1l1,2l1,3h-1v1l7,6h-8h1h-2v1v-1v1h1h-2v-1h1h-1h1h-6l-2,5l-8,-5h-8l-2,4l-13,2l-5,9l1,-5l-5,-1l-8,7l-6,16l-3,-1v-7l-3,1h-1h1h-1h1v-9l-2,-2h-1l-2,-4l-6,-1h-2l-1,-1h-5l-6,-3l-22,-4v-2h-1h1h-1l-1,-3h-1l-1,-1h-2h1h-1l8,-4l2,-3l10,-3l4,-4l5,-1ZM862,166v3l-1,-3ZM862,166l-2,-2v-1h-1v-1ZM861,170v-1h1ZM860,176l1,1h-2h1v-1h-1h1ZM847,184h0ZM847,184h-1h1ZM846,184h0ZM846,184h0ZM839,211h0ZM813,167v1h-2ZM797,165h-1h1ZM787,141l-2,5l-5,3l-4,7v-1l-1,-1v-1l-1,-1l-2,-3l11,-8ZM770,124l1,-1l1,1h-1v1l-4,3h-1l-1,2h-1l-5,2v-1h1h-1l11,-7ZM772,124h0ZM772,124h-1h1ZM770,124v-1h1h-1ZM764,130h1h-1ZM759,132h0ZM759,132v-1v1Z"/><path class="INS1" d="M865,300l2,12l4,35v9l2,18h1h-1l2,9l-8,4l-6,-1l1,6l-4,3v4l-5,2l-1,7h-7h1h-1l-4,-1l-4,7l-3,-3h-1h1h-1l-8,5l-4,-2h-6l-1,3h-1h1h-1l-5,-2l-2,4v-1v1v-1h-1l-1,-2l1,-4l2,-4l-1,-2l1,-1v-1v1v-1h1l4,-7l3,-9l-1,-2l-3,-8v-3l1,-1l-1,1l1,-1v-17h-1l-1,-24l-2,-11l-1,-17l7,2l8,-4l43,-5Z"/><path class="INS3" d="M865,300l2,12l4,35v9l2,18h1h-1l2,9l-8,4l-6,-1l1,6l-4,3v4l-5,2l-1,7h-7h1h-1l-4,-1l-4,7l-3,-3h-1h1h-1l-8,5l-4,-2h-6l-1,3h-1h1h-1l-5,-2l-2,4v-1v1v-1h-1l-1,-2l1,-4l2,-4l-1,-2l1,-1v-1v1v-1h1l4,-7l3,-9l-1,-2l-3,-8v-3l1,-1l-1,1l1,-1v-17h-1l-1,-24l-2,-11l-1,-17l7,2l8,-4l43,-5Z"/><path class="WVS1" d="M960,317l4,26l22,-3l3,14v-1v1v-1l3,-4h1l1,-1v-1v1v-1l2,-2h3h-1h1l2,-5l1,-1l-1,1h1v-1v1h7l1,-2l1,-1l5,-2l6,3v1v-1l1,1h-1h1l3,5l-1,5l-13,-7v9l-3,5v1l-3,2l-2,5l-3,-1l-3,7l-1,5l-9,-2h-1h1h-1v1h1h-1h1l-1,3v2l-2,7l-1,5l-5,7l1,8l-5,1l-8,7l-13,3l-1,1l-8,-2h-1h1h-1v-1h-1h1h-1v-1h1h-1h1h-1h1l-2,-1v-1v1v-1l1,-1h-1v-1v1v-1h-1v1v-1v1h-1v-1v1v-1l-3,-1v-1v1v-1h-3v-1v1v-1l-3,-4l-2,-2l-1,-2l-3,-4l-1,-7v-1v1l6,-2l3,-5v-11h7v-8l5,-7h6l6,-7v-10l2,-8v-12Z"/><path class="WVS2" d="M960,317l4,26l22,-3l3,14v-1v1v-1l3,-4h1l1,-1v-1v1v-1l2,-2h3h-1h1l2,-5l1,-1l-1,1h1v-1v1h7l1,-2l1,-1l5,-2l6,3v1v-1l1,1h-1h1l3,5l-1,5l-13,-7v9l-3,5v1l-3,2l-2,5l-3,-1l-3,7l-1,5l-9,-2h-1h1h-1v1h1h-1h1l-1,3v2l-2,7l-1,5l-5,7l1,8l-5,1l-8,7l-13,3l-1,1l-8,-2h-1h1h-1v-1h-1h1h-1v-1h1h-1h1h-1h1l-2,-1v-1v1v-1l1,-1h-1v-1v1v-1h-1v1v-1v1h-1v-1v1v-1l-3,-1v-1v1v-1h-3v-1v1v-1l-3,-4l-2,-2l-1,-2l-3,-4l-1,-7v-1v1l6,-2l3,-5v-11h7v-8l5,-7h6l6,-7v-10l2,-8v-12Z"/><path class="VAS1" d="M1087,369l-1,2v1l-2,2l2,-2v-1ZM1086,371v1v-1v1l-1,1h-1v1v-1h1ZM1077,379l1,-1h1l1,-5h-1h1l4,-3v3l-1,1h1l-2,9l1,1h-1v-1v2v-1v1l-1,1h1v2h-1v-2l-2,2l-1,2v7l-3,-2v-9l2,-4v-3ZM1083,384l-1,1v1h-1l1,-1v-1ZM1082,388v2h-1v-2h1v-1ZM1081,392v-2h1l-1,1ZM1081,391l-1,1v-1ZM1080,396h-1h1h-1h1v-1v1v-1ZM1080,393h-1ZM1078,391v1h1v1h-1v-3l1,1ZM1079,393h-1h1v4v-1h-1v-3ZM1068,399h1l2,4l-8,-2v-2l-16,-2h1h-1l15,3v4l17,1l2,6l2,3h-1h1h-1v-1l1,1l-1,-1v-1l-1,-1l-1,3h1h-1l-1,1l-19,3l-47,10l-30,5l-23,3h-7v1v-1l-17,3l-29,4l12,-6l6,-8v-1v1v-1l6,-6v-1v1v-1l11,-10v-1v1v-1v1h1l-1,1v1v-1v1l2,1h-1h1h-1h1h-1v1h1h-1h1v1h1h-1h1l8,2l1,-1l13,-3l8,-7l5,-1l-1,-8l5,-7l1,-5l2,-7v-2l1,-3h-1h1h-1v-1h1h-1h1l9,2l1,-5l3,-7l3,1l2,-5l3,-2v-1l3,-5v-9l13,7l1,-5l6,1l-1,3l9,4v-1v1v-1l1,1l2,1h1h-1h1v5l-1,1v1l-1,2l-2,7l4,-1l3,-1l2,5l5,1l5,3l8,2l-1,8l-1,1l3,2l2,4l-3,3v1l1,2h1h-1h1ZM1069,399h-1ZM1078,399h0ZM1078,399h0ZM1073,378h0ZM1073,378h0ZM1071,375h0ZM1047,397h1h-1Z"/><path class="VAS2" d="M1087,369l-1,2v1l-2,2l2,-2v-1ZM1086,371v1v-1v1l-1,1h-1v1v-1h1ZM1077,379l1,-1h1l1,-5h-1h1l4,-3v3l-1,1h1l-2,9l1,1h-1v-1v2v-1v1l-1,1h1v2h-1v-2l-2,2l-1,2v7l-3,-2v-9l2,-4v-3ZM1083,384l-1,1v1h-1l1,-1v-1ZM1082,388v2h-1v-2h1v-1ZM1081,392v-2h1l-1,1ZM1081,391l-1,1v-1ZM1080,396h-1h1h-1h1v-1v1v-1ZM1080,393h-1ZM1078,391v1h1v1h-1v-3l1,1ZM1079,393h-1h1v4v-1h-1v-3ZM1068,399h1l2,4l-8,-2v-2l-16,-2h1h-1l15,3v4l17,1l2,6l2,3h-1h1h-1v-1l1,1l-1,-1v-1l-1,-1l-1,3h1h-1l-1,1l-19,3l-47,10l-30,5l-23,3h-7v1v-1l-17,3l-29,4l12,-6l6,-8v-1v1v-1l6,-6v-1v1v-1l11,-10v-1v1v-1v1h1l-1,1v1v-1v1l2,1h-1h1h-1h1h-1v1h1h-1h1v1h1h-1h1l8,2l1,-1l13,-3l8,-7l5,-1l-1,-8l5,-7l1,-5l2,-7v-2l1,-3h-1h1h-1v-1h1h-1h1l9,2l1,-5l3,-7l3,1l2,-5l3,-2v-1l3,-5v-9l13,7l1,-5l6,1l-1,3l9,4v-1v1v-1l1,1l2,1h1h-1h1v5l-1,1v1l-1,2l-2,7l4,-1l3,-1l2,5l5,1l5,3l8,2l-1,8l-1,1l3,2l2,4l-3,3v1l1,2h1h-1h1ZM1069,399h-1ZM1078,399h0ZM1078,399h0ZM1073,378h0ZM1073,378h0ZM1071,375h0ZM1047,397h1h-1Z"/><path class="GAS2" d="M988,563h2v1h1v-1l1,2l-1,-1l-1,1v-1v1v-1l-1,-1h-1h1ZM991,566h-1v-1l1,-1l1,1ZM990,563h1v1v-1ZM988,563h1h-1h1l1,1v2l-2,-1l1,1l-2,-2v-1ZM985,573v2h-1v1h-1h2v2h-1v2v-1h1v1h-1v1v-1v3v-1v2h1l-1,1v-1v1h-3h1v2h1h-1h1l-1,2v2h-2l3,1v2h-2h1v1l1,1v1l-1,1v1h1h-2v1v-1v1h1h-1h1l1,1v2h-7l-4,-1l-3,3h1h-1h1v3v-1v1l1,7l-2,1h-2v-1v1v-2l-1,-4l-19,1l-47,3l-4,-8l-3,-4l-1,-12l-2,-10l2,-8v-5l-4,-6l-2,-7l-10,-38l-3,-7l-4,-15l29,-3l28,-4v2v-1v1h-1l-1,2l-1,1l-1,4l9,5h2l3,3l7,11l9,4l9,9v2h1h-1h2v1v-1v2h1h-1h1h-1l2,1l1,1h-1h1h-1l4,2h1v1v-1v1h1h-1h1h-1h1l2,2l1,3l1,2h1h-1h1v1v-1v3l1,1h-1v-1v1h1h-1l6,4v1v-1v1l2,2v1v-1v2h1h-1h1v1h-1h1h-1v1h1h-1h1v1v-1v2v-1v2h1h-1l2,1v-1h1v1h-1v1l2,2l-2,3l-1,-1h-1v-1l-1,1v1l1,-1v5ZM988,562v1v-1h-1ZM986,569l-1,4v-3ZM985,567v2v-1v1l1,-1l1,1h-2v-1l-1,1l1,-1ZM985,562h0ZM986,574v3l-1,1v-1h1h-1v-2h1h-1h1v-1ZM985,574h1v1h-1v-1ZM985,578v6l-1,-1v-3h1v-1ZM984,576h1v-1v1v-1v1v-1v2h1h-1v-1h-2h1v-1ZM983,585h2v1l-2,4v-1h-1l1,-2v-1ZM984,585h0ZM984,585h0ZM984,585h-1h1ZM983,585h1h-1ZM982,585h1v1h-1v-1h-1ZM983,594v-2ZM983,600v3v-4v1v-1h-1v-1l1,-1v-1ZM982,599h0ZM982,599v1v-1ZM981,591h-1ZM981,600v-1h1v1Z"/><path class="GAS3" d="M988,563h2v1h1v-1l1,2l-1,-1l-1,1v-1v1v-1l-1,-1h-1h1ZM991,566h-1v-1l1,-1l1,1ZM990,563h1v1v-1ZM988,563h1h-1h1l1,1v2l-2,-1l1,1l-2,-2v-1ZM985,573v2h-1v1h-1h2v2h-1v2v-1h1v1h-1v1v-1v3v-1v2h1l-1,1v-1v1h-3h1v2h1h-1h1l-1,2v2h-2l3,1v2h-2h1v1l1,1v1l-1,1v1h1h-2v1v-1v1h1h-1h1l1,1v2h-7l-4,-1l-3,3h1h-1h1v3v-1v1l1,7l-2,1h-2v-1v1v-2l-1,-4l-19,1l-47,3l-4,-8l-3,-4l-1,-12l-2,-10l2,-8v-5l-4,-6l-2,-7l-10,-38l-3,-7l-4,-15l29,-3l28,-4v2v-1v1h-1l-1,2l-1,1l-1,4l9,5h2l3,3l7,11l9,4l9,9v2h1h-1h2v1v-1v2h1h-1h1h-1l2,1l1,1h-1h1h-1l4,2h1v1v-1v1h1h-1h1h-1h1l2,2l1,3l1,2h1h-1h1v1v-1v3l1,1h-1v-1v1h1h-1l6,4v1v-1v1l2,2v1v-1v2h1h-1h1v1h-1h1h-1v1h1h-1h1v1v-1v2v-1v2h1h-1l2,1v-1h1v1h-1v1l2,2l-2,3l-1,-1h-1v-1l-1,1v1l1,-1v5ZM988,562v1v-1h-1ZM986,569l-1,4v-3ZM985,567v2v-1v1l1,-1l1,1h-2v-1l-1,1l1,-1ZM985,562h0ZM986,574v3l-1,1v-1h1h-1v-2h1h-1h1v-1ZM985,574h1v1h-1v-1ZM985,578v6l-1,-1v-3h1v-1ZM984,576h1v-1v1v-1v1v-1v2h1h-1v-1h-2h1v-1ZM983,585h2v1l-2,4v-1h-1l1,-2v-1ZM984,585h0ZM984,585h0ZM984,585h-1h1ZM983,585h1h-1ZM982,585h1v1h-1v-1h-1ZM983,594v-2ZM983,600v3v-4v1v-1h-1v-1l1,-1v-1ZM982,599h0ZM982,599v1v-1ZM981,591h-1ZM981,600v-1h1v1Z"/><path class="FLS1" d="M1038,733v1l-3,7l1,7v1v-1v1l-1,1v1l-1,1v1l1,1l-1,1v1v-1l-1,1l-4,-1l-1,2h-3l-3,1h-1l-7,-1l1,-4h1v1v-1h-1l1,1v-1v1h1v1h2v1l1,-1v-1l-1,-1h-4l-3,-5v-1h2v-1v1h1h-1h2v-1h-3v1h-1l-2,-1v-1l-1,-1l1,-1h2h-1h1h-1h1h-1v-1v1v-1h-2v2v-1h-2v-1v1v-3h-2l-1,-1v1v-1v1v-1h-4h1h-1h1h-1h1h-1l-1,-1v1v-1v1h1h-1h1h-1h1h-1h1h-1h1h-1h1h-1v-1v1v-1h-2h1h-2h1h-1h1l-1,-1v-1h-1v-1l-1,-1v1v-1l-3,-7v-2h-3l-1,-1l-2,-1v-13v1l-3,5h-2l-2,-2v-1h-1v-1h-1l-2,-3v-1v1v-1v1v-1l-1,-2h-1l-1,-3l-4,-3v-1l2,-5l3,-6v-1l-1,1l-4,-1l-1,5h-1l-1,-1v1v-1h-1l-2,-5l1,1v-24v1v-2v1v-1h-1v-1l1,-2l-1,-1l1,1h-1v-1v1v-1l-4,-6l-5,1h-1l-1,-2v-1h-3l-5,-6h-1l-1,-5l-5,-2l-4,-5l-12,-2h-1l-3,2l-11,10h-4l1,1l-4,1h-2l-9,-8v-2v1l-4,-3l2,-3l-7,2l-16,-3l11,-1l-5,-3l-7,4h-6l-2,1l-6,2l4,-3l-5,-2l-3,5l-1,1h-4h2l-1,-1l1,-2l1,-1h-1v-6l-6,-4v-5l13,-2l20,-1l30,-4l4,8l47,-3l19,-1l1,4v2v-1v1h2l2,-1l-1,-7v-1v1v-3h-1h1h-1l3,-3l4,1h5v1v-1v1l1,-1h1l1,1h-1v1v-1v1v-1v1l1,-1l1,5l-1,-1v-1v1v-1h-1v2h-1h2v-1h-1v-1v1h1v1h1h-1h1v2v-1v1h-1v1v-1l-1,1v1h-1v-1l-2,3l1,9l3,5v13h1v1v-1l-2,-6l2,-4l-4,-14l1,-5h2h-1h1v-1h1v1l1,2v1h-1l1,2h1l1,2v1l1,1v2h1v3l2,2v2h1v1h1h-1l1,1l2,4h1l1,3l1,1v1l1,1l1,2l2,2v1v-1v1h1v2h1v1h1v2l3,2l-1,-2l1,2l5,5l1,5h-1h1h-1v-5v1l-1,5l1,2l-1,-2l2,4v2l-4,-7l-2,-9l-2,2l8,14l1,1l1,2l1,1v1l2,2l1,2l1,1v1h1v1l1,1v1l1,1v1l2,4l1,1v1l3,3v1l1,1v1h1v1l1,1v1h1h-1h1l1,5v1l2,10ZM1038,733l1,4l-1,-1v-2ZM1031,698h1v1l1,1v1l1,1v1h1h-1v-1l-1,-1v-1h-1h1h-1v-1ZM1038,738v-1h1ZM1038,737h1h-1ZM1038,737v-1v1ZM1029,695l3,3h-1v-1l-3,-3v-1l-1,-1l-1,-2ZM1038,749h-1h1v-1v1ZM1038,749h-1h1v-1ZM1038,749l-1,1l-1,4v1h-1h1h-1l-2,3l-3,4v-1l3,-3v-1l1,-1v-1h1v-4l2,-1ZM1022,682l1,1v1h1v2l1,1l1,3l-1,-2v-1l-1,-1v-2h-1v-1v1v-1l-2,-2v-1ZM1036,749v-1l1,1ZM1036,755h-1ZM1024,685l-1,-1h1ZM1022,682v1v-1l1,1h-1h1h-1ZM1014,668v-3h1l3,11l3,4l-3,-3v-1v1v-1l-1,-1l-1,-2l-1,-1v-2l-1,-2ZM1032,756h0ZM1032,756h0ZM1031,758h0ZM1031,758h0ZM1030,758h0ZM1030,758h-1h1ZM1029,760h0ZM1029,758h-1v-1h1ZM1029,760h0ZM1029,761h0ZM1029,761h0ZM1029,761h0ZM1028,760h-1v-1ZM1027,757h0ZM1027,757h0ZM1025,760h1ZM1006,651h1v1l1,1h-1v-2h-1l-1,-1l1,1h-1v-1h-1v-2l-1,-1l1,1ZM1007,653h0ZM1007,653v-1v1ZM1007,652h-1v1v-1ZM1006,651h1v1h-1ZM1006,651v1v-1h-1ZM1022,758h1h-1ZM1023,768h0ZM1022,758h0ZM1023,768h0ZM1004,648h-1v-1ZM1003,647l-2,-2l-1,-2l-1,-1v-1l-1,-1l-1,-3h-1l-2,-4v-1h-1v-1l1,1v1l2,4h1l5,9l1,1ZM1021,759h0ZM1020,769l3,-1l-3,2ZM1021,759v-1v1ZM1019,754h-1v1h1h-1h1h-1h1h-1h2h-1v1v-1v1v-1h-2h1v-1v1v-1ZM1019,754v1l1,-1v1h-1ZM1019,753h-1ZM1018,753h0ZM1018,755h0ZM1017,755h1h-1ZM1017,753h0ZM1017,754v1v-1ZM1018,755h-1h1ZM1017,753h0ZM1016,747h-1ZM1017,754v1v-1ZM1017,753v1v-1ZM1015,746h1v1h-1v-1v1ZM1016,753h0ZM1015,747v-1v1h-1h1h-1l1,-1ZM1016,753h-1h1ZM1012,743h-1ZM991,628l1,1v1l1,1h-1v-2l-2,-2v-2ZM1010,742v1v-1v1h1h-1h1h-2v-1ZM985,612l1,3l2,5l1,2v1l1,1v1v-1h-1v-2l-1,-1v-1v1l1,1v1v-1l-1,-1v-1l-1,-2h-1l-1,-2h1v-1l-1,-2v-2ZM1012,772h0ZM1012,772l1,1h-2v-1l-1,-1h1ZM1007,742h0ZM1007,742h0ZM1007,742v1v-1ZM1011,772v1ZM1011,772v1h-1l-1,-1ZM1005,740h1v1v-1v1v-1v1h-1ZM985,611v1v-1v1v-2v1ZM1011,773h-1h1ZM985,609v2v-2h-1ZM1005,740h0ZM1005,740h0ZM1005,741h0ZM1005,740h0ZM1004,740h1h-1v1v-1h-1ZM1009,773h1h-1h1h-1h1ZM1009,773h0ZM1005,741h-1h1ZM1009,773v-1v1ZM1009,772h0ZM985,611v1v-1ZM1009,772v1v-1h-1h1h-1h1ZM985,611v1h-1v-1ZM1004,740l-1,-1h1ZM983,605v-1h1ZM1008,772l1,1h-1v-1ZM1002,739h1h-1h1v1v-1v1h1h-2h1h-1h1h-1h1h-1ZM1004,741h-1v-1h1ZM984,611h0ZM984,611v1v-1ZM983,608h1h-1v1h1h-2h1ZM982,603h1h-1l-1,1v-1v1v-1h1ZM1005,776h0ZM1006,776v-1v1v-2v1v-1l2,-1l-2,2v1h-1ZM984,612h-1h1v1h-1v-1ZM1001,740h1h-1v-1h1h-1h1v1v-1v1v-1v1ZM1002,740h0ZM1002,740h-1ZM1006,772h0ZM1006,772h0ZM1006,775h0ZM1001,739v1l-1,-1ZM1006,775h-1h1ZM1004,773h0ZM997,738h2v1h-1h1h-1h1h-2h1h-1l-1,-1h1h-1h1ZM1005,776l-2,1l1,-1ZM998,740v-1h1ZM1004,773h-1h1ZM995,736h1v1v-1h-1h1h-1h1h-1ZM994,735h1h-1h1v1l1,1l-1,-1v-1h-1v-1ZM991,726h0ZM991,726h-1h1ZM998,777h1l-1,1ZM998,779h-1l1,-1ZM985,722v-1v1ZM985,719l1,5l-1,-1v-3ZM985,720v1v-1v2v-1ZM983,720h0ZM983,720h0ZM982,720h0ZM982,720v1v-1ZM982,721h0ZM982,721h0ZM972,687h0ZM972,688h-1ZM972,706h1l1,2v1v-1l-1,-2ZM971,703l1,3l-1,-3ZM971,703h-1ZM970,703h0ZM970,703v-1v1ZM967,700l3,2v1ZM962,659h0ZM962,659h0ZM962,659h-1h1ZM962,664h-1ZM964,692h1v2v-1l-1,-1v-1ZM964,691h0ZM963,691h1h-1h1v1v-1ZM964,691h0ZM973,780h0ZM973,780h0ZM915,632h0ZM901,643l-1,-1h1ZM897,644l1,2l-3,-2ZM860,628h1h-6l-3,1l-10,3v-1h4l6,-2l2,-1h3ZM842,632h-3l-1,1h-1h1l1,-1h3h-1ZM842,632h-1l1,-1Z"/><path class="FLS3" d="M1038,733v1l-3,7l1,7v1v-1v1l-1,1v1l-1,1v1l1,1l-1,1v1v-1l-1,1l-4,-1l-1,2h-3l-3,1h-1l-7,-1l1,-4h1v1v-1h-1l1,1v-1v1h1v1h2v1l1,-1v-1l-1,-1h-4l-3,-5v-1h2v-1v1h1h-1h2v-1h-3v1h-1l-2,-1v-1l-1,-1l1,-1h2h-1h1h-1h1h-1v-1v1v-1h-2v2v-1h-2v-1v1v-3h-2l-1,-1v1v-1v1v-1h-4h1h-1h1h-1h1h-1l-1,-1v1v-1v1h1h-1h1h-1h1h-1h1h-1h1h-1h1h-1v-1v1v-1h-2h1h-2h1h-1h1l-1,-1v-1h-1v-1l-1,-1v1v-1l-3,-7v-2h-3l-1,-1l-2,-1v-13v1l-3,5h-2l-2,-2v-1h-1v-1h-1l-2,-3v-1v1v-1v1v-1l-1,-2h-1l-1,-3l-4,-3v-1l2,-5l3,-6v-1l-1,1l-4,-1l-1,5h-1l-1,-1v1v-1h-1l-2,-5l1,1v-24v1v-2v1v-1h-1v-1l1,-2l-1,-1l1,1h-1v-1v1v-1l-4,-6l-5,1h-1l-1,-2v-1h-3l-5,-6h-1l-1,-5l-5,-2l-4,-5l-12,-2h-1l-3,2l-11,10h-4l1,1l-4,1h-2l-9,-8v-2v1l-4,-3l2,-3l-7,2l-16,-3l11,-1l-5,-3l-7,4h-6l-2,1l-6,2l4,-3l-5,-2l-3,5l-1,1h-4h2l-1,-1l1,-2l1,-1h-1v-6l-6,-4v-5l13,-2l20,-1l30,-4l4,8l47,-3l19,-1l1,4v2v-1v1h2l2,-1l-1,-7v-1v1v-3h-1h1h-1l3,-3l4,1h5v1v-1v1l1,-1h1l1,1h-1v1v-1v1v-1v1l1,-1l1,5l-1,-1v-1v1v-1h-1v2h-1h2v-1h-1v-1v1h1v1h1h-1h1v2v-1v1h-1v1v-1l-1,1v1h-1v-1l-2,3l1,9l3,5v13h1v1v-1l-2,-6l2,-4l-4,-14l1,-5h2h-1h1v-1h1v1l1,2v1h-1l1,2h1l1,2v1l1,1v2h1v3l2,2v2h1v1h1h-1l1,1l2,4h1l1,3l1,1v1l1,1l1,2l2,2v1v-1v1h1v2h1v1h1v2l3,2l-1,-2l1,2l5,5l1,5h-1h1h-1v-5v1l-1,5l1,2l-1,-2l2,4v2l-4,-7l-2,-9l-2,2l8,14l1,1l1,2l1,1v1l2,2l1,2l1,1v1h1v1l1,1v1l1,1v1l2,4l1,1v1l3,3v1l1,1v1h1v1l1,1v1h1h-1h1l1,5v1l2,10ZM1038,733l1,4l-1,-1v-2ZM1031,698h1v1l1,1v1l1,1v1h1h-1v-1l-1,-1v-1h-1h1h-1v-1ZM1038,738v-1h1ZM1038,737h1h-1ZM1038,737v-1v1ZM1029,695l3,3h-1v-1l-3,-3v-1l-1,-1l-1,-2ZM1038,749h-1h1v-1v1ZM1038,749h-1h1v-1ZM1038,749l-1,1l-1,4v1h-1h1h-1l-2,3l-3,4v-1l3,-3v-1l1,-1v-1h1v-4l2,-1ZM1022,682l1,1v1h1v2l1,1l1,3l-1,-2v-1l-1,-1v-2h-1v-1v1v-1l-2,-2v-1ZM1036,749v-1l1,1ZM1036,755h-1ZM1024,685l-1,-1h1ZM1022,682v1v-1l1,1h-1h1h-1ZM1014,668v-3h1l3,11l3,4l-3,-3v-1v1v-1l-1,-1l-1,-2l-1,-1v-2l-1,-2ZM1032,756h0ZM1032,756h0ZM1031,758h0ZM1031,758h0ZM1030,758h0ZM1030,758h-1h1ZM1029,760h0ZM1029,758h-1v-1h1ZM1029,760h0ZM1029,761h0ZM1029,761h0ZM1029,761h0ZM1028,760h-1v-1ZM1027,757h0ZM1027,757h0ZM1025,760h1ZM1006,651h1v1l1,1h-1v-2h-1l-1,-1l1,1h-1v-1h-1v-2l-1,-1l1,1ZM1007,653h0ZM1007,653v-1v1ZM1007,652h-1v1v-1ZM1006,651h1v1h-1ZM1006,651v1v-1h-1ZM1022,758h1h-1ZM1023,768h0ZM1022,758h0ZM1023,768h0ZM1004,648h-1v-1ZM1003,647l-2,-2l-1,-2l-1,-1v-1l-1,-1l-1,-3h-1l-2,-4v-1h-1v-1l1,1v1l2,4h1l5,9l1,1ZM1021,759h0ZM1020,769l3,-1l-3,2ZM1021,759v-1v1ZM1019,754h-1v1h1h-1h1h-1h1h-1h2h-1v1v-1v1v-1h-2h1v-1v1v-1ZM1019,754v1l1,-1v1h-1ZM1019,753h-1ZM1018,753h0ZM1018,755h0ZM1017,755h1h-1ZM1017,753h0ZM1017,754v1v-1ZM1018,755h-1h1ZM1017,753h0ZM1016,747h-1ZM1017,754v1v-1ZM1017,753v1v-1ZM1015,746h1v1h-1v-1v1ZM1016,753h0ZM1015,747v-1v1h-1h1h-1l1,-1ZM1016,753h-1h1ZM1012,743h-1ZM991,628l1,1v1l1,1h-1v-2l-2,-2v-2ZM1010,742v1v-1v1h1h-1h1h-2v-1ZM985,612l1,3l2,5l1,2v1l1,1v1v-1h-1v-2l-1,-1v-1v1l1,1v1v-1l-1,-1v-1l-1,-2h-1l-1,-2h1v-1l-1,-2v-2ZM1012,772h0ZM1012,772l1,1h-2v-1l-1,-1h1ZM1007,742h0ZM1007,742h0ZM1007,742v1v-1ZM1011,772v1ZM1011,772v1h-1l-1,-1ZM1005,740h1v1v-1v1v-1v1h-1ZM985,611v1v-1v1v-2v1ZM1011,773h-1h1ZM985,609v2v-2h-1ZM1005,740h0ZM1005,740h0ZM1005,741h0ZM1005,740h0ZM1004,740h1h-1v1v-1h-1ZM1009,773h1h-1h1h-1h1ZM1009,773h0ZM1005,741h-1h1ZM1009,773v-1v1ZM1009,772h0ZM985,611v1v-1ZM1009,772v1v-1h-1h1h-1h1ZM985,611v1h-1v-1ZM1004,740l-1,-1h1ZM983,605v-1h1ZM1008,772l1,1h-1v-1ZM1002,739h1h-1h1v1v-1v1h1h-2h1h-1h1h-1h1h-1ZM1004,741h-1v-1h1ZM984,611h0ZM984,611v1v-1ZM983,608h1h-1v1h1h-2h1ZM982,603h1h-1l-1,1v-1v1v-1h1ZM1005,776h0ZM1006,776v-1v1v-2v1v-1l2,-1l-2,2v1h-1ZM984,612h-1h1v1h-1v-1ZM1001,740h1h-1v-1h1h-1h1v1v-1v1v-1v1ZM1002,740h0ZM1002,740h-1ZM1006,772h0ZM1006,772h0ZM1006,775h0ZM1001,739v1l-1,-1ZM1006,775h-1h1ZM1004,773h0ZM997,738h2v1h-1h1h-1h1h-2h1h-1l-1,-1h1h-1h1ZM1005,776l-2,1l1,-1ZM998,740v-1h1ZM1004,773h-1h1ZM995,736h1v1v-1h-1h1h-1h1h-1ZM994,735h1h-1h1v1l1,1l-1,-1v-1h-1v-1ZM991,726h0ZM991,726h-1h1ZM998,777h1l-1,1ZM998,779h-1l1,-1ZM985,722v-1v1ZM985,719l1,5l-1,-1v-3ZM985,720v1v-1v2v-1ZM983,720h0ZM983,720h0ZM982,720h0ZM982,720v1v-1ZM982,721h0ZM982,721h0ZM972,687h0ZM972,688h-1ZM972,706h1l1,2v1v-1l-1,-2ZM971,703l1,3l-1,-3ZM971,703h-1ZM970,703h0ZM970,703v-1v1ZM967,700l3,2v1ZM962,659h0ZM962,659h0ZM962,659h-1h1ZM962,664h-1ZM964,692h1v2v-1l-1,-1v-1ZM964,691h0ZM963,691h1h-1h1v1v-1ZM964,691h0ZM973,780h0ZM973,780h0ZM915,632h0ZM901,643l-1,-1h1ZM897,644l1,2l-3,-2ZM860,628h1h-6l-3,1l-10,3v-1h4l6,-2l2,-1h3ZM842,632h-3l-1,1h-1h1l1,-1h3h-1ZM842,632h-1l1,-1Z"/><path class="OHS1" d="M954,279l3,18v6l3,14l-1,1v12l-2,8v10l-6,7h-6l-5,7v8h-7v11l-3,5l-6,2v-1l-6,-3l-1,-6l-6,6l-9,-2l-2,3l-5,-4h-8l-3,-7l-4,-1l-6,1h-1l-2,-18v-9l-4,-35l-2,-12l27,-5v1v-1h1h-1v1h1l8,1l2,3l4,-2l-4,4h12l9,-5l8,-1l6,-8ZM906,295h1h-1ZM907,295h-1Z"/><path class="OHS3" d="M954,279l3,18v6l3,14l-1,1v12l-2,8v10l-6,7h-6l-5,7v8h-7v11l-3,5l-6,2v-1l-6,-3l-1,-6l-6,6l-9,-2l-2,3l-5,-4h-8l-3,-7l-4,-1l-6,1h-1l-2,-18v-9l-4,-35l-2,-12l27,-5v1v-1h1h-1v1h1l8,1l2,3l4,-2l-4,4h12l9,-5l8,-1l6,-8ZM906,295h1h-1ZM907,295h-1Z"/><path class="MDS1" d="M1088,360v-4ZM1059,367l5,4l-3,2l-1,-1l-7,-2l1,1l-1,-1h-2l-4,-3l-3,1h-3l1,-6l1,-2v-1l1,-1v-3l-1,-4l-2,1l-1,-1v1v-1v1l-9,-4l1,-3l-6,-1l-3,-5h-1h1l-1,-1v1v-1l-6,-3l-5,2l-1,1l-1,2h-7v-1v1h-1l1,-1l-1,1l-2,5h-1h1h-3l-2,2v1v-1v1l-1,1h-1l-3,4v1v-1v1l-3,-14l28,-6l51,-10h1l3,14l6,21l12,-3h1v2h-1l1,2v-1v4l-1,1l-3,4v2l-4,3h-1l-4,2l-1,-4l-2,-1l-6,-4v-1v1v-1l-2,-1l-2,-5l2,-5h-5l4,-2l-1,-2l1,-1h1l-1,-1l1,1l-1,-1l-1,1v1v-1h-1l-1,-1v-1l1,-2h-1l-2,-3l3,-7l3,-1l-1,-5l-3,3l-4,5v1l-5,4l5,3h-1l1,5l-1,4l4,13ZM1066,365h-1v1v-1ZM1088,363l-1,5v1v-5l1,-1v-3v2ZM1087,368v1v-1ZM1085,369h0ZM1085,369h-1h1ZM1070,373h1l1,1h-1v-1ZM1071,374h1v1v-1h-1v1v-1ZM1071,374v1v-1h-1h1ZM1071,375h0ZM1063,348l1,1h-2v1v-1ZM1065,365h-1h1v1h-1v-2v1ZM1055,345h1h-1ZM1215,350h76v44h-76Z"/><path class="MDS3" d="M1088,360v-4ZM1059,367l5,4l-3,2l-1,-1l-7,-2l1,1l-1,-1h-2l-4,-3l-3,1h-3l1,-6l1,-2v-1l1,-1v-3l-1,-4l-2,1l-1,-1v1v-1v1l-9,-4l1,-3l-6,-1l-3,-5h-1h1l-1,-1v1v-1l-6,-3l-5,2l-1,1l-1,2h-7v-1v1h-1l1,-1l-1,1l-2,5h-1h1h-3l-2,2v1v-1v1l-1,1h-1l-3,4v1v-1v1l-3,-14l28,-6l51,-10h1l3,14l6,21l12,-3h1v2h-1l1,2v-1v4l-1,1l-3,4v2l-4,3h-1l-4,2l-1,-4l-2,-1l-6,-4v-1v1v-1l-2,-1l-2,-5l2,-5h-5l4,-2l-1,-2l1,-1h1l-1,-1l1,1l-1,-1l-1,1v1v-1h-1l-1,-1v-1l1,-2h-1l-2,-3l3,-7l3,-1l-1,-5l-3,3l-4,5v1l-5,4l5,3h-1l1,5l-1,4l4,13ZM1066,365h-1v1v-1ZM1088,363l-1,5v1v-5l1,-1v-3v2ZM1087,368v1v-1ZM1085,369h0ZM1085,369h-1h1ZM1070,373h1l1,1h-1v-1ZM1071,374h1v1v-1h-1v1v-1ZM1071,374v1v-1h-1h1ZM1071,375h0ZM1063,348l1,1h-2v1v-1ZM1065,365h-1h1v1h-1v-2v1ZM1055,345h1h-1ZM1215,350h76v44h-76Z"/><path class="NCS2" d="M1096,437l-1,-3l1,3l2,3v9l-5,3l5,-4ZM1083,414v3l2,3v1l5,7l2,3l3,3l-1,-1l-2,-1v-1v1v-1l-2,-2v-1v1v-1h-1l-4,-6v-2l-2,-3v-3ZM1092,431v1ZM1090,428v1l-1,-1ZM1083,422h-4l2,4l-7,2l-1,4l-6,-1v-6h-1l1,10l16,-4l2,1v-1l1,-1l5,6l-6,11l-3,3h-3h1h-1l-16,-1l13,3l-3,12v-1l6,-5l4,1v1v-1v4l-3,5l-2,1h-1v1h-1v-1v1v-1h-1v1h-1l-6,2l-1,1h-1v-1v1h-1v1h-1v1l-1,1v1h-2h1v1l-6,5l-4,6v3l-1,1v1v-1h-1v-1v6l-1,1l-8,1l-2,1h-1v1h-2l-21,-16l-9,-6l-23,4l-9,-8l-30,2v1v-1v1h-1v-1v1v-1v1v-1v1h-1l1,-1l-1,1l-16,8l-28,4v-7l4,-2l2,-5l6,-5l5,-1l13,-10v-1v1v-1l-1,-1l7,-1l7,-6v-1v1v-1h6l4,-7l1,-1v-1v1v-2l1,-4v-1h7l23,-3l30,-5l47,-10l19,-3h1l4,6l1,2v1l-2,-2ZM1085,420v1h-1ZM1083,417h0ZM1083,414v1v-1ZM1083,414h-1h1ZM1082,414l1,1v1l-3,-1v-1h1ZM1081,450h1h-1ZM1083,463v1v-1ZM1080,470v1h-1h1v-2l3,-5ZM1078,469h1h-1h1l1,1h-2ZM1077,469h1ZM1075,470h1l-9,3l1,-1l6,-2ZM1075,469h1ZM1065,474l-1,1v1v-1ZM1064,476h-1l1,-1ZM1064,476h-1v1h-1v1v-1h-1h2v-1ZM1052,493v-3v2ZM1051,495v3v-1v1v-5v1v-1h1ZM1051,494v1l-1,-1ZM1049,499l1,-1l-1,1ZM1039,501l-1,1v-1v1h-1h1v-1h1l2,-1Z"/><path class="NCS3" d="M1096,437l-1,-3l1,3l2,3v9l-5,3l5,-4ZM1083,414v3l2,3v1l5,7l2,3l3,3l-1,-1l-2,-1v-1v1v-1l-2,-2v-1v1v-1h-1l-4,-6v-2l-2,-3v-3ZM1092,431v1ZM1090,428v1l-1,-1ZM1083,422h-4l2,4l-7,2l-1,4l-6,-1v-6h-1l1,10l16,-4l2,1v-1l1,-1l5,6l-6,11l-3,3h-3h1h-1l-16,-1l13,3l-3,12v-1l6,-5l4,1v1v-1v4l-3,5l-2,1h-1v1h-1v-1v1v-1h-1v1h-1l-6,2l-1,1h-1v-1v1h-1v1h-1v1l-1,1v1h-2h1v1l-6,5l-4,6v3l-1,1v1v-1h-1v-1v6l-1,1l-8,1l-2,1h-1v1h-2l-21,-16l-9,-6l-23,4l-9,-8l-30,2v1v-1v1h-1v-1v1v-1v1v-1v1h-1l1,-1l-1,1l-16,8l-28,4v-7l4,-2l2,-5l6,-5l5,-1l13,-10v-1v1v-1l-1,-1l7,-1l7,-6v-1v1v-1h6l4,-7l1,-1v-1v1v-2l1,-4v-1h7l23,-3l30,-5l47,-10l19,-3h1l4,6l1,2v1l-2,-2ZM1085,420v1h-1ZM1083,417h0ZM1083,414v1v-1ZM1083,414h-1h1ZM1082,414l1,1v1l-3,-1v-1h1ZM1081,450h1h-1ZM1083,463v1v-1ZM1080,470v1h-1h1v-2l3,-5ZM1078,469h1h-1h1l1,1h-2ZM1077,469h1ZM1075,470h1l-9,3l1,-1l6,-2ZM1075,469h1ZM1065,474l-1,1v1v-1ZM1064,476h-1l1,-1ZM1064,476h-1v1h-1v1v-1h-1h2v-1ZM1052,493v-3v2ZM1051,495v3v-1v1v-5v1v-1h1ZM1051,494v1l-1,-1ZM1049,499l1,-1l-1,1ZM1039,501l-1,1v-1v1h-1h1v-1h1l2,-1Z"/><path class="SCS2" d="M1014,536l-1,1h1v-1v1h-1v1h-1v1v-1v1l-2,-1v-1v1l1,2l-1,1v2l-7,1h-1v1v-1v1l1,-1l2,2l-4,2v-1v1v-1h-1v1l-4,-1v1h-1h1v1h-2l-1,-1h-2v2h-1v1l1,1l1,2l-2,1h2l1,1l-1,1h1h-1v1h-2h2v1l-1,1v1h-2h1h-1h1v1h-5v-2v1v-2v1v-1h-1h1h-1v-1h1h-1h1v-1h-1h1h-1v-2v1v-1l-2,-2v-1v1v-1l-6,-4h1h-1v-1v1h1l-1,-1v-3v1v-1h-1h1h-1l-1,-2l-1,-3l-2,-2h-1h1h-1h1h-1v-1v1v-1h-1l-4,-2h1h-1h1l-1,-1l-2,-1h1h-1h1h-1v-2v1v-1h-2h1h-1v-2l-9,-9l-9,-4l-7,-11l-3,-3h-2l-9,-5l1,-4l1,-1l1,-2h1v-1v1v-2l16,-8l1,-1l-1,1h1v-1v1v-1v1v-1v1h1v-1v1v-1l30,-2l9,8l23,-4l9,6l21,16h1l-5,4l-6,9l-2,6h-1v-1l1,-3l-1,4v1l1,3h-1h1v1v-1h-1v1v-1v1h1l-1,2h-1v1h-1v-1v2h-2l-2,3h-1l-1,1v2h-1ZM1014,536h0ZM1037,502h0ZM1037,502h0ZM1024,522v-1v1ZM1024,525h-1ZM1024,522h-1h1ZM1024,526h-1v-1h1ZM1023,529h-1v-1h1ZM1022,529h1h-1v1ZM1021,529h1h-1ZM1022,529v1h-1h1h-1v-1ZM1016,534v-1h1l-1,2v-2ZM1017,533h-1h1ZM1016,534v1h-1v1v-1h1h-1v-1ZM1015,536h-1h1v-1v1ZM1013,538v-1h1v-1h1l-1,1ZM1014,536v1v-1v1v-1v1h-1ZM1013,538h-1h1l-1,1v-1ZM1011,540v1v-1ZM1010,543v-1l1,-1l-1,1ZM1011,541h-1v1v-1ZM1010,541l1,-1v1ZM1003,544l-1,1v-1ZM1001,548h-1v-1h1ZM1000,553h-1v-2ZM999,553h1l-3,2v-1h1v-1ZM994,549h3v1h1l1,1v1v-1v1h-1l-1,1v1h1h-1v1h-2v-1l-1,-1v-2l-1,-1l1,-1ZM998,550h-1v-1ZM998,553v-1h1v1ZM993,548l1,1l-1,1l1,1v2l1,1v1l-3,-1l-1,-2l-1,-1l1,-1v-2ZM993,556l-1,4v-2l1,-1ZM992,555v-1ZM993,556v1l-1,1v-1h1ZM991,561v1h-1v-1h1v-1ZM990,562v1ZM990,562v1h1h-2v-1Z"/><path class="SCS3" d="M1014,536l-1,1h1v-1v1h-1v1h-1v1v-1v1l-2,-1v-1v1l1,2l-1,1v2l-7,1h-1v1v-1v1l1,-1l2,2l-4,2v-1v1v-1h-1v1l-4,-1v1h-1h1v1h-2l-1,-1h-2v2h-1v1l1,1l1,2l-2,1h2l1,1l-1,1h1h-1v1h-2h2v1l-1,1v1h-2h1h-1h1v1h-5v-2v1v-2v1v-1h-1h1h-1v-1h1h-1h1v-1h-1h1h-1v-2v1v-1l-2,-2v-1v1v-1l-6,-4h1h-1v-1v1h1l-1,-1v-3v1v-1h-1h1h-1l-1,-2l-1,-3l-2,-2h-1h1h-1h1h-1v-1v1v-1h-1l-4,-2h1h-1h1l-1,-1l-2,-1h1h-1h1h-1v-2v1v-1h-2h1h-1v-2l-9,-9l-9,-4l-7,-11l-3,-3h-2l-9,-5l1,-4l1,-1l1,-2h1v-1v1v-2l16,-8l1,-1l-1,1h1v-1v1v-1v1v-1v1h1v-1v1v-1l30,-2l9,8l23,-4l9,6l21,16h1l-5,4l-6,9l-2,6h-1v-1l1,-3l-1,4v1l1,3h-1h1v1v-1h-1v1v-1v1h1l-1,2h-1v1h-1v-1v2h-2l-2,3h-1l-1,1v2h-1ZM1014,536h0ZM1037,502h0ZM1037,502h0ZM1024,522v-1v1ZM1024,525h-1ZM1024,522h-1h1ZM1024,526h-1v-1h1ZM1023,529h-1v-1h1ZM1022,529h1h-1v1ZM1021,529h1h-1ZM1022,529v1h-1h1h-1v-1ZM1016,534v-1h1l-1,2v-2ZM1017,533h-1h1ZM1016,534v1h-1v1v-1h1h-1v-1ZM1015,536h-1h1v-1v1ZM1013,538v-1h1v-1h1l-1,1ZM1014,536v1v-1v1v-1v1h-1ZM1013,538h-1h1l-1,1v-1ZM1011,540v1v-1ZM1010,543v-1l1,-1l-1,1ZM1011,541h-1v1v-1ZM1010,541l1,-1v1ZM1003,544l-1,1v-1ZM1001,548h-1v-1h1ZM1000,553h-1v-2ZM999,553h1l-3,2v-1h1v-1ZM994,549h3v1h1l1,1v1v-1v1h-1l-1,1v1h1h-1v1h-2v-1l-1,-1v-2l-1,-1l1,-1ZM998,550h-1v-1ZM998,553v-1h1v1ZM993,548l1,1l-1,1l1,1v2l1,1v1l-3,-1l-1,-2l-1,-1l1,-1v-2ZM993,556l-1,4v-2l1,-1ZM992,555v-1ZM993,556v1l-1,1v-1h1ZM991,561v1h-1v-1h1v-1ZM990,562v1ZM990,562v1h1h-2v-1Z"/><path class="VTS1" d="M1117,155l1,10v6l-6,5l1,13l-2,5v17l2,11l1,1l-16,4l-2,-5l-3,-18l-3,-2v1v-1v1l-1,1v-3l-4,-10v-10l-2,-6l-1,-11ZM1215,250h76v44h-76Z"/><path class="VTS3" d="M1117,155l1,10v6l-6,5l1,13l-2,5v17l2,11l1,1l-16,4l-2,-5l-3,-18l-3,-2v1v-1v1l-1,1v-3l-4,-10v-10l-2,-6l-1,-11ZM1215,250h76v44h-76Z"/><path class="NYS1" d="M1129,268h-1v2h2h-1h2l2,-1l1,1l-12,9l-1,1v1h-1l-10,5h-1l-2,2h-2v1h-1v-1v1h-1h1h-2v1h-1l1,-1h-3l1,1h-4v-2l1,-3h2v-1v1v-1h1l6,-6l15,-4l7,-6ZM1130,270h1h-3h1h-1v-2h1ZM1121,280v1h-1l-6,4l-1,1l1,-1l6,-4h1v-1l1,-1ZM1029,205l2,-1v1ZM1029,205l-1,-1l-1,-4l9,-8l8,-15l8,-6l30,-7l1,11l2,6v10l4,10v3l1,-1v-1v1v-1l3,2l3,18l2,5v21l3,19l2,3l-3,4l2,3v1l-2,3v2v-1v2h-1l-1,1h-1l-1,3v-9l-18,-6l-1,-2h-3l-5,-4l-1,-4l-1,-1v-1v1v-1h-2l-3,-2l-2,-1l-33,7l-33,6l-21,4h-4l-1,-7l12,-11l4,-6l-2,-6h-1l1,-1v-1l-1,-1h-1l-2,-5l7,-4l10,-3l14,2l11,-3l5,-2l4,-8h4l-2,-11v-4l-2,1ZM1113,285v1h-3v1l-4,2l1,-1h1l1,-1h1v-1ZM1110,286v1h-1v-1ZM1109,286h0ZM1109,286v1v-1ZM1107,288h0ZM1106,288h1ZM1107,288h-1ZM1107,288l-1,1v-1ZM1106,289h-2l-2,1l1,-1h3h-1h1v-1ZM1101,289h1ZM1101,289h0ZM1101,290h0ZM1100,289h1v1v-1h-1ZM1101,290h-1h1ZM1100,289v1l-1,-1ZM1095,290h1l-4,4l1,-4h1ZM1028,205v-1v1ZM1028,204v1v-1ZM980,242h1l1,1v1l-1,1h1Z"/><path class="NYS3" d="M1129,268h-1v2h2h-1h2l2,-1l1,1l-12,9l-1,1v1h-1l-10,5h-1l-2,2h-2v1h-1v-1v1h-1h1h-2v1h-1l1,-1h-3l1,1h-4v-2l1,-3h2v-1v1v-1h1l6,-6l15,-4l7,-6ZM1130,270h1h-3h1h-1v-2h1ZM1121,280v1h-1l-6,4l-1,1l1,-1l6,-4h1v-1l1,-1ZM1029,205l2,-1v1ZM1029,205l-1,-1l-1,-4l9,-8l8,-15l8,-6l30,-7l1,11l2,6v10l4,10v3l1,-1v-1v1v-1l3,2l3,18l2,5v21l3,19l2,3l-3,4l2,3v1l-2,3v2v-1v2h-1l-1,1h-1l-1,3v-9l-18,-6l-1,-2h-3l-5,-4l-1,-4l-1,-1v-1v1v-1h-2l-3,-2l-2,-1l-33,7l-33,6l-21,4h-4l-1,-7l12,-11l4,-6l-2,-6h-1l1,-1v-1l-1,-1h-1l-2,-5l7,-4l10,-3l14,2l11,-3l5,-2l4,-8h4l-2,-11v-4l-2,1ZM1113,285v1h-3v1l-4,2l1,-1h1l1,-1h1v-1ZM1110,286v1h-1v-1ZM1109,286h0ZM1109,286v1v-1ZM1107,288h0ZM1106,288h1ZM1107,288h-1ZM1107,288l-1,1v-1ZM1106,289h-2l-2,1l1,-1h3h-1h1v-1ZM1101,289h1ZM1101,289h0ZM1101,290h0ZM1100,289h1v1v-1h-1ZM1101,290h-1h1ZM1100,289v1l-1,-1ZM1095,290h1l-4,4l1,-4h1ZM1028,205v-1v1ZM1028,204v1v-1ZM980,242h1l1,1v1l-1,1h1Z"/><path class="PAS1" d="M968,268l1,7h4l21,-4l33,-6l33,-7l2,1l3,2h2v1v-1v1l1,1l1,4l5,4h3l1,2l-4,8v1v-1v1l-2,14l4,1l9,10l-6,6v1h-1v2l-2,2h-1l-2,2l-4,-1l-3,5h-1l-51,10l-28,6l-22,3l-4,-26l-3,-14v-6l-3,-18l7,-7l7,-4Z"/><path class="PAS3" d="M968,268l1,7h4l21,-4l33,-6l33,-7l2,1l3,2h2v1v-1v1l1,1l1,4l5,4h3l1,2l-4,8v1v-1v1l-2,14l4,1l9,10l-6,6v1h-1v2l-2,2h-1l-2,2l-4,-1l-3,5h-1l-51,10l-28,6l-22,3l-4,-26l-3,-14v-6l-3,-18l7,-7l7,-4Z"/><path class="DES1" d="M1073,320l-1,1v1l-1,3v5l6,5v4l4,6l5,2l-1,6l3,3h-1h1h-1l-12,3l-6,-21l-3,-14h-1h1l3,-5ZM1071,326v-1v1Z"/><path class="DES2" d="M1073,320l-1,1v1l-1,3v5l6,5v4l4,6l5,2l-1,6l3,3h-1h1h-1l-12,3l-6,-21l-3,-14h-1h1l3,-5ZM1071,326v-1v1Z"/><path class="NHS2" d="M1147,204v1ZM1139,196l1,2l1,1h1h-1h1l3,4v1h2v1l-1,6h1h-1l-6,3l-1,4l-25,5l-1,-1l-2,-11v-17l2,-5l-1,-13l6,-5v-6l-1,-10l1,-9l5,-1l4,9l2,10l8,22ZM1215,200h76v44h-76Z"/><path class="NHS3" d="M1147,204v1ZM1139,196l1,2l1,1h1h-1h1l3,4v1h2v1l-1,6h1h-1l-6,3l-1,4l-25,5l-1,-1l-2,-11v-17l2,-5l-1,-13l6,-5v-6l-1,-10l1,-9l5,-1l4,9l2,10l8,22ZM1215,200h76v44h-76Z"/><path class="CTS1" d="M1113,245v-1v1v-1l20,-4l4,16v3h-2v1v-1l-1,1l-8,1l1,3l-12,2l-9,9l-4,2v1v-1v1v-1l-2,-3l3,-4l-2,-3l-3,-19v-1ZM1135,259v1h-1ZM1215,300h76v44h-76Z"/><path class="CTS3" d="M1113,245v-1v1v-1l20,-4l4,16v3h-2v1v-1l-1,1l-8,1l1,3l-12,2l-9,9l-4,2v1v-1v1v-1l-2,-3l3,-4l-2,-3l-3,-19v-1ZM1135,259v1h-1ZM1215,300h76v44h-76Z"/><path class="NJS1" d="M1077,333l-5,-4l-1,-3v-1l1,-3v-1l3,-3h1l2,-2v-2h1v-1l6,-6l-9,-10l-4,-1l2,-14v-1v1v-1l4,-8l18,6v9l-1,2h-2l-1,4l8,5v15l1,1h-1v-1v2l-1,2v1l-2,2l1,1v1h-1l-1,1v2v-1l-1,1v1h1l-2,2v-1v1l-1,1h-1h1l-3,11l-3,1v-7l-10,-2ZM1100,315h1l-1,1l-2,6v1v-1l1,-3v-1l1,-2ZM1098,322v-1v1ZM1098,322v-1v1ZM1096,326h0ZM1096,326v-1h1l-1,2v-1v1ZM1096,326h0ZM1096,326h0ZM1096,326h0ZM1094,329v-1v1ZM1094,329h0ZM1093,330h0ZM1093,330h0ZM1093,330h-1h1ZM1078,314h1h-1ZM1074,319l1,-1l-1,1Z"/><path class="NJS2" d="M1077,333l-5,-4l-1,-3v-1l1,-3v-1l3,-3h1l2,-2v-2h1v-1l6,-6l-9,-10l-4,-1l2,-14v-1v1v-1l4,-8l18,6v9l-1,2h-2l-1,4l8,5v15l1,1h-1v-1v2l-1,2v1l-2,2l1,1v1h-1l-1,1v2v-1l-1,1v1h1l-2,2v-1v1l-1,1h-1h1l-3,11l-3,1v-7l-10,-2ZM1100,315h1l-1,1l-2,6v1v-1l1,-3v-1l1,-2ZM1098,322v-1v1ZM1098,322v-1v1ZM1096,326h0ZM1096,326v-1h1l-1,2v-1v1ZM1096,326h0ZM1096,326h0ZM1096,326h0ZM1094,329v-1v1ZM1094,329h0ZM1093,330h0ZM1093,330h0ZM1093,330h-1h1ZM1078,314h1h-1ZM1074,319l1,-1l-1,1Z"/><path class="MES1" d="M1161,180l-3,-5v-4v4l3,5v1h-2v-1l-1,-1v1v-1v1v-1v1h-1h1h-1v1l1,-1l-1,1v1v-2v1l-1,1h1h-1v-3v1h-1l1,-1l-1,1v1v-1l-2,2v1l-1,2l1,1v3l-4,7l-2,8v1v-1h-2v-1v1v-1l-3,-4h-1h1h-1l-1,-1l-1,-2l-2,-10l-8,-22l-2,-10l-4,-9h5l1,-11l4,-4l-1,-19l2,-1v-12l6,-15l2,-7l4,-1l1,5l4,2l8,-9h4l10,5l1,6l4,10l3,12l3,10h7l2,10l7,1l4,5l-1,2h-1h3v-1v1l-1,7h-4v2h-3v3h-1v1v-1h-1l-1,2h-2v3l-2,3h-1l-1,-1v1v-1l-1,-1v-1l-1,1l-2,1h-1l-1,1v1l-1,1v4h-1l-2,-1h-3v-6l-1,-1v2l-1,2v12l-2,4h-1v1v-1h-3v-1l-1,1v2v-1v1l-1,3l-2,1h-1h1h-1v-4l-1,-1v1v-1v4v-1v2h1l-1,2v1v-1v1ZM1161,180v1v-1ZM1161,180v1v-1ZM1201,143h0ZM1201,143h0ZM1199,145v-1v1ZM1199,145h-1h1ZM1198,147h1h-1h1l-1,1ZM1196,146h-1h1ZM1193,149h1ZM1192,151v-1v1ZM1190,154h0ZM1190,154h-1h1ZM1187,153h1v1ZM1184,153l2,1l-1,3l-3,1v-3l1,-2ZM1187,158h-1v-1ZM1185,160h0ZM1185,160h0ZM1183,162v-1ZM1183,161h1h-1h1v2l-1,-1v1v-1ZM1182,156v1h-1v-1h1ZM1183,161h-1v-1ZM1181,157v-1v1ZM1181,160h0ZM1181,160h0ZM1181,165h0ZM1180,160v1h1h-1l1,1l-1,1l-2,-1v-2ZM1181,165v-1v1v-1v1ZM1181,165h0ZM1180,161h0ZM1180,161v-1v1ZM1181,164h0ZM1181,164h0ZM1174,152v1h1v1h-1v-1ZM1178,167h-2v-1h-1v-1h2v1l1,-1ZM1177,164l-1,1h-1v1v-1ZM1174,161v2v-2h-1v-2ZM1168,174v-1v1ZM1168,174v-1v1ZM1167,171h0ZM1167,171h0ZM1167,174h-1v-1l1,1h-1h1ZM1162,175h-1v1h1h-1v1h1h-1v1v-5v1h1ZM1158,180h0ZM1156,179h0ZM1156,179v1v-1ZM1155,181h0ZM1155,181h0ZM1155,182l-1,1h1h-1v-1ZM1154,182v1h-1v-1h1h-1ZM1154,186h-1v-1Z"/><path class="MES2" d="M1161,180l-3,-5v-4v4l3,5v1h-2v-1l-1,-1v1v-1v1v-1v1h-1h1h-1v1l1,-1l-1,1v1v-2v1l-1,1h1h-1v-3v1h-1l1,-1l-1,1v1v-1l-2,2v1l-1,2l1,1v3l-4,7l-2,8v1v-1h-2v-1v1v-1l-3,-4h-1h1h-1l-1,-1l-1,-2l-2,-10l-8,-22l-2,-10l-4,-9h5l1,-11l4,-4l-1,-19l2,-1v-12l6,-15l2,-7l4,-1l1,5l4,2l8,-9h4l10,5l1,6l4,10l3,12l3,10h7l2,10l7,1l4,5l-1,2h-1h3v-1v1l-1,7h-4v2h-3v3h-1v1v-1h-1l-1,2h-2v3l-2,3h-1l-1,-1v1v-1l-1,-1v-1l-1,1l-2,1h-1l-1,1v1l-1,1v4h-1l-2,-1h-3v-6l-1,-1v2l-1,2v12l-2,4h-1v1v-1h-3v-1l-1,1v2v-1v1l-1,3l-2,1h-1h1h-1v-4l-1,-1v1v-1v4v-1v2h1l-1,2v1v-1v1ZM1161,180v1v-1ZM1161,180v1v-1ZM1201,143h0ZM1201,143h0ZM1199,145v-1v1ZM1199,145h-1h1ZM1198,147h1h-1h1l-1,1ZM1196,146h-1h1ZM1193,149h1ZM1192,151v-1v1ZM1190,154h0ZM1190,154h-1h1ZM1187,153h1v1ZM1184,153l2,1l-1,3l-3,1v-3l1,-2ZM1187,158h-1v-1ZM1185,160h0ZM1185,160h0ZM1183,162v-1ZM1183,161h1h-1h1v2l-1,-1v1v-1ZM1182,156v1h-1v-1h1ZM1183,161h-1v-1ZM1181,157v-1v1ZM1181,160h0ZM1181,160h0ZM1181,165h0ZM1180,160v1h1h-1l1,1l-1,1l-2,-1v-2ZM1181,165v-1v1v-1v1ZM1181,165h0ZM1180,161h0ZM1180,161v-1v1ZM1181,164h0ZM1181,164h0ZM1174,152v1h1v1h-1v-1ZM1178,167h-2v-1h-1v-1h2v1l1,-1ZM1177,164l-1,1h-1v1v-1ZM1174,161v2v-2h-1v-2ZM1168,174v-1v1ZM1168,174v-1v1ZM1167,171h0ZM1167,171h0ZM1167,174h-1v-1l1,1h-1h1ZM1162,175h-1v1h1h-1v1h1h-1v1v-5v1h1ZM1158,180h0ZM1156,179h0ZM1156,179v1v-1ZM1155,181h0ZM1155,181h0ZM1155,182l-1,1h1h-1v-1ZM1154,182v1h-1v-1h1h-1ZM1154,186h-1v-1Z"/><path class="MAS1" d="M1165,243l-5,5l-1,-7v1l-3,4l-5,3v2v-2l-4,-4l-5,-4v-4l-9,3l-20,4v1v-1v1l-15,2v1v-21l16,-4l25,-5l1,-4l6,-3h1v2v-1l3,4l3,-1v1l-3,3l-1,2v1l-1,4l-1,1l2,1v1v-2l5,2l3,5l3,4l7,2l6,-5l1,3l-1,-1v1h1v2l-9,3v1ZM1165,249h1l-6,4v-4ZM1157,251h-1v1v-1ZM1156,252v-1v1Z"/><path class="MAS2" d="M1165,243l-5,5l-1,-7v1l-3,4l-5,3v2v-2l-4,-4l-5,-4v-4l-9,3l-20,4v1v-1v1l-15,2v1v-21l16,-4l25,-5l1,-4l6,-3h1v2v-1l3,4l3,-1v1l-3,3l-1,2v1l-1,4l-1,1l2,1v1v-2l5,2l3,5l3,4l7,2l6,-5l1,3l-1,-1v1h1v2l-9,3v1ZM1165,249h1l-6,4v-4ZM1157,251h-1v1v-1ZM1156,252v-1v1Z"/><path class="RIS1" d="M1151,249v2h-2v-1l-1,-1v-3ZM1148,248v1l1,1v1l-2,1l-1,1v-1h1v-5l1,-1ZM1147,245v2l-3,-2l1,6v5l-8,3v-3l-4,-16l9,-3v4ZM1147,248h-1l1,-1ZM1146,251h0ZM1146,252v1h-1h1h-1v-1h1h-1v-1h1Z"/><path class="RIS2" d="M1151,249v2h-2v-1l-1,-1v-3ZM1148,248v1l1,1v1l-2,1l-1,1v-1h1v-5l1,-1ZM1147,245v2l-3,-2l1,6v5l-8,3v-3l-4,-16l9,-3v4ZM1147,248h-1l1,-1ZM1146,251h0ZM1146,252v1h-1h1h-1v-1h1h-1v-1h1Z"/><path class="mesh" d="M755,513v8l-6,3v4l-3,5l-1,10l-3,4v1M743,562l3,1l-2,6l3,4l-1,1v1M746,574l1,3l4,3l-2,2l-2,3l-1,4l-1,-1l1,1l-6,9h1M779,624h1v1h-1v1l3,5v1l3,6h1l1,2h1M1071,375h0M662,546v-1l-1,-1v1l-3,-1v-1h-2l-2,-2h-1M650,539h-1h1M183,529h5v-1l2,-7l-3,-1v-11h2l5,-7v-7l3,-2l4,-4l4,-1l-5,-7v-5l-2,-11l2,-5v-19l1,-1v-6l3,-1h6l4,4l4,-4l1,-11l3,-11l18,3l17,3l27,5l50,7l-3,15v7l-3,14l-4,35l-3,15l-3,29l-6,35l-1,12M665,547l-1,-1v-57l-2,-6l-2,-20h38l64,-3v2l1,1h1l-7,11l15,-1l1,4v-1l-3,8l-4,3l-1,4h-2h2l-1,2v6l-4,4v4M760,507l-3,-1l-2,6v1v-1M784,444l-1,12l-5,2l31,-2l-1,-5l5,1l29,-4l25,-1l4,-1l15,-1l21,-2l29,-4l17,-3v1l-1,4v2l-1,1l-4,7h-6v1l-7,6l-7,1l1,1v1l-13,10l-5,1l-6,5l-2,5l-4,2v7l-29,3l-33,3l-27,3h-14l-35,3M334,429l4,-28v-10l5,-34l4,-21l2,-21l31,3l30,4l46,4l26,3h16l-2,29l-1,26l-1,1v32l-2,28l-22,-2l-43,-3l-23,-2l-24,-4l-46,-5M924,388l6,-2l3,-5v-11h7v-8l5,-7h6l6,-7v-10l2,-8v-12l1,-1l4,26l22,-3l3,14v-1l3,-4h1l1,-1v-1l2,-2h3l2,-5l1,-1l-1,1h1v-1M805,418h1v1l-3,3l3,6l-8,2l-2,5l2,5l-10,-3h-1l-5,6l2,1l-8,-4v-8l-2,-8l-8,-5l-9,-5l-4,-4v-4l4,-7l1,-7l-8,-3l-4,3l-2,-11l-5,-3l-10,-9l-4,-11l1,-9h1M1022,338l1,1h-1M726,349h-1v-1l-6,-5l-53,3h-29l-4,-1l-2,-2l-1,-14v-1v1M629,326l1,-1v1M822,303l43,-5v2l2,12l4,35v9l2,18h1l6,-1l4,1l3,7h8l5,4l2,-3l9,2l6,-6l1,6l6,3M250,65l-6,25l3,8h-1l2,10v1h-2v1l7,6l6,11v1l2,6l8,2l-2,7l-4,7v3l1,6l-4,1v4l-1,2v1v-1M618,290l-2,-4v-1l-2,-2h1l1,-2v-1l2,-5l-2,-7v-1v1M259,167l6,1h2l4,-3l2,5l1,2v6l4,7l-1,2v4l5,2l2,11l5,-1l7,2l1,-2h1l2,1h3l4,1h3l4,1v-2l3,-3l6,8l-3,14l-2,18l-5,25l-2,13M209,174l1,-1l11,-15l-1,-5l-4,-3l-1,-5v-15l5,-18l6,-30l5,-21M475,98l-1,24l-3,23v12l-3,28l-2,27l-11,-1l-24,-3h-7l-42,-5l-50,-7l-7,-2l-2,15M604,105v2h1v4h1l1,3l-1,1v7v-1M606,122v5l-1,1l3,10h1v2h1v2l1,4v10h1v1h-1v1h1v1h-1v1h1h-1v2l2,2h-1v8l1,2v2l1,1v1l3,9l-1,5l-3,-1h-33l-64,-2l-33,-3l-15,-1M616,192l-1,5l-4,3l3,7l5,3v21l-1,1v29M456,326l1,-18l4,-39l5,-57M742,547l2,1v1h-1v1h1v-1M1117,155l1,10v6l-6,5l1,13l-2,5v17l2,11l1,1l-16,4l-2,-5l-3,-18l-3,-2v1l-1,1v-3l-4,-10v-10l-2,-6l-1,-11M740,287l59,-4M840,628h-1v-6l-6,-4v-5l13,-2l20,-1l30,-4l4,8l47,-3l19,-1l1,4v2h2l2,-1l-1,-7v-3h-1l3,-3l4,1h7M685,647v1l-5,7l2,3v1M869,494l4,15l3,7l10,38l2,7l4,6v5l-2,8l2,10l1,12l3,4M815,632l-2,-10l-1,-16l-2,-8v-63h1v-33l-2,-2M990,563h1M898,491l28,-4v2v-1M873,374l2,9l-8,4l-6,-1l1,6l-4,3v4l-5,2l-1,7h-7l-4,-1l-4,7l-3,-3h-1l-8,5l-4,-2h-6l-1,3h-1l-5,-2l-2,4M744,548v6h1l-2,8l-30,1h-38v29l2,3h1l1,2h1v1l1,8l3,3l1,2l1,3h1v1l1,1v5l1,3h-1l-1,4l-2,5l-1,5v2h-1h1l1,7v1M964,532h-1h1M963,532l2,1l1,1h-1l4,2h1v1h1l2,2l1,3l1,2h1v3l1,1h-1v-1M976,548l6,4v1l2,2v2h1v1h-1v1h1v2v-1M985,561v1h1M987,562h1M496,358l22,2l61,2h36v1h28l7,2l2,3l-1,2l-1,1l-2,4l4,8l5,3h1h-1M658,386h1v63h-81l-35,-1l-13,-1h-14l-24,-2M778,458l-1,1h-1h1h-2h2M780,622h1M780,623l-1,1h1M775,459h1l-3,7l2,3l-3,4M660,463l-1,-14M926,487l16,-8l1,-1l-1,1h1v-1M943,479h1v-1l30,-2l9,8l23,-4l9,6l21,16M1037,502h0M41,218v-1M643,363l-5,-8l-4,-7v-1v1M1102,277l-2,-3l3,-4l-2,-3l-3,-19v-1l15,-2v-1l20,-4l4,16v3M1102,277v1M1044,358v-3M634,347l-1,-2M1044,355v-2h-1l-2,-1l2,-1l1,4M1072,321v1M986,340l28,-6l51,-10M1066,324l3,-5l4,1M1071,326v-1M942,411l-11,10v1l-6,6v1l-6,8l-12,6M1151,249v2M1151,249l-3,-3M1147,245l-5,-4v-4l-9,3M1098,247v-20M1114,223l25,-5l1,-4l6,-3h1M1043,359h0M1041,352l-1,-1v1l-9,-4l1,-3l-6,-1M1084,370l-4,3h-1M953,436h7l23,-3l30,-5l47,-10l19,-3M1080,414h1M1076,318l1,-1M1078,315v-1M1079,314v-1l6,-6l-9,-10l-4,-1l2,-14v-1l4,-8l18,6M1096,284v3M1096,288h0M1095,290h-1M1093,290l-1,4M1074,319l1,-1M1078,273l-1,-2h-3l-5,-4l-1,-4l-1,-1v-1v1M461,269l20,2l44,3l51,1l2,3l7,4l4,-3l5,1l5,-1v1h1l13,6l4,4h1M1067,261h-2l-3,-2l-2,-1l-33,7l-33,6l-21,4h-4l-1,-7M954,279l3,18v6l3,14M865,300l27,-5M470,443l-1,15l-2,8l-1,23l-3,29v11l-2,11l-2,25v9l-2,13l-35,-3l-50,-5l2,6M188,256l35,8l26,5l-6,35l-3,10l-6,36l-5,20l-4,26l-3,15M198,465l-23,-35l-28,-42l-11,-15l-5,-9l-10,-14l-12,-19l-4,-5l6,-26l15,-59l24,7l38,8l5,-19l6,-31l5,-10l-5,-5v-6l10,-11l1,-1M675,563v-15l-5,-1h-1l-1,1h-2h1l-1,-1h-1M663,546h-1h1M738,171h2l1,1h1l1,3h1v2l22,4l6,3h5l1,1h2l6,1l2,4h1l2,2v9h-1h1l3,-1v7l3,1M666,547v1M727,259l-2,-10l-13,-9l-3,-6l-12,-5l-4,-6v-15l2,-4l-5,-3l3,-8l5,-4l3,-2v-17h1M705,167v1M1147,204v1M1147,204h-1M1145,204v-1l-3,-4h-1l-1,-1l-1,-2l-2,-10l-8,-22l-2,-10l-4,-9M92,107l1,1M96,108l5,4l-1,14l5,3l2,2l9,-2l8,1l5,5l12,-1l4,3l20,-2h10l40,10M94,109h1M92,105v1M90,104h1M82,101v1M654,541l-1,-1v1M653,540l-3,-1v-1h-1v1v-1l-4,1h-6l-6,1h-7l-5,3l-6,-1l-11,-5l-1,3M603,540l-3,4l-3,-5h-1v1l-4,-2h-6v1l-4,-3l-3,-6l-4,1l-5,2l-4,-3h-5l-3,-1h-3v-1h-1l-3,-5l-2,-1l-1,1v1h-1v-1l-3,-1l-2,1l-7,-9v-22l1,-4v-20l1,-6l-68,-4M1002,340h7l1,-2l1,-1l5,-2l6,3v1M727,349h-1M1023,339l3,5l-1,5l-13,-7v9l-3,5v1l-3,2l-2,5l-3,-1l-3,7l-1,5l-9,-2h-1v1h1l-1,3v2l-2,7l-1,5l-5,7l1,8l-5,1l-8,7l-13,3l-1,1l-8,-2h-1v-1h-1v-1h1l-2,-1v-1l1,-1h-1v-1h-1v1h-1v-1l-3,-1v-1h-3v-1l-3,-4l-2,-2l-1,-2l-3,-4l-1,-7v-1M630,328l-1,-2h1M630,325l-1,-5l-3,-1l-1,-14l-2,-1l-3,-4v-9l-2,-1h-1M616,267l-1,-6h55l56,-2h1l3,6l-2,9l3,7l7,2l2,4l5,4v3l6,3v10l-3,7l-7,4l-8,1l-1,6l4,2v6l-3,8l-5,1l-1,7M807,305l1,17l2,11l1,24h1v17l-1,1M812,374l-1,1v3l3,8l1,2l-3,9l-4,7h-1v1M807,404v1l-1,1l1,2l-2,4l-1,4l1,2M926,489h-1l-1,2l-1,1l-1,4l9,5h2l3,3l7,11l9,4l9,9v2h2v2h1M740,598l-4,9l-1,13l27,-2l19,-1M781,617l1,1h-1v3h-1v1h1M780,622v2M1088,356h-1l-12,3l-6,-21l-3,-14h-1M738,171h1M664,546h-1M311,279v6l-4,19v4l42,7M249,269l28,5l34,5M41,218l23,5l16,6l16,4l13,4l17,4M1044,355h0"/><text x="344" y="745">Hawaii</text><text x="135" y="668">Alaska</text><text x="986" y="668">Fla.</text><text x="871" y="261">Mich.</text><text x="1167" y="136">Maine</text><text x="1060" y="238">N.Y.</text><text x="1024" y="300">Pa.</text><text x="1024" y="402">Va.</text><text x="962" y="381">W.Va.</text><text x="913" y="339">Ohio</text><text x="838" y="351">Ind.</text><text x="773" y="346">Ill.</text><text x="752" y="228">Wis.</text><text x="1029" y="463">N.C.</text><text x="865" y="474">Tenn.</text><text x="711" y="515">Ark.</text><text x="706" y="412">Mo.</text><text x="926" y="556">Ga.</text><text x="988" y="515">S.C.</text><text x="875" y="422">Ky.</text><text x="850" y="561">Ala.</text><text x="711" y="622">La.</text><text x="778" y="566">Miss.</text><text x="680" y="305">Iowa</text><text x="660" y="176">Minn.</text><text x="599" y="494">Okla.</text><text x="547" y="607">Texas</text><text x="393" y="510">N.M.</text><text x="573" y="407">Kan.</text><text x="558" y="320">Neb.</text><text x="542" y="235">S.D.</text><text x="545" y="150">N.D.</text><text x="388" y="259">Wyo.</text><text x="363" y="146">Mont.</text><text x="414" y="381">Colo.</text><text x="255" y="228">Idaho</text><text x="286" y="356">Utah</text><text x="260" y="494">Ariz.</text><text x="178" y="330">Nev.</text><text x="127" y="187">Ore.</text><text x="163" y="94">Wash.</text><text x="86" y="381">Calif.</text><text x="1253" y="222">N.H.</text><text x="1253" y="272">Vt.</text><text x="1253" y="322">Conn.</text><text x="1253" y="372">Md.</text></g><g class="cartogram"><path class="CAS1" d="M47,400h60l-20,100h-40Z"/><path class="CAS3" d="M107,400h40v100h-60Z"/><path class="AKS2" d="M47,700h60l-20,100h-40Z"/><path class="AKS3" d="M107,700h40v100h-60Z"/><path class="WAS1" d="M147,200h60l-20,100h-40Z"/><path class="WAS3" d="M207,200h40v100h-60Z"/><path class="ORS2" d="M147,300h60l-20,100h-40Z"/><path class="ORS3" d="M207,300h40v100h-60Z"/><path class="NVS1" d="M147,400h60l-20,100h-40Z"/><path class="NVS3" d="M207,400h40v100h-60Z"/><path class="HIS1" d="M147,700h60l-20,100h-40Z"/><path class="HIS3" d="M207,700h40v100h-60Z"/><path class="MTS1" d="M247,200h60l-20,100h-40Z"/><path class="MTS2" d="M307,200h40v100h-60Z"/><path class="IDS2" d="M247,300h60l-20,100h-40Z"/><path class="IDS3" d="M307,300h40v100h-60Z"/><path class="UTS1" d="M247,400h60l-20,100h-40Z"/><path class="UTS3" d="M307,400h40v100h-60Z"/><path class="AZS1" d="M247,500h60l-20,100h-40Z"/><path class="AZS3" d="M307,500h40v100h-60Z"/><path class="NDS1" d="M347,200h60l-20,100h-40Z"/><path class="NDS3" d="M407,200h40v100h-60Z"/><path class="WYS1" d="M347,300h60l-20,100h-40Z"/><path class="WYS2" d="M407,300h40v100h-60Z"/><path class="COS2" d="M347,400h60l-20,100h-40Z"/><path class="COS3" d="M407,400h40v100h-60Z"/><path class="NMS1" d="M347,500h60l-20,100h-40Z"/><path class="NMS2" d="M407,500h40v100h-60Z"/><path class="TXS1" d="M347,600h60l-20,100h-40Z"/><path class="TXS2" d="M407,600h40v100h-60Z"/><path class="SDS2" d="M447,200h60l-20,100h-40Z"/><path class="SDS3" d="M507,200h40v100h-60Z"/><path class="NES1" d="M447,300h60l-20,100h-40Z"/><path class="NES2" d="M507,300h40v100h-60Z"/><path class="KSS2" d="M447,400h60l-20,100h-40Z"/><path class="KSS3" d="M507,400h40v100h-60Z"/><path class="OKS2" d="M447,500h60l-20,100h-40Z"/><path class="OKS3" d="M507,500h40v100h-60Z"/><path class="LAS2" d="M447,600h60l-20,100h-40Z"/><path class="LAS3" d="M507,600h40v100h-60Z"/><path class="MNS1" d="M547,200h60l-20,100h-40Z"/><path class="MNS2" d="M607,200h40v100h-60Z"/><path class="IAS2" d="M547,300h60l-20,100h-40Z"/><path class="IAS3" d="M607,300h40v100h-60Z"/><path class="MOS1" d="M547,400h60l-20,100h-40Z"/><path class="MOS3" d="M607,400h40v100h-60Z"/><path class="ARS2" d="M547,500h60l-20,100h-40Z"/><path class="ARS3" d="M607,500h40v100h-60Z"/><path class="MSS1" d="M547,600h60l-20,100h-40Z"/><path class="MSS2" d="M607,600h40v100h-60Z"/><path class="WIS1" d="M647,200h60l-20,100h-40Z"/><path class="WIS3" d="M707,200h40v100h-60Z"/><path class="ILS2" d="M647,300h60l-20,100h-40Z"/><path class="ILS3" d="M707,300h40v100h-60Z"/><path class="KYS2" d="M647,400h60l-20,100h-40Z"/><path class="KYS3" d="M707,400h40v100h-60Z"/><path class="TNS1" d="M647,500h60l-20,100h-40Z"/><path class="TNS2" d="M707,500h40v100h-60Z"/><path class="ALS2" d="M647,600h60l-20,100h-40Z"/><path class="ALS3" d="M707,600h40v100h-60Z"/><path class="MIS1" d="M747,200h60l-20,100h-40Z"/><path class="MIS2" d="M807,200h40v100h-60Z"/><path class="INS1" d="M747,300h60l-20,100h-40Z"/><path class="INS3" d="M807,300h40v100h-60Z"/><path class="WVS1" d="M747,400h60l-20,100h-40Z"/><path class="WVS2" d="M807,400h40v100h-60Z"/><path class="VAS1" d="M747,500h60l-20,100h-40Z"/><path class="VAS2" d="M807,500h40v100h-60Z"/><path class="GAS2" d="M747,600h60l-20,100h-40Z"/><path class="GAS3" d="M807,600h40v100h-60Z"/><path class="FLS1" d="M747,700h60l-20,100h-40Z"/><path class="FLS3" d="M807,700h40v100h-60Z"/><path class="OHS1" d="M847,300h60l-20,100h-40Z"/><path class="OHS3" d="M907,300h40v100h-60Z"/><path class="MDS1" d="M847,400h60l-20,100h-40Z"/><path class="MDS3" d="M907,400h40v100h-60Z"/><path class="NCS2" d="M847,500h60l-20,100h-40Z"/><path class="NCS3" d="M907,500h40v100h-60Z"/><path class="SCS2" d="M847,600h60l-20,100h-40Z"/><path class="SCS3" d="M907,600h40v100h-60Z"/><path class="VTS1" d="M947,100h60l-20,100h-40Z"/><path class="VTS3" d="M1007,100h40v100h-60Z"/><path class="NYS1" d="M947,200h60l-20,100h-40Z"/><path class="NYS3" d="M1007,200h40v100h-60Z"/><path class="PAS1" d="M947,300h60l-20,100h-40Z"/><path class="PAS3" d="M1007,300h40v100h-60Z"/><path class="DES1" d="M947,400h60l-20,100h-40Z"/><path class="DES2" d="M1007,400h40v100h-60Z"/><path class="NHS2" d="M1047,100h60l-20,100h-40Z"/><path class="NHS3" d="M1107,100h40v100h-60Z"/><path class="CTS1" d="M1047,200h60l-20,100h-40Z"/><path class="CTS3" d="M1107,200h40v100h-60Z"/><path class="NJS1" d="M1047,300h60l-20,100h-40Z"/><path class="NJS2" d="M1107,300h40v100h-60Z"/><path class="MES1" d="M1147,0h60l-20,100h-40Z"/><path class="MES2" d="M1207,0h40v100h-60Z"/><path class="MAS1" d="M1147,100h60l-20,100h-40Z"/><path class="MAS2" d="M1207,100h40v100h-60Z"/><path class="RIS1" d="M1147,200h60l-20,100h-40Z"/><path class="RIS2" d="M1207,200h40v100h-60Z"/><path class="mesh" d="M47,0v800M147,0v800M247,0v800M347,0v800M447,0v800M547,0v800M647,0v800M747,0v800M847,0v800M947,0v800M1047,0v800M1147,0v800M1247,0v800M0,0h1294M0,100h1294M0,200h1294M0,300h1294M0,400h1294M0,500h1294M0,600h1294M0,700h1294"/><text x="97" y="450">Calif.</text><text x="97" y="750">Alaska</text><text x="197" y="250">Wash.</text><text x="197" y="350">Ore.</text><text x="197" y="450">Nev.</text><text x="197" y="750">Hawaii</text><text x="297" y="250">Mont.</text><text x="297" y="350">Idaho</text><text x="297" y="450">Utah</text><text x="297" y="550">Ariz.</text><text x="397" y="250">N.D.</text><text x="397" y="350">Wyo.</text><text x="397" y="450">Colo.</text><text x="397" y="550">N.M.</text><text x="397" y="650">Tex.</text><text x="497" y="250">S.D.</text><text x="497" y="350">Nebr.</text><text x="497" y="450">Kans.</text><text x="497" y="550">Okla.</text><text x="497" y="650">La.</text><text x="597" y="250">Minn.</text><text x="597" y="350">Iowa</text><text x="597" y="450">Mo.</text><text x="597" y="550">Ark.</text><text x="597" y="650">Miss.</text><text x="697" y="250">Wis.</text><text x="697" y="350">Ill.</text><text x="697" y="450">Ky.</text><text x="697" y="550">Tenn.</text><text x="697" y="650">Ala.</text><text x="797" y="250">Mich.</text><text x="797" y="350">Ind.</text><text x="797" y="450">W.Va.</text><text x="797" y="550">Va.</text><text x="797" y="650">Ga.</text><text x="797" y="750">Fla.</text><text x="897" y="350">Ohio</text><text x="897" y="450">Md.</text><text x="897" y="550">N.C.</text><text x="897" y="650">S.C.</text><text x="997" y="150">Vt.</text><text x="997" y="250">N.Y.</text><text x="997" y="350">Pa.</text><text x="997" y="450">Del.</text><text x="1097" y="150">N.H.</text><text x="1097" y="250">Conn.</text><text x="1097" y="350">N.J.</text><text x="1197" y="50">Maine</text><text x="1197" y="150">Mass.</text><text x="1197" y="250">R.I.</text></g></svg>