<?xml version="1.0" encoding="utf-8"?>
<!DOCTYPE svg PUBLIC "-//W3C//DTD SVG 1.1//EN" "http://www.w3.org/Graphics/SVG/1.1/DTD/svg11.dtd">
<svg version="1.1" xmlns="http://www.w3.org/2000/svg" width="1000" height="1000">
  <path class="AL" d="M473,29l201,1l25,137l36,206l17,86l10,33l23,40l-5,24l20,12l-29,26v32l-10,19l1,37l14,28l-11,53l3,23l17,32l-154,3l-287,-2l-7,27l18,25l23,20l-8,20l7,23l-28,30l-41,8l11,-14l-29,-22l1,-26l-9,-41l-25,47l-1,25l-49,-2l-9,-300l45,-378l26,-214l-16,-22Z"/>
  <path class="AK" d="M481,267l22,-3l5,-16l18,-2l8,-13l20,14l23,5l16,2l1,1l-1,2v1l18,-5l16,4l34,-3l2,-2l30,7l72,262l27,-1l29,16l16,-2l8,-24l44,26l43,40l34,4l8,32l-15,-11l-15,-11l-8,12v-15l-12,-10h-1v1l-59,-39l-2,-4l4,17l-13,-3v-1l-1,-2l-11,13l-46,-20l-6,-3l-45,-4l-17,8l-16,-9l-42,-14l-1,10l-7,28l-25,14l-22,12l7,-39l9,-16l-18,5l-14,37l-15,13l12,11l-11,22l-28,21l-4,12l-33,24l-3,11l-20,3l-44,22l-2,-7l10,-14l26,-4l3,-10l41,-39l10,-37l-16,8l-15,-6l5,8l-31,-10l-10,-7l-9,-32l-28,9l-3,-20l15,-11l-23,-3l-9,-13v-1l4,-20l18,-18l34,-18l17,-8l-8,-23l6,-12l-23,13l-41,-7l2,-20l-22,-12l29,-18l25,-6l-2,15l1,1l21,2l10,-2l1,-3l9,-8l-14,-1l-1,-15l-24,-4v-9l-26,-29l4,-16l21,1ZM882,568l-14,-21l12,2l14,19ZM607,621l7,13l-23,22l-13,-22ZM351,437l35,20l-14,5Z"/>
  <path class="AZ" d="M689,28h55l137,-4l7,247l20,698l-89,3l-201,2l-183,-68l-111,-40l-232,-90l1,-22l17,-18l16,1l16,-18l-6,-32l-23,-3l2,-35l-6,-25l11,-1l16,-23l6,-25l-5,-40l17,-27l27,-14l13,-18l-33,-25l-12,-44l-22,-27l2,-42l9,-11l-14,-54l-2,-57l-5,-40l17,-8l35,1l16,22l13,-2l15,-28l2,-135l114,3h299Z"/>
  <path class="AR" d="M86,84l235,5h362l191,-4l5,21l13,6l-3,27l-27,21l-28,45l128,-4l12,19l-19,4l8,15l-22,20l-25,5l1,15l19,10l-18,8l8,19l-17,-10l-13,37l-8,-16l-12,14l19,8l-17,20l18,17l-2,25l-16,-1l-7,24l-18,-3l11,30l-31,19l-14,-12l5,31l-13,30l-12,-11l9,31l-9,11l2,20l-34,11l3,15l-18,8l-3,15l-18,-5l6,15l-9,12l17,8l-6,15l-36,11l13,10l-10,22l16,12l-30,5l13,26l-17,-11l-12,9l19,17l-20,9l10,13l-10,16l17,14l2,19l12,18l-1,18l-22,9l16,11l-10,13h-209l-361,-6l2,-126l-22,-9l-46,10l-19,-24l10,-237l10,-180l-29,-260Z"/>
  <path class="CA" d="M597,869l-3,-1l-17,-14l-23,3l-9,-29l-25,2l-34,-13l-3,-11l-27,-17l-35,-5l-36,1l-16,-13l3,-52l-22,-16l1,-19l-29,-21l-53,-83l13,-33l-9,-17l-16,2l-22,-24l-9,-33l2,-27l11,20l21,15l-5,-23l-12,-12l-4,-21l42,-6l-23,3l-20,-12l-12,33l-22,-19h-15l6,-18l-58,-80l-5,-39l5,-18l-4,-31l-37,-44v-26l13,-18l15,-68l-11,-41l4,-19l245,9h67l-1,9l-2,290l170,152l227,204l37,33v13l16,18l7,23l21,13l-31,39l4,24l-17,28l7,37h13l5,19l-9,11l-66,9l-147,19l-10,-19l-4,-29l-19,-30Z"/>
  <path class="CO" d="M393,163l130,1l200,-2l224,-7l8,201l10,229l9,250l-371,9h-284l-294,-9l7,-181l-1,-54l6,-102l13,-343l133,5Z"/>
  <path class="CT" d="M195,154l183,8l96,2l-2,25l25,-3l6,-22l71,3l37,-2l191,1l31,2l132,2l10,230l-3,164l-22,5l6,46l-15,12l-10,-15l-13,13l-22,-4l-8,-11l-17,28l-31,-5l-8,-17l-8,-63l5,75l-10,15l-46,-8l1,16l-24,-7l-4,10l-33,5l-10,-16l2,-19l-24,-18l20,24l-3,27l-15,13l-7,-12h-26l-44,20l-17,-15l-48,5l-8,12l-29,-14l-33,13l-3,-11l-34,13l-5,-33l-15,24l-12,3l-27,31l-15,-4l-42,42l-25,-18l-39,36l-13,-6l-27,9l-45,38l-30,4l-38,21l-14,-1l-29,16l1,-15l-34,-57l120,-72l-32,-54l32,-433l3,-58Z"/>
  <path class="DE" d="M419,25h23l52,21l-25,17l-27,58l-20,27l-13,6l-15,21l1,15l26,25l-15,64l26,33l12,34l17,23l21,12l23,43l6,34l-8,21v34l7,48l27,23l17,36l-1,29l69,86l27,13l23,-13l14,89l1,42l-9,-25l1,-33l-32,8l7,26l15,16l-66,25l21,1l-6,13l32,-20l20,15l19,-24l6,106h-158l-124,-2l-63,-4l-15,-263l-33,-549l1,-52h8l14,-29l34,-33l25,-12Z"/>
  <path class="DC" d="M831,461l85,87l-289,289l-135,135l-24,3l-22,-32l6,-71l15,-63l29,-80l23,-16l30,-47l39,3l29,-22l49,-22l37,-52l4,-37l-10,24l-39,59l-32,11l-39,27l-36,-8l-16,7l-23,38l-27,13l-5,-63l-37,-38l-11,-2l23,27l14,37l-3,48l-42,-76l-38,-32l-35,-36l-18,-35l-5,-28l-44,-19l-53,-4l-54,-24l-2,10l-27,-28l-21,-43l-22,-24l-22,-42l84,-82l92,-93l136,-135l109,107l215,218ZM345,604l26,27l-12,6l-15,-26l-22,-5l-18,-39h12ZM324,555l-12,-1l-16,-27v-15l20,4Z"/>
  <path class="FL" d="M966,762l-25,53v29l-13,14h-17l-20,14l-8,-5l-35,8l-14,-13l3,-17l29,18l-5,-18l-24,-6l-27,-62l-46,-19l-14,-21l-7,-48l-24,-12l-2,-49l-25,10l-26,-35l-17,-51l-12,-9l35,-50l-35,-29l-7,14l16,14l-7,20l-11,-8l-14,-16l9,-27l-2,-19l16,-38l1,-58l-20,-32v-12h-28l-25,-38l-20,-11l-1,-22l-22,-14l-13,-23l-41,-25l-43,6l3,23l-25,-2l-45,25l-50,4l-8,-30l-14,-26l-29,-12l6,-10l-20,-7l11,18l-41,-20l-35,-11h31l-19,-15l-22,-1l-21,11l-57,3l20,-11l-31,-19v23l-29,15l2,-52l-27,-28l4,-19l181,6h137l17,42l167,9l158,10l6,30l16,-1l4,-31l-6,-11l12,-24l28,11l36,6l-3,39l-21,6l-7,50l11,11l7,25l-15,27l2,41l9,16l9,-15l-16,-13l-4,-28l20,-28l-19,-36l5,-50l21,2l18,75l29,68l36,75l30,33l-9,23v23l-11,-64l-14,-10l5,25l23,64l33,65l15,49l19,34l15,37l2,45Z"/>
  <path class="GA" d="M876,622l14,11l-8,14l-13,-17ZM840,690l7,7l-22,11l20,10l-22,24l-1,24l9,9l-30,-3l11,17l-12,16l7,29l-13,16l1,47l-41,-3l-28,-16l-23,8l-4,28l6,10l-6,50l-21,1l-7,-12l-2,-32l-463,-30l-14,-13l-1,-24l-12,-34l-15,-22l9,-94l-12,-14l-1,-41l13,-15l3,-36l27,-24l-16,-12l-1,-39l-12,-16l-8,-39l-13,-32l-39,-280l-21,-141l253,3l166,-3l-42,56l3,10l29,15l20,25h25l9,26l17,19l2,18l36,47l42,35l15,30l27,14l18,18l-1,25l40,47l17,3l20,18l2,26l11,10l1,42l22,12l31,57l1,34l26,41l-3,11l-39,-12l12,14ZM856,666l16,6l-16,20l-8,-19ZM845,731l-11,31l-11,-19ZM814,777l19,4l-3,16l-16,17l-6,-23ZM810,855l-12,41l-5,-31Z"/>
  <path class="HI" d="M789,556l46,27l27,5l42,23l20,19v25l16,-1l3,18l31,21l-29,33l-37,17h-19l-35,23l-31,43l-43,-37l5,-41l-19,-57l-12,-16l14,-23l26,-25l-13,-34ZM657,415l22,24l40,-7l23,21l19,5l-6,26l-44,14l-26,-4l-4,-34l-12,3l-26,-20l-1,-14ZM664,494l4,17l-26,-5ZM546,380l92,13l-28,19l-33,-10l-43,1ZM590,434l16,3l16,20l-15,13l-16,-2l-13,-31ZM417,288l26,34l-2,13l17,9l16,21l-23,8l-19,-13l-38,5l-21,-35l-4,-18h24ZM173,190l14,8l-4,42l-19,17l-30,-7l-24,-14l-5,-17l10,-14l26,-14ZM54,231l1,19l-23,22l-5,-19Z"/>
  <path class="ID" d="M325,27l-4,138l29,37l7,34l-10,2l20,19l19,6l35,49l1,10l27,15l1,11l25,-4l-15,86l9,23l-15,11l-1,29l21,14l39,-32l12,13l7,37l28,36l-5,15l16,22l19,1l16,46l23,-10l33,6l9,-15h79l-2,-20l14,-6l11,21l18,13l13,334l-238,7l-200,-1l-162,-5l9,-248l14,-42l-7,-12l-23,-7v-27l19,-35l10,-4l10,-33l12,-15l5,-24l22,-40l-7,-17l-21,-11l-16,-34l3,-14l-9,-33l6,-214l7,-134Z"/>
  <path class="IL" d="M356,25l170,3l162,-1l100,-2l-21,126l-40,1l7,413l-12,8l6,15l-11,15l21,29l2,37l-31,45l-1,12l-32,35l10,9l-13,12l-1,45l-18,27l11,34l-53,14l-6,16l12,27l-5,12l-62,-26l-13,2l-36,39l-32,-51l13,-18l-14,-33v-20l-43,-36l-15,4l-6,-14l-33,-25l-16,-23l-1,-15l27,-51l-4,-17l14,-20l-46,-22l-14,17l-14,-10l-3,-32l-10,-32l-34,-25l-44,-50l-17,-78l9,-30l11,-7l-4,-27l36,-18l5,-25l19,-23l1,-26l-21,-25l10,-30l49,-6l41,-23l4,-25l17,-11l6,-32l-3,-21l-26,-15l-6,-21l-28,-31Z"/>
  <path class="IN" d="M592,27l199,-3l4,116l3,209v115l3,193l-14,11l11,16l-5,22l15,4l-5,23l-34,2l-30,22l-16,-11l-38,6l7,41l-14,17l-24,10l-4,19l-18,19l-16,-2l-13,22l-8,42h-44l-16,-9l-5,-27l-44,30l-1,28l-39,6l-11,-23l-44,18l-7,26l-12,5l-47,-38l-23,7l-15,-16l-2,21l-15,14v-18l-31,6l-12,-13l-9,37l-28,-32l16,3l-4,-37l24,-29l-14,-9l40,-38l30,-64l19,-13l5,-21l-10,-21l7,-18l-12,-9l1,-17l-16,-18l16,-18l-6,-18l15,-14l1,-190l3,-79l4,-306Z"/>
  <path class="IA" d="M804,192l7,29l22,20l-16,23l5,45l13,30l16,13l37,9l8,31l36,28l4,20l35,21l4,23l-5,38l-19,14l-3,30l-57,30l-47,8l-8,35l25,28l-3,35l-18,20l-2,29l-36,14v40l-24,-1l-15,-25l-17,-14l-33,2l-179,7l-212,1l-182,-7l-18,-26l8,-12l2,-41l-11,-40v-54l-25,-17l-3,-31l9,-22l-12,-14l4,-19l-22,-18l-9,-22l3,-18l-12,-17l6,-26l-14,-3l-3,-29l-17,-15l20,-50l-2,-16l12,-14l-4,-21l-14,-3l8,-31l-10,-22l174,6l203,3h173Z"/>
  <path class="KS" d="M117,257l150,4l145,2h182l168,-3l109,-2l13,15l32,-1l10,20l-12,6l-17,33l45,55l20,9l6,145l2,87l5,108l-169,5l-188,4h-160l-106,-1l-218,-4l-109,-3l10,-255l8,-227Z"/>
  <path class="KY" d="M626,293l16,12l17,-7l17,12l16,36l32,3l36,24l18,-12l26,15l18,-3l15,-18l18,-5l5,26l30,18l5,34l-7,18l19,21l-1,10l23,24l4,17l15,6l16,23l-35,34l-47,24l1,12l-18,11l-2,15l-23,5l-6,17l-51,14l-20,14l-137,-1l-64,-3l-26,2l-126,-6h-170l-25,-7v28l-171,-6l6,-19l13,9l23,-61l-10,-14l24,-26l10,-1l49,27l12,-11l-11,-25l5,-14l53,-14l-12,-29l18,-21l44,-14l9,-12l12,11l14,-4l34,25l8,-19l31,-13l10,15l26,-5l4,-30l24,-4l11,21h31l12,-41l20,-4l7,-21l25,-16l-3,-31l34,7l21,-15l21,-1l2,-17l-13,-26Z"/>
  <path class="LA" d="M605,894l-20,-6l24,-17l-13,-1l-14,-19l-17,32l-15,-7l4,-15l-16,-16l-16,-30l-45,-8l-6,-20l-16,2l4,-24l-47,7l10,-25h-29l-24,18l-18,-2l30,36h-21l-20,10l-66,-10l-73,-33l-36,-11l-50,1l-47,6l-18,10l-15,-27l43,-53v-47l-11,-8l13,-23l-5,-30l19,-22l13,-29l8,-43l-2,-34l-11,4l-14,-30l-6,-45l-14,-3l-8,-17l8,-20l-23,-45l-20,-18l4,-218l352,8l161,1l-9,14l27,7l-14,16l-1,19l16,8l-16,12l10,21v20l23,7l-7,13l16,4l-12,10l-1,19l-10,-8l-22,10l-1,11l22,4l-18,16l-21,42l-15,2l-9,47l-21,2l20,8l-20,9l2,35l-13,-6l11,25l-25,7l12,14l-7,13l11,16l-13,8h206l141,-2l-7,32l-11,15l-1,24l13,31l17,16l18,62h-10l-14,27l-18,-4l-9,11l9,13l29,15l14,-6l3,-20l16,-20l10,28l5,8l14,6l-18,13l14,5l-18,8l-2,14l-13,-15l-23,2l17,19l-15,2l-1,5l-16,5l9,16l23,12v17h34l-2,9l37,1l20,32l-5,24l-26,4l-26,21l20,-27l-3,-27l-26,7l-12,-14l6,-12l-24,-9l-2,-10l-31,3l-5,-6l-12,-7l-56,-23l12,-10l-12,-17l3,24l-12,12l33,18v23l-6,5l6,19l-10,14l-25,12l-4,-11l-16,-38l-12,21l-3,-27l-28,23l-6,7l-4,-3l-14,20ZM812,841l17,6l-10,8l-25,-1ZM530,845l15,9l-2,19l-32,-14ZM409,788l35,16l-22,18l-37,-19Z"/>
  <path class="ME" d="M381,810l-12,12l-9,-25l-19,16l14,-23h-12l-38,41l10,23l-28,11l3,13l-12,19l-16,3l-21,54l-25,-13l3,-21l-26,-33l4,-9l-2,-75l-2,-209l-5,-115l25,-1l9,18l12,-43l21,12l-11,-27l25,-34l23,-11l-2,-16l23,-20l-6,-37l11,-17l-8,-9l13,-31l22,-17l10,-60l113,-161l23,5l2,38l21,16l47,-22h28l5,-17l17,1l40,33l24,28l5,239l-2,56l19,10l34,5l5,21l-13,4l13,22l-10,22l21,32l10,-13l18,4l12,20l6,31l-19,4l7,22l6,-19l17,7l-25,42l-20,10l-1,-19l-16,7l-2,16l-20,-11l-2,27l-15,-6l-12,14l1,-23l-27,40l-8,-18l-12,35l-11,-27l-12,-12l-5,13l-19,1l-12,13l2,-22l-22,41l7,17l-35,-26l-11,9l10,-43l-7,-11l-6,18l-25,10l8,23l-18,30l-8,38l-20,19l-18,-32l-21,49l-8,-20l-12,17l-2,-35l-12,17l-6,36ZM606,667l20,22l-35,18l-4,-13Z"/>
  <path class="MD" d="M666,639l19,3l2,25l15,23l-2,22l-21,-16l-4,-16l-19,8l-2,-11l-31,-14l-5,-16l-10,19l-10,-7l-7,-30l-3,25l-28,-21l-14,-27l-36,23l-9,-6l-2,-39l16,-21l15,-7l2,-16l15,-8l2,-25l24,-26l-27,-27l-17,17l-25,-11l-2,-14l-20,-10l-27,-4l-12,-13l13,-29l-29,-20l-34,-9l1,-25l-11,-3l-16,-35l11,-10l-38,-1l-13,-18l-20,-8l-21,20l-20,-5l-21,18l-2,15l-42,-6l-27,-19l-35,39l-31,-5l-41,49l-10,-1l-32,25l5,-142l188,4l216,2h128l248,-3v24l13,157l13,165h131l-5,15l3,19l-11,23l-21,4l-3,19l-21,24l-3,17l-74,10l-31,10l-5,-11l26,-23l-20,1l5,-22l-26,-8l29,-12l-22,-11l15,-28l-14,7l-9,25l-13,-16l12,-4l-12,-14l-9,40l-24,-25l-13,-7l-22,-35l20,-20l-12,-21l54,17l3,-5l-27,-17l6,-33l-17,22l-4,-25l-14,9l-5,-23l23,5l8,-20l-14,-23l12,-9l5,-26l24,-20l-8,-9l-11,23l-19,6l-15,-16l22,-51l29,-15l28,-35l-20,13l5,-25l-27,6v26l-26,25l-5,-31l-32,47v18l-20,8l-18,-13l33,43l-22,2l25,12l-8,17l-22,-24l-5,7l21,16l2,20l-15,-12l11,30l-17,20l9,12l3,56l27,40l-6,16l-13,-3l-9,-22l-27,-15l-9,-32l4,34l37,27ZM708,457l2,11l-20,5l13,-32Z"/>
  <path class="MA" d="M850,656l-10,1l-15,25l-50,9l10,-16l-3,-26l9,-4l-1,-32l-29,3l-7,31l-21,10l-23,-5l-7,45l-23,6l-5,-22l-17,22l-4,-58l-17,-7l-17,-25l-21,-16v-36l-12,1v-44l-111,3v-5l-253,-6l-16,14l1,-14l-181,-8l-2,-13l68,-234l256,12l260,9l13,-17l17,2l-1,-20l14,-10l17,6l5,-16l37,-14l23,6l7,64l19,10l20,-10l13,11l-15,22l-56,22l7,9l-40,38l7,6l-21,32l24,18l24,-10l27,9l13,32l20,26l-2,14l-16,14l13,18l30,10l5,44l33,21l31,3l9,7l17,-13l37,-10l14,-12l1,-36l-20,2l-5,-43l-24,-11l-7,13l-11,-16l15,-5l34,14l19,29l12,34l7,43l-11,-10l-8,20l14,2l-4,20l-11,-7l-63,15ZM955,751l15,29l-14,12l-28,-1l-30,-13l8,-6l29,6l23,-18ZM798,718l7,12l27,7l6,17l-90,8l22,-37l26,-18Z"/>
  <path class="MI" d="M787,966l-142,9l-5,-9l-211,1l-41,-1l21,-105l-13,-128l3,-47l20,-86l16,-54l18,-40l37,-38l-51,-30h-34l-32,33l-3,19l-23,-5l-7,-14l6,-26l-21,5l12,-47l-35,-22l3,-14l-40,-15l-16,4l-42,-23l-99,-32l-10,-25l-16,-16l97,-197l14,6l64,-37l31,-7l338,204l10,37l21,24l44,-7l2,37l16,27l12,-10l26,1l14,16l-16,25l111,65l53,249l-30,97l-5,45l-31,36l-31,21l4,41l-32,32Z"/>
  <path class="MN" d="M913,238l-46,117l-77,2l-88,62l-58,37l-9,-6l-21,15l1,94l-8,10l-31,13l-25,35l-2,24h13l14,18l-13,26v75l-5,13l30,28l24,2l14,19l36,18l3,16l34,28l21,9l21,33l-1,28l6,17l-170,4h-168l-153,-3l-120,-4v-35l10,-240l-3,-25l-24,-10l-16,-32l33,-34l3,-46l-3,-34l-12,-19l-7,-35l4,-41l-6,-75l2,-38l-24,-89l-3,-65l9,-16l-12,-55l104,4l116,3l1,-61l34,13l14,66l-1,19l48,21l43,4l4,18l36,-5l22,-15l32,2l24,14l7,17l16,-2l15,36l12,-21h23l4,13l33,11l14,23l35,-6l18,-16l26,-10l10,23l61,-6l24,15Z"/>
  <path class="MS" d="M724,25h51l17,19l-26,280l-19,225l-8,83l11,188l6,119l-12,6l-16,-13l-30,8l-41,-8l-53,17l-5,-3l-34,29l-16,-10l-12,-45l-23,-29l-3,-23l19,-56l-105,1l-217,-3l12,-13l-3,-24l-11,-13l23,-3l-10,-28l19,8l-7,-32l17,-5l-18,-11l20,-1l10,-43l27,-14l3,-13l28,-31l-28,1l1,-13l30,-3l12,-24l-15,-3l4,-18l-23,-10l18,-20l-18,3l-5,-12l14,-9l-12,-9l-1,-19l12,-10l-22,-11l14,-25l-10,-14h17l-8,-42l4,-22l-18,-21l16,-7l-15,-11l15,-10l-1,-14l24,1l-13,-16l-1,-18l34,-25l-14,-8l21,-3l1,-28l12,-18l30,-9l8,-41l9,-11l1,-27l35,-18l-11,-17h234Z"/>
  <path class="MO" d="M587,81l39,45l-9,44l13,35l8,37l39,35l9,17l43,33l12,62l15,8l13,-19l30,9l20,12l-15,23l6,14l-15,40l-12,17l2,21l17,21l37,26l6,14l17,-4l48,37v26l15,27l-13,19l22,47l14,8l4,-15l23,23l-14,41l7,10l-15,18l-10,-12l-23,32l1,-20h-11l5,59l-25,4l17,13l-16,30l-99,3l11,-22l32,-29l2,-21l-14,-20l-217,3h-254l-185,-3l8,-268l2,-107l4,-111l-31,-9l-16,-34l-23,-29l21,-34h15l-11,-31l-20,7l-15,-8l-31,-29l5,-12l-11,-22l-20,-17l-19,-47l192,8h186Z"/>
  <path class="MT" d="M160,234l63,3l152,5l147,1l132,-2l105,-4l180,-11l35,458l-192,13l-168,5l-182,2l-28,-1v60l-28,-33l-9,25l-65,-5l-6,11l-29,-5l-12,16l-12,-10l-6,-33l-29,-17l2,-22l-9,-6l-16,-35l-1,-23l-17,-11l-27,26l-17,-12l14,-34l-5,-16l8,-46l9,-29h-23l-2,-11l-22,-13v-10l-28,-41l-31,-23l4,-30l-22,-33l9,-118Z"/>
  <path class="NE" d="M123,284l131,4l176,3h190l6,10l43,23l20,-16l15,5l48,-4l55,25l11,21l26,7l-4,16l21,49l20,28l-2,38l18,9l8,23l7,76l8,33l9,1l9,30l17,10l7,28l13,5l-212,8l-213,4l-241,-2l-72,-2l3,-143l-216,-8l15,-286Z"/>
  <path class="NV" d="M744,25h50l6,206l7,208l9,303l3,69l-11,24l-25,-16h-22l-19,10l12,86l11,33l-6,27l-381,-358l-198,-186l6,-157l7,-249l116,3h325Z"/>
  <path class="NH" d="M642,46l13,198l19,411l5,5l-9,62l6,17l42,42l-5,38l-5,-6l-17,30l27,-23l27,27l-36,67l-13,-9l-35,10l-9,20l-18,-6l-15,11l2,19l-14,-3l-16,19l-189,-6l-123,-6l-22,-31l3,-51l16,-7l2,-31l9,-9l-5,-21l5,-42l12,-22l-6,-18l10,-47v-29l14,-11l7,-34l32,-41l-1,-18l16,-20l2,-28l22,-35l-8,-36v-30l9,-19l57,-11l5,-18h14l42,-37l-4,-21l14,-7l-23,-61l19,-38l16,-20l-12,-28l12,-32l16,-18l12,-41l24,-25l15,18l26,2l11,-21Z"/>
  <path class="NJ" d="M310,811l-20,-17l-10,-20l-22,-9l1,-31l8,-15l-15,-20l24,-33l6,-19l42,-30l56,-15l8,-29l53,-45l22,-5l10,-17l14,2l18,-14l-16,-24l-20,-12l-9,-20l-22,-18l-6,-20l-28,-9l-2,-48l-9,-9l-28,-2l-4,-48l10,-34l11,1l25,-34l-24,-50l32,-20l9,-20l26,-24l23,-53l21,-21l17,-4l42,23l59,38l134,76l-6,34l-42,99l-22,5l11,-27l-28,32l-4,27l-11,6l-2,35l38,3l43,18l-23,17l26,-6l-12,22l13,7l-16,72l-16,106l1,-45l11,-38l-12,20l-18,6l12,27l-25,74l10,11l-18,27h-10l-30,39l-19,10l7,30l-17,-6l-12,25l24,12l-36,21l12,-22l-8,-7l-6,28l-35,1l11,25l-31,50l3,7l-24,40l-23,22l-34,2l8,-33l14,-27l4,-27l-43,-22l-24,1l-8,13l-13,-25l-34,-18l-14,-23ZM599,790l8,-13l16,-2l-22,25Z"/>
  <path class="NM" d="M908,25l3,83h-5l12,402l2,169l5,181l-93,3l-180,3h-231l-3,23l16,13h-91l-148,-3l-2,76l-120,-3l14,-430l7,-258l8,-259l290,6h271l67,-1Z"/>
  <path class="NY" d="M929,749l-11,4l-34,37l15,3l15,-17h32l-37,22l-92,30l-46,10l-16,8l-22,-8l-1,11l-20,-4l15,-30l16,-1l34,-23l39,5l2,-11l62,-5ZM757,785l-43,45l13,-48l-97,-56l-4,-11l-31,-9l-10,-20l-6,-38l-18,-4l-11,-20h-119l-167,-3l-144,-4l-95,-4l3,-83l100,-46l4,-17l-19,-24l2,-30l-14,-30l60,-27l220,5l42,-75l32,-29l25,-11l21,-27l40,-41l32,-23l33,-16l87,2l83,-5l-2,68l9,14l-1,41l-12,33l11,40l-8,33l14,-7l8,14l-1,116l2,13l-26,106l3,5l-5,121l8,14l-28,18ZM707,838l-3,16l-18,9l8,-24Z"/>
  <path class="NC" d="M918,356l-10,16l-41,10l-22,20l63,-9l3,41l10,-33l17,-2l8,31l-6,16l-11,-7l-13,28l-13,11l-23,-8l-23,4l-37,-9l21,14l24,4l-9,32l-23,15l9,5l22,-11l27,5l-21,26l-15,9l-31,-2l-27,10l-55,41l-29,32l-10,29l-38,-1l-19,6l-121,-123l-121,-2l1,-15l-27,-29l-130,-9l-27,4l-66,20l-130,-4l4,-30l30,-9v-15l28,-18h31l35,-25l18,-1l10,-21l30,-15l2,13l44,-24l18,4l20,-28l14,1l4,-33l161,8l172,-1l122,-3l140,-5l11,16l17,46Z"/>
  <path class="ND" d="M828,220l40,-2l-1,10l19,51l-8,20l7,25l-1,49l17,50l23,47l9,116l6,12v51l14,39l13,14l8,39l1,33l-113,5l-118,3l-133,2h-132l-232,-3l-222,-9l10,-207l16,-350l128,6l150,4l253,1Z"/>
  <path class="OH" d="M889,110l8,322l-27,14l14,28v35l-18,39l-8,59l-21,36l8,14l-9,22l-11,1l-50,56l-24,10l-22,-15l-18,18l-1,15l-20,-1l-16,23l3,20l-12,4l9,18l-22,32l-10,-27l-20,-9l-31,54l7,40l-22,14l-9,34l-37,9l-36,-38l-25,-13l-6,-34l-24,7l-24,24l-32,6l-4,-11l-39,-14l-23,18l-21,-8l-17,-25l-39,-3l-26,-8l-3,-21l-18,-35l-19,-6l-3,-15l-33,10l-18,-17l-18,8l13,-405l4,-218l146,-2l105,-4l55,-52l7,22l70,45h51l206,-130l129,-31Z"/>
  <path class="OK" d="M343,277l84,2l201,-1l234,-5l78,-3l3,68l28,150l4,240l-50,-18l-6,-10l-30,-14l-6,12h-30l-1,-7l-84,26l-37,-10l-16,2l-24,-14l-12,28l-11,-22h-46l-13,-11l-18,18l-14,-6l2,-15h-13l-1,-18l-32,-2l-13,12l-17,-13l-13,4l-27,-12l-22,1l-3,-18l-56,-6l-23,-26l-9,2l4,-265l-178,-3l-151,-6l2,-68l101,5Z"/>
  <path class="OR" d="M118,154l8,10l36,-2l11,-8l14,17l28,-7l24,17l11,23l4,49l49,18l38,-11l14,-12l40,-5l36,10l1,9l31,-6l37,-15l14,8l32,-6l27,-15l54,-14l42,-5l21,-12l63,-1l166,-5l17,27l29,13l9,17l-21,52l-5,30l-12,18l-1,26l-23,25l-8,31l-9,10l2,31l39,18l-13,51v33l13,272l-203,8l-174,2h-115l-148,-5l-175,-2l-60,-3l-17,-18l-5,-24l3,-68l-16,-29l15,-32l7,-46l22,-38l9,-36l14,-98l5,-69l7,-15l13,-82l3,-51l-6,-11l7,-52Z"/>
  <path class="PA" d="M41,310l3,-74l69,-13l50,-24l-2,110l131,3l189,2l190,-2l189,-3l17,29l30,9l5,41l12,30l39,10l8,12l-21,17l-23,46l-24,19l13,27l-22,25l1,38l16,2l5,27l49,45l10,16l-18,4l-49,38l1,12l-48,22l-37,-4l-20,23l-205,3l-259,-1l-189,-3l-126,-4l8,-238Z"/>
  <path class="RI" d="M806,524l7,68l-40,28l-2,12l-19,4l2,-31l-11,-18l3,-15l-10,-33l7,-56l-7,-33l14,-52l51,16l-6,57l8,17ZM733,439l-17,11l-4,47l6,9l-1,45l7,11l-16,38l6,16l-19,-14l-9,9l-12,-9l-18,41l-9,-10l-27,12l-5,-12l21,-24v14l16,-10l-5,-40l9,-7l5,-37l17,-23l8,-47l20,-21l21,-11ZM598,25v136l35,-5l2,41l-8,41l14,46l56,31l29,45l-14,13l-1,-19l-16,-8l22,49l-13,16l-7,23l-15,-40l-20,27l-2,-18l11,-18l4,-44l-10,22l-7,-15l-25,-4l-18,-28l-11,-46l-14,-22l11,-7l7,-35l-8,-7l-1,31l-18,14l19,30l-9,11l11,39l-10,11l19,23l2,24l-11,26l-10,-6v-21l-15,8l-28,-4l-7,-10l7,44l14,-15l13,9l-17,13h18l5,37l-10,15l9,13l-36,14l16,24l10,29l-5,32l2,33l-10,26l-20,15l3,24l-26,42l4,12l-27,-16l12,-34l-7,-10l-10,34l-10,8l-76,17l-57,21l-19,13l-28,6l-12,-5l-77,18l25,-32l-7,-24l7,-17l-10,-14l1,-22l18,-8l17,4l5,-113l4,-159l-7,-278l-1,-95l239,-10ZM634,424l-4,13l22,10l10,16l-8,31l-11,10l-8,-17l10,-32l-22,-12ZM613,600l7,11l-16,7l-20,27l4,-18l-4,-29l14,2l3,-17l-11,-17l13,-54l11,2l4,65ZM447,890l11,13l-8,40l15,12l-4,14l-41,6l-10,-14l16,-43l9,18l10,-8l-6,-21Z"/>
  <path class="SC" d="M738,685l-28,24l-19,32l-38,14l-15,-21l-11,9l23,11l-27,21l-18,-20l1,15l-30,-1l-38,-9l-15,13l13,49l-6,22l-25,26l-41,-9l-8,-31l7,-8l-17,-34l4,-10l-22,-24l-25,-17v-48l-16,-23l1,-18l-23,-21l-19,-5l-25,-39l-22,-16l6,-24l-28,-31l-25,-11l-23,-45l-49,-35l-23,-44l-10,-5l-6,-30l-17,-20l-11,-31l-21,2l-32,-33h-11l-24,-29l22,-35l9,-2l19,-28l81,-25l81,-20l25,3l219,11l-1,25l21,-13l29,39l-2,29l220,1l57,55l165,163l-51,36l-48,59l-12,22l-7,32l-23,-7l23,23l-48,45l-22,-5ZM558,770l35,13l3,12l-19,8l-18,24ZM539,761l10,10l6,47l-19,-16l-10,-27ZM543,825l11,13l-29,26Z"/>
  <path class="SD" d="M258,212l158,3h219l145,-2l154,-6l-1,20l-32,36l22,33l25,9l4,9l14,306l-18,1l10,17l-3,30l16,15l-7,30l-14,32l16,23l2,26l-14,-4l-12,-24l-34,-16l-21,-2l-13,-14l-78,1l-19,18l-17,-13l-38,-14l-6,-12l-141,2h-143l-179,-3l-228,-9l15,-339l3,-6l5,-155Z"/>
  <path class="TN" d="M301,386v4h168l84,5l200,1l189,-7l33,-4l-5,37l-21,5l-13,25l-21,-3l-19,9l-18,20l-9,-15l-27,16l-6,22l-15,1l-43,31l-31,1l-27,21l-1,18l-28,8l-3,32l-128,2l-152,-1l-151,-5l1,2l-128,-3l-105,-5l23,-16l-6,-22l11,-13l-10,-6l35,-26l-5,-18l23,-7l-7,-7l20,-40l-10,-12l17,1l2,-34l160,5l-1,-24Z"/>
  <path class="TX" d="M688,856l12,39v7l-2,2l19,29l-12,19l-21,-15l-48,-4l-13,-11l-50,-15l-14,-38l-13,-14l-6,-48l-28,-18l-16,-31l-15,-10l-8,-27l-18,-27l-2,-17l-28,-30l-15,-7l-14,-22l-90,2l-19,47l-15,18l-24,-6l-25,-20l-18,-4l-35,-29l-11,-25v-27l-13,-27l-19,-20l-17,-8l-38,-45l-19,-11l-9,-22l-19,-11l4,-13l153,8l100,3l7,-168l6,-214l111,2h97v165l20,15l35,4l2,11l72,7l13,19l20,-9l32,10l6,12l19,-19l38,19l29,-18l24,-5l23,5l3,-8l27,18l33,15l25,-2l7,131l17,19v16l24,34l1,29l-9,16v52l-19,32l-48,23l-3,-27l-14,9l-13,-6l13,37l-18,10l-6,19l-58,35l-18,-8l-19,5l11,18l-30,17l-2,4l-26,3l12,10l-11,19l-25,-5l13,14l6,2l-13,49Z"/>
  <path class="UT" d="M570,27l1,191h97l187,-5l11,372l2,144l4,20l5,221l-153,4l-150,1l-280,-1l-173,-4l7,-285l18,-549l2,-111l67,1l184,2Z"/>
  <path class="VT" d="M408,25l128,5l131,-2l122,-3l-17,4l11,38l-39,69l20,39l8,27l-17,10l5,26l-20,11l-19,27l-25,4l-6,19l-17,8l-31,-1l-26,28v34l11,36l-25,46v29l-21,28l1,19l-14,25l-22,21l-11,44l-12,9v37l-9,49l7,3l-14,41l-7,46l7,27l-9,11l7,19l-28,24l-5,27l3,32l25,34l-250,-10v-36l10,-198l3,-88l-17,-42l-16,-1l-13,25l-9,-9l1,-23l23,-52l-12,-23l6,-22l-10,-23l1,-37l-9,-9l14,-61l25,-34l-7,-41l13,-27l-4,-26l-22,-37l-2,-13l7,-50l10,-26l-13,-14l11,-32v-40Z"/>
  <path class="VA" d="M915,525l9,-3l8,-29l27,-5l-21,47l-3,18l-13,3l-17,27l-4,34l-9,-26l12,-49ZM854,613l10,11l-15,17l-24,-20l-5,-15l-37,-2l31,13l5,13l21,12l-3,15l21,-16l39,5l7,28l-11,25l-156,5l-124,3l-206,-1l-185,-10l-87,-3l-110,-5l17,-9l45,-9l7,-15l23,-4l18,-32l44,-20l43,-37l-4,9l16,27l33,12l23,-18l15,15l37,-11l41,-22l7,8l20,-12l8,-16l-7,-10l15,-27l18,-16l9,-27l15,-12l15,-45l19,19l18,6l12,-13l23,-49l14,12l51,-58l6,-42l58,46l9,-26l30,12l-6,15l42,21l13,15l-1,21l-20,8l-10,31l10,16h22l18,21l20,1l36,29l8,13l-2,33l-17,-2l-10,-18l-35,-25l34,32l6,15l34,24l-5,16l-19,-9l9,18l-13,3l-32,-37l20,30Z"/>
  <path class="WA" d="M276,301l4,-20l15,11l7,-21l-11,-35l-21,-2l-13,-28l8,-11l111,3h209l217,-5l133,-6l8,218l4,54l8,175l-1,25l9,8l12,54l-256,9l-17,12l-45,6l-59,15l-31,18l-33,6l-19,-9l-34,19l-74,-15l-48,6l-45,24l-26,-5l-38,-17l-4,-51l-11,-25l-27,-19l-22,5l-21,-22l-31,-4l-19,8l-11,-12l-13,6l4,-67l5,48l7,2l9,-32l-8,-10l15,-20l-30,-4v-24l33,-15l-38,-14l-8,-46l-11,-14l-8,-68l-24,-28l-7,-41l9,-47l71,41l44,4l29,9l36,-5l11,13l27,1l21,35l-17,14l-12,-4l-5,25l-28,39l-6,20l30,-48l21,-10l8,-21l19,-19l7,29h-10l-8,35l13,6l-11,47l-18,-16l-23,9l-5,27l16,-5l13,12l16,-14l8,-20l25,-10l-13,-55l5,-26l22,-37l-14,-15l-3,-22l-17,15l-2,-21l18,-8l-23,-24ZM282,303l11,17l-19,4l13,47l6,-14l14,11l-7,22l-20,-20l-1,-24l-18,-11l13,-33ZM248,246l16,12l-22,9l-8,-10Z"/>
  <path class="WV" d="M440,77l-1,225h199l-1,127l37,-23l6,-15l24,-15l5,-15l26,9l38,-50l2,15l19,11l37,3l2,-18l21,-12l14,4l15,-19l15,3l19,20l35,-1l-12,11l9,15l15,1l7,45l-16,44l-101,-80l1,27l-17,39l6,8l-31,34l-4,15l-37,21l-15,32l-25,-22l-26,49l-21,50l-14,10l-31,-11l-12,-23l-22,-9l-8,41l-23,28l3,11l-24,21l-16,46l-35,35l-22,40l14,16l-21,16l6,14l-34,20l-8,-14l-50,27l-15,-13l-1,19l-12,9l-43,8l-20,10l-26,-26l-11,16l-29,16l-23,1l-20,-20l-13,-1l-15,-19l-1,-19l-12,-7l4,-19l-17,1l-19,-21l-27,-16l-3,-18l-19,-33l-12,-8v-20l-29,-36l14,-31l-4,-37l53,-6l8,-34l20,-2l3,-12l-9,-37l16,-13l10,-32l18,-13l13,11l9,28l23,-36l-9,-15l14,-8l-3,-17l17,-23l20,2l2,-18l19,-16l15,17l41,-25l46,-43l12,-4l7,-21l-7,-13l21,-34l10,-58l18,-31l4,-51l-14,-26Z"/>
  <path class="WI" d="M383,170l27,13l13,33l140,39l38,23l28,6l14,-7l12,9l32,4l16,18l-2,15l32,7l12,14l-8,23l7,11l-13,30l26,-8l7,11l-12,26l13,19l30,5l4,-26l30,-27l11,-20l46,-2l73,39l-24,22l-25,32l-27,70l-22,96l-13,72l-4,40l2,52l24,160l-115,4l-132,2l-281,-4l-11,-27l-33,-8l-17,-14l-11,-30l-4,-46l18,-22l-22,-24l-7,-48l4,-33l-26,-45l-23,-7l-38,-34l-6,-26l-38,-20l-23,-27l-26,-3l-34,-36l9,-41l-7,-20l10,-10l-1,-37l16,-27l-16,-27h-14l2,-30l23,-34l59,-37l3,-114l29,-15l9,9l61,-35l124,-78l94,2Z"/>
  <path class="WY" d="M302,142l107,2h274l25,-2l163,-3l73,-3l15,341l5,134l11,244l-266,8l-332,1l-262,-5l-90,-4l10,-261l6,-107l9,-245l3,-107l45,4Z"/>
</svg>