<?xml version="1.0"?><!DOCTYPE svg PUBLIC "-//W3C//DTD SVG 1.1//EN" "http://www.w3.org/Graphics/SVG/1.1/DTD/svg11.dtd"><svg xmlns="http://www.w3.org/2000/svg" version="1.1" width="1294" height="800" viewBox="0 0 1294 800"><g class="states"><path class="AR" d="M739,460v1v-1v1h2h-1h1l-7,12l15,-1l1,3v-1v1v-1l-6,6l-2,9h-2h2l-1,2v6l-4,4v4v-1v1l-5,4v1v-1v1l-2,9l-3,6l-3,5l-3,6l2,3l-3,5v1v-1l2,1v1h-1l1,1v-2v6h1l-2,7l-29,1l-38,1v-15l-5,-1h-1l-1,1h-2h1l-1,-1v1v-1h-1v-1v1v-1h-1v-56l-4,-25l38,-1l62,-2Z"/><path class="AZ" d="M321,428v1l-3,14v7l-3,14v6l-7,50l-4,27v7l-3,14l-2,18l-48,-6l-81,-48l3,-6h5v-1v1v-1l2,-7l-3,-1v-10h2l4,-3l1,-9l2,-4l2,-2l3,-2l4,-1l-5,-6v-6l-3,-11l3,-4v-19l1,-1v-5l3,-2l6,1l4,4l4,-5l1,-10l3,-12l30,6l45,7l10,2Z"/><path class="CO" d="M440,328l25,2l17,1l-2,28l-1,25l-2,19v14l-2,27l-21,-2l-42,-3l-44,-4l-3,-1l-44,-5v-1l1,-13l3,-14v-10l3,-20l3,-14l2,-20l2,-14v-6l30,3l30,4Z"/><path class="IA" d="M704,262h1v5l4,16l8,3l1,3l5,4v4l5,3v9l-2,6l-7,4l-8,2v6l3,2v6l-3,7l-5,1l-1,7v1v-1h-1v1v-1h-1v-1v1v-1l-6,-5l-52,3h-32l-2,-5l-1,-12l-1,-3h1h-1h1l-1,-5l-3,-4v-10l-2,-2l-3,-4v-9h-2v-1h-1h1l-2,-4l-2,-2h1h-1h1l1,-2v-1v1v-1l2,-11l-2,-1v-1v1v-1l-1,-5h53l21,-1Z"/><path class="IL" d="M776,286v7l4,4l4,11l1,16l3,34v17h-1h1h-1v4l3,7v1v-1v1l1,1l-3,9l-3,7h-1v1v-1v1h-1v1v-1v1l1,2l-1,1l-1,3l-1,4l1,1v1v-1v1h1l-3,4l3,5l-8,3l-1,10l-10,-4h-1h1h-1l-5,6l2,1l-2,-1l-5,-3l-2,-15l-8,-6l-9,-4l-4,-4v-5l4,-6l1,-7l-8,-3l-3,3l-2,-11l-8,-5l-7,-7l-4,-10l1,-8h1v-1l1,-7l5,-1l3,-7v-6l-3,-2v-6l8,-2l7,-4l2,-6v-9l-5,-3v-4l-5,-4Z"/><path class="IN" d="M840,302l1,4l4,42h1l1,26h1h-1v10l-6,3l-5,-1v8l-8,7l-1,7h-7h1h-1l-3,-1l-4,7l-3,-3h-1h1h-1l-8,5l-5,-3l-5,1l-1,2h-1h1h-1l-4,-2l-2,4h-1v-1v1v-1l-1,-1l1,-4l1,-3l1,-1l-1,-2v-1v1v-1h1v-1v1v-1h1l3,-7l3,-9l-1,-1v-1v1v-1l-3,-7v-4h1h-1h1v-17l-3,-34l-1,-16h9l5,-3l33,-4Z"/><path class="KS" d="M596,363v1v-1v1h27l7,2l2,3l-1,2h-1l-2,4l4,8l4,4h1h-1h2v61h-79l-46,-2h-14l-24,-2l2,-27v-14l2,-19l1,-25l45,3h35v1Z"/><path class="MO" d="M703,349v1v-1v1h1v1v-1h1v1h-1l-1,8l4,10l7,7l8,5l2,11l3,-3l8,3l-1,7l-4,6v5l4,4l9,4l8,6l2,15l5,3l2,1l-1,12l-4,2l-1,1h-1l1,-1h-2l1,1v6h-3l2,4l-3,4l-15,1l7,-12h-1h1h-2v-1v1v-2l-62,2l-38,1l-1,-14v-61h-2h1h-1l-4,-4l-4,-8l2,-4h1l1,-2l-2,-3l-7,-2l-5,-8l-4,-7v-1v1v-1l-1,-1h32l52,-3Z"/><path class="NE" d="M559,280l7,5l4,-3l6,1l4,-1v1v-1v1h1l13,5l5,5h2v9l3,4l2,2v10l3,4l1,5h-1h1h-1l1,3l1,12l2,5l1,1v1v-1v1l4,7l5,8h-27v-1v1v-1h-36v-1h-35l-45,-3l2,-28l-17,-1l-25,-2l1,-18l4,-38l44,3l43,3h25Z"/><path class="NM" d="M454,442l-1,14l-2,8l-1,23l-3,29l-4,45l-1,22l-35,-3l-49,-5l2,6l-31,-4h-9l-1,11l-20,-2l2,-18l3,-14v-7l4,-27l7,-50v-6l3,-14v-7l3,-14v-1v1l44,5l3,1l44,4Z"/><path class="NV" d="M238,272l-6,34l-3,10l-1,10l-4,15l-4,25l-8,44l-3,12l-1,10l-4,5l-4,-4l-6,-1l-3,2v5l-1,1v19l-3,4l-20,-32l-2,-1l-27,-42l-11,-15l-26,-41l-4,-4l4,-19l5,-16l2,-10l10,-38l23,6l37,8l36,8Z"/><path class="OK" d="M638,448l1,14l4,25v56h-1v-1v1l-1,-1h1h-1l-1,-1v1v-1v1l-3,-1v-1v1v-1h-1l-2,-2h-1h1l-1,-1v1v-1l-3,-1v-1v1l-1,-1h1h-5l-1,1h-3l-2,-1l-6,2h-7l-4,2l-14,-2l-3,-3l-1,3l-3,4l-3,-5h-1v1v-1v1l-4,-2h-6l-4,-2l-3,-5h-4l-5,2l-4,-2h-4v-1v1v-1l-3,-1h-3v-1v1v-1h-1l-3,-5l-2,-1l-1,1v1v-1v1h-1v-1v1v-1h-5l-7,-8v-22l1,-4v-20l1,-6l-47,-2l-19,-2l1,-14l21,2l24,2h14l46,2Z"/><path class="TN" d="M881,442l12,-2l33,-5v2l-1,3v2v-1v1l-1,1l-4,7h-6v1v-1v1l-4,4l-2,-2l-7,5l1,1v1v-1v1l-13,10h-5l-6,5l-1,6l-4,1v7l-29,3l-27,3h-5l-26,3h-14l-35,3l4,-4v-6l1,-2h-2h2l2,-9l6,-6v1v-1v1l-1,-3l3,-4l-2,-4h3v-6l-1,-1h2l-1,1h1l1,-1l31,-2l-1,-5l4,1l28,-4l25,-1l19,-2Z"/><path class="UT" d="M299,282v5l-4,19v4l40,7v6l-2,14l-2,20l-3,14l-3,20v10l-3,14l-1,13l-24,-3l-10,-2l-45,-7l-30,-6l8,-44l4,-25l4,-15l1,-10l3,-10l6,-34l27,5Z"/><path class="WV" d="M933,319l4,25l22,-3l3,14l3,-4l2,-2v-1v1v-1l1,-2h3h-1h1l2,-5l1,-1l-1,1h1v-1v1h7l1,-2h1l5,-3l4,2l2,2h1h-1h1l3,5l-1,6l-13,-8v9l-3,5v1l-3,2l-2,5l-3,-1l-3,7l-1,5l-8,-2h-1h1h-1h1h-1h1l-1,4v1l-3,8l-5,9l1,6l-6,5l-14,9h-6v1v-1v1h-1v1v-1v1l-8,-2h-1h1h-1v-2h-1h1h-1h1h-1h1h-1h1l-2,-1v-1v1v-1l1,-1v-1v1v-1h-3l-3,-1v-1v1v-1h-2v-1v1v-1l-3,-4l-2,-2l-1,-2l-4,-11v-1v1l6,-2l3,-4l-1,-8l2,-5l2,4l3,-3v-8l5,-6l3,2l9,-9v-9l2,-8v-13Z"/><path class="ID" d="M239,72l-3,10l-3,20l3,3h-1h1h-1l2,10l-2,1l7,6l5,11v1l4,7l6,1l-3,9l-3,4v4l-3,10l-1,2v1v-1v1l6,2h2v-1v1v-1l4,-3l2,5l1,2v6l4,6l-1,3v4l5,1l2,12l4,-2l7,3l2,-3h1l2,1v1v-1v1h3l4,1h7v-1l2,-3l6,8l-5,25l-1,12l-5,31l-34,-5l-27,-5l-24,-5l-36,-8l10,-49l5,-8l-2,-5l-3,-5l11,-13l1,-1l-1,1l1,-1l11,-15l-1,-4l-4,-4l-1,-5v-14l3,-13l5,-17v-5l7,-33Z"/><path class="MT" d="M458,105l-2,23l-1,23l-1,12v11l-2,15l-2,27l-51,-5l-27,-4l-21,-2l-8,-2l-24,-2l-7,-2l-2,15l-6,-8l-2,3v1h-7l-4,-1h-3v-1v1v-1l-2,-1h-1l-2,3l-7,-3l-4,2l-2,-12l-5,-1v-4l1,-3l-4,-6v-6l-1,-2l-2,-5l-4,3v1v-1v1h-2l-6,-2v-1v1v-1l1,-2l3,-10v-4l3,-4l3,-9l-6,-1l-4,-7v-1l-5,-11l-7,-6l2,-1l-2,-10h1h-1h1l-3,-3l3,-20l3,-10l17,4l68,13l34,4l11,2l14,2l48,5Z"/><path class="ND" d="M585,111v3h1h-1h1v3h1h-1h1v1l1,2l-1,1v1v-1v7v-1v4v-1v2v-1v2l-1,1l3,10h1h-1h1v2h1h-1h1v1l1,4v1v-1v3v-1v9v-1v1h1h-1h1h-1h1h-1h1h-1h1h-1v1h1h-1h1v1h-1h1h-1h1h-1v1h1h-1h1v1h-1h1h-1v1l1,1l1,2h-1h1h-1v2v-1v6l1,2v1v-1v2l1,1v1l3,9l-1,5l-3,-1h-33l-29,-1l-12,-1l-21,-1l-9,-1l-37,-2l-1,-1l2,-15v-11l1,-12l1,-23l2,-23l35,3l43,2Z"/><path class="SD" d="M597,197l-1,5l-4,2l3,7l5,3v21l-1,1v29h-3l1,5v1v-1v1l2,1l-2,11v1v-1v1l-1,2h-1h1h-1l2,2l2,4h-1h1v1l-5,-5l-13,-5h-1v-1v1v-1l-4,1l-6,-1l-4,3l-7,-5l-2,-2h-25l-43,-3l-44,-3l5,-56l2,-27l1,1l37,2l9,1l21,1l12,1l29,1h33Z"/><path class="VT" d="M1087,160l1,10v6l-6,5v17l-1,17l2,11l1,1l-16,4l-2,-5l-3,-17l-3,-2l-1,2v-3l-3,-10v-10l-3,-6l-1,-10Z"/><path class="WY" d="M450,216l-5,56l-4,38l-1,18l-45,-4l-30,-4l-30,-3l-40,-7v-4l4,-19v-5l5,-31l1,-12l5,-25l2,-15l7,2l24,2l8,2l21,2l27,4Z"/><path class="FL" d="M1009,726v1l-3,6l1,7v1v-1v1l-1,2v1h-1v1l1,1l-1,2h-5l-1,1h-2l-3,1h-1l-7,-1l1,-4h1v1v-1h-1l1,1v-1v1h1v2h3v-2l-1,-1h-4l-3,-5l1,-1h2h-1h1l1,1v-1h-2v-1v1v-1l-2,2l-2,-2v-1l-1,-1h1v-1h1v1h1h-1h1v-1h-1h1h-3v1l-2,-1v-2h-1l-1,-1h-5h1h-1h1h-1v-1l1,1l-1,-1h-1h1h-1h1v1h-1v-1h1h-1h1h-1h1h-1h1h-1v1v-1h-2v-1l1,1l-1,-1h-1h1h-1h1h-1v-2v1v-1v1v-2h-1l-3,-8v-1h-3l-3,-3v-2h-1v-1l1,-8v-1v1l-4,5h-2l-2,-2v-1h-1v-1h-1l-2,-3v-1v1v-1v1v-1l-2,-2l-1,-2v-1l-4,-3l2,-5l3,-6v-2l-1,1v1l-3,-4l-2,8l-1,-1v-1h-1l-2,-5l1,1v-23v1v-1l-1,-1v-1l1,-2h-1h1h-1l-2,-3l-2,-4l-5,1h-1l-1,-1v-1v1v-1l-2,-1h-1l-6,-6l-1,-4l-6,-6l-9,-4l-5,1h-1l-3,2l-13,10h-1h1l-4,1l-2,1l-10,-8l1,-2l-5,-2l2,-3h-6l4,4l-8,-4l-12,-1l11,-1l-4,-3l-9,2l1,2h-6l-2,1l-6,1l4,-2l-5,-3l-3,6v1h-4h2l-1,-2l2,-2h-1v-6l-6,-3v-6l12,-1l44,-4l6,-1l4,8l20,-2l25,-1l18,-2l1,4v2v-1v1h2l2,-1l-1,-7v-2h-1h1h-1l3,-4l4,1h4l1,1h1l1,-1l1,1h-1v1v-1v1v-1v1l1,-1l1,5l-1,-1v-1v1h-1v1h-1h1v1h1v-2h-1h1v2h1h-1h1v2h-2v1h-1v-1l-2,3l1,9l4,5l-2,6l1,6l1,1v-1l-2,-5l3,-4l-4,-8v-11h2h-1h1v-1h1v1h1l1,2v1h-1l1,2l2,2v1l1,2v1h1v3l2,2v1h1v2h1h-1l1,1l1,4h1l1,3l1,1v1h1l1,3h1l1,1v1h1v2l2,2v1l3,3v-1l-1,-2l1,2l5,5l1,5h-1h1h-1v-5v1l-1,5l1,2l-1,-2l2,4v2l-4,-7v-5l-4,-2l8,14l1,1l1,2l1,1v1l2,2l1,2l2,2v1l1,1v1l1,1v1l1,1v2l1,2l3,3v2h1v1h1v1l1,1v1l1,1l-1,-1l1,1l1,4v1l2,10ZM1009,726l1,4l-1,-1v-2ZM1002,692v-1h1v2h1v1l1,1v1l1,1l-1,-1v-1l-1,-1v-1h-1h1h-1v-1ZM1009,731v-1h1ZM1009,730h1h-1ZM1009,730v-1v1ZM1000,688l3,3h-1v-1l-3,-3l-1,-2v-1ZM1009,741h-1h1v-1v1ZM1009,741h-1h1v-1ZM1009,741l-1,1l-1,4v1h-1h1h-1v1l-2,2l-3,4v-1l3,-3v-1l1,-1h1v-4l2,-2ZM994,676h1v1l1,1v1l2,4v1v-1l-1,-1v-1l-1,-1v-2h-1v-1v1v-2h-1l-1,-1v-1ZM1007,741v-1l1,1ZM1007,747l-1,1v-1ZM996,679l-1,-1h1ZM994,676h1v1l-1,-1h1h-1ZM986,662v-3h1l3,11l3,4l-3,-3v-1v1v-1l-1,-1l-1,-2l-1,-1v-2l-1,-2ZM1003,748h0ZM1003,748h0ZM1002,750h0ZM1002,750h0ZM1001,750h0ZM1001,750h-1h1ZM1000,752h0ZM1000,750h-1v-1h1ZM1000,752h0ZM1000,753h0ZM1000,753h0ZM1000,753h0ZM999,752h-1v-1ZM998,749h0ZM998,749h0ZM997,752h1ZM978,645l2,2h-1v-1l-1,-1h-1h1h-1l-1,-1v-2h-1h1ZM979,647h0ZM979,647v-1v1ZM979,646h-1v1v-1ZM978,646h1h-1ZM978,645v1l-1,-1ZM994,750h1h-1ZM995,759v1v-1ZM994,750h0ZM995,759h0ZM976,642h-1ZM975,642v-1l-1,-1h-1l-1,-3h-1v-1l-1,-1l-1,-3h-1l-1,-4v-1h-1v-2l1,2v1l1,4h1l5,8l1,1ZM993,751h0ZM992,761l3,-1l-3,2ZM993,751v-1v1ZM991,746h-1v1h1h-1h1h-1h1h-1h1v1v-1v1v-1v1v-1v1v-1v1h1h-3h1v-2v1v-1ZM991,746v1l1,-1v1h-1ZM991,745h-1ZM990,745h0ZM990,748h0ZM989,747h1v1h-1ZM989,745h0ZM989,746v1v-1ZM990,748h-1h1ZM989,745h0ZM988,739v1l-1,-1ZM989,746v1v-1ZM989,745v1v-1ZM987,739h1h-1ZM988,745h0ZM987,739h-1h1h-1h1ZM988,745h-1h1ZM984,735v1h-1ZM964,623l1,1v1h1h-1v-1l-2,-2v-2ZM982,735h1h-1h1h-1v1h-1v-1ZM958,607l1,3l2,5l1,3l1,1v1v-1h-1v-1l-1,-2v-1v1l1,2l-1,-2v-1l-2,-2l-1,-2h1v-1l-1,-2v-1ZM984,763v1v-1ZM984,763v1l1,1h-2v-1l-1,-1l1,-1ZM979,735h0ZM979,735h0ZM979,735h0ZM983,764v1ZM983,764v1h-1l-1,-2ZM977,733h1h-1ZM958,606v1h-1h1h-1v-1v1v-1ZM983,765h-1h1ZM957,604v1h1v1h-1v-1h-1ZM977,733v-1v1ZM977,733h0ZM977,733h0ZM977,733v-1v1ZM976,732h1v1h-1v-1h-1ZM981,765h1h-1h1h-1h1ZM981,765h0ZM977,733h-1h1ZM981,765v-1v1ZM981,764v-1v1ZM957,607h0ZM981,764v1v-1h-1h1h-1l1,-1ZM957,607h-1ZM976,732h-1h1ZM955,600v-1h1ZM980,764l1,1h-1v-1ZM974,732h1h-1h2h-1v1v-1v1v-1v1v-1v1h-1l1,-1h-1h1h-1h1h-1ZM976,733h-1h1ZM956,607h0ZM956,607h0ZM955,603h1h-1v1h1v1h-1v-1h-1h1ZM954,598h1l-1,1h-1h1ZM977,767v1v-1ZM978,767v-1l2,-1l-2,2h-1ZM956,607h-1h1v1h-1v-1ZM973,732h1h-1h1h-1h1ZM974,732v1v-1ZM974,732v1l-1,-1ZM978,764h0ZM978,764h0ZM978,767h0ZM973,732h-1ZM978,767h-1h1ZM976,765h0ZM969,731v-1v1h2v1h-1l1,-1l-1,1h1v-1v1v-1v1h-2h1h-1l-1,-2l1,1l-1,-1h1ZM977,767v1l-2,1l1,-2ZM970,732h1ZM976,765h-1h1ZM968,728v1v-1v2v-1ZM967,727h1h-1h1v1v-1v3v-2l-1,-1ZM964,719h0ZM964,719h-1h1ZM970,769h1l-1,1ZM970,770h-1h1ZM958,715v-1v1ZM957,712l2,5l-1,-2l-1,-1v-1ZM957,713v1h1v-1v2l-1,-1ZM955,713h0ZM955,713h0ZM954,713h0ZM954,713v1v-1ZM954,714h0ZM954,714h0ZM944,681v-1v1ZM944,682h-1v-1ZM944,699l2,2v1v-1l-1,-1ZM943,697l1,2l-1,-2ZM943,696v1l-1,-1ZM942,696h0ZM942,696h0ZM939,693l3,3ZM935,653h0ZM935,653h0ZM935,653h-1h1ZM935,658h-1ZM937,685l1,1v1l-1,-2ZM937,685v-1v1ZM936,684h1h-1h1v1ZM937,685v-1v1ZM945,771h0ZM945,771h0ZM889,627h0ZM876,637h-1h1ZM872,638l1,2l-3,-1ZM835,623h1h-6l-3,1l-10,3v-1l4,-1l6,-1l2,-1h3ZM817,627h-2l-1,1h-1h1l1,-1h2ZM817,627v-1Z"/><path class="TX" d="M569,729l1,1v2l3,10l-1,1h1h-1v1v-1v1v-1v1h1l-1,1l3,2v2l2,5v1l-1,1l1,-1h1l-2,1h1l-1,1h1l1,-1v-1h1l-2,2l-3,4l-11,-7h-11l-6,-5h-5l-3,-4l-8,-1l-5,-14l-3,-3l-2,-17l-8,-5l-4,-10l-4,-2l-3,-9l-7,-11v-6l-9,-10l-4,-2l-4,-7l-16,-2l-6,-2l-1,2l-8,1l-12,20l-7,-1l-8,-8l-7,-2l-5,-6l-6,-4l-3,-8v-10l-3,-3v-7l-11,-8l-4,-6l-5,-3l-3,-7l-5,-1l-4,-11l-3,-1l-2,-6l49,5l35,3l1,-22l4,-45l3,-29l1,-23l2,-8l19,2l47,2l-1,6v20l-1,4v22l7,8h5v1v-1v1h1v-1v1v-1l1,-1l2,1l3,5h1v1v-1v1h3l3,1v1v-1v1h4l4,2l5,-2h4l3,5l4,2h6l4,2v-1v1v-1h1l3,5l3,-4l1,-3l3,3l14,2l4,-2h7l6,-2l2,1h3l1,-1h5h-1l1,1v-1v1l3,1v1v-1l1,1h-1h1l2,2h1v1v-1v1l3,1v-1v1v-1l1,1h1h-1l1,1v-1v1h2v1v-1v1h1v1v-1l1,1h-1h2l1,-1h1l5,1v43l3,3l1,2h1h-1h1v1l1,7l3,3l1,2l1,3h1h-1h1v7l1,3h-1h1h-1v4l-2,5l-1,5v1h-1h1h-1h1h-1v1h1h-1h1h-1h1l1,7v1v-1v1l-5,6l2,4l-6,1l-10,4l-6,-1l1,-6l-6,3l-1,-1h-1l-1,-2h-1h1l1,2h1v1l3,10h-1l-6,6v1h1h-1l-5,5l-15,5l-2,4l-7,4l7,-4l-3,-1h-1l-8,-1h-1h1h-1v5l4,1l-5,3h-1l-5,-3l2,5h-1v2h-2v1h-1h1h-1v-3l-6,2l2,6l-1,1v1v-1l-2,3h-1l-6,-2l6,6l-2,6l-10,5l6,1l1,4h-1l1,1v1l-3,1ZM569,729l1,1l-1,-1ZM630,671l5,-5l1,-2h1l1,-1ZM637,663h1l-1,1l-1,-1h1h-1ZM636,663h1h-1ZM634,655l-1,-1h1ZM631,651h-1ZM630,671h-1v-1v1ZM599,690v-1h1ZM594,693l4,-3h1l-12,9h-1v-2l2,-1l3,-1l2,-2ZM598,690v-1h1ZM598,690h0ZM586,699h1l-5,5v1v-2l3,-3ZM579,709v-1v1ZM579,709v-1l1,-2l1,-1h1h-1h1l-3,4l-1,2ZM582,705h-1l1,-1ZM578,755l1,-1v1ZM579,706h-1ZM574,732v-1v1l1,4v1l1,1v1v-1h-1v-2h-1h1h-1v-2ZM574,731v-9l1,-6l1,-3l2,-2l-4,12ZM576,739v4v-1l-1,-1l1,-1l-1,-2v-1v1h1h-1l1,1v1ZM578,706h-1h1ZM577,756h0ZM577,757h0ZM577,757v-1v1ZM576,745v-1h1ZM577,756h-1h1ZM577,744h-1ZM573,744v-1v1ZM573,743v1h-1h1l-1,-1ZM572,732h-1h1ZM571,732h-1Z"/><path class="AL" d="M844,492l10,39l2,3l3,14l2,3l2,6l4,6v5l-2,15l2,3l1,12l3,4l-6,1l-44,4l-12,1v6l6,3v6h1l-2,2l-1,2v1h-1l-4,1l-6,-5v-6l-1,-1v-1l-1,1v1v-1v1l-3,10l-3,-1h-3l-3,-26l-1,-8v-93l-1,-2l26,-3h5ZM802,619l-1,-1h1ZM801,617v1v-1h-1v1v-1l1,-1Z"/><path class="GA" d="M961,559h1v1h2l1,1l-1,-1l-1,1v-1v1v-1h-2h1ZM964,562h-1v-1l1,-1l1,1ZM963,560h1ZM961,559v1h1h-1h2v2h-2l1,1l-1,-1v-1l-1,-1v-1ZM957,569l1,1v1h-2v1h-1h2l1,1v1l-1,1h1h-2v1v-1h1v1h-1v1v-1v4h1l-1,1v-1v1h-3h1v1h1v1l-1,-1l1,1l-1,2v1l-1,1l-1,-1v1v-1v1l3,1v1l-1,1l-1,-1l2,2v2h-1v2h1h-2h1h-1h1l1,2v1h-1v1h-1l-1,-1h-4l-4,-1l-3,4h1h-1h1v2l1,7l-2,1h-2v-1v1v-2l-1,-4l-18,2l-25,1l-20,2l-4,-8l-3,-4l-1,-12l-2,-3l2,-15v-5l-4,-6l-2,-6l-2,-3l-3,-14l-2,-3l-10,-39l29,-3l16,-2l11,-2v2v-1v1h-1l-1,2l-1,1l-1,4l9,5h2l2,3l7,10l9,5l9,8v3h1h-1h2v1h1h-1h1h-1l2,1v1l3,2h1v1v-1v1h1h-1h1h-1h1l2,2l1,3l1,2h1h-1h1v1v-1v3l1,1h-1v-1v1h1h-1l6,4v1v-1v1l2,2v1h1h-1h1v1h-1h1h-1v1h1h-1h1v2v-1v1l1,1v1h1h-1v-1v1h3h-1v1l1,1v1v-1v1l1,1l-2,2l-1,-1h-3v1l1,-1l1,1v4h-1ZM961,559h-1ZM959,565l-1,4v-3ZM957,564h1v1v-1v1l1,-1l1,1h-2v-1h-1l-1,1l1,-1ZM958,559v-1v1ZM959,571v2l-1,1v-1h1h-1v-2h1h-1h1ZM958,570l1,1h-1ZM958,575l-1,5l-1,-2v-2h1v-1ZM956,572h1v-1h1l-1,1h1v-1v1v-1v2h1h-1l-1,-1h-2h1v-1ZM955,581h2v1l-2,4v-1h-1l1,-2v-1ZM956,581h0ZM956,581h0ZM956,581h-1h1ZM955,581h1h-1ZM954,581h1v1h-1v-1h-1ZM955,589v-1ZM955,596v2v-3l-1,-1v-1h1v-2ZM954,595h0ZM954,595h0ZM953,587h-1v-1ZM953,595h1Z"/><path class="LA" d="M734,666h-1v1v-1l-2,-1l1,-1h1h-1h1l1,-1h-4l-1,1v1l-2,-1v-3l-3,-4v-1l-1,1l-5,-2l-3,-5l-7,1l1,-3l-9,2l5,4l-1,1l-5,2l-13,-3l-3,-2l-10,-2l-12,3l-2,-4l5,-6v-1v1v-1l-1,-7h-1h1h-1h1h-1v-1h1h-1h1h-1h1v-1l1,-5l2,-5v-4h1h-1h1l-1,-3v-7h-1h1h-1l-1,-3l-1,-2l-3,-3l-1,-7v-1h-1h1h-1l-1,-2l-3,-3v-28l38,-1l29,-1l3,3l-2,8h3l-1,2l1,2l3,3l-1,2l-2,3l-1,4l-1,-1l1,1l-4,5l-2,3h1h-1l-4,10l-1,12l26,-1l18,-2l1,1h-1h1h-1v3v-1v3v-1v2v-1l-1,1h1h-1h1h-1h1v1h-1v1v-1v1l2,5v1v-1v1v-1v1l3,6h1h-1h1l1,1h1h-1l-6,7l5,3l5,-6v2l1,1h-1v1h2l1,1v1h-1l-1,1h1h-3h1h-1l1,1v1l1,1l-1,1l-2,-2v-1v1h-2l-1,1h1h-1h1l1,1h1v1l-1,-1h-2v1v-1v1l-1,1h-1h1h-1l1,1v1h1h-1h1v1h2l1,2v1h6l6,5l-5,4v-5l-5,1l-4,-5h-5l-1,-2v1v-1h-1h1h-1h1h-3l-3,-3v-2l-2,5l5,1v1h-1l1,1v2h1h-2l1,3l-5,2l-1,-1v-1l-2,-2l-1,1v1v-1l-3,-1h-2v2h1h-1h1h-2v1l-1,2h-3v1v-1h-1ZM753,660h0ZM754,659h0ZM762,650h1v1h-1ZM767,641h0ZM777,662h0ZM770,637h3v1h-2l-1,-1v1v-1v1ZM771,641h0ZM771,641l-1,1v-1ZM771,641h0ZM770,643h0ZM770,643v1v-1ZM770,644h0ZM770,644h-1h1ZM769,645v-1v1ZM769,645h-1h1ZM768,639v1v-1ZM768,638v1h-1v-1ZM768,640h-1v-1h1h-1h1ZM767,641v1v-1ZM765,648h1l-1,1v-1v1v-1v1ZM765,656l1,1h-1ZM764,647h0ZM764,654h-1h1l-1,-1l1,-1ZM764,654h0ZM764,654h0ZM764,647v1v-1ZM763,648v-1v1h1ZM763,647v1v-1ZM763,647v1h-1ZM762,657h1l-5,2h1ZM762,651v1v-1ZM762,653h0ZM762,653v1v-1ZM762,652h0ZM761,652v-1h1v1ZM762,651h-1ZM762,651h-1h1ZM762,652h-1h1ZM761,651h0ZM761,651h0ZM761,651h0ZM761,651h0ZM761,651h0ZM761,651h0ZM761,651h-1h1ZM758,659v-1v1v-1l1,1ZM758,658h0ZM758,658h0ZM758,658h0ZM758,658h-1h1ZM757,659h0ZM757,658h0ZM757,658h0ZM757,659h0ZM755,661h1h-1ZM755,661v1v-1ZM755,657v-1h-1v-1h-1h1v1l1,-1v1ZM755,657v1v-1ZM755,657v1h-1v-1h1h-1ZM753,654l1,1h-1ZM754,656h0ZM754,656v1v-1ZM754,659v1v-1ZM747,665l-1,1v-1ZM744,663h1h-1h1ZM735,667v-1ZM735,666v1h-2v-1v1l1,-1v1v-1ZM734,667h-1ZM732,664h-1v1v-1h1h-1h1ZM731,664v-1v2v-1v1h-2v-1l1,-1ZM729,664h0ZM729,664v1v-1ZM726,661h1v3ZM724,656v1h-1ZM704,655l1,-1l8,1l-4,3Z"/><path class="MS" d="M786,498l1,2v93l1,8l3,26l-4,1v-1l-1,1h-6l-10,1l-6,5h-1l-1,-1h-1h1h-1l-3,-6v-1v1v-1v1v-1l-2,-5v-1v1v-1h1v-1h-1h1h-1h1h-1l1,-1v1v-2v1v-3v1v-3h1h-1h1l-1,-1l-18,2l-26,1l1,-12l4,-10h1h-1l2,-3l4,-5l-1,-1l1,1l1,-4l2,-3l1,-2l-3,-3l-1,-2l1,-2h-3l2,-8l-3,-3l2,-7h-1v-6v2l-1,-1h1v-1l-2,-1v1v-1l3,-5l-2,-3l3,-6l3,-5l3,-6l2,-9v-1v1v-1l5,-4v-1v1v-4l35,-3ZM787,627v1ZM787,628h-1Z"/><path class="SC" d="M986,533l-1,1h1v-1v1h-1v1h-3v-1v1l1,2l-1,1v1l-7,2h-1v1v-1v1l1,-1l2,2l-4,2v-1v1v-1h-1v1l-4,-1v2h-1l-1,-1h-2v2h-1l1,2l1,1v1l-2,1h2v-1v1h1l-1,1h1h-1v1v-1v2v-1v1h-2v-1v1v-1v1h2v1h-1v1h-1l-1,1l1,-1l-1,1h1v1v-1h-1v1h-4v-1l-1,-1v-1v1v-2h-1h1h-1v-1h1h-1h1v-1h-1h1h-1v-1l-2,-2v-1v1v-1l-6,-4h1h-1v-1v1h1l-1,-1v-3v1v-1h-1h1h-1l-1,-2l-1,-3l-2,-2h-1h1h-1h1h-1v-1v1v-1h-1l-3,-2v-1l-2,-1h1h-1h1h-1v-1h-2h1h-1v-3l-9,-8l-9,-5l-7,-10l-2,-3h-2l-9,-5l1,-4l1,-1l1,-2h1v-1v1v-2l8,-4l1,-1l6,-3h1h-1h2l29,-3l7,5v3l25,-4l5,3l24,18l1,1l-7,6l-5,12v1h-1v-2l1,-2l-1,3v1l1,3h-1h1v1v-1h-1v1v-1v1h1l-1,2h-1v1h-1v-1v2h-2l-2,3h-1l-1,1v2h-1ZM986,533h0ZM1008,500h0ZM1008,500v-1v1ZM996,519h0ZM996,522h-1ZM996,519h-1h1ZM996,523h-1v-1h1ZM995,526h-1v-1h1ZM994,526h1h-1v1ZM993,526h1h-1ZM994,526v1h-1h1h-1v-1ZM988,531v-1h1l-1,2v-2ZM989,530h-1h1ZM988,531v1h-1v1v-1h1h-1v-1ZM987,533h-1h1v-1v1ZM985,535v-1h1v-1h1l-1,1ZM986,533v1v-1v1v-1v1h-1ZM985,535h-1h1h-1ZM983,537v1v-1ZM982,539l1,-1l-1,1ZM983,538h-1v1v-1ZM982,538l1,-1v1ZM975,541l-1,1v-1ZM973,545h-1v-1h1ZM972,550h-1v-2ZM971,550h1l-3,2v-2h1ZM967,546h2v1h1l1,1v1v-1v1h-1l-1,1h1h-1v2h-1v-2h-1v-3l-1,-1h1ZM970,547h-1v-1ZM970,550v-1h1v1ZM966,545l1,1h-1l1,1v3h1v2l-3,-2l-1,-1l-1,-2h1v-2ZM966,552l-1,4v-2l1,-1ZM965,552v-1ZM966,552v1l-1,1v-1h1ZM964,557v1h-1v-1h1v-1ZM963,559h0ZM963,559v1v-1l1,1h-1v-1h-1v-1Z"/><path class="CA" d="M118,245l-10,38l-2,10l-5,16l-4,19l4,4l26,41l11,15l27,42l2,1l20,32l3,11v6l5,6l-4,1l-3,2l-2,2l-2,4l-1,9l-4,3h-2v10l3,1l-2,7v1v-1v1h-5l-35,-5l-21,-2l1,-2l-2,-5h1h-1v-12l-2,-5l-8,-9l-4,-5l-2,-1h-2v1l-3,-1l1,-7l-8,-4l-8,-6v-3l-6,-6l-9,-3l-10,-3l-3,-4l4,-13l-5,-6l2,-6l-8,-9l-2,-11l-6,-9v-9l3,1l3,-5l-1,-6h-4l-5,-6l2,-20h3v1l-1,6l4,4v-9l-2,-1v-1l-1,-4h10l3,1v1h1l3,-1l-2,1l1,-1h1v-1l-1,1h-2v-1l-1,1l-2,-1v-1h-1l-11,-2v6l-5,-3l-4,-13v-5l-9,-15l2,-3v-12l3,-3v-9l-5,-10l-1,-10l8,-7v-1l2,-8l5,-9v-10l1,-4v-1v1l23,5l42,13ZM117,512h-1h1h-1ZM106,486h0ZM106,486h0ZM102,481h0ZM100,480l-2,1v-1v1v-1h1ZM90,485l4,4l-2,2ZM80,463h0ZM64,462l8,4l-8,-1ZM54,342l1,-1v1ZM53,343h-1v-1v1h1h-1ZM41,347v1l-2,-2ZM25,345h0ZM25,345h0Z"/><path class="CT" d="M1083,248l19,-4l4,11v7h-2v1v-1l-1,1l-8,2l1,2l-8,2l-8,4l-3,4l-1,1l-4,2v1v-1l-3,-2l4,-4l-2,-4l-3,-19v-1ZM1104,262v1h-1Z"/><path class="DC" d="M1015,356v-1h-1v-1l-2,-1l2,-1ZM1014,355v-1v1Z"/><path class="DE" d="M1043,322l-1,1v1l-1,2v6l6,4l4,10l6,2l-1,6l3,3h-1h1h-1l-13,3l-5,-17l-4,-17h-1h1l3,-5ZM1041,328v-1v1Z"/><path class="KY" d="M854,374l4,1l4,7h8l5,3l2,-3l8,2l6,-5l1,5l6,3v1l4,11l1,2l2,2l3,4v1v-1v1h2v1v-1v1l3,1h2l-10,11l-6,6v1v-1v1l-6,8l-12,6l-20,2l-19,2l-25,1l-28,4l-4,-1l1,5l-31,2l4,-2l1,-12l-2,-1l5,-6h1h-1h1l10,4l1,-10l8,-3l-3,-5l3,-4l2,-4l4,2h1h-1h1l1,-2l5,-1l5,3l8,-5h1h-1h1l3,3l4,-7l3,1h1h-1h7l1,-7l8,-7v-8l5,1l6,-3v-10h1ZM754,457h-2h2Z"/><path class="MA" d="M1133,246l-5,5l-1,-6l-3,4v1v-1v1v-1l-5,4v1v-1l-2,-4l-1,-1l-5,-4v-3l-9,3l-19,4l-15,2v1v-20l16,-4l24,-5l1,-4l6,-3h1v2v-1l3,4l2,-1v1l-2,3l-1,2v1l-1,4l-1,1l2,1v-1l4,1l3,5l5,6h4l7,-4l1,2l-1,-1v1h1v2l-9,3v1ZM1133,253h1l-6,3v-3ZM1125,254h-1v1v-1ZM1124,255v-1v1Z"/><path class="MD" d="M1059,361v-4ZM1029,368l5,3l-3,2h-1l-6,-2h1h-2l-1,-1l-4,-2l-3,1h-3l1,-7l1,-1v-1l1,-1v-3l-1,-4l-2,1l-1,-1v1v-1v1l-9,-4l1,-3l-5,-1l-3,-5h-1h1h-1l-2,-2l-4,-2l-5,3h-1l-1,2h-7v-1v1h-1l1,-1l-1,1l-2,5h-1h1h-3l-1,2v1v-1v1l-2,2l-3,4l-3,-14l21,-5l33,-5l22,-5h1l4,17l5,17l13,-3h1v2h-1l1,2v-1v4l-1,1l-3,4v2l-5,2h-1l-4,2v1v-1l-1,-4l-2,-1l2,-3h-8v-1l-2,-1l-2,-5l3,-5h-6l4,-2l-1,-2h1l1,-1l-1,-1l1,1l-1,-1l-1,1v1v-1h-1l-1,-1v-1l1,-1l-3,-3l3,-8h3l-1,-6l-3,4l-3,5v7h-1v1l1,4l-2,1l4,16ZM1036,366h-1ZM1059,364l-1,5v1v-5l1,-1v-3v2ZM1058,369h0ZM1056,370v-1v1ZM1056,370h-1h1ZM1040,374h1l1,1h-1v-1ZM1041,375h1h-1v-1ZM1041,375l-1,-1h1ZM1041,375h0ZM1033,349l1,1l-1,1h-1v-1ZM1035,366h-1h1h-1v-1v1ZM1026,346h1l-1,1Z"/><path class="NC" d="M1066,436l-1,-3l1,3l2,3v9l-5,3l5,-4ZM1053,413v1l3,6l4,7l4,6h1h-1l-2,-2v-1v1v-1l-2,-2v-1v1v-1h-1l-3,-6v-1v1v-1l-2,-3v-1v1v-1h-1h1h-1v-2ZM1062,430v1ZM1060,427v1l-1,-1ZM1053,422l-4,5l-7,4h-4l-1,-6l-1,-1v1l2,9l7,-1l8,-3l2,9l1,-8v-1h1v-1l4,6l-1,5l-4,6l-4,3h-3h1h-12l8,2v6l-3,6v-1l6,-5l4,1v1v-1v4l-3,4l-2,1h-1v1h-1v-1h-1v1h-1l-6,2l-1,1h-1v-1v1l-3,3v1l-1,1h-1h1l-6,6l-3,5v3l-1,1v1v-1h-1v-1v6h-1l-8,2l-2,1h-2v1v-1h-1l-24,-18l-5,-3l-25,4v-3l-7,-5l-29,3h-2h1h-1l-6,3l-1,1l-8,4l-11,2l-16,2v-7l4,-1l1,-6l6,-5h5l13,-10v-1v1v-1l-1,-1l7,-5l2,2l4,-4v-1v1v-1h6l4,-7l1,-1v-1v1v-2l1,-3v-2h7l22,-2l13,-3l35,-6l8,-2l17,-3l21,-5h1l5,7l1,1v2l-3,-2ZM1056,420v1v-1h-1ZM1054,416v1l-1,-1ZM1053,414h0ZM1053,414h-1h1ZM1052,414h1v2l-3,-2h1ZM1051,449h1h-1ZM1054,461l-1,2v-1ZM1050,468v2l-1,-1l1,1v-2l3,-5ZM1048,468h1h-1h2h-2ZM1047,468v-1h1v1ZM1045,468h1v1l-9,2l1,-1l6,-2ZM1045,468v-1h1v1ZM1035,473h-1v1v-1ZM1034,474h-1l1,-1ZM1034,474h-1v1l-1,1h-1h1l1,-1v-1ZM1023,491v-3v2ZM1022,493v2v-4v1v-1h1ZM1022,492v1l-1,-1ZM1020,496h1h-1ZM1010,499h-1l-1,1v-1h2l2,-1Z"/><path class="NJ" d="M1047,334l-5,-3l-1,-3v-2l1,-2v-1l4,-4h1l1,-1v-2l1,-1l7,-6l-13,-9l-1,-11l2,-5l4,-8l18,6v9l-1,1h-1l-1,1l-1,4l8,4v15l1,1h-1v-2v3l-1,1v2l-2,2h1v2h-1l-1,1v1h-1v1h1l-2,3v-1v1h-1l-1,1h1l-3,11l-2,1v-8l-11,-2ZM1070,317h1l-1,1l-2,6v1v-2l1,-2v-2l1,-1ZM1068,323h0ZM1068,323h0ZM1066,328h0ZM1066,328v-1h1l-1,1ZM1066,327v1v-1ZM1066,327v1v-1ZM1066,328v-1v1ZM1064,330h0ZM1064,330v1v-1ZM1063,332v-1v1ZM1063,332h0ZM1063,332h-1h1ZM1048,316l1,-1l-1,1ZM1044,321l1,-1l-1,1Z"/><path class="NY" d="M1098,271h-1v1l2,1l-1,-1h1v1l1,-1h2l-2,4l-9,6l-2,2l-9,4l-1,1h-1l-1,1h-1v1v-1l-2,2v-1l-1,1h1h-3h1l-1,-1h-1l-1,1h1l-4,1v-3l1,-2l1,-1h2l3,-4l10,-3l-1,-1l8,-2l7,-6ZM1099,272h1h-1v1v-1h-2h1h-1v-1h1ZM1090,283l-1,1l-5,4h-1h1l5,-4l2,-2ZM1000,210v-1h2v1ZM1000,210v-1h-1l-1,-4l9,-8l8,-15l8,-6l9,-1l20,-5l1,10l3,6v10l3,10v3l1,-2l3,2l3,17l2,5v20l3,19l2,4l-4,4l3,2v1l-2,3v3h-2l-1,1l-1,2v1v-9l-18,-6l-1,-2h-3l-5,-4l-1,-4l-1,-1l-2,-1l-3,-2l-2,-1l-23,5l-40,8l-22,4h-4l-1,-7l12,-10l4,-7l-2,-5l-1,-1h1v-2h-2l-2,-6l12,-5l14,-1l5,2l11,-3l5,-2l3,-8h4l-2,-10v-4h-2ZM1083,288l-3,1l-4,3v-1h1l2,-2h1v-1ZM1080,289h-1ZM1079,289h0ZM1079,289h0ZM1077,291v-1v1ZM1076,291h1v-1v1ZM1077,290v1h-1v-1ZM1077,291h-1ZM1076,291v1h-4h2l1,-1h1h-1h1ZM1071,292v-1v1h1ZM1071,292v-1v1ZM1071,292h0ZM1070,291h1v1h-1ZM1071,292h-1h1ZM1070,292h-1ZM1065,292l1,1l-4,4l1,-4l1,-1ZM999,209h0ZM999,209h0ZM952,246h2v2h-1l1,1Z"/><path class="OH" d="M927,282l3,17v6l3,14h-1v13l-2,8v9l-9,9l-3,-2l-5,6v8l-3,3l-2,-4l-2,5l1,8l-3,4l-6,2v-1l-6,-3l-1,-5l-6,5l-8,-2l-2,3l-5,-3h-8l-4,-7l-4,-1h-7l-1,-26h-1l-4,-42l-1,-4l27,-5v1v-1h1h-1v1h1l13,2l-3,4h8l11,-4l9,-2l2,-5ZM880,297h1h-1ZM881,297h-1Z"/><path class="PA" d="M940,271l1,7h4l22,-4l40,-8l23,-5l2,1l3,2l2,1l1,1l1,4l5,4h3l1,2l-4,8l-2,5l1,11l13,9l-7,6l-1,1v2l-1,1h-1l-3,3l-4,-1l-3,5h-1l-22,5l-33,5l-21,5l-22,3l-4,-25l-3,-14v-6l-3,-17l13,-11Z"/><path class="RI" d="M1119,253v1h-1v-1h-1v-4ZM1117,252v1h1v1l-2,1l-1,1l1,-1v-5h1ZM1116,248v2l-2,4v5l-8,3v-7l-4,-11l9,-3v3ZM1116,251h-1l1,-1ZM1115,254h0ZM1115,256h-1h1h-1h1l-1,-1v-1h1Z"/><path class="VA" d="M1058,370l-1,1v2l-2,2l1,-1v-1h1v-2ZM1057,371v2v-1v1h-1v1h-1v-1h1ZM1047,379l1,-1h1l1,-5h-1h1l5,-2v3v-1v1h-1v1v-1h1v1v-1v1l-3,8l1,1h-1v-1v2v-1v2h-1v1v-1v1v-1v1h1v1h-1v-1l-2,1l-1,3v6l-3,-2l2,-13v-2ZM1053,384l-1,2v1h-1v-1h1v-2ZM1052,388v2h-1v-2h1v-1ZM1051,392v-2h1l-1,1ZM1051,391l-1,1v-1ZM1050,396h-1h1h-1h1v-1v1v-1ZM1050,393v1v-1v1h-1v-1ZM1048,391v1h1v1h-1v-2h1ZM1049,393h-1l1,1v-1v4v-1h-1v-3ZM1038,399h1l-1,6l-13,-8h-7h1h-1l7,3h7v4l17,1l2,5l2,3h-1h1h-1h1h-1v-1l-1,-1v-1v1l-1,3h1h-2l-21,5l-17,3l-8,2l-35,6l-13,3l-22,2h-7v1v-1l-33,5l-12,2l12,-6l6,-8v-1v1v-1l6,-6l10,-11h1v1v-1v1l-1,1v1v-1v1l2,1h-1h1h-1h1h-1h1h-1h1v2h1h-1h1l8,2v-1v1v-1h1v-1v1v-1h6l14,-9l6,-5l-1,-6l5,-9l3,-8v-1l1,-4h-1h1h-1h1h-1h1l8,2l1,-5l3,-7l3,1l2,-5l3,-2v-1l3,-5v-9l13,8l1,-6l5,1l-1,3l9,4v-1v1v-1l1,1l2,1v1h1h-1h1v4l-1,1v1l-1,1l-2,7h4l3,-1l2,5h5l4,4h6l1,9l-1,1l3,3l-1,6v1l1,2h1h-1h1ZM1039,399h-1ZM1048,399h0ZM1048,399h0ZM1043,379v-1v1ZM1043,379v-1ZM1041,375v1v-1ZM1018,397h1h-1Z"/><path class="WI" d="M787,205h0ZM787,205h0ZM708,166l1,1v5l7,4h1h-1h2l1,1h1l1,3h1h-1h1v2l19,3l8,4h8l5,1l3,4l3,3v8l-1,1h1h-1h1l4,-1l-1,6l3,2l-5,4l-2,12l5,-3l2,-6l5,-1v-5l7,-8l-1,6l-7,14l-3,14v14l-3,7l1,11l3,5v9l-58,3l-1,-3l-8,-3l-4,-16v-5h-1h1l-2,-9l-4,-5l-8,-4l-3,-6l-12,-5v-1v1v-1l-4,-5v-14l2,-4l-5,-3l3,-9l5,-3l3,-2v-17h1l1,-1v-1l1,-1h1v1v-1h-1h1v1l1,1h5l17,-9ZM780,210h0ZM780,210h0ZM710,165v1v-1ZM710,165v1h-2Z"/><path class="MI" d="M858,204l1,1l-4,2l5,7v10l-4,3v6l-6,3v8l6,2l4,-5v-2l3,-5l9,-3l5,6l3,17l3,4v12h-3l-3,2l-1,7h-1l-3,5v5l-5,8l-27,5l-9,-1l-33,4l4,-4l6,-16v-13l-10,-22l2,-6l-2,-5l4,-7v-9l3,-4l-1,-4l6,-2l4,-6l-1,10l2,-2l2,-1v-12l8,-2l-4,-3l1,-8l6,-1l4,2h7l2,4h4l10,4ZM880,272v-1h1v-1h2l-3,2v-1ZM879,271h1h-1ZM880,271h0ZM880,271v-1v1ZM880,270h1v1h-1v1v-1ZM880,271h-1v-1ZM876,279h-1h1ZM873,287h-1v-3l1,1ZM872,288h0ZM860,205h0ZM860,205h-1h1ZM845,181h-1l3,-3l-1,-1l3,-1v5h-1h1h-4ZM845,181h-1h1ZM849,181h0ZM848,181h0ZM846,178h0ZM846,178h0ZM845,181h0ZM844,178v-1v1ZM844,178v-1v1ZM749,155l2,3h1v2h1v8l3,-5h8l6,3l3,4l1,1l13,2l1,1l1,-1v-1l7,-5l14,-2l5,-3h4v7h12l3,-2v1h1v2l1,1l1,3h-1v1l7,6h-8h1h-2v1v-1v1h1h-2v-1h1h-1h1h-7l-1,5l-8,-5h-7l-2,4l-13,2l-4,4l-5,-1l-7,7l-6,16l-3,-2l1,-6l-4,1h-1h1h-1l1,-1v-8l-3,-3l-3,-4l-5,-1h-8l-8,-4l-19,-3v-2h-1h1h-1l-1,-3h-1l-1,-1h-2h1h-1l7,-3l3,-4l12,-4l5,-3ZM837,171v3l-1,-3ZM837,171l-2,-1v-2h-1v-1l3,-1ZM836,175v-1h1ZM835,181l1,1h-2h1v-1h-1h1ZM822,189h0ZM822,189h-1h1ZM821,189h0ZM821,189h0ZM815,215h0ZM789,172v1l-1,1l-1,-1ZM774,171l-1,-1l1,1ZM763,147l2,2l-8,6l-4,7v-2h-1v-2h-1l-2,-3l6,-6ZM747,130l1,-1l1,2h-1l-4,3h-1l-1,2h-1l-5,2v-1h1h-1l11,-7ZM749,131h0ZM749,131h-1h1ZM747,130v-1h1h-1ZM741,136h1h-1ZM736,138h0ZM736,138v-1v1Z"/><path class="HI" d="M376,730l12,5l8,6v4l7,5v3l-8,4l-4,1l-7,5l-2,4l-7,-3v-10l-4,-11l6,-5ZM357,709l3,2h6l6,4v3l-7,3l-4,-1v-4l-7,-3ZM339,703l14,2l-2,3l-14,-1ZM346,711l5,5h-5ZM329,701h-6l-2,-1l-4,1l-5,-8h5l4,-3l3,7ZM323,701h0ZM321,700h0ZM283,675l2,8l-6,2l-5,-3l2,-6Z"/><path class="ME" d="M1129,185l-3,-5v-4v4l3,5h-2l-1,-1v1v-1v1v-1v1h-1h1h-1h1h-1v2v-2l-1,2h1h-1v-3v1h-1l1,-1l-3,3v1l-1,1l1,1v3l-3,7l-2,9h-1l-1,-1v-1v1v-1l-3,-4h-1h1h-2v-1v1v-1l-1,-2v-3l-5,-12l-4,-16l-7,-18v-1l5,1l1,-11l4,-4l-1,-18l2,-2v-11l6,-15l1,-5l5,-3l1,6l3,1l5,-5l7,-4l10,5l3,13l5,15l2,10h7l6,11l4,-1l4,5l-1,2h-1h3v-1v1l1,2l-6,5v2h-3v3h-1v1v-1h-1l-1,2h-1l-1,-1v4l-2,3h-1l-1,-1v-1v1v-1h-1v-1h-1l-2,1h-1v1l-2,2v5l-1,-1l-2,-1h-3v-6h-1v1l-1,2v13l-1,1l-1,2h-1v1v-1h-3v-1l-1,1v2v-1v1l-1,3l-2,1h-1h1h-1v-4l-1,-1v1v-1v4v-1v2h1l-1,2ZM1129,185h0ZM1129,185h0ZM1169,149h0ZM1169,149h0ZM1167,150h0ZM1167,150h-1h1ZM1166,153h1h-1h1h-1ZM1164,152h-1h1ZM1161,155v-1h1ZM1160,157v-2v2ZM1158,160h0ZM1158,160h-1h1ZM1155,159v-1v1h1ZM1152,158l2,1l-1,4h-3v-3l1,-1v-1ZM1155,163h-1ZM1153,166v-1v1ZM1153,166h0ZM1151,167v-1ZM1151,166h1h-1h1v2l-1,-1v1v-1ZM1150,162v1v-1h-1h1v-1ZM1151,166h-1ZM1149,162v-1v1ZM1149,166h0ZM1149,166h0ZM1149,170v1v-1ZM1148,165v1v-1v2v-1h1h-1v1h1l-1,1l-2,-1v-1ZM1149,170v1ZM1149,170v1v-1ZM1148,166h0ZM1148,166h0ZM1149,170h0ZM1149,170h0ZM1142,158h1v1h-1v-1ZM1146,172h-2v-1h-1l1,-1l1,1h1ZM1145,169v1v-1v1h-1l-1,1ZM1142,167v1v-1l-1,-1v-2ZM1136,179v-1v1ZM1136,179v-1v1ZM1135,176h0ZM1135,176h0ZM1135,179h-1v-1l1,1h-1h1ZM1130,180h-1v1h1h-1v1h1h-1v1v-5v1h1ZM1126,185h0ZM1124,184h0ZM1124,184v1v-1ZM1123,185h0ZM1123,185h0ZM1123,187l-1,1h1h-1v-1ZM1122,187v1h-1v-1h1h-1ZM1122,190h-1Z"/><path class="MN" d="M730,135l-1,1h-2l-5,5l-8,2l-11,7l-7,11l-12,11v1l1,1l-1,-1v-1h-1l-2,2v1h-1v17l-3,2l-5,3l-3,9l5,3l-2,4v14l4,5v1v-1v1l12,5l3,6l8,4l4,5l2,9h-1h1h-1l-34,2l-21,1h-50v-29l1,-1v-21l-5,-3l-3,-7l4,-2l2,-10l-3,-9v-1l-1,-1v-2v1v-1l-1,-2v-6v1v-2h1h-1h1l-1,-2l-1,-1v-1h1h-1h1v-1h-1h1h-1v-1h1h-1h1h-1h1v-1h-1h1h-1v-1h1h-1h1h-1h1h-1h1h-1h1h-1v-1v1v-9v1v-3v1v-1l-1,-4v-1h-1h1h-1v-2h-1h1h-1l-3,-10l1,-1v-2v1v-2v1v-4v1v-7v1v-1l1,-1l-1,-2v-1h-1h1h-1v-3h-1h1h-1v-3h39v-10l6,1l3,16l8,3h8v3l12,-4l13,5l2,7l2,-4l11,4l3,4l7,-3l6,-4l2,5l14,-1l1,2Z"/><path class="NH" d="M1116,209h0ZM1108,200l1,2v1v-1v1h2h-1h1l3,4v1l1,1h1l-1,6h1h-1l-6,3l-1,4l-24,5l-1,-1l-2,-11l1,-17v-17l6,-5v-6l-1,-10l1,-8l4,-1v-1v1l7,18l4,16l5,12Z"/><path class="OR" d="M78,111v1h3v-1h2v1l1,1v1l1,1h1l1,1v-1h1l5,4v14l4,2l2,2l9,-2l8,1l5,5l13,-1l2,2l19,-1h13l37,9l1,5l4,4l1,4l-11,15l-1,1l1,-1l-1,1l-11,13l3,5l2,5l-5,8l-10,49l-37,-8l-23,-6l-19,-5l-42,-13l-23,-5v-1l-1,-2v-11l2,-2l-1,-10l3,-2l4,-9l5,-1v1v-1v1l1,-1h-1h1h-1l-1,-3l5,-6l1,1v-1h-1l3,-6h1h-1l2,-9l5,-9v-4l5,-9l2,-9l3,-5h1h-1l1,-8l3,-5ZM87,115v1l-1,-1ZM84,112v1l-1,-1h1ZM83,111h1l-1,1ZM82,111h1ZM82,111h0ZM82,111h0ZM82,111h-1ZM81,111v1h-1v-1v1v-1ZM80,112h1h-1v-1ZM80,111h1h-1ZM80,111v1h-1v-1h1h-1ZM80,111v-1v1ZM78,111h1h-1ZM78,111h0ZM78,111h0ZM74,108h-1ZM51,176l-1,-1h1ZM47,184h-1h1ZM46,185v-1h1ZM47,184h-1h1ZM46,184h0ZM46,184h0Z"/><path class="WA" d="M115,58v-2l1,-1h1l1,1l3,-1l-3,-5h-1v-1l1,-7l18,5l23,7l25,5l11,4l25,5l-7,33v5l-5,17l-3,13v14l-37,-9h-13l-19,1l-2,-2l-13,1l-5,-5l-8,-1l-9,2l-2,-2l-4,-2v-14l-5,-4h-3v-1l-1,-1v-2h-2l-2,-1l-6,-2l-1,-1l2,-5v3l1,-2v-1l2,-5l-1,-7v1h1l1,-1h3h-1l-4,-4v-23l-2,-9v-1l2,-6l3,2l8,8l7,2l11,6l5,-1v8l-6,3l3,2l4,-6v6h-1l-1,1v2h1v3l-1,1v1l-1,1v1l-2,2l-1,-1v-2l-1,3l-1,1l-1,-2v-1l1,-2l-1,1h-1h1h-1l-1,1v1h-1v1l1,1h1l1,1l2,1l4,-4h4l1,-7v1v-1l1,-6l5,-4l-1,-6l-2,4v-11h-1ZM116,59l1,3l-3,7h3h-4l-1,-7l3,-4l1,1v-1ZM109,88v-2l1,-1v-1l1,-1ZM111,80v1v-1h-1v-2l1,-1h1ZM118,55h-2v-1l1,-1ZM106,88l1,1v1h-1ZM117,50l1,1v1h-1v-3ZM105,91h1l-1,1ZM105,89l1,1h-2ZM105,91h-2l1,-1h1ZM114,52h-3h1h-1v-1h-1v-1v1v-1l1,-1ZM115,50h0ZM114,52v2h-1v-2ZM115,50h0ZM113,54h1h-1v1h1h-1ZM112,55h1h-3l1,-2l1,-1ZM103,86l1,-1l-1,1ZM112,55h1ZM102,88v2h-1v-3l1,-1h1v1ZM101,90l-1,-1v-1h1ZM111,51v1h1h-1v1v-1h-1v-1v1v-1ZM108,50h1v1l1,1v3l-3,-4v-1v1v-1ZM110,53h0ZM110,53v-1v1ZM109,50h1v1h-1v-1h1ZM107,48h1v1l-1,-1ZM84,114v-1v1h1v1h1h-1l-1,-1v-1ZM81,90h1h-1ZM76,102h-1h1v1l-1,2v-3ZM78,91l1,-1l-1,1Z"/><path class="AK" d="M87,607l3,-1l1,-1h2v1v-1l3,-4l4,1l6,-5l1,1h1v3l2,-2l7,2l1,1v-1v1v-1v1v-1l1,3l2,1h3v1h1l1,-1h5l2,1h1l2,1h5l3,1h1l2,-1h1h-1h1v-1v1v-1v1v-1v1v-1h3l2,1l1,1l2,1h2l7,33l2,15l9,41l8,-2l1,4l9,5l2,3l4,-3l3,-8l4,4l10,6l9,8l4,6l12,2l2,7l-1,6l-4,-3v-1l1,-1v-1h-1v-2h-1v-1h-1l-1,-1h-1l-2,2h1h-1h1h-1h1v3l-3,-1v-2l1,-1l-1,-1v-2h-2h1h-1v-1h-1v-2v1h-2l-1,-2l-1,-1h-1h1h-2l-2,-1l1,-1l-1,-1h-1l-1,-2h1l-1,-1v1v-1h-1l-2,-1l-1,-1v-1h-2l-1,-1h-1v-1l-1,-1v-2h-2v-1l-1,-1v2h1l1,2v1v-1v1l2,2v1v-1v1h-2l-2,-1v1l-1,-1v-1h-1v-1l-1,-1l1,-1l-1,1v1l-3,-1h-1l4,2v1v-1v1h1v2l-1,1h-1v1l-1,-1l-5,-2l-5,-4h-1l-4,-1l-1,-1h-1v-5l-3,3l-6,-1h-8l-6,2h-1v-1l-2,-1l-1,-1v-1h-1v1h-1h1h-4l1,-1v-1l-1,-1h-2l-2,-1l-1,-1v1v-1h-1v1v-1v1h-2l-1,1h-1v-1h-1v1v-1v1l-2,2h2v-1v1l2,1v1h-1v3v-1v1h-1v1l-5,1v1v-1l-1,2v1v-1v1v-1v1v-1l-1,-2v3l-1,-1l-2,4v-2v2v-2l-2,2v1l-5,1l-1,-1h1h-1l3,-2l1,-1h-3l2,-11l9,-8l-8,3l-7,11h1l-4,5l-4,3v1l2,1l2,2l-1,3l-3,3h-1h1h-1h1h-1h1l-2,3h-3l-7,6h-1h1v2l-1,1v1h-1l-10,6l-2,3l-1,1h-2h1h-1v1v-1h-1l-5,2v1h-2l-3,1l-2,-2l-1,3h-1v1l-4,-2v-1v1l-3,4h-1v-3l2,-1l1,-1h1v-1l9,-4h2h-1h1l-1,1h1l3,2v-6l10,-5l5,-6l2,-6l2,-7l-5,2l-1,-4l-4,2l2,3l-8,-4h-3v1v-1l-5,2l2,-5l-3,-10l1,-1h-1l1,-3v-1v1l-2,5h-9v-7h1v-1h1l2,-1h-1h1v-1l-1,1h-2l-1,-1v-1h-1l1,-5h-4l-1,-4l6,-6v-1h1l1,-1l2,2h1v-2l-1,-1h1l2,-1v-1l6,-3h2h-1l1,1l6,-3l-2,-6l2,-5l-9,4l-2,-2h-8l-4,-3l1,-7l-5,-5h1h-1l1,1l2,-2h2v-1h1l1,-1l3,1l-2,-1l1,-1h3l1,-1l3,4l1,1l7,1v1v-1v1l1,-1l3,-1v1h-1h1v-1l-1,-3h1l3,1h1h-1h1v-1l-1,-1h-3v1h-1l-1,-4v-1h-4v-1v1l-4,-2l-2,-6v-1l-5,-7l1,-4l7,1l5,-4v-3l2,-2v-1v1v-1l2,-2h1v-1h1l-1,1h1h-1h1h-1v1ZM239,730h1l-1,1h1h-1ZM236,726l1,1h1v1h1v2v-1v4l-1,-1l-1,1v-2h-1v1l1,1h-1v-1h-2l1,-1l-1,-1v-1v1v-3h1v-1v1v-1ZM239,735l1,1h-2v-1v1v-1h1ZM237,733h1v2l-1,1v-2l-1,-1h1h-1ZM235,727h-1l1,-1ZM238,736h0ZM238,736h-1h1ZM236,733v-1v1ZM235,732h1v3h-1h1h-1v-3ZM235,731h0ZM230,726h-1v-1l-1,-1h1h-1v-1h1v1h2v2v-1v1v-1v1h-1ZM225,726v1h1h-1l1,1h1l3,3h-1h1l2,1h1h-3v1l1,-1h1v1h-1h2l1,1l-1,1h1v-1v1h1l-1,1h1v1l-1,2h-1h1l-1,-1h-1h1l-1,-1v1v-1v1v-1l-1,-1v1v-2v1h-3h1h-2v-1h2h-1v-1h-1v-1h-2v-1h1v-1l-1,-1v-1l-1,-1h-2ZM235,736h0ZM231,726v1h1h-1h1h-1ZM235,736h0ZM231,727h0ZM231,727v-1v1ZM228,724v1h1v1h1h-1h2v1v-1v1h-1v-1v1h1v1v-1v1v-1v1h-1l-1,-1h-1v1v-1h-1v-1l1,-1ZM231,727h0ZM231,727h0ZM233,733h0ZM231,727h-1h1ZM233,733h-1h1ZM227,722h1h-1ZM233,739h0ZM228,722v1h-1v-1ZM228,724v1h-1l1,-1h-1ZM233,739h0ZM228,723h-1h1ZM230,731h0ZM227,723h0ZM224,721l2,1h1v1l-1,1h-1v-1l-1,-1ZM227,722h-1ZM230,731h-1h1ZM231,739l1,1l-1,-1v-1ZM226,724h1v2h-1v1v-1v1v-1h-1v-2ZM231,735h0ZM229,736v1h-1h1l1,1v1h1l1,1h-2v-1l-3,-3h1ZM230,736h1v2l-1,-1v-1ZM230,738h0ZM230,738h0ZM230,738v1v-1ZM226,727h1h-1ZM226,727h1l-1,1v-1v1ZM225,727h1h-1ZM229,736h0ZM229,735h0ZM223,719l1,1v2l1,1h-2v-1h-1h1v1h1v2h-1l-2,1v-2h-1v-1v1v-1l-1,-1h-1ZM229,735h-1h1ZM226,726v1h-1v-1ZM224,723h1v1h-1ZM229,736h-1h1ZM227,733h0ZM228,734h0ZM228,734h-1h1ZM227,733h0ZM226,736h1v1ZM225,730v1v-1v1h1h-1ZM227,735h-1ZM223,722h-1h1ZM223,722h-1h1ZM226,733v2v-1h-1ZM223,728h1l1,1v1h-1l-1,1h-1v-2l1,-1ZM224,731v1h1v-1v1h-1h1l-2,-1h1v1ZM225,730h-1h1v1h-1v-1v1v-1ZM224,730h0ZM224,730h0ZM226,734v1h-1v-1ZM220,716h0ZM225,735h1v1ZM224,734h1v1h-1ZM218,714l-1,-1h1ZM223,731h0ZM219,723h1v1h1h-1h1v1l-1,1l1,1h-1v4l-2,-4h2h-1v-1h-2h1v-1h-1h1h-1h1h-1l-1,-2h1h-1h1h-1h1v-1v1v-1h1l1,1v1ZM219,723h0ZM223,731h0ZM210,710h1h-1h1l1,1l2,-1v2h1v2v-1h-1v-2v3v-1v1h1l2,2v1l1,1h-2l1,1l-3,3v-5v1v-1l-2,-6h-2v-2ZM219,722h0ZM219,722h-1h1ZM219,723v1v-1ZM218,722h0ZM218,722h0ZM218,722h0ZM218,722h0ZM214,713h1h-1l1,1h-1ZM220,731h0ZM220,731h0ZM218,722h-1h1ZM218,725h0ZM214,710h-2ZM218,725h-1h1ZM217,723h0ZM217,723h0ZM214,725v1h-1h1h-1v-1h1h-1h1h-2v-2h-1v-2h-1l-1,-1v-1l1,-1h1l2,2l1,2v4ZM211,710v-1v1ZM211,709v1h-1v-1ZM205,717l-1,-1v-1l-1,-1v-1h2v-1l3,1v-1v1l-1,1l1,-1h1l2,5h-2l-1,-1l1,1v2h-1l-1,-1h-1v-1h-1v-1v1ZM205,717h0ZM210,709h-1h1ZM210,711h0ZM210,711h-1h1ZM211,721v1h-1v-1ZM206,703h0ZM211,722h0ZM210,722h1h-1h1h-1h1h-1v-1ZM206,710l1,1h-1ZM210,722h0ZM209,720v1h1v3l-2,-4h1v1ZM209,721v-1l1,1v1v-1h-1v-1ZM208,717l1,1l-1,-1ZM205,710h0ZM204,709v1v-1ZM205,710h-1h1h-1h1ZM204,709h0ZM205,712v1h-1v-1h1ZM203,708h0ZM204,709h-1h1ZM204,710l-1,-1h1ZM205,718h1h-1ZM203,708v-1v1ZM203,709h0ZM203,709h0ZM203,709h0ZM205,717v1v-1ZM203,714l1,1v1h-1ZM184,703v-1ZM154,608h0ZM154,608v-1v1ZM148,606h1h-1ZM148,607v-1v1ZM148,607h-1h1ZM147,607h0ZM147,607h0ZM161,704h-1h1ZM147,607h0ZM157,702h1h-1ZM157,700h0ZM157,700h0ZM157,700h0ZM157,700h0ZM157,700h0ZM157,700h0ZM157,700h0ZM157,700h0ZM157,700h0ZM157,700h0ZM157,700h0ZM157,700h0ZM157,702h-1h1ZM157,700h0ZM157,700h-1ZM157,700h0ZM157,700v1v-1ZM156,700h1h-1ZM156,700h0ZM156,700h0ZM156,700h0ZM156,700h0ZM156,700v1v-1ZM156,701h0ZM156,701h-1ZM156,702v-1v1ZM156,702h0ZM156,702h0ZM156,702h-1h1ZM155,701h1l-1,1v-1h1ZM153,701v1v-1h-1ZM153,700l-1,1h-1l2,-1v-1ZM137,606h0ZM147,696v1l-1,-1ZM137,606h0ZM146,703h-1ZM145,699h0ZM145,699h0ZM135,605h0ZM135,605h0ZM144,697h0ZM143,703v-1v1v-1h1h-1v-1h1v1h-1h1h-1h1v-1v1v-1v1v-1v1l-1,2ZM142,699h1h-1h1v1h-1v-1v1ZM143,706h-1v-1h1v1v-1v1h-1ZM142,697v1h-1h1v-1h-1ZM133,606h1h-1ZM142,702h1v1h-1v-1v1ZM143,706l-1,1v-1v1v-1h1ZM142,704v2h-1h1h-1h1v-1v1v-1l-1,1v-1v1v-1h1ZM141,699h1v1h-1h1h-1v-1v1ZM131,605h0ZM131,605h0ZM139,700h0ZM131,605h0ZM131,605h0ZM131,605h0ZM131,605h0ZM131,605h-1h1ZM135,710h0ZM135,710h0ZM135,710h0ZM131,713h0ZM131,713h0ZM131,713h0ZM125,605v1h-1v-1ZM124,606h1v-1v1ZM125,606h-1ZM129,714v-1ZM123,723l-2,4h-2l-1,-1l1,-2h1v-1h2h-1l1,1v-1h1ZM118,727v1h4v1h1h-1h1h-1v2v-1v1l1,2l-4,2h-1l-1,1l-3,4h-1v-3l-3,-5l3,-1h1v2h1l-1,-1v-2l2,-2v2h1h-1h1v-1h1v-1v1v-2h-1ZM123,729h0ZM123,729v1v-1ZM123,730h-1v-1h1ZM121,722v-1v1v-1v1v-1h1v2h-1v-1ZM121,723h-1h1ZM121,723h-1h1ZM118,735h1l-2,1ZM119,727h-1v-1ZM119,728h0ZM119,728h-1h1ZM117,727l1,1v1h-1l-1,-1ZM117,730h0ZM117,730h0ZM114,732l1,1h-1ZM113,742v-1v1v-1ZM113,740h1h-1h1h-1ZM113,741v1ZM110,599h0ZM110,599h0ZM110,599h0ZM99,746h0ZM99,746h0ZM99,746h0ZM98,746h1h-1h1ZM86,747l-1,1v-1ZM84,756h0ZM85,748h-1ZM85,739h0ZM84,756h0ZM85,739h0ZM83,754v1v-1v1v-1h-1h1h-1v-1h1ZM77,752h0ZM77,752l-1,-2ZM75,745h0ZM75,745h0ZM75,745h-1h1ZM87,605h1l1,1h-1v-1h-1v1ZM70,752l1,1h-2v-1v1v-1ZM73,703h1l-1,1v-1ZM65,759h0ZM65,759h0ZM63,751l1,-1ZM61,752v3h1l-10,3l3,-5ZM71,674v1v-1v1l-2,1h-1l-1,-2ZM67,695v1h-1ZM67,674l1,2l1,1v2h-1l-3,-3l1,-2ZM62,694h1v2h1v1h1h-1h1h-1v1h-1v3l-4,-4l3,-2ZM65,676l1,1h-1v1v-1ZM67,674h-1ZM64,677h1v1h-1ZM58,703h-2h1h-3l-5,-4l6,-1ZM66,642l1,-1l-1,1ZM59,689h0ZM43,761v-1v1ZM44,762h-1v1v-1h-1h1v-1l1,1v-1ZM65,642l-1,1h-1ZM41,760v1h1l1,-1v1h-1v1h1v1l-5,2h-5v-1l6,-2ZM25,767l8,-5v3l-8,2ZM25,767h0ZM29,767h0ZM29,767h0ZM38,662h1l1,1l10,5l-5,1l-5,-5ZM25,767h0ZM25,767h0ZM19,767v-1h1ZM20,766h-1h1ZM39,662h0ZM39,662h-1h1ZM-6,766v1v-1h-2v1v-1l-6,-1h5l1,1v-1v1v-1ZM-8,767h0ZM-8,767h0ZM-15,765h0ZM-15,765h-1h1ZM-16,765h0ZM-16,765h-1h1ZM-18,765v1v-1h-1ZM-17,763v1v-1v1v-1v1h-1ZM-19,765h1v1h-1ZM-21,766v-1ZM-21,765v1l-2,-1v-1v1v-1v1v-1ZM-26,764h0ZM-26,764h0Z"/><path class="mesh" d="M732,510l-2,9l-3,6l-3,5l-3,6l2,3l-3,5v1M721,558l3,3l-2,8h3l-1,2M724,571l1,2l3,3l-1,2l-2,3l-1,4l-1,-1l1,1l-4,5l-2,3h1M756,619h1v1h-1v1l2,5v1l3,6h1l1,1h1M1041,375h0M641,542l-1,-1v1l-3,-1v-1h-1l-2,-2h-1M630,536l-1,-1h1M173,526h5v-1l2,-7l-3,-1v-10h2l4,-3l1,-9l2,-4l2,-2l3,-2l4,-1l-5,-6v-6l-3,-11l3,-4v-19l1,-1v-5l3,-2l6,1l4,4l4,-5l1,-10l3,-12l30,6l45,7l10,2l24,3v1l-3,14v7l-3,14v6l-7,50l-4,27v7l-3,14l-2,18M644,544v-1h-1v-56l-4,-25l38,-1l62,-2v2h2l-7,12l15,-1l1,3v-1l-6,6l-2,9h-2h2l-1,2v6l-4,4v4v-1M737,505l-5,4v1v-1M760,443l-1,12l-4,2l31,-2l-1,-5l4,1l28,-4l25,-1l19,-2l20,-2l12,-2l33,-5v2l-1,3v2l-1,1l-4,7h-6v1l-4,4l-2,-2l-7,5l1,1v1l-13,10h-5l-6,5l-1,6l-4,1v7l-29,3l-27,3h-5l-26,3h-14l-35,3M321,428l1,-13l3,-14v-10l3,-20l3,-14l2,-20l2,-14v-6l30,3l30,4l45,4l25,2l17,1l-2,28l-1,25l-2,19v14l-2,27l-21,-2l-42,-3l-44,-4l-3,-1l-44,-5M898,388l6,-2l3,-4l-1,-8l2,-5l2,4l3,-3v-8l5,-6l3,2l9,-9v-9l2,-8v-13h1l4,25l22,-3l3,14l3,-4l2,-2v-1l1,-2h3l2,-5l1,-1l-1,1h1v-1M782,417v1h1l-3,4l3,5l-8,3l-1,10l-10,-4h-1l-5,6l2,1l-2,-1l-5,-3l-2,-15l-8,-6l-9,-4l-4,-4v-5l4,-6l1,-7l-8,-3l-3,3l-2,-11l-8,-5l-7,-7l-4,-10l1,-8h1M994,340h1h-1M704,350h-1v-1l-6,-5l-52,3h-32l-2,-5l-1,-12M609,327h1M798,305l33,-4l9,1l1,4l4,42h1l1,26h7l4,1l4,7h8l5,3l2,-3l8,2l6,-5l1,5l6,3M239,72l-3,10l-3,20l3,3h-1l2,10l-2,1l7,6l5,11v1l4,7l6,1l-3,9l-3,4v4l-3,10l-1,2v1v-1M599,292l-2,-4l-2,-2h1l1,-2v-1l2,-11l-2,-1v-1v1M247,172l6,2h2v-1l4,-3l2,5l1,2v6l4,6l-1,3v4l5,1l2,12l4,-2l7,3l2,-3h1l2,1v1h3l4,1h7v-1l2,-3l6,8l-5,25l-1,12l-5,31M199,179l1,-1l11,-15l-1,-4l-4,-4l-1,-5v-14l3,-13l5,-17v-5l7,-33M458,105l-2,23l-1,23l-1,12v11l-2,15l-2,27l-51,-5l-27,-4l-21,-2l-8,-2l-24,-2l-7,-2l-2,15M585,111v3h1v3h1v1l1,2l-1,1v7v-1M587,128v5l-1,1l3,10h1v2h1v1l1,4v11h1h-1v1h1v1h-1v1h1v1h-1v1l1,1l1,2h-1v7l1,2v2l1,1v1l3,9l-1,5l-3,-1h-33l-29,-1l-12,-1l-21,-1l-9,-1l-37,-2l-1,-1M597,197l-1,5l-4,2l3,7l5,3v21l-1,1v29M440,328l1,-18l4,-38l5,-56M720,544l2,1v1h-1l1,1v-1M1087,160l1,10v6l-6,5v17l-1,17l2,11l1,1l-16,4l-2,-5l-3,-17l-3,-2l-1,2v-3l-3,-10v-10l-3,-6l-1,-10M718,289l58,-3M816,623h-1v-6l-6,-3v-6l12,-1l44,-4l6,-1l4,8l20,-2l25,-1l18,-2l1,4v2h2l2,-1l-1,-7v-2h-1l3,-4l4,1h4l1,1h1v-1h1M664,642v1l-5,6l2,4M844,492l10,39l2,3l3,14l2,3l2,6l4,6v5l-2,15l2,3l1,12l3,4M791,627l-3,-26l-1,-8v-93l-1,-2M963,560h1M873,489l16,-2l11,-2v2v-1M847,374v10l-6,3l-5,-1v8l-8,7l-1,7h-7l-3,-1l-4,7l-3,-3h-1l-8,5l-5,-3l-5,1l-1,2h-1l-4,-2l-2,4M722,545v6h1l-2,7l-29,1l-38,1v28l3,3l1,2h1v1l1,7l3,3l1,2l1,3h1v7l1,3h-1v4l-2,5l-1,5v1h-1v1h1l1,7M937,529h-1h1M936,529l2,1v1l3,2h1v1h1l2,2l1,3l1,2h1v3l1,1h-1v-1M948,545l6,4v1l2,2v1h1v1h-1v1h1v2v-1M957,557l1,1v1h1M960,559h1M480,359l45,3h35v1h36v1h27l7,2l2,3l-1,2h-1l-2,4l4,8l4,4h1h-1M637,387h1v61h-79l-46,-2h-14l-24,-2M755,457l-1,1h-1l1,-1h-2h2M757,617v1v-1M757,618l-1,1h1M752,457l1,1v6h-3l2,4l-3,4M639,462l-1,-14M900,485l8,-4l1,-1l6,-3h1h-1h1M916,477h1l29,-3l7,5v3l25,-4l5,3l24,18M1008,500v-1M34,222v-1M623,364l-5,-8l-4,-7v-1v1M1072,280l-3,-2l4,-4l-2,-4l-3,-19v-1l15,-2l19,-4l4,11v7M1072,280v1M1015,358v-2M614,348l-1,-1M1015,356v-1h-1v-1l-2,-1l2,-1l1,4M1042,323v1M959,341l21,-5l33,-5l22,-5M1036,326l3,-5l4,1M1041,328v-1M915,410l-10,11l-6,6v1l-6,8l-12,6M1119,253v1M1119,253l-2,-4M1116,248l-5,-4v-3l-9,3M1068,250v-19M1084,227l24,-5l1,-4l6,-3h1M1014,360h0M1012,353l-1,-1v1l-9,-4l1,-3l-5,-1M1055,371l-5,2h-1M926,435h7l22,-2l13,-3l35,-6l8,-2l17,-3l21,-5M1050,414h1M1046,319h1M1048,317v-1M1049,315l7,-6l-13,-9l-1,-11l2,-5l4,-8l18,6M1066,287v2M1066,290v1M1065,292h-1M1063,293l-1,4M1044,321l1,-1M1048,276l-1,-2h-3l-5,-4l-1,-4l-1,-1M445,272l44,3l43,3h25l2,2l7,5l4,-3l6,1l4,-1v1h1l13,5l5,5M1037,265l-2,-1l-3,-2l-2,-1l-23,5l-40,8l-22,4h-4l-1,-7M927,282l3,17v6l3,14M840,302l27,-5M454,442l-1,14l-2,8l-1,23l-3,29l-4,45l-1,22l-35,-3l-49,-5l2,6M178,259l36,8l24,5l-6,34l-3,10l-1,10l-4,15l-4,25l-8,44M187,463l-20,-32l-2,-1l-27,-42l-11,-15l-26,-41l-4,-4l4,-19l5,-16l2,-10l10,-38l23,6l37,8l10,-49l5,-8l-2,-5l-3,-5l11,-13l1,-1M654,560v-15l-5,-1h-1l-1,1h-2h1l-1,-1h-1v-1M642,543l-1,-1h1M716,176h2l1,1h1l1,3h1v2l19,3l8,4h8l5,1l3,4l3,3v8l-1,1h1l4,-1l-1,6l3,2M645,544v1M705,262l-2,-9l-4,-5l-8,-4l-3,-6l-12,-5v-1l-4,-5v-14l2,-4l-5,-3l3,-9l5,-3l3,-2v-17h1M684,172v1M1116,209h0M1116,209h-1M1114,208v-1l-3,-4h-2v-1l-1,-2v-3l-5,-12l-4,-16l-7,-18v-1M84,114l1,1M88,115l5,4v14l4,2l2,2l9,-2l8,1l5,5l13,-1l2,2l19,-1h13l37,9M86,115h1M84,112v1M82,111h1M74,108h0M634,538l-1,-1v1M633,537l-3,-1v-1h-5l-1,1h-3l-2,-1l-6,2h-7l-4,2l-14,-2l-3,-3l-1,3M584,537l-3,4l-3,-5h-1v1l-4,-2h-6l-4,-2l-3,-5h-4l-5,2l-4,-2h-4v-1l-3,-1h-3v-1h-1l-3,-5l-2,-1l-1,1v1h-1v-1h-5l-7,-8v-22l1,-4v-20l1,-6l-47,-2l-19,-2M974,341h7l1,-2h1l5,-3l4,2l2,2M705,350h-1v1M995,340l3,5l-1,6l-13,-8v9l-3,5v1l-3,2l-2,5l-3,-1l-3,7l-1,5l-8,-2h-1h1l-1,4v1l-3,8l-5,9l1,6l-6,5l-14,9h-6v1h-1v1l-8,-2h-1v-2h-1h1l-2,-1v-1l1,-1v-1h-3l-3,-1v-1h-2v-1l-3,-4l-2,-2l-1,-2l-4,-11v-1M610,330l-1,-3h1M610,327l-1,-5l-3,-4v-10l-2,-2l-3,-4v-9h-2v-1h-1M597,270l-1,-5h53l21,-1l34,-2h1v5l4,16l8,3l1,3l5,4v4l5,3v9l-2,6l-7,4l-8,2v6l3,2v6l-3,7l-5,1l-1,7v1M784,308l1,16l3,34v17h-1M788,375h-1v4l3,7v1l1,1l-3,9l-3,7h-1v1M784,404v1h-1v1l1,2l-1,1l-1,3l-1,4l1,1v1M900,487h-1l-1,2l-1,1l-1,4l9,5h2l2,3l7,10l9,5l9,8v3h2v1h1M718,593l-4,10l-1,12l26,-1l18,-2M757,612l1,1h-1v4M757,618v1M1059,357h-1l-13,3l-5,-17l-4,-17h-1M716,176h1M643,543h-1v-1M299,282v5l-4,19v4l40,7M238,272l27,5l34,5M34,222l23,5l42,13l19,5M1015,356h0"/></g><g class="president-cartogram"><path class="AL" d="M726,508h90v90h-90Z"/><path class="AK" d="M100,730h52v52h-52Z"/><path class="AR" d="M578,430h73v73h-73Z"/><path class="AZ" d="M234,504h99v99h-99Z"/><path class="CA" d="M4,360h222v222h-222Z"/><path class="CO" d="M340,412h79v79h-79Z"/><path class="CT" d="M1144,196h79v79h-79Z"/><path class="DC" d="M890,336h52v52h-52Z"/><path class="DE" d="M1048,378h52v52h-52Z"/><path class="FL" d="M780,634h162v162h-162Z"/><path class="GA" d="M822,508h120v120h-120Z"/><path class="HI" d="M160,730h60v60h-60Z"/><path class="IA" d="M468,170h60v60h-60Z"/><path class="ID" d="M230,176h60v60h-60Z"/><path class="IL" d="M534,176h134v134h-134Z"/><path class="IN" d="M674,208h99v99h-99Z"/><path class="KS" d="M432,344h73v73h-73Z"/><path class="KY" d="M686,312h85v85h-85Z"/><path class="LA" d="M604,588h85v85h-85Z"/><path class="MA" d="M1100,90h99v99h-99Z"/><path class="MD" d="M948,336h95v95h-95Z"/><path class="ME" d="M1230,4h60v60h-60Z"/><path class="MI" d="M714,76h120v120h-120Z"/><path class="MN" d="M466,76h60v60h-60Z"/><path class="MO" d="M514,316h95v95h-95Z"/><path class="MS" d="M646,508h73v73h-73Z"/><path class="MT" d="M286,76h52v52h-52Z"/><path class="NC" d="M948,436h116v116h-116Z"/><path class="NE" d="M400,240h67v67h-67Z"/><path class="ND" d="M374,76h52v52h-52Z"/><path class="NH" d="M1164,24h60v60h-60Z"/><path class="NJ" d="M1026,196h112v112h-112Z"/><path class="NM" d="M340,498h67v67h-67Z"/><path class="NY" d="M932,28h162v162h-162Z"/><path class="NV" d="M234,334h73v73h-73Z"/><path class="OR" d="M140,220h79v79h-79Z"/><path class="OH" d="M780,202h99v99h-99Z"/><path class="OK" d="M492,424h79v79h-79Z"/><path class="PA" d="M886,196h134v134h-134Z"/><path class="RI" d="M1228,184h60v60h-60Z"/><path class="SC" d="M948,558h90v90h-90Z"/><path class="SD" d="M374,158h52v52h-52Z"/><path class="TN" d="M686,402h99v99h-99Z"/><path class="TX" d="M414,510h185v185h-185Z"/><path class="UT" d="M260,424h73v73h-73Z"/><path class="VA" d="M834,394h108v108h-108Z"/><path class="VT" d="M1106,24h52v52h-52Z"/><path class="WA" d="M120,76h104v104h-104Z"/><path class="WI" d="M568,76h95v95h-95Z"/><path class="WV" d="M808,320h67v67h-67Z"/><path class="WY" d="M312,254h52v52h-52Z"/></g></svg>