<?xml version="1.0"?><!DOCTYPE svg PUBLIC "-//W3C//DTD SVG 1.1//EN" "http://www.w3.org/Graphics/SVG/1.1/DTD/svg11.dtd"><svg xmlns="http://www.w3.org/2000/svg" version="1.1" width="1294" height="800" viewBox="0 0 1294 800"><g class="states"><path class="WV" d="M1028,354v-1v1v-1l5,-4v-9h1v-8h1v-9l-2,-3l3,-1l1,4v6h1v5l1,1v6l1,3l14,-2l3,-1h5l1,4v7l1,3l4,-5l3,-2v-2h3l3,-5h1h-1h1l1,1h6v-1v1v-2v1v-1l1,-1l2,-1h1h-1h1v-1h3l2,1h1h-1h1l2,2h1h-1l1,1v-1v1h1h-1h1v1l2,3l-1,5l-3,-1l-8,-5h-1l-1,5v1v-1v1h1h-1h1l-1,1v1v-1v1v-1v1l-2,5l-1,1l-2,3l-2,4l-3,-2l-1,3h-1h1h-1l1,3h-1h1h-1l-2,7h-1h1h-5l-1,-2l-3,-1l-1,1v5l-1,2l-2,3l-1,7l-2,3v1l-1,2v1v-1v1l-1,7l-3,3l-1,-1l-5,4l-3,-1v3l-7,3l-4,-2l-2,4l-3,1l-6,-4h-1h1h-1v-1l-1,-2v-1h1h-1h1h-1h1l-1,-1h-1v1v-1h-1l-3,-2l-3,-1l-1,-2v-1v1v-1l-4,-2v-1v1v-1l-1,-1h1h-1h1l-4,-5v-6l-1,-2l2,1l4,-2l1,-4l2,-1l-1,-3v-1v1v-1l2,-8l2,1l1,3l3,-3v-8l3,-1l2,-5l4,1Z"/><path class="FL" d="M1046,772v-1l3,-3l3,1l-3,4ZM974,602l2,5l2,3l2,-1h9l7,-1h9l8,-1h9l19,-2l1,3v1v-1v1h1h-1h1v2l3,-1l1,-1v-1v1v-6l-2,-1v-1l3,-4l3,1h1h-1h2h-1h3h-1h2v1v-1v1l5,-1v5l3,4l-1,2l3,5l1,5l2,2v3l2,2l1,3l2,2l3,6l7,9l5,4l3,6l-1,7l4,8l5,5l3,8l2,1l1,4l7,11v5h1v15l1,1v12l2,2h-2l1,7l-4,6l-2,2l-1,3l-3,2l-3,4l-4,1l-4,4l-4,1v1l-7,2v2l-11,4l-4,-3l-3,1v-3l5,-1l8,-4l3,-4l3,-1l6,-1l1,2h3l2,-2l-4,-3v-1l-4,-4v-6l-3,-4l-7,-5h-5l-5,-6l-1,-6l-3,-4l-5,2l-2,-3l-1,-3l-2,-1v-4l-3,-4l-3,-2l-2,-5l-7,-6l-1,-7l-4,-4v-7l-1,-3l2,-1l1,-4v-6l-3,-4v-4l-2,-1v-2l-5,1l-2,-1v-3l-2,-3l-6,-4l-1,-4l-5,-2v-3l-3,-2l-4,-1l-2,-1l-4,-1l-2,2l-1,4h-4l-1,3l-4,1l-5,6l-5,1l-2,-2l-5,1l-3,-4v-4l-3,-2l-10,-6l-7,-2h-12l-13,4l-5,2l2,-8v-2v1v-4v1v-1l-4,-3l-2,-1v-5l12,-1h7l18,-2l5,-1l10,-1l3,-1Z"/><path class="IL" d="M821,319l7,-3l2,-6l2,-3h1h-1h1v-5l-1,-2l-6,-4l-1,-4l-4,-2h1l5,-1h10v-1h20l8,-1l6,-1l25,-2l-1,3v10l-1,2v6l-7,1v5h1h-1h1v10l1,1v10h1v12h1v12h1v10l1,1v7l-1,1v2l-1,2l2,4v1v-1v1l2,1l-1,1v1v-1v1l1,3v1l-2,2v5l-2,1l-2,4v1h-1h1v-1l-2,2l1,-1l-1,1v1h-1h1h-1l1,1v1v-1v2v-1v1l-1,1v2v-1v4l-1,1l1,2v2l-3,2l3,4l-1,2l-8,2l-1,4h1h-1h1l1,6h-3l-1,-2l-7,-2l-4,4l1,3h-1l-5,-1v-2l-3,-4v-1l1,-5l-2,-1v-5l-3,-1v-1v1v-1l-4,-3h-4l1,-3l-6,-2l-3,-3l-1,-5l2,-2v-3l1,-2l1,-8l-7,-2l-1,3h-2l-2,-3v-5l-1,-3l-5,-3l-5,-6l-5,-3v-3h-2v-5l-2,-3v-4l2,-4l2,-7l4,-1v-5l3,-2v-6l-3,-2v-6Z"/><path class="MN" d="M697,177v-1h-1h1h-1h1h-1h1h-1h1h-1l1,-1v1v-3v1v-2h-1h1h-1h1h-1h1v-1v1v-4v1v-1v1v-1v1v-1v1v-1h-1v-7v1v-5l-1,-2v-1h1h-1h1v-1h-1v1v-1h1h-1h1l-1,-1h1h-1v-1h1v1v-1h-1h1h-1h1v-1h-1h1h-1v-3h-1h1h-1l-1,-2l-1,-3v-1v1v-4l-2,-4v-1h1h-1h1h-1v-2h1h-1h1h-1v-1h1v1v-1h-1h1h-1v-3v1l1,-1h-1h1l-1,-1v1v-5h1h-1h1v-1l-1,-3v-3l-1,-4h15l1,1h20l2,-1v-10h4l3,1l1,9l2,3l-1,3l3,3l4,-1l1,2h6l3,1l-1,2h7l2,-3h8l5,2v3l3,-1l2,4l7,-1l1,2l5,1l3,5l6,-1l6,-5l3,4l1,-1h13l2,2l9,-1l-2,7l-6,14h-14l-3,3l-9,8l-9,5l-4,3l-3,-1l-1,2h-1v18h-2l-6,3l-1,5h-1v5h1l2,1l1,4l-2,2v16l4,3l6,2l2,3l6,2l1,5l4,1l2,3h3l3,4l1,5v5h1l-5,1h-28v1h-21v1h-51v-52l-6,-3l-2,-6l6,-4v-11h-1h1h-1h1h-1h1h-1v-4l-2,-2v-2v1v-2v1l-1,-1h1h-1h1h-1h1h-1h1h-1h1h-1v-2v1v-2v1Z"/><path class="MD" d="M1103,345h-2l-2,-3v-1h-1h1h-1v-1v1l-1,-1h1h-1l-2,-2h-1h1h-1l-2,-1h-3v1h-1h1h-1l-2,1l-1,1v1v-1v2v-1v1h-6l-1,-1h-1h1h-1l-3,5h-3v2l-3,2l-4,5l-1,-3v-7l-1,-4l7,-2h4l30,-6l12,-2l5,-2l8,-1l5,-1l6,-1v-1v1l2,5l1,6h1l4,14l2,9l6,-2h3l6,-1l-1,5v7h-1l-9,4l-4,3l-5,-1l-3,3l-4,-1l-6,-4h-7l-2,-2l-1,-3l-3,2h-3l-1,-4h1h-1h1v-3l4,-4v-3l2,-3l-4,-2l-1,2l-3,-1l-2,-1v-1v1v-1h-5l1,-4Z"/><path class="RI" d="M1215,262h2l1,4l-3,1ZM1206,244l9,-3v3l1,1l1,2l2,1l3,3l2,4l-5,4l-4,3l-3,1v3l-3,-3h1v-6l-3,-8Z"/><path class="ID" d="M303,179v-1v1v-1l4,-4v-3l5,-7l2,-1l-1,-6l-3,-2l-2,-2v-16l1,-5l3,-8v-5l2,-4l1,-9l2,-4v-5l4,-12l1,-8h1l1,-9l5,1l4,2h6l3,1l-2,11l-2,5l-2,9v4l3,5l1,2v6l-1,3h1h-1h1l1,2l5,5l5,9v3l3,3h1h-1h1l1,3h4l1,3l-2,1v3l-2,2v3l-2,1v4l1,5h-3v4h-1h1h-1v2h-1h1h-1v1l2,1l1,3l3,-1h1l4,-4l3,3v9l2,3v3l2,1v3l-2,1h1h-1h1v3l6,2v3l1,4v4h1h-1h1l2,1l3,-2l4,1l3,1v-2l6,1h3l1,1h5l2,-1l1,-2l2,-2h1v1v-1v1l1,5l4,2l-1,1v6h-1v6h-1v7h-1v5l-1,1v6h-1v6h-1v6h-1v6h-1v6h-1v6h-1v6l-1,1l-6,-1l-14,-2l-6,-1l-11,-2l-6,-1l-10,-1l-8,-2l-10,-2l-2,-1l-11,-2l-6,-1l-11,-2l-2,-1l-5,-1l-2,-1h-6l-5,-2l1,-5l2,-4v-5l4,-12v-5l2,-8h1l1,-9l3,-6l3,-5l-3,-3h-1l-1,-7l2,-1l3,-5l3,-2Z"/><path class="NH" d="M1184,201l2,-3v-8v1v-2l-1,-7l3,-2l4,-5v-4h-1v-1v1v-1l-2,-2l1,-4l-1,-4h1v-6l1,-2l4,1l1,-2v-1v1l1,1l1,6l2,3l1,6l3,6v3l2,3l2,10l2,3v3l2,2l1,6l1,1h1h-1h2v1v-1v1l1,3h1l5,4h-3v3l-5,1l-2,2l-2,4l-11,2l-2,1l-11,2l-2,-2l1,-9h-1v-7h-1v-5Z"/><path class="NC" d="M1020,449v1v-1v1h4l1,-5l4,-2l-1,-6l1,-1l8,-1l5,-1h5l3,-1l10,-1l7,-1h4l13,-3l9,-1l9,-3l9,-1l3,-1l11,-2l8,-2h6l2,-2h6l3,-1l8,-2v2l6,10h1l3,6l4,4l1,3v12h-3l-7,5l-7,10l-1,7l-3,-2h-4l-9,4l-2,3l-4,2l-6,10v10l-8,-1l-6,3l-9,-7l-5,-3l-16,-12v-1l-8,1l-18,3v-4l-3,-2h-4v-2h-11l-18,3h-2h1h-1l-8,4l-7,4h-1l-10,2h-5l-5,1l-7,1v-7l3,-1h1l2,-1v-5l3,-2v-1v1v-1l3,-2h5l2,-2l2,-1v-2l3,-1v-1v1v-1l3,-1h1v-4h1h-1h1l5,-4l3,2l2,-4Z"/><path class="VT" d="M1155,170v-1l4,-1l9,-2l6,-1l15,-5l1,4l-1,4l2,2v1v-1v1h1v4l-4,5l-3,2l1,7v2v-1v8l-2,3v8h1v7h1l-1,9l2,2l-15,3l-2,-2v-5l-3,-10v-4l-2,-2h-1l-2,2v-9l-3,-4v-13l-3,-3v-5Z"/><path class="CT" d="M1172,251l9,-2h5l6,-3l14,-2l1,5l3,8v6h-1l-9,5l-12,7l-4,2l-7,5l-3,-3v-3l3,-2l-2,-3v-5h-1v-5h-1v-6Z"/><path class="DE" d="M1139,326v-1l3,-4h5l-2,7l1,4l4,2l10,12l1,2l3,9l-6,1h-3l-6,2l-2,-9l-4,-14h-1l-1,-6Z"/><path class="NM" d="M557,443l-1,1v12l-2,2v14h-1v13h-1v25h-1v13h-1v11l-1,1v10h-1v11h-1v12l-1,1v12l-2,1h-7l-8,-1h-13l-6,-1l-19,-2l-10,-1l-11,-1l-9,-1v5h1v1v-1v1h1l-7,-1h-10v-1l-10,-1l-12,-1l-1,4v7l-6,1l-9,-2l-6,-1l1,-4v-6l1,-1v-7h1v-7h1v-6l1,-1v-6l1,-1v-7h1v-6h1v-7l1,-1v-7h1v-7h1v-6l1,-1v-6l1,-1v-7h1v-6h1v-8h1v-7h1v-6h1v-8h1v-7h1v-6h1v-7l1,-1v-7h1l9,2l19,2l14,2h4l9,2h6l10,1h6l18,3l20,1l8,1Z"/><path class="CA" d="M169,486v-2l3,1l2,4h-3ZM188,498l1,-2l3,1l1,4l3,2v3h-4l-3,-4ZM182,482h3v2h-4ZM192,486v-2h3l5,4v5l-6,-2v-2ZM177,465h4v3l-4,-1l-6,1l-4,-2l-6,1l-2,-5l-5,-1l-1,-5l6,1l1,3l2,1l7,-1l4,3h3ZM125,342l3,-1l1,5h-2ZM136,221l5,1l7,3l7,1l6,2l4,1l27,8l7,1l9,4l7,1v1v-1v1l7,1l-2,8l-3,8l-1,8h-1l-1,7l-3,11l-2,4v4l-3,10l-2,4v4l-2,7l-1,8l1,1l2,4l3,3v2l4,6l3,2v2l4,4v2l5,6l2,4l9,11l8,14v1l5,6l13,19l1,3l3,3l3,7l11,15v1l5,8l4,4l4,6v1l1,7l2,2v7l2,1l2,3v3l-7,3v2l-3,2l-2,8v3l-3,1v2l-3,1v10v-1v1h1l3,2l-1,4l-3,2h-4l-18,-2l-15,-2l-9,-2h-10l-5,-1l-2,-3v-6l1,-1v-8l-2,-4l-5,-6l-6,-9h-3l-4,-3l1,-5l-1,-2h-7v-2l-7,-3l-2,-2v-4l-5,-4v-1l-6,-2l-3,-2l-4,-2h-7l-1,-4h-2v-4l4,-13l-3,-1l-2,-3v-2l2,-3l-3,-1l-2,-6l-3,-2v-5l-2,-2v-3l-2,-2v-4l-4,-4v-10l2,-2v-7l-2,-2l-1,-4h-2v-16l2,-4l-1,-3l-4,-3v-2h-4v-3l2,-2l-1,-4v-5l-4,-5l-2,-7l-2,-1l-1,-6h2v-13l3,-2v-8l-1,-4l-2,-2v-3l-4,-4l1,-3v-5l10,-11v-6l3,-2l-1,-4h3l1,-2l-1,-8l-3,-4h4Z"/><path class="NJ" d="M1146,295l2,-5l-2,-2l4,-8v-3l2,-2l5,2l1,1l12,4v9h-1l-3,3v4l6,-3h2l1,4v22l-2,7l-4,3l-2,4l-1,7h-1l-4,6l-1,-2l-10,-12l-4,-2l-1,-4l2,-7l1,-1l4,-1l2,-6l2,-1l2,-4l-8,-5v-3l-3,-1Z"/><path class="WI" d="M781,193h2v-18h1l1,-2l3,1l4,-3l9,-5l9,-8l3,-3h14l-2,7l-3,6l-3,8h2l1,1v1v-1v1h1l1,1l1,2h1h-1h1h-1h1h-1h1l8,3l11,2l7,3h4v-1v1v-1h1v1v-1v1h5l2,1l2,2l1,2l2,1l3,1v7l-1,2v1v-1v1l4,-1v3l-1,3l3,2h3l1,-4l4,-4l1,-3l4,-1l9,3l3,2l-1,3h-1l-3,6l-3,9l-2,14h-1v11l-1,4l1,2v8l2,6v4l3,11l-25,2l-6,1l-8,1h-20v1h-10l-5,1h-1h1l-2,-4l-6,-1l-2,-2l-2,-4l-1,-6l2,-4v-2l-3,-1v-4h-1v-5l-1,-5l-3,-4h-3l-2,-3l-4,-1l-1,-5l-6,-2l-2,-3l-6,-2l-4,-3v-16l2,-2l-1,-4l-2,-1h-1v-5h1l1,-5Z"/><path class="OR" d="M174,107h3l1,2l9,1v4h5l2,2l3,5v5l-2,4l2,3h2l3,4l8,-1l2,-1l8,1l3,1l3,4h8l3,-1l2,2h5l3,-1h7l4,-1l1,1h5l2,1l5,-1l7,2l10,2l14,4l6,1v3l2,2l3,2l1,6l-2,1l-5,7v3l-4,4v1v-1v1l-2,3l-3,2l-3,5l-2,1l1,7h1l3,3l-3,5l-3,6l-1,9h-1l-2,8v5l-4,12v5l-2,4l-1,5l-5,-1l-10,-3l-7,-1l-10,-3h-3l-4,-1l-11,-3l-6,-2h-3l-7,-1v-1v1v-1l-7,-1l-9,-4l-7,-1l-27,-8l-4,-1l-6,-2l-7,-1l-7,-3l-5,-1l-1,-1v-14l3,-1l-1,-5l-2,-3l4,-4l2,-5l2,-1v-3l5,-4l2,-5l3,-3l2,-5l2,-8l2,-1l2,-5l1,-7l3,-3v-3l3,-3v-4l2,-2v-3l1,-3v-5l1,-4l3,-2Z"/><path class="NE" d="M549,272l10,1l8,1l16,1h17v1h22l1,1h13v1h25l3,4l5,1l1,2l6,-2h11l1,2h3l5,3l3,4l3,1h1v4l2,2v4l2,2v1v-1v1l2,2v3l1,1v8l1,1l2,1v6v-1v1l1,3v5h1v6l1,5l2,2l1,5l4,2l1,4l2,3h-65v-1h-34v-1h-23l-1,-1h-19l-1,-1v-10h1v-15l1,-3l-12,-1l-16,-1l-13,-1v-10l1,-1v-11h1v-11h1v-12h1v-11Z"/><path class="PA" d="M1028,272l9,-4l6,-4l1,10l1,4h7l6,-2l18,-3l3,-1l9,-1l26,-5l5,-2l8,-1l2,-1l6,-1l1,1l3,2l2,1v1l2,2v3l2,2l2,1h1h-1h2l3,1l-2,2v3l-4,8l2,2l-2,5l1,4l3,1v3l8,5l-2,4l-2,1l-2,6l-4,1l-1,1h-5l-3,4v1l-6,1l-5,1l-8,1l-5,2l-12,2l-30,6h-4l-7,2h-5l-3,1l-14,2l-1,-3v-6l-1,-1v-5h-1v-6l-1,-4l-1,-2v-6h-1v-6h-1v-6h-1v-5h-1v-6l-1,-1v-5h-1v-6Z"/><path class="WA" d="M324,68l-1,9h-1l-1,8l-4,12v5l-2,4l-1,9l-2,4v5l-3,8l-1,5v13l-6,-1l-14,-4l-10,-2l-7,-2l-5,1l-2,-1h-5l-1,-1l-4,1h-7l-3,1h-5l-2,-2l-3,1h-8l-3,-4l-3,-1l-8,-1l-2,1l-8,1l-3,-4h-2l-2,-3l2,-4v-5l-3,-5l-2,-2h-5v-4l-9,-1l-1,-2h-3l3,-8v-5h1v-8h1v-17h-1v-6l-2,-3l1,-4v-5h2v-5l3,-2l9,8l10,6h6l3,-2l-1,-2v-7h6l-4,-8l9,3l6,1l6,2l14,3l15,5h2l10,3h3l4,2l5,1l7,2h3l6,2l15,4h3Z"/><path class="LA" d="M824,558v3l2,-2l1,2l-2,1v3l2,1l-2,3l2,1v1h1h-1v-1v1l-1,2l4,1l-1,2h3l-2,2v2h-4l-1,2l4,-1l-1,4h-1h1v1l-3,1l-1,5l-2,-2l-1,3h1h-1v4l-2,1l-1,4v2v-2l-1,2h1h-1v1h1h-1h1v2h-3l2,2l-1,3l2,1l-2,2l3,-1h22v-1h21l-1,1v3v-1v1l-1,2v1v-1v2v-1v4h1h-1h1v1h1h-1h1l3,6h1h-1h1h-1h1v3l2,1h1l7,-2l3,2h4l4,4v6l-1,2l-8,8l2,4l5,1v3l-6,6l-1,-1h-3l-1,3h-3v-7l-3,-2l-2,1l-9,2l-1,2l-5,2h-7l-4,1l-6,-1l-1,-3l-7,-1v-1l-5,-3l-7,-1l-2,1l-5,-5h-2l-2,2l-12,-2l-5,-3l-6,-1h-9l-5,1l-1,3v-3l-3,-3l3,-3l3,-6l-1,-1h1h-1h1l-1,-1v-3l-1,-1v-1v1v-1l1,-2v-1v1v-1v1v-2h-1h1h-1l1,-2h1h-1h1l1,-4v-1h1v-1h1h-1h1v-1h-1h1h-1v-1l1,-1v-1v1v-8h-2v-2l-2,-2v-3l-2,-1h1h-1h1l-3,-4h1h-1h1v-1l-1,-4l-3,-3v-1v1v-1l-2,-1v-20h-1v-9h20v-1h38v-1Z"/><path class="GA" d="M947,492h4l9,-2h4l5,-1h7l7,-1l5,-1h5l10,-2h1l-1,1l-1,2l-2,2l-1,4l5,2l3,3l3,-1l2,1l2,4v1v-1v1l6,8l3,1l5,3l1,4h2l6,4v3l1,1h1v1v-1v1l3,3l4,1v1v-1v1h1h-1h1l2,2l1,2v1v-1v1l1,2l1,3h1h-1h1v2h1h-1h1v1v-1v1h2h-1h1l3,5v1v-1v1l1,1h-1h1h-1v1l1,2l5,3l5,-1l-3,7l-3,3v7h-1v8l-2,1v8l-1,1l1,4l-5,1v-1v1v-1h-2h1h-3h1h-2h1h-1l-3,-1l-3,4v1l2,1v6v-1v1l-1,1l-3,1v-2h-1h1h-1v-1v1v-1l-1,-3l-19,2h-9l-8,1h-9l-7,1h-9l-2,1l-2,-3l-2,-5l-3,-4v-12l-3,-4v-6h1v-7l3,-2v-1v1v-1l-2,-1l-1,-6l-3,-2l-1,-5l-1,-1l-1,-7l-2,-3l-4,-14v-4l-3,-7l-3,-13h-1Z"/><path class="AL" d="M889,497h10l6,-2h9l14,-1l4,-1l15,-1l3,11h1l3,13l3,7v4l4,14l2,3l1,7l1,1l1,5l3,2l1,6l2,1v1v-1v1l-3,2v7h-1v6l3,4v12l3,4h-7l-3,1l-10,1l-5,1l-18,2h-7l-12,1v5l2,1l4,3v1v-1v4v-1v2l-2,8l-7,2h-13v1v-1l-1,-1v-8h-1v-8h-1v-8h-1v-7h-1v-8h-1v-50l1,-1v-41Z"/><path class="UT" d="M341,272l8,2l10,1l6,1l11,2l6,1l14,2l6,1v5h-1v7h-1v5h-1v6h-1v6l11,1l7,1l16,2l7,1v7h-1v6h-1v7h-1v7l-1,1v6l-1,1v6h-1v7l-2,7v7h-1v6h-1v7h-1v9l-1,1v7h-1v7h-1v13h-1l-26,-4h-4l-9,-2l-19,-2l-6,-2l-17,-2l-6,-2h-7l-5,-2h-3l-7,-2l1,-3v-5h1v-6h1v-5l2,-4v-5h1v-5h1v-6h1l2,-14h1v-5h1v-6l2,-9v-5l1,-5h1l3,-16v-4l4,-15l1,-10l2,-6Z"/><path class="OH" d="M943,302l12,-2l3,-1l13,-1l6,-8l1,2l9,4h6l4,-5l8,-5l8,-7l9,-5l6,-2l1,4v6h1v5l1,1v6h1v5h1v6h1v6h1v6l1,2l-3,1l2,3v9h-1v8h-1v9l-5,4v1v-1v1l-2,3l-4,-1l-2,5l-3,1v8l-3,3l-1,-3l-2,-1l-2,8v1v-1v1l1,3l-2,1l-1,4l-4,2l-2,-1v-1l-3,-2h-2l-1,-5l-4,1l-1,3l-4,1l-6,-2l-2,3h-3v-2l-3,-1h-1h1h-6l-2,-1v-4l-3,-2h-1h1h-1l-2,-1l-2,1l-4,-1l-1,-1v-8h-1v-9h-1v-9h-1v-9h-1v-9h-1v-8h-1v-8h-1v-8Z"/><path class="TX" d="M556,456l17,2h18v1h11v1h20v21h-1v23h-1v11h3l4,5l4,-1v1v-1v1h3l1,-1l3,3l2,4h4l4,2h5v2h3l1,-2h7h-1h1l-1,3l4,1l-1,4h4l1,-2l4,-1v2h4v2l2,-1l3,-1v5h2l1,-3l2,-2v-1v1v-1h2l1,2l4,1v-2l6,4l1,2l2,-1v-1v1v-1l3,1v-2h1h-1h1l1,-1h3h-1h1v-1l3,1l5,-2l3,1h4l2,-2l3,1h1h-1h1l5,5h1h-1h2h-1h1v1h1h-1v-1l1,1h1h-1h1h-1h1h-1v1v-1v1h1v-1v1h2h-1v1v-1h1v1h-1h2h-1h1l3,2h4v-1v1v-1h2h-1h2l1,1v24h1v20l2,1v1v-1v1l3,3l1,4v1h-1h1h-1l3,4h-1h1h-1l2,1v3l2,2v2h2v8v-1v1l-1,1v1h1h-1h1v1h-1h1h-1v1h-1v1l-1,4h-1h1h-1l-1,2h1h-1h1v2v-1v1v-1v1l-1,2v1v-1v1l1,1v3l1,1h-1h1h-1l1,1l-3,6l-3,3l3,3v3h-8l-5,3l-8,3v2l-10,7l-1,3l-6,4l-11,6l-5,2l-6,4l-2,3l-7,3l-5,4l-3,4l-1,3l-2,1l-3,5l-3,10v10l1,7h1l2,10l1,7l-5,1l-4,2l-4,-2l-1,-3l-5,-1h-11l-4,-4l-6,-1l-1,-3l-9,-2l-2,-4l-2,-8l-5,-5l1,-6l-2,-1v-9l-4,-1l-2,-4l-3,-1v-4l-2,-2l-2,-5l-5,-2l-1,-8h-2v-3l-2,-1v-4l-3,-3v-5l-3,-2v-3l-6,-3v-3l-6,-2l1,-3l-1,-1l-3,-4h-9l-2,-1h-6l-5,-3l-1,4h-7l-4,6v3l-2,1v4h-3v2l-3,2v2h-4l-5,-3l-1,-2l-7,-3v-2h-3l-7,-6l-3,-2l-1,-2l-3,-2v-4l-2,-2v-11l-3,-4l-1,-6h-2l-3,-5l-5,-2l-1,-3l-3,-2v-2l-5,-3l-3,-7l-5,-1l-2,-2l-1,-5l-2,-4l-3,-1h-1v-1v1v-1h-1v-5l9,1l11,1l10,1l19,2l6,1h13l8,1h7l2,-1v-12l1,-1v-12h1v-11h1v-10l1,-1v-11h1v-13h1v-25h1v-13h1v-14Z"/><path class="CO" d="M439,316l15,3h4l4,1h10l5,1h5l5,2h4l5,1l27,3h7l14,1l13,1l16,1l12,1l-1,3v15h-1v32h-1v16h-1v15h-1v16h-1v16h-9l-13,-1l-9,-1l-8,-1l-20,-1l-18,-3h-6l-10,-1h-6l-9,-2h-4l-14,-2l-19,-2l-9,-2v-13h1v-7h1v-7l1,-1v-9h1v-7h1v-6h1v-7l2,-7v-7h1v-6l1,-1v-6l1,-1v-7h1v-7h1v-6h1Z"/><path class="SC" d="M1014,504v-1v1v-1l-2,-4l-2,-1l-3,1l-3,-3l-5,-2l1,-4l2,-2l1,-2l1,-1h-1h1l7,-4l8,-4h1h-1h2l18,-3h11v2h4l3,2v4l18,-3l8,-1v1l16,12l5,3l9,7l-2,1l-5,4l-1,4l-3,4v6l1,2l-4,3v3l-5,2l-3,5l-4,5l-1,2l-6,3l-2,3v3l-4,2l-1,3h-2l-1,3l-5,1l-5,-3l-1,-2v-1h1h-1h1l-1,-1v-1v1v-1l-3,-5h-1h1h-2v-1v1v-1h-1h1h-1v-2h-1h1h-1l-1,-3l-1,-2v-1v1v-1l-1,-2l-2,-2h-1h1h-1v-1v1v-1l-4,-1l-3,-3v-1v1v-1h-1l-1,-1v-3l-6,-4h-2l-1,-4l-5,-3l-3,-1Z"/><path class="OK" d="M556,456v-12l1,-1l13,1h17v1h25v1h12l1,1h31v1h86v14l1,3v7h1v6h1v7h1v6h1v36h-1v16h-1h1h-2h1v-1h-1v1v-1h1h-2v-1v1h-1v-1v1v-1h1h-1h1h-1h1h-1l-1,-1v1h1h-1v-1h-1h1h-2h1h-1l-5,-5h-1h1h-1l-3,-1l-2,2h-4l-3,-1l-5,2l-3,-1v1h-1h1h-3l-1,1h-1h1h-1v2l-3,-1v1v-1v1l-2,1l-1,-2l-6,-4v2l-4,-1l-1,-2h-2v1v-1v1l-2,2l-1,3h-2v-5l-3,1l-2,1v-2h-4v-2l-4,1l-1,2h-4l1,-4l-4,-1l1,-3h-1h1h-7l-1,2h-3v-2h-5l-4,-2h-4l-2,-4l-3,-3l-1,1h-3v-1v1v-1l-4,1l-4,-5h-3v-11h1v-23h1v-21h-20v-1h-11v-1h-18Z"/><path class="TN" d="M1010,454l-5,4h-1h1h-1v4h-1l-3,1v1v-1v1l-3,1v2l-2,1l-2,2h-5l-3,2v1v-1v1l-3,2v5l-2,1h-1l-3,1v7h-7l-5,1h-4l-9,2h-4l-15,1l-4,1l-14,1h-9l-6,2h-10l-15,1v1l-16,1h-9l-8,1l2,-1v-3l3,-3l-1,-5h-1h2h-1h1v-4h2l-1,-6h2l4,-2l-2,-1l3,-1l-2,-3l1,-3l2,-1l-3,-3l4,-1l-2,-2l2,-1v-4h3l14,-1h9l7,-1l-1,-5h13v-1l22,-2h19l9,-2h10l6,-1l11,-1h6l1,-2h10l3,-1l9,-1l3,-1l13,-1l1,-1h5l-1,1l1,6l-4,2l-1,5h-4v-1v1v-1l-5,3l-2,4Z"/><path class="WY" d="M414,213v-5l1,-1v-6l1,-2l11,2l9,1l4,1l13,1l3,1h4l4,2l14,1l9,1h4l4,2h5l10,1l12,1l18,2l12,1v21h-1v11l-1,1v11h-1v12h-1v11h-1v12h-1v11h-1v11l-1,1v10l-14,-1h-7l-27,-3l-5,-1h-4l-5,-2h-5l-5,-1h-10l-4,-1h-4l-15,-3l-7,-1l-16,-2l-7,-1l-11,-1v-6h1v-6h1v-5h1v-7h1v-5l1,-1v-6h1v-6h1v-6h1v-6h1v-6h1v-6h1v-6l1,-1v-5h1v-7h1v-6h1v-6Z"/><path class="HI" d="M490,733l8,4l3,3v3l3,1l1,4l4,2v2l-5,4l-15,7l-1,3l-2,3l-3,-1l-6,-4v-11l-1,-3l-3,-3v-5l6,-4l-2,-4v-4l5,-1l4,3ZM415,694v-2h4l3,-3h3l3,4v1l4,2v2l2,3l-2,3h-5l-2,-2h-6v-2l-2,-1ZM356,689l3,3h-3ZM381,674l6,-1l4,3l-1,8l-4,2h-5l-6,-4l1,-5ZM457,708h4l2,2l6,-1l4,4l5,1l-1,5l-8,3h-5l-2,3h-6v-3l6,-5h-3l-3,-5ZM447,713v-2l4,-1l5,3v4l-3,1h-4ZM362,686l1,-3l3,-1l1,-3l4,2l-1,4l-3,1l-1,3l-3,-1ZM457,708l-3,2l-6,-2h-7l-1,-3l2,-3l7,1l1,-1l4,2h4Z"/><path class="ND" d="M562,105l15,1l15,2h19l1,1h21v1h33l2,1h21l1,4v3l1,3v1h-1h1h-1v5v-1l1,1h-1h1l-1,1v-1v3h1h-1h1v1v-1h-1v1h1h-1h1h-1v2h1h-1h1h-1v1l2,4v4v-1v1l1,3l1,2h1h-1h1v3h1h-1h1v1h-1h1h-1h1v1v-1h-1v1h1h-1l1,1h-1h1h-1v1v-1h1v1h-1h1h-1v1l1,2v5v-1v7h1v1v-1v1v-1v1v-1v1v-1v4v-1v1h-1h1h-1h1h-1h1v2v-1v3v-1l-1,1h1h-1h1h-1h1h-1h1h-1h1v2v-1v2v-1v2h1h-1h1h-1h1h-1h1h-1h1h-1l1,1v-1v2v-1v2l2,2v4h1h-1h1h-1h1h-1h1v7h-47l-1,-1h-26v-1h-12v-1h-19v-1h-9l-7,-1h-8l-17,-2v-7h1v-11h1v-12h1v-11h1v-11h1v-12h1v-12h1Z"/><path class="KY" d="M857,457h-1h1ZM886,418h3v-3l1,1l5,-2h6l6,2v-3l3,-1l2,-2l2,3l3,-1l2,-5l3,-3h-1h1l3,4l4,1l3,-1v-6l2,-2l2,-1v-4l3,-1l1,-4l-1,-4l6,1l4,-3h2l2,-3l-3,-6l2,-1l4,1l2,-1l2,1h1h-1h1l3,2v4l2,1h6h-1h1l3,1v2h3l2,-3l6,2l4,-1l1,-3l4,-1l1,5h2l3,2v1l1,2v6l4,5h-1h1h-1l1,1v1v-1v1l4,2v1v-1v1l1,2l3,1l3,2h1v1v-1h1l-1,1l-3,4l-7,6l-4,3v3l-3,1v4l-3,1l-2,1v2l-4,2v1v-1v1h-4l-2,2h-1l-1,2h-6l-11,1l-6,1h-10l-9,2h-19l-22,2v1h-13l1,5l-7,1h-9l-14,1h-1h1v-4l4,2l1,-2l-1,-5l2,-5h-1l-1,-3l4,-4l7,2l1,2h3l-1,-6h-1h1h-1l1,-4l8,-2l1,-2l-3,-4l3,-2Z"/><path class="ME" d="M1196,151v-1l3,-1l2,2l-1,-5h4l-2,-2v-5l4,-3v-13h-1v-6l2,-1v-7h-1l2,-5l1,-6l2,-3l1,-6h1l2,-6h3l1,5l8,-3v-1l4,-1v-2l4,-1l4,2l2,2l3,1l2,4v4l2,3l1,6l1,3v3l2,3l2,11l9,1l-1,2l3,3l-1,3l2,3h3v-1h3l5,5v1l3,2l-3,4v2l-3,4h-2l-2,5l-4,1v2h-3l-3,5v3l-5,3v2l-4,2l2,1l-3,6l-3,-1l-4,1l-1,3l-4,-1v2l-11,8l-2,3l-1,5h-2v4h3v2h-3l1,5l-5,-4h-1l-1,-3v-1v1v-1h-2h1h-1l-1,-1l-1,-6l-2,-2v-3l-2,-3l-2,-10l-2,-3v-3l-3,-6l-1,-6l-2,-3l-1,-6Z"/><path class="NY" d="M1155,170v-1v1l1,5v5l3,3v13l3,4v9l2,-2h1l2,2v4l3,10v5l2,2l-1,2v19h1l1,4v6h1v5h1v5l2,3l-3,2v3l3,3l7,-5l4,-2l12,-7l9,-5l3,3l1,4l-4,3l-3,3l-12,9l-12,8l-6,1l-2,1h-2l-6,3v-4l3,-3h1v-9l-12,-4l-1,-1l-5,-2l-3,-1h-2h1h-1l-2,-1l-2,-2v-3l-2,-2v-1l-2,-1l-3,-2l-1,-1l-6,1l-2,1l-8,1l-5,2l-26,5l-9,1l-3,1l-18,3l-6,2h-7l-1,-4l-1,-10l6,-5l9,-6l1,-3l-3,-1l-2,-3l-1,-5l-3,-5l3,-3l6,-3l11,-3l8,-1l7,-2h3l8,-2v-2l4,-9v-3l2,-4l3,-1v-2l6,-5v-3l5,-6l1,-3l3,-3l6,-5l12,-2l13,-4Z"/><path class="NV" d="M281,259l5,2h6l2,1l5,1l2,1l11,2l6,1l11,2l2,1l10,2v4l-2,6l-1,10l-4,15v4l-3,16h-1l-1,5v5l-2,9v6h-1v5h-1l-2,14h-1v6h-1v5h-1v5l-2,4v5h-1v6h-1v5l-1,3l-1,2v5h-1v6h-1v5h-1v5l-3,2v2h-3l-2,-4l-3,-1h-5v8h-1v20h-1l-2,2v1v-1l-4,-6l-4,-4l-5,-8v-1l-11,-15l-3,-7l-3,-3l-1,-3l-13,-19l-5,-6v-1l-8,-14l-9,-11l-2,-4l-5,-6v-2l-4,-4v-2l-3,-2l-4,-6v-2l-3,-3l-2,-4l-1,-1l1,-8l2,-7v-4l2,-4l3,-10v-4l2,-4l3,-11l1,-7h1l1,-8l3,-8l2,-8h3l6,2l11,3l4,1h3l10,3l7,1l10,3Z"/><path class="AK" d="M26,728l3,-1l3,3v2l-4,-1ZM60,755h3l-1,1ZM121,767l1,-2l4,-1l-1,4ZM71,763h-3l3,-1ZM68,763v1h-3ZM134,725l-1,1h-3l1,-2ZM128,693v-1l-1,-4l4,5ZM128,692v1v-1ZM106,768l1,-2l2,1ZM50,748h-1h1ZM77,762v1l1,-1h7l3,3l4,-1l7,-1v3l3,1l2,2h-4l-2,-2h-4l-4,-1h-12l-1,-2h-4v-4ZM54,756h3l-1,4ZM49,748h1l1,3h-4ZM52,751l2,-1l2,3h-2l-1,-1ZM52,752h1l1,1ZM77,762h1l-1,1ZM51,751h1v1ZM134,725l-1,1l1,-1ZM139,663l1,-3l3,2l5,1v2l5,3v2l-6,-1l-4,-4h-3ZM29,735l3,-1l-2,3ZM225,718l3,-1v2ZM184,718h2v1ZM213,735v-4l4,-3l3,-1v-2l3,-2l1,-3h2l1,3h2v3h-4l2,3v5l-2,-1l-1,3l-6,3v3h-6l4,-2ZM147,760v-2l3,-1l5,4l-6,-1l-1,3l-4,2l-11,1v2h-6l3,-4l5,-2h3v2l2,-1l2,-4ZM169,758l1,1v1h-4l1,-2ZM177,752h1v1ZM168,755h1v1ZM186,756l-5,1v-2l-3,-2v-1h-1l-4,5l-2,-1l-1,3l-1,-1v-3h-1l-1,1h-7l-2,2h-3v-3l5,-3h4l6,-3l1,-3l6,-2h4l1,-2l3,-3l6,-2l2,-6l3,-6l-1,-4l-4,2l-2,-5h-5l-2,3l-2,-2l-3,1l-1,-9l2,-1l-2,-4h-9l-1,-5h-2l-2,-4l2,-1v-3l-3,-3v-6l1,-2l3,-1l4,-8l4,-1l4,3l2,-2v-4l3,2l5,-1v-6l-6,-3l-2,2l-3,-3h-6l-5,-3l-1,-7l-4,-3l1,-1l10,-6l4,-1h5l2,-3l-3,-1v-4l-7,-8l-2,-1l2,-1l1,-5l8,1l4,-4v-3l3,-4l3,-1h2l7,-5l3,1l3,-2l2,-3l9,5h5l5,4l3,-2l4,2l10,1l5,1l2,-2l5,1l2,1l4,1l1,8l3,10v4l2,11v5l2,5v4l2,5v5l4,15v5l2,5l1,8h5l5,-2v4l7,3l2,2l1,3l2,-3h2v-5l3,-3l3,1l1,3h2l9,5v2l7,6l1,4l5,3h4l7,2l1,5l2,2v3l-2,4l-5,1l-11,5l-1,-3v-2l-2,-2v-4l-2,2l-3,-1v-2l-8,-5l-4,-4l-7,-9l-5,-2l-1,-2l-8,-3l-5,-2l-8,-1h-5l-6,2l-2,2v-3l-7,-2l-6,3v3l-4,1l-5,-1l-2,1l-1,3l-7,4l-9,1l-2,5h-2l-1,4l-2,1h-3l-2,4l-5,2l-1,6l-10,11h-10v2l4,2v3ZM152,700l6,-3l3,1l1,6h-5l-3,-1Z"/><path class="MI" d="M875,208v-3l-4,1v-1v1v-1l1,-2v-7l-3,-1l-2,-1l-1,-2l-2,-2l-2,-1h-5v-1v1v-1h-1v1v-1v1h-4l-7,-3l-11,-2l-8,-3h-1h1h-1h1h-1h1h-1l-1,-2l-1,-1h-1v-1v1v-1l-1,-1h-2l3,-8l3,-6l2,-7l6,-14l2,-7l2,1l8,-6l5,-3l5,-1l9,4l16,7l9,5l6,2l14,7l9,4l8,4l1,5l4,4l3,1l1,-1l5,-1v4l2,5l3,3l2,-2h6l3,3l-3,7l3,-1l20,10l1,5l2,4l5,17l4,12l2,4l1,5l-1,6l-3,10v13l-3,1l-2,5l-6,3v9l1,1l-6,8l-13,1l-3,1l-12,2v-2l-10,1l-10,2h-6l-11,1l-12,1v-6l1,-2v-10l1,-3l-3,-11v-4l-2,-6v-8l-1,-2l1,-4v-11h1l2,-14l3,-9l3,-6h1l1,-3l-3,-2l-9,-3l-4,1l-1,3l-4,4l-1,4h-3l-3,-2Z"/><path class="AR" d="M742,462h21v-1v1v-1v1v-1h35v-1h25v-1h10v-1h8l3,5l-1,2l-3,2l-3,6l15,-1l2,3l-3,1l2,1l-4,2h-2l1,6h-2v4h-1h1h-2h1l1,5l-3,3v3l-2,1l1,2l-5,5v-1v3l-1,1v-1h1h-1v8l-2,1v1v-1l-4,4l1,3l-2,3l-2,1h-2l2,6h-3v2h2h-2v3l-2,1l1,2v2v-2h1l1,1v1h-2l2,1h1v-1h-1v-1h1v2h-1l1,4v4l-2,3h-9v1h-38v1h-20v-15l-1,-1h-2h1h-2v1v-1v1h-4l-3,-2v-16h1v-36h-1v-6h-1v-7h-1v-6h-1v-7Z"/><path class="MS" d="M830,523l4,-4v1v-1l2,-1v-8h1h-1v1l1,-1v-3v1l5,-5l-1,-2l8,-1h9l16,-1v-1l15,-1l2,3v41l-1,1v50h1v8h1v7h1v8h1v8h1v8l1,1v1l-6,1l-5,-1l-2,2h-4l-3,-2l-7,2h-1l-2,-1v-3h-1h1h-1h1h-1l-3,-6h-1h1h-1v-1h-1h1h-1v-4v1v-2v1v-1l1,-2v-1v1v-3l1,-1h-21v1h-22l-3,1l2,-2l-2,-1l1,-3l-2,-2h3v-2h-1h1h-1v-1h1h-1l1,-2v2v-2l1,-4l2,-1v-4h1h-1l1,-3l2,2l1,-5l3,-1v-1h-1h1l1,-4l-4,1l1,-2h4v-2l2,-2h-3l1,-2l-4,-1l1,-2v-1v1h1h-1v-1l-2,-1l2,-3l-2,-1v-3l2,-1l-1,-2l-2,2v-3l2,-3v-4l-1,-4h1v-2h-1v1h1v1h-1l-2,-1h2v-1l-1,-1h-1v2v-2l-1,-2l2,-1v-3h2h-2v-2h3l-2,-6h2l2,-1l2,-3Z"/><path class="MO" d="M734,366h-5l-3,-3l-2,-3l-1,-4l-4,-2l-1,-5l-2,-2h37v-1h26v-1h18l5,-1l3,4l1,1v1h1h-1h2l-2,4v4l2,3v5h2v3l5,3l5,6l5,3l1,3v5l2,3h2l1,-3l7,2l-1,8l-1,2v3l-2,2l1,5l3,3l6,2l-1,3h4l4,3v1v-1v1l3,1v5l2,1l-1,5v1l3,4v2l5,1h2l-2,5l1,5l-1,2l-4,-2v4h-3v4l-2,1l2,2l-4,1l3,3l-2,1l-1,3l-15,1l3,-6l3,-2l1,-2l-3,-5h-8v1h-10v1h-25v1h-35v1v-1v1v-1v1h-21v-75l-5,-1l-2,-3l-1,-4l-3,-2l3,-7l2,1v-3Z"/><path class="MT" d="M340,114v-6l-1,-2l-3,-5v-4l2,-9l2,-5l2,-11l8,1l5,2l11,2l3,1l18,3l8,2l7,1l23,4l3,1l27,4h3l13,2l4,1h9l4,1l9,1l15,2l15,1l5,1l12,1l6,1l12,1v8h-1v12h-1v12h-1v11h-1v11h-1v12h-1v11h-1v7l-1,6v12h-1v9h-1l-12,-1l-18,-2l-12,-1l-10,-1h-5l-4,-2h-4l-9,-1l-14,-1l-4,-2h-4l-3,-1l-13,-1l-4,-1l-9,-1l-11,-2l-1,2v6l-1,1v5l-4,-2l-1,-5v-1v1v-1h-1l-2,2l-1,2l-2,1h-5l-1,-1h-3l-6,-1v2l-3,-1l-4,-1l-3,2l-2,-1h-1h1h-1v-4l-1,-4v-3l-6,-2v-3h-1h1h-1l2,-1v-3l-2,-1v-3l-2,-3v-9l-3,-3l-4,4h-1l-3,1l-1,-3l-2,-1v-1h1h-1h1v-2h1h-1h1v-4h3l-1,-5v-4l2,-1v-3l2,-2v-3l2,-1l-1,-3h-4l-1,-3h-1h1h-1l-3,-3v-3l-5,-9l-5,-5l-1,-2h-1h1h-1Z"/><path class="KS" d="M583,359l1,1h19l1,1h23v1h34v1h65l3,3h5l2,2v3l-2,-1l-3,7l3,2l1,4l2,3l5,1v61h-86v-1h-31l-1,-1h-12v-1h-25v-1h-9h1v-16h1v-16h1v-15h1v-16h1v-16Z"/><path class="IN" d="M888,311h-1h1h-1v-5l7,-1l12,-1l11,-1h6l10,-2l10,-1v2l1,3v8h1v8h1v8h1v9h1v9h1v9h1v9h1v8l1,1l-2,1l3,6l-2,3h-2l-4,3l-6,-1l1,4l-1,4l-3,1v4l-2,1l-2,2v6l-3,1l-4,-1l-3,-4h-1h1l-3,3l-2,5l-3,1l-2,-3l-2,2l-3,1v3l-6,-2h-6l-5,2l-1,-1v3h-3l-1,-2l1,-1v-4v1v-2l1,-1v-1v1v-2v1v-1l-1,-1h1h-1h1v-1l1,-1l-1,1l2,-2v1h-1h1v-1l2,-4l2,-1v-5l2,-2v-1l-1,-3v-1v1v-1l1,-1l-2,-1v-1v1v-1l-2,-4l1,-2v-2l1,-1v-7l-1,-1v-10h-1v-12h-1v-12h-1v-10l-1,-1Z"/><path class="SD" d="M701,196v4l-6,4l2,6l6,3v52h-3l1,5h-1v1v-1v1l3,3h-1h1h-1h1h-1h1h-1h1h-1v4h-1h1h-1h1h-1l1,1l-1,4l-2,4h1h-1h1l1,1l1,5h1h-1l-3,-1l-3,-4l-5,-3h-3l-1,-2h-11l-6,2l-1,-2l-5,-1l-3,-4h-25v-1h-13l-1,-1h-22v-1h-17l-16,-1l-8,-1l-10,-1v-12h1v-11l1,-1v-11h1v-21h1v-9h1v-12l1,-6l17,2h8l7,1h9v1h19v1h12v1h26l1,1h18Z"/><path class="MA" d="M1206,244l-14,2l-6,3h-5l-9,2h-1v-19l1,-2l15,-3l11,-2l2,-1l11,-2l2,-4l2,-2l5,-1l1,2h4l2,2l-2,4l1,8l2,3l7,-1l3,-2l3,1l4,4l2,4v7l-2,2h-2l1,-4l-7,3l-1,3l8,2v-3h3l3,3v2l-3,2l-7,-2l-7,2l-1,3l-3,-1v-2l-5,-2l-2,-4l-3,-3l-2,-1l-1,-2l-1,-1v-3Z"/><path class="VA" d="M1082,361l2,-3l1,-1l2,-5v-1v1v-1v1v-1l1,-1h-1h1h-1v-1v1v-1l1,-5h1l8,5l3,1l1,-5h2l4,1l-1,4h5v1v-1v1l2,1l3,1l3,3v3l-4,4v3h-1h1h-1l1,4h3l3,-2l1,3l2,2h7l6,4l4,1l3,-3l5,1l4,-3l9,-4l-1,6l-4,3v9h-1l-1,9l-2,4v3l4,10h1l-8,2l-3,1h-6l-2,2h-6l-8,2l-11,2l-3,1l-9,1l-9,3l-9,1l-13,3h-4l-7,1l-10,1l-3,1h-5l-5,1l-8,1h-5l-1,1l-13,1l-3,1l-9,1l-3,1h-10h1l2,-2h4v-1v1v-1l4,-2v-2l2,-1l3,-1v-4l3,-1v-3l4,-3l7,-6l3,-4l1,-1l1,1h-1h1h-1h1h-1v1l1,2v1h1h-1h1l6,4l3,-1l2,-4l4,2l7,-3v-3l3,1l5,-4l1,1l3,-3l1,-7v-1v1v-1l1,-2v-1l2,-3l1,-7l2,-3l1,-2v-5l1,-1l3,1l1,2h5h-1h1l2,-7h1h-1h1l-1,-3h1h-1h1l1,-3l3,2Z"/><path class="DC" d="M1116,353l1,-2l4,2l-2,3v1v-1Z"/><path class="IA" d="M701,288l-1,-1h-1h1h-1l2,-4l1,-4l-1,-1h1h-1h1h-1h1v-4h1h-1h1h-1h1h-1h1h-1h1l-3,-3v-1v1v-1h1l-1,-5h54v-1h21v-1h28l5,-1v4l3,1v2l-2,4l1,6l2,4l2,2l6,1l2,4h-1l4,2l1,4l6,4l1,2v5h-1h1h-1l-2,3l-2,6l-7,3l-7,2v6l3,2v6l-3,2v5l-4,1l-2,7h-2h1h-1v-1l-1,-1l-3,-4l-5,1h-18v1h-26v1h-37l-1,-5v-6h-1v-5l-1,-3v-1v1v-6l-2,-1l-1,-1v-8l-1,-1v-3l-2,-2v-1v1v-1l-2,-2v-4l-2,-2v-4h-1Z"/><path class="AZ" d="M281,518h-1v-1v1v-10l3,-1v-2l3,-1v-3l2,-8l3,-2v-2l7,-3v-3l-2,-3l-2,-1v-7l-2,-2l-1,-7v-1l2,-2h1v-20h1v-8h5l3,1l2,4h3v-2l3,-2v-5h1v-5h1v-6h1v-5l1,-2l7,2h3l5,2h7l6,2l17,2l6,2l19,2l9,2h4l26,4h1h-1v7l-1,1v7h-1v6h-1v7h-1v8h-1v6h-1v7h-1v8h-1v6h-1v7l-1,1v6l-1,1v6h-1v7h-1v7l-1,1v7h-1v6h-1v7l-1,1v6l-1,1v6h-1v7h-1v7l-1,1v6l-1,4l-7,-1h-7l-16,-3l-17,-2l-29,-17l-4,-2l-15,-9l-34,-20l1,-4l2,-2h4l3,-2l1,-4Z"/><path class="mesh" d="M1028,354v-1v1v-1l5,-4v-9h1v-8h1v-9l-2,-3l3,-1l1,4v6h1v5l1,1v6l1,3l14,-2l3,-1h5l1,4v7l1,3l4,-5l3,-2v-2h3l3,-5h1h-1h1l1,1h6v-1v1v-2v1v-1l1,-1l2,-1h1h-1h1v-1h3l2,1h1h-1h1l2,2h1h-1l1,1v-1v1h1h-1h1v1l2,3l-1,5l-3,-1l-8,-5h-1l-1,5v1v-1v1h1h-1h1l-1,1v1v-1v1v-1v1l-2,5l-1,1l-2,3l-2,4l-3,-2l-1,3h-1h1h-1l1,3h-1h1h-1l-2,7h-1h1h-5l-1,-2l-3,-1l-1,1v5l-1,2l-2,3l-1,7l-2,3v1l-1,2v1v-1v1l-1,7l-3,3l-1,-1l-5,4l-3,-1v3l-7,3l-4,-2l-2,4l-3,1l-6,-4h-1h1h-1v-1l-1,-2v-1h1h-1h1h-1h1l-1,-1h-1v1v-1h-1l-3,-2l-3,-1l-1,-2v-1v1v-1l-4,-2v-1v1v-1l-1,-1h1h-1h1l-4,-5v-6l-1,-2l2,1l4,-2l1,-4l2,-1l-1,-3v-1v1v-1l2,-8l2,1l1,3l3,-3v-8l3,-1l2,-5l4,1ZM1046,772v-1l3,-3l3,1l-3,4ZM974,602l2,5l2,3l2,-1h9l7,-1h9l8,-1h9l19,-2l1,3v1v-1v1h1h-1h1v2l3,-1l1,-1v-1v1v-6l-2,-1v-1l3,-4l3,1h1h-1h2h-1h3h-1h2v1v-1v1l5,-1v5l3,4l-1,2l3,5l1,5l2,2v3l2,2l1,3l2,2l3,6l7,9l5,4l3,6l-1,7l4,8l5,5l3,8l2,1l1,4l7,11v5h1v15l1,1v12l2,2h-2l1,7l-4,6l-2,2l-1,3l-3,2l-3,4l-4,1l-4,4l-4,1v1l-7,2v2l-11,4l-4,-3l-3,1v-3l5,-1l8,-4l3,-4l3,-1l6,-1l1,2h3l2,-2l-4,-3v-1l-4,-4v-6l-3,-4l-7,-5h-5l-5,-6l-1,-6l-3,-4l-5,2l-2,-3l-1,-3l-2,-1v-4l-3,-4l-3,-2l-2,-5l-7,-6l-1,-7l-4,-4v-7l-1,-3l2,-1l1,-4v-6l-3,-4v-4l-2,-1v-2l-5,1l-2,-1v-3l-2,-3l-6,-4l-1,-4l-5,-2v-3l-3,-2l-4,-1l-2,-1l-4,-1l-2,2l-1,4h-4l-1,3l-4,1l-5,6l-5,1l-2,-2l-5,1l-3,-4v-4l-3,-2l-10,-6l-7,-2h-12l-13,4l-5,2l2,-8v-2v1v-4v1v-1l-4,-3l-2,-1v-5l12,-1h7l18,-2l5,-1l10,-1l3,-1ZM821,319l7,-3l2,-6l2,-3h1h-1h1v-5l-1,-2l-6,-4l-1,-4l-4,-2h1l5,-1h10v-1h20l8,-1l6,-1l25,-2l-1,3v10l-1,2v6l-7,1v5h1h-1h1v10l1,1v10h1v12h1v12h1v10l1,1v7l-1,1v2l-1,2l2,4v1v-1v1l2,1l-1,1v1v-1v1l1,3v1l-2,2v5l-2,1l-2,4v1h-1h1v-1l-2,2l1,-1l-1,1v1h-1h1h-1l1,1v1v-1v2v-1v1l-1,1v2v-1v4l-1,1l1,2v2l-3,2l3,4l-1,2l-8,2l-1,4h1h-1h1l1,6h-3l-1,-2l-7,-2l-4,4l1,3h-1l-5,-1v-2l-3,-4v-1l1,-5l-2,-1v-5l-3,-1v-1v1v-1l-4,-3h-4l1,-3l-6,-2l-3,-3l-1,-5l2,-2v-3l1,-2l1,-8l-7,-2l-1,3h-2l-2,-3v-5l-1,-3l-5,-3l-5,-6l-5,-3v-3h-2v-5l-2,-3v-4l2,-4l2,-7l4,-1v-5l3,-2v-6l-3,-2v-6ZM697,177v-1h-1h1h-1h1h-1h1h-1h1h-1l1,-1v1v-3v1v-2h-1h1h-1h1h-1h1v-1v1v-4v1v-1v1v-1v1v-1v1v-1h-1v-7v1v-5l-1,-2v-1h1h-1h1v-1h-1v1v-1h1h-1h1l-1,-1h1h-1v-1h1v1v-1h-1h1h-1h1v-1h-1h1h-1v-3h-1h1h-1l-1,-2l-1,-3v-1v1v-4l-2,-4v-1h1h-1h1h-1v-2h1h-1h1h-1v-1h1v1v-1h-1h1h-1v-3v1l1,-1h-1h1l-1,-1v1v-5h1h-1h1v-1l-1,-3v-3l-1,-4h15l1,1h20l2,-1v-10h4l3,1l1,9l2,3l-1,3l3,3l4,-1l1,2h6l3,1l-1,2h7l2,-3h8l5,2v3l3,-1l2,4l7,-1l1,2l5,1l3,5l6,-1l6,-5l3,4l1,-1h13l2,2l9,-1l-2,7l-6,14h-14l-3,3l-9,8l-9,5l-4,3l-3,-1l-1,2h-1v18h-2l-6,3l-1,5h-1v5h1l2,1l1,4l-2,2v16l4,3l6,2l2,3l6,2l1,5l4,1l2,3h3l3,4l1,5v5h1l-5,1h-28v1h-21v1h-51v-52l-6,-3l-2,-6l6,-4v-11h-1h1h-1h1h-1h1h-1v-4l-2,-2v-2v1v-2v1l-1,-1h1h-1h1h-1h1h-1h1h-1h1h-1v-2v1v-2v1ZM1103,345h-2l-2,-3v-1h-1h1h-1v-1v1l-1,-1h1h-1l-2,-2h-1h1h-1l-2,-1h-3v1h-1h1h-1l-2,1l-1,1v1v-1v2v-1v1h-6l-1,-1h-1h1h-1l-3,5h-3v2l-3,2l-4,5l-1,-3v-7l-1,-4l7,-2h4l30,-6l12,-2l5,-2l8,-1l5,-1l6,-1v-1v1l2,5l1,6h1l4,14l2,9l6,-2h3l6,-1l-1,5v7h-1l-9,4l-4,3l-5,-1l-3,3l-4,-1l-6,-4h-7l-2,-2l-1,-3l-3,2h-3l-1,-4h1h-1h1v-3l4,-4v-3l2,-3l-4,-2l-1,2l-3,-1l-2,-1v-1v1v-1h-5l1,-4ZM1215,262h2l1,4l-3,1ZM1206,244l9,-3v3l1,1l1,2l2,1l3,3l2,4l-5,4l-4,3l-3,1v3l-3,-3h1v-6l-3,-8ZM303,179v-1v1v-1l4,-4v-3l5,-7l2,-1l-1,-6l-3,-2l-2,-2v-16l1,-5l3,-8v-5l2,-4l1,-9l2,-4v-5l4,-12l1,-8h1l1,-9l5,1l4,2h6l3,1l-2,11l-2,5l-2,9v4l3,5l1,2v6l-1,3h1h-1h1l1,2l5,5l5,9v3l3,3h1h-1h1l1,3h4l1,3l-2,1v3l-2,2v3l-2,1v4l1,5h-3v4h-1h1h-1v2h-1h1h-1v1l2,1l1,3l3,-1h1l4,-4l3,3v9l2,3v3l2,1v3l-2,1h1h-1h1v3l6,2v3l1,4v4h1h-1h1l2,1l3,-2l4,1l3,1v-2l6,1h3l1,1h5l2,-1l1,-2l2,-2h1v1v-1v1l1,5l4,2l-1,1v6h-1v6h-1v7h-1v5l-1,1v6h-1v6h-1v6h-1v6h-1v6h-1v6h-1v6l-1,1l-6,-1l-14,-2l-6,-1l-11,-2l-6,-1l-10,-1l-8,-2l-10,-2l-2,-1l-11,-2l-6,-1l-11,-2l-2,-1l-5,-1l-2,-1h-6l-5,-2l1,-5l2,-4v-5l4,-12v-5l2,-8h1l1,-9l3,-6l3,-5l-3,-3h-1l-1,-7l2,-1l3,-5l3,-2ZM1184,201l2,-3v-8v1v-2l-1,-7l3,-2l4,-5v-4h-1v-1v1v-1l-2,-2l1,-4l-1,-4h1v-6l1,-2l4,1l1,-2v-1v1l1,1l1,6l2,3l1,6l3,6v3l2,3l2,10l2,3v3l2,2l1,6l1,1h1h-1h2v1v-1v1l1,3h1l5,4h-3v3l-5,1l-2,2l-2,4l-11,2l-2,1l-11,2l-2,-2l1,-9h-1v-7h-1v-5ZM1020,449v1v-1v1h4l1,-5l4,-2l-1,-6l1,-1l8,-1l5,-1h5l3,-1l10,-1l7,-1h4l13,-3l9,-1l9,-3l9,-1l3,-1l11,-2l8,-2h6l2,-2h6l3,-1l8,-2v2l6,10h1l3,6l4,4l1,3v12h-3l-7,5l-7,10l-1,7l-3,-2h-4l-9,4l-2,3l-4,2l-6,10v10l-8,-1l-6,3l-9,-7l-5,-3l-16,-12v-1l-8,1l-18,3v-4l-3,-2h-4v-2h-11l-18,3h-2h1h-1l-8,4l-7,4h-1l-10,2h-5l-5,1l-7,1v-7l3,-1h1l2,-1v-5l3,-2v-1v1v-1l3,-2h5l2,-2l2,-1v-2l3,-1v-1v1v-1l3,-1h1v-4h1h-1h1l5,-4l3,2l2,-4ZM1155,170v-1l4,-1l9,-2l6,-1l15,-5l1,4l-1,4l2,2v1v-1v1h1v4l-4,5l-3,2l1,7v2v-1v8l-2,3v8h1v7h1l-1,9l2,2l-15,3l-2,-2v-5l-3,-10v-4l-2,-2h-1l-2,2v-9l-3,-4v-13l-3,-3v-5ZM1172,251l9,-2h5l6,-3l14,-2l1,5l3,8v6h-1l-9,5l-12,7l-4,2l-7,5l-3,-3v-3l3,-2l-2,-3v-5h-1v-5h-1v-6ZM1139,326v-1l3,-4h5l-2,7l1,4l4,2l10,12l1,2l3,9l-6,1h-3l-6,2l-2,-9l-4,-14h-1l-1,-6ZM557,443l-1,1v12l-2,2v14h-1v13h-1v25h-1v13h-1v11l-1,1v10h-1v11h-1v12l-1,1v12l-2,1h-7l-8,-1h-13l-6,-1l-19,-2l-10,-1l-11,-1l-9,-1v5h1v1v-1v1h1l-7,-1h-10v-1l-10,-1l-12,-1l-1,4v7l-6,1l-9,-2l-6,-1l1,-4v-6l1,-1v-7h1v-7h1v-6l1,-1v-6l1,-1v-7h1v-6h1v-7l1,-1v-7h1v-7h1v-6l1,-1v-6l1,-1v-7h1v-6h1v-8h1v-7h1v-6h1v-8h1v-7h1v-6h1v-7l1,-1v-7h1l9,2l19,2l14,2h4l9,2h6l10,1h6l18,3l20,1l8,1ZM169,486v-2l3,1l2,4h-3ZM188,498l1,-2l3,1l1,4l3,2v3h-4l-3,-4ZM182,482h3v2h-4ZM192,486v-2h3l5,4v5l-6,-2v-2ZM177,465h4v3l-4,-1l-6,1l-4,-2l-6,1l-2,-5l-5,-1l-1,-5l6,1l1,3l2,1l7,-1l4,3h3ZM125,342l3,-1l1,5h-2ZM136,221l5,1l7,3l7,1l6,2l4,1l27,8l7,1l9,4l7,1v1v-1v1l7,1l-2,8l-3,8l-1,8h-1l-1,7l-3,11l-2,4v4l-3,10l-2,4v4l-2,7l-1,8l1,1l2,4l3,3v2l4,6l3,2v2l4,4v2l5,6l2,4l9,11l8,14v1l5,6l13,19l1,3l3,3l3,7l11,15v1l5,8l4,4l4,6v1l1,7l2,2v7l2,1l2,3v3l-7,3v2l-3,2l-2,8v3l-3,1v2l-3,1v10v-1v1h1l3,2l-1,4l-3,2h-4l-18,-2l-15,-2l-9,-2h-10l-5,-1l-2,-3v-6l1,-1v-8l-2,-4l-5,-6l-6,-9h-3l-4,-3l1,-5l-1,-2h-7v-2l-7,-3l-2,-2v-4l-5,-4v-1l-6,-2l-3,-2l-4,-2h-7l-1,-4h-2v-4l4,-13l-3,-1l-2,-3v-2l2,-3l-3,-1l-2,-6l-3,-2v-5l-2,-2v-3l-2,-2v-4l-4,-4v-10l2,-2v-7l-2,-2l-1,-4h-2v-16l2,-4l-1,-3l-4,-3v-2h-4v-3l2,-2l-1,-4v-5l-4,-5l-2,-7l-2,-1l-1,-6h2v-13l3,-2v-8l-1,-4l-2,-2v-3l-4,-4l1,-3v-5l10,-11v-6l3,-2l-1,-4h3l1,-2l-1,-8l-3,-4h4ZM1146,295l2,-5l-2,-2l4,-8v-3l2,-2l5,2l1,1l12,4v9h-1l-3,3v4l6,-3h2l1,4v22l-2,7l-4,3l-2,4l-1,7h-1l-4,6l-1,-2l-10,-12l-4,-2l-1,-4l2,-7l1,-1l4,-1l2,-6l2,-1l2,-4l-8,-5v-3l-3,-1ZM781,193h2v-18h1l1,-2l3,1l4,-3l9,-5l9,-8l3,-3h14l-2,7l-3,6l-3,8h2l1,1v1v-1v1h1l1,1l1,2h1h-1h1h-1h1h-1h1l8,3l11,2l7,3h4v-1v1v-1h1v1v-1v1h5l2,1l2,2l1,2l2,1l3,1v7l-1,2v1v-1v1l4,-1v3l-1,3l3,2h3l1,-4l4,-4l1,-3l4,-1l9,3l3,2l-1,3h-1l-3,6l-3,9l-2,14h-1v11l-1,4l1,2v8l2,6v4l3,11l-25,2l-6,1l-8,1h-20v1h-10l-5,1h-1h1l-2,-4l-6,-1l-2,-2l-2,-4l-1,-6l2,-4v-2l-3,-1v-4h-1v-5l-1,-5l-3,-4h-3l-2,-3l-4,-1l-1,-5l-6,-2l-2,-3l-6,-2l-4,-3v-16l2,-2l-1,-4l-2,-1h-1v-5h1l1,-5ZM174,107h3l1,2l9,1v4h5l2,2l3,5v5l-2,4l2,3h2l3,4l8,-1l2,-1l8,1l3,1l3,4h8l3,-1l2,2h5l3,-1h7l4,-1l1,1h5l2,1l5,-1l7,2l10,2l14,4l6,1v3l2,2l3,2l1,6l-2,1l-5,7v3l-4,4v1v-1v1l-2,3l-3,2l-3,5l-2,1l1,7h1l3,3l-3,5l-3,6l-1,9h-1l-2,8v5l-4,12v5l-2,4l-1,5l-5,-1l-10,-3l-7,-1l-10,-3h-3l-4,-1l-11,-3l-6,-2h-3l-7,-1v-1v1v-1l-7,-1l-9,-4l-7,-1l-27,-8l-4,-1l-6,-2l-7,-1l-7,-3l-5,-1l-1,-1v-14l3,-1l-1,-5l-2,-3l4,-4l2,-5l2,-1v-3l5,-4l2,-5l3,-3l2,-5l2,-8l2,-1l2,-5l1,-7l3,-3v-3l3,-3v-4l2,-2v-3l1,-3v-5l1,-4l3,-2ZM549,272l10,1l8,1l16,1h17v1h22l1,1h13v1h25l3,4l5,1l1,2l6,-2h11l1,2h3l5,3l3,4l3,1h1v4l2,2v4l2,2v1v-1v1l2,2v3l1,1v8l1,1l2,1v6v-1v1l1,3v5h1v6l1,5l2,2l1,5l4,2l1,4l2,3h-65v-1h-34v-1h-23l-1,-1h-19l-1,-1v-10h1v-15l1,-3l-12,-1l-16,-1l-13,-1v-10l1,-1v-11h1v-11h1v-12h1v-11ZM1028,272l9,-4l6,-4l1,10l1,4h7l6,-2l18,-3l3,-1l9,-1l26,-5l5,-2l8,-1l2,-1l6,-1l1,1l3,2l2,1v1l2,2v3l2,2l2,1h1h-1h2l3,1l-2,2v3l-4,8l2,2l-2,5l1,4l3,1v3l8,5l-2,4l-2,1l-2,6l-4,1l-1,1h-5l-3,4v1l-6,1l-5,1l-8,1l-5,2l-12,2l-30,6h-4l-7,2h-5l-3,1l-14,2l-1,-3v-6l-1,-1v-5h-1v-6l-1,-4l-1,-2v-6h-1v-6h-1v-6h-1v-5h-1v-6l-1,-1v-5h-1v-6ZM324,68l-1,9h-1l-1,8l-4,12v5l-2,4l-1,9l-2,4v5l-3,8l-1,5v13l-6,-1l-14,-4l-10,-2l-7,-2l-5,1l-2,-1h-5l-1,-1l-4,1h-7l-3,1h-5l-2,-2l-3,1h-8l-3,-4l-3,-1l-8,-1l-2,1l-8,1l-3,-4h-2l-2,-3l2,-4v-5l-3,-5l-2,-2h-5v-4l-9,-1l-1,-2h-3l3,-8v-5h1v-8h1v-17h-1v-6l-2,-3l1,-4v-5h2v-5l3,-2l9,8l10,6h6l3,-2l-1,-2v-7h6l-4,-8l9,3l6,1l6,2l14,3l15,5h2l10,3h3l4,2l5,1l7,2h3l6,2l15,4h3ZM824,558v3l2,-2l1,2l-2,1v3l2,1l-2,3l2,1v1h1h-1v-1v1l-1,2l4,1l-1,2h3l-2,2v2h-4l-1,2l4,-1l-1,4h-1h1v1l-3,1l-1,5l-2,-2l-1,3h1h-1v4l-2,1l-1,4v2v-2l-1,2h1h-1v1h1h-1h1v2h-3l2,2l-1,3l2,1l-2,2l3,-1h22v-1h21l-1,1v3v-1v1l-1,2v1v-1v2v-1v4h1h-1h1v1h1h-1h1l3,6h1h-1h1h-1h1v3l2,1h1l7,-2l3,2h4l4,4v6l-1,2l-8,8l2,4l5,1v3l-6,6l-1,-1h-3l-1,3h-3v-7l-3,-2l-2,1l-9,2l-1,2l-5,2h-7l-4,1l-6,-1l-1,-3l-7,-1v-1l-5,-3l-7,-1l-2,1l-5,-5h-2l-2,2l-12,-2l-5,-3l-6,-1h-9l-5,1l-1,3v-3l-3,-3l3,-3l3,-6l-1,-1h1h-1h1l-1,-1v-3l-1,-1v-1v1v-1l1,-2v-1v1v-1v1v-2h-1h1h-1l1,-2h1h-1h1l1,-4v-1h1v-1h1h-1h1v-1h-1h1h-1v-1l1,-1v-1v1v-8h-2v-2l-2,-2v-3l-2,-1h1h-1h1l-3,-4h1h-1h1v-1l-1,-4l-3,-3v-1v1v-1l-2,-1v-20h-1v-9h20v-1h38v-1ZM947,492h4l9,-2h4l5,-1h7l7,-1l5,-1h5l10,-2h1l-1,1l-1,2l-2,2l-1,4l5,2l3,3l3,-1l2,1l2,4v1v-1v1l6,8l3,1l5,3l1,4h2l6,4v3l1,1h1v1v-1v1l3,3l4,1v1v-1v1h1h-1h1l2,2l1,2v1v-1v1l1,2l1,3h1h-1h1v2h1h-1h1v1v-1v1h2h-1h1l3,5v1v-1v1l1,1h-1h1h-1v1l1,2l5,3l5,-1l-3,7l-3,3v7h-1v8l-2,1v8l-1,1l1,4l-5,1v-1v1v-1h-2h1h-3h1h-2h1h-1l-3,-1l-3,4v1l2,1v6v-1v1l-1,1l-3,1v-2h-1h1h-1v-1v1v-1l-1,-3l-19,2h-9l-8,1h-9l-7,1h-9l-2,1l-2,-3l-2,-5l-3,-4v-12l-3,-4v-6h1v-7l3,-2v-1v1v-1l-2,-1l-1,-6l-3,-2l-1,-5l-1,-1l-1,-7l-2,-3l-4,-14v-4l-3,-7l-3,-13h-1ZM889,497h10l6,-2h9l14,-1l4,-1l15,-1l3,11h1l3,13l3,7v4l4,14l2,3l1,7l1,1l1,5l3,2l1,6l2,1v1v-1v1l-3,2v7h-1v6l3,4v12l3,4h-7l-3,1l-10,1l-5,1l-18,2h-7l-12,1v5l2,1l4,3v1v-1v4v-1v2l-2,8l-7,2h-13v1v-1l-1,-1v-8h-1v-8h-1v-8h-1v-7h-1v-8h-1v-50l1,-1v-41ZM341,272l8,2l10,1l6,1l11,2l6,1l14,2l6,1v5h-1v7h-1v5h-1v6h-1v6l11,1l7,1l16,2l7,1v7h-1v6h-1v7h-1v7l-1,1v6l-1,1v6h-1v7l-2,7v7h-1v6h-1v7h-1v9l-1,1v7h-1v7h-1v13h-1l-26,-4h-4l-9,-2l-19,-2l-6,-2l-17,-2l-6,-2h-7l-5,-2h-3l-7,-2l1,-3v-5h1v-6h1v-5l2,-4v-5h1v-5h1v-6h1l2,-14h1v-5h1v-6l2,-9v-5l1,-5h1l3,-16v-4l4,-15l1,-10l2,-6ZM943,302l12,-2l3,-1l13,-1l6,-8l1,2l9,4h6l4,-5l8,-5l8,-7l9,-5l6,-2l1,4v6h1v5l1,1v6h1v5h1v6h1v6h1v6l1,2l-3,1l2,3v9h-1v8h-1v9l-5,4v1v-1v1l-2,3l-4,-1l-2,5l-3,1v8l-3,3l-1,-3l-2,-1l-2,8v1v-1v1l1,3l-2,1l-1,4l-4,2l-2,-1v-1l-3,-2h-2l-1,-5l-4,1l-1,3l-4,1l-6,-2l-2,3h-3v-2l-3,-1h-1h1h-6l-2,-1v-4l-3,-2h-1h1h-1l-2,-1l-2,1l-4,-1l-1,-1v-8h-1v-9h-1v-9h-1v-9h-1v-9h-1v-8h-1v-8h-1v-8ZM556,456l17,2h18v1h11v1h20v21h-1v23h-1v11h3l4,5l4,-1v1v-1v1h3l1,-1l3,3l2,4h4l4,2h5v2h3l1,-2h7h-1h1l-1,3l4,1l-1,4h4l1,-2l4,-1v2h4v2l2,-1l3,-1v5h2l1,-3l2,-2v-1v1v-1h2l1,2l4,1v-2l6,4l1,2l2,-1v-1v1v-1l3,1v-2h1h-1h1l1,-1h3h-1h1v-1l3,1l5,-2l3,1h4l2,-2l3,1h1h-1h1l5,5h1h-1h2h-1h1v1h1h-1v-1l1,1h1h-1h1h-1h1h-1v1v-1v1h1v-1v1h2h-1v1v-1h1v1h-1h2h-1h1l3,2h4v-1v1v-1h2h-1h2l1,1v24h1v20l2,1v1v-1v1l3,3l1,4v1h-1h1h-1l3,4h-1h1h-1l2,1v3l2,2v2h2v8v-1v1l-1,1v1h1h-1h1v1h-1h1h-1v1h-1v1l-1,4h-1h1h-1l-1,2h1h-1h1v2v-1v1v-1v1l-1,2v1v-1v1l1,1v3l1,1h-1h1h-1l1,1l-3,6l-3,3l3,3v3h-8l-5,3l-8,3v2l-10,7l-1,3l-6,4l-11,6l-5,2l-6,4l-2,3l-7,3l-5,4l-3,4l-1,3l-2,1l-3,5l-3,10v10l1,7h1l2,10l1,7l-5,1l-4,2l-4,-2l-1,-3l-5,-1h-11l-4,-4l-6,-1l-1,-3l-9,-2l-2,-4l-2,-8l-5,-5l1,-6l-2,-1v-9l-4,-1l-2,-4l-3,-1v-4l-2,-2l-2,-5l-5,-2l-1,-8h-2v-3l-2,-1v-4l-3,-3v-5l-3,-2v-3l-6,-3v-3l-6,-2l1,-3l-1,-1l-3,-4h-9l-2,-1h-6l-5,-3l-1,4h-7l-4,6v3l-2,1v4h-3v2l-3,2v2h-4l-5,-3l-1,-2l-7,-3v-2h-3l-7,-6l-3,-2l-1,-2l-3,-2v-4l-2,-2v-11l-3,-4l-1,-6h-2l-3,-5l-5,-2l-1,-3l-3,-2v-2l-5,-3l-3,-7l-5,-1l-2,-2l-1,-5l-2,-4l-3,-1h-1v-1v1v-1h-1v-5l9,1l11,1l10,1l19,2l6,1h13l8,1h7l2,-1v-12l1,-1v-12h1v-11h1v-10l1,-1v-11h1v-13h1v-25h1v-13h1v-14ZM439,316l15,3h4l4,1h10l5,1h5l5,2h4l5,1l27,3h7l14,1l13,1l16,1l12,1l-1,3v15h-1v32h-1v16h-1v15h-1v16h-1v16h-9l-13,-1l-9,-1l-8,-1l-20,-1l-18,-3h-6l-10,-1h-6l-9,-2h-4l-14,-2l-19,-2l-9,-2v-13h1v-7h1v-7l1,-1v-9h1v-7h1v-6h1v-7l2,-7v-7h1v-6l1,-1v-6l1,-1v-7h1v-7h1v-6h1ZM1014,504v-1v1v-1l-2,-4l-2,-1l-3,1l-3,-3l-5,-2l1,-4l2,-2l1,-2l1,-1h-1h1l7,-4l8,-4h1h-1h2l18,-3h11v2h4l3,2v4l18,-3l8,-1v1l16,12l5,3l9,7l-2,1l-5,4l-1,4l-3,4v6l1,2l-4,3v3l-5,2l-3,5l-4,5l-1,2l-6,3l-2,3v3l-4,2l-1,3h-2l-1,3l-5,1l-5,-3l-1,-2v-1h1h-1h1l-1,-1v-1v1v-1l-3,-5h-1h1h-2v-1v1v-1h-1h1h-1v-2h-1h1h-1l-1,-3l-1,-2v-1v1v-1l-1,-2l-2,-2h-1h1h-1v-1v1v-1l-4,-1l-3,-3v-1v1v-1h-1l-1,-1v-3l-6,-4h-2l-1,-4l-5,-3l-3,-1ZM556,456v-12l1,-1l13,1h17v1h25v1h12l1,1h31v1h86v14l1,3v7h1v6h1v7h1v6h1v36h-1v16h-1h1h-2h1v-1h-1v1v-1h1h-2v-1v1h-1v-1v1v-1h1h-1h1h-1h1h-1l-1,-1v1h1h-1v-1h-1h1h-2h1h-1l-5,-5h-1h1h-1l-3,-1l-2,2h-4l-3,-1l-5,2l-3,-1v1h-1h1h-3l-1,1h-1h1h-1v2l-3,-1v1v-1v1l-2,1l-1,-2l-6,-4v2l-4,-1l-1,-2h-2v1v-1v1l-2,2l-1,3h-2v-5l-3,1l-2,1v-2h-4v-2l-4,1l-1,2h-4l1,-4l-4,-1l1,-3h-1h1h-7l-1,2h-3v-2h-5l-4,-2h-4l-2,-4l-3,-3l-1,1h-3v-1v1v-1l-4,1l-4,-5h-3v-11h1v-23h1v-21h-20v-1h-11v-1h-18ZM1010,454l-5,4h-1h1h-1v4h-1l-3,1v1v-1v1l-3,1v2l-2,1l-2,2h-5l-3,2v1v-1v1l-3,2v5l-2,1h-1l-3,1v7h-7l-5,1h-4l-9,2h-4l-15,1l-4,1l-14,1h-9l-6,2h-10l-15,1v1l-16,1h-9l-8,1l2,-1v-3l3,-3l-1,-5h-1h2h-1h1v-4h2l-1,-6h2l4,-2l-2,-1l3,-1l-2,-3l1,-3l2,-1l-3,-3l4,-1l-2,-2l2,-1v-4h3l14,-1h9l7,-1l-1,-5h13v-1l22,-2h19l9,-2h10l6,-1l11,-1h6l1,-2h10l3,-1l9,-1l3,-1l13,-1l1,-1h5l-1,1l1,6l-4,2l-1,5h-4v-1v1v-1l-5,3l-2,4ZM414,213v-5l1,-1v-6l1,-2l11,2l9,1l4,1l13,1l3,1h4l4,2l14,1l9,1h4l4,2h5l10,1l12,1l18,2l12,1v21h-1v11l-1,1v11h-1v12h-1v11h-1v12h-1v11h-1v11l-1,1v10l-14,-1h-7l-27,-3l-5,-1h-4l-5,-2h-5l-5,-1h-10l-4,-1h-4l-15,-3l-7,-1l-16,-2l-7,-1l-11,-1v-6h1v-6h1v-5h1v-7h1v-5l1,-1v-6h1v-6h1v-6h1v-6h1v-6h1v-6h1v-6l1,-1v-5h1v-7h1v-6h1v-6ZM490,733l8,4l3,3v3l3,1l1,4l4,2v2l-5,4l-15,7l-1,3l-2,3l-3,-1l-6,-4v-11l-1,-3l-3,-3v-5l6,-4l-2,-4v-4l5,-1l4,3ZM415,694v-2h4l3,-3h3l3,4v1l4,2v2l2,3l-2,3h-5l-2,-2h-6v-2l-2,-1ZM356,689l3,3h-3ZM381,674l6,-1l4,3l-1,8l-4,2h-5l-6,-4l1,-5ZM457,708h4l2,2l6,-1l4,4l5,1l-1,5l-8,3h-5l-2,3h-6v-3l6,-5h-3l-3,-5ZM447,713v-2l4,-1l5,3v4l-3,1h-4ZM362,686l1,-3l3,-1l1,-3l4,2l-1,4l-3,1l-1,3l-3,-1ZM457,708l-3,2l-6,-2h-7l-1,-3l2,-3l7,1l1,-1l4,2h4ZM562,105l15,1l15,2h19l1,1h21v1h33l2,1h21l1,4v3l1,3v1h-1h1h-1v5v-1l1,1h-1h1l-1,1v-1v3h1h-1h1v1v-1h-1v1h1h-1h1h-1v2h1h-1h1h-1v1l2,4v4v-1v1l1,3l1,2h1h-1h1v3h1h-1h1v1h-1h1h-1h1v1v-1h-1v1h1h-1l1,1h-1h1h-1v1v-1h1v1h-1h1h-1v1l1,2v5v-1v7h1v1v-1v1v-1v1v-1v1v-1v4v-1v1h-1h1h-1h1h-1h1v2v-1v3v-1l-1,1h1h-1h1h-1h1h-1h1h-1h1v2v-1v2v-1v2h1h-1h1h-1h1h-1h1h-1h1h-1l1,1v-1v2v-1v2l2,2v4h1h-1h1h-1h1h-1h1v7h-47l-1,-1h-26v-1h-12v-1h-19v-1h-9l-7,-1h-8l-17,-2v-7h1v-11h1v-12h1v-11h1v-11h1v-12h1v-12h1ZM857,457h-1h1ZM886,418h3v-3l1,1l5,-2h6l6,2v-3l3,-1l2,-2l2,3l3,-1l2,-5l3,-3h-1h1l3,4l4,1l3,-1v-6l2,-2l2,-1v-4l3,-1l1,-4l-1,-4l6,1l4,-3h2l2,-3l-3,-6l2,-1l4,1l2,-1l2,1h1h-1h1l3,2v4l2,1h6h-1h1l3,1v2h3l2,-3l6,2l4,-1l1,-3l4,-1l1,5h2l3,2v1l1,2v6l4,5h-1h1h-1l1,1v1v-1v1l4,2v1v-1v1l1,2l3,1l3,2h1v1v-1h1l-1,1l-3,4l-7,6l-4,3v3l-3,1v4l-3,1l-2,1v2l-4,2v1v-1v1h-4l-2,2h-1l-1,2h-6l-11,1l-6,1h-10l-9,2h-19l-22,2v1h-13l1,5l-7,1h-9l-14,1h-1h1v-4l4,2l1,-2l-1,-5l2,-5h-1l-1,-3l4,-4l7,2l1,2h3l-1,-6h-1h1h-1l1,-4l8,-2l1,-2l-3,-4l3,-2ZM1196,151v-1l3,-1l2,2l-1,-5h4l-2,-2v-5l4,-3v-13h-1v-6l2,-1v-7h-1l2,-5l1,-6l2,-3l1,-6h1l2,-6h3l1,5l8,-3v-1l4,-1v-2l4,-1l4,2l2,2l3,1l2,4v4l2,3l1,6l1,3v3l2,3l2,11l9,1l-1,2l3,3l-1,3l2,3h3v-1h3l5,5v1l3,2l-3,4v2l-3,4h-2l-2,5l-4,1v2h-3l-3,5v3l-5,3v2l-4,2l2,1l-3,6l-3,-1l-4,1l-1,3l-4,-1v2l-11,8l-2,3l-1,5h-2v4h3v2h-3l1,5l-5,-4h-1l-1,-3v-1v1v-1h-2h1h-1l-1,-1l-1,-6l-2,-2v-3l-2,-3l-2,-10l-2,-3v-3l-3,-6l-1,-6l-2,-3l-1,-6ZM1155,170v-1v1l1,5v5l3,3v13l3,4v9l2,-2h1l2,2v4l3,10v5l2,2l-1,2v19h1l1,4v6h1v5h1v5l2,3l-3,2v3l3,3l7,-5l4,-2l12,-7l9,-5l3,3l1,4l-4,3l-3,3l-12,9l-12,8l-6,1l-2,1h-2l-6,3v-4l3,-3h1v-9l-12,-4l-1,-1l-5,-2l-3,-1h-2h1h-1l-2,-1l-2,-2v-3l-2,-2v-1l-2,-1l-3,-2l-1,-1l-6,1l-2,1l-8,1l-5,2l-26,5l-9,1l-3,1l-18,3l-6,2h-7l-1,-4l-1,-10l6,-5l9,-6l1,-3l-3,-1l-2,-3l-1,-5l-3,-5l3,-3l6,-3l11,-3l8,-1l7,-2h3l8,-2v-2l4,-9v-3l2,-4l3,-1v-2l6,-5v-3l5,-6l1,-3l3,-3l6,-5l12,-2l13,-4ZM281,259l5,2h6l2,1l5,1l2,1l11,2l6,1l11,2l2,1l10,2v4l-2,6l-1,10l-4,15v4l-3,16h-1l-1,5v5l-2,9v6h-1v5h-1l-2,14h-1v6h-1v5h-1v5l-2,4v5h-1v6h-1v5l-1,3l-1,2v5h-1v6h-1v5h-1v5l-3,2v2h-3l-2,-4l-3,-1h-5v8h-1v20h-1l-2,2v1v-1l-4,-6l-4,-4l-5,-8v-1l-11,-15l-3,-7l-3,-3l-1,-3l-13,-19l-5,-6v-1l-8,-14l-9,-11l-2,-4l-5,-6v-2l-4,-4v-2l-3,-2l-4,-6v-2l-3,-3l-2,-4l-1,-1l1,-8l2,-7v-4l2,-4l3,-10v-4l2,-4l3,-11l1,-7h1l1,-8l3,-8l2,-8h3l6,2l11,3l4,1h3l10,3l7,1l10,3ZM26,728l3,-1l3,3v2l-4,-1ZM60,755h3l-1,1ZM121,767l1,-2l4,-1l-1,4ZM71,763h-3l3,-1ZM68,763v1h-3ZM134,725l-1,1h-3l1,-2ZM128,693v-1l-1,-4l4,5ZM128,692v1v-1ZM106,768l1,-2l2,1ZM50,748h-1h1ZM77,762v1l1,-1h7l3,3l4,-1l7,-1v3l3,1l2,2h-4l-2,-2h-4l-4,-1h-12l-1,-2h-4v-4ZM54,756h3l-1,4ZM49,748h1l1,3h-4ZM52,751l2,-1l2,3h-2l-1,-1ZM52,752h1l1,1ZM77,762h1l-1,1ZM51,751h1v1ZM134,725l-1,1l1,-1ZM139,663l1,-3l3,2l5,1v2l5,3v2l-6,-1l-4,-4h-3ZM29,735l3,-1l-2,3ZM225,718l3,-1v2ZM184,718h2v1ZM213,735v-4l4,-3l3,-1v-2l3,-2l1,-3h2l1,3h2v3h-4l2,3v5l-2,-1l-1,3l-6,3v3h-6l4,-2ZM147,760v-2l3,-1l5,4l-6,-1l-1,3l-4,2l-11,1v2h-6l3,-4l5,-2h3v2l2,-1l2,-4ZM169,758l1,1v1h-4l1,-2ZM177,752h1v1ZM168,755h1v1ZM186,756l-5,1v-2l-3,-2v-1h-1l-4,5l-2,-1l-1,3l-1,-1v-3h-1l-1,1h-7l-2,2h-3v-3l5,-3h4l6,-3l1,-3l6,-2h4l1,-2l3,-3l6,-2l2,-6l3,-6l-1,-4l-4,2l-2,-5h-5l-2,3l-2,-2l-3,1l-1,-9l2,-1l-2,-4h-9l-1,-5h-2l-2,-4l2,-1v-3l-3,-3v-6l1,-2l3,-1l4,-8l4,-1l4,3l2,-2v-4l3,2l5,-1v-6l-6,-3l-2,2l-3,-3h-6l-5,-3l-1,-7l-4,-3l1,-1l10,-6l4,-1h5l2,-3l-3,-1v-4l-7,-8l-2,-1l2,-1l1,-5l8,1l4,-4v-3l3,-4l3,-1h2l7,-5l3,1l3,-2l2,-3l9,5h5l5,4l3,-2l4,2l10,1l5,1l2,-2l5,1l2,1l4,1l1,8l3,10v4l2,11v5l2,5v4l2,5v5l4,15v5l2,5l1,8h5l5,-2v4l7,3l2,2l1,3l2,-3h2v-5l3,-3l3,1l1,3h2l9,5v2l7,6l1,4l5,3h4l7,2l1,5l2,2v3l-2,4l-5,1l-11,5l-1,-3v-2l-2,-2v-4l-2,2l-3,-1v-2l-8,-5l-4,-4l-7,-9l-5,-2l-1,-2l-8,-3l-5,-2l-8,-1h-5l-6,2l-2,2v-3l-7,-2l-6,3v3l-4,1l-5,-1l-2,1l-1,3l-7,4l-9,1l-2,5h-2l-1,4l-2,1h-3l-2,4l-5,2l-1,6l-10,11h-10v2l4,2v3ZM152,700l6,-3l3,1l1,6h-5l-3,-1ZM875,208v-3l-4,1v-1v1v-1l1,-2v-7l-3,-1l-2,-1l-1,-2l-2,-2l-2,-1h-5v-1v1v-1h-1v1v-1v1h-4l-7,-3l-11,-2l-8,-3h-1h1h-1h1h-1h1h-1l-1,-2l-1,-1h-1v-1v1v-1l-1,-1h-2l3,-8l3,-6l2,-7l6,-14l2,-7l2,1l8,-6l5,-3l5,-1l9,4l16,7l9,5l6,2l14,7l9,4l8,4l1,5l4,4l3,1l1,-1l5,-1v4l2,5l3,3l2,-2h6l3,3l-3,7l3,-1l20,10l1,5l2,4l5,17l4,12l2,4l1,5l-1,6l-3,10v13l-3,1l-2,5l-6,3v9l1,1l-6,8l-13,1l-3,1l-12,2v-2l-10,1l-10,2h-6l-11,1l-12,1v-6l1,-2v-10l1,-3l-3,-11v-4l-2,-6v-8l-1,-2l1,-4v-11h1l2,-14l3,-9l3,-6h1l1,-3l-3,-2l-9,-3l-4,1l-1,3l-4,4l-1,4h-3l-3,-2ZM742,462h21v-1v1v-1v1v-1h35v-1h25v-1h10v-1h8l3,5l-1,2l-3,2l-3,6l15,-1l2,3l-3,1l2,1l-4,2h-2l1,6h-2v4h-1h1h-2h1l1,5l-3,3v3l-2,1l1,2l-5,5v-1v3l-1,1v-1h1h-1v8l-2,1v1v-1l-4,4l1,3l-2,3l-2,1h-2l2,6h-3v2h2h-2v3l-2,1l1,2v2v-2h1l1,1v1h-2l2,1h1v-1h-1v-1h1v2h-1l1,4v4l-2,3h-9v1h-38v1h-20v-15l-1,-1h-2h1h-2v1v-1v1h-4l-3,-2v-16h1v-36h-1v-6h-1v-7h-1v-6h-1v-7ZM830,523l4,-4v1v-1l2,-1v-8h1h-1v1l1,-1v-3v1l5,-5l-1,-2l8,-1h9l16,-1v-1l15,-1l2,3v41l-1,1v50h1v8h1v7h1v8h1v8h1v8l1,1v1l-6,1l-5,-1l-2,2h-4l-3,-2l-7,2h-1l-2,-1v-3h-1h1h-1h1h-1l-3,-6h-1h1h-1v-1h-1h1h-1v-4v1v-2v1v-1l1,-2v-1v1v-3l1,-1h-21v1h-22l-3,1l2,-2l-2,-1l1,-3l-2,-2h3v-2h-1h1h-1v-1h1h-1l1,-2v2v-2l1,-4l2,-1v-4h1h-1l1,-3l2,2l1,-5l3,-1v-1h-1h1l1,-4l-4,1l1,-2h4v-2l2,-2h-3l1,-2l-4,-1l1,-2v-1v1h1h-1v-1l-2,-1l2,-3l-2,-1v-3l2,-1l-1,-2l-2,2v-3l2,-3v-4l-1,-4h1v-2h-1v1h1v1h-1l-2,-1h2v-1l-1,-1h-1v2v-2l-1,-2l2,-1v-3h2h-2v-2h3l-2,-6h2l2,-1l2,-3ZM734,366h-5l-3,-3l-2,-3l-1,-4l-4,-2l-1,-5l-2,-2h37v-1h26v-1h18l5,-1l3,4l1,1v1h1h-1h2l-2,4v4l2,3v5h2v3l5,3l5,6l5,3l1,3v5l2,3h2l1,-3l7,2l-1,8l-1,2v3l-2,2l1,5l3,3l6,2l-1,3h4l4,3v1v-1v1l3,1v5l2,1l-1,5v1l3,4v2l5,1h2l-2,5l1,5l-1,2l-4,-2v4h-3v4l-2,1l2,2l-4,1l3,3l-2,1l-1,3l-15,1l3,-6l3,-2l1,-2l-3,-5h-8v1h-10v1h-25v1h-35v1v-1v1v-1v1h-21v-75l-5,-1l-2,-3l-1,-4l-3,-2l3,-7l2,1v-3ZM340,114v-6l-1,-2l-3,-5v-4l2,-9l2,-5l2,-11l8,1l5,2l11,2l3,1l18,3l8,2l7,1l23,4l3,1l27,4h3l13,2l4,1h9l4,1l9,1l15,2l15,1l5,1l12,1l6,1l12,1v8h-1v12h-1v12h-1v11h-1v11h-1v12h-1v11h-1v7l-1,6v12h-1v9h-1l-12,-1l-18,-2l-12,-1l-10,-1h-5l-4,-2h-4l-9,-1l-14,-1l-4,-2h-4l-3,-1l-13,-1l-4,-1l-9,-1l-11,-2l-1,2v6l-1,1v5l-4,-2l-1,-5v-1v1v-1h-1l-2,2l-1,2l-2,1h-5l-1,-1h-3l-6,-1v2l-3,-1l-4,-1l-3,2l-2,-1h-1h1h-1v-4l-1,-4v-3l-6,-2v-3h-1h1h-1l2,-1v-3l-2,-1v-3l-2,-3v-9l-3,-3l-4,4h-1l-3,1l-1,-3l-2,-1v-1h1h-1h1v-2h1h-1h1v-4h3l-1,-5v-4l2,-1v-3l2,-2v-3l2,-1l-1,-3h-4l-1,-3h-1h1h-1l-3,-3v-3l-5,-9l-5,-5l-1,-2h-1h1h-1ZM583,359l1,1h19l1,1h23v1h34v1h65l3,3h5l2,2v3l-2,-1l-3,7l3,2l1,4l2,3l5,1v61h-86v-1h-31l-1,-1h-12v-1h-25v-1h-9h1v-16h1v-16h1v-15h1v-16h1v-16ZM888,311h-1h1h-1v-5l7,-1l12,-1l11,-1h6l10,-2l10,-1v2l1,3v8h1v8h1v8h1v9h1v9h1v9h1v9h1v8l1,1l-2,1l3,6l-2,3h-2l-4,3l-6,-1l1,4l-1,4l-3,1v4l-2,1l-2,2v6l-3,1l-4,-1l-3,-4h-1h1l-3,3l-2,5l-3,1l-2,-3l-2,2l-3,1v3l-6,-2h-6l-5,2l-1,-1v3h-3l-1,-2l1,-1v-4v1v-2l1,-1v-1v1v-2v1v-1l-1,-1h1h-1h1v-1l1,-1l-1,1l2,-2v1h-1h1v-1l2,-4l2,-1v-5l2,-2v-1l-1,-3v-1v1v-1l1,-1l-2,-1v-1v1v-1l-2,-4l1,-2v-2l1,-1v-7l-1,-1v-10h-1v-12h-1v-12h-1v-10l-1,-1ZM701,196v4l-6,4l2,6l6,3v52h-3l1,5h-1v1v-1v1l3,3h-1h1h-1h1h-1h1h-1h1h-1v4h-1h1h-1h1h-1l1,1l-1,4l-2,4h1h-1h1l1,1l1,5h1h-1l-3,-1l-3,-4l-5,-3h-3l-1,-2h-11l-6,2l-1,-2l-5,-1l-3,-4h-25v-1h-13l-1,-1h-22v-1h-17l-16,-1l-8,-1l-10,-1v-12h1v-11l1,-1v-11h1v-21h1v-9h1v-12l1,-6l17,2h8l7,1h9v1h19v1h12v1h26l1,1h18ZM1206,244l-14,2l-6,3h-5l-9,2h-1v-19l1,-2l15,-3l11,-2l2,-1l11,-2l2,-4l2,-2l5,-1l1,2h4l2,2l-2,4l1,8l2,3l7,-1l3,-2l3,1l4,4l2,4v7l-2,2h-2l1,-4l-7,3l-1,3l8,2v-3h3l3,3v2l-3,2l-7,-2l-7,2l-1,3l-3,-1v-2l-5,-2l-2,-4l-3,-3l-2,-1l-1,-2l-1,-1v-3ZM1082,361l2,-3l1,-1l2,-5v-1v1v-1v1v-1l1,-1h-1h1h-1v-1v1v-1l1,-5h1l8,5l3,1l1,-5h2l4,1l-1,4h5v1v-1v1l2,1l3,1l3,3v3l-4,4v3h-1h1h-1l1,4h3l3,-2l1,3l2,2h7l6,4l4,1l3,-3l5,1l4,-3l9,-4l-1,6l-4,3v9h-1l-1,9l-2,4v3l4,10h1l-8,2l-3,1h-6l-2,2h-6l-8,2l-11,2l-3,1l-9,1l-9,3l-9,1l-13,3h-4l-7,1l-10,1l-3,1h-5l-5,1l-8,1h-5l-1,1l-13,1l-3,1l-9,1l-3,1h-10h1l2,-2h4v-1v1v-1l4,-2v-2l2,-1l3,-1v-4l3,-1v-3l4,-3l7,-6l3,-4l1,-1l1,1h-1h1h-1h1h-1v1l1,2v1h1h-1h1l6,4l3,-1l2,-4l4,2l7,-3v-3l3,1l5,-4l1,1l3,-3l1,-7v-1v1v-1l1,-2v-1l2,-3l1,-7l2,-3l1,-2v-5l1,-1l3,1l1,2h5h-1h1l2,-7h1h-1h1l-1,-3h1h-1h1l1,-3l3,2ZM1116,353l1,-2l4,2l-2,3v1v-1ZM701,288l-1,-1h-1h1h-1l2,-4l1,-4l-1,-1h1h-1h1h-1h1v-4h1h-1h1h-1h1h-1h1h-1h1l-3,-3v-1v1v-1h1l-1,-5h54v-1h21v-1h28l5,-1v4l3,1v2l-2,4l1,6l2,4l2,2l6,1l2,4h-1l4,2l1,4l6,4l1,2v5h-1h1h-1l-2,3l-2,6l-7,3l-7,2v6l3,2v6l-3,2v5l-4,1l-2,7h-2h1h-1v-1l-1,-1l-3,-4l-5,1h-18v1h-26v1h-37l-1,-5v-6h-1v-5l-1,-3v-1v1v-6l-2,-1l-1,-1v-8l-1,-1v-3l-2,-2v-1v1v-1l-2,-2v-4l-2,-2v-4h-1ZM281,518h-1v-1v1v-10l3,-1v-2l3,-1v-3l2,-8l3,-2v-2l7,-3v-3l-2,-3l-2,-1v-7l-2,-2l-1,-7v-1l2,-2h1v-20h1v-8h5l3,1l2,4h3v-2l3,-2v-5h1v-5h1v-6h1v-5l1,-2l7,2h3l5,2h7l6,2l17,2l6,2l19,2l9,2h4l26,4h1h-1v7l-1,1v7h-1v6h-1v7h-1v8h-1v6h-1v7h-1v8h-1v6h-1v7l-1,1v6l-1,1v6h-1v7h-1v7l-1,1v7h-1v6h-1v7l-1,1v6l-1,1v6h-1v7h-1v7l-1,1v6l-1,4l-7,-1h-7l-16,-3l-17,-2l-29,-17l-4,-2l-15,-9l-34,-20l1,-4l2,-2h4l3,-2l1,-4Z"/></g><g class="president-cartogram"><path class="AL" d="M710,510h90v90h-90Z"/><path class="AK" d="M100,730h52v52h-52Z"/><path class="AR" d="M540,420h73v73h-73Z"/><path class="AZ" d="M230,420h99v99h-99Z"/><path class="CA" d="M0,400h222v222h-222Z"/><path class="CO" d="M300,330h79v79h-79Z"/><path class="CT" d="M1140,200h79v79h-79Z"/><path class="DC" d="M880,340h52v52h-52Z"/><path class="DE" d="M1040,370h52v52h-52Z"/><path class="FL" d="M720,640h162v162h-162Z"/><path class="GA" d="M810,510h120v120h-120Z"/><path class="HI" d="M10,730h60v60h-60Z"/><path class="IA" d="M440,240h60v60h-60Z"/><path class="ID" d="M230,240h60v60h-60Z"/><path class="IL" d="M520,170h134v134h-134Z"/><path class="IN" d="M660,190h99v99h-99Z"/><path class="KS" d="M390,340h73v73h-73Z"/><path class="KY" d="M610,310h85v85h-85Z"/><path class="LA" d="M540,510h85v85h-85Z"/><path class="MA" d="M1100,90h99v99h-99Z"/><path class="MD" d="M940,340h95v95h-95Z"/><path class="ME" d="M1230,0h60v60h-60Z"/><path class="MI" d="M700,60h120v120h-120Z"/><path class="MN" d="M430,170h60v60h-60Z"/><path class="MO" d="M470,320h95v95h-95Z"/><path class="MS" d="M630,510h73v73h-73Z"/><path class="MT" d="M280,180h52v52h-52Z"/><path class="NC" d="M936,440h116v116h-116Z"/><path class="NE" d="M360,250h67v67h-67Z"/><path class="ND" d="M360,120h52v52h-52Z"/><path class="NH" d="M1160,20h60v60h-60Z"/><path class="NJ" d="M1020,200h112v112h-112Z"/><path class="NM" d="M340,430h67v67h-67Z"/><path class="NY" d="M930,20h162v162h-162Z"/><path class="NV" d="M140,310h73v73h-73Z"/><path class="OR" d="M140,220h79v79h-79Z"/><path class="OH" d="M770,200h99v99h-99Z"/><path class="OK" d="M420,424h79v79h-79Z"/><path class="PA" d="M880,200h134v134h-134Z"/><path class="RI" d="M1230,190h60v60h-60Z"/><path class="SC" d="M940,560h90v90h-90Z"/><path class="SD" d="M360,184h52v52h-52Z"/><path class="TN" d="M650,400h99v99h-99Z"/><path class="TX" d="M350,510h185v185h-185Z"/><path class="UT" d="M220,310h73v73h-73Z"/><path class="VA" d="M820,400h108v108h-108Z"/><path class="VT" d="M1100,20h52v52h-52Z"/><path class="WA" d="M120,100h104v104h-104Z"/><path class="WI" d="M520,70h95v95h-95Z"/><path class="WV" d="M760,320h67v67h-67Z"/><path class="WY" d="M300,240h52v52h-52Z"/></g></svg>