<?xml version="1.0"?><!DOCTYPE svg PUBLIC "-//W3C//DTD SVG 1.1//EN" "http://www.w3.org/Graphics/SVG/1.1/DTD/svg11.dtd"><svg xmlns="http://www.w3.org/2000/svg" version="1.1" width="1294" height="800" viewBox="0 0 1294 800"><g class="states"><path class="AR" d="M739,460v1v-1v1h2h-1h1l-7,12l15,-1l1,3v-1v1v-1l-6,6l-2,9h-2h2l-1,2v6l-4,4v4v-1v1l-5,4v1v-1v1l-2,9l-3,6l-3,5l-3,6l2,3l-3,5v1v-1l2,1v1h-1l1,1v-2v6h1l-2,7l-29,1l-38,1v-15l-5,-1h-1l-1,1h-2h1l-1,-1v1v-1h-1v-1v1v-1h-1v-56l-4,-25l38,-1l62,-2Z"/><path class="AZ" d="M321,428v1l-3,14v7l-3,14v6l-7,50l-4,27v7l-3,14l-2,18l-48,-6l-81,-48l3,-6h5v-1v1v-1l2,-7l-3,-1v-10h2l4,-3l1,-9l2,-4l2,-2l3,-2l4,-1l-5,-6v-6l-3,-11l3,-4v-19l1,-1v-5l3,-2l6,1l4,4l4,-5l1,-10l3,-12l30,6l45,7l10,2Z"/><path class="CO" d="M440,328l25,2l17,1l-2,28l-1,25l-2,19v14l-2,27l-21,-2l-42,-3l-44,-4l-3,-1l-44,-5v-1l1,-13l3,-14v-10l3,-20l3,-14l2,-20l2,-14v-6l30,3l30,4Z"/><path class="IA" d="M704,262h1v5l4,16l8,3l1,3l5,4v4l5,3v9l-2,6l-7,4l-8,2v6l3,2v6l-3,7l-5,1l-1,7v1v-1h-1v1v-1h-1v-1v1v-1l-6,-5l-52,3h-32l-2,-5l-1,-12l-1,-3h1h-1h1l-1,-5l-3,-4v-10l-2,-2l-3,-4v-9h-2v-1h-1h1l-2,-4l-2,-2h1h-1h1l1,-2v-1v1v-1l2,-11l-2,-1v-1v1v-1l-1,-5h53l21,-1Z"/><path class="IL" d="M776,286v7l4,4l4,11l1,16l3,34v17h-1h1h-1v4l3,7v1v-1v1l1,1l-3,9l-3,7h-1v1v-1v1h-1v1v-1v1l1,2l-1,1l-1,3l-1,4l1,1v1v-1v1h1l-3,4l3,5l-8,3l-1,10l-10,-4h-1h1h-1l-5,6l2,1l-2,-1l-5,-3l-2,-15l-8,-6l-9,-4l-4,-4v-5l4,-6l1,-7l-8,-3l-3,3l-2,-11l-8,-5l-7,-7l-4,-10l1,-8h1v-1l1,-7l5,-1l3,-7v-6l-3,-2v-6l8,-2l7,-4l2,-6v-9l-5,-3v-4l-5,-4Z"/><path class="IN" d="M840,302l1,4l4,42h1l1,26h1h-1v10l-6,3l-5,-1v8l-8,7l-1,7h-7h1h-1l-3,-1l-4,7l-3,-3h-1h1h-1l-8,5l-5,-3l-5,1l-1,2h-1h1h-1l-4,-2l-2,4h-1v-1v1v-1l-1,-1l1,-4l1,-3l1,-1l-1,-2v-1v1v-1h1v-1v1v-1h1l3,-7l3,-9l-1,-1v-1v1v-1l-3,-7v-4h1h-1h1v-17l-3,-34l-1,-16h9l5,-3l33,-4Z"/><path class="KS" d="M596,363v1v-1v1h27l7,2l2,3l-1,2h-1l-2,4l4,8l4,4h1h-1h2v61h-79l-46,-2h-14l-24,-2l2,-27v-14l2,-19l1,-25l45,3h35v1Z"/><path class="MO" d="M703,349v1v-1v1h1v1v-1h1v1h-1l-1,8l4,10l7,7l8,5l2,11l3,-3l8,3l-1,7l-4,6v5l4,4l9,4l8,6l2,15l5,3l2,1l-1,12l-4,2l-1,1h-1l1,-1h-2l1,1v6h-3l2,4l-3,4l-15,1l7,-12h-1h1h-2v-1v1v-2l-62,2l-38,1l-1,-14v-61h-2h1h-1l-4,-4l-4,-8l2,-4h1l1,-2l-2,-3l-7,-2l-5,-8l-4,-7v-1v1v-1l-1,-1h32l52,-3Z"/><path class="NE" d="M559,280l7,5l4,-3l6,1l4,-1v1v-1v1h1l13,5l5,5h2v9l3,4l2,2v10l3,4l1,5h-1h1h-1l1,3l1,12l2,5l1,1v1v-1v1l4,7l5,8h-27v-1v1v-1h-36v-1h-35l-45,-3l2,-28l-17,-1l-25,-2l1,-18l4,-38l44,3l43,3h25Z"/><path class="NM" d="M454,442l-1,14l-2,8l-1,23l-3,29l-4,45l-1,22l-35,-3l-49,-5l2,6l-31,-4h-9l-1,11l-20,-2l2,-18l3,-14v-7l4,-27l7,-50v-6l3,-14v-7l3,-14v-1v1l44,5l3,1l44,4Z"/><path class="NV" d="M238,272l-6,34l-3,10l-1,10l-4,15l-4,25l-8,44l-3,12l-1,10l-4,5l-4,-4l-6,-1l-3,2v5l-1,1v19l-3,4l-20,-32l-2,-1l-27,-42l-11,-15l-26,-41l-4,-4l4,-19l5,-16l2,-10l10,-38l23,6l37,8l36,8Z"/><path class="OK" d="M638,448l1,14l4,25v56h-1v-1v1l-1,-1h1h-1l-1,-1v1v-1v1l-3,-1v-1v1v-1h-1l-2,-2h-1h1l-1,-1v1v-1l-3,-1v-1v1l-1,-1h1h-5l-1,1h-3l-2,-1l-6,2h-7l-4,2l-14,-2l-3,-3l-1,3l-3,4l-3,-5h-1v1v-1v1l-4,-2h-6l-4,-2l-3,-5h-4l-5,2l-4,-2h-4v-1v1v-1l-3,-1h-3v-1v1v-1h-1l-3,-5l-2,-1l-1,1v1v-1v1h-1v-1v1v-1h-5l-7,-8v-22l1,-4v-20l1,-6l-47,-2l-19,-2l1,-14l21,2l24,2h14l46,2Z"/><path class="TN" d="M881,442l12,-2l33,-5v2l-1,3v2v-1v1l-1,1l-4,7h-6v1v-1v1l-4,4l-2,-2l-7,5l1,1v1v-1v1l-13,10h-5l-6,5l-1,6l-4,1v7l-29,3l-27,3h-5l-26,3h-14l-35,3l4,-4v-6l1,-2h-2h2l2,-9l6,-6v1v-1v1l-1,-3l3,-4l-2,-4h3v-6l-1,-1h2l-1,1h1l1,-1l31,-2l-1,-5l4,1l28,-4l25,-1l19,-2Z"/><path class="UT" d="M299,282v5l-4,19v4l40,7v6l-2,14l-2,20l-3,14l-3,20v10l-3,14l-1,13l-24,-3l-10,-2l-45,-7l-30,-6l8,-44l4,-25l4,-15l1,-10l3,-10l6,-34l27,5Z"/><path class="WV" d="M933,319l4,25l22,-3l3,14l3,-4l2,-2v-1v1v-1l1,-2h3h-1h1l2,-5l1,-1l-1,1h1v-1v1h7l1,-2h1l5,-3l4,2l2,2h1h-1h1l3,5l-1,6l-13,-8v9l-3,5v1l-3,2l-2,5l-3,-1l-3,7l-1,5l-8,-2h-1h1h-1h1h-1h1l-1,4v1l-3,8l-5,9l1,6l-6,5l-14,9h-6v1v-1v1h-1v1v-1v1l-8,-2h-1h1h-1v-2h-1h1h-1h1h-1h1h-1h1l-2,-1v-1v1v-1l1,-1v-1v1v-1h-3l-3,-1v-1v1v-1h-2v-1v1v-1l-3,-4l-2,-2l-1,-2l-4,-11v-1v1l6,-2l3,-4l-1,-8l2,-5l2,4l3,-3v-8l5,-6l3,2l9,-9v-9l2,-8v-13Z"/><path class="ID" d="M239,72l-3,10l-3,20l3,3h-1h1h-1l2,10l-2,1l7,6l5,11v1l4,7l6,1l-3,9l-3,4v4l-3,10l-1,2v1v-1v1l6,2h2v-1v1v-1l4,-3l2,5l1,2v6l4,6l-1,3v4l5,1l2,12l4,-2l7,3l2,-3h1l2,1v1v-1v1h3l4,1h7v-1l2,-3l6,8l-5,25l-1,12l-5,31l-34,-5l-27,-5l-24,-5l-36,-8l10,-49l5,-8l-2,-5l-3,-5l11,-13l1,-1l-1,1l1,-1l11,-15l-1,-4l-4,-4l-1,-5v-14l3,-13l5,-17v-5l7,-33Z"/><path class="MT" d="M458,105l-2,23l-1,23l-1,12v11l-2,15l-2,27l-51,-5l-27,-4l-21,-2l-8,-2l-24,-2l-7,-2l-2,15l-6,-8l-2,3v1h-7l-4,-1h-3v-1v1v-1l-2,-1h-1l-2,3l-7,-3l-4,2l-2,-12l-5,-1v-4l1,-3l-4,-6v-6l-1,-2l-2,-5l-4,3v1v-1v1h-2l-6,-2v-1v1v-1l1,-2l3,-10v-4l3,-4l3,-9l-6,-1l-4,-7v-1l-5,-11l-7,-6l2,-1l-2,-10h1h-1h1l-3,-3l3,-20l3,-10l17,4l68,13l34,4l11,2l14,2l48,5Z"/><path class="ND" d="M585,111v3h1h-1h1v3h1h-1h1v1l1,2l-1,1v1v-1v7v-1v4v-1v2v-1v2l-1,1l3,10h1h-1h1v2h1h-1h1v1l1,4v1v-1v3v-1v9v-1v1h1h-1h1h-1h1h-1h1h-1h1h-1v1h1h-1h1v1h-1h1h-1h1h-1v1h1h-1h1v1h-1h1h-1v1l1,1l1,2h-1h1h-1v2v-1v6l1,2v1v-1v2l1,1v1l3,9l-1,5l-3,-1h-33l-29,-1l-12,-1l-21,-1l-9,-1l-37,-2l-1,-1l2,-15v-11l1,-12l1,-23l2,-23l35,3l43,2Z"/><path class="SD" d="M597,197l-1,5l-4,2l3,7l5,3v21l-1,1v29h-3l1,5v1v-1v1l2,1l-2,11v1v-1v1l-1,2h-1h1h-1l2,2l2,4h-1h1v1l-5,-5l-13,-5h-1v-1v1v-1l-4,1l-6,-1l-4,3l-7,-5l-2,-2h-25l-43,-3l-44,-3l5,-56l2,-27l1,1l37,2l9,1l21,1l12,1l29,1h33Z"/><path class="VT" d="M1087,160l1,10v6l-6,5v17l-1,17l2,11l1,1l-16,4l-2,-5l-3,-17l-3,-2l-1,2v-3l-3,-10v-10l-3,-6l-1,-10Z"/><path class="WY" d="M450,216l-5,56l-4,38l-1,18l-45,-4l-30,-4l-30,-3l-40,-7v-4l4,-19v-5l5,-31l1,-12l5,-25l2,-15l7,2l24,2l8,2l21,2l27,4Z"/><path class="FL" d="M970,770h-1h1ZM970,770h-1h1ZM965,771h0ZM965,771h0ZM965,771h0ZM965,771h0ZM970,769h1l-1,1ZM977,767v1v-1ZM977,767v1l-2,1l1,-2ZM977,767h0ZM978,767h0ZM978,767h-1h1ZM945,771h0ZM945,771h0ZM974,767h0ZM974,767v-1v1ZM983,765h-1h1ZM981,765h0ZM976,765h0ZM981,765h1h-1h1h-1h1ZM978,767v-1l2,-1l-2,2h-1ZM976,765h-1h1ZM981,765v-1v1ZM976,765h-1h1ZM980,764l1,1h-1v-1ZM984,763v1v-1ZM981,764v-1v1ZM981,764v1v-1h-1h1h-1l1,-1ZM978,764h0ZM978,764h0ZM992,761v1v-1v1ZM984,763v1l1,1h-2v-1l-1,-1l1,-1ZM983,764v1h-1l-1,-2ZM992,761l3,-1l-3,2ZM995,759v1v-1ZM995,759h0ZM1000,752h0ZM1000,752h0ZM997,752h1ZM998,752h1h-1ZM999,752h-1v-1ZM1001,750h0ZM1002,750h0ZM1002,750h0ZM1001,750h-1h1ZM993,751h0ZM994,750h0ZM993,751v-1v1ZM994,750h1h-1ZM998,749h0ZM1000,750h-1v-1h1ZM1003,748h0ZM998,749h0ZM1003,748h0ZM1007,747l-1,1v-1ZM1007,747v-1v1ZM990,748h0ZM990,748h-1h1ZM1005,745v-1v1ZM989,747h1v1h-1ZM991,746v1l1,-1v1h-1ZM989,746v1v-1ZM991,746h-1v1h1h-1h1h-1h1h-1h1v1v-1v1v-1v1v-1v1v-1v1h1h-3h1v-2v1v-1ZM989,746v1v-1ZM991,745h0ZM990,745h0ZM991,745h-1ZM989,745h-1ZM1009,741l-1,1l-1,4v1h-1h1h-1v1l-2,2l-3,4v-1l3,-3v-1l1,-1h1v-4l2,-2ZM987,745h1h-1ZM988,745h0ZM988,745h-1h1ZM1007,741v-1l1,1ZM1009,741h-1h1v-1v1ZM1009,741h-1h1v-1ZM984,740h0ZM988,739v1l-1,-1ZM987,739h1h-1ZM987,739h-1h1h-1h1ZM985,739h0ZM981,736h0ZM981,736h0ZM984,735v1h-1ZM982,735h1h-1h1h-1v1h-1v-1ZM1009,731v-1h1ZM1009,730h1h-1ZM1009,730v-1v1ZM978,733h0ZM978,733v1v-1ZM978,733h0ZM977,733h-1h1ZM978,733h0ZM977,733h0ZM979,733h0ZM976,733h-1h1ZM977,733h1h-1ZM977,733v-1v1ZM977,733v-1v1ZM976,732h1v1h-1v-1h-1ZM974,732h0ZM976,732h-1h1ZM974,732h0ZM974,732v1v-1ZM974,732v1l-1,-1ZM973,732h-1ZM974,732h1h-1h2h-1v1v-1v1v-1v1v-1v1h-1l1,-1h-1h1h-1h1h-1ZM973,732h1h-1h1h-1h1ZM970,732h1ZM1009,726l1,4l-1,-1v-2ZM969,731v-1v1h2v1h-1l1,-1l-1,1h1v-1v1v-1v1h-2h1h-1l-1,-2l1,1l-1,-1h1ZM968,730v-1ZM968,728v1v-1v2v-1ZM967,727h1h-1h1v1v-1v3v-2l-1,-1ZM964,719h-1v-1h-2h2v1ZM958,715h0ZM958,715v-1v1ZM954,714h0ZM954,714h0ZM957,713v1h1v-1v2l-1,-1ZM955,713h0ZM955,713h0ZM957,712l2,5l-1,-2l-1,-1v-1ZM1007,702v-1v1ZM950,707v-1v1ZM958,704v-1v1ZM949,705h-1h1ZM1002,692v-1h1v2h1v1l1,1v1l1,1l-1,-1v-1l-1,-1v-1h-1h1h-1v-1ZM944,699l2,2v1v-1l-1,-1ZM943,697l1,2l-1,-2ZM943,696v1l-1,-1ZM942,696h0ZM942,696h0ZM939,693l3,3ZM1000,688l3,3h-1v-1l-3,-3l-1,-2v-1ZM939,693h0ZM996,679l-1,-1h1ZM938,686h0ZM938,686h0ZM937,685l1,1v1l-1,-2ZM994,676h1v1l-1,-1h1h-1ZM937,685v-1v1ZM937,685v-1v1ZM936,684h1h-1h1v1ZM944,682h-1v-1ZM994,676h1v1l1,1v1l2,4v1v-1l-1,-1v-1l-1,-1v-2h-1v-1v1v-2h-1l-1,-1v-1ZM944,681v-1v1ZM986,662v-3h1l3,11l3,4l-3,-3v-1v1v-1l-1,-1l-1,-2l-1,-1v-2l-1,-2ZM935,658h-1ZM934,656v-1v1ZM979,647h0ZM979,647v-1v1ZM935,653h0ZM935,653h0ZM979,646h-1v1v-1ZM935,653h-1h1ZM978,646h1h-1ZM978,645v1l-1,-1ZM976,642h-1ZM978,645l2,2h-1v-1l-1,-1h-1h1h-1l-1,-1v-2h-1h1ZM975,642h0ZM923,645h0ZM923,645h0ZM957,637v-1v1ZM872,638l1,2l-3,-1ZM975,642v-1l-1,-1h-1l-1,-3h-1v-1l-1,-1l-1,-3h-1l-1,-4v-1h-1v-2l1,2v1l1,4h1l5,8l1,1ZM876,637h-1h1ZM964,623l1,1v1h1h-1v-1l-2,-2v-2ZM889,627h0ZM861,629h0ZM817,627h-2l-1,1h-1h1l1,-1h2ZM817,627v-1ZM957,608v-1v1ZM954,608h0ZM958,607l1,3l2,5l1,3l1,1v1v-1h-1v-1l-1,-2v-1v1l1,2l-1,-2v-1l-2,-2l-1,-2h1v-1l-1,-2v-1ZM835,623h1h-6l-3,1l-10,3v-1l4,-1l6,-1l2,-1h3ZM957,607h0ZM954,608h1h-1v-1ZM956,607h-1h1v1h-1v-1ZM957,607h-1ZM958,606v1h-1h1h-1v-1v1v-1ZM958,605h-1h1ZM957,604v1h1v1h-1v-1h-1ZM955,603h1h-1v1h1v1h-1v-1h-1h1ZM956,603h-1ZM955,600v-1h1ZM954,598h1l-1,1h-1h1ZM1009,726v1l-3,6l1,7v1v-1v1l-1,2v1h-1v1l1,1l-1,2h-5l-1,1h-2l-3,1h-1l-7,-1l1,-4h1v1v-1h-1l1,1v-1v1h1v2h3v-2l-1,-1h-4l-3,-5l1,-1h2h-1h1l1,1v-1h-2v-1v1v-1l-2,2l-2,-2v-1l-1,-1h1v-1h1v1h1h-1h1v-1h-1h1h-3v1l-2,-1v-2h-1l-1,-1h-5h1h-1h1h-1v-1l1,1l-1,-1h-1h1h-1h1v1h-1v-1h1h-1h1h-1h1h-1h1h-1v1v-1h-2v-1l1,1l-1,-1h-1h1h-1h1h-1v-2v1v-1v1v-2h-1l-3,-8v-1h-3l-3,-3v-2h-1v-1l1,-8v-1v1l-4,5h-2l-2,-2v-1h-1v-1h-1l-2,-3v-1v1v-1v1v-1l-2,-2l-1,-2v-1l-4,-3l2,-5l3,-6v-2l-1,1v1l-3,-4l-2,8l-1,-1v-1h-1l-2,-5l1,1v-23v1v-1l-1,-1v-1l1,-2h-1h1h-1l-2,-3l-2,-4l-5,1h-1l-1,-1v-1v1v-1l-2,-1h-1l-6,-6l-1,-4l-6,-6l-9,-4l-5,1h-1l-3,2l-13,10h-1h1l-4,1l-2,1l-10,-8l1,-2l-5,-2l2,-3h-6l4,4l-8,-4l-12,-1l11,-1l-4,-3l-9,2l1,2h-6l-2,1l-6,1l4,-2l-5,-3l-3,6v1h-4h2l-1,-2l2,-2h-1v-6l-6,-3v-6l12,-1l44,-4l6,-1l4,8l20,-2l25,-1l18,-2l1,4v2v-1v1h2l2,-1l-1,-7v-2h-1h1h-1l3,-4l4,1h4l1,1h1l1,-1l1,1h-1v1v-1v1v-1v1l1,-1l1,5l-1,-1v-1v1h-1v1h-1h1v1h1v-2h-1h1v2h1h-1h1v2h-2v1h-1v-1l-2,3l1,9l4,5l-2,6l1,6l1,1v-1l-2,-5l3,-4l-4,-8v-11h2h-1h1v-1h1v1h1l1,2v1h-1l1,2l2,2v1l1,2v1h1v3l2,2v1h1v2h1h-1l1,1l1,4h1l1,3l1,1v1h1l1,3h1l1,1v1h1v2l2,2v1l3,3v-1l-1,-2l1,2l5,5l1,5h-1h1h-1v-5v1l-1,5l1,2l-1,-2l2,4v2l-4,-7v-5l-4,-2l8,14l1,1l1,2l1,1v1l2,2l1,2l2,2v1l1,1v1l1,1v1l1,1v2l1,2l3,3v2h1v1h1v1l1,1v1l1,1l-1,-1l1,1l1,4v1l2,10Z"/><path class="TX" d="M577,757h-1h1ZM577,757h0ZM577,757v-1v1ZM577,756h0ZM577,756h-1h1ZM578,756v-1v1ZM578,755h0ZM578,755v-1v1ZM578,755l1,-1v1ZM577,754h1h-1v1ZM575,747v1v-1ZM576,745v-1h1ZM573,744h0ZM577,744h-1ZM573,744h0ZM573,744h0ZM573,744v-1v1ZM573,743v1h-1h1l-1,-1ZM576,739v4v-1l-1,-1l1,-1l-1,-2v-1v1h1h-1l1,1v1ZM575,737h0ZM575,737h0ZM575,737l-1,-1ZM574,736h0ZM574,735v-1v1ZM574,734v1v-1ZM572,732h-1h1ZM571,732h-1ZM576,739v-1h-1v-1l-1,-1v-5v1l1,5l1,1ZM570,731h0ZM569,729l1,1l-1,-1ZM571,729h0ZM571,729h0ZM571,729h1h-1ZM572,727v1ZM574,722h0ZM574,731v-9l1,-6l1,-3l2,-2l-4,12ZM577,710h0ZM577,710h0ZM579,709v-1v1ZM578,706h-1h1ZM579,709v-1l1,-2l1,-1h1h-1h1l-3,4l-1,2ZM582,705h-1l1,-1ZM582,703v1v-1ZM586,699h1l-5,5v1v-2l3,-3ZM585,697h1ZM586,696h1h-1ZM587,696h0ZM588,694h1h-1ZM589,694h0ZM598,690h0ZM594,693l4,-3h1l-12,9h-1v-2l2,-1l3,-1l2,-2ZM598,690v-1h1ZM599,690v-1h1ZM630,671h-1v-1v1ZM630,671l5,-5l1,-2h1l1,-1ZM637,663h1l-1,1l-1,-1h1h-1ZM636,663h1h-1ZM645,658h0ZM634,655l-1,-1h1ZM633,654v-1v1h1ZM631,651h-1ZM635,664l-6,6v1h1h-1l-5,5l-15,5l-2,4l-7,4l7,-4l-3,-1h-1l-8,-1h-1h1h-1v5l4,1l-5,3h-1l-5,-3l2,5h-1v2h-2v1h-1h1h-1v-3l-6,2l2,6l-1,1v1v-1l-2,3h-1l-6,-2l6,6l-2,6l-10,5l6,1l1,4h-1l1,1v1l-3,1l1,1v2l3,10l-1,1h1h-1v1v-1v1v-1v1h1l-1,1l3,2v2l2,5v1l-1,1l1,-1h1l-2,1h1l-1,1h1l1,-1v-1h1l-2,2l-3,4l-11,-7h-11l-6,-5h-5l-3,-4l-8,-1l-5,-14l-3,-3l-2,-17l-8,-5l-4,-10l-4,-2l-3,-9l-7,-11v-6l-9,-10l-4,-2l-4,-7l-16,-2l-6,-2l-1,2l-8,1l-12,20l-7,-1l-8,-8l-7,-2l-5,-6l-6,-4l-3,-8v-10l-3,-3v-7l-11,-8l-4,-6l-5,-3l-3,-7l-5,-1l-4,-11l-3,-1l-2,-6l49,5l35,3l1,-22l4,-45l3,-29l1,-23l2,-8l19,2l47,2l-1,6v20l-1,4v22l7,8h5v1v-1v1h1v-1v1v-1l1,-1l2,1l3,5h1v1v-1v1h3l3,1v1v-1v1h4l4,2l5,-2h4l3,5l4,2h6l4,2v-1v1v-1h1l3,5l3,-4l1,-3l3,3l14,2l4,-2h7l6,-2l2,1h3l1,-1h5h-1l1,1v-1v1l3,1v1v-1l1,1h-1h1l2,2h1v1v-1v1l3,1v-1v1v-1l1,1h1h-1l1,1v-1v1h2v1v-1v1h1v1v-1l1,1h-1h2l1,-1h1l5,1v43l3,3l1,2h1h-1h1v1l1,7l3,3l1,2l1,3h1h-1h1v7l1,3h-1h1h-1v4l-2,5l-1,5v1h-1h1h-1h1h-1v1h1h-1h1h-1h1l1,7v1v-1v1l-5,6l2,4l-6,1l-10,4l-6,-1l1,-6l-6,3l-1,-1h-1l-1,-2h-1h1l1,2h1v1l3,10Z"/><path class="AL" d="M797,628h0ZM802,619l-1,-1h1ZM801,617v1v-1h-1v1v-1l1,-1ZM844,492l10,39l2,3l3,14l2,3l2,6l4,6v5l-2,15l2,3l1,12l3,4l-6,1l-44,4l-12,1v6l6,3v6h1l-2,2l-1,2v1h-1l-4,1l-6,-5v-6l-1,-1v-1l-1,1v1v-1v1l-3,10l-3,-1h-3l-3,-26l-1,-8v-93l-1,-2l26,-3h5Z"/><path class="GA" d="M955,597h0ZM955,596v-1v1ZM954,595h0ZM954,595h0ZM953,595h1ZM955,596v2v-3l-1,-1v-1h1v-2ZM954,590h0ZM955,589v-1ZM953,587h-1v-1ZM955,586h-1h1v-1ZM954,586v-1v1ZM954,582h1ZM955,581h2v1l-2,4v-1h-1l1,-2v-1ZM956,581h-1h1ZM955,581h1h-1ZM954,581h1v1h-1v-1h-1ZM957,580h-1v-1v1ZM958,575l-1,5l-1,-2v-2h1v-1ZM956,575h1h-1h1h-1ZM956,572h1v-1h1l-1,1h1v-1v1v-1v2h1h-1l-1,-1h-2h1v-1ZM957,571h1h-2ZM958,570l1,1h-1ZM959,571v2l-1,1v-1h1h-1v-2h1h-1h1ZM959,565l-1,4v-3ZM956,565v-1h1h-1ZM957,564h1v1v-1v1l1,-1l1,1h-2v-1h-1l-1,1l1,-1ZM964,562h-1h1ZM964,562h-1v-1l1,-1l1,1ZM963,560h1ZM961,559h1v1h2l1,1l-1,-1l-1,1v-1v1v-1h-2h1ZM961,559v1h1h-1h2v2h-2l1,1l-1,-1v-1l-1,-1v-1ZM961,559h-1ZM958,559v-1v1ZM957,569l1,1v1h-2v1h-1h2l1,1v1l-1,1h1h-2v1v-1h1v1h-1v1v-1v4h1l-1,1v-1v1h-3h1v1h1v1l-1,-1l1,1l-1,2v1l-1,1l-1,-1v1v-1v1l3,1v1l-1,1l-1,-1l2,2v2h-1v2h1h-2h1h-1h1l1,2v1h-1v1h-1l-1,-1h-4l-4,-1l-3,4h1h-1h1v2l1,7l-2,1h-2v-1v1v-2l-1,-4l-18,2l-25,1l-20,2l-4,-8l-3,-4l-1,-12l-2,-3l2,-15v-5l-4,-6l-2,-6l-2,-3l-3,-14l-2,-3l-10,-39l29,-3l16,-2l11,-2v2v-1v1h-1l-1,2l-1,1l-1,4l9,5h2l2,3l7,10l9,5l9,8v3h1h-1h2v1h1h-1h1h-1l2,1v1l3,2h1v1v-1v1h1h-1h1h-1h1l2,2l1,3l1,2h1h-1h1v1v-1v3l1,1h-1v-1v1h1h-1l6,4v1v-1v1l2,2v1h1h-1h1v1h-1h1h-1v1h1h-1h1v2v-1v1l1,1v1h1h-1v-1v1h3h-1v1l1,1v1v-1v1l1,1l-2,2l-1,-1h-3v1l1,-1l1,1v4h-1Z"/><path class="LA" d="M734,667h-1ZM735,666v1h-2v-1v1l1,-1v1v-1ZM747,665l-1,1v-1ZM737,666h1h-1ZM777,662h0ZM754,663h0ZM733,664h0ZM733,664h0ZM733,664h0ZM733,664v-1v1ZM744,663h1h-1h1ZM732,664h-1v1v-1h1h-1h1ZM731,664v-1v2v-1v1h-2v-1l1,-1ZM753,660h0ZM754,659v1v-1ZM757,659h0ZM727,661h-1h1ZM757,659h0ZM754,659h0ZM754,659v-1v1ZM758,659v-1v1v-1l1,1ZM758,658h0ZM758,658h0ZM757,658h0ZM726,661h1v3ZM762,657h1l-5,2h1ZM758,658h0ZM755,658h-1ZM757,658h0ZM758,658h-1h1ZM755,658h-1h1ZM755,657v1h-1v-1h1h-1ZM765,656v1v-1ZM765,656l1,1h-1ZM754,657h-1ZM754,656v1v-1ZM757,656v-1ZM755,657v-1h-1v-1h-1h1v1l1,-1v1ZM764,654h0ZM764,654h0ZM724,656v1h-1ZM753,654l1,1h-1ZM764,654h-1h1l-1,-1l1,-1ZM762,652h-1h1ZM761,652v-1v1ZM761,652v-1h1v1ZM762,651v1v-1ZM762,651h-1h1ZM761,651h0ZM762,651h-1ZM762,650h1v1h-1ZM704,655l1,-1l8,1l-4,3ZM765,649v1ZM764,649h0ZM764,648h0ZM764,648h0ZM765,648h1l-1,1v-1v1v-1v1ZM764,648v-1v1ZM763,647v1h-1ZM767,646v1v-1ZM782,645h0ZM782,645v-1v1ZM769,645h-1h1ZM769,645v-1v1ZM770,644h0ZM770,644h-1h1ZM770,643v1v-1ZM771,641l-1,1v-1ZM769,641h0ZM769,641v-1v1ZM768,639v1v-1ZM768,640h-1v-1h1h-1h1ZM768,638h-1h1ZM768,638v1h-1v-1ZM772,637h0ZM772,637h1v1h-2l-1,-1v1v-1v1v-1h2ZM767,641v1h2l1,1v1h-1l-1,1h1h-3h1h-1l1,1v1l1,1l-1,1l-2,-2v-1v1h-2l-1,1h1h-1h1l1,1h1v1l-1,-1h-2v1v-1v1l-1,1h-1h1h-1l1,1v1h1h-1h1v1h2l1,2v1h6l6,5l-5,4v-5l-5,1l-4,-5h-5l-1,-2v1v-1h-1h1h-1h1h-3l-3,-3v-2l-2,5l5,1v1h-1l1,1v2h1h-2l1,3l-5,2l-1,-1v-1l-2,-2l-1,1v1v-1l-3,-1h-2v2h1h-1h1h-2v1l-1,2h-3v1v-1h-2v1v-1l-2,-1l1,-1h1h-1h1l1,-1h-4l-1,1v1l-2,-1v-3l-3,-4v-1l-1,1l-5,-2l-3,-5l-7,1l1,-3l-9,2l5,4l-1,1l-5,2l-13,-3l-3,-2l-10,-2l-12,3l-2,-4l5,-6v-1v1v-1l-1,-7h-1h1h-1h1h-1v-1h1h-1h1h-1h1v-1l1,-5l2,-5v-4h1h-1h1l-1,-3v-7h-1h1h-1l-1,-3l-1,-2l-3,-3l-1,-7v-1h-1h1h-1l-1,-2l-3,-3v-28l38,-1l29,-1l3,3l-2,8h3l-1,2l1,2l3,3l-1,2l-2,3l-1,4l-1,-1l1,1l-4,5l-2,3h1h-1l-4,10l-1,12l26,-1l18,-2l1,1h-1h1h-1v3v-1v3v-1v2v-1l-1,1h1h-1h1h-1h1v1h-1v1v-1v1l2,5v1v-1v1v-1v1l3,6h1h-1h1l1,1h1h-1l-6,7l5,3l5,-6v2l1,1Z"/><path class="MS" d="M787,628h-1ZM787,627v1ZM786,498l1,2v93l1,8l3,26l-4,1v-1l-1,1h-6l-10,1l-6,5h-1l-1,-1h-1h1h-1l-3,-6v-1v1v-1v1v-1l-2,-5v-1v1v-1h1v-1h-1h1h-1h1h-1l1,-1v1v-2v1v-3v1v-3h1h-1h1l-1,-1l-18,2l-26,1l1,-12l4,-10h1h-1l2,-3l4,-5l-1,-1l1,1l1,-4l2,-3l1,-2l-3,-3l-1,-2l1,-2h-3l2,-8l-3,-3l2,-7h-1v-6v2l-1,-1h1v-1l-2,-1v1v-1l3,-5l-2,-3l3,-6l3,-5l3,-6l2,-9v-1v1v-1l5,-4v-1v1v-4l35,-3Z"/><path class="SC" d="M963,559h0ZM963,559v1v-1l1,1h-1v-1h-1v-1ZM963,558h1h-1v1ZM964,557v1h-1v-1h1v-1ZM963,557v1h-1h1v-1ZM965,556h0ZM966,552l-1,4v-2l1,-1ZM966,552v1l-1,1v-1h1ZM971,550h1l-3,2v-2h1ZM970,550v-1h1v1ZM972,550h-1v-2ZM967,549h0ZM967,549v-1v1ZM964,547h-1h1ZM970,547h-1v-1ZM967,546h2v1h1l1,1v1v-1v1h-1l-1,1h1h-1v2h-1v-2h-1v-3l-1,-1h1ZM973,545h-1v-1h1ZM966,545l1,1h-1l1,1v3h1v2l-3,-2l-1,-1l-1,-2h1v-2ZM968,545h0ZM975,541l-1,1v-1ZM982,539l1,-1l-1,1ZM983,538h-1v1v-1ZM982,538l1,-1v1ZM983,537v1v-1ZM985,535h-1h1h-1ZM985,535v-1h1v-1h1l-1,1ZM986,533v1v-1v1v-1v1h-1ZM986,533h0ZM987,533h-1h1v-1v1ZM988,531v1h-1v1v-1h1h-1v-1ZM989,530h-1h1ZM988,531v-1h1l-1,2v-2ZM994,526h1h-1v1ZM994,526v1h-1h1h-1v-1ZM993,526v1v-1ZM993,526h1h-1ZM995,526h-1v-1h1ZM996,523h-1v-1h1ZM996,522h-1ZM996,519h-1h1ZM996,519h0ZM995,519h0ZM996,519v-1v1ZM1008,500h0ZM1008,500v-1v1ZM986,533l-1,1h1v-1v1h-1v1h-3v-1v1l1,2l-1,1v1l-7,2h-1v1v-1v1l1,-1l2,2l-4,2v-1v1v-1h-1v1l-4,-1v2h-1l-1,-1h-2v2h-1l1,2l1,1v1l-2,1h2v-1v1h1l-1,1h1h-1v1v-1v2v-1v1h-2v-1v1v-1v1h2v1h-1v1h-1l-1,1l1,-1l-1,1h1v1v-1h-1v1h-4v-1l-1,-1v-1v1v-2h-1h1h-1v-1h1h-1h1v-1h-1h1h-1v-1l-2,-2v-1v1v-1l-6,-4h1h-1v-1v1h1l-1,-1v-3v1v-1h-1h1h-1l-1,-2l-1,-3l-2,-2h-1h1h-1h1h-1v-1v1v-1h-1l-3,-2v-1l-2,-1h1h-1h1h-1v-1h-2h1h-1v-3l-9,-8l-9,-5l-7,-10l-2,-3h-2l-9,-5l1,-4l1,-1l1,-2h1v-1v1v-2l8,-4l1,-1l6,-3h1h-1h2l29,-3l7,5v3l25,-4l5,3l24,18l1,1l-7,6l-5,12v1h-1v-2l1,-2l-1,3v1l1,3h-1h1v1v-1h-1v1v-1v1h1l-1,2h-1v1h-1v-1v2h-2l-2,3h-1l-1,1v2h-1Z"/><path class="CA" d="M117,512h-1h1h-1ZM90,485l4,4l-2,2ZM106,486h0ZM106,486h0ZM102,481h0ZM100,480l-2,1v-1v1v-1h1ZM64,462l8,4l-8,-1ZM80,463h0ZM41,347v1l-2,-2ZM38,345h1h-1v1ZM53,343h-1h1ZM51,343v-1v1ZM51,343v-1v1h1ZM53,343h-1v-1v1h1h-1ZM49,340v1v-1ZM48,340h0ZM54,342l1,-1v1ZM118,245l-10,38l-2,10l-5,16l-4,19l4,4l26,41l11,15l27,42l2,1l20,32l3,11v6l5,6l-4,1l-3,2l-2,2l-2,4l-1,9l-4,3h-2v10l3,1l-2,7v1v-1v1h-5l-35,-5l-21,-2l1,-2l-2,-5h1h-1v-12l-2,-5l-8,-9l-4,-5l-2,-1h-2v1l-3,-1l1,-7l-8,-4l-8,-6v-3l-6,-6l-9,-3l-10,-3l-3,-4l4,-13l-5,-6l2,-6l-8,-9l-2,-11l-6,-9v-9l3,1l3,-5l-1,-6h-4l-5,-6l2,-20h3v1l-1,6l4,4v-9l-2,-1v-1l-1,-4h10l3,1v1h1l3,-1l-2,1l1,-1h1v-1l-1,1h-2v-1l-1,1l-2,-1v-1h-1l-11,-2v6l-5,-3l-4,-13v-5l-9,-15l2,-3v-12l3,-3v-9l-5,-10l-1,-10l8,-7v-1l2,-8l5,-9v-10l1,-4v-1v1l23,5l42,13Z"/><path class="CT" d="M1076,278h0ZM1104,262v1h-1ZM1083,248l19,-4l4,11v7h-2v1v-1l-1,1l-8,2l1,2l-8,2l-8,4l-3,4l-1,1l-4,2v1v-1l-3,-2l4,-4l-2,-4l-3,-19v-1Z"/><path class="DC" d="M1015,356v-1h-1v-1l-2,-1l2,-1Z"/><path class="DE" d="M1041,328v-1v1ZM1043,322l-1,1v1l-1,2v6l6,4l4,10l6,2l-1,6l3,3h-1h1h-1l-13,3l-5,-17l-4,-17h-1h1l3,-5Z"/><path class="KY" d="M754,457h-2h2ZM854,374l4,1l4,7h8l5,3l2,-3l8,2l6,-5l1,5l6,3v1l4,11l1,2l2,2l3,4v1v-1v1h2v1v-1v1l3,1h2l-10,11l-6,6v1v-1v1l-6,8l-12,6l-20,2l-19,2l-25,1l-28,4l-4,-1l1,5l-31,2l4,-2l1,-12l-2,-1l5,-6h1h-1h1l10,4l1,-10l8,-3l-3,-5l3,-4l2,-4l4,2h1h-1h1l1,-2l5,-1l5,3l8,-5h1h-1h1l3,3l4,-7l3,1h1h-1h7l1,-7l8,-7v-8l5,1l6,-3v-10h1Z"/><path class="MA" d="M1133,253h1l-6,3v-3ZM1142,241h-1h1ZM1127,245h0ZM1141,241v-1v1ZM1118,232h0ZM1118,226v-1v1ZM1121,220h0ZM1116,216v1v-1ZM1133,246l-5,5l-1,-6l-3,4v1v-1v1v-1l-5,4v1v-1l-2,-4l-1,-1l-5,-4v-3l-9,3l-19,4l-15,2v1v-20l16,-4l24,-5l1,-4l6,-3h1v2v-1l3,4l2,-1v1l-2,3l-1,2v1l-1,4l-1,1l2,1v-1l4,1l3,5l5,6h4l7,-4l1,2l-1,-1v1h1v2l-9,3v1Z"/><path class="MD" d="M1041,375h0ZM1041,375h1h-1v-1ZM1041,375l-1,-1h1ZM1040,374h1h-1ZM1041,375v-1h-1h1l1,1ZM1056,370h-1h1ZM1056,370v-1v1ZM1024,371h-1h1ZM1035,366h-1h1ZM1059,364l-1,5v1v-5l1,-1v-3v2ZM1034,366h0ZM1036,366h-1ZM1035,366h-1h1h-1v-1v1ZM1059,359h-1h1ZM1059,361v-4ZM1033,349l1,1l-1,1h-1v-1ZM1026,346h1l-1,1ZM1059,359h-1l1,2v-1v4l-1,1l-3,4v2l-5,2h-1l-4,2v1v-1l-1,-4l-2,-1l2,-3h-8v-1l-2,-1l-2,-5l3,-5h-6l4,-2l-1,-2h1l1,-1l-1,-1l1,1l-1,-1l-1,1v1v-1h-1l-1,-1v-1l1,-1l-3,-3l3,-8h3l-1,-6l-3,4l-3,5v7h-1v1l1,4l-2,1l4,16l5,3l-3,2h-1l-6,-2h1h-2l-1,-1l-4,-2l-3,1h-3l1,-7l1,-1v-1l1,-1v-3l-1,-4l-2,1l-1,-1v1v-1v1l-9,-4l1,-3l-5,-1l-3,-5h-1h1h-1l-2,-2l-4,-2l-5,3h-1l-1,2h-7v-1v1h-1l1,-1l-1,1l-2,5h-1h1h-3l-1,2v1v-1v1l-2,2l-3,4l-3,-14l21,-5l33,-5l22,-5h1l4,17l5,17l13,-3h1v1Z"/><path class="NC" d="M1010,499h-1l-1,1v-1h2l2,-1ZM1020,496h1h-1ZM1021,494v1v-1v1ZM1022,492v1l-1,-1ZM1022,493v2v-4v1v-1h1ZM1021,491h0ZM1021,491v-1v1ZM1023,491v-3v2ZM1023,488v-1v1ZM1034,474h-1v1l-1,1h-1h1l1,-1v-1ZM1034,474h-1l1,-1ZM1034,473h0ZM1034,473l1,-1l-1,1ZM1035,472h0ZM1035,472h0ZM1048,468h1h-1h2h-2ZM1045,468h1v1l-9,2l1,-1l6,-2ZM1048,468h-1h1ZM1047,468v-1h1v1ZM1045,468v-1h1v1ZM1050,468v2l-1,-1l1,1v-2l3,-5ZM1054,461l-1,2v-1ZM1043,463v-1v1ZM1054,459h0ZM1054,459h0ZM1054,459v-1v1ZM1051,449h1h-1ZM1066,436l-1,-3l1,3l2,3v9l-5,3l5,-4ZM1057,429v1h-1v1v-1h1ZM1060,427v1l-1,-1ZM1056,424v-2v2ZM1056,421h-1ZM1037,425h-1v-1v1ZM1056,420v1v-1h-1ZM1054,416v1l-1,-1ZM1053,414h0ZM1053,414h-1h1ZM1053,413v1l3,6l4,7l4,6h1h-1l-2,-2v-1v1v-1l-2,-2v-1v1v-1h-1l-3,-6v-1v1v-1l-2,-3v-1v1v-1h-1h1h-1v-2ZM1052,414h1v2l-3,-2h1ZM1053,422l-4,5l-7,4h-4l-1,-6l-1,-1v1l2,9l7,-1l8,-3l2,9l1,-8v-1h1v-1l4,6l-1,5l-4,6l-4,3h-3h1h-12l8,2v6l-3,6v-1l6,-5l4,1v1v-1v4l-3,4l-2,1h-1v1h-1v-1h-1v1h-1l-6,2l-1,1h-1v-1v1l-3,3v1l-1,1h-1h1l-6,6l-3,5v3l-1,1v1v-1h-1v-1v6h-1l-8,2l-2,1h-2v1v-1h-1l-24,-18l-5,-3l-25,4v-3l-7,-5l-29,3h-2h1h-1l-6,3l-1,1l-8,4l-11,2l-16,2v-7l4,-1l1,-6l6,-5h5l13,-10v-1v1v-1l-1,-1l7,-5l2,2l4,-4v-1v1v-1h6l4,-7l1,-1v-1v1v-2l1,-3v-2h7l22,-2l13,-3l35,-6l8,-2l17,-3l21,-5h1l5,7l1,1v2l-3,-2Z"/><path class="NJ" d="M1064,330v1v-1ZM1064,330h0ZM1066,328h0ZM1066,327v1v-1ZM1066,328v-1v1ZM1065,328h1h-1h1h-1v-1ZM1066,327v1v-1ZM1066,328v-1h1l-1,1ZM1067,323h1h-1ZM1068,323h0ZM1068,323h0ZM1070,317h1l-1,1l-2,6v1v-2l1,-2v-2l1,-1ZM1044,321l1,-1l-1,1ZM1048,316l1,-1l-1,1ZM1047,334l-5,-3l-1,-3v-2l1,-2v-1l4,-4h1l1,-1v-2l1,-1l7,-6l-13,-9l-1,-11l2,-5l4,-8l18,6v9l-1,1h-1l-1,1l-1,4l8,4v15l1,1h-1v-2v3l-1,1v2l-2,2h1v2h-1l-1,1v1h-1v1h1l-2,3v-1v1h-1l-1,1h1l-3,11l-2,1v-8l-11,-2Z"/><path class="NY" d="M1077,291h-1ZM1074,292v-1v1ZM1075,291h0ZM1078,290h0ZM1075,291h0ZM1077,291v-1v1ZM1076,291v1h-4h2l1,-1h1h-1h1ZM1076,291h1v-1v1ZM1071,292v-1v1h1ZM1074,291h0ZM1078,290h0ZM1071,292v-1v1ZM1070,292h-1ZM1077,290v1h-1v-1ZM1078,290v-1v1ZM1079,289h0ZM1080,289h-1ZM1070,291h1v1h-1ZM1065,292l1,1l-4,4l1,-4l1,-1ZM1083,288l-3,1l-4,3v-1h1l2,-2h1v-1ZM1090,283l-1,1l-5,4h-1h1l5,-4l2,-2ZM1070,284h0ZM1099,272h1h-1v1v-1h-2h1h-1v-1h1ZM1098,271h-1v1l2,1l-1,-1h1v1l1,-1h2l-2,4l-9,6l-2,2l-9,4l-1,1h-1l-1,1h-1v1v-1l-2,2v-1l-1,1h1h-3h1l-1,-1h-1l-1,1h1l-4,1v-3l1,-2l1,-1h2l3,-4l10,-3l-1,-1l8,-2l7,-6ZM952,246h2v2h-1l1,1ZM1002,209h0ZM1000,210v-1h2v1ZM999,209h0ZM999,209h0ZM1072,281l-2,3v3h-2l-1,1l-1,2v1v-9l-18,-6l-1,-2h-3l-5,-4l-1,-4l-1,-1l-2,-1l-3,-2l-2,-1l-23,5l-40,8l-22,4h-4l-1,-7l12,-10l4,-7l-2,-5l-1,-1h1v-2h-2l-2,-6l12,-5l14,-1l5,2l11,-3l5,-2l3,-8h4l-2,-10v-4h-2v1v-1h-1l-1,-4l9,-8l8,-15l8,-6l9,-1l20,-5l1,10l3,6v10l3,10v3l1,-2l3,2l3,17l2,5v20l3,19l2,4l-4,4l3,2Z"/><path class="OH" d="M927,282l3,17v6l3,14h-1v13l-2,8v9l-9,9l-3,-2l-5,6v8l-3,3l-2,-4l-2,5l1,8l-3,4l-6,2v-1l-6,-3l-1,-5l-6,5l-8,-2l-2,3l-5,-3h-8l-4,-7l-4,-1h-7l-1,-26h-1l-4,-42l-1,-4l27,-5v1v-1h1h-1v1h1l13,2l-3,4h8l11,-4l9,-2l2,-5Z"/><path class="PA" d="M1046,319l-1,1l1,-1ZM940,271l1,7h4l22,-4l40,-8l23,-5l2,1l3,2l2,1l1,1l1,4l5,4h3l1,2l-4,8l-2,5l1,11l13,9l-7,6l-1,1v2l-1,1h-1l-3,3l-4,-1l-3,5h-1l-22,5l-33,5l-21,5l-22,3l-4,-25l-3,-14v-6l-3,-17l13,-11Z"/><path class="RI" d="M1114,256v-1v1ZM1116,254v1v-1ZM1115,254h0ZM1115,256h-1h1h-1h1l-1,-1v-1h1ZM1116,251h-1l1,-1ZM1117,252v1h1v1l-2,1l-1,1l1,-1v-5h1ZM1119,253v1h-1v-1h-1v-4ZM1116,248v2l-2,4v5l-8,3v-7l-4,-11l9,-3v3Z"/><path class="VA" d="M1051,411v-1v1ZM1048,399h0ZM1048,399h0ZM1039,399h-1ZM1050,396v1v-1ZM1050,396h0ZM1050,396h-1h1h-1h1v-1v1v-1ZM1050,393v1v-1v1h-1v-1ZM1049,393h-1l1,1v-1v4v-1h-1v-3ZM1050,394v-2v2ZM1050,392v-1v1ZM1051,391l-1,1v-1ZM1051,392v-2h1l-1,1ZM1048,391v1h1v1h-1v-2h1ZM1018,397h1h-1ZM1051,390h0ZM1052,388v2h-1v-2h1v-1ZM1053,384l-1,2v1h-1v-1h1v-2ZM1043,379v-1v1ZM1043,379v-1ZM1055,374h0ZM1055,374h0ZM1055,374h0ZM1055,374h0ZM1055,373v1v-1ZM1041,375v1v-1ZM1057,371v2v-1v1h-1v1h-1v-1h1ZM1047,379l1,-1h1l1,-5h-1h1l5,-2v3v-1v1h-1v1v-1h1v1v-1v1l-3,8l1,1h-1v-1v2v-1v2h-1v1v-1v1v-1v1h1v1h-1v-1l-2,1l-1,3v6l-3,-2l2,-13v-2ZM1058,370l-1,1v2l-2,2l1,-1v-1h1v-2ZM1036,386l-1,1l3,3l-1,6v1l1,2h1h-1h1h-1h1l-1,6l-13,-8h-7h1h-1l7,3h7v4l17,1l2,5l2,3h-1h1h-1h1h-1v-1l-1,-1v-1v1l-1,3h1h-2l-21,5l-17,3l-8,2l-35,6l-13,3l-22,2h-7v1v-1l-33,5l-12,2l12,-6l6,-8v-1v1v-1l6,-6l10,-11h1v1v-1v1l-1,1v1v-1v1l2,1h-1h1h-1h1h-1h1h-1h1v2h1h-1h1l8,2v-1v1v-1h1v-1v1v-1h6l14,-9l6,-5l-1,-6l5,-9l3,-8v-1l1,-4h-1h1h-1h1h-1h1l8,2l1,-5l3,-7l3,1l2,-5l3,-2v-1l3,-5v-9l13,8l1,-6l5,1l-1,3l9,4v-1v1v-1l1,1l2,1v1h1h-1h1v4l-1,1v1l-1,1l-2,7h4l3,-1l2,5h5l4,4h6l1,9Z"/><path class="WI" d="M780,210h0ZM780,210h0ZM787,205h0ZM787,205h0ZM708,166l1,1v5l7,4h1h-1h2l1,1h1l1,3h1h-1h1v2l19,3l8,4h8l5,1l3,4l3,3v8l-1,1h1h-1h1l4,-1l-1,6l3,2l-5,4l-2,12l5,-3l2,-6l5,-1v-5l7,-8l-1,6l-7,14l-3,14v14l-3,7l1,11l3,5v9l-58,3l-1,-3l-8,-3l-4,-16v-5h-1h1l-2,-9l-4,-5l-8,-4l-3,-6l-12,-5v-1v1v-1l-4,-5v-14l2,-4l-5,-3l3,-9l5,-3l3,-2v-17h1l1,-1v-1l1,-1h1v1v-1h-1h1v1l1,1h5l17,-9ZM710,165v1h-2Z"/><path class="MI" d="M872,288h0ZM873,287h-1v-3l1,1ZM876,279h-1h1ZM880,271h-1h1ZM880,270v1v-1ZM880,272v-1h1v-1h2l-3,2v-1ZM880,270h-1h1ZM880,271h-1v-1ZM880,270h1v1h-1v1v-1ZM815,215h0ZM860,205h-1h1ZM860,205h0ZM822,189h0ZM822,189h-1h1ZM858,204l1,1l-4,2l5,7v10l-4,3v6l-6,3v8l6,2l4,-5v-2l3,-5l9,-3l5,6l3,17l3,4v12h-3l-3,2l-1,7h-1l-3,5v5l-5,8l-27,5l-9,-1l-33,4l4,-4l6,-16v-13l-10,-22l2,-6l-2,-5l4,-7v-9l3,-4l-1,-4l6,-2l4,-6l-1,10l2,-2l2,-1v-12l8,-2l-4,-3l1,-8l6,-1l4,2h7l2,4h4l10,4ZM845,181h0ZM845,181h-1h1ZM838,181h0ZM833,181v1v-1ZM835,181l1,1h-2h1v-1h-1h1ZM847,178h0ZM846,178h0ZM847,178v-1v1ZM844,178h0ZM846,178h0ZM844,178v-1v1ZM849,181h-1h1h-5l3,-3l-1,-1l3,-1ZM836,175v-1h1ZM837,171v3l-1,-3ZM837,171l-2,-1v-2h-1v-1l3,-1ZM789,172v1l-1,1l-1,-1ZM774,171l-1,-1l1,1ZM749,155l2,3h1v2h1v8l3,-5h8l6,3l3,4l1,1l13,2l1,1l1,-1v-1l7,-5l14,-2l5,-3h4v7h12l3,-2v1h1v2l1,1l1,3h-1v1l7,6h-8h1h-2v1v-1v1h1h-2v-1h1h-1h1h-7l-1,5l-8,-5h-7l-2,4l-13,2l-4,4l-5,-1l-7,7l-6,16l-3,-2l1,-6l-4,1h-1h1h-1l1,-1v-8l-3,-3l-3,-4l-5,-1h-8l-8,-4l-19,-3v-2h-1h1h-1l-1,-3h-1l-1,-1h-2h1h-1l7,-3l3,-4l12,-4l5,-3ZM763,147l2,2l-8,6l-4,7v-2h-1v-2h-1l-2,-3l6,-6ZM736,138h0ZM736,138v-1v1ZM741,136h1h-1ZM744,134h-1ZM748,131h0ZM749,131h-1h1ZM747,130v-1h1h-1ZM747,130l1,-1l1,2h-1l-4,3h-1l-1,2h-1l-5,2v-1h1h-1l11,-7Z"/><path class="HI" d="M376,730l12,5l8,6v4l7,5v3l-8,4l-4,1l-7,5l-2,4l-7,-3v-10l-4,-11l6,-5ZM346,711l5,5h-5ZM357,709l3,2h6l6,4v3l-7,3l-4,-1v-4l-7,-3ZM339,703l14,2l-2,3l-14,-1ZM323,701h0ZM321,700h0ZM329,701h-6l-2,-1l-4,1l-5,-8h5l4,-3l3,7ZM283,675l2,8l-6,2l-5,-3l2,-6Z"/><path class="ME" d="M1122,190h-1v1v-1ZM1121,190h0ZM1122,190h-1ZM1121,190h0ZM1123,187l-1,1h1h-1v-1ZM1129,185h0ZM1129,185h0ZM1122,187v1h-1v-1h1h-1ZM1127,185h0ZM1126,185h0ZM1123,185h0ZM1123,185h0ZM1132,183h-1ZM1130,183h-1h1v-1ZM1137,179h0ZM1137,179v-1v1ZM1135,179h0ZM1130,180v2v-2ZM1136,179v-1v1ZM1136,179v-1v1ZM1135,179h-1v-1l1,1h-1h1ZM1136,177v1v-1ZM1134,177v1v-1ZM1141,175h0ZM1141,175h0ZM1130,180h-1v1h1h-1v1h1h-1v1v-5v1h1ZM1141,175h0ZM1140,175h0ZM1135,176v1v-1ZM1135,176h0ZM1135,176h0ZM1146,172h-1h1ZM1149,170v1v-1ZM1149,170v1v-1ZM1144,172v-1v1ZM1126,178v-2v1ZM1149,170v1ZM1149,170h0ZM1145,171h1h-1ZM1154,168v-1v1ZM1149,170h0ZM1146,172h-2v-1h-1l1,-1l1,1h1ZM1154,168v-1v1ZM1145,170h0ZM1145,170v-1v1ZM1151,167v-1ZM1153,166h0ZM1145,169v1v-1v1h-1l-1,1ZM1151,166h1h-1h1v2l-1,-1v1v-1ZM1153,166v-1v1ZM1151,166h-1ZM1144,167h0ZM1148,166h0ZM1149,166h0ZM1149,166h0ZM1148,166h0ZM1144,167h0ZM1154,163h1h-1ZM1155,163h-1ZM1148,165v1v-1v2v-1h1h-1v1h1l-1,1l-2,-1v-1ZM1150,163h0ZM1158,160h0ZM1158,160h-1h1ZM1143,163v1v-1ZM1150,162v1v-1h-1h1v-1ZM1149,162v-1v1ZM1142,167v1v-1l-1,-1v-2ZM1155,159v-1v1h1ZM1152,158l2,1l-1,4h-3v-3l1,-1v-1ZM1155,158v-1ZM1160,157v-2v2ZM1141,162v-1v1ZM1161,155v-1h1ZM1166,153h1h-1h1h-1ZM1167,153h-1h1ZM1160,154v-1v1ZM1164,152h-1h1ZM1142,158h1v1h-1v-1ZM1167,150h0ZM1167,150h-1h1ZM1169,149h0ZM1168,149h0ZM1169,149h0ZM1168,149h0ZM1129,185l-3,-5v-4v4l3,5h-2l-1,-1v1v-1v1v-1v1h-1h1h-1h1h-1v2v-2l-1,2h1h-1v-3v1h-1l1,-1l-3,3v1l-1,1l1,1v3l-3,7l-2,9h-1l-1,-1v-1v1v-1l-3,-4h-1h1h-2v-1v1v-1l-1,-2v-3l-5,-12l-4,-16l-7,-18v-1l5,1l1,-11l4,-4l-1,-18l2,-2v-11l6,-15l1,-5l5,-3l1,6l3,1l5,-5l7,-4l10,5l3,13l5,15l2,10h7l6,11l4,-1l4,5l-1,2h-1h3v-1v1l1,2l-6,5v2h-3v3h-1v1v-1h-1l-1,2h-1l-1,-1v4l-2,3h-1l-1,-1v-1v1v-1h-1v-1h-1l-2,1h-1v1l-2,2v5l-1,-1l-2,-1h-3v-6h-1v1l-1,2v13l-1,1l-1,2h-1v1v-1h-3v-1l-1,1v2v-1v1l-1,3l-2,1h-1h1h-1v-4l-1,-1v1v-1v4v-1v2h1l-1,2Z"/><path class="MN" d="M730,135l-1,1h-2l-5,5l-8,2l-11,7l-7,11l-12,11v1l1,1l-1,-1v-1h-1l-2,2v1h-1v17l-3,2l-5,3l-3,9l5,3l-2,4v14l4,5v1v-1v1l12,5l3,6l8,4l4,5l2,9h-1h1h-1l-34,2l-21,1h-50v-29l1,-1v-21l-5,-3l-3,-7l4,-2l2,-10l-3,-9v-1l-1,-1v-2v1v-1l-1,-2v-6v1v-2h1h-1h1l-1,-2l-1,-1v-1h1h-1h1v-1h-1h1h-1v-1h1h-1h1h-1h1v-1h-1h1h-1v-1h1h-1h1h-1h1h-1h1h-1h1h-1v-1v1v-9v1v-3v1v-1l-1,-4v-1h-1h1h-1v-2h-1h1h-1l-3,-10l1,-1v-2v1v-2v1v-4v1v-7v1v-1l1,-1l-1,-2v-1h-1h1h-1v-3h-1h1h-1v-3h39v-10l6,1l3,16l8,3h8v3l12,-4l13,5l2,7l2,-4l11,4l3,4l7,-3l6,-4l2,5l14,-1l1,2Z"/><path class="NH" d="M1116,209h0ZM1108,200l1,2v1v-1v1h2h-1h1l3,4v1l1,1h1l-1,6h1h-1l-6,3l-1,4l-24,5l-1,-1l-2,-11l1,-17v-17l6,-5v-6l-1,-10l1,-8l4,-1v-1v1l7,18l4,16l5,12Z"/><path class="OR" d="M46,185v-1h1ZM47,184h-1h1ZM46,184h0ZM46,184h0ZM47,184h-1h1ZM51,176l-1,-1h1ZM70,124h1h-1ZM87,115v1l-1,-1ZM79,112h1h-1ZM78,111h1h-1ZM78,111h0ZM78,111h0ZM80,112h1h-1v-1ZM80,111v1h-1v-1h1h-1ZM81,111v1h-1v-1v1v-1ZM78,111v1h3v-1h2v1l1,1v1l1,1h1l1,1v-1h1l5,4v14l4,2l2,2l9,-2l8,1l5,5l13,-1l2,2l19,-1h13l37,9l1,5l4,4l1,4l-11,15l-1,1l1,-1l-1,1l-11,13l3,5l2,5l-5,8l-10,49l-37,-8l-23,-6l-19,-5l-42,-13l-23,-5v-1l-1,-2v-11l2,-2l-1,-10l3,-2l4,-9l5,-1v1v-1v1l1,-1h-1h1h-1l-1,-3l5,-6l1,1v-1h-1l3,-6h1h-1l2,-9l5,-9v-4l5,-9l2,-9l3,-5h1h-1l1,-8l3,-5ZM80,111h1h-1ZM84,112v1l-1,-1h1ZM82,111h0ZM82,111h-1ZM80,111v-1v1ZM82,111h0ZM83,111h1l-1,1ZM82,111h1ZM74,108h-1Z"/><path class="WA" d="M84,114v-1v1h1v1h1h-1l-1,-1v-1ZM84,113v-1v1ZM76,102h-1h1v1l-1,2v-3ZM78,91l1,-1l-1,1ZM81,90h1h-1ZM105,91h1l-1,1ZM105,91h-2l1,-1h1ZM101,90l-1,-1v-1h1ZM105,89l1,1h-2ZM106,88l1,1v1h-1ZM102,88v2h-1v-3l1,-1h1v1ZM103,86h0ZM103,86l1,-1l-1,1ZM109,88v-2l1,-1v-1l1,-1ZM111,80v1v-1h-1v-2l1,-1h1ZM120,71h0ZM111,68h0ZM75,54v-1v1ZM116,59l1,3l-3,7h3h-4l-1,-7l3,-4l1,1v-1ZM112,55h1ZM110,53h0ZM110,53v-1v1ZM112,55h1h-3l1,-2l1,-1ZM114,52v2h-1v-2ZM118,55h-2v-1l1,-1ZM111,51v1h1h-1v1v-1h-1v-1v1v-1ZM109,50h1v1h-1v-1h1ZM108,50h1v1l1,1v3l-3,-4v-1v1v-1ZM108,48h-1h1ZM107,48h1v1l-1,-1ZM115,50h0ZM115,50h0ZM114,52h-3h1h-1v-1h-1v-1v1v-1l1,-1ZM117,50l1,1v1h-1v-3ZM115,58v-2l1,-1h1l1,1l3,-1l-3,-5h-1v-1l1,-7l18,5l23,7l25,5l11,4l25,5l-7,33v5l-5,17l-3,13v14l-37,-9h-13l-19,1l-2,-2l-13,1l-5,-5l-8,-1l-9,2l-2,-2l-4,-2v-14l-5,-4h-3v-1l-1,-1v-2h-2l-2,-1l-6,-2l-1,-1l2,-5v3l1,-2v-1l2,-5l-1,-7v1h1l1,-1h3h-1l-4,-4v-23l-2,-9v-1l2,-6l3,2l8,8l7,2l11,6l5,-1v8l-6,3l3,2l4,-6v6h-1l-1,1v2h1v3l-1,1v1l-1,1v1l-2,2l-1,-1v-2l-1,3l-1,1l-1,-2v-1l1,-2l-1,1h-1h1h-1l-1,1v1h-1v1l1,1h1l1,1l2,1l4,-4h4l1,-7v1v-1l1,-6l5,-4l-1,-6l-2,4v-11h-1Z"/><path class="AK" d="M-26,764h0ZM-21,766v-1ZM-19,765h1v1h-1ZM-18,765v1v-1h-1ZM-26,764h0ZM-16,765h-1h1ZM-21,765v1l-2,-1v-1v1v-1v1v-1ZM-17,763v1v-1v1v-1v1h-1ZM-6,766v1v-1h-2v1v-1l-6,-1h5l1,1v-1v1v-1ZM25,767h0ZM19,767v-1h1ZM25,767h0ZM25,767h0ZM20,766h-1h1ZM29,767h0ZM29,767h0ZM25,767l8,-5v3l-8,2ZM44,762h-1v1v-1h-1h1v-1l1,1v-1ZM41,761v-1v1h1ZM43,761v-1v1ZM41,760v1h1l1,-1v1h-1v1h1v1l-5,2h-5v-1l6,-2ZM65,759h0ZM65,759h0ZM63,759h0ZM63,759h0ZM233,739h0ZM233,739h0ZM240,736h0ZM232,738h0ZM84,756h0ZM231,739l1,1l-1,-1v-1ZM237,736h0ZM232,738v-1v1ZM84,756h0ZM237,736h0ZM66,754h0ZM230,738v1v-1ZM66,754h0ZM239,735l1,1h-2v-1v1v-1h1ZM235,736h0ZM235,736h0ZM61,752v3h1l-10,3l3,-5ZM229,737v-1v1ZM229,736v1v-1ZM70,752l1,1h-2v-1v1v-1ZM230,736h1v2l-1,-1v-1ZM229,736h0ZM231,735h0ZM83,754v1v-1v1v-1h-1h1h-1v-1h1ZM229,736v1h-1h1l1,1v1h1l1,1h-2v-1l-3,-3h1ZM229,736h-1h1ZM236,733h0ZM237,733h1v2l-1,1v-2l-1,-1h1h-1ZM63,751l1,-1ZM236,733v-1v1ZM226,736h1v1ZM229,735h0ZM77,752h0ZM229,735h-1h1ZM228,735h-1h1h-1ZM233,733h0ZM233,733h-1h1ZM77,752l-1,-2ZM226,735h0ZM235,732h1v3h-1h1h-1v-3ZM226,735h0ZM225,735h1v1ZM228,734h0ZM228,734h-1h1ZM227,735h-1ZM239,730h1l-1,1h1h-1ZM227,734v-1v1ZM234,731h0ZM234,731h0ZM226,734v1h-1v-1ZM234,731v1v-1ZM78,749v1v-1ZM224,734h1v1h-1ZM235,731h0ZM235,731h0ZM226,733v2v-1h-1ZM235,731h0ZM235,731h0ZM227,733h0ZM227,733h0ZM227,733h0ZM230,731h-1h1ZM226,732v-1v1ZM84,748h0ZM85,748h-1ZM224,731v1h1v-1v1h-1h1l-2,-1h1v1ZM233,728h0ZM86,747l-1,1v-1ZM225,731h-1h1ZM225,730v1v-1ZM234,727v1v-1ZM225,730v1v-1v1h1h-1ZM231,728h0ZM225,730h0ZM225,730h0ZM225,730h0ZM225,730h0ZM225,730h0ZM225,730h0ZM236,726l1,1h1v1h1v2v-1v4l-1,-1l-1,1v-2h-1v1l1,1h-1v-1h-2l1,-1l-1,-1v-1v1v-3h1v-1v1v-1ZM225,730h-1h1v1h-1v-1v1v-1ZM224,730h0ZM224,730h0ZM235,727h-1l1,-1ZM231,727h0ZM99,746h0ZM231,727h-1h1ZM226,728h1h-1ZM231,727h0ZM98,746h1h-1h1ZM229,727h-1h1ZM99,746h0ZM231,727h0ZM231,727v-1v1ZM231,726v1h1h-1h1h-1ZM99,746h0ZM226,727h1l-1,1v-1v1ZM223,728h1l1,1v1h-1l-1,1h-1v-2l1,-1ZM225,727h0ZM225,727h1h-1ZM226,726v1h-1v-1ZM220,728v-1v1ZM228,724v1h1v1h1h-1h2v1v-1v1h-1v-1v1h1v1v-1v1v-1v1h-1l-1,-1h-1v1v-1h-1v-1l1,-1ZM225,726v1h1h-1l1,1h1l3,3h-1h1l2,1h1h-3v1l1,-1h1v1h-1h2l1,1l-1,1h1v-1v1h1l-1,1h1v1l-1,2h-1h1l-1,-1h-1h1l-1,-1v1v-1v1v-1l-1,-1v1v-2v1h-3h1h-2v-1h2h-1v-1h-1v-1h-2v-1h1v-1l-1,-1v-1l-1,-1h-2ZM219,727h0ZM228,724v1h-1l1,-1h-1ZM219,727v-1v1ZM219,727h-1h1ZM226,724h1v2h-1v1v-1v1v-1h-1v-2ZM219,727v-1v1ZM224,724v1v-1ZM218,727h0ZM218,727h0ZM218,727h0ZM218,727v-1v1ZM230,726h-1v-1l-1,-1h1h-1v-1h1v1h2v2v-1v1v-1v1h-1ZM227,723h0ZM227,723h0ZM224,724h0ZM224,724h0ZM227,723h0ZM228,723h-1h1ZM227,723h0ZM113,742v-1v1v-1ZM113,741h0ZM224,723h1v1h-1ZM228,722v1h-1v-1ZM113,741v1ZM227,722h-1ZM226,722h0ZM227,722h1h-1ZM113,740h1h-1h1h-1ZM213,726h0ZM223,722h-1h1ZM223,722h-1h1ZM213,726v-1v1v-1v1v-1ZM224,721l2,1h1v1l-1,1h-1v-1l-1,-1ZM217,723h0ZM217,723h0ZM219,722h0ZM218,722h-1h1ZM217,722h1ZM219,723h1v1h1h-1h1v1l-1,1l1,1h-1v4l-2,-4h2h-1v-1h-2h1v-1h-1h1h-1h1h-1l-1,-2h1h-1h1h-1h1v-1v1v-1h1l1,1v1ZM219,722h-1h1ZM100,737v-1v1ZM100,736h0ZM100,736h0ZM223,719l1,1v2l1,1h-2v-1h-1h1v1h1v2h-1l-2,1v-2h-1v-1v1v-1l-1,-1h-1ZM211,723v-1v1ZM211,722v1v-1v1v-1v1ZM211,722h0ZM211,722h0ZM211,722h0ZM211,722h0ZM118,735h1l-2,1ZM210,722h1h-1h1h-1h1h-1v-1ZM211,721v1h-1v-1ZM218,718h0ZM218,718h0ZM209,721v-1l1,1v1v-1h-1v-1ZM209,720v1h1v3l-2,-4h1v1ZM101,733h0ZM101,733h0ZM220,716h0ZM217,716v1v-1ZM214,718h0ZM214,718v-1ZM214,717h0ZM114,732l1,1h-1ZM214,725v1h-1h1h-1v-1h1h-1h1h-2v-2h-1v-2h-1l-1,-1v-1l1,-1h1l2,2l1,2v4ZM206,719h0ZM206,719h1h-1ZM208,717l1,1l-1,-1ZM205,718h1h-1ZM117,730h0ZM117,730h0ZM218,714l-1,-1h1ZM123,729h0ZM123,729v1v-1ZM123,730h-1v-1h1ZM214,713h1h-1l1,1h-1ZM122,728h0ZM119,728h-1h1ZM122,728h0ZM117,727l1,1v1h-1l-1,-1ZM118,727v1h4v1h1h-1h1h-1v2v-1v1l1,2l-4,2h-1l-1,1l-3,4h-1v-3l-3,-5l3,-1h1v2h1l-1,-1v-2l2,-2v2h1h-1h1v-1h1v-1v1v-2h-1ZM119,727h1h-1ZM109,727h-1h1ZM203,714l1,1v1h-1ZM119,727h-1v-1ZM203,713h0ZM203,713h0ZM210,711h-1h1ZM203,713h0ZM203,713h0ZM207,714l1,-1h1l2,5h-2l-1,-1l1,1v2h-1l-1,-1h-1v-1h-1v-1v1v-1l-1,-1v-1l-1,-1v-1h2v-1l3,1v-1v1l-1,1ZM205,712v1h-1v-1h1ZM211,710h0ZM214,710h-2ZM120,724h-1ZM211,710v-1v1ZM206,710l1,1h-1ZM210,710h1h-1h1l1,1l2,-1v2h1v2v-1h-1v-2v3v-1v1h1l2,2v1l1,1h-2l1,1l-3,3v-5v1v-1l-2,-6h-2v-2ZM122,723h0ZM122,723h1h-1ZM121,723h-1h1ZM210,709h-1h1ZM121,723h-1h1ZM123,723l-2,4h-2l-1,-1l1,-2h1v-1h2h-1l1,1v-1h1ZM211,709v1h-1v-1ZM205,710h-1h1h-1h1ZM205,710h0ZM205,710h0ZM205,710h0ZM205,710v-1v1ZM204,709v1v-1ZM204,709h0ZM204,709h1h-1ZM204,710l-1,-1h1ZM203,709h0ZM203,709h0ZM121,722v-1v1v-1v1v-1h1v2h-1v-1ZM209,707h0ZM204,709h0ZM204,709h-1h1ZM203,709h0ZM203,708h0ZM203,708v-1v1ZM208,705h1h-1ZM204,706h0ZM207,705h-1v-1v1ZM206,703h0ZM129,714v-1ZM125,712h0ZM125,712h1h-1ZM184,704v1v-1ZM184,704h0ZM184,704h0ZM184,704v-1v1ZM184,704v-1v1v-1ZM184,703h0ZM184,703h0ZM184,703h0ZM135,710h0ZM135,710h0ZM184,703h0ZM135,710h0ZM184,703v-1ZM63,706v-1ZM146,707h0ZM134,708v-1v1ZM136,707v1v-1ZM175,702h0ZM161,704h-1h1ZM143,706l-1,1v-1v1v-1h1ZM160,704v-1v1ZM143,706v-1ZM143,706h-1v-1h1v1v-1v1h-1ZM142,704v2h-1h1h-1h1v-1v1v-1l-1,1v-1v1v-1h1ZM73,703h1l-1,1v-1ZM157,702h-1h1ZM157,702h1h-1ZM143,703v1v-1ZM146,703h-1h1ZM146,703h-1ZM156,702h0ZM156,702h-1h1ZM156,702h0ZM156,702v-1v1ZM155,701h1l-1,1v-1h1ZM156,701h0ZM156,701h0ZM146,707v-4ZM142,702h1v1h-1v-1v1ZM153,701v1v-1h-1ZM156,701h0ZM156,701h-1ZM157,700v1v-1ZM58,703h-2h1h-3l-5,-4l6,-1ZM156,700h1h-1ZM156,700v1v-1ZM157,700h0ZM157,700h0ZM157,700h0ZM157,700h0ZM157,700h0ZM157,700h0ZM157,700h0ZM157,700h0ZM157,700h0ZM157,700h0ZM157,700h0ZM157,700h0ZM157,700h0ZM156,700h0ZM144,701h0ZM157,700h-1ZM143,703v-1v1v-1h1h-1v-1h1v1h-1h1h-1h1v-1v1v-1v1v-1v1l-1,2ZM144,701h0ZM153,700l-1,1h-1l2,-1v-1ZM142,700h-1h1ZM145,699h0ZM139,700h0ZM145,699h0ZM142,699h1h-1h1v1h-1v-1v1ZM141,699h1v1h-1h1h-1v-1v1ZM143,698h0ZM143,698h1h-1ZM148,697h0ZM62,695v-1v1ZM148,697h0ZM148,697h0ZM62,694h1v2h1v1h1h-1h1h-1v1h-1v3l-4,-4l3,-2ZM67,695v1h-1ZM142,697v1h-1h1v-1h-1ZM147,696v1l-1,-1ZM59,689h0ZM64,678v1v-1ZM64,678v-1v1ZM64,677h1v1h-1ZM65,677h-1h1ZM65,676l1,1h-1v1v-1ZM65,676h0ZM67,674l1,2l1,1v2h-1l-3,-3l1,-2ZM67,674h-1ZM71,674v1v-1v1l-2,1h-1l-1,-2ZM40,663h0ZM39,662h0ZM39,662h-1h1ZM38,662h1l1,1l10,5l-5,1l-5,-5ZM60,645h-1v1v-1h1ZM85,646h0ZM85,646h1h-1ZM86,646h0ZM86,646v-1v1ZM65,642l-1,1h-1ZM66,642h0ZM66,642h0ZM66,642l1,-1l-1,1ZM67,641h0ZM67,641h1h-1ZM68,641h0ZM90,643h-1h1v-1ZM71,640l-1,1h-2h2ZM86,642v-1v1ZM80,637v-1v1v-1ZM74,629v-1v1ZM82,614v-1v1ZM82,613v-2ZM156,609l-2,-1l2,1ZM154,608h0ZM154,608v-1v1ZM145,608h-1h1ZM147,607h0ZM148,607v-1v1ZM148,607h-1h1ZM148,606h1h-1ZM136,607h0ZM136,607h0ZM136,607v-1v1ZM87,606v-1v1ZM137,606h0ZM137,606h0ZM133,606h1h-1ZM87,605h1l1,1h-1v-1h-1v1ZM135,605h0ZM135,605h0ZM125,606h-1ZM126,605h-1v1v-1ZM124,606h1v-1v1ZM125,605v1v-1ZM125,605v1h-1v-1ZM129,605h1h-1v-1ZM108,600v1v-1ZM110,599h0ZM110,599h0ZM110,599h0ZM205,710v-1h-1v-1l-1,-1l1,-1l-1,1v1l-3,-1h-1l4,2v1v-1v1h1v2l-1,1h-1v1l-1,-1l-5,-2l-5,-4h-1l-4,-1l-1,-1h-1v-5l-3,3l-6,-1h-8l-6,2h-1v-1l-2,-1l-1,-1v-1h-1v1h-1h1h-4l1,-1v-1l-1,-1h-2l-2,-1l-1,-1v1v-1h-1v1v-1v1h-2l-1,1h-1v-1h-1v1v-1v1l-2,2h2v-1v1l2,1v1h-1v3v-1v1h-1v1l-5,1v1v-1l-1,2v1v-1v1v-1v1v-1l-1,-2v3l-1,-1l-2,4v-2v2v-2l-2,2v1l-5,1l-1,-1h1h-1l3,-2l1,-1h-3l2,-11l9,-8l-8,3l-7,11h1l-4,5l-4,3v1l2,1l2,2l-1,3l-3,3h-1h1h-1h1h-1h1l-2,3h-3l-7,6h-1h1v2l-1,1v1h-1l-10,6l-2,3l-1,1h-2h1h-1v1v-1h-1l-5,2v1h-2l-3,1l-2,-2l-1,3h-1v1l-4,-2v-1v1l-3,4h-1v-3l2,-1l1,-1h1v-1l9,-4h2h-1h1l-1,1h1l3,2v-6l10,-5l5,-6l2,-6l2,-7l-5,2l-1,-4l-4,2l2,3l-8,-4h-3v1v-1l-5,2l2,-5l-3,-10l1,-1h-1l1,-3v-1v1l-2,5h-9v-7h1v-1h1l2,-1h-1h1v-1l-1,1h-2l-1,-1v-1h-1l1,-5h-4l-1,-4l6,-6v-1h1l1,-1l2,2h1v-2l-1,-1h1l2,-1v-1l6,-3h2h-1l1,1l6,-3l-2,-6l2,-5l-9,4l-2,-2h-8l-4,-3l1,-7l-5,-5h1h-1l1,1l2,-2h2v-1h1l1,-1l3,1l-2,-1l1,-1h3l1,-1l3,4l1,1l7,1v1v-1v1l1,-1l3,-1v1h-1h1v-1l-1,-3h1l3,1h1h-1h1v-1l-1,-1h-3v1h-1l-1,-4v-1h-4v-1v1l-4,-2l-2,-6v-1l-5,-7l1,-4l7,1l5,-4v-3l2,-2v-1v1v-1l2,-2h1v-1h1l-1,1h1h-1h1h-1v1l3,-1l1,-1h2v1v-1l3,-4l4,1l6,-5l1,1h1v3l2,-2l7,2l1,1v-1v1v-1v1v-1l1,3l2,1h3v1h1l1,-1h5l2,1h1l2,1h5l3,1h1l2,-1h1h-1h1v-1v1v-1v1v-1v1v-1h3l2,1l1,1l2,1h2l7,33l2,15l9,41l8,-2l1,4l9,5l2,3l4,-3l3,-8l4,4l10,6l9,8l4,6l12,2l2,7l-1,6l-4,-3v-1l1,-1v-1h-1v-2h-1v-1h-1l-1,-1h-1l-2,2h1h-1h1h-1h1v3l-3,-1v-2l1,-1l-1,-1v-2h-2h1h-1v-1h-1v-2v1h-2l-1,-2l-1,-1h-1h1h-2l-2,-1l1,-1l-1,-1h-1l-1,-2h1l-1,-1v1v-1h-1l-2,-1l-1,-1v-1h-2l-1,-1h-1v-1l-1,-1v-2h-2v-1l-1,-1v2h1l1,2v1v-1v1l2,2v1v-1v1h-2l-2,-1v1l-1,-1Z"/><path class="mesh" d="M739,460v1v-1v1h2h-1h1l-7,12l15,-1l1,3v-1v1v-1l-6,6l-2,9h-2h2l-1,2v6l-4,4v4v-1v1l-5,4v1v-1v1l-2,9l-3,6l-3,5l-3,6l2,3l-3,5v1v-1l2,1v1h-1l1,1v-2v6h1l-2,7l-29,1l-38,1v-15l-5,-1h-1l-1,1h-2h1l-1,-1v1v-1h-1v-1v1v-1h-1v-56l-4,-25l38,-1l62,-2ZM321,428v1l-3,14v7l-3,14v6l-7,50l-4,27v7l-3,14l-2,18l-48,-6l-81,-48l3,-6h5v-1v1v-1l2,-7l-3,-1v-10h2l4,-3l1,-9l2,-4l2,-2l3,-2l4,-1l-5,-6v-6l-3,-11l3,-4v-19l1,-1v-5l3,-2l6,1l4,4l4,-5l1,-10l3,-12l30,6l45,7l10,2ZM440,328l25,2l17,1l-2,28l-1,25l-2,19v14l-2,27l-21,-2l-42,-3l-44,-4l-3,-1l-44,-5v-1l1,-13l3,-14v-10l3,-20l3,-14l2,-20l2,-14v-6l30,3l30,4ZM704,262h1v5l4,16l8,3l1,3l5,4v4l5,3v9l-2,6l-7,4l-8,2v6l3,2v6l-3,7l-5,1l-1,7v1v-1h-1v1v-1h-1v-1v1v-1l-6,-5l-52,3h-32l-2,-5l-1,-12l-1,-3h1h-1h1l-1,-5l-3,-4v-10l-2,-2l-3,-4v-9h-2v-1h-1h1l-2,-4l-2,-2h1h-1h1l1,-2v-1v1v-1l2,-11l-2,-1v-1v1v-1l-1,-5h53l21,-1ZM776,286v7l4,4l4,11l1,16l3,34v17h-1h1h-1v4l3,7v1v-1v1l1,1l-3,9l-3,7h-1v1v-1v1h-1v1v-1v1l1,2l-1,1l-1,3l-1,4l1,1v1v-1v1h1l-3,4l3,5l-8,3l-1,10l-10,-4h-1h1h-1l-5,6l2,1l-2,-1l-5,-3l-2,-15l-8,-6l-9,-4l-4,-4v-5l4,-6l1,-7l-8,-3l-3,3l-2,-11l-8,-5l-7,-7l-4,-10l1,-8h1v-1l1,-7l5,-1l3,-7v-6l-3,-2v-6l8,-2l7,-4l2,-6v-9l-5,-3v-4l-5,-4ZM840,302l1,4l4,42h1l1,26h1h-1v10l-6,3l-5,-1v8l-8,7l-1,7h-7h1h-1l-3,-1l-4,7l-3,-3h-1h1h-1l-8,5l-5,-3l-5,1l-1,2h-1h1h-1l-4,-2l-2,4h-1v-1v1v-1l-1,-1l1,-4l1,-3l1,-1l-1,-2v-1v1v-1h1v-1v1v-1h1l3,-7l3,-9l-1,-1v-1v1v-1l-3,-7v-4h1h-1h1v-17l-3,-34l-1,-16h9l5,-3l33,-4ZM596,363v1v-1v1h27l7,2l2,3l-1,2h-1l-2,4l4,8l4,4h1h-1h2v61h-79l-46,-2h-14l-24,-2l2,-27v-14l2,-19l1,-25l45,3h35v1ZM703,349v1v-1v1h1v1v-1h1v1h-1l-1,8l4,10l7,7l8,5l2,11l3,-3l8,3l-1,7l-4,6v5l4,4l9,4l8,6l2,15l5,3l2,1l-1,12l-4,2l-1,1h-1l1,-1h-2l1,1v6h-3l2,4l-3,4l-15,1l7,-12h-1h1h-2v-1v1v-2l-62,2l-38,1l-1,-14v-61h-2h1h-1l-4,-4l-4,-8l2,-4h1l1,-2l-2,-3l-7,-2l-5,-8l-4,-7v-1v1v-1l-1,-1h32l52,-3ZM559,280l7,5l4,-3l6,1l4,-1v1v-1v1h1l13,5l5,5h2v9l3,4l2,2v10l3,4l1,5h-1h1h-1l1,3l1,12l2,5l1,1v1v-1v1l4,7l5,8h-27v-1v1v-1h-36v-1h-35l-45,-3l2,-28l-17,-1l-25,-2l1,-18l4,-38l44,3l43,3h25ZM454,442l-1,14l-2,8l-1,23l-3,29l-4,45l-1,22l-35,-3l-49,-5l2,6l-31,-4h-9l-1,11l-20,-2l2,-18l3,-14v-7l4,-27l7,-50v-6l3,-14v-7l3,-14v-1v1l44,5l3,1l44,4ZM238,272l-6,34l-3,10l-1,10l-4,15l-4,25l-8,44l-3,12l-1,10l-4,5l-4,-4l-6,-1l-3,2v5l-1,1v19l-3,4l-20,-32l-2,-1l-27,-42l-11,-15l-26,-41l-4,-4l4,-19l5,-16l2,-10l10,-38l23,6l37,8l36,8ZM638,448l1,14l4,25v56h-1v-1v1l-1,-1h1h-1l-1,-1v1v-1v1l-3,-1v-1v1v-1h-1l-2,-2h-1h1l-1,-1v1v-1l-3,-1v-1v1l-1,-1h1h-5l-1,1h-3l-2,-1l-6,2h-7l-4,2l-14,-2l-3,-3l-1,3l-3,4l-3,-5h-1v1v-1v1l-4,-2h-6l-4,-2l-3,-5h-4l-5,2l-4,-2h-4v-1v1v-1l-3,-1h-3v-1v1v-1h-1l-3,-5l-2,-1l-1,1v1v-1v1h-1v-1v1v-1h-5l-7,-8v-22l1,-4v-20l1,-6l-47,-2l-19,-2l1,-14l21,2l24,2h14l46,2ZM881,442l12,-2l33,-5v2l-1,3v2v-1v1l-1,1l-4,7h-6v1v-1v1l-4,4l-2,-2l-7,5l1,1v1v-1v1l-13,10h-5l-6,5l-1,6l-4,1v7l-29,3l-27,3h-5l-26,3h-14l-35,3l4,-4v-6l1,-2h-2h2l2,-9l6,-6v1v-1v1l-1,-3l3,-4l-2,-4h3v-6l-1,-1h2l-1,1h1l1,-1l31,-2l-1,-5l4,1l28,-4l25,-1l19,-2ZM299,282v5l-4,19v4l40,7v6l-2,14l-2,20l-3,14l-3,20v10l-3,14l-1,13l-24,-3l-10,-2l-45,-7l-30,-6l8,-44l4,-25l4,-15l1,-10l3,-10l6,-34l27,5ZM933,319l4,25l22,-3l3,14l3,-4l2,-2v-1v1v-1l1,-2h3h-1h1l2,-5l1,-1l-1,1h1v-1v1h7l1,-2h1l5,-3l4,2l2,2h1h-1h1l3,5l-1,6l-13,-8v9l-3,5v1l-3,2l-2,5l-3,-1l-3,7l-1,5l-8,-2h-1h1h-1h1h-1h1l-1,4v1l-3,8l-5,9l1,6l-6,5l-14,9h-6v1v-1v1h-1v1v-1v1l-8,-2h-1h1h-1v-2h-1h1h-1h1h-1h1h-1h1l-2,-1v-1v1v-1l1,-1v-1v1v-1h-3l-3,-1v-1v1v-1h-2v-1v1v-1l-3,-4l-2,-2l-1,-2l-4,-11v-1v1l6,-2l3,-4l-1,-8l2,-5l2,4l3,-3v-8l5,-6l3,2l9,-9v-9l2,-8v-13ZM239,72l-3,10l-3,20l3,3h-1h1h-1l2,10l-2,1l7,6l5,11v1l4,7l6,1l-3,9l-3,4v4l-3,10l-1,2v1v-1v1l6,2h2v-1v1v-1l4,-3l2,5l1,2v6l4,6l-1,3v4l5,1l2,12l4,-2l7,3l2,-3h1l2,1v1v-1v1h3l4,1h7v-1l2,-3l6,8l-5,25l-1,12l-5,31l-34,-5l-27,-5l-24,-5l-36,-8l10,-49l5,-8l-2,-5l-3,-5l11,-13l1,-1l-1,1l1,-1l11,-15l-1,-4l-4,-4l-1,-5v-14l3,-13l5,-17v-5l7,-33ZM458,105l-2,23l-1,23l-1,12v11l-2,15l-2,27l-51,-5l-27,-4l-21,-2l-8,-2l-24,-2l-7,-2l-2,15l-6,-8l-2,3v1h-7l-4,-1h-3v-1v1v-1l-2,-1h-1l-2,3l-7,-3l-4,2l-2,-12l-5,-1v-4l1,-3l-4,-6v-6l-1,-2l-2,-5l-4,3v1v-1v1h-2l-6,-2v-1v1v-1l1,-2l3,-10v-4l3,-4l3,-9l-6,-1l-4,-7v-1l-5,-11l-7,-6l2,-1l-2,-10h1h-1h1l-3,-3l3,-20l3,-10l17,4l68,13l34,4l11,2l14,2l48,5ZM585,111v3h1h-1h1v3h1h-1h1v1l1,2l-1,1v1v-1v7v-1v4v-1v2v-1v2l-1,1l3,10h1h-1h1v2h1h-1h1v1l1,4v1v-1v3v-1v9v-1v1h1h-1h1h-1h1h-1h1h-1h1h-1v1h1h-1h1v1h-1h1h-1h1h-1v1h1h-1h1v1h-1h1h-1v1l1,1l1,2h-1h1h-1v2v-1v6l1,2v1v-1v2l1,1v1l3,9l-1,5l-3,-1h-33l-29,-1l-12,-1l-21,-1l-9,-1l-37,-2l-1,-1l2,-15v-11l1,-12l1,-23l2,-23l35,3l43,2ZM597,197l-1,5l-4,2l3,7l5,3v21l-1,1v29h-3l1,5v1v-1v1l2,1l-2,11v1v-1v1l-1,2h-1h1h-1l2,2l2,4h-1h1v1l-5,-5l-13,-5h-1v-1v1v-1l-4,1l-6,-1l-4,3l-7,-5l-2,-2h-25l-43,-3l-44,-3l5,-56l2,-27l1,1l37,2l9,1l21,1l12,1l29,1h33ZM1087,160l1,10v6l-6,5v17l-1,17l2,11l1,1l-16,4l-2,-5l-3,-17l-3,-2l-1,2v-3l-3,-10v-10l-3,-6l-1,-10ZM450,216l-5,56l-4,38l-1,18l-45,-4l-30,-4l-30,-3l-40,-7v-4l4,-19v-5l5,-31l1,-12l5,-25l2,-15l7,2l24,2l8,2l21,2l27,4ZM970,770h-1h1ZM970,770h-1h1ZM965,771h0ZM965,771h0ZM965,771h0ZM965,771h0ZM970,769h1l-1,1ZM977,767v1v-1ZM977,767v1l-2,1l1,-2ZM977,767h0ZM978,767h0ZM978,767h-1h1ZM945,771h0ZM945,771h0ZM974,767h0ZM974,767v-1v1ZM983,765h-1h1ZM981,765h0ZM976,765h0ZM981,765h1h-1h1h-1h1ZM978,767v-1l2,-1l-2,2h-1ZM976,765h-1h1ZM981,765v-1v1ZM976,765h-1h1ZM980,764l1,1h-1v-1ZM984,763v1v-1ZM981,764v-1v1ZM981,764v1v-1h-1h1h-1l1,-1ZM978,764h0ZM978,764h0ZM992,761v1v-1v1ZM984,763v1l1,1h-2v-1l-1,-1l1,-1ZM983,764v1h-1l-1,-2ZM992,761l3,-1l-3,2ZM995,759v1v-1ZM995,759h0ZM1000,752h0ZM1000,752h0ZM997,752h1ZM998,752h1h-1ZM999,752h-1v-1ZM1001,750h0ZM1002,750h0ZM1002,750h0ZM1001,750h-1h1ZM993,751h0ZM994,750h0ZM993,751v-1v1ZM994,750h1h-1ZM998,749h0ZM1000,750h-1v-1h1ZM1003,748h0ZM998,749h0ZM1003,748h0ZM1007,747l-1,1v-1ZM1007,747v-1v1ZM990,748h0ZM990,748h-1h1ZM1005,745v-1v1ZM989,747h1v1h-1ZM991,746v1l1,-1v1h-1ZM989,746v1v-1ZM991,746h-1v1h1h-1h1h-1h1h-1h1v1v-1v1v-1v1v-1v1v-1v1h1h-3h1v-2v1v-1ZM989,746v1v-1ZM991,745h0ZM990,745h0ZM991,745h-1ZM989,745h-1ZM1009,741l-1,1l-1,4v1h-1h1h-1v1l-2,2l-3,4v-1l3,-3v-1l1,-1h1v-4l2,-2ZM987,745h1h-1ZM988,745h0ZM988,745h-1h1ZM1007,741v-1l1,1ZM1009,741h-1h1v-1v1ZM1009,741h-1h1v-1ZM984,740h0ZM988,739v1l-1,-1ZM987,739h1h-1ZM987,739h-1h1h-1h1ZM985,739h0ZM981,736h0ZM981,736h0ZM984,735v1h-1ZM982,735h1h-1h1h-1v1h-1v-1ZM1009,731v-1h1ZM1009,730h1h-1ZM1009,730v-1v1ZM978,733h0ZM978,733v1v-1ZM978,733h0ZM977,733h-1h1ZM978,733h0ZM977,733h0ZM979,733h0ZM976,733h-1h1ZM977,733h1h-1ZM977,733v-1v1ZM977,733v-1v1ZM976,732h1v1h-1v-1h-1ZM974,732h0ZM976,732h-1h1ZM974,732h0ZM974,732v1v-1ZM974,732v1l-1,-1ZM973,732h-1ZM974,732h1h-1h2h-1v1v-1v1v-1v1v-1v1h-1l1,-1h-1h1h-1h1h-1ZM973,732h1h-1h1h-1h1ZM970,732h1ZM1009,726l1,4l-1,-1v-2ZM969,731v-1v1h2v1h-1l1,-1l-1,1h1v-1v1v-1v1h-2h1h-1l-1,-2l1,1l-1,-1h1ZM968,730v-1ZM968,728v1v-1v2v-1ZM967,727h1h-1h1v1v-1v3v-2l-1,-1ZM964,719h-1v-1h-2h2v1ZM958,715h0ZM958,715v-1v1ZM954,714h0ZM954,714h0ZM957,713v1h1v-1v2l-1,-1ZM955,713h0ZM955,713h0ZM957,712l2,5l-1,-2l-1,-1v-1ZM1007,702v-1v1ZM950,707v-1v1ZM958,704v-1v1ZM949,705h-1h1ZM1002,692v-1h1v2h1v1l1,1v1l1,1l-1,-1v-1l-1,-1v-1h-1h1h-1v-1ZM944,699l2,2v1v-1l-1,-1ZM943,697l1,2l-1,-2ZM943,696v1l-1,-1ZM942,696h0ZM942,696h0ZM939,693l3,3ZM1000,688l3,3h-1v-1l-3,-3l-1,-2v-1ZM939,693h0ZM996,679l-1,-1h1ZM938,686h0ZM938,686h0ZM937,685l1,1v1l-1,-2ZM994,676h1v1l-1,-1h1h-1ZM937,685v-1v1ZM937,685v-1v1ZM936,684h1h-1h1v1ZM944,682h-1v-1ZM994,676h1v1l1,1v1l2,4v1v-1l-1,-1v-1l-1,-1v-2h-1v-1v1v-2h-1l-1,-1v-1ZM944,681v-1v1ZM986,662v-3h1l3,11l3,4l-3,-3v-1v1v-1l-1,-1l-1,-2l-1,-1v-2l-1,-2ZM935,658h-1ZM934,656v-1v1ZM979,647h0ZM979,647v-1v1ZM935,653h0ZM935,653h0ZM979,646h-1v1v-1ZM935,653h-1h1ZM978,646h1h-1ZM978,645v1l-1,-1ZM976,642h-1ZM978,645l2,2h-1v-1l-1,-1h-1h1h-1l-1,-1v-2h-1h1ZM975,642h0ZM923,645h0ZM923,645h0ZM957,637v-1v1ZM872,638l1,2l-3,-1ZM975,642v-1l-1,-1h-1l-1,-3h-1v-1l-1,-1l-1,-3h-1l-1,-4v-1h-1v-2l1,2v1l1,4h1l5,8l1,1ZM876,637h-1h1ZM964,623l1,1v1h1h-1v-1l-2,-2v-2ZM889,627h0ZM861,629h0ZM817,627h-2l-1,1h-1h1l1,-1h2ZM817,627v-1ZM957,608v-1v1ZM954,608h0ZM958,607l1,3l2,5l1,3l1,1v1v-1h-1v-1l-1,-2v-1v1l1,2l-1,-2v-1l-2,-2l-1,-2h1v-1l-1,-2v-1ZM835,623h1h-6l-3,1l-10,3v-1l4,-1l6,-1l2,-1h3ZM957,607h0ZM954,608h1h-1v-1ZM956,607h-1h1v1h-1v-1ZM957,607h-1ZM958,606v1h-1h1h-1v-1v1v-1ZM958,605h-1h1ZM957,604v1h1v1h-1v-1h-1ZM955,603h1h-1v1h1v1h-1v-1h-1h1ZM956,603h-1ZM955,600v-1h1ZM954,598h1l-1,1h-1h1ZM1009,726v1l-3,6l1,7v1v-1v1l-1,2v1h-1v1l1,1l-1,2h-5l-1,1h-2l-3,1h-1l-7,-1l1,-4h1v1v-1h-1l1,1v-1v1h1v2h3v-2l-1,-1h-4l-3,-5l1,-1h2h-1h1l1,1v-1h-2v-1v1v-1l-2,2l-2,-2v-1l-1,-1h1v-1h1v1h1h-1h1v-1h-1h1h-3v1l-2,-1v-2h-1l-1,-1h-5h1h-1h1h-1v-1l1,1l-1,-1h-1h1h-1h1v1h-1v-1h1h-1h1h-1h1h-1h1h-1v1v-1h-2v-1l1,1l-1,-1h-1h1h-1h1h-1v-2v1v-1v1v-2h-1l-3,-8v-1h-3l-3,-3v-2h-1v-1l1,-8v-1v1l-4,5h-2l-2,-2v-1h-1v-1h-1l-2,-3v-1v1v-1v1v-1l-2,-2l-1,-2v-1l-4,-3l2,-5l3,-6v-2l-1,1v1l-3,-4l-2,8l-1,-1v-1h-1l-2,-5l1,1v-23v1v-1l-1,-1v-1l1,-2h-1h1h-1l-2,-3l-2,-4l-5,1h-1l-1,-1v-1v1v-1l-2,-1h-1l-6,-6l-1,-4l-6,-6l-9,-4l-5,1h-1l-3,2l-13,10h-1h1l-4,1l-2,1l-10,-8l1,-2l-5,-2l2,-3h-6l4,4l-8,-4l-12,-1l11,-1l-4,-3l-9,2l1,2h-6l-2,1l-6,1l4,-2l-5,-3l-3,6v1h-4h2l-1,-2l2,-2h-1v-6l-6,-3v-6l12,-1l44,-4l6,-1l4,8l20,-2l25,-1l18,-2l1,4v2v-1v1h2l2,-1l-1,-7v-2h-1h1h-1l3,-4l4,1h4l1,1h1l1,-1l1,1h-1v1v-1v1v-1v1l1,-1l1,5l-1,-1v-1v1h-1v1h-1h1v1h1v-2h-1h1v2h1h-1h1v2h-2v1h-1v-1l-2,3l1,9l4,5l-2,6l1,6l1,1v-1l-2,-5l3,-4l-4,-8v-11h2h-1h1v-1h1v1h1l1,2v1h-1l1,2l2,2v1l1,2v1h1v3l2,2v1h1v2h1h-1l1,1l1,4h1l1,3l1,1v1h1l1,3h1l1,1v1h1v2l2,2v1l3,3v-1l-1,-2l1,2l5,5l1,5h-1h1h-1v-5v1l-1,5l1,2l-1,-2l2,4v2l-4,-7v-5l-4,-2l8,14l1,1l1,2l1,1v1l2,2l1,2l2,2v1l1,1v1l1,1v1l1,1v2l1,2l3,3v2h1v1h1v1l1,1v1l1,1l-1,-1l1,1l1,4v1l2,10ZM577,757h-1h1ZM577,757h0ZM577,757v-1v1ZM577,756h0ZM577,756h-1h1ZM578,756v-1v1ZM578,755h0ZM578,755v-1v1ZM578,755l1,-1v1ZM577,754h1h-1v1ZM575,747v1v-1ZM576,745v-1h1ZM573,744h0ZM577,744h-1ZM573,744h0ZM573,744h0ZM573,744v-1v1ZM573,743v1h-1h1l-1,-1ZM576,739v4v-1l-1,-1l1,-1l-1,-2v-1v1h1h-1l1,1v1ZM575,737h0ZM575,737h0ZM575,737l-1,-1ZM574,736h0ZM574,735v-1v1ZM574,734v1v-1ZM572,732h-1h1ZM571,732h-1ZM576,739v-1h-1v-1l-1,-1v-5v1l1,5l1,1ZM570,731h0ZM569,729l1,1l-1,-1ZM571,729h0ZM571,729h0ZM571,729h1h-1ZM572,727v1ZM574,722h0ZM574,731v-9l1,-6l1,-3l2,-2l-4,12ZM577,710h0ZM577,710h0ZM579,709v-1v1ZM578,706h-1h1ZM579,709v-1l1,-2l1,-1h1h-1h1l-3,4l-1,2ZM582,705h-1l1,-1ZM582,703v1v-1ZM586,699h1l-5,5v1v-2l3,-3ZM585,697h1ZM586,696h1h-1ZM587,696h0ZM588,694h1h-1ZM589,694h0ZM598,690h0ZM594,693l4,-3h1l-12,9h-1v-2l2,-1l3,-1l2,-2ZM598,690v-1h1ZM599,690v-1h1ZM630,671h-1v-1v1ZM630,671l5,-5l1,-2h1l1,-1ZM637,663h1l-1,1l-1,-1h1h-1ZM636,663h1h-1ZM645,658h0ZM634,655l-1,-1h1ZM633,654v-1v1h1ZM631,651h-1ZM635,664l-6,6v1h1h-1l-5,5l-15,5l-2,4l-7,4l7,-4l-3,-1h-1l-8,-1h-1h1h-1v5l4,1l-5,3h-1l-5,-3l2,5h-1v2h-2v1h-1h1h-1v-3l-6,2l2,6l-1,1v1v-1l-2,3h-1l-6,-2l6,6l-2,6l-10,5l6,1l1,4h-1l1,1v1l-3,1l1,1v2l3,10l-1,1h1h-1v1v-1v1v-1v1h1l-1,1l3,2v2l2,5v1l-1,1l1,-1h1l-2,1h1l-1,1h1l1,-1v-1h1l-2,2l-3,4l-11,-7h-11l-6,-5h-5l-3,-4l-8,-1l-5,-14l-3,-3l-2,-17l-8,-5l-4,-10l-4,-2l-3,-9l-7,-11v-6l-9,-10l-4,-2l-4,-7l-16,-2l-6,-2l-1,2l-8,1l-12,20l-7,-1l-8,-8l-7,-2l-5,-6l-6,-4l-3,-8v-10l-3,-3v-7l-11,-8l-4,-6l-5,-3l-3,-7l-5,-1l-4,-11l-3,-1l-2,-6l49,5l35,3l1,-22l4,-45l3,-29l1,-23l2,-8l19,2l47,2l-1,6v20l-1,4v22l7,8h5v1v-1v1h1v-1v1v-1l1,-1l2,1l3,5h1v1v-1v1h3l3,1v1v-1v1h4l4,2l5,-2h4l3,5l4,2h6l4,2v-1v1v-1h1l3,5l3,-4l1,-3l3,3l14,2l4,-2h7l6,-2l2,1h3l1,-1h5h-1l1,1v-1v1l3,1v1v-1l1,1h-1h1l2,2h1v1v-1v1l3,1v-1v1v-1l1,1h1h-1l1,1v-1v1h2v1v-1v1h1v1v-1l1,1h-1h2l1,-1h1l5,1v43l3,3l1,2h1h-1h1v1l1,7l3,3l1,2l1,3h1h-1h1v7l1,3h-1h1h-1v4l-2,5l-1,5v1h-1h1h-1h1h-1v1h1h-1h1h-1h1l1,7v1v-1v1l-5,6l2,4l-6,1l-10,4l-6,-1l1,-6l-6,3l-1,-1h-1l-1,-2h-1h1l1,2h1v1l3,10ZM797,628h0ZM802,619l-1,-1h1ZM801,617v1v-1h-1v1v-1l1,-1ZM844,492l10,39l2,3l3,14l2,3l2,6l4,6v5l-2,15l2,3l1,12l3,4l-6,1l-44,4l-12,1v6l6,3v6h1l-2,2l-1,2v1h-1l-4,1l-6,-5v-6l-1,-1v-1l-1,1v1v-1v1l-3,10l-3,-1h-3l-3,-26l-1,-8v-93l-1,-2l26,-3h5ZM955,597h0ZM955,596v-1v1ZM954,595h0ZM954,595h0ZM953,595h1ZM955,596v2v-3l-1,-1v-1h1v-2ZM954,590h0ZM955,589v-1ZM953,587h-1v-1ZM955,586h-1h1v-1ZM954,586v-1v1ZM954,582h1ZM955,581h2v1l-2,4v-1h-1l1,-2v-1ZM956,581h-1h1ZM955,581h1h-1ZM954,581h1v1h-1v-1h-1ZM957,580h-1v-1v1ZM958,575l-1,5l-1,-2v-2h1v-1ZM956,575h1h-1h1h-1ZM956,572h1v-1h1l-1,1h1v-1v1v-1v2h1h-1l-1,-1h-2h1v-1ZM957,571h1h-2ZM958,570l1,1h-1ZM959,571v2l-1,1v-1h1h-1v-2h1h-1h1ZM959,565l-1,4v-3ZM956,565v-1h1h-1ZM957,564h1v1v-1v1l1,-1l1,1h-2v-1h-1l-1,1l1,-1ZM964,562h-1h1ZM964,562h-1v-1l1,-1l1,1ZM963,560h1ZM961,559h1v1h2l1,1l-1,-1l-1,1v-1v1v-1h-2h1ZM961,559v1h1h-1h2v2h-2l1,1l-1,-1v-1l-1,-1v-1ZM961,559h-1ZM958,559v-1v1ZM957,569l1,1v1h-2v1h-1h2l1,1v1l-1,1h1h-2v1v-1h1v1h-1v1v-1v4h1l-1,1v-1v1h-3h1v1h1v1l-1,-1l1,1l-1,2v1l-1,1l-1,-1v1v-1v1l3,1v1l-1,1l-1,-1l2,2v2h-1v2h1h-2h1h-1h1l1,2v1h-1v1h-1l-1,-1h-4l-4,-1l-3,4h1h-1h1v2l1,7l-2,1h-2v-1v1v-2l-1,-4l-18,2l-25,1l-20,2l-4,-8l-3,-4l-1,-12l-2,-3l2,-15v-5l-4,-6l-2,-6l-2,-3l-3,-14l-2,-3l-10,-39l29,-3l16,-2l11,-2v2v-1v1h-1l-1,2l-1,1l-1,4l9,5h2l2,3l7,10l9,5l9,8v3h1h-1h2v1h1h-1h1h-1l2,1v1l3,2h1v1v-1v1h1h-1h1h-1h1l2,2l1,3l1,2h1h-1h1v1v-1v3l1,1h-1v-1v1h1h-1l6,4v1v-1v1l2,2v1h1h-1h1v1h-1h1h-1v1h1h-1h1v2v-1v1l1,1v1h1h-1v-1v1h3h-1v1l1,1v1v-1v1l1,1l-2,2l-1,-1h-3v1l1,-1l1,1v4h-1ZM734,667h-1ZM735,666v1h-2v-1v1l1,-1v1v-1ZM747,665l-1,1v-1ZM737,666h1h-1ZM777,662h0ZM754,663h0ZM733,664h0ZM733,664h0ZM733,664h0ZM733,664v-1v1ZM744,663h1h-1h1ZM732,664h-1v1v-1h1h-1h1ZM731,664v-1v2v-1v1h-2v-1l1,-1ZM753,660h0ZM754,659v1v-1ZM757,659h0ZM727,661h-1h1ZM757,659h0ZM754,659h0ZM754,659v-1v1ZM758,659v-1v1v-1l1,1ZM758,658h0ZM758,658h0ZM757,658h0ZM726,661h1v3ZM762,657h1l-5,2h1ZM758,658h0ZM755,658h-1ZM757,658h0ZM758,658h-1h1ZM755,658h-1h1ZM755,657v1h-1v-1h1h-1ZM765,656v1v-1ZM765,656l1,1h-1ZM754,657h-1ZM754,656v1v-1ZM757,656v-1ZM755,657v-1h-1v-1h-1h1v1l1,-1v1ZM764,654h0ZM764,654h0ZM724,656v1h-1ZM753,654l1,1h-1ZM764,654h-1h1l-1,-1l1,-1ZM762,652h-1h1ZM761,652v-1v1ZM761,652v-1h1v1ZM762,651v1v-1ZM762,651h-1h1ZM761,651h0ZM762,651h-1ZM762,650h1v1h-1ZM704,655l1,-1l8,1l-4,3ZM765,649v1ZM764,649h0ZM764,648h0ZM764,648h0ZM765,648h1l-1,1v-1v1v-1v1ZM764,648v-1v1ZM763,647v1h-1ZM767,646v1v-1ZM782,645h0ZM782,645v-1v1ZM769,645h-1h1ZM769,645v-1v1ZM770,644h0ZM770,644h-1h1ZM770,643v1v-1ZM771,641l-1,1v-1ZM769,641h0ZM769,641v-1v1ZM768,639v1v-1ZM768,640h-1v-1h1h-1h1ZM768,638h-1h1ZM768,638v1h-1v-1ZM772,637h0ZM772,637h1v1h-2l-1,-1v1v-1v1v-1h2ZM767,641v1h2l1,1v1h-1l-1,1h1h-3h1h-1l1,1v1l1,1l-1,1l-2,-2v-1v1h-2l-1,1h1h-1h1l1,1h1v1l-1,-1h-2v1v-1v1l-1,1h-1h1h-1l1,1v1h1h-1h1v1h2l1,2v1h6l6,5l-5,4v-5l-5,1l-4,-5h-5l-1,-2v1v-1h-1h1h-1h1h-3l-3,-3v-2l-2,5l5,1v1h-1l1,1v2h1h-2l1,3l-5,2l-1,-1v-1l-2,-2l-1,1v1v-1l-3,-1h-2v2h1h-1h1h-2v1l-1,2h-3v1v-1h-2v1v-1l-2,-1l1,-1h1h-1h1l1,-1h-4l-1,1v1l-2,-1v-3l-3,-4v-1l-1,1l-5,-2l-3,-5l-7,1l1,-3l-9,2l5,4l-1,1l-5,2l-13,-3l-3,-2l-10,-2l-12,3l-2,-4l5,-6v-1v1v-1l-1,-7h-1h1h-1h1h-1v-1h1h-1h1h-1h1v-1l1,-5l2,-5v-4h1h-1h1l-1,-3v-7h-1h1h-1l-1,-3l-1,-2l-3,-3l-1,-7v-1h-1h1h-1l-1,-2l-3,-3v-28l38,-1l29,-1l3,3l-2,8h3l-1,2l1,2l3,3l-1,2l-2,3l-1,4l-1,-1l1,1l-4,5l-2,3h1h-1l-4,10l-1,12l26,-1l18,-2l1,1h-1h1h-1v3v-1v3v-1v2v-1l-1,1h1h-1h1h-1h1v1h-1v1v-1v1l2,5v1v-1v1v-1v1l3,6h1h-1h1l1,1h1h-1l-6,7l5,3l5,-6v2l1,1ZM787,628h-1ZM787,627v1ZM786,498l1,2v93l1,8l3,26l-4,1v-1l-1,1h-6l-10,1l-6,5h-1l-1,-1h-1h1h-1l-3,-6v-1v1v-1v1v-1l-2,-5v-1v1v-1h1v-1h-1h1h-1h1h-1l1,-1v1v-2v1v-3v1v-3h1h-1h1l-1,-1l-18,2l-26,1l1,-12l4,-10h1h-1l2,-3l4,-5l-1,-1l1,1l1,-4l2,-3l1,-2l-3,-3l-1,-2l1,-2h-3l2,-8l-3,-3l2,-7h-1v-6v2l-1,-1h1v-1l-2,-1v1v-1l3,-5l-2,-3l3,-6l3,-5l3,-6l2,-9v-1v1v-1l5,-4v-1v1v-4l35,-3ZM963,559h0ZM963,559v1v-1l1,1h-1v-1h-1v-1ZM963,558h1h-1v1ZM964,557v1h-1v-1h1v-1ZM963,557v1h-1h1v-1ZM965,556h0ZM966,552l-1,4v-2l1,-1ZM966,552v1l-1,1v-1h1ZM971,550h1l-3,2v-2h1ZM970,550v-1h1v1ZM972,550h-1v-2ZM967,549h0ZM967,549v-1v1ZM964,547h-1h1ZM970,547h-1v-1ZM967,546h2v1h1l1,1v1v-1v1h-1l-1,1h1h-1v2h-1v-2h-1v-3l-1,-1h1ZM973,545h-1v-1h1ZM966,545l1,1h-1l1,1v3h1v2l-3,-2l-1,-1l-1,-2h1v-2ZM968,545h0ZM975,541l-1,1v-1ZM982,539l1,-1l-1,1ZM983,538h-1v1v-1ZM982,538l1,-1v1ZM983,537v1v-1ZM985,535h-1h1h-1ZM985,535v-1h1v-1h1l-1,1ZM986,533v1v-1v1v-1v1h-1ZM986,533h0ZM987,533h-1h1v-1v1ZM988,531v1h-1v1v-1h1h-1v-1ZM989,530h-1h1ZM988,531v-1h1l-1,2v-2ZM994,526h1h-1v1ZM994,526v1h-1h1h-1v-1ZM993,526v1v-1ZM993,526h1h-1ZM995,526h-1v-1h1ZM996,523h-1v-1h1ZM996,522h-1ZM996,519h-1h1ZM996,519h0ZM995,519h0ZM996,519v-1v1ZM1008,500h0ZM1008,500v-1v1ZM986,533l-1,1h1v-1v1h-1v1h-3v-1v1l1,2l-1,1v1l-7,2h-1v1v-1v1l1,-1l2,2l-4,2v-1v1v-1h-1v1l-4,-1v2h-1l-1,-1h-2v2h-1l1,2l1,1v1l-2,1h2v-1v1h1l-1,1h1h-1v1v-1v2v-1v1h-2v-1v1v-1v1h2v1h-1v1h-1l-1,1l1,-1l-1,1h1v1v-1h-1v1h-4v-1l-1,-1v-1v1v-2h-1h1h-1v-1h1h-1h1v-1h-1h1h-1v-1l-2,-2v-1v1v-1l-6,-4h1h-1v-1v1h1l-1,-1v-3v1v-1h-1h1h-1l-1,-2l-1,-3l-2,-2h-1h1h-1h1h-1v-1v1v-1h-1l-3,-2v-1l-2,-1h1h-1h1h-1v-1h-2h1h-1v-3l-9,-8l-9,-5l-7,-10l-2,-3h-2l-9,-5l1,-4l1,-1l1,-2h1v-1v1v-2l8,-4l1,-1l6,-3h1h-1h2l29,-3l7,5v3l25,-4l5,3l24,18l1,1l-7,6l-5,12v1h-1v-2l1,-2l-1,3v1l1,3h-1h1v1v-1h-1v1v-1v1h1l-1,2h-1v1h-1v-1v2h-2l-2,3h-1l-1,1v2h-1ZM117,512h-1h1h-1ZM90,485l4,4l-2,2ZM106,486h0ZM106,486h0ZM102,481h0ZM100,480l-2,1v-1v1v-1h1ZM64,462l8,4l-8,-1ZM80,463h0ZM41,347v1l-2,-2ZM38,345h1h-1v1ZM53,343h-1h1ZM51,343v-1v1ZM51,343v-1v1h1ZM53,343h-1v-1v1h1h-1ZM49,340v1v-1ZM48,340h0ZM54,342l1,-1v1ZM118,245l-10,38l-2,10l-5,16l-4,19l4,4l26,41l11,15l27,42l2,1l20,32l3,11v6l5,6l-4,1l-3,2l-2,2l-2,4l-1,9l-4,3h-2v10l3,1l-2,7v1v-1v1h-5l-35,-5l-21,-2l1,-2l-2,-5h1h-1v-12l-2,-5l-8,-9l-4,-5l-2,-1h-2v1l-3,-1l1,-7l-8,-4l-8,-6v-3l-6,-6l-9,-3l-10,-3l-3,-4l4,-13l-5,-6l2,-6l-8,-9l-2,-11l-6,-9v-9l3,1l3,-5l-1,-6h-4l-5,-6l2,-20h3v1l-1,6l4,4v-9l-2,-1v-1l-1,-4h10l3,1v1h1l3,-1l-2,1l1,-1h1v-1l-1,1h-2v-1l-1,1l-2,-1v-1h-1l-11,-2v6l-5,-3l-4,-13v-5l-9,-15l2,-3v-12l3,-3v-9l-5,-10l-1,-10l8,-7v-1l2,-8l5,-9v-10l1,-4v-1v1l23,5l42,13ZM1076,278h0ZM1104,262v1h-1ZM1083,248l19,-4l4,11v7h-2v1v-1l-1,1l-8,2l1,2l-8,2l-8,4l-3,4l-1,1l-4,2v1v-1l-3,-2l4,-4l-2,-4l-3,-19v-1ZM1015,356v-1h-1v-1l-2,-1l2,-1ZM1041,328v-1v1ZM1043,322l-1,1v1l-1,2v6l6,4l4,10l6,2l-1,6l3,3h-1h1h-1l-13,3l-5,-17l-4,-17h-1h1l3,-5ZM754,457h-2h2ZM854,374l4,1l4,7h8l5,3l2,-3l8,2l6,-5l1,5l6,3v1l4,11l1,2l2,2l3,4v1v-1v1h2v1v-1v1l3,1h2l-10,11l-6,6v1v-1v1l-6,8l-12,6l-20,2l-19,2l-25,1l-28,4l-4,-1l1,5l-31,2l4,-2l1,-12l-2,-1l5,-6h1h-1h1l10,4l1,-10l8,-3l-3,-5l3,-4l2,-4l4,2h1h-1h1l1,-2l5,-1l5,3l8,-5h1h-1h1l3,3l4,-7l3,1h1h-1h7l1,-7l8,-7v-8l5,1l6,-3v-10h1ZM1133,253h1l-6,3v-3ZM1142,241h-1h1ZM1127,245h0ZM1141,241v-1v1ZM1118,232h0ZM1118,226v-1v1ZM1121,220h0ZM1116,216v1v-1ZM1133,246l-5,5l-1,-6l-3,4v1v-1v1v-1l-5,4v1v-1l-2,-4l-1,-1l-5,-4v-3l-9,3l-19,4l-15,2v1v-20l16,-4l24,-5l1,-4l6,-3h1v2v-1l3,4l2,-1v1l-2,3l-1,2v1l-1,4l-1,1l2,1v-1l4,1l3,5l5,6h4l7,-4l1,2l-1,-1v1h1v2l-9,3v1ZM1041,375h0ZM1041,375h1h-1v-1ZM1041,375l-1,-1h1ZM1040,374h1h-1ZM1041,375v-1h-1h1l1,1ZM1056,370h-1h1ZM1056,370v-1v1ZM1024,371h-1h1ZM1035,366h-1h1ZM1059,364l-1,5v1v-5l1,-1v-3v2ZM1034,366h0ZM1036,366h-1ZM1035,366h-1h1h-1v-1v1ZM1059,359h-1h1ZM1059,361v-4ZM1033,349l1,1l-1,1h-1v-1ZM1026,346h1l-1,1ZM1059,359h-1l1,2v-1v4l-1,1l-3,4v2l-5,2h-1l-4,2v1v-1l-1,-4l-2,-1l2,-3h-8v-1l-2,-1l-2,-5l3,-5h-6l4,-2l-1,-2h1l1,-1l-1,-1l1,1l-1,-1l-1,1v1v-1h-1l-1,-1v-1l1,-1l-3,-3l3,-8h3l-1,-6l-3,4l-3,5v7h-1v1l1,4l-2,1l4,16l5,3l-3,2h-1l-6,-2h1h-2l-1,-1l-4,-2l-3,1h-3l1,-7l1,-1v-1l1,-1v-3l-1,-4l-2,1l-1,-1v1v-1v1l-9,-4l1,-3l-5,-1l-3,-5h-1h1h-1l-2,-2l-4,-2l-5,3h-1l-1,2h-7v-1v1h-1l1,-1l-1,1l-2,5h-1h1h-3l-1,2v1v-1v1l-2,2l-3,4l-3,-14l21,-5l33,-5l22,-5h1l4,17l5,17l13,-3h1v1ZM1010,499h-1l-1,1v-1h2l2,-1ZM1020,496h1h-1ZM1021,494v1v-1v1ZM1022,492v1l-1,-1ZM1022,493v2v-4v1v-1h1ZM1021,491h0ZM1021,491v-1v1ZM1023,491v-3v2ZM1023,488v-1v1ZM1034,474h-1v1l-1,1h-1h1l1,-1v-1ZM1034,474h-1l1,-1ZM1034,473h0ZM1034,473l1,-1l-1,1ZM1035,472h0ZM1035,472h0ZM1048,468h1h-1h2h-2ZM1045,468h1v1l-9,2l1,-1l6,-2ZM1048,468h-1h1ZM1047,468v-1h1v1ZM1045,468v-1h1v1ZM1050,468v2l-1,-1l1,1v-2l3,-5ZM1054,461l-1,2v-1ZM1043,463v-1v1ZM1054,459h0ZM1054,459h0ZM1054,459v-1v1ZM1051,449h1h-1ZM1066,436l-1,-3l1,3l2,3v9l-5,3l5,-4ZM1057,429v1h-1v1v-1h1ZM1060,427v1l-1,-1ZM1056,424v-2v2ZM1056,421h-1ZM1037,425h-1v-1v1ZM1056,420v1v-1h-1ZM1054,416v1l-1,-1ZM1053,414h0ZM1053,414h-1h1ZM1053,413v1l3,6l4,7l4,6h1h-1l-2,-2v-1v1v-1l-2,-2v-1v1v-1h-1l-3,-6v-1v1v-1l-2,-3v-1v1v-1h-1h1h-1v-2ZM1052,414h1v2l-3,-2h1ZM1053,422l-4,5l-7,4h-4l-1,-6l-1,-1v1l2,9l7,-1l8,-3l2,9l1,-8v-1h1v-1l4,6l-1,5l-4,6l-4,3h-3h1h-12l8,2v6l-3,6v-1l6,-5l4,1v1v-1v4l-3,4l-2,1h-1v1h-1v-1h-1v1h-1l-6,2l-1,1h-1v-1v1l-3,3v1l-1,1h-1h1l-6,6l-3,5v3l-1,1v1v-1h-1v-1v6h-1l-8,2l-2,1h-2v1v-1h-1l-24,-18l-5,-3l-25,4v-3l-7,-5l-29,3h-2h1h-1l-6,3l-1,1l-8,4l-11,2l-16,2v-7l4,-1l1,-6l6,-5h5l13,-10v-1v1v-1l-1,-1l7,-5l2,2l4,-4v-1v1v-1h6l4,-7l1,-1v-1v1v-2l1,-3v-2h7l22,-2l13,-3l35,-6l8,-2l17,-3l21,-5h1l5,7l1,1v2l-3,-2ZM1064,330v1v-1ZM1064,330h0ZM1066,328h0ZM1066,327v1v-1ZM1066,328v-1v1ZM1065,328h1h-1h1h-1v-1ZM1066,327v1v-1ZM1066,328v-1h1l-1,1ZM1067,323h1h-1ZM1068,323h0ZM1068,323h0ZM1070,317h1l-1,1l-2,6v1v-2l1,-2v-2l1,-1ZM1044,321l1,-1l-1,1ZM1048,316l1,-1l-1,1ZM1047,334l-5,-3l-1,-3v-2l1,-2v-1l4,-4h1l1,-1v-2l1,-1l7,-6l-13,-9l-1,-11l2,-5l4,-8l18,6v9l-1,1h-1l-1,1l-1,4l8,4v15l1,1h-1v-2v3l-1,1v2l-2,2h1v2h-1l-1,1v1h-1v1h1l-2,3v-1v1h-1l-1,1h1l-3,11l-2,1v-8l-11,-2ZM1077,291h-1ZM1074,292v-1v1ZM1075,291h0ZM1078,290h0ZM1075,291h0ZM1077,291v-1v1ZM1076,291v1h-4h2l1,-1h1h-1h1ZM1076,291h1v-1v1ZM1071,292v-1v1h1ZM1074,291h0ZM1078,290h0ZM1071,292v-1v1ZM1070,292h-1ZM1077,290v1h-1v-1ZM1078,290v-1v1ZM1079,289h0ZM1080,289h-1ZM1070,291h1v1h-1ZM1065,292l1,1l-4,4l1,-4l1,-1ZM1083,288l-3,1l-4,3v-1h1l2,-2h1v-1ZM1090,283l-1,1l-5,4h-1h1l5,-4l2,-2ZM1070,284h0ZM1099,272h1h-1v1v-1h-2h1h-1v-1h1ZM1098,271h-1v1l2,1l-1,-1h1v1l1,-1h2l-2,4l-9,6l-2,2l-9,4l-1,1h-1l-1,1h-1v1v-1l-2,2v-1l-1,1h1h-3h1l-1,-1h-1l-1,1h1l-4,1v-3l1,-2l1,-1h2l3,-4l10,-3l-1,-1l8,-2l7,-6ZM952,246h2v2h-1l1,1ZM1002,209h0ZM1000,210v-1h2v1ZM999,209h0ZM999,209h0ZM1072,281l-2,3v3h-2l-1,1l-1,2v1v-9l-18,-6l-1,-2h-3l-5,-4l-1,-4l-1,-1l-2,-1l-3,-2l-2,-1l-23,5l-40,8l-22,4h-4l-1,-7l12,-10l4,-7l-2,-5l-1,-1h1v-2h-2l-2,-6l12,-5l14,-1l5,2l11,-3l5,-2l3,-8h4l-2,-10v-4h-2v1v-1h-1l-1,-4l9,-8l8,-15l8,-6l9,-1l20,-5l1,10l3,6v10l3,10v3l1,-2l3,2l3,17l2,5v20l3,19l2,4l-4,4l3,2ZM927,282l3,17v6l3,14h-1v13l-2,8v9l-9,9l-3,-2l-5,6v8l-3,3l-2,-4l-2,5l1,8l-3,4l-6,2v-1l-6,-3l-1,-5l-6,5l-8,-2l-2,3l-5,-3h-8l-4,-7l-4,-1h-7l-1,-26h-1l-4,-42l-1,-4l27,-5v1v-1h1h-1v1h1l13,2l-3,4h8l11,-4l9,-2l2,-5ZM1046,319l-1,1l1,-1ZM940,271l1,7h4l22,-4l40,-8l23,-5l2,1l3,2l2,1l1,1l1,4l5,4h3l1,2l-4,8l-2,5l1,11l13,9l-7,6l-1,1v2l-1,1h-1l-3,3l-4,-1l-3,5h-1l-22,5l-33,5l-21,5l-22,3l-4,-25l-3,-14v-6l-3,-17l13,-11ZM1114,256v-1v1ZM1116,254v1v-1ZM1115,254h0ZM1115,256h-1h1h-1h1l-1,-1v-1h1ZM1116,251h-1l1,-1ZM1117,252v1h1v1l-2,1l-1,1l1,-1v-5h1ZM1119,253v1h-1v-1h-1v-4ZM1116,248v2l-2,4v5l-8,3v-7l-4,-11l9,-3v3ZM1051,411v-1v1ZM1048,399h0ZM1048,399h0ZM1039,399h-1ZM1050,396v1v-1ZM1050,396h0ZM1050,396h-1h1h-1h1v-1v1v-1ZM1050,393v1v-1v1h-1v-1ZM1049,393h-1l1,1v-1v4v-1h-1v-3ZM1050,394v-2v2ZM1050,392v-1v1ZM1051,391l-1,1v-1ZM1051,392v-2h1l-1,1ZM1048,391v1h1v1h-1v-2h1ZM1018,397h1h-1ZM1051,390h0ZM1052,388v2h-1v-2h1v-1ZM1053,384l-1,2v1h-1v-1h1v-2ZM1043,379v-1v1ZM1043,379v-1ZM1055,374h0ZM1055,374h0ZM1055,374h0ZM1055,374h0ZM1055,373v1v-1ZM1041,375v1v-1ZM1057,371v2v-1v1h-1v1h-1v-1h1ZM1047,379l1,-1h1l1,-5h-1h1l5,-2v3v-1v1h-1v1v-1h1v1v-1v1l-3,8l1,1h-1v-1v2v-1v2h-1v1v-1v1v-1v1h1v1h-1v-1l-2,1l-1,3v6l-3,-2l2,-13v-2ZM1058,370l-1,1v2l-2,2l1,-1v-1h1v-2ZM1036,386l-1,1l3,3l-1,6v1l1,2h1h-1h1h-1h1l-1,6l-13,-8h-7h1h-1l7,3h7v4l17,1l2,5l2,3h-1h1h-1h1h-1v-1l-1,-1v-1v1l-1,3h1h-2l-21,5l-17,3l-8,2l-35,6l-13,3l-22,2h-7v1v-1l-33,5l-12,2l12,-6l6,-8v-1v1v-1l6,-6l10,-11h1v1v-1v1l-1,1v1v-1v1l2,1h-1h1h-1h1h-1h1h-1h1v2h1h-1h1l8,2v-1v1v-1h1v-1v1v-1h6l14,-9l6,-5l-1,-6l5,-9l3,-8v-1l1,-4h-1h1h-1h1h-1h1l8,2l1,-5l3,-7l3,1l2,-5l3,-2v-1l3,-5v-9l13,8l1,-6l5,1l-1,3l9,4v-1v1v-1l1,1l2,1v1h1h-1h1v4l-1,1v1l-1,1l-2,7h4l3,-1l2,5h5l4,4h6l1,9ZM780,210h0ZM780,210h0ZM787,205h0ZM787,205h0ZM708,166l1,1v5l7,4h1h-1h2l1,1h1l1,3h1h-1h1v2l19,3l8,4h8l5,1l3,4l3,3v8l-1,1h1h-1h1l4,-1l-1,6l3,2l-5,4l-2,12l5,-3l2,-6l5,-1v-5l7,-8l-1,6l-7,14l-3,14v14l-3,7l1,11l3,5v9l-58,3l-1,-3l-8,-3l-4,-16v-5h-1h1l-2,-9l-4,-5l-8,-4l-3,-6l-12,-5v-1v1v-1l-4,-5v-14l2,-4l-5,-3l3,-9l5,-3l3,-2v-17h1l1,-1v-1l1,-1h1v1v-1h-1h1v1l1,1h5l17,-9ZM710,165v1h-2ZM872,288h0ZM873,287h-1v-3l1,1ZM876,279h-1h1ZM880,271h-1h1ZM880,270v1v-1ZM880,272v-1h1v-1h2l-3,2v-1ZM880,270h-1h1ZM880,271h-1v-1ZM880,270h1v1h-1v1v-1ZM815,215h0ZM860,205h-1h1ZM860,205h0ZM822,189h0ZM822,189h-1h1ZM858,204l1,1l-4,2l5,7v10l-4,3v6l-6,3v8l6,2l4,-5v-2l3,-5l9,-3l5,6l3,17l3,4v12h-3l-3,2l-1,7h-1l-3,5v5l-5,8l-27,5l-9,-1l-33,4l4,-4l6,-16v-13l-10,-22l2,-6l-2,-5l4,-7v-9l3,-4l-1,-4l6,-2l4,-6l-1,10l2,-2l2,-1v-12l8,-2l-4,-3l1,-8l6,-1l4,2h7l2,4h4l10,4ZM845,181h0ZM845,181h-1h1ZM838,181h0ZM833,181v1v-1ZM835,181l1,1h-2h1v-1h-1h1ZM847,178h0ZM846,178h0ZM847,178v-1v1ZM844,178h0ZM846,178h0ZM844,178v-1v1ZM849,181h-1h1h-5l3,-3l-1,-1l3,-1ZM836,175v-1h1ZM837,171v3l-1,-3ZM837,171l-2,-1v-2h-1v-1l3,-1ZM789,172v1l-1,1l-1,-1ZM774,171l-1,-1l1,1ZM749,155l2,3h1v2h1v8l3,-5h8l6,3l3,4l1,1l13,2l1,1l1,-1v-1l7,-5l14,-2l5,-3h4v7h12l3,-2v1h1v2l1,1l1,3h-1v1l7,6h-8h1h-2v1v-1v1h1h-2v-1h1h-1h1h-7l-1,5l-8,-5h-7l-2,4l-13,2l-4,4l-5,-1l-7,7l-6,16l-3,-2l1,-6l-4,1h-1h1h-1l1,-1v-8l-3,-3l-3,-4l-5,-1h-8l-8,-4l-19,-3v-2h-1h1h-1l-1,-3h-1l-1,-1h-2h1h-1l7,-3l3,-4l12,-4l5,-3ZM763,147l2,2l-8,6l-4,7v-2h-1v-2h-1l-2,-3l6,-6ZM736,138h0ZM736,138v-1v1ZM741,136h1h-1ZM744,134h-1ZM748,131h0ZM749,131h-1h1ZM747,130v-1h1h-1ZM747,130l1,-1l1,2h-1l-4,3h-1l-1,2h-1l-5,2v-1h1h-1l11,-7ZM376,730l12,5l8,6v4l7,5v3l-8,4l-4,1l-7,5l-2,4l-7,-3v-10l-4,-11l6,-5ZM346,711l5,5h-5ZM357,709l3,2h6l6,4v3l-7,3l-4,-1v-4l-7,-3ZM339,703l14,2l-2,3l-14,-1ZM323,701h0ZM321,700h0ZM329,701h-6l-2,-1l-4,1l-5,-8h5l4,-3l3,7ZM283,675l2,8l-6,2l-5,-3l2,-6ZM1122,190h-1v1v-1ZM1121,190h0ZM1122,190h-1ZM1121,190h0ZM1123,187l-1,1h1h-1v-1ZM1129,185h0ZM1129,185h0ZM1122,187v1h-1v-1h1h-1ZM1127,185h0ZM1126,185h0ZM1123,185h0ZM1123,185h0ZM1132,183h-1ZM1130,183h-1h1v-1ZM1137,179h0ZM1137,179v-1v1ZM1135,179h0ZM1130,180v2v-2ZM1136,179v-1v1ZM1136,179v-1v1ZM1135,179h-1v-1l1,1h-1h1ZM1136,177v1v-1ZM1134,177v1v-1ZM1141,175h0ZM1141,175h0ZM1130,180h-1v1h1h-1v1h1h-1v1v-5v1h1ZM1141,175h0ZM1140,175h0ZM1135,176v1v-1ZM1135,176h0ZM1135,176h0ZM1146,172h-1h1ZM1149,170v1v-1ZM1149,170v1v-1ZM1144,172v-1v1ZM1126,178v-2v1ZM1149,170v1ZM1149,170h0ZM1145,171h1h-1ZM1154,168v-1v1ZM1149,170h0ZM1146,172h-2v-1h-1l1,-1l1,1h1ZM1154,168v-1v1ZM1145,170h0ZM1145,170v-1v1ZM1151,167v-1ZM1153,166h0ZM1145,169v1v-1v1h-1l-1,1ZM1151,166h1h-1h1v2l-1,-1v1v-1ZM1153,166v-1v1ZM1151,166h-1ZM1144,167h0ZM1148,166h0ZM1149,166h0ZM1149,166h0ZM1148,166h0ZM1144,167h0ZM1154,163h1h-1ZM1155,163h-1ZM1148,165v1v-1v2v-1h1h-1v1h1l-1,1l-2,-1v-1ZM1150,163h0ZM1158,160h0ZM1158,160h-1h1ZM1143,163v1v-1ZM1150,162v1v-1h-1h1v-1ZM1149,162v-1v1ZM1142,167v1v-1l-1,-1v-2ZM1155,159v-1v1h1ZM1152,158l2,1l-1,4h-3v-3l1,-1v-1ZM1155,158v-1ZM1160,157v-2v2ZM1141,162v-1v1ZM1161,155v-1h1ZM1166,153h1h-1h1h-1ZM1167,153h-1h1ZM1160,154v-1v1ZM1164,152h-1h1ZM1142,158h1v1h-1v-1ZM1167,150h0ZM1167,150h-1h1ZM1169,149h0ZM1168,149h0ZM1169,149h0ZM1168,149h0ZM1129,185l-3,-5v-4v4l3,5h-2l-1,-1v1v-1v1v-1v1h-1h1h-1h1h-1v2v-2l-1,2h1h-1v-3v1h-1l1,-1l-3,3v1l-1,1l1,1v3l-3,7l-2,9h-1l-1,-1v-1v1v-1l-3,-4h-1h1h-2v-1v1v-1l-1,-2v-3l-5,-12l-4,-16l-7,-18v-1l5,1l1,-11l4,-4l-1,-18l2,-2v-11l6,-15l1,-5l5,-3l1,6l3,1l5,-5l7,-4l10,5l3,13l5,15l2,10h7l6,11l4,-1l4,5l-1,2h-1h3v-1v1l1,2l-6,5v2h-3v3h-1v1v-1h-1l-1,2h-1l-1,-1v4l-2,3h-1l-1,-1v-1v1v-1h-1v-1h-1l-2,1h-1v1l-2,2v5l-1,-1l-2,-1h-3v-6h-1v1l-1,2v13l-1,1l-1,2h-1v1v-1h-3v-1l-1,1v2v-1v1l-1,3l-2,1h-1h1h-1v-4l-1,-1v1v-1v4v-1v2h1l-1,2ZM730,135l-1,1h-2l-5,5l-8,2l-11,7l-7,11l-12,11v1l1,1l-1,-1v-1h-1l-2,2v1h-1v17l-3,2l-5,3l-3,9l5,3l-2,4v14l4,5v1v-1v1l12,5l3,6l8,4l4,5l2,9h-1h1h-1l-34,2l-21,1h-50v-29l1,-1v-21l-5,-3l-3,-7l4,-2l2,-10l-3,-9v-1l-1,-1v-2v1v-1l-1,-2v-6v1v-2h1h-1h1l-1,-2l-1,-1v-1h1h-1h1v-1h-1h1h-1v-1h1h-1h1h-1h1v-1h-1h1h-1v-1h1h-1h1h-1h1h-1h1h-1h1h-1v-1v1v-9v1v-3v1v-1l-1,-4v-1h-1h1h-1v-2h-1h1h-1l-3,-10l1,-1v-2v1v-2v1v-4v1v-7v1v-1l1,-1l-1,-2v-1h-1h1h-1v-3h-1h1h-1v-3h39v-10l6,1l3,16l8,3h8v3l12,-4l13,5l2,7l2,-4l11,4l3,4l7,-3l6,-4l2,5l14,-1l1,2ZM1116,209h0ZM1108,200l1,2v1v-1v1h2h-1h1l3,4v1l1,1h1l-1,6h1h-1l-6,3l-1,4l-24,5l-1,-1l-2,-11l1,-17v-17l6,-5v-6l-1,-10l1,-8l4,-1v-1v1l7,18l4,16l5,12ZM46,185v-1h1ZM47,184h-1h1ZM46,184h0ZM46,184h0ZM47,184h-1h1ZM51,176l-1,-1h1ZM70,124h1h-1ZM87,115v1l-1,-1ZM79,112h1h-1ZM78,111h1h-1ZM78,111h0ZM78,111h0ZM80,112h1h-1v-1ZM80,111v1h-1v-1h1h-1ZM81,111v1h-1v-1v1v-1ZM78,111v1h3v-1h2v1l1,1v1l1,1h1l1,1v-1h1l5,4v14l4,2l2,2l9,-2l8,1l5,5l13,-1l2,2l19,-1h13l37,9l1,5l4,4l1,4l-11,15l-1,1l1,-1l-1,1l-11,13l3,5l2,5l-5,8l-10,49l-37,-8l-23,-6l-19,-5l-42,-13l-23,-5v-1l-1,-2v-11l2,-2l-1,-10l3,-2l4,-9l5,-1v1v-1v1l1,-1h-1h1h-1l-1,-3l5,-6l1,1v-1h-1l3,-6h1h-1l2,-9l5,-9v-4l5,-9l2,-9l3,-5h1h-1l1,-8l3,-5ZM80,111h1h-1ZM84,112v1l-1,-1h1ZM82,111h0ZM82,111h-1ZM80,111v-1v1ZM82,111h0ZM83,111h1l-1,1ZM82,111h1ZM74,108h-1ZM84,114v-1v1h1v1h1h-1l-1,-1v-1ZM84,113v-1v1ZM76,102h-1h1v1l-1,2v-3ZM78,91l1,-1l-1,1ZM81,90h1h-1ZM105,91h1l-1,1ZM105,91h-2l1,-1h1ZM101,90l-1,-1v-1h1ZM105,89l1,1h-2ZM106,88l1,1v1h-1ZM102,88v2h-1v-3l1,-1h1v1ZM103,86h0ZM103,86l1,-1l-1,1ZM109,88v-2l1,-1v-1l1,-1ZM111,80v1v-1h-1v-2l1,-1h1ZM120,71h0ZM111,68h0ZM75,54v-1v1ZM116,59l1,3l-3,7h3h-4l-1,-7l3,-4l1,1v-1ZM112,55h1ZM110,53h0ZM110,53v-1v1ZM112,55h1h-3l1,-2l1,-1ZM114,52v2h-1v-2ZM118,55h-2v-1l1,-1ZM111,51v1h1h-1v1v-1h-1v-1v1v-1ZM109,50h1v1h-1v-1h1ZM108,50h1v1l1,1v3l-3,-4v-1v1v-1ZM108,48h-1h1ZM107,48h1v1l-1,-1ZM115,50h0ZM115,50h0ZM114,52h-3h1h-1v-1h-1v-1v1v-1l1,-1ZM117,50l1,1v1h-1v-3ZM115,58v-2l1,-1h1l1,1l3,-1l-3,-5h-1v-1l1,-7l18,5l23,7l25,5l11,4l25,5l-7,33v5l-5,17l-3,13v14l-37,-9h-13l-19,1l-2,-2l-13,1l-5,-5l-8,-1l-9,2l-2,-2l-4,-2v-14l-5,-4h-3v-1l-1,-1v-2h-2l-2,-1l-6,-2l-1,-1l2,-5v3l1,-2v-1l2,-5l-1,-7v1h1l1,-1h3h-1l-4,-4v-23l-2,-9v-1l2,-6l3,2l8,8l7,2l11,6l5,-1v8l-6,3l3,2l4,-6v6h-1l-1,1v2h1v3l-1,1v1l-1,1v1l-2,2l-1,-1v-2l-1,3l-1,1l-1,-2v-1l1,-2l-1,1h-1h1h-1l-1,1v1h-1v1l1,1h1l1,1l2,1l4,-4h4l1,-7v1v-1l1,-6l5,-4l-1,-6l-2,4v-11h-1ZM-26,764h0ZM-21,766v-1ZM-19,765h1v1h-1ZM-18,765v1v-1h-1ZM-26,764h0ZM-16,765h-1h1ZM-21,765v1l-2,-1v-1v1v-1v1v-1ZM-17,763v1v-1v1v-1v1h-1ZM-6,766v1v-1h-2v1v-1l-6,-1h5l1,1v-1v1v-1ZM25,767h0ZM19,767v-1h1ZM25,767h0ZM25,767h0ZM20,766h-1h1ZM29,767h0ZM29,767h0ZM25,767l8,-5v3l-8,2ZM44,762h-1v1v-1h-1h1v-1l1,1v-1ZM41,761v-1v1h1ZM43,761v-1v1ZM41,760v1h1l1,-1v1h-1v1h1v1l-5,2h-5v-1l6,-2ZM65,759h0ZM65,759h0ZM63,759h0ZM63,759h0ZM233,739h0ZM233,739h0ZM240,736h0ZM232,738h0ZM84,756h0ZM231,739l1,1l-1,-1v-1ZM237,736h0ZM232,738v-1v1ZM84,756h0ZM237,736h0ZM66,754h0ZM230,738v1v-1ZM66,754h0ZM239,735l1,1h-2v-1v1v-1h1ZM235,736h0ZM235,736h0ZM61,752v3h1l-10,3l3,-5ZM229,737v-1v1ZM229,736v1v-1ZM70,752l1,1h-2v-1v1v-1ZM230,736h1v2l-1,-1v-1ZM229,736h0ZM231,735h0ZM83,754v1v-1v1v-1h-1h1h-1v-1h1ZM229,736v1h-1h1l1,1v1h1l1,1h-2v-1l-3,-3h1ZM229,736h-1h1ZM236,733h0ZM237,733h1v2l-1,1v-2l-1,-1h1h-1ZM63,751l1,-1ZM236,733v-1v1ZM226,736h1v1ZM229,735h0ZM77,752h0ZM229,735h-1h1ZM228,735h-1h1h-1ZM233,733h0ZM233,733h-1h1ZM77,752l-1,-2ZM226,735h0ZM235,732h1v3h-1h1h-1v-3ZM226,735h0ZM225,735h1v1ZM228,734h0ZM228,734h-1h1ZM227,735h-1ZM239,730h1l-1,1h1h-1ZM227,734v-1v1ZM234,731h0ZM234,731h0ZM226,734v1h-1v-1ZM234,731v1v-1ZM78,749v1v-1ZM224,734h1v1h-1ZM235,731h0ZM235,731h0ZM226,733v2v-1h-1ZM235,731h0ZM235,731h0ZM227,733h0ZM227,733h0ZM227,733h0ZM230,731h-1h1ZM226,732v-1v1ZM84,748h0ZM85,748h-1ZM224,731v1h1v-1v1h-1h1l-2,-1h1v1ZM233,728h0ZM86,747l-1,1v-1ZM225,731h-1h1ZM225,730v1v-1ZM234,727v1v-1ZM225,730v1v-1v1h1h-1ZM231,728h0ZM225,730h0ZM225,730h0ZM225,730h0ZM225,730h0ZM225,730h0ZM225,730h0ZM236,726l1,1h1v1h1v2v-1v4l-1,-1l-1,1v-2h-1v1l1,1h-1v-1h-2l1,-1l-1,-1v-1v1v-3h1v-1v1v-1ZM225,730h-1h1v1h-1v-1v1v-1ZM224,730h0ZM224,730h0ZM235,727h-1l1,-1ZM231,727h0ZM99,746h0ZM231,727h-1h1ZM226,728h1h-1ZM231,727h0ZM98,746h1h-1h1ZM229,727h-1h1ZM99,746h0ZM231,727h0ZM231,727v-1v1ZM231,726v1h1h-1h1h-1ZM99,746h0ZM226,727h1l-1,1v-1v1ZM223,728h1l1,1v1h-1l-1,1h-1v-2l1,-1ZM225,727h0ZM225,727h1h-1ZM226,726v1h-1v-1ZM220,728v-1v1ZM228,724v1h1v1h1h-1h2v1v-1v1h-1v-1v1h1v1v-1v1v-1v1h-1l-1,-1h-1v1v-1h-1v-1l1,-1ZM225,726v1h1h-1l1,1h1l3,3h-1h1l2,1h1h-3v1l1,-1h1v1h-1h2l1,1l-1,1h1v-1v1h1l-1,1h1v1l-1,2h-1h1l-1,-1h-1h1l-1,-1v1v-1v1v-1l-1,-1v1v-2v1h-3h1h-2v-1h2h-1v-1h-1v-1h-2v-1h1v-1l-1,-1v-1l-1,-1h-2ZM219,727h0ZM228,724v1h-1l1,-1h-1ZM219,727v-1v1ZM219,727h-1h1ZM226,724h1v2h-1v1v-1v1v-1h-1v-2ZM219,727v-1v1ZM224,724v1v-1ZM218,727h0ZM218,727h0ZM218,727h0ZM218,727v-1v1ZM230,726h-1v-1l-1,-1h1h-1v-1h1v1h2v2v-1v1v-1v1h-1ZM227,723h0ZM227,723h0ZM224,724h0ZM224,724h0ZM227,723h0ZM228,723h-1h1ZM227,723h0ZM113,742v-1v1v-1ZM113,741h0ZM224,723h1v1h-1ZM228,722v1h-1v-1ZM113,741v1ZM227,722h-1ZM226,722h0ZM227,722h1h-1ZM113,740h1h-1h1h-1ZM213,726h0ZM223,722h-1h1ZM223,722h-1h1ZM213,726v-1v1v-1v1v-1ZM224,721l2,1h1v1l-1,1h-1v-1l-1,-1ZM217,723h0ZM217,723h0ZM219,722h0ZM218,722h-1h1ZM217,722h1ZM219,723h1v1h1h-1h1v1l-1,1l1,1h-1v4l-2,-4h2h-1v-1h-2h1v-1h-1h1h-1h1h-1l-1,-2h1h-1h1h-1h1v-1v1v-1h1l1,1v1ZM219,722h-1h1ZM100,737v-1v1ZM100,736h0ZM100,736h0ZM223,719l1,1v2l1,1h-2v-1h-1h1v1h1v2h-1l-2,1v-2h-1v-1v1v-1l-1,-1h-1ZM211,723v-1v1ZM211,722v1v-1v1v-1v1ZM211,722h0ZM211,722h0ZM211,722h0ZM211,722h0ZM118,735h1l-2,1ZM210,722h1h-1h1h-1h1h-1v-1ZM211,721v1h-1v-1ZM218,718h0ZM218,718h0ZM209,721v-1l1,1v1v-1h-1v-1ZM209,720v1h1v3l-2,-4h1v1ZM101,733h0ZM101,733h0ZM220,716h0ZM217,716v1v-1ZM214,718h0ZM214,718v-1ZM214,717h0ZM114,732l1,1h-1ZM214,725v1h-1h1h-1v-1h1h-1h1h-2v-2h-1v-2h-1l-1,-1v-1l1,-1h1l2,2l1,2v4ZM206,719h0ZM206,719h1h-1ZM208,717l1,1l-1,-1ZM205,718h1h-1ZM117,730h0ZM117,730h0ZM218,714l-1,-1h1ZM123,729h0ZM123,729v1v-1ZM123,730h-1v-1h1ZM214,713h1h-1l1,1h-1ZM122,728h0ZM119,728h-1h1ZM122,728h0ZM117,727l1,1v1h-1l-1,-1ZM118,727v1h4v1h1h-1h1h-1v2v-1v1l1,2l-4,2h-1l-1,1l-3,4h-1v-3l-3,-5l3,-1h1v2h1l-1,-1v-2l2,-2v2h1h-1h1v-1h1v-1v1v-2h-1ZM119,727h1h-1ZM109,727h-1h1ZM203,714l1,1v1h-1ZM119,727h-1v-1ZM203,713h0ZM203,713h0ZM210,711h-1h1ZM203,713h0ZM203,713h0ZM207,714l1,-1h1l2,5h-2l-1,-1l1,1v2h-1l-1,-1h-1v-1h-1v-1v1v-1l-1,-1v-1l-1,-1v-1h2v-1l3,1v-1v1l-1,1ZM205,712v1h-1v-1h1ZM211,710h0ZM214,710h-2ZM120,724h-1ZM211,710v-1v1ZM206,710l1,1h-1ZM210,710h1h-1h1l1,1l2,-1v2h1v2v-1h-1v-2v3v-1v1h1l2,2v1l1,1h-2l1,1l-3,3v-5v1v-1l-2,-6h-2v-2ZM122,723h0ZM122,723h1h-1ZM121,723h-1h1ZM210,709h-1h1ZM121,723h-1h1ZM123,723l-2,4h-2l-1,-1l1,-2h1v-1h2h-1l1,1v-1h1ZM211,709v1h-1v-1ZM205,710h-1h1h-1h1ZM205,710h0ZM205,710h0ZM205,710h0ZM205,710v-1v1ZM204,709v1v-1ZM204,709h0ZM204,709h1h-1ZM204,710l-1,-1h1ZM203,709h0ZM203,709h0ZM121,722v-1v1v-1v1v-1h1v2h-1v-1ZM209,707h0ZM204,709h0ZM204,709h-1h1ZM203,709h0ZM203,708h0ZM203,708v-1v1ZM208,705h1h-1ZM204,706h0ZM207,705h-1v-1v1ZM206,703h0ZM129,714v-1ZM125,712h0ZM125,712h1h-1ZM184,704v1v-1ZM184,704h0ZM184,704h0ZM184,704v-1v1ZM184,704v-1v1v-1ZM184,703h0ZM184,703h0ZM184,703h0ZM135,710h0ZM135,710h0ZM184,703h0ZM135,710h0ZM184,703v-1ZM63,706v-1ZM146,707h0ZM134,708v-1v1ZM136,707v1v-1ZM175,702h0ZM161,704h-1h1ZM143,706l-1,1v-1v1v-1h1ZM160,704v-1v1ZM143,706v-1ZM143,706h-1v-1h1v1v-1v1h-1ZM142,704v2h-1h1h-1h1v-1v1v-1l-1,1v-1v1v-1h1ZM73,703h1l-1,1v-1ZM157,702h-1h1ZM157,702h1h-1ZM143,703v1v-1ZM146,703h-1h1ZM146,703h-1ZM156,702h0ZM156,702h-1h1ZM156,702h0ZM156,702v-1v1ZM155,701h1l-1,1v-1h1ZM156,701h0ZM156,701h0ZM146,707v-4ZM142,702h1v1h-1v-1v1ZM153,701v1v-1h-1ZM156,701h0ZM156,701h-1ZM157,700v1v-1ZM58,703h-2h1h-3l-5,-4l6,-1ZM156,700h1h-1ZM156,700v1v-1ZM157,700h0ZM157,700h0ZM157,700h0ZM157,700h0ZM157,700h0ZM157,700h0ZM157,700h0ZM157,700h0ZM157,700h0ZM157,700h0ZM157,700h0ZM157,700h0ZM157,700h0ZM156,700h0ZM144,701h0ZM157,700h-1ZM143,703v-1v1v-1h1h-1v-1h1v1h-1h1h-1h1v-1v1v-1v1v-1v1l-1,2ZM144,701h0ZM153,700l-1,1h-1l2,-1v-1ZM142,700h-1h1ZM145,699h0ZM139,700h0ZM145,699h0ZM142,699h1h-1h1v1h-1v-1v1ZM141,699h1v1h-1h1h-1v-1v1ZM143,698h0ZM143,698h1h-1ZM148,697h0ZM62,695v-1v1ZM148,697h0ZM148,697h0ZM62,694h1v2h1v1h1h-1h1h-1v1h-1v3l-4,-4l3,-2ZM67,695v1h-1ZM142,697v1h-1h1v-1h-1ZM147,696v1l-1,-1ZM59,689h0ZM64,678v1v-1ZM64,678v-1v1ZM64,677h1v1h-1ZM65,677h-1h1ZM65,676l1,1h-1v1v-1ZM65,676h0ZM67,674l1,2l1,1v2h-1l-3,-3l1,-2ZM67,674h-1ZM71,674v1v-1v1l-2,1h-1l-1,-2ZM40,663h0ZM39,662h0ZM39,662h-1h1ZM38,662h1l1,1l10,5l-5,1l-5,-5ZM60,645h-1v1v-1h1ZM85,646h0ZM85,646h1h-1ZM86,646h0ZM86,646v-1v1ZM65,642l-1,1h-1ZM66,642h0ZM66,642h0ZM66,642l1,-1l-1,1ZM67,641h0ZM67,641h1h-1ZM68,641h0ZM90,643h-1h1v-1ZM71,640l-1,1h-2h2ZM86,642v-1v1ZM80,637v-1v1v-1ZM74,629v-1v1ZM82,614v-1v1ZM82,613v-2ZM156,609l-2,-1l2,1ZM154,608h0ZM154,608v-1v1ZM145,608h-1h1ZM147,607h0ZM148,607v-1v1ZM148,607h-1h1ZM148,606h1h-1ZM136,607h0ZM136,607h0ZM136,607v-1v1ZM87,606v-1v1ZM137,606h0ZM137,606h0ZM133,606h1h-1ZM87,605h1l1,1h-1v-1h-1v1ZM135,605h0ZM135,605h0ZM125,606h-1ZM126,605h-1v1v-1ZM124,606h1v-1v1ZM125,605v1v-1ZM125,605v1h-1v-1ZM129,605h1h-1v-1ZM108,600v1v-1ZM110,599h0ZM110,599h0ZM110,599h0ZM205,710v-1h-1v-1l-1,-1l1,-1l-1,1v1l-3,-1h-1l4,2v1v-1v1h1v2l-1,1h-1v1l-1,-1l-5,-2l-5,-4h-1l-4,-1l-1,-1h-1v-5l-3,3l-6,-1h-8l-6,2h-1v-1l-2,-1l-1,-1v-1h-1v1h-1h1h-4l1,-1v-1l-1,-1h-2l-2,-1l-1,-1v1v-1h-1v1v-1v1h-2l-1,1h-1v-1h-1v1v-1v1l-2,2h2v-1v1l2,1v1h-1v3v-1v1h-1v1l-5,1v1v-1l-1,2v1v-1v1v-1v1v-1l-1,-2v3l-1,-1l-2,4v-2v2v-2l-2,2v1l-5,1l-1,-1h1h-1l3,-2l1,-1h-3l2,-11l9,-8l-8,3l-7,11h1l-4,5l-4,3v1l2,1l2,2l-1,3l-3,3h-1h1h-1h1h-1h1l-2,3h-3l-7,6h-1h1v2l-1,1v1h-1l-10,6l-2,3l-1,1h-2h1h-1v1v-1h-1l-5,2v1h-2l-3,1l-2,-2l-1,3h-1v1l-4,-2v-1v1l-3,4h-1v-3l2,-1l1,-1h1v-1l9,-4h2h-1h1l-1,1h1l3,2v-6l10,-5l5,-6l2,-6l2,-7l-5,2l-1,-4l-4,2l2,3l-8,-4h-3v1v-1l-5,2l2,-5l-3,-10l1,-1h-1l1,-3v-1v1l-2,5h-9v-7h1v-1h1l2,-1h-1h1v-1l-1,1h-2l-1,-1v-1h-1l1,-5h-4l-1,-4l6,-6v-1h1l1,-1l2,2h1v-2l-1,-1h1l2,-1v-1l6,-3h2h-1l1,1l6,-3l-2,-6l2,-5l-9,4l-2,-2h-8l-4,-3l1,-7l-5,-5h1h-1l1,1l2,-2h2v-1h1l1,-1l3,1l-2,-1l1,-1h3l1,-1l3,4l1,1l7,1v1v-1v1l1,-1l3,-1v1h-1h1v-1l-1,-3h1l3,1h1h-1h1v-1l-1,-1h-3v1h-1l-1,-4v-1h-4v-1v1l-4,-2l-2,-6v-1l-5,-7l1,-4l7,1l5,-4v-3l2,-2v-1v1v-1l2,-2h1v-1h1l-1,1h1h-1h1h-1v1l3,-1l1,-1h2v1v-1l3,-4l4,1l6,-5l1,1h1v3l2,-2l7,2l1,1v-1v1v-1v1v-1l1,3l2,1h3v1h1l1,-1h5l2,1h1l2,1h5l3,1h1l2,-1h1h-1h1v-1v1v-1v1v-1v1v-1h3l2,1l1,1l2,1h2l7,33l2,15l9,41l8,-2l1,4l9,5l2,3l4,-3l3,-8l4,4l10,6l9,8l4,6l12,2l2,7l-1,6l-4,-3v-1l1,-1v-1h-1v-2h-1v-1h-1l-1,-1h-1l-2,2h1h-1h1h-1h1v3l-3,-1v-2l1,-1l-1,-1v-2h-2h1h-1v-1h-1v-2v1h-2l-1,-2l-1,-1h-1h1h-2l-2,-1l1,-1l-1,-1h-1l-1,-2h1l-1,-1v1v-1h-1l-2,-1l-1,-1v-1h-2l-1,-1h-1v-1l-1,-1v-2h-2v-1l-1,-1v2h1l1,2v1v-1v1l2,2v1v-1v1h-2l-2,-1v1l-1,-1Z"/></g><g class="president-cartogram"><path class="AL" d="M726,508h90v90h-90Z"/><path class="AK" d="M100,730h52v52h-52Z"/><path class="AR" d="M578,430h73v73h-73Z"/><path class="AZ" d="M234,504h99v99h-99Z"/><path class="CA" d="M4,360h222v222h-222Z"/><path class="CO" d="M340,412h79v79h-79Z"/><path class="CT" d="M1144,196h79v79h-79Z"/><path class="DC" d="M890,336h52v52h-52Z"/><path class="DE" d="M1048,378h52v52h-52Z"/><path class="FL" d="M780,634h162v162h-162Z"/><path class="GA" d="M822,508h120v120h-120Z"/><path class="HI" d="M160,730h60v60h-60Z"/><path class="IA" d="M468,170h60v60h-60Z"/><path class="ID" d="M230,176h60v60h-60Z"/><path class="IL" d="M534,176h134v134h-134Z"/><path class="IN" d="M674,208h99v99h-99Z"/><path class="KS" d="M432,344h73v73h-73Z"/><path class="KY" d="M686,312h85v85h-85Z"/><path class="LA" d="M604,588h85v85h-85Z"/><path class="MA" d="M1100,90h99v99h-99Z"/><path class="MD" d="M948,336h95v95h-95Z"/><path class="ME" d="M1230,4h60v60h-60Z"/><path class="MI" d="M714,76h120v120h-120Z"/><path class="MN" d="M466,76h60v60h-60Z"/><path class="MO" d="M514,316h95v95h-95Z"/><path class="MS" d="M646,508h73v73h-73Z"/><path class="MT" d="M286,76h52v52h-52Z"/><path class="NC" d="M948,436h116v116h-116Z"/><path class="NE" d="M400,240h67v67h-67Z"/><path class="ND" d="M374,76h52v52h-52Z"/><path class="NH" d="M1164,24h60v60h-60Z"/><path class="NJ" d="M1026,196h112v112h-112Z"/><path class="NM" d="M340,498h67v67h-67Z"/><path class="NY" d="M932,28h162v162h-162Z"/><path class="NV" d="M234,334h73v73h-73Z"/><path class="OR" d="M140,220h79v79h-79Z"/><path class="OH" d="M780,202h99v99h-99Z"/><path class="OK" d="M492,424h79v79h-79Z"/><path class="PA" d="M886,196h134v134h-134Z"/><path class="RI" d="M1228,184h60v60h-60Z"/><path class="SC" d="M948,558h90v90h-90Z"/><path class="SD" d="M374,158h52v52h-52Z"/><path class="TN" d="M686,402h99v99h-99Z"/><path class="TX" d="M414,510h185v185h-185Z"/><path class="UT" d="M260,424h73v73h-73Z"/><path class="VA" d="M834,394h108v108h-108Z"/><path class="VT" d="M1106,24h52v52h-52Z"/><path class="WA" d="M120,76h104v104h-104Z"/><path class="WI" d="M568,76h95v95h-95Z"/><path class="WV" d="M808,320h67v67h-67Z"/><path class="WY" d="M312,254h52v52h-52Z"/></g></svg>