<?xml version="1.0" encoding="utf-8"?>
<!-- Generator: Adobe Illustrator 19.1.0, SVG Export Plug-In . SVG Version: 6.00 Build 0)  -->
<svg version="1.1" id="Layer_1" xmlns="http://www.w3.org/2000/svg" xmlns:xlink="http://www.w3.org/1999/xlink" x="0px" y="0px"
	 viewBox="323 -200 1294 800" style="enable-background:new 323 -200 1294 800;" xml:space="preserve">
<style type="text/css">
	.st0{font-family:'ArialMT';}
	.st1{font-size:12px;}
</style>
<g>
	<path d="M1062,260v1V260v1h2h-1h1l-7,12l15-1l1,3v-1v1v-1l-6,6l-2,9h-2h2l-1,2v6l-4,4v4v-1v1l-5,4v1v-1v1l-2,9l-3,6l-3,5l-3,6l2,3
		l-3,5v1v-1l2,1v1h-1l1,1v-2v6h1l-2,7l-29,1l-38,1v-15l-5-1h-1l-1,1h-2h1l-1-1v1v-1h-1v-1v1v-1h-1v-56l-4-25l38-1l62-2V260z"/>
	<path d="M644,228v1l-3,14v7l-3,14v6l-7,50l-4,27v7l-3,14l-2,18l-48-6l-81-48l3-6h5v-1v1v-1l2-7l-3-1v-10h2l4-3l1-9l2-4l2-2l3-2l4-1
		l-5-6v-6l-3-11l3-4v-19l1-1v-5l3-2l6,1l4,4l4-5l1-10l3-12l30,6l45,7l10,2L644,228z"/>
	<path d="M763,128l25,2l17,1l-2,28l-1,25l-2,19v14l-2,27l-21-2l-42-3l-44-4l-3-1l-44-5v-1l1-13l3-14v-10l3-20l3-14l2-20l2-14v-6
		l30,3l30,4L763,128z"/>
	<path d="M1027,62h1v5l4,16l8,3l1,3l5,4v4l5,3v9l-2,6l-7,4l-8,2v6l3,2v6l-3,7l-5,1l-1,7v1v-1h-1v1v-1h-1v-1v1v-1l-6-5l-52,3h-32
		l-2-5l-1-12l-1-3h1h-1h1l-1-5l-3-4v-10l-2-2l-3-4v-9h-2v-1h-1h1l-2-4l-2-2h1h-1h1l1-2v-1v1v-1l2-11l-2-1v-1v1v-1l-1-5h53l21-1
		L1027,62z"/>
	<path d="M1099,86v7l4,4l4,11l1,16l3,34v17h-1h1h-1v4l3,7v1v-1v1l1,1l-3,9l-3,7h-1v1v-1v1h-1v1v-1v1l1,2l-1,1l-1,3l-1,4l1,1v1v-1v1
		h1l-3,4l3,5l-8,3l-1,10l-10-4h-1h1h-1l-5,6l2,1l-2-1l-5-3l-2-15l-8-6l-9-4l-4-4v-5l4-6l1-7l-8-3l-3,3l-2-11l-8-5l-7-7l-4-10l1-8h1
		v-1l1-7l5-1l3-7v-6l-3-2v-6l8-2l7-4l2-6v-9l-5-3v-4l-5-4L1099,86z"/>
	<path d="M1163,102l1,4l4,42h1l1,26h1h-1v10l-6,3l-5-1v8l-8,7l-1,7h-7h1h-1l-3-1l-4,7l-3-3h-1h1h-1l-8,5l-5-3l-5,1l-1,2h-1h1h-1
		l-4-2l-2,4h-1v-1v1v-1l-1-1l1-4l1-3l1-1l-1-2v-1v1v-1h1v-1v1v-1h1l3-7l3-9l-1-1v-1v1v-1l-3-7v-4h1h-1h1v-17l-3-34l-1-16h9l5-3l33-4
		L1163,102z"/>
	<path d="M919,163v1V163v1h27l7,2l2,3l-1,2h-1l-2,4l4,8l4,4h1h-1h2v61h-79l-46-2h-14l-24-2l2-27v-14l2-19l1-25l45,3h35v1H919z"/>
	<path d="M1026,149v1V149v1h1v1v-1h1v1h-1l-1,8l4,10l7,7l8,5l2,11l3-3l8,3l-1,7l-4,6v5l4,4l9,4l8,6l2,15l5,3l2,1l-1,12l-4,2l-1,1h-1
		l1-1h-2l1,1v6h-3l2,4l-3,4l-15,1l7-12h-1h1h-2v-1v1v-2l-62,2l-38,1l-1-14v-61h-2h1h-1l-4-4l-4-8l2-4h1l1-2l-2-3l-7-2l-5-8l-4-7v-1
		v1v-1l-1-1h32l52-3L1026,149z"/>
	<path d="M882,80l7,5l4-3l6,1l4-1v1v-1v1h1l13,5l5,5h2v9l3,4l2,2v10l3,4l1,5h-1h1h-1l1,3l1,12l2,5l1,1v1v-1v1l4,7l5,8h-27v-1v1v-1
		h-36v-1h-35l-45-3l2-28l-17-1l-25-2l1-18l4-38l44,3l43,3h25L882,80z"/>
	<path d="M777,242l-1,14l-2,8l-1,23l-3,29l-4,45l-1,22l-35-3l-49-5l2,6l-31-4h-9l-1,11l-20-2l2-18l3-14v-7l4-27l7-50v-6l3-14v-7
		l3-14v-1v1l44,5l3,1l44,4L777,242z"/>
	<path d="M561,72l-6,34l-3,10l-1,10l-4,15l-4,25l-8,44l-3,12l-1,10l-4,5l-4-4l-6-1l-3,2v5l-1,1v19l-3,4l-20-32l-2-1l-27-42l-11-15
		l-26-41l-4-4l4-19l5-16l2-10l10-38l23,6l37,8l36,8L561,72z"/>
	<path d="M961,248l1,14l4,25v56h-1v-1v1l-1-1h1h-1l-1-1v1v-1v1l-3-1v-1v1v-1h-1l-2-2h-1h1l-1-1v1v-1l-3-1v-1v1l-1-1h1h-5l-1,1h-3
		l-2-1l-6,2h-7l-4,2l-14-2l-3-3l-1,3l-3,4l-3-5h-1v1v-1v1l-4-2h-6l-4-2l-3-5h-4l-5,2l-4-2h-4v-1v1v-1l-3-1h-3v-1v1v-1h-1l-3-5l-2-1
		l-1,1v1v-1v1h-1v-1v1v-1h-5l-7-8v-22l1-4v-20l1-6l-47-2l-19-2l1-14l21,2l24,2h14l46,2H961z"/>
	<path d="M1204,242l12-2l33-5v2l-1,3v2v-1v1l-1,1l-4,7h-6v1v-1v1l-4,4l-2-2l-7,5l1,1v1v-1v1l-13,10h-5l-6,5l-1,6l-4,1v7l-29,3l-27,3
		h-5l-26,3h-14l-35,3l4-4v-6l1-2h-2h2l2-9l6-6v1v-1v1l-1-3l3-4l-2-4h3v-6l-1-1h2l-1,1h1l1-1l31-2l-1-5l4,1l28-4l25-1l19-2L1204,242z
		"/>
	<path d="M622,82v5l-4,19v4l40,7v6l-2,14l-2,20l-3,14l-3,20v10l-3,14l-1,13l-24-3l-10-2l-45-7l-30-6l8-44l4-25l4-15l1-10l3-10l6-34
		l27,5L622,82z"/>
	<path d="M1256,119l4,25l22-3l3,14l3-4l2-2v-1v1v-1l1-2h3h-1h1l2-5l1-1l-1,1h1v-1v1h7l1-2h1l5-3l4,2l2,2h1h-1h1l3,5l-1,6l-13-8v9
		l-3,5v1l-3,2l-2,5l-3-1l-3,7l-1,5l-8-2h-1h1h-1h1h-1h1l-1,4v1l-3,8l-5,9l1,6l-6,5l-14,9h-6v1v-1v1h-1v1v-1v1l-8-2h-1h1h-1v-2h-1h1
		h-1h1h-1h1h-1h1l-2-1v-1v1v-1l1-1v-1v1v-1h-3l-3-1v-1v1v-1h-2v-1v1v-1l-3-4l-2-2l-1-2l-4-11v-1v1l6-2l3-4l-1-8l2-5l2,4l3-3v-8l5-6
		l3,2l9-9v-9l2-8v-13H1256z"/>
	<path d="M562-128l-3,10l-3,20l3,3h-1h1h-1l2,10l-2,1l7,6l5,11v1l4,7l6,1l-3,9l-3,4v4l-3,10l-1,2v1v-1v1l6,2h2v-1v1v-1l4-3l2,5l1,2
		v6l4,6l-1,3v4l5,1l2,12l4-2l7,3l2-3h1l2,1v1V8v1h3l4,1h7V9l2-3l6,8l-5,25l-1,12l-5,31l-34-5l-27-5l-24-5l-36-8l10-49l5-8l-2-5l-3-5
		l11-13l1-1l-1,1l1-1l11-15l-1-4l-4-4l-1-5v-14l3-13l5-17v-5l7-33L562-128z"/>
	<path d="M781-95l-2,23l-1,23l-1,12v11l-2,15l-2,27l-51-5l-27-4l-21-2l-8-2l-24-2l-7-2l-2,15l-6-8l-2,3v1h-7l-4-1h-3V8v1V8l-2-1h-1
		l-2,3l-7-3l-4,2l-2-12l-5-1v-4l1-3l-4-6v-6l-1-2l-2-5l-4,3v1v-1v1h-2l-6-2v-1v1v-1l1-2l3-10v-4l3-4l3-9l-6-1l-4-7v-1l-5-11l-7-6
		l2-1l-2-10h1h-1h1l-3-3l3-20l3-10l17,4l68,13l34,4l11,2l14,2l48,5L781-95z"/>
	<path d="M908-89v3h1h-1h1v3h1h-1h1v1l1,2l-1,1v1v-1v7v-1v4v-1v2v-1v2l-1,1l3,10h1h-1h1v2h1h-1h1v1l1,4v1v-1v3v-1v9v-1v1h1h-1h1h-1
		h1h-1h1h-1h1h-1v1h1h-1h1v1h-1h1h-1h1h-1v1h1h-1h1v1h-1h1h-1v1l1,1l1,2h-1h1h-1v2v-1v6l1,2v1v-1v2l1,1v1l3,9l-1,5l-3-1h-33l-29-1
		l-12-1l-21-1l-9-1l-37-2l-1-1l2-15v-11l1-12l1-23l2-23l35,3l43,2L908-89z"/>
	<path d="M920-3l-1,5l-4,2l3,7l5,3v21l-1,1v29h-3l1,5v1v-1v1l2,1l-2,11v1v-1v1l-1,2h-1h1h-1l2,2l2,4h-1h1v1l-5-5l-13-5h-1v-1v1v-1
		l-4,1l-6-1l-4,3l-7-5l-2-2h-25l-43-3l-44-3l5-56l2-27l1,1l37,2l9,1l21,1l12,1l29,1h33L920-3z"/>
	<path d="M1410-40l1,10v6l-6,5v17l-1,17l2,11l1,1l-16,4l-2-5l-3-17l-3-2l-1,2V6l-3-10v-10l-3-6l-1-10L1410-40z"/>
	<path d="M773,16l-5,56l-4,38l-1,18l-45-4l-30-4l-30-3l-40-7v-4l4-19v-5l5-31l1-12l5-25l2-15l7,2l24,2l8,2l21,2l27,4L773,16z"/>
	<path d="M1332,526v1l-3,6l1,7v1v-1v1l-1,2v1h-1v1l1,1l-1,2h-5l-1,1h-2l-3,1h-1l-7-1l1-4h1v1v-1h-1l1,1v-1v1h1v2h3v-2l-1-1h-4l-3-5
		l1-1h2h-1h1l1,1v-1h-2v-1v1v-1l-2,2l-2-2v-1l-1-1h1v-1h1v1h1h-1h1v-1h-1h1h-3v1l-2-1v-2h-1l-1-1h-5h1h-1h1h-1v-1l1,1l-1-1h-1h1h-1
		h1v1h-1v-1h1h-1h1h-1h1h-1h1h-1v1v-1h-2v-1l1,1l-1-1h-1h1h-1h1h-1v-2v1v-1v1v-2h-1l-3-8v-1h-3l-3-3v-2h-1v-1l1-8v-1v1l-4,5h-2l-2-2
		v-1h-1v-1h-1l-2-3v-1v1v-1v1v-1l-2-2l-1-2v-1l-4-3l2-5l3-6v-2l-1,1v1l-3-4l-2,8l-1-1v-1h-1l-2-5l1,1v-23v1v-1l-1-1v-1l1-2h-1h1h-1
		l-2-3l-2-4l-5,1h-1l-1-1v-1v1v-1l-2-1h-1l-6-6l-1-4l-6-6l-9-4l-5,1h-1l-3,2l-13,10h-1h1l-4,1l-2,1l-10-8l1-2l-5-2l2-3h-6l4,4l-8-4
		l-12-1l11-1l-4-3l-9,2l1,2h-6l-2,1l-6,1l4-2l-5-3l-3,6v1h-4h2l-1-2l2-2h-1v-6l-6-3v-6l12-1l44-4l6-1l4,8l20-2l25-1l18-2l1,4v2v-1v1
		h2l2-1l-1-7v-2h-1h1h-1l3-4l4,1h4l1,1h1l1-1l1,1h-1v1v-1v1v-1v1l1-1l1,5l-1-1v-1v1h-1v1h-1h1v1h1v-2h-1h1v2h1h-1h1v2h-2v1h-1v-1
		l-2,3l1,9l4,5l-2,6l1,6l1,1v-1l-2-5l3-4l-4-8v-11h2h-1h1v-1h1v1h1l1,2v1h-1l1,2l2,2v1l1,2v1h1v3l2,2v1h1v2h1h-1l1,1l1,4h1l1,3l1,1
		v1h1l1,3h1l1,1v1h1v2l2,2v1l3,3v-1l-1-2l1,2l5,5l1,5h-1h1h-1v-5v1l-1,5l1,2l-1-2l2,4v2l-4-7v-5l-4-2l8,14l1,1l1,2l1,1v1l2,2l1,2
		l2,2v1l1,1v1l1,1v1l1,1v2l1,2l3,3v2h1v1h1v1l1,1v1l1,1l-1-1l1,1l1,4v1l2,10V526z M1332,526l1,4l-1-1v-2V526z M1325,492v-1h1v2h1v1
		l1,1v1l1,1l-1-1v-1l-1-1v-1h-1h1h-1v-1H1325z M1332,531v-1h1L1332,531z M1332,530h1H1332z M1332,530v-1V530z M1323,488l3,3h-1v-1
		l-3-3l-1-2v-1L1323,488z M1332,541h-1H1332v-1V541z M1332,541h-1H1332v-1V541z M1332,541l-1,1l-1,4v1h-1h1h-1v1l-2,2l-3,4v-1l3-3
		v-1l1-1h1v-4l2-2L1332,541z M1317,476h1v1l1,1v1l2,4v1v-1l-1-1v-1l-1-1v-2h-1v-1v1v-2H1317l-1-1v-1L1317,476z M1330,541v-1l1,1
		H1330z M1330,547l-1,1v-1H1330z M1319,479l-1-1h1V479z M1317,476h1v1L1317,476h1H1317z M1309,462v-3h1l3,11l3,4l-3-3v-1v1v-1l-1-1
		l-1-2l-1-1v-2L1309,462z M1326,548L1326,548z M1326,548L1326,548z M1325,550L1325,550z M1325,550L1325,550z M1324,550L1324,550z
		 M1324,550h-1H1324z M1323,552L1323,552z M1323,550h-1v-1h1V550z M1323,552L1323,552z M1323,553L1323,553z M1323,553L1323,553z
		 M1323,553L1323,553z M1322,552h-1v-1L1322,552z M1321,549L1321,549z M1321,549L1321,549z M1320,552h1H1320z M1301,445l2,2h-1v-1
		L1301,445h-1H1301h-1l-1-1v-2h-1h1L1301,445z M1302,447L1302,447z M1302,447v-1V447z M1302,446h-1v1v-1H1302z M1301,446h1H1301z
		 M1301,445v1l-1-1H1301z M1317,550h1H1317z M1318,559v1V559z M1317,550L1317,550z M1318,559L1318,559z M1299,442h-1H1299z
		 M1298,442v-1l-1-1h-1l-1-3h-1v-1l-1-1l-1-3h-1l-1-4v-1h-1v-2l1,2v1l1,4h1l5,8l1,1V442z M1316,551L1316,551z M1315,561l3-1l-3,2
		V561z M1316,551v-1V551z M1314,546h-1v1h1h-1h1h-1h1h-1h1v1v-1v1v-1v1v-1v1v-1v1h1h-3h1v-2v1v-1H1314z M1314,546v1l1-1v1h-1V546z
		 M1314,545h-1H1314z M1313,545L1313,545z M1313,548L1313,548z M1312,547h1v1h-1V547z M1312,545L1312,545z M1312,546v1V546z
		 M1313,548h-1H1313z M1312,545L1312,545z M1311,539v1l-1-1H1311z M1312,546v1V546z M1312,545v1V545z M1310,539h1H1310z M1311,545
		L1311,545z M1310,539h-1H1310h-1H1310z M1311,545h-1H1311z M1307,535v1h-1L1307,535z M1287,423l1,1v1h1h-1v-1l-2-2v-2L1287,423z
		 M1305,535h1H1305h1H1305v1h-1v-1H1305z M1281,407l1,3l2,5l1,3l1,1v1v-1h-1v-1l-1-2v-1v1l1,2l-1-2v-1l-2-2l-1-2h1v-1l-1-2V407z
		 M1307,563v1V563z M1307,563v1l1,1h-2v-1l-1-1l1-1L1307,563z M1302,535L1302,535z M1302,535L1302,535z M1302,535L1302,535z
		 M1306,564v1V564z M1306,564v1h-1l-1-2L1306,564z M1300,533h1H1300z M1281,406v1h-1h1h-1v-1v1v-1H1281z M1306,565h-1H1306z
		 M1280,404v1h1v1h-1v-1h-1L1280,404z M1300,533v-1V533z M1300,533L1300,533z M1300,533L1300,533z M1300,533v-1V533z M1299,532h1v1
		h-1V532h-1H1299z M1304,565h1H1304h1H1304h1H1304z M1304,565L1304,565z M1300,533h-1H1300z M1304,565v-1V565z M1304,564v-1V564z
		 M1280,407L1280,407z M1304,564v1V564h-1H1304h-1l1-1V564z M1280,407h-1H1280z M1299,532h-1H1299z M1278,400v-1h1L1278,400z
		 M1303,564l1,1h-1V564z M1297,532h1H1297h2h-1v1v-1v1v-1v1v-1v1h-1l1-1H1297h1H1297h1H1297z M1299,533h-1H1299z M1279,407L1279,407
		z M1279,407L1279,407z M1278,403h1H1278v1h1v1h-1v-1h-1h1V403z M1277,398h1l-1,1h-1h1V398z M1300,567v1V567z M1301,567v-1l2-1
		L1301,567h-1H1301z M1279,407h-1H1279v1h-1v-1H1279z M1296,532h1H1296h1H1296h1H1296z M1297,532v1V532z M1297,532v1l-1-1H1297z
		 M1301,564L1301,564z M1301,564L1301,564z M1301,567L1301,567z M1296,532h-1H1296z M1301,567h-1H1301z M1299,565L1299,565z
		 M1292,531v-1V531h2v1h-1l1-1l-1,1h1v-1v1v-1v1h-2h1h-1l-1-2L1292,531l-1-1h1V531z M1300,567v1l-2,1l1-2H1300z M1293,532h1H1293z
		 M1299,565h-1H1299z M1291,528v1V528v2v-1V528z M1290,527h1H1290h1v1v-1v3v-2L1290,527z M1287,519L1287,519z M1287,519h-1H1287z
		 M1293,569h1l-1,1V569z M1293,570h-1H1293z M1281,515v-1V515z M1280,512l2,5l-1-2l-1-1v-1V512z M1280,513v1h1v-1v2l-1-1V513z
		 M1278,513L1278,513z M1278,513L1278,513z M1277,513L1277,513z M1277,513v1V513z M1277,514L1277,514z M1277,514L1277,514z
		 M1267,481v-1V481z M1267,482h-1v-1L1267,482z M1267,499l2,2v1v-1l-1-1L1267,499z M1266,497l1,2L1266,497z M1266,496v1l-1-1H1266z
		 M1265,496L1265,496z M1265,496L1265,496z M1262,493l3,3L1262,493z M1258,453L1258,453z M1258,453L1258,453z M1258,453h-1H1258z
		 M1258,458h-1H1258z M1260,485l1,1v1L1260,485z M1260,485v-1V485z M1259,484h1H1259h1v1L1259,484z M1260,485v-1V485z M1268,571
		L1268,571z M1268,571L1268,571z M1212,427L1212,427z M1199,437h-1H1199z M1195,438l1,2l-3-1L1195,438z M1158,423h1h-6l-3,1l-10,3
		v-1l4-1l6-1l2-1h3H1158z M1140,427h-2l-1,1h-1h1l1-1H1140z M1140,427v-1V427z"/>
	<path d="M892,529l1,1v2l3,10l-1,1h1h-1v1v-1v1v-1v1h1l-1,1l3,2v2l2,5v1l-1,1l1-1h1l-2,1h1l-1,1h1l1-1v-1h1l-2,2l-3,4l-11-7h-11
		l-6-5h-5l-3-4l-8-1l-5-14l-3-3l-2-17l-8-5l-4-10l-4-2l-3-9l-7-11v-6l-9-10l-4-2l-4-7l-16-2l-6-2l-1,2l-8,1l-12,20l-7-1l-8-8l-7-2
		l-5-6l-6-4l-3-8v-10l-3-3v-7l-11-8l-4-6l-5-3l-3-7l-5-1l-4-11l-3-1l-2-6l49,5l35,3l1-22l4-45l3-29l1-23l2-8l19,2l47,2l-1,6v20l-1,4
		v22l7,8h5v1v-1v1h1v-1v1v-1l1-1l2,1l3,5h1v1v-1v1h3l3,1v1v-1v1h4l4,2l5-2h4l3,5l4,2h6l4,2v-1v1v-1h1l3,5l3-4l1-3l3,3l14,2l4-2h7
		l6-2l2,1h3l1-1h5h-1l1,1v-1v1l3,1v1v-1l1,1h-1h1l2,2h1v1v-1v1l3,1v-1v1v-1l1,1h1h-1l1,1v-1v1h2v1v-1v1h1v1v-1l1,1h-1h2l1-1h1l5,1
		v43l3,3l1,2h1h-1h1v1l1,7l3,3l1,2l1,3h1h-1h1v7l1,3h-1h1h-1v4l-2,5l-1,5v1h-1h1h-1h1h-1v1h1h-1h1h-1h1l1,7v1v-1v1l-5,6l2,4l-6,1
		l-10,4l-6-1l1-6l-6,3l-1-1h-1l-1-2h-1h1l1,2h1v1l3,10h-1l-6,6v1h1h-1l-5,5l-15,5l-2,4l-7,4l7-4l-3-1h-1l-8-1h-1h1h-1v5l4,1l-5,3h-1
		l-5-3l2,5h-1v2h-2v1h-1h1h-1v-3l-6,2l2,6l-1,1v1v-1l-2,3h-1l-6-2l6,6l-2,6l-10,5l6,1l1,4h-1l1,1v1L892,529z M892,529l1,1L892,529z
		 M953,471l5-5l1-2h1l1-1L953,471z M960,463h1l-1,1l-1-1H960h-1H960z M959,463h1H959z M957,455l-1-1h1V455z M954,451h-1H954z
		 M953,471h-1v-1v1H953z M922,490v-1h1L922,490z M917,493l4-3h1l-12,9h-1v-2l2-1l3-1l2-2H917z M921,490v-1h1L921,490z M921,490
		L921,490z M909,499h1l-5,5v1v-2l3-3L909,499z M902,509v-1V509z M902,509v-1l1-2l1-1h1h-1h1L902,509l-1,2L902,509z M905,505h-1l1-1
		V505z M901,555l1-1v1H901z M902,506h-1H902z M897,532v-1V532l1,4v1l1,1v1v-1h-1v-2h-1h1h-1v-2V532z M897,531v-9l1-6l1-3l2-2l-4,12
		V531z M899,539v4v-1l-1-1l1-1l-1-2v-1v1h1h-1L899,539v1V539z M901,506h-1H901z M900,556L900,556z M900,557L900,557z M900,557v-1
		V557z M899,545v-1h1L899,545z M900,556h-1H900z M900,544h-1H900z M896,544v-1V544z M896,543v1h-1h1l-1-1H896z M895,532h-1H895z
		 M894,532h-1H894z"/>
	<path d="M1167,292l10,39l2,3l3,14l2,3l2,6l4,6v5l-2,15l2,3l1,12l3,4l-6,1l-44,4l-12,1v6l6,3v6h1l-2,2l-1,2v1h-1l-4,1l-6-5v-6l-1-1
		v-1l-1,1v1v-1v1l-3,10l-3-1h-3l-3-26l-1-8v-93l-1-2l26-3h5L1167,292z M1125,419l-1-1h1V419z M1124,417v1V417h-1v1v-1l1-1V417z"/>
	<path d="M1284,359h1v1h2l1,1l-1-1l-1,1v-1v1v-1h-2h1L1284,359z M1287,362h-1v-1l1-1l1,1L1287,362z M1286,360h1H1286z M1284,359v1h1
		h-1h2v2h-2l1,1l-1-1v-1l-1-1v-1H1284z M1280,369l1,1v1h-2v1h-1h2l1,1v1l-1,1h1h-2v1v-1h1v1h-1v1v-1v4h1l-1,1v-1v1h-3h1v1h1v1l-1-1
		l1,1l-1,2v1l-1,1l-1-1v1v-1v1l3,1v1l-1,1l-1-1l2,2v2h-1v2h1h-2h1h-1h1l1,2v1h-1v1h-1l-1-1h-4l-4-1l-3,4h1h-1h1v2l1,7l-2,1h-2v-1v1
		v-2l-1-4l-18,2l-25,1l-20,2l-4-8l-3-4l-1-12l-2-3l2-15v-5l-4-6l-2-6l-2-3l-3-14l-2-3l-10-39l29-3l16-2l11-2v2v-1v1h-1l-1,2l-1,1
		l-1,4l9,5h2l2,3l7,10l9,5l9,8v3h1h-1h2v1h1h-1h1h-1l2,1v1l3,2h1v1v-1v1h1h-1h1h-1h1l2,2l1,3l1,2h1h-1h1v1v-1v3l1,1h-1v-1v1h1h-1
		l6,4v1v-1v1l2,2v1h1h-1h1v1h-1h1h-1v1h1h-1h1v2v-1v1l1,1v1h1h-1v-1v1h3h-1v1l1,1v1v-1v1l1,1l-2,2l-1-1h-3v1l1-1l1,1v4H1280z
		 M1284,359h-1H1284z M1282,365l-1,4v-3L1282,365z M1280,364h1v1v-1v1l1-1l1,1h-2v-1H1280l-1,1L1280,364z M1281,359v-1V359z
		 M1282,371v2l-1,1v-1h1h-1v-2H1282h-1H1282z M1281,370l1,1h-1V370z M1281,375l-1,5l-1-2v-2h1v-1H1281z M1279,372h1v-1h1l-1,1h1v-1
		v1v-1v2h1h-1l-1-1h-2H1279v-1V372z M1278,381h2v1l-2,4v-1h-1l1-2v-1V381z M1279,381L1279,381z M1279,381L1279,381z M1279,381h-1
		H1279z M1278,381h1H1278z M1277,381h1v1h-1V381h-1H1277z M1278,389v-1V389z M1278,396v2v-3l-1-1v-1h1v-2V396z M1277,395L1277,395z
		 M1277,395L1277,395z M1276,387h-1v-1L1276,387z M1276,395h1H1276z"/>
	<path d="M1057,466h-1v1v-1l-2-1l1-1h1h-1h1l1-1h-4l-1,1v1l-2-1v-3l-3-4v-1l-1,1l-5-2l-3-5l-7,1l1-3l-9,2l5,4l-1,1l-5,2l-13-3l-3-2
		l-10-2l-12,3l-2-4l5-6v-1v1v-1l-1-7h-1h1h-1h1h-1v-1h1h-1h1h-1h1v-1l1-5l2-5v-4h1h-1h1l-1-3v-7h-1h1h-1l-1-3l-1-2l-3-3l-1-7v-1h-1
		h1h-1l-1-2l-3-3v-28l38-1l29-1l3,3l-2,8h3l-1,2l1,2l3,3l-1,2l-2,3l-1,4l-1-1l1,1l-4,5l-2,3h1h-1l-4,10l-1,12l26-1l18-2l1,1h-1h1h-1
		v3v-1v3v-1v2v-1l-1,1h1h-1h1h-1h1v1h-1v1v-1v1l2,5v1v-1v1v-1v1l3,6h1h-1h1l1,1h1h-1l-6,7l5,3l5-6v2l1,1h-1v1h2l1,1v1h-1l-1,1h1h-3
		h1h-1l1,1v1l1,1l-1,1l-2-2v-1v1h-2l-1,1h1h-1h1l1,1h1v1l-1-1h-2v1v-1v1l-1,1h-1h1h-1l1,1v1h1h-1h1v1h2l1,2v1h6l6,5l-5,4v-5l-5,1
		l-4-5h-5l-1-2v1v-1h-1h1h-1h1h-3l-3-3v-2l-2,5l5,1v1h-1l1,1v2h1h-2l1,3l-5,2l-1-1v-1l-2-2l-1,1v1v-1l-3-1h-2v2h1h-1h1h-2v1l-1,2h-3
		v1v-1H1057z M1076,460L1076,460z M1077,459L1077,459z M1085,450h1v1h-1V450z M1090,441L1090,441z M1100,462L1100,462z M1093,437h3
		v1h-2L1093,437v1V437v1V437z M1094,441L1094,441z M1094,441l-1,1v-1H1094z M1094,441L1094,441z M1093,443L1093,443z M1093,443v1
		V443z M1093,444L1093,444z M1093,444h-1H1093z M1092,445v-1V445z M1092,445h-1H1092z M1091,439v1V439z M1091,438v1h-1v-1H1091z
		 M1091,440h-1v-1h1h-1h1V440z M1090,441v1V441z M1088,448h1l-1,1V448v1V448v1V448z M1088,456l1,1h-1V456z M1087,447L1087,447z
		 M1087,454h-1H1087l-1-1l1-1V454z M1087,454L1087,454z M1087,454L1087,454z M1087,447v1V447z M1086,448v-1V448h1H1086z M1086,447v1
		V447z M1086,447v1h-1L1086,447z M1085,457h1l-5,2h1L1085,457z M1085,451v1V451z M1085,453L1085,453z M1085,453v1V453z M1085,452
		L1085,452z M1084,452v-1h1v1H1084z M1085,451h-1H1085z M1085,451h-1H1085z M1085,452h-1H1085z M1084,451L1084,451z M1084,451
		L1084,451z M1084,451L1084,451z M1084,451L1084,451z M1084,451L1084,451z M1084,451L1084,451z M1084,451h-1H1084z M1081,459v-1V459
		v-1l1,1H1081z M1081,458L1081,458z M1081,458L1081,458z M1081,458L1081,458z M1081,458h-1H1081z M1080,459L1080,459z M1080,458
		L1080,458z M1080,458L1080,458z M1080,459L1080,459z M1078,461h1H1078z M1078,461v1V461z M1078,457v-1h-1v-1h-1h1v1l1-1v1V457z
		 M1078,457v1V457z M1078,457v1h-1v-1H1078h-1H1078z M1076,454l1,1h-1V454z M1077,456L1077,456z M1077,456v1V456z M1077,459v1V459z
		 M1070,465l-1,1v-1H1070z M1067,463h1H1067h1H1067z M1058,467v-1V467z M1058,466v1h-2v-1v1l1-1v1v-1H1058z M1057,467h-1H1057z
		 M1055,464h-1v1v-1H1055h-1H1055z M1054,464v-1v2V464v1h-2v-1l1-1L1054,464z M1052,464L1052,464z M1052,464v1V464z M1049,461h1v3
		L1049,461z M1047,456v1h-1L1047,456z M1027,455l1-1l8,1l-4,3L1027,455z"/>
	<path d="M1109,298l1,2v93l1,8l3,26l-4,1v-1l-1,1h-6l-10,1l-6,5h-1l-1-1h-1h1h-1l-3-6v-1v1v-1v1v-1l-2-5v-1v1v-1h1v-1h-1h1h-1h1h-1
		l1-1v1v-2v1v-3v1v-3h1h-1h1l-1-1l-18,2l-26,1l1-12l4-10h1h-1l2-3l4-5l-1-1l1,1l1-4l2-3l1-2l-3-3l-1-2l1-2h-3l2-8l-3-3l2-7h-1v-6v2
		l-1-1h1v-1l-2-1v1v-1l3-5l-2-3l3-6l3-5l3-6l2-9v-1v1v-1l5-4v-1v1v-4l35-3H1109z M1110,427v1V427z M1110,428h-1H1110z"/>
	<path d="M1309,333l-1,1h1V333v1h-1v1h-3v-1v1l1,2l-1,1v1l-7,2h-1v1v-1v1l1-1l2,2l-4,2v-1v1v-1h-1v1l-4-1v2h-1l-1-1h-2v2h-1l1,2l1,1
		v1l-2,1h2v-1v1h1l-1,1h1h-1v1v-1v2v-1v1h-2v-1v1v-1v1h2v1h-1v1h-1l-1,1l1-1l-1,1h1v1v-1h-1v1h-4v-1l-1-1v-1v1v-2h-1h1h-1v-1h1h-1h1
		v-1h-1h1h-1v-1l-2-2v-1v1v-1l-6-4h1h-1v-1v1h1l-1-1v-3v1v-1h-1h1h-1l-1-2l-1-3l-2-2h-1h1h-1h1h-1v-1v1v-1h-1l-3-2v-1l-2-1h1h-1h1
		h-1v-1h-2h1h-1v-3l-9-8l-9-5l-7-10l-2-3h-2l-9-5l1-4l1-1l1-2h1v-1v1v-2l8-4l1-1l6-3h1h-1h2l29-3l7,5v3l25-4l5,3l24,18l1,1l-7,6
		l-5,12v1h-1v-2l1-2l-1,3v1l1,3h-1h1v1v-1h-1v1v-1v1h1l-1,2h-1v1h-1v-1v2h-2l-2,3h-1l-1,1v2H1309z M1309,333L1309,333z M1331,300
		L1331,300z M1331,300v-1V300z M1319,319L1319,319z M1319,322h-1H1319z M1319,319h-1H1319z M1319,323h-1v-1h1V323z M1318,326h-1v-1
		h1V326z M1317,326h1H1317v1V326z M1316,326h1H1316z M1317,326v1h-1h1h-1v-1H1317z M1311,331v-1h1l-1,2v-2V331z M1312,330h-1H1312z
		 M1311,331v1h-1v1v-1h1h-1v-1H1311z M1310,333h-1H1310v-1V333z M1308,335v-1h1v-1h1l-1,1L1308,335z M1309,333v1V333v1V333v1h-1
		L1309,333z M1308,335h-1H1308h-1H1308z M1306,337v1V337z M1305,339l1-1L1305,339z M1306,338h-1v1v-1H1306z M1305,338l1-1v1H1305z
		 M1298,341l-1,1v-1H1298z M1296,345h-1v-1h1V345z M1295,350h-1v-2L1295,350z M1294,350h1l-3,2v-2h1H1294z M1290,346h2v1h1l1,1v1v-1
		v1h-1l-1,1h1h-1v2h-1v-2h-1v-3l-1-1H1290z M1293,347h-1v-1L1293,347z M1293,350v-1h1v1H1293z M1289,345l1,1h-1l1,1v3h1v2l-3-2l-1-1
		l-1-2h1v-2H1289z M1289,352l-1,4v-2l1-1V352z M1288,352v-1V352z M1289,352v1l-1,1v-1h1V352z M1287,357v1h-1v-1H1287v-1V357z
		 M1286,359L1286,359z M1286,359v1V359l1,1h-1V359h-1v-1L1286,359z"/>
	<path d="M441,45l-10,38l-2,10l-5,16l-4,19l4,4l26,41l11,15l27,42l2,1l20,32l3,11v6l5,6l-4,1l-3,2l-2,2l-2,4l-1,9l-4,3h-2v10l3,1
		l-2,7v1v-1v1h-5l-35-5l-21-2l1-2l-2-5h1h-1v-12l-2-5l-8-9l-4-5l-2-1h-2v1l-3-1l1-7l-8-4l-8-6v-3l-6-6l-9-3l-10-3l-3-4l4-13l-5-6
		l2-6l-8-9l-2-11l-6-9v-9l3,1l3-5l-1-6h-4l-5-6l2-20h3v1l-1,6l4,4v-9l-2-1v-1l-1-4h10l3,1v1h1l3-1l-2,1l1-1h1v-1l-1,1h-2v-1l-1,1
		l-2-1v-1h-1l-11-2v6l-5-3l-4-13v-5l-9-15l2-3V93l3-3v-9l-5-10l-1-10l8-7v-1l2-8l5-9V26l1-4v-1v1l23,5l42,13L441,45z M440,312h-1
		H440h-1H440z M429,286L429,286z M429,286L429,286z M425,281L425,281z M423,280l-2,1v-1v1v-1h1H423z M413,285l4,4l-2,2L413,285z
		 M403,263L403,263z M387,262l8,4l-8-1V262z M377,142l1-1v1H377z M376,143h-1v-1v1H376h-1H376z M364,147v1l-2-2L364,147z M348,145
		L348,145z M348,145L348,145z"/>
	<path d="M1406,48l19-4l4,11v7h-2v1v-1l-1,1l-8,2l1,2l-8,2l-8,4l-3,4l-1,1l-4,2v1v-1l-3-2l4-4l-2-4l-3-19v-1L1406,48z M1427,62v1h-1
		L1427,62z"/>
	<path d="M1338,156v-1h-1v-1l-2-1l2-1L1338,156z M1337,155v-1V155z"/>
	<path d="M1366,122l-1,1v1l-1,2v6l6,4l4,10l6,2l-1,6l3,3h-1h1h-1l-13,3l-5-17l-4-17h-1h1l3-5L1366,122z M1364,128v-1V128z"/>
	<path d="M1177,174l4,1l4,7h8l5,3l2-3l8,2l6-5l1,5l6,3v1l4,11l1,2l2,2l3,4v1v-1v1h2v1v-1v1l3,1h2l-10,11l-6,6v1v-1v1l-6,8l-12,6
		l-20,2l-19,2l-25,1l-28,4l-4-1l1,5l-31,2l4-2l1-12l-2-1l5-6h1h-1h1l10,4l1-10l8-3l-3-5l3-4l2-4l4,2h1h-1h1l1-2l5-1l5,3l8-5h1h-1h1
		l3,3l4-7l3,1h1h-1h7l1-7l8-7v-8l5,1l6-3v-10h1H1177z M1077,257h-2H1077z"/>
	<path d="M1456,46l-5,5l-1-6l-3,4v1v-1v1v-1l-5,4v1v-1l-2-4l-1-1l-5-4v-3l-9,3l-19,4l-15,2v1V31l16-4l24-5l1-4l6-3h1v2v-1l3,4l2-1v1
		l-2,3l-1,2v1l-1,4l-1,1l2,1v-1l4,1l3,5l5,6h4l7-4l1,2l-1-1v1h1v2L1456,46v1V46z M1456,53h1l-6,3v-3H1456z M1448,54h-1v1v-1H1448z
		 M1447,55v-1V55z"/>
	<path d="M1382,161v-4V161z M1352,168l5,3l-3,2h-1l-6-2h1h-2l-1-1l-4-2l-3,1h-3l1-7l1-1v-1l1-1v-3l-1-4l-2,1l-1-1v1v-1v1l-9-4l1-3
		l-5-1l-3-5h-1h1h-1l-2-2l-4-2l-5,3h-1l-1,2h-7v-1v1h-1l1-1l-1,1l-2,5h-1h1h-3l-1,2v1v-1v1l-2,2l-3,4l-3-14l21-5l33-5l22-5h1l4,17
		l5,17l13-3h1v2h-1l1,2v-1v4l-1,1l-3,4v2l-5,2h-1l-4,2v1v-1l-1-4l-2-1l2-3h-8v-1l-2-1l-2-5l3-5h-6l4-2l-1-2h1l1-1l-1-1l1,1l-1-1
		l-1,1v1v-1h-1l-1-1v-1l1-1l-3-3l3-8h3l-1-6l-3,4l-3,5v7h-1v1l1,4l-2,1L1352,168z M1359,166h-1H1359z M1382,164l-1,5v1v-5L1382,164
		v-3v2V164z M1381,169L1381,169z M1379,170v-1V170z M1379,170h-1H1379z M1363,174h1l1,1h-1v-1H1363z M1364,175h1H1364v-1V175z
		 M1364,175l-1-1h1V175z M1364,175L1364,175z M1356,149l1,1l-1,1h-1v-1L1356,149z M1358,166h-1H1358h-1v-1v1H1358z M1349,146h1l-1,1
		V146z"/>
	<path d="M1389,236l-1-3L1389,236l2,3v9l-5,3l5-4L1389,236z M1376,213v1l3,6l4,7l4,6h1h-1l-2-2v-1v1v-1l-2-2v-1v1v-1h-1l-3-6v-1v1
		v-1l-2-3v-1v1v-1h-1h1h-1v-2V213z M1385,230v1V230z M1383,227v1l-1-1H1383z M1376,222l-4,5l-7,4h-4l-1-6l-1-1v1l2,9l7-1l8-3l2,9
		l1-8v-1h1v-1l4,6l-1,5l-4,6l-4,3h-3h1h-12l8,2v6l-3,6v-1l6-5l4,1v1v-1v4l-3,4l-2,1h-1v1h-1v-1h-1v1h-1l-6,2l-1,1h-1v-1v1l-3,3v1
		l-1,1h-1h1l-6,6l-3,5v3l-1,1v1v-1h-1v-1v6h-1l-8,2l-2,1h-2v1v-1h-1l-24-18l-5-3l-25,4v-3l-7-5l-29,3h-2h1h-1l-6,3l-1,1l-8,4l-11,2
		l-16,2v-7l4-1l1-6l6-5h5l13-10v-1v1v-1l-1-1l7-5l2,2l4-4v-1v1v-1h6l4-7l1-1v-1v1v-2l1-3v-2h7l22-2l13-3l35-6l8-2l17-3l21-5h1l5,7
		l1,1v2L1376,222z M1379,220v1V220h-1H1379z M1377,216v1l-1-1H1377z M1376,214L1376,214z M1376,214h-1H1376z M1375,214h1v2l-3-2h1
		H1375z M1374,249h1H1374z M1377,261l-1,2v-1L1377,261z M1373,268v2l-1-1l1,1V268l3-5L1373,268z M1371,268h1H1371h2H1371z M1370,268
		v-1h1v1H1370z M1368,268h1v1l-9,2l1-1l6-2H1368z M1368,268v-1h1v1H1368z M1358,273h-1v1v-1H1358z M1357,274h-1l1-1V274z M1357,274
		h-1v1l-1,1h-1h1l1-1v-1H1357z M1346,291v-3v2V291z M1345,293v2v-4v1v-1h1L1345,293z M1345,292v1l-1-1H1345z M1343,296h1H1343z
		 M1333,299h-1l-1,1v-1H1333l2-1L1333,299z"/>
	<path d="M1370,134l-5-3l-1-3v-2l1-2v-1l4-4h1l1-1v-2l1-1l7-6l-13-9l-1-11l2-5l4-8l18,6v9l-1,1h-1l-1,1l-1,4l8,4v15l1,1h-1v-2v3
		l-1,1v2l-2,2h1v2h-1l-1,1v1h-1v1h1l-2,3v-1v1h-1l-1,1h1l-3,11l-2,1v-8L1370,134z M1393,117h1l-1,1l-2,6v1v-2l1-2v-2l1-1V117z
		 M1391,123L1391,123z M1391,123L1391,123z M1389,128L1389,128z M1389,128v-1h1L1389,128z M1389,127v1V127z M1389,127v1V127z
		 M1389,128v-1V128z M1387,130L1387,130z M1387,130v1V130z M1386,132v-1V132z M1386,132L1386,132z M1386,132h-1H1386z M1371,116l1-1
		L1371,116z M1367,121l1-1L1367,121z"/>
	<path d="M1421,71h-1v1l2,1l-1-1h1v1l1-1h2l-2,4l-9,6l-2,2l-9,4l-1,1h-1l-1,1h-1v1v-1l-2,2v-1l-1,1h1h-3h1l-1-1h-1l-1,1h1l-4,1v-3
		l1-2l1-1h2l3-4l10-3l-1-1l8-2l7-6H1421z M1422,72h1H1422v1V72h-2h1h-1v-1h1L1422,72z M1413,83l-1,1l-5,4h-1h1l5-4l2-2L1413,83z
		 M1323,10V9h2v1H1323z M1323,10V9h-1l-1-4l9-8l8-15l8-6l9-1l20-5l1,10l3,6v10l3,10v3l1-2l3,2l3,17l2,5v20l3,19l2,4l-4,4l3,2v1l-2,3
		v3h-2l-1,1l-1,2v1v-9l-18-6l-1-2h-3l-5-4l-1-4l-1-1l-2-1l-3-2l-2-1l-23,5l-40,8l-22,4h-4l-1-7l12-10l4-7l-2-5l-1-1h1v-2h-2l-2-6
		l12-5l14-1l5,2l11-3l5-2l3-8h4l-2-10V9h-2V10z M1406,88l-3,1l-4,3v-1h1l2-2h1v-1H1406z M1403,89h-1H1403z M1402,89L1402,89z
		 M1402,89L1402,89z M1400,91v-1V91z M1399,91h1v-1v1H1399z M1400,90v1h-1v-1H1400z M1400,91h-1H1400z M1399,91v1h-4h2l1-1H1399h-1
		H1399z M1394,92v-1V92h1H1394z M1394,92v-1V92z M1394,92L1394,92z M1393,91h1v1h-1V91z M1394,92h-1H1394z M1393,92h-1H1393z
		 M1388,92l1,1l-4,4l1-4l1-1H1388z M1322,9L1322,9z M1322,9L1322,9z M1275,46h2v2h-1l1,1L1275,46z"/>
	<path d="M1250,82l3,17v6l3,14h-1v13l-2,8v9l-9,9l-3-2l-5,6v8l-3,3l-2-4l-2,5l1,8l-3,4l-6,2v-1l-6-3l-1-5l-6,5l-8-2l-2,3l-5-3h-8
		l-4-7l-4-1h-7l-1-26h-1l-4-42l-1-4l27-5v1v-1h1h-1v1h1l13,2l-3,4h8l11-4l9-2l2-5L1250,82z M1203,97h1H1203z M1204,97h-1H1204z"/>
	<path d="M1263,71l1,7h4l22-4l40-8l23-5l2,1l3,2l2,1l1,1l1,4l5,4h3l1,2l-4,8l-2,5l1,11l13,9l-7,6l-1,1v2l-1,1h-1l-3,3l-4-1l-3,5h-1
		l-22,5l-33,5l-21,5l-22,3l-4-25l-3-14v-6l-3-17L1263,71z"/>
	<path d="M1442,53v1h-1v-1h-1v-4L1442,53z M1440,52v1h1v1l-2,1l-1,1l1-1v-5h1V52z M1439,48v2l-2,4v5l-8,3v-7l-4-11l9-3v3L1439,48z
		 M1439,51h-1l1-1V51z M1438,54L1438,54z M1438,56h-1H1438h-1H1438l-1-1v-1h1V56z"/>
	<path d="M1381,170l-1,1v2l-2,2l1-1v-1h1v-2L1381,170z M1380,171v2v-1v1h-1v1h-1v-1h1L1380,171z M1370,179l1-1h1l1-5h-1h1l5-2v3v-1
		v1h-1v1v-1h1v1v-1v1l-3,8l1,1h-1v-1v2v-1v2h-1v1v-1v1v-1v1h1v1h-1v-1l-2,1l-1,3v6l-3-2l2-13v-2V179z M1376,184l-1,2v1h-1v-1h1v-2
		H1376z M1375,188v2h-1v-2H1375v-1V188z M1374,192v-2h1l-1,1V192z M1374,191l-1,1v-1H1374z M1373,196h-1H1373h-1H1373v-1V196v-1V196
		z M1373,193v1V193v1h-1v-1H1373z M1371,191v1h1v1h-1V191h1H1371z M1372,193h-1l1,1V193v4v-1h-1v-3H1372z M1361,199h1l-1,6l-13-8h-7
		h1h-1l7,3h7v4l17,1l2,5l2,3h-1h1h-1h1h-1v-1l-1-1v-1v1l-1,3h1h-2l-21,5l-17,3l-8,2l-35,6l-13,3l-22,2h-7v1v-1l-33,5l-12,2l12-6l6-8
		v-1v1v-1l6-6l10-11h1v1v-1v1l-1,1v1v-1v1l2,1h-1h1h-1h1h-1h1h-1h1v2h1h-1h1l8,2v-1v1v-1h1v-1v1v-1h6l14-9l6-5l-1-6l5-9l3-8v-1l1-4
		h-1h1h-1h1h-1h1l8,2l1-5l3-7l3,1l2-5l3-2v-1l3-5v-9l13,8l1-6l5,1l-1,3l9,4v-1v1v-1l1,1l2,1v1h1h-1h1v4l-1,1v1l-1,1l-2,7h4l3-1l2,5
		h5l4,4h6l1,9l-1,1l3,3l-1,6v1L1361,199h1H1361h1H1361z M1362,199h-1H1362z M1371,199L1371,199z M1371,199L1371,199z M1366,179v-1
		V179z M1366,179v-1V179z M1364,175v1V175z M1341,197h1H1341z"/>
	<path d="M1110,5L1110,5z M1110,5L1110,5z M1031-34l1,1v5l7,4h1h-1h2l1,1h1l1,3h1h-1h1v2l19,3l8,4h8l5,1l3,4l3,3v8l-1,1h1h-1h1l4-1
		l-1,6l3,2l-5,4l-2,12l5-3l2-6l5-1v-5l7-8l-1,6l-7,14l-3,14v14l-3,7l1,11l3,5v9l-58,3l-1-3l-8-3l-4-16v-5h-1h1l-2-9l-4-5l-8-4l-3-6
		l-12-5v-1v1v-1l-4-5V13l2-4l-5-3l3-9l5-3l3-2v-17h1l1-1v-1l1-1h1v1v-1h-1h1v1l1,1h5l17-9L1031-34z M1103,10L1103,10z M1103,10
		L1103,10z M1033-35v1V-35z M1033-35v1h-2L1033-35z"/>
	<path d="M1181,4l1,1l-4,2l5,7v10l-4,3v6l-6,3v8l6,2l4-5v-2l3-5l9-3l5,6l3,17l3,4v12h-3l-3,2l-1,7h-1l-3,5v5l-5,8l-27,5l-9-1l-33,4
		l4-4l6-16V72l-10-22l2-6l-2-5l4-7v-9l3-4l-1-4l6-2l4-6l-1,10l2-2l2-1V2l8-2l-4-3l1-8l6-1l4,2h7l2,4h4l10,4L1181,4z M1203,72v-1h1
		v-1h2L1203,72v-1V72z M1202,71h1H1202z M1203,71L1203,71z M1203,71v-1V71z M1203,70h1v1h-1v1v-1V70z M1203,71h-1v-1L1203,71z
		 M1199,79h-1H1199z M1196,87h-1v-3l1,1V87z M1195,88L1195,88z M1183,5L1183,5z M1183,5h-1H1183z M1168-19h-1l3-3l-1-1l3-1v5h-1h1
		H1168z M1168-19h-1H1168z M1172-19L1172-19z M1171-19L1171-19z M1169-22L1169-22z M1169-22L1169-22z M1168-19L1168-19z M1167-22v-1
		V-22z M1167-22v-1V-22z M1072-45l2,3h1v2h1v8l3-5h8l6,3l3,4l1,1l13,2l1,1l1-1v-1l7-5l14-2l5-3h4v7h12l3-2v1h1v2l1,1l1,3h-1v1l7,6
		h-8h1h-2v1v-1v1h1h-2v-1h1h-1h1h-7l-1,5l-8-5h-7l-2,4l-13,2l-4,4l-5-1l-7,7l-6,16l-3-2l1-6l-4,1h-1h1h-1l1-1v-8l-3-3l-3-4l-5-1h-8
		l-8-4l-19-3v-2h-1h1h-1l-1-3h-1l-1-1h-2h1h-1l7-3l3-4l12-4l5-3L1072-45z M1160-29v3l-1-3H1160z M1160-29l-2-1v-2h-1v-1l3-1V-29z
		 M1159-25v-1h1L1159-25z M1158-19l1,1h-2h1V-19h-1H1158z M1145-11L1145-11z M1145-11h-1H1145z M1144-11L1144-11z M1144-11L1144-11z
		 M1138,15L1138,15z M1112-28v1l-1,1l-1-1L1112-28z M1097-29l-1-1L1097-29z M1086-53l2,2l-8,6l-4,7v-2h-1v-2h-1l-2-3l6-6L1086-53z
		 M1070-70l1-1l1,2h-1l-4,3h-1l-1,2h-1l-5,2v-1h1h-1L1070-70z M1072-69L1072-69z M1072-69h-1H1072z M1070-70v-1h1h-1V-70z M1064-64
		h1H1064z M1059-62L1059-62z M1059-62v-1V-62z"/>
	<path d="M699,530l12,5l8,6v4l7,5v3l-8,4l-4,1l-7,5l-2,4l-7-3v-10l-4-11l6-5L699,530z M680,509l3,2h6l6,4v3l-7,3l-4-1v-4l-7-3
		L680,509z M662,503l14,2l-2,3l-14-1L662,503z M669,511l5,5h-5V511z M652,501h-6l-2-1l-4,1l-5-8h5l4-3l3,7L652,501z M646,501
		L646,501z M644,500L644,500z M606,475l2,8l-6,2l-5-3l2-6L606,475z"/>
	<path d="M1452-15l-3-5v-4v4L1452-15h-2l-1-1v1v-1v1v-1v1h-1h1h-1h1h-1v2v-2l-1,2h1h-1v-3v1h-1l1-1l-3,3v1l-1,1l1,1v3l-3,7l-2,9h-1
		l-1-1V7v1V7l-3-4h-1h1h-2V2v1V2l-1-2v-3l-5-12l-4-16l-7-18v-1l5,1l1-11l4-4l-1-18l2-2v-11l6-15l1-5l5-3l1,6l3,1l5-5l7-4l10,5l3,13
		l5,15l2,10h7l6,11l4-1l4,5l-1,2h-1h3v-1v1l1,2l-6,5v2h-3v3h-1v1v-1h-1l-1,2h-1l-1-1v4l-2,3h-1l-1-1v-1v1v-1h-1v-1h-1l-2,1h-1v1
		l-2,2v5l-1-1l-2-1h-3v-6h-1v1l-1,2v13l-1,1l-1,2h-1v1v-1h-3v-1l-1,1v2v-1v1l-1,3l-2,1h-1h1h-1v-4l-1-1v1v-1v4v-1v2h1L1452-15z
		 M1452-15L1452-15z M1452-15L1452-15z M1492-51L1492-51z M1492-51L1492-51z M1490-50L1490-50z M1490-50h-1H1490z M1489-47h1H1489h1
		H1489z M1487-48h-1H1487z M1484-45v-1h1L1484-45z M1483-43v-2V-43z M1481-40L1481-40z M1481-40h-1H1481z M1478-41v-1V-41h1H1478z
		 M1475-42l2,1l-1,4h-3v-3l1-1v-1H1475z M1478-37h-1H1478z M1476-34v-1V-34z M1476-34L1476-34z M1474-33v-1V-33z M1474-34h1H1474h1
		v2l-1-1v1v-1V-34z M1473-38v1V-38h-1H1473v-1V-38z M1474-34h-1H1474z M1472-38v-1V-38z M1472-34L1472-34z M1472-34L1472-34z
		 M1472-30v1V-30z M1471-35v1V-35v2v-1h1h-1v1h1l-1,1l-2-1v-1L1471-35z M1472-30v1V-30z M1472-30v1V-30z M1471-34L1471-34z M1471-34
		L1471-34z M1472-30L1472-30z M1472-30L1472-30z M1465-42h1v1h-1V-42z M1469-28h-2v-1h-1l1-1l1,1h1V-28z M1468-31v1V-31v1h-1l-1,1
		L1468-31z M1465-33v1V-33l-1-1v-2L1465-33z M1459-21v-1V-21z M1459-21v-1V-21z M1458-24L1458-24z M1458-24L1458-24z M1458-21h-1v-1
		L1458-21h-1H1458z M1453-20h-1v1h1h-1v1h1h-1v1v-5v1h1V-20z M1449-15L1449-15z M1447-16L1447-16z M1447-16v1V-16z M1446-15L1446-15
		z M1446-15L1446-15z M1446-13l-1,1h1h-1v-1H1446z M1445-13v1h-1v-1H1445h-1H1445z M1445-10h-1H1445z"/>
	<path d="M1053-65l-1,1h-2l-5,5l-8,2l-11,7l-7,11l-12,11v1l1,1l-1-1v-1h-1l-2,2v1h-1v17l-3,2l-5,3l-3,9l5,3l-2,4v14l4,5v1v-1v1l12,5
		l3,6l8,4l4,5l2,9h-1h1h-1l-34,2l-21,1h-50V36l1-1V14l-5-3l-3-7l4-2l2-10l-3-9v-1l-1-1v-2v1v-1l-1-2v-6v1v-2h1h-1h1l-1-2l-1-1v-1h1
		h-1h1v-1h-1h1h-1v-1h1h-1h1h-1h1v-1h-1h1h-1v-1h1h-1h1h-1h1h-1h1h-1h1h-1v-1v1v-9v1v-3v1v-1l-1-4v-1h-1h1h-1v-2h-1h1h-1l-3-10l1-1
		v-2v1v-2v1v-4v1v-7v1v-1l1-1l-1-2v-1h-1h1h-1v-3h-1h1h-1v-3h39v-10l6,1l3,16l8,3h8v3l12-4l13,5l2,7l2-4l11,4l3,4l7-3l6-4l2,5l14-1
		l1,2H1053z"/>
	<path d="M1439,9L1439,9z M1431,0l1,2v1V2v1h2h-1h1l3,4v1l1,1h1l-1,6h1h-1l-6,3l-1,4l-24,5l-1-1l-2-11l1-17v-17l6-5v-6l-1-10l1-8
		l4-1v-1v1l7,18l4,16l5,12V0z"/>
	<path d="M401-89v1h3v-1h2v1l1,1v1l1,1h1l1,1v-1h1l5,4v14l4,2l2,2l9-2l8,1l5,5l13-1l2,2l19-1h13l37,9l1,5l4,4l1,4l-11,15l-1,1l1-1
		l-1,1L511-8l3,5l2,5l-5,8l-10,49l-37-8l-23-6l-19-5l-42-13l-23-5v-1l-1-2V8l2-2l-1-10l3-2l4-9l5-1v1v-1v1l1-1h-1h1h-1l-1-3l5-6l1,1
		v-1h-1l3-6h1h-1l2-9l5-9v-4l5-9l2-9l3-5h1h-1l1-8l3-5H401z M410-85v1l-1-1H410z M407-88v1l-1-1H407z M406-89h1l-1,1V-89z M405-89h1
		H405z M405-89L405-89z M405-89L405-89z M405-89h-1H405z M404-89v1h-1v-1v1v-1H404z M403-88h1H403v-1V-88z M403-89h1H403z M403-89v1
		h-1v-1H403h-1H403z M403-89v-1V-89z M401-89h1H401z M401-89L401-89z M401-89L401-89z M397-92h-1H397z M374-24l-1-1h1V-24z M370-16
		h-1H370z M369-15v-1h1L369-15z M370-16h-1H370z M369-16L369-16z M369-16L369-16z"/>
	<path d="M438-142v-2l1-1h1l1,1l3-1l-3-5h-1v-1l1-7l18,5l23,7l25,5l11,4l25,5l-7,33v5l-5,17l-3,13v14l-37-9h-13l-19,1l-2-2l-13,1
		l-5-5l-8-1l-9,2l-2-2l-4-2v-14l-5-4h-3v-1l-1-1v-2h-2l-2-1l-6-2l-1-1l2-5v3l1-2v-1l2-5l-1-7v1h1l1-1h3h-1l-4-4v-23l-2-9v-1l2-6l3,2
		l8,8l7,2l11,6l5-1v8l-6,3l3,2l4-6v6h-1l-1,1v2h1v3l-1,1v1l-1,1v1l-2,2l-1-1v-2l-1,3l-1,1l-1-2v-1l1-2l-1,1h-1h1h-1l-1,1v1h-1v1l1,1
		h1l1,1l2,1l4-4h4l1-7v1v-1l1-6l5-4l-1-6l-2,4v-11h-1H438z M439-141l1,3l-3,7h3h-4l-1-7l3-4L439-141v-1V-141z M432-112v-2l1-1v-1
		l1-1L432-112z M434-120v1V-120h-1v-2l1-1h1L434-120z M441-145h-2v-1l1-1L441-145z M429-112l1,1v1h-1V-112z M440-150l1,1v1h-1v-3
		V-150z M428-109h1l-1,1V-109z M428-111l1,1h-2L428-111z M428-109h-2l1-1h1V-109z M437-148h-3h1h-1v-1h-1v-1v1v-1l1-1L437-148z
		 M438-150L438-150z M437-148v2h-1v-2H437z M438-150L438-150z M436-146h1H436v1h1h-1V-146z M435-145h1h-3l1-2l1-1V-145z M426-114
		l1-1L426-114z M435-145h1H435z M425-112v2h-1v-3l1-1h1v1L425-112z M424-110l-1-1v-1h1V-110z M434-149v1h1h-1v1v-1h-1v-1v1v-1H434z
		 M431-150h1v1l1,1v3l-3-4v-1v1v-1H431z M433-147L433-147z M433-147v-1V-147z M432-150h1v1h-1V-150h1H432z M430-152h1v1L430-152z
		 M407-86v-1V-86h1v1h1h-1L407-86v-1V-86z M404-110h1H404z M399-98h-1H399v1l-1,2v-3H399z M401-109l1-1L401-109z"/>
	<path d="M410,407l3-1l1-1h2v1v-1l3-4l4,1l6-5l1,1h1v3l2-2l7,2l1,1v-1v1v-1v1v-1l1,3l2,1h3v1h1l1-1h5l2,1h1l2,1h5l3,1h1l2-1h1h-1h1
		v-1v1v-1v1v-1v1v-1h3l2,1l1,1l2,1h2l7,33l2,15l9,41l8-2l1,4l9,5l2,3l4-3l3-8l4,4l10,6l9,8l4,6l12,2l2,7l-1,6l-4-3v-1l1-1v-1h-1v-2
		h-1v-1h-1l-1-1h-1l-2,2h1h-1h1h-1h1v3l-3-1v-2l1-1l-1-1v-2h-2h1h-1v-1h-1v-2v1h-2l-1-2l-1-1h-1h1h-2l-2-1l1-1l-1-1h-1l-1-2h1l-1-1
		v1v-1h-1l-2-1l-1-1v-1h-2l-1-1h-1v-1l-1-1v-2h-2v-1l-1-1v2h1l1,2v1v-1v1l2,2v1v-1v1h-2l-2-1v1l-1-1v-1h-1v-1l-1-1l1-1l-1,1v1l-3-1
		h-1l4,2v1v-1v1h1v2l-1,1h-1v1l-1-1l-5-2l-5-4h-1l-4-1l-1-1h-1v-5l-3,3l-6-1h-8l-6,2h-1v-1l-2-1l-1-1v-1h-1v1h-1h1h-4l1-1v-1l-1-1
		h-2l-2-1l-1-1v1v-1h-1v1v-1v1h-2l-1,1h-1v-1h-1v1v-1v1l-2,2h2v-1v1l2,1v1h-1v3v-1v1h-1v1l-5,1v1v-1l-1,2v1v-1v1v-1v1v-1l-1-2v3
		l-1-1l-2,4v-2v2v-2l-2,2v1l-5,1l-1-1h1h-1l3-2l1-1h-3l2-11l9-8l-8,3l-7,11h1l-4,5l-4,3v1l2,1l2,2l-1,3l-3,3h-1h1h-1h1h-1h1l-2,3h-3
		l-7,6h-1h1v2l-1,1v1h-1l-10,6l-2,3l-1,1h-2h1h-1v1v-1h-1l-5,2v1h-2l-3,1l-2-2l-1,3h-1v1l-4-2v-1v1l-3,4h-1v-3l2-1l1-1h1v-1l9-4h2
		h-1h1l-1,1h1l3,2v-6l10-5l5-6l2-6l2-7l-5,2l-1-4l-4,2l2,3l-8-4h-3v1v-1l-5,2l2-5l-3-10l1-1h-1l1-3v-1v1l-2,5h-9v-7h1v-1h1l2-1h-1h1
		v-1l-1,1h-2l-1-1v-1h-1l1-5h-4l-1-4l6-6v-1h1l1-1l2,2h1v-2l-1-1h1l2-1v-1l6-3h2h-1l1,1l6-3l-2-6l2-5l-9,4l-2-2h-8l-4-3l1-7l-5-5h1
		h-1l1,1l2-2h2v-1h1l1-1l3,1l-2-1l1-1h3l1-1l3,4l1,1l7,1v1v-1v1l1-1l3-1v1h-1h1v-1l-1-3h1l3,1h1h-1h1v-1l-1-1h-3v1h-1l-1-4v-1h-4v-1
		v1l-4-2l-2-6v-1l-5-7l1-4l7,1l5-4v-3l2-2v-1v1v-1l2-2h1v-1h1l-1,1h1h-1h1h-1V407z M562,530h1l-1,1h1h-1V530z M559,526l1,1h1v1h1v2
		v-1v4l-1-1l-1,1v-2h-1v1l1,1h-1v-1h-2l1-1l-1-1v-1v1v-3h1v-1v1v-1H559z M562,535l1,1h-2v-1v1v-1H562z M560,533h1v2l-1,1v-2l-1-1
		H560h-1H560z M558,527h-1l1-1V527z M561,536L561,536z M561,536h-1H561z M559,533v-1V533z M558,532h1v3h-1h1h-1V532z M558,531
		L558,531z M553,526h-1v-1l-1-1h1h-1v-1h1v1h2v2v-1v1v-1v1H553z M548,526v1h1h-1l1,1h1l3,3h-1h1l2,1h1h-3v1l1-1h1v1h-1h2l1,1l-1,1h1
		v-1v1h1l-1,1h1v1l-1,2h-1h1l-1-1h-1h1l-1-1v1v-1v1v-1l-1-1v1v-2v1h-3h1h-2v-1h2h-1v-1h-1v-1h-2v-1h1v-1l-1-1v-1l-1-1h-2L548,526z
		 M558,536L558,536z M554,526v1h1h-1h1h-1V526z M558,536L558,536z M554,527L554,527z M554,527v-1V527z M551,524v1h1v1h1h-1h2v1v-1v1
		h-1v-1v1h1v1v-1v1v-1v1h-1l-1-1h-1v1v-1h-1v-1l1-1V524z M554,527L554,527z M554,527L554,527z M556,533L556,533z M554,527h-1H554z
		 M556,533h-1H556z M550,522h1H550z M556,539L556,539z M551,522v1h-1v-1H551z M551,524v1h-1L551,524h-1H551z M556,539L556,539z
		 M551,523h-1H551z M553,531L553,531z M550,523L550,523z M547,521l2,1h1v1l-1,1h-1v-1l-1-1V521z M550,522h-1H550z M553,531h-1H553z
		 M554,539l1,1L554,539v-1V539z M549,524h1v2h-1v1v-1v1v-1h-1v-2H549z M554,535L554,535z M552,536v1h-1h1l1,1v1h1l1,1h-2v-1l-3-3h1
		H552z M553,536h1v2l-1-1V536z M553,538L553,538z M553,538L553,538z M553,538v1V538z M549,527h1H549z M549,527h1l-1,1V527v1V527z
		 M548,527h1H548z M552,536L552,536z M552,535L552,535z M546,519l1,1v2l1,1h-2v-1h-1h1v1h1v2h-1l-2,1v-2h-1v-1v1v-1l-1-1h-1L546,519
		z M552,535h-1H552z M549,526v1h-1v-1H549z M547,523h1v1h-1V523z M552,536h-1H552z M550,533L550,533z M551,534L551,534z M551,534h-1
		H551z M550,533L550,533z M549,536h1v1L549,536z M548,530v1V530v1h1h-1V530z M550,535h-1H550z M546,522h-1H546z M546,522h-1H546z
		 M549,533v2v-1h-1L549,533z M546,528h1l1,1v1h-1l-1,1h-1v-2L546,528z M547,531v1h1v-1v1h-1h1l-2-1H547v1V531z M548,530h-1H548v1h-1
		v-1v1v-1H548z M547,530L547,530z M547,530L547,530z M549,534v1h-1v-1H549z M543,516L543,516z M548,535h1v1L548,535z M547,534h1v1
		h-1V534z M541,514l-1-1h1V514z M546,531L546,531z M542,523h1v1h1h-1h1v1l-1,1l1,1h-1v4l-2-4h2h-1v-1h-2h1v-1h-1h1h-1h1h-1l-1-2h1
		h-1h1h-1h1v-1v1v-1h1L542,523v1V523z M542,523L542,523z M546,531L546,531z M533,510h1H533h1l1,1l2-1v2h1v2v-1h-1v-2v3v-1v1h1l2,2v1
		l1,1h-2l1,1l-3,3v-5v1v-1l-2-6h-2v-2V510z M542,522L542,522z M542,522h-1H542z M542,523v1V523z M541,522L541,522z M541,522L541,522
		z M541,522L541,522z M541,522L541,522z M537,513h1H537l1,1h-1V513z M543,531L543,531z M543,531L543,531z M541,522h-1H541z M541,525
		L541,525z M537,510h-2H537z M541,525h-1H541z M540,523L540,523z M540,523L540,523z M537,525v1h-1h1h-1v-1H537h-1H537h-2v-2h-1v-2
		h-1l-1-1v-1l1-1h1l2,2l1,2v4V525z M534,510v-1V510z M534,509v1h-1v-1H534z M528,517l-1-1v-1l-1-1v-1h2v-1l3,1v-1v1l-1,1l1-1h1l2,5
		h-2l-1-1l1,1v2h-1l-1-1h-1v-1h-1V517v1V517z M528,517L528,517z M533,509h-1H533z M533,511L533,511z M533,511h-1H533z M534,521v1h-1
		v-1H534z M529,503L529,503z M534,522L534,522z M533,522h1H533h1H533h1H533v-1V522z M529,510l1,1h-1V510z M533,522L533,522z
		 M532,520v1h1v3l-2-4H532v1V520z M532,521v-1l1,1v1v-1H532v-1V521z M531,517l1,1L531,517z M528,510L528,510z M527,509v1V509z
		 M528,510h-1H528h-1H528z M527,509L527,509z M528,512v1h-1v-1H528z M526,508L526,508z M527,509h-1H527z M527,510l-1-1h1V510z
		 M528,518h1H528z M526,508v-1V508z M526,509L526,509z M526,509L526,509z M526,509L526,509z M528,517v1V517z M526,514l1,1v1h-1V514z
		 M507,503v-1V503z M477,408L477,408z M477,408v-1V408z M471,406h1H471z M471,407v-1V407z M471,407h-1H471z M470,407L470,407z
		 M470,407L470,407z M484,504h-1H484z M470,407L470,407z M480,502h1H480z M480,500L480,500z M480,500L480,500z M480,500L480,500z
		 M480,500L480,500z M480,500L480,500z M480,500L480,500z M480,500L480,500z M480,500L480,500z M480,500L480,500z M480,500L480,500z
		 M480,500L480,500z M480,500L480,500z M480,502h-1H480z M480,500L480,500z M480,500h-1H480z M480,500L480,500z M480,500v1V500z
		 M479,500h1H479z M479,500L479,500z M479,500L479,500z M479,500L479,500z M479,500L479,500z M479,500v1V500z M479,501L479,501z
		 M479,501h-1H479z M479,502v-1V502z M479,502L479,502z M479,502L479,502z M479,502h-1H479z M478,501h1l-1,1V501h1H478z M476,501v1
		V501h-1H476z M476,500l-1,1h-1L476,500v-1V500z M460,406L460,406z M470,496v1l-1-1H470z M460,406L460,406z M469,503h-1H469z
		 M468,499L468,499z M468,499L468,499z M458,405L458,405z M458,405L458,405z M467,497L467,497z M466,503v-1V503v-1h1h-1v-1h1v1h-1h1
		h-1h1v-1v1v-1v1v-1v1l-1,2V503z M465,499h1H465h1v1h-1V499v1V499z M466,506h-1v-1h1V506v-1V506h-1H466z M465,497v1h-1h1V497h-1H465
		z M456,406h1H456z M465,502h1v1h-1V502v1V502z M466,506l-1,1v-1v1v-1H466z M465,504v2h-1h1h-1h1v-1v1v-1l-1,1v-1v1v-1h1V504z
		 M464,499h1v1h-1h1h-1V499v1V499z M454,405L454,405z M454,405L454,405z M462,500L462,500z M454,405L454,405z M454,405L454,405z
		 M454,405L454,405z M454,405L454,405z M454,405h-1H454z M458,510L458,510z M458,510L458,510z M458,510L458,510z M454,513L454,513z
		 M454,513L454,513z M454,513L454,513z M448,405v1h-1v-1H448z M447,406h1v-1v1H447z M448,406h-1H448z M452,514v-1V514z M446,523
		l-2,4h-2l-1-1l1-2h1v-1h2h-1l1,1v-1H446z M441,527v1h4v1h1h-1h1h-1v2v-1v1l1,2l-4,2h-1l-1,1l-3,4h-1v-3l-3-5l3-1h1v2h1l-1-1v-2l2-2
		v2h1h-1h1v-1h1v-1v1V527h-1H441z M446,529L446,529z M446,529v1V529z M446,530h-1v-1h1V530z M444,522v-1V522v-1V522v-1h1v2h-1V522z
		 M444,523h-1H444z M444,523h-1H444z M441,535h1l-2,1L441,535z M442,527h-1v-1L442,527z M442,528L442,528z M442,528h-1H442z
		 M440,527l1,1v1h-1l-1-1L440,527z M440,530L440,530z M440,530L440,530z M437,532l1,1h-1V532z M436,542v-1V542v-1V542z M436,540h1
		H436h1H436z M436,541v1V541z M433,399L433,399z M433,399L433,399z M433,399L433,399z M422,546L422,546z M422,546L422,546z M422,546
		L422,546z M421,546h1H421h1H421z M409,547l-1,1v-1H409z M407,556L407,556z M408,548h-1H408z M408,539L408,539z M407,556L407,556z
		 M408,539L408,539z M406,554v1V554v1V554h-1H406h-1v-1h1V554z M400,552L400,552z M400,552l-1-2L400,552z M398,545L398,545z
		 M398,545L398,545z M398,545h-1H398z M410,405h1l1,1h-1v-1H410v1V405z M393,552l1,1h-2v-1v1v-1H393z M396,503h1l-1,1V503z M388,559
		L388,559z M388,559L388,559z M386,551l1-1L386,551z M384,552v3h1l-10,3l3-5L384,552z M394,474v1V474v1l-2,1h-1l-1-2H394z M390,495
		v1h-1L390,495z M390,474l1,2l1,1v2h-1l-3-3l1-2H390z M385,494h1v2h1v1h1h-1h1h-1v1h-1v3l-4-4l3-2V494z M388,476l1,1h-1v1v-1V476z
		 M390,474h-1H390z M387,477h1v1h-1V477z M381,503h-2h1h-3l-5-4l6-1L381,503z M389,442l1-1L389,442z M382,489L382,489z M366,561v-1
		V561z M367,562h-1v1v-1h-1h1v-1L367,562v-1V562z M388,442l-1,1h-1L388,442z M364,560v1h1l1-1v1h-1v1h1v1l-5,2h-5v-1l6-2L364,560z
		 M348,567l8-5v3L348,567z M348,567L348,567z M352,567L352,567z M352,567L352,567z M361,462h1l1,1l10,5l-5,1l-5-5L361,462z M348,567
		L348,567z M348,567L348,567z M342,567v-1h1L342,567z M343,566h-1H343z M362,462L362,462z M362,462h-1H362z M317,566v1V566h-2v1v-1
		l-6-1h5l1,1v-1v1v-1L317,566z M315,567L315,567z M315,567L315,567z M308,565L308,565z M308,565h-1H308z M307,565L307,565z M307,565
		h-1H307z M305,565v1V565h-1H305z M306,563v1V563v1V563v1h-1L306,563z M304,565h1v1h-1V565z M302,566v-1V566z M302,565v1l-2-1v-1v1
		v-1v1v-1L302,565z M297,564L297,564z M297,564L297,564z"/>
	<path d="M1055,310l-2,9l-3,6l-3,5l-3,6l2,3l-3,5v1 M1044,358l3,3l-2,8h3l-1,2 M1047,371l1,2l3,3l-1,2l-2,3l-1,4l-1-1l1,1l-4,5l-2,3
		h1 M1079,419h1v1h-1v1l2,5v1l3,6h1l1,1h1 M1364,175L1364,175 M964,342l-1-1v1l-3-1v-1h-1l-2-2h-1 M953,336l-1-1h1 M496,326h5v-1
		l2-7l-3-1v-10h2l4-3l1-9l2-4l2-2l3-2l4-1l-5-6v-6l-3-11l3-4v-19l1-1v-5l3-2l6,1l4,4l4-5l1-10l3-12l30,6l45,7l10,2l24,3v1l-3,14v7
		l-3,14v6l-7,50l-4,27v7l-3,14l-2,18 M967,344v-1h-1v-56l-4-25l38-1l62-2v2h2l-7,12l15-1l1,3v-1l-6,6l-2,9h-2h2l-1,2v6l-4,4v4v-1
		 M1060,305l-5,4v1v-1 M1083,243l-1,12l-4,2l31-2l-1-5l4,1l28-4l25-1l19-2l20-2l12-2l33-5v2l-1,3v2l-1,1l-4,7h-6v1l-4,4l-2-2l-7,5
		l1,1v1l-13,10h-5l-6,5l-1,6l-4,1v7l-29,3l-27,3h-5l-26,3h-14l-35,3 M644,228l1-13l3-14v-10l3-20l3-14l2-20l2-14v-6l30,3l30,4l45,4
		l25,2l17,1l-2,28l-1,25l-2,19v14l-2,27l-21-2l-42-3l-44-4l-3-1l-44-5 M1221,188l6-2l3-4l-1-8l2-5l2,4l3-3v-8l5-6l3,2l9-9v-9l2-8
		v-13h1l4,25l22-3l3,14l3-4l2-2v-1l1-2h3l2-5l1-1l-1,1h1v-1 M1105,217v1h1l-3,4l3,5l-8,3l-1,10l-10-4h-1l-5,6l2,1l-2-1l-5-3l-2-15
		l-8-6l-9-4l-4-4v-5l4-6l1-7l-8-3l-3,3l-2-11l-8-5l-7-7l-4-10l1-8h1 M1317,140h1H1317 M1027,150h-1v-1l-6-5l-52,3h-32l-2-5l-1-12
		 M932,127h1 M1121,105l33-4l9,1l1,4l4,42h1l1,26h7l4,1l4,7h8l5,3l2-3l8,2l6-5l1,5l6,3 M562-128l-3,10l-3,20l3,3h-1l2,10l-2,1l7,6
		l5,11v1l4,7l6,1l-3,9l-3,4v4l-3,10l-1,2v1v-1 M922,92l-2-4l-2-2h1l1-2v-1l2-11l-2-1v-1v1 M570-28l6,2h2v-1l4-3l2,5l1,2v6l4,6l-1,3
		v4l5,1l2,12l4-2l7,3l2-3h1l2,1v1h3l4,1h7V9l2-3l6,8l-5,25l-1,12l-5,31 M522-21l1-1l11-15l-1-4l-4-4l-1-5v-14l3-13l5-17v-5l7-33
		 M781-95l-2,23l-1,23l-1,12v11l-2,15l-2,27l-51-5l-27-4l-21-2l-8-2l-24-2l-7-2l-2,15 M908-89v3h1v3h1v1l1,2l-1,1v7v-1 M910-72v5
		l-1,1l3,10h1v2h1v1l1,4v11h1h-1v1h1v1h-1v1h1v1h-1v1l1,1l1,2h-1v7l1,2v2l1,1v1l3,9l-1,5l-3-1h-33l-29-1l-12-1l-21-1l-9-1l-37-2
		l-1-1 M920-3l-1,5l-4,2l3,7l5,3v21l-1,1v29 M763,128l1-18l4-38l5-56 M1043,344l2,1v1h-1l1,1v-1 M1410-40l1,10v6l-6,5v17l-1,17l2,11
		l1,1l-16,4l-2-5l-3-17l-3-2l-1,2V6l-3-10v-10l-3-6l-1-10 M1041,89l58-3 M1139,423h-1v-6l-6-3v-6l12-1l44-4l6-1l4,8l20-2l25-1l18-2
		l1,4v2h2l2-1l-1-7v-2h-1l3-4l4,1h4l1,1h1v-1h1 M987,442v1l-5,6l2,4 M1167,292l10,39l2,3l3,14l2,3l2,6l4,6v5l-2,15l2,3l1,12l3,4
		 M1114,427l-3-26l-1-8v-93l-1-2 M1286,360h1 M1196,289l16-2l11-2v2v-1 M1170,174v10l-6,3l-5-1v8l-8,7l-1,7h-7l-3-1l-4,7l-3-3h-1
		l-8,5l-5-3l-5,1l-1,2h-1l-4-2l-2,4 M1045,345v6h1l-2,7l-29,1l-38,1v28l3,3l1,2h1v1l1,7l3,3l1,2l1,3h1v7l1,3h-1v4l-2,5l-1,5v1h-1v1
		h1l1,7 M1260,329h-1H1260 M1259,329l2,1v1l3,2h1v1h1l2,2l1,3l1,2h1v3l1,1h-1v-1 M1271,345l6,4v1l2,2v1h1v1h-1v1h1v2v-1 M1280,357
		l1,1v1h1 M1283,359h1 M803,159l45,3h35v1h36v1h27l7,2l2,3l-1,2h-1l-2,4l4,8l4,4h1h-1 M960,187h1v61h-79l-46-2h-14l-24-2 M1078,257
		l-1,1h-1l1-1h-2h2 M1080,417v1V417 M1080,418l-1,1h1 M1075,257l1,1v6h-3l2,4l-3,4 M962,262l-1-14 M1223,285l8-4l1-1l6-3h1h-1h1
		 M1239,277h1l29-3l7,5v3l25-4l5,3l24,18 M1331,300v-1 M357,22v-1 M946,164l-5-8l-4-7v-1v1 M1395,80l-3-2l4-4l-2-4l-3-19v-1l15-2
		l19-4l4,11v7 M1395,80v1 M1338,158v-2 M937,148l-1-1 M1338,156v-1h-1v-1l-2-1l2-1L1338,156 M1365,123v1 M1282,141l21-5l33-5l22-5
		 M1359,126l3-5l4,1 M1364,128v-1 M1238,210l-10,11l-6,6v1l-6,8l-12,6 M1442,53v1 M1442,53l-2-4 M1439,48l-5-4v-3l-9,3 M1391,50V31
		 M1407,27l24-5l1-4l6-3h1 M1337,160L1337,160 M1335,153l-1-1v1l-9-4l1-3l-5-1 M1378,171l-5,2h-1 M1249,235h7l22-2l13-3l35-6l8-2
		l17-3l21-5 M1373,214h1 M1369,119h1 M1371,117v-1 M1372,115l7-6l-13-9l-1-11l2-5l4-8l18,6 M1389,87v2 M1389,90v1 M1388,92h-1
		 M1386,93l-1,4 M1367,121l1-1 M1371,76l-1-2h-3l-5-4l-1-4l-1-1 M768,72l44,3l43,3h25l2,2l7,5l4-3l6,1l4-1v1h1l13,5l5,5 M1360,65
		l-2-1l-3-2l-2-1l-23,5l-40,8l-22,4h-4l-1-7 M1250,82l3,17v6l3,14 M1163,102l27-5 M777,242l-1,14l-2,8l-1,23l-3,29l-4,45l-1,22
		l-35-3l-49-5l2,6 M501,59l36,8l24,5l-6,34l-3,10l-1,10l-4,15l-4,25l-8,44 M510,263l-20-32l-2-1l-27-42l-11-15l-26-41l-4-4l4-19
		l5-16l2-10l10-38l23,6l37,8l10-49l5-8l-2-5l-3-5l11-13l1-1 M977,360v-15l-5-1h-1l-1,1h-2h1l-1-1h-1v-1 M965,343l-1-1h1 M1039-24h2
		l1,1h1l1,3h1v2l19,3l8,4h8l5,1l3,4l3,3v8l-1,1h1l4-1l-1,6l3,2 M968,344v1 M1028,62l-2-9l-4-5l-8-4l-3-6l-12-5v-1l-4-5V13l2-4l-5-3
		l3-9l5-3l3-2v-17h1 M1007-28v1 M1439,9L1439,9 M1439,9h-1 M1437,8V7l-3-4h-2V2l-1-2v-3l-5-12l-4-16l-7-18v-1 M407-86l1,1 M411-85
		l5,4v14l4,2l2,2l9-2l8,1l5,5l13-1l2,2l19-1h13l37,9 M409-85h1 M407-88v1 M405-89h1 M397-92L397-92 M957,338l-1-1v1 M956,337l-3-1
		v-1h-5l-1,1h-3l-2-1l-6,2h-7l-4,2l-14-2l-3-3l-1,3 M907,337l-3,4l-3-5h-1v1l-4-2h-6l-4-2l-3-5h-4l-5,2l-4-2h-4v-1l-3-1h-3v-1h-1
		l-3-5l-2-1l-1,1v1h-1v-1h-5l-7-8v-22l1-4v-20l1-6l-47-2l-19-2 M1297,141h7l1-2h1l5-3l4,2l2,2 M1028,150h-1v1 M1318,140l3,5l-1,6
		l-13-8v9l-3,5v1l-3,2l-2,5l-3-1l-3,7l-1,5l-8-2h-1h1l-1,4v1l-3,8l-5,9l1,6l-6,5l-14,9h-6v1h-1v1l-8-2h-1v-2h-1h1l-2-1v-1l1-1v-1h-3
		l-3-1v-1h-2v-1l-3-4l-2-2l-1-2l-4-11v-1 M933,130l-1-3h1 M933,127l-1-5l-3-4v-10l-2-2l-3-4v-9h-2v-1h-1 M920,70l-1-5h53l21-1l34-2
		h1v5l4,16l8,3l1,3l5,4v4l5,3v9l-2,6l-7,4l-8,2v6l3,2v6l-3,7l-5,1l-1,7v1 M1107,108l1,16l3,34v17h-1 M1111,175h-1v4l3,7v1l1,1l-3,9
		l-3,7h-1v1 M1107,204v1h-1v1l1,2l-1,1l-1,3l-1,4l1,1v1 M1223,287h-1l-1,2l-1,1l-1,4l9,5h2l2,3l7,10l9,5l9,8v3h2v1h1 M1041,393
		l-4,10l-1,12l26-1l18-2 M1080,412l1,1h-1v4 M1080,418v1 M1382,157h-1l-13,3l-5-17l-4-17h-1 M1039-24h1 M966,343h-1v-1 M622,82v5
		l-4,19v4l40,7 M561,72l27,5l34,5 M357,22l23,5l42,13l19,5 M1338,156L1338,156"/>
	<text transform="matrix(1 0 0 1 655 535)" class="st0 st1">Hawaii</text>
	<text transform="matrix(1 0 0 1 451 460)" class="st0 st1">Alaska</text>
	<text transform="matrix(1 0 0 1 1281 460)" class="st0 st1">Fla.</text>
	<text transform="matrix(1 0 0 1 1584 9)" class="st0 st1">N.H.</text>
	<text transform="matrix(1 0 0 1 1169 62)" class="st0 st1">Mich.</text>
	<text transform="matrix(1 0 0 1 1584 52)" class="st0 st1">Vt.</text>
	<text transform="matrix(1 0 0 1 1458 -60)" class="st0 st1">Maine</text>
	<text transform="matrix(1 0 0 1 1584 138)" class="st0 st1">R.I.</text>
	<text transform="matrix(1 0 0 1 1353 40)" class="st0 st1">N.Y.</text>
	<text transform="matrix(1 0 0 1 1318 100)" class="st0 st1">Pa.</text>
	<text transform="matrix(1 0 0 1 1584 225)" class="st0 st1">N.J.</text>
	<text transform="matrix(1 0 0 1 1584 268)" class="st0 st1">Del.</text>
	<text transform="matrix(1 0 0 1 1584 311)" class="st0 st1">Md.</text>
	<text transform="matrix(1 0 0 1 1318 200)" class="st0 st1">Va.</text>
	<text transform="matrix(1 0 0 1 1258 180)" class="st0 st1">W.Va.</text>
	<text transform="matrix(1 0 0 1 1210 139)" class="st0 st1">Ohio</text>
	<text transform="matrix(1 0 0 1 1137 150)" class="st0 st1">Ind.</text>
	<text transform="matrix(1 0 0 1 1073 145)" class="st0 st1">Ill.</text>
	<text transform="matrix(1 0 0 1 1584 182)" class="st0 st1">Conn.</text>
	<text transform="matrix(1 0 0 1 1053 30)" class="st0 st1">Wis.</text>
	<text transform="matrix(1 0 0 1 1323 260)" class="st0 st1">N.C.</text>
	<text transform="matrix(1 0 0 1 1584 354)" class="st0 st1">D.C.</text>
	<text transform="matrix(1 0 0 1 1584 95)" class="st0 st1">Mass.</text>
	<text transform="matrix(1 0 0 1 1163 270)" class="st0 st1">Tenn.</text>
	<text transform="matrix(1 0 0 1 1013 310)" class="st0 st1">Ark.</text>
	<text transform="matrix(1 0 0 1 1008 210)" class="st0 st1">Mo.</text>
	<text transform="matrix(1 0 0 1 1223 350)" class="st0 st1">Ga.</text>
	<text transform="matrix(1 0 0 1 1283 310)" class="st0 st1">S.C.</text>
	<text transform="matrix(1 0 0 1 1173 220)" class="st0 st1">Ky.</text>
	<text transform="matrix(1 0 0 1 1148 355)" class="st0 st1">Ala.</text>
	<text transform="matrix(1 0 0 1 1013 415)" class="st0 st1">La.</text>
	<text transform="matrix(1 0 0 1 1078 360)" class="st0 st1">Miss.</text>
	<text transform="matrix(1 0 0 1 983 105)" class="st0 st1">Iowa</text>
	<text transform="matrix(1 0 0 1 963 -20)" class="st0 st1">Minn.</text>
	<text transform="matrix(1 0 0 1 903 290)" class="st0 st1">Okla.</text>
	<text transform="matrix(1 0 0 1 853 400)" class="st0 st1">Texas</text>
	<text transform="matrix(1 0 0 1 703 305)" class="st0 st1">N.M.</text>
	<text transform="matrix(1 0 0 1 878 205)" class="st0 st1">Kan.</text>
	<text transform="matrix(1 0 0 1 863 120)" class="st0 st1">Neb.</text>
	<text transform="matrix(1 0 0 1 848 37)" class="st0 st1">S.D.</text>
	<text transform="matrix(1 0 0 1 851 -46)" class="st0 st1">N.D.</text>
	<text transform="matrix(1 0 0 1 698 60)" class="st0 st1">Wyo.</text>
	<text transform="matrix(1 0 0 1 673 -50)" class="st0 st1">Mont.</text>
	<text transform="matrix(1 0 0 1 723 180)" class="st0 st1">Colo.</text>
	<text transform="matrix(1 0 0 1 568 30)" class="st0 st1">Idaho</text>
	<text transform="matrix(1 0 0 1 598 155)" class="st0 st1">Utah</text>
	<text transform="matrix(1 0 0 1 573 290)" class="st0 st1">Ariz.</text>
	<text transform="matrix(1 0 0 1 493 130)" class="st0 st1">Nev.</text>
	<text transform="matrix(1 0 0 1 443 -10)" class="st0 st1">Ore.</text>
	<text transform="matrix(1 0 0 1 478 -100)" class="st0 st1">Wash.</text>
	<text transform="matrix(1 0 0 1 403 180)" class="st0 st1">Calif.</text>
</g>
<g>
	<path d="M1049,308h90v90h-90V308z"/>
	<path d="M423,530h52v52h-52V530z"/>
	<path d="M901,230h73v73h-73V230z"/>
	<path d="M557,304h99v99h-99V304z"/>
	<path d="M327,160h222v222H327V160z"/>
	<path d="M663,212h79v79h-79V212z"/>
	<path d="M1467-4h79v79h-79V-4z"/>
	<path d="M1213,136h52v52h-52V136z"/>
	<path d="M1371,178h52v52h-52V178z"/>
	<path d="M1103,434h162v162h-162V434z"/>
	<path d="M1145,308h120v120h-120V308z"/>
	<path d="M557,530h60v60h-60V530z"/>
	<path d="M791-30h60v60h-60V-30z"/>
	<path d="M553-24h60v60h-60V-24z"/>
	<path d="M857-24h134v134H857V-24z"/>
	<path d="M997,8h99v99h-99V8z"/>
	<path d="M755,144h73v73h-73V144z"/>
	<path d="M1009,112h85v85h-85V112z"/>
	<path d="M927,388h85v85h-85V388z"/>
	<path d="M1423-110h99v99h-99V-110z"/>
	<path d="M1271,136h95v95h-95V136z"/>
	<path d="M1553-196h42v42h-42V-196z"/>
	<path d="M1553-152h30v30h-30V-152z"/>
	<path d="M1585-152h30v30h-30V-152z"/>
	<path d="M1037-124h120V-4h-120V-124z"/>
	<path d="M789-124h60v60h-60V-124z"/>
	<path d="M837,116h95v95h-95V116z"/>
	<path d="M969,308h73v73h-73V308z"/>
	<path d="M609-124h52v52h-52V-124z"/>
	<path d="M1271,236h116v116h-116V236z"/>
	<path d="M711,40h42v42h-42V40z"/>
	<path d="M723,84h30v30h-30V84z"/>
	<path d="M755,84h30v30h-30V84z"/>
	<path d="M755,52h30v30h-30V52z"/>
	<path d="M697-124h52v52h-52V-124z"/>
	<path d="M1487-176h60v60h-60V-176z"/>
	<path d="M1349-4h112v112h-112V-4z"/>
	<path d="M663,298h67v67h-67V298z"/>
	<path d="M1255-172h162v162h-162V-172z"/>
	<path d="M557,134h73v73h-73V134z"/>
	<path d="M463,20h79v79h-79V20z"/>
	<path d="M1103,2h99v99h-99V2z"/>
	<path d="M815,224h79v79h-79V224z"/>
	<path d="M1209-4h134v134h-134V-4z"/>
	<path d="M1551-16h60v60h-60V-16z"/>
	<path d="M1271,358h90v90h-90V358z"/>
	<path d="M697-42h52v52h-52V-42z"/>
	<path d="M1009,202h99v99h-99V202z"/>
	<path d="M737,310h185v185H737V310z"/>
	<path d="M583,224h73v73h-73V224z"/>
	<path d="M1157,194h108v108h-108V194z"/>
	<path d="M1429-176h52v52h-52V-176z"/>
	<path d="M443-124h104v104H443V-124z"/>
	<path d="M891-124h95v95h-95V-124z"/>
	<path d="M1131,120h67v67h-67V120z"/>
	<path d="M635,54h52v52h-52V54z"/>
	<text transform="matrix(1 0 0 1 1094 353)" class="st0 st1">Ala.</text>
	<text transform="matrix(1 0 0 1 431 560)" class="st0 st1">Alaska</text>
	<text transform="matrix(1 0 0 1 938 267)" class="st0 st1">Ark.</text>
	<text transform="matrix(1 0 0 1 607 354)" class="st0 st1">Ariz.</text>
	<text transform="matrix(1 0 0 1 438 271)" class="st0 st1">Calif.</text>
	<text transform="matrix(1 0 0 1 703 252)" class="st0 st1">Colo.</text>
	<text transform="matrix(1 0 0 1 1507 36)" class="st0 st1">Conn.</text>
	<text transform="matrix(1 0 0 1 1239 162)" class="st0 st1">D.C.</text>
	<text transform="matrix(1 0 0 1 1397 204)" class="st0 st1">Del.</text>
	<text transform="matrix(1 0 0 1 1184 515)" class="st0 st1">Fla.</text>
	<text transform="matrix(1 0 0 1 1205 368)" class="st0 st1">Ga.</text>
	<text transform="matrix(1 0 0 1 569 560)" class="st0 st1">Hawaii</text>
	<text transform="matrix(1 0 0 1 821 0)" class="st0 st1">Iowa</text>
	<text transform="matrix(1 0 0 1 583 6)" class="st0 st1">Idaho</text>
	<text transform="matrix(1 0 0 1 924 43)" class="st0 st1">Ill.</text>
	<text transform="matrix(1 0 0 1 1047 58)" class="st0 st1">Ind.</text>
	<text transform="matrix(1 0 0 1 792 181)" class="st0 st1">Kans.</text>
	<text transform="matrix(1 0 0 1 1051 154)" class="st0 st1">Ky.</text>
	<text transform="matrix(1 0 0 1 969 430)" class="st0 st1">La.</text>
	<text transform="matrix(1 0 0 1 1473 -60)" class="st0 st1">Mass.</text>
	<text transform="matrix(1 0 0 1 1318 183)" class="st0 st1">Md.</text>
	<text transform="matrix(1 0 0 1 1571 -150)" class="st0 st1">Maine</text>
	<text transform="matrix(1 0 0 1 1097 -64)" class="st0 st1">Mich.</text>
	<text transform="matrix(1 0 0 1 819 -94)" class="st0 st1">Minn.</text>
	<text transform="matrix(1 0 0 1 884 163)" class="st0 st1">Mo.</text>
	<text transform="matrix(1 0 0 1 1006 345)" class="st0 st1">Miss.</text>
	<text transform="matrix(1 0 0 1 635 -98)" class="st0 st1">Mont.</text>
	<text transform="matrix(1 0 0 1 1329 294)" class="st0 st1">N.C.</text>
	<text transform="matrix(1 0 0 1 742 72)" class="st0 st1">Neb.</text>
	<text transform="matrix(1 0 0 1 723 -98)" class="st0 st1">N.D.</text>
	<text transform="matrix(1 0 0 1 1517 -146)" class="st0 st1">N.H.</text>
	<text transform="matrix(1 0 0 1 1405 52)" class="st0 st1">N.J.</text>
	<text transform="matrix(1 0 0 1 697 332)" class="st0 st1">N.M.</text>
	<text transform="matrix(1 0 0 1 1336 -91)" class="st0 st1">N.Y.</text>
	<text transform="matrix(1 0 0 1 594 171)" class="st0 st1">Nev.</text>
	<text transform="matrix(1 0 0 1 503 60)" class="st0 st1">Ore.</text>
	<text transform="matrix(1 0 0 1 1153 52)" class="st0 st1">Ohio</text>
	<text transform="matrix(1 0 0 1 855 264)" class="st0 st1">Okla.</text>
	<text transform="matrix(1 0 0 1 1276 63)" class="st0 st1">Pa.</text>
	<text transform="matrix(1 0 0 1 1581 14)" class="st0 st1">R.I.</text>
	<text transform="matrix(1 0 0 1 1316 403)" class="st0 st1">S.C.</text>
	<text transform="matrix(1 0 0 1 723 -16)" class="st0 st1">S.D.</text>
	<text transform="matrix(1 0 0 1 1059 252)" class="st0 st1">Tenn.</text>
	<text transform="matrix(1 0 0 1 829 402)" class="st0 st1">Tex.</text>
	<text transform="matrix(1 0 0 1 620 261)" class="st0 st1">Utah</text>
	<text transform="matrix(1 0 0 1 1211 248)" class="st0 st1">Va.</text>
	<text transform="matrix(1 0 0 1 1455 -150)" class="st0 st1">Vt.</text>
	<text transform="matrix(1 0 0 1 495 -72)" class="st0 st1">Wash.</text>
	<text transform="matrix(1 0 0 1 938 -77)" class="st0 st1">Wis.</text>
	<text transform="matrix(1 0 0 1 1165 154)" class="st0 st1">W.Va.</text>
	<text transform="matrix(1 0 0 1 661 80)" class="st0 st1">Wyo.</text>
</g>
</svg>
