<svg xmlns="http://www.w3.org/2000/svg" width="1294" height="800" viewBox="0 0 1294 800"><g class="states"><path description="WV" d="M1028,354l1,-1l1,-1l1,-2l1,-1l1,-1l-1,-3l1,-1l1,-3l-1,-1l1,-1l1,-7l1,-4l-1,-1l-1,-4l-1,-2l1,-1l1,-1l1,1l1,3l1,6l1,6l1,6l1,3l6,-1l3,-1l7,-1l5,1l1,3l1,7l1,3l1,-1l1,-1l1,-1l1,-2l1,-1l1,-1l1,-2l3,-1l1,-1l1,-2l1,-2l-1,1l1,1l2,1l1,-1l1,1l1,-1l2,-1l1,-1l1,-1l-1,-1l2,1l1,-1l1,-1l1,-1l1,1l1,1l1,-1l1,1l1,-1l1,1l-1,1l1,1l1,1l1,-1l-1,1l1,1l1,1l1,2l-1,1l-1,4l-1,-1l-2,-1l-3,-1l-1,-1l-1,-1l-2,-1l-1,1l-1,4l1,1l-1,1l1,1l-1,1l-1,1l-1,2l1,1l-1,1l-1,1l-1,1l-1,1l-1,1l-1,1l-1,2l-1,-1l-1,-1l-1,1l-1,2l1,2l-1,1l-1,1l-1,4l-1,2l-1,1l-1,-1l-2,-1l-1,-1l-1,-1l-3,1l1,1l-1,1l1,1l-1,1l-1,1l-1,2l1,1l-1,1l-1,1l-1,2l1,1l-1,1l-1,4l-1,2l-1,1l1,1l-1,1l-1,1l1,1l-1,1l1,1l1,1l-1,1l-1,1l1,1l-1,1l-1,1l-1,1l-2,-1l-1,1l-2,1l-1,1l-1,1l-1,-1l-2,1l1,1l-1,1l-1,1l-3,1l-2,1l-2,-1l-2,-1l-1,1l-1,1l-1,1l-1,1l-1,1l-1,-1l-2,-1l-1,-1l-1,1l-1,-1l-1,-1l-1,-1l-1,-2l1,-1l-1,-1l-1,1l-1,-1l-2,-1l-1,-1l-2,-1l-1,-1l-1,-1l-1,-1l-1,-1l-1,-1l-1,-1l-1,-1l1,-1l-1,-1l-1,-1l-1,-1l-1,-1l-1,-6l1,-2l1,1l1,-1l1,-1l2,-1l1,-3l2,-1l-1,-2l-1,-2l1,-2l1,-1l-1,-1l1,-1l1,-2l1,-1l1,1l1,1l1,2l1,-1l1,-2l1,1l-1,-1l-1,-3l1,-1l1,-4l1,-1l1,-1l1,-2l1,-1l1,-1l1,1l1,1l1,-1l1,-1l1,-1Z"/><path description="FL" d="M1046,772l1,-2l1,-1l1,-1l3,1l-1,2l-1,1l-1,1l-1,-1l-1,1ZM974,602l1,1l1,2l1,2l1,2l1,1l1,-1l16,-1l9,-1l18,-1l15,-1l3,1l1,1l1,2l1,2l1,-1l1,1l1,-1l-1,-7l-1,-1l1,-1l-1,-1l1,-1l1,-1l1,-1l1,1l6,1l1,-1l1,1l1,-1l3,1l1,4l1,3l1,1l-1,1l1,1l1,4l1,1l1,4l1,1l1,2l1,3l1,2l1,1l1,2l1,2l1,1l1,2l1,2l1,1l1,2l1,2l1,1l1,1l1,1l1,1l1,1l1,1l1,1l1,2l3,3l1,3l-1,3l1,4l1,2l1,3l1,1l1,2l1,1l1,1l1,2l1,1l1,3l1,1l1,2l1,2l1,1l1,3l1,1l1,1l1,2l1,1l1,3l1,2l1,2l1,5l1,16l1,12l1,1l-1,1l-1,1l1,3l-1,3l-1,1l-1,1l1,1l-1,1l-1,1l-1,2l-1,1l-1,2l-1,1l-1,1l-1,1l-1,1l-1,1l-1,1l-1,1l-1,1l-2,1l-1,1l-1,1l-2,1l-3,1l-1,1l-2,1l-3,1l-2,1l-1,2l-2,1l-3,-1l-1,1l-1,1l-1,1l-2,-1l-1,-1l-2,-1l-1,1l-3,-1l1,-2l1,-1l4,-1l3,-1l1,-1l1,-1l2,-1l1,-1l2,-1l1,-1l1,-1l5,-1l2,1l1,1l1,-1l1,1l1,-1l2,-1l1,-1l-1,1l-1,-1l-1,-1l-1,-1l-1,-1l-1,-1l-1,-1l-1,-1l-1,-1l-1,-2l1,-1l-1,-3l-1,-2l-1,-1l-1,-1l-1,-1l-1,-1l-1,-1l-1,-1l-1,-1l-2,-1l-1,1l-4,-1l-1,-1l-1,-1l-1,-2l-1,-1l-1,-2l-1,-4l-1,-2l-1,-1l-1,-1l-1,1l-1,1l-2,-1l-1,-1l-1,-1l-1,-1l-1,-2l-1,-1l-1,-4l-1,-1l-1,-1l-1,-2l-1,-1l-1,-1l-1,-2l-1,-1l-1,-2l-1,-1l-1,-1l-1,-1l-1,-1l-1,-2l-1,-1l-1,-1l-1,-5l-1,-1l-1,-1l-1,-2l1,-2l-1,-1l-1,-4l1,-3l1,-1l1,-1l-1,-1l1,-2l-1,-7l-1,-1l-1,-2l-1,-4l-1,-1l1,-1l-1,-1l-2,-1l-1,1l-1,1l-1,-1l-2,-1l-1,-2l-1,-1l-1,-2l-1,-1l-1,-1l-1,-1l-1,-1l-1,-1l-1,-1l-1,-2l-1,-1l-1,-1l-2,-1l-1,-2l-1,-1l-1,-1l-2,-1l-3,-1l-2,-1l-3,1l-1,1l-1,1l-1,1l-1,2l-3,1l-1,1l-1,1l-1,1l-2,1l-1,1l-1,1l-1,1l-2,1l-1,1l-2,1l-2,-1l-2,-1l-3,1l-2,-1l-1,-1l-1,-1l-1,-1l-1,-4l-1,-1l-1,-1l-1,-1l-2,-1l-2,-1l-1,-1l-1,-1l-3,-1l-5,-1l-2,-1l-13,1l-1,1l-5,1l-3,1l-6,1l-1,1l-1,-1l1,-1l1,-1l-1,-1l1,-1l1,-1l-1,-1l-1,-1l1,-1l-1,-4l-1,-1l-1,-1l-1,-1l-1,-1l-1,-1l1,-4l5,-1l13,-1l12,-1l11,-1l5,-1l8,-1Z"/><path description="IL" d="M821,319l3,-1l1,-1l2,-1l1,-1l1,-1l1,-2l1,-2l1,-1l1,-2l-1,-5l-1,-2l-1,-1l-1,-1l-2,-1l-1,-1l1,-1l-1,-1l-1,-1l-1,-1l-1,-1l-2,-1l6,-1l10,-1l20,-1l14,-1l15,-1l7,-1l3,3l-1,1l-1,11l-1,6l-5,1l-1,1l1,4l1,11l1,10l1,12l1,12l1,11l-1,7l-1,1l1,1l1,1l-1,1l-1,1l1,2l1,1l1,2l1,1l-1,1l1,1l1,4l-1,1l-1,1l-1,1l-1,2l1,1l-1,1l-1,1l-1,2l-1,1l-1,2l1,-1l-1,1l-1,1l1,-1l-1,1l-1,1l1,1l1,1l-1,1l-1,1l1,1l-2,1l1,-1l-1,3l1,1l-1,1l-1,-1l1,1l1,1l-1,1l1,1l-1,1l-1,1l-1,1l1,1l1,2l1,1l-1,2l-4,1l-1,1l-1,-1l-1,1l-1,1l-1,2l1,1l1,1l1,2l-1,1l-1,2l-2,-1l-1,-1l-3,-1l-2,-1l-3,1l-1,1l-1,1l-1,1l1,3l-1,1l-1,-1l-1,-2l-1,1l1,1l-2,-1l-1,-1l-1,-1l-1,-1l-1,-3l-1,-1l1,-1l1,-1l1,-1l-1,-1l-1,-1l-1,-1l1,-2l-1,-1l-1,-2l-1,-1l-1,-1l-1,-1l-1,-1l-2,-1l-1,-1l-1,1l-2,-1l1,-1l-1,-1l-1,1l-1,-1l-1,-1l-1,-1l-2,-1l-1,-2l-1,-1l-1,-2l1,-2l1,-2l1,-3l1,-7l-1,-3l-1,-1l-3,-1l-2,1l-1,1l-1,1l-1,-1l-1,-1l-1,-1l-1,-5l-1,-3l-1,-1l-1,-1l-1,-1l-1,-1l-2,-1l-1,-1l-1,-1l-1,-1l-1,-1l-1,-1l-1,-1l-1,-1l-1,-1l-1,-2l-1,-1l1,-2l-1,-1l-1,-1l-1,-3l1,-4l1,-3l1,-1l-1,-4l1,-1l1,-2l3,-1l1,-1l1,-2l-1,-1l1,-1l1,-1l1,-1l-1,-7l-1,-1l-1,-1l-1,-1l1,-1l1,-3l1,-1l3,-1Z"/><path description="MN" d="M697,177l-1,-1l1,-1l-1,-2l1,-1l-1,-4l-1,-11l1,-1l-1,-1l1,-1l-1,-1l1,-1l-1,-1l1,1l-1,-1l1,-1l-1,-1l-1,-2l-1,-2l-1,-3l-1,-4l-1,-2l1,-1l-1,-1l1,-1l-1,-1l1,-1l-1,-1l1,1l-1,-1l1,-2l-1,-1l1,-1l-1,1l1,-2l-1,-1l1,-2l-1,-1l1,-1l-1,-1l1,-1l-1,-1l-1,-1l1,-1l-1,-1l1,-3l15,1l21,-1l1,-3l1,-7l5,1l1,1l1,5l1,3l1,3l-1,1l1,1l-1,1l1,1l1,1l1,1l3,-1l1,1l1,1l8,1l1,1l-1,1l7,-1l1,-1l1,-1l9,1l3,1l1,1l1,2l1,-1l1,1l1,1l-1,1l1,1l1,1l1,1l2,-1l-1,-1l1,-1l4,1l1,1l1,1l3,1l1,-1l1,2l1,1l1,1l6,-1l2,-1l1,-1l1,-1l1,-1l2,1l1,1l1,-1l-1,1l1,1l1,1l1,-1l13,1l1,1l3,-1l1,1l2,-1l1,1l1,-1l1,1l-1,2l-1,1l-1,3l-1,3l-1,4l-1,1l-1,3l-1,3l-15,2l-2,1l-1,1l-2,1l-1,1l-1,1l-2,2l-2,1l-2,2l-1,1l-5,2l-1,1l-1,1l-2,1l-1,1l-1,-1l-1,-1l-1,1l-1,2l-1,1l1,14l-1,1l-1,2l-1,-1l-1,1l-1,1l-1,1l-1,1l-2,1l-1,1l1,1l-1,1l-1,1l1,5l1,1l1,1l1,1l-1,2l-1,2l1,5l-1,1l-1,1l1,1l1,2l-1,1l1,5l1,1l1,1l1,1l1,1l2,1l1,-1l1,1l1,1l1,1l1,1l2,1l3,1l1,1l1,1l1,3l1,1l2,1l1,1l1,1l3,1l1,1l1,1l1,1l1,2l-1,3l1,1l1,4l-5,1l-28,1l-21,1l-51,-1l-1,-51l-1,-1l-1,-1l-2,-1l-1,-1l-1,-1l-1,-2l1,-2l1,-1l2,-1l1,-1l1,-1l-1,-11l1,-1l-1,-1l-1,-2l-1,-2l-1,-2l1,-1l-1,-1Z"/><path description="MD" d="M1103,345l-3,-1l-1,-2l-1,-1l1,-1l-1,1l-1,-1l-1,-1l1,-1l-1,-1l-1,1l-1,-1l1,1l-3,-1l-1,-1l-1,1l-1,1l-1,1l-1,-1l-1,1l-1,1l1,1l-1,-1l-1,1l1,1l-2,1l-1,-1l-1,1l-1,-1l-2,-1l-1,-1l-1,2l-1,2l-1,2l-3,1l-1,1l-1,1l-1,1l-1,2l-1,1l-1,1l-1,1l-1,-3l-1,-7l1,-4l1,-1l5,-1l4,-1l6,-1l6,-1l6,-1l3,-1l6,-1l6,-1l6,-1l6,-1l2,-1l5,-1l6,-1l5,-1l3,-1l1,2l1,4l1,3l1,3l1,4l1,3l1,4l1,3l1,3l1,4l1,2l3,-1l2,-1l6,-1l3,1l-1,4l-1,7l-1,1l-3,1l-3,1l-1,1l-1,1l-3,1l-1,1l-2,1l-1,-2l-3,2l-2,1l-2,-1l-4,-1l-1,-1l-1,-1l-2,-1l-8,-1l-1,-1l-1,-3l-1,1l-1,1l-4,-1l-1,-2l1,-1l1,-3l1,-1l1,-1l-1,-1l1,-1l1,-1l1,-2l1,-2l-1,-1l-1,-1l-1,-1l-1,1l-1,1l-2,-1l-1,1l-1,-2l-1,-1l-1,1l-2,-1l-2,-1l1,-1l-1,-2l-1,-1Z"/><path description="RI" d="M1215,262l3,1l-1,4l-2,-1l-1,-1l1,-1ZM1206,244l1,-1l2,-1l4,-1l2,1l1,2l1,1l-1,1l1,1l1,1l1,1l2,1l1,1l1,2l1,2l-1,1l-2,2l-2,1l-1,2l-3,1l-1,1l-2,1l-2,1l-1,-2l1,-1l-1,-1l1,-1l-1,-3l-1,-4l-1,-4l-1,-3Z"/><path description="ID" d="M303,179l1,-2l1,-1l1,-1l1,-1l1,-3l1,-1l1,-2l1,-1l1,-1l1,-2l1,-1l-1,-3l1,-1l-1,-1l-1,-1l-1,-1l-1,-1l-1,-1l-1,-1l-1,-5l1,-1l1,-1l-1,-1l1,-1l-1,-1l-1,-3l1,-1l1,-2l1,-5l1,-4l1,-4l1,-5l1,-4l1,-5l1,-4l1,-4l1,-5l1,-4l1,-4l1,-4l1,-4l1,-4l1,-5l1,-4l1,1l3,1l4,1l6,1l3,1l-1,1l-1,5l-1,4l-1,5l-1,4l-1,5l1,4l1,3l1,1l-1,1l1,1l1,1l-1,4l1,1l-1,1l1,1l1,1l-2,1l1,1l1,1l1,1l1,1l1,1l1,1l1,1l1,1l1,2l1,2l1,2l1,2l-1,1l1,1l1,1l1,1l1,2l2,1l-1,1l1,1l2,1l1,-1l2,1l-1,2l-1,1l-1,3l-1,2l-1,2l1,1l-1,1l-1,1l1,1l-1,1l-1,1l1,1l1,1l-1,1l1,1l-1,1l-2,1l-1,1l1,1l-1,1l-1,2l1,1l1,1l1,2l1,1l1,-1l1,-1l1,1l1,-1l1,-1l1,-1l1,-1l1,1l1,1l1,1l-1,1l1,1l-1,4l1,1l1,2l-1,1l1,1l1,1l1,3l1,1l-1,3l-1,1l1,1l1,2l1,1l3,1l1,1l1,2l-1,2l1,1l-1,1l1,1l1,3l1,1l1,1l1,-1l-1,-1l1,-1l2,-1l1,1l2,1l2,1l2,-1l1,-1l1,-1l1,1l2,1l1,-1l1,1l1,-1l1,1l1,1l2,-1l2,1l1,-1l1,1l1,1l-1,-2l1,-1l1,-1l1,-1l1,-1l1,1l1,1l1,2l-1,1l1,1l1,1l1,1l1,1l-1,1l-1,5l-1,6l-1,7l-1,6l-1,6l-1,6l-1,6l-1,6l-1,6l-1,6l-1,6l-1,1l-5,-1l-4,-1l-7,-1l-6,-1l-7,-1l-3,-1l-8,-1l-5,-1l-7,-1l-6,-1l-3,-1l-6,-1l-5,-1l-5,-1l-3,-1l-6,-1l-6,-1l-5,-1l-3,-1l-4,-1l-5,-1l-6,-1l-2,-1l-2,-1l1,-4l1,-4l1,-5l1,-4l1,-4l1,-4l1,-5l1,-4l1,-4l1,-5l1,-4l1,-3l1,-1l1,-2l-1,-2l1,-1l1,-1l1,-1l-1,-1l-1,-1l-1,-1l-1,-1l-1,1l-1,-1l1,-1l-1,-2l1,-1l1,-2l1,-1l1,-1l1,-1l1,-2l1,-1l1,-1l1,-1l1,-1l1,-1Z"/><path description="NH" d="M1184,201l1,-1l1,-2l-1,-14l1,-2l1,-2l1,-1l1,-1l1,-1l1,-1l1,-1l-1,-1l1,-1l-1,-2l-1,-1l-1,-2l1,-1l1,-3l-1,-1l-1,-1l1,-2l-1,-1l1,-1l-1,-4l2,-1l1,-1l1,1l1,-1l1,1l1,-2l1,1l1,3l1,3l1,3l1,3l1,3l1,3l1,3l1,3l1,3l1,4l1,3l1,3l1,3l1,3l1,2l1,5l1,1l1,1l1,1l1,1l1,2l1,1l1,1l1,1l1,1l1,1l-2,-1l-1,1l-1,2l-2,1l-2,1l-1,1l-1,1l-1,1l-1,1l-1,1l-2,1l-2,1l-6,1l-5,1l-5,1l-3,-1l-1,-1l-1,-1l1,-3l-1,-5l-1,-7l1,-6l-1,-1Z"/><path description="NC" d="M1020,449l1,1l3,-1l1,-1l1,-3l1,-1l1,-1l1,-1l-1,-1l1,-1l-1,-2l1,-1l-1,-1l4,-1l10,-1l5,-1l9,-1l8,-1l7,-1l3,-1l7,-1l6,-1l6,-1l3,-1l6,-1l6,-1l6,-1l3,-1l6,-1l5,-1l5,-1l6,-1l2,-1l7,-1l5,-1l5,-1l1,3l1,2l1,3l1,2l1,1l1,1l2,2l2,4l1,1l1,1l1,1l1,1l1,3l-1,12l-3,1l-1,1l-1,1l-2,1l-1,1l-1,1l-1,1l-2,2l-1,2l-1,1l-1,2l-1,1l-1,2l-1,5l-2,-1l-1,-1l-5,1l-1,1l-3,1l-2,1l-2,1l-1,1l-1,1l-1,1l-1,1l-1,1l-1,1l-1,1l-1,1l-1,2l-1,1l-1,3l-1,6l1,3l-1,1l-1,1l-1,-1l-1,-1l-5,1l-3,1l-1,1l-2,-1l-1,-1l-1,-1l-2,-1l-1,-1l-1,-1l-2,-1l-1,-1l-2,-1l-1,-1l-1,-1l-2,-1l-2,-1l-1,-1l-1,-1l-2,-1l-1,-1l-1,-1l-1,-1l-1,-1l-2,-1l-1,-1l-1,-1l-4,1l-8,1l-4,1l-8,1l-2,-1l-1,-3l-1,-1l-1,-1l-1,-1l-1,-1l-1,2l-1,1l-1,-3l-10,1l-6,1l-10,1l-4,1l-3,1l-2,1l-1,-1l-1,2l-1,1l-1,-1l-1,1l-1,1l-3,1l-1,1l-6,1l-5,1l-10,1l-5,1l-2,-1l1,-6l1,-1l3,-1l1,-1l1,-4l1,-1l1,-1l1,-1l1,-1l1,-1l6,-1l1,-1l1,-1l1,-1l1,-1l1,-1l1,-1l1,-1l2,1l1,-1l1,-1l-1,-1l1,-1l-1,-1l1,-1l1,1l1,-1l1,-1l1,-2l1,-1l1,1l1,2l2,-1l1,-1l1,-2l1,-1l1,-1l1,-1Z"/><path description="VT" d="M1155,170l1,-1l1,-1l4,-1l5,-1l5,-1l3,-1l5,-1l4,-1l3,-1l2,-1l1,1l1,1l1,1l-1,1l-1,3l1,1l1,2l1,1l-1,2l1,1l-1,1l-1,2l-1,1l-1,1l-1,1l-1,1l-1,1l1,2l-1,14l-1,2l1,1l-1,1l1,1l-1,1l1,5l1,7l-1,5l1,4l1,1l-1,2l-4,1l-5,1l-6,1l-1,-3l-1,-5l-1,-5l-1,-5l-1,-4l-1,-1l-1,-1l-1,1l-1,1l1,-4l-1,-2l-1,-3l-1,-1l-1,-3l1,-5l-1,-3l-1,-5l-1,-1l-1,-2l-1,-5Z"/><path description="CT" d="M1172,251l1,-1l5,-1l6,-1l2,1l1,-2l3,-1l5,-1l5,-1l5,-1l1,1l1,2l1,3l1,4l1,4l-1,3l1,1l-1,2l-2,1l-1,1l-1,1l-2,1l-2,1l-1,1l-2,1l-3,1l-2,1l-1,1l-2,1l-2,1l-2,1l-1,1l-1,1l-2,1l-2,1l-2,1l-1,1l-1,-1l-1,-1l-1,-1l-1,-1l1,-1l1,-1l1,-1l1,-1l-1,-1l-1,-2l-1,-5l-1,-5l-1,-6Z"/><path description="DE" d="M1139,326l1,-1l1,-2l1,-1l1,-1l4,1l-1,1l-1,2l1,1l-1,1l1,1l1,4l1,1l1,1l1,1l1,1l1,1l2,1l1,1l1,2l1,1l1,2l1,1l1,1l1,2l1,2l1,3l1,3l-1,1l-2,1l-6,1l-2,1l-4,-1l-1,-1l-1,-4l-1,-3l-1,-3l-1,-4l-1,-4l-1,-3l-1,-4l-1,-3l-1,-3Z"/><path description="NM" d="M557,443l-1,1l-1,12l-1,2l-1,14l-1,13l-1,25l-1,13l-1,12l-1,10l-1,11l-1,13l-1,13l-1,1l-1,-1l-14,-1l-13,-1l-13,-1l-6,-1l-11,-1l-11,-1l-11,-1l-3,1l-1,1l1,1l-1,1l1,1l1,1l-6,-1l-10,-1l-5,-1l-10,-1l-7,1l-1,3l-1,7l-1,1l-4,-1l-9,-1l-5,-1l-1,-1l1,-3l1,-7l1,-7l1,-7l1,-7l1,-7l1,-7l1,-6l1,-8l1,-7l1,-7l1,-7l1,-7l1,-7l1,-6l1,-8l1,-7l1,-6l1,-8l1,-7l1,-6l1,-8l1,-7l1,1l8,1l5,1l9,1l9,1l10,1l5,1l8,1l11,1l11,1l6,1l12,1l13,1l15,1l8,1Z"/><path description="CA" d="M169,486l1,-2l1,1l1,1l1,1l1,1l-1,1l-3,-1l-1,-1ZM188,498l1,-1l1,-1l1,1l1,1l1,1l1,2l1,1l1,1l-1,3l-4,-1l-1,-1l-1,-2l-1,-4ZM182,482l1,-1l1,1l1,1l-1,1l-1,1l-1,-1l-1,-1l1,-1ZM192,486l1,-2l2,1l2,1l1,1l1,1l1,1l1,2l-1,1l-1,1l-3,-1l-1,-1l-1,-1l-1,-2l-1,-1ZM177,465l4,1l-1,2l-3,-1l-1,-1l-1,2l-2,-1l-1,1l-1,-1l-3,-1l-1,-1l-1,1l-2,1l-3,-1l-1,-1l-1,-1l-1,-2l-2,-1l-2,-1l-1,-2l1,-2l1,1l4,1l1,1l1,1l1,1l1,-1l1,1l2,1l1,-1l1,-1l1,1l2,1l2,1l3,1ZM125,342l1,-1l2,1l1,1l1,2l-1,1l-3,-1l-1,-1ZM136,221l3,1l4,1l1,1l4,1l5,1l4,1l3,1l3,1l4,1l4,1l2,1l4,1l4,1l4,1l2,1l4,1l4,1l4,1l2,1l3,1l4,1l5,1l2,1l5,1l2,1l-1,1l-1,3l-1,4l-1,3l-1,4l-1,4l-1,4l-1,4l-1,3l-1,4l-1,4l-1,4l-1,3l-1,4l-1,4l-1,3l-1,4l-1,3l-1,4l-1,4l-1,7l1,4l1,3l1,1l1,2l1,1l1,1l1,2l1,2l1,1l1,1l1,2l1,1l1,1l1,2l1,2l1,1l1,1l1,2l1,2l1,1l1,1l1,2l1,2l1,1l1,1l1,2l1,1l1,2l1,1l1,1l1,2l1,1l1,1l1,4l1,1l1,2l1,1l1,2l1,1l1,1l1,2l1,2l1,1l1,1l1,2l1,1l1,2l1,1l1,1l1,2l1,2l1,1l1,1l1,2l1,2l1,1l1,1l1,2l1,1l1,2l1,1l1,2l1,1l1,2l1,1l1,3l1,1l1,1l1,2l1,2l1,2l1,1l1,1l1,2l1,1l1,1l1,2l1,1l1,2l1,1l1,2l1,1l1,2l1,1l1,1l1,2l1,1l1,2l1,1l1,2l1,6l1,3l1,1l1,5l-1,1l1,1l1,1l1,1l1,2l-1,3l-1,1l-1,1l-1,1l-3,1l-1,1l-1,1l-1,1l-1,2l-1,5l1,1l-1,1l-1,2l-1,1l-1,1l-1,1l-1,1l-1,1l1,2l-1,1l-1,3l1,2l1,1l2,1l1,1l-1,1l1,1l-1,1l-1,1l-1,1l-1,1l-3,-1l-1,1l-4,-1l-5,-1l-9,-1l-11,-1l-9,-1l-4,-1l-10,-1l-5,-1l-1,-2l-1,-1l1,-6l-1,-9l-1,-2l-1,-2l-1,-1l-1,-1l-1,-2l-1,-1l-1,-2l-1,-1l-1,-1l-1,-1l-1,-1l-1,-2l-1,-1l-4,-1l-1,-1l-1,-1l1,-2l-1,-3l-1,-2l-2,-1l-2,1l-2,-1l-1,-1l-1,-1l-3,-1l-2,-1l-1,-1l-1,-1l-1,-4l-1,-1l-1,-2l-1,-1l-1,-1l-2,-1l-1,1l-1,-1l-1,-1l-2,-1l-2,-1l-2,-1l-2,-1l-7,-1l-1,-1l-1,-2l-1,-1l-1,-1l1,-1l1,-1l1,-2l-1,-1l1,-1l-1,-3l1,-1l1,-1l1,-2l-1,-2l-1,-1l-1,-1l-1,-1l-1,-1l1,-2l1,-2l-1,-1l-1,-1l-1,-1l-1,-2l-1,-2l-1,-1l-1,-1l-1,-1l-1,-5l-1,-2l-1,-4l-1,-1l-1,-4l-1,-1l-1,-1l-1,-2l1,-10l1,-2l-1,-8l-1,-1l-1,-2l-1,-2l-1,-1l1,-7l-1,-4l1,-4l1,-4l-1,-2l-1,-1l-1,-1l-1,-1l-1,-1l-1,-2l-3,-1l2,-4l-1,-4l-1,-5l-1,-1l-1,-2l-1,-2l-1,-3l-1,-2l-1,-2l-1,-1l-1,-3l1,-3l1,-1l-1,-4l1,-1l-1,-1l1,-1l1,-5l1,-1l1,-1l-1,-8l-1,-4l-1,-2l-1,-3l-1,-2l-1,-1l-1,-1l1,-3l1,-5l1,-2l1,-2l1,-1l1,-1l1,-1l1,-1l1,-1l1,-1l1,-1l1,-2l-1,-1l1,-3l1,-1l1,-1l-1,-2l1,-2l2,-1l1,-1l-1,-1l1,-1l-1,-1l1,-1l-1,-1l1,-1l-1,-1l-1,-1l-1,-1l-1,-2l1,-1l1,-1l1,1l1,1l1,-3Z"/><path description="NJ" d="M1146,295l1,-1l1,-3l-1,-1l-1,-1l-1,-1l1,-1l1,-1l1,-1l1,-2l1,-3l-1,-1l1,-1l1,-1l1,-1l1,-1l1,1l1,1l2,1l3,1l4,1l3,1l2,1l1,1l-1,5l1,2l-1,1l-1,1l-1,1l-1,1l1,1l-1,1l1,2l1,-1l1,-1l2,-1l3,1l1,3l1,17l-1,2l-1,4l-1,3l-1,3l-1,2l-1,1l-1,1l-1,1l-1,2l-1,4l-1,3l-1,2l-1,1l-2,2l-1,-1l-1,-1l-1,-1l-1,-1l-1,-2l-1,-1l-1,-2l-1,-1l-1,-1l-1,-1l-1,-1l-2,-1l-1,-1l-1,-1l-1,-3l1,-2l-1,-1l1,-1l1,-2l1,-1l1,-1l1,-1l2,-1l1,-2l1,-2l1,-1l1,-1l1,-2l1,-1l-1,-1l-1,-1l-1,-1l-1,-1l-1,-1l-1,-1l-2,-1l-1,-2l-1,-1l-1,1l-1,-1Z"/><path description="WI" d="M781,193l2,-1l1,-1l-1,-2l1,-14l1,-1l1,-1l1,-1l1,1l2,-1l1,-1l2,-1l3,-2l2,-1l3,-1l1,-2l3,-2l1,-1l1,-1l1,-1l1,-1l2,-1l2,-2l14,2l-1,1l-1,2l-1,3l-1,4l-1,1l-1,2l-1,3l-1,2l1,1l1,1l1,1l1,-1l1,1l1,1l1,2l1,1l2,1l5,1l5,1l3,1l5,1l2,1l2,1l1,-1l1,1l3,-1l1,1l4,1l1,-1l1,1l1,-1l1,1l1,1l1,1l-1,1l1,1l2,1l1,1l2,1l-1,1l1,1l-1,1l1,1l-1,2l-1,3l1,-1l1,1l1,-1l2,1l-1,2l1,3l1,1l1,1l3,-1l1,-3l1,-1l1,-1l1,-1l1,-1l1,-2l1,-1l3,-1l4,1l2,1l3,1l2,1l1,1l-1,2l-1,1l-1,2l-1,2l-1,2l-1,2l-1,3l-1,4l-1,6l-1,5l-1,3l-1,12l1,5l1,9l1,5l1,5l1,6l1,3l-2,1l-3,1l-7,1l-13,1l-14,1l-20,1l-11,1l-4,-1l-1,-1l-1,-1l-1,-1l-2,-1l-3,-1l-1,-1l-1,-1l-1,-1l-1,-2l-1,-4l1,-2l1,-3l1,-1l-1,-1l-1,-1l-1,-1l-1,-1l-1,-3l-1,-4l1,-1l-1,-3l-1,-2l-1,-2l-1,-1l-1,-1l-2,-1l-1,-1l-1,-1l-2,-1l-2,-1l-1,-2l-1,-2l-1,-1l-2,-1l-3,-1l-1,-1l-1,-1l-1,-1l-1,1l-1,-1l-2,-1l-1,-1l-1,-1l-1,-1l-1,-1l1,-4l-1,-1l-1,-3l1,-1l1,-1l-1,-1l1,-4l1,-2l-1,-2l-1,-2l-1,-1l-1,-1l1,-4l1,-2l-1,-1l1,-1l1,-1l1,-1l2,-1l1,-1Z"/><path description="OR" d="M174,107l1,1l1,-1l1,1l1,1l4,1l5,1l1,3l1,1l3,-1l1,1l1,1l1,1l1,1l1,3l-1,5l-1,4l1,1l1,1l1,1l1,1l1,1l2,1l1,1l5,-1l2,-1l1,1l1,-1l5,1l1,-1l1,1l1,1l3,1l2,1l1,2l1,-1l1,1l6,-1l3,1l1,1l9,-1l8,1l1,-1l1,-1l1,1l6,1l4,-1l3,1l5,1l5,1l2,1l5,1l5,1l5,1l1,1l5,1l4,1l1,2l1,2l1,1l1,1l1,1l1,1l-1,1l1,1l-1,2l-1,1l-1,2l-1,1l-1,1l-1,2l-1,1l-1,3l-1,1l-1,1l-1,1l-1,3l-1,1l-1,1l-1,1l-1,1l-1,1l-1,2l-1,1l-1,1l-1,1l-1,2l1,1l-1,2l1,1l1,1l1,1l1,-1l1,1l-1,1l1,1l1,1l-1,1l-1,1l-1,2l-1,2l-1,1l-1,3l-1,4l-1,5l-1,4l-1,4l-1,5l-1,4l-1,5l-1,3l-1,5l-1,4l-1,5l-2,-1l-6,-1l-5,-1l-2,-1l-4,-1l-5,-1l-6,-1l-2,-1l-5,-1l-5,-1l-4,-1l-2,-1l-4,-1l-4,-1l-5,-1l-5,-1l-3,-1l-4,-1l-4,-1l-3,-1l-2,-1l-5,-1l-4,-1l-4,-1l-1,-1l-4,-1l-4,-1l-4,-1l-2,-1l-4,-1l-4,-1l-4,-1l-2,-1l-4,-1l-5,-1l-4,-1l-2,-1l-3,-1l-3,-1l-1,-1l1,-8l-1,-3l1,-2l1,-1l1,-1l-1,-2l1,-1l-1,-1l-1,-1l-1,-1l1,-1l1,-1l1,-1l1,-1l1,-2l1,-1l1,-3l1,-1l1,-3l1,-1l1,-1l1,-1l1,-1l1,-1l1,-1l1,-3l1,-1l1,-2l1,-2l1,-3l1,-2l1,-3l1,-3l1,-1l1,-3l1,-2l1,-4l1,-3l1,-1l1,-2l1,-3l1,-2l1,-1l1,-3l-1,-1l1,-1l1,-1l1,-3l1,-4l-1,-2l1,-2l1,-2l-1,-1l1,-1l1,-1l1,-1l-1,-4Z"/><path description="NE" d="M549,272l4,1l14,1l16,1l17,1l23,1l13,1l25,1l1,1l2,1l1,1l2,1l2,1l1,1l2,-1l2,-1l1,-1l1,1l6,-1l1,1l1,-1l1,1l2,1l1,1l3,1l1,1l1,-1l1,1l1,1l3,1l-1,1l1,1l1,1l2,1l1,1l1,-1l1,1l-1,1l1,1l-1,1l1,1l1,1l1,4l1,1l-1,1l1,1l1,1l1,1l1,3l1,10l1,1l1,1l-1,2l1,1l1,1l-1,1l1,2l1,1l-1,1l1,4l-1,6l1,2l1,1l1,1l-1,1l1,2l1,-1l1,1l-1,1l1,1l1,3l-1,1l1,-1l1,1l1,1l1,1l1,2l1,1l-1,1l1,1l1,1l-65,-1l-34,-1l-24,-1l-19,-1l-1,-1l1,-9l1,-15l-1,-3l-11,-1l-8,-1l-14,-1l-7,-1l1,-10l1,-11l1,-11l1,-12Z"/><path description="PA" d="M1028,272l1,-1l3,-1l2,-1l3,-1l1,-1l2,-1l2,-1l1,-1l1,7l1,3l1,4l6,-1l3,-1l6,-1l6,-1l6,-1l6,-1l4,-1l5,-1l5,-1l6,-1l3,-1l6,-1l6,-1l5,-1l3,-1l5,-1l5,-1l3,1l1,1l1,1l2,-1l1,1l1,1l1,1l1,2l1,3l1,2l1,1l1,-1l1,1l3,1l1,1l-1,1l-1,1l-1,1l1,1l-1,1l-1,2l-1,2l-1,2l-1,1l1,1l1,1l1,1l-1,1l-1,2l-1,1l1,1l1,3l2,1l1,1l1,2l2,1l1,1l1,1l1,1l1,1l1,1l-1,1l-1,1l-1,1l-1,1l-1,1l-1,2l-1,3l-1,1l-2,1l-6,1l-1,1l-1,1l-1,1l-1,1l-2,1l-6,1l-5,1l-5,1l-3,1l-5,1l-6,1l-6,1l-6,1l-3,1l-6,1l-6,1l-6,1l-4,1l-6,1l-6,1l-7,1l-3,1l-7,-1l-1,-2l-1,-7l-1,-5l-1,-6l-1,-6l-1,-6l-1,-6l-1,-6l-1,-5l-1,-7l-1,-5l-1,-7Z"/><path description="WA" d="M324,68l-1,4l-1,5l-1,4l-1,4l-1,4l-1,4l-1,4l-1,5l-1,4l-1,4l-1,5l-1,4l-1,5l-1,4l-1,4l-1,5l-1,2l1,1l1,3l-1,1l1,1l-1,1l-1,1l1,1l-1,2l-3,-1l-5,-1l-1,-1l-5,-1l-5,-1l-5,-1l-2,-1l-5,-1l-5,-1l-4,1l-3,-1l-6,-1l-2,1l-1,1l-1,-1l-7,1l-10,-1l-1,-1l-2,1l-6,-1l-1,1l-2,-1l-1,-2l-1,-1l-3,-1l-1,-1l-1,1l-2,-1l-5,1l-1,-1l-1,1l-2,1l-5,-1l-1,-1l-1,-1l-1,-1l-2,-1l-1,-1l-1,-1l1,-1l1,-3l-1,-5l-1,-3l-1,-1l-1,-1l-1,-2l-1,1l-3,-1l-1,-1l-1,-3l-4,-1l-5,-1l-1,-1l-1,1l-1,-1l1,-2l1,-2l1,-4l1,-5l-1,-4l1,-2l1,-2l-1,-7l1,-1l-1,-1l1,-2l-1,-6l1,-3l-1,-1l-1,-2l-1,-3l1,-1l-1,-1l1,-2l1,-5l1,-1l1,-1l-1,-1l1,-2l1,-1l1,-1l1,2l1,1l3,2l1,1l1,1l2,1l2,2l2,1l2,1l2,1l1,1l8,-1l1,-1l1,-1l-1,-1l1,-7l5,-1l-1,-2l-1,-2l-1,-2l-1,-1l3,1l2,1l4,1l4,1l4,1l4,1l2,1l3,1l5,1l4,1l2,1l4,1l5,1l4,1l2,1l4,1l4,1l5,1l2,1l5,1l5,1l4,1l3,1l4,1l5,1l4,1l3,1l5,1l5,1Z"/><path description="LA" d="M824,558l-1,2l1,1l1,-1l1,-1l1,1l-1,1l-1,1l1,3l2,1l-2,1l-1,1l1,1l2,-1l1,1l-1,1l-1,1l2,1l-1,-1l-1,-1l-1,2l1,1l1,1l1,-1l1,1l-1,1l1,1l2,-1l-1,2l-1,1l-1,2l-1,-1l-1,1l-1,1l-1,1l4,-1l1,1l-1,1l-1,1l-1,1l-1,-1l1,1l1,1l-2,1l-1,1l1,1l-2,1l-1,2l-1,-2l-1,2l1,1l-1,1l-1,3l-2,1l3,1l-3,1l1,2l-1,2l-1,-2l1,2l-1,1l1,1l-1,1l-2,1l1,1l1,1l-1,1l1,1l1,1l-1,1l-1,1l3,-1l22,-1l18,-1l3,1l-1,1l-1,3l-1,4l1,1l1,2l1,1l1,1l1,1l1,3l1,1l-1,1l1,1l1,1l1,1l5,-1l3,-1l1,1l2,1l6,1l1,1l1,2l-1,6l-1,3l-1,1l-1,1l-1,1l-1,1l-1,1l-1,1l-1,1l1,1l1,1l1,2l3,1l1,1l-1,3l-1,1l-1,1l-1,1l-1,2l-2,-1l-3,1l-1,1l-1,1l-1,1l-1,-1l-1,-7l-1,-1l-1,-1l-1,1l-4,1l-5,1l-2,1l-1,1l-1,1l-3,1l-6,-1l-1,1l-4,1l-5,-1l-1,-1l1,-1l-2,-1l-2,-1l-5,-1l-1,-1l-1,-1l-2,-1l-3,-1l-2,1l-1,-1l-3,1l-1,-1l-1,-1l-2,-1l-1,-1l-1,-1l-2,1l-2,1l-2,-1l-8,-1l-4,-1l-2,-1l-1,-1l-4,-1l-6,1l-1,-1l-5,1l-4,1l-1,2l-1,-3l-1,-1l-1,-1l1,-1l1,-2l1,-1l1,-2l1,-1l1,-1l-1,-1l1,-1l-1,-1l1,-1l-1,-1l-1,-2l1,-3l-1,-3l1,-1l1,-1l1,-2l1,-2l-1,-1l1,-1l1,-1l-1,-1l1,-1l-1,-2l1,-1l1,-1l-1,-1l-1,-3l-1,-1l-1,-1l-1,-1l1,-1l-1,-1l-1,-2l1,-1l-1,-1l-2,-1l-1,-1l1,-1l-1,-1l1,-1l-1,-1l-1,-2l-1,-2l-1,-1l-1,-1l-1,-1l-1,-20l1,-9l19,-1l38,-1Z"/><path description="GA" d="M947,492l4,-1l9,-1l9,-1l9,-1l5,-1l10,-1l5,-1l5,1l-1,1l-1,1l-1,2l-1,1l1,3l1,1l1,1l2,1l1,1l2,1l2,-1l1,1l1,-1l1,1l1,3l1,1l1,1l1,2l1,1l1,1l1,2l1,1l1,1l1,1l1,1l2,1l2,1l1,1l1,2l1,1l1,1l1,-1l1,1l1,1l1,1l1,1l1,1l-1,1l1,1l1,1l1,1l1,1l1,1l1,1l2,1l2,1l2,1l1,1l1,2l1,1l1,2l1,3l-1,1l1,1l1,1l2,1l2,1l1,2l1,2l-1,1l1,1l-1,1l1,1l1,1l1,1l3,1l5,-1l-1,1l-1,3l-1,1l-1,2l-1,1l-1,2l-1,7l-1,2l1,1l-1,5l-1,1l-1,3l1,2l-1,2l1,1l-1,1l1,3l-1,1l-2,1l-2,-1l-1,1l-1,-1l-5,-1l-2,1l-1,1l-1,1l1,1l-1,1l1,1l1,1l-1,6l-1,1l-2,-1l-1,-1l-1,-3l1,-1l-4,1l-16,1l-17,1l-9,1l-16,1l-2,-1l-1,-1l-1,-1l-1,-2l-1,-2l-1,-2l-1,-2l-1,-1l-1,-3l1,-1l-1,-2l1,-1l-1,-5l-1,-2l-1,-1l1,-1l-1,-1l1,-5l1,-7l1,-1l1,-1l-1,-1l-1,-1l-1,-1l1,-1l-1,-2l-1,-2l-1,-1l-1,-1l-1,-2l-1,-3l-1,-4l-1,-4l-1,-3l-1,-4l-1,-3l-1,-3l-1,-4l-1,-4l-1,-3l-1,-4l-1,-4l-1,-3l-1,-3l-1,-3l-1,-4l-1,-3Z"/><path description="AL" d="M889,497l10,-1l6,-1l16,-1l11,-1l13,-1l3,1l1,3l1,3l1,4l1,3l1,4l1,3l1,4l1,3l1,3l1,4l1,4l1,3l1,3l1,4l1,3l1,4l1,4l1,3l1,2l1,2l1,1l1,1l-1,3l1,1l1,1l1,1l-1,1l-1,1l-1,1l-1,6l1,6l-1,1l1,1l1,1l1,1l-1,6l1,1l-1,1l1,1l1,3l1,1l1,2l-1,1l-6,1l-8,1l-5,1l-11,1l-12,1l-13,1l-6,1l1,4l1,1l1,1l1,1l1,1l1,1l-1,3l1,1l1,1l-1,1l-1,2l-1,1l1,1l-1,1l-1,1l-2,1l-4,1l-5,1l-2,-1l-6,1l-1,-2l-1,-8l-1,-8l-1,-8l-1,-7l-1,-8l1,-51l-1,-41l-1,-2Z"/><path description="UT" d="M341,272l2,1l6,1l7,1l6,1l7,1l4,1l6,1l7,1l7,1l3,1l6,1l-1,4l-1,7l-1,5l-1,6l1,6l6,1l7,1l9,1l4,1l7,1l7,1l-1,6l-1,6l-1,7l-1,8l-1,7l-1,6l-1,9l-1,5l-1,7l-1,6l-1,7l-1,10l-1,7l-1,7l-1,13l-6,-1l-8,-1l-4,-1l-8,-1l-6,-1l-7,-1l-5,-1l-7,-1l-7,-1l-6,-1l-7,-1l-3,-1l-7,-1l-6,-1l-7,-1l-2,-1l-7,-1l-5,-1l-1,-1l1,-2l1,-5l1,-6l1,-5l1,-4l1,-5l1,-5l1,-6l1,-4l1,-6l1,-4l1,-5l1,-6l1,-5l1,-10l1,-4l1,-6l1,-4l1,-6l1,-4l1,-5l1,-6l1,-4l1,-5l1,-5l1,-6Z"/><path description="OH" d="M943,302l4,-1l4,-1l7,-1l6,-1l7,-1l1,-1l1,-1l1,-1l1,-1l1,-1l1,-2l1,2l2,2l3,1l2,1l2,1l1,-1l6,-1l2,-1l1,-3l3,-1l2,-3l2,-1l1,-1l1,-1l2,-1l1,-1l1,-1l1,-1l1,-1l1,-1l1,-1l3,-1l2,-1l3,-1l3,-1l3,-1l1,4l1,6l1,6l1,6l1,5l1,6l1,6l1,6l-1,2l-1,1l-1,1l1,1l1,1l1,5l-1,1l-1,3l-1,8l1,1l-1,1l-1,2l1,1l-1,4l-1,1l-1,1l-1,1l-1,1l-1,3l-1,1l-1,1l-1,-1l-1,-1l-1,1l-1,1l-1,1l-1,2l-1,1l-1,1l-1,3l1,1l1,3l-1,1l-1,-1l-1,2l-1,1l1,-2l-1,-1l-1,-1l-1,1l-1,-1l-1,1l-1,3l1,1l-1,1l-1,1l1,1l1,2l-1,3l-1,-1l-1,1l-1,4l-1,1l-2,1l-1,-1l-1,-1l-1,-1l-2,-1l-2,-1l-1,-1l-1,-3l-1,1l-2,1l-1,1l-1,1l-1,1l-1,-1l-1,1l-1,-1l-3,-1l-2,1l-2,1l-1,1l-2,-1l-1,-1l-1,-1l-2,-1l-1,1l-4,-1l-2,-1l-1,-4l-1,-1l-2,-1l-1,-1l-1,1l-1,1l-1,-1l-2,-1l-1,1l-2,-1l-1,-8l-1,-9l-1,-9l-1,-9l-1,-9l-1,-8l-1,-8l-1,-8Z"/><path description="TX" d="M556,456l1,1l16,1l18,1l11,1l20,1l-1,20l-1,23l1,11l2,1l1,1l1,1l1,1l1,1l3,-1l1,1l2,1l1,-1l1,-1l1,1l1,1l1,1l1,1l1,3l5,1l2,1l3,-1l2,1l1,1l1,1l2,-1l1,-1l4,1l1,-1l2,1l-1,1l1,1l1,1l2,1l-1,1l1,1l-1,1l4,-1l1,-1l2,-1l1,-1l1,1l1,1l-1,1l4,1l-1,1l2,-1l3,-1l1,1l1,1l-1,1l1,2l1,-1l1,-1l-1,-1l1,-1l1,1l1,-1l1,-2l1,1l1,1l2,1l2,-1l1,-1l1,1l-1,1l2,1l1,-1l1,2l1,1l1,1l2,-1l1,-1l1,1l1,-1l1,-1l1,-1l1,-1l1,1l1,-1l1,1l2,-1l1,1l1,-1l1,-1l2,-1l1,1l1,1l5,-1l1,1l1,-2l1,1l2,1l1,-1l-1,1l1,-1l1,1l1,1l1,1l1,1l1,1l1,-1l1,1l1,1l-1,-1l1,1l1,1l1,-1l1,1l-1,1l1,-1l-1,1l3,1l2,1l1,-1l1,1l1,-1l1,1l1,-1l1,1l1,-1l1,1l1,24l1,20l1,1l1,1l1,1l1,2l1,2l-1,2l1,1l-1,1l1,1l1,1l1,1l1,1l1,2l-1,1l1,1l1,1l1,2l1,1l-1,2l1,1l-1,1l1,1l-1,2l1,1l-1,1l1,1l-1,1l-1,1l-1,2l-1,2l-1,1l1,1l-1,3l1,3l1,3l-1,1l1,1l-1,1l1,1l-1,1l-1,1l-1,1l-1,1l-1,2l-1,1l1,1l1,1l1,1l-1,3l-1,-1l-6,1l-3,1l-2,2l-4,1l-2,1l-2,1l1,1l-1,1l-1,1l-1,1l-1,1l-2,1l-2,1l-1,1l-1,1l-1,1l-1,1l-1,2l-1,1l-2,1l-1,1l-1,1l-3,1l-2,1l-2,1l-2,1l-1,1l-3,1l-2,1l-2,1l-1,1l-2,1l-1,1l-1,1l-1,1l-1,1l-2,1l-2,1l-1,1l-2,1l-1,1l-2,1l-1,1l-1,1l-1,1l-1,1l-1,1l-1,2l-1,1l-1,1l-1,2l-1,1l-1,2l-1,2l-1,2l-1,3l1,18l1,2l1,4l1,6l1,4l-1,3l-1,1l-3,1l-1,-1l-1,1l1,1l-1,1l-1,-1l-1,-1l-1,1l-1,-1l-1,-1l-1,-1l-1,-1l-1,-1l-1,1l-1,-1l-2,-1l-1,1l-1,-1l-1,1l-1,-1l-1,1l-1,-1l-2,1l-1,-1l-2,-1l-1,-1l-1,-1l-2,-1l-3,-1l-1,-1l-1,1l-1,-1l-1,-1l-1,-1l-1,-1l-1,1l-1,-1l-1,-1l-1,1l-1,-1l-3,-1l1,-1l-1,-1l-1,-1l-1,-2l-1,-3l-1,-4l-1,-1l-1,-1l-1,-2l-1,-1l1,-1l-1,-1l1,-1l-1,-2l1,-1l-2,-1l-1,-1l1,-1l1,-1l-1,-1l1,-1l-1,-1l-1,-2l-1,-1l-1,-1l-1,1l-1,-1l-1,-1l-1,-2l-1,-1l-1,-1l-1,-4l-1,-1l-1,-2l-1,-1l-1,-2l-1,-1l-1,-1l-2,-1l-1,-2l-1,-4l1,-1l-2,-1l1,-1l-1,-1l-1,-1l-1,-1l-1,-2l1,-1l-1,-1l-1,-1l-1,-1l-1,-5l-1,-1l-1,-1l-1,-2l1,-1l-2,-1l-1,-1l-1,-1l-2,-1l-1,-2l-1,-1l-2,-1l-2,-1l1,-1l-1,-1l-1,-1l-1,-1l-1,-2l-1,-1l-1,1l-1,-1l-1,1l-1,-1l-1,1l-1,-1l-2,-1l-1,1l-1,-1l-1,1l-1,-1l-2,1l-1,-1l-2,-1l-1,-1l-2,-1l-1,1l-1,1l-1,1l1,1l-1,-1l-3,1l-1,-1l-1,1l-1,1l-1,1l-1,1l-1,1l-1,1l1,1l-1,1l-1,2l-1,1l-1,4l-1,1l-1,-1l-1,2l-1,1l-1,1l-1,2l-4,-1l-1,-1l-2,-1l-1,-1l-1,-1l-1,-1l-3,-1l-2,-1l-1,-1l-1,-1l-2,-1l-2,-1l-1,-1l-1,-1l-1,-1l-1,-1l-1,-1l-2,-1l-1,-1l-1,-1l-1,-1l-1,-1l-1,-1l1,-1l-1,-1l-1,-1l-1,-2l-1,-4l1,-1l-1,-6l-1,-1l-1,-1l1,-1l-1,-1l-1,-1l1,-1l-1,-1l-1,-3l-1,-1l-1,-1l-1,-1l-1,-1l-1,-1l-1,-1l-1,-1l-2,-1l-1,-1l-1,-1l-1,-1l-1,-1l-1,-2l-1,-1l-1,-1l-1,-1l-1,-1l-1,-1l-1,-2l-1,-1l-1,-1l1,-1l-2,-1l-3,-1l-1,-1l-1,-1l-1,-1l-1,-3l-1,-2l-1,-2l-2,-1l-1,-1l-1,-1l-1,-1l1,-1l1,-2l3,1l11,1l11,1l10,1l6,1l13,1l13,1l15,1l1,-1l1,-1l1,-13l1,-12l1,-11l1,-11l1,-11l1,-13l1,-25l1,-13l1,-14Z"/><path description="CO" d="M439,316l2,1l8,1l5,1l8,1l10,1l10,1l5,1l9,1l10,1l12,1l5,1l14,1l14,1l14,1l9,1l11,1l-1,2l-1,15l-1,32l-1,16l-1,15l-1,16l-1,16l-8,-1l-15,-1l-7,-1l-16,-1l-13,-1l-11,-1l-6,-1l-12,-1l-10,-1l-9,-1l-5,-1l-9,-1l-9,-1l-9,-1l-5,-1l-8,-1l-1,-1l1,-12l1,-7l1,-8l1,-9l1,-7l1,-6l1,-8l1,-6l1,-7l1,-7l1,-7l1,-7l1,-7l1,-6Z"/><path description="SC" d="M1014,504l-1,-1l-1,-1l-1,-3l-1,-1l-1,1l-2,-1l-2,-1l-1,-1l-2,-1l-2,-1l-1,-1l1,-2l1,-1l1,-2l1,-1l1,-1l-1,-1l1,-1l1,-1l3,-1l2,-1l1,1l1,-1l1,-1l1,-1l2,-1l3,-1l5,-1l10,-1l5,-1l11,1l1,1l1,-1l1,1l1,1l2,1l1,1l1,3l1,-1l8,-1l4,-1l8,-1l4,1l1,1l1,1l2,1l1,1l2,1l1,1l1,1l1,1l2,1l1,1l1,1l2,1l1,1l1,1l2,1l1,1l2,1l1,1l2,1l1,1l2,1l1,1l-1,1l-2,1l-1,1l-1,1l-1,1l-1,1l-1,1l-1,2l-1,2l-1,2l1,6l-1,2l-1,1l-1,1l-1,1l-1,3l-3,1l-1,1l-1,2l-1,1l-1,1l-1,2l-1,2l-1,1l-1,1l-1,1l-1,1l-2,1l-1,1l-1,1l-1,1l-1,1l-1,1l-1,1l1,1l-1,1l-1,1l-1,1l-1,1l-1,1l-1,1l-1,1l-1,1l-1,2l-4,-1l-4,-1l-1,-1l-1,-1l1,-1l-1,-1l1,-1l-1,-1l-1,-1l-1,-3l-1,-1l-2,-1l-1,-1l-1,-1l-1,-3l-1,-2l-1,-1l-1,-2l1,-1l-1,-1l-2,-1l-2,-1l-2,-1l-1,-1l-2,-1l-1,-1l-1,-1l-1,-1l1,-1l-1,-1l-1,-1l-1,-1l-1,-1l-1,-1l-1,1l-1,-1l-1,-1l-1,-1l-1,-2l-1,-1l-1,-1l-2,-1l-1,-1l-2,-1l-1,-1l-1,-1l-1,-1l-1,-1l-1,-1Z"/><path description="OK" d="M556,456l1,-12l1,-1l12,1l17,1l25,1l13,1l31,1l86,1l1,16l1,7l1,6l1,7l1,6l-1,36l-1,16l-1,-1l-1,-1l-1,1l1,-1l-1,-1l-1,1l-1,-1l1,-1l-1,1l-1,-1l-1,1l-1,-1l-1,-1l-1,-1l-1,-1l-1,-1l-2,-1l-2,1l-1,1l-6,-1l-1,-1l-1,1l-1,1l-2,1l-1,-1l-1,1l-1,-1l-1,1l-1,-1l-1,1l-2,1l-1,1l-1,1l-1,-1l-1,1l-1,1l-1,-1l-1,-1l-2,-1l-1,-1l-1,-1l-1,-1l-1,1l-1,1l-1,-1l-2,1l-1,-1l-1,-2l-1,1l-1,1l-1,1l-1,1l-1,2l-1,-1l1,-2l-1,-1l-1,-1l-1,1l-2,1l-1,-1l-1,-1l-3,-1l-1,-1l-1,-1l-1,2l-1,1l-1,1l-4,-1l1,-1l-1,-2l-3,-1l1,-2l-1,-1l-1,1l-1,-1l-5,1l-1,1l-2,-1l-1,-1l-1,-1l-1,1l-3,-1l-2,-1l-6,-1l-1,-2l-1,-2l-1,-1l-1,-1l-1,1l-1,1l-1,-1l-1,-1l-1,1l-4,-1l-1,-1l-1,-1l-1,-1l-1,-1l-2,-1l1,-10l1,-23l-1,-21l-19,-1l-11,-1l-18,-1Z"/><path description="TN" d="M1010,454l-2,1l-1,1l-1,2l-1,-1l-1,1l1,1l-1,1l1,1l-1,1l-1,1l-1,-1l-1,1l-1,1l-1,1l-2,1l-1,1l-1,1l-1,1l-1,1l-5,1l-1,1l-2,1l-1,1l-1,1l-1,1l-1,4l-1,1l-3,1l-1,1l-1,6l-6,1l-9,1l-9,1l-7,1l-12,1l-11,1l-16,1l-6,1l-11,1l-14,1l-16,1l-9,1l-8,-1l1,-1l1,1l1,-3l2,-1l-1,-1l1,-1l-1,-1l-2,-1l2,-1l-1,-2l-1,1l1,-2l1,-1l1,2l1,-4l1,1l1,-1l-1,-1l1,-1l1,-1l-1,-1l-1,1l-1,-1l1,-2l3,-1l1,-1l1,-1l-2,-1l1,-1l1,1l1,-1l-1,-1l-1,-1l1,-1l1,-2l1,-1l-1,-2l-1,-1l2,-1l-1,-1l1,-1l1,-1l1,-4l1,1l1,-1l7,-1l16,-1l7,-1l-1,-2l1,-2l12,-1l12,-1l10,-1l19,-1l5,-1l14,-1l12,-1l11,-1l1,-1l9,-1l1,1l1,-1l7,-1l7,-1l5,-1l8,-1l4,-1l2,1l-1,1l1,1l-1,2l1,2l-1,1l-1,1l-1,1l-1,1l-1,2l-1,2l-2,-1l-1,1l-1,-1l-1,1l-1,1l-1,1l-1,1l-1,1l-1,2l-2,-1Z"/><path description="WY" d="M414,213l1,-6l1,-6l1,-2l1,1l6,1l7,1l6,1l8,1l9,1l6,1l4,1l9,1l10,1l8,1l4,1l10,1l11,1l1,-1l1,1l10,1l6,1l12,1l6,1l-1,20l-1,12l-1,11l-1,12l-1,11l-1,12l-1,11l-1,12l-1,10l-6,-1l-14,-1l-5,-1l-12,-1l-11,-1l-8,-1l-5,-1l-10,-1l-10,-1l-8,-1l-5,-1l-8,-1l-9,-1l-8,-1l-3,-1l-9,-1l-7,-1l-7,-1l1,-5l1,-6l1,-5l1,-7l1,-6l1,-6l1,-6l1,-6l1,-6l1,-6l1,-6l1,-7l1,-5l1,-7l1,-6l1,-6Z"/><path description="HI" d="M490,733l1,1l2,1l3,1l1,1l1,1l2,1l1,1l1,3l1,1l1,1l1,2l1,1l1,1l1,1l1,1l-1,1l-1,2l-1,1l-2,1l-1,1l-1,1l-3,1l-5,1l-1,1l-2,1l-1,1l-1,1l-1,1l-1,2l-1,1l-1,1l-1,-1l-1,-1l-2,-1l-3,-1l-1,-1l1,-7l-1,-2l-1,-3l-1,-2l-1,-2l-1,-1l1,-5l1,-1l1,-1l1,-1l1,-1l1,-1l-1,-1l-1,-2l1,-4l1,-1l4,1l1,1l2,1l1,1l1,-1l1,1ZM415,694l-1,-1l1,-1l5,-1l1,-1l1,-1l2,-1l1,1l1,1l1,2l1,1l1,1l1,1l1,1l1,1l1,1l1,3l-1,1l-1,1l-1,1l-5,-1l-1,-1l-2,1l-3,-1l-1,-1l-1,-1l-1,-1l-1,-2ZM356,689l2,1l1,1l-1,1ZM381,674l1,-1l1,1l1,-1l2,1l1,-1l1,1l1,1l1,1l1,1l-1,3l-1,4l-1,1l-1,1l-7,-1l-1,-1l-3,-1l-1,-1l1,-3l1,-2l1,-1l1,-1ZM457,708l2,-1l2,1l1,1l1,1l4,-1l1,1l1,-1l1,1l1,1l1,1l1,1l2,1l1,-1l1,1l1,1l-1,3l-1,1l-1,2l-3,1l-1,-1l-1,1l-4,1l-1,-1l-2,-1l-1,2l-1,2l-5,-2l1,-2l1,-1l1,-1l2,-1l1,-1l-3,-1l-1,-1l-1,-1l-1,-1l1,-4ZM447,713l1,-3l6,1l1,1l1,1l-1,4l-1,1l-5,-1l-1,-1l1,-1l-1,-1ZM362,686l1,-1l1,-2l1,-1l1,-1l1,-1l1,-1l1,1l1,1l1,1l-1,1l-1,2l-1,1l-1,1l-1,1l-1,1l-1,-1l-1,-1l-1,-1ZM457,708l-1,1l-2,1l-3,-1l-3,-1l-5,1l-1,-1l-2,-1l1,-2l1,-3l6,1l1,-1l3,1l2,1l1,-1l1,1l2,1l-1,2Z"/><path description="ND" d="M562,105l8,1l14,1l8,1l20,1l21,1l35,1l21,1l1,2l-1,1l1,1l1,2l-1,1l1,1l-1,1l1,1l-1,1l1,2l-1,1l1,1l-1,1l1,2l-1,1l1,2l-1,1l1,1l-1,1l1,1l1,1l1,4l1,3l1,2l1,3l-1,1l1,1l-1,-1l1,1l-1,1l1,1l-1,1l1,1l-1,1l1,1l1,10l-1,4l1,1l-1,2l1,1l-1,1l1,1l1,1l-1,1l1,1l1,2l1,2l1,3l-1,1l1,1l-1,6l-47,-1l-26,-1l-12,-1l-19,-1l-16,-1l-16,-1l-7,-1l-2,-1l1,-6l1,-11l1,-12l1,-11l1,-11l1,-12l1,-12Z"/><path description="KY" d="M857,457l-2,-1l1,-1l1,1ZM886,418l1,1l1,-1l1,-1l-1,-1l1,-1l1,1l1,-1l3,1l1,1l1,-1l-1,-1l1,-3l1,2l1,-1l2,1l2,1l3,1l1,1l1,-1l1,-3l1,-1l1,-1l1,-1l1,1l1,1l1,1l1,-1l1,1l1,1l1,-2l1,-1l-1,-1l1,-2l1,-1l-1,-1l3,-1l-1,-1l2,1l1,1l-1,1l1,1l4,1l1,1l1,-2l2,-1l1,-7l2,-1l1,-1l1,-3l1,-1l1,-1l1,-1l-1,-3l1,-3l4,1l2,-1l1,-1l2,-1l2,-1l1,-1l1,-1l-2,-1l1,-1l-1,-1l-1,-1l1,-2l1,-1l1,-1l1,1l2,1l1,-1l2,-1l1,1l1,1l2,1l1,1l1,4l1,1l4,-1l1,1l3,1l1,1l1,1l2,-1l1,-1l1,-1l2,1l3,1l1,1l1,-1l1,-1l2,-1l1,-1l1,-1l1,-1l2,1l1,2l1,2l1,1l2,1l1,1l1,2l-1,6l1,1l1,1l1,1l1,1l1,1l-1,1l1,1l2,1l1,1l1,1l1,1l1,1l1,1l1,1l1,1l2,1l1,-1l1,1l-1,1l-1,1l-1,1l-1,1l-1,1l-1,1l-1,1l-1,1l-1,1l-2,1l-1,1l-1,1l-1,1l-1,1l-1,2l-1,1l-1,1l1,1l-1,1l-1,1l-1,1l-1,-1l-1,1l-1,1l-1,2l-1,1l-1,1l-1,1l-4,1l-2,1l-1,1l-1,1l-12,1l-11,1l-14,1l-5,1l-20,1l-10,1l-11,1l-13,1l1,1l-1,3l-6,1l-16,1l-7,-1l1,-3l1,1l1,1l1,-1l1,-1l-1,-2l1,-2l-1,-1l1,-1l1,-2l-1,-2l-1,-1l1,-2l1,-2l1,-1l1,-1l2,1l2,1l3,1l1,1l3,-1l1,-2l-1,-1l-1,-1l-1,-1l1,-2l1,-2l1,-1l1,1l1,-1l1,-1l3,-1l1,1l-1,-2l-1,-1l-1,-2l1,-1l1,-2l1,-1Z"/><path description="ME" d="M1196,151l1,-1l1,-1l1,1l1,1l1,-1l-1,-3l1,-1l1,-1l1,1l1,-1l-1,-1l-1,-1l-1,-1l1,-1l1,-2l1,-1l1,-1l1,-1l-1,-2l1,-1l1,-2l-1,-3l-1,-1l1,-1l-1,-1l1,-1l-1,-1l-1,-1l1,-1l1,-4l1,-1l-1,-7l1,-3l1,-2l1,-3l1,-3l1,-3l1,-3l1,-3l1,-2l1,-3l1,-1l2,1l1,2l1,2l3,-1l2,-1l1,-1l1,-1l1,-1l3,-1l1,-2l3,1l2,1l2,1l2,1l1,1l2,1l1,1l1,2l1,4l1,3l1,3l1,3l1,6l1,3l1,3l1,2l-1,1l1,1l1,3l-1,1l3,1l1,1l1,-1l1,1l1,-1l1,-1l1,1l1,2l-2,1l1,1l1,1l1,1l-1,1l1,1l1,2l1,1l2,-1l4,1l1,1l1,1l1,1l1,1l1,1l1,1l1,1l-1,1l-1,1l-1,2l-1,2l-1,2l-1,1l-1,1l-1,1l-1,2l-1,1l-1,1l-1,1l-2,1l-1,1l-2,1l-1,1l-1,1l-1,1l-1,4l-1,2l-1,1l-2,1l-1,1l-1,2l-1,1l1,1l-1,1l-1,1l-1,3l-1,-1l-2,-1l-1,1l-1,1l-2,-1l-1,1l1,1l-1,2l-2,-1l-1,-1l-1,1l-1,3l-2,1l-1,1l-2,1l-1,1l-1,1l-1,1l-1,1l-1,1l-1,1l-1,1l-1,3l-1,2l-1,1l1,3l2,1l-1,1l-1,1l-1,-1l-1,2l2,1l1,1l-1,1l-1,-1l-2,-1l-1,-1l-1,-1l-1,-1l-1,-2l-1,-1l-1,-1l-1,-1l-1,-1l-1,-4l-1,-2l-1,-3l-1,-3l-1,-3l-1,-4l-1,-3l-1,-3l-1,-3l-1,-3l-1,-3l-1,-3l-1,-3l-1,-3l-1,-3l-1,-3Z"/><path description="NY" d="M1155,170l1,5l1,5l1,2l1,1l1,5l-1,3l1,5l1,3l1,1l1,3l-1,2l1,4l1,-2l1,1l1,1l1,1l1,4l1,4l1,5l1,5l1,2l-1,2l1,19l1,4l1,6l1,5l1,5l1,2l1,1l-1,1l-1,1l-2,1l-1,1l1,1l1,1l1,1l1,1l1,-1l1,-1l1,-1l2,-1l2,-1l1,-1l1,-1l2,-1l2,-1l2,-1l1,-1l3,-1l2,-1l2,-1l2,-1l1,-1l2,-1l1,-1l1,-1l3,1l2,2l1,1l-1,4l-1,1l-1,1l-2,1l-1,1l-1,1l-1,1l-2,1l-1,1l-1,1l-2,1l-1,1l-2,1l-1,1l-1,1l-1,1l-3,1l-1,1l-1,1l-2,1l-1,1l-1,1l-2,1l-4,1l-3,1l-4,1l-3,1l-1,1l-1,-1l1,-2l-1,-1l1,-1l1,-1l1,-1l1,-1l-1,-1l1,-1l-1,-6l-1,-1l-1,-1l-4,-1l-3,-1l-3,-1l-2,-1l-2,-1l-2,-1l-4,-1l-1,1l-1,-1l-1,-1l-1,-1l-1,-3l-1,-2l-1,-1l-1,-1l-2,-1l-1,-1l-1,-1l-3,1l-5,1l-5,1l-3,1l-5,1l-6,1l-6,1l-3,1l-6,1l-5,1l-6,1l-3,1l-6,1l-6,1l-7,1l-5,1l-3,1l-7,-1l-1,-3l-1,-6l2,-5l2,-2l1,-1l1,-1l1,-1l2,-1l2,-2l2,-1l1,-1l1,-1l1,-2l-1,-1l-2,-1l-1,-2l-1,-1l-1,-4l-1,-1l-1,-2l-1,-2l1,-1l1,-1l1,-1l3,-1l2,-2l1,-1l5,-1l6,-1l5,-1l5,-1l5,-1l7,-1l1,-1l3,-1l1,-1l1,-4l2,-5l1,-3l1,-1l1,-3l2,-1l1,-2l1,-1l1,-1l1,-1l1,-1l1,-1l1,-3l1,-2l1,-1l1,-2l1,-1l1,-1l1,-2l1,-1l1,-1l1,-1l1,-1l1,-1l1,-2l1,-1l4,-1l6,-1l5,-1l2,-1l5,-1l4,-1Z"/><path description="NV" d="M281,259l3,1l2,1l6,1l5,1l4,1l3,1l6,1l5,1l6,1l3,1l5,1l5,1l7,1l-1,6l-1,4l-1,5l-1,5l-1,6l-1,4l-1,5l-1,6l-1,4l-1,5l-1,5l-1,5l-1,10l-1,4l-1,6l-1,5l-1,5l-1,5l-1,4l-1,6l-1,5l-1,5l-1,4l-1,5l-1,6l-1,5l-1,5l-1,5l-1,6l-1,5l-1,5l-1,1l-1,1l-1,2l-2,-1l-1,-1l-1,-1l-1,-2l-1,1l-1,-1l-5,1l1,6l-1,1l-1,1l-1,8l1,3l-1,8l-1,1l-1,1l-1,-1l-1,-1l-1,-2l-1,-1l-1,-1l-1,-2l-1,-1l-1,-1l-1,-2l-1,-1l-1,-2l-1,-2l-1,-1l-1,-1l-1,-2l-1,-1l-1,-2l-1,-1l-1,-2l-1,-1l-1,-2l-1,-1l-1,-2l-1,-1l-1,-1l-1,-3l-1,-2l-1,-1l-1,-2l-1,-1l-1,-2l-1,-1l-1,-1l-1,-2l-1,-2l-1,-1l-1,-2l-1,-1l-1,-1l-1,-2l-1,-1l-1,-2l-1,-1l-1,-1l-1,-2l-1,-2l-1,-1l-1,-1l-1,-2l-1,-1l-1,-2l-1,-1l-1,-2l-1,-1l-1,-1l-1,-2l-1,-2l-1,-3l-1,-1l-1,-1l-1,-2l-1,-1l-1,-2l-1,-1l-1,-2l-1,-1l-1,-2l-1,-1l-1,-1l-1,-2l-1,-1l-1,-2l-1,-1l-1,-2l-1,-1l-1,-2l-1,-1l-1,-2l-1,-1l-1,-1l-1,-2l-1,-1l-1,-2l-1,-1l-1,-2l-1,-1l-1,-2l-1,-1l-1,-1l-1,-3l1,-4l1,-8l1,-3l1,-4l1,-4l1,-3l1,-3l1,-4l1,-4l1,-4l1,-4l1,-3l1,-4l1,-4l1,-3l1,-4l1,-4l1,-4l1,-4l1,-4l1,-3l1,-1l2,1l4,1l5,1l1,1l5,1l4,1l5,1l3,1l5,1l5,1l4,1l2,1l6,1l5,1Z"/><path description="AK" d="M26,728l1,-1l2,1l1,1l1,1l1,1l-1,1l-1,1l-1,-2l-1,-1l-1,-1ZM33,733l2,1l-1,1l-1,-1ZM60,755l1,-1l1,1l1,1l-3,-1ZM117,768l1,-1l1,-1l1,1l-1,1ZM121,767l1,-1l1,-1l1,1l1,-2l1,1l-1,1l1,1l-1,1l-1,-1l-1,1ZM71,763l-3,-1l-1,-1l1,1l3,1ZM68,763l-1,1l-1,1l-1,-1l1,-1ZM134,725l-1,1l-2,-1l1,-1l1,-1l1,1ZM128,693l-1,-1l-1,-2l1,-1l-1,-1l1,-1l1,1l1,2l1,1l1,1l-1,1ZM128,692l-1,1ZM69,760l1,-1l1,1l-1,1l-1,-1ZM106,768l1,-1l1,-1l1,1l-1,1ZM89,763l1,1ZM92,764l-1,-1l1,1ZM50,748l-1,-1ZM77,762l-1,1l2,-1l2,1l1,-1l1,1l1,-1l1,2l1,-1l1,-1l1,1l1,1l1,1l1,-1l1,1l1,-1l1,1l1,-1l2,-1l1,1l1,-1l1,1l-1,2l2,1l2,1l3,1l-2,1l-1,-1l-2,-1l-2,-1l-5,-1l-1,1l-1,-1l-10,1l-1,-1l-1,1l-1,-1l1,-1l1,-1l-1,1l-2,-1l-4,-1l1,-1l-1,-1l1,-1l1,1l1,1ZM54,756l1,-1l1,1l1,1l1,2l1,1l-3,-1l-1,-1l-1,-1ZM49,748l2,1l-1,2l-2,-1l-1,1l1,-2ZM52,751l1,-1l1,1l1,1l1,1l-1,1l-1,-1l-1,-1ZM52,752l2,1l-1,1l-1,-1ZM77,762l1,1ZM71,763l1,1ZM51,751l1,1ZM136,759l1,-1ZM133,731l1,-1l1,1l-1,1l-1,-1ZM134,725l-1,1ZM139,663l1,-2l1,-1l1,1l1,1l1,1l1,-1l3,1l1,2l1,1l1,1l2,1l-1,1l1,1l-1,1l-1,-1l1,-1l-3,1l-1,1l-1,-1l-1,-2l-1,-1l-1,-2l-5,-1ZM159,653l1,-1ZM186,666l-1,-1ZM157,645l1,-1ZM157,646ZM183,671l1,-1ZM29,735l1,-1l2,1l-1,1l-1,1l-1,-1ZM114,768l1,-1l1,1l-1,1ZM42,742l1,-1l1,1l-1,1l-1,-1ZM225,718l1,-1l2,1l-1,1ZM184,718l2,1l-1,1l-1,-1ZM254,711l1,-1l1,1l-1,1ZM186,719l1,1l-1,1ZM213,735l-1,-1l1,-1l1,-2l1,-1l1,-1l1,-1l2,-1l1,-1l1,-1l1,-1l1,-1l1,-2l1,-1l1,1l1,1l1,1l1,1l-1,2l-2,1l-1,-1l1,1l1,2l1,1l-1,1l-1,3l-1,-1l-1,1l-1,1l1,1l-1,1l-2,1l-1,-1l-1,2l-1,1l-1,1l1,-1l-1,2l-3,1l-2,-1l1,-1l1,-1l1,-1l-1,-1l-1,-1l1,-2ZM147,760l1,-2l2,-1l1,1l1,1l4,1l-1,1l-3,-1l-1,1l-1,-1l-2,1l-1,2l-2,1l-1,1l-4,1l-4,-1l-1,1l-2,1l-1,1l-1,-1l-1,1l-3,-1l1,-1l1,1l1,-1l1,-2l1,-1l2,-1l4,1l1,1l1,-1l1,-1l-1,-1l1,-1l1,-1ZM169,758l1,1l1,1l-2,1l-2,-1l-1,-1l1,-1ZM202,745l1,1l-1,1ZM186,756l-1,2l-1,-1l1,-1ZM208,750l-1,-1l1,-2l1,1ZM166,749l1,-1l-1,2ZM177,752l1,1l-1,1ZM168,755l1,1l-1,-1ZM186,756l-1,-1l-1,1l-2,1l-1,-1l1,-1l1,-2l-1,-1l-1,1l-1,2l-1,-1l-1,-1l1,-2l-2,1l1,-1l-1,1l-1,1l-1,1l-1,1l-1,1l-1,1l-1,-1l-1,2l-1,-1l1,-1l-1,-1l-1,-1l-1,1l-1,-1l1,2l-1,1l-2,-1l-1,1l-1,-1l-3,1l-1,1l-3,-1l1,-2l1,-1l1,-2l4,-1l1,1l2,-1l3,-1l1,-1l1,-1l1,-1l1,-1l1,-1l2,-1l6,-1l1,-1l1,-1l1,-1l1,-1l3,-1l2,-1l1,-1l1,-1l1,-2l1,-3l1,-4l1,-1l1,-3l-1,-1l-1,1l-2,1l-2,-1l-1,-3l-1,-1l-1,1l-1,-1l-2,-1l-1,1l-1,1l-1,1l-1,1l-1,-1l-1,-1l-1,1l-1,-1l-2,-1l2,-1l-1,-3l1,-3l1,-1l-1,-1l-1,-2l-1,-1l-2,1l-1,-1l-3,1l1,1l-2,-1l-1,-1l-1,-3l-1,-2l-1,-1l-1,-1l-1,-1l1,-1l1,-1l1,-2l-1,-1l-2,-1l-1,-2l-1,-3l1,-1l1,-2l1,-2l1,-1l1,-1l1,-1l1,-1l1,-2l1,-1l1,-2l1,-1l3,1l1,1l1,1l1,-1l1,-1l1,-1l1,-1l-1,-1l1,-1l1,1l1,1l4,-1l1,-1l-1,-5l-1,-1l-2,-2l-2,1l-1,1l-2,-1l-1,-1l-1,-1l-5,1l-1,-1l-1,-1l-3,-1l-1,-1l1,-2l-1,-1l-1,-1l1,-3l-3,-1l-1,-1l-1,-1l1,-1l1,-1l1,-1l2,-1l2,-1l3,-1l1,-1l4,-1l4,1l1,-1l2,-1l1,-1l-1,-1l-2,-1l-1,-1l-1,-4l-1,-1l-1,-2l-2,-2l-1,-1l-1,-1l-1,-1l-1,-1l2,-1l1,-2l1,-2l1,1l7,-1l1,-1l1,-1l1,-1l1,-3l1,-2l1,-1l1,-1l1,-1l5,-1l1,-1l1,-1l1,-1l2,-1l2,1l2,-1l1,-1l1,-1l1,-1l1,-1l2,1l2,1l2,1l2,1l1,1l6,1l2,1l1,2l2,-1l2,-1l4,1l1,1l1,-1l1,-1l1,2l3,1l4,1l4,-1l2,-1l3,1l3,1l3,1l2,1l1,2l1,6l1,5l1,4l1,10l1,5l1,5l1,5l1,5l1,4l1,5l1,6l1,4l1,5l1,5l1,5l1,4l2,4l1,1l1,-1l2,-1l2,-1l2,1l1,3l2,1l2,1l2,1l1,1l1,1l1,2l1,-1l1,-1l2,-1l-1,-3l1,-1l1,-1l1,-1l1,-1l2,1l1,1l1,1l1,1l1,1l2,1l1,1l2,1l2,1l2,1l1,1l1,1l1,1l1,1l1,2l2,1l1,1l2,2l1,2l1,1l1,1l4,1l2,-1l1,1l2,1l1,-1l1,1l1,1l-1,1l1,1l1,2l1,2l-1,4l-1,1l1,2l-3,1l-3,1l-5,1l-1,1l-2,1l-3,1l-1,-2l-1,-4l-1,-1l-1,-4l-1,-1l-1,3l-1,-1l-1,-1l-1,-2l-2,-1l-1,-1l-1,-1l-3,-1l-1,-1l-1,-1l-2,-2l-1,-3l-1,-1l-1,-1l-1,-1l-1,-1l1,-1l-2,-1l-3,-1l-2,-1l-1,-1l-1,-1l-1,-1l-4,-1l-1,-1l-4,-1l-3,-1l-8,-1l-6,1l-4,1l-1,1l-1,1l-2,-1l1,-1l-1,-1l-2,-1l-2,-1l-4,1l-2,1l-1,1l-1,1l-1,2l-1,1l-2,-1l-7,1l-1,2l-1,1l-1,1l-2,1l-1,1l-2,1l-3,1l-6,1l-1,1l-1,1l-1,2l-1,1l-1,1l-1,2l-1,1l-3,1l-1,1l-1,1l-1,1l-1,1l-1,1l-2,1l-1,1l-1,4l-1,1l-1,2l-1,1l-1,1l-1,2l-1,1l-2,1l-1,2l-5,-1l-2,1l-3,1l1,1l1,1l1,-1l1,2l-1,3ZM152,700l1,-2l1,1l1,-1l2,-1l1,1l1,-1l1,1l1,1l1,1l-1,1l1,1l-1,2l-2,1l-2,-1l-2,-1l-1,-1l-1,-1l-1,-1Z"/><path description="MI" d="M875,208l-1,-3l-1,1l-2,-1l-1,1l1,-1l1,-2l-1,-3l1,-1l-1,-1l1,-1l-1,-1l-1,-1l-1,-1l-2,1l-1,-1l-1,-1l1,-1l-1,-1l-1,-1l-1,-1l-1,1l-1,-1l-4,-1l-1,1l-3,-1l-1,1l-1,-1l-2,-1l-3,-1l-4,-1l-3,-1l-5,-1l-5,-1l-3,-1l-1,-1l-1,-1l-1,-1l-1,-1l-1,-1l-2,-1l1,-1l1,-4l1,-1l1,-2l1,-4l1,-1l1,-4l1,-1l1,-4l1,-3l1,-2l1,-2l1,-3l1,-2l1,-4l1,-2l1,-1l1,1l1,-1l3,-1l2,-2l2,-2l3,-1l1,-1l1,-1l5,-1l2,1l3,1l2,1l2,1l4,1l1,1l1,1l2,1l2,1l2,1l4,1l1,1l2,1l4,1l2,2l3,1l3,1l2,1l3,1l1,1l3,2l3,1l2,1l3,1l2,1l1,1l2,1l3,1l5,3l1,1l1,1l1,3l1,2l1,1l1,1l1,1l2,-1l4,-1l2,1l1,4l1,2l-1,1l1,1l2,1l1,1l1,1l1,-2l7,1l2,2l-1,2l-1,1l-1,4l2,-1l2,1l4,1l2,1l1,1l4,2l3,1l1,1l4,2l1,3l2,6l1,3l1,4l1,3l1,3l1,3l1,2l1,3l1,5l1,2l2,5l1,4l-1,4l-1,4l-1,5l-1,4l-1,13l-1,1l-1,1l-1,1l-1,3l-1,1l-1,1l-3,1l-1,1l1,9l-1,2l-1,1l-1,1l-1,1l-1,1l-1,1l-1,1l-6,1l-6,1l-7,1l-4,1l-4,-1l-1,-1l-4,1l-6,1l-9,1l-12,1l-10,1l-7,-1l1,-7l1,-10l-1,-6l-1,-3l-1,-5l-1,-6l-1,-4l-1,-10l1,-4l1,-11l1,-5l1,-5l1,-5l1,-5l1,-3l1,-2l1,-1l1,-3l1,-1l2,-2l-2,-1l-2,-1l-2,-1l-3,-1l-1,-1l-3,1l-4,1l-1,1l-1,2l-1,1l-1,1l-1,1l-1,2l-1,2l-3,-1l-1,-1l-1,-1l1,-2Z"/><path description="AR" d="M742,462l21,-1l35,-1l25,-1l10,-1l8,1l1,1l1,1l1,1l-1,1l1,1l-1,1l-1,1l-1,1l-1,1l-1,1l-1,1l-1,2l1,1l4,-1l10,1l2,1l-1,1l-1,-1l-1,1l1,1l1,1l-2,1l-1,1l-3,1l1,1l1,1l1,-1l-1,1l-1,1l1,2l-1,1l-1,-1l-1,1l-1,3l-1,-2l-1,2l1,1l1,-1l-1,3l-1,1l2,1l1,2l-1,1l-2,1l-1,2l-1,-1l1,3l-1,2l-1,1l-1,1l-1,-1l-1,-1l1,3l-1,1l-1,-1l1,1l-1,1l1,1l-1,1l1,-1l-1,1l1,2l-1,1l-1,4l-1,1l1,1l-1,-1l-2,1l1,1l-1,1l-2,1l-2,1l3,1l-1,1l-1,-1l-1,1l1,1l1,1l-1,1l-2,1l1,1l-1,-1l-2,1l2,1l-1,1l-1,1l1,1l1,1l-3,1l1,1l1,-1l1,2l-3,-1l-2,1l1,1l1,1l-1,1l-1,1l1,1l-1,1l1,1l1,-1l-1,-1l2,1l-1,1l-1,1l3,-1l-1,-1l1,1l-1,1l1,4l1,-1l-1,1l-1,4l-1,-1l-1,1l1,1l1,1l-1,1l-9,1l-38,1l-20,-1l-1,-14l1,-1l-2,1l-1,-1l-1,1l-1,-1l-1,1l-1,-1l-1,1l-1,-1l-1,-1l-1,-1l1,-15l-1,-36l-1,-6l-1,-7l-1,-6l-1,-7Z"/><path description="MS" d="M830,523l1,-1l1,-1l1,-1l-1,-1l2,1l1,-1l1,-1l1,-4l-1,-1l1,-3l-1,1l1,-1l-1,-1l1,-1l-1,-1l1,-1l1,2l-1,-1l1,-3l1,2l1,-1l1,-1l1,-1l-1,-1l1,-1l7,-1l10,-1l15,-1l14,-1l1,1l1,1l1,1l-1,42l1,50l1,8l1,7l1,8l1,8l1,8l-1,3l-3,-1l-1,1l-1,-1l-5,-1l-1,1l-1,1l-1,1l-4,-1l-2,-1l-1,1l-4,1l-3,-1l-1,1l-1,-1l-1,-2l1,-1l-1,-1l-1,-1l-1,-2l-1,-1l-1,-1l-1,-1l-1,-2l1,-1l1,-4l1,-3l-1,-1l1,-1l-3,1l-18,1l-22,1l-3,-1l2,-1l-1,-1l-1,-1l1,-1l-1,-1l-1,-1l1,-1l2,-1l-1,-1l1,-1l-1,-1l1,-1l1,2l-1,-2l1,-3l2,-1l-3,-1l3,-1l1,-3l-1,-1l1,-1l1,-1l1,2l1,-3l1,-1l-1,-1l1,-1l2,-1l-2,-1l1,1l1,-1l1,-1l1,-1l-1,-1l-1,1l-2,-1l1,-1l1,-1l1,1l1,1l1,-3l1,-1l-1,-1l-2,-1l1,-1l-1,-1l-1,1l-1,-1l-1,-1l1,-1l1,1l1,-1l-2,-1l1,-1l1,-1l-1,1l-3,-1l1,-1l1,-1l-1,-1l-1,-1l1,-2l1,-1l-1,-2l-1,1l-1,1l-1,-1l1,-1l1,-2l-1,-1l-1,-1l1,-1l1,1l1,-1l1,-3l-1,-1l-1,1l1,-4l-1,-2l1,1l-1,1l-2,-1l2,-1l-1,-1l-1,1l-1,1l1,-1l-1,-2l1,-1l1,-1l-1,-1l-1,-1l1,-1l1,1l2,-1l-2,-1l1,-1l2,-1l-1,-1l1,-2l-1,-1l-1,-1l2,1l1,-1l-1,-1l3,-1l-1,-1l-1,-1l1,-1l1,1l1,-1l-1,-1l-2,-1Z"/><path description="MO" d="M734,366l-1,1l-3,-1l-1,-1l-2,-1l-1,-1l-1,-1l-1,-1l1,-1l-1,-1l-1,-1l-1,-2l-1,-1l-1,-1l-1,1l1,-1l-1,-1l-1,-3l1,-1l-1,-1l-1,1l-1,-1l1,-1l36,-1l26,-1l18,-1l5,1l1,1l1,1l1,1l1,1l1,1l1,1l-1,1l-1,2l1,4l1,3l1,2l-1,1l1,2l1,1l1,2l1,1l1,1l1,1l1,1l1,1l1,1l1,1l1,1l1,1l2,1l1,1l1,1l1,1l1,2l1,6l1,1l1,1l1,-1l1,-1l1,-1l1,1l4,1l1,1l-1,2l-1,7l-1,3l-1,2l1,3l1,2l1,1l1,2l1,1l2,1l1,1l1,-1l1,1l-1,1l1,1l2,-1l1,1l1,1l2,1l1,1l1,1l1,1l1,1l1,1l-1,1l1,2l1,1l1,2l-1,1l-1,1l-1,1l1,1l1,1l1,2l1,1l1,2l1,1l1,-1l-1,-1l2,1l1,1l2,1l-1,1l-1,2l1,1l1,1l-2,1l1,1l-1,2l-1,2l-1,-1l-1,-1l-1,1l-1,3l-1,1l-1,-3l-1,1l1,1l1,4l-1,1l-2,1l1,1l-1,1l-1,1l2,1l-1,1l-1,1l-1,3l-10,1l-5,-1l1,-1l1,-1l1,-1l1,-2l1,-1l1,-1l1,-1l-1,-1l1,-1l-1,-1l-1,-1l-1,-1l1,-1l-9,1l-10,1l-25,1l-35,1l-21,-1l-1,-74l-1,-1l-1,1l-1,-1l-1,-1l-1,-2l-1,-1l1,-1l-1,-1l-1,-1l-1,-1l-1,-1l-1,-1l1,-1l1,-2l1,-1l1,-2l1,1l-1,-1l1,-1l-1,-1l-1,-1l1,-1Z"/><path description="MT" d="M340,114l-1,-1l1,-1l-1,-4l-1,-2l1,-1l-1,-1l-1,-1l-1,-2l1,-5l1,-4l1,-5l1,-4l1,-5l1,-4l1,-2l1,1l6,1l3,1l5,1l5,1l6,1l3,1l6,1l6,1l6,1l3,1l6,1l6,1l7,1l4,1l6,1l6,1l8,1l4,1l7,1l8,1l8,1l4,1l8,1l9,1l8,1l5,1l11,1l9,1l10,1l11,1l6,1l12,1l6,1l-1,7l-1,12l-1,12l-1,11l-1,11l-1,12l-1,11l-1,13l-1,12l-1,9l-6,-1l-12,-1l-6,-1l-11,-1l-1,1l-1,-1l-10,-1l-10,-1l-4,-1l-9,-1l-9,-1l-9,-1l-4,-1l-7,-1l-9,-1l-8,-1l-5,-1l-7,-1l-6,-1l-2,1l-1,1l-1,7l-1,5l-1,-1l-1,-1l-1,-1l1,-1l-1,-1l-1,-1l-1,-2l-1,1l-1,1l-1,1l-1,1l1,1l-1,1l-1,-1l-1,-1l-2,1l-2,1l-1,-2l-1,-1l-1,1l-1,-1l-1,1l-1,-1l-1,-1l-2,1l-1,1l-1,1l-1,-1l-2,-1l-3,-1l-1,1l-1,1l-1,1l-1,1l-1,-2l-1,-1l-1,-3l1,-1l-1,-1l1,-1l-1,-1l-1,-3l-1,-1l-2,-1l-2,-1l-1,-2l1,-1l1,-1l-1,-2l-1,-1l-1,-3l-1,-2l1,-1l-1,-1l-1,-2l1,-1l-1,-3l1,-1l-1,-1l-1,-1l-1,-2l-1,1l-1,1l-1,1l-1,1l-1,-1l-1,1l-1,1l-1,-1l-1,-1l-1,-1l-1,-1l1,-1l1,-2l-1,-1l1,-2l1,-1l2,-1l-1,-1l1,-1l-1,-1l-1,-1l1,-1l1,-1l-1,-1l1,-1l1,-1l-1,-1l1,-1l1,-1l1,-2l1,-3l1,-1l-1,-3l-2,1l-1,-1l-1,-1l-1,-2l-2,-1l-1,-1l-1,-1l-1,-1l1,-1l-1,-2l-1,-1l-1,-2l-1,-2l-1,-2l-1,-1l1,-1l-1,-1l-1,-1l-2,-1l-1,-1l-1,-1l-1,-1l-1,-1l3,-1l-1,-1Z"/><path description="KS" d="M583,359l1,1l20,1l23,1l34,1l66,1l1,1l1,1l1,1l3,-1l2,1l1,1l-1,1l1,1l-1,1l-1,-1l-1,3l-1,1l-1,1l1,2l1,1l1,1l1,1l1,1l-1,1l1,1l1,1l1,2l1,1l1,-1l1,1l1,1l-1,60l-85,-1l-32,-1l-12,-1l-25,-1l-8,-1l1,-15l1,-16l1,-15l1,-16Z"/><path description="IN" d="M888,311l-1,-1l1,-4l1,-1l12,-1l11,-1l11,-1l10,-1l5,-1l5,1l1,4l1,8l1,8l1,8l1,9l1,9l1,9l1,9l1,9l-1,1l-1,1l1,1l1,1l-1,1l1,2l1,1l-1,1l-1,1l-2,1l-2,1l-1,1l-2,-1l-5,1l1,3l-1,2l-1,2l-1,1l-1,1l-1,3l-1,1l-2,1l-1,7l-2,1l-1,-1l-4,-1l-1,-1l1,-1l-1,-1l-2,-1l1,1l-1,2l-2,1l1,1l-2,1l1,2l-1,1l-1,1l-1,1l-1,-2l-1,1l-1,-1l-1,-1l-1,-1l-1,1l-1,1l-1,1l-1,1l-1,2l-1,1l-1,-2l-2,-1l-2,-1l-2,1l-2,-1l-1,-1l1,3l-1,1l-1,1l-1,-2l-2,1l-1,-1l-1,-1l-1,1l1,1l-1,2l-1,1l-1,-1l-1,-1l-1,-1l1,-1l1,1l-1,-1l1,-1l-1,-2l1,-1l1,-1l-1,-1l1,-1l1,-1l-1,1l-1,-1l1,-1l1,-2l-1,1l1,-1l1,-1l-1,1l1,-1l1,-1l1,-1l-1,-2l1,-1l2,-1l-1,-1l1,-1l1,-2l1,-1l1,-1l-1,-1l-1,-3l1,-1l-1,-1l-1,-1l-1,-3l-1,-1l1,-1l1,-1l-1,-1l-1,-2l1,-1l1,-1l-1,-7l-1,-10l-1,-12l-1,-12l-1,-11Z"/><path description="SD" d="M701,196l-1,4l-1,1l-1,2l-1,1l-2,1l1,2l1,1l1,2l1,1l1,1l2,1l1,1l-1,51l-2,1l1,1l-1,3l1,1l-1,1l1,1l1,1l1,1l-1,2l-1,1l1,1l-1,1l-1,3l-1,2l1,2l1,1l1,2l1,3l-1,1l-1,-1l-1,-1l-1,-1l-1,-1l-1,-1l1,-1l-3,-1l-1,-1l-1,1l-1,-1l-1,-1l-3,-1l-1,-1l-2,-1l-1,1l-1,-1l-1,1l-7,-1l-1,1l-1,1l-1,1l-2,-1l-1,-1l-2,-1l-3,-1l-1,-1l-2,-1l-1,-1l-24,-1l-14,-1l-22,-1l-17,-1l-16,-1l-14,-1l-4,-1l1,-11l1,-12l1,-11l1,-21l1,-9l1,-13l1,-5l1,1l7,1l16,1l16,1l19,1l12,1l27,1Z"/><path description="MA" d="M1206,244l-1,-1l-1,1l-4,1l-5,1l-5,1l-4,1l-2,1l-6,1l-6,1l-1,-1l1,-18l1,-2l4,-1l6,-1l4,-1l3,-1l5,-1l5,-1l6,-1l2,-1l3,-1l1,-1l1,-1l1,-1l1,-1l1,-1l1,-1l3,1l1,1l1,1l1,-1l3,1l1,1l-1,2l-1,2l1,4l1,4l1,2l8,-1l2,-1l1,1l3,1l1,1l1,1l1,1l1,1l1,3l-1,7l-1,2l-2,-1l1,-2l-1,-1l-1,1l-1,1l-3,1l-1,1l-1,1l1,1l2,1l1,1l1,-1l1,1l2,-1l1,-1l-1,-1l1,-1l1,1l2,1l1,1l1,1l-1,2l-1,1l-1,1l-4,-1l-2,-1l-1,1l-2,1l-1,-1l-2,1l-2,1l-1,1l-1,1l-1,-1l-1,-1l-1,-1l-3,-1l-1,-1l-1,-1l-1,-1l-1,-2l-1,-2l-1,-1l-1,-1l-1,-1l-1,-1l-1,-1l-1,-3l-2,1l-3,1l-2,1Z"/><path description="VA" d="M1082,361l1,-1l1,-1l1,-1l1,-1l-1,-1l1,-1l1,-1l1,-1l-1,-1l1,-2l-1,-1l1,-1l-1,-4l3,1l1,1l2,1l1,1l2,1l2,1l2,-1l1,-3l1,-1l3,1l2,1l-1,1l1,2l1,1l2,-1l1,1l2,1l1,1l3,1l1,1l1,1l-1,3l-1,1l1,1l-1,1l-1,1l-1,1l-1,2l1,1l1,3l3,-1l1,-1l1,-1l1,1l1,3l1,2l7,1l2,1l1,1l2,1l3,1l4,-1l1,-2l3,2l1,-1l2,-1l1,-1l2,-1l1,-1l1,-1l4,-1l3,-1l-1,3l-1,3l-1,2l-1,-1l-1,2l-1,9l1,1l-1,1l-1,3l-1,6l-1,2l1,4l1,3l1,3l1,1l1,2l-2,1l-4,1l-5,1l-6,1l-2,1l-6,1l-6,1l-4,1l-6,1l-3,1l-6,1l-6,1l-6,1l-3,1l-6,1l-6,1l-7,1l-3,1l-7,1l-8,1l-9,1l-5,1l-10,1l-3,-1l-2,1l-4,1l-9,1l-4,1l-8,1l-7,1l-1,-1l-1,1l-7,-1l2,-1l4,-1l1,-1l2,-1l1,-1l1,-1l-1,-1l2,-1l1,1l1,-1l1,-1l1,-1l-1,-1l1,-1l1,-1l1,-1l1,-2l1,-1l1,-1l1,-1l1,-1l1,-1l2,-1l1,-1l1,-1l1,-1l1,-1l1,-1l1,-1l1,-1l1,-1l-1,1l1,1l1,2l-1,1l1,1l2,1l1,-1l1,1l1,1l1,1l1,-1l2,-1l1,-1l1,-1l1,-1l1,1l1,1l2,-1l2,-1l3,-1l1,-1l1,-1l-1,-1l2,1l1,-1l2,-1l1,-1l1,-1l1,1l2,-1l1,-1l1,-1l1,-1l-1,1l1,-2l1,-1l-1,-1l-1,-1l1,-1l-1,-1l1,-1l1,-1l-1,-1l1,-1l1,-1l1,-1l1,-4l-1,-1l1,-1l1,-2l1,-1l-1,-2l1,-1l1,-1l1,-2l-1,-1l1,-1l-1,-1l1,-1l2,1l1,1l1,1l3,1l1,-1l1,-1l1,-1l1,-4l1,-1l-1,-1l1,-2l1,-2l1,-1l1,1l1,1l1,-2Z"/><path description="DC" d="M1116,353l1,-1l1,-1l1,1l1,1l1,1l-1,1l-1,1l-1,-1l-1,-1Z"/><path description="IA" d="M701,288l-1,-1l-1,-1l1,-1l1,-2l1,-3l-1,-1l1,-1l1,-1l-1,-2l1,-1l-1,-1l-2,-1l1,-1l-1,-1l1,1l-1,-4l1,-2l53,-1l21,-1l28,-1l5,1l1,3l1,1l1,1l1,1l-1,1l-1,1l-1,2l1,2l1,4l1,2l1,2l1,1l1,1l2,1l3,1l1,1l1,1l-1,1l1,1l1,1l2,1l1,1l1,1l-1,1l1,1l1,1l2,1l1,1l1,1l1,1l-1,5l-1,2l-1,1l-1,2l-1,3l-1,1l-1,1l-2,1l-1,1l-2,1l-1,-1l-1,1l-4,1l-1,1l-1,3l1,1l1,1l1,1l1,1l-1,6l-1,1l-1,1l1,1l-1,1l-1,3l-1,1l-3,1l-1,1l1,1l-1,4l-2,-1l-1,-1l-1,-1l-1,-1l-1,-1l-1,-1l-4,1l-18,1l-26,1l-36,-1l-1,-1l-1,-1l-1,-1l1,-1l-1,-6l1,-5l-1,-1l-1,-1l1,-2l-1,-1l-1,-1l1,-1l-1,-2l-1,-1l-1,-1l-1,-9l1,-3l-2,-1l-1,-1l-1,-1l1,-1l-1,-1l-1,-1l-1,-3l-1,-2l1,-1l-1,-1l1,-1l-1,-1l-1,-1l-1,-2Z"/><path description="AZ" d="M281,518l-1,-1l-1,-1l1,-2l1,-3l-1,-1l1,-2l-1,-1l3,-1l1,-1l1,-1l1,-1l1,-2l-1,-1l1,-1l1,-4l1,-2l1,-1l1,-1l1,-2l2,-1l1,-1l2,-1l1,-1l-1,-3l-1,-1l-1,-1l-1,-1l1,-1l-1,-1l-1,-5l-1,-2l-1,-2l1,-6l1,-1l-1,-1l2,-1l-1,-8l1,-2l1,-9l1,-1l-1,-1l1,-6l5,1l1,-1l1,1l1,1l1,2l1,1l2,-1l1,-1l1,-2l1,-1l1,-4l1,-5l1,-6l1,-5l1,-2l1,1l5,1l6,1l2,1l7,1l6,1l7,1l4,1l7,1l5,1l8,1l7,1l4,1l7,1l6,1l8,1l4,1l8,1l6,1l-1,7l-1,7l-1,6l-1,7l-1,8l-1,6l-1,7l-1,8l-1,6l-1,8l-1,7l-1,6l-1,7l-1,8l-1,7l-1,6l-1,8l-1,7l-1,6l-1,7l-1,8l-1,6l-1,4l-6,-1l-7,-1l-8,-1l-4,-1l-8,-1l-7,-1l-7,-1l-1,-1l-2,-1l-2,-1l-2,-1l-1,-1l-2,-1l-2,-1l-2,-1l-1,-1l-2,-1l-2,-1l-2,-1l-1,-1l-2,-1l-1,-1l-2,-1l-2,-1l-1,-1l-2,-1l-2,-1l-2,-1l-1,-1l-2,-1l-3,-1l-2,-1l-1,-1l-1,-1l-2,-1l-2,-1l-2,-1l-1,-1l-2,-1l-1,-1l-1,-1l-2,-1l-2,-1l-2,-1l-1,-1l-2,-1l-2,-1l-1,-1l-2,-1l-1,-1l-2,-1l-3,-1l-2,-1l-1,-1l-1,-1l1,-1l1,-2l1,-1l1,-1l4,-1l1,-1l1,-1l1,-1l-1,-1l1,-1l-1,-1l-1,-1Z"/><path description="mesh" d="M1028,354l1,-1l1,-1l1,-2l1,-1l1,-1l-1,-3l1,-1l1,-3l-1,-1l1,-1l1,-7l1,-4l-1,-1l-1,-4l-1,-2l1,-1l1,-1l1,1l1,3l1,6l1,6l1,6l1,3l6,-1l3,-1l7,-1l5,1l1,3l1,7l1,3l1,-1l1,-1l1,-1l1,-2l1,-1l1,-1l1,-2l3,-1l1,-1l1,-2l1,-2l-1,1l1,1l2,1l1,-1l1,1l1,-1l2,-1l1,-1l1,-1l-1,-1l2,1l1,-1l1,-1l1,-1l1,1l1,1l1,-1l1,1l1,-1l1,1l-1,1l1,1l1,1l1,-1l-1,1l1,1l1,1l1,2l-1,1l-1,4l-1,-1l-2,-1l-3,-1l-1,-1l-1,-1l-2,-1l-1,1l-1,4l1,1l-1,1l1,1l-1,1l-1,1l-1,2l1,1l-1,1l-1,1l-1,1l-1,1l-1,1l-1,1l-1,2l-1,-1l-1,-1l-1,1l-1,2l1,2l-1,1l-1,1l-1,4l-1,2l-1,1l-1,-1l-2,-1l-1,-1l-1,-1l-3,1l1,1l-1,1l1,1l-1,1l-1,1l-1,2l1,1l-1,1l-1,1l-1,2l1,1l-1,1l-1,4l-1,2l-1,1l1,1l-1,1l-1,1l1,1l-1,1l1,1l1,1l-1,1l-1,1l1,1l-1,1l-1,1l-1,1l-2,-1l-1,1l-2,1l-1,1l-1,1l-1,-1l-2,1l1,1l-1,1l-1,1l-3,1l-2,1l-2,-1l-2,-1l-1,1l-1,1l-1,1l-1,1l-1,1l-1,-1l-2,-1l-1,-1l-1,1l-1,-1l-1,-1l-1,-1l-1,-2l1,-1l-1,-1l-1,1l-1,-1l-2,-1l-1,-1l-2,-1l-1,-1l-1,-1l-1,-1l-1,-1l-1,-1l-1,-1l-1,-1l1,-1l-1,-1l-1,-1l-1,-1l-1,-1l-1,-6l1,-2l1,1l1,-1l1,-1l2,-1l1,-3l2,-1l-1,-2l-1,-2l1,-2l1,-1l-1,-1l1,-1l1,-2l1,-1l1,1l1,1l1,2l1,-1l1,-2l1,1l-1,-1l-1,-3l1,-1l1,-4l1,-1l1,-1l1,-2l1,-1l1,-1l1,1l1,1l1,-1l1,-1l1,-1ZM1046,772l1,-2l1,-1l1,-1l3,1l-1,2l-1,1l-1,1l-1,-1l-1,1ZM974,602l1,1l1,2l1,2l1,2l1,1l1,-1l16,-1l9,-1l18,-1l15,-1l3,1l1,1l1,2l1,2l1,-1l1,1l1,-1l-1,-7l-1,-1l1,-1l-1,-1l1,-1l1,-1l1,-1l1,1l6,1l1,-1l1,1l1,-1l3,1l1,4l1,3l1,1l-1,1l1,1l1,4l1,1l1,4l1,1l1,2l1,3l1,2l1,1l1,2l1,2l1,1l1,2l1,2l1,1l1,2l1,2l1,1l1,1l1,1l1,1l1,1l1,1l1,1l1,2l3,3l1,3l-1,3l1,4l1,2l1,3l1,1l1,2l1,1l1,1l1,2l1,1l1,3l1,1l1,2l1,2l1,1l1,3l1,1l1,1l1,2l1,1l1,3l1,2l1,2l1,5l1,16l1,12l1,1l-1,1l-1,1l1,3l-1,3l-1,1l-1,1l1,1l-1,1l-1,1l-1,2l-1,1l-1,2l-1,1l-1,1l-1,1l-1,1l-1,1l-1,1l-1,1l-1,1l-2,1l-1,1l-1,1l-2,1l-3,1l-1,1l-2,1l-3,1l-2,1l-1,2l-2,1l-3,-1l-1,1l-1,1l-1,1l-2,-1l-1,-1l-2,-1l-1,1l-3,-1l1,-2l1,-1l4,-1l3,-1l1,-1l1,-1l2,-1l1,-1l2,-1l1,-1l1,-1l5,-1l2,1l1,1l1,-1l1,1l1,-1l2,-1l1,-1l-1,1l-1,-1l-1,-1l-1,-1l-1,-1l-1,-1l-1,-1l-1,-1l-1,-1l-1,-2l1,-1l-1,-3l-1,-2l-1,-1l-1,-1l-1,-1l-1,-1l-1,-1l-1,-1l-1,-1l-2,-1l-1,1l-4,-1l-1,-1l-1,-1l-1,-2l-1,-1l-1,-2l-1,-4l-1,-2l-1,-1l-1,-1l-1,1l-1,1l-2,-1l-1,-1l-1,-1l-1,-1l-1,-2l-1,-1l-1,-4l-1,-1l-1,-1l-1,-2l-1,-1l-1,-1l-1,-2l-1,-1l-1,-2l-1,-1l-1,-1l-1,-1l-1,-1l-1,-2l-1,-1l-1,-1l-1,-5l-1,-1l-1,-1l-1,-2l1,-2l-1,-1l-1,-4l1,-3l1,-1l1,-1l-1,-1l1,-2l-1,-7l-1,-1l-1,-2l-1,-4l-1,-1l1,-1l-1,-1l-2,-1l-1,1l-1,1l-1,-1l-2,-1l-1,-2l-1,-1l-1,-2l-1,-1l-1,-1l-1,-1l-1,-1l-1,-1l-1,-1l-1,-2l-1,-1l-1,-1l-2,-1l-1,-2l-1,-1l-1,-1l-2,-1l-3,-1l-2,-1l-3,1l-1,1l-1,1l-1,1l-1,2l-3,1l-1,1l-1,1l-1,1l-2,1l-1,1l-1,1l-1,1l-2,1l-1,1l-2,1l-2,-1l-2,-1l-3,1l-2,-1l-1,-1l-1,-1l-1,-1l-1,-4l-1,-1l-1,-1l-1,-1l-2,-1l-2,-1l-1,-1l-1,-1l-3,-1l-5,-1l-2,-1l-13,1l-1,1l-5,1l-3,1l-6,1l-1,1l-1,-1l1,-1l1,-1l-1,-1l1,-1l1,-1l-1,-1l-1,-1l1,-1l-1,-4l-1,-1l-1,-1l-1,-1l-1,-1l-1,-1l1,-4l5,-1l13,-1l12,-1l11,-1l5,-1l8,-1ZM821,319l3,-1l1,-1l2,-1l1,-1l1,-1l1,-2l1,-2l1,-1l1,-2l-1,-5l-1,-2l-1,-1l-1,-1l-2,-1l-1,-1l1,-1l-1,-1l-1,-1l-1,-1l-1,-1l-2,-1l6,-1l10,-1l20,-1l14,-1l15,-1l7,-1l3,3l-1,1l-1,11l-1,6l-5,1l-1,1l1,4l1,11l1,10l1,12l1,12l1,11l-1,7l-1,1l1,1l1,1l-1,1l-1,1l1,2l1,1l1,2l1,1l-1,1l1,1l1,4l-1,1l-1,1l-1,1l-1,2l1,1l-1,1l-1,1l-1,2l-1,1l-1,2l1,-1l-1,1l-1,1l1,-1l-1,1l-1,1l1,1l1,1l-1,1l-1,1l1,1l-2,1l1,-1l-1,3l1,1l-1,1l-1,-1l1,1l1,1l-1,1l1,1l-1,1l-1,1l-1,1l1,1l1,2l1,1l-1,2l-4,1l-1,1l-1,-1l-1,1l-1,1l-1,2l1,1l1,1l1,2l-1,1l-1,2l-2,-1l-1,-1l-3,-1l-2,-1l-3,1l-1,1l-1,1l-1,1l1,3l-1,1l-1,-1l-1,-2l-1,1l1,1l-2,-1l-1,-1l-1,-1l-1,-1l-1,-3l-1,-1l1,-1l1,-1l1,-1l-1,-1l-1,-1l-1,-1l1,-2l-1,-1l-1,-2l-1,-1l-1,-1l-1,-1l-1,-1l-2,-1l-1,-1l-1,1l-2,-1l1,-1l-1,-1l-1,1l-1,-1l-1,-1l-1,-1l-2,-1l-1,-2l-1,-1l-1,-2l1,-2l1,-2l1,-3l1,-7l-1,-3l-1,-1l-3,-1l-2,1l-1,1l-1,1l-1,-1l-1,-1l-1,-1l-1,-5l-1,-3l-1,-1l-1,-1l-1,-1l-1,-1l-2,-1l-1,-1l-1,-1l-1,-1l-1,-1l-1,-1l-1,-1l-1,-1l-1,-1l-1,-2l-1,-1l1,-2l-1,-1l-1,-1l-1,-3l1,-4l1,-3l1,-1l-1,-4l1,-1l1,-2l3,-1l1,-1l1,-2l-1,-1l1,-1l1,-1l1,-1l-1,-7l-1,-1l-1,-1l-1,-1l1,-1l1,-3l1,-1l3,-1ZM697,177l-1,-1l1,-1l-1,-2l1,-1l-1,-4l-1,-11l1,-1l-1,-1l1,-1l-1,-1l1,-1l-1,-1l1,1l-1,-1l1,-1l-1,-1l-1,-2l-1,-2l-1,-3l-1,-4l-1,-2l1,-1l-1,-1l1,-1l-1,-1l1,-1l-1,-1l1,1l-1,-1l1,-2l-1,-1l1,-1l-1,1l1,-2l-1,-1l1,-2l-1,-1l1,-1l-1,-1l1,-1l-1,-1l-1,-1l1,-1l-1,-1l1,-3l15,1l21,-1l1,-3l1,-7l5,1l1,1l1,5l1,3l1,3l-1,1l1,1l-1,1l1,1l1,1l1,1l3,-1l1,1l1,1l8,1l1,1l-1,1l7,-1l1,-1l1,-1l9,1l3,1l1,1l1,2l1,-1l1,1l1,1l-1,1l1,1l1,1l1,1l2,-1l-1,-1l1,-1l4,1l1,1l1,1l3,1l1,-1l1,2l1,1l1,1l6,-1l2,-1l1,-1l1,-1l1,-1l2,1l1,1l1,-1l-1,1l1,1l1,1l1,-1l13,1l1,1l3,-1l1,1l2,-1l1,1l1,-1l1,1l-1,2l-1,1l-1,3l-1,3l-1,4l-1,1l-1,3l-1,3l-15,2l-2,1l-1,1l-2,1l-1,1l-1,1l-2,2l-2,1l-2,2l-1,1l-5,2l-1,1l-1,1l-2,1l-1,1l-1,-1l-1,-1l-1,1l-1,2l-1,1l1,14l-1,1l-1,2l-1,-1l-1,1l-1,1l-1,1l-1,1l-2,1l-1,1l1,1l-1,1l-1,1l1,5l1,1l1,1l1,1l-1,2l-1,2l1,5l-1,1l-1,1l1,1l1,2l-1,1l1,5l1,1l1,1l1,1l1,1l2,1l1,-1l1,1l1,1l1,1l1,1l2,1l3,1l1,1l1,1l1,3l1,1l2,1l1,1l1,1l3,1l1,1l1,1l1,1l1,2l-1,3l1,1l1,4l-5,1l-28,1l-21,1l-51,-1l-1,-51l-1,-1l-1,-1l-2,-1l-1,-1l-1,-1l-1,-2l1,-2l1,-1l2,-1l1,-1l1,-1l-1,-11l1,-1l-1,-1l-1,-2l-1,-2l-1,-2l1,-1l-1,-1ZM1103,345l-3,-1l-1,-2l-1,-1l1,-1l-1,1l-1,-1l-1,-1l1,-1l-1,-1l-1,1l-1,-1l1,1l-3,-1l-1,-1l-1,1l-1,1l-1,1l-1,-1l-1,1l-1,1l1,1l-1,-1l-1,1l1,1l-2,1l-1,-1l-1,1l-1,-1l-2,-1l-1,-1l-1,2l-1,2l-1,2l-3,1l-1,1l-1,1l-1,1l-1,2l-1,1l-1,1l-1,1l-1,-3l-1,-7l1,-4l1,-1l5,-1l4,-1l6,-1l6,-1l6,-1l3,-1l6,-1l6,-1l6,-1l6,-1l2,-1l5,-1l6,-1l5,-1l3,-1l1,2l1,4l1,3l1,3l1,4l1,3l1,4l1,3l1,3l1,4l1,2l3,-1l2,-1l6,-1l3,1l-1,4l-1,7l-1,1l-3,1l-3,1l-1,1l-1,1l-3,1l-1,1l-2,1l-1,-2l-3,2l-2,1l-2,-1l-4,-1l-1,-1l-1,-1l-2,-1l-8,-1l-1,-1l-1,-3l-1,1l-1,1l-4,-1l-1,-2l1,-1l1,-3l1,-1l1,-1l-1,-1l1,-1l1,-1l1,-2l1,-2l-1,-1l-1,-1l-1,-1l-1,1l-1,1l-2,-1l-1,1l-1,-2l-1,-1l-1,1l-2,-1l-2,-1l1,-1l-1,-2l-1,-1ZM1215,262l3,1l-1,4l-2,-1l-1,-1l1,-1ZM1206,244l1,-1l2,-1l4,-1l2,1l1,2l1,1l-1,1l1,1l1,1l1,1l2,1l1,1l1,2l1,2l-1,1l-2,2l-2,1l-1,2l-3,1l-1,1l-2,1l-2,1l-1,-2l1,-1l-1,-1l1,-1l-1,-3l-1,-4l-1,-4l-1,-3ZM303,179l1,-2l1,-1l1,-1l1,-1l1,-3l1,-1l1,-2l1,-1l1,-1l1,-2l1,-1l-1,-3l1,-1l-1,-1l-1,-1l-1,-1l-1,-1l-1,-1l-1,-1l-1,-5l1,-1l1,-1l-1,-1l1,-1l-1,-1l-1,-3l1,-1l1,-2l1,-5l1,-4l1,-4l1,-5l1,-4l1,-5l1,-4l1,-4l1,-5l1,-4l1,-4l1,-4l1,-4l1,-4l1,-5l1,-4l1,1l3,1l4,1l6,1l3,1l-1,1l-1,5l-1,4l-1,5l-1,4l-1,5l1,4l1,3l1,1l-1,1l1,1l1,1l-1,4l1,1l-1,1l1,1l1,1l-2,1l1,1l1,1l1,1l1,1l1,1l1,1l1,1l1,1l1,2l1,2l1,2l1,2l-1,1l1,1l1,1l1,1l1,2l2,1l-1,1l1,1l2,1l1,-1l2,1l-1,2l-1,1l-1,3l-1,2l-1,2l1,1l-1,1l-1,1l1,1l-1,1l-1,1l1,1l1,1l-1,1l1,1l-1,1l-2,1l-1,1l1,1l-1,1l-1,2l1,1l1,1l1,2l1,1l1,-1l1,-1l1,1l1,-1l1,-1l1,-1l1,-1l1,1l1,1l1,1l-1,1l1,1l-1,4l1,1l1,2l-1,1l1,1l1,1l1,3l1,1l-1,3l-1,1l1,1l1,2l1,1l3,1l1,1l1,2l-1,2l1,1l-1,1l1,1l1,3l1,1l1,1l1,-1l-1,-1l1,-1l2,-1l1,1l2,1l2,1l2,-1l1,-1l1,-1l1,1l2,1l1,-1l1,1l1,-1l1,1l1,1l2,-1l2,1l1,-1l1,1l1,1l-1,-2l1,-1l1,-1l1,-1l1,-1l1,1l1,1l1,2l-1,1l1,1l1,1l1,1l1,1l-1,1l-1,5l-1,6l-1,7l-1,6l-1,6l-1,6l-1,6l-1,6l-1,6l-1,6l-1,6l-1,1l-5,-1l-4,-1l-7,-1l-6,-1l-7,-1l-3,-1l-8,-1l-5,-1l-7,-1l-6,-1l-3,-1l-6,-1l-5,-1l-5,-1l-3,-1l-6,-1l-6,-1l-5,-1l-3,-1l-4,-1l-5,-1l-6,-1l-2,-1l-2,-1l1,-4l1,-4l1,-5l1,-4l1,-4l1,-4l1,-5l1,-4l1,-4l1,-5l1,-4l1,-3l1,-1l1,-2l-1,-2l1,-1l1,-1l1,-1l-1,-1l-1,-1l-1,-1l-1,-1l-1,1l-1,-1l1,-1l-1,-2l1,-1l1,-2l1,-1l1,-1l1,-1l1,-2l1,-1l1,-1l1,-1l1,-1l1,-1ZM1184,201l1,-1l1,-2l-1,-14l1,-2l1,-2l1,-1l1,-1l1,-1l1,-1l1,-1l-1,-1l1,-1l-1,-2l-1,-1l-1,-2l1,-1l1,-3l-1,-1l-1,-1l1,-2l-1,-1l1,-1l-1,-4l2,-1l1,-1l1,1l1,-1l1,1l1,-2l1,1l1,3l1,3l1,3l1,3l1,3l1,3l1,3l1,3l1,3l1,4l1,3l1,3l1,3l1,3l1,2l1,5l1,1l1,1l1,1l1,1l1,2l1,1l1,1l1,1l1,1l1,1l-2,-1l-1,1l-1,2l-2,1l-2,1l-1,1l-1,1l-1,1l-1,1l-1,1l-2,1l-2,1l-6,1l-5,1l-5,1l-3,-1l-1,-1l-1,-1l1,-3l-1,-5l-1,-7l1,-6l-1,-1ZM1020,449l1,1l3,-1l1,-1l1,-3l1,-1l1,-1l1,-1l-1,-1l1,-1l-1,-2l1,-1l-1,-1l4,-1l10,-1l5,-1l9,-1l8,-1l7,-1l3,-1l7,-1l6,-1l6,-1l3,-1l6,-1l6,-1l6,-1l3,-1l6,-1l5,-1l5,-1l6,-1l2,-1l7,-1l5,-1l5,-1l1,3l1,2l1,3l1,2l1,1l1,1l2,2l2,4l1,1l1,1l1,1l1,1l1,3l-1,12l-3,1l-1,1l-1,1l-2,1l-1,1l-1,1l-1,1l-2,2l-1,2l-1,1l-1,2l-1,1l-1,2l-1,5l-2,-1l-1,-1l-5,1l-1,1l-3,1l-2,1l-2,1l-1,1l-1,1l-1,1l-1,1l-1,1l-1,1l-1,1l-1,1l-1,2l-1,1l-1,3l-1,6l1,3l-1,1l-1,1l-1,-1l-1,-1l-5,1l-3,1l-1,1l-2,-1l-1,-1l-1,-1l-2,-1l-1,-1l-1,-1l-2,-1l-1,-1l-2,-1l-1,-1l-1,-1l-2,-1l-2,-1l-1,-1l-1,-1l-2,-1l-1,-1l-1,-1l-1,-1l-1,-1l-2,-1l-1,-1l-1,-1l-4,1l-8,1l-4,1l-8,1l-2,-1l-1,-3l-1,-1l-1,-1l-1,-1l-1,-1l-1,2l-1,1l-1,-3l-10,1l-6,1l-10,1l-4,1l-3,1l-2,1l-1,-1l-1,2l-1,1l-1,-1l-1,1l-1,1l-3,1l-1,1l-6,1l-5,1l-10,1l-5,1l-2,-1l1,-6l1,-1l3,-1l1,-1l1,-4l1,-1l1,-1l1,-1l1,-1l1,-1l6,-1l1,-1l1,-1l1,-1l1,-1l1,-1l1,-1l1,-1l2,1l1,-1l1,-1l-1,-1l1,-1l-1,-1l1,-1l1,1l1,-1l1,-1l1,-2l1,-1l1,1l1,2l2,-1l1,-1l1,-2l1,-1l1,-1l1,-1ZM1155,170l1,-1l1,-1l4,-1l5,-1l5,-1l3,-1l5,-1l4,-1l3,-1l2,-1l1,1l1,1l1,1l-1,1l-1,3l1,1l1,2l1,1l-1,2l1,1l-1,1l-1,2l-1,1l-1,1l-1,1l-1,1l-1,1l1,2l-1,14l-1,2l1,1l-1,1l1,1l-1,1l1,5l1,7l-1,5l1,4l1,1l-1,2l-4,1l-5,1l-6,1l-1,-3l-1,-5l-1,-5l-1,-5l-1,-4l-1,-1l-1,-1l-1,1l-1,1l1,-4l-1,-2l-1,-3l-1,-1l-1,-3l1,-5l-1,-3l-1,-5l-1,-1l-1,-2l-1,-5ZM1172,251l1,-1l5,-1l6,-1l2,1l1,-2l3,-1l5,-1l5,-1l5,-1l1,1l1,2l1,3l1,4l1,4l-1,3l1,1l-1,2l-2,1l-1,1l-1,1l-2,1l-2,1l-1,1l-2,1l-3,1l-2,1l-1,1l-2,1l-2,1l-2,1l-1,1l-1,1l-2,1l-2,1l-2,1l-1,1l-1,-1l-1,-1l-1,-1l-1,-1l1,-1l1,-1l1,-1l1,-1l-1,-1l-1,-2l-1,-5l-1,-5l-1,-6ZM1139,326l1,-1l1,-2l1,-1l1,-1l4,1l-1,1l-1,2l1,1l-1,1l1,1l1,4l1,1l1,1l1,1l1,1l1,1l2,1l1,1l1,2l1,1l1,2l1,1l1,1l1,2l1,2l1,3l1,3l-1,1l-2,1l-6,1l-2,1l-4,-1l-1,-1l-1,-4l-1,-3l-1,-3l-1,-4l-1,-4l-1,-3l-1,-4l-1,-3l-1,-3ZM557,443l-1,1l-1,12l-1,2l-1,14l-1,13l-1,25l-1,13l-1,12l-1,10l-1,11l-1,13l-1,13l-1,1l-1,-1l-14,-1l-13,-1l-13,-1l-6,-1l-11,-1l-11,-1l-11,-1l-3,1l-1,1l1,1l-1,1l1,1l1,1l-6,-1l-10,-1l-5,-1l-10,-1l-7,1l-1,3l-1,7l-1,1l-4,-1l-9,-1l-5,-1l-1,-1l1,-3l1,-7l1,-7l1,-7l1,-7l1,-7l1,-7l1,-6l1,-8l1,-7l1,-7l1,-7l1,-7l1,-7l1,-6l1,-8l1,-7l1,-6l1,-8l1,-7l1,-6l1,-8l1,-7l1,1l8,1l5,1l9,1l9,1l10,1l5,1l8,1l11,1l11,1l6,1l12,1l13,1l15,1l8,1ZM169,486l1,-2l1,1l1,1l1,1l1,1l-1,1l-3,-1l-1,-1ZM188,498l1,-1l1,-1l1,1l1,1l1,1l1,2l1,1l1,1l-1,3l-4,-1l-1,-1l-1,-2l-1,-4ZM182,482l1,-1l1,1l1,1l-1,1l-1,1l-1,-1l-1,-1l1,-1ZM192,486l1,-2l2,1l2,1l1,1l1,1l1,1l1,2l-1,1l-1,1l-3,-1l-1,-1l-1,-1l-1,-2l-1,-1ZM177,465l4,1l-1,2l-3,-1l-1,-1l-1,2l-2,-1l-1,1l-1,-1l-3,-1l-1,-1l-1,1l-2,1l-3,-1l-1,-1l-1,-1l-1,-2l-2,-1l-2,-1l-1,-2l1,-2l1,1l4,1l1,1l1,1l1,1l1,-1l1,1l2,1l1,-1l1,-1l1,1l2,1l2,1l3,1ZM125,342l1,-1l2,1l1,1l1,2l-1,1l-3,-1l-1,-1ZM136,221l3,1l4,1l1,1l4,1l5,1l4,1l3,1l3,1l4,1l4,1l2,1l4,1l4,1l4,1l2,1l4,1l4,1l4,1l2,1l3,1l4,1l5,1l2,1l5,1l2,1l-1,1l-1,3l-1,4l-1,3l-1,4l-1,4l-1,4l-1,4l-1,3l-1,4l-1,4l-1,4l-1,3l-1,4l-1,4l-1,3l-1,4l-1,3l-1,4l-1,4l-1,7l1,4l1,3l1,1l1,2l1,1l1,1l1,2l1,2l1,1l1,1l1,2l1,1l1,1l1,2l1,2l1,1l1,1l1,2l1,2l1,1l1,1l1,2l1,2l1,1l1,1l1,2l1,1l1,2l1,1l1,1l1,2l1,1l1,1l1,4l1,1l1,2l1,1l1,2l1,1l1,1l1,2l1,2l1,1l1,1l1,2l1,1l1,2l1,1l1,1l1,2l1,2l1,1l1,1l1,2l1,2l1,1l1,1l1,2l1,1l1,2l1,1l1,2l1,1l1,2l1,1l1,3l1,1l1,1l1,2l1,2l1,2l1,1l1,1l1,2l1,1l1,1l1,2l1,1l1,2l1,1l1,2l1,1l1,2l1,1l1,1l1,2l1,1l1,2l1,1l1,2l1,6l1,3l1,1l1,5l-1,1l1,1l1,1l1,1l1,2l-1,3l-1,1l-1,1l-1,1l-3,1l-1,1l-1,1l-1,1l-1,2l-1,5l1,1l-1,1l-1,2l-1,1l-1,1l-1,1l-1,1l-1,1l1,2l-1,1l-1,3l1,2l1,1l2,1l1,1l-1,1l1,1l-1,1l-1,1l-1,1l-1,1l-3,-1l-1,1l-4,-1l-5,-1l-9,-1l-11,-1l-9,-1l-4,-1l-10,-1l-5,-1l-1,-2l-1,-1l1,-6l-1,-9l-1,-2l-1,-2l-1,-1l-1,-1l-1,-2l-1,-1l-1,-2l-1,-1l-1,-1l-1,-1l-1,-1l-1,-2l-1,-1l-4,-1l-1,-1l-1,-1l1,-2l-1,-3l-1,-2l-2,-1l-2,1l-2,-1l-1,-1l-1,-1l-3,-1l-2,-1l-1,-1l-1,-1l-1,-4l-1,-1l-1,-2l-1,-1l-1,-1l-2,-1l-1,1l-1,-1l-1,-1l-2,-1l-2,-1l-2,-1l-2,-1l-7,-1l-1,-1l-1,-2l-1,-1l-1,-1l1,-1l1,-1l1,-2l-1,-1l1,-1l-1,-3l1,-1l1,-1l1,-2l-1,-2l-1,-1l-1,-1l-1,-1l-1,-1l1,-2l1,-2l-1,-1l-1,-1l-1,-1l-1,-2l-1,-2l-1,-1l-1,-1l-1,-1l-1,-5l-1,-2l-1,-4l-1,-1l-1,-4l-1,-1l-1,-1l-1,-2l1,-10l1,-2l-1,-8l-1,-1l-1,-2l-1,-2l-1,-1l1,-7l-1,-4l1,-4l1,-4l-1,-2l-1,-1l-1,-1l-1,-1l-1,-1l-1,-2l-3,-1l2,-4l-1,-4l-1,-5l-1,-1l-1,-2l-1,-2l-1,-3l-1,-2l-1,-2l-1,-1l-1,-3l1,-3l1,-1l-1,-4l1,-1l-1,-1l1,-1l1,-5l1,-1l1,-1l-1,-8l-1,-4l-1,-2l-1,-3l-1,-2l-1,-1l-1,-1l1,-3l1,-5l1,-2l1,-2l1,-1l1,-1l1,-1l1,-1l1,-1l1,-1l1,-1l1,-2l-1,-1l1,-3l1,-1l1,-1l-1,-2l1,-2l2,-1l1,-1l-1,-1l1,-1l-1,-1l1,-1l-1,-1l1,-1l-1,-1l-1,-1l-1,-1l-1,-2l1,-1l1,-1l1,1l1,1l1,-3ZM1146,295l1,-1l1,-3l-1,-1l-1,-1l-1,-1l1,-1l1,-1l1,-1l1,-2l1,-3l-1,-1l1,-1l1,-1l1,-1l1,-1l1,1l1,1l2,1l3,1l4,1l3,1l2,1l1,1l-1,5l1,2l-1,1l-1,1l-1,1l-1,1l1,1l-1,1l1,2l1,-1l1,-1l2,-1l3,1l1,3l1,17l-1,2l-1,4l-1,3l-1,3l-1,2l-1,1l-1,1l-1,1l-1,2l-1,4l-1,3l-1,2l-1,1l-2,2l-1,-1l-1,-1l-1,-1l-1,-1l-1,-2l-1,-1l-1,-2l-1,-1l-1,-1l-1,-1l-1,-1l-2,-1l-1,-1l-1,-1l-1,-3l1,-2l-1,-1l1,-1l1,-2l1,-1l1,-1l1,-1l2,-1l1,-2l1,-2l1,-1l1,-1l1,-2l1,-1l-1,-1l-1,-1l-1,-1l-1,-1l-1,-1l-1,-1l-2,-1l-1,-2l-1,-1l-1,1l-1,-1ZM781,193l2,-1l1,-1l-1,-2l1,-14l1,-1l1,-1l1,-1l1,1l2,-1l1,-1l2,-1l3,-2l2,-1l3,-1l1,-2l3,-2l1,-1l1,-1l1,-1l1,-1l2,-1l2,-2l14,2l-1,1l-1,2l-1,3l-1,4l-1,1l-1,2l-1,3l-1,2l1,1l1,1l1,1l1,-1l1,1l1,1l1,2l1,1l2,1l5,1l5,1l3,1l5,1l2,1l2,1l1,-1l1,1l3,-1l1,1l4,1l1,-1l1,1l1,-1l1,1l1,1l1,1l-1,1l1,1l2,1l1,1l2,1l-1,1l1,1l-1,1l1,1l-1,2l-1,3l1,-1l1,1l1,-1l2,1l-1,2l1,3l1,1l1,1l3,-1l1,-3l1,-1l1,-1l1,-1l1,-1l1,-2l1,-1l3,-1l4,1l2,1l3,1l2,1l1,1l-1,2l-1,1l-1,2l-1,2l-1,2l-1,2l-1,3l-1,4l-1,6l-1,5l-1,3l-1,12l1,5l1,9l1,5l1,5l1,6l1,3l-2,1l-3,1l-7,1l-13,1l-14,1l-20,1l-11,1l-4,-1l-1,-1l-1,-1l-1,-1l-2,-1l-3,-1l-1,-1l-1,-1l-1,-1l-1,-2l-1,-4l1,-2l1,-3l1,-1l-1,-1l-1,-1l-1,-1l-1,-1l-1,-3l-1,-4l1,-1l-1,-3l-1,-2l-1,-2l-1,-1l-1,-1l-2,-1l-1,-1l-1,-1l-2,-1l-2,-1l-1,-2l-1,-2l-1,-1l-2,-1l-3,-1l-1,-1l-1,-1l-1,-1l-1,1l-1,-1l-2,-1l-1,-1l-1,-1l-1,-1l-1,-1l1,-4l-1,-1l-1,-3l1,-1l1,-1l-1,-1l1,-4l1,-2l-1,-2l-1,-2l-1,-1l-1,-1l1,-4l1,-2l-1,-1l1,-1l1,-1l1,-1l2,-1l1,-1ZM174,107l1,1l1,-1l1,1l1,1l4,1l5,1l1,3l1,1l3,-1l1,1l1,1l1,1l1,1l1,3l-1,5l-1,4l1,1l1,1l1,1l1,1l1,1l2,1l1,1l5,-1l2,-1l1,1l1,-1l5,1l1,-1l1,1l1,1l3,1l2,1l1,2l1,-1l1,1l6,-1l3,1l1,1l9,-1l8,1l1,-1l1,-1l1,1l6,1l4,-1l3,1l5,1l5,1l2,1l5,1l5,1l5,1l1,1l5,1l4,1l1,2l1,2l1,1l1,1l1,1l1,1l-1,1l1,1l-1,2l-1,1l-1,2l-1,1l-1,1l-1,2l-1,1l-1,3l-1,1l-1,1l-1,1l-1,3l-1,1l-1,1l-1,1l-1,1l-1,1l-1,2l-1,1l-1,1l-1,1l-1,2l1,1l-1,2l1,1l1,1l1,1l1,-1l1,1l-1,1l1,1l1,1l-1,1l-1,1l-1,2l-1,2l-1,1l-1,3l-1,4l-1,5l-1,4l-1,4l-1,5l-1,4l-1,5l-1,3l-1,5l-1,4l-1,5l-2,-1l-6,-1l-5,-1l-2,-1l-4,-1l-5,-1l-6,-1l-2,-1l-5,-1l-5,-1l-4,-1l-2,-1l-4,-1l-4,-1l-5,-1l-5,-1l-3,-1l-4,-1l-4,-1l-3,-1l-2,-1l-5,-1l-4,-1l-4,-1l-1,-1l-4,-1l-4,-1l-4,-1l-2,-1l-4,-1l-4,-1l-4,-1l-2,-1l-4,-1l-5,-1l-4,-1l-2,-1l-3,-1l-3,-1l-1,-1l1,-8l-1,-3l1,-2l1,-1l1,-1l-1,-2l1,-1l-1,-1l-1,-1l-1,-1l1,-1l1,-1l1,-1l1,-1l1,-2l1,-1l1,-3l1,-1l1,-3l1,-1l1,-1l1,-1l1,-1l1,-1l1,-1l1,-3l1,-1l1,-2l1,-2l1,-3l1,-2l1,-3l1,-3l1,-1l1,-3l1,-2l1,-4l1,-3l1,-1l1,-2l1,-3l1,-2l1,-1l1,-3l-1,-1l1,-1l1,-1l1,-3l1,-4l-1,-2l1,-2l1,-2l-1,-1l1,-1l1,-1l1,-1l-1,-4ZM549,272l4,1l14,1l16,1l17,1l23,1l13,1l25,1l1,1l2,1l1,1l2,1l2,1l1,1l2,-1l2,-1l1,-1l1,1l6,-1l1,1l1,-1l1,1l2,1l1,1l3,1l1,1l1,-1l1,1l1,1l3,1l-1,1l1,1l1,1l2,1l1,1l1,-1l1,1l-1,1l1,1l-1,1l1,1l1,1l1,4l1,1l-1,1l1,1l1,1l1,1l1,3l1,10l1,1l1,1l-1,2l1,1l1,1l-1,1l1,2l1,1l-1,1l1,4l-1,6l1,2l1,1l1,1l-1,1l1,2l1,-1l1,1l-1,1l1,1l1,3l-1,1l1,-1l1,1l1,1l1,1l1,2l1,1l-1,1l1,1l1,1l-65,-1l-34,-1l-24,-1l-19,-1l-1,-1l1,-9l1,-15l-1,-3l-11,-1l-8,-1l-14,-1l-7,-1l1,-10l1,-11l1,-11l1,-12ZM1028,272l1,-1l3,-1l2,-1l3,-1l1,-1l2,-1l2,-1l1,-1l1,7l1,3l1,4l6,-1l3,-1l6,-1l6,-1l6,-1l6,-1l4,-1l5,-1l5,-1l6,-1l3,-1l6,-1l6,-1l5,-1l3,-1l5,-1l5,-1l3,1l1,1l1,1l2,-1l1,1l1,1l1,1l1,2l1,3l1,2l1,1l1,-1l1,1l3,1l1,1l-1,1l-1,1l-1,1l1,1l-1,1l-1,2l-1,2l-1,2l-1,1l1,1l1,1l1,1l-1,1l-1,2l-1,1l1,1l1,3l2,1l1,1l1,2l2,1l1,1l1,1l1,1l1,1l1,1l-1,1l-1,1l-1,1l-1,1l-1,1l-1,2l-1,3l-1,1l-2,1l-6,1l-1,1l-1,1l-1,1l-1,1l-2,1l-6,1l-5,1l-5,1l-3,1l-5,1l-6,1l-6,1l-6,1l-3,1l-6,1l-6,1l-6,1l-4,1l-6,1l-6,1l-7,1l-3,1l-7,-1l-1,-2l-1,-7l-1,-5l-1,-6l-1,-6l-1,-6l-1,-6l-1,-6l-1,-5l-1,-7l-1,-5l-1,-7ZM324,68l-1,4l-1,5l-1,4l-1,4l-1,4l-1,4l-1,4l-1,5l-1,4l-1,4l-1,5l-1,4l-1,5l-1,4l-1,4l-1,5l-1,2l1,1l1,3l-1,1l1,1l-1,1l-1,1l1,1l-1,2l-3,-1l-5,-1l-1,-1l-5,-1l-5,-1l-5,-1l-2,-1l-5,-1l-5,-1l-4,1l-3,-1l-6,-1l-2,1l-1,1l-1,-1l-7,1l-10,-1l-1,-1l-2,1l-6,-1l-1,1l-2,-1l-1,-2l-1,-1l-3,-1l-1,-1l-1,1l-2,-1l-5,1l-1,-1l-1,1l-2,1l-5,-1l-1,-1l-1,-1l-1,-1l-2,-1l-1,-1l-1,-1l1,-1l1,-3l-1,-5l-1,-3l-1,-1l-1,-1l-1,-2l-1,1l-3,-1l-1,-1l-1,-3l-4,-1l-5,-1l-1,-1l-1,1l-1,-1l1,-2l1,-2l1,-4l1,-5l-1,-4l1,-2l1,-2l-1,-7l1,-1l-1,-1l1,-2l-1,-6l1,-3l-1,-1l-1,-2l-1,-3l1,-1l-1,-1l1,-2l1,-5l1,-1l1,-1l-1,-1l1,-2l1,-1l1,-1l1,2l1,1l3,2l1,1l1,1l2,1l2,2l2,1l2,1l2,1l1,1l8,-1l1,-1l1,-1l-1,-1l1,-7l5,-1l-1,-2l-1,-2l-1,-2l-1,-1l3,1l2,1l4,1l4,1l4,1l4,1l2,1l3,1l5,1l4,1l2,1l4,1l5,1l4,1l2,1l4,1l4,1l5,1l2,1l5,1l5,1l4,1l3,1l4,1l5,1l4,1l3,1l5,1l5,1ZM824,558l-1,2l1,1l1,-1l1,-1l1,1l-1,1l-1,1l1,3l2,1l-2,1l-1,1l1,1l2,-1l1,1l-1,1l-1,1l2,1l-1,-1l-1,-1l-1,2l1,1l1,1l1,-1l1,1l-1,1l1,1l2,-1l-1,2l-1,1l-1,2l-1,-1l-1,1l-1,1l-1,1l4,-1l1,1l-1,1l-1,1l-1,1l-1,-1l1,1l1,1l-2,1l-1,1l1,1l-2,1l-1,2l-1,-2l-1,2l1,1l-1,1l-1,3l-2,1l3,1l-3,1l1,2l-1,2l-1,-2l1,2l-1,1l1,1l-1,1l-2,1l1,1l1,1l-1,1l1,1l1,1l-1,1l-1,1l3,-1l22,-1l18,-1l3,1l-1,1l-1,3l-1,4l1,1l1,2l1,1l1,1l1,1l1,3l1,1l-1,1l1,1l1,1l1,1l5,-1l3,-1l1,1l2,1l6,1l1,1l1,2l-1,6l-1,3l-1,1l-1,1l-1,1l-1,1l-1,1l-1,1l-1,1l1,1l1,1l1,2l3,1l1,1l-1,3l-1,1l-1,1l-1,1l-1,2l-2,-1l-3,1l-1,1l-1,1l-1,1l-1,-1l-1,-7l-1,-1l-1,-1l-1,1l-4,1l-5,1l-2,1l-1,1l-1,1l-3,1l-6,-1l-1,1l-4,1l-5,-1l-1,-1l1,-1l-2,-1l-2,-1l-5,-1l-1,-1l-1,-1l-2,-1l-3,-1l-2,1l-1,-1l-3,1l-1,-1l-1,-1l-2,-1l-1,-1l-1,-1l-2,1l-2,1l-2,-1l-8,-1l-4,-1l-2,-1l-1,-1l-4,-1l-6,1l-1,-1l-5,1l-4,1l-1,2l-1,-3l-1,-1l-1,-1l1,-1l1,-2l1,-1l1,-2l1,-1l1,-1l-1,-1l1,-1l-1,-1l1,-1l-1,-1l-1,-2l1,-3l-1,-3l1,-1l1,-1l1,-2l1,-2l-1,-1l1,-1l1,-1l-1,-1l1,-1l-1,-2l1,-1l1,-1l-1,-1l-1,-3l-1,-1l-1,-1l-1,-1l1,-1l-1,-1l-1,-2l1,-1l-1,-1l-2,-1l-1,-1l1,-1l-1,-1l1,-1l-1,-1l-1,-2l-1,-2l-1,-1l-1,-1l-1,-1l-1,-20l1,-9l19,-1l38,-1ZM947,492l4,-1l9,-1l9,-1l9,-1l5,-1l10,-1l5,-1l5,1l-1,1l-1,1l-1,2l-1,1l1,3l1,1l1,1l2,1l1,1l2,1l2,-1l1,1l1,-1l1,1l1,3l1,1l1,1l1,2l1,1l1,1l1,2l1,1l1,1l1,1l1,1l2,1l2,1l1,1l1,2l1,1l1,1l1,-1l1,1l1,1l1,1l1,1l1,1l-1,1l1,1l1,1l1,1l1,1l1,1l1,1l2,1l2,1l2,1l1,1l1,2l1,1l1,2l1,3l-1,1l1,1l1,1l2,1l2,1l1,2l1,2l-1,1l1,1l-1,1l1,1l1,1l1,1l3,1l5,-1l-1,1l-1,3l-1,1l-1,2l-1,1l-1,2l-1,7l-1,2l1,1l-1,5l-1,1l-1,3l1,2l-1,2l1,1l-1,1l1,3l-1,1l-2,1l-2,-1l-1,1l-1,-1l-5,-1l-2,1l-1,1l-1,1l1,1l-1,1l1,1l1,1l-1,6l-1,1l-2,-1l-1,-1l-1,-3l1,-1l-4,1l-16,1l-17,1l-9,1l-16,1l-2,-1l-1,-1l-1,-1l-1,-2l-1,-2l-1,-2l-1,-2l-1,-1l-1,-3l1,-1l-1,-2l1,-1l-1,-5l-1,-2l-1,-1l1,-1l-1,-1l1,-5l1,-7l1,-1l1,-1l-1,-1l-1,-1l-1,-1l1,-1l-1,-2l-1,-2l-1,-1l-1,-1l-1,-2l-1,-3l-1,-4l-1,-4l-1,-3l-1,-4l-1,-3l-1,-3l-1,-4l-1,-4l-1,-3l-1,-4l-1,-4l-1,-3l-1,-3l-1,-3l-1,-4l-1,-3ZM889,497l10,-1l6,-1l16,-1l11,-1l13,-1l3,1l1,3l1,3l1,4l1,3l1,4l1,3l1,4l1,3l1,3l1,4l1,4l1,3l1,3l1,4l1,3l1,4l1,4l1,3l1,2l1,2l1,1l1,1l-1,3l1,1l1,1l1,1l-1,1l-1,1l-1,1l-1,6l1,6l-1,1l1,1l1,1l1,1l-1,6l1,1l-1,1l1,1l1,3l1,1l1,2l-1,1l-6,1l-8,1l-5,1l-11,1l-12,1l-13,1l-6,1l1,4l1,1l1,1l1,1l1,1l1,1l-1,3l1,1l1,1l-1,1l-1,2l-1,1l1,1l-1,1l-1,1l-2,1l-4,1l-5,1l-2,-1l-6,1l-1,-2l-1,-8l-1,-8l-1,-8l-1,-7l-1,-8l1,-51l-1,-41l-1,-2ZM341,272l2,1l6,1l7,1l6,1l7,1l4,1l6,1l7,1l7,1l3,1l6,1l-1,4l-1,7l-1,5l-1,6l1,6l6,1l7,1l9,1l4,1l7,1l7,1l-1,6l-1,6l-1,7l-1,8l-1,7l-1,6l-1,9l-1,5l-1,7l-1,6l-1,7l-1,10l-1,7l-1,7l-1,13l-6,-1l-8,-1l-4,-1l-8,-1l-6,-1l-7,-1l-5,-1l-7,-1l-7,-1l-6,-1l-7,-1l-3,-1l-7,-1l-6,-1l-7,-1l-2,-1l-7,-1l-5,-1l-1,-1l1,-2l1,-5l1,-6l1,-5l1,-4l1,-5l1,-5l1,-6l1,-4l1,-6l1,-4l1,-5l1,-6l1,-5l1,-10l1,-4l1,-6l1,-4l1,-6l1,-4l1,-5l1,-6l1,-4l1,-5l1,-5l1,-6ZM943,302l4,-1l4,-1l7,-1l6,-1l7,-1l1,-1l1,-1l1,-1l1,-1l1,-1l1,-2l1,2l2,2l3,1l2,1l2,1l1,-1l6,-1l2,-1l1,-3l3,-1l2,-3l2,-1l1,-1l1,-1l2,-1l1,-1l1,-1l1,-1l1,-1l1,-1l1,-1l3,-1l2,-1l3,-1l3,-1l3,-1l1,4l1,6l1,6l1,6l1,5l1,6l1,6l1,6l-1,2l-1,1l-1,1l1,1l1,1l1,5l-1,1l-1,3l-1,8l1,1l-1,1l-1,2l1,1l-1,4l-1,1l-1,1l-1,1l-1,1l-1,3l-1,1l-1,1l-1,-1l-1,-1l-1,1l-1,1l-1,1l-1,2l-1,1l-1,1l-1,3l1,1l1,3l-1,1l-1,-1l-1,2l-1,1l1,-2l-1,-1l-1,-1l-1,1l-1,-1l-1,1l-1,3l1,1l-1,1l-1,1l1,1l1,2l-1,3l-1,-1l-1,1l-1,4l-1,1l-2,1l-1,-1l-1,-1l-1,-1l-2,-1l-2,-1l-1,-1l-1,-3l-1,1l-2,1l-1,1l-1,1l-1,1l-1,-1l-1,1l-1,-1l-3,-1l-2,1l-2,1l-1,1l-2,-1l-1,-1l-1,-1l-2,-1l-1,1l-4,-1l-2,-1l-1,-4l-1,-1l-2,-1l-1,-1l-1,1l-1,1l-1,-1l-2,-1l-1,1l-2,-1l-1,-8l-1,-9l-1,-9l-1,-9l-1,-9l-1,-8l-1,-8l-1,-8ZM556,456l1,1l16,1l18,1l11,1l20,1l-1,20l-1,23l1,11l2,1l1,1l1,1l1,1l1,1l3,-1l1,1l2,1l1,-1l1,-1l1,1l1,1l1,1l1,1l1,3l5,1l2,1l3,-1l2,1l1,1l1,1l2,-1l1,-1l4,1l1,-1l2,1l-1,1l1,1l1,1l2,1l-1,1l1,1l-1,1l4,-1l1,-1l2,-1l1,-1l1,1l1,1l-1,1l4,1l-1,1l2,-1l3,-1l1,1l1,1l-1,1l1,2l1,-1l1,-1l-1,-1l1,-1l1,1l1,-1l1,-2l1,1l1,1l2,1l2,-1l1,-1l1,1l-1,1l2,1l1,-1l1,2l1,1l1,1l2,-1l1,-1l1,1l1,-1l1,-1l1,-1l1,-1l1,1l1,-1l1,1l2,-1l1,1l1,-1l1,-1l2,-1l1,1l1,1l5,-1l1,1l1,-2l1,1l2,1l1,-1l-1,1l1,-1l1,1l1,1l1,1l1,1l1,1l1,-1l1,1l1,1l-1,-1l1,1l1,1l1,-1l1,1l-1,1l1,-1l-1,1l3,1l2,1l1,-1l1,1l1,-1l1,1l1,-1l1,1l1,-1l1,1l1,24l1,20l1,1l1,1l1,1l1,2l1,2l-1,2l1,1l-1,1l1,1l1,1l1,1l1,1l1,2l-1,1l1,1l1,1l1,2l1,1l-1,2l1,1l-1,1l1,1l-1,2l1,1l-1,1l1,1l-1,1l-1,1l-1,2l-1,2l-1,1l1,1l-1,3l1,3l1,3l-1,1l1,1l-1,1l1,1l-1,1l-1,1l-1,1l-1,1l-1,2l-1,1l1,1l1,1l1,1l-1,3l-1,-1l-6,1l-3,1l-2,2l-4,1l-2,1l-2,1l1,1l-1,1l-1,1l-1,1l-1,1l-2,1l-2,1l-1,1l-1,1l-1,1l-1,1l-1,2l-1,1l-2,1l-1,1l-1,1l-3,1l-2,1l-2,1l-2,1l-1,1l-3,1l-2,1l-2,1l-1,1l-2,1l-1,1l-1,1l-1,1l-1,1l-2,1l-2,1l-1,1l-2,1l-1,1l-2,1l-1,1l-1,1l-1,1l-1,1l-1,1l-1,2l-1,1l-1,1l-1,2l-1,1l-1,2l-1,2l-1,2l-1,3l1,18l1,2l1,4l1,6l1,4l-1,3l-1,1l-3,1l-1,-1l-1,1l1,1l-1,1l-1,-1l-1,-1l-1,1l-1,-1l-1,-1l-1,-1l-1,-1l-1,-1l-1,1l-1,-1l-2,-1l-1,1l-1,-1l-1,1l-1,-1l-1,1l-1,-1l-2,1l-1,-1l-2,-1l-1,-1l-1,-1l-2,-1l-3,-1l-1,-1l-1,1l-1,-1l-1,-1l-1,-1l-1,-1l-1,1l-1,-1l-1,-1l-1,1l-1,-1l-3,-1l1,-1l-1,-1l-1,-1l-1,-2l-1,-3l-1,-4l-1,-1l-1,-1l-1,-2l-1,-1l1,-1l-1,-1l1,-1l-1,-2l1,-1l-2,-1l-1,-1l1,-1l1,-1l-1,-1l1,-1l-1,-1l-1,-2l-1,-1l-1,-1l-1,1l-1,-1l-1,-1l-1,-2l-1,-1l-1,-1l-1,-4l-1,-1l-1,-2l-1,-1l-1,-2l-1,-1l-1,-1l-2,-1l-1,-2l-1,-4l1,-1l-2,-1l1,-1l-1,-1l-1,-1l-1,-1l-1,-2l1,-1l-1,-1l-1,-1l-1,-1l-1,-5l-1,-1l-1,-1l-1,-2l1,-1l-2,-1l-1,-1l-1,-1l-2,-1l-1,-2l-1,-1l-2,-1l-2,-1l1,-1l-1,-1l-1,-1l-1,-1l-1,-2l-1,-1l-1,1l-1,-1l-1,1l-1,-1l-1,1l-1,-1l-2,-1l-1,1l-1,-1l-1,1l-1,-1l-2,1l-1,-1l-2,-1l-1,-1l-2,-1l-1,1l-1,1l-1,1l1,1l-1,-1l-3,1l-1,-1l-1,1l-1,1l-1,1l-1,1l-1,1l-1,1l1,1l-1,1l-1,2l-1,1l-1,4l-1,1l-1,-1l-1,2l-1,1l-1,1l-1,2l-4,-1l-1,-1l-2,-1l-1,-1l-1,-1l-1,-1l-3,-1l-2,-1l-1,-1l-1,-1l-2,-1l-2,-1l-1,-1l-1,-1l-1,-1l-1,-1l-1,-1l-2,-1l-1,-1l-1,-1l-1,-1l-1,-1l-1,-1l1,-1l-1,-1l-1,-1l-1,-2l-1,-4l1,-1l-1,-6l-1,-1l-1,-1l1,-1l-1,-1l-1,-1l1,-1l-1,-1l-1,-3l-1,-1l-1,-1l-1,-1l-1,-1l-1,-1l-1,-1l-1,-1l-2,-1l-1,-1l-1,-1l-1,-1l-1,-1l-1,-2l-1,-1l-1,-1l-1,-1l-1,-1l-1,-1l-1,-2l-1,-1l-1,-1l1,-1l-2,-1l-3,-1l-1,-1l-1,-1l-1,-1l-1,-3l-1,-2l-1,-2l-2,-1l-1,-1l-1,-1l-1,-1l1,-1l1,-2l3,1l11,1l11,1l10,1l6,1l13,1l13,1l15,1l1,-1l1,-1l1,-13l1,-12l1,-11l1,-11l1,-11l1,-13l1,-25l1,-13l1,-14ZM439,316l2,1l8,1l5,1l8,1l10,1l10,1l5,1l9,1l10,1l12,1l5,1l14,1l14,1l14,1l9,1l11,1l-1,2l-1,15l-1,32l-1,16l-1,15l-1,16l-1,16l-8,-1l-15,-1l-7,-1l-16,-1l-13,-1l-11,-1l-6,-1l-12,-1l-10,-1l-9,-1l-5,-1l-9,-1l-9,-1l-9,-1l-5,-1l-8,-1l-1,-1l1,-12l1,-7l1,-8l1,-9l1,-7l1,-6l1,-8l1,-6l1,-7l1,-7l1,-7l1,-7l1,-7l1,-6ZM1014,504l-1,-1l-1,-1l-1,-3l-1,-1l-1,1l-2,-1l-2,-1l-1,-1l-2,-1l-2,-1l-1,-1l1,-2l1,-1l1,-2l1,-1l1,-1l-1,-1l1,-1l1,-1l3,-1l2,-1l1,1l1,-1l1,-1l1,-1l2,-1l3,-1l5,-1l10,-1l5,-1l11,1l1,1l1,-1l1,1l1,1l2,1l1,1l1,3l1,-1l8,-1l4,-1l8,-1l4,1l1,1l1,1l2,1l1,1l2,1l1,1l1,1l1,1l2,1l1,1l1,1l2,1l1,1l1,1l2,1l1,1l2,1l1,1l2,1l1,1l2,1l1,1l-1,1l-2,1l-1,1l-1,1l-1,1l-1,1l-1,1l-1,2l-1,2l-1,2l1,6l-1,2l-1,1l-1,1l-1,1l-1,3l-3,1l-1,1l-1,2l-1,1l-1,1l-1,2l-1,2l-1,1l-1,1l-1,1l-1,1l-2,1l-1,1l-1,1l-1,1l-1,1l-1,1l-1,1l1,1l-1,1l-1,1l-1,1l-1,1l-1,1l-1,1l-1,1l-1,1l-1,2l-4,-1l-4,-1l-1,-1l-1,-1l1,-1l-1,-1l1,-1l-1,-1l-1,-1l-1,-3l-1,-1l-2,-1l-1,-1l-1,-1l-1,-3l-1,-2l-1,-1l-1,-2l1,-1l-1,-1l-2,-1l-2,-1l-2,-1l-1,-1l-2,-1l-1,-1l-1,-1l-1,-1l1,-1l-1,-1l-1,-1l-1,-1l-1,-1l-1,-1l-1,1l-1,-1l-1,-1l-1,-1l-1,-2l-1,-1l-1,-1l-2,-1l-1,-1l-2,-1l-1,-1l-1,-1l-1,-1l-1,-1l-1,-1ZM556,456l1,-12l1,-1l12,1l17,1l25,1l13,1l31,1l86,1l1,16l1,7l1,6l1,7l1,6l-1,36l-1,16l-1,-1l-1,-1l-1,1l1,-1l-1,-1l-1,1l-1,-1l1,-1l-1,1l-1,-1l-1,1l-1,-1l-1,-1l-1,-1l-1,-1l-1,-1l-2,-1l-2,1l-1,1l-6,-1l-1,-1l-1,1l-1,1l-2,1l-1,-1l-1,1l-1,-1l-1,1l-1,-1l-1,1l-2,1l-1,1l-1,1l-1,-1l-1,1l-1,1l-1,-1l-1,-1l-2,-1l-1,-1l-1,-1l-1,-1l-1,1l-1,1l-1,-1l-2,1l-1,-1l-1,-2l-1,1l-1,1l-1,1l-1,1l-1,2l-1,-1l1,-2l-1,-1l-1,-1l-1,1l-2,1l-1,-1l-1,-1l-3,-1l-1,-1l-1,-1l-1,2l-1,1l-1,1l-4,-1l1,-1l-1,-2l-3,-1l1,-2l-1,-1l-1,1l-1,-1l-5,1l-1,1l-2,-1l-1,-1l-1,-1l-1,1l-3,-1l-2,-1l-6,-1l-1,-2l-1,-2l-1,-1l-1,-1l-1,1l-1,1l-1,-1l-1,-1l-1,1l-4,-1l-1,-1l-1,-1l-1,-1l-1,-1l-2,-1l1,-10l1,-23l-1,-21l-19,-1l-11,-1l-18,-1ZM1010,454l-2,1l-1,1l-1,2l-1,-1l-1,1l1,1l-1,1l1,1l-1,1l-1,1l-1,-1l-1,1l-1,1l-1,1l-2,1l-1,1l-1,1l-1,1l-1,1l-5,1l-1,1l-2,1l-1,1l-1,1l-1,1l-1,4l-1,1l-3,1l-1,1l-1,6l-6,1l-9,1l-9,1l-7,1l-12,1l-11,1l-16,1l-6,1l-11,1l-14,1l-16,1l-9,1l-8,-1l1,-1l1,1l1,-3l2,-1l-1,-1l1,-1l-1,-1l-2,-1l2,-1l-1,-2l-1,1l1,-2l1,-1l1,2l1,-4l1,1l1,-1l-1,-1l1,-1l1,-1l-1,-1l-1,1l-1,-1l1,-2l3,-1l1,-1l1,-1l-2,-1l1,-1l1,1l1,-1l-1,-1l-1,-1l1,-1l1,-2l1,-1l-1,-2l-1,-1l2,-1l-1,-1l1,-1l1,-1l1,-4l1,1l1,-1l7,-1l16,-1l7,-1l-1,-2l1,-2l12,-1l12,-1l10,-1l19,-1l5,-1l14,-1l12,-1l11,-1l1,-1l9,-1l1,1l1,-1l7,-1l7,-1l5,-1l8,-1l4,-1l2,1l-1,1l1,1l-1,2l1,2l-1,1l-1,1l-1,1l-1,1l-1,2l-1,2l-2,-1l-1,1l-1,-1l-1,1l-1,1l-1,1l-1,1l-1,1l-1,2l-2,-1ZM414,213l1,-6l1,-6l1,-2l1,1l6,1l7,1l6,1l8,1l9,1l6,1l4,1l9,1l10,1l8,1l4,1l10,1l11,1l1,-1l1,1l10,1l6,1l12,1l6,1l-1,20l-1,12l-1,11l-1,12l-1,11l-1,12l-1,11l-1,12l-1,10l-6,-1l-14,-1l-5,-1l-12,-1l-11,-1l-8,-1l-5,-1l-10,-1l-10,-1l-8,-1l-5,-1l-8,-1l-9,-1l-8,-1l-3,-1l-9,-1l-7,-1l-7,-1l1,-5l1,-6l1,-5l1,-7l1,-6l1,-6l1,-6l1,-6l1,-6l1,-6l1,-6l1,-7l1,-5l1,-7l1,-6l1,-6ZM490,733l1,1l2,1l3,1l1,1l1,1l2,1l1,1l1,3l1,1l1,1l1,2l1,1l1,1l1,1l1,1l-1,1l-1,2l-1,1l-2,1l-1,1l-1,1l-3,1l-5,1l-1,1l-2,1l-1,1l-1,1l-1,1l-1,2l-1,1l-1,1l-1,-1l-1,-1l-2,-1l-3,-1l-1,-1l1,-7l-1,-2l-1,-3l-1,-2l-1,-2l-1,-1l1,-5l1,-1l1,-1l1,-1l1,-1l1,-1l-1,-1l-1,-2l1,-4l1,-1l4,1l1,1l2,1l1,1l1,-1l1,1ZM415,694l-1,-1l1,-1l5,-1l1,-1l1,-1l2,-1l1,1l1,1l1,2l1,1l1,1l1,1l1,1l1,1l1,1l1,3l-1,1l-1,1l-1,1l-5,-1l-1,-1l-2,1l-3,-1l-1,-1l-1,-1l-1,-1l-1,-2ZM356,689l2,1l1,1l-1,1ZM381,674l1,-1l1,1l1,-1l2,1l1,-1l1,1l1,1l1,1l1,1l-1,3l-1,4l-1,1l-1,1l-7,-1l-1,-1l-3,-1l-1,-1l1,-3l1,-2l1,-1l1,-1ZM457,708l2,-1l2,1l1,1l1,1l4,-1l1,1l1,-1l1,1l1,1l1,1l1,1l2,1l1,-1l1,1l1,1l-1,3l-1,1l-1,2l-3,1l-1,-1l-1,1l-4,1l-1,-1l-2,-1l-1,2l-1,2l-5,-2l1,-2l1,-1l1,-1l2,-1l1,-1l-3,-1l-1,-1l-1,-1l-1,-1l1,-4ZM447,713l1,-3l6,1l1,1l1,1l-1,4l-1,1l-5,-1l-1,-1l1,-1l-1,-1ZM362,686l1,-1l1,-2l1,-1l1,-1l1,-1l1,-1l1,1l1,1l1,1l-1,1l-1,2l-1,1l-1,1l-1,1l-1,1l-1,-1l-1,-1l-1,-1ZM457,708l-1,1l-2,1l-3,-1l-3,-1l-5,1l-1,-1l-2,-1l1,-2l1,-3l6,1l1,-1l3,1l2,1l1,-1l1,1l2,1l-1,2ZM562,105l8,1l14,1l8,1l20,1l21,1l35,1l21,1l1,2l-1,1l1,1l1,2l-1,1l1,1l-1,1l1,1l-1,1l1,2l-1,1l1,1l-1,1l1,2l-1,1l1,2l-1,1l1,1l-1,1l1,1l1,1l1,4l1,3l1,2l1,3l-1,1l1,1l-1,-1l1,1l-1,1l1,1l-1,1l1,1l-1,1l1,1l1,10l-1,4l1,1l-1,2l1,1l-1,1l1,1l1,1l-1,1l1,1l1,2l1,2l1,3l-1,1l1,1l-1,6l-47,-1l-26,-1l-12,-1l-19,-1l-16,-1l-16,-1l-7,-1l-2,-1l1,-6l1,-11l1,-12l1,-11l1,-11l1,-12l1,-12ZM857,457l-2,-1l1,-1l1,1ZM886,418l1,1l1,-1l1,-1l-1,-1l1,-1l1,1l1,-1l3,1l1,1l1,-1l-1,-1l1,-3l1,2l1,-1l2,1l2,1l3,1l1,1l1,-1l1,-3l1,-1l1,-1l1,-1l1,1l1,1l1,1l1,-1l1,1l1,1l1,-2l1,-1l-1,-1l1,-2l1,-1l-1,-1l3,-1l-1,-1l2,1l1,1l-1,1l1,1l4,1l1,1l1,-2l2,-1l1,-7l2,-1l1,-1l1,-3l1,-1l1,-1l1,-1l-1,-3l1,-3l4,1l2,-1l1,-1l2,-1l2,-1l1,-1l1,-1l-2,-1l1,-1l-1,-1l-1,-1l1,-2l1,-1l1,-1l1,1l2,1l1,-1l2,-1l1,1l1,1l2,1l1,1l1,4l1,1l4,-1l1,1l3,1l1,1l1,1l2,-1l1,-1l1,-1l2,1l3,1l1,1l1,-1l1,-1l2,-1l1,-1l1,-1l1,-1l2,1l1,2l1,2l1,1l2,1l1,1l1,2l-1,6l1,1l1,1l1,1l1,1l1,1l-1,1l1,1l2,1l1,1l1,1l1,1l1,1l1,1l1,1l1,1l2,1l1,-1l1,1l-1,1l-1,1l-1,1l-1,1l-1,1l-1,1l-1,1l-1,1l-1,1l-2,1l-1,1l-1,1l-1,1l-1,1l-1,2l-1,1l-1,1l1,1l-1,1l-1,1l-1,1l-1,-1l-1,1l-1,1l-1,2l-1,1l-1,1l-1,1l-4,1l-2,1l-1,1l-1,1l-12,1l-11,1l-14,1l-5,1l-20,1l-10,1l-11,1l-13,1l1,1l-1,3l-6,1l-16,1l-7,-1l1,-3l1,1l1,1l1,-1l1,-1l-1,-2l1,-2l-1,-1l1,-1l1,-2l-1,-2l-1,-1l1,-2l1,-2l1,-1l1,-1l2,1l2,1l3,1l1,1l3,-1l1,-2l-1,-1l-1,-1l-1,-1l1,-2l1,-2l1,-1l1,1l1,-1l1,-1l3,-1l1,1l-1,-2l-1,-1l-1,-2l1,-1l1,-2l1,-1ZM1196,151l1,-1l1,-1l1,1l1,1l1,-1l-1,-3l1,-1l1,-1l1,1l1,-1l-1,-1l-1,-1l-1,-1l1,-1l1,-2l1,-1l1,-1l1,-1l-1,-2l1,-1l1,-2l-1,-3l-1,-1l1,-1l-1,-1l1,-1l-1,-1l-1,-1l1,-1l1,-4l1,-1l-1,-7l1,-3l1,-2l1,-3l1,-3l1,-3l1,-3l1,-3l1,-2l1,-3l1,-1l2,1l1,2l1,2l3,-1l2,-1l1,-1l1,-1l1,-1l3,-1l1,-2l3,1l2,1l2,1l2,1l1,1l2,1l1,1l1,2l1,4l1,3l1,3l1,3l1,6l1,3l1,3l1,2l-1,1l1,1l1,3l-1,1l3,1l1,1l1,-1l1,1l1,-1l1,-1l1,1l1,2l-2,1l1,1l1,1l1,1l-1,1l1,1l1,2l1,1l2,-1l4,1l1,1l1,1l1,1l1,1l1,1l1,1l1,1l-1,1l-1,1l-1,2l-1,2l-1,2l-1,1l-1,1l-1,1l-1,2l-1,1l-1,1l-1,1l-2,1l-1,1l-2,1l-1,1l-1,1l-1,1l-1,4l-1,2l-1,1l-2,1l-1,1l-1,2l-1,1l1,1l-1,1l-1,1l-1,3l-1,-1l-2,-1l-1,1l-1,1l-2,-1l-1,1l1,1l-1,2l-2,-1l-1,-1l-1,1l-1,3l-2,1l-1,1l-2,1l-1,1l-1,1l-1,1l-1,1l-1,1l-1,1l-1,1l-1,3l-1,2l-1,1l1,3l2,1l-1,1l-1,1l-1,-1l-1,2l2,1l1,1l-1,1l-1,-1l-2,-1l-1,-1l-1,-1l-1,-1l-1,-2l-1,-1l-1,-1l-1,-1l-1,-1l-1,-4l-1,-2l-1,-3l-1,-3l-1,-3l-1,-4l-1,-3l-1,-3l-1,-3l-1,-3l-1,-3l-1,-3l-1,-3l-1,-3l-1,-3l-1,-3ZM1155,170l1,5l1,5l1,2l1,1l1,5l-1,3l1,5l1,3l1,1l1,3l-1,2l1,4l1,-2l1,1l1,1l1,1l1,4l1,4l1,5l1,5l1,2l-1,2l1,19l1,4l1,6l1,5l1,5l1,2l1,1l-1,1l-1,1l-2,1l-1,1l1,1l1,1l1,1l1,1l1,-1l1,-1l1,-1l2,-1l2,-1l1,-1l1,-1l2,-1l2,-1l2,-1l1,-1l3,-1l2,-1l2,-1l2,-1l1,-1l2,-1l1,-1l1,-1l3,1l2,2l1,1l-1,4l-1,1l-1,1l-2,1l-1,1l-1,1l-1,1l-2,1l-1,1l-1,1l-2,1l-1,1l-2,1l-1,1l-1,1l-1,1l-3,1l-1,1l-1,1l-2,1l-1,1l-1,1l-2,1l-4,1l-3,1l-4,1l-3,1l-1,1l-1,-1l1,-2l-1,-1l1,-1l1,-1l1,-1l1,-1l-1,-1l1,-1l-1,-6l-1,-1l-1,-1l-4,-1l-3,-1l-3,-1l-2,-1l-2,-1l-2,-1l-4,-1l-1,1l-1,-1l-1,-1l-1,-1l-1,-3l-1,-2l-1,-1l-1,-1l-2,-1l-1,-1l-1,-1l-3,1l-5,1l-5,1l-3,1l-5,1l-6,1l-6,1l-3,1l-6,1l-5,1l-6,1l-3,1l-6,1l-6,1l-7,1l-5,1l-3,1l-7,-1l-1,-3l-1,-6l2,-5l2,-2l1,-1l1,-1l1,-1l2,-1l2,-2l2,-1l1,-1l1,-1l1,-2l-1,-1l-2,-1l-1,-2l-1,-1l-1,-4l-1,-1l-1,-2l-1,-2l1,-1l1,-1l1,-1l3,-1l2,-2l1,-1l5,-1l6,-1l5,-1l5,-1l5,-1l7,-1l1,-1l3,-1l1,-1l1,-4l2,-5l1,-3l1,-1l1,-3l2,-1l1,-2l1,-1l1,-1l1,-1l1,-1l1,-1l1,-3l1,-2l1,-1l1,-2l1,-1l1,-1l1,-2l1,-1l1,-1l1,-1l1,-1l1,-1l1,-2l1,-1l4,-1l6,-1l5,-1l2,-1l5,-1l4,-1ZM281,259l3,1l2,1l6,1l5,1l4,1l3,1l6,1l5,1l6,1l3,1l5,1l5,1l7,1l-1,6l-1,4l-1,5l-1,5l-1,6l-1,4l-1,5l-1,6l-1,4l-1,5l-1,5l-1,5l-1,10l-1,4l-1,6l-1,5l-1,5l-1,5l-1,4l-1,6l-1,5l-1,5l-1,4l-1,5l-1,6l-1,5l-1,5l-1,5l-1,6l-1,5l-1,5l-1,1l-1,1l-1,2l-2,-1l-1,-1l-1,-1l-1,-2l-1,1l-1,-1l-5,1l1,6l-1,1l-1,1l-1,8l1,3l-1,8l-1,1l-1,1l-1,-1l-1,-1l-1,-2l-1,-1l-1,-1l-1,-2l-1,-1l-1,-1l-1,-2l-1,-1l-1,-2l-1,-2l-1,-1l-1,-1l-1,-2l-1,-1l-1,-2l-1,-1l-1,-2l-1,-1l-1,-2l-1,-1l-1,-2l-1,-1l-1,-1l-1,-3l-1,-2l-1,-1l-1,-2l-1,-1l-1,-2l-1,-1l-1,-1l-1,-2l-1,-2l-1,-1l-1,-2l-1,-1l-1,-1l-1,-2l-1,-1l-1,-2l-1,-1l-1,-1l-1,-2l-1,-2l-1,-1l-1,-1l-1,-2l-1,-1l-1,-2l-1,-1l-1,-2l-1,-1l-1,-1l-1,-2l-1,-2l-1,-3l-1,-1l-1,-1l-1,-2l-1,-1l-1,-2l-1,-1l-1,-2l-1,-1l-1,-2l-1,-1l-1,-1l-1,-2l-1,-1l-1,-2l-1,-1l-1,-2l-1,-1l-1,-2l-1,-1l-1,-2l-1,-1l-1,-1l-1,-2l-1,-1l-1,-2l-1,-1l-1,-2l-1,-1l-1,-2l-1,-1l-1,-1l-1,-3l1,-4l1,-8l1,-3l1,-4l1,-4l1,-3l1,-3l1,-4l1,-4l1,-4l1,-4l1,-3l1,-4l1,-4l1,-3l1,-4l1,-4l1,-4l1,-4l1,-4l1,-3l1,-1l2,1l4,1l5,1l1,1l5,1l4,1l5,1l3,1l5,1l5,1l4,1l2,1l6,1l5,1ZM26,728l1,-1l2,1l1,1l1,1l1,1l-1,1l-1,1l-1,-2l-1,-1l-1,-1ZM33,733l2,1l-1,1l-1,-1ZM60,755l1,-1l1,1l1,1l-3,-1ZM117,768l1,-1l1,-1l1,1l-1,1ZM121,767l1,-1l1,-1l1,1l1,-2l1,1l-1,1l1,1l-1,1l-1,-1l-1,1ZM71,763l-3,-1l-1,-1l1,1l3,1ZM68,763l-1,1l-1,1l-1,-1l1,-1ZM134,725l-1,1l-2,-1l1,-1l1,-1l1,1ZM128,693l-1,-1l-1,-2l1,-1l-1,-1l1,-1l1,1l1,2l1,1l1,1l-1,1ZM128,692l-1,1ZM69,760l1,-1l1,1l-1,1l-1,-1ZM106,768l1,-1l1,-1l1,1l-1,1ZM89,763l1,1ZM92,764l-1,-1l1,1ZM50,748l-1,-1ZM77,762l-1,1l2,-1l2,1l1,-1l1,1l1,-1l1,2l1,-1l1,-1l1,1l1,1l1,1l1,-1l1,1l1,-1l1,1l1,-1l2,-1l1,1l1,-1l1,1l-1,2l2,1l2,1l3,1l-2,1l-1,-1l-2,-1l-2,-1l-5,-1l-1,1l-1,-1l-10,1l-1,-1l-1,1l-1,-1l1,-1l1,-1l-1,1l-2,-1l-4,-1l1,-1l-1,-1l1,-1l1,1l1,1ZM54,756l1,-1l1,1l1,1l1,2l1,1l-3,-1l-1,-1l-1,-1ZM49,748l2,1l-1,2l-2,-1l-1,1l1,-2ZM52,751l1,-1l1,1l1,1l1,1l-1,1l-1,-1l-1,-1ZM52,752l2,1l-1,1l-1,-1ZM77,762l1,1ZM71,763l1,1ZM51,751l1,1ZM136,759l1,-1ZM133,731l1,-1l1,1l-1,1l-1,-1ZM134,725l-1,1ZM139,663l1,-2l1,-1l1,1l1,1l1,1l1,-1l3,1l1,2l1,1l1,1l2,1l-1,1l1,1l-1,1l-1,-1l1,-1l-3,1l-1,1l-1,-1l-1,-2l-1,-1l-1,-2l-5,-1ZM159,653l1,-1ZM186,666l-1,-1ZM157,645l1,-1ZM157,646ZM183,671l1,-1ZM29,735l1,-1l2,1l-1,1l-1,1l-1,-1ZM114,768l1,-1l1,1l-1,1ZM42,742l1,-1l1,1l-1,1l-1,-1ZM225,718l1,-1l2,1l-1,1ZM184,718l2,1l-1,1l-1,-1ZM254,711l1,-1l1,1l-1,1ZM186,719l1,1l-1,1ZM213,735l-1,-1l1,-1l1,-2l1,-1l1,-1l1,-1l2,-1l1,-1l1,-1l1,-1l1,-1l1,-2l1,-1l1,1l1,1l1,1l1,1l-1,2l-2,1l-1,-1l1,1l1,2l1,1l-1,1l-1,3l-1,-1l-1,1l-1,1l1,1l-1,1l-2,1l-1,-1l-1,2l-1,1l-1,1l1,-1l-1,2l-3,1l-2,-1l1,-1l1,-1l1,-1l-1,-1l-1,-1l1,-2ZM147,760l1,-2l2,-1l1,1l1,1l4,1l-1,1l-3,-1l-1,1l-1,-1l-2,1l-1,2l-2,1l-1,1l-4,1l-4,-1l-1,1l-2,1l-1,1l-1,-1l-1,1l-3,-1l1,-1l1,1l1,-1l1,-2l1,-1l2,-1l4,1l1,1l1,-1l1,-1l-1,-1l1,-1l1,-1ZM169,758l1,1l1,1l-2,1l-2,-1l-1,-1l1,-1ZM202,745l1,1l-1,1ZM186,756l-1,2l-1,-1l1,-1ZM208,750l-1,-1l1,-2l1,1ZM166,749l1,-1l-1,2ZM177,752l1,1l-1,1ZM168,755l1,1l-1,-1ZM186,756l-1,-1l-1,1l-2,1l-1,-1l1,-1l1,-2l-1,-1l-1,1l-1,2l-1,-1l-1,-1l1,-2l-2,1l1,-1l-1,1l-1,1l-1,1l-1,1l-1,1l-1,1l-1,-1l-1,2l-1,-1l1,-1l-1,-1l-1,-1l-1,1l-1,-1l1,2l-1,1l-2,-1l-1,1l-1,-1l-3,1l-1,1l-3,-1l1,-2l1,-1l1,-2l4,-1l1,1l2,-1l3,-1l1,-1l1,-1l1,-1l1,-1l1,-1l2,-1l6,-1l1,-1l1,-1l1,-1l1,-1l3,-1l2,-1l1,-1l1,-1l1,-2l1,-3l1,-4l1,-1l1,-3l-1,-1l-1,1l-2,1l-2,-1l-1,-3l-1,-1l-1,1l-1,-1l-2,-1l-1,1l-1,1l-1,1l-1,1l-1,-1l-1,-1l-1,1l-1,-1l-2,-1l2,-1l-1,-3l1,-3l1,-1l-1,-1l-1,-2l-1,-1l-2,1l-1,-1l-3,1l1,1l-2,-1l-1,-1l-1,-3l-1,-2l-1,-1l-1,-1l-1,-1l1,-1l1,-1l1,-2l-1,-1l-2,-1l-1,-2l-1,-3l1,-1l1,-2l1,-2l1,-1l1,-1l1,-1l1,-1l1,-2l1,-1l1,-2l1,-1l3,1l1,1l1,1l1,-1l1,-1l1,-1l1,-1l-1,-1l1,-1l1,1l1,1l4,-1l1,-1l-1,-5l-1,-1l-2,-2l-2,1l-1,1l-2,-1l-1,-1l-1,-1l-5,1l-1,-1l-1,-1l-3,-1l-1,-1l1,-2l-1,-1l-1,-1l1,-3l-3,-1l-1,-1l-1,-1l1,-1l1,-1l1,-1l2,-1l2,-1l3,-1l1,-1l4,-1l4,1l1,-1l2,-1l1,-1l-1,-1l-2,-1l-1,-1l-1,-4l-1,-1l-1,-2l-2,-2l-1,-1l-1,-1l-1,-1l-1,-1l2,-1l1,-2l1,-2l1,1l7,-1l1,-1l1,-1l1,-1l1,-3l1,-2l1,-1l1,-1l1,-1l5,-1l1,-1l1,-1l1,-1l2,-1l2,1l2,-1l1,-1l1,-1l1,-1l1,-1l2,1l2,1l2,1l2,1l1,1l6,1l2,1l1,2l2,-1l2,-1l4,1l1,1l1,-1l1,-1l1,2l3,1l4,1l4,-1l2,-1l3,1l3,1l3,1l2,1l1,2l1,6l1,5l1,4l1,10l1,5l1,5l1,5l1,5l1,4l1,5l1,6l1,4l1,5l1,5l1,5l1,4l2,4l1,1l1,-1l2,-1l2,-1l2,1l1,3l2,1l2,1l2,1l1,1l1,1l1,2l1,-1l1,-1l2,-1l-1,-3l1,-1l1,-1l1,-1l1,-1l2,1l1,1l1,1l1,1l1,1l2,1l1,1l2,1l2,1l2,1l1,1l1,1l1,1l1,1l1,2l2,1l1,1l2,2l1,2l1,1l1,1l4,1l2,-1l1,1l2,1l1,-1l1,1l1,1l-1,1l1,1l1,2l1,2l-1,4l-1,1l1,2l-3,1l-3,1l-5,1l-1,1l-2,1l-3,1l-1,-2l-1,-4l-1,-1l-1,-4l-1,-1l-1,3l-1,-1l-1,-1l-1,-2l-2,-1l-1,-1l-1,-1l-3,-1l-1,-1l-1,-1l-2,-2l-1,-3l-1,-1l-1,-1l-1,-1l-1,-1l1,-1l-2,-1l-3,-1l-2,-1l-1,-1l-1,-1l-1,-1l-4,-1l-1,-1l-4,-1l-3,-1l-8,-1l-6,1l-4,1l-1,1l-1,1l-2,-1l1,-1l-1,-1l-2,-1l-2,-1l-4,1l-2,1l-1,1l-1,1l-1,2l-1,1l-2,-1l-7,1l-1,2l-1,1l-1,1l-2,1l-1,1l-2,1l-3,1l-6,1l-1,1l-1,1l-1,2l-1,1l-1,1l-1,2l-1,1l-3,1l-1,1l-1,1l-1,1l-1,1l-1,1l-2,1l-1,1l-1,4l-1,1l-1,2l-1,1l-1,1l-1,2l-1,1l-2,1l-1,2l-5,-1l-2,1l-3,1l1,1l1,1l1,-1l1,2l-1,3ZM152,700l1,-2l1,1l1,-1l2,-1l1,1l1,-1l1,1l1,1l1,1l-1,1l1,1l-1,2l-2,1l-2,-1l-2,-1l-1,-1l-1,-1l-1,-1ZM875,208l-1,-3l-1,1l-2,-1l-1,1l1,-1l1,-2l-1,-3l1,-1l-1,-1l1,-1l-1,-1l-1,-1l-1,-1l-2,1l-1,-1l-1,-1l1,-1l-1,-1l-1,-1l-1,-1l-1,1l-1,-1l-4,-1l-1,1l-3,-1l-1,1l-1,-1l-2,-1l-3,-1l-4,-1l-3,-1l-5,-1l-5,-1l-3,-1l-1,-1l-1,-1l-1,-1l-1,-1l-1,-1l-2,-1l1,-1l1,-4l1,-1l1,-2l1,-4l1,-1l1,-4l1,-1l1,-4l1,-3l1,-2l1,-2l1,-3l1,-2l1,-4l1,-2l1,-1l1,1l1,-1l3,-1l2,-2l2,-2l3,-1l1,-1l1,-1l5,-1l2,1l3,1l2,1l2,1l4,1l1,1l1,1l2,1l2,1l2,1l4,1l1,1l2,1l4,1l2,2l3,1l3,1l2,1l3,1l1,1l3,2l3,1l2,1l3,1l2,1l1,1l2,1l3,1l5,3l1,1l1,1l1,3l1,2l1,1l1,1l1,1l2,-1l4,-1l2,1l1,4l1,2l-1,1l1,1l2,1l1,1l1,1l1,-2l7,1l2,2l-1,2l-1,1l-1,4l2,-1l2,1l4,1l2,1l1,1l4,2l3,1l1,1l4,2l1,3l2,6l1,3l1,4l1,3l1,3l1,3l1,2l1,3l1,5l1,2l2,5l1,4l-1,4l-1,4l-1,5l-1,4l-1,13l-1,1l-1,1l-1,1l-1,3l-1,1l-1,1l-3,1l-1,1l1,9l-1,2l-1,1l-1,1l-1,1l-1,1l-1,1l-1,1l-6,1l-6,1l-7,1l-4,1l-4,-1l-1,-1l-4,1l-6,1l-9,1l-12,1l-10,1l-7,-1l1,-7l1,-10l-1,-6l-1,-3l-1,-5l-1,-6l-1,-4l-1,-10l1,-4l1,-11l1,-5l1,-5l1,-5l1,-5l1,-3l1,-2l1,-1l1,-3l1,-1l2,-2l-2,-1l-2,-1l-2,-1l-3,-1l-1,-1l-3,1l-4,1l-1,1l-1,2l-1,1l-1,1l-1,1l-1,2l-1,2l-3,-1l-1,-1l-1,-1l1,-2ZM742,462l21,-1l35,-1l25,-1l10,-1l8,1l1,1l1,1l1,1l-1,1l1,1l-1,1l-1,1l-1,1l-1,1l-1,1l-1,1l-1,2l1,1l4,-1l10,1l2,1l-1,1l-1,-1l-1,1l1,1l1,1l-2,1l-1,1l-3,1l1,1l1,1l1,-1l-1,1l-1,1l1,2l-1,1l-1,-1l-1,1l-1,3l-1,-2l-1,2l1,1l1,-1l-1,3l-1,1l2,1l1,2l-1,1l-2,1l-1,2l-1,-1l1,3l-1,2l-1,1l-1,1l-1,-1l-1,-1l1,3l-1,1l-1,-1l1,1l-1,1l1,1l-1,1l1,-1l-1,1l1,2l-1,1l-1,4l-1,1l1,1l-1,-1l-2,1l1,1l-1,1l-2,1l-2,1l3,1l-1,1l-1,-1l-1,1l1,1l1,1l-1,1l-2,1l1,1l-1,-1l-2,1l2,1l-1,1l-1,1l1,1l1,1l-3,1l1,1l1,-1l1,2l-3,-1l-2,1l1,1l1,1l-1,1l-1,1l1,1l-1,1l1,1l1,-1l-1,-1l2,1l-1,1l-1,1l3,-1l-1,-1l1,1l-1,1l1,4l1,-1l-1,1l-1,4l-1,-1l-1,1l1,1l1,1l-1,1l-9,1l-38,1l-20,-1l-1,-14l1,-1l-2,1l-1,-1l-1,1l-1,-1l-1,1l-1,-1l-1,1l-1,-1l-1,-1l-1,-1l1,-15l-1,-36l-1,-6l-1,-7l-1,-6l-1,-7ZM830,523l1,-1l1,-1l1,-1l-1,-1l2,1l1,-1l1,-1l1,-4l-1,-1l1,-3l-1,1l1,-1l-1,-1l1,-1l-1,-1l1,-1l1,2l-1,-1l1,-3l1,2l1,-1l1,-1l1,-1l-1,-1l1,-1l7,-1l10,-1l15,-1l14,-1l1,1l1,1l1,1l-1,42l1,50l1,8l1,7l1,8l1,8l1,8l-1,3l-3,-1l-1,1l-1,-1l-5,-1l-1,1l-1,1l-1,1l-4,-1l-2,-1l-1,1l-4,1l-3,-1l-1,1l-1,-1l-1,-2l1,-1l-1,-1l-1,-1l-1,-2l-1,-1l-1,-1l-1,-1l-1,-2l1,-1l1,-4l1,-3l-1,-1l1,-1l-3,1l-18,1l-22,1l-3,-1l2,-1l-1,-1l-1,-1l1,-1l-1,-1l-1,-1l1,-1l2,-1l-1,-1l1,-1l-1,-1l1,-1l1,2l-1,-2l1,-3l2,-1l-3,-1l3,-1l1,-3l-1,-1l1,-1l1,-1l1,2l1,-3l1,-1l-1,-1l1,-1l2,-1l-2,-1l1,1l1,-1l1,-1l1,-1l-1,-1l-1,1l-2,-1l1,-1l1,-1l1,1l1,1l1,-3l1,-1l-1,-1l-2,-1l1,-1l-1,-1l-1,1l-1,-1l-1,-1l1,-1l1,1l1,-1l-2,-1l1,-1l1,-1l-1,1l-3,-1l1,-1l1,-1l-1,-1l-1,-1l1,-2l1,-1l-1,-2l-1,1l-1,1l-1,-1l1,-1l1,-2l-1,-1l-1,-1l1,-1l1,1l1,-1l1,-3l-1,-1l-1,1l1,-4l-1,-2l1,1l-1,1l-2,-1l2,-1l-1,-1l-1,1l-1,1l1,-1l-1,-2l1,-1l1,-1l-1,-1l-1,-1l1,-1l1,1l2,-1l-2,-1l1,-1l2,-1l-1,-1l1,-2l-1,-1l-1,-1l2,1l1,-1l-1,-1l3,-1l-1,-1l-1,-1l1,-1l1,1l1,-1l-1,-1l-2,-1ZM734,366l-1,1l-3,-1l-1,-1l-2,-1l-1,-1l-1,-1l-1,-1l1,-1l-1,-1l-1,-1l-1,-2l-1,-1l-1,-1l-1,1l1,-1l-1,-1l-1,-3l1,-1l-1,-1l-1,1l-1,-1l1,-1l36,-1l26,-1l18,-1l5,1l1,1l1,1l1,1l1,1l1,1l1,1l-1,1l-1,2l1,4l1,3l1,2l-1,1l1,2l1,1l1,2l1,1l1,1l1,1l1,1l1,1l1,1l1,1l1,1l1,1l2,1l1,1l1,1l1,1l1,2l1,6l1,1l1,1l1,-1l1,-1l1,-1l1,1l4,1l1,1l-1,2l-1,7l-1,3l-1,2l1,3l1,2l1,1l1,2l1,1l2,1l1,1l1,-1l1,1l-1,1l1,1l2,-1l1,1l1,1l2,1l1,1l1,1l1,1l1,1l1,1l-1,1l1,2l1,1l1,2l-1,1l-1,1l-1,1l1,1l1,1l1,2l1,1l1,2l1,1l1,-1l-1,-1l2,1l1,1l2,1l-1,1l-1,2l1,1l1,1l-2,1l1,1l-1,2l-1,2l-1,-1l-1,-1l-1,1l-1,3l-1,1l-1,-3l-1,1l1,1l1,4l-1,1l-2,1l1,1l-1,1l-1,1l2,1l-1,1l-1,1l-1,3l-10,1l-5,-1l1,-1l1,-1l1,-1l1,-2l1,-1l1,-1l1,-1l-1,-1l1,-1l-1,-1l-1,-1l-1,-1l1,-1l-9,1l-10,1l-25,1l-35,1l-21,-1l-1,-74l-1,-1l-1,1l-1,-1l-1,-1l-1,-2l-1,-1l1,-1l-1,-1l-1,-1l-1,-1l-1,-1l-1,-1l1,-1l1,-2l1,-1l1,-2l1,1l-1,-1l1,-1l-1,-1l-1,-1l1,-1ZM340,114l-1,-1l1,-1l-1,-4l-1,-2l1,-1l-1,-1l-1,-1l-1,-2l1,-5l1,-4l1,-5l1,-4l1,-5l1,-4l1,-2l1,1l6,1l3,1l5,1l5,1l6,1l3,1l6,1l6,1l6,1l3,1l6,1l6,1l7,1l4,1l6,1l6,1l8,1l4,1l7,1l8,1l8,1l4,1l8,1l9,1l8,1l5,1l11,1l9,1l10,1l11,1l6,1l12,1l6,1l-1,7l-1,12l-1,12l-1,11l-1,11l-1,12l-1,11l-1,13l-1,12l-1,9l-6,-1l-12,-1l-6,-1l-11,-1l-1,1l-1,-1l-10,-1l-10,-1l-4,-1l-9,-1l-9,-1l-9,-1l-4,-1l-7,-1l-9,-1l-8,-1l-5,-1l-7,-1l-6,-1l-2,1l-1,1l-1,7l-1,5l-1,-1l-1,-1l-1,-1l1,-1l-1,-1l-1,-1l-1,-2l-1,1l-1,1l-1,1l-1,1l1,1l-1,1l-1,-1l-1,-1l-2,1l-2,1l-1,-2l-1,-1l-1,1l-1,-1l-1,1l-1,-1l-1,-1l-2,1l-1,1l-1,1l-1,-1l-2,-1l-3,-1l-1,1l-1,1l-1,1l-1,1l-1,-2l-1,-1l-1,-3l1,-1l-1,-1l1,-1l-1,-1l-1,-3l-1,-1l-2,-1l-2,-1l-1,-2l1,-1l1,-1l-1,-2l-1,-1l-1,-3l-1,-2l1,-1l-1,-1l-1,-2l1,-1l-1,-3l1,-1l-1,-1l-1,-1l-1,-2l-1,1l-1,1l-1,1l-1,1l-1,-1l-1,1l-1,1l-1,-1l-1,-1l-1,-1l-1,-1l1,-1l1,-2l-1,-1l1,-2l1,-1l2,-1l-1,-1l1,-1l-1,-1l-1,-1l1,-1l1,-1l-1,-1l1,-1l1,-1l-1,-1l1,-1l1,-1l1,-2l1,-3l1,-1l-1,-3l-2,1l-1,-1l-1,-1l-1,-2l-2,-1l-1,-1l-1,-1l-1,-1l1,-1l-1,-2l-1,-1l-1,-2l-1,-2l-1,-2l-1,-1l1,-1l-1,-1l-1,-1l-2,-1l-1,-1l-1,-1l-1,-1l-1,-1l3,-1l-1,-1ZM583,359l1,1l20,1l23,1l34,1l66,1l1,1l1,1l1,1l3,-1l2,1l1,1l-1,1l1,1l-1,1l-1,-1l-1,3l-1,1l-1,1l1,2l1,1l1,1l1,1l1,1l-1,1l1,1l1,1l1,2l1,1l1,-1l1,1l1,1l-1,60l-85,-1l-32,-1l-12,-1l-25,-1l-8,-1l1,-15l1,-16l1,-15l1,-16ZM888,311l-1,-1l1,-4l1,-1l12,-1l11,-1l11,-1l10,-1l5,-1l5,1l1,4l1,8l1,8l1,8l1,9l1,9l1,9l1,9l1,9l-1,1l-1,1l1,1l1,1l-1,1l1,2l1,1l-1,1l-1,1l-2,1l-2,1l-1,1l-2,-1l-5,1l1,3l-1,2l-1,2l-1,1l-1,1l-1,3l-1,1l-2,1l-1,7l-2,1l-1,-1l-4,-1l-1,-1l1,-1l-1,-1l-2,-1l1,1l-1,2l-2,1l1,1l-2,1l1,2l-1,1l-1,1l-1,1l-1,-2l-1,1l-1,-1l-1,-1l-1,-1l-1,1l-1,1l-1,1l-1,1l-1,2l-1,1l-1,-2l-2,-1l-2,-1l-2,1l-2,-1l-1,-1l1,3l-1,1l-1,1l-1,-2l-2,1l-1,-1l-1,-1l-1,1l1,1l-1,2l-1,1l-1,-1l-1,-1l-1,-1l1,-1l1,1l-1,-1l1,-1l-1,-2l1,-1l1,-1l-1,-1l1,-1l1,-1l-1,1l-1,-1l1,-1l1,-2l-1,1l1,-1l1,-1l-1,1l1,-1l1,-1l1,-1l-1,-2l1,-1l2,-1l-1,-1l1,-1l1,-2l1,-1l1,-1l-1,-1l-1,-3l1,-1l-1,-1l-1,-1l-1,-3l-1,-1l1,-1l1,-1l-1,-1l-1,-2l1,-1l1,-1l-1,-7l-1,-10l-1,-12l-1,-12l-1,-11ZM701,196l-1,4l-1,1l-1,2l-1,1l-2,1l1,2l1,1l1,2l1,1l1,1l2,1l1,1l-1,51l-2,1l1,1l-1,3l1,1l-1,1l1,1l1,1l1,1l-1,2l-1,1l1,1l-1,1l-1,3l-1,2l1,2l1,1l1,2l1,3l-1,1l-1,-1l-1,-1l-1,-1l-1,-1l-1,-1l1,-1l-3,-1l-1,-1l-1,1l-1,-1l-1,-1l-3,-1l-1,-1l-2,-1l-1,1l-1,-1l-1,1l-7,-1l-1,1l-1,1l-1,1l-2,-1l-1,-1l-2,-1l-3,-1l-1,-1l-2,-1l-1,-1l-24,-1l-14,-1l-22,-1l-17,-1l-16,-1l-14,-1l-4,-1l1,-11l1,-12l1,-11l1,-21l1,-9l1,-13l1,-5l1,1l7,1l16,1l16,1l19,1l12,1l27,1ZM1206,244l-1,-1l-1,1l-4,1l-5,1l-5,1l-4,1l-2,1l-6,1l-6,1l-1,-1l1,-18l1,-2l4,-1l6,-1l4,-1l3,-1l5,-1l5,-1l6,-1l2,-1l3,-1l1,-1l1,-1l1,-1l1,-1l1,-1l1,-1l3,1l1,1l1,1l1,-1l3,1l1,1l-1,2l-1,2l1,4l1,4l1,2l8,-1l2,-1l1,1l3,1l1,1l1,1l1,1l1,1l1,3l-1,7l-1,2l-2,-1l1,-2l-1,-1l-1,1l-1,1l-3,1l-1,1l-1,1l1,1l2,1l1,1l1,-1l1,1l2,-1l1,-1l-1,-1l1,-1l1,1l2,1l1,1l1,1l-1,2l-1,1l-1,1l-4,-1l-2,-1l-1,1l-2,1l-1,-1l-2,1l-2,1l-1,1l-1,1l-1,-1l-1,-1l-1,-1l-3,-1l-1,-1l-1,-1l-1,-1l-1,-2l-1,-2l-1,-1l-1,-1l-1,-1l-1,-1l-1,-1l-1,-3l-2,1l-3,1l-2,1ZM1082,361l1,-1l1,-1l1,-1l1,-1l-1,-1l1,-1l1,-1l1,-1l-1,-1l1,-2l-1,-1l1,-1l-1,-4l3,1l1,1l2,1l1,1l2,1l2,1l2,-1l1,-3l1,-1l3,1l2,1l-1,1l1,2l1,1l2,-1l1,1l2,1l1,1l3,1l1,1l1,1l-1,3l-1,1l1,1l-1,1l-1,1l-1,1l-1,2l1,1l1,3l3,-1l1,-1l1,-1l1,1l1,3l1,2l7,1l2,1l1,1l2,1l3,1l4,-1l1,-2l3,2l1,-1l2,-1l1,-1l2,-1l1,-1l1,-1l4,-1l3,-1l-1,3l-1,3l-1,2l-1,-1l-1,2l-1,9l1,1l-1,1l-1,3l-1,6l-1,2l1,4l1,3l1,3l1,1l1,2l-2,1l-4,1l-5,1l-6,1l-2,1l-6,1l-6,1l-4,1l-6,1l-3,1l-6,1l-6,1l-6,1l-3,1l-6,1l-6,1l-7,1l-3,1l-7,1l-8,1l-9,1l-5,1l-10,1l-3,-1l-2,1l-4,1l-9,1l-4,1l-8,1l-7,1l-1,-1l-1,1l-7,-1l2,-1l4,-1l1,-1l2,-1l1,-1l1,-1l-1,-1l2,-1l1,1l1,-1l1,-1l1,-1l-1,-1l1,-1l1,-1l1,-1l1,-2l1,-1l1,-1l1,-1l1,-1l1,-1l2,-1l1,-1l1,-1l1,-1l1,-1l1,-1l1,-1l1,-1l1,-1l-1,1l1,1l1,2l-1,1l1,1l2,1l1,-1l1,1l1,1l1,1l1,-1l2,-1l1,-1l1,-1l1,-1l1,1l1,1l2,-1l2,-1l3,-1l1,-1l1,-1l-1,-1l2,1l1,-1l2,-1l1,-1l1,-1l1,1l2,-1l1,-1l1,-1l1,-1l-1,1l1,-2l1,-1l-1,-1l-1,-1l1,-1l-1,-1l1,-1l1,-1l-1,-1l1,-1l1,-1l1,-1l1,-4l-1,-1l1,-1l1,-2l1,-1l-1,-2l1,-1l1,-1l1,-2l-1,-1l1,-1l-1,-1l1,-1l2,1l1,1l1,1l3,1l1,-1l1,-1l1,-1l1,-4l1,-1l-1,-1l1,-2l1,-2l1,-1l1,1l1,1l1,-2ZM1116,353l1,-1l1,-1l1,1l1,1l1,1l-1,1l-1,1l-1,-1l-1,-1ZM701,288l-1,-1l-1,-1l1,-1l1,-2l1,-3l-1,-1l1,-1l1,-1l-1,-2l1,-1l-1,-1l-2,-1l1,-1l-1,-1l1,1l-1,-4l1,-2l53,-1l21,-1l28,-1l5,1l1,3l1,1l1,1l1,1l-1,1l-1,1l-1,2l1,2l1,4l1,2l1,2l1,1l1,1l2,1l3,1l1,1l1,1l-1,1l1,1l1,1l2,1l1,1l1,1l-1,1l1,1l1,1l2,1l1,1l1,1l1,1l-1,5l-1,2l-1,1l-1,2l-1,3l-1,1l-1,1l-2,1l-1,1l-2,1l-1,-1l-1,1l-4,1l-1,1l-1,3l1,1l1,1l1,1l1,1l-1,6l-1,1l-1,1l1,1l-1,1l-1,3l-1,1l-3,1l-1,1l1,1l-1,4l-2,-1l-1,-1l-1,-1l-1,-1l-1,-1l-1,-1l-4,1l-18,1l-26,1l-36,-1l-1,-1l-1,-1l-1,-1l1,-1l-1,-6l1,-5l-1,-1l-1,-1l1,-2l-1,-1l-1,-1l1,-1l-1,-2l-1,-1l-1,-1l-1,-9l1,-3l-2,-1l-1,-1l-1,-1l1,-1l-1,-1l-1,-1l-1,-3l-1,-2l1,-1l-1,-1l1,-1l-1,-1l-1,-1l-1,-2ZM281,518l-1,-1l-1,-1l1,-2l1,-3l-1,-1l1,-2l-1,-1l3,-1l1,-1l1,-1l1,-1l1,-2l-1,-1l1,-1l1,-4l1,-2l1,-1l1,-1l1,-2l2,-1l1,-1l2,-1l1,-1l-1,-3l-1,-1l-1,-1l-1,-1l1,-1l-1,-1l-1,-5l-1,-2l-1,-2l1,-6l1,-1l-1,-1l2,-1l-1,-8l1,-2l1,-9l1,-1l-1,-1l1,-6l5,1l1,-1l1,1l1,1l1,2l1,1l2,-1l1,-1l1,-2l1,-1l1,-4l1,-5l1,-6l1,-5l1,-2l1,1l5,1l6,1l2,1l7,1l6,1l7,1l4,1l7,1l5,1l8,1l7,1l4,1l7,1l6,1l8,1l4,1l8,1l6,1l-1,7l-1,7l-1,6l-1,7l-1,8l-1,6l-1,7l-1,8l-1,6l-1,8l-1,7l-1,6l-1,7l-1,8l-1,7l-1,6l-1,8l-1,7l-1,6l-1,7l-1,8l-1,6l-1,4l-6,-1l-7,-1l-8,-1l-4,-1l-8,-1l-7,-1l-7,-1l-1,-1l-2,-1l-2,-1l-2,-1l-1,-1l-2,-1l-2,-1l-2,-1l-1,-1l-2,-1l-2,-1l-2,-1l-1,-1l-2,-1l-1,-1l-2,-1l-2,-1l-1,-1l-2,-1l-2,-1l-2,-1l-1,-1l-2,-1l-3,-1l-2,-1l-1,-1l-1,-1l-2,-1l-2,-1l-2,-1l-1,-1l-2,-1l-1,-1l-1,-1l-2,-1l-2,-1l-2,-1l-1,-1l-2,-1l-2,-1l-1,-1l-2,-1l-1,-1l-2,-1l-3,-1l-2,-1l-1,-1l-1,-1l1,-1l1,-2l1,-1l1,-1l4,-1l1,-1l1,-1l1,-1l-1,-1l1,-1l-1,-1l-1,-1Z"/></g></svg>