<?xml version="1.0" encoding="utf-8"?>
<!-- Generator: Adobe Illustrator 20.1.0, SVG Export Plug-In . SVG Version: 6.00 Build 0)  -->
<svg version="1.1" id="Layer_1" xmlns="http://www.w3.org/2000/svg" xmlns:xlink="http://www.w3.org/1999/xlink" x="0px" y="0px"
	 viewBox="0 0 69.1 69.8" style="enable-background:new 0 0 69.1 69.8;" xml:space="preserve">
<g>
	<path d="M46.7,20.5L63,20.7l0.8-17l-5-0.2l-0.3,8.2c-0.1-0.1-0.1-0.2-0.2-0.2C52,5.2,43.7,1.8,34.9,1.8s-17.2,3.4-23.4,9.7
		c-6.3,6.3-9.7,14.6-9.7,23.4s3.4,17.2,9.7,23.4c6.3,6.3,14.6,9.7,23.4,9.7s17.2-3.4,23.4-9.7c4-4,6.9-9,8.4-14.4l0.7-2.4l-4.8-1.4
		l-0.7,2.4c-1.3,4.6-3.8,8.8-7.2,12.2c-11,11-28.8,11-39.8,0s-11-28.8,0-39.8s28.8-11,39.8,0c0.2,0.2,0.3,0.4,0.5,0.6l-8.4-0.1
		L46.7,20.5z"/>
</g>
</svg>
