<svg version="1.1" xmlns="http://www.w3.org/2000/svg" width="1000" height="564" viewBox="0 0 1000 564">  <path d="M32,444l6,4l-1,4l-7,-1l-5,-9ZM481,49l12,-5l6,-5l4,7l-1,-10l6,-6l1,2l14,-2l6,-5l3,-8l13,3l-4,6l5,3l2,-7l6,2v5l6,1l7,-4l10,1v7l6,1l-2,3l12,-2l1,1l-1,2v1l8,-6l10,1l16,4l14,-2l7,4l7,-1l6,-4l2,-2h10l5,2l14,4l1,1v2l2,5v1l1,3l1,4v1l1,4l1,2l1,4v2l2,3l1,6v3l1,4l2,4v3l3,11h1l5,18l1,3l1,4v2l1,1l1,6l1,1v1l1,4l1,2v3l1,3l1,4v2l1,1l2,6l1,4v3l1,3l1,1v2l1,2v2l1,1v2l1,4l1,2l2,6l1,5v1l1,3l2,4v4l2,6l1,7l1,4h1v1l2,6v1l1,2v3l2,6l1,2v1l1,2v2l1,2l1,4l1,3l1,4l2,8l1,3l2,5v2l4,16h1l7,-1h5l4,-5l9,-3l1,8l29,16l2,4l2,3v2h1l3,-5l3,-3l4,-3l1,-4v-6h1l-2,-4l1,-1h1l1,-2l1,-1l1,-1l4,-5l7,4v-1l3,6h2l-1,1l1,1l1,1l3,-1v1l7,3l1,2h1l2,3l5,1l3,1h1l1,2h2l5,3l-1,1l2,1l12,11l14,11l2,6l5,-1l1,4v1h5v2l2,2l5,-1l1,1h2l3,1h1l12,1l1,1l1,1h4l5,1v8l6,7l2,6l-1,14l-6,4l-8,-9v-9l-4,-10l-6,-1v-4l-10,11h3v9l-6,-4v-10l-3,-8l-9,-3v-4h-1v1l-10,-4l-1,-4l-11,2l-2,-6l-7,-11l-12,-8l-11,-3l-5,-5l-2,-4h-3l-3,-8l-4,-3l3,9l11,14v5l-13,-3v-1l-1,-2l-6,-3l-7,-1l11,7l1,5l-10,5l-21,-9l-6,-6h-7l-12,-5l-6,-3l2,-5l-4,-9l-2,8l-10,6l-13,-1l1,-7l-4,-1v6l-15,-1l-17,8l-6,-4l-10,-2v-3l-2,-6l-3,9l-10,-2l2,-5l-4,-2l-10,2l-6,-7l-10,7l-6,-8l-2,18l7,2l-4,6l-2,10l-10,-2l-6,7v4l-9,5l-10,12h-12l1,-6l6,-1l5,-9l-5,4l-6,-2l1,-10l4,-6l1,-9l-3,-5l14,-10l17,1l-14,-6l2,-3l-14,3l-2,5l-9,4v4l-6,9l-4,11l2,3l-6,10l-9,3l-1,6l-6,3l-1,7l13,4l1,6l-10,9l-1,8l-5,5l-8,1l-4,9l-11,6l-4,6v6l-9,5l-3,6l-5,-3l-3,7l-3,-2l-11,11l1,8l-9,3l-14,3l-13,11l-5,-2l-8,3l2,-5l-4,-2l-2,8l-6,3l2,4l-10,2l-2,-7l1,7l-14,5l2,-8l8,-2l12,-16l6,-4l14,-1l11,6l-4,-5l3,-10l8,-8l8,-2l4,-5l7,1l-1,-6l6,-9l9,-10l2,-16h3l-2,-9l8,-8l-1,-4l-16,8l-7,-5l-8,-1l5,8l-5,4l-3,-10l-7,-5v4l-6,-2l-3,-6l-7,5l-7,2l-6,6l-2,-4l1,-9l4,-2l-6,-1v-6l4,-5l-6,-14l-1,-6l-4,-5l1,9l-15,6l-10,-1l-6,-14l3,-6l7,-8l4,1l-1,5l6,-2l-5,-8l-12,1l-7,-3l1,-6l-7,1l-3,-8v-1l3,-8l-5,-5h7l-1,-7l11,-13l7,-3h5l3,5l-2,-11l15,-4l11,-11l2,1l12,-1l5,-7l-2,-15l-6,-8l6,1l3,-3l-3,-10l-5,5h-6l-9,6l-3,5l-1,-5l-3,3l-6,-5l-9,-1l-9,4l-13,-6l-4,-3l2,-7l-6,-6l10,-4l5,7l5,-4h-8l-7,-6l-11,-4l-6,-5l11,-8l12,-6l7,2l-1,-6l17,-6h8l-3,12l1,3l1,1l12,-1l9,3l5,-7l5,5l1,-3l-1,-4l-9,-1v-5l-8,-11l4,-1l2,9l6,6l5,-3l3,6l7,-1v-3l-6,-5l-8,2l-4,-3l3,-10l-17,-1l-7,-3v-9l-4,-7l-12,-13l-5,-2l-5,-7l3,-6l1,-10l21,1l7,-4l6,-7l1,-13ZM948,372l9,7l1,12l-13,-2l1,-5l-4,-6ZM931,372l-6,-7l9,3ZM922,381l10,3l4,6l-4,4l4,-2l10,5l5,13l-9,-2l-2,-1l-2,-4l-13,-1l2,-3l-3,-6l-4,-2l-4,-12l-7,1l-1,-4l8,-2l2,6ZM933,375l-3,4l-7,-3l2,-7ZM914,359l7,5l-5,3ZM928,403l6,7l7,5l-10,-4ZM902,366l-6,-9l14,-1l5,9l-8,-4l7,10l-8,3ZM913,380l3,-1l-3,9l-3,-7ZM900,367l5,11l-1,10l-6,-7l1,-7l-7,-4v-6ZM882,350l-5,-5l-4,-10l-5,-3l12,-1l9,8l-8,-1l9,5l3,6l-5,14l-3,-1ZM882,374l-5,-1v-6l-4,-5h-4l-1,-8l11,3l6,12l6,6l2,10h-4l-7,-11ZM854,352l-5,-11l7,-6l5,2l-1,4l-1,2l5,-6h7l7,17l-16,-4l6,6l-1,4l-7,-2ZM687,316h6l-7,7ZM680,321l3,2l-5,10l-7,7ZM612,387l5,2l-4,7l-11,3l-3,-5l6,-2l1,-6l5,4l1,-3ZM607,403h4l1,8h5l-3,5l-13,7l-10,15h-4l3,-9l-3,4l-6,-1v-7l-4,-2l1,-7l9,-4l4,7l-2,-14l11,2l-2,-6ZM432,487l5,4l-4,9l-10,-1l-3,5l-8,1l-1,-7l6,-7ZM446,247l5,3l-3,8h-4l-6,-7ZM439,254l5,4l-1,5l-9,-3ZM433,328l-3,5l-4,-1l-1,-6h-5l7,-5l-1,-2h11ZM410,327l5,5l-2,12l-13,-1l-7,-4l-2,-7l8,1ZM380,512l-1,4l8,-1l-5,4l4,2l-5,4l-12,3l-9,4l-1,-4l10,-1l2,-11ZM334,541l5,-9l9,-2l3,-8l7,2l-1,4l-10,4l-2,4ZM351,219l1,6l4,2l12,-2l4,9l14,6l-13,5l-7,-5l-1,-5l-6,-5l-8,3l-4,-8ZM315,306v4l7,6h-4l-5,-6ZM253,545l4,3h-6l-7,-4ZM243,535l-1,9l-19,-2l-4,-1h16ZM198,535l1,8l-11,2ZM171,530l8,5l-7,1Z"/><g class="districts"><path data-race-id="AK00" d="M692,40l1,1v2l2,5v1l1,3l1,4v1l1,4l1,2l1,4v2l2,3l1,6v3l1,4l2,4v3l3,11h1l5,18l1,3l1,4v2l1,1l1,6l1,1v1l1,4l1,2v3l1,3l1,4v2l1,1l2,6l1,4v3l1,3l1,1v2l1,2v2l1,1v2l1,4l1,2l2,6l1,5v1l1,3l2,4v4l2,6l1,7l1,4h1v1l2,6v1l1,2v3l2,6l1,2v1l1,2v2l1,2l1,4l1,3l1,4l2,8l1,3l2,5v2l4,16h1l7,-1h5l4,-5l9,-3l1,8l29,16l2,4l2,3v2h1l3,-5l3,-3l4,-3l1,-4v-6h1l-2,-4l1,-1h1l1,-2l1,-1l1,-1l4,-5l7,4v-1l3,6h2l-1,1l1,1l1,1l3,-1v1l7,3l1,2h1l2,3l5,1l3,1h1l1,2h2l5,3l-1,1l2,1l12,11l14,11l2,6l5,-1l1,4v1h5v2l2,2l5,-1l1,1h2l3,1h1l12,1l1,1l1,1h4l5,1v8l6,7l2,6l-1,14l-6,4l-8,-9v-9l-4,-10l-6,-1v-4l-10,11h3v9l-6,-4v-10l-3,-8l-9,-3v-4h-1v1l-10,-4l-1,-4l-11,2l-2,-6l-7,-11l-12,-8l-11,-3l-5,-5l-2,-4h-3l-3,-8l-4,-3l3,9l11,14v5l-13,-3v-1l-1,-2l-6,-3l-7,-1l11,7l1,5l-10,5l-21,-9l-6,-6h-7l-12,-5l-6,-3l2,-5l-4,-9l-2,8l-10,6l-13,-1l1,-7l-4,-1v6l-15,-1l-17,8l-6,-4l-10,-2v-3l-2,-6l-3,9l-10,-2l2,-5l-4,-2l-10,2l-6,-7l-10,7l-6,-8l-2,18l7,2l-4,6l-2,10l-10,-2l-6,7v4l-9,5l-10,12h-12l1,-6l6,-1l5,-9l-5,4l-6,-2l1,-10l4,-6l1,-9l-3,-5l14,-10l17,1l-14,-6l2,-3l-14,3l-2,5l-9,4v4l-6,9l-4,11l2,3l-6,10l-9,3l-1,6l-6,3l-1,7l13,4l1,6l-10,9l-1,8l-5,5l-8,1l-4,9l-11,6l-4,6v6l-9,5l-3,6l-5,-3l-3,7l-3,-2l-11,11l1,8l-9,3l-14,3l-13,11l-5,-2l-8,3l2,-5l-4,-2l-2,8l-6,3l2,4l-10,2l-2,-7l1,7l-14,5l2,-8l8,-2l12,-16l6,-4l14,-1l11,6l-4,-5l3,-10l8,-8l8,-2l4,-5l7,1l-1,-6l6,-9l9,-10l2,-16h3l-2,-9l8,-8l-1,-4l-16,8l-7,-5l-8,-1l5,8l-5,4l-3,-10l-7,-5v4l-6,-2l-3,-6l-7,5l-7,2l-6,6l-2,-4l1,-9l4,-2l-6,-1v-6l4,-5l-6,-14l-1,-6l-4,-5l1,9l-15,6l-10,-1l-6,-14l3,-6l7,-8l4,1l-1,5l6,-2l-5,-8l-12,1l-7,-3l1,-6l-7,1l-3,-8v-1l3,-8l-5,-5h7l-1,-7l11,-13l7,-3h5l3,5l-2,-11l15,-4l11,-11l2,1l12,-1l5,-7l-2,-15l-6,-8l6,1l3,-3l-3,-10l-5,5h-6l-9,6l-3,5l-1,-5l-3,3l-6,-5l-9,-1l-9,4l-13,-6l-4,-3l2,-7l-6,-6l10,-4l5,7l5,-4h-8l-7,-6l-11,-4l-6,-5l11,-8l12,-6l7,2l-1,-6l17,-6h8l-3,12l1,3l1,1l12,-1l9,3l5,-7l5,5l1,-3l-1,-4l-9,-1v-5l-8,-11l4,-1l2,9l6,6l5,-3l3,6l7,-1v-3l-6,-5l-8,2l-4,-3l3,-10l-17,-1l-7,-3v-9l-4,-7l-12,-13l-5,-2l-5,-7l3,-6l1,-10l21,1l7,-4l6,-7l1,-13l10,-10l12,-5l6,-5l4,7l-1,-10l6,-6l1,2l14,-2l6,-5l3,-8l13,3l-4,6l5,3l2,-7l6,2v5l6,1l7,-4l10,1v7l6,1l-2,3l12,-2l1,1l-1,2v1l8,-6l10,1l16,4l14,-2l7,4l7,-1l6,-4l2,-2h10l5,2ZM32,444l6,4l-1,4l-7,-1l-5,-9ZM948,372l9,7l1,12l-13,-2l1,-5l-4,-6ZM931,372l-6,-7l9,3ZM922,381l10,3l4,6l-4,4l4,-2l10,5l5,13l-9,-2l-2,-1l-2,-4l-13,-1l2,-3l-3,-6l-4,-2l-4,-12l-7,1l-1,-4l8,-2l2,6ZM933,375l-3,4l-7,-3l2,-7ZM914,359l7,5l-5,3ZM928,403l6,7l7,5l-10,-4ZM902,366l-6,-9l14,-1l5,9l-8,-4l7,10l-8,3ZM913,380l3,-1l-3,9l-3,-7ZM900,367l5,11l-1,10l-6,-7l1,-7l-7,-4v-6ZM882,350l-5,-5l-4,-10l-5,-3l12,-1l9,8l-8,-1l9,5l3,6l-5,14l-3,-1ZM882,374l-5,-1v-6l-4,-5h-4l-1,-8l11,3l6,12l6,6l2,10h-4l-7,-11ZM854,352l-5,-11l7,-6l5,2l-1,4l-1,2l5,-6h7l7,17l-16,-4l6,6l-1,4l-7,-2ZM687,316h6l-7,7ZM680,321l3,2l-5,10l-7,7ZM612,387l5,2l-4,7l-11,3l-3,-5l6,-2l1,-6l5,4l1,-3ZM607,403h4l1,8h5l-3,5l-13,7l-10,15h-4l3,-9l-3,4l-6,-1v-7l-4,-2l1,-7l9,-4l4,7l-2,-14l11,2l-2,-6ZM432,487l5,4l-4,9l-10,-1l-3,5l-8,1l-1,-7l6,-7ZM446,247l5,3l-3,8h-4l-6,-7ZM439,254l5,4l-1,5l-9,-3ZM433,328l-3,5l-4,-1l-1,-6h-5l7,-5l-1,-2h11ZM410,327l5,5l-2,12l-13,-1l-7,-4l-2,-7l8,1ZM380,512l-1,4l8,-1l-5,4l4,2l-5,4l-12,3l-9,4l-1,-4l10,-1l2,-11ZM334,541l5,-9l9,-2l3,-8l7,2l-1,4l-10,4l-2,4ZM351,219l1,6l4,2l12,-2l4,9l14,6l-13,5l-7,-5l-1,-5l-6,-5l-8,3l-4,-8ZM315,306v4l7,6h-4l-5,-6ZM253,545l4,3h-6l-7,-4ZM243,535l-1,9l-19,-2l-4,-1h16ZM198,535l1,8l-11,2ZM171,530l8,5l-7,1Z"/></g></svg>