<svg version="1.1" xmlns="http://www.w3.org/2000/svg" width="1000" height="564" viewBox="0 0 1000 564">
  <path d="M32 444
l 6 4
l -1 4
l -7 -1
l -5 -9
Z
M481 49
l 12 -5
l 6 -5
l 4 7
l -1 -10
l 6 -6
l 1 2
l 14 -2
l 6 -5
l 3 -8
l 13 3
l -4 6
l 5 3
l 2 -7
l 6 2
v 5
l 6 1
l 7 -4
l 10 1
v 7
l 6 1
l -2 3
l 12 -2
l 1 1
l -1 2
v 1
l 8 -6
l 10 1
l 16 4
l 14 -2
l 7 4
l 7 -1
l 6 -4
l 2 -2
h 10
l 5 2
l 14 4
l 1 1
v 2
l 2 5
v 1
l 1 3
l 1 4
v 1
l 1 4
l 1 2
l 1 4
v 2
l 2 3
l 1 6
v 3
l 1 4
l 2 4
v 3
l 3 11
h 1
l 5 18
l 1 3
l 1 4
v 2
l 1 1
l 1 6
l 1 1
v 1
l 1 4
l 1 2
v 3
l 1 3
l 1 4
v 2
l 1 1
l 2 6
l 1 4
v 3
l 1 3
l 1 1
v 2
l 1 2
v 2
l 1 1
v 2
l 1 4
l 1 2
l 2 6
l 1 5
v 1
l 1 3
l 2 4
v 4
l 2 6
l 1 7
l 1 4
h 1
v 1
l 2 6
v 1
l 1 2
v 3
l 2 6
l 1 2
v 1
l 1 2
v 2
l 1 2
l 1 4
l 1 3
l 1 4
l 2 8
l 1 3
l 2 5
v 2
l 4 16
h 1
l 7 -1
h 5
l 4 -5
l 9 -3
l 1 8
l 29 16
l 2 4
l 2 3
v 2
h 1
l 3 -5
l 3 -3
l 4 -3
l 1 -4
v -6
h 1
l -2 -4
l 1 -1
h 1
l 1 -2
l 1 -1
l 1 -1
l 4 -5
l 7 4
v -1
l 3 6
h 2
l -1 1
l 1 1
l 1 1
l 3 -1
v 1
l 7 3
l 1 2
h 1
l 2 3
l 5 1
l 3 1
h 1
l 1 2
h 2
l 5 3
l -1 1
l 2 1
l 12 11
l 14 11
l 2 6
l 5 -1
l 1 4
v 1
h 5
v 2
l 2 2
l 5 -1
l 1 1
h 2
l 3 1
h 1
l 12 1
l 1 1
l 1 1
h 4
l 5 1
v 8
l 6 7
l 2 6
l -1 14
l -6 4
l -8 -9
v -9
l -4 -10
l -6 -1
v -4
l -10 11
h 3
v 9
l -6 -4
v -10
l -3 -8
l -9 -3
v -4
h -1
v 1
l -10 -4
l -1 -4
l -11 2
l -2 -6
l -7 -11
l -12 -8
l -11 -3
l -5 -5
l -2 -4
h -3
l -3 -8
l -4 -3
l 3 9
l 11 14
v 5
l -13 -3
v -1
l -1 -2
l -6 -3
l -7 -1
l 11 7
l 1 5
l -10 5
l -21 -9
l -6 -6
h -7
l -12 -5
l -6 -3
l 2 -5
l -4 -9
l -2 8
l -10 6
l -13 -1
l 1 -7
l -4 -1
v 6
l -15 -1
l -17 8
l -6 -4
l -10 -2
v -3
l -2 -6
l -3 9
l -10 -2
l 2 -5
l -4 -2
l -10 2
l -6 -7
l -10 7
l -6 -8
l -2 18
l 7 2
l -4 6
l -2 10
l -10 -2
l -6 7
v 4
l -9 5
l -10 12
h -12
l 1 -6
l 6 -1
l 5 -9
l -5 4
l -6 -2
l 1 -10
l 4 -6
l 1 -9
l -3 -5
l 14 -10
l 17 1
l -14 -6
l 2 -3
l -14 3
l -2 5
l -9 4
v 4
l -6 9
l -4 11
l 2 3
l -6 10
l -9 3
l -1 6
l -6 3
l -1 7
l 13 4
l 1 6
l -10 9
l -1 8
l -5 5
l -8 1
l -4 9
l -11 6
l -4 6
v 6
l -9 5
l -3 6
l -5 -3
l -3 7
l -3 -2
l -11 11
l 1 8
l -9 3
l -14 3
l -13 11
l -5 -2
l -8 3
l 2 -5
l -4 -2
l -2 8
l -6 3
l 2 4
l -10 2
l -2 -7
l 1 7
l -14 5
l 2 -8
l 8 -2
l 12 -16
l 6 -4
l 14 -1
l 11 6
l -4 -5
l 3 -10
l 8 -8
l 8 -2
l 4 -5
l 7 1
l -1 -6
l 6 -9
l 9 -10
l 2 -16
h 3
l -2 -9
l 8 -8
l -1 -4
l -16 8
l -7 -5
l -8 -1
l 5 8
l -5 4
l -3 -10
l -7 -5
v 4
l -6 -2
l -3 -6
l -7 5
l -7 2
l -6 6
l -2 -4
l 1 -9
l 4 -2
l -6 -1
v -6
l 4 -5
l -6 -14
l -1 -6
l -4 -5
l 1 9
l -15 6
l -10 -1
l -6 -14
l 3 -6
l 7 -8
l 4 1
l -1 5
l 6 -2
l -5 -8
l -12 1
l -7 -3
l 1 -6
l -7 1
l -3 -8
v -1
l 3 -8
l -5 -5
h 7
l -1 -7
l 11 -13
l 7 -3
h 5
l 3 5
l -2 -11
l 15 -4
l 11 -11
l 2 1
l 12 -1
l 5 -7
l -2 -15
l -6 -8
l 6 1
l 3 -3
l -3 -10
l -5 5
h -6
l -9 6
l -3 5
l -1 -5
l -3 3
l -6 -5
l -9 -1
l -9 4
l -13 -6
l -4 -3
l 2 -7
l -6 -6
l 10 -4
l 5 7
l 5 -4
h -8
l -7 -6
l -11 -4
l -6 -5
l 11 -8
l 12 -6
l 7 2
l -1 -6
l 17 -6
h 8
l -3 12
l 1 3
l 1 1
l 12 -1
l 9 3
l 5 -7
l 5 5
l 1 -3
l -1 -4
l -9 -1
v -5
l -8 -11
l 4 -1
l 2 9
l 6 6
l 5 -3
l 3 6
l 7 -1
v -3
l -6 -5
l -8 2
l -4 -3
l 3 -10
l -17 -1
l -7 -3
v -9
l -4 -7
l -12 -13
l -5 -2
l -5 -7
l 3 -6
l 1 -10
l 21 1
l 7 -4
l 6 -7
l 1 -13
Z
M948 372
l 9 7
l 1 12
l -13 -2
l 1 -5
l -4 -6
Z
M931 372
l -6 -7
l 9 3
Z
M922 381
l 10 3
l 4 6
l -4 4
l 4 -2
l 10 5
l 5 13
l -9 -2
l -2 -1
l -2 -4
l -13 -1
l 2 -3
l -3 -6
l -4 -2
l -4 -12
l -7 1
l -1 -4
l 8 -2
l 2 6
Z
M933 375
l -3 4
l -7 -3
l 2 -7
Z
M914 359
l 7 5
l -5 3
Z
M928 403
l 6 7
l 7 5
l -10 -4
Z
M902 366
l -6 -9
l 14 -1
l 5 9
l -8 -4
l 7 10
l -8 3
Z
M913 380
l 3 -1
l -3 9
l -3 -7
Z
M900 367
l 5 11
l -1 10
l -6 -7
l 1 -7
l -7 -4
v -6
Z
M882 350
l -5 -5
l -4 -10
l -5 -3
l 12 -1
l 9 8
l -8 -1
l 9 5
l 3 6
l -5 14
l -3 -1
Z
M882 374
l -5 -1
v -6
l -4 -5
h -4
l -1 -8
l 11 3
l 6 12
l 6 6
l 2 10
h -4
l -7 -11
Z
M854 352
l -5 -11
l 7 -6
l 5 2
l -1 4
l -1 2
l 5 -6
h 7
l 7 17
l -16 -4
l 6 6
l -1 4
l -7 -2
Z
M687 316
h 6
l -7 7
Z
M680 321
l 3 2
l -5 10
l -7 7
Z
M612 387
l 5 2
l -4 7
l -11 3
l -3 -5
l 6 -2
l 1 -6
l 5 4
l 1 -3
Z
M607 403
h 4
l 1 8
h 5
l -3 5
l -13 7
l -10 15
h -4
l 3 -9
l -3 4
l -6 -1
v -7
l -4 -2
l 1 -7
l 9 -4
l 4 7
l -2 -14
l 11 2
l -2 -6
Z
M432 487
l 5 4
l -4 9
l -10 -1
l -3 5
l -8 1
l -1 -7
l 6 -7
Z
M446 247
l 5 3
l -3 8
h -4
l -6 -7
Z
M439 254
l 5 4
l -1 5
l -9 -3
Z
M433 328
l -3 5
l -4 -1
l -1 -6
h -5
l 7 -5
l -1 -2
h 11
Z
M410 327
l 5 5
l -2 12
l -13 -1
l -7 -4
l -2 -7
l 8 1
Z
M380 512
l -1 4
l 8 -1
l -5 4
l 4 2
l -5 4
l -12 3
l -9 4
l -1 -4
l 10 -1
l 2 -11
Z
M334 541
l 5 -9
l 9 -2
l 3 -8
l 7 2
l -1 4
l -10 4
l -2 4
Z
M351 219
l 1 6
l 4 2
l 12 -2
l 4 9
l 14 6
l -13 5
l -7 -5
l -1 -5
l -6 -5
l -8 3
l -4 -8
Z
M315 306
v 4
l 7 6
h -4
l -5 -6
Z
M253 545
l 4 3
h -6
l -7 -4
Z
M243 535
l -1 9
l -19 -2
l -4 -1
h 16
Z
M198 535
l 1 8
l -11 2
Z
M171 530
l 8 5
l -7 1
Z"/>
<g class="districts">
<path data-race-id="AK00" d="M692 40
l 1 1
v 2
l 2 5
v 1
l 1 3
l 1 4
v 1
l 1 4
l 1 2
l 1 4
v 2
l 2 3
l 1 6
v 3
l 1 4
l 2 4
v 3
l 3 11
h 1
l 5 18
l 1 3
l 1 4
v 2
l 1 1
l 1 6
l 1 1
v 1
l 1 4
l 1 2
v 3
l 1 3
l 1 4
v 2
l 1 1
l 2 6
l 1 4
v 3
l 1 3
l 1 1
v 2
l 1 2
v 2
l 1 1
v 2
l 1 4
l 1 2
l 2 6
l 1 5
v 1
l 1 3
l 2 4
v 4
l 2 6
l 1 7
l 1 4
h 1
v 1
l 2 6
v 1
l 1 2
v 3
l 2 6
l 1 2
v 1
l 1 2
v 2
l 1 2
l 1 4
l 1 3
l 1 4
l 2 8
l 1 3
l 2 5
v 2
l 4 16
h 1
l 7 -1
h 5
l 4 -5
l 9 -3
l 1 8
l 29 16
l 2 4
l 2 3
v 2
h 1
l 3 -5
l 3 -3
l 4 -3
l 1 -4
v -6
h 1
l -2 -4
l 1 -1
h 1
l 1 -2
l 1 -1
l 1 -1
l 4 -5
l 7 4
v -1
l 3 6
h 2
l -1 1
l 1 1
l 1 1
l 3 -1
v 1
l 7 3
l 1 2
h 1
l 2 3
l 5 1
l 3 1
h 1
l 1 2
h 2
l 5 3
l -1 1
l 2 1
l 12 11
l 14 11
l 2 6
l 5 -1
l 1 4
v 1
h 5
v 2
l 2 2
l 5 -1
l 1 1
h 2
l 3 1
h 1
l 12 1
l 1 1
l 1 1
h 4
l 5 1
v 8
l 6 7
l 2 6
l -1 14
l -6 4
l -8 -9
v -9
l -4 -10
l -6 -1
v -4
l -10 11
h 3
v 9
l -6 -4
v -10
l -3 -8
l -9 -3
v -4
h -1
v 1
l -10 -4
l -1 -4
l -11 2
l -2 -6
l -7 -11
l -12 -8
l -11 -3
l -5 -5
l -2 -4
h -3
l -3 -8
l -4 -3
l 3 9
l 11 14
v 5
l -13 -3
v -1
l -1 -2
l -6 -3
l -7 -1
l 11 7
l 1 5
l -10 5
l -21 -9
l -6 -6
h -7
l -12 -5
l -6 -3
l 2 -5
l -4 -9
l -2 8
l -10 6
l -13 -1
l 1 -7
l -4 -1
v 6
l -15 -1
l -17 8
l -6 -4
l -10 -2
v -3
l -2 -6
l -3 9
l -10 -2
l 2 -5
l -4 -2
l -10 2
l -6 -7
l -10 7
l -6 -8
l -2 18
l 7 2
l -4 6
l -2 10
l -10 -2
l -6 7
v 4
l -9 5
l -10 12
h -12
l 1 -6
l 6 -1
l 5 -9
l -5 4
l -6 -2
l 1 -10
l 4 -6
l 1 -9
l -3 -5
l 14 -10
l 17 1
l -14 -6
l 2 -3
l -14 3
l -2 5
l -9 4
v 4
l -6 9
l -4 11
l 2 3
l -6 10
l -9 3
l -1 6
l -6 3
l -1 7
l 13 4
l 1 6
l -10 9
l -1 8
l -5 5
l -8 1
l -4 9
l -11 6
l -4 6
v 6
l -9 5
l -3 6
l -5 -3
l -3 7
l -3 -2
l -11 11
l 1 8
l -9 3
l -14 3
l -13 11
l -5 -2
l -8 3
l 2 -5
l -4 -2
l -2 8
l -6 3
l 2 4
l -10 2
l -2 -7
l 1 7
l -14 5
l 2 -8
l 8 -2
l 12 -16
l 6 -4
l 14 -1
l 11 6
l -4 -5
l 3 -10
l 8 -8
l 8 -2
l 4 -5
l 7 1
l -1 -6
l 6 -9
l 9 -10
l 2 -16
h 3
l -2 -9
l 8 -8
l -1 -4
l -16 8
l -7 -5
l -8 -1
l 5 8
l -5 4
l -3 -10
l -7 -5
v 4
l -6 -2
l -3 -6
l -7 5
l -7 2
l -6 6
l -2 -4
l 1 -9
l 4 -2
l -6 -1
v -6
l 4 -5
l -6 -14
l -1 -6
l -4 -5
l 1 9
l -15 6
l -10 -1
l -6 -14
l 3 -6
l 7 -8
l 4 1
l -1 5
l 6 -2
l -5 -8
l -12 1
l -7 -3
l 1 -6
l -7 1
l -3 -8
v -1
l 3 -8
l -5 -5
h 7
l -1 -7
l 11 -13
l 7 -3
h 5
l 3 5
l -2 -11
l 15 -4
l 11 -11
l 2 1
l 12 -1
l 5 -7
l -2 -15
l -6 -8
l 6 1
l 3 -3
l -3 -10
l -5 5
h -6
l -9 6
l -3 5
l -1 -5
l -3 3
l -6 -5
l -9 -1
l -9 4
l -13 -6
l -4 -3
l 2 -7
l -6 -6
l 10 -4
l 5 7
l 5 -4
h -8
l -7 -6
l -11 -4
l -6 -5
l 11 -8
l 12 -6
l 7 2
l -1 -6
l 17 -6
h 8
l -3 12
l 1 3
l 1 1
l 12 -1
l 9 3
l 5 -7
l 5 5
l 1 -3
l -1 -4
l -9 -1
v -5
l -8 -11
l 4 -1
l 2 9
l 6 6
l 5 -3
l 3 6
l 7 -1
v -3
l -6 -5
l -8 2
l -4 -3
l 3 -10
l -17 -1
l -7 -3
v -9
l -4 -7
l -12 -13
l -5 -2
l -5 -7
l 3 -6
l 1 -10
l 21 1
l 7 -4
l 6 -7
l 1 -13
l 10 -10
l 12 -5
l 6 -5
l 4 7
l -1 -10
l 6 -6
l 1 2
l 14 -2
l 6 -5
l 3 -8
l 13 3
l -4 6
l 5 3
l 2 -7
l 6 2
v 5
l 6 1
l 7 -4
l 10 1
v 7
l 6 1
l -2 3
l 12 -2
l 1 1
l -1 2
v 1
l 8 -6
l 10 1
l 16 4
l 14 -2
l 7 4
l 7 -1
l 6 -4
l 2 -2
h 10
l 5 2
Z
M32 444
l 6 4
l -1 4
l -7 -1
l -5 -9
Z
M948 372
l 9 7
l 1 12
l -13 -2
l 1 -5
l -4 -6
Z
M931 372
l -6 -7
l 9 3
Z
M922 381
l 10 3
l 4 6
l -4 4
l 4 -2
l 10 5
l 5 13
l -9 -2
l -2 -1
l -2 -4
l -13 -1
l 2 -3
l -3 -6
l -4 -2
l -4 -12
l -7 1
l -1 -4
l 8 -2
l 2 6
Z
M933 375
l -3 4
l -7 -3
l 2 -7
Z
M914 359
l 7 5
l -5 3
Z
M928 403
l 6 7
l 7 5
l -10 -4
Z
M902 366
l -6 -9
l 14 -1
l 5 9
l -8 -4
l 7 10
l -8 3
Z
M913 380
l 3 -1
l -3 9
l -3 -7
Z
M900 367
l 5 11
l -1 10
l -6 -7
l 1 -7
l -7 -4
v -6
Z
M882 350
l -5 -5
l -4 -10
l -5 -3
l 12 -1
l 9 8
l -8 -1
l 9 5
l 3 6
l -5 14
l -3 -1
Z
M882 374
l -5 -1
v -6
l -4 -5
h -4
l -1 -8
l 11 3
l 6 12
l 6 6
l 2 10
h -4
l -7 -11
Z
M854 352
l -5 -11
l 7 -6
l 5 2
l -1 4
l -1 2
l 5 -6
h 7
l 7 17
l -16 -4
l 6 6
l -1 4
l -7 -2
Z
M687 316
h 6
l -7 7
Z
M680 321
l 3 2
l -5 10
l -7 7
Z
M612 387
l 5 2
l -4 7
l -11 3
l -3 -5
l 6 -2
l 1 -6
l 5 4
l 1 -3
Z
M607 403
h 4
l 1 8
h 5
l -3 5
l -13 7
l -10 15
h -4
l 3 -9
l -3 4
l -6 -1
v -7
l -4 -2
l 1 -7
l 9 -4
l 4 7
l -2 -14
l 11 2
l -2 -6
Z
M432 487
l 5 4
l -4 9
l -10 -1
l -3 5
l -8 1
l -1 -7
l 6 -7
Z
M446 247
l 5 3
l -3 8
h -4
l -6 -7
Z
M439 254
l 5 4
l -1 5
l -9 -3
Z
M433 328
l -3 5
l -4 -1
l -1 -6
h -5
l 7 -5
l -1 -2
h 11
Z
M410 327
l 5 5
l -2 12
l -13 -1
l -7 -4
l -2 -7
l 8 1
Z
M380 512
l -1 4
l 8 -1
l -5 4
l 4 2
l -5 4
l -12 3
l -9 4
l -1 -4
l 10 -1
l 2 -11
Z
M334 541
l 5 -9
l 9 -2
l 3 -8
l 7 2
l -1 4
l -10 4
l -2 4
Z
M351 219
l 1 6
l 4 2
l 12 -2
l 4 9
l 14 6
l -13 5
l -7 -5
l -1 -5
l -6 -5
l -8 3
l -4 -8
Z
M315 306
v 4
l 7 6
h -4
l -5 -6
Z
M253 545
l 4 3
h -6
l -7 -4
Z
M243 535
l -1 9
l -19 -2
l -4 -1
h 16
Z
M198 535
l 1 8
l -11 2
Z
M171 530
l 8 5
l -7 1
Z"/>
</g>

</svg>