<svg version="1.1" xmlns="http://www.w3.org/2000/svg" width="633" height="1000" viewBox="0 0 633 1000"><path data-race-id="AL01" d="M16,680h64l1,6l6,-5l11,21l11,-11h9v-11l-12,-7l1,-5l10,-1l12,-4l4,8l7,-2l-2,8l-9,7h4l3,5l7,4l-2,9l-9,3l-3,-4l-8,4l1,11l-8,-5l-2,10l-2,1l-3,10l5,16l-6,10l-6,-1l1,8l-6,3l8,2l2,4l-3,7l5,1l8,-2l6,-5l-1,-7l3,-5l6,2l-2,-6l6,2l-3,-7l5,-7l1,6l5,-1l-1,-7l4,-5l7,-5l10,4l5,-5l2,-10l-10,-6l10,-8v-28h8v-20l2,-7h47v1h53l1,15l-5,1l-9,6l-13,2v7l-4,4l-8,2l-1,9l-3,6l-2,10l-6,11l-4,1l-8,9l-3,1l-11,17l-10,7l-1,4h111v13l11,1v38l2,1h-4l-1,-1h-125l-5,-1v1h-8v-1h-11v3h1v7l-1,2l-3,7v1l-3,5v1l-1,1h1l1,1v3h1v1l1,1h-1l2,1h1v3h2l1,1l1,1h1l1,1v1h1l1,1v1h1v3l2,1v3l1,1v1l2,1l1,1l1,1l1,1h1v1h2l1,1v1h2v1h3l1,2h2v1h1l1,1h1l1,1v1l1,2v1l1,2v6l-1,1l-1,1v3l-1,1v2h-1v3l-4,4v2h-1v4h1v1h1l1,2v1h-1l6,13l-9,4l-2,8l-8,4l-5,6h-7l-3,-9l-3,1l3,6l-4,4l10,2v4l-16,4l-18,2l-7,2h-34l8,-2l3,-5l7,5l12,-3h7l8,-9l-12,-6l-5,-8l3,-5l-1,-4l-5,7l-9,-6l-2,-13l-3,-2l6,-11l-2,-9v-14l-3,-11l2,-8l-6,1l-9,6l4,-10l-5,4v7l-3,7l-1,-13l4,-6h-1l1,-1l3,-2h-3l-4,9l1,18h-4l1,8l-6,8l-4,-7l1,7l4,6l-4,6l-1,25l-2,6l-6,5l-7,2l2,-10l-5,1l-8,-5l-17,-4l-6,3l-1,-9v-39l-1,-4v-24l-1,-2v-40l-1,-17v-9l-1,-23v-11l-1,-13v-4l-1,-48v-1ZM102,876l-2,8l-2,-7h-3l3,-7h5ZM72,962l5,6l-23,-1l15,-1Z"/><path data-race-id="AL02" d="M279,671l-1,-15v-27h85v-17l-1,-31l5,-4h1v1h1v1l3,-4l8,4l-1,-18l2,2l3,3l2,-1l4,-1v-7h-9l-5,-9l-17,7l-2,8l-8,3l2,-10l-3,-2l-7,1l-1,-6l-13,-2l1,-5l-7,1v5l-4,3l-7,-3v-6l-4,3l-6,-1l1,11l-3,5h-5l1,-6l1,-5l-6,-6l3,-4l-9,-11l-3,-11v-12l-3,-15l11,1h23v-9h50v-9l6,-1h82l1,3l-5,13l4,4l-1,7l1,25l2,8l-17,2l-8,5l-6,2l-15,-3l-7,-3l1,2l1,1l-1,1l2,3l-4,5h8l-3,3l2,5l-5,11l12,10l1,15l7,-3l5,5h7v-21l2,-4l11,-1l4,-4l4,3v1l-1,2v3l1,1l2,1l1,1h55l15,-1l2,18l2,-1h26l9,11l3,6l22,-1v6l1,2v2l-2,2v2h-1v4h1v1h-1v1h-2l-1,1l1,1v3l-1,1v1l-1,1h-1v2h-1l-1,1h1v1l-1,1h1v1h-1l-1,1h-3l1,1l1,1v1h-1l-1,1v5l-1,1h1v2l1,1v1l1,1h-1v5h-1v2l2,1v4h1v7h-1v3h1v3h2v2h1v1h1v1h1v1h1v1h2v1h-1v1h-1v2h2v1h1v1h1l2,4v1l2,10v7l-2,3l-3,6l2,8l-5,15l1,9l-1,4h-1l-2,1l3,10l-2,9l2,2v3l6,4l2,5l4,8l3,6l1,9h-23v1h-1l-1,-1l-2,1h-74l-3,1h-45l-4,1h-133l-2,-1v-38l-11,-1v-13h-111l1,-4l10,-7l11,-17l3,-1l8,-9l4,-1l6,-11l2,-10l3,-6l1,-9l8,-2l4,-4v-7l13,-2l9,-6Z"/><path data-race-id="AL03" d="M373,247v-6l2,-3l5,-9h4l2,3l10,-4l5,5v5l2,3l2,5l6,-1l1,8l5,-1l1,5l11,-4l5,-11l11,2v-7l13,-1l13,2v-6l1,-5l-11,-21l2,-6l-9,3v-26l6,1v-4h6l13,-14l4,-7h4l1,-7l3,2l1,9l5,6l5,-3l2,3l10,-6v3l1,1l1,3v4l1,4v5l2,4v6l1,7l1,2l1,7l1,5v3l1,1v1l1,5v3l1,3l1,7v1l1,3v2l1,4v5l1,3l1,4v4h1v6l2,5v6l1,1v3l1,6l1,3v3l1,3l3,20l1,3v2l1,4v1l1,3v1l1,5v3l1,2v2l1,9l1,3l4,22v3l1,3v3l2,11l1,3v4l1,1l1,3v6l1,2v3l1,4v1l1,2v5l1,1v4l1,3v2l1,1v6l1,1v3l5,3l-1,9l7,6l-2,6l3,4l1,9l4,5l-3,1l5,9l4,9l9,9v1l1,5v2l-1,2v1h1v1h1l2,1l2,2v3l-2,2v1l2,3l-1,1h-1l-1,1l2,1v1h-2v2l-4,6l3,2l1,1h2l1,1h1v1h2l2,1l2,2v1l2,2l2,1l1,1l2,1h-3l-2,2v3h-1v2l-2,1l-4,1l-1,-1l-2,1v2h2l-1,3h-1l-2,1l-1,1h-1l-5,4l-2,3l-1,1h-1l-1,1l1,3v1l1,1l1,4l-1,2v2l-1,1l-22,1l-3,-6l-9,-11h-26l-2,1l-2,-18l-15,1h-55l-1,-1l-2,-1l-1,-1v-3l1,-2v-1l-4,-3l-4,4l-11,1l-2,4v21h-7l-5,-5l-7,3l-1,-15l-12,-10l5,-11l-2,-5l3,-3h-8l4,-5l-2,-3l1,-1l-1,-1l-1,-2l7,3l15,3l6,-2l8,-5l17,-2l-2,-8l-1,-25l1,-7l-4,-4l5,-13l-1,-3h-20v-8l-1,-4v-57h-71l-9,1l5,-6l-7,-8l2,-6l4,1l2,-10l3,1v-6h7l6,-4l-1,-11l4,-1l-7,-7l1,-23h-18v-9h-6l-5,-2v-12l4,-7v-13l-3,-8h-5v-8h9l8,-4h7Z"/><path data-race-id="AL04" d="M57,287l5,-45l1,-1v-3l4,-25l1,-20l4,-29l1,-4l1,-10v-8l1,-1l4,-32v-4l3,-18v-1l1,-5l3,-34l12,-2l14,11l3,9l16,15h10l7,-7l20,-8l2,-2l11,-2l5,3l9,3h13l8,10l6,-1l8,-1l10,6l8,9l-1,12v33l-1,28l3,1h37l1,1h46v-17l5,-30l2,8l7,5h11l6,-8l6,-1l3,3l5,-14l-2,-4h-2h30v13l8,4l8,1l5,5l8,-3l2,-2l7,-7l20,-16l14,-22l6,-3l5,-9l1,-8l7,-5v1l1,4v3l1,2v5l2,7v4l1,2v2l1,2v3l1,1v4l3,13v4l1,2v2l1,1v5l1,3v4l1,1v2h1v6l1,3l1,4v2l1,2l1,8l-10,6l-2,-3l-5,3l-5,-6l-1,-9l-3,-2l-1,7h-4l-4,7l-13,14h-6v4l-6,-1v26l9,-3l-2,6l11,21l-1,5v6l-13,-2l-13,1v7l-11,-2l-5,11l-11,4l-1,-5l-5,1l-1,-8l-6,1l-2,-5l-2,-3v-5l-5,-5l-10,4l-2,-3h-4l-5,9l-6,-2l4,-6v-12l-12,-4l-1,-2h-1l4,-9l-12,-9h-8l-7,-2l-6,10l-9,2l-2,5h-6v10l-9,7l-5,10l-6,-1l-10,7l-6,1v9l-7,2l2,8l-3,6l-9,3l-3,8v9l-3,6h-5v5h-9l-9,7l-2,11h-5l-4,5l-5,5l-6,-1l-2,5l10,5l6,6l2,10l6,3l-9,15l2,5l-11,5h-9l-4,-2v-5l-2,-4l-5,4h-10l-6,6l-7,1l1,-4l-6,-1l-1,-4l-7,-1l2,13h-5l-1,6l-8,4l-2,-3l-8,7l-10,-2v-76h-18l-19,-2l-34,-1l3,-28Z"/><path data-race-id="AL05" d="M73,25h32l28,1h33l24,1h38l2,1h33l7,1h179l15,1h27l2,9v6h1v8h1v2l-7,5l-1,8l-5,9l-6,3l-14,22l-20,16l-7,7l-2,2l-8,3l-5,-5l-8,-1l-8,-4v-13h-30h2l2,4l-5,14l-3,-3l-6,1l-6,8h-11l-7,-5l-2,-8l-5,30v17h-46l-1,-1h-37l-3,-1l1,-28v-33l1,-12l-8,-9l-10,-6l-8,1l-6,1l-8,-10h-13l-9,-3l-5,-3l-11,2l-2,2l-20,8l-7,7h-10l-16,-15l-3,-9l-14,-11l-12,2h-1l-2,-1l-3,-2l-3,-2v-2l-3,-6l-2,-3l-1,-2v-1l-1,-1v-2Z"/><path data-race-id="AL06" d="M194,423l17,-1l1,-17l5,-8l14,1v-13l8,-8l7,3l7,-5h6l9,-2v-1l6,-8h-4l4,-10l7,-2l3,3l3,-5l-1,-5l7,-13l5,-2l6,-12l6,1l7,-11l-2,-4h8l-1,-7l-3,-6l-7,5h-1l-9,11l-5,3l-4,-4l-4,2l-2,-9h-3l-3,7l-5,4l5,1v4h-12l-1,5l7,3l-5,10l-1,10l-7,8l-2,-4l-11,10l-12,-1l-3,3l-3,-4l-6,-3l-2,-10l-6,-6l-10,-5l2,-5l6,1l5,-5l4,-5h5l2,-11l9,-7h9v-5h5l3,-6v-9l3,-8l9,-3l3,-6l-2,-8l7,-2v-9l6,-1l10,-7l6,1l5,-10l9,-7v-10h6l2,-5l9,-2l6,-10l7,2h8l12,9l-4,9h1l1,2l12,4v12l-4,6l6,2l-2,3v6l-15,14h-7l-8,4h-9v8h5l3,8v13l-4,7v12l5,2h6v9h18l-1,23l7,7l-4,1l1,11l-6,4h-7v6l-3,-1l-2,10l-4,-1l-2,6l7,8l-5,6l9,-1h71v57l1,4v8h-62l-6,1v9h-50v9h-23l-11,-1h-17v-34h-33l-17,1v-8h-16Z"/><path data-race-id="AL07" d="M16,633l1,-1l2,-20v-1l3,-25v-1l4,-26l3,-24v-5l5,-42v-2l3,-25v-3l4,-34l3,-31l3,-20l6,-50v-1l1,-6l34,1l19,2h18v76l10,2l8,-7l2,3l8,-4l1,-6h5l-2,-13l7,1l1,4l6,1l-1,4l7,-1l6,-6h10l5,-4l2,4v5l4,2h9l11,-5l-2,-5l9,-15l3,4l3,-3l12,1l11,-10l2,4l7,-8l1,-10l5,-10l-7,-3l1,-5h12v-4l-5,-1l5,-4l3,-7h3l2,9l4,-2l4,4l5,-3l9,-11h1l7,-5l3,6l1,7h-8l2,4l-7,11l-6,-1l-6,12l-5,2l-7,13l1,5l-3,5l-3,-3l-7,2l-4,10h4l-6,8v1l-9,2h-6l-7,5l-7,-3l-8,8v13l-14,-1l-5,8l-1,17l-17,1v26h16v8l17,-1h33v34h17l3,15v12l3,11l9,11l-3,4l6,6l-1,5l-1,6h5l3,-5l-1,-11l6,1l4,-3v6l7,3l4,-3v-5l7,-1l-1,5l13,2l1,6l7,-1l3,2l-2,10l8,-3l2,-8l17,-7l5,9h9v7l-4,1l-2,1l-3,-3l-2,-2l1,18l-8,-4l-3,4v-1h-1v-1h-1l-5,4l1,31v17h-85v27h-53v-1h-47l-2,7v20h-8v28l-10,8l10,6l-2,10l-5,5l-10,-4l-7,5l-4,5l1,7l-5,1l-1,-6l-5,7l3,7l-6,-2l2,6l-6,-2l-3,5l1,7l-6,5l-8,2l-5,-1l3,-7l-2,-4l-8,-2l6,-3l-1,-8l6,1l6,-10l-5,-16l3,-10l2,-1l2,-10l8,5l-1,-11l8,-4l3,4l9,-3l2,-9l-7,-4l-3,-5h-4l9,-7l2,-8l-7,2l-4,-8l-12,4l-10,1l-1,5l12,7v11h-9l-11,11l-11,-21l-6,5l-1,-6h-64v-24l-1,-7l1,-15Z"/>  <path class="mesh" d="M16,680h64l1,6l6,-5l11,21l11,-11h9v-11l-12,-7l1,-5l10,-1l12,-4l4,8l7,-2l-2,8l-9,7h4l3,5l7,4l-2,9l-9,3l-3,-4l-8,4l1,11l-8,-5l-2,10l-2,1l-3,10l5,16l-6,10l-6,-1l1,8l-6,3l8,2l2,4l-3,7l5,1l8,-2l6,-5l-1,-7l3,-5l6,2l-2,-6l6,2l-3,-7l5,-7l1,6l5,-1l-1,-7l4,-5l7,-5l10,4l5,-5l2,-10l-10,-6l10,-8v-28h8v-20l2,-7h47v1h53l1,15l-5,1l-9,6l-13,2v7l-4,4l-8,2l-1,9l-3,6l-2,10l-6,11l-4,1l-8,9l-3,1l-11,17l-10,7l-1,4h111v13l11,1v38l2,1M278,656v-27h85v-17l-1,-31l5,-4h1v1h1v1l3,-4l8,4l-1,-18l2,2l3,3l2,-1l4,-1v-7h-9l-5,-9l-17,7l-2,8l-8,3l2,-10l-3,-2l-7,1l-1,-6l-13,-2l1,-5l-7,1v5l-4,3l-7,-3v-6l-4,3l-6,-1l1,11l-3,5h-5l1,-6l1,-5l-6,-6l3,-4l-9,-11l-3,-11v-12l-3,-15l11,1h23v-9h50v-9l6,-1h82l1,3l-5,13l4,4l-1,7l1,25l2,8l-17,2l-8,5l-6,2l-15,-3l-7,-3l1,2l1,1l-1,1l2,3l-4,5h8l-3,3l2,5l-5,11l12,10l1,15l7,-3l5,5h7v-21l2,-4l11,-1l4,-4l4,3v1l-1,2v3l1,1l2,1l1,1h55l15,-1l2,18l2,-1h26l9,11l3,6l22,-1M429,472v-8l-1,-4v-57h-71l-9,1l5,-6l-7,-8l2,-6l4,1l2,-10l3,1v-6h7l6,-4l-1,-11l4,-1l-7,-7l1,-23h-18v-9h-6l-5,-2v-12l4,-7v-13l-3,-8h-5v-8h9l8,-4h7l15,-14v-6l2,-3l5,-9h4l2,3l10,-4l5,5v5l2,3l2,5l6,-1l1,8l5,-1l1,5l11,-4l5,-11l11,2v-7l13,-1l13,2v-6l1,-5l-11,-21l2,-6l-9,3v-26l6,1v-4h6l13,-14l4,-7h4l1,-7l3,2l1,9l5,6l5,-3l2,3l10,-6M86,47l12,-2l14,11l3,9l16,15h10l7,-7l20,-8l2,-2l11,-2l5,3l9,3h13l8,10l6,-1l8,-1l10,6l8,9l-1,12v33l-1,28l3,1h37l1,1h46v-17l5,-30l2,8l7,5h11l6,-8l6,-1l3,3l5,-14l-2,-4h-2h30v13l8,4l8,1l5,5l8,-3l2,-2l7,-7l20,-16l14,-22l6,-3l5,-9l1,-8l7,-5M375,238l-6,-2l4,-6v-12l-12,-4l-1,-2h-1l4,-9l-12,-9h-8l-7,-2l-6,10l-9,2l-2,5h-6v10l-9,7l-5,10l-6,-1l-10,7l-6,1v9l-7,2l2,8l-3,6l-9,3l-3,8v9l-3,6h-5v5h-9l-9,7l-2,11h-5l-4,5l-5,5l-6,-1l-2,5l10,5l6,6l2,10l6,3l-9,15l2,5l-11,5h-9l-4,-2v-5l-2,-4l-5,4h-10l-6,6l-7,1l1,-4l-6,-1l-1,-4l-7,-1l2,13h-5l-1,6l-8,4l-2,-3l-8,7l-10,-2v-76h-18l-19,-2l-34,-1M277,490h-17v-34h-33l-17,1v-8h-16v-26l17,-1l1,-17l5,-8l14,1v-13l8,-8l7,3l7,-5h6l9,-2v-1l6,-8h-4l4,-10l7,-2l3,3l3,-5l-1,-5l7,-13l5,-2l6,-12l6,1l7,-11l-2,-4h8l-1,-7l-3,-6l-7,5h-1l-9,11l-5,3l-4,-4l-4,2l-2,-9h-3l-3,7l-5,4l5,1v4h-12l-1,5l7,3l-5,10l-1,10l-7,8l-2,-4l-11,10l-12,-1l-3,3l-3,-4"/></svg>