<svg version="1.1" xmlns="http://www.w3.org/2000/svg" width="633" height="1000" viewBox="0 0 633 1000">
  <path d="M292 29
h 157
l 15 1
h 27
l 2 9
v 6
h 1
v 8
h 1
v 3
l 1 4
v 3
l 1 2
v 5
l 2 7
v 4
l 1 2
v 2
l 1 2
v 3
l 1 1
v 4
l 3 13
v 4
l 1 2
v 2
l 1 1
v 5
l 1 3
v 4
l 1 1
v 2
h 1
v 6
l 1 3
l 1 4
v 2
l 1 2
l 1 8
v 3
l 1 1
l 1 3
v 4
l 1 4
v 5
l 2 4
v 6
l 1 7
l 1 2
l 1 7
l 1 5
v 3
l 1 1
v 1
l 1 5
v 3
l 1 3
l 1 7
v 1
l 1 3
v 2
l 1 4
v 5
l 1 3
l 1 4
v 4
h 1
v 6
l 2 5
v 6
l 1 1
v 3
l 1 6
l 1 3
v 3
l 1 3
l 3 20
l 1 3
v 2
l 1 4
v 1
l 1 3
v 1
l 1 5
v 3
l 1 2
v 2
l 1 9
l 1 3
l 4 22
v 3
l 1 3
v 3
l 2 11
l 1 3
v 4
l 1 1
l 1 3
v 6
l 1 2
v 3
l 1 4
v 1
l 1 2
v 5
l 1 1
v 4
l 1 3
v 2
l 1 1
v 6
l 1 1
v 3
l 6 4
l -2 7
l 7 8
l -2 5
l 3 4
l 1 9
l 4 5
l -3 2
l 5 8
v 3
l 12 12
l 1 3
v 1
l 1 5
v 2
l -1 2
v 1
h 1
v 1
h 1
l 2 1
l 2 2
v 3
l -2 2
v 1
l 2 3
l -1 1
h -1
l -1 1
l 2 1
v 1
h -2
v 2
l -4 5
l 3 3
l 1 1
h 2
l 1 1
h 1
v 1
h 2
l 2 1
l 2 2
v 1
l 2 2
l 2 1
l 1 1
l 2 1
h -3
l -2 2
v 3
h -1
v 2
l -2 1
l -4 1
l -1 -1
l -2 1
v 2
h 2
l -1 3
h -1
l -2 1
l -1 1
h -1
l -5 4
l -2 3
l -1 1
h -1
l -1 1
l 1 3
v 1
l 1 1
l 1 4
l -1 2
v 2
l -1 1
v 6
l 1 2
v 2
l -2 2
v 2
h -1
v 4
h 1
v 1
h -1
v 1
h -2
l -1 1
l 1 1
v 3
l -1 1
v 1
l -1 1
h -1
v 2
h -1
l -1 1
h 1
v 1
l -1 1
h 1
v 1
h -1
l -1 1
h -3
l 1 1
l 1 1
v 1
h -1
l -1 1
v 5
l -1 1
h 1
v 2
l 1 1
v 1
l 1 1
h -1
v 5
h -1
v 2
l 2 1
v 4
h 1
v 7
h -1
v 3
h 1
v 3
h 2
v 2
h 1
v 1
h 1
v 1
h 1
v 1
h 1
v 1
h 2
v 1
h -1
v 1
h -1
v 2
h 2
v 1
h 1
v 1
h 1
l 2 4
v 1
l 2 10
v 7
l -2 3
l -3 6
l 2 8
l -5 13
l 1 11
l -1 4
h -1
l -2 6
l 3 5
l -2 9
l 2 2
v 3
l 6 4
l 2 5
l 4 8
l 3 6
l 1 9
h -23
v 1
h -1
l -1 -1
l -2 1
h -74
l -3 1
h -45
l -4 1
h -137
l -1 -1
h -125
l -5 -1
v 1
h -8
v -1
h -11
v 3
h 1
v 7
l -1 2
l -3 7
v 1
l -3 5
v 1
l -1 1
h 1
l 1 1
v 3
h 1
v 1
l 1 1
h -1
l 2 1
h 1
v 3
h 2
l 1 1
l 1 1
h 1
l 1 1
v 1
h 1
l 1 1
v 1
h 1
v 3
l 2 1
v 3
l 1 1
v 1
l 2 1
l 1 1
l 1 1
l 1 1
h 1
v 1
h 2
l 1 1
v 1
h 2
v 1
h 3
l 1 2
h 2
v 1
h 1
l 1 1
h 1
l 1 1
v 1
l 1 2
v 1
l 1 2
v 6
l -1 1
l -1 1
v 3
l -1 1
v 2
h -1
v 3
l -4 4
v 2
h -1
v 4
h 1
v 1
h 1
l 1 2
v 1
h -1
l 6 13
l -9 4
l -2 8
l -8 4
l -5 6
h -7
l -3 -9
l -3 1
l 3 6
l -4 4
l 10 2
v 4
l -16 4
l -18 2
l -7 2
h -34
l 8 -2
l 3 -5
l 7 5
l 12 -3
h 7
l 8 -9
l -12 -6
l -5 -8
l 3 -5
l -1 -4
l -5 7
l -9 -6
l -2 -13
l -3 -2
l 6 -11
l -2 -9
v -14
l -3 -11
l 2 -8
l -6 1
l -9 6
l 4 -10
l -5 4
v 7
l -3 7
l -1 -13
l 4 -6
h -1
l 1 -1
l 3 -2
h -3
l -4 9
l 1 18
h -4
l 1 8
l -6 8
l -4 -7
l 1 7
l 4 6
l -4 6
l -1 25
l -2 6
l -6 5
l -7 2
l 2 -10
l -5 1
l -8 -5
l -17 -4
l -6 3
l -1 -9
v -39
l -1 -4
v -24
l -1 -2
v -40
l -1 -17
v -9
l -1 -23
v -11
l -1 -13
v -4
l -1 -48
v -1
l -1 -15
v -24
l -1 -7
l 1 -15
v -1
l 1 -1
l 2 -20
v -1
l 3 -25
v -1
l 4 -26
l 3 -24
v -5
l 5 -42
v -2
l 3 -25
v -3
l 4 -34
l 3 -31
l 3 -20
l 6 -50
v -1
l 1 -6
l 3 -28
v -1
l 5 -45
l 1 -1
v -3
l 4 -25
l 1 -20
l 4 -29
l 1 -4
l 1 -10
v -8
l 1 -1
l 4 -32
v -4
l 3 -18
v -1
l 1 -5
l 3 -34
h -1
l -2 -1
l -3 -2
l -3 -2
v -2
l -3 -6
l -2 -3
l -1 -2
v -1
l -1 -1
v -2
h 35
l 28 1
h 33
l 24 1
h 38
l 2 1
h 30
l 10 1
h 20
Z
M102 876
l -2 8
l -2 -7
h -3
l 3 -7
h 5
Z
M72 962
l 5 6
l -23 -1
l 15 -1
Z"/>
<g class="districts">
<path data-race-id="AL01" d="M16 680
h 64
l 1 6
l 6 -5
l 11 21
l 11 -11
h 9
v -11
l -12 -7
l 1 -5
l 10 -1
l 12 -4
l 4 8
l 7 -2
l -2 8
l -9 7
h 4
l 3 5
l 7 4
l -2 9
l -9 3
l -3 -4
l -8 4
l 1 11
l -8 -5
l -2 10
l -2 1
l -3 10
l 5 16
l -6 10
l -6 -1
l 1 8
l -6 3
l 8 2
l 2 4
l -3 7
l 5 1
l 8 -2
l 6 -5
l -1 -7
l 3 -5
l 6 2
l -2 -6
l 6 2
l -3 -7
l 5 -7
l 1 6
l 5 -1
l -1 -7
l 4 -5
l 7 -5
l 10 4
l 5 -5
l 2 -10
l -10 -6
l 10 -8
v -28
h 8
v -20
l 2 -7
h 47
v 1
h 53
l 1 15
l -5 1
l -9 6
l -13 2
v 7
l -4 4
l -8 2
l -1 9
l -3 6
l -2 10
l -6 11
l -4 1
l -8 9
l -3 1
l -11 17
l -10 7
l -1 4
h 111
v 13
l 11 1
v 38
l 2 1
h -4
l -1 -1
h -125
l -5 -1
v 1
h -8
v -1
h -11
v 3
h 1
v 7
l -1 2
l -3 7
v 1
l -3 5
v 1
l -1 1
h 1
l 1 1
v 3
h 1
v 1
l 1 1
h -1
l 2 1
h 1
v 3
h 2
l 1 1
l 1 1
h 1
l 1 1
v 1
h 1
l 1 1
v 1
h 1
v 3
l 2 1
v 3
l 1 1
v 1
l 2 1
l 1 1
l 1 1
l 1 1
h 1
v 1
h 2
l 1 1
v 1
h 2
v 1
h 3
l 1 2
h 2
v 1
h 1
l 1 1
h 1
l 1 1
v 1
l 1 2
v 1
l 1 2
v 6
l -1 1
l -1 1
v 3
l -1 1
v 2
h -1
v 3
l -4 4
v 2
h -1
v 4
h 1
v 1
h 1
l 1 2
v 1
h -1
l 6 13
l -9 4
l -2 8
l -8 4
l -5 6
h -7
l -3 -9
l -3 1
l 3 6
l -4 4
l 10 2
v 4
l -16 4
l -18 2
l -7 2
h -34
l 8 -2
l 3 -5
l 7 5
l 12 -3
h 7
l 8 -9
l -12 -6
l -5 -8
l 3 -5
l -1 -4
l -5 7
l -9 -6
l -2 -13
l -3 -2
l 6 -11
l -2 -9
v -14
l -3 -11
l 2 -8
l -6 1
l -9 6
l 4 -10
l -5 4
v 7
l -3 7
l -1 -13
l 4 -6
h -1
l 1 -1
l 3 -2
h -3
l -4 9
l 1 18
h -4
l 1 8
l -6 8
l -4 -7
l 1 7
l 4 6
l -4 6
l -1 25
l -2 6
l -6 5
l -7 2
l 2 -10
l -5 1
l -8 -5
l -17 -4
l -6 3
l -1 -9
v -39
l -1 -4
v -24
l -1 -2
v -40
l -1 -17
v -9
l -1 -23
v -11
l -1 -13
v -4
l -1 -48
v -1
Z
M102 876
l -2 8
l -2 -7
h -3
l 3 -7
h 5
Z
M72 962
l 5 6
l -23 -1
l 15 -1
Z"/>
<path data-race-id="AL02" d="M279 671
l -1 -15
v -27
h 85
v -17
l -1 -31
l 5 -4
h 1
v 1
h 1
v 1
l 3 -4
l 8 4
l -1 -18
l 2 2
l 3 3
l 2 -1
l 4 -1
v -7
h -9
l -5 -9
l -17 7
l -2 8
l -8 3
l 2 -10
l -3 -2
l -7 1
l -1 -6
l -13 -2
l 1 -5
l -7 1
v 5
l -4 3
l -7 -3
v -6
l -4 3
l -6 -1
l 1 11
l -3 5
h -5
l 1 -6
l 1 -5
l -6 -6
l 3 -4
l -9 -11
l -3 -11
v -12
l -3 -15
l 11 1
h 23
v -9
h 50
v -9
l 6 -1
h 82
l 1 3
l -5 13
l 4 4
l -1 7
l 1 25
l 2 8
l -17 2
l -8 5
l -6 2
l -15 -3
l -7 -3
l 1 2
l 1 1
l -1 1
l 2 3
l -4 5
h 8
l -3 3
l 2 5
l -5 11
l 12 10
l 1 15
l 7 -3
l 5 5
h 7
v -21
l 2 -4
l 11 -1
l 4 -4
l 4 3
v 1
l -1 2
v 3
l 1 1
l 2 1
l 1 1
h 55
l 15 -1
l 2 18
l 2 -1
h 26
l 9 11
l 3 6
l 22 -1
v 6
l 1 2
v 2
l -2 2
v 2
h -1
v 4
h 1
v 1
h -1
v 1
h -2
l -1 1
l 1 1
v 3
l -1 1
v 1
l -1 1
h -1
v 2
h -1
l -1 1
h 1
v 1
l -1 1
h 1
v 1
h -1
l -1 1
h -3
l 1 1
l 1 1
v 1
h -1
l -1 1
v 5
l -1 1
h 1
v 2
l 1 1
v 1
l 1 1
h -1
v 5
h -1
v 2
l 2 1
v 4
h 1
v 7
h -1
v 3
h 1
v 3
h 2
v 2
h 1
v 1
h 1
v 1
h 1
v 1
h 1
v 1
h 2
v 1
h -1
v 1
h -1
v 2
h 2
v 1
h 1
v 1
h 1
l 2 4
v 1
l 2 10
v 7
l -2 3
l -3 6
l 2 8
l -5 15
l 1 9
l -1 4
h -1
l -2 1
l 3 10
l -2 9
l 2 2
v 3
l 6 4
l 2 5
l 4 8
l 3 6
l 1 9
h -23
v 1
h -1
l -1 -1
l -2 1
h -74
l -3 1
h -45
l -4 1
h -133
l -2 -1
v -38
l -11 -1
v -13
h -111
l 1 -4
l 10 -7
l 11 -17
l 3 -1
l 8 -9
l 4 -1
l 6 -11
l 2 -10
l 3 -6
l 1 -9
l 8 -2
l 4 -4
v -7
l 13 -2
l 9 -6
Z"/>
<path data-race-id="AL03" d="M373 247
v -6
l 2 -3
l 5 -9
h 4
l 2 3
l 10 -4
l 5 5
v 5
l 2 3
l 2 5
l 6 -1
l 1 8
l 5 -1
l 1 5
l 11 -4
l 5 -11
l 11 2
v -7
l 13 -1
l 13 2
v -6
l 1 -5
l -11 -21
l 2 -6
l -9 3
v -26
l 6 1
v -4
h 6
l 13 -14
l 4 -7
h 4
l 1 -7
l 3 2
l 1 9
l 5 6
l 5 -3
l 2 3
l 10 -6
v 3
l 1 1
l 1 3
v 4
l 1 4
v 5
l 2 4
v 6
l 1 7
l 1 2
l 1 7
l 1 5
v 3
l 1 1
v 1
l 1 5
v 3
l 1 3
l 1 7
v 1
l 1 3
v 2
l 1 4
v 5
l 1 3
l 1 4
v 4
h 1
v 6
l 2 5
v 6
l 1 1
v 3
l 1 6
l 1 3
v 3
l 1 3
l 3 20
l 1 3
v 2
l 1 4
v 1
l 1 3
v 1
l 1 5
v 3
l 1 2
v 2
l 1 9
l 1 3
l 4 22
v 3
l 1 3
v 3
l 2 11
l 1 3
v 4
l 1 1
l 1 3
v 6
l 1 2
v 3
l 1 4
v 1
l 1 2
v 5
l 1 1
v 4
l 1 3
v 2
l 1 1
v 6
l 1 1
v 3
l 5 3
l -1 9
l 7 6
l -2 6
l 3 4
l 1 9
l 4 5
l -3 1
l 5 9
l 4 9
l 9 9
v 1
l 1 5
v 2
l -1 2
v 1
h 1
v 1
h 1
l 2 1
l 2 2
v 3
l -2 2
v 1
l 2 3
l -1 1
h -1
l -1 1
l 2 1
v 1
h -2
v 2
l -4 6
l 3 2
l 1 1
h 2
l 1 1
h 1
v 1
h 2
l 2 1
l 2 2
v 1
l 2 2
l 2 1
l 1 1
l 2 1
h -3
l -2 2
v 3
h -1
v 2
l -2 1
l -4 1
l -1 -1
l -2 1
v 2
h 2
l -1 3
h -1
l -2 1
l -1 1
h -1
l -5 4
l -2 3
l -1 1
h -1
l -1 1
l 1 3
v 1
l 1 1
l 1 4
l -1 2
v 2
l -1 1
l -22 1
l -3 -6
l -9 -11
h -26
l -2 1
l -2 -18
l -15 1
h -55
l -1 -1
l -2 -1
l -1 -1
v -3
l 1 -2
v -1
l -4 -3
l -4 4
l -11 1
l -2 4
v 21
h -7
l -5 -5
l -7 3
l -1 -15
l -12 -10
l 5 -11
l -2 -5
l 3 -3
h -8
l 4 -5
l -2 -3
l 1 -1
l -1 -1
l -1 -2
l 7 3
l 15 3
l 6 -2
l 8 -5
l 17 -2
l -2 -8
l -1 -25
l 1 -7
l -4 -4
l 5 -13
l -1 -3
h -20
v -8
l -1 -4
v -57
h -71
l -9 1
l 5 -6
l -7 -8
l 2 -6
l 4 1
l 2 -10
l 3 1
v -6
h 7
l 6 -4
l -1 -11
l 4 -1
l -7 -7
l 1 -23
h -18
v -9
h -6
l -5 -2
v -12
l 4 -7
v -13
l -3 -8
h -5
v -8
h 9
l 8 -4
h 7
Z"/>
<path data-race-id="AL04" d="M57 287
l 5 -45
l 1 -1
v -3
l 4 -25
l 1 -20
l 4 -29
l 1 -4
l 1 -10
v -8
l 1 -1
l 4 -32
v -4
l 3 -18
v -1
l 1 -5
l 3 -34
l 12 -2
l 14 11
l 3 9
l 16 15
h 10
l 7 -7
l 20 -8
l 2 -2
l 11 -2
l 5 3
l 9 3
h 13
l 8 10
l 6 -1
l 8 -1
l 10 6
l 8 9
l -1 12
v 33
l -1 28
l 3 1
h 37
l 1 1
h 46
v -17
l 5 -30
l 2 8
l 7 5
h 11
l 6 -8
l 6 -1
l 3 3
l 5 -14
l -2 -4
h -2
h 30
v 13
l 8 4
l 8 1
l 5 5
l 8 -3
l 2 -2
l 7 -7
l 20 -16
l 14 -22
l 6 -3
l 5 -9
l 1 -8
l 7 -5
v 1
l 1 4
v 3
l 1 2
v 5
l 2 7
v 4
l 1 2
v 2
l 1 2
v 3
l 1 1
v 4
l 3 13
v 4
l 1 2
v 2
l 1 1
v 5
l 1 3
v 4
l 1 1
v 2
h 1
v 6
l 1 3
l 1 4
v 2
l 1 2
l 1 8
l -10 6
l -2 -3
l -5 3
l -5 -6
l -1 -9
l -3 -2
l -1 7
h -4
l -4 7
l -13 14
h -6
v 4
l -6 -1
v 26
l 9 -3
l -2 6
l 11 21
l -1 5
v 6
l -13 -2
l -13 1
v 7
l -11 -2
l -5 11
l -11 4
l -1 -5
l -5 1
l -1 -8
l -6 1
l -2 -5
l -2 -3
v -5
l -5 -5
l -10 4
l -2 -3
h -4
l -5 9
l -6 -2
l 4 -6
v -12
l -12 -4
l -1 -2
h -1
l 4 -9
l -12 -9
h -8
l -7 -2
l -6 10
l -9 2
l -2 5
h -6
v 10
l -9 7
l -5 10
l -6 -1
l -10 7
l -6 1
v 9
l -7 2
l 2 8
l -3 6
l -9 3
l -3 8
v 9
l -3 6
h -5
v 5
h -9
l -9 7
l -2 11
h -5
l -4 5
l -5 5
l -6 -1
l -2 5
l 10 5
l 6 6
l 2 10
l 6 3
l -9 15
l 2 5
l -11 5
h -9
l -4 -2
v -5
l -2 -4
l -5 4
h -10
l -6 6
l -7 1
l 1 -4
l -6 -1
l -1 -4
l -7 -1
l 2 13
h -5
l -1 6
l -8 4
l -2 -3
l -8 7
l -10 -2
v -76
h -18
l -19 -2
l -34 -1
l 3 -28
Z"/>
<path data-race-id="AL05" d="M73 25
h 32
l 28 1
h 33
l 24 1
h 38
l 2 1
h 33
l 7 1
h 179
l 15 1
h 27
l 2 9
v 6
h 1
v 8
h 1
v 2
l -7 5
l -1 8
l -5 9
l -6 3
l -14 22
l -20 16
l -7 7
l -2 2
l -8 3
l -5 -5
l -8 -1
l -8 -4
v -13
h -30
h 2
l 2 4
l -5 14
l -3 -3
l -6 1
l -6 8
h -11
l -7 -5
l -2 -8
l -5 30
v 17
h -46
l -1 -1
h -37
l -3 -1
l 1 -28
v -33
l 1 -12
l -8 -9
l -10 -6
l -8 1
l -6 1
l -8 -10
h -13
l -9 -3
l -5 -3
l -11 2
l -2 2
l -20 8
l -7 7
h -10
l -16 -15
l -3 -9
l -14 -11
l -12 2
h -1
l -2 -1
l -3 -2
l -3 -2
v -2
l -3 -6
l -2 -3
l -1 -2
v -1
l -1 -1
v -2
Z"/>
<path data-race-id="AL06" d="M194 423
l 17 -1
l 1 -17
l 5 -8
l 14 1
v -13
l 8 -8
l 7 3
l 7 -5
h 6
l 9 -2
v -1
l 6 -8
h -4
l 4 -10
l 7 -2
l 3 3
l 3 -5
l -1 -5
l 7 -13
l 5 -2
l 6 -12
l 6 1
l 7 -11
l -2 -4
h 8
l -1 -7
l -3 -6
l -7 5
h -1
l -9 11
l -5 3
l -4 -4
l -4 2
l -2 -9
h -3
l -3 7
l -5 4
l 5 1
v 4
h -12
l -1 5
l 7 3
l -5 10
l -1 10
l -7 8
l -2 -4
l -11 10
l -12 -1
l -3 3
l -3 -4
l -6 -3
l -2 -10
l -6 -6
l -10 -5
l 2 -5
l 6 1
l 5 -5
l 4 -5
h 5
l 2 -11
l 9 -7
h 9
v -5
h 5
l 3 -6
v -9
l 3 -8
l 9 -3
l 3 -6
l -2 -8
l 7 -2
v -9
l 6 -1
l 10 -7
l 6 1
l 5 -10
l 9 -7
v -10
h 6
l 2 -5
l 9 -2
l 6 -10
l 7 2
h 8
l 12 9
l -4 9
h 1
l 1 2
l 12 4
v 12
l -4 6
l 6 2
l -2 3
v 6
l -15 14
h -7
l -8 4
h -9
v 8
h 5
l 3 8
v 13
l -4 7
v 12
l 5 2
h 6
v 9
h 18
l -1 23
l 7 7
l -4 1
l 1 11
l -6 4
h -7
v 6
l -3 -1
l -2 10
l -4 -1
l -2 6
l 7 8
l -5 6
l 9 -1
h 71
v 57
l 1 4
v 8
h -62
l -6 1
v 9
h -50
v 9
h -23
l -11 -1
h -17
v -34
h -33
l -17 1
v -8
h -16
Z"/>
<path data-race-id="AL07" d="M16 633
l 1 -1
l 2 -20
v -1
l 3 -25
v -1
l 4 -26
l 3 -24
v -5
l 5 -42
v -2
l 3 -25
v -3
l 4 -34
l 3 -31
l 3 -20
l 6 -50
v -1
l 1 -6
l 34 1
l 19 2
h 18
v 76
l 10 2
l 8 -7
l 2 3
l 8 -4
l 1 -6
h 5
l -2 -13
l 7 1
l 1 4
l 6 1
l -1 4
l 7 -1
l 6 -6
h 10
l 5 -4
l 2 4
v 5
l 4 2
h 9
l 11 -5
l -2 -5
l 9 -15
l 3 4
l 3 -3
l 12 1
l 11 -10
l 2 4
l 7 -8
l 1 -10
l 5 -10
l -7 -3
l 1 -5
h 12
v -4
l -5 -1
l 5 -4
l 3 -7
h 3
l 2 9
l 4 -2
l 4 4
l 5 -3
l 9 -11
h 1
l 7 -5
l 3 6
l 1 7
h -8
l 2 4
l -7 11
l -6 -1
l -6 12
l -5 2
l -7 13
l 1 5
l -3 5
l -3 -3
l -7 2
l -4 10
h 4
l -6 8
v 1
l -9 2
h -6
l -7 5
l -7 -3
l -8 8
v 13
l -14 -1
l -5 8
l -1 17
l -17 1
v 26
h 16
v 8
l 17 -1
h 33
v 34
h 17
l 3 15
v 12
l 3 11
l 9 11
l -3 4
l 6 6
l -1 5
l -1 6
h 5
l 3 -5
l -1 -11
l 6 1
l 4 -3
v 6
l 7 3
l 4 -3
v -5
l 7 -1
l -1 5
l 13 2
l 1 6
l 7 -1
l 3 2
l -2 10
l 8 -3
l 2 -8
l 17 -7
l 5 9
h 9
v 7
l -4 1
l -2 1
l -3 -3
l -2 -2
l 1 18
l -8 -4
l -3 4
v -1
h -1
v -1
h -1
l -5 4
l 1 31
v 17
h -85
v 27
h -53
v -1
h -47
l -2 7
v 20
h -8
v 28
l -10 8
l 10 6
l -2 10
l -5 5
l -10 -4
l -7 5
l -4 5
l 1 7
l -5 1
l -1 -6
l -5 7
l 3 7
l -6 -2
l 2 6
l -6 -2
l -3 5
l 1 7
l -6 5
l -8 2
l -5 -1
l 3 -7
l -2 -4
l -8 -2
l 6 -3
l -1 -8
l 6 1
l 6 -10
l -5 -16
l 3 -10
l 2 -1
l 2 -10
l 8 5
l -1 -11
l 8 -4
l 3 4
l 9 -3
l 2 -9
l -7 -4
l -3 -5
h -4
l 9 -7
l 2 -8
l -7 2
l -4 -8
l -12 4
l -10 1
l -1 5
l 12 7
v 11
h -9
l -11 11
l -11 -21
l -6 5
l -1 -6
h -64
v -24
l -1 -7
l 1 -15
Z"/>
</g>
  <path class="districts-mesh" d="M16 680
h 64
l 1 6
l 6 -5
l 11 21
l 11 -11
h 9
v -11
l -12 -7
l 1 -5
l 10 -1
l 12 -4
l 4 8
l 7 -2
l -2 8
l -9 7
h 4
l 3 5
l 7 4
l -2 9
l -9 3
l -3 -4
l -8 4
l 1 11
l -8 -5
l -2 10
l -2 1
l -3 10
l 5 16
l -6 10
l -6 -1
l 1 8
l -6 3
l 8 2
l 2 4
l -3 7
l 5 1
l 8 -2
l 6 -5
l -1 -7
l 3 -5
l 6 2
l -2 -6
l 6 2
l -3 -7
l 5 -7
l 1 6
l 5 -1
l -1 -7
l 4 -5
l 7 -5
l 10 4
l 5 -5
l 2 -10
l -10 -6
l 10 -8
v -28
h 8
v -20
l 2 -7
h 47
v 1
h 53
l 1 15
l -5 1
l -9 6
l -13 2
v 7
l -4 4
l -8 2
l -1 9
l -3 6
l -2 10
l -6 11
l -4 1
l -8 9
l -3 1
l -11 17
l -10 7
l -1 4
h 111
v 13
l 11 1
v 38
l 2 1
M278 656
v -27
h 85
v -17
l -1 -31
l 5 -4
h 1
v 1
h 1
v 1
l 3 -4
l 8 4
l -1 -18
l 2 2
l 3 3
l 2 -1
l 4 -1
v -7
h -9
l -5 -9
l -17 7
l -2 8
l -8 3
l 2 -10
l -3 -2
l -7 1
l -1 -6
l -13 -2
l 1 -5
l -7 1
v 5
l -4 3
l -7 -3
v -6
l -4 3
l -6 -1
l 1 11
l -3 5
h -5
l 1 -6
l 1 -5
l -6 -6
l 3 -4
l -9 -11
l -3 -11
v -12
l -3 -15
l 11 1
h 23
v -9
h 50
v -9
l 6 -1
h 82
l 1 3
l -5 13
l 4 4
l -1 7
l 1 25
l 2 8
l -17 2
l -8 5
l -6 2
l -15 -3
l -7 -3
l 1 2
l 1 1
l -1 1
l 2 3
l -4 5
h 8
l -3 3
l 2 5
l -5 11
l 12 10
l 1 15
l 7 -3
l 5 5
h 7
v -21
l 2 -4
l 11 -1
l 4 -4
l 4 3
v 1
l -1 2
v 3
l 1 1
l 2 1
l 1 1
h 55
l 15 -1
l 2 18
l 2 -1
h 26
l 9 11
l 3 6
l 22 -1
M429 472
v -8
l -1 -4
v -57
h -71
l -9 1
l 5 -6
l -7 -8
l 2 -6
l 4 1
l 2 -10
l 3 1
v -6
h 7
l 6 -4
l -1 -11
l 4 -1
l -7 -7
l 1 -23
h -18
v -9
h -6
l -5 -2
v -12
l 4 -7
v -13
l -3 -8
h -5
v -8
h 9
l 8 -4
h 7
l 15 -14
v -6
l 2 -3
l 5 -9
h 4
l 2 3
l 10 -4
l 5 5
v 5
l 2 3
l 2 5
l 6 -1
l 1 8
l 5 -1
l 1 5
l 11 -4
l 5 -11
l 11 2
v -7
l 13 -1
l 13 2
v -6
l 1 -5
l -11 -21
l 2 -6
l -9 3
v -26
l 6 1
v -4
h 6
l 13 -14
l 4 -7
h 4
l 1 -7
l 3 2
l 1 9
l 5 6
l 5 -3
l 2 3
l 10 -6
M86 47
l 12 -2
l 14 11
l 3 9
l 16 15
h 10
l 7 -7
l 20 -8
l 2 -2
l 11 -2
l 5 3
l 9 3
h 13
l 8 10
l 6 -1
l 8 -1
l 10 6
l 8 9
l -1 12
v 33
l -1 28
l 3 1
h 37
l 1 1
h 46
v -17
l 5 -30
l 2 8
l 7 5
h 11
l 6 -8
l 6 -1
l 3 3
l 5 -14
l -2 -4
h -2
h 30
v 13
l 8 4
l 8 1
l 5 5
l 8 -3
l 2 -2
l 7 -7
l 20 -16
l 14 -22
l 6 -3
l 5 -9
l 1 -8
l 7 -5
M375 238
l -6 -2
l 4 -6
v -12
l -12 -4
l -1 -2
h -1
l 4 -9
l -12 -9
h -8
l -7 -2
l -6 10
l -9 2
l -2 5
h -6
v 10
l -9 7
l -5 10
l -6 -1
l -10 7
l -6 1
v 9
l -7 2
l 2 8
l -3 6
l -9 3
l -3 8
v 9
l -3 6
h -5
v 5
h -9
l -9 7
l -2 11
h -5
l -4 5
l -5 5
l -6 -1
l -2 5
l 10 5
l 6 6
l 2 10
l 6 3
l -9 15
l 2 5
l -11 5
h -9
l -4 -2
v -5
l -2 -4
l -5 4
h -10
l -6 6
l -7 1
l 1 -4
l -6 -1
l -1 -4
l -7 -1
l 2 13
h -5
l -1 6
l -8 4
l -2 -3
l -8 7
l -10 -2
v -76
h -18
l -19 -2
l -34 -1
M277 490
h -17
v -34
h -33
l -17 1
v -8
h -16
v -26
l 17 -1
l 1 -17
l 5 -8
l 14 1
v -13
l 8 -8
l 7 3
l 7 -5
h 6
l 9 -2
v -1
l 6 -8
h -4
l 4 -10
l 7 -2
l 3 3
l 3 -5
l -1 -5
l 7 -13
l 5 -2
l 6 -12
l 6 1
l 7 -11
l -2 -4
h 8
l -1 -7
l -3 -6
l -7 5
h -1
l -9 11
l -5 3
l -4 -4
l -4 2
l -2 -9
h -3
l -3 7
l -5 4
l 5 1
v 4
h -12
l -1 5
l 7 3
l -5 10
l -1 10
l -7 8
l -2 -4
l -11 10
l -12 -1
l -3 3
l -3 -4"/>
</svg>