<svg version="1.1" xmlns="http://www.w3.org/2000/svg" width="1000" height="877" viewBox="0 0 1000 877">  <path d="M142,24l25,1h32l6,1h52v1v-1l13,1h49l2,1h349l24,-1h47l2,-1h54l3,-1h56l1,-1h17v1h1l-1,1v2h-1l1,1h2l1,1v3l1,2v4l-1,1v2l1,1v-1v2l1,-1v1l1,1h2v1h2v1h1v-1l4,1v1h2v3h1v6h-1v1h-1v4h-1v1h1l-1,2v2l1,-1v1l1,1h1v3h-1v2h-1v3l-1,1l-1,1h-4l-2,1v3l-1,1v1h-1l-1,1h1l1,1v1l-1,1h-2l-1,1l-1,1v2h-1l-1,-1v1h-1l-1,1h-3v1l-1,1v1h-1l-1,2l-1,1h-2v-1l-2,5l-1,2v1h1v2h-1v1l-2,3l-1,1h-2v1h-1l-1,1h-3l-1,1v1l-1,1h1h-1v2h-2l-1,1l-1,1v2h1v1h-1l-1,1v1h-2v5h-1v1h-1v5h-2v1l-1,1v1h-1v2h-1v1l16,-1h33l13,-1h24l4,-1h6l23,-1h9l-3,4l1,4l2,2l1,1l5,2l6,6l1,4v2l-4,3l-3,-1v-1l-12,-3l-4,3v6l8,6l2,6l-2,1v1h-2l-2,1l-2,-2l-2,1l-3,1l-2,2l-1,3v1l-2,3l-1,1l-7,1l-3,4l-3,-3l-5,-1h-1l-6,5h-2v11l1,4l2,2l3,3h8l2,-3l3,-1l1,3v6l-7,4h-4l-5,3l-2,1l-1,1l-1,2v2l1,2l1,1l1,2l2,1l1,1h3v3l-2,5l-5,-1l-2,-2v-3l-3,-3l-4,-2l-4,2l-5,2v2l-2,5l2,6l2,3l3,2v1l-2,5h1l-1,2v2l-1,1h-1l-1,1v2l-2,2l1,1h2l-1,1l-2,1l-1,-2v-4l-1,-2l-1,-2v-2l1,-2v-4l-1,-1l-2,-2h-3l-2,1l-2,2l-1,1l-1,5l-3,1l-5,5l-1,8l3,2h4l1,-1l-2,-6l7,-1v1l3,3h1l3,2l-1,1v1l-2,3l-2,3l-2,2l1,1v1l-1,7h-3l-6,1h-1l-1,5l2,4l1,1l2,1l4,-1l6,3l4,7h-3v1l-1,1v3h-1l-2,-1l-2,2l1,2l2,4l7,3v1l-3,6l-8,-2l-8,1l-2,6v3l-3,12l-5,3l-1,-1h-4l-3,-1l-1,-1l-4,-1l-1,1h-1l-2,7v3l1,3l2,2l10,10l-3,9l-9,4l-1,2l1,1l-4,4l-3,-2l-3,1l-3,2l-3,2l-3,1h-3l-1,-1l-1,-6v-2l-1,-1v-1h-1l-4,-2h-1l-2,2l-1,1v4l1,2l1,2l1,1v1h1v2l1,1v1l-1,1l-1,1l-1,1v1l-1,1l1,3v2l3,4l-1,6l-2,2h-3l-7,-3v-2l2,-3l2,-2l1,-1v-1l-1,-1l-2,-4v-1h-2l-1,1h-2l-1,2l-1,1v1l1,1v3h1v2h1v2h-1v1h-2l-3,5v1h1l1,1l2,3h1l1,1h6l3,-1l5,2v4l-1,1l-1,1l-1,1v2l-2,1l-1,1l-1,1l-1,1l-1,1v1h-6l-2,-8l1,-1l2,-1v-2l-1,-2l-1,-1l-1,-1h-2v1h-1l-1,1l-1,1v1l-1,1v7h1v2l-1,2v4l1,4l6,7l2,4l-1,2v1h-1l-1,2l-2,1h-2v1l-1,2v2l-1,3v5l1,2l1,1l2,4l-1,4v1l-1,1l-1,1l-1,2l-7,3l-3,2l-3,1h-1l1,1l-2,4v2l1,3l1,2v1l-1,2h-2l-4,-4l1,-1l1,-5l1,-3v-1l-4,2h-8l-3,-1l-2,7l1,1l2,1l2,5v1l-1,2l-1,1l-1,1l-2,2h-8v1l-4,1l-3,10l-1,5h-6l-1,-1v-1l-2,-1l-1,-2l-1,-2v-1h-1l-2,-1l-2,1l-1,2l-1,1l1,2v1l2,2l2,4l1,1l6,1h2l2,-1l3,1h2l5,2v4l-1,2l-1,1l-1,1l-2,1h-5l-2,-1l-1,-1h-2v-2l-2,-1l-1,-1l-2,-1l-5,5l-2,1l-2,5v1l2,3l5,3h4l1,-1l4,2l1,1l-1,2v1l-2,2v7l-1,2h-1l-1,1h-15l-2,1l1,3v1l1,1l1,1l2,2v4l-1,1l-2,1l-4,-3l-1,-1l-1,-2l-1,-3v-1l-5,2v1l-7,1l-2,6l3,1l2,1h1l3,1l4,3l-3,8l-3,3l-1,2l-3,6v3h1l1,2h1l2,4l2,1l3,1l2,1l3,1l1,1v5l-1,1h-2l-2,1h-1l-1,-1l-5,-2h-4l-6,2l-1,-1l-2,-1l-2,-1h-1l-1,1l-1,2v2h1v1l-1,1v6l1,1l2,3l1,1h7l1,-1l2,-1l1,-1l4,3l1,1l1,1v1l1,1v4l-1,1h-2l-2,1h-2l-2,1h-2l-2,-1h-2l-4,-3l-2,-2l-4,-5h-1l-5,1h-1l-3,1l-1,1l-1,1l-1,1v4l1,1h1l1,1h1l1,1h3l2,2h1v1h2l4,4l2,7l-4,3l-1,1h-6l-2,2l-4,1h-1l-1,2h-1v1l1,2v1l2,2l2,2l3,2l1,2l1,2l-1,1l-1,1v1l-2,3l-1,1l-1,1l-1,1h-1l-1,1l-1,1v3l7,2l3,-2l1,-1l1,-1l1,-1h-1v-1l-1,-4l2,-5l8,5l1,2l1,5h-1l-1,2v1h-1l-1,1h-3l-2,1l-2,2l-2,-1h-3v1l-1,1l-1,1l1,1v1l2,1l1,1l6,2h4v-1h2v-1h1l2,-1l2,-2l1,-2l1,-2v-6l5,-2h1l1,4v1l-1,3l-3,3l-2,1l-1,2v1l-2,1l-1,2v1l-1,1l-3,2l-2,3v3l-1,1v2l1,2v4l1,2l2,1v4l1,1h1l1,3v1l2,1h1v-4l1,-3l4,-4l5,6l-1,1v2l-1,1l-2,2v1h-1v1h-2v2h-3v1l1,1v3l1,13l-2,2h-1l-1,1h-9v-1h-1l-1,-1h-5l-1,1l-1,3v4l1,1l2,1l1,2h1l1,1h1l2,1l2,1l1,1h1l1,1l1,1l1,2l-1,1v3l-1,1v1h-3l-1,1h-1l-2,2l-1,2v1h-209l-17,-1h-82l-25,-1h-25l-3,-1h-51l-15,-1h-34l-29,-1h-25l-8,-1h-47v-21l1,-34v-32l1,-10v-29h-5l-1,-1l3,-1l-2,-2l-3,-2h-1l-2,1h-1v1h-9l-2,-3l-1,-2h-6v1h-5l1,4l-4,3l-2,-1l2,-7l-6,3l-4,4l-1,-2v-1l1,-1h1v-2h-1v-1h-1v1h-1l-1,1l-1,2l-1,3l-1,2h-1l-2,-1l-3,-4l-1,1l1,2v1l-1,1v1h-3l-1,-1l-1,1h-2v-1l-1,-1l-2,-2l1,-2l1,1l2,-1l1,-2v-1l-1,-1h-1l-1,1l-1,1l-1,2l-4,-3v-1h-1v-1l-1,-1h-3l-1,-2h-1v-1v1h-2l3,-4l-1,-2v-1l1,-1h1l1,-1v-2h-3l-1,1h-4v1v-10l1,-7v-11l1,-8v-16l1,-20v-4l1,-4v-5l1,-22v-9l1,-1v-14l1,-21v-2l1,-15v-2l1,-11v-1l1,-54v-1l1,-15l1,-5l1,-30v-7l1,-2v-12l1,-7v-6l1,-15v-13l1,-1v-16l1,-5v-15l1,-1v-8l1,-11v-11l-1,-4v-5l-1,-1v-2l-1,-9v-1l-2,-22h-1v-3l-3,-30v-1l-1,-3v-13h-1v-9l-1,-1v-5l-1,-10h-1v-9h-1v-8l-1,-1v-5l-1,-8v-1l-2,-12v-3l-1,-5l-1,-9v-4h-1v-9l-1,-4v-4l-1,-1v-7l-1,-1v-3l-1,-13v-3l-1,-4v-5l-1,-1v-5l-1,-5v-11h14l1,1h67l2,1Z"/><g class="districts"><path data-race-id="AR01" d="M343,148l6,-3v-7l14,1v-11l1,1h27l2,1h31l20,1l1,-17l-6,-7l-7,-6l3,-6l-3,-3l1,-7l-7,-2h-7l4,-5l-4,-6l-6,1l4,-7l5,-3l-11,1l-1,-3l11,-7l1,-26h248l24,-1h47l2,-1h54l3,-1h56l1,-1h17v1h1l-1,1v2h-1l1,1h2l1,1v3l1,2v4l-1,1v2l1,1v-1v2l1,-1v1l1,1h2v1h2v1h1v-1l4,1v1h2v3h1v6h-1v1h-1v4h-1v1h1l-1,2v2l1,-1v1l1,1h1v3h-1v2h-1v3l-1,1l-1,1h-4l-2,1v3l-1,1v1h-1l-1,1h1l1,1v1l-1,1h-2l-1,1l-1,1v2h-1l-1,-1v1h-1l-1,1h-3v1l-1,1v1h-1l-1,2l-1,1h-2v-1l-2,5l-1,2v1h1v2h-1v1l-2,3l-1,1h-2v1h-1l-1,1h-3l-1,1v1l-1,1h1h-1v2h-2l-1,1l-1,1v2h1v1h-1l-1,1v1h-2v5h-1v1h-1v5h-2v1l-1,1v1h-1v2h-1v1l16,-1h33l13,-1h24l4,-1h6l23,-1l6,4l1,4l2,2l1,1l5,2l6,6l1,4v2l-4,3l-3,-1v-1l-12,-3l-5,4l1,7l8,4l2,6l-2,1v1h-2l-2,1l-2,-2l-2,1l-3,1l-2,2l-1,3v1l-2,3l-1,1l-7,1l-3,4l-3,-3l-5,-1h-1l-6,5h-2v11l1,4l2,2l3,3h8l2,-3l3,-1l1,3v6l-7,4h-4l-5,3l-2,1l-1,1l-1,2v2l1,2l1,1l1,2l2,1l1,1h3v3l-2,5l-5,-1l-2,-2v-3l-3,-3l-4,-2l-4,2l-5,2v2l-2,5l2,6l2,3l3,2v1l-2,5h1l-1,2v2l-1,1h-1l-1,1v2l-2,2l1,1h2l-1,1l-2,1l-1,-2v-4l-1,-2l-1,-2v-2l1,-2v-4l-1,-1l-2,-2h-3l-2,1l-2,2l-1,1l-1,5l-3,1l-5,5l-1,8l3,2h4l1,-1l-2,-6l7,-1v1l3,3h1l3,2l-1,1v1l-2,3l-2,3l-2,2l1,1v1l-1,7h-3l-6,1h-1l-1,5l2,4l1,1l2,1l4,-1l6,3l4,7h-3v1l-1,1v3h-1l-2,-1l-2,2l1,2l2,4l7,3v1l-3,6l-8,-2l-4,-1l-6,8v3l-3,12l-5,3l-1,-1h-4l-3,-1l-1,-1l-4,-1l-1,1h-1l-2,7v3l1,3l2,2l10,10l-1,6l-11,7l-1,2l1,1l-4,4l-3,-2l-3,1l-3,2l-3,2l-3,1h-3l-1,-1l-1,-6v-2l-1,-1v-1h-1l-4,-2h-1l-2,2l-1,1v4l1,2l1,2l1,1v1h1v2l1,1v1l-1,1l-1,1l-1,1v1l-1,1l1,3v2l3,4l-1,6l-2,2h-3l-7,-3v-2l2,-3l2,-2l1,-1v-1l-1,-1l-2,-4v-1h-2l-1,1h-2l-1,2l-1,1v1l1,1v3h1v2h1v2h-1v1h-2l-3,5v1h1l1,1l2,3h1l1,1h6l3,-1l5,2v4l-1,1l-1,1l-1,1v2l-2,1l-1,1l-1,1l-1,1l-1,1v1h-6l-2,-8l1,-1l2,-1v-2l-1,-2l-1,-1l-1,-1h-2v1h-1l-1,1l-1,1v1l-1,1v7h1v2l-1,2v4l1,4l6,7l2,4l-1,2v1h-1l-1,2l-2,1h-2v1l-1,2v2l-1,3v5l1,2l1,1l2,4l-1,4v1l-1,1l-1,1l-1,2l-7,3l-3,2l-3,1h-1l1,1l-2,4v2l1,3l1,2v1l-1,2h-2l-4,-4l1,-1l1,-5l1,-3v-1l-4,2h-8l-3,-1l-2,7l1,1l2,1l2,5v1l-1,2l-1,1l-1,1l-2,2h-8v1l-4,1l-3,10l-1,5h-6l-1,-1v-1l-2,-1l-1,-2l-1,-2v-1h-1l-2,-1l-2,1l-1,2l-1,1l1,2v1l2,2l2,4l1,1l6,1h2l2,-1l3,1h2l5,2v4l-1,2l-1,1l-1,1l-2,1h-5l-2,-1l-1,-1h-2v-2l-2,-1l-1,-1l-2,-1l-5,5l-2,1l-2,5v1l2,3l5,3h4l1,-1l4,2l1,1l-1,2v1l-2,2v7l-1,2h-1l-1,1h-15l-2,1l1,3v1l1,1l1,1l2,2v4l-1,1l-2,1l-4,-3l-1,-1l-1,-2l-1,-3v-1l-5,2v1l-7,1l-2,6l3,1l2,1h1l3,1l4,3l-3,8l-3,3l-1,2l-3,6v3h1l1,2h1l2,4l2,1l3,1l2,1l3,1l1,1v5l-1,1h-2l-2,1h-1l-1,-1l-5,-2h-4l-6,2l-1,-1l-2,-1l-2,-1h-1l-1,1l-1,2v2h1v1l-1,1v6l1,1l2,3l1,1h7l1,-1l2,-1l1,-1l4,3l1,1l1,1v1l1,1v4l-1,1h-2l-2,1h-2l-2,1h-2l-2,-1h-2l-4,-3l-2,-2l-4,-5h-1l-5,1h-1l-3,1l-1,1l-1,1l-1,1v4l1,1h1l1,1h1l1,1h3l2,2h1v1h2l4,4l2,7l-4,3l-1,1h-6l-2,2l-4,1h-1l-1,2h-1v1l1,2v1l2,2l2,2l3,2l1,2l1,2l-1,1l-1,1v1l-2,3l-1,1l-1,1l-1,1h-1l-1,1l-1,1v3l7,2l3,-2l1,-1l1,-1l1,-1h-1v-1l-1,-4l2,-5l8,5l1,2l1,5h-1l-1,2v1h-1l-1,1h-3l-2,1l-2,2l-2,-1h-3v1l-1,1l-1,1l1,1v1l2,1l1,1l6,2h4v-1h2v-1h1l2,-1l2,-2l1,-2l1,-2v-6l5,-2h1l1,4v1l-1,3l-3,3l-2,1l-1,2v1l-2,1l-1,2v1l-1,1l-3,2l-2,3v3l-1,1v2l1,2v4l1,2l2,1v4l1,1h1l1,3v1l2,1h1v-4l1,-3l4,-4l5,6l-1,1v2l-1,1l-2,2v1h-1v1h-2v2h-3v1l1,1v3l1,11l-2,4h-1l-1,1h-9v-1h-1l-1,-1h-5l-1,1l-1,3v4l1,1l2,1l1,2h1l1,1h1l2,1l2,1l1,1h1l1,1l1,1l1,2l-1,1v3l-1,1v1h-3l-1,1h-1l-2,2l-1,2v1h-58v-171l1,-12l-22,-1l-17,-2h-64v-43l3,-2v-25l41,-1v7h4v-26h3v-31l-20,-1v-7h-4v-11h-18v-5l-9,-1v-19h-11v-30l-17,-1l3,-6l1,-15l4,-4v-67h-9v-13h3l6,-2h2l11,1l2,2l6,2l8,2l3,3l10,1v1v-1v1l11,-2l5,-4h7l9,-3l4,1l9,7h8v-15h22l8,-5l-5,-5l5,-1l-1,-14h7l4,-5l-2,-8l-5,-4v-9l-6,1l3,-5l-2,-12l17,-10v-6h-45v-21l-14,-1h-27v18l-8,2l-3,3l-1,19h-35l-14,-1h-28l1,-19v-23h1v-31l1,-10l-6,-1h-28v-17l-41,-1v18l-34,-2l-28,-1v-16l2,-16v-25Z"/><path data-race-id="AR02" d="M322,363l3,-9h9l10,-12h6l8,-1v-48l1,-20v-21l8,1v-37l1,-5l34,2v-18l41,1v17h28l6,1l-1,10v31h-1v23l-1,19h28l14,1h35l1,-19l3,-3l8,-2v-18h27l14,1v21h45v6l-17,10l2,12l-3,5l6,-1v9l5,4l2,8l-4,5h-7l1,14l-5,1l5,5l-8,5h-22v15h-8l-9,-7l-4,-1l-9,3h-7l-5,4l-11,2v-1v1v-1l-10,-1l-3,-3l-8,-2l-6,-2l-2,-2l-11,-1h-2l-6,2h-3v13h9v67l-4,4l-1,15l-3,6l17,1v30h-43l-30,-1v11l-8,-1h-30l-5,6l1,3h-13v-14h-11v-7h-10v-14l-3,-7h-13v-11h-20v-11h2v-21h-46l-16,-1v-21l4,-10h3l7,-11l4,1l11,-10l7,-11l7,-3Z"/><path data-race-id="AR03" d="M39,22l1,1h67l2,1h33l25,1h32l6,1h52v1v-1l13,1h49l2,1h101l-1,26l-11,7l1,3l11,-1l-5,3l-4,7l6,-1l4,6l-4,5h7l7,2l-1,7l3,3l-3,6l7,6l6,7l-1,17l-20,-1h-31l-2,-1h-27l-1,-1v11l-14,-1v7l-6,3l-1,5v25l-2,16v16l28,1l-1,5v37l-8,-1v21l-1,20v48l-8,1h-21l-5,2v8l-4,2l-8,-4l3,-12l-9,3l-8,-18l-7,-6h-8l-6,-11l-4,-3v-28l1,-5h12l2,-7v-23h10l1,-31v-14l2,-7l1,-20h-10v-7h7l3,-8l7,1l1,-11l-10,-2v-7l5,-4l-21,-1l-4,-2l1,-11h-6l-35,-2h-14v-6l-7,-1l1,-7l-6,-4v-13l-9,-5l2,-6l-30,-1l-11,-1v18h-4l-11,33l-2,36v22l-3,4v16l-31,-1v3l-17,-1v11l-4,-1v7h-4l-1,17h11l-1,16l-4,2l-1,12l-9,4l4,1v14h2l-1,11h2l1,4l2,7l10,2l6,4h10v17h10v1l-4,6l-14,-1l-17,4v6l-6,-4l-23,-1l-4,4v14h3v6h-16v-13l1,-1v-16l1,-5v-15l1,-1v-8l1,-11v-11l-1,-4v-5l-1,-1v-2l-1,-9v-1l-2,-22h-1v-3l-3,-30v-1l-1,-3v-13h-1v-9l-1,-1v-5l-1,-10h-1v-9h-1v-8l-1,-1v-5l-1,-8v-1l-2,-12v-3l-1,-5l-1,-9v-4h-1v-9l-1,-4v-4l-1,-1v-7l-1,-1v-3l-1,-13v-3l-1,-4v-5l-1,-1v-5l-1,-5v-11h13Z"/><path data-race-id="AR04" d="M34,700v-10l1,-7v-11l1,-8v-16l1,-20v-4l1,-4v-5l1,-22v-9l1,-1v-14l1,-21v-2l1,-15v-2l1,-11v-1l1,-54v-1l1,-15l1,-5l1,-30v-7l1,-2v-12l1,-7v-6l1,-15h16v-6h-3v-14l4,-4l23,1l6,4v-6l17,-4l14,1l4,-6v-1h-10v-17h-10l-6,-4l-10,-2l-2,-7l-1,-4h-2l1,-11h-2v-14l-4,-1l9,-4l1,-12l4,-2l1,-16h-11l1,-17h4v-7l4,1v-11l17,1v-3l31,1v-16l3,-4v-22l2,-36l11,-33h4v-18l11,1l30,1l-2,6l9,5v13l6,4l-1,7l7,1v6h14l35,2h6l-1,11l4,2l21,1l-5,4v7l10,2l-1,11l-7,-1l-3,8h-7v7h10l-1,20l-2,7v14l-1,31h-10v23l-2,7h-12l-1,5v28l4,3l6,11h8l7,6l8,18l9,-3l-3,12l8,4l4,-2v-8l5,-2h21h-6l-10,12h-9l-3,9l-6,7l-7,3l-7,11l-11,10l-4,-1l-7,11h-3l-4,10v21l16,1h46v21h-2v11h20v11h13l3,7v14h10v7h11v14h13l-1,-3l5,-6h30l8,1v-11l30,1h54v19l9,1v5h18v11h4v7l20,1v31h-3v26h-4v-7l-41,1v25l-3,2v43h64l17,2l22,1l-1,12v171h-151l-17,-1h-82l-25,-1h-25l-3,-1h-51l-15,-1h-34l-29,-1h-25l-8,-1h-47v-43l1,-12v-32l1,-10v-29h-5l-1,-1l3,-1l-2,-2l-3,-2h-1l-2,1h-1v1h-9l-2,-3l-1,-2h-6v1h-5l1,4l-4,3l-2,-1l2,-7l-6,3l-4,4l-1,-2v-1l1,-1h1v-2h-1v-1h-1v1h-1l-1,1l-1,2l-1,3l-1,2h-1l-2,-1l-3,-4l-1,1l1,2v1l-1,1v1h-3l-1,-1l-1,1h-2v-1l-1,-1l-2,-2l1,-2l1,1l2,-1l1,-2v-1l-1,-1h-1l-1,1l-1,1l-1,2l-4,-3v-1h-1v-1l-1,-1h-3l-1,-2h-1v-1v1h-2l3,-4l-1,-2v-1l1,-1h1l1,-1v-2h-3l-1,1h-4Z"/></g>  <path class="districts-mesh" d="M518,503v-30l-17,-1l3,-6l1,-15l4,-4v-67h-9v-13h3l6,-2h2l11,1l2,2l6,2l8,2l3,3l10,1v1l11,-2l5,-4h7l9,-3l4,1l9,7h8v-15h22l8,-5l-5,-5l5,-1l-1,-14h7l4,-5l-2,-8l-5,-4v-9l-6,1l3,-5l-2,-12l17,-10v-6h-45v-21l-14,-1h-27v18l-8,2l-3,3l-1,19h-35l-14,-1h-28l1,-19v-23h1v-31l1,-10l-6,-1h-28v-17l-41,-1v18l-34,-2l-28,-1v-16l2,-16v-25l1,-5l6,-3v-7l14,1v-11l1,1h27l2,1h31l20,1l1,-17l-6,-7l-7,-6l3,-6l-3,-3l1,-7l-7,-2h-7l4,-5l-4,-6l-6,1l4,-7l5,-3l-11,1l-1,-3l11,-7l1,-26M631,854v-171l1,-12l-22,-1l-17,-2h-64v-43l3,-2v-25l41,-1v7h4v-26h3v-31l-20,-1v-7h-4v-11h-18v-5l-9,-1v-19h-54l-30,-1v11l-8,-1h-30l-5,6l1,3h-13v-14h-11v-7h-10v-14l-3,-7h-13v-11h-20v-11h2v-21h-46l-16,-1v-21l4,-10h3l7,-11l4,1l11,-10l7,-11l7,-3l6,-7l3,-9h9l10,-12h6l8,-1v-48l1,-20v-21l8,1v-37l1,-5M350,342h-21l-5,2v8l-4,2l-8,-4l3,-12l-9,3l-8,-18l-7,-6h-8l-6,-11l-4,-3v-28l1,-5h12l2,-7v-23h10l1,-31v-14l2,-7l1,-20h-10v-7h7l3,-8l7,1l1,-11l-10,-2v-7l5,-4l-21,-1l-4,-2l1,-11h-6l-35,-2h-14v-6l-7,-1l1,-7l-6,-4v-13l-9,-5l2,-6l-30,-1l-11,-1v18h-4l-11,33l-2,36v22l-3,4v16l-31,-1v3l-17,-1v11l-4,-1v7h-4l-1,17h11l-1,16l-4,2l-1,12l-9,4l4,1v14h2l-1,11h2l1,4l2,7l10,2l6,4h10v17h10v1l-4,6l-14,-1l-17,4v6l-6,-4l-23,-1l-4,4v14h3v6h-16"/></svg>