<svg version="1.1" xmlns="http://www.w3.org/2000/svg" width="1000" height="877" viewBox="0 0 1000 877">
  <path d="M142 24
l 25 1
h 32
l 6 1
h 52
v 1
v -1
l 13 1
h 49
l 2 1
h 349
l 24 -1
h 47
l 2 -1
h 54
l 3 -1
h 56
l 1 -1
h 17
v 1
h 1
l -1 1
v 2
h -1
l 1 1
h 2
l 1 1
v 3
l 1 2
v 4
l -1 1
v 2
l 1 1
v -1
v 2
l 1 -1
v 1
l 1 1
h 2
v 1
h 2
v 1
h 1
v -1
l 4 1
v 1
h 2
v 3
h 1
v 6
h -1
v 1
h -1
v 4
h -1
v 1
h 1
l -1 2
v 2
l 1 -1
v 1
l 1 1
h 1
v 3
h -1
v 2
h -1
v 3
l -1 1
l -1 1
h -4
l -2 1
v 3
l -1 1
v 1
h -1
l -1 1
h 1
l 1 1
v 1
l -1 1
h -2
l -1 1
l -1 1
v 2
h -1
l -1 -1
v 1
h -1
l -1 1
h -3
v 1
l -1 1
v 1
h -1
l -1 2
l -1 1
h -2
v -1
l -2 5
l -1 2
v 1
h 1
v 2
h -1
v 1
l -2 3
l -1 1
h -2
v 1
h -1
l -1 1
h -3
l -1 1
v 1
l -1 1
h 1
h -1
v 2
h -2
l -1 1
l -1 1
v 2
h 1
v 1
h -1
l -1 1
v 1
h -2
v 5
h -1
v 1
h -1
v 5
h -2
v 1
l -1 1
v 1
h -1
v 2
h -1
v 1
l 16 -1
h 33
l 13 -1
h 24
l 4 -1
h 6
l 23 -1
h 9
l -3 4
l 1 4
l 2 2
l 1 1
l 5 2
l 6 6
l 1 4
v 2
l -4 3
l -3 -1
v -1
l -12 -3
l -4 3
v 6
l 8 6
l 2 6
l -2 1
v 1
h -2
l -2 1
l -2 -2
l -2 1
l -3 1
l -2 2
l -1 3
v 1
l -2 3
l -1 1
l -7 1
l -3 4
l -3 -3
l -5 -1
h -1
l -6 5
h -2
v 11
l 1 4
l 2 2
l 3 3
h 8
l 2 -3
l 3 -1
l 1 3
v 6
l -7 4
h -4
l -5 3
l -2 1
l -1 1
l -1 2
v 2
l 1 2
l 1 1
l 1 2
l 2 1
l 1 1
h 3
v 3
l -2 5
l -5 -1
l -2 -2
v -3
l -3 -3
l -4 -2
l -4 2
l -5 2
v 2
l -2 5
l 2 6
l 2 3
l 3 2
v 1
l -2 5
h 1
l -1 2
v 2
l -1 1
h -1
l -1 1
v 2
l -2 2
l 1 1
h 2
l -1 1
l -2 1
l -1 -2
v -4
l -1 -2
l -1 -2
v -2
l 1 -2
v -4
l -1 -1
l -2 -2
h -3
l -2 1
l -2 2
l -1 1
l -1 5
l -3 1
l -5 5
l -1 8
l 3 2
h 4
l 1 -1
l -2 -6
l 7 -1
v 1
l 3 3
h 1
l 3 2
l -1 1
v 1
l -2 3
l -2 3
l -2 2
l 1 1
v 1
l -1 7
h -3
l -6 1
h -1
l -1 5
l 2 4
l 1 1
l 2 1
l 4 -1
l 6 3
l 4 7
h -3
v 1
l -1 1
v 3
h -1
l -2 -1
l -2 2
l 1 2
l 2 4
l 7 3
v 1
l -3 6
l -8 -2
l -8 1
l -2 6
v 3
l -3 12
l -5 3
l -1 -1
h -4
l -3 -1
l -1 -1
l -4 -1
l -1 1
h -1
l -2 7
v 3
l 1 3
l 2 2
l 10 10
l -3 9
l -9 4
l -1 2
l 1 1
l -4 4
l -3 -2
l -3 1
l -3 2
l -3 2
l -3 1
h -3
l -1 -1
l -1 -6
v -2
l -1 -1
v -1
h -1
l -4 -2
h -1
l -2 2
l -1 1
v 4
l 1 2
l 1 2
l 1 1
v 1
h 1
v 2
l 1 1
v 1
l -1 1
l -1 1
l -1 1
v 1
l -1 1
l 1 3
v 2
l 3 4
l -1 6
l -2 2
h -3
l -7 -3
v -2
l 2 -3
l 2 -2
l 1 -1
v -1
l -1 -1
l -2 -4
v -1
h -2
l -1 1
h -2
l -1 2
l -1 1
v 1
l 1 1
v 3
h 1
v 2
h 1
v 2
h -1
v 1
h -2
l -3 5
v 1
h 1
l 1 1
l 2 3
h 1
l 1 1
h 6
l 3 -1
l 5 2
v 4
l -1 1
l -1 1
l -1 1
v 2
l -2 1
l -1 1
l -1 1
l -1 1
l -1 1
v 1
h -6
l -2 -8
l 1 -1
l 2 -1
v -2
l -1 -2
l -1 -1
l -1 -1
h -2
v 1
h -1
l -1 1
l -1 1
v 1
l -1 1
v 7
h 1
v 2
l -1 2
v 4
l 1 4
l 6 7
l 2 4
l -1 2
v 1
h -1
l -1 2
l -2 1
h -2
v 1
l -1 2
v 2
l -1 3
v 5
l 1 2
l 1 1
l 2 4
l -1 4
v 1
l -1 1
l -1 1
l -1 2
l -7 3
l -3 2
l -3 1
h -1
l 1 1
l -2 4
v 2
l 1 3
l 1 2
v 1
l -1 2
h -2
l -4 -4
l 1 -1
l 1 -5
l 1 -3
v -1
l -4 2
h -8
l -3 -1
l -2 7
l 1 1
l 2 1
l 2 5
v 1
l -1 2
l -1 1
l -1 1
l -2 2
h -8
v 1
l -4 1
l -3 10
l -1 5
h -6
l -1 -1
v -1
l -2 -1
l -1 -2
l -1 -2
v -1
h -1
l -2 -1
l -2 1
l -1 2
l -1 1
l 1 2
v 1
l 2 2
l 2 4
l 1 1
l 6 1
h 2
l 2 -1
l 3 1
h 2
l 5 2
v 4
l -1 2
l -1 1
l -1 1
l -2 1
h -5
l -2 -1
l -1 -1
h -2
v -2
l -2 -1
l -1 -1
l -2 -1
l -5 5
l -2 1
l -2 5
v 1
l 2 3
l 5 3
h 4
l 1 -1
l 4 2
l 1 1
l -1 2
v 1
l -2 2
v 7
l -1 2
h -1
l -1 1
h -15
l -2 1
l 1 3
v 1
l 1 1
l 1 1
l 2 2
v 4
l -1 1
l -2 1
l -4 -3
l -1 -1
l -1 -2
l -1 -3
v -1
l -5 2
v 1
l -7 1
l -2 6
l 3 1
l 2 1
h 1
l 3 1
l 4 3
l -3 8
l -3 3
l -1 2
l -3 6
v 3
h 1
l 1 2
h 1
l 2 4
l 2 1
l 3 1
l 2 1
l 3 1
l 1 1
v 5
l -1 1
h -2
l -2 1
h -1
l -1 -1
l -5 -2
h -4
l -6 2
l -1 -1
l -2 -1
l -2 -1
h -1
l -1 1
l -1 2
v 2
h 1
v 1
l -1 1
v 6
l 1 1
l 2 3
l 1 1
h 7
l 1 -1
l 2 -1
l 1 -1
l 4 3
l 1 1
l 1 1
v 1
l 1 1
v 4
l -1 1
h -2
l -2 1
h -2
l -2 1
h -2
l -2 -1
h -2
l -4 -3
l -2 -2
l -4 -5
h -1
l -5 1
h -1
l -3 1
l -1 1
l -1 1
l -1 1
v 4
l 1 1
h 1
l 1 1
h 1
l 1 1
h 3
l 2 2
h 1
v 1
h 2
l 4 4
l 2 7
l -4 3
l -1 1
h -6
l -2 2
l -4 1
h -1
l -1 2
h -1
v 1
l 1 2
v 1
l 2 2
l 2 2
l 3 2
l 1 2
l 1 2
l -1 1
l -1 1
v 1
l -2 3
l -1 1
l -1 1
l -1 1
h -1
l -1 1
l -1 1
v 3
l 7 2
l 3 -2
l 1 -1
l 1 -1
l 1 -1
h -1
v -1
l -1 -4
l 2 -5
l 8 5
l 1 2
l 1 5
h -1
l -1 2
v 1
h -1
l -1 1
h -3
l -2 1
l -2 2
l -2 -1
h -3
v 1
l -1 1
l -1 1
l 1 1
v 1
l 2 1
l 1 1
l 6 2
h 4
v -1
h 2
v -1
h 1
l 2 -1
l 2 -2
l 1 -2
l 1 -2
v -6
l 5 -2
h 1
l 1 4
v 1
l -1 3
l -3 3
l -2 1
l -1 2
v 1
l -2 1
l -1 2
v 1
l -1 1
l -3 2
l -2 3
v 3
l -1 1
v 2
l 1 2
v 4
l 1 2
l 2 1
v 4
l 1 1
h 1
l 1 3
v 1
l 2 1
h 1
v -4
l 1 -3
l 4 -4
l 5 6
l -1 1
v 2
l -1 1
l -2 2
v 1
h -1
v 1
h -2
v 2
h -3
v 1
l 1 1
v 3
l 1 13
l -2 2
h -1
l -1 1
h -9
v -1
h -1
l -1 -1
h -5
l -1 1
l -1 3
v 4
l 1 1
l 2 1
l 1 2
h 1
l 1 1
h 1
l 2 1
l 2 1
l 1 1
h 1
l 1 1
l 1 1
l 1 2
l -1 1
v 3
l -1 1
v 1
h -3
l -1 1
h -1
l -2 2
l -1 2
v 1
h -209
l -17 -1
h -82
l -25 -1
h -25
l -3 -1
h -51
l -15 -1
h -34
l -29 -1
h -25
l -8 -1
h -47
v -21
l 1 -34
v -32
l 1 -10
v -29
h -5
l -1 -1
l 3 -1
l -2 -2
l -3 -2
h -1
l -2 1
h -1
v 1
h -9
l -2 -3
l -1 -2
h -6
v 1
h -5
l 1 4
l -4 3
l -2 -1
l 2 -7
l -6 3
l -4 4
l -1 -2
v -1
l 1 -1
h 1
v -2
h -1
v -1
h -1
v 1
h -1
l -1 1
l -1 2
l -1 3
l -1 2
h -1
l -2 -1
l -3 -4
l -1 1
l 1 2
v 1
l -1 1
v 1
h -3
l -1 -1
l -1 1
h -2
v -1
l -1 -1
l -2 -2
l 1 -2
l 1 1
l 2 -1
l 1 -2
v -1
l -1 -1
h -1
l -1 1
l -1 1
l -1 2
l -4 -3
v -1
h -1
v -1
l -1 -1
h -3
l -1 -2
h -1
v -1
v 1
h -2
l 3 -4
l -1 -2
v -1
l 1 -1
h 1
l 1 -1
v -2
h -3
l -1 1
h -4
v 1
v -10
l 1 -7
v -11
l 1 -8
v -16
l 1 -20
v -4
l 1 -4
v -5
l 1 -22
v -9
l 1 -1
v -14
l 1 -21
v -2
l 1 -15
v -2
l 1 -11
v -1
l 1 -54
v -1
l 1 -15
l 1 -5
l 1 -30
v -7
l 1 -2
v -12
l 1 -7
v -6
l 1 -15
v -13
l 1 -1
v -16
l 1 -5
v -15
l 1 -1
v -8
l 1 -11
v -11
l -1 -4
v -5
l -1 -1
v -2
l -1 -9
v -1
l -2 -22
h -1
v -3
l -3 -30
v -1
l -1 -3
v -13
h -1
v -9
l -1 -1
v -5
l -1 -10
h -1
v -9
h -1
v -8
l -1 -1
v -5
l -1 -8
v -1
l -2 -12
v -3
l -1 -5
l -1 -9
v -4
h -1
v -9
l -1 -4
v -4
l -1 -1
v -7
l -1 -1
v -3
l -1 -13
v -3
l -1 -4
v -5
l -1 -1
v -5
l -1 -5
v -11
h 14
l 1 1
h 67
l 2 1
Z"/>
<g class="districts">
<path data-race-id="AR01" d="M343 148
l 6 -3
v -7
l 14 1
v -11
l 1 1
h 27
l 2 1
h 31
l 20 1
l 1 -17
l -6 -7
l -7 -6
l 3 -6
l -3 -3
l 1 -7
l -7 -2
h -7
l 4 -5
l -4 -6
l -6 1
l 4 -7
l 5 -3
l -11 1
l -1 -3
l 11 -7
l 1 -26
h 248
l 24 -1
h 47
l 2 -1
h 54
l 3 -1
h 56
l 1 -1
h 17
v 1
h 1
l -1 1
v 2
h -1
l 1 1
h 2
l 1 1
v 3
l 1 2
v 4
l -1 1
v 2
l 1 1
v -1
v 2
l 1 -1
v 1
l 1 1
h 2
v 1
h 2
v 1
h 1
v -1
l 4 1
v 1
h 2
v 3
h 1
v 6
h -1
v 1
h -1
v 4
h -1
v 1
h 1
l -1 2
v 2
l 1 -1
v 1
l 1 1
h 1
v 3
h -1
v 2
h -1
v 3
l -1 1
l -1 1
h -4
l -2 1
v 3
l -1 1
v 1
h -1
l -1 1
h 1
l 1 1
v 1
l -1 1
h -2
l -1 1
l -1 1
v 2
h -1
l -1 -1
v 1
h -1
l -1 1
h -3
v 1
l -1 1
v 1
h -1
l -1 2
l -1 1
h -2
v -1
l -2 5
l -1 2
v 1
h 1
v 2
h -1
v 1
l -2 3
l -1 1
h -2
v 1
h -1
l -1 1
h -3
l -1 1
v 1
l -1 1
h 1
h -1
v 2
h -2
l -1 1
l -1 1
v 2
h 1
v 1
h -1
l -1 1
v 1
h -2
v 5
h -1
v 1
h -1
v 5
h -2
v 1
l -1 1
v 1
h -1
v 2
h -1
v 1
l 16 -1
h 33
l 13 -1
h 24
l 4 -1
h 6
l 23 -1
l 6 4
l 1 4
l 2 2
l 1 1
l 5 2
l 6 6
l 1 4
v 2
l -4 3
l -3 -1
v -1
l -12 -3
l -5 4
l 1 7
l 8 4
l 2 6
l -2 1
v 1
h -2
l -2 1
l -2 -2
l -2 1
l -3 1
l -2 2
l -1 3
v 1
l -2 3
l -1 1
l -7 1
l -3 4
l -3 -3
l -5 -1
h -1
l -6 5
h -2
v 11
l 1 4
l 2 2
l 3 3
h 8
l 2 -3
l 3 -1
l 1 3
v 6
l -7 4
h -4
l -5 3
l -2 1
l -1 1
l -1 2
v 2
l 1 2
l 1 1
l 1 2
l 2 1
l 1 1
h 3
v 3
l -2 5
l -5 -1
l -2 -2
v -3
l -3 -3
l -4 -2
l -4 2
l -5 2
v 2
l -2 5
l 2 6
l 2 3
l 3 2
v 1
l -2 5
h 1
l -1 2
v 2
l -1 1
h -1
l -1 1
v 2
l -2 2
l 1 1
h 2
l -1 1
l -2 1
l -1 -2
v -4
l -1 -2
l -1 -2
v -2
l 1 -2
v -4
l -1 -1
l -2 -2
h -3
l -2 1
l -2 2
l -1 1
l -1 5
l -3 1
l -5 5
l -1 8
l 3 2
h 4
l 1 -1
l -2 -6
l 7 -1
v 1
l 3 3
h 1
l 3 2
l -1 1
v 1
l -2 3
l -2 3
l -2 2
l 1 1
v 1
l -1 7
h -3
l -6 1
h -1
l -1 5
l 2 4
l 1 1
l 2 1
l 4 -1
l 6 3
l 4 7
h -3
v 1
l -1 1
v 3
h -1
l -2 -1
l -2 2
l 1 2
l 2 4
l 7 3
v 1
l -3 6
l -8 -2
l -4 -1
l -6 8
v 3
l -3 12
l -5 3
l -1 -1
h -4
l -3 -1
l -1 -1
l -4 -1
l -1 1
h -1
l -2 7
v 3
l 1 3
l 2 2
l 10 10
l -1 6
l -11 7
l -1 2
l 1 1
l -4 4
l -3 -2
l -3 1
l -3 2
l -3 2
l -3 1
h -3
l -1 -1
l -1 -6
v -2
l -1 -1
v -1
h -1
l -4 -2
h -1
l -2 2
l -1 1
v 4
l 1 2
l 1 2
l 1 1
v 1
h 1
v 2
l 1 1
v 1
l -1 1
l -1 1
l -1 1
v 1
l -1 1
l 1 3
v 2
l 3 4
l -1 6
l -2 2
h -3
l -7 -3
v -2
l 2 -3
l 2 -2
l 1 -1
v -1
l -1 -1
l -2 -4
v -1
h -2
l -1 1
h -2
l -1 2
l -1 1
v 1
l 1 1
v 3
h 1
v 2
h 1
v 2
h -1
v 1
h -2
l -3 5
v 1
h 1
l 1 1
l 2 3
h 1
l 1 1
h 6
l 3 -1
l 5 2
v 4
l -1 1
l -1 1
l -1 1
v 2
l -2 1
l -1 1
l -1 1
l -1 1
l -1 1
v 1
h -6
l -2 -8
l 1 -1
l 2 -1
v -2
l -1 -2
l -1 -1
l -1 -1
h -2
v 1
h -1
l -1 1
l -1 1
v 1
l -1 1
v 7
h 1
v 2
l -1 2
v 4
l 1 4
l 6 7
l 2 4
l -1 2
v 1
h -1
l -1 2
l -2 1
h -2
v 1
l -1 2
v 2
l -1 3
v 5
l 1 2
l 1 1
l 2 4
l -1 4
v 1
l -1 1
l -1 1
l -1 2
l -7 3
l -3 2
l -3 1
h -1
l 1 1
l -2 4
v 2
l 1 3
l 1 2
v 1
l -1 2
h -2
l -4 -4
l 1 -1
l 1 -5
l 1 -3
v -1
l -4 2
h -8
l -3 -1
l -2 7
l 1 1
l 2 1
l 2 5
v 1
l -1 2
l -1 1
l -1 1
l -2 2
h -8
v 1
l -4 1
l -3 10
l -1 5
h -6
l -1 -1
v -1
l -2 -1
l -1 -2
l -1 -2
v -1
h -1
l -2 -1
l -2 1
l -1 2
l -1 1
l 1 2
v 1
l 2 2
l 2 4
l 1 1
l 6 1
h 2
l 2 -1
l 3 1
h 2
l 5 2
v 4
l -1 2
l -1 1
l -1 1
l -2 1
h -5
l -2 -1
l -1 -1
h -2
v -2
l -2 -1
l -1 -1
l -2 -1
l -5 5
l -2 1
l -2 5
v 1
l 2 3
l 5 3
h 4
l 1 -1
l 4 2
l 1 1
l -1 2
v 1
l -2 2
v 7
l -1 2
h -1
l -1 1
h -15
l -2 1
l 1 3
v 1
l 1 1
l 1 1
l 2 2
v 4
l -1 1
l -2 1
l -4 -3
l -1 -1
l -1 -2
l -1 -3
v -1
l -5 2
v 1
l -7 1
l -2 6
l 3 1
l 2 1
h 1
l 3 1
l 4 3
l -3 8
l -3 3
l -1 2
l -3 6
v 3
h 1
l 1 2
h 1
l 2 4
l 2 1
l 3 1
l 2 1
l 3 1
l 1 1
v 5
l -1 1
h -2
l -2 1
h -1
l -1 -1
l -5 -2
h -4
l -6 2
l -1 -1
l -2 -1
l -2 -1
h -1
l -1 1
l -1 2
v 2
h 1
v 1
l -1 1
v 6
l 1 1
l 2 3
l 1 1
h 7
l 1 -1
l 2 -1
l 1 -1
l 4 3
l 1 1
l 1 1
v 1
l 1 1
v 4
l -1 1
h -2
l -2 1
h -2
l -2 1
h -2
l -2 -1
h -2
l -4 -3
l -2 -2
l -4 -5
h -1
l -5 1
h -1
l -3 1
l -1 1
l -1 1
l -1 1
v 4
l 1 1
h 1
l 1 1
h 1
l 1 1
h 3
l 2 2
h 1
v 1
h 2
l 4 4
l 2 7
l -4 3
l -1 1
h -6
l -2 2
l -4 1
h -1
l -1 2
h -1
v 1
l 1 2
v 1
l 2 2
l 2 2
l 3 2
l 1 2
l 1 2
l -1 1
l -1 1
v 1
l -2 3
l -1 1
l -1 1
l -1 1
h -1
l -1 1
l -1 1
v 3
l 7 2
l 3 -2
l 1 -1
l 1 -1
l 1 -1
h -1
v -1
l -1 -4
l 2 -5
l 8 5
l 1 2
l 1 5
h -1
l -1 2
v 1
h -1
l -1 1
h -3
l -2 1
l -2 2
l -2 -1
h -3
v 1
l -1 1
l -1 1
l 1 1
v 1
l 2 1
l 1 1
l 6 2
h 4
v -1
h 2
v -1
h 1
l 2 -1
l 2 -2
l 1 -2
l 1 -2
v -6
l 5 -2
h 1
l 1 4
v 1
l -1 3
l -3 3
l -2 1
l -1 2
v 1
l -2 1
l -1 2
v 1
l -1 1
l -3 2
l -2 3
v 3
l -1 1
v 2
l 1 2
v 4
l 1 2
l 2 1
v 4
l 1 1
h 1
l 1 3
v 1
l 2 1
h 1
v -4
l 1 -3
l 4 -4
l 5 6
l -1 1
v 2
l -1 1
l -2 2
v 1
h -1
v 1
h -2
v 2
h -3
v 1
l 1 1
v 3
l 1 11
l -2 4
h -1
l -1 1
h -9
v -1
h -1
l -1 -1
h -5
l -1 1
l -1 3
v 4
l 1 1
l 2 1
l 1 2
h 1
l 1 1
h 1
l 2 1
l 2 1
l 1 1
h 1
l 1 1
l 1 1
l 1 2
l -1 1
v 3
l -1 1
v 1
h -3
l -1 1
h -1
l -2 2
l -1 2
v 1
h -58
v -171
l 1 -12
l -22 -1
l -17 -2
h -64
v -43
l 3 -2
v -25
l 41 -1
v 7
h 4
v -26
h 3
v -31
l -20 -1
v -7
h -4
v -11
h -18
v -5
l -9 -1
v -19
h -11
v -30
l -17 -1
l 3 -6
l 1 -15
l 4 -4
v -67
h -9
v -13
h 3
l 6 -2
h 2
l 11 1
l 2 2
l 6 2
l 8 2
l 3 3
l 10 1
v 1
v -1
v 1
l 11 -2
l 5 -4
h 7
l 9 -3
l 4 1
l 9 7
h 8
v -15
h 22
l 8 -5
l -5 -5
l 5 -1
l -1 -14
h 7
l 4 -5
l -2 -8
l -5 -4
v -9
l -6 1
l 3 -5
l -2 -12
l 17 -10
v -6
h -45
v -21
l -14 -1
h -27
v 18
l -8 2
l -3 3
l -1 19
h -35
l -14 -1
h -28
l 1 -19
v -23
h 1
v -31
l 1 -10
l -6 -1
h -28
v -17
l -41 -1
v 18
l -34 -2
l -28 -1
v -16
l 2 -16
v -25
Z"/>
<path data-race-id="AR02" d="M322 363
l 3 -9
h 9
l 10 -12
h 6
l 8 -1
v -48
l 1 -20
v -21
l 8 1
v -37
l 1 -5
l 34 2
v -18
l 41 1
v 17
h 28
l 6 1
l -1 10
v 31
h -1
v 23
l -1 19
h 28
l 14 1
h 35
l 1 -19
l 3 -3
l 8 -2
v -18
h 27
l 14 1
v 21
h 45
v 6
l -17 10
l 2 12
l -3 5
l 6 -1
v 9
l 5 4
l 2 8
l -4 5
h -7
l 1 14
l -5 1
l 5 5
l -8 5
h -22
v 15
h -8
l -9 -7
l -4 -1
l -9 3
h -7
l -5 4
l -11 2
v -1
v 1
v -1
l -10 -1
l -3 -3
l -8 -2
l -6 -2
l -2 -2
l -11 -1
h -2
l -6 2
h -3
v 13
h 9
v 67
l -4 4
l -1 15
l -3 6
l 17 1
v 30
h -43
l -30 -1
v 11
l -8 -1
h -30
l -5 6
l 1 3
h -13
v -14
h -11
v -7
h -10
v -14
l -3 -7
h -13
v -11
h -20
v -11
h 2
v -21
h -46
l -16 -1
v -21
l 4 -10
h 3
l 7 -11
l 4 1
l 11 -10
l 7 -11
l 7 -3
Z"/>
<path data-race-id="AR03" d="M39 22
l 1 1
h 67
l 2 1
h 33
l 25 1
h 32
l 6 1
h 52
v 1
v -1
l 13 1
h 49
l 2 1
h 101
l -1 26
l -11 7
l 1 3
l 11 -1
l -5 3
l -4 7
l 6 -1
l 4 6
l -4 5
h 7
l 7 2
l -1 7
l 3 3
l -3 6
l 7 6
l 6 7
l -1 17
l -20 -1
h -31
l -2 -1
h -27
l -1 -1
v 11
l -14 -1
v 7
l -6 3
l -1 5
v 25
l -2 16
v 16
l 28 1
l -1 5
v 37
l -8 -1
v 21
l -1 20
v 48
l -8 1
h -21
l -5 2
v 8
l -4 2
l -8 -4
l 3 -12
l -9 3
l -8 -18
l -7 -6
h -8
l -6 -11
l -4 -3
v -28
l 1 -5
h 12
l 2 -7
v -23
h 10
l 1 -31
v -14
l 2 -7
l 1 -20
h -10
v -7
h 7
l 3 -8
l 7 1
l 1 -11
l -10 -2
v -7
l 5 -4
l -21 -1
l -4 -2
l 1 -11
h -6
l -35 -2
h -14
v -6
l -7 -1
l 1 -7
l -6 -4
v -13
l -9 -5
l 2 -6
l -30 -1
l -11 -1
v 18
h -4
l -11 33
l -2 36
v 22
l -3 4
v 16
l -31 -1
v 3
l -17 -1
v 11
l -4 -1
v 7
h -4
l -1 17
h 11
l -1 16
l -4 2
l -1 12
l -9 4
l 4 1
v 14
h 2
l -1 11
h 2
l 1 4
l 2 7
l 10 2
l 6 4
h 10
v 17
h 10
v 1
l -4 6
l -14 -1
l -17 4
v 6
l -6 -4
l -23 -1
l -4 4
v 14
h 3
v 6
h -16
v -13
l 1 -1
v -16
l 1 -5
v -15
l 1 -1
v -8
l 1 -11
v -11
l -1 -4
v -5
l -1 -1
v -2
l -1 -9
v -1
l -2 -22
h -1
v -3
l -3 -30
v -1
l -1 -3
v -13
h -1
v -9
l -1 -1
v -5
l -1 -10
h -1
v -9
h -1
v -8
l -1 -1
v -5
l -1 -8
v -1
l -2 -12
v -3
l -1 -5
l -1 -9
v -4
h -1
v -9
l -1 -4
v -4
l -1 -1
v -7
l -1 -1
v -3
l -1 -13
v -3
l -1 -4
v -5
l -1 -1
v -5
l -1 -5
v -11
h 13
Z"/>
<path data-race-id="AR04" d="M34 700
v -10
l 1 -7
v -11
l 1 -8
v -16
l 1 -20
v -4
l 1 -4
v -5
l 1 -22
v -9
l 1 -1
v -14
l 1 -21
v -2
l 1 -15
v -2
l 1 -11
v -1
l 1 -54
v -1
l 1 -15
l 1 -5
l 1 -30
v -7
l 1 -2
v -12
l 1 -7
v -6
l 1 -15
h 16
v -6
h -3
v -14
l 4 -4
l 23 1
l 6 4
v -6
l 17 -4
l 14 1
l 4 -6
v -1
h -10
v -17
h -10
l -6 -4
l -10 -2
l -2 -7
l -1 -4
h -2
l 1 -11
h -2
v -14
l -4 -1
l 9 -4
l 1 -12
l 4 -2
l 1 -16
h -11
l 1 -17
h 4
v -7
l 4 1
v -11
l 17 1
v -3
l 31 1
v -16
l 3 -4
v -22
l 2 -36
l 11 -33
h 4
v -18
l 11 1
l 30 1
l -2 6
l 9 5
v 13
l 6 4
l -1 7
l 7 1
v 6
h 14
l 35 2
h 6
l -1 11
l 4 2
l 21 1
l -5 4
v 7
l 10 2
l -1 11
l -7 -1
l -3 8
h -7
v 7
h 10
l -1 20
l -2 7
v 14
l -1 31
h -10
v 23
l -2 7
h -12
l -1 5
v 28
l 4 3
l 6 11
h 8
l 7 6
l 8 18
l 9 -3
l -3 12
l 8 4
l 4 -2
v -8
l 5 -2
h 21
h -6
l -10 12
h -9
l -3 9
l -6 7
l -7 3
l -7 11
l -11 10
l -4 -1
l -7 11
h -3
l -4 10
v 21
l 16 1
h 46
v 21
h -2
v 11
h 20
v 11
h 13
l 3 7
v 14
h 10
v 7
h 11
v 14
h 13
l -1 -3
l 5 -6
h 30
l 8 1
v -11
l 30 1
h 54
v 19
l 9 1
v 5
h 18
v 11
h 4
v 7
l 20 1
v 31
h -3
v 26
h -4
v -7
l -41 1
v 25
l -3 2
v 43
h 64
l 17 2
l 22 1
l -1 12
v 171
h -151
l -17 -1
h -82
l -25 -1
h -25
l -3 -1
h -51
l -15 -1
h -34
l -29 -1
h -25
l -8 -1
h -47
v -43
l 1 -12
v -32
l 1 -10
v -29
h -5
l -1 -1
l 3 -1
l -2 -2
l -3 -2
h -1
l -2 1
h -1
v 1
h -9
l -2 -3
l -1 -2
h -6
v 1
h -5
l 1 4
l -4 3
l -2 -1
l 2 -7
l -6 3
l -4 4
l -1 -2
v -1
l 1 -1
h 1
v -2
h -1
v -1
h -1
v 1
h -1
l -1 1
l -1 2
l -1 3
l -1 2
h -1
l -2 -1
l -3 -4
l -1 1
l 1 2
v 1
l -1 1
v 1
h -3
l -1 -1
l -1 1
h -2
v -1
l -1 -1
l -2 -2
l 1 -2
l 1 1
l 2 -1
l 1 -2
v -1
l -1 -1
h -1
l -1 1
l -1 1
l -1 2
l -4 -3
v -1
h -1
v -1
l -1 -1
h -3
l -1 -2
h -1
v -1
v 1
h -2
l 3 -4
l -1 -2
v -1
l 1 -1
h 1
l 1 -1
v -2
h -3
l -1 1
h -4
Z"/>
</g>
  <path class="districts-mesh" d="M518 503
v -30
l -17 -1
l 3 -6
l 1 -15
l 4 -4
v -67
h -9
v -13
h 3
l 6 -2
h 2
l 11 1
l 2 2
l 6 2
l 8 2
l 3 3
l 10 1
v 1
l 11 -2
l 5 -4
h 7
l 9 -3
l 4 1
l 9 7
h 8
v -15
h 22
l 8 -5
l -5 -5
l 5 -1
l -1 -14
h 7
l 4 -5
l -2 -8
l -5 -4
v -9
l -6 1
l 3 -5
l -2 -12
l 17 -10
v -6
h -45
v -21
l -14 -1
h -27
v 18
l -8 2
l -3 3
l -1 19
h -35
l -14 -1
h -28
l 1 -19
v -23
h 1
v -31
l 1 -10
l -6 -1
h -28
v -17
l -41 -1
v 18
l -34 -2
l -28 -1
v -16
l 2 -16
v -25
l 1 -5
l 6 -3
v -7
l 14 1
v -11
l 1 1
h 27
l 2 1
h 31
l 20 1
l 1 -17
l -6 -7
l -7 -6
l 3 -6
l -3 -3
l 1 -7
l -7 -2
h -7
l 4 -5
l -4 -6
l -6 1
l 4 -7
l 5 -3
l -11 1
l -1 -3
l 11 -7
l 1 -26
M631 854
v -171
l 1 -12
l -22 -1
l -17 -2
h -64
v -43
l 3 -2
v -25
l 41 -1
v 7
h 4
v -26
h 3
v -31
l -20 -1
v -7
h -4
v -11
h -18
v -5
l -9 -1
v -19
h -54
l -30 -1
v 11
l -8 -1
h -30
l -5 6
l 1 3
h -13
v -14
h -11
v -7
h -10
v -14
l -3 -7
h -13
v -11
h -20
v -11
h 2
v -21
h -46
l -16 -1
v -21
l 4 -10
h 3
l 7 -11
l 4 1
l 11 -10
l 7 -11
l 7 -3
l 6 -7
l 3 -9
h 9
l 10 -12
h 6
l 8 -1
v -48
l 1 -20
v -21
l 8 1
v -37
l 1 -5
M350 342
h -21
l -5 2
v 8
l -4 2
l -8 -4
l 3 -12
l -9 3
l -8 -18
l -7 -6
h -8
l -6 -11
l -4 -3
v -28
l 1 -5
h 12
l 2 -7
v -23
h 10
l 1 -31
v -14
l 2 -7
l 1 -20
h -10
v -7
h 7
l 3 -8
l 7 1
l 1 -11
l -10 -2
v -7
l 5 -4
l -21 -1
l -4 -2
l 1 -11
h -6
l -35 -2
h -14
v -6
l -7 -1
l 1 -7
l -6 -4
v -13
l -9 -5
l 2 -6
l -30 -1
l -11 -1
v 18
h -4
l -11 33
l -2 36
v 22
l -3 4
v 16
l -31 -1
v 3
l -17 -1
v 11
l -4 -1
v 7
h -4
l -1 17
h 11
l -1 16
l -4 2
l -1 12
l -9 4
l 4 1
v 14
h 2
l -1 11
h 2
l 1 4
l 2 7
l 10 2
l 6 4
h 10
v 17
h 10
v 1
l -4 6
l -14 -1
l -17 4
v 6
l -6 -4
l -23 -1
l -4 4
v 14
h 3
v 6
h -16"/>
</svg>