<svg version="1.1" xmlns="http://www.w3.org/2000/svg" width="860" height="1000" viewBox="0 0 860 1000"><path data-race-id="AZ01" d="M152,231l3,3l5,-4v-27h1v-24l2,4l11,3l3,4v7l9,9v8l7,4l5,6l2,-5l13,15l10,3h8l6,-9l2,-5l2,-9l-3,-3l2,-12h-3l-2,-13l5,-7l13,1l3,-10l9,-3l13,-9l14,-2l6,-3l2,-4h11l9,-10l9,-1l5,-9l-2,-7v1v-1v1l1,-1l-1,-1v-1l-3,-15l5,-5l-1,-17l2,-9v-9l3,-7h-30l-1,-1v-28h251l4,-1h112l3,-1h40l8,-1h33l1,-1h34l9,-1h9v7l1,4v28l1,1v27l1,2v21l1,13v25l1,1v40l1,18v28l1,2v30l1,2v26l1,3v52l1,5v24l1,5v23l1,8v22l1,4v26l1,2v58l1,8v23l1,2v19l1,9v28l1,3v57l1,2v16l1,12v29l1,2v25l1,5v16h-9l-17,1h-42l-3,1h-44v1h-41l-2,1h-40v-14h-47l-10,1l-5,17h-5l-4,5v5l-7,-5l-9,-2l1,8h3v4l-3,2l-2,-4h-8v-8l-14,2v-5l-9,1l-1,-10l-7,-8h-62v-30l3,-6l5,-1v-6h-5v-5h-14v4h-25v7h-14v7h-7v-94h-14v-23h-1l10,-1l13,14l2,2h33v15h29v14h24v17h6l3,5l8,-2l7,2l6,-5l-2,-12l11,-2l10,1v-17h14l-1,-4l-4,-2l-1,-8l1,-5l9,-1v3h9l2,3l-2,-11l-3,-3l-7,-17l-15,-32l-1,-3l-8,6l-2,6l-5,-3l-3,-6h4l2,-2l6,-5l8,-2l3,-4l-1,-7l6,-7l5,9l3,17l4,6l-1,4l5,3l7,-7h4l7,-5l5,1v-3l8,-2v-3l-6,-25v-37h-1v-39h-6l-1,6l-7,-2l-1,-4l-10,-3l-10,-9l-16,-3l-4,-2l-5,-2l-4,-6l-2,2h-1l-6,2l-4,1l-6,-1l-2,1l-1,4l3,1l-5,1v-8l2,1v-1l1,-1l-7,3l-3,-2l-5,4l-1,-5v-1v1l6,-2v-1l-9,1l3,-2l1,-1v-2h-2l-2,3l-2,-1v6l-15,9l-1,13l-4,-8l-9,-4l-4,-10l1,-6l-7,-5l1,-4h-6l-5,-4v-7l-5,-8h-4l6,-6l6,-5v-8l-3,-5l1,-6l-6,2l-5,-2l-10,3l-3,-13l7,-8l3,-7h-45v-30h-15l1,-19l-4,4h-14l-16,-12l-11,-1l-25,-7l-2,-6l-22,-14l-6,-6h-5l-6,-3h-10l-1,3l-2,2h-36l-11,-14l-17,-20v4l-7,2l-3,-4l-5,7l-6,-12l-7,-3Z"/><path data-race-id="AZ02" d="M575,837l-9,-8v-8h-14v-7l-3,-2l3,-2v-4h-3l-1,-8l9,2l7,5v-5l4,-5h5l5,-17l10,-1h47v14h40l2,-1h41v-1h44l3,-1h42l17,-1h9v6l1,7v58l1,3v30l1,1v12l1,41v7l1,3v14l-4,1h-32l-14,1h-23l-16,1h-37l-12,1h-45l-9,1h-9v-28l-1,-19h1v-20h-36l-22,1v1h-28l2,-6l-3,-1l-1,-12l-1,-12h3v-8h10l-1,-7l9,-2v-11h10Z"/><path data-race-id="AZ03" d="M21,773h2l-1,-1v-2h1v-1h1l-1,-2v-1h2v-3v1h-1l-2,-1l1,-1h1l-1,-4v-3l2,-1v1l1,-1l1,-1l1,-1l1,-1h1v-2l1,-1l1,-2v-1l1,-1l1,-1v-2h1l1,-3l1,-2h1v-1l1,-1v1h1v1h5l1,1h3l1,1h1l1,5l-4,4v8l5,1l-1,4h8l1,-5h25v6h38l18,1l2,-12l19,-2v-3h10v-4l17,-7h41v-93l1,-8v-32l24,5l24,5l19,6l10,2l14,5l11,2l12,-6h7l3,6h13l3,-13l7,-4v3h4l1,7l-7,3v3l10,1l-3,6l-10,1h1v23h14v94h7v-7h14v-7h25v-4h14v5h5v6l-5,1l-3,6v30h62l7,8l1,10l9,-1v5l14,-2v8h8l2,4l3,2v7h14v8l9,8l4,13h-10v11l-9,2l1,7h-10v8h-3l1,12l1,12l3,1l-2,6h28v-1l22,-1h36v20h-1l1,19v28h-89l-26,-10l-14,-5l-5,-2l-21,-7l-16,-6l-15,-6l-16,-5l-8,-4l-21,-7l-23,-9h-3l-21,-9l-21,-7l-22,-9l-17,-6l-15,-5l-30,-11l-8,-4l-6,-2l-11,-4l-65,-25l-16,-7l-19,-6l-20,-9h-2l-12,-5l-8,-4l-22,-8l-11,-4l-29,-11l-4,-1v-1Z"/><path data-race-id="AZ04" d="M48,176l4,-2h1l2,-1h2v1v-1l2,-1l11,-5h10v4h8l4,-3l7,1v1l2,2v1l3,3h1l1,1v1l1,2v1h-1v1l3,2h1l2,3v1l1,1l2,1l1,1h2l10,-2l5,-11v-1l2,-3v-1l8,-13v-31l1,-3v-83l1,-17l4,1h42l4,1h63l1,1h48v28l1,1h30l-3,7v9l-2,9l1,17l-5,5l3,15v1l1,1l-1,1v-1v1v-1l2,7l-5,9l-9,1l-9,10h-11l-2,4l-6,3l-14,2l-13,9l-9,3l-3,10l-13,-1l-5,7l2,13h3l-2,12l3,3l-2,9l-2,5l-6,9h-8l-10,-3l-13,-15l-2,5l-5,-6l-7,-4v-8l-9,-9v-7l-3,-4l-11,-3l-2,-4v24h-1v27l-5,4l-3,-3l-10,8l7,3l6,12l5,-7l3,4l7,-2v-4l17,20l11,14h36l2,-2l1,-3h10l6,3h5l6,6l22,14l2,6l25,7l11,1l16,12h14l4,-4l-1,19h15v30h45l-3,7l-7,8l3,13l10,-3l5,2l6,-2l-1,6l3,5v8l-6,5l-6,6h4l5,8v7l5,4h6l-1,4l7,5l-1,6l4,10l9,4l4,8l1,-13l15,-9v-6l2,1l2,-3h2v2l-1,1l-3,2l9,-1v1l-6,2v-1v1l1,5l5,-4l3,2l7,-3l-1,1v1l-2,-1v8l5,-1l-3,-1l1,-4l2,-1l6,1l4,-1l6,-2h1l2,-2l4,6l5,2l4,2l16,3l10,9l10,3l1,4l7,2l1,-6h6v39h1v37l6,25v3l-8,2v3l-5,-1l-7,5h-4l-7,7l-5,-3l1,-4l-4,-6l-3,-17l-5,-9l-6,7l1,7l-3,4l-8,2l-6,5l-2,2h-4l3,6l5,3l2,-6l8,-6l1,3l15,32l7,17l3,3l2,11l-2,-3h-9v-3l-9,1l-1,5l1,8l4,2l1,4h-14v17l-10,-1l-11,2l2,12l-6,5l-7,-2l-8,2l-3,-5h-6v-17h-24v-14h15v-44l-4,-5l-10,-1l2,-7l3,-1l3,-28l-4,1l-4,-8l-12,1v-10h-10l1,-6l-1,-8h-8v7l-6,-2l-1,-5h-16v-12l-3,-1h-5l-4,10v1v-1v1l-8,-1l-5,3l-1,12l-5,2l1,12l-5,3l-1,-4v-2l-10,1h-7v-9h-10l2,5l-1,6h-9l-1,8h-3l-3,9h20l2,30h-7l-12,6l-11,-2l-14,-5l-10,-2l-19,-6l-24,-5l-24,-5v32l-1,8v93h-41l-17,7v4h-10v3l-19,2l-2,12l-18,-1h-38v-6h-25l-1,5h-8l1,-4l-5,-1v-8l4,-4l-1,-5v-1h5v-2h2v-1h3v-1h2v-2l-1,-1v-3l2,-2l2,-2v-1h3l2,-3l1,-5v-2l1,-2v-3l-1,-1h-1v-4l1,-1v-4h-2v1l-1,-1v-2h-1v-4l-1,-1v-1l-1,-1v-1l-5,-1h-4v1h-1l-1,1l-5,-2l-1,-1l-1,-1l-1,1l-1,1l-2,-1v-1h-1v-3l-1,-3l-2,-1l-1,-3l5,-13v-8h-1v-3l1,-1h1v-2h-1l-1,-2h-4l-1,-5l1,-1l1,-1l1,-2l1,-1v-4l-1,-2v-1l-1,-1v-1h-1v-1l1,-1h2l1,-1v-1h1l4,1l4,-2v-5l1,-1l1,-1l3,-3v-2l2,-2h1l1,-1v-1l1,-1l4,-3l1,-1h-1v-4h-1v-3l1,-1v-5l2,-5h-1l3,-5l1,-1l1,-1v-2l-1,-1l-1,-2v-7l-1,-1v-3h-1v-3l1,-1l-1,-3l-1,-1v-2h3v-1h1v-2h-1v-1h-1v-3l1,1v-3l-3,-2v-3h1l2,-3v1l2,-1l1,-1l1,-1l1,-1l1,-1l1,-1h1v-1l3,-4v-5l1,-7l1,-1h1l1,-1h3l1,-1l3,-1l2,-2h3v-1h1l1,-1v-1h1v-1h1v-1l3,-1h2l1,-1l1,-1l2,-1v-1l5,-4l2,-3h1v-1l1,-1l1,-1h4v-8l-2,-1l-2,-3l-1,-1v-1l-1,-1v-1h-2l-1,-1l-2,-1h-2l-1,-1v-2h-1l-1,-1v-1l-2,-1v-1h-3l-1,-2v-1l-1,-1v-1h-1l-2,-1l-1,-1v-1h-6l-1,-3l1,-1v-7l-7,-18l-1,-1v-2l-1,-2l-1,-1v-1h1v-1h-1v-2h-1l-1,-2v-3h-1l-1,-1l-1,-1l-1,-1l-1,-1l-1,-1l-1,-1h-1l-1,-1l-1,-2l-1,-1l-1,-1v-1l-1,-1v-4h-1v-2l-1,-1v-1l-2,-2h-1v-1h-1l-2,-9v-12l1,-1v-2l-1,-1v-1l-1,-3l5,-8v-1h-1l-2,-2h-2v-1l1,-3l3,-1l6,-3v-11h-1v-6l-1,-15l-3,-7l-1,-5v-1l-5,-9l-1,-4h-1h1l-1,-2l2,-3l1,-1v-17l-2,-3h-1l1,-8l-3,-2l1,-9l-1,-6v-8l5,-4h1v-1l-4,-4l-1,-1l-1,-1v-5l-3,-3v-1l-1,-5l3,-6v-1l-3,-1v-3h1v-1h-1v-2Z"/><path data-race-id="AZ05" d="M432,648h10l-2,-14h5v-10l-4,-3l6,-5h7l5,-5l3,2l10,1l4,5v44h-44Z"/><path data-race-id="AZ06" d="M403,567l11,-3v-17h11l1,5l6,2v-7h8l1,8l-1,6h10v10l12,-1l4,8l4,-1l-3,28l-3,1l-2,7l-3,-2l-5,5h-7l-6,5l-11,4l2,-8h-7v-6l-7,-2v-4l-6,-1l-1,-4l-7,1l-3,6l-5,-2v-19l-2,-5l7,-3l-1,-10Z"/><path data-race-id="AZ07" d="M383,612l-1,-7h14l5,2h5l1,10h13v17l3,1l-8,5v3l-9,1v2h-9l-13,-14l3,-6l-10,-1v-3l7,-3Z"/><path data-race-id="AZ08" d="M347,573l1,-6l-2,-5h10v9h7l10,-1v2l1,4l5,-3l-1,-12l5,-2l1,-12l5,-3l8,1v-1v1v-1l4,-10h5l3,1v12h5v17l-11,3l-3,1l1,10l-7,3l2,5v19h-14l1,7h-4v-3l-7,4l-3,13h-13l-3,-6l-2,-30h-20l3,-9h3l1,-8Z"/><path data-race-id="AZ09" d="M397,646h9v-2l9,-1v-3l8,-5l-3,-1v-17h-13l-1,-10h-5l3,-6l7,-1l1,4l6,1v4l7,2v6h7l-2,8l11,-4l4,3v10h-5l2,14h-43Z"/>  <path class="mesh" d="M833,787h-9l-17,1h-42l-3,1h-44v1h-41l-2,1h-40v-14h-47l-10,1l-5,17h-5l-4,5v5l-7,-5l-9,-2l1,8h3v4l-3,2l-2,-4h-8v-8l-14,2v-5l-9,1l-1,-10l-7,-8h-62v-30l3,-6l5,-1v-6h-5v-5h-14v4h-25v7h-14v7h-7v-94h-14v-23h-1l10,-1l13,14l2,2h33v15h29v14h24v17h6l3,5l8,-2l7,2l6,-5l-2,-12l11,-2l10,1v-17h14l-1,-4l-4,-2l-1,-8l1,-5l9,-1v3h9l2,3l-2,-11l-3,-3l-7,-17l-15,-32l-1,-3l-8,6l-2,6l-5,-3l-3,-6h4l2,-2l6,-5l8,-2l3,-4l-1,-7l6,-7l5,9l3,17l4,6l-1,4l5,3l7,-7h4l7,-5l5,1v-3l8,-2v-3l-6,-25v-37h-1v-39h-6l-1,6l-7,-2l-1,-4l-10,-3l-10,-9l-16,-3l-4,-2l-5,-2l-4,-6l-2,2h-1l-6,2l-4,1l-6,-1l-2,1l-1,4l3,1l-5,1v-8l2,1v-1l1,-1l-7,3l-3,-2l-5,4l-1,-5v-1v1l6,-2v-1l-9,1l3,-2l1,-1v-2h-2l-2,3l-2,-1v6l-15,9l-1,13l-4,-8l-9,-4l-4,-10l1,-6l-7,-5l1,-4h-6l-5,-4v-7l-5,-8h-4l6,-6l6,-5v-8l-3,-5l1,-6l-6,2l-5,-2l-10,3l-3,-13l7,-8l3,-7h-45v-30h-15l1,-19l-4,4h-14l-16,-12l-11,-1l-25,-7l-2,-6l-22,-14l-6,-6h-5l-6,-3h-10l-1,3l-2,2h-36l-11,-14l-17,-20v4l-7,2l-3,-4l-5,7l-6,-12l-7,-3l10,-8l3,3l5,-4v-27h1v-24l2,4l11,3l3,4v7l9,9v8l7,4l5,6l2,-5l13,15l10,3h8l6,-9l2,-5l2,-9l-3,-3l2,-12h-3l-2,-13l5,-7l13,1l3,-10l9,-3l13,-9l14,-2l6,-3l2,-4h11l9,-10l9,-1l5,-9l-2,-7v1l1,-1l-1,-1v-1l-3,-15l5,-5l-1,-17l2,-9v-9l3,-7h-30l-1,-1v-28M51,738l1,5l-4,4v8l5,1l-1,4h8l1,-5h25v6h38l18,1l2,-12l19,-2v-3h10v-4l17,-7h41v-93l1,-8v-32l24,5l24,5l19,6l10,2l14,5l11,2l12,-6h7l3,6h13l3,-13l7,-4v3h4l1,7l-7,3v3l10,1l-3,6M461,663h15v-44l-4,-5l-10,-1l2,-7l3,-1l3,-28l-4,1l-4,-8l-12,1v-10h-10l1,-6l-1,-8h-8v7l-6,-2l-1,-5h-16v-12l-3,-1h-5l-4,10v1v-1v1l-8,-1l-5,3l-1,12l-5,2l1,12l-5,3l-1,-4v-2l-10,1h-7v-9h-10l2,5l-1,6h-9l-1,8h-3l-3,9h20l2,30M432,648h10l-2,-14h5v-10l-4,-3l6,-5h7l5,-5l3,2M441,621l-11,4l2,-8h-7v-6l-7,-2v-4l-6,-1l-1,-4l-7,1l-3,6l-5,-2v-19l-2,-5l7,-3l-1,-10l3,-1l11,-3v-17M383,612l-1,-7h14M401,607h5l1,10h13v17l3,1l-8,5v3l-9,1v2h-9M637,974v-28l-1,-19h1v-20h-36l-22,1v1h-28l2,-6l-3,-1l-1,-12l-1,-12h3v-8h10l-1,-7l9,-2v-11h10l-4,-13l-9,-8v-8h-14v-7l-3,-2"/></svg>