<svg version="1.1" xmlns="http://www.w3.org/2000/svg" width="860" height="1000" viewBox="0 0 860 1000">
  <path d="M619 28
h 55
l 3 -1
h 40
l 8 -1
h 33
l 1 -1
h 34
l 9 -1
h 9
v 7
l 1 4
v 28
l 1 1
v 27
l 1 2
v 21
l 1 13
v 25
l 1 1
v 40
l 1 18
v 28
l 1 2
v 30
l 1 2
v 26
l 1 3
v 52
l 1 5
v 24
l 1 5
v 23
l 1 8
v 22
l 1 4
v 26
l 1 2
v 58
l 1 8
v 23
l 1 2
v 19
l 1 9
v 28
l 1 3
v 57
l 1 2
v 16
l 1 12
v 3
l 1 28
v 25
l 1 5
v 22
l 1 7
v 58
l 1 3
v 30
l 1 1
v 12
l 1 16
v 32
l 1 3
v 14
l -6 1
h -30
l -14 1
h -23
l -16 1
h -37
l -12 1
h -45
l -9 1
h -98
l -40 -15
l -5 -2
l -21 -7
l -16 -6
l -15 -6
l -16 -5
l -29 -11
l -19 -7
l -28 -11
l -21 -7
l -22 -9
l -17 -6
l -15 -5
l -30 -11
l -8 -4
l -6 -2
l -11 -4
l -65 -25
l -16 -7
l -19 -6
l -20 -9
h -2
l -12 -5
l -8 -4
l -22 -8
l -11 -4
l -29 -11
l -4 -1
v -3
h 2
l -1 -1
v -2
h 1
v -1
h 1
l -1 -2
v -1
h 2
v -3
v 1
h -1
l -2 -1
l 1 -1
h 1
l -1 -4
v -3
l 2 -1
v 1
l 1 -1
l 1 -1
l 1 -1
l 1 -1
h 1
v -2
l 1 -1
l 1 -2
v -1
l 1 -1
l 1 -1
v -2
h 1
l 1 -3
l 1 -2
h 1
v -1
l 1 -1
v 1
h 1
v 1
h 5
l 1 1
h 3
l 1 1
h 1
v -1
h 5
v -2
h 2
v -1
h 3
v -1
h 2
v -2
l -1 -1
v -3
l 2 -2
l 2 -2
v -1
h 3
l 2 -3
l 1 -5
v -2
l 1 -2
v -3
l -1 -1
h -1
v -4
l 1 -1
v -4
h -2
v 1
l -1 -1
v -2
h -1
v -4
l -1 -1
v -1
l -1 -1
v -1
l -5 -1
h -4
v 1
h -1
l -1 1
l -5 -2
l -1 -1
l -1 -1
l -1 1
l -1 1
l -2 -1
v -1
h -1
v -3
l -1 -3
l -2 -1
l -1 -3
l 5 -13
v -8
h -1
v -3
l 1 -1
h 1
v -2
h -1
l -1 -2
h -4
l -1 -5
l 1 -1
l 1 -1
l 1 -2
l 1 -1
v -4
l -1 -2
v -1
l -1 -1
v -1
h -1
v -1
l 1 -1
h 2
l 1 -1
v -1
h 1
l 4 1
l 4 -2
v -5
l 1 -1
l 1 -1
l 3 -3
v -2
l 2 -2
h 1
l 1 -1
v -1
l 1 -1
l 4 -3
l 1 -1
h -1
v -4
h -1
v -3
l 1 -1
v -5
l 2 -5
h -1
l 3 -5
l 1 -1
l 1 -1
v -2
l -1 -1
l -1 -2
v -7
l -1 -1
v -3
h -1
v -3
l 1 -1
l -1 -3
l -1 -1
v -2
h 3
v -1
h 1
v -2
h -1
v -1
h -1
v -3
l 1 1
v -3
l -3 -2
v -3
h 1
l 2 -3
v 1
l 2 -1
l 1 -1
l 1 -1
l 1 -1
l 1 -1
l 1 -1
h 1
v -1
l 3 -4
v -5
l 1 -7
l 1 -1
h 1
l 1 -1
h 3
l 1 -1
l 3 -1
l 2 -2
h 3
v -1
h 1
l 1 -1
v -1
h 1
v -1
h 1
v -1
l 3 -1
h 2
l 1 -1
l 1 -1
l 2 -1
v -1
l 5 -4
l 2 -3
h 1
v -1
l 1 -1
l 1 -1
h 4
v -8
l -2 -1
l -2 -3
l -1 -1
v -1
l -1 -1
v -1
h -2
l -1 -1
l -2 -1
h -2
l -1 -1
v -2
h -1
l -1 -1
v -1
l -2 -1
v -1
h -3
l -1 -2
v -1
l -1 -1
v -1
h -1
l -2 -1
l -1 -1
v -1
h -6
l -1 -3
l 1 -1
v -7
l -7 -18
l -1 -1
v -2
l -1 -2
l -1 -1
v -1
h 1
v -1
h -1
v -2
h -1
l -1 -2
v -3
h -1
l -1 -1
l -1 -1
l -1 -1
l -1 -1
l -1 -1
l -1 -1
h -1
l -1 -1
l -1 -2
l -1 -1
l -1 -1
v -1
l -1 -1
v -4
h -1
v -2
l -1 -1
v -1
l -2 -2
h -1
v -1
h -1
l -2 -9
v -12
l 1 -1
v -2
l -1 -1
v -1
l -1 -3
l 5 -8
v -1
h -1
l -2 -2
h -2
v -1
l 1 -3
l 3 -1
l 6 -3
v -11
h -1
v -6
l -1 -15
l -3 -7
l -1 -5
v -1
l -5 -9
l -1 -4
h -1
h 1
l -1 -2
l 2 -3
l 1 -1
v -17
l -2 -3
h -1
l 1 -8
l -3 -2
l 1 -9
l -1 -6
v -8
l 5 -4
h 1
v -1
l -4 -4
l -1 -1
l -1 -1
v -5
l -3 -3
v -1
l -1 -5
l 3 -6
v -1
l -3 -1
v -3
h 1
v -1
h -1
v -5
l 4 -2
h 1
l 2 -1
h 2
v 1
v -1
l 2 -1
l 11 -5
h 10
v 4
h 8
l 4 -3
l 7 1
v 1
l 2 2
v 1
l 3 3
h 1
l 1 1
v 1
l 1 2
v 1
h -1
v 1
l 3 2
h 1
l 2 3
v 1
l 1 1
l 2 1
l 1 1
h 2
l 10 -2
l 5 -11
v -1
l 2 -3
v -1
l 8 -13
v -31
l 1 -3
v -83
l 1 -17
l 4 1
h 42
l 4 1
h 63
l 1 1
h 299
l 4 -1
h 54
Z"/>
<g class="districts">
<path data-race-id="AZ01" d="M152 231
l 3 3
l 5 -4
v -27
h 1
v -24
l 2 4
l 11 3
l 3 4
v 7
l 9 9
v 8
l 7 4
l 5 6
l 2 -5
l 13 15
l 10 3
h 8
l 6 -9
l 2 -5
l 2 -9
l -3 -3
l 2 -12
h -3
l -2 -13
l 5 -7
l 13 1
l 3 -10
l 9 -3
l 13 -9
l 14 -2
l 6 -3
l 2 -4
h 11
l 9 -10
l 9 -1
l 5 -9
l -2 -7
v 1
v -1
v 1
l 1 -1
l -1 -1
v -1
l -3 -15
l 5 -5
l -1 -17
l 2 -9
v -9
l 3 -7
h -30
l -1 -1
v -28
h 251
l 4 -1
h 112
l 3 -1
h 40
l 8 -1
h 33
l 1 -1
h 34
l 9 -1
h 9
v 7
l 1 4
v 28
l 1 1
v 27
l 1 2
v 21
l 1 13
v 25
l 1 1
v 40
l 1 18
v 28
l 1 2
v 30
l 1 2
v 26
l 1 3
v 52
l 1 5
v 24
l 1 5
v 23
l 1 8
v 22
l 1 4
v 26
l 1 2
v 58
l 1 8
v 23
l 1 2
v 19
l 1 9
v 28
l 1 3
v 57
l 1 2
v 16
l 1 12
v 29
l 1 2
v 25
l 1 5
v 16
h -9
l -17 1
h -42
l -3 1
h -44
v 1
h -41
l -2 1
h -40
v -14
h -47
l -10 1
l -5 17
h -5
l -4 5
v 5
l -7 -5
l -9 -2
l 1 8
h 3
v 4
l -3 2
l -2 -4
h -8
v -8
l -14 2
v -5
l -9 1
l -1 -10
l -7 -8
h -62
v -30
l 3 -6
l 5 -1
v -6
h -5
v -5
h -14
v 4
h -25
v 7
h -14
v 7
h -7
v -94
h -14
v -23
h -1
l 10 -1
l 13 14
l 2 2
h 33
v 15
h 29
v 14
h 24
v 17
h 6
l 3 5
l 8 -2
l 7 2
l 6 -5
l -2 -12
l 11 -2
l 10 1
v -17
h 14
l -1 -4
l -4 -2
l -1 -8
l 1 -5
l 9 -1
v 3
h 9
l 2 3
l -2 -11
l -3 -3
l -7 -17
l -15 -32
l -1 -3
l -8 6
l -2 6
l -5 -3
l -3 -6
h 4
l 2 -2
l 6 -5
l 8 -2
l 3 -4
l -1 -7
l 6 -7
l 5 9
l 3 17
l 4 6
l -1 4
l 5 3
l 7 -7
h 4
l 7 -5
l 5 1
v -3
l 8 -2
v -3
l -6 -25
v -37
h -1
v -39
h -6
l -1 6
l -7 -2
l -1 -4
l -10 -3
l -10 -9
l -16 -3
l -4 -2
l -5 -2
l -4 -6
l -2 2
h -1
l -6 2
l -4 1
l -6 -1
l -2 1
l -1 4
l 3 1
l -5 1
v -8
l 2 1
v -1
l 1 -1
l -7 3
l -3 -2
l -5 4
l -1 -5
v -1
v 1
l 6 -2
v -1
l -9 1
l 3 -2
l 1 -1
v -2
h -2
l -2 3
l -2 -1
v 6
l -15 9
l -1 13
l -4 -8
l -9 -4
l -4 -10
l 1 -6
l -7 -5
l 1 -4
h -6
l -5 -4
v -7
l -5 -8
h -4
l 6 -6
l 6 -5
v -8
l -3 -5
l 1 -6
l -6 2
l -5 -2
l -10 3
l -3 -13
l 7 -8
l 3 -7
h -45
v -30
h -15
l 1 -19
l -4 4
h -14
l -16 -12
l -11 -1
l -25 -7
l -2 -6
l -22 -14
l -6 -6
h -5
l -6 -3
h -10
l -1 3
l -2 2
h -36
l -11 -14
l -17 -20
v 4
l -7 2
l -3 -4
l -5 7
l -6 -12
l -7 -3
Z"/>
<path data-race-id="AZ02" d="M575 837
l -9 -8
v -8
h -14
v -7
l -3 -2
l 3 -2
v -4
h -3
l -1 -8
l 9 2
l 7 5
v -5
l 4 -5
h 5
l 5 -17
l 10 -1
h 47
v 14
h 40
l 2 -1
h 41
v -1
h 44
l 3 -1
h 42
l 17 -1
h 9
v 6
l 1 7
v 58
l 1 3
v 30
l 1 1
v 12
l 1 41
v 7
l 1 3
v 14
l -4 1
h -32
l -14 1
h -23
l -16 1
h -37
l -12 1
h -45
l -9 1
h -9
v -28
l -1 -19
h 1
v -20
h -36
l -22 1
v 1
h -28
l 2 -6
l -3 -1
l -1 -12
l -1 -12
h 3
v -8
h 10
l -1 -7
l 9 -2
v -11
h 10
Z"/>
<path data-race-id="AZ03" d="M21 773
h 2
l -1 -1
v -2
h 1
v -1
h 1
l -1 -2
v -1
h 2
v -3
v 1
h -1
l -2 -1
l 1 -1
h 1
l -1 -4
v -3
l 2 -1
v 1
l 1 -1
l 1 -1
l 1 -1
l 1 -1
h 1
v -2
l 1 -1
l 1 -2
v -1
l 1 -1
l 1 -1
v -2
h 1
l 1 -3
l 1 -2
h 1
v -1
l 1 -1
v 1
h 1
v 1
h 5
l 1 1
h 3
l 1 1
h 1
l 1 5
l -4 4
v 8
l 5 1
l -1 4
h 8
l 1 -5
h 25
v 6
h 38
l 18 1
l 2 -12
l 19 -2
v -3
h 10
v -4
l 17 -7
h 41
v -93
l 1 -8
v -32
l 24 5
l 24 5
l 19 6
l 10 2
l 14 5
l 11 2
l 12 -6
h 7
l 3 6
h 13
l 3 -13
l 7 -4
v 3
h 4
l 1 7
l -7 3
v 3
l 10 1
l -3 6
l -10 1
h 1
v 23
h 14
v 94
h 7
v -7
h 14
v -7
h 25
v -4
h 14
v 5
h 5
v 6
l -5 1
l -3 6
v 30
h 62
l 7 8
l 1 10
l 9 -1
v 5
l 14 -2
v 8
h 8
l 2 4
l 3 2
v 7
h 14
v 8
l 9 8
l 4 13
h -10
v 11
l -9 2
l 1 7
h -10
v 8
h -3
l 1 12
l 1 12
l 3 1
l -2 6
h 28
v -1
l 22 -1
h 36
v 20
h -1
l 1 19
v 28
h -89
l -26 -10
l -14 -5
l -5 -2
l -21 -7
l -16 -6
l -15 -6
l -16 -5
l -8 -4
l -21 -7
l -23 -9
h -3
l -21 -9
l -21 -7
l -22 -9
l -17 -6
l -15 -5
l -30 -11
l -8 -4
l -6 -2
l -11 -4
l -65 -25
l -16 -7
l -19 -6
l -20 -9
h -2
l -12 -5
l -8 -4
l -22 -8
l -11 -4
l -29 -11
l -4 -1
v -1
Z"/>
<path data-race-id="AZ04" d="M48 176
l 4 -2
h 1
l 2 -1
h 2
v 1
v -1
l 2 -1
l 11 -5
h 10
v 4
h 8
l 4 -3
l 7 1
v 1
l 2 2
v 1
l 3 3
h 1
l 1 1
v 1
l 1 2
v 1
h -1
v 1
l 3 2
h 1
l 2 3
v 1
l 1 1
l 2 1
l 1 1
h 2
l 10 -2
l 5 -11
v -1
l 2 -3
v -1
l 8 -13
v -31
l 1 -3
v -83
l 1 -17
l 4 1
h 42
l 4 1
h 63
l 1 1
h 48
v 28
l 1 1
h 30
l -3 7
v 9
l -2 9
l 1 17
l -5 5
l 3 15
v 1
l 1 1
l -1 1
v -1
v 1
v -1
l 2 7
l -5 9
l -9 1
l -9 10
h -11
l -2 4
l -6 3
l -14 2
l -13 9
l -9 3
l -3 10
l -13 -1
l -5 7
l 2 13
h 3
l -2 12
l 3 3
l -2 9
l -2 5
l -6 9
h -8
l -10 -3
l -13 -15
l -2 5
l -5 -6
l -7 -4
v -8
l -9 -9
v -7
l -3 -4
l -11 -3
l -2 -4
v 24
h -1
v 27
l -5 4
l -3 -3
l -10 8
l 7 3
l 6 12
l 5 -7
l 3 4
l 7 -2
v -4
l 17 20
l 11 14
h 36
l 2 -2
l 1 -3
h 10
l 6 3
h 5
l 6 6
l 22 14
l 2 6
l 25 7
l 11 1
l 16 12
h 14
l 4 -4
l -1 19
h 15
v 30
h 45
l -3 7
l -7 8
l 3 13
l 10 -3
l 5 2
l 6 -2
l -1 6
l 3 5
v 8
l -6 5
l -6 6
h 4
l 5 8
v 7
l 5 4
h 6
l -1 4
l 7 5
l -1 6
l 4 10
l 9 4
l 4 8
l 1 -13
l 15 -9
v -6
l 2 1
l 2 -3
h 2
v 2
l -1 1
l -3 2
l 9 -1
v 1
l -6 2
v -1
v 1
l 1 5
l 5 -4
l 3 2
l 7 -3
l -1 1
v 1
l -2 -1
v 8
l 5 -1
l -3 -1
l 1 -4
l 2 -1
l 6 1
l 4 -1
l 6 -2
h 1
l 2 -2
l 4 6
l 5 2
l 4 2
l 16 3
l 10 9
l 10 3
l 1 4
l 7 2
l 1 -6
h 6
v 39
h 1
v 37
l 6 25
v 3
l -8 2
v 3
l -5 -1
l -7 5
h -4
l -7 7
l -5 -3
l 1 -4
l -4 -6
l -3 -17
l -5 -9
l -6 7
l 1 7
l -3 4
l -8 2
l -6 5
l -2 2
h -4
l 3 6
l 5 3
l 2 -6
l 8 -6
l 1 3
l 15 32
l 7 17
l 3 3
l 2 11
l -2 -3
h -9
v -3
l -9 1
l -1 5
l 1 8
l 4 2
l 1 4
h -14
v 17
l -10 -1
l -11 2
l 2 12
l -6 5
l -7 -2
l -8 2
l -3 -5
h -6
v -17
h -24
v -14
h 15
v -44
l -4 -5
l -10 -1
l 2 -7
l 3 -1
l 3 -28
l -4 1
l -4 -8
l -12 1
v -10
h -10
l 1 -6
l -1 -8
h -8
v 7
l -6 -2
l -1 -5
h -16
v -12
l -3 -1
h -5
l -4 10
v 1
v -1
v 1
l -8 -1
l -5 3
l -1 12
l -5 2
l 1 12
l -5 3
l -1 -4
v -2
l -10 1
h -7
v -9
h -10
l 2 5
l -1 6
h -9
l -1 8
h -3
l -3 9
h 20
l 2 30
h -7
l -12 6
l -11 -2
l -14 -5
l -10 -2
l -19 -6
l -24 -5
l -24 -5
v 32
l -1 8
v 93
h -41
l -17 7
v 4
h -10
v 3
l -19 2
l -2 12
l -18 -1
h -38
v -6
h -25
l -1 5
h -8
l 1 -4
l -5 -1
v -8
l 4 -4
l -1 -5
v -1
h 5
v -2
h 2
v -1
h 3
v -1
h 2
v -2
l -1 -1
v -3
l 2 -2
l 2 -2
v -1
h 3
l 2 -3
l 1 -5
v -2
l 1 -2
v -3
l -1 -1
h -1
v -4
l 1 -1
v -4
h -2
v 1
l -1 -1
v -2
h -1
v -4
l -1 -1
v -1
l -1 -1
v -1
l -5 -1
h -4
v 1
h -1
l -1 1
l -5 -2
l -1 -1
l -1 -1
l -1 1
l -1 1
l -2 -1
v -1
h -1
v -3
l -1 -3
l -2 -1
l -1 -3
l 5 -13
v -8
h -1
v -3
l 1 -1
h 1
v -2
h -1
l -1 -2
h -4
l -1 -5
l 1 -1
l 1 -1
l 1 -2
l 1 -1
v -4
l -1 -2
v -1
l -1 -1
v -1
h -1
v -1
l 1 -1
h 2
l 1 -1
v -1
h 1
l 4 1
l 4 -2
v -5
l 1 -1
l 1 -1
l 3 -3
v -2
l 2 -2
h 1
l 1 -1
v -1
l 1 -1
l 4 -3
l 1 -1
h -1
v -4
h -1
v -3
l 1 -1
v -5
l 2 -5
h -1
l 3 -5
l 1 -1
l 1 -1
v -2
l -1 -1
l -1 -2
v -7
l -1 -1
v -3
h -1
v -3
l 1 -1
l -1 -3
l -1 -1
v -2
h 3
v -1
h 1
v -2
h -1
v -1
h -1
v -3
l 1 1
v -3
l -3 -2
v -3
h 1
l 2 -3
v 1
l 2 -1
l 1 -1
l 1 -1
l 1 -1
l 1 -1
l 1 -1
h 1
v -1
l 3 -4
v -5
l 1 -7
l 1 -1
h 1
l 1 -1
h 3
l 1 -1
l 3 -1
l 2 -2
h 3
v -1
h 1
l 1 -1
v -1
h 1
v -1
h 1
v -1
l 3 -1
h 2
l 1 -1
l 1 -1
l 2 -1
v -1
l 5 -4
l 2 -3
h 1
v -1
l 1 -1
l 1 -1
h 4
v -8
l -2 -1
l -2 -3
l -1 -1
v -1
l -1 -1
v -1
h -2
l -1 -1
l -2 -1
h -2
l -1 -1
v -2
h -1
l -1 -1
v -1
l -2 -1
v -1
h -3
l -1 -2
v -1
l -1 -1
v -1
h -1
l -2 -1
l -1 -1
v -1
h -6
l -1 -3
l 1 -1
v -7
l -7 -18
l -1 -1
v -2
l -1 -2
l -1 -1
v -1
h 1
v -1
h -1
v -2
h -1
l -1 -2
v -3
h -1
l -1 -1
l -1 -1
l -1 -1
l -1 -1
l -1 -1
l -1 -1
h -1
l -1 -1
l -1 -2
l -1 -1
l -1 -1
v -1
l -1 -1
v -4
h -1
v -2
l -1 -1
v -1
l -2 -2
h -1
v -1
h -1
l -2 -9
v -12
l 1 -1
v -2
l -1 -1
v -1
l -1 -3
l 5 -8
v -1
h -1
l -2 -2
h -2
v -1
l 1 -3
l 3 -1
l 6 -3
v -11
h -1
v -6
l -1 -15
l -3 -7
l -1 -5
v -1
l -5 -9
l -1 -4
h -1
h 1
l -1 -2
l 2 -3
l 1 -1
v -17
l -2 -3
h -1
l 1 -8
l -3 -2
l 1 -9
l -1 -6
v -8
l 5 -4
h 1
v -1
l -4 -4
l -1 -1
l -1 -1
v -5
l -3 -3
v -1
l -1 -5
l 3 -6
v -1
l -3 -1
v -3
h 1
v -1
h -1
v -2
Z"/>
<path data-race-id="AZ05" d="M432 648
h 10
l -2 -14
h 5
v -10
l -4 -3
l 6 -5
h 7
l 5 -5
l 3 2
l 10 1
l 4 5
v 44
h -44
Z"/>
<path data-race-id="AZ06" d="M403 567
l 11 -3
v -17
h 11
l 1 5
l 6 2
v -7
h 8
l 1 8
l -1 6
h 10
v 10
l 12 -1
l 4 8
l 4 -1
l -3 28
l -3 1
l -2 7
l -3 -2
l -5 5
h -7
l -6 5
l -11 4
l 2 -8
h -7
v -6
l -7 -2
v -4
l -6 -1
l -1 -4
l -7 1
l -3 6
l -5 -2
v -19
l -2 -5
l 7 -3
l -1 -10
Z"/>
<path data-race-id="AZ07" d="M383 612
l -1 -7
h 14
l 5 2
h 5
l 1 10
h 13
v 17
l 3 1
l -8 5
v 3
l -9 1
v 2
h -9
l -13 -14
l 3 -6
l -10 -1
v -3
l 7 -3
Z"/>
<path data-race-id="AZ08" d="M347 573
l 1 -6
l -2 -5
h 10
v 9
h 7
l 10 -1
v 2
l 1 4
l 5 -3
l -1 -12
l 5 -2
l 1 -12
l 5 -3
l 8 1
v -1
v 1
v -1
l 4 -10
h 5
l 3 1
v 12
h 5
v 17
l -11 3
l -3 1
l 1 10
l -7 3
l 2 5
v 19
h -14
l 1 7
h -4
v -3
l -7 4
l -3 13
h -13
l -3 -6
l -2 -30
h -20
l 3 -9
h 3
l 1 -8
Z"/>
<path data-race-id="AZ09" d="M397 646
h 9
v -2
l 9 -1
v -3
l 8 -5
l -3 -1
v -17
h -13
l -1 -10
h -5
l 3 -6
l 7 -1
l 1 4
l 6 1
v 4
l 7 2
v 6
h 7
l -2 8
l 11 -4
l 4 3
v 10
h -5
l 2 14
h -43
Z"/>
</g>
  <path class="districts-mesh" d="M833 787
h -9
l -17 1
h -42
l -3 1
h -44
v 1
h -41
l -2 1
h -40
v -14
h -47
l -10 1
l -5 17
h -5
l -4 5
v 5
l -7 -5
l -9 -2
l 1 8
h 3
v 4
l -3 2
l -2 -4
h -8
v -8
l -14 2
v -5
l -9 1
l -1 -10
l -7 -8
h -62
v -30
l 3 -6
l 5 -1
v -6
h -5
v -5
h -14
v 4
h -25
v 7
h -14
v 7
h -7
v -94
h -14
v -23
h -1
l 10 -1
l 13 14
l 2 2
h 33
v 15
h 29
v 14
h 24
v 17
h 6
l 3 5
l 8 -2
l 7 2
l 6 -5
l -2 -12
l 11 -2
l 10 1
v -17
h 14
l -1 -4
l -4 -2
l -1 -8
l 1 -5
l 9 -1
v 3
h 9
l 2 3
l -2 -11
l -3 -3
l -7 -17
l -15 -32
l -1 -3
l -8 6
l -2 6
l -5 -3
l -3 -6
h 4
l 2 -2
l 6 -5
l 8 -2
l 3 -4
l -1 -7
l 6 -7
l 5 9
l 3 17
l 4 6
l -1 4
l 5 3
l 7 -7
h 4
l 7 -5
l 5 1
v -3
l 8 -2
v -3
l -6 -25
v -37
h -1
v -39
h -6
l -1 6
l -7 -2
l -1 -4
l -10 -3
l -10 -9
l -16 -3
l -4 -2
l -5 -2
l -4 -6
l -2 2
h -1
l -6 2
l -4 1
l -6 -1
l -2 1
l -1 4
l 3 1
l -5 1
v -8
l 2 1
v -1
l 1 -1
l -7 3
l -3 -2
l -5 4
l -1 -5
v -1
v 1
l 6 -2
v -1
l -9 1
l 3 -2
l 1 -1
v -2
h -2
l -2 3
l -2 -1
v 6
l -15 9
l -1 13
l -4 -8
l -9 -4
l -4 -10
l 1 -6
l -7 -5
l 1 -4
h -6
l -5 -4
v -7
l -5 -8
h -4
l 6 -6
l 6 -5
v -8
l -3 -5
l 1 -6
l -6 2
l -5 -2
l -10 3
l -3 -13
l 7 -8
l 3 -7
h -45
v -30
h -15
l 1 -19
l -4 4
h -14
l -16 -12
l -11 -1
l -25 -7
l -2 -6
l -22 -14
l -6 -6
h -5
l -6 -3
h -10
l -1 3
l -2 2
h -36
l -11 -14
l -17 -20
v 4
l -7 2
l -3 -4
l -5 7
l -6 -12
l -7 -3
l 10 -8
l 3 3
l 5 -4
v -27
h 1
v -24
l 2 4
l 11 3
l 3 4
v 7
l 9 9
v 8
l 7 4
l 5 6
l 2 -5
l 13 15
l 10 3
h 8
l 6 -9
l 2 -5
l 2 -9
l -3 -3
l 2 -12
h -3
l -2 -13
l 5 -7
l 13 1
l 3 -10
l 9 -3
l 13 -9
l 14 -2
l 6 -3
l 2 -4
h 11
l 9 -10
l 9 -1
l 5 -9
l -2 -7
v 1
l 1 -1
l -1 -1
v -1
l -3 -15
l 5 -5
l -1 -17
l 2 -9
v -9
l 3 -7
h -30
l -1 -1
v -28
M51 738
l 1 5
l -4 4
v 8
l 5 1
l -1 4
h 8
l 1 -5
h 25
v 6
h 38
l 18 1
l 2 -12
l 19 -2
v -3
h 10
v -4
l 17 -7
h 41
v -93
l 1 -8
v -32
l 24 5
l 24 5
l 19 6
l 10 2
l 14 5
l 11 2
l 12 -6
h 7
l 3 6
h 13
l 3 -13
l 7 -4
v 3
h 4
l 1 7
l -7 3
v 3
l 10 1
l -3 6
M461 663
h 15
v -44
l -4 -5
l -10 -1
l 2 -7
l 3 -1
l 3 -28
l -4 1
l -4 -8
l -12 1
v -10
h -10
l 1 -6
l -1 -8
h -8
v 7
l -6 -2
l -1 -5
h -16
v -12
l -3 -1
h -5
l -4 10
v 1
v -1
v 1
l -8 -1
l -5 3
l -1 12
l -5 2
l 1 12
l -5 3
l -1 -4
v -2
l -10 1
h -7
v -9
h -10
l 2 5
l -1 6
h -9
l -1 8
h -3
l -3 9
h 20
l 2 30
M432 648
h 10
l -2 -14
h 5
v -10
l -4 -3
l 6 -5
h 7
l 5 -5
l 3 2
M441 621
l -11 4
l 2 -8
h -7
v -6
l -7 -2
v -4
l -6 -1
l -1 -4
l -7 1
l -3 6
l -5 -2
v -19
l -2 -5
l 7 -3
l -1 -10
l 3 -1
l 11 -3
v -17
M383 612
l -1 -7
h 14
M401 607
h 5
l 1 10
h 13
v 17
l 3 1
l -8 5
v 3
l -9 1
v 2
h -9
M637 974
v -28
l -1 -19
h 1
v -20
h -36
l -22 1
v 1
h -28
l 2 -6
l -3 -1
l -1 -12
l -1 -12
h 3
v -8
h 10
l -1 -7
l 9 -2
v -11
h 10
l -4 -13
l -9 -8
v -8
h -14
v -7
l -3 -2"/>
</svg>