<svg version="1.1" xmlns="http://www.w3.org/2000/svg" width="855" height="1000" viewBox="0 0 855 1000">
  <path d="M194 30
h 14
l 2 1
h 21
l 1 1
h 23
l 1 1
h 31
l 3 1
h 67
l -1 9
v 74
l -1 55
v 70
l -1 8
v 36
l -1 9
v 31
l 1 7
l 4 2
v 1
l 2 1
l 2 2
v 1
l 9 8
l 8 7
l 7 6
l 2 3
h 1
l 1 1
l 3 3
l 25 23
h 1
l 9 8
l 8 7
l 11 10
l 8 7
l 12 11
l 8 7
l 1 1
l 3 2
l 8 7
l 25 23
l 11 10
l 1 1
l 25 23
l 12 10
l 2 2
l 5 5
l 10 8
l 18 17
l 23 20
l 20 18
l 5 4
l 16 15
l 5 5
l 2 1
l 15 13
l 5 5
l 15 14
h 1
l 20 19
l 15 13
l 11 10
l 2 2
l 12 11
l 2 1
l 4 4
l 5 4
l 14 13
v 5
h 1
v 1
l -1 1
v 1
l 1 1
v 1
h -1
v 3
h 1
v 1
h 1
v 1
h 1
l 1 1
l 1 1
v 1
l 1 1
v 1
l 1 1
v 2
h 2
v 1
h 1
l 1 1
v 1
h 1
l 1 1
l 1 1
h 1
v 2
h 1
v 4
h 1
v 2
l 1 1
l 1 1
v 1
h -1
l 2 1
v 2
h 1
v 1
l 2 3
v 1
l 1 1
l -1 1
v 4
l 1 1
h 4
v 1
l 1 1
h 1
l 1 1
v 1
h 2
v 1
h 2
l 1 1
v 1
h 3
v 1
h 1
l 1 1
h 1
v 3
h 1
l 1 1
v 3
l 1 1
v 1
h -3
v 2
l -2 1
v 1
l -1 1
h -1
v 2
h -2
v 1
h -1
l -1 1
l -1 -1
v 1
h -1
v 1
h -1
v 1
l -1 1
h -1
v 1
h -2
v 1
l -2 1
h -2
v 1
h -1
l -1 1
v 1
l -1 1
v 3
h 1
v 2
l -1 1
h -1
v 2
l -1 1
h -1
v 1
l -1 1
v 1
h -2
v 2
h -1
v 1
l 2 1
l 1 1
v 1
h -2
h 1
v 1
l 1 1
v 2
h -2
v 2
h 1
v 3
l 1 1
v 7
h 1
v 1
l 1 2
h -1
l -1 1
l -1 2
l 1 2
h -1
l 1 1
v 3
l -1 1
v 2
l 1 1
v 2
h -1
l -1 1
l -1 1
v 1
l -1 1
l -1 1
v 1
l -1 1
v 1
h -1
v 1
l -1 1
v 2
h -1
v 1
h -1
v 1
v -1
h -3
v 1
h -3
v 1
l 1 1
l 1 1
v 1
l 1 1
v 2
l -1 3
h -1
l -1 1
l 1 2
l 2 1
l 2 1
v 1
l -1 1
l 1 1
v 8
l -1 1
v 1
l -1 4
v 1
l 2 1
l 1 2
h 1
v 1
l 2 -1
l 1 1
l 1 1
h 2
l 1 -1
h 3
l 3 2
l 1 1
v 3
h 3
l -1 3
v 2
h 1
v 1
h 1
v 7
h -1
l -1 1
h -1
l -1 1
l -1 1
v 5
l -1 1
h -3
v 2
h -4
v 1
h -2
l -1 -1
h -3
v -1
h -1
v 2
h -1
v 1
h -1
l -9 2
l -10 1
h -3
l -15 2
l -11 1
l -9 1
l -7 1
h -1
l -6 1
l -20 3
l -24 3
l -32 4
l -4 1
l -22 2
l -1 1
l -8 1
h -4
l -6 1
l -8 1
l -1 -5
l 2 -1
l -1 -9
l -1 -1
h -2
v -1
h -1
v -1
l -6 -1
l 2 -7
l -6 -2
l 1 -4
h 1
v -2
l -2 -14
l -10 -19
l -15 -17
h -3
v -2
l -11 -8
l -4 -5
l -9 -7
l -3 -1
l -9 -6
l -7 -6
l -1 -2
l -6 3
l -3 -3
h -1
l -3 5
l -4 -1
l -8 -4
l 3 -9
l -6 -12
l -4 -5
l -20 -1
l -5 3
l -3 -3
l -8 -1
l -7 -4
l -7 -1
l -9 -4
l -4 -12
l -17 -11
l -7 -5
l -25 1
l -12 -6
l -23 -1
l -13 2
l -4 -7
l -12 -5
l 4 -12
l -2 -8
l 2 -10
l -4 -2
l 1 -8
l 2 -13
l -6 -7
l -6 1
l -10 -10
l 5 -9
l -4 -10
l -9 -1
l -8 -9
l -4 -9
l -8 -2
l -5 -5
l -2 -9
l -9 -8
l -2 -10
l -7 -5
l -4 -9
l -10 -11
l -6 -2
l -6 -13
l -2 -11
v -9
l -3 -2
l 3 -4
l 6 2
l 3 -3
l 4 -17
l -1 -4
l -8 -13
l -13 2
h -1
l -9 -5
l -7 -11
l -8 -8
v -17
l -3 -11
l -6 -5
l 3 -11
l -1 -8
v -4
l -1 -3
l 8 -3
l 3 2
v 8
h -1
l 2 12
l 9 2
l 10 11
l 4 2
l 6 -1
l -10 -6
l -3 -15
l -7 -12
l -5 -1
v -11
l -5 -1
v -5
l 5 -4
l 5 -5
l 8 4
l 5 -2
l 12 -1
l 11 4
h 7
l 3 -7
l 5 -1
h 1
l 2 2
l -1 1
v 4
l 2 -7
l -1 -1
l 1 1
h -9
v 4
l -7 3
l 4 -5
l 4 -10
l -3 6
l -6 5
l -5 -1
h -10
l -2 -7
h -7
l 2 2
l -6 8
l -8 -3
l -3 -9
l -1 -1
h -1
l 1 1
l 3 8
l -12 -9
l -2 4
l -6 -1
v -1
l -1 -1
h -1
v -1
h -1
l 4 5
v 14
l 1 7
l -3 2
l 3 5
h -1
v 1
v -1
v 1
h -2
l -1 -1
v 1
h -1
l -9 -9
h -6
l -7 -10
l -8 -4
l -7 4
l 5 -11
l 1 -7
l 4 3
l -8 -15
l -5 -2
l 1 -5
l -4 -8
l -11 -8
l -8 -9
l -3 -6
l -9 -11
l -7 -6
l -8 -12
l 4 -7
l -2 -12
h -1
l -3 -16
l -3 -5
l 1 -9
l 4 -9
l -1 -17
l -2 -2
l -1 -12
l -13 -18
l -4 -3
l -2 -7
l -5 -2
l -13 -14
v -12
l -3 -6
l 9 -22
l 7 -4
l 3 -10
l 7 -1
l -5 -4
l 4 -9
v -9
l -2 -1
l -1 -9
l 3 -1
l 4 -16
l 2 -15
l -2 -15
l -4 -13
l -5 -4
l 3 -9
l 1 -12
h 22
v 1
h 18
v 1
l 1 -1
h 11
l 1 1
h 30
l 2 1
h 20
l 4 1
h 26
Z
M466 882
l 6 1
l 13 6
l 6 10
l -13 -1
l -3 -10
l -6 -1
Z
M467 927
l 12 14
l 7 5
l -5 4
l -6 -5
l -7 -12
Z
M388 902
l 9 6
l -10 -1
Z
M358 823
l 13 2
l 5 4
l 7 -3
l 7 1
l -2 4
l -10 1
l -4 3
l -12 -1
Z
M345 827
l 1 4
l 6 1
l -3 5
l -9 4
l -4 -2
l -6 -8
Z"/>
<g class="districts">
<path data-race-id="CA01" d="M83 46
l 2 -5
l 2 -3
l 6 -2
l 3 -10
h 1
l 1 1
h 30
l 2 1
h 20
l 4 1
h 26
l 14 1
h 14
l 2 1
h 21
l 1 1
h 23
l 1 1
h 31
l 3 1
h 67
l -1 9
v 74
l -1 20
v 105
l -1 8
v 38
l -1 7
v 6
h -2
l -2 -6
l -4 1
l -2 -1
h -8
l -4 4
l -1 1
h -19
l 3 2
l -2 3
v 1
h -1
v 4
l -20 5
l -3 5
h -5
l 1 8
l -10 11
h -1
v 1
l -2 -1
v -1
v 1
h -1
v 1
l -7 -1
h -4
l -5 -1
l -3 -11
l 4 1
v -19
l 2 -6
l 14 -11
l 4 1
v -16
l 2 -9
l -5 4
l -6 7
h -12
l -5 15
l -4 3
l -16 4
l -1 -2
h -21
l 2 -7
h -8
l -1 -4
h -10
l -4 3
v -20
l 3 -6
l -2 -7
l 17 -1
l -6 -7
l -15 -1
h -25
l -1 -1
h -27
l -1 -11
l 2 -7
l -3 -19
v -9
l -6 -3
l 2 -7
l 4 -7
l 9 -4
l 7 -4
l 1 -4
l 7 -2
l -3 -11
l 5 -14
l 5 -5
v -5
l 1 -5
l 6 -3
l 1 -7
l 4 -1
l 1 -6
l -4 -3
v -16
l -5 -2
l -5 7
l -6 2
l -6 6
l -13 2
v 11
l 4 2
v 6
l -7 -3
l -8 -6
h -10
l -3 -7
l -9 -4
l -3 -7
l -1 -13
l -14 -1
l 4 -8
l -4 -8
l -3 -6
l 4 -8
Z"/>
<path data-race-id="CA02" d="M53 25
h 14
v 1
h 18
v 1
l 1 -1
h 10
l -3 10
l -6 2
l -2 3
l -2 5
v 12
l -4 8
l 3 6
l 4 8
l -4 8
l 14 1
l 1 13
l 3 7
l 9 4
l 3 7
h 10
l 8 6
l 7 3
v -6
l -4 -2
v -11
l 13 -2
l 6 -6
l 6 -2
l 5 -7
l 5 2
v 16
l 4 3
l -1 6
l -4 1
l -1 7
l -6 3
l -1 5
v 5
l -5 5
l -5 14
l 3 11
l -7 2
l -1 4
l -7 4
l -9 4
l -4 7
l -2 7
l 6 3
v 9
l 3 19
l -2 7
l 1 11
l 3 9
v 13
l -1 5
l -13 2
l 1 17
l 2 9
l -5 6
l -2 10
l 3 3
l 6 5
v 6
l 4 4
l 8 5
l 1 2
v -1
l 4 6
l 9 12
l -2 7
l 3 4
l -1 1
l -4 2
l -1 -2
l -1 1
l -3 4
l -7 -3
l -1 4
h -1
l 2 7
l 6 7
v 1
l 3 5
l 7 2
l 3 4
v 2
l 1 3
l 1 1
h 1
h -1
l -1 1
l 4 5
v 14
l 1 7
l -3 2
l 3 5
h -1
v 1
v -1
v 1
h -2
l -1 -1
v 1
h -1
l -9 -9
h -6
l -7 -10
l -8 -4
l -7 4
l 5 -11
l 1 -7
l 4 3
l -8 -15
l -5 -2
l 1 -5
l -4 -8
l -11 -8
l -8 -9
l -3 -6
l -9 -11
l -7 -6
l -8 -12
l 4 -7
l -2 -12
h -1
l -3 -16
l -3 -5
l 1 -9
l 4 -9
l -1 -17
l -2 -2
l -1 -12
l -13 -18
l -4 -3
l -2 -7
l -5 -2
l -13 -14
v -12
l -3 -6
l 9 -22
l 7 -4
l 3 -10
l 7 -1
l -5 -4
l 4 -9
v -9
l -2 -1
l -1 -9
l 3 -1
l 4 -16
l 2 -15
l -2 -15
l -4 -13
l -5 -4
l 3 -9
l 1 -12
Z"/>
<path data-race-id="CA03" d="M133 270
v -13
l -3 -9
h 27
l 1 1
h 25
l 15 1
l 6 7
l -17 1
l 2 7
l -3 6
v 20
l 4 -3
h 10
l 1 4
h 8
l -2 7
h 21
l 1 2
l 16 -4
l 4 -3
l 5 -15
h 12
l 6 -7
l 5 -4
l -2 9
v 16
l -4 -1
l -14 11
l -2 6
v 19
l -4 -1
l -6 4
v 7
h -4
l -2 19
l 7 1
h 1
l -1 1
v 1
l -2 4
l -11 -2
l -1 -6
h -3
l -2 6
l 6 8
l -1 2
l -2 8
h 2
l 4 3
v 1
l 5 2
l -3 2
l 3 5
h 7
l 2 7
l -9 1
v 4
l -7 5
l -1 4
l -1 2
l -2 3
l 1 1
h -9
v 4
l -7 3
l 4 -5
l 4 -10
l -3 6
l -6 5
l -5 -1
h -10
l -2 -7
h -8
l -1 -1
l -4 3
v -1
l -2 -4
h -1
v -15
h 12
l -4 -8
l -1 -2
l 2 -10
l -4 -13
l -5 -5
l -4 -14
l -9 -3
v -6
l -1 -1
l -4 -5
l -5 1
l -4 5
l -5 -1
v -1
l -7 -3
l -1 -6
v 1
l -2 1
l -6 -2
h -1
v -1
v 1
v -1
h -1
v 1
v -1
l -1 1
l -2 -4
l -1 -3
l -3 2
v 2
h -6
l -3 -3
l 2 -10
l 5 -6
l -2 -9
l -1 -17
l 13 -2
Z"/>
<path data-race-id="CA04" d="M245 331
l 6 -4
l 3 11
l 5 1
h 4
l 7 1
v -1
h 1
v -1
v 1
l 2 1
v -1
h 1
l 10 -11
l -1 -8
h 5
l 3 -5
l 20 -5
v -4
h 1
v -1
l 2 -3
l -3 -2
h 19
l 1 -1
l 4 -4
h 8
l 2 1
l 4 -1
l 2 6
h 2
v 25
l 1 7
l 4 2
v 1
l 2 1
l 2 2
v 1
l 9 8
l 8 7
l 7 6
l -2 12
l 4 5
v 14
l -5 1
l -1 6
v 13
l 6 6
l 5 -1
l 12 7
l 2 4
v 9
l 9 6
v 9
l -6 6
l 13 1
l 4 5
l 3 9
l 6 2
l 13 11
v 12
l 6 2
l 4 18
l 6 1
l 11 6
l 6 15
v 11
l 1 6
l -16 1
h -34
v 8
h -8
l -1 -6
l -6 -4
l -4 1
l -6 2
l -3 -7
l -6 1
l -7 2
l -4 -8
l -9 -5
l -3 -10
v -1
v 1
h -1
l -2 1
l -4 2
l -9 -10
l -11 -2
l -5 -8
l 5 -2
l -11 -8
l -7 -20
l -8 -16
l -20 -20
h -2
v -1
l -20 -25
l -6 -14
l -2 -8
l 1 -21
l -7 -21
l -2 1
l -13 -2
h -6
l -7 -1
l 2 -19
h 4
Z"/>
<path data-race-id="CA05" d="M118 322
h 6
v -2
l 3 -2
l 1 3
l 2 4
l 1 -1
v 1
v -1
h 1
v 1
v -1
v 1
h 1
l 6 2
l 2 -1
v -1
l 1 6
l 7 3
v 1
l 5 1
l 4 -5
l 5 -1
l 4 5
l 1 1
v 6
l 9 3
l 4 14
l 5 5
l 4 13
l -2 10
l 1 2
l 4 8
h -12
v 15
h 1
l 2 4
v 1
l 4 -3
l 1 1
h 1
l 2 2
l -6 8
l -8 -3
l -3 -9
l -1 -1
h -1
l 1 1
l 3 8
l -12 -9
l -2 4
l -6 -1
v -1
l -1 -1
h -1
v -1
h -1
l 1 -1
h 1
h -1
l -1 -1
l -1 -3
v -2
l -3 -4
l -7 -2
l -3 -5
v -1
l -6 -7
l -2 -7
h 1
l 1 -4
l 7 3
l 3 -4
l 1 -1
l 1 2
l 4 -2
l 1 -1
l -3 -4
l 2 -7
l -9 -12
l -4 -6
v 1
l -1 -2
l -8 -5
l -4 -4
v -6
Z
M189 425
l 2 5
h -6
l -1 1
v -1
v 1
l 1 1
h -5
l -10 -3
l 1 -1
l 5 -5
l 8 4
Z"/>
<path data-race-id="CA06" d="M229 356
h 3
l 1 6
l 11 2
l 2 -4
v -1
l 1 -1
h -1
h 6
l -6 12
l -1 1
l 2 9
h -6
l 2 4
l -2 2
l -5 -2
v -1
l -4 -3
h -2
l 2 -8
l 1 -2
l -6 -8
Z"/>
<path data-race-id="CA07" d="M241 386
l 2 -2
l -2 -4
h 6
l -2 -9
l 1 -1
l 6 -12
l 13 2
l 2 -1
l 7 21
l -1 21
l -9 4
l -10 1
l -4 -6
l -2 -7
h -7
l -3 -5
Z"/>
<path data-race-id="CA08" d="M382 399
l 1 -6
l 5 -1
v -14
l -4 -5
l 2 -12
l 2 3
h 1
l 1 1
l 3 3
l 25 23
h 1
l 9 8
l 8 7
l 11 10
l 8 7
l 12 11
l 8 7
l 1 1
l 3 2
l 8 7
l 25 23
l 11 10
l 1 1
l 25 23
l 12 10
l 2 2
l 5 5
l 10 8
l 18 17
l 23 20
l 20 18
l 5 4
l 16 15
l 5 5
l 2 1
l 15 13
l 5 5
l 15 14
h 1
l 20 19
l 15 13
l 11 10
l 2 2
l 12 11
l 2 1
l 4 4
l 5 4
l 14 13
v 5
h 1
v 1
l -1 1
v 1
l 1 1
v 1
h -1
v 3
h 1
v 1
h 1
v 1
h 1
l 1 1
l 1 1
v 1
l 1 1
v 1
l 1 1
v 2
h 2
v 1
h 1
l 1 1
v 1
h 1
l 1 1
l 1 1
h 1
v 2
h 1
v 4
h 1
v 2
l 1 1
l 1 1
v 1
h -1
l 2 1
v 2
h 1
v 1
l 2 3
v 1
l 1 1
l -1 1
v 4
l 1 1
h 4
v 1
l 1 1
h 1
l 1 1
v 1
h 2
v 1
h 2
l 1 1
v 1
h 3
v 1
h 1
l 1 1
h 1
v 3
h 1
l 1 1
v 3
l 1 1
v 1
h -3
v 2
l -2 1
v 1
l -1 1
h -1
v 2
h -2
v 1
h -1
l -1 1
l -1 -1
v 1
h -1
v 1
h -1
v 1
l -1 1
h -1
v 1
h -2
v 1
l -2 1
h -2
v 1
h -1
l -1 1
v 1
l -1 1
l -30 1
l -1 1
l -38 1
l -3 4
l -10 1
h -25
v 1
h -23
v 1
h -23
l -1 1
h -37
l -13 1
v 3
h -15
l -2 -2
l -1 -4
l 6 -1
l -4 -1
l -11 -1
l 2 -2
h 1
v -1
l -4 -4
l -11 -5
h -3
l -1 5
l -16 1
h -4
l 3 -10
l -1 -13
l -2 -27
v -15
h 3
v -55
l -1 -2
v -41
l -31 2
l 2 -14
l -3 -3
l -3 -21
l -4 -4
l -2 -9
l 2 -5
l -4 -3
l 1 -5
h -6
l -3 -11
l -4 -2
v -5
l -5 -8
v -5
l -1 -6
v -11
l -6 -15
l -11 -6
l -6 -1
l -4 -18
l -6 -2
v -12
l -13 -11
l -6 -2
l -3 -9
l -4 -5
l -13 -1
l 6 -6
v -9
l -9 -6
v -9
l -2 -4
l -12 -7
l -5 1
l -6 -6
Z"/>
<path data-race-id="CA09" d="M211 430
l 1 -2
h 7
l 3 -7
l 5 -1
h 1
l 2 2
l -1 1
v 4
l 2 -7
v -1
h -1
l 2 -3
l 1 -2
l 1 -4
l 7 -5
v -4
l 9 -1
l 4 6
l 10 -1
l 9 -4
l 2 8
l 6 14
l -1 1
v 33
l -5 -2
v -3
l -14 1
l -1 -4
l -6 -2
l -3 4
l -1 1
l -9 -1
l -4 4
h -6
v -6
h -2
l -10 -9
v 1
h -1
v -1
h -1
l -1 -2
l -6 -2
Z"/>
<path data-race-id="CA10" d="M231 455
h 6
l 4 -4
l 9 1
l 1 -1
l 3 -4
l 6 2
l 1 4
l 14 -1
v 3
l 5 2
v -33
l 1 -1
l 20 25
v 1
h 2
l 20 20
l -22 9
l -10 6
l -16 6
v 7
l -20 20
l -1 -2
l -4 -2
h -1
l -4 -2
l -2 4
l -6 -13
l 3 -2
l 1 -8
v -1
v 1
v -1
l -5 -3
v -6
l -1 -5
l -5 -2
Z"/>
<path data-race-id="CA11" d="M171 428
l -1 1
l 10 3
h 5
l -1 -1
v -1
v 1
l 1 -1
h 6
l -2 -5
l 12 -1
l 11 4
l -1 2
l -1 6
l 6 2
l 1 2
h 1
v 1
h 1
v -1
l 10 9
l -23 6
v -4
h -10
v 1
v -1
l -11 -2
l -5 -4
l -4 -6
l -3 -1
h -2
l -5 -1
v -5
Z"/>
<path data-race-id="CA12" d="M166 457
h -3
l -7 -3
v -1
l -1 -3
l 8 -3
l 3 2
Z"/>
<path data-race-id="CA13" d="M171 438
h 2
l 3 1
l 4 6
l 5 4
v 1
v -1
l -2 -1
v 1
v -1
l 1 1
l 5 7
v -1
v 1
l -1 1
l -2 1
v 1
l -1 1
l -2 2
l -7 -12
l -5 -1
Z"/>
<path data-race-id="CA14" d="M156 454
l 7 3
h 2
l 2 12
l 9 2
l 10 11
l -2 1
l -3 -2
l -8 1
v 1
l -1 2
l 3 4
v 1
h -1
l 1 1
v 1
h -2
l -5 1
l -5 3
v 1
v -5
l -3 -11
l -6 -5
l 3 -11
l -1 -8
v -3
Z"/>
<path data-race-id="CA15" d="M183 462
l 2 -2
l 1 -1
v -1
l 2 -1
l 1 -1
v -1
v 1
l -5 -7
l -1 -1
v 1
v -1
l 2 1
v 1
v -1
l 11 2
v 1
v -1
h 10
v 4
l 23 -6
h 2
v 6
l -1 20
l 5 2
l 1 5
l -30 -1
l -4 -8
l -3 -1
l -2 1
l -1 -1
l -5 1
l -5 4
l -3 -15
Z"/>
<path data-race-id="CA16" d="M257 524
l -2 -7
l 20 -20
v -7
l 16 -6
l 10 -6
l 22 -9
l 8 16
l 7 20
l 11 8
l -5 2
l 5 8
l 11 2
l 9 10
l 4 -2
l 2 -1
l -8 15
l -5 -1
l -4 2
l 7 5
h 11
l 2 9
l -20 2
v -9
l -9 -1
l -1 -5
l -6 1
l -5 4
h -9
l -9 -6
l -4 -11
l -5 -9
v -1
l -4 3
v 6
h -6
l -21 21
l -17 -9
l -7 -9
l 1 -5
l -2 -2
Z"/>
<path data-race-id="CA17" d="M186 477
l 5 -4
l 5 -1
l 1 1
l 2 -1
l 3 1
l 4 8
l 6 9
h -3
l -3 3
l -6 -2
v 4
l -7 4
l -5 -1
l 1 -3
l 1 1
v -1
h -1
l 1 -2
v -1
l 1 -2
l -1 -6
l 6 -1
Z"/>
<path data-race-id="CA18" d="M163 497
v -1
l 5 -3
l 5 -1
h 2
v -1
l -1 -1
h 1
v -1
l -3 -4
l 1 -2
v -1
l 8 -1
l 3 2
l 2 -1
l 4 2
l 1 6
l -1 2
v 1
l -1 2
h 1
v 1
l -1 -1
l -1 3
l 5 1
l 7 -4
v 1
h 1
v 1
l 1 2
l -1 2
l 4 4
l 1 1
v 1
h 1
l 3 3
l -3 3
l -1 5
v 1
l 2 1
l 1 2
l -1 1
h -1
l -1 -1
h -2
v 1
l -2 1
v -1
h -1
l -2 2
l -2 -3
l -3 1
v 1
l -5 6
l -1 3
h -1
l -9 -5
l -7 -11
l -8 -8
Z"/>
<path data-race-id="CA19" d="M209 490
h 3
l -6 -9
l 30 1
v 6
l 5 3
v 1
v -1
v 1
l -1 8
l -3 2
l 6 13
l 2 -4
l 4 2
h 1
l 4 2
l 1 2
l 2 7
l -3 8
l 2 2
h -16
l -7 -2
h -1
v -5
l -5 -1
l -1 2
l 2 1
l 1 9
l -2 2
l -6 -4
l -6 -8
l -2 -3
l -4 -3
l -1 -2
l -2 -1
v -1
l 1 -5
l 3 -3
l -3 -3
h -1
v -1
l -1 -1
l -4 -4
l 1 -2
l -1 -2
v -1
h -1
v -5
l 6 2
Z"/>
<path data-race-id="CA20" d="M188 533
l 1 -3
l 5 -6
v -1
l 3 -1
l 2 3
l 2 -2
h 1
v 1
l 2 -1
v -1
h 2
l 1 1
h 1
l 1 -1
l 4 3
l 2 3
l 6 8
l 6 4
l 2 -2
l -1 -9
l -2 -1
l 1 -2
l 5 1
v 5
h 1
l 7 2
h 16
l -1 5
l 7 9
l 17 9
l 10 10
l 16 16
l -1 16
h -5
l -2 5
l 4 4
l -3 6
l 2 7
l 11 7
l 5 6
h 7
l 3 7
l 6 2
l 2 9
h -33
v -1
h -39
l -19 -1
l -9 -8
l -2 -10
l -7 -5
l -4 -9
l -10 -11
l -6 -2
l -6 -13
l -2 -11
v -9
l -3 -2
l 3 -4
l 6 2
l 3 -3
l 4 -17
l -1 -4
l -8 -13
Z"/>
<path data-race-id="CA21" d="M310 527
v 1
l 5 9
l 4 11
l 9 6
h 9
l 5 -4
l 6 -1
l 1 5
l 9 1
v 9
l 20 -2
l 6 2
l 4 -4
l 7 10
v 3
l -1 1
h 1
l -9 9
h 4
v 8
h 4
v 14
h -5
v 21
h 4
l 4 -3
l 22 -2
l 2 1
l -2 7
l 4 5
l 10 -2
l 11 17
v 1
l 4 2
h -20
l -3 16
l 2 19
h -15
v 14
l 8 1
l 3 5
h 9
l -3 -9
l 3 -6
l 6 1
l 2 6
h 8
l 5 3
v 8
h -5
l -4 6
v 10
h -5
l -2 7
l -3 -11
h -11
v -9
l -9 -1
l -2 -8
h -5
l -25 -16
l -2 -6
l -17 1
l -5 3
v 1
h -6
l -2 -4
l -5 -4
v -10
h -9
v -17
h -2
l -2 -9
l -6 -2
l -3 -7
h -7
l -5 -6
l -11 -7
l -2 -7
l 3 -6
l -4 -4
l 2 -5
h 5
l 1 -16
l -16 -16
l -10 -10
l 21 -21
h 6
v -6
Z"/>
<path data-race-id="CA22" d="M362 546
l 5 1
l 8 -15
h 1
v -1
v 1
l 3 10
l 9 5
l 4 8
l 7 -2
l 6 -1
l 3 7
l 6 -2
l 4 -1
l 6 4
l 1 6
h -7
l -3 4
l -1 3
v 1
l -2 7
h 6
v 7
l 6 1
l -1 16
l 4 4
l -4 4
l -2 9
l -2 -1
l -22 2
l -4 3
h -4
v -21
h 5
v -14
h -4
v -8
h -4
l 9 -9
h -1
l 1 -1
v -3
l -7 -10
l -4 4
l -6 -2
l -2 -9
h -11
l -7 -5
Z"/>
<path data-race-id="CA23" d="M358 686
l 5 -3
l 17 -1
l 2 6
l 25 16
h 5
l 2 8
l 9 1
v 9
h 11
l 3 11
l 2 -7
h 5
v -10
l 4 -6
h 5
v -8
l -5 -3
h -8
l -2 -6
l -6 -1
l -3 6
l 3 9
h -9
l -3 -5
l -8 -1
v -14
h 15
l -2 -19
l 3 -16
h 20
l -4 -2
v -1
l -11 -17
l -10 2
l -4 -5
l 2 -7
l 2 -9
l 4 -4
l -4 -4
l 1 -16
l -6 -1
v -7
h -6
l 2 -7
v -1
l 1 -3
l 3 -4
h 15
v -8
h 34
l 16 -1
v 5
l 5 8
v 5
l 4 2
l 3 11
h 6
l -1 5
l 4 3
l -2 5
l 2 9
l 4 4
l 3 21
l 3 3
l -2 14
l 31 -2
v 41
l 1 2
v 55
h -12
v 6
l -9 -1
l -21 1
l 1 7
l -2 1
l -4 5
l -8 -1
l -1 -4
v -13
h -44
l -2 3
l -7 -2
h -22
v -5
l -16 -3
h -3
v -19
l -7 -1
l 1 -9
l -10 1
v -9
l -12 -1
v -8
h -5
v -9
h -3
Z"/>
<path data-race-id="CA24" d="M243 650
l 19 1
h 39
v 1
h 35
v 17
h 9
v 10
l 5 4
l 2 4
h 9
v 9
h 5
v 8
l 12 1
v 9
l 10 -1
l -1 9
l 7 1
v 19
h 3
l 16 3
v 5
h 22
l 7 2
l 12 29
l -3 3
h -13
l -2 5
l -10 -2
v -12
h -29
v 9
h 9
l -5 8
h -3
l 3 2
v 1
h 1
l 1 1
h 2
l 4 4
l -3 2
l 4 2
h 1
l -1 1
l -17 -11
l -7 -5
l -25 1
l -12 -6
l -23 -1
l -13 2
l -4 -7
l -12 -5
l 4 -12
l -2 -8
l 2 -10
l -4 -2
l 1 -8
l 2 -13
l -6 -7
l -6 1
l -10 -10
l 5 -9
l -4 -10
l -9 -1
l -8 -9
l -4 -9
l -8 -2
l -5 -5
Z
M358 823
l 13 2
l 5 4
l 7 -3
l 7 1
l -2 4
l -10 1
l -4 3
l -12 -1
Z
M345 827
l 1 4
l 6 1
l -3 5
l -9 4
l -4 -2
l -6 -8
Z"/>
<path data-race-id="CA25" d="M488 749
v 13
l 1 4
l 8 1
l 4 -5
l 2 -1
l -1 -7
l 21 -1
l 9 1
v -6
h 9
v 15
l 2 27
l -2 -3
h -19
v 1
v -1
v 1
l -2 -2
h -3
l -2 -5
h -7
v 2
l -8 2
v 4
h -1
l -1 1
v 2
h 1
h -1
v -1
v 2
h -10
v -6
l -6 1
l -1 5
h -7
l -1 4
v 1
l -5 4
l -2 1
h -4
v 4
h -2
l -4 1
l -5 2
l -4 -4
l 5 -4
l 4 -2
h 2
l 3 -1
h 1
l -8 -18
l -12 -29
l 2 -3
Z"/>
<path data-race-id="CA26" d="M397 775
h 29
v 12
l 10 2
l 2 -5
h 13
l 3 -3
l 8 18
h -1
l -3 1
h -2
l -4 2
l -5 4
l 4 4
l 5 -2
l 4 3
l -3 3
h -7
l -6 5
l -7 4
v 3
l -7 -4
l -7 -1
l -9 -4
l -4 -12
l 1 -1
h -1
l -4 -2
l 3 -2
l -4 -4
h -2
l -1 -1
h -1
v -1
l -3 -2
h 3
l 5 -8
h -9
Z
M388 902
l 9 6
l -10 -1
Z"/>
<path data-race-id="CA27" d="M496 803
l 1 -1
h 1
v -11
v 1
h 1
h -1
v -2
l 1 -1
h 1
v -4
l 8 -2
v -2
h 7
l 2 5
h 3
l 2 2
v -1
v 1
v -1
h 19
l 2 3
l 1 13
l -3 10
h 4
l 1 5
l -1 1
l -1 -1
h -4
v 2
l -1 1
l -2 -2
h -2
v -2
l -1 -2
l -8 4
l -3 -6
l -6 3
l -1 -1
l -2 4
l -1 1
l -2 1
h -1
l -1 2
v 3
h -3
l 1 1
h -4
l -1 -1
l -1 -1
v -16
Z"/>
<path data-race-id="CA28" d="M482 800
l -1 -7
l 1 -5
l 6 -1
v 6
h 10
v 9
h -1
l -1 1
l 5 6
v 9
l -1 -1
v -1
h -4
v 6
h -8
l -5 1
l 1 -4
v -1
h 2
l 1 -1
v -1
v 1
v -1
l 1 -1
l -3 -2
v -5
l 1 -4
l 1 -1
h -1
h 3
h -1
v -1
Z"/>
<path data-race-id="CA29" d="M473 798
v -1
l 1 -4
h 7
l 1 7
l 6 2
v 1
h 1
h -3
h 1
l -1 1
l -1 4
v 5
l -8 1
l -3 -4
l 2 -10
l -3 -2
Z"/>
<path data-race-id="CA30" d="M460 807
h 2
v -4
h 4
l 2 -1
l 5 -4
l 3 2
l -2 10
l 3 4
l 8 -1
l 3 2
l -1 1
v 1
v -1
v 1
l -1 1
h -2
v 1
l -10 -1
h -4
l -13 -4
l 3 -3
l -4 -3
Z"/>
<path data-race-id="CA31" d="M540 820
v -2
h 4
l 1 1
l 1 -1
l -1 -5
l 16 -1
l 1 -5
h 3
l 11 5
l 4 4
v 1
h -1
l -2 2
l 11 1
l 4 1
l -6 1
l 1 4
l 2 2
h -2
l -20 -1
l 2 -8
l -12 -3
l -3 5
l -14 -1
Z"/>
<path data-race-id="CA32" d="M510 821
h 1
l 2 -1
l 1 -1
l 2 -4
l 1 1
l 6 -3
l 3 6
l 8 -4
l 1 2
v 3
l -4 3
h -1
l -3 1
l -1 6
v 1
h -4
l -4 -2
h -8
l 2 -2
h 2
v -1
l -1 -1
h -1
l -2 -1
h -1
v -1
Z"/>
<path data-race-id="CA33" d="M437 826
v -3
l 7 -4
l 6 -5
h 7
l 13 4
h 4
l 10 1
l -1 4
l 5 -1
v 2
l -6 1
l -4 5
l 2 3
h -1
v 5
h 5
l 2 5
l 4 10
l 2 -2
v 4
l -4 3
l -8 -4
l 3 -9
l -6 -12
l -4 -5
l -20 -1
l -5 3
l -3 -3
l -8 -1
Z"/>
<path data-race-id="CA34" d="M488 824
v -2
h 8
v -6
h 4
v 1
l 1 1
v 7
l -2 2
l -3 2
l -2 -2
h -4
Z"/>
<path data-race-id="CA35" d="M531 824
v -1
h -1
h 1
l 4 -3
v -1
h 2
l 2 2
l 1 -1
l 14 1
l 3 -5
l 12 3
l -2 8
l -1 -1
h -14
v 2
l -4 9
l -4 1
l -1 -3
l -7 -7
h -1
Z"/>
<path data-race-id="CA36" d="M587 828
h 17
v -3
l 13 -1
h 37
l 1 -1
h 23
v -1
h 23
v -1
h 25
l 10 -1
l 3 -4
l 38 -1
l 1 -1
l 30 -1
v 3
h 1
v 2
l -1 1
h -1
v 2
l -1 1
h -1
v 1
l -1 1
v 1
h -2
v 2
h -1
v 1
l 2 1
l 1 1
v 1
h -2
h 1
v 1
l 1 1
v 2
h -2
v 2
h 1
v 3
l 1 1
v 7
h 1
v 1
l 1 2
h -1
l -1 1
l -1 2
l 1 2
h -1
l 1 1
v 3
l -1 1
v 2
l 1 1
v 2
h -1
l -1 1
l -1 1
v 1
l -1 1
l -1 1
v 1
l -1 1
v 1
h -1
v 1
l -1 1
v 2
l -35 2
h -21
l -22 2
h -23
l -20 1
l -14 1
h -27
l -20 1
l -4 -8
l -3 -1
l -3 -9
l 5 -1
l 3 -10
h -5
l -8 2
h -3
l -3 -13
h 5
l 2 -8
l -5 -1
Z"/>
<path data-race-id="CA37" d="M482 825
l 6 -1
l 2 3
h 4
h -1
v 1
l -1 6
l -3 1
l -1 -3
l -8 1
l -2 -3
Z"/>
<path data-race-id="CA38" d="M503 842
l 5 -5
l -5 -10
h 4
l -1 -1
h 3
v -2
h 1
l 2 1
h 1
l 1 1
v 1
h -2
l -2 2
h 4
v 1
l 4 6
l -5 7
v 2
l -1 1
l -2 -1
v 3
l -1 -1
l -8 -2
Z"/>
<path data-race-id="CA39" d="M513 843
l 5 -7
l -4 -6
v -1
h 4
l 4 2
h 4
v -1
l 1 -6
l 3 -1
h 1
v 1
l 4 4
h 1
l 7 7
l 1 3
l -2 4
h -8
l -2 3
l -2 1
h -1
v -1
l -4 -1
l -3 -1
l -6 3
h -2
l -1 -1
Z"/>
<path data-race-id="CA40" d="M493 828
v -1
h 1
l 2 2
l 3 -2
l 2 -2
l 1 1
l 1 1
l 5 10
l -5 5
l -2 -3
v -4
h -7
l -2 -1
Z"/>
<path data-race-id="CA41" d="M566 826
l 1 1
l 20 1
l 8 8
l -12 3
l -2 3
l 2 14
l -4 1
l -4 -2
h -1
v -5
l -9 -2
l 4 -8
h 1
l -11 1
h -2
l -1 -3
l -4 -10
v -2
Z"/>
<path data-race-id="CA42" d="M544 838
l 4 -1
l 4 -9
l 4 10
l 1 3
h 2
l 11 -1
h -1
l -4 8
l 9 2
v 5
h 1
l 4 2
l 4 -1
l -2 -14
l 2 -3
l 12 -3
l 5 1
l -2 8
h -5
l 3 13
h 3
l 8 -2
h 5
l -3 10
l -5 1
l 3 9
l 3 1
l 4 8
h -22
v -6
l -2 -3
l -1 1
l -4 -1
v 5
l -2 1
l -4 1
h -1
l -10 -3
l 1 -2
h -12
l 4 -8
v -1
l 3 -5
l -5 -6
h -5
l -12 -16
Z"/>
<path data-race-id="CA43" d="M479 833
h 1
l 8 -1
l 1 3
l 3 -1
l 2 1
l -2 3
v 13
l -2 2
l -4 -10
l -2 -5
h -5
Z"/>
<path data-race-id="CA44" d="M488 858
l 4 -3
v -17
l 2 -3
h 7
v 4
l 2 3
l -2 3
l -3 1
l -2 8
h -1
l -3 5
Z"/>
<path data-race-id="CA45" d="M527 860
l 2 -4
v -10
h 1
l 2 -1
l 2 -3
h 8
l 12 16
h 5
l 5 6
l -3 5
v 1
l -10 -1
l -3 2
l -4 3
h -1
l -3 -3
l -1 -2
v 1
v -1
l -3 -1
l -9 -2
Z"/>
<path data-race-id="CA46" d="M515 846
h 1
l 6 -3
l 3 1
l 4 1
v 11
l -2 4
h -5
v -6
l -3 -4
l -5 -2
Z"/>
<path data-race-id="CA47" d="M496 854
l 2 -8
l 3 -1
l 8 2
l 1 1
v -3
l 2 1
l 1 -1
l 1 1
h 2
h -1
l -1 2
l 5 2
l 3 4
l -4 2
h -1
l -5 -1
l -4 -3
l -2 4
l -1 -2
l -6 3
l -3 -3
Z
M466 882
l 6 1
l 13 6
l 6 10
l -13 -1
l -3 -10
l -6 -1
Z
M467 927
l 12 14
l 7 5
l -5 4
l -6 -5
l -7 -12
Z"/>
<path data-race-id="CA48" d="M506 856
l 2 -4
l 4 3
l 5 1
h 1
l 4 -2
v 6
h 5
v 6
l 9 2
l 3 1
v 1
v -1
l 1 2
l 3 3
l -1 1
v 3
h 1
h -1
h 1
l -4 1
l -1 2
l -4 -5
l -9 -7
l -3 -1
l -9 -6
Z"/>
<path data-race-id="CA49" d="M538 881
l 1 -2
l 4 -1
h -1
h 1
h -1
v -3
l 1 -1
h 1
l 4 -3
l 3 -2
l 10 1
v -1
v 1
l -4 8
h 12
l -1 2
l 10 3
l 1 20
l 3 2
l 1 2
v 5
l -2 4
v 1
l 4 1
l 4 -2
l 1 6
l -2 4
l -2 6
l -4 -2
h -3
v 12
v -1
l -2 -14
l -10 -19
l -15 -17
h -3
v -2
Z"/>
<path data-race-id="CA50" d="M578 883
h 1
l 4 -1
l 2 -1
v -5
l 4 1
l 1 -1
l 2 3
v 6
h 22
l 20 -1
h 27
l 14 -1
l 2 35
l -2 3
l 1 33
h -32
l -4 -9
l -16 1
l -1 3
l -9 2
l -1 1
l 2 1
l 1 1
l 2 3
l -7 7
l -4 -1
l -2 -11
l 2 -2
h -1
l -1 -1
v 1
l -3 -5
h -2
v 1
v -14
h 4
l -6 -10
l -1 -1
l 10 -1
l -3 -2
l -5 -2
l -1 3
h -1
v 1
h -1
h 1
h -1
v 1
l -2 1
h -1
l -1 -1
l -2 -1
v 2
l -1 -6
l -4 2
l -4 -1
v -1
l 2 -4
v -5
l -1 -2
l -3 -2
Z"/>
<path data-race-id="CA51" d="M590 970
l 2 -1
l -1 -9
h -1
v -1
h -2
v -1
h -1
v -1
l 1 -1
l 6 -3
l 2 1
v 9
l 2 6
l 5 1
l 3 -4
l 1 -3
l 4 1
l 7 -7
l -2 -3
l -1 -1
l -2 -1
l 1 -1
l 9 -2
l 1 -3
l 16 -1
l 4 9
h 32
l -1 -33
l 2 -3
l -2 -35
l 20 -1
h 23
l 22 -2
h 21
l 35 -2
h -1
v 1
h -1
v 1
v -1
h -3
v 1
h -3
v 1
l 1 1
l 1 1
v 1
l 1 1
v 2
l -1 3
h -1
l -1 1
l 1 2
l 2 1
l 2 1
v 1
l -1 1
l 1 1
v 8
l -1 1
v 1
l -1 4
v 1
l 2 1
l 1 2
h 1
v 1
l 2 -1
l 1 1
l 1 1
h 2
l 1 -1
h 3
l 3 2
l 1 1
v 3
h 3
l -1 3
v 2
h 1
v 1
h 1
v 7
h -1
l -1 1
h -1
l -1 1
l -1 1
v 5
l -1 1
h -3
v 2
h -4
v 1
h -2
l -1 -1
h -3
v -1
h -1
v 2
h -1
v 1
h -1
l -9 2
l -10 1
h -3
l -15 2
l -11 1
l -9 1
l -7 1
h -1
l -6 1
l -20 3
l -24 3
l -32 4
l -4 1
l -22 2
l -1 1
l -8 1
h -4
l -6 1
l -8 1
l -1 -5
Z"/>
<path data-race-id="CA52" d="M578 943
h 1
v -13
h 3
l 4 2
l 2 -6
l 2 -4
v -2
l 2 1
l 1 1
h 1
l 2 -1
v -1
h 1
h -1
h 1
v -1
h 1
l 1 -3
l 5 2
l 3 2
l -10 1
l 1 1
l 6 10
h -4
v 14
l -2 2
l -1 -1
l -1 -1
l -10 2
l -1 2
l -2 3
l 1 1
l 4 2
l -1 1
v 1
v -1
l -6 -1
l 2 -7
l -6 -2
Z"/>
<path data-race-id="CA53" d="M583 953
l 2 -3
l 1 -2
l 10 -2
l 1 1
l 1 1
l 2 -2
v -1
h 2
l 3 5
v -1
l 1 1
h 1
l -2 2
l 2 11
l -1 3
l -3 4
l -5 -1
l -2 -6
v -9
l -2 -1
l -6 3
l -4 -2
Z"/>
</g>
  <path class="districts-mesh" d="M543 874
l -1 1
v 3
h 1
l -4 1
l -1 2
M130 248
l -1 -11
l 2 -7
l -3 -19
v -9
l -6 -3
l 2 -7
l 4 -7
l 9 -4
l 7 -4
l 1 -4
l 7 -2
l -3 -11
l 5 -14
l 5 -5
v -5
l 1 -5
l 6 -3
l 1 -7
l 4 -1
l 1 -6
l -4 -3
v -16
l -5 -2
l -5 7
l -6 2
l -6 6
l -13 2
v 11
l 4 2
v 6
l -7 -3
l -8 -6
h -10
l -3 -7
l -9 -4
l -3 -7
l -1 -13
l -14 -1
l 4 -8
l -4 -8
l -3 -6
l 4 -8
v -12
l 2 -5
l 2 -3
l 6 -2
l 3 -10
M353 301
h -2
l -2 -6
l -4 1
l -2 -1
h -8
l -4 4
l -1 1
h -19
l 3 2
l -2 3
v 1
h -1
v 4
l -20 5
l -3 5
h -5
l 1 8
l -10 11
h -1
v 1
l -2 -1
v -1
v 1
h -1
v 1
l -7 -1
h -4
l -5 -1
l -3 -11
l 4 1
v -19
l 2 -6
l 14 -11
l 4 1
v -16
l 2 -9
l -5 4
l -6 7
h -12
l -5 15
l -4 3
l -16 4
l -1 -2
h -21
l 2 -7
h -8
l -1 -4
h -10
l -4 3
v -20
l 3 -6
l -2 -7
l 17 -1
l -6 -7
l -15 -1
h -25
l -1 -1
h -27
l 3 9
v 13
l -1 5
l -13 2
l 1 17
l 2 9
l -5 6
l -2 10
l 3 3
l 6 5
v 6
l 4 4
l 8 5
l 1 2
v -1
l 4 6
l 9 12
l -2 7
l 3 4
l -1 1
l -4 2
l -1 -2
l -1 1
l -3 4
l -7 -3
l -1 4
h -1
l 2 7
l 6 7
v 1
l 3 5
l 7 2
l 3 4
v 2
l 1 3
l 1 1
h 1
h -1
l -1 1
M185 449
v 1
v -1
l -2 -1
v 1
v -1
l 1 1
l 5 7
v -1
M200 495
v 1
h 1
v 1
l 1 2
l -1 2
l 4 4
l 1 1
v 1
h 1
l 3 3
l -3 3
l -1 5
v 1
l 2 1
l 1 2
l -1 1
h -1
l -1 -1
h -2
v 1
l -2 1
v -1
h -1
l -2 2
l -2 -3
l -3 1
v 1
l -5 6
l -1 3
M501 845
l -3 1
l -2 8
M442 752
l 12 29
l -3 3
h -13
l -2 5
l -10 -2
v -12
h -29
v 9
h 9
l -5 8
h -3
l 3 2
v 1
h 1
l 1 1
h 2
l 4 4
l -3 2
l 4 2
h 1
l -1 1
M375 532
l -2 1
l -4 2
l -9 -10
l -11 -2
l -5 -8
l 5 -2
l -11 -8
l -7 -20
l -8 -16
l -22 9
l -10 6
l -16 6
v 7
l -20 20
l -1 -2
l -4 -2
h -1
l -4 -2
l -2 4
l -6 -13
l 3 -2
l 1 -8
v -1
l -5 -3
v -6
l -1 -5
l -5 -2
l 1 -20
M545 813
h -4
l 3 -10
l -1 -13
l -2 -3
h -19
v 1
l -2 -2
h -3
l -2 -5
h -7
v 2
l -8 2
v 4
h -1
l -1 1
v 2
h 1
h -1
v -1
v 2
h -10
v -6
l -6 1
l -1 5
h -7
l -1 4
v 1
l -5 4
l -2 1
h -4
v 4
h -2
l -4 1
l -5 2
l -4 -4
l 5 -4
l 4 -2
h 2
l 3 -1
h 1
l -8 -18
M456 808
l 4 3
l -3 3
h -7
l -6 5
l -7 4
v 3
M589 828
l -2 -2
l -1 -4
l 6 -1
l -4 -1
l -11 -1
l 2 -2
h 1
v -1
l -4 -4
l -11 -5
h -3
l -1 5
l -16 1
l 1 5
l -1 1
l -1 -1
h -4
v 2
l -1 1
l -2 -2
h -2
v -2
l -1 -2
l -8 4
l -3 -6
l -6 3
l -1 -1
l -2 4
l -1 1
l -2 1
h -1
l -1 2
v 3
h -3
l 1 1
h -4
l -1 -1
l -1 -1
v -16
l -5 -6
l 1 -1
h 1
v -9
M229 449
l -23 6
v -4
h -10
v 1
M196 451
l -11 -2
l -5 -4
l -4 -6
l -3 -1
h -2
M165 457
h -2
l -7 -3
M501 818
l -1 -1
v -1
h -4
v 6
h -8
l -5 1
l 1 -4
v -1
h 2
l 1 -1
v -1
v 1
v -1
l 1 -1
l -3 -2
v -5
l 1 -4
l 1 -1
h -1
h 3
h -1
v -1
l -6 -2
l -1 -7
M189 456
l -1 1
l -2 1
v 1
l -1 1
l -2 2
M485 813
l -8 1
l -3 -4
l 2 -10
l -3 -2
M484 819
l -10 -1
h -4
l -13 -4
M808 813
l -30 1
l -1 1
l -38 1
l -3 4
l -10 1
h -25
v 1
h -23
v 1
h -23
l -1 1
h -37
l -13 1
v 3
h -17
l -20 -1
l 2 -8
l -12 -3
l -3 5
l -14 -1
M190 415
h -1
l -1 -1
l -4 3
v -1
l -2 -4
h -1
v -15
h 12
l -4 -8
l -1 -2
l 2 -10
l -4 -13
l -5 -5
l -4 -14
l -9 -3
v -6
l -1 -1
l -4 -5
l -5 1
l -4 5
l -5 -1
v -1
l -7 -3
l -1 -6
v 1
l -2 1
l -6 -2
h -1
v -1
v 1
v -1
h -1
v 1
v -1
l -1 1
l -2 -4
l -1 -3
l -3 2
v 2
h -6
M186 482
l -2 1
l -3 -2
l -8 1
v 1
l -1 2
l 3 4
v 1
h -1
l 1 1
v 1
h -2
l -5 1
l -5 3
v 1
M236 482
l -30 -1
l -4 -8
l -3 -1
l -2 1
l -1 -1
l -5 1
l -5 4
M376 532
h -1
l -8 15
l -5 -1
l -4 2
l 7 5
h 11
l 2 9
l -20 2
v -9
l -9 -1
l -1 -5
l -6 1
l -5 4
h -9
l -9 -6
l -4 -11
l -5 -9
v -1
l -4 3
v 6
h -6
l -21 21
l -17 -9
l -7 -9
l 1 -5
l -2 -2
l 3 -8
l -2 -7
M535 819
v 1
l -4 3
h -1
l -3 1
l -1 6
v 1
h -4
l -4 -2
h -8
l 2 -2
h 2
v -1
l -1 -1
h -1
l -2 -1
h -1
M488 822
v 2
l -6 1
l -4 5
l 2 3
h -1
v 5
h 5
l 2 5
l 4 10
l 2 -2
v 4
l -4 3
M501 825
l -2 2
l -3 2
l -2 -2
h -4
l -2 -3
M567 827
l -1 -1
h -14
v 2
l -4 9
l -4 1
l -1 -3
l -7 -7
h -1
l -4 -4
M531 824
v -1
h -1
M386 361
l -2 12
l 4 5
v 14
l -5 1
l -1 6
v 13
l 6 6
l 5 -1
l 12 7
l 2 4
v 9
l 9 6
v 9
l -6 6
l 13 1
l 4 5
l 3 9
l 6 2
l 13 11
v 12
l 6 2
l 4 18
l 6 1
l 11 6
l 6 15
v 11
l 1 6
l -16 1
h -34
v 8
h -8
l -1 -6
l -6 -4
l -4 1
l -6 2
l -3 -7
l -6 1
l -7 2
l -4 -8
l -9 -5
l -3 -10
v -1
M796 878
l -35 2
h -21
l -22 2
h -23
l -20 1
l -14 1
h -27
l -20 1
l -4 -8
l -3 -1
l -3 -9
l 5 -1
l 3 -10
h -5
l -8 2
h -3
l -3 -13
h 5
l 2 -8
l -5 -1
l -8 -8
M493 827
v 1
l -1 6
l -3 1
l -1 -3
l -8 1
M514 829
v 1
l 4 6
l -5 7
v 2
l -1 1
l -2 -1
v 3
l -1 -1
l -8 -2
l 2 -3
l 5 -5
l -5 -10
M206 481
l 6 9
h -3
l -3 3
l -6 -2
v 4
l -7 4
l -5 -1
l 1 -3
l 1 1
v -1
h -1
l 1 -2
v -1
l 1 -2
l -1 -6
M544 838
l -2 4
h -8
l -2 3
l -2 1
h -1
v -1
l -4 -1
l -3 -1
l -6 3
h -2
l -1 -1
M503 842
l -2 -3
v -4
h -7
l -2 -1
M595 836
l -12 3
l -2 3
l 2 14
l -4 1
l -4 -2
h -1
v -5
l -9 -2
l 4 -8
h 1
l -11 1
h -2
l -1 -3
l -4 -10
M614 885
h -22
v -6
l -2 -3
l -1 1
l -4 -1
v 5
l -2 1
l -4 1
h -1
l -10 -3
l 1 -2
h -12
l 4 -8
v -1
l 3 -5
l -5 -6
h -5
l -12 -16
M494 835
l -2 3
v 13
M561 869
v 1
l -10 -1
l -3 2
l -4 3
h -1
l -3 -3
l -1 -2
v 1
v -1
l -3 -1
l -9 -2
v -6
l 2 -4
v -10
M527 860
h -5
v -6
l -3 -4
l -5 -2
l 1 -2
M189 425
l 2 5
h -6
l -1 1
v -1
v 1
l 1 1
h -5
l -10 -3
l 1 -1
M522 854
l -4 2
h -1
l -5 -1
l -4 -3
l -2 4
M578 883
l 1 20
l 3 2
l 1 2
v 5
l -2 4
v 1
l 4 1
l 4 -2
l 1 6
l -2 4
l -2 6
l -4 -2
h -3
v 12
M251 327
l -6 4
v 7
h -4
l -2 19
l 7 1
h 1
l -1 1
v 1
l -2 4
l -11 -2
l -1 -6
h -3
l -2 6
l 6 8
l -1 2
l -2 8
h 2
l 4 3
v 1
l 5 2
l -3 2
l 3 5
h 7
l 2 7
l -9 1
v 4
l -7 5
l -1 4
l -1 2
l -2 3
M256 534
h -16
l -7 -2
h -1
v -5
l -5 -1
l -1 2
l 2 1
l 1 9
l -2 2
l -6 -4
l -6 -8
l -2 -3
l -4 -3
M279 557
l 10 10
l 16 16
l -1 16
h -5
l -2 5
l 4 4
l -3 6
l 2 7
l 11 7
l 5 6
h 7
l 3 7
l 6 2
l 2 9
h -33
v -1
h -39
l -19 -1
M675 883
l 2 35
l -2 3
l 1 33
h -32
l -4 -9
l -16 1
l -1 3
l -9 2
l -1 1
l 2 1
l 1 1
l 2 3
l -7 7
l -4 -1
l -2 -11
l 2 -2
h -1
l -1 -1
v 1
l -3 -5
h -2
v 1
v -14
h 4
l -6 -10
l -1 -1
l 10 -1
l -3 -2
l -5 -2
l -1 3
h -1
v 1
h -1
v 1
l -2 1
h -1
l -1 -1
l -2 -1
v 2
M541 748
h 3
v -55
l -1 -2
v -41
l -31 2
l 2 -14
l -3 -3
l -3 -21
l -4 -4
l -2 -9
l 2 -5
l -4 -3
l 1 -5
h -6
l -3 -11
l -4 -2
v -5
l -5 -8
v -5
M281 423
l -1 1
v 33
l -5 -2
v -3
l -14 1
l -1 -4
l -6 -2
l -3 4
l -1 1
l -9 -1
l -4 4
h -6
v -6
h -2
l -10 -9
v 1
h -1
v -1
h -1
l -1 -2
l -6 -2
l 1 -6
l 1 -2
M587 958
v -1
l 1 -1
l 6 -3
l 2 1
v 9
l 2 6
l 5 1
l 3 -4
l 1 -3
M378 562
l 6 2
l 4 -4
l 7 10
v 3
l -1 1
h 1
l -9 9
h 4
v 8
h 4
v 14
h -5
v 21
h 4
l 4 -3
l 22 -2
l 2 1
l -2 7
l 4 5
l 10 -2
l 11 17
v 1
l 4 2
h -20
l -3 16
l 2 19
h -15
v 14
l 8 1
l 3 5
h 9
l -3 -9
l 3 -6
l 6 1
l 2 6
h 8
l 5 3
v 8
h -5
l -4 6
v 10
h -5
l -2 7
l -3 -11
h -11
v -9
l -9 -1
l -2 -8
h -5
l -25 -16
l -2 -6
l -17 1
l -5 3
v 1
h -6
l -2 -4
l -5 -4
v -10
h -9
v -17
h -2
M425 566
h -7
l -3 4
l -1 3
v 1
l -2 7
h 6
v 7
l 6 1
l -1 16
l 4 4
l -4 4
l -2 9
M600 946
l -2 2
l -1 -1
l -1 -1
l -10 2
l -1 2
l -2 3
l 1 1
l 4 2
M323 469
l -20 -20
h -2
v -1
l -20 -25
l -6 -14
l -2 -8
l 1 -21
l -7 -21
l -2 1
l -13 -2
h -6
M252 358
l -6 12
l -1 1
l 2 9
h -6
l 2 4
l -2 2
M273 401
l -9 4
l -10 1
l -4 -6
M543 790
l -2 -27
v -15
h -9
v 6
l -9 -1
l -21 1
l 1 7
l -2 1
l -4 5
l -8 -1
l -1 -4
v -13
h -44
l -2 3
l -7 -2
h -22
v -5
l -16 -3
h -3
v -19
l -7 -1
l 1 -9
l -10 1
v -9
l -12 -1
v -8
h -5
v -9
h -3"/>
</svg>