<svg version="1.1" xmlns="http://www.w3.org/2000/svg" width="1000" height="726" viewBox="0 0 1000 726">  <path d="M393,26l5,1h200l81,-2h44l9,-1h6l39,-1h32l5,-1h5l26,-1h34l24,-2h2l22,-1h20l2,43v9l1,16v10l1,17l1,17l2,46v16l1,27v11l1,16v15l1,8v17l1,15l1,20v3l1,11v15l1,22l1,15l1,22v14l1,5v19l1,1l1,33v2l2,36v16l2,35v2l1,14v13l1,18v14l1,23l1,19v25h-4l-68,2l-24,1h-30l-4,1h-42l-8,1h-22l-2,1h-45l-6,1h-27l-2,1h-25l-2,1h-344l-1,-2l-5,-1h-75l-3,-1h-30l-2,-1h-52l-21,-1h-3l-9,-1h-37l-1,-1h-21v-1h-34v-36l1,-1v-25l1,-10v-5l1,-4v-13l1,-7v-20l1,-6v-4l1,-19v-24l1,-7v-15l-1,-16v-23l1,-2v-19l1,-5v-20l1,-4v-8l1,-21v-1l1,-9v-6l2,-27v-18l1,-4v-22l1,-2v-25l2,-24v-22l1,-5v-21l1,-1v-47l1,-3v-23l1,-20v-2l1,-2v-13l1,-4v-26l1,-16v-5l1,-8v-10h2l29,1h3l16,1h1l82,3h37l36,1h19l7,1h54l30,1h24Z"/><g class="districts"><path data-race-id="CO01" d="M556,262l2,-1l5,-10l1,-9v-10h9l10,-2h15v-7h8v-10l11,-1l6,1l-3,4v9h-18l4,9l-13,-1l-7,7l2,5l-5,4v1l2,2l5,1l-8,6h-16l-1,-1l-1,2v3l1,6h-1l-3,4h-5l-5,-4Z"/><path data-race-id="CO02" d="M356,120l5,12h12l4,-6l5,10h13l7,4l4,-5l4,6l27,-8l7,4l5,-3l2,-6h2v-11l6,-3l-3,-6l-4,2v-10l-4,-7l-6,-21l-3,-1l-6,-14l-7,-7l-2,-6l-7,-6l-1,-11h160l1,7v103h-14v15h-14l-2,5v16h16v24h1l6,-4l3,-1v-1l2,6l-3,5l-4,-2v10l-4,1l-3,3l-10,-3l-3,1v-1h-22l1,1l2,6l4,2l6,12l1,16l5,1v6h-1h4l-1,1l7,2l2,4l-5,8l5,4h5l-1,9l-7,3l1,7l-6,6v8l-6,16l-6,4l-8,17h-9v-45l-1,-1l-9,-3v2l-12,-3l-10,-5h-1h1l-7,-6h-1v-1l-3,-3l-6,-9h-8l2,5l-6,2v4l-6,7l-8,4l2,4l-9,5v4l-15,-3l-10,-1l-10,6l-10,-1l-5,-5l-3,3h-11l-6,-12l2,1l1,-3l1,-1l2,-3l1,-3l6,-4l5,-9h1l-3,-3l-3,-6l-7,-2h-1l-3,-1v-1v1v-1l-2,-10l2,-1l-8,-9l3,-7l-6,-3v-19l-1,-13v-30h1v-27h-2Z"/><path data-race-id="CO03" d="M32,460v-18l1,-5v-20l1,-4v-8l1,-21v-1l1,-9v-6l2,-27v-18l1,-4v-22l1,-2v-25l2,-24v-22l1,-5v-21l1,-1v-47l1,-3v-23l1,-20v-2l1,-2v-13l1,-4v-26l1,-16v-5l1,-8v-10h2l29,1h3l16,1h1l48,2l34,1h37l36,1h19l7,1h54l30,1h27l5,1h18l1,11l7,6l2,6l7,7l6,14l3,1l6,21l4,7v10l4,-2l3,6l-6,3v11h-2l-2,6l-5,3l-7,-4l-27,8l-4,-6l-4,5l-7,-4h-13l-5,-10l-4,6h-12l-5,-12v18h2v27h-1v30l1,13v19l6,3l-3,7l8,9l-2,1l2,10v1v-1v1l3,1h1l7,2l3,6l3,3h-1l-5,9l-6,4l-1,3l-2,3l-1,1l-1,3l-2,-1l6,12h11l3,-3l5,5l10,1l10,-6l10,1l-2,10l-5,1l1,31l-4,4h4l-2,9l-51,-1l-3,2v8l10,3v5l8,7l6,-3l2,3h10v5l-7,10h-5v17l-5,3l3,10l7,2l4,9l-1,9l2,6l4,1l8,11h23l2,-5l6,1l9,12l7,5l4,9l9,5h33l21,2h60v-45h42l3,-1h42l1,-1h30v95l1,1v38l-39,-14l-15,12l-5,13l-7,11v7l-9,6l-4,7h-6v9l-8,6l-17,3h-10l-6,2l-4,7l-9,6l-8,1v51h-233l-1,-2l-5,-1h-75l-1,-1h-32l-2,-1h-52l-21,-1h-3l-9,-1h-37l-1,-1h-21v-1h-34v-36l1,-1v-25l1,-10v-5l1,-4v-13l1,-7v-20l1,-6v-4l1,-19v-24l1,-7v-15l-1,-16v-23l1,-2Z"/><path data-race-id="CO04" d="M528,344l8,-17l6,-4l6,-16v-8l6,-6l-1,-7l7,-3l1,-9l3,-4l3,7l5,2l12,-2l-1,-6v-1h16l3,1v2h6l3,-1h1v-2h6l-3,-2v-13l-3,2h-5l-1,-5h12l-1,-11l1,-1h14l5,-3v-41h-41l-21,1l-2,-6v1l-3,1l-6,4h-1v-24h-16v-16l2,-5h14v-15h14v-103l-1,-7h22l81,-2h44l9,-1h20l25,-1h32l5,-1h5l26,-1h34l24,-2h2l22,-1h20l2,43v9l1,16v10l1,17l1,17l1,20v23l1,3v16l1,27v11l1,16v15l1,8v17l1,15l1,20v3l1,11v15l1,22l1,15l1,22v14l1,5v19l2,34v2l2,59l1,3l1,25v2l1,14v13l1,18v14l1,23l1,19v25h-4l-68,2l-24,1h-30l-4,1h-42l-8,1h-22l-2,1h-45l-6,1h-27l-2,1h-25l-2,1h-111v-51l8,-1l9,-6l4,-7l6,-2h10l17,-3l8,-6v-9h6l4,-7l9,-6v-7l7,-11l5,-13l15,-12l39,14v-38l-1,-1v-95l-1,-4v-50l-1,-5v-44l-5,1h-124Z"/><path data-race-id="CO05" d="M363,356l51,1l2,-9h-4l4,-4l-1,-31l5,-1l2,-10l15,3v-4l9,-5l-2,-4l8,-4l6,-7v-4l6,-2l-2,-5h8l6,9l3,3v1h1l7,6h-1h1l10,5l12,3v-2l9,3l1,1v45h172l5,-1v44l1,5v50l1,4h-30l-1,1h-42l-3,1h-42v45h-60l-21,-2h-33l-9,-5l-4,-9l-7,-5l-9,-12l-6,-1l-2,5h-23l-8,-11l-4,-1l-2,-6l1,-9l-4,-9l-7,-2l-3,-10l5,-3v-17h5l7,-10v-5h-10l-2,-3l-6,3l-8,-7v-5l-10,-3v-8Z"/><path data-race-id="CO06" d="M564,264v-3l1,-2l1,1h16l8,-6l-5,-1l-2,-2v-1l5,-4l-2,-5l7,-7l13,1l-4,-9h18v-9l3,-4l-6,-1v-4l-17,1h-1l-3,1l-4,3l-4,-3l-16,-4v-4l3,-5l21,-1h41v41l-5,3h-14l-1,1l1,11h-12l1,5h5l3,-2v13l3,2h-6v2h-1l-3,1h-6v-2l-3,-1h-16v1l1,6l-12,2l-5,-2l-3,-7h1Z"/><path data-race-id="CO07" d="M527,212l-1,-1h22v1l3,-1l10,3l3,-3l4,-1v-10l4,2v4l16,4l4,3l4,-3l3,-1h1l17,-1v4l-11,1v10h-8v7h-15l-10,2h-9v10l-1,9l-5,10l-2,1l-2,-4l-7,-2l1,-1h-4h1v-6l-5,-1l-1,-16l-6,-12l-4,-2Z"/></g>  <path class="districts-mesh" d="M487,289h-1M369,258v-1l-2,-10l2,-1l-8,-9l3,-7l-6,-3v-19l-1,-13v-30h1v-27h-2v-18l5,12h12l4,-6l5,10h13l7,4l4,-5l4,6l27,-8l7,4l5,-3l2,-6h2v-11l6,-3l-3,-6l-4,2v-10l-4,-7l-6,-21l-3,-1l-6,-14l-7,-7l-2,-6l-7,-6l-1,-11M422,302l-2,10l-5,1l1,31l-4,4h4l-2,9l-51,-1l-3,2v8l10,3v5l8,7l6,-3l2,3h10v5l-7,10h-5v17l-5,3l3,10l7,2l4,9l-1,9l2,6l4,1l8,11h23l2,-5l6,1l9,12l7,5l4,9l9,5h33l21,2h60v-45h42l3,-1h42l1,-1h30v95l1,1v38l-39,-14l-15,12l-5,13l-7,11v7l-9,6l-4,7h-6v9l-8,6l-17,3h-10l-6,2l-4,7l-9,6l-8,1v51M576,27l1,7v103h-14v15h-14l-2,5v16h16v24h1l6,-4l3,-1v-1l2,6l-3,5l-4,-2v10l-4,1l-3,3l-10,-3l-3,1v-1h-22l1,1l2,6l4,2l6,12l1,16l5,1v6h-1h4l-1,1l7,2l2,4M561,274h-5l-5,-4l5,-8l2,-1l5,-10l1,-9v-10h9l10,-2h15v-7h8v-10l11,-1l6,1l-3,4v9h-18l4,9l-13,-1l-7,7l2,5l-5,4v1l2,2l5,1l-8,6h-16l-1,-1l-1,2v3l1,6h-1l3,7l5,2l12,-2l-1,-6v-1h16l3,1v2h6l3,-1h1v-2h6l-3,-2v-13l-3,2h-5l-1,-5h12l-1,-11l1,-1h14l5,-3v-41h-41l-21,1M698,446l-1,-4v-50l-1,-5v-44l-5,1h-163M564,270l-3,4l-1,9l-7,3l1,7l-6,6v8l-6,16l-6,4l-8,17h-9v-45l-1,-1l-9,-3v2l-12,-3l-10,-5l-7,-6h-1v-1l-3,-3l-6,-9h-8l2,5l-6,2v4l-6,7l-8,4l2,4l-9,5v4l-15,-3l-10,-1l-10,6l-10,-1l-5,-5l-3,3h-11l-6,-12l2,1l1,-3l1,-1l2,-3l1,-3l6,-4l5,-9h1l-3,-3l-3,-6l-7,-2h-1l-3,-1v-1M617,212v-4l-17,1h-1l-3,1l-4,3l-4,-3l-16,-4v-4"/></svg>