<svg version="1.1" xmlns="http://www.w3.org/2000/svg" width="1000" height="726" viewBox="0 0 1000 726">
  <path d="M393 26
l 5 1
h 200
l 81 -2
h 44
l 9 -1
h 6
l 39 -1
h 32
l 5 -1
h 5
l 26 -1
h 34
l 24 -2
h 2
l 22 -1
h 20
l 2 43
v 9
l 1 16
v 10
l 1 17
l 1 17
l 2 46
v 16
l 1 27
v 11
l 1 16
v 15
l 1 8
v 17
l 1 15
l 1 20
v 3
l 1 11
v 15
l 1 22
l 1 15
l 1 22
v 14
l 1 5
v 19
l 1 1
l 1 33
v 2
l 2 36
v 16
l 2 35
v 2
l 1 14
v 13
l 1 18
v 14
l 1 23
l 1 19
v 25
h -4
l -68 2
l -24 1
h -30
l -4 1
h -42
l -8 1
h -22
l -2 1
h -45
l -6 1
h -27
l -2 1
h -25
l -2 1
h -344
l -1 -2
l -5 -1
h -75
l -3 -1
h -30
l -2 -1
h -52
l -21 -1
h -3
l -9 -1
h -37
l -1 -1
h -21
v -1
h -34
v -36
l 1 -1
v -25
l 1 -10
v -5
l 1 -4
v -13
l 1 -7
v -20
l 1 -6
v -4
l 1 -19
v -24
l 1 -7
v -15
l -1 -16
v -23
l 1 -2
v -19
l 1 -5
v -20
l 1 -4
v -8
l 1 -21
v -1
l 1 -9
v -6
l 2 -27
v -18
l 1 -4
v -22
l 1 -2
v -25
l 2 -24
v -22
l 1 -5
v -21
l 1 -1
v -47
l 1 -3
v -23
l 1 -20
v -2
l 1 -2
v -13
l 1 -4
v -26
l 1 -16
v -5
l 1 -8
v -10
h 2
l 29 1
h 3
l 16 1
h 1
l 82 3
h 37
l 36 1
h 19
l 7 1
h 54
l 30 1
h 24
Z"/>
<g class="districts">
<path data-race-id="CO01" d="M556 262
l 2 -1
l 5 -10
l 1 -9
v -10
h 9
l 10 -2
h 15
v -7
h 8
v -10
l 11 -1
l 6 1
l -3 4
v 9
h -18
l 4 9
l -13 -1
l -7 7
l 2 5
l -5 4
v 1
l 2 2
l 5 1
l -8 6
h -16
l -1 -1
l -1 2
v 3
l 1 6
h -1
l -3 4
h -5
l -5 -4
Z"/>
<path data-race-id="CO02" d="M356 120
l 5 12
h 12
l 4 -6
l 5 10
h 13
l 7 4
l 4 -5
l 4 6
l 27 -8
l 7 4
l 5 -3
l 2 -6
h 2
v -11
l 6 -3
l -3 -6
l -4 2
v -10
l -4 -7
l -6 -21
l -3 -1
l -6 -14
l -7 -7
l -2 -6
l -7 -6
l -1 -11
h 160
l 1 7
v 103
h -14
v 15
h -14
l -2 5
v 16
h 16
v 24
h 1
l 6 -4
l 3 -1
v -1
l 2 6
l -3 5
l -4 -2
v 10
l -4 1
l -3 3
l -10 -3
l -3 1
v -1
h -22
l 1 1
l 2 6
l 4 2
l 6 12
l 1 16
l 5 1
v 6
h -1
h 4
l -1 1
l 7 2
l 2 4
l -5 8
l 5 4
h 5
l -1 9
l -7 3
l 1 7
l -6 6
v 8
l -6 16
l -6 4
l -8 17
h -9
v -45
l -1 -1
l -9 -3
v 2
l -12 -3
l -10 -5
h -1
h 1
l -7 -6
h -1
v -1
l -3 -3
l -6 -9
h -8
l 2 5
l -6 2
v 4
l -6 7
l -8 4
l 2 4
l -9 5
v 4
l -15 -3
l -10 -1
l -10 6
l -10 -1
l -5 -5
l -3 3
h -11
l -6 -12
l 2 1
l 1 -3
l 1 -1
l 2 -3
l 1 -3
l 6 -4
l 5 -9
h 1
l -3 -3
l -3 -6
l -7 -2
h -1
l -3 -1
v -1
v 1
v -1
l -2 -10
l 2 -1
l -8 -9
l 3 -7
l -6 -3
v -19
l -1 -13
v -30
h 1
v -27
h -2
Z"/>
<path data-race-id="CO03" d="M32 460
v -18
l 1 -5
v -20
l 1 -4
v -8
l 1 -21
v -1
l 1 -9
v -6
l 2 -27
v -18
l 1 -4
v -22
l 1 -2
v -25
l 2 -24
v -22
l 1 -5
v -21
l 1 -1
v -47
l 1 -3
v -23
l 1 -20
v -2
l 1 -2
v -13
l 1 -4
v -26
l 1 -16
v -5
l 1 -8
v -10
h 2
l 29 1
h 3
l 16 1
h 1
l 48 2
l 34 1
h 37
l 36 1
h 19
l 7 1
h 54
l 30 1
h 27
l 5 1
h 18
l 1 11
l 7 6
l 2 6
l 7 7
l 6 14
l 3 1
l 6 21
l 4 7
v 10
l 4 -2
l 3 6
l -6 3
v 11
h -2
l -2 6
l -5 3
l -7 -4
l -27 8
l -4 -6
l -4 5
l -7 -4
h -13
l -5 -10
l -4 6
h -12
l -5 -12
v 18
h 2
v 27
h -1
v 30
l 1 13
v 19
l 6 3
l -3 7
l 8 9
l -2 1
l 2 10
v 1
v -1
v 1
l 3 1
h 1
l 7 2
l 3 6
l 3 3
h -1
l -5 9
l -6 4
l -1 3
l -2 3
l -1 1
l -1 3
l -2 -1
l 6 12
h 11
l 3 -3
l 5 5
l 10 1
l 10 -6
l 10 1
l -2 10
l -5 1
l 1 31
l -4 4
h 4
l -2 9
l -51 -1
l -3 2
v 8
l 10 3
v 5
l 8 7
l 6 -3
l 2 3
h 10
v 5
l -7 10
h -5
v 17
l -5 3
l 3 10
l 7 2
l 4 9
l -1 9
l 2 6
l 4 1
l 8 11
h 23
l 2 -5
l 6 1
l 9 12
l 7 5
l 4 9
l 9 5
h 33
l 21 2
h 60
v -45
h 42
l 3 -1
h 42
l 1 -1
h 30
v 95
l 1 1
v 38
l -39 -14
l -15 12
l -5 13
l -7 11
v 7
l -9 6
l -4 7
h -6
v 9
l -8 6
l -17 3
h -10
l -6 2
l -4 7
l -9 6
l -8 1
v 51
h -233
l -1 -2
l -5 -1
h -75
l -1 -1
h -32
l -2 -1
h -52
l -21 -1
h -3
l -9 -1
h -37
l -1 -1
h -21
v -1
h -34
v -36
l 1 -1
v -25
l 1 -10
v -5
l 1 -4
v -13
l 1 -7
v -20
l 1 -6
v -4
l 1 -19
v -24
l 1 -7
v -15
l -1 -16
v -23
l 1 -2
Z"/>
<path data-race-id="CO04" d="M528 344
l 8 -17
l 6 -4
l 6 -16
v -8
l 6 -6
l -1 -7
l 7 -3
l 1 -9
l 3 -4
l 3 7
l 5 2
l 12 -2
l -1 -6
v -1
h 16
l 3 1
v 2
h 6
l 3 -1
h 1
v -2
h 6
l -3 -2
v -13
l -3 2
h -5
l -1 -5
h 12
l -1 -11
l 1 -1
h 14
l 5 -3
v -41
h -41
l -21 1
l -2 -6
v 1
l -3 1
l -6 4
h -1
v -24
h -16
v -16
l 2 -5
h 14
v -15
h 14
v -103
l -1 -7
h 22
l 81 -2
h 44
l 9 -1
h 20
l 25 -1
h 32
l 5 -1
h 5
l 26 -1
h 34
l 24 -2
h 2
l 22 -1
h 20
l 2 43
v 9
l 1 16
v 10
l 1 17
l 1 17
l 1 20
v 23
l 1 3
v 16
l 1 27
v 11
l 1 16
v 15
l 1 8
v 17
l 1 15
l 1 20
v 3
l 1 11
v 15
l 1 22
l 1 15
l 1 22
v 14
l 1 5
v 19
l 2 34
v 2
l 2 59
l 1 3
l 1 25
v 2
l 1 14
v 13
l 1 18
v 14
l 1 23
l 1 19
v 25
h -4
l -68 2
l -24 1
h -30
l -4 1
h -42
l -8 1
h -22
l -2 1
h -45
l -6 1
h -27
l -2 1
h -25
l -2 1
h -111
v -51
l 8 -1
l 9 -6
l 4 -7
l 6 -2
h 10
l 17 -3
l 8 -6
v -9
h 6
l 4 -7
l 9 -6
v -7
l 7 -11
l 5 -13
l 15 -12
l 39 14
v -38
l -1 -1
v -95
l -1 -4
v -50
l -1 -5
v -44
l -5 1
h -124
Z"/>
<path data-race-id="CO05" d="M363 356
l 51 1
l 2 -9
h -4
l 4 -4
l -1 -31
l 5 -1
l 2 -10
l 15 3
v -4
l 9 -5
l -2 -4
l 8 -4
l 6 -7
v -4
l 6 -2
l -2 -5
h 8
l 6 9
l 3 3
v 1
h 1
l 7 6
h -1
h 1
l 10 5
l 12 3
v -2
l 9 3
l 1 1
v 45
h 172
l 5 -1
v 44
l 1 5
v 50
l 1 4
h -30
l -1 1
h -42
l -3 1
h -42
v 45
h -60
l -21 -2
h -33
l -9 -5
l -4 -9
l -7 -5
l -9 -12
l -6 -1
l -2 5
h -23
l -8 -11
l -4 -1
l -2 -6
l 1 -9
l -4 -9
l -7 -2
l -3 -10
l 5 -3
v -17
h 5
l 7 -10
v -5
h -10
l -2 -3
l -6 3
l -8 -7
v -5
l -10 -3
v -8
Z"/>
<path data-race-id="CO06" d="M564 264
v -3
l 1 -2
l 1 1
h 16
l 8 -6
l -5 -1
l -2 -2
v -1
l 5 -4
l -2 -5
l 7 -7
l 13 1
l -4 -9
h 18
v -9
l 3 -4
l -6 -1
v -4
l -17 1
h -1
l -3 1
l -4 3
l -4 -3
l -16 -4
v -4
l 3 -5
l 21 -1
h 41
v 41
l -5 3
h -14
l -1 1
l 1 11
h -12
l 1 5
h 5
l 3 -2
v 13
l 3 2
h -6
v 2
h -1
l -3 1
h -6
v -2
l -3 -1
h -16
v 1
l 1 6
l -12 2
l -5 -2
l -3 -7
h 1
Z"/>
<path data-race-id="CO07" d="M527 212
l -1 -1
h 22
v 1
l 3 -1
l 10 3
l 3 -3
l 4 -1
v -10
l 4 2
v 4
l 16 4
l 4 3
l 4 -3
l 3 -1
h 1
l 17 -1
v 4
l -11 1
v 10
h -8
v 7
h -15
l -10 2
h -9
v 10
l -1 9
l -5 10
l -2 1
l -2 -4
l -7 -2
l 1 -1
h -4
h 1
v -6
l -5 -1
l -1 -16
l -6 -12
l -4 -2
Z"/>
</g>
  <path class="districts-mesh" d="M487 289
h -1
M369 258
v -1
l -2 -10
l 2 -1
l -8 -9
l 3 -7
l -6 -3
v -19
l -1 -13
v -30
h 1
v -27
h -2
v -18
l 5 12
h 12
l 4 -6
l 5 10
h 13
l 7 4
l 4 -5
l 4 6
l 27 -8
l 7 4
l 5 -3
l 2 -6
h 2
v -11
l 6 -3
l -3 -6
l -4 2
v -10
l -4 -7
l -6 -21
l -3 -1
l -6 -14
l -7 -7
l -2 -6
l -7 -6
l -1 -11
M422 302
l -2 10
l -5 1
l 1 31
l -4 4
h 4
l -2 9
l -51 -1
l -3 2
v 8
l 10 3
v 5
l 8 7
l 6 -3
l 2 3
h 10
v 5
l -7 10
h -5
v 17
l -5 3
l 3 10
l 7 2
l 4 9
l -1 9
l 2 6
l 4 1
l 8 11
h 23
l 2 -5
l 6 1
l 9 12
l 7 5
l 4 9
l 9 5
h 33
l 21 2
h 60
v -45
h 42
l 3 -1
h 42
l 1 -1
h 30
v 95
l 1 1
v 38
l -39 -14
l -15 12
l -5 13
l -7 11
v 7
l -9 6
l -4 7
h -6
v 9
l -8 6
l -17 3
h -10
l -6 2
l -4 7
l -9 6
l -8 1
v 51
M576 27
l 1 7
v 103
h -14
v 15
h -14
l -2 5
v 16
h 16
v 24
h 1
l 6 -4
l 3 -1
v -1
l 2 6
l -3 5
l -4 -2
v 10
l -4 1
l -3 3
l -10 -3
l -3 1
v -1
h -22
l 1 1
l 2 6
l 4 2
l 6 12
l 1 16
l 5 1
v 6
h -1
h 4
l -1 1
l 7 2
l 2 4
M561 274
h -5
l -5 -4
l 5 -8
l 2 -1
l 5 -10
l 1 -9
v -10
h 9
l 10 -2
h 15
v -7
h 8
v -10
l 11 -1
l 6 1
l -3 4
v 9
h -18
l 4 9
l -13 -1
l -7 7
l 2 5
l -5 4
v 1
l 2 2
l 5 1
l -8 6
h -16
l -1 -1
l -1 2
v 3
l 1 6
h -1
l 3 7
l 5 2
l 12 -2
l -1 -6
v -1
h 16
l 3 1
v 2
h 6
l 3 -1
h 1
v -2
h 6
l -3 -2
v -13
l -3 2
h -5
l -1 -5
h 12
l -1 -11
l 1 -1
h 14
l 5 -3
v -41
h -41
l -21 1
M698 446
l -1 -4
v -50
l -1 -5
v -44
l -5 1
h -163
M564 270
l -3 4
l -1 9
l -7 3
l 1 7
l -6 6
v 8
l -6 16
l -6 4
l -8 17
h -9
v -45
l -1 -1
l -9 -3
v 2
l -12 -3
l -10 -5
l -7 -6
h -1
v -1
l -3 -3
l -6 -9
h -8
l 2 5
l -6 2
v 4
l -6 7
l -8 4
l 2 4
l -9 5
v 4
l -15 -3
l -10 -1
l -10 6
l -10 -1
l -5 -5
l -3 3
h -11
l -6 -12
l 2 1
l 1 -3
l 1 -1
l 2 -3
l 1 -3
l 6 -4
l 5 -9
h 1
l -3 -3
l -3 -6
l -7 -2
h -1
l -3 -1
v -1
M617 212
v -4
l -17 1
h -1
l -3 1
l -4 3
l -4 -3
l -16 -4
v -4"/>
</svg>