<svg version="1.1" xmlns="http://www.w3.org/2000/svg" width="1000" height="729" viewBox="0 0 1000 729">
  <path d="M195 19
l 38 2
h 10
l 16 1
h 13
l 36 2
h 16
l 23 2
h 16
l 23 1
l 47 1
h 13
l 12 1
h 16
l -2 25
l 13 -2
l 8 -1
l 5 -4
h 2
l -1 -2
v -1
l 1 -2
h 1
l -2 -1
v -1
h -1
v -2
l 1 1
l 1 -1
l 1 1
l 2 -2
l 1 -3
l 1 -1
l -2 -4
h 39
l 6 1
l 21 2
h 5
v 4
h 13
l 10 -4
l 14 -2
h 47
l 8 1
h 136
l 1 1
h 5
l 10 1
h 73
l 1 1
h 7
l 22 1
h 43
l 2 5
v 10
l 1 7
v 37
l 1 2
v 23
l 1 5
v 13
l 1 5
v 17
l 1 5
v 20
h 1
v 16
l 1 11
v 22
l 1 5
v 17
l 1 10
v 41
l -1 7
v 42
l -1 8
v 28
l -1 5
v 28
l -1 6
l -12 -1
l -1 2
v 1
h -1
l -3 2
h -3
l -1 11
l 1 2
l 2 1
l 1 1
l 1 5
v 8
l -3 3
v 3
l 2 4
h 1
v 2
l 1 6
l -9 8
l -6 4
l -5 -9
h -4
l -1 -6
l -13 13
l -3 -14
l -3 12
l -9 -5
l -7 3
l -4 -9
l -4 -2
l -7 9
l -1 7
l -9 4
v 8
l -7 -5
l 1 -7
l -7 8
l -6 -4
l 4 -10
l -6 8
l -4 -1
l -6 6
l -3 -3
l -5 -14
l -1 -18
l -2 -6
l -3 -20
l 3 -4
l -3 -10
l 3 -5
h -5
l 1 31
l -1 10
l 5 8
l -3 8
l 2 4
l -4 6
l 5 8
l -3 9
l -7 6
h -12
l -5 -2
l -5 -7
l -4 6
l -5 -3
l -2 -8
l -7 -1
l -6 7
v 18
l -10 -9
h -13
v 6
l -4 4
h -9
l -10 3
l -14 2
l -4 -3
l -6 -13
l 2 -19
l -11 -8
l -6 -12
l 3 -9
l -7 -9
l -11 -1
l -7 -7
v -5
l -4 -10
h -2
l 3 8
l -1 7
l 3 8
l 16 2
l 5 9
l -5 9
l 3 3
l 1 11
l 3 -4
l 7 4
l 6 10
l -3 27
l -5 -1
l -2 6
l 11 -1
l 2 3
h -6
l -6 4
l -6 -1
l -3 3
l -7 -12
l -11 3
l -6 -3
h -9
l -5 7
l -11 -2
l -8 5
l -1 4
h -6
l -1 -9
l -13 5
l 1 2
l 10 -5
l -6 8
l -1 2
v 1
l -3 2
l -1 -1
l -10 -10
l -2 -2
l -8 -2
l -3 1
l -5 -1
l -2 1
l -4 -1
h -5
l -2 2
l -2 1
h -3
l -9 1
l -2 -2
v -2
l -1 1
l -1 1
v 1
h -2
l -1 1
h -1
l -1 7
l -3 -2
l -1 3
v 2
l -4 3
l -7 1
l -3 -2
l 6 -6
l -2 -3
l -6 4
l 1 -5
l -7 4
l -5 -4
l -5 2
l -1 -5
l -10 2
l -6 -1
l -9 5
l -8 7
l -1 -6
l 7 -3
l -9 -2
l -5 10
l -3 -7
l -9 9
l -17 1
l -2 -2
l -2 -2
v -2
l 2 -1
l 1 -1
l 1 -1
l -4 -7
l -1 -2
l 1 -2
v -2
l -1 -4
l 3 -12
l -8 5
l -4 6
l -1 2
l -1 1
l -1 1
l -1 -1
h -1
l -2 1
v 2
l 1 2
v 1
h 1
l 2 1
h 4
v 1
l -7 7
l -9 2
l -1 2
l -2 -1
l -8 13
h -1
l -1 -1
l -2 -1
l -3 8
l -6 1
l -2 4
l -1 4
l -2 2
l -1 1
h -2
v -1
l -4 -1
l -3 1
l -1 1
l -1 2
l -6 -6
l -3 2
l -8 7
l -4 2
l -1 2
l -2 1
l -2 2
l -3 4
v 2
l -1 1
l -1 1
l -2 1
l -8 -5
l 7 -14
v -20
l -4 5
l 2 4
v 12
l -6 8
l -1 8
l 9 8
v 7
l -12 4
l -16 -7
l -5 -2
l 5 -2
l 1 2
v -4
h -1
l -9 -5
l -2 9
l -8 1
l -6 6
l -3 -2
l -3 7
l -3 -3
l -5 12
l -9 6
l -13 -6
l -5 2
l -6 7
l -5 -1
l -6 3
l -5 -2
l -5 7
l -9 -5
l -4 2
l 5 7
l -7 2
l -6 7
l -6 -9
h -2
l 1 16
l -5 -2
l -3 6
h -4
v 7
l -7 -2
l -5 4
l -4 -2
l -5 11
l -4 -4
l -3 2
l -2 -5
l -8 6
l -6 1
l 3 5
l -7 8
l -1 -11
l -5 1
l -12 13
l -1 7
l -9 1
l 2 -5
l 4 2
l 2 -7
l -12 2
l 2 -6
v -11
l -5 9
l 1 5
l -8 6
l -4 -1
l -1 5
l -9 -2
l -5 10
l -2 -2
l 1 -15
l -1 -2
l -1 -1
l -1 -1
v -1
l -1 -1
l -2 -3
l -9 -14
v -2
l -1 -1
l -1 -2
l -2 -3
l -4 -7
l -1 -1
l -5 -7
v -2
l -1 -1
v -1
h -1
l -1 -2
l -2 -2
v -3
l 11 -6
h 1
l 1 -2
l 3 -1
l 14 -9
l 13 -8
l 1 -1
l 4 -2
l 3 -1
l 4 -3
h 1
l 5 -3
l 2 -1
v -1
h 1
l 15 -9
l 20 -12
h 1
l 6 -4
l 2 -1
l 2 -1
l 6 -4
h 2
v -1
l 2 -2
l -4 -6
l -5 -9
l -3 -6
l -2 -3
l -2 -3
l -1 -1
l -3 -5
l -1 -1
l -6 -11
l -5 -9
l 1 -13
v -11
l 3 -28
l 1 -8
v -12
l 1 -4
v -1
l 1 -10
v -2
l 1 -5
v -23
l 1 -2
v -4
l 2 -34
l 1 -1
v -10
l 2 -25
l 2 -16
v -2
l 1 -16
v -5
l 1 -10
v -3
l 4 -53
v -3
l 2 -21
l 2 -22
l 1 -23
l 2 -31
v -10
l 2 -18
v -6
l 3 -34
v -5
l 1 -19
v -1
l 25 -1
Z
M892 481
l -1 7
l -4 5
l -3 -6
l 3 -6
Z"/>
<g class="districts">
<path data-race-id="CT01" d="M322 24
h 2
l 23 2
h 16
l 17 1
h 6
l 47 1
h 13
l 12 1
h 16
l -2 25
l 13 -2
l 8 -1
l -2 9
l 12 2
l 23 8
l -4 15
l 49 4
l -4 6
l 24 -3
l 29 -4
l -1 26
v 21
l -1 11
l 10 -3
l -3 21
l -1 13
l 14 -2
l 7 43
l -26 4
l -4 7
l -1 11
l 6 2
h 15
l 6 3
l 1 11
l -6 4
l 2 9
l -10 3
l -3 11
l -19 2
l 7 17
l -7 1
v 13
l -7 11
l -1 17
l -8 -3
h -10
l -6 -4
l -14 2
l -5 -3
l -1 -6
l -10 2
l -2 5
h -8
v -7
l -5 -1
v -9
l 3 -7
l -9 -3
l -8 2
l -1 5
l -10 2
v 8
l -22 3
l -11 14
l -3 -2
v -10
l -11 3
l 2 15
l -11 -3
l -6 -10
h -7
l -25 4
l 5 -29
v -11
l -2 -16
l -21 2
l -5 -33
l -3 -14
l 25 -3
l 24 -4
l 2 18
l 2 7
l 3 23
l 30 -4
l 1 7
l 34 -3
l -6 -43
v -14
l -3 -2
l -5 7
l -1 -12
l -7 -2
l -2 -20
l 1 -7
v -22
h 7
v -19
l 6 -17
l 3 -14
l 3 -2
l -5 -8
l -30 -1
l -15 -1
l -21 -1
l -5 17
l -13 1
l -4 22
l -1 12
l 7 1
l -5 23
l -34 5
h -32
l -5 -9
l -1 -7
l -4 -6
l -8 6
v 7
l -8 -1
l -3 6
l 1 10
l -9 3
l -2 -7
l -18 2
l 10 -45
l 1 -9
l 5 -17
l 4 -21
l 4 -13
Z"/>
<path data-race-id="CT02" d="M493 51
l 5 -4
h 2
l -1 -2
v -1
l 1 -2
h 1
l -2 -1
v -1
h -1
v -2
l 1 1
l 1 -1
l 1 1
l 2 -2
l 1 -3
l 1 -1
l -2 -4
h 39
l 6 1
l 21 2
h 5
v 4
h 13
l 10 -4
l 14 -2
h 47
l 8 1
h 136
l 1 1
h 5
l 10 1
h 73
l 1 1
h 7
l 22 1
h 43
l 2 5
v 10
l 1 7
v 37
l 1 2
v 23
l 1 5
v 13
l 1 5
v 17
l 1 5
v 20
h 1
v 16
l 1 11
v 22
l 1 5
v 17
l 1 10
v 41
l -1 7
v 42
l -1 8
v 28
l -1 5
v 28
l -1 6
l -12 -1
l -1 2
v 1
h -1
l -3 2
h -3
l -2 1
l 1 10
l 1 2
l 2 1
l 1 1
l 1 5
v 8
l -3 3
v 3
l 2 4
h 1
v 2
l 1 5
l -9 9
l -6 4
l -5 -9
h -4
l -1 -6
l -13 13
l -3 -14
l -3 12
l -9 -5
l -7 3
l -4 -9
l -4 -2
l -7 9
l -1 7
l -9 4
v 8
l -7 -5
l 1 -7
l -7 8
l -6 -4
l 4 -10
l -6 8
l -4 -1
l -6 6
l -3 -3
l -5 -14
l -1 -18
l -2 -6
l -3 -20
l 3 -4
l -3 -10
l 3 -5
h -5
l 1 31
l -1 10
l 5 8
l -3 8
l 2 4
l -4 6
l 5 8
l -3 9
l -7 6
h -12
l -5 -2
l -5 -7
l -4 6
l -5 -3
l -2 -8
l -7 -1
l -6 7
v 18
l -10 -9
h -13
v 6
l -4 4
h -9
l -10 3
l -14 2
l -4 -3
l -6 -13
l 2 -19
l -11 -8
l -6 -12
l 3 -9
l -7 -9
l -11 -1
l -7 -7
v -5
l -4 -10
h -2
l 3 8
l -1 7
l 3 8
l 16 2
l 5 9
l -5 9
l 3 3
l 1 11
l 3 -4
l 7 4
l 6 10
l -3 27
l -5 -1
l -2 6
l 11 -1
l 2 3
h -6
l -6 4
l -6 -1
l -3 3
l -7 -12
l -11 3
l -6 -3
h -9
l -5 7
l -11 -2
l -8 5
l -1 4
h -6
l -1 -9
l -13 5
l 1 2
l 10 -5
l -6 8
v 2
h -1
l -2 1
l 2 -1
v 1
l -3 1
l -13 -12
l -9 -2
h -9
v 1
v -1
h -9
l -3 2
l -3 1
l -8 1
v -6
l 5 -5
l -2 -3
l 8 -8
v -9
l -6 -8
l -10 -7
l -7 -14
v -50
l 12 -3
l 19 -2
l 3 -1
l -13 -13
l 4 -13
l -2 -12
l 38 -7
l -1 -9
l 3 -7
l -1 -8
l -4 -3
l 1 -17
l 7 -11
v -13
l 7 -1
l -7 -17
l 19 -2
l 3 -11
l 10 -3
l -2 -9
l 6 -4
l -1 -11
l -6 -3
h -15
l -6 -2
l 1 -11
l 4 -7
l 26 -4
l -7 -43
l -14 2
l 1 -13
l 3 -21
l -10 3
l 1 -11
v -21
l 1 -26
l -29 4
l -24 3
l 4 -6
l -49 -4
l 4 -15
l -23 -8
l -12 -2
Z
M892 481
l -1 7
l -4 5
l -3 -6
l 3 -6
Z"/>
<path data-race-id="CT03" d="M301 602
l 1 -3
l 1 1
v -4
l 4 -9
v -10
l -4 -13
v -6
l 11 -9
l -3 -12
l 18 -7
l 3 5
l 8 4
l -1 -12
l 4 -7
l 1 -10
l -3 -2
v -7
l -3 -4
l -12 -9
l -4 -9
l -7 -5
l -4 -9
l 16 -13
l 2 -7
l 11 -1
l 2 -2
l -5 -7
l 8 -29
v -6
l -13 -11
v -4
l 4 -7
v -9
h 13
l -7 -11
l 4 -1
l 8 2
l -1 -4
l 4 -5
l 8 -2
l 7 2
l 4 7
l 6 5
l 11 -5
l 17 9
l 5 8
l -3 8
l -1 10
l -4 10
l 16 3
l 16 7
l 19 -36
l -2 -8
l 23 6
l 17 8
l 12 -2
v -11
l -4 -42
v -8
l 10 -2
l 1 -5
l 8 -2
l 9 3
l -3 7
v 9
l 5 1
v 7
h 8
l 2 -5
l 10 -2
l 1 6
l 5 3
l 14 -2
l 6 4
h 10
l 8 3
l 4 3
l 1 8
l -3 7
l 1 9
l -38 7
l 2 12
l -4 13
l 13 13
l -3 1
l -19 2
l -12 3
v 50
l 7 14
l 10 7
l 6 8
v 9
l -8 8
l 2 3
l -5 5
v 6
v -1
l -4 -2
v -1
h -1
v 1
l -1 1
v 1
h -1
l -2 1
h -1
l -1 7
l -3 -2
l -1 2
v 2
l -4 4
l -6 1
v -1
h -2
l -2 -1
l 6 -6
l -2 -3
l -6 4
l 1 -5
l -7 4
l -5 -4
l -5 2
l -1 -5
l -10 2
l -6 -1
l -9 5
l -8 7
l -1 -6
l 7 -3
l -9 -2
l -5 10
l -3 -7
l -9 9
l -17 1
l -2 -2
h -1
l -1 -2
v -1
l 1 -1
l 1 -1
l 1 -1
l 1 -5
l -3 -4
l -1 1
l 1 -1
l -1 -5
l -1 -3
v -1
l 3 -12
l -8 5
l -4 6
l -1 1
v 1
l -3 1
h -1
l -2 2
v 2
l 1 1
l 1 1
l 6 1
v 1
l -5 5
l -12 5
v 1
l -7 5
l -3 7
h -1
l -3 -2
l -3 8
l -6 1
l -2 4
v 3
l -1 1
l -2 3
h -3
l -5 -2
v 1
l -4 3
l -6 -6
l -3 2
l -8 7
h -1
l -4 3
v 1
l -2 1
l -1 1
l -1 1
l -3 4
v 2
l -1 1
l -1 1
l -2 1
l -8 -5
l 7 -14
v -20
l -4 5
l 2 4
v 12
l -6 8
l -1 8
l 9 8
v 7
l -12 4
l -16 -7
Z"/>
<path data-race-id="CT04" d="M37 630
l 1 -2
l 3 -1
l 14 -9
l 13 -8
l 1 -1
l 4 -2
l 3 -1
l 4 -3
h 1
l 5 -3
l 2 -1
v -1
h 1
l 15 -9
l 20 -12
h 1
l 6 -4
l 2 -1
l 2 -1
l 6 -4
h 2
v -1
l 2 -2
l -4 -6
l -5 -9
l -3 -6
l -2 -3
l -2 -3
l -1 -1
l -3 -5
l -1 -1
l -6 -11
l -5 -9
l 1 -13
v -11
l 3 -28
v -1
h 18
l 2 10
l 8 4
l 7 19
l 13 -3
l 41 -9
l 7 -3
l 6 22
l 51 -34
l 6 4
l 8 -5
l -1 -6
l 4 -5
l 7 -2
l -3 -4
l 2 -6
l -12 -9
l 22 -18
l -1 -7
l 4 -2
v -18
l 17 2
l 9 -2
v 4
l 13 11
v 6
l -8 29
l 5 7
l -2 2
l -11 1
l -2 7
l -16 13
l 4 9
l 7 5
l 4 9
l 12 9
l 3 4
v 7
l 3 2
l -1 10
l -4 7
l 1 12
l -8 -4
l -3 -5
l -18 7
l 3 12
l -11 9
v 6
l 4 13
v 10
l -4 9
h -1
l -9 -5
l -2 9
l -8 1
l -6 6
l -3 -2
l -3 7
l -3 -3
l -5 12
l -9 6
l -13 -6
l -5 2
l -6 7
l -5 -1
l -6 3
l -5 -2
l -5 7
l -9 -5
l -4 2
l 5 7
l -7 2
l -6 7
l -6 -9
h -2
l 1 16
l -5 -2
l -3 6
h -4
v 7
l -7 -2
l -5 4
l -4 -2
l -5 11
l -4 -4
l -3 2
l -2 -5
l -8 6
l -6 1
l 3 5
l -7 8
l -1 -11
l -5 1
l -12 13
l -1 7
l -9 1
l 2 -5
l 4 2
l 2 -7
l -12 2
l 2 -6
v -11
l -5 9
l 1 5
l -8 6
l -4 -1
l -1 5
l -9 -2
l -5 10
l -2 -2
l 1 -15
l -1 -2
l -1 -1
l -1 -1
v -1
l -1 -1
l -2 -3
l -9 -14
v -2
l -1 -1
l -1 -2
l -2 -3
l -4 -7
l -1 -1
l -5 -7
v -2
l -1 -1
v -1
h -1
l -1 -2
l -2 -2
v -3
l 11 -6
Z"/>
<path data-race-id="CT05" d="M118 450
v -12
l 1 -4
v -1
l 1 -10
v -2
l 1 -5
v -23
l 1 -2
v -4
l 2 -34
l 1 -1
v -10
l 2 -25
l 2 -16
v -2
l 1 -16
v -5
l 1 -10
v -3
l 4 -53
v -3
l 2 -21
l 2 -22
l 1 -23
l 2 -31
v -10
l 2 -18
v -6
l 3 -34
v -5
l 1 -19
v -1
l 25 -1
l 22 1
l 38 2
h 10
l 16 1
h 13
l 36 2
h 14
l -12 59
l -4 13
l -4 21
l -5 17
l -1 9
l -10 45
l 18 -2
l 2 7
l 9 -3
l -1 -10
l 3 -6
l 8 1
v -7
l 8 -6
l 4 6
l 1 7
l 5 9
h 32
l 34 -5
l 5 -23
l -7 -1
l 1 -12
l 4 -22
l 13 -1
l 5 -17
l 21 1
l 15 1
l 30 1
l 5 8
l -3 2
l -3 14
l -6 17
v 19
h -7
v 22
l -1 7
l 2 20
l 7 2
l 1 12
l 5 -7
l 3 2
v 14
l 6 43
l -34 3
l -1 -7
l -30 4
l -3 -23
l -2 -7
l -2 -18
l -24 4
l -25 3
l 3 14
l 5 33
l 21 -2
l 2 16
v 11
l -5 29
l 25 -4
h 7
l 6 10
l 11 3
l -2 -15
l 11 -3
v 10
l 3 2
l 11 -14
l 22 -3
l 4 42
v 11
l -12 2
l -17 -8
l -23 -6
l 2 8
l -19 36
l -16 -7
l -16 -3
l 4 -10
l 1 -10
l 3 -8
l -5 -8
l -17 -9
l -11 5
l -6 -5
l -4 -7
l -7 -2
l -8 2
l -4 5
l 1 4
l -8 -2
l -4 1
l 7 11
h -13
v 9
l -4 7
l -9 2
l -17 -2
v 18
l -4 2
l 1 7
l -22 18
l 12 9
l -2 6
l 3 4
l -7 2
l -4 5
l 1 6
l -8 5
l -6 -4
l -51 34
l -6 -22
l -7 3
l -41 9
l -13 3
l -7 -19
l -8 -4
l -2 -10
h -18
Z"/>
</g>
  <path class="districts-mesh" d="M493 51
l -2 9
l 12 2
l 23 8
l -4 15
l 49 4
l -4 6
l 24 -3
l 29 -4
l -1 26
v 21
l -1 11
l 10 -3
l -3 21
l -1 13
l 14 -2
l 7 43
l -26 4
l -4 7
l -1 11
l 6 2
h 15
l 6 3
l 1 11
l -6 4
l 2 9
l -10 3
l -3 11
l -19 2
l 7 17
l -7 1
v 13
l -7 11
l -1 17
l -8 -3
h -10
l -6 -4
l -14 2
l -5 -3
l -1 -6
l -10 2
l -2 5
h -8
v -7
l -5 -1
v -9
l 3 -7
l -9 -3
l -8 2
l -1 5
l -10 2
v 8
l -22 3
l -11 14
l -3 -2
v -10
l -11 3
l 2 15
l -11 -3
l -6 -10
h -7
l -25 4
l 5 -29
v -11
l -2 -16
l -21 2
l -5 -33
l -3 -14
l 25 -3
l 24 -4
l 2 18
l 2 7
l 3 23
l 30 -4
l 1 7
l 34 -3
l -6 -43
v -14
l -3 -2
l -5 7
l -1 -12
l -7 -2
l -2 -20
l 1 -7
v -22
h 7
v -19
l 6 -17
l 3 -14
l 3 -2
l -5 -8
l -30 -1
l -15 -1
l -21 -1
l -5 17
l -13 1
l -4 22
l -1 12
l 7 1
l -5 23
l -34 5
h -32
l -5 -9
l -1 -7
l -4 -6
l -8 6
v 7
l -8 -1
l -3 6
l 1 10
l -9 3
l -2 -7
l -18 2
l 10 -45
l 1 -9
l 5 -17
l 4 -21
l 4 -13
l 12 -59
M552 532
v -6
l 5 -5
l -2 -3
l 8 -8
v -9
l -6 -8
l -10 -7
l -7 -14
v -50
l 12 -3
l 19 -2
l 3 -1
l -13 -13
l 4 -13
l -2 -12
l 38 -7
l -1 -9
l 3 -7
l -1 -8
l -4 -3
M303 596
l 4 -9
v -10
l -4 -13
v -6
l 11 -9
l -3 -12
l 18 -7
l 3 5
l 8 4
l -1 -12
l 4 -7
l 1 -10
l -3 -2
v -7
l -3 -4
l -12 -9
l -4 -9
l -7 -5
l -4 -9
l 16 -13
l 2 -7
l 11 -1
l 2 -2
l -5 -7
l 8 -29
v -6
l -13 -11
v -4
l 4 -7
v -9
h 13
l -7 -11
l 4 -1
l 8 2
l -1 -4
l 4 -5
l 8 -2
l 7 2
l 4 7
l 6 5
l 11 -5
l 17 9
l 5 8
l -3 8
l -1 10
l -4 10
l 16 3
l 16 7
l 19 -36
l -2 -8
l 23 6
l 17 8
l 12 -2
v -11
l -4 -42
M117 457
h 18
l 2 10
l 8 4
l 7 19
l 13 -3
l 41 -9
l 7 -3
l 6 22
l 51 -34
l 6 4
l 8 -5
l -1 -6
l 4 -5
l 7 -2
l -3 -4
l 2 -6
l -12 -9
l 22 -18
l -1 -7
l 4 -2
v -18
l 17 2
l 9 -2"/>
</svg>