<svg version="1.1" xmlns="http://www.w3.org/2000/svg" width="1000" height="729" viewBox="0 0 1000 729"><path data-race-id="CT01" d="M285,189l11,-46l5,-22l3,-12l2,-13l5,-18l11,-54h2l23,2h16l17,1h6l47,1h18l7,1h16l-2,25l13,-2l8,-1l-2,9l8,2l27,8l-4,15l13,1l36,3l-4,6l24,-3l29,-4l-1,26v21l-1,2v9l10,-3l-3,21v6l-1,7l15,-3l1,10l5,34l-26,4l-4,7l-1,11l6,2h15l6,3l1,11l-6,4l2,9l-10,3l-3,11l-19,2l7,17l-7,1v13l-7,11l-1,17l-8,-3h-10l-6,-4l-14,2l-5,-3l-1,-6l-5,-3l-5,5l-2,5h-8v-7l-5,-4l3,-14l-9,-2l-8,2l-1,5l-10,2v8l-22,3l-11,14l-3,-2v-10l-7,2l-4,1l2,15l-4,-2l-7,-1l-6,-10h-7l-25,4l5,-29v-11l-2,-16l-21,2l-5,-33l-3,-14l25,-3l24,-4l2,17l5,31l30,-4l1,7l3,-1l31,-2l-4,-27l-1,-14l-1,-4v-12h-6l-2,5l-1,-12l-7,-2v-5l-2,-15l1,-15v-13l7,-1v-19l6,-17l1,-8l4,-8l-4,-8h-8l-44,-2l-14,-1l-5,17l-13,1l-4,22l-1,12h5l2,4l-5,20l-34,5h-32l-5,-9l-1,-7l-4,-6l-8,6v7l-8,-1l-3,6v11l-5,2l-5,-7Z"/><path data-race-id="CT02" d="M493,51l5,-4h2l-1,-2v-1l1,-2h1l-2,-1v-1h-1v-2l1,1l1,-1l1,1l2,-2l1,-3l1,-1l-2,-4h39l6,1l21,2h5v4h13l10,-4l14,-2h47l8,1h136l1,1h5l10,1h73l1,1h7l22,1h43l2,5v10l1,7v37l1,2v23l1,5v13l1,5v17l1,5v20h1v16l1,11v22l1,5v17l1,10v41l-1,7v42l-1,8v28l-1,5v28l-1,6l-12,-1l-1,2v1h-1l-3,2h-3l-1,2v9l1,2l2,1l1,1l1,5v8l-3,3v3l2,4h1v2l1,5l-9,9l-6,4l-5,-9h-4l-1,-6l-13,13l-3,-14l-3,12l-9,-5l-7,3l-4,-9l-4,-2l-2,1l-6,15l-9,4v8l-7,-5l1,-7l-7,8l-6,-4l4,-10l-6,8l-4,-1l-4,6l-5,-3l-5,-14l-2,-29l-3,-9l2,-10l-3,-10l3,-5h-1l-6,8l2,1l1,23l-1,3v6l5,8l-3,8l2,4l-4,6l5,8l-2,8l-4,4l-2,1l-2,2l-17,-2l-5,-7l-4,6l-5,-3l-2,-7v-1l-7,-1l-6,7l1,16l-11,-7h-13v6l-4,4h-9l-10,3l-14,2l-4,-3l-6,-13l2,-19l-10,-8h-1l-6,-12l3,-9l-7,-9l-11,-1l-7,-7v-5l-4,-10h-2l3,13l-1,2l3,8l12,1l5,2l1,2l4,8l-6,7l3,3l1,11l5,-3l1,1l4,2l6,10l-3,27l-5,-1l-2,6h14l-13,6l-6,-1l-3,3l-7,-12h-7l-2,1l-17,-1l-5,7l-4,-1l-7,-1l-6,3l-3,6h-6l-1,-9l-13,5l1,2l10,-5l-6,8v2h-1l-2,1l2,-1v1l-3,1l-13,-12l-9,-2h-9v1v-1h-9l-3,2l-3,1l-8,1v-6l5,-5l-2,-3l8,-8v-9l-6,-8l-10,-7l-7,-14v-50l12,-3l19,-2l3,-1l-13,-13l4,-13l-3,-11l39,-8l-1,-9l3,-7l-1,-8l-4,-3l1,-17l7,-11v-13l7,-1l-7,-17l19,-2l3,-11l10,-3l-2,-9l6,-4l-1,-11l-6,-3h-15l-6,-2l1,-11l4,-7l26,-4l-5,-34l-1,-10l-15,3l1,-7v-6l3,-21l-10,3v-9l1,-2v-21l1,-26l-29,4l-24,3l4,-6l-36,-3l-13,-1l4,-15l-27,-8l-8,-2ZM892,481l-1,7l-4,5l-3,-6l3,-6Z"/><path data-race-id="CT03" d="M301,602l1,-3l1,1v-4l4,-9l-1,-14l-3,-9l2,-9l9,-6l-3,-11l18,-8l3,5l8,4v-15l3,-4l1,-10l-3,-2v-7l-3,-4l-12,-9l-4,-9l-7,-5l-4,-9l16,-13l2,-7l11,-1l2,-3l-5,-6l8,-29v-5l-12,-12l-1,-4l4,-7v-9h13l-7,-11h9l5,-7l9,-3l7,2l4,7l6,5l11,-5l5,2l12,7l5,8l-3,8l-1,10l-5,10h3l14,3l15,8l20,-37l-2,-8l23,6l17,8l12,-2v-11l-2,-19l-2,-23v-8l10,-2l1,-5l8,-2l9,2l-3,14l5,4v7h8l2,-5l5,-5l5,3l1,6l5,3l14,-2l6,4h10l8,3l4,3l1,8l-3,7l1,9l-39,8l3,11l-4,13l13,13l-3,1l-19,2l-12,3v50l7,14l10,7l6,8v9l-8,8l2,3l-5,5v6v-1l-4,-2v-1h-1v1l-1,1v1h-1l-2,1h-1l-1,7l-3,-2l-1,2v2l-4,4l-6,1v-1h-2l-2,-1l6,-6l-2,-3l-6,4l1,-5l-7,4l-3,-3l-2,-1l-5,2l-1,-5l-10,2l-6,-1l-9,5l-8,7l-1,-6l7,-3l-9,-2l-5,10l-3,-7l-9,9l-17,1l-2,-2v-1v1h-1l-1,-2v-1l1,-1l1,-1l1,-1l1,-5l-3,-4l-1,1l1,-1l-1,-5l-1,-3v-1l3,-12l-8,5l-4,6l-1,1v1l-3,1h-4l1,2v2l1,1l1,1l6,1v1l-5,5l-12,5v1l-7,5l-3,7h-1l-4,-2h1l-3,8l-6,1l-2,4v3l-1,1l-2,3h-3l-5,-2v1l-4,3l-6,-6l-3,2l-8,7h-1l-4,3v1l-2,1l-1,1l-1,1l-3,4v2l-1,1l-1,1l-2,1l-8,-5l7,-14v-20l-4,5l2,4v12l-6,8l-1,8l9,8v7l-12,4l-16,-7Z"/><path data-race-id="CT04" d="M37,630l1,-2l3,-1l14,-9l13,-8l1,-1h2l2,-2l3,-1l4,-3h1l5,-3l2,-1v-1h1l21,-12l1,-1l13,-8h1l6,-4l2,-1l2,-1l6,-4h2v-1l1,-1l1,-1l-4,-6l-5,-9l-3,-6l-2,-3l-2,-3l-1,-1l-3,-5l-1,-1l-6,-11l-5,-9l1,-13v-11l3,-27v-2l4,2l2,-1h4l8,-1l2,10l8,4l7,19l23,-5l31,-7l7,-3l6,22l4,-3l10,-6l37,-25l6,4l8,-5l-1,-6l4,-5l7,-2l-3,-4l2,-6l-12,-9l22,-18l-1,-7l4,-2v-18l17,2l9,-2l1,4l12,12v5l-8,29l5,6l-2,3l-11,1l-2,7l-16,13l4,9l7,5l4,9l12,9l3,4v7l3,2l-1,10l-3,4v15l-8,-4l-3,-5l-18,8l3,11l-9,6l-2,9l3,9l1,14l-4,9h-1l-9,-5l-2,9l-8,1l-6,6l-3,-2l-3,7l-3,-3l-1,1l-4,11l-9,6l-13,-6l-4,2h-1l-6,7l-5,-1l-6,3l-5,-2l-5,7l-9,-5l-4,2l5,7h-4l-3,2l-6,7l-6,-9h-2l1,16l-5,-2l-3,6h-4l-3,7l-4,-2l-5,4l-4,-2l-5,11l-4,-4l-3,2l-2,-5l-1,1l-7,5l-6,1l3,5l-7,8l-1,-11l-5,1l-4,5l-2,1l-6,7l-1,7l-9,1l2,-5l4,2l2,-7l-12,2l2,-6v-11l-5,9l1,5l-8,6l-4,-1l-1,5l-9,-2l-5,10l-2,-2l1,-15l-1,-2l-1,-1l-1,-1v-1l-1,-1l-2,-3l-9,-14v-2l-1,-1l-1,-2l-2,-3l-4,-7l-1,-1l-5,-7v-2l-1,-1v-1h-1l-1,-2l-2,-2v-3l11,-6Z"/><path data-race-id="CT05" d="M118,450v-12l1,-4v-1l1,-10v-2l1,-4v-24l1,-2v-4l2,-23l1,-12v-10l2,-25l2,-16v-2l1,-16v-5l1,-10v-3l4,-53v-3l2,-21v-1l2,-21l1,-23l2,-31v-10l2,-18v-6l3,-34v-5l1,-19v-1l25,-1l22,1l24,1h2l12,1h10l16,1h13l36,2h14l-11,54l-5,18l-2,13l-3,12l-5,22l-11,46l19,-3l5,7l5,-2v-11l3,-6l8,1v-7l8,-6l4,6l1,7l5,9h32l34,-5l5,-20l-2,-4h-5l1,-12l4,-22l13,-1l5,-17l14,1l44,2h8l4,8l-4,8l-1,8l-6,17v19l-7,1v13l-1,15l2,15v5l7,2l1,12l2,-5h6v12l1,4l1,14l4,27l-31,2l-3,1l-1,-7l-30,4l-5,-31l-2,-17l-24,4l-25,3l3,14l5,33l21,-2l2,16v11l-5,29l25,-4h7l6,10l7,1l4,2l-2,-15l4,-1l7,-2v10l3,2l11,-14l22,-3l2,23l2,19v11l-12,2l-17,-8l-23,-6l2,8l-20,37l-15,-8l-14,-3h-3l5,-10l1,-10l3,-8l-5,-8l-12,-7l-5,-2l-11,5l-6,-5l-4,-7l-7,-2l-9,3l-5,7h-9l7,11h-13v9l-4,7l-9,2l-17,-2v18l-4,2l1,7l-22,18l12,9l-2,6l3,4l-7,2l-4,5l1,6l-8,5l-6,-4l-37,25l-10,6l-4,3l-6,-22l-7,3l-31,7l-23,5l-7,-19l-8,-4l-2,-10l-8,1h-4l-2,1l-4,-2Z"/>  <path class="mesh" d="M493,51l-2,9l8,2l27,8l-4,15l13,1l36,3l-4,6l24,-3l29,-4l-1,26v21l-1,2v9l10,-3l-3,21v6l-1,7l15,-3l1,10l5,34l-26,4l-4,7l-1,11l6,2h15l6,3l1,11l-6,4l2,9l-10,3l-3,11l-19,2l7,17l-7,1v13l-7,11l-1,17l-8,-3h-10l-6,-4l-14,2l-5,-3l-1,-6l-5,-3l-5,5l-2,5h-8v-7l-5,-4l3,-14l-9,-2l-8,2l-1,5l-10,2v8l-22,3l-11,14l-3,-2v-10l-7,2l-4,1l2,15l-4,-2l-7,-1l-6,-10h-7l-25,4l5,-29v-11l-2,-16l-21,2l-5,-33l-3,-14l25,-3l24,-4l2,17l5,31l30,-4l1,7l3,-1l31,-2l-4,-27l-1,-14l-1,-4v-12h-6l-2,5l-1,-12l-7,-2v-5l-2,-15l1,-15v-13l7,-1v-19l6,-17l1,-8l4,-8l-4,-8h-8l-44,-2l-14,-1l-5,17l-13,1l-4,22l-1,12h5l2,4l-5,20l-34,5h-32l-5,-9l-1,-7l-4,-6l-8,6v7l-8,-1l-3,6v11l-5,2l-5,-7l-19,3l11,-46l5,-22l3,-12l2,-13l5,-18l11,-54M552,532v-6l5,-5l-2,-3l8,-8v-9l-6,-8l-10,-7l-7,-14v-50l12,-3l19,-2l3,-1l-13,-13l4,-13l-3,-11l39,-8l-1,-9l3,-7l-1,-8l-4,-3M303,596l4,-9l-1,-14l-3,-9l2,-9l9,-6l-3,-11l18,-8l3,5l8,4v-15l3,-4l1,-10l-3,-2v-7l-3,-4l-12,-9l-4,-9l-7,-5l-4,-9l16,-13l2,-7l11,-1l2,-3l-5,-6l8,-29v-5l-12,-12l-1,-4l4,-7v-9h13l-7,-11h9l5,-7l9,-3l7,2l4,7l6,5l11,-5l5,2l12,7l5,8l-3,8l-1,10l-5,10h3l14,3l15,8l20,-37l-2,-8l23,6l17,8l12,-2v-11l-2,-19l-2,-23M117,457l4,2l2,-1h4l8,-1l2,10l8,4l7,19l23,-5l31,-7l7,-3l6,22l4,-3l10,-6l37,-25l6,4l8,-5l-1,-6l4,-5l7,-2l-3,-4l2,-6l-12,-9l22,-18l-1,-7l4,-2v-18l17,2l9,-2"/></svg>