<svg version="1.1" xmlns="http://www.w3.org/2000/svg" width="415" height="1000" viewBox="0 0 415 1000"><g class="districts"><path data-race-id="DE00" d="M11,127v-23h5l3,-1l7,-16v-2l2,-2l1,-1v-1l3,-4l1,-2v-1l1,-1l3,-3l2,-4l7,-7l1,-1l2,-2l1,-1l10,-9l22,-12l11,-4h2l3,-1l4,-2h2l5,-1l17,-1h23l2,1h2l11,3h2l23,10l2,1l2,1l1,1l5,2l2,1l1,1l-13,6l-12,11l-6,11l-1,5l-8,10l-6,18l-11,-4l10,6l-5,12l-14,19l-6,8l-13,6l-15,21l1,15l3,6l5,1l7,8l11,10l-3,12v11l-4,13l-6,8l-3,12l3,14l11,15l13,12l14,28v11l2,-1l9,9l-2,8l2,10l4,-8l11,3l5,7l5,2l3,6l2,11l15,18l3,8l-1,8l2,9l-2,5l5,5l2,13l-8,15l-1,19l1,15l4,19v21l3,8l14,10l13,13l13,22l4,14v11l-1,2l1,1h-1v2l-1,7l1,6l6,10l15,18l9,8l15,22l6,5l13,15l5,8l27,13h8l11,-4l4,-9l5,22l1,21l4,23l4,23l1,42l-5,-1l4,-7l-8,-13l4,-8v-11l-3,-18l-6,1v4l-9,-3l-6,4l-18,-6l7,8l3,8l-1,3l5,15l-9,-1l-3,-5v6l8,3l6,6l9,-3l-2,4l6,6l-11,4l-3,-1l-13,5l-5,-2l-1,8l-10,5l-9,1l-6,-2l-3,2h-9l4,5l21,1l-3,6l-6,2l3,5l11,-8l7,-2l3,-6l7,-1l4,-3l13,3v5l6,2l1,5l4,-7l2,2l4,-7l2,7l6,-3l-6,-15l7,-1l2,38l3,25l2,32l-1,11h-11v-1h-4l-11,-5l7,6h-184l-17,-1h-33l-11,-1h-10l-11,-1h-16l-27,-2h-16l-1,-12l-2,-31l-1,-7v-7l-1,-3v-12l-1,-15v-6l-1,-2v-17l-1,-5v-7l-2,-33l-1,-7v-5l-1,-18l-1,-12l-2,-49l-1,-6v-12l-1,-3v-3l-1,-19l-1,-25l-1,-8l-1,-14v-3l-2,-30v-6l-1,-16v-2l-1,-11l-1,-32l-1,-19l-2,-26v-9l-1,-11l-1,-4l-1,-19v-2l-1,-19l-1,-12v-15h-1v-17l-1,-15l-1,-4v-18l-1,-1v-10l-2,-46l-2,-24l-1,-18l-1,-13l-2,-22v-12l-1,-11v-1l-1,-16v-6l-1,-10l1,-15ZM132,177l1,7h-4l-5,-9l2,-6l5,-1v7Z"/></g></svg>