<svg version="1.1" xmlns="http://www.w3.org/2000/svg" width="1000" height="979" viewBox="0 0 1000 979">
  <path d="M966 752
l -1 -6
l 1 5
l -5 5
l -2 9
v 3
l -1 5
l -6 5
l -3 12
l -5 3
l 1 6
l -3 6
l -2 3
l 2 17
h 3
l -4 9
l -5 3
v 3
v -2
l -6 6
v 4
h -1
v -1
h -1
v 1
h -4
l -1 1
h -2
v 2
h 1
v 1
h -1
l -1 -1
v 1
h 1
v 1
h -1
v -1
h -1
l 1 -1
h -1
v -1
h -2
v 1
h -1
l 4 -3
h -9
l -4 3
h 9
v 1
h -1
v -1
h -2
v 2
h 1
h -1
v 1
h -2
v -1
l 1 1
v -1
h 1
v -1
h -1
v -1
v 1
h -1
v -1
l -1 1
v 1
h -1
v 2
h -2
v 2
h -2
h 1
v -1
h -1
h 2
v -1
h 1
l -1 -1
v -1
h -1
l -1 1
h -2
v 1
h -2
v 1
h -1
l -1 1
h 4
h -1
l -1 2
v 1
l -1 1
h 1
h -1
l -1 1
v -1
v 1
h -1
v -1
h 2
v -1
h 1
v -1
h -1
v -1
v 1
h -1
l -1 -1
v 1
h -1
v -1
v 1
h -1
v 2
h -1
v 1
l -1 -1
h -2
v -2
h -1
h 1
v 1
h -2
v -1
h -1
v 1
l 1 1
h 3
h -1
l -1 1
h -1
l -1 -1
h -1
l -1 -1
h -1
v 2
h -1
v 1
v -1
l 1 -1
h -1
v -2
h -2
v 1
h -1
v 2
v -3
l 1 -1
v -1
h -3
h 1
h -1
v 1
h 1
v 1
h -1
v 1
h -1
l -1 -1
v -1
h -3
l -5 4
l -12 3
h -10
l -14 -13
l 3 -17
h 7
l -1 5
l 4 8
l 9 5
h 10
l 3 -6
l -12 -13
l -6 4
l -2 -4
l -9 -1
l 2 -4
h -5
l -3 -14
l -6 -6
l 3 -4
l 7 -2
l 11 5
l -1 -6
l -7 -1
l -3 -5
l -6 9
l -7 -1
l -6 -19
l 8 -4
v -3
l -8 -1
l -1 6
l -7 -2
v -5
l -5 -1
l 4 -6
l -7 -7
l -6 -1
l -3 -4
l -17 -1
l 1 -4
h -8
l -10 -9
l 1 -4
l -7 -3
l -1 -10
l -3 1
l -2 -19
l -4 -12
l -1 -17
h -8
l -4 -4
l -9 -1
l 1 -6
l 4 2
l 7 -4
l 6 -14
l 9 -8
l -10 5
h 1
l -5 3
l -4 13
l -12 2
l -1 -13
l -4 -5
l 2 -15
l 1 -16
l -4 -1
l -1 -6
l 13 -6
h -8
l -1 3
l -8 -2
l -5 5
l -3 -5
h -5
l -4 -6
v 1
l 2 5
l 8 4
l 3 13
l -4 5
h -8
l -8 -6
l -5 -13
l -13 -16
l -5 -16
l -1 -7
l -5 -5
l -1 -11
l -3 -9
l -2 -3
l -11 -4
l 4 -4
l -1 -5
l -4 3
v -5
l 8 2
h 10
l -10 -2
l 5 -4
l -4 -2
l 6 -12
l 10 -15
l 5 -2
l 5 -10
v -1
l 1 -3
h 6
h -6
l -9 -11
l -4 2
l 2 15
l -8 -2
l 1 -6
l -2 -12
l -8 -2
l -5 -6
l -3 -2
l -4 8
h -1
h 2
l -4 6
l 12 4
l 4 10
l -2 4
l -1 12
l -3 4
l -6 -2
v -4
l -6 -2
l -2 -11
l -1 5
l -6 -6
l -1 4
l -4 -8
l 6 -12
l 1 -7
l 2 -8
l -1 -17
l 4 -8
l 2 -14
l 4 -5
v -6
l 4 -5
l 3 -13
l -2 -18
l 4 -6
l -8 -5
l 6 -4
l -6 -2
l 1 -6
h -4
v -8
l 8 2
v -7
l -9 -6
l -4 -7
l 1 -7
l -9 -4
l 1 -13
l -7 1
l -21 -1
l -4 -5
v -7
l -5 -4
l -7 -1
l 7 -5
h -6
l -10 -16
l -5 1
l -4 -5
l -11 -7
l -1 -22
h 2
l -9 -1
l -5 -6
l -7 -3
l -4 -12
l -11 -13
l -10 -6
l -3 -4
h -7
l -12 -7
l -8 -9
l -10 -1
l -12 4
l -8 -2
l -4 -4
v 8
l -7 -3
l -4 4
v 12
l -11 -1
l 15 6
l -1 5
l -15 -5
l -10 3
l -13 10
h -3
l -11 8
l -18 7
l 4 -8
l -8 4
l -1 3
h -8
l -5 -5
l 6 5
l 1 4
l -16 -1
l -12 3
l -14 2
l -3 3
l -4 -5
l 8 2
l 2 -3
l 1 -15
l -11 -17
l -3 -3
l -8 -1
l -1 -3
l -11 -11
l -13 -6
l 7 1
l -8 -5
h 9
v 3
h 6
l 10 12
l 7 -3
l 5 2
v -4
l -11 3
l -1 -9
l -5 -1
l 1 -4
l -9 2
l -9 -7
l -7 -2
l 6 -10
l 11 -3
l 4 -12
l -7 11
l -11 1
l -3 5
l -1 -8
l -13 -1
l -2 9
l 5 2
l 5 -4
l 3 11
l 4 4
l -10 -4
l -10 -8
l -14 -7
l -11 -5
l -21 -8
l -17 -3
l -14 -1
l 2 -5
l 12 3
l 8 2
l 12 -1
l 1 -4
l 7 6
h 6
v -7
l -15 -8
l -11 1
l -7 2
l -4 1
l -4 -5
l -12 7
l -7 -3
l 1 8
l -16 -2
l -9 1
l -23 1
l -19 4
l 5 -5
h 10
l 12 -8
l -11 -7
l 3 -3
v -7
l -5 4
l -4 13
l -5 1
l 1 -11
l -6 -7
l -4 -2
l 1 5
l 2 12
l -3 6
l -13 7
l 2 3
h -5
l -13 5
l -5 -1
l 4 -4
l -1 -8
l 10 -2
l -1 -5
h -6
l -4 -5
h 1
v -1
l -1 -1
v -1
l -1 -1
h -1
h 1
v -3
h 1
v -2
h 1
v -1
h 2
v -2
l 1 -1
v -4
h 1
l 1 -1
v -6
h -1
v -3
l -2 -1
h -1
l -1 -1
h -1
v -1
h -2
v -1
h -1
v -1
l -1 -1
v -1
h -2
l -2 -1
l -1 -1
h -1
v -2
h -1
v -2
l -1 -1
v -1
l -1 -1
v -1
h -1
v -1
h -1
v -1
h -1
v -2
h -3
v -2
h -2
v -2
h -1
v -6
h 1
v -2
h 1
v -1
l 1 -2
v -1
h 1
v -2
l 1 -1
v -6
h -1
v -1
h 17
v 1
h 26
l 2 1
l 9 -1
l 12 1
h 5
l 17 1
h 21
l 1 1
h 30
l 1 1
h 40
v 1
h 134
l 4 1
l -1 1
v 3
h 3
v 5
h 1
v 1
h 1
l 1 2
v 1
l 1 1
v 2
l 1 1
l -1 1
h 1
v 2
l 1 1
v 1
h -1
v 1
l 2 11
l 1 1
l 6 6
h 1
l 26 2
h 13
l 4 1
h 1
l 26 1
h 2
l 2 1
h 30
l 4 1
h 1
l 14 1
h 12
v 1
h 14
l 4 1
l 20 1
h 2
l 15 1
l 75 5
h 1
l 14 1
h 5
l 9 1
h 23
l 2 1
h 5
l -2 1
v 2
h -1
v 3
h 1
v 2
l 1 1
v 1
h 1
l 1 2
h 1
v 2
l -1 1
l 1 1
v 2
l -1 1
v 4
h 1
v 2
l 1 1
l 1 1
l 1 1
v 1
h 1
v 1
h 3
l 1 -1
h 5
v 1
h 5
l 1 -1
h 1
v -1
h 1
h -1
v -1
h 1
h -1
v -5
l 1 -1
l -1 -2
l 1 -1
v -1
h 1
v -3
l 1 -1
v -11
l 1 -2
v -2
h -1
v -3
h -2
v -3
v 1
v -1
h -1
v -2
l -1 -2
h -1
v -2
h 1
h -1
v -1
l 1 -1
h -1
h 1
v -3
h 1
v -2
l -1 -1
v -3
l 1 -1
v -1
l 1 1
v -1
h 2
v -1
l -1 -1
v -1
h -1
v -1
h 1
v -1
l 1 1
v -1
h 1
v 1
h 1
l 2 2
l 1 -1
v -2
h 1
v -4
l 1 -1
h 2
v 1
h 4
l -1 -1
h 1
v -1
l 4 6
h 4
l 1 1
v -1
l 1 1
v -1
h 2
l 2 2
v -1
l 1 2
l 1 1
v -2
l 4 2
v 1
l 2 1
h 2
l 5 1
v -2
h -1
v 1
l -1 -1
h 3
v 1
h 1
l 1 2
h 2
v -1
v 2
h 1
l 1 1
l 7 4
l 9 -4
l 6 2
l -1 23
l -5 -4
l -8 3
l -7 -2
l 3 -1
v 1
l -1 3
l 9 6
h 4
l -1 -8
l 3 4
l 2 16
h -11
l -1 4
l -6 -4
l -5 3
l 3 6
l -1 5
l -4 -1
l -1 1
v 1
l -8 6
l 4 3
l 3 1
l -1 7
l -1 6
l -7 2
l -2 5
l 7 -6
l 3 2
l -1 13
l 3 7
l 8 4
l -1 13
l 2 5
l 6 7
l -3 10
h -7
l -1 6
l 3 5
h 4
l -3 6
h -8
l -2 9
l 3 1
l -1 13
h 3
l 1 11
v 3
v -1
h -2
v 1
l -1 1
v 1
h 1
v 2
l 1 1
h 1
v 1
h 1
v 2
l 1 1
v 1
l 1 1
v 3
h 1
v 1
h 1
v 3
l 1 1
h 1
v 1
h 2
l 1 -1
l 3 2
l 4 -5
l -3 -6
l 2 -4
l -6 -8
l -10 -6
v -6
h -3
v -14
l -3 -1
l 2 -7
l 10 -1
l 1 -6
l -5 -9
h 8
l 6 -8
l -1 -1
l -4 -13
l -5 -9
l 4 -9
l -13 -8
l 4 -13
l 5 1
l -8 -1
l 4 -12
l -5 -15
l 3 1
h 5
l -3 -11
l 3 1
l 9 3
l -1 -4
l 10 2
l 3 8
l -1 9
l 4 8
l 1 7
l 4 7
v 10
l 5 4
l 2 11
v 14
l 7 8
l 6 13
h -1
l -3 2
l 10 16
l 5 14
l 3 2
l 1 12
l 6 7
l 10 24
l 4 7
l 17 35
l 4 6
l 3 5
l 11 12
l 4 -2
l -11 -12
l -1 -3
h 1
l 6 8
l 9 14
l 4 5
l 8 19
l -8 8
l -1 -9
l 2 -12
l -2 -7
l -1 8
l -7 16
v 23
l -7 -14
l -2 -25
l 1 -6
l -8 -4
v -10
l 5 -5
l -12 -9
h -2
l 5 24
l 11 34
l 8 18
l 4 12
l 7 17
l 14 26
l -1 4
l 1 -2
l 12 20
l 6 21
l 6 22
l 11 19
l 3 7
l -10 -1
l -1 -1
v -1
h -1
l 2 4
v 1
l 3 6
l 1 -5
h 6
l 5 6
l 6 11
l 6 15
h -7
l 3 4
h 6
l 5 18
l 1 4
v 2
l -1 -1
v -4
l -1 -1
l -1 1
v 7
l 1 2
v 30
h 1
v -31
l 1 1
v 29
l -3 16
l -1 15
l -3 33
l -2 1
l 1 17
Z
M966 752
l 1 3
v 13
l -3 1
l 2 -13
l -1 -1
Z
M951 557
h -1
l -2 -6
l -11 -18
l 1 -3
Z
M951 831
l -10 22
l -4 7
l -11 11
l -5 8
l -6 7
l 1 -6
l 16 -16
l 4 -5
v -6
l 6 -5
l 1 -8
Z
M935 516
l 3 11
l -2 1
l -3 -12
l -2 -8
l -5 -9
v -7
l -7 -7
v -7
l 6 10
l 5 18
Z
M893 409
l 2 -11
l 1 19
l 4 21
l 8 18
l 6 10
l -5 -3
l -2 -9
l -9 -14
l -3 -12
l 1 -15
Z
M829 251
l -8 -17
l -5 -10
l -1 -7
l 5 15
l 10 19
l 18 41
l -13 -25
Z
M856 845
l 4 7
l -9 -2
Z
M809 196
v 5
l -5 -6
l -1 -7
l 4 -4
Z
M821 778
l 4 3
l -4 3
l -3 -4
Z
M793 135
l 2 6
l 7 35
l -7 -12
l 1 -7
l -5 -8
l -4 -14
l 1 -5
l -3 -6
l 1 -10
l 4 3
Z
M809 925
l 5 5
l -4 4
l -4 -13
Z
M783 98
l 5 4
v 6
l -6 -4
Z
M780 942
l 4 -1
l -1 -5
l 4 -7
l 5 9
Z
M761 748
l 9 3
l -4 5
l -4 -1
l -4 -7
Z
M755 946
l 7 -2
l 1 4
l -10 2
Z
M701 675
l 10 1
l 4 4
l 3 -4
l 4 3
l -6 4
l -8 -2
Z
M704 643
l 5 2
l 1 10
l 5 15
h -5
l -4 -19
l -4 -4
Z
M381 210
l -6 6
l -24 13
l -5 1
l 18 -10
l 9 -3
Z
M332 217
l 4 3
l -6 6
l -11 -7
l 10 1
Z
M125 115
l -15 2
v -1
l 15 -2
l 2 -1
h 24
l 1 1
h -27
Z"/>
<g class="districts">
<path data-race-id="FL01" d="M25 43
v -3
h 1
v -2
h 1
v -1
l 1 -2
v -1
h 1
v -2
l 1 -1
v -6
h -1
v -1
h 17
v 1
h 26
l 2 1
l 9 -1
l 12 1
h 5
l 17 1
h 21
l 1 1
h 30
l 1 1
h 40
v 1
h 67
v 7
l -3 8
l -5 4
l -10 -1
l -7 7
l -1 4
h -4
l -3 11
l -1 2
l -3 5
l -5 3
l 3 8
v 12
l 3 2
l -4 6
h -8
l -5 8
v 17
l -11 -5
l -21 -8
l -17 -3
l -14 -1
l 2 -5
l 12 3
l 8 2
l 12 -1
l 1 -4
l 7 6
h 6
v -7
l -15 -8
l -11 1
l -7 2
l -4 1
l -4 -5
l -12 7
l -7 -3
l 1 8
l -16 -2
l -9 1
l -23 1
l -19 4
l 5 -5
h 10
l 12 -8
l -11 -7
l 3 -3
v -7
l -5 4
l -4 13
l -5 1
l 1 -11
l -6 -7
l -4 -2
l 1 5
l 2 12
l -3 6
l -13 7
l 2 3
h -5
l -13 5
l -5 -1
l 4 -4
l -1 -8
l 10 -2
l -1 -5
h -6
l -4 -5
h 1
v -1
l -1 -1
v -1
l -1 -1
h -1
h 1
v -3
h 1
v -2
h 1
v -1
h 2
v -2
l 1 -1
v -4
h 1
l 1 -1
v -6
h -1
v -3
l -2 -1
h -1
l -1 -1
h -1
v -1
h -2
v -1
h -1
v -1
l -1 -1
v -1
h -2
l -2 -1
l -1 -1
h -1
v -2
h -1
v -2
l -1 -1
v -1
l -1 -1
v -1
h -1
v -1
h -1
v -1
h -1
v -2
h -3
v -2
h -2
v -2
h -1
v -3
Z
M125 115
l -15 2
v -1
l 15 -2
l 2 -1
h 24
l 1 1
h -27
Z"/>
<path data-race-id="FL02" d="M224 133
v -17
l 5 -8
h 8
l 4 -6
l -3 -2
v -12
l -3 -8
l 5 -3
l 3 -5
l 1 -2
l 3 -11
h 4
l 1 -4
l 7 -7
l 10 1
l 5 -4
l 3 -8
v -7
h 67
l 4 1
l -1 1
v 3
h 3
v 5
h 1
v 1
h 1
l 1 2
v 1
l 1 1
v 2
l 1 1
l -1 1
h 1
v 2
l 1 1
v 1
h -1
v 1
l 2 11
l 1 1
l 6 6
l -1 5
l -8 10
h 6
v 10
h 9
l 3 3
v 8
h 9
v 6
l 4 4
h 5
l -9 8
v 4
h 52
l 4 -4
l -1 -6
h 4
v -6
l 12 2
l 4 -2
l -11 -4
l -4 -7
h -3
l 3 8
l -10 -1
l 4 -6
l -6 -2
l -4 -4
l 9 -1
l 4 -13
l 4 -1
v 8
l 6 1
v 5
h 5
l -2 7
l 11 2
h 5
v 11
l 7 8
l 9 1
l -1 6
l 5 3
l 2 -1
v -1
l 1 -1
l 1 -2
h 43
v 7
h 13
l 15 -1
l 4 -6
l 2 -10
l 3 -2
l 5 -6
l 9 1
h 9
l 5 3
l 2 1
l 4 1
l 5 6
l 7 1
l 8 2
l 13 1
l -2 15
l 3 4
h 1
h -1
h 1
l 1 2
v -1
l 1 -1
l 3 3
l 14 -1
v 5
l 1 4
l -9 4
l -2 4
l 1 3
l -1 1
l -4 1
v 5
l 5 6
l -4 2
l -2 1
v 7
l -9 5
v 38
l 1 1
l 4 3
h 8
l 2 9
l 16 -2
l 1 18
l 10 14
l 16 7
l -1 4
l -6 2
l 5 7
l -16 19
l -1 -1
h -2
l -9 -4
v -2
l -4 -2
h -2
v 1
h -1
v 1
l -2 -1
v 1
l -3 -1
l -8 6
l -11 -4
l -8 5
l 1 -7
l -9 -4
l 1 -13
l -7 1
l -21 -1
l -4 -5
v -7
l -5 -4
l -7 -1
l 7 -5
h -6
l -10 -16
l -5 1
l -4 -5
l -11 -7
l -1 -22
h 2
l -9 -1
l -5 -6
l -7 -3
l -4 -12
l -11 -13
l -10 -6
l -3 -4
h -7
l -12 -7
l -8 -9
l -10 -1
l -12 4
l -8 -2
l -4 -4
v 8
l -7 -3
l -4 4
v 12
l -11 -1
l 15 6
l -1 5
l -15 -5
l -10 3
l -13 10
h -3
l -11 8
l -18 7
l 4 -8
l -8 4
l -1 3
h -8
l -5 -5
l 6 5
l 1 4
l -16 -1
l -12 3
l -14 2
l -3 3
l -4 -5
l 8 2
l 2 -3
l 1 -15
l -11 -17
l -3 -3
l -8 -1
l -1 -3
l -11 -11
l -13 -6
l 7 1
l -8 -5
h 9
v 3
h 6
l 10 12
l 7 -3
l 5 2
v -4
l -11 3
l -1 -9
l -5 -1
l 1 -4
l -9 2
l -9 -7
l -7 -2
l 6 -10
l 11 -3
l 4 -12
l -7 11
l -11 1
l -3 5
l -1 -8
l -13 -1
l -2 9
l 5 2
l 5 -4
l 3 11
l 4 4
l -10 -4
l -10 -8
Z
M381 210
l -6 6
l -24 13
l -5 1
l 18 -10
l 9 -3
Z
M332 217
l 4 3
l -6 6
l -11 -7
l 10 1
Z"/>
<path data-race-id="FL03" d="M636 197
l 9 -5
v -7
l 2 -1
l 4 -2
l -5 -6
v -5
l 4 -1
l 1 -1
l -1 -3
l 2 -4
l 9 -4
l -1 -4
l 39 -2
h 11
v -7
h 27
l 15 -1
h 3
l -1 6
l -7 2
l -2 5
l 7 -6
l 3 2
l -1 13
l 3 7
l 8 4
l -1 13
l 2 5
l 6 7
l -3 10
h -7
l -1 6
l 3 5
h 4
l -3 6
h -8
l -2 9
l 3 1
l -1 13
h 3
l 1 11
v 3
v -1
h -2
v 1
l -1 1
v 1
h 1
v 2
l 1 1
h 1
v 1
h 1
v 3
h 1
v 15
l -7 -1
l -23 1
l -4 -4
l -5 3
l -12 -1
v 10
h -20
l -5 -7
l 6 -2
l 1 -4
l -16 -7
l -10 -14
l -1 -18
l -16 2
l -2 -9
h -8
l -4 -3
l -1 -1
Z
M777 206
v 19
l 1 19
l 3 3
l 1 9
l 6 1
l -1 2
v 1
l -16 4
l -10 -6
v -6
h -3
v -14
l -3 -1
l 2 -7
l 10 -1
l 1 -6
l -5 -9
h 8
l 6 -8
Z"/>
<path data-race-id="FL04" d="M709 76
l 1 -1
h -1
h 1
v -3
h 1
v -2
l -1 -1
v -3
l 1 -1
v -1
l 1 1
v -1
h 2
v -1
l -1 -1
v -1
h -1
v -1
h 1
v -1
l 1 1
v -1
h 1
v 1
h 1
l 2 2
l 1 -1
v -2
h 1
v -4
l 1 -1
h 2
v 1
h 4
l -1 -1
h 1
v -1
l 4 6
h 4
l 1 1
v -1
l 1 1
v -1
h 2
l 2 2
v -1
l 1 2
l 1 1
v -2
l 4 2
v 1
l 2 1
h 2
l 5 1
v -2
h -1
v 1
l -1 -1
h 3
v 1
h 1
l 1 2
h 2
v -1
v 2
h 1
l 1 1
l 7 4
l 9 -4
l 6 2
l -1 23
l -5 -4
l -8 3
l -7 -2
l 3 -1
v 1
l -1 3
l 9 6
h 4
l -1 -8
l 3 4
l 2 16
h -11
l -1 4
l -6 -4
l -5 3
l -1 -10
l -12 -3
l -4 2
l 1 12
h 4
l -1 10
l -5 1
l -17 2
l -13 2
l -2 2
v -13
h 1
v -1
h 1
h -1
v -1
h 1
h -1
v -5
l 1 -1
l -1 -2
l 1 -1
v -1
h 1
v -3
l 1 -1
v -11
l 1 -2
v -2
h -1
v -3
h -2
v -3
v 1
v -1
h -1
v -2
l -1 -2
h -1
v -2
h 1
h -1
Z
M809 196
v 1
l -2 -1
l -3 -1
l -1 -7
l 4 -4
l 2 12
Z
M802 196
l -1 1
v -1
v 1
v -1
h -1
v 1
h -1
l -2 -4
l -12 10
l -4 8
l -4 -1
v -4
l -1 -1
l -4 -13
l -5 -9
l 4 -9
l -13 -8
l 4 -13
l 5 1
l -8 -1
l 4 -12
l -5 -15
l 3 1
l 1 1
h -1
l 3 9
l -1 -6
l 2 -3
l 1 -1
h 1
l 2 3
l 5 -3
l -1 -7
l -7 -3
l 9 3
l -1 -4
l 10 2
l 3 8
l -1 9
l 4 8
l 1 7
l 4 7
v 10
l 5 4
l 2 11
Z
M755 144
h -3
l 1 -8
l 3 1
Z
M749 133
v -6
h 8
l -8 6
Z
M793 135
l 2 6
l 7 35
l -7 -12
l 1 -7
l -5 -8
l -4 -14
l 1 -5
l -3 -6
l 1 -10
l 4 3
Z
M783 98
l 5 4
v 6
l -6 -4
Z"/>
<path data-race-id="FL05" d="M355 87
l 8 -10
l 1 -5
h 1
l 26 2
h 13
l 4 1
h 1
l 26 1
h 2
l 2 1
h 30
l 4 1
h 1
l 14 1
h 12
v 1
h 14
l 4 1
l 20 1
h 2
l 15 1
l 75 5
h 1
l 14 1
h 5
l 9 1
h 23
l 2 1
h 5
l -2 1
v 2
h -1
v 3
h 1
v 2
l 1 1
v 1
h 1
l 1 2
h 1
v 2
l -1 1
l 1 1
v 2
l -1 1
v 4
h 1
v 2
l 1 1
l 1 1
l 1 1
v 1
h 1
v 1
h 3
l 1 -1
h 5
v 1
h 5
l 1 -1
v 13
l 2 -2
l 13 -2
l 17 -2
l 5 -1
l 1 -10
h -4
l -1 -12
l 4 -2
l 12 3
l 1 10
l 3 6
l -1 5
l -4 -1
l -1 1
v 1
h -8
v 6
l 4 3
l -1 8
l -15 1
h -27
v 7
h -11
l -39 2
v -5
l -14 1
l -3 -3
l -1 1
v 1
l -1 -2
h -1
h 1
h -1
l -3 -4
l 2 -15
l -13 -1
l -8 -2
l -7 -1
l -5 -6
l -4 -1
l -2 -1
l -5 -3
h -9
l -9 -1
l -5 6
l -3 2
l -2 10
l -4 6
l -15 1
h -13
v -7
h -43
l -1 2
l -1 1
v 1
l -2 1
l -5 -3
l 1 -6
l -9 -1
l -7 -8
v -11
h -5
l -11 -2
l 2 -7
h -5
v -5
l -6 -1
v -8
l -4 1
l -4 13
l -9 1
l 4 4
l 6 2
l -4 6
l 10 1
l -3 -8
h 3
l 4 7
l 11 4
l -4 2
l -12 -2
v 6
h -4
l 1 6
l -4 4
h -52
v -4
l 9 -8
h -5
l -4 -4
v -6
h -9
v -8
l -3 -3
h -9
v -10
Z
M766 117
l 7 3
l 1 7
l -5 3
l -2 -3
h -1
l -3 -11
l 3 1
Z"/>
<path data-race-id="FL06" d="M749 320
h 12
v -13
l 2 -4
v -28
h -1
h 1
v 1
l 1 1
v 3
h 1
v 1
h 1
v 3
l 1 1
h 1
v 1
h 2
l 1 -1
l 3 2
l 4 -5
l -3 -6
l 2 -4
l -6 -8
l 16 -4
v -1
l 1 -2
l -6 -1
l -1 -9
l -3 -3
l -1 -19
v -15
l 4 1
l 4 -8
l 12 -10
l 2 4
h 1
v -1
h 1
v 1
v -1
v 1
l 1 -1
l 7 8
l 6 13
h -1
l -3 2
l 10 16
l 5 14
l 3 2
l 1 12
l 6 7
l 10 24
l 4 7
l 17 35
l 4 6
h -8
l -14 1
v 24
l -2 1
l -3 -3
l -2 -10
l -5 -7
l -1 -9
l -7 -1
l -7 5
l -4 -1
l -1 -5
h -14
l -4 -7
l -1 3
l -2 2
l -1 1
l -2 8
h -30
l -7 -4
l 1 -1
v -7
h -5
l -1 -1
l -3 -2
Z
M829 251
l -8 -17
l -5 -10
l -1 -7
l 5 15
l 10 19
l 18 41
l -13 -25
Z"/>
<path data-race-id="FL07" d="M787 360
l 6 -16
l 2 -8
l 1 -1
l 2 -2
l 1 -3
l 4 7
h 14
l 1 5
l 4 1
l 7 -5
l 7 1
l 1 9
l 5 7
l 2 10
l 3 3
l -18 1
l 2 6
h -5
l -3 3
l -16 1
l -1 4
l -6 2
h -1
v -13
l -2 -1
l -3 -6
h -7
Z"/>
<path data-race-id="FL08" d="M828 385
l 1 -8
l -3 -2
h 5
l -2 -6
l 18 -1
l 2 -1
v -24
l 14 -1
l 5 24
l 11 34
l 8 18
l 4 12
l 7 17
l 14 26
l -1 4
l 1 -2
l 12 20
l 6 21
h -30
l -11 1
h -12
v -12
l -13 1
v -13
l -2 -13
h 2
l -1 -16
v -59
l -7 1
h -22
l -1 -15
h -7
Z
M865 342
h 6
l 3 5
l 11 12
l 4 -2
l -11 -12
l -1 -3
h 1
l 6 8
l 9 14
l 4 5
l 8 19
l -8 8
l -1 -9
l 2 -12
l -2 -7
l -1 8
l -7 16
v 23
l -7 -14
l -2 -25
l 1 -6
l -8 -4
v -10
l 5 -5
Z
M935 516
h -2
l -2 -8
l -5 -9
v -7
l -7 -7
v -7
l 6 10
l 5 18
Z
M893 409
l 2 -11
l 1 19
l 4 21
l 8 18
l 6 10
l -5 -3
l -2 -9
l -9 -14
l -3 -12
l 1 -15
Z"/>
<path data-race-id="FL09" d="M740 458
l 2 -3
l 1 -12
l -1 -10
l 4 1
l 17 -9
v -17
l 7 -1
h 37
l -1 -24
l 1 -4
l 16 -1
l 3 -3
l 3 2
l -1 8
l -2 6
h 7
l 1 15
h 22
l 7 -1
v 59
l 1 16
h -2
l 2 13
v 13
h -64
l -19 1
l -4 -10
l -10 -13
l -1 -11
l -9 -2
v -8
l -10 3
l -1 -5
l -6 -1
v -2
Z"/>
<path data-race-id="FL10" d="M762 347
l 1 -3
h 30
l -6 16
v 5
h 7
l 3 6
l 2 1
v 13
h 1
l 6 -2
l 1 24
h -37
l -7 1
v -29
l -1 -7
Z"/>
<path data-race-id="FL11" d="M625 316
l 8 -5
l 11 4
l 8 -6
l 3 1
v -1
l 2 1
v -1
h 1
v -1
h 2
l 4 2
v 2
l 9 4
h 2
l 1 1
l 16 -19
h 20
v -10
l 12 1
l 5 -3
l 4 4
l 23 -1
l 7 1
v 13
l -2 4
v 13
h -12
l -1 9
l 3 2
l 1 1
h 5
v 7
l -1 1
l 7 4
l -1 3
v 25
l 1 7
l -5 -1
l -1 -5
l -6 3
l -4 -10
l -5 -6
v 9
l -6 3
l -1 7
h -10
v 30
l -2 4
l -2 -1
l -1 -1
h -2
l -2 1
l -2 1
l -1 -24
l -25 1
v 6
h -52
l 3 -13
l -2 -18
l 4 -6
l -8 -5
l 6 -4
l -6 -2
l 1 -6
h -4
v -8
l 8 2
v -7
l -9 -6
l -4 -7
Z"/>
<path data-race-id="FL12" d="M636 396
h 52
v -6
l 25 -1
l 1 24
v 8
h -7
v 13
h -45
l -3 3
l -20 1
l 1 18
l -3 -2
l -4 8
h -1
l -1 -5
l -2 3
l -8 -1
l 2 -8
l -1 -17
l 4 -8
l 2 -14
l 4 -5
v -6
Z"/>
<path data-race-id="FL13" d="M621 459
l 8 1
l 2 -3
l 1 5
h 2
l -4 6
l 12 4
l 4 10
l -2 4
l -1 12
l -3 4
l -6 -2
v -4
l -6 -2
l -2 -11
l -1 5
l -6 -6
l -1 4
l -4 -8
l 6 -12
Z"/>
<path data-race-id="FL14" d="M639 438
l 20 -1
l 3 -3
h 26
l -4 8
l -7 7
h -7
l 2 10
h 4
l -3 19
l -9 -11
l -4 2
l 2 15
l -8 -2
l 1 -6
l -2 -12
l -8 -2
l -5 -6
Z"/>
<path data-race-id="FL15" d="M688 434
h 19
v -13
h 7
v -8
l 2 -1
l 2 -1
h 2
l 1 1
l 2 1
l 2 -4
v -30
h 10
l 1 -7
l 6 -3
v -9
l 5 6
l 4 10
l 6 -3
l 1 5
l 5 1
v 46
l -17 9
l -4 -1
l 1 10
l -1 12
l -2 3
v 2
l -4 4
l -13 2
l -9 2
l 1 3
l -10 5
h -11
l -7 2
l -4 -3
l -4 3
h -6
l 3 -19
h -4
l -2 -10
h 7
l 7 -7
Z"/>
<path data-race-id="FL16" d="M672 481
l 1 -3
h 6
l 4 -3
l 4 3
l 7 -2
h 11
l 10 -5
v 63
l 1 18
v 18
h -25
l -11 -4
l -15 -3
l 2 10
l -7 -3
l -5 -5
l -1 -11
l -3 -9
l -2 -3
l -11 -4
l 4 -4
l -1 -5
l -4 3
v -5
l 8 2
h 10
l -10 -2
l 5 -4
l -4 -2
l 6 -12
l 10 -15
l 5 -2
l 5 -10
Z"/>
<path data-race-id="FL17" d="M660 570
l 7 3
l -2 -10
l 15 3
l 11 4
h 25
v -18
l -1 -18
v -63
l -1 -3
l 9 -2
l 13 -2
l 4 -4
l 6 1
l 1 5
l 10 -3
v 8
l 9 2
l 1 11
l 10 13
l 4 10
l 19 -1
h 64
l 13 -1
v 12
h 12
l 1 14
v 30
l 1 7
v 12
l -26 24
l -7 27
l -21 1
h -41
l -17 1
l 1 20
v 4
l -19 -3
l -3 -8
l -9 -2
l -10 5
h 1
l -7 -16
l -17 1
l 1 -16
l -4 -1
l -1 -6
l 13 -6
h -8
l -1 3
l -8 -2
l -5 5
l -3 -5
h -5
l -4 -6
v 1
l 2 5
l 8 4
l 3 13
l -4 5
h -8
l -8 -6
l -5 -13
l -13 -16
l -5 -16
l -1 -7
Z"/>
<path data-race-id="FL18" d="M891 568
l -1 -7
v -30
l -1 -14
l 11 -1
h 30
l 6 22
l 11 19
l 3 7
l -10 -1
l -1 -1
v -1
h -1
l 2 4
v 1
l 3 6
l 1 -5
h 6
l 5 6
l 6 11
l 6 15
h -7
l 3 4
h 6
l 5 18
h -1
l -1 1
h -5
l -3 6
l 3 7
l -14 4
l -6 -2
l -2 -4
l -5 -1
v 5
l -10 -8
l -24 -22
l -2 -4
h -38
l -1 1
l 26 -24
Z
M933 516
h 2
l 3 11
l -2 1
Z
M951 557
h -1
l -2 -6
l -11 -18
l 1 -3
Z"/>
<path data-race-id="FL19" d="M716 634
l 17 -1
l 7 16
l -5 3
l -4 13
l -12 2
l -1 -13
l -4 -5
Z
M749 644
l 9 2
l 3 8
l 19 3
v 12
l 1 13
h -13
v 15
h -10
l -1 15
l 1 15
h 7
v 7
l 13 9
l -5 1
l -3 8
l -10 -9
l 1 -4
l -7 -3
l -1 -10
l -3 1
l -2 -19
l -4 -12
l -1 -17
h -8
l -4 -4
l -9 -1
l 1 -6
l 4 2
l 7 -4
l 6 -14
Z
M761 748
l 9 3
l -4 5
l -4 -1
l -4 -7
Z
M701 675
l 10 1
l 4 4
l 3 -4
l 4 3
l -6 4
l -8 -2
Z
M704 643
l 5 2
l 1 10
l 5 15
h -5
l -4 -19
l -4 -4
Z"/>
<path data-race-id="FL20" d="M865 604
l 1 -1
h 38
l 2 4
l 24 22
l 10 8
v -5
l 5 1
l 2 4
l 6 2
l 14 -4
l -3 -7
l 3 -6
h 5
v 6
l -2 14
l -6 5
l -3 -4
l -6 1
l -4 -3
h -18
l 2 5
l 10 7
l 7 11
v 8
l -3 17
l -7 1
v 15
h 11
l 3 4
l 5 -2
l -2 -6
l 6 1
l -4 9
l -1 1
l 3 6
l -3 2
l -5 3
v -2
l -1 -3
h -1
h 1
h -1
l -11 -5
l -7 7
l -11 -2
l 1 12
v 10
h 11
l 17 -1
h 1
l 1 3
l -15 2
l -10 1
h -32
l -3 -3
l -25 1
l -2 -40
v -11
l -1 -7
v -23
h -1
v -30
h -1
Z"/>
<path data-race-id="FL21" d="M972 628
v 1
l 1 2
v 30
h 1
v -31
l 1 1
v 29
l -3 16
l -14 3
v 12
l -9 -2
l 3 -17
v -8
l -7 -11
l -10 -7
l -2 -5
h 18
l 4 3
l 6 -1
l 3 4
l 6 -5
Z"/>
<path data-race-id="FL22" d="M942 705
v -15
l 7 -1
l 9 2
v -12
l 14 -3
l -1 15
l -3 33
l -2 1
l -2 1
l -4 1
l -2 -2
l -3 -2
l 5 -3
l 3 -2
l -3 -6
l 1 -1
l 4 -9
l -6 -1
l 2 6
l -5 2
l -3 -4
Z"/>
<path data-race-id="FL23" d="M924 718
l 11 2
l 7 -7
l 11 5
h 1
h -1
h 1
l 1 3
v 2
l 3 2
l 2 2
l 4 -1
l 2 -1
l 1 17
l -1 10
l -1 -6
h -2
v -4
h -3
l 2 -7
l -5 -1
l -2 3
l -1 2
h -1
l -17 1
h -11
v -10
Z"/>
<path data-race-id="FL24" d="M940 744
l 15 -2
l -1 -3
l 1 -2
l 2 -3
l 5 1
l -2 7
h 3
v 4
h 2
l 1 5
l -5 5
l -2 9
v 3
h -4
l -3 -2
l -3 -11
h -4
v -6
Z"/>
<path data-race-id="FL25" d="M758 697
h 10
v -15
h 13
l -1 -13
v -16
l -1 -20
l 17 -1
h 41
l 21 -1
l 7 -27
v 28
h 1
v 30
h 1
v 23
l 1 7
v 11
l 2 40
l 25 -1
l 3 3
h 32
l 10 -1
l 5 5
v 6
h 4
l 3 11
l -6 5
l -7 1
l -5 1
h -27
l -14 1
h -22
v -6
h -4
l -26 1
h -31
l -7 -7
l -6 -1
l -3 -4
l -17 -1
l 1 -4
h -8
l 3 -8
l 5 -1
l -13 -9
v -7
h -7
l -1 -15
Z"/>
<path data-race-id="FL26" d="M810 769
h 31
l 26 -1
h 4
v 6
h 22
l 14 -1
h 27
l 5 -1
l 1 5
l -6 3
v 11
l 5 1
l -3 8
l 6 5
l -2 3
l 2 17
h 3
l -4 9
l -5 3
v 3
v -2
l -6 6
v 4
h -1
v -1
h -1
v 1
h -4
l -1 1
h -2
v 2
h 1
v 1
h -1
l -1 -1
v 1
h 1
v 1
h -1
v -1
h -1
l 1 -1
h -1
v -1
h -2
v 1
h -1
l 4 -3
h -9
l -4 3
h 9
v 1
h -1
v -1
h -2
v 2
h 1
h -1
v 1
h -2
v -1
l 1 1
v -1
h 1
v -1
h -1
v -1
v 1
h -1
v -1
l -1 1
v 1
h -1
v 2
h -2
v 2
h -2
h 1
v -1
h -1
h 2
v -1
h 1
l -1 -1
v -1
h -1
l -1 1
h -2
v 1
h -2
v 1
h -1
l -1 1
h 4
h -1
l -1 2
v 1
l -1 1
h 1
h -1
l -1 1
v -1
v 1
h -1
v -1
h 2
v -1
h 1
v -1
h -1
v -1
v 1
h -1
l -1 -1
v 1
h -1
v -1
v 1
h -1
v 2
h -1
v 1
l -1 -1
h -2
v -2
h -1
h 1
v 1
h -2
v -1
h -1
v 1
l 1 1
h 3
h -1
l -1 1
h -1
l -1 -1
h -1
l -1 -1
h -1
v 2
h -1
v 1
v -1
l 1 -1
h -1
v -2
h -2
v 1
h -1
v 2
v -3
l 1 -1
v -1
h -3
h 1
h -1
v 1
h 1
v 1
h -1
v 1
h -1
l -1 -1
v -1
h -3
l -5 4
l -12 3
h -10
l -14 -13
l 3 -17
h 7
l -1 5
l 4 8
l 9 5
h 10
l 3 -6
l -12 -13
l -6 4
l -2 -4
l -9 -1
l 2 -4
h -5
l -3 -14
l -6 -6
l 3 -4
l 7 -2
l 11 5
l -1 -6
l -7 -1
l -3 -5
l -6 9
l -7 -1
l -6 -19
l 8 -4
v -3
l -8 -1
l -1 6
l -7 -2
v -5
l -5 -1
Z
M951 831
l -10 22
l -4 7
l -11 11
l -5 8
l -6 7
l 1 -6
l 16 -16
l 4 -5
v -6
l 6 -5
l 1 -8
Z
M856 845
l 4 7
l -9 -2
Z
M821 778
l 4 3
l -4 3
l -3 -4
Z
M809 925
l 5 5
l -4 4
l -4 -13
Z
M780 942
l 4 -1
l -1 -5
l 4 -7
l 5 9
Z
M755 946
l 7 -2
l 1 4
l -10 2
Z"/>
<path data-race-id="FL27" d="M939 772
l 7 -1
l 6 -5
l 3 2
h 4
l -1 5
l -6 5
l -3 12
l -5 3
l 1 6
l -3 6
l -6 -5
l 3 -8
l -5 -1
v -11
l 6 -3
Z
M966 755
h 1
v 13
l -3 1
l 2 -13
Z"/>
</g>
  <path class="districts-mesh" d="M660 154
l 1 4
l -9 4
l -2 4
l 1 3
l -1 1
l -4 1
v 5
l 5 6
l -4 2
l -2 1
v 7
l -9 5
v 38
l 1 1
l 4 3
h 8
l 2 9
l 16 -2
l 1 18
l 10 14
l 16 7
l -1 4
l -6 2
l 5 7
l -16 19
l -1 -1
h -2
l -9 -4
v -2
l -4 -2
h -2
v 1
h -1
v 1
l -2 -1
v 1
l -3 -1
l -8 6
l -11 -4
l -8 5
M780 657
v 12
l 1 13
h -13
v 15
h -10
l -1 15
l 1 15
h 7
v 7
l 13 9
l -5 1
l -3 8
M766 127
h 1
l 2 3
l 5 -3
l -1 -7
l -7 -3
M364 72
l -1 5
l -8 10
h 6
v 10
h 9
l 3 3
v 8
h 9
v 6
l 4 4
h 5
l -9 8
v 4
h 52
l 4 -4
l -1 -6
h 4
v -6
l 12 2
l 4 -2
l -11 -4
l -4 -7
h -3
l 3 8
l -10 -1
l 4 -6
l -6 -2
l -4 -4
l 9 -1
l 4 -13
l 4 -1
v 8
l 6 1
v 5
h 5
l -2 7
l 11 2
h 5
v 11
l 7 8
l 9 1
l -1 6
l 5 3
l 2 -1
v -1
l 1 -1
l 1 -2
h 43
v 7
h 13
l 15 -1
l 4 -6
l 2 -10
l 3 -2
l 5 -6
l 9 1
h 9
l 5 3
l 2 1
l 4 1
l 5 6
l 7 1
l 8 2
l 13 1
l -2 15
l 3 4
h 1
l 1 2
v -1
l 1 -1
l 3 3
l 14 -1
v 5
l 39 -2
h 11
v -7
h 27
l 15 -1
l 1 -8
M749 133
v -6
h 8
M871 342
h -6
M847 368
l -18 1
l 2 6
h -5
l -3 3
l -16 1
l -1 4
l -6 2
h -1
v -13
l -2 -1
l -3 -6
h -7
v -5
l 6 -16
M930 516
h -30
l -11 1
h -12
v -12
l -13 1
v -13
l -2 -13
h 2
l -1 -16
v -59
l -7 1
h -22
l -1 -15
h -7
l 2 -6
l 1 -8
l -3 -2
M935 516
h -2
M864 506
h -64
l -19 1
l -4 -10
l -10 -13
l -1 -11
l -9 -2
v -8
l -10 3
l -1 -5
l -6 -1
v -2
l 2 -3
l 1 -12
l -1 -10
l 4 1
l 17 -9
v -17
l 7 -1
h 37
l -1 -24
M763 408
v -29
l -1 -7
v -25
l 1 -3
M752 144
h 3
M762 275
h 1
v 15
l -7 -1
l -23 1
l -4 -4
l -5 3
l -12 -1
v 10
h -20
M763 379
l -5 -1
l -1 -5
l -6 3
l -4 -10
l -5 -6
v 9
l -6 3
l -1 7
h -10
v 30
l -2 4
l -2 -1
l -1 -1
h -2
l -2 1
l -2 1
l -1 -24
l -25 1
v 6
h -52
M714 413
v 8
h -7
v 13
h -45
l -3 3
l -20 1
l 1 18
M632 462
l -1 -5
l -2 3
l -8 -1
M688 434
l -4 8
l -7 7
h -7
l 2 10
h 4
l -3 19
M277 30
v 7
l -3 8
l -5 4
l -10 -1
l -7 7
l -1 4
h -4
l -3 11
l -1 2
l -3 5
l -5 3
l 3 8
v 12
l 3 2
l -4 6
h -8
l -5 8
v 17
M777 206
v 19
l 1 19
l 3 3
l 1 9
l 6 1
l -1 2
v 1
l -16 4
M760 115
l -1 -10
l -12 -3
l -4 2
l 1 12
h 4
l -1 10
l -5 1
l -17 2
l -13 2
l -2 2
v -13
M740 460
l -4 4
l -13 2
l -9 2
l 1 3
l -10 5
h -11
l -7 2
l -4 -3
l -4 3
M715 471
v 63
l 1 18
v 18
h -25
l -11 -4
l -15 -3
l 2 10
l -7 -3
M889 517
l 1 14
v 30
l 1 7
v 12
l -26 24
l -7 27
l -21 1
h -41
l -17 1
l 1 20
v 4
l -19 -3
l -3 -8
l -9 -2
M740 649
l -7 -16
l -17 1
M954 718
h -1
l -11 -5
l -7 7
l -11 -2
l 1 12
v 10
h 11
l 17 -1
h 1
l 1 3
l -15 2
l -10 1
h -32
l -3 -3
l -25 1
l -2 -40
v -11
l -1 -7
v -23
h -1
v -30
h -1
v -28
M972 676
l -14 3
v 12
l -9 -2
M966 725
l -2 1
l -4 1
l -2 -2
l -3 -2
M965 746
h -2
v -4
h -3
l 2 -7
l -5 -1
l -2 3
l -1 2
M959 768
h -4
l -3 -2
l -3 -11
h -4
v -6
l -5 -5
M801 197
v -1
h -1
v 1
h -1
l -2 -4
l -12 10
l -4 8
l -4 -1
M800 197
M952 766
l -6 5
l -7 1
l -5 1
h -27
l -14 1
h -22
v -6
h -4
l -26 1
h -31
M939 772
l 1 5
l -6 3
v 11
l 5 1
l -3 8
l 6 5
M863 342
l -14 1
v 24
l -2 1
l -3 -3
l -2 -10
l -5 -7
l -1 -9
l -7 -1
l -7 5
l -4 -1
l -1 -5
h -14
l -4 -7
l -1 3
l -2 2
l -1 1
l -2 8
h -30
l -7 -4
l 1 -1
v -7
h -5
l -1 -1
l -3 -2
l 1 -9
h 12
v -13
l 2 -4
v -13
M802 196
l -1 1
v -1
M972 622
h -5
l -3 6
l 3 7
l -14 4
l -6 -2
l -2 -4
l -5 -1
v 5
l -10 -8
l -24 -22
l -2 -4
h -38
l -1 1
M972 628
l -2 14
l -6 5
l -3 -4
l -6 1
l -4 -3
h -18
l 2 5
l 10 7
l 7 11
v 8
l -3 17
l -7 1
v 15
h 11
l 3 4
l 5 -2
l -2 -6
l 6 1
M965 702
l -4 9
l -1 1
l 3 6
l -3 2
l -5 3
v -2
l -1 -3
h -1"/>
</svg>