<svg version="1.1" xmlns="http://www.w3.org/2000/svg" width="1000" height="979" viewBox="0 0 1000 979"><path data-race-id="FL01" d="M25,43v-3h1v-2h1v-1l1,-2v-1h1v-2l1,-1v-6h-1v-1h17v1h26l2,1l9,-1l12,1h5l17,1h21l1,1h30l1,1h40v1h67v7l-3,8l-5,4l-10,-1l-7,7l-1,4h-4l-3,11l-1,2l-3,5l-5,3l3,8v12l3,2l-4,6h-8l-5,8v17l-11,-5l-21,-8l-17,-3l-14,-1l2,-5l12,3l8,2l12,-1l1,-4l7,6h6v-7l-15,-8l-11,1l-7,2l-4,1l-4,-5l-12,7l-7,-3l1,8l-16,-2l-9,1l-23,1l-19,4l5,-5h10l12,-8l-11,-7l3,-3v-7l-5,4l-4,13l-5,1l1,-11l-6,-7l-4,-2l1,5l2,12l-3,6l-13,7l2,3h-5l-13,5l-5,-1l4,-4l-1,-8l10,-2l-1,-5h-6l-4,-5h1v-1l-1,-1v-1l-1,-1h-1h1v-3h1v-2h1v-1h2v-2l1,-1v-4h1l1,-1v-6h-1v-3l-2,-1h-1l-1,-1h-1v-1h-2v-1h-1v-1l-1,-1v-1h-2l-2,-1l-1,-1h-1v-2h-1v-2l-1,-1v-1l-1,-1v-1h-1v-1h-1v-1h-1v-2h-3v-2h-2v-2h-1v-3ZM125,115l-15,2v-1l15,-2l2,-1h24l1,1h-27Z"/><path data-race-id="FL02" d="M224,133v-17l5,-8h8l4,-6l-3,-2v-12l-3,-8l5,-3l3,-5l1,-2l3,-11h4l1,-4l7,-7l10,1l5,-4l3,-8v-7h67l4,1l-1,1v3h3v5h1v1h1l1,2v1l1,1v2l1,1l-1,1h1v2l1,1v1h-1v1l2,11l1,1l6,6l-1,5l-8,10h6v10h9l3,3v8h9v6l4,4h5l-9,8v4h52l4,-4l-1,-6h4v-6l12,2l4,-2l-11,-4l-4,-7h-3l3,8l-10,-1l4,-6l-6,-2l-4,-4l9,-1l4,-13l4,-1v8l6,1v5h5l-2,7l11,2h5v11l7,8l9,1l-1,6l5,3l2,-1v-1l1,-1l1,-2h43v7h13l15,-1l4,-6l2,-10l3,-2l5,-6l9,1h9l5,3l2,1l4,1l5,6l7,1l8,2l13,1l-2,15l3,4h1h-1h1l1,2v-1l1,-1l3,3l14,-1v5l1,4l-9,4l-2,4l1,3l-1,1l-4,1v5l5,6l-4,2l-2,1v7l-9,5v38l1,1l4,3h8l2,9l16,-2l1,18l10,14l16,7l-1,4l-6,2l5,7l-16,19l-1,-1h-2l-9,-4v-2l-4,-2h-2v1h-1v1l-2,-1v1l-3,-1l-8,6l-11,-4l-8,5l1,-7l-9,-4l1,-13l-7,1l-21,-1l-4,-5v-7l-5,-4l-7,-1l7,-5h-6l-10,-16l-5,1l-4,-5l-11,-7l-1,-22h2l-9,-1l-5,-6l-7,-3l-4,-12l-11,-13l-10,-6l-3,-4h-7l-12,-7l-8,-9l-10,-1l-12,4l-8,-2l-4,-4v8l-7,-3l-4,4v12l-11,-1l15,6l-1,5l-15,-5l-10,3l-13,10h-3l-11,8l-18,7l4,-8l-8,4l-1,3h-8l-5,-5l6,5l1,4l-16,-1l-12,3l-14,2l-3,3l-4,-5l8,2l2,-3l1,-15l-11,-17l-3,-3l-8,-1l-1,-3l-11,-11l-13,-6l7,1l-8,-5h9v3h6l10,12l7,-3l5,2v-4l-11,3l-1,-9l-5,-1l1,-4l-9,2l-9,-7l-7,-2l6,-10l11,-3l4,-12l-7,11l-11,1l-3,5l-1,-8l-13,-1l-2,9l5,2l5,-4l3,11l4,4l-10,-4l-10,-8ZM381,210l-6,6l-24,13l-5,1l18,-10l9,-3ZM332,217l4,3l-6,6l-11,-7l10,1Z"/><path data-race-id="FL03" d="M636,197l9,-5v-7l2,-1l4,-2l-5,-6v-5l4,-1l1,-1l-1,-3l2,-4l9,-4l-1,-4l39,-2h11v-7h27l15,-1h3l-1,6l-7,2l-2,5l7,-6l3,2l-1,13l3,7l8,4l-1,13l2,5l6,7l-3,10h-7l-1,6l3,5h4l-3,6h-8l-2,9l3,1l-1,13h3l1,11v3v-1h-2v1l-1,1v1h1v2l1,1h1v1h1v3h1v15l-7,-1l-23,1l-4,-4l-5,3l-12,-1v10h-20l-5,-7l6,-2l1,-4l-16,-7l-10,-14l-1,-18l-16,2l-2,-9h-8l-4,-3l-1,-1ZM777,206v19l1,19l3,3l1,9l6,1l-1,2v1l-16,4l-10,-6v-6h-3v-14l-3,-1l2,-7l10,-1l1,-6l-5,-9h8l6,-8Z"/><path data-race-id="FL04" d="M709,76l1,-1h-1h1v-3h1v-2l-1,-1v-3l1,-1v-1l1,1v-1h2v-1l-1,-1v-1h-1v-1h1v-1l1,1v-1h1v1h1l2,2l1,-1v-2h1v-4l1,-1h2v1h4l-1,-1h1v-1l4,6h4l1,1v-1l1,1v-1h2l2,2v-1l1,2l1,1v-2l4,2v1l2,1h2l5,1v-2h-1v1l-1,-1h3v1h1l1,2h2v-1v2h1l1,1l7,4l9,-4l6,2l-1,23l-5,-4l-8,3l-7,-2l3,-1v1l-1,3l9,6h4l-1,-8l3,4l2,16h-11l-1,4l-6,-4l-5,3l-1,-10l-12,-3l-4,2l1,12h4l-1,10l-5,1l-17,2l-13,2l-2,2v-13h1v-1h1h-1v-1h1h-1v-5l1,-1l-1,-2l1,-1v-1h1v-3l1,-1v-11l1,-2v-2h-1v-3h-2v-3v1v-1h-1v-2l-1,-2h-1v-2h1h-1ZM809,196v1l-2,-1l-3,-1l-1,-7l4,-4l2,12ZM802,196l-1,1v-1v1v-1h-1v1h-1l-2,-4l-12,10l-4,8l-4,-1v-4l-1,-1l-4,-13l-5,-9l4,-9l-13,-8l4,-13l5,1l-8,-1l4,-12l-5,-15l3,1l1,1h-1l3,9l-1,-6l2,-3l1,-1h1l2,3l5,-3l-1,-7l-7,-3l9,3l-1,-4l10,2l3,8l-1,9l4,8l1,7l4,7v10l5,4l2,11ZM755,144h-3l1,-8l3,1ZM749,133v-6h8l-8,6ZM793,135l2,6l7,35l-7,-12l1,-7l-5,-8l-4,-14l1,-5l-3,-6l1,-10l4,3ZM783,98l5,4v6l-6,-4Z"/><path data-race-id="FL05" d="M355,87l8,-10l1,-5h1l26,2h13l4,1h1l26,1h2l2,1h30l4,1h1l14,1h12v1h14l4,1l20,1h2l15,1l75,5h1l14,1h5l9,1h23l2,1h5l-2,1v2h-1v3h1v2l1,1v1h1l1,2h1v2l-1,1l1,1v2l-1,1v4h1v2l1,1l1,1l1,1v1h1v1h3l1,-1h5v1h5l1,-1v13l2,-2l13,-2l17,-2l5,-1l1,-10h-4l-1,-12l4,-2l12,3l1,10l3,6l-1,5l-4,-1l-1,1v1h-8v6l4,3l-1,8l-15,1h-27v7h-11l-39,2v-5l-14,1l-3,-3l-1,1v1l-1,-2h-1h1h-1l-3,-4l2,-15l-13,-1l-8,-2l-7,-1l-5,-6l-4,-1l-2,-1l-5,-3h-9l-9,-1l-5,6l-3,2l-2,10l-4,6l-15,1h-13v-7h-43l-1,2l-1,1v1l-2,1l-5,-3l1,-6l-9,-1l-7,-8v-11h-5l-11,-2l2,-7h-5v-5l-6,-1v-8l-4,1l-4,13l-9,1l4,4l6,2l-4,6l10,1l-3,-8h3l4,7l11,4l-4,2l-12,-2v6h-4l1,6l-4,4h-52v-4l9,-8h-5l-4,-4v-6h-9v-8l-3,-3h-9v-10ZM766,117l7,3l1,7l-5,3l-2,-3h-1l-3,-11l3,1Z"/><path data-race-id="FL06" d="M749,320h12v-13l2,-4v-28h-1h1v1l1,1v3h1v1h1v3l1,1h1v1h2l1,-1l3,2l4,-5l-3,-6l2,-4l-6,-8l16,-4v-1l1,-2l-6,-1l-1,-9l-3,-3l-1,-19v-15l4,1l4,-8l12,-10l2,4h1v-1h1v1v-1v1l1,-1l7,8l6,13h-1l-3,2l10,16l5,14l3,2l1,12l6,7l10,24l4,7l17,35l4,6h-8l-14,1v24l-2,1l-3,-3l-2,-10l-5,-7l-1,-9l-7,-1l-7,5l-4,-1l-1,-5h-14l-4,-7l-1,3l-2,2l-1,1l-2,8h-30l-7,-4l1,-1v-7h-5l-1,-1l-3,-2ZM829,251l-8,-17l-5,-10l-1,-7l5,15l10,19l18,41l-13,-25Z"/><path data-race-id="FL07" d="M787,360l6,-16l2,-8l1,-1l2,-2l1,-3l4,7h14l1,5l4,1l7,-5l7,1l1,9l5,7l2,10l3,3l-18,1l2,6h-5l-3,3l-16,1l-1,4l-6,2h-1v-13l-2,-1l-3,-6h-7Z"/><path data-race-id="FL08" d="M828,385l1,-8l-3,-2h5l-2,-6l18,-1l2,-1v-24l14,-1l5,24l11,34l8,18l4,12l7,17l14,26l-1,4l1,-2l12,20l6,21h-30l-11,1h-12v-12l-13,1v-13l-2,-13h2l-1,-16v-59l-7,1h-22l-1,-15h-7ZM865,342h6l3,5l11,12l4,-2l-11,-12l-1,-3h1l6,8l9,14l4,5l8,19l-8,8l-1,-9l2,-12l-2,-7l-1,8l-7,16v23l-7,-14l-2,-25l1,-6l-8,-4v-10l5,-5ZM935,516h-2l-2,-8l-5,-9v-7l-7,-7v-7l6,10l5,18ZM893,409l2,-11l1,19l4,21l8,18l6,10l-5,-3l-2,-9l-9,-14l-3,-12l1,-15Z"/><path data-race-id="FL09" d="M740,458l2,-3l1,-12l-1,-10l4,1l17,-9v-17l7,-1h37l-1,-24l1,-4l16,-1l3,-3l3,2l-1,8l-2,6h7l1,15h22l7,-1v59l1,16h-2l2,13v13h-64l-19,1l-4,-10l-10,-13l-1,-11l-9,-2v-8l-10,3l-1,-5l-6,-1v-2Z"/><path data-race-id="FL10" d="M762,347l1,-3h30l-6,16v5h7l3,6l2,1v13h1l6,-2l1,24h-37l-7,1v-29l-1,-7Z"/><path data-race-id="FL11" d="M625,316l8,-5l11,4l8,-6l3,1v-1l2,1v-1h1v-1h2l4,2v2l9,4h2l1,1l16,-19h20v-10l12,1l5,-3l4,4l23,-1l7,1v13l-2,4v13h-12l-1,9l3,2l1,1h5v7l-1,1l7,4l-1,3v25l1,7l-5,-1l-1,-5l-6,3l-4,-10l-5,-6v9l-6,3l-1,7h-10v30l-2,4l-2,-1l-1,-1h-2l-2,1l-2,1l-1,-24l-25,1v6h-52l3,-13l-2,-18l4,-6l-8,-5l6,-4l-6,-2l1,-6h-4v-8l8,2v-7l-9,-6l-4,-7Z"/><path data-race-id="FL12" d="M636,396h52v-6l25,-1l1,24v8h-7v13h-45l-3,3l-20,1l1,18l-3,-2l-4,8h-1l-1,-5l-2,3l-8,-1l2,-8l-1,-17l4,-8l2,-14l4,-5v-6Z"/><path data-race-id="FL13" d="M621,459l8,1l2,-3l1,5h2l-4,6l12,4l4,10l-2,4l-1,12l-3,4l-6,-2v-4l-6,-2l-2,-11l-1,5l-6,-6l-1,4l-4,-8l6,-12Z"/><path data-race-id="FL14" d="M639,438l20,-1l3,-3h26l-4,8l-7,7h-7l2,10h4l-3,19l-9,-11l-4,2l2,15l-8,-2l1,-6l-2,-12l-8,-2l-5,-6Z"/><path data-race-id="FL15" d="M688,434h19v-13h7v-8l2,-1l2,-1h2l1,1l2,1l2,-4v-30h10l1,-7l6,-3v-9l5,6l4,10l6,-3l1,5l5,1v46l-17,9l-4,-1l1,10l-1,12l-2,3v2l-4,4l-13,2l-9,2l1,3l-10,5h-11l-7,2l-4,-3l-4,3h-6l3,-19h-4l-2,-10h7l7,-7Z"/><path data-race-id="FL16" d="M672,481l1,-3h6l4,-3l4,3l7,-2h11l10,-5v63l1,18v18h-25l-11,-4l-15,-3l2,10l-7,-3l-5,-5l-1,-11l-3,-9l-2,-3l-11,-4l4,-4l-1,-5l-4,3v-5l8,2h10l-10,-2l5,-4l-4,-2l6,-12l10,-15l5,-2l5,-10Z"/><path data-race-id="FL17" d="M660,570l7,3l-2,-10l15,3l11,4h25v-18l-1,-18v-63l-1,-3l9,-2l13,-2l4,-4l6,1l1,5l10,-3v8l9,2l1,11l10,13l4,10l19,-1h64l13,-1v12h12l1,14v30l1,7v12l-26,24l-7,27l-21,1h-41l-17,1l1,20v4l-19,-3l-3,-8l-9,-2l-10,5h1l-7,-16l-17,1l1,-16l-4,-1l-1,-6l13,-6h-8l-1,3l-8,-2l-5,5l-3,-5h-5l-4,-6v1l2,5l8,4l3,13l-4,5h-8l-8,-6l-5,-13l-13,-16l-5,-16l-1,-7Z"/><path data-race-id="FL18" d="M891,568l-1,-7v-30l-1,-14l11,-1h30l6,22l11,19l3,7l-10,-1l-1,-1v-1h-1l2,4v1l3,6l1,-5h6l5,6l6,11l6,15h-7l3,4h6l5,18h-1l-1,1h-5l-3,6l3,7l-14,4l-6,-2l-2,-4l-5,-1v5l-10,-8l-24,-22l-2,-4h-38l-1,1l26,-24ZM933,516h2l3,11l-2,1ZM951,557h-1l-2,-6l-11,-18l1,-3Z"/><path data-race-id="FL19" d="M716,634l17,-1l7,16l-5,3l-4,13l-12,2l-1,-13l-4,-5ZM749,644l9,2l3,8l19,3v12l1,13h-13v15h-10l-1,15l1,15h7v7l13,9l-5,1l-3,8l-10,-9l1,-4l-7,-3l-1,-10l-3,1l-2,-19l-4,-12l-1,-17h-8l-4,-4l-9,-1l1,-6l4,2l7,-4l6,-14ZM761,748l9,3l-4,5l-4,-1l-4,-7ZM701,675l10,1l4,4l3,-4l4,3l-6,4l-8,-2ZM704,643l5,2l1,10l5,15h-5l-4,-19l-4,-4Z"/><path data-race-id="FL20" d="M865,604l1,-1h38l2,4l24,22l10,8v-5l5,1l2,4l6,2l14,-4l-3,-7l3,-6h5v6l-2,14l-6,5l-3,-4l-6,1l-4,-3h-18l2,5l10,7l7,11v8l-3,17l-7,1v15h11l3,4l5,-2l-2,-6l6,1l-4,9l-1,1l3,6l-3,2l-5,3v-2l-1,-3h-1h1h-1l-11,-5l-7,7l-11,-2l1,12v10h11l17,-1h1l1,3l-15,2l-10,1h-32l-3,-3l-25,1l-2,-40v-11l-1,-7v-23h-1v-30h-1Z"/><path data-race-id="FL21" d="M972,628v1l1,2v30h1v-31l1,1v29l-3,16l-14,3v12l-9,-2l3,-17v-8l-7,-11l-10,-7l-2,-5h18l4,3l6,-1l3,4l6,-5Z"/><path data-race-id="FL22" d="M942,705v-15l7,-1l9,2v-12l14,-3l-1,15l-3,33l-2,1l-2,1l-4,1l-2,-2l-3,-2l5,-3l3,-2l-3,-6l1,-1l4,-9l-6,-1l2,6l-5,2l-3,-4Z"/><path data-race-id="FL23" d="M924,718l11,2l7,-7l11,5h1h-1h1l1,3v2l3,2l2,2l4,-1l2,-1l1,17l-1,10l-1,-6h-2v-4h-3l2,-7l-5,-1l-2,3l-1,2h-1l-17,1h-11v-10Z"/><path data-race-id="FL24" d="M940,744l15,-2l-1,-3l1,-2l2,-3l5,1l-2,7h3v4h2l1,5l-5,5l-2,9v3h-4l-3,-2l-3,-11h-4v-6Z"/><path data-race-id="FL25" d="M758,697h10v-15h13l-1,-13v-16l-1,-20l17,-1h41l21,-1l7,-27v28h1v30h1v23l1,7v11l2,40l25,-1l3,3h32l10,-1l5,5v6h4l3,11l-6,5l-7,1l-5,1h-27l-14,1h-22v-6h-4l-26,1h-31l-7,-7l-6,-1l-3,-4l-17,-1l1,-4h-8l3,-8l5,-1l-13,-9v-7h-7l-1,-15Z"/><path data-race-id="FL26" d="M810,769h31l26,-1h4v6h22l14,-1h27l5,-1l1,5l-6,3v11l5,1l-3,8l6,5l-2,3l2,17h3l-4,9l-5,3v3v-2l-6,6v4h-1v-1h-1v1h-4l-1,1h-2v2h1v1h-1l-1,-1v1h1v1h-1v-1h-1l1,-1h-1v-1h-2v1h-1l4,-3h-9l-4,3h9v1h-1v-1h-2v2h1h-1v1h-2v-1l1,1v-1h1v-1h-1v-1v1h-1v-1l-1,1v1h-1v2h-2v2h-2h1v-1h-1h2v-1h1l-1,-1v-1h-1l-1,1h-2v1h-2v1h-1l-1,1h4h-1l-1,2v1l-1,1h1h-1l-1,1v-1v1h-1v-1h2v-1h1v-1h-1v-1v1h-1l-1,-1v1h-1v-1v1h-1v2h-1v1l-1,-1h-2v-2h-1h1v1h-2v-1h-1v1l1,1h3h-1l-1,1h-1l-1,-1h-1l-1,-1h-1v2h-1v1v-1l1,-1h-1v-2h-2v1h-1v2v-3l1,-1v-1h-3h1h-1v1h1v1h-1v1h-1l-1,-1v-1h-3l-5,4l-12,3h-10l-14,-13l3,-17h7l-1,5l4,8l9,5h10l3,-6l-12,-13l-6,4l-2,-4l-9,-1l2,-4h-5l-3,-14l-6,-6l3,-4l7,-2l11,5l-1,-6l-7,-1l-3,-5l-6,9l-7,-1l-6,-19l8,-4v-3l-8,-1l-1,6l-7,-2v-5l-5,-1ZM951,831l-10,22l-4,7l-11,11l-5,8l-6,7l1,-6l16,-16l4,-5v-6l6,-5l1,-8ZM856,845l4,7l-9,-2ZM821,778l4,3l-4,3l-3,-4ZM809,925l5,5l-4,4l-4,-13ZM780,942l4,-1l-1,-5l4,-7l5,9ZM755,946l7,-2l1,4l-10,2Z"/><path data-race-id="FL27" d="M939,772l7,-1l6,-5l3,2h4l-1,5l-6,5l-3,12l-5,3l1,6l-3,6l-6,-5l3,-8l-5,-1v-11l6,-3ZM966,755h1v13l-3,1l2,-13Z"/>  <path class="mesh" d="M660,154l1,4l-9,4l-2,4l1,3l-1,1l-4,1v5l5,6l-4,2l-2,1v7l-9,5v38l1,1l4,3h8l2,9l16,-2l1,18l10,14l16,7l-1,4l-6,2l5,7l-16,19l-1,-1h-2l-9,-4v-2l-4,-2h-2v1h-1v1l-2,-1v1l-3,-1l-8,6l-11,-4l-8,5M780,657v12l1,13h-13v15h-10l-1,15l1,15h7v7l13,9l-5,1l-3,8M766,127h1l2,3l5,-3l-1,-7l-7,-3M364,72l-1,5l-8,10h6v10h9l3,3v8h9v6l4,4h5l-9,8v4h52l4,-4l-1,-6h4v-6l12,2l4,-2l-11,-4l-4,-7h-3l3,8l-10,-1l4,-6l-6,-2l-4,-4l9,-1l4,-13l4,-1v8l6,1v5h5l-2,7l11,2h5v11l7,8l9,1l-1,6l5,3l2,-1v-1l1,-1l1,-2h43v7h13l15,-1l4,-6l2,-10l3,-2l5,-6l9,1h9l5,3l2,1l4,1l5,6l7,1l8,2l13,1l-2,15l3,4h1l1,2v-1l1,-1l3,3l14,-1v5l39,-2h11v-7h27l15,-1l1,-8M749,133v-6h8M871,342h-6M847,368l-18,1l2,6h-5l-3,3l-16,1l-1,4l-6,2h-1v-13l-2,-1l-3,-6h-7v-5l6,-16M930,516h-30l-11,1h-12v-12l-13,1v-13l-2,-13h2l-1,-16v-59l-7,1h-22l-1,-15h-7l2,-6l1,-8l-3,-2M935,516h-2M864,506h-64l-19,1l-4,-10l-10,-13l-1,-11l-9,-2v-8l-10,3l-1,-5l-6,-1v-2l2,-3l1,-12l-1,-10l4,1l17,-9v-17l7,-1h37l-1,-24M763,408v-29l-1,-7v-25l1,-3M752,144h3M762,275h1v15l-7,-1l-23,1l-4,-4l-5,3l-12,-1v10h-20M763,379l-5,-1l-1,-5l-6,3l-4,-10l-5,-6v9l-6,3l-1,7h-10v30l-2,4l-2,-1l-1,-1h-2l-2,1l-2,1l-1,-24l-25,1v6h-52M714,413v8h-7v13h-45l-3,3l-20,1l1,18M632,462l-1,-5l-2,3l-8,-1M688,434l-4,8l-7,7h-7l2,10h4l-3,19M277,30v7l-3,8l-5,4l-10,-1l-7,7l-1,4h-4l-3,11l-1,2l-3,5l-5,3l3,8v12l3,2l-4,6h-8l-5,8v17M777,206v19l1,19l3,3l1,9l6,1l-1,2v1l-16,4M760,115l-1,-10l-12,-3l-4,2l1,12h4l-1,10l-5,1l-17,2l-13,2l-2,2v-13M740,460l-4,4l-13,2l-9,2l1,3l-10,5h-11l-7,2l-4,-3l-4,3M715,471v63l1,18v18h-25l-11,-4l-15,-3l2,10l-7,-3M889,517l1,14v30l1,7v12l-26,24l-7,27l-21,1h-41l-17,1l1,20v4l-19,-3l-3,-8l-9,-2M740,649l-7,-16l-17,1M954,718h-1l-11,-5l-7,7l-11,-2l1,12v10h11l17,-1h1l1,3l-15,2l-10,1h-32l-3,-3l-25,1l-2,-40v-11l-1,-7v-23h-1v-30h-1v-28M972,676l-14,3v12l-9,-2M966,725l-2,1l-4,1l-2,-2l-3,-2M965,746h-2v-4h-3l2,-7l-5,-1l-2,3l-1,2M959,768h-4l-3,-2l-3,-11h-4v-6l-5,-5M801,197v-1h-1v1h-1l-2,-4l-12,10l-4,8l-4,-1M800,197M952,766l-6,5l-7,1l-5,1h-27l-14,1h-22v-6h-4l-26,1h-31M939,772l1,5l-6,3v11l5,1l-3,8l6,5M863,342l-14,1v24l-2,1l-3,-3l-2,-10l-5,-7l-1,-9l-7,-1l-7,5l-4,-1l-1,-5h-14l-4,-7l-1,3l-2,2l-1,1l-2,8h-30l-7,-4l1,-1v-7h-5l-1,-1l-3,-2l1,-9h12v-13l2,-4v-13M802,196l-1,1v-1M972,622h-5l-3,6l3,7l-14,4l-6,-2l-2,-4l-5,-1v5l-10,-8l-24,-22l-2,-4h-38l-1,1M972,628l-2,14l-6,5l-3,-4l-6,1l-4,-3h-18l2,5l10,7l7,11v8l-3,17l-7,1v15h11l3,4l5,-2l-2,-6l6,1M965,702l-4,9l-1,1l3,6l-3,2l-5,3v-2l-1,-3h-1"/></svg>