<svg version="1.1" xmlns="http://www.w3.org/2000/svg" width="855" height="1000" viewBox="0 0 855 1000">  <path d="M810,623l5,4l8,4l9,-2l1,6l-14,2l-1,-5l-8,-6ZM824,645h-6v-8l8,-2l5,2ZM804,622l6,2l8,9l-1,10l-7,4l-5,-3l1,-8l-4,-6h-5l4,-7ZM768,690l7,7l-5,6l-4,-2l-9,5l-11,1l16,1l11,10l-3,8l-9,2l-4,-3l-5,5l5,4l5,-2l-5,8l-6,2l3,8l-4,9v7h7l2,9l-15,-3h-9l-8,-3l-2,3l1,1l5,1l5,7l4,9l-5,4l-7,11l5,10l-2,4l-8,-3l-1,-6h-4l-2,-7l-1,12l10,4l4,5h5l1,10l-16,-10l9,8l-10,-3l-5,-4l8,5l2,7l6,4l-7,6l-6,-5l-5,3h-7l8,3l3,-4l7,6l9,-2l1,5l-6,6l-3,-1l-4,8l7,6l-7,1l-1,6l6,7l-1,11h-15l-3,2l-1,1l-1,-2h-2l1,-1l-1,-1v1h-4l-1,-2h-1v-1l-2,-1h-2v1h1v2l-2,-1l-2,-1h-2l-2,1v-1l-2,-2l-2,-1v-1l-2,-1l-3,-1v3h-2v-3l-1,-1l-1,-1h-1v1v-1l-1,-1h-3v1l-1,-1l-1,1h-1v-1h-1l-2,-1h-1l-1,1l-1,-1v-1h-1l-2,-3v-2h-3l1,1v1h-3v-1v1h-1v-1h-2v-1h-3l-1,1l-1,1h1v1l-1,1v3l-1,3h-2l-2,-1v-1l-2,-1h-1v1h-1v-1l-1,3v1h1l1,2v1h-1v1h-1v1h-2v-1l-1,1v3h-1v1l1,1v2l1,2h-1v3l-1,1v7l1,1v2l1,1h1v2h1v3l1,1h1v3h1v4h1v1l-1,1v1l-1,1v2h-1v4h1v7l-1,1h1v1l-1,1l-1,2v3h-1v1h-1v1l1,1v2h-1l-1,1v4h1v4h1h-1v1h1v1h-2v1h-1v1h-2v1h-1l-1,-1h-5v-1h-2v-1l-1,1h-2v1l-2,-1l-1,1h-2l-1,1h-1l-1,-1v-2h-1v-2h-1l-1,1v-2l-1,-1v-2l-1,-1v-1l-1,-1v-5h1v-3h-1v-1l1,-1v-1l1,-1v-3h-1v-1h-1v-1h-1v-1h-1v-1h-1v-3h-1v-2h-1v-5h1l3,-2l-3,-1h-12v-1h-13l-6,-1h-10l-1,-1h-14l-1,-1h-14l-2,-1h-11l-4,-1l-19,-1h-7l-11,-1h-4l-10,-1h-7v-1h-13l-4,-1h-8l-5,-1h-11l-3,-1h-10l-2,-1h-13l-1,-1h-28l-2,-1h-13l-2,-1h-11l-1,-1h-13v-1h-15l-1,-1h-13l-3,-1h-10l-5,-1h-9l-8,-1h-9l-2,-1h-13l-1,-1h-17l-2,-1h-11l-1,-1h-12l-2,-1h-12l-3,-1h-11l-1,-1h-14l-1,-1h-2l-8,-7v-1l-3,-4l-1,-13h2v-2l-1,-1l-1,-1v-1h1v-1h-1v-3h1l-4,-6l-1,-1l-4,-4v-2l1,-1v-4h-2v-1h-2v-4l1,-1v-1l-2,-11l-3,-4l-3,-9h-1l-7,-9l-1,-4v-10l-2,-6l2,-5v-1l4,-6l-1,-13l4,-9v-11l3,-7l-2,-22v-1h-2v-1h-1v-2h-1v-1h1v-2l-1,-1h-1v-1h-1v-1h-1l-1,-1v-2h-1l-1,-1h-1v-6l1,-1v-1l1,-1l-1,-1v-2l-1,-1v-3l-1,-1v-1h-1v-1h1v-11l-1,-1l1,-1v-5l1,-1v-3l3,-1v-1l1,-1l-1,-1v-1h2v-1l2,-2h1v-2h1v-1l-1,-1v-2h1l2,-1h1v-2h-1v-2h1v-4l2,-2v-3l-1,-2l1,-1h-1l1,-4v-4l2,-2l-2,-4v-6l11,-9h1l1,-1h1l1,-1h1l-1,-2h-1l-1,-1l1,-1l3,-1h5l1,-1h1v-4l3,-2h2v-1l-1,-2h-1v-1l-2,-1l-1,-1l-4,-4l-1,-1h-1l-3,-1v-1h-3l-1,-1v-6l2,-1v-3l2,-1l-1,-3h2v-1l-2,-3v-1l1,-1l2,-1l-1,-1v-1l-1,-1l-4,-2v-12l-12,-16l-1,-5l-4,-8l2,-2l-4,-6v-11l-4,-2l3,-5l-7,-7l1,-9l-4,-4l-1,-2v-4l-4,-20v-8h-1v-1l-3,-18l-2,-16v-5l-1,-1v-3l-5,-36l-1,-3l-1,-12v-2l-1,-4v-2l-1,-3v-1l-3,-20l-2,-12v-3l-1,-4v-4l-4,-27l-5,-37l-4,-23v-1l-1,-14h-1v-4l-3,-20v-3l-1,-1l-2,-15v-5h-1v-4h-1v-1l-2,-14l-1,-6l-1,-7v-1l-2,-9v-1l-3,-23v-1l-1,-6v-3l-1,-7v-1l-1,-5v-2l-1,-8h85l20,1h60l23,1h59l6,1h79v-1h24l24,-1h17l22,-1v2h1l-1,1l-1,2l-1,1l-1,1v3l1,1l-2,-1v2l1,1l2,1l-1,1l-2,-1v2h-1l-1,1l-1,-1h-1l-1,-1v4v-1h-2v1h-1l-3,2v1h-2v2h1l-1,1h-1v-2v1h-1v2l-2,-1l-1,1h-1v1h1v1h-2v2h-1v2l1,1h-2l-1,-1v1h-1v1l1,1v3h-3v-1h-1v1h-1v1l-1,-1h-1l1,1v2h-2v2l-2,1v1l1,1v5h-1l-1,1l-1,1v2h-2l-1,1v2l1,1v2h1h-1v1h-1v1l3,1v2h1l1,1h1v1l1,1v-1h1l1,1v1l2,2l1,1h1v1h1v1l5,3l2,2h2l3,1h2l4,1l1,3l3,5l2,1l1,1l1,1l2,3l4,1v1l4,4l1,2l2,2h2l4,2v1l2,-1v-1h11l3,-1l8,6l3,20l4,1l1,1h1l1,1h1v2l1,1v3h1l1,2v1l1,2h1v2h1l1,1h1v1l1,2v10l2,6v1l1,1l1,4l5,2v1l3,1l1,2v2l1,1l3,8l1,1l3,1l3,4l2,1v4l1,4l1,3l2,2v3l7,2l3,2l11,12l5,2l4,1h1v1l1,1h1v1l2,1l1,1l3,1l1,1l2,2l1,1l1,1v1h1l3,5l1,1l3,1l5,8v1l3,8l1,1l2,3v4l1,2v1l1,1l1,2l4,1l2,3l1,1h1l1,1l3,-2h1l1,2l1,1h1l9,4l1,1v2h1l2,2l1,1v2h1l3,5l2,3h3v1l5,2l2,7l-2,1h-1v1l2,1l1,1h1v1l-2,-1l-3,1h-1l1,2h1v3l1,1v2h-1v-1h-2v2h1l1,1v3l3,1l1,-1v1l-1,1l1,3h1v-2l1,1l2,2h1v1l1,2v-1l1,-1l2,1v-1h1l1,1v2h-2v2h3v1l1,1v3v-1h1v1h-1v-1h-2v1h1l1,1l-1,1h-2v1h1l1,1l2,3h1l3,1v2h1l3,1h1l-1,-2l1,-1l2,1l1,3v1h1h-1v2h-1v1h1h-2h1v2h1h-1v1h1v2l1,1l1,1h1v1h1l4,4l2,2h4l1,1h1l2,1h1v1h8v2l-1,1h1v-1h1l1,1l-1,1v1h3v1l2,2v1h1l1,-1v1l-1,1h1v1h1l2,-1l1,2l1,-1v2h1l1,1h2l-2,1l2,1v2v-1h1l1,1h1v1h-2l2,1l-1,1l1,1l-1,1v4h-1l-1,-1v3l1,1l1,1l-1,1v1l3,2v2h1v3h1l1,1v-2h1v3h-2l-1,1v1h3l1,1l1,1v2l-1,1v2h1l2,-1l1,2v-1l1,1l2,3l-1,1h1v1h-1v1l1,1h-1v4h1l-1,1v-1h-1v1h3v2h-3v1h3v2h1l-1,1h-1v1h2l1,1l-2,2v2l1,1h-1v1h-2l1,1h-1v1h2v2h1v-1v1l1,1v4l2,2h-2v-1v2h2l-1,2h-1v1h-2l2,1l-1,1l-1,-1v2l1,1l1,1l1,1l2,3l1,1h3v3v-1h2l-1,1v1h1l3,1l1,1h5v-1l1,1v1h1v-1v2h1v-1h1v2h1v3l5,2h2v1h-1v2h1v1l2,1l1,1v2l2,2l1,1h1l1,1h-1v3l-1,-1h-1v1h1v1l-1,1v2l2,2v1l1,2h1l1,1v4l2,2v1h-1h1v1l1,1l1,1v1h-1v1h2v-1h1v-2v1l1,1h1v1h1h-1v1h-1v1h2v1h-1v1h1v1h-1v1h3l-1,2v1h1v2h-1v2v-1h-1v1h-2l-1,1h1v1h-1v8h1v1l1,1l2,1v1l1,1v1h1h-1v4h2v1h-1l-1,-1v1h-1v1l1,3l1,1h-1v3h1v3l13,8l7,-1l-5,4l-3,8l8,4l-2,9l5,2l3,7h6l-9,11l-8,-3h-7l-8,-12l3,9l-4,-1l-4,-8l-11,3l-3,7l10,-2l5,9l-6,7v6l4,13l-8,-2l-11,-6l-2,-6l-7,-2l1,4l7,1l-1,4ZM784,666h5l6,6h5l-7,12l-9,8l-7,-8l-1,-11h7l-4,-4ZM775,652h5l1,6l9,1l1,5h-10ZM784,698v15l-7,14l-4,-23l5,1l2,-7ZM773,731l3,4l-3,7l-6,7l-5,13l-5,-1l-2,-12l-4,-6l11,-3l4,-8ZM762,705l12,2l1,11ZM750,779l2,-1l9,3l2,7l-4,2l-1,7l-9,7l-7,10l-6,-2l2,-6l-4,-5l2,-10h4l3,-14ZM733,772l10,2l-7,5l-4,-2ZM737,834l-5,-11l4,-6l3,2ZM738,855l2,4l-4,16l-6,12l2,12l-6,-3l2,-5l-1,-6v-13l-6,-7l3,-5h5l10,-14ZM733,810l-5,-5l3,-6l4,4Z"/><g class="districts"><path data-race-id="GA01" d="M427,840v13l3,2h22l4,9v11l8,-4l1,-2v-49l-1,-14h53l-3,-8h-3l3,-12v-1h5l5,2v-40h5v-18h-5v-23h18v-8h5l3,6l12,9l10,3l6,6l4,1l12,12l12,12l4,-1v-62h7l-3,-4l4,-5l6,-1l6,2l4,6h4l-2,-4l5,-2h-1l1,-1v-1l5,-6v-4l7,-8l-1,-9l2,-2l8,-10l12,-7l7,-9l-7,-5l-2,-2l-2,-6l30,-8l29,-11l1,1v1v-1h1v3h-1h1v3h1v-1h1v3h-1v1h1v1v-1h-1v-1h1v-3h-1v1h-1v-3h-1h1v-3h-1v1v-1l-1,-1h1h-1v-1l-2,-7l9,-2l1,6l3,8l15,-14l2,-10l9,-2l7,-6l2,2v1h-1h1v1l1,1l1,1v1h-1v1h2v-1h1v-2v1l1,1h1v1h1h-1v1h-1v1h2v1h-1v1h1v1h-1v1h3l-1,2v1h1v2h-1v2v-1h-1v1h-2l-1,1h1v1h-1v8h1v1l1,1l2,1v1l1,1v1h1h-1v4h2v1h-1l-1,-1v1h-1v1l1,3l1,1h-1v3h1v3l13,8l7,-1l-5,4l-3,8l8,4l-2,9l5,2l3,7h6l-9,11l-8,-3h-7l-8,-12l3,9l-4,-1l-4,-8l-11,3l-3,7l10,-2l5,9l-6,7v6l4,13l-8,-2l-11,-6l-2,-6l-7,-2l1,4l7,1l-1,4l10,5l7,7l-5,6l-4,-2l-9,5l-11,1l16,1l11,10l-3,8l-9,2l-4,-3l-5,5l5,4l5,-2l-5,8l-6,2l3,8l-4,9v7h7l2,9l-15,-3h-9l-8,-3l-2,3l1,1l5,1l5,7l4,9l-5,4l-7,11l5,10l-2,4l-8,-3l-1,-6h-4l-2,-7l-1,12l10,4l4,5h5l1,10l-16,-10l9,8l-10,-3l-5,-4l8,5l2,7l6,4l-7,6l-6,-5l-5,3h-7l8,3l3,-4l7,6l9,-2l1,5l-6,6l-3,-1l-4,8l7,6l-7,1l-1,6l6,7l-1,11h-15l-3,2l-1,1l-1,-2h-2l1,-1l-1,-1v1h-4l-1,-2h-1v-1l-2,-1h-2v1h1v2l-2,-1l-2,-1h-2l-2,1v-1l-2,-2l-2,-1v-1l-2,-1l-3,-1v3h-2v-3l-1,-1l-1,-1h-1v1v-1l-1,-1h-3v1l-1,-1l-1,1h-1v-1h-1l-2,-1h-1l-1,1l-1,-1v-1h-1l-2,-3v-2h-3l1,1v1h-3v-1v1h-1v-1h-2v-1h-3l-1,1l-1,1h1v1l-1,1v3l-1,3h-2l-2,-1v-1l-2,-1h-1v1h-1v-1l-1,3v1h1l1,2v1h-1v1h-1v1h-2v-1l-1,1v3h-1v1l1,1v2l1,2h-1v3l-1,1v7l1,1v2l1,1h1v2h1v3l1,1h1v3h1v4h1v1l-1,1v1l-1,1v2h-1v4h1v7l-1,1h1v1l-1,1l-1,2v3h-1v1h-1v1l1,1v2h-1l-1,1v4h1v4h1h-1v1h1v1h-2v1h-1v1h-2v1h-1l-1,-1h-5v-1h-2v-1l-1,1h-2v1l-2,-1l-1,1h-2l-1,1h-1l-1,-1v-2h-1v-2h-1l-1,1v-2l-1,-1v-2l-1,-1v-1l-1,-1v-5h1v-3h-1v-1l1,-1v-1l1,-1v-3h-1v-1h-1v-1h-1v-1h-1v-1h-1v-3h-1v-2h-1v-5h1l3,-2l-3,-1h-12v-1h-13l-6,-1h-10l-1,-1h-14l-1,-1h-14l-2,-1h-11l-4,-1l-19,-1h-7l-11,-1h-4l-10,-1h-7v-1h-13v-32l5,-5v-6h-8l-1,-9l-5,-6l3,-4l-10,4l-3,-5v-8ZM810,623l5,4l8,4l9,-2l1,6l-14,2l-1,-5l-8,-6ZM824,645h-6v-8l8,-2l5,2ZM804,622l6,2l8,9l-1,10l-7,4l-5,-3l1,-8l-4,-6h-5l4,-7ZM784,666h5l6,6h5l-7,12l-9,8l-7,-8l-1,-11h7l-4,-4ZM775,652h5l1,6l9,1l1,5h-10ZM784,698v15l-7,14l-4,-23l5,1l2,-7ZM773,731l3,4l-3,7l-6,7l-5,13l-5,-1l-2,-12l-4,-6l11,-3l4,-8ZM762,705l12,2l1,11ZM750,779l2,-1l9,3l2,7l-4,2l-1,7l-9,7l-7,10l-6,-2l2,-6l-4,-5l2,-10h4l3,-14ZM733,772l10,2l-7,5l-4,-2ZM737,834l-5,-11l4,-6l3,2ZM738,855l2,4l-4,16l-6,12l2,12l-6,-3l2,-5l-1,-6v-13l-6,-7l3,-5h5l10,-14ZM733,810l-5,-5l3,-6l4,4Z"/><path data-race-id="GA02" d="M87,681h1v-11l-1,-1l1,-1v-5l1,-1v-3l3,-1v-1l1,-1l-1,-1v-1h2v-1l2,-2h1v-2h1v-1l-1,-1v-2h1l2,-1h1v-2h-1v-2h1v-4l2,-2v-3l-1,-2l1,-1h-1l1,-4v-4l2,-2l-2,-4v-6l11,-9h1l1,-1h1l1,-1h1l-1,-2h-1l-1,-1l1,-1l3,-1h5l1,-1h1v-4l3,-2h2v-1l-1,-2h-1v-1l-2,-1l-1,-1l-4,-4l-1,-1h-1l-3,-1v-1h-3l-1,-1v-6l2,-1v-3l2,-1l-1,-3h2v-1l-2,-3v-1l1,-1l2,-1l-1,-1v-1l-1,-1l-4,-2v-12l6,-4l-1,7l11,-7l-3,-9l2,-7l1,5h36l1,-3v-25l1,-22l-2,-3h22l12,-7h5l-3,5l5,1l1,5l8,-1l5,11l4,-1l3,5l9,3l5,4l5,-2l5,9l9,-21l5,-1v-10h21l18,1l5,-4h9l4,3l13,-2l8,4l1,-9h11l5,2l8,8l1,-1l3,7l-17,19l-3,3l3,8l-14,-3l-4,-3l-3,11v22l-5,-1v6l-9,2v10l-5,1l-3,-5l1,17h-3l1,19h41v100l-24,-1l-10,1l-7,-4l-2,-4l-14,-2l-8,8l-7,21l1,11l3,8v35l-1,22v53l-20,-1l-1,23l7,10v8l-1,42h-2l-5,-1h-9l-8,-1h-9l-2,-1h-13l-1,-1h-17l-2,-1h-11l-1,-1h-12l-2,-1h-12l-3,-1h-11l-1,-1h-14l-1,-1h-2l-4,-7h-4v-1l-4,-17h2v-2l-1,-1l-1,-1v-1h1v-1h-1v-3h1l-4,-6l-1,-1l-4,-4v-2l1,-1v-4h-2v-1h-2v-4l1,-1v-1l-2,-11l-3,-4l-3,-9h-1l-7,-9l-1,-4v-10l-2,-6l2,-5v-1l4,-6l-1,-13l4,-9v-11l3,-7l-2,-22v-1h-2v-1h-1v-2h-1v-1h1v-2l-1,-1h-1v-1h-1v-1h-1l-1,-1v-2h-1l-1,-1h-1v-6l1,-1v-1l1,-1l-1,-1v-2l-1,-1v-3l-1,-1v-1h-1Z"/><path data-race-id="GA03" d="M60,297l9,1l23,-9l7,2l11,-5v-17l2,-3l23,7v27l-1,15h16l-4,7l3,5l-6,1l9,1h30l2,2l2,-4l7,-2l-1,12l5,5h8v-6l5,-1l6,5l4,-5l2,1v5l-3,7l3,3v1l-1,1v9h6v-9l13,1l4,-10l9,-2l-2,-7l12,-1l3,7l-4,3v8l4,3l12,4l2,6l-1,5l-9,3l1,1l-5,9v10h14v25l-1,2v25l-1,4l-12,-1v27l-5,1l-9,21l-5,-9l-5,2l-5,-4l-9,-3l-3,-5l-4,1l-5,-11l-8,1l-1,-5l-5,-1l3,-5h-5l-12,7h-22l2,3l-1,22v25l-1,3h-36l-1,-5l-2,7l3,9l-11,7l1,-7l-6,4l-12,-16l-1,-5l-4,-8l2,-2l-4,-6v-11l-4,-2l3,-5l-7,-7l1,-9l-4,-4l-1,-2v-4l-4,-20v-8h-1v-1l-3,-18l-2,-16v-5l-1,-1v-3l-5,-36l-1,-3l-1,-12v-2l-1,-4v-2l-1,-3v-1Z"/><path data-race-id="GA04" d="M235,262l5,1l19,-5l-6,-2l-5,-7l14,-1v5l21,4l-1,2h18l4,3l-13,12l11,8l21,16v5l-5,5l1,7l-1,2l-3,3l-2,7l-7,2l-1,2l-3,5l-5,-1l-13,-1l-4,-7l-9,-8l-5,-1l-7,-9l-2,-7l-11,3l-3,-4l-1,-3v-1h2l1,-8l-1,-9l-7,-5Z"/><path data-race-id="GA05" d="M190,281l16,-15l5,-2l3,1h2v-3l7,-3l6,-1v3l6,1l2,13l7,5l1,9l-1,8h-2v1l1,3h-3l3,9v12l-3,-1l-17,-8l-13,-1v-7l-5,-1l-2,-5h-5l-6,-4l-5,1l-6,-4Z"/><path data-race-id="GA06" d="M192,214h26v1v-8l9,-3l2,-11l4,-2l12,1l-1,15l13,5l7,6l8,1l-4,4h-7l-3,7l-5,-1l-9,3l-3,6l2,3l5,8l5,7l6,2l-19,5l-5,-1l-6,-1v-9l-3,1l-3,-6l-9,2l-4,3l-3,-5l3,-6l-9,-2l-5,-11l-2,-12Z"/><path data-race-id="GA07" d="M241,238l3,-6l9,-3l5,1l3,-7h7l4,-4l-8,-1l-7,-6l-13,-5l1,-15v-11l10,-1l13,-3l10,1l-2,5l3,9l-1,4l29,12l-6,10l1,5l-4,4l3,4l1,10l-1,9l12,4l-9,8l-4,-3h-18l1,-2l-21,-4v-5l-14,1l-5,-8Z"/><path data-race-id="GA08" d="M266,448l12,1l1,-4v-25l1,-2v-25h32l5,4h1v11l13,-3l17,-2l17,-4l20,-2l2,14l8,32l2,7l12,-5l11,-6l16,-6l4,8l6,5l4,12l5,7h6l3,5l3,14l-1,10l-12,6l-35,20l16,33l25,55h2l17,-9l1,3l-9,9l8,13l9,3l7,5l1,2l3,2l6,2l6,8l8,9l1,1l-4,-1l-3,5l-8,4l-4,4l-4,-1v5l-9,5v1l-5,6h-23l-1,22l-2,8l-8,5l-1,13l-9,15h-5l1,11l9,1h22v2h22l3,8h33v18l-5,-2h-5v1l-3,12h3l3,8h-53l1,14v49l-1,2l-8,4v-11l-4,-9h-22l-3,-2v-13l-10,10v8l3,5l10,-4l-3,4l5,6l1,9h8v6l-5,5v32l-4,-1h-8l-5,-1h-11l-3,-1h-10l-2,-1h-13l-1,-1h-28l-2,-1h-13l-2,-1h-11l-1,-1h-13v-1h-15l-1,-1h-13l-3,-1h-8l1,-42v-8l-7,-10l1,-23l20,1v-53l1,-22v-35l-3,-8l-1,-11l7,-21l8,-8l14,2l2,4l7,4l10,-1l24,1v-100h-41l-1,-19h3l-1,-17l3,5l5,-1v-10l9,-2v-6l5,1v-22l3,-11l4,3l14,3l-3,-8l3,-3l17,-19l-3,-7l-1,1l-8,-8l-5,-2h-11l-1,9l-8,-4l-13,2l-4,-3h-9l-5,4l-18,-1h-21Z"/><path data-race-id="GA09" d="M186,54l-1,-14l1,-14l23,1h59l6,1h79v-1h24l24,-1h17l22,-1v2h1l-1,1l-1,2l-1,1l-1,1v3l1,1l-2,-1v2l1,1l2,1l-1,1l-2,-1v2h-1l-1,1l-1,-1h-1l-1,-1v4v-1h-2v1h-1l-3,2v1h-2v2h1l-1,1h-1v-2v1h-1v2l-2,-1l-1,1h-1v1h1v1h-2v2h-1v2l1,1h-2l-1,-1v1h-1v1l1,1v3h-3v-1h-1v1h-1v1l-1,-1h-1l1,1v2h-2v2l-2,1v1l1,1v5h-1l-1,1l-1,1v2h-2l-1,1v2l1,1v2h1h-1v1h-1v1l3,1v2h1l1,1h1v1l1,1v-1h1l1,1v1l2,2l1,1h1v1h1v1l5,3l2,2h2l3,1h2l4,1l1,3l3,5l2,1l1,1l1,1l2,3l4,1v1l4,4l1,2l2,2h2l4,2v1l2,-1v-1h11l3,-1l8,6l3,20l4,1l1,1h1l1,1h1v2l1,1v3h1l1,2v1l1,2h1v2h1l1,1h1v1l1,2v10l2,6v1l1,1l1,4l5,2v1l3,1l1,2v2l1,1l3,8l1,1l3,1l3,4l2,1v4l1,4l1,3l2,2v3l-6,-5h-22l-7,3l-11,-5l-4,2l-7,-6l-4,1l-8,-8l-8,2l-4,4l-16,-6l-11,9l-9,1l-3,9l-3,-4l-4,3l-6,-4l-8,2l-9,-8l-14,9l-6,-16h-7l-1,-2l-8,-1l-8,1l-3,-3h-7l-7,-10l-1,-3l-8,6l-4,-2l-29,-12l1,-4l-3,-9l2,-5l-10,-1l-13,3l-10,1v-29h-15l-12,-2l-1,-7l-9,-2l-4,-1l-1,-7l7,1l-5,-4v-6l9,4l2,-11l-6,-3l-1,3h-30v-38l4,-9l9,-8Z"/><path data-race-id="GA10" d="M263,334l2,-9h6v-6l9,8l4,7l13,1l5,1l3,-5l1,-2l7,-2l2,-7l3,-3l1,-2l-1,-7l5,-5v-5l-21,-16l-11,-8l13,-12l9,-8l-12,-4l1,-9l-1,-10l-3,-4l4,-4l-1,-5l6,-10l4,2l8,-6l1,3l7,10h7l3,3l8,-1l8,1l1,2h7l6,16l14,-9l9,8l8,-2l6,4l4,-3l3,4l3,-9l9,-1l11,-9l16,6l4,-4l8,-2l8,8l4,-1l7,6l4,-2l11,5l7,-3h22l6,5l7,2l3,2l8,10l8,4l4,1h1v1l1,1h1v1l2,1l1,1l3,1l1,1l2,2l1,1l1,1v1h1l3,5l1,1l3,1l5,8v1l3,8l1,1l2,3v4l1,2v1l1,1l1,2l4,1l2,3l1,1l-3,6l-9,-4h-9l-8,6v12l7,1l2,5l-3,4h-6v11l6,6l-2,2l-10,9l6,2l9,6l5,8l-6,19l-3,11v10l4,20l-8,21l-1,-1l-8,5h-9l4,7l-6,4l-3,8l-9,8l5,7l-3,3l-18,12l6,9l-15,4l-5,-2l2,-18l-22,-9l1,-6l-11,-6l-18,1l1,-10l-3,-14l-3,-5h-6l-5,-7l-4,-12l-6,-5l-4,-8l-16,6l-11,6l-12,5l-2,-7l-8,-32l-2,-14l-20,2l-17,4l-17,2l-13,3v-11h-1l-5,-4h-46v-10l5,-9l-1,-1l9,-3l1,-5l-2,-6l-12,-4l-4,-3v-8l4,-3Z"/><path data-race-id="GA11" d="M111,208l1,-24h4v-27h3v-10h47v-3h25v7h23l4,-1l12,2h15v40l-12,-1l-4,2l-2,11l-9,3v8v-1h-26l2,2l2,12l5,11l9,2l-3,6l3,5l4,-3l9,-2l3,6l3,-1v6l-6,1l-7,3v3h-2l-3,-1l-5,2l-1,-2l-6,-5l3,-4l-2,-6l-6,-3v7l-5,1l-4,-5l-19,-1v-9h-3v-24l1,-3l-32,-1h-21Z"/><path data-race-id="GA12" d="M466,494l18,-1l11,6l-1,6l22,9l-2,18l5,2l15,-4l-6,-9l18,-12l3,-3l-5,-7l9,-8l3,-8l6,-4l-4,-7h9l8,-5l1,1l8,-21l-4,-20v-10l3,-11l6,-19l-5,-8l-9,-6l-6,-2l10,-9l2,-2l-6,-6v-11h6l3,-4l-2,-5l-7,-1v-12l8,-6h9l9,4l3,-6h1l1,1l3,-2h1l1,2l1,1h1l9,4l1,1v2h1l2,2l1,1v2h1l3,5l2,3h3v1l5,2l2,7l-2,1h-1v1l2,1l1,1h1v1l-2,-1l-3,1h-1l1,2h1v3l1,1v2h-1v-1h-2v2h1l1,1v3l3,1l1,-1v1l-1,1l1,3h1v-2l1,1l2,2h1v1l1,2v-1l1,-1l2,1v-1h1l1,1v2h-2v2h3v1l1,1v3v-1h1v1h-1v-1h-2v1h1l1,1l-1,1h-2v1h1l1,1l2,3h1l3,1v2h1l3,1h1l-1,-2l1,-1l2,1l1,3v1h1h-1v2h-1v1h1h-2h1v2h1h-1v1h1v2l1,1l1,1h1v1h1l4,4l2,2h4l1,1h1l2,1h1v1h8v2l-1,1h1v-1h1l1,1l-1,1v1h3v1l2,2v1h1l1,-1v1l-1,1h1v1h1l2,-1l1,2l1,-1v2h1l1,1h2l-2,1l2,1v2v-1h1l1,1h1v1h-2l2,1l-1,1l1,1l-1,1v4h-1l-1,-1v3l1,1l1,1l-1,1v1l3,2v2h1v3h1l1,1v-2h1v3h-2l-1,1v1h3l1,1l1,1v2l-1,1v2h1l2,-1l1,2v-1l1,1l2,3l-1,1h1v1h-1v1l1,1h-1v4h1l-1,1v-1h-1v1h3v2h-3v1h3v2h1l-1,1h-1v1h2l1,1l-2,2v2l1,1h-1v1h-2l1,1h-1v1h2v2h1v-1v1l1,1v4l2,2h-2v-1v2h2l-1,2h-1v1h-2l2,1l-1,1l-1,-1v2l1,1l1,1l1,1l2,3l1,1h3v3v-1h2l-1,1v1h1l3,1l1,1h5v-1l1,1v1h1v-1v2h1v-1h1v2h1v3l5,2h2v1h-1v2h1v1l2,1l1,1v2l2,2l1,1h1l1,1h-1v3l-1,-1h-1v1h1v1l-1,1v2l2,2v1l1,2h1l1,1v4l-7,6l-9,2l-2,10l-15,14l-3,-8l-1,-6l-9,2l2,7v1h1h-1l1,1v1v-1h1v3h-1h1v3h1v-1h1v3h-1v1h1v1v-1h-1v-1h1v-3h-1v1h-1v-3h-1h1v-3h-1v1v-1l-1,-1l-29,11l-30,8l2,6l2,2l7,5l-7,9l-12,7l-8,10l-2,2l1,9l-7,8v4l-5,6v1l-1,1h1l-5,2l2,4h-4l-4,-6l-6,-2l-6,1l-4,5l3,4h-7v62l-4,1l-12,-12l-12,-12l-4,-1l-6,-6l-10,-3l-12,-9l-3,-6h-5v8h-18v23h5v18h-5v22h-33l-3,-8h-22v-2h-22l-9,-1l-1,-11h5l9,-15l1,-13l8,-5l2,-8l1,-22h23l5,-6v-1l9,-5v-5l4,1l4,-4l8,-4l3,-5l4,1l-1,-1l-8,-9l-6,-8l-6,-2l-3,-2l-1,-2l-7,-5l-9,-3l-8,-13l9,-9l-1,-3l-17,9h-2l-25,-55l-16,-33l35,-20Z"/><path data-race-id="GA13" d="M135,273l4,2l18,-3h8v-4l1,-20l19,1l4,5l5,-1v-7l6,3l2,6l-3,4l6,5l1,2l-16,15l-9,11l6,4l5,-1l6,4h5l2,5l5,1v7l13,1l17,8l3,1v-12l-3,-9h3l3,4l11,-3l2,7l7,9l5,1v6h-6l-2,9l-12,1l2,7l-9,2l-4,10l-13,-1v9h-6v-9l1,-1v-1l-3,-3l3,-7v-5l-2,-1l-4,5l-6,-5l-5,1v6h-8l-5,-5l1,-12l-7,2l-2,4l-2,-2h-30l-9,-1l6,-1l-3,-5l4,-7h-16l1,-15Z"/><path data-race-id="GA14" d="M43,25h63l20,1h60l-1,14l1,14l6,8l-9,8l-4,9v38h30l1,-3l6,3l-2,11l-9,-4v6l5,4l-7,-1l1,7l4,1l9,2l1,7l-4,1h-23v-7h-25v3h-47v10h-3v27h-4l-1,24v3h21l32,1l-1,3v24h3v9l-1,20v4h-8l-18,3l-4,-2l-23,-7l-2,3v17l-11,5l-7,-2l-23,9l-9,-1l-2,-12v-3l-1,-4v-4l-4,-27l-5,-37l-4,-23v-1l-1,-14h-1v-4l-3,-20v-3l-1,-1l-2,-15v-5h-1v-4h-1v-1l-2,-14l-1,-6l-1,-7v-1l-2,-9v-1l-3,-23v-1l-1,-6v-3l-1,-7v-1l-1,-5v-2l-1,-8Z"/></g>  <path class="districts-mesh" d="M730,588v1v-1l-1,-1v-1l-2,-7l9,-2l1,6l3,8l15,-14l2,-10l9,-2l7,-6M114,533l6,-4l-1,7l11,-7l-3,-9l2,-7l1,5h36l1,-3v-25l1,-22l-2,-3h22l12,-7h5l-3,5l5,1l1,5l8,-1l5,11l4,-1l3,5l9,3l5,4l5,-2l5,9l9,-21l5,-1v-10h21l18,1l5,-4h9l4,3l13,-2l8,4l1,-9h11l5,2l8,8l1,-1l3,7l-17,19l-3,3l3,8l-14,-3l-4,-3l-3,11v22l-5,-1v6l-9,2v10l-5,1l-3,-5l1,17h-3l1,19h41v100l-24,-1l-10,1l-7,-4l-2,-4l-14,-2l-8,8l-7,21l1,11l3,8v35l-1,22v53l-20,-1l-1,23l7,10v8l-1,42M60,297l9,1l23,-9l7,2l11,-5v-17l2,-3l23,7v27l-1,15h16l-4,7l3,5l-6,1l9,1h30l2,2l2,-4l7,-2l-1,12l5,5h8v-6l5,-1l6,5l4,-5l2,1v5l-3,7l3,3v1l-1,1v9h6v-9l13,1l4,-10l9,-2l-2,-7l12,-1l3,7l-4,3v8l4,3l12,4l2,6l-1,5l-9,3l1,1l-5,9v10h14v25l-1,2v25l-1,4l-12,-1v17M731,594h1v-1h1h-1v1M243,301h-3l3,9v12l-3,-1l-17,-8l-13,-1v-7l-5,-1l-2,-5h-5l-6,-4l-5,1l-6,-4l9,-11l16,-15l5,-2l3,1h2v-3l7,-3l6,-1v3l6,1l5,1l19,-5l-6,-2l-5,-7l14,-1v5l21,4l-1,2h18l4,3l-13,12l11,8l21,16v5l-5,5l1,7l-1,2l-3,3l-2,7l-7,2l-1,2l-3,5l-5,-1l-13,-1l-4,-7l-9,-8l-5,-1l-7,-9l-2,-7l-11,3l-3,-4l-1,-3v-1h2l1,-8l-1,-9l-7,-5l-2,-13M229,258v-6l-3,1l-3,-6l-9,2l-4,3l-3,-5l3,-6l-9,-2l-5,-11l-2,-12l-2,-2h26v1M218,214v-7l9,-3l2,-11l4,-2l12,1l-1,15l13,5l7,6l8,1l-4,4h-7l-3,7l-5,-1l-9,3l-3,6l2,3l5,8M245,192v-11l10,-1l13,-3l10,1l-2,5l3,9l-1,4l29,12l-6,10l1,5l-4,4l3,4l1,10l-1,9l12,4l-9,8M280,393h32l5,4h1v11l13,-3l17,-2l17,-4l20,-2l2,14l8,32l2,7l12,-5l11,-6l16,-6l4,8l6,5l4,12l5,7h6l3,5l3,14l-1,10l-12,6l-35,20l16,33l25,55h2l17,-9l1,3l-9,9l8,13l9,3l7,5l1,2l3,2l6,2l6,8l8,9l1,1l-4,-1l-3,5l-8,4l-4,4l-4,-1v5l-9,5v1l-5,6h-23l-1,22l-2,8l-8,5l-1,13l-9,15h-5l1,11l9,1h22v2h22l3,8h33M245,181v-29h-15l-12,-2l-1,-7l-9,-2l-4,-1l-1,-7l7,1l-5,-4v-6l9,4l2,-11l-6,-3l-1,3h-30v-38l4,-9l9,-8l-6,-8l-1,-14l1,-14M531,239l-6,-5h-22l-7,3l-11,-5l-4,2l-7,-6l-4,1l-8,-8l-8,2l-4,4l-16,-6l-11,9l-9,1l-3,9l-3,-4l-4,3l-6,-4l-8,2l-9,-8l-14,9l-6,-16h-7l-1,-2l-8,-1l-8,1l-3,-3h-7l-7,-10l-1,-3l-8,6l-4,-2M263,334l2,-9h6v-6M733,593v3h-1h1v-2M732,596v1h1v1v-1h-1M730,591h1v-2v2h-1h1v3v-3M729,587h1h-1M604,313l-3,6l-9,-4h-9l-8,6v12l7,1l2,5l-3,4h-6v11l6,6l-2,2l-10,9l6,2l9,6l5,8l-6,19l-3,11v10l4,20l-8,21l-1,-1l-8,5h-9l4,7l-6,4l-3,8l-9,8l5,7l-3,3l-18,12l6,9l-15,4l-5,-2l2,-18l-22,-9l1,-6l-11,-6l-18,1M206,266l-1,-2l-6,-5l3,-4l-2,-6l-6,-3v7l-5,1l-4,-5l-19,-1v-9h-3v-24l1,-3l-32,-1h-21v-3l1,-24h4v-27h3v-10h47v-3h25v7h23l4,-1M436,921v-32l5,-5v-6h-8l-1,-9l-5,-6l3,-4l-10,4l-3,-5v-8l10,-10v13l3,2h22l4,9v11l8,-4l1,-2v-49l-1,-14h53l-3,-8h-3l3,-12v-1h5l5,2v-40h5v-18h-5v-23h18v-8h5l3,6l12,9l10,3l6,6l4,1l12,12l12,12l4,-1v-62h7l-3,-4l4,-5l6,-1l6,2l4,6h4l-2,-4l5,-2h-1l1,-1v-1l5,-6v-4l7,-8l-1,-9l2,-2l8,-10l12,-7l7,-9l-7,-5l-2,-2l-2,-6l30,-8l29,-11l1,1v1v-1h1v1M135,273l4,2l18,-3h8v-4l1,-20"/></svg>