<svg version="1.1" xmlns="http://www.w3.org/2000/svg" width="855" height="1000" viewBox="0 0 855 1000">
  <path d="M810 623
l 5 4
l 8 4
l 9 -2
l 1 6
l -14 2
l -1 -5
l -8 -6
Z
M824 645
h -6
v -8
l 8 -2
l 5 2
Z
M804 622
l 6 2
l 8 9
l -1 10
l -7 4
l -5 -3
l 1 -8
l -4 -6
h -5
l 4 -7
Z
M768 690
l 7 7
l -5 6
l -4 -2
l -9 5
l -11 1
l 16 1
l 11 10
l -3 8
l -9 2
l -4 -3
l -5 5
l 5 4
l 5 -2
l -5 8
l -6 2
l 3 8
l -4 9
v 7
h 7
l 2 9
l -15 -3
h -9
l -8 -3
l -2 3
l 1 1
l 5 1
l 5 7
l 4 9
l -5 4
l -7 11
l 5 10
l -2 4
l -8 -3
l -1 -6
h -4
l -2 -7
l -1 12
l 10 4
l 4 5
h 5
l 1 10
l -16 -10
l 9 8
l -10 -3
l -5 -4
l 8 5
l 2 7
l 6 4
l -7 6
l -6 -5
l -5 3
h -7
l 8 3
l 3 -4
l 7 6
l 9 -2
l 1 5
l -6 6
l -3 -1
l -4 8
l 7 6
l -7 1
l -1 6
l 6 7
l -1 11
h -15
l -3 2
l -1 1
l -1 -2
h -2
l 1 -1
l -1 -1
v 1
h -4
l -1 -2
h -1
v -1
l -2 -1
h -2
v 1
h 1
v 2
l -2 -1
l -2 -1
h -2
l -2 1
v -1
l -2 -2
l -2 -1
v -1
l -2 -1
l -3 -1
v 3
h -2
v -3
l -1 -1
l -1 -1
h -1
v 1
v -1
l -1 -1
h -3
v 1
l -1 -1
l -1 1
h -1
v -1
h -1
l -2 -1
h -1
l -1 1
l -1 -1
v -1
h -1
l -2 -3
v -2
h -3
l 1 1
v 1
h -3
v -1
v 1
h -1
v -1
h -2
v -1
h -3
l -1 1
l -1 1
h 1
v 1
l -1 1
v 3
l -1 3
h -2
l -2 -1
v -1
l -2 -1
h -1
v 1
h -1
v -1
l -1 3
v 1
h 1
l 1 2
v 1
h -1
v 1
h -1
v 1
h -2
v -1
l -1 1
v 3
h -1
v 1
l 1 1
v 2
l 1 2
h -1
v 3
l -1 1
v 7
l 1 1
v 2
l 1 1
h 1
v 2
h 1
v 3
l 1 1
h 1
v 3
h 1
v 4
h 1
v 1
l -1 1
v 1
l -1 1
v 2
h -1
v 4
h 1
v 7
l -1 1
h 1
v 1
l -1 1
l -1 2
v 3
h -1
v 1
h -1
v 1
l 1 1
v 2
h -1
l -1 1
v 4
h 1
v 4
h 1
h -1
v 1
h 1
v 1
h -2
v 1
h -1
v 1
h -2
v 1
h -1
l -1 -1
h -5
v -1
h -2
v -1
l -1 1
h -2
v 1
l -2 -1
l -1 1
h -2
l -1 1
h -1
l -1 -1
v -2
h -1
v -2
h -1
l -1 1
v -2
l -1 -1
v -2
l -1 -1
v -1
l -1 -1
v -5
h 1
v -3
h -1
v -1
l 1 -1
v -1
l 1 -1
v -3
h -1
v -1
h -1
v -1
h -1
v -1
h -1
v -1
h -1
v -3
h -1
v -2
h -1
v -5
h 1
l 3 -2
l -3 -1
h -12
v -1
h -13
l -6 -1
h -10
l -1 -1
h -14
l -1 -1
h -14
l -2 -1
h -11
l -4 -1
l -19 -1
h -7
l -11 -1
h -4
l -10 -1
h -7
v -1
h -13
l -4 -1
h -8
l -5 -1
h -11
l -3 -1
h -10
l -2 -1
h -13
l -1 -1
h -28
l -2 -1
h -13
l -2 -1
h -11
l -1 -1
h -13
v -1
h -15
l -1 -1
h -13
l -3 -1
h -10
l -5 -1
h -9
l -8 -1
h -9
l -2 -1
h -13
l -1 -1
h -17
l -2 -1
h -11
l -1 -1
h -12
l -2 -1
h -12
l -3 -1
h -11
l -1 -1
h -14
l -1 -1
h -2
l -8 -7
v -1
l -3 -4
l -1 -13
h 2
v -2
l -1 -1
l -1 -1
v -1
h 1
v -1
h -1
v -3
h 1
l -4 -6
l -1 -1
l -4 -4
v -2
l 1 -1
v -4
h -2
v -1
h -2
v -4
l 1 -1
v -1
l -2 -11
l -3 -4
l -3 -9
h -1
l -7 -9
l -1 -4
v -10
l -2 -6
l 2 -5
v -1
l 4 -6
l -1 -13
l 4 -9
v -11
l 3 -7
l -2 -22
v -1
h -2
v -1
h -1
v -2
h -1
v -1
h 1
v -2
l -1 -1
h -1
v -1
h -1
v -1
h -1
l -1 -1
v -2
h -1
l -1 -1
h -1
v -6
l 1 -1
v -1
l 1 -1
l -1 -1
v -2
l -1 -1
v -3
l -1 -1
v -1
h -1
v -1
h 1
v -11
l -1 -1
l 1 -1
v -5
l 1 -1
v -3
l 3 -1
v -1
l 1 -1
l -1 -1
v -1
h 2
v -1
l 2 -2
h 1
v -2
h 1
v -1
l -1 -1
v -2
h 1
l 2 -1
h 1
v -2
h -1
v -2
h 1
v -4
l 2 -2
v -3
l -1 -2
l 1 -1
h -1
l 1 -4
v -4
l 2 -2
l -2 -4
v -6
l 11 -9
h 1
l 1 -1
h 1
l 1 -1
h 1
l -1 -2
h -1
l -1 -1
l 1 -1
l 3 -1
h 5
l 1 -1
h 1
v -4
l 3 -2
h 2
v -1
l -1 -2
h -1
v -1
l -2 -1
l -1 -1
l -4 -4
l -1 -1
h -1
l -3 -1
v -1
h -3
l -1 -1
v -6
l 2 -1
v -3
l 2 -1
l -1 -3
h 2
v -1
l -2 -3
v -1
l 1 -1
l 2 -1
l -1 -1
v -1
l -1 -1
l -4 -2
v -12
l -12 -16
l -1 -5
l -4 -8
l 2 -2
l -4 -6
v -11
l -4 -2
l 3 -5
l -7 -7
l 1 -9
l -4 -4
l -1 -2
v -4
l -4 -20
v -8
h -1
v -1
l -3 -18
l -2 -16
v -5
l -1 -1
v -3
l -5 -36
l -1 -3
l -1 -12
v -2
l -1 -4
v -2
l -1 -3
v -1
l -3 -20
l -2 -12
v -3
l -1 -4
v -4
l -4 -27
l -5 -37
l -4 -23
v -1
l -1 -14
h -1
v -4
l -3 -20
v -3
l -1 -1
l -2 -15
v -5
h -1
v -4
h -1
v -1
l -2 -14
l -1 -6
l -1 -7
v -1
l -2 -9
v -1
l -3 -23
v -1
l -1 -6
v -3
l -1 -7
v -1
l -1 -5
v -2
l -1 -8
h 85
l 20 1
h 60
l 23 1
h 59
l 6 1
h 79
v -1
h 24
l 24 -1
h 17
l 22 -1
v 2
h 1
l -1 1
l -1 2
l -1 1
l -1 1
v 3
l 1 1
l -2 -1
v 2
l 1 1
l 2 1
l -1 1
l -2 -1
v 2
h -1
l -1 1
l -1 -1
h -1
l -1 -1
v 4
v -1
h -2
v 1
h -1
l -3 2
v 1
h -2
v 2
h 1
l -1 1
h -1
v -2
v 1
h -1
v 2
l -2 -1
l -1 1
h -1
v 1
h 1
v 1
h -2
v 2
h -1
v 2
l 1 1
h -2
l -1 -1
v 1
h -1
v 1
l 1 1
v 3
h -3
v -1
h -1
v 1
h -1
v 1
l -1 -1
h -1
l 1 1
v 2
h -2
v 2
l -2 1
v 1
l 1 1
v 5
h -1
l -1 1
l -1 1
v 2
h -2
l -1 1
v 2
l 1 1
v 2
h 1
h -1
v 1
h -1
v 1
l 3 1
v 2
h 1
l 1 1
h 1
v 1
l 1 1
v -1
h 1
l 1 1
v 1
l 2 2
l 1 1
h 1
v 1
h 1
v 1
l 5 3
l 2 2
h 2
l 3 1
h 2
l 4 1
l 1 3
l 3 5
l 2 1
l 1 1
l 1 1
l 2 3
l 4 1
v 1
l 4 4
l 1 2
l 2 2
h 2
l 4 2
v 1
l 2 -1
v -1
h 11
l 3 -1
l 8 6
l 3 20
l 4 1
l 1 1
h 1
l 1 1
h 1
v 2
l 1 1
v 3
h 1
l 1 2
v 1
l 1 2
h 1
v 2
h 1
l 1 1
h 1
v 1
l 1 2
v 10
l 2 6
v 1
l 1 1
l 1 4
l 5 2
v 1
l 3 1
l 1 2
v 2
l 1 1
l 3 8
l 1 1
l 3 1
l 3 4
l 2 1
v 4
l 1 4
l 1 3
l 2 2
v 3
l 7 2
l 3 2
l 11 12
l 5 2
l 4 1
h 1
v 1
l 1 1
h 1
v 1
l 2 1
l 1 1
l 3 1
l 1 1
l 2 2
l 1 1
l 1 1
v 1
h 1
l 3 5
l 1 1
l 3 1
l 5 8
v 1
l 3 8
l 1 1
l 2 3
v 4
l 1 2
v 1
l 1 1
l 1 2
l 4 1
l 2 3
l 1 1
h 1
l 1 1
l 3 -2
h 1
l 1 2
l 1 1
h 1
l 9 4
l 1 1
v 2
h 1
l 2 2
l 1 1
v 2
h 1
l 3 5
l 2 3
h 3
v 1
l 5 2
l 2 7
l -2 1
h -1
v 1
l 2 1
l 1 1
h 1
v 1
l -2 -1
l -3 1
h -1
l 1 2
h 1
v 3
l 1 1
v 2
h -1
v -1
h -2
v 2
h 1
l 1 1
v 3
l 3 1
l 1 -1
v 1
l -1 1
l 1 3
h 1
v -2
l 1 1
l 2 2
h 1
v 1
l 1 2
v -1
l 1 -1
l 2 1
v -1
h 1
l 1 1
v 2
h -2
v 2
h 3
v 1
l 1 1
v 3
v -1
h 1
v 1
h -1
v -1
h -2
v 1
h 1
l 1 1
l -1 1
h -2
v 1
h 1
l 1 1
l 2 3
h 1
l 3 1
v 2
h 1
l 3 1
h 1
l -1 -2
l 1 -1
l 2 1
l 1 3
v 1
h 1
h -1
v 2
h -1
v 1
h 1
h -2
h 1
v 2
h 1
h -1
v 1
h 1
v 2
l 1 1
l 1 1
h 1
v 1
h 1
l 4 4
l 2 2
h 4
l 1 1
h 1
l 2 1
h 1
v 1
h 8
v 2
l -1 1
h 1
v -1
h 1
l 1 1
l -1 1
v 1
h 3
v 1
l 2 2
v 1
h 1
l 1 -1
v 1
l -1 1
h 1
v 1
h 1
l 2 -1
l 1 2
l 1 -1
v 2
h 1
l 1 1
h 2
l -2 1
l 2 1
v 2
v -1
h 1
l 1 1
h 1
v 1
h -2
l 2 1
l -1 1
l 1 1
l -1 1
v 4
h -1
l -1 -1
v 3
l 1 1
l 1 1
l -1 1
v 1
l 3 2
v 2
h 1
v 3
h 1
l 1 1
v -2
h 1
v 3
h -2
l -1 1
v 1
h 3
l 1 1
l 1 1
v 2
l -1 1
v 2
h 1
l 2 -1
l 1 2
v -1
l 1 1
l 2 3
l -1 1
h 1
v 1
h -1
v 1
l 1 1
h -1
v 4
h 1
l -1 1
v -1
h -1
v 1
h 3
v 2
h -3
v 1
h 3
v 2
h 1
l -1 1
h -1
v 1
h 2
l 1 1
l -2 2
v 2
l 1 1
h -1
v 1
h -2
l 1 1
h -1
v 1
h 2
v 2
h 1
v -1
v 1
l 1 1
v 4
l 2 2
h -2
v -1
v 2
h 2
l -1 2
h -1
v 1
h -2
l 2 1
l -1 1
l -1 -1
v 2
l 1 1
l 1 1
l 1 1
l 2 3
l 1 1
h 3
v 3
v -1
h 2
l -1 1
v 1
h 1
l 3 1
l 1 1
h 5
v -1
l 1 1
v 1
h 1
v -1
v 2
h 1
v -1
h 1
v 2
h 1
v 3
l 5 2
h 2
v 1
h -1
v 2
h 1
v 1
l 2 1
l 1 1
v 2
l 2 2
l 1 1
h 1
l 1 1
h -1
v 3
l -1 -1
h -1
v 1
h 1
v 1
l -1 1
v 2
l 2 2
v 1
l 1 2
h 1
l 1 1
v 4
l 2 2
v 1
h -1
h 1
v 1
l 1 1
l 1 1
v 1
h -1
v 1
h 2
v -1
h 1
v -2
v 1
l 1 1
h 1
v 1
h 1
h -1
v 1
h -1
v 1
h 2
v 1
h -1
v 1
h 1
v 1
h -1
v 1
h 3
l -1 2
v 1
h 1
v 2
h -1
v 2
v -1
h -1
v 1
h -2
l -1 1
h 1
v 1
h -1
v 8
h 1
v 1
l 1 1
l 2 1
v 1
l 1 1
v 1
h 1
h -1
v 4
h 2
v 1
h -1
l -1 -1
v 1
h -1
v 1
l 1 3
l 1 1
h -1
v 3
h 1
v 3
l 13 8
l 7 -1
l -5 4
l -3 8
l 8 4
l -2 9
l 5 2
l 3 7
h 6
l -9 11
l -8 -3
h -7
l -8 -12
l 3 9
l -4 -1
l -4 -8
l -11 3
l -3 7
l 10 -2
l 5 9
l -6 7
v 6
l 4 13
l -8 -2
l -11 -6
l -2 -6
l -7 -2
l 1 4
l 7 1
l -1 4
Z
M784 666
h 5
l 6 6
h 5
l -7 12
l -9 8
l -7 -8
l -1 -11
h 7
l -4 -4
Z
M775 652
h 5
l 1 6
l 9 1
l 1 5
h -10
Z
M784 698
v 15
l -7 14
l -4 -23
l 5 1
l 2 -7
Z
M773 731
l 3 4
l -3 7
l -6 7
l -5 13
l -5 -1
l -2 -12
l -4 -6
l 11 -3
l 4 -8
Z
M762 705
l 12 2
l 1 11
Z
M750 779
l 2 -1
l 9 3
l 2 7
l -4 2
l -1 7
l -9 7
l -7 10
l -6 -2
l 2 -6
l -4 -5
l 2 -10
h 4
l 3 -14
Z
M733 772
l 10 2
l -7 5
l -4 -2
Z
M737 834
l -5 -11
l 4 -6
l 3 2
Z
M738 855
l 2 4
l -4 16
l -6 12
l 2 12
l -6 -3
l 2 -5
l -1 -6
v -13
l -6 -7
l 3 -5
h 5
l 10 -14
Z
M733 810
l -5 -5
l 3 -6
l 4 4
Z"/>
<g class="districts">
<path data-race-id="GA01" d="M427 840
v 13
l 3 2
h 22
l 4 9
v 11
l 8 -4
l 1 -2
v -49
l -1 -14
h 53
l -3 -8
h -3
l 3 -12
v -1
h 5
l 5 2
v -40
h 5
v -18
h -5
v -23
h 18
v -8
h 5
l 3 6
l 12 9
l 10 3
l 6 6
l 4 1
l 12 12
l 12 12
l 4 -1
v -62
h 7
l -3 -4
l 4 -5
l 6 -1
l 6 2
l 4 6
h 4
l -2 -4
l 5 -2
h -1
l 1 -1
v -1
l 5 -6
v -4
l 7 -8
l -1 -9
l 2 -2
l 8 -10
l 12 -7
l 7 -9
l -7 -5
l -2 -2
l -2 -6
l 30 -8
l 29 -11
l 1 1
v 1
v -1
h 1
v 3
h -1
h 1
v 3
h 1
v -1
h 1
v 3
h -1
v 1
h 1
v 1
v -1
h -1
v -1
h 1
v -3
h -1
v 1
h -1
v -3
h -1
h 1
v -3
h -1
v 1
v -1
l -1 -1
h 1
h -1
v -1
l -2 -7
l 9 -2
l 1 6
l 3 8
l 15 -14
l 2 -10
l 9 -2
l 7 -6
l 2 2
v 1
h -1
h 1
v 1
l 1 1
l 1 1
v 1
h -1
v 1
h 2
v -1
h 1
v -2
v 1
l 1 1
h 1
v 1
h 1
h -1
v 1
h -1
v 1
h 2
v 1
h -1
v 1
h 1
v 1
h -1
v 1
h 3
l -1 2
v 1
h 1
v 2
h -1
v 2
v -1
h -1
v 1
h -2
l -1 1
h 1
v 1
h -1
v 8
h 1
v 1
l 1 1
l 2 1
v 1
l 1 1
v 1
h 1
h -1
v 4
h 2
v 1
h -1
l -1 -1
v 1
h -1
v 1
l 1 3
l 1 1
h -1
v 3
h 1
v 3
l 13 8
l 7 -1
l -5 4
l -3 8
l 8 4
l -2 9
l 5 2
l 3 7
h 6
l -9 11
l -8 -3
h -7
l -8 -12
l 3 9
l -4 -1
l -4 -8
l -11 3
l -3 7
l 10 -2
l 5 9
l -6 7
v 6
l 4 13
l -8 -2
l -11 -6
l -2 -6
l -7 -2
l 1 4
l 7 1
l -1 4
l 10 5
l 7 7
l -5 6
l -4 -2
l -9 5
l -11 1
l 16 1
l 11 10
l -3 8
l -9 2
l -4 -3
l -5 5
l 5 4
l 5 -2
l -5 8
l -6 2
l 3 8
l -4 9
v 7
h 7
l 2 9
l -15 -3
h -9
l -8 -3
l -2 3
l 1 1
l 5 1
l 5 7
l 4 9
l -5 4
l -7 11
l 5 10
l -2 4
l -8 -3
l -1 -6
h -4
l -2 -7
l -1 12
l 10 4
l 4 5
h 5
l 1 10
l -16 -10
l 9 8
l -10 -3
l -5 -4
l 8 5
l 2 7
l 6 4
l -7 6
l -6 -5
l -5 3
h -7
l 8 3
l 3 -4
l 7 6
l 9 -2
l 1 5
l -6 6
l -3 -1
l -4 8
l 7 6
l -7 1
l -1 6
l 6 7
l -1 11
h -15
l -3 2
l -1 1
l -1 -2
h -2
l 1 -1
l -1 -1
v 1
h -4
l -1 -2
h -1
v -1
l -2 -1
h -2
v 1
h 1
v 2
l -2 -1
l -2 -1
h -2
l -2 1
v -1
l -2 -2
l -2 -1
v -1
l -2 -1
l -3 -1
v 3
h -2
v -3
l -1 -1
l -1 -1
h -1
v 1
v -1
l -1 -1
h -3
v 1
l -1 -1
l -1 1
h -1
v -1
h -1
l -2 -1
h -1
l -1 1
l -1 -1
v -1
h -1
l -2 -3
v -2
h -3
l 1 1
v 1
h -3
v -1
v 1
h -1
v -1
h -2
v -1
h -3
l -1 1
l -1 1
h 1
v 1
l -1 1
v 3
l -1 3
h -2
l -2 -1
v -1
l -2 -1
h -1
v 1
h -1
v -1
l -1 3
v 1
h 1
l 1 2
v 1
h -1
v 1
h -1
v 1
h -2
v -1
l -1 1
v 3
h -1
v 1
l 1 1
v 2
l 1 2
h -1
v 3
l -1 1
v 7
l 1 1
v 2
l 1 1
h 1
v 2
h 1
v 3
l 1 1
h 1
v 3
h 1
v 4
h 1
v 1
l -1 1
v 1
l -1 1
v 2
h -1
v 4
h 1
v 7
l -1 1
h 1
v 1
l -1 1
l -1 2
v 3
h -1
v 1
h -1
v 1
l 1 1
v 2
h -1
l -1 1
v 4
h 1
v 4
h 1
h -1
v 1
h 1
v 1
h -2
v 1
h -1
v 1
h -2
v 1
h -1
l -1 -1
h -5
v -1
h -2
v -1
l -1 1
h -2
v 1
l -2 -1
l -1 1
h -2
l -1 1
h -1
l -1 -1
v -2
h -1
v -2
h -1
l -1 1
v -2
l -1 -1
v -2
l -1 -1
v -1
l -1 -1
v -5
h 1
v -3
h -1
v -1
l 1 -1
v -1
l 1 -1
v -3
h -1
v -1
h -1
v -1
h -1
v -1
h -1
v -1
h -1
v -3
h -1
v -2
h -1
v -5
h 1
l 3 -2
l -3 -1
h -12
v -1
h -13
l -6 -1
h -10
l -1 -1
h -14
l -1 -1
h -14
l -2 -1
h -11
l -4 -1
l -19 -1
h -7
l -11 -1
h -4
l -10 -1
h -7
v -1
h -13
v -32
l 5 -5
v -6
h -8
l -1 -9
l -5 -6
l 3 -4
l -10 4
l -3 -5
v -8
Z
M810 623
l 5 4
l 8 4
l 9 -2
l 1 6
l -14 2
l -1 -5
l -8 -6
Z
M824 645
h -6
v -8
l 8 -2
l 5 2
Z
M804 622
l 6 2
l 8 9
l -1 10
l -7 4
l -5 -3
l 1 -8
l -4 -6
h -5
l 4 -7
Z
M784 666
h 5
l 6 6
h 5
l -7 12
l -9 8
l -7 -8
l -1 -11
h 7
l -4 -4
Z
M775 652
h 5
l 1 6
l 9 1
l 1 5
h -10
Z
M784 698
v 15
l -7 14
l -4 -23
l 5 1
l 2 -7
Z
M773 731
l 3 4
l -3 7
l -6 7
l -5 13
l -5 -1
l -2 -12
l -4 -6
l 11 -3
l 4 -8
Z
M762 705
l 12 2
l 1 11
Z
M750 779
l 2 -1
l 9 3
l 2 7
l -4 2
l -1 7
l -9 7
l -7 10
l -6 -2
l 2 -6
l -4 -5
l 2 -10
h 4
l 3 -14
Z
M733 772
l 10 2
l -7 5
l -4 -2
Z
M737 834
l -5 -11
l 4 -6
l 3 2
Z
M738 855
l 2 4
l -4 16
l -6 12
l 2 12
l -6 -3
l 2 -5
l -1 -6
v -13
l -6 -7
l 3 -5
h 5
l 10 -14
Z
M733 810
l -5 -5
l 3 -6
l 4 4
Z"/>
<path data-race-id="GA02" d="M87 681
h 1
v -11
l -1 -1
l 1 -1
v -5
l 1 -1
v -3
l 3 -1
v -1
l 1 -1
l -1 -1
v -1
h 2
v -1
l 2 -2
h 1
v -2
h 1
v -1
l -1 -1
v -2
h 1
l 2 -1
h 1
v -2
h -1
v -2
h 1
v -4
l 2 -2
v -3
l -1 -2
l 1 -1
h -1
l 1 -4
v -4
l 2 -2
l -2 -4
v -6
l 11 -9
h 1
l 1 -1
h 1
l 1 -1
h 1
l -1 -2
h -1
l -1 -1
l 1 -1
l 3 -1
h 5
l 1 -1
h 1
v -4
l 3 -2
h 2
v -1
l -1 -2
h -1
v -1
l -2 -1
l -1 -1
l -4 -4
l -1 -1
h -1
l -3 -1
v -1
h -3
l -1 -1
v -6
l 2 -1
v -3
l 2 -1
l -1 -3
h 2
v -1
l -2 -3
v -1
l 1 -1
l 2 -1
l -1 -1
v -1
l -1 -1
l -4 -2
v -12
l 6 -4
l -1 7
l 11 -7
l -3 -9
l 2 -7
l 1 5
h 36
l 1 -3
v -25
l 1 -22
l -2 -3
h 22
l 12 -7
h 5
l -3 5
l 5 1
l 1 5
l 8 -1
l 5 11
l 4 -1
l 3 5
l 9 3
l 5 4
l 5 -2
l 5 9
l 9 -21
l 5 -1
v -10
h 21
l 18 1
l 5 -4
h 9
l 4 3
l 13 -2
l 8 4
l 1 -9
h 11
l 5 2
l 8 8
l 1 -1
l 3 7
l -17 19
l -3 3
l 3 8
l -14 -3
l -4 -3
l -3 11
v 22
l -5 -1
v 6
l -9 2
v 10
l -5 1
l -3 -5
l 1 17
h -3
l 1 19
h 41
v 100
l -24 -1
l -10 1
l -7 -4
l -2 -4
l -14 -2
l -8 8
l -7 21
l 1 11
l 3 8
v 35
l -1 22
v 53
l -20 -1
l -1 23
l 7 10
v 8
l -1 42
h -2
l -5 -1
h -9
l -8 -1
h -9
l -2 -1
h -13
l -1 -1
h -17
l -2 -1
h -11
l -1 -1
h -12
l -2 -1
h -12
l -3 -1
h -11
l -1 -1
h -14
l -1 -1
h -2
l -4 -7
h -4
v -1
l -4 -17
h 2
v -2
l -1 -1
l -1 -1
v -1
h 1
v -1
h -1
v -3
h 1
l -4 -6
l -1 -1
l -4 -4
v -2
l 1 -1
v -4
h -2
v -1
h -2
v -4
l 1 -1
v -1
l -2 -11
l -3 -4
l -3 -9
h -1
l -7 -9
l -1 -4
v -10
l -2 -6
l 2 -5
v -1
l 4 -6
l -1 -13
l 4 -9
v -11
l 3 -7
l -2 -22
v -1
h -2
v -1
h -1
v -2
h -1
v -1
h 1
v -2
l -1 -1
h -1
v -1
h -1
v -1
h -1
l -1 -1
v -2
h -1
l -1 -1
h -1
v -6
l 1 -1
v -1
l 1 -1
l -1 -1
v -2
l -1 -1
v -3
l -1 -1
v -1
h -1
Z"/>
<path data-race-id="GA03" d="M60 297
l 9 1
l 23 -9
l 7 2
l 11 -5
v -17
l 2 -3
l 23 7
v 27
l -1 15
h 16
l -4 7
l 3 5
l -6 1
l 9 1
h 30
l 2 2
l 2 -4
l 7 -2
l -1 12
l 5 5
h 8
v -6
l 5 -1
l 6 5
l 4 -5
l 2 1
v 5
l -3 7
l 3 3
v 1
l -1 1
v 9
h 6
v -9
l 13 1
l 4 -10
l 9 -2
l -2 -7
l 12 -1
l 3 7
l -4 3
v 8
l 4 3
l 12 4
l 2 6
l -1 5
l -9 3
l 1 1
l -5 9
v 10
h 14
v 25
l -1 2
v 25
l -1 4
l -12 -1
v 27
l -5 1
l -9 21
l -5 -9
l -5 2
l -5 -4
l -9 -3
l -3 -5
l -4 1
l -5 -11
l -8 1
l -1 -5
l -5 -1
l 3 -5
h -5
l -12 7
h -22
l 2 3
l -1 22
v 25
l -1 3
h -36
l -1 -5
l -2 7
l 3 9
l -11 7
l 1 -7
l -6 4
l -12 -16
l -1 -5
l -4 -8
l 2 -2
l -4 -6
v -11
l -4 -2
l 3 -5
l -7 -7
l 1 -9
l -4 -4
l -1 -2
v -4
l -4 -20
v -8
h -1
v -1
l -3 -18
l -2 -16
v -5
l -1 -1
v -3
l -5 -36
l -1 -3
l -1 -12
v -2
l -1 -4
v -2
l -1 -3
v -1
Z"/>
<path data-race-id="GA04" d="M235 262
l 5 1
l 19 -5
l -6 -2
l -5 -7
l 14 -1
v 5
l 21 4
l -1 2
h 18
l 4 3
l -13 12
l 11 8
l 21 16
v 5
l -5 5
l 1 7
l -1 2
l -3 3
l -2 7
l -7 2
l -1 2
l -3 5
l -5 -1
l -13 -1
l -4 -7
l -9 -8
l -5 -1
l -7 -9
l -2 -7
l -11 3
l -3 -4
l -1 -3
v -1
h 2
l 1 -8
l -1 -9
l -7 -5
Z"/>
<path data-race-id="GA05" d="M190 281
l 16 -15
l 5 -2
l 3 1
h 2
v -3
l 7 -3
l 6 -1
v 3
l 6 1
l 2 13
l 7 5
l 1 9
l -1 8
h -2
v 1
l 1 3
h -3
l 3 9
v 12
l -3 -1
l -17 -8
l -13 -1
v -7
l -5 -1
l -2 -5
h -5
l -6 -4
l -5 1
l -6 -4
Z"/>
<path data-race-id="GA06" d="M192 214
h 26
v 1
v -8
l 9 -3
l 2 -11
l 4 -2
l 12 1
l -1 15
l 13 5
l 7 6
l 8 1
l -4 4
h -7
l -3 7
l -5 -1
l -9 3
l -3 6
l 2 3
l 5 8
l 5 7
l 6 2
l -19 5
l -5 -1
l -6 -1
v -9
l -3 1
l -3 -6
l -9 2
l -4 3
l -3 -5
l 3 -6
l -9 -2
l -5 -11
l -2 -12
Z"/>
<path data-race-id="GA07" d="M241 238
l 3 -6
l 9 -3
l 5 1
l 3 -7
h 7
l 4 -4
l -8 -1
l -7 -6
l -13 -5
l 1 -15
v -11
l 10 -1
l 13 -3
l 10 1
l -2 5
l 3 9
l -1 4
l 29 12
l -6 10
l 1 5
l -4 4
l 3 4
l 1 10
l -1 9
l 12 4
l -9 8
l -4 -3
h -18
l 1 -2
l -21 -4
v -5
l -14 1
l -5 -8
Z"/>
<path data-race-id="GA08" d="M266 448
l 12 1
l 1 -4
v -25
l 1 -2
v -25
h 32
l 5 4
h 1
v 11
l 13 -3
l 17 -2
l 17 -4
l 20 -2
l 2 14
l 8 32
l 2 7
l 12 -5
l 11 -6
l 16 -6
l 4 8
l 6 5
l 4 12
l 5 7
h 6
l 3 5
l 3 14
l -1 10
l -12 6
l -35 20
l 16 33
l 25 55
h 2
l 17 -9
l 1 3
l -9 9
l 8 13
l 9 3
l 7 5
l 1 2
l 3 2
l 6 2
l 6 8
l 8 9
l 1 1
l -4 -1
l -3 5
l -8 4
l -4 4
l -4 -1
v 5
l -9 5
v 1
l -5 6
h -23
l -1 22
l -2 8
l -8 5
l -1 13
l -9 15
h -5
l 1 11
l 9 1
h 22
v 2
h 22
l 3 8
h 33
v 18
l -5 -2
h -5
v 1
l -3 12
h 3
l 3 8
h -53
l 1 14
v 49
l -1 2
l -8 4
v -11
l -4 -9
h -22
l -3 -2
v -13
l -10 10
v 8
l 3 5
l 10 -4
l -3 4
l 5 6
l 1 9
h 8
v 6
l -5 5
v 32
l -4 -1
h -8
l -5 -1
h -11
l -3 -1
h -10
l -2 -1
h -13
l -1 -1
h -28
l -2 -1
h -13
l -2 -1
h -11
l -1 -1
h -13
v -1
h -15
l -1 -1
h -13
l -3 -1
h -8
l 1 -42
v -8
l -7 -10
l 1 -23
l 20 1
v -53
l 1 -22
v -35
l -3 -8
l -1 -11
l 7 -21
l 8 -8
l 14 2
l 2 4
l 7 4
l 10 -1
l 24 1
v -100
h -41
l -1 -19
h 3
l -1 -17
l 3 5
l 5 -1
v -10
l 9 -2
v -6
l 5 1
v -22
l 3 -11
l 4 3
l 14 3
l -3 -8
l 3 -3
l 17 -19
l -3 -7
l -1 1
l -8 -8
l -5 -2
h -11
l -1 9
l -8 -4
l -13 2
l -4 -3
h -9
l -5 4
l -18 -1
h -21
Z"/>
<path data-race-id="GA09" d="M186 54
l -1 -14
l 1 -14
l 23 1
h 59
l 6 1
h 79
v -1
h 24
l 24 -1
h 17
l 22 -1
v 2
h 1
l -1 1
l -1 2
l -1 1
l -1 1
v 3
l 1 1
l -2 -1
v 2
l 1 1
l 2 1
l -1 1
l -2 -1
v 2
h -1
l -1 1
l -1 -1
h -1
l -1 -1
v 4
v -1
h -2
v 1
h -1
l -3 2
v 1
h -2
v 2
h 1
l -1 1
h -1
v -2
v 1
h -1
v 2
l -2 -1
l -1 1
h -1
v 1
h 1
v 1
h -2
v 2
h -1
v 2
l 1 1
h -2
l -1 -1
v 1
h -1
v 1
l 1 1
v 3
h -3
v -1
h -1
v 1
h -1
v 1
l -1 -1
h -1
l 1 1
v 2
h -2
v 2
l -2 1
v 1
l 1 1
v 5
h -1
l -1 1
l -1 1
v 2
h -2
l -1 1
v 2
l 1 1
v 2
h 1
h -1
v 1
h -1
v 1
l 3 1
v 2
h 1
l 1 1
h 1
v 1
l 1 1
v -1
h 1
l 1 1
v 1
l 2 2
l 1 1
h 1
v 1
h 1
v 1
l 5 3
l 2 2
h 2
l 3 1
h 2
l 4 1
l 1 3
l 3 5
l 2 1
l 1 1
l 1 1
l 2 3
l 4 1
v 1
l 4 4
l 1 2
l 2 2
h 2
l 4 2
v 1
l 2 -1
v -1
h 11
l 3 -1
l 8 6
l 3 20
l 4 1
l 1 1
h 1
l 1 1
h 1
v 2
l 1 1
v 3
h 1
l 1 2
v 1
l 1 2
h 1
v 2
h 1
l 1 1
h 1
v 1
l 1 2
v 10
l 2 6
v 1
l 1 1
l 1 4
l 5 2
v 1
l 3 1
l 1 2
v 2
l 1 1
l 3 8
l 1 1
l 3 1
l 3 4
l 2 1
v 4
l 1 4
l 1 3
l 2 2
v 3
l -6 -5
h -22
l -7 3
l -11 -5
l -4 2
l -7 -6
l -4 1
l -8 -8
l -8 2
l -4 4
l -16 -6
l -11 9
l -9 1
l -3 9
l -3 -4
l -4 3
l -6 -4
l -8 2
l -9 -8
l -14 9
l -6 -16
h -7
l -1 -2
l -8 -1
l -8 1
l -3 -3
h -7
l -7 -10
l -1 -3
l -8 6
l -4 -2
l -29 -12
l 1 -4
l -3 -9
l 2 -5
l -10 -1
l -13 3
l -10 1
v -29
h -15
l -12 -2
l -1 -7
l -9 -2
l -4 -1
l -1 -7
l 7 1
l -5 -4
v -6
l 9 4
l 2 -11
l -6 -3
l -1 3
h -30
v -38
l 4 -9
l 9 -8
Z"/>
<path data-race-id="GA10" d="M263 334
l 2 -9
h 6
v -6
l 9 8
l 4 7
l 13 1
l 5 1
l 3 -5
l 1 -2
l 7 -2
l 2 -7
l 3 -3
l 1 -2
l -1 -7
l 5 -5
v -5
l -21 -16
l -11 -8
l 13 -12
l 9 -8
l -12 -4
l 1 -9
l -1 -10
l -3 -4
l 4 -4
l -1 -5
l 6 -10
l 4 2
l 8 -6
l 1 3
l 7 10
h 7
l 3 3
l 8 -1
l 8 1
l 1 2
h 7
l 6 16
l 14 -9
l 9 8
l 8 -2
l 6 4
l 4 -3
l 3 4
l 3 -9
l 9 -1
l 11 -9
l 16 6
l 4 -4
l 8 -2
l 8 8
l 4 -1
l 7 6
l 4 -2
l 11 5
l 7 -3
h 22
l 6 5
l 7 2
l 3 2
l 8 10
l 8 4
l 4 1
h 1
v 1
l 1 1
h 1
v 1
l 2 1
l 1 1
l 3 1
l 1 1
l 2 2
l 1 1
l 1 1
v 1
h 1
l 3 5
l 1 1
l 3 1
l 5 8
v 1
l 3 8
l 1 1
l 2 3
v 4
l 1 2
v 1
l 1 1
l 1 2
l 4 1
l 2 3
l 1 1
l -3 6
l -9 -4
h -9
l -8 6
v 12
l 7 1
l 2 5
l -3 4
h -6
v 11
l 6 6
l -2 2
l -10 9
l 6 2
l 9 6
l 5 8
l -6 19
l -3 11
v 10
l 4 20
l -8 21
l -1 -1
l -8 5
h -9
l 4 7
l -6 4
l -3 8
l -9 8
l 5 7
l -3 3
l -18 12
l 6 9
l -15 4
l -5 -2
l 2 -18
l -22 -9
l 1 -6
l -11 -6
l -18 1
l 1 -10
l -3 -14
l -3 -5
h -6
l -5 -7
l -4 -12
l -6 -5
l -4 -8
l -16 6
l -11 6
l -12 5
l -2 -7
l -8 -32
l -2 -14
l -20 2
l -17 4
l -17 2
l -13 3
v -11
h -1
l -5 -4
h -46
v -10
l 5 -9
l -1 -1
l 9 -3
l 1 -5
l -2 -6
l -12 -4
l -4 -3
v -8
l 4 -3
Z"/>
<path data-race-id="GA11" d="M111 208
l 1 -24
h 4
v -27
h 3
v -10
h 47
v -3
h 25
v 7
h 23
l 4 -1
l 12 2
h 15
v 40
l -12 -1
l -4 2
l -2 11
l -9 3
v 8
v -1
h -26
l 2 2
l 2 12
l 5 11
l 9 2
l -3 6
l 3 5
l 4 -3
l 9 -2
l 3 6
l 3 -1
v 6
l -6 1
l -7 3
v 3
h -2
l -3 -1
l -5 2
l -1 -2
l -6 -5
l 3 -4
l -2 -6
l -6 -3
v 7
l -5 1
l -4 -5
l -19 -1
v -9
h -3
v -24
l 1 -3
l -32 -1
h -21
Z"/>
<path data-race-id="GA12" d="M466 494
l 18 -1
l 11 6
l -1 6
l 22 9
l -2 18
l 5 2
l 15 -4
l -6 -9
l 18 -12
l 3 -3
l -5 -7
l 9 -8
l 3 -8
l 6 -4
l -4 -7
h 9
l 8 -5
l 1 1
l 8 -21
l -4 -20
v -10
l 3 -11
l 6 -19
l -5 -8
l -9 -6
l -6 -2
l 10 -9
l 2 -2
l -6 -6
v -11
h 6
l 3 -4
l -2 -5
l -7 -1
v -12
l 8 -6
h 9
l 9 4
l 3 -6
h 1
l 1 1
l 3 -2
h 1
l 1 2
l 1 1
h 1
l 9 4
l 1 1
v 2
h 1
l 2 2
l 1 1
v 2
h 1
l 3 5
l 2 3
h 3
v 1
l 5 2
l 2 7
l -2 1
h -1
v 1
l 2 1
l 1 1
h 1
v 1
l -2 -1
l -3 1
h -1
l 1 2
h 1
v 3
l 1 1
v 2
h -1
v -1
h -2
v 2
h 1
l 1 1
v 3
l 3 1
l 1 -1
v 1
l -1 1
l 1 3
h 1
v -2
l 1 1
l 2 2
h 1
v 1
l 1 2
v -1
l 1 -1
l 2 1
v -1
h 1
l 1 1
v 2
h -2
v 2
h 3
v 1
l 1 1
v 3
v -1
h 1
v 1
h -1
v -1
h -2
v 1
h 1
l 1 1
l -1 1
h -2
v 1
h 1
l 1 1
l 2 3
h 1
l 3 1
v 2
h 1
l 3 1
h 1
l -1 -2
l 1 -1
l 2 1
l 1 3
v 1
h 1
h -1
v 2
h -1
v 1
h 1
h -2
h 1
v 2
h 1
h -1
v 1
h 1
v 2
l 1 1
l 1 1
h 1
v 1
h 1
l 4 4
l 2 2
h 4
l 1 1
h 1
l 2 1
h 1
v 1
h 8
v 2
l -1 1
h 1
v -1
h 1
l 1 1
l -1 1
v 1
h 3
v 1
l 2 2
v 1
h 1
l 1 -1
v 1
l -1 1
h 1
v 1
h 1
l 2 -1
l 1 2
l 1 -1
v 2
h 1
l 1 1
h 2
l -2 1
l 2 1
v 2
v -1
h 1
l 1 1
h 1
v 1
h -2
l 2 1
l -1 1
l 1 1
l -1 1
v 4
h -1
l -1 -1
v 3
l 1 1
l 1 1
l -1 1
v 1
l 3 2
v 2
h 1
v 3
h 1
l 1 1
v -2
h 1
v 3
h -2
l -1 1
v 1
h 3
l 1 1
l 1 1
v 2
l -1 1
v 2
h 1
l 2 -1
l 1 2
v -1
l 1 1
l 2 3
l -1 1
h 1
v 1
h -1
v 1
l 1 1
h -1
v 4
h 1
l -1 1
v -1
h -1
v 1
h 3
v 2
h -3
v 1
h 3
v 2
h 1
l -1 1
h -1
v 1
h 2
l 1 1
l -2 2
v 2
l 1 1
h -1
v 1
h -2
l 1 1
h -1
v 1
h 2
v 2
h 1
v -1
v 1
l 1 1
v 4
l 2 2
h -2
v -1
v 2
h 2
l -1 2
h -1
v 1
h -2
l 2 1
l -1 1
l -1 -1
v 2
l 1 1
l 1 1
l 1 1
l 2 3
l 1 1
h 3
v 3
v -1
h 2
l -1 1
v 1
h 1
l 3 1
l 1 1
h 5
v -1
l 1 1
v 1
h 1
v -1
v 2
h 1
v -1
h 1
v 2
h 1
v 3
l 5 2
h 2
v 1
h -1
v 2
h 1
v 1
l 2 1
l 1 1
v 2
l 2 2
l 1 1
h 1
l 1 1
h -1
v 3
l -1 -1
h -1
v 1
h 1
v 1
l -1 1
v 2
l 2 2
v 1
l 1 2
h 1
l 1 1
v 4
l -7 6
l -9 2
l -2 10
l -15 14
l -3 -8
l -1 -6
l -9 2
l 2 7
v 1
h 1
h -1
l 1 1
v 1
v -1
h 1
v 3
h -1
h 1
v 3
h 1
v -1
h 1
v 3
h -1
v 1
h 1
v 1
v -1
h -1
v -1
h 1
v -3
h -1
v 1
h -1
v -3
h -1
h 1
v -3
h -1
v 1
v -1
l -1 -1
l -29 11
l -30 8
l 2 6
l 2 2
l 7 5
l -7 9
l -12 7
l -8 10
l -2 2
l 1 9
l -7 8
v 4
l -5 6
v 1
l -1 1
h 1
l -5 2
l 2 4
h -4
l -4 -6
l -6 -2
l -6 1
l -4 5
l 3 4
h -7
v 62
l -4 1
l -12 -12
l -12 -12
l -4 -1
l -6 -6
l -10 -3
l -12 -9
l -3 -6
h -5
v 8
h -18
v 23
h 5
v 18
h -5
v 22
h -33
l -3 -8
h -22
v -2
h -22
l -9 -1
l -1 -11
h 5
l 9 -15
l 1 -13
l 8 -5
l 2 -8
l 1 -22
h 23
l 5 -6
v -1
l 9 -5
v -5
l 4 1
l 4 -4
l 8 -4
l 3 -5
l 4 1
l -1 -1
l -8 -9
l -6 -8
l -6 -2
l -3 -2
l -1 -2
l -7 -5
l -9 -3
l -8 -13
l 9 -9
l -1 -3
l -17 9
h -2
l -25 -55
l -16 -33
l 35 -20
Z"/>
<path data-race-id="GA13" d="M135 273
l 4 2
l 18 -3
h 8
v -4
l 1 -20
l 19 1
l 4 5
l 5 -1
v -7
l 6 3
l 2 6
l -3 4
l 6 5
l 1 2
l -16 15
l -9 11
l 6 4
l 5 -1
l 6 4
h 5
l 2 5
l 5 1
v 7
l 13 1
l 17 8
l 3 1
v -12
l -3 -9
h 3
l 3 4
l 11 -3
l 2 7
l 7 9
l 5 1
v 6
h -6
l -2 9
l -12 1
l 2 7
l -9 2
l -4 10
l -13 -1
v 9
h -6
v -9
l 1 -1
v -1
l -3 -3
l 3 -7
v -5
l -2 -1
l -4 5
l -6 -5
l -5 1
v 6
h -8
l -5 -5
l 1 -12
l -7 2
l -2 4
l -2 -2
h -30
l -9 -1
l 6 -1
l -3 -5
l 4 -7
h -16
l 1 -15
Z"/>
<path data-race-id="GA14" d="M43 25
h 63
l 20 1
h 60
l -1 14
l 1 14
l 6 8
l -9 8
l -4 9
v 38
h 30
l 1 -3
l 6 3
l -2 11
l -9 -4
v 6
l 5 4
l -7 -1
l 1 7
l 4 1
l 9 2
l 1 7
l -4 1
h -23
v -7
h -25
v 3
h -47
v 10
h -3
v 27
h -4
l -1 24
v 3
h 21
l 32 1
l -1 3
v 24
h 3
v 9
l -1 20
v 4
h -8
l -18 3
l -4 -2
l -23 -7
l -2 3
v 17
l -11 5
l -7 -2
l -23 9
l -9 -1
l -2 -12
v -3
l -1 -4
v -4
l -4 -27
l -5 -37
l -4 -23
v -1
l -1 -14
h -1
v -4
l -3 -20
v -3
l -1 -1
l -2 -15
v -5
h -1
v -4
h -1
v -1
l -2 -14
l -1 -6
l -1 -7
v -1
l -2 -9
v -1
l -3 -23
v -1
l -1 -6
v -3
l -1 -7
v -1
l -1 -5
v -2
l -1 -8
Z"/>
</g>
  <path class="districts-mesh" d="M730 588
v 1
v -1
l -1 -1
v -1
l -2 -7
l 9 -2
l 1 6
l 3 8
l 15 -14
l 2 -10
l 9 -2
l 7 -6
M114 533
l 6 -4
l -1 7
l 11 -7
l -3 -9
l 2 -7
l 1 5
h 36
l 1 -3
v -25
l 1 -22
l -2 -3
h 22
l 12 -7
h 5
l -3 5
l 5 1
l 1 5
l 8 -1
l 5 11
l 4 -1
l 3 5
l 9 3
l 5 4
l 5 -2
l 5 9
l 9 -21
l 5 -1
v -10
h 21
l 18 1
l 5 -4
h 9
l 4 3
l 13 -2
l 8 4
l 1 -9
h 11
l 5 2
l 8 8
l 1 -1
l 3 7
l -17 19
l -3 3
l 3 8
l -14 -3
l -4 -3
l -3 11
v 22
l -5 -1
v 6
l -9 2
v 10
l -5 1
l -3 -5
l 1 17
h -3
l 1 19
h 41
v 100
l -24 -1
l -10 1
l -7 -4
l -2 -4
l -14 -2
l -8 8
l -7 21
l 1 11
l 3 8
v 35
l -1 22
v 53
l -20 -1
l -1 23
l 7 10
v 8
l -1 42
M60 297
l 9 1
l 23 -9
l 7 2
l 11 -5
v -17
l 2 -3
l 23 7
v 27
l -1 15
h 16
l -4 7
l 3 5
l -6 1
l 9 1
h 30
l 2 2
l 2 -4
l 7 -2
l -1 12
l 5 5
h 8
v -6
l 5 -1
l 6 5
l 4 -5
l 2 1
v 5
l -3 7
l 3 3
v 1
l -1 1
v 9
h 6
v -9
l 13 1
l 4 -10
l 9 -2
l -2 -7
l 12 -1
l 3 7
l -4 3
v 8
l 4 3
l 12 4
l 2 6
l -1 5
l -9 3
l 1 1
l -5 9
v 10
h 14
v 25
l -1 2
v 25
l -1 4
l -12 -1
v 17
M731 594
h 1
v -1
h 1
h -1
v 1
M243 301
h -3
l 3 9
v 12
l -3 -1
l -17 -8
l -13 -1
v -7
l -5 -1
l -2 -5
h -5
l -6 -4
l -5 1
l -6 -4
l 9 -11
l 16 -15
l 5 -2
l 3 1
h 2
v -3
l 7 -3
l 6 -1
v 3
l 6 1
l 5 1
l 19 -5
l -6 -2
l -5 -7
l 14 -1
v 5
l 21 4
l -1 2
h 18
l 4 3
l -13 12
l 11 8
l 21 16
v 5
l -5 5
l 1 7
l -1 2
l -3 3
l -2 7
l -7 2
l -1 2
l -3 5
l -5 -1
l -13 -1
l -4 -7
l -9 -8
l -5 -1
l -7 -9
l -2 -7
l -11 3
l -3 -4
l -1 -3
v -1
h 2
l 1 -8
l -1 -9
l -7 -5
l -2 -13
M229 258
v -6
l -3 1
l -3 -6
l -9 2
l -4 3
l -3 -5
l 3 -6
l -9 -2
l -5 -11
l -2 -12
l -2 -2
h 26
v 1
M218 214
v -7
l 9 -3
l 2 -11
l 4 -2
l 12 1
l -1 15
l 13 5
l 7 6
l 8 1
l -4 4
h -7
l -3 7
l -5 -1
l -9 3
l -3 6
l 2 3
l 5 8
M245 192
v -11
l 10 -1
l 13 -3
l 10 1
l -2 5
l 3 9
l -1 4
l 29 12
l -6 10
l 1 5
l -4 4
l 3 4
l 1 10
l -1 9
l 12 4
l -9 8
M280 393
h 32
l 5 4
h 1
v 11
l 13 -3
l 17 -2
l 17 -4
l 20 -2
l 2 14
l 8 32
l 2 7
l 12 -5
l 11 -6
l 16 -6
l 4 8
l 6 5
l 4 12
l 5 7
h 6
l 3 5
l 3 14
l -1 10
l -12 6
l -35 20
l 16 33
l 25 55
h 2
l 17 -9
l 1 3
l -9 9
l 8 13
l 9 3
l 7 5
l 1 2
l 3 2
l 6 2
l 6 8
l 8 9
l 1 1
l -4 -1
l -3 5
l -8 4
l -4 4
l -4 -1
v 5
l -9 5
v 1
l -5 6
h -23
l -1 22
l -2 8
l -8 5
l -1 13
l -9 15
h -5
l 1 11
l 9 1
h 22
v 2
h 22
l 3 8
h 33
M245 181
v -29
h -15
l -12 -2
l -1 -7
l -9 -2
l -4 -1
l -1 -7
l 7 1
l -5 -4
v -6
l 9 4
l 2 -11
l -6 -3
l -1 3
h -30
v -38
l 4 -9
l 9 -8
l -6 -8
l -1 -14
l 1 -14
M531 239
l -6 -5
h -22
l -7 3
l -11 -5
l -4 2
l -7 -6
l -4 1
l -8 -8
l -8 2
l -4 4
l -16 -6
l -11 9
l -9 1
l -3 9
l -3 -4
l -4 3
l -6 -4
l -8 2
l -9 -8
l -14 9
l -6 -16
h -7
l -1 -2
l -8 -1
l -8 1
l -3 -3
h -7
l -7 -10
l -1 -3
l -8 6
l -4 -2
M263 334
l 2 -9
h 6
v -6
M733 593
v 3
h -1
h 1
v -2
M732 596
v 1
h 1
v 1
v -1
h -1
M730 591
h 1
v -2
v 2
h -1
h 1
v 3
v -3
M729 587
h 1
h -1
M604 313
l -3 6
l -9 -4
h -9
l -8 6
v 12
l 7 1
l 2 5
l -3 4
h -6
v 11
l 6 6
l -2 2
l -10 9
l 6 2
l 9 6
l 5 8
l -6 19
l -3 11
v 10
l 4 20
l -8 21
l -1 -1
l -8 5
h -9
l 4 7
l -6 4
l -3 8
l -9 8
l 5 7
l -3 3
l -18 12
l 6 9
l -15 4
l -5 -2
l 2 -18
l -22 -9
l 1 -6
l -11 -6
l -18 1
M206 266
l -1 -2
l -6 -5
l 3 -4
l -2 -6
l -6 -3
v 7
l -5 1
l -4 -5
l -19 -1
v -9
h -3
v -24
l 1 -3
l -32 -1
h -21
v -3
l 1 -24
h 4
v -27
h 3
v -10
h 47
v -3
h 25
v 7
h 23
l 4 -1
M436 921
v -32
l 5 -5
v -6
h -8
l -1 -9
l -5 -6
l 3 -4
l -10 4
l -3 -5
v -8
l 10 -10
v 13
l 3 2
h 22
l 4 9
v 11
l 8 -4
l 1 -2
v -49
l -1 -14
h 53
l -3 -8
h -3
l 3 -12
v -1
h 5
l 5 2
v -40
h 5
v -18
h -5
v -23
h 18
v -8
h 5
l 3 6
l 12 9
l 10 3
l 6 6
l 4 1
l 12 12
l 12 12
l 4 -1
v -62
h 7
l -3 -4
l 4 -5
l 6 -1
l 6 2
l 4 6
h 4
l -2 -4
l 5 -2
h -1
l 1 -1
v -1
l 5 -6
v -4
l 7 -8
l -1 -9
l 2 -2
l 8 -10
l 12 -7
l 7 -9
l -7 -5
l -2 -2
l -2 -6
l 30 -8
l 29 -11
l 1 1
v 1
v -1
h 1
v 1
M135 273
l 4 2
l 18 -3
h 8
v -4
l 1 -20"/>
</svg>