<svg version="1.1" xmlns="http://www.w3.org/2000/svg" width="1000" height="653" viewBox="0 0 1000 653">
  <path d="M789 383
l 14 4
l 6 4
l 1 4
l 15 8
l 10 7
l 6 -1
l 21 6
l 25 13
h 3
l 14 10
l 20 19
v 25
l 9 -2
l 7 1
l 4 8
l -1 10
l 7 2
v 4
l 11 9
l 13 6
l -1 8
l -8 8
l -12 9
l -8 8
l -16 7
l -11 7
l -10 3
l -9 -2
l -10 2
l -9 9
l -14 7
l -5 6
l -7 1
l -10 11
v 7
l -6 9
l -1 5
l -5 2
l -9 9
l -5 -8
l -8 -3
l -9 -8
l -9 -1
l -6 -3
l -6 -14
l 2 -18
v -9
l 3 -14
l -4 -15
l -2 -3
v -9
l -5 -1
l -2 -12
l -6 -17
l -6 -3
l -1 -7
l -5 -6
l 2 -10
l 12 -13
l 10 -2
l 7 -15
l 9 -8
v -11
l -7 -7
l -6 -16
v -13
l 2 -5
Z
M657 242
h 3
l 10 8
v 4
l 9 12
l 17 -3
l 8 -6
l 15 2
l 3 4
l 18 11
l 2 6
l 6 -1
l 4 4
l 9 2
l 4 4
v 10
l -10 12
l -12 3
l -4 4
l -14 -1
l -14 8
l -11 1
l -10 -1
l -5 -4
l -1 -23
l -3 -11
l -7 -2
l -5 5
l -18 -11
l -8 -9
l -2 -6
l 1 -8
l 8 -13
Z
M664 321
l 4 5
l -2 8
l 2 4
h -11
l -12 3
l -4 -4
l 1 -4
l 18 -11
Z
M585 213
l 1 1
l 4 -1
l 3 -5
l 4 7
l 5 1
l 9 2
l 9 -3
h 13
l 5 5
l -6 8
l -7 6
l -15 5
l -33 -10
l -15 2
h -21
l -7 -1
l 5 -12
l 5 -3
l -1 -8
h 9
l 3 3
Z
M590 261
l 16 3
l 14 13
l 2 7
l -6 9
l -9 4
h -11
l -5 -2
l -2 -6
l 1 -8
l -4 -6
l -7 -3
l -1 -8
Z
M474 190
v 2
l -10 8
v -5
h -5
l -13 5
l -1 -3
l -13 -10
l -2 4
h -8
l -3 -9
l 6 -5
l -10 -2
l 3 8
l -6 -6
l -2 4
l 8 3
v 5
l -21 4
l -3 -1
l -2 -9
l -1 -1
l -4 -8
l -4 -1
l -2 -8
l -8 -8
l 1 -8
l -9 -8
l 4 -2
h 24
l 10 -11
l 5 -8
l 8 -5
h 4
l 8 12
v 4
l 7 9
v 4
h 5
l 3 6
l -4 4
l 2 8
l 13 9
l -1 -9
l 9 2
l -4 7
l 7 6
l -1 3
l 5 7
Z
M173 17
l 7 2
l 7 6
l 3 7
v 8
l -8 11
l 1 16
l -4 1
l 1 4
l -16 12
l -7 -3
l -13 -1
l -10 -3
l -10 -10
l -14 -4
l -6 -9
l 1 -8
l 7 -5
l 3 -9
l 10 -4
l 16 -10
l 14 3
l 2 -4
Z
M54 58
l 5 1
l -6 12
l 2 6
l -16 7
l -7 15
l -7 -7
l 2 -12
l 13 -11
l 7 -4
l 1 -6
Z"/>
<g class="districts">
<path data-race-id="HI01" d="M392 182
l 5 3
l 8 -8
l 6 -2
l -2 -4
v -15
h 1
v 1
l 1 -1
h 2
l 19 -1
l 3 11
l 7 4
l 5 9
l 4 1
v 5
l 11 4
l 12 1
v 2
l -10 8
v -5
h -5
l -13 5
l -1 -3
l -13 -10
l -2 4
h -8
l -3 -9
l 6 -5
l -10 -2
l 3 8
l -6 -6
l -2 4
l 8 3
v 5
l -21 4
l -3 -1
l -2 -9
Z"/>
<path data-race-id="HI02" d="M474 190
l -12 -1
l -11 -4
v -5
l -4 -1
l -5 -9
l -7 -4
l -3 -11
l -19 1
h -2
l -1 1
v -1
h -1
v 15
l 2 4
l -6 2
l -8 8
l -5 -3
h -1
l -4 -8
l -4 -1
l -2 -8
l -8 -8
l 1 -8
l -9 -8
l 4 -2
h 24
l 10 -11
l 5 -8
l 8 -5
h 4
l 8 12
v 4
l 7 9
v 4
h 5
l 3 6
l -4 4
l 2 8
l 13 9
l -1 -9
l 9 2
l -4 7
l 7 6
l -1 3
l 5 7
l 5 3
Z
M789 383
l 14 4
l 6 4
l 1 4
l 15 8
l 10 7
l 6 -1
l 21 6
l 25 13
h 3
l 14 10
l 20 19
v 25
l 9 -2
l 7 1
l 4 8
l -1 10
l 7 2
v 4
l 11 9
l 13 6
l -1 8
l -8 8
l -12 9
l -8 8
l -16 7
l -11 7
l -10 3
l -9 -2
l -10 2
l -9 9
l -14 7
l -5 6
l -7 1
l -10 11
v 7
l -6 9
l -1 5
l -5 2
l -9 9
l -5 -8
l -8 -3
l -9 -8
l -9 -1
l -6 -3
l -6 -14
l 2 -18
v -9
l 3 -14
l -4 -15
l -2 -3
v -9
l -5 -1
l -2 -12
l -6 -17
l -6 -3
l -1 -7
l -5 -6
l 2 -10
l 12 -13
l 10 -2
l 7 -15
l 9 -8
v -11
l -7 -7
l -6 -16
v -13
l 2 -5
Z
M657 242
h 3
l 10 8
v 4
l 9 12
l 17 -3
l 8 -6
l 15 2
l 3 4
l 18 11
l 2 6
l 6 -1
l 4 4
l 9 2
l 4 4
v 10
l -10 12
l -12 3
l -4 4
l -14 -1
l -14 8
l -11 1
l -10 -1
l -5 -4
l -1 -23
l -3 -11
l -7 -2
l -5 5
l -18 -11
l -8 -9
l -2 -6
l 1 -8
l 8 -13
Z
M664 321
l 4 5
l -2 8
l 2 4
h -11
l -12 3
l -4 -4
l 1 -4
l 18 -11
Z
M585 213
l 1 1
l 4 -1
l 3 -5
l 4 7
l 5 1
l 9 2
l 9 -3
h 13
l 5 5
l -6 8
l -7 6
l -15 5
l -33 -10
l -15 2
h -21
l -7 -1
l 5 -12
l 5 -3
l -1 -8
h 9
l 3 3
Z
M590 261
l 16 3
l 14 13
l 2 7
l -6 9
l -9 4
h -11
l -5 -2
l -2 -6
l 1 -8
l -4 -6
l -7 -3
l -1 -8
Z
M173 17
l 7 2
l 7 6
l 3 7
v 8
l -8 11
l 1 16
l -4 1
l 1 4
l -16 12
l -7 -3
l -13 -1
l -10 -3
l -10 -10
l -14 -4
l -6 -9
l 1 -8
l 7 -5
l 3 -9
l 10 -4
l 16 -10
l 14 3
l 2 -4
Z
M54 58
l 5 1
l -6 12
l 2 6
l -16 7
l -7 15
l -7 -7
l 2 -12
l 13 -11
l 7 -4
l 1 -6
Z"/>
</g>
  <path class="districts-mesh" d="M392 182
l 5 3
l 8 -8
l 6 -2
l -2 -4
v -15
h 1
v 1
l 1 -1
h 2
M413 156
l 19 -1
l 3 11
l 7 4
l 5 9
l 4 1
v 5
l 11 4
l 12 1"/>
</svg>