<svg version="1.1" xmlns="http://www.w3.org/2000/svg" width="1000" height="657" viewBox="0 0 1000 657">  <path d="M808,21l1,-1l-1,2l1,1v2l-1,2v1h-1l-1,1l1,1v2l1,1l2,1l1,2v1l1,2v3l-1,2v1l-1,1v2l1,2h1l3,2l4,1l1,1l2,1l3,2l1,1l2,2l1,2v1l2,2v3h2v2l-1,1v1l-4,4l-1,1l-1,1l-1,1l-1,1l-1,2l-1,3l-1,1v2l-3,4l-1,1v15l1,4v3h1v5l1,2v2l1,1v8h1v5h1l2,1l1,1l1,1l2,1v5l1,1v5h2v3l1,2v3l1,1v3l1,1v2l1,1v1l1,1h1l1,1v1h1l1,2h1l4,2l1,1l1,1h1l2,1l1,1h1l1,1v-1h1l3,1v1h4l1,1l4,1h4l3,1l1,1h2l4,1h1l6,3v1l1,1l1,2v2l1,1l1,3h1l2,2v2l1,2l1,2v3l1,1l-2,5v3l2,2l7,3l3,1l3,4v1l4,2l4,2l2,2l2,1l1,1v1l1,1l1,1l2,2l1,1l1,2h1l1,3h-1l1,2l-1,3l-1,2l1,2v3l1,1l1,1l2,2l1,2l1,1l3,2l1,1h3l1,1l2,1l2,1l3,1l2,1l2,1l7,4l1,1v2l1,2h4l2,4v3l-1,1v4h1v5h1v1h1v2l1,1v1l1,1v2l-1,2v2l-1,1v1h-1v6l2,1v5l-1,1v2l-1,2v1h-1v4l-1,2v8l-2,2h-3l-1,1l-3,2h-1v1l-2,1h-1l-2,2l-1,2l-3,5v8l-2,2l-1,3v3l-1,2l1,1v9l-2,1l-2,1l-1,1h-2l-2,1l-2,1l-1,1v2h-1l-2,3l-2,3l-10,1l-2,-1h-3v1l-1,1h-4l-1,2v2h-1v1l-1,1h-1l-1,1l-2,2h-1l-1,2h-3l-5,2h-2l-1,1h-8v-1h-7l-3,1l-5,3l-2,1l-4,2l-4,-1l-3,-1l-2,1h-2l-2,1h-2l-2,1l-1,1v6l-2,2v1l-1,2v5l-1,2l1,2l-1,2l-1,4l-2,4l-1,2v3l1,1l6,7l4,6h3l5,3l2,2l1,4l3,8v6l1,1v4l-1,1v5l-1,1v2l1,4v1h-1v3l-1,2l-1,2l-1,1l-1,1h-2l-1,1l-1,1v2l-1,1l-1,1l-1,1l-1,1l-1,2l-1,2l-2,1v1l-1,1l-2,2l-1,1v4l1,1l-1,6l-1,2l-1,6l1,1v5l-1,3v1l-1,1l-1,1l-5,2l-3,3l-2,1h-1l-1,-1h-1l-4,1h-4l-6,2l-7,4l-1,2l-2,5h-1l-2,2l-1,2v2l1,1h1l4,9v1l-1,3v7l2,6l-8,5h-1l-1,-1h-2l-1,1v1h-2v-2h-1v1h-2l-1,-3v-2h-2l-3,-1l1,-4l-2,-1l1,-3v-1h-6l-1,-1h-1l-1,-1v-2l-1,-1v-1l-1,-1l-1,-1h-2l-1,-1v-7h-1l-1,-1h-2v-1h-5l-1,-1l-1,-1v-5h-1l-1,-1h-1l-1,-1l-5,-3h-11v1h-8l-4,1h-20l-1,1h-12l-3,1h-31v1h-32v1h-15v1h-56l-2,1h-13l-2,1h-116v1h-94l-1,-1h-42l-2,-1h-14l-3,-1h-34v-1h-11l-12,-1h-26v-1h-28l-6,-1h-4l1,-5v-1l-1,-1l-1,-1h1l-1,-3v-2l-1,-1h-1v-1h-1v-1h-5v-1h-1v-1h-1l-1,-2v-1l-5,-5h-1l1,-8l7,-4v-11l-1,-7l6,-4l-1,-3l-1,-1l-1,-1l-2,-7l2,-7l-4,-2l-1,-1l-1,-1v-2l2,-3v-2l-1,-1h-1v-2h-1l-1,-1v-1l2,-3l2,-3h-1v-7h-1v-1l-1,-1v-5l1,-1h5v-3h-2v-1h-4l-1,1h-3l-1,-1v-1h-1v-4h1v-1l1,-1v-6l-1,-1v-1l1,-2v-1h-1l-1,-1l3,-3v3h-1v1h1v1h1v-1h2l2,-1v-2h1v-1h-1v-2l-1,-1v-1h-6v-1h-1v-1h-1v-1h-2v-4l2,-1l2,-1v-3h-1v-3l1,-3v-5l1,-1v-4l-1,-1h-1l-1,-1v1h-4v-1h-2l-1,-1h-3l-1,-1v-3h1l2,-3v-6l-1,-1h-3l-1,4l-1,2l-4,-1l-2,-1l-1,-9h1v-1h1v-1l-1,-1l-1,-1l-1,-1l-3,-5l3,-4v-1l-3,-7v-1l4,-3h3l1,-1v-1l-1,-1v-1h-1l-1,-1h-2v-2l2,-3h1v-1h1v-3l2,-4v-3h-1v-1h-3v-1h-1v-1h-1v-6h-1v-1l-1,-1h-1l-2,-2l-1,-3v-2h-1l3,-5v-3h-1l1,-2l1,-1v-2l1,-1v-1l-1,-1h-2l-1,-1h-1l-2,1h-2l-1,-1v-1l1,-3v-2h-3l-1,2l-1,1h-2v-1l3,-5v-1l-1,-1l-1,-1l-3,-1v1h-2l-2,-7v-1l1,-1v-8h-3v-1h-1l-1,-1h-1v-3h-1l-2,-2l-1,-2v-7l-1,-1v-2h1l3,-1v-7l-1,-1l-1,-1l-1,-1l-2,-4v-4l-1,-2l-2,-1l-2,-1l-2,-2v-4l1,-1v-3l3,-8l1,-2h1v-4l-4,-6v-1h-7v-1l-1,1h-2v-4h-1v-3l1,-1v-1l-2,-5v-1l2,-2l-3,-8h-3v-1l2,-1l-3,-7h-3l-1,-3h-2h1v-1l-2,-1v-1h-1l-1,-1v-1h-2l-2,-3v-1l-1,-3v-3l1,-1l1,-1h-1v-3l1,-1l1,-1h2v-2h1v-2l1,-1h-1v-1h1v-1h1v-1h1v-2l1,-1l1,1v1l1,-1h1v-3h1v-1h1l-1,-1v-2l1,-1v-3h2v-1l-2,-1v-1h1v-1l-1,-2l1,-1l2,-2h1v-1l1,-1l-1,-1h1l1,-1v-1l-1,-1l-1,-1l2,-5l-1,-6v-2l-1,-1l1,-1l3,-1l3,-2h2v-2l1,-2v-1h-1v-1l3,-5v-2l-1,-2l-2,-2v-7l-1,-4v-3h-6l-6,-1l-1,-1l-1,-1v-1l1,-1h2v-3l-1,-1l-4,-1v-1l1,-1l-1,-3l1,-1h1l3,1h1l2,-1v-5l1,-4v-1l1,-6v-2h-1l-1,-1l-1,-2l-1,-1l-2,-1v-3h-1l-3,-2l-1,-1v-2l1,-1l2,-1v-5l-1,-1h-1v-1l13,1h24l19,1h22l6,1h1l16,1h35l28,1l10,1h39l28,1h68l28,1l40,1h173l31,-1h18l6,-1h74l20,-1h39l21,-1h7Z"/><g class="districts"><path data-race-id="IA01" d="M481,25h105l31,-1h18l6,-1h74l20,-1h39l21,-1h13l1,-1l-1,2l1,1v2l-1,2v1h-1l-1,1l1,1v2l1,1l2,1l1,2v1l1,2v3l-1,2v1l-1,1v2l1,2h1l3,2l4,1l1,1l2,1l3,2l1,1l2,2l1,2v1l2,2v3h2v2l-1,1v1l-4,4l-1,1l-1,1l-1,1l-1,1l-1,2l-1,3l-1,1v2l-3,4l-1,1v15l1,4v3h1v5l1,2v2l1,1v8h1v5h1l2,1l1,1l1,1l2,1v5l1,1v5h2v3l1,2v3l1,1v3l1,1v2l1,1v1l1,1h1l1,1v1h1l1,2h1l4,2l1,1l1,1h1l2,1l1,1h1l1,1v-1h1l3,1v1h4l1,1l4,1h4l3,1l1,1h2l4,1h1l6,3v1l1,1l1,2v2l1,1l1,3h1l2,2v2l1,2l1,2v3l1,1l-2,5v3l2,2l7,3l3,1l3,4v1l4,2l4,2l2,2l2,1l1,1v1l1,1l1,1l2,2l1,1l1,2h1l1,3h-1l1,2l-1,3l-1,2l1,2v3l1,1l1,1l2,2l1,2l1,1l3,2l1,1h3l1,1l2,1l2,1l3,1l2,1l2,1l7,4l1,1v2l1,2h4l2,4v3l-1,1v4h1v5h1v1h1h-18l-52,3l-40,1v17l-41,1h-27v18h-57l-12,1v39l2,13v17l-17,1l-52,1h-64l-5,1v-19l-2,-4v-48v1h-68v-69h67v-17l35,-1v-34h-3v-17l-1,-17v-52l27,-1h41v-35l-1,-3v-23h-37l-31,1h-35l-33,1v-9h-68Z"/><path data-race-id="IA02" d="M403,539v-33l1,-18h102v-87h-3v-52h85v-1v48l2,4v19l5,-1h64l52,-1l17,-1v-17l-2,-13v-39l12,-1h57v-18h27l41,-1v-17l40,-1l52,-3h18v2l1,1v1l1,1v2l-1,2v2l-1,1v1h-1v6l2,1v5l-1,1v2l-1,2v1h-1v4l-1,2v8l-2,2h-3l-1,1l-3,2h-1v1l-2,1h-1l-2,2l-1,2l-3,5v8l-2,2l-1,3v3l-1,2l1,1v9l-2,1l-2,1l-1,1h-2l-2,1l-2,1l-1,1v2h-1l-2,3l-2,3l-10,1l-2,-1h-3v1l-1,1h-4l-1,2v2h-1v1l-1,1h-1l-1,1l-2,2h-1l-1,2h-3l-5,2h-2l-1,1h-8v-1h-7l-3,1l-5,3l-2,1l-4,2l-4,-1l-3,-1l-2,1h-2l-2,1h-2l-2,1l-1,1v6l-2,2v1l-1,2v5l-1,2l1,2l-1,2l-1,4l-2,4l-1,2v3l1,1l6,7l4,6h3l5,3l2,2l1,4l3,8l-1,1l1,1v4l1,1v4l-1,1v5l-1,1v2l1,4v1h-1v3l-1,2l-1,2l-1,1l-1,1h-2l-1,1l-1,1v2l-1,1l-1,1l-1,1l-1,1l-1,2l-1,2l-2,1v1l-1,1l-2,2l-1,1v4l1,1l-1,6l-1,2l-1,6l1,1v5l-1,3v1l-1,1l-1,1l-5,2l-3,3l-2,1h-1l-1,-1h-1l-4,1h-4l-6,2l-7,4l-1,2l-2,5h-1l-2,2l-1,2v2l1,1h1l4,9v1l-1,3v16l-6,2h-1l-1,-1h-2l-1,1v1h-2v-2h-1v1h-2l-1,-3v-2h-2l-3,-1l1,-4l-2,-1l1,-3v-1h-6l-1,-1h-1l-1,-1v-2l-1,-1v-1l-1,-1l-1,-1h-2l-1,-1v-7h-1l-1,-1h-2v-1h-5l-1,-1l-1,-1v-5h-1l-1,-1h-1l-1,-1l-5,-3h-11v1h-8l-4,1h-20l-1,1h-12l-3,1h-31v1h-32v1h-15v1h-56l-2,1h-13l-2,1h-116v1h-14Z"/><path data-race-id="IA03" d="M108,416l2,-3l45,2l29,1l51,1l17,1h50v-19h-6v-52l18,1h120l17,1h52v52h3v87h-102l-1,18v98h-80l-1,-1h-42l-2,-1h-14l-3,-1h-34v-1h-11l-12,-1h-26v-1h-28l-6,-1h-4l1,-5v-1l-1,-1l-1,-1h1l-1,-3v-2l-1,-1h-1v-1h-1v-1h-5v-1h-1v-1h-1l-1,-2v-1l-5,-5h-1l1,-8l7,-4v-11l-1,-7l6,-4l-1,-3l-1,-1l-1,-1l-2,-7l2,-7l-4,-2l-1,-1l-1,-1v-2l2,-3v-2l-1,-1h-1v-2h-1l-1,-1v-1l2,-3l2,-3h-1v-7h-1v-1l-1,-1v-5l1,-1h5v-3h-2v-1h-4l-1,1h-3l-1,-1v-1h-1v-4h1v-1l1,-1v-6l-1,-1v-1l1,-2v-1h-1l-1,-1l3,-3v3h-1v1h1v1h1v-1h2l2,-1v-2h1v-1h-1v-2l-1,-1v-1h-6v-1h-1v-1h-1v-1h-2v-4l2,-1l2,-1v-3h-1v-3l1,-3v-5l1,-1v-4l-1,-1h-1l-1,-1v1h-4v-1h-2l-1,-1h-3l-1,-1v-3Z"/><path data-race-id="IA04" d="M25,167v-2l1,-1l1,-1h-1v-3l1,-1l1,-1h2v-2h1v-2l1,-1h-1v-1h1v-1h1v-1h1v-2l1,-1l1,1v1l1,-1h1v-3h1v-1h1l-1,-1v-2l1,-1v-3h2v-1l-2,-1v-1h1v-1l-1,-2l1,-1l2,-2h1v-1l1,-1l-1,-1h1l1,-1v-1l-1,-1l-1,-1l2,-5l-1,-6v-2l-1,-1l1,-1l3,-1l3,-2h2v-2l1,-2v-1h-1v-1l3,-5v-2l-1,-2l-2,-2v-7l-1,-4v-3h-6l-6,-1l-1,-1l-1,-1v-1l1,-1h2v-3l-1,-1l-4,-1v-1l1,-1l-1,-3l1,-1h1l3,1h1l2,-1v-5l1,-4v-1l1,-6v-2h-1l-1,-1l-1,-2l-1,-1l-2,-1v-3h-1l-3,-2l-1,-1v-2l1,-1l2,-1v-5l-1,-1h-1v-1l13,1h24l19,1h22l6,1h1l16,1h35l28,1l10,1h39l28,1h68l28,1l40,1h68v48h68v9l33,-1h35l31,-1h37v23l1,3v35h-41l-27,1v52l1,17v17h3v34l-35,1v17h-67v69h-69l-17,-1h-120l-18,-1v52h6v19h-50l-17,-1l-51,-1l-29,-1l-45,-2v-6l-1,-1h-3l-1,4l-1,2l-4,-1l-2,-1l-1,-9h1v-1h1v-1l-1,-1l-1,-1l-1,-1l-3,-5l3,-4v-1l-3,-7v-1l4,-3h3l1,-1v-1l-1,-1v-1h-1l-1,-1h-2v-2l2,-3h1v-1h1v-3l2,-4v-3h-1v-1h-3v-1h-1v-1h-1v-6h-1v-1l-1,-1h-1l-2,-2l-1,-3v-2h-1l3,-5v-3h-1l1,-2l1,-1v-2l1,-1v-1l-1,-1h-2l-1,-1h-1l-2,1h-2l-1,-1v-1l1,-3v-2h-3l-1,2l-1,1h-2v-1l3,-5v-1l-1,-1l-1,-1l-3,-1v1h-2l-2,-7v-1l1,-1v-8h-3v-1h-1l-1,-1h-1v-3h-1l-2,-2l-1,-2v-7l-1,-1v-2h1l3,-1v-7l-1,-1l-1,-1l-1,-1l-2,-4v-4l-1,-2l-2,-1l-2,-1l-2,-2v-4l1,-1v-3l3,-8l1,-2h1v-4l-4,-6v-1h-7v-1l-1,1h-2v-4h-1v-3l1,-1v-1l-2,-5v-1l2,-2l-3,-8h-3v-1l2,-1l-3,-7h-3l-1,-3h-2h1v-1l-2,-1v-1h-1l-1,-1v-1h-2l-2,-3v-1l-1,-3Z"/></g>  <path class="districts-mesh" d="M973,306h-18l-52,3l-40,1v17l-41,1h-27v18h-57l-12,1v39l2,13v17l-17,1l-52,1h-64l-5,1v-19l-2,-4v-48v1h-68v-69h67v-17l35,-1v-34h-3v-17l-1,-17v-52l27,-1h41v-35l-1,-3v-23h-37l-31,1h-35l-33,1v-9h-68v-48M403,604v-98l1,-18h102v-87h-3v-52h17M110,413l45,2l29,1l51,1l17,1h50v-19h-6v-52l18,1h120l17,1h52"/></svg>