<svg version="1.1" xmlns="http://www.w3.org/2000/svg" width="1000" height="657" viewBox="0 0 1000 657">
  <path d="M808 21
l 1 -1
l -1 2
l 1 1
v 2
l -1 2
v 1
h -1
l -1 1
l 1 1
v 2
l 1 1
l 2 1
l 1 2
v 1
l 1 2
v 3
l -1 2
v 1
l -1 1
v 2
l 1 2
h 1
l 3 2
l 4 1
l 1 1
l 2 1
l 3 2
l 1 1
l 2 2
l 1 2
v 1
l 2 2
v 3
h 2
v 2
l -1 1
v 1
l -4 4
l -1 1
l -1 1
l -1 1
l -1 1
l -1 2
l -1 3
l -1 1
v 2
l -3 4
l -1 1
v 15
l 1 4
v 3
h 1
v 5
l 1 2
v 2
l 1 1
v 8
h 1
v 5
h 1
l 2 1
l 1 1
l 1 1
l 2 1
v 5
l 1 1
v 5
h 2
v 3
l 1 2
v 3
l 1 1
v 3
l 1 1
v 2
l 1 1
v 1
l 1 1
h 1
l 1 1
v 1
h 1
l 1 2
h 1
l 4 2
l 1 1
l 1 1
h 1
l 2 1
l 1 1
h 1
l 1 1
v -1
h 1
l 3 1
v 1
h 4
l 1 1
l 4 1
h 4
l 3 1
l 1 1
h 2
l 4 1
h 1
l 6 3
v 1
l 1 1
l 1 2
v 2
l 1 1
l 1 3
h 1
l 2 2
v 2
l 1 2
l 1 2
v 3
l 1 1
l -2 5
v 3
l 2 2
l 7 3
l 3 1
l 3 4
v 1
l 4 2
l 4 2
l 2 2
l 2 1
l 1 1
v 1
l 1 1
l 1 1
l 2 2
l 1 1
l 1 2
h 1
l 1 3
h -1
l 1 2
l -1 3
l -1 2
l 1 2
v 3
l 1 1
l 1 1
l 2 2
l 1 2
l 1 1
l 3 2
l 1 1
h 3
l 1 1
l 2 1
l 2 1
l 3 1
l 2 1
l 2 1
l 7 4
l 1 1
v 2
l 1 2
h 4
l 2 4
v 3
l -1 1
v 4
h 1
v 5
h 1
v 1
h 1
v 2
l 1 1
v 1
l 1 1
v 2
l -1 2
v 2
l -1 1
v 1
h -1
v 6
l 2 1
v 5
l -1 1
v 2
l -1 2
v 1
h -1
v 4
l -1 2
v 8
l -2 2
h -3
l -1 1
l -3 2
h -1
v 1
l -2 1
h -1
l -2 2
l -1 2
l -3 5
v 8
l -2 2
l -1 3
v 3
l -1 2
l 1 1
v 9
l -2 1
l -2 1
l -1 1
h -2
l -2 1
l -2 1
l -1 1
v 2
h -1
l -2 3
l -2 3
l -10 1
l -2 -1
h -3
v 1
l -1 1
h -4
l -1 2
v 2
h -1
v 1
l -1 1
h -1
l -1 1
l -2 2
h -1
l -1 2
h -3
l -5 2
h -2
l -1 1
h -8
v -1
h -7
l -3 1
l -5 3
l -2 1
l -4 2
l -4 -1
l -3 -1
l -2 1
h -2
l -2 1
h -2
l -2 1
l -1 1
v 6
l -2 2
v 1
l -1 2
v 5
l -1 2
l 1 2
l -1 2
l -1 4
l -2 4
l -1 2
v 3
l 1 1
l 6 7
l 4 6
h 3
l 5 3
l 2 2
l 1 4
l 3 8
v 6
l 1 1
v 4
l -1 1
v 5
l -1 1
v 2
l 1 4
v 1
h -1
v 3
l -1 2
l -1 2
l -1 1
l -1 1
h -2
l -1 1
l -1 1
v 2
l -1 1
l -1 1
l -1 1
l -1 1
l -1 2
l -1 2
l -2 1
v 1
l -1 1
l -2 2
l -1 1
v 4
l 1 1
l -1 6
l -1 2
l -1 6
l 1 1
v 5
l -1 3
v 1
l -1 1
l -1 1
l -5 2
l -3 3
l -2 1
h -1
l -1 -1
h -1
l -4 1
h -4
l -6 2
l -7 4
l -1 2
l -2 5
h -1
l -2 2
l -1 2
v 2
l 1 1
h 1
l 4 9
v 1
l -1 3
v 7
l 2 6
l -8 5
h -1
l -1 -1
h -2
l -1 1
v 1
h -2
v -2
h -1
v 1
h -2
l -1 -3
v -2
h -2
l -3 -1
l 1 -4
l -2 -1
l 1 -3
v -1
h -6
l -1 -1
h -1
l -1 -1
v -2
l -1 -1
v -1
l -1 -1
l -1 -1
h -2
l -1 -1
v -7
h -1
l -1 -1
h -2
v -1
h -5
l -1 -1
l -1 -1
v -5
h -1
l -1 -1
h -1
l -1 -1
l -5 -3
h -11
v 1
h -8
l -4 1
h -20
l -1 1
h -12
l -3 1
h -31
v 1
h -32
v 1
h -15
v 1
h -56
l -2 1
h -13
l -2 1
h -116
v 1
h -94
l -1 -1
h -42
l -2 -1
h -14
l -3 -1
h -34
v -1
h -11
l -12 -1
h -26
v -1
h -28
l -6 -1
h -4
l 1 -5
v -1
l -1 -1
l -1 -1
h 1
l -1 -3
v -2
l -1 -1
h -1
v -1
h -1
v -1
h -5
v -1
h -1
v -1
h -1
l -1 -2
v -1
l -5 -5
h -1
l 1 -8
l 7 -4
v -11
l -1 -7
l 6 -4
l -1 -3
l -1 -1
l -1 -1
l -2 -7
l 2 -7
l -4 -2
l -1 -1
l -1 -1
v -2
l 2 -3
v -2
l -1 -1
h -1
v -2
h -1
l -1 -1
v -1
l 2 -3
l 2 -3
h -1
v -7
h -1
v -1
l -1 -1
v -5
l 1 -1
h 5
v -3
h -2
v -1
h -4
l -1 1
h -3
l -1 -1
v -1
h -1
v -4
h 1
v -1
l 1 -1
v -6
l -1 -1
v -1
l 1 -2
v -1
h -1
l -1 -1
l 3 -3
v 3
h -1
v 1
h 1
v 1
h 1
v -1
h 2
l 2 -1
v -2
h 1
v -1
h -1
v -2
l -1 -1
v -1
h -6
v -1
h -1
v -1
h -1
v -1
h -2
v -4
l 2 -1
l 2 -1
v -3
h -1
v -3
l 1 -3
v -5
l 1 -1
v -4
l -1 -1
h -1
l -1 -1
v 1
h -4
v -1
h -2
l -1 -1
h -3
l -1 -1
v -3
h 1
l 2 -3
v -6
l -1 -1
h -3
l -1 4
l -1 2
l -4 -1
l -2 -1
l -1 -9
h 1
v -1
h 1
v -1
l -1 -1
l -1 -1
l -1 -1
l -3 -5
l 3 -4
v -1
l -3 -7
v -1
l 4 -3
h 3
l 1 -1
v -1
l -1 -1
v -1
h -1
l -1 -1
h -2
v -2
l 2 -3
h 1
v -1
h 1
v -3
l 2 -4
v -3
h -1
v -1
h -3
v -1
h -1
v -1
h -1
v -6
h -1
v -1
l -1 -1
h -1
l -2 -2
l -1 -3
v -2
h -1
l 3 -5
v -3
h -1
l 1 -2
l 1 -1
v -2
l 1 -1
v -1
l -1 -1
h -2
l -1 -1
h -1
l -2 1
h -2
l -1 -1
v -1
l 1 -3
v -2
h -3
l -1 2
l -1 1
h -2
v -1
l 3 -5
v -1
l -1 -1
l -1 -1
l -3 -1
v 1
h -2
l -2 -7
v -1
l 1 -1
v -8
h -3
v -1
h -1
l -1 -1
h -1
v -3
h -1
l -2 -2
l -1 -2
v -7
l -1 -1
v -2
h 1
l 3 -1
v -7
l -1 -1
l -1 -1
l -1 -1
l -2 -4
v -4
l -1 -2
l -2 -1
l -2 -1
l -2 -2
v -4
l 1 -1
v -3
l 3 -8
l 1 -2
h 1
v -4
l -4 -6
v -1
h -7
v -1
l -1 1
h -2
v -4
h -1
v -3
l 1 -1
v -1
l -2 -5
v -1
l 2 -2
l -3 -8
h -3
v -1
l 2 -1
l -3 -7
h -3
l -1 -3
h -2
h 1
v -1
l -2 -1
v -1
h -1
l -1 -1
v -1
h -2
l -2 -3
v -1
l -1 -3
v -3
l 1 -1
l 1 -1
h -1
v -3
l 1 -1
l 1 -1
h 2
v -2
h 1
v -2
l 1 -1
h -1
v -1
h 1
v -1
h 1
v -1
h 1
v -2
l 1 -1
l 1 1
v 1
l 1 -1
h 1
v -3
h 1
v -1
h 1
l -1 -1
v -2
l 1 -1
v -3
h 2
v -1
l -2 -1
v -1
h 1
v -1
l -1 -2
l 1 -1
l 2 -2
h 1
v -1
l 1 -1
l -1 -1
h 1
l 1 -1
v -1
l -1 -1
l -1 -1
l 2 -5
l -1 -6
v -2
l -1 -1
l 1 -1
l 3 -1
l 3 -2
h 2
v -2
l 1 -2
v -1
h -1
v -1
l 3 -5
v -2
l -1 -2
l -2 -2
v -7
l -1 -4
v -3
h -6
l -6 -1
l -1 -1
l -1 -1
v -1
l 1 -1
h 2
v -3
l -1 -1
l -4 -1
v -1
l 1 -1
l -1 -3
l 1 -1
h 1
l 3 1
h 1
l 2 -1
v -5
l 1 -4
v -1
l 1 -6
v -2
h -1
l -1 -1
l -1 -2
l -1 -1
l -2 -1
v -3
h -1
l -3 -2
l -1 -1
v -2
l 1 -1
l 2 -1
v -5
l -1 -1
h -1
v -1
l 13 1
h 24
l 19 1
h 22
l 6 1
h 1
l 16 1
h 35
l 28 1
l 10 1
h 39
l 28 1
h 68
l 28 1
l 40 1
h 173
l 31 -1
h 18
l 6 -1
h 74
l 20 -1
h 39
l 21 -1
h 7
Z"/>
<g class="districts">
<path data-race-id="IA01" d="M481 25
h 105
l 31 -1
h 18
l 6 -1
h 74
l 20 -1
h 39
l 21 -1
h 13
l 1 -1
l -1 2
l 1 1
v 2
l -1 2
v 1
h -1
l -1 1
l 1 1
v 2
l 1 1
l 2 1
l 1 2
v 1
l 1 2
v 3
l -1 2
v 1
l -1 1
v 2
l 1 2
h 1
l 3 2
l 4 1
l 1 1
l 2 1
l 3 2
l 1 1
l 2 2
l 1 2
v 1
l 2 2
v 3
h 2
v 2
l -1 1
v 1
l -4 4
l -1 1
l -1 1
l -1 1
l -1 1
l -1 2
l -1 3
l -1 1
v 2
l -3 4
l -1 1
v 15
l 1 4
v 3
h 1
v 5
l 1 2
v 2
l 1 1
v 8
h 1
v 5
h 1
l 2 1
l 1 1
l 1 1
l 2 1
v 5
l 1 1
v 5
h 2
v 3
l 1 2
v 3
l 1 1
v 3
l 1 1
v 2
l 1 1
v 1
l 1 1
h 1
l 1 1
v 1
h 1
l 1 2
h 1
l 4 2
l 1 1
l 1 1
h 1
l 2 1
l 1 1
h 1
l 1 1
v -1
h 1
l 3 1
v 1
h 4
l 1 1
l 4 1
h 4
l 3 1
l 1 1
h 2
l 4 1
h 1
l 6 3
v 1
l 1 1
l 1 2
v 2
l 1 1
l 1 3
h 1
l 2 2
v 2
l 1 2
l 1 2
v 3
l 1 1
l -2 5
v 3
l 2 2
l 7 3
l 3 1
l 3 4
v 1
l 4 2
l 4 2
l 2 2
l 2 1
l 1 1
v 1
l 1 1
l 1 1
l 2 2
l 1 1
l 1 2
h 1
l 1 3
h -1
l 1 2
l -1 3
l -1 2
l 1 2
v 3
l 1 1
l 1 1
l 2 2
l 1 2
l 1 1
l 3 2
l 1 1
h 3
l 1 1
l 2 1
l 2 1
l 3 1
l 2 1
l 2 1
l 7 4
l 1 1
v 2
l 1 2
h 4
l 2 4
v 3
l -1 1
v 4
h 1
v 5
h 1
v 1
h 1
h -18
l -52 3
l -40 1
v 17
l -41 1
h -27
v 18
h -57
l -12 1
v 39
l 2 13
v 17
l -17 1
l -52 1
h -64
l -5 1
v -19
l -2 -4
v -48
v 1
h -68
v -69
h 67
v -17
l 35 -1
v -34
h -3
v -17
l -1 -17
v -52
l 27 -1
h 41
v -35
l -1 -3
v -23
h -37
l -31 1
h -35
l -33 1
v -9
h -68
Z"/>
<path data-race-id="IA02" d="M403 539
v -33
l 1 -18
h 102
v -87
h -3
v -52
h 85
v -1
v 48
l 2 4
v 19
l 5 -1
h 64
l 52 -1
l 17 -1
v -17
l -2 -13
v -39
l 12 -1
h 57
v -18
h 27
l 41 -1
v -17
l 40 -1
l 52 -3
h 18
v 2
l 1 1
v 1
l 1 1
v 2
l -1 2
v 2
l -1 1
v 1
h -1
v 6
l 2 1
v 5
l -1 1
v 2
l -1 2
v 1
h -1
v 4
l -1 2
v 8
l -2 2
h -3
l -1 1
l -3 2
h -1
v 1
l -2 1
h -1
l -2 2
l -1 2
l -3 5
v 8
l -2 2
l -1 3
v 3
l -1 2
l 1 1
v 9
l -2 1
l -2 1
l -1 1
h -2
l -2 1
l -2 1
l -1 1
v 2
h -1
l -2 3
l -2 3
l -10 1
l -2 -1
h -3
v 1
l -1 1
h -4
l -1 2
v 2
h -1
v 1
l -1 1
h -1
l -1 1
l -2 2
h -1
l -1 2
h -3
l -5 2
h -2
l -1 1
h -8
v -1
h -7
l -3 1
l -5 3
l -2 1
l -4 2
l -4 -1
l -3 -1
l -2 1
h -2
l -2 1
h -2
l -2 1
l -1 1
v 6
l -2 2
v 1
l -1 2
v 5
l -1 2
l 1 2
l -1 2
l -1 4
l -2 4
l -1 2
v 3
l 1 1
l 6 7
l 4 6
h 3
l 5 3
l 2 2
l 1 4
l 3 8
l -1 1
l 1 1
v 4
l 1 1
v 4
l -1 1
v 5
l -1 1
v 2
l 1 4
v 1
h -1
v 3
l -1 2
l -1 2
l -1 1
l -1 1
h -2
l -1 1
l -1 1
v 2
l -1 1
l -1 1
l -1 1
l -1 1
l -1 2
l -1 2
l -2 1
v 1
l -1 1
l -2 2
l -1 1
v 4
l 1 1
l -1 6
l -1 2
l -1 6
l 1 1
v 5
l -1 3
v 1
l -1 1
l -1 1
l -5 2
l -3 3
l -2 1
h -1
l -1 -1
h -1
l -4 1
h -4
l -6 2
l -7 4
l -1 2
l -2 5
h -1
l -2 2
l -1 2
v 2
l 1 1
h 1
l 4 9
v 1
l -1 3
v 16
l -6 2
h -1
l -1 -1
h -2
l -1 1
v 1
h -2
v -2
h -1
v 1
h -2
l -1 -3
v -2
h -2
l -3 -1
l 1 -4
l -2 -1
l 1 -3
v -1
h -6
l -1 -1
h -1
l -1 -1
v -2
l -1 -1
v -1
l -1 -1
l -1 -1
h -2
l -1 -1
v -7
h -1
l -1 -1
h -2
v -1
h -5
l -1 -1
l -1 -1
v -5
h -1
l -1 -1
h -1
l -1 -1
l -5 -3
h -11
v 1
h -8
l -4 1
h -20
l -1 1
h -12
l -3 1
h -31
v 1
h -32
v 1
h -15
v 1
h -56
l -2 1
h -13
l -2 1
h -116
v 1
h -14
Z"/>
<path data-race-id="IA03" d="M108 416
l 2 -3
l 45 2
l 29 1
l 51 1
l 17 1
h 50
v -19
h -6
v -52
l 18 1
h 120
l 17 1
h 52
v 52
h 3
v 87
h -102
l -1 18
v 98
h -80
l -1 -1
h -42
l -2 -1
h -14
l -3 -1
h -34
v -1
h -11
l -12 -1
h -26
v -1
h -28
l -6 -1
h -4
l 1 -5
v -1
l -1 -1
l -1 -1
h 1
l -1 -3
v -2
l -1 -1
h -1
v -1
h -1
v -1
h -5
v -1
h -1
v -1
h -1
l -1 -2
v -1
l -5 -5
h -1
l 1 -8
l 7 -4
v -11
l -1 -7
l 6 -4
l -1 -3
l -1 -1
l -1 -1
l -2 -7
l 2 -7
l -4 -2
l -1 -1
l -1 -1
v -2
l 2 -3
v -2
l -1 -1
h -1
v -2
h -1
l -1 -1
v -1
l 2 -3
l 2 -3
h -1
v -7
h -1
v -1
l -1 -1
v -5
l 1 -1
h 5
v -3
h -2
v -1
h -4
l -1 1
h -3
l -1 -1
v -1
h -1
v -4
h 1
v -1
l 1 -1
v -6
l -1 -1
v -1
l 1 -2
v -1
h -1
l -1 -1
l 3 -3
v 3
h -1
v 1
h 1
v 1
h 1
v -1
h 2
l 2 -1
v -2
h 1
v -1
h -1
v -2
l -1 -1
v -1
h -6
v -1
h -1
v -1
h -1
v -1
h -2
v -4
l 2 -1
l 2 -1
v -3
h -1
v -3
l 1 -3
v -5
l 1 -1
v -4
l -1 -1
h -1
l -1 -1
v 1
h -4
v -1
h -2
l -1 -1
h -3
l -1 -1
v -3
Z"/>
<path data-race-id="IA04" d="M25 167
v -2
l 1 -1
l 1 -1
h -1
v -3
l 1 -1
l 1 -1
h 2
v -2
h 1
v -2
l 1 -1
h -1
v -1
h 1
v -1
h 1
v -1
h 1
v -2
l 1 -1
l 1 1
v 1
l 1 -1
h 1
v -3
h 1
v -1
h 1
l -1 -1
v -2
l 1 -1
v -3
h 2
v -1
l -2 -1
v -1
h 1
v -1
l -1 -2
l 1 -1
l 2 -2
h 1
v -1
l 1 -1
l -1 -1
h 1
l 1 -1
v -1
l -1 -1
l -1 -1
l 2 -5
l -1 -6
v -2
l -1 -1
l 1 -1
l 3 -1
l 3 -2
h 2
v -2
l 1 -2
v -1
h -1
v -1
l 3 -5
v -2
l -1 -2
l -2 -2
v -7
l -1 -4
v -3
h -6
l -6 -1
l -1 -1
l -1 -1
v -1
l 1 -1
h 2
v -3
l -1 -1
l -4 -1
v -1
l 1 -1
l -1 -3
l 1 -1
h 1
l 3 1
h 1
l 2 -1
v -5
l 1 -4
v -1
l 1 -6
v -2
h -1
l -1 -1
l -1 -2
l -1 -1
l -2 -1
v -3
h -1
l -3 -2
l -1 -1
v -2
l 1 -1
l 2 -1
v -5
l -1 -1
h -1
v -1
l 13 1
h 24
l 19 1
h 22
l 6 1
h 1
l 16 1
h 35
l 28 1
l 10 1
h 39
l 28 1
h 68
l 28 1
l 40 1
h 68
v 48
h 68
v 9
l 33 -1
h 35
l 31 -1
h 37
v 23
l 1 3
v 35
h -41
l -27 1
v 52
l 1 17
v 17
h 3
v 34
l -35 1
v 17
h -67
v 69
h -69
l -17 -1
h -120
l -18 -1
v 52
h 6
v 19
h -50
l -17 -1
l -51 -1
l -29 -1
l -45 -2
v -6
l -1 -1
h -3
l -1 4
l -1 2
l -4 -1
l -2 -1
l -1 -9
h 1
v -1
h 1
v -1
l -1 -1
l -1 -1
l -1 -1
l -3 -5
l 3 -4
v -1
l -3 -7
v -1
l 4 -3
h 3
l 1 -1
v -1
l -1 -1
v -1
h -1
l -1 -1
h -2
v -2
l 2 -3
h 1
v -1
h 1
v -3
l 2 -4
v -3
h -1
v -1
h -3
v -1
h -1
v -1
h -1
v -6
h -1
v -1
l -1 -1
h -1
l -2 -2
l -1 -3
v -2
h -1
l 3 -5
v -3
h -1
l 1 -2
l 1 -1
v -2
l 1 -1
v -1
l -1 -1
h -2
l -1 -1
h -1
l -2 1
h -2
l -1 -1
v -1
l 1 -3
v -2
h -3
l -1 2
l -1 1
h -2
v -1
l 3 -5
v -1
l -1 -1
l -1 -1
l -3 -1
v 1
h -2
l -2 -7
v -1
l 1 -1
v -8
h -3
v -1
h -1
l -1 -1
h -1
v -3
h -1
l -2 -2
l -1 -2
v -7
l -1 -1
v -2
h 1
l 3 -1
v -7
l -1 -1
l -1 -1
l -1 -1
l -2 -4
v -4
l -1 -2
l -2 -1
l -2 -1
l -2 -2
v -4
l 1 -1
v -3
l 3 -8
l 1 -2
h 1
v -4
l -4 -6
v -1
h -7
v -1
l -1 1
h -2
v -4
h -1
v -3
l 1 -1
v -1
l -2 -5
v -1
l 2 -2
l -3 -8
h -3
v -1
l 2 -1
l -3 -7
h -3
l -1 -3
h -2
h 1
v -1
l -2 -1
v -1
h -1
l -1 -1
v -1
h -2
l -2 -3
v -1
l -1 -3
Z"/>
</g>
  <path class="districts-mesh" d="M973 306
h -18
l -52 3
l -40 1
v 17
l -41 1
h -27
v 18
h -57
l -12 1
v 39
l 2 13
v 17
l -17 1
l -52 1
h -64
l -5 1
v -19
l -2 -4
v -48
v 1
h -68
v -69
h 67
v -17
l 35 -1
v -34
h -3
v -17
l -1 -17
v -52
l 27 -1
h 41
v -35
l -1 -3
v -23
h -37
l -31 1
h -35
l -33 1
v -9
h -68
v -48
M403 604
v -98
l 1 -18
h 102
v -87
h -3
v -52
h 17
M110 413
l 45 2
l 29 1
l 51 1
l 17 1
h 50
v -19
h -6
v -52
l 18 1
h 120
l 17 1
h 52"/>
</svg>