<svg version="1.1" xmlns="http://www.w3.org/2000/svg" width="642" height="1000" viewBox="0 0 642 1000">
  <path d="M144 94
l -1 39
l -1 31
v 1
l 1 1
l 1 -1
l 4 9
h 1
v 2
h 1
l 4 5
v 1
l 1 1
h 1
v -1
h 1
l 3 3
l 2 11
h 1
v -1
h 2
v 1
l 1 1
v 2
l 1 1
h 1
v 1
h 2
v 1
h 1
v 5
h -1
v 4
h 1
v 1
h 1
l 1 1
v 4
h 1
v 1
h -1
l -1 1
h -1
v 1
h -1
v 1
h -1
v 1
h -1
v 2
l 1 1
l 1 -1
v 1
h 3
v 1
l -1 1
v 1
l 1 2
h 1
v 2
h 2
v 1
h 2
l 1 1
v 1
h -1
v 1
h -1
l -1 1
h -2
v -1
h -1
l -1 1
h -1
l -2 1
h -1
l -1 1
v 1
h 1
l 1 -1
l 1 1
h 1
v 1
h 2
l 1 1
v 1
h 2
l 1 4
l 1 -1
h 3
v 1
h 1
v 1
h 2
v 2
l 2 1
v 2
h 1
v 2
l 1 1
v 1
l 2 1
h 1
l 1 1
h 2
v 1
h 4
v 2
h 4
l 1 1
l 1 -1
l 2 1
h 1
v 2
h -1
l 1 1
v 1
h 1
l 2 7
h 2
l 4 4
l 2 1
v 1
h 1
v 2
l 1 1
v 1
h 3
v 4
l 1 2
l 2 2
h 1
l 2 3
l 2 7
h 2
v -1
l 1 1
h 1
v 1
h 1
v 1
h 1
v 2
h 1
v 1
h 1
v 1
l 3 2
v 5
h -1
v 1
h -1
l 2 4
v 1
l 1 1
h 1
l 1 1
v 2
l 1 -1
h 2
l 1 2
l 1 1
l 1 1
h 2
l 1 1
h 1
l 1 1
v 1
h 1
v 4
h -1
l -1 1
h 1
h -1
l 2 3
h 1
l 1 -1
l 1 -1
h 2
v -1
l 1 -1
v -1
l 1 1
h 1
v -1
v 1
l 1 -1
h 1
v 1
h 1
v 1
h 1
v 1
h 1
v 4
h -1
l -1 1
v 1
h 1
l -1 1
h 1
v 1
h 2
v 3
h 3
l 1 -1
h 2
l 1 -1
v 1
h 1
l 1 1
h 1
v -1
l 1 1
l 1 1
h 1
l 1 -1
v -1
l 1 -1
h 1
l 1 -1
h 2
v -1
v 1
l 1 -1
h 2
l 1 -1
v 1
l 1 -1
v 1
h 1
l 1 1
l 1 1
l -3 19
l -4 1
h -1
l 3 7
v 2
l -1 3
h -1
v 1
h -1
v 1
l -1 1
v 8
h -1
l -1 8
h -3
l 2 7
v 8
v -1
h -1
v 1
h -5
v 1
h -1
v 4
h 2
v 1
h 3
l 1 5
h -1
v 3
l -1 1
h -1
l -1 1
l 1 2
l 1 2
h -1
l 2 3
v -1
l 1 1
h 2
l 3 5
h -1
v 1
h -1
v 1
h -1
l 4 7
h 1
l -2 2
l -1 2
h -1
l -1 -1
h -1
l -1 1
h -1
v 1
h -4
v 1
h -1
l 1 2
h -1
v 1
h -1
v 2
l -1 2
h -1
v 4
l 2 4
h 2
v 1
h 1
v 4
h -1
v 1
h -1
h 2
v 3
l -1 1
h -1
v 1
h -2
v 1
h -2
v 3
h 1
v 1
h 1
v 2
h -1
v 2
h -1
l 1 1
l -1 1
h -1
v 1
h 2
l 1 -1
h 1
v -1
l 1 1
l 1 1
l 1 1
v -1
h 2
l 1 -1
v 1
h 1
l -1 1
v 1
h 1
l 1 1
l 1 1
l 1 3
l 2 1
h 2
v 1
h 1
l 1 2
v 1
l 1 2
h 2
l 1 -1
h 1
v -1
l 2 -1
l 2 -3
h 1
v -6
h 3
l 1 1
h 2
v -1
l 2 -1
h 1
l 1 -1
h 1
l 1 -1
v -1
h -1
l 1 -1
h 4
v -3
l 1 -1
v -2
l 2 -1
h 1
v -1
l 1 -1
h 1
v -1
h 1
l -1 -1
v -1
h -1
l 1 -2
v -1
h 2
v -1
h 1
v -1
v 1
h 2
v 1
h 3
v 1
l 1 4
h 1
l 1 1
l 1 1
l -1 1
v 2
l 1 1
h 2
v -1
h 2
v 1
h 1
v 1
l 1 -1
h 1
l 1 1
v 2
l 1 1
h -1
l -1 2
v 4
h -1
l 1 1
h -1
v 1
h -1
h 7
l -1 1
v 2
h 1
l 1 2
v 1
h -1
l -1 2
l -1 2
l 1 1
v 1
l 2 1
l -1 1
h -1
v 2
h 3
v 1
l 1 1
v 4
h 1
v 1
h -1
v 4
h 1
v 1
h 1
v 2
l 1 1
h 1
v 1
h 1
v 2
h -1
v 1
l 1 1
l 1 1
l 1 1
h 1
v 1
h 1
v 3
l 1 1
h 1
l 1 2
h 1
l 1 1
v 4
h 3
v 1
l -2 1
l 1 2
l 1 1
h 3
l 2 1
l -1 1
l 2 3
h 1
v 2
h 3
v 1
h 1
v 2
h -1
v 1
h 1
v 3
h 1
l -1 1
v 7
h -2
v 1
l -1 -1
v 1
h -2
l 1 4
h 1
v 3
l 4 5
l 2 2
h 3
l 3 6
v 1
h 1
v 1
h 1
v -1
l 1 -1
h 2
v -1
h 1
v -1
h 1
l 1 -1
h 1
v -1
h 1
l 1 1
h 1
v 1
h 2
v 1
h 2
v 1
l 1 1
v 1
h 3
v 1
h 1
v 2
h -1
l 1 1
h 1
l 2 4
v 1
l 1 1
l 2 3
h 1
v 9
l -1 1
l -1 2
l 3 3
h 1
l 1 1
l -1 1
v 1
l 1 1
l 2 2
h 1
l -1 1
v 2
l 1 8
l 4 2
h 1
l 1 2
h 2
l 1 1
l 1 1
l 1 -1
l 1 3
l 1 1
v 1
h 1
v 1
h 1
l 1 1
v -1
h 1
v -1
h 1
v -6
h -1
v -1
l -1 -1
h 1
v -1
l 1 -1
l 1 -2
l 1 -1
l 1 -3
l 1 1
l 3 -1
l 1 -2
h 4
v 1
h 2
l 1 1
l 3 -1
v 1
h 1
l 2 -1
l 1 1
l 1 1
v -1
v 1
l 1 -1
h 2
l 1 1
h 2
v 2
h 2
v -1
l 1 -1
h 2
l 1 1
h 1
v 1
h 1
v 1
h 3
l 1 1
h 1
v -1
l 1 -1
v -3
l 1 -1
v -6
l 1 -1
h 3
v -2
l 1 -1
h 4
l 1 -1
v 1
v -1
l 1 1
h 1
v 1
l 1 1
h 1
l 3 1
h 1
v -1
h 2
v 1
l 1 -1
v 1
h 1
v 1
h 2
v 1
h 1
l 1 -1
v -1
h 1
l 1 -1
l 1 1
h 2
v 1
v -3
h 1
v 1
h 1
v -1
l 1 1
h 2
l 1 -1
l 2 -1
h 4
l 2 -1
h 2
v 1
h 1
v 1
l 1 1
v 2
h 2
v 1
l 1 1
l 1 -1
l 1 -2
l 1 1
l 1 -1
h 1
l 1 -1
l 1 -1
h 3
v -1
h 2
l 1 -1
l 1 1
h 7
l 1 -2
v 1
h 2
l 1 1
l 1 -1
l 1 1
h 2
v 1
h 1
v -1
h 4
h -1
v -1
h -1
l -1 -1
h -2
l 1 -1
l -1 -3
h -1
v -3
l 1 -1
l 1 -1
v -1
h -1
v -2
h 1
v 1
h 1
v -2
h 1
v -3
h 1
v -1
h -1
l -1 -1
h 1
h -2
l 1 -1
h 1
v -1
h 1
v -1
l 5 1
v -1
l 2 -1
v -3
l 1 -1
v 1
h 1
l 1 1
v 1
l 1 1
v -1
h 1
v -1
l 1 1
l 4 5
l 2 3
v 1
h -1
l 1 2
v -1
h 2
v 1
h 1
l 2 3
h -1
l -1 1
v 2
h 1
v 2
l 1 1
l 4 1
v 2
l 1 1
l 4 6
l 1 1
h 1
v 1
l 1 -1
v 1
l 5 1
v 13
l 2 34
v 13
l 1 3
v 19
l 2 25
v 24
l 1 15
v 10
l 1 7
l 1 33
v 11
l 1 1
v 19
l 1 18
v 1
l 1 18
v 22
l 1 19
v 4
l 1 18
v 7
l -47 2
l -32 1
h -12
l -105 3
h -242
l -22 -1
l -28 -1
h -29
l -51 -2
l -17 -1
h -15
l 1 -23
l 1 -35
l 1 -34
l 4 -119
l 2 -16
v -21
l 1 -2
l 2 -1
v -1
v 1
h 1
v -3
l 1 -1
v -4
h 2
v -2
h -1
l 1 -2
v -3
l 2 -1
v -8
h -1
v -1
h -1
l -1 -1
v -4
l 2 -2
h 1
l 2 -2
l 3 -5
v -4
l -2 -1
v -1
h -5
v -7
h -1
v -1
h -5
v 1
h -1
v 2
l -5 -7
h -2
v 1
h -1
v 1
l -1 1
h -3
l -1 -1
l -1 -1
l -2 -4
l 2 -2
v -2
l 1 -1
l -1 -2
l -2 -2
l -2 -2
v -2
l 1 -1
h 1
v -3
h 1
v -3
l -1 -3
l 2 -3
h 1
l 4 -5
l 4 -13
l 8 -16
l 4 -1
h 1
l 1 -2
l 2 -1
h 2
v -1
l 1 -3
l 2 -3
h 1
v -2
l 2 -1
v -1
l 2 -2
h 1
v -2
l 1 -4
l 1 -1
v -7
h 1
h -2
v 1
h -1
v -1
l 1 -2
v -4
l 3 -2
l 1 -2
h 1
v -2
h 1
v -2
l 3 -5
h 1
l 1 -1
v -1
l 1 -2
v -1
l 1 -2
v -1
l 1 -2
v -4
l 1 -3
v -1
l 1 -1
l 1 -1
v -6
h 1
v -1
l 1 -2
v -1
h 1
v -1
l 1 -1
v -1
h 1
v -3
h 1
v -1
h 1
v -1
h 1
v -1
h 1
v -1
l 1 -2
l 1 -2
v -1
h 2
v -6
l 1 -1
v -2
h 1
v -2
h 1
v -1
h -1
h 1
l 1 -1
h 1
v -1
h 1
v -1
h 1
v -2
h 1
l 1 -4
h -1
v -2
h -1
v -1
l -1 -2
l -1 -1
l -1 -2
l -1 -1
l -2 -9
l -2 -2
l -1 -1
l -1 -1
h -3
v -1
l -1 1
h -2
l -1 -1
l -2 -3
l -1 -2
l -1 -1
h -3
v 1
h -2
l -5 -8
l -1 -1
l -2 -2
l -2 -8
l -3 -5
l -3 -10
l -1 -1
h -1
l -1 -1
v -2
h 2
l 1 -4
h 1
l 1 -6
l -3 -4
l -2 -11
l -1 -3
l -4 -10
l 2 -5
v -23
l 1 -17
l 2 -69
l 2 -34
v -20
l 1 -36
l 1 -30
l 3 -38
v -31
l 3 -51
h 9
l 9 1
h 22
l 7 1
h 34
l 6 1
l -1 32
Z"/>
<g class="districts">
<path data-race-id="ID01" d="M16 645
l 1 -1
h 1
v -3
h 1
v -3
l -1 -3
l 2 -3
h 1
l 4 -5
l 4 -13
l 8 -16
l 4 -1
h 1
l 1 -2
l 2 -1
h 2
v -1
l 1 -3
l 2 -3
h 1
v -2
l 2 -1
v -1
l 2 -2
h 1
v -2
l 1 -4
l 1 -1
v -7
h 1
h -2
v 1
h -1
v -1
l 1 -2
v -4
l 3 -2
l 1 -2
h 1
v -2
h 1
v -2
l 3 -5
h 1
l 1 -1
v -1
l 1 -2
v -1
l 1 -2
v -1
l 1 -2
v -4
l 1 -3
v -1
l 1 -1
l 1 -1
v -6
h 1
v -1
l 1 -2
v -1
h 1
v -1
l 1 -1
v -1
h 1
v -3
h 1
v -1
h 1
v -1
h 1
v -1
h 1
v -1
l 1 -2
l 1 -2
v -1
h 2
v -6
l 1 -1
v -2
h 1
v -2
h 1
v -1
h -1
h 1
l 1 -1
h 1
v -1
h 1
v -1
h 1
v -2
h 1
l 1 -4
h -1
v -2
h -1
v -1
l -1 -2
l -1 -1
l -1 -2
l -1 -1
l -2 -9
l -2 -2
l -1 -1
l -1 -1
h -3
v -1
l -1 1
h -2
l -1 -1
l -2 -3
l -1 -2
l -1 -1
h -3
v 1
h -2
l -2 -4
l -3 -4
l -1 -1
l -2 -2
l -2 -8
l -3 -5
l -3 -10
l -1 -1
h -1
l -1 -1
v -2
h 2
l 1 -4
h 1
l 1 -6
l -3 -4
l -2 -11
l -1 -3
l -4 -10
l 2 -4
v -19
l 2 -37
l 1 -41
l 1 -32
l 1 -31
l 1 -52
l 2 -18
l 2 -52
l 2 -47
l 1 -21
h 9
l 9 1
h 22
l 7 1
h 34
l 6 1
l -1 32
l -1 35
l -1 39
l -1 31
v 1
l 1 1
l 1 -1
l 4 9
h 1
v 2
h 1
l 4 5
v 1
l 1 1
h 1
v -1
h 1
l 3 3
l 2 11
h 1
v -1
h 2
v 1
l 1 1
v 2
l 1 1
h 1
v 1
h 2
v 1
h 1
v 5
h -1
v 4
h 1
v 1
h 1
l 1 1
v 4
h 1
v 1
h -1
l -1 1
h -1
v 1
h -1
v 1
h -1
v 1
h -1
v 2
l 1 1
l 1 -1
v 1
h 3
v 1
l -1 1
v 1
l 1 2
h 1
v 2
h 2
v 1
h 2
l 1 1
v 1
h -1
v 1
h -1
l -1 1
h -2
v -1
h -1
l -1 1
h -1
l -2 1
h -1
l -1 1
v 1
h 1
l 1 -1
l 1 1
h 1
v 1
h 2
l 1 1
v 1
h 2
l 1 4
l 1 -1
h 3
v 1
h 1
v 1
h 2
v 2
l 2 1
v 2
h 1
v 2
l 1 1
v 1
l 2 1
h 1
l 1 1
h 2
v 1
h 4
v 2
h 4
l 1 1
l 1 -1
l 2 1
h 1
v 2
h -1
l 1 1
v 1
h 1
l 2 7
h 2
l 4 4
l 2 1
v 1
h 1
v 2
l 1 1
v 1
h 3
v 4
l 1 2
l 2 2
h 1
l 2 3
l 2 7
h 2
v -1
l 1 1
h 1
v 1
h 1
v 1
h 1
v 2
h 1
v 1
h 1
v 1
l 3 2
v 5
h -1
v 1
h -1
l 2 4
v 1
l 1 1
h 1
l 1 1
v 2
l 1 -1
h 2
l 1 2
l 1 1
l 1 1
h 2
l 1 1
h 1
l 1 1
v 1
h 1
v 4
h -1
l -1 1
h 1
h -1
l 2 3
h 1
l 1 -1
l 1 -1
h 2
v -1
l 1 -1
v -1
l 1 1
h 1
v -1
v 1
l 1 -1
h 1
v 1
h 1
v 1
h 1
v 1
h 1
v 4
h -1
l -1 1
v 1
h 1
l -1 1
h 1
v 1
h 2
v 3
h 3
l 1 -1
h 2
l 1 -1
v 1
h 1
l 1 1
h 1
v -1
l 1 1
l 1 1
h 1
l 1 -1
v -1
l 1 -1
h 1
l 1 -1
h 2
v -1
v 1
l 1 -1
h 2
l 1 -1
v 1
l 1 -1
v 1
h 1
l 1 1
l 1 1
l -3 19
l -4 1
h -1
l 3 7
v 2
l -1 3
h -1
v 1
h -1
v 1
l -1 1
v 8
h -1
l -1 8
h -3
l 2 7
v 8
v -1
h -1
v 1
h -5
v 1
h -1
v 4
h 2
v 1
h 3
l 1 5
h -1
v 3
l -1 1
h -1
l -1 1
l 1 2
l 1 2
h -1
l 2 3
v -1
l 1 1
h 2
l 3 5
h -1
v 1
h -1
v 1
h -1
l 4 7
h 1
l -2 2
l -1 2
h -1
l -1 -1
h -1
l -1 1
h -1
v 1
h -4
v 1
h -1
l 1 2
h -1
v 1
h -1
v 2
l -1 2
h -1
v 4
l 2 4
h 2
v 1
h 1
v 4
h -1
v 1
h -1
h 2
v 3
l -1 1
h -1
v 1
h -2
v 1
h -2
v 3
h 1
v 1
h 1
v 2
h -1
v 2
h -1
l 1 1
l -1 1
h -1
v 1
l -7 9
l -8 1
l -3 -4
l -3 5
l -1 5
l 8 6
l 6 10
l 5 4
l -4 4
l -5 9
l -3 7
v 3
l -1 30
l -3 8
l -4 4
l -2 1
l -9 7
l -3 4
h -6
l -2 -2
l -3 -4
l -6 2
l -3 12
l -4 5
l -8 2
l -2 3
l 2 9
l 5 3
v 11
l -6 10
l 2 4
l 9 3
l 2 14
l 12 4
v 8
l -2 9
l 6 4
l -1 7
l -8 1
l -6 -6
l -1 -10
l -3 -4
l -10 21
l -3 1
h -7
l -12 5
l -3 4
v 6
l -6 2
l -5 13
l -14 7
l -8 7
l -6 -1
l -5 1
l -5 -4
l -7 -9
l -15 -15
v 4
l -6 7
l 2 6
l 2 1
l -5 -1
v 10
h 5
l 9 5
l 6 10
l 14 16
l -1 34
h -28
l 6 2
l -1 6
l 6 2
l 5 8
l 13 5
l -1 -5
l 5 -2
l 7 4
l 6 -1
v 5
h 13
l 21 2
l -1 22
l 41 1
v 42
l -1 1
v 53
l -1 8
h -37
l -22 -1
l -28 -1
h -29
l -51 -2
l -17 -1
h -15
l 1 -21
v -17
l 1 -18
l 1 -35
l 1 -16
l 1 -51
l 2 -17
v -17
l 2 -35
v -21
l 1 -2
l 2 -1
v -1
v 1
h 1
v -3
l 1 -1
v -4
h 2
v -2
h -1
l 1 -2
v -3
l 2 -1
v -8
h -1
v -1
h -1
l -1 -1
v -4
l 2 -2
h 1
l 2 -2
l 3 -5
v -4
l -2 -1
v -1
h -5
v -7
h -1
v -1
h -5
v 1
h -1
v 2
l -5 -7
h -2
v 1
h -1
v 1
l -1 1
h -3
l -1 -1
l -1 -1
l -2 -4
l 2 -2
v -2
l 1 -1
l -1 -2
l -2 -2
l -2 -2
v -1
Z"/>
<path data-race-id="ID02" d="M106 747
l -2 -1
l -2 -6
l 6 -7
v -4
l 15 15
l 7 9
l 5 4
l 5 -1
l 6 1
l 8 -7
l 14 -7
l 5 -13
l 6 -2
v -6
l 3 -4
l 12 -5
h 7
l 3 -1
l 10 -21
l 3 4
l 1 10
l 6 6
l 8 -1
l 1 -7
l -6 -4
l 2 -9
v -8
l -12 -4
l -2 -14
l -9 -3
l -2 -4
l 6 -10
v -11
l -5 -3
l -2 -9
l 2 -3
l 8 -2
l 4 -5
l 3 -12
l 6 -2
l 3 4
l 2 2
h 6
l 3 -4
l 9 -7
l 2 -1
l 4 -4
l 3 -8
l 1 -30
v -3
l 3 -7
l 5 -9
l 4 -4
l -5 -4
l -6 -10
l -8 -6
l 1 -5
l 3 -5
l 3 4
l 8 -1
l 7 -9
h 2
l 1 -1
h 1
v -1
l 1 1
l 1 1
l 1 1
v -1
h 2
l 1 -1
v 1
h 1
l -1 1
v 1
h 1
l 1 1
l 1 1
l 1 3
l 2 1
h 2
v 1
h 1
l 1 2
v 1
l 1 2
h 2
l 1 -1
h 1
v -1
l 2 -1
l 2 -3
h 1
v -6
h 3
l 1 1
h 2
v -1
l 2 -1
h 1
l 1 -1
h 1
l 1 -1
v -1
h -1
l 1 -1
h 4
v -3
l 1 -1
v -2
l 2 -1
h 1
v -1
l 1 -1
h 1
v -1
h 1
l -1 -1
v -1
h -1
l 1 -2
v -1
h 2
v -1
h 1
v -1
v 1
h 2
v 1
h 3
v 1
l 1 4
h 1
l 1 1
l 1 1
l -1 1
v 2
l 1 1
h 2
v -1
h 2
v 1
h 1
v 1
l 1 -1
h 1
l 1 1
v 2
l 1 1
h -1
l -1 2
v 4
h -1
l 1 1
h -1
v 1
h -1
h 7
l -1 1
v 2
h 1
l 1 2
v 1
h -1
l -1 2
l -1 2
l 1 1
v 1
l 2 1
l -1 1
h -1
v 2
h 3
v 1
l 1 1
v 4
h 1
v 1
h -1
v 4
h 1
v 1
h 1
v 2
l 1 1
h 1
v 1
h 1
v 2
h -1
v 1
l 1 1
l 1 1
l 1 1
h 1
v 1
h 1
v 3
l 1 1
h 1
l 1 2
h 1
l 1 1
v 4
h 3
v 1
l -2 1
l 1 2
l 1 1
h 3
l 2 1
l -1 1
l 2 3
h 1
v 2
h 3
v 1
h 1
v 2
h -1
v 1
h 1
v 3
h 1
l -1 1
v 7
h -2
v 1
l -1 -1
v 1
h -2
l 1 4
h 1
v 3
l 4 5
l 2 2
h 3
l 3 6
v 1
h 1
v 1
h 1
v -1
l 1 -1
h 2
v -1
h 1
v -1
h 1
l 1 -1
h 1
v -1
h 1
l 1 1
h 1
v 1
h 2
v 1
h 2
v 1
l 1 1
v 1
h 3
v 1
h 1
v 2
h -1
l 1 1
h 1
l 2 4
v 1
l 1 1
l 2 3
h 1
v 9
l -1 1
l -1 2
l 3 3
h 1
l 1 1
l -1 1
v 1
l 1 1
l 2 2
h 1
l -1 1
v 2
l 1 8
l 4 2
h 1
l 1 2
h 2
l 1 1
l 1 1
l 1 -1
l 1 3
l 1 1
v 1
h 1
v 1
h 1
l 1 1
v -1
h 1
v -1
h 1
v -1
h 1
l -1 -3
v -2
h -1
v -1
l -1 -1
h 1
v -1
l 1 -1
l 1 -2
l 1 -1
l 1 -3
l 1 1
l 3 -1
l 1 -2
h 4
v 1
h 2
l 1 1
l 3 -1
v 1
h 1
l 2 -1
l 1 1
l 1 1
v -1
v 1
l 1 -1
h 2
l 1 1
h 2
v 2
h 2
v -1
l 1 -1
h 2
l 1 1
h 1
v 1
h 1
v 1
h 3
l 1 1
h 1
v -1
l 1 -1
v -3
l 1 -1
v -6
l 1 -1
h 3
v -2
l 1 -1
h 4
l 1 -1
v 1
v -1
l 1 1
h 1
v 1
l 1 1
h 1
l 3 1
h 1
v -1
h 2
v 1
l 1 -1
v 1
h 1
v 1
h 2
v 1
h 1
l 1 -1
v -1
h 1
l 1 -1
l 1 1
h 2
v 1
v -3
h 1
v 1
h 1
v -1
l 1 1
h 2
l 1 -1
l 2 -1
h 4
l 2 -1
h 2
v 1
h 1
v 1
l 1 1
v 2
h 2
v 1
l 1 1
l 1 -1
l 1 -2
l 1 1
l 1 -1
h 1
l 1 -1
l 1 -1
h 3
v -1
h 2
l 1 -1
l 1 1
h 7
l 1 -2
v 1
h 2
l 1 1
l 1 -1
l 1 1
h 2
v 1
h 1
v -1
h 4
h -1
v -1
h -1
l -1 -1
h -2
l 1 -1
l -1 -3
h -1
v -3
l 1 -1
l 1 -1
v -1
h -1
v -2
h 1
v 1
h 1
v -2
h 1
v -3
h 1
v -1
h -1
l -1 -1
h 1
h -2
l 1 -1
h 1
v -1
h 1
v -1
l 5 1
v -1
l 2 -1
v -3
l 1 -1
v 1
h 1
l 1 1
v 1
l 1 1
v -1
h 1
v -1
l 1 1
l 4 5
l 2 3
v 1
h -1
l 1 2
v -1
h 2
v 1
h 1
l 2 3
h -1
l -1 1
v 2
h 1
v 2
l 1 1
l 4 1
v 2
l 1 1
l 4 6
l 1 1
h 1
v 1
l 1 -1
v 1
l 5 1
v 13
l 2 34
v 13
l 1 3
v 19
l 2 25
v 24
l 1 15
v 10
l 1 7
l 1 33
v 11
l 1 1
v 19
l 1 18
v 1
l 1 18
v 22
l 1 19
v 4
l 1 18
v 7
l -46 2
h -25
l -8 1
h -12
l -16 1
h -47
l -1 1
h -38
l -3 1
h -205
l 1 -8
v -53
l 1 -1
v -42
l -41 -1
l 1 -22
l -21 -2
h -13
v -5
l -6 1
l -7 -4
l -5 2
l 1 5
l -13 -5
l -5 -8
l -6 -2
l 1 -6
l -6 -2
h 28
l 1 -34
l -14 -16
l -6 -10
l -9 -5
h -5
v -10
Z"/>
</g>
  <path class="districts-mesh" d="M274 493
l -7 9
l -8 1
l -3 -4
l -3 5
l -1 5
l 8 6
l 6 10
l 5 4
l -4 4
l -5 9
l -3 7
v 3
l -1 30
l -3 8
l -4 4
l -2 1
l -9 7
l -3 4
h -6
l -2 -2
l -3 -4
l -6 2
l -3 12
l -4 5
l -8 2
l -2 3
l 2 9
l 5 3
v 11
l -6 10
l 2 4
l 9 3
l 2 14
l 12 4
v 8
l -2 9
l 6 4
l -1 7
l -8 1
l -6 -6
l -1 -10
l -3 -4
l -10 21
l -3 1
h -7
l -12 5
l -3 4
v 6
l -6 2
l -5 13
l -14 7
l -8 7
l -6 -1
l -5 1
l -5 -4
l -7 -9
l -15 -15
v 4
l -6 7
l 2 6
l 2 1
l -5 -1
v 10
h 5
l 9 5
l 6 10
l 14 16
l -1 34
h -28
l 6 2
l -1 6
l 6 2
l 5 8
l 13 5
l -1 -5
l 5 -2
l 7 4
l 6 -1
v 5
h 13
l 21 2
l -1 22
l 41 1
v 42
l -1 1
v 53
l -1 8"/>
</svg>