<svg version="1.1" xmlns="http://www.w3.org/2000/svg" width="642" height="1000" viewBox="0 0 642 1000">  <path d="M144,94l-1,39l-1,31v1l1,1l1,-1l4,9h1v2h1l4,5v1l1,1h1v-1h1l3,3l2,11h1v-1h2v1l1,1v2l1,1h1v1h2v1h1v5h-1v4h1v1h1l1,1v4h1v1h-1l-1,1h-1v1h-1v1h-1v1h-1v2l1,1l1,-1v1h3v1l-1,1v1l1,2h1v2h2v1h2l1,1v1h-1v1h-1l-1,1h-2v-1h-1l-1,1h-1l-2,1h-1l-1,1v1h1l1,-1l1,1h1v1h2l1,1v1h2l1,4l1,-1h3v1h1v1h2v2l2,1v2h1v2l1,1v1l2,1h1l1,1h2v1h4v2h4l1,1l1,-1l2,1h1v2h-1l1,1v1h1l2,7h2l4,4l2,1v1h1v2l1,1v1h3v4l1,2l2,2h1l2,3l2,7h2v-1l1,1h1v1h1v1h1v2h1v1h1v1l3,2v5h-1v1h-1l2,4v1l1,1h1l1,1v2l1,-1h2l1,2l1,1l1,1h2l1,1h1l1,1v1h1v4h-1l-1,1h1h-1l2,3h1l1,-1l1,-1h2v-1l1,-1v-1l1,1h1v-1v1l1,-1h1v1h1v1h1v1h1v4h-1l-1,1v1h1l-1,1h1v1h2v3h3l1,-1h2l1,-1v1h1l1,1h1v-1l1,1l1,1h1l1,-1v-1l1,-1h1l1,-1h2v-1v1l1,-1h2l1,-1v1l1,-1v1h1l1,1l1,1l-3,19l-4,1h-1l3,7v2l-1,3h-1v1h-1v1l-1,1v8h-1l-1,8h-3l2,7v8v-1h-1v1h-5v1h-1v4h2v1h3l1,5h-1v3l-1,1h-1l-1,1l1,2l1,2h-1l2,3v-1l1,1h2l3,5h-1v1h-1v1h-1l4,7h1l-2,2l-1,2h-1l-1,-1h-1l-1,1h-1v1h-4v1h-1l1,2h-1v1h-1v2l-1,2h-1v4l2,4h2v1h1v4h-1v1h-1h2v3l-1,1h-1v1h-2v1h-2v3h1v1h1v2h-1v2h-1l1,1l-1,1h-1v1h2l1,-1h1v-1l1,1l1,1l1,1v-1h2l1,-1v1h1l-1,1v1h1l1,1l1,1l1,3l2,1h2v1h1l1,2v1l1,2h2l1,-1h1v-1l2,-1l2,-3h1v-6h3l1,1h2v-1l2,-1h1l1,-1h1l1,-1v-1h-1l1,-1h4v-3l1,-1v-2l2,-1h1v-1l1,-1h1v-1h1l-1,-1v-1h-1l1,-2v-1h2v-1h1v-1v1h2v1h3v1l1,4h1l1,1l1,1l-1,1v2l1,1h2v-1h2v1h1v1l1,-1h1l1,1v2l1,1h-1l-1,2v4h-1l1,1h-1v1h-1h7l-1,1v2h1l1,2v1h-1l-1,2l-1,2l1,1v1l2,1l-1,1h-1v2h3v1l1,1v4h1v1h-1v4h1v1h1v2l1,1h1v1h1v2h-1v1l1,1l1,1l1,1h1v1h1v3l1,1h1l1,2h1l1,1v4h3v1l-2,1l1,2l1,1h3l2,1l-1,1l2,3h1v2h3v1h1v2h-1v1h1v3h1l-1,1v7h-2v1l-1,-1v1h-2l1,4h1v3l4,5l2,2h3l3,6v1h1v1h1v-1l1,-1h2v-1h1v-1h1l1,-1h1v-1h1l1,1h1v1h2v1h2v1l1,1v1h3v1h1v2h-1l1,1h1l2,4v1l1,1l2,3h1v9l-1,1l-1,2l3,3h1l1,1l-1,1v1l1,1l2,2h1l-1,1v2l1,8l4,2h1l1,2h2l1,1l1,1l1,-1l1,3l1,1v1h1v1h1l1,1v-1h1v-1h1v-6h-1v-1l-1,-1h1v-1l1,-1l1,-2l1,-1l1,-3l1,1l3,-1l1,-2h4v1h2l1,1l3,-1v1h1l2,-1l1,1l1,1v-1v1l1,-1h2l1,1h2v2h2v-1l1,-1h2l1,1h1v1h1v1h3l1,1h1v-1l1,-1v-3l1,-1v-6l1,-1h3v-2l1,-1h4l1,-1v1v-1l1,1h1v1l1,1h1l3,1h1v-1h2v1l1,-1v1h1v1h2v1h1l1,-1v-1h1l1,-1l1,1h2v1v-3h1v1h1v-1l1,1h2l1,-1l2,-1h4l2,-1h2v1h1v1l1,1v2h2v1l1,1l1,-1l1,-2l1,1l1,-1h1l1,-1l1,-1h3v-1h2l1,-1l1,1h7l1,-2v1h2l1,1l1,-1l1,1h2v1h1v-1h4h-1v-1h-1l-1,-1h-2l1,-1l-1,-3h-1v-3l1,-1l1,-1v-1h-1v-2h1v1h1v-2h1v-3h1v-1h-1l-1,-1h1h-2l1,-1h1v-1h1v-1l5,1v-1l2,-1v-3l1,-1v1h1l1,1v1l1,1v-1h1v-1l1,1l4,5l2,3v1h-1l1,2v-1h2v1h1l2,3h-1l-1,1v2h1v2l1,1l4,1v2l1,1l4,6l1,1h1v1l1,-1v1l5,1v13l2,34v13l1,3v19l2,25v24l1,15v10l1,7l1,33v11l1,1v19l1,18v1l1,18v22l1,19v4l1,18v7l-47,2l-32,1h-12l-105,3h-242l-22,-1l-28,-1h-29l-51,-2l-17,-1h-15l1,-23l1,-35l1,-34l4,-119l2,-16v-21l1,-2l2,-1v-1v1h1v-3l1,-1v-4h2v-2h-1l1,-2v-3l2,-1v-8h-1v-1h-1l-1,-1v-4l2,-2h1l2,-2l3,-5v-4l-2,-1v-1h-5v-7h-1v-1h-5v1h-1v2l-5,-7h-2v1h-1v1l-1,1h-3l-1,-1l-1,-1l-2,-4l2,-2v-2l1,-1l-1,-2l-2,-2l-2,-2v-2l1,-1h1v-3h1v-3l-1,-3l2,-3h1l4,-5l4,-13l8,-16l4,-1h1l1,-2l2,-1h2v-1l1,-3l2,-3h1v-2l2,-1v-1l2,-2h1v-2l1,-4l1,-1v-7h1h-2v1h-1v-1l1,-2v-4l3,-2l1,-2h1v-2h1v-2l3,-5h1l1,-1v-1l1,-2v-1l1,-2v-1l1,-2v-4l1,-3v-1l1,-1l1,-1v-6h1v-1l1,-2v-1h1v-1l1,-1v-1h1v-3h1v-1h1v-1h1v-1h1v-1l1,-2l1,-2v-1h2v-6l1,-1v-2h1v-2h1v-1h-1h1l1,-1h1v-1h1v-1h1v-2h1l1,-4h-1v-2h-1v-1l-1,-2l-1,-1l-1,-2l-1,-1l-2,-9l-2,-2l-1,-1l-1,-1h-3v-1l-1,1h-2l-1,-1l-2,-3l-1,-2l-1,-1h-3v1h-2l-5,-8l-1,-1l-2,-2l-2,-8l-3,-5l-3,-10l-1,-1h-1l-1,-1v-2h2l1,-4h1l1,-6l-3,-4l-2,-11l-1,-3l-4,-10l2,-5v-23l1,-17l2,-69l2,-34v-20l1,-36l1,-30l3,-38v-31l3,-51h9l9,1h22l7,1h34l6,1l-1,32Z"/><g class="districts"><path data-race-id="ID01" d="M16,645l1,-1h1v-3h1v-3l-1,-3l2,-3h1l4,-5l4,-13l8,-16l4,-1h1l1,-2l2,-1h2v-1l1,-3l2,-3h1v-2l2,-1v-1l2,-2h1v-2l1,-4l1,-1v-7h1h-2v1h-1v-1l1,-2v-4l3,-2l1,-2h1v-2h1v-2l3,-5h1l1,-1v-1l1,-2v-1l1,-2v-1l1,-2v-4l1,-3v-1l1,-1l1,-1v-6h1v-1l1,-2v-1h1v-1l1,-1v-1h1v-3h1v-1h1v-1h1v-1h1v-1l1,-2l1,-2v-1h2v-6l1,-1v-2h1v-2h1v-1h-1h1l1,-1h1v-1h1v-1h1v-2h1l1,-4h-1v-2h-1v-1l-1,-2l-1,-1l-1,-2l-1,-1l-2,-9l-2,-2l-1,-1l-1,-1h-3v-1l-1,1h-2l-1,-1l-2,-3l-1,-2l-1,-1h-3v1h-2l-2,-4l-3,-4l-1,-1l-2,-2l-2,-8l-3,-5l-3,-10l-1,-1h-1l-1,-1v-2h2l1,-4h1l1,-6l-3,-4l-2,-11l-1,-3l-4,-10l2,-4v-19l2,-37l1,-41l1,-32l1,-31l1,-52l2,-18l2,-52l2,-47l1,-21h9l9,1h22l7,1h34l6,1l-1,32l-1,35l-1,39l-1,31v1l1,1l1,-1l4,9h1v2h1l4,5v1l1,1h1v-1h1l3,3l2,11h1v-1h2v1l1,1v2l1,1h1v1h2v1h1v5h-1v4h1v1h1l1,1v4h1v1h-1l-1,1h-1v1h-1v1h-1v1h-1v2l1,1l1,-1v1h3v1l-1,1v1l1,2h1v2h2v1h2l1,1v1h-1v1h-1l-1,1h-2v-1h-1l-1,1h-1l-2,1h-1l-1,1v1h1l1,-1l1,1h1v1h2l1,1v1h2l1,4l1,-1h3v1h1v1h2v2l2,1v2h1v2l1,1v1l2,1h1l1,1h2v1h4v2h4l1,1l1,-1l2,1h1v2h-1l1,1v1h1l2,7h2l4,4l2,1v1h1v2l1,1v1h3v4l1,2l2,2h1l2,3l2,7h2v-1l1,1h1v1h1v1h1v2h1v1h1v1l3,2v5h-1v1h-1l2,4v1l1,1h1l1,1v2l1,-1h2l1,2l1,1l1,1h2l1,1h1l1,1v1h1v4h-1l-1,1h1h-1l2,3h1l1,-1l1,-1h2v-1l1,-1v-1l1,1h1v-1v1l1,-1h1v1h1v1h1v1h1v4h-1l-1,1v1h1l-1,1h1v1h2v3h3l1,-1h2l1,-1v1h1l1,1h1v-1l1,1l1,1h1l1,-1v-1l1,-1h1l1,-1h2v-1v1l1,-1h2l1,-1v1l1,-1v1h1l1,1l1,1l-3,19l-4,1h-1l3,7v2l-1,3h-1v1h-1v1l-1,1v8h-1l-1,8h-3l2,7v8v-1h-1v1h-5v1h-1v4h2v1h3l1,5h-1v3l-1,1h-1l-1,1l1,2l1,2h-1l2,3v-1l1,1h2l3,5h-1v1h-1v1h-1l4,7h1l-2,2l-1,2h-1l-1,-1h-1l-1,1h-1v1h-4v1h-1l1,2h-1v1h-1v2l-1,2h-1v4l2,4h2v1h1v4h-1v1h-1h2v3l-1,1h-1v1h-2v1h-2v3h1v1h1v2h-1v2h-1l1,1l-1,1h-1v1l-7,9l-8,1l-3,-4l-3,5l-1,5l8,6l6,10l5,4l-4,4l-5,9l-3,7v3l-1,30l-3,8l-4,4l-2,1l-9,7l-3,4h-6l-2,-2l-3,-4l-6,2l-3,12l-4,5l-8,2l-2,3l2,9l5,3v11l-6,10l2,4l9,3l2,14l12,4v8l-2,9l6,4l-1,7l-8,1l-6,-6l-1,-10l-3,-4l-10,21l-3,1h-7l-12,5l-3,4v6l-6,2l-5,13l-14,7l-8,7l-6,-1l-5,1l-5,-4l-7,-9l-15,-15v4l-6,7l2,6l2,1l-5,-1v10h5l9,5l6,10l14,16l-1,34h-28l6,2l-1,6l6,2l5,8l13,5l-1,-5l5,-2l7,4l6,-1v5h13l21,2l-1,22l41,1v42l-1,1v53l-1,8h-37l-22,-1l-28,-1h-29l-51,-2l-17,-1h-15l1,-21v-17l1,-18l1,-35l1,-16l1,-51l2,-17v-17l2,-35v-21l1,-2l2,-1v-1v1h1v-3l1,-1v-4h2v-2h-1l1,-2v-3l2,-1v-8h-1v-1h-1l-1,-1v-4l2,-2h1l2,-2l3,-5v-4l-2,-1v-1h-5v-7h-1v-1h-5v1h-1v2l-5,-7h-2v1h-1v1l-1,1h-3l-1,-1l-1,-1l-2,-4l2,-2v-2l1,-1l-1,-2l-2,-2l-2,-2v-1Z"/><path data-race-id="ID02" d="M106,747l-2,-1l-2,-6l6,-7v-4l15,15l7,9l5,4l5,-1l6,1l8,-7l14,-7l5,-13l6,-2v-6l3,-4l12,-5h7l3,-1l10,-21l3,4l1,10l6,6l8,-1l1,-7l-6,-4l2,-9v-8l-12,-4l-2,-14l-9,-3l-2,-4l6,-10v-11l-5,-3l-2,-9l2,-3l8,-2l4,-5l3,-12l6,-2l3,4l2,2h6l3,-4l9,-7l2,-1l4,-4l3,-8l1,-30v-3l3,-7l5,-9l4,-4l-5,-4l-6,-10l-8,-6l1,-5l3,-5l3,4l8,-1l7,-9h2l1,-1h1v-1l1,1l1,1l1,1v-1h2l1,-1v1h1l-1,1v1h1l1,1l1,1l1,3l2,1h2v1h1l1,2v1l1,2h2l1,-1h1v-1l2,-1l2,-3h1v-6h3l1,1h2v-1l2,-1h1l1,-1h1l1,-1v-1h-1l1,-1h4v-3l1,-1v-2l2,-1h1v-1l1,-1h1v-1h1l-1,-1v-1h-1l1,-2v-1h2v-1h1v-1v1h2v1h3v1l1,4h1l1,1l1,1l-1,1v2l1,1h2v-1h2v1h1v1l1,-1h1l1,1v2l1,1h-1l-1,2v4h-1l1,1h-1v1h-1h7l-1,1v2h1l1,2v1h-1l-1,2l-1,2l1,1v1l2,1l-1,1h-1v2h3v1l1,1v4h1v1h-1v4h1v1h1v2l1,1h1v1h1v2h-1v1l1,1l1,1l1,1h1v1h1v3l1,1h1l1,2h1l1,1v4h3v1l-2,1l1,2l1,1h3l2,1l-1,1l2,3h1v2h3v1h1v2h-1v1h1v3h1l-1,1v7h-2v1l-1,-1v1h-2l1,4h1v3l4,5l2,2h3l3,6v1h1v1h1v-1l1,-1h2v-1h1v-1h1l1,-1h1v-1h1l1,1h1v1h2v1h2v1l1,1v1h3v1h1v2h-1l1,1h1l2,4v1l1,1l2,3h1v9l-1,1l-1,2l3,3h1l1,1l-1,1v1l1,1l2,2h1l-1,1v2l1,8l4,2h1l1,2h2l1,1l1,1l1,-1l1,3l1,1v1h1v1h1l1,1v-1h1v-1h1v-1h1l-1,-3v-2h-1v-1l-1,-1h1v-1l1,-1l1,-2l1,-1l1,-3l1,1l3,-1l1,-2h4v1h2l1,1l3,-1v1h1l2,-1l1,1l1,1v-1v1l1,-1h2l1,1h2v2h2v-1l1,-1h2l1,1h1v1h1v1h3l1,1h1v-1l1,-1v-3l1,-1v-6l1,-1h3v-2l1,-1h4l1,-1v1v-1l1,1h1v1l1,1h1l3,1h1v-1h2v1l1,-1v1h1v1h2v1h1l1,-1v-1h1l1,-1l1,1h2v1v-3h1v1h1v-1l1,1h2l1,-1l2,-1h4l2,-1h2v1h1v1l1,1v2h2v1l1,1l1,-1l1,-2l1,1l1,-1h1l1,-1l1,-1h3v-1h2l1,-1l1,1h7l1,-2v1h2l1,1l1,-1l1,1h2v1h1v-1h4h-1v-1h-1l-1,-1h-2l1,-1l-1,-3h-1v-3l1,-1l1,-1v-1h-1v-2h1v1h1v-2h1v-3h1v-1h-1l-1,-1h1h-2l1,-1h1v-1h1v-1l5,1v-1l2,-1v-3l1,-1v1h1l1,1v1l1,1v-1h1v-1l1,1l4,5l2,3v1h-1l1,2v-1h2v1h1l2,3h-1l-1,1v2h1v2l1,1l4,1v2l1,1l4,6l1,1h1v1l1,-1v1l5,1v13l2,34v13l1,3v19l2,25v24l1,15v10l1,7l1,33v11l1,1v19l1,18v1l1,18v22l1,19v4l1,18v7l-46,2h-25l-8,1h-12l-16,1h-47l-1,1h-38l-3,1h-205l1,-8v-53l1,-1v-42l-41,-1l1,-22l-21,-2h-13v-5l-6,1l-7,-4l-5,2l1,5l-13,-5l-5,-8l-6,-2l1,-6l-6,-2h28l1,-34l-14,-16l-6,-10l-9,-5h-5v-10Z"/></g>  <path class="districts-mesh" d="M274,493l-7,9l-8,1l-3,-4l-3,5l-1,5l8,6l6,10l5,4l-4,4l-5,9l-3,7v3l-1,30l-3,8l-4,4l-2,1l-9,7l-3,4h-6l-2,-2l-3,-4l-6,2l-3,12l-4,5l-8,2l-2,3l2,9l5,3v11l-6,10l2,4l9,3l2,14l12,4v8l-2,9l6,4l-1,7l-8,1l-6,-6l-1,-10l-3,-4l-10,21l-3,1h-7l-12,5l-3,4v6l-6,2l-5,13l-14,7l-8,7l-6,-1l-5,1l-5,-4l-7,-9l-15,-15v4l-6,7l2,6l2,1l-5,-1v10h5l9,5l6,10l14,16l-1,34h-28l6,2l-1,6l6,2l5,8l13,5l-1,-5l5,-2l7,4l6,-1v5h13l21,2l-1,22l41,1v42l-1,1v53l-1,8"/></svg>