<svg version="1.1" xmlns="http://www.w3.org/2000/svg" width="560" height="1000" viewBox="0 0 560 1000"><path data-race-id="IL01" d="M453,210l7,-3h7v-8l7,-2l4,-8l-1,-2h4l13,-1v-6h-5v-6l7,-5l2,-6l11,2l2,-5h-6l1,-11l8,-1l4,-2l1,-5l3,1v1h1l-1,1v15h-7v5l1,5l-8,8l-4,4v5h-5l-2,5v10l1,16h-26l-4,1h-15Z"/><path data-race-id="IL02" d="M438,263h2l-1,-15l30,-1v-15l-1,-14l4,-1h26l-1,-16v-10l2,-5h5v-5l4,-4l8,-8l-1,-5v-5h7v-15h1v3h1h-1v1h1v1h1v1l1,1h2l2,9v19l1,17v38l1,14v31l-9,1h-22l-47,3l-15,1Z"/><path data-race-id="IL03" d="M466,167l-1,-2h4v-5h2l6,1l3,-2l2,-2l-1,-8v-4l-1,-4h6l16,-1l5,7l7,-11l1,7l-5,2l-4,4l-1,11h6l-2,5l-11,-2l-2,6l-7,5v6h5v6l-13,1h-19l-10,2l2,-3v-16h9Z"/><path data-race-id="IL04" d="M479,126h13l2,-2l4,-6l10,3v6l-12,-3l-8,5h-7l1,7h1h-1h1l6,2l13,-5v4l7,-3l5,2l-7,11l-5,-7l-16,1l-3,-2l-4,-4Z"/><path data-race-id="IL05" d="M479,121v-9h-3l3,-5l9,8h5l2,-7l4,3l11,1l1,6l4,3h1v3h1v1h-1v1l-3,2l-5,-1v-6l-10,-3l-4,6l-2,2h-13v9l4,4l3,2h-6l1,4h-1v1l-5,-3l-1,-6h-1l1,-7l-2,-12Z"/><path data-race-id="IL06" d="M418,85h5v-15h44v14h-2l-1,16h-11v-5l-15,1v-11h-3l-4,7l2,2l1,6h-6v3l-3,7l5,2l5,-3v5h1l4,-5l5,4v1l1,-1l1,8l9,4v4l8,-2l3,4l-3,3l9,3h1l1,6l5,3v-1h1v4l-1,1l-7,3l-3,2l-7,-9h-6l-5,8l-3,-6l-5,-1l-1,-4l4,-1v-4l-5,-7l-7,1v-3l-2,-1l-12,-5l-1,-22l-2,-3Z"/><path data-race-id="IL07" d="M508,127l5,1l3,-2l1,1l2,1h1l-1,1h-2h1v1l-1,2h1v1l4,9l-3,-1l-1,5l-4,2l-8,1l4,-4l5,-2l-1,-7l-5,-2l-7,3v-4l-13,5l-6,-2h-1h1h-1l-1,-7h7l8,-5Z"/><path data-race-id="IL08" d="M428,103v-3h6l-1,-6l-2,-2l4,-7h3v11l15,-1v5h11l1,-16h10v2l-2,3l-6,-1v13l10,1l2,5l-3,5h3v9l-7,-3l2,12l-1,7l-9,-3l3,-3l-3,-4l-8,2v-4l-9,-4l-1,-8l-1,1v-1l-5,-4l-4,5h-1v-5l-5,3l-5,-2Z"/><path data-race-id="IL09" d="M473,89h3l1,1l2,5l-4,1l5,7l12,-1l-3,-4v-1l1,-9l9,2l2,-2v1h1v1h1v1v-1v2h1v2h1v1h1l1,1l1,1h1h-1l1,1v2h1v1l1,1h-1v1h1v4l1,1v2l1,3v1h1v1l1,1v1h-1h1h-1v2h1v2h1h-1l-4,-3l-1,-6l-11,-1l-4,-3l-2,7h-5l-9,-8l-2,-5l-10,-1v-13Z"/><path data-race-id="IL10" d="M442,40h20l10,4v6l5,2l3,-5l-2,-4h4v-11l-2,-6h8l4,3v15h-1l1,1h-1v3h-1v-1v2h-1v9v-1v7h1v3h1v4h1v3h1v1h1v2l1,1v1h1v2h1v2h1v1h1v2h1v2h1l-2,2l-9,-2l-1,9v1l3,4l-12,1l-5,-7l4,-1l-2,-5l-1,-1h-3l2,-3v-2h-8v-14h-5l2,-4l-2,-7h-10v-4h-10Z"/><path data-race-id="IL11" d="M417,160h4v-16l15,-1h7l1,4l5,1l3,6l5,-8h6l7,9l3,-2l7,-3l1,-1l1,8l-2,2l-3,2l-6,-1h-2v5h-4l1,2l-3,3h-9v16l-2,3l10,-2h15l1,2l-4,8l-7,2v8h-7l-7,3l-1,-7h-7l-1,-9h-7v-6l-8,1v-8h8l11,-2l1,-6l1,-14h-14v4l-5,-1l-2,-1l-3,1h-7Z"/><path data-race-id="IL12" d="M160,746v-5l1,-1v-1l1,-2v-1l1,-2l1,-1v-2l1,-1l1,-1l1,-1l1,-2l4,-6l1,-3v-1l1,-2v-4l1,-2l1,-2v-1l2,-2l1,-1l1,-2l4,-3l1,-1v-2l1,-1v-3h1v-4l-1,-2l-4,-7l2,-6l3,-2v-2l1,-2l2,-1h1l4,-4l1,-5v-1l-4,-4l-3,-2l-1,-1h-1v-1h-1l-3,-1l2,-5l4,-1v1v-1l5,1v-1h3v1h11l-3,5v40h36l8,1l1,41v34h75v-44h60v149l-16,1h-29l-1,41v11l4,-3l7,1v1l5,-1v14h-1v-1v1h1l-6,-1l-8,4l-7,6l-3,8l-9,9l-1,4l1,8l3,2l2,2l-2,1h-1l-1,1l-4,-5v-3l-2,-1l-1,-1l-3,-4l-1,-2l-8,-2l-1,2l1,2l1,1l3,1l3,4l-4,5l-1,-1h-1l-1,-2l-1,-1h-1l-1,-1l-4,-2l-4,-6l1,-2v-3l-1,-2v-1l-2,-1h-1l-3,-5l-1,-3l-4,-11l1,-3v-1l-1,-1h-2l-1,1v-1l-3,-4l-1,-3l1,-3l2,-1v-1l1,-1v-1h6l1,-1l1,-1v-1l1,-4l-2,-8v-2l-3,-3l-2,-3l-1,-1l-2,-5l-1,-2v-2h-1l-1,-1l-1,-2v-4l2,-2h3l1,-3l-2,-3l-1,-2l-1,-1l-1,-1v-2l1,-6l-1,-1h-1v-1h-2l-1,-1h-1l-2,-1l-2,-1l-1,-1l-3,-4l-2,-1h-2l-1,1l-2,-2v-2l1,-1l-1,-2v-1l-1,-2l-2,-1l-3,-2l-2,-2l-2,-3h-2l-2,-1h-3l-1,-1v-3l-5,-4h-2l-2,1l-1,2l-1,1l-2,1h-1l-7,-2l-2,-3l-1,-3v-1l1,-1l2,-2l3,-3l-1,-1h-8l-1,-1l-2,-2l-2,-2l-1,-1h-1v-1l-4,-1l-6,-8l-10,-5h-1v-1l-3,-1v-1l-2,-3l-1,-1l-1,-1l-4,-6l-2,-2l-3,-1l-4,-5l-1,-7v-1l-1,-1v-2Z"/><path data-race-id="IL13" d="M87,557h26l17,1v-10l5,-12l4,1h134v-15h-8v-14h-4v1l-1,-1v-1l-2,-8l-4,1l1,-7l-5,-3l6,-6l5,-2l2,6l2,3l7,2l1,1v3l14,2l17,-7l8,-6l2,2v-18h10v-23l-1,-40v-35l19,-1l-3,-8h4l2,12l-1,21l2,6h7v5h45l15,-1v25l23,-1l-1,-5h12l2,5h8l1,29l-1,1h-26l-2,3v12h-15l-1,15h-36l-2,10h-7v14h-28v53h-15v22h-14v33l-1,19h-90v29h-4l1,11l-6,3l-6,-1v-38l3,-5h-11v-1h-3v1l-5,-1v1v-1l-4,1l-2,5l-1,-1l-1,-1l-1,-1l-3,-2h-8l-1,-1l-6,-4l-3,-2l-3,-1h-7l-1,1l-1,2l-1,1v1l-5,8l-4,3h-1l-8,-3l-1,-1l-1,-2h-1l-3,-3v-4h-1v-4l-1,-5l-1,-1v-1l-2,-5l1,-4v-1l2,-4v-4l-1,-1l-1,-2v-1l-3,-11l1,-2l-1,-2v-3l-1,-1v-1l-2,-1l-1,-2l-7,-8l-2,-1l-1,-1l-4,-4h-1l-4,-3l-2,-2l-3,-2Z"/><path data-race-id="IL14" d="M392,109l2,-8l-1,-16h-15v-58h42l5,-1h55l2,6v11h-4l2,4l-3,5l-5,-2v-6l-10,-4h-20v15h10v4h10l2,7l-2,4h-39v15h-5v13l2,3l1,22l12,5l2,1v3l7,-1l5,7v4l-4,1h-7l-15,1v16h-4l2,2h7l3,-1l2,1l5,1v-4h14l-1,14l-1,6l-11,2h-8v8l8,-1v6h7l1,9h-7l-6,1h-25l-13,1l-1,-30l-15,1v-65l-1,-4Z"/><path data-race-id="IL15" d="M205,683l6,1l6,-3l-1,-11h4v-29h90l1,-19v-33h14v-22h15v-53h28v-14h7l2,-10h36l1,-15h15v-12l2,-3h26l1,-1l-1,-29h-8l-2,-5h-12l1,5l-23,1v-45h15v-22l7,2l22,-1v6l8,-1l16,1l4,-1h32l17,-1v30l1,1v41l1,2v50l1,3v39l1,2v28l-1,-1h-1v2h-4l-1,1h-1v1l-1,1v1l-1,1h-1v1h1l2,1l-1,1l-1,1v2h1v3l1,1v1h1v-1h2l-1,2v5l-1,1v1l-1,1h-1v1h-2v3h-3v2h2v1h-1l-1,-1l-1,1v2h-1v1l2,3h1l-1,1h-1v1h4l1,1v1h-1v1l1,1h2l1,1l1,1v1h1v1h1l-1,2v2l1,2v2l-1,2v1l1,1h2h-3l3,1l2,1h2v2h1l1,1v1l-1,1v4h-1v3h2v1h-2l-1,1v1v-1h-1v2h1v1h-1v2h-1l2,2h1l1,1v5l1,2v1l1,1h1l1,2v2h-3v1h3v1l-1,1v1l1,1v1h-1v1l-2,3v4l-1,1h-1v1l-4,1l-3,1l-2,3l-1,1l-1,2v1h1l-1,2v1h-1v2l1,1h1v1l-3,-1v2l-2,2v3l-2,1v1l1,1v1l1,2v2l-1,1l-1,-1h-1v1l-1,1l-3,2h-1v1h-4v1h-1v2h-1v1h2l1,1v2l-1,1v4l-1,1l-3,4v1h-1v1h-1l-1,1h-1l-1,1v1l-1,1v1l-1,1v7l-1,1l-1,1l-1,1h-1l-1,-4l1,-1v-1h-1v-1h-1v1h-1v4h-1v1h-1l-1,1v1h-2v-2l1,-1v-2h-3v1h-1l-1,3v1l1,2v1h-2v3h-2v-2h-1v-1l-1,-1v1l1,1v1l-1,6l5,4l1,1l1,1l1,3v-1h1v-1l1,-1v2l-1,1l-1,1v1l-1,1v1h-1v1l-1,-1h-2l-1,1v3h-1v1h-1l-1,-1l-1,1h-1v3h1l3,-1h1l1,-1h1v1h1l-1,1v2l-1,1l-3,2h-1v1h-6v3h1l4,1h-1l-1,1v6l1,1v3h-2l-1,1v4h1v1h-1v1h-1v-1h-1v-1h-1l-1,1v2h5l2,1v2l1,1h-1v1h-1l-2,-1l-1,1h-1l-1,-1h-1l-1,-1l-1,-1h-2v3l3,2v1h1v2l1,1l1,1l4,1v2h-1v1h-4l-1,-1h-2l-1,1v1h1v1l1,1l1,1h2v-1h4v1l-1,1h-1v5l-2,2v1l-1,1l-1,1h-1v1h-1l-1,1l-1,1l-2,1h-1v1l-1,1v2h-1v1h-1l-1,2v2l-1,1l1,2v3l2,3v4l1,1v1l1,1l1,1l1,1h1l3,4l2,1v1h1v4l-1,2h-1l-1,2h-6v1l-1,-1l-14,3h-2l-2,1h-3v1h-2v1l-2,1l-1,1l-1,1v1h-1l-4,2l-1,-1l-1,-1h-8l-5,6v6l-1,4l-2,2l-1,3v4h1v2h-1h1l1,1v1h1v1h1l3,5l1,1l1,1v1l1,1v2l1,1l1,4l-1,2v2l-1,3v2l-1,2l-1,1l-4,2h-6l-2,-1h-1l-3,-1l-2,-3l-5,-3l-1,-1h-3v-1l-4,-1v-1h-6l-7,-6h-1l-2,-2h-1v-1h-5v-1h-2l-1,-1l-4,-2l-3,-1h-2v-14l-5,1v-1l-7,-1l-4,3v-11l1,-41h29l16,-1v-149h-60v44h-75v-34l-1,-41l-8,-1h-36Z"/><path data-race-id="IL16" d="M230,258v-15h1v-60h30v-59h-7v-41l-1,-4l6,-1h60v8h10l2,-10l8,1l1,-6l-8,-2l-1,-9l-3,-2l-5,-1l-5,-2h-13v7l-15,-2v-34h4l13,1h51l9,1h3l7,-1h1v58h15l1,16l-2,8l-15,-2l1,4v65l15,-1l1,30l13,-1h25l6,-1h14l1,7v8h15l1,14v15l-30,1l1,15h-2l1,21l15,-1l47,-3h22l9,-1v6l1,7v42l1,1v34l-17,1h-32l-4,1l-16,-1l-8,1v-6l-22,1l-7,-2v22h-15v-37h-15l-2,-24h-25l-19,1l-1,-30h-15v-30h-40l3,-8h-39v1Z"/><path data-race-id="IL17" d="M67,338l1,-3v-5l1,-6l1,-1l1,-3v-7l2,-2l3,-2l1,-3l2,-3l1,-1v-1l7,-5h1v-3l1,-3v-5l1,-2v-4l1,-2v-3l-1,-1v-7l-2,-4v-1l-1,-1v-2l-1,-1l-1,-1v-1h-1l-3,-1l-5,-5l-6,-8v-3l1,-1l1,-3l2,-3l1,-3v-4l1,-3l1,-3l1,-1v-1l4,-6l4,-2h1l5,2h2l2,-1l3,-2l7,-3h1l1,1h7l2,1h1l2,-1h3l3,-1h3l7,-6v-1l4,-2l6,-1h1l1,1l4,-1h2l2,-3l2,-2l1,-1l1,-2l2,-1l4,-1l2,-1l1,-1l1,-2v-4l-1,-3l1,-1v-3l1,-3l1,-1l1,-1v-4l3,-6l1,-2l2,-1h1l2,-1v-1l8,-4v-6l1,-2v-3h1v-1l1,-1v-1l1,-1v-13l2,-6l-1,-2v-2h-1v-1l-1,-1v-4l-1,-1l1,-1v-7l-1,-1h-2l-2,-4l-1,-1l-5,-3h-1l-3,-1l-5,-3l-1,-1l-2,-1h-1l-2,-1l-2,-2l-1,-1l-1,-2l-2,-3l-1,-1v-4l1,-4v-3l-1,-1l-1,-2l-1,-1l-1,-1l-1,-1l-1,-1v-1l-1,-1v-1h-1l-1,-1l-1,-1h-1l-3,-1l-4,-4v-2l-1,-1l-2,-1h-2l-1,-1l-2,-1l-2,-2h-1l-1,-3l2,-3h111l11,1h35v34l15,2v-7h13l5,2l5,1l3,2l1,9l8,2l-1,6l-8,-1l-2,10h-10v-8h-60l-6,1l1,4v41h7v59h-30v60h-1v15h-15l-1,30v60h15l25,1l-1,-3l-2,-6l6,-2v-9h4l9,6l-5,3l1,4v2l2,5l-5,2v22h-14v-2h-22l-5,9l-9,9l-6,2l-2,8l-9,17l-5,1l-5,7l-4,-1h-23l-6,-1v-14l1,-61l-17,-1h-22l-5,-1l-15,-1l-21,1l-16,-1l1,-1Z"/><path data-race-id="IL18" d="M15,419v-8l1,-1l1,-1v-2l1,-4l2,-6l1,-2v-2l2,-2l2,-1l1,-1l1,-1l7,-4l-2,-10l2,-3l1,-2v-1l-1,-3l-2,-3l-1,-1l-1,-1l1,-5l1,-1l4,-5l9,-4h2l1,-1h10l16,1l21,-1l15,1l5,1h22l17,1l-1,61v14l6,1h23l4,1l5,-7l5,-1l9,-17l2,-8l6,-2l9,-9l5,-9h22v2h14v-22l5,-2l-2,-5v-2l-1,-4l5,-3l-9,-6h-4v9l-6,2l2,6l1,3l-25,-1h-15v-60l1,-30h15l30,1v-1h39l-3,8h40v30h15l1,30l19,-1h25l2,24h15v57l-15,1h-45v-5h-7l-2,-6l1,-21l-2,-12h-4l3,8l-19,1v35l1,40v23h-10v18l-2,-2l-8,6l-17,7l-14,-2v-3l-1,-1l-7,-2l-2,-3l-2,-6l-5,2l-6,6l5,3l-1,7l4,-1l2,8v1l1,1v-1h4v14h8v15h-134l-4,-1l-5,12v10l-17,-1h-26v-1l-1,-1h-3v-1h-1l-1,-1h-1l-1,-1l-8,-8l-1,-4l-3,-5v-2l-1,-1h-4l-2,-1l-3,-5l-1,-3v-1h-1v-1l-2,-1h-1l-5,-4v-1l-1,-1l-1,-1v-1l-1,-2l-2,-1l-2,-1h-1l-5,-5l-3,-5v-4h1v-5l-2,-4l-2,-1l-3,-3l-2,-1v-1l-2,-5l4,-6v-5l-2,-1l-3,-6l-1,-1v-3l-2,-3v-6l-1,-3l-1,-1v-5l-1,-1v-13Z"/>  <path class="mesh" d="M477,187h4l13,-1v-6h-5v-6l7,-5l2,-6l11,2l2,-5h-6l1,-11l8,-1l4,-2l1,-5l3,1M467,84h8v2l-2,3h3l1,1l2,5l-4,1l5,7l12,-1l-3,-4v-1l1,-9l9,2l2,-2M481,149l-1,1l-7,3l-3,2l-7,-9h-6l-5,8l-3,-6l-5,-1l-1,-4l4,-1v-4l-5,-7l-7,1v-3l-2,-1l-12,-5l-1,-22l-2,-3v-13h5v-15h39l2,-4l-2,-7h-10v-4h-10v-15h20l10,4v6l5,2l3,-5l-2,-4h4v-11l-2,-6M486,141l-3,-2l-4,-4v-9h13l2,-2l4,-6l10,3v6l-12,-3l-8,5h-7l1,7h1l6,2l13,-5v4l7,-3l5,2M183,645l2,-5l4,-1v1v-1l5,1v-1h3v1h11l-3,5v40h36l8,1l1,41v34h75v-44h60v149l-16,1h-29l-1,41v11l4,-3l7,1v1l5,-1v14M522,144v15h-7v5l1,5l-8,8l-4,4M481,145h-1v1l-5,-3l-1,-6h-1l1,-7l-2,-12l7,3v-9h-3l3,-5l9,8h5l2,-7l4,3l11,1l1,6l4,3M516,126l-3,2l-5,-1M532,279l-9,1h-22l-47,3l-15,1l-1,-21h2l-1,-15l30,-1v-15l-1,-14M462,70h5v14h-2l-1,16h-11v-5l-15,1v-11h-3l-4,7l2,2l1,6h-6v3l-3,7l5,2l5,-3v5h1l4,-5l5,4v1l1,-1l1,8l9,4v4l8,-2l3,4l-3,3l9,3M87,557h26l17,1v-10l5,-12l4,1h134v-15h-8v-14h-4v1l-1,-1v-1l-2,-8l-4,1l1,-7l-5,-3l6,-6l5,-2l2,6l2,3l7,2l1,1v3l14,2l17,-7l8,-6l2,2v-18h10v-23l-1,-40v-35l19,-1l-3,-8h4l2,12l-1,21l2,6h7v5h45l15,-1v25l23,-1l-1,-5h12l2,5h8l1,29l-1,1h-26l-2,3v12h-15l-1,15h-36l-2,10h-7v14h-28v53h-15v22h-14v33l-1,19h-90v29h-4l1,11l-6,3l-6,-1M445,203h-7l-6,1h-25l-13,1l-1,-30l-15,1v-65l-1,-4l15,2l2,-8l-1,-16h-15v-58M413,406v-20h15v-22l7,2l22,-1v6l8,-1l16,1l4,-1h32l17,-1M413,386v-37h-15l-2,-24h-25l-19,1l-1,-30h-15v-30h-40l3,-8h-39v1l-30,-1v-15h1v-60h30v-59h-7v-41l-1,-4l6,-1h60v8h10l2,-10l8,1l1,-6l-8,-2l-1,-9l-3,-2l-5,-1l-5,-2h-13v7l-15,-2v-34M230,258h-15l-1,30v60h15l25,1l-1,-3M504,181v5h-5l-2,5v10l1,16h-26l-4,1h-15v-8l7,-3h7v-8l7,-2l4,-8l-1,-2h-15l-10,2l2,-3v-16h9l3,-3l-1,-2h4v-5h2l6,1l3,-2l2,-2l-1,-8v-4l-1,-4h6l16,-1l5,7l7,-11l1,7l-5,2l-4,4M473,89l-6,-1v13l10,1l2,5M253,346l-2,-6l6,-2v-9h4l9,6l-5,3l1,4v2l2,5l-5,2v22h-14v-2h-22l-5,9l-9,9l-6,2l-2,8l-9,17l-5,1l-5,7l-4,-1h-23l-6,-1v-14l1,-61l-17,-1h-22l-5,-1l-15,-1l-21,1l-16,-1M449,173M431,162M429,161M426,162M425,162M419,162M417,160h4M421,160v-16l15,-1M436,143h7M453,210l-1,-7h-7M445,203l-1,-9h-7M437,194v-6M437,188l-8,1v-8h8M437,181l11,-2l1,-6M449,173l1,-14M450,159h-5M445,159h-2M443,159h-7M436,159v4M436,163l-5,-1M431,162l-2,-1M429,161l-3,1M426,162h-1M425,162h-6M419,162l-2,-2"/></svg>