<svg version="1.1" xmlns="http://www.w3.org/2000/svg" width="609" height="1000" viewBox="0 0 609 1000">
  <path d="M161 25
h 55
l 8 1
h 42
l 12 1
h 48
l 11 1
h 49
l 27 -1
h 80
l 100 -2
l -6 26
l -2 12
l -13 88
h -2
l -26 1
h -12
v 56
l 1 13
v 56
l 1 3
v 25
l 1 2
v 59
l 1 1
v 106
l 1 2
v 51
l 1 2
v 22
l 1 3
v 12
h -3
v 2
h -5
v 1
l -2 2
v 1
l -1 1
h -1
v 1
h 3
v 1
l -1 1
l -1 1
l 1 1
v 3
l 1 1
l 1 1
v 1
l 1 -1
h 1
v 6
l -1 1
v 2
h -2
v 1
l -1 1
h -2
v 2
h 1
v 1
h -3
v 2
h 1
v 1
l -1 -1
l -1 1
l -1 1
l -1 1
v 1
l 3 2
l -1 2
h -1
h 1
v 1
l 1 -1
h 1
v 1
h 2
v 4
h 3
l 1 1
v 1
h 1
v 1
l 1 1
v 2
l -1 1
l 1 1
l 1 2
v 2
l -2 2
v 1
h 3
h -3
l 1 1
l 4 1
l 2 1
v 1
l 1 1
l 1 1
h 1
v 1
l -1 1
h -1
v 1
l 1 1
l -1 1
v 1
l -1 1
l 1 1
h -1
v 1
h 2
l -1 1
h -1
l -1 1
v 1
v -1
l -1 1
h 1
v 1
h 1
h -2
v 1
l 1 1
v 1
h -2
l 2 1
l 1 1
h 1
v 6
l 1 2
h 1
v 2
h 1
v 1
h 1
v 1
l -1 2
h -1
h 2
v 2
h -1
v 2
h 1
l -1 2
v 1
l -1 3
l -1 3
l -1 2
h -1
v 1
l -4 1
l -5 3
l -2 2
v 2
l 1 1
l -1 1
v 1
l -1 1
v 1
l 1 1
h 1
l 1 1
l -1 1
h -1
l -2 -1
h -1
v 3
l -1 1
v 3
l -2 1
l 1 2
l 1 2
l 1 1
l -1 2
h -2
v -1
h -1
v 2
l -1 1
l -3 2
h -4
l -1 1
v 1
l -2 1
v 2
h 3
v 3
l -1 1
v 4
l -3 5
l -3 2
h -1
l -1 1
h -1
v 1
l -1 2
l -1 1
v 7
l -1 2
l -1 1
l -1 1
l -1 -1
v -6
h -2
l -1 1
v 3
l -1 1
h -1
v 1
l -1 1
v 1
h -1
l -1 -2
l 1 -1
v -1
h 1
l -1 -1
v -1
h -2
v 1
h -1
v 1
l -1 1
v 1
h -1
l -1 1
v 1
h 1
l 1 2
l -1 1
h -1
v 2
l -1 1
l -1 -1
v -1
l -1 -1
v -1
h -1
l 1 2
l -1 6
l 5 5
h 1
l 1 1
v 3
h 1
v -1
l 2 -1
v 2
h -1
l -1 2
v 1
h -1
v 1
l -1 1
h -1
l -1 -1
v 1
l -1 -1
l -1 1
v 3
l -1 1
h -3
l -1 1
l -1 1
h 1
v 1
h 2
l 2 -1
h 2
l 1 -1
v 3
l -1 2
l -2 2
h -1
l -1 1
h -6
v 3
l 1 1
l 3 1
l -1 1
v 1
l -1 1
v 1
h 1
v 2
l 1 1
v 3
l -1 1
h -2
v 3
l 1 1
v 2
h -3
v -2
h -1
l -1 1
l -1 1
h 1
v 1
l 5 1
h 1
v 1
l 1 1
v 2
l -1 1
v -1
h -6
l -1 -1
h -1
v -1
h -2
v 2
l 3 2
v 2
h 1
v 1
l 1 2
h 1
l 4 2
v 1
l -1 1
h -1
l -1 1
h -1
l -1 -1
h -1
l -1 -1
h -1
l -1 1
v 2
l 1 1
h 1
v 1
h 3
l 3 -1
v 1
h 1
v 1
h -1
v 1
l -1 2
v 2
h -1
l -1 3
v 1
h -1
l -1 1
l -1 1
h -1
v 1
h -2
v 1
l -2 2
h -2
v 2
l -1 1
v 1
l -2 3
l -1 1
v 4
l 1 2
v 1
l 1 2
v 1
l 1 2
v 2
l 1 1
v 1
h 1
l 1 1
l 1 1
v 1
h 1
l 2 3
v 1
h 2
v 1
h 1
v 1
h 1
v 2
l -2 3
v 1
l -1 2
h -1
v -1
l -5 1
h -2
l -12 3
h -5
l -2 1
h -2
l -1 1
l -1 1
h -1
v 1
h -1
l -3 2
l -2 3
h -2
v -2
h -1
l -1 -1
h -2
l -9 5
l -2 7
v 2
l -2 4
v 1
l -1 1
l -1 2
v 2
h 1
v 3
h 1
h -1
v 1
h 1
v 1
h 1
l 1 1
v 1
l 1 1
l 2 3
l 1 1
l 1 1
l 1 1
v 1
l 1 1
v 2
l 2 4
l -1 2
v 1
l -2 5
h 1
l -1 1
v 2
l -1 1
l -3 2
h -4
v 1
h -1
l -2 -1
h -2
l -1 -1
l -4 -1
l -2 -2
v -1
l -5 -3
h -1
l -1 -1
h -2
l -3 -2
h -1
v -1
h -5
l -8 -5
v -1
l -2 -2
h -2
v -1
h -4
l -1 -1
h -1
l -2 -1
l -7 -3
h -3
h 2
h -1
l -11 2
l -9 8
l -2 6
l -12 14
v 5
l 5 5
l 1 2
h 1
l -2 1
h -2
l -1 1
l -3 -5
l -1 -2
v -1
l -2 -1
v -1
l -4 -4
v -2
l -2 -1
l -7 -1
v 4
h 1
l 1 1
l 2 1
l 2 2
l 1 2
l -1 3
l -2 2
l -2 -1
l -1 -2
l -1 -1
l -1 -1
l -2 -1
l -3 -1
l -4 -6
l 1 -3
v -2
l -1 -2
l -1 -1
l -1 -1
l -3 -2
l -5 -11
l -1 -6
l 1 -3
l -1 -1
l -1 -1
h -3
l -3 -4
v -6
h 1
l 1 -1
l 1 -1
v -1
l 1 -1
h 2
l 3 -1
h 2
v -1
l 1 -1
l 1 -4
l -2 -9
l -1 -1
l -2 -3
l -2 -3
l -1 -1
l -2 -5
l -1 -2
l -1 -2
l -1 -1
l -1 -2
v -4
l 1 -3
l 3 1
h 1
l 1 -3
l -2 -3
l -1 -2
l -1 -1
l -1 -1
v -9
l -1 -1
h -1
l -1 -1
h -2
l -3 -1
l -1 -2
l -5 -4
l -1 -1
h -3
l -2 -1
v -2
l 1 -1
v -2
l -1 -1
l -1 -2
l -2 -1
l -3 -2
l -3 -2
l -1 -3
h -3
l -1 -1
h -2
l -2 -1
v -3
l -5 -4
l -1 -1
l -1 1
l -2 1
l -1 2
l -1 1
h -2
l -1 1
l -5 -1
l -2 -1
l -1 -3
l -2 -3
v -2
l 3 -2
l 3 -3
l -1 -2
l -5 1
h -3
l -1 -1
l -1 -2
l -3 -2
l -1 -1
l -1 -1
l -3 -2
l -7 -7
l -6 -2
l -1 -1
l -3 -2
l -1 -1
l -3 -1
v -1
l -3 -3
v -1
l -1 -1
l -4 -7
l -2 -1
l -3 -1
l -5 -12
l -1 -3
v -10
l 1 -1
v -2
l 1 -1
l 1 -1
v -2
l 1 -2
l 1 -1
v -1
l 2 -1
v -1
l 1 -2
l 4 -6
l 1 -4
l 1 -3
l 1 -3
l 1 -4
v -1
l 2 -2
l 1 -1
l 1 -3
h 1
l 3 -2
v -1
l 1 -1
l 1 -1
v -2
l 1 -2
v -4
l -1 -2
v -1
l -3 -6
l 2 -6
l 2 -2
v -2
l 2 -2
l 1 -1
h 1
l 5 -4
v -5
l 1 -1
l -4 -4
h -1
l -2 -2
l -1 -1
l -2 -1
h -1
l -3 -1
l -1 -2
l -1 -1
h -1
l -1 -1
l -1 -1
h -3
l -4 -1
h -1
l -2 -1
l -5 -3
l -3 -2
l -3 -1
h -3
l -1 -1
h -2
l -1 1
l -1 1
l -1 1
l -1 2
l -1 1
l -4 7
l -5 4
l -8 -1
l -1 -2
l -1 -1
l -1 -2
v -1
l -3 -3
l -1 -3
v -1
l -1 -3
v -5
h -1
v -2
l -3 -5
l 1 -5
l 3 -5
l -1 -3
v -2
l -1 -2
h -1
l -2 -11
v -6
l -1 -2
v -2
l -2 -1
h -1
v -1
l -7 -8
l -2 -2
l -1 -1
l -3 -2
l -2 -1
l -4 -4
l -2 -1
l -3 -2
v -2
h -1
l -1 -1
l -2 -1
l -1 -1
l -2 -1
h -1
v -1
l -8 -7
l -1 -4
l -3 -6
l -1 -1
v -1
l -4 -1
h -2
l -3 -5
l -1 -3
v -2
h -1
l -2 -1
h -1
v -1
l -5 -4
l -1 -1
v -1
h -1
v -1
l -1 -2
l -2 -1
l -3 -1
v -1
l -2 -3
l -3 -2
l -3 -5
v -3
l 1 -4
v -2
l -2 -3
l -2 -2
l -4 -3
l -1 -1
v -1
l -1 -5
l 2 -6
l 1 -2
v -1
l -1 -1
l -1 -1
v -1
l -3 -5
l -1 -2
v -2
l -2 -4
l -1 -6
v -4
l -1 -4
v -2
l -1 -1
v -4
l 1 -2
l -1 -2
l 1 -4
v -6
l 1 -3
l 1 -2
v -6
l 3 -5
l 1 -3
l 1 -1
l 2 -3
l 1 -1
h 1
l 1 -1
l 7 -4
l -1 -10
l 1 -3
l 1 -2
v -2
l -1 -2
l -1 -4
h -2
v -6
l 2 -1
l 4 -5
l 8 -4
l 2 -1
h 12
l 1 -1
l 7 -5
v -1
l 1 -3
v -5
l 1 -5
l 1 -2
l 1 -3
v -3
l 1 -4
l 2 -2
l 2 -2
l 1 -2
l 2 -3
h 1
l 1 -1
v -1
l 6 -5
l 2 -1
v -2
l 1 -3
v -1
l -1 -3
l 1 -2
v -2
l 1 -2
v -2
l 1 -1
l -1 -2
l 1 -1
l -1 -1
v -1
l -1 -2
l 1 -1
v -3
l -2 -4
v -1
l -1 -2
l -1 -1
l -1 -1
v -1
l -1 -1
l -1 -1
h -2
l -6 -6
l -4 -5
l -2 -3
l 1 -2
v -1
l 1 -3
l 1 -1
l 2 -3
v -2
l 1 -3
v -5
l 1 -2
l 1 -2
l 1 -1
l 4 -6
l 3 -1
h 2
l 2 1
l 2 1
h 3
l 2 -1
l 3 -2
l 7 -3
h 2
l 4 1
h 11
l 2 -1
h 2
l 2 -1
l 6 -5
l 1 -1
l 4 -2
l 6 -1
h 8
l 1 -2
l 1 -1
l 2 -2
l 1 -1
l 1 -2
h 1
l 1 -1
l 4 -1
l 2 -1
l 1 -1
v -10
l 1 -3
l 1 -3
l 1 -1
l 1 -1
v -4
l 3 -6
l 1 -1
l 2 -2
h 1
l 1 -1
l 1 -1
l 8 -4
v -6
l 1 -2
v -2
l 1 -1
v -2
l 1 -1
l 1 -1
v -13
l 1 -6
v -3
l -1 -1
v -1
l -2 -1
v -6
l 1 -1
v -6
l -1 -1
h -2
l -2 -4
l -1 -1
l -5 -3
h -2
l -2 -1
l -1 -1
l -4 -2
l -1 -1
l -2 -1
h -1
l -2 -1
l -2 -2
l -1 -1
l -1 -2
l -2 -3
l -1 -1
v -4
l 1 -4
v -3
l -1 -1
l -2 -2
v -2
l -2 -1
l -1 -1
l -1 -2
v -1
h -2
v -1
l -1 -1
h -1
l -3 -1
l -4 -4
v -1
l -1 -2
l -2 -1
h -2
l -1 -1
l -2 -1
l -2 -2
l -1 -2
l -1 -1
l 2 -3
h 21
Z"/>
<g class="districts">
<path data-race-id="IL01" d="M454 211
l 5 -3
h 10
v -8
h 4
l 7 -9
l -2 -3
l 5 -1
h 12
l 1 -7
l -5 1
v -9
l 6 -2
l 5 -6
l 5 2
h 4
l 1 -6
h -6
l 2 -10
l 7 1
l 9 -8
v 2
l 1 12
v 1
h -1
l -7 2
v 10
l -4 5
l -3 3
l -4 4
l -2 3
l -6 7
l 1 10
v 15
l -2 1
h -43
Z"/>
<path data-race-id="IL02" d="M440 264
l 1 -15
l 29 -1
v -15
l -1 -15
h 28
l 2 -1
v -15
l -1 -10
l 6 -7
l 2 -3
l 4 -4
l 3 -3
l 4 -5
v -10
l 7 -2
h 1
v -1
l -1 -12
l 1 2
v 2
l 1 1
l 6 2
v 56
l 1 13
v 56
l 1 3
l -12 1
h -22
l -21 2
h -23
l -1 1
h -14
Z"/>
<path data-race-id="IL03" d="M467 168
v -3
h 3
v -5
l 8 2
l 4 -2
l 2 -2
l -2 -8
v -4
l -1 -4
h 7
l 9 -1
h 6
l 4 7
l 6 -5
l 3 -6
l 1 7
h -4
l -5 6
l -2 10
h 6
l -1 6
h -4
l -5 -2
l -5 6
l -6 2
v 9
l 5 -1
l -1 7
h -12
l -5 1
h -23
v -16
l 9 -1
Z"/>
<path data-race-id="IL04" d="M481 127
h 11
l 9 -7
l 7 -3
l 3 6
l -1 5
l -12 -3
l -8 5
h -8
l 2 8
l 5 2
l 1 -1
h 1
l 6 -4
l 7 -1
v 4
l 7 -3
l 5 2
l -3 6
l -6 5
l -4 -7
h -6
l -9 1
l -7 -7
v -2
Z"/>
<path data-race-id="IL05" d="M480 121
l -2 -8
l 2 -6
l 12 9
l 7 -7
l 2 3
l 10 1
l 4 6
l 2 3
l 1 5
h -1
l -3 2
l -4 -1
l 1 -5
l -3 -6
l -7 3
l -9 7
h -11
v 8
l 7 7
h -7
l 1 4
h -1
v 1
l -4 -4
l -1 -5
h -1
l 1 -9
l -2 -10
Z"/>
<path data-race-id="IL06" d="M420 86
h 5
v -15
h 19
l 20 -1
h 5
v 15
h -2
v 3
l -1 13
h -11
v -5
h -11
l -4 1
v -12
h -3
l -4 8
l 2 1
l 1 7
h -6
l -2 10
l 4 2
l 5 -4
v 6
h 1
l 5 -5
l 4 4
h 1
l 1 6
l 9 10
l 11 -2
l -4 10
h 11
l 1 5
l 4 4
v -1
h 1
v 4
l -1 1
l -6 3
l -6 1
l -5 -9
l -10 9
l -3 -6
h -6
l -1 -5
l 5 -1
l -3 -7
l -2 -4
h -7
v -3
l -3 -1
l -12 -4
v -23
l -2 -2
Z"/>
<path data-race-id="IL07" d="M510 128
l 4 1
l 3 -2
h 1
l 2 3
l 4 13
l -9 8
l -7 -1
l 5 -6
h 4
l -1 -7
l -5 -2
l -7 3
v -4
l -7 1
l -6 4
h -1
l -1 1
l -5 -2
l -2 -8
h 8
l 8 -5
Z"/>
<path data-race-id="IL08" d="M435 94
l -2 -1
l 4 -8
h 3
v 12
l 4 -1
h 11
v 5
h 11
l 1 -13
v -3
h 10
l -2 5
l -6 -1
l 1 13
l 9 1
l 1 4
l -2 6
l 2 8
l -6 -2
l 2 10
l -1 9
h -10
l 4 -10
l -11 2
l -9 -10
l -1 -6
h -1
l -4 -4
l -5 5
h -1
v -6
l -5 4
l -4 -2
l 2 -10
h 6
Z"/>
<path data-race-id="IL09" d="M475 90
h 3
l -1 7
l 4 7
h 11
l -1 -5
v -10
l 12 2
v -2
v 1
l 7 8
l 7 24
l -2 -3
l -4 -6
l -10 -1
l -2 -3
l -7 7
l -12 -9
l -1 -4
l -9 -1
l -1 -13
Z"/>
<path data-race-id="IL10" d="M444 41
h 20
l 10 4
l 2 8
l 6 -3
l -2 -6
h 4
l -2 -17
h 12
l 1 4
v 4
l -2 14
l -2 8
v 6
l 4 13
l 5 9
l 3 4
v 2
l -12 -2
v 10
l 1 5
h -11
l -4 -7
l 1 -7
h -3
l 2 -5
h -8
v -15
h -5
v -10
h -10
v -4
h -10
Z"/>
<path data-race-id="IL11" d="M419 160
h 4
v -14
l 14 -2
h 7
l 1 5
h 6
l 3 6
l 10 -9
l 5 9
l 6 -1
l 6 -3
l 1 -1
l 2 8
l -2 2
l -4 2
l -8 -2
v 5
h -3
v 3
l -3 3
l -9 1
v 16
h 23
l 2 3
l -7 9
h -4
v 8
h -10
l -5 3
v -8
l -8 1
l -2 -7
l -5 -2
v -6
h -7
l -1 -7
l 7 -1
h 4
l 8 -2
l 1 -5
l -1 -5
l 2 -10
l -5 1
h -10
v 4
l -10 -1
h -1
l -6 -1
Z"/>
<path data-race-id="IL12" d="M160 746
v -5
l 1 -1
v -2
l 1 -1
l 1 -1
v -2
l 1 -2
l 1 -1
v -1
l 2 -1
v -1
l 1 -2
l 4 -6
l 1 -4
l 1 -3
l 1 -3
v -2
l 1 -2
v -1
l 2 -2
l 1 -1
l 1 -3
h 1
l 3 -2
v -1
l 1 -1
l 1 -1
v -2
l 1 -2
v -4
l -1 -2
v -1
l -3 -6
l 2 -6
l 2 -2
v -2
l 2 -2
l 1 -1
h 1
l 5 -4
v -5
l 1 -1
l -4 -4
h -1
l -2 -2
l -1 -1
l -2 -1
h -1
l -3 -1
v -1
l 1 -2
l 2 -2
l 3 -1
h 1
v 1
v -1
h -1
h 5
l 14 1
l -2 5
v 40
h 40
l 4 1
v 75
h 75
v -44
h 60
v 150
h -45
l -1 46
v 6
l 3 -3
l 8 1
h 5
v 14
h -2
h 2
h -10
l -12 11
l -2 5
l -9 10
l -2 4
v 5
l 5 5
l 1 2
h 1
l -2 1
h -2
l -1 1
l -3 -5
l -1 -2
v -1
l -2 -1
v -1
l -4 -4
v -2
l -2 -1
l -7 -1
v 4
h 1
l 1 1
l 2 1
l 2 2
l 1 2
l -1 3
l -2 2
l -2 -1
l -1 -2
l -1 -1
l -1 -1
l -2 -1
l -3 -1
l -4 -6
l 1 -3
v -2
l -1 -2
l -1 -1
l -1 -1
l -3 -2
l -5 -11
l -1 -6
l 1 -3
l -1 -1
l -1 -1
h -3
l -3 -4
v -6
h 1
l 1 -1
l 1 -1
v -1
l 1 -1
h 2
l 3 -1
h 2
v -1
l 1 -1
l 1 -4
l -2 -9
l -1 -1
l -2 -3
l -2 -3
l -1 -1
l -2 -5
l -1 -2
l -1 -2
l -1 -1
l -1 -2
v -4
l 1 -3
l 3 1
h 1
l 1 -3
l -2 -3
l -1 -2
l -1 -1
l -1 -1
v -9
l -1 -1
h -1
l -1 -1
h -2
l -3 -1
l -1 -2
l -5 -4
l -1 -1
h -3
l -2 -1
v -2
l 1 -1
v -2
l -1 -1
l -1 -2
l -2 -1
l -3 -2
l -3 -2
l -1 -3
h -3
l -1 -1
h -2
l -2 -1
v -3
l -5 -4
l -1 -1
l -1 1
l -2 1
l -1 2
l -1 1
h -2
l -1 1
l -5 -1
l -2 -1
l -1 -3
l -2 -3
v -2
l 3 -2
l 3 -3
l -1 -2
l -5 1
h -3
l -1 -1
l -1 -2
l -3 -2
l -1 -1
l -1 -1
l -3 -2
l -7 -7
l -6 -2
l -1 -1
l -3 -2
l -1 -1
l -3 -1
v -1
l -3 -3
v -1
l -1 -1
l -4 -7
l -2 -1
l -3 -1
l -5 -12
l -1 -3
v -1
Z"/>
<path data-race-id="IL13" d="M88 556
l 10 1
h 23
l 10 1
l -1 -6
l 5 -16
l 37 1
h 102
v -15
h -8
l -1 -14
h -1
h 1
h -1
l -1 1
l -1 -1
h -1
v 1
l -1 -2
l -1 -7
h -4
v -8
l -4 -1
l 2 -5
l 9 -3
l 1 5
h 2
l 1 1
l 7 4
l 1 1
v 4
l 14 1
l 4 1
l 5 -5
l 7 -1
l 4 -4
l 5 -2
h 2
v -18
h 10
v -62
l -1 -1
v -34
l 17 -2
l -1 -8
h 4
l 2 13
l -1 21
l 2 5
h 7
v 5
h 60
v 24
h 23
l -1 -5
h 12
l 2 5
h 8
l 1 29
l -27 1
l -3 2
v 12
l -14 1
v 14
h -29
l -9 1
l -1 9
h -7
v 15
h -28
v 52
h -15
v 22
h -15
v 33
l -1 19
l -24 1
l -26 -1
h -39
l -1 6
v 23
h -3
l 1 9
l -2 4
h -10
v -38
l 2 -5
l -14 -1
h -5
h 1
v 1
v -1
h -1
l -3 1
l -2 2
l -1 2
l -1 -1
l -1 -1
h -1
l -1 -1
l -1 -1
h -3
l -4 -1
h -1
l -2 -1
l -5 -3
l -3 -2
l -3 -1
h -3
l -1 -1
h -2
l -1 1
l -1 1
l -1 1
l -1 2
l -1 1
l -4 7
l -5 4
l -9 -3
l -1 -1
l -1 -2
v -1
l -3 -3
l -1 -3
v -1
l -1 -3
v -5
h -1
v -2
l -3 -5
l 1 -5
l 3 -5
l -1 -3
v -2
l -1 -2
h -1
l -2 -11
v -6
l -1 -2
v -2
l -2 -1
h -1
v -1
l -7 -8
l -2 -2
l -1 -1
l -3 -2
l -2 -1
l -4 -4
l -2 -1
l -3 -2
Z"/>
<path data-race-id="IL14" d="M393 109
l 2 -7
v -16
h -15
v -58
h 6
l 27 -1
h 69
l 2 17
h -4
l 2 6
l -6 3
l -2 -8
l -10 -4
h -20
v 15
h 10
v 4
h 10
v 10
l -20 1
h -19
v 15
h -5
v 13
l 2 2
v 23
l 12 4
l 3 1
v 3
h 7
l 2 4
l 3 7
l -5 1
h -7
l -14 2
v 14
h -4
l 1 2
l 6 1
h 1
l 10 1
v -4
h 10
l 5 -1
l -2 10
l 1 5
l -1 5
l -8 2
h -4
l -7 1
l 1 7
h 7
v 6
l 5 2
l 2 7
h -7
l -13 1
h -31
v -17
l -1 -12
h -14
v -50
l -1 -18
l 4 2
Z"/>
<path data-race-id="IL15" d="M206 683
h 10
l 2 -4
l -1 -9
h 3
v -23
l 1 -6
h 39
l 26 1
l 24 -1
l 1 -19
v -33
h 15
v -22
h 15
v -52
h 28
v -15
h 7
l 1 -9
l 9 -1
h 29
v -14
l 14 -1
v -12
l 3 -2
l 27 -1
l -1 -29
h -8
l -2 -5
h -12
l 1 5
h -23
v -44
h 15
v -23
l 7 3
l 22 -1
v 5
h 55
v -1
h 22
l 1 -1
v 104
l 1 2
v 51
l 1 2
v 22
l 1 3
v 12
h -3
v 2
h -5
v 1
l -2 2
v 1
l -1 1
h -1
v 1
h 3
v 1
l -1 1
l -1 1
l 1 1
v 3
l 1 1
l 1 1
v 1
l 1 -1
h 1
v 6
l -1 1
v 2
h -2
v 1
l -1 1
h -2
v 2
h 1
v 1
h -3
v 2
h 1
v 1
l -1 -1
l -1 1
l -1 1
l -1 1
v 1
l 3 2
l -1 2
h -1
h 1
v 1
l 1 -1
h 1
v 1
h 2
v 4
h 3
l 1 1
v 1
h 1
v 1
l 1 1
v 2
l -1 1
l 1 1
l 1 2
v 2
l -2 2
v 1
h 3
h -3
l 1 1
l 4 1
l 2 1
v 1
l 1 1
l 1 1
h 1
v 1
l -1 1
h -1
v 1
l 1 1
l -1 1
v 1
l -1 1
l 1 1
h -1
v 1
h 2
l -1 1
h -1
l -1 1
v 1
v -1
l -1 1
h 1
v 1
h 1
h -2
v 1
l 1 1
v 1
h -2
l 2 1
l 1 1
h 1
v 6
l 1 2
h 1
v 2
h 1
v 1
h 1
v 1
l -1 2
h -1
h 2
v 2
h -1
v 2
h 1
l -1 2
v 1
l -1 3
l -1 3
l -1 2
h -1
v 1
l -4 1
l -5 3
l -2 2
v 2
l 1 1
l -1 1
v 1
l -1 1
v 1
l 1 1
h 1
l 1 1
l -1 1
h -1
l -2 -1
h -1
v 3
l -1 1
v 3
l -2 1
l 1 2
l 1 2
l 1 1
l -1 2
h -2
v -1
h -1
v 2
l -1 1
l -3 2
h -4
l -1 1
v 1
l -2 1
v 2
h 3
v 3
l -1 1
v 4
l -3 5
l -3 2
h -1
l -1 1
h -1
v 1
l -1 2
l -1 1
v 7
l -1 2
l -1 1
l -1 1
l -1 -1
v -6
h -2
l -1 1
v 3
l -1 1
h -1
v 1
l -1 1
v 1
h -1
l -1 -2
l 1 -1
v -1
h 1
l -1 -1
v -1
h -2
v 1
h -1
v 1
l -1 1
v 1
h -1
l -1 1
v 1
h 1
l 1 2
l -1 1
h -1
v 2
l -1 1
l -1 -1
v -1
l -1 -1
v -1
h -1
l 1 2
l -1 6
l 5 5
h 1
l 1 1
v 3
h 1
v -1
l 2 -1
v 2
h -1
l -1 2
v 1
h -1
v 1
l -1 1
h -1
l -1 -1
v 1
l -1 -1
l -1 1
v 3
l -1 1
h -3
l -1 1
l -1 1
h 1
v 1
h 2
l 2 -1
h 2
l 1 -1
v 3
l -1 2
l -2 2
h -1
l -1 1
h -6
v 3
l 1 1
l 3 1
l -1 1
v 1
l -1 1
v 1
h 1
v 2
l 1 1
v 3
l -1 1
h -2
v 3
l 1 1
v 2
h -3
v -2
h -1
l -1 1
l -1 1
h 1
v 1
l 5 1
h 1
v 1
l 1 1
v 2
l -1 1
v -1
h -6
l -1 -1
h -1
v -1
h -2
v 2
l 3 2
v 2
h 1
v 1
l 1 2
h 1
l 4 2
v 1
l -1 1
h -1
l -1 1
h -1
l -1 -1
h -1
l -1 -1
h -1
l -1 1
v 2
l 1 1
h 1
v 1
h 3
l 3 -1
v 1
h 1
v 1
h -1
v 1
l -1 2
v 2
h -1
l -1 3
v 1
h -1
l -1 1
l -1 1
h -1
v 1
h -2
v 1
l -2 2
h -2
v 2
l -1 1
v 1
l -2 3
l -1 1
v 4
l 1 2
v 1
l 1 2
v 1
l 1 2
v 2
l 1 1
v 1
h 1
l 1 1
l 1 1
v 1
h 1
l 2 3
v 1
h 2
v 1
h 1
v 1
h 1
v 2
l -2 3
v 1
l -1 2
h -1
v -1
l -5 1
h -2
l -12 3
h -5
l -2 1
h -2
l -1 1
l -1 1
h -1
v 1
h -1
l -3 2
l -2 3
h -2
v -2
h -1
l -1 -1
h -3
l -8 5
l -2 7
v 2
l -2 4
v 1
l -1 1
l -1 2
v 2
h 1
v 3
h 1
h -1
v 1
h 1
v 1
h 1
l 1 1
v 1
l 1 1
l 2 3
l 1 1
l 1 1
l 1 1
v 1
l 1 1
v 2
l 2 4
l -1 2
v 1
l -2 5
h 1
l -1 1
v 2
l -1 1
l -3 2
h -4
v 1
h -1
l -2 -1
h -2
l -1 -1
l -4 -1
l -2 -2
v -1
l -5 -3
h -1
l -1 -1
h -2
l -3 -2
h -1
v -1
h -5
l -8 -5
v -1
l -2 -2
h -2
v -1
h -4
l -1 -1
h -1
l -2 -1
l -7 -3
h -1
v -14
h -5
l -8 -1
l -3 3
v -6
l 1 -46
h 45
v -150
h -60
v 44
h -75
v -75
l -4 -1
h -40
Z"/>
<path data-race-id="IL16" d="M231 258
l 2 -14
v -60
h 29
v -36
l 1 -18
v -6
h -7
v -38
l -1 -7
h 37
l 28 -1
v 9
h 11
l 3 -10
h 6
l 2 -5
l -8 -3
l 1 -5
l -1 -1
l -3 -4
l -11 -1
v -2
h -13
v 6
l -15 -1
v -34
h 34
l 11 1
h 43
v 58
h 15
v 16
l -2 7
l -10 1
l -4 -2
l 1 18
v 50
h 14
l 1 12
v 17
h 31
l 13 -1
h 7
l 8 -1
v 15
h 15
l 1 15
v 15
l -29 1
l -1 15
l 1 20
h 14
l 1 -1
h 23
l 21 -2
h 22
l 12 -1
v 25
l 1 2
v 59
l 1 1
v 2
l -1 1
h -22
v 1
h -55
v -5
l -22 1
l -7 -3
v 23
h -15
v -37
h -15
l -2 -25
l -3 1
h -41
l -1 -30
h -15
v -30
h -39
l 3 -8
h -40
v 2
l -15 -2
Z"/>
<path data-race-id="IL17" d="M68 338
v -1
l 1 -3
v -5
l 1 -5
l 1 -2
l 1 -3
v -3
l 1 -4
l 2 -2
l 2 -2
l 1 -2
l 2 -3
h 1
l 1 -1
v -1
l 6 -5
l 2 -1
v -2
l 1 -3
v -1
l -1 -3
l 1 -2
v -2
l 1 -2
v -2
l 1 -1
l -1 -2
l 1 -1
l -1 -1
v -3
h -1
l 1 -1
v -3
l -2 -4
v -1
l -1 -2
l -1 -1
l -1 -1
v -1
l -1 -1
l -1 -1
h -2
l -6 -6
l -4 -5
l -2 -3
l 1 -2
v -1
l 1 -3
l 1 -1
l 2 -3
v -2
l 1 -3
v -5
l 1 -2
l 1 -2
l 1 -1
l 4 -6
l 3 -1
h 2
l 2 1
l 2 1
h 3
l 2 -1
l 3 -2
l 7 -3
h 2
l 4 1
h 11
l 2 -1
h 2
l 2 -1
l 6 -5
l 1 -1
l 4 -2
l 6 -1
h 8
l 1 -2
l 1 -1
l 2 -2
l 1 -1
l 1 -2
h 1
l 1 -1
l 4 -1
l 2 -1
l 1 -1
v -10
l 1 -3
l 1 -3
l 1 -1
l 1 -1
v -4
l 3 -6
l 1 -1
l 2 -2
h 1
l 1 -1
l 1 -1
l 8 -4
v -6
l 1 -2
v -2
l 1 -1
v -2
l 1 -1
l 1 -1
v -13
l 1 -6
v -3
l -1 -1
v -1
l -2 -1
v -6
l 1 -1
v -6
l -1 -1
h -2
l -2 -4
l -1 -1
l -5 -3
h -2
l -2 -1
l -1 -1
l -4 -2
l -1 -1
l -2 -1
h -1
l -2 -1
l -2 -2
l -1 -1
l -1 -2
l -2 -3
l -1 -1
v -4
l 1 -4
v -3
l -1 -1
l -2 -2
v -2
l -2 -1
l -1 -1
l -1 -2
v -1
h -2
v -1
l -1 -1
h -1
l -3 -1
l -4 -4
v -1
l -1 -2
l -2 -1
h -2
l -1 -1
l -2 -1
l -2 -2
l -1 -2
l -1 -1
l 2 -3
h 81
l 8 1
h 42
l 12 1
h 14
v 34
l 15 1
v -6
h 13
v 2
l 11 1
l 3 4
l 1 1
l -1 5
l 8 3
l -2 5
h -6
l -3 10
h -11
v -9
l -28 1
h -37
l 1 7
v 38
h 7
v 6
l -1 18
v 36
h -29
v 60
l -2 14
h -15
v 74
l -1 2
v 14
h 15
l 1 1
h 24
l -1 -3
l -2 -6
l 6 -2
l 2 -3
l -1 -6
l 8 -1
l 5 7
l -5 3
v 6
l 3 4
l -6 3
v 22
h -14
v -2
h -22
l -5 9
l -7 8
l -8 3
l -4 14
l -9 12
l -8 6
l -33 -1
v -15
l 2 -60
l -15 -1
h -22
l -8 -1
l -15 -1
h -36
l 1 -1
Z"/>
<path data-race-id="IL18" d="M16 418
v -5
l 1 -3
l 1 -2
v -6
l 3 -5
l 1 -3
l 1 -1
l 2 -3
l 1 -1
h 1
l 1 -1
l 7 -4
l -1 -10
l 1 -3
l 1 -2
v -2
l -1 -2
l -1 -4
h -2
v -6
l 2 -1
l 4 -5
l 8 -4
l 2 -1
h 48
l 15 1
l 8 1
h 22
l 15 1
l -2 60
v 15
l 33 1
l 8 -6
l 9 -12
l 4 -14
l 8 -3
l 7 -8
l 5 -9
h 22
v 2
h 14
v -22
l 6 -3
l -3 -4
v -6
l 5 -3
l -5 -7
l -8 1
l 1 6
l -2 3
l -6 2
l 2 6
l 1 3
h -24
l -1 -1
h -15
v -14
l 1 -2
v -74
h 30
l 15 2
v -2
h 40
l -3 8
h 39
v 30
h 15
l 1 30
h 41
l 3 -1
l 2 25
h 15
v 57
h -60
v -5
h -7
l -2 -5
l 1 -21
l -2 -13
h -4
l 1 8
l -17 2
v 34
l 1 1
v 62
h -10
v 18
h -2
l -5 2
l -4 4
l -7 1
l -5 5
l -4 -1
l -14 -1
v -4
l -1 -1
l -7 -4
l -1 -1
h -2
l -1 -5
l -9 3
l -2 5
l 4 1
v 8
h 4
l 1 7
l 1 2
v -1
h 1
l 1 1
l 1 -1
h 1
h -1
h 1
l 1 14
h 8
v 15
h -102
l -37 -1
l -5 16
l 1 6
l -10 -1
h -23
l -10 -1
h -1
l -1 -1
l -2 -1
l -1 -1
l -2 -1
h -1
v -1
l -8 -7
l -1 -4
l -3 -6
l -1 -1
v -1
l -4 -1
h -2
l -3 -5
l -1 -3
v -2
h -1
l -2 -1
h -1
v -1
l -5 -4
l -1 -1
v -1
h -1
v -1
l -1 -2
l -2 -1
l -3 -1
v -1
l -2 -3
l -3 -2
l -3 -5
v -3
l 1 -1
v -5
l -2 -3
l -2 -2
l -4 -3
l -1 -1
v -1
l -1 -5
l 2 -6
l 1 -2
v -1
l -1 -1
l -1 -1
v -1
l -3 -5
l -1 -2
v -2
l -2 -4
l -1 -6
v -4
l -1 -4
v -2
l -1 -1
v -4
l 1 -2
l -1 -2
l 1 -4
Z"/>
<path data-race-id="ILZZ" d="M491 57
l 2 -8
l 2 -14
v -4
l -1 -4
l 56 -2
h 43
l -6 26
l -2 12
l -11 77
l -4 11
l -26 1
h -12
l -6 -2
l -1 -1
v -2
l -1 -2
v -2
l -4 -13
l -2 -3
l -1 -5
l -7 -24
l -7 -8
v -1
l -3 -4
l -5 -9
l -4 -13
Z"/>
</g>
  <path class="districts-mesh" d="M88 556
l 10 1
h 23
l 10 1
l -1 -6
l 5 -16
l 37 1
h 102
v -15
h -8
l -1 -14
h -1
h 1
h -1
l -1 1
l -1 -1
h -1
v 1
l -1 -2
l -1 -7
h -4
v -8
l -4 -1
l 2 -5
l 9 -3
l 1 5
h 2
l 1 1
l 7 4
l 1 1
v 4
l 14 1
l 4 1
l 5 -5
l 7 -1
l 4 -4
l 5 -2
h 2
v -18
h 10
v -62
l -1 -1
v -34
l 17 -2
l -1 -8
h 4
l 2 13
l -1 21
l 2 5
h 7
v 5
h 60
v 24
h 23
l -1 -5
h 12
l 2 5
M482 150
l -1 1
l -6 3
l -6 1
l -5 -9
l -10 9
l -3 -6
h -6
l -1 -5
l 5 -1
l -3 -7
l -2 -4
h -7
v -3
l -3 -1
l -12 -4
v -23
l -2 -2
v -13
h 5
v -15
h 19
l 20 -1
v -10
h -10
v -4
h -10
v -15
h 20
l 10 4
l 2 8
l 6 -3
l -2 -6
h 4
l -2 -17
M488 142
l -7 -7
v -8
h 11
l 9 -7
l 7 -3
l 3 6
l -1 5
l -12 -3
l -8 5
h -8
l 2 8
l 5 2
l 1 -1
h 1
l 6 -4
l 7 -1
v 4
l 7 -3
l 5 2
M494 27
l 1 4
v 4
l -2 14
l -2 8
v 6
l 4 13
l 5 9
l 3 4
M534 280
l -12 1
h -22
l -21 2
h -23
l -1 1
h -14
l -1 -20
l 1 -15
l 29 -1
v -15
l -1 -15
M482 146
h -1
v 1
l -4 -4
l -1 -5
h -1
l 1 -9
l -2 -10
l 6 2
l -2 -8
l 2 -6
l 12 9
l 7 -7
l 2 3
l 10 1
l 4 6
l 2 3
l 1 5
h -1
l -3 2
l -4 -1
M183 644
l 1 -2
l 2 -2
l 3 -1
h 1
v 1
v -1
h -1
h 5
l 14 1
l -2 5
v 40
h 40
l 4 1
v 75
h 75
v -44
h 60
v 150
h -45
l -1 46
v 6
l 3 -3
l 8 1
h 5
v 14
M464 70
h 5
v 15
h -2
v 3
l -1 13
h -11
v -5
h -11
l -4 1
v -12
h -3
l -4 8
l 2 1
l 1 7
h -6
l -2 10
l 4 2
l 5 -4
v 6
h 1
l 5 -5
l 4 4
h 1
l 1 6
l 9 10
l 11 -2
l -4 10
h 10
M524 145
l 1 2
v 2
l 1 1
l 6 2
M450 431
h 8
l 1 29
l -27 1
l -3 2
v 12
l -14 1
v 14
h -29
l -9 1
l -1 9
h -7
v 15
h -28
v 52
h -15
v 22
h -15
v 33
l -1 19
l -24 1
l -26 -1
h -39
l -1 6
v 23
h -3
l 1 9
l -2 4
h -10
M446 204
h -7
l -13 1
h -31
v -17
l -1 -12
h -14
v -50
l -1 -18
l 4 2
l 10 -1
l 2 -7
v -16
h -15
v -58
M414 407
v -20
h 15
v -23
l 7 3
l 22 -1
v 5
h 55
v -1
h 22
l 1 -1
M454 211
l 5 -3
h 10
v -8
h 4
l 7 -9
l -2 -3
h -23
v -16
l 9 -1
l 3 -3
v -3
h 3
v -5
l 8 2
l 4 -2
l 2 -2
l -2 -8
v -4
l -1 -4
h 7
l 9 -1
h 6
l 4 7
l 6 -5
l 3 -6
l 1 7
h -4
l -5 6
M414 387
v -37
h -15
l -2 -25
l -3 1
h -41
l -1 -30
h -15
v -30
h -39
l 3 -8
h -40
v 2
l -15 -2
h -15
l 2 -14
v -60
h 29
v -36
l 1 -18
v -6
h -7
v -38
l -1 -7
h 37
l 28 -1
v 9
h 11
l 3 -10
h 6
l 2 -5
l -8 -3
l 1 -5
l -1 -1
l -3 -4
l -11 -1
v -2
h -13
v 6
l -15 -1
v -34
M478 188
l 5 -1
h 12
l 1 -7
l -5 1
v -9
l 6 -2
l 5 -6
l 5 2
h 4
l 1 -6
h -6
l 2 -10
l 7 1
l 9 -8
v 2
l 1 12
v 1
h -1
l -7 2
v 10
l -4 5
l -3 3
l -4 4
l -2 3
l -6 7
l 1 10
v 15
l -2 1
h -43
v -15
l -8 1
l -2 -7
l -5 -2
v -6
h -7
l -1 -7
l 7 -1
h 4
l 8 -2
l 1 -5
l -1 -5
l 2 -10
l -5 1
h -10
v 4
l -10 -1
h -1
l -6 -1
l -1 -2
h 4
v -14
l 14 -2
h 7
M518 127
l 2 3
l 4 13
M469 85
h 8
l -2 5
l -6 -1
l 1 13
l 9 1
l 1 4
M475 90
h 3
l -1 7
l 4 7
h 11
l -1 -5
v -10
l 12 2
v -2
v 1
l 7 8
l 7 24
M231 258
h -15
v 74
l -1 2
v 14
h 15
l 1 1
h 24
l -1 -3
l -2 -6
l 6 -2
l 2 -3
l -1 -6
l 8 -1
l 5 7
l -5 3
v 6
l 3 4
l -6 3
v 22
h -14
v -2
h -22
l -5 9
l -7 8
l -8 3
l -4 14
l -9 12
l -8 6
l -33 -1
v -15
l 2 -60
l -15 -1
h -22
l -8 -1
l -15 -1
h -36"/>
</svg>