<svg version="1.1" xmlns="http://www.w3.org/2000/svg" width="609" height="1000" viewBox="0 0 609 1000">  <path d="M161,25h55l8,1h42l12,1h48l11,1h49l27,-1h80l100,-2l-6,26l-2,12l-13,88h-2l-26,1h-12v56l1,13v56l1,3v25l1,2v59l1,1v106l1,2v51l1,2v22l1,3v12h-3v2h-5v1l-2,2v1l-1,1h-1v1h3v1l-1,1l-1,1l1,1v3l1,1l1,1v1l1,-1h1v6l-1,1v2h-2v1l-1,1h-2v2h1v1h-3v2h1v1l-1,-1l-1,1l-1,1l-1,1v1l3,2l-1,2h-1h1v1l1,-1h1v1h2v4h3l1,1v1h1v1l1,1v2l-1,1l1,1l1,2v2l-2,2v1h3h-3l1,1l4,1l2,1v1l1,1l1,1h1v1l-1,1h-1v1l1,1l-1,1v1l-1,1l1,1h-1v1h2l-1,1h-1l-1,1v1v-1l-1,1h1v1h1h-2v1l1,1v1h-2l2,1l1,1h1v6l1,2h1v2h1v1h1v1l-1,2h-1h2v2h-1v2h1l-1,2v1l-1,3l-1,3l-1,2h-1v1l-4,1l-5,3l-2,2v2l1,1l-1,1v1l-1,1v1l1,1h1l1,1l-1,1h-1l-2,-1h-1v3l-1,1v3l-2,1l1,2l1,2l1,1l-1,2h-2v-1h-1v2l-1,1l-3,2h-4l-1,1v1l-2,1v2h3v3l-1,1v4l-3,5l-3,2h-1l-1,1h-1v1l-1,2l-1,1v7l-1,2l-1,1l-1,1l-1,-1v-6h-2l-1,1v3l-1,1h-1v1l-1,1v1h-1l-1,-2l1,-1v-1h1l-1,-1v-1h-2v1h-1v1l-1,1v1h-1l-1,1v1h1l1,2l-1,1h-1v2l-1,1l-1,-1v-1l-1,-1v-1h-1l1,2l-1,6l5,5h1l1,1v3h1v-1l2,-1v2h-1l-1,2v1h-1v1l-1,1h-1l-1,-1v1l-1,-1l-1,1v3l-1,1h-3l-1,1l-1,1h1v1h2l2,-1h2l1,-1v3l-1,2l-2,2h-1l-1,1h-6v3l1,1l3,1l-1,1v1l-1,1v1h1v2l1,1v3l-1,1h-2v3l1,1v2h-3v-2h-1l-1,1l-1,1h1v1l5,1h1v1l1,1v2l-1,1v-1h-6l-1,-1h-1v-1h-2v2l3,2v2h1v1l1,2h1l4,2v1l-1,1h-1l-1,1h-1l-1,-1h-1l-1,-1h-1l-1,1v2l1,1h1v1h3l3,-1v1h1v1h-1v1l-1,2v2h-1l-1,3v1h-1l-1,1l-1,1h-1v1h-2v1l-2,2h-2v2l-1,1v1l-2,3l-1,1v4l1,2v1l1,2v1l1,2v2l1,1v1h1l1,1l1,1v1h1l2,3v1h2v1h1v1h1v2l-2,3v1l-1,2h-1v-1l-5,1h-2l-12,3h-5l-2,1h-2l-1,1l-1,1h-1v1h-1l-3,2l-2,3h-2v-2h-1l-1,-1h-2l-9,5l-2,7v2l-2,4v1l-1,1l-1,2v2h1v3h1h-1v1h1v1h1l1,1v1l1,1l2,3l1,1l1,1l1,1v1l1,1v2l2,4l-1,2v1l-2,5h1l-1,1v2l-1,1l-3,2h-4v1h-1l-2,-1h-2l-1,-1l-4,-1l-2,-2v-1l-5,-3h-1l-1,-1h-2l-3,-2h-1v-1h-5l-8,-5v-1l-2,-2h-2v-1h-4l-1,-1h-1l-2,-1l-7,-3h-3h2h-1l-11,2l-9,8l-2,6l-12,14v5l5,5l1,2h1l-2,1h-2l-1,1l-3,-5l-1,-2v-1l-2,-1v-1l-4,-4v-2l-2,-1l-7,-1v4h1l1,1l2,1l2,2l1,2l-1,3l-2,2l-2,-1l-1,-2l-1,-1l-1,-1l-2,-1l-3,-1l-4,-6l1,-3v-2l-1,-2l-1,-1l-1,-1l-3,-2l-5,-11l-1,-6l1,-3l-1,-1l-1,-1h-3l-3,-4v-6h1l1,-1l1,-1v-1l1,-1h2l3,-1h2v-1l1,-1l1,-4l-2,-9l-1,-1l-2,-3l-2,-3l-1,-1l-2,-5l-1,-2l-1,-2l-1,-1l-1,-2v-4l1,-3l3,1h1l1,-3l-2,-3l-1,-2l-1,-1l-1,-1v-9l-1,-1h-1l-1,-1h-2l-3,-1l-1,-2l-5,-4l-1,-1h-3l-2,-1v-2l1,-1v-2l-1,-1l-1,-2l-2,-1l-3,-2l-3,-2l-1,-3h-3l-1,-1h-2l-2,-1v-3l-5,-4l-1,-1l-1,1l-2,1l-1,2l-1,1h-2l-1,1l-5,-1l-2,-1l-1,-3l-2,-3v-2l3,-2l3,-3l-1,-2l-5,1h-3l-1,-1l-1,-2l-3,-2l-1,-1l-1,-1l-3,-2l-7,-7l-6,-2l-1,-1l-3,-2l-1,-1l-3,-1v-1l-3,-3v-1l-1,-1l-4,-7l-2,-1l-3,-1l-5,-12l-1,-3v-10l1,-1v-2l1,-1l1,-1v-2l1,-2l1,-1v-1l2,-1v-1l1,-2l4,-6l1,-4l1,-3l1,-3l1,-4v-1l2,-2l1,-1l1,-3h1l3,-2v-1l1,-1l1,-1v-2l1,-2v-4l-1,-2v-1l-3,-6l2,-6l2,-2v-2l2,-2l1,-1h1l5,-4v-5l1,-1l-4,-4h-1l-2,-2l-1,-1l-2,-1h-1l-3,-1l-1,-2l-1,-1h-1l-1,-1l-1,-1h-3l-4,-1h-1l-2,-1l-5,-3l-3,-2l-3,-1h-3l-1,-1h-2l-1,1l-1,1l-1,1l-1,2l-1,1l-4,7l-5,4l-8,-1l-1,-2l-1,-1l-1,-2v-1l-3,-3l-1,-3v-1l-1,-3v-5h-1v-2l-3,-5l1,-5l3,-5l-1,-3v-2l-1,-2h-1l-2,-11v-6l-1,-2v-2l-2,-1h-1v-1l-7,-8l-2,-2l-1,-1l-3,-2l-2,-1l-4,-4l-2,-1l-3,-2v-2h-1l-1,-1l-2,-1l-1,-1l-2,-1h-1v-1l-8,-7l-1,-4l-3,-6l-1,-1v-1l-4,-1h-2l-3,-5l-1,-3v-2h-1l-2,-1h-1v-1l-5,-4l-1,-1v-1h-1v-1l-1,-2l-2,-1l-3,-1v-1l-2,-3l-3,-2l-3,-5v-3l1,-4v-2l-2,-3l-2,-2l-4,-3l-1,-1v-1l-1,-5l2,-6l1,-2v-1l-1,-1l-1,-1v-1l-3,-5l-1,-2v-2l-2,-4l-1,-6v-4l-1,-4v-2l-1,-1v-4l1,-2l-1,-2l1,-4v-6l1,-3l1,-2v-6l3,-5l1,-3l1,-1l2,-3l1,-1h1l1,-1l7,-4l-1,-10l1,-3l1,-2v-2l-1,-2l-1,-4h-2v-6l2,-1l4,-5l8,-4l2,-1h12l1,-1l7,-5v-1l1,-3v-5l1,-5l1,-2l1,-3v-3l1,-4l2,-2l2,-2l1,-2l2,-3h1l1,-1v-1l6,-5l2,-1v-2l1,-3v-1l-1,-3l1,-2v-2l1,-2v-2l1,-1l-1,-2l1,-1l-1,-1v-1l-1,-2l1,-1v-3l-2,-4v-1l-1,-2l-1,-1l-1,-1v-1l-1,-1l-1,-1h-2l-6,-6l-4,-5l-2,-3l1,-2v-1l1,-3l1,-1l2,-3v-2l1,-3v-5l1,-2l1,-2l1,-1l4,-6l3,-1h2l2,1l2,1h3l2,-1l3,-2l7,-3h2l4,1h11l2,-1h2l2,-1l6,-5l1,-1l4,-2l6,-1h8l1,-2l1,-1l2,-2l1,-1l1,-2h1l1,-1l4,-1l2,-1l1,-1v-10l1,-3l1,-3l1,-1l1,-1v-4l3,-6l1,-1l2,-2h1l1,-1l1,-1l8,-4v-6l1,-2v-2l1,-1v-2l1,-1l1,-1v-13l1,-6v-3l-1,-1v-1l-2,-1v-6l1,-1v-6l-1,-1h-2l-2,-4l-1,-1l-5,-3h-2l-2,-1l-1,-1l-4,-2l-1,-1l-2,-1h-1l-2,-1l-2,-2l-1,-1l-1,-2l-2,-3l-1,-1v-4l1,-4v-3l-1,-1l-2,-2v-2l-2,-1l-1,-1l-1,-2v-1h-2v-1l-1,-1h-1l-3,-1l-4,-4v-1l-1,-2l-2,-1h-2l-1,-1l-2,-1l-2,-2l-1,-2l-1,-1l2,-3h21Z"/><g class="districts"><path data-race-id="IL01" d="M454,211l5,-3h10v-8h4l7,-9l-2,-3l5,-1h12l1,-7l-5,1v-9l6,-2l5,-6l5,2h4l1,-6h-6l2,-10l7,1l9,-8v2l1,12v1h-1l-7,2v10l-4,5l-3,3l-4,4l-2,3l-6,7l1,10v15l-2,1h-43Z"/><path data-race-id="IL02" d="M440,264l1,-15l29,-1v-15l-1,-15h28l2,-1v-15l-1,-10l6,-7l2,-3l4,-4l3,-3l4,-5v-10l7,-2h1v-1l-1,-12l1,2v2l1,1l6,2v56l1,13v56l1,3l-12,1h-22l-21,2h-23l-1,1h-14Z"/><path data-race-id="IL03" d="M467,168v-3h3v-5l8,2l4,-2l2,-2l-2,-8v-4l-1,-4h7l9,-1h6l4,7l6,-5l3,-6l1,7h-4l-5,6l-2,10h6l-1,6h-4l-5,-2l-5,6l-6,2v9l5,-1l-1,7h-12l-5,1h-23v-16l9,-1Z"/><path data-race-id="IL04" d="M481,127h11l9,-7l7,-3l3,6l-1,5l-12,-3l-8,5h-8l2,8l5,2l1,-1h1l6,-4l7,-1v4l7,-3l5,2l-3,6l-6,5l-4,-7h-6l-9,1l-7,-7v-2Z"/><path data-race-id="IL05" d="M480,121l-2,-8l2,-6l12,9l7,-7l2,3l10,1l4,6l2,3l1,5h-1l-3,2l-4,-1l1,-5l-3,-6l-7,3l-9,7h-11v8l7,7h-7l1,4h-1v1l-4,-4l-1,-5h-1l1,-9l-2,-10Z"/><path data-race-id="IL06" d="M420,86h5v-15h19l20,-1h5v15h-2v3l-1,13h-11v-5h-11l-4,1v-12h-3l-4,8l2,1l1,7h-6l-2,10l4,2l5,-4v6h1l5,-5l4,4h1l1,6l9,10l11,-2l-4,10h11l1,5l4,4v-1h1v4l-1,1l-6,3l-6,1l-5,-9l-10,9l-3,-6h-6l-1,-5l5,-1l-3,-7l-2,-4h-7v-3l-3,-1l-12,-4v-23l-2,-2Z"/><path data-race-id="IL07" d="M510,128l4,1l3,-2h1l2,3l4,13l-9,8l-7,-1l5,-6h4l-1,-7l-5,-2l-7,3v-4l-7,1l-6,4h-1l-1,1l-5,-2l-2,-8h8l8,-5Z"/><path data-race-id="IL08" d="M435,94l-2,-1l4,-8h3v12l4,-1h11v5h11l1,-13v-3h10l-2,5l-6,-1l1,13l9,1l1,4l-2,6l2,8l-6,-2l2,10l-1,9h-10l4,-10l-11,2l-9,-10l-1,-6h-1l-4,-4l-5,5h-1v-6l-5,4l-4,-2l2,-10h6Z"/><path data-race-id="IL09" d="M475,90h3l-1,7l4,7h11l-1,-5v-10l12,2v-2v1l7,8l7,24l-2,-3l-4,-6l-10,-1l-2,-3l-7,7l-12,-9l-1,-4l-9,-1l-1,-13Z"/><path data-race-id="IL10" d="M444,41h20l10,4l2,8l6,-3l-2,-6h4l-2,-17h12l1,4v4l-2,14l-2,8v6l4,13l5,9l3,4v2l-12,-2v10l1,5h-11l-4,-7l1,-7h-3l2,-5h-8v-15h-5v-10h-10v-4h-10Z"/><path data-race-id="IL11" d="M419,160h4v-14l14,-2h7l1,5h6l3,6l10,-9l5,9l6,-1l6,-3l1,-1l2,8l-2,2l-4,2l-8,-2v5h-3v3l-3,3l-9,1v16h23l2,3l-7,9h-4v8h-10l-5,3v-8l-8,1l-2,-7l-5,-2v-6h-7l-1,-7l7,-1h4l8,-2l1,-5l-1,-5l2,-10l-5,1h-10v4l-10,-1h-1l-6,-1Z"/><path data-race-id="IL12" d="M160,746v-5l1,-1v-2l1,-1l1,-1v-2l1,-2l1,-1v-1l2,-1v-1l1,-2l4,-6l1,-4l1,-3l1,-3v-2l1,-2v-1l2,-2l1,-1l1,-3h1l3,-2v-1l1,-1l1,-1v-2l1,-2v-4l-1,-2v-1l-3,-6l2,-6l2,-2v-2l2,-2l1,-1h1l5,-4v-5l1,-1l-4,-4h-1l-2,-2l-1,-1l-2,-1h-1l-3,-1v-1l1,-2l2,-2l3,-1h1v1v-1h-1h5l14,1l-2,5v40h40l4,1v75h75v-44h60v150h-45l-1,46v6l3,-3l8,1h5v14h-2h2h-10l-12,11l-2,5l-9,10l-2,4v5l5,5l1,2h1l-2,1h-2l-1,1l-3,-5l-1,-2v-1l-2,-1v-1l-4,-4v-2l-2,-1l-7,-1v4h1l1,1l2,1l2,2l1,2l-1,3l-2,2l-2,-1l-1,-2l-1,-1l-1,-1l-2,-1l-3,-1l-4,-6l1,-3v-2l-1,-2l-1,-1l-1,-1l-3,-2l-5,-11l-1,-6l1,-3l-1,-1l-1,-1h-3l-3,-4v-6h1l1,-1l1,-1v-1l1,-1h2l3,-1h2v-1l1,-1l1,-4l-2,-9l-1,-1l-2,-3l-2,-3l-1,-1l-2,-5l-1,-2l-1,-2l-1,-1l-1,-2v-4l1,-3l3,1h1l1,-3l-2,-3l-1,-2l-1,-1l-1,-1v-9l-1,-1h-1l-1,-1h-2l-3,-1l-1,-2l-5,-4l-1,-1h-3l-2,-1v-2l1,-1v-2l-1,-1l-1,-2l-2,-1l-3,-2l-3,-2l-1,-3h-3l-1,-1h-2l-2,-1v-3l-5,-4l-1,-1l-1,1l-2,1l-1,2l-1,1h-2l-1,1l-5,-1l-2,-1l-1,-3l-2,-3v-2l3,-2l3,-3l-1,-2l-5,1h-3l-1,-1l-1,-2l-3,-2l-1,-1l-1,-1l-3,-2l-7,-7l-6,-2l-1,-1l-3,-2l-1,-1l-3,-1v-1l-3,-3v-1l-1,-1l-4,-7l-2,-1l-3,-1l-5,-12l-1,-3v-1Z"/><path data-race-id="IL13" d="M88,556l10,1h23l10,1l-1,-6l5,-16l37,1h102v-15h-8l-1,-14h-1h1h-1l-1,1l-1,-1h-1v1l-1,-2l-1,-7h-4v-8l-4,-1l2,-5l9,-3l1,5h2l1,1l7,4l1,1v4l14,1l4,1l5,-5l7,-1l4,-4l5,-2h2v-18h10v-62l-1,-1v-34l17,-2l-1,-8h4l2,13l-1,21l2,5h7v5h60v24h23l-1,-5h12l2,5h8l1,29l-27,1l-3,2v12l-14,1v14h-29l-9,1l-1,9h-7v15h-28v52h-15v22h-15v33l-1,19l-24,1l-26,-1h-39l-1,6v23h-3l1,9l-2,4h-10v-38l2,-5l-14,-1h-5h1v1v-1h-1l-3,1l-2,2l-1,2l-1,-1l-1,-1h-1l-1,-1l-1,-1h-3l-4,-1h-1l-2,-1l-5,-3l-3,-2l-3,-1h-3l-1,-1h-2l-1,1l-1,1l-1,1l-1,2l-1,1l-4,7l-5,4l-9,-3l-1,-1l-1,-2v-1l-3,-3l-1,-3v-1l-1,-3v-5h-1v-2l-3,-5l1,-5l3,-5l-1,-3v-2l-1,-2h-1l-2,-11v-6l-1,-2v-2l-2,-1h-1v-1l-7,-8l-2,-2l-1,-1l-3,-2l-2,-1l-4,-4l-2,-1l-3,-2Z"/><path data-race-id="IL14" d="M393,109l2,-7v-16h-15v-58h6l27,-1h69l2,17h-4l2,6l-6,3l-2,-8l-10,-4h-20v15h10v4h10v10l-20,1h-19v15h-5v13l2,2v23l12,4l3,1v3h7l2,4l3,7l-5,1h-7l-14,2v14h-4l1,2l6,1h1l10,1v-4h10l5,-1l-2,10l1,5l-1,5l-8,2h-4l-7,1l1,7h7v6l5,2l2,7h-7l-13,1h-31v-17l-1,-12h-14v-50l-1,-18l4,2Z"/><path data-race-id="IL15" d="M206,683h10l2,-4l-1,-9h3v-23l1,-6h39l26,1l24,-1l1,-19v-33h15v-22h15v-52h28v-15h7l1,-9l9,-1h29v-14l14,-1v-12l3,-2l27,-1l-1,-29h-8l-2,-5h-12l1,5h-23v-44h15v-23l7,3l22,-1v5h55v-1h22l1,-1v104l1,2v51l1,2v22l1,3v12h-3v2h-5v1l-2,2v1l-1,1h-1v1h3v1l-1,1l-1,1l1,1v3l1,1l1,1v1l1,-1h1v6l-1,1v2h-2v1l-1,1h-2v2h1v1h-3v2h1v1l-1,-1l-1,1l-1,1l-1,1v1l3,2l-1,2h-1h1v1l1,-1h1v1h2v4h3l1,1v1h1v1l1,1v2l-1,1l1,1l1,2v2l-2,2v1h3h-3l1,1l4,1l2,1v1l1,1l1,1h1v1l-1,1h-1v1l1,1l-1,1v1l-1,1l1,1h-1v1h2l-1,1h-1l-1,1v1v-1l-1,1h1v1h1h-2v1l1,1v1h-2l2,1l1,1h1v6l1,2h1v2h1v1h1v1l-1,2h-1h2v2h-1v2h1l-1,2v1l-1,3l-1,3l-1,2h-1v1l-4,1l-5,3l-2,2v2l1,1l-1,1v1l-1,1v1l1,1h1l1,1l-1,1h-1l-2,-1h-1v3l-1,1v3l-2,1l1,2l1,2l1,1l-1,2h-2v-1h-1v2l-1,1l-3,2h-4l-1,1v1l-2,1v2h3v3l-1,1v4l-3,5l-3,2h-1l-1,1h-1v1l-1,2l-1,1v7l-1,2l-1,1l-1,1l-1,-1v-6h-2l-1,1v3l-1,1h-1v1l-1,1v1h-1l-1,-2l1,-1v-1h1l-1,-1v-1h-2v1h-1v1l-1,1v1h-1l-1,1v1h1l1,2l-1,1h-1v2l-1,1l-1,-1v-1l-1,-1v-1h-1l1,2l-1,6l5,5h1l1,1v3h1v-1l2,-1v2h-1l-1,2v1h-1v1l-1,1h-1l-1,-1v1l-1,-1l-1,1v3l-1,1h-3l-1,1l-1,1h1v1h2l2,-1h2l1,-1v3l-1,2l-2,2h-1l-1,1h-6v3l1,1l3,1l-1,1v1l-1,1v1h1v2l1,1v3l-1,1h-2v3l1,1v2h-3v-2h-1l-1,1l-1,1h1v1l5,1h1v1l1,1v2l-1,1v-1h-6l-1,-1h-1v-1h-2v2l3,2v2h1v1l1,2h1l4,2v1l-1,1h-1l-1,1h-1l-1,-1h-1l-1,-1h-1l-1,1v2l1,1h1v1h3l3,-1v1h1v1h-1v1l-1,2v2h-1l-1,3v1h-1l-1,1l-1,1h-1v1h-2v1l-2,2h-2v2l-1,1v1l-2,3l-1,1v4l1,2v1l1,2v1l1,2v2l1,1v1h1l1,1l1,1v1h1l2,3v1h2v1h1v1h1v2l-2,3v1l-1,2h-1v-1l-5,1h-2l-12,3h-5l-2,1h-2l-1,1l-1,1h-1v1h-1l-3,2l-2,3h-2v-2h-1l-1,-1h-3l-8,5l-2,7v2l-2,4v1l-1,1l-1,2v2h1v3h1h-1v1h1v1h1l1,1v1l1,1l2,3l1,1l1,1l1,1v1l1,1v2l2,4l-1,2v1l-2,5h1l-1,1v2l-1,1l-3,2h-4v1h-1l-2,-1h-2l-1,-1l-4,-1l-2,-2v-1l-5,-3h-1l-1,-1h-2l-3,-2h-1v-1h-5l-8,-5v-1l-2,-2h-2v-1h-4l-1,-1h-1l-2,-1l-7,-3h-1v-14h-5l-8,-1l-3,3v-6l1,-46h45v-150h-60v44h-75v-75l-4,-1h-40Z"/><path data-race-id="IL16" d="M231,258l2,-14v-60h29v-36l1,-18v-6h-7v-38l-1,-7h37l28,-1v9h11l3,-10h6l2,-5l-8,-3l1,-5l-1,-1l-3,-4l-11,-1v-2h-13v6l-15,-1v-34h34l11,1h43v58h15v16l-2,7l-10,1l-4,-2l1,18v50h14l1,12v17h31l13,-1h7l8,-1v15h15l1,15v15l-29,1l-1,15l1,20h14l1,-1h23l21,-2h22l12,-1v25l1,2v59l1,1v2l-1,1h-22v1h-55v-5l-22,1l-7,-3v23h-15v-37h-15l-2,-25l-3,1h-41l-1,-30h-15v-30h-39l3,-8h-40v2l-15,-2Z"/><path data-race-id="IL17" d="M68,338v-1l1,-3v-5l1,-5l1,-2l1,-3v-3l1,-4l2,-2l2,-2l1,-2l2,-3h1l1,-1v-1l6,-5l2,-1v-2l1,-3v-1l-1,-3l1,-2v-2l1,-2v-2l1,-1l-1,-2l1,-1l-1,-1v-3h-1l1,-1v-3l-2,-4v-1l-1,-2l-1,-1l-1,-1v-1l-1,-1l-1,-1h-2l-6,-6l-4,-5l-2,-3l1,-2v-1l1,-3l1,-1l2,-3v-2l1,-3v-5l1,-2l1,-2l1,-1l4,-6l3,-1h2l2,1l2,1h3l2,-1l3,-2l7,-3h2l4,1h11l2,-1h2l2,-1l6,-5l1,-1l4,-2l6,-1h8l1,-2l1,-1l2,-2l1,-1l1,-2h1l1,-1l4,-1l2,-1l1,-1v-10l1,-3l1,-3l1,-1l1,-1v-4l3,-6l1,-1l2,-2h1l1,-1l1,-1l8,-4v-6l1,-2v-2l1,-1v-2l1,-1l1,-1v-13l1,-6v-3l-1,-1v-1l-2,-1v-6l1,-1v-6l-1,-1h-2l-2,-4l-1,-1l-5,-3h-2l-2,-1l-1,-1l-4,-2l-1,-1l-2,-1h-1l-2,-1l-2,-2l-1,-1l-1,-2l-2,-3l-1,-1v-4l1,-4v-3l-1,-1l-2,-2v-2l-2,-1l-1,-1l-1,-2v-1h-2v-1l-1,-1h-1l-3,-1l-4,-4v-1l-1,-2l-2,-1h-2l-1,-1l-2,-1l-2,-2l-1,-2l-1,-1l2,-3h81l8,1h42l12,1h14v34l15,1v-6h13v2l11,1l3,4l1,1l-1,5l8,3l-2,5h-6l-3,10h-11v-9l-28,1h-37l1,7v38h7v6l-1,18v36h-29v60l-2,14h-15v74l-1,2v14h15l1,1h24l-1,-3l-2,-6l6,-2l2,-3l-1,-6l8,-1l5,7l-5,3v6l3,4l-6,3v22h-14v-2h-22l-5,9l-7,8l-8,3l-4,14l-9,12l-8,6l-33,-1v-15l2,-60l-15,-1h-22l-8,-1l-15,-1h-36l1,-1Z"/><path data-race-id="IL18" d="M16,418v-5l1,-3l1,-2v-6l3,-5l1,-3l1,-1l2,-3l1,-1h1l1,-1l7,-4l-1,-10l1,-3l1,-2v-2l-1,-2l-1,-4h-2v-6l2,-1l4,-5l8,-4l2,-1h48l15,1l8,1h22l15,1l-2,60v15l33,1l8,-6l9,-12l4,-14l8,-3l7,-8l5,-9h22v2h14v-22l6,-3l-3,-4v-6l5,-3l-5,-7l-8,1l1,6l-2,3l-6,2l2,6l1,3h-24l-1,-1h-15v-14l1,-2v-74h30l15,2v-2h40l-3,8h39v30h15l1,30h41l3,-1l2,25h15v57h-60v-5h-7l-2,-5l1,-21l-2,-13h-4l1,8l-17,2v34l1,1v62h-10v18h-2l-5,2l-4,4l-7,1l-5,5l-4,-1l-14,-1v-4l-1,-1l-7,-4l-1,-1h-2l-1,-5l-9,3l-2,5l4,1v8h4l1,7l1,2v-1h1l1,1l1,-1h1h-1h1l1,14h8v15h-102l-37,-1l-5,16l1,6l-10,-1h-23l-10,-1h-1l-1,-1l-2,-1l-1,-1l-2,-1h-1v-1l-8,-7l-1,-4l-3,-6l-1,-1v-1l-4,-1h-2l-3,-5l-1,-3v-2h-1l-2,-1h-1v-1l-5,-4l-1,-1v-1h-1v-1l-1,-2l-2,-1l-3,-1v-1l-2,-3l-3,-2l-3,-5v-3l1,-1v-5l-2,-3l-2,-2l-4,-3l-1,-1v-1l-1,-5l2,-6l1,-2v-1l-1,-1l-1,-1v-1l-3,-5l-1,-2v-2l-2,-4l-1,-6v-4l-1,-4v-2l-1,-1v-4l1,-2l-1,-2l1,-4Z"/><path data-race-id="ILZZ" d="M491,57l2,-8l2,-14v-4l-1,-4l56,-2h43l-6,26l-2,12l-11,77l-4,11l-26,1h-12l-6,-2l-1,-1v-2l-1,-2v-2l-4,-13l-2,-3l-1,-5l-7,-24l-7,-8v-1l-3,-4l-5,-9l-4,-13Z"/></g>  <path class="districts-mesh" d="M88,556l10,1h23l10,1l-1,-6l5,-16l37,1h102v-15h-8l-1,-14h-1h1h-1l-1,1l-1,-1h-1v1l-1,-2l-1,-7h-4v-8l-4,-1l2,-5l9,-3l1,5h2l1,1l7,4l1,1v4l14,1l4,1l5,-5l7,-1l4,-4l5,-2h2v-18h10v-62l-1,-1v-34l17,-2l-1,-8h4l2,13l-1,21l2,5h7v5h60v24h23l-1,-5h12l2,5M482,150l-1,1l-6,3l-6,1l-5,-9l-10,9l-3,-6h-6l-1,-5l5,-1l-3,-7l-2,-4h-7v-3l-3,-1l-12,-4v-23l-2,-2v-13h5v-15h19l20,-1v-10h-10v-4h-10v-15h20l10,4l2,8l6,-3l-2,-6h4l-2,-17M488,142l-7,-7v-8h11l9,-7l7,-3l3,6l-1,5l-12,-3l-8,5h-8l2,8l5,2l1,-1h1l6,-4l7,-1v4l7,-3l5,2M494,27l1,4v4l-2,14l-2,8v6l4,13l5,9l3,4M534,280l-12,1h-22l-21,2h-23l-1,1h-14l-1,-20l1,-15l29,-1v-15l-1,-15M482,146h-1v1l-4,-4l-1,-5h-1l1,-9l-2,-10l6,2l-2,-8l2,-6l12,9l7,-7l2,3l10,1l4,6l2,3l1,5h-1l-3,2l-4,-1M183,644l1,-2l2,-2l3,-1h1v1v-1h-1h5l14,1l-2,5v40h40l4,1v75h75v-44h60v150h-45l-1,46v6l3,-3l8,1h5v14M464,70h5v15h-2v3l-1,13h-11v-5h-11l-4,1v-12h-3l-4,8l2,1l1,7h-6l-2,10l4,2l5,-4v6h1l5,-5l4,4h1l1,6l9,10l11,-2l-4,10h10M524,145l1,2v2l1,1l6,2M450,431h8l1,29l-27,1l-3,2v12l-14,1v14h-29l-9,1l-1,9h-7v15h-28v52h-15v22h-15v33l-1,19l-24,1l-26,-1h-39l-1,6v23h-3l1,9l-2,4h-10M446,204h-7l-13,1h-31v-17l-1,-12h-14v-50l-1,-18l4,2l10,-1l2,-7v-16h-15v-58M414,407v-20h15v-23l7,3l22,-1v5h55v-1h22l1,-1M454,211l5,-3h10v-8h4l7,-9l-2,-3h-23v-16l9,-1l3,-3v-3h3v-5l8,2l4,-2l2,-2l-2,-8v-4l-1,-4h7l9,-1h6l4,7l6,-5l3,-6l1,7h-4l-5,6M414,387v-37h-15l-2,-25l-3,1h-41l-1,-30h-15v-30h-39l3,-8h-40v2l-15,-2h-15l2,-14v-60h29v-36l1,-18v-6h-7v-38l-1,-7h37l28,-1v9h11l3,-10h6l2,-5l-8,-3l1,-5l-1,-1l-3,-4l-11,-1v-2h-13v6l-15,-1v-34M478,188l5,-1h12l1,-7l-5,1v-9l6,-2l5,-6l5,2h4l1,-6h-6l2,-10l7,1l9,-8v2l1,12v1h-1l-7,2v10l-4,5l-3,3l-4,4l-2,3l-6,7l1,10v15l-2,1h-43v-15l-8,1l-2,-7l-5,-2v-6h-7l-1,-7l7,-1h4l8,-2l1,-5l-1,-5l2,-10l-5,1h-10v4l-10,-1h-1l-6,-1l-1,-2h4v-14l14,-2h7M518,127l2,3l4,13M469,85h8l-2,5l-6,-1l1,13l9,1l1,4M475,90h3l-1,7l4,7h11l-1,-5v-10l12,2v-2v1l7,8l7,24M231,258h-15v74l-1,2v14h15l1,1h24l-1,-3l-2,-6l6,-2l2,-3l-1,-6l8,-1l5,7l-5,3v6l3,4l-6,3v22h-14v-2h-22l-5,9l-7,8l-8,3l-4,14l-9,12l-8,6l-33,-1v-15l2,-60l-15,-1h-22l-8,-1l-15,-1h-36"/></svg>