<svg version="1.1" xmlns="http://www.w3.org/2000/svg" width="651" height="1000" viewBox="0 0 651 1000"><path data-race-id="IN01" d="M133,133v-36l1,-4v-42h1v-12l10,7l8,-3l2,1l-4,7l12,7l8,2l17,-1l11,-2l3,-3l13,-3l25,-12l4,-4l14,-8h34l-4,2v14h-7v3h-21v97l-8,1l-12,8l-8,4l-5,-5l-21,-11l-14,4l-4,6l-11,6l-10,8l-7,1l-7,4l-3,-3l-17,1v-33Z"/><path data-race-id="IN02" d="M239,167l1,-15l12,-8l8,-1v-97h21v-3h7v-14l4,-2h167l7,-1v5l2,52v41h-32l-5,2l-4,2v17h-5v21l20,-1l1,33l20,-1v10h8v61l1,22l-9,1h-32l1,21h-50l-5,1v-77l-1,-6h-54l-20,-1h-63Z"/><path data-race-id="IN03" d="M431,126l5,-2h32v-41l-2,-52v-5h65l7,-1h79l1,12v22l1,1v47l1,6v27l1,1v63h1v58l1,2v32l1,2v72l-14,1h-37l-1,1h-23v-18h2v-23h-33l3,-3v-8h-4v-10l-10,1v-21h-35l-1,-22v-61h-8v-10l-20,1l-1,-33l-20,1v-21h5v-17Z"/><path data-race-id="IN04" d="M129,407v-23l1,-2v-47l1,-3v-45l1,-2v-107l1,-2v-9l17,-1l3,3l7,-4l7,-1l10,-8l11,-6l4,-6l14,-4l21,11l5,5l8,-4l-1,15v62h63l20,1h54l1,6v77l5,-1h23v19l-2,-1l-12,-2v15h5v7h-24l-9,1v52l-20,1v33l6,3v13l-6,1v11h5v69h-2v17l-4,2l-19,-1l-1,14h-20l-5,-4l1,10l6,3l5,-1v6h-17v-8h-42l-14,-1h-14l1,-31v-62l-15,-1v-20h-55l-5,-1l-2,-13l4,-11l1,-17h-14v-5h-8Z"/><path data-race-id="IN05" d="M343,404l20,-1v-52l9,-1h24v-7h-5v-15l12,2l2,1v-19h27l-1,-21h32l9,-1h35v21l10,-1v10h4v8l-3,3h33v23h-25l-18,1h-24v62l1,10v31l-12,1h-40v4l-14,1v13l-3,3l-10,3l-2,-6l-8,1l-2,3l-9,1l-8,1l-3,-8l-11,-1l-5,4l-5,11h-5v-24h-5v-11l6,-1v-13l-6,-3Z"/><path data-race-id="IN06" d="M393,603l25,-1l-1,-1v-83l-1,-38l3,-3v-13l14,-1v-4h40l12,-1v-31l-1,-10v-62h24l18,-1h23v18h23l1,-1h37l14,-1v94l1,6v51l1,1v118l1,3v1l-1,1v1h1v10l-4,3l-1,1v1l-2,2l-1,1l-3,1h-2l-1,3l3,7l6,7v1l1,1h1v1l1,1v1l1,1v2h-1v2h-1v1l-2,1v1h-1v1l-1,1h-1v2h-1l-1,1v2h-1h1v2l1,1l1,1h10l1,1l4,6l-7,8l-1,1l1,4h1l1,2v5h-1l-1,1l-1,-1l-4,-1h-2l-2,-1h-4l-10,5l-1,-1h-5l-4,2l-1,1h-1l-1,1l-6,3h-1l-1,1h-1v1l-2,1h-1v1l-3,2h-1v1l-1,1l-1,1h-1v1l-1,1l-1,1h-1l-8,4h-1l-1,-1h-2l-1,-1l-2,-2l-1,-1l-1,-2l-1,-1v-1l-2,-2v-1h-1l-1,-1h-2l-1,-1h-6l-1,1h-2l-2,1h-1l-2,1h-6l-6,-1l-2,1l-3,3l-2,2v2l-1,1v5l1,1h1l1,2v3l1,1l-1,1v9l1,3h1l1,2h-10l-3,-4h-42l5,-4l-5,-10l2,-7h-10l-6,-8h-13l5,-3l8,-16v-42l-1,-21l-9,2l-5,6h-23l-15,1v-32Z"/><path data-race-id="IN07" d="M348,489h5l5,-11l5,-4l11,1l3,8l8,-1l9,-1l2,-3l8,-1l2,6l10,-3l1,38v14h-24v1h-31l-14,1Z"/><path data-race-id="IN08" d="M20,944l1,1l3,1l4,-1l1,1v1h2v-1l1,-1l-1,-4v-1h-7l-2,-2h-1v-1l3,-1l1,1h1l1,1l1,-1l1,-1h-1v-6l4,-1v-1l-2,-8v-2l2,-4h1v-2h-2l-1,1h-2v-1h-1l1,-4l9,-1l2,-1l2,-2l1,-3v-1h1v-1l-1,-2h-3v1h-1l-1,1h-2l-1,1h-1v-2l-1,-1l3,-2h3l1,-1h1v-3l1,-1h5l2,-3h1v-2l1,-2l2,-1v-2l-2,-1h-1v4l-2,-4v-1h-3l-6,-9l1,-4v-4l-1,-3l3,3v2h1v1h1v-1h1v-1l2,-3v-1l1,-4v-1l2,-3v-1l4,1v1l-1,1v1l-1,1v3h2l3,-4h1v-1l1,-2v-1l1,-2l1,-1l2,1v3l-1,1v2l4,1l2,-1v-2l1,-3l-1,-1v-4l1,-1v-3h1l2,-2l1,-1v-1l1,-1h1l5,-3l3,-5l1,-1v-1l1,-1v-1l1,-3v-2l1,-1v-3h-2l-2,-1v-2l2,-3h1l2,-1l2,1l1,-1h1l2,-1l1,-1l2,-1l1,-1v-1l1,-1h1l1,1h1l1,-1h1v-1h-1v-1l-1,-1l-1,-1v-1l-1,-1l-1,-3h1l2,-2l1,-1v-3h1l1,-1v-4h1l4,1v-1h-2v-6l2,-2l-1,-2l3,-6l6,-3h1l6,-1v-1h1l2,-2v-6l2,-3v-2h1l2,-1l-1,-1l-1,-1v-1l1,-3h-3v-2h2l2,-2v-1l-2,-2h-1l-1,-1v-2l-2,-3v-1h1v-2l-1,-1v-2l-1,-1l-1,-1l-3,-1v-1h1l1,-1l-1,-2h2v-3h-1l1,-2v1v-1l1,-1v-1h3v-1l-2,-1v-2h2v-3l-1,-1v-1h1v-1l1,-1v-1l-2,-2l-4,-3v-1l-6,-3h3v-1h-3v-2l1,-1v-1l1,-1v-1l-2,-3v-3l1,-1v-2h-1v-1l-1,-1l-1,-1l-1,-1v-1h-4l-1,-1v-2h1v-3h-7v-1l1,-1h2l1,-2h-1l-4,-4l2,-2v-2l2,-1l1,1h1v-1h-2v-2h2l2,-1h-1v-3h3l1,-1l1,-1l1,-1l1,-1v-1h1v-1h1v-5l-1,-2l2,-2h-3l-1,1v-1h-1l-1,-2l-1,-1l1,-1l1,-2h-1l-1,-1v-3l2,-1v-2h-3l-1,-1l3,-2l1,-2l1,-2l1,-1h1l1,-1h1l1,1h2v-1h1v-1l1,-1v-1h1l2,2v-112l1,-25v-53l1,-1h8v5h14l-1,17l-4,11l2,13l5,1h55v20l15,1v62l-1,31h14l14,1h42v8l1,22l-6,-1l1,5l-6,-1l1,40v62l-1,52v39l1,31l12,-1l-1,7l1,11l8,-1v14l3,2l4,5l13,-1v10l2,2l10,7l-2,-6h7l1,6l8,4v2l-5,2h-5l-1,1h-1l-1,2l-2,2l-1,-1l-2,-1l-2,-2h-4l-2,1v2h-1v1l1,1l1,1l4,3h1v1l-1,4l-1,3h-1l-3,2h-9l-1,1l-1,5l-1,5v2l1,1v8l1,1l1,1l1,1v1l-1,2l-1,1l-2,1h-5v-1h-2l-7,2v10l-1,4h-2l-1,1l-2,2h-3l-2,-2v-4l1,-1l1,-1v-3h1v-4l-1,-1l-2,-1h-4l-7,5h-2l-3,-4l-1,-1l-3,-6l-1,-1l-1,-1v-2h-1v-2l-1,-1v-4h-1v-1h-1v-1h-2v-1h-1v-1h-1l-1,1h-1v1h-2l-1,1h-1l-1,1l-1,1h-1v1l-2,1v1h-1v2l-1,1h-1v1l-1,1l-1,1h-1l-1,1h-3l-1,1h-6h1h-2l-1,1l-7,3l-6,7l1,1v5l-4,11v2l-6,6h-6v-1l-2,-7l-5,-7h-7l-12,-8l-12,-7h-1l-1,-1l-2,-1v-1l-1,-1l-4,-4l-9,-1h-2l-2,1l-3,1l-9,7l-1,-1v-1h-1l-1,-1h-1l-2,-2h-1l-5,-6v-1l-1,-5h-1l-8,11l3,7l4,3v7l-1,2h-1v2h-1l-1,2h-1l-2,1h-8l-2,-2v-5l1,-1l1,-1l1,-7l-4,-2h-1v1h-1l-1,1h-9l-1,1h-1l-3,2l-2,1l-1,1h-2l-4,-1l-2,-1l-1,-1l-3,-4l-2,-4l-1,-2h-2l-2,-1l-2,2h-1v1h-1v1l-1,1v1l-1,1l-1,1h-1v5l1,3v1h1v1h2v2l1,1v1l1,2v5h-1l-2,2h-2l-1,2v1l-1,2l-1,1v1h-3v-1l-1,-1l-1,-1l-2,-2h-1v-1l-2,-1h-1l-2,-1h-1l-1,1l-1,-2l-1,-1h-1l-1,1h-1l-1,1h-3l-2,-2v-1h-1l5,-2h4l2,-1h1l-1,-3v-1h-2l-2,-1h-1v-1h-1l-1,-1v-2l-1,-3l-2,-2v-1h-1Z"/><path data-race-id="IN09" d="M293,602l-1,-22h17v-6l-5,1l-6,-3l-1,-10l5,4h20l1,-14l19,1l4,-2v-17h2l14,-1h31v-1h24v69l1,1l-25,1l1,41v32l15,-1h23l5,-6l9,-2l1,21v42l-8,16l-5,3h13l6,8h10l-2,7l5,10l-5,4h42l3,4h10l2,5v6l-1,2l-7,5l-3,3v1l-2,4h-1v2h-1l-8,4h-8l-7,6l-3,13l-1,4l-2,8l-1,1l-4,6h-1l-2,1v1h-1l-2,2l-3,2h-3l-4,-2v-1l-1,-1h-4l-3,1h-1l-2,1l-2,2v3l-2,8l-4,3v1l-2,1l-2,3l-1,1v1l-2,5v19l-1,2v1l-1,9l-6,6h-5l-1,1h-3l-4,1l-1,1l-2,2v1l1,3l-1,3h-1l-4,-5l-1,-1v-1h-1v-2l-1,-1h1l-1,-1l-10,-4l-4,1l-4,1l-2,-1l-1,-1l-4,-2h-2l-2,-2l-2,-2l-2,-1l-3,-4v-1l-1,-2v-1l-1,-2v-2l1,-2l1,-7l-8,-9l-3,-2l-2,-2l-3,-1h-3v2h-7l2,6l-10,-7l-2,-2v-10l-13,1l-4,-5l-3,-2v-14l-8,1l-1,-11l1,-7l-12,1l-1,-31v-39l1,-52v-62l-1,-40l6,1l-1,-5Z"/>  <path class="mesh" d="M624,370l-14,1h-37l-1,1h-23v-18h2v-23h-33l3,-3v-8h-4v-10l-10,1v-21h-35M405,312v19l-2,-1l-12,-2v15h5v7h-24l-9,1v52l-20,1v33l6,3v13l-6,1v11h5v69h-2v17l-4,2l-19,-1l-1,14h-20l-5,-4l1,10l6,3l5,-1v6h-17v-8h-42l-14,-1h-14l1,-31v-62l-15,-1v-20h-55l-5,-1l-2,-13l4,-11l1,-17h-14v-5h-8M549,354h-23l-18,1h-24v62l1,10v31l-12,1h-40v4l-14,1v13l-3,3l-10,3l-2,-6l-8,1l-2,3l-9,1l-8,1l-3,-8l-11,-1l-5,4l-5,11h-5M516,782h-10l-3,-4h-42l5,-4l-5,-10l2,-7h-10l-6,-8h-13l5,-3l8,-16v-42l-1,-21l-9,2l-5,6h-23l-15,1v-32l-1,-41l25,-1l-1,-1v-83l-1,-38M417,532h-24v1h-31l-14,1M292,27l-4,2v14h-7v3h-21v97l-8,1l-12,8l-8,4l-5,-5l-21,-11l-14,4l-4,6l-11,6l-10,8l-7,1l-7,4l-3,-3l-17,1M466,26v5l2,52v41h-32l-5,2l-4,2v17h-5v21l20,-1l1,33l20,-1v10h8v61l1,22l-9,1h-32l1,21h-50l-5,1v-77l-1,-6h-54l-20,-1h-63v-62l1,-15M292,580l1,22l-6,-1l1,5l-6,-1l1,40v62l-1,52v39l1,31l12,-1l-1,7l1,11l8,-1v14l3,2l4,5l13,-1v10l2,2l10,7l-2,-6h7"/><g class="cities"><circle r="7" cx="379" cy="502"/><text x="379" y="502">Indianapolis</text><circle r="7" cx="563" cy="176"/><text x="563" y="176">Fort Wayne</text><circle r="7" cx="118" cy="928"/><text x="118" y="928">Evansville</text></g></svg>