<svg version="1.1" xmlns="http://www.w3.org/2000/svg" width="651" height="1000" viewBox="0 0 651 1000">
  <path d="M418 27
h 41
l 7 -1
h 65
l 7 -1
h 47
l 24 -1
h 8
l 1 13
v 22
l 1 1
v 47
l 1 6
v 27
l 1 1
v 63
h 1
v 58
l 1 2
v 32
l 1 2
v 166
l 1 6
v 51
l 1 1
v 118
l 1 3
v 1
l -1 1
v 1
h 1
v 10
l -4 3
l -1 1
v 1
l -2 2
l -1 1
l -3 1
h -2
l -1 5
l 3 5
l 6 7
v 1
l 1 1
h 1
v 1
l 1 1
v 1
l 1 1
v 2
h -1
v 2
h -1
v 1
l -2 1
v 1
h -1
v 1
l -1 1
h -1
v 2
h -1
l -1 1
v 2
h -1
h 1
v 2
l 1 1
l 1 1
h 10
l 1 1
l 4 3
l -7 11
l -1 1
l 1 4
h 1
l 1 2
v 5
h -1
l -1 1
l -1 -1
l -4 -1
h -2
l -2 -1
h -4
l -10 5
l -1 -1
h -5
l -4 2
l -1 1
h -1
l -1 1
l -6 3
h -1
l -1 1
h -1
v 1
l -2 1
h -1
v 1
l -3 2
h -1
v 1
l -1 1
l -1 1
h -1
v 1
l -1 1
l -1 1
h -1
l -8 4
h -1
l -1 -1
h -2
l -1 -1
l -2 -2
l -1 -1
l -1 -2
l -1 -1
v -1
l -2 -2
v -1
h -1
l -1 -1
h -2
l -1 -1
h -6
l -1 1
h -2
l -2 1
h -1
l -2 1
h -6
l -6 -1
l -2 1
l -3 3
l -2 2
v 2
l -1 1
v 5
l 1 1
h 1
l 1 2
v 3
l 1 1
l -1 1
v 9
l 1 3
h 1
l 1 2
l 2 5
v 6
l -1 2
l -7 5
l -3 3
v 1
l -2 4
h -1
v 2
h -1
l -8 4
h -8
l -7 6
l -3 13
l -1 4
l -2 8
l -1 1
l -4 6
h -1
l -2 1
v 1
h -1
l -2 2
l -3 2
h -3
l -4 -2
v -1
l -1 -1
h -4
l -3 1
h -1
l -2 1
l -2 2
v 7
l -6 7
v 1
l -2 1
l -2 3
l -1 1
l -2 6
v 19
l -1 2
v 1
l -1 9
l -6 6
h -5
l -1 1
h -3
l -4 1
l -1 1
l -2 2
v 1
l 1 3
l -1 3
h -1
l -4 -5
l -1 -1
v -1
h -1
v -2
l -1 -1
h 1
l -1 -1
l -10 -4
l -4 1
l -4 1
l -2 -1
l -1 -1
l -4 -2
h -2
l -2 -2
l -2 -2
l -2 -1
l -3 -4
v -1
l -1 -2
v -1
l -1 -2
v -2
l 1 -2
v -9
l -7 -7
l -3 -2
l -2 -2
l -3 -1
h -3
v 1
l 1 7
l 8 4
v 2
l -5 2
h -5
l -1 1
h -1
l -1 2
l -2 2
l -1 -1
l -2 -1
l -2 -2
h -4
l -2 1
v 2
h -1
v 1
l 1 1
l 1 1
l 4 3
h 1
v 1
l -1 4
l -1 3
h -1
l -3 2
h -9
l -1 1
l -1 5
l -1 5
v 2
l 1 1
v 8
l 1 1
l 1 1
l 1 1
v 1
l -1 2
l -1 1
l -2 1
h -5
v -1
h -2
l -7 2
v 10
l -1 4
h -2
l -1 1
l -2 2
h -3
l -2 -2
v -4
l 1 -1
l 1 -1
v -3
h 1
v -4
l -1 -1
l -2 -1
h -4
l -7 5
h -2
l -3 -4
l -1 -1
l -3 -6
l -1 -1
l -1 -1
v -2
h -1
v -2
l -1 -1
v -4
h -1
v -1
h -1
v -1
h -2
v -1
h -1
v -1
h -1
l -1 1
h -1
v 1
h -2
l -1 1
h -1
l -1 1
l -1 1
h -1
v 1
l -2 1
v 1
h -1
v 2
l -1 1
h -1
v 1
l -1 1
l -1 1
h -1
l -1 1
h -3
l -1 1
h -7
l -1 1
l -7 3
l -6 7
l 1 1
v 5
l -4 11
v 2
l -6 6
h -6
v -1
l -2 -7
l -5 -7
h -7
l -12 -8
l -12 -7
h -1
l -1 -1
l -2 -1
v -1
l -1 -1
l -9 -5
h -6
l -2 1
l -3 1
l -9 7
l -1 -1
v -1
h -1
l -1 -1
h -1
l -2 -2
h -1
l -5 -6
v -1
l -1 -5
h -1
l -8 11
l 3 7
l 4 3
v 7
l -1 2
h -1
v 2
h -1
l -1 2
h -1
l -2 1
h -8
l -2 -2
v -5
l 1 -1
l 1 -1
l 1 -7
l -4 -2
h -1
v 1
h -1
l -1 1
h -9
l -1 1
h -1
l -3 2
l -2 1
l -1 1
h -2
l -4 -1
l -2 -1
l -1 -1
l -3 -4
l -2 -4
l -1 -2
h -2
l -2 -1
l -2 2
h -1
v 1
h -1
v 1
l -1 1
v 1
l -1 1
l -1 1
h -1
v 5
l 1 3
v 1
h 1
v 1
h 2
v 2
l 1 1
v 1
l 1 2
v 5
h -1
l -2 2
h -2
l -1 2
v 1
l -1 2
l -1 1
h -3
l -1 -1
l -1 -1
l -2 -2
h -1
v -1
l -2 -1
h -1
l -2 -1
h -1
l -1 1
l -1 -2
l -1 -1
h -1
l -1 1
h -1
l -1 1
h -3
l -2 -2
v -1
h -1
l 5 -2
h 4
l 2 -1
h 1
l -1 -3
v -1
h -2
l -2 -1
h -1
v -1
h -1
l -1 -1
v -2
l -1 -3
l -2 -2
v -1
h -1
l 3 -2
l 1 1
l 3 1
l 4 -1
l 1 1
v 1
h 2
v -1
l 1 -1
l -1 -4
v -1
h -7
l -2 -2
h -1
v -1
l 3 -1
l 1 1
h 1
l 1 1
l 1 -1
l 1 -1
h -1
v -6
l 4 -1
v -1
l -2 -8
v -2
l 2 -4
h 1
v -2
h -2
l -1 1
h -2
v -1
h -1
l 1 -4
l 9 -1
l 2 -1
l 2 -2
l 1 -3
v -1
h 1
v -1
l -1 -2
h -3
v 1
h -1
l -1 1
h -2
l -1 1
h -1
v -2
l -1 -1
l 3 -2
h 3
l 1 -1
h 1
v -3
l 1 -1
h 5
l 2 -3
h 1
v -2
l 1 -2
l 2 -1
v -2
l -2 -1
h -1
v 4
l -2 -4
v -1
h -3
l -6 -8
l 1 -9
l -1 -3
l 3 3
v 2
h 1
v 1
h 1
v -1
h 1
v -1
l 2 -3
v -1
l 1 -4
v -1
l 2 -3
v -1
l 4 1
v 1
l -1 1
v 1
l -1 1
v 3
h 2
l 3 -4
h 1
v -1
l 1 -2
v -1
l 1 -2
l 1 -1
l 2 1
v 3
l -1 1
v 2
l 4 1
l 2 -1
v -2
l 1 -3
l -1 -1
v -4
l 1 -1
v -3
h 1
l 2 -2
l 1 -1
v -1
l 1 -1
h 1
l 5 -3
l 3 -5
l 1 -1
v -1
l 1 -1
v -1
l 1 -3
v -2
l 1 -1
v -3
h -2
l -2 -1
v -2
l 2 -3
h 1
l 2 -1
l 2 1
l 1 -1
h 1
l 2 -1
l 1 -1
l 2 -1
l 1 -1
v -1
l 1 -1
h 1
l 1 1
h 1
l 1 -1
h 1
v -1
h -1
v -1
l -1 -1
l -1 -1
v -1
l -1 -1
l -1 -3
h 1
l 2 -2
l 1 -1
v -3
h 1
l 1 -1
v -4
h 1
l 4 1
v -1
h -2
v -6
l 2 -2
l -1 -2
l 3 -6
l 6 -3
h 1
l 6 -1
v -1
h 1
l 2 -2
v -6
l 2 -3
v -2
h 1
l 2 -1
l -1 -1
l -1 -1
v -1
l 1 -3
h -3
v -2
h 2
l 2 -2
v -1
l -2 -2
h -1
l -1 -1
v -2
l -2 -3
v -1
h 1
v -2
l -1 -1
v -2
l -1 -1
l -1 -1
l -3 -1
v -1
h 1
l 1 -1
l -1 -2
h 2
v -3
h -1
l 1 -2
v 1
v -1
l 1 -1
v -1
h 3
v -1
l -2 -1
v -2
h 2
v -3
l -1 -1
v -1
h 1
v -1
l 1 -1
v -1
l -2 -2
l -4 -3
v -1
l -6 -3
h 3
v -1
h -3
v -2
l 1 -1
v -1
l 1 -1
v -1
l -2 -3
v -3
l 1 -1
v -2
h -1
v -1
l -1 -1
l -1 -1
l -1 -1
v -1
h -4
l -1 -1
v -2
h 1
v -3
h -7
v -1
l 1 -1
h 2
l 1 -2
h -1
l -4 -4
l 2 -2
v -2
l 2 -1
l 1 1
h 1
v -1
h -2
v -2
h 2
l 2 -1
h -1
v -3
h 3
l 1 -1
l 1 -1
l 1 -1
l 1 -1
v -1
h 1
v -1
h 1
v -5
l -1 -2
l 2 -2
h -3
l -1 1
v -1
h -1
l -1 -2
l -1 -1
l 1 -1
l 1 -2
h -1
l -1 -1
v -3
l 2 -1
v -2
h -3
l -1 -1
l 3 -2
l 1 -2
l 1 -2
l 1 -1
h 1
l 1 -1
h 1
l 1 1
h 2
v -1
h 1
v -1
l 1 -1
v -1
h 1
l 2 2
v -112
l 1 -25
v -53
l 1 -1
v -26
l 1 -2
v -47
l 1 -3
v -45
l 1 -2
v -107
l 1 -2
v -79
l 1 -4
v -42
h 1
v -25
h 56
l 68 1
h 151
Z"/>
<g class="districts">
<path data-race-id="IN01" d="M133 133
v -36
l 1 -4
v -42
h 1
v -25
h 80
l 35 1
h 42
l -4 2
v 14
h -7
v 3
h -21
v 97
l -8 1
l -12 8
l -8 4
l -15 -13
l -14 -3
l -11 4
l -4 6
l -11 6
l -10 8
l -7 1
l -6 4
l -4 -3
l -17 1
v -33
Z"/>
<path data-race-id="IN02" d="M239 167
l 1 -15
l 12 -8
l 8 -1
v -97
h 21
v -3
h 7
v -14
l 4 -2
h 167
l 7 -1
v 5
l 2 52
v 41
h -32
l -5 2
l -4 2
v 17
h -5
v 21
l 20 -1
l 1 33
l 20 -1
v 10
h 8
v 61
l 1 22
l -9 1
h -32
l 1 21
h -50
l -5 1
v -77
l -1 -6
h -54
l -20 -1
h -63
Z"/>
<path data-race-id="IN03" d="M431 126
l 5 -2
h 32
v -41
l -2 -52
v -5
h 65
l 7 -1
h 47
l 24 -1
h 8
l 1 13
v 22
l 1 1
v 47
l 1 6
v 27
l 1 1
v 63
h 1
v 58
l 1 2
v 32
l 1 2
v 72
l -14 1
h -37
l -1 1
h -23
v -18
h 2
v -23
h -33
l 3 -3
v -8
h -4
v -10
l -10 1
v -21
h -35
l -1 -22
v -61
h -8
v -10
l -20 1
l -1 -33
l -20 1
v -21
h 5
v -17
Z"/>
<path data-race-id="IN04" d="M129 407
v -23
l 1 -2
v -47
l 1 -3
v -45
l 1 -2
v -107
l 1 -2
v -9
l 17 -1
l 4 3
l 6 -4
l 7 -1
l 10 -8
l 11 -6
l 4 -6
l 11 -4
l 14 3
l 15 13
l 8 -4
l -1 15
v 62
h 63
l 20 1
h 54
l 1 6
v 77
l 5 -1
h 23
v 19
l -2 -1
l -12 -2
v 15
h 5
v 7
h -24
l -9 1
v 52
l -20 1
v 33
l 6 3
v 13
l -6 1
v 11
h 5
v 69
h -2
v 17
l -4 2
l -19 -1
l -1 14
h -20
l -5 -4
l 1 10
l 6 3
l 5 -1
v 6
h -17
v -8
h -42
l -14 -1
h -14
l 1 -31
v -62
l -15 -1
v -20
h -55
l -5 -1
l -2 -17
l 4 -7
l 1 -17
h -14
v -5
h -8
Z"/>
<path data-race-id="IN05" d="M343 404
l 20 -1
v -52
l 9 -1
h 24
v -7
h -5
v -15
l 12 2
l 2 1
v -19
h 27
l -1 -21
h 32
l 9 -1
h 35
v 21
l 10 -1
v 10
h 4
v 8
l -3 3
h 33
v 23
h -25
l -18 1
h -24
v 62
l 1 10
v 31
l -12 1
h -40
v 4
l -14 1
v 13
l -3 3
l -10 -1
l -7 -4
l -5 6
l -9 1
l -8 1
l -3 -8
l -11 -1
l -5 4
l -5 11
h -5
v -24
h -5
v -11
l 6 -1
v -13
l -6 -3
Z"/>
<path data-race-id="IN06" d="M393 603
l 25 -1
l -1 -1
v -83
l -1 -38
l 3 -3
v -13
l 14 -1
v -4
h 40
l 12 -1
v -31
l -1 -10
v -62
h 24
l 18 -1
h 23
v 18
h 23
l 1 -1
h 37
l 14 -1
v 94
l 1 6
v 51
l 1 1
v 118
l 1 3
v 1
l -1 1
v 1
h 1
v 10
l -4 3
l -1 1
v 1
l -2 2
l -1 1
l -3 1
h -2
l -1 5
l 3 5
l 6 7
v 1
l 1 1
h 1
v 1
l 1 1
v 1
l 1 1
v 2
h -1
v 2
h -1
v 1
l -2 1
v 1
h -1
v 1
l -1 1
h -1
v 2
h -1
l -1 1
v 2
h -1
h 1
v 2
l 1 1
l 1 1
h 10
l 1 1
l 4 3
l -7 11
l -1 1
l 1 4
h 1
l 1 2
v 5
h -1
l -1 1
l -1 -1
l -4 -1
h -2
l -2 -1
h -4
l -10 5
l -1 -1
h -5
l -4 2
l -1 1
h -1
l -1 1
l -6 3
h -1
l -1 1
h -1
v 1
l -2 1
h -1
v 1
l -3 2
h -1
v 1
l -1 1
l -1 1
h -1
v 1
l -1 1
l -1 1
h -1
l -8 4
h -1
l -1 -1
h -2
l -1 -1
l -2 -2
l -1 -1
l -1 -2
l -1 -1
v -1
l -2 -2
v -1
h -1
l -1 -1
h -2
l -1 -1
h -6
l -1 1
h -2
l -2 1
h -1
l -2 1
h -6
l -6 -1
l -2 1
l -3 3
l -2 2
v 2
l -1 1
v 5
l 1 1
h 1
l 1 2
v 3
l 1 1
l -1 1
v 9
l 1 3
h 1
l 1 2
h -10
l -3 -4
h -42
l 5 -4
l -5 -10
l 2 -7
h -10
l -6 -8
h -13
l 5 -3
l 8 -16
v -42
l -1 -21
l -9 2
l -5 6
h -23
l -15 1
v -4
Z"/>
<path data-race-id="IN07" d="M348 489
h 5
l 5 -11
l 5 -4
l 11 1
l 3 8
l 8 -1
l 9 -1
l 5 -6
l 7 4
l 10 1
l 1 38
v 14
h -24
v 1
h -31
l -14 1
Z"/>
<path data-race-id="IN08" d="M20 944
l 1 1
l 3 1
l 4 -1
l 1 1
v 1
h 2
v -1
l 1 -1
l -1 -4
v -1
h -7
l -2 -2
h -1
v -1
l 3 -1
l 1 1
h 1
l 1 1
l 1 -1
l 1 -1
h -1
v -6
l 4 -1
v -1
l -2 -8
v -2
l 2 -4
h 1
v -2
h -2
l -1 1
h -2
v -1
h -1
l 1 -4
l 9 -1
l 2 -1
l 2 -2
l 1 -3
v -1
h 1
v -1
l -1 -2
h -3
v 1
h -1
l -1 1
h -2
l -1 1
h -1
v -2
l -1 -1
l 3 -2
h 3
l 1 -1
h 1
v -3
l 1 -1
h 5
l 2 -3
h 1
v -2
l 1 -2
l 2 -1
v -2
l -2 -1
h -1
v 4
l -2 -4
v -1
h -3
l -6 -9
l 1 -4
v -4
l -1 -3
l 3 3
v 2
h 1
v 1
h 1
v -1
h 1
v -1
l 2 -3
v -1
l 1 -4
v -1
l 2 -3
v -1
l 4 1
v 1
l -1 1
v 1
l -1 1
v 3
h 2
l 3 -4
h 1
v -1
l 1 -2
v -1
l 1 -2
l 1 -1
l 2 1
v 3
l -1 1
v 2
l 4 1
l 2 -1
v -2
l 1 -3
l -1 -1
v -4
l 1 -1
v -3
h 1
l 2 -2
l 1 -1
v -1
l 1 -1
h 1
l 5 -3
l 3 -5
l 1 -1
v -1
l 1 -1
v -1
l 1 -3
v -2
l 1 -1
v -3
h -2
l -2 -1
v -2
l 2 -3
h 1
l 2 -1
l 2 1
l 1 -1
h 1
l 2 -1
l 1 -1
l 2 -1
l 1 -1
v -1
l 1 -1
h 1
l 1 1
h 1
l 1 -1
h 1
v -1
h -1
v -1
l -1 -1
l -1 -1
v -1
l -1 -1
l -1 -3
h 1
l 2 -2
l 1 -1
v -3
h 1
l 1 -1
v -4
h 1
l 4 1
v -1
h -2
v -6
l 2 -2
l -1 -2
l 3 -6
l 6 -3
h 1
l 6 -1
v -1
h 1
l 2 -2
v -6
l 2 -3
v -2
h 1
l 2 -1
l -1 -1
l -1 -1
v -1
l 1 -3
h -3
v -2
h 2
l 2 -2
v -1
l -2 -2
h -1
l -1 -1
v -2
l -2 -3
v -1
h 1
v -2
l -1 -1
v -2
l -1 -1
l -1 -1
l -3 -1
v -1
h 1
l 1 -1
l -1 -2
h 2
v -3
h -1
l 1 -2
v 1
v -1
l 1 -1
v -1
h 3
v -1
l -2 -1
v -2
h 2
v -3
l -1 -1
v -1
h 1
v -1
l 1 -1
v -1
l -2 -2
l -4 -3
v -1
l -6 -3
h 3
v -1
h -3
v -2
l 1 -1
v -1
l 1 -1
v -1
l -2 -3
v -3
l 1 -1
v -2
h -1
v -1
l -1 -1
l -1 -1
l -1 -1
v -1
h -4
l -1 -1
v -2
h 1
v -3
h -7
v -1
l 1 -1
h 2
l 1 -2
h -1
l -4 -4
l 2 -2
v -2
l 2 -1
l 1 1
h 1
v -1
h -2
v -2
h 2
l 2 -1
h -1
v -3
h 3
l 1 -1
l 1 -1
l 1 -1
l 1 -1
v -1
h 1
v -1
h 1
v -5
l -1 -2
l 2 -2
h -3
l -1 1
v -1
h -1
l -1 -2
l -1 -1
l 1 -1
l 1 -2
h -1
l -1 -1
v -3
l 2 -1
v -2
h -3
l -1 -1
l 3 -2
l 1 -2
l 1 -2
l 1 -1
h 1
l 1 -1
h 1
l 1 1
h 2
v -1
h 1
v -1
l 1 -1
v -1
h 1
l 2 2
v -112
l 1 -25
v -53
l 1 -1
h 8
v 5
h 14
l -1 17
l -4 7
l 2 17
l 5 1
h 55
v 20
l 15 1
v 62
l -1 31
h 14
l 14 1
h 42
v 8
l 1 22
l -6 -1
l 1 5
l -6 -1
l 1 40
v 62
l -1 52
v 39
l 1 31
l 12 -1
l -1 7
l 1 11
l 8 -1
v 14
l 3 2
l 4 5
l 13 -1
v 10
l 2 2
l 7 2
l 8 -1
l 1 6
l 8 4
v 2
l -5 2
h -5
l -1 1
h -1
l -1 2
l -2 2
l -1 -1
l -2 -1
l -2 -2
h -4
l -2 1
v 2
h -1
v 1
l 1 1
l 1 1
l 4 3
h 1
v 1
l -1 4
l -1 3
h -1
l -3 2
h -9
l -1 1
l -1 5
l -1 5
v 2
l 1 1
v 8
l 1 1
l 1 1
l 1 1
v 1
l -1 2
l -1 1
l -2 1
h -5
v -1
h -2
l -7 2
v 10
l -1 4
h -2
l -1 1
l -2 2
h -3
l -2 -2
v -4
l 1 -1
l 1 -1
v -3
h 1
v -4
l -1 -1
l -2 -1
h -4
l -7 5
h -2
l -3 -4
l -1 -1
l -3 -6
l -1 -1
l -1 -1
v -2
h -1
v -2
l -1 -1
v -4
h -1
v -1
h -1
v -1
h -2
v -1
h -1
v -1
h -1
l -1 1
h -1
v 1
h -2
l -1 1
h -1
l -1 1
l -1 1
h -1
v 1
l -2 1
v 1
h -1
v 2
l -1 1
h -1
v 1
l -1 1
l -1 1
h -1
l -1 1
h -3
l -1 1
h -6
h 1
h -2
l -1 1
l -7 3
l -6 7
l 1 1
v 5
l -4 11
v 2
l -6 6
h -6
v -1
l -2 -7
l -5 -7
h -7
l -12 -8
l -12 -7
h -1
l -1 -1
l -2 -1
v -1
l -1 -1
l -9 -5
h -6
l -2 1
l -3 1
l -9 7
l -1 -1
v -1
h -1
l -1 -1
h -1
l -2 -2
h -1
l -5 -6
v -1
l -1 -5
h -1
l -8 11
l 3 7
l 4 3
v 7
l -1 2
h -1
v 2
h -1
l -1 2
h -1
l -2 1
h -8
l -2 -2
v -5
l 1 -1
l 1 -1
l 1 -7
l -4 -2
h -1
v 1
h -1
l -1 1
h -9
l -1 1
h -1
l -3 2
l -2 1
l -1 1
h -2
l -4 -1
l -2 -1
l -1 -1
l -3 -4
l -2 -4
l -1 -2
h -2
l -2 -1
l -2 2
h -1
v 1
h -1
v 1
l -1 1
v 1
l -1 1
l -1 1
h -1
v 5
l 1 3
v 1
h 1
v 1
h 2
v 2
l 1 1
v 1
l 1 2
v 5
h -1
l -2 2
h -2
l -1 2
v 1
l -1 2
l -1 1
h -3
l -1 -1
l -1 -1
l -2 -2
h -1
v -1
l -2 -1
h -1
l -2 -1
h -1
l -1 1
l -1 -2
l -1 -1
h -1
l -1 1
h -1
l -1 1
h -3
l -2 -2
v -1
h -1
l 5 -2
h 4
l 2 -1
h 1
l -1 -3
v -1
h -2
l -2 -1
h -1
v -1
h -1
l -1 -1
v -2
l -1 -3
l -2 -2
v -1
h -1
Z"/>
<path data-race-id="IN09" d="M293 602
l -1 -22
h 17
v -6
l -5 1
l -6 -3
l -1 -10
l 5 4
h 20
l 1 -14
l 19 1
l 4 -2
v -17
h 2
l 14 -1
h 31
v -1
h 24
v 69
l 1 1
l -25 1
l 1 69
v 4
l 15 -1
h 23
l 5 -6
l 9 -2
l 1 21
v 42
l -8 16
l -5 3
h 13
l 6 8
h 10
l -2 7
l 5 10
l -5 4
h 42
l 3 4
h 10
l 2 5
v 6
l -1 2
l -7 5
l -3 3
v 1
l -2 4
h -1
v 2
h -1
l -8 4
h -8
l -7 6
l -3 13
l -1 4
l -2 8
l -1 1
l -4 6
h -1
l -2 1
v 1
h -1
l -2 2
l -3 2
h -3
l -4 -2
v -1
l -1 -1
h -4
l -3 1
h -1
l -2 1
l -2 2
v 7
l -6 7
v 1
l -2 1
l -2 3
l -1 1
v 1
l -2 5
v 19
l -1 2
v 1
l -1 9
l -6 6
h -5
l -1 1
h -3
l -4 1
l -1 1
l -2 2
v 1
l 1 3
l -1 3
h -1
l -4 -5
l -1 -1
v -1
h -1
v -2
l -1 -1
h 1
l -1 -1
l -10 -4
l -4 1
l -4 1
l -2 -1
l -1 -1
l -4 -2
h -2
l -2 -2
l -2 -2
l -2 -1
l -3 -4
v -1
l -1 -2
v -1
l -1 -2
v -2
l 1 -2
l 1 -7
l -8 -9
l -3 -2
l -2 -2
l -3 -1
h -3
v 2
l -8 1
l -7 -2
l -2 -2
v -10
l -13 1
l -4 -5
l -3 -2
v -14
l -8 1
l -1 -11
l 1 -7
l -12 1
l -1 -31
v -39
l 1 -52
v -62
l -1 -40
l 6 1
l -1 -5
Z"/>
</g>
  <path class="districts-mesh" d="M624 370
l -14 1
h -37
l -1 1
h -23
v -18
h 2
v -23
h -33
l 3 -3
v -8
h -4
v -10
l -10 1
v -21
h -35
M405 312
v 19
l -2 -1
l -12 -2
v 15
h 5
v 7
h -24
l -9 1
v 52
l -20 1
v 33
l 6 3
v 13
l -6 1
v 11
h 5
v 69
h -2
v 17
l -4 2
l -19 -1
l -1 14
h -20
l -5 -4
l 1 10
l 6 3
l 5 -1
v 6
h -17
v -8
h -42
l -14 -1
h -14
l 1 -31
v -62
l -15 -1
v -20
h -55
l -5 -1
l -2 -17
l 4 -7
l 1 -17
h -14
v -5
h -8
M549 354
h -23
l -18 1
h -24
v 62
l 1 10
v 31
l -12 1
h -40
v 4
l -14 1
v 13
l -3 3
l -10 -1
l -7 -4
l -5 6
l -9 1
l -8 1
l -3 -8
l -11 -1
l -5 4
l -5 11
h -5
M516 782
h -10
l -3 -4
h -42
l 5 -4
l -5 -10
l 2 -7
h -10
l -6 -8
h -13
l 5 -3
l 8 -16
v -42
l -1 -21
l -9 2
l -5 6
h -23
l -15 1
v -4
l -1 -69
l 25 -1
l -1 -1
v -83
l -1 -38
M417 532
h -24
v 1
h -31
l -14 1
M292 27
l -4 2
v 14
h -7
v 3
h -21
v 97
l -8 1
l -12 8
l -8 4
l -15 -13
l -14 -3
l -11 4
l -4 6
l -11 6
l -10 8
l -7 1
l -6 4
l -4 -3
l -17 1
M466 26
v 5
l 2 52
v 41
h -32
l -5 2
l -4 2
v 17
h -5
v 21
l 20 -1
l 1 33
l 20 -1
v 10
h 8
v 61
l 1 22
l -9 1
h -32
l 1 21
h -50
l -5 1
v -77
l -1 -6
h -54
l -20 -1
h -63
v -62
l 1 -15
M292 580
l 1 22
l -6 -1
l 1 5
l -6 -1
l 1 40
v 62
l -1 52
v 39
l 1 31
l 12 -1
l -1 7
l 1 11
l 8 -1
v 14
l 3 2
l 4 5
l 13 -1
v 10
l 2 2
l 7 2
l 8 -1"/>
</svg>