<svg version="1.1" xmlns="http://www.w3.org/2000/svg" width="1000" height="517" viewBox="0 0 1000 517"><path data-race-id="KS01" d="M48,13h12l1,1l43,1h1l9,1h9l35,1h22l22,1h23l5,1h37l4,1h48l3,1h87l5,1h176l10,-1h73l13,-1h53l4,-1h14v14l-23,1l-5,5v4h-7l-2,5h-33v42h29l42,-1l25,-1v29l1,2v40l12,4l1,12v25l1,20v44l1,6v42h-25l-26,1v14h-21l-40,1h-39l-1,-14h-26l-42,1v42l1,28l-14,1h-83l-1,-15v-56l-1,-14h-54l-1,4v38l-14,-1h-27v-28h-12l-2,-2l-28,-1v45l1,29v42l1,14v61h-20v-1h-44v-1h-52l-7,-1h-67l-1,-1h-37l-5,-1h-33l-1,-1h-32v-1h-21v-24l1,-18v-1l1,-21v-13l2,-29v-16l1,-32l1,-15l1,-34v-3l2,-31l1,-18v-18l1,-21l1,-14v-21l1,-3v-11l1,-16v-15l1,-31l1,-8v-10l1,-19v-11l1,-25v-4Z"/><path data-race-id="KS02" d="M687,48h33l2,-5h7v-4l5,-5l23,-1v-14h24l3,-1h36l9,-1h42l5,4v1l8,4v5l3,1l1,-1l4,2v2l1,1h2l3,2l3,-1h1l4,-3v-2h1l3,-1v1h1l1,-1h3l3,2v1l-1,1v1h-1v3l2,2h4l2,1v1l1,1v1l-1,1v1h-1v1h-5v1h-1v2l1,1h1v1h3v-1h1l1,-1h2l1,1v4l-1,1h-1v1h-1l-1,1h-2l-1,-1h-1v-1h-1l-1,-1h-1v-1v1h-1l-1,1v9h-1v1h-5v1h-1v1l-1,1v1l-1,1v1h-1v5h1v3h-1v1l-1,1h-3v-1h-1v1h-2v7h1l7,5v4h1v2l9,4v2l1,1l2,1v3l2,1h7v2l-3,2l-1,1v4l1,1v3l1,1l1,1l2,2h1l4,2v1h1v1h1v2l-1,2v2l3,1h3l1,1h-16v34l-5,2l-6,-3l-7,3l1,7v27l1,5l18,-1v5h9v7h4v9h13l1,9h11v4l1,5v20l1,4v20h1v28l1,1v29h1v29h1v21l1,1v24h1v25l1,1v22l1,1v13h-13l-5,1h-14l-16,1h-24l-1,1h-27l-1,1h-33v1h-39l-1,-14v-48l-1,-3v-90l-1,-12v-62l-1,-6v-44l-1,-20v-25l-1,-12l-12,-4v-40l-1,-2v-29l-25,1l-42,1h-29Z"/><path data-race-id="KS03" d="M907,178l7,-3l6,3l5,-2v-34h16v2h1v1l2,1l2,1h9v1l1,1l4,-1h3l1,2v2l-1,1l-1,1v10h1v26h1v28l1,1v27h-11l-1,-9h-13v-9h-4v-7h-9v-5l-18,1l-1,-5v-27Z"/><path data-race-id="KS04" d="M343,356v-45l28,1l2,2h12v28h27l14,1v-38l1,-4h54l1,14v56l1,15h83l14,-1l-1,-28v-42l42,-1h26l1,14h39l40,-1h21v-14l26,-1h25v20l1,12v90l1,3v48l1,14h-11l-5,1h-42l-2,1h-52l-2,1h-69l-3,1h-216l-15,-1h-40v-61l-1,-14v-42Z"/>  <path class="mesh" d="M757,19v14l-23,1l-5,5v4h-7l-2,5h-33v42h29l42,-1l25,-1v29l1,2v40l12,4l1,12v25l1,20v44l1,6v42h-25l-26,1v14h-21l-40,1h-39l-1,-14h-26l-42,1v42l1,28l-14,1h-83l-1,-15v-56l-1,-14h-54l-1,4v38l-14,-1h-27v-28h-12l-2,-2l-28,-1v45l1,29v42l1,14v61M941,142h-16v34l-5,2l-6,-3l-7,3l1,7v27l1,5l18,-1v5h9v7h4v9h13l1,9h11M802,499l-1,-14v-48l-1,-3v-90l-1,-12v-20"/></svg>