<svg version="1.1" xmlns="http://www.w3.org/2000/svg" width="1000" height="517" viewBox="0 0 1000 517">
  <path d="M117 16
h 6
l 35 1
h 22
l 22 1
h 23
l 5 1
h 37
l 4 1
h 48
l 3 1
h 87
l 5 1
h 176
l 10 -1
h 73
l 13 -1
h 53
l 4 -1
h 38
l 3 -1
h 36
l 9 -1
h 42
l 5 4
v 1
l 8 4
v 5
l 3 1
l 1 -1
l 4 2
v 2
l 1 1
h 2
l 3 2
l 3 -1
h 1
l 4 -3
v -2
h 1
l 3 -1
v 1
h 1
l 1 -1
h 3
l 3 2
v 1
l -1 1
v 1
h -1
v 3
l 2 2
h 4
l 2 1
v 1
l 1 1
v 1
l -1 1
v 1
h -1
v 1
h -5
v 1
h -1
v 2
l 1 1
h 1
v 1
h 3
v -1
h 1
l 1 -1
h 2
l 1 1
v 4
l -1 1
h -1
v 1
h -1
l -1 1
h -2
l -1 -1
h -1
v -1
h -1
l -1 -1
h -1
v -1
v 1
h -1
l -1 1
v 9
h -1
v 1
h -5
v 1
h -1
v 1
l -1 1
v 1
l -1 1
v 1
h -1
v 5
h 1
v 3
h -1
v 1
l -1 1
h -3
v -1
h -1
v 1
h -2
v 7
h 1
l 7 5
v 4
h 1
v 2
l 9 4
v 2
l 1 1
l 2 1
v 3
l 2 1
h 7
v 2
l -3 2
l -1 1
v 4
l 1 1
v 3
l 1 1
l 1 1
l 2 2
h 1
l 4 2
v 1
h 1
v 1
h 1
v 2
l -1 2
v 2
l 3 1
h 3
l 1 1
v 2
h 1
v 1
l 2 1
l 2 1
h 9
v 1
l 1 1
l 4 -1
h 3
l 1 2
v 2
l -1 1
l -1 1
v 10
h 1
v 26
h 1
v 28
l 1 1
v 31
l 1 5
v 20
l 1 4
v 20
h 1
v 28
l 1 1
v 29
h 1
v 29
h 1
v 21
l 1 1
v 24
h 1
v 25
l 1 1
v 22
l 1 1
v 13
h -13
l -5 1
h -14
l -16 1
h -24
l -1 1
h -27
l -1 1
h -33
v 1
h -50
l -5 1
h -42
l -2 1
h -52
l -2 1
h -69
l -3 1
h -216
l -15 -1
h -60
v -1
h -44
v -1
h -52
l -7 -1
h -67
l -1 -1
h -37
l -5 -1
h -33
l -1 -1
h -32
v -1
h -21
v -24
l 1 -18
v -1
l 1 -21
v -13
l 2 -29
v -16
l 1 -32
l 1 -15
l 1 -34
v -3
l 2 -31
l 1 -18
v -18
l 1 -21
l 1 -14
v -21
l 1 -3
v -11
l 1 -16
v -15
l 1 -31
l 1 -8
v -10
l 1 -19
v -11
l 1 -25
v -4
h 17
l 1 1
l 43 1
h 1
l 9 1
Z"/>
<g class="districts">
<path data-race-id="KS01" d="M48 13
h 12
l 1 1
l 43 1
h 1
l 9 1
h 9
l 35 1
h 22
l 22 1
h 23
l 5 1
h 37
l 4 1
h 48
l 3 1
h 87
l 5 1
h 176
l 10 -1
h 73
l 13 -1
h 53
l 4 -1
h 14
v 14
l -23 1
l -5 5
v 4
h -7
l -2 5
h -33
v 42
h 29
l 42 -1
l 25 -1
v 29
l 1 2
v 40
l 12 4
l 1 12
v 25
l 1 20
v 44
l 1 6
v 42
h -25
l -26 1
v 14
h -21
l -40 1
h -39
l -1 -14
h -26
l -42 1
v 42
l 1 28
l -14 1
h -83
l -1 -15
v -56
l -1 -14
h -54
l -1 4
v 38
l -14 -1
h -27
v -28
h -12
l -2 -2
l -28 -1
v 45
l 1 29
v 42
l 1 14
v 61
h -20
v -1
h -44
v -1
h -52
l -7 -1
h -67
l -1 -1
h -37
l -5 -1
h -33
l -1 -1
h -32
v -1
h -21
v -24
l 1 -18
v -1
l 1 -21
v -13
l 2 -29
v -16
l 1 -32
l 1 -15
l 1 -34
v -3
l 2 -31
l 1 -18
v -18
l 1 -21
l 1 -14
v -21
l 1 -3
v -11
l 1 -16
v -15
l 1 -31
l 1 -8
v -10
l 1 -19
v -11
l 1 -25
v -4
Z"/>
<path data-race-id="KS02" d="M687 48
h 33
l 2 -5
h 7
v -4
l 5 -5
l 23 -1
v -14
h 24
l 3 -1
h 36
l 9 -1
h 42
l 5 4
v 1
l 8 4
v 5
l 3 1
l 1 -1
l 4 2
v 2
l 1 1
h 2
l 3 2
l 3 -1
h 1
l 4 -3
v -2
h 1
l 3 -1
v 1
h 1
l 1 -1
h 3
l 3 2
v 1
l -1 1
v 1
h -1
v 3
l 2 2
h 4
l 2 1
v 1
l 1 1
v 1
l -1 1
v 1
h -1
v 1
h -5
v 1
h -1
v 2
l 1 1
h 1
v 1
h 3
v -1
h 1
l 1 -1
h 2
l 1 1
v 4
l -1 1
h -1
v 1
h -1
l -1 1
h -2
l -1 -1
h -1
v -1
h -1
l -1 -1
h -1
v -1
v 1
h -1
l -1 1
v 9
h -1
v 1
h -5
v 1
h -1
v 1
l -1 1
v 1
l -1 1
v 1
h -1
v 5
h 1
v 3
h -1
v 1
l -1 1
h -3
v -1
h -1
v 1
h -2
v 7
h 1
l 7 5
v 4
h 1
v 2
l 9 4
v 2
l 1 1
l 2 1
v 3
l 2 1
h 7
v 2
l -3 2
l -1 1
v 4
l 1 1
v 3
l 1 1
l 1 1
l 2 2
h 1
l 4 2
v 1
h 1
v 1
h 1
v 2
l -1 2
v 2
l 3 1
h 3
l 1 1
h -16
v 34
l -5 2
l -6 -3
l -7 3
l 1 7
v 27
l 1 5
l 18 -1
v 5
h 9
v 7
h 4
v 9
h 13
l 1 9
h 11
v 4
l 1 5
v 20
l 1 4
v 20
h 1
v 28
l 1 1
v 29
h 1
v 29
h 1
v 21
l 1 1
v 24
h 1
v 25
l 1 1
v 22
l 1 1
v 13
h -13
l -5 1
h -14
l -16 1
h -24
l -1 1
h -27
l -1 1
h -33
v 1
h -39
l -1 -14
v -48
l -1 -3
v -90
l -1 -12
v -62
l -1 -6
v -44
l -1 -20
v -25
l -1 -12
l -12 -4
v -40
l -1 -2
v -29
l -25 1
l -42 1
h -29
Z"/>
<path data-race-id="KS03" d="M907 178
l 7 -3
l 6 3
l 5 -2
v -34
h 16
v 2
h 1
v 1
l 2 1
l 2 1
h 9
v 1
l 1 1
l 4 -1
h 3
l 1 2
v 2
l -1 1
l -1 1
v 10
h 1
v 26
h 1
v 28
l 1 1
v 27
h -11
l -1 -9
h -13
v -9
h -4
v -7
h -9
v -5
l -18 1
l -1 -5
v -27
Z"/>
<path data-race-id="KS04" d="M343 356
v -45
l 28 1
l 2 2
h 12
v 28
h 27
l 14 1
v -38
l 1 -4
h 54
l 1 14
v 56
l 1 15
h 83
l 14 -1
l -1 -28
v -42
l 42 -1
h 26
l 1 14
h 39
l 40 -1
h 21
v -14
l 26 -1
h 25
v 20
l 1 12
v 90
l 1 3
v 48
l 1 14
h -11
l -5 1
h -42
l -2 1
h -52
l -2 1
h -69
l -3 1
h -216
l -15 -1
h -40
v -61
l -1 -14
v -42
Z"/>
</g>
  <path class="districts-mesh" d="M757 19
v 14
l -23 1
l -5 5
v 4
h -7
l -2 5
h -33
v 42
h 29
l 42 -1
l 25 -1
v 29
l 1 2
v 40
l 12 4
l 1 12
v 25
l 1 20
v 44
l 1 6
v 42
h -25
l -26 1
v 14
h -21
l -40 1
h -39
l -1 -14
h -26
l -42 1
v 42
l 1 28
l -14 1
h -83
l -1 -15
v -56
l -1 -14
h -54
l -1 4
v 38
l -14 -1
h -27
v -28
h -12
l -2 -2
l -28 -1
v 45
l 1 29
v 42
l 1 14
v 61
M941 142
h -16
v 34
l -5 2
l -6 -3
l -7 3
l 1 7
v 27
l 1 5
l 18 -1
v 5
h 9
v 7
h 4
v 9
h 13
l 1 9
h 11
M802 499
l -1 -14
v -48
l -1 -3
v -90
l -1 -12
v -20"/>
</svg>