<svg version="1.1" xmlns="http://www.w3.org/2000/svg" width="1000" height="434" viewBox="0 0 1000 434">
  <path d="M629 11
v 1
l 1 1
l 2 2
l 7 4
l 1 2
l 1 1
h 4
v -1
h 2
v -1
h 2
v -1
l 1 -1
v -1
h 1
v 1
h 2
v 1
h 2
l 1 -1
h 1
l 6 -3
h 1
v 2
l 1 7
v 1
h 1
l 2 1
h 2
l 6 1
l 1 1
l 3 3
l 4 10
l 1 2
l 1 1
l 1 2
l 1 1
v 1
l 2 3
v 10
l 1 1
l 1 1
h 1
v 1
h 7
v 1
l 3 1
l 1 1
h 1
h -1
l 3 1
h 8
v -1
h 4
l 2 -1
l 6 2
h 3
l 7 3
l 1 5
l 6 3
l 4 8
l 12 3
l 2 -2
l 5 -7
h 1
l 10 -3
l 8 5
h 9
l 6 5
l 3 5
l 4 -3
l 4 -2
l 10 2
l 8 -10
l 1 -1
h 2
v -1
h 1
v -1
h 1
v -1
l 1 -1
v -1
l 1 -1
v -1
h 6
l 12 -5
l 1 11
l 2 7
v 4
h 1
v 3
l 1 1
l 2 2
h 1
l 11 2
h 1
l 6 7
l 1 1
l 1 1
v 1
h 1
l 2 2
h 1
l 3 2
l 2 8
v 11
l 1 1
l 1 1
l 1 3
l -1 3
l 1 1
v 1
l -3 5
l -1 1
l 1 4
l 1 1
v 1
l -1 3
l -1 2
l -3 3
l 1 3
l 1 1
l 2 1
l 2 2
h 1
v 1
l 1 2
v 1
h 1
v 1
l 1 1
h 1
v 2
l 1 1
l 1 1
v 2
l 1 1
v 1
l 1 1
l 1 1
v 1
h 3
v 8
h -1
v 2
l 1 1
h 1
v 1
l 3 1
l 1 1
l 2 1
l 1 1
v 1
l 1 1
v 5
l 1 1
v 1
l 2 2
l -1 2
h 3
l 1 1
l 1 1
h 2
v 1
h 1
l 1 1
v 1
h 2
v 1
l -1 1
h 3
h -1
l -1 2
l -1 1
v 1
h 1
v 1
h 1
v 2
h 1
v 1
l 1 1
l 1 3
l -1 1
v 1
l 1 -1
l 3 2
l 4 1
l 3 5
l 5 -1
l -1 1
l 6 8
l -1 1
h 1
l 1 1
v 1
l 1 -1
h 2
v 1
l 5 2
h 5
l 1 -1
v 1
l 1 1
l 1 -1
v -1
h 1
v 1
l 1 -1
h 1
l 1 -1
l 1 1
l -11 10
l -1 1
l -1 1
l -11 11
l -5 4
l -2 2
l -7 6
l -1 2
l -3 3
v 1
h -1
v 1
h -1
v 1
h -2
v 2
h -3
v 1
h -3
v 1
h -3
l -1 1
h -2
l -1 1
v 1
h -2
l -2 1
v 1
h -3
v 1
h -1
v 1
h -2
v 1
h -1
l -1 1
v -1
l -1 1
h -1
v 1
h -1
l -1 1
l -1 1
h -1
v 1
l -1 1
h -1
l -1 1
v 1
h -1
v 1
h -3
v 1
h -1
v 1
h -1
v 1
h -1
v -1
l -1 1
h -1
v 1
h -2
l -1 1
h -1
v 2
h 1
v 1
h -1
h 1
v 1
h -1
v 1
h 1
v 2
l -1 1
v 1
h 1
v 3
l -1 1
v -1
h -1
l -1 1
v 3
h -1
v -1
h -1
v 2
h -1
l -1 1
h -3
l -1 1
v -1
h -1
v 1
h -1
v 2
h -1
v 1
h -2
v 1
h -1
l -1 1
v 2
h 1
v 1
h 1
l -1 1
v 2
h 1
v 1
h -1
v 2
h -1
l -1 1
l 1 1
v 1
h -1
v 1
h -1
v 1
h -1
l -1 1
h -1
v 1
h -2
v 1
h -2
l -1 1
h -5
v 1
h -1
v 1
h -3
v -1
h -1
l -1 1
h -3
l -1 -1
v 2
h -1
v 1
l -1 1
h -1
v 1
h 1
v 2
l -1 1
h -1
v 1
l -1 1
v 1
l -1 2
l -1 1
l 1 1
v 2
h -1
v 1
h -4
l -2 1
h -3
l -1 1
h -3
v 1
h -1
l -3 1
h -1
v 1
h -3
l -2 1
l -1 1
h -2
l -1 1
h -2
l -1 1
h -1
l -1 1
l -1 1
l -1 1
h -1
v 1
h -10
v -1
v 1
l -1 -1
v 1
h -4
v 1
l -1 1
h -1
l -1 1
l -1 1
h -2
l -3 2
h -1
l -1 1
h -3
v 1
h -1
v 1
l -1 1
h -2
v 2
l -1 1
l -1 1
h -29
l -10 -1
h -16
l -12 1
h -5
l -22 -1
h -51
l -15 -2
l -8 -1
h -37
l -10 1
h -9
l -2 1
h -1
l -24 -1
l -17 -1
h -19
l -41 -4
h -25
l -5 1
h -1
v 1
h -1
l -1 -1
l -14 -1
h -148
l 1 -5
l -6 -1
l -8 -1
l -13 -1
v 4
l 2 4
l 1 7
v 2
l 1 1
v 5
l -1 1
v 3
l -2 2
l -55 -2
h -3
l -23 -1
l -2 -1
h -15
l -41 -2
l -17 -1
h -7
l -1 1
h -7
v -2
l 3 -10
l 2 -6
l 2 -2
h 4
l 4 4
l 1 3
l 3 3
h 1
l 6 -3
v -1
l 3 -7
l 4 -4
l -1 -1
v -3
l -2 -1
l -2 -7
l 4 -3
l 3 1
l 2 1
l 1 -1
l 1 -1
v -1
l -1 -3
h -1
l -4 -1
l -2 -2
v -2
l 1 -3
l 5 -1
l 1 -2
l 1 -3
v -2
l 2 -6
v -2
l 1 -3
l -6 -5
l -1 -1
l -3 -4
v -4
l 11 -13
l 1 -4
l 12 -9
l 8 -1
h -1
h 3
v 1
l 8 3
l 1 1
h 1
l 1 1
h 1
v 1
h 2
l 1 1
l 1 1
h 1
l 2 3
h 1
l 1 1
h 1
v 1
h 6
l 1 1
l 1 1
h 1
l 1 1
h 1
v 1
h 3
l 4 3
l 2 3
l 4 2
l 2 1
h 5
l 4 -2
l 1 -3
l 1 -1
v -1
l 1 -4
h 1
v -3
l -1 -1
v -3
h -1
v -2
l -1 -1
v -1
h -1
v -1
h -1
l -1 -1
l -2 -5
l -2 -1
h -1
v -1
h 1
l -1 -2
v -2
l 8 -18
l 8 -2
l 3 2
v 1
h 1
v -1
l 7 -5
l 1 -1
l 6 -1
h 5
l 3 -1
h 3
l 2 -1
h 8
l 1 -2
h 1
l 1 -2
v -4
h -1
v -1
h -1
v -1
h -1
l -2 -3
l -1 -1
v -1
h -2
v -1
h -1
v -2
h -1
v -4
l -1 -1
v -1
l -1 -7
l 3 -3
v -1
l 1 -1
l 1 -1
l 7 -4
v -1
l 1 -1
l 1 -2
l 1 -1
v -3
l 1 -1
v -1
h 1
l 1 -1
h 1
v 1
h 1
l 2 1
l 2 1
v 1
h 1
v 1
h 3
v -1
l 1 -2
l 1 -1
h 1
l 1 -1
v -7
h -1
l -1 -1
l -1 -1
v -5
l 1 -1
h 1
v -2
l 3 -2
h 1
l 1 1
l 4 6
l 1 1
l 5 1
h 1
l 1 -1
l 1 -1
l 3 -1
h 4
l 1 -1
h 5
v 2
l -1 3
v 1
l -1 1
v 3
l 1 1
h 8
v -1
h 1
v -1
h 1
v -3
l -3 -8
l -1 -1
v -1
l 2 -2
l 1 -2
l 1 -3
v -1
h 1
v 1
l 1 3
l 1 2
l 2 2
l 4 2
v 1
h 1
v 1
l 7 -5
h 1
v -1
h 2
l 7 2
l 1 1
h 1
l 1 1
v 1
h 1
l 1 1
h 2
l 8 6
l 1 1
l 1 1
l 2 1
h 2
l 2 1
l 5 1
l 3 8
h 2
l 2 -1
h 1
l 2 -2
v -2
l 1 -1
l 1 -4
l 1 -2
v -3
l 8 -7
h 1
v -1
v 1
h 1
v -1
h 6
v -1
h 1
l 1 -1
v -1
h 1
v -1
h 1
v -1
h 1
v -1
h 1
v -1
h 1
v -1
h 2
v -1
h 2
v -1
h 1
l 3 2
v 3
h 1
v 1
l 1 1
h -1
l 1 1
v 1
h 1
v 1
l 1 1
v 1
l 1 1
v 1
l 1 1
l 1 1
l 1 1
l 7 -3
h 2
l 1 1
v 2
l -1 1
v 4
l -1 1
h 1
v 2
h 2
l 2 -1
l 1 -1
h 1
l 1 -2
v -7
l 4 -1
l 8 -2
v -1
l -1 -1
l -1 -1
v -2
l -1 -1
l 1 -1
v -1
h -1
l 1 -1
h -1
v -1
l 1 -3
v -4
h 1
l 1 -1
h 5
l 1 -1
h 1
l 1 -1
l 1 -1
v -2
l -1 -1
l -3 -2
l -1 -2
v -1
h 1
v -1
h 4
l 1 1
h 1
l 1 1
h 2
v -1
l 2 -2
l 2 1
l 4 -2
v -2
l -6 -2
v -5
l 5 2
l 5 3
l 2 8
v 7
l 1 2
h 1
v 1
h 1
l 1 1
l 1 1
h 1
l 1 1
l 3 2
h 1
v 1
h 4
l 10 3
v -1
v 2
l 1 1
l 4 -1
v -1
l 2 -1
h 3
v -1
h 2
l 7 -3
l 1 -7
l 1 -2
v -14
l 1 -1
l 1 -3
l 2 -2
v -1
l 3 -3
l 1 -2
v -3
l 1 -2
h 1
l 5 -1
h 1
l 1 1
l 2 2
h 1
l 3 -2
l 1 -1
h 1
l 1 -1
h 1
l 1 -1
l 2 -3
l 1 -1
v -3
l 1 -2
v -3
l 1 -1
v -1
l 1 -2
v -2
l 1 -1
v -1
l 5 -4
l 9 -2
l 1 -1
v -1
h 1
v -1
l 1 -1
v -2
l 6 -3
l 2 -2
v -6
l -1 -1
l -1 -1
v -2
h -1
v -11
h -1
v -1
h -1
v -5
l 1 -1
l 3 -3
h 10
l 1 -1
h 3
v -1
h 4
v 1
h 2
l 1 1
h 1
v 3
h 1
l 5 4
l 7 -2
l 1 -1
l 1 -1
h 1
v -1
h 1
v -1
l 2 -1
l 1 -1
v -1
h 1
l 5 -3
h 1
l 1 -1
h 1
v -1
l 2 -1
l 6 1
l 6 -3
h 1
l 2 1
h 4
v 1
h 1
l 1 -1
l -2 -7
l 1 -1
l 1 -1
v -1
h 2
l 2 -3
v -2
h -1
v -1
h -1
l -1 -1
h -8
l -1 -1
v -3
l 1 -2
h 1
l 1 -1
v -1
l 2 -1
v -1
l 1 -1
v -2
h -1
v -1
l -2 -2
l -6 -8
v -1
l 1 -1
l 1 -1
l 3 -1
l 2 -2
v -1
h 1
v -1
l 2 -1
h 1
l 2 -1
l 1 -1
h 1
l 1 -2
l 1 -1
Z
M35 416
l -1 1
l -6 -1
l -3 -4
l 1 -8
h 4
l 5 1
l 1 1
l 1 3
l -1 6
l -1 1
Z"/>
<g class="districts">
<path data-race-id="KY01" d="M44 415
l 3 -10
l 2 -6
l 2 -2
h 4
l 4 4
l 1 3
l 3 3
h 1
l 6 -3
v -1
l 3 -7
l 2 -2
l 2 -2
l -1 -1
v -3
l -2 -1
l -2 -7
l 4 -3
l 3 1
l 2 1
l 1 -1
l 1 -1
v -1
l -1 -3
h -1
l -4 -1
l -2 -2
v -2
l 1 -3
l 5 -1
l 1 -2
l 1 -3
v -2
l 2 -6
v -7
l -5 -3
l -1 -1
l -3 -4
v -4
l 11 -13
l 1 -4
l 12 -9
l 8 -1
h -1
h 3
v 1
l 8 3
l 1 1
h 1
l 1 1
h 1
v 1
h 2
l 1 1
l 1 1
h 1
l 2 3
h 1
l 1 1
h 1
v 1
h 6
l 1 1
l 1 1
h 1
l 1 1
h 1
v 1
h 3
l 4 3
l 2 3
l 1 2
h 3
l 2 1
h 5
l 4 -2
l 1 -3
l 1 -1
v -1
l 1 -4
h 1
v -3
l -1 -1
v -3
h -1
v -2
l -1 -1
v -1
h -1
v -1
h -1
l -1 -1
l -2 -5
l -2 -1
h -1
v -1
h 1
l -1 -2
v -1
v 1
v -2
l 8 -18
l 8 -2
l 3 2
v 1
h 1
v -1
l 7 -5
l 1 -1
l 6 -1
h 5
l 3 -1
h 3
l 2 -1
h 8
l 1 -2
h 1
l 1 -2
v -4
h -1
v -1
h -1
v -1
h -1
l -2 -3
l -1 -1
v -1
h -2
v -1
h -1
v -2
h -1
v -4
l -1 -1
v -1
l -1 -7
l 3 -3
v -1
l 1 -1
l 1 -1
l 7 -4
v -1
l 1 -1
l 1 -2
l 1 -1
v -3
l 1 -1
v -1
h 1
l 1 -1
h 1
v 1
h 1
l 2 1
l 2 1
v 1
h 1
v 1
h 3
v -1
l 1 -2
l 1 -1
h 1
l 1 -1
v -7
h -1
l -1 -1
l -1 -1
v -5
l 1 -1
h 1
v -2
l 3 -2
h 1
l 1 1
l 4 6
l 1 1
l 5 1
h 1
l 1 -1
l 1 -1
l 3 -1
h 4
l 1 -1
h 5
v 2
l -1 3
v 1
l -1 1
v 3
l 1 1
h 8
v -1
h 1
v -1
h 1
v -3
l -3 -8
l -1 -1
v -1
l 2 -2
l 1 -2
l 1 -3
v -1
h 1
v 1
l 1 3
l 1 2
l 2 2
l 4 2
v 1
h 1
v 1
l 7 -5
h 1
v -1
h 2
l 7 2
l 1 1
h 1
l 1 1
v 1
h 1
l 1 1
h 2
l 2 1
l -2 8
l 1 8
l 4 2
l -6 7
h -7
l -4 9
l 12 6
l 23 11
l 11 2
l 10 -10
h 6
l 12 -7
l -6 -4
l 5 -6
l 22 12
v 8
l 6 7
l -2 4
l -6 -2
l 1 7
l 4 18
l -18 14
l -2 -3
l -5 -1
l -1 8
l -10 10
l 1 6
l -4 1
l 3 12
l -5 4
l 12 2
l 22 9
l 7 18
l 3 8
l 23 4
v 5
l 17 -14
v -4
l 8 -2
l 4 -4
h 4
l 4 9
l 4 -3
v 7
l 4 6
l -1 6
l 5 2
l 4 6
l 20 -15
l 11 -4
l -1 -17
l -2 -12
v -13
l -2 -5
l 4 -4
l 6 -2
l 8 9
l 12 2
l 19 -9
l 3 -4
l -6 -5
l 1 -4
l -10 -17
l -14 -12
l 1 -5
l 4 2
l 6 -4
l 2 2
h 2
l -3 -11
l -4 -3
l 5 -12
l 10 -15
l 3 9
l 15 6
h 11
l 11 -9
l 6 4
v 5
l -1 14
l 17 2
l 7 -3
l -1 18
l 7 6
l 10 6
l 2 9
l -2 10
l -22 19
l -1 11
l 9 7
l -9 8
l -5 -1
l -1 6
l -14 9
l 6 8
l 2 10
l -1 7
l 2 12
h 2
l 1 1
h 1
l -8 -1
h -37
l -10 1
h -9
l -2 1
h -1
l -24 -1
l -17 -1
h -19
l -11 -1
l -30 -3
h -25
l -5 1
h -1
v 1
h -1
l -1 -1
l -14 -1
h -148
l 1 -5
l -6 -1
l -8 -1
l -13 -1
v 4
l 2 4
l 1 7
v 2
l 1 1
v 5
l -1 1
v 3
l -2 2
l -55 -2
h -3
l -23 -1
l -2 -1
h -15
l -41 -2
l -17 -1
h -7
l -1 1
h -7
Z
M30 404
l 5 1
l 1 1
l 1 3
l -1 6
l -1 1
l -1 1
l -6 -1
l -3 -4
l 1 -8
Z"/>
<path data-race-id="KY02" d="M299 239
l 4 -9
h 7
l 6 -7
l -4 -2
l -1 -8
l 2 -8
l 6 5
l 1 1
l 1 1
l 2 1
h 2
l 2 1
l 5 2
l 3 7
h 2
l 2 -1
h 1
l 2 -2
v -2
l 1 -1
l 1 -4
l 1 -2
v -3
l 8 -7
h 1
v -1
v 1
h 1
v -1
h 6
v -1
h 1
l 1 -1
v -1
h 1
v -1
h 1
v -1
h 1
v -1
h 1
v -1
h 1
v -1
h 2
v -1
h 2
v -1
h 1
l 3 2
v 3
h 1
v 1
l 1 1
h -1
l 1 1
v 1
h 1
v 1
l 1 1
v 1
l 1 1
v 1
l 1 1
l 1 1
l 1 1
l 7 -3
h 2
l 1 1
v 2
l -1 1
v 4
l -1 1
h 1
v 2
h 2
l 2 -1
l 1 -1
h 1
l 1 -2
v -7
l 4 -1
l 8 -2
v -1
l -1 -1
l -1 -1
v -2
l -1 -1
l 1 -1
v -1
h -1
l 1 -1
h -1
v -1
l 1 -3
v -4
h 1
l 1 -1
h 5
l 1 -1
h 1
l 1 -1
l 1 -1
v -2
l -1 -1
l -3 -2
l -1 -2
v -1
h 1
v -1
h 4
l 1 1
h 1
l 1 1
h 2
v -1
l 2 -2
l 2 1
l 4 -2
v -2
l -6 -2
v -5
l 5 2
l 5 3
l 2 8
v 7
l 1 2
h 1
v 1
h 1
l 1 1
l 1 1
h 1
l 1 1
l 3 2
h 1
v 1
h 4
l 10 3
v -1
v 2
l 1 1
l 4 -1
v -1
l 2 -1
h 3
v -1
h 5
l 2 1
l 3 -4
h 1
l 11 -6
l 12 -4
l 20 2
l 3 -1
l 13 -6
l -1 2
l 1 7
h 3
v 6
l 4 2
h 1
l 1 -1
v -1
l 1 -1
l -1 1
v 1
l -1 1
h -1
l -2 3
l 13 -3
l 10 -10
l 12 6
l -3 6
l -5 4
l 2 11
l 3 -2
l 3 4
l 9 -1
l 11 -9
l 8 1
l 10 -4
l -1 13
l 3 -2
l 2 8
l 6 -2
l 6 -23
l 11 4
v 2
l -3 -1
l 1 8
l -2 1
l -1 1
v 4
l -4 5
l -1 7
h 5
l -3 5
l 7 4
l 2 3
l 5 -6
l 5 3
l -1 4
l 5 4
l 7 15
l 4 1
l 3 9
l -2 8
l -1 2
l -10 -2
l -5 -3
l -19 -16
l -2 -4
l -9 8
l -14 6
l -7 3
l -17 -2
l 1 -14
v -5
l -6 -4
l -11 9
h -11
l -15 -6
l -3 -9
l -10 15
l -5 12
l 4 3
l 3 11
h -2
l -2 -2
l -6 4
l -4 -2
l -1 5
l 14 12
l 10 17
l -1 4
l 6 5
l -3 4
l -19 9
l -12 -2
l -8 -9
l -6 2
l -4 4
l 2 5
v 13
l 2 12
l 1 17
l -11 4
l -20 15
l -4 -6
l -5 -2
l 1 -6
l -4 -6
v -7
l -4 3
l -4 -9
h -4
l -4 4
l -8 2
v 4
l -17 14
v -5
l -23 -4
l -3 -8
l -7 -18
l -22 -9
l -12 -2
l 5 -4
l -3 -12
l 4 -1
l -1 -6
l 10 -10
l 1 -8
l 5 1
l 2 3
l 18 -14
l -4 -18
l -1 -7
l 6 2
l 2 -4
l -6 -7
v -8
l -22 -12
l -5 6
l 6 4
l -12 7
h -6
l -10 10
l -11 -2
l -23 -11
Z"/>
<path data-race-id="KY03" d="M480 190
l 4 -3
l 1 -7
l 1 -2
v -14
l 1 -1
l 1 -3
l 2 -2
v -1
l 3 -3
l 1 -2
v -3
l 1 -2
h 1
l 5 -1
h 1
l 1 1
l 2 2
h 1
l 3 -2
l 1 -1
h 1
l 1 -1
h 1
l 1 -1
l 2 -3
l 1 -1
v -3
l 1 -2
v -3
l 1 -1
l 19 14
v 6
l -4 10
l 1 6
l -1 -1
v 2
l -1 2
l -4 -1
l 1 8
h 1
l 1 1
l -3 1
l -20 -2
l -12 4
l -11 6
h -1
l -3 4
Z"/>
<path data-race-id="KY04" d="M519 131
v -1
l 1 -2
v -2
l 1 -1
v -1
l 4 -4
l 10 -2
l 1 -1
v -1
h 1
v -1
l 1 -1
v -2
l 6 -3
l 2 -2
v -6
l -1 -1
l -1 -1
v -2
h -1
v -11
h -1
v -1
h -1
v -5
l 1 -1
l 3 -3
h 10
l 1 -1
h 3
v -1
h 4
v 1
h 2
l 1 1
h 1
v 3
h 1
l 5 4
l 7 -2
l 1 -1
l 1 -1
h 1
v -1
h 1
v -1
l 2 -1
l 1 -1
v -1
h 1
l 5 -3
h 1
l 1 -1
h 1
v -1
l 2 -1
l 6 1
l 6 -3
h 1
l 2 1
h 4
v 1
h 1
l 1 -1
l -2 -7
l 1 -1
l 1 -1
v -1
h 2
v -1
l 2 -2
v -2
h -1
v -1
h -1
l -1 -1
h -8
l -1 -1
v -3
l 1 -2
h 1
l 1 -1
v -1
l 2 -1
v -1
l 1 -1
v -2
h -1
v -1
l -2 -2
l -6 -8
v -1
l 1 -1
l 1 -1
l 3 -1
l 2 -2
v -1
h 1
v -1
l 2 -1
h 1
l 2 -1
l 1 -1
h 1
l 1 -2
l 1 -1
l 4 -1
v 1
l 1 1
l 2 2
l 7 4
l 1 2
l 1 1
h 4
v -1
h 2
v -1
h 2
v -1
l 1 -1
v -1
h 1
v 1
h 2
v 1
h 2
l 1 -1
h 1
l 6 -3
h 1
v 2
l 1 7
v 1
h 1
l 2 1
h 2
l 6 1
l 1 1
l 3 3
l 4 10
l 1 2
l 1 1
l 1 2
l 1 1
v 1
l 2 3
v 10
l 1 1
l 1 1
h 1
v 1
h 7
v 1
l 3 1
l 1 1
h 1
h -1
l 3 1
h 8
v -1
h 4
l 2 -1
l 6 2
h 3
l 7 3
l 1 5
l 6 3
l 4 8
l 12 3
l 2 -2
l 5 -7
h 1
l 10 -3
l 8 5
h 9
l 6 5
l 3 5
l 4 -3
l 4 -2
l 10 2
l 8 -10
l 1 -1
h 2
v -1
h 1
v -1
h 1
v -1
l 1 -1
v -1
l 1 -1
v -1
h 6
l 12 -5
l 1 11
l 2 7
v 4
h 1
v 3
l 1 1
l 2 2
h 1
l 11 2
h 1
l 6 7
l 1 1
l 1 1
v 1
h 1
l 2 2
h 1
l 3 2
l 2 8
v 6
l -14 -3
l -4 -5
h -4
l -6 9
l -12 -3
h -8
l -6 -8
l -17 -8
l -7 13
v 14
l -5 1
l -9 2
l -2 -2
l -5 -9
l -6 2
h -1
l -1 -3
l -11 -4
h -3
v -5
l -3 -7
l -5 -3
l -10 3
l -16 8
l -9 -5
l -5 -7
l -1 -9
h -2
l -10 -2
l -7 8
h -4
l -2 10
l 4 2
l -11 4
l -2 6
l -4 3
v 1
l -2 3
l 1 9
l -9 5
v 1
h -1
l -1 -1
h -7
l -1 -6
l -2 -11
l -5 -4
l -6 -11
l -3 3
l -5 7
l -15 12
l -5 2
l -6 -2
h -4
l -5 -3
l -11 6
h 5
l -5 9
l -1 16
l -2 7
l -4 10
l -5 5
l -12 -6
l -10 10
l -13 3
l 2 -3
h 1
l 1 -1
v -1
l 1 -1
l -1 1
v 1
l -1 1
h -1
l -4 -2
v -6
h -3
l -1 -7
l 1 -2
l -13 6
l -1 -1
h -1
l -1 -8
l 4 1
l 1 -2
v -2
l 1 1
l -1 -6
l 4 -10
v -6
l -19 -14
Z"/>
<path data-race-id="KY05" d="M590 369
l 14 -9
l 1 -6
l 5 1
l 9 -8
l -9 -7
l 1 -11
l 22 -19
l 2 -10
l -2 -9
l -10 -6
l -7 -6
l 1 -18
l 14 -6
l 9 -8
l 2 4
l 19 16
l 5 3
l 10 2
l 1 -2
l 2 -8
h 6
l -1 2
h 14
l 3 -6
l 10 -1
h 6
l 8 -3
l 9 6
l 6 -13
l 5 -1
l -2 -5
l 13 -9
h 2
l 11 8
l 12 4
l 6 2
l 2 -1
l 2 -2
l 2 -6
l 1 -1
l 5 -1
l 16 3
l -2 -6
l -7 -6
l -3 -4
l -3 -4
l -10 -3
l -7 -6
v -5
l 7 -10
v -12
l -2 3
l -6 -5
l 4 -6
l -6 2
v -7
l -5 -4
l -5 3
l -5 -9
l 9 -5
l 3 -6
l 4 -3
l 1 -12
l 5 -5
h -1
h 1
l 6 -2
l 5 9
l 2 2
l 9 -2
l 5 -1
v -14
l 7 -13
l 17 8
l 6 8
h 8
l 12 3
l 6 -9
h 4
l 4 5
l 14 3
v -1
v 6
l 1 1
l 1 1
l 1 3
l -1 3
l 1 1
v 1
l -3 5
l -1 1
l 1 4
l 1 1
v 1
l -1 3
l -1 2
l -3 3
l 1 3
l 1 1
l 2 1
l 2 2
h 1
v 1
l 1 2
v 1
h 1
v 1
l 1 1
h 1
v 2
l 1 1
l 1 1
v 2
l 1 1
v 1
l 1 1
l 1 1
v 1
h 3
v 8
h -1
v 2
l 1 1
h 1
v 1
l 3 1
l 1 1
l 2 1
l 1 1
v 1
l 1 1
v 5
l 1 1
v 1
l 2 2
l -1 2
h 3
l 1 1
l 1 1
h 2
v 1
h 1
l 1 1
v 1
h 2
v 1
l -1 1
h 3
h -1
l -1 2
l -1 1
v 1
h 1
v 1
h 1
v 2
h 1
v 1
l 1 1
l 1 3
l -1 1
v 1
l 1 -1
l 3 2
l 4 1
l 3 5
l 5 -1
l -1 1
l 6 8
l -1 1
h 1
l 1 1
v 1
l 1 -1
h 2
v 1
l 5 2
h 5
l 1 -1
v 1
l 1 1
l 1 -1
v -1
h 1
v 1
l 1 -1
h 1
l 1 -1
l 1 1
l -11 10
l -1 1
l -1 1
l -11 11
l -5 4
l -2 2
l -7 6
l -1 2
l -3 3
v 1
h -1
v 1
h -1
v 1
h -2
v 2
h -3
v 1
h -3
v 1
h -3
l -1 1
h -2
l -1 1
v 1
h -2
l -2 1
v 1
h -3
v 1
h -1
v 1
h -2
v 1
h -1
l -1 1
v -1
l -1 1
h -1
v 1
h -1
l -1 1
l -1 1
h -1
v 1
l -1 1
h -1
l -1 1
v 1
h -1
v 1
h -3
v 1
h -1
v 1
h -1
v 1
h -1
v -1
l -1 1
h -1
v 1
h -2
l -1 1
h -1
v 2
h 1
v 1
h -1
h 1
v 1
h -1
v 1
h 1
v 2
l -1 1
v 1
h 1
v 3
l -1 1
v -1
h -1
l -1 1
v 3
h -1
v -1
h -1
v 2
h -1
l -1 1
h -3
l -1 1
v -1
h -1
v 1
h -1
v 2
h -1
v 1
h -2
v 1
h -1
l -1 1
v 2
h 1
v 1
h 1
l -1 1
v 2
h 1
v 1
h -1
v 2
h -1
l -1 1
l 1 1
v 1
h -1
v 1
h -1
v 1
h -1
l -1 1
h -1
v 1
h -2
v 1
h -2
l -1 1
h -5
v 1
h -1
v 1
h -3
v -1
h -1
l -1 1
h -3
l -1 -1
v 2
h -1
v 1
l -1 1
h -1
v 1
h 1
v 2
l -1 1
h -1
v 1
l -1 1
v 1
l -1 2
l -1 1
l 1 1
v 2
h -1
v 1
h -4
l -2 1
h -3
l -1 1
h -3
v 1
h -1
l -3 1
h -1
v 1
h -3
l -2 1
l -1 1
h -2
l -1 1
h -2
l -1 1
h -1
l -1 1
l -1 1
l -1 1
h -1
v 1
h -10
v -1
v 1
l -1 -1
v 1
h -4
v 1
l -1 1
h -1
l -1 1
l -1 1
h -2
l -3 2
h -1
l -1 1
h -3
v 1
h -1
v 1
l -1 1
h -2
v 2
l -1 1
l -1 1
h -29
l -10 -1
h -16
l -12 1
h -5
l -22 -1
h -51
l -15 -2
h -1
l -1 -1
h -2
l -2 -12
l 1 -7
l -2 -10
Z"/>
<path data-race-id="KY06" d="M585 185
l 5 -5
l 4 -10
l 2 -7
l 1 -16
l 5 -9
h -5
l 11 -6
l 5 3
h 4
l 6 2
l 5 -2
l 15 -12
l 5 -7
l 3 -3
l 6 11
l 5 4
l 2 11
l 1 6
h 7
l 1 1
h 1
v -1
l 9 -5
l -1 -9
l 2 -3
v -1
l 4 -3
l 2 -6
l 11 -4
l -4 -2
l 2 -10
h 4
l 7 -8
l 10 2
h 2
l 1 9
l 5 7
l 9 5
l 16 -8
l 10 -3
l 5 3
l 3 7
v 5
h 3
l 11 4
l 1 3
h 1
l -5 5
l -1 12
l -4 3
l -3 6
l -9 5
l 5 9
l 5 -3
l 5 4
v 7
l 6 -2
l -4 6
l 6 5
l 2 -3
v 12
l -7 10
v 5
l 7 6
l 10 3
l 3 4
l 3 4
l 7 6
l 2 6
l -16 -3
l -5 1
l -1 1
l -2 6
l -2 2
l -2 1
l -6 -2
l -12 -4
l -11 -8
h -2
l -13 9
l 2 5
l -5 1
l -6 13
l -9 -6
l -8 3
h -6
l -10 1
l -3 6
h -14
l 1 -2
h -6
l -3 -9
l -4 -1
l -7 -15
l -5 -4
l 1 -4
l -5 -3
l -5 6
l -2 -3
l -7 -4
l 3 -5
h -5
l 1 -7
l 4 -5
v -4
l 1 -1
l 2 -1
l -1 -8
l 3 1
v -2
l -11 -4
l -6 23
l -6 2
l -2 -8
l -3 2
l 1 -13
l -10 4
l -8 -1
l -11 9
l -9 1
l -3 -4
l -3 2
l -2 -11
l 5 -4
Z"/>
</g>
  <path class="districts-mesh" d="M313 205
l -2 8
l 1 8
l 4 2
l -6 7
h -7
l -4 9
l 12 6
l 23 11
l 11 2
l 10 -10
h 6
l 12 -7
l -6 -4
l 5 -6
l 22 12
v 8
l 6 7
l -2 4
l -6 -2
l 1 7
l 4 18
l -18 14
l -2 -3
l -5 -1
l -1 8
l -10 10
l 1 6
l -4 1
l 3 12
l -5 4
l 12 2
l 22 9
l 7 18
l 3 8
l 23 4
v 5
l 17 -14
v -4
l 8 -2
l 4 -4
h 4
l 4 9
l 4 -3
v 7
l 4 6
l -1 6
l 5 2
l 4 6
l 20 -15
l 11 -4
l -1 -17
l -2 -12
v -13
l -2 -5
l 4 -4
l 6 -2
l 8 9
l 12 2
l 19 -9
l 3 -4
l -6 -5
l 1 -4
l -10 -17
l -14 -12
l 1 -5
l 4 2
l 6 -4
l 2 2
h 2
l -3 -11
l -4 -3
l 5 -12
l 10 -15
l 3 9
l 15 6
h 11
l 11 -9
l 6 4
v 5
l -1 14
l 17 2
l 7 -3
l -1 18
l 7 6
l 10 6
l 2 9
l -2 10
l -22 19
l -1 11
l 9 7
l -9 8
l -5 -1
l -1 6
l -14 9
l 6 8
l 2 10
l -1 7
l 2 12
h 2
l 1 1
h 1
M480 190
l 2 1
l 3 -4
h 1
l 11 -6
l 12 -4
l 20 2
l 3 -1
l 13 -6
l -1 2
l 1 7
h 3
v 6
l 4 2
h 1
l 1 -1
v -1
l 1 -1
l -1 1
v 1
l -1 1
h -1
l -2 3
l 13 -3
l 10 -10
l 12 6
l -3 6
l -5 4
l 2 11
l 3 -2
l 3 4
l 9 -1
l 11 -9
l 8 1
l 10 -4
l -1 13
l 3 -2
l 2 8
l 6 -2
l 6 -23
l 11 4
v 2
l -3 -1
l 1 8
l -2 1
l -1 1
v 4
l -4 5
l -1 7
h 5
l -3 5
l 7 4
l 2 3
l 5 -6
l 5 3
l -1 4
l 5 4
l 7 15
l 4 1
l 3 9
l -2 8
l -1 2
l -10 -2
l -5 -3
l -19 -16
l -2 -4
l -9 8
l -14 6
M679 262
h 6
l -1 2
h 14
l 3 -6
l 10 -1
h 6
l 8 -3
l 9 6
l 6 -13
l 5 -1
l -2 -5
l 13 -9
h 2
l 11 8
l 12 4
l 6 2
l 2 -1
l 2 -2
l 2 -6
l 1 -1
l 5 -1
l 16 3
l -2 -6
l -7 -6
l -3 -4
l -3 -4
l -10 -3
l -7 -6
v -5
l 7 -10
v -12
l -2 3
l -6 -5
l 4 -6
l -6 2
v -7
l -5 -4
l -5 3
l -5 -9
l 9 -5
l 3 -6
l 4 -3
l 1 -12
l 5 -5
h -1
M519 131
l 19 14
v 6
l -4 10
l 1 6
l -1 -1
v 2
l -1 2
l -4 -1
l 1 8
h 1
l 1 1
M892 124
v 1
l -14 -3
l -4 -5
h -4
l -6 9
l -12 -3
h -8
l -6 -8
l -17 -8
l -7 13
v 14
l -5 1
l -9 2
l -2 -2
l -5 -9
l -6 2
h -1
l -1 -3
l -11 -4
h -3
v -5
l -3 -7
l -5 -3
l -10 3
l -16 8
l -9 -5
l -5 -7
l -1 -9
h -2
l -10 -2
l -7 8
h -4
l -2 10
l 4 2
l -11 4
l -2 6
l -4 3
v 1
l -2 3
l 1 9
l -9 5
v 1
h -1
l -1 -1
h -7
l -1 -6
l -2 -11
l -5 -4
l -6 -11
l -3 3
l -5 7
l -15 12
l -5 2
l -6 -2
h -4
l -5 -3
l -11 6
h 5
l -5 9
l -1 16
l -2 7
l -4 10
l -5 5"/>
</svg>