<svg version="1.1" xmlns="http://www.w3.org/2000/svg" width="1000" height="434" viewBox="0 0 1000 434">  <path d="M629,11v1l1,1l2,2l7,4l1,2l1,1h4v-1h2v-1h2v-1l1,-1v-1h1v1h2v1h2l1,-1h1l6,-3h1v2l1,7v1h1l2,1h2l6,1l1,1l3,3l4,10l1,2l1,1l1,2l1,1v1l2,3v10l1,1l1,1h1v1h7v1l3,1l1,1h1h-1l3,1h8v-1h4l2,-1l6,2h3l7,3l1,5l6,3l4,8l12,3l2,-2l5,-7h1l10,-3l8,5h9l6,5l3,5l4,-3l4,-2l10,2l8,-10l1,-1h2v-1h1v-1h1v-1l1,-1v-1l1,-1v-1h6l12,-5l1,11l2,7v4h1v3l1,1l2,2h1l11,2h1l6,7l1,1l1,1v1h1l2,2h1l3,2l2,8v11l1,1l1,1l1,3l-1,3l1,1v1l-3,5l-1,1l1,4l1,1v1l-1,3l-1,2l-3,3l1,3l1,1l2,1l2,2h1v1l1,2v1h1v1l1,1h1v2l1,1l1,1v2l1,1v1l1,1l1,1v1h3v8h-1v2l1,1h1v1l3,1l1,1l2,1l1,1v1l1,1v5l1,1v1l2,2l-1,2h3l1,1l1,1h2v1h1l1,1v1h2v1l-1,1h3h-1l-1,2l-1,1v1h1v1h1v2h1v1l1,1l1,3l-1,1v1l1,-1l3,2l4,1l3,5l5,-1l-1,1l6,8l-1,1h1l1,1v1l1,-1h2v1l5,2h5l1,-1v1l1,1l1,-1v-1h1v1l1,-1h1l1,-1l1,1l-11,10l-1,1l-1,1l-11,11l-5,4l-2,2l-7,6l-1,2l-3,3v1h-1v1h-1v1h-2v2h-3v1h-3v1h-3l-1,1h-2l-1,1v1h-2l-2,1v1h-3v1h-1v1h-2v1h-1l-1,1v-1l-1,1h-1v1h-1l-1,1l-1,1h-1v1l-1,1h-1l-1,1v1h-1v1h-3v1h-1v1h-1v1h-1v-1l-1,1h-1v1h-2l-1,1h-1v2h1v1h-1h1v1h-1v1h1v2l-1,1v1h1v3l-1,1v-1h-1l-1,1v3h-1v-1h-1v2h-1l-1,1h-3l-1,1v-1h-1v1h-1v2h-1v1h-2v1h-1l-1,1v2h1v1h1l-1,1v2h1v1h-1v2h-1l-1,1l1,1v1h-1v1h-1v1h-1l-1,1h-1v1h-2v1h-2l-1,1h-5v1h-1v1h-3v-1h-1l-1,1h-3l-1,-1v2h-1v1l-1,1h-1v1h1v2l-1,1h-1v1l-1,1v1l-1,2l-1,1l1,1v2h-1v1h-4l-2,1h-3l-1,1h-3v1h-1l-3,1h-1v1h-3l-2,1l-1,1h-2l-1,1h-2l-1,1h-1l-1,1l-1,1l-1,1h-1v1h-10v-1v1l-1,-1v1h-4v1l-1,1h-1l-1,1l-1,1h-2l-3,2h-1l-1,1h-3v1h-1v1l-1,1h-2v2l-1,1l-1,1h-29l-10,-1h-16l-12,1h-5l-22,-1h-51l-15,-2l-8,-1h-37l-10,1h-9l-2,1h-1l-24,-1l-17,-1h-19l-41,-4h-25l-5,1h-1v1h-1l-1,-1l-14,-1h-148l1,-5l-6,-1l-8,-1l-13,-1v4l2,4l1,7v2l1,1v5l-1,1v3l-2,2l-55,-2h-3l-23,-1l-2,-1h-15l-41,-2l-17,-1h-7l-1,1h-7v-2l3,-10l2,-6l2,-2h4l4,4l1,3l3,3h1l6,-3v-1l3,-7l4,-4l-1,-1v-3l-2,-1l-2,-7l4,-3l3,1l2,1l1,-1l1,-1v-1l-1,-3h-1l-4,-1l-2,-2v-2l1,-3l5,-1l1,-2l1,-3v-2l2,-6v-2l1,-3l-6,-5l-1,-1l-3,-4v-4l11,-13l1,-4l12,-9l8,-1h-1h3v1l8,3l1,1h1l1,1h1v1h2l1,1l1,1h1l2,3h1l1,1h1v1h6l1,1l1,1h1l1,1h1v1h3l4,3l2,3l4,2l2,1h5l4,-2l1,-3l1,-1v-1l1,-4h1v-3l-1,-1v-3h-1v-2l-1,-1v-1h-1v-1h-1l-1,-1l-2,-5l-2,-1h-1v-1h1l-1,-2v-2l8,-18l8,-2l3,2v1h1v-1l7,-5l1,-1l6,-1h5l3,-1h3l2,-1h8l1,-2h1l1,-2v-4h-1v-1h-1v-1h-1l-2,-3l-1,-1v-1h-2v-1h-1v-2h-1v-4l-1,-1v-1l-1,-7l3,-3v-1l1,-1l1,-1l7,-4v-1l1,-1l1,-2l1,-1v-3l1,-1v-1h1l1,-1h1v1h1l2,1l2,1v1h1v1h3v-1l1,-2l1,-1h1l1,-1v-7h-1l-1,-1l-1,-1v-5l1,-1h1v-2l3,-2h1l1,1l4,6l1,1l5,1h1l1,-1l1,-1l3,-1h4l1,-1h5v2l-1,3v1l-1,1v3l1,1h8v-1h1v-1h1v-3l-3,-8l-1,-1v-1l2,-2l1,-2l1,-3v-1h1v1l1,3l1,2l2,2l4,2v1h1v1l7,-5h1v-1h2l7,2l1,1h1l1,1v1h1l1,1h2l8,6l1,1l1,1l2,1h2l2,1l5,1l3,8h2l2,-1h1l2,-2v-2l1,-1l1,-4l1,-2v-3l8,-7h1v-1v1h1v-1h6v-1h1l1,-1v-1h1v-1h1v-1h1v-1h1v-1h1v-1h2v-1h2v-1h1l3,2v3h1v1l1,1h-1l1,1v1h1v1l1,1v1l1,1v1l1,1l1,1l1,1l7,-3h2l1,1v2l-1,1v4l-1,1h1v2h2l2,-1l1,-1h1l1,-2v-7l4,-1l8,-2v-1l-1,-1l-1,-1v-2l-1,-1l1,-1v-1h-1l1,-1h-1v-1l1,-3v-4h1l1,-1h5l1,-1h1l1,-1l1,-1v-2l-1,-1l-3,-2l-1,-2v-1h1v-1h4l1,1h1l1,1h2v-1l2,-2l2,1l4,-2v-2l-6,-2v-5l5,2l5,3l2,8v7l1,2h1v1h1l1,1l1,1h1l1,1l3,2h1v1h4l10,3v-1v2l1,1l4,-1v-1l2,-1h3v-1h2l7,-3l1,-7l1,-2v-14l1,-1l1,-3l2,-2v-1l3,-3l1,-2v-3l1,-2h1l5,-1h1l1,1l2,2h1l3,-2l1,-1h1l1,-1h1l1,-1l2,-3l1,-1v-3l1,-2v-3l1,-1v-1l1,-2v-2l1,-1v-1l5,-4l9,-2l1,-1v-1h1v-1l1,-1v-2l6,-3l2,-2v-6l-1,-1l-1,-1v-2h-1v-11h-1v-1h-1v-5l1,-1l3,-3h10l1,-1h3v-1h4v1h2l1,1h1v3h1l5,4l7,-2l1,-1l1,-1h1v-1h1v-1l2,-1l1,-1v-1h1l5,-3h1l1,-1h1v-1l2,-1l6,1l6,-3h1l2,1h4v1h1l1,-1l-2,-7l1,-1l1,-1v-1h2l2,-3v-2h-1v-1h-1l-1,-1h-8l-1,-1v-3l1,-2h1l1,-1v-1l2,-1v-1l1,-1v-2h-1v-1l-2,-2l-6,-8v-1l1,-1l1,-1l3,-1l2,-2v-1h1v-1l2,-1h1l2,-1l1,-1h1l1,-2l1,-1ZM35,416l-1,1l-6,-1l-3,-4l1,-8h4l5,1l1,1l1,3l-1,6l-1,1Z"/><g class="districts"><path data-race-id="KY01" d="M44,415l3,-10l2,-6l2,-2h4l4,4l1,3l3,3h1l6,-3v-1l3,-7l2,-2l2,-2l-1,-1v-3l-2,-1l-2,-7l4,-3l3,1l2,1l1,-1l1,-1v-1l-1,-3h-1l-4,-1l-2,-2v-2l1,-3l5,-1l1,-2l1,-3v-2l2,-6v-7l-5,-3l-1,-1l-3,-4v-4l11,-13l1,-4l12,-9l8,-1h-1h3v1l8,3l1,1h1l1,1h1v1h2l1,1l1,1h1l2,3h1l1,1h1v1h6l1,1l1,1h1l1,1h1v1h3l4,3l2,3l1,2h3l2,1h5l4,-2l1,-3l1,-1v-1l1,-4h1v-3l-1,-1v-3h-1v-2l-1,-1v-1h-1v-1h-1l-1,-1l-2,-5l-2,-1h-1v-1h1l-1,-2v-1v1v-2l8,-18l8,-2l3,2v1h1v-1l7,-5l1,-1l6,-1h5l3,-1h3l2,-1h8l1,-2h1l1,-2v-4h-1v-1h-1v-1h-1l-2,-3l-1,-1v-1h-2v-1h-1v-2h-1v-4l-1,-1v-1l-1,-7l3,-3v-1l1,-1l1,-1l7,-4v-1l1,-1l1,-2l1,-1v-3l1,-1v-1h1l1,-1h1v1h1l2,1l2,1v1h1v1h3v-1l1,-2l1,-1h1l1,-1v-7h-1l-1,-1l-1,-1v-5l1,-1h1v-2l3,-2h1l1,1l4,6l1,1l5,1h1l1,-1l1,-1l3,-1h4l1,-1h5v2l-1,3v1l-1,1v3l1,1h8v-1h1v-1h1v-3l-3,-8l-1,-1v-1l2,-2l1,-2l1,-3v-1h1v1l1,3l1,2l2,2l4,2v1h1v1l7,-5h1v-1h2l7,2l1,1h1l1,1v1h1l1,1h2l2,1l-2,8l1,8l4,2l-6,7h-7l-4,9l12,6l23,11l11,2l10,-10h6l12,-7l-6,-4l5,-6l22,12v8l6,7l-2,4l-6,-2l1,7l4,18l-18,14l-2,-3l-5,-1l-1,8l-10,10l1,6l-4,1l3,12l-5,4l12,2l22,9l7,18l3,8l23,4v5l17,-14v-4l8,-2l4,-4h4l4,9l4,-3v7l4,6l-1,6l5,2l4,6l20,-15l11,-4l-1,-17l-2,-12v-13l-2,-5l4,-4l6,-2l8,9l12,2l19,-9l3,-4l-6,-5l1,-4l-10,-17l-14,-12l1,-5l4,2l6,-4l2,2h2l-3,-11l-4,-3l5,-12l10,-15l3,9l15,6h11l11,-9l6,4v5l-1,14l17,2l7,-3l-1,18l7,6l10,6l2,9l-2,10l-22,19l-1,11l9,7l-9,8l-5,-1l-1,6l-14,9l6,8l2,10l-1,7l2,12h2l1,1h1l-8,-1h-37l-10,1h-9l-2,1h-1l-24,-1l-17,-1h-19l-11,-1l-30,-3h-25l-5,1h-1v1h-1l-1,-1l-14,-1h-148l1,-5l-6,-1l-8,-1l-13,-1v4l2,4l1,7v2l1,1v5l-1,1v3l-2,2l-55,-2h-3l-23,-1l-2,-1h-15l-41,-2l-17,-1h-7l-1,1h-7ZM30,404l5,1l1,1l1,3l-1,6l-1,1l-1,1l-6,-1l-3,-4l1,-8Z"/><path data-race-id="KY02" d="M299,239l4,-9h7l6,-7l-4,-2l-1,-8l2,-8l6,5l1,1l1,1l2,1h2l2,1l5,2l3,7h2l2,-1h1l2,-2v-2l1,-1l1,-4l1,-2v-3l8,-7h1v-1v1h1v-1h6v-1h1l1,-1v-1h1v-1h1v-1h1v-1h1v-1h1v-1h2v-1h2v-1h1l3,2v3h1v1l1,1h-1l1,1v1h1v1l1,1v1l1,1v1l1,1l1,1l1,1l7,-3h2l1,1v2l-1,1v4l-1,1h1v2h2l2,-1l1,-1h1l1,-2v-7l4,-1l8,-2v-1l-1,-1l-1,-1v-2l-1,-1l1,-1v-1h-1l1,-1h-1v-1l1,-3v-4h1l1,-1h5l1,-1h1l1,-1l1,-1v-2l-1,-1l-3,-2l-1,-2v-1h1v-1h4l1,1h1l1,1h2v-1l2,-2l2,1l4,-2v-2l-6,-2v-5l5,2l5,3l2,8v7l1,2h1v1h1l1,1l1,1h1l1,1l3,2h1v1h4l10,3v-1v2l1,1l4,-1v-1l2,-1h3v-1h5l2,1l3,-4h1l11,-6l12,-4l20,2l3,-1l13,-6l-1,2l1,7h3v6l4,2h1l1,-1v-1l1,-1l-1,1v1l-1,1h-1l-2,3l13,-3l10,-10l12,6l-3,6l-5,4l2,11l3,-2l3,4l9,-1l11,-9l8,1l10,-4l-1,13l3,-2l2,8l6,-2l6,-23l11,4v2l-3,-1l1,8l-2,1l-1,1v4l-4,5l-1,7h5l-3,5l7,4l2,3l5,-6l5,3l-1,4l5,4l7,15l4,1l3,9l-2,8l-1,2l-10,-2l-5,-3l-19,-16l-2,-4l-9,8l-14,6l-7,3l-17,-2l1,-14v-5l-6,-4l-11,9h-11l-15,-6l-3,-9l-10,15l-5,12l4,3l3,11h-2l-2,-2l-6,4l-4,-2l-1,5l14,12l10,17l-1,4l6,5l-3,4l-19,9l-12,-2l-8,-9l-6,2l-4,4l2,5v13l2,12l1,17l-11,4l-20,15l-4,-6l-5,-2l1,-6l-4,-6v-7l-4,3l-4,-9h-4l-4,4l-8,2v4l-17,14v-5l-23,-4l-3,-8l-7,-18l-22,-9l-12,-2l5,-4l-3,-12l4,-1l-1,-6l10,-10l1,-8l5,1l2,3l18,-14l-4,-18l-1,-7l6,2l2,-4l-6,-7v-8l-22,-12l-5,6l6,4l-12,7h-6l-10,10l-11,-2l-23,-11Z"/><path data-race-id="KY03" d="M480,190l4,-3l1,-7l1,-2v-14l1,-1l1,-3l2,-2v-1l3,-3l1,-2v-3l1,-2h1l5,-1h1l1,1l2,2h1l3,-2l1,-1h1l1,-1h1l1,-1l2,-3l1,-1v-3l1,-2v-3l1,-1l19,14v6l-4,10l1,6l-1,-1v2l-1,2l-4,-1l1,8h1l1,1l-3,1l-20,-2l-12,4l-11,6h-1l-3,4Z"/><path data-race-id="KY04" d="M519,131v-1l1,-2v-2l1,-1v-1l4,-4l10,-2l1,-1v-1h1v-1l1,-1v-2l6,-3l2,-2v-6l-1,-1l-1,-1v-2h-1v-11h-1v-1h-1v-5l1,-1l3,-3h10l1,-1h3v-1h4v1h2l1,1h1v3h1l5,4l7,-2l1,-1l1,-1h1v-1h1v-1l2,-1l1,-1v-1h1l5,-3h1l1,-1h1v-1l2,-1l6,1l6,-3h1l2,1h4v1h1l1,-1l-2,-7l1,-1l1,-1v-1h2v-1l2,-2v-2h-1v-1h-1l-1,-1h-8l-1,-1v-3l1,-2h1l1,-1v-1l2,-1v-1l1,-1v-2h-1v-1l-2,-2l-6,-8v-1l1,-1l1,-1l3,-1l2,-2v-1h1v-1l2,-1h1l2,-1l1,-1h1l1,-2l1,-1l4,-1v1l1,1l2,2l7,4l1,2l1,1h4v-1h2v-1h2v-1l1,-1v-1h1v1h2v1h2l1,-1h1l6,-3h1v2l1,7v1h1l2,1h2l6,1l1,1l3,3l4,10l1,2l1,1l1,2l1,1v1l2,3v10l1,1l1,1h1v1h7v1l3,1l1,1h1h-1l3,1h8v-1h4l2,-1l6,2h3l7,3l1,5l6,3l4,8l12,3l2,-2l5,-7h1l10,-3l8,5h9l6,5l3,5l4,-3l4,-2l10,2l8,-10l1,-1h2v-1h1v-1h1v-1l1,-1v-1l1,-1v-1h6l12,-5l1,11l2,7v4h1v3l1,1l2,2h1l11,2h1l6,7l1,1l1,1v1h1l2,2h1l3,2l2,8v6l-14,-3l-4,-5h-4l-6,9l-12,-3h-8l-6,-8l-17,-8l-7,13v14l-5,1l-9,2l-2,-2l-5,-9l-6,2h-1l-1,-3l-11,-4h-3v-5l-3,-7l-5,-3l-10,3l-16,8l-9,-5l-5,-7l-1,-9h-2l-10,-2l-7,8h-4l-2,10l4,2l-11,4l-2,6l-4,3v1l-2,3l1,9l-9,5v1h-1l-1,-1h-7l-1,-6l-2,-11l-5,-4l-6,-11l-3,3l-5,7l-15,12l-5,2l-6,-2h-4l-5,-3l-11,6h5l-5,9l-1,16l-2,7l-4,10l-5,5l-12,-6l-10,10l-13,3l2,-3h1l1,-1v-1l1,-1l-1,1v1l-1,1h-1l-4,-2v-6h-3l-1,-7l1,-2l-13,6l-1,-1h-1l-1,-8l4,1l1,-2v-2l1,1l-1,-6l4,-10v-6l-19,-14Z"/><path data-race-id="KY05" d="M590,369l14,-9l1,-6l5,1l9,-8l-9,-7l1,-11l22,-19l2,-10l-2,-9l-10,-6l-7,-6l1,-18l14,-6l9,-8l2,4l19,16l5,3l10,2l1,-2l2,-8h6l-1,2h14l3,-6l10,-1h6l8,-3l9,6l6,-13l5,-1l-2,-5l13,-9h2l11,8l12,4l6,2l2,-1l2,-2l2,-6l1,-1l5,-1l16,3l-2,-6l-7,-6l-3,-4l-3,-4l-10,-3l-7,-6v-5l7,-10v-12l-2,3l-6,-5l4,-6l-6,2v-7l-5,-4l-5,3l-5,-9l9,-5l3,-6l4,-3l1,-12l5,-5h-1h1l6,-2l5,9l2,2l9,-2l5,-1v-14l7,-13l17,8l6,8h8l12,3l6,-9h4l4,5l14,3v-1v6l1,1l1,1l1,3l-1,3l1,1v1l-3,5l-1,1l1,4l1,1v1l-1,3l-1,2l-3,3l1,3l1,1l2,1l2,2h1v1l1,2v1h1v1l1,1h1v2l1,1l1,1v2l1,1v1l1,1l1,1v1h3v8h-1v2l1,1h1v1l3,1l1,1l2,1l1,1v1l1,1v5l1,1v1l2,2l-1,2h3l1,1l1,1h2v1h1l1,1v1h2v1l-1,1h3h-1l-1,2l-1,1v1h1v1h1v2h1v1l1,1l1,3l-1,1v1l1,-1l3,2l4,1l3,5l5,-1l-1,1l6,8l-1,1h1l1,1v1l1,-1h2v1l5,2h5l1,-1v1l1,1l1,-1v-1h1v1l1,-1h1l1,-1l1,1l-11,10l-1,1l-1,1l-11,11l-5,4l-2,2l-7,6l-1,2l-3,3v1h-1v1h-1v1h-2v2h-3v1h-3v1h-3l-1,1h-2l-1,1v1h-2l-2,1v1h-3v1h-1v1h-2v1h-1l-1,1v-1l-1,1h-1v1h-1l-1,1l-1,1h-1v1l-1,1h-1l-1,1v1h-1v1h-3v1h-1v1h-1v1h-1v-1l-1,1h-1v1h-2l-1,1h-1v2h1v1h-1h1v1h-1v1h1v2l-1,1v1h1v3l-1,1v-1h-1l-1,1v3h-1v-1h-1v2h-1l-1,1h-3l-1,1v-1h-1v1h-1v2h-1v1h-2v1h-1l-1,1v2h1v1h1l-1,1v2h1v1h-1v2h-1l-1,1l1,1v1h-1v1h-1v1h-1l-1,1h-1v1h-2v1h-2l-1,1h-5v1h-1v1h-3v-1h-1l-1,1h-3l-1,-1v2h-1v1l-1,1h-1v1h1v2l-1,1h-1v1l-1,1v1l-1,2l-1,1l1,1v2h-1v1h-4l-2,1h-3l-1,1h-3v1h-1l-3,1h-1v1h-3l-2,1l-1,1h-2l-1,1h-2l-1,1h-1l-1,1l-1,1l-1,1h-1v1h-10v-1v1l-1,-1v1h-4v1l-1,1h-1l-1,1l-1,1h-2l-3,2h-1l-1,1h-3v1h-1v1l-1,1h-2v2l-1,1l-1,1h-29l-10,-1h-16l-12,1h-5l-22,-1h-51l-15,-2h-1l-1,-1h-2l-2,-12l1,-7l-2,-10Z"/><path data-race-id="KY06" d="M585,185l5,-5l4,-10l2,-7l1,-16l5,-9h-5l11,-6l5,3h4l6,2l5,-2l15,-12l5,-7l3,-3l6,11l5,4l2,11l1,6h7l1,1h1v-1l9,-5l-1,-9l2,-3v-1l4,-3l2,-6l11,-4l-4,-2l2,-10h4l7,-8l10,2h2l1,9l5,7l9,5l16,-8l10,-3l5,3l3,7v5h3l11,4l1,3h1l-5,5l-1,12l-4,3l-3,6l-9,5l5,9l5,-3l5,4v7l6,-2l-4,6l6,5l2,-3v12l-7,10v5l7,6l10,3l3,4l3,4l7,6l2,6l-16,-3l-5,1l-1,1l-2,6l-2,2l-2,1l-6,-2l-12,-4l-11,-8h-2l-13,9l2,5l-5,1l-6,13l-9,-6l-8,3h-6l-10,1l-3,6h-14l1,-2h-6l-3,-9l-4,-1l-7,-15l-5,-4l1,-4l-5,-3l-5,6l-2,-3l-7,-4l3,-5h-5l1,-7l4,-5v-4l1,-1l2,-1l-1,-8l3,1v-2l-11,-4l-6,23l-6,2l-2,-8l-3,2l1,-13l-10,4l-8,-1l-11,9l-9,1l-3,-4l-3,2l-2,-11l5,-4Z"/></g>  <path class="districts-mesh" d="M313,205l-2,8l1,8l4,2l-6,7h-7l-4,9l12,6l23,11l11,2l10,-10h6l12,-7l-6,-4l5,-6l22,12v8l6,7l-2,4l-6,-2l1,7l4,18l-18,14l-2,-3l-5,-1l-1,8l-10,10l1,6l-4,1l3,12l-5,4l12,2l22,9l7,18l3,8l23,4v5l17,-14v-4l8,-2l4,-4h4l4,9l4,-3v7l4,6l-1,6l5,2l4,6l20,-15l11,-4l-1,-17l-2,-12v-13l-2,-5l4,-4l6,-2l8,9l12,2l19,-9l3,-4l-6,-5l1,-4l-10,-17l-14,-12l1,-5l4,2l6,-4l2,2h2l-3,-11l-4,-3l5,-12l10,-15l3,9l15,6h11l11,-9l6,4v5l-1,14l17,2l7,-3l-1,18l7,6l10,6l2,9l-2,10l-22,19l-1,11l9,7l-9,8l-5,-1l-1,6l-14,9l6,8l2,10l-1,7l2,12h2l1,1h1M480,190l2,1l3,-4h1l11,-6l12,-4l20,2l3,-1l13,-6l-1,2l1,7h3v6l4,2h1l1,-1v-1l1,-1l-1,1v1l-1,1h-1l-2,3l13,-3l10,-10l12,6l-3,6l-5,4l2,11l3,-2l3,4l9,-1l11,-9l8,1l10,-4l-1,13l3,-2l2,8l6,-2l6,-23l11,4v2l-3,-1l1,8l-2,1l-1,1v4l-4,5l-1,7h5l-3,5l7,4l2,3l5,-6l5,3l-1,4l5,4l7,15l4,1l3,9l-2,8l-1,2l-10,-2l-5,-3l-19,-16l-2,-4l-9,8l-14,6M679,262h6l-1,2h14l3,-6l10,-1h6l8,-3l9,6l6,-13l5,-1l-2,-5l13,-9h2l11,8l12,4l6,2l2,-1l2,-2l2,-6l1,-1l5,-1l16,3l-2,-6l-7,-6l-3,-4l-3,-4l-10,-3l-7,-6v-5l7,-10v-12l-2,3l-6,-5l4,-6l-6,2v-7l-5,-4l-5,3l-5,-9l9,-5l3,-6l4,-3l1,-12l5,-5h-1M519,131l19,14v6l-4,10l1,6l-1,-1v2l-1,2l-4,-1l1,8h1l1,1M892,124v1l-14,-3l-4,-5h-4l-6,9l-12,-3h-8l-6,-8l-17,-8l-7,13v14l-5,1l-9,2l-2,-2l-5,-9l-6,2h-1l-1,-3l-11,-4h-3v-5l-3,-7l-5,-3l-10,3l-16,8l-9,-5l-5,-7l-1,-9h-2l-10,-2l-7,8h-4l-2,10l4,2l-11,4l-2,6l-4,3v1l-2,3l1,9l-9,5v1h-1l-1,-1h-7l-1,-6l-2,-11l-5,-4l-6,-11l-3,3l-5,7l-15,12l-5,2l-6,-2h-4l-5,-3l-11,6h5l-5,9l-1,16l-2,7l-4,10l-5,5"/></svg>