<svg version="1.1" xmlns="http://www.w3.org/2000/svg" width="1000" height="916" viewBox="0 0 1000 916"><path data-race-id="LA01" d="M511,814v1h1v1h1v-1v1h5l1,-1h1l1,-1v-2h2v-2l1,-3v-2l3,-1l1,-1h1l5,10l5,4l6,-5l-2,11h-7l3,3l4,-2v7l6,-4l1,7h-13l-16,-7l-10,-10ZM535,792l11,-4l2,-3h7l7,-7l14,3l31,4l8,-18v-14l6,1l5,-3l5,-7l-4,-5l2,-11l-3,-1v-6l3,3h16v6l5,-1l12,7l2,-7l-3,-7l11,-12l7,6l10,2l3,6v7l3,2h21l5,-13l3,-6l2,-10l1,-3l11,-3l2,7l-4,6l8,5l1,-13l8,-5l3,-8l6,-3l8,3l4,5l2,-5l-6,-7l-5,1l-9,-5l3,-9h12l12,-4l3,11l5,4l19,-4l-6,3v6l8,7l8,3l9,-2l4,-4v-7l4,-9l-2,-6l4,-2l12,-9l1,-7l8,3l-2,14l-4,1l4,7l5,-4l6,6l-6,1l-4,6l9,6v-4l4,-3l1,6l9,3l-18,13h6l8,5h-9l-3,5l-5,-4l1,-4l-5,-4l-2,6l5,9l-5,4l9,7l-6,3l-5,-8h-3l-5,-7l-6,5l-5,-3h-12v8l20,12l-2,-1h-12l-4,-5l-5,4l5,3l-1,5l-16,5l12,14l-3,2l23,12l6,6l-6,1v10l11,2l7,-5l8,2l2,4l6,-3l-2,9l7,1l14,-2l5,2l-1,6l6,1l6,-7l6,6l-2,2l7,4l3,6l-4,4l5,3l-2,4l7,3l-3,9l11,6l-3,5l-3,-5h-7v9h-5l-4,6l2,7l-9,-5l-3,-8l-7,-8l-1,2l1,10l-4,2l-13,13l-7,12h-4l2,-6l20,-27l-2,-6l5,-2v-12l-6,-7l-6,5v11l-3,1l2,-16l-4,9l-2,-11l-7,8h-6l-12,-14l-3,4l-14,-4l9,-1l6,3l1,-3l8,-1l-1,-10l-9,-8l-5,1l-10,-2l2,-4l-4,-6l-18,2l-4,-3l-9,4v-6l-9,4l4,-4l-6,-1l1,-7l4,-2l-6,-3l-5,6l-1,-8l-7,-4l-4,10h-7l-7,-9l-4,2l-16,-12l-5,3l-5,-5l8,-3l4,-7l-1,-14l-4,2l-3,-5l-4,1l-1,13l4,10l-8,1l-4,11l8,9l6,-1l2,5l18,1l-1,4l-1,11h5l-2,5l-6,3l4,4l7,7l-9,-4l-4,2l2,-6l-4,2l-4,-4l5,11l-4,3l3,8l6,5l-1,6l-4,3v1l-16,13l-12,3l2,-8l-6,-3l3,-1l-10,-20v-4l-6,-2l2,-4l-5,-7l-6,7l2,5l-2,6l-5,3v-4l1,-3v-12l-4,-2l-1,-6l-6,3l2,4l-9,6l1,-12l-5,-2l1,9l2,-4v8l-4,-2v5l-8,-2l5,-2l-11,-2l2,13l2,1l3,4l-9,-5v8l-4,-3l-4,-3l2,11l-3,-2l-5,7v7h-4l-5,-2v5l-8,3l1,-7l-7,4v-6l-4,2l-1,2l-10,1l-9,-9l6,-9l9,2l8,-8l-7,-5l-5,2l-9,-7l6,1l-1,-4l-5,2l4,-9l-9,-2l-10,6l15,12l-10,5l-3,-3l-8,10l1,-8l-5,-1l3,11h-8l-7,-7l2,-8l-3,-6l17,-4l-2,-5l5,1l1,-4l-10,-3l-4,3l7,4l1,5l-6,-1l-5,3l-3,-10l-12,-6l-5,-6ZM825,634l-6,-2l-5,-2l-8,3v-1v1v-1l-1,-1v-1h-1l-1,1v1l1,2l-1,1v1h-1l-1,1l-1,1v1l-5,6l-8,1l-3,-5l-2,-4l1,-1v-2l-2,2h-2l-12,15l-11,8l-3,-2l-7,3h-1l-3,8l-2,5l-5,-1v1l-1,1v1l-1,2h-1h5l-2,9l-3,-2v-6l-4,-1l-6,7h-4l-6,-19l-6,1v-17l3,-16l19,-6l-1,-10l-24,-11l-12,-1l-3,3l-21,1v-11l2,-6l-5,-1v-6l-6,-8l-3,-10l-3,-2v-9l10,2v-6h5l-2,-16l4,-3l2,5l7,4l4,7l3,2l-1,8l9,2h18l-1,-21v-3l1,-3v-4l-1,-1v-6l-1,-1v-3l-1,-3h1l19,5l14,1l13,4h24l5,-1l-1,1h-1v1h2v1h1l1,-1v1h1l1,1v2h1v1h-1v3h-2h2v3l1,1v2h1v1h1h-1v1l1,1v2h3h-1v1h1v-1h1l-1,1l-1,1v-1h-1v2h2l-1,1l1,1h3v1l1,1h-1v1h1v1h1h-1v1h1v1h1v-1v2h1l-1,1h1v1h-1v1l1,-1h1v1h1v1h-1h1v-1l1,1h3v2h1v1h1l1,1v1l1,1l1,1h2v1l1,2h-1v2h1v5v-1l-1,1v1h1v2h1l1,2v1l1,2h1v3l2,2h1l1,1v1l1,1v4h1l-1,1v1h-2v3h-1l1,1h1l1,1v2l1,1v1h-1l3,8v1l1,1h2l2,3l1,1v1l1,1v1h1l1,1h1v-1h2v-2h1l1,-1h1l1,1v1l1,1v1h-6l-5,6l-7,-1ZM878,710l2,1l8,-3l1,8ZM889,649l-1,-3l8,-7l3,12l5,1l-7,6l1,-5l-15,-2ZM812,799l3,2l9,-2l5,6l-10,8l-7,1l-18,-2l8,-5ZM790,810l2,-8l5,4ZM744,771l12,7l-11,-3l-4,5l-3,-8ZM607,853l-1,6h-9ZM590,834l-2,6l-4,4l-4,-3l4,-6ZM576,833l7,5l-5,7l-8,-1v-5h6l-5,-4l2,-6Z"/><path data-race-id="LA02" d="M514,595l2,5l5,-5v-6h5l-4,-5l9,2l3,-10l-5,-3l3,-3l5,3v3l4,-5h-4v-11l-2,-2l-2,-8l3,-11h7l-1,8h4l2,10l9,5l-4,5l3,6l-12,-1l-2,4l-5,3l-8,16h9l10,5l21,1l-6,22l4,1l3,-7l18,2l3,4l-2,6l-6,3l1,5l5,7l29,-6l21,-5l2,-12l7,3h-1v2h1l4,5h1l1,1h2l1,4v8l8,1l-1,5l4,2v-6l4,3l-3,3l2,9l1,8l16,1l-4,7l6,4l8,1l2,-7h6v-9l6,-1l6,19h4l6,-7l4,1v6l3,2l2,-9h-5h1l1,-2v-1l1,-1v-1l5,1l2,-5l3,-8h1l7,-3l3,2l11,-8l12,-15h2l2,-2v2l-1,1l2,4l3,5l8,-1l5,-6v-1l1,-1l1,-1h1v-1l1,-1l-1,-2v-1l1,-1h1v1l1,1v1v-1v1l8,-3l5,2l6,2l-3,3v1h-1v2h-1v1h-1v2h-3v7h-2v1h-4v1h-2v1h-1v2h-1v1h1v1h1v2l1,1v1l-2,1h-1v-1h-1v-1h-1v-1h-1v-1h-2v-1h-10l-1,1l-2,2v1h-1v1h-1v1h-1v2h-2v1l-12,4h-12l-3,9l9,5l5,-1l6,7l-2,5l-4,-5l-8,-3l-6,3l-3,8l-8,5l-1,13l-8,-5l4,-6l-2,-7l-11,3l-1,3l-2,10l-3,6l-5,13h-21l-3,-2v-7l-3,-6l-10,-2l-7,-6l-6,-13l-5,-5l-5,-2l-19,1l-6,-2l-5,1l-2,-3l-11,-2v3l-18,1v6h-5l-3,9l-7,-6l-2,-8l6,-5l-7,-8l-10,1l-12,-1l-7,2l-2,-10l5,-3l6,2v-12h-3v-10l3,-7l-9,-6h-11v7h-15l-1,-11l8,-4l2,-6l5,-1l3,-8l-10,3l-8,3l-7,-4l2,-5Z"/><path data-race-id="LA03" d="M45,695h1v-1h1l2,-3h1v-1l6,-8l1,-7l5,-9l1,-1h1v-1h1l2,-2l3,-3v-1l1,-1v-1l3,-2l1,-4l1,1v2h1l1,-1v-1l-1,-1h-2l-3,-5l1,2l1,-1v-1l1,-2l1,-1v-1h1l1,-1l-1,-1v-1h1v-3h1v1h1l1,-1h-1l-1,-3h-1v1h-1v-1l1,-2l1,-2v-1h-2l1,-1h-1v-1l-1,-1v-1l1,1l1,-1h-2l-1,-1h1v-2l-1,1v-2l1,-1v-1h1h-1l1,-1v-1h1l-1,-1h1v-1h-1l1,-1h-1l1,-1v-2h-1l1,-1h-1h1h-1v-1h1l-1,-1v1h1v-4h-1l-1,-1h-2v-1h-2v-1h-1v-2h-1v-2h-1v-2h-1v1l-1,-1v-1h1v-1h-1v-1l1,1l-1,-1l1,-1v-2v1h1l1,-1h-1l-1,-2h1v1v-4l-1,-1h1h-1l1,-1h1v-1h1l1,-1h27l20,1v-18h19l-1,18l13,1h33v-5h13v-2h43l10,1v-12l27,1l-1,1l25,1h46v10h12v7l11,-1l3,14l-8,3l-3,-3l3,9l10,-8v-5l6,-4l3,3l10,-1l1,-8l8,3v-3l1,-1l1,3l13,-3l7,4h25l-8,-12h-3l-3,-10h10l11,12l3,12l-4,4l4,3v9l11,14l16,2l-2,8l4,4l1,16h13l4,10h19l7,6l-2,6h-4l1,6l4,12l5,3l1,8l4,4l9,2l6,5l1,15h-3l1,8l-1,12l5,4l-11,3l-3,4l-5,-4l-6,5h-4v7l-5,2l-2,7l-5,4l-8,1l-1,-5l-9,-2l-5,1l4,-7l-12,1l-15,6l5,-6l-6,-20l-16,2l4,-6v-18l-18,1l-2,-2l-9,1l-12,8l-6,-1l4,-6l-4,-1l5,-12l5,4v-10l-14,-1l-3,4l-11,-4l-1,7l-8,3l-16,9l-6,6l4,-10l-4,-2l-6,4l-5,-1l2,7l8,6l9,-1l-6,6l4,12l11,-1l4,-3l3,4l-11,3l5,4h-21l-10,4l-10,6h-10l-15,-4l-23,-3l-16,-3l-17,-6l-37,-17l-21,-10l-18,-7l-18,-4h-13l-10,4l-18,-3l-18,1l-5,2l-33,3l-18,10l-5,-10l-1,-1l-1,-1l-1,-3v-1l-2,-2l-1,-1l-4,-8l10,-8ZM409,746l10,1l3,5l8,2l2,4h6l6,4l-12,7v8l-10,3l-6,-5l-5,-1l-26,-13l6,-10h10l1,-5Z"/><path data-race-id="LA04" d="M27,122v-22l1,-7v-24l1,-13v-34h6l27,1h10l19,1h31l2,1h36l13,1h20l24,1h26l21,1h20l14,1h64l19,1l-2,5l-1,24l5,5l-2,26l-6,9l-22,16l-5,5h-30v-19h-18v-11h-5l-3,-6l-11,-2h-36v9l-4,3v1h-1l-2,1v7l1,3v1l-1,3v4l-2,4v26l-1,2h19v47l-1,1l-4,4v6l-4,4l1,3h-23l1,1l1,2l-1,1h1v1l1,2l1,1v1l1,1l1,2l1,1l1,7v3l1,1l1,3v1l-2,6l2,7l-4,15l1,6h-9l-1,15l-3,4l-1,12l2,7h6l5,3l-2,8l9,2l3,3l8,1l2,5l12,13l-10,7l-7,8l-10,5l-3,6h-5v5h-7v4h-5l8,5l10,1v6l8,8v52h1v25h18l1,-2l22,1h8l1,-1h1l1,1h2l2,1h1l1,-1l4,-3v-8l19,-9l10,4l-1,3l9,-1v7l8,9v9h38v6h-5l2,7l-6,2l8,4l3,5l1,10l7,4l-8,1l5,8h-5v4l7,3l1,5l-8,2l-7,-2l-7,2v3l-1,2v6l-1,16l8,-3l14,9l-1,8l-10,1l-3,-3l-6,4v5l-10,8l-3,-9l3,3l8,-3l-3,-14l-11,1v-7h-12v-10h-46l-25,-1l1,-1l-27,-1v12l-10,-1h-43v2h-13v5h-33l-13,-1l1,-18h-19v18l-20,-1h-27l1,-1v-2h2v-3l1,1v1l1,-1v-1h2v-1l1,-1v-1l-2,-1h1v-1h1v-1l-1,-1l-1,-1v-2l-1,-1h1l-1,-2v-1h1v-1h-1l1,-1h1v-1h-1v-2l-1,1v-1h-1v-1h-1l-1,-1v-2h-1v-1h2l-1,-1l1,-1l1,-1v-1l-1,-1v-1l1,-1h2v-2h2l3,-1l-1,2l1,-1v-1l1,-1v-1h-1v-8l1,-1l1,-1v-2l1,-1h2l1,-2h3l1,-1l1,-1v-2l1,-1v-2l1,-1v-2h1v1h1l-1,-2v1v-1h1l-2,-1h2l-1,-1v-2h1v-1l-1,-1v-2v1h1v-1h2l1,-1v-2h1v-5h3l1,-2v-2h1v-2l1,-1l-2,-1v-2l1,-1l-1,-2l1,-1h-1v-2l-1,1l-1,-1v-3h1v-1l1,-1h3h-1v-2h-1v-1l1,-1v-1h1v-1h1v2l1,-1h1l1,-1v-3h-1v-3h1h-1v-1l-2,1v-1h-1v-1h-1l-1,-1l-1,1l-2,-1l1,-1l1,-1v-3h-2v-2h1v-2h1v1h5v-1l1,-1l1,-1h2l1,-1h1v-1h-2v-1h-1v-1h1v-1h-1l-1,-1v-1h2v-2h-1l-1,-1h1v-1h-2v-1h-3v-2h1h-3v-1l1,-1h2v-3l2,-2v-1l-1,-1v-1l-1,-2v-2h2v-1l-1,-1v-2h2v-2h-6l-1,1h-1v2h-2v1h-1v-2l-1,-1v-5l-1,-2h1v-1l1,-1v-2h-2l-1,-1l-1,-1v-2h1v-3h-1v-2h-4l-1,-2l-1,-1l-1,1l-2,-4h-1v-1h-2v-2l1,-2h1v-3l1,-1l4,-4l1,-2l1,-1h-2v1h-3l-1,1v-6l-1,-1v-1h-1v1l-2,-2h-2v-1l2,-6h-2v-4v1h-4l-1,-1l-1,-1l-1,-1h-1v-3l1,-1h3v-1l1,-1v-1h1l1,-1v-1h1l-1,-1h-5l-1,-1h1v-2h-1v-1h-1v1h-1l-1,1h-1l-2,-1h-1l-1,-1h-2v-1h-1l-1,-3h-1l-1,-6h-1v-1l-1,-1l3,-6v-1h-1h1v-4l1,-2v-1l-1,-1h-1l1,-3v1h1v-3h1l1,-1l2,-3v-1h-1l-1,1h-1l-1,-1v-5h-1v-1l-1,-3h-1v-1l2,-1v-2l-1,-2v-1h-1v-1l-1,-3l-1,-1v1l-1,-1v-1h-1v-1h-3h1v-1h-1v-5h-1v-1h-1l1,-1v-1h-1l1,-3h-2v-2h-2l1,-1v-2l-1,-1v1h-3v1v-1v1l-1,1v-2h-1l1,-3v-1h-4l-1,-1v-1h-1v-1l-1,1h-1l-1,-3l-1,-1l-1,-2l-1,-1l-1,-2v-1l-1,-1l-1,-1h-1v-4h-1v1l-1,-1v-1h-1l-1,1v-61h1v-42l1,-1v-14Z"/><path data-race-id="LA05" d="M214,381h5v-4h7v-5h5l3,-6l10,-5l7,-8l10,-7l-12,-13l-2,-5l-8,-1l-3,-3l-9,-2l2,-8l-5,-3h-6l-2,-7l1,-12l3,-4l1,-15h9l-1,-6l4,-15l-2,-7l2,-6v-1l-1,-3l-1,-1v-3l-1,-7l-1,-1l-1,-2l-1,-1v-1l-1,-1l-1,-2v-1h-1l1,-1l-1,-2l-1,-1h23l-1,-3l4,-4v-6l4,-4l1,-1v-47h-19l1,-2v-26l2,-4v-4l1,-3v-1l-1,-3v-7l2,-1h1v-1l4,-3v-9h36l11,2l3,6h5v11h18v19h30l5,-5l22,-16l6,-9l2,-26l-5,-5l1,-24l2,-5h88l21,1h50l1,3l-1,1l-2,1v1l-2,2l-1,1l1,2h-1l-2,3v3l1,2l2,2l4,1h3l3,-1l2,-3v-2l-1,-5v-1h1v-2l-1,-2h1v-2h7l2,5v2l-1,1h1v1l3,5v2l-4,8l-3,3h-3l-7,7l1,9v1l-2,7l4,1l10,1l3,1l2,4l-13,10l-3,4l-1,5l3,6h1v2h2l1,-1h1l1,-1l4,-1l6,-3l2,-3v-2l1,-1l1,-1l4,4l-1,5l-1,1l-2,2l-1,2l-2,1l-5,2l-2,2l1,2l5,3l8,5l3,4l-3,2l-6,-2l-2,-2l-3,-4l-1,-2l-1,-1l-3,-3l-1,1l-3,8l-1,5l5,5l3,2l1,1l3,1l5,1v-1l1,-1h2l1,-1h4l2,1l1,2v2l-3,3h-1l-1,1l-2,5v5l4,2l12,2l2,-2l1,-2l1,-2v5l-1,1v1h-1v2l-1,2l-2,4l-6,3l-2,-3h-2l-1,3v3l1,2l1,2l-2,7l-3,6l-1,-1l-3,-9l-2,-1h-2l-2,4l-1,1l-2,-2h-1l-2,1l-2,1l-2,2h-1l-2,-1l-1,-1v1l-4,2l-1,1l-1,1l-1,4l3,9l2,1l2,1h3l9,-1l2,1h1v-7l-1,-5l5,4h4l-1,6h-1v1l-2,1v3l-1,2l-2,1l-6,3h-1v1l1,5l-3,1h-1l-5,-5l-1,-2h-1l-2,1l-2,1v2l1,1l1,2h2l6,2l5,3v3l-2,2l-1,1l-3,1h-1l-3,1l-5,1h-1l-2,3l-2,1v3l-1,3h2v4l-2,1v1h-2l-1,2l-4,3l-1,2l-1,1h-3l-1,2v2l3,3h1v3l-1,1l-3,2h-1l-3,-7v-3l-1,-1h-1l-2,1h-3l-2,1l-2,2v5l-2,7v5l1,1l4,-1l2,-1l4,-1l3,-1h2l3,2v1l-4,4h-2l-2,-1h-12l-2,2v1l-3,5l-1,4l1,10l-1,4v1l-1,1h-6l-4,-1l-1,-1l-3,-2l-2,-3h-1l-2,3l-1,1v4l1,1l2,2l1,1l1,1h1l1,1h1l3,-1l3,-2l6,1v4l-10,8l-3,1l-1,-1h-1l-4,1h-1l-1,2v1l1,1v13l1,2v1l4,5l2,2l1,2l-1,6h-5l-5,-6l-1,-3v-4l-1,-1h-2v1l-2,1l-1,1v1l-1,2v1l1,2l1,2v-1h3v2l-1,2l1,4l3,2v2h1l2,1l1,1l1,1l-1,4l-1,4l-3,2h-3l-3,1h-1l-3,-1h-10l-2,1v4l2,2l3,1l4,3l2,3l1,2v3l-1,1l-1,2l-2,3l-1,1v1l-2,1v4l2,2l3,2l2,2l4,3v6l-1,3l-2,2l-4,2l-3,1h-1l-2,1h14l5,1h39l26,-1h122l28,-1h30l9,-1h72l1,-1v1l1,1v1l-1,1l1,1l-1,1h-1v1l2,1h-2l-1,1v1l-1,1v6l1,1l-1,1l-2,1v1h1l1,1l-1,1h-1l-1,-1v4l-1,2l2,1l-1,1v2l-1,1v-1h-1v1l-1,1v-1h-1v1h1v2h-1v1h2v1h-1v1h1l-1,2v-1h-2l1,-1h-1v2l-1,1v1h-2l1,1v2h1v-1v1h-2v-1h-1v3h-2v2h-1l1,1v1l1,1h-1v2l1,-1v-1l1,1h-1v2h-1l1,1h-2v1h2l-1,1h-1l1,1v-1h1v1h-1v2h-1v-1h-1v2h-1v1h2v3h-1l-1,1h2v1h-1h1v1h-1l-1,1v1h1v-1h1v1h-1l-5,1h-24l-13,-4l-14,-1l-19,-5h-1l1,3v3l1,1v6l1,1v4l-1,3v3l1,21h-18l-9,-2l1,-8l-3,-2l-4,-7l-7,-4l-2,-5l-4,3l2,16h-5v6l-10,-2v-63h-13l-2,-5l-9,2l-16,-9l-11,-1l-2,3l-6,-2l-12,3l-2,6l-4,-2l-8,5v-4l-1,-4l-9,2l-8,4v10l-7,6l-4,-2l1,-11h-9v7l-9,8l-1,8l-4,1v12l-4,-2l-3,-11l-3,-8l-5,-1l-12,5v-1v1v-1l-7,-1l-12,3l-5,-4v-4l8,-3l6,-15l-2,-10l-5,-4h-11v4l8,1l2,11h-14l-5,-2v-9l3,-9l-3,-8l1,-4l-2,-4l-15,-1l-9,10v22l-2,3l1,7l6,6l3,11l4,6l-1,17l-3,5v11l4,6l-4,6l3,10h3l8,12h-25l-7,-4l-13,3l-1,-3l-1,1v3l-8,-3l-14,-9l-8,3l1,-16v-6l1,-2v-3l7,-2l7,2l8,-2l-1,-5l-7,-3v-4h5l-5,-8l8,-1l-7,-4l-1,-10l-3,-5l-8,-4l6,-2l-2,-7h5v-6h-38v-9l-8,-9v-7l-9,1l1,-3l-10,-4l-19,9v8l-4,3l-1,1h-1l-2,-1h-2l-1,-1h-1l-1,1h-8l-22,-1l-1,2h-18v-25h-1v-52l-8,-8v-6l-10,-1Z"/><path data-race-id="LA06" d="M436,453l15,1l2,4l-1,4l3,8l-3,9v9l5,2h14l-2,-11l-8,-1v-4h11l5,4l2,10l-6,15l-8,3v4l5,4l12,-3l7,1v1v-1v1l12,-5l5,1l3,8l3,11l4,2v-12l4,-1l1,-8l9,-8v-7h9l-1,11l4,2l7,-6v-10l8,-4l9,-2l1,4v4l8,-5l4,2l2,-6l12,-3l6,2l2,-3l11,1l16,9l9,-2l2,5h13v72l3,2l3,10l6,8v6l5,1l-2,6v11l21,-1l3,-3l12,1l24,11l1,10l-19,6l-3,16v26h-6l-2,7l-8,-1l-6,-4l4,-7l-16,-1l-1,-8l-2,-9l3,-3l-4,-3v6l-4,-2l1,-5l-8,-1v-8l-1,-4h-2l-1,-1h-1l-4,-5h-1v-2h1l-7,-3l-2,12l-21,5l-29,6l-5,-7l-1,-5l6,-3l2,-6l-3,-4l-18,-2l-3,7l-4,-1l6,-22l-21,-1l-10,-5h-9l8,-16l5,-3l2,-4l12,1l-3,-6l4,-5l-9,-5l-2,-10h-4l1,-8h-7l-3,11l2,8l2,2v11h4l-4,5v-3l-5,-3l-3,3l5,3l-3,10l-9,-2l4,5h-5v6l-5,5l-2,-5l2,12l-2,5l7,4l8,-3l10,-3l-3,8l-5,1l-2,6l-8,4l1,11h15v-7h11l9,6l-3,7v10h3v12l-6,-2l-5,3l2,10l7,-2l12,1l10,-1l7,8l-6,5l2,8l7,6l3,-9h5v-6l18,-1v-3l11,2l2,3l5,-1l6,2l19,-1l5,2l5,5l6,13l-11,12l3,7l-2,7l-12,-7l-5,1v-6h-16l-3,-3v6l3,1l-2,11l4,5l-5,7l-5,3l-6,-1v14l-8,18l-31,-4l-14,-3l-7,7h-7l-2,3l-11,4l-1,-3l-1,-1h-3l-2,-2h-1l-1,-3v-17l5,-2l1,-1l1,-2v-1l1,-3v-1l6,-5l5,4l3,-4l11,-3l-5,-4l1,-12l-1,-8h3l-1,-15l-6,-5l-9,-2l-4,-4l-1,-8l-5,-3l-4,-12l-1,-6h4l2,-6l-7,-6h-19l-4,-10h-13l-1,-16l-4,-4l2,-8l-16,-2l-11,-14v-9l-4,-3l4,-4l-3,-12l-11,-12h-10l4,-6l-4,-6v-11l3,-5l1,-17l-4,-6l-3,-11l-6,-6l-1,-7l2,-3v-22Z"/>  <path class="mesh" d="M825,634l-6,-2l-5,-2l-8,3v-1l-1,-1v-1h-1l-1,1v1l1,2l-1,1v1h-1l-1,1l-1,1v1l-5,6l-8,1l-3,-5l-2,-4l1,-1v-2l-2,2h-2l-12,15l-11,8l-3,-2l-7,3h-1l-3,8l-2,5l-5,-1v1l-1,1v1l-1,2h-1h5l-2,9l-3,-2v-6l-4,-1l-6,7h-4l-6,-19l-6,1v-17l3,-16l19,-6l-1,-10l-24,-11l-12,-1l-3,3l-21,1v-11l2,-6l-5,-1v-6l-6,-8l-3,-10l-3,-2v-9l10,2v-6h5l-2,-16l4,-3l2,5l7,4l4,7l3,2l-1,8l9,2h18l-1,-21v-3l1,-3v-4l-1,-1v-6l-1,-1v-3l-1,-3h1l19,5l14,1l13,4h24l5,-1M72,579h27l20,1v-18h19l-1,18l13,1h33v-5h13v-2h43l10,1v-12l27,1l-1,1l25,1h46v10h12v7l11,-1l3,14l-8,3l-3,-3l3,9l10,-8v-5l6,-4l3,3l10,-1l1,-8l8,3v-3l1,-1l1,3l13,-3l7,4h25l-8,-12h-3l-3,-10h10l11,12l3,12l-4,4l4,3v9l11,14l16,2l-2,8l4,4l1,16h13l4,10h19l7,6l-2,6h-4l1,6l4,12l5,3l1,8l4,4l9,2l6,5l1,15h-3l1,8l-1,12l5,4l-11,3l-3,4l-5,-4l-6,5M672,710l7,6l10,2l3,6v7l3,2h21l5,-13l3,-6l2,-10l1,-3l11,-3l2,7l-4,6l8,5l1,-13l8,-5l3,-8l6,-3l8,3l4,5l2,-5l-6,-7l-5,1l-9,-5l3,-9h12l12,-4M535,792l11,-4l2,-3h7l7,-7l14,3l31,4l8,-18v-14l6,1l5,-3l5,-7l-4,-5l2,-11l-3,-1v-6l3,3h16v6l5,-1l12,7l2,-7l-3,-7l11,-12l-6,-13l-5,-5l-5,-2l-19,1l-6,-2l-5,1l-2,-3l-11,-2v3l-18,1v6h-5l-3,9l-7,-6l-2,-8l6,-5l-7,-8l-10,1l-12,-1l-7,2l-2,-10l5,-3l6,2v-12h-3v-10l3,-7l-9,-6h-11v7h-15l-1,-11l8,-4l2,-6l5,-1l3,-8l-10,3l-8,3l-7,-4l2,-5l-2,-12l2,5l5,-5v-6h5l-4,-5l9,2l3,-10l-5,-3l3,-3l5,3v3l4,-5h-4v-11l-2,-2l-2,-8l3,-11h7l-1,8h4l2,10l9,5l-4,5l3,6l-12,-1l-2,4l-5,3l-8,16h9l10,5l21,1l-6,22l4,1l3,-7l18,2l3,4l-2,6l-6,3l1,5l5,7l29,-6l21,-5l2,-12l7,3h-1v2h1l4,5h1l1,1h2l1,4v8l8,1l-1,5l4,2v-6l4,3l-3,3l2,9l1,8l16,1l-4,7l6,4l8,1l2,-7h6v-9M381,30l-2,5l-1,24l5,5l-2,26l-6,9l-22,16l-5,5h-30v-19h-18v-11h-5l-3,-6l-11,-2h-36v9l-4,3v1h-1l-2,1v7l1,3v1l-1,3v4l-2,4v26l-1,2h19v47l-1,1l-4,4v6l-4,4l1,3h-23l1,1l1,2l-1,1h1v1l1,2l1,1v1l1,1l1,2l1,1l1,7v3l1,1l1,3v1l-2,6l2,7l-4,15l1,6h-9l-1,15l-3,4l-1,12l2,7h6l5,3l-2,8l9,2l3,3l8,1l2,5l12,13l-10,7l-7,8l-10,5l-3,6h-5v5h-7v4h-5l8,5l10,1v6l8,8v52h1v25h18l1,-2l22,1h8l1,-1h1l1,1h2l2,1h1l1,-1l4,-3v-8l19,-9l10,4l-1,3l9,-1v7l8,9v9h38v6h-5l2,7l-6,2l8,4l3,5l1,10l7,4l-8,1l5,8h-5v4l7,3l1,5l-8,2l-7,-2l-7,2v3l-1,2v6l-1,16l8,-3l14,9M652,556v-63h-13l-2,-5l-9,2l-16,-9l-11,-1l-2,3l-6,-2l-12,3l-2,6l-4,-2l-8,5v-4l-1,-4l-9,2l-8,4v10l-7,6l-4,-2l1,-11h-9v7l-9,8l-1,8l-4,1v12l-4,-2l-3,-11l-3,-8l-5,-1l-12,5v-1l-7,-1l-12,3l-5,-4v-4l8,-3l6,-15l-2,-10l-5,-4h-11v4l8,1l2,11h-14l-5,-2v-9l3,-9l-3,-8l1,-4l-2,-4l-15,-1l-9,10v22l-2,3l1,7l6,6l3,11l4,6l-1,17l-3,5v11l4,6l-4,6"/><g class="cities"><circle r="7" cx="744" cy="677"/><text x="744" y="677">New Orleans</text><circle r="7" cx="546" cy="573"/><text x="546" y="573">Baton Rouge</text><circle r="7" cx="76" cy="133"/><text x="76" y="133">Shreveport</text></g></svg>