<svg version="1.1" xmlns="http://www.w3.org/2000/svg" width="1000" height="916" viewBox="0 0 1000 916">
  <path d="M605 852
l -1 2
l -10 1
l -9 -9
l 6 -9
l 9 2
l 8 -8
l -7 -5
l -5 2
l -9 -7
l 6 1
l -1 -4
l -5 2
l 4 -9
l -9 -2
l -10 6
l 15 12
l -10 5
l -3 -3
l -8 10
l 1 -8
l -5 -1
l 3 11
h -8
l -7 -7
l 2 -8
l -3 -6
l 17 -4
l -2 -5
l 5 1
l 1 -4
l -10 -3
l -4 3
l 7 4
l 1 5
l -6 -1
l -5 3
l -3 -10
l -12 -6
l -5 -6
l 2 -5
l -1 -3
l -1 -1
h -3
l -2 -2
h -1
l -1 -3
v -17
l 5 -2
l 1 -3
l 1 -1
l 1 -3
v -1
h -4
v 7
l -5 2
l -2 7
l -5 4
l -8 1
l -1 -5
l -9 -2
l -5 1
l 4 -7
l -12 1
l -15 6
l 5 -6
l -6 -20
l -16 2
l 4 -6
v -18
l -18 1
l -2 -2
l -9 1
l -12 8
l -6 -1
l 4 -6
l -4 -1
l 5 -12
l 5 4
v -10
l -14 -1
l -3 4
l -11 -4
l -1 7
l -8 3
l -16 9
l -6 6
l 4 -10
l -4 -2
l -6 4
l -5 -1
l 2 7
l 8 6
l 9 -1
l -6 6
l 4 12
l 11 -1
l 4 -3
l 3 4
l -11 3
l 5 4
h -21
l -10 4
l -10 6
h -10
l -15 -4
l -23 -3
l -16 -3
l -17 -6
l -37 -17
l -21 -10
l -18 -7
l -18 -4
h -13
l -10 4
l -18 -3
l -18 1
l -5 2
l -33 3
l -18 10
l -5 -10
l -1 -1
l -1 -1
l -1 -3
v -1
l -2 -2
l -1 -1
l -4 -8
l 10 -8
h 1
v -1
h 1
l 2 -3
h 1
v -1
l 6 -8
l 1 -7
l 5 -9
l 1 -1
h 1
v -1
h 1
l 2 -2
l 3 -3
v -1
l 1 -1
v -1
l 3 -2
l 1 -4
l 1 1
v 2
h 1
l 1 -1
v -1
l -1 -1
h -2
l -3 -5
l 1 2
l 1 -1
v -1
l 1 -2
l 1 -1
v -1
h 1
l 1 -1
l -1 -1
v -1
h 1
v -3
h 1
v 1
h 1
l 1 -1
h -1
l -1 -3
h -1
v 1
h -1
v -1
l 1 -2
l 1 -2
v -1
h -2
l 1 -1
h -1
v -1
l -1 -1
v -1
l 1 1
l 1 -1
h -2
l -1 -1
h 1
v -2
l -1 1
v -2
l 1 -1
v -1
h 1
h -1
l 1 -1
v -1
h 1
l -1 -1
h 1
v -1
h -1
l 1 -1
h -1
l 1 -1
v -2
h -1
l 1 -1
h -1
h 1
h -1
v -1
h 1
l -1 -1
v 1
h 1
v -4
h -1
l -1 -1
h -2
v -1
h -2
v -1
h -1
v -2
h -1
v -2
h -1
v -2
h -1
v 1
l -1 -1
v -1
h 1
v -1
h -1
v -1
l 1 1
l -1 -1
l 1 -1
v -2
v 1
h 1
l 1 -1
h -1
l -1 -2
h 1
v 1
v -4
l -1 -1
h 1
h -1
l 1 -1
h 1
v -1
h 1
l 1 -1
l 1 -1
v -2
h 2
v -3
l 1 1
v 1
l 1 -1
v -1
h 2
v -1
l 1 -1
v -1
l -2 -1
h 1
v -1
h 1
v -1
l -1 -1
l -1 -1
v -2
l -1 -1
h 1
l -1 -2
v -1
h 1
v -1
h -1
l 1 -1
h 1
v -1
h -1
v -2
l -1 1
v -1
h -1
v -1
h -1
l -1 -1
v -2
h -1
v -1
h 2
l -1 -1
l 1 -1
l 1 -1
v -1
l -1 -1
v -1
l 1 -1
h 2
v -2
h 2
l 3 -1
l -1 2
l 1 -1
v -1
l 1 -1
v -1
h -1
v -8
l 1 -1
l 1 -1
v -2
l 1 -1
h 2
l 1 -2
h 3
l 1 -1
l 1 -1
v -2
l 1 -1
v -2
l 1 -1
v -2
h 1
v 1
h 1
l -1 -2
v 1
v -1
h 1
l -2 -1
h 2
l -1 -1
v -2
h 1
v -1
l -1 -1
v -2
v 1
h 1
v -1
h 2
l 1 -1
v -2
h 1
v -5
h 3
l 1 -2
v -2
h 1
v -2
l 1 -1
l -2 -1
v -2
l 1 -1
l -1 -2
l 1 -1
h -1
v -2
l -1 1
l -1 -1
v -3
h 1
v -1
l 1 -1
h 3
h -1
v -2
h -1
v -1
l 1 -1
v -1
h 1
v -1
h 1
v 2
l 1 -1
h 1
l 1 -1
v -3
h -1
v -3
h 1
h -1
v -1
l -2 1
v -1
h -1
v -1
h -1
l -1 -1
l -1 1
l -2 -1
l 1 -1
l 1 -1
v -3
h -2
v -2
h 1
v -2
h 1
v 1
h 5
v -1
l 1 -1
l 1 -1
h 2
l 1 -1
h 1
v -1
h -2
v -1
h -1
v -1
h 1
v -1
h -1
l -1 -1
v -1
h 2
v -2
h -1
l -1 -1
h 1
v -1
h -2
v -1
h -3
v -2
h 1
h -3
v -1
l 1 -1
h 2
v -3
l 2 -2
v -1
l -1 -1
v -1
l -1 -2
v -2
h 2
v -1
l -1 -1
v -2
h 2
v -2
h -6
l -1 1
h -1
v 2
h -2
v 1
h -1
v -2
l -1 -1
v -5
l -1 -2
h 1
v -1
l 1 -1
v -2
h -2
l -1 -1
l -1 -1
v -2
h 1
v -3
h -1
v -2
h -4
l -1 -2
l -1 -1
l -1 1
l -2 -4
h -1
v -1
h -2
v -2
l 1 -2
h 1
v -3
l 1 -1
l 4 -4
l 1 -2
l 1 -1
h -2
v 1
h -3
l -1 1
v -6
l -1 -1
v -1
h -1
v 1
l -2 -2
h -2
v -1
l 2 -6
h -2
v -4
v 1
h -4
l -1 -1
l -1 -1
l -1 -1
h -1
v -3
l 1 -1
h 3
v -1
l 1 -1
v -1
h 1
l 1 -1
v -1
h 1
l -1 -1
h -5
l -1 -1
h 1
v -2
h -1
v -1
h -1
v 1
h -1
l -1 1
h -1
l -2 -1
h -1
l -1 -1
h -2
v -1
h -1
l -1 -3
h -1
l -1 -6
h -1
v -1
l -1 -1
l 3 -6
v -1
h -1
h 1
v -4
l 1 -2
v -1
l -1 -1
h -1
l 1 -3
v 1
h 1
v -3
h 1
l 1 -1
l 2 -3
v -1
h -1
l -1 1
h -1
l -1 -1
v -5
h -1
v -1
l -1 -3
h -1
v -1
l 2 -1
v -2
l -1 -2
v -1
h -1
v -1
l -1 -3
l -1 -1
v 1
l -1 -1
v -1
h -1
v -1
h -3
h 1
v -1
h -1
v -5
h -1
v -1
h -1
l 1 -1
v -1
h -1
l 1 -3
h -2
v -2
h -2
l 1 -1
v -2
l -1 -1
v 1
h -3
v 1
v -1
v 1
l -1 1
v -2
h -1
l 1 -3
v -1
h -4
l -1 -1
v -1
h -1
v -1
l -1 1
h -1
l -1 -3
l -1 -1
l -1 -2
l -1 -1
l -1 -2
v -1
l -1 -1
l -1 -1
h -1
v -4
h -1
v 1
l -1 -1
v -1
h -1
l -1 1
v -61
h 1
v -42
l 1 -1
v -36
l 1 -7
v -24
l 1 -13
v -34
h 6
l 27 1
h 10
l 19 1
h 31
l 2 1
h 36
l 13 1
h 20
l 24 1
h 26
l 21 1
h 20
l 14 1
h 64
l 19 1
h 88
l 21 1
h 50
l 1 3
l -1 1
l -2 1
v 1
l -2 2
l -1 1
l 1 2
h -1
l -2 3
v 3
l 1 2
l 2 2
l 4 1
h 3
l 3 -1
l 2 -3
v -2
l -1 -5
v -1
h 1
v -2
l -1 -2
h 1
v -2
h 7
l 2 5
v 2
l -1 1
h 1
v 1
l 3 5
v 2
l -4 8
l -3 3
h -3
l -4 6
l -2 10
v 1
l 2 8
l 10 1
l 3 1
l 2 4
l -2 5
l -11 5
l -3 4
l 2 11
h 1
v 2
h 2
l 1 -1
h 1
l 1 -1
l 4 -1
l 6 -3
l 2 -3
v -2
l 1 -1
l 1 -1
l 4 4
l -1 5
l -1 1
l -2 2
l -1 2
l -2 1
l -5 2
l -2 2
l 1 2
l 5 3
l 8 5
l 3 4
l -3 2
l -6 -2
l -2 -2
l -3 -4
l -1 -2
l -1 -1
l -3 -3
l -1 1
l -3 8
v 6
l 4 4
l 3 2
l 1 1
l 3 1
l 5 1
v -1
l 1 -1
h 2
l 1 -1
h 4
l 2 1
l 1 2
v 2
l -3 3
h -1
l -1 1
l -2 5
v 5
l 4 2
l 12 2
l 2 -2
l 1 -2
l 1 -2
v 5
l -1 1
v 1
h -1
v 2
l -1 2
l -2 4
l -6 3
l -2 -3
h -2
l -1 3
v 3
l 1 2
l 1 2
l -2 7
l -3 6
l -1 -1
l -3 -9
l -2 -1
h -2
l -2 4
l -1 1
l -2 -2
h -1
l -2 1
l -2 1
l -2 2
h -1
l -2 -1
l -1 -1
v 1
l -4 2
l -1 1
l -1 1
l -1 4
l 3 9
l 2 1
l 2 1
h 3
l 9 -1
l 2 1
h 1
v -7
l -1 -5
l 5 4
h 4
l -1 6
h -1
v 1
l -2 1
v 3
l -1 2
l -2 1
l -6 3
h -1
v 1
l 1 5
l -3 1
h -1
l -5 -5
l -1 -2
h -1
l -2 1
l -2 1
v 2
l 1 1
l 1 2
h 2
l 6 2
l 5 3
v 3
l -2 2
l -1 1
l -3 1
h -1
l -3 1
l -5 1
h -1
l -2 3
l -2 1
v 3
l -1 3
h 2
v 4
l -2 1
v 1
h -2
l -1 2
l -4 3
l -1 2
l -1 1
h -3
l -1 2
v 2
l 3 3
h 1
v 3
l -1 1
l -3 2
h -1
l -3 -7
v -3
l -1 -1
h -1
l -2 1
h -3
l -2 1
l -2 2
v 5
l -2 7
v 5
l 1 1
l 4 -1
l 2 -1
l 4 -1
l 3 -1
h 2
l 3 2
v 1
l -4 4
h -2
l -2 -1
h -12
l -2 2
v 1
l -3 5
l -1 4
l 1 10
l -1 4
v 1
l -1 1
h -6
l -4 -1
l -1 -1
l -3 -2
l -2 -3
h -1
l -2 3
l -1 1
v 4
l 1 1
l 2 2
l 1 1
l 1 1
h 1
l 1 1
h 1
l 3 -1
l 3 -2
l 6 1
v 4
l -10 8
l -3 1
l -1 -1
h -1
l -4 1
h -1
l -1 2
v 1
l 1 1
v 13
l 1 2
v 1
l 4 5
l 2 2
l 1 2
l -1 6
h -5
l -5 -6
l -1 -3
v -4
l -1 -1
h -2
v 1
l -2 1
l -1 1
v 1
l -1 2
v 1
l 1 2
l 1 2
v -1
h 3
v 2
l -1 2
l 1 4
l 3 2
v 2
h 1
l 2 1
l 1 1
l 1 1
l -1 4
l -1 4
l -3 2
h -3
l -3 1
h -1
l -3 -1
h -10
l -2 1
v 4
l 2 2
l 3 1
l 4 3
l 2 3
l 1 2
v 3
l -1 1
l -1 2
l -2 3
l -1 1
v 1
l -2 1
v 4
l 2 2
l 3 2
l 2 2
l 4 3
v 6
l -1 3
l -2 2
l -4 2
l -3 1
h -1
l -2 1
h 14
l 30 1
h 14
l 26 -1
h 122
l 28 -1
h 30
l 34 -1
h 47
l 1 -1
v 1
l 1 1
v 1
l -1 1
l 1 1
l -1 1
h -1
v 1
l 2 1
h -2
l -1 1
v 1
l -1 1
v 6
l 1 1
l -1 1
l -2 1
v 1
h 1
l 1 1
l -1 1
h -1
l -1 -1
v 4
l -1 2
l 2 1
l -1 1
v 2
l -1 1
v -1
h -1
v 1
l -1 1
v -1
h -1
v 1
h 1
v 2
h -1
v 1
h 2
v 1
h -1
v 1
h 1
l -1 2
v -1
h -2
l 1 -1
h -1
v 2
l -1 1
v 1
h -2
l 1 1
v 2
h 1
v -1
v 1
h -2
v -1
h -1
v 3
h -2
v 2
h -1
l 1 1
v 1
l 1 1
h -1
v 2
l 1 -1
v -1
l 1 1
h -1
v 2
h -1
l 1 1
h -2
v 1
h 2
l -1 1
h -1
l 1 1
v -1
h 1
v 1
h -1
v 2
h -1
v -1
h -1
v 2
h -1
v 1
h 2
v 3
h -1
l -1 1
h 2
v 1
h -1
h 1
v 1
h -1
l -1 1
v 1
h 1
v -1
h 1
v 1
h -1
l -1 1
h -1
v 1
h 2
v 1
h 1
l 1 -1
v 1
h 1
l 1 1
v 2
h 1
v 1
h -1
v 3
h -2
h 2
v 3
l 1 1
v 2
h 1
v 1
h 1
h -1
v 1
l 1 1
v 2
h 3
h -1
v 1
h 1
v -1
h 1
l -1 1
l -1 1
v -1
h -1
v 2
h 2
l -1 1
l 1 1
h 3
v 1
l 1 1
h -1
v 1
h 1
v 1
h 1
h -1
v 1
h 1
v 1
h 1
v -1
v 2
h 1
l -1 1
h 1
v 1
h -1
v 1
l 1 -1
h 1
v 1
h 1
v 1
h -1
h 1
v -1
l 1 1
h 3
v 2
h 1
v 1
h 1
l 1 1
v 1
l 1 1
l 1 1
h 2
v 1
l 1 2
h -1
v 2
h 1
v 5
v -1
l -1 1
v 1
h 1
v 2
h 1
l 1 2
v 1
l 1 2
h 1
v 3
l 2 2
h 1
l 1 1
v 1
l 1 1
v 4
h 1
l -1 1
v 1
h -2
v 3
h -1
l 1 1
h 1
l 1 1
v 2
l 1 1
v 1
h -1
l 3 8
v 1
l 1 1
h 2
l 2 3
l 1 1
v 1
l 1 1
v 1
h 1
l 1 1
h 1
v -1
h 2
v -2
h 1
l 1 -1
h 1
l 1 1
v 1
l 1 1
v 1
h -6
l -5 6
l -7 -1
l -1 1
l -3 3
v 1
h -1
v 2
h -1
v 1
h -1
v 2
h -3
v 7
h -2
v 1
h -4
v 1
h -2
v 1
h -1
v 2
h -1
v 1
h 1
v 1
h 1
v 2
l 1 1
v 1
l -2 1
h -1
v -1
h -1
v -1
h -1
v -1
h -1
v -1
h -2
v -1
h -10
l -1 1
l -2 2
v 1
h -1
v 1
h -1
v 1
h -1
v 2
h -2
v 1
l 3 11
l 5 4
l 19 -4
l -6 3
v 6
l 8 7
l 8 3
l 9 -2
l 4 -4
v -7
l 4 -9
l -2 -6
l 4 -2
l 12 -9
l 1 -7
l 8 3
l -2 14
l -4 1
l 4 7
l 5 -4
l 6 6
l -6 1
l -4 6
l 9 6
v -4
l 4 -3
l 1 6
l 9 3
l -18 13
h 6
l 8 5
h -9
l -3 5
l -5 -4
l 1 -4
l -5 -4
l -2 6
l 5 9
l -5 4
l 9 7
l -6 3
l -5 -8
h -3
l -5 -7
l -6 5
l -5 -3
h -12
v 8
l 20 12
l -2 -1
h -12
l -4 -5
l -5 4
l 5 3
l -1 5
l -16 5
l 12 14
l -3 2
l 23 12
l 6 6
l -6 1
v 10
l 11 2
l 7 -5
l 8 2
l 2 4
l 6 -3
l -2 9
l 7 1
l 14 -2
l 5 2
l -1 6
l 6 1
l 6 -7
l 6 6
l -2 2
l 7 4
l 3 6
l -4 4
l 5 3
l -2 4
l 7 3
l -3 9
l 11 6
l -3 5
l -3 -5
h -7
v 9
h -5
l -4 6
l 2 7
l -9 -5
l -3 -8
l -7 -8
l -1 2
l 1 10
l -4 2
l -13 13
l -7 12
h -4
l 2 -6
l 20 -27
l -2 -6
l 5 -2
v -12
l -6 -7
l -6 5
v 11
l -3 1
l 2 -16
l -4 9
l -2 -11
l -7 8
h -6
l -12 -14
l -3 4
l -14 -4
l 9 -1
l 6 3
l 1 -3
l 8 -1
l -1 -10
l -9 -8
l -5 1
l -10 -2
l 2 -4
l -4 -6
l -18 2
l -4 -3
l -9 4
v -6
l -9 4
l 4 -4
l -6 -1
l 1 -7
l 4 -2
l -6 -3
l -5 6
l -1 -8
l -7 -4
l -4 10
h -7
l -7 -9
l -4 2
l -16 -12
l -5 3
l -5 -5
l 8 -3
l 4 -7
l -1 -14
l -4 2
l -3 -5
l -4 1
l -1 13
l 4 10
l -8 1
l -4 11
l 8 9
l 6 -1
l 2 5
l 18 1
l -1 4
l -1 11
h 5
l -2 5
l -6 3
l 4 4
l 7 7
l -9 -4
l -4 2
l 2 -6
l -4 2
l -4 -4
l 5 11
l -4 3
l 3 8
l 6 5
l -1 6
l -4 3
v 1
l -16 13
l -12 3
l 2 -8
l -6 -3
l 3 -1
l -10 -20
v -4
l -6 -2
l 2 -4
l -5 -7
l -6 7
l 2 5
l -2 6
l -5 3
v -4
l 1 -3
v -12
l -4 -2
l -1 -6
l -6 3
l 2 4
l -9 6
l 1 -12
l -5 -2
l 1 9
l 2 -4
v 8
l -4 -2
v 5
l -8 -2
l 5 -2
l -11 -2
l 2 13
l 2 1
l 3 4
l -9 -5
v 8
l -4 -3
l -4 -3
l 2 11
l -3 -2
l -5 7
v 7
h -4
l -5 -2
v 5
l -8 3
l 1 -7
l -7 4
v -6
Z
M878 710
l 2 1
l 8 -3
l 1 8
Z
M889 649
l -1 -3
l 8 -7
l 3 12
l 5 1
l -7 6
l 1 -5
l -15 -2
Z
M812 799
l 3 2
l 9 -2
l 5 6
l -10 8
l -7 1
l -18 -2
l 8 -5
Z
M790 810
l 2 -8
l 5 4
Z
M744 771
l 12 7
l -11 -3
l -4 5
l -3 -8
Z
M607 853
l -1 6
h -9
Z
M590 834
l -2 6
l -4 4
l -4 -3
l 4 -6
Z
M576 833
l 7 5
l -5 7
l -8 -1
v -5
h 6
l -5 -4
l 2 -6
Z
M511 814
v 1
h 1
v 1
l 1 -1
v 1
h 5
v -1
h 2
l 1 -1
v -2
h 2
v -2
l 1 -3
v -2
l 3 -1
l 1 -1
h 1
l 5 10
l 5 4
l 6 -5
l -2 11
h -7
l 3 3
l 4 -2
v 7
l 6 -4
l 1 7
h -13
l -16 -7
l -10 -10
Z
M409 746
l 10 1
l 3 5
l 8 2
l 2 4
h 6
l 6 4
l -12 7
v 8
l -10 3
l -6 -5
l -5 -1
l -26 -13
l 6 -10
h 10
l 1 -5
Z"/>
<g class="districts">
<path data-race-id="LA01" d="M511 814
v 1
h 1
v 1
h 1
v -1
v 1
h 5
l 1 -1
h 1
l 1 -1
v -2
h 2
v -2
l 1 -3
v -2
l 3 -1
l 1 -1
h 1
l 5 10
l 5 4
l 6 -5
l -2 11
h -7
l 3 3
l 4 -2
v 7
l 6 -4
l 1 7
h -13
l -16 -7
l -10 -10
Z
M535 792
l 11 -4
l 2 -3
h 7
l 7 -7
l 14 3
l 31 4
l 8 -18
v -14
l 6 1
l 5 -3
l 5 -7
l -4 -5
l 2 -11
l -3 -1
v -6
l 3 3
h 16
v 6
l 5 -1
l 12 7
l 2 -7
l -3 -7
l 11 -12
l 7 6
l 10 2
l 3 6
v 7
l 3 2
h 21
l 5 -13
l 3 -6
l 2 -10
l 1 -3
l 11 -3
l 2 7
l -4 6
l 8 5
l 1 -13
l 8 -5
l 3 -8
l 6 -3
l 8 3
l 4 5
l 2 -5
l -6 -7
l -5 1
l -9 -5
l 3 -9
h 12
l 12 -4
l 3 11
l 5 4
l 19 -4
l -6 3
v 6
l 8 7
l 8 3
l 9 -2
l 4 -4
v -7
l 4 -9
l -2 -6
l 4 -2
l 12 -9
l 1 -7
l 8 3
l -2 14
l -4 1
l 4 7
l 5 -4
l 6 6
l -6 1
l -4 6
l 9 6
v -4
l 4 -3
l 1 6
l 9 3
l -18 13
h 6
l 8 5
h -9
l -3 5
l -5 -4
l 1 -4
l -5 -4
l -2 6
l 5 9
l -5 4
l 9 7
l -6 3
l -5 -8
h -3
l -5 -7
l -6 5
l -5 -3
h -12
v 8
l 20 12
l -2 -1
h -12
l -4 -5
l -5 4
l 5 3
l -1 5
l -16 5
l 12 14
l -3 2
l 23 12
l 6 6
l -6 1
v 10
l 11 2
l 7 -5
l 8 2
l 2 4
l 6 -3
l -2 9
l 7 1
l 14 -2
l 5 2
l -1 6
l 6 1
l 6 -7
l 6 6
l -2 2
l 7 4
l 3 6
l -4 4
l 5 3
l -2 4
l 7 3
l -3 9
l 11 6
l -3 5
l -3 -5
h -7
v 9
h -5
l -4 6
l 2 7
l -9 -5
l -3 -8
l -7 -8
l -1 2
l 1 10
l -4 2
l -13 13
l -7 12
h -4
l 2 -6
l 20 -27
l -2 -6
l 5 -2
v -12
l -6 -7
l -6 5
v 11
l -3 1
l 2 -16
l -4 9
l -2 -11
l -7 8
h -6
l -12 -14
l -3 4
l -14 -4
l 9 -1
l 6 3
l 1 -3
l 8 -1
l -1 -10
l -9 -8
l -5 1
l -10 -2
l 2 -4
l -4 -6
l -18 2
l -4 -3
l -9 4
v -6
l -9 4
l 4 -4
l -6 -1
l 1 -7
l 4 -2
l -6 -3
l -5 6
l -1 -8
l -7 -4
l -4 10
h -7
l -7 -9
l -4 2
l -16 -12
l -5 3
l -5 -5
l 8 -3
l 4 -7
l -1 -14
l -4 2
l -3 -5
l -4 1
l -1 13
l 4 10
l -8 1
l -4 11
l 8 9
l 6 -1
l 2 5
l 18 1
l -1 4
l -1 11
h 5
l -2 5
l -6 3
l 4 4
l 7 7
l -9 -4
l -4 2
l 2 -6
l -4 2
l -4 -4
l 5 11
l -4 3
l 3 8
l 6 5
l -1 6
l -4 3
v 1
l -16 13
l -12 3
l 2 -8
l -6 -3
l 3 -1
l -10 -20
v -4
l -6 -2
l 2 -4
l -5 -7
l -6 7
l 2 5
l -2 6
l -5 3
v -4
l 1 -3
v -12
l -4 -2
l -1 -6
l -6 3
l 2 4
l -9 6
l 1 -12
l -5 -2
l 1 9
l 2 -4
v 8
l -4 -2
v 5
l -8 -2
l 5 -2
l -11 -2
l 2 13
l 2 1
l 3 4
l -9 -5
v 8
l -4 -3
l -4 -3
l 2 11
l -3 -2
l -5 7
v 7
h -4
l -5 -2
v 5
l -8 3
l 1 -7
l -7 4
v -6
l -4 2
l -1 2
l -10 1
l -9 -9
l 6 -9
l 9 2
l 8 -8
l -7 -5
l -5 2
l -9 -7
l 6 1
l -1 -4
l -5 2
l 4 -9
l -9 -2
l -10 6
l 15 12
l -10 5
l -3 -3
l -8 10
l 1 -8
l -5 -1
l 3 11
h -8
l -7 -7
l 2 -8
l -3 -6
l 17 -4
l -2 -5
l 5 1
l 1 -4
l -10 -3
l -4 3
l 7 4
l 1 5
l -6 -1
l -5 3
l -3 -10
l -12 -6
l -5 -6
Z
M825 634
l -6 -2
l -5 -2
l -8 3
v -1
v 1
v -1
l -1 -1
v -1
h -1
l -1 1
v 1
l 1 2
l -1 1
v 1
h -1
l -1 1
l -1 1
v 1
l -5 6
l -8 1
l -3 -5
l -2 -4
l 1 -1
v -2
l -2 2
h -2
l -12 15
l -11 8
l -3 -2
l -7 3
h -1
l -3 8
l -2 5
l -5 -1
v 1
l -1 1
v 1
l -1 2
h -1
h 5
l -2 9
l -3 -2
v -6
l -4 -1
l -6 7
h -4
l -6 -19
l -6 1
v -17
l 3 -16
l 19 -6
l -1 -10
l -24 -11
l -12 -1
l -3 3
l -21 1
v -11
l 2 -6
l -5 -1
v -6
l -6 -8
l -3 -10
l -3 -2
v -9
l 10 2
v -6
h 5
l -2 -16
l 4 -3
l 2 5
l 7 4
l 4 7
l 3 2
l -1 8
l 9 2
h 18
l -1 -21
v -3
l 1 -3
v -4
l -1 -1
v -6
l -1 -1
v -3
l -1 -3
h 1
l 19 5
l 14 1
l 13 4
h 24
l 5 -1
l -1 1
h -1
v 1
h 2
v 1
h 1
l 1 -1
v 1
h 1
l 1 1
v 2
h 1
v 1
h -1
v 3
h -2
h 2
v 3
l 1 1
v 2
h 1
v 1
h 1
h -1
v 1
l 1 1
v 2
h 3
h -1
v 1
h 1
v -1
h 1
l -1 1
l -1 1
v -1
h -1
v 2
h 2
l -1 1
l 1 1
h 3
v 1
l 1 1
h -1
v 1
h 1
v 1
h 1
h -1
v 1
h 1
v 1
h 1
v -1
v 2
h 1
l -1 1
h 1
v 1
h -1
v 1
l 1 -1
h 1
v 1
h 1
v 1
h -1
h 1
v -1
l 1 1
h 3
v 2
h 1
v 1
h 1
l 1 1
v 1
l 1 1
l 1 1
h 2
v 1
l 1 2
h -1
v 2
h 1
v 5
v -1
l -1 1
v 1
h 1
v 2
h 1
l 1 2
v 1
l 1 2
h 1
v 3
l 2 2
h 1
l 1 1
v 1
l 1 1
v 4
h 1
l -1 1
v 1
h -2
v 3
h -1
l 1 1
h 1
l 1 1
v 2
l 1 1
v 1
h -1
l 3 8
v 1
l 1 1
h 2
l 2 3
l 1 1
v 1
l 1 1
v 1
h 1
l 1 1
h 1
v -1
h 2
v -2
h 1
l 1 -1
h 1
l 1 1
v 1
l 1 1
v 1
h -6
l -5 6
l -7 -1
Z
M878 710
l 2 1
l 8 -3
l 1 8
Z
M889 649
l -1 -3
l 8 -7
l 3 12
l 5 1
l -7 6
l 1 -5
l -15 -2
Z
M812 799
l 3 2
l 9 -2
l 5 6
l -10 8
l -7 1
l -18 -2
l 8 -5
Z
M790 810
l 2 -8
l 5 4
Z
M744 771
l 12 7
l -11 -3
l -4 5
l -3 -8
Z
M607 853
l -1 6
h -9
Z
M590 834
l -2 6
l -4 4
l -4 -3
l 4 -6
Z
M576 833
l 7 5
l -5 7
l -8 -1
v -5
h 6
l -5 -4
l 2 -6
Z"/>
<path data-race-id="LA02" d="M514 595
l 2 5
l 5 -5
v -6
h 5
l -4 -5
l 9 2
l 3 -10
l -5 -3
l 3 -3
l 5 3
v 3
l 4 -5
h -4
v -11
l -2 -2
l -2 -8
l 3 -11
h 7
l -1 8
h 4
l 2 10
l 9 5
l -4 5
l 3 6
l -12 -1
l -2 4
l -5 3
l -8 16
h 9
l 10 5
l 21 1
l -6 22
l 4 1
l 3 -7
l 18 2
l 3 4
l -2 6
l -6 3
l 1 5
l 5 7
l 29 -6
l 21 -5
l 2 -12
l 7 3
h -1
v 2
h 1
l 4 5
h 1
l 1 1
h 2
l 1 4
v 8
l 8 1
l -1 5
l 4 2
v -6
l 4 3
l -3 3
l 2 9
l 1 8
l 16 1
l -4 7
l 6 4
l 8 1
l 2 -7
h 6
v -9
l 6 -1
l 6 19
h 4
l 6 -7
l 4 1
v 6
l 3 2
l 2 -9
h -5
h 1
l 1 -2
v -1
l 1 -1
v -1
l 5 1
l 2 -5
l 3 -8
h 1
l 7 -3
l 3 2
l 11 -8
l 12 -15
h 2
l 2 -2
v 2
l -1 1
l 2 4
l 3 5
l 8 -1
l 5 -6
v -1
l 1 -1
l 1 -1
h 1
v -1
l 1 -1
l -1 -2
v -1
l 1 -1
h 1
v 1
l 1 1
v 1
v -1
v 1
l 8 -3
l 5 2
l 6 2
l -3 3
v 1
h -1
v 2
h -1
v 1
h -1
v 2
h -3
v 7
h -2
v 1
h -4
v 1
h -2
v 1
h -1
v 2
h -1
v 1
h 1
v 1
h 1
v 2
l 1 1
v 1
l -2 1
h -1
v -1
h -1
v -1
h -1
v -1
h -1
v -1
h -2
v -1
h -10
l -1 1
l -2 2
v 1
h -1
v 1
h -1
v 1
h -1
v 2
h -2
v 1
l -12 4
h -12
l -3 9
l 9 5
l 5 -1
l 6 7
l -2 5
l -4 -5
l -8 -3
l -6 3
l -3 8
l -8 5
l -1 13
l -8 -5
l 4 -6
l -2 -7
l -11 3
l -1 3
l -2 10
l -3 6
l -5 13
h -21
l -3 -2
v -7
l -3 -6
l -10 -2
l -7 -6
l -6 -13
l -5 -5
l -5 -2
l -19 1
l -6 -2
l -5 1
l -2 -3
l -11 -2
v 3
l -18 1
v 6
h -5
l -3 9
l -7 -6
l -2 -8
l 6 -5
l -7 -8
l -10 1
l -12 -1
l -7 2
l -2 -10
l 5 -3
l 6 2
v -12
h -3
v -10
l 3 -7
l -9 -6
h -11
v 7
h -15
l -1 -11
l 8 -4
l 2 -6
l 5 -1
l 3 -8
l -10 3
l -8 3
l -7 -4
l 2 -5
Z"/>
<path data-race-id="LA03" d="M45 695
h 1
v -1
h 1
l 2 -3
h 1
v -1
l 6 -8
l 1 -7
l 5 -9
l 1 -1
h 1
v -1
h 1
l 2 -2
l 3 -3
v -1
l 1 -1
v -1
l 3 -2
l 1 -4
l 1 1
v 2
h 1
l 1 -1
v -1
l -1 -1
h -2
l -3 -5
l 1 2
l 1 -1
v -1
l 1 -2
l 1 -1
v -1
h 1
l 1 -1
l -1 -1
v -1
h 1
v -3
h 1
v 1
h 1
l 1 -1
h -1
l -1 -3
h -1
v 1
h -1
v -1
l 1 -2
l 1 -2
v -1
h -2
l 1 -1
h -1
v -1
l -1 -1
v -1
l 1 1
l 1 -1
h -2
l -1 -1
h 1
v -2
l -1 1
v -2
l 1 -1
v -1
h 1
h -1
l 1 -1
v -1
h 1
l -1 -1
h 1
v -1
h -1
l 1 -1
h -1
l 1 -1
v -2
h -1
l 1 -1
h -1
h 1
h -1
v -1
h 1
l -1 -1
v 1
h 1
v -4
h -1
l -1 -1
h -2
v -1
h -2
v -1
h -1
v -2
h -1
v -2
h -1
v -2
h -1
v 1
l -1 -1
v -1
h 1
v -1
h -1
v -1
l 1 1
l -1 -1
l 1 -1
v -2
v 1
h 1
l 1 -1
h -1
l -1 -2
h 1
v 1
v -4
l -1 -1
h 1
h -1
l 1 -1
h 1
v -1
h 1
l 1 -1
h 27
l 20 1
v -18
h 19
l -1 18
l 13 1
h 33
v -5
h 13
v -2
h 43
l 10 1
v -12
l 27 1
l -1 1
l 25 1
h 46
v 10
h 12
v 7
l 11 -1
l 3 14
l -8 3
l -3 -3
l 3 9
l 10 -8
v -5
l 6 -4
l 3 3
l 10 -1
l 1 -8
l 8 3
v -3
l 1 -1
l 1 3
l 13 -3
l 7 4
h 25
l -8 -12
h -3
l -3 -10
h 10
l 11 12
l 3 12
l -4 4
l 4 3
v 9
l 11 14
l 16 2
l -2 8
l 4 4
l 1 16
h 13
l 4 10
h 19
l 7 6
l -2 6
h -4
l 1 6
l 4 12
l 5 3
l 1 8
l 4 4
l 9 2
l 6 5
l 1 15
h -3
l 1 8
l -1 12
l 5 4
l -11 3
l -3 4
l -5 -4
l -6 5
h -4
v 7
l -5 2
l -2 7
l -5 4
l -8 1
l -1 -5
l -9 -2
l -5 1
l 4 -7
l -12 1
l -15 6
l 5 -6
l -6 -20
l -16 2
l 4 -6
v -18
l -18 1
l -2 -2
l -9 1
l -12 8
l -6 -1
l 4 -6
l -4 -1
l 5 -12
l 5 4
v -10
l -14 -1
l -3 4
l -11 -4
l -1 7
l -8 3
l -16 9
l -6 6
l 4 -10
l -4 -2
l -6 4
l -5 -1
l 2 7
l 8 6
l 9 -1
l -6 6
l 4 12
l 11 -1
l 4 -3
l 3 4
l -11 3
l 5 4
h -21
l -10 4
l -10 6
h -10
l -15 -4
l -23 -3
l -16 -3
l -17 -6
l -37 -17
l -21 -10
l -18 -7
l -18 -4
h -13
l -10 4
l -18 -3
l -18 1
l -5 2
l -33 3
l -18 10
l -5 -10
l -1 -1
l -1 -1
l -1 -3
v -1
l -2 -2
l -1 -1
l -4 -8
l 10 -8
Z
M409 746
l 10 1
l 3 5
l 8 2
l 2 4
h 6
l 6 4
l -12 7
v 8
l -10 3
l -6 -5
l -5 -1
l -26 -13
l 6 -10
h 10
l 1 -5
Z"/>
<path data-race-id="LA04" d="M27 122
v -22
l 1 -7
v -24
l 1 -13
v -34
h 6
l 27 1
h 10
l 19 1
h 31
l 2 1
h 36
l 13 1
h 20
l 24 1
h 26
l 21 1
h 20
l 14 1
h 64
l 19 1
l -2 5
l -1 24
l 5 5
l -2 26
l -6 9
l -22 16
l -5 5
h -30
v -19
h -18
v -11
h -5
l -3 -6
l -11 -2
h -36
v 9
l -4 3
v 1
h -1
l -2 1
v 7
l 1 3
v 1
l -1 3
v 4
l -2 4
v 26
l -1 2
h 19
v 47
l -1 1
l -4 4
v 6
l -4 4
l 1 3
h -23
l 1 1
l 1 2
l -1 1
h 1
v 1
l 1 2
l 1 1
v 1
l 1 1
l 1 2
l 1 1
l 1 7
v 3
l 1 1
l 1 3
v 1
l -2 6
l 2 7
l -4 15
l 1 6
h -9
l -1 15
l -3 4
l -1 12
l 2 7
h 6
l 5 3
l -2 8
l 9 2
l 3 3
l 8 1
l 2 5
l 12 13
l -10 7
l -7 8
l -10 5
l -3 6
h -5
v 5
h -7
v 4
h -5
l 8 5
l 10 1
v 6
l 8 8
v 52
h 1
v 25
h 18
l 1 -2
l 22 1
h 8
l 1 -1
h 1
l 1 1
h 2
l 2 1
h 1
l 1 -1
l 4 -3
v -8
l 19 -9
l 10 4
l -1 3
l 9 -1
v 7
l 8 9
v 9
h 38
v 6
h -5
l 2 7
l -6 2
l 8 4
l 3 5
l 1 10
l 7 4
l -8 1
l 5 8
h -5
v 4
l 7 3
l 1 5
l -8 2
l -7 -2
l -7 2
v 3
l -1 2
v 6
l -1 16
l 8 -3
l 14 9
l -1 8
l -10 1
l -3 -3
l -6 4
v 5
l -10 8
l -3 -9
l 3 3
l 8 -3
l -3 -14
l -11 1
v -7
h -12
v -10
h -46
l -25 -1
l 1 -1
l -27 -1
v 12
l -10 -1
h -43
v 2
h -13
v 5
h -33
l -13 -1
l 1 -18
h -19
v 18
l -20 -1
h -27
l 1 -1
v -2
h 2
v -3
l 1 1
v 1
l 1 -1
v -1
h 2
v -1
l 1 -1
v -1
l -2 -1
h 1
v -1
h 1
v -1
l -1 -1
l -1 -1
v -2
l -1 -1
h 1
l -1 -2
v -1
h 1
v -1
h -1
l 1 -1
h 1
v -1
h -1
v -2
l -1 1
v -1
h -1
v -1
h -1
l -1 -1
v -2
h -1
v -1
h 2
l -1 -1
l 1 -1
l 1 -1
v -1
l -1 -1
v -1
l 1 -1
h 2
v -2
h 2
l 3 -1
l -1 2
l 1 -1
v -1
l 1 -1
v -1
h -1
v -8
l 1 -1
l 1 -1
v -2
l 1 -1
h 2
l 1 -2
h 3
l 1 -1
l 1 -1
v -2
l 1 -1
v -2
l 1 -1
v -2
h 1
v 1
h 1
l -1 -2
v 1
v -1
h 1
l -2 -1
h 2
l -1 -1
v -2
h 1
v -1
l -1 -1
v -2
v 1
h 1
v -1
h 2
l 1 -1
v -2
h 1
v -5
h 3
l 1 -2
v -2
h 1
v -2
l 1 -1
l -2 -1
v -2
l 1 -1
l -1 -2
l 1 -1
h -1
v -2
l -1 1
l -1 -1
v -3
h 1
v -1
l 1 -1
h 3
h -1
v -2
h -1
v -1
l 1 -1
v -1
h 1
v -1
h 1
v 2
l 1 -1
h 1
l 1 -1
v -3
h -1
v -3
h 1
h -1
v -1
l -2 1
v -1
h -1
v -1
h -1
l -1 -1
l -1 1
l -2 -1
l 1 -1
l 1 -1
v -3
h -2
v -2
h 1
v -2
h 1
v 1
h 5
v -1
l 1 -1
l 1 -1
h 2
l 1 -1
h 1
v -1
h -2
v -1
h -1
v -1
h 1
v -1
h -1
l -1 -1
v -1
h 2
v -2
h -1
l -1 -1
h 1
v -1
h -2
v -1
h -3
v -2
h 1
h -3
v -1
l 1 -1
h 2
v -3
l 2 -2
v -1
l -1 -1
v -1
l -1 -2
v -2
h 2
v -1
l -1 -1
v -2
h 2
v -2
h -6
l -1 1
h -1
v 2
h -2
v 1
h -1
v -2
l -1 -1
v -5
l -1 -2
h 1
v -1
l 1 -1
v -2
h -2
l -1 -1
l -1 -1
v -2
h 1
v -3
h -1
v -2
h -4
l -1 -2
l -1 -1
l -1 1
l -2 -4
h -1
v -1
h -2
v -2
l 1 -2
h 1
v -3
l 1 -1
l 4 -4
l 1 -2
l 1 -1
h -2
v 1
h -3
l -1 1
v -6
l -1 -1
v -1
h -1
v 1
l -2 -2
h -2
v -1
l 2 -6
h -2
v -4
v 1
h -4
l -1 -1
l -1 -1
l -1 -1
h -1
v -3
l 1 -1
h 3
v -1
l 1 -1
v -1
h 1
l 1 -1
v -1
h 1
l -1 -1
h -5
l -1 -1
h 1
v -2
h -1
v -1
h -1
v 1
h -1
l -1 1
h -1
l -2 -1
h -1
l -1 -1
h -2
v -1
h -1
l -1 -3
h -1
l -1 -6
h -1
v -1
l -1 -1
l 3 -6
v -1
h -1
h 1
v -4
l 1 -2
v -1
l -1 -1
h -1
l 1 -3
v 1
h 1
v -3
h 1
l 1 -1
l 2 -3
v -1
h -1
l -1 1
h -1
l -1 -1
v -5
h -1
v -1
l -1 -3
h -1
v -1
l 2 -1
v -2
l -1 -2
v -1
h -1
v -1
l -1 -3
l -1 -1
v 1
l -1 -1
v -1
h -1
v -1
h -3
h 1
v -1
h -1
v -5
h -1
v -1
h -1
l 1 -1
v -1
h -1
l 1 -3
h -2
v -2
h -2
l 1 -1
v -2
l -1 -1
v 1
h -3
v 1
v -1
v 1
l -1 1
v -2
h -1
l 1 -3
v -1
h -4
l -1 -1
v -1
h -1
v -1
l -1 1
h -1
l -1 -3
l -1 -1
l -1 -2
l -1 -1
l -1 -2
v -1
l -1 -1
l -1 -1
h -1
v -4
h -1
v 1
l -1 -1
v -1
h -1
l -1 1
v -61
h 1
v -42
l 1 -1
v -14
Z"/>
<path data-race-id="LA05" d="M214 381
h 5
v -4
h 7
v -5
h 5
l 3 -6
l 10 -5
l 7 -8
l 10 -7
l -12 -13
l -2 -5
l -8 -1
l -3 -3
l -9 -2
l 2 -8
l -5 -3
h -6
l -2 -7
l 1 -12
l 3 -4
l 1 -15
h 9
l -1 -6
l 4 -15
l -2 -7
l 2 -6
v -1
l -1 -3
l -1 -1
v -3
l -1 -7
l -1 -1
l -1 -2
l -1 -1
v -1
l -1 -1
l -1 -2
v -1
h -1
l 1 -1
l -1 -2
l -1 -1
h 23
l -1 -3
l 4 -4
v -6
l 4 -4
l 1 -1
v -47
h -19
l 1 -2
v -26
l 2 -4
v -4
l 1 -3
v -1
l -1 -3
v -7
l 2 -1
h 1
v -1
l 4 -3
v -9
h 36
l 11 2
l 3 6
h 5
v 11
h 18
v 19
h 30
l 5 -5
l 22 -16
l 6 -9
l 2 -26
l -5 -5
l 1 -24
l 2 -5
h 88
l 21 1
h 50
l 1 3
l -1 1
l -2 1
v 1
l -2 2
l -1 1
l 1 2
h -1
l -2 3
v 3
l 1 2
l 2 2
l 4 1
h 3
l 3 -1
l 2 -3
v -2
l -1 -5
v -1
h 1
v -2
l -1 -2
h 1
v -2
h 7
l 2 5
v 2
l -1 1
h 1
v 1
l 3 5
v 2
l -4 8
l -3 3
h -3
l -7 7
l 1 9
v 1
l -2 7
l 4 1
l 10 1
l 3 1
l 2 4
l -13 10
l -3 4
l -1 5
l 3 6
h 1
v 2
h 2
l 1 -1
h 1
l 1 -1
l 4 -1
l 6 -3
l 2 -3
v -2
l 1 -1
l 1 -1
l 4 4
l -1 5
l -1 1
l -2 2
l -1 2
l -2 1
l -5 2
l -2 2
l 1 2
l 5 3
l 8 5
l 3 4
l -3 2
l -6 -2
l -2 -2
l -3 -4
l -1 -2
l -1 -1
l -3 -3
l -1 1
l -3 8
l -1 5
l 5 5
l 3 2
l 1 1
l 3 1
l 5 1
v -1
l 1 -1
h 2
l 1 -1
h 4
l 2 1
l 1 2
v 2
l -3 3
h -1
l -1 1
l -2 5
v 5
l 4 2
l 12 2
l 2 -2
l 1 -2
l 1 -2
v 5
l -1 1
v 1
h -1
v 2
l -1 2
l -2 4
l -6 3
l -2 -3
h -2
l -1 3
v 3
l 1 2
l 1 2
l -2 7
l -3 6
l -1 -1
l -3 -9
l -2 -1
h -2
l -2 4
l -1 1
l -2 -2
h -1
l -2 1
l -2 1
l -2 2
h -1
l -2 -1
l -1 -1
v 1
l -4 2
l -1 1
l -1 1
l -1 4
l 3 9
l 2 1
l 2 1
h 3
l 9 -1
l 2 1
h 1
v -7
l -1 -5
l 5 4
h 4
l -1 6
h -1
v 1
l -2 1
v 3
l -1 2
l -2 1
l -6 3
h -1
v 1
l 1 5
l -3 1
h -1
l -5 -5
l -1 -2
h -1
l -2 1
l -2 1
v 2
l 1 1
l 1 2
h 2
l 6 2
l 5 3
v 3
l -2 2
l -1 1
l -3 1
h -1
l -3 1
l -5 1
h -1
l -2 3
l -2 1
v 3
l -1 3
h 2
v 4
l -2 1
v 1
h -2
l -1 2
l -4 3
l -1 2
l -1 1
h -3
l -1 2
v 2
l 3 3
h 1
v 3
l -1 1
l -3 2
h -1
l -3 -7
v -3
l -1 -1
h -1
l -2 1
h -3
l -2 1
l -2 2
v 5
l -2 7
v 5
l 1 1
l 4 -1
l 2 -1
l 4 -1
l 3 -1
h 2
l 3 2
v 1
l -4 4
h -2
l -2 -1
h -12
l -2 2
v 1
l -3 5
l -1 4
l 1 10
l -1 4
v 1
l -1 1
h -6
l -4 -1
l -1 -1
l -3 -2
l -2 -3
h -1
l -2 3
l -1 1
v 4
l 1 1
l 2 2
l 1 1
l 1 1
h 1
l 1 1
h 1
l 3 -1
l 3 -2
l 6 1
v 4
l -10 8
l -3 1
l -1 -1
h -1
l -4 1
h -1
l -1 2
v 1
l 1 1
v 13
l 1 2
v 1
l 4 5
l 2 2
l 1 2
l -1 6
h -5
l -5 -6
l -1 -3
v -4
l -1 -1
h -2
v 1
l -2 1
l -1 1
v 1
l -1 2
v 1
l 1 2
l 1 2
v -1
h 3
v 2
l -1 2
l 1 4
l 3 2
v 2
h 1
l 2 1
l 1 1
l 1 1
l -1 4
l -1 4
l -3 2
h -3
l -3 1
h -1
l -3 -1
h -10
l -2 1
v 4
l 2 2
l 3 1
l 4 3
l 2 3
l 1 2
v 3
l -1 1
l -1 2
l -2 3
l -1 1
v 1
l -2 1
v 4
l 2 2
l 3 2
l 2 2
l 4 3
v 6
l -1 3
l -2 2
l -4 2
l -3 1
h -1
l -2 1
h 14
l 5 1
h 39
l 26 -1
h 122
l 28 -1
h 30
l 9 -1
h 72
l 1 -1
v 1
l 1 1
v 1
l -1 1
l 1 1
l -1 1
h -1
v 1
l 2 1
h -2
l -1 1
v 1
l -1 1
v 6
l 1 1
l -1 1
l -2 1
v 1
h 1
l 1 1
l -1 1
h -1
l -1 -1
v 4
l -1 2
l 2 1
l -1 1
v 2
l -1 1
v -1
h -1
v 1
l -1 1
v -1
h -1
v 1
h 1
v 2
h -1
v 1
h 2
v 1
h -1
v 1
h 1
l -1 2
v -1
h -2
l 1 -1
h -1
v 2
l -1 1
v 1
h -2
l 1 1
v 2
h 1
v -1
v 1
h -2
v -1
h -1
v 3
h -2
v 2
h -1
l 1 1
v 1
l 1 1
h -1
v 2
l 1 -1
v -1
l 1 1
h -1
v 2
h -1
l 1 1
h -2
v 1
h 2
l -1 1
h -1
l 1 1
v -1
h 1
v 1
h -1
v 2
h -1
v -1
h -1
v 2
h -1
v 1
h 2
v 3
h -1
l -1 1
h 2
v 1
h -1
h 1
v 1
h -1
l -1 1
v 1
h 1
v -1
h 1
v 1
h -1
l -5 1
h -24
l -13 -4
l -14 -1
l -19 -5
h -1
l 1 3
v 3
l 1 1
v 6
l 1 1
v 4
l -1 3
v 3
l 1 21
h -18
l -9 -2
l 1 -8
l -3 -2
l -4 -7
l -7 -4
l -2 -5
l -4 3
l 2 16
h -5
v 6
l -10 -2
v -63
h -13
l -2 -5
l -9 2
l -16 -9
l -11 -1
l -2 3
l -6 -2
l -12 3
l -2 6
l -4 -2
l -8 5
v -4
l -1 -4
l -9 2
l -8 4
v 10
l -7 6
l -4 -2
l 1 -11
h -9
v 7
l -9 8
l -1 8
l -4 1
v 12
l -4 -2
l -3 -11
l -3 -8
l -5 -1
l -12 5
v -1
v 1
v -1
l -7 -1
l -12 3
l -5 -4
v -4
l 8 -3
l 6 -15
l -2 -10
l -5 -4
h -11
v 4
l 8 1
l 2 11
h -14
l -5 -2
v -9
l 3 -9
l -3 -8
l 1 -4
l -2 -4
l -15 -1
l -9 10
v 22
l -2 3
l 1 7
l 6 6
l 3 11
l 4 6
l -1 17
l -3 5
v 11
l 4 6
l -4 6
l 3 10
h 3
l 8 12
h -25
l -7 -4
l -13 3
l -1 -3
l -1 1
v 3
l -8 -3
l -14 -9
l -8 3
l 1 -16
v -6
l 1 -2
v -3
l 7 -2
l 7 2
l 8 -2
l -1 -5
l -7 -3
v -4
h 5
l -5 -8
l 8 -1
l -7 -4
l -1 -10
l -3 -5
l -8 -4
l 6 -2
l -2 -7
h 5
v -6
h -38
v -9
l -8 -9
v -7
l -9 1
l 1 -3
l -10 -4
l -19 9
v 8
l -4 3
l -1 1
h -1
l -2 -1
h -2
l -1 -1
h -1
l -1 1
h -8
l -22 -1
l -1 2
h -18
v -25
h -1
v -52
l -8 -8
v -6
l -10 -1
Z"/>
<path data-race-id="LA06" d="M436 453
l 15 1
l 2 4
l -1 4
l 3 8
l -3 9
v 9
l 5 2
h 14
l -2 -11
l -8 -1
v -4
h 11
l 5 4
l 2 10
l -6 15
l -8 3
v 4
l 5 4
l 12 -3
l 7 1
v 1
v -1
v 1
l 12 -5
l 5 1
l 3 8
l 3 11
l 4 2
v -12
l 4 -1
l 1 -8
l 9 -8
v -7
h 9
l -1 11
l 4 2
l 7 -6
v -10
l 8 -4
l 9 -2
l 1 4
v 4
l 8 -5
l 4 2
l 2 -6
l 12 -3
l 6 2
l 2 -3
l 11 1
l 16 9
l 9 -2
l 2 5
h 13
v 72
l 3 2
l 3 10
l 6 8
v 6
l 5 1
l -2 6
v 11
l 21 -1
l 3 -3
l 12 1
l 24 11
l 1 10
l -19 6
l -3 16
v 26
h -6
l -2 7
l -8 -1
l -6 -4
l 4 -7
l -16 -1
l -1 -8
l -2 -9
l 3 -3
l -4 -3
v 6
l -4 -2
l 1 -5
l -8 -1
v -8
l -1 -4
h -2
l -1 -1
h -1
l -4 -5
h -1
v -2
h 1
l -7 -3
l -2 12
l -21 5
l -29 6
l -5 -7
l -1 -5
l 6 -3
l 2 -6
l -3 -4
l -18 -2
l -3 7
l -4 -1
l 6 -22
l -21 -1
l -10 -5
h -9
l 8 -16
l 5 -3
l 2 -4
l 12 1
l -3 -6
l 4 -5
l -9 -5
l -2 -10
h -4
l 1 -8
h -7
l -3 11
l 2 8
l 2 2
v 11
h 4
l -4 5
v -3
l -5 -3
l -3 3
l 5 3
l -3 10
l -9 -2
l 4 5
h -5
v 6
l -5 5
l -2 -5
l 2 12
l -2 5
l 7 4
l 8 -3
l 10 -3
l -3 8
l -5 1
l -2 6
l -8 4
l 1 11
h 15
v -7
h 11
l 9 6
l -3 7
v 10
h 3
v 12
l -6 -2
l -5 3
l 2 10
l 7 -2
l 12 1
l 10 -1
l 7 8
l -6 5
l 2 8
l 7 6
l 3 -9
h 5
v -6
l 18 -1
v -3
l 11 2
l 2 3
l 5 -1
l 6 2
l 19 -1
l 5 2
l 5 5
l 6 13
l -11 12
l 3 7
l -2 7
l -12 -7
l -5 1
v -6
h -16
l -3 -3
v 6
l 3 1
l -2 11
l 4 5
l -5 7
l -5 3
l -6 -1
v 14
l -8 18
l -31 -4
l -14 -3
l -7 7
h -7
l -2 3
l -11 4
l -1 -3
l -1 -1
h -3
l -2 -2
h -1
l -1 -3
v -17
l 5 -2
l 1 -1
l 1 -2
v -1
l 1 -3
v -1
l 6 -5
l 5 4
l 3 -4
l 11 -3
l -5 -4
l 1 -12
l -1 -8
h 3
l -1 -15
l -6 -5
l -9 -2
l -4 -4
l -1 -8
l -5 -3
l -4 -12
l -1 -6
h 4
l 2 -6
l -7 -6
h -19
l -4 -10
h -13
l -1 -16
l -4 -4
l 2 -8
l -16 -2
l -11 -14
v -9
l -4 -3
l 4 -4
l -3 -12
l -11 -12
h -10
l 4 -6
l -4 -6
v -11
l 3 -5
l 1 -17
l -4 -6
l -3 -11
l -6 -6
l -1 -7
l 2 -3
v -22
Z"/>
</g>
  <path class="districts-mesh" d="M825 634
l -6 -2
l -5 -2
l -8 3
v -1
l -1 -1
v -1
h -1
l -1 1
v 1
l 1 2
l -1 1
v 1
h -1
l -1 1
l -1 1
v 1
l -5 6
l -8 1
l -3 -5
l -2 -4
l 1 -1
v -2
l -2 2
h -2
l -12 15
l -11 8
l -3 -2
l -7 3
h -1
l -3 8
l -2 5
l -5 -1
v 1
l -1 1
v 1
l -1 2
h -1
h 5
l -2 9
l -3 -2
v -6
l -4 -1
l -6 7
h -4
l -6 -19
l -6 1
v -17
l 3 -16
l 19 -6
l -1 -10
l -24 -11
l -12 -1
l -3 3
l -21 1
v -11
l 2 -6
l -5 -1
v -6
l -6 -8
l -3 -10
l -3 -2
v -9
l 10 2
v -6
h 5
l -2 -16
l 4 -3
l 2 5
l 7 4
l 4 7
l 3 2
l -1 8
l 9 2
h 18
l -1 -21
v -3
l 1 -3
v -4
l -1 -1
v -6
l -1 -1
v -3
l -1 -3
h 1
l 19 5
l 14 1
l 13 4
h 24
l 5 -1
M72 579
h 27
l 20 1
v -18
h 19
l -1 18
l 13 1
h 33
v -5
h 13
v -2
h 43
l 10 1
v -12
l 27 1
l -1 1
l 25 1
h 46
v 10
h 12
v 7
l 11 -1
l 3 14
l -8 3
l -3 -3
l 3 9
l 10 -8
v -5
l 6 -4
l 3 3
l 10 -1
l 1 -8
l 8 3
v -3
l 1 -1
l 1 3
l 13 -3
l 7 4
h 25
l -8 -12
h -3
l -3 -10
h 10
l 11 12
l 3 12
l -4 4
l 4 3
v 9
l 11 14
l 16 2
l -2 8
l 4 4
l 1 16
h 13
l 4 10
h 19
l 7 6
l -2 6
h -4
l 1 6
l 4 12
l 5 3
l 1 8
l 4 4
l 9 2
l 6 5
l 1 15
h -3
l 1 8
l -1 12
l 5 4
l -11 3
l -3 4
l -5 -4
l -6 5
M672 710
l 7 6
l 10 2
l 3 6
v 7
l 3 2
h 21
l 5 -13
l 3 -6
l 2 -10
l 1 -3
l 11 -3
l 2 7
l -4 6
l 8 5
l 1 -13
l 8 -5
l 3 -8
l 6 -3
l 8 3
l 4 5
l 2 -5
l -6 -7
l -5 1
l -9 -5
l 3 -9
h 12
l 12 -4
M535 792
l 11 -4
l 2 -3
h 7
l 7 -7
l 14 3
l 31 4
l 8 -18
v -14
l 6 1
l 5 -3
l 5 -7
l -4 -5
l 2 -11
l -3 -1
v -6
l 3 3
h 16
v 6
l 5 -1
l 12 7
l 2 -7
l -3 -7
l 11 -12
l -6 -13
l -5 -5
l -5 -2
l -19 1
l -6 -2
l -5 1
l -2 -3
l -11 -2
v 3
l -18 1
v 6
h -5
l -3 9
l -7 -6
l -2 -8
l 6 -5
l -7 -8
l -10 1
l -12 -1
l -7 2
l -2 -10
l 5 -3
l 6 2
v -12
h -3
v -10
l 3 -7
l -9 -6
h -11
v 7
h -15
l -1 -11
l 8 -4
l 2 -6
l 5 -1
l 3 -8
l -10 3
l -8 3
l -7 -4
l 2 -5
l -2 -12
l 2 5
l 5 -5
v -6
h 5
l -4 -5
l 9 2
l 3 -10
l -5 -3
l 3 -3
l 5 3
v 3
l 4 -5
h -4
v -11
l -2 -2
l -2 -8
l 3 -11
h 7
l -1 8
h 4
l 2 10
l 9 5
l -4 5
l 3 6
l -12 -1
l -2 4
l -5 3
l -8 16
h 9
l 10 5
l 21 1
l -6 22
l 4 1
l 3 -7
l 18 2
l 3 4
l -2 6
l -6 3
l 1 5
l 5 7
l 29 -6
l 21 -5
l 2 -12
l 7 3
h -1
v 2
h 1
l 4 5
h 1
l 1 1
h 2
l 1 4
v 8
l 8 1
l -1 5
l 4 2
v -6
l 4 3
l -3 3
l 2 9
l 1 8
l 16 1
l -4 7
l 6 4
l 8 1
l 2 -7
h 6
v -9
M381 30
l -2 5
l -1 24
l 5 5
l -2 26
l -6 9
l -22 16
l -5 5
h -30
v -19
h -18
v -11
h -5
l -3 -6
l -11 -2
h -36
v 9
l -4 3
v 1
h -1
l -2 1
v 7
l 1 3
v 1
l -1 3
v 4
l -2 4
v 26
l -1 2
h 19
v 47
l -1 1
l -4 4
v 6
l -4 4
l 1 3
h -23
l 1 1
l 1 2
l -1 1
h 1
v 1
l 1 2
l 1 1
v 1
l 1 1
l 1 2
l 1 1
l 1 7
v 3
l 1 1
l 1 3
v 1
l -2 6
l 2 7
l -4 15
l 1 6
h -9
l -1 15
l -3 4
l -1 12
l 2 7
h 6
l 5 3
l -2 8
l 9 2
l 3 3
l 8 1
l 2 5
l 12 13
l -10 7
l -7 8
l -10 5
l -3 6
h -5
v 5
h -7
v 4
h -5
l 8 5
l 10 1
v 6
l 8 8
v 52
h 1
v 25
h 18
l 1 -2
l 22 1
h 8
l 1 -1
h 1
l 1 1
h 2
l 2 1
h 1
l 1 -1
l 4 -3
v -8
l 19 -9
l 10 4
l -1 3
l 9 -1
v 7
l 8 9
v 9
h 38
v 6
h -5
l 2 7
l -6 2
l 8 4
l 3 5
l 1 10
l 7 4
l -8 1
l 5 8
h -5
v 4
l 7 3
l 1 5
l -8 2
l -7 -2
l -7 2
v 3
l -1 2
v 6
l -1 16
l 8 -3
l 14 9
M652 556
v -63
h -13
l -2 -5
l -9 2
l -16 -9
l -11 -1
l -2 3
l -6 -2
l -12 3
l -2 6
l -4 -2
l -8 5
v -4
l -1 -4
l -9 2
l -8 4
v 10
l -7 6
l -4 -2
l 1 -11
h -9
v 7
l -9 8
l -1 8
l -4 1
v 12
l -4 -2
l -3 -11
l -3 -8
l -5 -1
l -12 5
v -1
l -7 -1
l -12 3
l -5 -4
v -4
l 8 -3
l 6 -15
l -2 -10
l -5 -4
h -11
v 4
l 8 1
l 2 11
h -14
l -5 -2
v -9
l 3 -9
l -3 -8
l 1 -4
l -2 -4
l -15 -1
l -9 10
v 22
l -2 3
l 1 7
l 6 6
l 3 11
l 4 6
l -1 17
l -3 5
v 11
l 4 6
l -4 6"/>
</svg>