<svg version="1.1" xmlns="http://www.w3.org/2000/svg" width="1000" height="616" viewBox="0 0 1000 616">
  <path d="M850 464
l -3 -2
l -7 3
l -1 6
v 2
h -1
l -1 3
l -1 1
l -3 -4
v -1
l -3 4
l 5 4
v 1
l -1 1
v 1
l -1 1
l -2 2
l -2 2
l -2 1
h -1
l -1 1
h -5
l -1 1
h -2
l 2 -7
v -1
l -3 -3
l -1 11
h -1
l -1 -1
h -1
l -1 1
h -2
l -6 1
l -1 1
h -5
l -1 1
h -6
l -3 2
l -2 1
l -1 1
l -1 1
v 1
l -1 1
v 2
l -1 1
l -6 -5
l 6 -6
v -6
l 4 -4
l -3 -13
l 3 -7
l -3 -6
l 9 -4
l -1 -1
h -8
v -4
h 9
l -3 -8
l -8 5
l 3 -5
l 8 -2
l 1 -7
l -4 -4
l 1 -5
l 1 -1
l -10 3
l 2 8
l -6 -4
l -10 -1
l 2 -4
l -7 1
l 2 5
l -7 -5
v 1
l 9 9
v 11
l -11 -11
l 4 12
l -6 -1
v 1
l 2 9
l -16 -2
l -2 3
l 6 3
l -10 5
l -1 -1
l -4 2
v 1
h 1
v 3
l 1 1
l 2 5
l -1 1
l -1 1
v 3
l -2 -4
h -1
l -1 -2
l 1 -1
l -1 -3
h -1
v -5
h -1
v -1
l -1 -1
h -1
l -1 -1
l -1 2
l -1 1
l -7 -9
l 1 -5
v -2
h -1
l -1 11
l 6 13
l -2 3
l -6 -6
v 10
l -4 1
l -4 -7
l -1 5
l 4 1
l 5 16
l -5 1
v 8
l -4 -7
l -5 5
l 1 3
l -11 2
l -4 3
l -4 -3
l -11 -2
l 12 -2
l -2 -15
l -5 -4
l 3 9
l -3 10
l -8 -10
l -5 -1
l 6 7
l 3 8
l -8 3
v -4
l -1 -1
v -1
l -1 -13
v -5
l -1 -3
l -3 -11
v -7
l 1 -1
l 1 -10
v -2
h -2
l -1 -1
h -4
l -1 -1
h -3
v -2
h -3
v -1
h -3
v -1
l 8 -10
l 3 -6
l 6 -6
l 3 -9
h 1
l 1 -1
l 1 -5
l 6 -7
l -1 -2
h -2
l -4 8
l -1 -14
l -2 10
v 2
l 2 5
l -5 4
v 6
l -8 11
l -8 3
v -3
l -8 -4
v 6
l -3 -4
l -4 -8
l -1 -1
l -2 -2
l -2 -1
l -3 -1
v -1
h -1
l -1 -1
l -2 -1
l -2 -1
h -2
v -2
h -1
l -1 -1
l -2 -1
l -1 -1
l 1 -1
l -1 -1
l -2 -2
v -1
h -1
l 1 -1
v -3
l -2 -5
l 1 -8
l 1 -2
l -1 -11
l 1 -5
h -4
l -6 1
l -2 -1
v -43
h -24
l -3 1
h -16
l -5 1
h -22
l -14 1
h -27
v -5
h -38
l -1 -1
h -13
l -11 -1
h -24
l -1 -1
h -53
l -8 -1
h -9
l -9 -1
l -34 1
l -3 1
l -3 1
h -6
l -1 -1
v -1
h -7
l -6 -1
l -5 -1
h -21
l 1 2
v 1
l -1 3
l -1 -1
l -1 1
v -1
h -1
h 1
v 1
h -1
h 1
v 1
h 1
l -1 1
v 2
l -1 2
l -13 2
l 1 -14
l -12 -1
h -32
l -4 -1
h -14
l -2 -1
h -13
l -34 -2
l -4 -1
h -17
l -4 -1
l -21 -1
h -24
l -1 -3
l -1 -4
v -6
l 6 -24
l 1 -1
l 6 -22
l 8 -28
l 6 -19
l 8 -26
v -1
l 6 -23
l 1 -2
v -1
l 4 -12
l 6 -20
l 2 -6
l 2 -8
l 1 -1
l 3 -12
l 4 -15
l 1 -5
l 3 -8
l 17 1
l 34 1
h 2
l 2 1
h 9
l 23 1
h 8
l 23 1
h 1
l 11 1
l 24 1
h 10
l 17 1
h 2
l 26 2
h 20
l 4 1
h 12
l 12 1
h 13
l 1 1
h 28
l 1 1
h 22
l 4 1
h 13
l 5 1
l 36 1
h 17
l 33 1
h 9
l 5 1
h 14
l 7 1
h 33
l 4 1
h 14
l 5 -7
l 2 -4
h 1
l 4 -4
l 1 -2
h 10
l 7 2
l -1 -5
v -9
l -1 -5
l 1 -1
l 7 -7
l 6 -3
l 18 6
l 1 -3
l 2 -7
l 1 -3
l 4 -6
l 5 -1
l 2 -1
h 2
l 2 -1
l 6 -1
h 1
l 4 -3
l 4 -2
v -1
h 1
l 4 -1
h 3
l 14 9
l 8 -3
l 2 17
h -9
l -4 2
l -7 -3
v 1
l 10 8
h 6
v -1
h 1
v -1
l 2 -1
v 2
l 2 -1
l -1 -1
l 1 -3
v 3
l 1 10
l 3 10
l 2 4
v 1
l 4 12
l -4 1
l -3 -10
v -1
l -3 -6
l -4 -1
v 7
l 3 7
l 5 2
l 1 6
l 12 2
l 5 7
l -10 -4
l -5 2
l 9 1
h 1
l -1 1
l -4 7
h 7
v -2
l 1 1
l 4 -5
l 13 4
l -3 -5
l 10 -9
l 1 1
h 4
v 9
h 7
l 2 9
l -8 3
v 1
l -3 7
l -8 9
l 3 -6
l -6 -4
l -2 6
l -9 6
l -11 2
l -2 3
h -7
v -1
l -8 5
l -12 1
l -2 3
l -9 -3
l -1 -1
l 1 3
l 1 -1
l 5 4
v -1
h 6
l -6 8
l 1 6
l 1 -1
l 4 -7
l 7 3
l -4 7
l -6 4
l -1 2
l -3 5
l -8 -2
l -2 2
l -2 5
l 1 5
l 7 2
l -7 4
l -1 -14
h -1
l -7 4
l -4 5
l -2 9
l 3 4
v 2
h 4
v 11
l 1 1
l -1 1
l -2 -2
l 1 -5
l -5 1
l -2 -5
v 1
l -2 1
h 1
l -1 4
l 1 1
l 3 1
l 1 1
l -6 4
l -10 -9
l 4 -4
v -1
h -2
l -3 -2
l -6 1
l 1 -2
l -1 1
v -4
h -1
v 5
l 8 4
l -5 3
l 1 1
l 3 4
l 10 5
v 2
l -8 2
l -1 11
l 2 6
v -6
l 9 1
l -4 3
l 13 9
l 6 -5
l -3 10
v 2
l 6 -5
l 1 3
l 5 -5
h 6
l 3 6
l 3 -7
v 1
l -4 -15
l 5 10
l 11 4
l 10 5
l -1 4
h 1
v -1
l 6 -3
l 3 9
l 8 6
l 2 14
l -5 2
l 5 1
l 4 6
h 1
l 4 6
h 1
l 10 14
l -2 5
l 5 14
l 4 3
l 3 5
l -7 7
l -2 -2
l 6 -5
v -2
l -9 -11
l -5 2
l -2 6
l 3 5
l -6 -1
l -6 3
v 1
l 3 5
l 2 2
l 4 2
l 4 7
l 8 3
l -5 -12
l 8 15
l 7 -3
l 12 7
l 5 14
l 2 12
l -5 9
l 2 7
l 1 2
l 1 1
l 3 3
l 1 1
h 1
v 2
l 5 4
l 1 1
h 1
l 15 8
h 1
l 10 2
h 2
l 4 1
l 2 1
h 18
l 1 3
l -16 1
l -1 3
l 7 2
l 17 -1
l 2 -3
h 1
l 2 -2
l 1 -1
l 1 -2
h 1
l 1 -1
l 1 -1
l 1 -1
l 1 -1
h 2
l 1 -1
l 2 -1
h 4
l 5 -2
l 1 -1
l 1 1
l 2 -2
h 3
l 3 1
l 1 -1
h 1
l 1 -1
h 2
l 4 -2
h 2
l 3 -1
h 1
l 2 -2
h 2
l 1 -1
h 1
l 1 -1
l 4 -2
h 1
l 3 -4
l 1 -1
l 1 -14
l -2 -14
l 1 -1
l -3 -3
l 3 -5
l -8 -5
l -1 -4
l -9 9
v -11
l -2 -8
v -13
l -3 -11
l -10 -9
l -5 -3
h -1
l -7 1
l -5 4
v 8
l -3 1
l -3 -8
l -8 -8
l 6 -4
l 9 -1
l 9 1
l 10 3
l 15 10
l 6 7
l 1 1
l 1 1
l 1 2
h 1
l 1 2
v 1
l 1 2
l 1 1
l 1 2
l 1 2
l 1 1
l 1 2
l 1 2
v 2
l 1 1
l 1 3
l 9 24
v 2
l 4 17
l -1 6
h -1
v -1
l -3 -1
l -6 8
l -1 2
l 7 -7
l 8 5
l 2 26
v 14
l -1 1
v -16
l -3 -14
l -8 1
l 1 8
l -7 3
v 1
l -1 5
h 1
l 4 -3
l 2 5
h 7
v 13
l -4 7
l -4 -6
l -2 4
l -4 -4
h -1
v -1
l -4 1
h -3
l -5 1
l -6 2
l -2 -1
l -9 3
h -1
v 1
l -1 -1
l -2 1
h -2
v 1
h -10
l -5 2
h -1
v -2
l 1 -2
l -2 1
l -5 6
l -1 1
l -7 3
l -3 6
l -3 -5
l 8 -3
l -3 -4
l -6 -1
l -1 -1
v 5
l -11 4
l -7 -4
l -7 4
l 1 4
l -8 3
Z
M850 464
l -1 5
v 1
h -8
l 6 -8
Z
M955 559
l 11 19
l 4 10
l -2 6
l -12 6
l -13 -2
l -15 1
l -13 -4
l -17 -9
l 9 -1
l -1 -5
h 22
l 6 2
l 1 4
l 6 -7
l 5 1
l 6 -5
l -2 -3
l 8 -4
l -6 -6
l -3 7
l -9 7
l 8 -9
l 4 -14
Z
M956 491
l -4 -2
l 6 -9
v -12
l 6 -13
l -5 23
v 10
Z
M888 575
l 6 6
l -6 -1
l -4 -4
Z
M797 534
v -2
l 8 -13
l 4 5
l 2 14
v 1
l -1 -1
l -2 -6
l -3 6
l 14 6
l 3 3
v 12
l 2 3
h 9
l -2 -4
l -8 -3
v -4
l 9 -6
l 5 6
l 1 11
h -38
l -10 1
h -3
l -6 1
l -19 3
l -9 7
l -2 6
l -4 -3
l -4 -2
l -9 -9
l 7 -6
l 6 3
l 1 7
h 2
l 4 -4
l -1 -6
l 6 -7
l 2 -7
l 5 -4
l 1 -1
l 3 -8
l 8 -3
l 3 -7
h 1
l 14 -8
l 1 10
l 3 2
Z
M769 504
l 7 2
l -9 2
l -2 6
l -11 4
l 1 4
l -12 6
l -1 -7
l 9 -4
l 9 -9
Z
M739 525
l 2 4
l -6 2
l -2 -6
Z
M730 534
l -6 4
h -8
l 13 -9
Z"/>
<g class="districts">
<path data-race-id="MA01" d="M67 151
v -1
l 4 -12
l 6 -20
l 2 -6
l 2 -8
l 1 -1
l 3 -12
l 4 -15
l 1 -5
l 3 -8
l 27 1
l 24 1
h 2
l 2 1
h 9
l 23 1
h 8
l 23 1
h 1
l 11 1
l 24 1
h 10
l 8 1
h 11
l 13 1
l 6 18
l 1 5
l -14 3
l -11 2
l -10 1
h -3
l -4 24
h 3
l -5 8
l -5 1
l 7 8
l -4 22
l 2 -1
l -1 5
l -12 2
l -1 16
l 10 -1
l -1 14
l -18 2
v 28
h 1
l 23 -2
l 8 1
l 1 1
h 1
l 9 -6
h 10
l 2 1
l 17 -2
l 5 28
l 11 -1
l 2 17
l 9 -2
v -4
l 7 -7
v 4
h 9
l 3 -8
l 18 -4
l 3 -2
l 7 -1
l 2 6
l 1 1
l 3 4
l 4 14
l 4 -12
h 4
l 1 -8
l 3 3
l 8 -1
l 7 1
l 3 -5
l 3 22
l 22 -2
h 6
l 1 10
l 4 21
l -3 4
l 3 -1
l 1 8
l 3 -2
l -2 9
l 1 10
h -16
l -1 -1
h -13
l -11 -1
h -24
l -1 -1
h -53
l -8 -1
h -9
l -16 -1
h -19
l -8 1
l -3 1
l -3 1
h -6
l -1 -1
v -1
h -7
l -6 -1
l -5 -1
h -21
l 1 2
v 1
l -1 3
l -1 -1
l -1 1
v -1
h -1
h 1
v 1
h -1
h 1
v 1
h 1
l -1 1
v 2
l -2 2
l -12 2
l 1 -14
l -6 -1
h -38
l -4 -1
h -14
l -2 -1
h -13
l -18 -1
l -16 -1
l -4 -1
h -17
l -4 -1
l -21 -1
h -24
l -1 -3
l -1 -4
v -6
l 6 -24
l 1 -1
l 6 -22
l 8 -28
l 6 -19
l 8 -26
v -1
l 6 -23
Z"/>
<path data-race-id="MA02" d="M229 201
l 18 -2
l 1 -14
l -10 1
l 1 -16
l 12 -2
l 1 -5
l -2 1
l 4 -22
l -7 -8
l 5 -1
l 5 -8
h -3
l 4 -24
h 3
l 10 -1
l 11 -2
l 14 -3
l -1 -5
l -6 -18
l 13 1
h 20
l 4 1
h 12
l 12 1
h 13
l 1 1
h 28
l 1 1
h 10
l 5 3
l 3 10
l -7 3
l -1 13
l 2 4
l 7 8
l 1 8
l 7 1
l -1 6
l 5 5
l 6 5
l 15 14
l 3 3
l 8 -9
l 7 -3
l 3 1
l 1 -10
l 8 -1
l 9 -5
l 6 5
l -3 -6
l 4 -4
l 11 14
l -4 6
l -3 15
l 3 1
v 22
l -2 7
l 7 -2
l 6 3
v 9
l 10 1
l 4 4
l 10 14
l 1 2
l 11 12
l -2 2
l -2 -1
h -1
l -8 3
l -3 12
v 3
l 5 8
l 7 3
v 3
h -1
v 7
l -3 5
l 11 15
h 8
v 25
l 9 -2
l 2 -8
v 15
h -4
l -3 1
h -16
l -5 1
h -31
l -5 1
h -27
v -5
h -22
l -1 -10
l 2 -9
l -3 2
l -1 -8
l -3 1
l 3 -4
l -4 -21
l -1 -10
h -6
l -22 2
l -3 -22
l -3 5
l -7 -1
l -8 1
l -3 -3
l -1 8
h -4
l -4 12
l -4 -14
l -3 -4
l -1 -1
l -2 -6
l -7 1
l -3 2
l -18 4
l -3 8
h -9
v -4
l -7 7
v 4
l -9 2
l -2 -17
l -11 1
l -5 -28
l -17 2
l -2 -1
h -10
l -9 6
h -1
l -1 -1
l -8 -1
l -23 2
h -1
Z"/>
<path data-race-id="MA03" d="M403 77
h 12
l 4 1
h 13
l 5 1
h 14
l 22 1
h 17
l 25 1
h 17
l 5 1
h 14
l 7 1
h 33
l 4 1
h 14
l 5 -7
l 2 -4
h 1
l 3 -3
l 1 -1
l 1 -2
h 10
l 7 2
l -1 -5
v -9
l -1 -5
l 1 -1
l 7 -7
l 6 -3
l 18 6
l 1 -3
l 2 -7
l 14 8
l -5 9
l -6 11
l -4 8
l -13 -1
l -2 -2
l -5 7
l -3 8
l 1 2
h 1
v 2
l 1 4
l 2 2
l -5 7
v 6
l 4 -3
l 2 10
l -6 2
l -3 -1
l -1 5
l -5 -4
h 1
l 1 -4
l -21 -13
h -6
l 1 9
l -3 6
l -4 1
l 1 3
l -9 15
l 4 3
l 2 12
l -2 6
v 10
l 7 3
l -4 1
l -17 18
l -7 -4
l -4 5
l -5 1
l -2 -5
l -2 5
l -6 2
l -1 4
l -1 4
l -2 10
l -1 8
h -11
l -11 3
l -4 4
l -10 -14
l -4 -4
l -10 -1
v -9
l -6 -3
l -7 2
l 2 -7
v -22
l -3 -1
l 3 -15
l 4 -6
l -11 -14
l -4 4
l 3 6
l -6 -5
l -9 5
l -8 1
l -1 10
l -3 -1
l -7 3
l -8 9
l -3 -3
l -15 -14
l -6 -5
l -5 -5
l 1 -6
l -7 -1
l -1 -8
l -7 -8
l -2 -4
l 1 -13
l 7 -3
l -3 -10
Z"/>
<path data-race-id="MA04" d="M529 252
l 3 -12
l 8 -3
h 1
l 2 1
h 6
v 4
l 10 2
v 6
h 6
l 2 5
l -12 10
l 1 8
h 6
v 4
l 4 -1
l 7 -7
h 9
l -1 -4
l 6 -1
l 10 -3
l 1 -5
l 2 -12
l 7 -1
l -1 -7
l -5 -15
l 15 -6
l 4 -3
l -1 -6
l 11 -5
l 14 3
l -1 9
l 3 1
l 8 -7
h 5
l -3 10
l -8 9
l -4 -2
l -7 7
l 1 1
l -2 4
h -6
l -4 4
l -4 20
l -5 1
l -2 4
v 14
h -8
l 1 9
l 6 13
l 2 -4
l 9 -3
l 1 -9
l 11 -6
l 4 -6
l 4 8
l 3 2
l 5 9
l -2 14
l 15 -8
l 4 16
l 4 23
l -9 -2
l 2 5
l -3 12
l 7 -2
l 13 10
l 1 5
l 4 -3
h 2
v 3
h -1
v 1
v -1
h 3
l 18 10
l -1 9
l 7 8
v 13
l -7 1
l 4 10
l -5 2
l 1 1
l -6 3
l -5 5
l -13 8
v -13
l -16 -4
l -1 6
l -4 3
h -3
l -1 8
l -5 5
l -11 1
v -4
l 3 -6
l 6 -6
l 3 -9
h 1
l 1 -1
l 1 -5
l 6 -7
l -1 -2
h -2
l -4 8
l -1 -14
l -2 10
v 2
l 2 5
l -5 4
v 6
l -8 11
l -8 3
v -3
l -8 -4
v 6
l -3 -4
l -4 -8
l -1 -1
l -2 -2
l -2 -1
l -3 -1
v -1
h -1
l -1 -1
l -2 -1
l -2 -1
h -2
v -2
h -1
l -1 -1
l -2 -1
l -1 -1
l 1 -1
l -1 -1
l -2 -2
v -1
h -1
l 1 -1
v -3
l -2 -5
l 1 -8
l 1 -2
l -1 -11
l 1 -5
h -4
l -6 1
l -2 -7
v -37
h -20
v -15
l -2 8
l -9 2
v -25
h -8
l -11 -15
l 3 -5
v -7
h 1
v -3
l -7 -3
l -5 -8
Z"/>
<path data-race-id="MA05" d="M533 222
l 4 -4
l 11 -3
h 11
l 1 -8
l 2 -10
l 1 -4
l 1 -4
l 6 -2
l 2 -5
l 2 5
l 5 -1
l 4 -5
l 7 4
l 17 -18
l 4 -1
l 4 3
l 3 -7
l 6 -5
l 7 9
h 2
l 10 -7
l -1 -11
l 9 -5
l 4 10
h 6
l 6 5
l -1 5
l 7 -1
l 8 11
l 3 2
v 1
l 7 2
l -2 9
l 3 4
v 2
h 4
v 11
l -1 1
l -1 -1
l 1 -5
l -5 1
l -2 -5
v 1
l 3 -3
l -2 -2
l -5 -1
l -5 -6
l 1 -4
l -12 4
v 4
h -1
v 2
l -10 -1
l -5 -5
v 4
l -5 1
l -1 2
l 6 4
l 2 -4
l 2 2
l 7 5
l -7 4
h -7
l -5 2
l -14 -3
l -11 5
l 1 6
l -4 3
l -15 6
l 5 15
l 1 7
l -7 1
l -2 12
l -1 5
l -10 3
l -6 1
l 1 4
h -9
l -7 7
l -4 1
v -4
h -6
l -1 -8
l 12 -10
l -2 -5
h -6
v -6
l -10 -2
v -4
h -6
l 2 -2
l -11 -12
Z"/>
<path data-race-id="MA06" d="M600 132
l 9 -15
l -1 -3
l 4 -1
l 3 -6
l -1 -9
h 6
l 21 13
l -1 4
h -1
l 5 4
l 1 -5
l 3 1
l 6 -2
l -2 -10
l -4 3
v -6
l 5 -7
l -2 -2
l -1 -4
v -2
h -1
l -1 -2
l 3 -8
l 5 -7
l 2 2
l 13 1
l 4 -8
l 6 -11
l 5 -9
l -14 -8
l 1 -3
l 4 -6
l 5 -1
l 2 -1
h 2
l 2 -1
l 6 -1
h 1
l 4 -3
l 4 -2
v -1
h 1
l 4 -1
h 3
l 14 9
l 8 -3
l 2 17
h -9
l -4 2
l -7 -3
v 1
l 10 8
h 6
v -1
h 1
v -1
l 2 -1
v 2
l 2 -1
l -1 -1
l 1 -3
v 3
l 1 10
l 3 10
l 2 4
v 1
l 4 12
l -4 1
l -3 -10
v -1
l -3 -6
l -4 -1
v 7
l 3 7
l 5 2
l 1 6
l 12 2
l 5 7
l -10 -4
l -5 2
l 9 1
h 1
l -1 1
l -4 7
h 7
v -2
l 1 1
l 4 -5
l 13 4
l -3 -5
l 10 -9
l 1 1
h 4
v 9
h 7
l 2 9
l -8 3
v 1
l -3 7
l -8 9
l 3 -6
l -6 -4
l -2 6
l -9 6
l -11 2
l -2 3
h -7
v -1
l -8 5
l -12 1
l -2 3
l -9 -3
l -1 -1
l 1 3
l 1 -1
l 5 4
v -1
h 6
l -6 8
l 1 6
l 1 -1
l 4 -7
l 7 3
l -4 7
l -6 4
l -1 2
l -3 5
l -8 -2
l -2 2
l -2 5
l 1 5
l 7 2
l -7 4
l -1 -14
h -1
l -7 4
l -4 5
l -7 -2
v -1
l -3 -2
l -8 -11
l -7 1
l 1 -5
l -6 -5
h -6
l -4 -10
l -9 5
l 1 11
l -10 7
h -2
l -7 -9
l -6 5
l -3 7
l -4 -3
l -7 -3
v -10
l 2 -6
l -2 -12
Z"/>
<path data-race-id="MA07" d="M644 204
l 5 -2
h 7
l 7 -4
l -7 -5
l -2 -2
l -2 4
l -6 -4
l 1 -2
l 5 -1
v -4
l 5 5
l 10 1
v 3
l 8 4
l -5 3
l -3 4
l 7 3
l -4 9
l 4 2
l -1 15
v 3
h -10
v 11
l 3 7
l -1 5
h 8
l 1 -1
h 1
v 5
l 8 3
v 2
l -1 4
l -3 11
l -6 -6
l -3 -4
l -9 -13
l -8 -9
v -1
l -7 -9
v -3
l 12 -13
l 2 -7
l -4 -1
l 3 -10
h -5
l -8 7
l -3 -1
Z
M668 188
v -4
l 12 -4
l -1 4
l 5 6
l 5 1
l 2 2
l -3 3
l -2 1
h 1
l -1 5
h 1
l 3 1
l 1 1
l -6 4
l -10 -9
l 4 -4
v -1
h -2
l -3 -2
l -6 1
l 1 -2
l -1 1
v -4
Z"/>
<path data-race-id="MA08" d="M607 279
h 8
v -14
l 2 -4
l 5 -1
l 4 -20
l 4 -4
h 6
l 2 -4
l -1 -1
l 7 -7
l 4 2
l 8 -9
l 4 1
l -2 7
l -12 13
v 3
l 7 9
v 1
l 8 9
l 9 13
l 3 4
l 6 6
l 3 -11
l 1 -4
v -2
l -8 -3
v -5
h -1
l -1 1
h -8
l 1 -5
l -3 -7
v -11
h 10
v -3
l 1 -15
l -4 -2
l 4 -9
l -7 -3
l 3 -4
l 1 1
l 3 4
l 10 5
v 2
l -8 2
l -1 11
l 2 6
v -6
l 9 1
l -4 3
l 13 9
l 6 -5
l -3 10
v 2
l 6 -5
l 1 3
l 5 -5
h 6
l 3 6
l 3 -7
v 1
l -4 -15
l 5 10
l 11 4
l 10 5
l -1 4
h 1
v -1
l 6 -3
l 3 9
l 8 6
l 2 14
l -5 2
h -5
l -6 -7
l -9 -4
h -8
l -13 8
l -10 6
l -4 1
l -1 2
l 2 4
l 6 13
l 4 5
h -3
l 1 9
l 4 15
l -1 8
l -3 5
l 1 5
l -7 3
l -3 9
l -7 -2
l -8 4
l 1 5
h 2
v 3
h -1
v 1
v -1
h 1
v -3
h -2
l -4 3
l -1 -5
l -13 -10
l -7 2
l 3 -12
l -2 -5
l 9 2
l -4 -23
l -4 -16
l -15 8
l 2 -14
l -5 -9
l -3 -2
l -4 -8
l -4 6
l -11 6
l -1 9
l -9 3
l -2 4
l -6 -13
Z"/>
<path data-race-id="MA09" d="M645 437
v 4
l 11 -1
l 5 -5
l 1 -8
h 3
l 4 -3
l 1 -6
l 16 4
v 13
l 13 -8
l 5 -5
l 6 -3
l -1 -1
l 5 -2
l -4 -10
l 7 -1
v -13
l -7 -8
l 1 -9
l -18 -10
h -3
h 1
v -3
h -2
l -1 -5
l 8 -4
l 7 2
l 3 -9
l 7 -3
l -1 -5
l 3 -5
l 1 -8
l -4 -15
l -1 -9
h 3
l -4 -5
l -6 -13
l -2 -4
l 1 -2
l 4 -1
l 10 -6
l 13 -8
h 8
l 9 4
l 6 7
h 5
l 5 1
l 4 6
h 1
l 5 6
l 10 14
l -2 5
l 5 14
l 4 3
l 3 5
l -7 7
l -2 -2
l 6 -5
v -2
l -9 -11
l -5 2
l -2 6
l 3 5
l -6 -1
l -6 3
v 1
l 3 5
l 2 2
l 4 2
l 4 7
l 8 3
l -5 -12
l 8 15
l 7 -3
l 12 7
l 5 14
l 2 12
l -5 9
l 2 7
l 1 2
l 1 1
l 3 3
l 1 1
h 1
v 2
l 5 4
l 1 1
h 1
l 15 8
h 1
l 10 2
h 2
l 4 1
l 2 1
h 18
l 1 3
l -16 1
l -1 3
l 7 2
l 17 -1
l 2 -3
h 1
l 2 -2
l 1 -1
l 1 -2
h 1
l 1 -1
l 1 -1
l 1 -1
l 1 -1
h 2
l 1 -1
l 2 -1
h 4
l 5 -2
l 1 -1
l 1 1
l 2 -2
h 3
l 3 1
l 1 -1
h 1
l 1 -1
h 2
l 4 -2
h 2
l 3 -1
h 1
l 2 -2
h 2
l 1 -1
h 1
l 1 -1
l 4 -2
h 1
l 3 -4
l 1 -1
l 1 -14
l -2 -14
l 1 -1
l -3 -3
l 3 -5
l -8 -5
l -1 -4
l -9 9
v -11
l -2 -8
v -13
l -3 -11
l -10 -9
l -5 -3
h -1
l -7 1
l -5 4
v 8
l -3 1
l -3 -8
l -8 -8
l 6 -4
l 9 -1
l 9 1
l 10 3
l 15 10
l 6 7
l 1 1
l 1 1
l 1 2
h 1
l 1 2
v 1
l 1 2
l 1 1
l 1 2
l 1 2
l 1 1
l 1 2
l 1 2
v 2
l 1 1
l 1 3
l 9 24
v 2
l 4 17
l -1 6
h -1
v -1
l -3 -1
l -6 8
l -1 2
l 7 -7
l 8 5
l 2 26
v 14
l -1 1
v -16
l -3 -14
l -8 1
l 1 8
l -7 3
v 1
l -1 5
h 1
l 4 -3
l 2 5
h 7
v 13
l -4 7
l -4 -6
l -2 4
l -4 -4
h -1
v -1
l -4 1
h -3
l -5 1
l -6 2
l -2 -1
l -9 3
h -1
v 1
l -1 -1
l -2 1
h -2
v 1
h -10
l -5 2
h -1
v -2
l 1 -2
l -2 1
l -5 6
l -1 1
l -7 3
l -3 6
l -3 -5
l 8 -3
l -3 -4
l -6 -1
l -1 -1
v 5
l -11 4
l -7 -4
l -7 4
l 1 4
l -8 3
v -6
l -3 -2
l -7 3
l -1 6
v 2
h -1
l -1 3
l -1 1
l -3 -4
v -1
l -3 4
l 5 4
v 1
l -1 1
v 1
l -1 1
l -2 2
l -2 2
l -2 1
h -1
l -1 1
h -5
l -1 1
h -2
l 2 -7
v -1
l -3 -3
l -1 11
h -1
l -1 -1
h -1
l -1 1
h -2
l -6 1
l -1 1
h -5
l -1 1
h -6
l -3 2
l -2 1
l -1 1
l -1 1
v 1
l -1 1
v 2
l -1 1
l -6 -5
l 6 -6
v -6
l 4 -4
l -3 -13
l 3 -7
l -3 -6
l 9 -4
l -1 -1
h -8
v -4
h 9
l -3 -8
l -8 5
l 3 -5
l 8 -2
l 1 -7
l -4 -4
l 1 -5
l 1 -1
l -10 3
l 2 8
l -6 -4
l -10 -1
l 2 -4
l -7 1
l 2 5
l -7 -5
v 1
l 9 9
v 11
l -11 -11
l 4 12
l -6 -1
v 1
l 2 9
l -16 -2
l -2 3
l 6 3
l -10 5
l -1 -1
l -4 2
v 1
h 1
v 3
l 1 1
l 2 5
l -1 1
l -1 1
v 3
l -2 -4
h -1
l -1 -2
l 1 -1
l -1 -3
h -1
v -5
h -1
v -1
l -1 -1
h -1
l -1 -1
l -1 2
l -1 1
l -7 -9
l 1 -5
v -2
h -1
l -1 11
l 6 13
l -2 3
l -6 -6
v 10
l -4 1
l -4 -7
l -1 5
l 4 1
l 5 16
l -5 1
v 8
l -4 -7
l -5 5
l 1 3
l -11 2
l -4 3
l -4 -3
l -11 -2
l 12 -2
l -2 -15
l -5 -4
l 3 9
l -3 10
l -8 -10
l -5 -1
l 6 7
l 3 8
l -8 3
v -4
l -1 -1
v -1
l -1 -13
v -5
l -1 -3
l -2 -11
h -1
v -7
l 1 -1
l 1 -10
v -2
h -2
l -1 -1
h -4
l -1 -1
h -3
v -2
h -3
v -1
h -3
v -1
Z
M850 464
l -1 5
v 1
h -8
l 6 -8
Z
M955 559
l 11 19
l 4 10
l -2 6
l -12 6
l -13 -2
l -15 1
l -13 -4
l -17 -9
l 9 -1
l -1 -5
h 22
l 6 2
l 1 4
l 6 -7
l 5 1
l 6 -5
l -2 -3
l 8 -4
l -6 -6
l -3 7
l -9 7
l 8 -9
l 4 -14
Z
M956 491
l -4 -2
l 6 -9
v -12
l 6 -13
l -5 23
v 10
Z
M888 575
l 6 6
l -6 -1
l -4 -4
Z
M797 534
v -2
l 8 -13
l 4 5
l 2 14
v 1
l -1 -1
l -2 -6
l -3 6
l 14 6
l 3 3
v 12
l 2 3
h 9
l -2 -4
l -8 -3
v -4
l 9 -6
l 5 6
l 1 11
h -38
l -10 1
h -3
l -6 1
l -19 3
l -9 7
l -2 6
l -4 -3
l -4 -2
l -9 -9
l 7 -6
l 6 3
l 1 7
h 2
l 4 -4
l -1 -6
l 6 -7
l 2 -7
l 5 -4
l 1 -1
l 3 -8
l 8 -3
l 3 -7
h 1
l 14 -8
l 1 10
l 3 2
Z
M769 504
l 7 2
l -9 2
l -2 6
l -11 4
l 1 4
l -12 6
l -1 -7
l 9 -4
l 9 -9
Z
M739 525
l 2 4
l -6 2
l -2 -6
Z
M730 534
l -6 4
h -8
l 13 -9
Z"/>
</g>
  <path class="districts-mesh" d="M543 238
l -2 -1
h -1
l -8 3
l -3 12
v 3
l 5 8
l 7 3
v 3
h -1
v 7
l -3 5
l 11 15
h 8
v 25
l 9 -2
l 2 -8
v 15
M289 72
l 6 18
l 1 5
l -14 3
l -11 2
l -10 1
h -3
l -4 24
h 3
l -5 8
l -5 1
l 7 8
l -4 22
l 2 -1
l -1 5
l -12 2
l -1 16
l 10 -1
l -1 14
l -18 2
v 28
h 1
l 23 -2
l 8 1
l 1 1
h 1
l 9 -6
h 10
l 2 1
l 17 -2
l 5 28
l 11 -1
l 2 17
l 9 -2
v -4
l 7 -7
v 4
h 9
l 3 -8
l 18 -4
l 3 -2
l 7 -1
l 2 6
l 1 1
l 3 4
l 4 14
l 4 -12
h 4
l 1 -8
l 3 3
l 8 -1
l 7 1
l 3 -5
l 3 22
l 22 -2
h 6
l 1 10
l 4 21
l -3 4
l 3 -1
l 1 8
l 3 -2
l -2 9
l 1 10
M403 77
l 5 3
l 3 10
l -7 3
l -1 13
l 2 4
l 7 8
l 1 8
l 7 1
l -1 6
l 5 5
l 6 5
l 15 14
l 3 3
l 8 -9
l 7 -3
l 3 1
l 1 -10
l 8 -1
l 9 -5
l 6 5
l -3 -6
l 4 -4
l 11 14
l -4 6
l -3 15
l 3 1
v 22
l -2 7
l 7 -2
l 6 3
v 9
l 10 1
l 4 4
l 10 14
l 1 2
l 11 12
l -2 2
h 6
v 4
l 10 2
v 6
h 6
l 2 5
l -12 10
l 1 8
h 6
v 4
l 4 -1
l 7 -7
h 9
l -1 -4
l 6 -1
l 10 -3
l 1 -5
l 2 -12
l 7 -1
l -1 -7
l -5 -15
l 15 -6
l 4 -3
l -1 -6
l 11 -5
l 14 3
l -1 9
l 3 1
l 8 -7
h 5
l -3 10
l -8 9
l -4 -2
l -7 7
l 1 1
l -2 4
h -6
l -4 4
l -4 20
l -5 1
l -2 4
v 14
h -8
l 1 9
l 6 13
l 2 -4
l 9 -3
l 1 -9
l 11 -6
l 4 -6
l 4 8
l 3 2
l 5 9
l -2 14
l 15 -8
l 4 16
l 4 23
l -9 -2
l 2 5
l -3 12
l 7 -2
l 13 10
l 1 5
l 4 -3
h 2
v 3
h -1
v 1
v -1
h 3
l 18 10
l -1 9
l 7 8
v 13
l -7 1
l 4 10
l -5 2
l 1 1
l -6 3
l -5 5
l -13 8
v -13
l -16 -4
l -1 6
l -4 3
h -3
l -1 8
l -5 5
l -11 1
v -4
M611 166
l 4 3
l 3 -7
l 6 -5
l 7 9
h 2
l 10 -7
l -1 -11
l 9 -5
l 4 10
h 6
l 6 5
l -1 5
l 7 -1
l 8 11
l 3 2
v 1
l 7 2
M688 196
l 3 -3
l -2 -2
l -5 -1
l -5 -6
l 1 -4
l -12 4
v 4
M667 190
l -10 -1
l -5 -5
v 4
l -5 1
l -1 2
l 6 4
l 2 -4
l 2 2
l 7 5
l -7 4
h -7
l -5 2
M670 200
l -3 4
l 7 3
l -4 9
l 4 2
l -1 15
v 3
h -10
v 11
l 3 7
l -1 5
h 8
l 1 -1
h 1
v 5
l 8 3
v 2
l -1 4
l -3 11
l -6 -6
l -3 -4
l -9 -13
l -8 -9
v -1
l -7 -9
v -3
l 12 -13
l 2 -7
l -4 -1
M758 273
h -5
l -6 -7
l -9 -4
h -8
l -13 8
l -10 6
l -4 1
l -1 2
l 2 4
l 6 13
l 4 5
h -3
l 1 9
l 4 15
l -1 8
l -3 5
l 1 5
l -7 3
l -3 9
l -7 -2
l -8 4
l 1 5
h 2
v 3
h -1
M672 35
l 14 8
l -5 9
l -6 11
l -4 8
l -13 -1
l -2 -2
l -5 7
l -3 8
l 1 2
h 1
v 2
l 1 4
l 2 2
l -5 7
v 6
l 4 -3
l 2 10
l -6 2
l -3 -1
l -1 5
l -5 -4
h 1
l 1 -4
l -21 -13
h -6
l 1 9
l -3 6
l -4 1
l 1 3
l -9 15
l 4 3
l 2 12
l -2 6
v 10
l 7 3
l -4 1
l -17 18
l -7 -4
l -4 5
l -5 1
l -2 -5
l -2 5
l -6 2
l -1 4
l -1 4
l -2 10
l -1 8
h -11
l -11 3
l -4 4"/>
</svg>