<svg version="1.1" xmlns="http://www.w3.org/2000/svg" width="1000" height="616" viewBox="0 0 1000 616"><path data-race-id="MA01" d="M67,151v-1l4,-12l6,-20l2,-6l2,-8l1,-1l3,-12l4,-15l1,-5l3,-8l27,1l24,1h2l2,1h9l23,1h8l23,1h1l11,1l24,1h10l8,1h11l13,1l6,18l1,5l-14,3l-11,2l-10,1h-3l-4,24h3l-5,8l-5,1l7,8l-4,22l2,-1l-1,5l-12,2l-1,16l10,-1l-1,14l-18,2v28h1l23,-2l8,1l1,1h1l9,-6h10l2,1l17,-2l5,28l11,-1l2,17l9,-2v-4l7,-7v4h9l3,-8l18,-4l3,-2l7,-1l2,6l1,1l3,4l4,14l4,-12h4l1,-8l3,3l8,-1l7,1l3,-5l3,22l22,-2h6l1,10l4,21l-3,4l3,-1l1,8l3,-2l-2,9l1,10h-16l-1,-1h-13l-11,-1h-24l-1,-1h-53l-8,-1h-9l-16,-1h-19l-8,1l-3,1l-3,1h-6l-1,-1v-1h-7l-6,-1l-5,-1h-21l1,2v1l-1,3l-1,-1l-1,1v-1h-1h1v1h-1h1v1h1l-1,1v2l-2,2l-12,2l1,-14l-6,-1h-38l-4,-1h-14l-2,-1h-13l-18,-1l-16,-1l-4,-1h-17l-4,-1l-21,-1h-24l-1,-3l-1,-4v-6l6,-24l1,-1l6,-22l8,-28l6,-19l8,-26v-1l6,-23Z"/><path data-race-id="MA02" d="M229,201l18,-2l1,-14l-10,1l1,-16l12,-2l1,-5l-2,1l4,-22l-7,-8l5,-1l5,-8h-3l4,-24h3l10,-1l11,-2l14,-3l-1,-5l-6,-18l13,1h20l4,1h12l12,1h13l1,1h28l1,1h10l5,3l3,10l-7,3l-1,13l2,4l7,8l1,8l7,1l-1,6l5,5l6,5l15,14l3,3l8,-9l7,-3l3,1l1,-10l8,-1l9,-5l6,5l-3,-6l4,-4l11,14l-4,6l-3,15l3,1v22l-2,7l7,-2l6,3v9l10,1l4,4l10,14l1,2l11,12l-2,2l-2,-1h-1l-8,3l-3,12v3l5,8l7,3v3h-1v7l-3,5l11,15h8v25l9,-2l2,-8v15h-4l-3,1h-16l-5,1h-31l-5,1h-27v-5h-22l-1,-10l2,-9l-3,2l-1,-8l-3,1l3,-4l-4,-21l-1,-10h-6l-22,2l-3,-22l-3,5l-7,-1l-8,1l-3,-3l-1,8h-4l-4,12l-4,-14l-3,-4l-1,-1l-2,-6l-7,1l-3,2l-18,4l-3,8h-9v-4l-7,7v4l-9,2l-2,-17l-11,1l-5,-28l-17,2l-2,-1h-10l-9,6h-1l-1,-1l-8,-1l-23,2h-1Z"/><path data-race-id="MA03" d="M403,77h12l4,1h13l5,1h14l22,1h17l25,1h17l5,1h14l7,1h33l4,1h14l5,-7l2,-4h1l3,-3l1,-1l1,-2h10l7,2l-1,-5v-9l-1,-5l1,-1l7,-7l6,-3l18,6l1,-3l2,-7l14,8l-5,9l-6,11l-4,8l-13,-1l-2,-2l-5,7l-3,8l1,2h1v2l1,4l2,2l-5,7v6l4,-3l2,10l-6,2l-3,-1l-1,5l-5,-4h1l1,-4l-21,-13h-6l1,9l-3,6l-4,1l1,3l-9,15l4,3l2,12l-2,6v10l7,3l-4,1l-17,18l-7,-4l-4,5l-5,1l-2,-5l-2,5l-6,2l-1,4l-1,4l-2,10l-1,8h-11l-11,3l-4,4l-10,-14l-4,-4l-10,-1v-9l-6,-3l-7,2l2,-7v-22l-3,-1l3,-15l4,-6l-11,-14l-4,4l3,6l-6,-5l-9,5l-8,1l-1,10l-3,-1l-7,3l-8,9l-3,-3l-15,-14l-6,-5l-5,-5l1,-6l-7,-1l-1,-8l-7,-8l-2,-4l1,-13l7,-3l-3,-10Z"/><path data-race-id="MA04" d="M529,252l3,-12l8,-3h1l2,1h6v4l10,2v6h6l2,5l-12,10l1,8h6v4l4,-1l7,-7h9l-1,-4l6,-1l10,-3l1,-5l2,-12l7,-1l-1,-7l-5,-15l15,-6l4,-3l-1,-6l11,-5l14,3l-1,9l3,1l8,-7h5l-3,10l-8,9l-4,-2l-7,7l1,1l-2,4h-6l-4,4l-4,20l-5,1l-2,4v14h-8l1,9l6,13l2,-4l9,-3l1,-9l11,-6l4,-6l4,8l3,2l5,9l-2,14l15,-8l4,16l4,23l-9,-2l2,5l-3,12l7,-2l13,10l1,5l4,-3h2v3h-1v1v-1h3l18,10l-1,9l7,8v13l-7,1l4,10l-5,2l1,1l-6,3l-5,5l-13,8v-13l-16,-4l-1,6l-4,3h-3l-1,8l-5,5l-11,1v-4l3,-6l6,-6l3,-9h1l1,-1l1,-5l6,-7l-1,-2h-2l-4,8l-1,-14l-2,10v2l2,5l-5,4v6l-8,11l-8,3v-3l-8,-4v6l-3,-4l-4,-8l-1,-1l-2,-2l-2,-1l-3,-1v-1h-1l-1,-1l-2,-1l-2,-1h-2v-2h-1l-1,-1l-2,-1l-1,-1l1,-1l-1,-1l-2,-2v-1h-1l1,-1v-3l-2,-5l1,-8l1,-2l-1,-11l1,-5h-4l-6,1l-2,-7v-37h-20v-15l-2,8l-9,2v-25h-8l-11,-15l3,-5v-7h1v-3l-7,-3l-5,-8Z"/><path data-race-id="MA05" d="M533,222l4,-4l11,-3h11l1,-8l2,-10l1,-4l1,-4l6,-2l2,-5l2,5l5,-1l4,-5l7,4l17,-18l4,-1l4,3l3,-7l6,-5l7,9h2l10,-7l-1,-11l9,-5l4,10h6l6,5l-1,5l7,-1l8,11l3,2v1l7,2l-2,9l3,4v2h4v11l-1,1l-1,-1l1,-5l-5,1l-2,-5v1l3,-3l-2,-2l-5,-1l-5,-6l1,-4l-12,4v4h-1v2l-10,-1l-5,-5v4l-5,1l-1,2l6,4l2,-4l2,2l7,5l-7,4h-7l-5,2l-14,-3l-11,5l1,6l-4,3l-15,6l5,15l1,7l-7,1l-2,12l-1,5l-10,3l-6,1l1,4h-9l-7,7l-4,1v-4h-6l-1,-8l12,-10l-2,-5h-6v-6l-10,-2v-4h-6l2,-2l-11,-12Z"/><path data-race-id="MA06" d="M600,132l9,-15l-1,-3l4,-1l3,-6l-1,-9h6l21,13l-1,4h-1l5,4l1,-5l3,1l6,-2l-2,-10l-4,3v-6l5,-7l-2,-2l-1,-4v-2h-1l-1,-2l3,-8l5,-7l2,2l13,1l4,-8l6,-11l5,-9l-14,-8l1,-3l4,-6l5,-1l2,-1h2l2,-1l6,-1h1l4,-3l4,-2v-1h1l4,-1h3l14,9l8,-3l2,17h-9l-4,2l-7,-3v1l10,8h6v-1h1v-1l2,-1v2l2,-1l-1,-1l1,-3v3l1,10l3,10l2,4v1l4,12l-4,1l-3,-10v-1l-3,-6l-4,-1v7l3,7l5,2l1,6l12,2l5,7l-10,-4l-5,2l9,1h1l-1,1l-4,7h7v-2l1,1l4,-5l13,4l-3,-5l10,-9l1,1h4v9h7l2,9l-8,3v1l-3,7l-8,9l3,-6l-6,-4l-2,6l-9,6l-11,2l-2,3h-7v-1l-8,5l-12,1l-2,3l-9,-3l-1,-1l1,3l1,-1l5,4v-1h6l-6,8l1,6l1,-1l4,-7l7,3l-4,7l-6,4l-1,2l-3,5l-8,-2l-2,2l-2,5l1,5l7,2l-7,4l-1,-14h-1l-7,4l-4,5l-7,-2v-1l-3,-2l-8,-11l-7,1l1,-5l-6,-5h-6l-4,-10l-9,5l1,11l-10,7h-2l-7,-9l-6,5l-3,7l-4,-3l-7,-3v-10l2,-6l-2,-12Z"/><path data-race-id="MA07" d="M644,204l5,-2h7l7,-4l-7,-5l-2,-2l-2,4l-6,-4l1,-2l5,-1v-4l5,5l10,1v3l8,4l-5,3l-3,4l7,3l-4,9l4,2l-1,15v3h-10v11l3,7l-1,5h8l1,-1h1v5l8,3v2l-1,4l-3,11l-6,-6l-3,-4l-9,-13l-8,-9v-1l-7,-9v-3l12,-13l2,-7l-4,-1l3,-10h-5l-8,7l-3,-1ZM668,188v-4l12,-4l-1,4l5,6l5,1l2,2l-3,3l-2,1h1l-1,5h1l3,1l1,1l-6,4l-10,-9l4,-4v-1h-2l-3,-2l-6,1l1,-2l-1,1v-4Z"/><path data-race-id="MA08" d="M607,279h8v-14l2,-4l5,-1l4,-20l4,-4h6l2,-4l-1,-1l7,-7l4,2l8,-9l4,1l-2,7l-12,13v3l7,9v1l8,9l9,13l3,4l6,6l3,-11l1,-4v-2l-8,-3v-5h-1l-1,1h-8l1,-5l-3,-7v-11h10v-3l1,-15l-4,-2l4,-9l-7,-3l3,-4l1,1l3,4l10,5v2l-8,2l-1,11l2,6v-6l9,1l-4,3l13,9l6,-5l-3,10v2l6,-5l1,3l5,-5h6l3,6l3,-7v1l-4,-15l5,10l11,4l10,5l-1,4h1v-1l6,-3l3,9l8,6l2,14l-5,2h-5l-6,-7l-9,-4h-8l-13,8l-10,6l-4,1l-1,2l2,4l6,13l4,5h-3l1,9l4,15l-1,8l-3,5l1,5l-7,3l-3,9l-7,-2l-8,4l1,5h2v3h-1v1v-1h1v-3h-2l-4,3l-1,-5l-13,-10l-7,2l3,-12l-2,-5l9,2l-4,-23l-4,-16l-15,8l2,-14l-5,-9l-3,-2l-4,-8l-4,6l-11,6l-1,9l-9,3l-2,4l-6,-13Z"/><path data-race-id="MA09" d="M645,437v4l11,-1l5,-5l1,-8h3l4,-3l1,-6l16,4v13l13,-8l5,-5l6,-3l-1,-1l5,-2l-4,-10l7,-1v-13l-7,-8l1,-9l-18,-10h-3h1v-3h-2l-1,-5l8,-4l7,2l3,-9l7,-3l-1,-5l3,-5l1,-8l-4,-15l-1,-9h3l-4,-5l-6,-13l-2,-4l1,-2l4,-1l10,-6l13,-8h8l9,4l6,7h5l5,1l4,6h1l5,6l10,14l-2,5l5,14l4,3l3,5l-7,7l-2,-2l6,-5v-2l-9,-11l-5,2l-2,6l3,5l-6,-1l-6,3v1l3,5l2,2l4,2l4,7l8,3l-5,-12l8,15l7,-3l12,7l5,14l2,12l-5,9l2,7l1,2l1,1l3,3l1,1h1v2l5,4l1,1h1l15,8h1l10,2h2l4,1l2,1h18l1,3l-16,1l-1,3l7,2l17,-1l2,-3h1l2,-2l1,-1l1,-2h1l1,-1l1,-1l1,-1l1,-1h2l1,-1l2,-1h4l5,-2l1,-1l1,1l2,-2h3l3,1l1,-1h1l1,-1h2l4,-2h2l3,-1h1l2,-2h2l1,-1h1l1,-1l4,-2h1l3,-4l1,-1l1,-14l-2,-14l1,-1l-3,-3l3,-5l-8,-5l-1,-4l-9,9v-11l-2,-8v-13l-3,-11l-10,-9l-5,-3h-1l-7,1l-5,4v8l-3,1l-3,-8l-8,-8l6,-4l9,-1l9,1l10,3l15,10l6,7l1,1l1,1l1,2h1l1,2v1l1,2l1,1l1,2l1,2l1,1l1,2l1,2v2l1,1l1,3l9,24v2l4,17l-1,6h-1v-1l-3,-1l-6,8l-1,2l7,-7l8,5l2,26v14l-1,1v-16l-3,-14l-8,1l1,8l-7,3v1l-1,5h1l4,-3l2,5h7v13l-4,7l-4,-6l-2,4l-4,-4h-1v-1l-4,1h-3l-5,1l-6,2l-2,-1l-9,3h-1v1l-1,-1l-2,1h-2v1h-10l-5,2h-1v-2l1,-2l-2,1l-5,6l-1,1l-7,3l-3,6l-3,-5l8,-3l-3,-4l-6,-1l-1,-1v5l-11,4l-7,-4l-7,4l1,4l-8,3v-6l-3,-2l-7,3l-1,6v2h-1l-1,3l-1,1l-3,-4v-1l-3,4l5,4v1l-1,1v1l-1,1l-2,2l-2,2l-2,1h-1l-1,1h-5l-1,1h-2l2,-7v-1l-3,-3l-1,11h-1l-1,-1h-1l-1,1h-2l-6,1l-1,1h-5l-1,1h-6l-3,2l-2,1l-1,1l-1,1v1l-1,1v2l-1,1l-6,-5l6,-6v-6l4,-4l-3,-13l3,-7l-3,-6l9,-4l-1,-1h-8v-4h9l-3,-8l-8,5l3,-5l8,-2l1,-7l-4,-4l1,-5l1,-1l-10,3l2,8l-6,-4l-10,-1l2,-4l-7,1l2,5l-7,-5v1l9,9v11l-11,-11l4,12l-6,-1v1l2,9l-16,-2l-2,3l6,3l-10,5l-1,-1l-4,2v1h1v3l1,1l2,5l-1,1l-1,1v3l-2,-4h-1l-1,-2l1,-1l-1,-3h-1v-5h-1v-1l-1,-1h-1l-1,-1l-1,2l-1,1l-7,-9l1,-5v-2h-1l-1,11l6,13l-2,3l-6,-6v10l-4,1l-4,-7l-1,5l4,1l5,16l-5,1v8l-4,-7l-5,5l1,3l-11,2l-4,3l-4,-3l-11,-2l12,-2l-2,-15l-5,-4l3,9l-3,10l-8,-10l-5,-1l6,7l3,8l-8,3v-4l-1,-1v-1l-1,-13v-5l-1,-3l-2,-11h-1v-7l1,-1l1,-10v-2h-2l-1,-1h-4l-1,-1h-3v-2h-3v-1h-3v-1ZM850,464l-1,5v1h-8l6,-8ZM955,559l11,19l4,10l-2,6l-12,6l-13,-2l-15,1l-13,-4l-17,-9l9,-1l-1,-5h22l6,2l1,4l6,-7l5,1l6,-5l-2,-3l8,-4l-6,-6l-3,7l-9,7l8,-9l4,-14ZM956,491l-4,-2l6,-9v-12l6,-13l-5,23v10ZM888,575l6,6l-6,-1l-4,-4ZM797,534v-2l8,-13l4,5l2,14v1l-1,-1l-2,-6l-3,6l14,6l3,3v12l2,3h9l-2,-4l-8,-3v-4l9,-6l5,6l1,11h-38l-10,1h-3l-6,1l-19,3l-9,7l-2,6l-4,-3l-4,-2l-9,-9l7,-6l6,3l1,7h2l4,-4l-1,-6l6,-7l2,-7l5,-4l1,-1l3,-8l8,-3l3,-7h1l14,-8l1,10l3,2ZM769,504l7,2l-9,2l-2,6l-11,4l1,4l-12,6l-1,-7l9,-4l9,-9ZM739,525l2,4l-6,2l-2,-6ZM730,534l-6,4h-8l13,-9Z"/>  <path class="mesh" d="M543,238l-2,-1h-1l-8,3l-3,12v3l5,8l7,3v3h-1v7l-3,5l11,15h8v25l9,-2l2,-8v15M289,72l6,18l1,5l-14,3l-11,2l-10,1h-3l-4,24h3l-5,8l-5,1l7,8l-4,22l2,-1l-1,5l-12,2l-1,16l10,-1l-1,14l-18,2v28h1l23,-2l8,1l1,1h1l9,-6h10l2,1l17,-2l5,28l11,-1l2,17l9,-2v-4l7,-7v4h9l3,-8l18,-4l3,-2l7,-1l2,6l1,1l3,4l4,14l4,-12h4l1,-8l3,3l8,-1l7,1l3,-5l3,22l22,-2h6l1,10l4,21l-3,4l3,-1l1,8l3,-2l-2,9l1,10M403,77l5,3l3,10l-7,3l-1,13l2,4l7,8l1,8l7,1l-1,6l5,5l6,5l15,14l3,3l8,-9l7,-3l3,1l1,-10l8,-1l9,-5l6,5l-3,-6l4,-4l11,14l-4,6l-3,15l3,1v22l-2,7l7,-2l6,3v9l10,1l4,4l10,14l1,2l11,12l-2,2h6v4l10,2v6h6l2,5l-12,10l1,8h6v4l4,-1l7,-7h9l-1,-4l6,-1l10,-3l1,-5l2,-12l7,-1l-1,-7l-5,-15l15,-6l4,-3l-1,-6l11,-5l14,3l-1,9l3,1l8,-7h5l-3,10l-8,9l-4,-2l-7,7l1,1l-2,4h-6l-4,4l-4,20l-5,1l-2,4v14h-8l1,9l6,13l2,-4l9,-3l1,-9l11,-6l4,-6l4,8l3,2l5,9l-2,14l15,-8l4,16l4,23l-9,-2l2,5l-3,12l7,-2l13,10l1,5l4,-3h2v3h-1v1v-1h3l18,10l-1,9l7,8v13l-7,1l4,10l-5,2l1,1l-6,3l-5,5l-13,8v-13l-16,-4l-1,6l-4,3h-3l-1,8l-5,5l-11,1v-4M611,166l4,3l3,-7l6,-5l7,9h2l10,-7l-1,-11l9,-5l4,10h6l6,5l-1,5l7,-1l8,11l3,2v1l7,2M688,196l3,-3l-2,-2l-5,-1l-5,-6l1,-4l-12,4v4M667,190l-10,-1l-5,-5v4l-5,1l-1,2l6,4l2,-4l2,2l7,5l-7,4h-7l-5,2M670,200l-3,4l7,3l-4,9l4,2l-1,15v3h-10v11l3,7l-1,5h8l1,-1h1v5l8,3v2l-1,4l-3,11l-6,-6l-3,-4l-9,-13l-8,-9v-1l-7,-9v-3l12,-13l2,-7l-4,-1M758,273h-5l-6,-7l-9,-4h-8l-13,8l-10,6l-4,1l-1,2l2,4l6,13l4,5h-3l1,9l4,15l-1,8l-3,5l1,5l-7,3l-3,9l-7,-2l-8,4l1,5h2v3h-1M672,35l14,8l-5,9l-6,11l-4,8l-13,-1l-2,-2l-5,7l-3,8l1,2h1v2l1,4l2,2l-5,7v6l4,-3l2,10l-6,2l-3,-1l-1,5l-5,-4h1l1,-4l-21,-13h-6l1,9l-3,6l-4,1l1,3l-9,15l4,3l2,12l-2,6v10l7,3l-4,1l-17,18l-7,-4l-4,5l-5,1l-2,-5l-2,5l-6,2l-1,4l-1,4l-2,10l-1,8h-11l-11,3l-4,4"/><g class="cities"><circle r="7" cx="672" cy="205"/><text x="672" y="205">Boston</text><circle r="7" cx="476" cy="239"/><text x="476" y="239">Worcester</text><circle r="7" cx="268" cy="296"/><text x="268" y="296">Springfield</text></g></svg>