<svg version="1.1" xmlns="http://www.w3.org/2000/svg" width="1000" height="527" viewBox="0 0 1000 527">
  <path d="M970 362
h 5
l -1 13
l -4 16
l -3 6
l 5 -20
Z
M666 403
l 5 7
l 6 1
l 8 -5
l 5 3
l -4 3
l -2 9
l 3 10
l 13 16
l 2 7
l -5 2
l -2 -6
l -1 9
l 6 3
v 14
l -8 -3
l -1 -6
l -7 -6
l -1 -6
l -4 5
l -4 -16
l 4 -6
l -12 -7
l 8 10
l -4 3
l 3 3
l -9 6
l -11 -4
l -4 -12
l -14 -8
l -13 -2
l 12 -9
l 1 -5
l -9 7
h -7
l -2 -9
l -4 -5
l 3 12
l -6 1
l 1 7
l -4 4
l -5 -1
l -5 -6
v -8
l -6 -6
l -3 -10
l 7 -6
h -5
l -8 -9
v 1
l -11 -1
l -1 2
l 14 5
l -2 10
l 3 1
l 3 10
l -1 6
l -17 -6
v -6
l -4 -6
l -7 -3
l -2 -11
l -4 -11
l -8 -15
v 10
l -15 10
l 1 -11
l -3 1
l -1 11
l -3 4
l -16 8
l -8 -6
l -3 -8
l 1 -7
l -3 -8
v -8
l 3 -8
l 7 -4
l -2 -4
l 8 -1
l 6 -3
h -9
l 6 -9
l 8 -2
l 7 -5
l -1 -12
l 9 -6
l 10 -3
l -1 -3
l 2 -9
l 4 -1
h -1
l -4 -2
l 1 -13
l 21 -21
v -1
l 3 -2
l 1 -1
h -1
v -1
h -1
v -1
h -1
v -1
h -1
v -1
h -1
v -1
h -1
l -1 -1
v -1
l -1 -1
l -2 -2
h -1
v -1
h -1
v -1
h -1
v -1
h -1
v -1
h -1
v -1
l -1 -1
h -1
v -1
h -1
v -1
h -1
v -1
h -1
v -1
l -3 -2
v -1
h -1
l -1 -1
l -1 -1
v -1
l -1 -1
l -1 -1
l -1 1
l -1 1
h -1
v 1
h -1
l -1 2
h -1
v 1
h -1
v 1
h -1
v 1
l -1 1
h -1
v 1
h -1
v 1
l -1 1
l -1 1
h -1
v 1
h -1
l -1 1
v 1
h -1
v 1
l -1 -1
l -1 -1
v -2
h -1
v -1
l -1 -1
l -1 -1
v -1
h -1
l -1 -1
h -12
v -1
h -3
l -1 -2
h -1
l -1 1
v -1
l -1 -1
h -1
v -1
l -1 -1
v -2
h -1
v -4
h 1
v -1
h 1
v -3
h -1
v -1
h -2
l -2 -1
h -1
l -1 -1
h -1
v -1
h -1
v -1
h -1
l -1 -1
h -1
l -1 -1
h -2
v -1
h -2
v -1
h -2
v -1
h -12
l -1 -1
h -6
v -1
h -2
l -2 -1
h -3
l -1 -1
h -1
v -1
l -1 -2
v -1
h -1
l -1 -2
v -1
l -1 -1
v -1
l -1 -1
h -2
l -1 -1
h -1
l -1 -1
h -1
l -1 -1
l -1 -2
v -5
l 1 -1
v -2
l 1 -2
v -1
l 2 -2
v -1
h 2
l 3 -1
v -1
l 1 -1
l 1 -1
l -1 -1
v -1
h 1
v -1
l 2 -2
l 1 -2
l -3 -4
l -1 -1
h -1
l -10 -6
l -4 -4
l -1 -1
l -1 -1
l -1 -3
v -1
l -5 -1
h -6
l -3 -2
h -4
l -2 -1
l -2 -3
h -3
l -1 1
h -7
l -1 -1
h -2
v -1
l -2 -1
h -1
l -1 -1
l -1 -1
v -3
h 1
l 1 -1
v -1
l 1 -1
v -1
l -1 -1
v -1
l -1 -1
v -3
h 1
l 2 -1
v -3
l -1 -1
v -1
l -1 -1
l -1 -4
l -3 -1
h -2
l -6 -2
l 1 -2
h 3
v -2
h -1
l -2 -2
l 2 -1
h 3
l -4 -5
l 1 -1
l 2 -4
h -1
v 1
l -1 1
h -1
l -11 -3
v -1
l 2 -1
l 1 -1
l 1 -1
h 1
l -3 -5
l -1 4
l -1 1
h -3
v -7
l -5 -5
v -1
h 3
l 4 -1
v 1
h 1
l 3 -1
l 1 -9
l -8 -4
h -1
l -2 -1
l -1 1
l 1 3
v 1
h -2
l -3 -1
h -2
l -2 -1
l -3 -4
h -1
v 1
l 1 2
v 5
l -1 1
l -3 -6
l -2 1
h -1
l -6 1
h -1
l -2 -2
l -1 -1
l -1 -1
v -1
l -10 -13
l -5 -3
l -19 -5
l -4 5
h -5
l 1 4
l -7 5
l -2 6
l -14 -4
l -5 -2
l -7 5
l 1 4
l -8 -4
l -3 1
l 7 7
l -2 4
l -7 -3
l -3 5
l 9 7
h -10
l 2 1
l -3 6
v 1
h -1
v 1
l -8 -3
l -13 1
l -4 -5
h -8
l -7 1
l -6 -5
h -1
v -1
l -7 -2
l -1 -6
l -1 -1
l -1 1
l -1 1
l -6 -6
l 7 -2
l -2 -4
l -4 1
h -1
l 2 -6
v -1
l -6 3
l -1 2
v 3
l -1 3
l -2 1
v 1
l -1 1
l -1 1
v 4
l 1 2
l -3 1
h -3
l -4 7
l -1 1
l -4 3
l -1 2
v 1
h -1
l -2 1
v 1
l -1 2
v 1
h -1
l -3 2
l -3 3
l -1 2
l -2 4
l -1 1
l -1 3
l -1 -1
l -9 -5
l -6 -5
l -1 -1
l -2 2
v 1
h -1
v -2
h -1
l -1 -1
v 2
h -2
l -1 1
h -1
l -1 -1
l -1 -1
h -1
l -1 1
l 1 1
l 1 2
h -3
v 1
l 2 1
h -1
v 2
h -1
l -2 2
v 1
l -2 1
v 4
h -2
l -1 1
l 1 1
v 1
h -2
v -2
h -3
v 2
l -1 1
l -8 4
l -3 6
l -9 2
l -3 8
l -4 9
l -9 -1
l -2 3
l -1 1
l -2 2
h -2
l -7 3
l -2 5
l -1 1
l -4 5
h -1
v 1
h -1
v 1
h -2
l -1 1
v 1
h -1
v -1
h -1
l -2 1
v 1
l -1 1
l -1 -1
h -1
l 1 -59
h 1
l 1 -30
l 2 -53
l 25 1
h 47
l 43 1
l 29 1
h 9
l 37 1
h 71
l 42 1
h 54
l 13 1
h 222
v -1
h 100
l 35 -1
l 52 -1
h 1
v 24
l 1 1
v 7
l 1 4
v 5
l 1 13
v 3
l 1 4
v 3
l 1 18
l 1 3
v 10
l 1 3
v 9
l 1 4
l 1 11
v 22
l 1 4
v 5
l 1 6
v 5
l 1 7
v 7
l 1 8
v 3
l 1 4
v 5
l 1 12
v 1
l 1 8
v 8
l 1 3
v 10
l 1 4
v 9
l 1 3
v 8
l 1 5
v 4
l 1 6
v 6
l 1 11
v 5
l 1 1
v 11
l 1 5
v 6
l 1 2
v 4
l 1 9
v 7
l 18 1
h 98
l 3 -1
h 12
l -7 4
l 2 11
l -10 -4
h -6
l 12 6
v 7
l 7 3
v 7
l -9 11
l -2 12
l -11 9
l 3 -11
l -13 6
l 2 4
l -4 4
l -1 11
l -5 4
l -1 13
l -7 -1
l -8 8
l 3 6
l -6 11
h -1
v 1
h -3
l -5 1
h -6
l -3 1
h -2
l -5 1
h -6
l -1 1
h -8
v 1
h -8
v 1
h -4
l -8 9
l -7 -1
l -7 -5
l -8 4
l -5 -1
l -4 5
l -5 -1
v 6
l -11 6
l -3 -10
l 8 -1
l -4 -2
l 3 -10
l -3 1
l -3 7
l -1 -5
l 6 -13
l 4 3
l 3 -5
l 5 -1
l 8 -7
l -20 1
l -2 -7
l 6 -8
l 6 -3
l 9 1
l -14 -5
l -5 3
l -10 -3
l -7 1
l 3 3
l -7 2
v -14
l 15 -6
l 4 1
l 9 -9
l -8 -1
l 13 -5
l 1 -4
l -16 6
l -3 -2
l -3 7
l -5 -10
l 3 -9
l 12 -19
l -3 -4
l 7 -3
l -5 -3
l 5 -6
h -5
l -2 18
l -8 2
l -9 13
l 1 7
l -3 7
l 1 4
l -7 -6
v -4
l -8 -9
l 12 -4
l 1 -7
l -4 -5
h -7
l -2 8
l -6 4
l -1 5
l 4 5
l -2 10
l -3 1
l 4 4
l -4 2
l -4 -12
l -7 -7
l -14 -7
l -3 -10
l -8 -2
l 1 -6
l -3 -2
v 13
l -11 -10
v -7
l -12 -21
l 2 -3
h 9
l -2 8
l 10 -15
l 5 4
l 3 -5
l 14 -1
l -4 -2
l -8 2
l -1 -7
l 4 -2
l -8 -2
l -3 6
l -3 -8
v 10
l -3 -3
v -10
l -6 -10
l 6 4
l 6 -5
l 1 4
l 5 2
l 8 -6
l 1 7
l 6 1
l 5 5
l 5 -4
l 11 9
l 14 -7
l 1 -13
l 5 -5
l 1 -7
l -11 -7
l -5 -8
l 4 -1
l -1 -6
l 12 -7
l 2 -4
l -14 10
l -4 10
l 5 8
l 10 6
l -3 7
l -6 4
l -1 10
l -6 5
l -13 -13
l -7 1
l -7 -5
l 1 -5
l 6 -4
l -10 3
v -10
l 14 -4
l -9 1
l 1 -5
l 9 -2
l -6 -2
l 5 -7
l -6 1
v 7
h -3
l -2 9
l -7 -2
l -4 11
l -4 -5
l 2 -4
l -6 -1
l 3 -7
l 8 3
l -14 -12
l -2 -6
l 1 15
l -8 4
l -1 -12
l 3 -5
l -7 4
l 1 11
l -5 5
l 3 6
l -5 -3
l 1 -15
l 7 -11
v -8
l 6 -2
l 3 -5
l 4 9
l 7 3
l -1 6
l 7 5
l 2 6
l 6 -10
l -9 -2
l -2 -5
l 2 -12
l 5 -1
l 1 -7
l 12 -1
l -2 -12
l -2 5
h -9
l -7 6
l -2 -13
l -4 -8
l 12 -9
l 1 -5
l -4 -12
l 3 2
l 4 -8
l 14 2
l -6 -4
l -7 -1
l 15 -12
l -1 -4
l 10 -4
l -2 -6
l -6 -3
l 11 -11
l 6 -3
h -6
l -12 12
v 4
l 7 4
l -10 5
l 2 5
l -9 7
l -1 -3
l -9 7
l 3 -9
l -4 -1
l -3 10
l -5 2
l -1 9
h -3
l -3 -19
l -8 -6
l 1 -7
l 4 -5
l 6 -16
l 9 -12
l 3 -1
l -4 -6
l 3 -4
h 10
l -2 -5
l 4 -6
h 13
l 6 3
l 13 -3
l 15 4
l 13 -5
h -1
l -11 3
l -12 -5
l -7 1
l -12 -2
l -1 -3
l 7 -4
l 6 -7
l 2 -7
l 5 -3
l 6 2
l 4 -2
l 8 3
l -8 -7
l -6 1
l 2 -5
l 10 -4
l 3 -4
l -1 -6
l 4 -6
l -10 10
l -3 7
l -4 -2
l -2 6
l -6 2
l -10 12
l 5 -22
l 4 -2
l -2 -6
l 5 -6
l -3 -3
l -2 5
l -7 3
l -1 6
l -4 -2
l -2 -6
l -2 6
l -6 1
l -1 1
l -4 1
l -3 10
l -4 3
l 7 3
v 10
l -8 9
l -4 1
l -5 7
l -10 -3
v 4
l 7 -2
v 4
l -6 5
l -6 -3
v -7
l 6 -11
l -3 -2
l 1 -7
l -9 5
l 5 1
v 6
l -8 14
l 5 2
l 2 6
l -8 9
l -1 -11
l -2 -3
v -9
l -11 -1
l -7 5
h 12
l -2 4
l 3 6
l -8 -3
l 1 11
l -12 -1
l 5 5
l -3 3
l 4 6
l -2 4
l -7 -2
v -6
l -13 -9
l 8 9
l 4 10
l 10 3
l -10 10
l -5 -9
v 6
l -6 1
l -1 -7
l 3 -7
l -6 6
l -4 -3
l -5 -5
h -1
v -1
v 1
l -1 1
v -1
h -2
v -5
h -1
l -1 -1
h -1
v 1
l -1 -1
v 1
h -1
l -1 -1
l -1 -1
h -1
v 1
h 1
v 1
l 1 1
h 3
v 1
h 2
v 2
h -1
v 1
l -2 -1
h -2
v 1
v -1
h -1
v 2
h -1
l -1 -1
h -1
v -3
h -1
v -1
v 1
h -1
v 1
l 3 7
l 8 -2
l 4 5
l -4 1
l -1 5
l 2 5
l -5 3
h 5
v -10
l 9 2
l -1 5
l 4 4
l -7 8
l 6 -4
l 9 -1
l 9 7
l 3 13
l -6 -1
h -1
l -3 4
l -9 3
l 7 1
l 5 4
l 10 3
l 4 8
l -4 5
h -8
l -4 3
l -7 -7
l -3 -2
l -8 -14
h -5
l 3 4
l -3 3
l 9 4
l 1 4
h 1
l 10 8
l 1 8
l 5 3
l -4 9
l -4 -5
h -5
l -6 -7
h -3
l -1 1
v 1
l 7 4
l 8 13
l -12 7
l 2 5
l 3 -3
l 7 2
l -4 12
l -5 6
l -8 2
l 5 12
l 4 4
l -1 12
l 4 11
v 29
l 6 14
l 13 12
l 6 11
l 3 1
l -1 7
l -6 11
l -9 -1
l -8 -18
l -5 -6
l -4 1
l -13 -9
l 2 -4
l -12 -3
l -4 -13
v -12
l -2 -3
v -17
l -4 -1
l 3 -7
l -4 -1
l 3 1
l -3 6
l 5 5
l -3 10
l 2 12
l -5 -1
l 6 4
v 5
l -5 4
l 6 1
v 9
l 5 6
l 14 12
l 10 3
l 8 6
l 1 10
Z
M934 480
h -2
l 4 -2
v -9
l 6 -5
l -3 -1
l 7 -11
v -12
l 5 -4
l 1 -8
l 5 -9
l 5 -18
l 3 -4
l -12 38
l -2 11
l -5 14
l -10 19
Z
M761 485
l 6 -6
l 7 6
l 2 7
l -6 3
l -3 -9
Z
M767 497
v 6
h -2
l -4 -5
v -7
l 4 -1
Z
M764 458
l 4 3
l 1 8
l -6 -1
Z
M759 434
l 7 8
l -4 2
l 2 5
h -4
l -1 -6
l -7 3
l 1 -7
Z
M749 85
l 4 5
l -4 5
l -3 -2
Z
M741 242
l 5 5
h -13
l -5 6
v -6
l 4 -4
Z
M732 419
l -5 -8
h 6
Z
M722 204
v 9
l -6 -6
l 1 -3
Z
M708 221
h 7
l -2 17
l -3 -6
l -8 4
l 1 -9
l -3 1
l 1 12
l -6 -1
l 3 14
l -8 4
v -20
l 3 -11
l 4 -4
l 2 -10
l 4 -7
Z"/>
<g class="districts">
<path data-race-id="MD01" d="M502 33
v -7
l 7 -1
l -1 -6
h 114
v -1
h 100
l 35 -1
l 52 -1
h 1
v 24
l 1 1
v 7
l 1 4
v 5
l 1 13
v 3
l 1 4
v 3
l 1 18
l 1 3
v 10
l 1 3
v 9
l 1 4
l 1 11
v 22
l 1 4
v 5
l 1 6
v 5
l 1 7
v 7
l 1 8
v 3
l 1 4
v 5
l 1 12
v 1
l 1 8
v 8
l 1 3
v 10
l 1 4
v 9
l 1 3
v 8
l 1 5
v 4
l 1 6
v 6
l 1 11
v 5
l 1 1
v 11
l 1 5
v 6
l 1 2
v 4
l 1 9
v 7
l 18 1
h 98
l 3 -1
h 12
l -7 4
l 2 11
l -10 -4
h -6
l 12 6
v 7
l 7 3
v 7
l -9 11
l -2 12
l -11 9
l 3 -11
l -13 6
l 2 4
l -4 4
l -1 11
l -5 4
l -1 13
l -7 -1
l -8 8
l 3 6
l -6 11
h -1
v 1
h -3
l -5 1
h -6
l -3 1
h -2
l -5 1
h -6
l -1 1
h -8
v 1
h -8
v 1
h -4
l -8 9
l -7 -1
l -7 -5
l -8 4
l -5 -1
l -4 5
l -5 -1
v 6
l -11 6
l -3 -10
l 8 -1
l -4 -2
l 3 -10
l -3 1
l -3 7
l -1 -5
l 6 -13
l 4 3
l 3 -5
l 5 -1
l 8 -7
l -20 1
l -2 -7
l 6 -8
l 6 -3
l 9 1
l -14 -5
l -5 3
l -10 -3
l -7 1
l 3 3
l -7 2
v -14
l 15 -6
l 4 1
l 9 -9
l -8 -1
l 13 -5
l 1 -4
l -16 6
l -3 -2
l -3 7
l -5 -10
l 3 -9
l 12 -19
l -3 -4
l 7 -3
l -5 -3
l 5 -6
h -5
l -2 18
l -8 2
l -9 13
l 1 7
l -3 7
l 1 4
l -7 -6
v -4
l -8 -9
l 12 -4
l 1 -7
l -4 -5
h -7
l -2 8
l -6 4
l -1 5
l 4 5
l -2 10
l -3 1
l 4 4
l -4 2
l -4 -12
l -7 -7
l -14 -7
l -3 -10
l -8 -2
l 1 -6
l -3 -2
v 13
l -11 -10
v -7
l -12 -21
l 2 -3
h 9
l -2 8
l 10 -15
l 5 4
l 3 -5
l 14 -1
l -4 -2
l -8 2
l -1 -7
l 4 -2
l -8 -2
l -3 6
l -3 -8
v 10
l -3 -3
v -10
l -6 -10
l 6 4
l 6 -5
l 1 4
l 5 2
l 8 -6
l 1 7
l 6 1
l 5 5
l 5 -4
l 11 9
l 14 -7
l 1 -13
l 5 -5
l 1 -7
l -11 -7
l -5 -8
l 4 -1
l -1 -6
l 12 -7
l 2 -4
l -14 10
l -4 10
l 5 8
l 10 6
l -3 7
l -6 4
l -1 10
l -6 5
l -13 -13
l -7 1
l -7 -5
l 1 -5
l 6 -4
l -10 3
v -10
l 14 -4
l -9 1
l 1 -5
l 9 -2
l -6 -2
l 5 -7
l -6 1
v 7
h -3
l -2 9
l -7 -2
l -4 11
l -4 -5
l 2 -4
l -6 -1
l 3 -7
l 8 3
l -14 -12
l -2 -6
l 1 15
l -8 4
l -1 -12
l 3 -5
l -7 4
l 1 11
l -5 5
l 3 6
l -5 -3
l 1 -15
l 7 -11
v -8
l 6 -2
l 3 -5
l 4 9
l 7 3
l -1 6
l 7 5
l 2 6
l 6 -10
l -9 -2
l -2 -5
l 2 -12
l 5 -1
l 1 -7
l 12 -1
l -2 -12
l -2 5
h -9
l -7 6
l -2 -13
l -4 -8
l 12 -9
l 1 -5
l -4 -12
l 3 2
l 4 -8
l 14 2
l -6 -4
l -7 -1
l 15 -12
l -1 -4
l 10 -4
l -2 -6
l -6 -3
l 11 -11
l 6 -3
h -6
l -12 12
v 4
l 7 4
l -10 5
l 2 5
l -9 7
l -1 -3
l -9 7
l 3 -9
l -4 -1
l -3 10
l -5 2
l -1 9
h -3
l -3 -19
l -8 -6
l 1 -7
l 4 -5
l 6 -16
l 9 -12
l 3 -1
l -4 -6
l 3 -4
h 10
l -2 -5
l 4 -6
h 13
l 6 3
l 13 -3
l 15 4
l 13 -5
h -1
l -11 3
l -12 -5
l -7 1
l -12 -2
l -1 -3
l 7 -4
l 6 -7
l 2 -7
l 5 -3
l 6 2
l 4 -2
l 8 3
l -8 -7
l -6 1
l 2 -5
l 10 -4
l 3 -4
l -1 -6
l 4 -6
l -10 10
l -3 7
l -4 -2
l -2 6
l -6 2
l -10 12
l 5 -22
l 4 -2
l -2 -6
l 5 -6
l -3 -3
l -2 5
l -7 3
l -1 6
l -4 -2
l -2 -6
l -2 6
l -6 1
l -5 -7
l -10 1
l 1 12
l -5 -4
h -5
l 1 9
l -6 4
v -4
l -15 10
l -11 -2
l 7 11
l -13 2
l -2 2
l -12 12
l -10 -2
l -6 -5
l -2 -7
l -6 2
l -1 -3
l -6 7
l -4 -5
l 8 -6
l -5 -1
v -9
h -7
l -1 3
l -6 -2
l 2 -4
l 12 -4
l 8 7
l 3 5
l -1 8
l 14 -6
l 10 -5
v -1
l -4 -6
l -6 -3
l -7 -3
l -7 -5
l -3 -10
l -5 -9
v -14
l -7 6
l -8 -3
l -5 2
l -1 4
l -7 -1
l -1 4
l -12 -9
h -8
l -1 -6
l -6 23
l -5 17
l -2 13
l -5 6
l 1 6
l -1 -1
l -8 -2
l -2 2
l -7 -7
l -7 -3
v -9
l 13 -14
l 1 -10
l -7 -10
l 2 -6
l -10 6
l -7 -3
l -3 15
h -5
l -8 -5
l -3 -4
l -9 2
l 3 5
l -7 2
l -1 5
l -7 -2
l -4 -5
l -11 -3
l -1 -8
l 6 3
l 2 -9
Z
M970 362
h 5
l -1 13
l -4 16
l -3 6
l 5 -20
Z
M934 480
h -2
l 4 -2
v -9
l 6 -5
l -3 -1
l 7 -11
v -12
l 5 -4
l 1 -8
l 5 -9
l 5 -18
l 3 -4
l -12 38
l -2 11
l -5 14
l -10 19
Z
M767 503
h -2
l -4 -5
v -7
l 4 -1
l 2 7
Z
M761 485
l 6 -6
l 7 6
l 2 7
l -6 3
l -3 -9
Z
M764 458
l 4 3
l 1 8
l -6 -1
Z
M759 434
l 7 8
l -4 2
l 2 5
h -4
l -1 -6
l -7 3
l 1 -7
Z
M741 242
l 5 5
h -13
l -5 6
v -6
l 4 -4
Z
M732 419
l -5 -8
h 6
Z
M722 204
v 9
l -6 -6
l 1 -3
Z
M708 221
h 7
l -2 17
l -3 -6
l -8 4
l 1 -9
l -3 1
l 1 12
l -6 -1
l 3 14
l -8 4
v -20
l 3 -11
l 4 -4
l 2 -10
l 4 -7
Z"/>
<path data-race-id="MD02" d="M615 161
l 4 -3
l 9 -4
l 2 -6
l -4 -2
l 7 -4
v 1
l 3 7
l 8 -2
l 4 5
l -4 1
l -1 5
l 2 5
l -5 3
l -8 -5
l -2 -4
l -3 3
h -8
l 3 3
l -3 5
v 17
l -6 7
l -7 -1
l -8 -5
h -7
l -10 -9
l 19 -11
l -2 -8
l 8 2
Z
M649 145
v -6
l 5 -4
v -4
l -8 -2
l -1 -4
l 9 -7
v 1
l 10 -3
l 2 -5
l -4 -3
l -8 2
l -5 -2
l -4 6
h -12
v -3
h 5
l 1 -5
l -11 -5
l -13 -4
l -4 -7
l -6 -4
h -4
l -1 10
l -3 1
l 7 9
l 2 7
l 7 4
l -7 1
l -1 5
l -8 -3
l -9 2
l 2 -4
l -1 -5
l 1 -7
l -3 -7
l 7 -3
l -6 -6
l 5 -8
l 6 1
l 2 -4
l 5 -6
l 4 14
l 6 -3
l 2 7
l 7 9
h 6
v -6
l -7 -3
l 1 -7
h 4
l 6 2
l 1 -3
h 7
v 9
l 5 1
l -8 6
l 4 5
l 6 -7
l 1 3
l 6 -2
l 2 7
l 6 5
l 10 2
l 12 -12
l 2 -2
l 13 -2
l -7 -11
l 11 2
l 15 -10
v 4
l 6 -4
l -1 -9
h 5
l 5 4
l -1 -12
l 10 -1
l 5 7
l -1 1
l -4 1
l -3 10
l -4 3
l 7 3
v 10
l -8 9
l -4 1
l -5 7
l -10 -3
v 4
l 7 -2
v 4
l -6 5
l -6 -3
v -7
l 6 -11
l -3 -2
l 1 -7
l -9 5
l 5 1
v 6
l -8 14
l 5 2
l 2 6
l -8 9
l -1 -11
l -2 -3
v -9
l -11 -1
l -7 5
h 12
l -2 4
l 3 6
l -8 -3
l 1 11
l -12 -1
l 5 5
l -3 3
l 4 6
l -2 4
l -7 -2
v -6
l -13 -9
l 8 9
l 4 10
l 10 3
l -10 10
l -5 -9
v 6
l -6 1
l -1 -7
l 3 -7
l -6 6
l -4 -3
l -5 -5
Z
M654 159
l -4 3
l -5 -2
v -3
Z
M749 85
l 4 5
l -4 5
l -3 -2
Z"/>
<path data-race-id="MD03" d="M526 141
l 14 6
l 13 17
l 1 7
l 6 1
l 6 -7
l 1 -6
l 5 -5
l 4 11
l 5 2
l 6 -7
l 12 -5
l 1 3
l 9 1
l 5 -4
l -1 -1
l 4 -7
l 3 1
l 1 -5
l 10 -5
l 3 1
h 4
v 1
l 1 1
h 1
h -1
h 3
v 1
h 2
v 1
v -1
v 2
h -1
v 1
l -2 -1
h -2
v 1
v -1
h -1
v 2
h -1
l -1 -1
h -1
v -3
l -1 -1
v 1
h -1
l -7 4
l 4 2
l -2 6
l -9 4
l -4 3
h -9
l -8 -2
l 2 8
l -19 11
l 10 9
h 7
l 8 5
l 7 1
l 6 -7
v -17
l 3 -5
l -3 -3
h 8
l 3 -3
l 2 4
l 8 5
h 5
v -7
l 5 2
l 4 -3
l -1 5
l 4 4
l -7 8
l -3 4
l -11 -1
v 5
l -12 -4
l 2 7
l -4 2
l 2 5
l -4 1
l -5 8
l -4 -3
l -5 2
l -10 -5
l -1 -5
l -5 6
l 1 -7
l -3 -3
l -7 -3
l -3 -4
l -18 32
l -7 -4
l 9 -1
l -5 -2
l -3 -7
l 6 -2
l -1 -1
l 2 -6
l -13 -6
l -6 2
l -9 -8
l -1 1
l -1 -6
l -1 -3
l 6 -14
l -7 -7
l -5 -1
Z
M638 139
l 8 -4
l -3 -8
l 6 -11
h -12
v 9
l -5 2
l -5 -1
l 2 -6
l -14 -3
v 2
l -2 -2
l -7 -4
l -2 -7
l -7 -9
l 3 -1
l 1 -10
h 4
l 6 4
l 4 7
l 13 4
l 11 5
l -1 5
h -5
v 3
h 12
l 4 -6
l 5 2
l 8 -2
l 4 3
l -2 5
l -10 3
v -1
l -9 7
l 1 4
l 8 2
v 4
l -5 4
v 6
h -1
v -1
v 1
l -1 1
v -1
h -2
v -5
h -1
l -1 -1
h -1
v 1
l -1 -1
v 1
h -1
l -1 -1
Z
M650 229
l 2 -4
l -2 -6
l 5 -6
h 1
l 10 8
l 1 8
l 5 3
l -4 9
l -4 -5
h -5
l -6 -7
h -3
Z
M661 214
l 7 -5
l 2 -7
l 10 3
l 4 8
l -4 5
h -8
l -4 3
l -7 -7
Z
M670 190
l -5 -3
l 1 -5
l -11 -4
l 1 -6
l 9 -1
l 9 7
l 3 13
l -6 -1
Z"/>
<path data-race-id="MD04" d="M570 250
v -1
l 3 -2
l 1 -1
h -1
v -1
h -1
v -1
h -1
v -1
h -1
v -1
h -1
v -1
h -1
l -1 -1
v -1
l -1 -1
l -2 -2
h -1
v -1
h -1
v -1
h -1
v -1
h -1
v -1
h -1
v -1
l -1 -1
h -1
v -1
h -1
v -1
h -1
v -1
h -1
v -1
l 6 -13
l 18 -32
l 3 4
l 7 3
l 3 3
l -1 7
l 5 -6
l 1 5
l 10 5
l 5 -2
l 4 3
l 5 -8
l 4 -1
l -2 -5
l 4 -2
l -2 -7
l 12 4
v -5
l 11 1
l 3 -4
l 6 -4
l -1 6
l 11 4
l -1 5
l 5 3
l -3 4
l -9 3
l 7 1
l 5 4
l -2 7
l -7 5
l -3 -2
l -8 -14
h -5
l 3 4
l -3 3
l 9 4
l 1 4
l -5 6
l 2 6
l -2 4
l -1 1
l -4 6
l -11 2
l -4 -4
l 1 -5
l -5 -3
l -1 -9
l -9 -8
l -9 -2
l -8 -3
l -12 4
l 2 -6
l -4 -1
l 1 -4
l -7 2
l -2 -5
l -6 1
v 5
l -4 7
v 4
l -5 5
l 3 7
l -1 7
h 3
l 7 -2
l 6 2
l 12 -9
l 2 8
l 6 -5
l 6 1
l 1 5
l -3 2
l 2 12
h 5
l -3 9
l 5 2
l -2 10
l -3 1
h -1
l -4 2
l -10 1
l -6 -3
l -1 7
l -8 3
l -3 -5
l -6 3
l -9 5
l -8 7
l -4 -2
l 1 -13
Z"/>
<path data-race-id="MD05" d="M552 286
l 8 -7
l 9 -5
l 6 -3
l 3 5
l 8 -3
l 1 -7
l 6 3
l 10 -1
l 4 -2
h 1
l 3 -1
l 2 -10
l -5 -2
l 3 -9
h -5
l -2 -12
l 3 -2
l -1 -5
l -6 -1
l -6 5
l -2 -8
l -12 9
l -6 -2
l -7 2
h -3
l 1 -7
l -3 -7
l 5 -5
v -4
l 4 -7
v -5
l 6 -1
l 2 5
l 7 -2
l -1 4
l 4 1
l -2 6
l 12 -4
l 8 3
l 9 2
l 9 8
l 1 9
l 5 3
l -1 5
l 4 4
l 11 -2
l 4 -6
v 1
l 7 4
l 8 13
l -12 7
l 2 5
l 3 -3
l 7 2
l -4 12
l -5 6
l -8 2
l 5 12
l 4 4
l -1 12
l 4 11
v 29
l 6 14
l 13 12
l 6 11
l 3 1
l -1 7
l -6 11
l -9 -1
l -8 -18
l -5 -6
l -4 1
l -13 -9
l 2 -4
l -12 -3
l -4 -13
v -12
l -2 -3
v -17
l -4 -1
l 3 -7
l -4 -1
l 3 1
l -3 6
l 5 5
l -3 10
l 2 12
l -5 -1
l 6 4
v 5
l -5 4
l 6 1
v 9
l 5 6
l 14 12
l 10 3
l 8 6
l 1 10
l 2 1
l 5 7
l 6 1
l 8 -5
l 5 3
l -4 3
l -2 9
l 3 10
l 13 16
l 2 7
l -5 2
l -2 -6
l -1 9
l 6 3
v 14
l -8 -3
l -1 -6
l -7 -6
l -1 -6
l -4 5
l -4 -16
l 4 -6
l -12 -7
l 8 10
l -4 3
l 3 3
l -9 6
l -11 -4
l -4 -12
l -14 -8
l -13 -2
l 12 -9
l 1 -5
l -9 7
h -7
l -2 -9
l -4 -5
l 3 12
l -6 1
l 1 7
l -4 4
l -5 -1
l -5 -6
v -8
l -6 -6
l -3 -10
l 7 -6
h -5
l -8 -9
v 1
l -11 -1
l -1 2
l 14 5
l -2 10
l 3 1
l 3 10
l -1 6
l -17 -6
v -6
l -4 -6
l -7 -3
l -2 -11
l -4 -11
l -8 -15
v 10
l -15 10
l 1 -11
l -3 1
l -1 11
l -3 4
l -16 8
l -8 -6
l -3 -8
l 1 -7
l -3 -8
v -8
l 3 -8
l 7 -4
l -2 -4
l 8 -1
l 6 -3
h -9
l 6 -9
l 8 -2
l 7 -5
l -1 -12
l 9 -6
l 10 -3
l -1 -3
l 2 -9
l 4 -1
Z"/>
<path data-race-id="MD06" d="M30 13
l 25 1
h 47
l 43 1
l 29 1
h 9
l 37 1
h 71
l 42 1
h 54
l 13 1
h 54
l -3 4
l -9 20
l -10 4
l -5 22
l -5 6
l 1 14
l -5 8
v 10
l -4 9
h 17
l 1 2
l 2 -4
l 11 -1
l -1 4
l 8 7
l 3 -7
l 4 -1
l 2 -10
l -7 -1
l -1 -5
l 3 -7
l 3 -4
l 8 -1
l -2 -5
l 6 2
l -1 4
l 5 2
l 2 7
h 8
l -1 4
l -8 3
l -6 7
l 7 8
l 14 2
l 7 10
l -5 3
v 3
l 8 2
l 4 7
l 4 -9
l 2 12
v 1
h 1
l 2 1
l 3 7
l 11 4
l 1 8
l -5 6
l 5 7
l 9 3
l -1 10
l -6 1
l -3 -10
l -2 2
l -11 -6
l -3 9
l -4 -4
l 1 6
l 13 7
l 2 5
l -3 12
l -18 -12
l -2 3
v -1
h -2
l -2 -1
h -1
l -1 -1
h -1
v -1
h -1
v -1
h -1
l -1 -1
h -1
l -1 -1
h -2
v -1
h -2
v -1
h -2
v -1
h -12
l -1 -1
h -6
v -1
h -2
l -2 -1
h -3
l -1 -1
h -1
v -1
l -1 -2
v -1
h -1
l -1 -2
v -1
l -1 -1
v -1
l -1 -1
h -2
l -1 -1
h -1
l -1 -1
h -1
l -1 -1
l -1 -2
v -5
l 1 -1
v -2
l 1 -2
v -1
l 2 -2
v -1
h 2
l 3 -1
v -1
l 1 -1
l 1 -1
l -1 -1
v -1
h 1
v -1
l 2 -2
l 1 -2
l -3 -4
l -1 -1
h -1
l -10 -6
l -4 -4
l -1 -1
l -1 -1
l -1 -3
v -1
l -5 -1
h -6
l -3 -2
h -4
l -2 -1
l -2 -3
h -3
l -1 1
h -7
l -1 -1
h -2
v -1
l -2 -1
h -1
l -1 -1
l -1 -1
v -3
h 1
l 1 -1
v -1
l 1 -1
v -1
l -1 -1
v -1
l -1 -1
v -3
h 1
l 2 -1
v -3
l -1 -1
v -1
l -1 -1
l -1 -4
l -3 -1
h -2
l -6 -2
l 1 -2
h 3
v -2
h -1
l -2 -2
l 2 -1
h 3
l -4 -5
l 1 -1
l 2 -4
h -1
v 1
l -1 1
h -1
l -11 -3
v -1
l 2 -1
l 1 -1
l 1 -1
h 1
l -3 -5
l -1 4
l -1 1
h -3
v -7
l -5 -5
v -1
h 3
l 4 -1
v 1
h 1
l 3 -1
l 1 -9
l -8 -4
h -1
l -2 -1
l -1 1
l 1 3
v 1
h -2
l -3 -1
h -2
l -2 -1
l -3 -4
h -1
v 1
l 1 2
v 5
l -1 1
l -3 -6
l -2 1
h -1
l -6 1
h -1
l -2 -2
l -1 -1
l -1 -1
v -1
l -10 -13
l -5 -3
l -19 -5
l -4 5
h -5
l 1 4
l -7 5
l -2 6
l -14 -4
l -5 -2
l -7 5
l 1 4
l -8 -4
l -3 1
l 7 7
l -2 4
l -7 -3
l -3 5
l 9 7
h -10
l 2 1
l -3 6
v 1
h -1
v 1
l -8 -3
l -13 1
l -4 -5
h -8
l -7 1
l -6 -5
h -1
v -1
l -7 -2
l -1 -6
l -1 -1
l -1 1
l -1 1
l -6 -6
l 7 -2
l -2 -4
l -4 1
h -1
l 2 -6
v -1
l -6 3
l -1 2
v 3
l -1 3
l -2 1
v 1
l -1 1
l -1 1
v 4
l 1 2
l -3 1
h -3
l -4 7
l -1 1
l -4 3
l -1 2
v 1
h -1
l -2 1
v 1
l -1 2
v 1
h -1
l -3 2
l -3 3
l -1 2
l -2 4
l -1 1
l -1 3
l -1 -1
l -9 -5
l -6 -5
l -1 -1
l -2 2
v 1
h -1
v -2
h -1
l -1 -1
v 2
h -2
l -1 1
h -1
l -1 -1
l -1 -1
h -1
l -1 1
l 1 1
l 1 2
h -3
v 1
l 2 1
h -1
v 2
h -1
l -2 2
v 1
l -2 1
v 4
h -2
l -1 1
l 1 1
v 1
h -2
v -2
h -3
v 2
l -1 1
l -8 4
l -3 6
l -9 2
l -3 8
l -5 8
h -8
l -2 3
l -1 1
l -2 2
h -2
l -7 3
l -2 5
l -1 1
l -4 5
h -1
v 1
h -1
v 1
h -2
l -1 1
v 1
h -1
v -1
h -1
l -2 1
v 1
l -1 1
l -1 -1
h -1
l 1 -59
h 1
l 1 -30
l 1 -14
v -23
Z"/>
<path data-race-id="MD07" d="M518 120
l 3 1
l 7 -4
l 1 -1
h 7
l 12 5
l 2 -1
l 6 -2
h 11
l 12 3
l 1 -2
v -11
l -4 -9
l 2 -3
l -1 -6
l 5 -6
l 2 -13
l 5 -17
l 6 -23
l 1 6
h 8
l 12 9
l 1 -4
l 7 1
l 1 -4
l 5 -2
l 8 3
l 7 -6
v 14
l 5 9
l 3 10
l 7 5
l 7 3
l 6 3
l 4 6
v 1
l -10 5
l -14 6
l 1 -8
l -3 -5
l -8 -7
l -12 4
l -2 4
h -4
l -1 7
l 7 3
v 6
h -6
l -7 -9
l -2 -7
l -6 3
l -4 -14
l -5 6
l -2 4
l -6 -1
l -5 8
l 6 6
l -7 3
l 3 7
l -1 7
l 1 5
l -2 4
l 9 -2
l 8 3
l 1 -5
l 7 -1
l 2 2
v -2
l 14 3
l -2 6
l 5 1
l 5 -2
v -9
h 12
l -6 11
l 3 8
l -8 4
v -1
h -1
v 1
h 1
h -4
l -3 -1
l -10 5
l -1 5
l -3 -1
l -4 7
l 1 1
l -5 4
l -9 -1
l -1 -3
l -12 5
l -6 7
l -5 -2
l -4 -11
l -5 5
l -1 6
l -6 7
l -6 -1
l -1 -7
l -13 -17
l -14 -6
l -4 -6
l -5 -5
l -3 -7
Z"/>
<path data-race-id="MD08" d="M454 19
h 54
l 1 6
l -7 1
v 7
l -5 2
l -2 9
l -6 -3
l 1 8
l 11 3
l 4 5
l 7 2
l 1 -5
l 7 -2
l -3 -5
l 9 -2
l 3 4
l 8 5
h 5
l 3 -15
l 7 3
l 10 -6
l -2 6
l 7 10
l -1 10
l -13 14
v 9
l 7 3
l 7 7
l 2 -2
l 8 2
l 1 1
l -2 3
l 4 9
v 11
l -1 2
l -12 -3
h -11
l -6 2
l -2 1
l -12 -5
h -7
l -1 1
l -7 4
l -3 -1
l -4 3
l 3 7
l 5 5
l 4 6
l -2 7
l 5 1
l 7 7
l -6 14
l 1 3
l 1 6
l 1 -1
l 9 8
l 6 -2
l 13 6
l -2 6
l 1 1
l -6 2
l 3 7
l 5 2
l -9 1
l 7 4
l -6 13
l -3 -2
v -1
h -1
l -1 -1
l -1 -1
v -1
l -1 -1
l -1 -1
l -1 1
l -1 1
h -1
v 1
h -1
l -1 2
h -1
v 1
h -1
v 1
h -1
v 1
l -1 1
h -1
v 1
h -1
v 1
l -1 1
l -1 1
h -1
v 1
h -1
l -1 1
v 1
h -1
v 1
l -1 -1
l -1 -1
v -2
h -1
v -1
l -1 -1
l -1 -1
v -1
h -1
l -1 -1
h -12
v -1
h -3
l -1 -2
h -1
l -1 1
v -1
l -1 -1
h -1
v -1
l -1 -1
v -2
h -1
v -4
h 1
v -1
h 1
v -3
h -1
l 2 -3
l 18 12
l 3 -12
l -2 -5
l -13 -7
l -1 -6
l 4 4
l 3 -9
l 11 6
l 2 -2
l 3 10
l 6 -1
l 1 -10
l -9 -3
l -5 -7
l 5 -6
l -1 -8
l -11 -4
l -3 -7
l -2 -1
h -1
v -1
l -2 -12
l -4 9
l -4 -7
l -8 -2
v -3
l 5 -3
l -7 -10
l -14 -2
l -7 -8
l 6 -7
l 8 -3
l 1 -4
h -8
l -2 -7
l -5 -2
l 1 -4
l -6 -2
l 2 5
l -8 1
l -3 4
l -3 7
l 1 5
l 7 1
l -2 10
l -4 1
l -3 7
l -8 -7
l 1 -4
l -11 1
l -2 4
l -1 -2
h -17
l 4 -9
v -10
l 5 -8
l -1 -14
l 5 -6
l 5 -22
l 10 -4
l 9 -20
Z"/>
</g>
  <path class="districts-mesh" d="M654 159
l -4 3
l -5 -2
M650 176
l -3 4
l -11 -1
v 5
l -12 -4
l 2 7
l -4 2
l 2 5
l -4 1
l -5 8
l -4 -3
l -5 2
l -10 -5
l -1 -5
l -5 6
l 1 -7
l -3 -3
l -7 -3
l -3 -4
l -18 32
l -7 -4
l 9 -1
l -5 -2
l -3 -7
l 6 -2
l -1 -1
l 2 -6
l -13 -6
l -6 2
l -9 -8
l -1 1
l -1 -6
l -1 -3
l 6 -14
l -7 -7
l -5 -1
l 2 -7
l 14 6
l 13 17
l 1 7
l 6 1
l 6 -7
l 1 -6
l 5 -5
l 4 11
l 5 2
l 6 -7
l 12 -5
l 1 3
l 9 1
l 5 -4
l -1 -1
l 4 -7
l 3 1
l 1 -5
l 10 -5
l 3 1
h 4
M638 139
l 8 -4
l -3 -8
l 6 -11
h -12
v 9
l -5 2
l -5 -1
l 2 -6
l -14 -3
M650 229
l 2 -4
l -2 -6
l 5 -6
M661 214
l 7 -5
l 2 -7
M670 190
l -5 -3
l 1 -5
l -11 -4
l 1 -6
M554 226
l 6 -13
M640 167
l -8 -5
l -2 -4
l -3 3
h -8
l 3 3
l -3 5
v 17
l -6 7
l -7 -1
l -8 -5
h -7
l -10 -9
l 19 -11
l -2 -8
l 8 2
h 9
l 4 -3
l 9 -4
l 2 -6
l -4 -2
l 7 -4
M649 230
l -4 6
l -11 2
l -4 -4
l 1 -5
l -5 -3
l -1 -9
l -9 -8
l -9 -2
l -8 -3
l -12 4
l 2 -6
l -4 -1
l 1 -4
l -7 2
l -2 -5
l -6 1
v 5
l -4 7
v 4
l -5 5
l 3 7
l -1 7
h 3
l 7 -2
l 6 2
l 12 -9
l 2 8
l 6 -5
l 6 1
l 1 5
l -3 2
l 2 12
h 5
l -3 9
l 5 2
l -2 10
l -3 1
h -1
l -4 2
l -10 1
l -6 -3
l -1 7
l -8 3
l -3 -5
l -6 3
l -9 5
l -8 7
M454 19
l -3 4
l -9 20
l -10 4
l -5 22
l -5 6
l 1 14
l -5 8
v 10
l -4 9
h 17
l 1 2
l 2 -4
l 11 -1
l -1 4
l 8 7
l 3 -7
l 4 -1
l 2 -10
l -7 -1
l -1 -5
l 3 -7
l 3 -4
l 8 -1
l -2 -5
l 6 2
l -1 4
l 5 2
l 2 7
h 8
l -1 4
l -8 3
l -6 7
l 7 8
l 14 2
l 7 10
l -5 3
v 3
l 8 2
l 4 7
l 4 -9
l 2 12
v 1
h 1
l 2 1
l 3 7
l 11 4
l 1 8
l -5 6
l 5 7
l 9 3
l -1 10
l -6 1
l -3 -10
l -2 2
l -11 -6
l -3 9
l -4 -4
l 1 6
l 13 7
l 2 5
l -3 12
l -18 -12
l -2 3
M750 66
l -5 -7
l -10 1
l 1 12
l -5 -4
h -5
l 1 9
l -6 4
v -4
l -15 10
l -11 -2
l 7 11
l -13 2
l -2 2
l -12 12
l -10 -2
l -6 -5
l -2 -7
l -6 2
l -1 -3
l -6 7
l -4 -5
l 8 -6
l -5 -1
v -9
h -7
l -1 3
l -6 -2
l 2 -4
l 12 -4
l 8 7
l 3 5
l -1 8
l 14 -6
l 10 -5
v -1
l -4 -6
l -6 -3
l -7 -3
l -7 -5
l -3 -10
l -5 -9
v -14
l -7 6
l -8 -3
l -5 2
l -1 4
l -7 -1
l -1 4
l -12 -9
h -8
l -1 -6
l -6 23
l -5 17
l -2 13
l -5 6
l 1 6
l -1 -1
l -8 -2
l -2 2
l -7 -7
l -7 -3
v -9
l 13 -14
l 1 -10
l -7 -10
l 2 -6
l -10 6
l -7 -3
l -3 15
h -5
l -8 -5
l -3 -4
l -9 2
l 3 5
l -7 2
l -1 5
l -7 -2
l -4 -5
l -11 -3
l -1 -8
l 6 3
l 2 -9
l 5 -2
v -7
l 7 -1
l -1 -6
M526 141
l -4 -6
l -5 -5
l -3 -7
l 4 -3
l 3 1
l 7 -4
l 1 -1
h 7
l 12 5
l 2 -1
l 6 -2
h 11
l 12 3
l 1 -2
v -11
l -4 -9
l 2 -3
M649 145
v -6
l 5 -4
v -4
l -8 -2
l -1 -4
l 9 -7
v 1
l 10 -3
l 2 -5
l -4 -3
l -8 2
l -5 -2
l -4 6
h -12
v -3
h 5
l 1 -5
l -11 -5
l -13 -4
l -4 -7
l -6 -4
h -4
l -1 10
l -3 1
l 7 9
l 2 7
l 7 4
l -7 1
l -1 5
l -8 -3
l -9 2
l 2 -4
l -1 -5
l 1 -7
l -3 -7
l 7 -3
l -6 -6
l 5 -8
l 6 1
l 2 -4
l 5 -6
l 4 14
l 6 -3
l 2 7
l 7 9
h 6
v -6
l -7 -3
l 1 -7
h 4
M615 117
v 2
l -2 -2"/>
</svg>