<svg version="1.1" xmlns="http://www.w3.org/2000/svg" width="655" height="1000" viewBox="0 0 655 1000">
  <path d="M209 810
l -2 -25
h -2
v -13
l -3 -10
l 3 -7
l 5 -4
l -1 -9
l 4 -11
h -1
l -2 9
l -3 2
l -5 10
v 8
l -3 -1
l -6 4
v 7
l -6 7
v 1
l 8 -7
h 1
l 5 -7
l -1 11
l 4 -3
v 14
h 2
l -2 14
l 3 9
l -2 5
l 4 1
l -12 8
l -3 -18
l 1 -18
l -1 -5
l -5 8
l 3 4
l -2 12
l -2 -9
l -4 12
l -7 3
l 7 -10
l -3 -2
l -8 11
l -4 2
l 14 -24
l -12 1
l -2 5
l -8 4
l 1 -6
l -15 18
l -14 20
h 5
l -6 7
l 7 -4
l 3 8
l 1 12
l -10 1
v -3
l -8 7
l -1 -4
l -4 3
h -1
l -4 7
l 1 11
l 6 1
l -6 2
l -3 8
h -4
l -3 10
l -5 2
l -11 1
l -8 16
l 1 8
l -1 7
l -6 7
v 5
l -7 12
h -9
l -8 -4
l -8 -9
v -6
l 1 -4
v -1
h -1
l 1 -1
l 1 -1
v -3
l 1 -1
h -1
l 1 -1
v -4
h -1
v -1
l -1 -1
h -1
v 1
l -1 -1
v -2
h -3
l -1 -2
h -1
v -1
h -1
l -1 -1
v -2
h -2
l -1 -2
v -1
h 1
v -2
h -2
v -2
l -1 -1
v -1
h -1
h 1
v -1
h -2
v -2
h -3
v 1
l -1 -1
v -1
h -1
v -1
h -1
v -4
l -1 -1
l -1 -1
v -3
l 1 -1
l -1 -1
v -3
l 1 -1
l 1 -1
l 1 -1
v -1
l 1 -2
v -3
l 1 -2
v -1
h -2
v -1
h -1
v -1
h 1
v -2
l 1 -1
l 1 -1
v -4
h 1
v -2
h -1
v -3
h 1
v -4
h -1
v -1
h -1
v -1
h -1
v -24
l -1 -2
v -101
l -1 -13
v -45
l -1 -2
v -66
l -1 -5
v -10
l -1 -10
v -29
l -1 -2
v -37
l -1 -7
v -6
l -1 -8
l 3 -4
l 1 -1
l 2 1
h 3
v -1
h 1
l 2 -1
l 1 -1
l -1 -2
v -2
h 1
l 2 1
l 2 1
h 3
l 1 1
l 2 3
l 2 1
v 2
l 1 1
v 2
l -1 1
v 2
l 1 1
v 1
l 1 1
l 1 1
v 2
l 1 2
h 1
v 1
h 1
l 2 1
h 1
l 2 -1
l 1 -1
l -1 -1
l -1 -1
v -2
h 1
v -1
l 2 -2
v -5
h 2
l 1 -1
v -2
l 1 -2
v -1
l -1 -1
l -1 -2
v -1
l 1 -1
v -1
l 1 -2
l 1 -1
v -1
l -1 -1
l -1 -1
l -1 -2
v -2
l 2 -3
v -1
l 1 -1
l 1 -1
l 2 -1
h 1
l 1 1
h 3
v 1
l 1 1
l 1 3
h 1
v 2
l 2 1
h 5
l 3 1
v 1
l 1 1
h 2
v -3
h 1
l 1 -1
v -2
l -1 -2
v -3
l -1 -1
l -1 -1
v -1
h -2
l -2 -1
l -1 -1
l -1 -2
v -1
l -1 -2
h -1
v -1
h -1
l -1 -1
v -1
l 1 -2
l -1 -1
v -3
l 2 -2
l 1 -1
v -1
l 2 -2
v -4
l 2 -2
l 1 -1
l 2 -2
l 1 -2
v -1
l 2 -1
l 2 -1
l 1 -1
l 1 -2
h 1
l 3 -2
l 1 -2
l 2 -3
l 1 -1
h 3
l 3 -1
l 1 -1
v -1
l 3 -2
l 1 -1
l 2 -2
h 1
v -1
l 1 1
l 4 -1
l 2 -2
h 2
l 1 -1
l 2 -1
v -1
h -2
v -4
l -1 -1
v -3
l -1 -2
l -1 -1
v -2
l 2 -1
h 1
v -2
l 2 -1
v -1
l 1 -1
l 1 -1
v -1
h 1
l 2 -2
v -1
h 1
v -1
h 1
l 4 -1
l 1 -1
l 3 -2
v -1
l 2 -2
l 1 -1
v -1
l 1 -3
l -1 -2
v -1
h 1
l 1 -2
l 1 -2
v -1
l -1 -1
h -1
v -2
h -2
l -1 -1
h -5
v -2
l 1 -1
v -1
h 1
l 1 -1
l 1 -1
h -2
v -1
l -1 -1
l -1 -2
v -2
l 2 -1
v -3
l 2 -1
v -1
h 1
v -2
h -3
l -1 -1
v -1
l 1 -1
v -3
l 2 -1
l 1 -1
h -1
h 2
v -1
l 2 1
h 1
v -3
l 1 -1
v -2
l 1 -3
l 1 -1
l -2 -2
l -1 -2
l -1 -1
l -2 -2
h -1
l -1 -1
v -2
l 2 -2
v -1
l 1 -2
v -1
l 1 -1
v -1
h 1
v -3
l 1 -3
v -2
h 1
l 1 -2
l 1 -2
l 1 -1
h 1
l 1 -1
l 1 -3
v -5
l 2 -2
v -2
l 3 -1
v -1
h 4
l 1 -1
h 1
v -2
l 1 -1
l 1 -1
h 2
v -1
l 1 -2
v -2
h 4
l 1 -1
h 1
l 2 -12
l 1 -7
l 3 -15
v -6
l 1 -3
v -1
l 1 -2
v -3
l 1 -6
v -3
l 1 -2
l 1 -1
l 2 -3
l 1 -2
l 2 -2
l 1 -3
l 2 -3
l 5 -7
l 1 -1
l 1 -2
l 2 -2
l 3 -4
l 1 -2
l 5 -7
l 1 -2
l 1 -1
l 3 -4
l 2 -3
l 2 -3
l 2 -2
l 1 -3
l 4 -5
l 2 -3
l 9 -12
l 1 -1
v -2
l 6 -7
l 1 -1
l 2 -4
l 8 -11
l 2 -3
l 1 -1
l 3 -5
l 1 -1
l 2 -3
l 11 -16
h 1
l 2 -3
l 1 -3
l 1 -1
l 3 -3
l 6 -9
l 2 -4
l 4 -6
h 8
l 1 1
h 2
l 1 1
h 2
l 1 1
h 1
l 1 1
v 1
l 1 1
h 1
l 1 1
h 2
l 2 -1
v -1
h 1
v 1
l 1 1
h -1
l 1 1
l 1 -1
h -1
v -1
h 1
v 3
h 1
l 1 2
v 1
l -2 -1
v 1
h 1
h -1
v 4
h -1
v 1
h -1
v 13
l 1 3
h -1
v 1
h 1
h -1
v 2
h 1
v 2
h -1
h 1
v 4
l 1 2
v 1
l 1 1
h 1
l 2 2
l 5 3
h 1
v 1
h 1
v 1
h 1
v 1
h 1
v 1
l 1 -1
h 1
v 1
h 2
v 1
h 1
v 2
h 2
v 1
h 1
v -1
h 5
v -1
l 2 -1
l 1 -1
h 1
v -1
h 1
l 2 -1
v -1
h 2
l 1 -1
l 2 -1
h 3
l 1 -1
h 1
l 1 -1
v -1
h 2
l 1 -1
h 1
v 1
h 1
l 2 -2
l 1 1
h 1
l 1 1
h 2
v -1
h 4
l 1 -1
h 2
v -1
l 2 -2
v -1
l -1 -1
v -1
l 1 -1
h 1
l 1 -1
v -1
l 2 1
h 1
l 1 1
l 1 -1
l 1 -1
l 1 -1
h 1
l 1 -1
h 2
l 1 1
h 2
l 1 -1
l 2 1
v 2
h 1
l 1 1
l 1 -1
v 1
h 1
l 2 -1
l 1 -1
h 3
v 1
h 1
v -1
l 1 -1
l -1 -1
v -2
l 2 -10
l 1 -1
h 1
l 1 -1
h 3
l 2 1
h 2
l 2 -1
l 2 1
l 1 1
h 3
v -1
h 2
l 1 1
v 1
l 1 1
l 1 1
v -1
l 5 2
l 2 1
l 1 1
v 3
l 1 1
l 1 1
l 1 1
h 1
l 1 1
v 1
l 2 1
l 1 1
h 1
l 2 1
l 1 1
v 1
l 2 1
l 1 1
l 2 1
l 1 1
l 2 1
l 2 2
l 1 2
l 1 2
h 1
l 2 1
l 2 1
l 1 1
v 3
h 1
v 1
l 1 1
v 1
l 1 1
v 1
l 1 1
l 1 1
h 1
l 1 1
v 1
l 1 1
v 1
h 1
v 4
l 1 1
v 1
h 2
l 3 2
h 1
l 2 1
h 1
l 1 1
v 1
h 1
l 2 1
v 6
l 1 3
v 32
l 1 3
v 60
l 1 3
v 13
l 2 54
v 66
l 1 1
v 1
h 1
v 1
h 1
v 1
h 1
l 1 1
v 2
h -1
l -1 1
l -1 1
l -1 1
l -2 1
l -1 1
l -1 1
v 2
l 1 1
v 2
h 1
l 1 1
v 1
l 1 1
l 1 1
h 1
v 2
l 2 2
h -2
v 1
h -2
l -3 2
l -1 11
l 4 5
l -4 1
l 1 6
l -2 1
l 2 3
v 1
l 5 -1
l 2 3
l 2 -1
v -1
l 1 2
h 1
v 1
h 1
v -1
v 1
h 1
v -1
l -1 -1
v -1
h -1
v -3
h 1
v 2
l 2 -1
v 1
l 1 1
v 1
l 5 9
h 1
l 2 3
l 2 -1
l -1 -2
h 1
l 4 4
h 3
l 3 2
h 5
l 6 2
v -1
h 1
v -1
l -1 -1
h 2
l 1 -1
l 1 1
l 1 -1
h 1
l 1 2
h 1
l 1 2
h 1
v 2
l 1 1
l -1 1
v 1
l 1 1
v 3
l -1 1
l -1 1
l 1 2
v 1
l 2 2
v 2
h -2
l -1 -1
h -2
v 1
l -2 -1
h -1
l 1 2
l -3 1
l -1 1
h -1
v 2
l 2 2
v 3
l 1 2
h 1
l -1 1
l 1 1
v 2
l 1 1
h 1
l 1 2
v 1
l 2 1
l 2 3
l 1 2
v 2
h -2
v 1
l 1 2
v 2
l -1 1
v 1
l -1 1
l -1 1
l -1 2
v 3
l -1 1
l -1 1
v 1
h -1
l -1 1
l -1 2
h 1
l 1 1
v 1
l 1 1
v 2
h 1
v 1
l 1 1
l 2 1
v 1
l 1 1
v 3
l 2 1
v 4
l 2 1
v 1
l 1 1
h 1
l -1 2
l 1 1
v 1
l 3 1
l 1 1
l 1 1
l 1 2
l 2 1
h 2
l 1 -1
l 1 -2
h 2
v -1
h 2
v -2
l -1 -1
v -2
h 1
v -3
h 1
v -1
h 2
l 2 1
l 1 1
l 2 1
v 1
h 2
v 1
l 4 -1
l 6 1
l 3 4
l 2 3
l 6 12
l -4 3
l 6 7
l 5 9
v 8
l -5 7
l -3 -5
l -4 4
v 8
l -4 -5
h -5
l 4 5
l 4 16
v -15
l 8 2
l -2 -6
l 7 7
v 8
l 3 -6
l -3 -11
l 5 4
v 8
l 4 -1
l 2 10
l -7 8
h -5
l -15 23
l -11 6
l -1 -7
h -4
l 2 9
l -5 1
l -3 -9
l 2 -10
l -10 2
l -6 5
l 4 3
l 2 7
l -8 6
l -2 -13
l -3 8
l 1 5
l -7 -2
l -9 -9
l 1 7
l -5 13
l 2 7
h -11
l -1 -7
l -8 6
v 5
l -7 4
l 1 -23
l -4 10
l -4 2
v -10
l -5 10
l -6 6
l 2 7
l -5 7
l -2 12
l -3 -4
v -16
l -1 5
l -1 12
l -4 -3
l -3 -9
l 1 -7
h -3
l -1 9
l -4 -4
l 1 6
l 5 2
l 3 9
l -6 -2
l -3 11
l -7 5
l -1 -10
l -4 1
l -2 -6
l -1 -13
l -6 -8
l -1 7
h -4
l -1 -11
l -8 -4
l -1 -5
l 8 -1
l -8 -2
l -2 9
l 8 4
l -2 12
l -5 -6
l -1 -7
l -5 1
l 5 5
l -2 9
l -6 -2
l -5 1
l -3 7
l -9 6
l 2 -22
l -7 4
l 2 6
l -1 16
h -2
v -16
l -8 12
l -9 -3
l 4 7
l -4 10
l 5 -8
l 2 3
l -4 10
l 5 6
l 2 11
l -9 -8
l -13 -5
l -10 -8
l -3 -5
l -1 5
l -10 4
v -9
l 5 -4
l 6 -12
l 11 10
l -9 -13
l -5 4
l -4 8
l -4 1
l 1 -10
l 6 -6
v -9
l 5 -10
l -4 -5
l -6 -1
l -5 -12
l 4 -12
l -8 21
l 5 -3
l 5 8
v 12
l -4 3
l 1 6
l -5 4
l 1 -8
l -8 6
h -4
l -2 5
h -10
l 9 16
l -1 7
l -3 6
h -4
l -4 10
l -5 17
l -2 -3
l -2 15
l -2 -1
l -1 8
l 9 -2
l -4 10
l -6 3
l -4 6
h -8
v 10
l -10 8
l -1 -7
l 2 -8
l 7 -7
h -6
l -3 8
l -3 -3
v 7
l -6 4
l 4 -12
l -4 6
l -4 -3
l -3 4
l 2 -10
l 2 -6
l -5 -5
l -6 10
l 3 3
l -7 6
l -5 18
l -5 11
l -8 -13
l 2 7
l -4 5
l 1 -18
l -3 -2
l 7 -13
l -6 4
l -3 14
h 3
l -3 9
l 3 3
l -2 9
v -10
l -5 8
l -4 -4
l -1 13
l -5 -7
l 4 -8
l 1 -17
l -3 1
l 3 -18
l -8 16
l -3 -1
l -2 8
l -6 1
l 6 4
l -2 14
l 5 -7
v 13
l -6 7
l -2 -2
Z
M543 650
l 3 12
h -4
l -2 -11
Z
M434 667
h 7
l 2 6
l 7 4
l 4 12
l -8 10
l -12 -1
l -1 -14
v 18
l 3 6
l -7 5
l -1 -6
h -9
l -4 -13
l 3 -2
l -1 -7
l 9 -7
l -1 -8
Z
M411 726
l -4 4
l -3 -4
l 9 -4
Z
M411 726
l 6 -5
l 4 9
l -6 3
Z
M416 685
l -1 6
l -4 -4
l 3 -5
Z
M408 691
l -8 1
l 1 -12
l 2 -1
Z
M380 703
l 8 6
l -5 6
h 7
l -7 12
l -6 2
l -6 -5
l 2 -13
Z
M383 745
l 6 -3
l 1 7
l -4 8
l -6 1
Z
M360 640
l 5 8
l -3 6
l -4 -11
Z
M359 750
l -2 4
l -9 -4
l -2 -8
h -3
v -7
h 5
l 7 8
l 7 -1
Z
M355 722
l 3 7
l -10 1
l -11 7
l 5 -9
l 10 -6
Z
M348 681
l -3 7
v 8
l -4 10
l -2 -10
l 4 -16
Z
M225 776
l -3 2
l -1 10
l -3 4
l -3 -10
l 4 -2
l 8 -17
Z
M226 779
v 13
l -3 -7
Z
M159 813
l -3 8
l -3 -2
l 2 -5
Z"/>
<g class="districts">
<path data-race-id="ME01" d="M23 801
l 9 1
l 5 -3
l 17 -1
l -1 -11
l 7 -5
l -1 -4
l 4 -4
l -2 -5
l 4 -3
l -9 -15
l -2 1
v -3
l -8 -2
l -2 -4
v -1
l 1 -4
l 6 4
l 16 -13
l 14 -7
l 5 11
l -3 2
v 15
l 2 2
l 7 6
l 5 -8
l 5 2
l 4 5
l 8 4
l 1 -2
l 5 2
l 7 -10
l 18 20
l 11 9
l 6 -4
l 8 -11
l -3 -4
l 2 -5
h 1
v -2
l 5 -20
l 15 3
l 7 -13
l 15 4
l 1 -5
v -11
l 5 -2
l -19 -1
l -10 -6
h -12
l -7 -4
l 4 -15
l -2 -5
l 2 -9
l 10 1
l 17 6
l 17 3
l 7 -26
l -5 -3
l 7 -9
v -6
l 10 2
l 16 4
l -3 14
l 11 6
l -10 25
l 15 4
l 2 -3
l 8 7
l 11 -11
l 7 6
l 15 16
h 11
l 4 2
l -5 17
l -2 -3
l -2 15
l -2 -1
l -1 8
l 9 -2
l -4 10
l -6 3
l -4 6
h -8
v 10
l -10 8
l -1 -7
l 2 -8
l 7 -7
h -6
l -3 8
l -3 -3
v 7
l -6 4
l 4 -12
l -4 6
l -4 -3
l -3 4
l 2 -10
l 2 -6
l -5 -5
l -6 10
l 3 3
l -7 6
l -5 18
l -5 11
l -8 -13
l 2 7
l -4 5
l 1 -18
l -3 -2
l 7 -13
l -6 4
l -3 14
h 3
l -3 9
l 3 3
l -2 9
v -10
l -5 8
l -4 -4
l -1 13
l -5 -7
l 4 -8
l 1 -17
l -3 1
l 3 -18
l -8 16
l -3 -1
l -2 8
l -6 1
l 6 4
l -2 14
l 5 -7
v 13
l -6 7
l -2 -2
l -1 -1
l -2 -25
h -2
v -13
l -3 -10
l 3 -7
l 5 -4
l -1 -9
l 4 -11
h -1
l -2 9
l -3 2
l -5 10
v 8
l -3 -1
l -6 4
v 7
l -6 7
v 1
l 8 -7
h 1
l 5 -7
l -1 11
l 4 -3
v 14
h 2
l -2 14
l 3 9
l -2 5
l 4 1
l -12 8
l -3 -18
l 1 -18
l -1 -5
l -5 8
l 3 4
l -2 12
l -2 -9
l -4 12
l -7 3
l 7 -10
l -3 -2
l -8 11
l -4 2
l 14 -24
l -12 1
l -2 5
l -8 4
l 1 -6
l -15 18
l -14 20
h 5
l -6 7
l 7 -4
l 3 8
l 1 12
l -10 1
v -3
l -8 7
l -1 -4
l -4 3
h -1
l -4 7
l 1 11
l 6 1
l -6 2
l -3 8
h -4
l -3 10
l -5 2
l -11 1
l -8 16
l 1 8
l -1 7
l -6 7
v 5
l -7 12
h -9
l -8 -4
l -8 -9
v -6
l 1 -4
v -1
h -1
l 1 -1
l 1 -1
v -3
l 1 -1
h -1
l 1 -1
v -4
h -1
v -1
l -1 -1
h -1
v 1
l -1 -1
v -2
h -3
l -1 -2
h -1
v -1
h -1
l -1 -1
v -2
h -2
l -1 -2
v -1
h 1
v -2
h -2
v -2
l -1 -1
v -1
h -1
h 1
v -1
h -2
v -2
h -3
v 1
l -1 -1
v -1
h -1
v -1
h -1
v -4
l -1 -1
l -1 -1
v -3
l 1 -1
l -1 -1
v -3
l 1 -1
l 1 -1
l 1 -1
v -1
l 1 -2
v -3
l 1 -2
v -1
h -2
v -1
h -1
v -1
h 1
v -2
l 1 -1
l 1 -1
v -4
h 1
v -2
h -1
v -3
h 1
v -4
h -1
v -1
h -1
v -1
h -1
v -24
l -1 -2
v -13
Z
M383 745
l 6 -3
l 1 7
l -4 8
l -6 1
Z
M359 750
l -2 4
l -9 -4
l -2 -8
h -3
v -7
h 5
l 7 8
l 7 -1
Z
M355 722
l 3 7
l -10 1
l -11 7
l 5 -9
l 10 -6
Z
M225 776
l -3 2
l -1 10
l -3 4
l -3 -10
l 4 -2
l 8 -17
Z
M226 779
v 13
l -3 -7
Z
M159 813
l -3 8
l -3 -2
l 2 -5
Z"/>
<path data-race-id="ME02" d="M19 478
l 1 -1
l 2 1
h 3
v -1
h 1
l 2 -1
l 1 -1
l -1 -2
v -2
h 1
l 2 1
l 2 1
h 3
l 1 1
l 2 3
l 2 1
v 2
l 1 1
v 2
l -1 1
v 2
l 1 1
v 1
l 1 1
l 1 1
v 2
l 1 2
h 1
v 1
h 1
l 2 1
h 1
l 2 -1
l 1 -1
l -1 -1
l -1 -1
v -2
h 1
v -1
l 2 -2
v -5
h 2
l 1 -1
v -2
l 1 -2
v -1
l -1 -1
l -1 -2
v -1
l 1 -1
v -1
l 1 -2
l 1 -1
v -1
l -1 -1
l -1 -1
l -1 -2
v -2
l 2 -3
v -1
l 1 -1
l 1 -1
l 2 -1
h 1
l 1 1
h 3
v 1
l 1 1
l 1 3
h 1
v 2
l 2 1
h 5
l 3 1
v 1
l 1 1
h 2
v -3
h 1
l 1 -1
v -2
l -1 -2
v -3
l -1 -1
l -1 -1
v -1
h -2
l -2 -1
l -1 -1
l -1 -2
v -1
l -1 -2
h -1
v -1
h -1
l -1 -1
v -1
l 1 -2
l -1 -1
v -3
l 2 -2
l 1 -1
v -1
l 2 -2
v -4
l 2 -2
l 1 -1
l 2 -2
l 1 -2
v -1
l 2 -1
l 2 -1
l 1 -1
l 1 -2
h 1
l 3 -2
l 1 -2
l 2 -3
l 1 -1
h 3
l 3 -1
l 1 -1
v -1
l 3 -2
l 1 -1
l 2 -2
h 1
v -1
l 1 1
l 4 -1
l 2 -2
h 2
l 1 -1
l 2 -1
v -1
h -2
v -4
l -1 -1
v -3
l -1 -2
l -1 -1
v -2
l 2 -1
h 1
v -2
l 2 -1
v -1
l 1 -1
l 1 -1
v -1
h 1
l 2 -2
v -1
h 1
v -1
h 1
l 4 -1
l 1 -1
l 3 -2
v -1
l 2 -2
l 1 -1
v -1
l 1 -3
l -1 -2
v -1
h 1
l 1 -2
l 1 -2
v -1
l -1 -1
h -1
v -2
h -2
l -1 -1
h -5
v -2
l 1 -1
v -1
h 1
l 1 -1
l 1 -1
h -2
v -1
l -1 -1
l -1 -2
v -2
l 2 -1
v -3
l 2 -1
v -1
h 1
v -2
h -3
l -1 -1
v -1
l 1 -1
v -3
l 2 -1
l 1 -1
h -1
h 2
v -1
l 2 1
h 1
v -3
l 1 -1
v -2
l 1 -3
l 1 -1
l -2 -2
l -1 -2
l -1 -1
l -2 -2
h -1
l -1 -1
v -2
l 2 -2
v -1
l 1 -2
v -1
l 1 -1
v -1
h 1
v -3
l 1 -3
v -2
h 1
l 1 -2
l 1 -2
l 1 -1
h 1
l 1 -1
l 1 -3
v -5
l 2 -2
v -2
l 3 -1
v -1
h 4
l 1 -1
h 1
v -2
l 1 -1
l 1 -1
h 2
v -1
l 1 -2
v -2
h 4
l 1 -1
h 1
l 2 -12
l 1 -7
l 3 -15
v -6
l 1 -3
v -1
l 1 -2
v -3
l 1 -6
v -3
l 1 -2
l 1 -1
l 2 -3
l 1 -2
l 2 -2
l 1 -3
l 2 -3
l 5 -7
l 1 -1
l 1 -2
l 2 -2
l 3 -4
l 1 -2
l 5 -7
l 1 -2
l 1 -1
l 3 -4
l 2 -3
l 2 -3
l 2 -2
l 1 -3
l 4 -5
l 2 -3
l 9 -12
l 1 -1
v -2
l 6 -7
l 1 -1
l 2 -4
l 8 -11
l 2 -3
l 1 -1
l 3 -5
l 1 -1
l 2 -3
l 11 -16
h 1
l 2 -3
l 1 -3
l 1 -1
l 3 -3
l 6 -9
l 2 -4
l 4 -6
h 8
l 1 1
h 2
l 1 1
h 2
l 1 1
h 1
l 1 1
v 1
l 1 1
h 1
l 1 1
h 2
l 2 -1
v -1
h 1
v 1
l 1 1
h -1
l 1 1
l 1 -1
h -1
v -1
h 1
v 3
h 1
l 1 2
v 1
l -2 -1
v 1
h 1
h -1
v 4
h -1
v 1
h -1
v 13
l 1 3
h -1
v 1
h 1
h -1
v 2
h 1
v 2
h -1
h 1
v 4
l 1 2
v 1
l 1 1
h 1
l 2 2
l 5 3
h 1
v 1
h 1
v 1
h 1
v 1
h 1
v 1
l 1 -1
h 1
v 1
h 2
v 1
h 1
v 2
h 2
v 1
h 1
v -1
h 5
v -1
l 2 -1
l 1 -1
h 1
v -1
h 1
l 2 -1
v -1
h 2
l 1 -1
l 2 -1
h 3
l 1 -1
h 1
l 1 -1
v -1
h 2
l 1 -1
h 1
v 1
h 1
l 2 -2
l 1 1
h 1
l 1 1
h 2
v -1
h 4
l 1 -1
h 2
v -1
l 2 -2
v -1
l -1 -1
v -1
l 1 -1
h 1
l 1 -1
v -1
l 2 1
h 1
l 1 1
l 1 -1
l 1 -1
l 1 -1
h 1
l 1 -1
h 2
l 1 1
h 2
l 1 -1
l 2 1
v 2
h 1
l 1 1
l 1 -1
v 1
h 1
l 2 -1
l 1 -1
h 3
v 1
h 1
v -1
l 1 -1
l -1 -1
v -2
l 2 -10
l 1 -1
h 1
l 1 -1
h 3
l 2 1
h 2
l 2 -1
l 2 1
l 1 1
h 3
v -1
h 2
l 1 1
v 1
l 1 1
l 1 1
v -1
l 5 2
l 2 1
l 1 1
v 3
l 1 1
l 1 1
l 1 1
h 1
l 1 1
v 1
l 2 1
l 1 1
h 1
l 2 1
l 1 1
v 1
l 2 1
l 1 1
l 2 1
l 1 1
l 2 1
l 2 2
l 1 2
l 1 2
h 1
l 2 1
l 2 1
l 1 1
v 3
h 1
v 1
l 1 1
v 1
l 1 1
v 1
l 1 1
l 1 1
h 1
l 1 1
v 1
l 1 1
v 1
h 1
v 4
l 1 1
v 1
h 2
l 3 2
h 1
l 2 1
h 1
l 1 1
v 1
h 1
l 2 1
v 6
l 1 3
v 32
l 1 3
v 60
l 1 3
v 13
l 2 54
v 66
l 1 1
v 1
h 1
v 1
h 1
v 1
h 1
l 1 1
v 2
h -1
l -1 1
l -1 1
l -1 1
l -2 1
l -1 1
l -1 1
v 2
l 1 1
v 2
h 1
l 1 1
v 1
l 1 1
l 1 1
h 1
v 2
l 2 2
h -2
v 1
h -2
l -3 2
l -1 11
l 4 5
l -4 1
l 1 6
l -2 1
l 2 3
v 1
l 5 -1
l 2 3
l 2 -1
v -1
l 1 2
h 1
v 1
h 1
v -1
v 1
h 1
v -1
l -1 -1
v -1
h -1
v -3
h 1
v 2
l 2 -1
v 1
l 1 1
v 1
l 5 9
h 1
l 2 3
l 2 -1
l -1 -2
h 1
l 4 4
h 3
l 3 2
h 5
l 6 2
v -1
h 1
v -1
l -1 -1
h 2
l 1 -1
l 1 1
l 1 -1
h 1
l 1 2
h 1
l 1 2
h 1
v 2
l 1 1
l -1 1
v 1
l 1 1
v 3
l -1 1
l -1 1
l 1 2
v 1
l 2 2
v 2
h -2
l -1 -1
h -2
v 1
l -2 -1
h -1
l 1 2
l -3 1
l -1 1
h -1
v 2
l 2 2
v 3
l 1 2
h 1
l -1 1
l 1 1
v 2
l 1 1
h 1
l 1 2
v 1
l 2 1
l 2 3
l 1 2
v 2
h -2
v 1
l 1 2
v 2
l -1 1
v 1
l -1 1
l -1 1
l -1 2
v 3
l -1 1
l -1 1
v 1
h -1
l -1 1
l -1 2
h 1
l 1 1
v 1
l 1 1
v 2
h 1
v 1
l 1 1
l 2 1
v 1
l 1 1
v 3
l 2 1
v 4
l 2 1
v 1
l 1 1
h 1
l -1 2
l 1 1
v 1
l 3 1
l 1 1
l 1 1
l 1 2
l 2 1
h 2
l 1 -1
l 1 -2
h 2
v -1
h 2
v -2
l -1 -1
v -2
h 1
v -3
h 1
v -1
h 2
l 2 1
l 1 1
l 2 1
v 1
h 2
v 1
l 4 -1
l 6 1
l 3 4
l 2 3
l 6 12
l -4 3
l 6 7
l 5 9
v 8
l -5 7
l -3 -5
l -4 4
v 8
l -4 -5
h -5
l 4 5
l 4 16
v -15
l 8 2
l -2 -6
l 7 7
v 8
l 3 -6
l -3 -11
l 5 4
v 8
l 4 -1
l 2 10
l -7 8
h -5
l -15 23
l -11 6
l -1 -7
h -4
l 2 9
l -5 1
l -3 -9
l 2 -10
l -10 2
l -6 5
l 4 3
l 2 7
l -8 6
l -2 -13
l -3 8
l 1 5
l -7 -2
l -9 -9
l 1 7
l -5 13
l 2 7
h -11
l -1 -7
l -8 6
v 5
l -7 4
l 1 -23
l -4 10
l -4 2
v -10
l -5 10
l -6 6
l 2 7
l -5 7
l -2 12
l -3 -4
v -16
l -1 5
l -1 12
l -4 -3
l -3 -9
l 1 -7
h -3
l -1 9
l -4 -4
l 1 6
l 5 2
l 3 9
l -6 -2
l -3 11
l -7 5
l -1 -10
l -4 1
l -2 -6
l -1 -13
l -6 -8
l -1 7
h -4
l -1 -11
l -8 -4
l -1 -5
l 8 -1
l -8 -2
l -2 9
l 8 4
l -2 12
l -5 -6
l -1 -7
l -5 1
l 5 5
l -2 9
l -6 -2
l -5 1
l -3 7
l -9 6
l 2 -22
l -7 4
l 2 6
l -1 16
h -2
v -16
l -8 12
l -9 -3
l 4 7
l -4 10
l 5 -8
l 2 3
l -4 10
l 5 6
l 2 11
l -9 -8
l -13 -5
l -10 -8
l -3 -5
l -1 5
l -10 4
v -9
l 5 -4
l 6 -12
l 11 10
l -9 -13
l -5 4
l -4 8
l -4 1
l 1 -10
l 6 -6
v -9
l 5 -10
l -4 -5
l -6 -1
l -5 -12
l 4 -12
l -8 21
l 5 -3
l 5 8
v 12
l -4 3
l 1 6
l -5 4
l 1 -8
l -8 6
h -4
l -2 5
h -10
l 9 16
l -1 7
l -3 6
h -4
l -4 10
l -4 -2
h -11
l -15 -16
l -7 -6
l -11 11
l -8 -7
l -2 3
l -15 -4
l 10 -25
l -11 -6
l 3 -14
l -16 -4
l -10 -2
v 6
l -7 9
l 5 3
l -7 26
l -17 -3
l -17 -6
l -10 -1
l -2 9
l 2 5
l -4 15
l 7 4
h 12
l 10 6
l 19 1
l -5 2
v 11
l -1 5
l -15 -4
l -7 13
l -15 -3
l -5 20
v 2
h -1
l -2 5
l 3 4
l -8 11
l -6 4
l -11 -9
l -18 -20
l -7 10
l -5 -2
l -1 2
l -8 -4
l -4 -5
l -5 -2
l -5 8
l -7 -6
l -2 -2
v -15
l 3 -2
l -5 -11
l -14 7
l -16 13
l -6 -4
l -1 4
v 1
l 2 4
l 8 2
v 3
l 2 -1
l 9 15
l -4 3
l 2 5
l -4 4
l 1 4
l -7 5
l 1 11
l -17 1
l -5 3
l -9 -1
v -79
l -1 -13
v -45
l -1 -2
v -66
l -1 -5
v -10
l -1 -10
v -29
l -1 -2
v -37
l -1 -7
v -6
l -1 -8
Z
M543 650
l 3 12
h -4
l -2 -11
Z
M434 667
h 7
l 2 6
l 7 4
l 4 12
l -8 10
l -12 -1
l -1 -14
v 18
l 3 6
l -7 5
l -1 -6
h -9
l -4 -13
l 3 -2
l -1 -7
l 9 -7
l -1 -8
Z
M411 726
l -4 4
l -3 -4
l 9 -4
Z
M411 726
l 6 -5
l 4 9
l -6 3
Z
M416 685
l -1 6
l -4 -4
l 3 -5
Z
M408 691
l -8 1
l 1 -12
l 2 -1
Z
M380 703
l 8 6
l -5 6
h 7
l -7 12
l -6 2
l -6 -5
l 2 -13
Z
M360 640
l 5 8
l -3 6
l -4 -11
Z
M348 681
l -3 7
v 8
l -4 10
l -2 -10
l 4 -16
Z"/>
</g>
  <path class="districts-mesh" d="M23 801
l 9 1
l 5 -3
l 17 -1
l -1 -11
l 7 -5
l -1 -4
l 4 -4
l -2 -5
l 4 -3
l -9 -15
l -2 1
v -3
l -8 -2
l -2 -4
v -1
l 1 -4
l 6 4
l 16 -13
l 14 -7
l 5 11
l -3 2
v 15
l 2 2
l 7 6
l 5 -8
l 5 2
l 4 5
l 8 4
l 1 -2
l 5 2
l 7 -10
l 18 20
l 11 9
l 6 -4
l 8 -11
l -3 -4
l 2 -5
h 1
v -2
l 5 -20
l 15 3
l 7 -13
l 15 4
l 1 -5
v -11
l 5 -2
l -19 -1
l -10 -6
h -12
l -7 -4
l 4 -15
l -2 -5
l 2 -9
l 10 1
l 17 6
l 17 3
l 7 -26
l -5 -3
l 7 -9
v -6
l 10 2
l 16 4
l -3 14
l 11 6
l -10 25
l 15 4
l 2 -3
l 8 7
l 11 -11
l 7 6
l 15 16
h 11
l 4 2"/>
</svg>