<svg version="1.1" xmlns="http://www.w3.org/2000/svg" width="655" height="1000" viewBox="0 0 655 1000">  <path d="M209,810l-2,-25h-2v-13l-3,-10l3,-7l5,-4l-1,-9l4,-11h-1l-2,9l-3,2l-5,10v8l-3,-1l-6,4v7l-6,7v1l8,-7h1l5,-7l-1,11l4,-3v14h2l-2,14l3,9l-2,5l4,1l-12,8l-3,-18l1,-18l-1,-5l-5,8l3,4l-2,12l-2,-9l-4,12l-7,3l7,-10l-3,-2l-8,11l-4,2l14,-24l-12,1l-2,5l-8,4l1,-6l-15,18l-14,20h5l-6,7l7,-4l3,8l1,12l-10,1v-3l-8,7l-1,-4l-4,3h-1l-4,7l1,11l6,1l-6,2l-3,8h-4l-3,10l-5,2l-11,1l-8,16l1,8l-1,7l-6,7v5l-7,12h-9l-8,-4l-8,-9v-6l1,-4v-1h-1l1,-1l1,-1v-3l1,-1h-1l1,-1v-4h-1v-1l-1,-1h-1v1l-1,-1v-2h-3l-1,-2h-1v-1h-1l-1,-1v-2h-2l-1,-2v-1h1v-2h-2v-2l-1,-1v-1h-1h1v-1h-2v-2h-3v1l-1,-1v-1h-1v-1h-1v-4l-1,-1l-1,-1v-3l1,-1l-1,-1v-3l1,-1l1,-1l1,-1v-1l1,-2v-3l1,-2v-1h-2v-1h-1v-1h1v-2l1,-1l1,-1v-4h1v-2h-1v-3h1v-4h-1v-1h-1v-1h-1v-24l-1,-2v-101l-1,-13v-45l-1,-2v-66l-1,-5v-10l-1,-10v-29l-1,-2v-37l-1,-7v-6l-1,-8l3,-4l1,-1l2,1h3v-1h1l2,-1l1,-1l-1,-2v-2h1l2,1l2,1h3l1,1l2,3l2,1v2l1,1v2l-1,1v2l1,1v1l1,1l1,1v2l1,2h1v1h1l2,1h1l2,-1l1,-1l-1,-1l-1,-1v-2h1v-1l2,-2v-5h2l1,-1v-2l1,-2v-1l-1,-1l-1,-2v-1l1,-1v-1l1,-2l1,-1v-1l-1,-1l-1,-1l-1,-2v-2l2,-3v-1l1,-1l1,-1l2,-1h1l1,1h3v1l1,1l1,3h1v2l2,1h5l3,1v1l1,1h2v-3h1l1,-1v-2l-1,-2v-3l-1,-1l-1,-1v-1h-2l-2,-1l-1,-1l-1,-2v-1l-1,-2h-1v-1h-1l-1,-1v-1l1,-2l-1,-1v-3l2,-2l1,-1v-1l2,-2v-4l2,-2l1,-1l2,-2l1,-2v-1l2,-1l2,-1l1,-1l1,-2h1l3,-2l1,-2l2,-3l1,-1h3l3,-1l1,-1v-1l3,-2l1,-1l2,-2h1v-1l1,1l4,-1l2,-2h2l1,-1l2,-1v-1h-2v-4l-1,-1v-3l-1,-2l-1,-1v-2l2,-1h1v-2l2,-1v-1l1,-1l1,-1v-1h1l2,-2v-1h1v-1h1l4,-1l1,-1l3,-2v-1l2,-2l1,-1v-1l1,-3l-1,-2v-1h1l1,-2l1,-2v-1l-1,-1h-1v-2h-2l-1,-1h-5v-2l1,-1v-1h1l1,-1l1,-1h-2v-1l-1,-1l-1,-2v-2l2,-1v-3l2,-1v-1h1v-2h-3l-1,-1v-1l1,-1v-3l2,-1l1,-1h-1h2v-1l2,1h1v-3l1,-1v-2l1,-3l1,-1l-2,-2l-1,-2l-1,-1l-2,-2h-1l-1,-1v-2l2,-2v-1l1,-2v-1l1,-1v-1h1v-3l1,-3v-2h1l1,-2l1,-2l1,-1h1l1,-1l1,-3v-5l2,-2v-2l3,-1v-1h4l1,-1h1v-2l1,-1l1,-1h2v-1l1,-2v-2h4l1,-1h1l2,-12l1,-7l3,-15v-6l1,-3v-1l1,-2v-3l1,-6v-3l1,-2l1,-1l2,-3l1,-2l2,-2l1,-3l2,-3l5,-7l1,-1l1,-2l2,-2l3,-4l1,-2l5,-7l1,-2l1,-1l3,-4l2,-3l2,-3l2,-2l1,-3l4,-5l2,-3l9,-12l1,-1v-2l6,-7l1,-1l2,-4l8,-11l2,-3l1,-1l3,-5l1,-1l2,-3l11,-16h1l2,-3l1,-3l1,-1l3,-3l6,-9l2,-4l4,-6h8l1,1h2l1,1h2l1,1h1l1,1v1l1,1h1l1,1h2l2,-1v-1h1v1l1,1h-1l1,1l1,-1h-1v-1h1v3h1l1,2v1l-2,-1v1h1h-1v4h-1v1h-1v13l1,3h-1v1h1h-1v2h1v2h-1h1v4l1,2v1l1,1h1l2,2l5,3h1v1h1v1h1v1h1v1l1,-1h1v1h2v1h1v2h2v1h1v-1h5v-1l2,-1l1,-1h1v-1h1l2,-1v-1h2l1,-1l2,-1h3l1,-1h1l1,-1v-1h2l1,-1h1v1h1l2,-2l1,1h1l1,1h2v-1h4l1,-1h2v-1l2,-2v-1l-1,-1v-1l1,-1h1l1,-1v-1l2,1h1l1,1l1,-1l1,-1l1,-1h1l1,-1h2l1,1h2l1,-1l2,1v2h1l1,1l1,-1v1h1l2,-1l1,-1h3v1h1v-1l1,-1l-1,-1v-2l2,-10l1,-1h1l1,-1h3l2,1h2l2,-1l2,1l1,1h3v-1h2l1,1v1l1,1l1,1v-1l5,2l2,1l1,1v3l1,1l1,1l1,1h1l1,1v1l2,1l1,1h1l2,1l1,1v1l2,1l1,1l2,1l1,1l2,1l2,2l1,2l1,2h1l2,1l2,1l1,1v3h1v1l1,1v1l1,1v1l1,1l1,1h1l1,1v1l1,1v1h1v4l1,1v1h2l3,2h1l2,1h1l1,1v1h1l2,1v6l1,3v32l1,3v60l1,3v13l2,54v66l1,1v1h1v1h1v1h1l1,1v2h-1l-1,1l-1,1l-1,1l-2,1l-1,1l-1,1v2l1,1v2h1l1,1v1l1,1l1,1h1v2l2,2h-2v1h-2l-3,2l-1,11l4,5l-4,1l1,6l-2,1l2,3v1l5,-1l2,3l2,-1v-1l1,2h1v1h1v-1v1h1v-1l-1,-1v-1h-1v-3h1v2l2,-1v1l1,1v1l5,9h1l2,3l2,-1l-1,-2h1l4,4h3l3,2h5l6,2v-1h1v-1l-1,-1h2l1,-1l1,1l1,-1h1l1,2h1l1,2h1v2l1,1l-1,1v1l1,1v3l-1,1l-1,1l1,2v1l2,2v2h-2l-1,-1h-2v1l-2,-1h-1l1,2l-3,1l-1,1h-1v2l2,2v3l1,2h1l-1,1l1,1v2l1,1h1l1,2v1l2,1l2,3l1,2v2h-2v1l1,2v2l-1,1v1l-1,1l-1,1l-1,2v3l-1,1l-1,1v1h-1l-1,1l-1,2h1l1,1v1l1,1v2h1v1l1,1l2,1v1l1,1v3l2,1v4l2,1v1l1,1h1l-1,2l1,1v1l3,1l1,1l1,1l1,2l2,1h2l1,-1l1,-2h2v-1h2v-2l-1,-1v-2h1v-3h1v-1h2l2,1l1,1l2,1v1h2v1l4,-1l6,1l3,4l2,3l6,12l-4,3l6,7l5,9v8l-5,7l-3,-5l-4,4v8l-4,-5h-5l4,5l4,16v-15l8,2l-2,-6l7,7v8l3,-6l-3,-11l5,4v8l4,-1l2,10l-7,8h-5l-15,23l-11,6l-1,-7h-4l2,9l-5,1l-3,-9l2,-10l-10,2l-6,5l4,3l2,7l-8,6l-2,-13l-3,8l1,5l-7,-2l-9,-9l1,7l-5,13l2,7h-11l-1,-7l-8,6v5l-7,4l1,-23l-4,10l-4,2v-10l-5,10l-6,6l2,7l-5,7l-2,12l-3,-4v-16l-1,5l-1,12l-4,-3l-3,-9l1,-7h-3l-1,9l-4,-4l1,6l5,2l3,9l-6,-2l-3,11l-7,5l-1,-10l-4,1l-2,-6l-1,-13l-6,-8l-1,7h-4l-1,-11l-8,-4l-1,-5l8,-1l-8,-2l-2,9l8,4l-2,12l-5,-6l-1,-7l-5,1l5,5l-2,9l-6,-2l-5,1l-3,7l-9,6l2,-22l-7,4l2,6l-1,16h-2v-16l-8,12l-9,-3l4,7l-4,10l5,-8l2,3l-4,10l5,6l2,11l-9,-8l-13,-5l-10,-8l-3,-5l-1,5l-10,4v-9l5,-4l6,-12l11,10l-9,-13l-5,4l-4,8l-4,1l1,-10l6,-6v-9l5,-10l-4,-5l-6,-1l-5,-12l4,-12l-8,21l5,-3l5,8v12l-4,3l1,6l-5,4l1,-8l-8,6h-4l-2,5h-10l9,16l-1,7l-3,6h-4l-4,10l-5,17l-2,-3l-2,15l-2,-1l-1,8l9,-2l-4,10l-6,3l-4,6h-8v10l-10,8l-1,-7l2,-8l7,-7h-6l-3,8l-3,-3v7l-6,4l4,-12l-4,6l-4,-3l-3,4l2,-10l2,-6l-5,-5l-6,10l3,3l-7,6l-5,18l-5,11l-8,-13l2,7l-4,5l1,-18l-3,-2l7,-13l-6,4l-3,14h3l-3,9l3,3l-2,9v-10l-5,8l-4,-4l-1,13l-5,-7l4,-8l1,-17l-3,1l3,-18l-8,16l-3,-1l-2,8l-6,1l6,4l-2,14l5,-7v13l-6,7l-2,-2ZM543,650l3,12h-4l-2,-11ZM434,667h7l2,6l7,4l4,12l-8,10l-12,-1l-1,-14v18l3,6l-7,5l-1,-6h-9l-4,-13l3,-2l-1,-7l9,-7l-1,-8ZM411,726l-4,4l-3,-4l9,-4ZM411,726l6,-5l4,9l-6,3ZM416,685l-1,6l-4,-4l3,-5ZM408,691l-8,1l1,-12l2,-1ZM380,703l8,6l-5,6h7l-7,12l-6,2l-6,-5l2,-13ZM383,745l6,-3l1,7l-4,8l-6,1ZM360,640l5,8l-3,6l-4,-11ZM359,750l-2,4l-9,-4l-2,-8h-3v-7h5l7,8l7,-1ZM355,722l3,7l-10,1l-11,7l5,-9l10,-6ZM348,681l-3,7v8l-4,10l-2,-10l4,-16ZM225,776l-3,2l-1,10l-3,4l-3,-10l4,-2l8,-17ZM226,779v13l-3,-7ZM159,813l-3,8l-3,-2l2,-5Z"/><g class="districts"><path data-race-id="ME01" d="M23,801l9,1l5,-3l17,-1l-1,-11l7,-5l-1,-4l4,-4l-2,-5l4,-3l-9,-15l-2,1v-3l-8,-2l-2,-4v-1l1,-4l6,4l16,-13l14,-7l5,11l-3,2v15l2,2l7,6l5,-8l5,2l4,5l8,4l1,-2l5,2l7,-10l18,20l11,9l6,-4l8,-11l-3,-4l2,-5h1v-2l5,-20l15,3l7,-13l15,4l1,-5v-11l5,-2l-19,-1l-10,-6h-12l-7,-4l4,-15l-2,-5l2,-9l10,1l17,6l17,3l7,-26l-5,-3l7,-9v-6l10,2l16,4l-3,14l11,6l-10,25l15,4l2,-3l8,7l11,-11l7,6l15,16h11l4,2l-5,17l-2,-3l-2,15l-2,-1l-1,8l9,-2l-4,10l-6,3l-4,6h-8v10l-10,8l-1,-7l2,-8l7,-7h-6l-3,8l-3,-3v7l-6,4l4,-12l-4,6l-4,-3l-3,4l2,-10l2,-6l-5,-5l-6,10l3,3l-7,6l-5,18l-5,11l-8,-13l2,7l-4,5l1,-18l-3,-2l7,-13l-6,4l-3,14h3l-3,9l3,3l-2,9v-10l-5,8l-4,-4l-1,13l-5,-7l4,-8l1,-17l-3,1l3,-18l-8,16l-3,-1l-2,8l-6,1l6,4l-2,14l5,-7v13l-6,7l-2,-2l-1,-1l-2,-25h-2v-13l-3,-10l3,-7l5,-4l-1,-9l4,-11h-1l-2,9l-3,2l-5,10v8l-3,-1l-6,4v7l-6,7v1l8,-7h1l5,-7l-1,11l4,-3v14h2l-2,14l3,9l-2,5l4,1l-12,8l-3,-18l1,-18l-1,-5l-5,8l3,4l-2,12l-2,-9l-4,12l-7,3l7,-10l-3,-2l-8,11l-4,2l14,-24l-12,1l-2,5l-8,4l1,-6l-15,18l-14,20h5l-6,7l7,-4l3,8l1,12l-10,1v-3l-8,7l-1,-4l-4,3h-1l-4,7l1,11l6,1l-6,2l-3,8h-4l-3,10l-5,2l-11,1l-8,16l1,8l-1,7l-6,7v5l-7,12h-9l-8,-4l-8,-9v-6l1,-4v-1h-1l1,-1l1,-1v-3l1,-1h-1l1,-1v-4h-1v-1l-1,-1h-1v1l-1,-1v-2h-3l-1,-2h-1v-1h-1l-1,-1v-2h-2l-1,-2v-1h1v-2h-2v-2l-1,-1v-1h-1h1v-1h-2v-2h-3v1l-1,-1v-1h-1v-1h-1v-4l-1,-1l-1,-1v-3l1,-1l-1,-1v-3l1,-1l1,-1l1,-1v-1l1,-2v-3l1,-2v-1h-2v-1h-1v-1h1v-2l1,-1l1,-1v-4h1v-2h-1v-3h1v-4h-1v-1h-1v-1h-1v-24l-1,-2v-13ZM383,745l6,-3l1,7l-4,8l-6,1ZM359,750l-2,4l-9,-4l-2,-8h-3v-7h5l7,8l7,-1ZM355,722l3,7l-10,1l-11,7l5,-9l10,-6ZM225,776l-3,2l-1,10l-3,4l-3,-10l4,-2l8,-17ZM226,779v13l-3,-7ZM159,813l-3,8l-3,-2l2,-5Z"/><path data-race-id="ME02" d="M19,478l1,-1l2,1h3v-1h1l2,-1l1,-1l-1,-2v-2h1l2,1l2,1h3l1,1l2,3l2,1v2l1,1v2l-1,1v2l1,1v1l1,1l1,1v2l1,2h1v1h1l2,1h1l2,-1l1,-1l-1,-1l-1,-1v-2h1v-1l2,-2v-5h2l1,-1v-2l1,-2v-1l-1,-1l-1,-2v-1l1,-1v-1l1,-2l1,-1v-1l-1,-1l-1,-1l-1,-2v-2l2,-3v-1l1,-1l1,-1l2,-1h1l1,1h3v1l1,1l1,3h1v2l2,1h5l3,1v1l1,1h2v-3h1l1,-1v-2l-1,-2v-3l-1,-1l-1,-1v-1h-2l-2,-1l-1,-1l-1,-2v-1l-1,-2h-1v-1h-1l-1,-1v-1l1,-2l-1,-1v-3l2,-2l1,-1v-1l2,-2v-4l2,-2l1,-1l2,-2l1,-2v-1l2,-1l2,-1l1,-1l1,-2h1l3,-2l1,-2l2,-3l1,-1h3l3,-1l1,-1v-1l3,-2l1,-1l2,-2h1v-1l1,1l4,-1l2,-2h2l1,-1l2,-1v-1h-2v-4l-1,-1v-3l-1,-2l-1,-1v-2l2,-1h1v-2l2,-1v-1l1,-1l1,-1v-1h1l2,-2v-1h1v-1h1l4,-1l1,-1l3,-2v-1l2,-2l1,-1v-1l1,-3l-1,-2v-1h1l1,-2l1,-2v-1l-1,-1h-1v-2h-2l-1,-1h-5v-2l1,-1v-1h1l1,-1l1,-1h-2v-1l-1,-1l-1,-2v-2l2,-1v-3l2,-1v-1h1v-2h-3l-1,-1v-1l1,-1v-3l2,-1l1,-1h-1h2v-1l2,1h1v-3l1,-1v-2l1,-3l1,-1l-2,-2l-1,-2l-1,-1l-2,-2h-1l-1,-1v-2l2,-2v-1l1,-2v-1l1,-1v-1h1v-3l1,-3v-2h1l1,-2l1,-2l1,-1h1l1,-1l1,-3v-5l2,-2v-2l3,-1v-1h4l1,-1h1v-2l1,-1l1,-1h2v-1l1,-2v-2h4l1,-1h1l2,-12l1,-7l3,-15v-6l1,-3v-1l1,-2v-3l1,-6v-3l1,-2l1,-1l2,-3l1,-2l2,-2l1,-3l2,-3l5,-7l1,-1l1,-2l2,-2l3,-4l1,-2l5,-7l1,-2l1,-1l3,-4l2,-3l2,-3l2,-2l1,-3l4,-5l2,-3l9,-12l1,-1v-2l6,-7l1,-1l2,-4l8,-11l2,-3l1,-1l3,-5l1,-1l2,-3l11,-16h1l2,-3l1,-3l1,-1l3,-3l6,-9l2,-4l4,-6h8l1,1h2l1,1h2l1,1h1l1,1v1l1,1h1l1,1h2l2,-1v-1h1v1l1,1h-1l1,1l1,-1h-1v-1h1v3h1l1,2v1l-2,-1v1h1h-1v4h-1v1h-1v13l1,3h-1v1h1h-1v2h1v2h-1h1v4l1,2v1l1,1h1l2,2l5,3h1v1h1v1h1v1h1v1l1,-1h1v1h2v1h1v2h2v1h1v-1h5v-1l2,-1l1,-1h1v-1h1l2,-1v-1h2l1,-1l2,-1h3l1,-1h1l1,-1v-1h2l1,-1h1v1h1l2,-2l1,1h1l1,1h2v-1h4l1,-1h2v-1l2,-2v-1l-1,-1v-1l1,-1h1l1,-1v-1l2,1h1l1,1l1,-1l1,-1l1,-1h1l1,-1h2l1,1h2l1,-1l2,1v2h1l1,1l1,-1v1h1l2,-1l1,-1h3v1h1v-1l1,-1l-1,-1v-2l2,-10l1,-1h1l1,-1h3l2,1h2l2,-1l2,1l1,1h3v-1h2l1,1v1l1,1l1,1v-1l5,2l2,1l1,1v3l1,1l1,1l1,1h1l1,1v1l2,1l1,1h1l2,1l1,1v1l2,1l1,1l2,1l1,1l2,1l2,2l1,2l1,2h1l2,1l2,1l1,1v3h1v1l1,1v1l1,1v1l1,1l1,1h1l1,1v1l1,1v1h1v4l1,1v1h2l3,2h1l2,1h1l1,1v1h1l2,1v6l1,3v32l1,3v60l1,3v13l2,54v66l1,1v1h1v1h1v1h1l1,1v2h-1l-1,1l-1,1l-1,1l-2,1l-1,1l-1,1v2l1,1v2h1l1,1v1l1,1l1,1h1v2l2,2h-2v1h-2l-3,2l-1,11l4,5l-4,1l1,6l-2,1l2,3v1l5,-1l2,3l2,-1v-1l1,2h1v1h1v-1v1h1v-1l-1,-1v-1h-1v-3h1v2l2,-1v1l1,1v1l5,9h1l2,3l2,-1l-1,-2h1l4,4h3l3,2h5l6,2v-1h1v-1l-1,-1h2l1,-1l1,1l1,-1h1l1,2h1l1,2h1v2l1,1l-1,1v1l1,1v3l-1,1l-1,1l1,2v1l2,2v2h-2l-1,-1h-2v1l-2,-1h-1l1,2l-3,1l-1,1h-1v2l2,2v3l1,2h1l-1,1l1,1v2l1,1h1l1,2v1l2,1l2,3l1,2v2h-2v1l1,2v2l-1,1v1l-1,1l-1,1l-1,2v3l-1,1l-1,1v1h-1l-1,1l-1,2h1l1,1v1l1,1v2h1v1l1,1l2,1v1l1,1v3l2,1v4l2,1v1l1,1h1l-1,2l1,1v1l3,1l1,1l1,1l1,2l2,1h2l1,-1l1,-2h2v-1h2v-2l-1,-1v-2h1v-3h1v-1h2l2,1l1,1l2,1v1h2v1l4,-1l6,1l3,4l2,3l6,12l-4,3l6,7l5,9v8l-5,7l-3,-5l-4,4v8l-4,-5h-5l4,5l4,16v-15l8,2l-2,-6l7,7v8l3,-6l-3,-11l5,4v8l4,-1l2,10l-7,8h-5l-15,23l-11,6l-1,-7h-4l2,9l-5,1l-3,-9l2,-10l-10,2l-6,5l4,3l2,7l-8,6l-2,-13l-3,8l1,5l-7,-2l-9,-9l1,7l-5,13l2,7h-11l-1,-7l-8,6v5l-7,4l1,-23l-4,10l-4,2v-10l-5,10l-6,6l2,7l-5,7l-2,12l-3,-4v-16l-1,5l-1,12l-4,-3l-3,-9l1,-7h-3l-1,9l-4,-4l1,6l5,2l3,9l-6,-2l-3,11l-7,5l-1,-10l-4,1l-2,-6l-1,-13l-6,-8l-1,7h-4l-1,-11l-8,-4l-1,-5l8,-1l-8,-2l-2,9l8,4l-2,12l-5,-6l-1,-7l-5,1l5,5l-2,9l-6,-2l-5,1l-3,7l-9,6l2,-22l-7,4l2,6l-1,16h-2v-16l-8,12l-9,-3l4,7l-4,10l5,-8l2,3l-4,10l5,6l2,11l-9,-8l-13,-5l-10,-8l-3,-5l-1,5l-10,4v-9l5,-4l6,-12l11,10l-9,-13l-5,4l-4,8l-4,1l1,-10l6,-6v-9l5,-10l-4,-5l-6,-1l-5,-12l4,-12l-8,21l5,-3l5,8v12l-4,3l1,6l-5,4l1,-8l-8,6h-4l-2,5h-10l9,16l-1,7l-3,6h-4l-4,10l-4,-2h-11l-15,-16l-7,-6l-11,11l-8,-7l-2,3l-15,-4l10,-25l-11,-6l3,-14l-16,-4l-10,-2v6l-7,9l5,3l-7,26l-17,-3l-17,-6l-10,-1l-2,9l2,5l-4,15l7,4h12l10,6l19,1l-5,2v11l-1,5l-15,-4l-7,13l-15,-3l-5,20v2h-1l-2,5l3,4l-8,11l-6,4l-11,-9l-18,-20l-7,10l-5,-2l-1,2l-8,-4l-4,-5l-5,-2l-5,8l-7,-6l-2,-2v-15l3,-2l-5,-11l-14,7l-16,13l-6,-4l-1,4v1l2,4l8,2v3l2,-1l9,15l-4,3l2,5l-4,4l1,4l-7,5l1,11l-17,1l-5,3l-9,-1v-79l-1,-13v-45l-1,-2v-66l-1,-5v-10l-1,-10v-29l-1,-2v-37l-1,-7v-6l-1,-8ZM543,650l3,12h-4l-2,-11ZM434,667h7l2,6l7,4l4,12l-8,10l-12,-1l-1,-14v18l3,6l-7,5l-1,-6h-9l-4,-13l3,-2l-1,-7l9,-7l-1,-8ZM411,726l-4,4l-3,-4l9,-4ZM411,726l6,-5l4,9l-6,3ZM416,685l-1,6l-4,-4l3,-5ZM408,691l-8,1l1,-12l2,-1ZM380,703l8,6l-5,6h7l-7,12l-6,2l-6,-5l2,-13ZM360,640l5,8l-3,6l-4,-11ZM348,681l-3,7v8l-4,10l-2,-10l4,-16Z"/></g>  <path class="districts-mesh" d="M23,801l9,1l5,-3l17,-1l-1,-11l7,-5l-1,-4l4,-4l-2,-5l4,-3l-9,-15l-2,1v-3l-8,-2l-2,-4v-1l1,-4l6,4l16,-13l14,-7l5,11l-3,2v15l2,2l7,6l5,-8l5,2l4,5l8,4l1,-2l5,2l7,-10l18,20l11,9l6,-4l8,-11l-3,-4l2,-5h1v-2l5,-20l15,3l7,-13l15,4l1,-5v-11l5,-2l-19,-1l-10,-6h-12l-7,-4l4,-15l-2,-5l2,-9l10,1l17,6l17,3l7,-26l-5,-3l7,-9v-6l10,2l16,4l-3,14l11,6l-10,25l15,4l2,-3l8,7l11,-11l7,6l15,16h11l4,2"/></svg>