<svg version="1.1" xmlns="http://www.w3.org/2000/svg" width="655" height="1000" viewBox="0 0 655 1000"><path data-race-id="ME01" d="M23,801l5,2l11,-5l5,2l10,-2l-1,-11l8,-5h-1l-1,-4l4,-4l-2,-5l4,-3l-9,-15l-2,1v-3l-8,-2l-2,-4v-5l7,4l13,-10l5,-2l11,-8l3,3l3,8l-3,2v15l1,2h1l7,6l5,-8l5,2l5,5l6,4h1l1,-2l5,2l7,-10l13,14l4,6l13,9l5,-4l8,-11l-3,-4l3,-2l-1,-3h1v-2l1,-5l4,-15l16,4l3,-11l4,-3l14,4l1,-5l-1,-10l6,-3l-7,-2v2h-5l-7,-1l-4,-4l-6,-2h-12l-7,-3v-1l4,-15l-2,-7l2,-8l20,5l1,1l7,2h2l13,3l5,-12l3,-14l-7,-2l9,-10v-6l10,2l16,4l-3,14l11,6l-10,25l11,3l4,1l2,-3l8,7l12,-11l12,12l2,3l8,7l14,2l-4,13v1h-3l-1,14l-1,1l-3,5v2l9,-2l-5,5l1,5l-5,-2l-5,-3l2,12v1l-10,1v10l-10,7l-3,-8l13,-17h1l2,-8l-3,2v1l-6,11l-2,-2l-3,8l-3,-3l-1,8l-5,3l4,-11v-1l-5,6l-3,-3l-3,4l2,-10l-3,-1l5,-6l-5,-4l-5,7l2,6l-5,1l-2,6l-1,1l-2,13l-7,14l-6,-10l2,-6h-1l-5,15l1,-18l-3,-2l6,-12l1,-1v-7l-5,10v1l-3,9v1l2,4l-3,9l3,3l-2,9l-1,-9h-1l-3,7l-1,-5l-4,3v11l-5,-7l2,-8l3,2l-1,-2v-4l1,-13l3,-1v-1l-6,3l3,-15l3,-3h1l2,-8l-2,5l-7,9l-5,10l-3,-1l-2,9h-6l2,5h1l3,-1l-2,14l5,-7v13l-6,7l-2,-2l-1,-1l-1,-6l2,-7l-3,-2l-2,-15h1l-4,-18l3,-7l5,-4l-1,-9l4,-11h-1l-2,9l-4,3l-4,9v8l-4,-1l-6,7v1l1,3l-6,7v1l8,-7h1l5,-7l-1,11l4,-3v12l-3,4v1l5,-3l-2,14l3,5l-2,9l4,1l-12,8l2,-10l-4,2l-1,-10l5,-10l-4,3l-3,-9l2,-7l-6,8v1l4,3l-2,12l-3,-3l-3,6l-7,3l6,-9l2,-9l-1,-3v1l-2,6l-9,14l-4,1l7,-13l7,-9h-12l-9,6v-4l-5,7l-6,2l-3,5h-1l-3,8v1l-3,5l-6,2l3,8l-4,5l-6,-1h1l3,3h8l3,16l-10,1v-5l-7,7l-6,1h-1l-4,8l-2,7l9,4l-4,1l-7,9v-1l-3,3l-2,8h-7l-8,3h-1l-8,15l1,7l-1,9l-6,7v5l-6,7l-1,5h-9l-7,-6l-9,-7v-6l1,-3v-2h-1l1,-1l1,-1v-3l1,-1h-1l1,-1v-4h-1v-1l-1,-1h-1v1l-1,-1v-2h-3l-1,-2h-1v-1h-1l-1,-1v-2h-2l-1,-2v-1h1v-2h-2v-2l-1,-1v-1h-1h1v-1h-2v-2h-3v1l-1,-1v-1h-1v-1h-1v-4l-1,-1l-1,-1v-3l1,-1l-1,-1v-3l1,-1l1,-1l1,-1v-1l1,-2v-3l1,-2v-1h-2v-1h-1v-1h1v-2l1,-1l1,-1v-4h1v-2h-1v-3h1v-4h-1v-1h-1v-1h-1v-24l-1,-2v-13ZM383,745l6,-3l1,7l-4,8l-6,1ZM359,750l-2,4l-9,-4l-2,-8h-3v-7h5l7,8l7,-1ZM355,722l3,7l-10,1l-11,7l5,-9l10,-6ZM225,776l-3,2l-1,10l-3,4l-3,-10l4,-2l8,-17ZM159,813l-3,8l-3,-2l2,-5Z"/><path data-race-id="ME02" d="M19,478l1,-1l2,1h3v-1h1l2,-1l1,-1l-1,-2v-2h1l2,1l2,1h3l1,1l2,3l2,1v2l1,1v2l-1,1v2l1,1v1l1,1l1,1v2l1,2h1v1h1l2,1h1l2,-1l1,-1l-1,-1l-1,-1v-2h1v-1l2,-2v-5h2l1,-1v-2l1,-2v-1l-1,-1l-1,-2v-1l1,-1v-1l1,-2l1,-1v-1l-1,-1l-1,-1l-1,-2v-2l2,-3v-1l1,-1l1,-1l2,-1h1l1,1h3v1l1,1l1,3h1v2l2,1h5l3,1v1l1,1h2v-3h1l1,-1v-2l-1,-2v-3l-1,-1l-1,-1v-1h-2l-2,-1l-1,-1l-1,-2v-1l-1,-2h-1v-1h-1l-1,-1v-1l1,-2l-1,-1v-3l2,-2l1,-1v-1l2,-2v-4l2,-2l1,-1l2,-2l1,-2v-1l2,-1l2,-1l1,-1l1,-2h1l3,-2l1,-2l2,-3l1,-1h3l3,-1l1,-1v-1l3,-2l1,-1l2,-2h1v-1l1,1l4,-1l2,-1v-1h2l1,-1l2,-1v-1h-2v-4l-1,-1v-3l-1,-2l-1,-1v-2l2,-1h1v-2l2,-1v-1l1,-1l1,-1v-1h1l2,-2v-1h1v-1h1l4,-1l1,-1l3,-2v-1l2,-2l1,-1v-1l1,-3l-1,-2v-1h1l1,-2l1,-2v-1l-1,-1h-1v-2h-2l-1,-1h-5v-2l1,-1v-1h1l1,-1l1,-1h-2v-1l-1,-1l-1,-2v-2l2,-1v-3l2,-1v-1h1v-2h-3l-1,-1v-1l1,-1v-3l2,-1l1,-1h-1h2v-1l2,1h1v-3l1,-1v-2l1,-3l1,-1l-2,-2l-1,-2l-1,-1l-2,-2h-1l-1,-1v-2l2,-2v-1l1,-2v-1l1,-1v-1h1v-3l1,-3v-2h1l1,-2l1,-2l1,-1h1l1,-1l1,-3v-5l2,-2v-2l3,-1v-1h4l1,-1h1v-2l1,-1l1,-1h2v-1l1,-2v-2h4l1,-1h1l2,-12l1,-7l3,-15v-6l1,-3v-1l1,-2v-3l1,-6v-3l1,-2l1,-1l2,-3l1,-2l2,-2l1,-3l2,-3l5,-7l1,-1l1,-2l2,-2l3,-4l1,-2l5,-7l1,-2l1,-1l3,-4l2,-3l2,-3l2,-2l1,-3l4,-5l2,-3l9,-12l1,-1v-2l6,-7l1,-1l2,-4l8,-11l2,-3l1,-1l3,-5l1,-1l2,-3l11,-16h1l2,-3l1,-3l1,-1l3,-3l6,-9l2,-4l4,-6h8l1,1h2l1,1h2l1,1h1l1,1v1l1,1h1l1,1h2l2,-1v-1h1v1l1,1h-1l1,1l1,-1h-1v-1h1v3h1l1,2v1l-2,-1v1h1h-1v4h-1v1h-1v13l1,3h-1v1h1h-1v2h1v2h-1h1v4l1,2v1l1,1h1l2,2l5,3h1v1h1v1h1v1h1v1l1,-1h1v1h2v1h1v2h2v1h1v-1h5v-1l2,-1l1,-1h1v-1h1l2,-1v-1h2l1,-1l2,-1h3l1,-1h1l1,-1v-1h2l1,-1h1v1h1l1,-1l1,-1l1,1h1l1,1h2v-1h4l1,-1h2v-1l2,-2v-1l-1,-1v-1l1,-1h1l1,-1v-1l2,1h1l1,1l1,-1l1,-1l1,-1h1l1,-1h2l1,1h2l1,-1l2,1v2h1l1,1l1,-1v1h1l2,-1l1,-1h3v1h1v-1l1,-1l-1,-1v-2l2,-10l1,-1h1l1,-1h3l2,1h2l2,-1l2,1l1,1h3v-1h2l1,1v1l1,1l1,1v-1l5,2v1h2l1,1v3l1,1l1,1l1,1h1l1,1v1l2,1l1,1h1l2,1l1,1v1l2,1l1,1l2,1l1,1l2,1l2,2l1,2l1,2h1l2,1l2,1l1,1v3h1v1l1,1v1l1,1v1l1,1l1,1h1l1,1v1l1,1v1h1v4l1,1v1h2l3,2h1l2,1h1l1,1v1h1l2,1v6l1,3v33l1,2v60l1,3v41l1,2v19l1,5v66l1,1v1h1v1h1v1h1l1,1v2h-1l-1,1l-1,1l-1,1l-2,1l-1,1l-1,1v2l1,1v2h1l1,1v1l1,1l1,1h1v2l2,2h-2v1h-2l-3,7l-1,3l4,8l-4,1l1,6l-2,1l2,3v1l5,-1l2,3l2,-1v-1l1,2h1v1h1v-1v1h1v-1l-1,-1v-1h-1v-3h1v2l2,-1v1l1,1v1l5,9h1l2,3l2,-1l-1,-2h1l4,4h3l3,2h5l3,2h3v-1h1v-1l-1,-1h2l1,-1l1,1l1,-1h1l1,2h1l1,2h1v2l1,1l-1,1v1l1,1v3l-1,1l-1,1l1,2v1l2,2v2l-1,-1l-1,1l-1,-1h-2v1l-2,-1h-1l1,2l-3,1l-1,1h-1v2l2,2v3l1,2h1l-1,1l1,1v2l1,1h1l1,2v1l2,1l2,3l1,2v2h-2v1l1,2v2l-1,1v1l-1,1l-1,1l-1,2v3l-1,1l-1,1v1h-1l-1,1l-1,2h1l1,1v1l1,1v2h1v1l1,1l2,1v1l1,1v3l2,1v4l2,1v1l1,1h1l-1,2l1,1v1l3,1l1,1l1,1l1,2l2,1l1,1l1,-1l1,-1l1,-2h2v-1h2v-2l-1,-1v-2h1v-3h1v-1h2l2,1l1,1l2,1v1h2v1l4,-1l6,1l3,4l2,3l1,1l5,11l-2,5v1l3,2l4,13v1l1,1h1l1,1h-2l-1,-1l2,4l-5,7l-8,-9h-1l1,1v1l1,14l-7,-7h-5v1l-1,1l8,5l4,16v-15l5,8h1l-2,-6h4l-2,-6l7,7v8l3,-6l-3,-11l5,4v8l4,-1l2,10l-7,8h-6l-1,6l-6,7l-6,9l-13,6v-6h-4l2,9l-5,1l-3,-9l2,-9h-5l-9,4l1,-6l-1,-1l-4,1v1l2,7l4,3l2,7l-8,6l-2,-13h-1l-1,3v10l-8,-1v-5l-6,-1l-1,-1v4h-7l4,2l-2,12l2,5l-11,1l-1,-8l-8,12l-7,4l1,-23l-4,4v6l-4,2v-12l-2,8l-3,-5l-4,3l1,7l-3,5l2,7l-3,5l-3,-4l-1,18l-3,-4v-16l-1,5l-1,12l-4,-3l-3,-9l1,-7h-3l-1,9l-4,-4l1,6l5,2l3,9l-8,2l-3,6l-5,6l-1,-10l-4,1l-1,-8v-1l-2,-10l-2,-4h-1l-4,-4h-1l1,7h-4l1,-9l-1,-1l-9,-4v-2l-1,-4l8,-1l-8,-2l-5,4l3,5l8,4l-2,12l-7,-11l-5,-3l6,7l-3,5l1,4l-6,-2l-5,1v-8v11l-12,10l2,-16l-1,-6h-1v4l-7,-2l4,8l-1,16h-2v-15h-2v1l-6,10l-9,-3l4,7l-4,6l1,2l-1,2l1,-1l1,-2l2,2l-1,1v5l5,6l2,11l-9,-8l-7,-2l3,-6l-2,1l-1,3l-10,-4v-1l-9,-9l-3,6l-8,3v-9l5,-4l6,-12l11,10v5l1,-6l-4,-3l-6,-8l-4,2l-2,5l-7,5l1,-10l5,-5l2,-10v-1l2,-8l-2,-6l-6,-1l-5,-12l4,-12l-6,14l-1,9h1l3,-5l5,8l-1,3v1l1,8l-4,3l1,6l-6,3l1,-6h-1l-6,5h-4l-4,5l-6,1l1,7v1l6,7l-1,7l-6,6l-5,10l-14,-2l-8,-7l-2,-3l-12,-12l-12,11l-8,-7l-2,3l-4,-1l-11,-3l10,-25l-11,-6l3,-14l-16,-4l-10,-2v6l-9,10l7,2l-3,14l-5,12l-13,-3h-2l-7,-2l-1,-1l-20,-5l-2,8l2,7l-4,15v1l7,3h12l6,2l4,4l7,1h5v-2l7,2l-6,3l1,10l-1,5l-14,-4l-4,3l-3,11l-16,-4l-4,15l-1,5v2h-1l1,3l-3,2l3,4l-8,11l-5,4l-13,-9l-4,-6l-13,-14l-7,10l-5,-2l-1,2h-1l-6,-4l-5,-5l-5,-2l-5,8l-7,-6h-1l-1,-2v-15l3,-2l-3,-8l-3,-3l-11,8l-5,2l-13,10l-7,-4v5l2,4l8,2v3l2,-1l9,15l-4,3l2,5l-4,4l1,4h1l-8,5l1,11l-10,2l-5,-2l-11,5l-5,-2v-79l-1,-13v-45l-1,-2v-66l-1,-3v-12l-1,-10v-29l-1,-2v-37l-1,-7v-6l-1,-8ZM543,650l3,12h-4l-2,-11ZM450,693v1l-4,5l-12,-1l-1,-14l-1,11l4,13l-4,4l-4,-5h-9l-4,-13l3,-3v-1l3,-8l-1,-1l7,-7l-2,-3v-1h1l6,-4l9,1l2,6l7,4l4,12ZM411,726l-4,4l-3,-4l9,-4ZM411,726l6,-5l4,9l-6,3ZM416,685l-1,6l-4,-4l3,-5ZM408,691l-8,1l1,-12l2,-1ZM380,721l6,-1l-3,7l-6,2l-4,-6l-1,-7l7,-14l9,7l-7,8ZM360,640l5,8l-3,6l-4,-11ZM348,681l-3,7v8l-4,10l-2,-10l4,-16Z"/>  <path class="mesh" d="M23,801l5,2l11,-5l5,2l10,-2l-1,-11l8,-5h-1l-1,-4l4,-4l-2,-5l4,-3l-9,-15l-2,1v-3l-8,-2l-2,-4v-5l7,4l13,-10l5,-2l11,-8l3,3l3,8l-3,2v15l1,2h1l7,6l5,-8l5,2l5,5l6,4h1l1,-2l5,2l7,-10l13,14l4,6l13,9l5,-4l8,-11l-3,-4l3,-2l-1,-3h1v-2l1,-5l4,-15l16,4l3,-11l4,-3l14,4l1,-5l-1,-10l6,-3l-7,-2v2h-5l-7,-1l-4,-4l-6,-2h-12l-7,-3v-1l4,-15l-2,-7l2,-8l20,5l1,1l7,2h2l13,3l5,-12l3,-14l-7,-2l9,-10v-6l10,2l16,4l-3,14l11,6l-10,25l11,3l4,1l2,-3l8,7l12,-11l12,12l2,3l8,7l14,2"/><g class="cities"><circle r="7" cx="135" cy="832"/><text x="135" y="832">Portland</text><circle r="7" cx="143" cy="739"/><text x="143" y="739">Lewiston</text><circle r="7" cx="362" cy="591"/><text x="362" y="591">Bangor</text></g></svg>