<svg version="1.1" xmlns="http://www.w3.org/2000/svg" width="885" height="1000" viewBox="0 0 885 1000">
  <path d="M730 966
h -7
l -23 2
l -8 1
h -10
l -8 1
l -16 1
h -6
l -14 1
h -2
l -4 1
h -14
l -2 1
h -16
l -5 1
h -7
v -10
h -4
l -1 1
h -62
l -7 1
h -142
l -41 -1
l 14 -72
l 7 -33
l -5 -46
l -8 -82
v -18
l 3 -29
l 9 -41
l 1 -7
l 4 -12
l 6 -26
l 16 -54
l 11 -28
l 7 -12
l 11 -14
l 3 -4
l 23 -20
l -51 -30
h -34
l -8 14
l -14 14
l -10 5
l -3 19
l -8 -1
l -5 -2
h -2
l -4 -1
l -2 -1
h -2
v -1
h -1
v -4
h -1
v -1
h -2
v -1
l -2 -1
v -1
l -1 -1
v -4
l 1 -1
v -2
l 1 -2
h 1
l -1 -1
h 1
v -3
h 1
v -2
l 1 -1
l 1 -2
v -1
l 2 -2
v -1
l 1 -1
v -2
l -1 -1
v -2
l -2 -1
v -1
h -3
v 1
l -2 2
v 1
l -1 1
h -1
v 1
h -1
l -2 -1
h -5
l -1 1
h -1
l -1 -1
h -1
v -2
h -1
l 1 1
h -2
v -1
h 1
l 1 -1
l -1 -1
l 1 -1
h 1
v -1
h 1
h -1
v -1
l 1 -1
v -2
h -1
v -3
h 1
v -1
h 1
v -1
l 1 -1
l 2 -1
l 1 -1
v -1
h 1
v -4
h -1
l -1 -6
l -1 -1
h -1
v -2
h 1
v 1
h 3
l 1 -3
l 1 -1
v -2
l -2 -1
v -1
l -1 -2
v -1
h -1
l -1 -1
v -1
h 1
v -1
h 2
v -1
h 1
l 1 -1
l -1 -1
v -1
h -1
v -2
l -1 -1
h -2
v -1
h -1
l -1 -1
v -1
l -1 -1
v -1
h -1
l -2 -1
h -1
v -1
v 1
h -1
l -1 -1
v 1
l -1 -1
h -1
v 1
h -1
v -1
v 1
h -1
v -1
l -1 -1
l -2 -1
l 1 -1
l -1 -1
v -1
h -3
l -1 1
h -2
v 1
h -2
v -1
h -2
l -1 -1
h -1
v -2
l -1 -1
h -1
v -2
h 1
v -1
l 1 -1
l 1 -1
v -1
h 1
l 1 -1
v -1
h 1
l 1 -1
l -1 -1
h -3
v -4
h 1
v -1
h -1
v -1
h -2
v -1
h -2
v -1
h -1
l -1 -1
v 1
v -1
l -1 -1
h -1
l -1 -1
l -1 1
h -2
l -2 -1
v -1
h -1
l -1 1
h -4
v -1
h -2
v 1
v -1
l -2 -2
v -1
h -1
l -1 -1
h -1
l -1 -1
v 2
h -4
v -1
h -1
v -1
h -1
v -1
h -2
v -1
v 1
h -1
v 1
h -1
v -1
l -1 -1
v -1
h -1
l -1 -1
v 1
v -1
h -2
l 1 1
h -4
v 1
h -2
l -1 -1
v 1
h -1
v 2
h -6
l 1 -1
l -1 -1
v -1
h -2
l -1 -1
v 1
l -1 -1
v 1
l -1 -1
v -1
h -4
v 1
v -1
h -1
h 1
l -1 1
l -1 -2
h -2
v 1
h -2
l -1 -1
h -1
v -1
h -1
v -1
l -1 -1
l -4 -2
l -1 -1
l -1 -1
h -1
l -1 -1
h -1
v -1
h -1
l -1 -1
l -1 -1
h -1
l -2 -1
v -1
h -1
l -3 -2
h -1
l -1 -1
h -2
v -1
h -3
v -1
h -3
v -1
h -3
v -1
h -3
v -1
h -2
l -4 -1
v -1
h -1
l -2 -1
h -3
l -1 -1
l -2 -1
h -3
v -1
h -2
l -1 -1
h -2
v -1
h -3
l -1 -1
h -1
l -1 -1
h -3
l -1 -1
h -1
l -1 -1
h -3
l -3 -1
l -1 -1
h -5
v -1
h -2
l -1 -1
h -1
l -2 -1
l -9 -3
h -2
l -1 -1
h -2
v -1
h -3
l -3 -1
l -1 -1
h -2
l -2 -1
l -3 -1
l -1 -1
h -2
l -2 -1
h -1
l -1 -1
v -1
l 1 -1
v -1
h -1
v -1
h -1
v -2
h -1
v -1
l -1 -1
h 1
h -1
v -2
h -1
v -5
v 1
l -1 -2
v -1
h -1
v -2
l -1 -1
l -1 -1
v -2
h -1
v -1
h -4
v 1
v -1
h -1
v -3
v 1
h -4
l -1 -1
h 1
v -1
l 1 -1
h -1
v -1
h -1
v -1
h -2
v 1
l -1 1
v -1
h -1
l -1 1
h -2
v -1
l -1 -1
v -1
h -1
v -2
l 3 -6
l 42 -86
l 6 -10
l 42 -86
l 7 -15
l 14 6
l 6 -4
l 58 -33
l 31 -7
l 338 204
l 10 37
l 16 19
l 5 5
l 9 1
l 2 -5
l 3 -2
h 2
l 2 -1
h 3
l 2 1
l 4 1
h 2
l 7 -8
l 1 2
h 3
l 2 -1
l 1 2
v 1
l 1 2
l -3 13
l 1 6
l 2 5
l 2 2
l -1 7
l 2 2
l -1 2
l 2 5
l 8 9
l 6 13
l 5 -1
l 7 -9
l 7 2
l 10 -3
l 9 2
l 14 16
l -16 25
l 111 65
l 40 191
l 13 58
l -26 85
l -1 2
v 1
l 1 3
l -2 2
l -2 2
v 2
l -1 6
v 7
l -1 1
v 4
l 1 2
l 1 3
l -2 5
v 2
l -3 15
v 1
l -3 3
l -2 2
v 1
l -3 3
l -2 -1
h -2
l -2 1
l -1 1
v 2
l -1 1
l -15 22
l -24 9
l -2 1
l -3 8
l -2 3
l 1 16
l -1 7
l -1 5
l 5 13
l -21 22
l -11 10
h -4
l -1 1
h -2
Z"/>
<g class="districts">
<path data-race-id="MI01" d="M56 199
l 31 -64
l 6 -11
l 22 -46
l 7 -15
l 14 6
l 64 -37
l 31 -7
l 36 22
l 302 182
l 10 37
l 16 19
l 5 5
l 9 1
l 2 -5
l 3 -2
h 2
l 2 -1
h 3
l 2 1
l 4 1
h 2
l 7 -8
l 1 2
h 3
l 2 -1
l 1 2
v 1
l 1 2
l -3 13
l 1 6
l 2 5
l 2 2
l -1 7
l 2 2
l -1 2
l 2 5
l 8 9
l 6 13
l 5 -1
l 7 -9
l 7 2
l 10 -3
l 9 2
l 14 16
l -16 25
l -3 7
h 15
l 75 45
l 10 4
l 14 10
l 4 18
l 9 44
l 5 22
l 7 33
l -30 1
l -23 2
h -16
l -27 2
h -48
l -15 1
l -11 1
h -27
l -11 1
h -50
l -8 1
h -90
l -1 18
l 1 33
h -23
v 24
h -41
l -3 -1
l -1 1
l -4 -11
l 10 -9
l 3 -6
l -24 -1
h -37
l 14 -46
v -3
l 12 -36
l 5 -16
l 18 -26
l 3 -4
l 23 -20
l -22 -13
l -3 -3
l -26 -14
l -11 -1
h -24
l -2 5
l -4 9
l -15 16
l -10 4
l -4 19
l -7 -1
l -5 -2
h -2
l -4 -1
l -2 -1
h -2
v -1
h -1
v -4
h -1
v -1
h -2
v -1
l -2 -1
v -1
l -1 -1
v -4
l 1 -1
v -2
l 1 -2
h 1
l -1 -1
h 1
v -3
h 1
v -2
l 1 -1
l 1 -2
v -1
l 2 -2
v -1
l 1 -1
v -2
l -1 -1
v -2
l -2 -1
v -1
h -3
v 1
l -2 2
v 1
l -1 1
h -1
v 1
h -1
l -2 -1
h -5
l -1 1
h -1
l -1 -1
h -1
v -2
h -1
l 1 1
h -2
v -1
h 1
l 1 -1
l -1 -1
l 1 -1
h 1
v -1
h 1
h -1
v -1
l 1 -1
v -2
h -1
v -3
h 1
v -1
h 1
v -1
l 1 -1
l 2 -1
l 1 -1
v -1
h 1
v -4
h -1
l -1 -6
l -1 -1
h -1
v -2
h 1
v 1
h 3
l 1 -3
l 1 -1
v -2
l -2 -1
v -1
l -1 -2
v -1
h -1
l -1 -1
v -1
h 1
v -1
h 2
v -1
h 1
l 1 -1
l -1 -1
v -1
h -1
v -2
l -1 -1
h -2
v -1
h -1
l -1 -1
v -1
l -1 -1
v -1
h -1
l -2 -1
h -1
v -1
v 1
h -1
l -1 -1
v 1
l -1 -1
h -1
v 1
h -1
v -1
v 1
h -1
v -1
l -1 -1
l -2 -1
l 1 -1
l -1 -1
v -1
h -3
l -1 1
h -2
v 1
h -2
v -1
h -2
l -1 -1
h -1
v -2
l -1 -1
h -1
v -2
h 1
v -1
l 1 -1
l 1 -1
v -1
h 1
l 1 -1
v -1
h 1
l 1 -1
l -1 -1
h -3
v -4
h 1
v -1
h -1
v -1
h -2
v -1
h -2
v -1
h -1
l -1 -1
v 1
v -1
l -1 -1
h -1
l -1 -1
l -1 1
h -2
l -2 -1
v -1
h -1
l -1 1
h -4
v -1
h -2
v 1
v -1
l -2 -2
v -1
h -1
l -1 -1
h -1
l -1 -1
v 2
h -4
v -1
h -1
v -1
h -1
v -1
h -2
v -1
v 1
h -1
v 1
h -1
v -1
l -1 -1
v -1
h -1
l -1 -1
v 1
v -1
h -2
l 1 1
h -4
v 1
h -2
l -1 -1
v 1
h -1
v 2
h -6
l 1 -1
l -1 -1
v -1
h -2
l -1 -1
v 1
l -1 -1
v 1
l -1 -1
v -1
h -4
v 1
v -1
h -1
h 1
l -1 1
l -1 -2
h -2
v 1
h -2
l -1 -1
h -1
v -1
h -1
v -1
l -1 -1
l -4 -2
l -1 -1
l -1 -1
h -1
l -1 -1
h -1
v -1
h -1
l -1 -1
l -1 -1
h -1
l -2 -1
v -1
h -1
l -3 -2
h -1
l -1 -1
h -2
v -1
h -3
v -1
h -3
v -1
h -3
v -1
h -3
v -1
h -2
l -4 -1
v -1
h -1
l -2 -1
h -3
l -1 -1
l -2 -1
h -3
v -1
h -2
l -1 -1
h -2
v -1
h -3
l -1 -1
h -1
l -1 -1
h -3
l -1 -1
h -1
l -1 -1
h -3
l -3 -1
l -1 -1
h -5
v -1
h -2
l -1 -1
h -1
l -2 -1
l -9 -3
h -2
l -1 -1
h -2
v -1
h -3
l -3 -1
l -1 -1
h -2
l -2 -1
l -3 -1
l -1 -1
h -2
l -2 -1
h -1
l -1 -1
v -1
l 1 -1
v -1
h -1
v -1
h -1
v -2
h -1
v -1
l -1 -1
h 1
h -1
v -2
h -1
v -5
v 1
l -1 -2
v -1
h -1
v -2
l -1 -1
l -1 -1
v -2
h -1
v -1
h -4
v 1
v -1
h -1
v -3
v 1
h -4
l -1 -1
h 1
v -1
l 1 -1
h -1
v -1
h -1
v -1
h -2
v 1
l -1 1
v -1
h -1
l -1 1
h -2
v -1
l -1 -1
v -1
h -1
v -2
l 14 -28
Z"/>
<path data-race-id="MI02" d="M341 721
l 1 -29
l 4 -21
l 10 -1
l 26 1
h 33
l -2 -15
l -3 -10
l 1 -1
l 3 1
h 41
v -24
h 49
v 25
l 1 24
v 75
h -24
v 14
l 1 24
h 13
l -1 5
l -5 -1
l -4 5
l 8 4
v 3
l 8 5
l 6 -8
v 12
l -13 1
l -11 -1
v 13
h -36
l 6 1
v 4
h -6
l -2 -5
h -97
l -5 -51
l -3 -36
Z"/>
<path data-race-id="MI03" d="M481 760
v -14
h 51
v 13
l 5 2
l -2 3
h 5
v -5
h 4
v 12
h 33
l 4 -1
l 1 17
v 33
h -24
v 51
h 36
l 1 -1
l 3 50
h -13
l -9 1
h -41
v -33
l -1 -16
h -26
v -45
l -1 -6
l -24 1
v -13
l 11 1
l 13 -1
v -12
l -6 8
l -8 -5
v -3
l -8 -4
l 4 -5
l 5 1
l 1 -5
h -13
Z"/>
<path data-race-id="MI04" d="M478 571
h 90
l 8 -1
h 50
l 11 -1
h 27
l 11 -1
l 1 17
v 28
l 1 6
h -29
v 48
l 1 1
v 35
l 1 1
h 12
v 6
h 14
l -2 7
h -8
l -3 5
l 2 7
l 6 1
l -8 4
v 8
l 24 -1
v -13
h 13
l 1 25
h -17
l -8 2
v 11
l 1 8
v 26
l 2 17
l -26 1
l -21 1
l -25 1
h -25
v -33
l -1 -17
l -4 1
h -33
v -12
h -4
v 5
h -5
l 2 -3
l -5 -2
v -13
h -27
v -75
l -1 -24
v -25
h -26
l -1 -33
Z"/>
<path data-race-id="MI05" d="M648 667
v -48
h 29
l -1 -6
v -28
l -1 -17
l 15 -1
h 48
l 27 -2
h 16
l 23 -2
l 30 -1
l 11 50
l -86 2
l -11 1
l -33 33
l -19 16
v 1
l 2 32
v 6
h 13
v 25
l 7 12
h 6
l 1 10
v 2
l 2 48
l -5 2
l -19 1
v 13
l -24 1
l -2 -17
v -26
l -1 -8
v -11
l 8 -2
h 17
l -1 -25
h -13
v 13
l -24 1
v -8
l 8 -4
l -6 -1
l -2 -7
l 3 -5
h 8
l 2 -7
h -14
v -6
h -12
l -1 -1
v -35
Z"/>
<path data-race-id="MI06" d="M344 898
l 6 -26
l 4 1
h 53
l 24 -1
l 3 -10
l 2 -23
l 2 -7
l -1 -10
h 8
l 2 5
h 6
v -4
l -6 -1
h 36
l 24 -1
l 1 6
v 45
h 26
l 1 16
v 33
l 1 3
v 42
h -15
l -7 1
h -142
l -10 -1
h -31
l 8 -45
Z"/>
<path data-race-id="MI07" d="M535 921
h 41
l 9 -1
h 13
l -3 -50
l -1 1
h -36
v -51
h 49
v 32
l 1 18
h 25
v -1
h 25
v -1
h 27
v -1
l 22 -1
l 12 -1
l 1 13
l -31 1
l -2 8
v 1
l 3 4
h 5
l 1 9
l 5 2
l 21 -1
v 14
l 26 -3
l 12 9
h 4
l 5 10
l -21 23
l -11 10
h -4
l -1 1
h -9
l -23 2
l -8 1
h -10
l -8 1
l -16 1
h -6
l -14 1
h -2
l -4 1
h -14
l -2 1
h -16
l -5 1
h -7
v -10
h -4
l -1 1
h -47
v -42
Z"/>
<path data-race-id="MI08" d="M607 820
l 25 -1
l 21 -1
l 26 -1
l 24 -1
v -13
l 19 -1
l 5 -2
h 15
l 22 -1
l 3 38
h -8
l -5 -3
l -1 -10
l -49 4
l 3 38
l -22 1
v 1
h -27
v 1
h -25
v 1
h -25
l -1 -18
Z"/>
<path data-race-id="MI09" d="M744 839
l 6 -1
l -2 3
l 3 9
l 8 -1
h 9
l -1 -9
l 12 -1
l 1 -4
h 11
l 1 12
l -2 5
l 2 8
l -23 1
l -7 1
l -4 -4
l -2 -6
l -13 2
v -16
Z"/>
<path data-race-id="MI10" d="M696 664
l 19 -16
l 33 -33
l 11 -1
l 86 -2
l 3 19
l 10 42
l 4 18
l -9 33
h -1
l -9 31
l -7 23
l -1 2
v 1
l 1 3
l -2 2
l -2 2
v 2
l -1 6
v 7
l -1 1
v 4
l 1 2
l 1 3
l -2 5
v 2
l -3 15
v 1
l -3 3
l -2 2
v 1
l -3 3
l -2 -1
h -2
l -2 1
l -1 1
v 2
l -1 1
l -5 7
v -24
l 1 -6
l -10 9
l 5 4
l -1 5
l -9 3
l -1 -12
h -11
l -1 4
l -12 1
v -3
l -3 -38
l -22 1
h -15
l -2 -48
v -2
l -1 -10
h -6
l -7 -12
v -25
h -13
v -6
h 4
l 8 -9
h 1
h -1
h 1
h -1
h 1
v -1
l 1 -2
l 1 -1
l 3 -2
v -1
h 1
h -1
v 1
l 1 -1
l -1 1
l 5 -3
l -25 -14
Z"/>
<path data-race-id="MI11" d="M704 828
l 49 -4
l 1 10
l 5 3
h 8
v 3
l 1 9
h -9
l -8 1
l -3 -9
l 2 -3
v -9
l -7 -1
l -2 9
l -10 9
l 1 18
l 5 -1
h 7
l 1 13
l -13 1
l 1 12
l -12 1
l -1 -12
l -1 -13
l -12 1
Z"/>
<path data-race-id="MI12" d="M720 878
l 1 12
l 12 -1
l 1 12
l 13 -1
l -1 -12
l 2 -9
h 6
l 3 -3
h 6
l 1 6
l -5 1
l 1 5
l 5 4
v 4
l 1 12
l -1 7
l -1 5
v 2
h -4
l -12 -9
l -26 3
v -14
l -21 1
l -5 -2
l -1 -9
h -5
l -3 -4
v -1
l 2 -8
Z"/>
<path data-race-id="MI13" d="M744 863
l 12 -1
l 1 8
l 12 -4
l 13 4
l -7 4
l -2 4
h -6
l 1 7
l -1 4
l -2 3
l -5 -4
l -1 -5
l 5 -1
l -1 -6
h -6
l -3 3
h -6
l -2 9
l 1 12
l -13 1
l -1 -12
l -1 -12
l 13 -1
Z"/>
<path data-race-id="MI14" d="M741 837
l 2 -9
l 7 1
v 9
l -6 1
l -1 -1
v 16
l 13 -2
l 2 6
l 4 4
l 7 -1
l 23 -1
l 12 -1
l -8 12
l -24 9
l -2 1
l -2 4
l -1 -7
h 6
l 2 -4
l 7 -4
l -13 -4
l -12 4
l -1 -8
l -12 1
h -7
l -5 1
l -1 -18
Z"/>
<path data-race-id="MIZZ" d="M792 847
l 9 -3
l 1 -5
l -5 -4
l 10 -9
l -1 6
v 24
l -2 3
l -12 1
l -2 -8
Z
M696 665
l 25 14
l -5 3
l 1 -1
l -1 1
v -1
h 1
h -1
v 1
l -3 2
l -1 1
l -1 2
v 1
h -1
h 1
h -1
h 1
h -1
l -8 9
h -4
Z
M348 822
h 89
l 1 10
l -2 7
l -2 23
l -3 10
l -24 1
h -53
l -4 -1
l 2 -11
Z
M351 645
l 1 -7
l 4 -12
l 2 -7
h 37
l 24 1
l -3 6
l -10 9
l 4 11
l 3 10
l 2 15
h -33
l -26 -1
l -10 1
Z"/>
</g>
  <path class="districts-mesh" d="M834 562
l -30 1
l -23 2
h -16
l -27 2
h -48
l -15 1
l 1 17
v 28
l 1 6
h -29
v 48
l 1 1
v 35
l 1 1
h 12
v 6
h 14
l -2 7
h -8
l -3 5
l 2 7
l 6 1
l -8 4
v 8
l 24 -1
v -13
h 13
l 1 25
h -17
l -8 2
v 11
l 1 8
v 26
l 2 17
l -26 1
l -21 1
l -25 1
h -25
M845 612
l -86 2
l -11 1
l -33 33
l -19 16
v 1
l 2 32
v 6
h 13
v 25
l 7 12
h 6
l 1 10
v 2
l 2 48
l -5 2
l -19 1
v 13
l -24 1
M535 921
l 1 3
v 42
M607 820
v 32
l 1 18
h 25
v -1
h 25
v -1
h 27
v -1
l 22 -1
l 12 -1
l 1 13
l -31 1
l -2 8
v 1
l 3 4
h 5
l 1 9
l 5 2
l 21 -1
v 14
l 26 -3
l 12 9
h 4
M727 800
h 15
l 22 -1
l 3 38
h -8
l -5 -3
l -1 -10
l -49 4
l 3 38
M744 839
l 6 -1
l -2 3
l 3 9
l 8 -1
h 9
l -1 -9
l 12 -1
l 1 -4
h 11
l 1 12
l -2 5
l 2 8
l -23 1
l -7 1
l -4 -4
l -2 -6
l -13 2
v -16
l 1 1
M806 856
v -24
l 1 -6
l -10 9
l 5 4
l -1 5
l -9 3
M767 840
v -3
M478 622
h -23
v 24
h -41
l -3 -1
l -1 1
l -4 -11
l 10 -9
l 3 -6
l -24 -1
h -37
M346 671
l 10 -1
l 26 1
h 33
l -2 -15
l -3 -10
M675 568
l -11 1
h -27
l -11 1
h -50
l -8 1
h -90
l -1 18
l 1 33
h 26
v 25
l 1 24
v 75
h -24
v 14
l 1 24
h 13
l -1 5
l -5 -1
l -4 5
l 8 4
v 3
l 8 5
l 6 -8
v 12
l -13 1
l -11 -1
v 13
h -36
l 6 1
v 4
h -6
l -2 -5
h -97
M710 688
h 1
h -1
h 1
v -1
l 1 -2
l 1 -1
l 3 -2
v -1
h 1
h -1
v 1
l 1 -1
l -1 1
l 5 -3
l -25 -14
M750 838
v -9
l -7 -1
l -2 9
l -10 9
l 1 18
l 5 -1
h 7
l 1 13
l -13 1
l 1 12
l -12 1
l -1 -12
M505 746
h 27
v 13
l 5 2
l -2 3
h 5
v -5
h 4
v 12
h 33
l 4 -1
l 1 17
v 33
h -24
v 51
h 36
l 1 -1
l 3 50
h -13
l -9 1
h -41
v -33
l -1 -16
h -26
v -45
l -1 -6
l -24 1
M733 889
l 1 12
l 13 -1
l -1 -12
l 2 -9
h 6
l 3 -3
h 6
l 1 6
l -5 1
l 1 5
l 5 4
M744 863
l 12 -1
l 1 8
l 12 -4
l 13 4
l -7 4
l -2 4
h -6
l 1 7
M792 860
l 12 -1
M350 872
l 4 1
h 53
l 24 -1
l 3 -10
l 2 -23
l 2 -7
l -1 -10
M698 697
h 4
l 8 -9
h 1"/>
</svg>