<svg version="1.1" xmlns="http://www.w3.org/2000/svg" width="885" height="1000" viewBox="0 0 885 1000">  <path d="M730,966h-7l-23,2l-8,1h-10l-8,1l-16,1h-6l-14,1h-2l-4,1h-14l-2,1h-16l-5,1h-7v-10h-4l-1,1h-62l-7,1h-142l-41,-1l14,-72l7,-33l-5,-46l-8,-82v-18l3,-29l9,-41l1,-7l4,-12l6,-26l16,-54l11,-28l7,-12l11,-14l3,-4l23,-20l-51,-30h-34l-8,14l-14,14l-10,5l-3,19l-8,-1l-5,-2h-2l-4,-1l-2,-1h-2v-1h-1v-4h-1v-1h-2v-1l-2,-1v-1l-1,-1v-4l1,-1v-2l1,-2h1l-1,-1h1v-3h1v-2l1,-1l1,-2v-1l2,-2v-1l1,-1v-2l-1,-1v-2l-2,-1v-1h-3v1l-2,2v1l-1,1h-1v1h-1l-2,-1h-5l-1,1h-1l-1,-1h-1v-2h-1l1,1h-2v-1h1l1,-1l-1,-1l1,-1h1v-1h1h-1v-1l1,-1v-2h-1v-3h1v-1h1v-1l1,-1l2,-1l1,-1v-1h1v-4h-1l-1,-6l-1,-1h-1v-2h1v1h3l1,-3l1,-1v-2l-2,-1v-1l-1,-2v-1h-1l-1,-1v-1h1v-1h2v-1h1l1,-1l-1,-1v-1h-1v-2l-1,-1h-2v-1h-1l-1,-1v-1l-1,-1v-1h-1l-2,-1h-1v-1v1h-1l-1,-1v1l-1,-1h-1v1h-1v-1v1h-1v-1l-1,-1l-2,-1l1,-1l-1,-1v-1h-3l-1,1h-2v1h-2v-1h-2l-1,-1h-1v-2l-1,-1h-1v-2h1v-1l1,-1l1,-1v-1h1l1,-1v-1h1l1,-1l-1,-1h-3v-4h1v-1h-1v-1h-2v-1h-2v-1h-1l-1,-1v1v-1l-1,-1h-1l-1,-1l-1,1h-2l-2,-1v-1h-1l-1,1h-4v-1h-2v1v-1l-2,-2v-1h-1l-1,-1h-1l-1,-1v2h-4v-1h-1v-1h-1v-1h-2v-1v1h-1v1h-1v-1l-1,-1v-1h-1l-1,-1v1v-1h-2l1,1h-4v1h-2l-1,-1v1h-1v2h-6l1,-1l-1,-1v-1h-2l-1,-1v1l-1,-1v1l-1,-1v-1h-4v1v-1h-1h1l-1,1l-1,-2h-2v1h-2l-1,-1h-1v-1h-1v-1l-1,-1l-4,-2l-1,-1l-1,-1h-1l-1,-1h-1v-1h-1l-1,-1l-1,-1h-1l-2,-1v-1h-1l-3,-2h-1l-1,-1h-2v-1h-3v-1h-3v-1h-3v-1h-3v-1h-2l-4,-1v-1h-1l-2,-1h-3l-1,-1l-2,-1h-3v-1h-2l-1,-1h-2v-1h-3l-1,-1h-1l-1,-1h-3l-1,-1h-1l-1,-1h-3l-3,-1l-1,-1h-5v-1h-2l-1,-1h-1l-2,-1l-9,-3h-2l-1,-1h-2v-1h-3l-3,-1l-1,-1h-2l-2,-1l-3,-1l-1,-1h-2l-2,-1h-1l-1,-1v-1l1,-1v-1h-1v-1h-1v-2h-1v-1l-1,-1h1h-1v-2h-1v-5v1l-1,-2v-1h-1v-2l-1,-1l-1,-1v-2h-1v-1h-4v1v-1h-1v-3v1h-4l-1,-1h1v-1l1,-1h-1v-1h-1v-1h-2v1l-1,1v-1h-1l-1,1h-2v-1l-1,-1v-1h-1v-2l3,-6l42,-86l6,-10l42,-86l7,-15l14,6l6,-4l58,-33l31,-7l338,204l10,37l16,19l5,5l9,1l2,-5l3,-2h2l2,-1h3l2,1l4,1h2l7,-8l1,2h3l2,-1l1,2v1l1,2l-3,13l1,6l2,5l2,2l-1,7l2,2l-1,2l2,5l8,9l6,13l5,-1l7,-9l7,2l10,-3l9,2l14,16l-16,25l111,65l40,191l13,58l-26,85l-1,2v1l1,3l-2,2l-2,2v2l-1,6v7l-1,1v4l1,2l1,3l-2,5v2l-3,15v1l-3,3l-2,2v1l-3,3l-2,-1h-2l-2,1l-1,1v2l-1,1l-15,22l-24,9l-2,1l-3,8l-2,3l1,16l-1,7l-1,5l5,13l-21,22l-11,10h-4l-1,1h-2Z"/><g class="districts"><path data-race-id="MI01" d="M56,199l31,-64l6,-11l22,-46l7,-15l14,6l64,-37l31,-7l36,22l302,182l10,37l16,19l5,5l9,1l2,-5l3,-2h2l2,-1h3l2,1l4,1h2l7,-8l1,2h3l2,-1l1,2v1l1,2l-3,13l1,6l2,5l2,2l-1,7l2,2l-1,2l2,5l8,9l6,13l5,-1l7,-9l7,2l10,-3l9,2l14,16l-16,25l-3,7h15l75,45l10,4l14,10l4,18l9,44l5,22l7,33l-30,1l-23,2h-16l-27,2h-48l-15,1l-11,1h-27l-11,1h-50l-8,1h-90l-1,18l1,33h-23v24h-41l-3,-1l-1,1l-4,-11l10,-9l3,-6l-24,-1h-37l14,-46v-3l12,-36l5,-16l18,-26l3,-4l23,-20l-22,-13l-3,-3l-26,-14l-11,-1h-24l-2,5l-4,9l-15,16l-10,4l-4,19l-7,-1l-5,-2h-2l-4,-1l-2,-1h-2v-1h-1v-4h-1v-1h-2v-1l-2,-1v-1l-1,-1v-4l1,-1v-2l1,-2h1l-1,-1h1v-3h1v-2l1,-1l1,-2v-1l2,-2v-1l1,-1v-2l-1,-1v-2l-2,-1v-1h-3v1l-2,2v1l-1,1h-1v1h-1l-2,-1h-5l-1,1h-1l-1,-1h-1v-2h-1l1,1h-2v-1h1l1,-1l-1,-1l1,-1h1v-1h1h-1v-1l1,-1v-2h-1v-3h1v-1h1v-1l1,-1l2,-1l1,-1v-1h1v-4h-1l-1,-6l-1,-1h-1v-2h1v1h3l1,-3l1,-1v-2l-2,-1v-1l-1,-2v-1h-1l-1,-1v-1h1v-1h2v-1h1l1,-1l-1,-1v-1h-1v-2l-1,-1h-2v-1h-1l-1,-1v-1l-1,-1v-1h-1l-2,-1h-1v-1v1h-1l-1,-1v1l-1,-1h-1v1h-1v-1v1h-1v-1l-1,-1l-2,-1l1,-1l-1,-1v-1h-3l-1,1h-2v1h-2v-1h-2l-1,-1h-1v-2l-1,-1h-1v-2h1v-1l1,-1l1,-1v-1h1l1,-1v-1h1l1,-1l-1,-1h-3v-4h1v-1h-1v-1h-2v-1h-2v-1h-1l-1,-1v1v-1l-1,-1h-1l-1,-1l-1,1h-2l-2,-1v-1h-1l-1,1h-4v-1h-2v1v-1l-2,-2v-1h-1l-1,-1h-1l-1,-1v2h-4v-1h-1v-1h-1v-1h-2v-1v1h-1v1h-1v-1l-1,-1v-1h-1l-1,-1v1v-1h-2l1,1h-4v1h-2l-1,-1v1h-1v2h-6l1,-1l-1,-1v-1h-2l-1,-1v1l-1,-1v1l-1,-1v-1h-4v1v-1h-1h1l-1,1l-1,-2h-2v1h-2l-1,-1h-1v-1h-1v-1l-1,-1l-4,-2l-1,-1l-1,-1h-1l-1,-1h-1v-1h-1l-1,-1l-1,-1h-1l-2,-1v-1h-1l-3,-2h-1l-1,-1h-2v-1h-3v-1h-3v-1h-3v-1h-3v-1h-2l-4,-1v-1h-1l-2,-1h-3l-1,-1l-2,-1h-3v-1h-2l-1,-1h-2v-1h-3l-1,-1h-1l-1,-1h-3l-1,-1h-1l-1,-1h-3l-3,-1l-1,-1h-5v-1h-2l-1,-1h-1l-2,-1l-9,-3h-2l-1,-1h-2v-1h-3l-3,-1l-1,-1h-2l-2,-1l-3,-1l-1,-1h-2l-2,-1h-1l-1,-1v-1l1,-1v-1h-1v-1h-1v-2h-1v-1l-1,-1h1h-1v-2h-1v-5v1l-1,-2v-1h-1v-2l-1,-1l-1,-1v-2h-1v-1h-4v1v-1h-1v-3v1h-4l-1,-1h1v-1l1,-1h-1v-1h-1v-1h-2v1l-1,1v-1h-1l-1,1h-2v-1l-1,-1v-1h-1v-2l14,-28Z"/><path data-race-id="MI02" d="M341,721l1,-29l4,-21l10,-1l26,1h33l-2,-15l-3,-10l1,-1l3,1h41v-24h49v25l1,24v75h-24v14l1,24h13l-1,5l-5,-1l-4,5l8,4v3l8,5l6,-8v12l-13,1l-11,-1v13h-36l6,1v4h-6l-2,-5h-97l-5,-51l-3,-36Z"/><path data-race-id="MI03" d="M481,760v-14h51v13l5,2l-2,3h5v-5h4v12h33l4,-1l1,17v33h-24v51h36l1,-1l3,50h-13l-9,1h-41v-33l-1,-16h-26v-45l-1,-6l-24,1v-13l11,1l13,-1v-12l-6,8l-8,-5v-3l-8,-4l4,-5l5,1l1,-5h-13Z"/><path data-race-id="MI04" d="M478,571h90l8,-1h50l11,-1h27l11,-1l1,17v28l1,6h-29v48l1,1v35l1,1h12v6h14l-2,7h-8l-3,5l2,7l6,1l-8,4v8l24,-1v-13h13l1,25h-17l-8,2v11l1,8v26l2,17l-26,1l-21,1l-25,1h-25v-33l-1,-17l-4,1h-33v-12h-4v5h-5l2,-3l-5,-2v-13h-27v-75l-1,-24v-25h-26l-1,-33Z"/><path data-race-id="MI05" d="M648,667v-48h29l-1,-6v-28l-1,-17l15,-1h48l27,-2h16l23,-2l30,-1l11,50l-86,2l-11,1l-33,33l-19,16v1l2,32v6h13v25l7,12h6l1,10v2l2,48l-5,2l-19,1v13l-24,1l-2,-17v-26l-1,-8v-11l8,-2h17l-1,-25h-13v13l-24,1v-8l8,-4l-6,-1l-2,-7l3,-5h8l2,-7h-14v-6h-12l-1,-1v-35Z"/><path data-race-id="MI06" d="M344,898l6,-26l4,1h53l24,-1l3,-10l2,-23l2,-7l-1,-10h8l2,5h6v-4l-6,-1h36l24,-1l1,6v45h26l1,16v33l1,3v42h-15l-7,1h-142l-10,-1h-31l8,-45Z"/><path data-race-id="MI07" d="M535,921h41l9,-1h13l-3,-50l-1,1h-36v-51h49v32l1,18h25v-1h25v-1h27v-1l22,-1l12,-1l1,13l-31,1l-2,8v1l3,4h5l1,9l5,2l21,-1v14l26,-3l12,9h4l5,10l-21,23l-11,10h-4l-1,1h-9l-23,2l-8,1h-10l-8,1l-16,1h-6l-14,1h-2l-4,1h-14l-2,1h-16l-5,1h-7v-10h-4l-1,1h-47v-42Z"/><path data-race-id="MI08" d="M607,820l25,-1l21,-1l26,-1l24,-1v-13l19,-1l5,-2h15l22,-1l3,38h-8l-5,-3l-1,-10l-49,4l3,38l-22,1v1h-27v1h-25v1h-25l-1,-18Z"/><path data-race-id="MI09" d="M744,839l6,-1l-2,3l3,9l8,-1h9l-1,-9l12,-1l1,-4h11l1,12l-2,5l2,8l-23,1l-7,1l-4,-4l-2,-6l-13,2v-16Z"/><path data-race-id="MI10" d="M696,664l19,-16l33,-33l11,-1l86,-2l3,19l10,42l4,18l-9,33h-1l-9,31l-7,23l-1,2v1l1,3l-2,2l-2,2v2l-1,6v7l-1,1v4l1,2l1,3l-2,5v2l-3,15v1l-3,3l-2,2v1l-3,3l-2,-1h-2l-2,1l-1,1v2l-1,1l-5,7v-24l1,-6l-10,9l5,4l-1,5l-9,3l-1,-12h-11l-1,4l-12,1v-3l-3,-38l-22,1h-15l-2,-48v-2l-1,-10h-6l-7,-12v-25h-13v-6h4l8,-9h1h-1h1h-1h1v-1l1,-2l1,-1l3,-2v-1h1h-1v1l1,-1l-1,1l5,-3l-25,-14Z"/><path data-race-id="MI11" d="M704,828l49,-4l1,10l5,3h8v3l1,9h-9l-8,1l-3,-9l2,-3v-9l-7,-1l-2,9l-10,9l1,18l5,-1h7l1,13l-13,1l1,12l-12,1l-1,-12l-1,-13l-12,1Z"/><path data-race-id="MI12" d="M720,878l1,12l12,-1l1,12l13,-1l-1,-12l2,-9h6l3,-3h6l1,6l-5,1l1,5l5,4v4l1,12l-1,7l-1,5v2h-4l-12,-9l-26,3v-14l-21,1l-5,-2l-1,-9h-5l-3,-4v-1l2,-8Z"/><path data-race-id="MI13" d="M744,863l12,-1l1,8l12,-4l13,4l-7,4l-2,4h-6l1,7l-1,4l-2,3l-5,-4l-1,-5l5,-1l-1,-6h-6l-3,3h-6l-2,9l1,12l-13,1l-1,-12l-1,-12l13,-1Z"/><path data-race-id="MI14" d="M741,837l2,-9l7,1v9l-6,1l-1,-1v16l13,-2l2,6l4,4l7,-1l23,-1l12,-1l-8,12l-24,9l-2,1l-2,4l-1,-7h6l2,-4l7,-4l-13,-4l-12,4l-1,-8l-12,1h-7l-5,1l-1,-18Z"/><path data-race-id="MIZZ" d="M792,847l9,-3l1,-5l-5,-4l10,-9l-1,6v24l-2,3l-12,1l-2,-8ZM696,665l25,14l-5,3l1,-1l-1,1v-1h1h-1v1l-3,2l-1,1l-1,2v1h-1h1h-1h1h-1l-8,9h-4ZM348,822h89l1,10l-2,7l-2,23l-3,10l-24,1h-53l-4,-1l2,-11ZM351,645l1,-7l4,-12l2,-7h37l24,1l-3,6l-10,9l4,11l3,10l2,15h-33l-26,-1l-10,1Z"/></g>  <path class="districts-mesh" d="M834,562l-30,1l-23,2h-16l-27,2h-48l-15,1l1,17v28l1,6h-29v48l1,1v35l1,1h12v6h14l-2,7h-8l-3,5l2,7l6,1l-8,4v8l24,-1v-13h13l1,25h-17l-8,2v11l1,8v26l2,17l-26,1l-21,1l-25,1h-25M845,612l-86,2l-11,1l-33,33l-19,16v1l2,32v6h13v25l7,12h6l1,10v2l2,48l-5,2l-19,1v13l-24,1M535,921l1,3v42M607,820v32l1,18h25v-1h25v-1h27v-1l22,-1l12,-1l1,13l-31,1l-2,8v1l3,4h5l1,9l5,2l21,-1v14l26,-3l12,9h4M727,800h15l22,-1l3,38h-8l-5,-3l-1,-10l-49,4l3,38M744,839l6,-1l-2,3l3,9l8,-1h9l-1,-9l12,-1l1,-4h11l1,12l-2,5l2,8l-23,1l-7,1l-4,-4l-2,-6l-13,2v-16l1,1M806,856v-24l1,-6l-10,9l5,4l-1,5l-9,3M767,840v-3M478,622h-23v24h-41l-3,-1l-1,1l-4,-11l10,-9l3,-6l-24,-1h-37M346,671l10,-1l26,1h33l-2,-15l-3,-10M675,568l-11,1h-27l-11,1h-50l-8,1h-90l-1,18l1,33h26v25l1,24v75h-24v14l1,24h13l-1,5l-5,-1l-4,5l8,4v3l8,5l6,-8v12l-13,1l-11,-1v13h-36l6,1v4h-6l-2,-5h-97M710,688h1h-1h1v-1l1,-2l1,-1l3,-2v-1h1h-1v1l1,-1l-1,1l5,-3l-25,-14M750,838v-9l-7,-1l-2,9l-10,9l1,18l5,-1h7l1,13l-13,1l1,12l-12,1l-1,-12M505,746h27v13l5,2l-2,3h5v-5h4v12h33l4,-1l1,17v33h-24v51h36l1,-1l3,50h-13l-9,1h-41v-33l-1,-16h-26v-45l-1,-6l-24,1M733,889l1,12l13,-1l-1,-12l2,-9h6l3,-3h6l1,6l-5,1l1,5l5,4M744,863l12,-1l1,8l12,-4l13,4l-7,4l-2,4h-6l1,7M792,860l12,-1M350,872l4,1h53l24,-1l3,-10l2,-23l2,-7l-1,-10M698,697h4l8,-9h1"/></svg>