<svg version="1.1" xmlns="http://www.w3.org/2000/svg" width="867" height="1000" viewBox="0 0 867 1000"><path data-race-id="MI01" d="M741,562l-20,1h-22l-17,1l-8,1h-24l-18,1h-44l-5,1h-101v51h-23l1,26h-34l-8,-1l-2,-4l-1,3l-1,1v-1l-1,-1v-1h-1v-1l-1,-1l-1,-3v-3h1v-1h1v-1h1l1,-1v-1h1l1,-1l1,-1h2v-2h1v-2h1v-1l1,-1v-1h1v-2l1,-1l9,-20l6,-5l-2,-3l1,-16l1,-5l2,-6l-4,-13l2,-9l13,-3l4,-7v-18h9l5,-10l6,5l6,-1l4,-6l4,-11l4,-2l5,-14l11,-6l1,4l-8,4v6l5,8l-8,9l4,1v6l-5,9l1,16l5,1l2,-8l5,-9l-4,-3l8,-13l-1,19l-7,7l-1,8l5,2l2,-7l7,-10l5,-10l1,-18l1,-9l-2,-13l1,-9l4,-5l6,-1l2,-4l9,-5l7,1l11,-1l7,-4l-1,-5l-12,-1l-5,-6l-3,-14l4,-8l7,-3l6,-8l-4,-8l8,2h11v-5l7,-2l1,4l8,3l15,9l1,3l15,-1l13,3v2l9,9l4,10h19l10,10h10l12,9l7,-1l15,11l-2,4l2,6l2,5l5,4l1,13l5,4l-10,-3v-4l-6,2l-4,9l4,11l11,9l4,7v11l2,2l-1,10l-2,4ZM297,481l-1,-1h-3v-2h-1v-1h-1l1,-1l-1,-1v-1h-2v-1l-1,-1h-1v-1h-1v-1h-1v-3l2,-1v-4l1,-1v-4h1v-2h1v-1l1,-2l1,-1h1v-2l1,-1l1,-1v-2h-1v-3h-1v-2h-5v1l-2,2v1h-2v1h-3l-1,-1h-1v1h-4l-1,1v-1l-1,-1v-2h-1v1l-2,1l1,-1l1,-2v-1l1,-1h1v-7l1,-1l1,-1l1,-1h1l1,-1v-2l1,-1v-3l-1,-1v-6h-2v-3l1,1h3l1,-2h1v-2l-1,-1v-2h-2v-1l-1,-2v-1h-1v-3h1l1,-1h2v-2l-1,-1h-1v-1h-1v-1l-1,-1h-1l-2,-1v-1h-1v-3l-1,-1h-3l-1,-1v1v-1l-1,1v-1h-4v-1l-3,-1h1v-2l-1,-1h-4l-1,1h-1v1h-2l-1,-1h-2v-3h-2l-1,-1l-1,-1l1,-1v-1h1l1,-1h1v-1l1,-1l1,-1h1l1,-2h-2v-1h-2v-5h1l-1,-1h-2v-1h-2v-1l-1,-1h-2v-1h-1l-1,-1l-2,1h-3v-3h-1v1h-3v1h-1v-1h-2l-1,-1v1h-1v-1l-1,-1h-1l-1,-1h-1v-1h-1v1h-3v1h-1v-1l-1,-1h-2v-2h-2v1h-2v-1h-1v-3h-3v1h-3v-1v1h-1v1h-2v-2h-1v1h-1v4h-4v-1v1v-1h-1v1v-1h-1h1v-1h-1h1v-1h-1v-2h-4v1v-1h-1v-1l-1,-1h-1l-1,1h-1v-1h-1l1,1l-1,1h-1v-2l1,-1h-1l-1,1v-1h-1v2h-1v-1h-2v-1h-1v-1l-2,-1l-4,-3l-1,-1h-2v-1h-1l-1,-1h-2l-1,-1l-1,-1l-2,-1h-1v-1l-3,-2h-1l-2,-1v-1h-2l-1,-1h-2l-1,-1h-1l-2,-1h-2l-1,-1h-2l-1,-1h-1l-3,-1l-2,-1h-2l-1,-1h-2l-2,-1l-2,-1h-2l-1,-1h-2l-1,-1h-5l-1,-1h-1l-1,-1h-3v-1h-3l-1,-1l-2,-1h-3l-1,-1h-1l-1,-1h-3v-1h-3v-1h-2l-9,-3l-1,-1h-1l-1,-1h-3l-1,-1h-1l-3,-1h-1l-1,-1h-2l-2,-1l-3,-1h-2l-2,-1h-2l-1,-1v-1h1v-1l-1,-1v-4h-1v-1h-1v-2h-1v-5h-1v-1v1v-2h-1v-1h-1h1v-1h-1v-1h-1v-2l-1,-1v-1h-1v-1h-3l-1,1v-1h-1v-3v1h-4v-2h1v-1h-1v-1h-1v-2l-1,1h-1v1l-1,1v-1h-1v1h-3v-1l-1,-1v-1l-1,-1v-1l7,-4l35,-10l3,-5l10,-7l11,-8l12,-1h23l21,-10l9,-12h16l3,-4l5,-10l12,-7l11,-10l5,4l-4,5l4,6l9,2v11l7,5l-1,9l-3,7l1,13l-4,6l6,-4l21,-21l10,-5l-8,10l11,-2l6,1h15l2,3l13,4l1,6l4,-3l3,5l6,4l1,7l7,13l5,1l3,7l6,1l-1,11l9,3h9l3,-3l5,2l10,-5l4,1l3,8l6,1l1,4h7l1,-5l6,-1l3,6l5,-1v5l18,-19l5,-1l15,-9l12,-9l4,3l16,-3l9,-3l6,2h32l16,-9l8,-3l10,-2l11,1l7,-2l-6,9l-1,9l1,16l-3,1l3,7l18,2l6,3l9,-6h7l3,10h5l4,-5l4,2l1,-6l12,-4l8,10l4,11v10l4,3l-5,7v7l13,-1l1,4l7,1l-4,6l10,11l7,1l-1,6l-10,2l-9,-3h-13l-12,-1l1,7h-6l-1,-9h-6l1,6l-5,-4l-2,4l-2,-9l-10,-3l-4,3l1,9l-5,1l1,14l-3,4l-17,-15l-8,-9l-11,-3l-7,-5l-7,1l-8,-5h-20l-8,10l-5,9l-13,-2l-8,2l-6,3l1,4l-10,-6h-21l-10,7l-3,18l-7,-1l-4,6l-12,6l-1,7h-4l1,7h-5l-5,-10l10,-9l-1,-5l7,2l-2,-5l5,-7v-5l-5,-2l-7,9l-14,-3l1,8l-3,1l-4,11l-10,2l-3,5l-1,-18l-2,-6l6,-5l-1,-7l-3,3l-2,8l-6,5v11l-4,7l-7,2l-9,17l-3,8l-5,7v4l-6,8l-5,10l-15,18ZM679,353l-3,-4l5,-5l3,6l3,-7l8,-1l1,-6l-5,-3l10,-1l8,5l5,10h3l-5,11l-4,-1l-13,-1l-6,-2l-5,2ZM644,301l4,1l5,10l-5,5l-5,-8l-2,-8ZM642,271l6,1l-1,8l-4,6l8,15l-7,-2l1,-3l-6,-5l-2,-10l-4,-3ZM607,376l21,5l-3,8l-10,-1ZM511,376l6,4l-4,4ZM509,387l4,4v7l2,8l-5,6h-8l1,-16l3,-3v-7ZM466,488l-4,1l-6,-8v-7l10,2ZM455,491l-2,5l-5,1v-7ZM397,271l3,3l-4,9l-3,2l-2,-13ZM279,137h7l7,4v6l-24,1l2,7l-12,6l-10,12l-8,3v7h-5l-1,7l-6,3l-2,8l-4,6l-6,-7v-5l7,-7l2,-10l-4,12l-7,1l-4,-6h-7l-2,-3l1,-12l11,-8l8,-12l19,-8l3,-3l17,-3ZM204,39l14,-3l7,-4l-11,11l-5,1l2,5l-9,8l-7,3l-10,1l-14,9l1,5l-20,8l-6,-5l5,-12l16,-8l13,-4l1,-3l9,-2l4,-5Z"/><path data-race-id="MI02" d="M419,667v-4l-1,-1v-2l-1,-2v-1h1h-1v-5l-1,-2v-1l-1,-1h1l-1,-1v-2h-1v-2l1,-1l1,-3l2,4l8,1h34l-1,-26h50v39l1,11v51l1,25h-25v13l1,1v24h13l-1,5l-5,-1v6l9,11l10,-8v13h-25v12h-36l5,1l2,5h-7l-2,-6h-8v-25l-3,-14l-3,-11l-6,-14l7,-2l-8,-3l-1,3l-4,-10l-6,-15l-3,-10l-8,-22l1,-8l8,-10l3,-11v-1Z"/><path data-race-id="MI03" d="M486,757v-13h25l3,-1h23v14l6,1l-1,4h3v-6h5v13l8,-1h29l1,17v34h-24v51h23l15,-1v18l2,16v17h-54l-9,1v-50h-27l-1,-19v-32h-25v-12h25v-13l-10,8l-9,-11v-6l5,1l1,-5h-13v-24Z"/><path data-race-id="MI04" d="M482,567h101l5,-1h44l18,-1h24l8,-1l2,50l-8,1h-22l1,24l1,25l1,38h12v5h14l-2,7h-8l-3,10l8,3l-8,4v8h22l3,-1v-13h12l1,25l-25,1l1,12l1,39l1,13l-24,1l-1,1h-22l-11,2h-40v-34l-1,-17h-29l-8,1v-13h-5v6h-3l1,-4l-6,-1v-14h-23l-3,1l-1,-25v-51l-1,-11v-39h-27Z"/><path data-race-id="MI05" d="M656,664l-1,-25l-1,-24h22l8,-1l-2,-50l17,-1h22l20,-1l-1,25h-3l-6,8l-8,1l-4,6l-2,11v7l-3,8l-6,1l-2,10l-7,-2l-1,3l-10,-1l-6,12l-1,15l-3,6l2,8l6,7h5l15,9v5h13l1,28l6,4v4h7v12l2,50l-10,1h-15l1,14l-25,1l-1,-13l-1,-39l-1,-12l25,-1l-1,-25h-12v13l-3,1h-22v-8l8,-4l-8,-3l3,-10h8l2,-7h-14v-5h-12Z"/><path data-race-id="MI06" d="M436,871v-1h1v-3h1v-9l1,-1v-5l1,-2v-2h1v-7l-1,-1v-1h1v-1h1v-18h8l2,6h7l-2,-5l-5,-1h61v32l1,19h27v50l1,45h-15l-5,1h-145l14,-12l8,-7l14,-33l4,-4l9,-14l3,-6l7,-19Z"/><path data-race-id="MI07" d="M541,921l9,-1h54v-17l-2,-16v-18l-15,1h-23v-51h50v28l1,22l15,-1h22l12,-1h22l29,-3l13,-1v14h-13l-18,1l-2,9l2,4h7l2,11l23,-1l1,14l26,-3l11,8l-1,6l-5,3l1,5l-9,2v7l-6,3l-1,6l-6,5l-2,8h-1l-1,1h-5l-23,2h-8l-5,1h-5l-8,1l-17,1h-6l-15,1l-5,1h-17l-1,1h-14l-5,1h-7v-10h-7l-15,1h-31Z"/><path data-race-id="MI08" d="M614,819h14l11,-2h22l1,-1l24,-1l25,-1l-1,-14h15l10,-1l23,-1l15,-2l2,39h-7l-6,-3v-10l-27,3l-23,1l3,38l-29,3h-22l-12,1h-22l-15,1l-1,-22Z"/><path data-race-id="MI09" d="M752,837l1,1l6,-2l-2,3l3,9l7,-1h9l-1,-8h11l3,-6h11l1,12l-3,5l2,8l-23,2h-7l-7,-9l-5,1h-7v-15Z"/><path data-race-id="MI10" d="M801,845l-1,-12h-11l-3,6h-11v-4l-2,-39l-15,2l-23,1l-2,-50v-12h-7v-4l-6,-4l-1,-28h-13v-5v1l4,-1l8,-11v-1v1v-1v1v-1h1v-1l3,-3v-1l1,-1v-1v1h1l5,-2l8,-13v-5l6,-5l-1,-4l7,-6l1,-4l19,-4l4,-7l6,-3h7l19,11l6,14l4,4l3,10l2,14l1,12l8,24l2,30l4,9l1,9l8,12l1,8l-5,5l-1,27l-4,20l-10,-2v-7l-9,-2l-10,6l-2,6l3,1ZM821,840l7,-6l7,1l-8,6Z"/><path data-race-id="MI11" d="M712,826l23,-1l27,-3v10l6,3h7v4l1,8h-9l-7,1l-3,-9l2,-3l-1,-10l-8,1v9l-7,4l-1,2l-4,3l2,17h6l-4,-4h6l-1,4l5,-1l1,14h-11v13l-13,1l-1,-12v-14l-13,1Z"/><path data-race-id="MI12" d="M728,877l1,12l13,-1v12l13,-1l-1,-12l2,-9l15,-4l-1,8l-1,5l3,4v6l-4,12l-1,11l-11,-8l-26,3l-1,-14l-23,1l-2,-11h-7l-2,-4l2,-9l18,-1ZM772,912h-2v-12h3Z"/><path data-race-id="MI13" d="M752,861h13v7h6v-4h6l3,6l9,-5l2,4l-7,3l-2,5h-6v6l-4,8l-3,-4l1,-5l1,-8l-15,4l-2,9l1,12l-13,1v-25h11Z"/><path data-race-id="MI14" d="M742,842l1,-2l7,-4v-9l8,-1l1,10l-6,2l-1,-1h-1v15h7l5,-1l7,9h7l23,-2l-2,9l-4,6h-5l-13,10v-6h6l2,-5l7,-3l-2,-4l-9,5l-3,-6h-6v4h-6v-7h-13l-5,1l1,-4h-6l4,4h-6l-2,-17Z"/>  <path class="mesh" d="M614,819v28l1,22l15,-1h22l12,-1h22l29,-3l13,-1v14h-13l-18,1l-2,9l2,4h7l2,11l23,-1l1,14l26,-3l11,8M511,744h-25v13l1,1v24h13l-1,5l-5,-1v6l9,11l10,-8v13h-25v12h-36l5,1l2,5h-7l-2,-6h-8M482,618h27v39l1,11v51l1,25l3,-1h23v14l6,1l-1,4h3v-6h5v13l8,-1h29l1,17v34h-24v51h23l15,-1v18l2,16v17h-54l-9,1v-50h-27l-1,-19v-32h-25M682,564l2,50l-8,1h-22l1,24l1,25l1,38h12v5h14l-2,7h-8l-3,10l8,3l-8,4v8h22l3,-1v-13h12l1,25l-25,1l1,12l1,39l1,13l-24,1l-1,1h-22l-11,2h-40M706,696v5h13l1,28l6,4v4h7v12l2,50l-10,1h-15l1,14l-25,1M541,921l1,45M735,799l23,-1l15,-2l2,39h-7l-6,-3v-10l-27,3l-23,1l3,38M741,562l-20,1h-22l-17,1l-8,1h-24l-18,1h-44l-5,1h-101v51h-23l1,26h-34l-8,-1l-2,-4l-1,3l-1,1M800,858l-23,2h-7l-7,-9l-5,1h-7v-15h1l1,1l6,-2l-2,3l3,9l7,-1h9l-1,-8h11l3,-6h11l1,12M775,839v-4M759,836l-1,-10l-8,1v9l-7,4l-1,2l-4,3l2,17h6l-4,-4h6l-1,4l5,-1l1,14h-11v13l-13,1l-1,-12M742,888v12l13,-1l-1,-12l2,-9l15,-4l-1,8l-1,5l3,4M752,861h13v7h6v-4h6l3,6l9,-5l2,4l-7,3l-2,5h-6v6"/></svg>