<svg version="1.1" xmlns="http://www.w3.org/2000/svg" width="871" height="1000" viewBox="0 0 871 1000"><path data-race-id="MN01" d="M72,933v-8l1,-14l1,1h21v1h24l5,1h26v1h31l7,1h41l1,-3v-35l1,-3h-8l1,-13l5,-2h1v-14l28,1l1,-35l9,7h71v1h28l5,-11l-4,-3h64l1,11l8,3v15h13v27h98v14h28v-15h25l4,3l1,1l12,8h1v3l5,2v1l8,6v1l10,2l9,4l1,2l1,2h1v1h2l1,1v1l2,1v1l1,2v1h1v1l1,1v1l4,3v3l1,1l1,1l1,1h1v2h1v5l1,1v1l1,1l1,1v2l-1,2v4l-1,1h-1v11l1,1v6l4,4v3l-1,1v3l1,1v1l2,3v1h-8l-20,1h-18l-14,1h-32l-8,1h-56l-14,1h-168l-15,-1h-43l-21,-1h-24l-13,-1h-37l-4,-1h-30l-12,-1h-21l-3,-1h-22l-15,-1h-13v-20Z"/><path data-race-id="MN02" d="M385,791l4,-1l7,-8l5,-1l1,-11l3,-1l9,-5l21,2l10,-3l5,-8l3,-4l5,-5h10l3,4l1,8h3v-3h24v2l1,1v2h-1v1l-1,1v2l-1,1v3h-1v2h-1v3l1,1l8,5l4,3l2,2v1l1,1h1l4,4v5h1l3,1l1,1v-1l1,1h1v1h1v1l1,1v2h1v-1h5v1h5v1v-1l13,1l1,2h1l1,2v1l2,3v3h1v1l5,4l1,2l13,4l1,1l8,2l11,8v1l4,2v7l3,2v2l1,1v3l-1,2h1l1,2v2l2,1h-25v15h-28v-14h-98v-27h-13v-15l-8,-3l-1,-11h-64h3l1,-9l4,-4Z"/><path data-race-id="MN03" d="M386,760l1,-1l-1,-9v-28h1v-2h3v-3l6,-9l5,1v-5l-1,-5h6l8,-6h1l2,4l8,1l5,6l2,-2l-1,-3h12v14h-3l1,7v2v-2l-8,-1v3h-6v20l-2,1l8,2l3,10h14l-5,8l-10,3l-21,-2l-9,5h-5l-4,-5h-10v-4Z"/><path data-race-id="MN04" d="M447,713h55v3h-1l-3,3h-1v2l-1,1h-1v1h1l4,5v2l-1,1v7h1v1h1v2l1,1v1l-2,4v1h-1v1h-1v1h1v2h1v2l-1,1h-24v3h-3l-1,-8l-3,-4h-10l-5,5l-3,-3l-1,-21l-2,-2Z"/><path data-race-id="MN05" d="M425,743l2,-1v-20h6v-3l8,1v2v-2l-1,-7h7v12l2,2l1,21l3,3l-3,4h-14l-3,-10Z"/><path data-race-id="MN06" d="M301,659l2,-6l-1,-15v-31h28l-10,-7h58l9,1v42h28v23h55v19h32h-2v3l1,1l-1,3v4h1v3h-1v1l-1,1v2l2,2v1l-1,1l1,1v2h1v3h-59v-14h-12l1,3l-2,2l-5,-6l-8,-1l-2,-4h-1l-8,6h-6l1,5v5l-5,-1l-6,9v3h-3v2h-1v28l1,9l-1,1v4h10l4,5h5l-3,1l-1,11l-5,1l-7,8l-4,1v-6h-13v-6h-14v-43h-28v-50h-14v-6h-29v-15h9v-5Z"/><path data-race-id="MN07" d="M22,83v-2h1v-2l32,1l9,1h4l32,1l5,1h33l18,1h24l4,1h27l6,1h26v-61h2l1,1l2,1h1v1l4,2l5,-1l3,-2h3l5,3l3,3l3,2l3,3v2l3,13v2l2,13l2,3v16h3l3,21v3l-1,3v1l-1,1l2,2l-1,2l1,1v2l1,1l1,1l1,1l2,2v1h1l1,1l1,1h1l1,2l5,1v2h3l1,1h4l1,1h1l1,-1l1,-1v123h-35l-1,9h-6v11h-14v45l5,4l8,1v14h-16l-25,-1l-1,14h1v84l-1,14l1,30l-1,11v15h33l14,1l1,3h7v93h14v31l1,15l-2,6l-5,1v5h-9v15h29v6h14v50h28v43h14v6h13v6l-9,2l-4,4l-1,9h-3l4,3l-5,11h-28v-1h-71l-9,-7l-1,35l-28,-1v14h-1l-5,2l-1,13h8l-1,3v35l-1,3h-41l-7,-1h-31v-1h-26l-5,-1h-24v-1h-21l-1,-1v-19l1,-6v-11l1,-19v-2l1,-4v-6l1,-38v-11l1,-10v-6l1,-11v-13l1,-18v-22l1,-32l1,-5l-2,-2v-6l-5,-5h-1l-1,-1h-3l-1,-1l-1,-1l-2,-1l-1,-1h-4l-1,-1l-1,1l-1,-1l-4,-3v-1l-3,-5v-2l-1,-1v-2h-1v-2l-1,-2l-1,-1l-2,-4v-1l-4,-5l-1,-1l-1,-1l-1,-2l1,-2v-1h1l1,-2v-1h1v-1l1,-1l1,-1l3,-1v-1h1l1,-1h1l7,-6l5,-2l1,-2l1,-2v-1h1v-2h1l1,-1l1,-2l1,-1l1,-1l1,-1v-1l2,-11v-6h1v-3h-1v-8h-1l1,-1v-1l-1,-1v-1l2,-3v-1h1v-4h1v-1l-1,-1h1v-2h-1v-2h-1v-4l-1,-1v-2h1l-1,-1l1,-1l-1,-1h-1v-2l1,-1h-1l1,-2v-1l-1,-1h-1v-3l1,-1h1v-1v1h-1v-2l-1,-1l1,-1v-1l-1,-1h1v-1h-1h1l-1,-1l1,-1l-1,-1v-1h1l-1,-1l1,-1v-1l-1,1v-1h1h-1v-1l-1,-1h1h-2v-1h-2l-1,-1h1v-1h-1v-2h-1v-3h-1v-2h-2v-1h1v-1h-2h1l-1,-1v1v-3v1v-2v1h-1l-1,-1v-1h1h-1v-1h2h-1l1,-1h-1l1,-1h-2h1v-1v1v-1l-1,1v-2h-2h1v-4h-1h1v-1h-1v-1l1,1v-1l-1,-1l1,-1l-1,-2l1,1v-1l-1,-1v1l1,-1h-2l1,-1v1h1l-2,-2l1,-1h-1h2l-1,-1v-1h-1h1v-1l-1,1v-1h1h-1v-2h-1v-2h-1h1v-1l-1,-1h1h-2v-1h1h-2h1l1,-1h-2l1,-1v-2l-1,-1v-3h1h-1v-1h1v-1l1,-2h-1l1,-1v-2h-1h2v-2v1l-1,-1l1,-1v-1h-1h1h-1l1,-1v-1h-1l1,-1l-1,-1h2h-1l-1,-1l1,-1h-2l1,-1v-1l-1,-1v-3l1,-1h1v-1h-1h1v-2l1,1v-2h-1v-1h1l-1,-1h1v-3l1,-1h-1v-2l1,-2v1l1,-1v-3h-1h1l1,-1h-1l-2,1v-1h-1v1v-2h-1v-3h1v-1h-1l-1,1l-1,-1v-6l-1,-1v-1l1,-1l1,-1l-1,-1l1,-1h-1v-2v1v-5h1v-2h-1h1v-4l-1,-1v-5h-1v-1h2h-1v-1h1v-2h-1v-1h1h-1h1h-1l1,-1h-1v-1v1h-1v-1l2,-1h-1v-3h-1l1,-1v-1h1v-1h-1v-1v1v-3v1v-2v1v-1h-1h1v-5l1,-1v-1h-1v-1l1,-1h-1l1,-1v-1l-1,1v-1h1v-1h-1v-2l1,-1h-1v-2h-1h2v-1h-1v1v-1h-1h1v-1h1v-2h-1v-1h1l-1,-1v-1h-1v-1h-1h1l1,-1h-1v-1h1h-1v-1h1v-1h-1l1,-1v-1h-1h1v-2l-1,-1h1v-1h-1v-1h1l-1,-1h1v-3v1h1v-1h-1v-1l1,1v-1h-1l-1,-1v-1h1v-2h1h-1v-3l1,-1l-1,1h-1l1,-1h1h-1v-2l1,-1v-1h-1l1,-1h-1v-3h-1v-1h-1v-1h1h-1v-1l-1,-1h1v-4h-1l1,-1h-1l-1,-2v-1h-1v-2v1v-4l-1,1h-1v-1h2v-1h-1v-2h-1l1,-1v-1l-1,-1h1h-1v-2l-1,-1h-2v-2h1l-1,-1v-1v1l-1,-1l-1,-1h-1v-1l1,1h1v-3h1h-2l1,-1l-1,-1h-1v-4h-1v-1h1l-1,-1h-1v-9h-1v-2h-1l-2,-1v-1h1v-1l-1,-1v-3l1,-1v-1l-1,-1l-1,-1v-1h1h-1v-7h-1v-1l-1,-1h-1v-1h1v-2h-1v-1l1,-1h-1l-1,-1v-2l-1,-3h1l-1,-1h-1v1h-1v-1l1,-1h1l1,-1v-1h-2l-1,-1v-1h2v-1h-1l-1,-1l1,-1l1,-1v-1h-1h1l1,-1h-1v-1h1v2v-1h1h-1v-1l-1,-1h-1v1h-1v-1h1l1,-1h1v1v-1l-1,-1h-1h1v-1h1h-2v-1h1l1,-1v-1h-1v-1h1v-1h1v-3h-1v1v-2l1,1h1v-1l-1,-1h-1l1,-1h-1v-2v1l2,-1l-1,-1h-2h1v-1l1,-1l-1,-1v-1l-1,-1v-1l-1,-1h2v-1h-1l-1,-1v-1h-1l1,-1h2v-1h1v-1h-1v-1v1l-1,-2h2l1,1v-1h-1v-1h-1v-1l1,1l1,-1v-1l-1,-1v1h-2h1v-1l1,-2v-1h-1v-2l1,1h1v-1h-4v-1h2v-2l1,1v-1h-1v-2l2,-1v-1h-1l-1,1v-3h1l-1,-1h-1v-1h-1v-1h3v-1h-3v-1h2v-3l1,-2h-1v-1h1l1,-1h-2v-1h3h-1l1,-1v1v-2l1,-1v1v-3h1v-1h1v-1l-1,-1h1v-3h1v-1h-2v-1l-1,-1v-1h1l-1,-2v-1h-1v-1h1v-1h-2h1v-2h-2v-1h1v-2h-1l-1,-1h2v-1h-1v-1h-1v-2h-1h1l1,-1v-1h-1l-1,-1h-1h1v-1h1l-1,-1v-1h1v-2h-1h1v-2h-1v-1h1v-1h-2v-1h-1l1,-1l-1,-1h2l-1,-1h-1l-1,-1v-2h-1v-2h1v-1h-1v-5h-1v-1Z"/><path data-race-id="MN08" d="M234,342l25,1h16v-14l-8,-1l-5,-4v-45h14v-11h6l1,-9h35v-123l1,-1h2l2,-1l2,1l1,1l5,-1h2l1,2h2v1l1,1v4h1l1,1h7l1,1h11l2,1h1l2,-1v1l10,1l8,1l3,7l-1,10l5,1h13l5,-2h1l14,-3l1,-7l3,-2h6l1,-1h1v-2l7,-2l8,-1l2,2l1,1h3l7,-1l8,1h3l3,-1l1,4l4,2h2l17,8l6,-1l5,4v3l-1,1h-1l-1,-1v1l-5,1v4l-1,1l6,4l11,-1l2,-1h2l2,2l1,1h1v1l3,3l-1,2l-2,3l3,8l2,2l3,5l1,1l1,2v3l1,1l1,2h1l1,-1l1,-1h2l1,-1h1l3,-1h1v-2l-3,-2v-1l-1,-2l1,-3l-1,-1l2,-4l3,-2l3,1h2v-1h1l1,1l2,-1v-1l1,-1h2v1h9l1,1l6,5l-2,3v2l1,1v2l1,1h1v2h1v1l1,-1v-1h1l1,1l1,1h-2v2h2l1,-1h3l2,2l2,1l1,2h5l1,1l2,1l2,-1v-1l1,1h2v-1l3,2v1l-1,1v1l1,-1l1,2v3l1,1l-1,2v1h-1h3v2h4v1l7,-1l1,3v4l1,3l11,-3h2v1h1v1h1l4,-1l1,-1l1,-1h5v-1h4l1,-1l3,-1l1,-1v-1l3,-1l2,-3h1v-1l3,-3l1,-1v-1h1l2,-1v-1h1l1,-1l1,-1h3v-1h3l1,-1l1,-1v-1l4,-3l6,-2l1,-1h8v10h1v-1l2,1l1,1h1l1,1v2l-1,1v2l1,1l2,1v3l2,1l6,-1l5,-1l2,-2l5,-2v1l1,-1h1v1l-1,2v1l1,1l4,-1h3l2,-1l1,-1l2,1l1,1l4,-1h1v1l1,1h1l2,-1h1l2,-1l2,-1h1v1h1l2,-1h2l3,-1l1,1l2,-1h1l1,-1l1,1h2l1,-1h1l1,1h3l3,1l2,1h1v1l2,2l1,1h1v1l1,1v4l1,1h1l1,1h4l1,1v1l1,1l1,1h5l1,-1v-1h1v-1h2v-2h6l1,-1h1l1,1h2l1,1l2,-1h3l1,1h2v-1h3l1,1h1v1h2v-1l-8,4l1,4l-19,13l-12,4l-3,5l-5,1l-19,8l-7,1l-11,6l-7,1l-13,6l-1,3l-17,8l-16,12l-17,17l-14,15l-4,7l-29,34l-11,5l-10,14l-5,1l-9,10l-6,3l-17,15l-4,2l-13,16v1l-4,2v9h-4l-1,1l-2,-1h-1l-2,-1v-2v83l1,2v11h-1v1h-3v1h-1v2l-1,1v4h-1v1h-1v-1h-3v-1h-5v2h-1v2l-1,2h-1v2h-4v-1h-3l-1,1h-1v1h-1v3h-1v1h-2v1h-3v1h-2l-1,1v-1h-1v2h-2v1h-1v1h-1v1h-1v1h-2v1h-1v1h-1v1l-1,1v4l-1,1h-1v1h-1v1l-1,1l1,1v3h-1v1h-1v4l-1,1l-1,1h-1v1l-1,1v1h-1l-1,1h-2v1h-1v1h-1v6h-1v4l-1,1v5l1,1l-1,1v2l1,2v2l3,1h1l8,-1l5,6v3l2,1v1h1v1l1,1v2l1,1v1h1l3,1v10h-1l-1,1v1h-1v2h-1l-1,1v2h-1h1v4l-1,1h-1v1h-1v1h-1v1h-1v1h-32v-19h-55v-23h-28v-42l-9,-1h-58l10,7h-42v-93h-7l-1,-3l-14,-1h-33v-15l1,-11l-1,-30l1,-14v-84h-1Z"/>  <path class="mesh" d="M73,911l1,1h21v1h24l5,1h26v1h31l7,1h41l1,-3v-35l1,-3h-8l1,-13l5,-2h1v-14l28,1l1,-35l9,7h71v1h28l5,-11l-4,-3h64l1,11l8,3v15h13v27h98v14h28v-15h25M453,751l-3,-3l-1,-21l-2,-2v-12h55M443,713h4M368,806h3l1,-9l4,-4l9,-2v-6h-13v-6h-14v-43h-28v-50h-14v-6h-29v-15h9v-5l5,-1l2,-6l-1,-15v-31h28l-10,-7h58l9,1v42h28v23h55v19h32M405,769h-5l-4,-5h-10v-4l1,-1l-1,-9v-28h1v-2h3v-3l6,-9l5,1v-5l-1,-5h6l8,-6h1l2,4l8,1l5,6l2,-2l-1,-3h12v14h-3l1,7v2v-2l-8,-1v3h-6v20l-2,1l8,2l3,10h14l3,-4l5,-5h10l3,4l1,8h3v-3h24M318,136v123h-35l-1,9h-6v11h-14v45l5,4l8,1v14h-16l-25,-1l-1,14h1v84l-1,14l1,30l-1,11v15h33l14,1l1,3h7v93h14M385,791l4,-1l7,-8l5,-1l1,-11l3,-1M405,769l9,-5M414,764l21,2M435,766l10,-3l5,-8"/></svg>