<svg version="1.1" xmlns="http://www.w3.org/2000/svg" width="871" height="1000" viewBox="0 0 871 1000">
  <path d="M848 239
l -45 116
l -77 2
l -39 28
l -16 10
l -33 24
l -23 15
l -35 22
l -9 -6
l -4 1
h -1
l -1 2
l -1 2
h -3
l -1 1
v 3
h 1
v 2
l -1 2
l -1 1
l 1 2
h -4
v 1
h -1
l -3 -1
l -2 -1
v -2
v 64
l 1 3
v 29
h -2
v 1
h -2
l -1 1
v 3
h -1
v 3
h -1
h 1
l -1 1
h 1
h -1
l -1 1
h -1
v -1
h -2
v -1
h -5
l -1 1
v 2
h -1
v 1
l -1 1
v 1
h -1
v 2
h -4
v -1
h -3
l -1 1
l -1 1
v 3
h -1
v 1
h -2
l -1 1
h -2
v 1
h -3
v 1
l -1 -1
v 2
h -2
l -1 1
h -1
v 2
h -2
v 1
h -2
v 1
h -1
v 2
l -1 1
l -1 2
h 1
l -1 1
v 2
h -1
l -1 1
h -1
v 7
l -1 1
v 2
l -1 1
v 1
h -1
l -1 1
v 1
h -1
v 1
h -1
v 1
h -1
v 1
h -3
v 2
h -1
v 3
h -1
h 1
v 1
h -1
v 5
h -1
v 2
l -1 1
l 1 1
l -1 1
v 1
h 1
v 9
h 1
l 3 1
l 4 1
l 4 -1
l 6 3
v 5
l 1 1
l 1 1
l 1 2
l 1 1
v 1
l 1 1
v 1
l 4 1
v 9
h -1
v 1
h -1
v 1
h -1
v 1
l -1 1
v 1
h -1
v 1
l -1 1
v 3
h 1
v 1
h -1
v 1
l -1 1
l -1 1
v 1
h -1
v 1
h -2
v 1
h -2
v 3
l 1 1
l -1 3
l 1 4
v 3
l -1 1
v 1
l -1 1
v 1
h 1
l 1 2
v 4
l 1 1
v 3
h 1
v 2
l -1 1
h -1
v 1
h -1
v 1
h -1
v 1
h -1
v 1
l -1 1
l -1 1
v 1
l 4 5
v 3
h -1
v 6
l 1 1
l 1 1
l 1 3
v 1
l -1 4
l -1 1
h -1
v 3
l 1 1
v 8
l -1 1
v 5
h -1
v 1
l -1 1
l -1 1
v 1
l -1 2
v 1
h 1
v 1
l 8 5
l 4 3
l 2 2
l 1 1
v 1
h 1
l 5 4
v 1
l 1 1
v 1
h -1
v 2
h 1
l 2 1
h 1
v 1
h 2
v 1
h 1
v 1
h 1
v 2
l 1 1
h 1
v -1
h 4
v 1
h 5
v 1
h 1
v -1
l 12 1
l 2 2
h 1
v 2
l 2 4
v 3
h 1
l 5 5
h 1
l 2 3
l 12 3
h 1
v 1
l 19 10
v 1
l 3 2
l 1 1
v 3
l -1 1
v 2
l 3 2
v 2
l 1 2
v 4
l 2 2
v 2
h 1
v 1
h 1
l 4 3
v 1
l 14 8
v 3
l 5 2
v 1
l 7 6
v 1
h 1
l 10 2
l 8 4
h 1
l 1 2
l 1 2
l 2 1
l 1 1
h 1
l 1 1
v 2
l 1 2
v 1
h 1
l 1 1
l 1 1
v 1
l 3 3
v 2
l 1 1
l 1 1
v 1
l 1 1
h 1
v 1
l 1 1
v 2
l 1 1
v 1
l 1 2
v 2
l 1 1
v 2
l -1 2
v 5
l -1 1
v 9
l 1 2
v 6
l 4 4
v 3
l -1 1
v 3
l 1 1
l 1 4
l 1 1
h -9
l -20 1
h -17
l -14 1
h -33
l -8 1
h -56
l -13 1
h -168
l -5 -1
h -54
l -20 -1
h -24
l -13 -1
h -37
l -4 -1
h -31
l -11 -1
h -22
l -2 -1
h -23
l -15 -1
h -12
l -1 -1
l 1 -19
l 1 -20
v -17
l 1 -19
v -17
l 1 -19
v -6
l 1 -2
v -4
l 1 -28
l 1 -10
v -11
l 1 -10
v -30
l 1 -18
v -12
l 1 -7
v -3
l 1 -32
v -5
l -1 -2
v -1
l -1 -2
v -1
l -1 -2
l -4 -5
h -1
v -1
h -4
l -1 -1
l -1 -1
l -1 -1
h -1
l -1 -1
h -4
l -1 -1
h -1
l -4 -3
v -1
l -4 -5
v -2
l -1 -1
v -4
l -1 -1
v -1
l -2 -3
l -2 -3
l -4 -5
v -1
l -1 -1
v -1
l -1 -1
l 1 -2
v -1
l 1 -2
l 1 -1
v -1
l 2 -1
l 1 -1
l 2 -1
l 1 -1
h 1
l 1 -1
l 8 -6
l 6 -4
l 1 -2
v -3
h 1
l 1 -1
l 2 -2
v -1
l 1 -1
l 1 -1
v -1
l 2 -11
v -1
h 1
v -12
h -1
l 1 -1
v -3
h -1
v -4
l 1 -3
v -1
h 1
v -4
h 1
v -1
l -1 -1
l 1 -1
v -1
h -1
v -2
h -1
v -10
h -1
v -3
h 1
h -1
l 1 -1
v -2
h -1
v -1
h -1
v -3
l 1 -1
h 1
v -1
l -1 1
v -2
l -1 -1
l 1 -1
v -1
l -1 -1
l 1 -1
h -1
h 1
v -1
h -1
l 1 -1
h -1
v -2
h 1
l -1 -1
v -1
h 1
l -1 -1
v 1
v -1
h 1
h -1
v -1
h -1
l -1 -1
h 1
h -2
v -1
h -2
v -1
h 1
v -1
h -2
v -2
h -1
v -5
l -1 -1
l -1 1
v -1
h 1
v -1
h -2
v -1
v 1
h -1
v -1
h 1
v -2
l -1 1
v -1
l 1 -1
h -1
l -1 1
v -4
h 1
l -1 -1
v -1
v 1
v -2
h -2
h 1
v -1
l -1 -1
l 1 -1
h -1
l 1 -1
h -1
h 1
l -1 -1
v -1
l 1 1
v -1
l -1 -1
h 1
v -1
l -1 -2
l 1 1
v -1
l -1 -1
v 1
l 1 -1
h -2
l 1 -1
v 1
h 1
l -2 -2
l 1 -1
h -1
h 2
l -1 -1
v -1
h -1
h 1
l -1 -1
v 1
v -1
h 1
h -2
h 2
l -2 -1
h 1
v -1
h -2
v -4
h -1
v -1
h 1
h -2
h 1
l 1 -1
h -2
v -1
h 1
v -2
l -1 -1
v -2
h -1
l 1 -1
h 1
l -1 -1
h 1
v -1
h -1
h 2
v -2
h -1
v -1
h 1
v -2
h -1
h 1
v -8
h 1
h -1
v -2
h -1
l 1 -1
v -1
h -1
v -4
l 1 -1
v -2
h 1
v -2
h 1
h -2
v -1
h 1
l -1 -1
h 1
v -3
h 1
l 1 -1
h -1
v -1
h 1
h -1
v -1
l 1 -2
v 1
l 1 -1
v -2
h 1
v -1
h -2
h 2
l -1 -1
l -3 1
v -1
h -1
v 1
v -2
l -1 -1
h 1
v -3
l -1 1
l -1 -1
l -1 -1
l 1 -1
l -1 -1
v -2
h 1
v -1
h -1
v -1
h -2
h 1
v -1
l 1 -1
l 2 -1
l -1 -1
l 1 -1
h -1
v -1
h -1
l 1 -1
v -1
h -1
h 1
v -3
h 1
l -1 -1
h 1
v -1
h -1
h 1
v -4
l -1 -1
h -1
l 1 -1
v -3
h -1
h 1
v -1
h -2
v -1
h 3
h -1
v -1
h 1
v -2
h -1
v -1
h 1
h -1
h 1
h -2
l 2 -1
h -1
v -1
h -1
l -1 1
v -1
l 2 -1
h 1
h -1
l -1 -1
h 1
v -1
h -1
l 1 -1
h -2
l 2 -1
v -1
l -1 1
v -1
h 2
l -1 -1
v -1
h -1
v 1
v -1
l 1 -1
v -1
h -1
v 1
v -2
l 1 1
v -1
h -2
h 1
v -1
h 1
h -1
l -1 -1
h 1
v -4
h 2
v -1
h -2
l 1 -1
h -1
l 1 -1
h 1
h -1
l 1 -1
v -1
h -1
v 1
h -1
l 1 -1
h 1
v -1
h -1
v -1
h -1
v -1
h 1
l 1 -1
h -2
v -2
h -1
h 2
l 1 -1
h -1
l -1 1
l -1 -1
h 2
v -1
h -1
l 1 -1
v 1
h 1
v -2
h -1
v -1
h 1
l -1 -2
h -2
v -1
h -1
h 1
l 1 -1
h -1
v -1
h 1
h -1
v -1
h 1
v -1
h -1
v -1
h 1
v -1
h -1
h 1
v -2
h -1
l 1 -1
h 1
v -1
h -2
v -1
h 2
h -1
l -1 -1
h 1
l 1 -1
v -2
v 1
h 1
v -1
h -1
v -1
l 1 1
v -1
h -2
l -1 -1
v -1
h 1
l 1 -2
h -1
h 2
h -2
h 1
v -2
l -1 -1
h 2
v -1
l -1 1
h -1
v -1
h 2
h -1
v -3
h 1
v -1
h -1
l 1 -1
h -1
v -2
h -1
v -1
l -1 -1
h -1
v -1
h 1
h -1
v -7
l -1 -1
v -2
h -1
v -2
l -1 1
v -1
h 1
v -1
h -1
v -2
l -1 1
h -1
v -1
h 2
v -1
h -1
v -1
l -1 -1
l 1 -1
v -1
l -1 -1
h 1
h -1
v -3
h -2
v -1
h -1
h 1
v -1
h 1
h -1
v -2
h -1
v 1
l -1 -1
v -1
h -1
l 1 -1
v 1
v -3
h 1
h -1
v -2
h -1
v -4
h -1
v -1
h 1
l -1 -1
h -2
v -5
h 1
v -1
l -1 -1
h 1
l -1 -1
v -1
h -1
v -2
h -1
l -1 -1
v -1
h 1
v -1
l -1 -1
v -3
l 1 -1
v -1
l -1 -1
l -1 -1
v -1
h 1
h -1
v -6
h -1
v -1
h -1
v -2
h -1
v -1
h 1
v -2
h -1
v -1
l 1 -1
h -1
l -1 -1
h -1
v -2
l -1 -3
h 1
l -1 -1
h -1
v 1
v -2
h 1
l 1 -1
h 1
v -1
h -3
v -2
h 1
v -1
h -1
v -2
l 1 -2
l 1 -1
h -1
v -1
h 1
v 1
h 1
v 1
v -1
h 1
h -1
v -1
h -1
l -1 -1
h -1
v 1
v -1
l 2 -1
l 1 1
v -1
h -1
l -1 -1
h -1
l 1 -1
h 1
h -2
v -1
l 2 -1
h 1
h -1
h 1
v -1
h -2
v -1
h 2
v -1
h 1
v -3
h -1
l -1 1
v -1
l 1 -1
h 1
v 1
h 1
v -1
l -1 -1
h -1
l 1 -1
h -2
v -1
h 1
v -1
v 1
l 2 -1
l -2 -1
h -2
h 1
l 1 -1
l 1 -1
l -1 -1
h -1
v -1
l -1 -1
v -1
l -1 -1
h 3
h -1
v -1
h 1
h -2
l -1 -1
v -2
h 2
l 1 -1
h 1
v -1
h -1
v -1
h -1
v 1
l -1 -1
v -1
h 3
l 1 1
v -1
h -1
v -1
h -2
v -1
l 2 1
l 1 -1
v -1
l -1 -1
l -3 1
h 1
v -1
h 1
l 1 -2
v -1
h -1
l -1 -1
v -1
h 1
l 1 1
h 1
v -1
h -5
v -1
h 2
l 1 -1
v -1
l 1 1
v -1
h -2
v -2
l 3 -1
v -1
h -1
l -1 1
h -1
v -2
h 1
v -1
h 1
l -1 -1
h -1
l -1 -1
h -1
v -1
h 4
v -1
h -4
v -1
h 2
v -1
h 1
v -1
h -1
v -1
h 1
l 1 -2
h -2
l 1 -1
h 1
l 1 -1
h -2
v -1
h 2
v -1
v 1
v -3
h 1
v 1
l 1 -2
v -1
h 1
v -1
h 1
v -1
l -1 -1
h 1
v -3
h 1
v -1
h -2
v -1
l -1 -1
v -1
h 1
l -1 -1
v -1
h -1
v -1
h -1
v -1
h 1
v -1
h -1
v -2
h -1
v -1
h 1
v -2
h -1
l -1 -1
h 2
v -1
h -1
v -1
l -1 -1
h -1
h 1
v -1
h -2
h 1
l 2 -1
v -1
h -2
l -1 -1
h -1
h 1
v -1
h 1
l -1 -1
v -1
h 1
v -2
h -1
h 1
v -2
h -2
l 1 -1
h 1
v -1
h -2
v -3
h 1
l -1 -1
l -1 -1
v -2
h -1
v -2
h 1
v -1
h -1
l -1 -1
v -4
h -1
v -3
h 1
l 1 -1
h -1
v -1
h 1
l 31 1
l 14 1
l 31 1
h 1
l 5 1
h 33
l 17 1
h 23
l 6 1
h 28
l 4 1
h 26
l 1 -43
v -18
h 2
l 1 1
l 1 1
h 1
v 1
l 5 2
l 5 -1
l 3 -2
h 3
l 5 3
l 3 3
l 3 2
h 1
l 1 3
v 2
l 4 13
l -1 2
l 2 13
l 3 3
l 6 33
v 4
h -1
v 6
l -1 1
v 1
l 1 2
v 5
l 2 1
l 1 1
v 1
l 2 2
v 1
h 2
l 1 1
l 1 1
h 1
l 1 2
l 4 1
l 1 2
h 3
l 1 1
h 4
l 1 1
h 1
l 1 -1
l 1 -1
l 1 -1
h 1
l 2 -1
h 1
l 1 1
l 2 1
l 4 -1
l 4 1
v 1
h 2
l 1 2
v 1
l -1 2
l 1 1
h 1
l 1 1
h 6
l 2 1
h 10
l 2 1
h 1
l 3 -1
v 1
l 9 1
l 9 1
l 3 12
l -1 5
l 4 1
h 6
l 15 -2
h 5
l 8 -4
v -6
l 10 -3
h 1
l 7 -4
l 4 -1
l 8 3
l 9 -1
l 8 1
h 3
l 3 -1
l 1 4
l 4 2
h 2
l 18 8
l 6 -1
l 4 4
l 1 1
l -1 1
v 1
h 1
l -1 1
h -2
v -1
l -1 1
l -5 4
v 2
l 5 4
l 13 -2
h 3
l 2 2
v 1
h 2
v 1
l 2 3
l -1 2
l -1 3
l 3 8
l 1 2
h 1
l 3 5
v 1
l 1 2
l 1 1
v 3
l 1 2
h 1
l 1 -1
h 1
l 1 -1
h 1
l 1 -1
h 1
l 3 -1
h 1
v -2
l -2 -1
v -2
l -1 -2
l 1 -3
l -2 -1
l 2 -4
l 3 -2
l 3 1
h 3
l 1 -1
v 1
l 2 -1
v -1
l 2 -1
h 1
v 1
h 10
l 1 1
v 1
l 3 4
v 3
l 1 2
v 3
l 1 1
l 3 2
v 1
v -2
h 2
v 1
l 1 1
h -1
v 2
h 2
l 1 -1
h 3
l 1 2
l 3 3
h 1
l 2 -1
h 2
l 1 1
l 1 1
l 1 1
l 3 -1
v -1
l 1 1
h 1
v -1
l 4 2
v 1
l -2 1
v 1
h 1
l 1 -1
v 5
h 1
v 1
l -1 2
v 1
l 1 1
l 1 -1
l 1 1
l 1 1
h 2
v 1
h 11
l -2 2
l -1 4
v 2
l 1 1
l 9 -3
h 5
v 2
h 2
l 3 -1
l 2 -1
l 2 -1
l 2 -1
v 1
h 1
v -1
h 2
l 4 -1
h 1
l 1 -1
l 1 -1
l 5 -5
h 2
v -1
l 2 -3
l 2 -1
v -1
h 1
v -1
l 1 -1
h 1
l 3 -1
v -1
h 2
l 1 -1
h 2
l 1 -1
l 3 -1
l -1 -1
l 3 -3
l 6 -2
l 4 -1
h 5
v 8
l 1 2
h 1
v -1
l 1 1
l 1 1
v 1
l 2 -1
l 1 1
v 2
l -2 1
l 1 1
v 1
l 1 1
l 1 1
l 2 4
h 1
l 6 -1
l 5 -1
l 6 -4
v 1
l 2 -1
l -1 3
l 1 1
l 1 1
l 4 -1
h 4
v -1
h 1
l 1 -1
l 1 1
l 1 1
l 4 -1
h 1
l 1 1
h 1
v 1
h 1
l 1 -1
h 2
l 2 -1
l 1 -1
h 1
l 1 1
h 1
l 1 -1
h 2
l 3 -1
l 1 1
h 1
l 2 -1
h 1
v -1
l 2 1
h 2
v -1
h 1
v 1
h 1
l 1 1
l 2 -1
l 4 1
l 1 1
h 1
v 1
h 2
l 1 3
h 1
v 1
l 2 2
l -1 2
l 1 1
v 1
h 2
l 1 1
h 4
l 1 1
v 2
l 2 1
h 4
l 2 -1
v -1
h 1
v -1
l 1 -1
v -1
h 7
l 2 -1
v 1
h 3
l 1 1
h 1
v -1
h 4
l 1 1
h 1
v -1
h 3
l 2 1
h 3
Z"/>
<g class="districts">
<path data-race-id="MN01" d="M72 928
v -17
l 1 1
h 22
v 1
h 24
l 5 1
h 26
v 1
h 31
l 6 1
h 42
l 1 -13
v -28
h -7
v -13
l 5 -2
h 2
h -1
l 1 -14
l 28 1
v -35
l 10 7
h 71
v 1
h 27
l 5 -6
l -3 -8
h 64
v 11
l 8 1
v 17
h 14
v 27
h 97
l 1 14
h 28
v -15
h 25
l 4 3
v 1
l 14 8
v 3
l 5 2
v 1
l 7 6
v 1
h 1
l 10 2
l 8 4
h 1
l 1 2
l 1 2
l 2 1
l 1 1
h 1
l 1 1
v 2
l 1 2
v 1
h 1
l 1 1
l 1 1
v 1
l 3 3
v 2
l 1 1
l 1 1
v 1
l 1 1
h 1
v 1
l 1 1
v 2
l 1 1
v 1
l 1 2
v 2
l 1 1
v 2
l -1 2
v 5
l -1 1
v 9
l 1 2
v 6
l 4 4
v 3
l -1 1
v 3
l 1 1
l 1 4
l 1 1
h -9
l -20 1
h -17
l -14 1
h -33
l -8 1
h -56
l -13 1
h -168
l -5 -1
h -54
l -20 -1
h -24
l -13 -1
h -37
l -4 -1
h -31
l -11 -1
h -22
l -2 -1
h -23
l -15 -1
h -12
l -1 -1
l 1 -19
Z"/>
<path data-race-id="MN02" d="M385 791
l 10 -9
h 5
l 2 -12
l 3 -1
l 8 -5
h 13
l 9 2
l 11 -5
l 4 -6
l 2 -4
l 6 -5
h 9
l 3 4
l 1 8
h 3
v -3
h 25
v 5
l -1 1
v 5
h -1
v 1
l -1 1
l -1 1
v 1
l -1 2
v 1
h 1
v 1
l 8 5
l 4 3
l 2 2
l 1 1
v 1
h 1
l 5 4
v 1
l 1 1
v 1
h -1
v 2
h 1
l 2 1
h 1
v 1
h 2
v 1
h 1
v 1
h 1
v 2
l 1 1
h 1
v -1
h 4
v 1
h 5
v 1
h 1
v -1
l 12 1
l 2 2
h 1
v 2
l 2 4
v 3
h 1
l 5 5
h 1
l 2 3
l 12 3
h 1
v 1
l 19 10
v 1
l 3 2
l 1 1
v 3
l -1 1
v 2
l 3 2
v 2
l 1 2
v 4
l 2 2
v 2
h 1
v 1
h 1
h -25
v 15
h -28
l -1 -14
h -97
v -27
h -14
v -17
l -8 -1
v -11
h -64
l 2 -6
l 6 -7
Z"/>
<path data-race-id="MN03" d="M386 760
l -1 -10
v -13
l 1 -14
v -2
v 1
l 1 -1
h -1
h 1
h -1
v -1
h 4
v -3
l 6 -9
l 4 -4
l -3 -3
l 8 -3
l 8 -1
v -4
h 1
l 3 4
l 7 1
l 6 6
l 1 -2
v -3
h 11
v 14
h -3
l 1 9
v -3
h -8
l 1 3
h -6
v 20
l -3 1
l 8 2
l 4 10
h 14
l -4 6
l -11 5
l -9 -2
h -13
l -8 5
h -6
l -4 -5
h -10
Z"/>
<path data-race-id="MN04" d="M446 713
h 56
v 2
l -1 1
h -1
v 1
h -1
v 1
h -1
v 1
h -1
v 1
l -1 1
l -1 1
v 1
l 4 5
v 3
h -1
v 6
l 1 1
l 1 1
l 1 3
v 1
l -1 4
l -1 1
h -1
v 3
l 1 1
v 3
h -25
v 3
h -3
l -1 -8
l -3 -4
h -9
l -6 5
l -3 -3
v -21
l -3 -2
Z"/>
<path data-race-id="MN05" d="M424 743
l 3 -1
v -20
h 6
l -1 -3
h 8
v 3
l -1 -9
h 7
v 12
l 3 2
v 21
l 3 3
l -2 4
h -14
l -4 -10
Z"/>
<path data-race-id="MN06" d="M294 664
l 1 -3
l 7 -2
v -52
h 27
l -5 -1
l -4 -6
h 58
l 9 1
v 42
h 28
v 23
h 55
v 19
h 31
h -2
v 3
l 1 1
l -1 3
l 1 4
v 3
l -1 1
v 1
l -1 1
v 1
h 1
l 1 2
v 4
l 1 1
v 3
h -59
v -14
h -11
v 3
l -1 2
l -6 -6
l -7 -1
l -3 -4
h -1
v 4
l -8 1
l -8 3
l 3 3
l -4 4
l -6 9
v 3
h -4
v 1
h 1
h -1
h 1
l -1 1
v -1
v 2
l -1 14
v 13
l 1 10
l -1 4
h 10
l 4 5
h 6
l -3 1
l -2 12
h -5
l -10 9
v -6
h -14
v -6
h -14
l 1 -11
v -32
h -29
v -50
h -14
v -6
h -29
l 1 -15
Z"/>
<path data-race-id="MN07" d="M21 83
v -2
h 1
l 1 -1
h -1
v -1
h 1
l 31 1
l 14 1
l 31 1
h 1
l 5 1
h 33
l 17 1
h 23
l 6 1
h 28
l 4 1
h 26
l 1 -43
v -18
h 2
l 1 1
l 1 1
h 1
v 1
l 5 2
l 5 -1
l 3 -2
h 3
l 5 3
l 3 3
l 3 2
h 1
l 1 3
v 2
l 4 13
l -1 2
l 2 12
l 3 4
v 16
h 3
l 3 21
h -1
v 6
l -1 1
v 1
l 1 2
v 5
l 2 1
l 1 1
v 1
l 2 2
v 1
h 2
l 1 1
l 1 1
h 1
l 1 2
l 4 1
l 1 2
h 3
l 1 1
h 4
l 1 1
h 1
l 1 -1
l 1 -1
l -1 25
v 98
h -35
v 9
h -6
v 11
h -15
v 48
l 5 2
h 9
v 14
h -17
l -4 -1
h -22
v 11
l 2 3
l -1 28
v 52
l -1 4
v 70
h 34
l 13 1
l 2 3
h 7
v 49
l -1 1
v 43
h 15
v 52
l -7 2
l -1 3
l -7 1
l -1 15
h 29
v 6
h 14
v 50
h 29
v 32
l -1 11
h 14
v 6
h 14
v 6
l -9 2
l -6 7
l -2 6
l 3 8
l -5 6
h -27
v -1
h -71
l -10 -7
v 35
l -28 -1
l -1 14
h 1
h -2
l -5 2
v 13
h 7
v 28
l -1 13
h -42
l -6 -1
h -31
v -1
h -26
l -5 -1
h -24
v -1
h -22
l -1 -1
l 1 -19
v -17
l 1 -19
v -6
l 1 -2
v -4
l 1 -28
l 1 -10
v -11
l 1 -10
v -30
l 1 -18
v -12
l 1 -7
v -3
l 1 -32
v -5
l -1 -2
v -1
l -1 -2
v -1
l -1 -2
l -4 -5
h -1
v -1
h -4
l -1 -1
l -1 -1
l -1 -1
h -1
l -1 -1
h -4
l -1 -1
h -1
l -4 -3
v -1
l -4 -5
v -2
l -1 -1
v -4
l -1 -1
v -1
l -2 -3
l -2 -3
l -4 -5
v -1
l -1 -1
v -1
l -1 -1
l 1 -2
v -1
l 1 -2
l 1 -1
v -1
l 2 -1
l 1 -1
l 2 -1
l 1 -1
h 1
l 1 -1
l 8 -6
l 6 -4
l 1 -2
v -3
h 1
l 1 -1
l 2 -2
v -1
l 1 -1
l 1 -1
v -1
l 2 -11
v -1
h 1
v -12
h -1
l 1 -1
v -3
h -1
v -4
l 1 -3
v -1
h 1
v -4
h 1
v -1
l -1 -1
l 1 -1
v -1
h -1
v -2
h -1
v -10
h -1
v -3
h 1
h -1
l 1 -1
v -2
h -1
v -1
h -1
v -3
l 1 -1
h 1
v -1
l -1 1
v -2
l -1 -1
l 1 -1
v -1
l -1 -1
l 1 -1
h -1
h 1
v -1
h -1
l 1 -1
h -1
v -2
h 1
l -1 -1
v -1
h 1
l -1 -1
v 1
v -1
h 1
h -1
v -1
h -1
l -1 -1
h 1
h -2
v -1
h -2
v -1
h 1
v -1
h -2
v -2
h -1
v -5
l -1 -1
l -1 1
v -1
h 1
v -1
h -2
v -1
v 1
h -1
v -1
h 1
v -2
l -1 1
v -1
l 1 -1
h -1
l -1 1
v -4
h 1
l -1 -1
v -1
v 1
v -2
h -2
h 1
v -1
l -1 -1
l 1 -1
h -1
l 1 -1
h -1
h 1
l -1 -1
v -1
l 1 1
v -1
l -1 -1
h 1
v -1
l -1 -2
l 1 1
v -1
l -1 -1
v 1
l 1 -1
h -2
l 1 -1
v 1
h 1
l -2 -2
l 1 -1
h -1
h 2
l -1 -1
v -1
h -1
h 1
l -1 -1
v 1
v -1
h 1
h -2
h 2
l -2 -1
h 1
v -1
h -2
v -4
h -1
v -1
h 1
h -2
h 1
l 1 -1
h -2
v -1
h 1
v -2
l -1 -1
v -2
h -1
l 1 -1
h 1
l -1 -1
h 1
v -1
h -1
h 2
v -2
h -1
v -1
h 1
v -2
h -1
h 1
v -8
h 1
h -1
v -2
h -1
l 1 -1
v -1
h -1
v -4
l 1 -1
v -2
h 1
v -2
h 1
h -2
v -1
h 1
l -1 -1
h 1
v -3
h 1
l 1 -1
h -1
v -1
h 1
h -1
v -1
l 1 -2
v 1
l 1 -1
v -2
h 1
v -1
h -2
h 2
l -1 -1
l -3 1
v -1
h -1
v 1
v -2
l -1 -1
h 1
v -3
l -1 1
l -1 -1
l -1 -1
l 1 -1
l -1 -1
v -2
h 1
v -1
h -1
v -1
h -2
h 1
v -1
l 1 -1
l 2 -1
l -1 -1
l 1 -1
h -1
v -1
h -1
l 1 -1
v -1
h -1
h 1
v -3
h 1
l -1 -1
h 1
v -1
h -1
h 1
v -4
l -1 -1
h -1
l 1 -1
v -3
h -1
h 1
v -1
h -2
v -1
h 3
h -1
v -1
h 1
v -2
h -1
v -1
h 1
h -1
h 1
h -2
l 2 -1
h -1
v -1
h -1
l -1 1
v -1
l 2 -1
h 1
h -1
l -1 -1
h 1
v -1
h -1
l 1 -1
h -2
l 2 -1
v -1
l -1 1
v -1
h 2
l -1 -1
v -1
h -1
v 1
v -1
l 1 -1
v -1
h -1
v 1
v -2
l 1 1
v -1
h -2
h 1
v -1
h 1
h -1
l -1 -1
h 1
v -4
h 2
v -1
h -2
l 1 -1
h -1
l 1 -1
h 1
h -1
l 1 -1
v -1
h -1
v 1
h -1
l 1 -1
h 1
v -1
h -1
v -1
h -1
v -1
h 1
l 1 -1
h -2
v -2
h -1
h 2
l 1 -1
h -1
l -1 1
l -1 -1
h 2
v -1
h -1
l 1 -1
v 1
h 1
v -2
h -1
v -1
h 1
l -1 -2
h -2
v -1
h -1
h 1
l 1 -1
h -1
v -1
h 1
h -1
v -1
h 1
v -1
h -1
v -1
h 1
v -1
h -1
h 1
v -2
h -1
l 1 -1
h 1
v -1
h -2
v -1
h 2
h -1
l -1 -1
h 1
l 1 -1
v -2
v 1
h 1
v -1
h -1
v -1
l 1 1
v -1
h -2
l -1 -1
v -1
h 1
l 1 -2
h -1
h 2
h -2
h 1
v -2
l -1 -1
h 2
v -1
l -1 1
h -1
v -1
h 2
h -1
v -3
h 1
v -1
h -1
l 1 -1
h -1
v -2
h -1
v -1
l -1 -1
h -1
v -1
h 1
h -1
v -7
l -1 -1
v -2
h -1
v -2
l -1 1
v -1
h 1
v -1
h -1
v -2
l -1 1
h -1
v -1
h 2
v -1
h -1
v -1
l -1 -1
l 1 -1
v -1
l -1 -1
h 1
h -1
v -3
h -2
v -1
h -1
h 1
v -1
h 1
h -1
v -2
h -1
v 1
l -1 -1
v -1
h -1
l 1 -1
v 1
v -3
h 1
h -1
v -2
h -1
v -4
h -1
v -1
h 1
l -1 -1
h -2
v -5
h 1
v -1
l -1 -1
h 1
l -1 -1
v -1
h -1
v -2
h -1
l -1 -1
v -1
h 1
v -1
l -1 -1
v -3
l 1 -1
v -1
l -1 -1
l -1 -1
v -1
h 1
h -1
v -6
h -1
v -1
h -1
v -2
h -1
v -1
h 1
v -2
h -1
v -1
l 1 -1
h -1
l -1 -1
h -1
v -2
l -1 -3
h 1
l -1 -1
h -1
v 1
v -2
h 1
l 1 -1
h 1
v -1
h -3
v -2
h 1
v -1
h -1
v -2
l 1 -2
l 1 -1
h -1
v -1
h 1
v 1
h 1
v 1
v -1
h 1
h -1
v -1
h -1
l -1 -1
h -1
v 1
v -1
l 2 -1
l 1 1
v -1
h -1
l -1 -1
h -1
l 1 -1
h 1
h -2
v -1
l 2 -1
h 1
h -1
h 1
v -1
h -2
v -1
h 2
v -1
h 1
v -3
h -1
l -1 1
v -1
l 1 -1
h 1
v 1
h 1
v -1
l -1 -1
h -1
l 1 -1
h -2
v -1
h 1
v -1
v 1
l 2 -1
l -2 -1
h -2
h 1
l 1 -1
l 1 -1
l -1 -1
h -1
v -1
l -1 -1
v -1
l -1 -1
h 3
h -1
v -1
h 1
h -2
l -1 -1
v -2
h 2
l 1 -1
h 1
v -1
h -1
v -1
h -1
v 1
l -1 -1
v -1
h 3
l 1 1
v -1
h -1
v -1
h -2
v -1
l 2 1
l 1 -1
v -1
l -1 -1
l -3 1
h 1
v -1
h 1
l 1 -2
v -1
h -1
l -1 -1
v -1
h 1
l 1 1
h 1
v -1
h -5
v -1
h 2
l 1 -1
v -1
l 1 1
v -1
h -2
v -2
l 3 -1
v -1
h -1
l -1 1
h -1
v -2
h 1
v -1
h 1
l -1 -1
h -1
l -1 -1
h -1
v -1
h 4
v -1
h -4
v -1
h 2
v -1
h 1
v -1
h -1
v -1
h 1
l 1 -2
h -2
l 1 -1
h 1
l 1 -1
h -2
v -1
h 2
v -1
v 1
v -3
h 1
v 1
l 1 -2
v -1
h 1
v -1
h 1
v -1
l -1 -1
h 1
v -3
h 1
v -1
h -2
v -1
l -1 -1
v -1
h 1
l -1 -1
v -1
h -1
v -1
h -1
v -1
h 1
v -1
h -1
v -2
h -1
v -1
h 1
v -2
h -1
l -1 -1
h 2
v -1
h -1
v -1
l -1 -1
h -1
h 1
v -1
h -2
h 1
l 2 -1
v -1
h -2
l -1 -1
h -1
h 1
v -1
h 1
l -1 -1
v -1
h 1
v -2
h -1
h 1
v -2
h -2
l 1 -1
h 1
v -1
h -2
v -3
h 1
l -1 -1
l -1 -1
v -2
h -1
v -2
h 1
v -1
h -1
l -1 -1
v -4
h -1
v -1
Z"/>
<path data-race-id="MN08" d="M232 342
h 22
l 4 1
h 17
v -14
h -9
l -5 -2
v -48
h 15
v -11
h 6
v -9
h 35
v -98
l 1 -25
l 1 -1
h 1
l 2 -1
h 1
l 1 1
l 2 1
l 4 -1
l 4 1
v 1
h 2
l 1 2
v 1
l -1 2
l 1 1
h 1
l 1 1
h 6
l 2 1
h 10
l 2 1
h 1
l 3 -1
v 1
l 9 1
l 9 1
l 3 8
l -1 9
l 4 1
h 6
l 15 -2
l 13 -4
v -6
l 10 -3
h 1
l 7 -4
l 4 -1
l 8 3
l 9 -1
l 8 1
h 3
l 3 -1
l 1 4
l 4 2
h 2
l 18 8
l 6 -1
l 4 4
l 1 1
l -1 1
v 1
h 1
l -1 1
h -2
v -1
l -1 1
l -5 4
v 2
l 5 4
l 13 -2
h 3
l 2 2
v 1
h 2
v 1
l 2 3
l -1 2
l 2 11
l 1 2
h 1
l 3 5
v 1
l 1 2
l 1 1
v 3
l 1 2
h 1
l 1 -1
h 1
l 1 -1
h 1
l 1 -1
h 1
l 3 -1
h 1
v -2
l -2 -1
v -2
l -1 -2
l 1 -3
l -2 -1
l 2 -4
l 3 -2
l 3 1
h 3
l 1 -1
v 1
l 2 -1
v -1
l 2 -1
h 1
v 1
h 10
l 1 1
v 1
l 3 4
v 3
l 1 2
v 3
l 1 1
l 3 2
v 1
v -2
h 2
v 1
l 1 1
h -1
v 2
h 2
l 1 -1
h 3
l 1 2
l 3 3
h 1
l 2 -1
h 2
l 1 1
l 1 1
l 1 1
l 3 -1
v -1
l 1 1
h 1
v -1
l 4 2
v 1
l -2 1
v 1
h 1
l 1 -1
v 5
h 1
v 1
l -1 2
v 1
l 1 1
l 1 -1
l 1 1
l 1 1
h 2
v 1
h 11
l -2 2
l -1 4
v 2
l 1 1
l 9 -3
h 5
v 2
h 2
l 3 -1
l 2 -1
l 2 -1
l 2 -1
v 1
h 1
v -1
h 2
l 4 -1
h 1
l 1 -1
l 1 -1
l 5 -5
h 2
v -1
l 2 -3
l 2 -1
v -1
h 1
v -1
l 1 -1
h 1
l 3 -1
v -1
h 2
l 1 -1
h 2
l 1 -1
l 3 -1
l -1 -1
l 3 -3
l 6 -2
l 4 -1
h 5
v 8
l 1 2
h 1
v -1
l 1 1
l 1 1
v 1
l 2 -1
l 1 1
v 2
l -2 1
l 1 1
v 1
l 1 1
l 1 1
l 2 4
h 1
l 6 -1
l 5 -1
l 6 -4
v 1
l 2 -1
l -1 3
l 1 1
l 1 1
l 4 -1
h 4
v -1
h 1
l 1 -1
l 1 1
l 1 1
l 4 -1
h 1
l 1 1
h 1
v 1
h 1
l 1 -1
h 2
l 2 -1
l 1 -1
h 1
l 1 1
h 1
l 1 -1
h 2
l 3 -1
l 1 1
h 1
l 2 -1
h 1
v -1
l 2 1
h 2
v -1
h 1
v 1
h 1
l 1 1
l 2 -1
l 4 1
l 1 1
h 1
v 1
h 2
l 1 3
h 1
v 1
l 2 2
l -1 2
l 1 1
v 1
h 2
l 1 1
h 4
l 1 1
v 2
l 2 1
h 4
l 2 -1
v -1
h 1
v -1
l 1 -1
v -1
h 7
l 2 -1
v 1
h 3
l 1 1
h 1
v -1
h 4
l 1 1
h 1
v -1
h 3
l 2 1
h 11
l -13 34
l -5 13
l -9 23
l -18 46
h -76
l -15 12
l -14 10
l -27 18
l -33 24
l -23 15
l -30 19
l -5 3
l -9 -6
l -4 1
h -1
l -1 2
l -1 2
h -3
l -1 1
v 3
h 1
v 2
l -1 2
l -1 1
l 1 2
h -4
v 1
h -1
l -3 -1
l -2 -1
v -2
v 64
l 1 3
v 29
h -2
v 1
h -2
l -1 1
v 3
h -1
v 3
h -1
h 1
l -1 1
h 1
h -1
l -1 1
h -1
v -1
h -2
v -1
h -5
l -1 1
v 2
h -1
v 1
l -1 1
v 1
h -1
v 2
h -4
v -1
h -3
l -1 1
l -1 1
v 3
h -1
v 1
h -2
l -1 1
h -2
v 1
h -3
v 1
l -1 -1
v 2
h -2
l -1 1
h -1
v 2
h -2
v 1
h -2
v 1
h -1
v 2
l -1 1
l -1 2
h 1
l -1 1
v 2
h -1
l -1 1
h -1
v 7
l -1 1
v 2
l -1 1
v 1
h -1
l -1 1
v 1
h -1
v 1
h -1
v 1
h -1
v 1
h -3
v 2
h -1
v 3
h -1
h 1
v 1
h -1
v 5
h -1
v 2
l -1 1
l 1 1
l -1 1
v 1
h 1
v 9
h 1
l 3 1
l 4 1
l 4 -1
l 6 3
v 5
l 1 1
l 1 1
l 1 2
l 1 1
v 1
l 1 1
v 1
l 4 1
v 9
h -1
v 1
h -1
v 1
h -1
v 1
l -1 1
v 1
h -1
v 1
l -1 1
v 3
h 1
v 1
h -1
v 1
l -1 1
l -1 1
v 1
h -1
v 1
h -2
v 1
h -31
v -19
h -55
v -23
h -28
v -42
l -9 -1
h -58
l 4 6
l 5 1
h -42
v -43
l 1 -1
v -49
h -7
l -2 -3
l -13 -1
h -34
v -70
l 1 -4
v -52
l 1 -28
l -2 -3
Z"/>
</g>
  <path class="districts-mesh" d="M452 751
l 6 -5
h 9
l 3 4
l 1 8
h 3
v -3
h 25
M405 769
h -6
l -4 -5
h -10
l 1 -4
l -1 -10
v -13
l 1 -14
v -2
v 1
l 1 -1
h -1
h 1
M368 806
h 64
v 11
l 8 1
v 17
h 14
v 27
h 97
l 1 14
h 28
v -15
h 25
M72 911
l 1 1
h 22
v 1
h 24
l 5 1
h 26
v 1
h 31
l 6 1
h 42
l 1 -13
v -28
h -7
v -13
l 5 -2
h 2
h -1
l 1 -14
l 28 1
v -35
l 10 7
h 71
v 1
h 27
l 5 -6
l -3 -8
l 2 -6
l 6 -7
l 9 -2
l 10 -9
h 5
l 2 -12
l 3 -1
l 8 -5
h 13
l 9 2
l 11 -5
l 4 -6
l 2 -4
l -3 -3
v -21
l -3 -2
v -12
h 55
M442 713
h 4
M385 791
v -6
h -14
v -6
h -14
l 1 -11
v -32
h -29
v -50
h -14
v -6
h -29
l 1 -15
l 7 -1
l 1 -3
l 7 -2
v -52
h 27
l -5 -1
l -4 -6
h 58
l 9 1
v 42
h 28
v 23
h 55
v 19
h 31
M318 136
l -1 25
v 98
h -35
v 9
h -6
v 11
h -15
v 48
l 5 2
h 9
v 14
h -17
l -4 -1
h -22
v 11
l 2 3
l -1 28
v 52
l -1 4
v 70
h 34
l 13 1
l 2 3
h 7
v 49
l -1 1
v 43
h 15
M386 721
v -1
h 4
v -3
l 6 -9
l 4 -4
l -3 -3
l 8 -3
l 8 -1
v -4
h 1
l 3 4
l 7 1
l 6 6
l 1 -2
v -3
h 11
v 14
h -3
l 1 9
v -3
h -8
l 1 3
h -6
v 20
l -3 1
l 8 2
l 4 10
h 14"/>
</svg>