<svg version="1.1" xmlns="http://www.w3.org/2000/svg" width="871" height="1000" viewBox="0 0 871 1000">  <path d="M848,239l-45,116l-77,2l-39,28l-16,10l-33,24l-23,15l-35,22l-9,-6l-4,1h-1l-1,2l-1,2h-3l-1,1v3h1v2l-1,2l-1,1l1,2h-4v1h-1l-3,-1l-2,-1v-2v64l1,3v29h-2v1h-2l-1,1v3h-1v3h-1h1l-1,1h1h-1l-1,1h-1v-1h-2v-1h-5l-1,1v2h-1v1l-1,1v1h-1v2h-4v-1h-3l-1,1l-1,1v3h-1v1h-2l-1,1h-2v1h-3v1l-1,-1v2h-2l-1,1h-1v2h-2v1h-2v1h-1v2l-1,1l-1,2h1l-1,1v2h-1l-1,1h-1v7l-1,1v2l-1,1v1h-1l-1,1v1h-1v1h-1v1h-1v1h-3v2h-1v3h-1h1v1h-1v5h-1v2l-1,1l1,1l-1,1v1h1v9h1l3,1l4,1l4,-1l6,3v5l1,1l1,1l1,2l1,1v1l1,1v1l4,1v9h-1v1h-1v1h-1v1l-1,1v1h-1v1l-1,1v3h1v1h-1v1l-1,1l-1,1v1h-1v1h-2v1h-2v3l1,1l-1,3l1,4v3l-1,1v1l-1,1v1h1l1,2v4l1,1v3h1v2l-1,1h-1v1h-1v1h-1v1h-1v1l-1,1l-1,1v1l4,5v3h-1v6l1,1l1,1l1,3v1l-1,4l-1,1h-1v3l1,1v8l-1,1v5h-1v1l-1,1l-1,1v1l-1,2v1h1v1l8,5l4,3l2,2l1,1v1h1l5,4v1l1,1v1h-1v2h1l2,1h1v1h2v1h1v1h1v2l1,1h1v-1h4v1h5v1h1v-1l12,1l2,2h1v2l2,4v3h1l5,5h1l2,3l12,3h1v1l19,10v1l3,2l1,1v3l-1,1v2l3,2v2l1,2v4l2,2v2h1v1h1l4,3v1l14,8v3l5,2v1l7,6v1h1l10,2l8,4h1l1,2l1,2l2,1l1,1h1l1,1v2l1,2v1h1l1,1l1,1v1l3,3v2l1,1l1,1v1l1,1h1v1l1,1v2l1,1v1l1,2v2l1,1v2l-1,2v5l-1,1v9l1,2v6l4,4v3l-1,1v3l1,1l1,4l1,1h-9l-20,1h-17l-14,1h-33l-8,1h-56l-13,1h-168l-5,-1h-54l-20,-1h-24l-13,-1h-37l-4,-1h-31l-11,-1h-22l-2,-1h-23l-15,-1h-12l-1,-1l1,-19l1,-20v-17l1,-19v-17l1,-19v-6l1,-2v-4l1,-28l1,-10v-11l1,-10v-30l1,-18v-12l1,-7v-3l1,-32v-5l-1,-2v-1l-1,-2v-1l-1,-2l-4,-5h-1v-1h-4l-1,-1l-1,-1l-1,-1h-1l-1,-1h-4l-1,-1h-1l-4,-3v-1l-4,-5v-2l-1,-1v-4l-1,-1v-1l-2,-3l-2,-3l-4,-5v-1l-1,-1v-1l-1,-1l1,-2v-1l1,-2l1,-1v-1l2,-1l1,-1l2,-1l1,-1h1l1,-1l8,-6l6,-4l1,-2v-3h1l1,-1l2,-2v-1l1,-1l1,-1v-1l2,-11v-1h1v-12h-1l1,-1v-3h-1v-4l1,-3v-1h1v-4h1v-1l-1,-1l1,-1v-1h-1v-2h-1v-10h-1v-3h1h-1l1,-1v-2h-1v-1h-1v-3l1,-1h1v-1l-1,1v-2l-1,-1l1,-1v-1l-1,-1l1,-1h-1h1v-1h-1l1,-1h-1v-2h1l-1,-1v-1h1l-1,-1v1v-1h1h-1v-1h-1l-1,-1h1h-2v-1h-2v-1h1v-1h-2v-2h-1v-5l-1,-1l-1,1v-1h1v-1h-2v-1v1h-1v-1h1v-2l-1,1v-1l1,-1h-1l-1,1v-4h1l-1,-1v-1v1v-2h-2h1v-1l-1,-1l1,-1h-1l1,-1h-1h1l-1,-1v-1l1,1v-1l-1,-1h1v-1l-1,-2l1,1v-1l-1,-1v1l1,-1h-2l1,-1v1h1l-2,-2l1,-1h-1h2l-1,-1v-1h-1h1l-1,-1v1v-1h1h-2h2l-2,-1h1v-1h-2v-4h-1v-1h1h-2h1l1,-1h-2v-1h1v-2l-1,-1v-2h-1l1,-1h1l-1,-1h1v-1h-1h2v-2h-1v-1h1v-2h-1h1v-8h1h-1v-2h-1l1,-1v-1h-1v-4l1,-1v-2h1v-2h1h-2v-1h1l-1,-1h1v-3h1l1,-1h-1v-1h1h-1v-1l1,-2v1l1,-1v-2h1v-1h-2h2l-1,-1l-3,1v-1h-1v1v-2l-1,-1h1v-3l-1,1l-1,-1l-1,-1l1,-1l-1,-1v-2h1v-1h-1v-1h-2h1v-1l1,-1l2,-1l-1,-1l1,-1h-1v-1h-1l1,-1v-1h-1h1v-3h1l-1,-1h1v-1h-1h1v-4l-1,-1h-1l1,-1v-3h-1h1v-1h-2v-1h3h-1v-1h1v-2h-1v-1h1h-1h1h-2l2,-1h-1v-1h-1l-1,1v-1l2,-1h1h-1l-1,-1h1v-1h-1l1,-1h-2l2,-1v-1l-1,1v-1h2l-1,-1v-1h-1v1v-1l1,-1v-1h-1v1v-2l1,1v-1h-2h1v-1h1h-1l-1,-1h1v-4h2v-1h-2l1,-1h-1l1,-1h1h-1l1,-1v-1h-1v1h-1l1,-1h1v-1h-1v-1h-1v-1h1l1,-1h-2v-2h-1h2l1,-1h-1l-1,1l-1,-1h2v-1h-1l1,-1v1h1v-2h-1v-1h1l-1,-2h-2v-1h-1h1l1,-1h-1v-1h1h-1v-1h1v-1h-1v-1h1v-1h-1h1v-2h-1l1,-1h1v-1h-2v-1h2h-1l-1,-1h1l1,-1v-2v1h1v-1h-1v-1l1,1v-1h-2l-1,-1v-1h1l1,-2h-1h2h-2h1v-2l-1,-1h2v-1l-1,1h-1v-1h2h-1v-3h1v-1h-1l1,-1h-1v-2h-1v-1l-1,-1h-1v-1h1h-1v-7l-1,-1v-2h-1v-2l-1,1v-1h1v-1h-1v-2l-1,1h-1v-1h2v-1h-1v-1l-1,-1l1,-1v-1l-1,-1h1h-1v-3h-2v-1h-1h1v-1h1h-1v-2h-1v1l-1,-1v-1h-1l1,-1v1v-3h1h-1v-2h-1v-4h-1v-1h1l-1,-1h-2v-5h1v-1l-1,-1h1l-1,-1v-1h-1v-2h-1l-1,-1v-1h1v-1l-1,-1v-3l1,-1v-1l-1,-1l-1,-1v-1h1h-1v-6h-1v-1h-1v-2h-1v-1h1v-2h-1v-1l1,-1h-1l-1,-1h-1v-2l-1,-3h1l-1,-1h-1v1v-2h1l1,-1h1v-1h-3v-2h1v-1h-1v-2l1,-2l1,-1h-1v-1h1v1h1v1v-1h1h-1v-1h-1l-1,-1h-1v1v-1l2,-1l1,1v-1h-1l-1,-1h-1l1,-1h1h-2v-1l2,-1h1h-1h1v-1h-2v-1h2v-1h1v-3h-1l-1,1v-1l1,-1h1v1h1v-1l-1,-1h-1l1,-1h-2v-1h1v-1v1l2,-1l-2,-1h-2h1l1,-1l1,-1l-1,-1h-1v-1l-1,-1v-1l-1,-1h3h-1v-1h1h-2l-1,-1v-2h2l1,-1h1v-1h-1v-1h-1v1l-1,-1v-1h3l1,1v-1h-1v-1h-2v-1l2,1l1,-1v-1l-1,-1l-3,1h1v-1h1l1,-2v-1h-1l-1,-1v-1h1l1,1h1v-1h-5v-1h2l1,-1v-1l1,1v-1h-2v-2l3,-1v-1h-1l-1,1h-1v-2h1v-1h1l-1,-1h-1l-1,-1h-1v-1h4v-1h-4v-1h2v-1h1v-1h-1v-1h1l1,-2h-2l1,-1h1l1,-1h-2v-1h2v-1v1v-3h1v1l1,-2v-1h1v-1h1v-1l-1,-1h1v-3h1v-1h-2v-1l-1,-1v-1h1l-1,-1v-1h-1v-1h-1v-1h1v-1h-1v-2h-1v-1h1v-2h-1l-1,-1h2v-1h-1v-1l-1,-1h-1h1v-1h-2h1l2,-1v-1h-2l-1,-1h-1h1v-1h1l-1,-1v-1h1v-2h-1h1v-2h-2l1,-1h1v-1h-2v-3h1l-1,-1l-1,-1v-2h-1v-2h1v-1h-1l-1,-1v-4h-1v-3h1l1,-1h-1v-1h1l31,1l14,1l31,1h1l5,1h33l17,1h23l6,1h28l4,1h26l1,-43v-18h2l1,1l1,1h1v1l5,2l5,-1l3,-2h3l5,3l3,3l3,2h1l1,3v2l4,13l-1,2l2,13l3,3l6,33v4h-1v6l-1,1v1l1,2v5l2,1l1,1v1l2,2v1h2l1,1l1,1h1l1,2l4,1l1,2h3l1,1h4l1,1h1l1,-1l1,-1l1,-1h1l2,-1h1l1,1l2,1l4,-1l4,1v1h2l1,2v1l-1,2l1,1h1l1,1h6l2,1h10l2,1h1l3,-1v1l9,1l9,1l3,12l-1,5l4,1h6l15,-2h5l8,-4v-6l10,-3h1l7,-4l4,-1l8,3l9,-1l8,1h3l3,-1l1,4l4,2h2l18,8l6,-1l4,4l1,1l-1,1v1h1l-1,1h-2v-1l-1,1l-5,4v2l5,4l13,-2h3l2,2v1h2v1l2,3l-1,2l-1,3l3,8l1,2h1l3,5v1l1,2l1,1v3l1,2h1l1,-1h1l1,-1h1l1,-1h1l3,-1h1v-2l-2,-1v-2l-1,-2l1,-3l-2,-1l2,-4l3,-2l3,1h3l1,-1v1l2,-1v-1l2,-1h1v1h10l1,1v1l3,4v3l1,2v3l1,1l3,2v1v-2h2v1l1,1h-1v2h2l1,-1h3l1,2l3,3h1l2,-1h2l1,1l1,1l1,1l3,-1v-1l1,1h1v-1l4,2v1l-2,1v1h1l1,-1v5h1v1l-1,2v1l1,1l1,-1l1,1l1,1h2v1h11l-2,2l-1,4v2l1,1l9,-3h5v2h2l3,-1l2,-1l2,-1l2,-1v1h1v-1h2l4,-1h1l1,-1l1,-1l5,-5h2v-1l2,-3l2,-1v-1h1v-1l1,-1h1l3,-1v-1h2l1,-1h2l1,-1l3,-1l-1,-1l3,-3l6,-2l4,-1h5v8l1,2h1v-1l1,1l1,1v1l2,-1l1,1v2l-2,1l1,1v1l1,1l1,1l2,4h1l6,-1l5,-1l6,-4v1l2,-1l-1,3l1,1l1,1l4,-1h4v-1h1l1,-1l1,1l1,1l4,-1h1l1,1h1v1h1l1,-1h2l2,-1l1,-1h1l1,1h1l1,-1h2l3,-1l1,1h1l2,-1h1v-1l2,1h2v-1h1v1h1l1,1l2,-1l4,1l1,1h1v1h2l1,3h1v1l2,2l-1,2l1,1v1h2l1,1h4l1,1v2l2,1h4l2,-1v-1h1v-1l1,-1v-1h7l2,-1v1h3l1,1h1v-1h4l1,1h1v-1h3l2,1h3Z"/><g class="districts"><path data-race-id="MN01" d="M72,928v-17l1,1h22v1h24l5,1h26v1h31l6,1h42l1,-13v-28h-7v-13l5,-2h2h-1l1,-14l28,1v-35l10,7h71v1h27l5,-6l-3,-8h64v11l8,1v17h14v27h97l1,14h28v-15h25l4,3v1l14,8v3l5,2v1l7,6v1h1l10,2l8,4h1l1,2l1,2l2,1l1,1h1l1,1v2l1,2v1h1l1,1l1,1v1l3,3v2l1,1l1,1v1l1,1h1v1l1,1v2l1,1v1l1,2v2l1,1v2l-1,2v5l-1,1v9l1,2v6l4,4v3l-1,1v3l1,1l1,4l1,1h-9l-20,1h-17l-14,1h-33l-8,1h-56l-13,1h-168l-5,-1h-54l-20,-1h-24l-13,-1h-37l-4,-1h-31l-11,-1h-22l-2,-1h-23l-15,-1h-12l-1,-1l1,-19Z"/><path data-race-id="MN02" d="M385,791l10,-9h5l2,-12l3,-1l8,-5h13l9,2l11,-5l4,-6l2,-4l6,-5h9l3,4l1,8h3v-3h25v5l-1,1v5h-1v1l-1,1l-1,1v1l-1,2v1h1v1l8,5l4,3l2,2l1,1v1h1l5,4v1l1,1v1h-1v2h1l2,1h1v1h2v1h1v1h1v2l1,1h1v-1h4v1h5v1h1v-1l12,1l2,2h1v2l2,4v3h1l5,5h1l2,3l12,3h1v1l19,10v1l3,2l1,1v3l-1,1v2l3,2v2l1,2v4l2,2v2h1v1h1h-25v15h-28l-1,-14h-97v-27h-14v-17l-8,-1v-11h-64l2,-6l6,-7Z"/><path data-race-id="MN03" d="M386,760l-1,-10v-13l1,-14v-2v1l1,-1h-1h1h-1v-1h4v-3l6,-9l4,-4l-3,-3l8,-3l8,-1v-4h1l3,4l7,1l6,6l1,-2v-3h11v14h-3l1,9v-3h-8l1,3h-6v20l-3,1l8,2l4,10h14l-4,6l-11,5l-9,-2h-13l-8,5h-6l-4,-5h-10Z"/><path data-race-id="MN04" d="M446,713h56v2l-1,1h-1v1h-1v1h-1v1h-1v1l-1,1l-1,1v1l4,5v3h-1v6l1,1l1,1l1,3v1l-1,4l-1,1h-1v3l1,1v3h-25v3h-3l-1,-8l-3,-4h-9l-6,5l-3,-3v-21l-3,-2Z"/><path data-race-id="MN05" d="M424,743l3,-1v-20h6l-1,-3h8v3l-1,-9h7v12l3,2v21l3,3l-2,4h-14l-4,-10Z"/><path data-race-id="MN06" d="M294,664l1,-3l7,-2v-52h27l-5,-1l-4,-6h58l9,1v42h28v23h55v19h31h-2v3l1,1l-1,3l1,4v3l-1,1v1l-1,1v1h1l1,2v4l1,1v3h-59v-14h-11v3l-1,2l-6,-6l-7,-1l-3,-4h-1v4l-8,1l-8,3l3,3l-4,4l-6,9v3h-4v1h1h-1h1l-1,1v-1v2l-1,14v13l1,10l-1,4h10l4,5h6l-3,1l-2,12h-5l-10,9v-6h-14v-6h-14l1,-11v-32h-29v-50h-14v-6h-29l1,-15Z"/><path data-race-id="MN07" d="M21,83v-2h1l1,-1h-1v-1h1l31,1l14,1l31,1h1l5,1h33l17,1h23l6,1h28l4,1h26l1,-43v-18h2l1,1l1,1h1v1l5,2l5,-1l3,-2h3l5,3l3,3l3,2h1l1,3v2l4,13l-1,2l2,12l3,4v16h3l3,21h-1v6l-1,1v1l1,2v5l2,1l1,1v1l2,2v1h2l1,1l1,1h1l1,2l4,1l1,2h3l1,1h4l1,1h1l1,-1l1,-1l-1,25v98h-35v9h-6v11h-15v48l5,2h9v14h-17l-4,-1h-22v11l2,3l-1,28v52l-1,4v70h34l13,1l2,3h7v49l-1,1v43h15v52l-7,2l-1,3l-7,1l-1,15h29v6h14v50h29v32l-1,11h14v6h14v6l-9,2l-6,7l-2,6l3,8l-5,6h-27v-1h-71l-10,-7v35l-28,-1l-1,14h1h-2l-5,2v13h7v28l-1,13h-42l-6,-1h-31v-1h-26l-5,-1h-24v-1h-22l-1,-1l1,-19v-17l1,-19v-6l1,-2v-4l1,-28l1,-10v-11l1,-10v-30l1,-18v-12l1,-7v-3l1,-32v-5l-1,-2v-1l-1,-2v-1l-1,-2l-4,-5h-1v-1h-4l-1,-1l-1,-1l-1,-1h-1l-1,-1h-4l-1,-1h-1l-4,-3v-1l-4,-5v-2l-1,-1v-4l-1,-1v-1l-2,-3l-2,-3l-4,-5v-1l-1,-1v-1l-1,-1l1,-2v-1l1,-2l1,-1v-1l2,-1l1,-1l2,-1l1,-1h1l1,-1l8,-6l6,-4l1,-2v-3h1l1,-1l2,-2v-1l1,-1l1,-1v-1l2,-11v-1h1v-12h-1l1,-1v-3h-1v-4l1,-3v-1h1v-4h1v-1l-1,-1l1,-1v-1h-1v-2h-1v-10h-1v-3h1h-1l1,-1v-2h-1v-1h-1v-3l1,-1h1v-1l-1,1v-2l-1,-1l1,-1v-1l-1,-1l1,-1h-1h1v-1h-1l1,-1h-1v-2h1l-1,-1v-1h1l-1,-1v1v-1h1h-1v-1h-1l-1,-1h1h-2v-1h-2v-1h1v-1h-2v-2h-1v-5l-1,-1l-1,1v-1h1v-1h-2v-1v1h-1v-1h1v-2l-1,1v-1l1,-1h-1l-1,1v-4h1l-1,-1v-1v1v-2h-2h1v-1l-1,-1l1,-1h-1l1,-1h-1h1l-1,-1v-1l1,1v-1l-1,-1h1v-1l-1,-2l1,1v-1l-1,-1v1l1,-1h-2l1,-1v1h1l-2,-2l1,-1h-1h2l-1,-1v-1h-1h1l-1,-1v1v-1h1h-2h2l-2,-1h1v-1h-2v-4h-1v-1h1h-2h1l1,-1h-2v-1h1v-2l-1,-1v-2h-1l1,-1h1l-1,-1h1v-1h-1h2v-2h-1v-1h1v-2h-1h1v-8h1h-1v-2h-1l1,-1v-1h-1v-4l1,-1v-2h1v-2h1h-2v-1h1l-1,-1h1v-3h1l1,-1h-1v-1h1h-1v-1l1,-2v1l1,-1v-2h1v-1h-2h2l-1,-1l-3,1v-1h-1v1v-2l-1,-1h1v-3l-1,1l-1,-1l-1,-1l1,-1l-1,-1v-2h1v-1h-1v-1h-2h1v-1l1,-1l2,-1l-1,-1l1,-1h-1v-1h-1l1,-1v-1h-1h1v-3h1l-1,-1h1v-1h-1h1v-4l-1,-1h-1l1,-1v-3h-1h1v-1h-2v-1h3h-1v-1h1v-2h-1v-1h1h-1h1h-2l2,-1h-1v-1h-1l-1,1v-1l2,-1h1h-1l-1,-1h1v-1h-1l1,-1h-2l2,-1v-1l-1,1v-1h2l-1,-1v-1h-1v1v-1l1,-1v-1h-1v1v-2l1,1v-1h-2h1v-1h1h-1l-1,-1h1v-4h2v-1h-2l1,-1h-1l1,-1h1h-1l1,-1v-1h-1v1h-1l1,-1h1v-1h-1v-1h-1v-1h1l1,-1h-2v-2h-1h2l1,-1h-1l-1,1l-1,-1h2v-1h-1l1,-1v1h1v-2h-1v-1h1l-1,-2h-2v-1h-1h1l1,-1h-1v-1h1h-1v-1h1v-1h-1v-1h1v-1h-1h1v-2h-1l1,-1h1v-1h-2v-1h2h-1l-1,-1h1l1,-1v-2v1h1v-1h-1v-1l1,1v-1h-2l-1,-1v-1h1l1,-2h-1h2h-2h1v-2l-1,-1h2v-1l-1,1h-1v-1h2h-1v-3h1v-1h-1l1,-1h-1v-2h-1v-1l-1,-1h-1v-1h1h-1v-7l-1,-1v-2h-1v-2l-1,1v-1h1v-1h-1v-2l-1,1h-1v-1h2v-1h-1v-1l-1,-1l1,-1v-1l-1,-1h1h-1v-3h-2v-1h-1h1v-1h1h-1v-2h-1v1l-1,-1v-1h-1l1,-1v1v-3h1h-1v-2h-1v-4h-1v-1h1l-1,-1h-2v-5h1v-1l-1,-1h1l-1,-1v-1h-1v-2h-1l-1,-1v-1h1v-1l-1,-1v-3l1,-1v-1l-1,-1l-1,-1v-1h1h-1v-6h-1v-1h-1v-2h-1v-1h1v-2h-1v-1l1,-1h-1l-1,-1h-1v-2l-1,-3h1l-1,-1h-1v1v-2h1l1,-1h1v-1h-3v-2h1v-1h-1v-2l1,-2l1,-1h-1v-1h1v1h1v1v-1h1h-1v-1h-1l-1,-1h-1v1v-1l2,-1l1,1v-1h-1l-1,-1h-1l1,-1h1h-2v-1l2,-1h1h-1h1v-1h-2v-1h2v-1h1v-3h-1l-1,1v-1l1,-1h1v1h1v-1l-1,-1h-1l1,-1h-2v-1h1v-1v1l2,-1l-2,-1h-2h1l1,-1l1,-1l-1,-1h-1v-1l-1,-1v-1l-1,-1h3h-1v-1h1h-2l-1,-1v-2h2l1,-1h1v-1h-1v-1h-1v1l-1,-1v-1h3l1,1v-1h-1v-1h-2v-1l2,1l1,-1v-1l-1,-1l-3,1h1v-1h1l1,-2v-1h-1l-1,-1v-1h1l1,1h1v-1h-5v-1h2l1,-1v-1l1,1v-1h-2v-2l3,-1v-1h-1l-1,1h-1v-2h1v-1h1l-1,-1h-1l-1,-1h-1v-1h4v-1h-4v-1h2v-1h1v-1h-1v-1h1l1,-2h-2l1,-1h1l1,-1h-2v-1h2v-1v1v-3h1v1l1,-2v-1h1v-1h1v-1l-1,-1h1v-3h1v-1h-2v-1l-1,-1v-1h1l-1,-1v-1h-1v-1h-1v-1h1v-1h-1v-2h-1v-1h1v-2h-1l-1,-1h2v-1h-1v-1l-1,-1h-1h1v-1h-2h1l2,-1v-1h-2l-1,-1h-1h1v-1h1l-1,-1v-1h1v-2h-1h1v-2h-2l1,-1h1v-1h-2v-3h1l-1,-1l-1,-1v-2h-1v-2h1v-1h-1l-1,-1v-4h-1v-1Z"/><path data-race-id="MN08" d="M232,342h22l4,1h17v-14h-9l-5,-2v-48h15v-11h6v-9h35v-98l1,-25l1,-1h1l2,-1h1l1,1l2,1l4,-1l4,1v1h2l1,2v1l-1,2l1,1h1l1,1h6l2,1h10l2,1h1l3,-1v1l9,1l9,1l3,8l-1,9l4,1h6l15,-2l13,-4v-6l10,-3h1l7,-4l4,-1l8,3l9,-1l8,1h3l3,-1l1,4l4,2h2l18,8l6,-1l4,4l1,1l-1,1v1h1l-1,1h-2v-1l-1,1l-5,4v2l5,4l13,-2h3l2,2v1h2v1l2,3l-1,2l2,11l1,2h1l3,5v1l1,2l1,1v3l1,2h1l1,-1h1l1,-1h1l1,-1h1l3,-1h1v-2l-2,-1v-2l-1,-2l1,-3l-2,-1l2,-4l3,-2l3,1h3l1,-1v1l2,-1v-1l2,-1h1v1h10l1,1v1l3,4v3l1,2v3l1,1l3,2v1v-2h2v1l1,1h-1v2h2l1,-1h3l1,2l3,3h1l2,-1h2l1,1l1,1l1,1l3,-1v-1l1,1h1v-1l4,2v1l-2,1v1h1l1,-1v5h1v1l-1,2v1l1,1l1,-1l1,1l1,1h2v1h11l-2,2l-1,4v2l1,1l9,-3h5v2h2l3,-1l2,-1l2,-1l2,-1v1h1v-1h2l4,-1h1l1,-1l1,-1l5,-5h2v-1l2,-3l2,-1v-1h1v-1l1,-1h1l3,-1v-1h2l1,-1h2l1,-1l3,-1l-1,-1l3,-3l6,-2l4,-1h5v8l1,2h1v-1l1,1l1,1v1l2,-1l1,1v2l-2,1l1,1v1l1,1l1,1l2,4h1l6,-1l5,-1l6,-4v1l2,-1l-1,3l1,1l1,1l4,-1h4v-1h1l1,-1l1,1l1,1l4,-1h1l1,1h1v1h1l1,-1h2l2,-1l1,-1h1l1,1h1l1,-1h2l3,-1l1,1h1l2,-1h1v-1l2,1h2v-1h1v1h1l1,1l2,-1l4,1l1,1h1v1h2l1,3h1v1l2,2l-1,2l1,1v1h2l1,1h4l1,1v2l2,1h4l2,-1v-1h1v-1l1,-1v-1h7l2,-1v1h3l1,1h1v-1h4l1,1h1v-1h3l2,1h11l-13,34l-5,13l-9,23l-18,46h-76l-15,12l-14,10l-27,18l-33,24l-23,15l-30,19l-5,3l-9,-6l-4,1h-1l-1,2l-1,2h-3l-1,1v3h1v2l-1,2l-1,1l1,2h-4v1h-1l-3,-1l-2,-1v-2v64l1,3v29h-2v1h-2l-1,1v3h-1v3h-1h1l-1,1h1h-1l-1,1h-1v-1h-2v-1h-5l-1,1v2h-1v1l-1,1v1h-1v2h-4v-1h-3l-1,1l-1,1v3h-1v1h-2l-1,1h-2v1h-3v1l-1,-1v2h-2l-1,1h-1v2h-2v1h-2v1h-1v2l-1,1l-1,2h1l-1,1v2h-1l-1,1h-1v7l-1,1v2l-1,1v1h-1l-1,1v1h-1v1h-1v1h-1v1h-3v2h-1v3h-1h1v1h-1v5h-1v2l-1,1l1,1l-1,1v1h1v9h1l3,1l4,1l4,-1l6,3v5l1,1l1,1l1,2l1,1v1l1,1v1l4,1v9h-1v1h-1v1h-1v1l-1,1v1h-1v1l-1,1v3h1v1h-1v1l-1,1l-1,1v1h-1v1h-2v1h-31v-19h-55v-23h-28v-42l-9,-1h-58l4,6l5,1h-42v-43l1,-1v-49h-7l-2,-3l-13,-1h-34v-70l1,-4v-52l1,-28l-2,-3Z"/></g>  <path class="districts-mesh" d="M452,751l6,-5h9l3,4l1,8h3v-3h25M405,769h-6l-4,-5h-10l1,-4l-1,-10v-13l1,-14v-2v1l1,-1h-1h1M368,806h64v11l8,1v17h14v27h97l1,14h28v-15h25M72,911l1,1h22v1h24l5,1h26v1h31l6,1h42l1,-13v-28h-7v-13l5,-2h2h-1l1,-14l28,1v-35l10,7h71v1h27l5,-6l-3,-8l2,-6l6,-7l9,-2l10,-9h5l2,-12l3,-1l8,-5h13l9,2l11,-5l4,-6l2,-4l-3,-3v-21l-3,-2v-12h55M442,713h4M385,791v-6h-14v-6h-14l1,-11v-32h-29v-50h-14v-6h-29l1,-15l7,-1l1,-3l7,-2v-52h27l-5,-1l-4,-6h58l9,1v42h28v23h55v19h31M318,136l-1,25v98h-35v9h-6v11h-15v48l5,2h9v14h-17l-4,-1h-22v11l2,3l-1,28v52l-1,4v70h34l13,1l2,3h7v49l-1,1v43h15M386,721v-1h4v-3l6,-9l4,-4l-3,-3l8,-3l8,-1v-4h1l3,4l7,1l6,6l1,-2v-3h11v14h-3l1,9v-3h-8l1,3h-6v20l-3,1l8,2l4,10h14"/></svg>