<svg version="1.1" xmlns="http://www.w3.org/2000/svg" width="1000" height="888" viewBox="0 0 1000 888">
  <path d="M587 27
l 5 3
v 1
l -1 2
v 2
l 11 4
v 1
h -1
v 4
l 5 3
v 4
h 1
l 1 1
h 1
l 2 1
h 1
l 1 -1
l 2 1
l -1 2
l -1 1
v 1
l 2 1
l -1 2
v 1
l 1 1
h 5
v 2
l 4 3
h -1
h 3
v -1
l 1 1
h 2
l -1 1
l -1 1
l -1 1
l -1 2
l -1 2
l -1 1
v 3
l -3 6
l -1 2
v 1
l 1 1
v 1
l -1 2
l -1 1
v 4
l -1 2
l 1 2
l -1 1
v 13
l 1 2
v 4
l 1 1
v 2
l 1 3
v 4
l 1 2
v 1
l 1 2
l 1 2
v 1
h 1
v 1
l 1 1
l 1 3
v 2
h 1
v 1
h 1
v 1
l 1 1
v 1
h 1
l -1 3
l -3 4
v 4
l 1 4
l 1 1
l 1 1
l 4 3
l 1 1
l 3 1
l 2 5
l -1 1
v 9
l 3 3
l 3 3
l 2 2
l 1 1
l 2 2
l 4 2
v 1
l 2 2
v 1
l 1 1
l 2 1
l 3 2
h 1
l 2 1
v 1
l 1 1
v 3
l 1 2
v 1
l 2 3
h 6
l 3 3
l 2 2
l 1 3
l 1 1
l 1 4
v 1
l 2 2
l 2 3
l 4 3
h 2
l 2 1
l 1 1
h 1
l 2 1
l 2 1
v 1
l 3 2
l 6 5
l 2 1
l 4 3
l 1 2
l 2 1
l 5 3
l 2 5
l 2 1
l 2 3
v 1
l 1 1
v 3
l 1 1
v 3
l 2 10
l 1 2
l 1 2
l 1 1
l 1 4
l -3 4
v 1
l 1 10
l 1 1
l 1 2
v 1
l 1 2
v 2
l 1 4
v 1
l 1 1
v 2
l 2 2
l 1 1
v 2
l 2 2
l 9 3
h 2
l 2 -2
v -1
h 1
l 6 -11
l 1 -1
l 1 -2
l 1 -1
l 1 -1
h 2
l 1 1
h 4
l 2 1
l 3 1
v 1
l 5 2
l 2 1
l 2 1
h 6
l 1 1
h 2
l 2 2
h 1
l 2 2
l 4 3
h 3
l 3 3
l 5 5
v 1
l -1 4
l -1 2
l -1 1
l -2 1
l -3 2
l -1 3
h -1
v 1
l -3 4
l -1 1
l -1 3
l 4 6
v 1
l 1 1
v 1
l 1 2
v 4
l -1 1
v 2
l -1 1
l -1 2
l -1 1
l -2 2
h -1
l -1 2
v 1
l -1 1
h -1
v 4
l -1 1
l -1 3
v 1
l -1 2
v 2
l -1 3
v 1
l -4 9
l -1 1
l -3 3
v 1
l -1 1
l -1 3
l -1 1
v 2
h -1
l -1 2
v 10
l 1 5
l 1 6
l 6 8
l 3 1
l 3 2
l 4 6
v 1
l 1 1
v 2
h 2
l 1 1
l 3 3
l 1 1
l 10 4
l 9 7
l 3 2
l 1 1
l 3 2
l 1 1
l 1 2
l 2 2
h 3
l 2 -1
l 2 4
l -4 3
v 1
l 1 4
l 2 2
v 1
l 3 2
l 2 1
h 3
l 1 -1
l 2 -2
l 2 -1
v -2
l 2 -1
h 2
l 5 3
l 1 1
v 3
l 1 1
h 1
l 2 1
l 2 1
h 3
l 1 2
l 3 3
l 3 2
h 1
l 1 1
l 2 2
v 3
l -1 3
h 1
v 1
l 2 1
h 5
l 2 2
l 2 4
h 5
l 6 4
v 9
l 1 1
l 1 2
h 1
l 1 1
l 2 5
v 1
h -3
l -2 -1
h -1
v 5
l 1 5
l 1 1
l 2 4
v 2
l 2 3
v 1
l 3 3
l 4 4
l 2 10
l -1 4
l -1 2
h -1
l -1 1
h -4
v 1
h -1
l -1 2
l -2 2
v 1
l -1 2
v 3
l 1 1
l 3 4
h 1
l 2 4
v 3
l 2 5
l 3 4
l 4 7
l 1 2
h 1
l 2 1
l 1 9
v 2
l 1 1
l 3 3
l 6 3
l 3 3
h 2
l 3 -2
v -3
l -3 -3
l -2 -1
l -3 -3
v -2
h 8
l 2 2
l 1 2
l 1 1
l 1 2
l 4 3
v 4
l 1 2
l 2 1
h 1
l 2 -1
l 2 -1
h 1
l 6 4
v 3
l -1 3
l -2 9
l -1 3
l -1 3
h -4
l -2 1
v 6
l 2 2
l 5 1
l 2 1
v 1
l 1 1
l -1 4
h -2
l -2 -1
l -5 1
l -3 6
l 3 4
l 2 5
l 2 1
l -3 2
l -3 5
l -1 4
l -1 5
l -4 2
h -3
l -6 -7
l -3 -4
l -2 -1
l -3 1
l -1 1
l -2 5
l -2 9
l -2 7
v 1
l -1 2
l -1 1
l -3 4
l -1 1
l -1 1
l -5 -1
l 1 -6
v -1
l 1 -1
l 1 -2
l 1 -3
l -1 -2
v -1
l -1 -1
l -1 -3
l -3 -1
h -6
l -4 5
l 5 10
l 3 3
v 3
l -1 3
l -1 1
l -1 2
v 2
l 2 2
l 3 7
l -1 2
l -1 3
l -3 1
l -5 -1
h -3
l -3 3
l 1 3
l 4 3
l 8 3
v 1
l 1 3
l -3 1
h -21
l -1 2
l -1 2
l 1 1
l 5 4
l 2 1
l 3 3
l 6 4
l -3 9
h -2
l -2 1
l -3 2
l -1 1
l -1 2
v 1
l -2 10
l -2 4
h -14
l -2 1
h -44
l -1 1
h -23
l -2 1
h -13
l 1 -1
v -1
h 1
v -1
h 1
v -1
l 1 -1
v -2
l 1 -1
v -1
h 1
v -2
h 1
v -1
h -1
l 1 -1
h 1
v -5
h 3
v -3
h 1
v -1
h 1
l 1 -1
h 2
v -1
h 1
l 3 -3
h 1
v -2
l 1 -6
h 3
l 1 -1
v -1
l 1 -1
v -1
l 1 -1
h 4
v -1
l 1 -1
l 1 -1
h 2
v -2
h -1
l 1 -1
h 1
v -2
l 1 -2
v -1
h 5
v -2
h 1
l -1 -1
v -1
h 1
v -1
h 1
h -1
h 1
v -3
l -1 -1
h -1
v -4
h 1
l -1 -2
h 1
v -1
h 1
v -5
h -1
v -1
l -4 -2
h -1
v -1
h -1
v 1
l -1 -1
l -1 -1
h -1
v -1
l -2 1
v -1
h 1
h -1
l -1 -1
v -1
h 1
v -1
l 1 -1
v -1
h -1
h 1
h -1
l -1 -6
h -2
v -2
h 1
l -1 -1
h -37
l -2 1
h -40
l -1 1
h -46
l -1 1
h -195
v 1
h -4
l -1 -1
h -200
l -2 -1
h -55
l -5 -1
h -32
l -2 -1
h -32
v -7
h 1
v -42
l 1 -14
v -23
l 1 -6
v -35
l 1 -3
v -28
l 1 -12
v -27
l 1 -11
v -32
l 1 -3
v -14
l 1 -12
v -32
l 1 -3
v -37
h 1
v -34
l 1 -5
v -21
l 1 -6
v -23
l 1 -3
v -45
l 2 -4
l 1 -2
l -1 -1
l -1 -1
h -1
l -1 1
h -4
l -2 -3
v -1
l -1 -1
h -1
v -1
l -1 1
h -1
l -1 1
h -3
l -1 1
l -2 -1
h -2
l -1 -1
l -2 -5
h -7
v -1
l -1 -1
v -1
h -1
l 2 -4
v -2
h -1
v -1
h -1
l -1 -2
h -1
l -1 -1
h -1
v -1
l -2 -1
l -1 -1
l -2 -4
v -8
l 4 -4
h -1
v -2
h -1
v -1
h -1
v 1
h -1
l -1 1
h -3
l -2 -5
l -1 -1
h -1
l -1 -1
l -1 -3
l -1 -1
l -1 -1
h -1
l -1 -1
h -1
l -1 -1
h -1
l -1 -1
l -2 -7
v -1
h -1
l -1 -1
l -1 -1
h -1
l -1 -1
l -1 -1
v -1
h -1
v -9
h 8
v -1
l 1 -1
v -10
l 7 -4
h 1
v -1
h 2
v -1
h 1
v -9
l 1 -1
v -1
h 3
v 1
l 2 1
h 1
l 1 1
h 1
v 1
h 1
l 5 -3
v -5
h -1
v -1
h -1
l -1 1
l -1 1
h -4
v -1
h -1
v -1
h -1
v -1
l 1 -2
h 1
v -1
h 6
v -6
l -3 -1
h -1
l -1 -1
h -1
v -1
l -1 -1
l -1 -1
l 1 -3
l 1 -1
v -2
l -1 -1
l -1 -1
h -1
v -1
h -1
l -6 1
v -1
h -2
l -1 1
h -1
v 3
l -4 3
h -5
l -4 -2
l -2 -1
h -1
l -1 -3
v -2
h -8
v -2
l 1 -1
v -3
l -1 -1
h -4
l -1 -1
h -1
l -1 -1
v -1
l -2 -2
l -1 -1
h -1
v -1
l -2 -1
l -1 -1
v -2
l -1 -2
l -1 -1
l -4 -3
h -7
l -1 -8
v -4
l 1 -1
l 1 -1
l 1 -1
v -2
l -1 -1
h -1
l -3 -2
h -1
v -4
l -1 -1
h -1
l -2 -1
l -1 -1
l -1 -12
v -1
l -2 -1
h -1
l -7 -2
l -1 -7
h -3
v -1
l -1 -1
h -8
l 4 -5
v -4
h -1
v -1
l -1 -1
v -1
l -3 -15
h -1
l -1 -1
h -1
v -1
l -1 -3
v -5
l 6 -1
v -6
h -1
v -1
l -1 -2
h -1
v 1
h -2
v 2
h -1
v 4
h -1
v 1
h -1
v -1
h -6
l -2 -1
v -9
l 3 -1
l 8 1
h 1
l 15 1
h 12
l 38 1
h 1
l 1 1
h 17
l 32 2
h 2
l 9 1
h 53
l 8 1
h 175
l 10 -1
h 71
l 17 -1
h 23
l 11 -1
h 14
l 10 -1
l 16 -1
h 6
l 8 -1
Z"/>
<g class="districts">
<path data-race-id="MO01" d="M818 351
l -1 2
l -1 1
l -2 1
l -3 2
l -1 3
h -1
v 1
l -3 4
l -1 1
l -1 3
l 4 6
v 1
l 1 1
v 1
l 1 2
v 4
l -1 1
v 2
l -1 1
l -1 2
l -1 1
l -2 2
h -1
l -1 2
v 1
l -1 1
h -1
v 4
l -1 1
l -1 -1
l -5 -1
l 3 -2
l -5 -4
l -1 -5
h -1
l -2 1
l -4 1
l 2 -3
l 2 -6
v -3
l -8 -1
l -2 -6
h -9
l 3 -5
l 7 3
l 2 -9
l -8 -1
h -6
l 6 -12
l 8 1
l 5 -5
v -5
l 5 -3
l 8 7
l 9 6
l 7 -2
Z"/>
<path data-race-id="MO02" d="M726 365
l 1 -1
v -4
h 7
l 2 -2
l -1 -4
l 8 6
v -1
l 5 1
l 2 -1
l 7 2
l 3 -5
l -1 -1
l 2 3
v 1
v -1
v 1
l 3 3
l 2 -2
h 6
l 8 1
l -2 9
l -7 -3
l -3 5
h 9
l 2 6
l 8 1
v 3
l -2 6
l -2 3
l 4 -1
l 2 -1
h 1
l 1 5
l 5 4
l -3 2
l 5 1
l 1 1
l -1 3
v 1
l -1 2
v 2
l -1 3
v 1
l -4 9
l -1 1
l -3 3
v 1
h -1
v 1
l -10 -9
l -6 -1
l -2 -6
l -7 -1
v -4
h -11
l -1 5
l -8 -2
v 6
l -4 2
l -1 -5
l -6 1
v -32
l -2 1
l -1 -3
l -7 -3
v -12
Z"/>
<path data-race-id="MO03" d="M435 477
l 2 -6
l -3 -3
h 7
l 2 -6
h 8
v -23
h 8
l 2 -15
l 18 1
l 11 -43
l 3 -15
l 6 2
l 2 5
l -3 4
l 11 3
l 2 3
l 7 1
l 1 -14
l 8 -8
l 2 -7
l -1 -16
l 1 -13
v -4
l 2 -7
v -7
l 3 -1
h 63
l 5 1
v -17
l 31 1
h 31
l 1 -16
h 65
l 1 1
v 3
l 2 10
l 1 2
l 1 2
l 1 1
l 1 4
l -3 4
v 1
l 1 10
l 1 1
l 1 2
v 1
l 1 2
v 2
l 1 4
v 1
l 1 1
v 2
l 2 2
l 1 1
v 2
l 2 2
l 9 3
h 2
l 2 -2
v -1
h 1
l 4 -5
l 2 -6
l 1 -1
l 1 -2
l 1 -1
l 1 -1
h 2
l 1 1
h 4
l 2 1
l 3 1
v 1
l 5 2
l 2 1
l 2 1
h 6
l 1 1
h 2
l 2 2
h 1
l 2 2
l 4 3
h 3
l 3 3
l 5 5
v 1
l -1 4
l -4 -4
l -7 2
l -9 -6
l -8 -7
l -5 3
v 5
l -5 5
l -8 -1
l -6 12
l -2 2
l -3 -3
v -1
v 1
v -1
l -2 -3
l 1 1
l -3 5
l -7 -2
l -2 1
l -5 -1
v 1
l -8 -6
l 1 4
l -2 2
h -7
v 4
l -1 1
l -5 1
v 12
l 7 3
l 1 3
l 2 -1
v 32
l 6 -1
l 1 5
l 4 -2
v -6
l 8 2
l 1 -5
h 11
v 4
l 7 1
l 2 6
l 6 1
l 10 9
l -1 3
l -1 1
v 2
h -1
l -1 2
v 10
l 1 5
l 2 8
l -5 -1
l -4 1
l -1 -5
h -5
v -9
l -5 -2
l 2 -3
h -23
l -1 -3
l -3 -3
l -7 -2
l -5 2
l -4 28
h -43
l -2 1
h -39
v -1
h -24
v 11
h -13
v 19
l -17 -1
l -21 1
l -10 2
l -1 5
h -31
l -32 -1
v 7
h -36
l -7 -2
l -12 -1
l -1 -6
l -4 2
v -8
l 2 -4
l 7 -1
Z"/>
<path data-race-id="MO04" d="M173 556
v -23
l 1 -3
v -14
l 1 -12
v -32
l 1 -3
v -37
h 1
v -34
l 1 -5
v -21
l 1 -6
v -22
l 32 2
l 15 2
h 22
l 2 -15
l 39 2
v -5
l 48 2
v -3
l 37 3
l 26 1
l 1 -9
l 16 -16
l 3 -7
l -5 -1
l 5 -5
l 1 -6
l 9 -11
l 7 -21
l 13 4
l 1 -20
v -33
h 37
l 19 1
v 26
h -1
v 22
h 83
v 3
h -2
v 16
h -6
l 1 5
l 2 4
v 4
l 4 3
h 14
v 17
l -5 -1
h -63
l -3 1
v 7
l -2 7
v 4
l -1 13
l 1 16
l -2 7
l -8 8
l -1 14
l -7 -1
l -2 -3
l -11 -3
l 3 -4
l -2 -5
l -6 -2
l -3 15
l -11 43
l -18 -1
l -2 15
h -8
v 23
h -8
l -2 6
h -7
l 3 3
l -2 6
l 6 9
l -7 1
l -2 4
v 8
l 4 -2
l 1 6
l 12 1
l 7 2
h 36
v -7
l 32 1
h 24
v 48
l -1 1
v 26
h -32
l -1 23
h -63
v 39
h 1
l -1 36
h -19
v -6
h -3
v -7
l -6 3
l -3 -7
v -15
l -15 5
l -1 -3
l -8 -1
l -2 -6
l 1 -27
h -16
l 1 -6
v -30
h 1
v -22
h -2
v -13
h -23
l -15 -2
h -17
v -3
h -9
v 16
h 3
l -1 31
l -1 2
v 24
h -1
v 26
l -62 -2
h -4
v -11
h -7
l -24 -1
l -22 -1
l -11 -2
h -14
l 1 -12
v -27
l 1 -11
v -8
Z"/>
<path data-race-id="MO05" d="M180 318
v -23
l 6 -1
h -3
l 2 -8
l -2 -13
h 9
l 3 3
l 3 2
l 1 1
l 4 4
l 6 -2
l 7 6
l 3 -3
l 1 5
l 6 9
l -7 7
l -1 4
l -5 5
l 2 5
l -1 16
l 14 2
l -1 -21
h -4
v -5
l 20 4
h 7
l 2 -24
l -6 -6
h -5
l 1 -7
l -5 1
v -22
l 1 -1
v -35
l 13 1
h 45
l 5 1
v 36
l -1 21
v 1
v -1
l 8 1
l 4 -5
l 13 -2
l 4 5
l 10 -1
l -1 -10
l 2 -2
l 5 4
h 6
v 8
l 11 -5
l -3 -6
l 2 -5
h 10
v -4
l 6 1
l 4 -7
l -1 -7
l 4 -1
l 5 7
l 4 -2
l 4 2
v 6
l 4 5
h 13
v 6
l 6 5
l 1 6
l 9 -1
l -9 11
l -1 6
l -5 5
l 5 1
l -3 7
l -16 16
l -1 9
l -26 -1
l -37 -3
v 3
l -48 -2
v 5
l -39 -2
l -2 15
h -22
l -15 -2
l -32 -2
v -1
l 1 -3
v -21
Z"/>
<path data-race-id="MO06" d="M28 22
l 8 1
h 1
l 15 1
h 12
l 38 1
h 1
l 1 1
h 17
l 32 2
h 2
l 9 1
h 53
l 8 1
h 175
l 10 -1
h 71
l 17 -1
h 23
l 11 -1
h 14
l 10 -1
l 16 -1
h 6
l 8 -1
l 1 3
l 5 3
v 1
l -1 2
v 2
l 11 4
v 1
h -1
v 4
l 5 3
v 4
h 1
l 1 1
h 1
l 2 1
h 1
l 1 -1
l 2 1
l -1 2
l -1 1
v 1
l 2 1
l -1 2
v 1
l 1 1
h 5
v 2
l 4 3
h -1
h 3
v -1
l 1 1
h 2
l -1 1
l -1 1
l -1 1
l -1 2
l -1 2
l -1 1
v 3
l -3 6
l -1 2
v 1
l 1 1
v 1
l -1 2
l -1 1
v 4
l -1 2
l 1 2
l -1 1
v 13
l 1 2
v 4
l 1 1
v 2
l 1 3
v 4
l 1 2
v 1
l 1 2
l 1 2
v 1
h 1
v 1
l 1 1
l 1 3
v 2
h 1
v 1
h 1
v 1
l 1 1
v 1
h 1
l -1 3
l -3 4
v 4
l 1 4
l 1 1
l 1 1
l 4 3
l 1 1
l 3 1
l 2 5
l -1 1
v 9
l 3 3
l 3 3
l 2 2
l 1 1
l 2 2
l 4 2
v 1
l 2 2
v 1
l 1 1
l 2 1
l 3 2
h 1
l 2 1
v 1
l 1 1
v 3
l 1 2
v 1
l 2 3
h 6
l 3 3
l 2 2
l 1 3
l 1 1
l 1 4
v 1
l 2 2
l 2 3
l 4 3
h 2
l 2 1
l 1 1
h 1
l 2 1
l 2 1
v 1
l 3 2
l 6 5
l 2 1
l 4 3
l 1 2
l 2 1
l 7 8
l 2 1
l 2 3
v 1
l 1 1
v 3
h -65
l -1 16
h -31
l -31 -1
h -14
l -4 -3
v -4
l -2 -4
l -1 -5
h 6
v -16
h 2
v -3
h -83
v -22
h 1
v -26
l -19 -1
h -37
v 33
l -1 20
l -13 -4
l -7 21
l -9 1
l -1 -6
l -6 -5
v -6
h -13
l -4 -5
v -6
l -4 -2
l -4 2
l -5 -7
l -4 1
l 1 7
l -4 7
l -6 -1
v 4
h -10
l -2 5
l 3 6
l -11 5
v -8
h -6
l -5 -4
l -2 2
l 1 10
l -10 1
l -4 -5
l -13 2
l -4 5
l -8 -1
v 1
v -1
l 1 -21
v -36
l -5 -1
h -45
l -13 -1
v 35
l -1 1
v 22
l 5 -1
l -1 7
h 5
l 6 6
l -2 24
h -7
l -20 -4
v 5
h 4
l 1 21
l -14 -2
l 1 -16
l -2 -5
l 5 -5
l 1 -4
l 7 -7
l -6 -9
l -1 -5
l -3 3
l -7 -6
l -6 2
l -4 -4
l -1 -1
l -3 -2
l -3 -3
h -9
l 2 13
l -2 8
h 3
l -6 1
l 2 -4
l 1 -2
l -1 -1
l -1 -1
h -1
l -1 1
h -4
l -2 -3
v -1
l -1 -1
h -1
v -1
l -1 1
h -1
l -1 1
h -3
l -1 1
l -2 -1
h -2
l -1 -1
l -2 -5
h -7
v -1
l -1 -1
v -1
h -1
l 2 -4
v -2
h -1
v -1
h -1
l -1 -2
h -1
l -1 -1
h -1
v -1
l -2 -1
l -1 -1
l -2 -4
v -8
l 4 -4
h -1
v -2
h -1
v -1
h -1
v 1
h -1
l -1 1
h -3
l -2 -5
l -1 -1
h -1
l -1 -1
l -1 -3
l -1 -1
l -1 -1
h -1
l -1 -1
h -1
l -1 -1
h -1
l -1 -1
l -2 -7
v -1
h -1
l -1 -1
l -1 -1
h -1
l -1 -1
l -1 -1
v -1
h -1
v -9
h 8
v -1
l 1 -1
v -10
l 7 -4
h 1
v -1
h 2
v -1
h 1
v -9
l 1 -1
v -1
h 3
v 1
l 2 1
h 1
l 1 1
h 1
v 1
h 1
l 5 -3
v -5
h -1
v -1
h -1
l -1 1
l -1 1
h -4
v -1
h -1
v -1
h -1
v -1
l 1 -2
h 1
v -1
h 6
v -6
l -3 -1
h -1
l -1 -1
h -1
v -1
l -1 -1
l -1 -1
l 1 -3
l 1 -1
v -2
l -1 -1
l -1 -1
h -1
v -1
h -1
l -6 1
v -1
h -2
l -1 1
h -1
v 3
l -4 3
h -5
l -4 -2
l -2 -1
h -1
l -1 -3
v -2
h -8
v -2
l 1 -1
v -3
l -1 -1
h -4
l -1 -1
h -1
l -1 -1
v -1
l -2 -2
l -1 -1
h -1
v -1
l -2 -1
l -1 -1
v -2
l -1 -2
l -1 -1
l -4 -3
h -7
l -1 -8
v -4
l 1 -1
l 1 -1
l 1 -1
v -2
l -1 -1
h -1
l -3 -2
h -1
v -4
l -1 -1
h -1
l -2 -1
l -1 -1
l -1 -12
v -1
l -2 -1
h -1
l -7 -2
l -1 -7
h -3
v -1
l -1 -1
h -8
l 4 -5
v -4
h -1
v -1
l -1 -1
v -1
l -3 -15
h -1
l -1 -1
h -1
v -1
l -1 -3
v -5
l 6 -1
v -6
h -1
v -1
l -1 -2
h -1
v 1
h -2
v 2
h -1
v 4
h -1
v 1
h -1
v -1
h -6
l -2 -1
v -9
l 3 -1
Z"/>
<path data-race-id="MO07" d="M169 701
v -14
l 1 -6
v -35
l 1 -3
v -28
h 14
l 11 2
l 22 1
l 24 1
h 7
v 11
h 4
l 62 2
v -26
h 1
v -24
l 1 -2
l 1 -31
h -3
v -16
h 9
v 3
h 17
l 15 2
h 23
v 13
h 2
v 22
h -1
v 30
l -1 6
h 16
l -1 27
l 2 6
l 8 1
l 1 3
l 15 -5
v 15
l 3 7
l 6 -3
v 7
h 3
v 6
l -12 -1
l -1 9
v 36
l -1 3
l 22 1
l -1 5
v 42
l -1 8
h -143
l -2 -1
h -55
l -5 -1
h -32
l -2 -1
h -32
v -7
h 1
v -42
l 1 -14
v -9
Z"/>
<path data-race-id="MO08" d="M418 720
l 1 -3
v -36
l 1 -9
l 12 1
h 19
l 1 -36
h -1
v -39
h 63
l 1 -23
h 32
v -26
l 1 -1
v -48
h 7
l 1 -5
l 10 -2
l 21 -1
l 17 1
v -19
h 13
v -11
h 24
v 1
h 39
l 2 -1
h 43
l 4 -28
l 5 -2
l 7 2
l 3 3
l 1 3
h 23
l -2 3
l 5 2
v 9
h 5
l 1 5
l 4 -1
l 5 1
l 5 6
l 3 1
l 3 2
l 4 6
v 1
l 1 1
v 2
h 2
l 1 1
l 3 3
l 1 1
l 10 4
v 3
l 9 4
l 3 2
l 1 1
l 3 2
l 1 1
l 1 2
l 2 2
h 3
l 2 -1
l 2 4
l -4 3
v 1
l 1 4
l 2 2
v 1
l 3 2
l 2 1
h 3
l 1 -1
l 2 -2
l 2 -1
v -2
l 2 -1
h 2
l 5 3
l 1 1
v 3
l 1 1
h 1
l 2 1
l 2 1
h 3
l 1 2
l 3 3
l 3 2
h 1
l 1 1
l 2 2
v 3
l -1 3
h 1
v 1
l 2 1
h 5
l 2 2
l 2 4
h 5
l 6 4
v 9
l 1 1
l 1 2
h 1
l 1 1
l 2 5
v 1
h -3
l -2 -1
h -1
v 5
l 1 5
l 1 1
l 2 4
v 2
l 2 3
v 1
l 3 3
l 4 4
l 2 10
l -1 4
l -1 2
h -1
l -1 1
h -4
v 1
h -1
l -1 2
l -2 2
v 1
l -1 2
v 3
l 1 1
l 3 4
h 1
l 2 4
v 3
l 2 5
l 3 4
l 4 7
l 1 2
h 1
l 2 1
l 1 9
v 2
l 1 1
l 3 3
l 6 3
l 3 3
h 2
l 3 -2
v -3
l -3 -3
l -2 -1
l -3 -3
v -2
h 8
l 2 2
l 1 2
l 1 1
l 1 2
l 4 3
v 4
l 1 2
l 2 1
h 1
l 2 -1
l 2 -1
h 1
l 6 4
v 3
l -1 3
l -2 9
l -1 3
l -1 3
h -4
l -2 1
v 6
l 2 2
l 5 1
l 2 1
v 1
l 1 1
l -1 4
h -2
l -2 -1
l -5 1
l -3 6
l 3 4
l 2 5
l 2 1
l -3 2
l -3 5
l -1 4
l -1 5
l -4 2
h -3
l -6 -7
l -3 -4
l -1 -1
h -1
l -3 1
l -1 1
l -2 5
l -2 9
l -2 7
v 1
l -1 2
l -1 1
l -3 4
l -1 1
l -1 1
l -5 -1
l 1 -6
v -1
l 1 -1
l 1 -2
l 1 -3
l -1 -2
v -1
l -1 -1
l -1 -3
l -3 -1
h -6
l -4 6
l 5 9
l 3 3
v 3
l -1 3
l -1 1
l -1 2
v 2
l 2 2
l 3 7
l -1 2
l -1 3
l -3 1
l -5 -1
h -3
l -3 3
l 1 3
l 4 3
l 8 3
v 1
l 1 3
l -3 1
h -21
l -1 2
l -1 2
l 1 1
l 5 4
l 2 1
l 3 3
l 6 4
l -3 9
h -2
l -2 1
l -3 2
l -1 1
l -1 2
v 1
l -2 10
l -2 4
h -14
l -2 1
h -44
l -1 1
h -23
l -2 1
h -13
l 1 -1
v -1
h 1
v -1
h 1
v -1
l 1 -1
v -2
l 1 -1
v -1
h 1
v -2
h 1
v -1
h -1
l 1 -1
h 1
v -5
h 3
v -3
h 1
v -1
h 1
l 1 -1
h 2
v -1
h 1
l 3 -3
h 1
v -2
l 1 -6
h 3
l 1 -1
v -1
l 1 -1
v -1
l 1 -1
h 4
v -1
l 1 -1
l 1 -1
h 2
v -2
h -1
l 1 -1
h 1
v -2
l 1 -2
v -1
h 5
v -2
h 1
l -1 -1
v -1
h 1
v -1
h 1
h -1
h 1
v -3
l -1 -1
h -1
v -4
h 1
l -1 -2
h 1
v -1
h 1
v -5
h -1
v -1
l -4 -2
h -1
v -1
h -1
v 1
l -1 -1
l -1 -1
h -1
v -1
l -2 1
v -1
h 1
h -1
l -1 -1
v -1
h 1
v -1
l 1 -1
v -1
h -1
h 1
h -1
l -1 -6
h -2
v -2
h 1
l -1 -1
h -37
l -2 1
h -40
l -1 1
h -46
l -1 1
h -195
v 1
h -4
l -1 -1
h -57
l 1 -8
v -42
l 1 -5
Z"/>
</g>
  <path class="districts-mesh" d="M786 460
l -5 -1
l -4 1
l -1 -5
h -5
v -9
l -5 -2
l 2 -3
h -23
l -1 -3
l -3 -3
l -7 -2
l -5 2
l -4 28
h -43
l -2 1
h -39
v -1
h -24
v 11
h -13
v 19
l -17 -1
l -21 1
l -10 2
l -1 5
h -31
l -32 -1
v 7
h -36
l -7 -2
l -12 -1
l -1 -6
l -4 2
v -8
l 2 -4
l 7 -1
l -6 -9
l 2 -6
l -3 -3
h 7
l 2 -6
h 8
v -23
h 8
l 2 -15
l 18 1
l 11 -43
l 3 -15
l 6 2
l 2 5
l -3 4
l 11 3
l 2 3
l 7 1
l 1 -14
l 8 -8
l 2 -7
l -1 -16
l 1 -13
v -4
l 2 -7
v -7
l 3 -1
h 63
l 5 1
v -17
l 31 1
h 31
l 1 -16
h 65
M799 402
l -1 -1
l -5 -1
l 3 -2
l -5 -4
l -1 -5
h -1
l -2 1
l -4 1
l 2 -3
l 2 -6
v -3
l -8 -1
l -2 -6
h -9
l 3 -5
l 7 3
l 2 -9
l -8 -1
h -6
l 6 -12
l 8 1
l 5 -5
v -5
l 5 -3
l 8 7
l 9 6
l 7 -2
l 4 4
M787 429
l -10 -9
l -6 -1
l -2 -6
l -7 -1
v -4
h -11
l -1 5
l -8 -2
v 6
l -4 2
l -1 -5
l -6 1
v -32
l -2 1
l -1 -3
l -7 -3
v -12
l 5 -1
l 1 -1
v -4
h 7
l 2 -2
l -1 -4
l 8 6
v -1
l 5 1
l 2 -1
l 7 2
l 3 -5
l -1 -1
l 2 3
v 1
v -1
M179 344
l 32 2
l 15 2
h 22
l 2 -15
l 39 2
v -5
l 48 2
v -3
l 37 3
l 26 1
l 1 -9
l 16 -16
l 3 -7
l -5 -1
l 5 -5
l 1 -6
l 9 -11
l 7 -21
l 13 4
l 1 -20
v -33
h 37
l 19 1
v 26
h -1
v 22
h 83
v 3
h -2
v 16
h -6
l 1 5
l 2 4
v 4
l 4 3
h 14
M761 359
l 3 3
l 2 -2
M548 500
v 48
l -1 1
v 26
h -32
l -1 23
h -63
v 39
h 1
l -1 36
h -19
v -6
h -3
v -7
l -6 3
l -3 -7
v -15
l -15 5
l -1 -3
l -8 -1
l -2 -6
l 1 -27
h -16
l 1 -6
v -30
h 1
v -22
h -2
v -13
h -23
l -15 -2
h -17
v -3
h -9
v 16
h 3
l -1 31
l -1 2
v 24
h -1
v 26
l -62 -2
h -4
v -11
h -7
l -24 -1
l -22 -1
l -11 -2
h -14
M180 295
l 6 -1
h -3
l 2 -8
l -2 -13
h 9
l 3 3
l 3 2
l 1 1
l 4 4
l 6 -2
l 7 6
l 3 -3
l 1 5
l 6 9
l -7 7
l -1 4
l -5 5
l 2 5
l -1 16
l 14 2
l -1 -21
h -4
v -5
l 20 4
h 7
l 2 -24
l -6 -6
h -5
l 1 -7
l -5 1
v -22
l 1 -1
v -35
l 13 1
h 45
l 5 1
v 36
l -1 21
v 1
M300 280
l 8 1
l 4 -5
l 13 -2
l 4 5
l 10 -1
l -1 -10
l 2 -2
l 5 4
h 6
v 8
l 11 -5
l -3 -6
l 2 -5
h 10
v -4
l 6 1
l 4 -7
l -1 -7
l 4 -1
l 5 7
l 4 -2
l 4 2
v 6
l 4 5
h 13
v 6
l 6 5
l 1 6
l 9 -1
M432 673
l -12 -1
l -1 9
v 36
l -1 3
l 22 1
l -1 5
v 42
l -1 8"/>
</svg>