<svg version="1.1" xmlns="http://www.w3.org/2000/svg" width="1000" height="888" viewBox="0 0 1000 888"><path data-race-id="MO01" d="M818,351l-1,2l-1,1l-2,1l-3,2l-1,3h-1v1l-3,4l-1,1l-1,3l4,6v1l1,1v1l1,2v4l-1,1v2l-1,1l-1,2l-1,1l-2,2h-1l-1,2v1l-1,1h-1v4l-1,1l-1,-1l-5,-1l3,-2l-5,-4l-1,-5h-1l-2,1l-4,1l2,-3l2,-6v-3l-8,-1l-2,-6h-9l3,-5l7,3l2,-9l-8,-1h-6l6,-12l8,1l5,-5v-5l5,-3l8,7l9,6l7,-2Z"/><path data-race-id="MO02" d="M726,365l1,-1v-4h7l2,-2l-1,-4l8,6v-1l5,1l2,-1l7,2l3,-5l-1,-1l2,3v1v-1v1l3,3l2,-2h6l8,1l-2,9l-7,-3l-3,5h9l2,6l8,1v3l-2,6l-2,3l4,-1l2,-1h1l1,5l5,4l-3,2l5,1l1,1l-1,3v1l-1,2v2l-1,3v1l-4,9l-1,1l-3,3v1h-1v1l-10,-9l-6,-1l-2,-6l-7,-1v-4h-11l-1,5l-8,-2v6l-4,2l-1,-5l-6,1v-32l-2,1l-1,-3l-7,-3v-12Z"/><path data-race-id="MO03" d="M435,477l2,-6l-3,-3h7l2,-6h8v-23h8l2,-15l18,1l11,-43l3,-15l6,2l2,5l-3,4l11,3l2,3l7,1l1,-14l8,-8l2,-7l-1,-16l1,-13v-4l2,-7v-7l3,-1h63l5,1v-17l31,1h31l1,-16h65l1,1v3l2,10l1,2l1,2l1,1l1,4l-3,4v1l1,10l1,1l1,2v1l1,2v2l1,4v1l1,1v2l2,2l1,1v2l2,2l9,3h2l2,-2v-1h1l4,-5l2,-6l1,-1l1,-2l1,-1l1,-1h2l1,1h4l2,1l3,1v1l5,2l2,1l2,1h6l1,1h2l2,2h1l2,2l4,3h3l3,3l5,5v1l-1,4l-4,-4l-7,2l-9,-6l-8,-7l-5,3v5l-5,5l-8,-1l-6,12l-2,2l-3,-3v-1v1v-1l-2,-3l1,1l-3,5l-7,-2l-2,1l-5,-1v1l-8,-6l1,4l-2,2h-7v4l-1,1l-5,1v12l7,3l1,3l2,-1v32l6,-1l1,5l4,-2v-6l8,2l1,-5h11v4l7,1l2,6l6,1l10,9l-1,3l-1,1v2h-1l-1,2v10l1,5l2,8l-5,-1l-4,1l-1,-5h-5v-9l-5,-2l2,-3h-23l-1,-3l-3,-3l-7,-2l-5,2l-4,28h-43l-2,1h-39v-1h-24v11h-13v19l-17,-1l-21,1l-10,2l-1,5h-31l-32,-1v7h-36l-7,-2l-12,-1l-1,-6l-4,2v-8l2,-4l7,-1Z"/><path data-race-id="MO04" d="M173,556v-23l1,-3v-14l1,-12v-32l1,-3v-37h1v-34l1,-5v-21l1,-6v-22l32,2l15,2h22l2,-15l39,2v-5l48,2v-3l37,3l26,1l1,-9l16,-16l3,-7l-5,-1l5,-5l1,-6l9,-11l7,-21l13,4l1,-20v-33h37l19,1v26h-1v22h83v3h-2v16h-6l1,5l2,4v4l4,3h14v17l-5,-1h-63l-3,1v7l-2,7v4l-1,13l1,16l-2,7l-8,8l-1,14l-7,-1l-2,-3l-11,-3l3,-4l-2,-5l-6,-2l-3,15l-11,43l-18,-1l-2,15h-8v23h-8l-2,6h-7l3,3l-2,6l6,9l-7,1l-2,4v8l4,-2l1,6l12,1l7,2h36v-7l32,1h24v48l-1,1v26h-32l-1,23h-63v39h1l-1,36h-19v-6h-3v-7l-6,3l-3,-7v-15l-15,5l-1,-3l-8,-1l-2,-6l1,-27h-16l1,-6v-30h1v-22h-2v-13h-23l-15,-2h-17v-3h-9v16h3l-1,31l-1,2v24h-1v26l-62,-2h-4v-11h-7l-24,-1l-22,-1l-11,-2h-14l1,-12v-27l1,-11v-8Z"/><path data-race-id="MO05" d="M180,318v-23l6,-1h-3l2,-8l-2,-13h9l3,3l3,2l1,1l4,4l6,-2l7,6l3,-3l1,5l6,9l-7,7l-1,4l-5,5l2,5l-1,16l14,2l-1,-21h-4v-5l20,4h7l2,-24l-6,-6h-5l1,-7l-5,1v-22l1,-1v-35l13,1h45l5,1v36l-1,21v1v-1l8,1l4,-5l13,-2l4,5l10,-1l-1,-10l2,-2l5,4h6v8l11,-5l-3,-6l2,-5h10v-4l6,1l4,-7l-1,-7l4,-1l5,7l4,-2l4,2v6l4,5h13v6l6,5l1,6l9,-1l-9,11l-1,6l-5,5l5,1l-3,7l-16,16l-1,9l-26,-1l-37,-3v3l-48,-2v5l-39,-2l-2,15h-22l-15,-2l-32,-2v-1l1,-3v-21Z"/><path data-race-id="MO06" d="M28,22l8,1h1l15,1h12l38,1h1l1,1h17l32,2h2l9,1h53l8,1h175l10,-1h71l17,-1h23l11,-1h14l10,-1l16,-1h6l8,-1l1,3l5,3v1l-1,2v2l11,4v1h-1v4l5,3v4h1l1,1h1l2,1h1l1,-1l2,1l-1,2l-1,1v1l2,1l-1,2v1l1,1h5v2l4,3h-1h3v-1l1,1h2l-1,1l-1,1l-1,1l-1,2l-1,2l-1,1v3l-3,6l-1,2v1l1,1v1l-1,2l-1,1v4l-1,2l1,2l-1,1v13l1,2v4l1,1v2l1,3v4l1,2v1l1,2l1,2v1h1v1l1,1l1,3v2h1v1h1v1l1,1v1h1l-1,3l-3,4v4l1,4l1,1l1,1l4,3l1,1l3,1l2,5l-1,1v9l3,3l3,3l2,2l1,1l2,2l4,2v1l2,2v1l1,1l2,1l3,2h1l2,1v1l1,1v3l1,2v1l2,3h6l3,3l2,2l1,3l1,1l1,4v1l2,2l2,3l4,3h2l2,1l1,1h1l2,1l2,1v1l3,2l6,5l2,1l4,3l1,2l2,1l7,8l2,1l2,3v1l1,1v3h-65l-1,16h-31l-31,-1h-14l-4,-3v-4l-2,-4l-1,-5h6v-16h2v-3h-83v-22h1v-26l-19,-1h-37v33l-1,20l-13,-4l-7,21l-9,1l-1,-6l-6,-5v-6h-13l-4,-5v-6l-4,-2l-4,2l-5,-7l-4,1l1,7l-4,7l-6,-1v4h-10l-2,5l3,6l-11,5v-8h-6l-5,-4l-2,2l1,10l-10,1l-4,-5l-13,2l-4,5l-8,-1v1v-1l1,-21v-36l-5,-1h-45l-13,-1v35l-1,1v22l5,-1l-1,7h5l6,6l-2,24h-7l-20,-4v5h4l1,21l-14,-2l1,-16l-2,-5l5,-5l1,-4l7,-7l-6,-9l-1,-5l-3,3l-7,-6l-6,2l-4,-4l-1,-1l-3,-2l-3,-3h-9l2,13l-2,8h3l-6,1l2,-4l1,-2l-1,-1l-1,-1h-1l-1,1h-4l-2,-3v-1l-1,-1h-1v-1l-1,1h-1l-1,1h-3l-1,1l-2,-1h-2l-1,-1l-2,-5h-7v-1l-1,-1v-1h-1l2,-4v-2h-1v-1h-1l-1,-2h-1l-1,-1h-1v-1l-2,-1l-1,-1l-2,-4v-8l4,-4h-1v-2h-1v-1h-1v1h-1l-1,1h-3l-2,-5l-1,-1h-1l-1,-1l-1,-3l-1,-1l-1,-1h-1l-1,-1h-1l-1,-1h-1l-1,-1l-2,-7v-1h-1l-1,-1l-1,-1h-1l-1,-1l-1,-1v-1h-1v-9h8v-1l1,-1v-10l7,-4h1v-1h2v-1h1v-9l1,-1v-1h3v1l2,1h1l1,1h1v1h1l5,-3v-5h-1v-1h-1l-1,1l-1,1h-4v-1h-1v-1h-1v-1l1,-2h1v-1h6v-6l-3,-1h-1l-1,-1h-1v-1l-1,-1l-1,-1l1,-3l1,-1v-2l-1,-1l-1,-1h-1v-1h-1l-6,1v-1h-2l-1,1h-1v3l-4,3h-5l-4,-2l-2,-1h-1l-1,-3v-2h-8v-2l1,-1v-3l-1,-1h-4l-1,-1h-1l-1,-1v-1l-2,-2l-1,-1h-1v-1l-2,-1l-1,-1v-2l-1,-2l-1,-1l-4,-3h-7l-1,-8v-4l1,-1l1,-1l1,-1v-2l-1,-1h-1l-3,-2h-1v-4l-1,-1h-1l-2,-1l-1,-1l-1,-12v-1l-2,-1h-1l-7,-2l-1,-7h-3v-1l-1,-1h-8l4,-5v-4h-1v-1l-1,-1v-1l-3,-15h-1l-1,-1h-1v-1l-1,-3v-5l6,-1v-6h-1v-1l-1,-2h-1v1h-2v2h-1v4h-1v1h-1v-1h-6l-2,-1v-9l3,-1Z"/><path data-race-id="MO07" d="M169,701v-14l1,-6v-35l1,-3v-28h14l11,2l22,1l24,1h7v11h4l62,2v-26h1v-24l1,-2l1,-31h-3v-16h9v3h17l15,2h23v13h2v22h-1v30l-1,6h16l-1,27l2,6l8,1l1,3l15,-5v15l3,7l6,-3v7h3v6l-12,-1l-1,9v36l-1,3l22,1l-1,5v42l-1,8h-143l-2,-1h-55l-5,-1h-32l-2,-1h-32v-7h1v-42l1,-14v-9Z"/><path data-race-id="MO08" d="M418,720l1,-3v-36l1,-9l12,1h19l1,-36h-1v-39h63l1,-23h32v-26l1,-1v-48h7l1,-5l10,-2l21,-1l17,1v-19h13v-11h24v1h39l2,-1h43l4,-28l5,-2l7,2l3,3l1,3h23l-2,3l5,2v9h5l1,5l4,-1l5,1l5,6l3,1l3,2l4,6v1l1,1v2h2l1,1l3,3l1,1l10,4v3l9,4l3,2l1,1l3,2l1,1l1,2l2,2h3l2,-1l2,4l-4,3v1l1,4l2,2v1l3,2l2,1h3l1,-1l2,-2l2,-1v-2l2,-1h2l5,3l1,1v3l1,1h1l2,1l2,1h3l1,2l3,3l3,2h1l1,1l2,2v3l-1,3h1v1l2,1h5l2,2l2,4h5l6,4v9l1,1l1,2h1l1,1l2,5v1h-3l-2,-1h-1v5l1,5l1,1l2,4v2l2,3v1l3,3l4,4l2,10l-1,4l-1,2h-1l-1,1h-4v1h-1l-1,2l-2,2v1l-1,2v3l1,1l3,4h1l2,4v3l2,5l3,4l4,7l1,2h1l2,1l1,9v2l1,1l3,3l6,3l3,3h2l3,-2v-3l-3,-3l-2,-1l-3,-3v-2h8l2,2l1,2l1,1l1,2l4,3v4l1,2l2,1h1l2,-1l2,-1h1l6,4v3l-1,3l-2,9l-1,3l-1,3h-4l-2,1v6l2,2l5,1l2,1v1l1,1l-1,4h-2l-2,-1l-5,1l-3,6l3,4l2,5l2,1l-3,2l-3,5l-1,4l-1,5l-4,2h-3l-6,-7l-3,-4l-1,-1h-1l-3,1l-1,1l-2,5l-2,9l-2,7v1l-1,2l-1,1l-3,4l-1,1l-1,1l-5,-1l1,-6v-1l1,-1l1,-2l1,-3l-1,-2v-1l-1,-1l-1,-3l-3,-1h-6l-4,6l5,9l3,3v3l-1,3l-1,1l-1,2v2l2,2l3,7l-1,2l-1,3l-3,1l-5,-1h-3l-3,3l1,3l4,3l8,3v1l1,3l-3,1h-21l-1,2l-1,2l1,1l5,4l2,1l3,3l6,4l-3,9h-2l-2,1l-3,2l-1,1l-1,2v1l-2,10l-2,4h-14l-2,1h-44l-1,1h-23l-2,1h-13l1,-1v-1h1v-1h1v-1l1,-1v-2l1,-1v-1h1v-2h1v-1h-1l1,-1h1v-5h3v-3h1v-1h1l1,-1h2v-1h1l3,-3h1v-2l1,-6h3l1,-1v-1l1,-1v-1l1,-1h4v-1l1,-1l1,-1h2v-2h-1l1,-1h1v-2l1,-2v-1h5v-2h1l-1,-1v-1h1v-1h1h-1h1v-3l-1,-1h-1v-4h1l-1,-2h1v-1h1v-5h-1v-1l-4,-2h-1v-1h-1v1l-1,-1l-1,-1h-1v-1l-2,1v-1h1h-1l-1,-1v-1h1v-1l1,-1v-1h-1h1h-1l-1,-6h-2v-2h1l-1,-1h-37l-2,1h-40l-1,1h-46l-1,1h-195v1h-4l-1,-1h-57l1,-8v-42l1,-5Z"/>  <path class="mesh" d="M786,460l-5,-1l-4,1l-1,-5h-5v-9l-5,-2l2,-3h-23l-1,-3l-3,-3l-7,-2l-5,2l-4,28h-43l-2,1h-39v-1h-24v11h-13v19l-17,-1l-21,1l-10,2l-1,5h-31l-32,-1v7h-36l-7,-2l-12,-1l-1,-6l-4,2v-8l2,-4l7,-1l-6,-9l2,-6l-3,-3h7l2,-6h8v-23h8l2,-15l18,1l11,-43l3,-15l6,2l2,5l-3,4l11,3l2,3l7,1l1,-14l8,-8l2,-7l-1,-16l1,-13v-4l2,-7v-7l3,-1h63l5,1v-17l31,1h31l1,-16h65M799,402l-1,-1l-5,-1l3,-2l-5,-4l-1,-5h-1l-2,1l-4,1l2,-3l2,-6v-3l-8,-1l-2,-6h-9l3,-5l7,3l2,-9l-8,-1h-6l6,-12l8,1l5,-5v-5l5,-3l8,7l9,6l7,-2l4,4M787,429l-10,-9l-6,-1l-2,-6l-7,-1v-4h-11l-1,5l-8,-2v6l-4,2l-1,-5l-6,1v-32l-2,1l-1,-3l-7,-3v-12l5,-1l1,-1v-4h7l2,-2l-1,-4l8,6v-1l5,1l2,-1l7,2l3,-5l-1,-1l2,3v1v-1M179,344l32,2l15,2h22l2,-15l39,2v-5l48,2v-3l37,3l26,1l1,-9l16,-16l3,-7l-5,-1l5,-5l1,-6l9,-11l7,-21l13,4l1,-20v-33h37l19,1v26h-1v22h83v3h-2v16h-6l1,5l2,4v4l4,3h14M761,359l3,3l2,-2M548,500v48l-1,1v26h-32l-1,23h-63v39h1l-1,36h-19v-6h-3v-7l-6,3l-3,-7v-15l-15,5l-1,-3l-8,-1l-2,-6l1,-27h-16l1,-6v-30h1v-22h-2v-13h-23l-15,-2h-17v-3h-9v16h3l-1,31l-1,2v24h-1v26l-62,-2h-4v-11h-7l-24,-1l-22,-1l-11,-2h-14M180,295l6,-1h-3l2,-8l-2,-13h9l3,3l3,2l1,1l4,4l6,-2l7,6l3,-3l1,5l6,9l-7,7l-1,4l-5,5l2,5l-1,16l14,2l-1,-21h-4v-5l20,4h7l2,-24l-6,-6h-5l1,-7l-5,1v-22l1,-1v-35l13,1h45l5,1v36l-1,21v1M300,280l8,1l4,-5l13,-2l4,5l10,-1l-1,-10l2,-2l5,4h6v8l11,-5l-3,-6l2,-5h10v-4l6,1l4,-7l-1,-7l4,-1l5,7l4,-2l4,2v6l4,5h13v6l6,5l1,6l9,-1M432,673l-12,-1l-1,9v36l-1,3l22,1l-1,5v42l-1,8"/></svg>