<svg version="1.1" xmlns="http://www.w3.org/2000/svg" width="617" height="1000" viewBox="0 0 617 1000"><path data-race-id="MS01" d="M244,50l9,-5l2,-6l-2,-5l-7,-4l-2,-4h54l32,1l9,-1h139l6,-1h100l1,1l1,2l1,1l2,4l1,3l4,5l4,3h3v4l-1,5v9l-1,1v13l-1,2v4l-1,1v10h-1v9l-1,2v11l-1,3v1l-1,2v10l-1,5v12l-1,2l-1,7v11l-1,3v9l-1,3v9l-1,3v5l-1,3v12l-1,1v8l-1,4v3l-1,4v10l-1,1v11l-1,1v5h-1v13l-1,1v12l-1,3v12h-1v4l-1,4v12h-1v13l-2,8v12l-1,2v1l-7,1h-53v-43l-1,-11l-9,1l-7,-1l-8,4l-7,8l-28,-1l-9,-4v17h20v16l6,2v5h-6l1,8h25v52l1,18h-17l-3,2l-14,-2h-50v-69h-23v-29h5l1,1l1,-1l3,-4h2v-1h-20v-52l-1,-29v-49l-1,-8l1,-6l-35,-1v-70h-68l-9,-1l-4,-4l-3,-10l4,-3l-1,-14l3,-2v-27h-16l-1,-1l-1,-1Z"/><path data-race-id="MS02" d="M65,658v-1l2,-7l2,-5l3,-2h3l2,-1l1,2v4l1,2l1,1l1,1l2,-1l1,-1l1,-1v-2l-1,-1l-2,-2l2,-3l1,-1l2,-1l2,-2l2,-2l1,-2l2,-1h1v-1l2,-1h-1v-3h-1l-1,-1l1,-1v-2l2,-2l1,-2l1,-1h6l3,-1h1l1,-1l2,-1l2,-4v-1l-1,-2l-1,-1h-3l-6,-1l-2,-2h-1l3,-5h2v1l1,1l3,4l1,1h4v-2l-1,-4l6,-4l2,-1l1,-2v-2l3,-2v-1l1,-5l-2,1l-1,-1l-2,-1v-1l-4,-2v2l1,2l1,1v2l-1,1v2l-1,1l-1,-1l-8,1h-1l-2,-1h-3v-1h-3l-1,-8l1,-2v-2l2,-1l3,-2h1l3,1h1l3,-4h6l1,-2h5l2,3v2l1,3v1l1,-1l2,-4l1,-8l-1,-4l1,-3h2l2,2h1l4,-3l2,-1l2,-5l1,-1v-1l3,-5v-1h-2l-1,1v2l-1,2h-1v1h-1l-13,-2l-1,-1l-1,-5h1v-5l3,-1l2,-5h-1l-1,-2h-3l-2,1l-1,1h-6l-4,-2l-3,-2l-4,-6l1,-4l3,-7l5,4l1,3l1,2l2,1l3,2h4l1,-1v-4l-10,-5l-2,-1l-2,-1v-2l1,-2l5,-2l1,-2l2,-1l2,-2v-1l2,-2v-2l-2,-2l-2,-2l-1,1l-1,1h-1v1l-1,3l-1,1l-1,1h-3l-4,2l-1,1l-1,-1l-1,1h-1l-2,-2l-2,-8l5,-5l9,-5l1,-3l-2,-6h-2l-10,-1l-2,-8l2,-10l5,-4l2,-1l3,-2l4,-9v-2l-3,-4v-1h1l-1,-2l-1,-3v-1l-1,-1l-2,-1l-3,1l-1,1v1h-1v1h1v2l-1,1v2l1,5l-2,2l-3,1h-3l-3,-1l-2,-2v-4l1,-2h1l-1,-3h2l1,-2v-1l2,-1l1,-2v-4l4,-3h3v-3l1,-1v-1l-1,-2l-1,-1h-1l-1,-1l-1,-1l-2,-1h-1l-1,-1l-1,-2l-2,-1h-1v-4l1,-1l7,-1v2h7l1,-1h2l1,-1v-17h1v-1h2l1,-1v-1l2,-1v-2l1,-1v-4l-1,-1h-2l-1,-1v1h-2l-1,1v4l-1,1v2l-1,1l-3,-4l-1,-1l-1,-1l1,-1v-1l-1,-1l-1,-1v-1l-1,-2v-5l1,-1v-1l-1,-1l2,-2l3,-3l1,-1v-1l4,-4l3,-4h1v-5l-1,-1h-1l-3,2l-1,3v3l-1,1l-1,1l-1,1l-1,1l-1,1h-1l-1,1h-2l-6,-1v-1l-1,-1h-1l-1,-1l2,-4h7l1,-1h2v-1l1,-1v-1l2,-1l-1,-3l-2,-3l-4,-3l-2,-1l-1,2v3l1,3v1l-1,1l-2,2h-1l-1,1h-1l-5,-2l1,-2h-1l1,-1l1,-1l2,-1l1,-2l1,-1l1,-1l1,-2l1,-1l-1,-2l-1,-1l-3,-2h-1l-2,-4v-3l2,-1h3l2,-2l2,-1h4l4,-4l-2,-4l-3,-3l-2,-1v-1l-4,-1h-2v-1l-1,-7l1,-1h1l4,-1h3v-1v1l4,4v2l4,2l2,1l1,1h2l1,-1h1l3,-1h1l1,-1l1,-1v-2l-1,-1v-1l-1,-1l-1,-1l-1,-2h-3l-1,1l-2,1h-4l-2,-1v-1l-2,-4v-6l1,-2v-1l3,1l1,1l7,-1l6,3h4l2,-1l1,-2v-3l-1,-1l-2,-1h-1l-2,-1l-2,-1l-2,-2l-2,-2l-1,-2v-2l2,-5l1,-1l2,-2l1,-1l4,-4l-4,-4l-1,-1h-2l-1,-1h-2l-3,-3l2,-3l2,-1h4l1,-1l3,-1l1,2l1,2l1,1v1l1,1h4v-1l1,-1v-2h-1l-1,-2l-1,-1v-1l-1,-1v-2h13l2,-1h1v-7l1,-1l1,-1l1,-1v-3l-1,-1l-1,-1h-2l-1,1h-4l-3,-3l-2,-2l2,-4l2,-2l4,-3h2v1l1,1l1,1h1l1,1l1,1l1,1h5v-1l1,-1l2,-1v-2h1v-2l-1,-1v-1l-2,-1h-7l-1,1l-1,-1l-2,1l-1,-1l-2,-1l-4,-5l1,-6l4,1l1,2v1l2,2l1,1h5l2,-4l1,-8l3,-1h8v-1l2,-1v-1l1,-1v-3l-1,-4l-2,-1l1,-5h9l4,-1v1l-1,2v1l-1,1v3h-1l1,2l1,1h4v-4l-1,-2l1,-6l3,-2h2l6,-4l1,-1l2,-1h1v-5l-1,-1l-1,-1l-1,-2v-8l1,-1l1,-2h1v-1l2,-1l1,-1l1,-1v-3l-1,-3l-4,-6h-1l-1,-2v-4l1,-1v-2l-1,-5l4,-5l1,-1l1,1l1,1l1,2v2l-1,1l-1,1l-1,1v4l2,1v1h4v-1h1l1,-1l1,-1v-1l3,-2v-1l1,-1l1,-1h1v-4l-1,-1l-1,-1h-5l-1,1h-3l-1,-1h-1l-2,-1v-1l1,-6h2v-3l-1,-1v-2l5,-6l1,2l1,2v1l-1,3l-2,2h-1v3l1,2l5,1h2l2,-1l1,-6l-2,-4v-1l-1,-3l2,-2h1v-3l-1,-1v-1l-1,-2l-1,-1l-1,-4v-1l4,-4l4,5l1,1l-1,1v3l1,1v1h1v1h2l3,-2h1l5,-2l3,-1l1,1l3,1h1v-3h16v27l-3,2l1,14l-4,3l3,10l4,4l9,1h68v70l35,1l-1,6l1,8v49l1,29v52h20v1h-2l-3,4l-1,1l-1,-1h-5v29h23v106l1,33h-1l-9,1h-56l-3,-1v-11l-9,9v1h-12v2h-1v1h-1h1h-1v1h-2h1h-2v1l-1,1l-7,2v1l-1,4l-5,-1l-4,-7l-23,1v-6l-13,6l-7,-1l-3,3l-6,-2l-9,-10l-6,6h-8v17h34v17h20l-9,12l-1,7l-5,6h6l-5,8l3,1l-1,8l-8,2v16l2,9l-3,4l5,2l4,15l4,2v6l5,2l1,8l-4,1l5,4l-4,4l7,3l-2,7h-2l-12,6l-6,1l-6,4h-77v17h-41l-1,-1h-28v-4h-13l-4,-3l-2,-3l-1,-1l-4,-1v-9l-3,-6h6l3,-1l1,-1h-1v-1l-1,-1l-3,-1l-2,1l-4,1l-2,1h-5Z"/><path data-race-id="MS03" d="M21,758l5,1h7l3,-1l2,-1v-1l2,-3v-5h-1l-1,-1v-1h-1v-1h-1v-1l-3,-2v-5l1,-2h-3l-1,1l-2,-4v-3l2,-2l2,-1h1l1,-1h1v1l1,1l-1,1l1,3v4l2,3l3,1h3l2,-5v-3l-3,-2l-2,-4l-2,-3v-12l-1,-1l2,-4h4l2,1l11,-6v-6l-2,-1l-2,1l-4,1l-3,1h-1l-1,-1l-1,-1l-2,-1l-1,-2l3,-7l2,2l2,2l6,2h3l1,-1h1l1,-1l1,-4v-13l3,-5l1,-2h9l3,6v9l4,1l1,1l2,3l4,3h13v4h28l1,1h41v-17h77l6,-4l6,-1l12,-6h2l2,-7l-7,-3l4,-4l-5,-4l4,-1l-1,-8l-5,-2v-6l-4,-2l-4,-15l-5,-2l3,-4l-2,-9v-16l8,-2l1,-8l-3,-1l5,-8h-6l5,-6l1,-7l9,-12h-20v-17h-34v-17h8l6,-6l9,10l6,2l3,-3l7,1l13,-6v6l23,-1l4,7l5,1l1,-4v-1l7,-2l1,-1v-1h2h-1h2v-1h1h-1h1v-1h1v-2h12v-1l9,-9v11l3,1h56l9,-1h1l-1,-33v-37h50l14,2l3,-2h17l-1,-18v-52h-25l-1,-8h6v-5l-6,-2v-16h-20v-17l9,4l28,1l7,-8l8,-4l7,1l9,-1l1,11v43h53l7,-1v11l-1,2v4l-1,5v8l-1,5v8l-1,4v12l-1,5v2h-1v13l-1,5v8l-1,4v3l-1,5v10l-1,7v7l-1,2v12l-1,2v5h-1v12l-1,3v12l-1,1v4l-1,2v13l-1,5v7l-1,1v4l-1,6v8l-1,4v1l-1,12l-25,1v5h-7l2,15l3,5l-2,2l-21,1v-3h-9v18l-17,1l-5,1l-36,2l-27,3l-14,1l1,23v48h-71v9h-23l-13,-1v31l1,12h4v8h12l3,12h14v14h-39l-21,1h-27l-17,-1h-122l-24,-1h-41l-11,-2h1l3,-1l4,-2l1,-2l2,-2v-4l-1,-1l-5,-5l-4,-5v-3l1,-3h2l1,-2l2,-3v-4l-2,-2l-1,-2l-3,-3l-3,-1l1,-6Z"/><path data-race-id="MS04" d="M287,746v-11l13,1h23v-9h71v-48l-1,-23l14,-1l27,-3l36,-2l5,-1l17,-1v-18h9v3l21,-1l2,-2l-3,-5l-2,-15h7v-5l25,-1v5l-1,4v4l-1,4v7l-1,7v6h1v22l1,9v2l1,2v13l1,6v15l1,4v16l1,2v9l1,1v18l1,1v20h1v6l1,4v17l1,3v16l1,4v8l1,1v21l1,1v21h1v22l1,1v9l1,2v15l-3,1l4,5h-7l-6,7h-6l-5,-5h-6l4,-8l-11,-5v8l-15,5h-7l-9,-7l-15,-9l-22,1l1,2h21l4,5l-11,-1l-10,1l-18,4l-27,12l-8,1l4,-7l-7,-6h-5l-6,6l5,-1l4,5l-4,6l-13,8l1,4l-13,10h-5l-1,-1v-2h-3v1l-1,1h-1v1h-3v-1l-1,-1l-1,-1v-1l-1,-1v-1l-1,-1h-1l-1,-1l-1,-1l1,-3v-1l-3,-3v-1l-1,-1l1,-1l-1,-1v-1h-2v-1h1v-3h2v-4h-1l1,-1v-1l-1,-1v-1h-2v-1l-1,-1h-1v-3h-1l-1,-1l-1,-3v-1l-1,-1h-1v-2h2v-1l-1,-1v-2h-1v-5l-1,-1h-1v-1h-1v-1h-2v-1h-1l1,-1l-1,-1h-2v-1h-2v1v-2v1v-1h-2h1v-1h-1h1v-1h-1v-2v1h-2v-3h-1v-3h-2l-2,-1h1v-2h-2v-1h3v-1l-1,1v-1h-3h1l-1,-1v-1h-1l1,-1v1l1,-1h-1v-1h-1v-1h1l-1,-1h-1v-3h1v-1l-1,1h-1v-1h1l1,-2v-1h1v-1h-1v1l-1,-1l1,-1l-2,-1v-1h-1v1h-1v-2h-2v-1h3v-1h-1v1h-1v-1h2v-1h-1v-1h1v-1h-1v1h-1v-1h2v-3h-2v-1l1,-1v-2v1h1v1h1v-3h-1l1,-1h-1v-1h1v-2l1,-1v-1l-1,1v-2l-1,-1h1v-2h2v-3l1,1v1l1,-1v-1v1l-1,-1l-1,-1h2v-1l1,-1h1l-1,-1l1,-1v1v-1h1v1l1,-1h-1v-2l1,-1l-1,1l-1,-1l1,-1v-1l-1,-1l1,-1v2h1v-1l-1,-1h1v-1h1v1h1v-2l-1,-1v-2l1,1v-3l-1,-1h3v-2h-1v-1l1,-1l1,1l1,-1v-1h-1v-4l-1,-1l1,-1l1,-1v-1h1l1,-1h1l-1,-1v-1h1v-3l-1,-1h1v-1h-3v1h-1v-1h-14v-14h-14l-3,-12h-12v-8h-4l-1,-12ZM532,929l4,2v9l-7,-7Z"/>  <path class="mesh" d="M572,360l-7,1h-53v-43l-1,-11l-9,1l-7,-1l-8,4l-7,8l-28,-1l-9,-4v17h20v16l6,2v5h-6l1,8h25v52l1,18h-17l-3,2l-14,-2h-50v-69h-23v-29h5l1,1l1,-1l3,-4h2v-1h-20v-52l-1,-29v-49l-1,-8l1,-6l-35,-1v-70h-68l-9,-1l-4,-4l-3,-10l4,-3l-1,-14l3,-2v-27h-16M406,432v37l1,33h-1l-9,1h-56l-3,-1v-11l-9,9v1h-12v2h-1v1h-1h1h-1v1h-2h1h-2v1l-1,1l-7,2v1l-1,4l-5,-1l-4,-7l-23,1v-6l-13,6l-7,-1l-3,3l-6,-2l-9,-10l-6,6h-8v17h34v17h20l-9,12l-1,7l-5,6h6l-5,8l3,1l-1,8l-8,2v16l2,9l-3,4l5,2l4,15l4,2v6l5,2l1,8l-4,1l5,4l-4,4l7,3l-2,7h-2l-12,6l-6,1l-6,4h-77v17h-41l-1,-1h-28v-4h-13l-4,-3l-2,-3l-1,-1l-4,-1v-9l-3,-6M551,604l-25,1v5h-7l2,15l3,5l-2,2l-21,1v-3h-9v18l-17,1l-5,1l-36,2l-27,3l-14,1l1,23v48h-71v9h-23l-13,-1v31l1,12h4v8h12l3,12h14v14"/></svg>