<svg version="1.1" xmlns="http://www.w3.org/2000/svg" width="617" height="1000" viewBox="0 0 617 1000">
  <path d="M555 25
h 29
l 1 1
l 1 2
l 1 1
l 2 4
l 1 3
l 4 5
l 4 3
h 3
v 4
l -1 5
v 9
l -1 1
v 13
l -1 2
v 4
l -1 1
v 10
h -1
v 9
l -1 2
v 11
l -1 3
v 1
l -1 2
v 10
l -1 5
v 12
l -1 2
l -1 7
v 11
l -1 3
v 9
l -1 3
v 9
l -1 3
v 5
l -1 3
v 12
l -1 1
v 8
l -1 4
v 3
l -1 4
v 10
l -1 1
v 11
l -1 1
v 5
h -1
v 13
l -1 1
v 12
l -1 3
v 12
h -1
v 4
l -1 4
v 12
h -1
v 13
l -2 8
v 12
l -1 2
v 12
l -1 2
v 4
l -1 5
v 8
l -1 5
v 8
l -1 4
v 12
l -1 5
v 2
h -1
v 13
l -1 5
v 8
l -1 4
v 3
l -1 5
v 10
l -1 7
v 7
l -1 2
v 12
l -1 2
v 5
h -1
v 12
l -1 3
v 12
l -1 1
v 4
l -1 2
v 13
l -1 5
v 7
l -1 1
v 4
l -1 6
v 8
l -1 4
v 1
l -1 12
v 5
l -1 4
v 4
l -1 4
v 7
l -1 7
v 6
h 1
v 22
l 1 9
v 2
l 1 2
v 13
l 1 6
v 15
l 1 4
v 16
l 1 2
v 9
l 1 1
v 18
l 1 1
v 20
h 1
v 6
l 1 4
v 17
l 1 3
v 16
l 1 4
v 8
l 1 1
v 21
l 1 1
v 21
h 1
v 22
l 1 1
v 9
l 1 2
v 15
l -3 1
l 4 5
h -7
l -6 7
h -6
l -5 -5
h -6
l 4 -8
l -11 -5
v 8
l -15 5
h -7
l -9 -7
l -15 -9
l -22 1
l 1 2
h 21
l 4 5
l -11 -1
l -10 1
l -18 4
l -27 12
l -8 1
l 4 -7
l -7 -6
h -5
l -6 6
l 5 -1
l 4 5
l -4 6
l -13 8
l 1 4
l -13 10
h -5
l -1 -1
v -2
h -3
v 1
l -1 1
h -1
v 1
h -3
v -1
l -1 -1
l -1 -1
v -1
l -1 -1
v -1
l -1 -1
h -1
l -1 -1
l -1 -1
l 1 -3
v -1
l -3 -3
v -1
l -1 -1
l 1 -1
l -1 -1
v -1
h -2
v -1
h 1
v -3
h 2
v -4
h -1
l 1 -1
v -1
l -1 -1
v -1
h -2
v -1
l -1 -1
h -1
v -3
h -1
l -1 -1
l -1 -3
v -1
l -1 -1
h -1
v -2
h 2
v -1
l -1 -1
v -2
h -1
v -5
l -1 -1
h -1
v -1
h -1
v -1
h -2
v -1
h -1
l 1 -1
l -1 -1
h -2
v -1
h -2
v 1
v -2
v 1
v -1
h -2
h 1
v -1
h -1
h 1
v -1
h -1
v -2
v 1
h -2
v -3
h -1
v -3
h -2
l -2 -1
h 1
v -2
h -2
v -1
h 3
v -1
l -1 1
v -1
h -3
h 1
l -1 -1
v -1
h -1
l 1 -1
v 1
l 1 -1
h -1
v -1
h -1
v -1
h 1
l -1 -1
h -1
v -3
h 1
v -1
l -1 1
h -1
v -1
h 1
l 1 -2
v -1
h 1
v -1
h -1
v 1
l -1 -1
l 1 -1
l -2 -1
v -1
h -1
v 1
h -1
v -2
h -2
v -1
h 3
v -1
h -1
v 1
h -1
v -1
h 2
v -1
h -1
v -1
h 1
v -1
h -1
v 1
h -1
v -1
h 2
v -3
h -2
v -1
l 1 -1
v -2
v 1
h 1
v 1
h 1
v -3
h -1
l 1 -1
h -1
v -1
h 1
v -2
l 1 -1
v -1
l -1 1
v -2
l -1 -1
h 1
v -2
h 2
v -3
l 1 1
v 1
l 1 -1
v -1
v 1
l -1 -1
l -1 -1
h 2
v -1
l 1 -1
h 1
l -1 -1
l 1 -1
v 1
v -1
h 1
v 1
l 1 -1
h -1
v -2
l 1 -1
l -1 1
l -1 -1
l 1 -1
v -1
l -1 -1
l 1 -1
v 2
h 1
v -1
l -1 -1
h 1
v -1
h 1
v 1
h 1
v -2
l -1 -1
v -2
l 1 1
v -3
l -1 -1
h 3
v -2
h -1
v -1
l 1 -1
l 1 1
l 1 -1
v -1
h -1
v -4
l -1 -1
l 1 -1
l 1 -1
v -1
h 1
l 1 -1
h 1
l -1 -1
v -1
h 1
v -3
l -1 -1
h 1
v -1
h -3
v 1
h -1
v -1
h -53
l -21 1
h -27
l -17 -1
h -122
l -24 -1
h -41
l -11 -2
h 1
l 3 -1
l 4 -2
l 1 -2
l 2 -2
v -4
l -1 -1
l -5 -5
l -4 -5
v -3
l 1 -3
h 2
l 1 -2
l 2 -3
v -4
l -2 -2
l -1 -2
l -3 -3
l -3 -1
l 1 -6
h 3
l 5 1
h 7
l 3 -1
l 2 -1
v -1
l 2 -3
v -5
h -1
l -1 -1
v -1
h -1
v -1
h -1
v -1
l -3 -2
v -5
l 1 -2
h -3
l -1 1
l -2 -4
v -3
l 2 -2
l 2 -1
h 1
l 1 -1
h 1
v 1
l 1 1
l -1 1
l 1 3
v 4
l 2 3
l 3 1
h 3
l 2 -5
v -3
l -3 -2
l -2 -4
l -2 -3
v -12
l -1 -1
l 2 -4
h 4
l 2 1
l 11 -6
v -6
l -2 -1
l -2 1
l -4 1
l -3 1
h -1
l -1 -1
l -1 -1
l -2 -1
l -1 -2
l 3 -7
l 2 2
l 2 2
l 6 2
h 3
l 1 -1
h 1
l 1 -1
l 1 -4
v -13
l 3 -5
l 1 -2
h 15
l 3 -1
l 1 -1
h -1
v -1
l -1 -1
l -3 -1
l -2 1
l -4 1
l -2 1
h -5
v -5
l 2 -7
l 2 -5
l 3 -2
h 3
l 2 -1
l 1 2
v 4
l 1 2
l 1 1
l 1 1
l 2 -1
l 1 -1
l 1 -1
v -2
l -1 -1
l -2 -2
l 2 -3
l 1 -1
l 2 -1
l 2 -2
l 2 -2
l 1 -2
l 2 -1
h 1
v -1
l 2 -1
h -1
v -3
h -1
l -1 -1
l 1 -1
v -2
l 2 -2
l 1 -2
l 1 -1
h 6
l 3 -1
h 1
l 1 -1
l 2 -1
l 2 -4
v -1
l -1 -2
l -1 -1
h -3
l -6 -1
l -2 -2
h -1
l 3 -5
h 2
v 1
l 1 1
l 3 4
l 1 1
h 4
v -2
l -1 -4
l 6 -4
l 2 -1
l 1 -2
v -2
l 3 -2
v -1
l 1 -5
l -2 1
l -1 -1
l -2 -1
v -1
l -4 -2
v 2
l 1 2
l 1 1
v 2
l -1 1
v 2
l -1 1
l -1 -1
l -8 1
h -1
l -2 -1
h -3
v -1
h -3
l -1 -8
l 1 -2
v -2
l 2 -1
l 3 -2
h 1
l 3 1
h 1
l 3 -4
h 6
l 1 -2
h 5
l 2 3
v 2
l 1 3
v 1
l 1 -1
l 2 -4
l 1 -8
l -1 -4
l 1 -3
h 2
l 2 2
h 1
l 4 -3
l 2 -1
l 2 -5
l 1 -1
v -1
l 3 -5
v -1
h -2
l -1 1
v 2
l -1 2
h -1
v 1
h -1
l -13 -2
l -1 -1
l -1 -5
h 1
v -5
l 3 -1
l 2 -5
h -1
l -1 -2
h -3
l -2 1
l -1 1
h -6
l -4 -2
l -3 -2
l -4 -6
l 1 -4
l 3 -7
l 5 4
l 1 3
l 1 2
l 2 1
l 3 2
h 4
l 1 -1
l -1 -5
l -9 -4
l -2 -1
l -2 -1
v -2
l 1 -2
l 5 -2
l 1 -2
l 2 -1
l 2 -2
v -1
l 2 -2
v -2
l -2 -2
l -2 -2
l -1 1
l -1 1
h -1
v 1
l -1 3
l -1 1
l -1 1
h -3
l -4 2
l -1 1
l -1 -1
l -1 1
h -1
l -2 -2
l -2 -8
l 5 -5
l 9 -5
l 1 -3
l -2 -6
h -2
l -10 -1
l -2 -8
l 2 -10
l 5 -4
l 2 -1
l 3 -2
l 4 -9
v -2
l -3 -4
v -1
h 1
l -1 -2
l -1 -3
v -1
l -1 -1
l -2 -1
l -3 1
l -1 1
v 1
h -1
v 1
h 1
v 2
l -1 1
v 2
l 1 5
l -2 2
l -3 1
h -3
l -3 -1
l -2 -2
v -4
l 1 -2
h 1
l -1 -3
h 2
l 1 -2
v -1
l 2 -1
l 1 -2
v -4
l 4 -3
h 3
v -3
l 1 -1
v -1
l -1 -2
l -1 -1
h -1
l -1 -1
l -1 -1
l -2 -1
h -1
l -1 -1
l -1 -2
l -2 -1
h -1
v -4
l 1 -1
l 7 -1
v 2
h 7
l 1 -1
h 2
l 1 -1
v -17
h 1
v -1
h 2
l 1 -1
v -1
l 2 -1
v -2
l 1 -1
v -4
l -1 -1
h -2
l -1 -1
v 1
h -2
l -1 1
v 4
l -1 1
v 2
l -1 1
l -3 -4
l -1 -1
l -1 -1
l 1 -1
v -1
l -1 -1
l -1 -1
v -1
l -1 -2
v -5
l 1 -1
v -1
l -1 -1
l 2 -2
l 3 -3
l 1 -1
v -1
l 4 -4
l 3 -4
h 1
v -5
l -1 -1
h -1
l -3 2
l -1 3
v 3
l -1 1
l -1 1
l -1 1
l -1 1
l -1 1
h -1
l -1 1
h -2
l -6 -1
v -1
l -1 -1
h -1
l -1 -1
l 2 -4
h 7
l 1 -1
h 2
v -1
l 1 -1
v -1
l 2 -1
l -1 -3
l -2 -3
l -4 -3
l -2 -1
l -1 2
v 3
l 1 3
v 1
l -1 1
l -2 2
h -1
l -1 1
h -1
l -5 -2
l 1 -2
h -1
l 1 -1
l 1 -1
l 2 -1
l 1 -2
l 1 -1
l 1 -1
l 1 -2
l 1 -1
l -1 -2
l -1 -1
l -3 -2
l -3 -4
v -3
l 2 -1
h 3
l 2 -2
l 2 -1
h 4
l 4 -4
l -2 -4
l -3 -3
l -2 -1
v -1
l -4 -1
h -2
v -1
l -1 -7
l 1 -1
h 1
l 4 -1
h 3
v -1
v 1
l 4 4
v 2
l 4 2
l 2 1
l 1 1
h 2
l 1 -1
h 1
l 3 -1
h 1
l 1 -1
l 1 -1
v -2
l -1 -1
v -1
l -1 -1
l -1 -1
l -1 -2
h -3
l -1 1
l -2 1
h -4
l -2 -1
v -1
l -2 -4
v -6
l 1 -2
v -1
l 3 1
l 1 1
l 7 -1
l 6 3
h 4
l 2 -1
l 1 -2
v -3
l -1 -1
l -2 -1
h -1
l -2 -1
l -2 -1
l -2 -2
l -2 -2
l -1 -2
v -2
l 2 -5
l 1 -1
l 2 -2
l 1 -1
l 3 -4
l -3 -4
l -1 -1
h -2
l -1 -1
h -2
l -3 -3
l 2 -3
l 2 -1
h 4
l 1 -1
l 3 -1
l 1 2
l 1 2
l 1 1
v 1
l 1 1
h 4
v -1
l 1 -1
v -2
h -1
l -1 -2
l -1 -1
v -1
l -1 -1
v -2
h 13
l 2 -1
h 1
v -7
l 1 -1
l 1 -1
l 1 -1
v -3
l -1 -1
l -1 -1
h -2
l -1 1
h -4
l -3 -3
l -2 -2
l 2 -4
l 2 -2
l 4 -3
h 2
v 1
l 1 1
l 1 1
h 1
l 1 1
l 1 1
l 1 1
h 5
v -1
l 1 -1
l 2 -1
v -2
h 1
v -2
l -1 -1
v -1
l -2 -1
h -7
l -1 1
l -1 -1
l -2 1
l -1 -1
l -2 -1
l -4 -5
l 1 -6
l 4 1
l 1 2
v 1
l 2 2
l 1 1
h 5
l 2 -4
l 1 -8
l 3 -1
h 8
v -1
l 2 -1
v -1
l 1 -1
v -3
l -1 -4
l -2 -1
l 1 -5
h 9
l 4 -1
v 1
l -1 2
v 1
l -1 1
v 3
h -1
l 1 2
l 1 1
h 4
v -4
l -1 -2
l 1 -6
l 3 -2
h 2
l 6 -4
l 1 -1
l 2 -1
h 1
v -5
l -1 -1
l -1 -1
l -1 -2
v -8
l 1 -1
l 1 -2
h 1
v -1
l 2 -1
l 1 -1
l 1 -1
v -3
l -1 -3
l -4 -6
h -1
l -1 -2
v -4
l 1 -1
v -2
l -1 -5
l 4 -5
l 1 -1
l 1 1
l 1 1
l 1 2
v 2
l -1 1
l -1 1
l -1 1
v 4
l 2 1
v 1
h 4
v -1
h 1
l 1 -1
l 1 -1
v -1
l 3 -2
v -1
l 1 -1
l 1 -1
h 1
v -4
l -1 -1
l -1 -1
h -5
l -1 1
h -3
l -1 -1
h -1
l -2 -1
v -1
l 1 -6
h 2
v -3
l -1 -1
v -2
l 5 -6
l 1 2
l 1 2
v 1
l -1 3
l -2 2
h -1
v 3
l 1 2
l 5 1
h 2
l 2 -1
l 1 -6
l -2 -4
v -1
l -1 -3
l 2 -2
h 1
v -3
l -1 -1
v -1
l -1 -2
l -1 -1
l -1 -4
v -1
l 4 -4
l 4 5
l 1 1
l -1 1
v 3
l 1 1
v 1
h 1
v 1
h 2
l 3 -2
h 1
l 5 -2
l 3 -1
l 1 1
l 3 1
h 1
v -2
l -1 -2
l -1 -1
l 1 -1
l 9 -5
l 2 -6
l -9 -9
l -2 -4
h 234
l 6 -1
h 41
Z
M532 929
l 4 2
v 9
l -7 -7
Z"/>
<g class="districts">
<path data-race-id="MS01" d="M244 50
l 9 -5
l 2 -6
l -2 -5
l -7 -4
l -2 -4
h 54
l 32 1
l 9 -1
h 139
l 6 -1
h 100
l 1 1
l 1 2
l 1 1
l 2 4
l 1 3
l 4 5
l 4 3
h 3
v 4
l -1 5
v 9
l -1 1
v 13
l -1 2
v 4
l -1 1
v 10
h -1
v 9
l -1 2
v 11
l -1 3
v 1
l -1 2
v 10
l -1 5
v 12
l -1 2
l -1 7
v 11
l -1 3
v 9
l -1 3
v 9
l -1 3
v 5
l -1 3
v 12
l -1 1
v 8
l -1 4
v 3
l -1 4
v 10
l -1 1
v 11
l -1 1
v 5
h -1
v 13
l -1 1
v 12
l -1 3
v 12
h -1
v 4
l -1 4
v 12
h -1
v 13
l -2 8
v 12
l -1 2
v 1
l -7 1
h -53
v -43
l -1 -11
l -9 1
l -7 -1
l -8 4
l -7 8
l -28 -1
l -9 -4
v 17
h 20
v 16
l 6 2
v 5
h -6
l 1 8
h 25
v 52
l 1 18
h -17
l -3 2
l -14 -2
h -50
v -69
h -23
v -29
h 5
l 1 1
l 1 -1
l 3 -4
h 2
v -1
h -20
v -52
l -1 -29
v -49
l -1 -8
l 1 -6
l -35 -1
v -70
h -68
l -9 -1
l -4 -4
l -3 -10
l 4 -3
l -1 -14
l 3 -2
v -27
h -16
l -1 -1
l -1 -1
Z"/>
<path data-race-id="MS02" d="M65 658
v -1
l 2 -7
l 2 -5
l 3 -2
h 3
l 2 -1
l 1 2
v 4
l 1 2
l 1 1
l 1 1
l 2 -1
l 1 -1
l 1 -1
v -2
l -1 -1
l -2 -2
l 2 -3
l 1 -1
l 2 -1
l 2 -2
l 2 -2
l 1 -2
l 2 -1
h 1
v -1
l 2 -1
h -1
v -3
h -1
l -1 -1
l 1 -1
v -2
l 2 -2
l 1 -2
l 1 -1
h 6
l 3 -1
h 1
l 1 -1
l 2 -1
l 2 -4
v -1
l -1 -2
l -1 -1
h -3
l -6 -1
l -2 -2
h -1
l 3 -5
h 2
v 1
l 1 1
l 3 4
l 1 1
h 4
v -2
l -1 -4
l 6 -4
l 2 -1
l 1 -2
v -2
l 3 -2
v -1
l 1 -5
l -2 1
l -1 -1
l -2 -1
v -1
l -4 -2
v 2
l 1 2
l 1 1
v 2
l -1 1
v 2
l -1 1
l -1 -1
l -8 1
h -1
l -2 -1
h -3
v -1
h -3
l -1 -8
l 1 -2
v -2
l 2 -1
l 3 -2
h 1
l 3 1
h 1
l 3 -4
h 6
l 1 -2
h 5
l 2 3
v 2
l 1 3
v 1
l 1 -1
l 2 -4
l 1 -8
l -1 -4
l 1 -3
h 2
l 2 2
h 1
l 4 -3
l 2 -1
l 2 -5
l 1 -1
v -1
l 3 -5
v -1
h -2
l -1 1
v 2
l -1 2
h -1
v 1
h -1
l -13 -2
l -1 -1
l -1 -5
h 1
v -5
l 3 -1
l 2 -5
h -1
l -1 -2
h -3
l -2 1
l -1 1
h -6
l -4 -2
l -3 -2
l -4 -6
l 1 -4
l 3 -7
l 5 4
l 1 3
l 1 2
l 2 1
l 3 2
h 4
l 1 -1
v -4
l -10 -5
l -2 -1
l -2 -1
v -2
l 1 -2
l 5 -2
l 1 -2
l 2 -1
l 2 -2
v -1
l 2 -2
v -2
l -2 -2
l -2 -2
l -1 1
l -1 1
h -1
v 1
l -1 3
l -1 1
l -1 1
h -3
l -4 2
l -1 1
l -1 -1
l -1 1
h -1
l -2 -2
l -2 -8
l 5 -5
l 9 -5
l 1 -3
l -2 -6
h -2
l -10 -1
l -2 -8
l 2 -10
l 5 -4
l 2 -1
l 3 -2
l 4 -9
v -2
l -3 -4
v -1
h 1
l -1 -2
l -1 -3
v -1
l -1 -1
l -2 -1
l -3 1
l -1 1
v 1
h -1
v 1
h 1
v 2
l -1 1
v 2
l 1 5
l -2 2
l -3 1
h -3
l -3 -1
l -2 -2
v -4
l 1 -2
h 1
l -1 -3
h 2
l 1 -2
v -1
l 2 -1
l 1 -2
v -4
l 4 -3
h 3
v -3
l 1 -1
v -1
l -1 -2
l -1 -1
h -1
l -1 -1
l -1 -1
l -2 -1
h -1
l -1 -1
l -1 -2
l -2 -1
h -1
v -4
l 1 -1
l 7 -1
v 2
h 7
l 1 -1
h 2
l 1 -1
v -17
h 1
v -1
h 2
l 1 -1
v -1
l 2 -1
v -2
l 1 -1
v -4
l -1 -1
h -2
l -1 -1
v 1
h -2
l -1 1
v 4
l -1 1
v 2
l -1 1
l -3 -4
l -1 -1
l -1 -1
l 1 -1
v -1
l -1 -1
l -1 -1
v -1
l -1 -2
v -5
l 1 -1
v -1
l -1 -1
l 2 -2
l 3 -3
l 1 -1
v -1
l 4 -4
l 3 -4
h 1
v -5
l -1 -1
h -1
l -3 2
l -1 3
v 3
l -1 1
l -1 1
l -1 1
l -1 1
l -1 1
h -1
l -1 1
h -2
l -6 -1
v -1
l -1 -1
h -1
l -1 -1
l 2 -4
h 7
l 1 -1
h 2
v -1
l 1 -1
v -1
l 2 -1
l -1 -3
l -2 -3
l -4 -3
l -2 -1
l -1 2
v 3
l 1 3
v 1
l -1 1
l -2 2
h -1
l -1 1
h -1
l -5 -2
l 1 -2
h -1
l 1 -1
l 1 -1
l 2 -1
l 1 -2
l 1 -1
l 1 -1
l 1 -2
l 1 -1
l -1 -2
l -1 -1
l -3 -2
h -1
l -2 -4
v -3
l 2 -1
h 3
l 2 -2
l 2 -1
h 4
l 4 -4
l -2 -4
l -3 -3
l -2 -1
v -1
l -4 -1
h -2
v -1
l -1 -7
l 1 -1
h 1
l 4 -1
h 3
v -1
v 1
l 4 4
v 2
l 4 2
l 2 1
l 1 1
h 2
l 1 -1
h 1
l 3 -1
h 1
l 1 -1
l 1 -1
v -2
l -1 -1
v -1
l -1 -1
l -1 -1
l -1 -2
h -3
l -1 1
l -2 1
h -4
l -2 -1
v -1
l -2 -4
v -6
l 1 -2
v -1
l 3 1
l 1 1
l 7 -1
l 6 3
h 4
l 2 -1
l 1 -2
v -3
l -1 -1
l -2 -1
h -1
l -2 -1
l -2 -1
l -2 -2
l -2 -2
l -1 -2
v -2
l 2 -5
l 1 -1
l 2 -2
l 1 -1
l 4 -4
l -4 -4
l -1 -1
h -2
l -1 -1
h -2
l -3 -3
l 2 -3
l 2 -1
h 4
l 1 -1
l 3 -1
l 1 2
l 1 2
l 1 1
v 1
l 1 1
h 4
v -1
l 1 -1
v -2
h -1
l -1 -2
l -1 -1
v -1
l -1 -1
v -2
h 13
l 2 -1
h 1
v -7
l 1 -1
l 1 -1
l 1 -1
v -3
l -1 -1
l -1 -1
h -2
l -1 1
h -4
l -3 -3
l -2 -2
l 2 -4
l 2 -2
l 4 -3
h 2
v 1
l 1 1
l 1 1
h 1
l 1 1
l 1 1
l 1 1
h 5
v -1
l 1 -1
l 2 -1
v -2
h 1
v -2
l -1 -1
v -1
l -2 -1
h -7
l -1 1
l -1 -1
l -2 1
l -1 -1
l -2 -1
l -4 -5
l 1 -6
l 4 1
l 1 2
v 1
l 2 2
l 1 1
h 5
l 2 -4
l 1 -8
l 3 -1
h 8
v -1
l 2 -1
v -1
l 1 -1
v -3
l -1 -4
l -2 -1
l 1 -5
h 9
l 4 -1
v 1
l -1 2
v 1
l -1 1
v 3
h -1
l 1 2
l 1 1
h 4
v -4
l -1 -2
l 1 -6
l 3 -2
h 2
l 6 -4
l 1 -1
l 2 -1
h 1
v -5
l -1 -1
l -1 -1
l -1 -2
v -8
l 1 -1
l 1 -2
h 1
v -1
l 2 -1
l 1 -1
l 1 -1
v -3
l -1 -3
l -4 -6
h -1
l -1 -2
v -4
l 1 -1
v -2
l -1 -5
l 4 -5
l 1 -1
l 1 1
l 1 1
l 1 2
v 2
l -1 1
l -1 1
l -1 1
v 4
l 2 1
v 1
h 4
v -1
h 1
l 1 -1
l 1 -1
v -1
l 3 -2
v -1
l 1 -1
l 1 -1
h 1
v -4
l -1 -1
l -1 -1
h -5
l -1 1
h -3
l -1 -1
h -1
l -2 -1
v -1
l 1 -6
h 2
v -3
l -1 -1
v -2
l 5 -6
l 1 2
l 1 2
v 1
l -1 3
l -2 2
h -1
v 3
l 1 2
l 5 1
h 2
l 2 -1
l 1 -6
l -2 -4
v -1
l -1 -3
l 2 -2
h 1
v -3
l -1 -1
v -1
l -1 -2
l -1 -1
l -1 -4
v -1
l 4 -4
l 4 5
l 1 1
l -1 1
v 3
l 1 1
v 1
h 1
v 1
h 2
l 3 -2
h 1
l 5 -2
l 3 -1
l 1 1
l 3 1
h 1
v -3
h 16
v 27
l -3 2
l 1 14
l -4 3
l 3 10
l 4 4
l 9 1
h 68
v 70
l 35 1
l -1 6
l 1 8
v 49
l 1 29
v 52
h 20
v 1
h -2
l -3 4
l -1 1
l -1 -1
h -5
v 29
h 23
v 106
l 1 33
h -1
l -9 1
h -56
l -3 -1
v -11
l -9 9
v 1
h -12
v 2
h -1
v 1
h -1
h 1
h -1
v 1
h -2
h 1
h -2
v 1
l -1 1
l -7 2
v 1
l -1 4
l -5 -1
l -4 -7
l -23 1
v -6
l -13 6
l -7 -1
l -3 3
l -6 -2
l -9 -10
l -6 6
h -8
v 17
h 34
v 17
h 20
l -9 12
l -1 7
l -5 6
h 6
l -5 8
l 3 1
l -1 8
l -8 2
v 16
l 2 9
l -3 4
l 5 2
l 4 15
l 4 2
v 6
l 5 2
l 1 8
l -4 1
l 5 4
l -4 4
l 7 3
l -2 7
h -2
l -12 6
l -6 1
l -6 4
h -77
v 17
h -41
l -1 -1
h -28
v -4
h -13
l -4 -3
l -2 -3
l -1 -1
l -4 -1
v -9
l -3 -6
h 6
l 3 -1
l 1 -1
h -1
v -1
l -1 -1
l -3 -1
l -2 1
l -4 1
l -2 1
h -5
Z"/>
<path data-race-id="MS03" d="M21 758
l 5 1
h 7
l 3 -1
l 2 -1
v -1
l 2 -3
v -5
h -1
l -1 -1
v -1
h -1
v -1
h -1
v -1
l -3 -2
v -5
l 1 -2
h -3
l -1 1
l -2 -4
v -3
l 2 -2
l 2 -1
h 1
l 1 -1
h 1
v 1
l 1 1
l -1 1
l 1 3
v 4
l 2 3
l 3 1
h 3
l 2 -5
v -3
l -3 -2
l -2 -4
l -2 -3
v -12
l -1 -1
l 2 -4
h 4
l 2 1
l 11 -6
v -6
l -2 -1
l -2 1
l -4 1
l -3 1
h -1
l -1 -1
l -1 -1
l -2 -1
l -1 -2
l 3 -7
l 2 2
l 2 2
l 6 2
h 3
l 1 -1
h 1
l 1 -1
l 1 -4
v -13
l 3 -5
l 1 -2
h 9
l 3 6
v 9
l 4 1
l 1 1
l 2 3
l 4 3
h 13
v 4
h 28
l 1 1
h 41
v -17
h 77
l 6 -4
l 6 -1
l 12 -6
h 2
l 2 -7
l -7 -3
l 4 -4
l -5 -4
l 4 -1
l -1 -8
l -5 -2
v -6
l -4 -2
l -4 -15
l -5 -2
l 3 -4
l -2 -9
v -16
l 8 -2
l 1 -8
l -3 -1
l 5 -8
h -6
l 5 -6
l 1 -7
l 9 -12
h -20
v -17
h -34
v -17
h 8
l 6 -6
l 9 10
l 6 2
l 3 -3
l 7 1
l 13 -6
v 6
l 23 -1
l 4 7
l 5 1
l 1 -4
v -1
l 7 -2
l 1 -1
v -1
h 2
h -1
h 2
v -1
h 1
h -1
h 1
v -1
h 1
v -2
h 12
v -1
l 9 -9
v 11
l 3 1
h 56
l 9 -1
h 1
l -1 -33
v -37
h 50
l 14 2
l 3 -2
h 17
l -1 -18
v -52
h -25
l -1 -8
h 6
v -5
l -6 -2
v -16
h -20
v -17
l 9 4
l 28 1
l 7 -8
l 8 -4
l 7 1
l 9 -1
l 1 11
v 43
h 53
l 7 -1
v 11
l -1 2
v 4
l -1 5
v 8
l -1 5
v 8
l -1 4
v 12
l -1 5
v 2
h -1
v 13
l -1 5
v 8
l -1 4
v 3
l -1 5
v 10
l -1 7
v 7
l -1 2
v 12
l -1 2
v 5
h -1
v 12
l -1 3
v 12
l -1 1
v 4
l -1 2
v 13
l -1 5
v 7
l -1 1
v 4
l -1 6
v 8
l -1 4
v 1
l -1 12
l -25 1
v 5
h -7
l 2 15
l 3 5
l -2 2
l -21 1
v -3
h -9
v 18
l -17 1
l -5 1
l -36 2
l -27 3
l -14 1
l 1 23
v 48
h -71
v 9
h -23
l -13 -1
v 31
l 1 12
h 4
v 8
h 12
l 3 12
h 14
v 14
h -39
l -21 1
h -27
l -17 -1
h -122
l -24 -1
h -41
l -11 -2
h 1
l 3 -1
l 4 -2
l 1 -2
l 2 -2
v -4
l -1 -1
l -5 -5
l -4 -5
v -3
l 1 -3
h 2
l 1 -2
l 2 -3
v -4
l -2 -2
l -1 -2
l -3 -3
l -3 -1
l 1 -6
Z"/>
<path data-race-id="MS04" d="M287 746
v -11
l 13 1
h 23
v -9
h 71
v -48
l -1 -23
l 14 -1
l 27 -3
l 36 -2
l 5 -1
l 17 -1
v -18
h 9
v 3
l 21 -1
l 2 -2
l -3 -5
l -2 -15
h 7
v -5
l 25 -1
v 5
l -1 4
v 4
l -1 4
v 7
l -1 7
v 6
h 1
v 22
l 1 9
v 2
l 1 2
v 13
l 1 6
v 15
l 1 4
v 16
l 1 2
v 9
l 1 1
v 18
l 1 1
v 20
h 1
v 6
l 1 4
v 17
l 1 3
v 16
l 1 4
v 8
l 1 1
v 21
l 1 1
v 21
h 1
v 22
l 1 1
v 9
l 1 2
v 15
l -3 1
l 4 5
h -7
l -6 7
h -6
l -5 -5
h -6
l 4 -8
l -11 -5
v 8
l -15 5
h -7
l -9 -7
l -15 -9
l -22 1
l 1 2
h 21
l 4 5
l -11 -1
l -10 1
l -18 4
l -27 12
l -8 1
l 4 -7
l -7 -6
h -5
l -6 6
l 5 -1
l 4 5
l -4 6
l -13 8
l 1 4
l -13 10
h -5
l -1 -1
v -2
h -3
v 1
l -1 1
h -1
v 1
h -3
v -1
l -1 -1
l -1 -1
v -1
l -1 -1
v -1
l -1 -1
h -1
l -1 -1
l -1 -1
l 1 -3
v -1
l -3 -3
v -1
l -1 -1
l 1 -1
l -1 -1
v -1
h -2
v -1
h 1
v -3
h 2
v -4
h -1
l 1 -1
v -1
l -1 -1
v -1
h -2
v -1
l -1 -1
h -1
v -3
h -1
l -1 -1
l -1 -3
v -1
l -1 -1
h -1
v -2
h 2
v -1
l -1 -1
v -2
h -1
v -5
l -1 -1
h -1
v -1
h -1
v -1
h -2
v -1
h -1
l 1 -1
l -1 -1
h -2
v -1
h -2
v 1
v -2
v 1
v -1
h -2
h 1
v -1
h -1
h 1
v -1
h -1
v -2
v 1
h -2
v -3
h -1
v -3
h -2
l -2 -1
h 1
v -2
h -2
v -1
h 3
v -1
l -1 1
v -1
h -3
h 1
l -1 -1
v -1
h -1
l 1 -1
v 1
l 1 -1
h -1
v -1
h -1
v -1
h 1
l -1 -1
h -1
v -3
h 1
v -1
l -1 1
h -1
v -1
h 1
l 1 -2
v -1
h 1
v -1
h -1
v 1
l -1 -1
l 1 -1
l -2 -1
v -1
h -1
v 1
h -1
v -2
h -2
v -1
h 3
v -1
h -1
v 1
h -1
v -1
h 2
v -1
h -1
v -1
h 1
v -1
h -1
v 1
h -1
v -1
h 2
v -3
h -2
v -1
l 1 -1
v -2
v 1
h 1
v 1
h 1
v -3
h -1
l 1 -1
h -1
v -1
h 1
v -2
l 1 -1
v -1
l -1 1
v -2
l -1 -1
h 1
v -2
h 2
v -3
l 1 1
v 1
l 1 -1
v -1
v 1
l -1 -1
l -1 -1
h 2
v -1
l 1 -1
h 1
l -1 -1
l 1 -1
v 1
v -1
h 1
v 1
l 1 -1
h -1
v -2
l 1 -1
l -1 1
l -1 -1
l 1 -1
v -1
l -1 -1
l 1 -1
v 2
h 1
v -1
l -1 -1
h 1
v -1
h 1
v 1
h 1
v -2
l -1 -1
v -2
l 1 1
v -3
l -1 -1
h 3
v -2
h -1
v -1
l 1 -1
l 1 1
l 1 -1
v -1
h -1
v -4
l -1 -1
l 1 -1
l 1 -1
v -1
h 1
l 1 -1
h 1
l -1 -1
v -1
h 1
v -3
l -1 -1
h 1
v -1
h -3
v 1
h -1
v -1
h -14
v -14
h -14
l -3 -12
h -12
v -8
h -4
l -1 -12
Z
M532 929
l 4 2
v 9
l -7 -7
Z"/>
</g>
  <path class="districts-mesh" d="M572 360
l -7 1
h -53
v -43
l -1 -11
l -9 1
l -7 -1
l -8 4
l -7 8
l -28 -1
l -9 -4
v 17
h 20
v 16
l 6 2
v 5
h -6
l 1 8
h 25
v 52
l 1 18
h -17
l -3 2
l -14 -2
h -50
v -69
h -23
v -29
h 5
l 1 1
l 1 -1
l 3 -4
h 2
v -1
h -20
v -52
l -1 -29
v -49
l -1 -8
l 1 -6
l -35 -1
v -70
h -68
l -9 -1
l -4 -4
l -3 -10
l 4 -3
l -1 -14
l 3 -2
v -27
h -16
M406 432
v 37
l 1 33
h -1
l -9 1
h -56
l -3 -1
v -11
l -9 9
v 1
h -12
v 2
h -1
v 1
h -1
h 1
h -1
v 1
h -2
h 1
h -2
v 1
l -1 1
l -7 2
v 1
l -1 4
l -5 -1
l -4 -7
l -23 1
v -6
l -13 6
l -7 -1
l -3 3
l -6 -2
l -9 -10
l -6 6
h -8
v 17
h 34
v 17
h 20
l -9 12
l -1 7
l -5 6
h 6
l -5 8
l 3 1
l -1 8
l -8 2
v 16
l 2 9
l -3 4
l 5 2
l 4 15
l 4 2
v 6
l 5 2
l 1 8
l -4 1
l 5 4
l -4 4
l 7 3
l -2 7
h -2
l -12 6
l -6 1
l -6 4
h -77
v 17
h -41
l -1 -1
h -28
v -4
h -13
l -4 -3
l -2 -3
l -1 -1
l -4 -1
v -9
l -3 -6
M551 604
l -25 1
v 5
h -7
l 2 15
l 3 5
l -2 2
l -21 1
v -3
h -9
v 18
l -17 1
l -5 1
l -36 2
l -27 3
l -14 1
l 1 23
v 48
h -71
v 9
h -23
l -13 -1
v 31
l 1 12
h 4
v 8
h 12
l 3 12
h 14
v 14"/>
</svg>