<svg version="1.1" xmlns="http://www.w3.org/2000/svg" width="1000" height="577" viewBox="0 0 1000 577"><g class="districts"><path data-race-id="MT00" d="M26,104l2,-22v-3l1,-8l1,-13v-1l1,-7l1,-23l2,-13l8,1h9l5,1l7,1l19,1l8,1h10l8,1l25,1h8l3,1h9l6,1h9l5,1h12l8,1h13l5,1h24l3,1h20l14,1h3l6,1h33l10,1h15l17,1h64l3,1h91l13,-1h58l26,-1h43l5,-1l44,-1l1,-1h23l6,-1h15l33,-1l2,-1h13l14,-1h11l2,-1h7l5,-1h15l4,-1h13l7,-1h5l7,-1l20,-1l32,-3l1,2v10l1,2v11l1,3v7l1,3v9l1,4v11h1v10l1,7v6l1,1v11l1,2v4l1,7v10h1v10l1,1v13l1,3v11l1,1v12h1v13l1,1v12l1,1v23l1,1v13l1,1v10l1,3v10l1,2v10l1,2v11h1v12l1,6v7l1,1v11l1,4v6l1,8v8l1,1v8l1,2v3l1,9v9l1,4v7l1,4v11h1v9l1,2v11l1,8v1l1,5v19h-7l-2,1h-8l-8,1h-13l-12,1h-7l-1,1h-15l-4,1h-3l-32,2h-6l-9,1h-11l-2,1l-13,1h-6l-15,1h-15l-3,1h-13v1h-27l-4,1h-45l-1,1h-5l-51,1h-5l-19,1h-29l-10,1h-7l-3,-1h-26l-2,1h-75l-12,1h-12l-7,-1h-25v60l-4,-1v-1l-3,-1v-4h-1l-3,-3v-1l-2,-1h-1v-2h-1v-3h2l-1,-1l-1,-1v-1h-2l-1,-1v-1h1l-2,-2v-1h-1v-2l-3,-3h-1v1h-1v-1l-1,-1v-1l-1,-1l-2,1l1,1l-1,3h-1l-1,-1h-1v1h-3v3l1,1l-1,2l-1,2h-2l1,1v1h-1v1l-1,1h1l-1,1v1l1,1l1,1v1l2,1h1v2h-4l-1,-1v-1h-3l-2,-1h-1v1h-5v-1h-3l-1,1v1h-3v1h-1v1h-4v1h-2v-1h-1l-1,-2v-1h-1v-1l-1,-1h-1v1h-4l-2,1v1l-1,1v-1h-1v1l-1,-1v-1h-3v2h-1l-1,-1h-1v1h-2v1h-1l-1,-1h-1v-2l-1,1l-1,-1l-1,1v1l-1,-1h-1l-1,-1h-1v-2h-1l-1,-1h-4v1h-1l-1,1l-1,1h-2l-1,1v7l-1,2h-2v-1l-1,1h-2v-2h-2v-1h-2v1h-1v1l-1,-1v-1h-2l-1,-1h-2v1h-1v-1v1l-1,-1v-1h-2v1v-1h-5v-1h-1l-1,-1h-1l-1,1l-1,1h-1l-4,3l-3,2v3l1,1v1l-1,4v1l-2,-1v-1h-1v-1l-1,-1v-2l-1,1h-1v-1h-1v-1h-2l-1,-1l-2,-2l-1,-1l-1,-2v-1l-1,-1l-1,-2h1l1,-1l-1,-1l1,-1l-2,-4l-3,-4v-2l1,-1l1,-2l-1,-4v-1l-2,-3v-1l-1,-2l-1,-2l-1,-1l1,-1v-1h-1l-1,-1h-2v-1h-1v-1h-1v-1h-2v-1h-1v-1h-2v1h-2v1h-2v1h-2v1h-1v-2l-1,-3h-1v-1h-4v-3h-1l-2,-1v-2l-1,-1v-2l-1,-1v-1h-1v-2h4l1,-1v-6h1l-1,-1v-2h-1l1,-1v-2h-1v-1v1h-1l-1,-1v-1h-1l-1,-2v-2l-2,-1h-1v1l-2,-2v-1l1,-1h-2v-5l-1,-2h-1v-1h-1v-1h-1v-2h-1v-1l-1,-1h-1l-1,-1l1,-1v-2h-1v-2h-1l-1,-2h-1v-6h1h-1l1,-1v-1h-1v-1l-1,-1h-2v-1l1,-1h1l-1,-1h-1v-3l1,-1h-1l2,-1v-3h-1v-1l1,-1h-6v-3h1v-3h1l1,-1v-3h-1l-1,-1h-1l-1,-1h-4l1,-1v-3h-2v-2h-1h1l-1,-1v-2h-1l-1,1v-1l-1,-1h-2v1h-2v1l-1,1l1,1v2l-4,2v1l-2,2v1l-1,1h-1l-1,1v2h-2l-1,1h-2v1h-3v-1h-2v3l-1,1v1l-3,2l-1,1v1h-2v1h-1v-2h-1l-1,-2v-1h-1l-1,-1h-2v-1l-1,-1v-1l-1,-1l-1,-1v-1l-1,-1l-1,1v-1l-2,1v-1l-1,-1h-1l-1,1l-1,1v-1l-1,1v-1l1,-1v-2l1,-1l1,-1l-1,-2l-1,-1v-1h2v-1h2v-1h1v-1h1l-1,-1h1l-1,-1h-1h1l1,-2v-2h-1v-1h-1l-1,-1l-1,-2v-2h-1v-1l1,-1h1v-1l1,-1v-2h1v-1h1h-1v-1h1l1,-1h1v1h1l1,-1h1v-1h2v1h1l1,-1v-1h1v-3h-1v-1l-2,-4h1v-1h1v-3l-1,-1h-1v-1l-1,1v-1l-1,-1l-1,1l-1,-1v-1h1v-3h-1v1l-2,-1l1,-1l1,-1h1v-1h1v-5l-1,-1h-1v-1h-1l-1,-1v-1l-1,-1l1,-1h1v-2v1h1v-1h1l1,2v-1h1v-1h1v1v-1l1,-1l-1,-4h1v-2l-1,-1l-1,-1v-2l1,-1v1h1l1,-1l1,-1v-3l1,-2v-2l1,-1v-1l-1,-1l1,-2v-2h1v-2l1,-1h1l-1,-1v1v-3l-1,-1l-1,-3h1l1,-1v1h2l1,-1v-5l1,-1v-4h1v-1h1l-1,-1v-1l1,-1v-2l-1,-1h-1l-1,-1v-1h-2v1h-1l-1,1v-1v1h-2l-1,1l-1,1h-3v-1h-3v-1l-1,1h-2l-1,1h-1v-1h-1v-2h-1l-1,-1v-2l1,-1v-1l1,-1l-1,-1h-1v-2h-2v-1h-2v1h-1v2h-2l-2,2h-1v-2h-1v-2h1v-1h1v-3h-1v-1l-1,-1h1h-4l-1,-1v-1l-1,-1l-1,-1h-2v1l-1,-1l1,-1h-1v-1h-1l-1,-1v-9h1v-1h-1v-1h-1v-1l-1,-1l-1,-2h-1v-1h-1l-1,-1v1h-1l-1,-1l-1,-2v-4l-2,-2v-1l-1,1v-1l-1,-1l-2,-5h-1l-2,-2v-2l-1,-1l-1,-1h-1l-1,-1v-1l-1,-2h-2l-1,-1l1,-3l-1,-1v-1h-1v-2l-1,-1h-3v-1h-4v-2h-3v-1h-3v-1h-1l-1,-1v-3h-1v-3h-2v-2h-1l-1,-1h-1v-1l-1,1h-1l-1,-1v-2h-2v-1h-1v-1h-2v-1h-2v-2h1l2,-1l2,-1v1h3v-1h1v-1l1,-1h-3v-1h-2v-1l-1,-1v-1l-1,-1h1l1,-1h-3v-1h-1v-3l2,-1h1v-1h1l1,-2h-1v-2h1l-1,-1v-1h-1l-1,-1v-3l1,-2v-2h-1v-1h-1v-1h-1l-1,-2l1,-1l-2,-2l-2,1v-1l-1,-2v-6h-1v-1l-1,-1l-1,-1l-1,1l-1,-1l-1,-2l-1,-1v-1h-1l-1,-2v-2h-1v-1h-1l-1,-3v-1h-1v-1h-1v-1Z"/></g></svg>