<svg version="1.1" xmlns="http://www.w3.org/2000/svg" width="1000" height="577" viewBox="0 0 1000 577">
  <path d="M160 23
h 8
l 5 1
h 12
l 8 1
h 13
l 5 1
h 24
l 3 1
h 20
l 14 1
h 3
l 6 1
h 33
l 10 1
h 15
l 17 1
h 64
l 3 1
h 91
l 13 -1
h 58
l 26 -1
h 43
l 5 -1
l 44 -1
l 1 -1
h 23
l 6 -1
h 15
l 33 -1
l 2 -1
h 13
l 14 -1
h 11
l 2 -1
h 7
l 5 -1
h 15
l 4 -1
h 13
l 7 -1
h 5
l 7 -1
l 20 -1
l 31 -2
l 2 1
v 10
l 1 2
v 11
l 1 3
v 7
l 1 3
v 9
l 1 4
v 11
h 1
v 10
l 1 7
v 6
l 1 1
v 11
l 1 2
v 4
l 1 7
v 10
h 1
v 10
l 1 1
v 13
l 1 3
v 11
l 1 1
v 12
h 1
v 12
l 1 2
v 12
l 1 1
v 23
l 1 1
v 13
l 1 1
v 10
l 1 3
v 10
l 1 2
v 10
l 1 2
v 11
h 1
v 12
l 1 6
v 7
l 1 1
v 11
l 1 4
v 6
l 1 8
v 8
l 1 1
v 8
l 1 3
v 2
l 1 9
v 9
l 1 4
v 7
l 1 4
v 11
h 1
v 9
l 1 2
v 11
l 1 8
v 1
l 1 5
v 19
h -7
l -2 1
h -8
l -8 1
h -13
l -12 1
h -7
l -1 1
h -15
l -4 1
h -3
l -32 2
h -6
l -9 1
h -11
l -2 1
l -13 1
h -6
l -15 1
h -15
l -3 1
h -13
v 1
h -27
l -4 1
h -45
l -1 1
h -5
l -51 1
h -5
l -19 1
h -29
l -10 1
h -7
l -3 -1
h -26
l -2 1
h -75
l -12 1
h -12
l -7 -1
h -25
v 60
l -4 -1
v -1
l -3 -1
v -4
h -1
l -3 -3
v -1
l -2 -1
h -1
v -2
h -1
v -3
h 2
l -1 -1
l -1 -1
v -1
h -2
l -1 -1
v -1
h 1
l -2 -2
v -1
h -1
v -2
l -3 -3
h -1
v 1
h -1
v -1
l -1 -1
v -1
l -1 -1
l -2 1
l 1 1
l -1 3
h -1
l -1 -1
h -1
v 1
h -3
v 3
l 1 1
l -1 2
l -1 2
h -2
l 1 1
v 1
h -1
v 1
l -1 1
h 1
l -1 1
v 1
l 1 1
l 1 1
v 1
l 2 1
h 1
v 2
h -4
l -1 -1
v -1
h -3
l -2 -1
h -1
v 1
h -5
v -1
h -3
l -1 1
v 1
h -3
v 1
h -1
v 1
h -4
v 1
h -2
v -1
h -1
l -1 -2
v -1
h -1
v -1
l -1 -1
h -1
v 1
h -4
l -2 1
v 1
l -1 1
v -1
h -1
v 1
l -1 -1
v -1
h -3
v 2
h -1
l -1 -1
h -1
v 1
h -2
v 1
h -1
l -1 -1
h -1
v -2
l -1 1
l -1 -1
l -1 1
v 1
l -1 -1
h -1
l -1 -1
h -1
v -2
h -1
l -1 -1
h -4
v 1
h -1
l -1 1
l -1 1
h -2
l -1 1
v 7
l -1 2
h -2
v -1
l -1 1
h -2
v -2
h -2
v -1
h -2
v 1
h -1
v 1
l -1 -1
v -1
h -2
l -1 -1
h -2
v 1
h -1
v -1
v 1
l -1 -1
v -1
h -2
v 1
v -1
h -5
v -1
h -1
l -1 -1
h -1
l -1 1
l -1 1
h -1
l -4 3
l -3 2
v 3
l 1 1
v 1
l -1 4
v 1
l -2 -1
v -1
h -1
v -1
l -1 -1
v -2
l -1 1
h -1
v -1
h -1
v -1
h -2
l -1 -1
l -2 -2
l -1 -1
l -1 -2
v -1
l -1 -1
l -1 -2
h 1
l 1 -1
l -1 -1
l 1 -1
l -2 -4
l -3 -4
v -2
l 1 -1
l 1 -2
l -1 -4
v -1
l -2 -3
v -1
l -1 -2
l -1 -2
l -1 -1
l 1 -1
v -1
h -1
l -1 -1
h -2
v -1
h -1
v -1
h -1
v -1
h -2
v -1
h -1
v -1
h -2
v 1
h -2
v 1
h -2
v 1
h -2
v 1
h -1
v -2
l -1 -3
h -1
v -1
h -4
v -3
h -1
l -2 -1
v -2
l -1 -1
v -2
l -1 -1
v -1
h -1
v -2
h 4
l 1 -1
v -6
h 1
l -1 -1
v -2
h -1
l 1 -1
v -2
h -1
v -1
v 1
h -1
l -1 -1
v -1
h -1
l -1 -2
v -2
l -2 -1
h -1
v 1
l -2 -2
v -1
l 1 -1
h -2
v -5
l -1 -2
h -1
v -1
h -1
v -1
h -1
v -2
h -1
v -1
l -1 -1
h -1
l -1 -1
l 1 -1
v -2
h -1
v -2
h -1
l -1 -2
h -1
v -6
h 1
h -1
l 1 -1
v -1
h -1
v -1
l -1 -1
h -2
v -1
l 1 -1
h 1
l -1 -1
h -1
v -3
l 1 -1
h -1
l 2 -1
v -3
h -1
v -1
l 1 -1
h -6
v -3
h 1
v -3
h 1
l 1 -1
v -3
h -1
l -1 -1
h -1
l -1 -1
h -4
l 1 -1
v -3
h -2
v -2
h -1
h 1
l -1 -1
v -2
h -1
l -1 1
v -1
l -1 -1
h -2
v 1
h -2
v 1
l -1 1
l 1 1
v 2
l -4 2
v 1
l -2 2
v 1
l -1 1
h -1
l -1 1
v 2
h -2
l -1 1
h -2
v 1
h -3
v -1
h -2
v 3
l -1 1
v 1
l -3 2
l -1 1
v 1
h -2
v 1
h -1
v -2
h -1
l -1 -2
v -1
h -1
l -1 -1
h -2
v -1
l -1 -1
v -1
l -1 -1
l -1 -1
v -1
l -1 -1
l -1 1
v -1
l -2 1
v -1
l -1 -1
h -1
l -1 1
l -1 1
v -1
l -1 1
v -1
l 1 -1
v -2
l 1 -1
l 1 -1
l -1 -2
l -1 -1
v -1
h 2
v -1
h 2
v -1
h 1
v -1
h 1
l -1 -1
h 1
l -1 -1
h -1
h 1
l 1 -2
v -2
h -1
v -1
h -1
l -1 -1
l -1 -2
v -2
h -1
v -1
l 1 -1
h 1
v -1
l 1 -1
v -2
h 1
v -1
h 1
h -1
v -1
h 1
l 1 -1
h 1
v 1
h 1
l 1 -1
h 1
v -1
h 2
v 1
h 1
l 1 -1
v -1
h 1
v -3
h -1
v -1
l -2 -4
h 1
v -1
h 1
v -3
l -1 -1
h -1
v -1
l -1 1
v -1
l -1 -1
l -1 1
l -1 -1
v -1
h 1
v -3
h -1
v 1
l -2 -1
l 1 -1
l 1 -1
h 1
v -1
h 1
v -5
l -1 -1
h -1
v -1
h -1
l -1 -1
v -1
l -1 -1
l 1 -1
h 1
v -2
v 1
h 1
v -1
h 1
l 1 2
v -1
h 1
v -1
h 1
v 1
v -1
l 1 -1
l -1 -4
h 1
v -2
l -1 -1
l -1 -1
v -2
l 1 -1
v 1
h 1
l 1 -1
l 1 -1
v -3
l 1 -2
v -2
l 1 -1
v -1
l -1 -1
l 1 -2
v -2
h 1
v -2
l 1 -1
h 1
l -1 -1
v 1
v -3
l -1 -1
l -1 -3
h 1
l 1 -1
v 1
h 2
l 1 -1
v -5
l 1 -1
v -4
h 1
v -1
h 1
l -1 -1
v -1
l 1 -1
v -2
l -1 -1
h -1
l -1 -1
v -1
h -2
v 1
h -1
l -1 1
v -1
v 1
h -2
l -1 1
l -1 1
h -3
v -1
h -3
v -1
l -1 1
h -2
l -1 1
h -1
v -1
h -1
v -2
h -1
l -1 -1
v -2
l 1 -1
v -1
l 1 -1
l -1 -1
h -1
v -2
h -2
v -1
h -2
v 1
h -1
v 2
h -2
l -2 2
h -1
v -2
h -1
v -2
h 1
v -1
h 1
v -3
h -1
v -1
l -1 -1
h 1
h -4
l -1 -1
v -1
l -1 -1
l -1 -1
h -2
v 1
l -1 -1
l 1 -1
h -1
v -1
h -1
l -1 -1
v -9
h 1
v -1
h -1
v -1
h -1
v -1
l -1 -1
l -1 -2
h -1
v -1
h -1
l -1 -1
v 1
h -1
l -1 -1
l -1 -2
v -4
l -2 -2
v -1
l -1 1
v -1
l -1 -1
l -2 -5
h -1
l -2 -2
v -2
l -1 -1
l -1 -1
h -1
l -1 -1
v -1
l -1 -2
h -2
l -1 -1
l 1 -3
l -1 -1
v -1
h -1
v -2
l -1 -1
h -3
v -1
h -4
v -2
h -3
v -1
h -3
v -1
h -1
l -1 -1
v -3
h -1
v -3
h -2
v -2
h -1
l -1 -1
h -1
v -1
l -1 1
h -1
l -1 -1
v -2
h -2
v -1
h -1
v -1
h -2
v -1
h -2
v -2
h 1
l 2 -1
l 2 -1
v 1
h 3
v -1
h 1
v -1
l 1 -1
h -3
v -1
h -2
v -1
l -1 -1
v -1
l -1 -1
h 1
l 1 -1
h -3
v -1
h -1
v -3
l 2 -1
h 1
v -1
h 1
l 1 -2
h -1
v -2
h 1
l -1 -1
v -1
h -1
l -1 -1
v -3
l 1 -2
v -2
h -1
v -1
h -1
v -1
h -1
l -1 -2
l 1 -1
l -2 -2
l -2 1
v -1
l -1 -2
v -6
h -1
v -1
l -1 -1
l -1 -1
l -1 1
l -1 -1
l -1 -2
l -1 -1
v -1
h -1
l -1 -2
v -2
h -1
v -1
h -1
l -1 -3
v -1
h -1
v -1
h -1
v -19
l 3 -32
v -3
l 1 -8
l 1 -13
v -1
l 1 -7
v -9
l 3 -27
l 8 1
h 9
l 5 1
l 7 1
l 19 1
l 8 1
h 10
l 8 1
l 25 1
h 8
l 3 1
h 9
l 6 1
h 1
Z"/>
<g class="districts">
<path data-race-id="MT00" d="M26 104
l 2 -22
v -3
l 1 -8
l 1 -13
v -1
l 1 -7
l 1 -23
l 2 -13
l 8 1
h 9
l 5 1
l 7 1
l 19 1
l 8 1
h 10
l 8 1
l 25 1
h 8
l 3 1
h 9
l 6 1
h 9
l 5 1
h 12
l 8 1
h 13
l 5 1
h 24
l 3 1
h 20
l 14 1
h 3
l 6 1
h 33
l 10 1
h 15
l 17 1
h 64
l 3 1
h 91
l 13 -1
h 58
l 26 -1
h 43
l 5 -1
l 44 -1
l 1 -1
h 23
l 6 -1
h 15
l 33 -1
l 2 -1
h 13
l 14 -1
h 11
l 2 -1
h 7
l 5 -1
h 15
l 4 -1
h 13
l 7 -1
h 5
l 7 -1
l 20 -1
l 32 -3
l 1 2
v 10
l 1 2
v 11
l 1 3
v 7
l 1 3
v 9
l 1 4
v 11
h 1
v 10
l 1 7
v 6
l 1 1
v 11
l 1 2
v 4
l 1 7
v 10
h 1
v 10
l 1 1
v 13
l 1 3
v 11
l 1 1
v 12
h 1
v 13
l 1 1
v 12
l 1 1
v 23
l 1 1
v 13
l 1 1
v 10
l 1 3
v 10
l 1 2
v 10
l 1 2
v 11
h 1
v 12
l 1 6
v 7
l 1 1
v 11
l 1 4
v 6
l 1 8
v 8
l 1 1
v 8
l 1 2
v 3
l 1 9
v 9
l 1 4
v 7
l 1 4
v 11
h 1
v 9
l 1 2
v 11
l 1 8
v 1
l 1 5
v 19
h -7
l -2 1
h -8
l -8 1
h -13
l -12 1
h -7
l -1 1
h -15
l -4 1
h -3
l -32 2
h -6
l -9 1
h -11
l -2 1
l -13 1
h -6
l -15 1
h -15
l -3 1
h -13
v 1
h -27
l -4 1
h -45
l -1 1
h -5
l -51 1
h -5
l -19 1
h -29
l -10 1
h -7
l -3 -1
h -26
l -2 1
h -75
l -12 1
h -12
l -7 -1
h -25
v 60
l -4 -1
v -1
l -3 -1
v -4
h -1
l -3 -3
v -1
l -2 -1
h -1
v -2
h -1
v -3
h 2
l -1 -1
l -1 -1
v -1
h -2
l -1 -1
v -1
h 1
l -2 -2
v -1
h -1
v -2
l -3 -3
h -1
v 1
h -1
v -1
l -1 -1
v -1
l -1 -1
l -2 1
l 1 1
l -1 3
h -1
l -1 -1
h -1
v 1
h -3
v 3
l 1 1
l -1 2
l -1 2
h -2
l 1 1
v 1
h -1
v 1
l -1 1
h 1
l -1 1
v 1
l 1 1
l 1 1
v 1
l 2 1
h 1
v 2
h -4
l -1 -1
v -1
h -3
l -2 -1
h -1
v 1
h -5
v -1
h -3
l -1 1
v 1
h -3
v 1
h -1
v 1
h -4
v 1
h -2
v -1
h -1
l -1 -2
v -1
h -1
v -1
l -1 -1
h -1
v 1
h -4
l -2 1
v 1
l -1 1
v -1
h -1
v 1
l -1 -1
v -1
h -3
v 2
h -1
l -1 -1
h -1
v 1
h -2
v 1
h -1
l -1 -1
h -1
v -2
l -1 1
l -1 -1
l -1 1
v 1
l -1 -1
h -1
l -1 -1
h -1
v -2
h -1
l -1 -1
h -4
v 1
h -1
l -1 1
l -1 1
h -2
l -1 1
v 7
l -1 2
h -2
v -1
l -1 1
h -2
v -2
h -2
v -1
h -2
v 1
h -1
v 1
l -1 -1
v -1
h -2
l -1 -1
h -2
v 1
h -1
v -1
v 1
l -1 -1
v -1
h -2
v 1
v -1
h -5
v -1
h -1
l -1 -1
h -1
l -1 1
l -1 1
h -1
l -4 3
l -3 2
v 3
l 1 1
v 1
l -1 4
v 1
l -2 -1
v -1
h -1
v -1
l -1 -1
v -2
l -1 1
h -1
v -1
h -1
v -1
h -2
l -1 -1
l -2 -2
l -1 -1
l -1 -2
v -1
l -1 -1
l -1 -2
h 1
l 1 -1
l -1 -1
l 1 -1
l -2 -4
l -3 -4
v -2
l 1 -1
l 1 -2
l -1 -4
v -1
l -2 -3
v -1
l -1 -2
l -1 -2
l -1 -1
l 1 -1
v -1
h -1
l -1 -1
h -2
v -1
h -1
v -1
h -1
v -1
h -2
v -1
h -1
v -1
h -2
v 1
h -2
v 1
h -2
v 1
h -2
v 1
h -1
v -2
l -1 -3
h -1
v -1
h -4
v -3
h -1
l -2 -1
v -2
l -1 -1
v -2
l -1 -1
v -1
h -1
v -2
h 4
l 1 -1
v -6
h 1
l -1 -1
v -2
h -1
l 1 -1
v -2
h -1
v -1
v 1
h -1
l -1 -1
v -1
h -1
l -1 -2
v -2
l -2 -1
h -1
v 1
l -2 -2
v -1
l 1 -1
h -2
v -5
l -1 -2
h -1
v -1
h -1
v -1
h -1
v -2
h -1
v -1
l -1 -1
h -1
l -1 -1
l 1 -1
v -2
h -1
v -2
h -1
l -1 -2
h -1
v -6
h 1
h -1
l 1 -1
v -1
h -1
v -1
l -1 -1
h -2
v -1
l 1 -1
h 1
l -1 -1
h -1
v -3
l 1 -1
h -1
l 2 -1
v -3
h -1
v -1
l 1 -1
h -6
v -3
h 1
v -3
h 1
l 1 -1
v -3
h -1
l -1 -1
h -1
l -1 -1
h -4
l 1 -1
v -3
h -2
v -2
h -1
h 1
l -1 -1
v -2
h -1
l -1 1
v -1
l -1 -1
h -2
v 1
h -2
v 1
l -1 1
l 1 1
v 2
l -4 2
v 1
l -2 2
v 1
l -1 1
h -1
l -1 1
v 2
h -2
l -1 1
h -2
v 1
h -3
v -1
h -2
v 3
l -1 1
v 1
l -3 2
l -1 1
v 1
h -2
v 1
h -1
v -2
h -1
l -1 -2
v -1
h -1
l -1 -1
h -2
v -1
l -1 -1
v -1
l -1 -1
l -1 -1
v -1
l -1 -1
l -1 1
v -1
l -2 1
v -1
l -1 -1
h -1
l -1 1
l -1 1
v -1
l -1 1
v -1
l 1 -1
v -2
l 1 -1
l 1 -1
l -1 -2
l -1 -1
v -1
h 2
v -1
h 2
v -1
h 1
v -1
h 1
l -1 -1
h 1
l -1 -1
h -1
h 1
l 1 -2
v -2
h -1
v -1
h -1
l -1 -1
l -1 -2
v -2
h -1
v -1
l 1 -1
h 1
v -1
l 1 -1
v -2
h 1
v -1
h 1
h -1
v -1
h 1
l 1 -1
h 1
v 1
h 1
l 1 -1
h 1
v -1
h 2
v 1
h 1
l 1 -1
v -1
h 1
v -3
h -1
v -1
l -2 -4
h 1
v -1
h 1
v -3
l -1 -1
h -1
v -1
l -1 1
v -1
l -1 -1
l -1 1
l -1 -1
v -1
h 1
v -3
h -1
v 1
l -2 -1
l 1 -1
l 1 -1
h 1
v -1
h 1
v -5
l -1 -1
h -1
v -1
h -1
l -1 -1
v -1
l -1 -1
l 1 -1
h 1
v -2
v 1
h 1
v -1
h 1
l 1 2
v -1
h 1
v -1
h 1
v 1
v -1
l 1 -1
l -1 -4
h 1
v -2
l -1 -1
l -1 -1
v -2
l 1 -1
v 1
h 1
l 1 -1
l 1 -1
v -3
l 1 -2
v -2
l 1 -1
v -1
l -1 -1
l 1 -2
v -2
h 1
v -2
l 1 -1
h 1
l -1 -1
v 1
v -3
l -1 -1
l -1 -3
h 1
l 1 -1
v 1
h 2
l 1 -1
v -5
l 1 -1
v -4
h 1
v -1
h 1
l -1 -1
v -1
l 1 -1
v -2
l -1 -1
h -1
l -1 -1
v -1
h -2
v 1
h -1
l -1 1
v -1
v 1
h -2
l -1 1
l -1 1
h -3
v -1
h -3
v -1
l -1 1
h -2
l -1 1
h -1
v -1
h -1
v -2
h -1
l -1 -1
v -2
l 1 -1
v -1
l 1 -1
l -1 -1
h -1
v -2
h -2
v -1
h -2
v 1
h -1
v 2
h -2
l -2 2
h -1
v -2
h -1
v -2
h 1
v -1
h 1
v -3
h -1
v -1
l -1 -1
h 1
h -4
l -1 -1
v -1
l -1 -1
l -1 -1
h -2
v 1
l -1 -1
l 1 -1
h -1
v -1
h -1
l -1 -1
v -9
h 1
v -1
h -1
v -1
h -1
v -1
l -1 -1
l -1 -2
h -1
v -1
h -1
l -1 -1
v 1
h -1
l -1 -1
l -1 -2
v -4
l -2 -2
v -1
l -1 1
v -1
l -1 -1
l -2 -5
h -1
l -2 -2
v -2
l -1 -1
l -1 -1
h -1
l -1 -1
v -1
l -1 -2
h -2
l -1 -1
l 1 -3
l -1 -1
v -1
h -1
v -2
l -1 -1
h -3
v -1
h -4
v -2
h -3
v -1
h -3
v -1
h -1
l -1 -1
v -3
h -1
v -3
h -2
v -2
h -1
l -1 -1
h -1
v -1
l -1 1
h -1
l -1 -1
v -2
h -2
v -1
h -1
v -1
h -2
v -1
h -2
v -2
h 1
l 2 -1
l 2 -1
v 1
h 3
v -1
h 1
v -1
l 1 -1
h -3
v -1
h -2
v -1
l -1 -1
v -1
l -1 -1
h 1
l 1 -1
h -3
v -1
h -1
v -3
l 2 -1
h 1
v -1
h 1
l 1 -2
h -1
v -2
h 1
l -1 -1
v -1
h -1
l -1 -1
v -3
l 1 -2
v -2
h -1
v -1
h -1
v -1
h -1
l -1 -2
l 1 -1
l -2 -2
l -2 1
v -1
l -1 -2
v -6
h -1
v -1
l -1 -1
l -1 -1
l -1 1
l -1 -1
l -1 -2
l -1 -1
v -1
h -1
l -1 -2
v -2
h -1
v -1
h -1
l -1 -3
v -1
h -1
v -1
h -1
v -1
Z"/>
</g>

</svg>