<svg version="1.1" xmlns="http://www.w3.org/2000/svg" width="1000" height="382" viewBox="0 0 1000 382">  <path d="M972,123l-5,-9l2,-1l6,19l-2,17v13l-2,6l-1,14l-10,-1l-14,7v-1l12,-6l4,-4l8,-1v-11l2,-2l2,-22v-11ZM926,10l5,21l6,20l6,14l8,12l14,30l-9,-11l1,-4l-9,-11l-1,-8l-5,3l-1,-14l-4,-11l-5,-9l-2,-14l-4,-4l-3,-15ZM947,89l8,8l1,9l-4,-2v-6l-8,-7ZM918,47l1,-3l-8,-7l3,6l4,1v13l5,3l-11,-2l-3,-5l-10,-8l-6,-1l-5,-10l2,9v1l9,6l6,6l3,7l-12,4l-4,-2l-9,-10l9,15l-17,-5l-2,-3l-8,-4l9,10l8,3l-11,2h-9l8,1l-5,7l-12,2l-4,-5l-8,-1v-7l-3,-5v-9l4,-6l-1,-5l-10,-8l-17,-5v1l17,5l8,8l-2,7l-3,5v8l4,7l3,15l-3,3l2,4v-1h1v-2h17l15,-6l3,6v1h11l-6,-2l7,-5l9,-2h11l6,5l-10,2l5,3l5,-2l-5,10l2,23l-12,-3v1l6,3h11h-1l2,-10l-1,-19l9,-7l11,1l-5,-3l5,-1l6,9l2,7v11l2,7h-6l5,7l-5,9l-8,-1l-3,-7l-3,13l-7,3l-3,13l-4,-1v6l-9,6l-13,1l-5,-2l-5,-7l-1,6l-2,-3l-2,-9l-3,7l-7,4l-5,-3l-1,-8l-4,-6l10,1l4,-8l-5,-2l1,5h-10l-8,3l6,5l4,12l-26,-6l-19,-6l-12,-9v1l4,2l11,12l4,-1l8,3l4,4l21,6l1,8v-6h6l2,4l4,-3l3,7l-5,2l3,4l-10,-3l2,4l-10,6l13,1l-3,8l-9,2l7,1l-12,7l-1,3l-10,5l-14,-11v-4l-1,3l-10,-5l-4,4h-6h8l2,-4l6,8l1,5l8,6l10,1l6,4l5,-6l5,1l-2,7l3,-6l-1,-6h6l2,5l1,-7l6,-1l4,5l1,-15l4,2v15l5,1l1,-4l7,1l-4,-6l9,6l-6,4v6l-6,4l-2,-4v7h-3l-4,9l-2,-2l-3,7l-7,1l1,-7l-4,-2l-2,13l-4,-4l-2,-8l-8,3l6,2l-2,3l-19,1l-21,7l1,-5l-6,-7h-1l4,7l-1,4l-7,6l-13,13l-7,-7l4,-5l-3,-8l-7,-4v6l7,5l-8,7l9,5l2,4l-18,11h-1l-16,12l-3,7l-4,1h3v-1v1l-16,18l-2,12l-4,2l-1,-11l-4,-7l2,10l-1,18l-8,12l-12,-3l-27,1l-18,5l-2,-1l-1,-1l-1,-1l-1,-1l-4,-4l-1,-2l-2,-1l-2,-1l-10,-12l-18,-18l-12,-10v-1l-2,-2l-1,-1l-2,-1l-14,-15l-2,-2l-4,-4l-3,-4l-1,-1l-3,-3l-1,-1l-1,-1h-1v-1l-1,-1l-1,-1l-8,-7v-1l-8,-7l-7,-7l-8,-8v-1h-51l-4,-1h-19l-22,-1h-25v-2l1,-11v-2l-3,-5l-2,-3h-1v-1l-1,-2l-5,-7v-1l-2,-2l-2,-2l-1,1l-1,1l-3,1l-6,5h-1l-1,-2v-3l1,-2v-4l-1,-1l1,-1h1v-1h-3l-14,-1l-14,-1h-9l-4,-1h-10l-4,-1h-4l-17,-1h-3l-4,-1h-15l-9,-1h-10l-1,-1h-8l-1,-1h-5v1h-2l-1,1h-1v-1l-1,1v-1h-2v1l-1,1v-1h-1v-4h-1l-1,1l-1,1v-1v1h-1l-1,1h1h-1v2h-1v1h-2v-1h-4v1h-3v1h-1v1v-1h-1v-1h-1v1h-1l1,1h-2v1h-5v1h-1l-1,1h-1v-1h-1v1h-1v1h-2v-1l-1,-1v1l-1,1v2l-1,1v-1v1h-2v1h-1v1h-2v1h-3v-2h-1l-3,1l-12,3l-6,2l-3,1h-1l-5,1v1l-5,1h-17l-23,-1l-15,1l-7,-1h-23l-4,-1h-21l-5,-1l-15,-1l1,-11v-3l1,-3l2,-13l1,-1h1v-1h1l1,-1l1,-1h1l1,-1l1,-1l1,1h1v2h1v1h2l1,-1l1,1v-1l1,1h2v-1h5v-1h1l1,-1h1l1,-1l1,-1l1,-1l1,-1l-1,-1l-1,-1l1,-1v-2h-1l1,-1h-1l1,-1l2,-1l1,-1v-3h-1v-2h-1v-1l2,-1h1v-2h1v-1h1v-1h1l1,-1h1l1,-1h2v-1v1h1v-1l1,-1v-1h1h-1h1v-1h1v-1l1,-1h5v-1h1v1v-1l2,-1v-1h1l1,-1l1,-1h7v-1h7l1,1l1,-1v1v-1h1v-1h1l1,1h1v1h8v1h2v-1h2v-2h1v-1h2v-2l1,-1v1h1v-1l1,1v-1h2v-1h1l1,-1h1v-1h1l1,-1l1,-1v-1h4v1h2l1,-1v-1h1v-1h1v-1h1v-4h1l1,-1h2l1,1v-1h3v-1h1v-1h1v-2h1v-1l1,1l1,-1v1h1v-1h3v-1h1l1,-1v-1l1,1h5l1,1h2v1h1v-1h1l1,-1h1v-1l1,-1v-1l1,-1v-1h1l1,-1v-1h2l-1,-1v-2h1v-1h1v-1h-1v-1h1l-1,-1v-4h1v-2h1v-1h5v1h1v1l1,1v1h1v-1v1l1,-1h1l-1,-1h1v-1h1v-1h1v-2h1v-1h-1v-2h1v-1l2,-1h1l1,-1h1v-1h1v-1h1v-1h2v-1h2v-1h2l1,-1l1,-1v1h1v1h1v1h1v1h1l1,1l-1,1h-1v2h-1v2h1v2h-1v2h4v1h2v-1h2v-1h2v-1h2v-1h1l1,-1h1v-1h1v-1l2,-2l3,-6l1,-1h1l1,-1v-1h2v-1l1,-1h3l1,-1h2l2,-2l1,1l1,1l1,-1v-1h1v1h1v-1l1,-1h1v-1h3v1h1v1l1,-1h3v2h1v4h2l1,-1l1,1h2v-1h2l1,-2h1v1h1l4,-8l1,-1l1,-1v-1l1,-1v-1l1,-1v-1h1v-1l1,-1l3,-5l1,-2h2v-1h1l1,-1v-1h1v-1h2v-1h1v-1h3v-1h1v2h2l1,1h3v-1l1,1h2v-1h-1v-1h-1l1,-1h-1v-2h-1l1,-1v-2h-1v-2h1v-1h1v-2h1v-3h1v-1h1v-4h-1h1v-1l-1,-1v-3h1v-2h1v-2h1v-3h6l7,1h1l3,1h12v1h27v1h18l3,1h29l1,1h18l2,1h15l2,1h140l10,-1h61l1,-1h45l11,-1h26l2,-1h32l4,-1l3,1h5l1,-1h18h-1v-1h26l1,-1h13l17,-1h20l4,-1h12l2,12l6,2l-3,4l7,6l8,11v7l8,14v6l-8,-7l-1,-8ZM911,10h9l1,7l-6,1l1,-5ZM908,213l-14,13l19,-22l3,2ZM883,238l-15,22l1,-5l9,-9v-4ZM712,362v10l-6,-3ZM648,371l-1,-1h-1l18,-6Z"/><g class="districts"><path data-race-id="NC01" d="M595,102v-1l1,-3v-5l1,-8l1,-5v-2l1,-1v-6l1,-1v-5l1,-7h2l10,1h4v-41h51l1,-1h45l11,-1h26l2,-1h32l4,-1l3,1h5l1,-1h18h-1v-1h26l1,-1h13l5,5l5,17l-11,4l-2,2l-4,2l-4,2l-1,-1h-1l-1,2l-10,-8l-17,-5v1l17,5l8,8l-2,7l-3,5v8l4,7l3,15l-3,3l2,4v-1h1v-2h17l15,-6l3,6v1l2,10l-5,9l1,12h-1l-25,-1l-22,1v-2l-15,8l-17,-9h-3l-1,2l3,11v1l2,3h-1h1l1,1h1l1,2l2,1v3l-16,-7l-7,4l-6,-3l-3,7l-7,-1l4,-8l-4,-4l-8,-13l-7,5l-3,2l-2,2l-1,1h-1l-4,3l-13,9h-5v-6l-11,-10l2,-9l4,-1v-6l8,-1l1,-4l5,-15v-4l7,-13l1,-5h-2l-1,2v-1h-1v-1h1h-1l-4,1v-1v1h-13l-3,-5l-5,-1l-2,2v-1l-2,-2h-1l-1,-1v-1l-1,1h-1v-1h-1v1v-1h-2v1h-1v-1v1h-3v-1h-1l-5,-4l-1,-1v1l-7,-1l-7,-1l-7,4l-4,9h-2l-7,-1l-4,11v10l-15,-7h-7l-1,3l2,4l1,-1l2,2l-1,5v2l-3,3v1l-1,1h-2l-3,-1v1l-9,-3l-1,6l-8,-2l-4,2Z"/><path data-race-id="NC02" d="M577,181l18,-23l5,-5l3,-5h1l1,-2v-1h1l-9,-4l2,-7l1,-2l3,-10v-2h9l2,12h3l3,-11l3,5l4,1l3,-4l5,3l-1,6v-1v1v-1v1h1l1,1h1l1,1l1,-5l8,-2l-1,-6l8,-3l1,-13l-4,-3h-12v6l-3,-5l-14,-3l1,-1v-1l3,-3v-2l1,-5l-2,-2l-1,1l-2,-4l1,-3h7l15,7v-10l4,-11l7,1h2l4,-9l7,-4l7,1l7,1v-1l1,1l5,4h1v1h3v-1v1h1v-1h2v1v-1h1v1h1l1,-1v1l1,1h1l2,2v1l2,-2l5,1l3,5h13v-1v1l4,-1h1h-1v1h1v1l1,-2h2l-1,5l-7,13v4l-5,15l-1,4l-8,1v6l-4,1l-2,9l11,10v6h-5l-15,1h-1l-5,-2l-5,2v10l-2,-1l-3,-4l-10,4l-13,8l-1,-1l-2,-6l-5,-1v-1h-2l-9,-5h-1l-1,1v-1h-2l-2,1l-1,1l-1,1l-1,1l-1,1l-2,2l6,2l5,8l1,1v1l2,4h1l1,1v3v-1v1l3,6l-4,3l-4,7l-15,-2h-7l-6,4l-23,5l-14,-10Z"/><path data-race-id="NC03" d="M722,186v-8l2,-7l-2,-9v-20l13,-9l4,-3h1l1,-1l2,-2l3,-2l7,-5l8,13l4,4l-4,8l7,1l3,-7l6,3l7,-4l16,7l4,2l11,12l4,-1l8,3l4,4l21,6l1,8v-6h6l2,4l4,-3l3,7l-5,2l3,4l-10,-3l2,4l-10,6l13,1l-3,8l-9,2l7,1l-12,7l-1,3l-10,5l-14,-11v-4l-1,3l-10,-5l-4,4h-6h8l2,-4l6,8l1,5l8,6l10,1l6,4l5,-6l5,1l-2,7l3,-6l-1,-6h6l2,5l1,-7l6,-1l4,5l1,-15l4,2v15l5,1l1,-4l7,1l-4,-6l9,6l-6,4v6l-6,4l-2,-4v7h-3l-4,9l-2,-2l-3,7l-7,1l1,-7l-4,-2l-2,13l-4,-4l-2,-8l-8,3l6,2l-2,3l-19,1l-21,7l1,-5l-6,-7h-1l4,7l-1,4l-7,6l-13,13l-7,-7l4,-5l-3,-8l-7,-4v6l7,5l-8,7l9,5l2,4l-18,11l-2,-2l-1,-1h-1l-2,-1h-1l-1,-4l-1,-2l-1,-2v-2l-2,-5l-1,-1v-1l-1,-1v-1l-1,-2l-2,-6l-2,-5v-10l1,-3v-2l1,-1v-13l-2,-4v-1l-6,-4l-2,-6v-2l-1,-3v-1l-3,-7l-6,-3ZM800,144v-2l-2,-1l-1,-2h-1l-1,-1h-1h1l-2,-3v-1l-3,-11l1,-2h3l17,9l15,-8v2l22,-1l25,1h1l-1,-12l5,-9l-2,-10h11l-6,-2l7,-5l9,-2h11l6,5l-10,2l5,3l5,-2l-5,10l2,23l-12,-3v1l6,3h11h-1l2,-10l-1,-19l9,-7l11,1l-5,-3l5,-1l6,9l2,7v11l2,7h-6l5,7l-5,9l-8,-1l-3,-7l-3,13l-7,3l-3,13l-4,-1v6l-9,6l-13,1l-5,-2l-5,-7l-1,6l-2,-3l-2,-9l-3,7l-7,4l-5,-3l-1,-8l-4,-6l10,1l4,-8l-5,-2l1,5h-10l-8,3l6,5l4,12l-26,-6l-19,-6ZM841,45l1,-2h1l1,1l4,-2l4,-2l2,-2l11,-4l-5,-17l-5,-5l17,-1h20l4,-1h12l2,12l6,2l-3,4l7,6l8,11v7l8,14v6l-8,-7l-1,-8l-9,-10l1,-3l-8,-7l3,6l4,1v13l5,3l-11,-2l-3,-5l-10,-8l-6,-1l-5,-10l2,9v1l9,6l6,6l3,7l-12,4l-4,-2l-9,-10l9,15l-17,-5l-2,-3l-8,-4l9,10l8,3l-11,2h-9l8,1l-5,7l-12,2l-4,-5l-8,-1v-7l-3,-5v-9l4,-6ZM911,10h9l1,7l-6,1l1,-5ZM926,10l5,21l6,20l6,14l8,12l14,30l-9,-11l1,-4l-9,-11l-1,-8l-5,3l-1,-14l-4,-11l-5,-9l-2,-14l-4,-4l-3,-15ZM972,123l-5,-9l2,-1l6,19l-2,17v13l-2,6l-1,14l-10,-1l-14,7v-1l12,-6l4,-4l8,-1v-11l2,-2l2,-22v-11ZM947,89l8,8l1,9l-4,-2v-6l-8,-7ZM908,213l-14,13l19,-22l3,2ZM883,238l-15,22l1,-5l9,-9v-4Z"/><path data-race-id="NC04" d="M567,102v-3l1,-2v-39h33l-1,7v5l-1,1v6l-1,1v2l-1,5l-1,8v5l-1,3v2l4,-2l8,2l1,-6l9,3v-1l3,1h2l14,3l3,5v-6h12l4,3l-1,13l-8,3l1,6l-8,2l-1,5l-1,-1h-1l-1,-1h-1v-1v1v-1v1l1,-6l-5,-3l-3,4l-4,-1l-3,-5l-3,11h-3l-2,-12h-9l1,-4l1,-1v-2l1,-1v-5l-12,1l-21,-2h-4Z"/><path data-race-id="NC05" d="M269,74v-1h2l1,-2h1v1h1l4,-8l1,-1l1,-1v-1l1,-1v-1l1,-1v-1h1v-1l1,-1l3,-5l1,-2h2v-1h1l1,-1v-1h1v-1h2v-1h1v-1h3v-1h1v2h2l1,1h3v-1l1,1h2v-1h-1v-1h-1l1,-1h-1v-2h-1l1,-1v-2h-1v-2h1v-1h1v-2h1v-3h1v-1h1v-4h-1h1v-1l-1,-1v-3h1v-2h1v-2h1v-3h6l7,1h1l3,1h12v1h27v1h18l3,1h29l1,1h18l2,1h15l2,1h30v28l-1,7v18l-1,17l-2,-1h-2l-14,-1v3l-2,1h-12l-3,2h-1l-1,1v-1l-7,-11l-4,2h-13l-8,-1h-20l-3,-1h-6l-7,2l2,3v1l1,7l-1,1l-3,12l-7,11l-4,-7l-12,1l-1,7v1l-2,-2l-6,-1h-2l3,-2l-1,-19l2,-8l-6,-6l-2,-3h-1l-11,-4l-3,-3l-13,-1l-16,1l3,2l3,2v2h2l-8,14l-3,-1l-4,-2l-7,3l-5,7l-5,-5v-8Z"/><path data-race-id="NC06" d="M483,148v-3l1,-22v-10l1,-8v-4h12l23,2l3,-15l-8,-3l-1,-6l-2,-6l-7,-1l-2,1l-4,-1h-9l-4,-1v-17l1,-7v-28h110l10,-1h10v41h-4l-10,-1h-35v39l-1,2v3l2,4h4l21,2l12,-1v5l-1,1v2l-1,1l-1,4v2l-3,10l-1,2l-2,7l9,4h-1v1l-1,2h-1l-3,5l-5,5l-18,23l-10,-5l-2,-8h-1l-1,-2h-1l-1,-3l-2,-2v-8h-3l-6,1h-36l-31,1Z"/><path data-race-id="NC07" d="M590,313l4,-4l1,-2l2,-5l5,-4l2,-5h2l7,-4l3,3l18,-2l2,2l-2,-5l6,-18l6,1l3,6l11,4l4,-4l-1,-1h-2l-3,-4l3,-4v-7l3,-5l-1,-2l-1,-1l-2,-1l-1,-1v-1l-1,-1v-1l-1,-2l-3,-2l-1,-1l-1,-1v-2l-2,-1l-1,-2l-4,-4l-1,-1v-1l-1,-1l-1,-1l-2,-1l-1,-1h-1v-1l-2,-3l-1,-3v-2h-1v-1l-1,-4l-1,-2l2,-3l1,-1l1,-1h-1l1,-2l1,-5l1,-9l4,-7l4,-3l-3,-6v-1v1v-3l-1,-1h-1l-2,-4v-1l-1,-1l-5,-8l-6,-2l2,-2l1,-1l1,-1l1,-1l1,-1l2,-1h2v1l1,-1h1l9,5h2v1l5,1l2,6l1,1l13,-8l10,-4l3,4l2,1v-10l5,-2l5,2h1l15,-1h10v20l2,9l-2,7v18l6,3l3,7v1l1,3v2l2,6l6,4v1l2,4v13l-1,1v2l-1,3v10l2,5l2,6l1,2v1l1,1v1l1,1l2,5v2l1,2l1,2l1,4h1l2,1h1l1,1l2,2h-1l-16,12l-3,7l-4,1h3v-1v1l-16,18l-2,12l-4,2l-1,-11l-4,-7l2,10l-1,18l-8,12l-12,-3l-27,1l-18,5l-2,-1l-1,-1l-1,-1l-1,-1l-4,-4l-1,-2l-2,-1l-2,-1l-10,-12l-18,-18l-12,-10v-1l-2,-2l-1,-1ZM648,371l-1,-1h-1l18,-6l-16,7ZM712,362v10l-6,-3Z"/><path data-race-id="NC08" d="M406,155h5v-7l-1,-1v-4l-1,-1l7,-2l3,-4l15,-1l1,1h1l1,2l6,-3l-1,-2l2,-2h-1l2,-5l9,2v5l14,12l2,10h13l31,-1h36l6,-1h3v8l2,2l1,3h1l1,2h1l2,8l10,5l-4,5l14,10l23,-5l6,-4h7l15,2l-1,9l-1,5l-1,2h1l-1,1l-1,1l-2,3l-4,-5h-5l-9,-5l-2,8l-3,3l4,2l-7,1v1l2,1l-5,7l-1,3v1h-9l-1,1l-2,2v1h-1l-12,12h-17v-2h1v-2h-1h1v-1h-1v-4l-1,-1l1,-1l-1,-2v-2h-1v-2h-1v-1h-1v-1h-1v-1h-1v-1h-1v-1h-1l-1,-1v-1h-2v-1h-1v-2l-1,-1h-1v-1h-2l-3,-1h-5l-1,-6v-2l-2,-2l-1,-1h-1v-2l-8,-2h-6v1h-5l-7,-1l-4,2l-10,1h-1l-2,2v1l-6,-1l-10,-4l-7,2l-2,-7l-3,2l-5,3h-15l-5,-2l-3,-2l-1,-1l-6,-3l-7,-5v-1h-1l-2,-8l-7,-8l1,-4Z"/><path data-race-id="NC09" d="M413,199l5,-1v-5l7,-2l6,3l1,1l3,2l5,2h15l5,-3l3,-2l2,7l7,-2l10,4l6,1v-1l2,-2h1l10,-1l4,-2l7,1h5v-1h6l8,2v2h1l1,1l2,2v2l1,6h5l3,1h2v1h1l1,1v2h1v1h2v1l1,1h1v1h1v1h1v1h1v1h1v1h1v2h1v2l1,2l-1,1l1,1v4h1v1h-1h1v2h-1v2h17l12,-12h1v-1l2,-2l1,-1h9v-1l1,-3l5,-7l-2,-1v-1l7,-1l-4,-2l3,-3l2,-8l9,5h5l4,5l1,2l1,4v1h1v2l1,3l2,3v1h1l1,1l2,1l1,1l1,1v1l1,1l4,4l1,2l2,1v2l1,1l1,1l3,2l1,2v1l1,1v1l1,1l2,1l1,1l1,2l-3,5v7l-3,4l3,4h2l1,1l-4,4l-11,-4l-3,-6l-6,-1l-6,18l2,5l-2,-2l-18,2l-3,-3l-7,4h-2l-2,5l-5,4l-2,5l-1,2l-4,4l-2,-1l-14,-15l-2,-2l-4,-4l-3,-4l-1,-1l-3,-3l-1,-1l-1,-1h-1v-1l-1,-1l-1,-1l-8,-7v-1l-8,-7l-7,-7l-8,-8v-1h-51l-4,-1h-19l-22,-1h-25v-2l1,-11v-2l-3,-5l-2,-3h-1v-2l2,-1l1,-1l-2,-2l-1,-6l-4,-2l5,-15l5,10l7,-1Z"/><path data-race-id="NC10" d="M213,140v-2h1l2,-1l2,-1v-1v1v-4l1,-1h6l13,-6l2,-5l6,4h1v2l-1,4v2l1,4v2l-1,1l3,6l8,4l3,2l14,-2l4,1l15,-2l2,-4l6,-4h3v1h1v-1h1v2v-1v1h1l1,2h1l6,1l1,1h1l1,-1l1,1h7v-1l1,-2l1,-1l1,-1v-1l5,-4l1,-2l2,-4l2,-3l2,-2v-1l3,-4l1,-2h2l6,1l2,2v-1l1,-7l12,-1l4,7l4,9h6l6,-3l5,4l3,5l-5,5l-4,10l1,8v11l-7,15v18l-3,1v-1h-3l-14,-1l-14,-1h-9l-4,-1h-10l-4,-1h-4l-17,-1h-3l-4,-1h-15l-9,-1h-10l-1,-1h-8l-1,-1h-5v1h-2l-1,1h-1v-1l-1,1v-1h-1l1,-12l4,-4l5,-10v-10l-9,-3l-1,3v1l-5,-2h-2l-5,3h-3l-3,-3l-1,-11v-2l-5,-2v1Z"/><path data-race-id="NC11" d="M25,212l1,-11v-3l1,-3l2,-13l1,-1h1v-1h1l1,-1l1,-1h1l1,-1l1,-1l1,1h1v2h1v1h2l1,-1l1,1v-1l1,1h2v-1h5v-1h1l1,-1h1l1,-1l1,-1l1,-1l1,-1l-1,-1l-1,-1l1,-1v-2h-1l1,-1h-1l1,-1l2,-1l1,-1v-3h-1v-2h-1v-1l2,-1h1v-2h1v-1h1v-1h1l1,-1h1l1,-1h2v-1v1h1v-1l1,-1v-1h1h-1h1v-1h1v-1l1,-1h5v-1h1v1v-1l2,-1v-1h1l1,-1l1,-1h7v-1h7l1,1l1,-1v1v-1h1v-1h1l1,1h1v1h8v1h2v-1h2v-2h1v-1h2v-2l1,-1v1h1v-1l1,1v-1h2v-1h1l1,-1h1v-1h1l1,-1l1,-1v-1h4v1h2l1,-1v-1h1v-1h1v-1h1v-4h1l1,-1h2l1,1v-1h3v-1h1v-1h1v-2h1v-1l1,1l1,-1v1h1v-1h3v-1h1l1,-1v-1l1,1h5l1,1h2v1h1v-1h1l1,-1h1v-1l1,-1v-1l1,-1v-1h1l1,-1v-1h2l-1,-1v-2h1v-1h1v-1h-1v-1h1l-1,-1v-4h1v-2h1v-1h5v1h1v1l1,1v1h1v-1v1l1,-1h1l-1,-1h1v-1h1v-1h1v-2h1v-1h-1v-2h1v-1l2,-1h1l1,-1h1v-1h1v-1h1v-1h2v-1h2v-1h2l1,-1l1,-1v1h1v1h1v1h1v1h1l1,1l-1,1h-1v2h-1v2h1v2h-1v2h4v1h2v-1h2v-1h2v-1h2v-1h1l1,-1h1v-1h1v-1l2,-2l3,-6l1,-1h1l1,-1v-1h2v-1l1,-1h3l1,-1h2l2,-2l1,1l1,1l1,-1v-1h1v1h1v-1l1,-1h1v-1h3v1h1v1l1,-1h3v2h1v4h2l1,-1l1,1h2l4,13v8l5,5l5,-7l7,-3l4,2l3,1l8,-14h-2v-2l-3,-2l-3,-2l16,-1l13,1l3,3l11,4h1l2,3l6,6l-2,8l1,19l-3,2l-1,2l-3,4v1l-2,2l-2,3l-2,4l-1,2l-5,4v1l-1,1l-1,1l-1,2v1h-7l-1,-1l-1,1h-1l-1,-1l-6,-1h-1l-1,-2h-1v-1v1v-2h-1v1h-1v-1h-3l-6,4l-2,4l-15,2l-4,-1l-14,2l-3,-2l-8,-4l-3,-6l1,-1v-2l-1,-4v-2l1,-4v-2h-1l-6,-4l-2,5l-13,6h-6l-1,1v4v-1v1l-2,1l-2,1h-1v4v-1l5,2v2l1,11l3,3h3l5,-3h2l5,2v-1l1,-3l9,3v10l-5,10l-4,4l-1,12h-1v1l-1,1v-1h-1v-4h-1l-1,1l-1,1v-1v1h-1l-1,1h1h-1v2h-1v1h-2v-1h-4v1h-3v1h-1v1v-1h-1v-1h-1v1h-1l1,1h-2v1h-5v1h-1l-1,1h-1v-1h-1v1h-1v1h-2v-1l-1,-1v1l-1,1v2l-1,1v-1v1h-2v1h-1v1h-2v1h-3v-2h-1l-3,1l-12,3l-6,2l-3,1h-1l-5,1v1l-5,1h-17l-23,-1l-15,1l-7,-1h-23l-4,-1h-21l-5,-1l-15,-1Z"/><path data-race-id="NC12" d="M376,210l1,-2v-4l-1,-1l1,-1h1l3,-1v-18l7,-15v-11l4,-2l1,-2l4,1h8l1,1l3,10l-1,4l7,8l2,8h1v1l7,5l-7,2v5l-5,1l-1,3l-7,1l-5,-10l-5,15l4,2l1,6l2,2l-1,1l-2,1v1l-1,-2l-5,-7v-1l-2,-2l-2,-2l-1,1l-1,1l-3,1l-6,5h-1l-1,-2Z"/><path data-race-id="NC13" d="M372,119l7,-11l3,-12l1,-1l-1,-7v-1l-2,-3l7,-2h6l3,1h20l8,1h13l4,-2l7,11v1l1,-1h1l3,-2h12l2,-1v-3l14,1h2l2,1l1,-17v-1l4,1h9l4,1l2,-1l7,1l2,6l1,6l8,3l-3,15l-23,-2h-12v4l-1,8v10l-1,22v10h-13l-2,-10l-14,-12v-5l-9,-2l-2,5h1l-2,2l1,2l-6,3l-1,-2h-1l-1,-1l-15,1l-3,4l-7,2l1,1v4l1,1v7h-5l-1,-1h-8l-4,-1l-1,2l-4,2l-1,-8l4,-10l5,-5l-3,-5l-5,-4l-6,3h-6Z"/></g>  <path class="districts-mesh" d="M855,12l5,5l5,17l-11,4l-2,2l-4,2l-4,2l-1,-1h-1l-1,2M237,193l1,-12l4,-4l5,-10v-10l-9,-3l-1,3v1l-5,-2h-2l-5,3h-3l-3,-3l-1,-11v-2l-5,-2v1v-4h1l2,-1l2,-1M218,136v-1v1v-4l1,-1h6l13,-6l2,-5l6,4h1v2l-1,4v2l1,4v2l-1,1l3,6l8,4l3,2l14,-2l4,1l15,-2l2,-4l6,-4h3v1h1v-1h1v1M691,61h-1v-1h-1l-5,-4l-1,-1v1l-7,-1l-7,-1l-7,4l-4,9h-2l-7,-1l-4,11v10l-15,-7h-7l-1,3l2,4l1,-1l2,2l-1,5v2l-3,3v1l-1,1h-2l-3,-1v1l-9,-3l-1,6l-8,-2l-4,2v-2l1,-3v-5l1,-8l1,-5v-2l1,-1v-6l1,-1v-5l1,-7h2l10,1h4v-41M876,93l2,10l-5,9l1,12h-1l-25,-1l-22,1v-2l-15,8l-17,-9h-3l-1,2l3,11v1l2,3h-1h1l1,1h1l1,2l2,1v2M590,313l4,-4l1,-2l2,-5l5,-4l2,-5h2l7,-4l3,3l18,-2l2,2l-2,-5l6,-18l6,1l3,6l11,4l4,-4l-1,-1h-2l-3,-4l3,-4v-7l3,-5l-1,-2l-1,-1l-2,-1l-1,-1v-1l-1,-1v-1l-1,-2l-3,-2l-1,-1l-1,-1v-2l-2,-1l-1,-2l-4,-4l-1,-1v-1l-1,-1l-1,-1l-2,-1l-1,-1h-1v-1l-2,-3l-1,-3v-2h-1v-1l-1,-4l-1,-2l2,-3l1,-1l1,-1h-1l1,-2l1,-5l1,-9M759,292l-2,-2l-1,-1h-1l-2,-1h-1l-1,-4l-1,-2l-1,-2v-2l-2,-5l-1,-1v-1l-1,-1v-1l-1,-2l-2,-6l-2,-5v-10l1,-3v-2l1,-1v-13l-2,-4v-1l-6,-4l-2,-6v-2l-1,-3v-1l-3,-7l-6,-3v-18l2,-7l-2,-9v-20M548,217v-1l-1,-1h-1v-1h-2l-3,-1h-5l-1,-6v-2l-2,-2l-1,-1h-1v-2l-8,-2h-6v1h-5l-7,-1l-4,2l-10,1h-1l-2,2v1l-6,-1l-10,-4l-7,2l-2,-7l-3,2l-5,3h-15l-5,-2l-3,-2l-1,-1l-6,-3l-7,-5v-1h-1l-2,-8l-7,-8l1,-4l-3,-10h5v-7l-1,-1v-4l-1,-1l7,-2l3,-4l15,-1l1,1h1l1,2l6,-3l-1,-2l2,-2h-1l2,-5l9,2v5l14,12l2,10h13M632,210l-4,-5h-5l-9,-5l-2,8l-3,3l4,2l-7,1v1l2,1l-5,7l-1,3v1h-9l-1,1l-2,2v1h-1l-12,12h-17v-2h1v-2h-1h1v-1h-1v-3M800,145l-16,-7l-7,4l-6,-3l-3,7l-7,-1l4,-8l-4,-4l-8,-13l-7,5l-3,2l-2,2l-1,1h-1l-4,3l-13,9h-10l-15,1h-1l-5,-2l-5,2v10l-2,-1l-3,-4l-10,4l-13,8l-1,-1l-2,-6l-5,-1v-1h-2l-9,-5h-1l-1,1v-1h-2l-2,1l-1,1l-1,1l-1,1l-1,1l-2,2l6,2l5,8l1,1v1l2,4h1l1,1v3l3,6l-4,3l-4,7l-15,-2h-7l-6,4l-23,5l-14,-10l4,-5l18,-23l5,-5l3,-5h1l1,-2v-1h1l-9,-4l2,-7l1,-2l3,-10v-2l1,-4l1,-1v-2l1,-1v-5l-12,1l-21,-2h-4l-2,-4v-3l1,-2v-39h33M560,235v-1l-1,-1l1,-1l-1,-2v-2h-1v-2h-1v-1h-1v-1h-1v-1h-1v-1h-1v-1h-1l-1,-1v-1h-2v-1h-1v-1M399,221v-1l2,-1l1,-1l-2,-2l-1,-6l-4,-2l5,-15l5,10l7,-1l1,-3l5,-1v-5l7,-2M487,19v28l-1,7v18l-1,17l-2,-1h-2l-14,-1v3l-2,1h-12l-3,2h-1l-1,1v-1l-7,-11l-4,2h-13l-8,-1h-20l-3,-1h-6l-7,2l2,3v1l1,7l-1,1l-3,12l-7,11l-4,-7l-12,1l-1,7v1l-2,-2l-6,-1h-2l3,-2l-1,-19l2,-8l-6,-6l-2,-3h-1l-11,-4l-3,-3l-13,-1l-16,1l3,2l3,2v2h2l-8,14l-3,-1l-4,-2l-7,3l-5,7l-5,-5v-8l-4,-13M577,181l-10,-5l-2,-8h-1l-1,-2h-1l-1,-3l-2,-2v-8h-3l-6,1h-36l-31,1v-10l1,-22v-10l1,-8v-4h12l23,2l3,-15l-8,-3l-1,-6l-2,-6l-7,-1l-2,1l-4,-1h-9l-4,-1M306,141v1v-1v1h1l1,2h1l6,1l1,1h1l1,-1l1,1h7v-1l1,-2l1,-1l1,-1v-1l5,-4l1,-2l2,-4l2,-3l2,-2v-1l3,-4l1,-2M372,119l4,9h6l6,-3l5,4l3,5l-5,5l-4,10l1,8v11l-7,15v18l-3,1M717,142v-6l-11,-10l2,-9l4,-1v-6l8,-1l1,-4l5,-15v-4l7,-13l1,-5h-2l-1,2v-1h-1v-1h1h-1l-4,1v-1v1h-13l-3,-5l-5,-1l-2,2v-1l-2,-2h-1l-1,-1v-1l-1,1h-1v-1h-1v1v-1h-2v1h-1v-1v1h-2M388,157l4,-2l1,-2l4,1h8l1,1M603,120h9l2,12h3l3,-11l3,5l4,1l3,-4l5,3l-1,6v-1v1h1l1,1h1l1,1l1,-5l8,-2l-1,-6l8,-3l1,-13l-4,-3h-12v6l-3,-5l-14,-3"/></svg>