<svg version="1.1" xmlns="http://www.w3.org/2000/svg" width="1000" height="382" viewBox="0 0 1000 382">
  <path d="M972 123
l -5 -9
l 2 -1
l 6 19
l -2 17
v 13
l -2 6
l -1 14
l -10 -1
l -14 7
v -1
l 12 -6
l 4 -4
l 8 -1
v -11
l 2 -2
l 2 -22
v -11
Z
M926 10
l 5 21
l 6 20
l 6 14
l 8 12
l 14 30
l -9 -11
l 1 -4
l -9 -11
l -1 -8
l -5 3
l -1 -14
l -4 -11
l -5 -9
l -2 -14
l -4 -4
l -3 -15
Z
M947 89
l 8 8
l 1 9
l -4 -2
v -6
l -8 -7
Z
M918 47
l 1 -3
l -8 -7
l 3 6
l 4 1
v 13
l 5 3
l -11 -2
l -3 -5
l -10 -8
l -6 -1
l -5 -10
l 2 9
v 1
l 9 6
l 6 6
l 3 7
l -12 4
l -4 -2
l -9 -10
l 9 15
l -17 -5
l -2 -3
l -8 -4
l 9 10
l 8 3
l -11 2
h -9
l 8 1
l -5 7
l -12 2
l -4 -5
l -8 -1
v -7
l -3 -5
v -9
l 4 -6
l -1 -5
l -10 -8
l -17 -5
v 1
l 17 5
l 8 8
l -2 7
l -3 5
v 8
l 4 7
l 3 15
l -3 3
l 2 4
v -1
h 1
v -2
h 17
l 15 -6
l 3 6
v 1
h 11
l -6 -2
l 7 -5
l 9 -2
h 11
l 6 5
l -10 2
l 5 3
l 5 -2
l -5 10
l 2 23
l -12 -3
v 1
l 6 3
h 11
h -1
l 2 -10
l -1 -19
l 9 -7
l 11 1
l -5 -3
l 5 -1
l 6 9
l 2 7
v 11
l 2 7
h -6
l 5 7
l -5 9
l -8 -1
l -3 -7
l -3 13
l -7 3
l -3 13
l -4 -1
v 6
l -9 6
l -13 1
l -5 -2
l -5 -7
l -1 6
l -2 -3
l -2 -9
l -3 7
l -7 4
l -5 -3
l -1 -8
l -4 -6
l 10 1
l 4 -8
l -5 -2
l 1 5
h -10
l -8 3
l 6 5
l 4 12
l -26 -6
l -19 -6
l -12 -9
v 1
l 4 2
l 11 12
l 4 -1
l 8 3
l 4 4
l 21 6
l 1 8
v -6
h 6
l 2 4
l 4 -3
l 3 7
l -5 2
l 3 4
l -10 -3
l 2 4
l -10 6
l 13 1
l -3 8
l -9 2
l 7 1
l -12 7
l -1 3
l -10 5
l -14 -11
v -4
l -1 3
l -10 -5
l -4 4
h -6
h 8
l 2 -4
l 6 8
l 1 5
l 8 6
l 10 1
l 6 4
l 5 -6
l 5 1
l -2 7
l 3 -6
l -1 -6
h 6
l 2 5
l 1 -7
l 6 -1
l 4 5
l 1 -15
l 4 2
v 15
l 5 1
l 1 -4
l 7 1
l -4 -6
l 9 6
l -6 4
v 6
l -6 4
l -2 -4
v 7
h -3
l -4 9
l -2 -2
l -3 7
l -7 1
l 1 -7
l -4 -2
l -2 13
l -4 -4
l -2 -8
l -8 3
l 6 2
l -2 3
l -19 1
l -21 7
l 1 -5
l -6 -7
h -1
l 4 7
l -1 4
l -7 6
l -13 13
l -7 -7
l 4 -5
l -3 -8
l -7 -4
v 6
l 7 5
l -8 7
l 9 5
l 2 4
l -18 11
h -1
l -16 12
l -3 7
l -4 1
h 3
v -1
v 1
l -16 18
l -2 12
l -4 2
l -1 -11
l -4 -7
l 2 10
l -1 18
l -8 12
l -12 -3
l -27 1
l -18 5
l -2 -1
l -1 -1
l -1 -1
l -1 -1
l -4 -4
l -1 -2
l -2 -1
l -2 -1
l -10 -12
l -18 -18
l -12 -10
v -1
l -2 -2
l -1 -1
l -2 -1
l -14 -15
l -2 -2
l -4 -4
l -3 -4
l -1 -1
l -3 -3
l -1 -1
l -1 -1
h -1
v -1
l -1 -1
l -1 -1
l -8 -7
v -1
l -8 -7
l -7 -7
l -8 -8
v -1
h -51
l -4 -1
h -19
l -22 -1
h -25
v -2
l 1 -11
v -2
l -3 -5
l -2 -3
h -1
v -1
l -1 -2
l -5 -7
v -1
l -2 -2
l -2 -2
l -1 1
l -1 1
l -3 1
l -6 5
h -1
l -1 -2
v -3
l 1 -2
v -4
l -1 -1
l 1 -1
h 1
v -1
h -3
l -14 -1
l -14 -1
h -9
l -4 -1
h -10
l -4 -1
h -4
l -17 -1
h -3
l -4 -1
h -15
l -9 -1
h -10
l -1 -1
h -8
l -1 -1
h -5
v 1
h -2
l -1 1
h -1
v -1
l -1 1
v -1
h -2
v 1
l -1 1
v -1
h -1
v -4
h -1
l -1 1
l -1 1
v -1
v 1
h -1
l -1 1
h 1
h -1
v 2
h -1
v 1
h -2
v -1
h -4
v 1
h -3
v 1
h -1
v 1
v -1
h -1
v -1
h -1
v 1
h -1
l 1 1
h -2
v 1
h -5
v 1
h -1
l -1 1
h -1
v -1
h -1
v 1
h -1
v 1
h -2
v -1
l -1 -1
v 1
l -1 1
v 2
l -1 1
v -1
v 1
h -2
v 1
h -1
v 1
h -2
v 1
h -3
v -2
h -1
l -3 1
l -12 3
l -6 2
l -3 1
h -1
l -5 1
v 1
l -5 1
h -17
l -23 -1
l -15 1
l -7 -1
h -23
l -4 -1
h -21
l -5 -1
l -15 -1
l 1 -11
v -3
l 1 -3
l 2 -13
l 1 -1
h 1
v -1
h 1
l 1 -1
l 1 -1
h 1
l 1 -1
l 1 -1
l 1 1
h 1
v 2
h 1
v 1
h 2
l 1 -1
l 1 1
v -1
l 1 1
h 2
v -1
h 5
v -1
h 1
l 1 -1
h 1
l 1 -1
l 1 -1
l 1 -1
l 1 -1
l -1 -1
l -1 -1
l 1 -1
v -2
h -1
l 1 -1
h -1
l 1 -1
l 2 -1
l 1 -1
v -3
h -1
v -2
h -1
v -1
l 2 -1
h 1
v -2
h 1
v -1
h 1
v -1
h 1
l 1 -1
h 1
l 1 -1
h 2
v -1
v 1
h 1
v -1
l 1 -1
v -1
h 1
h -1
h 1
v -1
h 1
v -1
l 1 -1
h 5
v -1
h 1
v 1
v -1
l 2 -1
v -1
h 1
l 1 -1
l 1 -1
h 7
v -1
h 7
l 1 1
l 1 -1
v 1
v -1
h 1
v -1
h 1
l 1 1
h 1
v 1
h 8
v 1
h 2
v -1
h 2
v -2
h 1
v -1
h 2
v -2
l 1 -1
v 1
h 1
v -1
l 1 1
v -1
h 2
v -1
h 1
l 1 -1
h 1
v -1
h 1
l 1 -1
l 1 -1
v -1
h 4
v 1
h 2
l 1 -1
v -1
h 1
v -1
h 1
v -1
h 1
v -4
h 1
l 1 -1
h 2
l 1 1
v -1
h 3
v -1
h 1
v -1
h 1
v -2
h 1
v -1
l 1 1
l 1 -1
v 1
h 1
v -1
h 3
v -1
h 1
l 1 -1
v -1
l 1 1
h 5
l 1 1
h 2
v 1
h 1
v -1
h 1
l 1 -1
h 1
v -1
l 1 -1
v -1
l 1 -1
v -1
h 1
l 1 -1
v -1
h 2
l -1 -1
v -2
h 1
v -1
h 1
v -1
h -1
v -1
h 1
l -1 -1
v -4
h 1
v -2
h 1
v -1
h 5
v 1
h 1
v 1
l 1 1
v 1
h 1
v -1
v 1
l 1 -1
h 1
l -1 -1
h 1
v -1
h 1
v -1
h 1
v -2
h 1
v -1
h -1
v -2
h 1
v -1
l 2 -1
h 1
l 1 -1
h 1
v -1
h 1
v -1
h 1
v -1
h 2
v -1
h 2
v -1
h 2
l 1 -1
l 1 -1
v 1
h 1
v 1
h 1
v 1
h 1
v 1
h 1
l 1 1
l -1 1
h -1
v 2
h -1
v 2
h 1
v 2
h -1
v 2
h 4
v 1
h 2
v -1
h 2
v -1
h 2
v -1
h 2
v -1
h 1
l 1 -1
h 1
v -1
h 1
v -1
l 2 -2
l 3 -6
l 1 -1
h 1
l 1 -1
v -1
h 2
v -1
l 1 -1
h 3
l 1 -1
h 2
l 2 -2
l 1 1
l 1 1
l 1 -1
v -1
h 1
v 1
h 1
v -1
l 1 -1
h 1
v -1
h 3
v 1
h 1
v 1
l 1 -1
h 3
v 2
h 1
v 4
h 2
l 1 -1
l 1 1
h 2
v -1
h 2
l 1 -2
h 1
v 1
h 1
l 4 -8
l 1 -1
l 1 -1
v -1
l 1 -1
v -1
l 1 -1
v -1
h 1
v -1
l 1 -1
l 3 -5
l 1 -2
h 2
v -1
h 1
l 1 -1
v -1
h 1
v -1
h 2
v -1
h 1
v -1
h 3
v -1
h 1
v 2
h 2
l 1 1
h 3
v -1
l 1 1
h 2
v -1
h -1
v -1
h -1
l 1 -1
h -1
v -2
h -1
l 1 -1
v -2
h -1
v -2
h 1
v -1
h 1
v -2
h 1
v -3
h 1
v -1
h 1
v -4
h -1
h 1
v -1
l -1 -1
v -3
h 1
v -2
h 1
v -2
h 1
v -3
h 6
l 7 1
h 1
l 3 1
h 12
v 1
h 27
v 1
h 18
l 3 1
h 29
l 1 1
h 18
l 2 1
h 15
l 2 1
h 140
l 10 -1
h 61
l 1 -1
h 45
l 11 -1
h 26
l 2 -1
h 32
l 4 -1
l 3 1
h 5
l 1 -1
h 18
h -1
v -1
h 26
l 1 -1
h 13
l 17 -1
h 20
l 4 -1
h 12
l 2 12
l 6 2
l -3 4
l 7 6
l 8 11
v 7
l 8 14
v 6
l -8 -7
l -1 -8
Z
M911 10
h 9
l 1 7
l -6 1
l 1 -5
Z
M908 213
l -14 13
l 19 -22
l 3 2
Z
M883 238
l -15 22
l 1 -5
l 9 -9
v -4
Z
M712 362
v 10
l -6 -3
Z
M648 371
l -1 -1
h -1
l 18 -6
Z"/>
<g class="districts">
<path data-race-id="NC01" d="M595 102
v -1
l 1 -3
v -5
l 1 -8
l 1 -5
v -2
l 1 -1
v -6
l 1 -1
v -5
l 1 -7
h 2
l 10 1
h 4
v -41
h 51
l 1 -1
h 45
l 11 -1
h 26
l 2 -1
h 32
l 4 -1
l 3 1
h 5
l 1 -1
h 18
h -1
v -1
h 26
l 1 -1
h 13
l 5 5
l 5 17
l -11 4
l -2 2
l -4 2
l -4 2
l -1 -1
h -1
l -1 2
l -10 -8
l -17 -5
v 1
l 17 5
l 8 8
l -2 7
l -3 5
v 8
l 4 7
l 3 15
l -3 3
l 2 4
v -1
h 1
v -2
h 17
l 15 -6
l 3 6
v 1
l 2 10
l -5 9
l 1 12
h -1
l -25 -1
l -22 1
v -2
l -15 8
l -17 -9
h -3
l -1 2
l 3 11
v 1
l 2 3
h -1
h 1
l 1 1
h 1
l 1 2
l 2 1
v 3
l -16 -7
l -7 4
l -6 -3
l -3 7
l -7 -1
l 4 -8
l -4 -4
l -8 -13
l -7 5
l -3 2
l -2 2
l -1 1
h -1
l -4 3
l -13 9
h -5
v -6
l -11 -10
l 2 -9
l 4 -1
v -6
l 8 -1
l 1 -4
l 5 -15
v -4
l 7 -13
l 1 -5
h -2
l -1 2
v -1
h -1
v -1
h 1
h -1
l -4 1
v -1
v 1
h -13
l -3 -5
l -5 -1
l -2 2
v -1
l -2 -2
h -1
l -1 -1
v -1
l -1 1
h -1
v -1
h -1
v 1
v -1
h -2
v 1
h -1
v -1
v 1
h -3
v -1
h -1
l -5 -4
l -1 -1
v 1
l -7 -1
l -7 -1
l -7 4
l -4 9
h -2
l -7 -1
l -4 11
v 10
l -15 -7
h -7
l -1 3
l 2 4
l 1 -1
l 2 2
l -1 5
v 2
l -3 3
v 1
l -1 1
h -2
l -3 -1
v 1
l -9 -3
l -1 6
l -8 -2
l -4 2
Z"/>
<path data-race-id="NC02" d="M577 181
l 18 -23
l 5 -5
l 3 -5
h 1
l 1 -2
v -1
h 1
l -9 -4
l 2 -7
l 1 -2
l 3 -10
v -2
h 9
l 2 12
h 3
l 3 -11
l 3 5
l 4 1
l 3 -4
l 5 3
l -1 6
v -1
v 1
v -1
v 1
h 1
l 1 1
h 1
l 1 1
l 1 -5
l 8 -2
l -1 -6
l 8 -3
l 1 -13
l -4 -3
h -12
v 6
l -3 -5
l -14 -3
l 1 -1
v -1
l 3 -3
v -2
l 1 -5
l -2 -2
l -1 1
l -2 -4
l 1 -3
h 7
l 15 7
v -10
l 4 -11
l 7 1
h 2
l 4 -9
l 7 -4
l 7 1
l 7 1
v -1
l 1 1
l 5 4
h 1
v 1
h 3
v -1
v 1
h 1
v -1
h 2
v 1
v -1
h 1
v 1
h 1
l 1 -1
v 1
l 1 1
h 1
l 2 2
v 1
l 2 -2
l 5 1
l 3 5
h 13
v -1
v 1
l 4 -1
h 1
h -1
v 1
h 1
v 1
l 1 -2
h 2
l -1 5
l -7 13
v 4
l -5 15
l -1 4
l -8 1
v 6
l -4 1
l -2 9
l 11 10
v 6
h -5
l -15 1
h -1
l -5 -2
l -5 2
v 10
l -2 -1
l -3 -4
l -10 4
l -13 8
l -1 -1
l -2 -6
l -5 -1
v -1
h -2
l -9 -5
h -1
l -1 1
v -1
h -2
l -2 1
l -1 1
l -1 1
l -1 1
l -1 1
l -2 2
l 6 2
l 5 8
l 1 1
v 1
l 2 4
h 1
l 1 1
v 3
v -1
v 1
l 3 6
l -4 3
l -4 7
l -15 -2
h -7
l -6 4
l -23 5
l -14 -10
Z"/>
<path data-race-id="NC03" d="M722 186
v -8
l 2 -7
l -2 -9
v -20
l 13 -9
l 4 -3
h 1
l 1 -1
l 2 -2
l 3 -2
l 7 -5
l 8 13
l 4 4
l -4 8
l 7 1
l 3 -7
l 6 3
l 7 -4
l 16 7
l 4 2
l 11 12
l 4 -1
l 8 3
l 4 4
l 21 6
l 1 8
v -6
h 6
l 2 4
l 4 -3
l 3 7
l -5 2
l 3 4
l -10 -3
l 2 4
l -10 6
l 13 1
l -3 8
l -9 2
l 7 1
l -12 7
l -1 3
l -10 5
l -14 -11
v -4
l -1 3
l -10 -5
l -4 4
h -6
h 8
l 2 -4
l 6 8
l 1 5
l 8 6
l 10 1
l 6 4
l 5 -6
l 5 1
l -2 7
l 3 -6
l -1 -6
h 6
l 2 5
l 1 -7
l 6 -1
l 4 5
l 1 -15
l 4 2
v 15
l 5 1
l 1 -4
l 7 1
l -4 -6
l 9 6
l -6 4
v 6
l -6 4
l -2 -4
v 7
h -3
l -4 9
l -2 -2
l -3 7
l -7 1
l 1 -7
l -4 -2
l -2 13
l -4 -4
l -2 -8
l -8 3
l 6 2
l -2 3
l -19 1
l -21 7
l 1 -5
l -6 -7
h -1
l 4 7
l -1 4
l -7 6
l -13 13
l -7 -7
l 4 -5
l -3 -8
l -7 -4
v 6
l 7 5
l -8 7
l 9 5
l 2 4
l -18 11
l -2 -2
l -1 -1
h -1
l -2 -1
h -1
l -1 -4
l -1 -2
l -1 -2
v -2
l -2 -5
l -1 -1
v -1
l -1 -1
v -1
l -1 -2
l -2 -6
l -2 -5
v -10
l 1 -3
v -2
l 1 -1
v -13
l -2 -4
v -1
l -6 -4
l -2 -6
v -2
l -1 -3
v -1
l -3 -7
l -6 -3
Z
M800 144
v -2
l -2 -1
l -1 -2
h -1
l -1 -1
h -1
h 1
l -2 -3
v -1
l -3 -11
l 1 -2
h 3
l 17 9
l 15 -8
v 2
l 22 -1
l 25 1
h 1
l -1 -12
l 5 -9
l -2 -10
h 11
l -6 -2
l 7 -5
l 9 -2
h 11
l 6 5
l -10 2
l 5 3
l 5 -2
l -5 10
l 2 23
l -12 -3
v 1
l 6 3
h 11
h -1
l 2 -10
l -1 -19
l 9 -7
l 11 1
l -5 -3
l 5 -1
l 6 9
l 2 7
v 11
l 2 7
h -6
l 5 7
l -5 9
l -8 -1
l -3 -7
l -3 13
l -7 3
l -3 13
l -4 -1
v 6
l -9 6
l -13 1
l -5 -2
l -5 -7
l -1 6
l -2 -3
l -2 -9
l -3 7
l -7 4
l -5 -3
l -1 -8
l -4 -6
l 10 1
l 4 -8
l -5 -2
l 1 5
h -10
l -8 3
l 6 5
l 4 12
l -26 -6
l -19 -6
Z
M841 45
l 1 -2
h 1
l 1 1
l 4 -2
l 4 -2
l 2 -2
l 11 -4
l -5 -17
l -5 -5
l 17 -1
h 20
l 4 -1
h 12
l 2 12
l 6 2
l -3 4
l 7 6
l 8 11
v 7
l 8 14
v 6
l -8 -7
l -1 -8
l -9 -10
l 1 -3
l -8 -7
l 3 6
l 4 1
v 13
l 5 3
l -11 -2
l -3 -5
l -10 -8
l -6 -1
l -5 -10
l 2 9
v 1
l 9 6
l 6 6
l 3 7
l -12 4
l -4 -2
l -9 -10
l 9 15
l -17 -5
l -2 -3
l -8 -4
l 9 10
l 8 3
l -11 2
h -9
l 8 1
l -5 7
l -12 2
l -4 -5
l -8 -1
v -7
l -3 -5
v -9
l 4 -6
Z
M911 10
h 9
l 1 7
l -6 1
l 1 -5
Z
M926 10
l 5 21
l 6 20
l 6 14
l 8 12
l 14 30
l -9 -11
l 1 -4
l -9 -11
l -1 -8
l -5 3
l -1 -14
l -4 -11
l -5 -9
l -2 -14
l -4 -4
l -3 -15
Z
M972 123
l -5 -9
l 2 -1
l 6 19
l -2 17
v 13
l -2 6
l -1 14
l -10 -1
l -14 7
v -1
l 12 -6
l 4 -4
l 8 -1
v -11
l 2 -2
l 2 -22
v -11
Z
M947 89
l 8 8
l 1 9
l -4 -2
v -6
l -8 -7
Z
M908 213
l -14 13
l 19 -22
l 3 2
Z
M883 238
l -15 22
l 1 -5
l 9 -9
v -4
Z"/>
<path data-race-id="NC04" d="M567 102
v -3
l 1 -2
v -39
h 33
l -1 7
v 5
l -1 1
v 6
l -1 1
v 2
l -1 5
l -1 8
v 5
l -1 3
v 2
l 4 -2
l 8 2
l 1 -6
l 9 3
v -1
l 3 1
h 2
l 14 3
l 3 5
v -6
h 12
l 4 3
l -1 13
l -8 3
l 1 6
l -8 2
l -1 5
l -1 -1
h -1
l -1 -1
h -1
v -1
v 1
v -1
v 1
l 1 -6
l -5 -3
l -3 4
l -4 -1
l -3 -5
l -3 11
h -3
l -2 -12
h -9
l 1 -4
l 1 -1
v -2
l 1 -1
v -5
l -12 1
l -21 -2
h -4
Z"/>
<path data-race-id="NC05" d="M269 74
v -1
h 2
l 1 -2
h 1
v 1
h 1
l 4 -8
l 1 -1
l 1 -1
v -1
l 1 -1
v -1
l 1 -1
v -1
h 1
v -1
l 1 -1
l 3 -5
l 1 -2
h 2
v -1
h 1
l 1 -1
v -1
h 1
v -1
h 2
v -1
h 1
v -1
h 3
v -1
h 1
v 2
h 2
l 1 1
h 3
v -1
l 1 1
h 2
v -1
h -1
v -1
h -1
l 1 -1
h -1
v -2
h -1
l 1 -1
v -2
h -1
v -2
h 1
v -1
h 1
v -2
h 1
v -3
h 1
v -1
h 1
v -4
h -1
h 1
v -1
l -1 -1
v -3
h 1
v -2
h 1
v -2
h 1
v -3
h 6
l 7 1
h 1
l 3 1
h 12
v 1
h 27
v 1
h 18
l 3 1
h 29
l 1 1
h 18
l 2 1
h 15
l 2 1
h 30
v 28
l -1 7
v 18
l -1 17
l -2 -1
h -2
l -14 -1
v 3
l -2 1
h -12
l -3 2
h -1
l -1 1
v -1
l -7 -11
l -4 2
h -13
l -8 -1
h -20
l -3 -1
h -6
l -7 2
l 2 3
v 1
l 1 7
l -1 1
l -3 12
l -7 11
l -4 -7
l -12 1
l -1 7
v 1
l -2 -2
l -6 -1
h -2
l 3 -2
l -1 -19
l 2 -8
l -6 -6
l -2 -3
h -1
l -11 -4
l -3 -3
l -13 -1
l -16 1
l 3 2
l 3 2
v 2
h 2
l -8 14
l -3 -1
l -4 -2
l -7 3
l -5 7
l -5 -5
v -8
Z"/>
<path data-race-id="NC06" d="M483 148
v -3
l 1 -22
v -10
l 1 -8
v -4
h 12
l 23 2
l 3 -15
l -8 -3
l -1 -6
l -2 -6
l -7 -1
l -2 1
l -4 -1
h -9
l -4 -1
v -17
l 1 -7
v -28
h 110
l 10 -1
h 10
v 41
h -4
l -10 -1
h -35
v 39
l -1 2
v 3
l 2 4
h 4
l 21 2
l 12 -1
v 5
l -1 1
v 2
l -1 1
l -1 4
v 2
l -3 10
l -1 2
l -2 7
l 9 4
h -1
v 1
l -1 2
h -1
l -3 5
l -5 5
l -18 23
l -10 -5
l -2 -8
h -1
l -1 -2
h -1
l -1 -3
l -2 -2
v -8
h -3
l -6 1
h -36
l -31 1
Z"/>
<path data-race-id="NC07" d="M590 313
l 4 -4
l 1 -2
l 2 -5
l 5 -4
l 2 -5
h 2
l 7 -4
l 3 3
l 18 -2
l 2 2
l -2 -5
l 6 -18
l 6 1
l 3 6
l 11 4
l 4 -4
l -1 -1
h -2
l -3 -4
l 3 -4
v -7
l 3 -5
l -1 -2
l -1 -1
l -2 -1
l -1 -1
v -1
l -1 -1
v -1
l -1 -2
l -3 -2
l -1 -1
l -1 -1
v -2
l -2 -1
l -1 -2
l -4 -4
l -1 -1
v -1
l -1 -1
l -1 -1
l -2 -1
l -1 -1
h -1
v -1
l -2 -3
l -1 -3
v -2
h -1
v -1
l -1 -4
l -1 -2
l 2 -3
l 1 -1
l 1 -1
h -1
l 1 -2
l 1 -5
l 1 -9
l 4 -7
l 4 -3
l -3 -6
v -1
v 1
v -3
l -1 -1
h -1
l -2 -4
v -1
l -1 -1
l -5 -8
l -6 -2
l 2 -2
l 1 -1
l 1 -1
l 1 -1
l 1 -1
l 2 -1
h 2
v 1
l 1 -1
h 1
l 9 5
h 2
v 1
l 5 1
l 2 6
l 1 1
l 13 -8
l 10 -4
l 3 4
l 2 1
v -10
l 5 -2
l 5 2
h 1
l 15 -1
h 10
v 20
l 2 9
l -2 7
v 18
l 6 3
l 3 7
v 1
l 1 3
v 2
l 2 6
l 6 4
v 1
l 2 4
v 13
l -1 1
v 2
l -1 3
v 10
l 2 5
l 2 6
l 1 2
v 1
l 1 1
v 1
l 1 1
l 2 5
v 2
l 1 2
l 1 2
l 1 4
h 1
l 2 1
h 1
l 1 1
l 2 2
h -1
l -16 12
l -3 7
l -4 1
h 3
v -1
v 1
l -16 18
l -2 12
l -4 2
l -1 -11
l -4 -7
l 2 10
l -1 18
l -8 12
l -12 -3
l -27 1
l -18 5
l -2 -1
l -1 -1
l -1 -1
l -1 -1
l -4 -4
l -1 -2
l -2 -1
l -2 -1
l -10 -12
l -18 -18
l -12 -10
v -1
l -2 -2
l -1 -1
Z
M648 371
l -1 -1
h -1
l 18 -6
l -16 7
Z
M712 362
v 10
l -6 -3
Z"/>
<path data-race-id="NC08" d="M406 155
h 5
v -7
l -1 -1
v -4
l -1 -1
l 7 -2
l 3 -4
l 15 -1
l 1 1
h 1
l 1 2
l 6 -3
l -1 -2
l 2 -2
h -1
l 2 -5
l 9 2
v 5
l 14 12
l 2 10
h 13
l 31 -1
h 36
l 6 -1
h 3
v 8
l 2 2
l 1 3
h 1
l 1 2
h 1
l 2 8
l 10 5
l -4 5
l 14 10
l 23 -5
l 6 -4
h 7
l 15 2
l -1 9
l -1 5
l -1 2
h 1
l -1 1
l -1 1
l -2 3
l -4 -5
h -5
l -9 -5
l -2 8
l -3 3
l 4 2
l -7 1
v 1
l 2 1
l -5 7
l -1 3
v 1
h -9
l -1 1
l -2 2
v 1
h -1
l -12 12
h -17
v -2
h 1
v -2
h -1
h 1
v -1
h -1
v -4
l -1 -1
l 1 -1
l -1 -2
v -2
h -1
v -2
h -1
v -1
h -1
v -1
h -1
v -1
h -1
v -1
h -1
v -1
h -1
l -1 -1
v -1
h -2
v -1
h -1
v -2
l -1 -1
h -1
v -1
h -2
l -3 -1
h -5
l -1 -6
v -2
l -2 -2
l -1 -1
h -1
v -2
l -8 -2
h -6
v 1
h -5
l -7 -1
l -4 2
l -10 1
h -1
l -2 2
v 1
l -6 -1
l -10 -4
l -7 2
l -2 -7
l -3 2
l -5 3
h -15
l -5 -2
l -3 -2
l -1 -1
l -6 -3
l -7 -5
v -1
h -1
l -2 -8
l -7 -8
l 1 -4
Z"/>
<path data-race-id="NC09" d="M413 199
l 5 -1
v -5
l 7 -2
l 6 3
l 1 1
l 3 2
l 5 2
h 15
l 5 -3
l 3 -2
l 2 7
l 7 -2
l 10 4
l 6 1
v -1
l 2 -2
h 1
l 10 -1
l 4 -2
l 7 1
h 5
v -1
h 6
l 8 2
v 2
h 1
l 1 1
l 2 2
v 2
l 1 6
h 5
l 3 1
h 2
v 1
h 1
l 1 1
v 2
h 1
v 1
h 2
v 1
l 1 1
h 1
v 1
h 1
v 1
h 1
v 1
h 1
v 1
h 1
v 1
h 1
v 2
h 1
v 2
l 1 2
l -1 1
l 1 1
v 4
h 1
v 1
h -1
h 1
v 2
h -1
v 2
h 17
l 12 -12
h 1
v -1
l 2 -2
l 1 -1
h 9
v -1
l 1 -3
l 5 -7
l -2 -1
v -1
l 7 -1
l -4 -2
l 3 -3
l 2 -8
l 9 5
h 5
l 4 5
l 1 2
l 1 4
v 1
h 1
v 2
l 1 3
l 2 3
v 1
h 1
l 1 1
l 2 1
l 1 1
l 1 1
v 1
l 1 1
l 4 4
l 1 2
l 2 1
v 2
l 1 1
l 1 1
l 3 2
l 1 2
v 1
l 1 1
v 1
l 1 1
l 2 1
l 1 1
l 1 2
l -3 5
v 7
l -3 4
l 3 4
h 2
l 1 1
l -4 4
l -11 -4
l -3 -6
l -6 -1
l -6 18
l 2 5
l -2 -2
l -18 2
l -3 -3
l -7 4
h -2
l -2 5
l -5 4
l -2 5
l -1 2
l -4 4
l -2 -1
l -14 -15
l -2 -2
l -4 -4
l -3 -4
l -1 -1
l -3 -3
l -1 -1
l -1 -1
h -1
v -1
l -1 -1
l -1 -1
l -8 -7
v -1
l -8 -7
l -7 -7
l -8 -8
v -1
h -51
l -4 -1
h -19
l -22 -1
h -25
v -2
l 1 -11
v -2
l -3 -5
l -2 -3
h -1
v -2
l 2 -1
l 1 -1
l -2 -2
l -1 -6
l -4 -2
l 5 -15
l 5 10
l 7 -1
Z"/>
<path data-race-id="NC10" d="M213 140
v -2
h 1
l 2 -1
l 2 -1
v -1
v 1
v -4
l 1 -1
h 6
l 13 -6
l 2 -5
l 6 4
h 1
v 2
l -1 4
v 2
l 1 4
v 2
l -1 1
l 3 6
l 8 4
l 3 2
l 14 -2
l 4 1
l 15 -2
l 2 -4
l 6 -4
h 3
v 1
h 1
v -1
h 1
v 2
v -1
v 1
h 1
l 1 2
h 1
l 6 1
l 1 1
h 1
l 1 -1
l 1 1
h 7
v -1
l 1 -2
l 1 -1
l 1 -1
v -1
l 5 -4
l 1 -2
l 2 -4
l 2 -3
l 2 -2
v -1
l 3 -4
l 1 -2
h 2
l 6 1
l 2 2
v -1
l 1 -7
l 12 -1
l 4 7
l 4 9
h 6
l 6 -3
l 5 4
l 3 5
l -5 5
l -4 10
l 1 8
v 11
l -7 15
v 18
l -3 1
v -1
h -3
l -14 -1
l -14 -1
h -9
l -4 -1
h -10
l -4 -1
h -4
l -17 -1
h -3
l -4 -1
h -15
l -9 -1
h -10
l -1 -1
h -8
l -1 -1
h -5
v 1
h -2
l -1 1
h -1
v -1
l -1 1
v -1
h -1
l 1 -12
l 4 -4
l 5 -10
v -10
l -9 -3
l -1 3
v 1
l -5 -2
h -2
l -5 3
h -3
l -3 -3
l -1 -11
v -2
l -5 -2
v 1
Z"/>
<path data-race-id="NC11" d="M25 212
l 1 -11
v -3
l 1 -3
l 2 -13
l 1 -1
h 1
v -1
h 1
l 1 -1
l 1 -1
h 1
l 1 -1
l 1 -1
l 1 1
h 1
v 2
h 1
v 1
h 2
l 1 -1
l 1 1
v -1
l 1 1
h 2
v -1
h 5
v -1
h 1
l 1 -1
h 1
l 1 -1
l 1 -1
l 1 -1
l 1 -1
l -1 -1
l -1 -1
l 1 -1
v -2
h -1
l 1 -1
h -1
l 1 -1
l 2 -1
l 1 -1
v -3
h -1
v -2
h -1
v -1
l 2 -1
h 1
v -2
h 1
v -1
h 1
v -1
h 1
l 1 -1
h 1
l 1 -1
h 2
v -1
v 1
h 1
v -1
l 1 -1
v -1
h 1
h -1
h 1
v -1
h 1
v -1
l 1 -1
h 5
v -1
h 1
v 1
v -1
l 2 -1
v -1
h 1
l 1 -1
l 1 -1
h 7
v -1
h 7
l 1 1
l 1 -1
v 1
v -1
h 1
v -1
h 1
l 1 1
h 1
v 1
h 8
v 1
h 2
v -1
h 2
v -2
h 1
v -1
h 2
v -2
l 1 -1
v 1
h 1
v -1
l 1 1
v -1
h 2
v -1
h 1
l 1 -1
h 1
v -1
h 1
l 1 -1
l 1 -1
v -1
h 4
v 1
h 2
l 1 -1
v -1
h 1
v -1
h 1
v -1
h 1
v -4
h 1
l 1 -1
h 2
l 1 1
v -1
h 3
v -1
h 1
v -1
h 1
v -2
h 1
v -1
l 1 1
l 1 -1
v 1
h 1
v -1
h 3
v -1
h 1
l 1 -1
v -1
l 1 1
h 5
l 1 1
h 2
v 1
h 1
v -1
h 1
l 1 -1
h 1
v -1
l 1 -1
v -1
l 1 -1
v -1
h 1
l 1 -1
v -1
h 2
l -1 -1
v -2
h 1
v -1
h 1
v -1
h -1
v -1
h 1
l -1 -1
v -4
h 1
v -2
h 1
v -1
h 5
v 1
h 1
v 1
l 1 1
v 1
h 1
v -1
v 1
l 1 -1
h 1
l -1 -1
h 1
v -1
h 1
v -1
h 1
v -2
h 1
v -1
h -1
v -2
h 1
v -1
l 2 -1
h 1
l 1 -1
h 1
v -1
h 1
v -1
h 1
v -1
h 2
v -1
h 2
v -1
h 2
l 1 -1
l 1 -1
v 1
h 1
v 1
h 1
v 1
h 1
v 1
h 1
l 1 1
l -1 1
h -1
v 2
h -1
v 2
h 1
v 2
h -1
v 2
h 4
v 1
h 2
v -1
h 2
v -1
h 2
v -1
h 2
v -1
h 1
l 1 -1
h 1
v -1
h 1
v -1
l 2 -2
l 3 -6
l 1 -1
h 1
l 1 -1
v -1
h 2
v -1
l 1 -1
h 3
l 1 -1
h 2
l 2 -2
l 1 1
l 1 1
l 1 -1
v -1
h 1
v 1
h 1
v -1
l 1 -1
h 1
v -1
h 3
v 1
h 1
v 1
l 1 -1
h 3
v 2
h 1
v 4
h 2
l 1 -1
l 1 1
h 2
l 4 13
v 8
l 5 5
l 5 -7
l 7 -3
l 4 2
l 3 1
l 8 -14
h -2
v -2
l -3 -2
l -3 -2
l 16 -1
l 13 1
l 3 3
l 11 4
h 1
l 2 3
l 6 6
l -2 8
l 1 19
l -3 2
l -1 2
l -3 4
v 1
l -2 2
l -2 3
l -2 4
l -1 2
l -5 4
v 1
l -1 1
l -1 1
l -1 2
v 1
h -7
l -1 -1
l -1 1
h -1
l -1 -1
l -6 -1
h -1
l -1 -2
h -1
v -1
v 1
v -2
h -1
v 1
h -1
v -1
h -3
l -6 4
l -2 4
l -15 2
l -4 -1
l -14 2
l -3 -2
l -8 -4
l -3 -6
l 1 -1
v -2
l -1 -4
v -2
l 1 -4
v -2
h -1
l -6 -4
l -2 5
l -13 6
h -6
l -1 1
v 4
v -1
v 1
l -2 1
l -2 1
h -1
v 4
v -1
l 5 2
v 2
l 1 11
l 3 3
h 3
l 5 -3
h 2
l 5 2
v -1
l 1 -3
l 9 3
v 10
l -5 10
l -4 4
l -1 12
h -1
v 1
l -1 1
v -1
h -1
v -4
h -1
l -1 1
l -1 1
v -1
v 1
h -1
l -1 1
h 1
h -1
v 2
h -1
v 1
h -2
v -1
h -4
v 1
h -3
v 1
h -1
v 1
v -1
h -1
v -1
h -1
v 1
h -1
l 1 1
h -2
v 1
h -5
v 1
h -1
l -1 1
h -1
v -1
h -1
v 1
h -1
v 1
h -2
v -1
l -1 -1
v 1
l -1 1
v 2
l -1 1
v -1
v 1
h -2
v 1
h -1
v 1
h -2
v 1
h -3
v -2
h -1
l -3 1
l -12 3
l -6 2
l -3 1
h -1
l -5 1
v 1
l -5 1
h -17
l -23 -1
l -15 1
l -7 -1
h -23
l -4 -1
h -21
l -5 -1
l -15 -1
Z"/>
<path data-race-id="NC12" d="M376 210
l 1 -2
v -4
l -1 -1
l 1 -1
h 1
l 3 -1
v -18
l 7 -15
v -11
l 4 -2
l 1 -2
l 4 1
h 8
l 1 1
l 3 10
l -1 4
l 7 8
l 2 8
h 1
v 1
l 7 5
l -7 2
v 5
l -5 1
l -1 3
l -7 1
l -5 -10
l -5 15
l 4 2
l 1 6
l 2 2
l -1 1
l -2 1
v 1
l -1 -2
l -5 -7
v -1
l -2 -2
l -2 -2
l -1 1
l -1 1
l -3 1
l -6 5
h -1
l -1 -2
Z"/>
<path data-race-id="NC13" d="M372 119
l 7 -11
l 3 -12
l 1 -1
l -1 -7
v -1
l -2 -3
l 7 -2
h 6
l 3 1
h 20
l 8 1
h 13
l 4 -2
l 7 11
v 1
l 1 -1
h 1
l 3 -2
h 12
l 2 -1
v -3
l 14 1
h 2
l 2 1
l 1 -17
v -1
l 4 1
h 9
l 4 1
l 2 -1
l 7 1
l 2 6
l 1 6
l 8 3
l -3 15
l -23 -2
h -12
v 4
l -1 8
v 10
l -1 22
v 10
h -13
l -2 -10
l -14 -12
v -5
l -9 -2
l -2 5
h 1
l -2 2
l 1 2
l -6 3
l -1 -2
h -1
l -1 -1
l -15 1
l -3 4
l -7 2
l 1 1
v 4
l 1 1
v 7
h -5
l -1 -1
h -8
l -4 -1
l -1 2
l -4 2
l -1 -8
l 4 -10
l 5 -5
l -3 -5
l -5 -4
l -6 3
h -6
Z"/>
</g>
  <path class="districts-mesh" d="M855 12
l 5 5
l 5 17
l -11 4
l -2 2
l -4 2
l -4 2
l -1 -1
h -1
l -1 2
M237 193
l 1 -12
l 4 -4
l 5 -10
v -10
l -9 -3
l -1 3
v 1
l -5 -2
h -2
l -5 3
h -3
l -3 -3
l -1 -11
v -2
l -5 -2
v 1
v -4
h 1
l 2 -1
l 2 -1
M218 136
v -1
v 1
v -4
l 1 -1
h 6
l 13 -6
l 2 -5
l 6 4
h 1
v 2
l -1 4
v 2
l 1 4
v 2
l -1 1
l 3 6
l 8 4
l 3 2
l 14 -2
l 4 1
l 15 -2
l 2 -4
l 6 -4
h 3
v 1
h 1
v -1
h 1
v 1
M691 61
h -1
v -1
h -1
l -5 -4
l -1 -1
v 1
l -7 -1
l -7 -1
l -7 4
l -4 9
h -2
l -7 -1
l -4 11
v 10
l -15 -7
h -7
l -1 3
l 2 4
l 1 -1
l 2 2
l -1 5
v 2
l -3 3
v 1
l -1 1
h -2
l -3 -1
v 1
l -9 -3
l -1 6
l -8 -2
l -4 2
v -2
l 1 -3
v -5
l 1 -8
l 1 -5
v -2
l 1 -1
v -6
l 1 -1
v -5
l 1 -7
h 2
l 10 1
h 4
v -41
M876 93
l 2 10
l -5 9
l 1 12
h -1
l -25 -1
l -22 1
v -2
l -15 8
l -17 -9
h -3
l -1 2
l 3 11
v 1
l 2 3
h -1
h 1
l 1 1
h 1
l 1 2
l 2 1
v 2
M590 313
l 4 -4
l 1 -2
l 2 -5
l 5 -4
l 2 -5
h 2
l 7 -4
l 3 3
l 18 -2
l 2 2
l -2 -5
l 6 -18
l 6 1
l 3 6
l 11 4
l 4 -4
l -1 -1
h -2
l -3 -4
l 3 -4
v -7
l 3 -5
l -1 -2
l -1 -1
l -2 -1
l -1 -1
v -1
l -1 -1
v -1
l -1 -2
l -3 -2
l -1 -1
l -1 -1
v -2
l -2 -1
l -1 -2
l -4 -4
l -1 -1
v -1
l -1 -1
l -1 -1
l -2 -1
l -1 -1
h -1
v -1
l -2 -3
l -1 -3
v -2
h -1
v -1
l -1 -4
l -1 -2
l 2 -3
l 1 -1
l 1 -1
h -1
l 1 -2
l 1 -5
l 1 -9
M759 292
l -2 -2
l -1 -1
h -1
l -2 -1
h -1
l -1 -4
l -1 -2
l -1 -2
v -2
l -2 -5
l -1 -1
v -1
l -1 -1
v -1
l -1 -2
l -2 -6
l -2 -5
v -10
l 1 -3
v -2
l 1 -1
v -13
l -2 -4
v -1
l -6 -4
l -2 -6
v -2
l -1 -3
v -1
l -3 -7
l -6 -3
v -18
l 2 -7
l -2 -9
v -20
M548 217
v -1
l -1 -1
h -1
v -1
h -2
l -3 -1
h -5
l -1 -6
v -2
l -2 -2
l -1 -1
h -1
v -2
l -8 -2
h -6
v 1
h -5
l -7 -1
l -4 2
l -10 1
h -1
l -2 2
v 1
l -6 -1
l -10 -4
l -7 2
l -2 -7
l -3 2
l -5 3
h -15
l -5 -2
l -3 -2
l -1 -1
l -6 -3
l -7 -5
v -1
h -1
l -2 -8
l -7 -8
l 1 -4
l -3 -10
h 5
v -7
l -1 -1
v -4
l -1 -1
l 7 -2
l 3 -4
l 15 -1
l 1 1
h 1
l 1 2
l 6 -3
l -1 -2
l 2 -2
h -1
l 2 -5
l 9 2
v 5
l 14 12
l 2 10
h 13
M632 210
l -4 -5
h -5
l -9 -5
l -2 8
l -3 3
l 4 2
l -7 1
v 1
l 2 1
l -5 7
l -1 3
v 1
h -9
l -1 1
l -2 2
v 1
h -1
l -12 12
h -17
v -2
h 1
v -2
h -1
h 1
v -1
h -1
v -3
M800 145
l -16 -7
l -7 4
l -6 -3
l -3 7
l -7 -1
l 4 -8
l -4 -4
l -8 -13
l -7 5
l -3 2
l -2 2
l -1 1
h -1
l -4 3
l -13 9
h -10
l -15 1
h -1
l -5 -2
l -5 2
v 10
l -2 -1
l -3 -4
l -10 4
l -13 8
l -1 -1
l -2 -6
l -5 -1
v -1
h -2
l -9 -5
h -1
l -1 1
v -1
h -2
l -2 1
l -1 1
l -1 1
l -1 1
l -1 1
l -2 2
l 6 2
l 5 8
l 1 1
v 1
l 2 4
h 1
l 1 1
v 3
l 3 6
l -4 3
l -4 7
l -15 -2
h -7
l -6 4
l -23 5
l -14 -10
l 4 -5
l 18 -23
l 5 -5
l 3 -5
h 1
l 1 -2
v -1
h 1
l -9 -4
l 2 -7
l 1 -2
l 3 -10
v -2
l 1 -4
l 1 -1
v -2
l 1 -1
v -5
l -12 1
l -21 -2
h -4
l -2 -4
v -3
l 1 -2
v -39
h 33
M560 235
v -1
l -1 -1
l 1 -1
l -1 -2
v -2
h -1
v -2
h -1
v -1
h -1
v -1
h -1
v -1
h -1
v -1
h -1
v -1
h -1
l -1 -1
v -1
h -2
v -1
h -1
v -1
M399 221
v -1
l 2 -1
l 1 -1
l -2 -2
l -1 -6
l -4 -2
l 5 -15
l 5 10
l 7 -1
l 1 -3
l 5 -1
v -5
l 7 -2
M487 19
v 28
l -1 7
v 18
l -1 17
l -2 -1
h -2
l -14 -1
v 3
l -2 1
h -12
l -3 2
h -1
l -1 1
v -1
l -7 -11
l -4 2
h -13
l -8 -1
h -20
l -3 -1
h -6
l -7 2
l 2 3
v 1
l 1 7
l -1 1
l -3 12
l -7 11
l -4 -7
l -12 1
l -1 7
v 1
l -2 -2
l -6 -1
h -2
l 3 -2
l -1 -19
l 2 -8
l -6 -6
l -2 -3
h -1
l -11 -4
l -3 -3
l -13 -1
l -16 1
l 3 2
l 3 2
v 2
h 2
l -8 14
l -3 -1
l -4 -2
l -7 3
l -5 7
l -5 -5
v -8
l -4 -13
M577 181
l -10 -5
l -2 -8
h -1
l -1 -2
h -1
l -1 -3
l -2 -2
v -8
h -3
l -6 1
h -36
l -31 1
v -10
l 1 -22
v -10
l 1 -8
v -4
h 12
l 23 2
l 3 -15
l -8 -3
l -1 -6
l -2 -6
l -7 -1
l -2 1
l -4 -1
h -9
l -4 -1
M306 141
v 1
v -1
v 1
h 1
l 1 2
h 1
l 6 1
l 1 1
h 1
l 1 -1
l 1 1
h 7
v -1
l 1 -2
l 1 -1
l 1 -1
v -1
l 5 -4
l 1 -2
l 2 -4
l 2 -3
l 2 -2
v -1
l 3 -4
l 1 -2
M372 119
l 4 9
h 6
l 6 -3
l 5 4
l 3 5
l -5 5
l -4 10
l 1 8
v 11
l -7 15
v 18
l -3 1
M717 142
v -6
l -11 -10
l 2 -9
l 4 -1
v -6
l 8 -1
l 1 -4
l 5 -15
v -4
l 7 -13
l 1 -5
h -2
l -1 2
v -1
h -1
v -1
h 1
h -1
l -4 1
v -1
v 1
h -13
l -3 -5
l -5 -1
l -2 2
v -1
l -2 -2
h -1
l -1 -1
v -1
l -1 1
h -1
v -1
h -1
v 1
v -1
h -2
v 1
h -1
v -1
v 1
h -2
M388 157
l 4 -2
l 1 -2
l 4 1
h 8
l 1 1
M603 120
h 9
l 2 12
h 3
l 3 -11
l 3 5
l 4 1
l 3 -4
l 5 3
l -1 6
v -1
v 1
h 1
l 1 1
h 1
l 1 1
l 1 -5
l 8 -2
l -1 -6
l 8 -3
l 1 -13
l -4 -3
h -12
v 6
l -3 -5
l -14 -3"/>
</svg>