<svg version="1.1" xmlns="http://www.w3.org/2000/svg" width="1000" height="600" viewBox="0 0 1000 600"><path data-race-id="ND01" d="M50,38v-16h1v-7l29,2h22l17,1l16,1h17l24,1l3,1h16l19,1h33l15,1h32l25,1l22,1h71l7,1h158l15,-1h66l6,-1h26l2,-1h13l46,-1h18l12,-1h33l21,-2h33v1l-1,1v4h1v1l-1,2h1v1l1,2h1l-1,1v1h1l1,1l-1,1h1v1l1,1h1v1h-1v1h1h-1v1l1,1h2v1h-1v1h1l1,2v1h-1l1,1v1l-1,1v2h-1v1h1l1,1h2l-1,1h-1l-1,1h1l1,-1l1,1h-2v1h2v4l1,1l-1,1v1h2v3h1v1l-1,1h2v2l1,1h1l-1,1v1h1v1l1,1h2l-2,1l1,2l-2,1h2l-2,4v1h1v1h-1v1v-1h-1v-1l-1,1v1l1,1h-1v1h-2v2h2h-1v1h-1l-1,1h2v2l-1,1l-1,-1v1h1v2l-2,1v1h4v1h-4v1l1,1h2v2h-1v2h1l1,-1l1,1l-1,1h-2l1,1v2h1l1,1h-2h1v1h-2v1h-1v1h2l2,-1v2l-1,-1h-1v1l1,1h2v1l-1,1l-1,1l-1,1h2v-1l1,1v2l-1,-1h-1v2h2l1,1h-4v1h1v-1l1,1l1,1l-1,1h-1v1h-2v1h1l-1,1h1v1h3h-1v2h-2v2h1v1h2l-1,1v1l1,-1v1h1v2h-1l-1,1h1v-1l2,1l-2,1v2h2l-1,1h1l1,1v1l-1,-1h-1l-1,1v1h1v-1l1,1l1,1l-1,1h-1l1,1h-3v1h3v1h-1l1,1v1h-1l-2,1h1l1,1h-2v1l1,1h2v1l-1,-1h-1l-1,1h-1l1,1l1,-1l3,1v1h-1v-1h-2l1,1l-1,1v2l-1,1v1h2v2h-2h1v3h1v-1h1v-1h1v2l-2,1h-1v2l1,-1h1l1,1v1h-1v1l1,1v3h2v1h1v1l-1,1l1,1v2h1v2h1v1h1l1,1v6h2v1h-1v2l1,1h1v3h-1v1h1v1h-1v1h1v3l1,1h1h-1l1,2h1l1,1l-1,1h1v1l1,1h-2h1v1l-1,1h1v2h-1h1v2h2l1,1h-1v1h1v2l1,1h-1v1h2v2l1,1v2h-2v1h2v2h1l1,-1v1l1,1h-1v1h1v2h2v1h1v1l1,1h-1l1,1v2l1,3v1h-1h1l1,2v1h-1h1v2h1v-1l1,4h1v1l1,3v4h1h-1v1h1l1,1v1h2v1h-1v1h1h-1v1h1v3h-1l1,1v1h-2l1,1l1,-1h1v1h-2v1h2l-1,2h-1h2v1h-2h1v2h-2v1h1v1h1v1h1v-1h1v1h-1h1v1h-1v2h-1v1h-1h2v2l-1,-1l-1,1v1h1v-1h1v1h-1v1l1,1v1h-1v1l1,-1v1h-1v1h1v1h-1v1h1v1h-1v1h1h-1l-1,1h1l1,2h1l1,-1v1h-1v1h1v1h-1l1,1v-1h1v3h-2l1,1h-1v1h1v-1h1l-1,1h-2l1,1h1l-1,1h1l1,1l-1,-1v2l1,1l1,1l-1,1h-1l1,1v-1h1v1h-1l1,1h-1l-1,1h1v1v-1l1,1l-1,3v4h-1h2v1h-1v1v-1h1v1h-1v1h1h-1v1h1v-1l1,1l-1,1h-1v1h1v-1l1,1v1h-2l2,1h-1v1h-1h2h-1v1l1,1l-1,1h1l1,1h-1v-1l-1,1v1h2v1h-1v1l1,1h-1h1v1l1,1v1h-1l1,1h-3v1h2v1h-1l1,1v2h1v1h-2l1,1h1l1,2l-1,1l1,2h-1h1v2l-1,1h1h-1v3l1,1v1h-1h1v1h1v1h-2l1,1l1,1h-2v3h-1h1l1,1v4h1l-1,1l1,1l1,1h1v-1v4l1,1v2h1v1v-1h1l2,-1v1h-1h2l-1,1v2l-1,1l-1,2h1v2l-1,1v4h-1l1,1h1l-1,1l1,1h-2l1,1h-2h1l1,2h-1l-1,2h-1l1,1v1h-1h1v2h1v1l1,1h-1v1h1l-1,1h2v2h-1l-1,1h1v1l1,1l-1,-1l1,2l-1,1h1v2h-1v1h1l-1,1v1h1v2l-1,1h1v1h-2h1v1h-1l1,1l-1,1v1l1,1v4h-1l1,1l1,-1v1l-1,1h1l1,-1v1h-1v1l1,-1h1v1h-1h1v1l-1,1h1v-1l1,1l-1,1v1v-1h1v1h1l-1,1h2l-1,1h2h-1v1h-1l1,1v-1h1v1h-1h1v1l-1,1h1l-1,1h1v1h1h-1v1h1h-1v1v-1h1v2h-1h1v2h-1h1v1l1,1h-1l1,1l-1,1h1h-1h1v4v-1v1h1v1h2h-1v1h1v3h-1l1,1l-1,1l1,1h1v-1h1v1h-1v1h1v-1v3l1,-1v1h-1v1h1v-1h1v2v-1v1l1,1v1l1,1v3h1l1,1h1v3h1v-1h1v1l2,1v1h1v1h1v2l1,1v1h-1v1l1,1h-1v1h1l-1,1h1v5h1v1l1,1h-1l-1,1v1l1,2v2l1,1l1,1v1l-1,1h1l-1,1v1l1,1l1,1v5l1,1v2l1,1v1h1l-1,1l1,1v9l-1,1v2l-1,1v2l1,1v1l-1,1l1,1v6l1,1v2l1,1v2h-19l-1,1h-11v1h-25l-3,1h-23l-3,1h-23l-7,1h-13v1h-36l-1,1h-40l-2,1h-66v1h-86l-10,1h-127l-3,-1h-123l-2,-1h-48l-11,-1h-44l-2,-1h-38l-3,-1h-10l-6,-1h-32l-2,-1h-30l-2,-1h-22l-7,-1h-9l-6,-1h-23l-2,-1h-22l-7,-1v-30h1v-1l1,-25v-7l1,-14v-8l1,-3l1,-21l1,-33l3,-62v-1l1,-2v-18l1,-2v-15l1,-10v-11l1,-2l1,-24v-12l1,-1v-4l1,-31l1,-2v-16l1,-2v-19l1,-7v-40l1,-2v-21l1,-2v-20l1,-1v-20l1,-1v-20h1v-10l1,-13v-1Z"/><g class="cities"><circle r="7" cx="938" cy="404"/><text x="938" y="404">Fargo</text><circle r="7" cx="440" cy="426"/><text x="440" y="426">Bismarck</text><circle r="7" cx="900" cy="214"/><text x="900" y="214">Grand Forks</text></g></svg>