<svg version="1.1" xmlns="http://www.w3.org/2000/svg" width="1000" height="600" viewBox="0 0 1000 600">
  <path d="M835 19
h 33
v 1
l -1 1
v 4
h 1
v 1
l -1 2
h 1
v 1
l 1 2
h 1
l -1 1
v 1
h 1
l 1 1
l -1 1
h 1
v 1
l 1 1
h 1
v 1
h -1
v 1
h 1
h -1
v 1
l 1 1
h 2
v 1
h -1
v 1
h 1
l 1 2
v 1
h -1
l 1 1
v 1
l -1 1
v 2
h -1
v 1
h 1
l 1 1
h 2
l -1 1
h -1
l -1 1
h 1
l 1 -1
l 1 1
h -2
v 1
h 2
v 4
l 1 1
l -1 1
v 1
h 2
v 3
h 1
v 1
l -1 1
h 2
v 2
l 1 1
h 1
l -1 1
v 1
h 1
v 1
l 1 1
h 2
l -2 1
l 1 2
l -2 1
h 2
l -2 4
v 1
h 1
v 1
h -1
v 1
v -1
h -1
v -1
l -1 1
v 1
l 1 1
h -1
v 1
h -2
v 2
h 2
h -1
v 1
h -1
l -1 1
h 2
v 2
l -1 1
l -1 -1
v 1
h 1
v 2
l -2 1
v 1
h 4
v 1
h -4
v 1
l 1 1
h 2
v 2
h -1
v 2
h 1
l 1 -1
l 1 1
l -1 1
h -2
l 1 1
v 2
h 1
l 1 1
h -2
h 1
v 1
h -2
v 1
h -1
v 1
h 2
l 2 -1
v 2
l -1 -1
h -1
v 1
l 1 1
h 2
v 1
l -1 1
l -1 1
l -1 1
h 2
v -1
l 1 1
v 2
l -1 -1
h -1
v 2
h 2
l 1 1
h -4
v 1
h 1
v -1
l 1 1
l 1 1
l -1 1
h -1
v 1
h -2
v 1
h 1
l -1 1
h 1
v 1
h 3
h -1
v 2
h -2
v 2
h 1
v 1
h 2
l -1 1
v 1
l 1 -1
v 1
h 1
v 2
h -1
l -1 1
h 1
v -1
l 2 1
l -2 1
v 2
h 2
l -1 1
h 1
l 1 1
v 1
l -1 -1
h -1
l -1 1
v 1
h 1
v -1
l 1 1
l 1 1
l -1 1
h -1
l 1 1
h -3
v 1
h 3
v 1
h -1
l 1 1
v 1
h -1
l -2 1
h 1
l 1 1
h -2
v 1
l 1 1
h 2
v 1
l -1 -1
h -1
l -1 1
h -1
l 1 1
l 1 -1
l 3 1
v 1
h -1
v -1
h -2
l 1 1
l -1 1
v 2
l -1 1
v 1
h 2
v 2
h -2
h 1
v 3
h 1
v -1
h 1
v -1
h 1
v 2
l -2 1
h -1
v 2
l 1 -1
h 1
l 1 1
v 1
h -1
v 1
l 1 1
v 3
h 2
v 1
h 1
v 1
l -1 1
l 1 1
v 2
h 1
v 2
h 1
v 1
h 1
l 1 1
v 6
h 2
v 1
h -1
v 2
l 1 1
h 1
v 3
h -1
v 1
h 1
v 1
h -1
v 1
h 1
v 3
l 1 1
h 1
h -1
l 1 2
h 1
l 1 1
l -1 1
h 1
v 1
l 1 1
h -2
h 1
v 1
l -1 1
h 1
v 2
h -1
h 1
v 2
h 2
l 1 1
h -1
v 1
h 1
v 2
l 1 1
h -1
v 1
h 2
v 2
l 1 1
v 2
h -2
v 1
h 2
v 2
h 1
l 1 -1
v 1
l 1 1
h -1
v 1
h 1
v 2
h 2
v 1
h 1
v 1
l 1 1
h -1
l 1 1
v 2
l 1 3
v 1
h -1
h 1
l 1 2
v 1
h -1
h 1
v 2
h 1
v -1
l 1 4
h 1
v 1
l 1 3
v 4
h 1
h -1
v 1
h 1
l 1 1
v 1
h 2
v 1
h -1
v 1
h 1
h -1
v 1
h 1
v 3
h -1
l 1 1
v 1
h -2
l 1 1
l 1 -1
h 1
v 1
h -2
v 1
h 2
l -1 2
h -1
h 2
v 1
h -2
h 1
v 2
h -2
v 1
h 1
v 1
h 1
v 1
h 1
v -1
h 1
v 1
h -1
h 1
v 1
h -1
v 2
h -1
v 1
h -1
h 2
v 2
l -1 -1
l -1 1
v 1
h 1
v -1
h 1
v 1
h -1
v 1
l 1 1
v 1
h -1
v 1
l 1 -1
v 1
h -1
v 1
h 1
v 1
h -1
v 1
h 1
v 1
h -1
v 1
h 1
h -1
l -1 1
h 1
l 1 2
h 1
l 1 -1
v 1
h -1
v 1
h 1
v 1
h -1
l 1 1
v -1
h 1
v 3
h -2
l 1 1
h -1
v 1
h 1
v -1
h 1
l -1 1
h -2
l 1 1
h 1
l -1 1
h 1
l 1 1
l -1 -1
v 2
l 1 1
l 1 1
l -1 1
h -1
l 1 1
v -1
h 1
v 1
h -1
l 1 1
h -1
l -1 1
h 1
v 1
v -1
l 1 1
l -1 3
v 4
h -1
h 2
v 1
h -1
v 1
v -1
h 1
v 1
h -1
v 1
h 1
h -1
v 1
h 1
v -1
l 1 1
l -1 1
h -1
v 1
h 1
v -1
l 1 2
h -2
l 2 1
h -1
v 1
h -1
h 2
h -1
v 1
l 1 1
l -1 1
h 1
l 1 1
h -1
v -1
l -1 1
v 1
h 2
v 1
h -1
v 1
l 1 1
h -1
h 1
v 1
l 1 1
v 1
h -1
l 1 1
h -3
v 1
h 2
v 1
h -1
l 1 1
v 2
h 1
v 1
h -2
l 1 1
h 1
l 1 2
l -1 1
l 1 2
h -1
h 1
v 2
l -1 1
h 1
h -1
v 3
l 1 1
v 1
h -1
h 1
v 1
h 1
v 1
h -2
l 1 1
l 1 1
h -2
v 3
h -1
h 1
l 1 1
v 4
h 1
l -1 1
l 1 1
l 1 1
h 1
v -1
v 4
l 1 1
v 2
h 1
v 1
v -1
h 1
l 2 -1
v 1
h -1
h 2
l -1 1
v 2
l -1 1
l -1 2
h 1
v 2
l -1 1
v 4
h -1
l 1 1
h 1
l -1 1
l 1 1
h -2
l 1 1
h -2
h 1
l 1 2
h -1
l -1 2
h -1
l 1 1
v 1
h -1
h 1
v 2
h 1
v 1
l 1 1
h -1
v 1
h 1
l -1 1
h 2
v 2
h -1
l -1 1
h 1
v 1
l 1 1
l -1 -1
l 1 2
l -1 1
h 1
v 2
h -1
v 1
h 1
l -1 1
v 1
h 1
v 2
l -1 1
h 1
v 1
h -2
h 1
v 1
h -1
l 1 1
l -1 1
v 1
l 1 1
v 4
h -1
l 1 1
l 1 -1
v 1
l -1 1
h 1
l 1 -1
v 1
h -1
v 1
l 1 -1
h 1
v 1
h -1
h 1
v 1
l -1 1
h 1
v -1
l 1 1
l -1 1
v 1
v -1
h 1
v 1
h 1
l -1 1
h 2
l -1 1
h 2
h -1
v 1
h -1
l 1 1
v -1
h 1
v 1
h -1
h 1
v 1
l -1 1
h 1
l -1 1
h 1
v 1
h 1
h -1
v 1
h 1
h -1
v 1
v -1
h 1
v 2
h -1
h 1
v 2
h -1
h 1
v 1
l 1 1
h -1
l 1 1
l -1 1
h 1
h -1
h 1
v 4
v -1
v 1
h 1
v 1
h 2
h -1
v 1
h 1
v 3
h -1
l 1 1
l -1 1
l 1 1
h 1
v -1
h 1
v 1
h -1
v 1
h 1
v -1
v 3
l 1 -1
v 1
h -1
v 1
h 1
v -1
h 1
v 2
v -1
v 1
l 1 1
v 1
l 1 1
v 3
h 1
l 1 1
h 1
v 3
h 1
v -1
h 1
v 1
l 2 1
v 1
h 1
v 1
h 1
v 2
l 1 1
v 1
h -1
v 1
l 1 1
h -1
v 1
h 1
l -1 1
h 1
v 5
h 1
v 1
l 1 1
h -1
l -1 1
v 1
l 1 2
v 2
l 1 1
l 1 1
v 1
l -1 1
h 1
l -1 1
v 1
l 1 1
l 1 1
v 5
l 1 1
v 2
l 1 1
v 1
h 1
l -1 1
l 1 1
v 9
l -1 1
v 2
l -1 1
v 2
l 1 1
v 1
l -1 1
l 1 1
v 6
l 1 1
v 2
l 1 1
v 2
h -19
l -1 1
h -11
v 1
h -25
l -3 1
h -23
l -3 1
h -23
l -7 1
h -13
v 1
h -36
l -1 1
h -40
l -2 1
h -66
v 1
h -86
l -10 1
h -127
l -3 -1
h -123
l -2 -1
h -48
l -11 -1
h -44
l -2 -1
h -38
l -3 -1
h -10
l -6 -1
h -32
l -2 -1
h -30
l -2 -1
h -22
l -7 -1
h -9
l -6 -1
h -23
l -2 -1
h -22
l -7 -1
v -30
h 1
v -1
l 1 -25
v -7
l 1 -14
v -8
l 1 -3
l 1 -21
l 1 -33
l 3 -62
v -1
l 1 -2
v -18
l 1 -2
v -15
l 1 -10
v -11
l 1 -2
l 1 -24
v -12
l 1 -1
v -4
l 1 -31
l 1 -2
v -16
l 1 -2
v -19
l 1 -7
v -40
l 1 -2
v -21
l 1 -2
v -20
l 1 -1
v -20
l 1 -1
v -20
h 1
v -10
l 1 -13
v -17
h 1
v -7
l 29 2
h 22
l 17 1
l 16 1
h 17
l 24 1
l 3 1
h 16
l 19 1
h 33
l 15 1
h 32
l 25 1
l 22 1
h 71
l 7 1
h 158
l 15 -1
h 66
l 6 -1
h 26
l 2 -1
h 13
l 46 -1
h 18
l 12 -1
h 33
Z"/>
<g class="districts">
<path data-race-id="ND00" d="M50 38
v -16
h 1
v -7
l 29 2
h 22
l 17 1
l 16 1
h 17
l 24 1
l 3 1
h 16
l 19 1
h 33
l 15 1
h 32
l 25 1
l 22 1
h 71
l 7 1
h 158
l 15 -1
h 66
l 6 -1
h 26
l 2 -1
h 13
l 46 -1
h 18
l 12 -1
h 33
l 21 -2
h 33
v 1
l -1 1
v 4
h 1
v 1
l -1 2
h 1
v 1
l 1 2
h 1
l -1 1
v 1
h 1
l 1 1
l -1 1
h 1
v 1
l 1 1
h 1
v 1
h -1
v 1
h 1
h -1
v 1
l 1 1
h 2
v 1
h -1
v 1
h 1
l 1 2
v 1
h -1
l 1 1
v 1
l -1 1
v 2
h -1
v 1
h 1
l 1 1
h 2
l -1 1
h -1
l -1 1
h 1
l 1 -1
l 1 1
h -2
v 1
h 2
v 4
l 1 1
l -1 1
v 1
h 2
v 3
h 1
v 1
l -1 1
h 2
v 2
l 1 1
h 1
l -1 1
v 1
h 1
v 1
l 1 1
h 2
l -2 1
l 1 2
l -2 1
h 2
l -2 4
v 1
h 1
v 1
h -1
v 1
v -1
h -1
v -1
l -1 1
v 1
l 1 1
h -1
v 1
h -2
v 2
h 2
h -1
v 1
h -1
l -1 1
h 2
v 2
l -1 1
l -1 -1
v 1
h 1
v 2
l -2 1
v 1
h 4
v 1
h -4
v 1
l 1 1
h 2
v 2
h -1
v 2
h 1
l 1 -1
l 1 1
l -1 1
h -2
l 1 1
v 2
h 1
l 1 1
h -2
h 1
v 1
h -2
v 1
h -1
v 1
h 2
l 2 -1
v 2
l -1 -1
h -1
v 1
l 1 1
h 2
v 1
l -1 1
l -1 1
l -1 1
h 2
v -1
l 1 1
v 2
l -1 -1
h -1
v 2
h 2
l 1 1
h -4
v 1
h 1
v -1
l 1 1
l 1 1
l -1 1
h -1
v 1
h -2
v 1
h 1
l -1 1
h 1
v 1
h 3
h -1
v 2
h -2
v 2
h 1
v 1
h 2
l -1 1
v 1
l 1 -1
v 1
h 1
v 2
h -1
l -1 1
h 1
v -1
l 2 1
l -2 1
v 2
h 2
l -1 1
h 1
l 1 1
v 1
l -1 -1
h -1
l -1 1
v 1
h 1
v -1
l 1 1
l 1 1
l -1 1
h -1
l 1 1
h -3
v 1
h 3
v 1
h -1
l 1 1
v 1
h -1
l -2 1
h 1
l 1 1
h -2
v 1
l 1 1
h 2
v 1
l -1 -1
h -1
l -1 1
h -1
l 1 1
l 1 -1
l 3 1
v 1
h -1
v -1
h -2
l 1 1
l -1 1
v 2
l -1 1
v 1
h 2
v 2
h -2
h 1
v 3
h 1
v -1
h 1
v -1
h 1
v 2
l -2 1
h -1
v 2
l 1 -1
h 1
l 1 1
v 1
h -1
v 1
l 1 1
v 3
h 2
v 1
h 1
v 1
l -1 1
l 1 1
v 2
h 1
v 2
h 1
v 1
h 1
l 1 1
v 6
h 2
v 1
h -1
v 2
l 1 1
h 1
v 3
h -1
v 1
h 1
v 1
h -1
v 1
h 1
v 3
l 1 1
h 1
h -1
l 1 2
h 1
l 1 1
l -1 1
h 1
v 1
l 1 1
h -2
h 1
v 1
l -1 1
h 1
v 2
h -1
h 1
v 2
h 2
l 1 1
h -1
v 1
h 1
v 2
l 1 1
h -1
v 1
h 2
v 2
l 1 1
v 2
h -2
v 1
h 2
v 2
h 1
l 1 -1
v 1
l 1 1
h -1
v 1
h 1
v 2
h 2
v 1
h 1
v 1
l 1 1
h -1
l 1 1
v 2
l 1 3
v 1
h -1
h 1
l 1 2
v 1
h -1
h 1
v 2
h 1
v -1
l 1 4
h 1
v 1
l 1 3
v 4
h 1
h -1
v 1
h 1
l 1 1
v 1
h 2
v 1
h -1
v 1
h 1
h -1
v 1
h 1
v 3
h -1
l 1 1
v 1
h -2
l 1 1
l 1 -1
h 1
v 1
h -2
v 1
h 2
l -1 2
h -1
h 2
v 1
h -2
h 1
v 2
h -2
v 1
h 1
v 1
h 1
v 1
h 1
v -1
h 1
v 1
h -1
h 1
v 1
h -1
v 2
h -1
v 1
h -1
h 2
v 2
l -1 -1
l -1 1
v 1
h 1
v -1
h 1
v 1
h -1
v 1
l 1 1
v 1
h -1
v 1
l 1 -1
v 1
h -1
v 1
h 1
v 1
h -1
v 1
h 1
v 1
h -1
v 1
h 1
h -1
l -1 1
h 1
l 1 2
h 1
l 1 -1
v 1
h -1
v 1
h 1
v 1
h -1
l 1 1
v -1
h 1
v 3
h -2
l 1 1
h -1
v 1
h 1
v -1
h 1
l -1 1
h -2
l 1 1
h 1
l -1 1
h 1
l 1 1
l -1 -1
v 2
l 1 1
l 1 1
l -1 1
h -1
l 1 1
v -1
h 1
v 1
h -1
l 1 1
h -1
l -1 1
h 1
v 1
v -1
l 1 1
l -1 3
v 4
h -1
h 2
v 1
h -1
v 1
v -1
h 1
v 1
h -1
v 1
h 1
h -1
v 1
h 1
v -1
l 1 1
l -1 1
h -1
v 1
h 1
v -1
l 1 1
v 1
h -2
l 2 1
h -1
v 1
h -1
h 2
h -1
v 1
l 1 1
l -1 1
h 1
l 1 1
h -1
v -1
l -1 1
v 1
h 2
v 1
h -1
v 1
l 1 1
h -1
h 1
v 1
l 1 1
v 1
h -1
l 1 1
h -3
v 1
h 2
v 1
h -1
l 1 1
v 2
h 1
v 1
h -2
l 1 1
h 1
l 1 2
l -1 1
l 1 2
h -1
h 1
v 2
l -1 1
h 1
h -1
v 3
l 1 1
v 1
h -1
h 1
v 1
h 1
v 1
h -2
l 1 1
l 1 1
h -2
v 3
h -1
h 1
l 1 1
v 4
h 1
l -1 1
l 1 1
l 1 1
h 1
v -1
v 4
l 1 1
v 2
h 1
v 1
v -1
h 1
l 2 -1
v 1
h -1
h 2
l -1 1
v 2
l -1 1
l -1 2
h 1
v 2
l -1 1
v 4
h -1
l 1 1
h 1
l -1 1
l 1 1
h -2
l 1 1
h -2
h 1
l 1 2
h -1
l -1 2
h -1
l 1 1
v 1
h -1
h 1
v 2
h 1
v 1
l 1 1
h -1
v 1
h 1
l -1 1
h 2
v 2
h -1
l -1 1
h 1
v 1
l 1 1
l -1 -1
l 1 2
l -1 1
h 1
v 2
h -1
v 1
h 1
l -1 1
v 1
h 1
v 2
l -1 1
h 1
v 1
h -2
h 1
v 1
h -1
l 1 1
l -1 1
v 1
l 1 1
v 4
h -1
l 1 1
l 1 -1
v 1
l -1 1
h 1
l 1 -1
v 1
h -1
v 1
l 1 -1
h 1
v 1
h -1
h 1
v 1
l -1 1
h 1
v -1
l 1 1
l -1 1
v 1
v -1
h 1
v 1
h 1
l -1 1
h 2
l -1 1
h 2
h -1
v 1
h -1
l 1 1
v -1
h 1
v 1
h -1
h 1
v 1
l -1 1
h 1
l -1 1
h 1
v 1
h 1
h -1
v 1
h 1
h -1
v 1
v -1
h 1
v 2
h -1
h 1
v 2
h -1
h 1
v 1
l 1 1
h -1
l 1 1
l -1 1
h 1
h -1
h 1
v 4
v -1
v 1
h 1
v 1
h 2
h -1
v 1
h 1
v 3
h -1
l 1 1
l -1 1
l 1 1
h 1
v -1
h 1
v 1
h -1
v 1
h 1
v -1
v 3
l 1 -1
v 1
h -1
v 1
h 1
v -1
h 1
v 2
v -1
v 1
l 1 1
v 1
l 1 1
v 3
h 1
l 1 1
h 1
v 3
h 1
v -1
h 1
v 1
l 2 1
v 1
h 1
v 1
h 1
v 2
l 1 1
v 1
h -1
v 1
l 1 1
h -1
v 1
h 1
l -1 1
h 1
v 5
h 1
v 1
l 1 1
h -1
l -1 1
v 1
l 1 2
v 2
l 1 1
l 1 1
v 1
l -1 1
h 1
l -1 1
v 1
l 1 1
l 1 1
v 5
l 1 1
v 2
l 1 1
v 1
h 1
l -1 1
l 1 1
v 9
l -1 1
v 2
l -1 1
v 2
l 1 1
v 1
l -1 1
l 1 1
v 6
l 1 1
v 2
l 1 1
v 2
h -19
l -1 1
h -11
v 1
h -25
l -3 1
h -23
l -3 1
h -23
l -7 1
h -13
v 1
h -36
l -1 1
h -40
l -2 1
h -66
v 1
h -86
l -10 1
h -127
l -3 -1
h -123
l -2 -1
h -48
l -11 -1
h -44
l -2 -1
h -38
l -3 -1
h -10
l -6 -1
h -32
l -2 -1
h -30
l -2 -1
h -22
l -7 -1
h -9
l -6 -1
h -23
l -2 -1
h -22
l -7 -1
v -30
h 1
v -1
l 1 -25
v -7
l 1 -14
v -8
l 1 -3
l 1 -21
l 1 -33
l 3 -62
v -1
l 1 -2
v -18
l 1 -2
v -15
l 1 -10
v -11
l 1 -2
l 1 -24
v -12
l 1 -1
v -4
l 1 -31
l 1 -2
v -16
l 1 -2
v -19
l 1 -7
v -40
l 1 -2
v -21
l 1 -2
v -20
l 1 -1
v -20
l 1 -1
v -20
h 1
v -10
l 1 -13
v -1
Z"/>
</g>

</svg>