<svg version="1.1" xmlns="http://www.w3.org/2000/svg" width="1000" height="464" viewBox="0 0 1000 464"><g class="districts"><path data-race-id="NE01" d="M692,151l50,-1l37,-1l20,-1v-24l-1,-3h10l39,-1h1l2,1v1l1,2v3l-1,1h-2v1h-1v1h1v1l1,1v4l2,2h1v1h1v1l1,1h3v1h1v5h-1v2l1,3v2h5v2h-1v1h-1v2l1,1h1v-1l4,-1v3h-1l1,1h4l2,1v2l-1,1v2h1v2l-1,1h-2v2h1v1h1v3h1v1l3,2l1,1v1h-1v1l1,1v1h2l1,1v1h1v1h-1v2h-1v4h-1v2h-1h1v2l2,1v2h-1v1h-1v-1l-2,3l1,2l1,4l-1,4l1,1v1l1,1l1,1v8l2,1l4,1l4,1l-2,1v2l1,1h2l2,1h4v1h1v3h-1v7l-41,1l-16,1l6,4l1,7l6,4v10l4,3l1,11l-2,3l2,7l10,6l10,-3l3,-6l11,-1v-13l-1,-5l9,-1v1h4v-1h3v1h2v2h-4v1l-1,1v1l1,1v1h1v4l1,1v3l-1,1h-1v3h1l1,1l1,1v2h-1v4h1l4,3l-1,2v4l3,7h-1v1h-2l-1,1v2l2,2v2h-1v4h1v4h-1l-1,1h-1l-1,1h-1v1l-1,2l1,1l3,3l1,1v2h1v1l2,1l4,3h1v1h1v3l2,1v3h-1v1h-1v3l1,1v1l6,3l-39,2l-20,1l-23,1l-48,1l-1,-24l-50,1v-25h-1v-25l-49,2l-1,-19l8,-10l10,-9l7,-4l-1,-9h-11l-1,-19l-13,1l-1,-31l-1,-25Z"/><path data-race-id="NE02" d="M840,247l16,-1l41,-1v1l1,1v1h-1v2h-1v2l1,1v1h1v1h2l1,-1h1l1,1h1v2h1v2h-1v1h-1l-1,1h-1v-4h-2l-1,1v1l2,2v1h-1v2h1v2h1v2h-1v1l-1,1v3h1l-9,1l1,5v13l-11,1l-3,6l-10,3l-10,-6l-2,-7l2,-3l-1,-11l-4,-3v-10l-6,-4l-1,-7Z"/><path data-race-id="NE03" d="M27,249v-8l1,-24l1,-19l1,-5l1,-26v-1l1,-10v-15l1,-6v-11l1,-7v-13l2,-37l1,-6l2,-39v-10l57,2h1l12,1l16,1h24l22,1l10,1h14l4,1h18l28,1l30,1l17,1h43l44,1h240l1,1l1,2l1,1l1,3l1,1l2,1v1l1,-1h1l1,1l1,1l2,1h2l3,2v1h1l1,1h1l4,1h1l1,1l2,1l1,1l3,2h5v1h1v1h1v1h1l1,1l1,1h1v1h1l1,3h1l1,1h1l1,1h2v-1h1v1l1,-1h1l1,-1h1l1,1v-1l2,-1h1l1,-1l1,-1l1,-1l1,-5l5,-5l8,5l2,-3l4,1l4,1l3,-2h20l3,-2l2,-1h3v1l2,1h2v-1l1,-1h2v1h1l1,1h5l2,2l2,4h2v1h3l2,4h10l2,1h4l2,1v5l6,-2l4,1h1l4,3h2l1,1v3l2,1l9,3l-2,5l4,5l2,1l2,1l1,4v1l1,1l1,1l8,-2l3,5h6l4,-1h1l3,4v2l-3,4v6l-1,1v3h1l1,2l1,1h2v2h1v3l1,1v1l-39,1h-10l1,3v24l-20,1l-37,1l-50,1v25l1,25l1,31l13,-1l1,19h11l1,9l-7,4l-10,9l-8,10l1,19l49,-2v25h1v25l50,-1l1,24l48,-1l23,-1l20,-1l39,-2v1l2,-2v-2l2,-3l1,1l1,1v2h1v1l-1,1v1h-1l-1,1h-2v6h1v1l2,1h1v1l1,1v4l1,2v1l1,1v3l1,1v4h-1l-1,1v1h4l7,4v3l5,2h4v7l4,6h1v2l4,2v2l-1,1v2l-1,3v2l2,3l9,2l2,2h-13l-1,1h-17l-1,1h-17l-3,1h-29l-2,1h-22v1h-23l-2,1h-25l-1,1h-41l-1,1h-29l-4,1h-36l-2,1h-45l-1,1h-109l-1,1h-118v-1v1v-1h-100l-1,-1h-41l-7,-1h-28l-2,-1h-16l1,-50v-27l1,-22v-9l1,-35h-35l-14,-1h-12l-3,-1h-23l-8,-1l-21,-1h-27l-21,-1l-4,-1h-15l-33,-2l1,-19l1,-9Z"/></g>  <path class="districts-mesh" d="M927,367l-39,2l-20,1l-23,1l-48,1l-1,-24l-50,1v-25h-1v-25l-49,2l-1,-19l8,-10l10,-9l7,-4l-1,-9h-11l-1,-19l-13,1l-1,-31l-1,-25v-25l50,-1l37,-1l20,-1v-24l-1,-3h10l39,-1M897,245l-41,1l-16,1l6,4l1,7l6,4v10l4,3l1,11l-2,3l2,7l10,6l10,-3l3,-6l11,-1v-13l-1,-5l9,-1"/></svg>