<svg version="1.1" xmlns="http://www.w3.org/2000/svg" width="1000" height="464" viewBox="0 0 1000 464">
  <path d="M125 16
h 24
l 22 1
l 10 1
h 14
l 4 1
h 18
l 28 1
l 30 1
l 60 1
l 79 1
h 205
l 1 1
l 1 2
l 1 1
l 1 3
l 1 1
l 2 1
v 1
l 1 -1
h 1
l 1 1
l 1 1
l 2 1
h 2
l 3 2
v 1
h 1
l 1 1
h 1
l 4 1
h 1
l 1 1
l 2 1
l 1 1
l 3 2
h 5
v 1
h 1
v 1
h 1
v 1
h 1
l 1 1
l 1 1
h 1
v 1
h 1
l 1 3
h 1
l 1 1
h 1
l 1 1
h 2
v -1
h 1
v 1
l 1 -1
h 1
l 1 -1
h 1
l 1 1
v -1
l 2 -1
h 1
l 1 -1
l 1 -1
l 1 -1
l 1 -5
l 5 -5
l 8 5
l 2 -3
l 4 1
l 4 1
l 3 -2
h 20
l 3 -2
l 2 -1
h 3
v 1
l 2 1
h 2
v -1
l 1 -1
h 2
v 1
h 1
l 1 1
h 5
l 2 2
l 2 4
h 2
v 1
h 3
l 2 4
h 10
l 2 1
h 4
l 2 1
v 5
l 6 -2
l 4 1
h 1
l 4 3
h 2
l 1 1
v 3
l 2 1
l 9 3
l -2 5
l 4 5
l 2 1
l 2 1
l 1 4
v 1
l 1 1
l 1 1
l 8 -2
l 3 5
h 6
l 4 -1
h 1
l 3 4
v 2
l -3 4
v 6
l -1 1
v 3
h 1
l 1 2
l 1 1
h 2
v 2
h 1
v 3
l 1 1
v 1
h 1
l 2 1
v 1
l 1 2
v 3
l -1 1
h -2
v 1
h -1
v 1
h 1
v 1
l 1 1
v 4
l 2 2
h 1
v 1
h 1
v 1
l 1 1
h 3
v 1
h 1
v 5
h -1
v 2
l 1 3
v 2
h 5
v 2
h -1
v 1
h -1
v 2
l 1 1
h 1
v -1
l 4 -1
v 3
h -1
l 1 1
h 4
l 2 1
v 2
l -1 1
v 2
h 1
v 2
l -1 1
h -2
v 2
h 1
v 1
h 1
v 3
h 1
v 1
l 3 2
l 1 1
v 1
h -1
v 1
l 1 1
v 1
h 2
l 1 1
v 1
h 1
v 1
h -1
v 2
h -1
v 4
h -1
v 2
h -1
h 1
v 2
l 2 1
v 2
h -1
v 1
h -1
v -1
l -2 3
l 1 2
l 1 4
l -1 4
l 1 1
v 1
l 1 1
l 1 1
v 8
l 2 1
l 4 1
l 4 1
l -2 1
v 2
l 1 1
h 2
l 2 1
h 4
v 1
h 1
v 3
h -1
v 8
l 1 1
v 1
h -1
v 2
h -1
v 2
l 1 1
v 1
h 1
v 1
h 2
l 1 -1
h 1
l 1 1
h 1
v 2
h 1
v 2
h -1
v 1
h -1
l -1 1
h -1
v -4
h -2
l -1 1
v 1
l 2 2
v 1
h -1
v 2
h 1
v 2
h 1
v 2
h -1
v 1
l -1 1
v 3
h 1
v 1
h 4
v -1
h 3
v 1
h 2
v 2
h -4
v 1
l -1 1
v 1
l 1 1
v 1
h 1
v 4
l 1 1
v 3
l -1 1
h -1
v 3
h 1
l 1 1
l 1 1
v 2
h -1
v 4
h 1
l 4 3
l -1 2
v 4
l 3 7
h -1
v 1
h -2
l -1 1
v 2
l 2 2
v 2
h -1
v 4
h 1
v 4
h -1
l -1 1
h -1
l -1 1
h -1
v 1
l -1 2
l 1 1
l 3 3
l 1 1
v 2
h 1
v 1
l 2 1
l 4 3
h 1
v 1
h 1
v 3
l 2 1
v 3
h -1
v 1
h -1
v 3
l 1 1
v 1
l 6 3
v 1
l 2 -2
v -2
l 2 -3
l 1 1
l 1 1
v 2
h 1
v 1
l -1 1
v 1
h -1
l -1 1
h -2
v 6
h 1
v 1
l 2 1
h 1
v 1
l 1 1
v 4
l 1 2
v 1
l 1 1
v 3
l 1 1
v 4
h -1
l -1 1
v 1
h 4
l 7 4
v 3
l 5 2
h 4
v 7
l 4 6
h 1
v 2
l 4 2
v 2
l -1 1
v 2
l -1 3
v 2
l 2 3
l 9 2
l 2 2
h -13
l -1 1
h -17
l -1 1
h -17
l -3 1
h -29
l -2 1
h -22
v 1
h -23
l -2 1
h -25
l -1 1
h -41
l -1 1
h -29
l -4 1
h -36
l -2 1
h -45
l -1 1
h -109
l -1 1
h -118
v -1
v 1
v -1
h -100
l -1 -1
h -41
l -7 -1
h -28
l -2 -1
h -16
l 1 -50
v -27
l 1 -22
v -9
l 1 -35
h -35
l -14 -1
h -12
l -3 -1
h -23
l -8 -1
l -21 -1
h -27
l -21 -1
l -4 -1
h -15
l -33 -2
l 1 -19
l 1 -9
l 1 -20
v -8
l 1 -24
l 1 -19
l 2 -31
v -1
l 1 -10
v -15
l 1 -6
v -11
l 1 -7
v -13
l 2 -37
l 1 -6
l 2 -39
v -11
l 58 3
l 12 1
Z"/>
<g class="districts">
<path data-race-id="NE01" d="M692 151
l 50 -1
l 37 -1
l 20 -1
v -24
l -1 -3
h 10
l 39 -1
h 1
l 2 1
v 1
l 1 2
v 3
l -1 1
h -2
v 1
h -1
v 1
h 1
v 1
l 1 1
v 4
l 2 2
h 1
v 1
h 1
v 1
l 1 1
h 3
v 1
h 1
v 5
h -1
v 2
l 1 3
v 2
h 5
v 2
h -1
v 1
h -1
v 2
l 1 1
h 1
v -1
l 4 -1
v 3
h -1
l 1 1
h 4
l 2 1
v 2
l -1 1
v 2
h 1
v 2
l -1 1
h -2
v 2
h 1
v 1
h 1
v 3
h 1
v 1
l 3 2
l 1 1
v 1
h -1
v 1
l 1 1
v 1
h 2
l 1 1
v 1
h 1
v 1
h -1
v 2
h -1
v 4
h -1
v 2
h -1
h 1
v 2
l 2 1
v 2
h -1
v 1
h -1
v -1
l -2 3
l 1 2
l 1 4
l -1 4
l 1 1
v 1
l 1 1
l 1 1
v 8
l 2 1
l 4 1
l 4 1
l -2 1
v 2
l 1 1
h 2
l 2 1
h 4
v 1
h 1
v 3
h -1
v 7
l -41 1
l -16 1
l 6 4
l 1 7
l 6 4
v 10
l 4 3
l 1 11
l -2 3
l 2 7
l 10 6
l 10 -3
l 3 -6
l 11 -1
v -13
l -1 -5
l 9 -1
v 1
h 4
v -1
h 3
v 1
h 2
v 2
h -4
v 1
l -1 1
v 1
l 1 1
v 1
h 1
v 4
l 1 1
v 3
l -1 1
h -1
v 3
h 1
l 1 1
l 1 1
v 2
h -1
v 4
h 1
l 4 3
l -1 2
v 4
l 3 7
h -1
v 1
h -2
l -1 1
v 2
l 2 2
v 2
h -1
v 4
h 1
v 4
h -1
l -1 1
h -1
l -1 1
h -1
v 1
l -1 2
l 1 1
l 3 3
l 1 1
v 2
h 1
v 1
l 2 1
l 4 3
h 1
v 1
h 1
v 3
l 2 1
v 3
h -1
v 1
h -1
v 3
l 1 1
v 1
l 6 3
l -39 2
l -20 1
l -23 1
l -48 1
l -1 -24
l -50 1
v -25
h -1
v -25
l -49 2
l -1 -19
l 8 -10
l 10 -9
l 7 -4
l -1 -9
h -11
l -1 -19
l -13 1
l -1 -31
l -1 -25
Z"/>
<path data-race-id="NE02" d="M840 247
l 16 -1
l 41 -1
v 1
l 1 1
v 1
h -1
v 2
h -1
v 2
l 1 1
v 1
h 1
v 1
h 2
l 1 -1
h 1
l 1 1
h 1
v 2
h 1
v 2
h -1
v 1
h -1
l -1 1
h -1
v -4
h -2
l -1 1
v 1
l 2 2
v 1
h -1
v 2
h 1
v 2
h 1
v 2
h -1
v 1
l -1 1
v 3
h 1
l -9 1
l 1 5
v 13
l -11 1
l -3 6
l -10 3
l -10 -6
l -2 -7
l 2 -3
l -1 -11
l -4 -3
v -10
l -6 -4
l -1 -7
Z"/>
<path data-race-id="NE03" d="M27 249
v -8
l 1 -24
l 1 -19
l 1 -5
l 1 -26
v -1
l 1 -10
v -15
l 1 -6
v -11
l 1 -7
v -13
l 2 -37
l 1 -6
l 2 -39
v -10
l 57 2
h 1
l 12 1
l 16 1
h 24
l 22 1
l 10 1
h 14
l 4 1
h 18
l 28 1
l 30 1
l 17 1
h 43
l 44 1
h 240
l 1 1
l 1 2
l 1 1
l 1 3
l 1 1
l 2 1
v 1
l 1 -1
h 1
l 1 1
l 1 1
l 2 1
h 2
l 3 2
v 1
h 1
l 1 1
h 1
l 4 1
h 1
l 1 1
l 2 1
l 1 1
l 3 2
h 5
v 1
h 1
v 1
h 1
v 1
h 1
l 1 1
l 1 1
h 1
v 1
h 1
l 1 3
h 1
l 1 1
h 1
l 1 1
h 2
v -1
h 1
v 1
l 1 -1
h 1
l 1 -1
h 1
l 1 1
v -1
l 2 -1
h 1
l 1 -1
l 1 -1
l 1 -1
l 1 -5
l 5 -5
l 8 5
l 2 -3
l 4 1
l 4 1
l 3 -2
h 20
l 3 -2
l 2 -1
h 3
v 1
l 2 1
h 2
v -1
l 1 -1
h 2
v 1
h 1
l 1 1
h 5
l 2 2
l 2 4
h 2
v 1
h 3
l 2 4
h 10
l 2 1
h 4
l 2 1
v 5
l 6 -2
l 4 1
h 1
l 4 3
h 2
l 1 1
v 3
l 2 1
l 9 3
l -2 5
l 4 5
l 2 1
l 2 1
l 1 4
v 1
l 1 1
l 1 1
l 8 -2
l 3 5
h 6
l 4 -1
h 1
l 3 4
v 2
l -3 4
v 6
l -1 1
v 3
h 1
l 1 2
l 1 1
h 2
v 2
h 1
v 3
l 1 1
v 1
l -39 1
h -10
l 1 3
v 24
l -20 1
l -37 1
l -50 1
v 25
l 1 25
l 1 31
l 13 -1
l 1 19
h 11
l 1 9
l -7 4
l -10 9
l -8 10
l 1 19
l 49 -2
v 25
h 1
v 25
l 50 -1
l 1 24
l 48 -1
l 23 -1
l 20 -1
l 39 -2
v 1
l 2 -2
v -2
l 2 -3
l 1 1
l 1 1
v 2
h 1
v 1
l -1 1
v 1
h -1
l -1 1
h -2
v 6
h 1
v 1
l 2 1
h 1
v 1
l 1 1
v 4
l 1 2
v 1
l 1 1
v 3
l 1 1
v 4
h -1
l -1 1
v 1
h 4
l 7 4
v 3
l 5 2
h 4
v 7
l 4 6
h 1
v 2
l 4 2
v 2
l -1 1
v 2
l -1 3
v 2
l 2 3
l 9 2
l 2 2
h -13
l -1 1
h -17
l -1 1
h -17
l -3 1
h -29
l -2 1
h -22
v 1
h -23
l -2 1
h -25
l -1 1
h -41
l -1 1
h -29
l -4 1
h -36
l -2 1
h -45
l -1 1
h -109
l -1 1
h -118
v -1
v 1
v -1
h -100
l -1 -1
h -41
l -7 -1
h -28
l -2 -1
h -16
l 1 -50
v -27
l 1 -22
v -9
l 1 -35
h -35
l -14 -1
h -12
l -3 -1
h -23
l -8 -1
l -21 -1
h -27
l -21 -1
l -4 -1
h -15
l -33 -2
l 1 -19
l 1 -9
Z"/>
</g>
  <path class="districts-mesh" d="M927 367
l -39 2
l -20 1
l -23 1
l -48 1
l -1 -24
l -50 1
v -25
h -1
v -25
l -49 2
l -1 -19
l 8 -10
l 10 -9
l 7 -4
l -1 -9
h -11
l -1 -19
l -13 1
l -1 -31
l -1 -25
v -25
l 50 -1
l 37 -1
l 20 -1
v -24
l -1 -3
h 10
l 39 -1
M897 245
l -41 1
l -16 1
l 6 4
l 1 7
l 6 4
v 10
l 4 3
l 1 11
l -2 3
l 2 7
l 10 6
l 10 -3
l 3 -6
l 11 -1
v -13
l -1 -5
l 9 -1"/>
</svg>