<svg version="1.1" xmlns="http://www.w3.org/2000/svg" width="518" height="1000" viewBox="0 0 518 1000">
  <path d="M402 54
v 11
l 2 25
l 3 42
l 2 28
l 1 18
v 3
l 1 18
l 1 11
l 1 10
v 6
l 2 39
l 1 32
l 1 1
v 3
l 1 19
v 12
l 1 3
v 19
l 1 2
v 17
l 1 17
v 4
l 1 2
v 15
l 2 57
v 1
l 1 19
v 12
l 2 37
v 16
l 1 2
v 25
l 1 10
l 1 6
v 12
l 2 25
v 12
l 1 1
v 10
l 1 1
h 1
v 1
l 1 1
h 1
l 1 1
v 6
h -2
v 3
l 1 2
v 1
l 1 1
v 5
l -1 1
v 3
l -2 2
v 1
l -1 1
l 1 2
l -1 1
h -2
l 1 2
h 3
v 14
h -1
l -1 3
l -1 1
v 1
h -1
l -1 1
l -1 6
l 1 3
l -1 2
v 3
l 1 1
v 2
l 1 2
h 1
v 2
l -1 1
v 1
l 2 2
v 1
h 1
v 1
l 1 1
l 1 1
l 2 2
h 4
v -1
h 1
l 1 1
h -1
h 1
v 1
l 1 1
h 1
v 2
v -1
h 1
v 1
h 1
l 1 2
l -1 1
l 1 3
h 1
l 1 1
v -1
h 1
v 2
l 1 1
l -1 1
h -1
v 1
h -1
l 1 1
l 2 2
l 2 1
h 1
l 1 3
h 2
l 1 2
l 1 1
l 2 3
h 3
v 1
h 2
v 1
l 1 1
v 2
h 3
l 2 2
l 1 1
v 1
l 1 2
h 1
l -1 2
l -1 3
v 1
h -1
v 4
l -1 3
h -1
v 3
l 1 1
l -1 5
v 2
l -1 14
l -5 -6
l -7 6
l 2 10
l -5 5
h -1
l -7 5
l 1 4
l 9 -2
l 10 5
l 3 -2
l -3 -8
l -5 2
l 3 -19
l 1 3
l 9 -2
l 18 18
v 2
l 9 7
l -5 11
l -5 4
v 4
l -9 14
l -8 20
l -2 -5
l -3 11
l 6 -3
l -1 7
l -6 3
l -3 1
l -10 -8
l -5 -1
h -6
v 1
h -1
l -4 3
l -2 1
l -1 1
h -1
l -1 1
l -7 1
h -1
l -2 1
h -3
l -2 1
l -7 5
l -3 11
l -5 3
l -3 -1
l -4 -1
l -1 -1
h -2
v -1
l -10 2
l -8 7
l -1 1
l 1 5
v 10
l 1 4
l -14 -3
l -3 2
l -4 3
l -4 7
l -1 2
l -4 5
h -22
l -8 -1
h -22
l -4 -1
h -29
v -1
h -26
l -7 -1
h -21
v -1
h -23
l -8 -1
l -19 -1
h -5
l -18 -1
h -18
l -5 -1
h -16
l -5 -1
h -19
l -7 -1
h -12
l -15 -1
h -3
v -1
l -4 -11
l -9 -6
v -3
l -8 -9
l -4 -16
l 1 -12
l 6 -5
l 2 -6
l -3 -13
l 5 -4
l 11 -3
l 3 -10
l 5 -2
l -4 -5
l -2 -14
l 9 -9
l -2 -7
l 3 -7
l -1 -1
l -2 -3
v -2
l -1 -1
l -1 -9
l 2 -6
l 3 -20
l -1 -7
l 4 -3
l 8 -19
l -4 -7
l 5 -9
l -7 -2
l 3 -9
l 4 -21
v -4
l 2 -6
l 1 -2
v -5
l -1 -2
l -4 -5
l 5 -10
l 2 -14
l 11 -8
v -6
l 4 -9
v -3
l 4 -6
v -11
l 8 -13
l 10 -5
l 8 -9
l 4 -11
l 2 -3
l -1 -1
l 1 -8
l -1 -8
l 5 -4
l -1 -5
l 5 -7
l 7 -5
l 2 -5
v -3
l 2 -4
l 2 -2
v -1
l 1 -1
l -4 -4
l 1 -10
l 1 -2
l 1 -1
l -1 -1
v -2
h 1
l 1 -1
l 1 1
v 1
h 1
l -1 -2
v -2
l 1 -1
l 13 -20
l 1 1
v -10
l -2 3
l -1 -1
l -1 -6
v -1
l 1 -1
v -1
h 2
l 2 -1
v -3
h -1
l -1 -4
v -2
l 1 -1
v -1
h -1
v -2
h -1
l -1 -1
v -1
l -1 -3
v -1
l -2 -3
h -1
v -1
l 1 -3
l 1 -3
v -2
l 3 -11
l -2 -3
l -1 -4
v -3
h -2
v -3
l 1 -2
l 1 -1
l 1 -1
v -1
h 2
l 1 -1
l 3 -6
v -2
l -1 -1
h 1
v -1
h 6
l 2 -1
l 4 -3
v -1
l 1 -1
h 11
l 1 1
h 1
l 3 -3
v -1
l 3 -1
l 6 2
l 7 1
h 1
l 9 -4
h 1
l 2 -7
h -1
v -4
l 3 -1
v -1
l -1 -1
l 1 -1
l 1 -1
l 1 -1
l 1 -1
h 3
l 3 -1
h 1
l 4 1
h 2
v -1
l 1 -1
l 5 -1
l 6 -3
l 3 -2
v -1
l 1 -2
l 1 -1
l 3 -2
l 4 -10
l 4 -2
l 3 -2
l 6 -2
l 2 -6
h 1
l 2 -1
v -1
l -1 -2
l -1 -1
v -2
l 2 -9
l -5 -4
l 6 -3
l 4 -1
l 1 -1
l 1 -1
v -3
l 1 1
l 3 -2
v -2
h -1
v -2
l -2 1
l 1 -1
v -1
h -3
v -1
l 1 -1
h -3
l 2 -1
v -1
l 2 -5
v -2
l -1 -1
l -3 -3
l 1 -2
l -1 -2
l -1 -2
h -2
v -1
l -3 -2
l 1 -1
l -1 -1
l 1 -2
h -1
l -1 -1
l -1 -1
v -3
l -1 -2
l 1 -2
l -2 -1
l -4 -7
v -3
l -2 -2
v -2
l -1 -3
h -1
l 1 -1
v -1
l 14 -15
v -6
l -1 -2
l 1 -1
v -1
l 5 -9
l 1 -5
l 1 -1
l 6 -6
h 1
l 1 -1
l 1 -3
l 4 -5
l 1 -1
v -2
l -2 -1
l -3 -4
l -1 -1
v -2
h -1
v -2
l 1 -1
v -1
l -1 -1
l 1 -3
v -3
l -2 -1
v -1
l -2 -2
l -1 -2
l -1 -1
v -1
l 1 -2
l 7 -6
l 7 3
l 4 -5
h -9
v -3
l 1 -1
v -2
l 1 -1
v -2
l 1 -1
l -2 -1
h -2
v -2
l 2 -2
l -1 -1
l 1 -3
v -1
l 1 -1
h 1
l 1 -2
l 1 -1
l 1 -1
l 3 -3
l 1 -1
l 1 -1
v -1
h 1
l 1 -4
l 1 -1
l 2 -1
l 2 -2
l 1 -2
v -2
l -1 -1
l -1 -2
l -1 -1
l 1 -1
l 1 -1
l 2 -4
v -2
l 2 -6
v -1
l 3 -5
v -1
h 1
v -2
l -1 -2
l -3 -2
l -3 -3
l -3 -3
l -1 -1
h 2
l 2 1
h 1
l 3 -2
l 1 -1
l 3 1
l 4 -1
l 2 -1
l 1 -1
l 2 -1
v -7
h 3
l 4 -3
l 1 -1
l 3 -2
h 1
l 3 -4
h 1
v -1
l 2 -1
h 1
l 3 2
l 2 1
l 1 6
v 1
l 2 1
l 2 2
h 1
l 2 3
l 1 1
l 1 1
h 8
l 2 2
l 1 1
h 2
l 1 -1
l 2 -1
h 2
l 2 2
l 1 1
h 1
l 1 -1
l 3 -3
l 1 -2
l 1 -3
l 1 -2
v -1
l 1 -1
v -5
l 1 -2
l 2 -2
l 1 -1
h 2
l 2 19
v 2
Z"/>
<g class="districts">
<path data-race-id="NH01" d="M278 546
l -1 -7
l 18 -2
l 6 -2
l 17 -2
l 12 -3
l -4 -27
l -1 -12
l 9 -16
h -5
l -4 -10
l 1 -9
l -3 -13
l -6 -3
l -4 -16
l 3 -1
l 5 -1
l 3 13
l 8 5
l 2 14
v 13
h 9
l 2 -16
l 13 -39
l 30 1
h 25
l -1 -17
h 10
v 15
l 2 57
v 1
l 1 19
v 12
l 2 37
v 16
l 1 2
v 25
l 1 10
l 1 6
v 12
l 2 25
v 12
l 1 1
v 10
l 1 1
h 1
v 1
l 1 1
h 1
l 1 1
v 6
h -2
v 3
l 1 2
v 1
l 1 1
v 5
l -1 1
v 3
l -2 2
v 1
l -1 1
l 1 2
l -1 1
h -2
l 1 2
h 3
v 14
h -1
l -1 3
l -1 1
v 1
h -1
l -1 1
l -1 6
l 1 3
l -1 2
v 3
l 1 1
v 2
l 1 2
h 1
v 2
l -1 1
v 1
l 2 2
v 1
h 1
v 1
l 1 1
l 1 1
l 2 2
h 4
v -1
h 1
l 1 1
h -1
h 1
v 1
l 1 1
h 1
v 2
v -1
h 1
v 1
h 1
l 1 2
l -1 1
l 1 3
h 1
l 1 1
v -1
h 1
v 2
l 1 1
l -1 1
h -1
v 1
h -1
l 1 1
l 2 2
l 2 1
h 1
l 1 3
h 2
l 1 2
l 1 1
l 2 3
h 3
v 1
h 2
v 1
l 1 1
v 2
h 3
l 2 2
l 1 1
v 1
l 1 2
h 1
l -1 2
l -1 3
v 1
h -1
v 4
l -1 3
h -1
v 3
l 1 1
l -1 5
v 2
l -1 14
l -5 -6
l -7 6
l 2 10
l -5 5
h -1
l -7 5
l 1 4
l 9 -2
l 10 5
l 3 -2
l -3 -8
l -5 2
l 3 -19
l 1 3
l 9 -2
l 18 18
v 2
l 9 7
l -5 11
l -5 4
v 4
l -9 14
l -8 20
l -2 -5
l -3 11
l 6 -3
l -1 7
l -6 3
l -3 1
l -10 -8
l -5 -1
h -6
v 1
h -1
l -4 3
l -2 1
l -1 1
h -1
l -1 1
l -7 1
h -1
l -2 1
h -3
l -2 1
l -7 5
l -3 11
l -5 3
l -3 -1
l -4 -1
l -1 -1
h -2
v -8
l -5 -8
l -4 1
h -11
l -11 3
h -11
l -19 3
l -1 13
l -3 2
l -7 -8
l -11 -1
l -4 -24
l -3 -4
l -9 14
l 1 10
l 3 7
v 9
l -6 -1
v -3
h -13
l -4 4
l -2 -17
l -3 -15
l 1 -6
l -2 -17
l -8 1
l -2 -12
l -6 -30
l 17 -2
l 16 -3
l 13 -19
l 30 7
l 18 5
l 20 4
l 6 -12
l -4 -1
l 4 -7
l 4 3
l 3 -4
l -4 -3
l 13 -21
l -26 -23
l -6 -4
l 3 -3
l -31 -24
l -9 -6
l -9 -8
l -17 -11
l -18 -13
l -16 6
l -4 -7
l 1 -6
l -3 -7
l -4 1
l -7 -3
l -3 -6
v -5
l -4 -3
l -6 -9
l 3 -6
l -4 -6
l 7 -3
l 4 3
l 7 -3
l 2 -8
l 2 -22
l 18 -3
l 8 11
l 7 -2
l 11 -11
l 4 4
l 7 -3
l -24 -24
l -4 -13
l -32 6
h -15
l -7 -8
l 7 -19
v -9
h 5
l 5 7
l 5 -3
h 9
Z"/>
<path data-race-id="NH02" d="M46 819
l -2 -3
v -2
l -1 -1
l -1 -9
l 2 -6
l 3 -20
l -1 -7
l 4 -3
l 8 -19
l -4 -7
l 5 -9
l -7 -2
l 3 -9
l 4 -21
v -4
l 2 -6
l 1 -2
v -5
l -1 -2
l -4 -5
l 5 -10
l 2 -14
l 11 -8
v -6
l 4 -9
v -3
l 4 -6
v -11
l 8 -13
l 10 -5
l 8 -9
l 4 -11
l 2 -3
l -1 -1
l 1 -8
l -1 -8
l 5 -4
l -1 -5
l 5 -7
l 7 -5
l 2 -5
v -3
l 2 -4
l 2 -2
v -1
l 1 -1
l -4 -4
l 1 -10
l 1 -2
l 1 -1
l -1 -1
v -2
h 1
l 1 -1
l 1 1
v 1
h 1
l -1 -2
v -2
l 1 -1
l 13 -20
l 1 1
v -10
l -2 3
l -1 -1
l -1 -6
v -1
l 1 -1
v -1
h 2
l 2 -1
v -3
h -1
l -1 -4
v -2
l 1 -1
v -1
h -1
v -2
h -1
l -1 -1
v -1
l -1 -3
v -1
l -2 -3
h -1
v -1
l 1 -3
l 1 -3
v -2
l 3 -11
l -2 -3
l -1 -4
v -3
h -2
v -3
l 1 -2
l 1 -1
l 1 -1
v -1
h 2
l 1 -1
l 3 -6
v -2
l -1 -1
h 1
v -1
h 6
l 2 -1
l 4 -3
v -1
l 1 -1
h 11
l 1 1
h 1
l 3 -3
v -1
l 3 -1
l 6 2
l 7 1
h 1
l 9 -4
h 1
l 2 -7
h -1
v -4
l 3 -1
v -1
l -1 -1
l 1 -1
l 1 -1
l 1 -1
l 1 -1
h 3
l 3 -1
h 1
l 4 1
h 2
v -1
l 1 -1
l 5 -1
l 6 -3
l 3 -2
v -1
l 1 -2
l 1 -1
l 3 -1
l 4 -11
l 4 -2
l 3 -2
l 6 -2
l 2 -6
h 1
l 2 -1
v -1
l -1 -2
l -1 -1
v -2
l 4 -7
l -2 -2
l -5 -4
l 6 -3
l 4 -1
l 1 -1
l 1 -1
v -3
l 1 1
l 3 -2
v -2
h -1
v -2
l -2 1
l 1 -1
v -1
h -3
v -1
l 1 -1
h -3
l 2 -1
v -1
l 2 -5
v -2
l -1 -1
l -3 -3
l 1 -2
l -1 -2
l -1 -2
h -2
v -1
l -3 -2
l 1 -1
l -1 -1
l 1 -2
h -1
l -1 -1
l -1 -1
v -3
l -1 -2
l 1 -2
l -2 -1
l -4 -7
v -3
l -2 -2
v -2
l -1 -3
h -1
l 1 -1
v -1
l 4 -2
l 5 -8
l 5 -3
v -8
l -1 -2
l 1 -1
v -1
l 6 -5
l -1 -4
l 1 -5
l 1 -1
l 6 -6
h 1
l 1 -1
l 1 -3
l 4 -5
l 1 -1
v -2
l -2 -1
l -3 -4
l -1 -1
v -2
h -1
v -2
l 1 -1
v -1
l -1 -1
l 1 -3
v -3
l -2 -1
v -1
l -2 -2
l -1 -2
l -1 -1
v -1
l 1 -2
l 7 -5
l 8 2
l 3 -5
h -9
v -3
l 1 -1
v -2
l 1 -1
v -2
l 1 -1
l -2 -1
h -2
v -2
l 2 -2
l -1 -1
l 1 -3
v -1
l 1 -1
h 1
l 1 -2
l 1 -1
l 1 -1
l 3 -3
l 1 -1
l 1 -1
v -1
h 1
l 1 -4
l 1 -1
l 2 -1
l 2 -2
l 1 -2
v -2
l -1 -1
l -1 -2
l -1 -1
l 1 -1
l 1 -1
l 2 -4
v -2
l 2 -6
v -1
l 3 -5
v -1
h 1
v -2
l -1 -2
l -3 -2
l -3 -3
l -3 -3
l -1 -1
h 2
l 2 1
h 1
l 3 -2
l 1 -1
l 3 1
l 4 -1
l 2 -1
l 1 -1
l 2 -1
v -7
h 3
l 4 -3
l 1 -1
l 3 -2
h 1
l 3 -4
h 1
v -1
l 2 -1
h 1
l 3 2
l 2 1
l 1 6
v 1
l 2 1
l 2 2
h 1
l 2 3
l 1 1
l 1 1
h 8
l 2 2
l 1 1
h 2
l 1 -1
l 2 -1
h 2
l 2 2
l 1 1
h 1
l 1 -1
l 3 -3
l 1 -2
l 1 -3
l 1 -2
v -1
l 1 -1
v -5
l 1 -2
l 2 -2
l 1 -1
h 2
l 2 19
v 2
l 1 8
v 11
l 2 25
l 3 42
l 2 28
l 1 18
v 3
l 1 18
l 1 11
l 1 10
v 6
l 2 39
l 1 32
l 1 1
v 3
l 1 19
v 12
l 1 3
v 19
l 1 2
v 17
l 1 17
v 4
l 1 2
h -10
l 1 17
h -25
l -30 -1
l -13 39
l -2 16
h -9
v -13
l -2 -14
l -8 -5
l -3 -13
l -5 1
l -3 1
l 4 16
l 6 3
l 3 13
l -1 9
l 4 10
h 5
l -9 16
l 1 12
l 4 27
l -12 3
l -17 2
l -6 2
l -18 2
l 1 7
l -19 2
h -9
l -5 3
l -5 -7
h -5
v 9
l -7 19
l 7 8
h 15
l 32 -6
l 4 13
l 24 24
l -7 3
l -4 -4
l -11 11
l -7 2
l -8 -11
l -18 3
l -2 22
l -2 8
l -7 3
l -4 -3
l -7 3
l 4 6
l -3 6
l 6 9
l 4 3
v 5
l 3 6
l 7 3
l 4 -1
l 3 7
l -1 6
l 4 7
l 16 -6
l 18 13
l 17 11
l 9 8
l 9 6
l 31 24
l -3 3
l 6 4
l 26 23
l -13 21
l 4 3
l -3 4
l -4 -3
l -4 7
l 4 1
l -6 12
l -20 -4
l -18 -5
l -30 -7
l -13 19
l -16 3
l -17 2
l 6 30
l 2 12
l 8 -1
l 2 17
l -1 6
l 3 15
l 2 17
l 4 -4
h 13
v 3
l 6 1
v -9
l -3 -7
l -1 -10
l 9 -14
l 3 4
l 4 24
l 11 1
l 7 8
l 3 -2
l 1 -13
l 19 -3
h 11
l 11 -3
h 11
l 4 -1
l 5 8
v 8
v -1
l -10 2
l -8 7
l -1 1
l 1 5
v 10
l 1 4
l -14 -3
l -3 2
l -4 3
l -4 7
l -1 2
l -4 5
h -22
l -8 -1
h -22
l -4 -1
h -29
v -1
h -26
l -7 -1
h -21
v -1
h -23
l -8 -1
l -19 -1
h -5
l -18 -1
h -18
l -5 -1
h -16
l -5 -1
h -19
l -7 -1
h -12
l -15 -1
h -3
v -1
l -4 -11
l -9 -6
v -3
l -8 -9
l -4 -16
l 1 -12
l 6 -5
l 2 -6
l -3 -13
l 5 -4
l 11 -3
l 3 -10
l 5 -2
l -4 -5
l -2 -14
l 9 -9
l -2 -7
l 3 -7
Z"/>
</g>
  <path class="districts-mesh" d="M397 931
v -8
l -5 -8
l -4 1
h -11
l -11 3
h -11
l -19 3
l -1 13
l -3 2
l -7 -8
l -11 -1
l -4 -24
l -3 -4
l -9 14
l 1 10
l 3 7
v 9
l -6 -1
v -3
h -13
l -4 4
l -2 -17
l -3 -15
l 1 -6
l -2 -17
l -8 1
l -2 -12
l -6 -30
l 17 -2
l 16 -3
l 13 -19
l 30 7
l 18 5
l 20 4
l 6 -12
l -4 -1
l 4 -7
l 4 3
l 3 -4
l -4 -3
l 13 -21
l -26 -23
l -6 -4
l 3 -3
l -31 -24
l -9 -6
l -9 -8
l -17 -11
l -18 -13
l -16 6
l -4 -7
l 1 -6
l -3 -7
l -4 1
l -7 -3
l -3 -6
v -5
l -4 -3
l -6 -9
l 3 -6
l -4 -6
l 7 -3
l 4 3
l 7 -3
l 2 -8
l 2 -22
l 18 -3
l 8 11
l 7 -2
l 11 -11
l 4 4
l 7 -3
l -24 -24
l -4 -13
l -32 6
h -15
l -7 -8
l 7 -19
v -9
h 5
l 5 7
l 5 -3
h 9
l 19 -2
l -1 -7
l 18 -2
l 6 -2
l 17 -2
l 12 -3
l -4 -27
l -1 -12
l 9 -16
h -5
l -4 -10
l 1 -9
l -3 -13
l -6 -3
l -4 -16
l 3 -1
l 5 -1
l 3 13
l 8 5
l 2 14
v 13
h 9
l 2 -16
l 13 -39
l 30 1
h 25
l -1 -17
h 10"/>
</svg>