<svg version="1.1" xmlns="http://www.w3.org/2000/svg" width="518" height="1000" viewBox="0 0 518 1000"><path data-race-id="NH01" d="M228,572l8,-19l-1,-9h5l5,7l5,-3h9l19,-2l-1,-7l41,-6l12,-3l-5,-30l-1,-8l10,-17h-5l-4,-10l1,-9l-3,-13l-7,-4l-3,-15l3,-1l5,-1l3,13l3,2l5,4l2,13v13h9l1,-8l1,-8l4,-14l7,-20l5,-5h20l17,2l15,-1l-1,-17h10v15l2,57v6l1,14v12l1,26l1,2v25l1,2v25l1,10l1,6v12l1,5v2l1,18v12l1,1v10l1,1h1v1l1,1h1l1,1v6h-2v3l1,2v1l1,1v5l-1,1v3l-2,2v1l-1,1l1,2l-1,1h-2l1,2h3v14h-1l-1,3l-1,1v1h-1l-1,1l-1,6l1,3l-1,2v3l1,1v2l1,2h1v2l-1,1v1l2,2v1h1v1l1,1l1,1l2,2h4v-1h1l1,1h-1h1v1l1,1h1v2v-1h1v1h1l1,2l-1,1l1,3h1l1,1v-1h1v2l1,1l-1,1h-1v1h-1l1,1l1,1l1,1l2,1h1l1,3h2l1,2l1,1l2,3h3v1h2v1l1,1v2h3l2,2l1,1v1l1,2h1l-1,2l-1,3v1h-1v5l-1,2h-1v3l1,1l-1,5v2l-1,14l-4,-5l-3,1h-1v1l-2,3v10l-5,5h-1l-7,5l1,5h2l1,-1h1l5,-2l10,5l3,-4v-1l-3,-5l-5,2l3,-19l1,3l9,-2l7,7h1l10,11l2,4l7,5l-5,11l-5,4v4l-5,8v1l-3,4l-1,1l-3,11l1,3h-2l-3,6l-3,-5l-3,1v10l5,-4l1,1l-1,2v5l-6,3l-3,1l-10,-8l-5,-1h-6v1h-1l-4,3l-2,1l-1,1h-1l-1,1l-7,1h-1l-1,1h-4l-2,1h-2l-6,9l-2,7l-5,3l-3,-1l-4,-1l-1,-1h-2v-8l-5,-8l-4,1h-16l1,1l-10,2h-8l-16,3h-3l-1,13l-3,2l-7,-8l-11,-1l-4,-24l-3,-5l-9,15l1,10l4,13l-7,2v-3h-13l-4,4v-4l-5,-28l1,-6l-2,-17l-8,1l-2,-10l-5,-23l-1,-9l17,-2l16,-3l1,-2l12,-17v-1v2l30,6l18,5l15,3l5,1l6,-12l-4,-1l4,-7l4,3l3,-4l-4,-3l6,-9l7,-12l-1,-1l-25,-22l-6,-4l3,-3l-30,-23l-28,-20l-4,-3l-21,-15l-7,3h-11l-2,-10l-3,-8l-4,1l-7,-3l-3,-7v-4l-4,-4l-6,-8l3,-6l-4,-6l7,-3l4,3l7,-3l3,-6l-1,-5l2,-19l18,-3l6,10h9l11,-12l4,4l7,-3l-24,-24l-1,-1l-3,-12l-33,6h-14Z"/><path data-race-id="NH02" d="M46,819l-2,-3v-2l-1,-1l-1,-9l2,-6l3,-20l-1,-7l4,-3l8,-19l-4,-7l2,-3l3,-6l-7,-2l5,-22l1,-2l1,-6v-4l2,-6l1,-2v-5l-1,-2l-3,-7v-1l4,-7l2,-14l11,-8v-6l4,-9v-3l4,-6v-10l8,-14l10,-5l8,-9l4,-11l2,-3l-1,-1l1,-12l-1,-5l5,-3v-1l-1,-4l5,-7l7,-5l2,-5v-3l2,-4l2,-2v-1l1,-1l-4,-4l1,-10l1,-2l1,-1l-1,-1v-2h1l1,-1l1,1v1h1l-1,-2v-2l1,-1l3,-1h1l-1,-4l10,-15l1,1v-10l-2,3l-1,-1l-1,-6v-1l1,-1v-1h2l2,-1v-3h-1l-1,-4v-2l1,-1v-1h-1v-2h-1l-1,-1v-1l-1,-3v-1l-2,-3h-1v-1l1,-3l1,-3v-2l2,-2l1,-9l-2,-3l-1,-4v-3h-2v-3l1,-2l1,-1l1,-1v-1h2l1,-1l3,-6v-2l-1,-1h1v-1h6l2,-1l4,-3v-1l1,-1h11l1,1h1l3,-3v-1l3,-1l6,2l7,1h1l9,-4h1l2,-7h-1v-4l3,-1v-1l-1,-1l1,-1l1,-1l1,-1l1,-1h3l3,-1h1l4,1h2v-1l1,-1l5,-1l6,-3l3,-2v-1l1,-2l1,-1l4,-2l3,-10l4,-2l3,-2l6,-2l2,-6h1l2,-1v-1l-1,-2l-1,-1v-2l4,-7l-2,-2l-5,-4l6,-3l4,-1l1,-1l1,-1v-3l1,1l3,-2v-2h-1v-2l-2,1l1,-1v-1h-3v-1l1,-1h-3l2,-1v-1l2,-5v-2l-1,-1l-3,-3l1,-1v-1l-1,-2l-1,-2h-2v-1l-3,-2l1,-1l-1,-1l1,-2h-1l-1,-1l-1,-1v-3l-1,-2l1,-2l-2,-1l-4,-7v-3l-2,-2v-2l-1,-3h-1l1,-1v-1l7,-7l6,-4l1,-10l-1,-2l1,-1v-1l6,-5l-1,-4l1,-5l1,-1l6,-6h1l1,-1l1,-3l4,-5l1,-1v-2l-2,-1l-3,-4l-1,-1v-2h-1v-2l1,-1v-1l-1,-1l1,-3v-3l-2,-1v-1l-2,-2l-1,-2l-1,-1v-1l1,-2l7,-5l5,2l6,-5h-9v-3l1,-1v-2l1,-1v-2l1,-1l-2,-1h-2v-2l2,-2l-1,-1l1,-3v-1l1,-1h1l1,-2l1,-1l1,-1l3,-3l1,-1l1,-1v-1h1l1,-4l1,-1l2,-1l2,-2l1,-2v-2l-1,-1l-1,-2l-1,-1l1,-1l1,-1l2,-4v-2l2,-6v-1l3,-5v-1h1v-2l-1,-2l-3,-2l-3,-3l-3,-3l-1,-1h2l2,1h1l3,-2l1,-1l3,1l4,-1l2,-1l1,-1l2,-1v-7h3l4,-3l1,-1l3,-2h1l3,-4h1v-1l2,-1h1l3,2l2,1l1,6v1l2,1l2,2h1l2,3l1,1l1,1h8l2,2l1,1h2l1,-1l2,-1h2l2,2l1,1h1l1,-1l3,-3l1,-2l1,-3l1,-2v-1l1,-1v-5l1,-2l2,-2l1,-1h2l2,19v2l1,8v11l2,25l2,39l1,2v14l2,15l1,18v7l1,14l1,11l1,10v6l1,14v1l1,31l1,5v20l1,1v3l1,19v12l1,3v19l1,2v17l1,2v19l1,2h-10l1,17l-15,1l-17,-2h-20l-5,5l-7,20l-4,14l-1,8l-1,8h-9v-13l-2,-13l-5,-4l-3,-2l-3,-13l-5,1l-3,1l3,15l7,4l3,13l-1,9l4,10h5l-10,17l1,8l5,30l-12,3l-41,6l1,7l-19,2h-9l-5,3l-5,-7h-5l1,9l-8,19l7,8h14l33,-6l3,12l1,1l24,24l-7,3l-4,-4l-11,12h-9l-6,-10l-18,3l-2,19l1,5l-3,6l-7,3l-4,-3l-7,3l4,6l-3,6l6,8l4,4v4l3,7l7,3l4,-1l3,8l2,10h11l7,-3l21,15l4,3l28,20l30,23l-3,3l6,4l25,22l1,1l-7,12l-6,9l4,3l-3,4l-4,-3l-4,7l4,1l-6,12l-5,-1l-15,-3l-18,-5l-30,-6v-2v1l-12,17l-1,2l-16,3l-17,2l1,9l5,23l2,10l8,-1l2,17l-1,6l5,28v4l4,-4h13v3l7,-2l-4,-13l-1,-10l9,-15l3,5l4,24l11,1l7,8l3,-2l1,-13h3l16,-3h8l10,-2l-1,-1h16l4,-1l5,8v8v-1l-10,2l-3,2l-5,5l-1,1l1,5v10l1,4l-14,-3l-3,2l-4,3l-4,7l-1,2l-4,5h-22l-3,-1h-27l-4,-1h-29l-4,-1h-22l-7,-1h-21v-1h-23l-8,-1l-19,-1h-21v-1h-20l-5,-1h-16l-5,-1h-19l-2,-1h-17l-15,-1h-3v-1l-4,-11l-9,-6v-3l-8,-9l-4,-18l1,-10l6,-5l1,-13l-1,-8l4,-2l11,-3l3,-10l5,-2l-4,-5v-3l-2,-11l9,-9l-2,-7l3,-7Z"/>  <path class="mesh" d="M397,931v-8l-5,-8l-4,1h-16l1,1l-10,2h-8l-16,3h-3l-1,13l-3,2l-7,-8l-11,-1l-4,-24l-3,-5l-9,15l1,10l4,13l-7,2v-3h-13l-4,4v-4l-5,-28l1,-6l-2,-17l-8,1l-2,-10l-5,-23l-1,-9l17,-2l16,-3l1,-2l12,-17v-1v2l30,6l18,5l15,3l5,1l6,-12l-4,-1l4,-7l4,3l3,-4l-4,-3l6,-9l7,-12l-1,-1l-25,-22l-6,-4l3,-3l-30,-23l-28,-20l-4,-3l-21,-15l-7,3h-11l-2,-10l-3,-8l-4,1l-7,-3l-3,-7v-4l-4,-4l-6,-8l3,-6l-4,-6l7,-3l4,3l7,-3l3,-6l-1,-5l2,-19l18,-3l6,10h9l11,-12l4,4l7,-3l-24,-24l-1,-1l-3,-12l-33,6h-14l-7,-8l8,-19l-1,-9h5l5,7l5,-3h9l19,-2l-1,-7l41,-6l12,-3l-5,-30l-1,-8l10,-17h-5l-4,-10l1,-9l-3,-13l-7,-4l-3,-15l3,-1l5,-1l3,13l3,2l5,4l2,13v13h9l1,-8l1,-8l4,-14l7,-20l5,-5h20l17,2l15,-1l-1,-17h10"/><g class="cities"><circle r="7" cx="307" cy="866"/><text x="307" y="866">Manchester</text><circle r="7" cx="304" cy="950"/><text x="304" y="950">Nashua</text><circle r="7" cx="285" cy="789"/><text x="285" y="789">Concord</text></g></svg>