<svg version="1.1" xmlns="http://www.w3.org/2000/svg" width="518" height="1000" viewBox="0 0 518 1000">  <path d="M402,54v11l2,25l3,42l2,28l1,18v3l1,18l1,11l1,10v6l2,39l1,32l1,1v3l1,19v12l1,3v19l1,2v17l1,17v4l1,2v15l2,57v1l1,19v12l2,37v16l1,2v25l1,10l1,6v12l2,25v12l1,1v10l1,1h1v1l1,1h1l1,1v6h-2v3l1,2v1l1,1v5l-1,1v3l-2,2v1l-1,1l1,2l-1,1h-2l1,2h3v14h-1l-1,3l-1,1v1h-1l-1,1l-1,6l1,3l-1,2v3l1,1v2l1,2h1v2l-1,1v1l2,2v1h1v1l1,1l1,1l2,2h4v-1h1l1,1h-1h1v1l1,1h1v2v-1h1v1h1l1,2l-1,1l1,3h1l1,1v-1h1v2l1,1l-1,1h-1v1h-1l1,1l2,2l2,1h1l1,3h2l1,2l1,1l2,3h3v1h2v1l1,1v2h3l2,2l1,1v1l1,2h1l-1,2l-1,3v1h-1v4l-1,3h-1v3l1,1l-1,5v2l-1,14l-5,-6l-7,6l2,10l-5,5h-1l-7,5l1,4l9,-2l10,5l3,-2l-3,-8l-5,2l3,-19l1,3l9,-2l18,18v2l9,7l-5,11l-5,4v4l-9,14l-8,20l-2,-5l-3,11l6,-3l-1,7l-6,3l-3,1l-10,-8l-5,-1h-6v1h-1l-4,3l-2,1l-1,1h-1l-1,1l-7,1h-1l-2,1h-3l-2,1l-7,5l-3,11l-5,3l-3,-1l-4,-1l-1,-1h-2v-1l-10,2l-8,7l-1,1l1,5v10l1,4l-14,-3l-3,2l-4,3l-4,7l-1,2l-4,5h-22l-8,-1h-22l-4,-1h-29v-1h-26l-7,-1h-21v-1h-23l-8,-1l-19,-1h-5l-18,-1h-18l-5,-1h-16l-5,-1h-19l-7,-1h-12l-15,-1h-3v-1l-4,-11l-9,-6v-3l-8,-9l-4,-16l1,-12l6,-5l2,-6l-3,-13l5,-4l11,-3l3,-10l5,-2l-4,-5l-2,-14l9,-9l-2,-7l3,-7l-1,-1l-2,-3v-2l-1,-1l-1,-9l2,-6l3,-20l-1,-7l4,-3l8,-19l-4,-7l5,-9l-7,-2l3,-9l4,-21v-4l2,-6l1,-2v-5l-1,-2l-4,-5l5,-10l2,-14l11,-8v-6l4,-9v-3l4,-6v-11l8,-13l10,-5l8,-9l4,-11l2,-3l-1,-1l1,-8l-1,-8l5,-4l-1,-5l5,-7l7,-5l2,-5v-3l2,-4l2,-2v-1l1,-1l-4,-4l1,-10l1,-2l1,-1l-1,-1v-2h1l1,-1l1,1v1h1l-1,-2v-2l1,-1l13,-20l1,1v-10l-2,3l-1,-1l-1,-6v-1l1,-1v-1h2l2,-1v-3h-1l-1,-4v-2l1,-1v-1h-1v-2h-1l-1,-1v-1l-1,-3v-1l-2,-3h-1v-1l1,-3l1,-3v-2l3,-11l-2,-3l-1,-4v-3h-2v-3l1,-2l1,-1l1,-1v-1h2l1,-1l3,-6v-2l-1,-1h1v-1h6l2,-1l4,-3v-1l1,-1h11l1,1h1l3,-3v-1l3,-1l6,2l7,1h1l9,-4h1l2,-7h-1v-4l3,-1v-1l-1,-1l1,-1l1,-1l1,-1l1,-1h3l3,-1h1l4,1h2v-1l1,-1l5,-1l6,-3l3,-2v-1l1,-2l1,-1l3,-2l4,-10l4,-2l3,-2l6,-2l2,-6h1l2,-1v-1l-1,-2l-1,-1v-2l2,-9l-5,-4l6,-3l4,-1l1,-1l1,-1v-3l1,1l3,-2v-2h-1v-2l-2,1l1,-1v-1h-3v-1l1,-1h-3l2,-1v-1l2,-5v-2l-1,-1l-3,-3l1,-2l-1,-2l-1,-2h-2v-1l-3,-2l1,-1l-1,-1l1,-2h-1l-1,-1l-1,-1v-3l-1,-2l1,-2l-2,-1l-4,-7v-3l-2,-2v-2l-1,-3h-1l1,-1v-1l14,-15v-6l-1,-2l1,-1v-1l5,-9l1,-5l1,-1l6,-6h1l1,-1l1,-3l4,-5l1,-1v-2l-2,-1l-3,-4l-1,-1v-2h-1v-2l1,-1v-1l-1,-1l1,-3v-3l-2,-1v-1l-2,-2l-1,-2l-1,-1v-1l1,-2l7,-6l7,3l4,-5h-9v-3l1,-1v-2l1,-1v-2l1,-1l-2,-1h-2v-2l2,-2l-1,-1l1,-3v-1l1,-1h1l1,-2l1,-1l1,-1l3,-3l1,-1l1,-1v-1h1l1,-4l1,-1l2,-1l2,-2l1,-2v-2l-1,-1l-1,-2l-1,-1l1,-1l1,-1l2,-4v-2l2,-6v-1l3,-5v-1h1v-2l-1,-2l-3,-2l-3,-3l-3,-3l-1,-1h2l2,1h1l3,-2l1,-1l3,1l4,-1l2,-1l1,-1l2,-1v-7h3l4,-3l1,-1l3,-2h1l3,-4h1v-1l2,-1h1l3,2l2,1l1,6v1l2,1l2,2h1l2,3l1,1l1,1h8l2,2l1,1h2l1,-1l2,-1h2l2,2l1,1h1l1,-1l3,-3l1,-2l1,-3l1,-2v-1l1,-1v-5l1,-2l2,-2l1,-1h2l2,19v2Z"/><g class="districts"><path data-race-id="NH01" d="M278,546l-1,-7l18,-2l6,-2l17,-2l12,-3l-4,-27l-1,-12l9,-16h-5l-4,-10l1,-9l-3,-13l-6,-3l-4,-16l3,-1l5,-1l3,13l8,5l2,14v13h9l2,-16l13,-39l30,1h25l-1,-17h10v15l2,57v1l1,19v12l2,37v16l1,2v25l1,10l1,6v12l2,25v12l1,1v10l1,1h1v1l1,1h1l1,1v6h-2v3l1,2v1l1,1v5l-1,1v3l-2,2v1l-1,1l1,2l-1,1h-2l1,2h3v14h-1l-1,3l-1,1v1h-1l-1,1l-1,6l1,3l-1,2v3l1,1v2l1,2h1v2l-1,1v1l2,2v1h1v1l1,1l1,1l2,2h4v-1h1l1,1h-1h1v1l1,1h1v2v-1h1v1h1l1,2l-1,1l1,3h1l1,1v-1h1v2l1,1l-1,1h-1v1h-1l1,1l2,2l2,1h1l1,3h2l1,2l1,1l2,3h3v1h2v1l1,1v2h3l2,2l1,1v1l1,2h1l-1,2l-1,3v1h-1v4l-1,3h-1v3l1,1l-1,5v2l-1,14l-5,-6l-7,6l2,10l-5,5h-1l-7,5l1,4l9,-2l10,5l3,-2l-3,-8l-5,2l3,-19l1,3l9,-2l18,18v2l9,7l-5,11l-5,4v4l-9,14l-8,20l-2,-5l-3,11l6,-3l-1,7l-6,3l-3,1l-10,-8l-5,-1h-6v1h-1l-4,3l-2,1l-1,1h-1l-1,1l-7,1h-1l-2,1h-3l-2,1l-7,5l-3,11l-5,3l-3,-1l-4,-1l-1,-1h-2v-8l-5,-8l-4,1h-11l-11,3h-11l-19,3l-1,13l-3,2l-7,-8l-11,-1l-4,-24l-3,-4l-9,14l1,10l3,7v9l-6,-1v-3h-13l-4,4l-2,-17l-3,-15l1,-6l-2,-17l-8,1l-2,-12l-6,-30l17,-2l16,-3l13,-19l30,7l18,5l20,4l6,-12l-4,-1l4,-7l4,3l3,-4l-4,-3l13,-21l-26,-23l-6,-4l3,-3l-31,-24l-9,-6l-9,-8l-17,-11l-18,-13l-16,6l-4,-7l1,-6l-3,-7l-4,1l-7,-3l-3,-6v-5l-4,-3l-6,-9l3,-6l-4,-6l7,-3l4,3l7,-3l2,-8l2,-22l18,-3l8,11l7,-2l11,-11l4,4l7,-3l-24,-24l-4,-13l-32,6h-15l-7,-8l7,-19v-9h5l5,7l5,-3h9Z"/><path data-race-id="NH02" d="M46,819l-2,-3v-2l-1,-1l-1,-9l2,-6l3,-20l-1,-7l4,-3l8,-19l-4,-7l5,-9l-7,-2l3,-9l4,-21v-4l2,-6l1,-2v-5l-1,-2l-4,-5l5,-10l2,-14l11,-8v-6l4,-9v-3l4,-6v-11l8,-13l10,-5l8,-9l4,-11l2,-3l-1,-1l1,-8l-1,-8l5,-4l-1,-5l5,-7l7,-5l2,-5v-3l2,-4l2,-2v-1l1,-1l-4,-4l1,-10l1,-2l1,-1l-1,-1v-2h1l1,-1l1,1v1h1l-1,-2v-2l1,-1l13,-20l1,1v-10l-2,3l-1,-1l-1,-6v-1l1,-1v-1h2l2,-1v-3h-1l-1,-4v-2l1,-1v-1h-1v-2h-1l-1,-1v-1l-1,-3v-1l-2,-3h-1v-1l1,-3l1,-3v-2l3,-11l-2,-3l-1,-4v-3h-2v-3l1,-2l1,-1l1,-1v-1h2l1,-1l3,-6v-2l-1,-1h1v-1h6l2,-1l4,-3v-1l1,-1h11l1,1h1l3,-3v-1l3,-1l6,2l7,1h1l9,-4h1l2,-7h-1v-4l3,-1v-1l-1,-1l1,-1l1,-1l1,-1l1,-1h3l3,-1h1l4,1h2v-1l1,-1l5,-1l6,-3l3,-2v-1l1,-2l1,-1l3,-1l4,-11l4,-2l3,-2l6,-2l2,-6h1l2,-1v-1l-1,-2l-1,-1v-2l4,-7l-2,-2l-5,-4l6,-3l4,-1l1,-1l1,-1v-3l1,1l3,-2v-2h-1v-2l-2,1l1,-1v-1h-3v-1l1,-1h-3l2,-1v-1l2,-5v-2l-1,-1l-3,-3l1,-2l-1,-2l-1,-2h-2v-1l-3,-2l1,-1l-1,-1l1,-2h-1l-1,-1l-1,-1v-3l-1,-2l1,-2l-2,-1l-4,-7v-3l-2,-2v-2l-1,-3h-1l1,-1v-1l4,-2l5,-8l5,-3v-8l-1,-2l1,-1v-1l6,-5l-1,-4l1,-5l1,-1l6,-6h1l1,-1l1,-3l4,-5l1,-1v-2l-2,-1l-3,-4l-1,-1v-2h-1v-2l1,-1v-1l-1,-1l1,-3v-3l-2,-1v-1l-2,-2l-1,-2l-1,-1v-1l1,-2l7,-5l8,2l3,-5h-9v-3l1,-1v-2l1,-1v-2l1,-1l-2,-1h-2v-2l2,-2l-1,-1l1,-3v-1l1,-1h1l1,-2l1,-1l1,-1l3,-3l1,-1l1,-1v-1h1l1,-4l1,-1l2,-1l2,-2l1,-2v-2l-1,-1l-1,-2l-1,-1l1,-1l1,-1l2,-4v-2l2,-6v-1l3,-5v-1h1v-2l-1,-2l-3,-2l-3,-3l-3,-3l-1,-1h2l2,1h1l3,-2l1,-1l3,1l4,-1l2,-1l1,-1l2,-1v-7h3l4,-3l1,-1l3,-2h1l3,-4h1v-1l2,-1h1l3,2l2,1l1,6v1l2,1l2,2h1l2,3l1,1l1,1h8l2,2l1,1h2l1,-1l2,-1h2l2,2l1,1h1l1,-1l3,-3l1,-2l1,-3l1,-2v-1l1,-1v-5l1,-2l2,-2l1,-1h2l2,19v2l1,8v11l2,25l3,42l2,28l1,18v3l1,18l1,11l1,10v6l2,39l1,32l1,1v3l1,19v12l1,3v19l1,2v17l1,17v4l1,2h-10l1,17h-25l-30,-1l-13,39l-2,16h-9v-13l-2,-14l-8,-5l-3,-13l-5,1l-3,1l4,16l6,3l3,13l-1,9l4,10h5l-9,16l1,12l4,27l-12,3l-17,2l-6,2l-18,2l1,7l-19,2h-9l-5,3l-5,-7h-5v9l-7,19l7,8h15l32,-6l4,13l24,24l-7,3l-4,-4l-11,11l-7,2l-8,-11l-18,3l-2,22l-2,8l-7,3l-4,-3l-7,3l4,6l-3,6l6,9l4,3v5l3,6l7,3l4,-1l3,7l-1,6l4,7l16,-6l18,13l17,11l9,8l9,6l31,24l-3,3l6,4l26,23l-13,21l4,3l-3,4l-4,-3l-4,7l4,1l-6,12l-20,-4l-18,-5l-30,-7l-13,19l-16,3l-17,2l6,30l2,12l8,-1l2,17l-1,6l3,15l2,17l4,-4h13v3l6,1v-9l-3,-7l-1,-10l9,-14l3,4l4,24l11,1l7,8l3,-2l1,-13l19,-3h11l11,-3h11l4,-1l5,8v8v-1l-10,2l-8,7l-1,1l1,5v10l1,4l-14,-3l-3,2l-4,3l-4,7l-1,2l-4,5h-22l-8,-1h-22l-4,-1h-29v-1h-26l-7,-1h-21v-1h-23l-8,-1l-19,-1h-5l-18,-1h-18l-5,-1h-16l-5,-1h-19l-7,-1h-12l-15,-1h-3v-1l-4,-11l-9,-6v-3l-8,-9l-4,-16l1,-12l6,-5l2,-6l-3,-13l5,-4l11,-3l3,-10l5,-2l-4,-5l-2,-14l9,-9l-2,-7l3,-7Z"/></g>  <path class="districts-mesh" d="M397,931v-8l-5,-8l-4,1h-11l-11,3h-11l-19,3l-1,13l-3,2l-7,-8l-11,-1l-4,-24l-3,-4l-9,14l1,10l3,7v9l-6,-1v-3h-13l-4,4l-2,-17l-3,-15l1,-6l-2,-17l-8,1l-2,-12l-6,-30l17,-2l16,-3l13,-19l30,7l18,5l20,4l6,-12l-4,-1l4,-7l4,3l3,-4l-4,-3l13,-21l-26,-23l-6,-4l3,-3l-31,-24l-9,-6l-9,-8l-17,-11l-18,-13l-16,6l-4,-7l1,-6l-3,-7l-4,1l-7,-3l-3,-6v-5l-4,-3l-6,-9l3,-6l-4,-6l7,-3l4,3l7,-3l2,-8l2,-22l18,-3l8,11l7,-2l11,-11l4,4l7,-3l-24,-24l-4,-13l-32,6h-15l-7,-8l7,-19v-9h5l5,7l5,-3h9l19,-2l-1,-7l18,-2l6,-2l17,-2l12,-3l-4,-27l-1,-12l9,-16h-5l-4,-10l1,-9l-3,-13l-6,-3l-4,-16l3,-1l5,-1l3,13l8,5l2,14v13h9l2,-16l13,-39l30,1h25l-1,-17h10"/></svg>