<svg version="1.1" xmlns="http://www.w3.org/2000/svg" width="521" height="1000" viewBox="0 0 521 1000">
  <path d="M71 811
l -9 -7
l -4 -7
l -2 -1
l -1 -2
h -4
l -10 -20
l -4 1
l -9 -9
l -9 -1
l -2 -7
l 5 -7
v -1
l -1 -1
v -3
l 1 -3
v -7
h -1
l -1 -1
l 6 -10
v -1
l 1 -1
v -3
l -1 -1
l -1 -1
h -1
l -1 -1
l -5 -6
l -3 -1
l -2 -11
l 10 -11
l 4 -6
l 1 -8
l 2 -2
l 3 -4
l 2 -3
l 1 1
h 1
l 1 -5
v -2
l 1 -2
l 2 -4
l 2 -6
l 10 -8
l 1 -1
h 1
v -1
h 1
l 2 -1
v -1
h 1
l 1 -1
l 4 -1
l 5 -7
l 11 -4
l 5 -5
l 16 -2
l 22 -7
l 4 -5
l 14 -1
l 1 -2
l 3 -11
l -3 -6
l 2 -12
l 5 2
l 17 -14
l -1 -1
h -1
v -1
l 1 -2
v -1
l 8 -6
h 4
l 11 -11
h 1
l 3 -3
l 1 -1
l 9 -5
h 7
l 3 -1
l 2 -1
h 1
l 1 -1
l 3 -1
h 1
l 2 -1
h 2
v -2
l 1 -1
v -1
l 5 -3
l 1 -1
l 1 -1
v -2
l 1 -3
l 5 -3
h 1
l 2 1
h 1
v 1
h 6
l 9 -6
l 1 1
h 1
v -1
h 1
l 1 -1
l 1 -1
l 1 -1
l 1 -1
l 2 -4
l -1 -1
v -1
l -3 -5
l -1 -1
l -5 -3
l -4 -8
v -2
l -2 -3
h -1
l -10 -7
l -4 -3
l -3 -1
l -1 -1
l -3 -6
l -1 -1
l -2 -4
v -2
l -3 -5
l -1 -1
v -1
l -4 -4
l -2 -2
h -3
l -9 -7
h -1
l -1 -2
l -1 -1
l -1 -1
v -1
l -1 -5
v -3
l -1 -1
l -1 -4
l -2 -3
l -3 -6
l -5 -3
l -4 -1
l -3 1
l -4 2
l -2 -2
l -3 -1
l -5 -3
l -4 -16
l 2 -4
l 1 -9
l -1 -4
v -15
h -1
v -1
l -8 -8
l -1 -1
l -2 -1
h -1
l -1 -1
h -11
l -5 3
l -8 -5
l 1 -3
v -4
l -2 -6
l 2 -4
v -2
l -1 -6
l -1 -3
v -1
l 2 -4
l 1 -1
h 1
v -1
h 1
v -2
h 1
v -3
h -4
l -2 -1
l -1 -2
v -1
l -1 -1
l 1 -2
v -2
l 1 -1
l 1 -2
v -1
l 1 -2
l 1 -1
v -1
l 1 -4
l -1 -2
l -2 -3
v -3
l 1 -2
l 2 -1
h 2
v -1
l 1 -4
l 1 -2
l 11 1
l 2 -3
l 1 -1
l 7 -6
v -1
l 5 -10
h -1
v -1
l -2 -2
l -1 -1
v -2
l 2 -2
h 5
l 1 1
h 1
l 1 -1
l 4 -8
l -1 -1
v -1
l -3 -4
l -2 -2
h -1
v -1
l -2 -8
l -4 -4
l -1 -2
l -2 -3
l -4 -6
v -5
l -1 -2
h -1
l -1 1
l -1 -1
h -1
v -1
l 1 -5
v -1
l 2 -3
l 3 -2
l 1 -1
l 4 -2
h 1
l 4 -3
h 2
l 1 -1
h 1
l 12 -8
l 1 -1
l 3 -9
l 13 -8
v -1
l 1 -1
v -2
h -3
v 1
h -1
v 1
h -1
l -2 1
l 2 -7
l 5 -3
h 1
l 1 -1
l 4 -3
v -2
l 4 -1
v -1
h 1
l 1 -2
h 1
l 1 -2
l 4 -5
h 1
v -2
l 4 -4
v -1
l 2 -2
l 1 -4
l 4 -8
l 1 -1
l 1 -2
v -1
l -1 -1
v -7
l 1 -2
l 1 -1
l 2 -1
v -1
l 1 -1
l 2 -8
l 2 -2
v -2
l 2 -2
l 3 -3
h 1
l 5 -3
v -1
l 1 -1
h -1
v -2
l 5 -3
v 1
l 1 -1
h 1
l 1 -1
l 1 -1
v -1
l 1 -1
v -1
l 18 -6
l 7 2
l 35 21
l 42 27
l 14 9
l 3 2
l 37 20
l 6 5
l 19 10
l 36 20
l 36 21
v 2
l -6 31
v 1
l -16 42
l -3 1
v 1
l -10 20
l -3 17
l -11 11
l 1 7
h -7
v 5
l -6 -1
l -9 3
l 4 -7
v -1
l 4 -5
l 8 -24
l 2 -1
l -4 1
l -6 9
v -7
l -1 4
v 7
l -6 9
l -5 -2
h -1
l 1 1
l 5 5
l -3 5
l -3 -1
l -12 11
l -2 5
l 1 11
l -1 -1
l -4 14
l -9 3
v 13
l -4 8
l -8 -5
l -6 1
l -6 10
l 4 -1
l 3 -6
l 5 -2
l 1 6
l 4 1
l 5 10
l 10 4
h 1
v 1
h 1
l 4 6
l 7 -9
l 9 5
l 6 -4
l 7 5
l 9 3
l 7 6
l 20 4
l 2 9
l -9 -1
l -13 7
l -6 5
h -1
l 3 2
l 14 -9
l 13 -2
l 1 7
l -1 1
l -11 7
l -3 8
l 8 -3
l 7 -6
v -21
l -5 -17
l -3 -2
l -5 -12
l 6 1
l 6 14
v 6
l 3 24
l -2 22
l -7 35
v 2
l -1 1
v 3
l -1 1
v 2
l -6 3
l -4 -5
l -1 9
l 11 -4
l -7 25
l -1 7
l -3 -2
l -5 5
l -6 1
l -5 -11
v 8
l 3 2
l 1 1
l 7 2
l 9 -5
v 1
l -1 1
v 3
l -1 2
v 3
l -1 1
v 5
h -1
v 2
l -6 32
l -1 13
l -2 11
l -4 45
l -2 13
l -6 -7
l 6 -1
v -9
l 3 -17
l -1 -16
l 3 -12
l -1 -17
l 3 -12
l 3 -5
l -1 -5
l 4 -3
l 1 -11
v -1
h -6
l 2 2
l -17 1
l 5 3
l 14 -1
l -1 4
l -8 10
l -6 -1
l -1 -3
l -5 1
l 6 4
l -3 4
l -9 1
l 5 6
l 5 -4
l 1 8
l -2 4
v 7
l -8 3
l -7 -5
l -5 2
l 13 7
l 10 -1
l -9 18
l 2 6
l -4 11
l -6 6
l 1 3
l -6 9
l -3 12
l 1 10
l 3 -1
l 4 8
h -4
l 6 3
l -1 1
h -1
v 1
h 2
v 1
h -5
l -2 6
l -6 3
l 4 3
l -8 2
l -1 10
h -10
v 8
l -7 5
h -5
l -7 7
l -3 7
l -3 -1
l -2 5
l 14 11
l -3 11
l -1 1
h -4
l -3 -2
l 2 -7
l -8 -6
h -7
l -6 3
l -2 -8
h -4
v -1
l -1 1
l 2 8
l -1 7
l 3 9
l 7 4
l -1 5
l -6 -5
l 4 17
l -5 9
l -1 -6
l -5 -8
l -6 -1
l -7 15
l -5 4
v 6
h 15
l 9 12
l -13 6
l -19 12
l -6 6
l 7 -14
l 6 -6
l 1 -5
l -4 -6
l -4 -1
l -4 16
l -4 4
l 2 8
l -11 4
l -4 -4
l -6 3
l -14 -2
l -7 -8
l -1 4
l 6 2
l 2 6
l -1 5
h 10
l -2 14
l 8 -9
h 3
l 10 -9
v 8
l -8 3
l -9 9
l -7 11
l -8 8
l 2 2
l -12 18
l -3 8
h -3
l -8 8
l 8 -5
l 3 7
l -10 12
l -14 20
l 5 -13
l -6 9
l -5 -4
l -7 11
l -5 -3
l -2 6
l 5 4
l 2 -5
l 6 2
l 4 -8
l 3 9
l -9 7
l -14 15
l -4 -4
l 5 -5
l -6 -3
l 1 7
l -9 1
v 3
l 8 -2
l -1 3
l -11 6
l -14 -1
l -3 -3
l 4 -21
l 4 -12
l 14 -27
l 3 -9
l 1 -18
l -3 -6
h -6
l -14 -6
l -19 -1
l -1 -9
l -19 2
l -5 -1
l -8 13
l -10 -10
l 1 -4
l -4 -11
h -4
l -4 -8
l -12 -5
l -2 -9
l -5 -2
l -7 6
l -6 -6
l -8 -17
Z
M447 649
h 7
l -6 9
v 1
l -1 1
l -1 2
v 2
l -1 2
l -1 1
v 1
l -1 2
v 1
l -1 1
v 2
l -1 1
l -1 1
v 2
h -1
v 1
l -1 1
l -2 4
l -1 1
l -1 2
l -1 1
l -1 2
v 1
l -1 2
l -2 2
v 2
l -1 1
h -1
v 2
l -1 1
v 1
l -1 1
l -1 1
l -1 2
v 1
l -1 2
l -1 1
v 1
l -1 1
l -1 2
l -1 1
l -1 2
v 1
l -1 1
v 1
l -1 2
h -1
v 1
l -1 2
v 1
l -1 1
l -1 1
v 1
h -1
v 1
l -2 2
l -1 1
v 1
l -1 1
l -1 2
v 1
l -1 1
l -1 1
h -1
v 2
h -1
l -1 1
v 1
l -2 2
l -1 1
l -5 1
l 3 -2
l 9 -10
l 3 -9
l 7 -8
l 13 -24
l 2 -8
l 5 -3
l 10 -19
l -2 -2
l 6 -10
l -7 -2
l 5 -2
v -5
l 1 2
Z
M371 774
l 1 -11
l 5 2
l -4 -8
h 10
l 6 -3
l 3 8
l -7 9
l -2 -2
l -9 7
Z
M360 790
l 5 -2
l -3 -4
l 6 -7
l 8 6
l -3 -6
l 11 -2
l -9 12
l -13 13
l -3 -1
l -6 -10
Z"/>
<g class="districts">
<path data-race-id="NJ01" d="M53 639
l 2 -2
h 1
l 2 -2
h 2
v -1
l 4 -1
l 5 -7
l 11 -4
l 5 -5
l 16 -2
l 22 -7
l 4 -5
l 14 -1
l 1 -2
l 3 -11
l -3 -6
l 2 -12
l 5 2
l 17 -14
l -1 -1
h -1
v -1
l 1 -2
v -1
l 8 -6
l 5 7
l -5 3
l 6 5
l -3 4
l 3 -1
l 10 7
l 3 6
l -6 5
l 7 3
l 2 3
h 1
v 4
l 7 8
l 8 35
l -3 6
l 28 34
l 6 6
l -23 25
l -11 13
l -32 -31
l -10 -8
l -17 -1
l -2 -6
h -10
l -6 3
l 11 -14
l 4 -2
l -1 -8
l 2 -6
l -7 -4
l -7 -8
l -8 -2
l -12 15
l -5 -5
l 2 -4
l -10 -1
l -1 -7
l -7 8
l -6 2
l -7 5
l -4 7
h -7
l -8 -9
l 1 -5
Z"/>
<path data-race-id="NJ02" d="M22 750
l -1 -1
v -3
l 1 -3
v -7
h -1
l -1 -1
l 6 -10
v -1
l 1 -1
v -3
l -1 -1
l -1 -1
h -1
l -1 -1
l -5 -6
l -3 -1
l -2 -12
l 10 -10
l 5 -7
v -7
l 2 -2
l 3 -4
l 2 -3
l 1 1
h 1
l 1 -5
v -2
l 1 -2
l 2 -4
l 2 -6
l 10 -8
l 8 1
l -1 5
l 8 9
h 7
l 4 -7
l 7 -5
l 6 -2
l 7 -8
l 1 7
l 10 1
l -2 4
l 5 5
l 12 -15
l 8 2
l 7 8
l 7 4
l -2 6
l 1 8
l -4 2
l -11 14
l 6 -3
h 10
l 2 6
l 17 1
l 10 8
l 32 31
l 11 -13
l 23 -25
l -6 -6
l -28 -34
l 3 -6
l 3 4
l 12 -3
l 14 2
l 3 4
l 7 9
l 11 8
l 4 3
l 48 -17
l 9 1
l 21 -3
l 22 -1
l 10 22
l 17 14
l 7 -8
l 3 5
l 5 -2
v -8
l 4 -7
l 10 6
l 8 -2
l 6 3
h -1
v 1
h -1
v 1
h 1
l 1 1
h -5
l -2 6
l -6 3
l 4 3
l -8 2
l -1 10
h -10
v 8
l -7 5
h -5
l -7 7
l -3 7
l -3 -1
l -2 5
l 14 11
l -3 11
l -2 1
h -3
l -3 -2
l 2 -7
l -8 -6
h -7
l -6 3
l -2 -8
h -4
v -1
l -1 1
l 2 8
l -1 7
l 3 9
l 7 4
l -1 5
l -6 -5
l 4 17
l -5 9
l -1 -6
l -5 -8
l -6 -1
l -7 15
l -5 4
v 6
h 15
l 9 12
l -13 6
l -19 12
l -6 6
l 7 -14
l 6 -6
l 1 -5
l -4 -6
l -4 -1
l -4 16
l -4 4
l 2 8
l -11 4
l -4 -4
l -6 3
l -14 -2
l -7 -8
l -1 4
l 6 2
l 2 6
l -1 5
h 10
l -2 14
l 8 -9
h 3
l 10 -9
v 8
l -8 3
l -9 9
l -7 11
l -8 8
l 2 2
l -12 18
l -3 8
h -3
l -8 8
l 8 -5
l 3 7
l -10 12
l -14 20
l 5 -13
l -6 9
l -5 -4
l -7 11
l -5 -3
l -2 6
l 5 4
l 2 -5
l 6 2
l 4 -8
l 3 9
l -9 7
l -14 15
l -4 -4
l 5 -5
l -6 -3
l 1 7
l -9 1
v 3
l 8 -2
l -1 3
l -11 6
l -14 -1
l -3 -3
l 4 -21
l 4 -12
l 14 -27
l 3 -9
l 1 -18
l -3 -6
h -6
l -14 -6
l -19 -1
l -1 -9
l -19 2
l -5 -1
l -8 13
l -10 -10
l 1 -4
l -4 -11
h -4
l -4 -8
l -12 -5
l -2 -9
l -5 -2
l -7 6
l -6 -6
l -8 -17
l -8 1
l -9 -7
l -4 -7
l -2 -1
l -1 -2
h -4
l -10 -20
l -4 1
l -9 -9
l -9 -1
l -2 -7
l 5 -7
Z
M446 648
l 1 1
h 7
l -2 3
l -4 7
l -1 1
l -1 2
v 2
l -1 2
l -1 1
v 2
l -1 1
v 1
l -1 1
v 2
h -1
v 1
l -1 1
v 2
h -1
v 1
l -1 1
l -2 4
l -1 1
l -1 2
v 1
h -1
v 1
l -1 1
v 1
h -1
v 2
l -2 2
v 2
l -1 1
h -1
v 2
l -1 1
l -1 1
v 1
l -1 1
v 1
l -1 1
v 1
l -1 2
l -1 1
v 1
l -1 1
l -1 2
l -1 1
v 1
l -1 1
v 1
l -1 1
v 1
l -1 1
v 1
h -1
v 1
l -1 1
v 2
h -1
v 1
l -1 1
v 1
h -1
v 1
l -2 2
l -2 3
l -1 2
v 1
l -1 1
l -1 1
h -1
v 2
h -1
l -1 1
v 1
l -2 2
l -1 1
h -3
l 1 -1
l 9 -10
l 3 -9
l 7 -8
l 13 -24
l 2 -8
l 5 -3
l 10 -19
l -2 -2
l 6 -10
l -7 -2
l 5 -2
Z
M371 774
l 1 -11
l 5 2
l -4 -8
h 10
l 6 -3
l 3 8
l -7 9
l -2 -2
l -9 7
Z
M360 790
l 5 -2
l -3 -4
l 6 -7
l 8 6
l -3 -6
l 11 -2
l -9 12
l -13 13
l -3 -1
l -6 -10
Z"/>
<path data-race-id="NJ03" d="M173 558
l 5 -3
l -5 -7
h 4
l 11 -11
h 1
l 3 -3
l 1 -1
l 9 -5
h 7
l 3 -1
l 2 -1
h 1
l 1 -1
l 3 -1
h 1
l 2 -1
h 2
v -2
l 1 -1
v -1
l 5 -3
l 1 -1
l 1 -1
v -2
l 1 -3
l 5 -3
h 1
l 2 1
h 1
v 1
h 6
l 9 -6
l 1 1
h 1
v -1
h 1
l 1 -1
l 1 -1
l 1 -1
l 1 -1
l 1 -2
l 5 -4
l -1 -8
h 5
l 13 10
l 6 2
l 2 4
l 10 1
l 11 23
l 6 13
l 30 75
l 8 -9
l 20 -20
l 21 -25
l 11 -3
l -1 -5
l -2 -2
l -1 -3
l -3 -5
l 1 -1
v -1
l -1 -2
h -1
v -2
h -1
l -1 -1
l 3 -2
l 28 14
l 1 -2
l 2 -25
l -1 -1
l 1 -1
l -1 -1
l 9 -7
l 5 -7
l 3 5
v 8
l 3 2
l 1 13
l 5 1
l 2 2
l -17 1
l 5 3
l 14 -1
l -1 4
l -8 10
l -6 -1
l -1 -3
l -5 1
l 6 4
l -3 4
l -9 1
l 5 6
l 5 -4
l 1 8
l -2 4
v 7
l -8 3
l -7 -5
l -5 2
l 13 7
l 10 -1
l -9 18
l 2 6
l -4 11
l -6 6
l 1 3
l -6 9
l -3 12
l 1 10
l 3 -1
l 4 8
h -4
l -8 2
l -10 -6
l -4 7
v 8
l -5 2
l -3 -5
l -7 8
l -17 -14
l -10 -22
l -22 1
l -21 3
l -9 -1
l -48 17
l -4 -3
l -11 -8
l -7 -9
l -3 -4
l -14 -2
l -12 3
l -3 -4
l -8 -35
l -7 -8
v -4
h -1
l -2 -3
l -7 -3
l 6 -5
l -3 -6
l -10 -7
l -3 1
l 3 -4
Z
M467 531
h 1
v 1
l -6 32
l -1 13
l -2 11
l -4 45
l -2 13
l -6 -7
l 6 -1
v -9
l 3 -17
l -1 -16
l 3 -12
l -1 -17
l 3 -12
l 3 -5
l -1 -5
l 4 -3
l 1 -11
Z"/>
<path data-race-id="NJ04" d="M260 465
l 3 -7
h 3
l 4 -8
h 12
l 5 10
l 13 -4
l 2 2
l 6 -7
l 11 13
v 6
l 18 -10
l -1 -4
h 8
l 19 -10
l 5 -11
l 15 -15
l 13 12
l -2 8
l 9 -1
l 11 7
v -24
l 7 -4
l -2 -6
v -17
l 22 -7
v 6
l 8 -1
l 5 2
l 4 19
h -1
l 3 2
l 14 -9
l 13 -2
l 1 7
l -1 1
l -11 7
l -3 8
l -7 4
l 4 5
l 3 11
l 7 -2
l 1 7
l -2 9
l -5 -2
v 10
h 7
v 1
l -1 1
v 3
l -1 1
v 2
l -6 3
l -4 -5
l -1 9
l 11 -4
l -7 25
l -1 7
l -3 -2
l -5 5
l -6 1
l -5 -11
l -3 -5
l -5 7
l -9 7
l 1 1
l -1 1
l 1 1
l -2 25
l -1 2
l -28 -14
l -3 2
l 1 1
h 1
v 2
h 1
l 1 2
v 1
l -1 1
l 3 5
l 1 3
l 2 2
l 1 5
l -11 3
l -21 25
l -20 20
l -8 9
l -30 -75
l -6 -13
l -11 -23
l -10 -1
l -2 -4
l -6 -2
l -13 -10
h -5
l 1 8
l -5 4
l 1 -2
l -1 -1
v -1
l -3 -5
l -1 -1
l -5 -3
v -6
l 6 -2
Z
M472 515
l -1 1
v 3
l -1 2
v 3
l -1 1
v 5
h -1
v 1
h -1
v -1
h -6
l -5 -1
l -1 -13
l 1 1
l 7 2
l 9 -5
Z"/>
<path data-race-id="NJ05" d="M144 168
l 2 -3
l 3 -2
l 1 -1
l 4 -2
h 1
l 4 -3
h 2
l 1 -1
h 1
l 12 -8
l 1 -1
l 3 -9
l 13 -8
v -1
l 1 -1
v -2
h -3
v 1
h -1
v 1
h -1
l -2 1
l 2 -7
l 5 -3
h 1
l 1 -1
l 4 -3
v -2
l 4 -1
v -1
h 1
l 1 -2
h 1
l 1 -2
l 4 -5
h 1
v -2
l 4 -4
v -1
l 2 -2
l 1 -4
l 4 -8
l 1 -1
l 1 -2
v -1
l -1 -1
v -7
l 1 -2
l 1 -1
l 2 -1
v -1
l 1 -1
l 2 -8
l 2 -2
v -2
l 2 -2
l 3 -3
h 1
l 5 -3
v -1
l 1 -1
h -1
v -2
l 5 -3
v 1
l 1 -1
h 1
l 1 -1
l 1 -1
v -1
l 1 -1
v -1
l 18 -6
l 7 2
l 35 21
l 42 27
l 14 9
l 3 2
l 31 17
l 12 8
l 19 10
l 22 13
l 20 12
l 15 8
l 15 10
l -6 31
l -5 -3
l 2 -6
h -4
l -4 -6
h -4
l -2 16
l -3 9
l -2 -2
l -4 13
l -8 2
l -2 -5
l -4 1
l -11 1
l 2 -8
l 4 -3
l -4 -10
l -12 -1
l -5 -8
l 2 -9
l -9 -7
v 3
l -14 -1
l -9 -5
l -7 -10
l 6 -16
l -10 -2
l -4 3
l 1 -6
h -6
l -9 5
l -5 18
l -3 1
l -15 -7
l -6 -10
l -9 2
l -5 5
l -2 -3
l 3 -12
l -4 -4
l -10 11
l -12 -8
l -18 -16
l -8 9
l -6 16
l -1 18
l -30 30
v 1
l 6 8
l -11 11
v 8
l -12 22
l -12 6
l -4 7
l -9 7
l -11 17
l -5 1
l -16 -24
l -17 -5
l -4 -4
l 3 -4
v -1
l 5 -10
h -1
v -1
l -2 -2
l -1 -1
v -2
l 2 -2
h 5
l 1 1
h 1
l 1 -1
l 4 -8
l -1 -1
v -1
l -3 -4
l -2 -2
h -1
v -7
l -6 -6
l -1 -2
l -2 -3
l -4 -6
v -5
l -1 -2
h -1
l -1 1
l -1 -1
h -1
v -1
l 1 -5
Z"/>
<path data-race-id="NJ06" d="M326 337
l 6 -2
l 6 -7
l 5 -1
l 1 -6
l 29 -3
l 17 -2
l 4 7
l 9 -4
l 14 -1
l 1 3
l -4 14
l -9 3
v 13
l -4 8
l -8 -5
l -6 1
l -6 10
l 4 -1
l 3 -6
l 5 -2
l 1 6
l 4 1
l 5 10
l 10 4
h 1
v 1
h 1
l 4 6
l 7 -9
l 9 5
l 6 -4
l 7 5
l 9 3
l 7 6
l 20 4
l 2 9
l -9 -1
l -13 7
l -6 5
l -4 -19
l -5 -2
l -8 1
v -6
l -22 7
v 17
l 2 6
l -7 4
v 24
l -11 -7
l -9 1
l 2 -8
l -13 -12
l 11 -11
l -5 -4
l 2 -8
l 5 -1
l -2 -7
l 4 -9
l -8 -5
l -7 9
l -9 6
v -7
l -4 -5
l -4 -14
l -9 4
h -14
l -5 4
l -3 -3
l 8 -6
l -2 -8
l -4 -1
l -4 -6
l -5 -4
Z
M481 470
h -7
v -10
l 5 2
l 2 -9
l -1 -7
l -7 2
l -3 -11
l -4 -5
l 7 -4
l 8 -3
l 7 -6
v -21
l -5 -17
l -3 -2
l -5 -12
l 6 1
l 6 14
v 6
l 3 24
l -2 22
l -7 35
Z"/>
<path data-race-id="NJ07" d="M123 282
v -2
l 1 -1
l 1 -2
v -1
l 1 -2
l 1 -1
v -1
l 1 -4
l -1 -2
l -2 -3
v -3
l 1 -2
l 2 -1
h 2
v -1
l 1 -4
l 5 -2
l 7 2
l 2 -4
l 1 -1
l 4 -2
l 4 4
l 17 5
l 16 24
l 5 -1
l 11 -17
l 9 -7
l 4 -7
l 12 -6
l 12 -22
v -8
l 11 -11
l 10 -4
l 7 5
v 2
l 12 -3
l 6 -5
l 4 -8
h 4
l 8 15
l 5 -4
l 4 3
l 9 7
l -4 6
h -12
l -3 5
l -7 -2
l -2 2
l -2 6
l -1 1
l -1 1
v 1
l 6 8
v 1
l -1 1
v 2
l -6 4
l 3 8
l -6 9
l 1 7
l 27 -9
l 4 3
l 1 7
l 5 2
l 1 4
v 3
l 3 2
l 1 1
v 1
l 19 -6
l 2 10
l 4 -2
l 8 -9
l 7 -4
l 2 -5
l 4 -7
l -2 -1
l 23 1
l 1 14
l -3 3
h 4
l 3 5
l 7 2
l 2 5
l -13 7
l 2 15
l -7 7
l -17 2
l 2 -3
l 5 -4
l -7 -6
l -6 -11
l -7 4
l -4 9
l -3 7
l -7 4
l -4 2
l -10 6
l -1 -1
v 1
l -7 6
l -4 -3
l -5 4
l 3 5
l -5 4
l -2 -3
l -10 -2
v 10
l 8 7
l -4 3
l 4 15
l -12 9
l -7 13
l 5 11
l -11 -3
l -4 3
l -15 3
l -8 -19
l -18 3
l 1 13
l -19 2
l 4 12
l -19 3
l -7 -1
v -1
l -1 -5
v -3
l -1 -1
l -1 -4
l -2 -3
l -3 -6
l -5 -3
l -4 -1
l -3 1
l -4 2
l -2 -2
l -3 -1
l -5 -3
l -3 -17
l 1 -3
l 1 -9
l -1 -4
v -15
h -1
v -1
l -8 -8
l -1 -1
l -2 -1
h -1
l -1 -1
h -11
l -5 3
l -6 -1
l -2 -4
l 1 -3
v -4
l -2 -6
l 2 -4
v -2
l -1 -6
l -1 -3
v -1
l 2 -4
l 1 -1
h 1
v -1
h 1
v -2
h 1
v -3
h -4
l -2 -1
l -1 -2
v -1
l -1 -1
Z"/>
<path data-race-id="NJ08" d="M414 290
l 4 -6
l 14 1
v 1
h 1
l 5 5
l -3 5
l -3 -1
l -12 11
l -16 -14
Z
M441 295
l 5 -4
l 17 -18
l -2 -9
h -6
l -4 1
l -6 9
v -7
l -1 4
h -9
l -1 3
h -8
v -4
l 6 -4
l -2 -5
l -9 -3
l 5 -16
l 1 -4
l 11 1
l -2 7
l -4 10
l 7 -1
l 2 -5
l 4 2
l 3 -2
l 4 6
v 5
l 10 -5
l 1 -8
l 4 1
l 2 -10
l -3 -1
l 7 -5
l 2 -1
h 7
l -2 6
l 2 2
l -10 20
l -3 17
l -11 11
l 1 7
h -7
v 5
l -6 -1
l -9 3
l 4 -7
Z"/>
<path data-race-id="NJ09" d="M428 172
v -3
l 9 7
l -2 9
l 5 8
l 12 1
l 4 10
l -4 3
l -2 8
l 11 -1
l 4 -1
l 2 5
l 8 -2
l 4 -13
l 2 2
l 3 -9
l 2 -16
h 4
l 4 6
h 4
l -2 6
l 5 3
v 1
l -16 42
l -3 1
v 1
l -2 -2
l 2 -6
h -7
l -2 1
l -7 5
l 3 1
l -2 10
l -4 -1
l -1 8
l -10 5
v -5
l -4 -6
l -3 2
l -4 -2
l -2 5
l -7 1
l 4 -10
l 2 -7
l 3 -5
l -20 -16
l 6 -17
l -9 -5
l 3 -12
h 8
Z"/>
<path data-race-id="NJ10" d="M390 316
l 7 -7
l -2 -15
l 13 -7
l -2 -5
l -7 -2
l -3 -5
h -4
l 3 -3
l -1 -14
l 11 -1
l 1 -8
l -3 -3
l 5 -11
l 3 1
l 3 -9
l 8 3
l -1 10
l 5 2
l -5 16
l 9 3
l 2 5
l -6 4
v 4
h 8
l 1 -3
h 9
v 7
l -6 9
l -5 -2
h -1
l -14 -1
l -4 6
l -10 2
l 16 14
l -2 5
l 1 11
l -1 -1
l -1 -3
l -14 1
l -9 4
Z
M455 264
h 6
l 2 9
l -17 18
l -5 4
v -1
l 4 -5
l 8 -24
Z"/>
<path data-race-id="NJ11" d="M320 141
l 10 -11
l 4 4
l -3 12
l 2 3
l 5 -5
l 9 -2
l 6 10
l 15 7
l 3 -1
l 5 -18
l 9 -5
h 6
l -1 6
l 4 -3
l 10 2
l -6 16
l 7 10
l 9 5
l 14 1
l 1 12
h -8
l -3 12
l 9 5
l -6 17
l 20 16
l -3 5
l -11 -1
l -1 4
l -5 -2
l 1 -10
l -8 -3
l -3 9
l -3 -1
l -5 11
l 3 3
l -1 8
l -11 1
l -23 -1
l 2 1
l -4 7
l -2 5
l -7 4
l -8 9
l -4 2
l -2 -10
l -19 6
v -1
l -1 -1
l -3 -2
v -3
l -1 -4
l -5 -2
l -1 -7
l -4 -3
l -27 9
l -1 -7
l 6 -9
l -3 -8
l 6 -4
v -2
l 1 -1
v -1
l -6 -8
v -1
l 1 -1
l 1 -1
l 2 -6
l 2 -2
l 7 2
l 3 -5
h 12
l 4 -6
l -9 -7
l -4 -3
l -5 4
l -8 -15
h -4
l -4 8
l -6 5
l -12 3
v -2
l -7 -5
l -10 4
l -6 -8
v -1
l 30 -30
l 1 -18
l 6 -16
l 8 -9
l 18 16
Z"/>
<path data-race-id="NJ12" d="M199 421
l 7 1
l 19 -3
l -4 -12
l 19 -2
l -1 -13
l 18 -3
l 8 19
l 15 -3
l 4 -3
l 11 3
l -5 -11
l 7 -13
l 12 -9
l -4 -15
l 4 -3
l -8 -7
v -10
l 10 2
l 2 3
l 5 -4
l -3 -5
l 5 -4
l 4 3
l 7 -6
v -1
l 1 1
l 10 -6
l 4 -2
l 7 -4
l 3 -7
l 4 -9
l 7 -4
l 6 11
l 7 6
l -5 4
l -2 3
l -29 3
l -1 6
l -5 1
l -6 7
l -6 2
l 2 7
l 5 4
l 4 6
l 4 1
l 2 8
l -8 6
l 3 3
l 5 -4
h 14
l 9 -4
l 4 14
l 4 5
v 7
l 9 -6
l 7 -9
l 8 5
l -4 9
l 2 7
l -5 1
l -2 8
l 5 4
l -11 11
l -15 15
l -5 11
l -19 10
h -8
l 1 4
l -18 10
v -6
l -11 -13
l -6 7
l -2 -2
l -13 4
l -5 -10
h -12
l -4 8
h -3
l -3 7
l 2 10
l -6 2
v 6
l -4 -8
v -2
l -2 -3
h -1
l -10 -7
l -4 -3
l -3 -1
l -1 -1
l -3 -6
l -1 -1
l -2 -4
v -2
l -3 -5
l -1 -1
v -1
l -4 -4
l -2 -2
h -3
l -9 -7
h -1
l -1 -2
l -1 -1
l -1 -1
Z"/>
</g>
  <path class="districts-mesh" d="M501 195
l -5 -3
l 2 -6
h -4
l -4 -6
h -4
l -2 16
l -3 9
l -2 -2
l -4 13
l -8 2
l -2 -5
l -4 1
l -11 1
l 2 -8
l 4 -3
l -4 -10
l -12 -1
l -5 -8
l 2 -9
l -9 -7
v 3
l -14 -1
l -9 -5
l -7 -10
l 6 -16
l -10 -2
l -4 3
l 1 -6
h -6
l -9 5
l -5 18
l -3 1
l -15 -7
l -6 -10
l -9 2
l -5 5
l -2 -3
l 3 -12
l -4 -4
l -10 11
l -12 -8
l -18 -16
l -8 9
l -6 16
l -1 18
l -30 30
v 1
l 6 8
l -11 11
v 8
l -12 22
l -12 6
l -4 7
l -9 7
l -11 17
l -5 1
l -16 -24
l -17 -5
l -4 -4
M256 483
v -6
l 6 -2
l -2 -10
l 3 -7
h 3
l 4 -8
h 12
l 5 10
l 13 -4
l 2 2
l 6 -7
l 11 13
v 6
l 18 -10
l -1 -4
h 8
l 19 -10
l 5 -11
l 15 -15
l 11 -11
l -5 -4
l 2 -8
l 5 -1
l -2 -7
l 4 -9
l -8 -5
l -7 9
l -9 6
v -7
l -4 -5
l -4 -14
l -9 4
h -14
l -5 4
l -3 -3
l 8 -6
l -2 -8
l -4 -1
l -4 -6
l -5 -4
l -2 -7
l 6 -2
l 6 -7
l 5 -1
l 1 -6
l 29 -3
l 17 -2
l 4 7
l 9 -4
l 14 -1
l 1 3
M211 637
l -3 6
l 28 34
l 6 6
l -23 25
l -11 13
l -32 -31
l -10 -8
l -17 -1
l -2 -6
h -10
l -6 3
l 11 -14
l 4 -2
l -1 -8
l 2 -6
l -7 -4
l -7 -8
l -8 -2
l -12 15
l -5 -5
l 2 -4
l -10 -1
l -1 -7
l -7 8
l -6 2
l -7 5
l -4 7
h -7
l -8 -9
l 1 -5
l -8 -1
M265 496
l 5 -4
l -1 -8
h 5
l 13 10
l 6 2
l 2 4
l 10 1
l 11 23
l 6 13
l 30 75
l 8 -9
l 20 -20
l 21 -25
l 11 -3
l -1 -5
l -2 -2
l -1 -3
l -3 -5
l 1 -1
v -1
l -1 -2
h -1
v -2
h -1
l -1 -1
l 3 -2
l 28 14
l 1 -2
l 2 -25
l -1 -1
l 1 -1
l -1 -1
l 9 -7
l 5 -7
l 3 5
M455 516
l 1 13
l 5 1
M467 531
h 1
M173 548
l 5 7
l -5 3
l 6 5
l -3 4
l 3 -1
l 10 7
l 3 6
l -6 5
l 7 3
l 2 3
h 1
v 4
l 7 8
l 8 35
l 3 4
l 12 -3
l 14 2
l 3 4
l 7 9
l 11 8
l 4 3
l 48 -17
l 9 1
l 21 -3
l 22 -1
l 10 22
l 17 14
l 7 -8
l 3 5
l 5 -2
v -8
l 4 -7
l 10 6
l 8 -2
M251 199
l 10 -4
l 7 5
v 2
l 12 -3
l 6 -5
l 4 -8
h 4
l 8 15
l 5 -4
l 4 3
l 9 7
l -4 6
h -12
l -3 5
l -7 -2
l -2 2
l -2 6
l -1 1
l -1 1
v 1
l 6 8
v 1
l -1 1
v 2
l -6 4
l 3 8
l -6 9
l 1 7
l 27 -9
l 4 3
l 1 7
l 5 2
l 1 4
v 3
l 3 2
l 1 1
v 1
l 19 -6
l 2 10
l 4 -2
l 8 -9
l 7 -4
l 2 -5
l 4 -7
l -2 -1
l 23 1
l 1 14
l -3 3
h 4
l 3 5
l 7 2
l 2 5
l -13 7
l 2 15
l -7 7
M383 420
l 13 12
l -2 8
l 9 -1
l 11 7
v -24
l 7 -4
l -2 -6
v -17
l 22 -7
v 6
l 8 -1
l 5 2
l 4 19
M473 428
l -7 4
l 4 5
l 3 11
l 7 -2
l 1 7
l -2 9
l -5 -2
v 10
h 7
M373 318
l 2 -3
l 5 -4
l -7 -6
l -6 -11
l -7 4
l -4 9
l -3 7
l -7 4
l -4 2
l -10 6
l -1 -1
v 1
l -7 6
l -4 -3
l -5 4
l 3 5
l -5 4
l -2 -3
l -10 -2
v 10
l 8 7
l -4 3
l 4 15
l -12 9
l -7 13
l 5 11
l -11 -3
l -4 3
l -15 3
l -8 -19
l -18 3
l 1 13
l -19 2
l 4 12
l -19 3
l -7 -1
M420 306
l -16 -14
l 10 -2
l 4 -6
l 14 1
M441 295
l 5 -4
l 17 -18
l -2 -9
h -6
M444 271
h -9
l -1 3
h -8
v -4
l 6 -4
l -2 -5
l -9 -3
l 5 -16
l 1 -4
l 11 1
l -2 7
l -4 10
l 7 -1
l 2 -5
l 4 2
l 3 -2
l 4 6
v 5
l 10 -5
l 1 -8
l 4 1
l 2 -10
l -3 -1
l 7 -5
l 2 -1
h 7
l -2 6
l 2 2
M438 239
l 3 -5
l -20 -16
l 6 -17
l -9 -5
l 3 -12
h 8
l -1 -12
M394 258
l 11 -1
l 1 -8
l -3 -3
l 5 -11
l 3 1
l 3 -9
l 8 3
l -1 10
l 5 2"/>
</svg>