<svg version="1.1" xmlns="http://www.w3.org/2000/svg" width="521" height="1000" viewBox="0 0 521 1000"><g class="districts"><path data-race-id="NJ01" d="M53,639l2,-2h1l2,-2h2v-1l4,-1l5,-7l11,-4l5,-5l16,-2l22,-7l4,-5l14,-1l1,-2l3,-11l-3,-6l2,-12l5,2l17,-14l-1,-1h-1v-1l1,-2v-1l8,-6l5,7l-5,3l6,5l-3,4l3,-1l10,7l3,6l-6,5l7,3l2,3h1v4l7,8l8,35l-3,6l28,34l6,6l-23,25l-11,13l-32,-31l-10,-8l-17,-1l-2,-6h-10l-6,3l11,-14l4,-2l-1,-8l2,-6l-7,-4l-7,-8l-8,-2l-12,15l-5,-5l2,-4l-10,-1l-1,-7l-7,8l-6,2l-7,5l-4,7h-7l-8,-9l1,-5Z"/><path data-race-id="NJ02" d="M22,750l-1,-1v-3l1,-3v-7h-1l-1,-1l6,-10v-1l1,-1v-3l-1,-1l-1,-1h-1l-1,-1l-5,-6l-3,-1l-2,-12l10,-10l5,-7v-7l2,-2l3,-4l2,-3l1,1h1l1,-5v-2l1,-2l2,-4l2,-6l10,-8l8,1l-1,5l8,9h7l4,-7l7,-5l6,-2l7,-8l1,7l10,1l-2,4l5,5l12,-15l8,2l7,8l7,4l-2,6l1,8l-4,2l-11,14l6,-3h10l2,6l17,1l10,8l32,31l11,-13l23,-25l-6,-6l-28,-34l3,-6l3,4l12,-3l14,2l3,4l7,9l11,8l4,3l48,-17l9,1l21,-3l22,-1l10,22l17,14l7,-8l3,5l5,-2v-8l4,-7l10,6l8,-2l6,3h-1v1h-1v1h1l1,1h-5l-2,6l-6,3l4,3l-8,2l-1,10h-10v8l-7,5h-5l-7,7l-3,7l-3,-1l-2,5l14,11l-3,11l-2,1h-3l-3,-2l2,-7l-8,-6h-7l-6,3l-2,-8h-4v-1l-1,1l2,8l-1,7l3,9l7,4l-1,5l-6,-5l4,17l-5,9l-1,-6l-5,-8l-6,-1l-7,15l-5,4v6h15l9,12l-13,6l-19,12l-6,6l7,-14l6,-6l1,-5l-4,-6l-4,-1l-4,16l-4,4l2,8l-11,4l-4,-4l-6,3l-14,-2l-7,-8l-1,4l6,2l2,6l-1,5h10l-2,14l8,-9h3l10,-9v8l-8,3l-9,9l-7,11l-8,8l2,2l-12,18l-3,8h-3l-8,8l8,-5l3,7l-10,12l-14,20l5,-13l-6,9l-5,-4l-7,11l-5,-3l-2,6l5,4l2,-5l6,2l4,-8l3,9l-9,7l-14,15l-4,-4l5,-5l-6,-3l1,7l-9,1v3l8,-2l-1,3l-11,6l-14,-1l-3,-3l4,-21l4,-12l14,-27l3,-9l1,-18l-3,-6h-6l-14,-6l-19,-1l-1,-9l-19,2l-5,-1l-8,13l-10,-10l1,-4l-4,-11h-4l-4,-8l-12,-5l-2,-9l-5,-2l-7,6l-6,-6l-8,-17l-8,1l-9,-7l-4,-7l-2,-1l-1,-2h-4l-10,-20l-4,1l-9,-9l-9,-1l-2,-7l5,-7ZM446,648l1,1h7l-2,3l-4,7l-1,1l-1,2v2l-1,2l-1,1v2l-1,1v1l-1,1v2h-1v1l-1,1v2h-1v1l-1,1l-2,4l-1,1l-1,2v1h-1v1l-1,1v1h-1v2l-2,2v2l-1,1h-1v2l-1,1l-1,1v1l-1,1v1l-1,1v1l-1,2l-1,1v1l-1,1l-1,2l-1,1v1l-1,1v1l-1,1v1l-1,1v1h-1v1l-1,1v2h-1v1l-1,1v1h-1v1l-2,2l-2,3l-1,2v1l-1,1l-1,1h-1v2h-1l-1,1v1l-2,2l-1,1h-3l1,-1l9,-10l3,-9l7,-8l13,-24l2,-8l5,-3l10,-19l-2,-2l6,-10l-7,-2l5,-2ZM371,774l1,-11l5,2l-4,-8h10l6,-3l3,8l-7,9l-2,-2l-9,7ZM360,790l5,-2l-3,-4l6,-7l8,6l-3,-6l11,-2l-9,12l-13,13l-3,-1l-6,-10Z"/><path data-race-id="NJ03" d="M173,558l5,-3l-5,-7h4l11,-11h1l3,-3l1,-1l9,-5h7l3,-1l2,-1h1l1,-1l3,-1h1l2,-1h2v-2l1,-1v-1l5,-3l1,-1l1,-1v-2l1,-3l5,-3h1l2,1h1v1h6l9,-6l1,1h1v-1h1l1,-1l1,-1l1,-1l1,-1l1,-2l5,-4l-1,-8h5l13,10l6,2l2,4l10,1l11,23l6,13l30,75l8,-9l20,-20l21,-25l11,-3l-1,-5l-2,-2l-1,-3l-3,-5l1,-1v-1l-1,-2h-1v-2h-1l-1,-1l3,-2l28,14l1,-2l2,-25l-1,-1l1,-1l-1,-1l9,-7l5,-7l3,5v8l3,2l1,13l5,1l2,2l-17,1l5,3l14,-1l-1,4l-8,10l-6,-1l-1,-3l-5,1l6,4l-3,4l-9,1l5,6l5,-4l1,8l-2,4v7l-8,3l-7,-5l-5,2l13,7l10,-1l-9,18l2,6l-4,11l-6,6l1,3l-6,9l-3,12l1,10l3,-1l4,8h-4l-8,2l-10,-6l-4,7v8l-5,2l-3,-5l-7,8l-17,-14l-10,-22l-22,1l-21,3l-9,-1l-48,17l-4,-3l-11,-8l-7,-9l-3,-4l-14,-2l-12,3l-3,-4l-8,-35l-7,-8v-4h-1l-2,-3l-7,-3l6,-5l-3,-6l-10,-7l-3,1l3,-4ZM467,531h1v1l-6,32l-1,13l-2,11l-4,45l-2,13l-6,-7l6,-1v-9l3,-17l-1,-16l3,-12l-1,-17l3,-12l3,-5l-1,-5l4,-3l1,-11Z"/><path data-race-id="NJ04" d="M260,465l3,-7h3l4,-8h12l5,10l13,-4l2,2l6,-7l11,13v6l18,-10l-1,-4h8l19,-10l5,-11l15,-15l13,12l-2,8l9,-1l11,7v-24l7,-4l-2,-6v-17l22,-7v6l8,-1l5,2l4,19h-1l3,2l14,-9l13,-2l1,7l-1,1l-11,7l-3,8l-7,4l4,5l3,11l7,-2l1,7l-2,9l-5,-2v10h7v1l-1,1v3l-1,1v2l-6,3l-4,-5l-1,9l11,-4l-7,25l-1,7l-3,-2l-5,5l-6,1l-5,-11l-3,-5l-5,7l-9,7l1,1l-1,1l1,1l-2,25l-1,2l-28,-14l-3,2l1,1h1v2h1l1,2v1l-1,1l3,5l1,3l2,2l1,5l-11,3l-21,25l-20,20l-8,9l-30,-75l-6,-13l-11,-23l-10,-1l-2,-4l-6,-2l-13,-10h-5l1,8l-5,4l1,-2l-1,-1v-1l-3,-5l-1,-1l-5,-3v-6l6,-2ZM472,515l-1,1v3l-1,2v3l-1,1v5h-1v1h-1v-1h-6l-5,-1l-1,-13l1,1l7,2l9,-5Z"/><path data-race-id="NJ05" d="M144,168l2,-3l3,-2l1,-1l4,-2h1l4,-3h2l1,-1h1l12,-8l1,-1l3,-9l13,-8v-1l1,-1v-2h-3v1h-1v1h-1l-2,1l2,-7l5,-3h1l1,-1l4,-3v-2l4,-1v-1h1l1,-2h1l1,-2l4,-5h1v-2l4,-4v-1l2,-2l1,-4l4,-8l1,-1l1,-2v-1l-1,-1v-7l1,-2l1,-1l2,-1v-1l1,-1l2,-8l2,-2v-2l2,-2l3,-3h1l5,-3v-1l1,-1h-1v-2l5,-3v1l1,-1h1l1,-1l1,-1v-1l1,-1v-1l18,-6l7,2l35,21l42,27l14,9l3,2l31,17l12,8l19,10l22,13l20,12l15,8l15,10l-6,31l-5,-3l2,-6h-4l-4,-6h-4l-2,16l-3,9l-2,-2l-4,13l-8,2l-2,-5l-4,1l-11,1l2,-8l4,-3l-4,-10l-12,-1l-5,-8l2,-9l-9,-7v3l-14,-1l-9,-5l-7,-10l6,-16l-10,-2l-4,3l1,-6h-6l-9,5l-5,18l-3,1l-15,-7l-6,-10l-9,2l-5,5l-2,-3l3,-12l-4,-4l-10,11l-12,-8l-18,-16l-8,9l-6,16l-1,18l-30,30v1l6,8l-11,11v8l-12,22l-12,6l-4,7l-9,7l-11,17l-5,1l-16,-24l-17,-5l-4,-4l3,-4v-1l5,-10h-1v-1l-2,-2l-1,-1v-2l2,-2h5l1,1h1l1,-1l4,-8l-1,-1v-1l-3,-4l-2,-2h-1v-7l-6,-6l-1,-2l-2,-3l-4,-6v-5l-1,-2h-1l-1,1l-1,-1h-1v-1l1,-5Z"/><path data-race-id="NJ06" d="M326,337l6,-2l6,-7l5,-1l1,-6l29,-3l17,-2l4,7l9,-4l14,-1l1,3l-4,14l-9,3v13l-4,8l-8,-5l-6,1l-6,10l4,-1l3,-6l5,-2l1,6l4,1l5,10l10,4h1v1h1l4,6l7,-9l9,5l6,-4l7,5l9,3l7,6l20,4l2,9l-9,-1l-13,7l-6,5l-4,-19l-5,-2l-8,1v-6l-22,7v17l2,6l-7,4v24l-11,-7l-9,1l2,-8l-13,-12l11,-11l-5,-4l2,-8l5,-1l-2,-7l4,-9l-8,-5l-7,9l-9,6v-7l-4,-5l-4,-14l-9,4h-14l-5,4l-3,-3l8,-6l-2,-8l-4,-1l-4,-6l-5,-4ZM481,470h-7v-10l5,2l2,-9l-1,-7l-7,2l-3,-11l-4,-5l7,-4l8,-3l7,-6v-21l-5,-17l-3,-2l-5,-12l6,1l6,14v6l3,24l-2,22l-7,35Z"/><path data-race-id="NJ07" d="M123,282v-2l1,-1l1,-2v-1l1,-2l1,-1v-1l1,-4l-1,-2l-2,-3v-3l1,-2l2,-1h2v-1l1,-4l5,-2l7,2l2,-4l1,-1l4,-2l4,4l17,5l16,24l5,-1l11,-17l9,-7l4,-7l12,-6l12,-22v-8l11,-11l10,-4l7,5v2l12,-3l6,-5l4,-8h4l8,15l5,-4l4,3l9,7l-4,6h-12l-3,5l-7,-2l-2,2l-2,6l-1,1l-1,1v1l6,8v1l-1,1v2l-6,4l3,8l-6,9l1,7l27,-9l4,3l1,7l5,2l1,4v3l3,2l1,1v1l19,-6l2,10l4,-2l8,-9l7,-4l2,-5l4,-7l-2,-1l23,1l1,14l-3,3h4l3,5l7,2l2,5l-13,7l2,15l-7,7l-17,2l2,-3l5,-4l-7,-6l-6,-11l-7,4l-4,9l-3,7l-7,4l-4,2l-10,6l-1,-1v1l-7,6l-4,-3l-5,4l3,5l-5,4l-2,-3l-10,-2v10l8,7l-4,3l4,15l-12,9l-7,13l5,11l-11,-3l-4,3l-15,3l-8,-19l-18,3l1,13l-19,2l4,12l-19,3l-7,-1v-1l-1,-5v-3l-1,-1l-1,-4l-2,-3l-3,-6l-5,-3l-4,-1l-3,1l-4,2l-2,-2l-3,-1l-5,-3l-3,-17l1,-3l1,-9l-1,-4v-15h-1v-1l-8,-8l-1,-1l-2,-1h-1l-1,-1h-11l-5,3l-6,-1l-2,-4l1,-3v-4l-2,-6l2,-4v-2l-1,-6l-1,-3v-1l2,-4l1,-1h1v-1h1v-2h1v-3h-4l-2,-1l-1,-2v-1l-1,-1Z"/><path data-race-id="NJ08" d="M414,290l4,-6l14,1v1h1l5,5l-3,5l-3,-1l-12,11l-16,-14ZM441,295l5,-4l17,-18l-2,-9h-6l-4,1l-6,9v-7l-1,4h-9l-1,3h-8v-4l6,-4l-2,-5l-9,-3l5,-16l1,-4l11,1l-2,7l-4,10l7,-1l2,-5l4,2l3,-2l4,6v5l10,-5l1,-8l4,1l2,-10l-3,-1l7,-5l2,-1h7l-2,6l2,2l-10,20l-3,17l-11,11l1,7h-7v5l-6,-1l-9,3l4,-7Z"/><path data-race-id="NJ09" d="M428,172v-3l9,7l-2,9l5,8l12,1l4,10l-4,3l-2,8l11,-1l4,-1l2,5l8,-2l4,-13l2,2l3,-9l2,-16h4l4,6h4l-2,6l5,3v1l-16,42l-3,1v1l-2,-2l2,-6h-7l-2,1l-7,5l3,1l-2,10l-4,-1l-1,8l-10,5v-5l-4,-6l-3,2l-4,-2l-2,5l-7,1l4,-10l2,-7l3,-5l-20,-16l6,-17l-9,-5l3,-12h8Z"/><path data-race-id="NJ10" d="M390,316l7,-7l-2,-15l13,-7l-2,-5l-7,-2l-3,-5h-4l3,-3l-1,-14l11,-1l1,-8l-3,-3l5,-11l3,1l3,-9l8,3l-1,10l5,2l-5,16l9,3l2,5l-6,4v4h8l1,-3h9v7l-6,9l-5,-2h-1l-14,-1l-4,6l-10,2l16,14l-2,5l1,11l-1,-1l-1,-3l-14,1l-9,4ZM455,264h6l2,9l-17,18l-5,4v-1l4,-5l8,-24Z"/><path data-race-id="NJ11" d="M320,141l10,-11l4,4l-3,12l2,3l5,-5l9,-2l6,10l15,7l3,-1l5,-18l9,-5h6l-1,6l4,-3l10,2l-6,16l7,10l9,5l14,1l1,12h-8l-3,12l9,5l-6,17l20,16l-3,5l-11,-1l-1,4l-5,-2l1,-10l-8,-3l-3,9l-3,-1l-5,11l3,3l-1,8l-11,1l-23,-1l2,1l-4,7l-2,5l-7,4l-8,9l-4,2l-2,-10l-19,6v-1l-1,-1l-3,-2v-3l-1,-4l-5,-2l-1,-7l-4,-3l-27,9l-1,-7l6,-9l-3,-8l6,-4v-2l1,-1v-1l-6,-8v-1l1,-1l1,-1l2,-6l2,-2l7,2l3,-5h12l4,-6l-9,-7l-4,-3l-5,4l-8,-15h-4l-4,8l-6,5l-12,3v-2l-7,-5l-10,4l-6,-8v-1l30,-30l1,-18l6,-16l8,-9l18,16Z"/><path data-race-id="NJ12" d="M199,421l7,1l19,-3l-4,-12l19,-2l-1,-13l18,-3l8,19l15,-3l4,-3l11,3l-5,-11l7,-13l12,-9l-4,-15l4,-3l-8,-7v-10l10,2l2,3l5,-4l-3,-5l5,-4l4,3l7,-6v-1l1,1l10,-6l4,-2l7,-4l3,-7l4,-9l7,-4l6,11l7,6l-5,4l-2,3l-29,3l-1,6l-5,1l-6,7l-6,2l2,7l5,4l4,6l4,1l2,8l-8,6l3,3l5,-4h14l9,-4l4,14l4,5v7l9,-6l7,-9l8,5l-4,9l2,7l-5,1l-2,8l5,4l-11,11l-15,15l-5,11l-19,10h-8l1,4l-18,10v-6l-11,-13l-6,7l-2,-2l-13,4l-5,-10h-12l-4,8h-3l-3,7l2,10l-6,2v6l-4,-8v-2l-2,-3h-1l-10,-7l-4,-3l-3,-1l-1,-1l-3,-6l-1,-1l-2,-4v-2l-3,-5l-1,-1v-1l-4,-4l-2,-2h-3l-9,-7h-1l-1,-2l-1,-1l-1,-1Z"/></g>  <path class="districts-mesh" d="M501,195l-5,-3l2,-6h-4l-4,-6h-4l-2,16l-3,9l-2,-2l-4,13l-8,2l-2,-5l-4,1l-11,1l2,-8l4,-3l-4,-10l-12,-1l-5,-8l2,-9l-9,-7v3l-14,-1l-9,-5l-7,-10l6,-16l-10,-2l-4,3l1,-6h-6l-9,5l-5,18l-3,1l-15,-7l-6,-10l-9,2l-5,5l-2,-3l3,-12l-4,-4l-10,11l-12,-8l-18,-16l-8,9l-6,16l-1,18l-30,30v1l6,8l-11,11v8l-12,22l-12,6l-4,7l-9,7l-11,17l-5,1l-16,-24l-17,-5l-4,-4M256,483v-6l6,-2l-2,-10l3,-7h3l4,-8h12l5,10l13,-4l2,2l6,-7l11,13v6l18,-10l-1,-4h8l19,-10l5,-11l15,-15l11,-11l-5,-4l2,-8l5,-1l-2,-7l4,-9l-8,-5l-7,9l-9,6v-7l-4,-5l-4,-14l-9,4h-14l-5,4l-3,-3l8,-6l-2,-8l-4,-1l-4,-6l-5,-4l-2,-7l6,-2l6,-7l5,-1l1,-6l29,-3l17,-2l4,7l9,-4l14,-1l1,3M211,637l-3,6l28,34l6,6l-23,25l-11,13l-32,-31l-10,-8l-17,-1l-2,-6h-10l-6,3l11,-14l4,-2l-1,-8l2,-6l-7,-4l-7,-8l-8,-2l-12,15l-5,-5l2,-4l-10,-1l-1,-7l-7,8l-6,2l-7,5l-4,7h-7l-8,-9l1,-5l-8,-1M265,496l5,-4l-1,-8h5l13,10l6,2l2,4l10,1l11,23l6,13l30,75l8,-9l20,-20l21,-25l11,-3l-1,-5l-2,-2l-1,-3l-3,-5l1,-1v-1l-1,-2h-1v-2h-1l-1,-1l3,-2l28,14l1,-2l2,-25l-1,-1l1,-1l-1,-1l9,-7l5,-7l3,5M455,516l1,13l5,1M467,531h1M173,548l5,7l-5,3l6,5l-3,4l3,-1l10,7l3,6l-6,5l7,3l2,3h1v4l7,8l8,35l3,4l12,-3l14,2l3,4l7,9l11,8l4,3l48,-17l9,1l21,-3l22,-1l10,22l17,14l7,-8l3,5l5,-2v-8l4,-7l10,6l8,-2M251,199l10,-4l7,5v2l12,-3l6,-5l4,-8h4l8,15l5,-4l4,3l9,7l-4,6h-12l-3,5l-7,-2l-2,2l-2,6l-1,1l-1,1v1l6,8v1l-1,1v2l-6,4l3,8l-6,9l1,7l27,-9l4,3l1,7l5,2l1,4v3l3,2l1,1v1l19,-6l2,10l4,-2l8,-9l7,-4l2,-5l4,-7l-2,-1l23,1l1,14l-3,3h4l3,5l7,2l2,5l-13,7l2,15l-7,7M383,420l13,12l-2,8l9,-1l11,7v-24l7,-4l-2,-6v-17l22,-7v6l8,-1l5,2l4,19M473,428l-7,4l4,5l3,11l7,-2l1,7l-2,9l-5,-2v10h7M373,318l2,-3l5,-4l-7,-6l-6,-11l-7,4l-4,9l-3,7l-7,4l-4,2l-10,6l-1,-1v1l-7,6l-4,-3l-5,4l3,5l-5,4l-2,-3l-10,-2v10l8,7l-4,3l4,15l-12,9l-7,13l5,11l-11,-3l-4,3l-15,3l-8,-19l-18,3l1,13l-19,2l4,12l-19,3l-7,-1M420,306l-16,-14l10,-2l4,-6l14,1M441,295l5,-4l17,-18l-2,-9h-6M444,271h-9l-1,3h-8v-4l6,-4l-2,-5l-9,-3l5,-16l1,-4l11,1l-2,7l-4,10l7,-1l2,-5l4,2l3,-2l4,6v5l10,-5l1,-8l4,1l2,-10l-3,-1l7,-5l2,-1h7l-2,6l2,2M438,239l3,-5l-20,-16l6,-17l-9,-5l3,-12h8l-1,-12M394,258l11,-1l1,-8l-3,-3l5,-11l3,1l3,-9l8,3l-1,10l5,2"/></svg>