<svg version="1.1" xmlns="http://www.w3.org/2000/svg" width="897" height="1000" viewBox="0 0 897 1000"><path data-race-id="NM01" d="M354,328l1,7h12l-9,-7h18l1,-11l2,-7v-1v1l4,1v-1l6,-1l2,-4l18,-1v-14l6,-2l9,3l1,34l11,2v14h-5v17h66l4,-1h54v74h-3v58h-151v-44h-8l1,-33l-5,-4l-23,-3l-5,-2v-5l16,-2h17v-9h8l-1,-4l4,-5v-1l2,-9l-2,-4h-11l-4,3l-8,-7l-8,2l-5,2l-2,9l-9,-1h-31l-11,6l1,8l-5,-14l-9,-22l-9,-23l10,1Z"/><path data-race-id="NM02" d="M25,896v-2l1,-38v-31l1,-2v-25l1,-3v-27l1,-1v-25l1,-12l1,-17v-55l1,-4v-24l1,-4v-11l1,-34v-10l1,-2v-22l1,-5v-29l1,-2v-51l1,-24l1,-7v-25l1,-4v-24l1,-10v-16l1,-16v-4l26,1l2,9l5,2l-3,5l7,4l7,-2l-3,-6l8,-3h10l6,3l4,-3v-22l1,-7h9v-1h28l2,1h35v1h36v-7h14l-1,8h54l5,14l9,23l9,22l5,14l-1,-8l11,-6h31l9,1l2,-9l5,-2l8,-2l8,7l4,-3h11l2,4l-2,9v1l-4,5l1,4h-8v9h-17l-16,2v5l5,2l23,3l5,4l-1,33h8v44h151v-58h3v-74l-1,-29h85l6,-1h64l5,-1v98l1,5l25,-1h29v43l1,7l10,-1h28l1,25h-2v12l13,-14l7,-4l14,2l2,5h15v5h8v1l1,2v36l1,13v68l1,6v64l1,2v39l1,34v1l1,13v28l1,24l1,7v14h-10l-28,1l-19,1h-27l-9,1h-44v1h-9l-62,1h-44l-21,1h-231v1l-1,1h-1l-1,1v1l1,1h2v2l-1,1h2v1h-1l-1,1v2l1,1h1v1h-2v1h-2v4h1v2h-1v2h1v1h1v1h1l1,1l1,3l1,1l10,6h-89l-20,-1h-49l-19,-1h-32l-9,-1h-21l-1,17v38l-1,21h-6l-18,-1h-36l-9,-1h-32l-19,-1v-9l1,-5v-24l1,-3v-24l1,-7Z"/><path data-race-id="NM03" d="M43,267v-10h1v-17l1,-26v-12l1,-3v-8l1,-24v-17l1,-16v-18l1,-2v-46l1,-22v-15l1,-1v-5h41v1h40l2,1h44l8,1h42l12,1h65l17,1h19l20,1h247l19,-1h49l6,-1h26l12,-1h27l2,-1h23l14,-1h26l3,-1h43l1,16v40l1,12v11l-5,4l1,23l1,23v14l1,30l1,20v37l1,21v17l1,25v11l1,5v25l1,7v23l1,13l1,20v53l1,11v22h-8v-5h-15l-2,-5l-14,-2l-7,4l-13,14v-12h2l-1,-25h-28l-10,1l-1,-7v-43h-29l-25,1l-1,-5v-98l-5,1h-64l-6,1h-85l1,29h-54l-4,1h-66v-17h5v-14l-11,-2l-1,-34l-9,-3l-6,2v14l-18,1l-2,4l-6,1v1l-4,-1v-1v1l-2,7l-1,11h-18l9,7h-12l-1,-7h-50l-10,-1l-5,-14h-54l1,-8h-14v7h-36v-1h-35l-2,-1h-28v1h-9l-1,7v22l-4,3l-6,-3h-10l-8,3l3,6l-7,2l-7,-4l3,-5l-5,-2l-2,-9l-26,-1v-15h1v-47Z"/>  <path class="mesh" d="M367,328h9l1,-11l2,-7v-1v1l4,1v-1l6,-1l2,-4l18,-1v-14l6,-2l9,3l1,34l11,2v14h-5v17h66l4,-1h54v74h-3v58h-151v-44h-8l1,-33l-5,-4l-23,-3l-5,-2v-5l16,-2h17v-9h8l-1,-4l4,-5v-1l2,-9l-2,-4h-11l-4,3l-8,-7l-8,2l-5,2l-2,9l-9,-1h-31l-11,6l1,8l-5,-14l-9,-22l-9,-23l10,1h50l1,7h12l-9,-7h9M42,330l26,1l2,9l5,2l-3,5l7,4l7,-2l-3,-6l8,-3h10l6,3l4,-3v-22l1,-7h9v-1h28l2,1h35v1h36v-7h14l-1,8h54l5,14M555,357l-1,-29h85l6,-1h64l5,-1v98l1,5l25,-1h29v43l1,7l10,-1h28l1,25h-2v12l13,-14l7,-4l14,2l2,5h15v5h8"/><g class="cities"><circle r="7" cx="369" cy="351"/><text x="369" y="351">Albuquerque</text><circle r="7" cx="348" cy="814"/><text x="348" y="814">Las Cruces</text><circle r="7" cx="467" cy="250"/><text x="467" y="250">Santa Fe</text></g></svg>