<svg version="1.1" xmlns="http://www.w3.org/2000/svg" width="897" height="1000" viewBox="0 0 897 1000">
  <path d="M858 25
l 1 16
v 40
l 1 12
v 11
l -5 4
l 1 23
l 1 23
v 14
l 1 30
l 1 20
v 37
l 1 21
v 17
l 1 25
v 11
l 1 5
l 1 32
v 23
l 1 13
v 15
l 1 44
v 14
l 1 11
v 23
l 1 2
v 36
l 1 14
v 67
l 1 6
v 45
l 1 21
v 39
l 1 34
v 1
l 1 15
l 1 50
l 1 7
v 14
h -10
l -28 1
l -55 2
h -44
v 1
h -9
l -62 1
h -44
l -21 1
h -231
v 1
l -1 1
h -1
l -1 1
v 1
l 1 1
h 2
v 2
l -1 1
h 2
v 1
h -1
l -1 1
v 2
l 1 1
h 1
v 1
h -2
v 1
h -2
v 4
h 1
v 2
h -1
v 2
h 1
v 1
h 1
v 1
h 1
l 1 1
l 1 3
l 1 1
l 10 6
h -91
l -18 -1
h -49
l -19 -1
h -32
l -9 -1
h -21
l -1 23
v 28
l -1 25
h -6
l -18 -1
h -34
l -11 -1
h -30
l -21 -1
v -9
l 1 -5
v -24
l 1 -3
v -24
l 1 -7
v -6
l 1 -38
v -31
l 1 -2
v -25
l 1 -3
v -27
l 1 -1
v -25
l 1 -12
l 1 -17
v -55
l 1 -4
v -24
l 1 -4
v -11
l 1 -34
v -10
l 1 -2
v -22
l 1 -5
v -29
l 1 -2
v -51
l 1 -24
l 1 -7
v -25
l 1 -4
v -24
l 1 -10
v -16
l 1 -16
v -19
h 1
v -58
h 1
v -17
l 1 -26
v -12
l 1 -3
v -8
l 1 -24
v -17
l 1 -16
v -18
l 1 -2
v -46
l 1 -22
v -15
l 1 -1
v -5
h 41
v 1
h 40
l 2 1
h 44
l 8 1
h 42
l 12 1
h 65
l 17 1
h 19
l 20 1
h 247
l 19 -1
h 49
l 6 -1
h 26
l 12 -1
h 27
l 2 -1
h 23
l 14 -1
h 26
l 3 -1
h 38
Z"/>
<g class="districts">
<path data-race-id="NM01" d="M354 328
l 1 7
h 12
l -9 -7
h 18
l 1 -11
l 2 -7
v -1
v 1
l 4 1
v -1
l 6 -1
l 2 -4
l 18 -1
v -14
l 6 -2
l 9 3
l 1 34
l 11 2
v 14
h -5
v 17
h 66
l 4 -1
h 54
v 74
h -3
v 58
h -151
v -44
h -8
l 1 -33
l -5 -4
l -23 -3
l -5 -2
v -5
l 16 -2
h 17
v -9
h 8
l -1 -4
l 4 -5
v -1
l 2 -9
l -2 -4
h -11
l -4 3
l -8 -7
l -8 2
l -5 2
l -2 9
l -9 -1
h -31
l -11 6
l 1 8
l -5 -14
l -9 -22
l -9 -23
l 10 1
Z"/>
<path data-race-id="NM02" d="M25 896
v -2
l 1 -38
v -31
l 1 -2
v -25
l 1 -3
v -27
l 1 -1
v -25
l 1 -12
l 1 -17
v -55
l 1 -4
v -24
l 1 -4
v -11
l 1 -34
v -10
l 1 -2
v -22
l 1 -5
v -29
l 1 -2
v -51
l 1 -24
l 1 -7
v -25
l 1 -4
v -24
l 1 -10
v -16
l 1 -16
v -4
l 26 1
l 2 9
l 5 2
l -3 5
l 7 4
l 7 -2
l -3 -6
l 8 -3
h 10
l 6 3
l 4 -3
v -22
l 1 -7
h 9
v -1
h 28
l 2 1
h 35
v 1
h 36
v -7
h 14
l -1 8
h 54
l 5 14
l 9 23
l 9 22
l 5 14
l -1 -8
l 11 -6
h 31
l 9 1
l 2 -9
l 5 -2
l 8 -2
l 8 7
l 4 -3
h 11
l 2 4
l -2 9
v 1
l -4 5
l 1 4
h -8
v 9
h -17
l -16 2
v 5
l 5 2
l 23 3
l 5 4
l -1 33
h 8
v 44
h 151
v -58
h 3
v -74
l -1 -29
h 85
l 6 -1
h 64
l 5 -1
v 98
l 1 5
l 25 -1
h 29
v 43
l 1 7
l 10 -1
h 28
l 1 25
h -2
v 12
l 13 -14
l 7 -4
l 14 2
l 2 5
h 15
v 5
h 8
v 1
l 1 2
v 36
l 1 13
v 68
l 1 6
v 64
l 1 2
v 39
l 1 34
v 1
l 1 13
v 28
l 1 24
l 1 7
v 14
h -10
l -28 1
l -19 1
h -27
l -9 1
h -44
v 1
h -9
l -62 1
h -44
l -21 1
h -231
v 1
l -1 1
h -1
l -1 1
v 1
l 1 1
h 2
v 2
l -1 1
h 2
v 1
h -1
l -1 1
v 2
l 1 1
h 1
v 1
h -2
v 1
h -2
v 4
h 1
v 2
h -1
v 2
h 1
v 1
h 1
v 1
h 1
l 1 1
l 1 3
l 1 1
l 10 6
h -89
l -20 -1
h -49
l -19 -1
h -32
l -9 -1
h -21
l -1 17
v 38
l -1 21
h -6
l -18 -1
h -36
l -9 -1
h -32
l -19 -1
v -9
l 1 -5
v -24
l 1 -3
v -24
l 1 -7
Z"/>
<path data-race-id="NM03" d="M43 267
v -10
h 1
v -17
l 1 -26
v -12
l 1 -3
v -8
l 1 -24
v -17
l 1 -16
v -18
l 1 -2
v -46
l 1 -22
v -15
l 1 -1
v -5
h 41
v 1
h 40
l 2 1
h 44
l 8 1
h 42
l 12 1
h 65
l 17 1
h 19
l 20 1
h 247
l 19 -1
h 49
l 6 -1
h 26
l 12 -1
h 27
l 2 -1
h 23
l 14 -1
h 26
l 3 -1
h 43
l 1 16
v 40
l 1 12
v 11
l -5 4
l 1 23
l 1 23
v 14
l 1 30
l 1 20
v 37
l 1 21
v 17
l 1 25
v 11
l 1 5
v 25
l 1 7
v 23
l 1 13
l 1 20
v 53
l 1 11
v 22
h -8
v -5
h -15
l -2 -5
l -14 -2
l -7 4
l -13 14
v -12
h 2
l -1 -25
h -28
l -10 1
l -1 -7
v -43
h -29
l -25 1
l -1 -5
v -98
l -5 1
h -64
l -6 1
h -85
l 1 29
h -54
l -4 1
h -66
v -17
h 5
v -14
l -11 -2
l -1 -34
l -9 -3
l -6 2
v 14
l -18 1
l -2 4
l -6 1
v 1
l -4 -1
v -1
v 1
l -2 7
l -1 11
h -18
l 9 7
h -12
l -1 -7
h -50
l -10 -1
l -5 -14
h -54
l 1 -8
h -14
v 7
h -36
v -1
h -35
l -2 -1
h -28
v 1
h -9
l -1 7
v 22
l -4 3
l -6 -3
h -10
l -8 3
l 3 6
l -7 2
l -7 -4
l 3 -5
l -5 -2
l -2 -9
l -26 -1
v -15
h 1
v -47
Z"/>
</g>
  <path class="districts-mesh" d="M367 328
h 9
l 1 -11
l 2 -7
v -1
v 1
l 4 1
v -1
l 6 -1
l 2 -4
l 18 -1
v -14
l 6 -2
l 9 3
l 1 34
l 11 2
v 14
h -5
v 17
h 66
l 4 -1
h 54
v 74
h -3
v 58
h -151
v -44
h -8
l 1 -33
l -5 -4
l -23 -3
l -5 -2
v -5
l 16 -2
h 17
v -9
h 8
l -1 -4
l 4 -5
v -1
l 2 -9
l -2 -4
h -11
l -4 3
l -8 -7
l -8 2
l -5 2
l -2 9
l -9 -1
h -31
l -11 6
l 1 8
l -5 -14
l -9 -22
l -9 -23
l 10 1
h 50
l 1 7
h 12
l -9 -7
h 9
M42 330
l 26 1
l 2 9
l 5 2
l -3 5
l 7 4
l 7 -2
l -3 -6
l 8 -3
h 10
l 6 3
l 4 -3
v -22
l 1 -7
h 9
v -1
h 28
l 2 1
h 35
v 1
h 36
v -7
h 14
l -1 8
h 54
l 5 14
M555 357
l -1 -29
h 85
l 6 -1
h 64
l 5 -1
v 98
l 1 5
l 25 -1
h 29
v 43
l 1 7
l 10 -1
h 28
l 1 25
h -2
v 12
l 13 -14
l 7 -4
l 14 2
l 2 5
h 15
v 5
h 8"/>
</svg>