<svg version="1.1" xmlns="http://www.w3.org/2000/svg" width="674" height="1000" viewBox="0 0 674 1000"><path data-race-id="NV01" d="M521,817v-2l27,-1l1,10v5h-28Z"/><path data-race-id="NV02" d="M17,393l1,-10v-4l1,-11v-1l1,-34l1,-25l1,-27l1,-5l1,-83l2,-55v-7l1,-3l1,-37l1,-20l1,-34v-12l49,1h25l17,1h23l6,1h180l1,1h72l17,-1h49l36,-1h31l22,-1h27v-1h46v7l1,5v18l1,37v5l1,5v8l2,67v27l1,5v22l1,13v30l1,2v3h-28l-1,1h-61l-1,1h-95l1,18l3,13v21l-2,2l2,20l-3,11l-7,7l1,39l-7,1h-146l-21,4l-23,6l-10,2h-58l-3,-1h-51l-8,-8l-6,1l-11,-3l-5,13l-2,2h-2l-5,1v3l-11,1l-1,4l1,20l-1,11l7,1l1,25l-17,-16l-6,-5l-3,-3v-1l-9,-7l-3,-3l-20,-18l-1,-2l-4,-4l-6,-5v-31Z"/><path data-race-id="NV03" d="M459,825h7l4,-3l12,-3h7v7l8,-7l10,4l1,-11l7,-1l6,6v12h28v-5l4,4l5,-1v-5h9l14,9v2l1,2l1,1l-1,1h-1v4l1,3v1l2,4h1v4h1v1l1,1h1v1l1,1h1v1h-3l-1,1l-1,1v1h1v2l-1,1v2l1,1v13l1,1h1v3l-1,1h1v3h1l1,1v2h1l1,1v3h-1v1h-1v1h-1h1l1,1v3l1,1v1h-1v1h-1v1l-1,1v2h1v3l1,1v2l1,1v1h1l2,2v2h1v3h1v3h1v1l1,2v7l1,1v1l1,1v7l1,1v10h-1l-2,1h-3l-1,1v1h-1v1h1v1l2,1h1l1,1v3l-2,1v1h-1v1h-1v4l-18,-18l-6,-4l-6,-7l-2,-1l-16,-15l-14,-14l-5,-3l-11,-12l-34,-31l-23,-22Z"/><path data-race-id="NV04" d="M90,430l5,-1h2l2,-2l5,-13l11,3l6,-1l8,8h51l3,1h58l10,-2l23,-6l21,-4h146l7,-1l-1,-39l7,-7l3,-11l-2,-20l2,-2v-21l-3,-13l-1,-18h95l1,-1h61l1,-1h28v16l1,1v34l1,15v12h1v42l1,1v32l1,16v7l1,13v36l1,3v8l1,8v37l1,5v15l1,3v46l1,3v32l1,6v18l1,1v27l1,7v19l1,1v22l1,1v11l1,7v27l-1,1h-1l-3,8l-1,1l-1,1h-1v1l1,1v1l-1,3h-1v5h-1v1l-1,1l-1,-1h-1l-1,1h-1l-1,1h-4v1v-1l-4,-4h-2l-1,-2l-1,1l-2,-7l-6,-5h-4l-2,1v1h-6l-2,-2h-10v1h-1v1h-1l-3,-1v1h-1v1h-1v1h-1v1h-3v1h-4v1h-2v4l2,1l-14,-9h-9v5l-5,1l-4,-4l-1,-10l-27,1v2l-6,-6l-7,1l-1,11l-10,-4l-8,7v-7h-7l-12,3l-4,3h-7l1,22l-5,-5l-1,-1l-22,-20l-2,-2l-8,-7l-19,-18l-21,-19l-12,-13l-55,-51l-13,-12l-6,-6l-3,-3l-14,-13l-12,-11l-24,-22l-7,-8l-4,-3l-14,-13l-13,-13l-22,-20l-3,-2l-3,-3l-9,-10l-16,-14l-10,-10l-22,-20l-5,-4l-11,-12h-1l-17,-17l-1,-25l-7,-1l1,-11l-1,-20l1,-4l11,-1Z"/>  <path class="mesh" d="M639,279h-28l-1,1h-61l-1,1h-95l1,18l3,13v21l-2,2l2,20l-3,11l-7,7l1,39l-7,1h-146l-21,4l-23,6l-10,2h-58l-3,-1h-51l-8,-8l-6,1l-11,-3l-5,13l-2,2h-2l-5,1v3l-11,1l-1,4l1,20l-1,11l7,1l1,25M460,847l-1,-22h7l4,-3l12,-3h7v7l8,-7l10,4l1,-11l7,-1l6,6M549,824v5h-28v-14l27,-1l1,10l4,4l5,-1v-5h9l14,9"/></svg>