<svg version="1.1" xmlns="http://www.w3.org/2000/svg" width="674" height="1000" viewBox="0 0 674 1000">
  <path d="M607 25
h 24
v 7
l 1 5
v 18
l 1 37
v 5
l 1 5
v 8
l 2 67
v 27
l 1 5
v 22
l 1 13
v 30
l 1 2
v 19
l 1 1
v 34
l 1 15
v 12
h 1
v 42
l 1 1
v 32
l 1 16
v 7
l 1 13
v 36
l 1 3
v 8
l 1 8
v 37
l 1 5
v 15
l 1 3
v 46
l 1 3
v 32
l 1 6
v 18
l 1 1
v 27
l 1 7
v 19
l 1 1
v 22
l 1 1
v 11
l 1 7
v 27
l -1 1
h -1
l -3 8
l -1 1
l -1 1
h -1
v 1
l 1 1
v 1
l -1 3
h -1
v 5
h -1
v 1
l -1 1
l -1 -1
h -1
l -1 1
h -1
l -1 1
h -4
v 1
v -1
l -4 -4
h -2
l -1 -2
l -1 1
l -2 -7
l -6 -5
h -4
l -2 1
v 1
h -6
l -2 -2
h -10
v 1
h -1
v 1
h -1
l -3 -1
v 1
h -1
v 1
h -1
v 1
h -1
v 1
h -3
v 1
h -4
v 1
h -2
v 4
l 2 1
v 2
l 1 2
l 1 1
l -1 1
h -1
v 4
l 1 3
v 1
l 2 4
h 1
v 4
h 1
v 1
l 1 1
h 1
v 1
l 1 1
h 1
v 1
h -3
l -1 1
l -1 1
v 1
h 1
v 2
l -1 1
v 2
l 1 1
v 13
l 1 1
h 1
v 3
l -1 1
h 1
v 3
h 1
l 1 1
v 2
h 1
l 1 1
v 3
h -1
v 1
h -1
v 1
h -1
h 1
l 1 1
v 3
l 1 1
v 1
h -1
v 1
h -1
v 1
l -1 1
v 2
h 1
v 3
l 1 1
v 2
l 1 1
v 1
h 1
l 2 2
v 2
h 1
v 3
h 1
v 3
h 1
v 1
l 1 2
v 7
l 1 1
v 1
l 1 1
v 7
l 1 1
v 10
h -1
l -2 1
h -3
l -1 1
v 1
h -1
v 1
h 1
v 1
l 2 1
h 1
l 1 1
v 3
l -2 1
v 1
h -1
v 1
h -1
v 4
l -18 -18
l -6 -4
l -6 -7
l -2 -1
l -16 -15
l -34 -32
l -30 -28
l -28 -27
l -1 -1
l -22 -20
l -2 -2
l -8 -7
l -19 -18
l -23 -21
l -10 -11
l -55 -51
l -13 -12
l -6 -6
l -3 -3
l -50 -46
l -7 -8
l -4 -3
l -14 -13
l -13 -13
l -22 -20
l -3 -2
l -3 -3
l -9 -10
l -16 -14
l -10 -10
l -22 -20
l -5 -4
l -11 -12
h -1
l -17 -17
l -17 -16
l -6 -5
l -3 -3
v -1
l -9 -7
l -3 -3
l -20 -18
l -1 -2
l -4 -4
l -6 -5
v -38
l 1 -10
v -4
l 1 -11
v -1
l 1 -34
l 1 -25
l 1 -27
l 2 -62
v -7
l 2 -74
v -7
l 1 -4
l 2 -58
l 1 -32
v -12
l 49 1
h 25
l 17 1
l 29 1
h 180
l 1 1
h 49
l 7 -1
h 82
l 36 -1
h 31
l 22 -1
l 5 -1
Z"/>
<g class="districts">
<path data-race-id="NV01" d="M521 817
v -2
l 27 -1
l 1 10
v 5
h -28
Z"/>
<path data-race-id="NV02" d="M17 393
l 1 -10
v -4
l 1 -11
v -1
l 1 -34
l 1 -25
l 1 -27
l 1 -5
l 1 -83
l 2 -55
v -7
l 1 -3
l 1 -37
l 1 -20
l 1 -34
v -12
l 49 1
h 25
l 17 1
h 23
l 6 1
h 180
l 1 1
h 72
l 17 -1
h 49
l 36 -1
h 31
l 22 -1
h 27
v -1
h 46
v 7
l 1 5
v 18
l 1 37
v 5
l 1 5
v 8
l 2 67
v 27
l 1 5
v 22
l 1 13
v 30
l 1 2
v 3
h -28
l -1 1
h -61
l -1 1
h -95
l 1 18
l 3 13
v 21
l -2 2
l 2 20
l -3 11
l -7 7
l 1 39
l -7 1
h -146
l -21 4
l -23 6
l -10 2
h -58
l -3 -1
h -51
l -8 -8
l -6 1
l -11 -3
l -5 13
l -2 2
h -2
l -5 1
v 3
l -11 1
l -1 4
l 1 20
l -1 11
l 7 1
l 1 25
l -17 -16
l -6 -5
l -3 -3
v -1
l -9 -7
l -3 -3
l -20 -18
l -1 -2
l -4 -4
l -6 -5
v -31
Z"/>
<path data-race-id="NV03" d="M459 825
h 7
l 4 -3
l 12 -3
h 7
v 7
l 8 -7
l 10 4
l 1 -11
l 7 -1
l 6 6
v 12
h 28
v -5
l 4 4
l 5 -1
v -5
h 9
l 14 9
v 2
l 1 2
l 1 1
l -1 1
h -1
v 4
l 1 3
v 1
l 2 4
h 1
v 4
h 1
v 1
l 1 1
h 1
v 1
l 1 1
h 1
v 1
h -3
l -1 1
l -1 1
v 1
h 1
v 2
l -1 1
v 2
l 1 1
v 13
l 1 1
h 1
v 3
l -1 1
h 1
v 3
h 1
l 1 1
v 2
h 1
l 1 1
v 3
h -1
v 1
h -1
v 1
h -1
h 1
l 1 1
v 3
l 1 1
v 1
h -1
v 1
h -1
v 1
l -1 1
v 2
h 1
v 3
l 1 1
v 2
l 1 1
v 1
h 1
l 2 2
v 2
h 1
v 3
h 1
v 3
h 1
v 1
l 1 2
v 7
l 1 1
v 1
l 1 1
v 7
l 1 1
v 10
h -1
l -2 1
h -3
l -1 1
v 1
h -1
v 1
h 1
v 1
l 2 1
h 1
l 1 1
v 3
l -2 1
v 1
h -1
v 1
h -1
v 4
l -18 -18
l -6 -4
l -6 -7
l -2 -1
l -16 -15
l -14 -14
l -5 -3
l -11 -12
l -34 -31
l -23 -22
Z"/>
<path data-race-id="NV04" d="M90 430
l 5 -1
h 2
l 2 -2
l 5 -13
l 11 3
l 6 -1
l 8 8
h 51
l 3 1
h 58
l 10 -2
l 23 -6
l 21 -4
h 146
l 7 -1
l -1 -39
l 7 -7
l 3 -11
l -2 -20
l 2 -2
v -21
l -3 -13
l -1 -18
h 95
l 1 -1
h 61
l 1 -1
h 28
v 16
l 1 1
v 34
l 1 15
v 12
h 1
v 42
l 1 1
v 32
l 1 16
v 7
l 1 13
v 36
l 1 3
v 8
l 1 8
v 37
l 1 5
v 15
l 1 3
v 46
l 1 3
v 32
l 1 6
v 18
l 1 1
v 27
l 1 7
v 19
l 1 1
v 22
l 1 1
v 11
l 1 7
v 27
l -1 1
h -1
l -3 8
l -1 1
l -1 1
h -1
v 1
l 1 1
v 1
l -1 3
h -1
v 5
h -1
v 1
l -1 1
l -1 -1
h -1
l -1 1
h -1
l -1 1
h -4
v 1
v -1
l -4 -4
h -2
l -1 -2
l -1 1
l -2 -7
l -6 -5
h -4
l -2 1
v 1
h -6
l -2 -2
h -10
v 1
h -1
v 1
h -1
l -3 -1
v 1
h -1
v 1
h -1
v 1
h -1
v 1
h -3
v 1
h -4
v 1
h -2
v 4
l 2 1
l -14 -9
h -9
v 5
l -5 1
l -4 -4
l -1 -10
l -27 1
v 2
l -6 -6
l -7 1
l -1 11
l -10 -4
l -8 7
v -7
h -7
l -12 3
l -4 3
h -7
l 1 22
l -5 -5
l -1 -1
l -22 -20
l -2 -2
l -8 -7
l -19 -18
l -21 -19
l -12 -13
l -55 -51
l -13 -12
l -6 -6
l -3 -3
l -14 -13
l -12 -11
l -24 -22
l -7 -8
l -4 -3
l -14 -13
l -13 -13
l -22 -20
l -3 -2
l -3 -3
l -9 -10
l -16 -14
l -10 -10
l -22 -20
l -5 -4
l -11 -12
h -1
l -17 -17
l -1 -25
l -7 -1
l 1 -11
l -1 -20
l 1 -4
l 11 -1
Z"/>
</g>
  <path class="districts-mesh" d="M639 279
h -28
l -1 1
h -61
l -1 1
h -95
l 1 18
l 3 13
v 21
l -2 2
l 2 20
l -3 11
l -7 7
l 1 39
l -7 1
h -146
l -21 4
l -23 6
l -10 2
h -58
l -3 -1
h -51
l -8 -8
l -6 1
l -11 -3
l -5 13
l -2 2
h -2
l -5 1
v 3
l -11 1
l -1 4
l 1 20
l -1 11
l 7 1
l 1 25
M460 847
l -1 -22
h 7
l 4 -3
l 12 -3
h 7
v 7
l 8 -7
l 10 4
l 1 -11
l 7 -1
l 6 6
M549 824
v 5
h -28
v -14
l 27 -1
l 1 10
l 4 4
l 5 -1
v -5
h 9
l 14 9"/>
</svg>