<svg version="1.1" xmlns="http://www.w3.org/2000/svg" width="1000" height="766" viewBox="0 0 1000 766"><g class="districts"><path data-race-id="NY01" d="M834,705l-3,-13l-8,1v-4l-13,6l-5,-1l4,-15l10,-5l-1,-6l7,-1h28l12,-1l8,-3h7l18,-11l5,-7l7,-2l4,-7l15,-4l-3,5l-8,-1l-2,4l-8,7l3,7l-8,1l1,5l-10,3l-2,4l-9,6h10l6,3l5,-3l10,-14l14,-3l3,-5l5,6l1,-8l9,10l3,-4l5,2l4,-8h4l2,-5l5,-2l6,2l-5,5l-39,19l-10,7l-15,7l-1,-3l-8,-1v6l-4,-3l-6,9l-19,2l-7,3l-4,7l-5,-3l-8,4l-8,-1l-2,3ZM965,609l-9,7l-4,-1l4,-3ZM919,644l5,1l-1,7l-11,-2l5,-9Z"/><path data-race-id="NY02" d="M772,705h13l-1,-2l17,-6l4,-3l5,1l13,-6v4l8,-1l3,13h-3l-1,1h-2l-1,1h-1l-3,-1l-3,5l-11,-3l-13,8l-9,2h-1l-6,1v1h-1l-1,-7h-4ZM780,728v-1l7,-3l8,-5l5,2l-13,5Z"/><path data-race-id="NY03" d="M801,675h1l1,1h3l2,1l1,1v1l-4,15l-4,3l-17,6l1,2h-13l-1,-4l-18,3l-3,4l-3,-1l-3,-7h-6v-3l9,3l-3,-5l2,-5l4,2l-2,-6h6l5,9l-1,-11l2,-4l7,-3l4,6l6,-3l4,6l-2,-7l-1,-2v-1h-1v-2l1,-2l4,1h1l1,1v1h1v6l10,-5l-7,-2l1,-4l5,5Z"/><path data-race-id="NY04" d="M749,729l-1,-2v-4l2,-3l5,-7l-6,-4l1,-1l3,-4l18,-3l1,4l2,8h4l1,7l-8,1v4l-5,-1l-11,5ZM768,729l-7,2h-15l11,-2Z"/><path data-race-id="NY05" d="M738,721l-2,-6l-1,-2l7,-2l3,-3l2,-1l3,1l-1,1l6,4l-5,7l-2,3v4l1,2l-13,3l-12,6l2,-3l14,-5l4,-4l1,-1l3,-3l-3,2l-7,-3Z"/><path data-race-id="NY06" d="M727,708l9,-2l2,-6h6l3,7l-2,1l-3,3l-7,2h-3l-1,1l-2,-1l-2,-3Z"/><path data-race-id="NY07" d="M717,718l-1,-3v-1h1h-1h1v-2h3l1,-1v-1l4,1v-1h2l2,3l2,1l1,-1h3l1,2l-1,1h-3l-11,-3l-2,3v5Z"/><path data-race-id="NY08" d="M725,731l-1,-7l4,-6l-9,-2l2,-3l11,3h3l1,-1l2,6h-4l-5,4l3,7h-6Z"/><path data-race-id="NY09" d="M719,716l9,2l-4,6l1,7l-3,1v-5l-1,-3l-2,-3Z"/><path data-race-id="NY10" d="M721,695l1,4l-5,5v8h-1l-1,-8l5,-8ZM716,715l1,3l2,3l2,3l1,3l-4,2l-6,-7h1l3,-7Z"/><path data-race-id="NY11" d="M712,722l6,7l4,-2v5h-4l-6,-4v-5ZM707,721l3,8l-6,8l-11,7l-7,2v-8l5,-1l1,-13l2,-2Z"/><path data-race-id="NY12" d="M722,699h1l-3,9l-3,1v-5ZM727,698l-2,2l2,8v2h-2v1l-4,-1v-4l1,-1v-1l1,-2l1,-1h-1v-1h2l2,-2Z"/><path data-race-id="NY13" d="M725,684h6l-1,2l-6,3v9h-1v1h-1l-1,-4Z"/><path data-race-id="NY14" d="M725,700l2,-2l2,3l9,-4v3l-2,6l-9,2ZM735,694v-2l-5,-6l1,-2l7,3l-1,-5l4,1l-3,5l2,7h-4Z"/><path data-race-id="NY15" d="M724,689l6,-3l5,6v2l-9,3l-2,-1Z"/><path data-race-id="NY16" d="M729,664l7,-1l5,-2l9,10l2,-6l5,1v2l-3,5h-5l-8,10l-4,-1l1,5l-7,-3h-6l1,-5l3,-14Z"/><path data-race-id="NY17" d="M686,642l12,-10l18,-19h1l24,-4l2,18l-1,2h5l5,11h-1l1,6h-2l-2,2v1h1v1l1,1l2,3l1,1v1l1,1l1,2l1,1l1,1v5l-5,-1l-2,6l-9,-10l-5,2l-7,1l2,-7l-1,-23l-11,-9l3,-8l-5,-4h-1l4,7l-3,5l3,10l6,6l-2,14l3,10l-22,-13l-8,-4l-1,-1h-1l-6,-3l-2,-2Z"/><path data-race-id="NY18" d="M657,585l2,-5l3,-3l2,-3h1l4,-3l2,-1l13,-6v5l14,2l1,-5l11,5l9,-1l1,-23h1l12,2v11l3,1l6,2l11,18l17,-2v14l-1,1v17l-1,2l1,2l3,6l1,1l4,7v1h-2l-1,1l-1,1h-1v1h-1l-2,1v1h-1l-1,1h-2v1h-1v1h-2l-1,1v1h-1v1h-1l-2,1l-1,1h-1l-1,1l-1,1l-1,1l-1,-6h1l-5,-11h-5l1,-2l-2,-18l-24,4h-1l-18,19l-12,10l-1,-1l-10,-5l-17,-11l-28,-16l1,-1v-1h-1v-1l-2,-1l-2,-2v-1h-1v-1l1,-1l-1,-3l-1,1h-1l1,-11h10Z"/><path data-race-id="NY19" d="M529,480h3l1,-4l2,-1h8v-19l4,-14l-2,-10l2,-12l5,-4l1,-16l4,-13v-1l5,-5v-5l1,-1v-5h-1l1,-1v-1h-1v-2l5,-1v3h8l5,-8l23,13l3,-11l13,5l2,-10l1,-16l-3,-3l26,9h6l2,14l6,-5l2,25l14,-2l3,-2l2,6l-6,1l4,6h10v-3l1,13l-7,13l2,7l-5,17l2,2l16,-2l39,-8l1,-8l2,-1v1l3,-1l6,-1h2l6,1l-7,-10l3,-2l4,-18l-6,1l-2,-15l-2,-19l2,-3l4,-2l42,-2v18h-1v2l1,1l-1,1l3,10l-1,7l-3,11l-1,1v4h-1v3l-1,2l-1,6l-1,1v3l-1,2v2l-1,1l-1,5l-1,4v2l-1,1v3l-1,2v6l-1,1v1l-1,5l-1,1v2l-1,2v4l-1,1v2l-1,3l-1,2v3l-1,1v3l-1,1v2l-1,2v1l-1,4l1,5l1,1h1v16l-1,4v22l-1,5v22l-1,5v10l-17,2l-11,-18l-6,-2l-3,-1v-11l-12,-2h-1l-1,23l-9,1l-11,-5l-1,5l-14,-2v-5l-13,6l-2,1l-4,3h-1l-2,3l-3,3l-2,5l-23,2h-10l-1,11h-5v-2h-3v1h-2l-1,-1h-6v-3h-1v-3h-3l-1,-1h-1l-2,1h-2l-1,-5h-2v-3l-2,-3l-2,-3l-4,-6v-1h1v-1h1v-9h-1l1,-2v-2l-2,-2h1l1,-1v-5l-1,-2v-1h-1v-1h-4v-3l4,-4l-6,-2l-3,-4h-1l-3,-3l-5,2h-1l-2,-1l-1,1l-2,-4l-1,-1l1,-4l-1,-3l-1,-1v-1h-2l-5,-4v-1l-3,-3h-22v-22Z"/><path data-race-id="NY20" d="M651,347l46,-1v1l21,-3l9,-1l-1,-14l12,-1l5,-2v6l-5,9l1,5l8,2l-1,5l2,1l-2,3l2,19l2,15l6,-1l-4,18l-3,2l7,10l-6,-1h-2l-6,1l-3,1v-1l-2,1l-1,8l-39,8l-16,2l-2,-2l5,-17l-2,-7l7,-13l-1,-13v3h-10l-4,-6l6,-1l-2,-6l-3,2l-14,2l-2,-25l-6,5Z"/><path data-race-id="NY21" d="M428,167l5,-3l2,-4l3,-7l5,-1h3l9,-5v-7l4,-3h4l6,-5l5,-3h6l1,-1l4,-2l5,-5l6,-11l4,-6l6,-6l1,-1l6,-7l8,-8l9,-10l16,-12h1l2,-5l1,1l3,-5l3,-2l3,-2l2,-1l4,-2l2,-1l1,-1l1,-1h3l1,-3l2,-1h1l1,-1h4v-1l6,-5h1v-3h11l3,-3h2l2,-2h4l1,1h4v2h4l3,-2l2,1h35l7,1h7l1,-1h18l3,-1h8l4,-1h16l10,-1h6l13,-1h5l6,-1h13v2l-1,1v2l1,1l1,1v9h-1v1l-1,1l-1,6h-1v4h1v1l1,1h1l1,1v1l1,1l1,2l-1,1v2h-1v2l-1,1v1l-1,1v7h1v1h-1v5h-1v2h-1v1h1l-1,1v3l1,1v4l1,2l1,1v1l1,1h2v2h1v2h1v4h1v1l1,1v6h1v3l-1,4l-1,2v1l-1,3v11l2,5v1l-1,3v1h-1v1h-1v1l-1,1v1l-1,1v1h-1v1h-1v1l-1,1v2h-1v3l-1,1h1l-1,1v1h-1v2l1,1v2h-1v3h-1v2l-1,2v4h1l1,1l1,1l1,1v2l-1,2v4h1v8h1v2l3,6v3l1,1l-1,1h-1v2h-1v1l1,1l1,1v1l1,1v1h1l1,1v3l-1,2v1h-1v4l-3,6l-1,2v1l-2,4v1l1,2l-1,2l1,1v4l2,1h1l2,-3h-1l1,-1v-1l1,-1h-1l1,-2h1v-1v1h2v-1h4v2h1v2h1l-1,2v2h1l1,-1v1h1l1,1h1v1l1,1v2l1,1v2h-1v1h1v59l-1,7v26l-42,2l-4,2l-2,-1l1,-5l-8,-2l-1,-5l5,-9v-6l-5,2l-12,1l1,14l-9,1l-21,3v-1l-46,1h-6l-26,-9v-2l-7,-2l-5,-1l-2,-27l-16,-6l1,9h-8h2h-2l-6,-3l-4,-3l1,-7l9,-3l-3,-24l-2,-22l-12,8l-15,8l-21,15h-3l-24,-8v-17l-2,-18l-29,-3v7l-26,-3l-46,-4l-10,-1l11,-20l5,-6l15,-27l3,-8Z"/><path data-race-id="NY22" d="M444,490h8l4,6l4,-2v-16l3,-1l-5,-37l-15,1v-25l-1,-10l-1,-24h12l33,-3l-1,-27l-2,-20l-1,-1l-2,1l-1,-1l-1,1l-1,-1l2,-3l-5,-11h-1l-5,-3l-3,-2h-1l2,-1h-1l-16,-8l-1,-6l4,-15l-9,-3l-12,-12l1,-5l15,-2l4,-15h-6v-9l26,3v-7l29,3l2,18v17l24,8h3l21,-15l15,-8l12,-8l2,22l3,24l-9,3l-1,7l4,3l6,3h2h-2h8l-1,-9l16,6l2,27l5,1l7,2v2l3,3l-1,16l-2,10l-13,-5l-3,11l-23,-13l-5,8h-8v-3l-5,1v2h1v1l-1,1h1v5l-1,1v5l-5,5v1l-4,13l-1,16l-5,4l-2,12l2,10l-4,14v19h-8l-2,1l-1,4h-3l-2,5v22h-96l-14,-1l1,-5l14,1v-5l8,-1Z"/><path data-race-id="NY23" d="M83,388l20,20l8,5l9,1l7,15l16,-2l7,-4l10,-1l5,-3h6l9,-3h2v3h50l24,2v6l14,1v-10h7l1,-7l19,1h4l10,-10v-1l1,-1l3,-11l3,-6l9,-15v-29l13,-1v5h20l30,-2l-3,9v12l2,3l-2,16l1,12l4,3l2,10l25,-1v2l23,-1l1,10v25l15,-1l5,37l-3,1v16l-4,2l-4,-6h-8l-4,6l-8,1v5l-14,-1l-1,5h-38l-21,-1h-47l-16,-1h-58l-27,-2h-39l-10,-1l-53,-2h-10l-19,-1l-31,-1l-13,-1h-10v-24l1,-13v-8l2,-38Z"/><path data-race-id="NY24" d="M387,235l2,-4l10,1l46,4v9h6l-4,15l-15,2l-1,5l12,12l9,3l-4,15l1,6l16,8h1l-2,1h1l3,2l5,3h1l5,11l-2,3l1,1l1,-1l1,1l2,-1l1,1l2,20l1,27l-33,3h-12l1,24l-23,1v-2l-25,1l-2,-10l-4,-3l-1,-12l2,-16l-2,-3v-12l3,-9l-30,2h-20v-5l-13,1l-14,-1v-95h30l13,1h28Z"/><path data-race-id="NY25" d="M240,307l4,-4l-4,-2v-4l19,1l3,-11l-21,-3v-22l1,-21l71,2v95h-26v3h-16l1,-3l-22,-1l-5,-1l5,-14l-11,-1Z"/><path data-race-id="NY26" d="M113,325l1,-1l1,-3l-1,-1l2,-2v-1l6,3v4h5l1,4l5,3v-3l8,3l11,-2l2,-3v9l3,3v25l-1,7h-20l1,-4l-5,-11v-1l-3,-8h-4l-1,-2l-4,-3l-1,-5l2,-5v-3l-8,-2Z"/><path data-race-id="NY27" d="M132,355l5,11l-1,4h20l1,-7v-25l-3,-3v-9l-2,3l-11,2l-8,-3v3l-5,-3l-1,-4h-5v-4l-6,-3h1v-11l-1,-1l1,-2v-5l-2,-2l-14,-30l60,-27l81,2l-1,21v22l21,3l-3,11l-19,-1v4l4,2l-4,4l-1,14l11,1l-5,14l5,1l22,1l-1,3h16v-3h26l14,1v29l-9,15l-3,6l-3,11l-1,1v1l-10,10h-4l-19,-1l-1,7h-7v10l-14,-1v-6l-24,-2h-50v-3h-2l-9,3h-6l-5,3l-10,1l-7,4l-16,2l-7,-15l-9,-1l-8,-5l-20,-20l45,-21l3,-8Z"/></g>  <path class="districts-mesh" d="M738,721l-2,-6l-1,1h-3l-11,-3l-2,3v5l-2,-3l-1,-3M722,699h1M779,720l-1,-7h-4l-2,-8h13l-1,-2l17,-6l4,-3l4,-15M749,729l-1,-2v-4l2,-3l5,-7l-6,-4l1,-1l-3,-1l-3,-7h-6v-3M725,731l-1,-7l4,-6l-9,-2M527,507v-22l2,-5h3l1,-4l2,-1h8v-19l4,-14l-2,-10l2,-12l5,-4l1,-16l4,-13v-1l5,-5v-5l1,-1v-5h-1l1,-1v-1h-1v-2l5,-1v3h8l5,-8l23,13l3,-11l13,5l2,-10l1,-16l-3,-3l26,9h6l2,14l6,-5l2,25l14,-2l3,-2l2,6l-6,1l4,6h10v-3l1,13l-7,13l2,7l-5,17l2,2l16,-2l39,-8l1,-8l2,-1v1l3,-1l6,-1h2l6,1l-7,-10l3,-2l4,-18l-6,1l-2,-15l-2,-19l2,-3l4,-2l42,-2M722,732v-5l-1,-3l-2,-3M651,347l46,-1v1l21,-3l9,-1l-1,-14l12,-1l5,-2v6l-5,9l1,5l8,2l-1,5l2,1M721,695l1,4l-5,5v5M722,727l-4,2l-6,-7M725,684h6l-1,2l-6,3v7M735,694v-2l-5,-6M619,338v-2l-7,-2l-5,-1l-2,-27l-16,-6l1,9h-8h2h-2l-6,-3l-4,-3l1,-7l9,-3l-3,-24l-2,-22l-12,8l-15,8l-21,15h-3l-24,-8v-17l-2,-18l-29,-3v7l-26,-3l-46,-4l-10,-1M731,684l7,3l-1,-5l4,1M729,664l7,-1l5,-2l9,10l2,-6l5,1M736,715l-1,-2l7,-2l3,-3l2,-1M727,698l-2,2l2,8l9,-2l2,-6M686,642l12,-10l18,-19h1l24,-4l2,18l-1,2h5l5,11h-1l1,6M735,713h-3l-1,1l-2,-1l-2,-3v-2M623,598l1,-11h10l23,-2l2,-5l3,-3l2,-3h1l4,-3l2,-1l13,-6v5l14,2l1,-5l11,5l9,-1l1,-23h1l12,2v11l3,1l6,2l11,18l17,-2M772,705l-1,-4l-18,3l-3,4M417,506l1,-5l14,1v-5l8,-1l4,-6h8l4,6l4,-2v-16l3,-1l-5,-37l-15,1v-25l-1,-10l-1,-24h12l33,-3l-1,-27l-2,-20l-1,-1l-2,1l-1,-1l-1,1l-1,-1l2,-3l-5,-11h-1l-5,-3l-3,-2h-1l2,-1h-1l-16,-8l-1,-6l4,-15l-9,-3l-12,-12l1,-5l15,-2l4,-15h-6v-9M721,710l4,1v-1h2M834,705l-3,-13l-8,1v-4l-13,6l-5,-1M83,388l20,20l8,5l9,1l7,15l16,-2l7,-4l10,-1l5,-3h6l9,-3h2v3h50l24,2v6l14,1v-10h7l1,-7l19,1h4l10,-10v-1l1,-1l3,-11l3,-6l9,-15v-29l13,-1v5h20l30,-2l-3,9v12l2,3l-2,16l1,12l4,3l2,10l25,-1v2l23,-1M327,339l-14,-1v-95M313,338h-26v3h-16l1,-3l-22,-1l-5,-1l5,-14l-11,-1l1,-14l4,-4l-4,-2v-4l19,1l3,-11l-21,-3v-22l1,-21M116,317l6,3v4h5l1,4l5,3v-3l8,3l11,-2l2,-3v9l3,3v25l-1,7h-20l1,-4l-5,-11"/></svg>