<svg version="1.1" xmlns="http://www.w3.org/2000/svg" width="1000" height="766" viewBox="0 0 1000 766">
  <path d="M834 705
h -3
l -1 1
h -2
l -1 1
h -1
l -3 -1
l -3 5
l -11 -3
l -13 8
l -9 2
h -1
l -6 1
l -1 1
l -8 1
v 4
l -5 -1
l -11 5
h -6
l -13 3
l -12 6
l 2 -3
l 14 -5
l 4 -4
l 1 -1
l 3 -3
l -3 2
l -7 -3
h -4
l -5 4
l 3 7
h -6
l -1 -1
v 1
h -7
l -6 -4
v -6
h 1
l 3 -7
v -1
h 1
v -2
h 3
l 1 -1
v -5
l 1 -1
v -1
l 1 -2
l 1 -1
h -1
v -1
h 2
l 2 -2
l 2 3
l 9 -4
l 9 3
l -3 -5
l 2 -5
l 4 2
l -2 -6
h 6
l 5 9
l -1 -11
l 2 -4
l 7 -3
l 4 6
l 6 -3
l 4 6
l -2 -7
l -1 -2
v -1
h -1
v -2
l 1 -2
l 4 1
h 1
l 1 1
v 1
h 1
v 6
l 10 -5
l -7 -2
l 1 -4
l 5 5
h 8
l 1 1
h 3
l 2 1
l 1 1
v 1
l 10 -5
l -1 -6
l 7 -1
h 28
l 12 -1
l 8 -3
h 7
l 18 -11
l 5 -7
l 7 -2
l 4 -7
l 15 -4
l -3 5
l -8 -1
l -2 4
l -8 7
l 3 7
l -8 1
l 1 5
l -10 3
l -2 4
l -9 6
h 10
l 6 3
l 5 -3
l 10 -14
l 14 -3
l 3 -5
l 5 6
l 1 -8
l 9 10
l 3 -4
l 5 2
l 4 -8
h 4
l 2 -5
l 5 -2
l 6 2
l -5 5
l -39 19
l -10 7
l -15 7
l -1 -3
l -8 -1
v 6
l -4 -3
l -6 9
l -19 2
l -7 3
l -4 7
l -5 -3
l -8 4
l -8 -1
Z
M965 609
l -9 7
l -4 -1
l 4 -3
Z
M919 644
l 5 1
l -1 7
l -11 -2
l 5 -9
Z
M428 167
l 5 -3
l 2 -4
l 3 -7
l 5 -1
h 3
l 9 -5
v -7
l 4 -3
h 4
l 6 -5
l 5 -3
h 6
l 1 -1
l 4 -2
l 9 -10
l 2 -6
l 4 -6
l 6 -6
l 1 -1
l 6 -7
l 8 -8
l 9 -10
l 16 -12
h 1
l 2 -5
l 1 1
l 3 -5
l 3 -2
l 3 -2
l 2 -1
l 4 -2
l 2 -1
l 1 -1
l 1 -1
h 3
l 1 -3
l 2 -1
h 1
l 1 -1
h 4
v -1
l 6 -5
h 1
v -3
h 11
l 3 -3
h 2
l 2 -2
h 4
l 1 1
h 4
v 2
h 4
l 3 -2
l 2 1
h 35
l 7 1
h 7
l 1 -1
h 18
l 3 -1
h 8
l 4 -1
h 16
l 10 -1
h 6
l 13 -1
h 5
l 6 -1
h 13
v 2
l -1 1
v 2
l 1 1
l 1 1
v 9
h -1
v 1
l -1 1
l -1 6
h -1
v 4
h 1
v 1
l 1 1
h 1
l 1 1
v 1
l 1 1
l 1 2
l -1 1
v 2
h -1
v 2
l -1 1
v 1
l -1 1
v 7
h 1
v 1
h -1
v 5
h -1
v 2
h -1
v 1
h 1
l -1 1
v 3
l 1 1
v 4
l 1 2
l 1 1
v 1
l 1 1
h 2
v 2
h 1
v 2
h 1
v 4
h 1
v 1
l 1 1
v 6
h 1
v 3
l -1 4
l -1 2
v 1
l -1 3
v 11
l 2 5
v 1
l -1 3
v 1
h -1
v 1
h -1
v 1
l -1 1
v 1
l -1 1
v 1
h -1
v 1
h -1
v 1
l -1 1
v 2
h -1
v 3
l -1 1
h 1
l -1 1
v 1
h -1
v 2
l 1 1
v 2
h -1
v 3
h -1
v 2
l -1 2
v 4
h 1
l 1 1
l 1 1
l 1 1
v 2
l -1 2
v 4
h 1
v 8
h 1
v 2
l 3 6
v 3
l 1 1
l -1 1
h -1
v 2
h -1
v 1
l 1 1
l 1 1
v 1
l 1 1
v 1
h 1
l 1 1
v 3
l -1 2
v 1
h -1
v 4
l -3 6
l -1 2
v 1
l -2 4
v 1
l 1 2
l -1 2
l 1 1
v 4
l 2 1
h 1
l 2 -3
h -1
l 1 -1
v -1
l 1 -1
h -1
l 1 -2
h 1
v -1
v 1
h 2
v -1
h 4
v 2
h 1
v 2
h 1
l -1 2
v 2
h 1
l 1 -1
v 1
h 1
l 1 1
h 1
v 1
l 1 1
v 2
l 1 1
v 2
h -1
v 1
h 1
v 60
l -1 6
v 44
h -1
v 2
l 1 1
l -1 1
l 3 10
l -1 7
l -3 11
l -1 1
v 4
h -1
v 3
l -1 2
l -1 6
l -1 1
v 3
l -1 2
v 2
l -1 1
l -1 5
l -1 4
v 2
l -1 1
v 3
l -1 2
v 6
l -1 1
v 1
l -1 5
l -1 1
v 2
l -1 2
v 4
l -1 1
v 2
l -1 3
l -1 2
v 3
l -1 1
v 3
l -1 1
v 2
l -1 2
v 1
l -1 4
l 1 5
l 1 1
h 1
v 16
l -1 4
v 22
l -1 5
v 22
l -1 5
v 24
l -1 1
v 17
l -1 2
l 1 2
l 3 6
l 1 1
l 4 7
v 1
h -2
l -1 1
l -1 1
h -1
v 1
h -1
l -2 1
v 1
h -1
l -1 1
h -2
v 1
h -1
v 1
h -2
l -1 1
v 1
h -1
v 1
h -1
l -2 1
l -1 1
h -1
l -1 1
l -1 1
l -1 1
h -2
l -2 2
v 1
h 1
v 1
l 1 1
l 2 3
l 1 1
v 1
l 1 1
l 1 2
l 1 1
l 1 1
v 7
l -3 5
h -5
l -8 10
l -3 5
l 2 7
h -4
l -1 -1
l -9 3
h -2
v 1
h -1
v 1
l -3 9
v 2
l -3 1
l -1 1
l -1 -8
l 5 -8
l 1 -1
l 4 -11
l 1 -5
l 3 -14
v -1
l 2 -7
l -1 -23
l -11 -9
l 3 -8
l -5 -4
h -1
l 4 7
l -3 5
l 3 10
l 6 6
l -2 14
l 3 10
l -22 -13
l -8 -4
l -1 -1
h -1
l -6 -3
l -2 -2
l -2 -1
l -10 -5
l -13 -8
l -4 -3
l -28 -16
l 1 -1
v -1
h -1
v -1
l -2 -1
l -2 -2
v -1
h -1
v -1
l 1 -1
l -1 -3
l -1 1
h -6
v -2
h -3
v 1
h -2
l -1 -1
h -6
v -3
h -1
v -3
h -3
l -1 -1
h -1
l -2 1
h -2
l -1 -5
h -2
v -3
l -2 -3
l -2 -3
l -4 -6
v -1
h 1
v -1
h 1
v -9
h -1
l 1 -2
v -2
l -2 -2
h 1
l 1 -1
v -5
l -1 -2
v -1
h -1
v -1
h -4
v -3
l 3 -3
l -5 -2
l -3 -5
l -9 -1
h -1
l -2 -1
l -1 1
l -2 -4
l -1 -1
l 1 -4
l -1 -3
l -1 -1
v -1
h -2
l -5 -4
v -1
l -3 -3
h -118
l -14 -1
h -59
l -18 -1
h -2
l -43 -1
h -31
l -54 -2
h -39
l -10 -1
h -17
l -36 -2
h -10
l -19 -1
l -31 -1
l -13 -1
h -10
v -24
l 1 -13
v -8
l 2 -38
l 100 -46
l 3 -8
l 1 -4
v -1
l -3 -8
h -4
l -1 -2
l -4 -3
l -1 -5
l 2 -5
v -3
l -8 -2
v -1
l 1 -1
l 1 -3
l -1 -1
l 2 -2
l 1 -1
v -11
l -1 -1
l 1 -2
v -5
l -2 -2
l -14 -30
l 60 -27
l 220 5
l 42 -75
Z
M787 726
l -7 2
l -11 3
l 9 -5
l 2 1
l 7 -3
l 8 -5
l 5 2
Z
M768 729
l -7 2
h -15
l 11 -2
Z
M707 721
l 3 8
l -6 8
l -11 7
l -7 2
v -8
l 5 -1
l 1 -13
l 2 -2
Z"/>
<g class="districts">
<path data-race-id="NY01" d="M834 705
l -3 -13
l -8 1
v -4
l -13 6
l -5 -1
l 4 -15
l 10 -5
l -1 -6
l 7 -1
h 28
l 12 -1
l 8 -3
h 7
l 18 -11
l 5 -7
l 7 -2
l 4 -7
l 15 -4
l -3 5
l -8 -1
l -2 4
l -8 7
l 3 7
l -8 1
l 1 5
l -10 3
l -2 4
l -9 6
h 10
l 6 3
l 5 -3
l 10 -14
l 14 -3
l 3 -5
l 5 6
l 1 -8
l 9 10
l 3 -4
l 5 2
l 4 -8
h 4
l 2 -5
l 5 -2
l 6 2
l -5 5
l -39 19
l -10 7
l -15 7
l -1 -3
l -8 -1
v 6
l -4 -3
l -6 9
l -19 2
l -7 3
l -4 7
l -5 -3
l -8 4
l -8 -1
l -2 3
Z
M965 609
l -9 7
l -4 -1
l 4 -3
Z
M919 644
l 5 1
l -1 7
l -11 -2
l 5 -9
Z"/>
<path data-race-id="NY02" d="M772 705
h 13
l -1 -2
l 17 -6
l 4 -3
l 5 1
l 13 -6
v 4
l 8 -1
l 3 13
h -3
l -1 1
h -2
l -1 1
h -1
l -3 -1
l -3 5
l -11 -3
l -13 8
l -9 2
h -1
l -6 1
v 1
h -1
l -1 -7
h -4
Z
M780 728
v -1
l 7 -3
l 8 -5
l 5 2
l -13 5
Z"/>
<path data-race-id="NY03" d="M801 675
h 1
l 1 1
h 3
l 2 1
l 1 1
v 1
l -4 15
l -4 3
l -17 6
l 1 2
h -13
l -1 -4
l -18 3
l -3 4
l -3 -1
l -3 -7
h -6
v -3
l 9 3
l -3 -5
l 2 -5
l 4 2
l -2 -6
h 6
l 5 9
l -1 -11
l 2 -4
l 7 -3
l 4 6
l 6 -3
l 4 6
l -2 -7
l -1 -2
v -1
h -1
v -2
l 1 -2
l 4 1
h 1
l 1 1
v 1
h 1
v 6
l 10 -5
l -7 -2
l 1 -4
l 5 5
Z"/>
<path data-race-id="NY04" d="M749 729
l -1 -2
v -4
l 2 -3
l 5 -7
l -6 -4
l 1 -1
l 3 -4
l 18 -3
l 1 4
l 2 8
h 4
l 1 7
l -8 1
v 4
l -5 -1
l -11 5
Z
M768 729
l -7 2
h -15
l 11 -2
Z"/>
<path data-race-id="NY05" d="M738 721
l -2 -6
l -1 -2
l 7 -2
l 3 -3
l 2 -1
l 3 1
l -1 1
l 6 4
l -5 7
l -2 3
v 4
l 1 2
l -13 3
l -12 6
l 2 -3
l 14 -5
l 4 -4
l 1 -1
l 3 -3
l -3 2
l -7 -3
Z"/>
<path data-race-id="NY06" d="M727 708
l 9 -2
l 2 -6
h 6
l 3 7
l -2 1
l -3 3
l -7 2
h -3
l -1 1
l -2 -1
l -2 -3
Z"/>
<path data-race-id="NY07" d="M717 718
l -1 -3
v -1
h 1
h -1
h 1
v -2
h 3
l 1 -1
v -1
l 4 1
v -1
h 2
l 2 3
l 2 1
l 1 -1
h 3
l 1 2
l -1 1
h -3
l -11 -3
l -2 3
v 5
Z"/>
<path data-race-id="NY08" d="M725 731
l -1 -7
l 4 -6
l -9 -2
l 2 -3
l 11 3
h 3
l 1 -1
l 2 6
h -4
l -5 4
l 3 7
h -6
Z"/>
<path data-race-id="NY09" d="M719 716
l 9 2
l -4 6
l 1 7
l -3 1
v -5
l -1 -3
l -2 -3
Z"/>
<path data-race-id="NY10" d="M721 695
l 1 4
l -5 5
v 8
h -1
l -1 -8
l 5 -8
Z
M716 715
l 1 3
l 2 3
l 2 3
l 1 3
l -4 2
l -6 -7
h 1
l 3 -7
Z"/>
<path data-race-id="NY11" d="M712 722
l 6 7
l 4 -2
v 5
h -4
l -6 -4
v -5
Z
M707 721
l 3 8
l -6 8
l -11 7
l -7 2
v -8
l 5 -1
l 1 -13
l 2 -2
Z"/>
<path data-race-id="NY12" d="M722 699
h 1
l -3 9
l -3 1
v -5
Z
M727 698
l -2 2
l 2 8
v 2
h -2
v 1
l -4 -1
v -4
l 1 -1
v -1
l 1 -2
l 1 -1
h -1
v -1
h 2
l 2 -2
Z"/>
<path data-race-id="NY13" d="M725 684
h 6
l -1 2
l -6 3
v 9
h -1
v 1
h -1
l -1 -4
Z"/>
<path data-race-id="NY14" d="M725 700
l 2 -2
l 2 3
l 9 -4
v 3
l -2 6
l -9 2
Z
M735 694
v -2
l -5 -6
l 1 -2
l 7 3
l -1 -5
l 4 1
l -3 5
l 2 7
h -4
Z"/>
<path data-race-id="NY15" d="M724 689
l 6 -3
l 5 6
v 2
l -9 3
l -2 -1
Z"/>
<path data-race-id="NY16" d="M729 664
l 7 -1
l 5 -2
l 9 10
l 2 -6
l 5 1
v 2
l -3 5
h -5
l -8 10
l -4 -1
l 1 5
l -7 -3
h -6
l 1 -5
l 3 -14
Z"/>
<path data-race-id="NY17" d="M686 642
l 12 -10
l 18 -19
h 1
l 24 -4
l 2 18
l -1 2
h 5
l 5 11
h -1
l 1 6
h -2
l -2 2
v 1
h 1
v 1
l 1 1
l 2 3
l 1 1
v 1
l 1 1
l 1 2
l 1 1
l 1 1
v 5
l -5 -1
l -2 6
l -9 -10
l -5 2
l -7 1
l 2 -7
l -1 -23
l -11 -9
l 3 -8
l -5 -4
h -1
l 4 7
l -3 5
l 3 10
l 6 6
l -2 14
l 3 10
l -22 -13
l -8 -4
l -1 -1
h -1
l -6 -3
l -2 -2
Z"/>
<path data-race-id="NY18" d="M657 585
l 2 -5
l 3 -3
l 2 -3
h 1
l 4 -3
l 2 -1
l 13 -6
v 5
l 14 2
l 1 -5
l 11 5
l 9 -1
l 1 -23
h 1
l 12 2
v 11
l 3 1
l 6 2
l 11 18
l 17 -2
v 14
l -1 1
v 17
l -1 2
l 1 2
l 3 6
l 1 1
l 4 7
v 1
h -2
l -1 1
l -1 1
h -1
v 1
h -1
l -2 1
v 1
h -1
l -1 1
h -2
v 1
h -1
v 1
h -2
l -1 1
v 1
h -1
v 1
h -1
l -2 1
l -1 1
h -1
l -1 1
l -1 1
l -1 1
l -1 -6
h 1
l -5 -11
h -5
l 1 -2
l -2 -18
l -24 4
h -1
l -18 19
l -12 10
l -1 -1
l -10 -5
l -17 -11
l -28 -16
l 1 -1
v -1
h -1
v -1
l -2 -1
l -2 -2
v -1
h -1
v -1
l 1 -1
l -1 -3
l -1 1
h -1
l 1 -11
h 10
Z"/>
<path data-race-id="NY19" d="M529 480
h 3
l 1 -4
l 2 -1
h 8
v -19
l 4 -14
l -2 -10
l 2 -12
l 5 -4
l 1 -16
l 4 -13
v -1
l 5 -5
v -5
l 1 -1
v -5
h -1
l 1 -1
v -1
h -1
v -2
l 5 -1
v 3
h 8
l 5 -8
l 23 13
l 3 -11
l 13 5
l 2 -10
l 1 -16
l -3 -3
l 26 9
h 6
l 2 14
l 6 -5
l 2 25
l 14 -2
l 3 -2
l 2 6
l -6 1
l 4 6
h 10
v -3
l 1 13
l -7 13
l 2 7
l -5 17
l 2 2
l 16 -2
l 39 -8
l 1 -8
l 2 -1
v 1
l 3 -1
l 6 -1
h 2
l 6 1
l -7 -10
l 3 -2
l 4 -18
l -6 1
l -2 -15
l -2 -19
l 2 -3
l 4 -2
l 42 -2
v 18
h -1
v 2
l 1 1
l -1 1
l 3 10
l -1 7
l -3 11
l -1 1
v 4
h -1
v 3
l -1 2
l -1 6
l -1 1
v 3
l -1 2
v 2
l -1 1
l -1 5
l -1 4
v 2
l -1 1
v 3
l -1 2
v 6
l -1 1
v 1
l -1 5
l -1 1
v 2
l -1 2
v 4
l -1 1
v 2
l -1 3
l -1 2
v 3
l -1 1
v 3
l -1 1
v 2
l -1 2
v 1
l -1 4
l 1 5
l 1 1
h 1
v 16
l -1 4
v 22
l -1 5
v 22
l -1 5
v 10
l -17 2
l -11 -18
l -6 -2
l -3 -1
v -11
l -12 -2
h -1
l -1 23
l -9 1
l -11 -5
l -1 5
l -14 -2
v -5
l -13 6
l -2 1
l -4 3
h -1
l -2 3
l -3 3
l -2 5
l -23 2
h -10
l -1 11
h -5
v -2
h -3
v 1
h -2
l -1 -1
h -6
v -3
h -1
v -3
h -3
l -1 -1
h -1
l -2 1
h -2
l -1 -5
h -2
v -3
l -2 -3
l -2 -3
l -4 -6
v -1
h 1
v -1
h 1
v -9
h -1
l 1 -2
v -2
l -2 -2
h 1
l 1 -1
v -5
l -1 -2
v -1
h -1
v -1
h -4
v -3
l 4 -4
l -6 -2
l -3 -4
h -1
l -3 -3
l -5 2
h -1
l -2 -1
l -1 1
l -2 -4
l -1 -1
l 1 -4
l -1 -3
l -1 -1
v -1
h -2
l -5 -4
v -1
l -3 -3
h -22
v -22
Z"/>
<path data-race-id="NY20" d="M651 347
l 46 -1
v 1
l 21 -3
l 9 -1
l -1 -14
l 12 -1
l 5 -2
v 6
l -5 9
l 1 5
l 8 2
l -1 5
l 2 1
l -2 3
l 2 19
l 2 15
l 6 -1
l -4 18
l -3 2
l 7 10
l -6 -1
h -2
l -6 1
l -3 1
v -1
l -2 1
l -1 8
l -39 8
l -16 2
l -2 -2
l 5 -17
l -2 -7
l 7 -13
l -1 -13
v 3
h -10
l -4 -6
l 6 -1
l -2 -6
l -3 2
l -14 2
l -2 -25
l -6 5
Z"/>
<path data-race-id="NY21" d="M428 167
l 5 -3
l 2 -4
l 3 -7
l 5 -1
h 3
l 9 -5
v -7
l 4 -3
h 4
l 6 -5
l 5 -3
h 6
l 1 -1
l 4 -2
l 5 -5
l 6 -11
l 4 -6
l 6 -6
l 1 -1
l 6 -7
l 8 -8
l 9 -10
l 16 -12
h 1
l 2 -5
l 1 1
l 3 -5
l 3 -2
l 3 -2
l 2 -1
l 4 -2
l 2 -1
l 1 -1
l 1 -1
h 3
l 1 -3
l 2 -1
h 1
l 1 -1
h 4
v -1
l 6 -5
h 1
v -3
h 11
l 3 -3
h 2
l 2 -2
h 4
l 1 1
h 4
v 2
h 4
l 3 -2
l 2 1
h 35
l 7 1
h 7
l 1 -1
h 18
l 3 -1
h 8
l 4 -1
h 16
l 10 -1
h 6
l 13 -1
h 5
l 6 -1
h 13
v 2
l -1 1
v 2
l 1 1
l 1 1
v 9
h -1
v 1
l -1 1
l -1 6
h -1
v 4
h 1
v 1
l 1 1
h 1
l 1 1
v 1
l 1 1
l 1 2
l -1 1
v 2
h -1
v 2
l -1 1
v 1
l -1 1
v 7
h 1
v 1
h -1
v 5
h -1
v 2
h -1
v 1
h 1
l -1 1
v 3
l 1 1
v 4
l 1 2
l 1 1
v 1
l 1 1
h 2
v 2
h 1
v 2
h 1
v 4
h 1
v 1
l 1 1
v 6
h 1
v 3
l -1 4
l -1 2
v 1
l -1 3
v 11
l 2 5
v 1
l -1 3
v 1
h -1
v 1
h -1
v 1
l -1 1
v 1
l -1 1
v 1
h -1
v 1
h -1
v 1
l -1 1
v 2
h -1
v 3
l -1 1
h 1
l -1 1
v 1
h -1
v 2
l 1 1
v 2
h -1
v 3
h -1
v 2
l -1 2
v 4
h 1
l 1 1
l 1 1
l 1 1
v 2
l -1 2
v 4
h 1
v 8
h 1
v 2
l 3 6
v 3
l 1 1
l -1 1
h -1
v 2
h -1
v 1
l 1 1
l 1 1
v 1
l 1 1
v 1
h 1
l 1 1
v 3
l -1 2
v 1
h -1
v 4
l -3 6
l -1 2
v 1
l -2 4
v 1
l 1 2
l -1 2
l 1 1
v 4
l 2 1
h 1
l 2 -3
h -1
l 1 -1
v -1
l 1 -1
h -1
l 1 -2
h 1
v -1
v 1
h 2
v -1
h 4
v 2
h 1
v 2
h 1
l -1 2
v 2
h 1
l 1 -1
v 1
h 1
l 1 1
h 1
v 1
l 1 1
v 2
l 1 1
v 2
h -1
v 1
h 1
v 59
l -1 7
v 26
l -42 2
l -4 2
l -2 -1
l 1 -5
l -8 -2
l -1 -5
l 5 -9
v -6
l -5 2
l -12 1
l 1 14
l -9 1
l -21 3
v -1
l -46 1
h -6
l -26 -9
v -2
l -7 -2
l -5 -1
l -2 -27
l -16 -6
l 1 9
h -8
h 2
h -2
l -6 -3
l -4 -3
l 1 -7
l 9 -3
l -3 -24
l -2 -22
l -12 8
l -15 8
l -21 15
h -3
l -24 -8
v -17
l -2 -18
l -29 -3
v 7
l -26 -3
l -46 -4
l -10 -1
l 11 -20
l 5 -6
l 15 -27
l 3 -8
Z"/>
<path data-race-id="NY22" d="M444 490
h 8
l 4 6
l 4 -2
v -16
l 3 -1
l -5 -37
l -15 1
v -25
l -1 -10
l -1 -24
h 12
l 33 -3
l -1 -27
l -2 -20
l -1 -1
l -2 1
l -1 -1
l -1 1
l -1 -1
l 2 -3
l -5 -11
h -1
l -5 -3
l -3 -2
h -1
l 2 -1
h -1
l -16 -8
l -1 -6
l 4 -15
l -9 -3
l -12 -12
l 1 -5
l 15 -2
l 4 -15
h -6
v -9
l 26 3
v -7
l 29 3
l 2 18
v 17
l 24 8
h 3
l 21 -15
l 15 -8
l 12 -8
l 2 22
l 3 24
l -9 3
l -1 7
l 4 3
l 6 3
h 2
h -2
h 8
l -1 -9
l 16 6
l 2 27
l 5 1
l 7 2
v 2
l 3 3
l -1 16
l -2 10
l -13 -5
l -3 11
l -23 -13
l -5 8
h -8
v -3
l -5 1
v 2
h 1
v 1
l -1 1
h 1
v 5
l -1 1
v 5
l -5 5
v 1
l -4 13
l -1 16
l -5 4
l -2 12
l 2 10
l -4 14
v 19
h -8
l -2 1
l -1 4
h -3
l -2 5
v 22
h -96
l -14 -1
l 1 -5
l 14 1
v -5
l 8 -1
Z"/>
<path data-race-id="NY23" d="M83 388
l 20 20
l 8 5
l 9 1
l 7 15
l 16 -2
l 7 -4
l 10 -1
l 5 -3
h 6
l 9 -3
h 2
v 3
h 50
l 24 2
v 6
l 14 1
v -10
h 7
l 1 -7
l 19 1
h 4
l 10 -10
v -1
l 1 -1
l 3 -11
l 3 -6
l 9 -15
v -29
l 13 -1
v 5
h 20
l 30 -2
l -3 9
v 12
l 2 3
l -2 16
l 1 12
l 4 3
l 2 10
l 25 -1
v 2
l 23 -1
l 1 10
v 25
l 15 -1
l 5 37
l -3 1
v 16
l -4 2
l -4 -6
h -8
l -4 6
l -8 1
v 5
l -14 -1
l -1 5
h -38
l -21 -1
h -47
l -16 -1
h -58
l -27 -2
h -39
l -10 -1
l -53 -2
h -10
l -19 -1
l -31 -1
l -13 -1
h -10
v -24
l 1 -13
v -8
l 2 -38
Z"/>
<path data-race-id="NY24" d="M387 235
l 2 -4
l 10 1
l 46 4
v 9
h 6
l -4 15
l -15 2
l -1 5
l 12 12
l 9 3
l -4 15
l 1 6
l 16 8
h 1
l -2 1
h 1
l 3 2
l 5 3
h 1
l 5 11
l -2 3
l 1 1
l 1 -1
l 1 1
l 2 -1
l 1 1
l 2 20
l 1 27
l -33 3
h -12
l 1 24
l -23 1
v -2
l -25 1
l -2 -10
l -4 -3
l -1 -12
l 2 -16
l -2 -3
v -12
l 3 -9
l -30 2
h -20
v -5
l -13 1
l -14 -1
v -95
h 30
l 13 1
h 28
Z"/>
<path data-race-id="NY25" d="M240 307
l 4 -4
l -4 -2
v -4
l 19 1
l 3 -11
l -21 -3
v -22
l 1 -21
l 71 2
v 95
h -26
v 3
h -16
l 1 -3
l -22 -1
l -5 -1
l 5 -14
l -11 -1
Z"/>
<path data-race-id="NY26" d="M113 325
l 1 -1
l 1 -3
l -1 -1
l 2 -2
v -1
l 6 3
v 4
h 5
l 1 4
l 5 3
v -3
l 8 3
l 11 -2
l 2 -3
v 9
l 3 3
v 25
l -1 7
h -20
l 1 -4
l -5 -11
v -1
l -3 -8
h -4
l -1 -2
l -4 -3
l -1 -5
l 2 -5
v -3
l -8 -2
Z"/>
<path data-race-id="NY27" d="M132 355
l 5 11
l -1 4
h 20
l 1 -7
v -25
l -3 -3
v -9
l -2 3
l -11 2
l -8 -3
v 3
l -5 -3
l -1 -4
h -5
v -4
l -6 -3
h 1
v -11
l -1 -1
l 1 -2
v -5
l -2 -2
l -14 -30
l 60 -27
l 81 2
l -1 21
v 22
l 21 3
l -3 11
l -19 -1
v 4
l 4 2
l -4 4
l -1 14
l 11 1
l -5 14
l 5 1
l 22 1
l -1 3
h 16
v -3
h 26
l 14 1
v 29
l -9 15
l -3 6
l -3 11
l -1 1
v 1
l -10 10
h -4
l -19 -1
l -1 7
h -7
v 10
l -14 -1
v -6
l -24 -2
h -50
v -3
h -2
l -9 3
h -6
l -5 3
l -10 1
l -7 4
l -16 2
l -7 -15
l -9 -1
l -8 -5
l -20 -20
l 45 -21
l 3 -8
Z"/>
</g>
  <path class="districts-mesh" d="M738 721
l -2 -6
l -1 1
h -3
l -11 -3
l -2 3
v 5
l -2 -3
l -1 -3
M722 699
h 1
M779 720
l -1 -7
h -4
l -2 -8
h 13
l -1 -2
l 17 -6
l 4 -3
l 4 -15
M749 729
l -1 -2
v -4
l 2 -3
l 5 -7
l -6 -4
l 1 -1
l -3 -1
l -3 -7
h -6
v -3
M725 731
l -1 -7
l 4 -6
l -9 -2
M527 507
v -22
l 2 -5
h 3
l 1 -4
l 2 -1
h 8
v -19
l 4 -14
l -2 -10
l 2 -12
l 5 -4
l 1 -16
l 4 -13
v -1
l 5 -5
v -5
l 1 -1
v -5
h -1
l 1 -1
v -1
h -1
v -2
l 5 -1
v 3
h 8
l 5 -8
l 23 13
l 3 -11
l 13 5
l 2 -10
l 1 -16
l -3 -3
l 26 9
h 6
l 2 14
l 6 -5
l 2 25
l 14 -2
l 3 -2
l 2 6
l -6 1
l 4 6
h 10
v -3
l 1 13
l -7 13
l 2 7
l -5 17
l 2 2
l 16 -2
l 39 -8
l 1 -8
l 2 -1
v 1
l 3 -1
l 6 -1
h 2
l 6 1
l -7 -10
l 3 -2
l 4 -18
l -6 1
l -2 -15
l -2 -19
l 2 -3
l 4 -2
l 42 -2
M722 732
v -5
l -1 -3
l -2 -3
M651 347
l 46 -1
v 1
l 21 -3
l 9 -1
l -1 -14
l 12 -1
l 5 -2
v 6
l -5 9
l 1 5
l 8 2
l -1 5
l 2 1
M721 695
l 1 4
l -5 5
v 5
M722 727
l -4 2
l -6 -7
M725 684
h 6
l -1 2
l -6 3
v 7
M735 694
v -2
l -5 -6
M619 338
v -2
l -7 -2
l -5 -1
l -2 -27
l -16 -6
l 1 9
h -8
h 2
h -2
l -6 -3
l -4 -3
l 1 -7
l 9 -3
l -3 -24
l -2 -22
l -12 8
l -15 8
l -21 15
h -3
l -24 -8
v -17
l -2 -18
l -29 -3
v 7
l -26 -3
l -46 -4
l -10 -1
M731 684
l 7 3
l -1 -5
l 4 1
M729 664
l 7 -1
l 5 -2
l 9 10
l 2 -6
l 5 1
M736 715
l -1 -2
l 7 -2
l 3 -3
l 2 -1
M727 698
l -2 2
l 2 8
l 9 -2
l 2 -6
M686 642
l 12 -10
l 18 -19
h 1
l 24 -4
l 2 18
l -1 2
h 5
l 5 11
h -1
l 1 6
M735 713
h -3
l -1 1
l -2 -1
l -2 -3
v -2
M623 598
l 1 -11
h 10
l 23 -2
l 2 -5
l 3 -3
l 2 -3
h 1
l 4 -3
l 2 -1
l 13 -6
v 5
l 14 2
l 1 -5
l 11 5
l 9 -1
l 1 -23
h 1
l 12 2
v 11
l 3 1
l 6 2
l 11 18
l 17 -2
M772 705
l -1 -4
l -18 3
l -3 4
M417 506
l 1 -5
l 14 1
v -5
l 8 -1
l 4 -6
h 8
l 4 6
l 4 -2
v -16
l 3 -1
l -5 -37
l -15 1
v -25
l -1 -10
l -1 -24
h 12
l 33 -3
l -1 -27
l -2 -20
l -1 -1
l -2 1
l -1 -1
l -1 1
l -1 -1
l 2 -3
l -5 -11
h -1
l -5 -3
l -3 -2
h -1
l 2 -1
h -1
l -16 -8
l -1 -6
l 4 -15
l -9 -3
l -12 -12
l 1 -5
l 15 -2
l 4 -15
h -6
v -9
M721 710
l 4 1
v -1
h 2
M834 705
l -3 -13
l -8 1
v -4
l -13 6
l -5 -1
M83 388
l 20 20
l 8 5
l 9 1
l 7 15
l 16 -2
l 7 -4
l 10 -1
l 5 -3
h 6
l 9 -3
h 2
v 3
h 50
l 24 2
v 6
l 14 1
v -10
h 7
l 1 -7
l 19 1
h 4
l 10 -10
v -1
l 1 -1
l 3 -11
l 3 -6
l 9 -15
v -29
l 13 -1
v 5
h 20
l 30 -2
l -3 9
v 12
l 2 3
l -2 16
l 1 12
l 4 3
l 2 10
l 25 -1
v 2
l 23 -1
M327 339
l -14 -1
v -95
M313 338
h -26
v 3
h -16
l 1 -3
l -22 -1
l -5 -1
l 5 -14
l -11 -1
l 1 -14
l 4 -4
l -4 -2
v -4
l 19 1
l 3 -11
l -21 -3
v -22
l 1 -21
M116 317
l 6 3
v 4
h 5
l 1 4
l 5 3
v -3
l 8 3
l 11 -2
l 2 -3
v 9
l 3 3
v 25
l -1 7
h -20
l 1 -4
l -5 -11"/>
</svg>