<svg version="1.1" xmlns="http://www.w3.org/2000/svg" width="838" height="1000" viewBox="0 0 838 1000">
  <path d="M808 114
v 5
l 1 6
v 28
l 1 19
l 1 15
v 57
l 1 7
v 26
l 1 7
v 28
l 1 29
l 1 10
v 47
l 1 21
v 12
l -9 6
l -10 -1
l -8 10
l 8 11
l 1 3
v 1
l 1 4
l 4 6
v 3
l -1 2
v 1
l -1 1
v 1
l -1 2
v 7
l -2 2
l 4 5
l 1 16
l -1 2
l -1 8
l -8 8
l -2 10
l -2 2
l -4 7
v 13
l -5 5
l -1 1
v 2
l 1 9
l -1 7
v 8
l -3 2
l 1 12
l -9 -1
l 3 9
l -2 5
l -1 1
h -1
l -1 1
l -1 1
l -1 1
v 11
l -8 8
l 4 6
l 4 5
l -2 5
h -1
l -3 2
l -1 13
l -2 4
l -2 1
h -6
l -2 1
h -1
v 2
h -1
l -10 9
l -7 7
l -10 11
v 1
l -5 8
l -2 4
l -10 3
l -6 11
h -1
l -5 -1
l -11 6
l -6 5
l -7 1
l -3 -3
l -2 -8
l -5 -5
h -5
l -8 10
l -6 3
l -3 2
v 1
l -2 8
v 9
l -10 -1
l -13 2
l -2 12
l -4 1
l -2 2
l -2 4
l -3 2
l 1 2
l 2 6
v 12
l -4 5
l -8 -1
v 6
l 9 12
l -4 11
l 5 6
l -2 4
l -8 -6
l -4 1
l -3 8
v 2
l -1 2
l -1 1
l -7 3
l -3 -2
l -4 -2
l 4 -4
v -2
l 2 -2
l -6 -15
l -8 -1
h -1
v -1
l -1 -3
v -2
l -2 -2
l -1 -1
h -3
l -4 1
v 3
l -2 3
v 2
h -1
l -2 2
l -1 1
l -5 4
l -2 4
l -4 10
l -2 4
l 1 6
l -1 7
l -15 11
l 6 13
l 1 3
v 16
l 3 12
l -7 4
h -2
l -10 -1
l -3 4
l -3 22
l -2 8
l -4 4
h -14
l -5 2
l -3 1
l -6 2
l -1 1
l -5 2
l -4 1
h -4
l -6 -3
l -4 -14
l -3 -3
h -3
l -1 -1
l -1 -1
h -1
v -1
h -1
v -2
l -1 -1
l -1 -1
l -2 -4
l -3 -4
l -3 -2
h -1
l -1 -1
h -3
l -4 -1
l -2 1
h -2
v -1
h -4
v -1
h -1
l -1 -1
h -1
l -1 -1
v -1
h -1
l -1 -1
l -1 -1
l -1 -1
v -3
l -1 -3
v -7
l -4 -9
l 1 -10
l -3 -6
l -10 2
l -7 4
h -10
l -4 6
v 1
l -2 2
h -1
l -3 2
l -4 1
l -7 12
l -11 2
l -7 -3
l -5 2
v 1
l -4 5
l -5 -1
l -4 -11
l -8 -4
l -12 -1
l -11 -8
l -8 -1
l -6 4
h -5
l -7 4
l -2 7
l -1 2
l -12 -3
l -11 -4
l -3 -11
l -7 -2
l -7 -12
l -12 -3
l -3 -3
h -10
l -1 1
l -2 1
h -3
v 1
h -8
l -1 -1
h -3
l -3 -2
h -1
l -1 -1
l -2 -1
h -1
l -1 -1
h -5
l -4 -1
l -2 -1
h -1
l -1 -1
l -2 -3
v -1
l -1 -1
v -15
l -1 -1
l -1 -2
l -4 -8
l -1 -1
v -1
l -2 -1
l -1 -1
l -2 -11
l -4 -7
l -1 -1
l -1 -1
h -1
l -4 -1
l -1 -1
l -5 -1
h -2
l -2 -1
h -1
l -1 -1
h -1
v -1
l -3 -14
h -1
l -1 -1
l -4 1
l -5 4
h -1
l -1 1
h -2
l -1 -1
h -1
v -1
h -4
v 1
h -1
v 2
h -1
v 1
h -1
l -2 1
h -3
v 1
h -1
l -4 -1
h -1
l -2 -2
l -1 -2
h -1
l -1 -1
h -1
l -8 -7
l -1 -1
v -1
h -1
l -1 -1
l -1 -1
l -3 -1
h -1
l -3 2
l -3 4
v 1
h -1
l -1 1
l -4 1
h -1
v -12
l 1 -1
v -51
h 1
v -14
l 1 -10
v -9
l 1 -14
v -18
l 1 -16
v -34
l 1 -15
v -15
l 1 -3
l 1 -31
v -2
l 1 -3
v -36
l 1 -2
v -32
l 1 -1
v -13
l 1 -11
v -27
l 1 -3
v -62
l 1 -9
v -25
l 1 -16
v -24
l 1 -3
v -31
l 1 -6
v -74
l 22 -1
h 62
l 23 -1
h 32
l 10 -1
h 19
l 50 -2
h 26
l 7 -1
l 18 -17
l 37 -35
l 7 22
l 70 45
h 51
l 206 -130
l 129 -31
l 1 83
Z"/>
<g class="districts">
<path data-race-id="OH01" d="M21 788
l 1 -1
v -35
l 6 1
h 46
v 1
l 29 2
l 6 2
l 2 -24
l 1 -8
l 2 -30
l -6 1
v -12
l 22 1
l 25 3
l 25 3
l -2 33
l -3 27
l -1 15
l -28 -3
l -19 -1
v -1
l -8 -2
v 7
l 3 -1
v 1
l -6 6
v 5
h 7
l -3 5
l -2 5
l -8 6
l -4 -1
l -2 -8
l 4 -1
v -9
l -3 -2
l 3 -12
h -6
l -1 7
l -4 3
h -8
l 1 -8
l -10 -2
h -10
l -2 16
l 8 -2
l -2 4
h 17
l -3 16
l -7 4
v 4
l -1 1
h -1
l -1 1
h -2
l -1 -1
h -1
v -1
h -4
v 1
h -1
v 2
h -1
v 1
h -1
l -2 1
h -3
v 1
h -1
l -4 -1
h -1
l -2 -2
l -1 -2
h -1
l -1 -1
h -1
l -8 -7
l -1 -1
v -1
h -1
l -1 -1
l -1 -1
l -3 -1
h -1
l -3 2
l -3 4
v 1
h -1
l -1 1
l -4 1
h -1
v -10
Z"/>
<path data-race-id="OH02" d="M120 783
l 3 -5
h -7
v -5
l 6 -6
v -1
l -3 1
v -7
l 8 2
v 1
l 19 1
l 28 3
l 2 1
l 24 2
h 6
v 6
h 4
l 6 -11
l 12 -9
l 24 -17
h 21
l 19 1
l -3 13
l 15 1
l 4 5
l 9 1
l 1 -9
l 5 -2
l 7 2
l -3 3
l 13 2
l 2 -5
l 8 -5
l 16 -6
l 6 12
l 6 3
l -4 8
l 7 9
l 25 2
l -1 7
v 8
l -4 1
l -2 25
l -2 28
l -44 -2
l 5 18
l -16 -1
l 8 6
l -1 4
h -3
l 4 13
l 10 -1
l -2 -9
h 18
l -2 14
h 11
v 7
l -3 -1
l -10 1
l -5 5
h -12
l -4 6
v 1
l -2 2
h -1
l -3 2
l -7 5
l -6 9
l -10 1
l -4 -3
l -7 2
v 1
l -7 5
l -4 -9
l -7 -6
l -20 -4
l -9 -7
l -16 4
l -7 3
l -2 8
l -6 2
l -5 -3
h -2
l -9 -2
l -3 -12
l -12 -5
l -2 -9
l -14 -4
l -4 -4
l -7 1
h -2
l -1 1
l -2 1
h -3
v 1
h -8
l -1 -1
h -3
l -3 -2
h -1
l -1 -1
l -2 -1
h -1
l -1 -1
h -5
l -4 -1
l -2 -1
h -1
l -1 -1
l -2 -3
v -1
l -1 -1
v -15
l -1 -1
l -1 -2
l -4 -8
l -1 -1
v -1
l -2 -1
l -1 -1
l -2 -11
l -4 -7
l -1 -1
l -1 -1
h -1
l -4 -1
l -1 -1
l -5 -1
h -2
l -2 -1
h -1
l -1 -1
h -1
v -1
l -3 -14
h -1
l -1 -1
l -4 1
l -4 3
v -4
l 7 -4
l 3 -16
h -17
l 2 -4
l -8 2
l 2 -16
h 10
l 10 2
l -1 8
h 8
l 4 -3
l 1 -7
h 6
l -3 12
l 3 2
v 9
l -4 1
l 2 8
l 4 1
l 8 -6
Z"/>
<path data-race-id="OH03" d="M332 595
l -1 -3
v -4
l 11 1
l 1 -3
l 5 4
l -1 4
h 3
v -1
l 4 6
l 7 -1
l 1 -4
l -9 -3
l 2 -7
l 7 3
v -30
h 5
v 7
l 9 -2
l 4 4
v 1
l 13 2
l -1 4
l -1 2
l 5 2
l -11 5
l -3 -4
l 2 8
h 17
l 2 -9
l 2 1
l -3 27
l -5 -1
v 7
h 3
l -1 13
l -18 2
l -3 -3
l -4 4
l -2 1
l 4 3
l -10 4
l -10 1
l 2 -4
h 2
l -2 -12
l 4 -4
l 4 13
l 4 -1
l 1 -4
l 2 -3
l -9 -12
v -7
l -4 -1
v 9
l 2 4
l -4 -1
l -4 1
l 1 -5
l -5 -1
l -3 8
h -13
l -1 -10
l -2 -5
v -5
h -1
Z"/>
<path data-race-id="OH04" d="M73 462
l 2 -4
h -1
l 5 -4
v 1
v -1
v 1
v -1
l 2 1
l 3 -4
l 13 -1
v -29
l 11 1
v -32
l 11 1
v -11
h 42
v -10
h 21
v -4
l 20 1
v 91
l 4 3
l 51 4
l 10 3
h 19
v -44
h 21
v -4
h 35
v -70
h -55
v -63
l 1 -1
v -58
h 14
l 1 10
h 69
v 7
h 19
v 16
l 16 1
h 75
v 1
h 14
v -15
h 18
l 11 -2
v -3
l -5 -10
l 12 -2
v 47
l 5 2
l 7 -4
l -4 10
l -8 -4
h -18
v 18
h -32
v -3
h -74
l -15 -1
v 48
l 1 6
h 19
v 68
h -24
v 16
h -19
v 2
l -4 5
h -9
l -8 4
v 19
h -24
v 1
l 1 3
l -9 1
v 14
l -1 15
v 32
h 15
v 34
h -7
l -11 -1
h -43
l -1 -1
l -2 25
l -19 -1
l -22 -3
l -32 -2
l -23 -3
l 3 -34
l -36 -5
h -39
v -38
l -4 -1
l 1 -22
l -22 -1
l 1 -15
Z"/>
<path data-race-id="OH05" d="M38 181
v -4
l 22 -1
h 62
l 23 -1
h 32
l 10 -1
h 19
l 50 -2
h 2
l -1 10
h -5
v 8
l -12 -4
l -2 10
l 5 4
h 6
l 3 4
l 5 -1
l 3 -4
h 71
v 21
h 20
v 18
h -48
l -1 -10
h -14
v 58
l -1 1
v 63
h 55
v 70
h -35
v 4
h -21
v 44
h -19
l -10 -3
l -51 -4
l -4 -3
v -91
l -20 -1
v 4
h -21
v 10
h -42
v 11
l -11 -1
v 32
l -11 -1
v 29
l -13 1
l -3 4
l -2 -1
v 1
v -1
v 1
v -1
l -5 4
h 1
l -2 4
l -12 -2
l -3 7
h -5
v 6
h -21
v -5
l 1 -11
v -27
l 1 -3
v -62
l 1 -9
v -25
l 1 -16
v -24
l 1 -3
v -31
l 1 -6
v -59
Z"/>
<path data-race-id="OH06" d="M353 841
l 44 2
l 2 -28
l 2 -25
l 4 -1
v -8
h 18
l 3 4
l 22 2
v 9
l 21 2
l -2 24
l 21 2
l 3 -43
h 7
l 37 3
l 20 1
l 2 -22
l 25 1
v -6
l -6 -7
l 1 -29
l 3 -2
v -9
l 22 3
v -12
l -3 -1
l 1 -11
l 5 -3
l 18 1
l 1 -19
h -11
l 1 -21
l -11 -1
l 1 -21
v -20
h -7
l -8 -1
h -27
l -12 -1
l -2 -3
v -2
v 2
l 3 -9
v -6
h -28
l -13 -1
l 2 -36
l 10 1
h 27
l 1 1
h 35
l 14 1
h 8
l 1 -17
h 8
v -35
h 20
v -9
l 9 -3
v -5
h 15
l 6 1
v -13
l 4 1
l 10 1
v -22
h -10
v -20
h 14
l 1 -18
l 7 -1
h 20
v -32
l -1 -9
v -22
h 15
v -18
h 42
l 11 -1
v 18
l 35 -1
l 1 4
v 47
l 1 21
v 12
l -9 6
l -5 -3
l -7 2
l -6 10
l 8 11
l 1 3
v 1
l 1 4
l 4 6
v 3
l -1 2
v 1
l -1 1
v 1
l -1 2
v 7
l -2 2
l 3 4
l 2 17
l -1 2
l -2 9
l -8 7
l -3 12
l -4 7
l -1 14
l -4 4
l -1 1
v 2
l 1 9
l -1 7
v 8
l -4 4
l 1 11
l -8 -2
l -1 4
l 4 6
l -2 4
l -1 1
h -1
l -1 1
l -1 1
l -1 1
v 11
l -8 7
l 4 7
l 4 5
l -2 5
h -1
l -4 3
v 10
l -2 6
l -2 1
h -6
l -2 1
h -1
v 2
h -1
l -10 9
l -7 7
l -10 11
v 1
l -5 8
l -12 7
l -6 11
h -11
l -13 10
h -7
l -4 -10
l -7 -6
l -4 1
l -6 9
l -7 4
l -3 2
v 1
l -2 8
v 9
l -10 -1
h -11
l -4 4
v 10
l -4 1
l -2 2
l -2 4
l -2 2
h -1
l 1 2
l 2 4
v 14
l -4 5
l -8 -1
l -1 5
l 9 10
l -3 13
l 5 7
l -6 3
l -4 -5
l -4 1
l -3 8
v 2
l -1 2
l -1 1
l -7 3
l -3 -2
v -8
l 3 -4
l -8 -14
h -8
v -1
l -1 -3
v -2
l -2 -2
l -1 -1
h -3
l -4 1
v 3
l -2 3
v 2
h -1
l -2 2
l -1 1
l -5 4
l -2 4
l -4 10
l -2 4
v 9
l -3 7
l -6 2
l -6 5
l 1 7
l 5 7
l 1 3
l -1 9
l 4 13
l -3 9
l -4 1
h -2
l -10 -1
l -3 3
l -3 22
l -5 12
l -15 1
l -5 2
l -3 1
l -6 2
l -1 1
l -5 2
l -4 1
h -4
l -6 -3
l -2 -12
l -5 -5
h -3
l -1 -1
l -1 -1
h -1
v -1
h -1
v -2
l -1 -1
l -1 -1
l -2 -4
l -3 -4
l -3 -2
h -1
l -1 -1
h -3
l -4 -1
l -2 1
h -2
v -1
h -4
v -1
h -1
l -1 -1
h -1
l -1 -1
v -1
h -1
l -1 -1
l -1 -1
l -1 -1
v -3
l -1 -3
v -7
l -4 -9
l 1 -15
v -7
h -11
l 2 -14
h -18
l 2 9
l -10 1
l -4 -13
h 3
l 1 -4
l -8 -6
l 16 1
Z"/>
<path data-race-id="OH07" d="M393 296
l 15 1
h 74
v 3
h 32
v -18
h 18
l 8 4
l 4 -10
l -7 4
l -5 -2
v -45
h 17
v 30
h 17
v 19
l 7 -1
v 10
l 3 5
l 8 -2
v 5
l -18 1
l 1 11
h -5
l -2 4
l 1 6
h 15
l -2 -6
h 10
v 18
l -12 1
h -23
v 17
h -27
v 78
h 58
v -1
h 29
v -38
l 34 1
l 3 5
v 11
h 4
v -23
l 8 -3
v -11
h 3
l 1 -16
v -4
h 32
l -1 20
l 11 1
v 2
l 7 -2
l 1 9
v 32
h -20
l -7 1
l -1 18
h -14
v 20
h 10
v 22
l -10 -1
l -4 -1
v 13
l -6 -1
h -15
v 5
l -9 3
v 9
h -20
v 35
h -8
l -1 17
h -8
l -14 -1
h -35
l -1 -1
h -27
l -10 -1
v -14
l -2 -3
l -51 -2
v -4
l -51 -3
l 1 -17
l 19 1
l 1 -40
l -1 -10
h 49
l 7 -1
l -1 -20
h -20
l -1 -22
h -6
l 4 -12
h -5
l 2 -9
l -6 -6
l -5 6
l -3 8
l -2 -5
v 19
h -21
v 3
h -7
v -68
h -19
l -1 -6
v -27
Z"/>
<path data-race-id="OH08" d="M22 749
v -13
h 1
v -14
l 1 -10
v -9
l 1 -14
v -18
l 1 -16
v -34
l 1 -15
v -15
l 1 -3
l 1 -31
v -2
l 1 -3
v -36
l 1 -2
v -32
l 1 -1
v -8
h 21
v -6
h 5
l 3 -7
l 12 2
h 2
l -1 15
l 22 1
l -1 22
l 4 1
v 38
h 39
l 36 5
l -3 34
l 23 3
l 32 2
l 22 3
l 19 1
l 1 1
l -11 40
l -4 17
l -11 -1
l -33 -7
v -6
l -21 -2
v -3
l -21 -2
v -7
l -19 -2
l -1 -9
h -59
v 39
h -1
v 40
h 21
v 12
l 6 -1
l -2 30
l -1 8
l -2 24
l -6 -2
l -29 -2
v -1
h -46
l -6 -1
Z"/>
<path data-race-id="OH09" d="M258 172
h 30
l 56 -53
l 7 22
l 57 36
l 5 3
l 8 6
h 51
l 109 -68
l 2 110
l 3 7
h 7
l 7 3
l 1 7
v 9
l -7 2
l -11 -9
v 8
h -10
v 6
l -3 2
l -7 -4
l 3 -3
l -1 -7
l 5 -2
l 7 -11
l -1 -3
h -44
v -2
l -12 2
l 5 10
v 3
l -11 2
h -18
v 15
h -14
v -1
h -75
l -16 -1
v -16
h -19
v -7
h -21
v -18
h -20
v -21
h -71
l -3 4
l -5 1
l -3 -4
h -6
l -5 -4
l 2 -10
l 12 4
v -8
h 5
Z"/>
<path data-race-id="OH10" d="M88 606
h 59
l 1 9
l 19 2
v 7
l 21 2
v 3
l 21 2
v 6
l 33 7
l -1 13
l 14 1
l 21 3
l 39 2
l -3 43
l -10 -5
l -10 2
l -3 3
h -15
v -3
l -6 1
v -7
l -11 3
l -4 -1
l -16 -2
l -19 -1
l -10 -2
l -28 -2
l -25 -3
l -25 -3
l -22 -1
h -21
v -40
h 1
Z"/>
<path data-race-id="OH11" d="M597 107
h 2
l 21 -15
l 13 -8
l 2 82
v 33
l 1 11
v 8
h -3
l -2 9
l 14 -1
l 1 11
l -4 1
l 1 7
h -7
v 11
l 7 2
v 5
h -12
l -4 -8
h -8
l -10 -8
l -4 3
v 13
h 4
v 9
h -5
v 9
l 15 -1
v 32
l -1 1
l 6 2
l 2 3
l -7 1
l 4 5
l 16 1
l 2 5
l -7 -3
l -1 6
l 5 -2
l 5 10
l -8 -1
v -5
l -8 1
l 1 -3
h -5
l -4 4
v -11
l -3 -5
h -7
l 2 -6
h -10
v -34
h -3
l -1 -18
h 4
v -18
l -1 -7
l -7 -3
h -7
l -3 -7
l -2 -110
Z"/>
<path data-race-id="OH12" d="M317 483
v -14
l 9 -1
l -1 -3
v -1
h 24
v -19
l 8 -4
h 9
l 4 -5
v -2
h 19
v -16
h 31
v -3
h 21
v -19
l 2 5
l 3 -8
l 5 -6
l 6 6
l -2 9
h 5
l -4 12
h 6
l 1 22
h 20
l 1 20
l -7 1
h -49
l 1 10
l -1 40
l -19 -1
l -1 17
l 51 3
v 4
l 51 2
l 2 3
v 14
l -2 36
l 13 1
h 28
v 6
l -3 9
v -2
v 2
l 2 3
l 12 1
h 27
l 8 1
h 7
v 20
l -1 21
l -42 -2
h -28
l 1 -11
l -19 -1
l 2 -22
l -14 -1
l -28 -1
l -14 -3
l -15 1
l -44 -2
l 3 -27
l -2 -1
l -2 9
h -17
l -2 -8
l 3 4
l 11 -5
l -5 -2
l 1 -2
l 1 -4
l -13 -2
v -1
l -4 -4
l -9 2
v -7
h -5
v 30
l -7 -3
l -2 -15
h -7
l 2 -5
l -6 3
v 6
l -2 1
v -1
v 1
v -1
l -5 3
l -12 -2
l 1 -10
h 7
v -34
h -15
v -32
Z"/>
<path data-race-id="OH13" d="M612 344
l 7 -7
l 4 -4
h 5
l -1 3
l 8 -1
v 5
l 8 1
l -5 -10
l -5 2
l 1 -6
l 7 3
l -2 -5
l -16 -1
l -4 -5
l 7 -1
l -2 -3
l -6 -2
l 1 -1
v -32
h 4
l 6 2
l 2 11
h 6
v 5
h -7
l -2 11
l 3 -2
l 2 6
l 4 -7
l 4 2
l 3 9
l 11 -2
v -35
h 16
v 18
l 19 -1
v -17
h 35
v -18
l 15 -1
h 27
l 10 -1
l 2 -3
l -1 11
v 11
h 17
l -1 -19
l 15 -1
l 3 5
l 1 20
v 28
l 1 29
v 6
l -35 1
v -18
l -11 1
h -42
v 18
h -15
v 22
l -7 2
v -2
l -11 -1
l 1 -20
h -3
v -18
h 18
l -1 -18
l -2 1
h -44
l 1 6
l -8 2
v 8
l -4 3
l 4 3
v 4
l -8 -1
l -4 3
l -3 5
l -6 3
h -17
l -3 -3
l -6 2
Z"/>
<path data-race-id="OH14" d="M609 247
l 10 8
h 8
l 4 8
h 12
v -5
l -7 -2
v -11
h 7
l -1 -7
l 4 -1
l -1 -11
l -14 1
l 2 -9
h 3
v -8
l -1 -11
v -33
l -2 -82
l 45 -28
l 128 -31
l 1 39
l 1 44
v 11
l 1 6
v 28
l 1 19
l 1 15
v 57
l 1 20
l -3 -5
l -15 1
l 1 19
h -17
v -11
l 1 -11
l -2 3
l -10 1
h -27
l -15 1
v 18
h -35
v 17
l -19 1
v -18
h -16
v 35
l -11 2
l -3 -9
l -4 -2
l -4 7
l -2 -6
l -3 2
l 2 -11
h 7
v -5
h -6
l -2 -11
l -6 -2
h -4
l -15 1
v -9
h 5
v -9
h -4
v -13
Z"/>
<path data-race-id="OH15" d="M174 767
l 1 -15
l 3 -27
l 2 -33
l 28 2
l 10 2
l 19 1
l 16 2
l 4 1
l 11 -3
v 7
l 6 -1
v 3
h 15
l 3 -3
l 10 -2
l 10 5
l 3 -43
l -39 -2
l -21 -3
l -14 -1
l 1 -13
l 11 1
l 4 -17
l 11 -40
l -1 -1
l 2 -25
l 1 1
h 43
l 11 1
l -1 10
l 12 2
l 5 -3
v 1
v -1
v 1
l 2 -1
v -6
l 6 -3
l -2 5
h 7
l 2 15
l -2 7
l 9 3
l -1 4
l -7 1
l -4 -6
v 1
h -3
l 1 -4
l -5 -4
l -1 3
l -11 -1
v 4
l 1 3
l -2 1
h 1
v 5
l 2 5
l 1 10
h 13
l 3 -8
l 5 1
l -1 5
l 4 -1
l 4 1
l -2 -4
v -9
l 4 1
v 7
l 9 12
l -2 3
l -1 4
l -4 1
l -4 -13
l -4 4
l 2 12
h -2
l -2 4
l 10 -1
l 10 -4
l -4 -3
l 2 -1
l 4 -4
l 3 3
l 18 -2
l 1 -13
h -3
v -7
l 5 1
l 44 2
l 15 -1
l 14 3
l 28 1
l 14 1
l -2 22
l 19 1
l -1 11
h 28
l 42 2
l 11 1
l -1 21
h 11
l -1 19
l -18 -1
l -5 3
l -1 11
l 3 1
v 12
l -22 -3
v 9
l -3 2
l -1 29
l 6 7
v 6
l -25 -1
l -2 22
l -20 -1
l -37 -3
h -7
l -3 43
l -21 -2
l 2 -24
l -21 -2
v -9
l -22 -2
l -3 -4
h -18
l 1 -7
l -25 -2
l -7 -9
l 4 -8
l -6 -3
l -6 -12
l -16 6
l -8 5
l -2 5
l -13 -2
l 3 -3
l -7 -2
l -5 2
l -1 9
l -9 -1
l -4 -5
l -15 -1
l 3 -13
l -19 -1
h -21
l -24 17
l -12 9
l -6 11
h -4
v -6
h -6
l -24 -2
Z"/>
<path data-race-id="OH16" d="M522 351
h 27
v -17
h 23
l 12 -1
v -18
h -10
l 2 6
h -15
l -1 -6
l 2 -4
h 5
l -1 -11
l 18 -1
v -5
l -8 2
l -3 -5
v -10
l -7 1
v -19
h -17
v -30
h 27
l 1 3
l -7 11
l -5 2
l 1 7
l -3 3
l 7 4
l 3 -2
v -6
h 10
v -8
l 11 9
l 7 -2
v 9
h -4
l 1 18
h 3
v 34
h 10
l -2 6
h 7
l 3 5
v 11
l -7 7
l -4 6
l 6 -2
l 3 3
h 17
l 6 -3
l 3 -5
l 4 -3
l 8 1
v -4
l -4 -3
l 4 -3
v -8
l 8 -2
l -1 -6
h 44
l 2 -1
l 1 18
h -18
v 18
h -29
v 4
l -1 16
h -3
v 11
l -8 3
v 23
h -4
v -11
l -3 -5
l -34 -1
v 38
h -29
v 1
h -58
v -55
Z"/>
</g>
  <path class="districts-mesh" d="M79 454
l 2 1
l 3 -4
l 13 -1
v -29
l 11 1
v -32
l 11 1
v -11
h 42
v -10
h 21
v -4
l 20 1
v 91
l 4 3
l 51 4
l 10 3
h 19
v -44
h 21
v -4
h 35
v -70
h -55
v -63
l 1 -1
v -58
h 14
l 1 10
h 69
v 7
h 19
v 16
l 16 1
h 75
v 1
h 14
v -15
h 18
l 11 -2
v -3
l -5 -10
l 12 -2
v 47
l 5 2
l 7 -4
l -4 10
l -8 -4
h -18
v 18
h -32
v -3
h -74
l -15 -1
v 48
l 1 6
h 19
v 68
h -24
v 16
h -19
v 2
l -4 5
h -9
l -8 4
v 19
h -24
v 1
l 1 3
l -9 1
v 14
l -1 15
v 32
h 15
v 34
h -7
l -11 -1
h -43
l -1 -1
l -2 25
l -19 -1
l -22 -3
l -32 -2
l -23 -3
l 3 -34
l -36 -5
h -39
v -38
l -4 -1
l 1 -22
l -22 -1
l 1 -15
h -2
l 2 -4
h -1
l 5 -4
v 1
M174 767
l -28 -3
l -19 -1
v -1
l -8 -2
v 7
l 3 -1
v 1
l -6 6
v 5
h 7
l -3 5
l -2 5
l -8 6
l -4 -1
l -2 -8
l 4 -1
v -9
l -3 -2
l 3 -12
h -6
l -1 7
l -4 3
h -8
l 1 -8
l -10 -2
h -10
l -2 16
l 8 -2
l -2 4
h 17
l -3 16
l -7 4
v 4
M258 172
l -1 10
h -5
v 8
l -12 -4
l -2 10
l 5 4
h 6
l 3 4
l 5 -1
l 3 -4
h 71
v 21
h 20
v 18
M73 462
l -12 -2
l -3 7
h -5
v 6
h -21
M22 752
l 6 1
h 46
v 1
l 29 2
l 6 2
l 2 -24
l 1 -8
l 2 -30
l -6 1
v -12
l 22 1
l 25 3
l 25 3
l -2 33
l -3 27
l -1 15
l 2 1
l 24 2
h 6
v 6
h 4
l 6 -11
l 12 -9
l 24 -17
h 21
l 19 1
l -3 13
l 15 1
l 4 5
l 9 1
l 1 -9
l 5 -2
l 7 2
l -3 3
l 13 2
l 2 -5
l 8 -5
l 16 -6
l 6 12
l 6 3
l -4 8
l 7 9
l 25 2
l -1 7
v 8
l -4 1
l -2 25
l -2 28
l -44 -2
l 5 18
l -16 -1
l 8 6
l -1 4
h -3
l 4 13
l 10 -1
l -2 -9
h 18
l -2 14
h 11
v 7
M405 781
h 18
l 3 4
l 22 2
v 9
l 21 2
l -2 24
l 21 2
l 3 -43
h 7
l 37 3
l 20 1
l 2 -22
l 25 1
v -6
l -6 -7
l 1 -29
l 3 -2
v -9
l 22 3
v -12
l -3 -1
l 1 -11
l 5 -3
l 18 1
l 1 -19
h -11
l 1 -21
l -11 -1
l 1 -21
v -20
h -7
l -8 -1
h -27
l -12 -1
l -2 -3
v -2
v 2
l 3 -9
v -6
h -28
l -13 -1
l 2 -36
l 10 1
h 27
l 1 1
h 35
l 14 1
h 8
l 1 -17
h 8
v -35
h 20
v -9
l 9 -3
v -5
h 15
l 6 1
v -13
l 4 1
l 10 1
v -22
h -10
v -20
h 14
l 1 -18
l 7 -1
h 20
v -32
l -1 -9
v -22
h 15
v -18
h 42
l 11 -1
v 18
l 35 -1
M532 233
h 17
v 30
h 17
v 19
l 7 -1
v 10
l 3 5
l 8 -2
v 5
l -18 1
l 1 11
h -5
l -2 4
l 1 6
h 15
l -2 -6
h 10
v 18
l -12 1
h -23
v 17
h -27
v 78
h 58
v -1
h 29
v -38
l 34 1
l 3 5
v 11
h 4
v -23
l 8 -3
v -11
h 3
l 1 -16
v -4
h 32
l -1 20
l 11 1
v 2
l 7 -2
M512 549
v -14
l -2 -3
l -51 -2
v -4
l -51 -3
l 1 -17
l 19 1
l 1 -40
l -1 -10
h 49
l 7 -1
l -1 -20
h -20
l -1 -22
h -6
l 4 -12
h -5
l 2 -9
l -6 -6
l -5 6
l -3 8
l -2 -5
v 19
h -21
v 3
h -7
M267 587
l 1 1
l -11 40
l -4 17
l -11 -1
l -33 -7
v -6
l -21 -2
v -3
l -21 -2
v -7
l -19 -2
l -1 -9
h -59
v 39
h -1
v 40
h 21
M581 118
l 2 110
l 3 7
h 7
l 7 3
l 1 7
v 9
l -7 2
l -11 -9
v 8
h -10
v 6
l -3 2
l -7 -4
l 3 -3
l -1 -7
l 5 -2
l 7 -11
l -1 -3
h -27
M242 644
l -1 13
l 14 1
l 21 3
l 39 2
l -3 43
l -10 -5
l -10 2
l -3 3
h -15
v -3
l -6 1
v -7
l -11 3
l -4 -1
l -16 -2
l -19 -1
l -10 -2
l -28 -2
M633 84
l 2 82
v 33
l 1 11
v 8
h -3
l -2 9
l 14 -1
l 1 11
l -4 1
l 1 7
h -7
v 11
l 7 2
v 5
h -12
l -4 -8
h -8
l -10 -8
l -4 3
v 13
h 4
v 9
h -5
v 9
l 15 -1
v 32
l -1 1
l 6 2
l 2 3
l -7 1
l 4 5
l 16 1
l 2 5
l -7 -3
l -1 6
l 5 -2
l 5 10
l -8 -1
v -5
l -8 1
l 1 -3
h -5
l -4 4
v -11
l -3 -5
h -7
l 2 -6
h -10
v -34
h -3
l -1 -18
h 4
v -9
M603 647
l -42 -2
h -28
l 1 -11
l -19 -1
l 2 -22
l -14 -1
l -28 -1
l -14 -3
l -15 1
l -44 -2
M355 584
l -2 -15
h -7
l 2 -5
l -6 3
v 6
l -2 1
v -1
l -5 3
l -12 -2
l 1 -10
M691 350
v -18
h 18
l -1 -18
l -2 1
h -44
l 1 6
l -8 2
v 8
l -4 3
l 4 3
v 4
l -8 -1
l -4 3
l -3 5
l -6 3
h -17
l -3 -3
l -6 2
l 4 -6
l 7 -7
M619 280
h 4
l 6 2
l 2 11
h 6
v 5
h -7
l -2 11
l 3 -2
l 2 6
l 4 -7
l 4 2
l 3 9
l 11 -2
v -35
h 16
v 18
l 19 -1
v -17
h 35
v -18
l 15 -1
h 27
l 10 -1
l 2 -3
l -1 11
v 11
h 17
l -1 -19
l 15 -1
l 3 5
M334 616
l -1 -10
l -2 -5
v -5
h -1
l 2 -1
l -1 -3
v -4
l 11 1
l 1 -3
l 5 4
l -1 4
h 3
v -1
l 4 6
l 7 -1
l 1 -4
l -9 -3
l 2 -7
l 7 3
v -30
h 5
v 7
l 9 -2
l 4 4
v 1
l 13 2
l -1 4
l -1 2
l 5 2
l -11 5
l -3 -4
l 2 8
h 17
l 2 -9
l 2 1
l -3 27
l -5 -1
v 7
h 3
l -1 13
l -18 2
l -3 -3
l -4 4
l -2 1
l 4 3
l -10 4
l -10 1
l 2 -4
h 2
l -2 -12
l 4 -4
l 4 13
l 4 -1
l 1 -4
l 2 -3
l -9 -12
v -7
l -4 -1
v 9
l 2 4
l -4 -1
l -4 1
l 1 -5
l -5 -1
l -3 8
h -13
M79 454
v 1"/>
</svg>