<svg version="1.1" xmlns="http://www.w3.org/2000/svg" width="838" height="1000" viewBox="0 0 838 1000"><g class="districts"><path data-race-id="OH01" d="M21,788l1,-1v-35l6,1h46v1l29,2l6,2l2,-24l1,-8l2,-30l-6,1v-12l22,1l25,3l25,3l-2,33l-3,27l-1,15l-28,-3l-19,-1v-1l-8,-2v7l3,-1v1l-6,6v5h7l-3,5l-2,5l-8,6l-4,-1l-2,-8l4,-1v-9l-3,-2l3,-12h-6l-1,7l-4,3h-8l1,-8l-10,-2h-10l-2,16l8,-2l-2,4h17l-3,16l-7,4v4l-1,1h-1l-1,1h-2l-1,-1h-1v-1h-4v1h-1v2h-1v1h-1l-2,1h-3v1h-1l-4,-1h-1l-2,-2l-1,-2h-1l-1,-1h-1l-8,-7l-1,-1v-1h-1l-1,-1l-1,-1l-3,-1h-1l-3,2l-3,4v1h-1l-1,1l-4,1h-1v-10Z"/><path data-race-id="OH02" d="M120,783l3,-5h-7v-5l6,-6v-1l-3,1v-7l8,2v1l19,1l28,3l2,1l24,2h6v6h4l6,-11l12,-9l24,-17h21l19,1l-3,13l15,1l4,5l9,1l1,-9l5,-2l7,2l-3,3l13,2l2,-5l8,-5l16,-6l6,12l6,3l-4,8l7,9l25,2l-1,7v8l-4,1l-2,25l-2,28l-44,-2l5,18l-16,-1l8,6l-1,4h-3l4,13l10,-1l-2,-9h18l-2,14h11v7l-3,-1l-10,1l-5,5h-12l-4,6v1l-2,2h-1l-3,2l-7,5l-6,9l-10,1l-4,-3l-7,2v1l-7,5l-4,-9l-7,-6l-20,-4l-9,-7l-16,4l-7,3l-2,8l-6,2l-5,-3h-2l-9,-2l-3,-12l-12,-5l-2,-9l-14,-4l-4,-4l-7,1h-2l-1,1l-2,1h-3v1h-8l-1,-1h-3l-3,-2h-1l-1,-1l-2,-1h-1l-1,-1h-5l-4,-1l-2,-1h-1l-1,-1l-2,-3v-1l-1,-1v-15l-1,-1l-1,-2l-4,-8l-1,-1v-1l-2,-1l-1,-1l-2,-11l-4,-7l-1,-1l-1,-1h-1l-4,-1l-1,-1l-5,-1h-2l-2,-1h-1l-1,-1h-1v-1l-3,-14h-1l-1,-1l-4,1l-4,3v-4l7,-4l3,-16h-17l2,-4l-8,2l2,-16h10l10,2l-1,8h8l4,-3l1,-7h6l-3,12l3,2v9l-4,1l2,8l4,1l8,-6Z"/><path data-race-id="OH03" d="M332,595l-1,-3v-4l11,1l1,-3l5,4l-1,4h3v-1l4,6l7,-1l1,-4l-9,-3l2,-7l7,3v-30h5v7l9,-2l4,4v1l13,2l-1,4l-1,2l5,2l-11,5l-3,-4l2,8h17l2,-9l2,1l-3,27l-5,-1v7h3l-1,13l-18,2l-3,-3l-4,4l-2,1l4,3l-10,4l-10,1l2,-4h2l-2,-12l4,-4l4,13l4,-1l1,-4l2,-3l-9,-12v-7l-4,-1v9l2,4l-4,-1l-4,1l1,-5l-5,-1l-3,8h-13l-1,-10l-2,-5v-5h-1Z"/><path data-race-id="OH04" d="M73,462l2,-4h-1l5,-4v1v-1v1v-1l2,1l3,-4l13,-1v-29l11,1v-32l11,1v-11h42v-10h21v-4l20,1v91l4,3l51,4l10,3h19v-44h21v-4h35v-70h-55v-63l1,-1v-58h14l1,10h69v7h19v16l16,1h75v1h14v-15h18l11,-2v-3l-5,-10l12,-2v47l5,2l7,-4l-4,10l-8,-4h-18v18h-32v-3h-74l-15,-1v48l1,6h19v68h-24v16h-19v2l-4,5h-9l-8,4v19h-24v1l1,3l-9,1v14l-1,15v32h15v34h-7l-11,-1h-43l-1,-1l-2,25l-19,-1l-22,-3l-32,-2l-23,-3l3,-34l-36,-5h-39v-38l-4,-1l1,-22l-22,-1l1,-15Z"/><path data-race-id="OH05" d="M38,181v-4l22,-1h62l23,-1h32l10,-1h19l50,-2h2l-1,10h-5v8l-12,-4l-2,10l5,4h6l3,4l5,-1l3,-4h71v21h20v18h-48l-1,-10h-14v58l-1,1v63h55v70h-35v4h-21v44h-19l-10,-3l-51,-4l-4,-3v-91l-20,-1v4h-21v10h-42v11l-11,-1v32l-11,-1v29l-13,1l-3,4l-2,-1v1v-1v1v-1l-5,4h1l-2,4l-12,-2l-3,7h-5v6h-21v-5l1,-11v-27l1,-3v-62l1,-9v-25l1,-16v-24l1,-3v-31l1,-6v-59Z"/><path data-race-id="OH06" d="M353,841l44,2l2,-28l2,-25l4,-1v-8h18l3,4l22,2v9l21,2l-2,24l21,2l3,-43h7l37,3l20,1l2,-22l25,1v-6l-6,-7l1,-29l3,-2v-9l22,3v-12l-3,-1l1,-11l5,-3l18,1l1,-19h-11l1,-21l-11,-1l1,-21v-20h-7l-8,-1h-27l-12,-1l-2,-3v-2v2l3,-9v-6h-28l-13,-1l2,-36l10,1h27l1,1h35l14,1h8l1,-17h8v-35h20v-9l9,-3v-5h15l6,1v-13l4,1l10,1v-22h-10v-20h14l1,-18l7,-1h20v-32l-1,-9v-22h15v-18h42l11,-1v18l35,-1l1,4v47l1,21v12l-9,6l-5,-3l-7,2l-6,10l8,11l1,3v1l1,4l4,6v3l-1,2v1l-1,1v1l-1,2v7l-2,2l3,4l2,17l-1,2l-2,9l-8,7l-3,12l-4,7l-1,14l-4,4l-1,1v2l1,9l-1,7v8l-4,4l1,11l-8,-2l-1,4l4,6l-2,4l-1,1h-1l-1,1l-1,1l-1,1v11l-8,7l4,7l4,5l-2,5h-1l-4,3v10l-2,6l-2,1h-6l-2,1h-1v2h-1l-10,9l-7,7l-10,11v1l-5,8l-12,7l-6,11h-11l-13,10h-7l-4,-10l-7,-6l-4,1l-6,9l-7,4l-3,2v1l-2,8v9l-10,-1h-11l-4,4v10l-4,1l-2,2l-2,4l-2,2h-1l1,2l2,4v14l-4,5l-8,-1l-1,5l9,10l-3,13l5,7l-6,3l-4,-5l-4,1l-3,8v2l-1,2l-1,1l-7,3l-3,-2v-8l3,-4l-8,-14h-8v-1l-1,-3v-2l-2,-2l-1,-1h-3l-4,1v3l-2,3v2h-1l-2,2l-1,1l-5,4l-2,4l-4,10l-2,4v9l-3,7l-6,2l-6,5l1,7l5,7l1,3l-1,9l4,13l-3,9l-4,1h-2l-10,-1l-3,3l-3,22l-5,12l-15,1l-5,2l-3,1l-6,2l-1,1l-5,2l-4,1h-4l-6,-3l-2,-12l-5,-5h-3l-1,-1l-1,-1h-1v-1h-1v-2l-1,-1l-1,-1l-2,-4l-3,-4l-3,-2h-1l-1,-1h-3l-4,-1l-2,1h-2v-1h-4v-1h-1l-1,-1h-1l-1,-1v-1h-1l-1,-1l-1,-1l-1,-1v-3l-1,-3v-7l-4,-9l1,-15v-7h-11l2,-14h-18l2,9l-10,1l-4,-13h3l1,-4l-8,-6l16,1Z"/><path data-race-id="OH07" d="M393,296l15,1h74v3h32v-18h18l8,4l4,-10l-7,4l-5,-2v-45h17v30h17v19l7,-1v10l3,5l8,-2v5l-18,1l1,11h-5l-2,4l1,6h15l-2,-6h10v18l-12,1h-23v17h-27v78h58v-1h29v-38l34,1l3,5v11h4v-23l8,-3v-11h3l1,-16v-4h32l-1,20l11,1v2l7,-2l1,9v32h-20l-7,1l-1,18h-14v20h10v22l-10,-1l-4,-1v13l-6,-1h-15v5l-9,3v9h-20v35h-8l-1,17h-8l-14,-1h-35l-1,-1h-27l-10,-1v-14l-2,-3l-51,-2v-4l-51,-3l1,-17l19,1l1,-40l-1,-10h49l7,-1l-1,-20h-20l-1,-22h-6l4,-12h-5l2,-9l-6,-6l-5,6l-3,8l-2,-5v19h-21v3h-7v-68h-19l-1,-6v-27Z"/><path data-race-id="OH08" d="M22,749v-13h1v-14l1,-10v-9l1,-14v-18l1,-16v-34l1,-15v-15l1,-3l1,-31v-2l1,-3v-36l1,-2v-32l1,-1v-8h21v-6h5l3,-7l12,2h2l-1,15l22,1l-1,22l4,1v38h39l36,5l-3,34l23,3l32,2l22,3l19,1l1,1l-11,40l-4,17l-11,-1l-33,-7v-6l-21,-2v-3l-21,-2v-7l-19,-2l-1,-9h-59v39h-1v40h21v12l6,-1l-2,30l-1,8l-2,24l-6,-2l-29,-2v-1h-46l-6,-1Z"/><path data-race-id="OH09" d="M258,172h30l56,-53l7,22l57,36l5,3l8,6h51l109,-68l2,110l3,7h7l7,3l1,7v9l-7,2l-11,-9v8h-10v6l-3,2l-7,-4l3,-3l-1,-7l5,-2l7,-11l-1,-3h-44v-2l-12,2l5,10v3l-11,2h-18v15h-14v-1h-75l-16,-1v-16h-19v-7h-21v-18h-20v-21h-71l-3,4l-5,1l-3,-4h-6l-5,-4l2,-10l12,4v-8h5Z"/><path data-race-id="OH10" d="M88,606h59l1,9l19,2v7l21,2v3l21,2v6l33,7l-1,13l14,1l21,3l39,2l-3,43l-10,-5l-10,2l-3,3h-15v-3l-6,1v-7l-11,3l-4,-1l-16,-2l-19,-1l-10,-2l-28,-2l-25,-3l-25,-3l-22,-1h-21v-40h1Z"/><path data-race-id="OH11" d="M597,107h2l21,-15l13,-8l2,82v33l1,11v8h-3l-2,9l14,-1l1,11l-4,1l1,7h-7v11l7,2v5h-12l-4,-8h-8l-10,-8l-4,3v13h4v9h-5v9l15,-1v32l-1,1l6,2l2,3l-7,1l4,5l16,1l2,5l-7,-3l-1,6l5,-2l5,10l-8,-1v-5l-8,1l1,-3h-5l-4,4v-11l-3,-5h-7l2,-6h-10v-34h-3l-1,-18h4v-18l-1,-7l-7,-3h-7l-3,-7l-2,-110Z"/><path data-race-id="OH12" d="M317,483v-14l9,-1l-1,-3v-1h24v-19l8,-4h9l4,-5v-2h19v-16h31v-3h21v-19l2,5l3,-8l5,-6l6,6l-2,9h5l-4,12h6l1,22h20l1,20l-7,1h-49l1,10l-1,40l-19,-1l-1,17l51,3v4l51,2l2,3v14l-2,36l13,1h28v6l-3,9v-2v2l2,3l12,1h27l8,1h7v20l-1,21l-42,-2h-28l1,-11l-19,-1l2,-22l-14,-1l-28,-1l-14,-3l-15,1l-44,-2l3,-27l-2,-1l-2,9h-17l-2,-8l3,4l11,-5l-5,-2l1,-2l1,-4l-13,-2v-1l-4,-4l-9,2v-7h-5v30l-7,-3l-2,-15h-7l2,-5l-6,3v6l-2,1v-1v1v-1l-5,3l-12,-2l1,-10h7v-34h-15v-32Z"/><path data-race-id="OH13" d="M612,344l7,-7l4,-4h5l-1,3l8,-1v5l8,1l-5,-10l-5,2l1,-6l7,3l-2,-5l-16,-1l-4,-5l7,-1l-2,-3l-6,-2l1,-1v-32h4l6,2l2,11h6v5h-7l-2,11l3,-2l2,6l4,-7l4,2l3,9l11,-2v-35h16v18l19,-1v-17h35v-18l15,-1h27l10,-1l2,-3l-1,11v11h17l-1,-19l15,-1l3,5l1,20v28l1,29v6l-35,1v-18l-11,1h-42v18h-15v22l-7,2v-2l-11,-1l1,-20h-3v-18h18l-1,-18l-2,1h-44l1,6l-8,2v8l-4,3l4,3v4l-8,-1l-4,3l-3,5l-6,3h-17l-3,-3l-6,2Z"/><path data-race-id="OH14" d="M609,247l10,8h8l4,8h12v-5l-7,-2v-11h7l-1,-7l4,-1l-1,-11l-14,1l2,-9h3v-8l-1,-11v-33l-2,-82l45,-28l128,-31l1,39l1,44v11l1,6v28l1,19l1,15v57l1,20l-3,-5l-15,1l1,19h-17v-11l1,-11l-2,3l-10,1h-27l-15,1v18h-35v17l-19,1v-18h-16v35l-11,2l-3,-9l-4,-2l-4,7l-2,-6l-3,2l2,-11h7v-5h-6l-2,-11l-6,-2h-4l-15,1v-9h5v-9h-4v-13Z"/><path data-race-id="OH15" d="M174,767l1,-15l3,-27l2,-33l28,2l10,2l19,1l16,2l4,1l11,-3v7l6,-1v3h15l3,-3l10,-2l10,5l3,-43l-39,-2l-21,-3l-14,-1l1,-13l11,1l4,-17l11,-40l-1,-1l2,-25l1,1h43l11,1l-1,10l12,2l5,-3v1v-1v1l2,-1v-6l6,-3l-2,5h7l2,15l-2,7l9,3l-1,4l-7,1l-4,-6v1h-3l1,-4l-5,-4l-1,3l-11,-1v4l1,3l-2,1h1v5l2,5l1,10h13l3,-8l5,1l-1,5l4,-1l4,1l-2,-4v-9l4,1v7l9,12l-2,3l-1,4l-4,1l-4,-13l-4,4l2,12h-2l-2,4l10,-1l10,-4l-4,-3l2,-1l4,-4l3,3l18,-2l1,-13h-3v-7l5,1l44,2l15,-1l14,3l28,1l14,1l-2,22l19,1l-1,11h28l42,2l11,1l-1,21h11l-1,19l-18,-1l-5,3l-1,11l3,1v12l-22,-3v9l-3,2l-1,29l6,7v6l-25,-1l-2,22l-20,-1l-37,-3h-7l-3,43l-21,-2l2,-24l-21,-2v-9l-22,-2l-3,-4h-18l1,-7l-25,-2l-7,-9l4,-8l-6,-3l-6,-12l-16,6l-8,5l-2,5l-13,-2l3,-3l-7,-2l-5,2l-1,9l-9,-1l-4,-5l-15,-1l3,-13l-19,-1h-21l-24,17l-12,9l-6,11h-4v-6h-6l-24,-2Z"/><path data-race-id="OH16" d="M522,351h27v-17h23l12,-1v-18h-10l2,6h-15l-1,-6l2,-4h5l-1,-11l18,-1v-5l-8,2l-3,-5v-10l-7,1v-19h-17v-30h27l1,3l-7,11l-5,2l1,7l-3,3l7,4l3,-2v-6h10v-8l11,9l7,-2v9h-4l1,18h3v34h10l-2,6h7l3,5v11l-7,7l-4,6l6,-2l3,3h17l6,-3l3,-5l4,-3l8,1v-4l-4,-3l4,-3v-8l8,-2l-1,-6h44l2,-1l1,18h-18v18h-29v4l-1,16h-3v11l-8,3v23h-4v-11l-3,-5l-34,-1v38h-29v1h-58v-55Z"/></g>  <path class="districts-mesh" d="M79,454l2,1l3,-4l13,-1v-29l11,1v-32l11,1v-11h42v-10h21v-4l20,1v91l4,3l51,4l10,3h19v-44h21v-4h35v-70h-55v-63l1,-1v-58h14l1,10h69v7h19v16l16,1h75v1h14v-15h18l11,-2v-3l-5,-10l12,-2v47l5,2l7,-4l-4,10l-8,-4h-18v18h-32v-3h-74l-15,-1v48l1,6h19v68h-24v16h-19v2l-4,5h-9l-8,4v19h-24v1l1,3l-9,1v14l-1,15v32h15v34h-7l-11,-1h-43l-1,-1l-2,25l-19,-1l-22,-3l-32,-2l-23,-3l3,-34l-36,-5h-39v-38l-4,-1l1,-22l-22,-1l1,-15h-2l2,-4h-1l5,-4v1M174,767l-28,-3l-19,-1v-1l-8,-2v7l3,-1v1l-6,6v5h7l-3,5l-2,5l-8,6l-4,-1l-2,-8l4,-1v-9l-3,-2l3,-12h-6l-1,7l-4,3h-8l1,-8l-10,-2h-10l-2,16l8,-2l-2,4h17l-3,16l-7,4v4M258,172l-1,10h-5v8l-12,-4l-2,10l5,4h6l3,4l5,-1l3,-4h71v21h20v18M73,462l-12,-2l-3,7h-5v6h-21M22,752l6,1h46v1l29,2l6,2l2,-24l1,-8l2,-30l-6,1v-12l22,1l25,3l25,3l-2,33l-3,27l-1,15l2,1l24,2h6v6h4l6,-11l12,-9l24,-17h21l19,1l-3,13l15,1l4,5l9,1l1,-9l5,-2l7,2l-3,3l13,2l2,-5l8,-5l16,-6l6,12l6,3l-4,8l7,9l25,2l-1,7v8l-4,1l-2,25l-2,28l-44,-2l5,18l-16,-1l8,6l-1,4h-3l4,13l10,-1l-2,-9h18l-2,14h11v7M405,781h18l3,4l22,2v9l21,2l-2,24l21,2l3,-43h7l37,3l20,1l2,-22l25,1v-6l-6,-7l1,-29l3,-2v-9l22,3v-12l-3,-1l1,-11l5,-3l18,1l1,-19h-11l1,-21l-11,-1l1,-21v-20h-7l-8,-1h-27l-12,-1l-2,-3v-2v2l3,-9v-6h-28l-13,-1l2,-36l10,1h27l1,1h35l14,1h8l1,-17h8v-35h20v-9l9,-3v-5h15l6,1v-13l4,1l10,1v-22h-10v-20h14l1,-18l7,-1h20v-32l-1,-9v-22h15v-18h42l11,-1v18l35,-1M532,233h17v30h17v19l7,-1v10l3,5l8,-2v5l-18,1l1,11h-5l-2,4l1,6h15l-2,-6h10v18l-12,1h-23v17h-27v78h58v-1h29v-38l34,1l3,5v11h4v-23l8,-3v-11h3l1,-16v-4h32l-1,20l11,1v2l7,-2M512,549v-14l-2,-3l-51,-2v-4l-51,-3l1,-17l19,1l1,-40l-1,-10h49l7,-1l-1,-20h-20l-1,-22h-6l4,-12h-5l2,-9l-6,-6l-5,6l-3,8l-2,-5v19h-21v3h-7M267,587l1,1l-11,40l-4,17l-11,-1l-33,-7v-6l-21,-2v-3l-21,-2v-7l-19,-2l-1,-9h-59v39h-1v40h21M581,118l2,110l3,7h7l7,3l1,7v9l-7,2l-11,-9v8h-10v6l-3,2l-7,-4l3,-3l-1,-7l5,-2l7,-11l-1,-3h-27M242,644l-1,13l14,1l21,3l39,2l-3,43l-10,-5l-10,2l-3,3h-15v-3l-6,1v-7l-11,3l-4,-1l-16,-2l-19,-1l-10,-2l-28,-2M633,84l2,82v33l1,11v8h-3l-2,9l14,-1l1,11l-4,1l1,7h-7v11l7,2v5h-12l-4,-8h-8l-10,-8l-4,3v13h4v9h-5v9l15,-1v32l-1,1l6,2l2,3l-7,1l4,5l16,1l2,5l-7,-3l-1,6l5,-2l5,10l-8,-1v-5l-8,1l1,-3h-5l-4,4v-11l-3,-5h-7l2,-6h-10v-34h-3l-1,-18h4v-9M603,647l-42,-2h-28l1,-11l-19,-1l2,-22l-14,-1l-28,-1l-14,-3l-15,1l-44,-2M355,584l-2,-15h-7l2,-5l-6,3v6l-2,1v-1l-5,3l-12,-2l1,-10M691,350v-18h18l-1,-18l-2,1h-44l1,6l-8,2v8l-4,3l4,3v4l-8,-1l-4,3l-3,5l-6,3h-17l-3,-3l-6,2l4,-6l7,-7M619,280h4l6,2l2,11h6v5h-7l-2,11l3,-2l2,6l4,-7l4,2l3,9l11,-2v-35h16v18l19,-1v-17h35v-18l15,-1h27l10,-1l2,-3l-1,11v11h17l-1,-19l15,-1l3,5M334,616l-1,-10l-2,-5v-5h-1l2,-1l-1,-3v-4l11,1l1,-3l5,4l-1,4h3v-1l4,6l7,-1l1,-4l-9,-3l2,-7l7,3v-30h5v7l9,-2l4,4v1l13,2l-1,4l-1,2l5,2l-11,5l-3,-4l2,8h17l2,-9l2,1l-3,27l-5,-1v7h3l-1,13l-18,2l-3,-3l-4,4l-2,1l4,3l-10,4l-10,1l2,-4h2l-2,-12l4,-4l4,13l4,-1l1,-4l2,-3l-9,-12v-7l-4,-1v9l2,4l-4,-1l-4,1l1,-5l-5,-1l-3,8h-13M79,454v1"/></svg>