<svg version="1.1" xmlns="http://www.w3.org/2000/svg" width="919" height="1000" viewBox="0 0 919 1000"><path data-race-id="OH01" d="M23,770l1,-1v-28l1,-8v-2l35,1l1,-2l18,1l41,6l1,-17l2,-17v-17l2,-18l-6,2v-12h16l34,4l28,2l-2,27l-1,20l-3,19l-1,17l-16,-1l-35,-4l-8,-1l-1,5l4,1l-7,7l1,5h7l-3,5l-7,10l-4,3l-6,-2l-1,-8l4,-1l1,-11l-4,-1l4,-13l-5,-1l-3,8l-4,4l-11,-2l4,-7h-5l-8,-2l-10,-1l-3,18l9,-2l-2,4l9,-1l7,-2l3,3l-3,9l-3,1l2,8l-8,3l1,5l-2,2h-5v-1h-1l-1,-1h-2l-1,1l-1,1l-1,1v1h-1v1h-1l-1,1h-3l-1,1h-1l-5,-1h-1l-2,-3l-1,-1l-1,-1h-1l-2,-1l-9,-7v-2l-1,-1l-1,-1h-1l-1,-1l-3,-1h-1l-3,2l-3,5v1h-3l-3,1v1h-2v-11Z"/><path data-race-id="OH02" d="M95,743h5l-4,7l11,2l4,-4l3,-8l5,1l-4,13l4,1l-1,11l-4,1l1,8l6,2l4,-3l7,-10l3,-5h-7l-1,-5l7,-7l-4,-1l1,-5l8,1l35,4l16,1h3l26,3h6v7h5l6,-12l8,-4l21,-18l11,-7h28l17,1l-3,13l-1,2l18,1l3,5l10,1l1,-10l3,3l4,-5l7,3l-4,2l12,3l5,-7l25,-11l3,7l10,10l-4,4l4,11l6,4l25,1v7l-1,12l-4,-1l-2,28v12l-2,19l-19,-2l-30,-1l1,8l4,5l1,8l-17,-2l7,6v5h-3l3,15l13,-3l-4,-10l23,1l-4,4v12h11v7l-3,-3l-7,1l-9,7h-13l-5,8l-3,2l-4,2l-7,4l-2,9l-6,3h-11l-8,-2l-3,2v1l-5,5l-6,-3l-2,-8l-11,-7l-18,-3l-8,-7h-7l-12,4l-8,5l-2,8l-5,3l-7,-4l-14,-5l-4,-12l-10,-5v-5l-4,-6l-7,-1h-1l-6,-1l-6,-5l-7,1l-1,1h-2l-2,1l-1,1h-2l-2,1l-2,-1v1h-4l-1,-1h-3l-1,-1l-3,-1v-1h-2l-1,-1l-2,-1h-1l-1,-1h-3v-1h-2l-5,-1l-2,-1h-1l-1,-1l-3,-4l-1,-1v-19l-1,-1v-1l-6,-7v-2l-2,-2l-1,-1l-3,-12l-4,-7l-1,-1v-1h-1l-2,-1l-4,-2l-1,-1h-2l-3,-1h-3l-2,-1h-2l-1,-1l-1,-12l-2,-4l-1,-1l-1,-1h-5l-4,5l-1,-5l8,-3l-2,-8l3,-1l3,-9l-3,-3l-7,2l-9,1l2,-4l-9,2l3,-18l10,1Z"/><path data-race-id="OH03" d="M363,555l-1,-4h19v6l2,-1l5,6h8h-1h1l1,-5l-10,-3l1,-4l2,-4l7,2v-32l6,1v7l6,-1l8,5l14,2l-1,3v1l-1,3l4,-2l1,6l-7,-1l-6,8h18l1,-7l4,-2v13l-3,16h-6v8h3v13l-8,-1v4l-12,-1l-4,-3l-2,6h-4l4,4l-7,1l-3,4h-12l3,-4h2l-3,-13l3,-5l8,3l-4,1l2,11l-1,2l4,2l5,-14l-2,-4l-10,-9l2,-7l-5,-1l1,13l2,1l-2,-1l-3,1v-1v1h-4v-6h-5l-2,8l-3,-4l-3,-2l-2,6h-7v-11l-3,-5l-1,-4Z"/><path data-race-id="OH04" d="M80,412l1,-1v-3l6,-4v1h1h-1h2h-1l4,-4v-2l14,-1v-30h12v-34h12v-12h46v-11h23v-4l23,1v54l-1,18v31l20,1l21,2l27,2l4,2h21v-47h22v-4h40v-77h-62v-70l1,-2v-28l1,-2v-33h15l1,11h30v1h24l7,1l4,4l7,-4l5,9l9,-3h11v18l11,1h40l14,1h34v1h16v-17l20,1l3,-7l3,6l6,-2v-7l-6,-2v-6h13v47l2,5l12,-5l-5,10h-7l-2,-3h-20v20h-35v-3h-73l-3,-1h-21v53l1,5h21v37l-1,4v34h-26v17l-20,1v2l-5,2l1,4h-12l-7,3v21h-27l1,4l-9,1v15l-1,16v38h15v36h-6l-13,-1h-42l-6,-1l-2,27l-24,-1l-10,-2l-21,-1l-32,-4l-18,-1l2,-38l-14,-2l-19,-1l-6,-2h-43v-42l-4,-1l1,-24l-24,-1Z"/><path data-race-id="OH05" d="M42,104v-5h49l31,-1h48l24,-1h11l10,-1h33l4,-1h28l3,-1l-2,11h-5v8l-14,-3l-1,10l6,7l6,-2l3,4l7,-4l-1,3l5,-5h75v24h23v20h-23v-1h-30l-1,-11h-15v33l-1,2v28l-1,2v70h62v77h-40v4h-22v47h-21l-4,-2l-27,-2l-21,-2l-20,-1v-31l1,-18v-54l-23,-1v4h-23v11h-46v12h-12v34h-12v30l-14,1v2l-4,4h1h-2h1h-1v-1l-6,4v3l-1,1l-14,-2l-3,7h-5v8l-23,-1v-6l1,-11v-31l1,-3v-33l1,-2v-69l1,-18v-31l1,-3v-37l1,-5v-41l1,-2v-16Z"/><path data-race-id="OH06" d="M387,828l30,1l19,2l2,-19v-12l2,-28l4,1l1,-12l23,2l-1,4l22,1l2,11l23,2l-2,26l23,2l2,-23l1,-24h8l35,3l28,1l2,-24l2,1l25,1v-8l-7,-8l1,-31l5,-2v-10l12,1v2h11v-13l-3,-1l2,-13l21,-1l4,1l1,-21h-12v-24h-12l1,-23v-24h-7l-15,-1h-25l-11,-1l-2,-2h-1h1l1,-7l1,-10h-35l-9,-1l1,-8v-24l1,-6h52l1,1h35l7,1h9v-19h9l1,-13v-25h22v-9l9,-4v-6h23v-9l-2,-2h18v-23l-11,-1v-22h15l1,-19l8,-2h22v-35l-1,-10v-24h17v-19l14,-1h43l1,19l38,-1v29l1,8v19l1,23v13l-10,7l-5,-3l-7,2l-7,9l8,14l1,3v1l2,4l4,8v3l-1,3v1h-1v2l-1,1v7l-3,3l4,5l1,19v2l-2,8l-9,10l-3,12l-5,8l-1,15l-4,4l-2,2v2l2,9l-2,9l1,8l-5,8l2,8l-11,-2l4,9l-1,7h-1l-1,1h-2l-1,1l-1,1v13l-8,7l3,8l1,1l4,5l-2,5h-1l-4,3v12l-3,6l-2,1h-7l-1,1h-1l-1,2h-1l-11,11l-5,5l-2,2l-12,13l-5,9l-3,4l-7,1l-8,9l-2,5h-10l-14,10l-6,2l-5,-2l-3,-10l-8,-6l-5,2l-9,11l-5,3l-2,1l-1,2l-1,2l-1,7v9h-11l-11,-1l-5,5v10l-5,2l-2,2l-2,5l-2,2h-1l1,2l1,5v15l-1,2l-2,3l-10,-1l-1,5l4,6l7,6l-4,16l6,6l-7,3l-5,-6l-4,2l-3,8v2l-2,2v1l-8,4l-3,-2l-3,-2l2,-6h1l3,-3l-7,-17h-10l-1,-1v-1l-1,-3v-2l-2,-3h-1l-4,-1l-3,2l-1,2v1l-2,4v1l-1,1l-2,1h-1l-4,2l-1,4l-3,5l-4,10l-3,4v14l-4,5l-6,1l-6,7v5l6,8l1,5l-1,9l5,20l-4,5l-5,1l-1,-1l-10,-1l-3,3l-1,1h-1l-2,24l-3,9l-5,5h-14l-5,2l-4,2l-7,2h-1l-4,2h-1v1h-1l-3,1h-5l-7,-3l-2,-13l-5,-5h-2l-1,-1h-1l-1,-1l-1,-1l-1,-1v-2h-1v-1l-1,-1l-1,-1l-2,-3v-1l-7,-6l-2,-1h-5l-3,-1l-1,1h-4l-1,-1l-1,-1h-2v-1h-1l-1,-1h-1v-1h-1v-1l-1,-1h-1v-1h-1v-1l-1,-1v-1l-1,-2l-1,-3v-7l-4,-11l1,-16v-7h-11v-12l4,-4l-23,-1l4,10l-13,3l-3,-15h3v-5l-7,-6l17,2l-1,-8l-4,-5Z"/><path data-race-id="OH07" d="M431,231h21l3,1h73v3h35v-20h20l2,3h7l5,-10l-12,5l-2,-5v-47h20v34h18v20h8v9l2,6l9,-3v7l-19,1l1,11l-5,-1l-3,7l2,6l15,-1l-1,-6h10v20h-37l-1,19h-30v24l1,1v60h74l21,-1v-41l5,1h30l6,6l-1,12h5l5,-6h-5v-19l8,-4v-12l4,1l1,-17v-6h35l-1,23l15,2l5,-2l1,10v35h-22l-8,2l-1,19h-15v22l11,1v23h-18l2,2v9h-23v6l-9,4v9h-22v25l-1,13h-9v19h-9l-7,-1h-35l-1,-1h-52v-17l-2,-3h-44l-13,-1l-2,-6h-14l-16,-2l-24,-1l2,-19l20,1l1,-31l2,-16l-3,-7h54l8,-1l-1,-22h-23v-24h-7l-1,-4h7l-1,-1l-4,-3l4,-5h-5l-1,-14l-8,-2l-2,12h-5v18l-24,-1v4h-8v-34l1,-4v-37h-21l-1,-5v-29Z"/><path data-race-id="OH08" d="M25,727v-30l1,-11v-8l1,-16v-20l1,-17v-23l1,-2v-14l1,-17v-15l1,-3l1,-34v-23l1,-14v-9l1,-1v-36l1,-2v-8l23,1v-8h5l3,-7l14,2l1,17l24,1l-1,24l4,1v42h43l6,2l19,1l14,2l-2,38l18,1l32,4l21,1l10,2l24,1l1,2l-9,29l-7,32l-12,-1l-20,-2v-3l-17,-2v-6l-23,-2v-4l-23,-3v-7l-19,-1l-3,-3l1,-8h-66v40h-1v47l24,1v12l6,-2l-2,18v17l-2,17l-1,17l-41,-6l-18,-1l-1,2l-35,-1v-2Z"/><path data-race-id="OH09" d="M283,94h26l-4,9l9,-3l-1,4l16,2l3,-5l6,7l13,7l1,3l14,5l12,2l8,6l7,10l12,9l-20,4v-7h-23v-24h-75l-5,5l1,-3l-7,4l-3,-4l-6,2l-6,-7l1,-10l14,3v-8h5ZM642,157v5l15,3l2,5v14l-7,1l-13,-8l-1,7h-10l1,8l-8,1l-3,-3l3,-4v-9h4l6,-9l-4,-7h-57v6l6,2v7l-6,2l-3,-6l-3,7l-20,-1v17h-16v-1h-34l-14,-1h-40l-11,-1v-18h-11l7,-2l11,-10l11,9l11,-6l17,12l-8,-10l13,13l16,7h7l25,-12h13l6,-2l12,-10l24,-7l7,-4l13,2l6,4l15,2l11,-4ZM390,167h-5v-12l30,-3l8,-3l4,-6v-8l4,-2l2,8l5,1l-3,5l15,-4l5,2v5l-10,5h-10l-1,4l-7,-3l-3,3l-19,1l-1,4l-13,1ZM458,126l4,-2l-1,9l-9,-4l1,-5ZM439,112l-7,9l-2,-5Z"/><path data-race-id="OH10" d="M96,570h66l-1,8l3,3l19,1v7l23,3v4l23,2v6l17,2v3l20,2l-2,15l39,3l15,2l27,1l-3,48l-7,-3l-4,-5l-4,1l-13,8h-14v-5l-6,2v-11l-4,-2l3,6l-9,-1l-7,2l-17,-2l-36,-3l-10,-2l-17,-1l-28,-2l-34,-4h-16l-24,-1v-47h1Z"/><path data-race-id="OH11" d="M697,120l1,16v8h-4l-1,10h14l1,11l-4,1v7l-6,2v11l7,3l1,5h-13l-5,-10l-8,1l-9,-8l-7,3v14h4v10h-6v10h17l1,33l-6,4h12l1,4l-6,1l2,5h18l1,6l-4,-3l-3,1l-2,5h7l3,10l-7,-2v-6l-8,3l-5,-4l-2,6l-1,-1v-15l-6,-4h-6l2,-6h-11v-37h-3l-1,-20h4v-24l-2,-5l-15,-3v-5l5,2l7,-4l9,-9l12,-6l15,-17Z"/><path data-race-id="OH12" d="M348,434v-15l9,-1l-1,-4h27v-21l7,-3h12l-1,-4l5,-2v-2l20,-1v-17h34v-4l24,1v-18h5l2,-12l8,2l1,14h5l-4,5l4,3l1,1h-7l1,4h7v24h23l1,22l-8,1h-54l3,7l-2,16l-1,31l-20,-1l-2,19l24,1l16,2h14l2,6l13,1h44l2,3v17l-1,6v24l-1,8l9,1h35l-1,10l-1,7h-1h1l2,2l11,1h25l15,1h7v24l-1,23l-34,-2h-22l-21,-2l1,-11l-20,-1l2,-24l-15,-1l-38,-2l-8,-2h-26l-39,-3l3,-16v-13l-4,2l-1,7h-18l6,-8l7,1l-1,-6l-4,2l1,-3v-1l1,-3l-14,-2l-8,-5l-6,1v-7l-6,-1v32l-7,-2l-2,-12l-8,-4l2,-6l-6,4v6l-4,-3l-3,5l-10,2l-4,-3l1,-11h6v-36h-15v-38Z"/><path data-race-id="OH13" d="M680,276l1,1l2,-6l5,4l8,-3v6l7,2l-3,-10h-7l2,-5l3,-1l4,3l-1,-6h-18l-2,-5l6,-1l-1,-4h-12l6,-4l-1,-33l4,-1l7,2l3,12h6v6h-8l1,5l-6,4l3,2l4,3l5,-6l5,2l4,11h7l4,-4v-37h18v20l21,-1v-19h38v-20h24l1,-1h26l9,-4l-2,11v13l19,-1l-1,-20l16,-1l4,5v11l1,11v31l1,31v7l-38,1l-1,-19h-43l-14,1v19h-17v24l-5,2l-15,-2l1,-23h-3v-20h19l-1,-19h-48l-1,2l1,5l-7,2h-3l1,10l-5,2l5,5v3l-7,-1l-7,3l-6,9h-22l-2,-4l-8,3l3,-7Z"/><path data-race-id="OH14" d="M693,194h13l-1,-5l-7,-3v-11l6,-2v-7l4,-1l-1,-11h-14l1,-10h4v-8l-1,-16l10,-13l21,-17l7,-4l7,-1l15,-7l13,-9l22,-9l21,-5l19,-11l19,-4l11,-6l13,-4l11,-5v11l1,11v26l1,21l1,16v32l1,9v22l1,22l-4,-5l-16,1l1,20l-19,1v-13l2,-11l-9,4h-26l-1,1h-24v20h-38v19l-21,1v-20h-18v37l-4,4h-7l-4,-11l-5,-2l-5,6l-4,-3l-3,-2l6,-4l-1,-5h8v-6h-6l-3,-12l-7,-2l-4,1h-17v-10h6v-10h-4v-14l7,-3l9,8l8,-1Z"/><path data-race-id="OH15" d="M190,747l1,-17l3,-19l1,-20l2,-27l17,1l10,2l36,3l17,2l7,-2l9,1l-3,-6l4,2v11l6,-2v5h14l13,-8l4,-1l4,5l7,3l3,-48l-27,-1l-15,-2l-39,-3l2,-15l12,1l7,-32l9,-29l-1,-2l2,-27l6,1h42l13,1l-1,11l4,3l10,-2l3,-5l4,3v-6l6,-4l-2,6l8,4l2,12l-2,4l-1,4l10,3l-1,5h-1h1h-8l-5,-6l-2,1v-6h-19l1,4l-1,6l1,4l3,5v11h7l2,-6l3,2l3,4l2,-8h5v6h4v-1v1l3,-1l2,1l-2,-1l-1,-13l5,1l-2,7l10,9l2,4l-5,14l-4,-2l1,-2l-2,-11l4,-1l-8,-3l-3,5l3,13h-2l-3,4h12l3,-4l7,-1l-4,-4h4l2,-6l4,3l12,1v-4l8,1v-13h-3v-8h6l39,3h26l8,2l38,2l15,1l-2,24l20,1l-1,11l21,2h22l34,2h12v24h12l-1,21l-4,-1l-21,1l-2,13l3,1v13h-11v-2l-12,-1v10l-5,2l-1,31l7,8v8l-25,-1l-2,-1l-2,24l-28,-1l-35,-3h-8l-1,24l-2,23l-23,-2l2,-26l-23,-2l-2,-11l-22,-1l1,-4l-23,-2v-7l-25,-1l-6,-4l-4,-11l4,-4l-10,-10l-3,-7l-25,11l-5,7l-12,-3l4,-2l-7,-3l-4,5l-3,-3l-1,10l-10,-1l-3,-5l-18,-1l1,-2l3,-13l-17,-1h-28l-11,7l-21,18l-8,4l-6,12h-5v-7h-6l-26,-3Z"/><path data-race-id="OH16" d="M572,290h30l1,-19h37v-20h-10l1,6l-15,1l-2,-6l3,-7l5,1l-1,-11l19,-1v-7l-9,3l-2,-6v-9h-8v-20h-18v-34h24l4,7l-6,9h-4v9l-3,4l3,3l8,-1l-1,-8h10l1,-7l13,8l7,-1v10h-4l1,20h3v37h11l-2,6h6l6,4v15l-10,6l-3,7l8,-3l2,4h22l6,-9l7,-3l7,1v-3l-5,-5l5,-2l-1,-10h3l7,-2l-1,-5l1,-2h48l1,19h-19v20h-32v6l-1,17l-4,-1v12l-8,4v19h5l-5,6h-5l1,-12l-6,-6h-30l-5,-1v41l-21,1h-74v-60l-1,-1Z"/>  <path class="mesh" d="M392,579h-4v-6h-5l-2,8l-3,-4l-3,-2l-2,6h-7v-11l-3,-5l-1,-4l1,-6l-1,-4h19v6l2,-1l5,6h8l1,-5l-10,-3l1,-4l2,-4l7,2v-32l6,1v7l6,-1l8,5l14,2l-1,3v1l-1,3l4,-2l1,6l-7,-1l-6,8h18l1,-7l4,-2v13l-3,16h-6v8h3v13l-8,-1v4l-12,-1l-4,-3l-2,6h-4l4,4l-7,1l-3,4h-12l3,-4h2l-3,-13l3,-5l8,3l-4,1l2,11l-1,2l4,2l5,-14l-2,-4l-10,-9l2,-7l-5,-1l1,13l2,1l-2,-1l-3,1v-1M190,747l-16,-1l-35,-4l-8,-1l-1,5l4,1l-7,7l1,5h7l-3,5l-7,10l-4,3l-6,-2l-1,-8l4,-1l1,-11l-4,-1l4,-13l-5,-1l-3,8l-4,4l-11,-2l4,-7h-5l-8,-2l-10,-1l-3,18l9,-2l-2,4l9,-1l7,-2l3,3l-3,9l-3,1l2,8l-8,3l1,5M80,412l1,-1v-3l6,-4v1h1h-1h2h-1l4,-4v-2l14,-1v-30h12v-34h12v-12h46v-11h23v-4l23,1v54l-1,18v31l20,1l21,2l27,2l4,2h21v-47h22v-4h40v-77h-62v-70l1,-2v-28l1,-2v-33h15l1,11h30v1h24M283,94l-2,11h-5v8l-14,-3l-1,10l6,7l6,-2l3,4l7,-4l-1,3l5,-5h75v24h23v7M385,155v12M418,174h11v18l11,1h40l14,1h34v1h16v-17l20,1l3,-7l3,6l6,-2v-7l-6,-2v-6h13v47l2,5l12,-5l-5,10h-7l-2,-3h-20v20h-35v-3h-73l-3,-1h-21v53l1,5h21v37l-1,4v34h-26v17l-20,1v2l-5,2l1,4h-12l-7,3v21h-27l1,4l-9,1v15l-1,16v38h15v36h-6l-13,-1h-42l-6,-1l-2,27l-24,-1l-10,-2l-21,-1l-32,-4l-18,-1l2,-38l-14,-2l-19,-1l-6,-2h-43v-42l-4,-1l1,-24l-24,-1l-1,-17l-14,-2l-3,7h-5v8l-23,-1M25,731l35,1l1,-2l18,1l41,6l1,-17l2,-17v-17l2,-18l-6,2v-12h16l34,4l28,2l-2,27l-1,20l-3,19l-1,17h3l26,3h6v7h5l6,-12l8,-4l21,-18l11,-7h28l17,1l-3,13l-1,2l18,1l3,5l10,1l1,-10l3,3l4,-5l7,3l-4,2l12,3l5,-7l25,-11l3,7l10,10l-4,4l4,11l6,4l25,1v7l-1,12l-4,-1l-2,28v12l-2,19l-19,-2l-30,-1l1,8l4,5l1,8l-17,-2l7,6v5h-3l3,15l13,-3l-4,-10l23,1l-4,4v12h11v7M445,761l23,2l-1,4l22,1l2,11l23,2l-2,26l23,2l2,-23l1,-24h8l35,3l28,1l2,-24l2,1l25,1v-8l-7,-8l1,-31l5,-2v-10l12,1v2h11v-13l-3,-1l2,-13l21,-1l4,1l1,-21h-12v-24h-12l1,-23v-24h-7l-15,-1h-25l-11,-1l-2,-2h-1h1l1,-7l1,-10h-35l-9,-1l1,-8v-24l1,-6h52l1,1h35l7,1h9v-19h9l1,-13v-25h22v-9l9,-4v-6h23v-9l-2,-2h18v-23l-11,-1v-22h15l1,-19l8,-2h22v-35l-1,-10v-24h17v-19l14,-1h43l1,19l38,-1M583,161h20v34h18v20h8v9l2,6l9,-3v7l-19,1l1,11l-5,-1l-3,7l2,6l15,-1l-1,-6h10v20h-37l-1,19h-30v24l1,1v60h74l21,-1v-41l5,1h30l6,6l-1,12h5l5,-6h-5v-19l8,-4v-12l4,1l1,-17v-6h35l-1,23l15,2l5,-2M562,509v-17l-2,-3h-44l-13,-1l-2,-6h-14l-16,-2l-24,-1l2,-19l20,1l1,-31l2,-16l-3,-7h54l8,-1l-1,-22h-23v-24h-7l-1,-4h7l-1,-1l-4,-3l4,-5h-5l-1,-14l-8,-2l-2,12h-5v18l-24,-1v4h-8M293,549l1,2l-9,29l-7,32l-12,-1l-20,-2v-3l-17,-2v-6l-23,-2v-4l-23,-3v-7l-19,-1l-3,-3l1,-8h-66v40h-1v47l24,1M642,157v5l15,3l2,5v14l-7,1l-13,-8l-1,7h-10l1,8l-8,1l-3,-3l3,-4v-9h4l6,-9l-4,-7h-24M266,611l-2,15l39,3l15,2l27,1l-3,48l-7,-3l-4,-5l-4,1l-13,8h-14v-5l-6,2v-11l-4,-2l3,6l-9,-1l-7,2l-17,-2l-36,-3l-10,-2l-17,-1M697,120l1,16v8h-4l-1,10h14l1,11l-4,1v7l-6,2v11l7,3l1,5h-13l-5,-10l-8,1l-9,-8l-7,3v14h4v10h-6v10h17l1,33l-6,4h12l1,4l-6,1l2,5h18l1,6l-4,-3l-3,1l-2,5h7l3,10l-7,-2v-6l-8,3l-5,-4l-2,6l-1,-1v-15l-6,-4h-6l2,-6h-11v-37h-3l-1,-20h4v-10M661,616l-34,-2h-22l-21,-2l1,-11l-20,-1l2,-24l-15,-1l-38,-2l-8,-2h-26l-39,-3M390,546l-2,-12l-8,-4l2,-6l-6,4v6l-4,-3l-3,5l-10,2l-4,-3l1,-11M679,214l4,-1l7,2l3,12h6v6h-8l1,5l-6,4l3,2l4,3l5,-6l5,2l4,11h7l4,-4v-37h18v20l21,-1v-19h38v-20h24l1,-1h26l9,-4l-2,11v13l19,-1l-1,-20l16,-1l4,5M758,289v-20h19l-1,-19h-48l-1,2l1,5l-7,2h-3l1,10l-5,2l5,5v3l-7,-1l-7,3l-6,9h-22l-2,-4l-8,3l3,-7l10,-6M395,562h1"/></svg>