<svg version="1.1" xmlns="http://www.w3.org/2000/svg" width="1000" height="486" viewBox="0 0 1000 486"><path data-race-id="OK01" d="M761,133h2l23,-1h7v-27l-1,-9v-28h-1v-34l-1,-16h14v-1h10v8h-3l1,11v31l1,2v37l4,1l1,12l2,6l2,-1l1,1v6h13l4,4v7h16l25,-1l-3,12l-4,2v11l5,3l-3,8h-12l-5,2h-7l-9,2l-2,4l-6,-3l-1,-7l-1,-2h-38l-4,1h-12l-1,-8l3,-4l4,-5l6,-1l-1,-12l-29,1Z"/><path data-race-id="OK02" d="M691,420v-14h4v-22h6v-24h5l36,-1v-23l11,-1v-12l-1,-22l-6,2l-3,1l-1,-28h6l-1,-24v-24l-5,5l-9,-1l3,7h-1l-8,-1l-1,-9v-24l48,-1l-1,-30h18l4,-1h38l1,2l1,7l6,3l2,-4l9,-2h7l5,-2h12l3,-8l-5,-3v-11l4,-2l3,-12l-25,1h-16v-7l-4,-4h-13v-6l-1,-1l-2,1l-2,-6l-1,-12l-4,-1v-37l-1,-2v-31l-1,-11h3v-8h19l5,-1h20l5,-1h25v-1h39l1,-1h12v2l1,3v21l1,4v17l1,2v19l1,1v5h1v6h1v5l1,1v4l1,4v2l1,1v5h1v5l1,2v2l1,2v4l1,1v4l1,2v2l1,2v10l1,1v4h1v5l1,1v2l1,3v5h1v5l1,1v4l1,1v3l1,2v5h1v5h1v5l1,1v4l1,1v5l1,1v3l1,4v2l1,1v4l1,1v1l-1,1l1,1v51l1,3v54l1,5v48l1,2v47h1v27l-1,1v1h-1l-2,-1v2h-1l-1,-1l1,-1h1v-1h-2v1l-2,1h-2v-4v1l-2,1l1,-2l1,-1h1v-1h-1l-1,1v-1h-1l1,-1h-1v-1h-1v2l-1,1l-2,-2h-1l-1,2l-1,-1v-1h-1v-1l-1,-1l-1,1l-1,1h-3v-2h1v-1l-1,-1l-2,1l1,1v2l-1,-1h-1l-1,-1l-1,-1l1,-1h1v-2h-1v2h-2l1,-1v-2l-1,1h-2l-1,-1v-1h2l1,-1v-1h-1l-3,3h-3v-4h-1v1l1,1v3v-1l-6,-2v-1l-1,-1h-2l-1,-1l-1,-1h-1l1,-2v-3l-1,-1h-1l1,1v2h-3l-1,-1l1,-1v-1h-1l-1,-1v-1l-1,-1v-1h-1v1h-1v-1h-6l-1,-2l-1,-1v-3l-1,1h-1l1,1v-1h-1l1,-1h1v-1l-1,-1l-1,1v5h-1l-1,-1l-1,-1l1,-1h1l1,-1v-2h-1l-4,3v-1h-1v-1l1,-1v-1h-4l-2,-2l-2,-1l-3,-1h-1v1l-1,1l-2,2l-1,7v-1l-1,-3h-1v1l-1,1l1,3h-6v1l-9,1l-2,-1h-8v-3l-3,2h-1l-1,-1v-3l-2,-3h-4l-1,1l-2,1l-2,2h-3v1l-2,2h-2l-2,-1h-2l-2,2v1l-6,2h-1l-2,4l-5,-4l-4,-3h-2v2l-1,2h-5v-1h-1l-1,-1v2h1v1h-1v1h-1v-2h-1v1l-1,2h-2l-2,-1h-2l-1,1l-2,1l-4,2l-3,2l-2,7l-9,-2l-3,1l-1,6v1l-1,2l-2,1l-2,1l-1,-1v-3l-1,-2l-2,-1l-1,-1l-1,-2l-1,-1v-1l-1,-1h-5l-1,1h-3l-1,-1l-1,-1v-3l-1,-1v-1l-2,1h-3l-1,-1l-3,-1l-1,-1h-1v-2l1,-1l1,-1h1l1,-1l1,-1v-1h-2l-7,-3l-5,9l-7,3l-5,-6l-4,1l-3,-1l-3,-7v-2l-4,-2v-7h-4Z"/><path data-race-id="OK03" d="M25,50l2,-24v-14l18,1h10l8,1l31,1l37,2h22l20,1h24l9,1h46l1,1h101l23,1h36l22,1h125l36,-1h58l8,-1h51l33,-1h24v-1h20l1,16v34h1v28l1,9v27h-7l-23,1h-2v12l29,-1l1,12l-6,1l-4,5l-3,4l1,8h-6l1,30l-48,1v24h-3l-54,1v-25l-1,-11l-4,1h-55l1,16v28h-11v4l-7,5l-3,-3l-9,1l-8,-3h-8v71h-82v36h-20v-6h-11l2,6l-9,1l-7,12l-1,15l3,7h-1v-1h-1l-1,1v-3h-1v-1h-1v-1h1h-1v-1l-1,1v-1h-1v-1h1v-1h-1v-1h1h-1v-1v1h-1v-2h-2l-1,1h-1l-4,-6h-1v-1h-3l-1,2v3h-1h1v1l1,1h-1v1l-1,2l1,1h-3l-1,-1v1l-1,1l-1,-2l-1,1l-1,-2h-1l-1,-1h-1v-1h-2v-1h-6v-1l-2,1l-1,1v3h-1v1h-11l-2,-1v-3h-1l-1,-1h-1l-2,-1v-1l-1,-1l-1,-1h-1v-1h-1v-2h-1v-1l-1,-1v-2l-1,-1h-1l-1,-1h-1v-1h-1v-1h-1v-1h-1v-2h-1v-1h-2v-1h-1l-1,-1v-1h-1l-1,-1h-2l-1,1v2h-4v-7l1,-10v-48l1,-20v-55l1,-41v-41l1,-10v-33h-28l-11,-1h-22l-28,-1h-30l-36,-1h-7l-34,-1h-6l-10,-1h-11l-12,-1h-23l-42,-2h-8l-21,-1v-22Z"/><path data-race-id="OK04" d="M451,344h11v6h20v-36h82v-71h8l8,3l9,-1l3,3l7,-5v-4h11v4l28,-1v-14l7,-2h10l-2,9l-4,1v6h20v28h1v33l2,-1l12,4l10,-8l5,4l9,-1l3,5h1l3,5h6l-1,-10l6,5l7,-3l7,7l3,-6l3,-1l6,-2l1,22v12l-11,1v23l-36,1h-5v24h-6v22h-4v14l1,8h4v7l-1,1l-2,1l-1,1l-2,-2l1,-1h-1l-1,1v4h1v5l-1,1l-1,1l-2,3l-1,1h-1v1l-1,-3l-2,-1l-1,1h-1v2l2,1h1l2,1v1h-2l-2,1h-1v1l-1,2l1,2v5l-1,1l-1,1v1h-2l-3,-1l-2,-1l-1,-1v-1l-1,-1l-1,-1v-2l-1,-1l-1,-3l1,-3v-1h3l1,-1v-1l-1,-1v-2h-1v-3l-1,-1l-1,-1h-1v-1h-2v1h-2v5l-1,1h-4l-1,-2l-1,-1l-1,1v2l-2,2v-3l1,-1h-2v3l-1,1v1l-1,1v1l-2,2h-5l-1,-1l-3,-4v-2h1v-3l-1,-2l-3,-1l-1,-1h-2l-1,1h-1l-1,1l-2,1l-4,-1v-1h-1l1,-2l-1,-2h1v-2h-1v-1l-1,-1h-2l-1,-1h-2l-2,-1h-3v1h-1v2l-1,1l-2,2v1h-2l-2,1h1v2h-2v-1h-1v4h-1v-1h-1v2l-1,1l-1,-1v1l-1,2l-1,1h-1l-2,1h-3v-1h-1l-1,-1l-1,-1h-1l-1,-1h-2l-3,-4h2v-1l1,-1v-2h-1l-1,-1l1,-1v-1l1,-1l1,-2v-1h-1l-2,-1v-1h-2l-1,1h-1l-2,1h-2l-2,-1h-2l-1,-1v-2h-1l-1,-1l1,-1h1v-1l-2,-1l-1,-2h-1v-3l1,-1l1,-1l1,-1v-3l-1,-2l-3,-1h-1v1h-1v2l-1,1l-1,1h-5l-1,-1h-2v-1l-1,-1v1h-7v-1h-1v-1h-1v-1h-7v1h-1v1l1,1h-2v1h-1l1,1v2h-1v3h-4v1h-2l-3,1h-1v-1h-1l-1,-1v-1l-1,-1h-1v-1l-1,-1l-1,-1h-1v-1h1v-1h-2v-1l-1,-1l-1,-1l-1,-1h-1v1h-2l-1,-1h-2l-1,1h-2v1l-1,1l-1,1h-1v-1l-1,1h-1v-1h-2v1l-1,1h-1v-1l-1,-1h-1l-1,-1h-2l-1,-1h-1l-1,-1h-1v1l-1,-1h-2v1h-2l1,-1v-1h-3v-1h-2l-2,-2v-1l-1,-1h-1v-1h-1v2h-1l-1,-1v-2h-3v1l-2,1h-2l-1,1h-2v-1h-1v-1h-1l-1,1l-1,-1v1h-2v1l-1,-1v-2h-1l-1,1v1h-2v-1v1l-1,-1h-2v-3l-1,-1l1,-2l-1,-1v-3h-2l1,-1v-1h-1v-1l1,-1v-1l-1,-1v-1h1l-3,-7l1,-15l7,-12l9,-1Z"/><path data-race-id="OK05" d="M609,195h55l4,-1l1,11v25l54,-1h3l1,9l8,1h1l-3,-7l9,1l5,-5v24l1,24h-6l1,28l-3,6l-7,-7l-7,3l-6,-5l1,10h-6l-3,-5h-1l-3,-5l-9,1l-5,-4l-10,8l-12,-4l-2,1v-33h-1v-28h-20v-6l4,-1l2,-9h-10l-7,2v14l-28,1v-32Z"/>  <path class="mesh" d="M814,17v8h-3l1,11v31l1,2v37l4,1l1,12l2,6l2,-1l1,1v6h13l4,4v7h16l25,-1l-3,12l-4,2v11l5,3l-3,8h-12l-5,2h-7l-9,2l-2,4l-6,-3l-1,-7l-1,-2h-38l-4,1h-12l-1,-8l3,-4l4,-5l6,-1l-1,-12l-29,1v-12h2l23,-1h7v-27l-1,-9v-28h-1v-34l-1,-16M696,435v-7h-4l-1,-8v-14h4v-22h6v-24h5l36,-1v-23l11,-1v-12l-1,-22l-6,2l-3,1l-1,-28h6l-1,-24v-24l-5,5l-9,-1l3,7h-1l-8,-1l-1,-9v-24l48,-1l-1,-30h6M726,229h-3l-54,1v-25l-1,-11l-4,1h-55l1,16v28h-11v4l-7,5l-3,-3l-9,1l-8,-3h-8v71h-82v36h-20v-6h-11l2,6l-9,1l-7,12l-1,15l3,7M610,239v4l28,-1v-14l7,-2h10l-2,9l-4,1v6h20v28h1v33l2,-1l12,4l10,-8l5,4l9,-1l3,5h1l3,5h6l-1,-10l6,5l7,-3l7,7l3,-6"/></svg>