<svg version="1.1" xmlns="http://www.w3.org/2000/svg" width="1000" height="486" viewBox="0 0 1000 486">
  <path d="M351 20
h 3
l 23 1
h 36
l 22 1
h 125
l 36 -1
h 58
l 8 -1
h 51
l 33 -1
h 24
v -1
h 34
v -1
h 29
l 5 -1
h 20
l 5 -1
h 25
v -1
h 39
l 1 -1
h 12
v 2
l 1 3
v 21
l 1 4
v 17
l 1 2
v 19
l 1 1
v 5
h 1
v 6
h 1
v 5
l 1 1
v 4
l 1 4
v 2
l 1 1
v 5
h 1
v 5
l 1 2
v 2
l 1 2
v 4
l 1 1
v 4
l 1 2
v 2
l 1 2
v 10
l 1 1
v 4
h 1
v 5
l 1 1
v 2
l 1 3
v 5
h 1
v 5
l 1 1
v 4
l 1 1
v 3
l 1 2
v 5
h 1
v 5
h 1
v 5
l 1 1
v 4
l 1 1
v 5
l 1 1
v 3
l 1 4
v 2
l 1 1
v 4
l 1 1
v 1
l -1 1
l 1 1
v 51
l 1 3
v 54
l 1 5
v 48
l 1 2
v 47
h 1
v 27
l -1 1
v 1
h -1
l -2 -1
v 2
h -1
l -1 -1
l 1 -1
h 1
v -1
h -2
v 1
l -2 1
h -2
v -4
v 1
l -2 1
l 1 -2
l 1 -1
h 1
v -1
h -1
l -1 1
v -1
h -1
l 1 -1
h -1
v -1
h -1
v 2
l -1 1
l -2 -2
h -1
l -1 2
l -1 -1
v -1
h -1
v -1
l -1 -1
l -1 1
l -1 1
h -3
v -2
h 1
v -1
l -1 -1
l -2 1
l 1 1
v 2
l -1 -1
h -1
l -1 -1
l -1 -1
l 1 -1
h 1
v -2
h -1
v 2
h -2
l 1 -1
v -2
l -1 1
h -2
l -1 -1
v -1
h 2
l 1 -1
v -1
h -1
l -3 3
h -3
v -4
h -1
v 1
l 1 1
v 3
v -1
l -6 -2
v -1
l -1 -1
h -2
l -1 -1
l -1 -1
h -1
l 1 -2
v -3
l -1 -1
h -1
l 1 1
v 2
h -3
l -1 -1
l 1 -1
v -1
h -1
l -1 -1
v -1
l -1 -1
v -1
h -1
v 1
h -1
v -1
h -6
l -1 -2
l -1 -1
v -3
l -1 1
h -1
l 1 1
v -1
h -1
l 1 -1
h 1
v -1
l -1 -1
l -1 1
v 5
h -1
l -1 -1
l -1 -1
l 1 -1
h 1
l 1 -1
v -2
h -1
l -4 3
v -1
h -1
v -1
l 1 -1
v -1
h -4
l -2 -2
l -2 -1
l -3 -1
h -1
v 1
l -1 1
l -2 2
l -1 7
v -1
l -1 -3
h -1
v 1
l -1 1
l 1 3
h -6
v 1
l -9 1
l -2 -1
h -8
v -3
l -3 2
h -1
l -1 -1
v -3
l -2 -3
h -4
l -1 1
l -2 1
l -2 2
h -3
v 1
l -2 2
h -2
l -2 -1
h -2
l -2 2
v 1
l -6 2
h -1
l -2 4
l -5 -4
l -4 -3
h -2
v 2
l -1 2
h -5
v -1
h -1
l -1 -1
v 2
h 1
v 1
h -1
v 1
h -1
v -2
h -1
v 1
l -1 2
h -2
l -2 -1
h -2
l -1 1
l -2 1
l -4 2
h -1
l -2 2
l -2 7
l -9 -2
l -3 1
l -1 6
v 1
l -1 2
l -2 1
l -2 1
l -1 -1
v -3
l -1 -2
l -2 -1
l -1 -1
l -1 -2
l -1 -1
v -1
l -1 -1
h -5
l -1 1
h -3
l -1 -1
l -1 -1
v -3
l -1 -1
v -1
l -2 1
h -3
l -1 -1
l -3 -1
l -1 -1
h -1
v -2
l 1 -1
l 1 -1
h 1
l 1 -1
l 1 -1
v -1
h -2
l -7 -3
l -5 9
l -7 3
l -5 -6
l -4 1
l -3 -1
l -3 -7
v -2
l -5 -1
l -2 1
l -1 1
l -2 -2
l 1 -1
h -1
l -1 1
v 4
h 1
v 5
l -1 1
l -1 1
l -2 3
l -1 1
h -1
v 1
l -1 -3
l -2 -1
l -1 1
h -1
v 2
l 2 1
h 1
l 2 1
v 1
h -2
l -2 1
h -1
v 1
l -1 2
l 1 2
v 5
l -1 1
l -1 1
v 1
h -2
l -3 -1
l -2 -1
l -1 -1
v -1
l -1 -1
l -1 -1
v -2
l -1 -1
l -1 -3
l 1 -3
v -1
h 3
l 1 -1
v -1
l -1 -1
v -2
h -1
v -3
l -1 -1
l -1 -1
h -1
v -1
h -2
v 1
h -2
v 5
l -1 1
h -4
l -1 -2
l -1 -1
l -1 1
v 2
l -2 2
v -3
l 1 -1
h -2
v 3
l -1 1
v 1
l -1 1
v 1
l -2 2
h -5
l -1 -1
l -3 -4
v -2
h 1
v -3
l -1 -2
l -3 -1
l -1 -1
h -2
l -1 1
h -1
l -1 1
l -2 1
l -4 -1
v -1
h -1
l 1 -2
l -1 -2
h 1
v -2
h -1
v -1
l -1 -1
h -2
l -1 -1
h -2
l -2 -1
h -3
v 1
h -1
v 2
l -1 1
l -2 2
v 1
h -2
l -2 1
h 1
v 2
h -2
v -1
h -1
v 4
h -1
v -1
h -1
v 2
l -1 1
l -1 -1
v 1
l -1 2
l -1 1
h -1
l -2 1
h -3
v -1
h -1
l -1 -1
l -1 -1
h -1
l -1 -1
h -2
l -3 -4
h 2
v -1
l 1 -1
v -2
h -1
l -1 -1
l 1 -1
v -1
l 1 -1
l 1 -2
v -1
h -1
l -2 -1
v -1
h -2
l -1 1
h -1
l -2 1
h -2
l -2 -1
h -2
l -1 -1
v -2
h -1
l -1 -1
l 1 -1
h 1
v -1
l -2 -1
l -1 -2
h -1
v -3
l 1 -1
l 1 -1
l 1 -1
v -3
l -1 -2
l -3 -1
h -1
v 1
h -1
v 2
l -1 1
l -1 1
h -5
l -1 -1
h -2
v -1
l -1 -1
v 1
h -7
v -1
h -1
v -1
h -1
v -1
h -7
v 1
h -1
v 1
l 1 1
h -2
v 1
h -1
l 1 1
v 2
h -1
v 3
h -4
v 1
h -2
l -3 1
h -1
v -1
h -1
l -1 -1
v -1
l -1 -1
h -1
v -1
l -1 -1
l -1 -1
h -1
v -1
h 1
v -1
h -2
v -1
l -1 -1
l -1 -1
l -1 -1
h -1
v 1
h -2
l -1 -1
h -2
l -1 1
h -2
v 1
l -1 1
l -1 1
h -1
v -1
l -1 1
h -1
v -1
h -2
v 1
l -1 1
h -1
v -1
l -1 -1
h -1
l -1 -1
h -2
l -1 -1
h -1
l -1 -1
h -1
v 1
l -1 -1
h -2
v 1
h -2
l 1 -1
v -1
h -3
v -1
h -2
l -2 -2
v -1
l -1 -1
h -1
v -1
h -1
v 2
h -1
l -1 -1
v -2
h -3
v 1
l -2 1
h -2
l -1 1
h -2
v -1
h -1
v -1
h -1
l -1 1
l -1 -1
v 1
h -2
v 1
l -1 -1
v -2
h -1
l -1 1
v 1
h -2
v -1
v 1
l -1 -1
h -2
v -3
l -1 -1
l 1 -2
l -1 -1
v -3
h -2
l 1 -1
v -1
h -1
v -1
l 1 -1
v -1
l -1 -1
v -2
h -1
l -1 1
v -3
h -1
v -1
h -1
v -1
h 1
h -1
v -1
l -1 1
v -1
h -1
v -1
h 1
v -1
h -1
v -1
h 1
h -1
v -1
v 1
h -1
v -2
h -2
l -1 1
h -1
l -4 -6
h -1
v -1
h -3
l -1 2
v 3
h -1
h 1
v 1
l 1 1
h -1
v 1
l -1 2
l 1 1
h -3
l -1 -1
v 1
l -1 1
l -1 -2
l -1 1
l -1 -2
h -1
l -1 -1
h -1
v -1
h -2
v -1
h -6
v -1
l -2 1
l -1 1
v 3
h -1
v 1
h -11
l -2 -1
v -3
h -1
l -1 -1
h -1
l -2 -1
v -1
l -1 -1
l -1 -1
h -1
v -1
h -1
v -2
h -1
v -1
l -1 -1
v -2
l -1 -1
h -1
l -1 -1
h -1
v -1
h -1
v -1
h -1
v -1
h -1
v -2
h -1
v -1
h -2
v -1
h -1
l -1 -1
v -1
h -1
l -1 -1
h -2
l -1 1
v 2
h -4
v -7
l 1 -10
v -48
l 1 -20
v -55
l 1 -41
v -41
l 1 -10
v -33
h -28
l -11 -1
h -22
l -28 -1
h -30
l -36 -1
h -7
l -34 -1
h -6
l -10 -1
h -11
l -12 -1
h -12
l -53 -2
h -8
l -21 -1
v -30
l 2 -24
v -14
l 18 1
h 10
l 76 4
h 22
l 20 1
h 24
l 9 1
h 46
l 1 1
h 81
Z"/>
<g class="districts">
<path data-race-id="OK01" d="M761 133
h 2
l 23 -1
h 7
v -27
l -1 -9
v -28
h -1
v -34
l -1 -16
h 14
v -1
h 10
v 8
h -3
l 1 11
v 31
l 1 2
v 37
l 4 1
l 1 12
l 2 6
l 2 -1
l 1 1
v 6
h 13
l 4 4
v 7
h 16
l 25 -1
l -3 12
l -4 2
v 11
l 5 3
l -3 8
h -12
l -5 2
h -7
l -9 2
l -2 4
l -6 -3
l -1 -7
l -1 -2
h -38
l -4 1
h -12
l -1 -8
l 3 -4
l 4 -5
l 6 -1
l -1 -12
l -29 1
Z"/>
<path data-race-id="OK02" d="M691 420
v -14
h 4
v -22
h 6
v -24
h 5
l 36 -1
v -23
l 11 -1
v -12
l -1 -22
l -6 2
l -3 1
l -1 -28
h 6
l -1 -24
v -24
l -5 5
l -9 -1
l 3 7
h -1
l -8 -1
l -1 -9
v -24
l 48 -1
l -1 -30
h 18
l 4 -1
h 38
l 1 2
l 1 7
l 6 3
l 2 -4
l 9 -2
h 7
l 5 -2
h 12
l 3 -8
l -5 -3
v -11
l 4 -2
l 3 -12
l -25 1
h -16
v -7
l -4 -4
h -13
v -6
l -1 -1
l -2 1
l -2 -6
l -1 -12
l -4 -1
v -37
l -1 -2
v -31
l -1 -11
h 3
v -8
h 19
l 5 -1
h 20
l 5 -1
h 25
v -1
h 39
l 1 -1
h 12
v 2
l 1 3
v 21
l 1 4
v 17
l 1 2
v 19
l 1 1
v 5
h 1
v 6
h 1
v 5
l 1 1
v 4
l 1 4
v 2
l 1 1
v 5
h 1
v 5
l 1 2
v 2
l 1 2
v 4
l 1 1
v 4
l 1 2
v 2
l 1 2
v 10
l 1 1
v 4
h 1
v 5
l 1 1
v 2
l 1 3
v 5
h 1
v 5
l 1 1
v 4
l 1 1
v 3
l 1 2
v 5
h 1
v 5
h 1
v 5
l 1 1
v 4
l 1 1
v 5
l 1 1
v 3
l 1 4
v 2
l 1 1
v 4
l 1 1
v 1
l -1 1
l 1 1
v 51
l 1 3
v 54
l 1 5
v 48
l 1 2
v 47
h 1
v 27
l -1 1
v 1
h -1
l -2 -1
v 2
h -1
l -1 -1
l 1 -1
h 1
v -1
h -2
v 1
l -2 1
h -2
v -4
v 1
l -2 1
l 1 -2
l 1 -1
h 1
v -1
h -1
l -1 1
v -1
h -1
l 1 -1
h -1
v -1
h -1
v 2
l -1 1
l -2 -2
h -1
l -1 2
l -1 -1
v -1
h -1
v -1
l -1 -1
l -1 1
l -1 1
h -3
v -2
h 1
v -1
l -1 -1
l -2 1
l 1 1
v 2
l -1 -1
h -1
l -1 -1
l -1 -1
l 1 -1
h 1
v -2
h -1
v 2
h -2
l 1 -1
v -2
l -1 1
h -2
l -1 -1
v -1
h 2
l 1 -1
v -1
h -1
l -3 3
h -3
v -4
h -1
v 1
l 1 1
v 3
v -1
l -6 -2
v -1
l -1 -1
h -2
l -1 -1
l -1 -1
h -1
l 1 -2
v -3
l -1 -1
h -1
l 1 1
v 2
h -3
l -1 -1
l 1 -1
v -1
h -1
l -1 -1
v -1
l -1 -1
v -1
h -1
v 1
h -1
v -1
h -6
l -1 -2
l -1 -1
v -3
l -1 1
h -1
l 1 1
v -1
h -1
l 1 -1
h 1
v -1
l -1 -1
l -1 1
v 5
h -1
l -1 -1
l -1 -1
l 1 -1
h 1
l 1 -1
v -2
h -1
l -4 3
v -1
h -1
v -1
l 1 -1
v -1
h -4
l -2 -2
l -2 -1
l -3 -1
h -1
v 1
l -1 1
l -2 2
l -1 7
v -1
l -1 -3
h -1
v 1
l -1 1
l 1 3
h -6
v 1
l -9 1
l -2 -1
h -8
v -3
l -3 2
h -1
l -1 -1
v -3
l -2 -3
h -4
l -1 1
l -2 1
l -2 2
h -3
v 1
l -2 2
h -2
l -2 -1
h -2
l -2 2
v 1
l -6 2
h -1
l -2 4
l -5 -4
l -4 -3
h -2
v 2
l -1 2
h -5
v -1
h -1
l -1 -1
v 2
h 1
v 1
h -1
v 1
h -1
v -2
h -1
v 1
l -1 2
h -2
l -2 -1
h -2
l -1 1
l -2 1
l -4 2
l -3 2
l -2 7
l -9 -2
l -3 1
l -1 6
v 1
l -1 2
l -2 1
l -2 1
l -1 -1
v -3
l -1 -2
l -2 -1
l -1 -1
l -1 -2
l -1 -1
v -1
l -1 -1
h -5
l -1 1
h -3
l -1 -1
l -1 -1
v -3
l -1 -1
v -1
l -2 1
h -3
l -1 -1
l -3 -1
l -1 -1
h -1
v -2
l 1 -1
l 1 -1
h 1
l 1 -1
l 1 -1
v -1
h -2
l -7 -3
l -5 9
l -7 3
l -5 -6
l -4 1
l -3 -1
l -3 -7
v -2
l -4 -2
v -7
h -4
Z"/>
<path data-race-id="OK03" d="M25 50
l 2 -24
v -14
l 18 1
h 10
l 8 1
l 31 1
l 37 2
h 22
l 20 1
h 24
l 9 1
h 46
l 1 1
h 101
l 23 1
h 36
l 22 1
h 125
l 36 -1
h 58
l 8 -1
h 51
l 33 -1
h 24
v -1
h 20
l 1 16
v 34
h 1
v 28
l 1 9
v 27
h -7
l -23 1
h -2
v 12
l 29 -1
l 1 12
l -6 1
l -4 5
l -3 4
l 1 8
h -6
l 1 30
l -48 1
v 24
h -3
l -54 1
v -25
l -1 -11
l -4 1
h -55
l 1 16
v 28
h -11
v 4
l -7 5
l -3 -3
l -9 1
l -8 -3
h -8
v 71
h -82
v 36
h -20
v -6
h -11
l 2 6
l -9 1
l -7 12
l -1 15
l 3 7
h -1
v -1
h -1
l -1 1
v -3
h -1
v -1
h -1
v -1
h 1
h -1
v -1
l -1 1
v -1
h -1
v -1
h 1
v -1
h -1
v -1
h 1
h -1
v -1
v 1
h -1
v -2
h -2
l -1 1
h -1
l -4 -6
h -1
v -1
h -3
l -1 2
v 3
h -1
h 1
v 1
l 1 1
h -1
v 1
l -1 2
l 1 1
h -3
l -1 -1
v 1
l -1 1
l -1 -2
l -1 1
l -1 -2
h -1
l -1 -1
h -1
v -1
h -2
v -1
h -6
v -1
l -2 1
l -1 1
v 3
h -1
v 1
h -11
l -2 -1
v -3
h -1
l -1 -1
h -1
l -2 -1
v -1
l -1 -1
l -1 -1
h -1
v -1
h -1
v -2
h -1
v -1
l -1 -1
v -2
l -1 -1
h -1
l -1 -1
h -1
v -1
h -1
v -1
h -1
v -1
h -1
v -2
h -1
v -1
h -2
v -1
h -1
l -1 -1
v -1
h -1
l -1 -1
h -2
l -1 1
v 2
h -4
v -7
l 1 -10
v -48
l 1 -20
v -55
l 1 -41
v -41
l 1 -10
v -33
h -28
l -11 -1
h -22
l -28 -1
h -30
l -36 -1
h -7
l -34 -1
h -6
l -10 -1
h -11
l -12 -1
h -23
l -42 -2
h -8
l -21 -1
v -22
Z"/>
<path data-race-id="OK04" d="M451 344
h 11
v 6
h 20
v -36
h 82
v -71
h 8
l 8 3
l 9 -1
l 3 3
l 7 -5
v -4
h 11
v 4
l 28 -1
v -14
l 7 -2
h 10
l -2 9
l -4 1
v 6
h 20
v 28
h 1
v 33
l 2 -1
l 12 4
l 10 -8
l 5 4
l 9 -1
l 3 5
h 1
l 3 5
h 6
l -1 -10
l 6 5
l 7 -3
l 7 7
l 3 -6
l 3 -1
l 6 -2
l 1 22
v 12
l -11 1
v 23
l -36 1
h -5
v 24
h -6
v 22
h -4
v 14
l 1 8
h 4
v 7
l -1 1
l -2 1
l -1 1
l -2 -2
l 1 -1
h -1
l -1 1
v 4
h 1
v 5
l -1 1
l -1 1
l -2 3
l -1 1
h -1
v 1
l -1 -3
l -2 -1
l -1 1
h -1
v 2
l 2 1
h 1
l 2 1
v 1
h -2
l -2 1
h -1
v 1
l -1 2
l 1 2
v 5
l -1 1
l -1 1
v 1
h -2
l -3 -1
l -2 -1
l -1 -1
v -1
l -1 -1
l -1 -1
v -2
l -1 -1
l -1 -3
l 1 -3
v -1
h 3
l 1 -1
v -1
l -1 -1
v -2
h -1
v -3
l -1 -1
l -1 -1
h -1
v -1
h -2
v 1
h -2
v 5
l -1 1
h -4
l -1 -2
l -1 -1
l -1 1
v 2
l -2 2
v -3
l 1 -1
h -2
v 3
l -1 1
v 1
l -1 1
v 1
l -2 2
h -5
l -1 -1
l -3 -4
v -2
h 1
v -3
l -1 -2
l -3 -1
l -1 -1
h -2
l -1 1
h -1
l -1 1
l -2 1
l -4 -1
v -1
h -1
l 1 -2
l -1 -2
h 1
v -2
h -1
v -1
l -1 -1
h -2
l -1 -1
h -2
l -2 -1
h -3
v 1
h -1
v 2
l -1 1
l -2 2
v 1
h -2
l -2 1
h 1
v 2
h -2
v -1
h -1
v 4
h -1
v -1
h -1
v 2
l -1 1
l -1 -1
v 1
l -1 2
l -1 1
h -1
l -2 1
h -3
v -1
h -1
l -1 -1
l -1 -1
h -1
l -1 -1
h -2
l -3 -4
h 2
v -1
l 1 -1
v -2
h -1
l -1 -1
l 1 -1
v -1
l 1 -1
l 1 -2
v -1
h -1
l -2 -1
v -1
h -2
l -1 1
h -1
l -2 1
h -2
l -2 -1
h -2
l -1 -1
v -2
h -1
l -1 -1
l 1 -1
h 1
v -1
l -2 -1
l -1 -2
h -1
v -3
l 1 -1
l 1 -1
l 1 -1
v -3
l -1 -2
l -3 -1
h -1
v 1
h -1
v 2
l -1 1
l -1 1
h -5
l -1 -1
h -2
v -1
l -1 -1
v 1
h -7
v -1
h -1
v -1
h -1
v -1
h -7
v 1
h -1
v 1
l 1 1
h -2
v 1
h -1
l 1 1
v 2
h -1
v 3
h -4
v 1
h -2
l -3 1
h -1
v -1
h -1
l -1 -1
v -1
l -1 -1
h -1
v -1
l -1 -1
l -1 -1
h -1
v -1
h 1
v -1
h -2
v -1
l -1 -1
l -1 -1
l -1 -1
h -1
v 1
h -2
l -1 -1
h -2
l -1 1
h -2
v 1
l -1 1
l -1 1
h -1
v -1
l -1 1
h -1
v -1
h -2
v 1
l -1 1
h -1
v -1
l -1 -1
h -1
l -1 -1
h -2
l -1 -1
h -1
l -1 -1
h -1
v 1
l -1 -1
h -2
v 1
h -2
l 1 -1
v -1
h -3
v -1
h -2
l -2 -2
v -1
l -1 -1
h -1
v -1
h -1
v 2
h -1
l -1 -1
v -2
h -3
v 1
l -2 1
h -2
l -1 1
h -2
v -1
h -1
v -1
h -1
l -1 1
l -1 -1
v 1
h -2
v 1
l -1 -1
v -2
h -1
l -1 1
v 1
h -2
v -1
v 1
l -1 -1
h -2
v -3
l -1 -1
l 1 -2
l -1 -1
v -3
h -2
l 1 -1
v -1
h -1
v -1
l 1 -1
v -1
l -1 -1
v -1
h 1
l -3 -7
l 1 -15
l 7 -12
l 9 -1
Z"/>
<path data-race-id="OK05" d="M609 195
h 55
l 4 -1
l 1 11
v 25
l 54 -1
h 3
l 1 9
l 8 1
h 1
l -3 -7
l 9 1
l 5 -5
v 24
l 1 24
h -6
l 1 28
l -3 6
l -7 -7
l -7 3
l -6 -5
l 1 10
h -6
l -3 -5
h -1
l -3 -5
l -9 1
l -5 -4
l -10 8
l -12 -4
l -2 1
v -33
h -1
v -28
h -20
v -6
l 4 -1
l 2 -9
h -10
l -7 2
v 14
l -28 1
v -32
Z"/>
</g>
  <path class="districts-mesh" d="M814 17
v 8
h -3
l 1 11
v 31
l 1 2
v 37
l 4 1
l 1 12
l 2 6
l 2 -1
l 1 1
v 6
h 13
l 4 4
v 7
h 16
l 25 -1
l -3 12
l -4 2
v 11
l 5 3
l -3 8
h -12
l -5 2
h -7
l -9 2
l -2 4
l -6 -3
l -1 -7
l -1 -2
h -38
l -4 1
h -12
l -1 -8
l 3 -4
l 4 -5
l 6 -1
l -1 -12
l -29 1
v -12
h 2
l 23 -1
h 7
v -27
l -1 -9
v -28
h -1
v -34
l -1 -16
M696 435
v -7
h -4
l -1 -8
v -14
h 4
v -22
h 6
v -24
h 5
l 36 -1
v -23
l 11 -1
v -12
l -1 -22
l -6 2
l -3 1
l -1 -28
h 6
l -1 -24
v -24
l -5 5
l -9 -1
l 3 7
h -1
l -8 -1
l -1 -9
v -24
l 48 -1
l -1 -30
h 6
M726 229
h -3
l -54 1
v -25
l -1 -11
l -4 1
h -55
l 1 16
v 28
h -11
v 4
l -7 5
l -3 -3
l -9 1
l -8 -3
h -8
v 71
h -82
v 36
h -20
v -6
h -11
l 2 6
l -9 1
l -7 12
l -1 15
l 3 7
M610 239
v 4
l 28 -1
v -14
l 7 -2
h 10
l -2 9
l -4 1
v 6
h 20
v 28
h 1
v 33
l 2 -1
l 12 4
l 10 -8
l 5 4
l 9 -1
l 3 5
h 1
l 3 5
h 6
l -1 -10
l 6 5
l 7 -3
l 7 7
l 3 -6"/>
</svg>