<svg version="1.1" xmlns="http://www.w3.org/2000/svg" width="1000" height="750" viewBox="0 0 1000 750">
  <path d="M187 46
l 14 1
l 4 -6
l 5 -2
h 6
l 1 1
v 1
l 5 3
l 1 1
l 2 1
l 3 2
l 7 6
l 4 2
l 2 4
v 1
l 1 5
l 7 12
l 1 2
l -1 4
l 1 5
l 2 5
v 9
l 2 6
v 19
l 6 3
l 2 2
h 1
l 3 2
l 19 5
l 2 1
l 6 2
l 3 -1
l 4 1
l 1 1
l 1 1
l 1 1
h 9
l 14 -6
l 10 -4
l 10 -4
v -1
h 4
l 1 -1
l 4 -6
l 3 -1
l 4 -2
l 6 2
h 5
l 8 -1
l 7 -1
l 7 -3
l 5 3
l 5 2
l 3 1
l 4 -1
l 4 -1
l 6 4
l 10 3
v 7
l 1 2
h 6
l 2 -3
l 3 -2
h 1
l 1 -2
l 11 1
l 2 -1
h 2
l 3 1
l 1 1
h 2
l 2 -2
l 5 -4
l 8 -2
l 4 -2
l 4 -2
l 1 -1
h 1
l 5 -4
l 9 2
l 8 6
l 10 -1
l 13 -3
l 9 -1
l 2 -4
l 2 -2
l 12 -4
l 2 -1
l 5 -3
l 11 -3
l 5 -1
l 22 -4
l 5 -8
l 3 -2
l 2 -1
l 7 2
h 2
l 8 -1
l 7 -1
h 2
l 3 -2
h 1
l 6 -1
h 3
l 11 1
h 2
l 2 -1
l 18 -10
l 2 -1
h 4
l 26 -1
h 57
l 3 -1
h 21
l 5 -1
h 50
l 1 -1
h 14
l 2 -1
h 15
l 11 -1
h 20
l 5 6
l 1 7
l 9 8
l 1 6
h 8
l 6 7
h 4
l 1 -1
l 10 7
l 1 10
l 8 7
l 1 5
l -6 7
v 1
h -1
v 3
h -1
v 3
l -1 1
h -1
v 9
h -1
v 1
h -2
v 2
h -1
v 5
h -1
l -1 1
v 1
h -1
v 1
l -1 1
v 2
h -1
v 2
h -1
v 4
l -1 1
v 1
l -1 1
v 4
l 1 1
v 2
h -1
v 1
h -1
v 2
h -1
v 2
l -1 1
v 7
h -1
v 4
h -1
v 6
h -1
l -1 1
v 2
h -1
v 2
h -2
l -1 1
v 5
h -1
v 1
h -1
v 2
l -1 1
h -1
v 1
l -1 1
h -1
v 3
h -1
h 1
v 4
h -1
v 2
l -1 1
h 1
v 1
l 2 -1
v 1
h -1
v 2
h -1
h 1
v 3
l 1 1
v 1
l -1 1
v 6
l -1 1
v 1
h -1
v 1
h -1
v 2
h -2
l -1 1
h 1
v 1
l -1 1
l -5 10
h -1
v 1
h -2
v 1
h -1
v 1
h -1
v 1
h -3
v 1
h -1
l -1 1
l -1 1
v 1
l -1 1
h -1
h 1
v 2
l -1 1
h 1
l -1 1
v 1
h -1
v 2
h -1
v 1
h 1
v 1
l -1 1
h -1
v 5
h -1
v 2
h -1
v 1
h -1
v 7
h -1
l -1 1
l -1 1
v 1
h 1
v 3
h -1
v 1
l -1 1
v 1
h -2
v 1
h -1
l -1 1
v 3
h -1
v 1
h -1
v 1
h -1
v 1
l 1 1
v 2
h 1
v 6
h -1
v 3
h -1
v 1
h -1
v 3
h 1
v 2
h 2
v 1
l 1 1
v 1
h 1
v 2
h 1
h -1
v 2
h -1
v 2
h -1
v 5
h 1
l 1 1
h 1
v 1
l 1 1
h 2
l 5 -2
v -1
h 3
l 1 1
v 2
h 1
l 1 1
v 1
h 2
v 3
l 3 -4
l 1 1
h 6
v 8
h 5
l 2 2
h 1
l 2 2
v 1
l -6 12
h -3
v 7
l 2 1
h 1
l 1 1
l 1 1
v 3
l -1 1
v 1
l 1 2
l -1 1
l -3 2
l 2 2
l -1 1
v 2
l 1 1
v 2
h -2
v 1
h -1
l 1 1
v 4
l -1 1
l 1 1
l -1 1
h -3
l -1 1
v 1
l 1 1
v 1
h -1
l -1 1
v 1
l 1 1
v 2
l -1 1
h 1
v 20
l 1 5
v 22
l 1 23
h 1
v 22
l 3 45
l 1 22
v 21
l 1 1
v 22
l 2 45
l 2 22
v 23
l 1 2
l -60 3
l -25 1
l -58 2
h -18
l -19 1
h -17
l -6 1
h -20
l -29 1
h -35
l -16 1
h -211
l -1 -1
l -10 1
h -1
l -13 -1
h -16
l -2 -1
h -17
l -21 -1
h -16
l -9 -1
h -9
l -14 -1
h -60
l -23 -1
h -10
l -5 -1
h -62
l -1 -1
v 1
h -11
l -2 -1
h -17
l -12 -1
h -4
l -6 -1
h -19
l -10 -9
l -7 -9
v -14
l -5 -10
l 1 -8
l -2 -8
l 1 -25
l 5 -10
l -2 -17
l -5 -3
l -1 -8
l -6 -2
l -1 -11
l -3 -5
l 2 -7
l 8 -12
l 4 -10
l 3 -17
l 4 -11
l 2 -10
l -1 -11
l 7 -6
l 3 2
l 7 -12
l 5 -1
v 8
l 6 3
l -6 -13
l -11 7
l 5 -11
l 6 -15
l 2 -10
l 1 -7
l 7 -6
h -5
l 4 -13
l 2 -14
l 2 -13
l 3 -21
v -11
l 2 -4
l 1 -18
v -1
l 4 -16
l 1 -21
l 5 -19
l 4 7
v -8
l -5 -1
l -2 -7
l 3 -6
l -1 -14
l 4 -16
l 3 1
l -1 -11
l 3 -14
h 1
h -1
l 5 -20
v -11
l 2 -7
l -2 -10
l 2 -6
l 4 -3
v -5
l -4 -5
l 3 -11
l 7 10
l 2 -6
l -4 -9
l -5 -2
l 4 -20
l 4 1
l -10 -13
l 2 -4
l 1 -21
l -3 -5
l 7 -8
v -16
l -3 -13
l -4 -7
h 5
l 6 8
l 8 2
l -3 -5
h 13
v 3
h 12
l 6 -2
l 5 -8
h 6
l 6 5
l 1 7
Z"/>
<g class="districts">
<path data-race-id="OR01" d="M205 41
l 5 -2
h 6
l 1 1
v 1
l 5 3
l 1 1
l 2 1
l 3 2
l 7 6
l 4 2
l 2 4
v 1
l 1 5
l 7 12
l 1 2
l -1 4
l 1 5
l 2 5
v 9
l 2 6
v 18
l -4 4
l 2 7
l 10 8
l -2 3
l -5 1
v 4
l 4 -1
l -3 9
l -1 1
v 17
l -13 -2
l -2 4
l 1 10
l -10 -2
l -2 -3
l -5 3
v 7
l -4 13
l 4 5
l -8 6
l -36 -1
h -19
l -21 -2
h -7
l 1 -23
h 19
l 18 2
l 1 -36
l 1 -10
l 7 -9
l 4 1
v -5
h 5
l 3 -5
l -10 -2
l -11 -10
v -5
h 14
l 1 -11
l -42 -1
l -5 -2
l -22 -1
l 1 -21
l -3 -5
l 7 -8
v -16
l -3 -13
l -4 -7
h 5
l 6 8
l 8 2
l -3 -5
h 13
v 3
h 12
l 6 -2
l 5 -8
h 6
l 6 5
l 1 7
l 7 5
l 14 1
Z"/>
<path data-race-id="OR02" d="M162 652
l -2 -4
l 4 -6
l 3 1
l 8 -3
l 6 4
l 2 -1
v -22
l 1 -12
l 10 -8
h 17
l 11 -2
l 15 -1
l 2 -8
l 5 1
l 8 -10
h 5
l 9 -7
v -2
l 11 1
l 8 -9
h 14
v -12
h 23
l 5 -16
l 2 -8
l 7 -6
l -3 -5
v -10
l -6 -5
v -5
l -9 -5
l 1 -20
l 16 -9
l 3 -12
l 1 -11
l -1 -17
l 6 -8
h 8
l 1 -9
l 3 -5
l -1 -8
l 8 -7
l -1 -23
l -4 -5
l -3 -5
v -32
l 4 -5
l 2 -8
v -19
l 1 -2
l -1 -6
l 2 -3
l 3 -3
l -6 -3
l -1 -4
l 8 -4
l 3 -8
l 2 -4
l -5 -5
h -5
l -1 -12
l 3 -4
h 8
l 6 -5
v -9
h -4
l -3 -8
l -2 -6
l 4 -1
l 3 -6
l -2 -1
l 2 -8
l -2 -12
l -8 -4
l -5 -10
l -6 -8
l -4 -2
l 1 -6
l -2 -14
l 1 -1
l 4 -6
l 3 -1
l 4 -2
l 6 2
h 5
l 8 -1
l 7 -1
l 7 -3
l 5 3
l 5 2
l 3 1
l 4 -1
l 4 -1
l 6 4
l 10 3
v 7
l 1 2
h 6
l 2 -3
l 3 -2
h 1
l 1 -2
l 11 1
l 2 -1
h 2
l 3 1
l 1 1
h 2
l 2 -2
l 5 -4
l 8 -2
l 4 -2
l 4 -2
l 1 -1
h 1
l 3 -3
l 2 -1
l 9 2
l 7 6
l 11 -1
l 13 -3
l 9 -1
l 2 -4
l 2 -2
l 12 -4
l 2 -1
l 5 -3
l 11 -3
l 5 -1
l 22 -4
l 5 -8
l 3 -2
l 2 -1
l 7 2
h 2
l 8 -1
l 7 -1
h 2
l 3 -2
h 1
l 6 -1
h 3
l 11 1
h 2
l 2 -1
l 18 -10
l 2 -1
h 4
l 26 -1
h 57
l 3 -1
h 21
l 5 -1
h 50
l 1 -1
h 14
l 2 -1
h 15
l 11 -1
h 20
l 5 6
l 1 7
l 9 8
l 1 6
h 8
l 6 7
h 4
l 1 -1
l 10 7
l 1 10
l 8 7
l 1 5
l -6 7
v 1
h -1
v 3
h -1
v 3
l -1 1
h -1
v 9
h -1
v 1
h -2
v 2
h -1
v 5
h -1
l -1 1
v 1
h -1
v 1
l -1 1
v 2
h -1
v 2
h -1
v 4
l -1 1
v 1
l -1 1
v 4
l 1 1
v 2
h -1
v 1
h -1
v 2
h -1
v 2
l -1 1
v 7
h -1
v 4
h -1
v 6
h -1
l -1 1
v 2
h -1
v 2
h -2
l -1 1
v 5
h -1
v 1
h -1
v 2
l -1 1
h -1
v 1
l -1 1
h -1
v 3
h -1
h 1
v 4
h -1
v 2
l -1 1
h 1
v 1
l 2 -1
v 1
h -1
v 2
h -1
h 1
v 3
l 1 1
v 1
l -1 1
v 6
l -1 1
v 1
h -1
v 1
h -1
v 2
h -2
l -1 1
h 1
v 1
l -1 1
l -5 10
h -1
v 1
h -2
v 1
h -1
v 1
h -1
v 1
h -3
v 1
h -1
l -1 1
l -1 1
v 1
l -1 1
h -1
h 1
v 2
l -1 1
h 1
l -1 1
v 1
h -1
v 2
h -1
v 1
h 1
v 1
l -1 1
h -1
v 5
h -1
v 2
h -1
v 1
h -1
v 7
h -1
l -1 1
l -1 1
v 1
h 1
v 3
h -1
v 1
l -1 1
v 1
h -2
v 1
h -1
l -1 1
v 3
h -1
v 1
h -1
v 1
h -1
v 1
l 1 1
v 2
h 1
v 6
h -1
v 3
h -1
v 1
h -1
v 3
h 1
v 2
h 2
v 1
l 1 1
v 1
h 1
v 2
h 1
h -1
v 2
h -1
v 2
h -1
v 5
h 1
l 1 1
h 1
v 1
l 1 1
h 2
l 5 -2
v -1
h 3
l 1 1
v 2
h 1
l 1 1
v 1
h 2
v 3
l 3 -4
l 1 1
h 6
v 8
h 5
l 2 2
h 1
l 2 2
v 1
l -6 12
h -3
v 7
l 2 1
h 1
l 1 1
l 1 1
v 3
l -1 1
v 1
l 1 2
l -1 1
l -3 2
l 2 2
l -1 1
v 2
l 1 1
v 2
h -2
v 1
h -1
l 1 1
v 4
l -1 1
l 1 1
l -1 1
h -3
l -1 1
v 1
l 1 1
v 1
h -1
l -1 1
v 1
l 1 1
v 2
l -1 1
h 1
v 20
l 1 5
v 22
l 1 23
h 1
v 22
l 3 45
l 1 22
v 21
l 1 1
v 22
l 2 45
l 2 22
v 23
l 1 2
h -14
l -31 3
l -40 1
l -58 2
h -18
l -19 1
h -17
l -6 1
h -20
l -13 1
h -49
l -25 1
h -204
l -1 -1
l -10 1
h -1
l -13 -1
h -16
l -2 -1
h -17
l -21 -1
h -16
l -9 -1
h -9
l -12 -1
h -62
l -23 -1
h -10
l -5 -1
h -15
l 1 -20
v -26
l 1 -1
l -2 -3
l -5 -5
l -9 -2
l -8 -2
l -3 -6
Z"/>
<path data-race-id="OR03" d="M254 127
v 1
l 6 3
l 2 2
h 1
l 3 2
l 19 5
l 2 1
l 6 2
l 3 -1
l 4 1
l 1 1
l 1 1
l 1 1
h 9
l 14 -6
l 10 -4
l 10 -4
v -1
h 4
l 2 14
l -1 6
l 4 2
l 6 8
l 5 10
l 8 4
l 2 12
l -2 8
l 2 1
l -3 6
l -4 1
l 2 6
l -2 -2
h -30
v -13
h -5
l -4 -7
h -5
v 8
l -12 1
l -2 2
v 10
l -8 3
l -5 -3
h -18
l -7 -10
l 2 -13
l 3 -4
l -2 -7
l 3 -4
v -5
l 1 -3
l 1 -2
h -4
v -2
l -2 2
h -11
l 2 3
l -7 1
l -3 -2
l 3 -9
l -4 1
v -4
l 5 -1
l 2 -3
l -10 -8
l -2 -7
Z"/>
<path data-race-id="OR04" d="M89 347
l 3 1
h 37
v -6
h -5
v -4
h 10
l 3 -2
l -1 -12
h 15
v -22
l 1 -25
h 16
l 19 2
l 7 5
v 7
l 7 2
l 12 -2
l -9 -12
l 1 -5
h 10
l 5 5
v 6
l 9 -4
l 10 -10
l 7 -3
l 10 3
l 11 -2
l 10 5
v 2
h 22
l 7 1
l 6 9
l 8 -4
l 9 4
l 5 2
l 27 1
v 19
l -2 8
l -4 5
v 32
l 3 5
l 4 5
l 1 23
l -8 7
l 1 8
l -3 5
l -1 9
h -8
l -6 8
l 1 17
l -1 11
l -3 12
l -16 9
l -1 20
l 9 5
v 5
l 6 5
v 10
l 3 5
l -7 6
l -2 8
l -5 16
h -23
v 12
h -14
l -8 9
l -11 -1
v 2
l -9 7
h -5
l -8 10
l -5 -1
l -2 8
l -15 1
l -11 2
h -17
l -10 8
l -1 12
v 22
l -2 1
l -6 -4
l -8 3
l -3 -1
l -4 6
l 2 4
l -7 6
l 3 6
l 8 2
l 9 2
l 5 5
l 2 3
l -1 1
v 26
l -1 20
h -47
l -1 -1
v 1
h -11
l -2 -1
h -17
l -12 -1
h -4
l -6 -1
h -19
l -10 -9
l -7 -9
v -14
l -5 -10
l 1 -8
l -2 -8
l 1 -25
l 5 -10
l -2 -17
l -5 -3
l -1 -8
l -6 -2
l -1 -11
l -3 -5
l 2 -7
l 8 -12
l 4 -10
l 3 -17
l 4 -11
l 2 -10
l -1 -11
l 7 -6
l 3 2
l 7 -12
l 5 -1
v 8
l 6 3
l -6 -13
l -11 7
l 5 -11
l 6 -15
l 2 -10
l 1 -7
l 7 -6
h -5
l 4 -13
l 2 -14
l 2 -13
l 3 -21
v -11
l 2 -4
l 1 -18
Z"/>
<path data-race-id="OR05" d="M117 101
l 22 1
l 5 2
l 42 1
l -1 11
h -14
v 5
l 11 10
l 10 2
l -3 5
h -5
v 5
l -4 -1
l -7 9
l -1 10
l -1 36
l -18 -2
h -19
l -1 23
h 7
l 21 2
h 19
l 36 1
l 8 -6
l -4 -5
l 4 -13
v -7
l 5 -3
l 2 3
l 10 2
l -1 -10
l 2 -4
l 13 2
v -17
l 1 -1
l 3 2
l 7 -1
l -2 -3
h 11
l 2 -2
v 2
h 4
l -1 2
l -1 3
v 5
l -3 4
l 2 7
l -3 4
l -2 13
l 7 10
h 18
l 5 3
l 8 -3
v -10
l 2 -2
l 12 -1
v -8
h 5
l 4 7
h 5
v 13
h 30
l 2 2
l 3 8
h 4
v 9
l -6 5
h -8
l -3 4
l 1 12
h 5
l 5 5
l -2 4
l -3 8
l -8 4
l 1 4
l 6 3
l -3 3
l -2 3
l 1 6
l -1 2
l -27 -1
l -5 -2
l -9 -4
l -8 4
l -6 -9
l -7 -1
h -22
v -2
l -10 -5
l -11 2
l -10 -3
l -7 3
l -10 10
l -9 4
v -6
l -5 -5
h -10
l -1 5
l 9 12
l -12 2
l -7 -2
v -7
l -7 -5
l -19 -2
h -16
l -1 25
v 22
h -15
l 1 12
l -3 2
h -10
v 4
h 5
v 6
h -37
l -3 -1
l 4 -16
l 1 -21
l 5 -19
l 4 7
v -8
l -5 -1
l -2 -7
l 3 -6
l -1 -14
l 4 -16
l 3 1
l -1 -11
l 3 -14
h 1
h -1
l 5 -20
v -11
l 2 -7
l -2 -10
l 2 -6
l 4 -3
v -5
l -4 -5
l 3 -11
l 7 10
l 2 -6
l -4 -9
l -5 -2
l 4 -20
l 4 1
l -10 -13
Z"/>
</g>
  <path class="districts-mesh" d="M180 723
l 1 -20
v -26
l 1 -1
l -2 -3
l -5 -5
l -9 -2
l -8 -2
l -3 -6
l 7 -6
l -2 -4
l 4 -6
l 3 1
l 8 -3
l 6 4
l 2 -1
v -22
l 1 -12
l 10 -8
h 17
l 11 -2
l 15 -1
l 2 -8
l 5 1
l 8 -10
h 5
l 9 -7
v -2
l 11 1
l 8 -9
h 14
v -12
h 23
l 5 -16
l 2 -8
l 7 -6
l -3 -5
v -10
l -6 -5
v -5
l -9 -5
l 1 -20
l 16 -9
l 3 -12
l 1 -11
l -1 -17
l 6 -8
h 8
l 1 -9
l 3 -5
l -1 -8
l 8 -7
l -1 -23
l -4 -5
l -3 -5
v -32
l 4 -5
l 2 -8
v -19
l 1 -2
l -1 -6
l 2 -3
l 3 -3
l -6 -3
l -1 -4
l 8 -4
l 3 -8
l 2 -4
l -5 -5
h -5
l -1 -12
l 3 -4
h 8
l 6 -5
v -9
h -4
l -3 -8
l -2 -6
l 4 -1
l 3 -6
l -2 -1
l 2 -8
l -2 -12
l -8 -4
l -5 -10
l -6 -8
l -4 -2
l 1 -6
l -2 -14
M371 209
l -2 -2
h -30
v -13
h -5
l -4 -7
h -5
v 8
l -12 1
l -2 2
v 10
l -8 3
l -5 -3
h -18
l -7 -10
l 2 -13
l 3 -4
l -2 -7
l 3 -4
v -5
l 1 -3
l 1 -2
h -4
v -2
l -2 2
h -11
l 2 3
l -7 1
l -3 -2
M254 127
l -4 4
l 2 7
l 10 8
l -2 3
l -5 1
v 4
l 4 -1
l -3 9
l -1 1
v 17
l -13 -2
l -2 4
l 1 10
l -10 -2
l -2 -3
l -5 3
v 7
l -4 13
l 4 5
l -8 6
l -36 -1
h -19
l -21 -2
h -7
l 1 -23
h 19
l 18 2
l 1 -36
l 1 -10
l 7 -9
l 4 1
v -5
h 5
l 3 -5
l -10 -2
l -11 -10
v -5
h 14
l 1 -11
l -42 -1
l -5 -2
l -22 -1
M89 347
l 3 1
h 37
v -6
h -5
v -4
h 10
l 3 -2
l -1 -12
h 15
v -22
l 1 -25
h 16
l 19 2
l 7 5
v 7
l 7 2
l 12 -2
l -9 -12
l 1 -5
h 10
l 5 5
v 6
l 9 -4
l 10 -10
l 7 -3
l 10 3
l 11 -2
l 10 5
v 2
h 22
l 7 1
l 6 9
l 8 -4
l 9 4
l 5 2
l 27 1"/>
</svg>