<svg version="1.1" xmlns="http://www.w3.org/2000/svg" width="1000" height="750" viewBox="0 0 1000 750"><g class="districts"><path data-race-id="OR01" d="M205,41l5,-2h6l1,1v1l5,3l1,1l2,1l3,2l7,6l4,2l2,4v1l1,5l7,12l1,2l-1,4l1,5l2,5v9l2,6v18l-4,4l2,7l10,8l-2,3l-5,1v4l4,-1l-3,9l-1,1v17l-13,-2l-2,4l1,10l-10,-2l-2,-3l-5,3v7l-4,13l4,5l-8,6l-36,-1h-19l-21,-2h-7l1,-23h19l18,2l1,-36l1,-10l7,-9l4,1v-5h5l3,-5l-10,-2l-11,-10v-5h14l1,-11l-42,-1l-5,-2l-22,-1l1,-21l-3,-5l7,-8v-16l-3,-13l-4,-7h5l6,8l8,2l-3,-5h13v3h12l6,-2l5,-8h6l6,5l1,7l7,5l14,1Z"/><path data-race-id="OR02" d="M162,652l-2,-4l4,-6l3,1l8,-3l6,4l2,-1v-22l1,-12l10,-8h17l11,-2l15,-1l2,-8l5,1l8,-10h5l9,-7v-2l11,1l8,-9h14v-12h23l5,-16l2,-8l7,-6l-3,-5v-10l-6,-5v-5l-9,-5l1,-20l16,-9l3,-12l1,-11l-1,-17l6,-8h8l1,-9l3,-5l-1,-8l8,-7l-1,-23l-4,-5l-3,-5v-32l4,-5l2,-8v-19l1,-2l-1,-6l2,-3l3,-3l-6,-3l-1,-4l8,-4l3,-8l2,-4l-5,-5h-5l-1,-12l3,-4h8l6,-5v-9h-4l-3,-8l-2,-6l4,-1l3,-6l-2,-1l2,-8l-2,-12l-8,-4l-5,-10l-6,-8l-4,-2l1,-6l-2,-14l1,-1l4,-6l3,-1l4,-2l6,2h5l8,-1l7,-1l7,-3l5,3l5,2l3,1l4,-1l4,-1l6,4l10,3v7l1,2h6l2,-3l3,-2h1l1,-2l11,1l2,-1h2l3,1l1,1h2l2,-2l5,-4l8,-2l4,-2l4,-2l1,-1h1l3,-3l2,-1l9,2l7,6l11,-1l13,-3l9,-1l2,-4l2,-2l12,-4l2,-1l5,-3l11,-3l5,-1l22,-4l5,-8l3,-2l2,-1l7,2h2l8,-1l7,-1h2l3,-2h1l6,-1h3l11,1h2l2,-1l18,-10l2,-1h4l26,-1h57l3,-1h21l5,-1h50l1,-1h14l2,-1h15l11,-1h20l5,6l1,7l9,8l1,6h8l6,7h4l1,-1l10,7l1,10l8,7l1,5l-6,7v1h-1v3h-1v3l-1,1h-1v9h-1v1h-2v2h-1v5h-1l-1,1v1h-1v1l-1,1v2h-1v2h-1v4l-1,1v1l-1,1v4l1,1v2h-1v1h-1v2h-1v2l-1,1v7h-1v4h-1v6h-1l-1,1v2h-1v2h-2l-1,1v5h-1v1h-1v2l-1,1h-1v1l-1,1h-1v3h-1h1v4h-1v2l-1,1h1v1l2,-1v1h-1v2h-1h1v3l1,1v1l-1,1v6l-1,1v1h-1v1h-1v2h-2l-1,1h1v1l-1,1l-5,10h-1v1h-2v1h-1v1h-1v1h-3v1h-1l-1,1l-1,1v1l-1,1h-1h1v2l-1,1h1l-1,1v1h-1v2h-1v1h1v1l-1,1h-1v5h-1v2h-1v1h-1v7h-1l-1,1l-1,1v1h1v3h-1v1l-1,1v1h-2v1h-1l-1,1v3h-1v1h-1v1h-1v1l1,1v2h1v6h-1v3h-1v1h-1v3h1v2h2v1l1,1v1h1v2h1h-1v2h-1v2h-1v5h1l1,1h1v1l1,1h2l5,-2v-1h3l1,1v2h1l1,1v1h2v3l3,-4l1,1h6v8h5l2,2h1l2,2v1l-6,12h-3v7l2,1h1l1,1l1,1v3l-1,1v1l1,2l-1,1l-3,2l2,2l-1,1v2l1,1v2h-2v1h-1l1,1v4l-1,1l1,1l-1,1h-3l-1,1v1l1,1v1h-1l-1,1v1l1,1v2l-1,1h1v20l1,5v22l1,23h1v22l3,45l1,22v21l1,1v22l2,45l2,22v23l1,2h-14l-31,3l-40,1l-58,2h-18l-19,1h-17l-6,1h-20l-13,1h-49l-25,1h-204l-1,-1l-10,1h-1l-13,-1h-16l-2,-1h-17l-21,-1h-16l-9,-1h-9l-12,-1h-62l-23,-1h-10l-5,-1h-15l1,-20v-26l1,-1l-2,-3l-5,-5l-9,-2l-8,-2l-3,-6Z"/><path data-race-id="OR03" d="M254,127v1l6,3l2,2h1l3,2l19,5l2,1l6,2l3,-1l4,1l1,1l1,1l1,1h9l14,-6l10,-4l10,-4v-1h4l2,14l-1,6l4,2l6,8l5,10l8,4l2,12l-2,8l2,1l-3,6l-4,1l2,6l-2,-2h-30v-13h-5l-4,-7h-5v8l-12,1l-2,2v10l-8,3l-5,-3h-18l-7,-10l2,-13l3,-4l-2,-7l3,-4v-5l1,-3l1,-2h-4v-2l-2,2h-11l2,3l-7,1l-3,-2l3,-9l-4,1v-4l5,-1l2,-3l-10,-8l-2,-7Z"/><path data-race-id="OR04" d="M89,347l3,1h37v-6h-5v-4h10l3,-2l-1,-12h15v-22l1,-25h16l19,2l7,5v7l7,2l12,-2l-9,-12l1,-5h10l5,5v6l9,-4l10,-10l7,-3l10,3l11,-2l10,5v2h22l7,1l6,9l8,-4l9,4l5,2l27,1v19l-2,8l-4,5v32l3,5l4,5l1,23l-8,7l1,8l-3,5l-1,9h-8l-6,8l1,17l-1,11l-3,12l-16,9l-1,20l9,5v5l6,5v10l3,5l-7,6l-2,8l-5,16h-23v12h-14l-8,9l-11,-1v2l-9,7h-5l-8,10l-5,-1l-2,8l-15,1l-11,2h-17l-10,8l-1,12v22l-2,1l-6,-4l-8,3l-3,-1l-4,6l2,4l-7,6l3,6l8,2l9,2l5,5l2,3l-1,1v26l-1,20h-47l-1,-1v1h-11l-2,-1h-17l-12,-1h-4l-6,-1h-19l-10,-9l-7,-9v-14l-5,-10l1,-8l-2,-8l1,-25l5,-10l-2,-17l-5,-3l-1,-8l-6,-2l-1,-11l-3,-5l2,-7l8,-12l4,-10l3,-17l4,-11l2,-10l-1,-11l7,-6l3,2l7,-12l5,-1v8l6,3l-6,-13l-11,7l5,-11l6,-15l2,-10l1,-7l7,-6h-5l4,-13l2,-14l2,-13l3,-21v-11l2,-4l1,-18Z"/><path data-race-id="OR05" d="M117,101l22,1l5,2l42,1l-1,11h-14v5l11,10l10,2l-3,5h-5v5l-4,-1l-7,9l-1,10l-1,36l-18,-2h-19l-1,23h7l21,2h19l36,1l8,-6l-4,-5l4,-13v-7l5,-3l2,3l10,2l-1,-10l2,-4l13,2v-17l1,-1l3,2l7,-1l-2,-3h11l2,-2v2h4l-1,2l-1,3v5l-3,4l2,7l-3,4l-2,13l7,10h18l5,3l8,-3v-10l2,-2l12,-1v-8h5l4,7h5v13h30l2,2l3,8h4v9l-6,5h-8l-3,4l1,12h5l5,5l-2,4l-3,8l-8,4l1,4l6,3l-3,3l-2,3l1,6l-1,2l-27,-1l-5,-2l-9,-4l-8,4l-6,-9l-7,-1h-22v-2l-10,-5l-11,2l-10,-3l-7,3l-10,10l-9,4v-6l-5,-5h-10l-1,5l9,12l-12,2l-7,-2v-7l-7,-5l-19,-2h-16l-1,25v22h-15l1,12l-3,2h-10v4h5v6h-37l-3,-1l4,-16l1,-21l5,-19l4,7v-8l-5,-1l-2,-7l3,-6l-1,-14l4,-16l3,1l-1,-11l3,-14h1h-1l5,-20v-11l2,-7l-2,-10l2,-6l4,-3v-5l-4,-5l3,-11l7,10l2,-6l-4,-9l-5,-2l4,-20l4,1l-10,-13Z"/></g>  <path class="districts-mesh" d="M180,723l1,-20v-26l1,-1l-2,-3l-5,-5l-9,-2l-8,-2l-3,-6l7,-6l-2,-4l4,-6l3,1l8,-3l6,4l2,-1v-22l1,-12l10,-8h17l11,-2l15,-1l2,-8l5,1l8,-10h5l9,-7v-2l11,1l8,-9h14v-12h23l5,-16l2,-8l7,-6l-3,-5v-10l-6,-5v-5l-9,-5l1,-20l16,-9l3,-12l1,-11l-1,-17l6,-8h8l1,-9l3,-5l-1,-8l8,-7l-1,-23l-4,-5l-3,-5v-32l4,-5l2,-8v-19l1,-2l-1,-6l2,-3l3,-3l-6,-3l-1,-4l8,-4l3,-8l2,-4l-5,-5h-5l-1,-12l3,-4h8l6,-5v-9h-4l-3,-8l-2,-6l4,-1l3,-6l-2,-1l2,-8l-2,-12l-8,-4l-5,-10l-6,-8l-4,-2l1,-6l-2,-14M371,209l-2,-2h-30v-13h-5l-4,-7h-5v8l-12,1l-2,2v10l-8,3l-5,-3h-18l-7,-10l2,-13l3,-4l-2,-7l3,-4v-5l1,-3l1,-2h-4v-2l-2,2h-11l2,3l-7,1l-3,-2M254,127l-4,4l2,7l10,8l-2,3l-5,1v4l4,-1l-3,9l-1,1v17l-13,-2l-2,4l1,10l-10,-2l-2,-3l-5,3v7l-4,13l4,5l-8,6l-36,-1h-19l-21,-2h-7l1,-23h19l18,2l1,-36l1,-10l7,-9l4,1v-5h5l3,-5l-10,-2l-11,-10v-5h14l1,-11l-42,-1l-5,-2l-22,-1M89,347l3,1h37v-6h-5v-4h10l3,-2l-1,-12h15v-22l1,-25h16l19,2l7,5v7l7,2l12,-2l-9,-12l1,-5h10l5,5v6l9,-4l10,-10l7,-3l10,3l11,-2l10,5v2h22l7,1l6,9l8,-4l9,4l5,2l27,1"/></svg>