<svg version="1.1" xmlns="http://www.w3.org/2000/svg" width="1000" height="578" viewBox="0 0 1000 578"><path data-race-id="PA01" d="M866,530l3,-2l-2,-6l-1,-1l2,-5l6,1l2,2l-3,7l1,1v1l4,-3l1,1l9,-1l-1,-2h-4v-5l2,-3l-1,-11l1,-1l4,-3l2,10l5,5l7,-1l1,-10l4,-11l9,4v-7l2,-3h8l6,-4l1,3l-1,1v1l-2,2h-1l-2,2v1h-3v1h-2l-1,1l-1,1v1l-1,1v1l-12,7l1,13l-12,6l-1,1l-6,2h-11l-10,8l-2,1l-5,-7Z"/><path data-race-id="PA02" d="M876,484l8,-1l2,4l6,-8h8l9,7l-1,7l-4,11l-1,10l-7,1l-5,-5l-2,-10l-4,3l-12,-16Z"/><path data-race-id="PA03" d="M118,38l5,7l-17,9h-4l-1,8l-10,3v11h-10v17h9l-1,9h42l53,2l-1,11v37l-5,2l-1,-4l-6,4l-23,-2v4l-7,6h-3l-8,10l-7,2l-2,5l-1,9v34h-1v26l48,1h1l2,12l5,-3l-2,-4l8,1v-6l16,4v8l7,-1l2,-11l4,3l6,-11l3,11h2l-1,15l25,-4l-1,13v22l-1,8v29l-13,18l-13,17v1l-13,16l-7,1l-10,-7l-2,-9l-6,-10l-10,-8l-4,2h-11l-63,-3v-57l-9,7h-49v-16h1v-25l1,-7v-21l1,-6v-6l1,-23v-22l1,-9v-16l1,-10v-13l1,-17v-24l1,-2v-13l20,-7l19,-9l19,-11l4,-9l6,-4l5,1l-10,4l-2,7l9,-7h7Z"/><path data-race-id="PA04" d="M526,515l10,-11l36,-7l8,-9l13,-12l8,-5l-1,-6h5v-6l-2,-4l-6,4l-11,2v-14l2,-8l14,-1l14,-5v-1l6,2v8l6,2l-2,6h-5l5,4l5,6l12,5l2,9l3,3l6,6l7,7l11,3l7,-2l3,7l5,13l1,1l3,3l12,6l1,9l11,12l1,1l6,6l6,12h-45l-1,1h-83l-2,1h-69Z"/><path data-race-id="PA05" d="M118,38v-1h2v-1h1v-1h1v-1h2v-1h2v-1h1h-1h1l1,-1h1v-1h2v-1h1l1,-1h1l1,-1h2v-1h2v-1h1l1,-1v-1h2v-1h4v-1h3v-1h1v-1h3v-1h1l1,-1h1l1,-1h1v-1h1l2,-1v8l-1,17v33h7l15,1h50l24,1h25l13,1h65l48,1h95v25h22v-6h19l1,18h-8v10l-5,5l1,6l4,8l-33,1l1,30v22l8,11l1,6l11,5v6l17,17l7,3l25,31h4v6l-10,11l-13,19l-12,12l-8,2l-23,13l-16,7l-5,3l-3,6l3,4l-10,10l-6,3l-10,16l5,10l-3,2l-14,20l7,1l2,6h16l-15,22l-9,-5l-8,-6l-25,-8l-3,3l-10,-12l9,-15l1,-8l-4,3l1,-12l-4,2l-3,-5l4,-14l-3,-2l-5,-8l3,-6l14,-9l-9,-1l-31,2l2,2l-24,-1h-49l-1,-20l1,-19l-67,-2l1,-8v-22l1,-13l-25,4l1,-15h-2l-3,-11l-6,11l-4,-3l-2,11l-7,1v-8l-16,-4v6l-8,-1l2,4l-5,3l-2,-12h-1l-48,-1v-26h1v-34l1,-9l2,-5l7,-2l8,-10h3l7,-6v-4l23,2l6,-4l1,4l5,-2v-37l1,-11l-53,-2h-42l1,-9h-9v-17h10v-11l10,-3l1,-8h4l17,-9Z"/><path data-race-id="PA06" d="M709,409l6,5h20l3,2l8,-6l-1,-10l7,-2l6,11l10,-3v-5l15,-9l6,-7l5,5l11,9l4,-5l6,8l11,-1l-1,9l6,-2l3,-10l7,6l7,5l-1,6h-10l2,5l8,6l-8,12l11,7l3,-2l3,1l1,14l12,8v5l-6,4l-9,2l1,3l5,-2l5,8l6,-2l-9,5l1,5l-6,6v3l-15,11l-3,6h-4l-11,-11l-5,5l-4,-7l-6,2l3,-9l-7,1l-4,-3l2,-11l7,-1l-1,-7l-5,-6l-3,2l-4,-8l6,1h6l7,-3l-1,-3h-2v-4l-1,-1l-1,-1h-1l-3,-2l8,-6l9,-15l-7,-6l2,-6l-9,-4l-4,-4l-8,-2l-4,6l1,8l5,5l-1,15l-16,-8l-6,8l-3,-8h-5v-1l5,-2l5,3h1h-1v-1v1v-1l-1,-4l6,-1l-3,-4l1,-9h-3l-8,7l2,6l-12,-2l-7,9l-4,4l-9,-8l-25,13l-22,4l-5,2l-2,-12l12,-3l-3,-9l-5,-2l10,1l7,-4l-3,-6Z"/><path data-race-id="PA07" d="M740,489l10,-3l9,3l7,-8l10,-3l10,-7l-27,-23l3,-7h-3v-7l10,2v1h5l3,8l6,-8l16,8l1,-15l-5,-5l-1,-8l4,-6l8,2l4,4l9,4l-2,6l7,6l-9,15l-8,6l3,2h1l1,1l1,1v4h2l1,3l-7,3h-6l-6,-1l4,8l3,-2l5,6l1,7l-7,1l-2,11l4,3l7,-1l-3,9l6,-2l4,7l5,-5l11,11h4l3,-6l15,-11v-3l6,-6l-1,-5l9,-5l-6,2l-5,-8l-5,2l-1,-3l9,-2l6,-4v-5l-12,-8l-1,-14l10,6l7,-10l6,5l3,9l3,-5l9,3l3,-5v4l6,5l4,7l-7,1l-14,-5l5,5l-3,4h7l1,-5l1,5l3,-1v9l-3,-1l-10,1l-7,-5l2,-9l-7,3l-6,12l-7,1l14,6l-3,3l12,16l-1,1l1,11l-2,3v5h4l1,2l-9,1l-1,-1l-4,3v-1l-1,-1l3,-7l-2,-2l-6,-1l-2,5l1,1l2,6l-3,2h-4l5,7h-1l-5,3v-1h-2v-1h-1l-2,-1h-1l-1,-1h-2v-1h-2v-1h-12v-1v1h-6l-2,1h-1v1h-2l-13,8l-1,1h-1v2h-1l-1,1l-1,2l-1,1v1l-1,1v1l-1,2l-1,1v1l-1,1h-1l-1,1h-3v-10l5,-3l-2,-15l21,-4l2,-5l-24,-5l3,-15l-4,-5l-13,3l-3,7l-5,3l8,1l3,1v2l1,2l2,26h-11l-10,-6h-1v-1h-5l-2,1l-5,6l-8,-5l-2,-5l-6,-4v-2l7,-2l1,-3l-4,-11l-3,2l-4,-14h4l-8,-7Z"/><path data-race-id="PA08" d="M848,409l1,1l9,-14l15,-12l8,-8l14,-8l1,3v2h-1l1,3l3,1l3,-2l6,1h3v1h1l2,2l2,2v17l1,9l1,1l2,2l3,1h1l2,-1l1,-1l3,1l3,1l1,3h1v2l1,2v5h1v1l1,1l1,1l5,3h2v1h1l3,3v1l1,1l1,2l1,2v1l2,3l1,1h1l8,5l1,1l1,1l1,2l1,3h1l2,2l1,1l2,2v3h-1v1h-1v1h-1v1h-4l-1,1l-1,1l-1,1h-4l-1,-1l-1,-1l-1,1h-1v2l-1,1v2l-1,1v1h-1l-1,1v1h-1v1h-3l-1,1l-1,1h-5l-1,1h-2l-1,1l-1,1h-1v2h-2l-1,-3l3,-4v-8l-9,-4l-16,-11l-22,-17l-5,6h-5l-6,-5l-7,10l-10,-6l-3,-1l-3,2l-11,-7l8,-12l-8,-6l-2,-5h10Z"/><path data-race-id="PA09" d="M97,511l-1,-5l3,-8h6l7,-4l-2,-8l7,-1l5,4l-1,-14l-7,-1l-4,3l-2,-7l6,-3l-1,-8l-3,-3l10,-4l7,4h7l3,6l-3,2l1,3l-2,1l-5,-2l4,5h22l6,5h3l6,5l16,-5l8,-6h6l12,11l7,3l1,8h8l-11,19h3v8l3,3l-1,6l4,3l1,6l4,1l8,-7l4,2v5l5,2l6,-16l5,3l10,-13v-4l9,-1l4,-20l4,-5l7,-1l19,10l4,-3l3,-3l5,-16l9,-21l3,-3v-11l3,-4l3,-5l7,-4l1,-8l-12,-8l-6,4l-5,-1l4,-11l-2,-6l2,-6l1,-2v-1l1,-1h1l1,-2v-7h-10l-9,7l1,-15l-3,-2l-3,-3l-6,-1l-5,15l-9,23l-10,19l-5,-6l-8,9l-5,-2l-2,4l-4,-1l1,-4l-5,-4h-9l-4,-4l-5,3l-1,-5h-5v-5l-8,-2l-5,4l-8,-9l-4,2l1,-10l13,-16v-1l13,-17l13,-18v-29l67,2l-1,19l1,20h49l24,1l-2,-2l31,-2l9,1l-14,9l-3,6l5,8l3,2l-4,14l3,5l4,-2l-1,12l4,-3l-1,8l-9,15l10,12l3,-3l25,8l8,6l9,5l15,-22l2,-3l8,25l4,-6l1,8l4,-1l-1,8l7,-3l-1,8l-2,1l6,13l4,2l1,6l3,4l1,3l3,4l3,8l8,7l-3,6l2,48h-47l-3,-1h-127l-2,-1h-77l-3,-1h-73l-4,-1h-46l-23,-1h-17l-1,-1h-2l1,-3l-5,-9l1,-11l-6,-11l-1,-8Z"/><path data-race-id="PA10" d="M491,347l5,-3l16,-7l23,-13l8,-2l12,-12l13,-19l10,-11v-6h-4l-25,-31l-7,-3l-17,-17v-6l-11,-5l-1,-6l-8,-11v-22l-1,-30l33,-1l-4,-8l-1,-6l5,-5v-10h8l-1,-18h-19v6h-22v-25h112l12,-1h49l60,-1l24,-1h40l20,-1h20l20,-1l3,5v1l7,5l2,1h1l3,7l-1,5h2l2,4l2,2l5,-2l10,3h1v1l3,6l7,1l-5,5l1,4h5l1,1l2,4v7h-2l-1,1l1,1l2,2v2l-1,3l2,2l-2,9v2l-2,1l1,1l7,8l1,4l3,5v2h2l3,7h2l2,-1l4,1h2l1,1v2l1,1h1l-1,2v2h1l5,-1h2v1l2,1h2v-1l1,-1h3v2l1,1l1,1l2,-1h3l1,-1l2,3v4l2,1l3,2v1h1l1,1h1v1l-1,2v1h-2v1h-2l-1,1h-2l-3,2h-1v2h-1v1h-3v3h-1v1h-1v1h-1l-1,2l-2,1v1l-1,1l-1,4v1l-1,1h-1v1l-1,1v4h1v1l-1,1v1h-1v2h-1v2l-1,2l-1,1v1h-1v1l-1,1v1l-1,1l-1,1v3h-1l-1,1h-2v1l-2,2h-1v1h-2l-3,4l-8,2l-5,-11l-14,-2l-4,-1v11l2,9h-6l1,11l3,-1l4,1v5l-8,2l-7,-4l-2,-4l-12,15l-4,-2l-7,-13l6,-25h5l5,-23l-9,1l-23,1l-2,3l-6,4l-4,-7l-5,-1l-3,-6l12,-1l-1,-15h-8l-7,-4l4,-6l7,-1l3,-4l-9,-5h7l-6,-4l6,-3l7,8l3,-4l-5,-10v-6l6,-1l-4,-6h5l2,-6l-12,1l-3,11l-9,10l-7,3l-2,5l-10,14v5l-6,-3l-6,-3l-1,-8l10,-17l-5,-3l5,-8v-5l7,-13h-45l-17,1v-2l-14,1l-3,23l-7,26l-2,9l-5,15h-15l-7,7l-11,14l-12,12h-7l-7,1l-8,-4v19l-6,14l-3,15l17,-4h7l-7,7l-15,8l-3,4l-2,6l-7,12v18l-6,6l-8,9l-1,2l-1,5l-3,5l-3,4v1v-1v1h1l2,13l2,1l2,7l-10,8l-4,-6l-3,3l-13,5l-13,9l-8,-6l-8,1l5,19v7l-8,1l1,-5l-6,5l-10,4l2,-5l9,-6l-2,-2l-9,5l-12,12l-12,5l-4,5l-3,-2l1,-8l-7,3l1,-8l-4,1l-1,-8l-4,6l-8,-25l-2,3h-16l-2,-6l-7,-1l14,-20l3,-2l-5,-10l10,-16l6,-3l10,-10l-3,-4Z"/><path data-race-id="PA11" d="M502,461l3,2l4,-5l12,-5l12,-12l9,-5l2,2l-9,6l-2,5l10,-4l6,-5l-1,5l8,-1v-7l-5,-19l8,-1l8,6l13,-9l13,-5l3,-3l4,6l10,-8l-2,-7l-2,-1l-2,-13h-1v-1v1v-1l3,-4l3,-5l1,-5l1,-2l8,-9l6,-6v-18l7,-12l2,-6l3,-4l15,-8l7,-7h-7l-17,4l3,-15l6,-14v-19l8,4l7,-1h7l12,-12l11,-14l7,-7h15l5,-15l2,-9l7,-26l3,-23l14,-1v2l17,-1h45l-7,13v5l-5,8l5,3l-10,17l1,8l6,3l-2,5l-10,4l1,14l-10,6l8,5l8,-5l3,2l5,-5l21,-1v14l6,5l2,1l-1,2l-6,7l4,2l6,8l3,5l12,13l-13,8l4,5l-22,13l-3,-9h-5l-3,6l-6,-4l-21,11l-12,-12l-4,2l-30,-9l-12,14l-3,18l-12,5l-27,14l-20,9l-5,3l27,21l-23,18l-10,8l3,13l-9,4l3,1v2l3,16l4,3l-3,15l-2,2l-12,-5l-5,-6l-5,-4h5l2,-6l-6,-2v-8l-6,-2v1l-14,5l-14,1l-2,8v14l11,-2l6,-4l2,4v6h-5l1,6l-8,5l-13,12l-8,9l-36,7l-10,11l3,-6l-8,-7l-3,-8l-3,-4l-1,-3l-3,-4l-1,-6l-4,-2l-6,-13Z"/><path data-race-id="PA12" d="M30,377v-4l1,-1v-21l1,-21l1,-16v-11h49l9,-7v57l63,3h11l4,-2l10,8l6,10l2,9l10,7l7,-1l-1,10l4,-2l8,9l5,-4l8,2v5h5l1,5l5,-3l4,4h9l5,4l-1,4l4,1l2,-4l5,2l8,-9l5,6l10,-19l9,-23l5,-15l6,1l3,3l3,2l-1,15l9,-7h10v7l-1,2h-1l-1,1v1l-1,2l-2,6l2,6l-4,11l5,1l6,-4l12,8l-1,8l-7,4l-3,5l-3,4v11l-3,3l-9,21l-5,16l-3,3l-4,3l-19,-10l-7,1l-4,5l-4,20l-9,1v4l-10,13l-5,-3l-6,16l-5,-2v-5l-4,-2l-8,7l-4,-1l-1,-6l-4,-3l1,-6l-3,-3v-8h-3l11,-19l7,-11l5,-5l7,1l3,-9l4,-2l3,-8l5,-8l-25,-20l-5,3l-2,7l-13,-2v-6l-1,-1v1v-1v1l-4,-1l2,-6l-7,-6l-4,4l-8,2l-12,-5l-2,-6l-20,-2l2,-6l-2,1l-2,-1l-4,-5l-4,-1l-2,-11l-6,-2l-1,-3h11l1,-3l6,-2l-3,-8l5,-4l-12,2v8l-13,2l2,13l-8,2l-6,-2l-1,-2l-4,6l-4,1l-1,-5l-7,1l-5,-5h-7v-3l-8,-1l-4,-1l2,-7l-3,-5l-20,18l-6,5l-26,-1v-14Z"/><path data-race-id="PA13" d="M897,475l3,1v-9l-3,1l-1,-5l-1,5h-7l3,-4l-5,-5l14,5l7,-1l-4,-7l-6,-5v-4l-3,5l-9,-3l-3,5l-3,-9h5l5,-6l22,17l16,11l9,4v8l-3,4l-6,4h-8l-2,3v7l-9,-4l1,-7l-9,-7h-8l-6,8l-2,-4l-8,1l-14,-6l7,-1l6,-12l7,-3l-2,9l7,5Z"/><path data-race-id="PA14" d="M87,384l8,1v3h7l5,5l7,-1l1,5l4,-1l4,-6l1,2l6,2l8,-2l-2,-13l13,-2v-8l12,-2l-5,4l3,8l-6,2l-1,3h-11l1,3l6,2l2,11l4,1l-1,2v3l3,8l-4,1l-4,16l-8,1l-2,7l-9,-1v-9l-10,-4l-5,-2l3,1l2,-2l-3,-4l-9,-2l-5,-7l-1,-5l-5,-3l-1,-6l-9,-7Z"/><path data-race-id="PA15" d="M654,401l23,-18l16,13l16,-4l16,-2l12,-3l7,-5l11,-5l6,1l3,-13l17,-9l12,-6l9,-7l11,-8l13,-4l10,-4l12,-2l15,-4l14,-7l6,8l5,-1v13l-5,2l-10,1l-1,5l7,-1l1,9l-15,3l6,4v7l-3,4h2l2,-4l16,-6l1,-4l6,-1h2v2l-1,1h-1l-1,1v3l2,4v1l-1,3l-14,8l-8,8l-15,12l-9,14l-1,-1l-7,-5l-7,-6l-3,10l-6,2l1,-9l-11,1l-6,-8l-4,5l-11,-9l-5,-5l-6,7l-15,9v5l-10,3l-6,-11l-7,2l1,10l-8,6l-3,-2h-20l-6,-5l-4,9l3,6l-7,4l-10,-1l5,2l3,9l-12,3l2,12l-16,7l-3,1l-8,6l-12,5l-2,5l-3,-3l-2,-9l2,-2l3,-15l-4,-3l-3,-16v-2l-3,-1l9,-4l-3,-13Z"/><path data-race-id="PA16" d="M648,477l2,-5l12,-5l8,-6l3,-1l16,-7l5,-2l22,-4l25,-13l9,8l4,-4l7,-9l12,2l-2,-6l8,-7h3l-1,9l3,4l-6,1l1,4v1v-1v1h1h-1l-5,-3l-5,2l-10,-2v7h3l-3,7l27,23l-10,7l-10,3l-7,8l-9,-3l-10,3l-4,3l8,7h-4l4,14l3,-2l4,11l-1,3l-7,2v2l6,4l2,5l8,5l5,-6l2,-1h5v1h1l10,6h11l-2,-26l-1,-2v-2l-3,-1l-8,-1l5,-3l3,-7l13,-3l4,5l-3,15l24,5l-2,5l-21,4l2,15l-5,3v10h-45l-3,1h-23l-6,-12l-6,-6l-1,-1l-11,-12l-1,-9l-12,-6l-3,-3l-1,-1l-5,-13l-3,-7l-7,2l-11,-3l-7,-7Z"/><path data-race-id="PA17" d="M650,362l5,-3l20,-9l27,-14l12,-5l3,-18l12,-14l30,9l4,-2l12,12l21,-11l6,4l3,-6h5l3,9l22,-13l-4,-5l13,-8l-12,-13l-3,-5l-6,-8l-4,-2l6,-7l1,-2l-2,-1l-6,-5v-14l-21,1l-5,5l-3,-2l-8,5l-8,-5l10,-6l-1,-14l10,-4l2,-5l6,3v-5l10,-14l2,-5l7,-3l9,-10l3,-11l12,-1l-2,6h-5l4,6l-6,1v6l5,10l-3,4l-7,-8l-6,3l6,4h-7l9,5l-3,4l-7,1l-4,6l7,4h8l1,15l-12,1l3,6l5,1l4,7l6,-4l2,-3l23,-1l9,-1l-5,23h-5l-6,25l7,13l4,2l12,-15l2,4l7,4l8,-2v-5l-4,-1l-3,1l-1,-11h6l-2,-9v-11l4,1l14,2l5,11l8,-2v1h2l2,-1h1h-1v2l-2,1h-1v1h-2l-1,2h-1l-2,5l-3,3l-3,2h-1v1h-2v1l-2,1h-1l-1,1h-1v1h-1v1h-1l-1,1v4h2v1l1,2v1l2,3v1h1v1l1,1l3,5l1,1v1l1,1l2,2l-1,6h-5l-1,1v1l2,2l-6,9l-1,1l-7,2v3h-1l-1,1l-1,1v2l2,1v4h-1v1h-1v3l-1,1v2l1,1l1,1l-6,1l-1,4l-16,6l-2,4h-2l3,-4v-7l-6,-4l15,-3l-1,-9l-7,1l1,-5l10,-1l5,-2v-13l-5,1l-6,-8l-14,7l-15,4l-12,2l-10,4l-13,4l-11,8l-9,7l-12,6l-17,9l-3,13l-6,-1l-11,5l-7,5l-12,3l-16,2l-16,4l-16,-13Z"/><path data-race-id="PA18" d="M24,549l1,-17v-11l1,-11v-7l1,-16v-28l1,-3v-23l1,-4v-18l1,-18l26,1l6,-5l20,-18l3,5l-2,7l4,1l-1,4l9,7l1,6l5,3l1,5l5,7l9,2l3,4l-2,2l-3,-1l5,2l10,4v9l9,1l2,-7l8,-1l4,-16l4,-1l-3,-8v-3l1,-2l4,5l2,1l2,-1l-2,6l20,2l2,6l12,5l8,-2l4,-4l7,6l-2,6l4,1v-1v1v-1l1,1v6l13,2l2,-7l5,-3l25,20l-5,8l-3,8l-4,2l-3,9l-7,-1l-5,5l-7,11h-8l-1,-8l-7,-3l-12,-11h-6l-8,6l-16,5l-6,-5h-3l-6,-5h-22l-4,-5l5,2l2,-1l-1,-3l3,-2l-3,-6h-7l-7,-4l-10,4l3,3l1,8l-6,3l2,7l4,-3l7,1l1,14l-5,-4l-7,1l2,8l-7,4h-6l-3,8l1,5l-4,4l1,8l6,11l-1,11l5,9l-1,3h-17l-2,-1h-33l-2,-1h-25v-5Z"/>  <path class="mesh" d="M867,537l-5,-7h4l3,-2l-2,-6l-1,-1l2,-5l6,1l2,2l-3,7l1,1v1l4,-3l1,1l9,-1l-1,-2h-4v-5l2,-3l-1,-11l1,-1l4,-3l2,10l5,5l7,-1l1,-10l4,-11l9,4v-7l2,-3h8l6,-4l1,3M478,425l2,-3l8,25l4,-6l1,8l4,-1l-1,8l7,-3l-1,8l-2,1l6,13l4,2l1,6l3,4l1,3l3,4l3,8l8,7l-3,6l10,-11l36,-7l8,-9l13,-12l8,-5l-1,-6h5v-6l-2,-4l-6,4l-11,2v-14l2,-8l14,-1l14,-5v-1l6,2v8l6,2l-2,6h-5l5,4l5,6l12,5l2,9l3,3l6,6l7,7l11,3l7,-2l3,7l5,13l1,1l3,3l12,6l1,9l11,12l1,1l6,6l6,12M848,409l-1,6h-10l2,5l8,6l-8,12l11,7l3,-2l3,1l10,6l7,-10l6,5l3,9l3,-5l9,3l3,-5v4l6,5l4,7l-7,1l-14,-5l5,5l-3,4h7l1,-5l1,5l3,-1v9l-3,-1l-10,1l-7,-5l2,-9l-7,3l-6,12l-7,1l14,6l8,-1l2,4l6,-8h8l9,7l-1,7M856,444l1,14l12,8v5l-6,4l-9,2l1,3l5,-2l5,8l6,-2l-9,5l1,5l-6,6v3l-15,11l-3,6h-4l-11,-11l-5,5l-4,-7l-6,2l3,-9l-7,1l-4,-3l2,-11l7,-1l-1,-7l-5,-6l-3,2l-4,-8l6,1h6l7,-3l-1,-3h-2v-4l-1,-1l-1,-1h-1l-3,-2l8,-6l9,-15l-7,-6l2,-6l-9,-4l-4,-4l-8,-2l-4,6l1,8l5,5l-1,15l-16,-8l-6,8l-3,-8h-5v-1l5,-2l5,3h1h-1v-1v1v-1l-1,-4l6,-1l-3,-4l1,-9h-3l-8,7l2,6l-12,-2l-7,9l-4,4l-9,-8l-25,13l-22,4l-5,2l-2,-12l12,-3l-3,-9l-5,-2l10,1l7,-4l-3,-6l4,-9l6,5h20l3,2l8,-6l-1,-10l7,-2l6,11l10,-3v-5l15,-9l6,-7l5,5l11,9l4,-5l6,8l11,-1l-1,9l6,-2l3,-10l7,6l7,5l1,1l9,-14l15,-12l8,-8l14,-8M933,483l3,-4v-8l-9,-4l-16,-11l-22,-17l-5,6h-5M885,503l-12,-16l3,-3M924,263l-8,2l-5,-11l-14,-2l-4,-1v11l2,9h-6l1,11l3,-1l4,1v5l-8,2l-7,-4l-2,-4l-12,15l-4,-2l-7,-13l6,-25h5l5,-23l-9,1l-23,1l-2,3l-6,4l-4,-7l-5,-1l-3,-6l12,-1l-1,-15h-8l-7,-4l4,-6l7,-1l3,-4l-9,-5h7l-6,-4l6,-3l7,8l3,-4l-5,-10v-6l6,-1l-4,-6h5l2,-6l-12,1l-3,11l-9,10l-7,3l-2,5l-10,14v5l-6,-3l-6,-3l-1,-8l10,-17l-5,-3l5,-8v-5l7,-13h-45l-17,1v-2l-14,1l-3,23l-7,26l-2,9l-5,15h-15l-7,7l-11,14l-12,12h-7l-7,1l-8,-4v19l-6,14l-3,15l17,-4h7l-7,7l-15,8l-3,4l-2,6l-7,12v18l-6,6l-8,9l-1,2l-1,5l-3,5l-3,4v1h1l2,13l2,1l2,7l-10,8l-4,-6l-3,3l-13,5l-13,9l-8,-6l-8,1l5,19v7l-8,1l1,-5l-6,5l-10,4l2,-5l9,-6l-2,-2l-9,5l-12,12l-12,5l-4,5l-3,-2M227,492l7,-11l5,-5l7,1l3,-9l4,-2l3,-8l5,-8l-25,-20l-5,3l-2,7l-13,-2v-6l-1,-1v1l-4,-1l2,-6l-7,-6l-4,4l-8,2l-12,-5l-2,-6l-20,-2l2,-6l-2,1l-2,-1l-4,-5l-4,-1l-2,-11l-6,-2l-1,-3h11l1,-3l6,-2l-3,-8l5,-4l-12,2v8l-13,2l2,13l-8,2l-6,-2l-1,-2l-4,6l-4,1l-1,-5l-7,1l-5,-5h-7v-3l-8,-1l-4,-1l2,-7l-3,-5l-20,18l-6,5l-26,-1M118,38l5,7l-17,9h-4l-1,8l-10,3v11h-10v17h9l-1,9h42l53,2l-1,11v37l-5,2l-1,-4l-6,4l-23,-2v4l-7,6h-3l-8,10l-7,2l-2,5l-1,9v34h-1v26l48,1h1l2,12l5,-3l-2,-4l8,1v-6l16,4v8l7,-1l2,-11l4,3l6,-11l3,11h2l-1,15l25,-4l-1,13v22l-1,8v29l-13,18l-13,17v1l-13,16l-7,1l-10,-7l-2,-9l-6,-10l-10,-8l-4,2h-11l-63,-3v-57l-9,7h-49M154,401l-1,2v3l3,8l-4,1l-4,16l-8,1l-2,7l-9,-1v-9l-10,-4l-5,-2l3,1l2,-2l-3,-4l-9,-2l-5,-7l-1,-5l-5,-3l-1,-6l-9,-7l1,-4M677,383l16,13l16,-4l16,-2l12,-3l7,-5l11,-5l6,1l3,-13l17,-9l12,-6l9,-7l11,-8l13,-4l10,-4l12,-2l15,-4l14,-7l6,8l5,-1v13l-5,2l-10,1l-1,5l7,-1l1,9l-15,3l6,4v7l-3,4h2l2,-4l16,-6l1,-4l6,-1M689,453l-16,7l-3,1l-8,6l-12,5l-2,5M799,560v-10l5,-3l-2,-15l21,-4l2,-5l-24,-5l3,-15l-4,-5l-13,3l-3,7l-5,3l8,1l3,1v2l1,2l2,26h-11l-10,-6h-1v-1h-5l-2,1l-5,6l-8,-5l-2,-5l-6,-4v-2l7,-2l1,-3l-4,-11l-3,2l-4,-14h4l-8,-7l4,-3l10,-3l9,3l7,-8l10,-3l10,-7l-27,-23l3,-7h-3v-7l10,2M528,563l-2,-48M503,76v25h22v-6h19l1,18h-8v10l-5,5l1,6l4,8l-33,1l1,30v22l8,11l1,6l11,5v6l17,17l7,3l25,31h4v6l-10,11l-13,19l-12,12l-8,2l-23,13l-16,7l-5,3l-3,6l3,4l-10,10l-6,3l-10,16l5,10l-3,2l-14,20l7,1l2,6h16l-15,22l-9,-5l-8,-6l-25,-8l-3,3l-10,-12l9,-15l1,-8l-4,3l1,-12l-4,2l-3,-5l4,-14l-3,-2l-5,-8l3,-6l14,-9l-9,-1l-31,2l2,2l-24,-1h-49l-1,-20l1,-19l-67,-2M103,557l1,-3l-5,-9l1,-11l-6,-11l-1,-8l4,-4l-1,-5l3,-8h6l7,-4l-2,-8l7,-1l5,4l-1,-14l-7,-1l-4,3l-2,-7l6,-3l-1,-8l-3,-3l10,-4l7,4h7l3,6l-3,2l1,3l-2,1l-5,-2l4,5h22l6,5h3l6,5l16,-5l8,-6h6l12,11l7,3l1,8h8l-11,19h3v8l3,3l-1,6l4,3l1,6l4,1l8,-7l4,2v5l5,2l6,-16l5,3l10,-13v-4l9,-1l4,-20l4,-5l7,-1l19,10l4,-3l3,-3l5,-16l9,-21l3,-3v-11l3,-4l3,-5l7,-4l1,-8l-12,-8l-6,4l-5,-1l4,-11l-2,-6l2,-6l1,-2v-1l1,-1h1l1,-2v-7h-10l-9,7l1,-15l-3,-2l-3,-3l-6,-1l-5,15l-9,23l-10,19l-5,-6l-8,9l-5,-2l-2,4l-4,-1l1,-4l-5,-4h-9l-4,-4l-5,3l-1,-5h-5v-5l-8,-2l-5,4l-8,-9l-4,2l1,-10M794,206l-2,5l-10,4l1,14l-10,6l8,5l8,-5l3,2l5,-5l21,-1v14l6,5l2,1l-1,2l-6,7l4,2l6,8l3,5l12,13l-13,8l4,5l-22,13l-3,-9h-5l-3,6l-6,-4l-21,11l-12,-12l-4,2l-30,-9l-12,14l-3,18l-12,5l-27,14l-20,9l-5,3l27,21l-23,18l-10,8l3,13l-9,4l3,1v2l3,16l4,3l-3,15l-2,2"/><g class="cities"><circle r="7" cx="904" cy="508"/><text x="904" y="508">Philadelphia</text><circle r="7" cx="115" cy="404"/><text x="115" y="404">Pittsburgh</text><circle r="7" cx="847" cy="369"/><text x="847" y="369">Allentown</text></g></svg>