<svg version="1.1" xmlns="http://www.w3.org/2000/svg" width="1000" height="634" viewBox="0 0 1000 634"><g class="districts"><path data-race-id="PA01" d="M866,584l4,-2l-4,-6l2,-4v-2l6,2l2,3l-3,5l-1,2l2,-1l5,-2h9l-1,-1l-4,-6l1,-14l1,-1l4,-3l2,10l6,5l6,-1l1,-10l3,-3l1,-7l9,3v-6l1,-1l9,-3l6,-4l1,4l-1,1l-2,2l-1,1l-2,1v1l-1,1h-3v1h-2v1l-1,1v1l-4,4l-9,5l1,12l-12,6l-1,1l-6,3l-11,-1l-10,8l-2,1l-5,-7Z"/><path data-race-id="PA02" d="M876,539h1l7,-2l2,4l8,-9l6,2l9,6l-1,8l-1,7l-3,3l-1,10l-6,1l-6,-5l-2,-10l-4,3l-6,-9l-6,-6Z"/><path data-race-id="PA03" d="M163,16v30l-1,21v2l-3,1l-9,5l-6,1l-6,4l-8,4l-4,3h1h-1v-1l-8,5l5,9l-11,6l-10,2l-1,8l-10,3v12h-10v16l9,1l-1,8l59,2h36l-1,12v37l-5,1l-5,-4h-3l1,4l-23,-1v4l-7,5h-3l-5,8l-12,10l-1,9v33l-1,2v24l48,1l1,1l2,11l5,-3l-2,-4l8,2v-6l16,3v8l7,-1l3,-10l3,2l5,-13l4,14h2l-1,15l25,-5l-1,14v21l-1,8v30l-10,12l-14,20l-15,19l-18,-7l-4,-15l-12,-10l-5,1l-25,-1h-19l-10,-1h-20v-57l-9,6h-49v-2l1,-13v-25l1,-7v-22l1,-5v-7l1,-23v-24l1,-19v-3l1,-11v-26l1,-15v-13l1,-2v-13l3,-74l69,-13Z"/><path data-race-id="PA04" d="M526,570l10,-11l30,-7l6,-1l8,-8l17,-17h4l-1,-7h4l2,-5l-3,-4l-4,3l-13,3v-14l2,-9l14,-1l14,-5v-1l3,2h3v9h4v7h-5l5,5l5,5l12,5l1,8l4,4l9,12l15,4l7,-1l3,6v1v-1v1l3,8l2,5l1,1l15,9l1,8l4,3l7,9l1,1v1v-1v1l6,7l6,11h-82l-1,1h-117Z"/><path data-race-id="PA05" d="M126,86v1h1h-1l4,-3l8,-4l6,-4l6,-1l9,-5l3,-1v5l-1,27v25h7l15,1h2l48,1h26l23,1h78l48,1h15l58,1l22,-1v25h22v-5l19,-1l1,19h-8v10l-5,6l1,4l4,8l-33,1l1,31v21l3,1l6,13v3l11,6v5l17,17l7,3l25,32h4v5l-11,12l-12,18l-12,12l-8,3l-29,16l-10,3l-5,4l-3,5l3,4l-10,11l-6,3l-10,15l5,11l-17,21l7,1l2,6h16l-15,22l-17,-10l-1,-3h-7l-17,-5l-4,2l-5,-7l1,-4l-4,-1l8,-15l1,-7l-4,2l1,-10l-5,-2l2,-18l-8,-9v-3l17,-12h-13l-27,2l2,1h-69l-4,-1l-1,-20l1,-18l-67,-3l1,-8v-21l1,-14l-25,5l1,-15h-2l-4,-14l-5,13l-3,-2l-3,10l-7,1v-8l-16,-3v6l-8,-2l2,4l-5,3l-2,-11l-1,-1l-48,-1v-24l1,-2v-33l1,-9l12,-10l5,-8h3l7,-5v-4l23,1l-1,-4h3l5,4l5,-1v-37l1,-12h-36l-59,-2l1,-8l-9,-1v-16h10v-12l10,-3l1,-8l10,-2l11,-6l-5,-9Z"/><path data-race-id="PA06" d="M696,483l-2,-3l9,1l5,-3l-3,-7l4,-8l6,4h23l8,-3l-1,-10l7,-2l7,11l9,-2v-6l14,-6l5,-6l6,-3l1,5l11,9l4,-5l6,8l12,-2l-2,9l5,-2l4,-10l7,6l7,5l-3,5l-6,-1v8l8,5l-8,12l11,8l3,-2l3,1l-1,11l15,11l-4,7l-12,3l7,1l5,8l5,-1l-9,5l1,4l-6,7h1l-13,10l-1,3l-5,7l-7,-3l-7,-8l-5,4l-4,-1v-5l-6,1l-2,-3l5,-5l-8,1l-5,-8l3,-7l7,-1l-1,-7l-5,-5l-4,1l-3,-7l4,1h4l2,-1h1l1,1v-1h2l4,-6l-2,1v-4l-2,-2l-4,-3l8,-6l9,-15l-7,-6l2,-6l-9,-3l-3,-4l-8,-2l-5,6l1,7l5,5l-1,15l-5,1v-4l-11,-4l-5,7l-4,-1v-6l-5,-2l7,-2l3,4h1h-1v-2l6,-6l-4,-3l1,-8l-1,-3l-10,9l1,8l-8,-5l-3,2l-11,12l-9,-8l-24,13l-23,4l-5,3l-2,-13l12,-3l-7,-6Z"/><path data-race-id="PA07" d="M776,532l10,-7l-27,-23l3,-7h-3v-7l10,2l5,2v6l4,1l5,-7l11,4v4l5,-1l1,-15l-5,-5l-1,-7l5,-6l8,2l3,4l9,3l-2,6l7,6l-9,15l-8,6l4,3l2,2v4l2,-1l-4,6h-2v1l-1,-1h-1l-2,1h-4l-4,-1l3,7l4,-1l5,5l1,7l-7,1l-3,7l5,8l8,-1l-5,5l2,3l6,-1v5l4,1l5,-4l7,8l7,3l5,-7l1,-3l13,-10h-1l6,-7l-1,-4l9,-5l-5,1l-5,-8l-7,-1l12,-3l4,-7l-15,-11l1,-11l10,6l8,-10l5,4l2,8l7,3l6,-1l3,-7v4l6,4l-1,3l6,3l-8,2l-8,-5l-6,1l5,4l-3,2l13,3l-1,8l-6,-2l-7,2l-4,-5l-6,3l5,-12l-4,1l-1,1l-9,9l1,3l-7,1l3,3l11,4l-3,3l6,6l6,9l-1,1l-1,14l4,6l1,1h-9l-5,2l-2,1l1,-2l3,-5l-2,-3l-6,-2v2l-2,4l4,6l-4,2h-4l5,7l-1,1l-5,3v-1l-1,-1h-2v-1l-2,-1h-1l-1,-1l-4,-1h-5l-1,-1h-8v1h-6l-1,1h-2l-13,8v1h-1v1h-1v1l-1,1h-1l-1,3h-1v2h-1v1l-1,2l-1,1v2l-1,1h-5v-10l4,-4l-1,-13l11,-1l11,-4l1,-4l-24,-6l3,-14l-4,-6l-12,3l-4,8l-5,3h8l1,1h2v3l1,1l1,1l-1,6l2,20h-11l-10,-7h-1v-1h-1v1l-3,-1l-2,1h-1l-5,7l-10,-8l-3,-6l-3,-1v-2l8,-2l-3,-12h-4l-3,-10l3,-3l-8,-8l6,-4l8,-2l9,4l6,-9Z"/><path data-race-id="PA08" d="M848,463l1,1l9,-13l15,-13l11,-10l11,-6l1,3v5l3,2v-1l3,-2l7,1h1v1h1l1,1h1l1,2l2,1v17l1,10l1,1l2,1l4,1l2,-1h4l3,2l1,2l1,1v1l1,2v6h1v1h1l1,1l5,3l1,1h1l1,1l3,2v1l1,1l1,2l1,3v1l2,3h1l1,1l8,5h1v1h1v2l2,3v1h1l2,1l1,1l2,3v1l-1,2l-1,1h-1v1h-3v1h-2v1h-1l-1,1v1h-1l-1,-1h-2v-1h-4v2l-1,1v2l-1,1v1h-1v1h-1v1h-1v1h-2v1h-2l-1,1h-5l-1,1h-1v1h-2v1h-1v1h-1v1h-1l-1,1l-1,-4l3,-3v-8l-6,-3l-3,-1l-15,-11l-23,-17l-4,5h-6l-5,-4l-8,10l-10,-6l-3,-1l-3,2l-11,-8l8,-12l-8,-5v-8l6,1Z"/><path data-race-id="PA09" d="M99,552l6,1l6,-4v-10l11,5l-1,-13l-7,-3l-4,3l-2,-6l6,-3l-2,-3l3,-11l5,-2l7,5h7l3,6l-3,1l1,4l-2,1l-5,-3l4,6l1,-1h3l18,1l5,4h5l4,4h8l11,-4l10,-7l14,12l7,4l1,7h8l-11,20h2l2,7v9l4,3l2,7h4l8,-7l4,3l-1,4l6,4l8,-18l2,3l11,-13v-4l10,-3l3,-18l4,-5l10,1l17,9l3,-4l3,-4l6,-14l3,-11l5,-10l6,-18l3,-6l7,-3l1,-9l-11,-6l-7,2l-5,-1l4,-10v-15h1l3,-4l1,-6h-11l-9,6l1,-15h-1l-5,-4l-6,-1l-4,12l-6,15l-4,11l-10,18l-2,-4l-6,-1l-5,9l-11,1v-6l-4,-3h-9l-1,-3l-9,-3l-5,1v-5l-8,-2v3h-7l-6,-8l-4,2l1,-11l15,-19l14,-20l10,-12v-30l67,3l-1,18l1,20l4,1h69l-2,-1l27,-2h13l-17,12v3l8,9l-2,18l5,2l-1,10l4,-2l-1,7l-8,15l4,1l-1,4l5,7l4,-2l17,5h7l1,3l17,10l15,-22l2,-3l8,25l4,-5l1,6l4,1l-1,7l7,-2l-1,7v7l2,3l6,6v6l4,5l4,6v3l11,13l-3,6l2,47h-127l-2,-1l-1,1v-1h-101l-1,-1h-43l-1,-1h-71l-2,-1h-33l-23,-1h-13l-4,-1h-3v-7l-4,-4l1,-11l-6,-12l-1,-7l4,-3Z"/><path data-race-id="PA10" d="M491,402l5,-4l10,-3l29,-16l8,-3l12,-12l12,-18l11,-12v-5h-4l-25,-32l-7,-3l-17,-17v-5l-11,-6v-3l-6,-13l-3,-1v-21l-1,-31l33,-1l-4,-8l-1,-4l5,-6v-10h8l-1,-19l-19,1v5h-22v-25h108l4,-1h113l8,-1h66l18,-1l4,-1h36l3,5l7,5l2,1l1,1l2,7v4l2,1l2,4l2,1l4,-2l10,4l1,-1l1,1l3,6l7,1l-5,6l1,4l4,-1l1,1l1,1l2,4v6h-3v2h1l2,3v1l-1,4l2,9l-2,2v2h-2l1,2l7,7l1,5l3,4v2l2,1l3,6h2l2,-1l4,1h2l1,2v2h1l1,1v1h-1v2h1l5,-1h1l1,1l2,2h2v-1l1,-1l1,-1h1l1,1v2l1,1h6l1,-1h1l1,3v3l2,1l3,3l1,1l1,1h1v1l-1,2l-1,1h-2l-1,1h-1v1l-1,-1h-1v1l-3,1h-1v2l-1,1h-3v3l-1,1l-1,1v1h-2v1h-1l-1,1v1l-1,1v1l-1,3v1l-1,1h-1v1l-1,1v4l1,1l-1,2l-1,1v1l-1,1v1l-1,3l-1,1l-1,1l-1,1v2h-1l-1,2v2h-1l-1,1h-1l-1,1v1h-1l-2,2l-3,2l-2,3l-6,2l-7,-12l-14,-2h-4v11l2,8h-6l1,11l3,3l4,-3v5l-4,3l-3,-3l-8,-1l1,-5l-16,16l-10,-16l6,-25h5l5,-23l-9,1l-23,2l-5,1l-3,5l-1,-3h-1h1h-1l-7,-5l-3,-6h12l-1,-16l-8,1l-7,-5l2,-4l9,-2l3,-5l-8,-4l6,-1l-5,-3l5,-3l7,7l3,-4l-5,-6v-9l6,-2l-5,-4l6,-2l1,-5l-11,1l-4,12l-12,10l-7,8l-8,12v6l-6,-4l-6,-3l-1,-7l10,-18l-5,-4l5,-7v-4l7,-13h-62v-2l-14,2l-3,22l-9,36l-5,14h-15l-7,8l-11,14l-13,12h-13l-8,-3l1,3l-1,4v11l-6,14l-2,15l18,-4l5,1l-2,4l-11,5l-12,9l-2,7l-6,8l-1,10v11l-14,16l-1,2l-1,3l-3,6l-3,4v1h1v2l2,12l4,7l-10,8l-2,-6l-3,1l-29,16l-7,-6l-8,2l5,19v7l-6,2l-1,-6l-9,6l-7,2l3,-5l8,-6l-7,1l-22,18l-13,4l1,-7l-7,2l1,-7l-4,-1l-1,-6l-4,5l-8,-25l-2,3h-16l-2,-6l-7,-1l17,-21l-5,-11l10,-15l6,-3l10,-11l-3,-4Z"/><path data-race-id="PA11" d="M502,515l13,-4l22,-18l7,-1l-8,6l-3,5l7,-2l9,-6l1,6l6,-2v-7l-5,-19l8,-2l7,6l29,-16l3,-1l2,6l10,-8l-4,-7l-2,-12v-2h-1v-1l3,-4l3,-6l1,-3l1,-2l14,-16v-11l1,-10l6,-8l2,-7l12,-9l11,-5l2,-4l-5,-1l-18,4l2,-15l6,-14v-11l1,-4l-1,-3l8,3h13l13,-12l11,-14l7,-8h15l5,-14l9,-36l3,-22l14,-2v2h62l-7,13v4l-5,7l5,4l-10,18l1,7l6,3l-2,6l-9,2l-2,4l4,6l-2,6l-10,6l8,5l8,-5l3,1l5,-4l21,-2l1,16l1,3h3l3,2v-1v1l-7,8l4,3l2,5l14,15l4,6l-12,8l4,4l-22,14l-3,-10l-5,1l-3,6l-6,-5l-21,12l-12,-13l-7,1l-27,-8l-12,14l-3,18l-12,5l-38,18l-14,8l27,22l-23,17l-10,7l3,16l-10,1l4,5l3,8v7l4,3l-3,15l-2,2l-12,-5l-5,-5l-5,-5h5v-7h-4v-9h-3l-3,-2v1l-14,5l-14,1l-2,9v14l13,-3l4,-3l3,4l-2,5h-4l1,7h-4l-17,17l-8,8l-6,1l-30,7l-10,11l3,-6l-11,-13v-3l-4,-6l-4,-5v-6l-6,-6l-2,-3Z"/><path data-race-id="PA12" d="M30,432l1,-4v-22l1,-22l1,-16v-11h49l9,-6v57h20l10,1h19l25,1l5,-1l12,10l4,15l18,7l-1,11l4,-2l6,8h7v-3l8,2v5l5,-1l9,3l1,3h9l4,3v6l11,-1l5,-9l6,1l2,4l10,-18l4,-11l6,-15l4,-12l6,1l5,4h1l-1,15l9,-6h11l-1,6l-3,4h-1v15l-4,10l5,1l7,-2l11,6l-1,9l-7,3l-3,6l-6,18l-5,10l-3,11l-6,14l-3,4l-3,4l-17,-9l-10,-1l-4,5l-3,18l-10,3v4l-11,13l-2,-3l-8,18l-6,-4l1,-4l-4,-3l-8,7h-4l-2,-7l-4,-3v-9l-2,-7h-2l11,-20l8,-11l4,-4h7l3,-9l4,-2l8,-16l-25,-20l-3,1l-5,10l-12,-3l-1,-7v1v-1v1l-4,-1l3,-5l-7,-7l-4,4l-8,2l-13,-5l-4,-7l-14,2l-4,-3l2,-5l-2,1l-6,-3v-4h-4l-2,-11l-7,-4l10,-1l2,-4l6,-1l-3,-9l5,-4l-12,2l2,10h-15l3,14l-9,1h-9l-2,3l-5,-1l-1,-5l-6,3l-4,-5l-8,-1v-3l-8,-1l-4,-1l2,-6l-3,-5l-22,19l-4,4l-26,-1v-14Z"/><path data-race-id="PA13" d="M877,519l1,-1l4,-1l-5,12l6,-3l4,5l7,-2l6,2l1,-8l-13,-3l3,-2l-5,-4l6,-1l8,5l8,-2l-6,-3l1,-3l-6,-4v-4l-3,7l-6,1l-7,-3l-2,-8h6l4,-5l23,17l15,11l3,1l6,3v8l-3,3l-6,4l-9,3l-1,1v6l-9,-3l1,-8l-9,-6l-6,-2l-8,9l-2,-4l-7,2h-1l-11,-4l-3,-3l7,-1l-1,-3Z"/><path data-race-id="PA14" d="M87,438l8,1v3l8,1l4,5l6,-3l1,5l5,1l2,-3h9l9,-1l-3,-14h15l-2,-10l12,-2l-5,4l3,9l-6,1l-2,4l-10,1l7,4l2,11h4l-2,3l3,9l1,2h-4l-4,16l-8,1v6l-10,1v-7l-11,-7l-3,3l3,-9l-7,-1l-4,-3h-1l-1,-2l-4,-4l-1,-5l-5,-3l-1,-6l-9,-7Z"/><path data-race-id="PA15" d="M654,455l23,-17l16,13l16,-5h13l15,-4l7,-6l11,-5l4,1h3l2,-13l17,-9l14,-6l7,-6l11,-9l13,-4l22,-6l15,-4l14,-6v5l3,-2l4,5l4,-1l2,10l-7,4l-10,2l-1,4h7l1,9l-15,2l6,4l-1,9v2l24,-14l1,-1h2v3h-1l-1,1l-1,1v2l2,5l-1,3l-11,6l-11,10l-15,13l-9,13l-1,-1l-7,-5l-7,-6l-4,10l-5,2l2,-9l-12,2l-6,-8l-4,5l-11,-9l-1,-5l-6,3l-5,6l-14,6v6l-9,2l-7,-11l-7,2l1,10l-8,3h-23l-6,-4l-4,8l3,7l-5,3l-9,-1l2,3l-4,3l7,6l-12,3l2,13l-16,6l-6,2l-5,5l-12,5l-2,5l-4,-4l-1,-8l2,-2l3,-15l-4,-3v-7l-3,-8l-4,-5l10,-1l-3,-16Z"/><path data-race-id="PA16" d="M648,531l2,-5l12,-5l5,-5l6,-2l16,-6l5,-3l23,-4l24,-13l9,8l11,-12l3,-2l8,5l-1,-8l10,-9l1,3l-1,8l4,3l-6,6v2h1h-1l-3,-4l-7,2l-10,-2v7h3l-3,7l27,23l-10,7l-11,3l-6,9l-9,-4l-8,2l-6,4l8,8l-3,3l3,10h4l3,12l-8,2v2l3,1l3,6l10,8l5,-7h1l2,-1l3,1v-1h1v1h1l10,7h11l-2,-20l1,-6l-1,-1l-1,-1v-3h-2l-1,-1h-8l5,-3l4,-8l12,-3l4,6l-3,14l24,6l-1,4l-11,4l-11,1l1,13l-4,4v10h-32l-5,1h-28l-1,1h-5l-6,-11l-6,-7v-1v1v-1l-1,-1l-7,-9l-4,-3l-1,-8l-15,-9l-1,-1l-2,-5l-3,-8v-1v1v-1l-3,-6l-7,1l-15,-4Z"/><path data-race-id="PA17" d="M650,416l14,-8l38,-18l12,-5l3,-18l12,-14l27,8l7,-1l12,13l21,-12l6,5l3,-6l5,-1l3,10l22,-14l-4,-4l12,-8l-4,-6l-14,-15l-2,-5l-4,-3l7,-8v-1v1l-3,-2h-3l-1,-3l-1,-16l-21,2l-5,4l-3,-1l-8,5l-8,-5l10,-6l2,-6l-4,-6l2,-4l9,-2l2,-6l6,4v-6l8,-12l7,-8l12,-10l4,-12l11,-1l-1,5l-6,2l5,4l-6,2v9l5,6l-3,4l-7,-7l-5,3l5,3l-6,1l8,4l-3,5l-9,2l-2,4l7,5l8,-1l1,16h-12l3,6l7,5h1h-1h1l1,3l3,-5l5,-1l23,-2l9,-1l-5,23h-5l-6,25l10,16l16,-16l-1,5l8,1l3,3l4,-3v-5l-4,3l-3,-3l-1,-11h6l-2,-8v-11h4l14,2l7,12l6,-2v1h2l2,-2h1l-1,1v1l-2,1l-1,1h-1v1h-1l-1,1h-1v1l-2,5h-1l-5,5h-3v1l-2,1l-1,1h-1v1h-2v1l-1,1h-1v5h2v1l1,2l2,4h1v2h1l3,6l1,1l1,2l2,1v1l-1,5h-5l-1,1v2l2,1v1l-6,9h-1l-7,3v2l-1,1h-1l-1,1v2l2,2v3l-1,1h-1v3l-1,1v2l1,2h1l-1,1l-24,14v-2l1,-9l-6,-4l15,-2l-1,-9h-7l1,-4l10,-2l7,-4l-2,-10l-4,1l-4,-5l-3,2v-5l-14,6l-15,4l-22,6l-13,4l-11,9l-7,6l-14,6l-17,9l-2,13h-3l-4,-1l-11,5l-7,6l-15,4h-13l-16,5l-16,-13l-27,-22Z"/><path data-race-id="PA18" d="M25,603v-27l1,-12v-7l1,-15v-29l1,-2v-23l1,-5v-17l1,-18l26,1l4,-4l22,-19l3,5l-2,6l4,1l-1,4l9,7l1,6l5,3l1,5l4,4l1,2h1l4,3l7,1l-3,9l3,-3l11,7v7l10,-1v-6l8,-1l4,-16h4l-1,-2l-3,-9l2,-3v4l6,3l2,-1l-2,5l4,3l14,-2l4,7l13,5l8,-2l4,-4l7,7l-3,5l4,1v-1v1v-1l1,7l12,3l5,-10l3,-1l25,20l-8,16l-4,2l-3,9h-7l-4,4l-8,11h-8l-1,-7l-7,-4l-14,-12l-10,7l-11,4h-8l-4,-4h-5l-5,-4l-18,-1h-3l-1,1l-4,-6l5,3l2,-1l-1,-4l3,-1l-3,-6h-7l-7,-5l-5,2l-3,11l2,3l-6,3l2,6l4,-3l7,3l1,13l-11,-5v10l-6,4l-6,-1l-2,15l-4,3l1,7l6,12l-1,11l4,4v7h-38l-1,-1h-23l-16,-1v-5Z"/></g>  <path class="districts-mesh" d="M885,557l4,-3l2,10l6,5l6,-1l1,-10l3,-3l1,-7l9,3v-6l1,-1l9,-3l6,-4l1,4M867,591l-5,-7h4l4,-2l-4,-6l2,-4v-2l6,2l2,3l-3,5l-1,2l2,-1l5,-2h9l-1,-1l-4,-6l1,-14l1,-1l-6,-9l-6,-6l3,-3M856,499l-1,11l15,11l-4,7l-12,3l7,1l5,8l5,-1l-9,5l1,4l-6,7h1l-13,10l-1,3l-5,7l-7,-3l-7,-8l-5,4l-4,-1v-5l-6,1l-2,-3l5,-5l-8,1l-5,-8l3,-7l7,-1l-1,-7l-5,-5l-4,1l-3,-7l4,1h4l2,-1h1l1,1v-1h2l4,-6l-2,1v-4l-2,-2l-4,-3l8,-6l9,-15l-7,-6l2,-6l-9,-3l-3,-4l-8,-2l-5,6l1,7l5,5l-1,15l-5,1v-4l-11,-4l-5,7l-4,-1v-6l-5,-2l7,-2l3,4v-2l6,-6l-4,-3l1,-8l-1,-3l-10,9l1,8l-8,-5l-3,2l-11,12l-9,-8l-24,13l-23,4l-5,3l-2,-13l12,-3l-7,-6l4,-3l-2,-3l9,1l5,-3l-3,-7l4,-8l6,4h23l8,-3l-1,-10l7,-2l7,11l9,-2v-6l14,-6l5,-6l6,-3l1,5l11,9l4,-5l6,8l12,-2l-2,9l5,-2l4,-10l7,6l7,5l1,1l9,-13l15,-13l11,-10l11,-6M933,537l3,-3v-8l-6,-3l-3,-1l-15,-11l-23,-17l-4,5h-6M682,552v1l3,8l2,5l1,1l15,9l1,8l4,3l7,9l1,1v1v-1v1l6,7l6,11M924,318l-6,2l-7,-12l-14,-2h-4v11l2,8h-6l1,11l3,3l4,-3v5l-4,3l-3,-3l-8,-1l1,-5l-16,16l-10,-16l6,-25h5l5,-23l-9,1l-23,2l-5,1l-3,5l-1,-3h-1l-7,-5l-3,-6h12l-1,-16l-8,1l-7,-5l2,-4l9,-2l3,-5l-8,-4l6,-1l-5,-3l5,-3l7,7l3,-4l-5,-6v-9l6,-2l-5,-4l6,-2l1,-5l-11,1l-4,12l-12,10l-7,8l-8,12v6l-6,-4l-6,-3l-1,-7l10,-18l-5,-4l5,-7v-4l7,-13h-62v-2l-14,2l-3,22l-9,36l-5,14h-15l-7,8l-11,14l-13,12h-13l-8,-3l1,3l-1,4v11l-6,14l-2,15l18,-4l5,1l-2,4l-11,5l-12,9l-2,7l-6,8l-1,10v11l-14,16l-1,2l-1,3l-3,6l-3,4v1h1v2l2,12l4,7l-10,8l-2,-6l-3,1l-29,16l-7,-6l-8,2l5,19v7l-6,2l-1,-6l-9,6l-7,2l3,-5l8,-6l-7,1l-22,18l-13,4M794,260l-2,6l-9,2l-2,4l4,6l-2,6l-10,6l8,5l8,-5l3,1l5,-4l21,-2l1,16l1,3h3l3,2v-1M826,306l-7,8l4,3l2,5l14,15l4,6l-12,8l4,4l-22,14l-3,-10l-5,1l-3,6l-6,-5l-21,12l-12,-13l-7,1l-27,-8l-12,14l-3,18l-12,5l-38,18l-14,8l27,22l-23,17l-10,7l3,16l-10,1l4,5l3,8v7l4,3l-3,15l-2,2M227,546l8,-11l4,-4h7l3,-9l4,-2l8,-16l-25,-20l-3,1l-5,10l-12,-3l-1,-7v1l-4,-1l3,-5l-7,-7l-4,4l-8,2l-13,-5l-4,-7l-14,2l-4,-3l2,-5l-2,1l-6,-3v-4h-4l-2,-11l-7,-4l10,-1l2,-4l6,-1l-3,-9l5,-4l-12,2l2,10h-15l3,14l-9,1h-9l-2,3l-5,-1l-1,-5l-6,3l-4,-5l-8,-1v-3l-8,-1l-4,-1l2,-6l-3,-5l-22,19l-4,4l-26,-1M162,69l-3,1l-9,5l-6,1l-6,4l-8,4l-4,3h1h-1v-1l-8,5l5,9l-11,6l-10,2l-1,8l-10,3v12h-10v16l9,1l-1,8l59,2h36l-1,12v37l-5,1l-5,-4h-3l1,4l-23,-1v4l-7,5h-3l-5,8l-12,10l-1,9v33l-1,2v24l48,1l1,1l2,11l5,-3l-2,-4l8,2v-6l16,3v8l7,-1l3,-10l3,2l5,-13l4,14h2l-1,15l25,-5l-1,14v21l-1,8v30l-10,12l-14,20l-15,19l-18,-7l-4,-15l-12,-10l-5,1l-25,-1h-19l-10,-1h-20v-57l-9,6h-49M154,455l-2,3l3,9l1,2h-4l-4,16l-8,1v6l-10,1v-7l-11,-7l-3,3l3,-9l-7,-1l-4,-3h-1l-1,-2l-4,-4l-1,-5l-5,-3l-1,-6l-9,-7l1,-4M779,492h1h-1M677,438l16,13l16,-5h13l15,-4l7,-6l11,-5l4,1h3l2,-13l17,-9l14,-6l7,-6l11,-9l13,-4l22,-6l15,-4l14,-6v5l3,-2l4,5l4,-1l2,10l-7,4l-10,2l-1,4h7l1,9l-15,2l6,4l-1,9v2l24,-14l1,-1M503,130v25h22v-5l19,-1l1,19h-8v10l-5,6l1,4l4,8l-33,1l1,31v21l3,1l6,13v3l11,6v5l17,17l7,3l25,32h4v5l-11,12l-12,18l-12,12l-8,3l-29,16l-10,3l-5,4l-3,5l3,4l-10,11l-6,3l-10,15l5,11l-17,21l7,1l2,6h16l2,-3l8,25l4,-5l1,6l4,1l-1,7l7,-2l-1,7v7l2,3l6,6v6l4,5l4,6v3l11,13l-3,6l10,-11l30,-7l6,-1l8,-8l17,-17h4l-1,-7h4l2,-5l-3,-4l-4,3l-13,3v-14l2,-9l14,-1l14,-5v-1l3,2h3v9h4v7h-5l5,5l5,5l12,5l1,8l4,4l9,12l15,4l7,-1l3,6v1M689,508l-16,6l-6,2l-5,5l-12,5l-2,5M799,614v-10l4,-4l-1,-13l11,-1l11,-4l1,-4l-24,-6l3,-14l-4,-6l-12,3l-4,8l-5,3h8l1,1h2v3l1,1l1,1l-1,6l2,20h-11l-10,-7h-1v-1h-1v1l-3,-1l-2,1h-1l-5,7l-10,-8l-3,-6l-3,-1v-2l8,-2l-3,-12h-4l-3,-10l3,-3l-8,-8l6,-4l8,-2l9,4l6,-9l11,-3l10,-7l-27,-23l3,-7h-3v-7l10,2M528,617l-2,-47M478,479l-15,22l-17,-10l-1,-3h-7l-17,-5l-4,2l-5,-7l1,-4l-4,-1l8,-15l1,-7l-4,2l1,-10l-5,-2l2,-18l-8,-9v-3l17,-12h-13l-27,2l2,1h-69l-4,-1l-1,-20l1,-18l-67,-3M103,611v-7l-4,-4l1,-11l-6,-12l-1,-7l4,-3l2,-15l6,1l6,-4v-10l11,5l-1,-13l-7,-3l-4,3l-2,-6l6,-3l-2,-3l3,-11l5,-2l7,5h7l3,6l-3,1l1,4l-2,1l-5,-3l4,6l1,-1h3l18,1l5,4h5l4,4h8l11,-4l10,-7l14,12l7,4l1,7h8l-11,20h2l2,7v9l4,3l2,7h4l8,-7l4,3l-1,4l6,4l8,-18l2,3l11,-13v-4l10,-3l3,-18l4,-5l10,1l17,9l3,-4l3,-4l6,-14l3,-11l5,-10l6,-18l3,-6l7,-3l1,-9l-11,-6l-7,2l-5,-1l4,-10v-15h1l3,-4l1,-6h-11l-9,6l1,-15h-1l-5,-4l-6,-1l-4,12l-6,15l-4,11l-10,18l-2,-4l-6,-1l-5,9l-11,1v-6l-4,-3h-9l-1,-3l-9,-3l-5,1v-5l-8,-2v3h-7l-6,-8l-4,2l1,-11M848,463l-3,5l-6,-1v8l8,5l-8,12l11,8l3,-2l3,1l10,6l8,-10l5,4l2,8l7,3l6,-1l3,-7v4l6,4l-1,3l6,3l-8,2l-8,-5l-6,1l5,4l-3,2l13,3l-1,8l-6,-2l-7,2l-4,-5l-6,3l5,-12l-4,1l-1,1l-9,9l1,3l-7,1l3,3l11,4h1l7,-2l2,4l8,-9l6,2l9,6l-1,8"/></svg>