<svg version="1.1" xmlns="http://www.w3.org/2000/svg" width="1000" height="634" viewBox="0 0 1000 634">
  <path d="M41 127
l 3 -74
l 69 -13
l 50 -24
v 1
l -1 50
v 7
l -1 27
v 25
h 7
l 15 1
h 2
l 48 1
h 26
l 23 1
h 111
l 30 1
l 58 1
l 39 -1
h 91
l 4 -1
h 88
l 88 -2
h 29
l 4 -1
h 36
l 3 5
l 7 5
l 2 1
l 1 1
l 2 7
v 4
l 2 1
l 2 4
l 2 1
l 4 -2
l 10 4
l 1 -1
l 1 1
l 3 6
l 7 1
l -5 6
l 1 4
l 4 -1
l 1 1
l 1 1
l 2 4
v 6
h -3
v 2
h 1
l 2 3
v 1
l -1 4
l 2 9
l -2 2
v 2
h -2
l 1 2
l 7 7
l 1 5
l 3 4
v 2
l 2 1
l 3 6
h 2
l 2 -1
l 4 1
h 2
l 1 2
v 2
h 1
l 1 1
v 1
h -1
v 2
h 1
l 5 -1
h 1
l 1 1
l 2 2
h 2
v -1
l 1 -1
l 1 -1
h 1
l 1 1
v 2
l 1 1
h 6
l 1 -1
h 1
l 1 3
v 3
l 2 1
l 3 3
l 1 1
l 1 1
h 1
v 1
l -1 2
l -1 1
h -2
l -1 1
h -1
v 1
l -1 -1
h -1
v 1
l -3 1
h -1
v 2
l -1 1
h -3
v 3
l -1 1
l -1 1
v 1
h -2
v 1
h -1
l -1 1
v 1
l -1 1
v 1
l -1 3
v 1
l -1 1
h -1
v 1
l -1 1
v 4
l 1 1
l -1 2
l -1 1
v 1
l -1 1
v 1
l -1 3
l -1 1
l -1 1
l -1 1
v 2
h -1
l -1 2
v 2
h -1
l -1 1
h -1
l -1 1
v 1
h -1
l -2 2
l -3 2
l -2 3
v 1
h 2
l 2 -2
h 1
l -1 1
v 1
l -2 1
l -1 1
h -1
v 1
h -1
l -1 1
h -1
v 1
l -2 5
h -1
l -5 5
h -3
v 1
l -2 1
l -1 1
h -1
v 1
h -2
v 1
l -1 1
h -1
v 5
h 2
v 1
l 1 2
l 2 4
h 1
v 2
h 1
l 3 6
l 1 1
l 1 2
l 2 1
v 1
l -1 5
h -5
l -1 1
v 2
l 2 1
v 1
l -6 9
h -1
l -7 3
v 2
l -1 1
h -1
l -1 1
v 2
l 2 2
v 3
l -1 1
h -1
v 3
l -1 1
v 2
l 1 2
h 3
v 3
h -1
l -1 1
l -1 1
v 2
l 2 5
l -1 3
l 1 3
v 5
l 3 2
v -1
l 3 -2
l 7 1
h 1
v 1
h 1
l 1 1
h 1
l 1 2
l 2 1
v 17
l 1 10
l 1 1
l 2 1
l 4 1
l 2 -1
h 4
l 3 2
l 1 2
l 1 1
v 1
l 1 2
v 6
h 1
v 1
h 1
l 1 1
l 5 3
l 1 1
h 1
l 1 1
l 3 2
v 1
l 1 1
l 1 2
l 1 3
v 1
l 2 3
h 1
l 1 1
l 8 5
h 1
v 1
h 1
v 2
l 2 3
v 1
h 1
l 2 1
l 1 1
l 2 3
v 1
l -1 2
l -1 1
h -1
v 1
h -3
v 1
h -2
v 1
h -1
l -1 1
v 1
h -1
l -1 -1
h -2
v -1
h -4
v 2
l -1 1
v 2
l -1 1
v 1
h -1
v 1
h -1
v 1
h -1
v 1
h -2
v 1
h -2
l -1 1
h -5
l -1 1
h -1
v 1
h -2
v 1
h -1
v 1
h -1
v 1
h -1
l -1 1
l -1 1
l -2 2
l -1 1
l -2 1
v 1
l -1 1
h -3
v 1
h -2
v 1
l -1 1
v 1
l -4 4
l -9 5
l 1 12
l -12 6
l -1 1
l -6 3
l -11 -1
l -10 8
l -3 2
l -5 3
v -1
l -1 -1
h -2
v -1
l -2 -1
h -1
l -1 -1
l -4 -1
h -5
l -1 -1
h -7
l -1 1
h -6
l -1 1
h -2
l -13 8
v 1
h -1
v 1
h -1
v 1
l -1 1
h -1
l -1 3
h -1
v 2
h -1
v 1
l -1 2
l -1 1
v 2
l -1 1
h -37
l -5 1
h -28
l -1 1
h -87
l -1 1
h -244
l -2 -1
l -1 1
v -1
h -101
l -1 -1
h -43
l -1 -1
h -71
l -2 -1
h -33
l -23 -1
h -13
l -4 -1
h -41
l -1 -1
h -23
l -16 -1
v -33
l 1 -12
v -7
l 1 -15
v -29
l 1 -2
v -23
l 1 -5
v -17
l 1 -18
v -16
l 1 -4
v -22
l 1 -22
l 1 -16
v -13
l 1 -38
l 1 -10
v -19
l 1 -5
v -7
l 1 -23
v -24
l 1 -19
v -3
l 1 -11
v -23
l 1 -18
v -13
l 1 -2
v -12
Z"/>
<g class="districts">
<path data-race-id="PA01" d="M866 584
l 4 -2
l -4 -6
l 2 -4
v -2
l 6 2
l 2 3
l -3 5
l -1 2
l 2 -1
l 5 -2
h 9
l -1 -1
l -4 -6
l 1 -14
l 1 -1
l 4 -3
l 2 10
l 6 5
l 6 -1
l 1 -10
l 3 -3
l 1 -7
l 9 3
v -6
l 1 -1
l 9 -3
l 6 -4
l 1 4
l -1 1
l -2 2
l -1 1
l -2 1
v 1
l -1 1
h -3
v 1
h -2
v 1
l -1 1
v 1
l -4 4
l -9 5
l 1 12
l -12 6
l -1 1
l -6 3
l -11 -1
l -10 8
l -2 1
l -5 -7
Z"/>
<path data-race-id="PA02" d="M876 539
h 1
l 7 -2
l 2 4
l 8 -9
l 6 2
l 9 6
l -1 8
l -1 7
l -3 3
l -1 10
l -6 1
l -6 -5
l -2 -10
l -4 3
l -6 -9
l -6 -6
Z"/>
<path data-race-id="PA03" d="M163 16
v 30
l -1 21
v 2
l -3 1
l -9 5
l -6 1
l -6 4
l -8 4
l -4 3
h 1
h -1
v -1
l -8 5
l 5 9
l -11 6
l -10 2
l -1 8
l -10 3
v 12
h -10
v 16
l 9 1
l -1 8
l 59 2
h 36
l -1 12
v 37
l -5 1
l -5 -4
h -3
l 1 4
l -23 -1
v 4
l -7 5
h -3
l -5 8
l -12 10
l -1 9
v 33
l -1 2
v 24
l 48 1
l 1 1
l 2 11
l 5 -3
l -2 -4
l 8 2
v -6
l 16 3
v 8
l 7 -1
l 3 -10
l 3 2
l 5 -13
l 4 14
h 2
l -1 15
l 25 -5
l -1 14
v 21
l -1 8
v 30
l -10 12
l -14 20
l -15 19
l -18 -7
l -4 -15
l -12 -10
l -5 1
l -25 -1
h -19
l -10 -1
h -20
v -57
l -9 6
h -49
v -2
l 1 -13
v -25
l 1 -7
v -22
l 1 -5
v -7
l 1 -23
v -24
l 1 -19
v -3
l 1 -11
v -26
l 1 -15
v -13
l 1 -2
v -13
l 3 -74
l 69 -13
Z"/>
<path data-race-id="PA04" d="M526 570
l 10 -11
l 30 -7
l 6 -1
l 8 -8
l 17 -17
h 4
l -1 -7
h 4
l 2 -5
l -3 -4
l -4 3
l -13 3
v -14
l 2 -9
l 14 -1
l 14 -5
v -1
l 3 2
h 3
v 9
h 4
v 7
h -5
l 5 5
l 5 5
l 12 5
l 1 8
l 4 4
l 9 12
l 15 4
l 7 -1
l 3 6
v 1
v -1
v 1
l 3 8
l 2 5
l 1 1
l 15 9
l 1 8
l 4 3
l 7 9
l 1 1
v 1
v -1
v 1
l 6 7
l 6 11
h -82
l -1 1
h -117
Z"/>
<path data-race-id="PA05" d="M126 86
v 1
h 1
h -1
l 4 -3
l 8 -4
l 6 -4
l 6 -1
l 9 -5
l 3 -1
v 5
l -1 27
v 25
h 7
l 15 1
h 2
l 48 1
h 26
l 23 1
h 78
l 48 1
h 15
l 58 1
l 22 -1
v 25
h 22
v -5
l 19 -1
l 1 19
h -8
v 10
l -5 6
l 1 4
l 4 8
l -33 1
l 1 31
v 21
l 3 1
l 6 13
v 3
l 11 6
v 5
l 17 17
l 7 3
l 25 32
h 4
v 5
l -11 12
l -12 18
l -12 12
l -8 3
l -29 16
l -10 3
l -5 4
l -3 5
l 3 4
l -10 11
l -6 3
l -10 15
l 5 11
l -17 21
l 7 1
l 2 6
h 16
l -15 22
l -17 -10
l -1 -3
h -7
l -17 -5
l -4 2
l -5 -7
l 1 -4
l -4 -1
l 8 -15
l 1 -7
l -4 2
l 1 -10
l -5 -2
l 2 -18
l -8 -9
v -3
l 17 -12
h -13
l -27 2
l 2 1
h -69
l -4 -1
l -1 -20
l 1 -18
l -67 -3
l 1 -8
v -21
l 1 -14
l -25 5
l 1 -15
h -2
l -4 -14
l -5 13
l -3 -2
l -3 10
l -7 1
v -8
l -16 -3
v 6
l -8 -2
l 2 4
l -5 3
l -2 -11
l -1 -1
l -48 -1
v -24
l 1 -2
v -33
l 1 -9
l 12 -10
l 5 -8
h 3
l 7 -5
v -4
l 23 1
l -1 -4
h 3
l 5 4
l 5 -1
v -37
l 1 -12
h -36
l -59 -2
l 1 -8
l -9 -1
v -16
h 10
v -12
l 10 -3
l 1 -8
l 10 -2
l 11 -6
l -5 -9
Z"/>
<path data-race-id="PA06" d="M696 483
l -2 -3
l 9 1
l 5 -3
l -3 -7
l 4 -8
l 6 4
h 23
l 8 -3
l -1 -10
l 7 -2
l 7 11
l 9 -2
v -6
l 14 -6
l 5 -6
l 6 -3
l 1 5
l 11 9
l 4 -5
l 6 8
l 12 -2
l -2 9
l 5 -2
l 4 -10
l 7 6
l 7 5
l -3 5
l -6 -1
v 8
l 8 5
l -8 12
l 11 8
l 3 -2
l 3 1
l -1 11
l 15 11
l -4 7
l -12 3
l 7 1
l 5 8
l 5 -1
l -9 5
l 1 4
l -6 7
h 1
l -13 10
l -1 3
l -5 7
l -7 -3
l -7 -8
l -5 4
l -4 -1
v -5
l -6 1
l -2 -3
l 5 -5
l -8 1
l -5 -8
l 3 -7
l 7 -1
l -1 -7
l -5 -5
l -4 1
l -3 -7
l 4 1
h 4
l 2 -1
h 1
l 1 1
v -1
h 2
l 4 -6
l -2 1
v -4
l -2 -2
l -4 -3
l 8 -6
l 9 -15
l -7 -6
l 2 -6
l -9 -3
l -3 -4
l -8 -2
l -5 6
l 1 7
l 5 5
l -1 15
l -5 1
v -4
l -11 -4
l -5 7
l -4 -1
v -6
l -5 -2
l 7 -2
l 3 4
h 1
h -1
v -2
l 6 -6
l -4 -3
l 1 -8
l -1 -3
l -10 9
l 1 8
l -8 -5
l -3 2
l -11 12
l -9 -8
l -24 13
l -23 4
l -5 3
l -2 -13
l 12 -3
l -7 -6
Z"/>
<path data-race-id="PA07" d="M776 532
l 10 -7
l -27 -23
l 3 -7
h -3
v -7
l 10 2
l 5 2
v 6
l 4 1
l 5 -7
l 11 4
v 4
l 5 -1
l 1 -15
l -5 -5
l -1 -7
l 5 -6
l 8 2
l 3 4
l 9 3
l -2 6
l 7 6
l -9 15
l -8 6
l 4 3
l 2 2
v 4
l 2 -1
l -4 6
h -2
v 1
l -1 -1
h -1
l -2 1
h -4
l -4 -1
l 3 7
l 4 -1
l 5 5
l 1 7
l -7 1
l -3 7
l 5 8
l 8 -1
l -5 5
l 2 3
l 6 -1
v 5
l 4 1
l 5 -4
l 7 8
l 7 3
l 5 -7
l 1 -3
l 13 -10
h -1
l 6 -7
l -1 -4
l 9 -5
l -5 1
l -5 -8
l -7 -1
l 12 -3
l 4 -7
l -15 -11
l 1 -11
l 10 6
l 8 -10
l 5 4
l 2 8
l 7 3
l 6 -1
l 3 -7
v 4
l 6 4
l -1 3
l 6 3
l -8 2
l -8 -5
l -6 1
l 5 4
l -3 2
l 13 3
l -1 8
l -6 -2
l -7 2
l -4 -5
l -6 3
l 5 -12
l -4 1
l -1 1
l -9 9
l 1 3
l -7 1
l 3 3
l 11 4
l -3 3
l 6 6
l 6 9
l -1 1
l -1 14
l 4 6
l 1 1
h -9
l -5 2
l -2 1
l 1 -2
l 3 -5
l -2 -3
l -6 -2
v 2
l -2 4
l 4 6
l -4 2
h -4
l 5 7
l -1 1
l -5 3
v -1
l -1 -1
h -2
v -1
l -2 -1
h -1
l -1 -1
l -4 -1
h -5
l -1 -1
h -8
v 1
h -6
l -1 1
h -2
l -13 8
v 1
h -1
v 1
h -1
v 1
l -1 1
h -1
l -1 3
h -1
v 2
h -1
v 1
l -1 2
l -1 1
v 2
l -1 1
h -5
v -10
l 4 -4
l -1 -13
l 11 -1
l 11 -4
l 1 -4
l -24 -6
l 3 -14
l -4 -6
l -12 3
l -4 8
l -5 3
h 8
l 1 1
h 2
v 3
l 1 1
l 1 1
l -1 6
l 2 20
h -11
l -10 -7
h -1
v -1
h -1
v 1
l -3 -1
l -2 1
h -1
l -5 7
l -10 -8
l -3 -6
l -3 -1
v -2
l 8 -2
l -3 -12
h -4
l -3 -10
l 3 -3
l -8 -8
l 6 -4
l 8 -2
l 9 4
l 6 -9
Z"/>
<path data-race-id="PA08" d="M848 463
l 1 1
l 9 -13
l 15 -13
l 11 -10
l 11 -6
l 1 3
v 5
l 3 2
v -1
l 3 -2
l 7 1
h 1
v 1
h 1
l 1 1
h 1
l 1 2
l 2 1
v 17
l 1 10
l 1 1
l 2 1
l 4 1
l 2 -1
h 4
l 3 2
l 1 2
l 1 1
v 1
l 1 2
v 6
h 1
v 1
h 1
l 1 1
l 5 3
l 1 1
h 1
l 1 1
l 3 2
v 1
l 1 1
l 1 2
l 1 3
v 1
l 2 3
h 1
l 1 1
l 8 5
h 1
v 1
h 1
v 2
l 2 3
v 1
h 1
l 2 1
l 1 1
l 2 3
v 1
l -1 2
l -1 1
h -1
v 1
h -3
v 1
h -2
v 1
h -1
l -1 1
v 1
h -1
l -1 -1
h -2
v -1
h -4
v 2
l -1 1
v 2
l -1 1
v 1
h -1
v 1
h -1
v 1
h -1
v 1
h -2
v 1
h -2
l -1 1
h -5
l -1 1
h -1
v 1
h -2
v 1
h -1
v 1
h -1
v 1
h -1
l -1 1
l -1 -4
l 3 -3
v -8
l -6 -3
l -3 -1
l -15 -11
l -23 -17
l -4 5
h -6
l -5 -4
l -8 10
l -10 -6
l -3 -1
l -3 2
l -11 -8
l 8 -12
l -8 -5
v -8
l 6 1
Z"/>
<path data-race-id="PA09" d="M99 552
l 6 1
l 6 -4
v -10
l 11 5
l -1 -13
l -7 -3
l -4 3
l -2 -6
l 6 -3
l -2 -3
l 3 -11
l 5 -2
l 7 5
h 7
l 3 6
l -3 1
l 1 4
l -2 1
l -5 -3
l 4 6
l 1 -1
h 3
l 18 1
l 5 4
h 5
l 4 4
h 8
l 11 -4
l 10 -7
l 14 12
l 7 4
l 1 7
h 8
l -11 20
h 2
l 2 7
v 9
l 4 3
l 2 7
h 4
l 8 -7
l 4 3
l -1 4
l 6 4
l 8 -18
l 2 3
l 11 -13
v -4
l 10 -3
l 3 -18
l 4 -5
l 10 1
l 17 9
l 3 -4
l 3 -4
l 6 -14
l 3 -11
l 5 -10
l 6 -18
l 3 -6
l 7 -3
l 1 -9
l -11 -6
l -7 2
l -5 -1
l 4 -10
v -15
h 1
l 3 -4
l 1 -6
h -11
l -9 6
l 1 -15
h -1
l -5 -4
l -6 -1
l -4 12
l -6 15
l -4 11
l -10 18
l -2 -4
l -6 -1
l -5 9
l -11 1
v -6
l -4 -3
h -9
l -1 -3
l -9 -3
l -5 1
v -5
l -8 -2
v 3
h -7
l -6 -8
l -4 2
l 1 -11
l 15 -19
l 14 -20
l 10 -12
v -30
l 67 3
l -1 18
l 1 20
l 4 1
h 69
l -2 -1
l 27 -2
h 13
l -17 12
v 3
l 8 9
l -2 18
l 5 2
l -1 10
l 4 -2
l -1 7
l -8 15
l 4 1
l -1 4
l 5 7
l 4 -2
l 17 5
h 7
l 1 3
l 17 10
l 15 -22
l 2 -3
l 8 25
l 4 -5
l 1 6
l 4 1
l -1 7
l 7 -2
l -1 7
v 7
l 2 3
l 6 6
v 6
l 4 5
l 4 6
v 3
l 11 13
l -3 6
l 2 47
h -127
l -2 -1
l -1 1
v -1
h -101
l -1 -1
h -43
l -1 -1
h -71
l -2 -1
h -33
l -23 -1
h -13
l -4 -1
h -3
v -7
l -4 -4
l 1 -11
l -6 -12
l -1 -7
l 4 -3
Z"/>
<path data-race-id="PA10" d="M491 402
l 5 -4
l 10 -3
l 29 -16
l 8 -3
l 12 -12
l 12 -18
l 11 -12
v -5
h -4
l -25 -32
l -7 -3
l -17 -17
v -5
l -11 -6
v -3
l -6 -13
l -3 -1
v -21
l -1 -31
l 33 -1
l -4 -8
l -1 -4
l 5 -6
v -10
h 8
l -1 -19
l -19 1
v 5
h -22
v -25
h 108
l 4 -1
h 113
l 8 -1
h 66
l 18 -1
l 4 -1
h 36
l 3 5
l 7 5
l 2 1
l 1 1
l 2 7
v 4
l 2 1
l 2 4
l 2 1
l 4 -2
l 10 4
l 1 -1
l 1 1
l 3 6
l 7 1
l -5 6
l 1 4
l 4 -1
l 1 1
l 1 1
l 2 4
v 6
h -3
v 2
h 1
l 2 3
v 1
l -1 4
l 2 9
l -2 2
v 2
h -2
l 1 2
l 7 7
l 1 5
l 3 4
v 2
l 2 1
l 3 6
h 2
l 2 -1
l 4 1
h 2
l 1 2
v 2
h 1
l 1 1
v 1
h -1
v 2
h 1
l 5 -1
h 1
l 1 1
l 2 2
h 2
v -1
l 1 -1
l 1 -1
h 1
l 1 1
v 2
l 1 1
h 6
l 1 -1
h 1
l 1 3
v 3
l 2 1
l 3 3
l 1 1
l 1 1
h 1
v 1
l -1 2
l -1 1
h -2
l -1 1
h -1
v 1
l -1 -1
h -1
v 1
l -3 1
h -1
v 2
l -1 1
h -3
v 3
l -1 1
l -1 1
v 1
h -2
v 1
h -1
l -1 1
v 1
l -1 1
v 1
l -1 3
v 1
l -1 1
h -1
v 1
l -1 1
v 4
l 1 1
l -1 2
l -1 1
v 1
l -1 1
v 1
l -1 3
l -1 1
l -1 1
l -1 1
v 2
h -1
l -1 2
v 2
h -1
l -1 1
h -1
l -1 1
v 1
h -1
l -2 2
l -3 2
l -2 3
l -6 2
l -7 -12
l -14 -2
h -4
v 11
l 2 8
h -6
l 1 11
l 3 3
l 4 -3
v 5
l -4 3
l -3 -3
l -8 -1
l 1 -5
l -16 16
l -10 -16
l 6 -25
h 5
l 5 -23
l -9 1
l -23 2
l -5 1
l -3 5
l -1 -3
h -1
h 1
h -1
l -7 -5
l -3 -6
h 12
l -1 -16
l -8 1
l -7 -5
l 2 -4
l 9 -2
l 3 -5
l -8 -4
l 6 -1
l -5 -3
l 5 -3
l 7 7
l 3 -4
l -5 -6
v -9
l 6 -2
l -5 -4
l 6 -2
l 1 -5
l -11 1
l -4 12
l -12 10
l -7 8
l -8 12
v 6
l -6 -4
l -6 -3
l -1 -7
l 10 -18
l -5 -4
l 5 -7
v -4
l 7 -13
h -62
v -2
l -14 2
l -3 22
l -9 36
l -5 14
h -15
l -7 8
l -11 14
l -13 12
h -13
l -8 -3
l 1 3
l -1 4
v 11
l -6 14
l -2 15
l 18 -4
l 5 1
l -2 4
l -11 5
l -12 9
l -2 7
l -6 8
l -1 10
v 11
l -14 16
l -1 2
l -1 3
l -3 6
l -3 4
v 1
h 1
v 2
l 2 12
l 4 7
l -10 8
l -2 -6
l -3 1
l -29 16
l -7 -6
l -8 2
l 5 19
v 7
l -6 2
l -1 -6
l -9 6
l -7 2
l 3 -5
l 8 -6
l -7 1
l -22 18
l -13 4
l 1 -7
l -7 2
l 1 -7
l -4 -1
l -1 -6
l -4 5
l -8 -25
l -2 3
h -16
l -2 -6
l -7 -1
l 17 -21
l -5 -11
l 10 -15
l 6 -3
l 10 -11
l -3 -4
Z"/>
<path data-race-id="PA11" d="M502 515
l 13 -4
l 22 -18
l 7 -1
l -8 6
l -3 5
l 7 -2
l 9 -6
l 1 6
l 6 -2
v -7
l -5 -19
l 8 -2
l 7 6
l 29 -16
l 3 -1
l 2 6
l 10 -8
l -4 -7
l -2 -12
v -2
h -1
v -1
l 3 -4
l 3 -6
l 1 -3
l 1 -2
l 14 -16
v -11
l 1 -10
l 6 -8
l 2 -7
l 12 -9
l 11 -5
l 2 -4
l -5 -1
l -18 4
l 2 -15
l 6 -14
v -11
l 1 -4
l -1 -3
l 8 3
h 13
l 13 -12
l 11 -14
l 7 -8
h 15
l 5 -14
l 9 -36
l 3 -22
l 14 -2
v 2
h 62
l -7 13
v 4
l -5 7
l 5 4
l -10 18
l 1 7
l 6 3
l -2 6
l -9 2
l -2 4
l 4 6
l -2 6
l -10 6
l 8 5
l 8 -5
l 3 1
l 5 -4
l 21 -2
l 1 16
l 1 3
h 3
l 3 2
v -1
v 1
l -7 8
l 4 3
l 2 5
l 14 15
l 4 6
l -12 8
l 4 4
l -22 14
l -3 -10
l -5 1
l -3 6
l -6 -5
l -21 12
l -12 -13
l -7 1
l -27 -8
l -12 14
l -3 18
l -12 5
l -38 18
l -14 8
l 27 22
l -23 17
l -10 7
l 3 16
l -10 1
l 4 5
l 3 8
v 7
l 4 3
l -3 15
l -2 2
l -12 -5
l -5 -5
l -5 -5
h 5
v -7
h -4
v -9
h -3
l -3 -2
v 1
l -14 5
l -14 1
l -2 9
v 14
l 13 -3
l 4 -3
l 3 4
l -2 5
h -4
l 1 7
h -4
l -17 17
l -8 8
l -6 1
l -30 7
l -10 11
l 3 -6
l -11 -13
v -3
l -4 -6
l -4 -5
v -6
l -6 -6
l -2 -3
Z"/>
<path data-race-id="PA12" d="M30 432
l 1 -4
v -22
l 1 -22
l 1 -16
v -11
h 49
l 9 -6
v 57
h 20
l 10 1
h 19
l 25 1
l 5 -1
l 12 10
l 4 15
l 18 7
l -1 11
l 4 -2
l 6 8
h 7
v -3
l 8 2
v 5
l 5 -1
l 9 3
l 1 3
h 9
l 4 3
v 6
l 11 -1
l 5 -9
l 6 1
l 2 4
l 10 -18
l 4 -11
l 6 -15
l 4 -12
l 6 1
l 5 4
h 1
l -1 15
l 9 -6
h 11
l -1 6
l -3 4
h -1
v 15
l -4 10
l 5 1
l 7 -2
l 11 6
l -1 9
l -7 3
l -3 6
l -6 18
l -5 10
l -3 11
l -6 14
l -3 4
l -3 4
l -17 -9
l -10 -1
l -4 5
l -3 18
l -10 3
v 4
l -11 13
l -2 -3
l -8 18
l -6 -4
l 1 -4
l -4 -3
l -8 7
h -4
l -2 -7
l -4 -3
v -9
l -2 -7
h -2
l 11 -20
l 8 -11
l 4 -4
h 7
l 3 -9
l 4 -2
l 8 -16
l -25 -20
l -3 1
l -5 10
l -12 -3
l -1 -7
v 1
v -1
v 1
l -4 -1
l 3 -5
l -7 -7
l -4 4
l -8 2
l -13 -5
l -4 -7
l -14 2
l -4 -3
l 2 -5
l -2 1
l -6 -3
v -4
h -4
l -2 -11
l -7 -4
l 10 -1
l 2 -4
l 6 -1
l -3 -9
l 5 -4
l -12 2
l 2 10
h -15
l 3 14
l -9 1
h -9
l -2 3
l -5 -1
l -1 -5
l -6 3
l -4 -5
l -8 -1
v -3
l -8 -1
l -4 -1
l 2 -6
l -3 -5
l -22 19
l -4 4
l -26 -1
v -14
Z"/>
<path data-race-id="PA13" d="M877 519
l 1 -1
l 4 -1
l -5 12
l 6 -3
l 4 5
l 7 -2
l 6 2
l 1 -8
l -13 -3
l 3 -2
l -5 -4
l 6 -1
l 8 5
l 8 -2
l -6 -3
l 1 -3
l -6 -4
v -4
l -3 7
l -6 1
l -7 -3
l -2 -8
h 6
l 4 -5
l 23 17
l 15 11
l 3 1
l 6 3
v 8
l -3 3
l -6 4
l -9 3
l -1 1
v 6
l -9 -3
l 1 -8
l -9 -6
l -6 -2
l -8 9
l -2 -4
l -7 2
h -1
l -11 -4
l -3 -3
l 7 -1
l -1 -3
Z"/>
<path data-race-id="PA14" d="M87 438
l 8 1
v 3
l 8 1
l 4 5
l 6 -3
l 1 5
l 5 1
l 2 -3
h 9
l 9 -1
l -3 -14
h 15
l -2 -10
l 12 -2
l -5 4
l 3 9
l -6 1
l -2 4
l -10 1
l 7 4
l 2 11
h 4
l -2 3
l 3 9
l 1 2
h -4
l -4 16
l -8 1
v 6
l -10 1
v -7
l -11 -7
l -3 3
l 3 -9
l -7 -1
l -4 -3
h -1
l -1 -2
l -4 -4
l -1 -5
l -5 -3
l -1 -6
l -9 -7
Z"/>
<path data-race-id="PA15" d="M654 455
l 23 -17
l 16 13
l 16 -5
h 13
l 15 -4
l 7 -6
l 11 -5
l 4 1
h 3
l 2 -13
l 17 -9
l 14 -6
l 7 -6
l 11 -9
l 13 -4
l 22 -6
l 15 -4
l 14 -6
v 5
l 3 -2
l 4 5
l 4 -1
l 2 10
l -7 4
l -10 2
l -1 4
h 7
l 1 9
l -15 2
l 6 4
l -1 9
v 2
l 24 -14
l 1 -1
h 2
v 3
h -1
l -1 1
l -1 1
v 2
l 2 5
l -1 3
l -11 6
l -11 10
l -15 13
l -9 13
l -1 -1
l -7 -5
l -7 -6
l -4 10
l -5 2
l 2 -9
l -12 2
l -6 -8
l -4 5
l -11 -9
l -1 -5
l -6 3
l -5 6
l -14 6
v 6
l -9 2
l -7 -11
l -7 2
l 1 10
l -8 3
h -23
l -6 -4
l -4 8
l 3 7
l -5 3
l -9 -1
l 2 3
l -4 3
l 7 6
l -12 3
l 2 13
l -16 6
l -6 2
l -5 5
l -12 5
l -2 5
l -4 -4
l -1 -8
l 2 -2
l 3 -15
l -4 -3
v -7
l -3 -8
l -4 -5
l 10 -1
l -3 -16
Z"/>
<path data-race-id="PA16" d="M648 531
l 2 -5
l 12 -5
l 5 -5
l 6 -2
l 16 -6
l 5 -3
l 23 -4
l 24 -13
l 9 8
l 11 -12
l 3 -2
l 8 5
l -1 -8
l 10 -9
l 1 3
l -1 8
l 4 3
l -6 6
v 2
h 1
h -1
l -3 -4
l -7 2
l -10 -2
v 7
h 3
l -3 7
l 27 23
l -10 7
l -11 3
l -6 9
l -9 -4
l -8 2
l -6 4
l 8 8
l -3 3
l 3 10
h 4
l 3 12
l -8 2
v 2
l 3 1
l 3 6
l 10 8
l 5 -7
h 1
l 2 -1
l 3 1
v -1
h 1
v 1
h 1
l 10 7
h 11
l -2 -20
l 1 -6
l -1 -1
l -1 -1
v -3
h -2
l -1 -1
h -8
l 5 -3
l 4 -8
l 12 -3
l 4 6
l -3 14
l 24 6
l -1 4
l -11 4
l -11 1
l 1 13
l -4 4
v 10
h -32
l -5 1
h -28
l -1 1
h -5
l -6 -11
l -6 -7
v -1
v 1
v -1
l -1 -1
l -7 -9
l -4 -3
l -1 -8
l -15 -9
l -1 -1
l -2 -5
l -3 -8
v -1
v 1
v -1
l -3 -6
l -7 1
l -15 -4
Z"/>
<path data-race-id="PA17" d="M650 416
l 14 -8
l 38 -18
l 12 -5
l 3 -18
l 12 -14
l 27 8
l 7 -1
l 12 13
l 21 -12
l 6 5
l 3 -6
l 5 -1
l 3 10
l 22 -14
l -4 -4
l 12 -8
l -4 -6
l -14 -15
l -2 -5
l -4 -3
l 7 -8
v -1
v 1
l -3 -2
h -3
l -1 -3
l -1 -16
l -21 2
l -5 4
l -3 -1
l -8 5
l -8 -5
l 10 -6
l 2 -6
l -4 -6
l 2 -4
l 9 -2
l 2 -6
l 6 4
v -6
l 8 -12
l 7 -8
l 12 -10
l 4 -12
l 11 -1
l -1 5
l -6 2
l 5 4
l -6 2
v 9
l 5 6
l -3 4
l -7 -7
l -5 3
l 5 3
l -6 1
l 8 4
l -3 5
l -9 2
l -2 4
l 7 5
l 8 -1
l 1 16
h -12
l 3 6
l 7 5
h 1
h -1
h 1
l 1 3
l 3 -5
l 5 -1
l 23 -2
l 9 -1
l -5 23
h -5
l -6 25
l 10 16
l 16 -16
l -1 5
l 8 1
l 3 3
l 4 -3
v -5
l -4 3
l -3 -3
l -1 -11
h 6
l -2 -8
v -11
h 4
l 14 2
l 7 12
l 6 -2
v 1
h 2
l 2 -2
h 1
l -1 1
v 1
l -2 1
l -1 1
h -1
v 1
h -1
l -1 1
h -1
v 1
l -2 5
h -1
l -5 5
h -3
v 1
l -2 1
l -1 1
h -1
v 1
h -2
v 1
l -1 1
h -1
v 5
h 2
v 1
l 1 2
l 2 4
h 1
v 2
h 1
l 3 6
l 1 1
l 1 2
l 2 1
v 1
l -1 5
h -5
l -1 1
v 2
l 2 1
v 1
l -6 9
h -1
l -7 3
v 2
l -1 1
h -1
l -1 1
v 2
l 2 2
v 3
l -1 1
h -1
v 3
l -1 1
v 2
l 1 2
h 1
l -1 1
l -24 14
v -2
l 1 -9
l -6 -4
l 15 -2
l -1 -9
h -7
l 1 -4
l 10 -2
l 7 -4
l -2 -10
l -4 1
l -4 -5
l -3 2
v -5
l -14 6
l -15 4
l -22 6
l -13 4
l -11 9
l -7 6
l -14 6
l -17 9
l -2 13
h -3
l -4 -1
l -11 5
l -7 6
l -15 4
h -13
l -16 5
l -16 -13
l -27 -22
Z"/>
<path data-race-id="PA18" d="M25 603
v -27
l 1 -12
v -7
l 1 -15
v -29
l 1 -2
v -23
l 1 -5
v -17
l 1 -18
l 26 1
l 4 -4
l 22 -19
l 3 5
l -2 6
l 4 1
l -1 4
l 9 7
l 1 6
l 5 3
l 1 5
l 4 4
l 1 2
h 1
l 4 3
l 7 1
l -3 9
l 3 -3
l 11 7
v 7
l 10 -1
v -6
l 8 -1
l 4 -16
h 4
l -1 -2
l -3 -9
l 2 -3
v 4
l 6 3
l 2 -1
l -2 5
l 4 3
l 14 -2
l 4 7
l 13 5
l 8 -2
l 4 -4
l 7 7
l -3 5
l 4 1
v -1
v 1
v -1
l 1 7
l 12 3
l 5 -10
l 3 -1
l 25 20
l -8 16
l -4 2
l -3 9
h -7
l -4 4
l -8 11
h -8
l -1 -7
l -7 -4
l -14 -12
l -10 7
l -11 4
h -8
l -4 -4
h -5
l -5 -4
l -18 -1
h -3
l -1 1
l -4 -6
l 5 3
l 2 -1
l -1 -4
l 3 -1
l -3 -6
h -7
l -7 -5
l -5 2
l -3 11
l 2 3
l -6 3
l 2 6
l 4 -3
l 7 3
l 1 13
l -11 -5
v 10
l -6 4
l -6 -1
l -2 15
l -4 3
l 1 7
l 6 12
l -1 11
l 4 4
v 7
h -38
l -1 -1
h -23
l -16 -1
v -5
Z"/>
</g>
  <path class="districts-mesh" d="M885 557
l 4 -3
l 2 10
l 6 5
l 6 -1
l 1 -10
l 3 -3
l 1 -7
l 9 3
v -6
l 1 -1
l 9 -3
l 6 -4
l 1 4
M867 591
l -5 -7
h 4
l 4 -2
l -4 -6
l 2 -4
v -2
l 6 2
l 2 3
l -3 5
l -1 2
l 2 -1
l 5 -2
h 9
l -1 -1
l -4 -6
l 1 -14
l 1 -1
l -6 -9
l -6 -6
l 3 -3
M856 499
l -1 11
l 15 11
l -4 7
l -12 3
l 7 1
l 5 8
l 5 -1
l -9 5
l 1 4
l -6 7
h 1
l -13 10
l -1 3
l -5 7
l -7 -3
l -7 -8
l -5 4
l -4 -1
v -5
l -6 1
l -2 -3
l 5 -5
l -8 1
l -5 -8
l 3 -7
l 7 -1
l -1 -7
l -5 -5
l -4 1
l -3 -7
l 4 1
h 4
l 2 -1
h 1
l 1 1
v -1
h 2
l 4 -6
l -2 1
v -4
l -2 -2
l -4 -3
l 8 -6
l 9 -15
l -7 -6
l 2 -6
l -9 -3
l -3 -4
l -8 -2
l -5 6
l 1 7
l 5 5
l -1 15
l -5 1
v -4
l -11 -4
l -5 7
l -4 -1
v -6
l -5 -2
l 7 -2
l 3 4
v -2
l 6 -6
l -4 -3
l 1 -8
l -1 -3
l -10 9
l 1 8
l -8 -5
l -3 2
l -11 12
l -9 -8
l -24 13
l -23 4
l -5 3
l -2 -13
l 12 -3
l -7 -6
l 4 -3
l -2 -3
l 9 1
l 5 -3
l -3 -7
l 4 -8
l 6 4
h 23
l 8 -3
l -1 -10
l 7 -2
l 7 11
l 9 -2
v -6
l 14 -6
l 5 -6
l 6 -3
l 1 5
l 11 9
l 4 -5
l 6 8
l 12 -2
l -2 9
l 5 -2
l 4 -10
l 7 6
l 7 5
l 1 1
l 9 -13
l 15 -13
l 11 -10
l 11 -6
M933 537
l 3 -3
v -8
l -6 -3
l -3 -1
l -15 -11
l -23 -17
l -4 5
h -6
M682 552
v 1
l 3 8
l 2 5
l 1 1
l 15 9
l 1 8
l 4 3
l 7 9
l 1 1
v 1
v -1
v 1
l 6 7
l 6 11
M924 318
l -6 2
l -7 -12
l -14 -2
h -4
v 11
l 2 8
h -6
l 1 11
l 3 3
l 4 -3
v 5
l -4 3
l -3 -3
l -8 -1
l 1 -5
l -16 16
l -10 -16
l 6 -25
h 5
l 5 -23
l -9 1
l -23 2
l -5 1
l -3 5
l -1 -3
h -1
l -7 -5
l -3 -6
h 12
l -1 -16
l -8 1
l -7 -5
l 2 -4
l 9 -2
l 3 -5
l -8 -4
l 6 -1
l -5 -3
l 5 -3
l 7 7
l 3 -4
l -5 -6
v -9
l 6 -2
l -5 -4
l 6 -2
l 1 -5
l -11 1
l -4 12
l -12 10
l -7 8
l -8 12
v 6
l -6 -4
l -6 -3
l -1 -7
l 10 -18
l -5 -4
l 5 -7
v -4
l 7 -13
h -62
v -2
l -14 2
l -3 22
l -9 36
l -5 14
h -15
l -7 8
l -11 14
l -13 12
h -13
l -8 -3
l 1 3
l -1 4
v 11
l -6 14
l -2 15
l 18 -4
l 5 1
l -2 4
l -11 5
l -12 9
l -2 7
l -6 8
l -1 10
v 11
l -14 16
l -1 2
l -1 3
l -3 6
l -3 4
v 1
h 1
v 2
l 2 12
l 4 7
l -10 8
l -2 -6
l -3 1
l -29 16
l -7 -6
l -8 2
l 5 19
v 7
l -6 2
l -1 -6
l -9 6
l -7 2
l 3 -5
l 8 -6
l -7 1
l -22 18
l -13 4
M794 260
l -2 6
l -9 2
l -2 4
l 4 6
l -2 6
l -10 6
l 8 5
l 8 -5
l 3 1
l 5 -4
l 21 -2
l 1 16
l 1 3
h 3
l 3 2
v -1
M826 306
l -7 8
l 4 3
l 2 5
l 14 15
l 4 6
l -12 8
l 4 4
l -22 14
l -3 -10
l -5 1
l -3 6
l -6 -5
l -21 12
l -12 -13
l -7 1
l -27 -8
l -12 14
l -3 18
l -12 5
l -38 18
l -14 8
l 27 22
l -23 17
l -10 7
l 3 16
l -10 1
l 4 5
l 3 8
v 7
l 4 3
l -3 15
l -2 2
M227 546
l 8 -11
l 4 -4
h 7
l 3 -9
l 4 -2
l 8 -16
l -25 -20
l -3 1
l -5 10
l -12 -3
l -1 -7
v 1
l -4 -1
l 3 -5
l -7 -7
l -4 4
l -8 2
l -13 -5
l -4 -7
l -14 2
l -4 -3
l 2 -5
l -2 1
l -6 -3
v -4
h -4
l -2 -11
l -7 -4
l 10 -1
l 2 -4
l 6 -1
l -3 -9
l 5 -4
l -12 2
l 2 10
h -15
l 3 14
l -9 1
h -9
l -2 3
l -5 -1
l -1 -5
l -6 3
l -4 -5
l -8 -1
v -3
l -8 -1
l -4 -1
l 2 -6
l -3 -5
l -22 19
l -4 4
l -26 -1
M162 69
l -3 1
l -9 5
l -6 1
l -6 4
l -8 4
l -4 3
h 1
h -1
v -1
l -8 5
l 5 9
l -11 6
l -10 2
l -1 8
l -10 3
v 12
h -10
v 16
l 9 1
l -1 8
l 59 2
h 36
l -1 12
v 37
l -5 1
l -5 -4
h -3
l 1 4
l -23 -1
v 4
l -7 5
h -3
l -5 8
l -12 10
l -1 9
v 33
l -1 2
v 24
l 48 1
l 1 1
l 2 11
l 5 -3
l -2 -4
l 8 2
v -6
l 16 3
v 8
l 7 -1
l 3 -10
l 3 2
l 5 -13
l 4 14
h 2
l -1 15
l 25 -5
l -1 14
v 21
l -1 8
v 30
l -10 12
l -14 20
l -15 19
l -18 -7
l -4 -15
l -12 -10
l -5 1
l -25 -1
h -19
l -10 -1
h -20
v -57
l -9 6
h -49
M154 455
l -2 3
l 3 9
l 1 2
h -4
l -4 16
l -8 1
v 6
l -10 1
v -7
l -11 -7
l -3 3
l 3 -9
l -7 -1
l -4 -3
h -1
l -1 -2
l -4 -4
l -1 -5
l -5 -3
l -1 -6
l -9 -7
l 1 -4
M779 492
h 1
h -1
M677 438
l 16 13
l 16 -5
h 13
l 15 -4
l 7 -6
l 11 -5
l 4 1
h 3
l 2 -13
l 17 -9
l 14 -6
l 7 -6
l 11 -9
l 13 -4
l 22 -6
l 15 -4
l 14 -6
v 5
l 3 -2
l 4 5
l 4 -1
l 2 10
l -7 4
l -10 2
l -1 4
h 7
l 1 9
l -15 2
l 6 4
l -1 9
v 2
l 24 -14
l 1 -1
M503 130
v 25
h 22
v -5
l 19 -1
l 1 19
h -8
v 10
l -5 6
l 1 4
l 4 8
l -33 1
l 1 31
v 21
l 3 1
l 6 13
v 3
l 11 6
v 5
l 17 17
l 7 3
l 25 32
h 4
v 5
l -11 12
l -12 18
l -12 12
l -8 3
l -29 16
l -10 3
l -5 4
l -3 5
l 3 4
l -10 11
l -6 3
l -10 15
l 5 11
l -17 21
l 7 1
l 2 6
h 16
l 2 -3
l 8 25
l 4 -5
l 1 6
l 4 1
l -1 7
l 7 -2
l -1 7
v 7
l 2 3
l 6 6
v 6
l 4 5
l 4 6
v 3
l 11 13
l -3 6
l 10 -11
l 30 -7
l 6 -1
l 8 -8
l 17 -17
h 4
l -1 -7
h 4
l 2 -5
l -3 -4
l -4 3
l -13 3
v -14
l 2 -9
l 14 -1
l 14 -5
v -1
l 3 2
h 3
v 9
h 4
v 7
h -5
l 5 5
l 5 5
l 12 5
l 1 8
l 4 4
l 9 12
l 15 4
l 7 -1
l 3 6
v 1
M689 508
l -16 6
l -6 2
l -5 5
l -12 5
l -2 5
M799 614
v -10
l 4 -4
l -1 -13
l 11 -1
l 11 -4
l 1 -4
l -24 -6
l 3 -14
l -4 -6
l -12 3
l -4 8
l -5 3
h 8
l 1 1
h 2
v 3
l 1 1
l 1 1
l -1 6
l 2 20
h -11
l -10 -7
h -1
v -1
h -1
v 1
l -3 -1
l -2 1
h -1
l -5 7
l -10 -8
l -3 -6
l -3 -1
v -2
l 8 -2
l -3 -12
h -4
l -3 -10
l 3 -3
l -8 -8
l 6 -4
l 8 -2
l 9 4
l 6 -9
l 11 -3
l 10 -7
l -27 -23
l 3 -7
h -3
v -7
l 10 2
M528 617
l -2 -47
M478 479
l -15 22
l -17 -10
l -1 -3
h -7
l -17 -5
l -4 2
l -5 -7
l 1 -4
l -4 -1
l 8 -15
l 1 -7
l -4 2
l 1 -10
l -5 -2
l 2 -18
l -8 -9
v -3
l 17 -12
h -13
l -27 2
l 2 1
h -69
l -4 -1
l -1 -20
l 1 -18
l -67 -3
M103 611
v -7
l -4 -4
l 1 -11
l -6 -12
l -1 -7
l 4 -3
l 2 -15
l 6 1
l 6 -4
v -10
l 11 5
l -1 -13
l -7 -3
l -4 3
l -2 -6
l 6 -3
l -2 -3
l 3 -11
l 5 -2
l 7 5
h 7
l 3 6
l -3 1
l 1 4
l -2 1
l -5 -3
l 4 6
l 1 -1
h 3
l 18 1
l 5 4
h 5
l 4 4
h 8
l 11 -4
l 10 -7
l 14 12
l 7 4
l 1 7
h 8
l -11 20
h 2
l 2 7
v 9
l 4 3
l 2 7
h 4
l 8 -7
l 4 3
l -1 4
l 6 4
l 8 -18
l 2 3
l 11 -13
v -4
l 10 -3
l 3 -18
l 4 -5
l 10 1
l 17 9
l 3 -4
l 3 -4
l 6 -14
l 3 -11
l 5 -10
l 6 -18
l 3 -6
l 7 -3
l 1 -9
l -11 -6
l -7 2
l -5 -1
l 4 -10
v -15
h 1
l 3 -4
l 1 -6
h -11
l -9 6
l 1 -15
h -1
l -5 -4
l -6 -1
l -4 12
l -6 15
l -4 11
l -10 18
l -2 -4
l -6 -1
l -5 9
l -11 1
v -6
l -4 -3
h -9
l -1 -3
l -9 -3
l -5 1
v -5
l -8 -2
v 3
h -7
l -6 -8
l -4 2
l 1 -11
M848 463
l -3 5
l -6 -1
v 8
l 8 5
l -8 12
l 11 8
l 3 -2
l 3 1
l 10 6
l 8 -10
l 5 4
l 2 8
l 7 3
l 6 -1
l 3 -7
v 4
l 6 4
l -1 3
l 6 3
l -8 2
l -8 -5
l -6 1
l 5 4
l -3 2
l 13 3
l -1 8
l -6 -2
l -7 2
l -4 -5
l -6 3
l 5 -12
l -4 1
l -1 1
l -9 9
l 1 3
l -7 1
l 3 3
l 11 4
h 1
l 7 -2
l 2 4
l 8 -9
l 6 2
l 9 6
l -1 8"/>
</svg>