<svg version="1.1" xmlns="http://www.w3.org/2000/svg" width="660" height="1000" viewBox="0 0 660 1000">
  <path d="M636 527
v 2
l 1 4
l 1 9
l 3 34
v 1
l 1 4
v 8
l -1 3
l -11 2
l -5 5
l 1 9
l -5 1
l -3 6
h -7
l -8 5
l -2 12
h -10
l -9 4
l -1 -8
l 3 -2
l 2 -13
l -2 -8
l -5 -5
l -2 -8
l -4 -3
l 3 -17
l -6 -14
l 3 -16
l -7 -3
l -4 -17
l 7 4
l 2 -25
l -5 -4
l 7 -14
l -4 -7
l -1 -15
l -4 -9
l 2 -2
l 3 -20
l 4 -14
l 6 -13
l 1 -5
l 1 1
h 3
l 7 2
l 5 2
v 3
l 2 1
l 17 4
h 1
l 15 3
v 1
l -2 35
l -2 2
l -2 2
v 20
l 1 1
l 7 13
l 2 25
l 1 8
Z
M563 439
l -2 6
l -6 -5
l -8 5
l -1 5
l 10 2
l 5 -1
v 4
l -12 2
l -5 3
v 12
l -2 12
v 13
l 6 9
l -2 16
l 1 8
l 2 1
l -2 9
v 11
l 6 6
l 1 5
l -10 25
l -6 13
l 2 5
h 6
l -2 11
l -5 3
v -10
l -5 -4
l -9 -3
l -9 9
l -6 -7
l -6 -2
l -6 4
v 17
l -5 5
l -1 11
l -6 4
l -1 -7
l -3 3
l -5 -6
l -7 8
l -5 -4
v 7
l -5 -4
l -10 5
l -3 -11
l -2 -1
l 8 -10
l 8 -6
l 5 -8
v 14
l 16 -10
l -2 -11
l -2 -1
l -1 -19
v -9
l -4 -4
l 4 -3
l 3 2
l 6 -2
l -1 -17
l 4 -5
l -2 -3
l 4 -12
l 9 -17
l 8 -6
l -2 -14
l 6 -5
l 5 -15
l -1 -13
l 3 -5
l 8 -3
l 2 -7
l 7 -6
l 10 1
l 11 -12
l 5 6
Z
M428 25
v 107
l -2 4
v 15
l 2 10
l 34 -5
h 1
l -1 19
l -2 11
l 5 11
l -3 6
l -2 14
l 3 6
l -5 10
l -1 5
l 6 18
l -1 4
v 6
l 1 1
l 2 1
l 3 5
l 2 3
v 6
l 1 2
l 4 3
l 5 2
l 32 17
l 7 5
l 6 3
l 7 9
l 19 29
l 5 8
l -5 9
l -9 4
l -1 -19
l -9 -2
l -3 -6
h -4
l 4 8
l 10 17
l 2 12
l 6 12
l -1 12
l -7 -1
l -5 5
l -2 10
l -5 13
l -5 -2
l -2 -6
l 1 -11
l -8 -7
l -1 -14
l -4 -3
l -4 2
v 16
l -7 5
l -1 13
l -4 -6
l -2 -18
l 4 -11
l 7 -7
l 2 -27
l 4 -3
v -13
l -3 -7
l 1 -5
l 8 3
l -4 -25
l -5 3
l 1 15
l -5 9
l -5 -11
l -15 -7
l 4 7
l 10 4
l 11 13
l -4 13
l -5 -5
l -1 14
l -6 -4
l 1 -8
l -2 -3
l -13 -4
h -12
l -1 -9
l -9 -12
v -8
l -5 -2
l 2 8
l -5 -5
v -7
l -2 -7
l -4 -2
l 2 -5
l -7 -25
l -4 -2
l -10 -20
l 11 -7
l -2 -3
l 7 -8
l 2 -9
v -15
l -5 -7
h -3
v 18
l -4 2
v 9
l 3 2
l -8 14
h -10
l 4 16
l 6 3
l 9 11
l -3 5
l -6 6
l 3 17
h -2
l 4 11
l 4 2
l -4 5
l 6 4
l -4 7
l -5 1
l -1 3
l 13 15
l 5 4
l 8 -2
v 2
l -7 4
v 18
l 2 6
l -5 4
l -3 8
v 8
l -3 6
l -10 -6
v -21
h -4
l 1 8
l -6 -1
l -2 -10
l -3 -1
v 7
h -5
l 4 5
l -28 -4
l 1 -3
l -8 -7
l 3 7
l -2 4
l 4 14
l -1 6
l 1 9
l -6 8
l 1 6
l 7 -10
l 3 -11
l 9 -1
l 2 -3
l 5 6
l 8 3
v 5
l -9 1
l -8 7
l 12 -4
l 6 4
v 11
l 4 15
l -13 5
l 2 3
l 8 -1
l 4 4
l -3 6
h -4
l -4 6
l 1 3
l 9 1
v 12
l -5 4
l -9 1
l -9 4
l -6 6
l -1 -9
l -6 8
l -1 -11
l -6 6
v 5
h 4
l 9 6
l 1 12
l 9 6
l -5 8
l 7 3
l 6 10
l 2 8
v 18
l -5 14
l 2 16
l 1 3
l -1 14
l -7 -3
l -2 7
l 4 9
l -5 13
l -6 6
l -8 1
l -6 8
l 3 17
v 7
l -6 7
l -3 8
l -6 5
l -11 22
l 4 12
l -9 -3
l -6 -8
l -7 -5
h -5
l 2 -12
l 6 -10
l 4 -12
v -11
l -3 -4
l -4 5
l -7 21
l -3 13
l 3 11
l -5 -3
h -8
l -5 4
l -10 -2
l -31 8
l -10 5
l -20 2
l -12 6
l -16 4
l -29 11
l -19 13
l -3 -2
l -10 1
l -13 4
l -2 3
l -12 -5
l -15 3
l -42 12
l -19 11
l -1 -3
l -7 -1
l -15 3
l 1 -4
l 21 -3
v -5
l 10 -7
v -6
l 15 -14
l -2 -10
v -2
l -3 -1
l -2 -5
v -6
l 4 -6
l 1 -6
v -6
l -3 -11
l -2 -1
l -3 -4
l 1 -7
l -2 -5
l 2 -6
v -1
h 6
l 5 -2
l 3 -2
v -1
l 3 -2
l 18 3
l 1 -19
v -19
l 1 -5
l 2 -49
v -8
l 1 -20
v -2
l 1 -23
v -23
l 2 -20
v -31
l 1 -4
v -80
l -1 -2
v -57
l -1 -2
v -26
l -1 -4
v -41
l -1 -2
v -17
l -1 -8
v -30
l -1 -9
v -23
l -1 -1
v -71
l -1 -19
v -30
l 23 -2
h 24
l 21 -1
h 14
l 11 -1
h 30
l 11 -1
h 6
l 26 -1
h 14
l 20 -1
h 14
l 4 -1
l 21 -2
h 16
l 9 -1
h 66
Z
M515 438
l -8 1
l -1 -5
l 6 -4
Z
M464 424
l 2 6
l -6 7
l 12 9
l 10 1
l 6 5
l 4 11
v 11
l -8 20
l -5 7
l -6 3
l -6 -8
l -2 -9
l 3 -12
l 5 -10
l 2 -10
l -7 -6
l -15 -6
l -1 -14
l 8 -6
l -6 -7
l 4 -7
l 5 7
Z
M448 414
l 3 6
l -5 6
l -5 -11
Z
M443 600
l 7 11
l -2 3
h -10
l -4 4
l -4 -14
h -4
l 3 21
l -1 4
l -6 -1
v 12
l -8 5
v -14
l 4 -4
l -3 -8
l 2 -5
l -3 -16
l 4 -1
l 10 3
l -2 -6
l 5 -11
l -10 -10
l -1 -7
l 6 -18
v -19
l 7 -17
l 4 -3
l 7 5
l 2 23
l -3 8
l 2 19
l -4 9
l 2 5
l 5 1
v 5
l -6 6
Z
M414 590
l -4 2
l 1 -7
l 6 1
Z
M277 890
l 5 1
l 6 12
l -10 23
v 8
l 2 9
l 7 2
l 1 6
l 7 4
v 9
l -4 5
l -14 4
h -14
l -13 2
l -9 -7
l -1 -7
l 6 -24
l 10 -10
v -9
l 9 18
l 8 2
l 2 -10
l -4 -3
l -1 -10
l -5 1
l 4 -9
l 1 -21
Z"/>
<g class="districts">
<path data-race-id="RI01" d="M246 30
h 24
l 20 -1
h 14
l 4 -1
l 21 -2
h 16
l 9 -1
h 74
v 107
l -2 4
v 15
l 2 10
l 34 -5
v 19
l -2 11
l 5 11
l -3 6
l -2 14
l 3 6
l -5 10
l -2 5
l 7 18
l -1 4
v 6
l 1 1
l 2 1
l 3 5
l 2 3
v 6
l 1 2
l 4 3
l 5 2
l 32 17
l 7 5
l 6 3
l 7 9
l 19 29
l 5 8
l -5 9
l -9 4
l -1 -19
l -9 -2
l -3 -6
h -4
l 4 8
l 10 17
l 2 12
l 6 12
l -1 12
l -7 -1
l -5 5
l -2 10
l -5 13
l -5 -2
l -2 -6
l 1 -11
l -8 -7
l -1 -14
l -4 -3
l -4 2
v 16
l -7 5
l -1 13
l -4 -6
l -2 -18
l 4 -11
l 7 -7
l 2 -27
l 4 -3
v -13
l -3 -7
l 1 -5
l 8 3
l -4 -25
l -5 3
l 1 15
l -5 9
l -5 -11
l -15 -7
l 4 7
l 10 4
l 11 13
l -4 13
l -5 -5
l -1 14
l -6 -4
l 1 -8
l -2 -3
l -13 -4
h -12
l -1 -9
l -9 -12
v -8
l -5 -2
l 2 8
l -5 -5
v -7
l -2 -7
l -4 -2
l 2 -5
l -7 -25
l -4 -2
l -10 -20
l 11 -7
l -2 -3
l 7 -8
l 2 -9
v -15
l -5 -7
h -3
v 18
l -4 2
v 9
l 3 2
l -8 14
h -10
l 4 16
l 6 3
l 9 11
l -3 5
l -19 -1
l -9 -3
v 3
h -12
l -4 -4
l -3 -18
l 4 -6
l 12 -1
l 2 4
h 8
l 2 -4
l -7 -4
l 6 -9
l -3 -7
l -5 2
l -5 -6
l -5 -2
l 2 -5
l -1 -5
l -9 -4
l -5 -5
l -22 18
l -3 -1
l -3 -14
l -5 -4
l -1 -4
l -5 -11
l -10 1
l -20 5
h -5
l -31 5
l -1 -15
l -8 -46
l -2 -21
l -5 -31
l -4 -25
Z
M581 399
h 3
l 7 2
l 5 2
v 3
l 2 1
l 17 4
h 1
l 15 3
v 1
l -2 35
l -2 2
l -2 2
v 20
l 1 1
l 7 13
l 2 25
l 1 8
v 8
l 1 4
l 1 9
l 3 34
v 1
l 1 4
v 8
l -1 3
l -11 2
l -5 5
l 1 9
l -5 1
l -3 6
h -7
l -8 5
l -2 12
h -10
l -9 4
l -1 -8
l 3 -2
l 2 -13
l -2 -8
l -5 -5
l -2 -8
l -4 -3
l 3 -17
l -6 -14
l 3 -16
l -7 -3
l -4 -17
l 7 4
l 2 -25
l -5 -4
l 7 -14
l -4 -7
l -1 -15
l -4 -9
l 2 -2
l 3 -20
l 4 -14
l 6 -13
l 1 -5
Z
M563 439
l -2 6
l -6 -5
l -8 5
l -1 5
l 10 2
l 5 -1
v 4
l -12 2
l -5 3
v 12
l -2 12
v 13
l 6 9
l -2 16
l 1 8
l 2 1
l -2 9
v 11
l 6 6
l 1 5
l -10 25
l -6 13
l 2 5
h 6
l -2 11
l -5 3
v -10
l -5 -4
l -9 -3
l -9 9
l -6 -7
l -6 -2
l -6 4
v 17
l -5 5
l -1 11
l -6 4
l -1 -7
l -3 3
l -5 -6
l -7 8
l -5 -4
v 7
l -5 -4
l -10 5
l -3 -11
l -2 -1
l 8 -10
l 8 -6
l 5 -8
v 14
l 16 -10
l -2 -11
l -2 -1
l -1 -19
v -9
l -4 -4
l 4 -3
l 3 2
l 6 -2
l -1 -17
l 4 -5
l -2 -3
l 4 -12
l 9 -17
l 8 -6
l -2 -14
l 6 -5
l 5 -15
l -1 -13
l 3 -5
l 8 -3
l 2 -7
l 7 -6
l 10 1
l 11 -12
l 5 6
Z
M515 438
l -8 1
l -1 -5
l 6 -4
Z
M464 424
l 2 6
l -6 7
l 12 9
l 10 1
l 6 5
l 4 11
v 11
l -8 20
l -5 7
l -6 3
l -6 -8
l -2 -9
l 3 -12
l 5 -10
l 2 -10
l -7 -6
l -15 -6
l -1 -14
l 8 -6
l -6 -7
l 4 -7
l 5 7
Z
M448 414
l 3 6
l -5 6
l -5 -11
Z
M443 600
l 7 11
l -2 3
h -10
l -4 4
l -4 -14
h -4
l 3 21
l -1 4
l -6 -1
v 12
l -8 5
v -14
l 4 -4
l -3 -8
l 2 -5
l -3 -16
l 4 -1
l 10 3
l -2 -6
l 5 -11
l -10 -10
l -1 -7
l 6 -18
v -19
l 7 -17
l 4 -3
l 7 5
l 2 23
l -3 8
l 2 19
l -4 9
l 2 5
l 5 1
v 5
l -6 6
Z
M414 590
l -4 2
l 1 -7
l 6 1
Z"/>
<path data-race-id="RI02" d="M61 752
v -2
l -3 -1
l -2 -5
v -6
l 4 -6
l 1 -6
v -6
l -3 -11
l -2 -1
l -3 -4
l 1 -7
l -2 -5
l 2 -6
v -1
h 6
l 5 -2
l 3 -2
v -1
l 3 -2
l 18 3
l 1 -19
v -19
l 1 -5
l 2 -49
v -8
l 1 -20
v -2
l 1 -23
v -23
l 2 -20
v -31
l 1 -4
v -80
l -1 -2
v -57
l -1 -2
v -26
l -1 -4
v -41
l -1 -2
v -17
l -1 -8
v -30
l -1 -9
v -23
l -1 -1
v -71
l -1 -19
v -30
l 23 -2
h 24
l 21 -1
h 14
l 11 -1
h 30
l 11 -1
h 6
l 16 -1
l 5 31
l 4 25
l 5 31
l 2 21
l 8 46
l 1 15
l 31 -5
h 5
l 20 -5
l 10 -1
l 5 11
l 1 4
l 5 4
l 3 14
l 3 1
l 22 -18
l 5 5
l 9 4
l 1 5
l -2 5
l 5 2
l 5 6
l 5 -2
l 3 7
l -6 9
l 7 4
l -2 4
h -8
l -2 -4
l -12 1
l -4 6
l 3 18
l 4 4
h 12
v -3
l 9 3
l 19 1
l -6 6
l 3 17
h -2
l 4 11
l 4 2
l -4 5
l 6 4
l -4 7
l -5 1
l -1 3
l 13 15
l 5 4
l 8 -2
v 2
l -7 4
v 18
l 2 6
l -5 4
l -3 8
v 8
l -3 6
l -10 -6
v -21
h -4
l 1 8
l -6 -1
l -2 -10
l -3 -1
v 7
h -5
l 4 5
l -28 -4
l 1 -3
l -8 -7
l 3 7
l -2 4
l 4 14
l -1 6
l 1 9
l -6 8
l 1 6
l 7 -10
l 3 -11
l 9 -1
l 2 -3
l 5 6
l 8 3
v 5
l -9 1
l -8 7
l 12 -4
l 6 4
v 11
l 4 15
l -13 5
l 2 3
l 8 -1
l 4 4
l -3 6
h -4
l -4 6
l 1 3
l 9 1
v 12
l -5 4
l -9 1
l -9 4
l -6 6
l -1 -9
l -6 8
l -1 -11
l -6 6
v 5
h 4
l 9 6
l 1 12
l 9 6
l -5 8
l 7 3
l 6 10
l 2 8
v 18
l -5 14
l 2 16
l 1 3
l -1 14
l -7 -3
l -2 7
l 4 9
l -5 13
l -6 6
l -8 1
l -6 8
l 3 17
v 7
l -6 7
l -3 8
l -6 5
l -11 22
l 4 12
l -9 -3
l -6 -8
l -7 -5
h -5
l 2 -12
l 6 -10
l 4 -12
v -11
l -3 -4
l -4 5
l -7 21
l -3 13
l 3 11
l -5 -3
h -8
l -5 4
l -10 -2
l -31 8
l -10 5
l -20 2
l -12 6
l -16 4
l -29 11
l -19 13
l -3 -2
l -10 1
l -13 4
l -2 3
l -12 -5
l -15 3
l -42 12
l -19 11
l -1 -3
l -7 -1
l -15 3
l 1 -4
l 21 -3
v -5
l 10 -7
v -6
l 15 -14
Z
M277 890
l 5 1
l 6 12
l -10 23
v 8
l 2 9
l 7 2
l 1 6
l 7 4
v 9
l -4 5
l -14 4
h -14
l -13 2
l -9 -7
l -1 -7
l 6 -24
l 10 -10
v -9
l 9 18
l 8 2
l 2 -10
l -4 -3
l -1 -10
l -5 1
l 4 -9
l 1 -21
Z"/>
</g>
  <path class="districts-mesh" d="M427 279
l -19 -1
l -9 -3
v 3
h -12
l -4 -4
l -3 -18
l 4 -6
l 12 -1
l 2 4
h 8
l 2 -4
l -7 -4
l 6 -9
l -3 -7
l -5 2
l -5 -6
l -5 -2
l 2 -5
l -1 -5
l -9 -4
l -5 -5
l -22 18
l -3 -1
l -3 -14
l -5 -4
l -1 -4
l -5 -11
l -10 1
l -20 5
h -5
l -31 5
l -1 -15
l -8 -46
l -2 -21
l -5 -31
l -4 -25
l -5 -31"/>
</svg>