<svg version="1.1" xmlns="http://www.w3.org/2000/svg" width="660" height="1000" viewBox="0 0 660 1000"><path data-race-id="RI01" d="M246,30h24l20,-1h14l4,-1h1l20,-2h16l9,-1h74v107l-2,4l1,19v3l1,1v2l34,-5v19l-2,11l4,10l1,1l-3,6l-2,14l3,6l-5,10l-2,5l7,18l-1,4v6l1,1l2,1l3,5l2,3v6l1,2l4,3l5,2l27,15l12,7l6,3l7,9l19,29l5,8l-5,9l-9,4l-1,-19l-9,-2l-3,-6h-4l4,8l10,17l2,12l6,12l-1,12l-7,-1l-5,5l-2,10l-5,13l-5,-2l-2,-6l1,-11l-8,-7l-1,-14l-4,-3l-4,2v16l-7,5l-1,13l-4,-6l-2,-18l4,-11l7,-7l1,-24l1,-3l4,-3v-13l-3,-7l1,-5l8,3l-5,-25h-3l-1,3l1,15l-5,9l-5,-11l-15,-7l4,7l10,4l11,13l-4,13l-5,-5l-1,14l-6,-4l1,-8l-2,-3l-13,-4h-12l-1,-9l-9,-12v-8l-5,-2l2,8l-5,-5v-7l-2,-7l-4,-2l2,-5l-3,-13v-2l-1,-3l-2,-3l-3,-5l-2,-1l-10,-20l11,-7l-2,-3l7,-8l2,-9v-15l-5,-7h-3v18l-4,2v9l3,2l-8,14h-10l4,16l6,3l9,11l-3,5l-16,-1l-12,-3l-2,3h-10l-4,-4l-2,-16l3,-8l12,-1l2,4h8l2,-4l-6,-3l5,-10l-3,-7l-15,-6l2,-5l-1,-5l-13,-6l-1,-3l-22,18l-3,-1l-3,-14l-5,-4l-1,-4l-6,-11l-9,1l-20,5h-5l-31,5l-1,-15l-8,-46l-2,-21l-5,-31l-4,-25ZM581,399h3l7,2l5,2v3l2,1l17,4h1l15,3v1l-2,35l-2,2l-2,2v20l1,1l7,13l2,25l1,8v8l1,4l1,9l3,34v1l1,4v8l-1,3l-11,2l-5,5l1,9l-5,1l-3,6h-7l-8,5l-2,12h-10l-9,4l-1,-8l3,-2l2,-13l-2,-8l-5,-5l-6,-13l3,-15l-6,-14l3,-16l-5,-2l-2,-1l-4,-17l7,4l2,-25l-5,-4l7,-14l-4,-7l-1,-15l-4,-9l2,-2l3,-20l4,-14l6,-13l1,-5ZM550,573l-1,2l-2,4l-1,3l-2,3v2l-1,2l-1,3l-3,3v3l-1,2l1,3l1,2l2,1h2l2,4l-1,3l-1,3l-2,1l-1,1l-2,1v-3l1,-4l-3,-5l-3,-2l-3,-1l-2,-1l-4,-1l-3,2l-2,3l-1,2l-3,2l-2,-1v-2l-2,-2l-2,-2l-3,-2l-2,1l-5,1l-2,2l1,3l-1,5v9l-1,3h-3l-1,2v3l1,2l-2,3v3l-1,2l-3,2h-2l-1,-7l-3,3l-5,-6l-7,8l-5,-4v7l-2,-2l-1,-1l-2,-1l-2,2h-2l-1,1l-2,2h-3l-1,-3l-1,-5l-1,-3l-2,-1v-3l2,-1l3,-3l3,-3l3,-1l2,-2l2,-2l1,-1l1,-2l1,-2l1,-3l2,-1v14l16,-10l-2,-11l-2,-1l-1,-19v-9l-4,-4v-2l4,-1l1,2h2l3,-1l3,-1l-1,-17l4,-5l-2,-3l7,-17l1,-3l5,-9l8,-6l-2,-14l6,-5l5,-15l-1,-13l3,-5l8,-3l2,-7l7,-6l10,1l11,-12l5,6l-1,12l-3,-5l-11,5l-1,5l10,2l5,-1v4l-12,2l-5,3v12l-2,12v13l6,9l-2,16l1,8l2,1l-2,9v11l6,6l1,5ZM515,438l-8,1l-1,-5l6,-4ZM464,424l2,6l-6,7l12,9l10,1l6,5l4,11v11l-8,20l-5,7l-6,3l-6,-8l-2,-9l3,-12l5,-10l2,-10l-7,-6l-15,-6l-1,-14l8,-6l-6,-7l4,-7l5,7ZM448,414l3,6l-5,6l-5,-11ZM443,600l7,11l-2,3h-10l-4,4l-4,-14h-4l3,21l-1,4l-6,-1v12l-8,5v-14l4,-4l-3,-8l2,-5l-3,-16l4,-1l10,3l-2,-6l5,-11l-10,-10l-1,-7l6,-18v-19l7,-17l4,-3l7,5l2,23l-3,8l2,19l-4,9l2,5l5,1v5l-6,6ZM414,590l-4,2l1,-7l6,1Z"/><path data-race-id="RI02" d="M61,752v-2l-3,-1l-2,-5v-6l4,-6l1,-6v-6l-3,-11l-2,-1l-3,-4l1,-7l-2,-5l2,-6v-1h6l5,-2l3,-2v-1l3,-2l18,3v-1l1,-18v-19l1,-5l2,-49v-8l1,-20v-2l1,-19v-27l2,-20v-31l1,-4v-80l-1,-2v-57l-1,-2v-26l-1,-4v-41l-1,-2v-17l-1,-8v-30l-1,-9v-23l-1,-1v-71l-1,-19v-30l23,-2h24l21,-1h14l11,-1h30l11,-1h6l16,-1l5,31l4,25l5,31l2,21l8,46l1,15l31,-5h5l20,-5l9,-1l6,11l1,4l5,4l3,14l3,1l22,-18l1,3l13,6l1,5l-2,5l15,6l3,7l-5,10l6,3l-2,4h-8l-2,-4l-12,1l-3,8l2,16l4,4h10l2,-3l12,3l16,1l-6,6l3,17h-2l4,11l4,2l-4,5l6,4l-4,7l-5,1l-1,3l13,15l5,4l8,-2v2l-7,4v18l2,6l-5,4l-3,8v8l-3,6l-10,-6v-21h-4l1,8l-6,-1l-2,-10l-3,-1v7h-5l4,5h-9l-19,-4l1,-3l-8,-7l3,7l-2,4l4,14v12l-6,11v6l8,-10l3,-11l9,-1l2,-3l5,6l8,3v5l-9,1l-8,7l12,-4l6,4v11l4,15l-13,5l2,3l8,-1l4,4l-3,6h-4l-4,6l1,3l9,1v12l-5,4l-9,1l-9,4l-6,6l-1,-9l-6,8l-1,-11l-6,6v5h4l9,6l1,12l9,6l-5,8l7,3l6,10l2,8v18l-2,7l-1,4l-2,3l2,16l1,3l-1,14l-7,-3l-2,5l4,11l-5,13l-6,6l-8,1l-6,8l3,17v7l-6,7l-3,8l-6,5l-11,22l4,12l-9,-3l-6,-8l-7,-5h-5l2,-12l6,-10l4,-12v-11l-3,-4l-4,5l-7,21l-2,14l1,4l1,6l-5,-3h-8l-5,4l-10,-2l-31,8l-10,5l-20,2l-3,1l-9,5l-22,6l-23,9l-19,13l-3,-2l-10,1l-13,4l-2,3l-12,-5l-15,3l-42,12l-19,11l-1,-3l-7,-1l-15,3l1,-4l21,-3l1,-5l9,-7v-6l15,-14ZM277,890l5,1l6,12l-10,23v8l2,9l7,2l1,6l7,4v9l-4,5l-14,4h-14l-13,2l-9,-7l-1,-7l6,-24l10,-10v-9l9,18l8,2l2,-10l-4,-3l-1,-10l-5,1l4,-9l1,-21Z"/>  <path class="mesh" d="M427,279l-16,-1l-12,-3l-2,3h-10l-4,-4l-2,-16l3,-8l12,-1l2,4h8l2,-4l-6,-3l5,-10l-3,-7l-15,-6l2,-5l-1,-5l-13,-6l-1,-3l-22,18l-3,-1l-3,-14l-5,-4l-1,-4l-6,-11l-9,1l-20,5h-5l-31,5l-1,-15l-8,-46l-2,-21l-5,-31l-4,-25l-5,-31"/><g class="cities"><circle r="7" cx="404" cy="237"/><text x="404" y="237">Providence</text><circle r="7" cx="401" cy="372"/><text x="401" y="372">Warwick</text><circle r="7" cx="321" cy="42"/><text x="321" y="42">Woonsocket</text></g></svg>