<svg version="1.1" xmlns="http://www.w3.org/2000/svg" width="1000" height="803" viewBox="0 0 1000 803">
  <path d="M738 587
l -2 -1
l -5 11
l 8 -2
l -21 12
l -4 -5
h -7
v -7
l 5 -5
l -2 -5
l 11 -4
l 1 -11
l 1 -1
v 1
l 6 -4
l -5 3
l -1 -1
l -3 4
l -3 9
l -4 -1
l -5 5
l 1 6
h -6
v -6
h -1
v -1
l -4 1
l -1 -8
l 6 -5
l -1 -4
l -3 4
l -4 10
l 7 5
l 1 13
v 6
l -4 -2
h -1
l -3 -3
l 1 -10
l -4 -3
l -7 3
l -5 -3
l 7 5
l 8 -1
l -1 9
l 9 9
l 10 1
l -3 6
l -10 2
l 2 2
l -5 12
l -10 5
l 1 -8
l -4 7
h -5
l -8 6
h -8
l 5 3
l 11 -8
h 5
l 7 4
l -4 3
l -5 -1
l -22 7
l -7 6
l -4 -9
l -4 2
l -7 -7
v -7
l 5 -3
l -2 -4
h 5
l 9 -8
v -1
l -7 -1
l -4 8
h -5
l 1 6
h -5
l -4 8
l -6 -4
l 2 8
l 13 2
l 10 9
l -11 8
l -14 11
l -5 -3
v -3
l -9 -7
l -5 -2
l 5 -4
l -2 -6
l 2 -7
l -6 3
h 1
l 1 -1
h 4
l -2 1
l -1 3
v 1
l 1 2
v 1
h 1
v 2
h -1
l -2 1
h -1
l -1 2
v 1
l 1 3
v 1
l -7 1
h 4
l 1 -1
l 2 2
v 6
h -7
l -1 -1
l -1 -1
l -1 -1
v -1
l -4 -1
h 1
v 1
h 1
l 2 1
v 1
l 1 1
l 1 1
l -6 1
l -4 -3
h -1
l -5 -4
l -3 -9
h -6
h 4
l 3 9
l 4 4
h -8
l -3 -9
l -5 1
l 6 5
l 2 5
l -5 1
l -4 -4
l -10 1
l -4 -3
l -15 -4
l -7 2
l -1 8
l -5 1
l -6 -9
l 2 -10
l -1 13
l 3 8
l -2 7
h 1
l 3 6
l -4 4
l 1 1
l 7 5
l 1 10
l -7 -4
l -3 -9
l -4 6
h 4
l 9 10
l -2 10
h -3
l -11 -5
l 8 6
l 5 1
l 4 -9
l 6 11
l -7 10
l 1 8
l -11 -2
l 11 5
l -19 14
l 1 -4
l -4 -3
l -2 6
l -8 1
l 11 6
l -4 6
l -7 1
l -8 -1
l -2 -5
l -8 4
l -9 -3
l -1 -1
l -6 -5
v -2
l 1 -5
h -2
v -2
h -1
v -1
l -1 -1
h 1
v -1
h 3
v -1
l -1 -3
h -1
l 1 -1
h 1
v -1
h -1
l -2 -1
v -1
l -2 -2
l -1 -1
v -1
h -2
l 1 -1
v -1
h -1
v -1
l -1 -1
v -2
h 2
v -1
l -1 -1
l 1 -1
v -1
h 1
l 1 -1
h -1
l 1 -1
h 1
v -1
h 1
v 1
l 1 -1
l -1 -1
h 1
v -7
h -1
v 1
h -1
v -4
h -1
v -2
l 1 -1
h 1
l -1 -1
h -1
l -1 -1
v -1
h -1
v 1
h -1
v 1
h -2
v -1
h 1
v -1
h -1
v -2
h -1
l -1 -1
v -1
h -1
h 1
v -1
l -2 -2
v -6
h -1
l -1 -1
l -1 -1
v -1
l -1 -1
l -1 -1
v -4
h 1
v -1
h 1
h -2
v -2
h 1
l 1 1
v -1
l 1 -1
v 1
v -1
l 1 -1
v -1
h -2
v -1
h -2
v -1
l -1 -2
l -2 -1
v -1
h -1
v -1
l -1 -1
l -1 -1
l -1 -1
l 1 -1
h 1
v -1
h -1
l -1 -1
h -2
l -5 -4
v -4
l -1 -1
v 1
h -1
v -2
l -1 -1
v 3
h -1
v -3
h -2
v 1
h -5
v -1
h -1
l -2 -1
h -2
l -1 -1
l 1 -1
l -1 -1
h -1
v 1
h -1
h 1
v -2
l -1 -1
h -2
l -2 -2
v -1
l -3 -4
h -1
l -1 -1
l -1 -2
h 2
l 2 -1
h -1
v -2
h 1
l 2 -2
h -1
l -1 -1
l -1 -1
h 2
l -2 -6
v -1
l -1 -2
l -1 1
v -1
l -2 -2
v -1
h 1
l 1 -1
l 1 -2
l -1 -1
l -1 -1
h 2
v -1
l 1 -2
v -1
h -2
v -1
h 1
v -3
h -1
v 1
v -1
h -3
v -2
h 3
v -2
h -3
v -1
v 1
h 2
v -1
h -2
l 1 -1
l 1 -1
l -1 -1
l -1 -1
h 1
v -2
h 1
v -1
l 1 -1
h -1
l -1 -1
l 1 -2
l -2 -3
l -2 1
l -1 -2
h -1
l -1 1
l -1 -2
h 1
v -5
h -1
l -2 -2
v 2
l -1 -1
v -2
l 1 -1
v 1
h 1
l -1 -1
v -3
v 2
v -1
h -2
v -3
l 1 -1
h -2
l 1 -1
v -1
l -4 -2
v -3
l -1 -2
l -1 -1
v -1
l 1 -2
l 1 2
v -1
h 1
v -2
l 1 -1
v -1
h -1
h 1
v -1
h -1
l 1 -2
v -1
l -2 -1
h 1
v -1
h 1
h -1
v -1
h -1
v -1
h -1
v 2
h -1
v -1
l 1 -1
l -1 -2
v -1
h -2
v -1
l -1 -1
h -1
v -1
l -1 1
h -1
v -2
l -1 -1
l -1 1
h -2
l -1 -1
h 1
v -2
l -1 -1
h -1
v 2
v -2
v 1
h -1
v -1
h 1
h -1
v -1
l -2 -2
h -3
v -4
v 1
l -1 1
l -1 1
v -2
l 1 -1
h -1
v -1
h -2
l -3 1
h -1
v -1
h -2
v -1
h -1
v -1
h -2
v -1
h -1
v -1
h -1
l -1 -1
h -4
l -2 -1
v -1
h -1
l -1 -1
v -1
h -1
l -5 -4
h -1
v -1
l -1 -1
v -3
h -1
v -3
v 1
h 1
v -1
h -1
v -1
l 1 -1
v -2
h 1
l -1 -1
l -1 -3
v -1
h -1
v -1
h -1
v 3
h -5
l -1 -1
l -1 -2
l -1 -1
h -2
l -3 -3
h -1
v -1
h -1
v -1
l -1 -1
h 3
v -1
h -1
v -2
h 1
l 1 1
h 1
v -1
h 1
h -2
v -1
l 1 -1
v -1
h -3
v -2
h -3
v -4
l 2 1
v -1
l 1 -1
l -2 -1
v 1
h -1
v 1
l -1 -3
l -1 1
v 1
h -1
l -1 -1
v -1
l 1 -1
h -3
h 1
l -2 -2
v -1
h -1
v 1
h -1
l 1 1
h -1
v 1
h -1
v -1
h 1
v -1
l -2 -2
v -1
l 1 -1
h 1
v -1
h -1
v 1
h -6
v -1
l 2 -2
h -1
v -4
h 1
v 1
l 1 -1
h 1
v -1
h -1
l -1 -1
v -2
l -1 -2
l -2 -3
h 8
v -1
h -1
l -1 -1
h -1
l -2 -2
l 1 -1
h 1
l 2 -1
v -1
l -2 -4
l -2 -2
l -4 -3
h -1
l -2 -1
l -4 -4
v -2
l -2 -3
l -2 -2
v -1
l -2 -1
l -2 -3
l -1 -2
h -1
v -1
l -9 -6
h -2
l -4 -3
l -4 1
l -3 -2
l -1 -3
h -1
l -7 -6
l -1 -2
v -1
h 1
v -3
l -2 -2
l -2 -4
l -4 -2
v -8
l -6 -11
l -3 -2
l -3 -4
v -1
l -1 -1
l -2 -1
l -4 -3
l -4 -4
h -2
l -1 -2
h -1
l -1 -1
h -1
l -1 -1
l -1 -1
l -3 -1
h -3
l -11 -10
l -5 -7
l -5 -2
l -6 -4
l -1 -3
l -2 -3
l -1 -3
l -2 -4
v -2
l 1 -1
l -3 -3
l -3 -4
v -1
l -1 -1
l -3 -1
l -1 -2
l 1 -4
l -3 -4
l -1 -1
v -1
l -1 -1
l -10 -8
l -4 -14
h -1
v -12
l -1 -3
v -1
h -1
l -1 -1
l -3 -5
l -1 -2
l -1 -2
v -2
l -2 -4
h -1
l -1 -1
v -1
l -2 -2
l -4 1
l -3 -9
v -14
l -9 -9
l -1 1
h -16
v 1
h -1
l -1 1
l -2 -1
l -6 -2
l -2 -2
l -1 -2
l -4 -5
v -1
l -5 -2
v -1
l -3 -3
l -1 -1
l -2 -1
l -2 -1
l -2 -6
l -1 -3
l -5 -1
l -3 -1
h -4
l -4 -3
l -5 -5
l -1 -1
h -1
v -1
l -2 -1
h -1
l -1 -2
v -1
l -1 -1
h -2
l -1 -1
v -1
h -1
l -1 -1
h -2
v -2
l -1 -1
l -1 -1
v -1
h 1
l -1 -1
v -7
l 2 -1
h 1
l 1 -1
v -2
h 1
v -1
h 2
l -1 -1
l 1 -1
h -1
v -1
h 1
l -1 -2
v -3
l 1 -1
l 1 -1
l 2 -1
h 1
v -1
l -1 -2
v -1
l 1 1
l 1 1
l 1 -2
v -1
h 1
l 1 1
l 1 1
l 1 -1
v -6
l 1 -1
h 1
v 1
h 2
l -1 -1
v -1
h 1
v -3
l 1 1
h 1
l 1 -2
l -2 -1
h 2
l 1 -1
v 1
h 2
v -2
l 1 -1
v 2
h 2
l 1 -1
l -1 -1
v -1
h 1
l 1 -1
v -1
l 1 1
l 1 -1
l 3 -2
v -2
h 2
v -3
h 1
v 1
h 1
l 1 1
l 2 -1
v -1
h 1
h -1
v -1
h 1
l 2 1
h 1
v -1
l -2 -3
h -1
v -1
l 1 -1
l 1 1
v -4
l 1 -1
h 1
v -2
l 2 -1
v -1
l -1 -1
h 1
l -1 -2
l 9 -3
l 8 -2
l 24 -7
l 23 -7
l 1 1
v 3
l -1 1
v 1
h 2
v -1
h 2
l 1 -1
v -2
h 2
v 1
h 1
v -1
l 1 -1
l 1 -1
v -1
h 3
l 1 -1
l 2 -1
v 1
h 1
v -1
h 1
l 1 -1
v -1
h -1
v -1
h -1
l 1 -1
h 1
v -2
h 1
l 1 -1
v 4
v -1
h 3
l 1 -1
v -1
h 2
v -1
h 1
v 1
h 2
v -1
h 1
v -1
h 2
l 1 -1
h 1
l 1 1
l 1 -1
h 1
v -1
h 3
l 1 -1
l 1 -1
l 1 1
v -1
l 1 -2
h 1
l 2 1
v 1
l 1 -1
h 3
v -1
h 2
l 1 -1
v 1
h 2
h -1
l 1 -1
v -1
h 2
l 1 -1
v 1
h 1
v -1
h 3
v 1
l -1 1
l 1 1
l 1 -1
v 1
l 1 -1
h 2
v -1
h 1
l 1 -2
l -1 -1
l 1 -1
v -1
l 1 -1
v -1
h 3
l 1 -1
h 1
l -1 -1
h 1
v -1
h 2
l 1 1
l -1 1
l 1 1
v 2
l -1 1
h 1
v 1
l 1 1
l 1 -1
h 1
v -1
l 1 -1
v 1
h 1
l 1 -1
h 1
v 1
h 2
l 1 1
h 1
v -1
h 1
l 2 -1
h 2
l 4 -2
l 5 1
h 5
l 1 1
h 1
l 29 1
h 4
l 13 1
h 2
l 18 1
l 7 1
l 14 1
l 32 1
h 6
l 7 1
h 6
l 11 1
h 17
l 6 1
h 2
l 25 2
l 32 1
l -3 1
v 2
l 1 3
v 6
l -3 5
l 1 5
l 1 1
l 1 2
h 2
l 9 -6
l 2 -2
l 5 -4
l 4 -3
v 2
l 3 3
l 3 3
l 10 15
l 2 3
l 1 1
l 5 6
l 2 3
l 3 6
l -2 24
v 4
h 122
l 6 1
h 42
l 3 1
h 2
l 26 -1
h 19
l 29 28
l 5 5
l 9 8
l 2 3
l 13 13
l 2 1
l 2 2
l 1 1
l 1 1
l 1 1
h 1
v 1
l 7 8
l 11 11
l 2 1
l 2 3
l 3 3
l 4 4
l 18 18
l 4 3
l 1 2
h 1
l 2 2
l 3 3
l 3 3
h 1
l 11 12
l 22 21
l 28 29
l 12 10
l 2 3
l 4 2
v 1
l 9 9
l 2 3
h 1
l 2 2
v 9
l -23 9
l -15 10
l -12 9
l -12 13
l -21 26
l -4 9
l -11 11
l -13 28
v 6
l -4 4
l 1 7
l -3 9
v 15
l -4 -13
l -1 -11
l -11 2
l -3 -4
l 5 -12
l 8 -14
l -9 11
l -1 -3
l -7 14
v 8
l 8 10
l 8 2
l 2 8
l 5 3
l -2 7
l -8 6
l -2 -6
l -5 -4
l -6 4
l 5 2
l 5 6
l -3 4
l -1 -5
l -10 -1
l -17 -8
v 1
l 10 6
l 5 1
h 2
l 8 3
l 1 3
l -20 14
l -2 4
l -9 -5
l 1 13
l -11 2
l -11 -7
l -10 8
l -7 11
v 5
l -5 1
l -16 19
l -3 -3
Z
M811 538
l 5 3
l -8 2
l -2 -5
Z
M759 572
l 16 -6
l -1 6
l -9 3
l -5 5
l -5 -8
Z
M756 576
l 3 4
l -8 6
l -4 -2
l 3 -5
Z
M748 590
l -6 1
l 3 -7
Z
M728 604
h -1
l 15 -12
l 3 4
Z
M715 616
l -3 8
l -6 -5
Z
M606 672
v -1
h 1
v -5
l -1 -1
v -2
h 4
l 7 9
l -11 7
Z
M603 695
l -1 8
l -5 8
l -6 -6
l 2 -5
l 9 -8
Z
M593 709
l 5 5
l -6 2
l -17 10
l -2 -4
l 4 -8
h 7
l 4 -5
Z
M558 672
h 9
l 5 3
l 5 -1
l 2 6
l -4 2
l 18 3
l 4 8
l -1 4
l -8 2
l -11 6
l 3 7
l -9 12
l -7 6
l -5 -1
l 1 -8
l -1 -18
l -5 1
v -12
l 3 -6
l -7 -4
v -9
Z
M588 675
l 5 4
l -3 3
l -10 -2
v -8
Z
M550 673
h -1
v 9
l 5 1
l -3 5
l 2 13
l -4 1
l 6 6
v 12
l -7 -3
l -9 -10
l -8 -12
v -1
l -3 -8
l -2 -9
l 4 -2
l 2 -10
l 11 -2
l 9 5
Z
M543 727
l 10 8
l 1 5
l -6 6
l -6 10
l -17 10
l -3 -2
l 7 -9
l 3 -14
l -1 -3
l 7 -1
Z
M541 717
l -4 1
l -7 -8
l 2 -2
Z
M539 727
l -3 9
l -5 1
l 6 -12
Z
M521 760
l -7 11
l -6 -2
l 1 -9
l 12 -4
Z
M511 755
l -3 9
l -6 -1
Z
M507 773
l 4 -1
l -2 6
l -5 -1
Z
M504 772
l -1 6
l 6 4
h -5
l -8 -9
Z"/>
<g class="districts">
<path data-race-id="SC01" d="M486 731
l 4 -3
l -3 -10
l 14 2
l 3 -13
l 8 1
l 4 -7
h 4
l 9 10
l -2 10
h -3
l -11 -5
l 8 6
l 5 1
l 4 -9
l 6 11
l -7 10
l 1 8
l -11 -2
l 11 5
l -19 14
l 1 -4
l -4 -3
l -2 6
l -8 1
l -1 -10
l -9 -5
l -3 -5
Z
M520 695
l 2 -2
l 7 5
l 1 10
l -7 -4
Z
M521 692
l -3 -4
l 4 -6
l 3 6
Z
M531 694
l 5 -4
v -8
h -7
l 2 -5
l 12 -5
h 6
v 10
l 5 1
l -3 5
l 2 13
l -4 1
l 6 6
v 12
l -7 -3
l -9 -10
l -8 -12
Z
M587 669
l 6 -3
v 1
h 1
l 2 1
v 1
l 1 1
l 1 1
l -6 1
l -4 -3
Z
M599 671
l -1 -1
l -1 -1
h -1
v -2
l 4 -3
h 3
l 1 -1
l 2 2
v 6
Z
M606 672
v -1
l 1 -2
v -3
l -1 -1
v -2
h 4
l 7 9
l -11 7
Z
M606 646
l -3 -5
l 4 -1
l 3 -5
l 14 4
l 1 -2
l 2 8
l 13 2
l 10 9
l -11 8
l -14 11
l -5 -3
v -3
l -9 -7
l -5 -2
l 5 -4
l -2 -6
l 2 -7
l -6 3
Z
M649 648
l 2 -10
l 6 -6
l 4 1
l 9 -6
l 4 -4
l -7 -4
l -3 3
l -9 -1
v -1
l 1 -9
l 5 1
l 3 -9
l -5 -8
h -5
l -24 -7
l 7 -14
h -7
v -4
l 6 -8
l -8 -12
v -11
l 7 -9
l 4 -1
l -7 -6
l 22 -26
l 2 7
l 5 -7
v -2
h -1
l -3 -12
l 23 -5
l 10 -11
l 9 1
l 1 -5
l 4 6
l 2 4
l 5 -4
l 9 12
v 8
l -4 1
l 3 8
l -5 3
l -12 1
l -6 3
l -2 1
l -5 8
l 8 9
l 1 7
l -5 5
l -5 11
v 18
l 3 10
l -5 1
l -2 -5
l -2 -3
l -11 -6
l -3 3
l 4 5
l -3 10
l 8 4
l 3 5
l 7 5
l 8 -1
l -1 9
l 9 9
l 10 1
l -3 6
l -10 2
l 2 2
l -5 12
l -10 5
l 1 -8
l -4 7
h -5
l -8 6
h -8
l 5 3
l 11 -8
h 5
l 7 4
l -4 3
l -5 -1
l -22 7
l -7 6
Z
M703 591
v -2
h 1
l -1 -1
h 1
h -1
v -3
h -1
v -1
l 2 -9
l 16 -9
l 4 3
l -1 -1
l -3 4
l -3 9
l -4 -1
l -5 5
l 1 6
Z
M723 569
v 1
l 6 -4
l 6 -1
v -9
l 8 -10
l 1 -4
l 13 -15
l 3 -7
l 4 -3
l 15 -4
l 6 1
v -3
l 9 -11
l 5 -2
l 9 8
v 1
l 10 6
l 5 1
h 2
l 8 3
l 1 3
l -20 14
l -2 4
l -9 -5
l 1 13
l -11 2
l -11 -7
l -10 8
l -7 11
v 5
l -5 1
l -16 19
l -3 -3
l -3 5
l -2 -1
l -5 11
l 8 -2
l -21 12
l -4 -5
h -7
v -7
l 5 -5
l -2 -5
l 11 -4
l 1 -11
l 1 -1
Z
M811 538
l 5 3
l -8 2
l -2 -5
Z
M759 572
l 16 -6
l -1 6
l -9 3
l -5 5
l -5 -8
Z
M756 576
l 3 4
l -8 6
l -4 -2
l 3 -5
Z
M748 590
l -6 1
l 3 -7
Z
M728 604
h -1
l 15 -12
l 3 4
Z
M715 616
l -3 8
l -6 -5
Z
M603 695
l -1 8
l -5 8
l -6 -6
l 2 -5
l 9 -8
Z
M593 709
l 5 5
l -6 2
l -17 10
l -2 -4
l 4 -8
h 7
l 4 -5
Z
M558 672
h 9
l 5 3
l 5 -1
l 2 6
l -4 2
l 18 3
l 4 8
l -1 4
l -8 2
l -11 6
l 3 7
l -9 12
l -7 6
l -5 -1
l 1 -8
l -1 -18
l -5 1
v -12
l 3 -6
l -7 -4
v -9
Z
M588 675
l 5 4
l -3 3
l -10 -2
v -8
Z
M543 727
l 10 8
l 1 5
l -6 6
l -6 10
l -17 10
l -3 -2
l 7 -9
l 3 -14
l -1 -3
l 7 -1
Z
M541 717
l -4 1
l -7 -8
l 2 -2
Z
M539 727
l -3 9
l -5 1
l 6 -12
Z
M521 760
l -7 11
l -6 -2
l 1 -9
l 12 -4
Z
M511 755
l -3 9
l -6 -1
Z"/>
<path data-race-id="SC02" d="M286 424
l 23 -23
l 49 -45
l 16 -14
l 11 -28
l 4 -6
l 5 -14
l 8 -2
l 8 3
l -5 -10
l -4 -4
l 7 -11
h 4
l 9 -5
l -2 -2
l 6 -8
l 5 1
l 7 8
l 6 -1
l 9 8
l 2 -5
l -3 -6
l 19 1
l 5 -3
l 32 -8
l 15 -2
l -8 21
l 13 10
l 16 16
l 5 -2
l -1 3
v 15
l -25 2
l -22 5
l -5 6
l -5 -3
v -5
h -5
l 5 -11
l -1 -1
l 7 -6
l 2 2
l 7 -3
l 1 -9
l -5 2
l 4 -7
l -4 -5
l 1 -6
l -6 -3
l -3 4
l -6 1
v 4
l -8 -2
l -7 1
l -1 4
h -10
l 6 10
l -5 3
l -2 2
l 9 13
l 6 2
l 10 19
l 1 11
l -6 2
v 10
l -4 20
l 5 1
v -5
l 6 -4
h 9
l 6 5
l -5 5
l -13 4
l -5 4
l 11 15
l -2 9
h -1
l -3 3
l 3 4
h -6
l -5 1
v 5
l -4 4
l 3 3
h 16
l 5 5
l -2 5
l 9 6
l 12 4
v 3
l 1 3
l -1 1
l -5 8
l 2 13
l -1 8
l -1 5
l -6 -4
l -2 -2
l -4 -4
l -1 1
l -1 -1
l -1 -1
l -3 -2
l -2 -1
l -2 -1
l -1 -1
l -2 -1
l -6 -2
l -2 -2
l -5 -4
l -2 -1
l -5 -2
l -1 -1
h -2
l -4 -3
l -2 -1
l -1 -1
h -4
l -1 -1
l -4 -6
l -3 -1
l 2 7
l -1 17
v 34
l -1 11
l 6 9
h -11
l -6 2
h -18
l -35 -12
l -14 15
h -2
l -3 1
h -1
v -1
h -2
v -1
h -1
v -1
h -2
v -1
h -1
v -1
h -1
l -1 -1
h -4
l -2 -1
v -1
h -1
l -1 -1
v -1
h -1
l -5 -4
h -1
v -1
l -1 -1
v -3
h -1
v -3
v 1
h 1
v -1
h -1
v -1
l 1 -1
v -2
h 1
l -1 -1
l -1 -3
v -1
h -1
v -1
h -1
v 3
h -5
l -1 -1
l -1 -2
l -1 -1
h -2
l -3 -3
h -1
v -1
h -1
v -1
l -1 -1
h 3
v -1
h -1
v -2
h 1
l 1 1
h 1
v -1
h 1
h -2
v -1
l 1 -1
v -1
h -3
v -2
h -3
v -4
l 2 1
v -1
l 1 -1
l -2 -1
v 1
h -1
v 1
l -1 -3
l -1 1
v 1
h -1
l -1 -1
v -1
l 1 -1
h -3
h 1
l -2 -2
v -1
h -1
v 1
h -1
l 1 1
h -1
v 1
h -1
v -1
h 1
v -1
l -2 -2
v -1
l 1 -1
h 1
v -1
h -1
v 1
h -6
v -1
l 2 -2
h -1
v -4
h 1
v 1
l 1 -1
h 1
v -1
h -1
l -1 -1
v -2
l -1 -2
l -2 -3
h 8
v -1
h -1
l -1 -1
h -1
l -2 -2
l 1 -1
h 1
l 2 -1
v -1
l -2 -4
l -2 -2
l -4 -3
h -1
l -2 -1
l -4 -4
v -2
l -2 -3
l -2 -2
Z"/>
<path data-race-id="SC03" d="M25 139
h 1
l -1 -1
v -7
l 2 -1
h 1
l 1 -1
v -2
h 1
v -1
h 2
l -1 -1
l 1 -1
h -1
v -1
h 1
l -1 -2
v -3
l 1 -1
l 1 -1
l 2 -1
h 1
v -1
l -1 -2
v -1
l 1 1
l 1 1
l 1 -2
v -1
h 1
l 1 1
l 1 1
l 1 -1
v -6
l 1 -1
h 1
v 1
h 2
l -1 -1
v -1
h 1
v -3
l 1 1
h 1
l 1 -2
l -2 -1
h 2
l 1 -1
v 1
h 2
v -2
l 1 -1
v 2
h 2
l 1 -1
l -1 -1
v -1
h 1
l 1 -1
v -1
l 1 1
l 1 -1
l 3 -2
v -2
h 2
v -3
h 1
v 1
h 1
l 1 1
l 2 -1
v -1
h 1
h -1
v -1
h 1
l 2 1
h 1
v -1
l -2 -3
h -1
v -1
l 1 -1
l 1 1
v -4
l 1 -1
h 1
v -2
l 2 -1
v -1
l -1 -1
h 1
l -1 -2
l 9 -3
l 8 -2
l 24 -7
l 23 -7
l 1 1
v 3
l -1 1
v 1
h 2
v -1
h 1
l 2 5
l 15 -4
l 7 1
l 6 -3
l 4 3
l 1 10
l -2 2
l 11 -1
v 6
l 4 12
l -1 4
l 6 6
l 1 19
l 5 10
l 3 -3
l 10 2
v 8
l -6 5
l 11 3
l 12 -3
l 1 7
l 11 -1
l 4 -2
l 3 -15
l 4 -5
h 4
l 4 3
l 8 8
l 5 2
l 2 10
l 13 10
l 10 3
l 5 8
l 7 5
h 7
l 20 8
l 19 4
l 3 4
l -9 14
l -10 10
l 9 6
l 2 6
l 14 12
l -1 3
l -3 1
l -7 6
l 3 3
l 2 3
l 7 1
l 1 -2
l 4 4
l 3 5
l -4 5
l 1 5
l 9 2
l 1 8
l -8 11
l 12 6
h 7
l -5 14
l -4 6
l -11 28
l -16 14
l -49 45
l -23 23
l -2 -1
l -2 -3
l -1 -2
h -1
v -1
l -9 -6
h -2
l -4 -3
l -4 1
l -3 -2
l -1 -3
h -1
l -7 -6
l -1 -2
v -1
h 1
v -3
l -2 -2
l -2 -4
l -4 -4
v -6
l -2 -7
l -4 -4
l -3 -2
l -3 -4
v -1
l -1 -1
l -2 -1
l -4 -3
l -4 -4
h -2
l -1 -2
h -1
l -1 -1
h -1
l -1 -1
l -1 -1
l -3 -1
h -3
l -11 -10
l -5 -7
l -5 -2
l -6 -4
l -1 -3
l -2 -3
l -1 -3
l -2 -4
v -2
l 1 -1
l -3 -3
l -3 -4
v -1
l -1 -1
l -3 -1
l -1 -2
l -2 -8
l -1 -1
v -1
l -1 -1
l -10 -8
l -4 -14
h -1
v -12
l -1 -3
v -1
h -1
l -1 -1
l -3 -5
l -1 -2
l -1 -2
v -2
l -2 -4
h -1
l -1 -1
v -1
l -2 -2
l -7 -16
v -8
l -9 -7
l -1 1
h -16
v 1
h -1
l -1 1
l -2 -1
l -6 -2
l -2 -2
l -1 -2
l -4 -5
v -1
l -5 -2
v -1
l -3 -3
l -1 -1
l -2 -1
l -2 -1
l -2 -6
l -1 -3
l -5 -1
l -3 -1
h -4
l -4 -3
l -5 -5
l -1 -1
h -1
v -1
l -2 -1
h -1
l -1 -2
v -1
l -1 -1
h -2
l -1 -1
v -1
h -1
l -1 -1
h -2
v -2
l -1 -1
l -1 -1
v -1
Z"/>
<path data-race-id="SC04" d="M142 54
h 1
l 1 -1
v -2
h 2
v 1
h 1
v -1
l 1 -1
l 1 -1
v -1
h 3
l 1 -1
l 2 -1
v 1
h 1
v -1
h 1
l 1 -1
v -1
h -1
v -1
h -1
l 1 -1
h 1
v -2
h 1
l 1 -1
v 4
v -1
h 3
l 1 -1
v -1
h 2
v -1
h 1
v 1
h 2
v -1
h 1
v -1
h 2
l 1 -1
h 1
l 1 1
l 1 -1
h 1
v -1
h 3
l 1 -1
l 1 -1
l 1 1
v -1
l 1 -2
h 1
l 2 1
v 1
l 1 -1
h 3
v -1
h 2
l 1 -1
v 1
h 2
h -1
l 1 -1
v -1
h 2
l 1 -1
v 1
h 1
v -1
h 3
v 1
l -1 1
l 1 1
l 1 -1
v 1
l 1 -1
h 2
v -1
h 1
l 1 -2
l -1 -1
l 1 -1
v -1
l 1 -1
v -1
h 3
l 1 -1
h 1
l -1 -1
h 1
v -1
h 2
l 1 1
l -1 1
l 1 1
v 2
l -1 1
h 1
v 1
l 1 1
l 1 -1
h 1
v -1
l 1 -1
v 1
h 1
l 1 -1
h 1
v 1
h 2
l 1 1
h 1
v -1
h 1
l 2 -1
h 2
l 4 -2
l 5 1
h 5
l 1 1
h 1
l 29 1
h 4
l 4 7
l -2 3
l 8 8
l 4 10
l 7 5
v 5
l 12 2
l 5 -1
l 1 -5
l 8 -1
l 3 5
l 7 25
l 4 -1
l 4 6
l -14 17
l -8 38
l -4 8
l -3 12
h -7
l -7 -5
l -5 -8
l -10 -3
l -13 -10
l -2 -10
l -5 -2
l -8 -8
l -4 -3
h -4
l -4 5
l -3 15
l -4 2
l -11 1
l -1 -7
l -12 3
l -11 -3
l 6 -5
v -8
l -10 -2
l -3 3
l -5 -10
l -1 -19
l -6 -6
l 1 -4
l -4 -12
v -6
l -11 1
l 2 -2
l -1 -10
l -4 -3
l -6 3
l -7 -1
l -15 4
l -2 -5
Z"/>
<path data-race-id="SC05" d="M298 27
l 18 1
l 7 1
l 14 1
l 32 1
h 6
l 7 1
h 6
l 11 1
h 17
l 6 1
h 2
l 25 2
l 32 1
l -3 1
v 2
l 1 3
v 6
l -3 5
l 1 5
l 1 1
l 1 2
h 2
l 9 -6
l 2 -2
l 5 -4
l 4 -3
v 2
l 3 3
l 3 3
l 10 15
l 2 3
l 1 1
l 5 6
l 2 3
l 3 6
l -2 24
v 4
h 46
v 3
l 9 9
l 5 14
l 4 6
l 8 5
l -1 5
l 6 6
l 4 5
l 2 11
l 3 4
l 5 5
l 2 8
l 1 12
l 4 5
l 2 2
l 1 3
h -1
v 1
l 1 1
l -1 1
v 2
l 8 5
l 1 4
l 8 -3
l 5 -7
l 1 12
l 13 21
v 8
l -10 8
l 8 9
l 9 9
l 10 3
l 5 7
l -5 9
h -9
l -12 9
l -10 5
l -1 -13
l -8 3
l 2 3
l -4 11
l 6 2
l -1 6
l -8 -1
l -4 4
l -5 -4
v -5
l -5 -4
l -7 1
l 1 9
h 3
l 1 7
l 4 1
l 4 10
l 6 7
l -1 2
l -26 5
l 1 13
l -7 1
l 1 -5
l -5 -2
v 5
l -6 1
l -3 9
l -7 8
l -11 -9
l -2 -5
l -4 -2
v -8
l 4 -10
l -2 -6
l -5 -25
l 2 -12
l -4 -9
l 7 -6
l -1 -8
l -5 -7
l 4 -3
l -16 5
l -5 2
l -16 -16
l -13 -10
l 8 -21
l -15 2
l -32 8
l -5 3
l -19 -1
l 3 6
l -2 5
l -9 -8
l -6 1
l -7 -8
l -5 -1
l -6 8
l 2 2
l -9 5
h -4
l -7 11
l 4 4
l 5 10
l -8 -3
l -8 2
h -7
l -12 -6
l 8 -11
l -1 -8
l -9 -2
l -1 -5
l 4 -5
l -3 -5
l -4 -4
l -1 2
l -7 -1
l -2 -3
l -3 -3
l 7 -6
l 3 -1
l 1 -3
l -14 -12
l -2 -6
l -9 -6
l 10 -10
l 9 -14
l -3 -4
l -19 -4
l -20 -8
l 3 -12
l 4 -8
l 8 -38
l 14 -17
l -4 -6
l -4 1
l -7 -25
l -3 -5
l -8 1
l -1 5
l -5 1
l -12 -2
v -5
l -7 -5
l -4 -10
l -8 -8
l 2 -3
l -4 -7
l 13 1
Z"/>
<path data-race-id="SC06" d="M449 524
l -6 -9
l 1 -11
v -34
l 1 -17
l -2 -7
l 3 1
l 4 6
l 1 1
h 4
l 1 1
l 2 1
l 4 3
h 2
l 1 1
l 5 2
l 2 1
l 5 4
l 2 2
l 6 2
l 2 1
l 1 1
l 2 1
l 2 1
l 3 2
l 1 1
l 1 1
l 1 -1
l 4 4
l 2 2
l 6 4
l 1 -5
l 1 -8
l -2 -13
l 5 -8
l 1 -1
l -1 -3
v -3
l -12 -4
l -9 -6
l 2 -5
l -5 -5
h -16
l -3 -3
l 4 -4
v -5
l 5 -1
h 6
l -3 -4
l 3 -3
h 1
l 2 -9
l -11 -15
l 5 -4
l 13 -4
l 5 -5
l -6 -5
h -9
l -6 4
v 5
l -5 -1
l 4 -20
v -10
l 6 -2
l -1 -11
l -10 -19
l -6 -2
l -9 -13
l 2 -2
l 5 -3
l -6 -10
h 10
l 1 -4
l 7 -1
l 8 2
v -4
l 6 -1
l 3 -4
l 6 3
l -1 6
l 4 5
l -4 7
l 5 -2
l -1 9
l -7 3
l -2 -2
l -7 6
l 1 1
l -5 11
h 5
v 5
l 5 3
l 5 -6
l 22 -5
l 25 -2
v -15
l 1 -3
l 16 -5
l -4 3
l 5 7
l 1 8
l -7 6
l 4 9
l -2 12
l 5 25
l 2 6
l -4 10
v 8
l 4 2
l 2 5
l 11 9
l 7 -8
l 3 -9
l 6 -1
v -5
l 5 2
l -1 5
l 7 -1
l -1 -13
l 26 -5
l 1 -2
l -6 -7
l -4 -10
l -4 -1
l -1 -7
h -3
l -1 -9
l 7 -1
l 5 4
v 5
l 5 4
l 4 -4
l 8 1
l 1 -6
l -6 -2
l 4 -11
l -2 -3
l 8 -3
l 1 13
l 10 -5
l 12 -9
h 9
l 5 -9
l 8 6
l 11 4
l 2 3
l 6 2
l -3 4
l 7 8
l 9 2
l 8 6
l 6 1
l 6 -6
l -3 -6
l 6 -1
l 2 4
l 9 5
l 5 6
l 11 -2
v 7
l -6 1
l -1 5
l -10 5
l 3 3
l 23 6
l 14 -2
l 10 -6
v -3
l 12 5
l 1 4
l -4 3
l -3 7
l -11 13
l -2 11
l -2 5
v 11
l -10 9
l -1 4
l -10 6
l -10 13
l -1 5
l -7 11
l -9 9
v 9
l 8 1
l 7 5
l 9 1
l 5 6
l 17 4
l 1 3
l -5 2
l -9 11
v 3
l -6 -1
l -15 4
l -4 3
l -3 7
l -13 15
l -1 4
l -8 10
v 9
l -6 1
l -5 3
l -4 -3
l -16 9
l -2 9
l -4 1
l -1 -8
l 6 -5
l -1 -4
l -3 4
l -4 10
l 7 5
l 1 13
v 1
l -5 3
l -3 -3
l 1 -10
l -4 -3
l -7 3
l -5 -3
l -3 -5
l -8 -4
l 3 -10
l -4 -5
l 3 -3
l 11 6
l 2 3
l 2 5
l 5 -1
l -3 -10
v -18
l 5 -11
l 5 -5
l -1 -7
l -8 -9
l 5 -8
l 2 -1
l 6 -3
l 12 -1
l 5 -3
l -3 -8
l 4 -1
v -8
l -9 -12
l -5 4
l -2 -4
l -4 -6
l -1 5
l -9 -1
l -10 11
l -23 5
l 3 12
h 1
v 2
l -5 7
l -2 -7
l -22 26
l 7 6
l -4 1
l -7 9
v 11
l 8 12
l -6 8
v 4
h 7
l -7 14
l 24 7
h 5
l 5 8
l -3 9
l -5 -1
l -1 9
l -7 -1
l -4 8
h -5
l 1 6
h -5
l -4 8
l -6 -4
l -1 2
l -14 -4
l -3 5
l -4 1
l 3 5
l 1 -1
h 4
l -2 1
l -1 3
v 1
l 1 2
v 1
h 1
v 2
h -1
l -3 1
l -1 2
v 1
l 1 3
v 1
l -7 1
h 1
l -4 3
l -4 -1
h 1
l -6 3
l -5 -4
l -3 -9
h -6
h 4
l 3 9
l 4 4
h -8
l -3 -9
l -5 1
l 6 5
l 2 5
l -5 1
l -4 -4
l -10 1
l -4 -3
l -15 -4
l -7 2
l -1 8
l -5 1
l -6 -9
l 2 -10
l -1 13
l 3 8
l -2 7
h 1
l -4 6
l 3 4
l 1 1
l -2 2
l -4 6
l -4 7
l -8 -1
l -3 13
l -14 -2
l 3 10
l -4 3
l -1 9
l 3 5
l 9 5
l 1 10
l 11 6
l -4 6
l -7 1
l -8 -1
l -2 -5
l -8 4
l -9 -3
l -1 -1
l -6 -5
v -2
l 1 -5
h -2
v -2
h -1
v -1
l -1 -1
h 1
v -1
h 3
v -1
l -1 -3
h -1
l 1 -1
h 1
v -1
h -1
l -2 -1
v -1
l -2 -2
l -1 -1
v -1
h -2
l 1 -1
v -1
h -1
v -1
l -1 -1
v -2
h 2
v -1
l -1 -1
l 1 -1
v -1
h 1
l 1 -1
h -1
l 1 -1
h 1
v -1
h 1
v 1
l 1 -1
l -1 -1
h 1
v -7
h -1
v 1
h -1
v -4
h -1
v -2
l 1 -1
h 1
l -1 -1
h -1
l -1 -1
v -1
h -1
v 1
h -1
v 1
h -2
v -1
h 1
v -1
h -1
v -2
h -1
l -1 -1
v -1
h -1
h 1
v -1
l -2 -2
v -6
h -1
l -1 -1
l -1 -1
v -1
l -1 -1
l -1 -1
v -4
h 1
v -1
h 1
h -2
v -2
h 1
l 1 1
v -1
l 1 -1
v 1
v -1
l 1 -1
v -1
h -2
v -1
h -2
v -1
l -1 -2
l -2 -1
v -1
h -1
v -1
l -1 -1
l -1 -1
l -1 -1
l 1 -1
h 1
v -1
h -1
l -1 -1
h -2
l -5 -4
v -4
l -1 -1
v 1
h -1
v -2
l -1 -1
v 3
h -1
v -3
h -2
v 1
h -5
v -1
h -1
l -2 -1
h -2
l -1 -1
l 1 -1
l -1 -1
h -1
v 1
h -1
h 1
v -2
l -1 -1
h -2
l -2 -2
v -1
l -3 -4
h -1
l -1 -1
l -1 -2
h 2
l 2 -1
h -1
v -2
h 1
l 2 -2
h -1
l -1 -1
l -1 -1
h 2
l -2 -6
v -1
l -1 -2
l -1 1
v -1
l -2 -2
v -1
h 1
l 1 -1
l 1 -2
l -1 -1
l -1 -1
h 2
v -1
l 1 -2
v -1
h -2
v -1
h 1
v -3
h -1
v 1
v -1
h -3
v -2
h 3
v -2
h -3
v -1
v 1
h 2
v -1
h -2
l 1 -1
l 1 -1
l -1 -1
l -1 -1
h 1
v -2
h 1
v -1
l 1 -1
h -1
l -1 -1
l 1 -2
l -2 -3
l -2 1
l -1 -2
h -1
l -1 1
l -1 -2
h 1
v -5
h -1
l -2 -2
v 2
l -1 -1
v -2
l 1 -1
v 1
h 1
l -1 -1
v -3
v 2
v -1
h -2
v -3
l 1 -1
h -2
l 1 -1
v -1
l -4 -2
v -3
l -1 -2
l -1 -1
v -1
l 1 -2
l 1 2
v -1
h 1
v -2
l 1 -1
v -1
h -1
h 1
v -1
h -1
l 1 -2
v -1
l -2 -1
h 1
v -1
h 1
h -1
v -1
h -1
v -1
h -1
v 2
h -1
v -1
l 1 -1
l -1 -2
v -1
h -2
v -1
l -1 -1
h -1
v -1
l -1 1
h -1
v -2
l -1 -1
l -1 1
h -2
l -1 -1
h 1
v -2
l -1 -1
h -1
v 2
v -2
v 1
h -1
v -1
h 1
h -1
v -1
l -2 -2
h -3
v -4
v 1
l -1 1
l -1 1
v -2
l 1 -1
h -1
v -1
l 14 -15
l 35 12
h 18
l 6 -2
Z
M655 621
l 9 1
l 3 -3
l 7 4
l -4 4
l -9 6
l -4 -1
l -6 6
l -2 10
l -4 2
l -7 -7
v -7
l 5 -3
l -2 -4
h 5
Z
M549 673
v -1
h -6
l -12 5
l -2 5
h 7
v 8
l -5 4
l -3 -8
l -2 -9
l 4 -2
l 2 -10
l 11 -2
l 9 5
l -2 5
Z
M507 773
l 4 -1
l -2 6
l -5 -1
Z
M504 772
l -1 6
l 6 4
h -5
l -8 -9
Z"/>
<path data-race-id="SC07" d="M574 117
h 76
l 6 1
h 43
l 2 1
h 2
l 26 -1
h 19
l 18 18
l 11 10
l 5 5
l 9 8
l 2 3
l 13 13
l 2 1
l 2 2
l 1 1
l 1 1
l 1 1
h 1
v 1
l 7 8
l 11 11
l 2 1
l 2 3
l 3 3
l 4 4
l 18 18
l 4 3
l 1 2
h 1
l 2 2
l 3 3
l 3 3
h 1
l 11 12
l 22 21
l 28 29
l 12 10
l 2 3
l 4 2
v 1
l 9 9
l 2 3
h 1
l 2 2
v 9
l -23 9
l -15 10
l -12 9
l -12 13
l -21 26
l -4 9
l -11 11
l -13 28
v 6
l -4 4
l 1 7
l -3 9
v 15
l -4 -13
l -1 -11
l -11 2
l -3 -4
l 5 -12
l 8 -14
l -9 11
l -1 -3
l -7 14
v 8
l 8 10
l 8 2
l 2 8
l 5 3
l -2 7
l -8 6
l -2 -6
l -5 -4
l -6 4
l 5 2
l 5 6
l -3 4
l -1 -5
l -10 -1
l -17 -8
l -9 -8
l -1 -3
l -17 -4
l -5 -6
l -9 -1
l -7 -5
l -8 -1
v -9
l 9 -9
l 7 -11
l 1 -5
l 10 -13
l 10 -6
l 1 -4
l 10 -9
v -11
l 2 -5
l 2 -11
l 11 -13
l 3 -7
l 4 -3
l -1 -4
l -12 -5
v 3
l -10 6
l -14 2
l -23 -6
l -3 -3
l 10 -5
l 1 -5
l 6 -1
v -7
l -11 2
l -5 -6
l -9 -5
l -2 -4
l -6 1
l 3 6
l -6 6
l -6 -1
l -8 -6
l -9 -2
l -7 -8
l 3 -4
l -6 -2
l -2 -3
l -11 -4
l -8 -6
l -5 -7
l -10 -3
l -9 -9
l -8 -9
l 10 -8
v -8
l -13 -21
l -1 -12
l -5 7
l -8 3
l -1 -4
l -8 -5
v -2
l 1 -1
l -1 -1
v -1
h 1
l -1 -3
l -2 -2
l -4 -5
l -1 -12
l -2 -8
l -5 -5
l -3 -4
l -2 -11
l -4 -5
l -6 -6
l 1 -5
l -8 -5
l -4 -6
l -5 -14
l -9 -9
Z"/>
</g>
  <path class="districts-mesh" d="M702 584
l 2 -9
l 16 -9
l 4 3
M606 646
l -3 -5
l 4 -1
l 3 -5
l 14 4
l 1 -2
M655 620
l 1 -9
l 5 1
l 3 -9
l -5 -8
h -5
l -24 -7
l 7 -14
h -7
v -4
l 6 -8
l -8 -12
v -11
l 7 -9
l 4 -1
l -7 -6
l 22 -26
l 2 7
l 5 -7
v -2
h -1
l -3 -12
l 23 -5
l 10 -11
l 9 1
l 1 -5
l 4 6
l 2 4
l 5 -4
l 9 12
v 8
l -4 1
l 3 8
l -5 3
l -12 1
l -6 3
l -2 1
l -5 8
l 8 9
l 1 7
l -5 5
l -5 11
v 18
l 3 10
l -5 1
l -2 -5
l -2 -3
l -11 -6
l -3 3
l 4 5
l -3 10
l 8 4
l 3 5
M649 648
l 2 -10
l 6 -6
l 4 1
l 9 -6
l 4 -4
l -7 -4
l -3 3
l -9 -1
M729 566
l 6 -1
v -9
l 8 -10
l 1 -4
l 13 -15
l 3 -7
l 4 -3
l 15 -4
l 6 1
v -3
l 9 -11
l 5 -2
l 9 8
M286 424
l 23 -23
l 49 -45
l 16 -14
l 11 -28
l 4 -6
l 5 -14
l 8 -2
l 8 3
l -5 -10
l -4 -4
l 7 -11
h 4
l 9 -5
l -2 -2
l 6 -8
l 5 1
l 7 8
l 6 -1
l 9 8
l 2 -5
l -3 -6
l 19 1
l 5 -3
l 32 -8
l 15 -2
l -8 21
l 13 10
l 16 16
l 5 -2
l -1 3
v 15
l -25 2
l -22 5
l -5 6
l -5 -3
v -5
h -5
l 5 -11
l -1 -1
l 7 -6
l 2 2
l 7 -3
l 1 -9
l -5 2
l 4 -7
l -4 -5
l 1 -6
l -6 -3
l -3 4
l -6 1
v 4
l -8 -2
l -7 1
l -1 4
h -10
l 6 10
l -5 3
l -2 2
l 9 13
l 6 2
l 10 19
l 1 11
l -6 2
v 10
l -4 20
l 5 1
v -5
l 6 -4
h 9
l 6 5
l -5 5
l -13 4
l -5 4
l 11 15
l -2 9
h -1
l -3 3
l 3 4
h -6
l -5 1
v 5
l -4 4
l 3 3
h 16
l 5 5
l -2 5
l 9 6
l 12 4
v 3
l 1 3
l -1 1
l -5 8
l 2 13
l -1 8
l -1 5
l -6 -4
l -2 -2
l -4 -4
l -1 1
l -1 -1
l -1 -1
l -3 -2
l -2 -1
l -2 -1
l -1 -1
l -2 -1
l -6 -2
l -2 -2
l -5 -4
l -2 -1
l -5 -2
l -1 -1
h -2
l -4 -3
l -2 -1
l -1 -1
h -4
l -1 -1
l -4 -6
l -3 -1
l 2 7
l -1 17
v 34
l -1 11
l 6 9
h -11
l -6 2
h -18
l -35 -12
l -14 15
M520 695
l 2 -2
M521 692
l -3 -4
l 4 -6
M142 54
l 2 5
l 15 -4
l 7 1
l 6 -3
l 4 3
l 1 10
l -2 2
l 11 -1
v 6
l 4 12
l -1 4
l 6 6
l 1 19
l 5 10
l 3 -3
l 10 2
v 8
l -6 5
l 11 3
l 12 -3
l 1 7
l 11 -1
l 4 -2
l 3 -15
l 4 -5
h 4
l 4 3
l 8 8
l 5 2
l 2 10
l 13 10
l 10 3
l 5 8
l 7 5
h 7
l 20 8
l 19 4
l 3 4
l -9 14
l -10 10
l 9 6
l 2 6
l 14 12
l -1 3
l -3 1
l -7 6
l 3 3
l 2 3
l 7 1
l 1 -2
l 4 4
l 3 5
l -4 5
l 1 5
l 9 2
l 1 8
l -8 11
l 12 6
h 7
M498 760
l -1 -10
l -9 -5
l -3 -5
l 1 -9
l 4 -3
l -3 -10
l 14 2
l 3 -13
l 8 1
l 4 -7
M283 26
l 4 7
l -2 3
l 8 8
l 4 10
l 7 5
v 5
l 12 2
l 5 -1
l 1 -5
l 8 -1
l 3 5
l 7 25
l 4 -1
l 4 6
l -14 17
l -8 38
l -4 8
l -3 12
M531 694
l 5 -4
v -8
h -7
l 2 -5
l 12 -5
h 6
v 1
M587 669
l 6 -3
M596 667
l 4 -3
M574 117
v 3
l 9 9
l 5 14
l 4 6
l 8 5
l -1 5
l 6 6
l 4 5
l 2 11
l 3 4
l 5 5
l 2 8
l 1 12
l 4 5
l 2 2
l 1 3
h -1
v 1
l 1 1
l -1 1
v 2
l 8 5
l 1 4
l 8 -3
l 5 -7
l 1 12
l 13 21
v 8
l -10 8
l 8 9
l 9 9
l 10 3
l 5 7
l -5 9
h -9
l -12 9
l -10 5
l -1 -13
l -8 3
l 2 3
l -4 11
l 6 2
l -1 6
l -8 -1
l -4 4
l -5 -4
v -5
l -5 -4
l -7 1
l 1 9
h 3
l 1 7
l 4 1
l 4 10
l 6 7
l -1 2
l -26 5
l 1 13
l -7 1
l 1 -5
l -5 -2
v 5
l -6 1
l -3 9
l -7 8
l -11 -9
l -2 -5
l -4 -2
v -8
l 4 -10
l -2 -6
l -5 -25
l 2 -12
l -4 -9
l 7 -6
l -1 -8
l -5 -7
l 4 -3
l -16 5
M686 301
l 8 6
l 11 4
l 2 3
l 6 2
l -3 4
l 7 8
l 9 2
l 8 6
l 6 1
l 6 -6
l -3 -6
l 6 -1
l 2 4
l 9 5
l 5 6
l 11 -2
v 7
l -6 1
l -1 5
l -10 5
l 3 3
l 23 6
l 14 -2
l 10 -6
v -3
l 12 5
l 1 4
l -4 3
l -3 7
l -11 13
l -2 11
l -2 5
v 11
l -10 9
l -1 4
l -10 6
l -10 13
l -1 5
l -7 11
l -9 9
v 9
l 8 1
l 7 5
l 9 1
l 5 6
l 17 4
l 1 3"/>
</svg>