<svg version="1.1" xmlns="http://www.w3.org/2000/svg" width="1000" height="803" viewBox="0 0 1000 803"><path data-race-id="SC01" d="M486,731l4,-3l-3,-10l14,2l3,-13l8,1l4,-7h4l9,10l-2,10h-3l-11,-5l8,6l5,1l4,-9l6,11l-7,10l1,8l-11,-2l11,5l-19,14l1,-4l-4,-3l-2,6l-8,1l-1,-10l-9,-5l-3,-5ZM520,695l2,-2l7,5l1,10l-7,-4ZM521,692l-3,-4l4,-6l3,6ZM531,694l5,-4v-8h-7l2,-5l12,-5h6v10l5,1l-3,5l2,13l-4,1l6,6v12l-7,-3l-9,-10l-8,-12ZM587,669l6,-3v1h1l2,1v1l1,1l1,1l-6,1l-4,-3ZM599,671l-1,-1l-1,-1h-1v-2l4,-3h3l1,-1l2,2v6ZM606,672v-1l1,-2v-3l-1,-1v-2h4l7,9l-11,7ZM606,646l-3,-5l4,-1l3,-5l14,4l1,-2l2,8l13,2l10,9l-11,8l-14,11l-5,-3v-3l-9,-7l-5,-2l5,-4l-2,-6l2,-7l-6,3ZM649,648l2,-10l6,-6l4,1l9,-6l4,-4l-7,-4l-3,3l-9,-1v-1l1,-9l5,1l3,-9l-5,-8h-5l-24,-7l7,-14h-7v-4l6,-8l-8,-12v-11l7,-9l4,-1l-7,-6l22,-26l2,7l5,-7v-2h-1l-3,-12l23,-5l10,-11l9,1l1,-5l4,6l2,4l5,-4l9,12v8l-4,1l3,8l-5,3l-12,1l-6,3l-2,1l-5,8l8,9l1,7l-5,5l-5,11v18l3,10l-5,1l-2,-5l-2,-3l-11,-6l-3,3l4,5l-3,10l8,4l3,5l7,5l8,-1l-1,9l9,9l10,1l-3,6l-10,2l2,2l-5,12l-10,5l1,-8l-4,7h-5l-8,6h-8l5,3l11,-8h5l7,4l-4,3l-5,-1l-22,7l-7,6ZM703,591v-2h1l-1,-1h1h-1v-3h-1v-1l2,-9l16,-9l4,3l-1,-1l-3,4l-3,9l-4,-1l-5,5l1,6ZM723,569v1l6,-4l6,-1v-9l8,-10l1,-4l13,-15l3,-7l4,-3l15,-4l6,1v-3l9,-11l5,-2l9,8v1l10,6l5,1h2l8,3l1,3l-20,14l-2,4l-9,-5l1,13l-11,2l-11,-7l-10,8l-7,11v5l-5,1l-16,19l-3,-3l-3,5l-2,-1l-5,11l8,-2l-21,12l-4,-5h-7v-7l5,-5l-2,-5l11,-4l1,-11l1,-1ZM811,538l5,3l-8,2l-2,-5ZM759,572l16,-6l-1,6l-9,3l-5,5l-5,-8ZM756,576l3,4l-8,6l-4,-2l3,-5ZM748,590l-6,1l3,-7ZM728,604h-1l15,-12l3,4ZM715,616l-3,8l-6,-5ZM603,695l-1,8l-5,8l-6,-6l2,-5l9,-8ZM593,709l5,5l-6,2l-17,10l-2,-4l4,-8h7l4,-5ZM558,672h9l5,3l5,-1l2,6l-4,2l18,3l4,8l-1,4l-8,2l-11,6l3,7l-9,12l-7,6l-5,-1l1,-8l-1,-18l-5,1v-12l3,-6l-7,-4v-9ZM588,675l5,4l-3,3l-10,-2v-8ZM543,727l10,8l1,5l-6,6l-6,10l-17,10l-3,-2l7,-9l3,-14l-1,-3l7,-1ZM541,717l-4,1l-7,-8l2,-2ZM539,727l-3,9l-5,1l6,-12ZM521,760l-7,11l-6,-2l1,-9l12,-4ZM511,755l-3,9l-6,-1Z"/><path data-race-id="SC02" d="M286,424l23,-23l49,-45l16,-14l11,-28l4,-6l5,-14l8,-2l8,3l-5,-10l-4,-4l7,-11h4l9,-5l-2,-2l6,-8l5,1l7,8l6,-1l9,8l2,-5l-3,-6l19,1l5,-3l32,-8l15,-2l-8,21l13,10l16,16l5,-2l-1,3v15l-25,2l-22,5l-5,6l-5,-3v-5h-5l5,-11l-1,-1l7,-6l2,2l7,-3l1,-9l-5,2l4,-7l-4,-5l1,-6l-6,-3l-3,4l-6,1v4l-8,-2l-7,1l-1,4h-10l6,10l-5,3l-2,2l9,13l6,2l10,19l1,11l-6,2v10l-4,20l5,1v-5l6,-4h9l6,5l-5,5l-13,4l-5,4l11,15l-2,9h-1l-3,3l3,4h-6l-5,1v5l-4,4l3,3h16l5,5l-2,5l9,6l12,4v3l1,3l-1,1l-5,8l2,13l-1,8l-1,5l-6,-4l-2,-2l-4,-4l-1,1l-1,-1l-1,-1l-3,-2l-2,-1l-2,-1l-1,-1l-2,-1l-6,-2l-2,-2l-5,-4l-2,-1l-5,-2l-1,-1h-2l-4,-3l-2,-1l-1,-1h-4l-1,-1l-4,-6l-3,-1l2,7l-1,17v34l-1,11l6,9h-11l-6,2h-18l-35,-12l-14,15h-2l-3,1h-1v-1h-2v-1h-1v-1h-2v-1h-1v-1h-1l-1,-1h-4l-2,-1v-1h-1l-1,-1v-1h-1l-5,-4h-1v-1l-1,-1v-3h-1v-3v1h1v-1h-1v-1l1,-1v-2h1l-1,-1l-1,-3v-1h-1v-1h-1v3h-5l-1,-1l-1,-2l-1,-1h-2l-3,-3h-1v-1h-1v-1l-1,-1h3v-1h-1v-2h1l1,1h1v-1h1h-2v-1l1,-1v-1h-3v-2h-3v-4l2,1v-1l1,-1l-2,-1v1h-1v1l-1,-3l-1,1v1h-1l-1,-1v-1l1,-1h-3h1l-2,-2v-1h-1v1h-1l1,1h-1v1h-1v-1h1v-1l-2,-2v-1l1,-1h1v-1h-1v1h-6v-1l2,-2h-1v-4h1v1l1,-1h1v-1h-1l-1,-1v-2l-1,-2l-2,-3h8v-1h-1l-1,-1h-1l-2,-2l1,-1h1l2,-1v-1l-2,-4l-2,-2l-4,-3h-1l-2,-1l-4,-4v-2l-2,-3l-2,-2Z"/><path data-race-id="SC03" d="M25,139h1l-1,-1v-7l2,-1h1l1,-1v-2h1v-1h2l-1,-1l1,-1h-1v-1h1l-1,-2v-3l1,-1l1,-1l2,-1h1v-1l-1,-2v-1l1,1l1,1l1,-2v-1h1l1,1l1,1l1,-1v-6l1,-1h1v1h2l-1,-1v-1h1v-3l1,1h1l1,-2l-2,-1h2l1,-1v1h2v-2l1,-1v2h2l1,-1l-1,-1v-1h1l1,-1v-1l1,1l1,-1l3,-2v-2h2v-3h1v1h1l1,1l2,-1v-1h1h-1v-1h1l2,1h1v-1l-2,-3h-1v-1l1,-1l1,1v-4l1,-1h1v-2l2,-1v-1l-1,-1h1l-1,-2l9,-3l8,-2l24,-7l23,-7l1,1v3l-1,1v1h2v-1h1l2,5l15,-4l7,1l6,-3l4,3l1,10l-2,2l11,-1v6l4,12l-1,4l6,6l1,19l5,10l3,-3l10,2v8l-6,5l11,3l12,-3l1,7l11,-1l4,-2l3,-15l4,-5h4l4,3l8,8l5,2l2,10l13,10l10,3l5,8l7,5h7l20,8l19,4l3,4l-9,14l-10,10l9,6l2,6l14,12l-1,3l-3,1l-7,6l3,3l2,3l7,1l1,-2l4,4l3,5l-4,5l1,5l9,2l1,8l-8,11l12,6h7l-5,14l-4,6l-11,28l-16,14l-49,45l-23,23l-2,-1l-2,-3l-1,-2h-1v-1l-9,-6h-2l-4,-3l-4,1l-3,-2l-1,-3h-1l-7,-6l-1,-2v-1h1v-3l-2,-2l-2,-4l-4,-4v-6l-2,-7l-4,-4l-3,-2l-3,-4v-1l-1,-1l-2,-1l-4,-3l-4,-4h-2l-1,-2h-1l-1,-1h-1l-1,-1l-1,-1l-3,-1h-3l-11,-10l-5,-7l-5,-2l-6,-4l-1,-3l-2,-3l-1,-3l-2,-4v-2l1,-1l-3,-3l-3,-4v-1l-1,-1l-3,-1l-1,-2l-2,-8l-1,-1v-1l-1,-1l-10,-8l-4,-14h-1v-12l-1,-3v-1h-1l-1,-1l-3,-5l-1,-2l-1,-2v-2l-2,-4h-1l-1,-1v-1l-2,-2l-7,-16v-8l-9,-7l-1,1h-16v1h-1l-1,1l-2,-1l-6,-2l-2,-2l-1,-2l-4,-5v-1l-5,-2v-1l-3,-3l-1,-1l-2,-1l-2,-1l-2,-6l-1,-3l-5,-1l-3,-1h-4l-4,-3l-5,-5l-1,-1h-1v-1l-2,-1h-1l-1,-2v-1l-1,-1h-2l-1,-1v-1h-1l-1,-1h-2v-2l-1,-1l-1,-1v-1Z"/><path data-race-id="SC04" d="M142,54h1l1,-1v-2h2v1h1v-1l1,-1l1,-1v-1h3l1,-1l2,-1v1h1v-1h1l1,-1v-1h-1v-1h-1l1,-1h1v-2h1l1,-1v4v-1h3l1,-1v-1h2v-1h1v1h2v-1h1v-1h2l1,-1h1l1,1l1,-1h1v-1h3l1,-1l1,-1l1,1v-1l1,-2h1l2,1v1l1,-1h3v-1h2l1,-1v1h2h-1l1,-1v-1h2l1,-1v1h1v-1h3v1l-1,1l1,1l1,-1v1l1,-1h2v-1h1l1,-2l-1,-1l1,-1v-1l1,-1v-1h3l1,-1h1l-1,-1h1v-1h2l1,1l-1,1l1,1v2l-1,1h1v1l1,1l1,-1h1v-1l1,-1v1h1l1,-1h1v1h2l1,1h1v-1h1l2,-1h2l4,-2l5,1h5l1,1h1l29,1h4l4,7l-2,3l8,8l4,10l7,5v5l12,2l5,-1l1,-5l8,-1l3,5l7,25l4,-1l4,6l-14,17l-8,38l-4,8l-3,12h-7l-7,-5l-5,-8l-10,-3l-13,-10l-2,-10l-5,-2l-8,-8l-4,-3h-4l-4,5l-3,15l-4,2l-11,1l-1,-7l-12,3l-11,-3l6,-5v-8l-10,-2l-3,3l-5,-10l-1,-19l-6,-6l1,-4l-4,-12v-6l-11,1l2,-2l-1,-10l-4,-3l-6,3l-7,-1l-15,4l-2,-5Z"/><path data-race-id="SC05" d="M298,27l18,1l7,1l14,1l32,1h6l7,1h6l11,1h17l6,1h2l25,2l32,1l-3,1v2l1,3v6l-3,5l1,5l1,1l1,2h2l9,-6l2,-2l5,-4l4,-3v2l3,3l3,3l10,15l2,3l1,1l5,6l2,3l3,6l-2,24v4h46v3l9,9l5,14l4,6l8,5l-1,5l6,6l4,5l2,11l3,4l5,5l2,8l1,12l4,5l2,2l1,3h-1v1l1,1l-1,1v2l8,5l1,4l8,-3l5,-7l1,12l13,21v8l-10,8l8,9l9,9l10,3l5,7l-5,9h-9l-12,9l-10,5l-1,-13l-8,3l2,3l-4,11l6,2l-1,6l-8,-1l-4,4l-5,-4v-5l-5,-4l-7,1l1,9h3l1,7l4,1l4,10l6,7l-1,2l-26,5l1,13l-7,1l1,-5l-5,-2v5l-6,1l-3,9l-7,8l-11,-9l-2,-5l-4,-2v-8l4,-10l-2,-6l-5,-25l2,-12l-4,-9l7,-6l-1,-8l-5,-7l4,-3l-16,5l-5,2l-16,-16l-13,-10l8,-21l-15,2l-32,8l-5,3l-19,-1l3,6l-2,5l-9,-8l-6,1l-7,-8l-5,-1l-6,8l2,2l-9,5h-4l-7,11l4,4l5,10l-8,-3l-8,2h-7l-12,-6l8,-11l-1,-8l-9,-2l-1,-5l4,-5l-3,-5l-4,-4l-1,2l-7,-1l-2,-3l-3,-3l7,-6l3,-1l1,-3l-14,-12l-2,-6l-9,-6l10,-10l9,-14l-3,-4l-19,-4l-20,-8l3,-12l4,-8l8,-38l14,-17l-4,-6l-4,1l-7,-25l-3,-5l-8,1l-1,5l-5,1l-12,-2v-5l-7,-5l-4,-10l-8,-8l2,-3l-4,-7l13,1Z"/><path data-race-id="SC06" d="M449,524l-6,-9l1,-11v-34l1,-17l-2,-7l3,1l4,6l1,1h4l1,1l2,1l4,3h2l1,1l5,2l2,1l5,4l2,2l6,2l2,1l1,1l2,1l2,1l3,2l1,1l1,1l1,-1l4,4l2,2l6,4l1,-5l1,-8l-2,-13l5,-8l1,-1l-1,-3v-3l-12,-4l-9,-6l2,-5l-5,-5h-16l-3,-3l4,-4v-5l5,-1h6l-3,-4l3,-3h1l2,-9l-11,-15l5,-4l13,-4l5,-5l-6,-5h-9l-6,4v5l-5,-1l4,-20v-10l6,-2l-1,-11l-10,-19l-6,-2l-9,-13l2,-2l5,-3l-6,-10h10l1,-4l7,-1l8,2v-4l6,-1l3,-4l6,3l-1,6l4,5l-4,7l5,-2l-1,9l-7,3l-2,-2l-7,6l1,1l-5,11h5v5l5,3l5,-6l22,-5l25,-2v-15l1,-3l16,-5l-4,3l5,7l1,8l-7,6l4,9l-2,12l5,25l2,6l-4,10v8l4,2l2,5l11,9l7,-8l3,-9l6,-1v-5l5,2l-1,5l7,-1l-1,-13l26,-5l1,-2l-6,-7l-4,-10l-4,-1l-1,-7h-3l-1,-9l7,-1l5,4v5l5,4l4,-4l8,1l1,-6l-6,-2l4,-11l-2,-3l8,-3l1,13l10,-5l12,-9h9l5,-9l8,6l11,4l2,3l6,2l-3,4l7,8l9,2l8,6l6,1l6,-6l-3,-6l6,-1l2,4l9,5l5,6l11,-2v7l-6,1l-1,5l-10,5l3,3l23,6l14,-2l10,-6v-3l12,5l1,4l-4,3l-3,7l-11,13l-2,11l-2,5v11l-10,9l-1,4l-10,6l-10,13l-1,5l-7,11l-9,9v9l8,1l7,5l9,1l5,6l17,4l1,3l-5,2l-9,11v3l-6,-1l-15,4l-4,3l-3,7l-13,15l-1,4l-8,10v9l-6,1l-5,3l-4,-3l-16,9l-2,9l-4,1l-1,-8l6,-5l-1,-4l-3,4l-4,10l7,5l1,13v1l-5,3l-3,-3l1,-10l-4,-3l-7,3l-5,-3l-3,-5l-8,-4l3,-10l-4,-5l3,-3l11,6l2,3l2,5l5,-1l-3,-10v-18l5,-11l5,-5l-1,-7l-8,-9l5,-8l2,-1l6,-3l12,-1l5,-3l-3,-8l4,-1v-8l-9,-12l-5,4l-2,-4l-4,-6l-1,5l-9,-1l-10,11l-23,5l3,12h1v2l-5,7l-2,-7l-22,26l7,6l-4,1l-7,9v11l8,12l-6,8v4h7l-7,14l24,7h5l5,8l-3,9l-5,-1l-1,9l-7,-1l-4,8h-5l1,6h-5l-4,8l-6,-4l-1,2l-14,-4l-3,5l-4,1l3,5l1,-1h4l-2,1l-1,3v1l1,2v1h1v2h-1l-3,1l-1,2v1l1,3v1l-7,1h1l-4,3l-4,-1h1l-6,3l-5,-4l-3,-9h-6h4l3,9l4,4h-8l-3,-9l-5,1l6,5l2,5l-5,1l-4,-4l-10,1l-4,-3l-15,-4l-7,2l-1,8l-5,1l-6,-9l2,-10l-1,13l3,8l-2,7h1l-4,6l3,4l1,1l-2,2l-4,6l-4,7l-8,-1l-3,13l-14,-2l3,10l-4,3l-1,9l3,5l9,5l1,10l11,6l-4,6l-7,1l-8,-1l-2,-5l-8,4l-9,-3l-1,-1l-6,-5v-2l1,-5h-2v-2h-1v-1l-1,-1h1v-1h3v-1l-1,-3h-1l1,-1h1v-1h-1l-2,-1v-1l-2,-2l-1,-1v-1h-2l1,-1v-1h-1v-1l-1,-1v-2h2v-1l-1,-1l1,-1v-1h1l1,-1h-1l1,-1h1v-1h1v1l1,-1l-1,-1h1v-7h-1v1h-1v-4h-1v-2l1,-1h1l-1,-1h-1l-1,-1v-1h-1v1h-1v1h-2v-1h1v-1h-1v-2h-1l-1,-1v-1h-1h1v-1l-2,-2v-6h-1l-1,-1l-1,-1v-1l-1,-1l-1,-1v-4h1v-1h1h-2v-2h1l1,1v-1l1,-1v1v-1l1,-1v-1h-2v-1h-2v-1l-1,-2l-2,-1v-1h-1v-1l-1,-1l-1,-1l-1,-1l1,-1h1v-1h-1l-1,-1h-2l-5,-4v-4l-1,-1v1h-1v-2l-1,-1v3h-1v-3h-2v1h-5v-1h-1l-2,-1h-2l-1,-1l1,-1l-1,-1h-1v1h-1h1v-2l-1,-1h-2l-2,-2v-1l-3,-4h-1l-1,-1l-1,-2h2l2,-1h-1v-2h1l2,-2h-1l-1,-1l-1,-1h2l-2,-6v-1l-1,-2l-1,1v-1l-2,-2v-1h1l1,-1l1,-2l-1,-1l-1,-1h2v-1l1,-2v-1h-2v-1h1v-3h-1v1v-1h-3v-2h3v-2h-3v-1v1h2v-1h-2l1,-1l1,-1l-1,-1l-1,-1h1v-2h1v-1l1,-1h-1l-1,-1l1,-2l-2,-3l-2,1l-1,-2h-1l-1,1l-1,-2h1v-5h-1l-2,-2v2l-1,-1v-2l1,-1v1h1l-1,-1v-3v2v-1h-2v-3l1,-1h-2l1,-1v-1l-4,-2v-3l-1,-2l-1,-1v-1l1,-2l1,2v-1h1v-2l1,-1v-1h-1h1v-1h-1l1,-2v-1l-2,-1h1v-1h1h-1v-1h-1v-1h-1v2h-1v-1l1,-1l-1,-2v-1h-2v-1l-1,-1h-1v-1l-1,1h-1v-2l-1,-1l-1,1h-2l-1,-1h1v-2l-1,-1h-1v2v-2v1h-1v-1h1h-1v-1l-2,-2h-3v-4v1l-1,1l-1,1v-2l1,-1h-1v-1l14,-15l35,12h18l6,-2ZM655,621l9,1l3,-3l7,4l-4,4l-9,6l-4,-1l-6,6l-2,10l-4,2l-7,-7v-7l5,-3l-2,-4h5ZM549,673v-1h-6l-12,5l-2,5h7v8l-5,4l-3,-8l-2,-9l4,-2l2,-10l11,-2l9,5l-2,5ZM507,773l4,-1l-2,6l-5,-1ZM504,772l-1,6l6,4h-5l-8,-9Z"/><path data-race-id="SC07" d="M574,117h76l6,1h43l2,1h2l26,-1h19l18,18l11,10l5,5l9,8l2,3l13,13l2,1l2,2l1,1l1,1l1,1h1v1l7,8l11,11l2,1l2,3l3,3l4,4l18,18l4,3l1,2h1l2,2l3,3l3,3h1l11,12l22,21l28,29l12,10l2,3l4,2v1l9,9l2,3h1l2,2v9l-23,9l-15,10l-12,9l-12,13l-21,26l-4,9l-11,11l-13,28v6l-4,4l1,7l-3,9v15l-4,-13l-1,-11l-11,2l-3,-4l5,-12l8,-14l-9,11l-1,-3l-7,14v8l8,10l8,2l2,8l5,3l-2,7l-8,6l-2,-6l-5,-4l-6,4l5,2l5,6l-3,4l-1,-5l-10,-1l-17,-8l-9,-8l-1,-3l-17,-4l-5,-6l-9,-1l-7,-5l-8,-1v-9l9,-9l7,-11l1,-5l10,-13l10,-6l1,-4l10,-9v-11l2,-5l2,-11l11,-13l3,-7l4,-3l-1,-4l-12,-5v3l-10,6l-14,2l-23,-6l-3,-3l10,-5l1,-5l6,-1v-7l-11,2l-5,-6l-9,-5l-2,-4l-6,1l3,6l-6,6l-6,-1l-8,-6l-9,-2l-7,-8l3,-4l-6,-2l-2,-3l-11,-4l-8,-6l-5,-7l-10,-3l-9,-9l-8,-9l10,-8v-8l-13,-21l-1,-12l-5,7l-8,3l-1,-4l-8,-5v-2l1,-1l-1,-1v-1h1l-1,-3l-2,-2l-4,-5l-1,-12l-2,-8l-5,-5l-3,-4l-2,-11l-4,-5l-6,-6l1,-5l-8,-5l-4,-6l-5,-14l-9,-9Z"/>  <path class="mesh" d="M702,584l2,-9l16,-9l4,3M606,646l-3,-5l4,-1l3,-5l14,4l1,-2M655,620l1,-9l5,1l3,-9l-5,-8h-5l-24,-7l7,-14h-7v-4l6,-8l-8,-12v-11l7,-9l4,-1l-7,-6l22,-26l2,7l5,-7v-2h-1l-3,-12l23,-5l10,-11l9,1l1,-5l4,6l2,4l5,-4l9,12v8l-4,1l3,8l-5,3l-12,1l-6,3l-2,1l-5,8l8,9l1,7l-5,5l-5,11v18l3,10l-5,1l-2,-5l-2,-3l-11,-6l-3,3l4,5l-3,10l8,4l3,5M649,648l2,-10l6,-6l4,1l9,-6l4,-4l-7,-4l-3,3l-9,-1M729,566l6,-1v-9l8,-10l1,-4l13,-15l3,-7l4,-3l15,-4l6,1v-3l9,-11l5,-2l9,8M286,424l23,-23l49,-45l16,-14l11,-28l4,-6l5,-14l8,-2l8,3l-5,-10l-4,-4l7,-11h4l9,-5l-2,-2l6,-8l5,1l7,8l6,-1l9,8l2,-5l-3,-6l19,1l5,-3l32,-8l15,-2l-8,21l13,10l16,16l5,-2l-1,3v15l-25,2l-22,5l-5,6l-5,-3v-5h-5l5,-11l-1,-1l7,-6l2,2l7,-3l1,-9l-5,2l4,-7l-4,-5l1,-6l-6,-3l-3,4l-6,1v4l-8,-2l-7,1l-1,4h-10l6,10l-5,3l-2,2l9,13l6,2l10,19l1,11l-6,2v10l-4,20l5,1v-5l6,-4h9l6,5l-5,5l-13,4l-5,4l11,15l-2,9h-1l-3,3l3,4h-6l-5,1v5l-4,4l3,3h16l5,5l-2,5l9,6l12,4v3l1,3l-1,1l-5,8l2,13l-1,8l-1,5l-6,-4l-2,-2l-4,-4l-1,1l-1,-1l-1,-1l-3,-2l-2,-1l-2,-1l-1,-1l-2,-1l-6,-2l-2,-2l-5,-4l-2,-1l-5,-2l-1,-1h-2l-4,-3l-2,-1l-1,-1h-4l-1,-1l-4,-6l-3,-1l2,7l-1,17v34l-1,11l6,9h-11l-6,2h-18l-35,-12l-14,15M520,695l2,-2M521,692l-3,-4l4,-6M142,54l2,5l15,-4l7,1l6,-3l4,3l1,10l-2,2l11,-1v6l4,12l-1,4l6,6l1,19l5,10l3,-3l10,2v8l-6,5l11,3l12,-3l1,7l11,-1l4,-2l3,-15l4,-5h4l4,3l8,8l5,2l2,10l13,10l10,3l5,8l7,5h7l20,8l19,4l3,4l-9,14l-10,10l9,6l2,6l14,12l-1,3l-3,1l-7,6l3,3l2,3l7,1l1,-2l4,4l3,5l-4,5l1,5l9,2l1,8l-8,11l12,6h7M498,760l-1,-10l-9,-5l-3,-5l1,-9l4,-3l-3,-10l14,2l3,-13l8,1l4,-7M283,26l4,7l-2,3l8,8l4,10l7,5v5l12,2l5,-1l1,-5l8,-1l3,5l7,25l4,-1l4,6l-14,17l-8,38l-4,8l-3,12M531,694l5,-4v-8h-7l2,-5l12,-5h6v1M587,669l6,-3M596,667l4,-3M574,117v3l9,9l5,14l4,6l8,5l-1,5l6,6l4,5l2,11l3,4l5,5l2,8l1,12l4,5l2,2l1,3h-1v1l1,1l-1,1v2l8,5l1,4l8,-3l5,-7l1,12l13,21v8l-10,8l8,9l9,9l10,3l5,7l-5,9h-9l-12,9l-10,5l-1,-13l-8,3l2,3l-4,11l6,2l-1,6l-8,-1l-4,4l-5,-4v-5l-5,-4l-7,1l1,9h3l1,7l4,1l4,10l6,7l-1,2l-26,5l1,13l-7,1l1,-5l-5,-2v5l-6,1l-3,9l-7,8l-11,-9l-2,-5l-4,-2v-8l4,-10l-2,-6l-5,-25l2,-12l-4,-9l7,-6l-1,-8l-5,-7l4,-3l-16,5M686,301l8,6l11,4l2,3l6,2l-3,4l7,8l9,2l8,6l6,1l6,-6l-3,-6l6,-1l2,4l9,5l5,6l11,-2v7l-6,1l-1,5l-10,5l3,3l23,6l14,-2l10,-6v-3l12,5l1,4l-4,3l-3,7l-11,13l-2,11l-2,5v11l-10,9l-1,4l-10,6l-10,13l-1,5l-7,11l-9,9v9l8,1l7,5l9,1l5,6l17,4l1,3"/></svg>