<svg version="1.1" xmlns="http://www.w3.org/2000/svg" width="1000" height="621" viewBox="0 0 1000 621">
  <path d="M258 23
h 16
l 2 1
v -1
l 4 1
h 49
l 6 1
h 81
v 1
h 76
l 22 1
h 47
l 25 -1
h 17
l 41 -1
h 67
l 46 -1
h 19
l 41 -1
l 7 -1
l 13 -1
h 30
l 1 -1
h 17
l 17 -1
l 14 -1
h 18
v 7
l -1 7
v 5
l -1 1
l -1 1
l -1 1
l -1 2
l -2 2
v 2
h -1
v 1
l -1 3
l -6 4
v 1
l -6 6
h -1
l -2 2
l -3 2
l -2 2
h -1
l -2 3
v 2
l -1 2
l 1 3
l 2 2
l 5 5
l 6 9
v 1
h 1
v 4
l 4 6
l 1 1
l 2 2
h 2
l 1 1
v -1
h 5
l 2 1
l 3 2
l 1 1
l 4 1
l 2 1
l 6 6
l 1 2
v 2
h 1
v 1
l 1 1
v 5
l 1 12
l 1 21
v 4
l 1 8
v 34
l 1 12
l 1 13
v 20
h 1
v 17
l 1 7
l 1 22
v 13
l 1 20
l 1 12
v 6
l 1 21
l 1 17
v 5
l 1 21
v 1
l 1 15
h -7
l -11 1
v 1
h 1
l 1 1
v 4
l -1 1
h -1
v 2
l 1 1
l 2 2
h 1
v 1
l 1 2
l 2 1
l 2 1
h 1
v 12
l -1 1
l 1 1
v 2
l -2 2
h -1
l -2 -1
h -1
l -1 1
l 1 1
v 3
h 1
l 2 1
v 3
l -1 3
l 1 1
l 5 1
h 1
l 1 -1
l 1 -1
h 1
l 1 1
l 2 6
v 5
l 1 2
h 1
l 2 2
v 3
l -3 4
h 1
v 2
l -1 2
h -1
l -2 2
l -1 1
h -2
v 1
h -1
v 1
l 1 1
l 1 2
l 1 4
l -2 3
l 1 1
h 1
v 3
h -1
v 2
h -1
v 2
l -1 -1
l -1 2
h -1
l 1 2
v 2
h -1
l 1 1
h 1
v 1
l -1 1
h -1
v 1
h 1
l -1 1
v 3
h 1
h -1
v 1
h -1
v 2
h 1
l -3 1
v -1
h -1
v 5
l -1 -1
v 1
h 1
v 1
h -1
v 2
h -1
v 2
h -1
l -1 1
l -1 3
l 1 1
l -1 2
l -1 1
v 1
l 2 1
v 3
l 2 1
h 1
v 1
h 1
v 1
l 1 1
l 1 1
v 1
h 1
l 2 2
l 4 6
v 2
l 4 7
v 2
h 1
l 2 4
h -1
v 1
l -1 1
v 1
h 2
v 4
l 3 -1
l 1 1
l -2 1
l -4 1
h -1
l -1 -2
l -2 -3
l -4 -2
l -8 2
h -1
l -1 -3
v -2
l -1 -3
h -1
l -2 -1
l -2 -1
l -1 -1
l -3 -3
l 1 -7
l -4 -5
l -4 1
h -1
l -4 -3
v -2
l -1 -1
l -3 -2
l -4 -1
l -2 -1
l -3 -1
l -7 3
l -1 -1
v -5
l -1 -1
h -7
l -2 -1
h -1
v -1
h -3
l -1 1
h -6
l -4 -5
h -1
l -2 -1
h -2
l -2 -5
l -3 -3
h -3
l -1 1
l -1 -1
h -2
v -1
h -1
v -1
h -2
v 1
h -1
l -1 1
l -3 1
l -2 -2
h -2
l -1 -1
h -1
l -1 1
l -2 2
l -2 1
h -5
l -3 -1
l -1 1
l -2 -1
l -5 3
l -3 -3
l -5 1
l -3 2
h -4
l -6 -1
l -3 2
l -8 -5
l -3 1
l -4 8
l -2 3
v 1
l -2 1
l -1 1
l -1 1
l -2 1
h -2
l -1 1
h -2
l -2 1
l -2 -1
h -3
l -1 -1
v -1
l -1 -1
h -1
v -1
l -2 -1
l -1 -1
l -1 -1
h -1
v -1
h -1
l -1 -1
l -1 -1
v -1
l -1 -1
h -5
l -5 -3
l -1 -1
l -2 -1
h -4
l -1 -1
l -2 -1
h -2
l -1 -1
l -5 -3
l -1 -1
l -1 -1
h -1
l -2 -1
h -1
l -1 -1
h -1
l -1 1
l -1 -1
v -1
l -1 -1
l -2 -1
l -1 -3
l -2 -3
v -2
l -32 1
h -37
l -19 1
h -254
l -59 -1
h -17
l -28 -2
h -34
l -11 -1
h -15
l -29 -1
h -5
l -20 -1
h -10
l -53 -2
l -19 -1
l -49 -3
l 1 -50
v -3
l 1 -1
v -15
l 1 -11
l 1 -36
l 2 -28
l 1 -14
v -1
l 1 -34
l 3 -64
v -4
l 1 -5
l 1 -21
v -16
l 1 -21
l 1 -3
v -12
h 2
v -4
l 1 -2
l 1 -30
v -31
l 1 -3
v -22
h 1
v -15
l 2 -41
v -13
l 8 1
h 10
l 14 1
h 14
l 12 1
h 17
l 3 1
h 2
l 18 1
h 27
l 7 1
h 31
l 4 1
h 12
l 9 1
h 21
Z"/>
<g class="districts">
<path data-race-id="SD00" d="M42 172
l 1 -2
l 1 -30
v -31
l 1 -3
v -22
h 1
v -15
l 2 -41
v -13
l 8 1
h 10
l 14 1
h 14
l 12 1
h 17
l 3 1
h 2
l 18 1
h 27
l 7 1
h 31
l 4 1
h 12
l 9 1
h 38
l 2 1
v -1
l 4 1
h 49
l 6 1
h 81
v 1
h 76
l 22 1
h 47
l 25 -1
h 17
l 41 -1
h 67
l 46 -1
h 19
l 41 -1
l 7 -1
l 13 -1
h 30
l 1 -1
h 17
l 17 -1
l 14 -1
h 18
v 7
l -1 7
v 5
l -1 1
l -1 1
l -1 1
l -1 2
l -2 2
v 2
h -1
v 1
l -1 3
l -6 4
v 1
l -6 6
h -1
l -2 2
l -3 2
l -2 2
h -1
l -2 3
v 2
l -1 2
l 1 3
l 2 2
l 5 5
l 6 9
v 1
h 1
v 4
l 4 6
l 1 1
l 2 2
h 2
l 1 1
v -1
h 5
l 2 1
l 3 2
l 1 1
l 4 1
l 2 1
l 6 6
l 1 2
v 2
h 1
v 1
l 1 1
v 5
l 1 12
l 1 21
v 4
l 1 8
v 34
l 1 12
l 1 13
v 20
h 1
v 17
l 1 7
l 1 22
v 13
l 1 20
l 1 12
v 6
l 1 21
l 1 17
v 5
l 1 21
v 1
l 1 15
h -7
l -11 1
v 1
h 1
l 1 1
v 4
l -1 1
h -1
v 2
l 1 1
l 2 2
h 1
v 1
l 1 2
l 2 1
l 2 1
h 1
v 12
l -1 1
l 1 1
v 2
l -2 2
h -1
l -2 -1
h -1
l -1 1
l 1 1
v 3
h 1
l 2 1
v 3
l -1 3
l 1 1
l 5 1
h 1
l 1 -1
l 1 -1
h 1
l 1 1
l 2 6
v 5
l 1 2
h 1
l 2 2
v 3
l -3 4
h 1
v 2
l -1 2
h -1
l -2 2
l -1 1
h -2
v 1
h -1
v 1
l 1 1
l 1 2
l 1 4
l -2 3
l 1 1
h 1
v 3
h -1
v 2
h -1
v 2
l -1 -1
l -1 2
h -1
l 1 2
v 2
h -1
l 1 1
h 1
v 1
l -1 1
h -1
v 1
h 1
l -1 1
v 3
h 1
h -1
v 1
h -1
v 2
h 1
l -3 1
v -1
h -1
v 5
l -1 -1
v 1
h 1
v 1
h -1
v 2
h -1
v 2
h -1
l -1 1
l -1 3
l 1 1
l -1 2
l -1 1
v 1
l 2 1
v 3
l 2 1
h 1
v 1
h 1
v 1
l 1 1
l 1 1
v 1
h 1
l 2 2
l 4 6
v 2
l 4 7
v 2
h 1
l 2 4
h -1
v 1
l -1 1
v 1
h 2
v 4
l 3 -1
l 1 1
l -2 1
l -4 1
h -1
l -1 -2
l -2 -3
l -5 -2
l -7 2
h -1
l -1 -3
v -2
l -1 -3
h -1
l -2 -1
l -2 -1
l -1 -1
l -3 -3
l 1 -7
l 1 -3
l -9 -1
h -1
l -4 -3
v -2
l -1 -1
l -3 -2
l -4 -1
l -2 -1
l -3 -1
l -7 3
l -1 -1
v -5
l -1 -1
h -7
l -2 -1
h -1
v -1
h -3
l -1 1
h -6
l -4 -5
h -1
l -2 -1
h -2
l -2 -5
l -3 -3
h -3
l -1 1
l -1 -1
h -2
v -1
h -1
v -1
h -2
v 1
h -1
l -1 1
l -3 1
l -2 -2
h -2
l -1 -1
h -1
l -1 1
l -2 2
l -2 1
h -5
l -3 -1
l -1 1
l -2 -1
h -8
l -5 1
l -3 2
h -4
l -6 -1
l -11 -3
l -3 1
l -4 8
l -2 3
v 1
l -2 1
l -1 1
l -1 1
l -2 1
h -2
l -1 1
h -2
l -2 1
l -2 -1
h -3
l -1 -1
v -1
l -1 -1
h -1
v -1
l -2 -1
l -1 -1
l -1 -1
h -1
v -1
h -1
l -1 -1
l -1 -1
v -1
l -1 -1
h -5
l -5 -3
l -1 -1
l -2 -1
h -4
l -1 -1
l -2 -1
h -2
l -1 -1
l -5 -3
l -1 -1
l -1 -1
h -1
l -2 -1
h -1
l -1 -1
h -1
l -1 1
l -1 -1
v -1
l -1 -1
l -2 -1
l -1 -3
l -2 -3
v -2
l -32 1
h -37
l -19 1
h -254
l -59 -1
l -45 -2
h -34
l -11 -1
h -15
l -29 -1
h -5
l -20 -1
h -10
l -53 -2
l -19 -1
l -49 -3
l 1 -50
v -3
l 1 -1
v -15
l 1 -11
l 1 -36
l 2 -28
l 1 -14
v -1
l 1 -34
l 3 -64
v -4
l 1 -5
l 1 -21
v -16
l 1 -21
l 1 -3
v -12
h 2
Z"/>
</g>

</svg>