<svg version="1.1" xmlns="http://www.w3.org/2000/svg" width="1000" height="621" viewBox="0 0 1000 621">  <path d="M258,23h16l2,1v-1l4,1h49l6,1h81v1h76l22,1h47l25,-1h17l41,-1h67l46,-1h19l41,-1l7,-1l13,-1h30l1,-1h17l17,-1l14,-1h18v7l-1,7v5l-1,1l-1,1l-1,1l-1,2l-2,2v2h-1v1l-1,3l-6,4v1l-6,6h-1l-2,2l-3,2l-2,2h-1l-2,3v2l-1,2l1,3l2,2l5,5l6,9v1h1v4l4,6l1,1l2,2h2l1,1v-1h5l2,1l3,2l1,1l4,1l2,1l6,6l1,2v2h1v1l1,1v5l1,12l1,21v4l1,8v34l1,12l1,13v20h1v17l1,7l1,22v13l1,20l1,12v6l1,21l1,17v5l1,21v1l1,15h-7l-11,1v1h1l1,1v4l-1,1h-1v2l1,1l2,2h1v1l1,2l2,1l2,1h1v12l-1,1l1,1v2l-2,2h-1l-2,-1h-1l-1,1l1,1v3h1l2,1v3l-1,3l1,1l5,1h1l1,-1l1,-1h1l1,1l2,6v5l1,2h1l2,2v3l-3,4h1v2l-1,2h-1l-2,2l-1,1h-2v1h-1v1l1,1l1,2l1,4l-2,3l1,1h1v3h-1v2h-1v2l-1,-1l-1,2h-1l1,2v2h-1l1,1h1v1l-1,1h-1v1h1l-1,1v3h1h-1v1h-1v2h1l-3,1v-1h-1v5l-1,-1v1h1v1h-1v2h-1v2h-1l-1,1l-1,3l1,1l-1,2l-1,1v1l2,1v3l2,1h1v1h1v1l1,1l1,1v1h1l2,2l4,6v2l4,7v2h1l2,4h-1v1l-1,1v1h2v4l3,-1l1,1l-2,1l-4,1h-1l-1,-2l-2,-3l-4,-2l-8,2h-1l-1,-3v-2l-1,-3h-1l-2,-1l-2,-1l-1,-1l-3,-3l1,-7l-4,-5l-4,1h-1l-4,-3v-2l-1,-1l-3,-2l-4,-1l-2,-1l-3,-1l-7,3l-1,-1v-5l-1,-1h-7l-2,-1h-1v-1h-3l-1,1h-6l-4,-5h-1l-2,-1h-2l-2,-5l-3,-3h-3l-1,1l-1,-1h-2v-1h-1v-1h-2v1h-1l-1,1l-3,1l-2,-2h-2l-1,-1h-1l-1,1l-2,2l-2,1h-5l-3,-1l-1,1l-2,-1l-5,3l-3,-3l-5,1l-3,2h-4l-6,-1l-3,2l-8,-5l-3,1l-4,8l-2,3v1l-2,1l-1,1l-1,1l-2,1h-2l-1,1h-2l-2,1l-2,-1h-3l-1,-1v-1l-1,-1h-1v-1l-2,-1l-1,-1l-1,-1h-1v-1h-1l-1,-1l-1,-1v-1l-1,-1h-5l-5,-3l-1,-1l-2,-1h-4l-1,-1l-2,-1h-2l-1,-1l-5,-3l-1,-1l-1,-1h-1l-2,-1h-1l-1,-1h-1l-1,1l-1,-1v-1l-1,-1l-2,-1l-1,-3l-2,-3v-2l-32,1h-37l-19,1h-254l-59,-1h-17l-28,-2h-34l-11,-1h-15l-29,-1h-5l-20,-1h-10l-53,-2l-19,-1l-49,-3l1,-50v-3l1,-1v-15l1,-11l1,-36l2,-28l1,-14v-1l1,-34l3,-64v-4l1,-5l1,-21v-16l1,-21l1,-3v-12h2v-4l1,-2l1,-30v-31l1,-3v-22h1v-15l2,-41v-13l8,1h10l14,1h14l12,1h17l3,1h2l18,1h27l7,1h31l4,1h12l9,1h21Z"/><g class="districts"><path data-race-id="SD00" d="M42,172l1,-2l1,-30v-31l1,-3v-22h1v-15l2,-41v-13l8,1h10l14,1h14l12,1h17l3,1h2l18,1h27l7,1h31l4,1h12l9,1h38l2,1v-1l4,1h49l6,1h81v1h76l22,1h47l25,-1h17l41,-1h67l46,-1h19l41,-1l7,-1l13,-1h30l1,-1h17l17,-1l14,-1h18v7l-1,7v5l-1,1l-1,1l-1,1l-1,2l-2,2v2h-1v1l-1,3l-6,4v1l-6,6h-1l-2,2l-3,2l-2,2h-1l-2,3v2l-1,2l1,3l2,2l5,5l6,9v1h1v4l4,6l1,1l2,2h2l1,1v-1h5l2,1l3,2l1,1l4,1l2,1l6,6l1,2v2h1v1l1,1v5l1,12l1,21v4l1,8v34l1,12l1,13v20h1v17l1,7l1,22v13l1,20l1,12v6l1,21l1,17v5l1,21v1l1,15h-7l-11,1v1h1l1,1v4l-1,1h-1v2l1,1l2,2h1v1l1,2l2,1l2,1h1v12l-1,1l1,1v2l-2,2h-1l-2,-1h-1l-1,1l1,1v3h1l2,1v3l-1,3l1,1l5,1h1l1,-1l1,-1h1l1,1l2,6v5l1,2h1l2,2v3l-3,4h1v2l-1,2h-1l-2,2l-1,1h-2v1h-1v1l1,1l1,2l1,4l-2,3l1,1h1v3h-1v2h-1v2l-1,-1l-1,2h-1l1,2v2h-1l1,1h1v1l-1,1h-1v1h1l-1,1v3h1h-1v1h-1v2h1l-3,1v-1h-1v5l-1,-1v1h1v1h-1v2h-1v2h-1l-1,1l-1,3l1,1l-1,2l-1,1v1l2,1v3l2,1h1v1h1v1l1,1l1,1v1h1l2,2l4,6v2l4,7v2h1l2,4h-1v1l-1,1v1h2v4l3,-1l1,1l-2,1l-4,1h-1l-1,-2l-2,-3l-5,-2l-7,2h-1l-1,-3v-2l-1,-3h-1l-2,-1l-2,-1l-1,-1l-3,-3l1,-7l1,-3l-9,-1h-1l-4,-3v-2l-1,-1l-3,-2l-4,-1l-2,-1l-3,-1l-7,3l-1,-1v-5l-1,-1h-7l-2,-1h-1v-1h-3l-1,1h-6l-4,-5h-1l-2,-1h-2l-2,-5l-3,-3h-3l-1,1l-1,-1h-2v-1h-1v-1h-2v1h-1l-1,1l-3,1l-2,-2h-2l-1,-1h-1l-1,1l-2,2l-2,1h-5l-3,-1l-1,1l-2,-1h-8l-5,1l-3,2h-4l-6,-1l-11,-3l-3,1l-4,8l-2,3v1l-2,1l-1,1l-1,1l-2,1h-2l-1,1h-2l-2,1l-2,-1h-3l-1,-1v-1l-1,-1h-1v-1l-2,-1l-1,-1l-1,-1h-1v-1h-1l-1,-1l-1,-1v-1l-1,-1h-5l-5,-3l-1,-1l-2,-1h-4l-1,-1l-2,-1h-2l-1,-1l-5,-3l-1,-1l-1,-1h-1l-2,-1h-1l-1,-1h-1l-1,1l-1,-1v-1l-1,-1l-2,-1l-1,-3l-2,-3v-2l-32,1h-37l-19,1h-254l-59,-1l-45,-2h-34l-11,-1h-15l-29,-1h-5l-20,-1h-10l-53,-2l-19,-1l-49,-3l1,-50v-3l1,-1v-15l1,-11l1,-36l2,-28l1,-14v-1l1,-34l3,-64v-4l1,-5l1,-21v-16l1,-21l1,-3v-12h2Z"/></g></svg>