<svg version="1.1" xmlns="http://www.w3.org/2000/svg" width="1000" height="244" viewBox="0 0 1000 244"><path data-race-id="TN01" d="M757,92l2,-1l3,4l12,7l2,3l2,1l10,-1l9,5l2,-1l1,-14l-4,-5l-7,1l2,-7l-10,-6l1,-2l1,-1h-3l-1,-2l2,-7l8,-8l12,-1l-2,-14l-1,-1l-10,-2h-2l2,-2l-3,-14l-8,-8l23,-1h28l18,-1h18v-1h22l27,-1h4l3,-1h22l4,-4h29l-1,1l-1,1h-1v1h-1l1,1v2h-2v4h-1v3h1v7h-1v1h-1v5h-1v1h-2l1,1v2h1v1l-1,1h1v1h1h-1l1,1v1l1,1h1v1h-3v-1h-1v1h-3l-1,-1h-2v-2l-1,1h-1v1h-3v1l-1,1h-1v2h-1v1h-1v1h-2v1h-1l-1,2v1l-1,1l-1,1v1l-1,1v1l-2,3v1h-1v2l-1,1l-1,1v2h-1v1l-1,1v2h-1v3h-1l-2,-1v2h-1l-1,1h-5v1h-1v-1h-1v-2l-1,-2l-1,-1h-3l-1,-1v1h-1l-1,-1v-1v1h-1v1l-1,1h-1v1h-2l-1,1h-1l-2,-1l-2,1l-1,1h-1l-1,1h-2l-1,1h-1l-1,1v1h-1v1h-1v1l-2,3l-1,2v1l-2,3l-1,1l-1,1h-1v1h-1v1h-1v1h-1l-1,1v-1v1h-2v1h-2v1l-1,1v-1h-1v-1h-4v-1l1,-2v-1h-1v-2l1,-1v-1l1,-1v-1h-1v1v-1h-1v-1h-1v-1h-1v-1h-2v1h-2l-1,1h-1v1h-1v1h-2v1h-1v1h-2v1h-1v1l-1,1v-1v1h-2v1h-1v3h1v1h-1v2h-1v1h-1v2h-1v1h-1v-1h-1v-1h-1v-1h-1v-1h-5v1h-1v2h-2v1h1v3h1v3h1h-1v1h-2v3l1,1h-1v2h-2v2h-1v3h-2v1h-1v1h-1v1h-1v-1h-1l-1,-1v1v-1h-4v-1v1h-2v-1l-1,1h-1v1h-1v1h-1l-1,1h-4l-1,1v2h-1v1h-1v1h-1v1h-6v1h-1v3l-1,1l-1,1h-1v3h-3l-2,-1h-1v1h-1v1l-1,1l-1,1h-1l-1,1v1h-2v1h-1l-1,1h-3v1h-1v2l-1,1v1h-1v1h-3l-1,1v-1h-6v1h-1l-1,-1l-2,-1h-1v1h-5v-16l-8,-9l-8,-17l16,-12Z"/><path data-race-id="TN02" d="M658,147l5,-4l1,-5l12,-9h4v-6l4,-2v-8l8,-1l-1,-2l7,-5l2,-6h6l8,-5l-1,-3l-2,-3l15,-16l2,2l21,1l4,-6l3,-19l-6,1l-8,-12l-1,-1l-6,1l-5,2l-6,4l-1,-12l2,1l-1,-4l-10,-1l-2,1l-3,-5l-4,-1h-2l-6,7l-1,-2l-5,1l-1,-1l1,-11h62l1,-1l6,-1h17l8,8l3,14l-2,2h2l10,2l1,1l2,14l-12,1l-8,8l-2,7l1,2h3l-1,1l-1,2l10,6l-2,7l7,-1l4,5l-1,14l-2,1l-9,-5l-10,1l-2,-1l-2,-3l-12,-7l-3,-4l-2,1l2,9l-16,12l8,17l8,9v16h-5v1h-4v1v-1h-3v1l-1,1h-1l-1,1h-1v1l-1,1l-1,1h-5l-1,1v1h-1v1h-1v2h-1v1l-1,1h-2v1h-1l-1,1l-1,-1l-1,-5l-4,-6l-9,1l-1,-5l-9,-4l-8,-3l-7,-4h-16l-7,2v3Z"/><path data-race-id="TN03" d="M569,215l16,-22l2,-6l6,-13h2l2,-1h2l11,6l3,6l2,1l3,10l-6,16l-3,3l3,7l2,-3l9,3l4,-5l10,-11h2l1,-2l2,-1l-1,-4l-7,-9l-7,-3l7,-13l20,-27l-2,-11l-5,3l-5,-6l-3,-3v-3l-4,-3l1,-1l2,-3l8,-9l-3,-11l-11,-13l-3,1l-7,-10l-1,-8l3,-4l1,-3l1,-4h8l4,-5l6,-5l3,-3l-7,-18l-6,-10h57l-1,11l1,1l5,-1l1,2l6,-7h2l4,1l3,5l2,-1l10,1l1,4l-2,-1l1,12l6,-4l5,-2l6,-1l1,1l8,12l6,-1l-3,19l-4,6l-21,-1l-2,-2l-15,16l2,3l1,3l-8,5h-6l-2,6l-7,5l1,2l-8,1v8l-4,2v6h-4l-12,9l-1,5l-5,4l6,2v-3l7,-2h16l7,4l8,3l9,4l1,5l9,-1l4,6l1,5v1h-1v1h-1v1h-1l-1,1v3h-2l1,1h-1l1,1v1h1v3l-1,1l-2,2v1h1l-1,2v2h1v3l-1,1h-1v1h-1l-1,1l-2,1v1h-1l-1,1l-1,-1h-2v1h-8v-1l-1,-1v-1h-2v1h-1l-1,1v1h-2v1h-1v1h-1v1h-1v3l-1,3v6l-1,2v9l-1,1v8h-22l-11,1h-40l-13,1h-42l10,-8l2,-7Z"/><path data-race-id="TN04" d="M359,160l7,-1l3,-4h8l8,-2l3,-1v-5l4,-1l1,-9l-2,-3l1,-5h8v4l10,4l6,2h11l-1,-1v-5l7,-7l1,-22l1,-6l5,-3l2,-7l3,4l1,-6l5,4l10,8l7,4l6,2l11,2v10l-6,24h-1l-3,2v31l-2,6v11l5,-2l7,-2l12,3l5,4l2,-1l4,1v2l2,1h1l4,-8l-1,-19l1,-5l-7,-6l-4,-12l-1,-8l6,-10l5,-6l15,-2l8,3l9,5l6,-1v4h6l3,-4l6,2l-1,-3h-1l1,-1l6,2l10,-3v4l1,1l1,2h23l1,3l13,-3l12,-8h3l-1,1l4,3v3l3,3l5,6l5,-3l2,11l-20,27l-7,13l7,3l7,9l1,4l-2,1l-1,2h-2l-10,11l-4,5l-9,-3l-2,3l-3,-7l3,-3l6,-16l-3,-10l-2,-1l-3,-6l-11,-6h-2l-2,1h-2l-6,13l-2,6l-16,22l3,7l-2,7l-10,8h-66l-26,-1h-58v-24l1,-13v-4h-1l-8,-3l-2,-13l-4,-1l-1,1l-5,-2l-5,-1l-2,-1l-2,-1h-1l-1,-1h-2l-8,3l-10,-2l2,-11Z"/><path data-race-id="TN05" d="M331,74l4,-7l2,-14l20,3l5,-1v-4l9,-8l2,1l7,-7l6,5l-4,2l8,7l-1,4h-1l2,3l5,1l2,4l6,-11v-4h3l7,4l7,-7l3,8l5,4h1l3,8l5,1l4,15h3l2,5l-1,6l-3,-4l-2,7l-5,3l-1,6l-19,-10l-15,-2l-12,9l-1,-8l-13,-1h-1l-3,12l-35,-5l-2,-2v-18l-2,-5Z"/><path data-race-id="TN06" d="M381,12h57l3,2l1,-1h1l4,-1h18l5,1h11l9,1h1l30,2h4l32,1h1l5,-1l12,-1h26l12,1l14,1h1l6,1l6,10l7,18l-3,3l-6,5l-4,5h-8l-1,4l-1,3l-3,4l1,8l7,10l3,-1l11,13l3,11l-8,9l-2,3h-3l-12,8l-13,3l-1,-3h-23l-1,-2l-1,-1v-4l-10,3l-6,-2l-1,1h1l1,3l-6,-2l-3,4h-6v-4l-6,1l-9,-5l-8,-3l-15,2l-5,6l-6,10l1,8l4,12l7,6l-1,5l1,19l-4,8h-1l-2,-1v-2l-4,-1l-2,1l-5,-4l-12,-3l-7,2l-5,2v-11l2,-6v-31l3,-2h1l6,-24v-10l-11,-2l-6,-2l-7,-4l-10,-8l-5,-4l-2,-5h-3l-4,-15l-5,-1l-3,-8h-1l-5,-4l-3,-8l-7,7l-7,-4h-3v4l-6,11l-2,-4l-5,-1l-2,-3h1l1,-4l-8,-7l4,-2l-6,-5l1,-11l-3,-2Z"/><path data-race-id="TN07" d="M151,176v-5h11l27,2h3l15,-8l6,-7l2,-6l1,-5v-23l2,-2v-1h2v-1l43,2v-4l-4,-1v-22l1,-14l1,-1v-1l4,-5h1v-1l1,-1l6,-6v-3l2,-2v1v-1h1h-1l1,-1v-1h1l5,-5v-1l-2,-4h5l-8,-11l1,-8l3,-6l-2,-12l-1,-1l-1,-2v-3h8l16,2l3,4h77l-3,12l3,2l-1,11l-7,7l-2,-1l-9,8v4l-5,1l-20,-3l-2,14l-4,7l2,5v18l2,2l35,5l3,-12h1l13,1l1,8l12,-9l15,2l19,10l-1,22l-7,7v5l1,1h-11l-6,-2l-10,-4v-4h-8l-1,5l2,3l-1,9l-4,1v5l-3,1l-8,2h-8l-3,4l-7,1l2,3l-2,11l10,2l8,-3h2l1,1h1l2,1l2,1l5,1l5,2l1,-1l4,1l2,13l8,3h1v4l-1,13v24h-5l-11,-1h-27l-1,-1h-14l-28,-1h-14l-28,-1h-10l-12,-1h-3l1,2h-18l-2,-1h-24l-10,-1h-40l-5,-1h-12l2,-15Z"/><path data-race-id="TN08" d="M56,170v-1h1l1,-1v-1h1v-2l1,-2l-3,-4l-1,-1v-2l2,-3v-1l2,-1l2,-1h1l3,3v2l1,1h5v-2l-1,-2h-1l-1,-1l-1,-1l-2,-3l1,-1v-1h1l6,-2l1,-1l3,-1l1,-1v-3l-4,1h-4l-2,-2v-1l-2,-2v-5l2,-2l4,-2l3,2h2l2,-1h3v-1l1,-1l1,-1v-1l2,-3h2l1,-1l2,1h2v-5l-5,-3l3,-5h1l5,2l2,1h2v-3l-3,-5l-2,-2l-2,-1v-3l2,-2v-1l2,-3l1,-6l4,-4h2l1,-1l2,-1v-1l1,-2v-1l-1,-1v-1l-2,-1l-1,-2l-2,-1h-1l-1,-2l-3,-6l10,2l5,-1h1l2,-1v-2l-1,-1h-1l-4,-2l-1,-1v-6h2l4,1h2l1,-1l1,-2v-3l-2,-4l-1,-3l2,-3l1,-1v-2h-1l-1,-2l4,2v2l1,1h3l1,-1l3,-3v-1h5l4,-1h5l50,2h1l1,1h32l4,1h11l35,1l-1,8l8,11h-5l2,4v1l-5,5h-1v1l-1,1h1h-1v1v-1l-2,2v3l-6,6l-1,1v1h-1l-4,5v1l-1,1l-1,14v22l4,1v4l-43,-2v1h-2v1l-2,2v23l-1,5l-2,6l-6,7l-15,8h-3l-27,-2h-11v5l-2,39l-2,15h-17l-15,-1l-13,-1h-17l-2,-8l-8,-7l-8,-2l5,-5l5,4l7,1l6,1v-10l4,-2l-16,-1l-1,2h-4v-12l6,-3l-4,-3l5,-2v-5l-4,-2l-19,-2h-1l-1,-1ZM43,168l2,-2h2v-1l1,-2v-1h5l1,1v2l-1,1v2l1,2v1l1,1v1l-2,1l-2,-1l-2,-2v-1l-3,-1v1l-1,1v2l1,1h-1v1h-2v-5Z"/><path data-race-id="TN09" d="M26,219h4v1h2l2,1l4,-1l2,-7v-1l4,-4l6,1l2,-3v-1l-3,-1l-2,-3v-1l2,-1l2,-2l1,-1l-2,-3l-1,-1l-1,-1h-4v-7l1,1l1,-1h2l1,-3v-1l-1,-1l2,-1l1,-1l1,-2l1,-1l2,-1l2,-1l19,2l4,2v5l-5,2l4,3l-6,3v12h4l1,-2l16,1l-4,2v10l-6,-1l-7,-1l-5,-4l-5,5l8,2l8,7l2,8h-3l-20,-1h-3l-34,-2v-4Z"/>  <path class="mesh" d="M726,170l-1,-5l-4,-6l-9,1l-1,-5l-9,-4l-8,-3l-7,-4h-16l-7,2v3l-6,-2l5,-4l1,-5l12,-9h4v-6l4,-2v-8l8,-1l-1,-2l7,-5l2,-6h6l8,-5l-1,-3l-2,-3l15,-16l2,2l21,1l4,-6l3,-19l-6,1l-8,-12l-1,-1l-6,1l-5,2l-6,4l-1,-12l2,1l-1,-4l-10,-1l-2,1l-3,-5l-4,-1h-2l-6,7l-1,-2l-5,1l-1,-1l1,-11M380,37l1,-11l-3,-2l3,-12M560,237l10,-8l2,-7l-3,-7l16,-22l2,-6l6,-13h2l2,-1h2l11,6l3,6l2,1l3,10l-6,16l-3,3l3,7l2,-3l9,3l4,-5l10,-11h2l1,-2l2,-1l-1,-4l-7,-9l-7,-3l7,-13l20,-27l-2,-11l-5,3l-5,-6l-3,-3v-3l-4,-3l1,-1l2,-3l8,-9l-3,-11l-11,-13l-3,1l-7,-10l-1,-8l3,-4l1,-3l1,-4h8l4,-5l6,-5l3,-3l-7,-18l-6,-10M282,54v-1l-2,-4h5l-8,-11l1,-8M147,230l2,-15l2,-39v-5h11l27,2h3l15,-8l6,-7l2,-6l1,-5v-23l2,-2v-1h2v-1l43,2v-4l-4,-1v-22l1,-14l1,-1v-1l4,-5h1v-1l1,-1l6,-6v-3l2,-2v1v-1h1h-1l1,-1v-1h1l5,-5M759,155v-16l-8,-9l-8,-17l16,-12l-2,-9l2,-1l3,4l12,7l2,3l2,1l10,-1l9,5l2,-1l1,-14l-4,-5l-7,1l2,-7l-10,-6l1,-2l1,-1h-3l-1,-2l2,-7l8,-8l12,-1l-2,-14l-1,-1l-10,-2h-2l2,-2l-3,-14l-8,-8M434,104l1,-6l5,-3l2,-7l3,4l1,-6l5,4l10,8l7,4l6,2l11,2v10l-6,24h-1l-3,2v31l-2,6v11l5,-2l7,-2l12,3l5,4l2,-1l4,1v2l2,1h1l4,-8l-1,-19l1,-5l-7,-6l-4,-12l-1,-8l6,-10l5,-6l15,-2l8,3l9,5l6,-1v4h6l3,-4l6,2l-1,-3h-1l1,-1l6,2l10,-3v4l1,1l1,2h23l1,3l13,-3l12,-8h3M85,228l-2,-8l-8,-7l-8,-2l5,-5l5,4l7,1l6,1v-10l4,-2l-16,-1l-1,2h-4v-12l6,-3l-4,-3l5,-2v-5l-4,-2l-19,-2M55,173l-2,1M410,236v-24l1,-13v-4h-1l-8,-3l-2,-13l-4,-1l-1,1l-5,-2l-5,-1l-2,-1l-2,-1h-1l-1,-1h-2l-8,3l-10,-2l2,-11l-2,-3l7,-1l3,-4h8l8,-2l3,-1v-5l4,-1l1,-9l-2,-3l1,-5h8v4l10,4l6,2h11l-1,-1v-5l7,-7l1,-22l-19,-10l-15,-2l-12,9l-1,-8l-13,-1h-1l-3,12l-35,-5l-2,-2v-18l-2,-5l4,-7l2,-14l20,3l5,-1v-4l9,-8l2,1l7,-7l6,5l-4,2l8,7l-1,4h-1l2,3l5,1l2,4l6,-11v-4h3l7,4l7,-7l3,8l5,4h1l3,8l5,1l4,15h3l2,5"/><g class="cities"><circle r="7" cx="55" cy="206"/><text x="55" y="206">Memphis</text><circle r="7" cx="730" cy="103"/><text x="730" y="103">Knoxville</text><circle r="7" cx="579" cy="229"/><text x="579" y="229">Chattanooga</text></g></svg>