<svg version="1.1" xmlns="http://www.w3.org/2000/svg" width="1000" height="244" viewBox="0 0 1000 244">
  <path d="M301 8
l 3 4
h 134
l 3 2
l 1 -1
h 1
l 4 -1
h 18
l 5 1
h 11
l 9 1
h 1
l 30 2
h 4
l 32 1
h 1
l 5 -1
l 12 -1
h 26
l 12 1
l 14 1
h 1
l 6 1
h 119
l 1 -1
l 6 -1
h 17
l 23 -1
h 28
l 18 -1
h 18
v -1
h 22
l 27 -1
h 4
l 3 -1
h 22
l 4 -4
h 29
l -1 1
l -1 1
h -1
v 1
h -1
l 1 1
v 2
h -2
v 4
h -1
v 3
h 1
v 7
h -1
v 1
h -1
v 5
h -1
v 1
h -2
l 1 1
v 2
h 1
v 1
l -1 1
h 1
v 1
h 1
h -1
l 1 1
v 1
l 1 1
h 1
v 1
h -3
v -1
h -1
v 1
h -3
l -1 -1
h -2
v -2
l -1 1
h -1
v 1
h -3
v 1
l -1 1
h -1
v 2
h -1
v 1
h -1
v 1
h -2
v 1
h -1
l -1 2
v 1
l -1 1
l -1 1
v 1
l -1 1
v 1
l -2 3
v 1
h -1
v 2
l -1 1
l -1 1
v 2
h -1
v 1
l -1 1
v 2
h -1
v 3
h -1
l -2 -1
v 2
h -1
l -1 1
h -5
v 1
h -1
v -1
h -1
v -2
l -1 -2
l -1 -1
h -3
l -1 -1
v 1
h -1
l -1 -1
v -1
v 1
h -1
v 1
l -1 1
h -1
v 1
h -2
l -1 1
h -1
l -2 -1
l -2 1
l -1 1
h -1
l -1 1
h -2
l -1 1
h -1
l -1 1
v 1
h -1
v 1
h -1
v 1
l -2 3
l -1 2
v 1
l -2 3
l -1 1
l -1 1
h -1
v 1
h -1
v 1
h -1
v 1
h -1
l -1 1
v -1
v 1
h -2
v 1
h -2
v 1
l -1 1
v -1
h -1
v -1
h -4
v -1
l 1 -2
v -1
h -1
v -2
l 1 -1
v -1
l 1 -1
v -1
h -1
v 1
v -1
h -1
v -1
h -1
v -1
h -1
v -1
h -2
v 1
h -2
l -1 1
h -1
v 1
h -1
v 1
h -2
v 1
h -1
v 1
h -2
v 1
h -1
v 1
l -1 1
v -1
v 1
h -2
v 1
h -1
v 3
h 1
v 1
h -1
v 2
h -1
v 1
h -1
v 2
h -1
v 1
h -1
v -1
h -1
v -1
h -1
v -1
h -1
v -1
h -5
v 1
h -1
v 2
h -2
v 1
h 1
v 3
h 1
v 3
h 1
h -1
v 1
h -2
v 3
l 1 1
h -1
v 2
h -2
v 2
h -1
v 3
h -2
v 1
h -1
v 1
h -1
v 1
h -1
v -1
h -1
l -1 -1
v 1
v -1
h -4
v -1
v 1
h -2
v -1
l -1 1
h -1
v 1
h -1
v 1
h -1
l -1 1
h -4
l -1 1
v 2
h -1
v 1
h -1
v 1
h -1
v 1
h -6
v 1
h -1
v 3
l -1 1
l -1 1
h -1
v 3
h -3
l -2 -1
h -1
v 1
h -1
v 1
l -1 1
l -1 1
h -1
l -1 1
v 1
h -2
v 1
h -1
l -1 1
h -3
v 1
h -1
v 2
l -1 1
v 1
h -1
v 1
h -3
l -1 1
v -1
h -6
v 1
h -1
l -1 -1
l -2 -1
h -1
v 1
h -10
v 1
h -4
v 1
v -1
h -3
v 1
l -1 1
h -1
l -1 1
h -1
v 1
l -1 1
l -1 1
h -5
l -1 1
v 1
h -1
v 1
h -1
v 2
h -1
v 1
l -1 1
h -2
v 1
h -1
l -1 1
l -1 -1
v 1
h -1
v 1
h -1
v 1
h -1
l -1 1
v 3
h -2
l 1 1
h -1
l 1 1
v 1
h 1
v 3
l -1 1
l -2 2
v 1
h 1
l -1 2
v 2
h 1
v 3
l -1 1
h -1
v 1
h -1
l -1 1
l -2 1
v 1
h -1
l -1 1
l -1 -1
h -2
v 1
h -8
v -1
l -1 -1
v -1
h -2
v 1
h -1
l -1 1
v 1
h -2
v 1
h -1
v 1
h -1
v 1
h -1
v 3
l -1 3
v 6
l -1 2
v 9
l -1 1
v 8
h -22
l -11 1
h -40
l -13 1
h -108
l -26 -1
h -63
l -11 -1
h -27
l -1 -1
h -14
l -28 -1
h -14
l -28 -1
h -10
l -12 -1
h -3
l 1 2
h -18
l -2 -1
h -24
l -10 -1
h -40
l -5 -1
h -29
l -15 -1
l -13 -1
h -20
l -20 -1
h -3
l -34 -2
v -4
l 1 -2
h 4
v 1
h 2
l 2 1
l 4 -1
l 2 -7
v -1
l 4 -4
l 8 -2
v -1
l -3 -1
l -2 -3
v -1
l 2 -1
l 2 -2
l 1 -1
l -2 -3
l -1 -1
l -1 -1
h -4
v -7
l 1 1
l 1 -1
h 2
l 1 -3
v -1
l -1 -1
l 2 -1
l 1 -1
l 1 -2
l 1 -1
l -2 -1
l -2 -2
v -1
l -3 -1
v 1
l -1 1
v 2
l 1 1
h -1
v 1
h -2
v -7
l 2 -2
h 2
v -1
l 1 -2
v -1
h 5
l 1 1
v 2
l -1 1
v 2
l 1 2
v 1
l 1 1
v 1
l 2 -1
h -1
l -1 -1
l 1 -1
v -1
h 1
l 1 -1
v -1
h 1
v -2
l 1 -2
l -3 -4
l -1 -1
v -2
l 2 -3
v -1
l 2 -1
l 2 -1
h 1
l 3 3
v 2
l 1 1
h 5
v -2
l -1 -2
h -1
l -1 -1
l -1 -1
l -2 -3
l 1 -1
v -1
h 1
l 6 -2
l 1 -1
l 3 -1
l 1 -1
v -3
l -4 1
h -4
l -2 -2
v -1
l -2 -2
v -5
l 2 -2
l 4 -2
l 3 2
h 2
l 2 -1
h 3
v -1
l 1 -1
l 1 -1
v -1
l 2 -3
h 2
l 1 -1
l 2 1
h 2
v -5
l -5 -3
l 3 -5
h 1
l 5 2
l 2 1
h 2
v -3
l -3 -5
l -2 -2
l -2 -1
v -3
l 2 -2
v -1
l 2 -3
l 1 -6
l 4 -4
h 2
l 1 -1
l 2 -1
v -1
l 1 -2
v -1
l -1 -1
v -1
l -2 -1
l -1 -2
l -2 -1
h -1
l -1 -2
l -3 -6
l 15 1
h 1
l 2 -1
v -2
l -1 -1
h -1
l -4 -2
l -1 -1
v -6
h 2
l 4 1
h 2
l 1 -1
l 1 -2
v -3
l -2 -4
l -1 -3
l 2 -3
l 1 -1
v -2
h -1
l -1 -2
l 4 2
v 2
l 1 1
h 3
l 1 -1
l 3 -3
v -1
h 5
l 4 -1
h 5
l 50 2
l 2 1
h 15
l 21 1
h 11
l 35 1
l 3 -6
l -2 -12
l -1 -1
l -1 -2
v -3
h 8
Z"/>
<g class="districts">
<path data-race-id="TN01" d="M757 92
l 2 -1
l 3 4
l 12 7
l 2 3
l 2 1
l 10 -1
l 9 5
l 2 -1
l 1 -14
l -4 -5
l -7 1
l 2 -7
l -10 -6
l 1 -2
l 1 -1
h -3
l -1 -2
l 2 -7
l 8 -8
l 12 -1
l -2 -14
l -1 -1
l -10 -2
h -2
l 2 -2
l -3 -14
l -8 -8
l 23 -1
h 28
l 18 -1
h 18
v -1
h 22
l 27 -1
h 4
l 3 -1
h 22
l 4 -4
h 29
l -1 1
l -1 1
h -1
v 1
h -1
l 1 1
v 2
h -2
v 4
h -1
v 3
h 1
v 7
h -1
v 1
h -1
v 5
h -1
v 1
h -2
l 1 1
v 2
h 1
v 1
l -1 1
h 1
v 1
h 1
h -1
l 1 1
v 1
l 1 1
h 1
v 1
h -3
v -1
h -1
v 1
h -3
l -1 -1
h -2
v -2
l -1 1
h -1
v 1
h -3
v 1
l -1 1
h -1
v 2
h -1
v 1
h -1
v 1
h -2
v 1
h -1
l -1 2
v 1
l -1 1
l -1 1
v 1
l -1 1
v 1
l -2 3
v 1
h -1
v 2
l -1 1
l -1 1
v 2
h -1
v 1
l -1 1
v 2
h -1
v 3
h -1
l -2 -1
v 2
h -1
l -1 1
h -5
v 1
h -1
v -1
h -1
v -2
l -1 -2
l -1 -1
h -3
l -1 -1
v 1
h -1
l -1 -1
v -1
v 1
h -1
v 1
l -1 1
h -1
v 1
h -2
l -1 1
h -1
l -2 -1
l -2 1
l -1 1
h -1
l -1 1
h -2
l -1 1
h -1
l -1 1
v 1
h -1
v 1
h -1
v 1
l -2 3
l -1 2
v 1
l -2 3
l -1 1
l -1 1
h -1
v 1
h -1
v 1
h -1
v 1
h -1
l -1 1
v -1
v 1
h -2
v 1
h -2
v 1
l -1 1
v -1
h -1
v -1
h -4
v -1
l 1 -2
v -1
h -1
v -2
l 1 -1
v -1
l 1 -1
v -1
h -1
v 1
v -1
h -1
v -1
h -1
v -1
h -1
v -1
h -2
v 1
h -2
l -1 1
h -1
v 1
h -1
v 1
h -2
v 1
h -1
v 1
h -2
v 1
h -1
v 1
l -1 1
v -1
v 1
h -2
v 1
h -1
v 3
h 1
v 1
h -1
v 2
h -1
v 1
h -1
v 2
h -1
v 1
h -1
v -1
h -1
v -1
h -1
v -1
h -1
v -1
h -5
v 1
h -1
v 2
h -2
v 1
h 1
v 3
h 1
v 3
h 1
h -1
v 1
h -2
v 3
l 1 1
h -1
v 2
h -2
v 2
h -1
v 3
h -2
v 1
h -1
v 1
h -1
v 1
h -1
v -1
h -1
l -1 -1
v 1
v -1
h -4
v -1
v 1
h -2
v -1
l -1 1
h -1
v 1
h -1
v 1
h -1
l -1 1
h -4
l -1 1
v 2
h -1
v 1
h -1
v 1
h -1
v 1
h -6
v 1
h -1
v 3
l -1 1
l -1 1
h -1
v 3
h -3
l -2 -1
h -1
v 1
h -1
v 1
l -1 1
l -1 1
h -1
l -1 1
v 1
h -2
v 1
h -1
l -1 1
h -3
v 1
h -1
v 2
l -1 1
v 1
h -1
v 1
h -3
l -1 1
v -1
h -6
v 1
h -1
l -1 -1
l -2 -1
h -1
v 1
h -5
v -16
l -8 -9
l -8 -17
l 16 -12
Z"/>
<path data-race-id="TN02" d="M658 147
l 5 -4
l 1 -5
l 12 -9
h 4
v -6
l 4 -2
v -8
l 8 -1
l -1 -2
l 7 -5
l 2 -6
h 6
l 8 -5
l -1 -3
l -2 -3
l 15 -16
l 2 2
l 21 1
l 4 -6
l 3 -19
l -6 1
l -8 -12
l -1 -1
l -6 1
l -5 2
l -6 4
l -1 -12
l 2 1
l -1 -4
l -10 -1
l -2 1
l -3 -5
l -4 -1
h -2
l -6 7
l -1 -2
l -5 1
l -1 -1
l 1 -11
h 62
l 1 -1
l 6 -1
h 17
l 8 8
l 3 14
l -2 2
h 2
l 10 2
l 1 1
l 2 14
l -12 1
l -8 8
l -2 7
l 1 2
h 3
l -1 1
l -1 2
l 10 6
l -2 7
l 7 -1
l 4 5
l -1 14
l -2 1
l -9 -5
l -10 1
l -2 -1
l -2 -3
l -12 -7
l -3 -4
l -2 1
l 2 9
l -16 12
l 8 17
l 8 9
v 16
h -5
v 1
h -4
v 1
v -1
h -3
v 1
l -1 1
h -1
l -1 1
h -1
v 1
l -1 1
l -1 1
h -5
l -1 1
v 1
h -1
v 1
h -1
v 2
h -1
v 1
l -1 1
h -2
v 1
h -1
l -1 1
l -1 -1
l -1 -5
l -4 -6
l -9 1
l -1 -5
l -9 -4
l -8 -3
l -7 -4
h -16
l -7 2
v 3
Z"/>
<path data-race-id="TN03" d="M569 215
l 16 -22
l 2 -6
l 6 -13
h 2
l 2 -1
h 2
l 11 6
l 3 6
l 2 1
l 3 10
l -6 16
l -3 3
l 3 7
l 2 -3
l 9 3
l 4 -5
l 10 -11
h 2
l 1 -2
l 2 -1
l -1 -4
l -7 -9
l -7 -3
l 7 -13
l 20 -27
l -2 -11
l -5 3
l -5 -6
l -3 -3
v -3
l -4 -3
l 1 -1
l 2 -3
l 8 -9
l -3 -11
l -11 -13
l -3 1
l -7 -10
l -1 -8
l 3 -4
l 1 -3
l 1 -4
h 8
l 4 -5
l 6 -5
l 3 -3
l -7 -18
l -6 -10
h 57
l -1 11
l 1 1
l 5 -1
l 1 2
l 6 -7
h 2
l 4 1
l 3 5
l 2 -1
l 10 1
l 1 4
l -2 -1
l 1 12
l 6 -4
l 5 -2
l 6 -1
l 1 1
l 8 12
l 6 -1
l -3 19
l -4 6
l -21 -1
l -2 -2
l -15 16
l 2 3
l 1 3
l -8 5
h -6
l -2 6
l -7 5
l 1 2
l -8 1
v 8
l -4 2
v 6
h -4
l -12 9
l -1 5
l -5 4
l 6 2
v -3
l 7 -2
h 16
l 7 4
l 8 3
l 9 4
l 1 5
l 9 -1
l 4 6
l 1 5
v 1
h -1
v 1
h -1
v 1
h -1
l -1 1
v 3
h -2
l 1 1
h -1
l 1 1
v 1
h 1
v 3
l -1 1
l -2 2
v 1
h 1
l -1 2
v 2
h 1
v 3
l -1 1
h -1
v 1
h -1
l -1 1
l -2 1
v 1
h -1
l -1 1
l -1 -1
h -2
v 1
h -8
v -1
l -1 -1
v -1
h -2
v 1
h -1
l -1 1
v 1
h -2
v 1
h -1
v 1
h -1
v 1
h -1
v 3
l -1 3
v 6
l -1 2
v 9
l -1 1
v 8
h -22
l -11 1
h -40
l -13 1
h -42
l 10 -8
l 2 -7
Z"/>
<path data-race-id="TN04" d="M359 160
l 7 -1
l 3 -4
h 8
l 8 -2
l 3 -1
v -5
l 4 -1
l 1 -9
l -2 -3
l 1 -5
h 8
v 4
l 10 4
l 6 2
h 11
l -1 -1
v -5
l 7 -7
l 1 -22
l 1 -6
l 5 -3
l 2 -7
l 3 4
l 1 -6
l 5 4
l 10 8
l 7 4
l 6 2
l 11 2
v 10
l -6 24
h -1
l -3 2
v 31
l -2 6
v 11
l 5 -2
l 7 -2
l 12 3
l 5 4
l 2 -1
l 4 1
v 2
l 2 1
h 1
l 4 -8
l -1 -19
l 1 -5
l -7 -6
l -4 -12
l -1 -8
l 6 -10
l 5 -6
l 15 -2
l 8 3
l 9 5
l 6 -1
v 4
h 6
l 3 -4
l 6 2
l -1 -3
h -1
l 1 -1
l 6 2
l 10 -3
v 4
l 1 1
l 1 2
h 23
l 1 3
l 13 -3
l 12 -8
h 3
l -1 1
l 4 3
v 3
l 3 3
l 5 6
l 5 -3
l 2 11
l -20 27
l -7 13
l 7 3
l 7 9
l 1 4
l -2 1
l -1 2
h -2
l -10 11
l -4 5
l -9 -3
l -2 3
l -3 -7
l 3 -3
l 6 -16
l -3 -10
l -2 -1
l -3 -6
l -11 -6
h -2
l -2 1
h -2
l -6 13
l -2 6
l -16 22
l 3 7
l -2 7
l -10 8
h -66
l -26 -1
h -58
v -24
l 1 -13
v -4
h -1
l -8 -3
l -2 -13
l -4 -1
l -1 1
l -5 -2
l -5 -1
l -2 -1
l -2 -1
h -1
l -1 -1
h -2
l -8 3
l -10 -2
l 2 -11
Z"/>
<path data-race-id="TN05" d="M331 74
l 4 -7
l 2 -14
l 20 3
l 5 -1
v -4
l 9 -8
l 2 1
l 7 -7
l 6 5
l -4 2
l 8 7
l -1 4
h -1
l 2 3
l 5 1
l 2 4
l 6 -11
v -4
h 3
l 7 4
l 7 -7
l 3 8
l 5 4
h 1
l 3 8
l 5 1
l 4 15
h 3
l 2 5
l -1 6
l -3 -4
l -2 7
l -5 3
l -1 6
l -19 -10
l -15 -2
l -12 9
l -1 -8
l -13 -1
h -1
l -3 12
l -35 -5
l -2 -2
v -18
l -2 -5
Z"/>
<path data-race-id="TN06" d="M381 12
h 57
l 3 2
l 1 -1
h 1
l 4 -1
h 18
l 5 1
h 11
l 9 1
h 1
l 30 2
h 4
l 32 1
h 1
l 5 -1
l 12 -1
h 26
l 12 1
l 14 1
h 1
l 6 1
l 6 10
l 7 18
l -3 3
l -6 5
l -4 5
h -8
l -1 4
l -1 3
l -3 4
l 1 8
l 7 10
l 3 -1
l 11 13
l 3 11
l -8 9
l -2 3
h -3
l -12 8
l -13 3
l -1 -3
h -23
l -1 -2
l -1 -1
v -4
l -10 3
l -6 -2
l -1 1
h 1
l 1 3
l -6 -2
l -3 4
h -6
v -4
l -6 1
l -9 -5
l -8 -3
l -15 2
l -5 6
l -6 10
l 1 8
l 4 12
l 7 6
l -1 5
l 1 19
l -4 8
h -1
l -2 -1
v -2
l -4 -1
l -2 1
l -5 -4
l -12 -3
l -7 2
l -5 2
v -11
l 2 -6
v -31
l 3 -2
h 1
l 6 -24
v -10
l -11 -2
l -6 -2
l -7 -4
l -10 -8
l -5 -4
l -2 -5
h -3
l -4 -15
l -5 -1
l -3 -8
h -1
l -5 -4
l -3 -8
l -7 7
l -7 -4
h -3
v 4
l -6 11
l -2 -4
l -5 -1
l -2 -3
h 1
l 1 -4
l -8 -7
l 4 -2
l -6 -5
l 1 -11
l -3 -2
Z"/>
<path data-race-id="TN07" d="M151 176
v -5
h 11
l 27 2
h 3
l 15 -8
l 6 -7
l 2 -6
l 1 -5
v -23
l 2 -2
v -1
h 2
v -1
l 43 2
v -4
l -4 -1
v -22
l 1 -14
l 1 -1
v -1
l 4 -5
h 1
v -1
l 1 -1
l 6 -6
v -3
l 2 -2
v 1
v -1
h 1
h -1
l 1 -1
v -1
h 1
l 5 -5
v -1
l -2 -4
h 5
l -8 -11
l 1 -8
l 3 -6
l -2 -12
l -1 -1
l -1 -2
v -3
h 8
l 16 2
l 3 4
h 77
l -3 12
l 3 2
l -1 11
l -7 7
l -2 -1
l -9 8
v 4
l -5 1
l -20 -3
l -2 14
l -4 7
l 2 5
v 18
l 2 2
l 35 5
l 3 -12
h 1
l 13 1
l 1 8
l 12 -9
l 15 2
l 19 10
l -1 22
l -7 7
v 5
l 1 1
h -11
l -6 -2
l -10 -4
v -4
h -8
l -1 5
l 2 3
l -1 9
l -4 1
v 5
l -3 1
l -8 2
h -8
l -3 4
l -7 1
l 2 3
l -2 11
l 10 2
l 8 -3
h 2
l 1 1
h 1
l 2 1
l 2 1
l 5 1
l 5 2
l 1 -1
l 4 1
l 2 13
l 8 3
h 1
v 4
l -1 13
v 24
h -5
l -11 -1
h -27
l -1 -1
h -14
l -28 -1
h -14
l -28 -1
h -10
l -12 -1
h -3
l 1 2
h -18
l -2 -1
h -24
l -10 -1
h -40
l -5 -1
h -12
l 2 -15
Z"/>
<path data-race-id="TN08" d="M56 170
v -1
h 1
l 1 -1
v -1
h 1
v -2
l 1 -2
l -3 -4
l -1 -1
v -2
l 2 -3
v -1
l 2 -1
l 2 -1
h 1
l 3 3
v 2
l 1 1
h 5
v -2
l -1 -2
h -1
l -1 -1
l -1 -1
l -2 -3
l 1 -1
v -1
h 1
l 6 -2
l 1 -1
l 3 -1
l 1 -1
v -3
l -4 1
h -4
l -2 -2
v -1
l -2 -2
v -5
l 2 -2
l 4 -2
l 3 2
h 2
l 2 -1
h 3
v -1
l 1 -1
l 1 -1
v -1
l 2 -3
h 2
l 1 -1
l 2 1
h 2
v -5
l -5 -3
l 3 -5
h 1
l 5 2
l 2 1
h 2
v -3
l -3 -5
l -2 -2
l -2 -1
v -3
l 2 -2
v -1
l 2 -3
l 1 -6
l 4 -4
h 2
l 1 -1
l 2 -1
v -1
l 1 -2
v -1
l -1 -1
v -1
l -2 -1
l -1 -2
l -2 -1
h -1
l -1 -2
l -3 -6
l 10 2
l 5 -1
h 1
l 2 -1
v -2
l -1 -1
h -1
l -4 -2
l -1 -1
v -6
h 2
l 4 1
h 2
l 1 -1
l 1 -2
v -3
l -2 -4
l -1 -3
l 2 -3
l 1 -1
v -2
h -1
l -1 -2
l 4 2
v 2
l 1 1
h 3
l 1 -1
l 3 -3
v -1
h 5
l 4 -1
h 5
l 50 2
h 1
l 1 1
h 32
l 4 1
h 11
l 35 1
l -1 8
l 8 11
h -5
l 2 4
v 1
l -5 5
h -1
v 1
l -1 1
h 1
h -1
v 1
v -1
l -2 2
v 3
l -6 6
l -1 1
v 1
h -1
l -4 5
v 1
l -1 1
l -1 14
v 22
l 4 1
v 4
l -43 -2
v 1
h -2
v 1
l -2 2
v 23
l -1 5
l -2 6
l -6 7
l -15 8
h -3
l -27 -2
h -11
v 5
l -2 39
l -2 15
h -17
l -15 -1
l -13 -1
h -17
l -2 -8
l -8 -7
l -8 -2
l 5 -5
l 5 4
l 7 1
l 6 1
v -10
l 4 -2
l -16 -1
l -1 2
h -4
v -12
l 6 -3
l -4 -3
l 5 -2
v -5
l -4 -2
l -19 -2
h -1
l -1 -1
Z
M43 168
l 2 -2
h 2
v -1
l 1 -2
v -1
h 5
l 1 1
v 2
l -1 1
v 2
l 1 2
v 1
l 1 1
v 1
l -2 1
l -2 -1
l -2 -2
v -1
l -3 -1
v 1
l -1 1
v 2
l 1 1
h -1
v 1
h -2
v -5
Z"/>
<path data-race-id="TN09" d="M26 219
h 4
v 1
h 2
l 2 1
l 4 -1
l 2 -7
v -1
l 4 -4
l 6 1
l 2 -3
v -1
l -3 -1
l -2 -3
v -1
l 2 -1
l 2 -2
l 1 -1
l -2 -3
l -1 -1
l -1 -1
h -4
v -7
l 1 1
l 1 -1
h 2
l 1 -3
v -1
l -1 -1
l 2 -1
l 1 -1
l 1 -2
l 1 -1
l 2 -1
l 2 -1
l 19 2
l 4 2
v 5
l -5 2
l 4 3
l -6 3
v 12
h 4
l 1 -2
l 16 1
l -4 2
v 10
l -6 -1
l -7 -1
l -5 -4
l -5 5
l 8 2
l 8 7
l 2 8
h -3
l -20 -1
h -3
l -34 -2
v -4
Z"/>
</g>
  <path class="districts-mesh" d="M726 170
l -1 -5
l -4 -6
l -9 1
l -1 -5
l -9 -4
l -8 -3
l -7 -4
h -16
l -7 2
v 3
l -6 -2
l 5 -4
l 1 -5
l 12 -9
h 4
v -6
l 4 -2
v -8
l 8 -1
l -1 -2
l 7 -5
l 2 -6
h 6
l 8 -5
l -1 -3
l -2 -3
l 15 -16
l 2 2
l 21 1
l 4 -6
l 3 -19
l -6 1
l -8 -12
l -1 -1
l -6 1
l -5 2
l -6 4
l -1 -12
l 2 1
l -1 -4
l -10 -1
l -2 1
l -3 -5
l -4 -1
h -2
l -6 7
l -1 -2
l -5 1
l -1 -1
l 1 -11
M380 37
l 1 -11
l -3 -2
l 3 -12
M560 237
l 10 -8
l 2 -7
l -3 -7
l 16 -22
l 2 -6
l 6 -13
h 2
l 2 -1
h 2
l 11 6
l 3 6
l 2 1
l 3 10
l -6 16
l -3 3
l 3 7
l 2 -3
l 9 3
l 4 -5
l 10 -11
h 2
l 1 -2
l 2 -1
l -1 -4
l -7 -9
l -7 -3
l 7 -13
l 20 -27
l -2 -11
l -5 3
l -5 -6
l -3 -3
v -3
l -4 -3
l 1 -1
l 2 -3
l 8 -9
l -3 -11
l -11 -13
l -3 1
l -7 -10
l -1 -8
l 3 -4
l 1 -3
l 1 -4
h 8
l 4 -5
l 6 -5
l 3 -3
l -7 -18
l -6 -10
M282 54
v -1
l -2 -4
h 5
l -8 -11
l 1 -8
M147 230
l 2 -15
l 2 -39
v -5
h 11
l 27 2
h 3
l 15 -8
l 6 -7
l 2 -6
l 1 -5
v -23
l 2 -2
v -1
h 2
v -1
l 43 2
v -4
l -4 -1
v -22
l 1 -14
l 1 -1
v -1
l 4 -5
h 1
v -1
l 1 -1
l 6 -6
v -3
l 2 -2
v 1
v -1
h 1
h -1
l 1 -1
v -1
h 1
l 5 -5
M759 155
v -16
l -8 -9
l -8 -17
l 16 -12
l -2 -9
l 2 -1
l 3 4
l 12 7
l 2 3
l 2 1
l 10 -1
l 9 5
l 2 -1
l 1 -14
l -4 -5
l -7 1
l 2 -7
l -10 -6
l 1 -2
l 1 -1
h -3
l -1 -2
l 2 -7
l 8 -8
l 12 -1
l -2 -14
l -1 -1
l -10 -2
h -2
l 2 -2
l -3 -14
l -8 -8
M434 104
l 1 -6
l 5 -3
l 2 -7
l 3 4
l 1 -6
l 5 4
l 10 8
l 7 4
l 6 2
l 11 2
v 10
l -6 24
h -1
l -3 2
v 31
l -2 6
v 11
l 5 -2
l 7 -2
l 12 3
l 5 4
l 2 -1
l 4 1
v 2
l 2 1
h 1
l 4 -8
l -1 -19
l 1 -5
l -7 -6
l -4 -12
l -1 -8
l 6 -10
l 5 -6
l 15 -2
l 8 3
l 9 5
l 6 -1
v 4
h 6
l 3 -4
l 6 2
l -1 -3
h -1
l 1 -1
l 6 2
l 10 -3
v 4
l 1 1
l 1 2
h 23
l 1 3
l 13 -3
l 12 -8
h 3
M85 228
l -2 -8
l -8 -7
l -8 -2
l 5 -5
l 5 4
l 7 1
l 6 1
v -10
l 4 -2
l -16 -1
l -1 2
h -4
v -12
l 6 -3
l -4 -3
l 5 -2
v -5
l -4 -2
l -19 -2
M55 173
l -2 1
M410 236
v -24
l 1 -13
v -4
h -1
l -8 -3
l -2 -13
l -4 -1
l -1 1
l -5 -2
l -5 -1
l -2 -1
l -2 -1
h -1
l -1 -1
h -2
l -8 3
l -10 -2
l 2 -11
l -2 -3
l 7 -1
l 3 -4
h 8
l 8 -2
l 3 -1
v -5
l 4 -1
l 1 -9
l -2 -3
l 1 -5
h 8
v 4
l 10 4
l 6 2
h 11
l -1 -1
v -5
l 7 -7
l 1 -22
l -19 -10
l -15 -2
l -12 9
l -1 -8
l -13 -1
h -1
l -3 12
l -35 -5
l -2 -2
v -18
l -2 -5
l 4 -7
l 2 -14
l 20 3
l 5 -1
v -4
l 9 -8
l 2 1
l 7 -7
l 6 5
l -4 2
l 8 7
l -1 4
h -1
l 2 3
l 5 1
l 2 4
l 6 -11
v -4
h 3
l 7 4
l 7 -7
l 3 8
l 5 4
h 1
l 3 8
l 5 1
l 4 15
h 3
l 2 5"/>
</svg>