<svg version="1.1" xmlns="http://www.w3.org/2000/svg" width="1000" height="955" viewBox="0 0 1000 955">
  <path d="M688 834
v 12
l 8 7
l 2 13
l 2 7
l -4 6
l 4 1
l -2 2
l 5 -1
l 2 5
l 4 20
l 8 5
l -3 9
l 7 -4
l 1 4
h -11
v 1
h 1
l -1 1
h -2
v 1
v -1
h -1
v 1
h -1
l -1 -1
v 1
l -1 1
v 3
h -1
h 1
v 2
h -1
h 1
v 1
h -3
v -1
v 1
h -3
v -1
l -1 -1
h -1
v -1
h -2
v -2
v 1
h -1
v 1
h -1
v -2
h -1
v -2
h -2
l -1 -1
h -1
h 1
v -1
v 1
h -1
v -1
l -2 -1
l -1 -1
l -1 -1
h 1
v -1
v 1
h -1
v -2
l -2 -1
h -2
v 1
v -1
l -1 -1
v 1
h -4
l -1 -1
l -1 1
v -1
h -1
v -1
h -2
h 1
h -1
v -1
h -1
v 1
h -3
v -1
l 1 -1
h -1
v 1
h -3
l -1 1
l -1 -1
l 1 1
h -1
l -1 -1
l -1 1
l -1 -1
h -1
l -1 1
h -1
v -1
h -1
v 1
l -1 1
l -2 1
h -1
v -1
h 1
v -1
h -1
v -1
h -1
v 1
l -1 -1
h -2
l -1 1
h -1
l -1 -1
h -1
v 1
h -1
v -1
h -1
v -1
h -2
v 1
h -1
v -1
h -1
l -1 -1
h -1
v -1
h 1
l 1 -1
h -1
v 1
v -1
h -1
l -1 1
v 1
v -1
h -1
v -1
h -1
v -1
l -1 -1
v -2
l -1 1
h -1
v -2
v 2
h -2
v -3
h -2
v -1
h -2
v -1
h -2
l -1 1
h 1
h -3
v -2
l -1 1
v -1
l -1 1
l -2 -2
h 1
v 1
h -1
v 1
v -1
l -1 -1
v 1
h -1
v -2
h -2
v 1
h -1
v -1
l -1 1
l -1 1
h -1
v -1
h -1
v -2
h -3
v -1
h 2
l -1 -1
h -1
l -1 -1
h -1
l -1 -1
h 1
v 1
h 1
v -1
l -1 -1
h -3
v -1
h -1
v -2
h -1
l -2 -1
v 1
h -4
v 1
h -1
v -2
h -1
v -1
h -1
v 1
l -1 1
v -1
h -1
v -2
h -2
l -1 1
v -1
h -2
v -1
h -2
l -1 1
h -2
l -1 -1
v -1
l -1 -1
h -1
l 1 -1
h 1
h -1
v -1
h 1
v -2
l -1 -1
v -1
h -1
v -1
l -1 -1
h -1
l -1 -1
v -2
l -6 -15
v -4
l -2 -2
v -3
l -1 -1
l -1 -1
h -3
v -4
h -3
l -1 -1
l -1 -1
v -2
l 1 -1
h -1
l -1 -2
v -2
l -1 1
h -1
v -2
h -1
v -2
l 1 -1
v -1
h 1
v -1
l -1 -1
v -1
h 1
v -2
h -1
l 1 -1
v -4
l -1 -1
v -1
h -1
h 1
v -3
h -5
l 1 -1
v -2
l -1 -1
h -1
v 1
h -1
v -1
h -1
v -1
h 1
l 1 -1
l 1 -1
v -3
h 1
v -4
l -1 -1
v -1
l 1 -4
h -3
v -5
h 1
v -2
h -1
l -3 -3
h -1
v 1
h -1
l 1 -1
h -1
v -1
l -1 -1
h -2
v 1
h -2
v -2
l -1 -1
h -1
l -1 1
l -1 -1
l -1 -1
l -1 -2
h -1
v -1
l -1 -1
h -2
v -1
h -1
v -2
l -1 -2
l -1 1
v 1
h -1
v -1
l -1 -1
v -1
h -2
v -5
h -1
l -1 -1
v -5
h -1
v -2
h -1
v -1
h 1
l -2 -2
h -1
l -2 -1
v -1
h -1
v -2
h -1
v -4
h -3
v -3
h -1
v -1
h -1
v -2
h -1
l -1 -1
h -2
v -1
h -2
l -1 -1
v -1
h -2
l -1 -1
v -2
l -1 -1
l -1 1
v -1
h -1
v -1
h -1
l -2 -2
v -2
l 1 -1
l -1 -1
l -1 -1
v -1
h -1
v -2
h -1
v -1
l -1 -1
v -2
l 1 -1
l -1 -2
v -1
h -1
v -1
h -1
l 1 -1
h 1
l 1 -1
v -1
h -2
l -2 -1
l -1 -1
h -1
v -2
h 1
v -3
h -2
l -1 -1
v -4
h -4
v -2
l -1 -1
v -3
l 1 -1
l -1 -1
v -1
l -1 -1
v 1
v -1
h -1
v -4
l -2 -1
h -1
v -1
l -1 -3
l -1 -1
h 1
h -1
v -1
h -1
l -1 -1
v 1
v -1
h -1
v -1
h 1
h -1
l -1 -2
l 1 -1
v -4
l -1 -1
v -2
l -1 -1
l 1 -1
l -1 -2
l -1 -3
h -2
l -1 -1
v -1
l -2 -1
l -1 -1
v -4
l -1 -2
h -1
v -1
h -1
l -1 -1
h -1
l -2 -1
h -1
v -1
l -1 -2
h -1
v -1
h -1
v -1
h -1
l -1 -1
h -1
v -1
h -1
l -1 -1
h -2
v -3
h -1
v -1
h -1
v -2
l -1 -1
v -1
l -2 -1
h -2
l -2 -1
l -2 -1
l -1 -1
v -1
h -1
l -2 -1
h -2
l -1 -1
l 1 -1
v -1
l 1 -1
h -1
v -5
h -1
l -1 1
v 3
l -1 1
h -1
l -1 -2
v -1
l 1 -1
v -3
l -1 -1
h -2
l -1 1
h -1
v -3
l -1 -1
l -1 -1
v -2
h -1
v -3
l -1 1
h -1
v 1
h -1
v -2
h -1
l 1 -1
l -1 -1
h -1
l -1 1
v 1
h -1
l -1 1
h -1
v -4
h -2
l -1 1
v 2
h -1
l -1 -1
l -1 1
l -2 1
h -1
v -1
h -5
v -1
h -3
v -1
h -1
v 1
h -2
v -2
h -1
v 1
l -1 -1
h -6
l -1 1
h -1
l 1 -1
h -3
v -1
h -1
v 1
h -4
l -1 1
h -1
l -4 -1
h -2
l -1 -1
v -1
h -2
v -1
h 1
l -1 -1
h -3
l -2 -1
h 1
h -2
v -1
h -1
v -1
h -1
l -1 -1
v 1
h -1
v 1
h -2
v 1
h -1
v 3
l -1 2
h -1
v 2
h -2
l -2 -1
h -1
l -1 -1
v 1
h -1
v -1
h -2
v 2
h -2
v 1
l -1 1
v -2
l -1 -1
v 2
h -3
l -1 1
l -1 1
h -1
l -1 -1
h -1
v 1
h -1
v 2
l -1 1
v 2
h -1
v 1
h -1
v 1
h -1
v 4
h -1
v 1
l -1 -1
l -1 1
h 1
v 1
l -1 1
v 1
h -1
l -1 1
v 6
h -1
v 2
h -1
v 3
h 1
l 1 1
h -2
v 2
h -1
v 1
l -1 1
h -2
v 3
h -1
v 2
l -1 1
l 1 1
h -1
l 1 1
v 1
h 2
v 2
h -1
v 1
h -2
v -1
l -1 1
v 1
h -2
v 1
h -2
v -1
l -2 2
v 1
h -1
v 1
l -1 1
v 1
h -1
v 2
l -1 1
v -1
l -1 1
h -1
v 1
h -1
l 1 1
h -1
v -1
l -1 1
v 4
l -1 1
v 2
h -2
l -1 1
h -1
v -1
h -2
l -1 -1
h -2
l -1 1
h -1
v -1
l -1 -1
v 2
h -1
v -2
l -1 -1
h -1
v 1
v -2
h -1
l -1 -1
h 1
l 1 -1
h -2
v 1
l -1 1
h -1
l -1 -1
v -1
l -1 1
v -1
h -3
l 1 -1
h -1
v -1
h -1
v -1
h -2
h 1
l -1 -1
h -1
v -1
l -1 -1
v -1
h -2
h 1
v -1
h -1
v -1
h -1
l -1 -1
h 1
h -3
v -1
h -5
v -1
h -1
l -1 -1
h -3
l -1 -1
v -2
h -1
l -1 -1
v 1
h -1
v -4
h -2
v -1
h -2
l -1 -1
h -7
v -1
h -4
v -1
h -2
v -1
h -1
l -1 -1
v -1
h -1
l -1 -1
v 1
v -1
h -1
v -1
l -1 -1
v -1
h -2
v -1
h -2
v -1
h -1
v -2
h -1
v -1
h -1
v -4
h -1
v 1
v -1
h -1
v -1
l -1 -1
h -3
v -1
h -2
v -1
v 1
h -3
v -1
h -1
v -1
l -1 -1
v -1
l -1 -1
l -1 -1
l -1 -1
h -1
v -1
h -1
v -1
h -2
v -1
h -2
l 1 -1
h -1
v -1
l -1 -1
l -1 -1
v -1
h 1
l -1 -1
v -3
h -1
h 1
h -1
v -1
h -1
v -1
h 1
h -1
v -3
h -1
v -2
v 1
l -1 -1
h -1
v -3
h -1
h 1
h -1
v -2
h -1
v -1
h -1
v -2
v 1
v -2
h -1
v -2
h 1
l -1 -1
h 1
h -1
v -1
h 1
h -1
v -5
h -1
v -4
h 1
l 1 -1
h -1
h 1
v -1
h -1
v -1
h 1
l -1 -1
v -2
h 1
h -1
v -1
h 1
v -3
h -1
v -1
l -1 -1
v -1
l 1 -1
h -1
l -1 -1
v -1
h -2
v -2
v 1
h -1
v -1
h 1
v -1
l -1 -1
h -1
v -1
h -1
v -1
h -1
l -1 -1
v -1
l 1 -2
v 1
l -1 -1
h -1
v -1
h -1
v -3
h -1
l 1 -1
l -1 -1
v -5
l -1 -1
v -3
h -1
v -2
l -1 -1
l -1 -1
v -1
h -2
v -1
h -1
v -3
l -1 -1
v -1
l -1 -1
h -2
v -1
l -1 1
h -1
v -1
l -1 -1
h -1
l -1 -2
v -1
h -1
v -1
h -3
v -2
h -1
v 1
h -1
v -2
h -3
v -2
h -1
v 1
h -1
v -1
l -1 -1
v 1
v -1
l -1 -1
v 1
v -1
h -1
v 1
h -1
v -1
l -1 -1
h -1
v -1
l -1 1
v -2
h -3
v -1
h 1
h -1
v -1
l -1 -1
l -1 -1
h -1
v -1
h -1
v -1
h -1
v -1
h -1
v -1
h -1
v -1
l -1 -1
l -1 -1
h -1
v -1
h -1
l -1 -1
v -1
h 1
l -1 -1
l -1 -3
v -2
h -1
l -2 -1
h -1
v -2
l -2 -1
h -1
l -1 -1
h -1
l -4 -3
v -1
l -1 -1
l -3 -5
v -1
h -1
v -2
h -1
v -1
h -2
v -1
h -3
v -1
l -1 -2
v -2
l -1 -1
h -1
l -1 -2
h -2
l -4 -1
l -1 -1
l -2 -1
h -1
l -4 -3
v -1
h -1
l -1 -1
v -2
l -1 -1
v -2
l -1 -1
l -1 -1
h -1
v -2
l -1 -1
v -3
h -1
l -1 -1
v -2
h -1
v -3
l -1 -1
v -1
l -1 -2
h -2
l -1 -1
h -1
v -1
h -2
v 1
h -3
v -1
l -1 -1
l -1 -1
v -1
l -5 -3
v -2
h -2
v -5
l 1 -1
h 1
l -1 -1
v -1
l 1 -2
h -1
v 1
v -1
l -1 -1
l 4 -2
l 11 1
h 4
l 28 2
h 11
l 38 2
l 28 1
h 7
l 21 1
l 31 2
h 9
l 18 1
h 1
l 27 1
h 18
l 1 -8
l 1 -2
v -35
l 1 -2
v -15
l 1 -20
l 1 -25
v -11
l 1 -15
v -5
l 1 -18
v -11
l 1 -17
v -12
l 1 -8
v -30
l 1 -1
v -33
l 1 -3
v -26
l 1 -11
v -18
l 1 -14
v -32
l 1 -9
v -1
h 54
l 5 1
h 47
l 5 1
h 97
v 165
h 3
v -1
h 3
v 1
h 1
v 1
h 1
v 1
h 1
v 2
h 1
l 1 1
l 1 1
v 1
h 1
v 1
l 1 1
l 1 1
h 1
l 1 2
h 1
l 1 1
h 1
v 2
h 6
v 1
h 2
l 1 -2
h -1
l 1 -1
l 1 -1
h 2
l 3 1
l 1 1
h 2
v 1
v -1
l 1 1
v 1
h 1
l 1 -1
l 1 1
v -2
l 1 -1
v -3
h -1
h 1
v -1
h 2
v 1
l 1 1
l 1 1
h 3
v 1
h 1
v 1
h -1
v 1
h 1
l 1 1
h 1
h -1
v 1
h 1
v -1
v 2
h 1
l -1 1
h 2
v 1
h 1
h -1
v 3
h 1
v 4
l 1 1
v 2
h 3
v -1
h 1
v 1
h 9
v -1
h 1
l 1 1
h 3
v 1
h 1
v 1
h 2
v 1
h 1
v 1
h 3
v -1
h 1
v 1
h 1
v 1
h 2
v 1
h 1
v 1
h 1
v -1
h 4
v -1
h 1
v -1
h 1
v -1
h 3
v 1
h 1
v -1
h 1
v 1
h 1
l 1 1
v 1
h 1
h -1
v 1
h 1
l 1 1
v 2
h 2
l 1 1
h 1
v -1
h 4
l 1 -1
v -3
h 2
v -1
h -1
v -1
h 1
l 1 -1
h 1
v 1
h 2
l 1 1
h 1
l 1 1
l 1 -1
l 1 1
v -1
l 1 1
h 1
l 1 1
h 3
v -1
l 1 -1
v -1
h 1
v -1
h 1
l 1 1
l 1 1
v 2
l -1 1
v 1
h -1
v 2
h 1
l 1 1
l 1 1
h -2
v 1
h 1
v 1
h 1
v 1
h -1
h 1
l 1 1
h 6
v -1
l 1 1
h 1
v 2
l -1 1
l -1 1
h 1
l 1 1
l -1 1
l -1 1
v 2
l 1 1
h 3
l 1 1
h 1
v 1
h 4
l 1 -1
l 1 -1
v -1
v 1
l 1 -1
v -1
h 1
v -2
h 2
v -2
h 2
l 1 -1
v -2
h 1
v -1
h 3
l 1 1
h 1
v 1
h 2
v 4
l 1 1
h 3
l 1 -1
h 1
l 1 -1
h 1
v 1
h 1
l 1 1
h 1
v 4
h -1
v 1
l 2 1
h 4
l 1 -1
h 1
v -3
l 1 -1
v 3
l 1 -1
v -2
l 1 1
h 1
v 1
h 3
v -3
l 1 -1
v -1
h 2
l 1 1
l 1 1
v 2
h 1
v 2
l -1 1
h -1
l -1 1
l 1 3
v 1
h 1
v 1
h -1
v 1
h 1
l 1 1
v 2
h 4
v -1
h 1
v -7
l 1 -1
h 2
v -1
h -1
l -2 -1
v -1
h 2
l 1 1
v 1
h 1
v -1
h 1
l 1 -1
v -1
l 1 -1
v -6
h 1
v 1
h 1
l 1 -1
h 1
l 2 1
h 1
l 3 6
l 5 3
l 7 -6
l 2 -2
l 2 2
h 2
v 1
h -1
v 1
l -1 1
v 1
l 1 1
l 1 1
h 5
v 2
l 1 1
l 1 1
h 1
l 1 -1
h 3
l 1 1
v 1
l 1 1
v 1
l 2 1
v 1
h 1
v 1
h 3
v -2
l 1 -4
l 1 -1
l 1 1
l 5 1
l 2 -1
v -4
h 1
l 1 -1
l 2 -1
h 1
l 1 -1
h 2
v 1
l 1 -1
v -1
h 1
v 1
l 1 -1
h 1
v -1
l -1 -1
h 1
l 1 1
v 1
l 2 -1
h 1
v -1
l 2 -1
l 2 1
v 1
l 2 1
h 1
v 1
h 1
l 1 -1
v -1
h 2
l 1 1
v -4
l 1 -1
h 2
l 2 1
h 1
v -1
h 3
l 1 -2
l 2 -1
v -1
l 1 1
h 2
l 1 2
l 1 2
l 1 -1
v 1
l 4 1
h 2
l 6 -1
h 1
l 1 -1
l 2 -1
l 1 -1
l 1 2
h 1
v -5
h 1
v -2
l 1 1
h 2
l 1 1
h 3
v 3
l 3 -1
h 1
v 1
h -1
v 1
h -1
v 1
h 2
v -3
v 2
v -1
l 1 1
v 1
h 1
v 1
h 4
v 1
h 1
v -1
h 1
v 2
h 1
v 1
h -1
v 1
l 1 1
h 1
v -2
h 1
v 4
h 1
v 1
h 2
l 4 2
v -2
h 1
v 2
h 2
l 1 -2
h 1
v 1
h -2
l 1 2
h 1
v -1
h 1
v 1
h -1
v 1
h 1
v -1
h 1
l -1 1
h -1
l 1 1
l 1 1
h 1
v -2
l 1 1
v 1
h 1
l 1 -1
l 1 1
v 1
h 1
l 1 1
v -2
h 1
v 1
l 1 1
h 1
v -2
l 1 1
l -1 1
h 1
v -1
l 1 1
h -1
v 1
h -1
v 1
l 1 -1
h 2
v 1
h -2
h 4
h -1
v 1
h 1
v -1
h 1
v 1
l 1 -1
h 1
h -1
h 2
l 1 -1
l 1 1
h -2
h 1
v 1
l -1 1
l 1 1
v -1
v 1
h 2
v 1
l 1 1
h 1
v -1
l 1 1
h -2
v 1
l 1 1
h 3
v -2
l 2 1
l 1 1
v -1
l 1 -2
h 1
v 1
h -1
l 2 1
v -2
l 2 2
l 2 -1
v -2
h 2
v -1
h 2
v 2
h 4
v -1
h 1
l 1 1
h 1
l -1 1
h 2
l 1 15
v 9
l 1 14
v 5
l 1 2
v 12
l 1 6
v 17
h 1
v 15
l 1 2
v 16
l 1 2
v 16
l 1 1
v 1
h 2
v 1
l 1 1
v 1
l 1 1
v 2
h 4
v 1
l -1 1
h 2
l 1 1
v 1
h 1
v 2
h 1
v 1
l 1 1
v 1
h 2
v 1
l 1 1
v 3
h -1
h 1
l 1 1
v 2
h 2
l -1 2
l -1 1
v 5
v -1
l -1 1
v 2
l 1 1
l 1 1
h -1
h 1
v 2
h 1
l 1 1
h 3
l 2 2
h -1
l -1 1
v 2
l 1 1
h 2
v 1
h 1
v 1
l -1 1
v 1
h 1
v 1
h 2
v 2
h 2
v -1
v 2
h -2
v 3
h -1
v 2
h 1
l 1 1
v 1
h 3
l 1 1
v 3
h 1
v 5
l 1 1
l 2 -2
h 1
v -1
v 1
l 1 1
v 1
h -1
l 1 1
v 2
l -1 2
h -1
h 1
v 1
h 1
h -1
v 1
l 1 -1
v 1
h 1
l 1 1
l -1 1
l 1 1
h 1
h -1
v 1
h -1
v 1
h -1
v 1
l -1 -1
h -1
v 1
l 1 1
v 1
h -1
v 1
h 2
v 1
h 2
v 3
h -2
v 2
h -1
v 2
h 1
v 4
h 1
l -2 2
h -1
l 1 1
h -1
v 2
h -1
v 1
v -1
v 1
h -1
h 1
v 1
h -1
v 1
h 1
h -1
v 1
h 1
v 1
v -1
l -1 1
v 2
l -1 1
h -1
l -1 1
v 1
h -1
v 4
h -1
h 1
v 2
h -1
h 1
h -3
v 2
l -1 1
h 1
h -1
v 2
h 2
v 5
h 1
v 2
h 1
h -1
v 1
h -1
v 1
v -1
l -1 1
h 1
h -1
v 1
v -1
v 1
l -1 1
v 1
h -1
h 1
h -1
v 1
l 1 1
h -1
l 1 1
h -1
l 1 2
v 1
h 1
v 1
h 1
v 1
h 1
l 1 1
v 4
l -1 1
v 1
h 1
h -1
v 1
h 1
v 2
h 1
v 1
h -1
v 1
h 1
v 1
h 1
h -1
v 2
h -1
l -1 1
v 2
h 1
v 1
h 1
v 1
h -1
v -1
v 2
l -1 2
l -3 2
h -1
l -1 3
l -3 8
v 1
l -1 1
h -1
l -1 1
l -2 4
l 3 1
v 3
l 2 2
v 1
h 1
v 1
l 1 2
h -12
l -9 2
l -17 9
l -1 1
l -21 11
l -8 8
l 8 -11
h 4
l 2 -5
l 6 2
l 2 -5
h -1
v 1
h -1
l -1 1
h -1
v -2
h -1
v -1
h -3
l -1 1
h -1
l -1 1
h -2
l -1 1
h -1
v 1
h -3
l -1 1
h -4
v -2
l 6 -6
v -12
l -10 -3
l -4 12
l -3 -2
l -10 -4
l -2 -8
l -1 8
h -6
l 15 5
h -1
v 1
h -1
v 3
l 1 2
h 1
v 1
h -1
v 1
l -1 1
v 3
h 1
v 1
h 1
v 1
h 2
v 1
h 3
l -2 7
l 4 -2
l 2 6
l -2 6
l -2 -1
l -9 10
l -7 1
l -1 7
l -5 12
l -8 7
l -10 6
l -16 8
h -7
l -10 4
l -1 6
l 6 -1
l -23 12
l -9 8
l 6 -8
l 14 -7
l 4 -1
l -3 -5
l -10 5
l -5 -4
l 3 -4
l -7 1
l -3 4
l -5 -3
l -3 -3
v 10
l -3 -6
l -5 3
l -2 -6
h -1
v 1
v -2
h -6
v 1
l 7 10
l 13 11
v 3
l -10 3
l -8 5
l -5 -6
l -6 -3
v 1
h 1
v 2
l -1 1
l -5 -2
l 4 5
v 2
l 1 1
v 1
l -1 4
v 4
l -2 3
l -7 5
l -2 -10
l -2 9
l -3 -5
l -5 4
h -7
l 1 3
l -5 6
l 7 1
l -3 6
l 5 -8
l 6 -3
l 1 5
l -8 11
v 2
l -2 2
v 2
h -1
v 2
h -4
v -1
h -1
h 2
v -2
v 1
h -1
v -1
h -1
v -2
h -5
v 1
h -2
v 1
l -1 1
v -1
h 1
v -2
h -3
l -6 1
v -1
v 2
l -1 -1
v 1
h -1
v -2
h -2
v 1
h -1
v 1
l 1 1
h 2
v 1
h 8
l -1 4
l 4 6
l 6 2
l -5 11
l -2 14
l -4 7
l -9 3
l 5 -9
l -6 5
l -5 2
l -10 -10
l 7 12
l -9 1
h 11
v 3
h 9
l 7 -2
l -2 12
l -3 1
l 2 8
Z
M893 626
l -16 14
l 6 -10
Z
M758 721
l 5 -4
l 6 1
l -9 5
l -9 6
l -11 11
v -2
l 1 -2
l 1 -4
l 8 -3
Z
M738 740
l 1 2
l -11 11
l 2 -8
Z
M716 770
l 6 -10
l 3 1
l -5 6
l -6 11
Z
M702 842
l 1 -1
l 5 20
l -4 -6
Z
M703 841
l -2 -3
l 1 -26
l 1 -4
h -1
l 1 -8
l 7 -18
h 2
l -7 18
l -2 8
l -1 10
Z
M708 861
l 1 5
l 3 7
h -1
l -5 -4
l 2 -3
l -2 -6
Z"/>
<g class="districts">
<path data-race-id="TX01" d="M818 344
l 1 1
v 1
l 3 2
l 1 1
l 3 1
h 1
h -1
h 2
v -1
l 1 1
h 3
l -2 -9
v -1
h -1
v -1
h -1
l 1 -4
v -5
l 7 -3
l 1 -4
l 5 -1
v -3
h 4
l 1 -1
v -2
v 1
v -1
l 1 -1
v 9
l 1 21
l 12 -7
l 4 -1
l -1 1
v 1
l -3 16
l 12 -5
l 5 -7
l 1 1
h 2
l -1 -12
l 14 7
l 12 -1
l 7 -4
h 1
v 1
h 1
h -1
h 1
v 2
l 3 2
l 6 -4
l 4 4
v 6
h 1
v 15
l 1 2
v 16
l 1 2
v 16
l 1 1
v 1
h 2
v 1
l 1 1
v 1
l 1 1
v 2
h 4
v 1
l -1 1
h 2
l 1 1
v 1
h 1
v 2
h 1
v 1
l 1 1
v 1
h 2
v 1
l 1 1
v 3
h -1
h 1
l 1 1
v 2
h 2
l -1 2
l -1 1
v 5
v -1
l -1 1
v 2
l 1 1
l 1 1
h -1
h 1
v 2
h 1
l 1 1
h 3
l 2 2
h -1
l -1 1
v 2
l 1 1
h 2
v 1
h 1
v 1
l -1 1
v 1
h 1
v 1
h 2
v 2
h 2
v -1
v 2
h -2
v 3
h -1
v 2
h 1
l 1 1
v 1
h 3
l 1 1
v 3
h 1
v 5
l -22 2
l -9 3
l -1 1
v 1
h -1
l -5 1
l -23 7
l -4 -1
l -2 -1
h -3
v -1
l -2 -1
h -1
h 1
h -7
v -1
h -4
l -4 -2
l -2 -1
l -1 -1
v -2
l -1 -3
l -3 -4
l 1 -3
l -1 -2
l -1 -1
l -4 -1
v -3
l -2 -2
l -2 -2
l 10 -9
h -1
v -1
l -1 -1
l -3 -3
v -2
l -1 -2
l -1 -1
v -2
l -1 -7
h 2
l -1 -2
h -2
v -1
h 2
v -3
l 1 -1
v -1
l -4 1
l -1 -26
l -4 1
l -30 1
l -1 -2
v -3
l -2 -3
l 2 -2
l 1 -3
v -6
l -1 -1
h -1
v -1
l -2 -2
h -2
v -1
l -2 -2
l -1 -1
v 1
v -1
h -1
l -1 -3
Z"/>
<path data-race-id="TX02" d="M829 583
l -2 -3
v -2
l -1 -5
l 1 -1
v -1
l 1 -5
l 10 -1
l 1 -1
h 1
l 11 5
l 11 -13
l 6 15
l -1 2
l -3 4
l -7 4
l -6 -5
l -1 -3
l -3 -4
h -1
l -7 -1
l -5 2
v 6
l -1 2
l -2 6
h -1
l 3 3
h 1
l 5 1
l 4 5
l -1 2
l -2 3
h -1
v -5
l -2 -1
l -3 -3
l -11 2
v -8
Z"/>
<path data-race-id="TX03" d="M727 313
v -15
h 12
l 4 -4
v 1
h 1
v -5
h 8
v 1
l 6 -1
v 3
l -1 1
v 1
h 1
v 2
l 3 7
l -2 2
l 1 1
l -2 3
v 3
l -2 3
l -1 2
l -2 -1
h -6
l -4 4
h -16
Z"/>
<path data-race-id="TX04" d="M718 240
h 1
l 2 1
h 1
l 3 6
l 5 3
h 5
l 2 -6
l 2 -2
l 2 2
h 2
v 1
h -1
v 1
l -1 1
v 1
l 1 1
l 1 1
h 5
v 2
l 1 1
l 1 1
h 1
l 1 -1
h 3
l 1 1
v 1
l 1 1
v 1
l 2 1
v 1
h 1
v 1
h 3
v -2
l 1 -3
v -1
l 1 -1
l 1 1
l 5 1
l 2 -1
v -1
l 1 -3
l 1 -1
l 2 -1
h 1
l 1 -1
h 2
v 1
l 1 -1
v -1
h 1
v 1
l 1 -1
h 1
v -1
l -1 -1
h 1
l 1 1
v 1
l 2 -1
h 1
v -1
l 2 -1
l 2 1
v 1
l 2 1
h 1
v 1
h 1
l 1 -1
v -1
h 2
l 1 1
v -4
l 1 -1
h 2
l 2 1
h 1
v -1
h 3
l 1 -2
l 2 -1
v -1
l 1 1
h 2
l 1 2
l 1 2
l 1 -1
v 1
l 4 1
h 2
l 6 -1
h 1
l 1 -1
l 1 1
l 1 -2
l 1 -1
l 1 2
h 1
v -5
h 1
v -2
l 1 1
h 2
l 1 1
h 3
v 3
l 3 -1
h 1
v 1
h -1
v 1
h -1
v 1
h 2
v -3
v 2
v -1
l 1 1
v 1
h 1
v 1
h 4
v 1
h 1
v -1
h 1
v 2
h 1
v 1
h -1
v 1
l 1 1
h 1
v -2
h 1
v 4
h 1
v 1
h 2
l 4 2
v -2
h 1
v 2
h 2
v -1
l 1 -1
h 1
v 1
h -2
l 1 2
h 1
v -1
h 1
v 1
h -1
v 1
h 1
v -1
h 1
l -1 1
h -1
l 1 1
l 1 1
h 1
v -2
l 1 1
v 1
h 1
l 1 -1
l 1 1
v 1
h 1
l 1 1
v -2
h 1
v 1
l 1 1
h 1
v -2
l 1 1
l -1 1
h 1
v -1
l 1 1
h -1
v 1
h -1
v 1
l 1 -1
h 2
v 1
h -2
h 4
h -1
v 1
h 1
v -1
h 1
v 1
l 1 -1
h 1
h -1
h 2
l 1 -1
l 1 1
h -2
h 1
v 1
l -1 1
l 1 1
v -1
v 1
h 2
v 1
l 1 1
h 1
v -1
l 1 1
h -2
v 1
l 1 1
h 3
v -2
l 2 1
l 1 1
v -1
l 1 -2
h 1
v 1
h -1
l 2 1
v -2
l 2 2
l 2 -1
v -2
h 2
v -1
h 2
v 2
h 4
v -1
h 1
l 1 1
h 1
l -1 1
h 2
l 1 15
v 9
l 1 14
v 5
l 1 2
v 12
l 1 6
v 11
l -4 -4
l -6 4
l -3 -2
v -2
h -1
h 1
h -1
v -1
h -1
l -7 4
l -12 1
l -14 -7
l 1 12
h -2
l -1 -1
l -5 7
l -12 5
l 3 -16
v -1
l 1 -1
l -4 1
l -12 7
l -1 -21
v -9
l -1 1
v 1
v -1
v 2
l -1 1
h -9
l -25 1
l -1 1
l 4 20
h -1
l -3 -1
l -2 -1
h -4
l -2 -1
v -1
h -1
v 1
h -1
l -2 -1
l -2 -1
l -1 -1
l -3 -3
h -26
v 3
l -16 1
v -15
h 3
v -2
l 1 -1
l 1 -2
l 2 -3
v -3
l 2 -3
l -1 -1
l 2 -2
l -3 -7
v -2
h -1
v -1
l 1 -1
v -3
l -6 1
v -1
h -8
v 5
h -1
v -1
l -4 4
h -12
v -12
l -7 -1
l -1 -6
v -30
Z"/>
<path data-race-id="TX05" d="M736 329
l 3 2
l -2 -2
h 5
v 2
h 1
v 1
l 1 4
l 2 -2
l 1 -1
l 4 4
v -1
l 16 -1
v -3
h 26
l 3 3
l 1 1
l 2 1
l 2 1
h 1
v -1
h 1
v 1
l 2 1
h 4
l 2 1
l 3 1
h 1
l -4 -20
l 1 -1
l 25 -1
h 5
v 3
l -5 1
l -1 4
l -7 3
v 5
l -1 4
h 1
v 1
h 1
v 1
l 2 9
h -3
l -1 -1
v 1
h -2
h 1
h -1
l -3 -1
l -1 -1
l -3 -2
v -1
l -1 -1
v 16
l 1 3
h 1
v 1
v -1
l 1 1
l 2 2
v 1
h 2
l 2 2
v 1
h 1
l 1 1
v 6
l -1 3
l -2 2
l 2 3
v 3
l 1 2
l 30 -1
l 4 -1
l 1 26
l 4 -1
v 1
l -1 1
v 3
h -2
v 1
h 2
l 1 2
h -2
l 1 7
v 2
l 1 1
l 1 2
v 2
l 3 3
l 1 1
v 1
h 1
l -10 9
l -2 -2
l -2 -1
h -2
l -1 -1
v -4
l -3 -1
l -4 -2
h -2
l -4 -2
l -26 5
l -7 4
l 2 -10
l -6 1
v -7
h -7
v -5
l -7 -3
l -3 -13
l -3 -5
h -1
v -1
l -3 -5
l -1 -7
l -3 -2
v -1
l -3 -1
h -1
l -2 -3
l -11 -6
l -5 -3
v -1
h 1
v -2
l -7 -12
l -4 -2
l -1 -10
h -3
h 1
l -3 -8
l 1 -4
l -7 1
v -2
h 1
l -1 -2
Z"/>
<path data-race-id="TX06" d="M694 352
v -1
v 1
l 1 3
l 4 -5
l 1 -1
l 2 -2
v -3
v 1
v -1
v 1
h 1
l -2 -2
l -2 -2
l 3 1
h 1
l 2 -1
l 1 -1
l 6 -1
l 1 -1
l 1 1
v 2
h -6
l 1 2
l 1 2
l -1 1
v 1
l 1 -1
l 5 1
v 12
h 36
l 7 12
v 2
h -1
v 1
l 5 3
l 11 6
l 2 3
h 1
l 3 1
v 1
l 3 2
l 1 7
l 3 5
v 1
l -30 19
l -16 -1
l -14 -22
l -4 2
l -10 -18
l -1 -24
h -21
v -8
Z"/>
<path data-race-id="TX07" d="M823 577
l 2 1
h 2
v 2
l 2 3
h -6
v 8
l 11 -2
l 3 3
l 2 1
v 5
h 1
l -2 3
l -3 -1
v -1
h -1
l -2 -4
l -12 2
l -4 -2
v -4
l -1 -4
v -1
l 5 -9
Z"/>
<path data-race-id="TX08" d="M775 480
l 1 -2
l 1 -1
h 1
l 1 -2
l 2 -4
l 10 -4
l 2 -3
l 2 -1
h 2
v 2
h 1
l 7 -4
l -1 -1
l 14 -1
l -4 -4
l -2 -8
l -1 -2
l 7 -4
l 26 -5
l 4 2
h 2
l 4 2
l 3 1
v 4
l 1 1
h 2
l 2 1
l 2 2
l 2 2
l 2 2
v 3
l 4 1
l 1 1
l 1 2
l -1 3
l 3 4
l 1 3
v 2
l 1 1
l -6 8
l -6 5
l -13 15
l 5 4
l 1 10
h 8
l -1 7
l 14 2
l -1 4
l -10 8
l -12 6
l 5 14
l -11 13
l -11 -5
h -1
l -1 1
l -10 1
l -1 5
v 1
l -1 1
l -5 -6
v -1
h 1
l 11 -2
l -2 -1
h -1
l -3 -4
v 1
l -1 1
h -1
l -2 1
h -1
v 1
v -1
v 1
l -1 1
v -1
v 1
v -1
v 1
h -2
l -6 2
h -2
l -1 -14
l -21 3
v -5
l -5 -4
l 3 -10
h -1
l -1 -2
v -1
v 1
v -1
l -2 -7
l -1 -1
l -1 -3
l 1 -1
v -5
l -1 -2
l 1 -1
v -4
v 1
v -2
l -1 -1
v -1
l 1 -2
h -1
v -4
l -1 -2
v -3
l -1 -1
l -2 -3
v -2
l -1 -1
l -1 -1
l 1 -1
v -2
l -1 -1
l -1 -1
Z"/>
<path data-race-id="TX09" d="M820 597
l 12 -2
l 2 4
h 1
v 1
l 3 1
l 2 -3
l 2 -3
l 1 4
h 7
v 6
l -5 2
h -6
l -1 5
h -6
l -2 -7
v -2
l -5 -3
l -4 1
Z"/>
<path data-race-id="TX10" d="M656 536
l 4 -1
l 4 4
l 1 2
l 3 2
h 4
h -1
h 1
l 2 2
l 3 -6
l 2 -2
l 5 2
v 2
l 1 2
l 8 2
v 1
h 11
l 7 4
l 8 -5
l 4 1
l 5 -6
l 3 -3
l 1 1
v 1
h 2
v 1
h 1
l 1 1
h 1
v 1
v -1
v 1
h 1
v 1
l 1 1
l 1 2
h 1
v 1
l 1 1
h 2
l 2 1
l 2 1
h 2
l 3 -1
l 1 -1
l 7 -2
l 7 -1
l 6 -3
h 10
v 4
l 5 4
v 5
l 21 -3
l 1 14
h 2
l 6 -2
h 2
v -1
v 1
v -1
v 1
l 1 -1
v -1
v 1
v -1
h 1
l 2 -1
h 1
l 1 -1
v -1
l 3 4
h 1
l 2 1
l -11 2
h -1
v 1
l 5 6
l 1 5
h -2
l -2 -1
h -3
l -5 9
v 1
l 1 4
v 4
l -6 -4
l -14 6
l 1 8
l -5 3
l -7 -3
l -10 12
l -3 9
l -20 13
l -2 -1
l 8 -6
l -17 -20
l -7 -5
l -20 1
v -2
l -13 -11
l 8 -10
l 2 -9
l -3 -5
l -10 -1
l -3 -9
l -8 -2
l -3 1
v -1
l -2 -3
l -1 -3
v -4
l -8 -1
l -2 -2
l -1 1
l 3 2
l -2 2
h -3
l -3 -2
l 2 -3
h -2
l -10 -5
Z"/>
<path data-race-id="TX11" d="M283 361
l 11 1
h 38
l 13 1
l 1 -37
h 36
v 37
l -1 37
l 31 1
h 6
v -30
l 1 -7
h 36
v 37
l 31 1
h 43
v -37
h 38
v -16
l 5 -5
v 1
l 1 -1
l -1 -1
h 2
v 1
v -1
v 1
l -1 1
h 1
v 3
h 1
l 1 -1
l 2 -3
l 2 -1
l 21 5
l 4 -2
v -19
h 10
v -5
h 26
v 38
l 32 -1
l 1 20
l -12 1
l -12 8
v -1
l -5 1
l -14 1
l -7 -5
l 4 7
l -2 3
v 9
v -1
l 1 8
l 5 5
l 4 6
l -12 7
l -10 7
l 8 13
l 6 9
l -5 6
l -16 11
l 2 12
l 6 -2
l 1 7
v 9
l 3 11
v 19
h 5
v 6
h -70
v 19
h -60
v -68
h -83
v -30
l 1 -9
v -10
h -68
l -7 -1
h -34
l -2 -1
v -35
l 1 -2
l -20 -1
l 1 -2
Z"/>
<path data-race-id="TX12" d="M641 322
h 27
l 1 -6
l 7 2
l 2 -4
l 1 -2
v -1
l -3 -2
h -1
h 1
h -1
l -2 -2
l -1 -4
l 3 -4
l 2 6
l 9 1
h 2
v 16
h 3
l 7 10
l -1 1
l 6 -2
v 4
l -1 5
h -5
l -1 -2
l -4 -3
l -4 3
l 1 1
l 3 1
l 1 6
l 1 5
v 1
l -4 -1
v 8
h -17
l -32 1
Z"/>
<path data-race-id="TX13" d="M291 166
v -28
l 1 -3
v -26
l 1 -11
v -18
l 1 -14
v -32
l 1 -9
v -1
h 54
l 5 1
h 47
l 5 1
h 97
v 165
h 3
v -1
h 3
v 1
h 1
v 1
h 1
v 1
h 1
v 2
h 1
l 1 1
l 1 1
v 1
h 1
v 1
l 1 1
l 1 1
h 1
l 1 2
h 1
l 1 1
h 1
v 2
h 6
v 1
h 2
l 1 -2
h -1
l 1 -1
l 1 -1
h 2
l 3 1
l 1 1
h 2
v 1
v -1
l 1 1
v 1
h 1
l 1 -1
l 1 1
v -2
l 1 -1
v -3
h -1
h 1
v -1
h 2
v 1
l 1 1
l 1 1
h 3
v 1
h 1
v 1
h -1
v 1
h 1
l 1 1
h 1
h -1
v 1
h 1
v -1
v 2
h 1
l -1 1
h 2
v 1
h 1
h -1
v 3
h 1
v 4
l 1 1
v 2
h 3
v -1
h 1
v 1
h 9
v -1
h 1
l 1 1
h 3
v 1
h 1
v 1
h 2
v 1
h 1
v 1
h 3
v -1
h 1
v 1
h 1
v 1
h 2
v 1
h 1
v 1
h 1
v -1
h 4
v -1
h 1
v -1
h 1
v -1
h 3
v 1
h 1
v -1
h 1
v 1
h 1
l 1 1
v 1
h 1
h -1
v 1
h 1
l 1 1
v 2
h 2
l 1 1
h 1
v -1
h 4
l 1 -1
v -3
h 2
v -1
h -1
v -1
h 1
l 1 -1
h 1
v 1
h 2
l 1 1
h 1
l 1 1
l 1 -1
l 1 1
v -1
l 1 1
h 1
l 1 1
h 3
v -1
l 1 -1
v -1
h 1
v -1
h 1
l 1 1
l 1 1
v 2
l -1 1
v 1
h -1
v 2
h 1
l 1 1
l 1 1
h -2
v 1
h 1
v 1
h 1
v 1
h -1
h 1
l 1 1
h 6
v -1
l 1 1
h 1
v 2
l -1 1
l -1 1
h 1
l 1 1
l -1 1
l -1 1
v 2
l 1 1
h 3
l 1 1
h 1
v 1
h 4
l 1 -1
l 1 -1
v -1
v 1
l 1 -1
v -1
h 1
v -2
h 2
v -2
h 2
l 1 -1
v -2
h 1
v -1
h 3
l 1 1
h 1
v 1
h 2
v 4
l 1 1
h 3
l 1 -1
h 1
l 1 -1
h 1
v 1
h 1
l 1 1
h 1
v 4
h -1
v 1
l 2 1
h 4
l 1 -1
h 1
v -3
l 1 -1
v 3
l 1 -1
v -2
l 1 1
h 1
v 1
h 3
v -3
l 1 -1
v -1
h 2
l 1 1
l 1 1
v 2
h 1
v 2
l -1 1
h -1
l -1 1
l 1 3
v 1
h 1
v 1
h -1
v 1
h 1
l 1 1
v 2
h 4
v -1
h 1
v -7
l 1 -1
h 2
v -1
h -1
l -2 -1
v -1
h 2
l 1 1
v 1
h 1
v -1
h 1
l 1 -1
v -1
l 1 -1
v -6
h 1
v 1
h 1
l 1 -1
l 1 9
v 30
l 1 6
h -32
v 21
h -2
l -9 -1
l -2 -6
l -3 4
l 1 4
l 2 2
h 1
h -1
h 1
l 3 2
v 1
l -1 2
l -2 4
l -7 -2
l -1 6
h -53
v -32
h -185
v -63
h -9
v 4
h -8
v 7
l -5 1
l -1 -4
l -10 -2
l -4 -2
v -20
h -31
h 1
v -37
l -11 -1
h -26
l -36 -1
l 1 -1
Z"/>
<path data-race-id="TX14" d="M809 639
l 1 -3
l 8 -5
l 8 2
l 1 -1
l 5 -7
v -5
h 7
v -6
h 2
v 13
l 7 -2
h -1
l 11 -3
l -2 -4
v -9
h 2
v 3
l 1 1
h 5
v -1
l 2 -1
l 4 -2
h 1
v 1
h 1
v 1
h 1
v 1
h 2
v 1
h 3
l -2 7
l 4 -2
l 2 6
l -2 6
l -2 -1
l -9 10
l -7 1
l -1 7
l -5 12
l -8 7
l -10 6
l -6 -1
l -9 -10
h -6
v -4
h -1
v -3
h 1
l 1 -1
l -7 -5
v -2
Z
M911 606
l 4 -2
l 1 -1
l 3 -2
l -1 -23
h -6
l -1 -19
h 1
l 1 1
l 3 -1
h 1
l 4 -1
l 1 -1
v -3
h 4
v -1
h 1
v -1
v 1
v -1
h 1
l 4 1
l 1 1
h 2
l 6 11
l 14 3
v 10
l -1 1
h -1
l -1 1
l -2 4
l 3 1
v 3
l 2 2
v 1
h 1
v 1
l 1 2
h -12
l -9 2
l -17 9
l -1 1
l -21 11
l -8 8
l 8 -11
h 4
l 2 -5
l 6 2
Z
M893 626
l -16 14
l 6 -10
Z"/>
<path data-race-id="TX15" d="M582 811
h 12
v -8
l -1 -13
v -47
h 35
l -1 -7
v -40
l 18 -15
l -7 -8
l 14 -12
l -3 -4
l 1 -7
v -6
l -1 -3
l 5 -5
v -5
h -12
v -2
l -1 -4
v -3
l -3 -1
h -1
v 1
l -1 -2
v -1
l -4 -2
l -2 -1
l 4 -5
l 2 -2
l 8 -4
l 6 -6
l 10 -9
l 2 4
l 1 1
v 1
h 1
v -1
v 1
l 2 2
v 1
h 1
v 1
l 1 1
l 4 4
h 4
v 1
h 2
v 1
l -3 4
l -12 20
l 8 13
l 9 9
l -10 9
l 14 16
l -16 13
l -6 -2
h -1
h 1
h -1
v -1
h -1
l -9 1
l -5 2
l 20 42
l -5 6
l 1 4
h -27
l 1 5
v 47
l 1 16
h 18
l 1 4
v 48
l 3 3
l -4 14
l 11 1
v 26
h -1
h 1
l -7 -3
l -6 -2
h -5
l -4 -4
l -3 14
h -1
v -1
h -2
v 1
h -1
v -1
h -1
l -1 -1
h -1
v -1
h 1
l 1 -1
h -1
v 1
v -1
h -1
l -1 1
v 1
v -1
h -1
l 3 -14
l -9 1
l 3 -11
l -2 -4
h -9
l 8 -18
l 4 -12
h -7
l -40 1
v -35
Z"/>
<path data-race-id="TX16" d="M25 403
l 1 -1
h 1
l -1 -1
v -1
l 1 -2
h -1
v 1
v -1
l -1 -1
l 4 -2
l 11 1
h 4
l 28 2
l -2 27
l -17 -1
l -5 -2
h -3
l -1 -1
v -1
l -1 -2
h -2
l -1 -1
h -1
v -1
h -2
v 1
h -3
v -1
l -1 -1
l -1 -1
v -1
l -5 -3
v -2
h -2
v -5
Z"/>
<path data-race-id="TX17" d="M673 536
l 6 -1
l 4 1
h 2
l 9 5
h 2
l 2 2
l 13 -6
l -8 -22
l -4 -2
l 4 -13
l 13 -8
l -15 -25
l -5 4
l -6 -6
l -14 -23
l 9 -6
l 15 -8
l 17 -10
l 7 12
l 16 -9
l 16 1
l 30 -19
v -1
v 1
h 1
l 3 5
l 3 13
l 7 3
v 5
h 7
v 7
l 6 -1
l -2 10
l 1 2
l 2 8
l 4 4
l -14 1
l 1 1
l -7 4
h -1
v -2
h -2
l -2 1
l -2 3
l -10 4
l -2 4
l -1 2
h -1
l -1 1
l -1 2
l -1 2
l 1 1
l 1 1
v 2
l -1 1
l 1 1
l 1 1
v 2
l 2 3
l 1 1
v 3
l 1 2
v 4
h 1
l -1 2
v 1
l 1 1
v 2
v -1
v 4
l -1 1
l 1 2
v 5
l -1 1
l 1 3
l 1 1
l 2 7
v 1
v -1
v 1
l 1 2
h 1
l -3 10
v -4
h -10
l -6 3
l -7 1
l -7 2
l -1 1
l -3 1
h -2
l -2 -1
l -2 -1
h -2
l -1 -1
v -1
h -1
l -1 -2
l -1 -1
v -1
h -1
v -1
v 1
v -1
h -1
l -1 -1
h -1
v -1
h -2
v -1
l -1 -1
l -3 3
l -5 6
l -4 -1
l -8 5
l -7 -4
h -11
v -1
l -8 -2
l -1 -2
v -2
l -5 -2
l -2 2
l -3 6
l -2 -2
h -1
h 1
h -4
l -3 -2
Z"/>
<path data-race-id="TX18" d="M830 584
h 1
l 2 -6
l 1 -2
v -6
l 5 -2
l 7 1
h 1
l 3 4
l 1 3
l -9 1
l -2 6
l 1 2
l 3 5
h 1
l 3 -11
l 5 -1
l 1 13
l -1 4
l -5 -5
l -2 5
l 1 2
l 1 2
h -5
l -1 -4
l 1 -2
l -4 -5
l -5 -1
h -1
Z"/>
<path data-race-id="TX19" d="M286 290
v -2
l 1 -15
v -5
l 1 -18
v -11
l 1 -17
v -12
l 1 -8
v -30
l 36 1
h 26
l 11 1
v 37
h -1
h 31
v 20
l 4 2
l 10 2
l 1 4
l 5 -1
v -7
h 8
v -4
h 9
v 63
h 185
v 37
h -10
v 19
l -4 2
l -21 -5
l -2 1
l -2 3
l -1 1
h -1
v -3
h -1
l 1 -1
v -1
v 1
v -1
h -2
l 1 1
l -1 1
v -1
l -5 5
v 16
h -38
v 37
h -43
l -31 -1
v -37
h -36
l -1 7
v 30
h -6
l -31 -1
l 1 -37
v -37
h -36
l -1 37
l -13 -1
h -38
l -11 -1
l 1 -2
v -15
l 1 -20
l 1 -25
Z"/>
<path data-race-id="TX20" d="M600 614
l 1 -3
l 7 2
l 1 2
h -1
v 4
h 1
l 5 -1
l 1 1
l -1 5
v 1
h -4
l 4 10
h -7
h 1
h -4
l -1 -9
h -8
l -3 -5
l 6 -2
Z"/>
<path data-race-id="TX21" d="M501 602
l 1 -7
l -1 -2
l 5 -21
l 15 1
v -18
h 33
v -19
h 70
l 16 6
l -3 5
l -9 28
l 13 10
l 3 -5
v 1
v -1
v 1
l 5 -2
l 2 -12
l 10 -1
v -7
l -8 -4
l 5 -4
h 1
h -1
h 1
l 3 4
l 5 -3
v 2
v -1
l 2 2
l -6 7
l 1 3
l 1 3
v 3
l -1 -2
l -1 2
l -5 3
v 5
l -2 7
l -1 1
h -2
l -4 8
l -3 4
l -2 3
l -1 1
l -17 9
l -5 1
l -5 12
h 1
h -3
v -1
l 1 -5
l -1 -1
l -5 1
h -1
v -4
h 4
l 4 -8
l 2 -5
l -9 -3
l -1 1
h -6
l -1 1
l -8 2
l -2 2
l -8 11
h -5
v -5
h -76
Z"/>
<path data-race-id="TX22" d="M792 608
l 5 -3
l -1 -8
l 14 -6
l 6 4
l 4 2
l 1 4
l 4 -1
l 5 3
v 2
l 2 7
h 6
l 1 -5
h 6
l 5 -2
h 1
l 7 -1
l 4 3
v 2
l 2 3
v 1
h -5
l -1 -1
v -3
h -2
v 9
l 2 4
l -11 3
h 1
l -7 2
v -13
h -2
v 6
h -7
v 5
l -5 7
l -1 1
l -8 -2
l -8 5
l -7 -8
l -2 -2
l -1 -4
h -2
l -1 -1
l -3 -3
l 1 -5
l -1 -4
l -2 -1
Z"/>
<path data-race-id="TX23" d="M45 422
h 3
l 5 2
l 17 1
l 2 -27
h 11
l 36 2
l 30 1
h 7
l 21 1
l 3 1
h 23
l 5 1
h 9
l 18 1
h 23
l 5 1
h 18
l 1 -8
l 20 1
l -1 2
v 35
l 2 1
h 34
l 7 1
h 68
v 10
l -1 9
v 30
h 83
v 68
h 27
v 18
l -15 -1
l -5 21
l 1 2
l -1 7
l 1 9
h 76
v 5
h 5
l 8 -11
l 2 -2
l 8 -2
l 1 -1
h 6
l 1 -1
l 9 3
l -2 5
l -4 8
h -3
l -1 -2
l -7 -2
l -1 3
l -2 5
l -6 2
l 3 5
h 8
l 1 9
h 4
h -1
h 14
l -2 -6
h 1
v -1
l 5 2
v 6
l -5 8
l -1 9
l -28 -10
v 13
l 1 2
v 60
l 1 14
l -20 1
v -1
h -1
l -24 1
v -1
l -19 1
h -41
l -1 -1
v -2
l -1 -1
l -1 1
v -1
h -1
v -1
h -1
l -2 -2
v -2
l 1 -1
l -1 -1
l -1 -1
v -1
h -1
v -2
h -1
v -1
l -1 -1
v -2
l 1 -1
l -1 -2
v -1
h -1
v -1
h -1
l 1 -1
h 1
l 1 -1
v -1
h -2
l -2 -1
l -1 -1
h -1
v -2
h 1
v -3
h -2
l -1 -1
v -4
h -4
v -2
l -1 -1
v -3
l 1 -1
l -1 -1
v -1
l -1 -1
v 1
v -1
h -1
v -4
l -2 -1
h -1
v -1
l -1 -3
l -1 -1
h 1
h -1
v -1
h -1
l -1 -1
v 1
v -1
h -1
v -1
h 1
h -1
l -1 -2
l 1 -1
v -4
l -1 -1
v -2
l -1 -1
l 1 -1
l -1 -2
l -1 -3
h -2
l -1 -1
v -1
l -2 -1
l -1 -1
v -4
l -1 -2
h -1
v -1
h -1
l -1 -1
h -1
l -2 -1
h -1
v -1
l -1 -2
h -1
v -1
h -1
v -1
h -1
l -1 -1
h -1
v -1
h -1
l -1 -1
h -2
v -3
h -1
v -1
h -1
v -2
l -1 -1
v -1
l -2 -1
h -2
l -2 -1
l -2 -1
l -1 -1
v -1
h -1
l -2 -1
h -2
l -1 -1
l 1 -1
v -1
l 1 -1
h -1
v -5
h -1
l -1 1
v 3
l -1 1
h -1
l -1 -2
v -1
l 1 -1
v -3
l -1 -1
h -2
l -1 1
h -1
v -3
l -1 -1
l -1 -1
v -2
h -1
v -3
l -1 1
h -1
v 1
h -1
v -2
h -1
l 1 -1
l -1 -1
h -1
l -1 1
v 1
h -1
l -1 1
h -1
v -4
h -2
l -1 1
v 2
h -1
l -1 -1
l -1 1
l -2 1
h -1
v -1
h -5
v -1
h -3
v -1
h -1
v 1
h -2
v -2
h -1
v 1
l -1 -1
h -6
l -1 1
h -1
l 1 -1
h -3
v -1
h -1
v 1
h -4
l -1 1
h -1
l -4 -1
h -2
l -1 -1
v -1
h -2
v -1
h 1
l -1 -1
h -3
l -2 -1
h 1
h -2
v -1
h -1
v -1
h -1
l -1 -1
v 1
h -1
v 1
h -2
v 1
h -1
v 3
l -1 2
h -1
v 2
h -2
l -2 -1
h -1
l -1 -1
v 1
h -1
v -1
h -2
v 2
h -2
v 1
l -1 1
v -2
l -1 -1
v 2
h -3
l -1 1
l -1 1
h -1
l -1 -1
h -1
v 1
h -1
v 2
l -1 1
v 2
h -1
v 1
h -1
v 1
h -1
v 4
h -1
v 1
l -1 -1
l -1 1
h 1
v 1
l -1 1
v 1
h -1
l -1 1
v 6
h -1
v 2
h -1
v 3
h 1
l 1 1
h -2
v 2
h -1
v 1
l -1 1
h -2
v 3
h -1
v 2
l -1 1
l 1 1
h -1
l 1 1
v 1
h 2
v 2
h -1
v 1
h -2
v -1
l -1 1
v 1
h -2
v 1
h -2
v -1
l -2 2
v 1
h -1
v 1
l -1 1
v 1
h -1
v 2
l -1 1
v -1
l -1 1
h -1
v 1
h -1
l 1 1
h -1
v -1
l -1 1
v 4
l -1 1
v 2
h -2
l -1 1
h -1
v -1
h -2
l -1 -1
h -2
l -1 1
h -1
v -1
l -1 -1
v 2
h -1
v -2
l -1 -1
h -1
v 1
v -2
h -1
l -1 -1
h 1
l 1 -1
h -2
v 1
l -1 1
h -1
l -1 -1
v -1
l -1 1
v -1
h -3
l 1 -1
h -1
v -1
h -1
v -1
h -2
h 1
l -1 -1
h -1
v -1
l -1 -1
v -1
h -2
h 1
v -1
h -1
v -1
h -1
l -1 -1
h 1
h -3
v -1
h -5
v -1
h -1
l -1 -1
h -3
l -1 -1
v -2
h -1
l -1 -1
v 1
h -1
v -4
h -2
v -1
h -2
l -1 -1
h -7
v -1
h -4
v -1
h -2
v -1
h -1
l -1 -1
v -1
h -1
l -1 -1
v 1
v -1
h -1
v -1
l -1 -1
v -1
h -2
v -1
h -2
v -1
h -1
v -2
h -1
v -1
h -1
v -4
h -1
v 1
v -1
h -1
v -1
l -1 -1
h -3
v -1
h -2
v -1
v 1
h -3
v -1
h -1
v -1
l -1 -1
v -1
l -1 -1
l -1 -1
l -1 -1
h -1
v -1
h -1
v -1
h -2
v -1
h -2
l 1 -1
h -1
v -1
l -1 -1
l -1 -1
v -1
h 1
l -1 -1
v -3
h -1
h 1
h -1
v -1
h -1
v -1
h 1
h -1
v -3
h -1
v -2
v 1
l -1 -1
h -1
v -3
h -1
h 1
h -1
v -2
h -1
v -1
h -1
v -2
v 1
v -2
h -1
v -2
h 1
l -1 -1
h 1
h -1
v -1
h 1
h -1
v -5
h -1
v -4
h 1
l 1 -1
h -1
h 1
v -1
h -1
v -1
h 1
l -1 -1
v -2
h 1
h -1
v -1
h 1
v -3
h -1
v -1
l -1 -1
v -1
l 1 -1
h -1
l -1 -1
v -1
h -2
v -2
v 1
h -1
v -1
h 1
v -1
l -1 -1
h -1
v -1
h -1
v -1
h -1
l -1 -1
v -1
l 1 -2
v 1
l -1 -1
h -1
v -1
h -1
v -3
h -1
l 1 -1
l -1 -1
v -5
l -1 -1
v -3
h -1
v -2
l -1 -1
l -1 -1
v -1
h -2
v -1
h -1
v -3
l -1 -1
v -1
l -1 -1
h -2
v -1
l -1 1
h -1
v -1
l -1 -1
h -1
l -1 -2
v -1
h -1
v -1
h -3
v -2
h -1
v 1
h -1
v -2
h -3
v -2
h -1
v 1
h -1
v -1
l -1 -1
v 1
v -1
l -1 -1
v 1
v -1
h -1
v 1
h -1
v -1
l -1 -1
h -1
v -1
l -1 1
v -2
h -3
v -1
h 1
h -1
v -1
l -1 -1
l -1 -1
h -1
v -1
h -1
v -1
h -1
v -1
h -1
v -1
h -1
v -1
l -1 -1
l -1 -1
h -1
v -1
h -1
l -1 -1
v -1
h 1
l -1 -1
l -1 -3
v -2
h -1
l -2 -1
h -1
v -2
l -2 -1
h -1
l -1 -1
h -1
l -4 -3
v -1
l -1 -1
l -3 -5
v -1
h -1
v -2
h -1
v -1
h -2
v -1
h -3
v -1
l -1 -2
v -2
l -1 -1
h -1
l -1 -2
h -2
l -4 -1
l -1 -1
l -2 -1
h -1
l -4 -3
v -1
h -1
l -1 -1
v -2
l -1 -1
v -2
l -1 -1
l -1 -1
h -1
v -2
l -1 -1
v -3
h -1
l -1 -1
v -2
h -1
v -2
Z"/>
<path data-race-id="TX24" d="M703 335
v -7
l 1 -5
v -1
h -1
h 4
l 7 -1
h 6
l 2 -4
l 5 -4
v 8
h 3
l -1 8
h -2
l 2 3
l -2 1
v -1
l -2 -3
v -1
h -1
h 1
h -1
l -1 6
l -2 1
h -4
v 1
l -3 1
l -10 1
l -2 2
Z"/>
<path data-race-id="TX25" d="M607 474
l 16 -11
l 5 -6
l -6 -9
l -8 -13
l 10 -7
l 12 -7
l -4 -6
l -5 -5
l -1 -8
v 1
v -9
l 2 -3
l -4 -7
l 7 5
l 14 -1
l 5 -1
v 1
l 12 -8
l 12 -1
l -1 -20
h 38
l 1 24
l 10 18
l 4 -2
l 14 22
l -16 9
l -7 -12
l -17 10
l -15 8
l -9 6
l 14 23
l -28 17
h 2
l 1 5
l -5 -3
l -5 3
v 2
l 6 11
l -10 10
l -6 15
l 10 1
l 5 9
l -4 1
l -1 5
l 10 5
h 2
l -2 3
l 3 2
h 3
l 2 -2
l 3 6
h -7
l -2 -2
v 1
v -2
l -5 3
l -3 -4
h -1
h 1
h -1
l -5 4
l 8 4
v 7
l -10 1
l -2 12
l -5 2
v -1
v 1
v -1
l -3 5
l -13 -10
l 9 -28
l 3 -5
l -16 -6
v -6
h -5
v -19
l -3 -11
v -9
l -1 -7
l -6 2
Z"/>
<path data-race-id="TX26" d="M688 306
v -21
h 32
l 7 1
v 27
l -5 4
l -2 4
h -6
l -7 1
h -4
h 1
v 1
l -1 5
v 3
l -6 2
l 1 -1
l -7 -10
h -3
Z"/>
<path data-race-id="TX27" d="M658 779
l 1 -23
l 9 -8
v -4
h 1
v -1
v 1
v -1
l 11 2
l 4 8
l 3 -6
l 5 -2
h -1
h 2
h -2
l -1 -2
h 1
h -1
l -5 -7
l 2 -3
l 12 -20
l 16 -14
v -1
l -2 -3
l 1 -14
l -5 -8
l -6 1
l 24 -22
l -20 -23
l -6 6
h -1
l -1 -1
l -10 -8
l -5 -5
l -9 -10
l 3 -4
v -1
h -2
v -1
h -4
l -4 -4
l -1 -1
v -1
h -1
v -1
l 4 -4
l -3 -7
l 4 1
h 5
l -3 -12
h -2
l 5 -4
l 11 -13
l 8 2
l 3 9
l 10 1
l 3 5
l -2 9
l -8 10
l 13 11
v 2
l 20 -1
l 7 5
l 17 20
l -8 6
l 2 1
l 20 -13
l 3 -9
l 10 -12
l 7 3
l 2 1
l 1 4
l -1 5
l 3 3
l 1 1
h 2
l 1 4
l 2 2
l 7 8
l -1 3
l 2 7
v 2
l 7 5
l -1 1
h -1
v 3
h 1
v 4
h 6
l 9 10
l 6 1
l -16 8
h -7
l -10 4
l -1 6
l 6 -1
l -23 12
l -9 8
l 6 -8
l 14 -7
l 4 -1
l -3 -5
l -10 5
l -5 -4
l 3 -4
l -7 1
l -3 4
l -5 -3
l -3 -3
v 10
l -3 -6
l -5 3
l -2 -6
h -1
v 1
v -2
h -6
v 1
l 7 10
l 13 11
v 3
l -10 3
l -8 5
l -5 -6
l -6 -3
v 1
h 1
v 2
l -1 1
l -5 -2
l 4 5
v 2
l 1 1
v 1
l -1 4
v 4
l -2 3
l -7 5
l -2 -10
l -2 9
l -3 -5
l -5 4
h -7
l 1 3
l -5 6
l 7 1
l -3 6
l 5 -8
l 6 -3
l 1 5
l -8 11
v 2
l -2 2
v 2
h -1
v 2
h -4
v -1
h -1
h 2
v -2
v 1
h -1
v -1
h -1
v -2
h -5
v 1
h -2
v 1
l -1 1
v -1
h 1
v -2
h -3
l -6 1
v -1
v 2
l -1 -1
v 1
h -1
v -2
h -2
v 1
h -1
v 1
l 1 1
h 2
v 1
h 8
l -1 4
l 4 6
l 6 2
l -5 11
h -22
l -16 1
l -1 -1
l -1 -1
v -1
l -4 -2
Z
M758 721
l 5 -4
l 6 1
l -9 5
l -9 6
l -11 11
v -2
l 1 -2
l 1 -4
l 8 -3
Z
M738 740
l 1 2
l -11 11
l 2 -8
Z
M716 770
l 6 -10
l 3 1
l -5 6
l -6 11
Z"/>
<path data-race-id="TX28" d="M488 733
h 41
l 19 -1
v 1
l 24 -1
h 1
v 1
l 20 -1
l -1 -14
v -60
l -1 -2
v -13
l 28 10
l 1 -9
l 5 -8
v -6
l -5 -2
l 5 -3
l -3 -4
l 3 -5
l 2 -3
l 3 3
l 2 1
l 4 2
v 1
l 1 2
v -1
h 1
l 3 1
v 3
l 1 4
v 2
h 12
v 5
l -5 5
l 1 3
v 6
l -1 7
l 3 4
l -14 12
l 7 8
l -18 15
v 40
l 1 7
h -35
v 47
l 1 13
v 8
h -12
l 1 6
v 35
l 40 -1
h 7
l -4 12
l -8 18
h 9
l 2 4
l -3 11
l 9 -1
l -3 14
v -1
h -1
v -1
l -1 -1
v -2
l -1 1
h -1
v -2
v 2
h -2
v -3
h -2
v -1
h -2
v -1
h -2
l -1 1
h 1
h -3
v -2
l -1 1
v -1
l -1 1
l -2 -2
h 1
v 1
h -1
v 1
v -1
l -1 -1
v 1
h -1
v -2
h -2
v 1
h -1
v -1
l -1 1
l -1 1
h -1
v -1
h -1
v -2
h -3
v -1
h 2
l -1 -1
h -1
l -1 -1
h -1
l -1 -1
h 1
v 1
h 1
v -1
l -1 -1
h -3
v -1
h -1
v -2
h -1
l -2 -1
v 1
h -4
v 1
h -1
v -2
h -1
v -1
h -1
v 1
l -1 1
v -1
h -1
v -2
h -2
l -1 1
v -1
h -2
v -1
h -2
l -1 1
h -2
l -1 -1
v -1
l -1 -1
h -1
l 1 -1
h 1
h -1
v -1
h 1
v -2
l -1 -1
v -1
h -1
v -1
l -1 -1
h -1
l -1 -1
v -2
l -6 -15
v -4
l -2 -2
v -3
l -1 -1
l -1 -1
h -3
v -4
h -3
l -1 -1
l -1 -1
v -2
l 1 -1
h -1
l -1 -2
v -2
l -1 1
h -1
v -2
h -1
v -2
l 1 -1
v -1
h 1
v -1
l -1 -1
v -1
h 1
v -2
h -1
l 1 -1
v -4
l -1 -1
v -1
h -1
h 1
v -3
h -5
l 1 -1
v -2
l -1 -1
h -1
v 1
h -1
v -1
h -1
v -1
h 1
l 1 -1
l 1 -1
v -3
h 1
v -4
l -1 -1
v -1
l 1 -4
h -3
v -5
h 1
v -2
h -1
l -3 -3
h -1
v 1
h -1
l 1 -1
h -1
v -1
l -1 -1
h -2
v 1
h -2
v -2
l -1 -1
h -1
l -1 1
l -1 -1
l -1 -1
l -1 -2
h -1
v -1
l -1 -1
h -2
v -1
h -1
v -2
l -1 -2
l -1 1
v 1
h -1
v -1
l -1 -1
v -1
h -2
v -5
h -1
l -1 -1
v -5
h -1
v -2
h -1
v -1
h 1
l -2 -2
h -1
l -2 -1
v -1
h -1
v -2
h -1
v -4
h -3
v -3
h -1
v -1
h -1
v -2
h -1
l -1 -1
h -2
v -1
h -2
l -1 -1
v -1
h -2
Z"/>
<path data-race-id="TX29" d="M842 577
l 9 -1
l 6 5
l 4 4
l -1 6
l -2 2
l 3 5
l -4 3
v 3
h 1
l -7 1
h -1
v -6
h -2
l -1 -2
l -1 -2
l 2 -5
l 5 5
l 1 -4
l -1 -13
l -5 1
l -3 11
h -1
l -3 -5
l -1 -2
Z"/>
<path data-race-id="TX30" d="M715 347
v -2
h 1
l 3 1
v 1
l 2 -2
l 8 1
l -1 -3
l -2 -2
l 1 -1
v -8
v 1
l 2 4
l 1 -1
l 1 2
l 1 -1
l 1 2
l 2 -2
v -1
l 7 -1
l -1 4
l 3 8
h -1
h 3
l 1 10
l 4 2
h -36
Z"/>
<path data-race-id="TX31" d="M661 500
l -6 -11
v -2
l 5 -3
l 5 3
l -1 -5
h -2
l 28 -17
l 6 6
l 5 -4
l 15 25
l -13 8
l -4 13
l 4 2
l 8 22
l -13 6
l -2 -2
h -2
l -9 -5
h -2
l -4 -1
l -6 1
l -8 5
l -1 -2
l -4 -4
l -5 -9
l -10 -1
l 6 -15
Z"/>
<path data-race-id="TX32" d="M729 329
l 1 -8
h 13
l 4 -4
h 6
l 2 1
l -1 1
v 2
h -3
v 16
l -4 -4
l -1 1
l -2 2
l -1 -4
v -1
h -1
v -2
h -5
l 2 2
l -3 -2
l -1 3
l 1 2
h -1
v 3
l -2 2
l -1 -2
l -1 1
l -1 -2
l -1 1
l -2 -4
l 2 -1
l -2 -3
Z"/>
<path data-race-id="TX33" d="M688 338
l 4 -3
l 4 3
l 1 2
h 5
l 2 -2
l 10 -1
l 3 -1
v -1
h 4
l 2 -1
l 1 -6
h 1
h -1
h 1
v 1
l 2 3
v 8
l -1 1
l 2 2
l 1 3
l -8 -1
l -2 2
v -1
l -3 -1
h -1
v 2
l -5 -1
l -1 1
v -1
l 1 -1
l -1 -2
l -1 -2
h 6
v -2
l -1 -1
l -1 1
l -6 1
l -1 1
l -2 1
h -1
l -3 -1
l 2 2
l 2 2
h -1
v -1
v 1
v -1
v 3
l -2 2
l -1 1
l -4 5
l -1 -3
v -1
l -1 -5
l -1 -6
l -3 -1
Z"/>
<path data-race-id="TX34" d="M635 743
h 27
l -1 -4
l 5 -6
l -20 -42
l 5 -2
l 9 -1
h 1
v 1
h 1
h -1
h 1
l 6 2
l 16 -13
l -14 -16
l 10 -9
l -9 -9
l -8 -13
l 12 -20
l 9 10
l 5 5
l 10 8
l 1 1
h 1
l 6 -6
l 20 23
l -24 22
l 6 -1
l 5 8
l -1 14
l 2 3
v 1
l -16 14
l -12 20
l -2 3
l 5 7
h 1
h -1
l 1 2
h 2
h -2
h 1
l -5 2
l -3 6
l -4 -8
l -11 -2
v 1
v -1
v 1
h -1
v 4
l -9 8
l -1 23
l 2 1
l 4 2
v 1
l 1 1
l 1 1
l 16 -1
h 22
l -2 14
l -4 7
l -9 3
l 5 -9
l -6 5
l -5 2
l -10 -10
l 7 12
l -9 1
h 11
v 3
h 9
l 7 -2
l -2 12
l -3 1
l 2 8
l -7 3
v 12
l 8 7
l 2 13
l 2 7
l -4 6
l 4 1
l -2 2
l 5 -1
l 2 5
l 4 20
l 8 5
l -3 9
l 7 -4
l 1 4
h -11
v 1
h 1
l -1 1
h -2
v 1
v -1
h -1
v 1
h -1
l -1 -1
v 1
l -1 1
v 3
h -1
h 1
v 2
h -1
h 1
v 1
h -3
v -1
v 1
h -3
v -1
l -1 -1
h -1
v -1
h -2
v -2
v 1
h -1
v 1
h -1
v -2
h -1
v -2
h -2
l -1 -1
h -1
h 1
v -1
v 1
h -1
v -1
l -2 -1
l -1 -1
l -1 -1
h 1
v -1
v 1
h -1
v -2
l -2 -1
h -2
v 1
v -1
l -1 -1
v 1
h -4
l -1 -1
l -1 1
v -1
h -1
v -1
h -2
h 1
h -1
v -1
h -1
v 1
h -3
v -1
l 1 -1
h -1
v 1
h -3
l -1 1
l -1 -1
l 1 1
h -1
l -1 -1
l -1 1
l -1 -1
h -1
l -1 1
h -1
v -1
h -1
v 1
l -1 1
l -2 1
h -1
v -1
h 1
v -1
h -1
v -1
h -1
v 1
l -1 -1
h -2
l -1 1
h -1
l -1 -1
h -1
v 1
h -1
v -1
l 3 -14
l 4 4
h 5
l 6 2
l 7 3
h -1
h 1
v -26
l -11 -1
l 4 -14
l -3 -3
v -48
l -1 -4
h -18
l -1 -16
v -47
Z
M710 782
h 2
l -7 18
l -2 8
l -1 10
l 1 23
l -2 -3
l 1 -26
l 1 -4
h -1
l 1 -8
Z
M702 842
l 1 -1
l 5 20
l -4 -6
Z
M708 861
l 1 5
l 3 7
h -1
l -5 -4
l 2 -3
l -2 -6
Z"/>
<path data-race-id="TX35" d="M614 625
h 3
h -1
l 5 -12
l 5 -1
l 17 -9
l 1 -1
l 2 -3
l 3 -4
l 4 -8
h 2
l 1 -1
l 2 -7
v -5
l 5 -3
l 1 -2
l 1 2
v -3
l -1 -3
l -1 -3
l 6 -7
h 7
l -3 -6
l -3 -2
l 1 -1
l 2 2
l 8 1
v 4
l 1 3
l 2 3
v 1
l 3 -1
l -11 13
l -5 4
h 2
l 3 12
h -5
l -4 -1
l 3 7
l -4 4
l -2 -2
v -1
v 1
h -1
v -1
l -1 -1
l -2 -4
l -10 9
l -6 6
l -8 4
l -2 2
l -4 5
l -3 -3
l -2 3
l -3 5
l 3 4
l -5 3
v 1
h -1
l 2 6
h -7
l -4 -10
Z"/>
<path data-race-id="TX36" d="M857 601
l 4 -3
l -3 -5
l 15 5
h -1
v 1
h -1
v 3
l 1 2
h 1
v 1
h -1
v 1
l -1 1
v 2
h -1
l -4 2
l -2 1
v 1
h -1
h 1
v -1
l -2 -3
v -2
l -4 -3
h -1
Z
M858 593
l 2 -2
l 1 -6
l -4 -4
l 7 -4
l 3 -4
l 1 -2
l -6 -15
l -5 -14
l 12 -6
l 10 -8
l 1 -4
l -14 -2
l 1 -7
h -8
l -1 -10
l -5 -4
l 13 -15
l 6 -5
l 6 -8
l 2 1
l 4 2
h 4
v 1
h 7
h -1
h 1
l 2 1
v 1
h 3
l 2 1
l 4 1
l 23 -7
l 5 -1
h 1
v -1
l 1 -1
l 9 -3
l 22 -2
l 1 1
l 2 -2
h 1
v -1
v 1
l 1 1
v 1
h -1
l 1 1
v 2
l -1 2
h -1
h 1
v 1
h 1
h -1
v 1
l 1 -1
v 1
h 1
l 1 1
l -1 1
l 1 1
h 1
h -1
v 1
h -1
v 1
h -1
v 1
l -1 -1
h -1
v 1
l 1 1
v 1
h -1
v 1
h 2
v 1
h 2
v 3
h -2
v 2
h -1
v 2
h 1
v 4
h 1
l -2 2
h -1
l 1 1
h -1
v 2
h -1
v 1
v -1
v 1
h -1
h 1
v 1
h -1
v 1
h 1
h -1
v 1
h 1
v 1
v -1
l -1 1
v 2
l -1 1
h -1
l -1 1
v 1
h -1
v 4
h -1
h 1
v 2
h -1
h 1
h -3
v 2
l -1 1
h 1
h -1
v 2
h 2
v 5
h 1
v 2
h 1
h -1
v 1
h -1
v 1
v -1
l -1 1
h 1
h -1
v 1
v -1
v 1
l -1 1
v 1
h -1
h 1
h -1
v 1
l 1 1
h -1
l 1 1
h -1
l 1 2
v 1
h 1
v 1
h 1
v 1
h 1
l 1 1
v 4
l -1 1
v 1
h 1
h -1
v 1
h 1
v 2
h 1
v 1
h -1
v 1
h 1
v 1
h 1
h -1
v 2
h -1
l -1 1
v 2
h 1
v 1
h 1
v 1
h -1
v -1
v 2
l -1 2
l -3 2
h -1
l -1 3
l -3 8
v 1
v -10
l -14 -3
l -6 -11
h -2
l -1 -1
l -4 -1
h -1
v 1
v -1
v 1
h -1
v 1
h -4
v 3
l -1 1
l -4 1
h -1
l -3 1
l -1 -1
h -1
l 1 19
h 6
l 1 23
l -3 2
l -1 1
l -4 2
h -1
v 1
h -1
l -1 1
h -1
v -2
h -1
v -1
h -3
l -1 1
h -1
l -1 1
h -2
l -1 1
h -1
v 1
h -3
l -1 1
h -4
v -2
l 6 -6
v -12
l -10 -3
l -4 12
l -3 -2
l -10 -4
l -2 -8
l -1 8
Z"/>
</g>
  <path class="districts-mesh" d="M632 909
l 3 -14
l -9 1
l 3 -11
l -2 -4
h -9
l 8 -18
l 4 -12
h -7
l -40 1
v -35
l -1 -6
h 12
v -8
l -1 -13
v -47
h 35
l -1 -7
v -40
l 18 -15
l -7 -8
l 14 -12
l -3 -4
l 1 -7
v -6
l -1 -3
l 5 -5
v -5
h -12
v -2
l -1 -4
v -3
l -3 -1
h -1
v 1
l -1 -2
v -1
l -4 -2
l -2 -1
l 4 -5
l 2 -2
l 8 -4
l 6 -6
l 10 -9
l 2 4
l 1 1
v 1
h 1
v -1
v 1
l 2 2
v 1
h 1
v 1
l 1 1
l 4 4
h 4
v 1
h 2
v 1
l -3 4
l -12 20
l 8 13
l 9 9
l -10 9
l 14 16
l -16 13
l -6 -2
h -1
v -1
h -1
l -9 1
l -5 2
l 20 42
l -5 6
l 1 4
h -27
l 1 5
v 47
l 1 16
h 18
l 1 4
v 48
l 3 3
l -4 14
l 11 1
v 26
h -1
h 1
l -7 -3
l -6 -2
h -5
l -4 -4
l -3 14
M72 398
l -2 27
l -17 -1
l -5 -2
h -3
M842 319
h 4
l 1 -1
v -2
l 1 -1
v 9
l 1 21
l 12 -7
l 4 -1
l -1 1
v 1
l -3 16
l 12 -5
l 5 -7
l 1 1
h 2
l -1 -12
l 14 7
l 12 -1
l 7 -4
h 1
v 1
h 1
v 2
l 3 2
l 6 -4
l 4 4
M283 361
l 11 1
h 38
l 13 1
l 1 -37
h 36
v 37
l -1 37
l 31 1
h 6
v -30
l 1 -7
h 36
v 37
l 31 1
h 43
v -37
h 38
v -16
l 5 -5
v 1
l 1 -1
l -1 -1
h 2
v 1
l -1 1
h 1
v 3
h 1
l 1 -1
l 2 -3
l 2 -1
l 21 5
l 4 -2
v -19
h 10
v -5
h 26
v 38
l 32 -1
l 1 20
l -12 1
l -12 8
v -1
l -5 1
l -14 1
l -7 -5
l 4 7
l -2 3
v 9
v -1
l 1 8
l 5 5
l 4 6
l -12 7
l -10 7
l 8 13
l 6 9
l -5 6
l -16 11
l 2 12
l 6 -2
l 1 7
v 9
l 3 11
v 19
h 5
v 6
h -70
v 19
h -60
v -68
h -83
v -30
l 1 -9
v -10
h -68
l -7 -1
h -34
l -2 -1
v -35
l 1 -2
l -20 -1
M690 359
h -17
M703 331
v -3
l 1 -5
v -1
h -1
h 4
l 7 -1
h 6
l 2 -4
l 5 -4
v -27
l -7 -1
h -32
v 21
M615 322
v -32
h -185
v -63
h -9
v 4
h -8
v 7
l -5 1
l -1 -4
l -10 -2
l -4 -2
v -20
h -31
h 1
v -37
l -11 -1
h -26
l -36 -1
M838 672
l -6 -1
l -9 -10
h -6
v -4
h -1
v -3
h 1
l 1 -1
l -7 -5
v -2
l -2 -7
l 1 -3
l 8 -5
l 8 2
l 1 -1
l 5 -7
v -5
h 7
v -6
h 2
v 13
l 7 -2
h -1
l 11 -3
l -2 -4
v -9
h 2
v 3
l 1 1
h 5
v -1
l 2 -1
l 4 -2
h 1
M822 562
v 1
l -1 1
v -1
v 1
h -2
l -6 2
h -2
l -1 -14
l -21 3
v -5
l -5 -4
l 3 -10
h -1
l -1 -2
v -1
v 1
M878 473
l -1 -1
v -2
l -1 -3
l -3 -4
l 1 -3
l -1 -2
l -1 -1
l -4 -1
v -3
l -2 -2
l -2 -2
l 10 -9
h -1
v -1
l -1 -1
l -3 -3
v -2
l -1 -2
l -1 -1
v -2
l -1 -7
h 2
l -1 -2
h -2
v -1
h 2
v -3
l 1 -1
v -1
l -4 1
l -1 -26
l -4 1
l -30 1
l -1 -2
v -3
l -2 -3
l 2 -2
l 1 -3
v -6
l -1 -1
h -1
v -1
l -2 -2
h -2
v -1
l -2 -2
l -1 -1
v 1
v -1
h -1
l -1 -3
v -16
l 1 1
v 1
l 3 2
l 1 1
l 3 1
h 2
v -1
l 1 1
h 3
l -2 -9
v -1
h -1
v -1
h -1
l 1 -4
v -5
l 7 -3
l 1 -4
l 5 -1
v -3
h -5
l -25 1
l -1 1
l 4 20
h -1
l -3 -1
l -2 -1
h -4
l -2 -1
v -1
h -1
v 1
h -1
l -2 -1
l -2 -1
l -1 -1
l -3 -3
h -26
v 3
l -16 1
v -15
h 3
v -2
l 1 -1
M911 606
l 4 -2
l 1 -1
l 3 -2
l -1 -23
h -6
l -1 -19
h 1
l 1 1
l 3 -1
h 1
l 4 -1
l 1 -1
v -3
h 4
v -1
h 1
v -1
v 1
M720 285
l -1 -6
v -30
l -1 -9
M967 466
l -22 2
l -9 3
l -1 1
v 1
h -1
l -5 1
l -23 7
l -4 -1
l -2 -1
h -3
v -1
l -2 -1
h -1
h 1
M927 552
h 1
l 4 1
l 1 1
h 2
l 6 11
l 14 3
v 10
M840 598
h -1
v -5
l -2 -1
l -3 -3
l -11 2
v -8
h 6
l -2 -3
v -2
l -1 -5
l -5 -6
v -1
h 1
l 11 -2
l -2 -1
h -1
l -3 -4
v 1
l -1 1
h -1
l -2 1
h -1
v 1
M786 403
v -1
l -3 -5
l -1 -7
l -3 -2
v -1
l -3 -1
h -1
l -2 -3
l -11 -6
l -5 -3
v -1
h 1
v -2
l -7 -12
l -4 -2
l -1 -10
h -3
h 1
l -3 -8
l 1 -4
l -7 1
v -2
h 1
l -1 -2
l 1 -3
l 3 2
l -2 -2
h 5
v 2
h 1
v 1
l 1 4
l 2 -2
l 1 -1
l 4 4
v -1
M851 576
l -1 -3
l -3 -4
h -1
l -7 -1
l -5 2
v 6
l -1 2
l -2 6
h -1
l 3 3
h 1
l 5 1
l 4 5
l -1 2
l 1 4
h 7
v 6
l -5 2
h -6
l -1 5
h -6
l -2 -7
v -2
l -5 -3
l -4 1
l -1 -4
M673 549
l -2 2
h -3
l -3 -2
l 2 -3
h -2
l -10 -5
l 1 -5
l 4 -1
l 4 4
l 1 2
l 8 -5
l 6 -1
l 4 1
h 2
l 9 5
h 2
l 2 2
l 13 -6
l -8 -22
l -4 -2
l 4 -13
l 13 -8
l -15 -25
l -5 4
l -6 -6
l -14 -23
l 9 -6
l 15 -8
l 17 -10
l 7 12
l 16 -9
M826 573
l 1 -1
v -1
l 1 -5
l 10 -1
l 1 -1
h 1
l 11 5
l 11 -13
l 6 15
l -1 2
l -3 4
l -7 4
l -6 -5
l -9 1
l -2 6
l 1 2
l 3 5
h 1
l 3 -11
l 5 -1
l 1 13
l -1 4
l -5 -5
l -2 5
l 1 2
l 1 2
M600 614
l 1 -3
l 7 2
l 1 2
h -1
v 4
h 1
l 5 -1
l 1 1
l -1 5
v 1
h -4
l 4 10
h -10
l -1 -9
h -8
l -3 -5
l 6 -2
l 2 -5
M609 615
h 3
l 4 -8
l 2 -5
l -9 -3
l -1 1
h -6
l -1 1
l -8 2
l -2 2
l -8 11
h -5
v -5
h -76
l -1 -9
l 1 -7
l -1 -2
l 5 -21
l 15 1
v -18
M624 536
l 16 6
l -3 5
l -9 28
l 13 10
l 3 -5
v 1
l 5 -2
l 2 -12
l 10 -1
v -7
l -8 -4
l 5 -4
h 1
h -1
h 1
l 3 4
l 5 -3
v 2
v -1
l 2 2
l -6 7
l 1 3
l 1 3
v 3
l -1 -2
l -1 2
l -5 3
v 5
l -2 7
l -1 1
h -2
l -4 8
l -3 4
l -2 3
l -1 1
l -17 9
l -5 1
l -5 12
h 1
h -3
M894 477
h -6
v -1
h -4
l -4 -2
l -2 -1
l -6 8
l -6 5
l -13 15
l 5 4
l 1 10
h 8
l -1 7
l 14 2
l -1 4
l -10 8
l -12 6
l 5 14
M850 605
h 1
l 7 -1
l 4 3
v 2
l 2 3
v 1
M614 635
h 7
l -2 -6
h 1
v -1
l 5 2
v 6
l -5 8
l -1 9
l -28 -10
v 13
l 1 2
v 60
l 1 14
l -20 1
v -1
h -1
l -24 1
v -1
l -19 1
h -41
M842 595
l -2 3
l -2 3
l -3 -1
v -1
h -1
l -2 -4
l -12 2
l -4 -2
v -4
l -1 -4
v -1
l 5 -9
h 3
l 2 1
h 2
M730 321
l -1 8
h -2
l 2 3
l -2 1
v -1
l -2 -3
v -1
h -1
h 1
h -1
l -1 6
l -2 1
h -4
v 1
l -3 1
l -10 1
l -2 2
M690 465
l -28 17
h 2
l 1 5
l -5 -3
l -5 3
v 2
l 6 11
l -10 10
l -6 15
l 10 1
l 5 9
M816 595
l -6 -4
l -14 6
l 1 8
l -5 3
l -7 -3
l -10 12
l -3 9
l -20 13
l -2 -1
l 8 -6
l -17 -20
l -7 -5
l -20 1
v -2
l -13 -11
l 8 -10
l 2 -9
l -3 -5
l -10 -1
l -3 -9
l -8 -2
l -3 1
v -1
l -2 -3
l -1 -3
v -4
l -8 -1
l -2 -2
l -1 1
l 3 2
l 3 6
h -7
M671 543
h 1
l 2 2
l 3 -6
l 2 -2
l 5 2
v 2
l 1 2
l 8 2
v 1
h 11
l 7 4
l 8 -5
l 4 1
l 5 -6
l 3 -3
l 1 1
v 1
h 2
v 1
h 1
l 1 1
h 1
v 1
h 1
v 1
l 1 1
l 1 2
h 1
v 1
l 1 1
h 2
l 2 1
l 2 1
h 2
l 3 -1
l 1 -1
l 7 -2
l 7 -1
l 6 -3
h 10
v 4
M692 745
h 1
h -1
M704 784
h -22
l -16 1
l -1 -1
l -1 -1
v -1
l -4 -2
l -2 -1
l 1 -23
l 9 -8
v -4
h 1
v -1
l 11 2
l 4 8
l 3 -6
l 5 -2
h -1
l -1 -2
h 1
h -1
l -5 -7
l 2 -3
l 12 -20
l 16 -14
v -1
l -2 -3
l 1 -14
l -5 -8
l -6 1
l 24 -22
l -20 -23
l -6 6
h -1
l -1 -1
l -10 -8
l -5 -5
l -9 -10
M666 598
l 4 -4
l -3 -7
l 4 1
h 5
l -3 -12
h -2
l 5 -4
l 11 -13
M847 317
v -1
M620 628
l 5 -3
l -3 -4
l 3 -5
l 2 -3
l 3 3
M727 298
h 12
l 4 -4
v 1
h 1
v -5
h 8
v 1
l 6 -1
v 3
l -1 1
v 1
h 1
v 2
l 3 7
l -2 2
l 1 1
l -2 3
v 3
l -2 3
l -1 2
l -2 -1
h -6
l -4 4
h -16
v -8
M857 581
l 4 4
l -1 6
l -2 2
l 3 5
l -4 3
v 3
h 1
M715 347
v -2
h 1
l 3 1
v 1
l 2 -2
l 8 1
l -1 -3
l -2 -2
l 1 -1
v -8
M864 449
l -2 -2
l -2 -1
h -2
l -1 -1
v -4
l -3 -1
l -4 -2
h -2
l -4 -2
l -26 5
l -7 4
l 2 -10
l -6 1
v -7
h -7
v -5
l -7 -3
l -3 -13
l -3 -5
h -1
l -30 19
l -16 -1
l -14 -22
l -4 2
l -10 -18
l -1 -24
h -21
v -8
l 4 1
v -1
v 1
l 1 3
l 4 -5
l 1 -1
l 2 -2
v -3
v 1
v -1
v 1
h 1
l -2 -2
l -2 -2
l 3 1
h 1
l 2 -1
l 1 -1
l 6 -1
l 1 -1
l 1 1
v 2
h -6
l 1 2
l 1 2
l -1 1
v 1
l 1 -1
l 5 1
v 12
h 36
M727 333
l 2 4
l 1 -1
l 1 2
l 1 -1
l 1 2
l 2 -2
v -1
M641 322
h 27
l 1 -6
l 7 2
l 2 -4
l 1 -2
v -1
l -3 -2
h -1
l -2 -2
l -1 -4
l 3 -4
l 2 6
l 9 1
h 2
v 16
h 3
l 7 10
l -1 1
l 6 -2
v 4
l -1 5
h -5
l -1 -2
l -4 -3
l -4 3
l 1 1
l 3 1
l 1 6
l 1 5
M785 533
l -2 -7
l -1 -1
l -1 -3
l 1 -1
v -5
l -1 -2
l 1 -1
v -4
v 1
v -2
l -1 -1
v -1
l 1 -2
h -1
v -4
l -1 -2
v -3
l -1 -1
l -2 -3
v -2
l -1 -1
l -1 -1
l 1 -1
v -2
l -1 -1
l -1 -1
l 1 -2
l 1 -2
l 1 -1
h 1
l 1 -2
l 2 -4
l 10 -4
l 2 -3
l 2 -1
h 2
v 2
h 1
l 7 -4
l -1 -1
l 14 -1
l -4 -4
l -2 -8
l -1 -2
M665 541
l 3 2
h 4
M810 636
l -7 -8
l -2 -2
l -1 -4
h -2
l -1 -1
l -3 -3
l 1 -5
l -1 -4
l -2 -1
M826 350
h 1"/>
</svg>