<svg version="1.1" xmlns="http://www.w3.org/2000/svg" width="1000" height="955" viewBox="0 0 1000 955">  <path d="M688,834v12l8,7l2,13l2,7l-4,6l4,1l-2,2l5,-1l2,5l4,20l8,5l-3,9l7,-4l1,4h-11v1h1l-1,1h-2v1v-1h-1v1h-1l-1,-1v1l-1,1v3h-1h1v2h-1h1v1h-3v-1v1h-3v-1l-1,-1h-1v-1h-2v-2v1h-1v1h-1v-2h-1v-2h-2l-1,-1h-1h1v-1v1h-1v-1l-2,-1l-1,-1l-1,-1h1v-1v1h-1v-2l-2,-1h-2v1v-1l-1,-1v1h-4l-1,-1l-1,1v-1h-1v-1h-2h1h-1v-1h-1v1h-3v-1l1,-1h-1v1h-3l-1,1l-1,-1l1,1h-1l-1,-1l-1,1l-1,-1h-1l-1,1h-1v-1h-1v1l-1,1l-2,1h-1v-1h1v-1h-1v-1h-1v1l-1,-1h-2l-1,1h-1l-1,-1h-1v1h-1v-1h-1v-1h-2v1h-1v-1h-1l-1,-1h-1v-1h1l1,-1h-1v1v-1h-1l-1,1v1v-1h-1v-1h-1v-1l-1,-1v-2l-1,1h-1v-2v2h-2v-3h-2v-1h-2v-1h-2l-1,1h1h-3v-2l-1,1v-1l-1,1l-2,-2h1v1h-1v1v-1l-1,-1v1h-1v-2h-2v1h-1v-1l-1,1l-1,1h-1v-1h-1v-2h-3v-1h2l-1,-1h-1l-1,-1h-1l-1,-1h1v1h1v-1l-1,-1h-3v-1h-1v-2h-1l-2,-1v1h-4v1h-1v-2h-1v-1h-1v1l-1,1v-1h-1v-2h-2l-1,1v-1h-2v-1h-2l-1,1h-2l-1,-1v-1l-1,-1h-1l1,-1h1h-1v-1h1v-2l-1,-1v-1h-1v-1l-1,-1h-1l-1,-1v-2l-6,-15v-4l-2,-2v-3l-1,-1l-1,-1h-3v-4h-3l-1,-1l-1,-1v-2l1,-1h-1l-1,-2v-2l-1,1h-1v-2h-1v-2l1,-1v-1h1v-1l-1,-1v-1h1v-2h-1l1,-1v-4l-1,-1v-1h-1h1v-3h-5l1,-1v-2l-1,-1h-1v1h-1v-1h-1v-1h1l1,-1l1,-1v-3h1v-4l-1,-1v-1l1,-4h-3v-5h1v-2h-1l-3,-3h-1v1h-1l1,-1h-1v-1l-1,-1h-2v1h-2v-2l-1,-1h-1l-1,1l-1,-1l-1,-1l-1,-2h-1v-1l-1,-1h-2v-1h-1v-2l-1,-2l-1,1v1h-1v-1l-1,-1v-1h-2v-5h-1l-1,-1v-5h-1v-2h-1v-1h1l-2,-2h-1l-2,-1v-1h-1v-2h-1v-4h-3v-3h-1v-1h-1v-2h-1l-1,-1h-2v-1h-2l-1,-1v-1h-2l-1,-1v-2l-1,-1l-1,1v-1h-1v-1h-1l-2,-2v-2l1,-1l-1,-1l-1,-1v-1h-1v-2h-1v-1l-1,-1v-2l1,-1l-1,-2v-1h-1v-1h-1l1,-1h1l1,-1v-1h-2l-2,-1l-1,-1h-1v-2h1v-3h-2l-1,-1v-4h-4v-2l-1,-1v-3l1,-1l-1,-1v-1l-1,-1v1v-1h-1v-4l-2,-1h-1v-1l-1,-3l-1,-1h1h-1v-1h-1l-1,-1v1v-1h-1v-1h1h-1l-1,-2l1,-1v-4l-1,-1v-2l-1,-1l1,-1l-1,-2l-1,-3h-2l-1,-1v-1l-2,-1l-1,-1v-4l-1,-2h-1v-1h-1l-1,-1h-1l-2,-1h-1v-1l-1,-2h-1v-1h-1v-1h-1l-1,-1h-1v-1h-1l-1,-1h-2v-3h-1v-1h-1v-2l-1,-1v-1l-2,-1h-2l-2,-1l-2,-1l-1,-1v-1h-1l-2,-1h-2l-1,-1l1,-1v-1l1,-1h-1v-5h-1l-1,1v3l-1,1h-1l-1,-2v-1l1,-1v-3l-1,-1h-2l-1,1h-1v-3l-1,-1l-1,-1v-2h-1v-3l-1,1h-1v1h-1v-2h-1l1,-1l-1,-1h-1l-1,1v1h-1l-1,1h-1v-4h-2l-1,1v2h-1l-1,-1l-1,1l-2,1h-1v-1h-5v-1h-3v-1h-1v1h-2v-2h-1v1l-1,-1h-6l-1,1h-1l1,-1h-3v-1h-1v1h-4l-1,1h-1l-4,-1h-2l-1,-1v-1h-2v-1h1l-1,-1h-3l-2,-1h1h-2v-1h-1v-1h-1l-1,-1v1h-1v1h-2v1h-1v3l-1,2h-1v2h-2l-2,-1h-1l-1,-1v1h-1v-1h-2v2h-2v1l-1,1v-2l-1,-1v2h-3l-1,1l-1,1h-1l-1,-1h-1v1h-1v2l-1,1v2h-1v1h-1v1h-1v4h-1v1l-1,-1l-1,1h1v1l-1,1v1h-1l-1,1v6h-1v2h-1v3h1l1,1h-2v2h-1v1l-1,1h-2v3h-1v2l-1,1l1,1h-1l1,1v1h2v2h-1v1h-2v-1l-1,1v1h-2v1h-2v-1l-2,2v1h-1v1l-1,1v1h-1v2l-1,1v-1l-1,1h-1v1h-1l1,1h-1v-1l-1,1v4l-1,1v2h-2l-1,1h-1v-1h-2l-1,-1h-2l-1,1h-1v-1l-1,-1v2h-1v-2l-1,-1h-1v1v-2h-1l-1,-1h1l1,-1h-2v1l-1,1h-1l-1,-1v-1l-1,1v-1h-3l1,-1h-1v-1h-1v-1h-2h1l-1,-1h-1v-1l-1,-1v-1h-2h1v-1h-1v-1h-1l-1,-1h1h-3v-1h-5v-1h-1l-1,-1h-3l-1,-1v-2h-1l-1,-1v1h-1v-4h-2v-1h-2l-1,-1h-7v-1h-4v-1h-2v-1h-1l-1,-1v-1h-1l-1,-1v1v-1h-1v-1l-1,-1v-1h-2v-1h-2v-1h-1v-2h-1v-1h-1v-4h-1v1v-1h-1v-1l-1,-1h-3v-1h-2v-1v1h-3v-1h-1v-1l-1,-1v-1l-1,-1l-1,-1l-1,-1h-1v-1h-1v-1h-2v-1h-2l1,-1h-1v-1l-1,-1l-1,-1v-1h1l-1,-1v-3h-1h1h-1v-1h-1v-1h1h-1v-3h-1v-2v1l-1,-1h-1v-3h-1h1h-1v-2h-1v-1h-1v-2v1v-2h-1v-2h1l-1,-1h1h-1v-1h1h-1v-5h-1v-4h1l1,-1h-1h1v-1h-1v-1h1l-1,-1v-2h1h-1v-1h1v-3h-1v-1l-1,-1v-1l1,-1h-1l-1,-1v-1h-2v-2v1h-1v-1h1v-1l-1,-1h-1v-1h-1v-1h-1l-1,-1v-1l1,-2v1l-1,-1h-1v-1h-1v-3h-1l1,-1l-1,-1v-5l-1,-1v-3h-1v-2l-1,-1l-1,-1v-1h-2v-1h-1v-3l-1,-1v-1l-1,-1h-2v-1l-1,1h-1v-1l-1,-1h-1l-1,-2v-1h-1v-1h-3v-2h-1v1h-1v-2h-3v-2h-1v1h-1v-1l-1,-1v1v-1l-1,-1v1v-1h-1v1h-1v-1l-1,-1h-1v-1l-1,1v-2h-3v-1h1h-1v-1l-1,-1l-1,-1h-1v-1h-1v-1h-1v-1h-1v-1h-1v-1l-1,-1l-1,-1h-1v-1h-1l-1,-1v-1h1l-1,-1l-1,-3v-2h-1l-2,-1h-1v-2l-2,-1h-1l-1,-1h-1l-4,-3v-1l-1,-1l-3,-5v-1h-1v-2h-1v-1h-2v-1h-3v-1l-1,-2v-2l-1,-1h-1l-1,-2h-2l-4,-1l-1,-1l-2,-1h-1l-4,-3v-1h-1l-1,-1v-2l-1,-1v-2l-1,-1l-1,-1h-1v-2l-1,-1v-3h-1l-1,-1v-2h-1v-3l-1,-1v-1l-1,-2h-2l-1,-1h-1v-1h-2v1h-3v-1l-1,-1l-1,-1v-1l-5,-3v-2h-2v-5l1,-1h1l-1,-1v-1l1,-2h-1v1v-1l-1,-1l4,-2l11,1h4l28,2h11l38,2l28,1h7l21,1l31,2h9l18,1h1l27,1h18l1,-8l1,-2v-35l1,-2v-15l1,-20l1,-25v-11l1,-15v-5l1,-18v-11l1,-17v-12l1,-8v-30l1,-1v-33l1,-3v-26l1,-11v-18l1,-14v-32l1,-9v-1h54l5,1h47l5,1h97v165h3v-1h3v1h1v1h1v1h1v2h1l1,1l1,1v1h1v1l1,1l1,1h1l1,2h1l1,1h1v2h6v1h2l1,-2h-1l1,-1l1,-1h2l3,1l1,1h2v1v-1l1,1v1h1l1,-1l1,1v-2l1,-1v-3h-1h1v-1h2v1l1,1l1,1h3v1h1v1h-1v1h1l1,1h1h-1v1h1v-1v2h1l-1,1h2v1h1h-1v3h1v4l1,1v2h3v-1h1v1h9v-1h1l1,1h3v1h1v1h2v1h1v1h3v-1h1v1h1v1h2v1h1v1h1v-1h4v-1h1v-1h1v-1h3v1h1v-1h1v1h1l1,1v1h1h-1v1h1l1,1v2h2l1,1h1v-1h4l1,-1v-3h2v-1h-1v-1h1l1,-1h1v1h2l1,1h1l1,1l1,-1l1,1v-1l1,1h1l1,1h3v-1l1,-1v-1h1v-1h1l1,1l1,1v2l-1,1v1h-1v2h1l1,1l1,1h-2v1h1v1h1v1h-1h1l1,1h6v-1l1,1h1v2l-1,1l-1,1h1l1,1l-1,1l-1,1v2l1,1h3l1,1h1v1h4l1,-1l1,-1v-1v1l1,-1v-1h1v-2h2v-2h2l1,-1v-2h1v-1h3l1,1h1v1h2v4l1,1h3l1,-1h1l1,-1h1v1h1l1,1h1v4h-1v1l2,1h4l1,-1h1v-3l1,-1v3l1,-1v-2l1,1h1v1h3v-3l1,-1v-1h2l1,1l1,1v2h1v2l-1,1h-1l-1,1l1,3v1h1v1h-1v1h1l1,1v2h4v-1h1v-7l1,-1h2v-1h-1l-2,-1v-1h2l1,1v1h1v-1h1l1,-1v-1l1,-1v-6h1v1h1l1,-1h1l2,1h1l3,6l5,3l7,-6l2,-2l2,2h2v1h-1v1l-1,1v1l1,1l1,1h5v2l1,1l1,1h1l1,-1h3l1,1v1l1,1v1l2,1v1h1v1h3v-2l1,-4l1,-1l1,1l5,1l2,-1v-4h1l1,-1l2,-1h1l1,-1h2v1l1,-1v-1h1v1l1,-1h1v-1l-1,-1h1l1,1v1l2,-1h1v-1l2,-1l2,1v1l2,1h1v1h1l1,-1v-1h2l1,1v-4l1,-1h2l2,1h1v-1h3l1,-2l2,-1v-1l1,1h2l1,2l1,2l1,-1v1l4,1h2l6,-1h1l1,-1l2,-1l1,-1l1,2h1v-5h1v-2l1,1h2l1,1h3v3l3,-1h1v1h-1v1h-1v1h2v-3v2v-1l1,1v1h1v1h4v1h1v-1h1v2h1v1h-1v1l1,1h1v-2h1v4h1v1h2l4,2v-2h1v2h2l1,-2h1v1h-2l1,2h1v-1h1v1h-1v1h1v-1h1l-1,1h-1l1,1l1,1h1v-2l1,1v1h1l1,-1l1,1v1h1l1,1v-2h1v1l1,1h1v-2l1,1l-1,1h1v-1l1,1h-1v1h-1v1l1,-1h2v1h-2h4h-1v1h1v-1h1v1l1,-1h1h-1h2l1,-1l1,1h-2h1v1l-1,1l1,1v-1v1h2v1l1,1h1v-1l1,1h-2v1l1,1h3v-2l2,1l1,1v-1l1,-2h1v1h-1l2,1v-2l2,2l2,-1v-2h2v-1h2v2h4v-1h1l1,1h1l-1,1h2l1,15v9l1,14v5l1,2v12l1,6v17h1v15l1,2v16l1,2v16l1,1v1h2v1l1,1v1l1,1v2h4v1l-1,1h2l1,1v1h1v2h1v1l1,1v1h2v1l1,1v3h-1h1l1,1v2h2l-1,2l-1,1v5v-1l-1,1v2l1,1l1,1h-1h1v2h1l1,1h3l2,2h-1l-1,1v2l1,1h2v1h1v1l-1,1v1h1v1h2v2h2v-1v2h-2v3h-1v2h1l1,1v1h3l1,1v3h1v5l1,1l2,-2h1v-1v1l1,1v1h-1l1,1v2l-1,2h-1h1v1h1h-1v1l1,-1v1h1l1,1l-1,1l1,1h1h-1v1h-1v1h-1v1l-1,-1h-1v1l1,1v1h-1v1h2v1h2v3h-2v2h-1v2h1v4h1l-2,2h-1l1,1h-1v2h-1v1v-1v1h-1h1v1h-1v1h1h-1v1h1v1v-1l-1,1v2l-1,1h-1l-1,1v1h-1v4h-1h1v2h-1h1h-3v2l-1,1h1h-1v2h2v5h1v2h1h-1v1h-1v1v-1l-1,1h1h-1v1v-1v1l-1,1v1h-1h1h-1v1l1,1h-1l1,1h-1l1,2v1h1v1h1v1h1l1,1v4l-1,1v1h1h-1v1h1v2h1v1h-1v1h1v1h1h-1v2h-1l-1,1v2h1v1h1v1h-1v-1v2l-1,2l-3,2h-1l-1,3l-3,8v1l-1,1h-1l-1,1l-2,4l3,1v3l2,2v1h1v1l1,2h-12l-9,2l-17,9l-1,1l-21,11l-8,8l8,-11h4l2,-5l6,2l2,-5h-1v1h-1l-1,1h-1v-2h-1v-1h-3l-1,1h-1l-1,1h-2l-1,1h-1v1h-3l-1,1h-4v-2l6,-6v-12l-10,-3l-4,12l-3,-2l-10,-4l-2,-8l-1,8h-6l15,5h-1v1h-1v3l1,2h1v1h-1v1l-1,1v3h1v1h1v1h2v1h3l-2,7l4,-2l2,6l-2,6l-2,-1l-9,10l-7,1l-1,7l-5,12l-8,7l-10,6l-16,8h-7l-10,4l-1,6l6,-1l-23,12l-9,8l6,-8l14,-7l4,-1l-3,-5l-10,5l-5,-4l3,-4l-7,1l-3,4l-5,-3l-3,-3v10l-3,-6l-5,3l-2,-6h-1v1v-2h-6v1l7,10l13,11v3l-10,3l-8,5l-5,-6l-6,-3v1h1v2l-1,1l-5,-2l4,5v2l1,1v1l-1,4v4l-2,3l-7,5l-2,-10l-2,9l-3,-5l-5,4h-7l1,3l-5,6l7,1l-3,6l5,-8l6,-3l1,5l-8,11v2l-2,2v2h-1v2h-4v-1h-1h2v-2v1h-1v-1h-1v-2h-5v1h-2v1l-1,1v-1h1v-2h-3l-6,1v-1v2l-1,-1v1h-1v-2h-2v1h-1v1l1,1h2v1h8l-1,4l4,6l6,2l-5,11l-2,14l-4,7l-9,3l5,-9l-6,5l-5,2l-10,-10l7,12l-9,1h11v3h9l7,-2l-2,12l-3,1l2,8ZM893,626l-16,14l6,-10ZM758,721l5,-4l6,1l-9,5l-9,6l-11,11v-2l1,-2l1,-4l8,-3ZM738,740l1,2l-11,11l2,-8ZM716,770l6,-10l3,1l-5,6l-6,11ZM702,842l1,-1l5,20l-4,-6ZM703,841l-2,-3l1,-26l1,-4h-1l1,-8l7,-18h2l-7,18l-2,8l-1,10ZM708,861l1,5l3,7h-1l-5,-4l2,-3l-2,-6Z"/><g class="districts"><path data-race-id="TX01" d="M818,344l1,1v1l3,2l1,1l3,1h1h-1h2v-1l1,1h3l-2,-9v-1h-1v-1h-1l1,-4v-5l7,-3l1,-4l5,-1v-3h4l1,-1v-2v1v-1l1,-1v9l1,21l12,-7l4,-1l-1,1v1l-3,16l12,-5l5,-7l1,1h2l-1,-12l14,7l12,-1l7,-4h1v1h1h-1h1v2l3,2l6,-4l4,4v6h1v15l1,2v16l1,2v16l1,1v1h2v1l1,1v1l1,1v2h4v1l-1,1h2l1,1v1h1v2h1v1l1,1v1h2v1l1,1v3h-1h1l1,1v2h2l-1,2l-1,1v5v-1l-1,1v2l1,1l1,1h-1h1v2h1l1,1h3l2,2h-1l-1,1v2l1,1h2v1h1v1l-1,1v1h1v1h2v2h2v-1v2h-2v3h-1v2h1l1,1v1h3l1,1v3h1v5l-22,2l-9,3l-1,1v1h-1l-5,1l-23,7l-4,-1l-2,-1h-3v-1l-2,-1h-1h1h-7v-1h-4l-4,-2l-2,-1l-1,-1v-2l-1,-3l-3,-4l1,-3l-1,-2l-1,-1l-4,-1v-3l-2,-2l-2,-2l10,-9h-1v-1l-1,-1l-3,-3v-2l-1,-2l-1,-1v-2l-1,-7h2l-1,-2h-2v-1h2v-3l1,-1v-1l-4,1l-1,-26l-4,1l-30,1l-1,-2v-3l-2,-3l2,-2l1,-3v-6l-1,-1h-1v-1l-2,-2h-2v-1l-2,-2l-1,-1v1v-1h-1l-1,-3Z"/><path data-race-id="TX02" d="M829,583l-2,-3v-2l-1,-5l1,-1v-1l1,-5l10,-1l1,-1h1l11,5l11,-13l6,15l-1,2l-3,4l-7,4l-6,-5l-1,-3l-3,-4h-1l-7,-1l-5,2v6l-1,2l-2,6h-1l3,3h1l5,1l4,5l-1,2l-2,3h-1v-5l-2,-1l-3,-3l-11,2v-8Z"/><path data-race-id="TX03" d="M727,313v-15h12l4,-4v1h1v-5h8v1l6,-1v3l-1,1v1h1v2l3,7l-2,2l1,1l-2,3v3l-2,3l-1,2l-2,-1h-6l-4,4h-16Z"/><path data-race-id="TX04" d="M718,240h1l2,1h1l3,6l5,3h5l2,-6l2,-2l2,2h2v1h-1v1l-1,1v1l1,1l1,1h5v2l1,1l1,1h1l1,-1h3l1,1v1l1,1v1l2,1v1h1v1h3v-2l1,-3v-1l1,-1l1,1l5,1l2,-1v-1l1,-3l1,-1l2,-1h1l1,-1h2v1l1,-1v-1h1v1l1,-1h1v-1l-1,-1h1l1,1v1l2,-1h1v-1l2,-1l2,1v1l2,1h1v1h1l1,-1v-1h2l1,1v-4l1,-1h2l2,1h1v-1h3l1,-2l2,-1v-1l1,1h2l1,2l1,2l1,-1v1l4,1h2l6,-1h1l1,-1l1,1l1,-2l1,-1l1,2h1v-5h1v-2l1,1h2l1,1h3v3l3,-1h1v1h-1v1h-1v1h2v-3v2v-1l1,1v1h1v1h4v1h1v-1h1v2h1v1h-1v1l1,1h1v-2h1v4h1v1h2l4,2v-2h1v2h2v-1l1,-1h1v1h-2l1,2h1v-1h1v1h-1v1h1v-1h1l-1,1h-1l1,1l1,1h1v-2l1,1v1h1l1,-1l1,1v1h1l1,1v-2h1v1l1,1h1v-2l1,1l-1,1h1v-1l1,1h-1v1h-1v1l1,-1h2v1h-2h4h-1v1h1v-1h1v1l1,-1h1h-1h2l1,-1l1,1h-2h1v1l-1,1l1,1v-1v1h2v1l1,1h1v-1l1,1h-2v1l1,1h3v-2l2,1l1,1v-1l1,-2h1v1h-1l2,1v-2l2,2l2,-1v-2h2v-1h2v2h4v-1h1l1,1h1l-1,1h2l1,15v9l1,14v5l1,2v12l1,6v11l-4,-4l-6,4l-3,-2v-2h-1h1h-1v-1h-1l-7,4l-12,1l-14,-7l1,12h-2l-1,-1l-5,7l-12,5l3,-16v-1l1,-1l-4,1l-12,7l-1,-21v-9l-1,1v1v-1v2l-1,1h-9l-25,1l-1,1l4,20h-1l-3,-1l-2,-1h-4l-2,-1v-1h-1v1h-1l-2,-1l-2,-1l-1,-1l-3,-3h-26v3l-16,1v-15h3v-2l1,-1l1,-2l2,-3v-3l2,-3l-1,-1l2,-2l-3,-7v-2h-1v-1l1,-1v-3l-6,1v-1h-8v5h-1v-1l-4,4h-12v-12l-7,-1l-1,-6v-30Z"/><path data-race-id="TX05" d="M736,329l3,2l-2,-2h5v2h1v1l1,4l2,-2l1,-1l4,4v-1l16,-1v-3h26l3,3l1,1l2,1l2,1h1v-1h1v1l2,1h4l2,1l3,1h1l-4,-20l1,-1l25,-1h5v3l-5,1l-1,4l-7,3v5l-1,4h1v1h1v1l2,9h-3l-1,-1v1h-2h1h-1l-3,-1l-1,-1l-3,-2v-1l-1,-1v16l1,3h1v1v-1l1,1l2,2v1h2l2,2v1h1l1,1v6l-1,3l-2,2l2,3v3l1,2l30,-1l4,-1l1,26l4,-1v1l-1,1v3h-2v1h2l1,2h-2l1,7v2l1,1l1,2v2l3,3l1,1v1h1l-10,9l-2,-2l-2,-1h-2l-1,-1v-4l-3,-1l-4,-2h-2l-4,-2l-26,5l-7,4l2,-10l-6,1v-7h-7v-5l-7,-3l-3,-13l-3,-5h-1v-1l-3,-5l-1,-7l-3,-2v-1l-3,-1h-1l-2,-3l-11,-6l-5,-3v-1h1v-2l-7,-12l-4,-2l-1,-10h-3h1l-3,-8l1,-4l-7,1v-2h1l-1,-2Z"/><path data-race-id="TX06" d="M694,352v-1v1l1,3l4,-5l1,-1l2,-2v-3v1v-1v1h1l-2,-2l-2,-2l3,1h1l2,-1l1,-1l6,-1l1,-1l1,1v2h-6l1,2l1,2l-1,1v1l1,-1l5,1v12h36l7,12v2h-1v1l5,3l11,6l2,3h1l3,1v1l3,2l1,7l3,5v1l-30,19l-16,-1l-14,-22l-4,2l-10,-18l-1,-24h-21v-8Z"/><path data-race-id="TX07" d="M823,577l2,1h2v2l2,3h-6v8l11,-2l3,3l2,1v5h1l-2,3l-3,-1v-1h-1l-2,-4l-12,2l-4,-2v-4l-1,-4v-1l5,-9Z"/><path data-race-id="TX08" d="M775,480l1,-2l1,-1h1l1,-2l2,-4l10,-4l2,-3l2,-1h2v2h1l7,-4l-1,-1l14,-1l-4,-4l-2,-8l-1,-2l7,-4l26,-5l4,2h2l4,2l3,1v4l1,1h2l2,1l2,2l2,2l2,2v3l4,1l1,1l1,2l-1,3l3,4l1,3v2l1,1l-6,8l-6,5l-13,15l5,4l1,10h8l-1,7l14,2l-1,4l-10,8l-12,6l5,14l-11,13l-11,-5h-1l-1,1l-10,1l-1,5v1l-1,1l-5,-6v-1h1l11,-2l-2,-1h-1l-3,-4v1l-1,1h-1l-2,1h-1v1v-1v1l-1,1v-1v1v-1v1h-2l-6,2h-2l-1,-14l-21,3v-5l-5,-4l3,-10h-1l-1,-2v-1v1v-1l-2,-7l-1,-1l-1,-3l1,-1v-5l-1,-2l1,-1v-4v1v-2l-1,-1v-1l1,-2h-1v-4l-1,-2v-3l-1,-1l-2,-3v-2l-1,-1l-1,-1l1,-1v-2l-1,-1l-1,-1Z"/><path data-race-id="TX09" d="M820,597l12,-2l2,4h1v1l3,1l2,-3l2,-3l1,4h7v6l-5,2h-6l-1,5h-6l-2,-7v-2l-5,-3l-4,1Z"/><path data-race-id="TX10" d="M656,536l4,-1l4,4l1,2l3,2h4h-1h1l2,2l3,-6l2,-2l5,2v2l1,2l8,2v1h11l7,4l8,-5l4,1l5,-6l3,-3l1,1v1h2v1h1l1,1h1v1v-1v1h1v1l1,1l1,2h1v1l1,1h2l2,1l2,1h2l3,-1l1,-1l7,-2l7,-1l6,-3h10v4l5,4v5l21,-3l1,14h2l6,-2h2v-1v1v-1v1l1,-1v-1v1v-1h1l2,-1h1l1,-1v-1l3,4h1l2,1l-11,2h-1v1l5,6l1,5h-2l-2,-1h-3l-5,9v1l1,4v4l-6,-4l-14,6l1,8l-5,3l-7,-3l-10,12l-3,9l-20,13l-2,-1l8,-6l-17,-20l-7,-5l-20,1v-2l-13,-11l8,-10l2,-9l-3,-5l-10,-1l-3,-9l-8,-2l-3,1v-1l-2,-3l-1,-3v-4l-8,-1l-2,-2l-1,1l3,2l-2,2h-3l-3,-2l2,-3h-2l-10,-5Z"/><path data-race-id="TX11" d="M283,361l11,1h38l13,1l1,-37h36v37l-1,37l31,1h6v-30l1,-7h36v37l31,1h43v-37h38v-16l5,-5v1l1,-1l-1,-1h2v1v-1v1l-1,1h1v3h1l1,-1l2,-3l2,-1l21,5l4,-2v-19h10v-5h26v38l32,-1l1,20l-12,1l-12,8v-1l-5,1l-14,1l-7,-5l4,7l-2,3v9v-1l1,8l5,5l4,6l-12,7l-10,7l8,13l6,9l-5,6l-16,11l2,12l6,-2l1,7v9l3,11v19h5v6h-70v19h-60v-68h-83v-30l1,-9v-10h-68l-7,-1h-34l-2,-1v-35l1,-2l-20,-1l1,-2Z"/><path data-race-id="TX12" d="M641,322h27l1,-6l7,2l2,-4l1,-2v-1l-3,-2h-1h1h-1l-2,-2l-1,-4l3,-4l2,6l9,1h2v16h3l7,10l-1,1l6,-2v4l-1,5h-5l-1,-2l-4,-3l-4,3l1,1l3,1l1,6l1,5v1l-4,-1v8h-17l-32,1Z"/><path data-race-id="TX13" d="M291,166v-28l1,-3v-26l1,-11v-18l1,-14v-32l1,-9v-1h54l5,1h47l5,1h97v165h3v-1h3v1h1v1h1v1h1v2h1l1,1l1,1v1h1v1l1,1l1,1h1l1,2h1l1,1h1v2h6v1h2l1,-2h-1l1,-1l1,-1h2l3,1l1,1h2v1v-1l1,1v1h1l1,-1l1,1v-2l1,-1v-3h-1h1v-1h2v1l1,1l1,1h3v1h1v1h-1v1h1l1,1h1h-1v1h1v-1v2h1l-1,1h2v1h1h-1v3h1v4l1,1v2h3v-1h1v1h9v-1h1l1,1h3v1h1v1h2v1h1v1h3v-1h1v1h1v1h2v1h1v1h1v-1h4v-1h1v-1h1v-1h3v1h1v-1h1v1h1l1,1v1h1h-1v1h1l1,1v2h2l1,1h1v-1h4l1,-1v-3h2v-1h-1v-1h1l1,-1h1v1h2l1,1h1l1,1l1,-1l1,1v-1l1,1h1l1,1h3v-1l1,-1v-1h1v-1h1l1,1l1,1v2l-1,1v1h-1v2h1l1,1l1,1h-2v1h1v1h1v1h-1h1l1,1h6v-1l1,1h1v2l-1,1l-1,1h1l1,1l-1,1l-1,1v2l1,1h3l1,1h1v1h4l1,-1l1,-1v-1v1l1,-1v-1h1v-2h2v-2h2l1,-1v-2h1v-1h3l1,1h1v1h2v4l1,1h3l1,-1h1l1,-1h1v1h1l1,1h1v4h-1v1l2,1h4l1,-1h1v-3l1,-1v3l1,-1v-2l1,1h1v1h3v-3l1,-1v-1h2l1,1l1,1v2h1v2l-1,1h-1l-1,1l1,3v1h1v1h-1v1h1l1,1v2h4v-1h1v-7l1,-1h2v-1h-1l-2,-1v-1h2l1,1v1h1v-1h1l1,-1v-1l1,-1v-6h1v1h1l1,-1l1,9v30l1,6h-32v21h-2l-9,-1l-2,-6l-3,4l1,4l2,2h1h-1h1l3,2v1l-1,2l-2,4l-7,-2l-1,6h-53v-32h-185v-63h-9v4h-8v7l-5,1l-1,-4l-10,-2l-4,-2v-20h-31h1v-37l-11,-1h-26l-36,-1l1,-1Z"/><path data-race-id="TX14" d="M809,639l1,-3l8,-5l8,2l1,-1l5,-7v-5h7v-6h2v13l7,-2h-1l11,-3l-2,-4v-9h2v3l1,1h5v-1l2,-1l4,-2h1v1h1v1h1v1h2v1h3l-2,7l4,-2l2,6l-2,6l-2,-1l-9,10l-7,1l-1,7l-5,12l-8,7l-10,6l-6,-1l-9,-10h-6v-4h-1v-3h1l1,-1l-7,-5v-2ZM911,606l4,-2l1,-1l3,-2l-1,-23h-6l-1,-19h1l1,1l3,-1h1l4,-1l1,-1v-3h4v-1h1v-1v1v-1h1l4,1l1,1h2l6,11l14,3v10l-1,1h-1l-1,1l-2,4l3,1v3l2,2v1h1v1l1,2h-12l-9,2l-17,9l-1,1l-21,11l-8,8l8,-11h4l2,-5l6,2ZM893,626l-16,14l6,-10Z"/><path data-race-id="TX15" d="M582,811h12v-8l-1,-13v-47h35l-1,-7v-40l18,-15l-7,-8l14,-12l-3,-4l1,-7v-6l-1,-3l5,-5v-5h-12v-2l-1,-4v-3l-3,-1h-1v1l-1,-2v-1l-4,-2l-2,-1l4,-5l2,-2l8,-4l6,-6l10,-9l2,4l1,1v1h1v-1v1l2,2v1h1v1l1,1l4,4h4v1h2v1l-3,4l-12,20l8,13l9,9l-10,9l14,16l-16,13l-6,-2h-1h1h-1v-1h-1l-9,1l-5,2l20,42l-5,6l1,4h-27l1,5v47l1,16h18l1,4v48l3,3l-4,14l11,1v26h-1h1l-7,-3l-6,-2h-5l-4,-4l-3,14h-1v-1h-2v1h-1v-1h-1l-1,-1h-1v-1h1l1,-1h-1v1v-1h-1l-1,1v1v-1h-1l3,-14l-9,1l3,-11l-2,-4h-9l8,-18l4,-12h-7l-40,1v-35Z"/><path data-race-id="TX16" d="M25,403l1,-1h1l-1,-1v-1l1,-2h-1v1v-1l-1,-1l4,-2l11,1h4l28,2l-2,27l-17,-1l-5,-2h-3l-1,-1v-1l-1,-2h-2l-1,-1h-1v-1h-2v1h-3v-1l-1,-1l-1,-1v-1l-5,-3v-2h-2v-5Z"/><path data-race-id="TX17" d="M673,536l6,-1l4,1h2l9,5h2l2,2l13,-6l-8,-22l-4,-2l4,-13l13,-8l-15,-25l-5,4l-6,-6l-14,-23l9,-6l15,-8l17,-10l7,12l16,-9l16,1l30,-19v-1v1h1l3,5l3,13l7,3v5h7v7l6,-1l-2,10l1,2l2,8l4,4l-14,1l1,1l-7,4h-1v-2h-2l-2,1l-2,3l-10,4l-2,4l-1,2h-1l-1,1l-1,2l-1,2l1,1l1,1v2l-1,1l1,1l1,1v2l2,3l1,1v3l1,2v4h1l-1,2v1l1,1v2v-1v4l-1,1l1,2v5l-1,1l1,3l1,1l2,7v1v-1v1l1,2h1l-3,10v-4h-10l-6,3l-7,1l-7,2l-1,1l-3,1h-2l-2,-1l-2,-1h-2l-1,-1v-1h-1l-1,-2l-1,-1v-1h-1v-1v1v-1h-1l-1,-1h-1v-1h-2v-1l-1,-1l-3,3l-5,6l-4,-1l-8,5l-7,-4h-11v-1l-8,-2l-1,-2v-2l-5,-2l-2,2l-3,6l-2,-2h-1h1h-4l-3,-2Z"/><path data-race-id="TX18" d="M830,584h1l2,-6l1,-2v-6l5,-2l7,1h1l3,4l1,3l-9,1l-2,6l1,2l3,5h1l3,-11l5,-1l1,13l-1,4l-5,-5l-2,5l1,2l1,2h-5l-1,-4l1,-2l-4,-5l-5,-1h-1Z"/><path data-race-id="TX19" d="M286,290v-2l1,-15v-5l1,-18v-11l1,-17v-12l1,-8v-30l36,1h26l11,1v37h-1h31v20l4,2l10,2l1,4l5,-1v-7h8v-4h9v63h185v37h-10v19l-4,2l-21,-5l-2,1l-2,3l-1,1h-1v-3h-1l1,-1v-1v1v-1h-2l1,1l-1,1v-1l-5,5v16h-38v37h-43l-31,-1v-37h-36l-1,7v30h-6l-31,-1l1,-37v-37h-36l-1,37l-13,-1h-38l-11,-1l1,-2v-15l1,-20l1,-25Z"/><path data-race-id="TX20" d="M600,614l1,-3l7,2l1,2h-1v4h1l5,-1l1,1l-1,5v1h-4l4,10h-7h1h-4l-1,-9h-8l-3,-5l6,-2Z"/><path data-race-id="TX21" d="M501,602l1,-7l-1,-2l5,-21l15,1v-18h33v-19h70l16,6l-3,5l-9,28l13,10l3,-5v1v-1v1l5,-2l2,-12l10,-1v-7l-8,-4l5,-4h1h-1h1l3,4l5,-3v2v-1l2,2l-6,7l1,3l1,3v3l-1,-2l-1,2l-5,3v5l-2,7l-1,1h-2l-4,8l-3,4l-2,3l-1,1l-17,9l-5,1l-5,12h1h-3v-1l1,-5l-1,-1l-5,1h-1v-4h4l4,-8l2,-5l-9,-3l-1,1h-6l-1,1l-8,2l-2,2l-8,11h-5v-5h-76Z"/><path data-race-id="TX22" d="M792,608l5,-3l-1,-8l14,-6l6,4l4,2l1,4l4,-1l5,3v2l2,7h6l1,-5h6l5,-2h1l7,-1l4,3v2l2,3v1h-5l-1,-1v-3h-2v9l2,4l-11,3h1l-7,2v-13h-2v6h-7v5l-5,7l-1,1l-8,-2l-8,5l-7,-8l-2,-2l-1,-4h-2l-1,-1l-3,-3l1,-5l-1,-4l-2,-1Z"/><path data-race-id="TX23" d="M45,422h3l5,2l17,1l2,-27h11l36,2l30,1h7l21,1l3,1h23l5,1h9l18,1h23l5,1h18l1,-8l20,1l-1,2v35l2,1h34l7,1h68v10l-1,9v30h83v68h27v18l-15,-1l-5,21l1,2l-1,7l1,9h76v5h5l8,-11l2,-2l8,-2l1,-1h6l1,-1l9,3l-2,5l-4,8h-3l-1,-2l-7,-2l-1,3l-2,5l-6,2l3,5h8l1,9h4h-1h14l-2,-6h1v-1l5,2v6l-5,8l-1,9l-28,-10v13l1,2v60l1,14l-20,1v-1h-1l-24,1v-1l-19,1h-41l-1,-1v-2l-1,-1l-1,1v-1h-1v-1h-1l-2,-2v-2l1,-1l-1,-1l-1,-1v-1h-1v-2h-1v-1l-1,-1v-2l1,-1l-1,-2v-1h-1v-1h-1l1,-1h1l1,-1v-1h-2l-2,-1l-1,-1h-1v-2h1v-3h-2l-1,-1v-4h-4v-2l-1,-1v-3l1,-1l-1,-1v-1l-1,-1v1v-1h-1v-4l-2,-1h-1v-1l-1,-3l-1,-1h1h-1v-1h-1l-1,-1v1v-1h-1v-1h1h-1l-1,-2l1,-1v-4l-1,-1v-2l-1,-1l1,-1l-1,-2l-1,-3h-2l-1,-1v-1l-2,-1l-1,-1v-4l-1,-2h-1v-1h-1l-1,-1h-1l-2,-1h-1v-1l-1,-2h-1v-1h-1v-1h-1l-1,-1h-1v-1h-1l-1,-1h-2v-3h-1v-1h-1v-2l-1,-1v-1l-2,-1h-2l-2,-1l-2,-1l-1,-1v-1h-1l-2,-1h-2l-1,-1l1,-1v-1l1,-1h-1v-5h-1l-1,1v3l-1,1h-1l-1,-2v-1l1,-1v-3l-1,-1h-2l-1,1h-1v-3l-1,-1l-1,-1v-2h-1v-3l-1,1h-1v1h-1v-2h-1l1,-1l-1,-1h-1l-1,1v1h-1l-1,1h-1v-4h-2l-1,1v2h-1l-1,-1l-1,1l-2,1h-1v-1h-5v-1h-3v-1h-1v1h-2v-2h-1v1l-1,-1h-6l-1,1h-1l1,-1h-3v-1h-1v1h-4l-1,1h-1l-4,-1h-2l-1,-1v-1h-2v-1h1l-1,-1h-3l-2,-1h1h-2v-1h-1v-1h-1l-1,-1v1h-1v1h-2v1h-1v3l-1,2h-1v2h-2l-2,-1h-1l-1,-1v1h-1v-1h-2v2h-2v1l-1,1v-2l-1,-1v2h-3l-1,1l-1,1h-1l-1,-1h-1v1h-1v2l-1,1v2h-1v1h-1v1h-1v4h-1v1l-1,-1l-1,1h1v1l-1,1v1h-1l-1,1v6h-1v2h-1v3h1l1,1h-2v2h-1v1l-1,1h-2v3h-1v2l-1,1l1,1h-1l1,1v1h2v2h-1v1h-2v-1l-1,1v1h-2v1h-2v-1l-2,2v1h-1v1l-1,1v1h-1v2l-1,1v-1l-1,1h-1v1h-1l1,1h-1v-1l-1,1v4l-1,1v2h-2l-1,1h-1v-1h-2l-1,-1h-2l-1,1h-1v-1l-1,-1v2h-1v-2l-1,-1h-1v1v-2h-1l-1,-1h1l1,-1h-2v1l-1,1h-1l-1,-1v-1l-1,1v-1h-3l1,-1h-1v-1h-1v-1h-2h1l-1,-1h-1v-1l-1,-1v-1h-2h1v-1h-1v-1h-1l-1,-1h1h-3v-1h-5v-1h-1l-1,-1h-3l-1,-1v-2h-1l-1,-1v1h-1v-4h-2v-1h-2l-1,-1h-7v-1h-4v-1h-2v-1h-1l-1,-1v-1h-1l-1,-1v1v-1h-1v-1l-1,-1v-1h-2v-1h-2v-1h-1v-2h-1v-1h-1v-4h-1v1v-1h-1v-1l-1,-1h-3v-1h-2v-1v1h-3v-1h-1v-1l-1,-1v-1l-1,-1l-1,-1l-1,-1h-1v-1h-1v-1h-2v-1h-2l1,-1h-1v-1l-1,-1l-1,-1v-1h1l-1,-1v-3h-1h1h-1v-1h-1v-1h1h-1v-3h-1v-2v1l-1,-1h-1v-3h-1h1h-1v-2h-1v-1h-1v-2v1v-2h-1v-2h1l-1,-1h1h-1v-1h1h-1v-5h-1v-4h1l1,-1h-1h1v-1h-1v-1h1l-1,-1v-2h1h-1v-1h1v-3h-1v-1l-1,-1v-1l1,-1h-1l-1,-1v-1h-2v-2v1h-1v-1h1v-1l-1,-1h-1v-1h-1v-1h-1l-1,-1v-1l1,-2v1l-1,-1h-1v-1h-1v-3h-1l1,-1l-1,-1v-5l-1,-1v-3h-1v-2l-1,-1l-1,-1v-1h-2v-1h-1v-3l-1,-1v-1l-1,-1h-2v-1l-1,1h-1v-1l-1,-1h-1l-1,-2v-1h-1v-1h-3v-2h-1v1h-1v-2h-3v-2h-1v1h-1v-1l-1,-1v1v-1l-1,-1v1v-1h-1v1h-1v-1l-1,-1h-1v-1l-1,1v-2h-3v-1h1h-1v-1l-1,-1l-1,-1h-1v-1h-1v-1h-1v-1h-1v-1h-1v-1l-1,-1l-1,-1h-1v-1h-1l-1,-1v-1h1l-1,-1l-1,-3v-2h-1l-2,-1h-1v-2l-2,-1h-1l-1,-1h-1l-4,-3v-1l-1,-1l-3,-5v-1h-1v-2h-1v-1h-2v-1h-3v-1l-1,-2v-2l-1,-1h-1l-1,-2h-2l-4,-1l-1,-1l-2,-1h-1l-4,-3v-1h-1l-1,-1v-2l-1,-1v-2l-1,-1l-1,-1h-1v-2l-1,-1v-3h-1l-1,-1v-2h-1v-2Z"/><path data-race-id="TX24" d="M703,335v-7l1,-5v-1h-1h4l7,-1h6l2,-4l5,-4v8h3l-1,8h-2l2,3l-2,1v-1l-2,-3v-1h-1h1h-1l-1,6l-2,1h-4v1l-3,1l-10,1l-2,2Z"/><path data-race-id="TX25" d="M607,474l16,-11l5,-6l-6,-9l-8,-13l10,-7l12,-7l-4,-6l-5,-5l-1,-8v1v-9l2,-3l-4,-7l7,5l14,-1l5,-1v1l12,-8l12,-1l-1,-20h38l1,24l10,18l4,-2l14,22l-16,9l-7,-12l-17,10l-15,8l-9,6l14,23l-28,17h2l1,5l-5,-3l-5,3v2l6,11l-10,10l-6,15l10,1l5,9l-4,1l-1,5l10,5h2l-2,3l3,2h3l2,-2l3,6h-7l-2,-2v1v-2l-5,3l-3,-4h-1h1h-1l-5,4l8,4v7l-10,1l-2,12l-5,2v-1v1v-1l-3,5l-13,-10l9,-28l3,-5l-16,-6v-6h-5v-19l-3,-11v-9l-1,-7l-6,2Z"/><path data-race-id="TX26" d="M688,306v-21h32l7,1v27l-5,4l-2,4h-6l-7,1h-4h1v1l-1,5v3l-6,2l1,-1l-7,-10h-3Z"/><path data-race-id="TX27" d="M658,779l1,-23l9,-8v-4h1v-1v1v-1l11,2l4,8l3,-6l5,-2h-1h2h-2l-1,-2h1h-1l-5,-7l2,-3l12,-20l16,-14v-1l-2,-3l1,-14l-5,-8l-6,1l24,-22l-20,-23l-6,6h-1l-1,-1l-10,-8l-5,-5l-9,-10l3,-4v-1h-2v-1h-4l-4,-4l-1,-1v-1h-1v-1l4,-4l-3,-7l4,1h5l-3,-12h-2l5,-4l11,-13l8,2l3,9l10,1l3,5l-2,9l-8,10l13,11v2l20,-1l7,5l17,20l-8,6l2,1l20,-13l3,-9l10,-12l7,3l2,1l1,4l-1,5l3,3l1,1h2l1,4l2,2l7,8l-1,3l2,7v2l7,5l-1,1h-1v3h1v4h6l9,10l6,1l-16,8h-7l-10,4l-1,6l6,-1l-23,12l-9,8l6,-8l14,-7l4,-1l-3,-5l-10,5l-5,-4l3,-4l-7,1l-3,4l-5,-3l-3,-3v10l-3,-6l-5,3l-2,-6h-1v1v-2h-6v1l7,10l13,11v3l-10,3l-8,5l-5,-6l-6,-3v1h1v2l-1,1l-5,-2l4,5v2l1,1v1l-1,4v4l-2,3l-7,5l-2,-10l-2,9l-3,-5l-5,4h-7l1,3l-5,6l7,1l-3,6l5,-8l6,-3l1,5l-8,11v2l-2,2v2h-1v2h-4v-1h-1h2v-2v1h-1v-1h-1v-2h-5v1h-2v1l-1,1v-1h1v-2h-3l-6,1v-1v2l-1,-1v1h-1v-2h-2v1h-1v1l1,1h2v1h8l-1,4l4,6l6,2l-5,11h-22l-16,1l-1,-1l-1,-1v-1l-4,-2ZM758,721l5,-4l6,1l-9,5l-9,6l-11,11v-2l1,-2l1,-4l8,-3ZM738,740l1,2l-11,11l2,-8ZM716,770l6,-10l3,1l-5,6l-6,11Z"/><path data-race-id="TX28" d="M488,733h41l19,-1v1l24,-1h1v1l20,-1l-1,-14v-60l-1,-2v-13l28,10l1,-9l5,-8v-6l-5,-2l5,-3l-3,-4l3,-5l2,-3l3,3l2,1l4,2v1l1,2v-1h1l3,1v3l1,4v2h12v5l-5,5l1,3v6l-1,7l3,4l-14,12l7,8l-18,15v40l1,7h-35v47l1,13v8h-12l1,6v35l40,-1h7l-4,12l-8,18h9l2,4l-3,11l9,-1l-3,14v-1h-1v-1l-1,-1v-2l-1,1h-1v-2v2h-2v-3h-2v-1h-2v-1h-2l-1,1h1h-3v-2l-1,1v-1l-1,1l-2,-2h1v1h-1v1v-1l-1,-1v1h-1v-2h-2v1h-1v-1l-1,1l-1,1h-1v-1h-1v-2h-3v-1h2l-1,-1h-1l-1,-1h-1l-1,-1h1v1h1v-1l-1,-1h-3v-1h-1v-2h-1l-2,-1v1h-4v1h-1v-2h-1v-1h-1v1l-1,1v-1h-1v-2h-2l-1,1v-1h-2v-1h-2l-1,1h-2l-1,-1v-1l-1,-1h-1l1,-1h1h-1v-1h1v-2l-1,-1v-1h-1v-1l-1,-1h-1l-1,-1v-2l-6,-15v-4l-2,-2v-3l-1,-1l-1,-1h-3v-4h-3l-1,-1l-1,-1v-2l1,-1h-1l-1,-2v-2l-1,1h-1v-2h-1v-2l1,-1v-1h1v-1l-1,-1v-1h1v-2h-1l1,-1v-4l-1,-1v-1h-1h1v-3h-5l1,-1v-2l-1,-1h-1v1h-1v-1h-1v-1h1l1,-1l1,-1v-3h1v-4l-1,-1v-1l1,-4h-3v-5h1v-2h-1l-3,-3h-1v1h-1l1,-1h-1v-1l-1,-1h-2v1h-2v-2l-1,-1h-1l-1,1l-1,-1l-1,-1l-1,-2h-1v-1l-1,-1h-2v-1h-1v-2l-1,-2l-1,1v1h-1v-1l-1,-1v-1h-2v-5h-1l-1,-1v-5h-1v-2h-1v-1h1l-2,-2h-1l-2,-1v-1h-1v-2h-1v-4h-3v-3h-1v-1h-1v-2h-1l-1,-1h-2v-1h-2l-1,-1v-1h-2Z"/><path data-race-id="TX29" d="M842,577l9,-1l6,5l4,4l-1,6l-2,2l3,5l-4,3v3h1l-7,1h-1v-6h-2l-1,-2l-1,-2l2,-5l5,5l1,-4l-1,-13l-5,1l-3,11h-1l-3,-5l-1,-2Z"/><path data-race-id="TX30" d="M715,347v-2h1l3,1v1l2,-2l8,1l-1,-3l-2,-2l1,-1v-8v1l2,4l1,-1l1,2l1,-1l1,2l2,-2v-1l7,-1l-1,4l3,8h-1h3l1,10l4,2h-36Z"/><path data-race-id="TX31" d="M661,500l-6,-11v-2l5,-3l5,3l-1,-5h-2l28,-17l6,6l5,-4l15,25l-13,8l-4,13l4,2l8,22l-13,6l-2,-2h-2l-9,-5h-2l-4,-1l-6,1l-8,5l-1,-2l-4,-4l-5,-9l-10,-1l6,-15Z"/><path data-race-id="TX32" d="M729,329l1,-8h13l4,-4h6l2,1l-1,1v2h-3v16l-4,-4l-1,1l-2,2l-1,-4v-1h-1v-2h-5l2,2l-3,-2l-1,3l1,2h-1v3l-2,2l-1,-2l-1,1l-1,-2l-1,1l-2,-4l2,-1l-2,-3Z"/><path data-race-id="TX33" d="M688,338l4,-3l4,3l1,2h5l2,-2l10,-1l3,-1v-1h4l2,-1l1,-6h1h-1h1v1l2,3v8l-1,1l2,2l1,3l-8,-1l-2,2v-1l-3,-1h-1v2l-5,-1l-1,1v-1l1,-1l-1,-2l-1,-2h6v-2l-1,-1l-1,1l-6,1l-1,1l-2,1h-1l-3,-1l2,2l2,2h-1v-1v1v-1v3l-2,2l-1,1l-4,5l-1,-3v-1l-1,-5l-1,-6l-3,-1Z"/><path data-race-id="TX34" d="M635,743h27l-1,-4l5,-6l-20,-42l5,-2l9,-1h1v1h1h-1h1l6,2l16,-13l-14,-16l10,-9l-9,-9l-8,-13l12,-20l9,10l5,5l10,8l1,1h1l6,-6l20,23l-24,22l6,-1l5,8l-1,14l2,3v1l-16,14l-12,20l-2,3l5,7h1h-1l1,2h2h-2h1l-5,2l-3,6l-4,-8l-11,-2v1v-1v1h-1v4l-9,8l-1,23l2,1l4,2v1l1,1l1,1l16,-1h22l-2,14l-4,7l-9,3l5,-9l-6,5l-5,2l-10,-10l7,12l-9,1h11v3h9l7,-2l-2,12l-3,1l2,8l-7,3v12l8,7l2,13l2,7l-4,6l4,1l-2,2l5,-1l2,5l4,20l8,5l-3,9l7,-4l1,4h-11v1h1l-1,1h-2v1v-1h-1v1h-1l-1,-1v1l-1,1v3h-1h1v2h-1h1v1h-3v-1v1h-3v-1l-1,-1h-1v-1h-2v-2v1h-1v1h-1v-2h-1v-2h-2l-1,-1h-1h1v-1v1h-1v-1l-2,-1l-1,-1l-1,-1h1v-1v1h-1v-2l-2,-1h-2v1v-1l-1,-1v1h-4l-1,-1l-1,1v-1h-1v-1h-2h1h-1v-1h-1v1h-3v-1l1,-1h-1v1h-3l-1,1l-1,-1l1,1h-1l-1,-1l-1,1l-1,-1h-1l-1,1h-1v-1h-1v1l-1,1l-2,1h-1v-1h1v-1h-1v-1h-1v1l-1,-1h-2l-1,1h-1l-1,-1h-1v1h-1v-1l3,-14l4,4h5l6,2l7,3h-1h1v-26l-11,-1l4,-14l-3,-3v-48l-1,-4h-18l-1,-16v-47ZM710,782h2l-7,18l-2,8l-1,10l1,23l-2,-3l1,-26l1,-4h-1l1,-8ZM702,842l1,-1l5,20l-4,-6ZM708,861l1,5l3,7h-1l-5,-4l2,-3l-2,-6Z"/><path data-race-id="TX35" d="M614,625h3h-1l5,-12l5,-1l17,-9l1,-1l2,-3l3,-4l4,-8h2l1,-1l2,-7v-5l5,-3l1,-2l1,2v-3l-1,-3l-1,-3l6,-7h7l-3,-6l-3,-2l1,-1l2,2l8,1v4l1,3l2,3v1l3,-1l-11,13l-5,4h2l3,12h-5l-4,-1l3,7l-4,4l-2,-2v-1v1h-1v-1l-1,-1l-2,-4l-10,9l-6,6l-8,4l-2,2l-4,5l-3,-3l-2,3l-3,5l3,4l-5,3v1h-1l2,6h-7l-4,-10Z"/><path data-race-id="TX36" d="M857,601l4,-3l-3,-5l15,5h-1v1h-1v3l1,2h1v1h-1v1l-1,1v2h-1l-4,2l-2,1v1h-1h1v-1l-2,-3v-2l-4,-3h-1ZM858,593l2,-2l1,-6l-4,-4l7,-4l3,-4l1,-2l-6,-15l-5,-14l12,-6l10,-8l1,-4l-14,-2l1,-7h-8l-1,-10l-5,-4l13,-15l6,-5l6,-8l2,1l4,2h4v1h7h-1h1l2,1v1h3l2,1l4,1l23,-7l5,-1h1v-1l1,-1l9,-3l22,-2l1,1l2,-2h1v-1v1l1,1v1h-1l1,1v2l-1,2h-1h1v1h1h-1v1l1,-1v1h1l1,1l-1,1l1,1h1h-1v1h-1v1h-1v1l-1,-1h-1v1l1,1v1h-1v1h2v1h2v3h-2v2h-1v2h1v4h1l-2,2h-1l1,1h-1v2h-1v1v-1v1h-1h1v1h-1v1h1h-1v1h1v1v-1l-1,1v2l-1,1h-1l-1,1v1h-1v4h-1h1v2h-1h1h-3v2l-1,1h1h-1v2h2v5h1v2h1h-1v1h-1v1v-1l-1,1h1h-1v1v-1v1l-1,1v1h-1h1h-1v1l1,1h-1l1,1h-1l1,2v1h1v1h1v1h1l1,1v4l-1,1v1h1h-1v1h1v2h1v1h-1v1h1v1h1h-1v2h-1l-1,1v2h1v1h1v1h-1v-1v2l-1,2l-3,2h-1l-1,3l-3,8v1v-10l-14,-3l-6,-11h-2l-1,-1l-4,-1h-1v1v-1v1h-1v1h-4v3l-1,1l-4,1h-1l-3,1l-1,-1h-1l1,19h6l1,23l-3,2l-1,1l-4,2h-1v1h-1l-1,1h-1v-2h-1v-1h-3l-1,1h-1l-1,1h-2l-1,1h-1v1h-3l-1,1h-4v-2l6,-6v-12l-10,-3l-4,12l-3,-2l-10,-4l-2,-8l-1,8Z"/></g>  <path class="districts-mesh" d="M632,909l3,-14l-9,1l3,-11l-2,-4h-9l8,-18l4,-12h-7l-40,1v-35l-1,-6h12v-8l-1,-13v-47h35l-1,-7v-40l18,-15l-7,-8l14,-12l-3,-4l1,-7v-6l-1,-3l5,-5v-5h-12v-2l-1,-4v-3l-3,-1h-1v1l-1,-2v-1l-4,-2l-2,-1l4,-5l2,-2l8,-4l6,-6l10,-9l2,4l1,1v1h1v-1v1l2,2v1h1v1l1,1l4,4h4v1h2v1l-3,4l-12,20l8,13l9,9l-10,9l14,16l-16,13l-6,-2h-1v-1h-1l-9,1l-5,2l20,42l-5,6l1,4h-27l1,5v47l1,16h18l1,4v48l3,3l-4,14l11,1v26h-1h1l-7,-3l-6,-2h-5l-4,-4l-3,14M72,398l-2,27l-17,-1l-5,-2h-3M842,319h4l1,-1v-2l1,-1v9l1,21l12,-7l4,-1l-1,1v1l-3,16l12,-5l5,-7l1,1h2l-1,-12l14,7l12,-1l7,-4h1v1h1v2l3,2l6,-4l4,4M283,361l11,1h38l13,1l1,-37h36v37l-1,37l31,1h6v-30l1,-7h36v37l31,1h43v-37h38v-16l5,-5v1l1,-1l-1,-1h2v1l-1,1h1v3h1l1,-1l2,-3l2,-1l21,5l4,-2v-19h10v-5h26v38l32,-1l1,20l-12,1l-12,8v-1l-5,1l-14,1l-7,-5l4,7l-2,3v9v-1l1,8l5,5l4,6l-12,7l-10,7l8,13l6,9l-5,6l-16,11l2,12l6,-2l1,7v9l3,11v19h5v6h-70v19h-60v-68h-83v-30l1,-9v-10h-68l-7,-1h-34l-2,-1v-35l1,-2l-20,-1M690,359h-17M703,331v-3l1,-5v-1h-1h4l7,-1h6l2,-4l5,-4v-27l-7,-1h-32v21M615,322v-32h-185v-63h-9v4h-8v7l-5,1l-1,-4l-10,-2l-4,-2v-20h-31h1v-37l-11,-1h-26l-36,-1M838,672l-6,-1l-9,-10h-6v-4h-1v-3h1l1,-1l-7,-5v-2l-2,-7l1,-3l8,-5l8,2l1,-1l5,-7v-5h7v-6h2v13l7,-2h-1l11,-3l-2,-4v-9h2v3l1,1h5v-1l2,-1l4,-2h1M822,562v1l-1,1v-1v1h-2l-6,2h-2l-1,-14l-21,3v-5l-5,-4l3,-10h-1l-1,-2v-1v1M878,473l-1,-1v-2l-1,-3l-3,-4l1,-3l-1,-2l-1,-1l-4,-1v-3l-2,-2l-2,-2l10,-9h-1v-1l-1,-1l-3,-3v-2l-1,-2l-1,-1v-2l-1,-7h2l-1,-2h-2v-1h2v-3l1,-1v-1l-4,1l-1,-26l-4,1l-30,1l-1,-2v-3l-2,-3l2,-2l1,-3v-6l-1,-1h-1v-1l-2,-2h-2v-1l-2,-2l-1,-1v1v-1h-1l-1,-3v-16l1,1v1l3,2l1,1l3,1h2v-1l1,1h3l-2,-9v-1h-1v-1h-1l1,-4v-5l7,-3l1,-4l5,-1v-3h-5l-25,1l-1,1l4,20h-1l-3,-1l-2,-1h-4l-2,-1v-1h-1v1h-1l-2,-1l-2,-1l-1,-1l-3,-3h-26v3l-16,1v-15h3v-2l1,-1M911,606l4,-2l1,-1l3,-2l-1,-23h-6l-1,-19h1l1,1l3,-1h1l4,-1l1,-1v-3h4v-1h1v-1v1M720,285l-1,-6v-30l-1,-9M967,466l-22,2l-9,3l-1,1v1h-1l-5,1l-23,7l-4,-1l-2,-1h-3v-1l-2,-1h-1h1M927,552h1l4,1l1,1h2l6,11l14,3v10M840,598h-1v-5l-2,-1l-3,-3l-11,2v-8h6l-2,-3v-2l-1,-5l-5,-6v-1h1l11,-2l-2,-1h-1l-3,-4v1l-1,1h-1l-2,1h-1v1M786,403v-1l-3,-5l-1,-7l-3,-2v-1l-3,-1h-1l-2,-3l-11,-6l-5,-3v-1h1v-2l-7,-12l-4,-2l-1,-10h-3h1l-3,-8l1,-4l-7,1v-2h1l-1,-2l1,-3l3,2l-2,-2h5v2h1v1l1,4l2,-2l1,-1l4,4v-1M851,576l-1,-3l-3,-4h-1l-7,-1l-5,2v6l-1,2l-2,6h-1l3,3h1l5,1l4,5l-1,2l1,4h7v6l-5,2h-6l-1,5h-6l-2,-7v-2l-5,-3l-4,1l-1,-4M673,549l-2,2h-3l-3,-2l2,-3h-2l-10,-5l1,-5l4,-1l4,4l1,2l8,-5l6,-1l4,1h2l9,5h2l2,2l13,-6l-8,-22l-4,-2l4,-13l13,-8l-15,-25l-5,4l-6,-6l-14,-23l9,-6l15,-8l17,-10l7,12l16,-9M826,573l1,-1v-1l1,-5l10,-1l1,-1h1l11,5l11,-13l6,15l-1,2l-3,4l-7,4l-6,-5l-9,1l-2,6l1,2l3,5h1l3,-11l5,-1l1,13l-1,4l-5,-5l-2,5l1,2l1,2M600,614l1,-3l7,2l1,2h-1v4h1l5,-1l1,1l-1,5v1h-4l4,10h-10l-1,-9h-8l-3,-5l6,-2l2,-5M609,615h3l4,-8l2,-5l-9,-3l-1,1h-6l-1,1l-8,2l-2,2l-8,11h-5v-5h-76l-1,-9l1,-7l-1,-2l5,-21l15,1v-18M624,536l16,6l-3,5l-9,28l13,10l3,-5v1l5,-2l2,-12l10,-1v-7l-8,-4l5,-4h1h-1h1l3,4l5,-3v2v-1l2,2l-6,7l1,3l1,3v3l-1,-2l-1,2l-5,3v5l-2,7l-1,1h-2l-4,8l-3,4l-2,3l-1,1l-17,9l-5,1l-5,12h1h-3M894,477h-6v-1h-4l-4,-2l-2,-1l-6,8l-6,5l-13,15l5,4l1,10h8l-1,7l14,2l-1,4l-10,8l-12,6l5,14M850,605h1l7,-1l4,3v2l2,3v1M614,635h7l-2,-6h1v-1l5,2v6l-5,8l-1,9l-28,-10v13l1,2v60l1,14l-20,1v-1h-1l-24,1v-1l-19,1h-41M842,595l-2,3l-2,3l-3,-1v-1h-1l-2,-4l-12,2l-4,-2v-4l-1,-4v-1l5,-9h3l2,1h2M730,321l-1,8h-2l2,3l-2,1v-1l-2,-3v-1h-1h1h-1l-1,6l-2,1h-4v1l-3,1l-10,1l-2,2M690,465l-28,17h2l1,5l-5,-3l-5,3v2l6,11l-10,10l-6,15l10,1l5,9M816,595l-6,-4l-14,6l1,8l-5,3l-7,-3l-10,12l-3,9l-20,13l-2,-1l8,-6l-17,-20l-7,-5l-20,1v-2l-13,-11l8,-10l2,-9l-3,-5l-10,-1l-3,-9l-8,-2l-3,1v-1l-2,-3l-1,-3v-4l-8,-1l-2,-2l-1,1l3,2l3,6h-7M671,543h1l2,2l3,-6l2,-2l5,2v2l1,2l8,2v1h11l7,4l8,-5l4,1l5,-6l3,-3l1,1v1h2v1h1l1,1h1v1h1v1l1,1l1,2h1v1l1,1h2l2,1l2,1h2l3,-1l1,-1l7,-2l7,-1l6,-3h10v4M692,745h1h-1M704,784h-22l-16,1l-1,-1l-1,-1v-1l-4,-2l-2,-1l1,-23l9,-8v-4h1v-1l11,2l4,8l3,-6l5,-2h-1l-1,-2h1h-1l-5,-7l2,-3l12,-20l16,-14v-1l-2,-3l1,-14l-5,-8l-6,1l24,-22l-20,-23l-6,6h-1l-1,-1l-10,-8l-5,-5l-9,-10M666,598l4,-4l-3,-7l4,1h5l-3,-12h-2l5,-4l11,-13M847,317v-1M620,628l5,-3l-3,-4l3,-5l2,-3l3,3M727,298h12l4,-4v1h1v-5h8v1l6,-1v3l-1,1v1h1v2l3,7l-2,2l1,1l-2,3v3l-2,3l-1,2l-2,-1h-6l-4,4h-16v-8M857,581l4,4l-1,6l-2,2l3,5l-4,3v3h1M715,347v-2h1l3,1v1l2,-2l8,1l-1,-3l-2,-2l1,-1v-8M864,449l-2,-2l-2,-1h-2l-1,-1v-4l-3,-1l-4,-2h-2l-4,-2l-26,5l-7,4l2,-10l-6,1v-7h-7v-5l-7,-3l-3,-13l-3,-5h-1l-30,19l-16,-1l-14,-22l-4,2l-10,-18l-1,-24h-21v-8l4,1v-1v1l1,3l4,-5l1,-1l2,-2v-3v1v-1v1h1l-2,-2l-2,-2l3,1h1l2,-1l1,-1l6,-1l1,-1l1,1v2h-6l1,2l1,2l-1,1v1l1,-1l5,1v12h36M727,333l2,4l1,-1l1,2l1,-1l1,2l2,-2v-1M641,322h27l1,-6l7,2l2,-4l1,-2v-1l-3,-2h-1l-2,-2l-1,-4l3,-4l2,6l9,1h2v16h3l7,10l-1,1l6,-2v4l-1,5h-5l-1,-2l-4,-3l-4,3l1,1l3,1l1,6l1,5M785,533l-2,-7l-1,-1l-1,-3l1,-1v-5l-1,-2l1,-1v-4v1v-2l-1,-1v-1l1,-2h-1v-4l-1,-2v-3l-1,-1l-2,-3v-2l-1,-1l-1,-1l1,-1v-2l-1,-1l-1,-1l1,-2l1,-2l1,-1h1l1,-2l2,-4l10,-4l2,-3l2,-1h2v2h1l7,-4l-1,-1l14,-1l-4,-4l-2,-8l-1,-2M665,541l3,2h4M810,636l-7,-8l-2,-2l-1,-4h-2l-1,-1l-3,-3l1,-5l-1,-4l-2,-1M826,350h1"/></svg>