<svg version="1.1" xmlns="http://www.w3.org/2000/svg" width="797" height="1000" viewBox="0 0 797 1000">
  <path d="M469 27
v 92
l 1 21
v 78
h 97
l 45 -2
h 30
l 43 -1
l 10 -1
l 34 -1
h 25
v 1
l 1 8
v 15
l 1 1
v 16
l 1 18
v 11
l 1 16
v 56
l 1 2
v 24
l 1 6
v 20
l 1 25
v 34
l 1 6
v 21
l 1 3
v 24
l 1 2
v 50
l 1 15
v 52
l 1 14
l 1 27
v 49
l 4 20
v 28
l 1 6
v 4
l 1 23
v 44
l 1 1
v 40
l 1 33
l 1 2
v 33
l -1 7
h -21
l -2 1
h -36
l -2 1
h -25
l -18 1
h -42
l -6 1
h -65
l -1 -1
l -12 1
h -66
l -10 1
h -178
l -9 -1
h -88
l -12 -1
h -48
l -2 -1
h -44
v -1
h -37
l -11 -1
h -20
v -44
l 1 -9
v -18
l 1 -27
v -8
l 1 -2
v -38
l 1 -1
v -18
l 1 -17
v -8
l 1 -16
v -44
l 1 -7
v -28
l 1 -2
v -20
l 1 -2
v -24
l 1 -44
v -7
l 1 -4
v -10
l 1 -39
l 1 -43
v -8
l 1 -2
v -22
l 1 -6
v -40
l 1 -13
v -20
l 1 -1
l 1 -46
v -26
l 2 -26
v -22
l 1 -2
v -15
l 1 -8
v -46
l 1 -2
v -24
l 1 -3
v -14
l 1 -24
v -18
l 1 -22
v -13
l 1 -20
v -22
l 67 1
h 70
l 4 1
h 29
l 94 1
h 128
Z"/>
<g class="districts">
<path data-race-id="UT01" d="M42 209
v -22
l 1 -2
v -24
l 1 -3
v -14
l 1 -24
v -18
l 1 -22
v -13
l 1 -20
v -22
l 19 1
h 118
l 4 1
h 29
l 94 1
h 128
l 30 -1
v 92
l 1 8
v 91
h 112
v -1
h 33
l 4 -1
h 39
l 2 -1
h 32
l 3 -1
l 34 -1
h 25
v 1
l 1 8
v 15
l 1 1
v 16
l 1 18
v 11
l 1 16
v 56
l 1 2
v 24
l 1 6
v 20
l 1 25
v 34
l 1 6
v 21
l 1 3
v 1
l -4 -1
l -5 8
l -19 1
h -36
l -4 1
h -37
l -4 1
h -23
l -11 -1
l 2 -3
l -4 -14
l 4 -11
v -7
l 4 -1
l -2 -9
h 3
l -2 -8
l 8 -1
l 2 -7
l 7 -1
l -2 -3
h -14
l -1 1
h -127
v -16
h -5
v -35
h -1
v -49
l -1 -17
v -47
l -7 1
v 6
l -2 3
v 5
l -8 3
l -2 1
l -13 -2
l -4 7
l -17 -6
l -8 -7
l -7 -1
l -3 -11
h -6
l -1 6
l -5 2
l -3 7
h -7
l -8 -11
v -9
h -1
l -1 -8
l -4 -4
l 1 -4
l -3 -10
l -6 -3
l -5 1
l -8 -10
l -3 -9
h 6
l -4 -7
l -5 -1
h -4
h 1
h -2
v 1
l -1 -3
l -8 2
l -3 1
l -13 1
l -3 -6
l -4 -2
l -4 -8
v -3
h -47
l -6 2
l -37 12
l -6 3
l -8 -1
h -50
l -7 -1
h -36
l -11 -1
h -37
l -5 -1
h -24
Z"/>
<path data-race-id="UT02" d="M22 864
l 1 -2
v -38
l 1 -1
v -18
l 1 -17
v -8
l 1 -16
v -44
l 1 -7
v -28
l 1 -2
v -20
l 1 -2
v -24
l 1 -44
v -7
l 1 -4
v -10
l 1 -39
l 1 -43
v -8
l 1 -2
v -22
l 1 -6
v -40
l 1 -13
v -20
l 1 -1
l 1 -46
v -26
l 2 -26
v -22
l 1 -2
v -15
l 1 -8
v -20
h 24
l 5 1
h 37
l 11 1
h 36
l 7 1
h 50
l 8 1
l 6 -3
l 37 -12
l 6 -2
h 47
v 3
l 4 8
l 4 2
l 3 6
l 13 -1
l 3 -1
l 8 -2
l 1 3
v -1
h 2
h -1
h 4
l 5 1
l 4 7
h -6
l 3 9
l 8 10
l 5 -1
l 6 3
l 3 10
l -1 4
l 4 4
l 1 8
h 1
h -23
l -3 1
v -2
l -7 1
l -13 -3
h -9
v 8
h -6
l -1 10
h -23
l 2 4
v 23
l 1 4
l -6 1
l 5 25
l -1 9
l 1 10
l 5 11
l -5 3
l 3 9
l -4 8
l 1 10
l 7 8
h 3
v 8
l 7 6
l -4 22
l -4 4
h -10
l -3 9
l -14 11
l -5 13
l -4 5
h 21
l 3 13
v 30
h 17
v 3
h 8
v -4
h 9
v -5
l 5 -3
h 26
v -7
h 32
l 4 -1
h 29
l 1 24
v 118
h -1
v 33
h 29
l 1 -1
h 104
l 3 -1
h 52
l 4 3
l -1 11
l -3 8
l 3 4
l 6 -5
v 9
l 7 15
l 3 -2
l 3 11
l -6 12
l -8 9
l -3 -2
l -6 7
l -5 15
l -9 -2
l -4 8
l -6 4
v 10
l -9 -1
l -1 6
l -3 -4
h -14
l -2 8
l -5 3
v 5
l -5 -1
l 4 15
l -6 6
l -1 8
l -5 5
l -6 -1
v 5
l -5 1
v 7
l -7 6
l -4 12
l -7 -1
l -4 4
l 3 5
h 5
l -3 6
l -6 -1
l 6 6
l -3 6
l -10 5
l -8 -6
l 3 9
l -5 2
l 1 7
l -5 15
l -4 -1
l -5 11
l -13 4
h -18
l -9 9
l -4 7
l -3 -7
l -5 -2
v 11
l -5 -2
l -6 4
h -133
l -9 -1
h -88
l -12 -1
h -48
l -2 -1
h -44
v -1
h -37
l -11 -1
h -20
v -44
l 1 -9
v -18
l 1 -27
v -4
Z"/>
<path data-race-id="UT03" d="M364 273
l 3 -1
h 23
v 9
l 8 11
h 7
l 3 -7
l 5 -2
l 1 -6
h 6
l 3 11
l 7 1
l 8 7
l 17 6
l 4 -7
l 13 2
l 2 -1
l 8 -3
v -5
l 2 -3
v -6
l 7 -1
v 47
l 1 17
v 49
h 1
v 35
h 5
v 16
h 127
l 1 -1
h 14
l 2 3
l -7 1
l -2 7
l -8 1
l 2 8
h -3
l 2 9
l -4 1
v 7
l -4 11
l 4 14
l -2 3
l 11 1
h 23
l 4 -1
h 37
l 4 -1
h 36
l 19 -1
l 5 -8
l 4 1
v 23
l 1 2
v 50
l 1 15
v 52
l 1 14
l 1 27
v 49
l 4 21
v 27
l 1 6
v 4
l 1 23
v 44
l 1 1
v 40
l 1 33
l 1 2
v 33
l -1 7
h -21
l -2 1
h -36
l -2 1
h -25
l -18 1
h -42
l -6 1
h -65
l -1 -1
l -12 1
h -66
l -10 1
h -50
h 5
l 6 -4
l 5 2
v -11
l 5 2
l 3 7
l 4 -7
l 9 -9
h 18
l 13 -4
l 5 -11
l 4 1
l 5 -15
l -1 -7
l 5 -2
l -3 -9
l 8 6
l 10 -5
l 3 -6
l -6 -6
l 6 1
l 3 -6
h -5
l -3 -5
l 4 -4
l 7 1
l 4 -12
l 7 -6
v -7
l 5 -1
v -5
l 6 1
l 5 -5
l 1 -8
l 6 -6
l -4 -15
l 5 1
v -5
l 5 -3
l 2 -8
h 14
l 3 4
l 1 -6
l 9 1
v -10
l 6 -4
l 4 -8
l 9 2
l 5 -15
l 6 -7
l 3 2
l 8 -9
l 6 -12
l -3 -11
l -3 2
l -7 -15
v -9
l -6 5
l -3 -4
l 3 -8
l 1 -11
l -4 -3
h -52
l -3 1
h -104
l -1 1
h -29
v -33
h 1
v -118
l -1 -24
v -8
h 8
v -66
h -75
l 3 -10
l -10 -14
l 7 -8
v -7
l 13 -18
l 4 -3
v -11
l -12 -1
v -11
l -6 -5
l -1 -15
l -6 -4
l -14 -14
l 3 -6
v -11
h 3
v -17
h 6
l -3 -7
l 6 -3
l 5 4
Z"/>
<path data-race-id="UT04" d="M320 448
l 4 -22
l -7 -6
v -8
h -3
l -7 -8
l -1 -10
l 4 -8
l -3 -9
l 5 -3
l -5 -11
l -1 -10
l 1 -9
l -5 -25
l 6 -1
l -1 -4
v -23
l -2 -4
h 23
l 1 -10
h 6
v -8
h 9
l 13 3
l 7 -1
v 2
l 1 8
l -5 -4
l -6 3
l 3 7
h -6
v 17
h -3
v 11
l -3 6
l 14 14
l 6 4
l 1 15
l 6 5
v 11
l 12 1
v 11
l -4 3
l -13 18
v 7
l -7 8
l 10 14
l -3 10
h 75
v 66
h -8
v 8
h -29
l -4 1
h -32
v 7
h -26
l -5 3
v 5
h -9
v 4
h -8
v -3
h -17
v -30
l -3 -13
h -21
l 4 -5
l 5 -13
l 14 -11
l 3 -9
h 10
Z"/>
</g>
  <path class="districts-mesh" d="M389 272
l -1 -8
l -4 -4
l 1 -4
l -3 -10
l -6 -3
l -5 1
l -8 -10
l -3 -9
h 6
l -4 -7
l -5 -1
h -4
h 1
h -2
v 1
l -1 -3
l -8 2
l -3 1
l -13 1
l -3 -6
l -4 -2
l -4 -8
v -3
h -47
l -6 2
l -37 12
l -6 3
l -8 -1
h -50
l -7 -1
h -36
l -11 -1
h -37
l -5 -1
h -24
M763 497
l -4 -1
l -5 8
l -19 1
h -36
l -4 1
h -37
l -4 1
h -23
l -11 -1
l 2 -3
l -4 -14
l 4 -11
v -7
l 4 -1
l -2 -9
h 3
l -2 -8
l 8 -1
l 2 -7
l 7 -1
l -2 -3
h -14
l -1 1
h -127
v -16
h -5
v -35
h -1
v -49
l -1 -17
v -47
l -7 1
v 6
l -2 3
v 5
l -8 3
l -2 1
l -13 -2
l -4 7
l -17 -6
l -8 -7
l -7 -1
l -3 -11
h -6
l -1 6
l -5 2
l -3 7
h -7
l -8 -11
v -9
h -23
l -3 1
v -2
l -7 1
l -13 -3
h -9
v 8
h -6
l -1 10
h -23
l 2 4
v 23
l 1 4
l -6 1
l 5 25
l -1 9
l 1 10
l 5 11
l -5 3
l 3 9
l -4 8
l 1 10
l 7 8
h 3
v 8
l 7 6
l -4 22
l -4 4
h -10
l -3 9
l -14 11
l -5 13
l -4 5
h 21
l 3 13
v 30
h 17
v 3
h 8
v -4
h 9
v -5
l 5 -3
h 26
v -7
h 32
l 4 -1
h 29
l 1 24
v 118
h -1
v 33
h 29
l 1 -1
h 104
l 3 -1
h 52
l 4 3
l -1 11
l -3 8
l 3 4
l 6 -5
v 9
l 7 15
l 3 -2
l 3 11
l -6 12
l -8 9
l -3 -2
l -6 7
l -5 15
l -9 -2
l -4 8
l -6 4
v 10
l -9 -1
l -1 6
l -3 -4
h -14
l -2 8
l -5 3
v 5
l -5 -1
l 4 15
l -6 6
l -1 8
l -5 5
l -6 -1
v 5
l -5 1
v 7
l -7 6
l -4 12
l -7 -1
l -4 4
l 3 5
h 5
l -3 6
l -6 -1
l 6 6
l -3 6
l -10 5
l -8 -6
l 3 9
l -5 2
l 1 7
l -5 15
l -4 -1
l -5 11
l -13 4
h -18
l -9 9
l -4 7
l -3 -7
l -5 -2
v 11
l -5 -2
l -6 4
h -5
M434 516
v -8
h 8
v -66
h -75
l 3 -10
l -10 -14
l 7 -8
v -7
l 13 -18
l 4 -3
v -11
l -12 -1
v -11
l -6 -5
l -1 -15
l -6 -4
l -14 -14
l 3 -6
v -11
h 3
v -17
h 6
l -3 -7
l 6 -3
l 5 4
l -1 -8"/>
</svg>