<svg version="1.1" xmlns="http://www.w3.org/2000/svg" width="797" height="1000" viewBox="0 0 797 1000"><path data-race-id="UT01" d="M42,209v-22l1,-2v-24l1,-3v-14l1,-24v-18l1,-22v-13l1,-20v-22l19,1h118l4,1h29l94,1h128l30,-1v92l1,8v91h112v-1h33l4,-1h39l2,-1h32l3,-1l34,-1h25v1l1,8v15l1,1v16l1,18v11l1,16v56l1,2v24l1,6v20l1,25v34l1,6v21l1,3v1l-4,-1l-5,8l-19,1h-36l-4,1h-37l-4,1h-23l-11,-1l2,-3l-4,-14l4,-11v-7l4,-1l-2,-9h3l-2,-8l8,-1l2,-7l7,-1l-2,-3h-14l-1,1h-127v-16h-5v-35h-1v-49l-1,-17v-47l-7,1v6l-2,3v5l-8,3l-2,1l-13,-2l-4,7l-17,-6l-8,-7l-7,-1l-3,-11h-6l-1,6l-5,2l-3,7h-7l-8,-11v-9h-1l-1,-8l-4,-4l1,-4l-3,-10l-6,-3l-5,1l-8,-10l-3,-9h6l-4,-7l-5,-1h-4h1h-2v1l-1,-3l-8,2l-3,1l-13,1l-3,-6l-4,-2l-4,-8v-3h-47l-6,2l-37,12l-6,3l-8,-1h-50l-7,-1h-36l-11,-1h-37l-5,-1h-24Z"/><path data-race-id="UT02" d="M22,864l1,-2v-38l1,-1v-18l1,-17v-8l1,-16v-44l1,-7v-28l1,-2v-20l1,-2v-24l1,-44v-7l1,-4v-10l1,-39l1,-43v-8l1,-2v-22l1,-6v-40l1,-13v-20l1,-1l1,-46v-26l2,-26v-22l1,-2v-15l1,-8v-20h24l5,1h37l11,1h36l7,1h50l8,1l6,-3l37,-12l6,-2h47v3l4,8l4,2l3,6l13,-1l3,-1l8,-2l1,3v-1h2h-1h4l5,1l4,7h-6l3,9l8,10l5,-1l6,3l3,10l-1,4l4,4l1,8h1h-23l-3,1v-2l-7,1l-13,-3h-9v8h-6l-1,10h-23l2,4v23l1,4l-6,1l5,25l-1,9l1,10l5,11l-5,3l3,9l-4,8l1,10l7,8h3v8l7,6l-4,22l-4,4h-10l-3,9l-14,11l-5,13l-4,5h21l3,13v30h17v3h8v-4h9v-5l5,-3h26v-7h32l4,-1h29l1,24v118h-1v33h29l1,-1h104l3,-1h52l4,3l-1,11l-3,8l3,4l6,-5v9l7,15l3,-2l3,11l-6,12l-8,9l-3,-2l-6,7l-5,15l-9,-2l-4,8l-6,4v10l-9,-1l-1,6l-3,-4h-14l-2,8l-5,3v5l-5,-1l4,15l-6,6l-1,8l-5,5l-6,-1v5l-5,1v7l-7,6l-4,12l-7,-1l-4,4l3,5h5l-3,6l-6,-1l6,6l-3,6l-10,5l-8,-6l3,9l-5,2l1,7l-5,15l-4,-1l-5,11l-13,4h-18l-9,9l-4,7l-3,-7l-5,-2v11l-5,-2l-6,4h-133l-9,-1h-88l-12,-1h-48l-2,-1h-44v-1h-37l-11,-1h-20v-44l1,-9v-18l1,-27v-4Z"/><path data-race-id="UT03" d="M364,273l3,-1h23v9l8,11h7l3,-7l5,-2l1,-6h6l3,11l7,1l8,7l17,6l4,-7l13,2l2,-1l8,-3v-5l2,-3v-6l7,-1v47l1,17v49h1v35h5v16h127l1,-1h14l2,3l-7,1l-2,7l-8,1l2,8h-3l2,9l-4,1v7l-4,11l4,14l-2,3l11,1h23l4,-1h37l4,-1h36l19,-1l5,-8l4,1v23l1,2v50l1,15v52l1,14l1,27v49l4,21v27l1,6v4l1,23v44l1,1v40l1,33l1,2v33l-1,7h-21l-2,1h-36l-2,1h-25l-18,1h-42l-6,1h-65l-1,-1l-12,1h-66l-10,1h-50h5l6,-4l5,2v-11l5,2l3,7l4,-7l9,-9h18l13,-4l5,-11l4,1l5,-15l-1,-7l5,-2l-3,-9l8,6l10,-5l3,-6l-6,-6l6,1l3,-6h-5l-3,-5l4,-4l7,1l4,-12l7,-6v-7l5,-1v-5l6,1l5,-5l1,-8l6,-6l-4,-15l5,1v-5l5,-3l2,-8h14l3,4l1,-6l9,1v-10l6,-4l4,-8l9,2l5,-15l6,-7l3,2l8,-9l6,-12l-3,-11l-3,2l-7,-15v-9l-6,5l-3,-4l3,-8l1,-11l-4,-3h-52l-3,1h-104l-1,1h-29v-33h1v-118l-1,-24v-8h8v-66h-75l3,-10l-10,-14l7,-8v-7l13,-18l4,-3v-11l-12,-1v-11l-6,-5l-1,-15l-6,-4l-14,-14l3,-6v-11h3v-17h6l-3,-7l6,-3l5,4Z"/><path data-race-id="UT04" d="M320,448l4,-22l-7,-6v-8h-3l-7,-8l-1,-10l4,-8l-3,-9l5,-3l-5,-11l-1,-10l1,-9l-5,-25l6,-1l-1,-4v-23l-2,-4h23l1,-10h6v-8h9l13,3l7,-1v2l1,8l-5,-4l-6,3l3,7h-6v17h-3v11l-3,6l14,14l6,4l1,15l6,5v11l12,1v11l-4,3l-13,18v7l-7,8l10,14l-3,10h75v66h-8v8h-29l-4,1h-32v7h-26l-5,3v5h-9v4h-8v-3h-17v-30l-3,-13h-21l4,-5l5,-13l14,-11l3,-9h10Z"/>  <path class="mesh" d="M389,272l-1,-8l-4,-4l1,-4l-3,-10l-6,-3l-5,1l-8,-10l-3,-9h6l-4,-7l-5,-1h-4h1h-2v1l-1,-3l-8,2l-3,1l-13,1l-3,-6l-4,-2l-4,-8v-3h-47l-6,2l-37,12l-6,3l-8,-1h-50l-7,-1h-36l-11,-1h-37l-5,-1h-24M763,497l-4,-1l-5,8l-19,1h-36l-4,1h-37l-4,1h-23l-11,-1l2,-3l-4,-14l4,-11v-7l4,-1l-2,-9h3l-2,-8l8,-1l2,-7l7,-1l-2,-3h-14l-1,1h-127v-16h-5v-35h-1v-49l-1,-17v-47l-7,1v6l-2,3v5l-8,3l-2,1l-13,-2l-4,7l-17,-6l-8,-7l-7,-1l-3,-11h-6l-1,6l-5,2l-3,7h-7l-8,-11v-9h-23l-3,1v-2l-7,1l-13,-3h-9v8h-6l-1,10h-23l2,4v23l1,4l-6,1l5,25l-1,9l1,10l5,11l-5,3l3,9l-4,8l1,10l7,8h3v8l7,6l-4,22l-4,4h-10l-3,9l-14,11l-5,13l-4,5h21l3,13v30h17v3h8v-4h9v-5l5,-3h26v-7h32l4,-1h29l1,24v118h-1v33h29l1,-1h104l3,-1h52l4,3l-1,11l-3,8l3,4l6,-5v9l7,15l3,-2l3,11l-6,12l-8,9l-3,-2l-6,7l-5,15l-9,-2l-4,8l-6,4v10l-9,-1l-1,6l-3,-4h-14l-2,8l-5,3v5l-5,-1l4,15l-6,6l-1,8l-5,5l-6,-1v5l-5,1v7l-7,6l-4,12l-7,-1l-4,4l3,5h5l-3,6l-6,-1l6,6l-3,6l-10,5l-8,-6l3,9l-5,2l1,7l-5,15l-4,-1l-5,11l-13,4h-18l-9,9l-4,7l-3,-7l-5,-2v11l-5,-2l-6,4h-5M434,516v-8h8v-66h-75l3,-10l-10,-14l7,-8v-7l13,-18l4,-3v-11l-12,-1v-11l-6,-5l-1,-15l-6,-4l-14,-14l3,-6v-11h3v-17h6l-3,-7l6,-3l5,4l-1,-8"/></svg>