<svg version="1.1" xmlns="http://www.w3.org/2000/svg" width="1000" height="438" viewBox="0 0 1000 438"><path data-race-id="VA01" d="M686,143l3,-4l-2,-9l7,3l3,7v-9l5,-3l1,-10l3,1l-5,-12l8,-3l13,-2l1,2v2l-5,6l5,2l3,3l8,-3l8,2v1l-2,2l-4,1l-2,6l8,3l-3,7l3,3h1l2,3l-1,1l-1,1v1l-1,1v3l1,14v1h1v1h1v1l-3,3l9,1l11,-6h2l7,-5l5,3v6l-2,5h1v5l5,-1h1v3h1v3l2,3v1h3v1h2v1h1v1h1v1h3v1h5l1,-1h2l7,5l2,-4l8,6l3,-1v1l1,1v1h1l1,1l2,1h1l1,1h1v2h1v1l-6,6l8,-2v1h2l2,1h1l9,9l2,-1l4,1v1h1l2,1h1v1h1v1h2v1h1l1,1l1,1l1,2l-1,7l-5,-1l-1,4l1,17l-5,-1l3,4l-3,7l-15,-6l-3,4l-3,-8l-10,-15l-3,1l-7,-4l-7,-7l-2,-5l-7,-4l-6,-6l-3,-12l-2,-1l-10,-1l-4,-10l1,8l14,4v13l6,1l-1,3l8,7l11,16l5,2l10,7l-1,4l9,11h11l1,4l14,3l-4,3h-9l-3,3l-12,-6l12,7l9,-2l8,6l5,6l-3,16l-13,-9l-6,-8l-1,4l4,5l-4,1l5,8l-5,3h9l-1,5l-13,3l-23,-28l-9,-9l-2,-11l2,5l-9,4l1,-7l-11,3l-2,-3l-2,5l13,-1l-1,3h8v5l6,5l10,12h-2l-2,1l-4,-1l2,9l-1,5h-1l-1,7h-4l-9,-2l-1,-18l-3,-1v-3l-14,-4h-2v-1h-3v-1h-3l-1,-1h-2v-2l-6,-3v-1l-4,-3l-2,-3l-4,-2h-1l-5,-2l-3,-1v-1l-3,-2h-1l-4,-2v-2l-5,-8h-4l-1,-3h-2l-1,1v1v-1v1v-1l-4,2h-2l-1,-1l-1,-1l-1,-1h-13l-9,-3l6,-18l6,-22l5,3l14,-17l-2,-12h1v-3l2,-9l-3,-5l-9,-3l-2,-5l-2,-6l-6,-2l-5,2Z"/><path data-race-id="VA02" d="M805,325h4l1,-7h1l1,-5l-2,-9l4,1l2,-1h2l7,10l16,11l6,-1l1,12l6,-4l7,5l-5,4l-4,-1l5,2l-3,6h1l-3,-4l-2,-2h-4l-3,-1l-3,-3l-3,-7l-6,-6l-3,1l-2,6l-6,-7l-11,1l-4,-1ZM932,214l7,-4h1l19,-3l-5,5l2,10l-7,1l-2,7l8,-4l-6,7l-11,21l1,-7l-3,6l2,2l-2,9l-4,-5l-3,7l6,6l-7,1l2,3l-5,3v-5l-5,7l9,3l-3,5l-2,-5l-8,-2l-2,12l-9,8l-2,7v12l-2,2v12l-8,-9l-1,-16l4,-15l1,-14l3,-6l11,-1h-12l2,-7h5l-2,-6l6,-9l5,-3v-5l-1,-5l5,3l5,-1l-1,-8l3,1l2,-6l-3,-4l-5,1l2,-5h9l1,-6ZM974,205h1l-11,20h-5l8,-8l1,-7ZM898,417h-1l-5,-5v6h-8l-1,-16l7,-3l-10,-10l-6,-2l-3,-9h2l2,-6l-6,-5l-4,2v1l-2,-2h-5v-8h7l11,5l8,2l9,-4l4,2l7,28l6,13l3,11l-4,-1l1,-6l-3,-3v-7l-4,-7l-5,12ZM858,353l3,-6l-6,1l8,-8l-2,11ZM967,212l-4,9l-7,2ZM936,270l1,2l-7,12l-2,-2ZM932,289l-6,11v-11ZM908,312l1,5l-4,12l1,-16Z"/><path data-race-id="VA03" d="M787,399h5v-1l3,-7l4,-7l1,-5v-2l3,-7l-4,-7l1,-5l16,-10l3,-11l1,3l-1,9l11,4l10,8l-3,8l4,-2l-1,6l6,-4l4,1l6,-4l1,8l-4,4l-2,4l7,-7l5,4l6,-1h2l3,9l-5,5l-2,-2h-9l-2,-5l-5,-2l-1,-1h-6v10l-10,3l-3,-5l-12,-5l-23,22h-2l-7,-4ZM826,332l2,-6l3,-1l6,6l3,7l3,3l3,1h4l2,2l3,4l6,-1l-3,6l-6,4l-6,2l-2,-6l-19,-13ZM865,369l4,-2l6,5l-2,6l-9,-1l-6,-4l7,-4Z"/><path data-race-id="VA04" d="M686,336h2l4,-4l2,-1l6,-1l1,-1v-1h2l1,-1v-1l1,-1h1l1,-1l1,-3l-1,-5l5,-8l2,-7l8,2l12,-4l-2,-1h1h-1h1h-1l1,-3l-5,-2l-3,1l-1,-1l-2,-7h-1l-7,-2l-1,-4h3l6,-2l-1,-2v-1h5l2,-1h5l1,-1v-1l4,2h1l3,2v1l3,1l5,2h1l4,2l2,3l4,3v1l6,3v2h2l1,1h3v1h3v1h2l14,4v3l3,1v16l-7,2l-8,-10l-8,5l1,-7l-6,3l-16,-1l2,-9l-6,4l-2,-4h1v4h3l-2,6h-1l-1,1l3,-1h2v-1l1,1v1l1,1h1v1l4,-3l4,4l10,-4l5,6l5,-5v9h6l7,5l8,-1l1,2l11,6l3,-8l2,9l-3,11l-16,10l-1,5l4,7l-3,7v2l-1,5l-4,7l-3,7v1h-5v4l7,4h2l23,-22l12,5l3,5l10,-3v-10h6l1,1l5,2l2,5h9l2,2l5,-5l6,2l10,10l-7,3l1,16h-8l-14,1h-30l-4,1h-19l-11,1h-4v1h-37l-1,1h-41v1h-18l12,-24l-1,-26l-6,-3l-6,-8l-9,-3l-5,1l-1,-20Z"/><path data-race-id="VA05" d="M422,369l5,-1l2,-7l2,-14l-2,-4l4,-5l6,-1l7,4l6,-3l8,-9v-12l7,-6l2,-1l1,1h2l5,-1v-5l2,-1h2v-1l1,-1v-1l3,-5h1l6,10h9v-1h5l1,-1l4,-3l5,1l-1,2v1h1l1,2h1l2,2l-1,1v1h-1l-1,1l-3,1h-1l-3,8l6,5l3,1l8,-16l4,2l13,-5l3,-3l1,-4l5,-1l5,-6l9,-5l3,-5l-2,-1l-1,1l-10,-22l-9,-4v-7l-9,-5l-3,1l3,-6l-1,-6l8,-3l4,3l5,1l6,-8l4,-1h1v-6l7,-9l7,-5l-1,-6l4,-11l9,-10l13,-8l1,-5l6,-8l4,-8l1,-7l7,-5l1,-6l3,-3l2,-1l-1,-14l4,-3l1,-1l10,-3l4,-10l1,-1l1,-1l8,-4l1,-6l1,-1l4,-6l5,-5l34,10l-4,8l-2,9l4,6l5,12l-3,-1l-1,10l-5,3v9l-3,-7l-7,-3l2,9l-3,4l-6,-7l1,-7l-5,-10h-4l-17,15l-8,10l-6,-1h-1l12,14l1,1v1l1,1l-1,5l3,9l-7,4l-7,8l-8,-6l-8,13l18,7l-11,17l12,8l15,7l-11,22l9,6l-3,3l5,4l-2,3l-5,26h-1l-5,1l-2,3l-3,8l1,10l-1,25l2,5l6,2l10,8l8,-1l5,4h9l5,-1l9,3l6,8l6,3l1,26l-12,24h-48l-2,1h-34v1h-158l8,-9l-1,-6l-1,-3h-1v-1l1,-1v-1l-3,-3h5l7,-3l2,-11l-8,2l-21,-5l-5,5l-3,-7l-19,-4Z"/><path data-race-id="VA06" d="M428,332l6,-6l-1,-3h1h-1l5,2l1,-2h2v-6l5,-4l1,-3l3,-1l-14,-6l-1,-2l7,-13l5,-5l-7,-10l1,-4l11,-7l3,-5l9,-9l16,5l7,-14l-4,-2l-6,4l-6,-5l-16,-2l-4,-8l-7,-1l-3,2l-4,-1l1,-1h1v-1h1l1,-2h1v-1h1v-1h1v-2l1,-1h1h-1l1,-2h1v-2l1,-1v-1l1,-1h-1l1,-2l1,-1l1,-1v-1l1,-1h-1v-2l-1,-1l1,-1v-2h1v-2h1v-1h-1l1,-1l-1,-1h1l2,-1l1,-2h1l1,-1v-1l1,-1h1l1,-1v-1h1l1,-1h2v-1h1v-1h1l1,-1v-1l-1,-1v-1h-1v-4h1v-1h1v-1h1l1,-1v-2h3v-1h1v-3l1,-1v-2h1v-1l1,-1l1,-1v-3h1v-2h-1v-1h-1v-1l1,-1v-2h1v-1l1,-1h1v-1h1l-1,-1l-1,-1h1v-4h1v-3l1,-1l8,4h2l2,1l4,8l3,6l6,1l12,5h2l1,-1h1v-2l1,-1h1v-1h1v-1h2v-2l1,-1v-1l1,-1v-1l1,-1h-1l1,-3v-1l1,-1l1,-2h1v-2l1,-1v-1h1v-3l1,-1v-2l1,-1l1,-1v-2l1,-1h4v-2h1v-2l-1,-1v-1l1,-2v-3l1,-1l1,-1v-3l1,-1h-1l1,-2h2l1,-1v-2l1,-1l1,-1v-1l1,-1v-1l2,1l12,11l1,-2l1,-3l2,-2l4,-8l1,-1v-2l1,-1h2l1,-1v-2l2,-1l2,-1v4l1,-1v-1h1l1,-1h1l1,-1l1,-2l1,-2v-1h1l1,-1v-1h1l1,1l1,1h1l1,-1v-2h1l1,-2l1,-1l1,-1v-1h-1v-1h-1v-1l2,-2h1v-1l10,3l5,-8l7,-1l1,8l2,5l15,-2l3,-2l6,3l1,-1h3l2,1v1h1l3,3l-4,6l-1,1l-1,6l-8,4l-1,1l-1,1l-4,10l-10,3l-1,1l-4,3l1,14l-2,1l-3,3l-1,6l-7,5l-1,7l-4,8l-6,8l-1,5l-13,8l-9,10l-4,11l1,6l-7,5l-7,9v6h-1l-4,1l-6,8l-5,-1l-4,-3l-8,3l1,6l-3,6l3,-1l9,5v7l9,4l10,22l1,-1l2,1l-3,5l-9,5l-5,6l-5,1l-1,4l-3,3l-13,5l-4,-2l-8,16l-3,-1l-6,-5l3,-8h1l3,-1l1,-1h1v-1l1,-1l-2,-2h-1l-1,-2h-1v-1l1,-2l-5,-1l-4,3l-1,1h-5v1h-9l-6,-10h-1l-3,5v1l-1,1v1h-2l-2,1v5l-5,1h-2l-1,-1l-2,1l-7,6v12l-8,9l-6,3l-7,-4l-6,1v-1Z"/><path data-race-id="VA07" d="M626,193l8,-13l8,6l7,-8l7,-4l-3,-9l1,-5l-1,-1v-1l-1,-1l-12,-14h1l6,1l8,-10l17,-15h4l5,10l-1,7l6,7l9,16l5,-2l6,2l2,6l2,5l9,3l3,5l-2,9v3h-1l2,12l-14,17l-5,-3l-6,22l-6,18l9,3h13l1,1l1,1l1,1h2l4,-2v1v-1v1v-1l1,-1h2l1,3h4l5,8v3l-1,1h-5l-2,1h-5v1l1,2l-6,2h-3l1,4l7,2h1l2,7l1,1l3,-1l5,2l-1,3h1h-1h1h-1l2,1l-12,4l-8,-2l-2,7l-5,8l1,5l-1,3l-1,1h-1l-1,1v1l-1,1h-2v1l-1,1l-6,1l-2,1l-4,4h-2l-5,5l1,20h-9l-5,-4l-8,1l-10,-8l-6,-2l-2,-5l1,-25l-1,-10l3,-8l2,-3l5,-1h1l5,-26l2,-3l-5,-4l3,-3l-9,-6l11,-22l-15,-7l-12,-8l11,-17Z"/><path data-race-id="VA08" d="M749,121l2,-1v-11l3,-1v-1v1v-1h-1l2,-5l-2,-3l7,-2l-2,-4l-4,2h-1l-1,-11l6,-1v1h4v1l1,1v1h1v1h3l1,1v1l2,2h1v2h1v3h-2v1h1v2l-1,4l1,7v4h-4l-1,1h-1v1h-1l-2,2v1h-1v6l-3,2h-2l-1,1h-1l1,-5l-6,-3Z"/><path data-race-id="VA09" d="M25,406h1v-1h1v-1h3l1,-1v-1h4v-1v1l3,-2h2l1,-1l1,-1h4v1h8v-1h2l1,-1h1v-1h1v-1l1,1l1,-1h1l1,-1l4,-1h2v-1h5v-1h3v-1h8l1,-1h1v-2h1h-1v-4h2v-1l1,-1l1,-1v-3h1l1,-1h1v-2h6l1,1h1v-1h1l1,-1v1v-1h1l1,1v-1h4v-1h3v-1h1v-1h3v-1l1,-1l-1,-1l1,-1v-1h1v-1h1h-1v-3h1v-1h-1v-1h-1v-1l1,-1h1v-1h1l1,-1v-2h1v1v-1h5l1,-1h1v-1h2v-1l1,-1v-1h2v1v-5h1v-1h-1v-2h1v-1h-1h1l-1,-1v-1h1l1,-1h1v-1h3v-1h1v-1h1v-1h3v-1h1v-1h2v-1h1l1,-1h1v-1h2v-1h1v-1h2l1,-1h1v1v-1h1v-1l1,-1h2v-1h3v-1h4v-1h3v-1h3l1,-1h2v-1h1h-1v-1h2v-1h1v-1l7,-5l6,-5l7,-6l9,-7l1,-2h1l6,-5l3,-3v1v-1h1v1l3,3h-1v1h-2v2l-1,-1v1h-1v1h-2l-1,1v1h1v2h2v1h3v1h1v3l1,1h1v1h-1v2h-1l1,1h-1v1h1h-1v1l1,1v1h1v1h1v1h1v1l1,1h2v1h1l1,1h-1v1h1v2h1h-1v1h3v1h2v-1h2v1h1l1,1h2v1l1,1l1,1l-1,1l1,1h2v1h1v1h1v1h1v1h1v1h1l1,1l3,-1h10v-1h1v-1h1l1,-1h2v-2l1,-1v-1h1l-1,1h3v-1h1v-1h1v-1h4v-1h1v-1l1,-1v-1h1l-1,-1h1v-1h1v-1v1h1v-1h1v-2l4,4l1,1l2,2l1,1l4,4h1l1,1v1h1l1,1l3,-2l4,-2l2,-1h2l2,-1l2,-1h3l4,-1l5,-1h1v1h3l2,-1l1,-1h1l2,-1l2,-2l1,-1h1l1,-1h1l-2,-3h-1l-1,-2l2,-4v-2l1,-1l1,1l1,-1l1,2l2,1h1v2h1l1,1v1l1,1h1l2,-1h2v-1h2l2,-1l5,-3h1l1,-1l1,-1l3,-3h1l1,-1l2,-1h1l1,-1h3v-1l1,1v-1l1,5l1,2l2,2l5,-4l6,-3l1,-1v-1l2,-1h2l1,-1l2,-1h1l2,-4h-1l-2,1l-3,-1l1,-1h1v-1l-1,-2l3,-2l2,-1l1,-1l1,-1l1,-1l1,-1h1l1,-1v-1l-7,-10h1v-2l1,-1h1l1,-1v-1h-1v-3h1v-2h1v-1h1l1,-1v1v-1h1v1v-1l-1,-1v-2l1,-1h1v-1l1,-1v-1h1v-1h2h-1v-2h1v-1l1,-1v-1h1v-1h1v-1h1v1v-1h1l1,-1h1v-2h1v-1l1,-1l1,-1v-1h1v-1h1l1,-1l4,1l3,-2l7,1l4,8l16,2l6,5l6,-4l4,2l-7,14l-16,-5l-9,9l-3,5l-11,7l-1,4l7,10l-5,5l-7,13l1,2l14,6l-3,1l-1,3l-5,4v6h-2l-1,2l-5,-2h1h-1l1,3l-6,6l5,5v1l-4,5l2,4l-2,14l-2,7l-5,1l-6,10l19,4l3,7l5,-5l21,5l8,-2l-2,11l-7,3h-5l3,3v1l-1,1v1h1l1,3l1,6l-8,9h-28l-3,-1h-24v-1h-17l-9,-1h-2l-7,-1h-37l-1,-1h-11l-1,-1h-13l-1,-1h-23l-8,-1h-3v-1h-13l2,-4h-15l-2,-1h-16v2h-1v1h-4v-1h-37l-1,-1h-28l-1,-1v1v-1h-39l-1,-1h-18l-4,-1h-18l-1,-1h-17l-2,-1h-17v-1h-9v-1Z"/><path data-race-id="VA10" d="M606,69v-2h1v-2h1v-1h1l3,-2l1,-1h1l2,-3v-1l2,-2h1l1,-1v-1l-1,-1h-1v-1l-1,-1h1h-1v-1h-1l3,-3l1,-2v-1l1,-1h-1l-1,-1l-1,-1h1l1,-2v-1h1l1,-1v-1h1l1,-2l1,-1v-1l1,-1v-3l-1,-1h-1l1,-1v-1h1v-4l-1,-2h1v-7l8,7l8,5l8,8l11,8l3,3l4,3l12,10l4,2v-3l1,-2v-1l1,-2v-2l2,-3v-1l1,-3l1,-1l1,-1v-3l3,-4l1,-1h2v1h1v-1h2l1,1h1l1,1h3v1l1,-1l1,1h4v2h1v1l1,1v1h2l1,1l1,1l3,1h1v1l1,1v2h-1v4h-1l-1,1h-2v1l-1,1v6h1v1h2l1,1h1v3l1,1l1,1h3v1h11v1h3l1,1v1h1l1,1h2l1,1l1,1h-1v2h-1h1v2l1,1v1h1v-1l1,1v1h9v1h1v1h1v3h-3v-1l-6,1h-7l-4,-3v-2l-6,-2v1l-3,-1v1l-1,-1l-4,5v1h1v1l1,1l1,1h1l5,2h3h-1h1v-1h1v-1v1v-1h1v3l-1,1l-1,1l-1,1l-3,2l-3,-2l-6,7l-1,-2h-1v2l3,1l-1,1l1,-1h2v-1v1v-1h12l-1,6l6,3v1l2,1l-4,8l-2,-1v-1l-8,-2l-8,3l-3,-3l-5,-2l5,-6v-2l-1,-2l-13,2l-8,3l-4,-6l2,-9l4,-8l-34,-10l-5,5l-3,-3h-1v-1l-2,-1h-3l-1,1l-6,-3l-3,2l-15,2l-2,-5l-1,-8l-7,1l-5,8l-10,-3Z"/><path data-race-id="VA11" d="M724,99v-2h1l1,2l6,-7l3,2l3,-2l1,-1l1,-1l1,-1v-3h-1v1v-1v1h-1v1h-1h1h-3l-5,-2h-1l-1,-1l-1,-1v-1h-1v-1l4,-5l1,1v-1l3,1v-1l6,2v2l4,3h7l1,11h1l4,-2l2,4l-7,2l2,3l-2,5h1v1v-1v1l-3,1v11l-2,1l-1,16h-1v1l-5,1l-3,-3l3,-7l-8,-3l2,-6l4,-1l2,-2v-1v1l2,1l4,-8l-2,-1v-1l-6,-3l1,-6h-12v1v-1v1h-2l-1,1l1,-1Z"/>  <path class="mesh" d="M818,304h-2l-2,1l-4,-1l2,9l-1,5h-1l-1,7h-4M873,378l2,-6l-6,-5l-4,2M884,418l-1,-16l7,-3l-10,-10l-6,-2l-5,5l-2,-2h-9l-2,-5l-5,-2l-1,-1h-6v10l-10,3l-3,-5l-12,-5l-23,22h-2l-7,-4v-4h5v-1l3,-7l4,-7l1,-5v-2l3,-7l-4,-7l1,-5l16,-10l3,-11M433,338l6,-1l7,4l6,-3l8,-9v-12l7,-6l2,-1l1,1h2l5,-1v-5l2,-1h2v-1l1,-1v-1l3,-5h1l6,10h9v-1h5l1,-1l4,-3l5,1l-1,2v1h1l1,2h1l2,2l-1,1v1h-1l-1,1l-3,1h-1l-3,8l6,5l3,1l8,-16l4,2l13,-5l3,-3l1,-4l5,-1l5,-6l9,-5l3,-5l-2,-1l-1,1l-10,-22l-9,-4v-7l-9,-5l-3,1l3,-6l-1,-6l8,-3l4,3l5,1l6,-8l4,-1h1v-6l7,-9l7,-5l-1,-6l4,-11l9,-10l13,-8l1,-5l6,-8l4,-8l1,-7l7,-5l1,-6l3,-3l2,-1l-1,-14l4,-3l1,-1l10,-3l4,-10l1,-1l1,-1l8,-4l1,-6l1,-1l4,-6l5,-5l34,10l-4,8l-2,9l4,6l8,-3l13,-2l1,2v2l-5,6l5,2l3,3l8,-3l8,2v1l-2,2l-4,1l-2,6l8,3l-3,7l3,3M795,305l-3,-1v-3l-14,-4h-2v-1h-3v-1h-3l-1,-1h-2v-2l-6,-3v-1l-4,-3l-2,-3l-4,-2h-1l-5,-2l-3,-1v-1l-3,-2h-1l-4,-2v-2l-5,-8h-4l-1,-3h-2l-1,1v1v-1l-4,2h-2l-1,-1l-1,-1l-1,-1h-13l-9,-3l6,-18l6,-22l5,3l14,-17l-2,-12h1v-3l2,-9l-3,-5l-9,-3l-2,-5l-2,-6l-6,-2l-5,2l-9,-16l3,-4l-2,-9l7,3l3,7v-9l5,-3l1,-10l3,1l-5,-12M455,426l8,-9l-1,-6l-1,-3h-1v-1l1,-1v-1l-3,-3h5l7,-3l2,-11l-8,2l-21,-5l-5,5l-3,-7l-19,-4l6,-10l5,-1l2,-7l2,-14l-2,-4l4,-5v-1l-5,-5l6,-6l-1,-3h1M433,323l5,2l1,-2h2v-6l5,-4l1,-3l3,-1l-14,-6l-1,-2l7,-13l5,-5l-7,-10l1,-4l11,-7l3,-5l9,-9l16,5l7,-14l-4,-2l-6,4l-6,-5l-16,-2l-4,-8l-7,-1l-3,2l-4,-1M605,69l10,3l5,-8l7,-1l1,8l2,5l15,-2l3,-2l6,3l1,-1h3l2,1v1h1l3,3M749,121l2,-1v-11l3,-1v-1h-1l2,-5l-2,-3l7,-2l-2,-4l-4,2h-1l-1,-11l6,-1v1h3M697,424l12,-24l-1,-26l-6,-3l-6,-8l-9,-3l-5,1l-1,-20l5,-5h2l4,-4l2,-1l6,-1l1,-1v-1h2l1,-1v-1l1,-1h1l1,-1l1,-3l-1,-5l5,-8l2,-7l8,2l12,-4l-2,-1h1h-1l1,-3l-5,-2l-3,1l-1,-1l-2,-7h-1l-7,-2l-1,-4h3l6,-2l-1,-2v-1h5l2,-1h3M731,274h2l1,-1v-1M858,353l3,-6l-6,1l-3,-4l-2,-2h-4l-3,-1l-3,-3l-3,-7l-6,-6l-3,1l-2,6M874,387l-3,-9M752,84h-7l-4,-3v-2l-6,-2v1l-3,-1v1l-1,-1l-4,5v1h1v1l1,1l1,1h1l5,2h3v-1h1v-1h1v3l-1,1l-1,1l-1,1l-3,2l-3,-2l-6,7l-1,-2h-1v2l3,1l-1,1l1,-1h2v-1h12l-1,6l6,3v1l2,1l-4,8l-2,-1v-1M647,144M641,143M652,157M652,157M652,157M653,158M653,158M653,158M653,159M654,160M654,160M654,160M654,160M654,160M654,160M660,232M658,270M652,296M647,297M645,300M686,143l-6,-7l1,-7l-5,-10h-4M672,119l-17,15l-8,10M647,144l-6,-1M641,143h-1M640,143l12,14M652,157l1,1M653,158v1M653,159l1,1M654,160M654,160l-1,5l3,9M656,174l-7,4l-7,8l-8,-6M634,180l-8,13M626,193l18,7M644,200l-11,17M633,217l12,8l15,7M660,232l-11,22M649,254l9,6l-3,3l5,4M660,267l-2,3M658,270l-5,26M653,296h-1M652,296l-5,1M647,297l-2,3M645,300l-3,8M642,308l1,10M643,318l-1,25M642,343l2,5l6,2l10,8l8,-1M668,357l5,4h9"/><g class="cities"><circle r="7" cx="899" cy="375"/><text x="899" y="375">Virginia Beach</text><circle r="7" cx="729" cy="281"/><text x="729" y="281">Richmond</text><circle r="7" cx="771" cy="102"/><text x="771" y="102">Alexandria</text></g></svg>