<svg version="1.1" xmlns="http://www.w3.org/2000/svg" width="1000" height="438" viewBox="0 0 1000 438">
  <path d="M974 205
h 1
l -11 20
h -5
l 8 -8
l 1 -7
Z
M967 212
l -4 9
l -7 2
Z
M915 244
l -1 -5
l 5 3
l 5 -1
l -1 -8
l 3 1
l 2 -6
l -3 -4
l -5 1
l 2 -5
h 9
l 1 -6
l 7 -4
h 1
l 19 -3
l -5 5
l 2 10
l -7 1
l -2 7
l 8 -4
l -6 7
l -11 21
l 1 -7
l -3 6
l 2 2
l -2 9
l -4 -5
l -3 7
l 6 6
l -7 1
l 2 3
l -5 3
v -5
l -5 7
l 9 3
l -3 5
l -2 -5
l -8 -2
l -2 12
l -9 8
l -2 7
v 12
l -2 2
v 12
l -8 -9
l -1 -16
l 4 -15
l 1 -14
l 3 -6
l 11 -1
h -12
l 2 -7
h 5
l -2 -6
l 6 -9
l 5 -3
Z
M936 270
l 1 2
l -7 12
l -2 -2
Z
M932 289
l -6 11
v -11
Z
M908 312
l 1 5
l -4 12
l 1 -16
Z
M854 332
l 7 5
l -5 4
l -4 -1
l 5 2
l -3 6
h 1
l 8 -8
l -2 11
l -3 2
l -6 4
l -6 2
l -2 -6
l -19 -13
l 1 -8
l -6 -7
l -11 1
l -4 -1
l -9 -2
l -1 -18
v 16
l -7 2
l -8 -10
l -8 5
l 1 -7
l -6 3
l -16 -1
l 2 -9
l -6 4
l -2 -4
h 1
v 4
h 3
l -2 6
h -1
l -1 1
l 3 -1
h 2
v -1
l 1 1
v 1
l 1 1
h 1
v 1
l 4 -3
l 4 4
l 10 -4
l 5 6
l 5 -5
v 9
h 6
l 7 5
l 8 -1
l 1 2
l 11 6
l 3 -8
l 2 9
l 1 3
l -1 9
l 11 4
l 10 8
l -3 8
l 4 -2
l -1 6
l 6 -4
l 4 1
l 6 -4
l 1 8
l -4 4
l -2 4
l 7 -7
l 5 4
l 6 -1
h 4
l -9 -1
l -6 -4
l 7 -4
v 1
l -2 -2
h -5
v -8
h 7
l 11 5
l 8 2
l 9 -4
l 4 2
l 7 28
l 6 13
l 3 11
l -4 -1
l 1 -6
l -3 -3
v -7
l -4 -7
l -5 12
v 12
h -1
l -5 -5
v 6
h -16
l -14 1
h -30
l -4 1
h -19
l -11 1
h -4
v 1
h -37
l -1 1
h -41
v 1
h -66
l -2 1
h -34
v 1
h -186
l -3 -1
h -24
v -1
h -17
l -9 -1
h -2
l -7 -1
h -37
l -1 -1
h -11
l -1 -1
h -13
l -1 -1
h -23
l -8 -1
h -3
v -1
h -13
l 2 -4
h -15
l -2 -1
h -16
v 2
h -1
v 1
h -4
v -1
h -37
l -1 -1
h -28
l -1 -1
v 1
v -1
h -39
l -1 -1
h -18
l -4 -1
h -18
l -1 -1
h -17
l -2 -1
h -17
v -1
h -9
v -1
h 1
v -1
h 1
v -1
h 3
l 1 -1
v -1
h 4
v -1
v 1
l 3 -2
h 2
l 1 -1
l 1 -1
h 4
v 1
h 8
v -1
h 2
l 1 -1
h 1
v -1
h 1
v -1
l 1 1
l 1 -1
h 1
l 1 -1
l 4 -1
h 2
v -1
h 5
v -1
h 3
v -1
h 8
l 1 -1
h 1
v -2
h 1
h -1
v -4
h 2
v -1
l 1 -1
l 1 -1
v -3
h 1
l 1 -1
h 1
v -2
h 6
l 1 1
h 1
v -1
h 1
l 1 -1
v 1
v -1
h 1
l 1 1
v -1
h 4
v -1
h 3
v -1
h 1
v -1
h 3
v -1
l 1 -1
l -1 -1
l 1 -1
v -1
h 1
v -1
h 1
h -1
v -3
h 1
v -1
h -1
v -1
h -1
v -1
l 1 -1
h 1
v -1
h 1
l 1 -1
v -2
h 1
v 1
v -1
h 5
l 1 -1
h 1
v -1
h 2
v -1
l 1 -1
v -1
h 2
v 1
v -5
h 1
v -1
h -1
v -2
h 1
v -1
h -1
h 1
l -1 -1
v -1
h 1
l 1 -1
h 1
v -1
h 3
v -1
h 1
v -1
h 1
v -1
h 3
v -1
h 1
v -1
h 2
v -1
h 1
l 1 -1
h 1
v -1
h 2
v -1
h 1
v -1
h 2
l 1 -1
h 1
v 1
v -1
h 1
v -1
l 1 -1
h 2
v -1
h 3
v -1
h 4
v -1
h 3
v -1
h 3
l 1 -1
h 2
v -1
h 1
h -1
v -1
h 2
v -1
h 1
v -1
l 7 -5
l 6 -5
l 7 -6
l 9 -7
l 1 -2
h 1
l 6 -5
l 3 -3
v 1
v -1
h 1
v 1
l 3 3
h -1
v 1
h -2
v 2
l -1 -1
v 1
h -1
v 1
h -2
l -1 1
v 1
h 1
v 2
h 2
v 1
h 3
v 1
h 1
v 3
l 1 1
h 1
v 1
h -1
v 2
h -1
l 1 1
h -1
v 1
h 1
h -1
v 1
l 1 1
v 1
h 1
v 1
h 1
v 1
h 1
v 1
l 1 1
h 2
v 1
h 1
l 1 1
h -1
v 1
h 1
v 2
h 1
h -1
v 1
h 3
v 1
h 2
v -1
h 2
v 1
h 1
l 1 1
h 2
v 1
l 1 1
l 1 1
l -1 1
l 1 1
h 2
v 1
h 1
v 1
h 1
v 1
h 1
v 1
h 1
v 1
h 1
l 1 1
l 3 -1
h 10
v -1
h 1
v -1
h 1
l 1 -1
h 2
v -2
l 1 -1
v -1
h 1
l -1 1
h 3
v -1
h 1
v -1
h 1
v -1
h 4
v -1
h 1
v -1
l 1 -1
v -1
h 1
l -1 -1
h 1
v -1
h 1
v -1
v 1
h 1
v -1
h 1
v -2
l 4 4
l 1 1
l 2 2
l 1 1
l 4 4
h 1
l 1 1
v 1
h 1
l 1 1
l 3 -2
l 4 -2
l 2 -1
h 2
l 2 -1
l 2 -1
h 3
l 4 -1
l 5 -1
h 1
v 1
h 3
l 2 -1
l 1 -1
h 1
l 2 -1
l 2 -2
l 1 -1
h 1
l 1 -1
h 1
l -2 -3
h -1
l -1 -2
l 2 -4
v -2
l 1 -1
l 1 1
l 1 -1
l 1 2
l 2 1
h 1
v 2
h 1
l 1 1
v 1
l 1 1
h 1
l 2 -1
h 2
v -1
h 2
l 2 -1
l 5 -3
h 1
l 1 -1
l 1 -1
l 3 -3
h 1
l 1 -1
l 2 -1
h 1
l 1 -1
h 3
v -1
l 1 1
v -1
l 1 5
l 1 2
l 2 2
l 5 -4
l 6 -3
l 1 -1
v -1
l 2 -1
h 2
l 1 -1
l 2 -1
h 1
l 2 -4
h -1
l -2 1
l -3 -1
l 1 -1
h 1
v -1
l -1 -2
l 3 -2
l 2 -1
l 1 -1
l 1 -1
l 1 -1
l 1 -1
h 1
l 1 -1
v -1
l -7 -10
h 1
v -2
l 1 -1
h 1
l 1 -1
v -1
h -1
v -3
h 1
v -2
h 1
v -1
h 1
l 1 -1
v 1
v -1
h 1
v 1
v -1
l -1 -1
v -2
l 1 -1
h 1
v -1
l 1 -1
v -1
h 1
v -1
h 2
h -1
v -2
h 1
v -1
l 1 -1
v -1
h 1
v -1
h 1
v -1
h 1
v 1
v -1
h 1
l 1 -1
h 1
v -2
h 1
v -1
l 1 -1
l 1 -1
v -1
h 1
v -1
h 1
l 1 -1
l 1 -1
h 1
v -1
h 1
l 1 -2
h 1
v -1
h 1
v -1
h 1
v -2
l 1 -1
h 1
h -1
l 1 -2
h 1
v -2
l 1 -1
v -1
l 1 -1
h -1
l 1 -2
l 1 -1
l 1 -1
v -1
l 1 -1
h -1
v -2
l -1 -1
l 1 -1
v -2
h 1
v -2
h 1
v -1
h -1
l 1 -1
l -1 -1
h 1
l 2 -1
l 1 -2
h 1
l 1 -1
v -1
l 1 -1
h 1
l 1 -1
v -1
h 1
l 1 -1
h 2
v -1
h 1
v -1
h 1
l 1 -1
v -1
l -1 -1
v -1
h -1
v -4
h 1
v -1
h 1
v -1
h 1
l 1 -1
v -2
h 3
v -1
h 1
v -3
l 1 -1
v -2
h 1
v -1
l 1 -1
l 1 -1
v -3
h 1
v -2
h -1
v -1
h -1
v -1
l 1 -1
v -2
h 1
v -1
l 1 -1
h 1
v -1
h 1
l -1 -1
l -1 -1
h 1
v -4
h 1
v -3
l 1 -1
l 8 4
h 2
l 2 1
l 4 8
l 3 6
l 6 1
l 12 5
h 2
l 1 -1
h 1
v -2
l 1 -1
h 1
v -1
h 1
v -1
h 2
v -2
l 1 -1
v -1
l 1 -1
v -1
l 1 -1
h -1
l 1 -3
v -1
l 1 -1
l 1 -2
h 1
v -2
l 1 -1
v -1
h 1
v -3
l 1 -1
v -2
l 1 -1
l 1 -1
v -2
l 1 -1
h 4
v -2
h 1
v -2
l -1 -1
v -1
l 1 -2
v -3
l 1 -1
l 1 -1
v -3
l 1 -1
h -1
l 1 -2
h 2
l 1 -1
v -2
l 1 -1
l 1 -1
v -1
l 1 -1
v -1
l 2 1
l 12 11
l 1 -2
l 1 -3
l 2 -2
l 4 -8
l 1 -1
v -2
l 1 -1
h 2
l 1 -1
v -2
l 2 -1
l 2 -1
v 4
l 1 -1
v -1
h 1
l 1 -1
h 1
l 1 -1
l 1 -2
l 1 -2
v -1
h 1
l 1 -1
v -1
h 1
l 1 1
l 1 1
h 1
l 1 -1
v -2
h 1
l 1 -2
l 1 -1
l 1 -1
v -1
h -1
v -1
h -1
v -1
l 2 -2
h 1
v -1
h 1
v -2
h 1
v -2
h 1
v -1
h 1
l 3 -2
l 1 -1
h 1
l 2 -3
v -1
l 2 -2
h 1
l 1 -1
v -1
l -1 -1
h -1
v -1
l -1 -1
h 1
h -1
v -1
h -1
l 3 -3
l 1 -2
v -1
l 1 -1
h -1
l -1 -1
l -1 -1
h 1
l 1 -2
v -1
h 1
l 1 -1
v -1
h 1
l 1 -2
l 1 -1
v -1
l 1 -1
v -3
l -1 -1
h -1
l 1 -1
v -1
h 1
v -4
l -1 -2
h 1
v -7
l 8 7
l 8 5
l 8 8
l 11 8
l 3 3
l 4 3
l 12 10
l 4 2
v -3
l 1 -2
v -1
l 1 -2
v -2
l 2 -3
v -1
l 1 -3
l 1 -1
l 1 -1
v -3
l 3 -4
l 1 -1
h 2
v 1
h 1
v -1
h 2
l 1 1
h 1
l 1 1
h 3
v 1
l 1 -1
l 1 1
h 4
v 2
h 1
v 1
l 1 1
v 1
h 2
l 1 1
l 1 1
l 3 1
h 1
v 1
l 1 1
v 2
h -1
v 4
h -1
l -1 1
h -2
v 1
l -1 1
v 6
h 1
v 1
h 2
l 1 1
h 1
v 3
l 1 1
l 1 1
h 3
v 1
h 11
v 1
h 3
l 1 1
v 1
h 1
l 1 1
h 2
l 1 1
l 1 1
h -1
v 2
h -1
h 1
v 2
l 1 1
v 1
h 1
v -1
l 1 1
v 1
h 9
v 1
h 1
v 1
h 1
v 3
h 1
v 1
l 1 1
v 1
h 1
v 1
h 3
l 1 1
v 1
l 2 2
h 1
v 2
h 1
v 3
h -2
v 1
h 1
v 2
l -1 4
l 1 7
v 4
h -4
l -1 1
h -1
v 1
h -1
l -2 2
v 1
h -1
v 6
l -3 2
h -2
l -1 1
h -1
l 1 -5
l -6 -3
l -1 16
h -1
v 1
l -5 1
h 1
l 2 3
l -1 1
l -1 1
v 1
l -1 1
v 3
l 1 14
v 1
h 1
v 1
h 1
v 1
l -3 3
l 9 1
l 11 -6
h 2
l 7 -5
l 5 3
v 6
l -2 5
h 1
v 5
l 5 -1
h 1
v 3
h 1
v 3
l 2 3
v 1
h 3
v 1
h 2
v 1
h 1
v 1
h 1
v 1
h 3
v 1
h 5
l 1 -1
h 2
l 7 5
l 2 -4
l 8 6
l 3 -1
v 1
l 1 1
v 1
h 1
l 1 1
l 2 1
h 1
l 1 1
h 1
v 2
h 1
v 1
l -6 6
l 8 -2
v 1
h 2
l 2 1
h 1
l 9 9
l 2 -1
l 4 1
v 1
h 1
l 2 1
h 1
v 1
h 1
v 1
h 2
v 1
h 1
l 1 1
l 1 1
l 1 2
l -1 7
l -5 -1
l -1 4
l 1 17
l -5 -1
l 3 4
l -3 7
l -15 -6
l -3 4
l -3 -8
l -10 -15
l -3 1
l -7 -4
l -7 -7
l -2 -5
l -7 -4
l -6 -6
l -3 -12
l -2 -1
l -10 -1
l -4 -10
l 1 8
l 14 4
v 13
l 6 1
l -1 3
l 8 7
l 11 16
l 5 2
l 10 7
l -1 4
l 9 11
h 11
l 1 4
l 14 3
l -4 3
h -9
l -3 3
l -12 -6
l 12 7
l 9 -2
l 8 6
l 5 6
l -3 16
l -13 -9
l -6 -8
l -1 4
l 4 5
l -4 1
l 5 8
l -5 3
h 9
l -1 5
l -13 3
l -23 -28
l -9 -9
l -2 -11
l 2 5
l -9 4
l 1 -7
l -11 3
l -2 -3
l -2 5
l 13 -1
l -1 3
h 8
v 5
l 6 5
l 10 12
l 7 10
l 16 11
l 6 -1
l 1 12
Z"/>
<g class="districts">
<path data-race-id="VA01" d="M686 143
l 3 -4
l -2 -9
l 7 3
l 3 7
v -9
l 5 -3
l 1 -10
l 3 1
l -5 -12
l 8 -3
l 13 -2
l 1 2
v 2
l -5 6
l 5 2
l 3 3
l 8 -3
l 8 2
v 1
l -2 2
l -4 1
l -2 6
l 8 3
l -3 7
l 3 3
h 1
l 2 3
l -1 1
l -1 1
v 1
l -1 1
v 3
l 1 14
v 1
h 1
v 1
h 1
v 1
l -3 3
l 9 1
l 11 -6
h 2
l 7 -5
l 5 3
v 6
l -2 5
h 1
v 5
l 5 -1
h 1
v 3
h 1
v 3
l 2 3
v 1
h 3
v 1
h 2
v 1
h 1
v 1
h 1
v 1
h 3
v 1
h 5
l 1 -1
h 2
l 7 5
l 2 -4
l 8 6
l 3 -1
v 1
l 1 1
v 1
h 1
l 1 1
l 2 1
h 1
l 1 1
h 1
v 2
h 1
v 1
l -6 6
l 8 -2
v 1
h 2
l 2 1
h 1
l 9 9
l 2 -1
l 4 1
v 1
h 1
l 2 1
h 1
v 1
h 1
v 1
h 2
v 1
h 1
l 1 1
l 1 1
l 1 2
l -1 7
l -5 -1
l -1 4
l 1 17
l -5 -1
l 3 4
l -3 7
l -15 -6
l -3 4
l -3 -8
l -10 -15
l -3 1
l -7 -4
l -7 -7
l -2 -5
l -7 -4
l -6 -6
l -3 -12
l -2 -1
l -10 -1
l -4 -10
l 1 8
l 14 4
v 13
l 6 1
l -1 3
l 8 7
l 11 16
l 5 2
l 10 7
l -1 4
l 9 11
h 11
l 1 4
l 14 3
l -4 3
h -9
l -3 3
l -12 -6
l 12 7
l 9 -2
l 8 6
l 5 6
l -3 16
l -13 -9
l -6 -8
l -1 4
l 4 5
l -4 1
l 5 8
l -5 3
h 9
l -1 5
l -13 3
l -23 -28
l -9 -9
l -2 -11
l 2 5
l -9 4
l 1 -7
l -11 3
l -2 -3
l -2 5
l 13 -1
l -1 3
h 8
v 5
l 6 5
l 10 12
h -2
l -2 1
l -4 -1
l 2 9
l -1 5
h -1
l -1 7
h -4
l -9 -2
l -1 -18
l -3 -1
v -3
l -14 -4
h -2
v -1
h -3
v -1
h -3
l -1 -1
h -2
v -2
l -6 -3
v -1
l -4 -3
l -2 -3
l -4 -2
h -1
l -5 -2
l -3 -1
v -1
l -3 -2
h -1
l -4 -2
v -2
l -5 -8
h -4
l -1 -3
h -2
l -1 1
v 1
v -1
v 1
v -1
l -4 2
h -2
l -1 -1
l -1 -1
l -1 -1
h -13
l -9 -3
l 6 -18
l 6 -22
l 5 3
l 14 -17
l -2 -12
h 1
v -3
l 2 -9
l -3 -5
l -9 -3
l -2 -5
l -2 -6
l -6 -2
l -5 2
Z"/>
<path data-race-id="VA02" d="M805 325
h 4
l 1 -7
h 1
l 1 -5
l -2 -9
l 4 1
l 2 -1
h 2
l 7 10
l 16 11
l 6 -1
l 1 12
l 6 -4
l 7 5
l -5 4
l -4 -1
l 5 2
l -3 6
h 1
l -3 -4
l -2 -2
h -4
l -3 -1
l -3 -3
l -3 -7
l -6 -6
l -3 1
l -2 6
l -6 -7
l -11 1
l -4 -1
Z
M932 214
l 7 -4
h 1
l 19 -3
l -5 5
l 2 10
l -7 1
l -2 7
l 8 -4
l -6 7
l -11 21
l 1 -7
l -3 6
l 2 2
l -2 9
l -4 -5
l -3 7
l 6 6
l -7 1
l 2 3
l -5 3
v -5
l -5 7
l 9 3
l -3 5
l -2 -5
l -8 -2
l -2 12
l -9 8
l -2 7
v 12
l -2 2
v 12
l -8 -9
l -1 -16
l 4 -15
l 1 -14
l 3 -6
l 11 -1
h -12
l 2 -7
h 5
l -2 -6
l 6 -9
l 5 -3
v -5
l -1 -5
l 5 3
l 5 -1
l -1 -8
l 3 1
l 2 -6
l -3 -4
l -5 1
l 2 -5
h 9
l 1 -6
Z
M974 205
h 1
l -11 20
h -5
l 8 -8
l 1 -7
Z
M898 417
h -1
l -5 -5
v 6
h -8
l -1 -16
l 7 -3
l -10 -10
l -6 -2
l -3 -9
h 2
l 2 -6
l -6 -5
l -4 2
v 1
l -2 -2
h -5
v -8
h 7
l 11 5
l 8 2
l 9 -4
l 4 2
l 7 28
l 6 13
l 3 11
l -4 -1
l 1 -6
l -3 -3
v -7
l -4 -7
l -5 12
Z
M858 353
l 3 -6
l -6 1
l 8 -8
l -2 11
Z
M967 212
l -4 9
l -7 2
Z
M936 270
l 1 2
l -7 12
l -2 -2
Z
M932 289
l -6 11
v -11
Z
M908 312
l 1 5
l -4 12
l 1 -16
Z"/>
<path data-race-id="VA03" d="M787 399
h 5
v -1
l 3 -7
l 4 -7
l 1 -5
v -2
l 3 -7
l -4 -7
l 1 -5
l 16 -10
l 3 -11
l 1 3
l -1 9
l 11 4
l 10 8
l -3 8
l 4 -2
l -1 6
l 6 -4
l 4 1
l 6 -4
l 1 8
l -4 4
l -2 4
l 7 -7
l 5 4
l 6 -1
h 2
l 3 9
l -5 5
l -2 -2
h -9
l -2 -5
l -5 -2
l -1 -1
h -6
v 10
l -10 3
l -3 -5
l -12 -5
l -23 22
h -2
l -7 -4
Z
M826 332
l 2 -6
l 3 -1
l 6 6
l 3 7
l 3 3
l 3 1
h 4
l 2 2
l 3 4
l 6 -1
l -3 6
l -6 4
l -6 2
l -2 -6
l -19 -13
Z
M865 369
l 4 -2
l 6 5
l -2 6
l -9 -1
l -6 -4
l 7 -4
Z"/>
<path data-race-id="VA04" d="M686 336
h 2
l 4 -4
l 2 -1
l 6 -1
l 1 -1
v -1
h 2
l 1 -1
v -1
l 1 -1
h 1
l 1 -1
l 1 -3
l -1 -5
l 5 -8
l 2 -7
l 8 2
l 12 -4
l -2 -1
h 1
h -1
h 1
h -1
l 1 -3
l -5 -2
l -3 1
l -1 -1
l -2 -7
h -1
l -7 -2
l -1 -4
h 3
l 6 -2
l -1 -2
v -1
h 5
l 2 -1
h 5
l 1 -1
v -1
l 4 2
h 1
l 3 2
v 1
l 3 1
l 5 2
h 1
l 4 2
l 2 3
l 4 3
v 1
l 6 3
v 2
h 2
l 1 1
h 3
v 1
h 3
v 1
h 2
l 14 4
v 3
l 3 1
v 16
l -7 2
l -8 -10
l -8 5
l 1 -7
l -6 3
l -16 -1
l 2 -9
l -6 4
l -2 -4
h 1
v 4
h 3
l -2 6
h -1
l -1 1
l 3 -1
h 2
v -1
l 1 1
v 1
l 1 1
h 1
v 1
l 4 -3
l 4 4
l 10 -4
l 5 6
l 5 -5
v 9
h 6
l 7 5
l 8 -1
l 1 2
l 11 6
l 3 -8
l 2 9
l -3 11
l -16 10
l -1 5
l 4 7
l -3 7
v 2
l -1 5
l -4 7
l -3 7
v 1
h -5
v 4
l 7 4
h 2
l 23 -22
l 12 5
l 3 5
l 10 -3
v -10
h 6
l 1 1
l 5 2
l 2 5
h 9
l 2 2
l 5 -5
l 6 2
l 10 10
l -7 3
l 1 16
h -8
l -14 1
h -30
l -4 1
h -19
l -11 1
h -4
v 1
h -37
l -1 1
h -41
v 1
h -18
l 12 -24
l -1 -26
l -6 -3
l -6 -8
l -9 -3
l -5 1
l -1 -20
Z"/>
<path data-race-id="VA05" d="M422 369
l 5 -1
l 2 -7
l 2 -14
l -2 -4
l 4 -5
l 6 -1
l 7 4
l 6 -3
l 8 -9
v -12
l 7 -6
l 2 -1
l 1 1
h 2
l 5 -1
v -5
l 2 -1
h 2
v -1
l 1 -1
v -1
l 3 -5
h 1
l 6 10
h 9
v -1
h 5
l 1 -1
l 4 -3
l 5 1
l -1 2
v 1
h 1
l 1 2
h 1
l 2 2
l -1 1
v 1
h -1
l -1 1
l -3 1
h -1
l -3 8
l 6 5
l 3 1
l 8 -16
l 4 2
l 13 -5
l 3 -3
l 1 -4
l 5 -1
l 5 -6
l 9 -5
l 3 -5
l -2 -1
l -1 1
l -10 -22
l -9 -4
v -7
l -9 -5
l -3 1
l 3 -6
l -1 -6
l 8 -3
l 4 3
l 5 1
l 6 -8
l 4 -1
h 1
v -6
l 7 -9
l 7 -5
l -1 -6
l 4 -11
l 9 -10
l 13 -8
l 1 -5
l 6 -8
l 4 -8
l 1 -7
l 7 -5
l 1 -6
l 3 -3
l 2 -1
l -1 -14
l 4 -3
l 1 -1
l 10 -3
l 4 -10
l 1 -1
l 1 -1
l 8 -4
l 1 -6
l 1 -1
l 4 -6
l 5 -5
l 34 10
l -4 8
l -2 9
l 4 6
l 5 12
l -3 -1
l -1 10
l -5 3
v 9
l -3 -7
l -7 -3
l 2 9
l -3 4
l -6 -7
l 1 -7
l -5 -10
h -4
l -17 15
l -8 10
l -6 -1
h -1
l 12 14
l 1 1
v 1
l 1 1
l -1 5
l 3 9
l -7 4
l -7 8
l -8 -6
l -8 13
l 18 7
l -11 17
l 12 8
l 15 7
l -11 22
l 9 6
l -3 3
l 5 4
l -2 3
l -5 26
h -1
l -5 1
l -2 3
l -3 8
l 1 10
l -1 25
l 2 5
l 6 2
l 10 8
l 8 -1
l 5 4
h 9
l 5 -1
l 9 3
l 6 8
l 6 3
l 1 26
l -12 24
h -48
l -2 1
h -34
v 1
h -158
l 8 -9
l -1 -6
l -1 -3
h -1
v -1
l 1 -1
v -1
l -3 -3
h 5
l 7 -3
l 2 -11
l -8 2
l -21 -5
l -5 5
l -3 -7
l -19 -4
Z"/>
<path data-race-id="VA06" d="M428 332
l 6 -6
l -1 -3
h 1
h -1
l 5 2
l 1 -2
h 2
v -6
l 5 -4
l 1 -3
l 3 -1
l -14 -6
l -1 -2
l 7 -13
l 5 -5
l -7 -10
l 1 -4
l 11 -7
l 3 -5
l 9 -9
l 16 5
l 7 -14
l -4 -2
l -6 4
l -6 -5
l -16 -2
l -4 -8
l -7 -1
l -3 2
l -4 -1
l 1 -1
h 1
v -1
h 1
l 1 -2
h 1
v -1
h 1
v -1
h 1
v -2
l 1 -1
h 1
h -1
l 1 -2
h 1
v -2
l 1 -1
v -1
l 1 -1
h -1
l 1 -2
l 1 -1
l 1 -1
v -1
l 1 -1
h -1
v -2
l -1 -1
l 1 -1
v -2
h 1
v -2
h 1
v -1
h -1
l 1 -1
l -1 -1
h 1
l 2 -1
l 1 -2
h 1
l 1 -1
v -1
l 1 -1
h 1
l 1 -1
v -1
h 1
l 1 -1
h 2
v -1
h 1
v -1
h 1
l 1 -1
v -1
l -1 -1
v -1
h -1
v -4
h 1
v -1
h 1
v -1
h 1
l 1 -1
v -2
h 3
v -1
h 1
v -3
l 1 -1
v -2
h 1
v -1
l 1 -1
l 1 -1
v -3
h 1
v -2
h -1
v -1
h -1
v -1
l 1 -1
v -2
h 1
v -1
l 1 -1
h 1
v -1
h 1
l -1 -1
l -1 -1
h 1
v -4
h 1
v -3
l 1 -1
l 8 4
h 2
l 2 1
l 4 8
l 3 6
l 6 1
l 12 5
h 2
l 1 -1
h 1
v -2
l 1 -1
h 1
v -1
h 1
v -1
h 2
v -2
l 1 -1
v -1
l 1 -1
v -1
l 1 -1
h -1
l 1 -3
v -1
l 1 -1
l 1 -2
h 1
v -2
l 1 -1
v -1
h 1
v -3
l 1 -1
v -2
l 1 -1
l 1 -1
v -2
l 1 -1
h 4
v -2
h 1
v -2
l -1 -1
v -1
l 1 -2
v -3
l 1 -1
l 1 -1
v -3
l 1 -1
h -1
l 1 -2
h 2
l 1 -1
v -2
l 1 -1
l 1 -1
v -1
l 1 -1
v -1
l 2 1
l 12 11
l 1 -2
l 1 -3
l 2 -2
l 4 -8
l 1 -1
v -2
l 1 -1
h 2
l 1 -1
v -2
l 2 -1
l 2 -1
v 4
l 1 -1
v -1
h 1
l 1 -1
h 1
l 1 -1
l 1 -2
l 1 -2
v -1
h 1
l 1 -1
v -1
h 1
l 1 1
l 1 1
h 1
l 1 -1
v -2
h 1
l 1 -2
l 1 -1
l 1 -1
v -1
h -1
v -1
h -1
v -1
l 2 -2
h 1
v -1
l 10 3
l 5 -8
l 7 -1
l 1 8
l 2 5
l 15 -2
l 3 -2
l 6 3
l 1 -1
h 3
l 2 1
v 1
h 1
l 3 3
l -4 6
l -1 1
l -1 6
l -8 4
l -1 1
l -1 1
l -4 10
l -10 3
l -1 1
l -4 3
l 1 14
l -2 1
l -3 3
l -1 6
l -7 5
l -1 7
l -4 8
l -6 8
l -1 5
l -13 8
l -9 10
l -4 11
l 1 6
l -7 5
l -7 9
v 6
h -1
l -4 1
l -6 8
l -5 -1
l -4 -3
l -8 3
l 1 6
l -3 6
l 3 -1
l 9 5
v 7
l 9 4
l 10 22
l 1 -1
l 2 1
l -3 5
l -9 5
l -5 6
l -5 1
l -1 4
l -3 3
l -13 5
l -4 -2
l -8 16
l -3 -1
l -6 -5
l 3 -8
h 1
l 3 -1
l 1 -1
h 1
v -1
l 1 -1
l -2 -2
h -1
l -1 -2
h -1
v -1
l 1 -2
l -5 -1
l -4 3
l -1 1
h -5
v 1
h -9
l -6 -10
h -1
l -3 5
v 1
l -1 1
v 1
h -2
l -2 1
v 5
l -5 1
h -2
l -1 -1
l -2 1
l -7 6
v 12
l -8 9
l -6 3
l -7 -4
l -6 1
v -1
Z"/>
<path data-race-id="VA07" d="M626 193
l 8 -13
l 8 6
l 7 -8
l 7 -4
l -3 -9
l 1 -5
l -1 -1
v -1
l -1 -1
l -12 -14
h 1
l 6 1
l 8 -10
l 17 -15
h 4
l 5 10
l -1 7
l 6 7
l 9 16
l 5 -2
l 6 2
l 2 6
l 2 5
l 9 3
l 3 5
l -2 9
v 3
h -1
l 2 12
l -14 17
l -5 -3
l -6 22
l -6 18
l 9 3
h 13
l 1 1
l 1 1
l 1 1
h 2
l 4 -2
v 1
v -1
v 1
v -1
l 1 -1
h 2
l 1 3
h 4
l 5 8
v 3
l -1 1
h -5
l -2 1
h -5
v 1
l 1 2
l -6 2
h -3
l 1 4
l 7 2
h 1
l 2 7
l 1 1
l 3 -1
l 5 2
l -1 3
h 1
h -1
h 1
h -1
l 2 1
l -12 4
l -8 -2
l -2 7
l -5 8
l 1 5
l -1 3
l -1 1
h -1
l -1 1
v 1
l -1 1
h -2
v 1
l -1 1
l -6 1
l -2 1
l -4 4
h -2
l -5 5
l 1 20
h -9
l -5 -4
l -8 1
l -10 -8
l -6 -2
l -2 -5
l 1 -25
l -1 -10
l 3 -8
l 2 -3
l 5 -1
h 1
l 5 -26
l 2 -3
l -5 -4
l 3 -3
l -9 -6
l 11 -22
l -15 -7
l -12 -8
l 11 -17
Z"/>
<path data-race-id="VA08" d="M749 121
l 2 -1
v -11
l 3 -1
v -1
v 1
v -1
h -1
l 2 -5
l -2 -3
l 7 -2
l -2 -4
l -4 2
h -1
l -1 -11
l 6 -1
v 1
h 4
v 1
l 1 1
v 1
h 1
v 1
h 3
l 1 1
v 1
l 2 2
h 1
v 2
h 1
v 3
h -2
v 1
h 1
v 2
l -1 4
l 1 7
v 4
h -4
l -1 1
h -1
v 1
h -1
l -2 2
v 1
h -1
v 6
l -3 2
h -2
l -1 1
h -1
l 1 -5
l -6 -3
Z"/>
<path data-race-id="VA09" d="M25 406
h 1
v -1
h 1
v -1
h 3
l 1 -1
v -1
h 4
v -1
v 1
l 3 -2
h 2
l 1 -1
l 1 -1
h 4
v 1
h 8
v -1
h 2
l 1 -1
h 1
v -1
h 1
v -1
l 1 1
l 1 -1
h 1
l 1 -1
l 4 -1
h 2
v -1
h 5
v -1
h 3
v -1
h 8
l 1 -1
h 1
v -2
h 1
h -1
v -4
h 2
v -1
l 1 -1
l 1 -1
v -3
h 1
l 1 -1
h 1
v -2
h 6
l 1 1
h 1
v -1
h 1
l 1 -1
v 1
v -1
h 1
l 1 1
v -1
h 4
v -1
h 3
v -1
h 1
v -1
h 3
v -1
l 1 -1
l -1 -1
l 1 -1
v -1
h 1
v -1
h 1
h -1
v -3
h 1
v -1
h -1
v -1
h -1
v -1
l 1 -1
h 1
v -1
h 1
l 1 -1
v -2
h 1
v 1
v -1
h 5
l 1 -1
h 1
v -1
h 2
v -1
l 1 -1
v -1
h 2
v 1
v -5
h 1
v -1
h -1
v -2
h 1
v -1
h -1
h 1
l -1 -1
v -1
h 1
l 1 -1
h 1
v -1
h 3
v -1
h 1
v -1
h 1
v -1
h 3
v -1
h 1
v -1
h 2
v -1
h 1
l 1 -1
h 1
v -1
h 2
v -1
h 1
v -1
h 2
l 1 -1
h 1
v 1
v -1
h 1
v -1
l 1 -1
h 2
v -1
h 3
v -1
h 4
v -1
h 3
v -1
h 3
l 1 -1
h 2
v -1
h 1
h -1
v -1
h 2
v -1
h 1
v -1
l 7 -5
l 6 -5
l 7 -6
l 9 -7
l 1 -2
h 1
l 6 -5
l 3 -3
v 1
v -1
h 1
v 1
l 3 3
h -1
v 1
h -2
v 2
l -1 -1
v 1
h -1
v 1
h -2
l -1 1
v 1
h 1
v 2
h 2
v 1
h 3
v 1
h 1
v 3
l 1 1
h 1
v 1
h -1
v 2
h -1
l 1 1
h -1
v 1
h 1
h -1
v 1
l 1 1
v 1
h 1
v 1
h 1
v 1
h 1
v 1
l 1 1
h 2
v 1
h 1
l 1 1
h -1
v 1
h 1
v 2
h 1
h -1
v 1
h 3
v 1
h 2
v -1
h 2
v 1
h 1
l 1 1
h 2
v 1
l 1 1
l 1 1
l -1 1
l 1 1
h 2
v 1
h 1
v 1
h 1
v 1
h 1
v 1
h 1
v 1
h 1
l 1 1
l 3 -1
h 10
v -1
h 1
v -1
h 1
l 1 -1
h 2
v -2
l 1 -1
v -1
h 1
l -1 1
h 3
v -1
h 1
v -1
h 1
v -1
h 4
v -1
h 1
v -1
l 1 -1
v -1
h 1
l -1 -1
h 1
v -1
h 1
v -1
v 1
h 1
v -1
h 1
v -2
l 4 4
l 1 1
l 2 2
l 1 1
l 4 4
h 1
l 1 1
v 1
h 1
l 1 1
l 3 -2
l 4 -2
l 2 -1
h 2
l 2 -1
l 2 -1
h 3
l 4 -1
l 5 -1
h 1
v 1
h 3
l 2 -1
l 1 -1
h 1
l 2 -1
l 2 -2
l 1 -1
h 1
l 1 -1
h 1
l -2 -3
h -1
l -1 -2
l 2 -4
v -2
l 1 -1
l 1 1
l 1 -1
l 1 2
l 2 1
h 1
v 2
h 1
l 1 1
v 1
l 1 1
h 1
l 2 -1
h 2
v -1
h 2
l 2 -1
l 5 -3
h 1
l 1 -1
l 1 -1
l 3 -3
h 1
l 1 -1
l 2 -1
h 1
l 1 -1
h 3
v -1
l 1 1
v -1
l 1 5
l 1 2
l 2 2
l 5 -4
l 6 -3
l 1 -1
v -1
l 2 -1
h 2
l 1 -1
l 2 -1
h 1
l 2 -4
h -1
l -2 1
l -3 -1
l 1 -1
h 1
v -1
l -1 -2
l 3 -2
l 2 -1
l 1 -1
l 1 -1
l 1 -1
l 1 -1
h 1
l 1 -1
v -1
l -7 -10
h 1
v -2
l 1 -1
h 1
l 1 -1
v -1
h -1
v -3
h 1
v -2
h 1
v -1
h 1
l 1 -1
v 1
v -1
h 1
v 1
v -1
l -1 -1
v -2
l 1 -1
h 1
v -1
l 1 -1
v -1
h 1
v -1
h 2
h -1
v -2
h 1
v -1
l 1 -1
v -1
h 1
v -1
h 1
v -1
h 1
v 1
v -1
h 1
l 1 -1
h 1
v -2
h 1
v -1
l 1 -1
l 1 -1
v -1
h 1
v -1
h 1
l 1 -1
l 4 1
l 3 -2
l 7 1
l 4 8
l 16 2
l 6 5
l 6 -4
l 4 2
l -7 14
l -16 -5
l -9 9
l -3 5
l -11 7
l -1 4
l 7 10
l -5 5
l -7 13
l 1 2
l 14 6
l -3 1
l -1 3
l -5 4
v 6
h -2
l -1 2
l -5 -2
h 1
h -1
l 1 3
l -6 6
l 5 5
v 1
l -4 5
l 2 4
l -2 14
l -2 7
l -5 1
l -6 10
l 19 4
l 3 7
l 5 -5
l 21 5
l 8 -2
l -2 11
l -7 3
h -5
l 3 3
v 1
l -1 1
v 1
h 1
l 1 3
l 1 6
l -8 9
h -28
l -3 -1
h -24
v -1
h -17
l -9 -1
h -2
l -7 -1
h -37
l -1 -1
h -11
l -1 -1
h -13
l -1 -1
h -23
l -8 -1
h -3
v -1
h -13
l 2 -4
h -15
l -2 -1
h -16
v 2
h -1
v 1
h -4
v -1
h -37
l -1 -1
h -28
l -1 -1
v 1
v -1
h -39
l -1 -1
h -18
l -4 -1
h -18
l -1 -1
h -17
l -2 -1
h -17
v -1
h -9
v -1
Z"/>
<path data-race-id="VA10" d="M606 69
v -2
h 1
v -2
h 1
v -1
h 1
l 3 -2
l 1 -1
h 1
l 2 -3
v -1
l 2 -2
h 1
l 1 -1
v -1
l -1 -1
h -1
v -1
l -1 -1
h 1
h -1
v -1
h -1
l 3 -3
l 1 -2
v -1
l 1 -1
h -1
l -1 -1
l -1 -1
h 1
l 1 -2
v -1
h 1
l 1 -1
v -1
h 1
l 1 -2
l 1 -1
v -1
l 1 -1
v -3
l -1 -1
h -1
l 1 -1
v -1
h 1
v -4
l -1 -2
h 1
v -7
l 8 7
l 8 5
l 8 8
l 11 8
l 3 3
l 4 3
l 12 10
l 4 2
v -3
l 1 -2
v -1
l 1 -2
v -2
l 2 -3
v -1
l 1 -3
l 1 -1
l 1 -1
v -3
l 3 -4
l 1 -1
h 2
v 1
h 1
v -1
h 2
l 1 1
h 1
l 1 1
h 3
v 1
l 1 -1
l 1 1
h 4
v 2
h 1
v 1
l 1 1
v 1
h 2
l 1 1
l 1 1
l 3 1
h 1
v 1
l 1 1
v 2
h -1
v 4
h -1
l -1 1
h -2
v 1
l -1 1
v 6
h 1
v 1
h 2
l 1 1
h 1
v 3
l 1 1
l 1 1
h 3
v 1
h 11
v 1
h 3
l 1 1
v 1
h 1
l 1 1
h 2
l 1 1
l 1 1
h -1
v 2
h -1
h 1
v 2
l 1 1
v 1
h 1
v -1
l 1 1
v 1
h 9
v 1
h 1
v 1
h 1
v 3
h -3
v -1
l -6 1
h -7
l -4 -3
v -2
l -6 -2
v 1
l -3 -1
v 1
l -1 -1
l -4 5
v 1
h 1
v 1
l 1 1
l 1 1
h 1
l 5 2
h 3
h -1
h 1
v -1
h 1
v -1
v 1
v -1
h 1
v 3
l -1 1
l -1 1
l -1 1
l -3 2
l -3 -2
l -6 7
l -1 -2
h -1
v 2
l 3 1
l -1 1
l 1 -1
h 2
v -1
v 1
v -1
h 12
l -1 6
l 6 3
v 1
l 2 1
l -4 8
l -2 -1
v -1
l -8 -2
l -8 3
l -3 -3
l -5 -2
l 5 -6
v -2
l -1 -2
l -13 2
l -8 3
l -4 -6
l 2 -9
l 4 -8
l -34 -10
l -5 5
l -3 -3
h -1
v -1
l -2 -1
h -3
l -1 1
l -6 -3
l -3 2
l -15 2
l -2 -5
l -1 -8
l -7 1
l -5 8
l -10 -3
Z"/>
<path data-race-id="VA11" d="M724 99
v -2
h 1
l 1 2
l 6 -7
l 3 2
l 3 -2
l 1 -1
l 1 -1
l 1 -1
v -3
h -1
v 1
v -1
v 1
h -1
v 1
h -1
h 1
h -3
l -5 -2
h -1
l -1 -1
l -1 -1
v -1
h -1
v -1
l 4 -5
l 1 1
v -1
l 3 1
v -1
l 6 2
v 2
l 4 3
h 7
l 1 11
h 1
l 4 -2
l 2 4
l -7 2
l 2 3
l -2 5
h 1
v 1
v -1
v 1
l -3 1
v 11
l -2 1
l -1 16
h -1
v 1
l -5 1
l -3 -3
l 3 -7
l -8 -3
l 2 -6
l 4 -1
l 2 -2
v -1
v 1
l 2 1
l 4 -8
l -2 -1
v -1
l -6 -3
l 1 -6
h -12
v 1
v -1
v 1
h -2
l -1 1
l 1 -1
Z"/>
</g>
  <path class="districts-mesh" d="M818 304
h -2
l -2 1
l -4 -1
l 2 9
l -1 5
h -1
l -1 7
h -4
M873 378
l 2 -6
l -6 -5
l -4 2
M884 418
l -1 -16
l 7 -3
l -10 -10
l -6 -2
l -5 5
l -2 -2
h -9
l -2 -5
l -5 -2
l -1 -1
h -6
v 10
l -10 3
l -3 -5
l -12 -5
l -23 22
h -2
l -7 -4
v -4
h 5
v -1
l 3 -7
l 4 -7
l 1 -5
v -2
l 3 -7
l -4 -7
l 1 -5
l 16 -10
l 3 -11
M433 338
l 6 -1
l 7 4
l 6 -3
l 8 -9
v -12
l 7 -6
l 2 -1
l 1 1
h 2
l 5 -1
v -5
l 2 -1
h 2
v -1
l 1 -1
v -1
l 3 -5
h 1
l 6 10
h 9
v -1
h 5
l 1 -1
l 4 -3
l 5 1
l -1 2
v 1
h 1
l 1 2
h 1
l 2 2
l -1 1
v 1
h -1
l -1 1
l -3 1
h -1
l -3 8
l 6 5
l 3 1
l 8 -16
l 4 2
l 13 -5
l 3 -3
l 1 -4
l 5 -1
l 5 -6
l 9 -5
l 3 -5
l -2 -1
l -1 1
l -10 -22
l -9 -4
v -7
l -9 -5
l -3 1
l 3 -6
l -1 -6
l 8 -3
l 4 3
l 5 1
l 6 -8
l 4 -1
h 1
v -6
l 7 -9
l 7 -5
l -1 -6
l 4 -11
l 9 -10
l 13 -8
l 1 -5
l 6 -8
l 4 -8
l 1 -7
l 7 -5
l 1 -6
l 3 -3
l 2 -1
l -1 -14
l 4 -3
l 1 -1
l 10 -3
l 4 -10
l 1 -1
l 1 -1
l 8 -4
l 1 -6
l 1 -1
l 4 -6
l 5 -5
l 34 10
l -4 8
l -2 9
l 4 6
l 8 -3
l 13 -2
l 1 2
v 2
l -5 6
l 5 2
l 3 3
l 8 -3
l 8 2
v 1
l -2 2
l -4 1
l -2 6
l 8 3
l -3 7
l 3 3
M795 305
l -3 -1
v -3
l -14 -4
h -2
v -1
h -3
v -1
h -3
l -1 -1
h -2
v -2
l -6 -3
v -1
l -4 -3
l -2 -3
l -4 -2
h -1
l -5 -2
l -3 -1
v -1
l -3 -2
h -1
l -4 -2
v -2
l -5 -8
h -4
l -1 -3
h -2
l -1 1
v 1
v -1
l -4 2
h -2
l -1 -1
l -1 -1
l -1 -1
h -13
l -9 -3
l 6 -18
l 6 -22
l 5 3
l 14 -17
l -2 -12
h 1
v -3
l 2 -9
l -3 -5
l -9 -3
l -2 -5
l -2 -6
l -6 -2
l -5 2
l -9 -16
l 3 -4
l -2 -9
l 7 3
l 3 7
v -9
l 5 -3
l 1 -10
l 3 1
l -5 -12
M455 426
l 8 -9
l -1 -6
l -1 -3
h -1
v -1
l 1 -1
v -1
l -3 -3
h 5
l 7 -3
l 2 -11
l -8 2
l -21 -5
l -5 5
l -3 -7
l -19 -4
l 6 -10
l 5 -1
l 2 -7
l 2 -14
l -2 -4
l 4 -5
v -1
l -5 -5
l 6 -6
l -1 -3
h 1
M433 323
l 5 2
l 1 -2
h 2
v -6
l 5 -4
l 1 -3
l 3 -1
l -14 -6
l -1 -2
l 7 -13
l 5 -5
l -7 -10
l 1 -4
l 11 -7
l 3 -5
l 9 -9
l 16 5
l 7 -14
l -4 -2
l -6 4
l -6 -5
l -16 -2
l -4 -8
l -7 -1
l -3 2
l -4 -1
M605 69
l 10 3
l 5 -8
l 7 -1
l 1 8
l 2 5
l 15 -2
l 3 -2
l 6 3
l 1 -1
h 3
l 2 1
v 1
h 1
l 3 3
M749 121
l 2 -1
v -11
l 3 -1
v -1
h -1
l 2 -5
l -2 -3
l 7 -2
l -2 -4
l -4 2
h -1
l -1 -11
l 6 -1
v 1
h 3
M697 424
l 12 -24
l -1 -26
l -6 -3
l -6 -8
l -9 -3
l -5 1
l -1 -20
l 5 -5
h 2
l 4 -4
l 2 -1
l 6 -1
l 1 -1
v -1
h 2
l 1 -1
v -1
l 1 -1
h 1
l 1 -1
l 1 -3
l -1 -5
l 5 -8
l 2 -7
l 8 2
l 12 -4
l -2 -1
h 1
h -1
l 1 -3
l -5 -2
l -3 1
l -1 -1
l -2 -7
h -1
l -7 -2
l -1 -4
h 3
l 6 -2
l -1 -2
v -1
h 5
l 2 -1
h 3
M731 274
h 2
l 1 -1
v -1
M858 353
l 3 -6
l -6 1
l -3 -4
l -2 -2
h -4
l -3 -1
l -3 -3
l -3 -7
l -6 -6
l -3 1
l -2 6
M874 387
l -3 -9
M752 84
h -7
l -4 -3
v -2
l -6 -2
v 1
l -3 -1
v 1
l -1 -1
l -4 5
v 1
h 1
v 1
l 1 1
l 1 1
h 1
l 5 2
h 3
v -1
h 1
v -1
h 1
v 3
l -1 1
l -1 1
l -1 1
l -3 2
l -3 -2
l -6 7
l -1 -2
h -1
v 2
l 3 1
l -1 1
l 1 -1
h 2
v -1
h 12
l -1 6
l 6 3
v 1
l 2 1
l -4 8
l -2 -1
v -1
M647 144
M641 143
M652 157
M652 157
M652 157
M653 158
M653 158
M653 158
M653 159
M654 160
M654 160
M654 160
M654 160
M654 160
M654 160
M660 232
M658 270
M652 296
M647 297
M645 300
M686 143
l -6 -7
l 1 -7
l -5 -10
h -4
M672 119
l -17 15
l -8 10
M647 144
l -6 -1
M641 143
h -1
M640 143
l 12 14
M652 157
l 1 1
M653 158
v 1
M653 159
l 1 1
M654 160
M654 160
l -1 5
l 3 9
M656 174
l -7 4
l -7 8
l -8 -6
M634 180
l -8 13
M626 193
l 18 7
M644 200
l -11 17
M633 217
l 12 8
l 15 7
M660 232
l -11 22
M649 254
l 9 6
l -3 3
l 5 4
M660 267
l -2 3
M658 270
l -5 26
M653 296
h -1
M652 296
l -5 1
M647 297
l -2 3
M645 300
l -3 8
M642 308
l 1 10
M643 318
l -1 25
M642 343
l 2 5
l 6 2
l 10 8
l 8 -1
M668 357
l 5 4
h 9"/>
</svg>