<svg version="1.1" xmlns="http://www.w3.org/2000/svg" width="613" height="1000" viewBox="0 0 613 1000">
  <path d="M215 25
h 34
l 8 1
h 3
l 18 2
h 34
l 7 1
h 22
l 7 1
h 15
l 24 -1
h 47
l 5 -1
h 32
l 27 -2
h 41
l 2 -1
h 56
l -6 4
l -4 -3
l -10 6
v 1
l -1 3
l 1 3
l 1 1
l 3 3
v 1
l 2 1
l 1 3
l -1 2
v 3
l -1 2
v 1
l 1 1
v 1
l 1 2
v 1
l 4 4
l 2 2
v 3
h -1
l -4 6
l -2 2
l -1 2
l -1 1
l -7 6
v 1
l -2 6
h 1
v 3
l -6 7
v 1
l -1 2
l 1 2
v 7
l -5 4
l -8 11
l -3 1
v 4
l 1 2
v 3
l 2 2
v 2
l 1 1
l 4 9
l 2 1
l -1 2
l 1 2
v 3
l 1 1
l 1 1
h 2
l -1 2
l 1 3
l -2 1
l 4 2
v 2
h 3
l 1 1
l 1 3
l -1 1
l 4 3
v 1
l 1 2
v 1
l -2 7
l -2 1
l 2 1
v 1
l -1 2
h 1
l 2 -1
v 1
h 2
v 4
l -2 2
l -2 -1
l 1 3
l -1 2
l -2 2
h -3
l -8 4
l 5 4
v 9
l -3 2
v 1
l 2 1
l 2 5
l -4 1
l -2 6
l -8 4
l -2 1
l -3 2
l -6 12
l -3 2
l -1 1
l -1 2
l -1 1
l -2 3
h -2
l -6 4
l -6 1
l -1 2
l -7 -2
l -5 3
h -2
l -2 1
l -1 1
l -1 1
v 1
l 1 1
v 1
l -3 1
h -1
l -1 1
v 6
l 1 4
l -2 1
l -3 1
l -1 1
h -1
l -3 3
h -1
l -1 1
h -1
l -5 2
l -5 -3
l -5 -3
l -4 2
l -8 3
h -9
l -2 1
v 1
l -5 4
l -1 1
h -7
l -1 1
v 5
l -3 5
h -1
v 2
h -2
l -1 1
l -3 6
v 2
h 2
v 3
l 1 5
l 1 1
l 1 1
l -2 13
h -1
l 1 2
l -1 4
h -1
v 1
l -1 2
v 1
l 1 1
l 1 1
l 1 2
v 1
l 1 1
l 1 2
l 1 2
v 1
h 1
v 2
h 2
l -1 1
l -1 4
v 4
h 1
l 1 1
v 1
l 1 1
h -1
v 1
h -2
l -1 1
l -3 5
l 3 6
h 1
l 4 -2
l -2 10
l -11 14
l -2 10
l -3 -2
h -1
v 3
l 1 3
l -1 -2
l -3 1
l -1 5
v 1
l -1 12
h 5
l -1 5
v 1
l -1 1
l -1 1
l -1 1
l -3 4
v 2
l 1 5
l -12 11
l -7 12
l -1 23
v 1
l -1 2
l -5 8
v 6
l -8 9
l -13 9
l -9 12
l 1 9
l -4 11
l -1 4
l -5 9
l 2 7
l -16 13
v 14
l -5 10
l 3 4
l 1 1
l 1 3
v 2
l -1 5
l -2 8
v 4
l -4 24
l -3 4
l 1 7
l 7 3
l -7 10
l 5 6
l -6 20
l -6 5
l -1 23
l -3 3
l 2 6
l -3 4
l -2 10
l 4 3
h 1
v 2
l 2 10
l -2 3
l 2 9
l -9 11
l 2 14
l 5 5
l -7 6
l 1 4
l -4 6
l -13 3
l -5 5
l 2 4
l 1 9
l -2 9
l -6 5
l -1 14
l 5 20
l 6 7
l 3 3
l 9 6
l 1 7
l 5 9
l -16 -1
h -19
l -32 -2
h -15
l -53 -2
l -8 -1
h -1
l -27 -1
h -14
l -7 -1
h -23
l -3 -1
l -32 -1
l -4 -23
l 3 -13
h 1
l 2 -37
l 2 -52
l 2 -40
l 4 -70
v -19
l 2 -46
v -9
l 1 -6
v -3
l -1 -1
l 1 -2
v -1
l 1 -2
v -4
h -1
v -1
l -1 -2
v -1
l -1 -1
l 1 -1
v -1
h -1
v -1
l -1 -2
l -1 -1
l -1 -1
h -1
v -1
h -1
v -1
l -3 -1
v -1
h -1
v -1
h -3
l -1 1
l -1 -1
l 2 -2
v -1
l -1 -1
l 1 -1
v -5
l -1 -3
h -1
v -1
v 1
h -1
l 1 -2
v -1
l -1 -4
h -1
l -1 1
h -1
l -1 -1
h -3
l -1 1
v -1
h -2
l -1 1
l -1 -1
h -1
v 1
l -1 1
l -1 -1
v -1
h -1
l -1 1
h -2
l -2 1
l 1 1
l -1 2
l -1 1
h 1
v 3
l -1 2
l -1 1
h -1
v 2
h -1
v 2
l 1 1
l -1 5
h -1
v 2
l -2 1
h -1
v -1
l -6 -5
l -2 -2
l 1 -7
v -4
l 1 -2
l 1 -2
l -3 -7
l 6 -13
l 1 -5
v -2
l 9 -13
l 2 -3
v -8
l 1 -1
l 1 -2
l 1 -3
l 2 -4
l -3 -9
l -1 -1
l -3 -2
l -5 -11
l 7 -9
l -3 -5
l 2 -8
l -6 -11
l -4 -12
l 1 -13
l -2 -5
l 2 -19
l -9 -9
l 2 -14
l 6 -14
l -1 -9
l 4 -5
l 5 -20
l 7 -7
l 6 -12
h 1
l 4 -2
l 4 -8
v -1
l 1 -3
l -4 -12
v -13
l -3 -10
v -6
l 6 -7
l 7 -20
l -4 -26
l -4 -6
v -5
l -7 -10
l -2 -2
h -1
l -1 -1
l -1 -2
l -1 -1
l -1 -1
v -2
l -2 -2
l -1 -4
v -7
l -1 -1
v -2
l -1 -2
l -1 -1
l 3 -10
l 2 -9
h 1
l 1 -13
v -19
l 10 -18
v -8
l -12 -13
v -1
l -1 -6
l 2 -4
v -1
l 5 -17
l 4 -4
l 2 -22
l -5 -7
l 3 -11
l 22 -1
h 144
Z"/>
<g class="districts">
<path data-race-id="VT00" d="M31 365
l 7 -7
l 6 -12
h 1
l 4 -2
l 4 -8
v -1
l 1 -3
l -4 -12
v -13
l -3 -10
v -6
l 6 -7
l 7 -20
l -4 -26
l -4 -6
v -5
l -7 -10
l -2 -2
h -1
l -1 -1
l -1 -2
l -1 -1
l -1 -1
v -2
l -2 -2
l -1 -4
v -7
l -1 -1
v -2
l -1 -2
l -1 -1
l 3 -10
l 2 -9
h 1
l 1 -13
v -19
l 10 -18
v -8
l -12 -13
v -1
l -1 -6
l 2 -4
v -1
l 5 -17
l 4 -4
l 2 -22
l -5 -7
l 3 -11
l 22 -1
h 180
l 8 1
h 3
l 18 2
h 34
l 7 1
h 22
l 7 1
h 15
l 24 -1
h 47
l 5 -1
h 32
l 27 -2
h 41
l 2 -1
h 56
l -6 4
l -4 -3
l -10 6
v 1
l -1 3
l 1 3
l 1 1
l 3 3
v 1
l 2 1
l 1 3
l -1 2
v 3
l -1 2
v 1
l 1 1
v 1
l 1 2
v 1
l 4 4
l 2 2
v 3
h -1
l -4 6
l -2 2
l -1 2
l -1 1
l -7 6
v 1
l -2 6
h 1
v 3
l -6 7
v 1
l -1 2
l 1 2
v 7
l -5 4
l -8 11
l -3 1
v 4
l 1 2
v 3
l 2 2
v 2
l 1 1
l 4 9
l 2 1
l -1 2
l 1 2
v 3
l 1 1
l 1 1
h 2
l -1 2
l 1 3
l -2 1
l 4 2
v 2
h 3
l 1 1
l 1 3
l -1 1
l 4 3
v 1
l 1 2
v 1
l -2 7
l -2 1
l 2 1
v 1
l -1 2
h 1
l 2 -1
v 1
h 2
v 4
l -2 2
l -2 -1
l 1 3
l -1 2
l -2 2
h -10
v 6
l 4 2
v 9
l -3 2
v 1
l 2 1
l 2 5
l -5 1
l -2 6
l -7 4
l -2 1
l -3 2
l -6 12
l -3 2
l -1 1
l -1 2
l -1 1
l -2 3
h -2
l -6 4
l -6 1
l -1 2
l -8 -2
l -4 3
h -2
l -2 1
l -1 1
l -1 1
v 1
l 1 1
v 1
l -3 1
h -1
l -1 1
v 6
l 1 4
l -2 1
l -3 1
l -1 1
h -2
l -2 3
h -1
l -1 1
h -1
l -10 -1
l -5 -3
l -4 2
l -3 4
l -5 -1
h -9
l -2 1
v 1
l -5 4
l -1 1
h -7
l -1 1
v 5
l -3 5
h -1
v 2
h -2
l -1 1
l -3 6
v 2
h 2
v 3
l 1 5
l 1 1
l 1 1
l -2 13
h -1
l 1 2
l -1 4
h -1
v 1
l -1 2
v 1
l 1 1
l 1 1
l 1 2
v 1
l 1 1
l 1 2
l 1 2
v 1
h 1
v 2
h 2
l -1 1
l -1 4
v 4
h 1
l 1 1
v 1
l 1 1
h -1
v 1
h -2
l -1 1
l -3 5
l 3 6
h 1
l 4 -2
l -2 10
l -12 15
l 1 4
l -5 3
h -1
v 3
l 1 3
l -1 -2
l -3 1
l -1 5
v 1
l -2 13
l 5 -1
v 6
l -1 1
l -1 1
l -1 1
l -3 4
v 7
l -15 14
l 1 8
l -5 1
l -2 20
l 2 3
v 1
l -1 2
l -5 7
v 7
l -3 1
l -6 9
l -12 5
l -10 17
l 2 7
l -4 11
l -1 4
l -5 9
l 2 7
l -6 6
l -10 5
v 15
l -4 5
v 8
l 2 2
l 1 1
l 1 3
v 2
l -1 5
l -2 8
v 4
l -4 24
l -3 2
v 8
l 7 3
l -6 10
l 5 7
l -3 10
l -6 13
l -4 3
l 1 8
l -1 14
l -4 3
v 23
h 3
v 2
l 2 10
l -2 2
l 2 9
l -10 12
l 2 5
l -1 7
l 7 7
l -6 3
v 8
l -22 12
l 2 4
v 12
l -1 7
l -7 6
l -1 13
l 2 4
l 2 14
l 2 2
l 6 7
l 3 3
l -3 6
l 8 -4
l 5 6
v 5
l 5 9
l -16 -1
h -19
l -32 -2
h -15
l -5 -1
h -22
l -34 -2
h -1
l -27 -1
h -14
l -7 -1
h -23
l -3 -1
l -32 -1
l -4 -23
l 3 -13
h 1
l 2 -37
l 2 -52
l 2 -40
l 4 -70
v -19
l 2 -46
v -9
l 1 -6
v -3
l -1 -1
l 1 -2
v -1
l 1 -2
v -4
h -1
v -1
l -1 -2
v -1
l -1 -1
l 1 -1
v -1
h -1
v -1
l -1 -2
l -1 -1
l -1 -1
h -1
v -1
h -1
v -1
l -3 -1
v -1
h -1
v -1
h -3
l -1 1
l -1 -1
l 2 -2
v -1
l -1 -1
l 1 -1
v -5
l -1 -3
h -1
v -1
v 1
h -1
l 1 -2
v -1
l -1 -4
h -1
l -1 1
h -1
l -1 -1
h -3
l -1 1
v -1
h -2
l -1 1
l -1 -1
h -1
v 1
l -1 1
l -1 -1
v -1
h -1
l -1 1
h -2
l -2 1
l 1 1
l -1 2
l -1 1
h 1
v 3
l -1 2
l -1 1
h -1
v 2
h -1
v 2
l 1 1
l -1 5
h -1
v 2
l -2 1
h -1
v -1
l -6 -5
l -2 -2
l 1 -7
v -4
l 1 -2
l 1 -2
l -3 -7
l 6 -13
l 1 -5
v -2
l 9 -13
l 2 -3
v -8
l 1 -1
l 1 -2
l 1 -3
l 2 -4
l -3 -9
l -1 -1
l -3 -2
l -5 -11
l 7 -9
l -3 -5
l 2 -8
l -6 -11
l -4 -12
l 1 -13
l -2 -5
l 2 -19
l -9 -9
l 2 -14
l 6 -14
l -1 -9
l 4 -5
l 5 -20
Z"/>
</g>

</svg>