<svg version="1.1" xmlns="http://www.w3.org/2000/svg" width="613" height="1000" viewBox="0 0 613 1000"><path data-race-id="VT01" d="M31,365l7,-7l6,-12h1l4,-2l4,-8v-1l1,-3l-4,-12l-1,-17l-2,-12l6,-7l7,-20v-1l-4,-25l-4,-8l-7,-13l-2,-2h-1l-1,-1l-1,-2l-1,-1l-1,-1v-2l-2,-2l-1,-4v-7l-1,-1v-2l-1,-2l-1,-1l3,-10l2,-9h1v-5l1,-8v-19l4,-8l1,-1l5,-9l-2,-10l-1,-1l-9,-10v-1l-1,-6l2,-4v-1l5,-17l3,-4h1l2,-22l-5,-7l3,-11l22,-1h180l8,1h3l18,2h36l5,1h22l4,1h28l14,-1h47l5,-1h32l27,-2h32l11,-1h56l-6,4l-4,-3l-10,6v1l-1,3l1,3l1,1l3,3v1l2,1l1,3l-1,2v3l-1,2v1l1,1v1l1,2v1l4,4l2,2v3h-1l-4,6l-2,2l-1,2l-1,1l-7,6v1l-2,6h1l-3,8v1l-3,1v1l-1,2l1,2v7l-5,4l-8,11l-3,1l-1,3h1v1l1,2v3l2,2v2l1,1l4,9l2,1l-1,2l1,2v3l1,1l1,1h2l-1,2l1,3l-2,1h1l3,2v2h3l1,1l1,3l-1,1l4,3v1l1,2v1l-2,7l-2,1l2,1v1l-1,2h1l2,-1v1h2v4l-2,2l-2,-1l1,3l-1,2h-1l-1,2h-10v6l4,2v9l-3,2v1l2,1l2,5l-5,1l-3,6l-6,4l-2,1l-3,2l-6,12l-3,2l-1,1l-1,2l-1,1l-2,3h-2l-6,4l-6,1l-1,2l-8,-2l-4,3h-2l-2,1l-1,1l-1,1v1l1,1v1l-3,1h-1l-1,1v6l1,4l-2,1l-3,1l-1,1h-2l-2,3h-1l-1,1h-1l-10,-1l-5,-3l-4,2l-3,4l-5,-1h-9l-2,1v1l-5,4l-1,1h-7l-1,1v5l-3,5h-1v2h-2l-1,1l-3,6v2h2v5l1,3l1,1l1,1l-2,13h-1l1,2l-1,4h-1v1l-1,2v1l1,1l1,1l1,2v1l1,1l1,2l1,2v1h1v2h2l-1,1l-1,4v4h1l1,1v1l1,1h-1v1h-2l-1,1l-3,5l3,6h1l4,-2l-2,10l-7,11l-5,4v5l-4,2h-1v3l1,3l-1,-2l-3,1l-1,5v1l-2,13l5,-1v6l-1,1l-1,1l-1,1l-3,4v7l-15,14v7l-6,6l2,4l-2,12l2,3v1l-1,2l-5,7v7l-3,1l-6,9l-12,5l-9,17l1,7l-4,11l-1,4l-5,9l2,5v2l-6,6l-10,5v15l-4,7l2,8l1,1l1,3v2l-1,5l-2,8v4l-1,8l-3,16l-3,2v8l7,3l-4,9l-2,1l5,7l-4,13l-5,10l-4,3l1,8l-1,14l-4,3v23h3v2l1,3l1,7l-2,2l2,9l-10,12l2,14l5,4l-5,4v8l-18,9l-4,3l2,4v12l-2,7l-6,6l-1,13l3,12l3,8l6,7l3,3l-3,6l8,-4l5,6v5l5,9l-16,-1h-19l-32,-2h-15l-25,-1l-36,-2h-4l-24,-1h-14l-24,-1h-3l-6,-1l-32,-1l-4,-23l3,-13h1v-4l2,-33v-6l1,-25l1,-17v-4l2,-30v-10l1,-23l1,-11l2,-36v-19l1,-20v-20l1,-3v-12l1,-6v-3l-1,-1l1,-2v-1l1,-2v-4h-1v-1l-1,-2v-1l-1,-1l1,-1v-1h-1v-1l-1,-2l-1,-1l-1,-1h-1v-1h-1v-1l-3,-1v-1h-1v-1h-3l-1,1l-1,-1l2,-2v-1l-1,-1l1,-1v-5l-1,-3h-1v-1v1h-1l1,-2v-1l-1,-3v-1h-1l-1,1h-1l-1,-1h-3l-1,1v-1h-2l-1,1l-1,-1h-1v1l-1,1l-1,-1v-1h-1l-1,1h-2l-2,1l1,1l-1,2l-1,1h1v3l-1,2l-1,1h-1v2h-1v2l1,1l-1,5h-1v2l-2,1h-1v-1l-6,-5l-2,-2l1,-7v-4l1,-2l1,-2l-3,-7l6,-13l1,-2v-5l9,-13l2,-3v-8l1,-1l1,-2l1,-3l2,-4l-3,-9l-1,-1l-3,-2l-5,-11l6,-8l-2,-6l2,-8l-6,-11l-3,-11l-2,-19l2,-19l-9,-9l2,-14l5,-13v-10l5,-8l4,-17Z"/></svg>