<svg version="1.1" xmlns="http://www.w3.org/2000/svg" width="613" height="1000" viewBox="0 0 613 1000">  <path d="M215,25h34l8,1h3l18,2h34l7,1h22l7,1h15l24,-1h47l5,-1h32l27,-2h41l2,-1h56l-6,4l-4,-3l-10,6v1l-1,3l1,3l1,1l3,3v1l2,1l1,3l-1,2v3l-1,2v1l1,1v1l1,2v1l4,4l2,2v3h-1l-4,6l-2,2l-1,2l-1,1l-7,6v1l-2,6h1v3l-6,7v1l-1,2l1,2v7l-5,4l-8,11l-3,1v4l1,2v3l2,2v2l1,1l4,9l2,1l-1,2l1,2v3l1,1l1,1h2l-1,2l1,3l-2,1l4,2v2h3l1,1l1,3l-1,1l4,3v1l1,2v1l-2,7l-2,1l2,1v1l-1,2h1l2,-1v1h2v4l-2,2l-2,-1l1,3l-1,2l-2,2h-3l-8,4l5,4v9l-3,2v1l2,1l2,5l-4,1l-2,6l-8,4l-2,1l-3,2l-6,12l-3,2l-1,1l-1,2l-1,1l-2,3h-2l-6,4l-6,1l-1,2l-7,-2l-5,3h-2l-2,1l-1,1l-1,1v1l1,1v1l-3,1h-1l-1,1v6l1,4l-2,1l-3,1l-1,1h-1l-3,3h-1l-1,1h-1l-5,2l-5,-3l-5,-3l-4,2l-8,3h-9l-2,1v1l-5,4l-1,1h-7l-1,1v5l-3,5h-1v2h-2l-1,1l-3,6v2h2v3l1,5l1,1l1,1l-2,13h-1l1,2l-1,4h-1v1l-1,2v1l1,1l1,1l1,2v1l1,1l1,2l1,2v1h1v2h2l-1,1l-1,4v4h1l1,1v1l1,1h-1v1h-2l-1,1l-3,5l3,6h1l4,-2l-2,10l-11,14l-2,10l-3,-2h-1v3l1,3l-1,-2l-3,1l-1,5v1l-1,12h5l-1,5v1l-1,1l-1,1l-1,1l-3,4v2l1,5l-12,11l-7,12l-1,23v1l-1,2l-5,8v6l-8,9l-13,9l-9,12l1,9l-4,11l-1,4l-5,9l2,7l-16,13v14l-5,10l3,4l1,1l1,3v2l-1,5l-2,8v4l-4,24l-3,4l1,7l7,3l-7,10l5,6l-6,20l-6,5l-1,23l-3,3l2,6l-3,4l-2,10l4,3h1v2l2,10l-2,3l2,9l-9,11l2,14l5,5l-7,6l1,4l-4,6l-13,3l-5,5l2,4l1,9l-2,9l-6,5l-1,14l5,20l6,7l3,3l9,6l1,7l5,9l-16,-1h-19l-32,-2h-15l-53,-2l-8,-1h-1l-27,-1h-14l-7,-1h-23l-3,-1l-32,-1l-4,-23l3,-13h1l2,-37l2,-52l2,-40l4,-70v-19l2,-46v-9l1,-6v-3l-1,-1l1,-2v-1l1,-2v-4h-1v-1l-1,-2v-1l-1,-1l1,-1v-1h-1v-1l-1,-2l-1,-1l-1,-1h-1v-1h-1v-1l-3,-1v-1h-1v-1h-3l-1,1l-1,-1l2,-2v-1l-1,-1l1,-1v-5l-1,-3h-1v-1v1h-1l1,-2v-1l-1,-4h-1l-1,1h-1l-1,-1h-3l-1,1v-1h-2l-1,1l-1,-1h-1v1l-1,1l-1,-1v-1h-1l-1,1h-2l-2,1l1,1l-1,2l-1,1h1v3l-1,2l-1,1h-1v2h-1v2l1,1l-1,5h-1v2l-2,1h-1v-1l-6,-5l-2,-2l1,-7v-4l1,-2l1,-2l-3,-7l6,-13l1,-5v-2l9,-13l2,-3v-8l1,-1l1,-2l1,-3l2,-4l-3,-9l-1,-1l-3,-2l-5,-11l7,-9l-3,-5l2,-8l-6,-11l-4,-12l1,-13l-2,-5l2,-19l-9,-9l2,-14l6,-14l-1,-9l4,-5l5,-20l7,-7l6,-12h1l4,-2l4,-8v-1l1,-3l-4,-12v-13l-3,-10v-6l6,-7l7,-20l-4,-26l-4,-6v-5l-7,-10l-2,-2h-1l-1,-1l-1,-2l-1,-1l-1,-1v-2l-2,-2l-1,-4v-7l-1,-1v-2l-1,-2l-1,-1l3,-10l2,-9h1l1,-13v-19l10,-18v-8l-12,-13v-1l-1,-6l2,-4v-1l5,-17l4,-4l2,-22l-5,-7l3,-11l22,-1h144Z"/><g class="districts"><path data-race-id="VT00" d="M31,365l7,-7l6,-12h1l4,-2l4,-8v-1l1,-3l-4,-12v-13l-3,-10v-6l6,-7l7,-20l-4,-26l-4,-6v-5l-7,-10l-2,-2h-1l-1,-1l-1,-2l-1,-1l-1,-1v-2l-2,-2l-1,-4v-7l-1,-1v-2l-1,-2l-1,-1l3,-10l2,-9h1l1,-13v-19l10,-18v-8l-12,-13v-1l-1,-6l2,-4v-1l5,-17l4,-4l2,-22l-5,-7l3,-11l22,-1h180l8,1h3l18,2h34l7,1h22l7,1h15l24,-1h47l5,-1h32l27,-2h41l2,-1h56l-6,4l-4,-3l-10,6v1l-1,3l1,3l1,1l3,3v1l2,1l1,3l-1,2v3l-1,2v1l1,1v1l1,2v1l4,4l2,2v3h-1l-4,6l-2,2l-1,2l-1,1l-7,6v1l-2,6h1v3l-6,7v1l-1,2l1,2v7l-5,4l-8,11l-3,1v4l1,2v3l2,2v2l1,1l4,9l2,1l-1,2l1,2v3l1,1l1,1h2l-1,2l1,3l-2,1l4,2v2h3l1,1l1,3l-1,1l4,3v1l1,2v1l-2,7l-2,1l2,1v1l-1,2h1l2,-1v1h2v4l-2,2l-2,-1l1,3l-1,2l-2,2h-10v6l4,2v9l-3,2v1l2,1l2,5l-5,1l-2,6l-7,4l-2,1l-3,2l-6,12l-3,2l-1,1l-1,2l-1,1l-2,3h-2l-6,4l-6,1l-1,2l-8,-2l-4,3h-2l-2,1l-1,1l-1,1v1l1,1v1l-3,1h-1l-1,1v6l1,4l-2,1l-3,1l-1,1h-2l-2,3h-1l-1,1h-1l-10,-1l-5,-3l-4,2l-3,4l-5,-1h-9l-2,1v1l-5,4l-1,1h-7l-1,1v5l-3,5h-1v2h-2l-1,1l-3,6v2h2v3l1,5l1,1l1,1l-2,13h-1l1,2l-1,4h-1v1l-1,2v1l1,1l1,1l1,2v1l1,1l1,2l1,2v1h1v2h2l-1,1l-1,4v4h1l1,1v1l1,1h-1v1h-2l-1,1l-3,5l3,6h1l4,-2l-2,10l-12,15l1,4l-5,3h-1v3l1,3l-1,-2l-3,1l-1,5v1l-2,13l5,-1v6l-1,1l-1,1l-1,1l-3,4v7l-15,14l1,8l-5,1l-2,20l2,3v1l-1,2l-5,7v7l-3,1l-6,9l-12,5l-10,17l2,7l-4,11l-1,4l-5,9l2,7l-6,6l-10,5v15l-4,5v8l2,2l1,1l1,3v2l-1,5l-2,8v4l-4,24l-3,2v8l7,3l-6,10l5,7l-3,10l-6,13l-4,3l1,8l-1,14l-4,3v23h3v2l2,10l-2,2l2,9l-10,12l2,5l-1,7l7,7l-6,3v8l-22,12l2,4v12l-1,7l-7,6l-1,13l2,4l2,14l2,2l6,7l3,3l-3,6l8,-4l5,6v5l5,9l-16,-1h-19l-32,-2h-15l-5,-1h-22l-34,-2h-1l-27,-1h-14l-7,-1h-23l-3,-1l-32,-1l-4,-23l3,-13h1l2,-37l2,-52l2,-40l4,-70v-19l2,-46v-9l1,-6v-3l-1,-1l1,-2v-1l1,-2v-4h-1v-1l-1,-2v-1l-1,-1l1,-1v-1h-1v-1l-1,-2l-1,-1l-1,-1h-1v-1h-1v-1l-3,-1v-1h-1v-1h-3l-1,1l-1,-1l2,-2v-1l-1,-1l1,-1v-5l-1,-3h-1v-1v1h-1l1,-2v-1l-1,-4h-1l-1,1h-1l-1,-1h-3l-1,1v-1h-2l-1,1l-1,-1h-1v1l-1,1l-1,-1v-1h-1l-1,1h-2l-2,1l1,1l-1,2l-1,1h1v3l-1,2l-1,1h-1v2h-1v2l1,1l-1,5h-1v2l-2,1h-1v-1l-6,-5l-2,-2l1,-7v-4l1,-2l1,-2l-3,-7l6,-13l1,-5v-2l9,-13l2,-3v-8l1,-1l1,-2l1,-3l2,-4l-3,-9l-1,-1l-3,-2l-5,-11l7,-9l-3,-5l2,-8l-6,-11l-4,-12l1,-13l-2,-5l2,-19l-9,-9l2,-14l6,-14l-1,-9l4,-5l5,-20Z"/></g></svg>