<svg version="1.1" xmlns="http://www.w3.org/2000/svg" width="1000" height="658" viewBox="0 0 1000 658">
  <path d="M276 130
l -3 -6
l 3 -2
l -6 -9
l 10 -3
l 5 10
l 2 -6
l 4 7
h 4
l 1 -13
l -2 -5
l 8 -3
v -5
l -6 -7
v -16
l -2 -4
l -1 -1
l -2 -2
l -9 1
l -5 9
l -2 -5
l 2 -7
l -6 -3
l -1 -9
l -9 -8
l 5 -3
v -4
l -9 -1
l 4 -6
l 5 3
v -8
h 5
l 5 1
h 63
l 2 1
h 31
l 4 1
h 209
l 2 -1
h 73
l 4 -1
h 55
l 4 -1
h 18
l 2 -1
h 40
l 5 -1
h 14
l 20 -1
h 7
l 11 -1
h 25
l 13 -1
l 10 -1
h 27
l 7 -1
l 13 -1
l 1 39
l 1 23
v 22
l 2 20
v 23
l 1 1
v 28
l 1 14
l 2 48
l 2 19
v 18
l 2 17
l 1 38
l 2 20
v 19
l 2 19
v 20
l 2 20
v 19
l 1 31
l -1 14
l 4 2
l 9 15
v 9
l 4 5
v 7
l -3 6
h -1
l 1 4
l 5 6
l 1 8
h -7
l -8 1
h -26
l -3 1
h -24
l -1 1
h -18
l -11 1
h -9
l -26 1
h -7
l -5 1
h -35
l -4 1
h -45
v 1
h -21
l -1 1
h -4
l -1 2
h -1
l -1 1
l -2 2
l -5 2
l -4 3
l -3 2
h -2
l -7 1
h -2
l -2 -1
h -3
l -1 -1
h -1
l -5 1
h -1
l -1 1
l -4 1
l -1 1
h -10
l -1 1
l -6 1
h -4
l -5 -3
l -1 1
h -2
l -3 3
l -3 5
l -2 4
h -1
l -12 2
l -12 2
h -1
l -3 1
h -1
l -11 3
h -1
l -9 6
l -11 3
h -1
l -2 4
l -3 3
l -8 1
l -15 4
h -12
l -7 -7
h -13
l -1 1
l -3 3
l -4 2
l -10 3
l -10 7
l -2 1
l -1 1
l -1 -1
l -2 -1
l -3 -2
l -3 2
h -12
l -2 1
l -1 1
l -4 3
l -1 2
h -5
l -2 -2
v -6
l -2 -2
l -10 -4
l -1 -2
l -6 -1
h -3
l -5 2
l -4 -1
l -2 -1
l -7 -4
l -10 2
l -6 1
l -9 2
h -4
l -8 -2
l -3 1
l -6 3
l -1 2
h -1
l -1 3
h -1
l -1 1
v 1
h -3
l -1 1
l -10 4
l -4 2
l -7 3
l -15 7
h -8
l -2 -1
l -1 -1
l -1 -1
l -1 -1
l -5 -1
h -8
l -4 -2
l -23 -7
l -1 -1
h -1
l -2 -2
l -6 -4
l -2 -3
l 2 -10
v -7
l -3 -6
v -10
l -2 -6
l -1 -5
l 1 -5
l -1 -2
l -7 -13
l -1 -5
v -1
l -7 -6
l -8 -7
l -3 -2
h -1
l -1 -2
l -7 -4
l -2 -2
h -6
l -5 2
l -11 3
l -10 -8
l -9 -13
l -12 1
l -14 -1
l -4 -9
l -3 4
l -6 3
l -4 -2
l -8 7
l -6 -3
l -9 -10
l -10 6
l 4 -22
v -44
l 5 10
l -1 26
l 1 12
l 7 2
v -6
l 6 -6
l -4 -6
l 7 -14
l -4 -3
l -1 -9
l 2 -10
l 8 -5
l 4 2
l -2 -5
l -8 -5
v 3
l -13 2
l -9 -4
l -1 -10
v -8
l -3 -11
h 5
v 7
l 13 -11
l 14 -2
l 2 -5
l -8 -3
h -10
l -2 -8
l -4 -3
l -11 1
l 2 15
l -6 4
l 1 -7
v -22
l -2 -18
l -3 -18
l -6 -4
l -1 -7
l -4 -3
l -2 -30
l -6 -38
l -6 -5
l -1 -8
l -7 -4
l -2 -6
l -5 -2
l -3 -3
l -4 -17
l -3 -24
l -3 -9
l 6 -7
l 1 -14
l 3 -8
l -4 -1
l -3 -8
h 11
l 22 14
l 7 6
h 3
l 7 5
l 5 -1
l 17 9
l 5 7
l 9 3
l 14 3
h 11
l 8 -2
l 9 5
l 9 -1
l 19 7
h 17
l 6 -4
l 10 -2
l 8 9
v 8
l 6 7
l -3 -11
l 11 -3
v 6
l 7 4
l 4 7
l 1 -7
l -6 -6
v -6
l 5 -4
l 9 -1
l 1 5
l -5 4
l 2 8
l 6 4
l 2 9
l 3 1
v 8
l 6 7
l -1 4
l -6 -1
v 7
l -8 4
l -1 10
l -3 4
l 1 6
l -5 2
l 1 -13
l 3 -5
l -1 -8
l -3 -2
v 8
l -4 2
l -2 -5
l -1 12
l -6 15
l 2 2
l -10 6
v 1
l -7 9
l -2 9
l -3 2
l -8 16
l -2 9
h 16
l 7 -5
l 11 -4
l 4 -7
l -11 7
l -14 5
l -8 -3
l 4 -11
l 5 -5
l 3 -7
l 12 -13
l 1 -5
l 10 -2
l 11 -8
v -8
l 7 -8
l 1 -5
l 12 -10
v -10
l 7 1
l 6 24
l -1 6
l -8 -1
l -4 8
l -4 -1
v 10
l 2 3
l -1 10
l -5 -1
l -3 -10
l -4 -1
l -1 7
l 3 6
l 7 -1
l 1 3
l -7 2
h 8
l 7 -7
l 1 12
l 5 1
l -4 8
l -3 12
l 1 7
l -4 9
l 3 6
l -4 5
l -1 -5
l -11 -2
l 4 -6
l -2 -4
l 6 -5
v -5
h -1
l -1 4
l -12 7
l -3 14
l 4 2
v 6
l -4 1
l -2 8
l -6 -18
l 5 -6
l -2 -11
l -3 -8
v 11
l -2 5
l -10 5
l -3 14
h -15
l -2 -2
l -1 2
l 19 1
l -3 5
l -5 1
l -3 8
l -7 4
l 7 -2
l 11 -12
l 2 4
l -5 4
l 5 14
l 1 -15
l 10 -4
l 4 1
l 1 6
l 7 6
l 4 -1
l 13 -14
l 3 -11
l 4 -11
l 4 1
l 7 6
v 4
l 4 -8
l -4 -2
l 3 -4
l 12 -5
l -1 -10
l -2 -1
l -3 -8
l -5 -22
l 4 -3
l 5 7
l 1 -8
l -10 -6
l -2 -5
l 8 -10
l -3 -10
v -5
l 8 -9
v -1
l 4 -15
l 10 -5
l 1 -12
l -3 2
l -6 -4
l -8 -11
l -1 -10
l 2 -4
l -5 -6
l -7 -1
v 6
l -3 4
l 3 7
l 9 9
l 1 6
l -12 -14
l -5 -1
l -3 -8
l 1 -13
h 7
v -3
l 8 4
l 3 -9
l -3 -5
l -10 -8
l -5 -1
l -3 -8
l 2 -3
l -11 5
Z
M282 132
l -1 7
l 7 4
l 5 6
l -3 4
l -8 -4
l -8 4
l 1 6
l -8 1
l -1 4
l 11 -1
l 7 13
l 1 13
l 6 7
l -1 -10
h 3
l 7 10
l 7 1
l 3 15
l -8 7
l -4 -2
v -8
l -5 -4
l -7 3
v -5
l -6 -4
v -21
l -7 -4
l -12 -10
l 1 -8
l 4 -4
l 8 -14
v -7
Z
M297 309
l 7 2
l -11 9
l 3 -11
l -4 4
l -2 10
l -4 -2
l 2 -7
v -14
l 5 -10
l 4 8
Z
M286 257
l 4 -2
v 11
l 2 10
l -5 3
l -2 -5
l -4 2
l 2 -22
Z
M282 105
l -6 3
l 1 -10
Z
M270 331
l 7 7
l -1 4
Z
M273 75
l 6 6
l 2 7
l -4 -2
l -4 -9
l -4 -2
v -5
Z
M267 339
l 3 7
l -8 -1
Z
M271 97
l 3 3
l -2 6
h -4
l -2 -8
Z
M269 186
l 1 15
l -6 -4
l -2 -8
l 3 -2
l 3 9
Z
M268 351
l -4 7
l -5 -4
l 5 -7
Z
M248 75
l 17 9
l -9 11
l -7 -10
v -7
l -5 2
l 5 8
l 2 7
l -9 1
l -1 -5
l -4 -3
l -5 5
l 4 -10
Z
M258 98
l 4 6
l -5 3
l -2 -5
Z
M250 103
l 2 20
l 4 -2
l 1 5
l -10 1
l 4 -3
l -10 -4
l 3 -16
Z
M244 330
v 8
l 3 4
l -4 9
l -1 -6
l -4 -6
v -9
Z
M239 96
l 7 2
l -5 7
l -5 -7
Z
M218 90
l 5 1
l 15 19
l -4 -1
l -2 5
l 4 6
l -9 -2
l -11 -10
l -1 -10
Z
M235 73
v 6
l -4 2
l -4 -4
Z
M230 23
h 3
l 1 5
h -7
Z
M175 522
l 9 9
l -7 -2
l -6 -5
Z
M105 467
l 4 4
v 10
l -7 -7
Z"/>
<g class="districts">
<path data-race-id="WA01" d="M233 23
l 1 5
h -7
l 3 -5
Z
M268 24
h 3
l 5 1
h 63
l 2 1
h 31
l 4 1
h 113
l -4 6
l 6 5
l 6 -3
l 1 15
l 4 1
v 15
l 8 11
l -4 4
l -2 6
l -4 1
l -4 5
v 6
l 4 3
l 3 -3
l 5 4
l -2 8
l -11 4
l -5 -8
l -8 5
l -6 -1
v 5
l -10 1
l -2 8
l 2 7
l -3 1
l 3 11
l -4 5
l 8 4
v 5
l 9 12
l 3 6
l -8 3
l 2 7
l -6 5
h -4
l -14 7
l 3 10
h -3
l -2 8
v 10
l 2 7
l 10 2
l -6 9
l 5 7
l 1 7
l -7 3
l -1 8
l 2 8
l -6 1
l -1 5
l -5 -1
l -3 6
l -2 1
l -7 9
h -2
l -9 10
l -8 5
h -7
l -7 -5
l -12 -4
l -3 -7
h -5
l -3 -8
l -7 -5
l -19 -8
l -1 -8
l -7 -2
l -2 4
l -3 -3
l -3 3
v -6
l -9 3
l -1 9
l -6 -3
l 5 -14
l -4 -3
l -1 -9
v -4
h 3
v -4
l 5 -1
l -2 -13
h 3
l 4 -11
l -2 -6
h 6
l 2 -4
v -1
l 1 -3
v -31
l -9 4
l -5 -12
h 9
l -5 -10
l -4 -5
l 4 -1
l -2 -8
l -6 -4
l -4 2
h -6
l -1 -5
l 3 -6
l 4 -7
l 7 -2
l 3 1
v -22
l 2 -5
v -3
l -10 -5
v -5
l -12 -7
l -3 -5
l -1 -3
h -10
l 2 7
l -1 -1
l -2 -2
l -9 1
l -5 9
l -2 -5
l 2 -7
l -6 -3
l -1 -9
l -9 -8
l 5 -3
v -4
l -9 -1
l 4 -6
l 5 3
v -8
Z
M273 75
l 6 6
l 2 7
l -4 -2
l -4 -9
l -4 -2
v -5
Z"/>
<path data-race-id="WA02" d="M294 68
l -2 -7
h 10
l 1 3
l 3 5
l 12 7
v 5
l 10 5
v 3
l -2 5
v 22
l -3 -1
l -7 2
l -4 7
l -3 6
l 1 5
h 6
l 4 -2
l 6 4
l 2 8
l -4 1
l 4 5
l 5 10
h -9
l 5 12
l 9 -4
v 31
l -1 3
v 1
l -2 4
h -6
l 2 6
l -4 11
h -3
l 2 13
l -5 1
v 4
h -9
l -1 -10
l 2 -2
l -2 -3
l 4 -15
l 10 -5
l 1 -12
l -3 2
l -6 -4
l -8 -11
l -1 -10
l 2 -4
l -5 -6
l -7 -1
v 6
l -3 4
l 3 7
l 9 9
l 1 6
l -12 -14
l -5 -1
l -3 -8
l 1 -13
h 7
v -3
l 8 4
l 3 -9
l -3 -5
l -10 -8
l -5 -1
l -3 -8
l 2 -3
l -11 5
h -1
l -3 -6
l 3 -2
l -6 -9
l 10 -3
l 5 10
l 2 -6
l 4 7
h 4
l 1 -13
l -2 -5
l 8 -3
v -5
l -6 -7
v -16
l -2 -4
Z
M282 132
l -1 7
l 7 4
l 5 6
l -3 4
l -8 -4
l -8 4
l 1 6
l -8 1
l -1 4
l 11 -1
l 7 13
l 1 13
l 6 7
l -1 -10
h 3
l 7 10
l 7 1
l 3 15
l -8 7
l -4 -2
v -8
l -5 -4
l -7 3
v -5
l -6 -4
v -21
l -7 -4
l -12 -10
l 1 -8
l 4 -4
l 8 -14
v -7
Z
M282 105
l -6 3
l 1 -10
Z
M271 97
l 3 3
l -2 6
h -4
l -2 -8
Z
M248 75
l 17 9
l -9 11
l -7 -10
v -7
l -5 2
l 5 8
l 2 7
l -9 1
l -1 -5
l -4 -3
l -5 5
l 4 -10
Z
M258 98
l 4 6
l -5 3
l -2 -5
Z
M250 103
l 2 20
l 4 -2
l 1 5
l -10 1
l 4 -3
l -10 -4
l 3 -16
Z
M239 96
l 7 2
l -5 7
l -5 -7
Z
M218 90
l 5 1
l 15 19
l -4 -1
l -2 5
l 4 6
l -9 -2
l -11 -10
l -1 -10
Z
M235 73
v 6
l -4 2
l -4 -4
Z"/>
<path data-race-id="WA03" d="M92 412
l 41 2
h 17
l 31 1
l 26 1
v -6
l 11 1
l 5 4
l 22 -9
h 7
l 10 -4
l 13 7
l 5 -4
v 5
l 8 -1
l 1 -5
l 7 4
l 15 4
l 2 10
l 10 2
l 3 2
l 14 1
h 14
l 9 4
h 6
l 4 -7
l 4 -3
h 37
l 1 3
l 2 5
l 6 2
l 3 2
l -2 6
h -4
l -1 7
l 4 2
l -5 10
v 6
l -4 2
v 5
l 5 8
l 2 13
h -15
v 35
l -1 2
v 24
h 49
l 1 1
h 152
l 3 -1
v 37
h -1
l -3 1
h -1
l -11 3
h -1
l -8 5
l -12 4
h -1
l -2 4
l -3 3
l -8 1
l -15 4
h -12
l -7 -7
l -9 -2
l -4 2
l -1 1
l -3 3
l -4 2
l -10 3
l -10 7
l -2 1
l -1 1
l -1 -1
l -2 -1
l -3 -2
l -3 2
h -12
l -2 1
l -1 1
l -4 3
l -1 2
h -5
l -2 -2
v -6
l -2 -2
l -10 -4
l -1 -2
l -6 -1
h -3
l -5 2
l -4 -1
l -2 -1
l -7 -4
l -10 2
l -6 1
l -9 2
h -4
l -8 -2
l -3 1
l -6 3
l -1 2
h -1
l -1 3
h -1
l -1 1
v 1
h -3
l -1 1
l -10 4
l -4 2
l -7 3
l -7 1
l -8 5
v 1
h -8
l -2 -1
l -1 -1
l -1 -1
l -1 -1
l -5 -1
h -8
l -4 -2
l -13 -5
l -10 -2
l -1 -1
h -1
l -2 -2
l -6 -4
l -2 -3
l 2 -10
v -7
l -3 -6
v -10
l -2 -6
l -1 -5
l 1 -5
l -1 -2
l -7 -13
l -1 -5
v -1
l -7 -6
l -8 -7
l -3 -2
h -1
l -1 -2
l -7 -4
l -2 -2
h -6
l -5 2
l -11 3
l -10 -8
l -9 -13
l -12 1
l -14 -1
l -4 -9
l -3 4
l -6 3
l -4 -2
l -8 7
l -6 -3
l -9 -10
l -10 6
l 4 -22
v -44
l 5 10
l -1 26
l 1 12
l 7 2
v -6
l 6 -6
l -4 -6
l 7 -14
l -4 -3
l -1 -9
l 2 -10
l 8 -5
l 4 2
l -2 -5
l -8 -5
v 3
l -13 2
l -9 -4
Z
M175 522
l 9 9
l -7 -2
l -6 -5
Z
M105 467
l 4 4
v 10
l -7 -7
Z"/>
<path data-race-id="WA04" d="M424 368
l 3 3
l 10 -3
l 7 3
l 15 14
l 8 14
h 47
v 15
h 15
v 16
h 47
l 19 -1
l 6 -14
l -5 -6
v -16
l -5 -9
l -1 -8
l -3 -3
v -9
l 4 -3
l -1 -17
l -7 -1
l -3 -7
l 1 -13
l -6 -5
l -16 -4
l -1 -8
l -6 -7
l 2 -10
l 8 -10
v -10
l 4 -5
l -2 -13
l 8 -6
l 7 2
l 11 -3
l 4 -12
l 7 -5
l -1 -6
l 6 -6
l -1 -4
l -21 1
l -2 -1
l -2 -8
l -8 -5
v -5
l -10 -4
l -7 -7
l -5 1
l -3 -5
l 1 -12
l -13 -7
l -6 -8
l -10 -3
l 4 -7
l -7 -6
h -4
l -1 -15
l 1 -10
l -6 1
l 2 -8
l -5 -4
l -3 3
l -4 -3
v -6
l 4 -5
l 4 -1
l 2 -6
l 4 -4
l -8 -11
v -15
l -4 -1
l -1 -15
l -6 3
l -6 -5
l 4 -6
h 96
l 2 -1
h 73
l 4 -1
h 55
l 4 -1
l 1 18
v 31
l 1 13
h -3
v 28
l 3 2
v 38
l 1 1
v 54
l -14 4
v 27
l 1 1
v 50
l 1 1
v 42
h 26
l 22 -1
h 22
l 17 -2
h 37
l 1 20
v 50
l -8 17
h -9
l -8 5
l -4 1
h -3
l 2 17
l 4 4
l -2 6
h -2
l -10 -3
l -9 5
l -9 -2
l -8 5
l -12 12
l -3 17
l -6 9
h -6
l -2 11
l 2 7
h 22
v 8
h 3
l 1 26
h -3
l -5 5
l 1 6
h -20
v 1
h -21
l -1 1
h -4
l -1 2
h -1
l -1 1
l -2 2
l -5 2
l -4 3
l -3 2
h -2
l -7 1
h -2
l -2 -1
h -3
l -1 -1
h -1
l -5 1
h -1
l -1 1
l -4 1
l -1 1
h -10
l -1 1
l -6 1
h -4
l -5 -3
l -1 1
h -2
l -3 3
l -3 5
l -2 4
h -1
l -12 2
l -12 2
v -37
l -3 1
h -152
l -1 -1
h -49
v -24
l 1 -2
v -35
h 15
l -2 -13
l -5 -8
v -5
l 4 -2
v -6
l 5 -10
l -4 -2
l 1 -7
h 4
l 2 -6
l -3 -2
l -6 -2
l -2 -5
l -1 -3
l 2 -2
l -9 -13
l 1 -5
l 7 -5
l 1 -10
l 5 -3
Z"/>
<path data-race-id="WA05" d="M712 213
l 14 -4
v -54
l -1 -1
v -38
l -3 -2
v -28
h 3
l -1 -13
v -31
l -1 -18
h 18
l 2 -1
h 40
l 5 -1
h 14
l 20 -1
h 7
l 11 -1
h 25
l 13 -1
l 10 -1
h 27
l 7 -1
l 13 -1
l 1 39
l 1 23
v 22
l 2 20
v 23
l 1 1
v 28
l 1 14
l 2 48
l 2 19
v 18
l 2 17
l 1 38
l 2 20
v 19
l 2 19
v 20
l 2 20
v 19
l 1 31
l -1 14
l 4 2
l 9 15
v 9
l 4 5
v 7
l -3 6
h -1
l 1 4
l 5 6
l 1 8
h -7
l -8 1
h -26
l -3 1
h -24
l -1 1
h -18
l -11 1
h -9
l -26 1
h -7
l -5 1
h -35
l -4 1
h -25
l -1 -6
l 5 -5
h 3
l -1 -26
h -3
v -8
h -22
l -2 -7
l 2 -11
h 6
l 6 -9
l 3 -17
l 12 -12
l 8 -5
l 9 2
l 9 -5
l 10 3
h 2
l 2 -6
l -4 -4
l -2 -17
h 3
l 4 -1
l 8 -5
h 9
l 8 -17
v -50
l -1 -20
h -37
l -17 2
h -22
l -22 1
h -26
v -42
l -1 -1
v -50
l -1 -1
Z"/>
<path data-race-id="WA06" d="M296 334
v 4
l 1 2
l -1 10
l -8 -2
v -10
h -7
l 4 -11
l 4 1
Z
M218 341
l -2 -1
l -1 -4
l -6 2
l 8 9
l -1 13
l 2 3
l -15 1
v 12
l 5 4
l -1 9
v 27
l -26 -1
l -31 -1
h -17
l -41 -2
v -8
l -3 -11
h 5
v 7
l 13 -11
l 14 -2
l 2 -5
l -8 -3
h -10
l -2 -8
l -4 -3
l -11 1
l 2 15
l -6 4
l 1 -7
v -22
l -2 -18
l -3 -18
l -6 -4
l -1 -7
l -4 -3
l -2 -30
l -6 -38
l -6 -5
l -1 -8
l -7 -4
l -2 -6
l -5 -2
l -3 -3
l -4 -17
l -3 -24
l -3 -9
l 6 -7
l 1 -14
l 3 -8
l -4 -1
l -3 -8
h 11
l 22 14
l 7 6
h 3
l 7 5
l 5 -1
l 17 9
l 5 7
l 9 3
l 14 3
h 11
l 8 -2
l 9 5
l 9 -1
l 19 7
h 17
l 6 -4
l 10 -2
l 8 9
v 8
l 6 7
l -3 -11
l 11 -3
v 6
l 7 4
l 4 7
l 1 -7
l -6 -6
v -6
l 5 -4
l 9 -1
l 1 5
l -5 4
l 2 8
l 6 4
l 2 9
l 3 1
v 8
l 6 7
l -1 4
l -6 -1
v 7
l -8 4
l -1 10
l -3 4
l 1 6
l -5 2
l 1 -13
l 3 -5
l -1 -8
l -3 -2
v 8
l -4 2
l -2 -5
l -1 12
l -6 15
l 2 2
l -10 6
v 1
l -7 9
l -2 9
l -3 2
l -8 16
l -2 9
h 16
l 7 -5
l 11 -4
l 4 -7
l -11 7
l -14 5
l -8 -3
l 4 -11
l 5 -5
l 3 -7
l 12 -13
l 1 -5
l 10 -2
l 11 -8
v -8
l 7 -8
l 1 -5
l 12 -10
v -10
l 7 1
l 6 24
l -1 6
l -8 -1
l -4 8
l -4 -1
v 10
l 2 3
l -1 10
l -5 -1
l -3 -10
l -4 -1
l -1 7
l 3 6
l 7 -1
l 1 3
l -7 2
h 8
l 7 -7
l 1 12
l 5 1
l -4 8
l -3 12
l 1 7
l -4 9
l 3 6
l -4 5
l -1 -5
l -11 -2
l 4 -6
l -2 -4
l 6 -5
v -5
h -1
l -1 4
l -12 7
l -3 14
l 4 2
v 6
l -4 1
l -2 8
l -6 -18
l 5 -6
l -2 -11
l -3 -8
v 11
l -2 5
l -10 5
l -3 14
h -15
l -2 -2
Z
M286 257
l 4 -2
v 11
l 2 10
l -5 3
l -2 -5
l -4 2
l 2 -22
Z
M270 331
l 7 7
l -1 4
Z
M269 186
l 1 15
l -6 -4
l -2 -8
l 3 -2
l 3 9
Z
M244 330
v 8
l 3 4
l -4 9
l -1 -6
l -4 -6
v -9
Z"/>
<path data-race-id="WA07" d="M311 228
l 2 3
l -2 2
l 1 10
h 6
v 4
l 1 9
l 4 3
l -5 14
h -7
l 1 11
l -2 5
l 4 2
l -3 7
l -1 11
h -1
l -1 -1
l -3 -8
l -5 -22
l 4 -3
l 5 7
l 1 -8
l -10 -6
l -2 -5
l 8 -10
l -3 -10
v -5
l 8 -9
Z
M297 309
l 7 2
l -11 9
l 3 -11
l -4 4
l -2 10
l -4 -2
l 2 -7
v -14
l 5 -10
l 4 8
Z"/>
<path data-race-id="WA08" d="M280 393
l 4 -11
h 13
v -13
l 3 3
h 13
l 1 -13
l 3 -3
l 4 -1
v -7
l 4 -1
l -4 -11
h -7
l -4 3
v -1
h -1
h 1
h -1
v -2
l 7 -10
h -2
l 3 -12
l 2 5
l 6 -7
l 7 1
l -1 -10
l 1 -4
h 1
l 2 -3
l -2 -6
h 7
l 2 -6
h -4
v -11
l 2 -3
l 2 -4
l 7 2
l 1 8
l 19 8
l 7 5
l 3 8
h 5
l 3 7
l 12 4
l 7 5
h 7
l 8 -5
l 9 -10
h 2
l 7 -9
l 2 -1
l 3 -6
l 5 1
l 1 -5
l 6 -1
l -2 -8
l 1 -8
l 7 -3
l -1 -7
l -5 -7
l 6 -9
l -10 -2
l -2 -7
v -10
l 2 -8
h 3
l -3 -10
l 14 -7
h 4
l 6 -5
l -2 -7
l 8 -3
l -3 -6
l -9 -12
v -5
l -8 -4
l 4 -5
l -3 -11
l 3 -1
l -2 -7
l 2 -8
l 10 -1
v -5
l 6 1
l 8 -5
l 5 8
l 11 -4
l 6 -1
l -1 10
l 1 15
h 4
l 7 6
l -4 7
l 10 3
l 6 8
l 13 7
l -1 12
l 3 5
l 5 -1
l 7 7
l 10 4
v 5
l 8 5
l 2 8
l 2 1
l 21 -1
l 1 4
l -6 6
l 1 6
l -7 5
l -4 12
l -11 3
l -7 -2
l -8 6
l 2 13
l -4 5
v 10
l -8 10
l -2 10
l 6 7
l 1 8
l 16 4
l 6 5
l -1 13
l 3 7
l 7 1
l 1 17
l -4 3
v 9
l 3 3
l 1 8
l 5 9
v 16
l 5 6
l -6 14
l -19 1
h -47
v -16
h -15
v -15
h -47
l -8 -14
l -15 -14
l -7 -3
l -10 3
l -3 -3
l -3 15
l -5 3
l -1 10
l -7 5
l -1 5
l 9 13
l -2 2
h -37
l -4 3
l -4 7
h -6
l -9 -4
h -14
l -14 -1
l -3 -2
l -10 -2
l -2 -10
l -15 -4
l -7 -4
l -1 -7
Z"/>
<path data-race-id="WA09" d="M310 309
l 1 -11
l 3 -7
l -4 -2
l 2 -5
l -1 -11
h 7
l 6 3
l 1 -9
l 9 -3
v 6
l 3 -3
l 3 3
l -2 3
v 11
h 4
l -2 6
h -7
l 2 6
l -2 3
h -1
l -1 4
l 1 10
l -7 -1
l -6 7
l -2 -5
l -3 12
h 2
l -7 10
v 2
h -2
l -10 2
l -1 -2
l 4 -8
l -4 -2
l 3 -4
l 12 -5
l -1 -10
Z"/>
<path data-race-id="WA10" d="M203 376
v -12
l 15 -1
l -2 -3
l 1 -13
l -8 -9
l 6 -2
l 1 4
l 2 1
l -1 2
l 19 1
l -3 5
l -5 1
l -3 8
l -7 4
l 7 -2
l 11 -12
l 2 4
l -5 4
l 5 14
l 1 -15
l 10 -4
l 4 1
l 1 6
l 7 6
l 4 -1
l 13 -14
l 3 -11
h 7
v 10
l 8 2
l 1 -10
l 10 -2
h 3
h -1
h 1
v 1
l 4 -3
h 7
l 4 11
l -4 1
v 7
l -4 1
l -3 3
l -1 13
h -13
l -3 -3
v 13
h -13
l -4 11
l 8 4
l 1 7
l -1 5
l -8 1
v -5
l -5 4
l -13 -7
l -10 4
h -7
l -22 9
l -5 -4
l -11 -1
v -21
l 1 -9
Z
M267 339
l 3 7
l -8 -1
Z
M268 351
l -4 7
l -5 -4
l 5 -7
Z"/>
</g>
  <path class="districts-mesh" d="M318 243
h 3
v -4
l 5 -1
l -2 -13
h 3
l 4 -11
l -2 -6
h 6
l 2 -4
v -1
l 1 -3
v -31
l -9 4
l -5 -12
h 9
l -5 -10
l -4 -5
l 4 -1
l -2 -8
l -6 -4
l -4 2
h -6
l -1 -5
l 3 -6
l 4 -7
l 7 -2
l 3 1
v -22
l 2 -5
v -3
l -10 -5
v -5
l -12 -7
l -3 -5
l -1 -3
h -10
l 2 7
M289 404
l -1 -7
l -8 -4
l 4 -11
h 13
v -13
l 3 3
h 13
l 1 -13
l 3 -3
l 4 -1
v -7
l 4 -1
l -4 -11
h -7
l -4 3
v -1
h -1
h 1
h -1
v -2
l 7 -10
h -2
l 3 -12
l 2 5
l 6 -7
l 7 1
l -1 -10
l 1 -4
h 1
l 2 -3
l -2 -6
h 7
l 2 -6
h -4
v -11
l 2 -3
l -3 -3
l -3 3
v -6
l -9 3
l -1 9
l -6 -3
l 5 -14
l -4 -3
l -1 -9
v -4
h -6
l -1 -10
l 2 -2
l -2 -3
M92 412
l 41 2
h 17
l 31 1
l 26 1
v -6
l 11 1
l 5 4
l 22 -9
h 7
l 10 -4
l 13 7
l 5 -4
v 5
l 8 -1
l 1 -5
l 7 4
l 15 4
l 2 10
l 10 2
l 3 2
l 14 1
h 14
l 9 4
h 6
l 4 -7
l 4 -3
h 37
l 1 3
l 2 5
l 6 2
l 3 2
l -2 6
h -4
l -1 7
l 4 2
l -5 10
v 6
l -4 2
v 5
l 5 8
l 2 13
h -15
v 35
l -1 2
v 24
h 49
l 1 1
h 152
l 3 -1
v 37
M723 24
l 1 18
v 31
l 1 13
h -3
v 28
l 3 2
v 38
l 1 1
v 54
l -14 4
v 27
l 1 1
v 50
l 1 1
v 42
h 26
l 22 -1
h 22
l 17 -2
h 37
l 1 20
v 50
l -8 17
h -9
l -8 5
l -4 1
h -3
l 2 17
l 4 4
l -2 6
h -2
l -10 -3
l -9 5
l -9 -2
l -8 5
l -12 12
l -3 17
l -6 9
h -6
l -2 11
l 2 7
h 22
v 8
h 3
l 1 26
h -3
l -5 5
l 1 6
M296 338
l 1 2
l -1 10
l -8 -2
v -10
h -7
M218 341
l -2 -1
l -1 -4
l -6 2
l 8 9
l -1 13
l 2 3
l -15 1
v 12
l 5 4
l -1 9
v 21
M318 273
h -7
l 1 11
l -2 5
l 4 2
l -3 7
l -1 11
M489 27
l -4 6
l 6 5
l 6 -3
l 1 15
l 4 1
v 15
l 8 11
l -4 4
l -2 6
l -4 1
l -4 5
v 6
l 4 3
l 3 -3
l 5 4
l -2 8
l -11 4
l -5 -8
l -8 5
l -6 -1
v 5
l -10 1
l -2 8
l 2 7
l -3 1
l 3 11
l -4 5
l 8 4
v 5
l 9 12
l 3 6
l -8 3
l 2 7
l -6 5
h -4
l -14 7
l 3 10
h -3
l -2 8
v 10
l 2 7
l 10 2
l -6 9
l 5 7
l 1 7
l -7 3
l -1 8
l 2 8
l -6 1
l -1 5
l -5 -1
l -3 6
l -2 1
l -7 9
h -2
l -9 10
l -8 5
h -7
l -7 -5
l -12 -4
l -3 -7
h -5
l -3 -8
l -7 -5
l -19 -8
l -1 -8
l -7 -2
l -2 4
M309 338
h -2
l -10 2
M414 421
l 2 -2
l -9 -13
l 1 -5
l 7 -5
l 1 -10
l 5 -3
l 3 -15
l 3 3
l 10 -3
l 7 3
l 15 14
l 8 14
h 47
v 15
h 15
v 16
h 47
l 19 -1
l 6 -14
l -5 -6
v -16
l -5 -9
l -1 -8
l -3 -3
v -9
l 4 -3
l -1 -17
l -7 -1
l -3 -7
l 1 -13
l -6 -5
l -16 -4
l -1 -8
l -6 -7
l 2 -10
l 8 -10
v -10
l 4 -5
l -2 -13
l 8 -6
l 7 2
l 11 -3
l 4 -12
l 7 -5
l -1 -6
l 6 -6
l -1 -4
l -21 1
l -2 -1
l -2 -8
l -8 -5
v -5
l -10 -4
l -7 -7
l -5 1
l -3 -5
l 1 -12
l -13 -7
l -6 -8
l -10 -3
l 4 -7
l -7 -6
h -4
l -1 -15
l 1 -10
l -6 1"/>
</svg>