<svg version="1.1" xmlns="http://www.w3.org/2000/svg" width="1000" height="658" viewBox="0 0 1000 658"><g class="districts"><path data-race-id="WA01" d="M233,23l1,5h-7l3,-5ZM268,24h3l5,1h63l2,1h31l4,1h113l-4,6l6,5l6,-3l1,15l4,1v15l8,11l-4,4l-2,6l-4,1l-4,5v6l4,3l3,-3l5,4l-2,8l-11,4l-5,-8l-8,5l-6,-1v5l-10,1l-2,8l2,7l-3,1l3,11l-4,5l8,4v5l9,12l3,6l-8,3l2,7l-6,5h-4l-14,7l3,10h-3l-2,8v10l2,7l10,2l-6,9l5,7l1,7l-7,3l-1,8l2,8l-6,1l-1,5l-5,-1l-3,6l-2,1l-7,9h-2l-9,10l-8,5h-7l-7,-5l-12,-4l-3,-7h-5l-3,-8l-7,-5l-19,-8l-1,-8l-7,-2l-2,4l-3,-3l-3,3v-6l-9,3l-1,9l-6,-3l5,-14l-4,-3l-1,-9v-4h3v-4l5,-1l-2,-13h3l4,-11l-2,-6h6l2,-4v-1l1,-3v-31l-9,4l-5,-12h9l-5,-10l-4,-5l4,-1l-2,-8l-6,-4l-4,2h-6l-1,-5l3,-6l4,-7l7,-2l3,1v-22l2,-5v-3l-10,-5v-5l-12,-7l-3,-5l-1,-3h-10l2,7l-1,-1l-2,-2l-9,1l-5,9l-2,-5l2,-7l-6,-3l-1,-9l-9,-8l5,-3v-4l-9,-1l4,-6l5,3v-8ZM273,75l6,6l2,7l-4,-2l-4,-9l-4,-2v-5Z"/><path data-race-id="WA02" d="M294,68l-2,-7h10l1,3l3,5l12,7v5l10,5v3l-2,5v22l-3,-1l-7,2l-4,7l-3,6l1,5h6l4,-2l6,4l2,8l-4,1l4,5l5,10h-9l5,12l9,-4v31l-1,3v1l-2,4h-6l2,6l-4,11h-3l2,13l-5,1v4h-9l-1,-10l2,-2l-2,-3l4,-15l10,-5l1,-12l-3,2l-6,-4l-8,-11l-1,-10l2,-4l-5,-6l-7,-1v6l-3,4l3,7l9,9l1,6l-12,-14l-5,-1l-3,-8l1,-13h7v-3l8,4l3,-9l-3,-5l-10,-8l-5,-1l-3,-8l2,-3l-11,5h-1l-3,-6l3,-2l-6,-9l10,-3l5,10l2,-6l4,7h4l1,-13l-2,-5l8,-3v-5l-6,-7v-16l-2,-4ZM282,132l-1,7l7,4l5,6l-3,4l-8,-4l-8,4l1,6l-8,1l-1,4l11,-1l7,13l1,13l6,7l-1,-10h3l7,10l7,1l3,15l-8,7l-4,-2v-8l-5,-4l-7,3v-5l-6,-4v-21l-7,-4l-12,-10l1,-8l4,-4l8,-14v-7ZM282,105l-6,3l1,-10ZM271,97l3,3l-2,6h-4l-2,-8ZM248,75l17,9l-9,11l-7,-10v-7l-5,2l5,8l2,7l-9,1l-1,-5l-4,-3l-5,5l4,-10ZM258,98l4,6l-5,3l-2,-5ZM250,103l2,20l4,-2l1,5l-10,1l4,-3l-10,-4l3,-16ZM239,96l7,2l-5,7l-5,-7ZM218,90l5,1l15,19l-4,-1l-2,5l4,6l-9,-2l-11,-10l-1,-10ZM235,73v6l-4,2l-4,-4Z"/><path data-race-id="WA03" d="M92,412l41,2h17l31,1l26,1v-6l11,1l5,4l22,-9h7l10,-4l13,7l5,-4v5l8,-1l1,-5l7,4l15,4l2,10l10,2l3,2l14,1h14l9,4h6l4,-7l4,-3h37l1,3l2,5l6,2l3,2l-2,6h-4l-1,7l4,2l-5,10v6l-4,2v5l5,8l2,13h-15v35l-1,2v24h49l1,1h152l3,-1v37h-1l-3,1h-1l-11,3h-1l-8,5l-12,4h-1l-2,4l-3,3l-8,1l-15,4h-12l-7,-7l-9,-2l-4,2l-1,1l-3,3l-4,2l-10,3l-10,7l-2,1l-1,1l-1,-1l-2,-1l-3,-2l-3,2h-12l-2,1l-1,1l-4,3l-1,2h-5l-2,-2v-6l-2,-2l-10,-4l-1,-2l-6,-1h-3l-5,2l-4,-1l-2,-1l-7,-4l-10,2l-6,1l-9,2h-4l-8,-2l-3,1l-6,3l-1,2h-1l-1,3h-1l-1,1v1h-3l-1,1l-10,4l-4,2l-7,3l-7,1l-8,5v1h-8l-2,-1l-1,-1l-1,-1l-1,-1l-5,-1h-8l-4,-2l-13,-5l-10,-2l-1,-1h-1l-2,-2l-6,-4l-2,-3l2,-10v-7l-3,-6v-10l-2,-6l-1,-5l1,-5l-1,-2l-7,-13l-1,-5v-1l-7,-6l-8,-7l-3,-2h-1l-1,-2l-7,-4l-2,-2h-6l-5,2l-11,3l-10,-8l-9,-13l-12,1l-14,-1l-4,-9l-3,4l-6,3l-4,-2l-8,7l-6,-3l-9,-10l-10,6l4,-22v-44l5,10l-1,26l1,12l7,2v-6l6,-6l-4,-6l7,-14l-4,-3l-1,-9l2,-10l8,-5l4,2l-2,-5l-8,-5v3l-13,2l-9,-4ZM175,522l9,9l-7,-2l-6,-5ZM105,467l4,4v10l-7,-7Z"/><path data-race-id="WA04" d="M424,368l3,3l10,-3l7,3l15,14l8,14h47v15h15v16h47l19,-1l6,-14l-5,-6v-16l-5,-9l-1,-8l-3,-3v-9l4,-3l-1,-17l-7,-1l-3,-7l1,-13l-6,-5l-16,-4l-1,-8l-6,-7l2,-10l8,-10v-10l4,-5l-2,-13l8,-6l7,2l11,-3l4,-12l7,-5l-1,-6l6,-6l-1,-4l-21,1l-2,-1l-2,-8l-8,-5v-5l-10,-4l-7,-7l-5,1l-3,-5l1,-12l-13,-7l-6,-8l-10,-3l4,-7l-7,-6h-4l-1,-15l1,-10l-6,1l2,-8l-5,-4l-3,3l-4,-3v-6l4,-5l4,-1l2,-6l4,-4l-8,-11v-15l-4,-1l-1,-15l-6,3l-6,-5l4,-6h96l2,-1h73l4,-1h55l4,-1l1,18v31l1,13h-3v28l3,2v38l1,1v54l-14,4v27l1,1v50l1,1v42h26l22,-1h22l17,-2h37l1,20v50l-8,17h-9l-8,5l-4,1h-3l2,17l4,4l-2,6h-2l-10,-3l-9,5l-9,-2l-8,5l-12,12l-3,17l-6,9h-6l-2,11l2,7h22v8h3l1,26h-3l-5,5l1,6h-20v1h-21l-1,1h-4l-1,2h-1l-1,1l-2,2l-5,2l-4,3l-3,2h-2l-7,1h-2l-2,-1h-3l-1,-1h-1l-5,1h-1l-1,1l-4,1l-1,1h-10l-1,1l-6,1h-4l-5,-3l-1,1h-2l-3,3l-3,5l-2,4h-1l-12,2l-12,2v-37l-3,1h-152l-1,-1h-49v-24l1,-2v-35h15l-2,-13l-5,-8v-5l4,-2v-6l5,-10l-4,-2l1,-7h4l2,-6l-3,-2l-6,-2l-2,-5l-1,-3l2,-2l-9,-13l1,-5l7,-5l1,-10l5,-3Z"/><path data-race-id="WA05" d="M712,213l14,-4v-54l-1,-1v-38l-3,-2v-28h3l-1,-13v-31l-1,-18h18l2,-1h40l5,-1h14l20,-1h7l11,-1h25l13,-1l10,-1h27l7,-1l13,-1l1,39l1,23v22l2,20v23l1,1v28l1,14l2,48l2,19v18l2,17l1,38l2,20v19l2,19v20l2,20v19l1,31l-1,14l4,2l9,15v9l4,5v7l-3,6h-1l1,4l5,6l1,8h-7l-8,1h-26l-3,1h-24l-1,1h-18l-11,1h-9l-26,1h-7l-5,1h-35l-4,1h-25l-1,-6l5,-5h3l-1,-26h-3v-8h-22l-2,-7l2,-11h6l6,-9l3,-17l12,-12l8,-5l9,2l9,-5l10,3h2l2,-6l-4,-4l-2,-17h3l4,-1l8,-5h9l8,-17v-50l-1,-20h-37l-17,2h-22l-22,1h-26v-42l-1,-1v-50l-1,-1Z"/><path data-race-id="WA06" d="M296,334v4l1,2l-1,10l-8,-2v-10h-7l4,-11l4,1ZM218,341l-2,-1l-1,-4l-6,2l8,9l-1,13l2,3l-15,1v12l5,4l-1,9v27l-26,-1l-31,-1h-17l-41,-2v-8l-3,-11h5v7l13,-11l14,-2l2,-5l-8,-3h-10l-2,-8l-4,-3l-11,1l2,15l-6,4l1,-7v-22l-2,-18l-3,-18l-6,-4l-1,-7l-4,-3l-2,-30l-6,-38l-6,-5l-1,-8l-7,-4l-2,-6l-5,-2l-3,-3l-4,-17l-3,-24l-3,-9l6,-7l1,-14l3,-8l-4,-1l-3,-8h11l22,14l7,6h3l7,5l5,-1l17,9l5,7l9,3l14,3h11l8,-2l9,5l9,-1l19,7h17l6,-4l10,-2l8,9v8l6,7l-3,-11l11,-3v6l7,4l4,7l1,-7l-6,-6v-6l5,-4l9,-1l1,5l-5,4l2,8l6,4l2,9l3,1v8l6,7l-1,4l-6,-1v7l-8,4l-1,10l-3,4l1,6l-5,2l1,-13l3,-5l-1,-8l-3,-2v8l-4,2l-2,-5l-1,12l-6,15l2,2l-10,6v1l-7,9l-2,9l-3,2l-8,16l-2,9h16l7,-5l11,-4l4,-7l-11,7l-14,5l-8,-3l4,-11l5,-5l3,-7l12,-13l1,-5l10,-2l11,-8v-8l7,-8l1,-5l12,-10v-10l7,1l6,24l-1,6l-8,-1l-4,8l-4,-1v10l2,3l-1,10l-5,-1l-3,-10l-4,-1l-1,7l3,6l7,-1l1,3l-7,2h8l7,-7l1,12l5,1l-4,8l-3,12l1,7l-4,9l3,6l-4,5l-1,-5l-11,-2l4,-6l-2,-4l6,-5v-5h-1l-1,4l-12,7l-3,14l4,2v6l-4,1l-2,8l-6,-18l5,-6l-2,-11l-3,-8v11l-2,5l-10,5l-3,14h-15l-2,-2ZM286,257l4,-2v11l2,10l-5,3l-2,-5l-4,2l2,-22ZM270,331l7,7l-1,4ZM269,186l1,15l-6,-4l-2,-8l3,-2l3,9ZM244,330v8l3,4l-4,9l-1,-6l-4,-6v-9Z"/><path data-race-id="WA07" d="M311,228l2,3l-2,2l1,10h6v4l1,9l4,3l-5,14h-7l1,11l-2,5l4,2l-3,7l-1,11h-1l-1,-1l-3,-8l-5,-22l4,-3l5,7l1,-8l-10,-6l-2,-5l8,-10l-3,-10v-5l8,-9ZM297,309l7,2l-11,9l3,-11l-4,4l-2,10l-4,-2l2,-7v-14l5,-10l4,8Z"/><path data-race-id="WA08" d="M280,393l4,-11h13v-13l3,3h13l1,-13l3,-3l4,-1v-7l4,-1l-4,-11h-7l-4,3v-1h-1h1h-1v-2l7,-10h-2l3,-12l2,5l6,-7l7,1l-1,-10l1,-4h1l2,-3l-2,-6h7l2,-6h-4v-11l2,-3l2,-4l7,2l1,8l19,8l7,5l3,8h5l3,7l12,4l7,5h7l8,-5l9,-10h2l7,-9l2,-1l3,-6l5,1l1,-5l6,-1l-2,-8l1,-8l7,-3l-1,-7l-5,-7l6,-9l-10,-2l-2,-7v-10l2,-8h3l-3,-10l14,-7h4l6,-5l-2,-7l8,-3l-3,-6l-9,-12v-5l-8,-4l4,-5l-3,-11l3,-1l-2,-7l2,-8l10,-1v-5l6,1l8,-5l5,8l11,-4l6,-1l-1,10l1,15h4l7,6l-4,7l10,3l6,8l13,7l-1,12l3,5l5,-1l7,7l10,4v5l8,5l2,8l2,1l21,-1l1,4l-6,6l1,6l-7,5l-4,12l-11,3l-7,-2l-8,6l2,13l-4,5v10l-8,10l-2,10l6,7l1,8l16,4l6,5l-1,13l3,7l7,1l1,17l-4,3v9l3,3l1,8l5,9v16l5,6l-6,14l-19,1h-47v-16h-15v-15h-47l-8,-14l-15,-14l-7,-3l-10,3l-3,-3l-3,15l-5,3l-1,10l-7,5l-1,5l9,13l-2,2h-37l-4,3l-4,7h-6l-9,-4h-14l-14,-1l-3,-2l-10,-2l-2,-10l-15,-4l-7,-4l-1,-7Z"/><path data-race-id="WA09" d="M310,309l1,-11l3,-7l-4,-2l2,-5l-1,-11h7l6,3l1,-9l9,-3v6l3,-3l3,3l-2,3v11h4l-2,6h-7l2,6l-2,3h-1l-1,4l1,10l-7,-1l-6,7l-2,-5l-3,12h2l-7,10v2h-2l-10,2l-1,-2l4,-8l-4,-2l3,-4l12,-5l-1,-10Z"/><path data-race-id="WA10" d="M203,376v-12l15,-1l-2,-3l1,-13l-8,-9l6,-2l1,4l2,1l-1,2l19,1l-3,5l-5,1l-3,8l-7,4l7,-2l11,-12l2,4l-5,4l5,14l1,-15l10,-4l4,1l1,6l7,6l4,-1l13,-14l3,-11h7v10l8,2l1,-10l10,-2h3h-1h1v1l4,-3h7l4,11l-4,1v7l-4,1l-3,3l-1,13h-13l-3,-3v13h-13l-4,11l8,4l1,7l-1,5l-8,1v-5l-5,4l-13,-7l-10,4h-7l-22,9l-5,-4l-11,-1v-21l1,-9ZM267,339l3,7l-8,-1ZM268,351l-4,7l-5,-4l5,-7Z"/></g>  <path class="districts-mesh" d="M318,243h3v-4l5,-1l-2,-13h3l4,-11l-2,-6h6l2,-4v-1l1,-3v-31l-9,4l-5,-12h9l-5,-10l-4,-5l4,-1l-2,-8l-6,-4l-4,2h-6l-1,-5l3,-6l4,-7l7,-2l3,1v-22l2,-5v-3l-10,-5v-5l-12,-7l-3,-5l-1,-3h-10l2,7M289,404l-1,-7l-8,-4l4,-11h13v-13l3,3h13l1,-13l3,-3l4,-1v-7l4,-1l-4,-11h-7l-4,3v-1h-1h1h-1v-2l7,-10h-2l3,-12l2,5l6,-7l7,1l-1,-10l1,-4h1l2,-3l-2,-6h7l2,-6h-4v-11l2,-3l-3,-3l-3,3v-6l-9,3l-1,9l-6,-3l5,-14l-4,-3l-1,-9v-4h-6l-1,-10l2,-2l-2,-3M92,412l41,2h17l31,1l26,1v-6l11,1l5,4l22,-9h7l10,-4l13,7l5,-4v5l8,-1l1,-5l7,4l15,4l2,10l10,2l3,2l14,1h14l9,4h6l4,-7l4,-3h37l1,3l2,5l6,2l3,2l-2,6h-4l-1,7l4,2l-5,10v6l-4,2v5l5,8l2,13h-15v35l-1,2v24h49l1,1h152l3,-1v37M723,24l1,18v31l1,13h-3v28l3,2v38l1,1v54l-14,4v27l1,1v50l1,1v42h26l22,-1h22l17,-2h37l1,20v50l-8,17h-9l-8,5l-4,1h-3l2,17l4,4l-2,6h-2l-10,-3l-9,5l-9,-2l-8,5l-12,12l-3,17l-6,9h-6l-2,11l2,7h22v8h3l1,26h-3l-5,5l1,6M296,338l1,2l-1,10l-8,-2v-10h-7M218,341l-2,-1l-1,-4l-6,2l8,9l-1,13l2,3l-15,1v12l5,4l-1,9v21M318,273h-7l1,11l-2,5l4,2l-3,7l-1,11M489,27l-4,6l6,5l6,-3l1,15l4,1v15l8,11l-4,4l-2,6l-4,1l-4,5v6l4,3l3,-3l5,4l-2,8l-11,4l-5,-8l-8,5l-6,-1v5l-10,1l-2,8l2,7l-3,1l3,11l-4,5l8,4v5l9,12l3,6l-8,3l2,7l-6,5h-4l-14,7l3,10h-3l-2,8v10l2,7l10,2l-6,9l5,7l1,7l-7,3l-1,8l2,8l-6,1l-1,5l-5,-1l-3,6l-2,1l-7,9h-2l-9,10l-8,5h-7l-7,-5l-12,-4l-3,-7h-5l-3,-8l-7,-5l-19,-8l-1,-8l-7,-2l-2,4M309,338h-2l-10,2M414,421l2,-2l-9,-13l1,-5l7,-5l1,-10l5,-3l3,-15l3,3l10,-3l7,3l15,14l8,14h47v15h15v16h47l19,-1l6,-14l-5,-6v-16l-5,-9l-1,-8l-3,-3v-9l4,-3l-1,-17l-7,-1l-3,-7l1,-13l-6,-5l-16,-4l-1,-8l-6,-7l2,-10l8,-10v-10l4,-5l-2,-13l8,-6l7,2l11,-3l4,-12l7,-5l-1,-6l6,-6l-1,-4l-21,1l-2,-1l-2,-8l-8,-5v-5l-10,-4l-7,-7l-5,1l-3,-5l1,-12l-13,-7l-6,-8l-10,-3l4,-7l-7,-6h-4l-1,-15l1,-10l-6,1"/></svg>