<svg version="1.1" xmlns="http://www.w3.org/2000/svg" width="968" height="1000" viewBox="0 0 968 1000">
  <path d="M367 170
v 2
l 1 1
v 1
l 1 1
l 1 1
v 1
h 2
v -1
v 1
h 1
v -1
h 3
v -2
h 1
v -1
h 1
l 1 1
v -1
v 2
h 1
v -1
v 1
h 1
v 3
l -1 1
v 1
h 6
v 2
h 1
v 1
h 1
v -1
h 3
l 1 -1
v 2
h 2
v 1
h 1
v 2
h 1
v 2
h 1
v 4
h 2
h -1
h 1
v 4
h 1
l 1 1
v 2
h 1
v 4
h 1
v 1
h 1
v 2
h 1
v 3
h 1
v 1
l 1 1
v 1
l 1 1
v 1
h -1
v 1
h 1
h -1
v 1
l 25 7
l 3 1
h 1
l 18 5
l 1 1
l 6 1
l 4 1
l 6 2
l 2 1
l 16 3
l 32 10
l 4 1
l 7 2
l 5 2
h 1
l 9 2
l 17 10
h 1
l 1 1
h 1
v 1
h 1
l 1 1
h 1
v 1
l 9 4
l 2 2
v 1
l 3 1
h 1
v 1
l 3 -1
l -1 -1
h 1
l 1 1
l 1 -1
v 3
h 1
l 2 -2
v 1
v -1
h 5
v 1
l 1 1
l 1 -1
v 1
l 1 -1
h 1
l 1 1
h 1
v 1
l 1 1
v 2
h 1
l -1 1
h 3
l 1 1
h 1
v -1
h 3
v -3
h 1
h -1
l 1 -1
v -1
l 1 -1
h 1
v 2
h 1
l 1 -1
h 5
v -1
h 1
v -1
h 2
l 1 1
v 2
h 1
v 1
l 1 1
h -1
l 2 1
h 2
v -2
h 2
l 1 2
h 2
v 1
h 2
v 2
h 1
l 1 -1
h 3
v -2
h 2
v 1
h 1
l 1 1
h 1
v 1
h 1
l 1 2
h 1
v 2
h 1
v -1
h 1
l 3 2
h 1
v -1
h 3
l 1 -1
v -1
l 1 2
l 1 1
v 1
h 2
v -1
l 1 1
h 2
l 1 -1
l 1 -1
v 1
h 2
v 1
l 2 1
l 1 1
h 1
l 1 1
h 1
l 1 1
h 4
l 1 1
l -1 1
l -1 1
v 2
l 1 3
h 1
l 2 1
l 1 1
l -1 1
v 1
h -1
v -1
l -1 1
v 3
l -4 4
h -1
l 1 4
h 1
l 1 1
h 1
v 2
h 1
v 1
l 2 1
h 5
v -2
h 3
l 1 -1
h 3
l 1 1
v 3
h -1
l 3 2
l 1 1
h 8
v 1
h 2
l 3 1
h 1
v 3
l 1 1
v 1
h 2
v 1
h 3
l 1 1
h 1
v 2
h -1
h 1
v 1
l 1 1
h 2
v 1
l 1 1
v 1
l -1 1
h -2
v 1
h -2
l -1 1
h -1
v 3
h 1
l 1 1
l 1 1
v 2
h 2
v 1
l 2 1
l 1 1
h -1
l 1 1
v 3
l -1 1
l -1 3
v 1
h -5
v -1
h -1
v 1
l -1 1
h 1
v 1
h 1
l 1 1
l 2 7
l 1 1
l 1 1
l -1 1
v 3
h -1
v 2
l -1 1
v 1
l -3 2
v 1
h -2
v 1
h -1
v 5
l 1 1
v 2
h -1
v 3
l -1 1
h -1
v 2
h 1
l -1 1
l -1 1
l -1 1
v 1
h 2
l 1 -1
l -1 -2
l 1 1
h 1
v 3
h 1
v 1
h 2
v -1
l 1 -1
h 7
v 1
l 1 -1
l 1 1
l 1 -1
h 1
v -1
h 2
v -2
h 1
l 1 -2
l 2 -1
v -1
h 1
v -1
h 2
v 1
h 1
v 1
l 2 1
v 1
h 1
v 1
l 1 3
v 3
l -1 1
h -1
v 2
l -1 1
v 1
h -1
v 1
l -2 3
v 4
h -1
v 3
h -1
v 3
h -1
v 1
l -1 1
h 1
v 1
h -1
v 3
h -1
l -1 2
v 1
l 1 2
v 2
l 1 1
h 1
v 1
h 1
l 1 1
l 1 2
h 2
v 1
l 1 2
l 1 1
l 2 3
l 1 1
h 4
l 4 2
l 22 3
l 4 -26
l 13 -7
l 17 -20
l 11 -20
l 42 -2
h 4
l 38 20
l 35 19
l -24 22
l -15 18
l -13 21
l -8 16
l -3 7
l -9 25
l -4 15
l -11 45
l -3 15
l -3 12
l -10 47
v 4
l -1 6
l -4 16
l -3 23
l -4 40
v 25
l 2 27
l 4 22
v 7
l 11 67
l 9 64
l -115 4
h -68
l -5 1
h -46
l -13 1
h -34
l -11 -1
h -61
l -34 -1
h -39
l -8 -1
h -77
l -13 -1
h -4
l 1 -1
v -2
h -1
v -4
l -2 -1
l -1 -4
l -1 -2
h -1
l -2 -3
v -2
l -1 -1
v -1
l -1 -2
v -2
l -1 -1
l -3 -1
h -1
l -1 -1
h -2
l -1 -1
h -3
v -1
h -2
l -3 -1
h -3
l -1 -1
h -2
l -1 -1
h -2
l -1 -1
h -1
l -1 -1
h -6
l -1 -1
l -1 -1
h -1
l -2 -1
v -1
l -1 -1
l -1 -1
l -1 -1
l -1 -1
h -2
l -1 -3
h -1
v -1
h -1
l -1 -1
l -1 -1
l -1 -2
h 1
v -1
h -1
v -1
l -1 -2
v -3
l -1 -1
v -6
h -2
v -4
l -1 -4
v -2
l -1 -1
v -1
l -2 -1
l -2 -1
l -1 -4
v -9
l -1 -1
v -3
l -1 -1
l -1 -4
v -3
l -1 -2
v -4
l -1 -2
l 1 -1
v -6
l 1 -7
h 2
l 2 -4
l 3 -5
l 1 -2
l 1 -2
l 1 -1
l 2 -1
l 1 -2
l 2 -1
l 1 -1
v -1
l 1 -1
v -3
h -2
v -2
l -2 -3
l -3 -4
v -1
l -3 -3
l -6 -3
l -2 -1
l -2 -1
l -1 -2
l -1 -1
h 1
l 1 -1
v -10
l -1 -2
l -2 -2
l -1 -1
l 1 -3
l 2 -4
l -1 -2
l -3 -9
l 1 -6
v -3
l -1 -1
l -1 -1
l -2 -2
l -1 -1
v -4
l 1 -1
v -3
l -1 -4
l 2 -11
l 2 -9
v -1
l -1 -1
l -1 -1
v -2
l -1 -1
v -1
l -1 -1
l -1 -6
v -1
l -1 -1
l -1 -1
v -1
h -1
l -2 -5
l -1 -1
l -1 -1
h -1
v -1
l -1 -2
l -1 -1
l -1 -1
v -3
h -1
l -1 -2
v -1
h -1
l -1 -1
h -1
l -1 -1
v -1
l -1 -1
l -1 -2
h -1
v -2
l -1 -1
v -1
h -2
l -1 -1
v -1
h -2
l -1 1
l -2 -1
v -1
h -1
l -1 -1
h -4
l -2 -1
h -1
l -2 -1
h -2
l -2 -1
l -1 -3
h -2
v -1
h -1
v -1
h -2
l -1 -2
h -1
v -1
l -1 -1
l -1 -2
v -1
l -2 -1
h -2
l -1 -1
l -1 -5
l -1 -1
h -1
l -5 -2
h -2
l -1 -1
v -1
h -2
l -1 -1
l -3 -4
v -1
h -2
l -1 -1
l -1 -1
l -1 -1
l -1 -1
v -3
l -1 -1
v -6
h -1
v -4
h -1
v -1
l -1 -1
h -1
v -1
h -1
l -2 -10
h -1
v -1
l -1 -1
l -1 -1
v -1
l -1 -1
v -1
l -4 -1
l -1 -1
l -1 -1
h -3
v -1
h -1
l -1 -2
l -1 -1
l -3 -1
h -1
v -1
h -2
v -1
h -3
v -1
h -1
v -1
h -2
v -1
h -8
v -1
l -2 -1
h -1
l -2 -1
l -1 -2
l -1 -1
l -4 -3
l -1 -1
l -3 -10
l -1 -2
v -1
l -1 -1
l -1 -1
l -2 -1
l -4 -1
h -1
l -1 1
l -2 -1
h -2
l -2 -1
h -6
v -1
h -5
v -1
h -1
l -1 -1
l -2 1
l -1 1
l -1 -1
v -1
h 1
v -1
l -2 -3
v -1
h -1
v -1
h -1
l -1 1
h -1
l -1 -2
h -1
v -1
h -3
v -7
h -2
v -1
h -1
l -3 -2
v -1
l -1 -1
l -1 -1
v -1
l -2 -1
v -1
h -1
v -1
h -1
v -1
l -1 -1
h -1
v -1
h -1
v -1
h -2
v -1
l -3 -1
v -1
h -1
l -2 -1
v -2
h -1
v -1
l 2 -8
l 1 -1
l 2 -4
v -2
l 1 -1
l -1 -6
l 1 -1
v -7
h 1
l 2 -6
v -3
l -1 -1
v -2
h -1
l -1 -4
l 1 -1
h -1
v -3
l 1 -1
l 1 -1
v -1
l -1 -1
v -1
l -1 -1
l -1 -1
h -1
l -1 -6
v -1
l 6 -5
l 3 -2
v -1
h -1
v -4
l -1 -1
v -1
l 1 -5
h -1
v -1
l -1 -1
l 1 -5
l 1 -2
v -11
l 1 -4
v -1
l 3 -2
l 4 -5
v -2
l 1 -3
v -1
l 2 -1
h 1
l -1 -1
l 1 -1
v -1
l 1 -2
h 2
v -2
h 1
l -1 -1
v -3
l 1 -2
l -1 -2
v -1
h -1
v -1
h -1
v -1
h -1
v -1
h -1
v -1
h -1
v -3
h -1
v -2
h -1
l -1 -1
l -1 -1
v -6
l -1 -1
h -1
v -1
l -1 -1
h -1
l -1 -2
l -1 -1
h -3
l -1 1
h -5
l -1 -1
h -3
l -1 -1
h -1
l -1 -5
v -2
h 1
v -1
l -1 -3
v -4
h 1
v -3
h 1
v -5
h 1
v -2
l 1 -2
v -1
l 2 -2
l 1 -1
l 2 -1
l 2 -2
h 1
l 1 -1
l 4 -7
v -1
l 2 -3
v -1
l -1 -2
l 2 -3
l 1 -1
l 3 -6
l 1 -1
v -1
l 1 -1
h 1
l 1 -1
h 1
v -1
l 2 -1
v -1
h 1
v -1
h 1
l 4 -1
l 6 -4
h 1
l 2 -1
h 2
l 6 -7
l 1 1
h 1
l 1 1
h 2
l 1 1
l 1 -1
l 1 -1
h -1
l 1 -2
h 1
v -3
h 1
v -1
l 7 -1
h 1
v 1
h 2
l 1 1
l 1 -1
h 1
v -2
h 1
v -4
l 1 -1
v -2
l 3 -2
h 3
v -3
l 1 -1
v -45
l 1 -19
v -5
l 1 -8
v -4
l 1 -29
v -4
h 1
v 2
l 6 2
h 4
l 1 -1
l 2 -4
v -3
h -1
l -1 -1
v -1
h 1
l 2 -2
l 2 -1
h 1
l 2 -2
v -1
l 9 -3
l 6 9
h 3
l 61 -35
l 55 -34
l 19 -12
l 1 -1
l 49 -31
h 37
l 51 2
h 6
l -6 14
l -54 120
l -4 9
Z"/>
<g class="districts">
<path data-race-id="WI01" d="M555 936
l -1 -6
l 5 -2
l 5 -1
l 2 -1
l 4 -10
h 4
l 2 -11
h 20
v 2
l 4 3
h 8
v -5
h 23
l -1 -2
v -33
h 34
l 4 5
v 1
l 1 1
l -2 5
l 6 -2
l 3 -2
l 6 -1
v 11
h 2
l 2 -2
h 1
h -1
h 1
l 6 -4
l 5 -1
v 1
h 10
l 8 4
h 10
v 8
h 5
l 3 8
v 1
v -1
v 1
h 19
l 51 -2
h 26
l 14 -1
l 1 5
l 3 31
l 5 33
l -49 2
h -21
l -9 1
l -35 1
h -68
l -5 1
h -46
l -13 1
h -34
l -7 -1
l 4 -1
l 2 -7
l -3 -2
l -3 -17
l -13 1
l 3 -7
h -1
h 1
h -1
Z"/>
<path data-race-id="WI02" d="M358 835
l 17 -1
v -34
h 18
v -35
h -18
v -17
h 76
l 3 8
l 7 1
l -3 5
l 20 2
v 36
l -12 3
l -6 9
v 5
h 52
v 2
h 50
v 86
h 14
l -2 11
h -4
l -4 10
l -2 1
l -5 1
l -5 2
l 1 6
v 5
h 1
h -1
h 1
l -3 7
l 13 -1
l 3 17
l 3 2
l -2 7
l -4 1
h -65
l -34 -1
h -39
l -8 -1
h -63
l 1 -21
v -40
Z"/>
<path data-race-id="WI03" d="M31 512
l 1 -1
l 2 -4
v -2
l 1 -1
l -1 -6
l 6 1
h 23
l 1 1
h 25
l 11 2
l 23 1
v -23
l 1 -2
v -27
h -2
v -19
v 1
h 25
l 2 1
h 30
l 12 1
v 16
l 1 1
l -1 18
h 18
l -1 18
h 16
l 2 -4
l 6 4
l 2 1
v 1
h 1
l 5 -6
l 2 4
h 8
v -12
l 12 1
v -6
h 9
v 13
l -4 5
l 26 1
v 54
l -1 14
h -17
l -1 4
v 30
h 17
l 3 -3
l 9 1
l 2 -5
l 3 8
h 34
v 87
l 4 -1
l 5 -7
l 7 8
l 18 1
h 18
v 16
l 5 3
l 6 -8
l 11 -1
l 1 5
h 6
l 4 -3
l -1 -13
l -6 -4
l 1 -3
l -3 -7
l -1 -7
l 3 -6
h 4
l 1 -8
l 7 2
v -5
l 3 -2
l -1 -8
l 1 -4
h -26
v -28
l 1 -7
l 16 1
v -43
l 1 -9
h 71
l 2 1
h 30
l 1 3
v 83
h -53
v 119
h -103
v 17
h 18
v 35
h -18
v 34
l -17 1
v 116
l -1 21
h -14
l -13 -1
h -4
l 1 -1
v -2
h -1
v -4
l -2 -1
l -1 -4
l -1 -2
h -1
l -2 -3
v -2
l -1 -1
v -1
l -1 -2
v -2
l -1 -1
l -3 -1
h -1
l -1 -1
h -2
l -1 -1
h -3
v -1
h -2
l -3 -1
h -3
l -1 -1
h -2
l -1 -1
h -2
l -1 -1
h -1
l -1 -1
h -6
l -1 -1
l -1 -1
h -1
l -2 -1
v -1
l -1 -1
l -1 -1
l -1 -1
l -1 -1
h -2
l -1 -3
h -1
v -1
h -1
l -1 -1
l -1 -1
l -1 -2
h 1
v -1
h -1
v -1
l -1 -2
v -3
l -1 -1
v -6
h -2
v -4
l -1 -4
v -2
l -1 -1
v -1
l -2 -1
l -2 -1
l -1 -4
v -9
l -1 -1
v -3
l -1 -1
l -1 -4
v -3
l -1 -2
v -4
l -1 -2
l 1 -1
v -6
l 1 -7
h 2
l 2 -4
l 3 -5
l 1 -2
l 1 -2
l 1 -1
l 2 -1
l 1 -2
l 2 -1
l 1 -1
v -1
l 1 -1
v -3
h -2
v -2
l -2 -3
l -3 -4
v -1
l -3 -3
l -6 -3
l -2 -1
l -2 -1
l -1 -2
l -1 -1
h 1
l 1 -1
v -10
l -1 -2
l -2 -2
l -1 -1
l 1 -3
l 2 -4
l -1 -2
l -3 -9
l 1 -6
v -3
l -1 -1
l -1 -1
l -2 -2
l -1 -1
v -4
l 1 -1
v -3
l -1 -4
l 2 -11
l 2 -9
v -1
l -1 -1
l -1 -1
v -2
l -1 -1
v -1
l -1 -1
l -1 -6
v -1
l -1 -1
l -1 -1
v -1
h -1
l -2 -5
l -1 -1
l -1 -1
h -1
v -1
l -1 -2
l -1 -1
l -1 -1
v -3
h -1
l -1 -2
v -1
h -1
l -1 -1
h -1
l -1 -1
v -1
l -1 -1
l -1 -2
h -1
v -2
l -1 -1
v -1
h -2
l -1 -1
v -1
h -2
l -1 1
l -2 -1
v -1
h -1
l -1 -1
h -4
l -2 -1
h -1
l -2 -1
h -2
l -2 -1
l -1 -3
h -2
v -1
h -1
v -1
h -2
l -1 -2
h -1
v -1
l -1 -1
l -1 -2
v -1
l -2 -1
h -2
l -1 -1
l -1 -5
l -1 -1
h -1
l -5 -2
h -2
l -1 -1
v -1
h -2
l -1 -1
l -3 -4
v -1
h -2
l -1 -1
l -1 -1
l -1 -1
l -1 -1
v -3
l -1 -1
v -6
h -1
v -4
h -1
v -1
l -1 -1
h -1
v -1
h -1
l -2 -10
h -1
v -1
l -1 -1
l -1 -1
v -1
l -1 -1
v -1
l -4 -1
l -1 -1
l -1 -1
h -3
v -1
h -1
l -1 -2
l -1 -1
l -3 -1
h -1
v -1
h -2
v -1
h -3
v -1
h -1
v -1
h -2
v -1
h -8
v -1
l -2 -1
h -1
l -2 -1
l -1 -2
l -1 -1
l -4 -3
l -1 -1
l -3 -10
l -1 -2
v -1
l -1 -1
l -1 -1
l -2 -1
l -4 -1
h -1
l -1 1
l -2 -1
h -2
l -2 -1
h -6
v -1
h -5
v -1
h -1
l -1 -1
l -2 1
l -1 1
l -1 -1
v -1
h 1
v -1
l -2 -3
v -1
h -1
v -1
h -1
l -1 1
h -1
l -1 -2
h -1
v -1
h -3
v -7
h -2
v -1
h -1
l -3 -2
v -1
l -1 -1
l -1 -1
v -1
l -2 -1
v -1
h -1
v -1
h -1
v -1
l -1 -1
h -1
v -1
h -1
v -1
h -2
v -1
l -3 -1
v -1
h -1
l -2 -1
v -2
h -1
v -1
l 2 -8
Z"/>
<path data-race-id="WI04" d="M698 848
v -13
h 16
l 2 6
l 3 3
v -9
h 3
l 18 -1
h 32
l 8 -1
h 36
l 18 -1
v 6
l 10 62
l -14 1
h -26
l -51 2
h -19
v -1
v 1
v -1
l -3 -8
h -5
v -8
h -10
l -2 -2
l 1 -6
h -2
v -3
v 1
v -1
v 1
v -1
v 1
l -2 1
l 2 1
h -10
v -3
l 9 -2
l -1 -5
h -9
l 8 -3
l -1 -6
l -6 -1
v -4
l -5 -2
v -3
Z"/>
<path data-race-id="WI05" d="M562 836
v -27
l 1 -8
l -1 -17
h 18
l 3 -4
l 2 7
l -1 1
l 2 -1
h 3
h -1
h 1
l 1 -4
h 21
l 2 2
h 4
l 1 -2
h 24
v -11
l -5 3
v -7
l -5 -2
h 52
l 17 -1
v 35
h -3
v 52
l 5 2
v 4
l 6 1
l 1 6
l -8 3
h 9
l 1 5
l -9 2
v 3
h 10
l -2 -1
l 2 -1
v -1
v 1
v -1
v 1
v -1
v 3
h 2
l -1 6
l 2 2
l -8 -4
h -10
v -1
l -5 1
l -6 4
h -1
h 1
h -1
l -2 2
h -2
v -11
l -6 1
l -3 2
l -6 2
l 2 -5
l -1 -1
v -1
l -4 -5
h -34
v 33
l 1 2
h -23
v 5
h -8
l -4 -3
v -2
h -34
Z"/>
<path data-race-id="WI06" d="M451 748
h 27
v -119
h 117
v 5
l -4 -1
l -2 1
l -1 2
v 1
l 1 2
v -1
v 1
l 2 2
v 1
v -1
h 1
l 1 1
v 1
v -1
v 1
l 2 2
l 1 19
l 17 -1
v -17
l 17 -1
l -1 -17
h 18
v 41
l 1 19
h 34
v 9
h 17
l -1 -17
v -37
l -1 -16
h 22
v -17
h 17
l 10 -1
h 28
l 17 -1
l 50 -1
l 12 -1
v 3
l -3 12
l -7 31
l -3 16
v 4
l -1 6
l -4 16
l -3 23
l -4 40
v 25
l 2 27
l 4 22
v 1
l -18 1
h -36
l -8 1
h -32
l -18 1
h -3
v 9
l -3 -3
l -2 -6
h -16
v -35
h 3
v -35
l -17 1
h -52
l 5 2
v 7
l 5 -3
v 11
h -24
l -1 2
h -4
l -2 -2
h -21
l -1 4
h -1
h 1
h -3
l -2 1
l 1 -1
l -2 -7
l -3 4
h -18
l 1 17
l -1 8
v 10
h -50
v -2
h -52
v -5
l 6 -9
l 12 -3
v -36
l -20 -2
l 3 -5
l -7 -1
l -3 -8
Z"/>
<path data-race-id="WI07" d="M24 343
h 1
v -3
h 1
v -5
h 1
v -2
l 1 -2
v -1
l 2 -2
l 1 -1
l 2 -1
l 2 -2
h 1
l 1 -1
l 4 -7
v -1
l 2 -3
v -1
l -1 -2
l 2 -3
l 1 -1
l 3 -6
l 1 -1
v -1
l 1 -1
h 1
l 1 -1
h 1
v -1
l 2 -1
v -1
h 1
v -1
h 1
l 4 -1
l 6 -4
h 1
l 2 -1
h 2
l 6 -7
l 1 1
h 1
l 1 1
h 2
l 1 1
l 1 -1
l 1 -1
h -1
l 1 -2
h 1
v -3
h 1
v -1
l 7 -1
h 1
v 1
h 2
l 1 1
l 1 -1
h 1
v -2
h 1
v -4
l 1 -1
v -2
l 3 -2
h 3
v -3
l 1 -1
v -45
l 1 -19
v -5
l 1 -8
v -4
l 1 -29
v -4
h 1
v 2
l 6 2
h 4
l 1 -1
l 2 -4
v -3
h -1
l -1 -1
v -1
h 1
l 2 -2
l 2 -1
h 1
l 2 -2
v -1
l 8 -3
l 8 10
l 30 -17
l 35 -19
l 33 -20
l 22 -16
l 17 -10
l 1 -1
l 49 -31
h 37
l 51 2
h 6
l -6 14
l -54 120
l -4 9
h 1
v 2
l 1 1
v 1
l 1 1
l 1 1
v 1
h 2
v -1
v 1
h 1
v -1
h 3
v -2
h 1
v -1
h 1
l 1 1
v -1
v 2
h 1
v -1
v 1
h 1
v 3
l -1 1
v 1
h 6
v 2
h 1
v 1
h 1
v -1
h 3
l 1 -1
v 2
h 2
v 1
h 1
v 2
h 1
v 2
h 1
v 4
h 2
h -1
h 1
v 4
h 1
l 1 1
v 2
h 1
v 4
h 1
v 1
h 1
v 2
h 1
v 3
h 1
v 1
l 1 1
v 1
l 1 1
v 1
h -1
v 1
h 1
h -1
v 1
l 25 7
l 3 1
h 1
l 18 5
l 1 1
l 6 1
l 4 1
l 6 2
l 2 1
l 16 3
l 32 10
l 4 1
l 7 2
l 5 2
h 1
l 9 2
l 17 10
h 1
l 1 1
h 1
v 1
h 1
l 1 1
h 1
v 1
l 9 4
l 2 2
v 1
l 3 1
h 1
v 1
l 3 -1
l -1 -1
h 1
l 1 1
l 1 -1
v 3
h 1
l 2 -2
v 1
v -1
h 5
v 1
l 1 1
l 1 -1
v 1
l 1 -1
h 1
l 1 1
h 1
v 1
l 1 1
v 2
h 1
l -1 1
h 3
l 1 1
h 1
v -1
h 3
v -3
h 1
h -1
l 1 -1
v -1
l 1 -1
h 1
v 2
h 1
l 1 -1
h 5
v -1
h 1
v -1
h 2
l 1 1
v 2
h 1
v 1
l 1 1
h -1
l 2 1
h 2
v -2
h 2
l 1 2
h 2
v 1
h 2
v 2
h 1
l 1 -1
h 3
v -2
h 2
v 1
h 1
l 1 1
h 1
v 1
h 1
l 1 2
h 1
v 2
h 1
v -1
h 1
l 3 2
h 1
v -1
h 3
l 1 -1
v -1
l 1 2
l 1 1
v 1
h 2
v -1
l 1 1
h 2
l 1 -1
l 1 -1
v 1
h 2
v 1
l 2 1
l 1 1
h 1
l 1 1
h 1
l 1 1
h 4
l 1 1
l -1 1
l -1 1
v 2
l 1 3
h 1
l 2 1
l 1 1
l -1 1
v 1
h -1
v -1
l -1 1
v 3
l -4 4
h -1
l 1 4
h 1
l 1 1
h 1
v 2
h 1
v 1
l 2 1
h 3
v 13
l -13 -1
h -38
v 29
l 1 2
v 38
h -35
v 34
h 6
v 17
h -47
v 18
h -34
v 69
h -30
l -2 -1
h -71
l -1 9
v 43
l -16 -1
l -1 7
v 28
h 26
l -1 4
l 1 8
l -3 2
v 5
l -7 -2
l -1 8
h -4
l -3 6
l 1 7
l 3 7
l -1 3
l 6 4
l 1 13
l -4 3
h -6
l -1 -5
l -11 1
l -6 8
l -5 -3
v -16
h -18
l -18 -1
l -7 -8
l -5 7
l -4 1
v -87
h -34
l -3 -8
l -2 5
l -9 -1
l -3 3
h -17
v -30
l 1 -4
h 17
l 1 -14
v -54
l -26 -1
l 4 -5
v -13
h -9
v 6
l -12 -1
v 12
h -8
l -2 -4
l -5 6
h -1
v -1
l -2 -1
l -6 -4
l -2 4
h -16
l 1 -18
h -18
l 1 -18
l -1 -1
v -16
l -12 -1
h -30
l -2 -1
h -25
v -1
v 19
h 2
v 27
l -1 2
v 23
l -23 -1
l -11 -2
h -25
l -1 -1
h -23
l -6 -1
l 1 -1
v -7
h 1
l 2 -6
v -3
l -1 -1
v -2
h -1
l -1 -4
l 1 -1
h -1
v -3
l 1 -1
l 1 -1
v -1
l -1 -1
v -1
l -1 -1
l -1 -1
h -1
l -1 -6
v -1
l 6 -5
l 3 -2
v -1
h -1
v -4
l -1 -1
v -1
l 1 -5
h -1
v -1
l -1 -1
l 1 -5
l 1 -2
v -11
l 1 -4
v -1
l 3 -2
l 4 -5
v -2
l 1 -3
v -1
l 2 -1
h 1
l -1 -1
l 1 -1
v -1
l 1 -2
h 2
v -2
h 1
l -1 -1
v -3
l 1 -2
l -1 -2
v -1
h -1
v -1
h -1
v -1
h -1
v -1
h -1
v -1
h -1
v -3
h -1
v -2
h -1
l -1 -1
l -1 -1
v -6
l -1 -1
h -1
v -1
l -1 -1
h -1
l -1 -2
l -1 -1
h -3
l -1 1
h -5
l -1 -1
h -3
l -1 -1
h -1
l -1 -5
v -2
h 1
v -1
l -1 -3
v -2
Z"/>
<path data-race-id="WI08" d="M530 543
v -69
h 34
v -18
h 47
v -17
h -6
v -34
h 35
v -38
l -1 -2
v -29
h 38
l 13 1
v -13
h 2
v -2
h 3
l 1 -1
h 3
l 1 1
v 3
h -1
l 3 2
l 1 1
h 8
v 1
h 2
l 3 1
h 1
v 3
l 1 1
v 1
h 2
v 1
h 3
l 1 1
h 1
v 2
h -1
h 1
v 1
l 1 1
h 2
v 1
l 1 1
v 1
l -1 1
h -2
v 1
h -2
l -1 1
h -1
v 3
h 1
l 1 1
l 1 1
v 2
h 2
v 1
l 2 1
l 1 1
h -1
l 1 1
v 3
l -1 1
l -1 3
v 1
h -5
v -1
h -1
v 1
l -1 1
h 1
v 1
h 1
l 1 1
l 2 7
l 1 1
l 1 1
l -1 1
v 3
h -1
v 2
l -1 1
v 1
l -3 2
v 1
h -2
v 1
h -1
v 5
l 1 1
v 2
h -1
v 3
l -1 1
h -1
v 2
h 1
l -1 1
l -1 1
l -1 1
v 1
h 2
l 1 -1
l -1 -2
l 1 1
h 1
v 3
h 1
v 1
h 2
v -1
l 1 -1
h 7
v 1
l 1 -1
l 1 1
l 1 -1
h 1
v -1
h 2
v -2
h 1
l 1 -2
l 2 -1
v -1
h 1
v -1
h 2
v 1
h 1
v 1
l 2 1
v 1
h 1
v 1
l 1 3
v 3
l -1 1
h -1
v 2
l -1 1
v 1
h -1
v 1
l -2 3
v 4
h -1
v 3
h -1
v 3
h -1
v 1
l -1 1
h 1
v 1
h -1
v 3
h -1
l -1 2
v 1
l 1 2
v 2
l 1 1
h 1
v 1
h 1
l 1 1
l 1 2
h 2
v 1
l 1 2
l 1 1
l 2 3
l 1 1
h 4
l 3 2
l 22 3
h 1
l 4 -25
l 13 -8
l 17 -20
l 11 -20
l 42 -2
h 4
l 38 20
l 35 18
l -24 23
l -14 15
l -1 3
l -13 21
l -7 11
l -1 5
l -3 7
l -9 25
l -4 15
l -11 45
l -3 12
l -12 1
l -50 1
l -17 1
h -28
l -10 1
h -17
v 17
h -22
l 1 16
v 37
l 1 17
h -17
v -9
h -34
l -1 -19
v -41
h -18
l 1 17
l -17 1
v 17
l -17 1
l -1 -19
l -2 -2
v -1
v 1
v -1
l -1 -1
h -1
v 1
v -1
l -2 -2
v -1
v 1
l -1 -2
v -1
l 1 -2
l 2 -1
l 4 1
v -5
h -64
v -83
Z"/>
</g>
  <path class="districts-mesh" d="M716 886
h 10
v 8
h 5
l 3 8
v 1
v -1
M713 876
l -2 1
l 2 1
h -10
v -3
l 9 -2
l -1 -5
h -9
l 8 -3
l -1 -6
l -6 -1
v -4
l -5 -2
v -17
h 16
l 2 6
l 3 3
v -9
h 3
l 18 -1
h 32
l 8 -1
h 36
l 18 -1
M734 903
h 19
l 51 -2
h 26
l 14 -1
M713 875
v 1
v -1
M357 972
l 1 -21
v -116
l 17 -1
v -34
h 18
v -35
h -18
v -17
h 76
l 3 8
l 7 1
l -3 5
l 20 2
v 36
l -12 3
l -6 9
v 5
h 52
v 2
h 50
v -10
l 1 -8
l -1 -17
h 18
l 3 -4
l 2 7
l -1 1
l 2 -1
h 3
h -1
h 1
l 1 -4
h 21
l 2 2
h 4
l 1 -2
h 24
v -11
l -5 3
v -7
l -5 -2
h 52
l 17 -1
v 35
h -3
v 35
M566 974
l 4 -1
l 2 -7
l -3 -2
l -3 -17
l -13 1
l 3 -7
h -1
h 1
h -1
v -5
l -1 -6
l 5 -2
l 5 -1
l 2 -1
l 4 -10
h 4
l 2 -11
h 20
v 2
l 4 3
h 8
v -5
h 23
l -1 -2
v -33
h 34
l 4 5
v 1
l 1 1
l -2 5
l 6 -2
l 3 -2
l 6 -1
v 11
h 2
l 2 -2
h 1
l 6 -4
l 5 -1
v 1
h 10
l 8 4
l -2 -2
l 1 -6
h -2
v -3
v 1
M531 629
h -53
v 119
h -27
M593 642
v 1
l 2 2
l 1 19
l 17 -1
v -17
l 17 -1
l -1 -17
h 18
v 41
l 1 19
h 34
v 9
h 17
l -1 -17
v -37
l -1 -16
h 22
v -17
h 17
l 10 -1
h 28
l 17 -1
l 50 -1
l 12 -1
M690 324
v 13
l -13 -1
h -38
v 29
l 1 2
v 38
h -35
v 34
h 6
v 17
h -47
v 18
h -34
v 69
M562 819
v 86
h 14
M34 498
l 6 1
h 23
l 1 1
h 25
l 11 2
l 23 1
v -23
l 1 -2
v -27
h -2
v -19
v 1
h 25
l 2 1
h 30
l 12 1
v 16
l 1 1
l -1 18
h 18
l -1 18
h 16
l 2 -4
l 6 4
l 2 1
v 1
h 1
l 5 -6
l 2 4
h 8
v -12
l 12 1
v -6
h 9
v 13
l -4 5
l 26 1
v 54
l -1 14
h -17
l -1 4
v 30
h 17
l 3 -3
l 9 1
l 2 -5
l 3 8
h 34
v 87
l 4 -1
l 5 -7
l 7 8
l 18 1
h 18
v 16
l 5 3
l 6 -8
l 11 -1
l 1 5
h 6
l 4 -3
l -1 -13
l -6 -4
l 1 -3
l -3 -7
l -1 -7
l 3 -6
h 4
l 1 -8
l 7 2
v -5
l 3 -2
l -1 -8
l 1 -4
h -26
v -28
l 1 -7
l 16 1
v -43
l 1 -9
h 71
l 2 1
h 30
l 1 3
v 83
h 64
v 5
l -4 -1
l -2 1
l -1 2
v 1
l 1 2
v -1
v 1
l 2 2
v 1
v -1
h 1
l 1 1
v 1"/>
</svg>