<svg version="1.1" xmlns="http://www.w3.org/2000/svg" width="929" height="1000" viewBox="0 0 929 1000"><path data-race-id="WI01" d="M582,935l-1,-7h4l1,-2l7,-2l6,-9l5,-14l22,1v1l1,5l11,-2v-4l2,-1h21v-36l9,-1l19,1l8,-1l3,6l1,1v1l-1,2h-1l9,1l3,-3h3v12l7,-3l6,-3l6,-2v2h12l6,3h10v8h5v1h1l-1,1l1,1l2,5h1v2l2,4l9,8l-4,7l1,7l-4,11l-1,4l1,24l1,7v1h-51l-6,1h-20l-17,1h-88l7,-4v-6h-4l-1,-16l-3,-3l-7,7l-5,-5l3,-7v-1h-1v-2Z"/><path data-race-id="WI02" d="M375,828l18,-1v-26l1,-9h17v-36h-17v-18h78l3,7l8,1l-2,7h11l9,2l-1,17l1,20l-7,4h-6l-7,10l1,4h28l2,-1h24v3h38l16,-1v90h14l-5,14l-6,9l-7,2l-1,2h-4l1,7v4h1v1l-3,7l5,5l7,-7l3,3l1,16h4v6l-7,4h-94l-10,-1h-115l1,-8v-64Z"/><path data-race-id="WI03" d="M32,491v-1l1,-5v-1l1,-1h1v-1l-1,-5l21,1h26l32,3h14l1,-8v-32l1,-14l-3,-1v-18l8,1h28v1h36v18l1,1v18l18,1v17l16,1l2,-5h5l6,5l1,-5l5,4h9l-1,-11v-2l13,2v-5h9l1,5l-5,13h27v72l-18,-1l-1,36l18,1l3,-4l9,1l3,-5l3,8h36v90l4,-1h3v-6l6,6l8,2l15,1h17v17l9,1l4,-6h8l4,4h7l5,-3l-2,-15l-6,-4l-3,-10l2,-13l6,-4v-6l7,4l3,-6v-15l-11,1l-16,-1l1,-36h17v-53h41l4,-1h29l2,1h33v90h-55l1,5v121h-107v18h17v36h-17l-1,9v26l-18,1v137l-1,8l-14,-1h-18l1,-1v-2l-1,-1v-4l-2,-1l-1,-4l-2,-2l-2,-3v-4h-1l-1,-3v-1l-1,-1l-1,-1l-3,-1h-2l-1,-1h-2l-3,-1h-1l-2,-1h-3l-1,-1h-3l-2,-1h-1l-1,-1h-1l-1,-1h-2l-2,-1h-3l-3,-1l-1,-1l-3,-2v-1l-2,-2h-1l-1,-1h-1l-2,-1v-3h-3v-2h-1v-1h-1v-1h1v-1h-1v-1l-1,-2v-2h-1v-8l-1,-1l-1,-3v-1h1l-2,-4v-3l-1,-1h-1v-1l-2,-1l-2,-1v-6l-1,-2v-1l1,-2v-1l-1,-1v-1l-1,-3v-2l-1,-4l-1,-2v-1l-1,-3v-3l-1,-2l1,-1v-7l1,-7l4,-3l3,-7l1,-2l2,-2l1,-1l1,-1l1,-2l2,-2l1,-1h1l1,-2v-1h-1l-1,-1l-1,-3l-1,-2l-1,-1l-2,-4l-1,-1l-2,-2v-1h-1l-4,-1l-2,-1l-2,-2h-2l-2,-2v-3l1,-1v-1l1,-2v-6l-1,-1l-1,-1l-2,-7v-1l2,-4l-1,-2l-1,-5l-2,-3v-1l1,-7v-3l-1,-1h-1v-1l-2,-2v-1l-1,-3l1,-2v-3h-1v-5l2,-10l2,-11l-1,-1v-1l-1,-1v-2l-1,-1v-2l-2,-6v-1h-1v-1h-1v-1l-1,-1h-1v-1l-1,-5h-2v-1h-1l-1,-1l-1,-2v-1h-1l-1,-2v-3l-1,-1l-1,-1l-1,-1v-1h-1l-1,-1l-1,-1h-1v-2l-1,-2h-1l-1,-2l-1,-1h-1l-1,-1h-1l-1,-1h-4v-1h-1v-1h-2l-2,-1h-5v-1h-3l-1,-1h-1v-1l-1,-2h-1v-1h-1l-1,-1l-1,-1l-1,-1h-2v-1l-1,-1h-1v-1l-1,-2v-1l-1,-1h-3l-1,-1h-1v-4l-1,-1v-1h-1v-1h-1l-5,-2h-1v-1l-1,-1h-2l-1,-1l-1,-1h-1l-2,-3l-1,-1h-1l-1,-1l-1,-1h-1v-1l-2,-4l-1,-1v-8h-1v-3l-1,-1h-1v-1h-1l-1,-1h-1l2,-7l-3,-4v-1h-1l-1,-1l-1,-1v-1l-2,-1l-5,-3h-1v-1h-2l-1,-1h-1v-2h-1l-3,-2h-2l-1,-1h-1v-1h-3v-1l-1,-1h-1l-1,-1h-4l-1,-1l-3,-1h-1l-2,-1h-3l-2,-2v-2l-5,-3v-1l-3,-4v-6h-1l-1,-2v-1l-1,-1v-1h-2l-1,-1l-3,-1h-6l-1,-1h-2v-1h-1l-1,1h-3v-1h-3v-1h-1v1h-2v-1h-1v-1h-4v1h-1l-2,-1v-2l-1,-3v-1l-1,-1h-3v-1h-1l-1,-1h-2v-4l-1,-1v-2l-2,-1h-1l-3,-2v-2h-1l-4,-5l-1,-1l-1,-1l-1,-1l-1,-1h-1v-1h-2v-1l-3,-2l-1,-1l-2,-1l-1,-1h-1v-1l4,-8Z"/><path data-race-id="WI04" d="M732,841l1,-13l15,-1l1,2l1,5l5,4l-2,-11h6l1,5l-2,10l5,11l-4,5l1,9l6,7v15h-5v-8h-10l-1,-9l-2,1v-1l-1,-2l1,2v1l-3,1v-1v1l-8,-1l8,-8v-3l-9,-2l8,-1v-6l-8,1l1,-3l-1,-1l2,-4h-6v-4Z"/><path data-race-id="WI05" d="M590,829v-18l-1,-9l1,-1h-1l1,-26h18l4,-5v8h4l2,-3l22,-1l4,2l1,6l2,-6l1,-2h25v-12l-4,3l-2,-7l-5,-2h54l19,-1v34l-3,2v36l1,1l-1,13v5h6l-2,4l1,1l-1,3l8,-1v6l-8,1l9,2v3l-8,8l8,1v-1v1l3,-1v-1l-1,-2l1,2v1l2,-1l1,9l-6,-3h-12v-2l-6,2l-6,3l-7,3v-12h-3l-3,3l-9,-1h1l1,-2v-1l-1,-1l-3,-6l-8,1l-19,-1l-9,1v36h-21l-2,1v4l-11,2l-1,-5v-1l-22,-1h-14Z"/><path data-race-id="WI06" d="M472,738h29v-121l-1,-5h123v6l-4,-1l-3,1l-1,1v1l1,2l2,1l1,2v1v-1l2,1l3,3v19l18,-1l2,-4l-4,-7l2,-6l18,-1v-18h17v33l1,2v28h36v10l19,-1l-1,-2v-31l-1,-2v-37l-1,-1h24l-1,-18l19,-1h27l5,-1v7l6,11l1,7l-4,10l-9,5l-9,9v9l-4,7l-2,12l-3,7l-1,8l1,17l4,8v18l-12,24v5l-1,14l-12,22v13l-3,5l-1,11l4,8h-6l2,11l-5,-4l-1,-5l-1,-2l-15,1l-1,-1v-36l3,-2v-34l-19,1h-54l5,2l2,7l4,-3v12h-25l-1,2l-2,6l-1,-6l-4,-2l-22,1l-2,3h-4v-8l-4,5h-18l-1,26h1l-1,1l1,9l-16,1h-38v-3h-24l-2,1h-28l-1,-4l7,-10h6l7,-4l-1,-20l1,-17l-9,-2h-11l2,-7l-8,-1l-3,-7Z"/><path data-race-id="WI07" d="M23,315h1v-3l1,-1v-3l1,-1v-7l2,-2h1l1,-1h1l2,-1l1,-1h1l1,-1l4,-5v-3h1v-2l2,-4v-1l1,-3v-1h1l2,-4l1,-3v-2h1l1,-2l2,-1l1,-1h1l2,-1v-2l5,-2l2,-1l6,-1l3,-2h1l6,-7h1l1,1l2,1h2l1,1v-1l1,-1h-1l1,-2h1v-2l2,-2l3,-3l4,1h1l2,1h3v-1l1,-1v-2l1,-1v-2l1,-1v-1l3,-2h2l1,-1v-19l1,-17v-11l1,-2v-27l1,-8v-4l1,-31v-4v2l3,2h9v-2l5,-5v-5l12,-7l10,13l13,1l4,-2h14l21,-7l8,-5h7l26,-7l7,-7l7,-1l5,-7l5,-1l1,6l3,-3h9l2,-6l5,1l3,-4l8,-7l10,1l4,-6l7,1v5h6l6,9l-6,6v4l-14,20l4,10l-4,6h-3l-3,10l-4,2l3,5l22,-9l10,-8l22,18l5,-2l9,6h5v1l1,1v1l1,1l1,2v1h1l1,-1h1v-1h4v-2l1,1v-2h1v1h1v1h1v1h1v2h-1l1,1h-1v1h7h-1v1h1v2l1,-1v1h4l1,-1v2l1,-1l1,1v3l1,1v1l1,1h1v3l2,1v-1v4h2v2h1v6h1v2h1v1h1v3h1v1l1,1l1,1v2h-1v1l1,1h-1v1l27,7h3v1h1l18,5l2,1l5,1h1l4,1v1l7,2h1l12,2l11,4l24,6l4,2l4,1l12,3h1l1,1l9,1l18,11l1,1h2v1h1l1,1l2,1l3,2l5,2l3,1v1l1,1l2,1h1v1h1h-1v1h1l1,-1h2v-1l-1,-1h1v1l1,-1v3l1,1l2,-2l1,1l1,-1h1v-1h1l1,1h1v2h2v-1h2l1,1h1v1l1,1v1l1,1l-1,1h4v1h2v-1h3l-1,-1l1,-1v-2h1h-1v-1h1v-1h2v3h1v-2h1l2,-1l2,1l1,-1h1l1,-1h1l2,1v2h1v2l2,1h2v-2h1l1,1v1h3v1h1l1,1v2h1v-1h1l1,-1h2l1,-1v-1h1l1,1l1,1l1,1h1l3,2v3h1v-2v1h1l3,1h2v-1h2v-1h2v1l1,1h10l2,2v-1v1h2v1h1v1h2v1l1,1l1,-1h1v1l1,1l-1,2v2l1,3h1l3,1l1,1l-1,1v1h-1l-1,1l-1,1h-1l-2,2l-1,2v1h-1l-1,1l1,3h1l1,1h1v1l1,2l1,1h1l2,1h2v14l-2,-1h-51l1,17v54h-36v36h6v19h-48l-1,1v18h-35v72h-33l-2,-1h-29l-4,1h-41v53h-17l-1,36l16,1l11,-1v15l-3,6l-7,-4v6l-6,4l-2,13l3,10l6,4l2,15l-5,3h-7l-4,-4h-8l-4,6l-9,-1v-17h-17l-15,-1l-8,-2l-6,-6v6h-3l-4,1v-90h-36l-3,-8l-3,5l-9,-1l-3,4l-18,-1l1,-36l18,1v-72h-27l5,-13l-1,-5h-9v5l-13,-2v2l1,11h-9l-5,-4l-1,5l-6,-5h-5l-2,5l-16,-1v-17l-18,-1v-18l-1,-1v-18h-36v-1h-28l-8,-1v18l3,1l-1,14v32l-1,8h-14l-32,-3h-26l-21,-1l1,-2v-7l3,-6v-4h-1l-1,-2v-1l-1,-4l1,-5v-1l1,-1l-2,-3h-1v-1h-1v-1l-1,-6l3,-3l3,-2l3,-3v-1h-1v-5h-1v-2l1,-4v-1h-2v-1l1,-6l1,-2v-15h1l3,-4h1l2,-2l1,-2v-4l1,-3l2,-1l2,-3l1,-2h2v-13h-4v-2h-1v-1h-1v-2l-1,-1v-1h-1v-3h-1v-1h-1v-7h-1v-1h-1l-1,-1h-1l-1,-2l-1,-1h-3l-1,1h-5l-2,-1h-4v-1h-1l-1,-6v-2l1,-1v-1l-1,-2v-3ZM386,25l-1,12l-10,7l2,-13l4,-6ZM367,55l-16,6v-8l17,-5ZM355,67l5,6l-13,5l-3,4l5,3l-9,1l-6,6h-4l-1,-7l7,-2l5,-5l8,-4ZM340,50l3,9l-8,-3l1,-7ZM311,43l-1,5h-5l-2,-4Z"/><path data-race-id="WI08" d="M555,522v-72h35v-18l1,-1h48v-19h-6v-36h36v-54l-1,-17h51l2,1v-14h1l1,-1l1,-1h3v-1h2l2,-1v1l1,1v1l1,2h-2l4,2v1h13v1h1l1,1v1l1,2v1l1,1h1v1h2l1,1h2v1h1v1h-1v1h1v1l2,1v1h1v2l-1,1h-2v1h-3v3l1,1h1v1l1,2v1h1v1l2,1l1,1v5h-1v2l-1,2h-1v1l-1,-1h-4v1l1,1l1,1h1v1l2,8v1h1v2h-1v3h-1v3l-3,2l-1,1h-1v1h-1v1h-1v1h-1v3l1,1v1l1,1v1l-1,1v3h-1l-1,1l1,1l-1,1l-1,1l-1,1v1h3v-2h-1h1v2l1,1h1l1,1l-1,1l2,-1h1v-2l1,1h1v-1h1v1l1,-1h3l1,1l1,-1h1v1h1l1,-1v-1h2v-1l1,-1l2,-2l1,-1l1,-1h3v1h1l2,1v2l2,4v2l-1,1h-1v3l-1,2l-1,1l-2,4h-1v2l-1,1v2h-1h1l-1,1v4l-1,1v5h-1l-2,3h1v4l1,1h1l1,1l1,1l1,2h2l1,1l1,2v1l1,1l1,4h5l1,1h1v1h3l-3,8v12l-5,5l-16,2l-8,3l-3,6l2,7l-5,11l-5,3l-5,14l-7,7l-1,10l-2,16l-5,6l6,6l11,1l5,-10l5,-8l14,-5l4,-7l2,-3v-7l8,-11l6,-12l10,-4l11,-1l5,-7l9,11v-11l-5,-4l6,-13l9,-18l3,2l4,-17h2v-10l10,4l-1,-5l8,-3l-1,-5l3,-10l2,1l2,-7l13,-1l1,15l-9,-2v30l-9,3l-2,8l-9,14l3,9l-6,4l1,7l-9,7l-5,7l-4,18l-5,10l-2,8l-6,5l-6,15l-5,36l-4,8l-5,1h-27l-19,1l1,18h-24l1,1v37l1,2v31l1,2l-19,1v-10h-36v-28l-1,-2v-33h-17v18l-18,1l-2,6l4,7l-2,4l-18,1v-19l-3,-3l-2,-1v1v-1l-1,-2l-2,-1l-1,-2v-1l1,-1l3,-1l4,1v-6h-68v-87ZM887,366l10,-3l4,3l-5,13l-7,-4l-2,4l-3,-8l2,-10ZM829,410v6l-5,-2v-4Z"/>  <path class="mesh" d="M593,974l7,-4v-6h-4l-1,-16l-3,-3l-7,7l-5,-5l3,-7v-1h-1v-4l-1,-7h4l1,-2l7,-2l6,-9l5,-14l22,1v1l1,5l11,-2v-4l2,-1h21v-36l9,-1l19,1l8,-1l3,6l1,1v1l-1,2h-1l9,1l3,-3h3v12l7,-3l6,-3l6,-2v2h12l6,3l-1,-9l-2,1v-1l-1,-2l1,2v1l-3,1v-1v1l-8,-1l8,-8v-3l-9,-2l8,-1v-6l-8,1l1,-3l-1,-1l2,-4h-6v-5l1,-13l15,-1l1,2l1,5l5,4l-2,-11h6M751,881h10v8h5M374,973l1,-8v-137l18,-1v-26l1,-9h17v-36h-17v-18h78l3,7l8,1l-2,7h11l9,2l-1,17l1,20l-7,4h-6l-7,10l1,4h28l2,-1h24v3h38l16,-1l-1,-9l1,-1h-1l1,-26h18l4,-5v8h4l2,-3l22,-1l4,2l1,6l2,-6l1,-2h25v-12l-4,3l-2,-7l-5,-2h54l19,-1v34l-3,2v36l1,1M34,477l21,1h26l32,3h14l1,-8v-32l1,-14l-3,-1v-18l8,1h28v1h36v18l1,1v18l18,1v17l16,1l2,-5h5l6,5l1,-5l5,4h9l-1,-11v-2l13,2v-5h9l1,5l-5,13h27v72l-18,-1l-1,36l18,1l3,-4l9,1l3,-5l3,8h36v90l4,-1h3v-6l6,6l8,2l15,1h17v17l9,1l4,-6h8l4,4h7l5,-3l-2,-15l-6,-4l-3,-10l2,-13l6,-4v-6l7,4l3,-6v-15l-11,1l-16,-1l1,-36h17v-53h41l4,-1h29l2,1h33v90h68v6l-4,-1l-3,1l-1,1v1l1,2l2,1l1,2v1v-1l2,1l3,3v19l18,-1l2,-4l-4,-7l2,-6l18,-1v-18h17v33l1,2v28h36v10l19,-1l-1,-2v-31l-1,-2v-37l-1,-1h24l-1,-18l19,-1h27l5,-1M555,612h-55l1,5v121h-29M721,292v14l-2,-1h-51l1,17v54h-36v36h6v19h-48l-1,1v18h-35v72M590,811v90h14"/><g class="cities"><circle r="7" cx="757" cy="859"/><text x="757" y="859">Milwaukee</text><circle r="7" cx="531" cy="856"/><text x="531" y="856">Madison</text><circle r="7" cx="733" cy="553"/><text x="733" y="553">Green Bay</text></g></svg>