<svg version="1.1" xmlns="http://www.w3.org/2000/svg" width="968" height="1000" viewBox="0 0 968 1000">  <path d="M367,170v2l1,1v1l1,1l1,1v1h2v-1v1h1v-1h3v-2h1v-1h1l1,1v-1v2h1v-1v1h1v3l-1,1v1h6v2h1v1h1v-1h3l1,-1v2h2v1h1v2h1v2h1v4h2h-1h1v4h1l1,1v2h1v4h1v1h1v2h1v3h1v1l1,1v1l1,1v1h-1v1h1h-1v1l25,7l3,1h1l18,5l1,1l6,1l4,1l6,2l2,1l16,3l32,10l4,1l7,2l5,2h1l9,2l17,10h1l1,1h1v1h1l1,1h1v1l9,4l2,2v1l3,1h1v1l3,-1l-1,-1h1l1,1l1,-1v3h1l2,-2v1v-1h5v1l1,1l1,-1v1l1,-1h1l1,1h1v1l1,1v2h1l-1,1h3l1,1h1v-1h3v-3h1h-1l1,-1v-1l1,-1h1v2h1l1,-1h5v-1h1v-1h2l1,1v2h1v1l1,1h-1l2,1h2v-2h2l1,2h2v1h2v2h1l1,-1h3v-2h2v1h1l1,1h1v1h1l1,2h1v2h1v-1h1l3,2h1v-1h3l1,-1v-1l1,2l1,1v1h2v-1l1,1h2l1,-1l1,-1v1h2v1l2,1l1,1h1l1,1h1l1,1h4l1,1l-1,1l-1,1v2l1,3h1l2,1l1,1l-1,1v1h-1v-1l-1,1v3l-4,4h-1l1,4h1l1,1h1v2h1v1l2,1h5v-2h3l1,-1h3l1,1v3h-1l3,2l1,1h8v1h2l3,1h1v3l1,1v1h2v1h3l1,1h1v2h-1h1v1l1,1h2v1l1,1v1l-1,1h-2v1h-2l-1,1h-1v3h1l1,1l1,1v2h2v1l2,1l1,1h-1l1,1v3l-1,1l-1,3v1h-5v-1h-1v1l-1,1h1v1h1l1,1l2,7l1,1l1,1l-1,1v3h-1v2l-1,1v1l-3,2v1h-2v1h-1v5l1,1v2h-1v3l-1,1h-1v2h1l-1,1l-1,1l-1,1v1h2l1,-1l-1,-2l1,1h1v3h1v1h2v-1l1,-1h7v1l1,-1l1,1l1,-1h1v-1h2v-2h1l1,-2l2,-1v-1h1v-1h2v1h1v1l2,1v1h1v1l1,3v3l-1,1h-1v2l-1,1v1h-1v1l-2,3v4h-1v3h-1v3h-1v1l-1,1h1v1h-1v3h-1l-1,2v1l1,2v2l1,1h1v1h1l1,1l1,2h2v1l1,2l1,1l2,3l1,1h4l4,2l22,3l4,-26l13,-7l17,-20l11,-20l42,-2h4l38,20l35,19l-24,22l-15,18l-13,21l-8,16l-3,7l-9,25l-4,15l-11,45l-3,15l-3,12l-10,47v4l-1,6l-4,16l-3,23l-4,40v25l2,27l4,22v7l11,67l9,64l-115,4h-68l-5,1h-46l-13,1h-34l-11,-1h-61l-34,-1h-39l-8,-1h-77l-13,-1h-4l1,-1v-2h-1v-4l-2,-1l-1,-4l-1,-2h-1l-2,-3v-2l-1,-1v-1l-1,-2v-2l-1,-1l-3,-1h-1l-1,-1h-2l-1,-1h-3v-1h-2l-3,-1h-3l-1,-1h-2l-1,-1h-2l-1,-1h-1l-1,-1h-6l-1,-1l-1,-1h-1l-2,-1v-1l-1,-1l-1,-1l-1,-1l-1,-1h-2l-1,-3h-1v-1h-1l-1,-1l-1,-1l-1,-2h1v-1h-1v-1l-1,-2v-3l-1,-1v-6h-2v-4l-1,-4v-2l-1,-1v-1l-2,-1l-2,-1l-1,-4v-9l-1,-1v-3l-1,-1l-1,-4v-3l-1,-2v-4l-1,-2l1,-1v-6l1,-7h2l2,-4l3,-5l1,-2l1,-2l1,-1l2,-1l1,-2l2,-1l1,-1v-1l1,-1v-3h-2v-2l-2,-3l-3,-4v-1l-3,-3l-6,-3l-2,-1l-2,-1l-1,-2l-1,-1h1l1,-1v-10l-1,-2l-2,-2l-1,-1l1,-3l2,-4l-1,-2l-3,-9l1,-6v-3l-1,-1l-1,-1l-2,-2l-1,-1v-4l1,-1v-3l-1,-4l2,-11l2,-9v-1l-1,-1l-1,-1v-2l-1,-1v-1l-1,-1l-1,-6v-1l-1,-1l-1,-1v-1h-1l-2,-5l-1,-1l-1,-1h-1v-1l-1,-2l-1,-1l-1,-1v-3h-1l-1,-2v-1h-1l-1,-1h-1l-1,-1v-1l-1,-1l-1,-2h-1v-2l-1,-1v-1h-2l-1,-1v-1h-2l-1,1l-2,-1v-1h-1l-1,-1h-4l-2,-1h-1l-2,-1h-2l-2,-1l-1,-3h-2v-1h-1v-1h-2l-1,-2h-1v-1l-1,-1l-1,-2v-1l-2,-1h-2l-1,-1l-1,-5l-1,-1h-1l-5,-2h-2l-1,-1v-1h-2l-1,-1l-3,-4v-1h-2l-1,-1l-1,-1l-1,-1l-1,-1v-3l-1,-1v-6h-1v-4h-1v-1l-1,-1h-1v-1h-1l-2,-10h-1v-1l-1,-1l-1,-1v-1l-1,-1v-1l-4,-1l-1,-1l-1,-1h-3v-1h-1l-1,-2l-1,-1l-3,-1h-1v-1h-2v-1h-3v-1h-1v-1h-2v-1h-8v-1l-2,-1h-1l-2,-1l-1,-2l-1,-1l-4,-3l-1,-1l-3,-10l-1,-2v-1l-1,-1l-1,-1l-2,-1l-4,-1h-1l-1,1l-2,-1h-2l-2,-1h-6v-1h-5v-1h-1l-1,-1l-2,1l-1,1l-1,-1v-1h1v-1l-2,-3v-1h-1v-1h-1l-1,1h-1l-1,-2h-1v-1h-3v-7h-2v-1h-1l-3,-2v-1l-1,-1l-1,-1v-1l-2,-1v-1h-1v-1h-1v-1l-1,-1h-1v-1h-1v-1h-2v-1l-3,-1v-1h-1l-2,-1v-2h-1v-1l2,-8l1,-1l2,-4v-2l1,-1l-1,-6l1,-1v-7h1l2,-6v-3l-1,-1v-2h-1l-1,-4l1,-1h-1v-3l1,-1l1,-1v-1l-1,-1v-1l-1,-1l-1,-1h-1l-1,-6v-1l6,-5l3,-2v-1h-1v-4l-1,-1v-1l1,-5h-1v-1l-1,-1l1,-5l1,-2v-11l1,-4v-1l3,-2l4,-5v-2l1,-3v-1l2,-1h1l-1,-1l1,-1v-1l1,-2h2v-2h1l-1,-1v-3l1,-2l-1,-2v-1h-1v-1h-1v-1h-1v-1h-1v-1h-1v-3h-1v-2h-1l-1,-1l-1,-1v-6l-1,-1h-1v-1l-1,-1h-1l-1,-2l-1,-1h-3l-1,1h-5l-1,-1h-3l-1,-1h-1l-1,-5v-2h1v-1l-1,-3v-4h1v-3h1v-5h1v-2l1,-2v-1l2,-2l1,-1l2,-1l2,-2h1l1,-1l4,-7v-1l2,-3v-1l-1,-2l2,-3l1,-1l3,-6l1,-1v-1l1,-1h1l1,-1h1v-1l2,-1v-1h1v-1h1l4,-1l6,-4h1l2,-1h2l6,-7l1,1h1l1,1h2l1,1l1,-1l1,-1h-1l1,-2h1v-3h1v-1l7,-1h1v1h2l1,1l1,-1h1v-2h1v-4l1,-1v-2l3,-2h3v-3l1,-1v-45l1,-19v-5l1,-8v-4l1,-29v-4h1v2l6,2h4l1,-1l2,-4v-3h-1l-1,-1v-1h1l2,-2l2,-1h1l2,-2v-1l9,-3l6,9h3l61,-35l55,-34l19,-12l1,-1l49,-31h37l51,2h6l-6,14l-54,120l-4,9Z"/><g class="districts"><path data-race-id="WI01" d="M555,936l-1,-6l5,-2l5,-1l2,-1l4,-10h4l2,-11h20v2l4,3h8v-5h23l-1,-2v-33h34l4,5v1l1,1l-2,5l6,-2l3,-2l6,-1v11h2l2,-2h1h-1h1l6,-4l5,-1v1h10l8,4h10v8h5l3,8v1v-1v1h19l51,-2h26l14,-1l1,5l3,31l5,33l-49,2h-21l-9,1l-35,1h-68l-5,1h-46l-13,1h-34l-7,-1l4,-1l2,-7l-3,-2l-3,-17l-13,1l3,-7h-1h1h-1Z"/><path data-race-id="WI02" d="M358,835l17,-1v-34h18v-35h-18v-17h76l3,8l7,1l-3,5l20,2v36l-12,3l-6,9v5h52v2h50v86h14l-2,11h-4l-4,10l-2,1l-5,1l-5,2l1,6v5h1h-1h1l-3,7l13,-1l3,17l3,2l-2,7l-4,1h-65l-34,-1h-39l-8,-1h-63l1,-21v-40Z"/><path data-race-id="WI03" d="M31,512l1,-1l2,-4v-2l1,-1l-1,-6l6,1h23l1,1h25l11,2l23,1v-23l1,-2v-27h-2v-19v1h25l2,1h30l12,1v16l1,1l-1,18h18l-1,18h16l2,-4l6,4l2,1v1h1l5,-6l2,4h8v-12l12,1v-6h9v13l-4,5l26,1v54l-1,14h-17l-1,4v30h17l3,-3l9,1l2,-5l3,8h34v87l4,-1l5,-7l7,8l18,1h18v16l5,3l6,-8l11,-1l1,5h6l4,-3l-1,-13l-6,-4l1,-3l-3,-7l-1,-7l3,-6h4l1,-8l7,2v-5l3,-2l-1,-8l1,-4h-26v-28l1,-7l16,1v-43l1,-9h71l2,1h30l1,3v83h-53v119h-103v17h18v35h-18v34l-17,1v116l-1,21h-14l-13,-1h-4l1,-1v-2h-1v-4l-2,-1l-1,-4l-1,-2h-1l-2,-3v-2l-1,-1v-1l-1,-2v-2l-1,-1l-3,-1h-1l-1,-1h-2l-1,-1h-3v-1h-2l-3,-1h-3l-1,-1h-2l-1,-1h-2l-1,-1h-1l-1,-1h-6l-1,-1l-1,-1h-1l-2,-1v-1l-1,-1l-1,-1l-1,-1l-1,-1h-2l-1,-3h-1v-1h-1l-1,-1l-1,-1l-1,-2h1v-1h-1v-1l-1,-2v-3l-1,-1v-6h-2v-4l-1,-4v-2l-1,-1v-1l-2,-1l-2,-1l-1,-4v-9l-1,-1v-3l-1,-1l-1,-4v-3l-1,-2v-4l-1,-2l1,-1v-6l1,-7h2l2,-4l3,-5l1,-2l1,-2l1,-1l2,-1l1,-2l2,-1l1,-1v-1l1,-1v-3h-2v-2l-2,-3l-3,-4v-1l-3,-3l-6,-3l-2,-1l-2,-1l-1,-2l-1,-1h1l1,-1v-10l-1,-2l-2,-2l-1,-1l1,-3l2,-4l-1,-2l-3,-9l1,-6v-3l-1,-1l-1,-1l-2,-2l-1,-1v-4l1,-1v-3l-1,-4l2,-11l2,-9v-1l-1,-1l-1,-1v-2l-1,-1v-1l-1,-1l-1,-6v-1l-1,-1l-1,-1v-1h-1l-2,-5l-1,-1l-1,-1h-1v-1l-1,-2l-1,-1l-1,-1v-3h-1l-1,-2v-1h-1l-1,-1h-1l-1,-1v-1l-1,-1l-1,-2h-1v-2l-1,-1v-1h-2l-1,-1v-1h-2l-1,1l-2,-1v-1h-1l-1,-1h-4l-2,-1h-1l-2,-1h-2l-2,-1l-1,-3h-2v-1h-1v-1h-2l-1,-2h-1v-1l-1,-1l-1,-2v-1l-2,-1h-2l-1,-1l-1,-5l-1,-1h-1l-5,-2h-2l-1,-1v-1h-2l-1,-1l-3,-4v-1h-2l-1,-1l-1,-1l-1,-1l-1,-1v-3l-1,-1v-6h-1v-4h-1v-1l-1,-1h-1v-1h-1l-2,-10h-1v-1l-1,-1l-1,-1v-1l-1,-1v-1l-4,-1l-1,-1l-1,-1h-3v-1h-1l-1,-2l-1,-1l-3,-1h-1v-1h-2v-1h-3v-1h-1v-1h-2v-1h-8v-1l-2,-1h-1l-2,-1l-1,-2l-1,-1l-4,-3l-1,-1l-3,-10l-1,-2v-1l-1,-1l-1,-1l-2,-1l-4,-1h-1l-1,1l-2,-1h-2l-2,-1h-6v-1h-5v-1h-1l-1,-1l-2,1l-1,1l-1,-1v-1h1v-1l-2,-3v-1h-1v-1h-1l-1,1h-1l-1,-2h-1v-1h-3v-7h-2v-1h-1l-3,-2v-1l-1,-1l-1,-1v-1l-2,-1v-1h-1v-1h-1v-1l-1,-1h-1v-1h-1v-1h-2v-1l-3,-1v-1h-1l-2,-1v-2h-1v-1l2,-8Z"/><path data-race-id="WI04" d="M698,848v-13h16l2,6l3,3v-9h3l18,-1h32l8,-1h36l18,-1v6l10,62l-14,1h-26l-51,2h-19v-1v1v-1l-3,-8h-5v-8h-10l-2,-2l1,-6h-2v-3v1v-1v1v-1v1l-2,1l2,1h-10v-3l9,-2l-1,-5h-9l8,-3l-1,-6l-6,-1v-4l-5,-2v-3Z"/><path data-race-id="WI05" d="M562,836v-27l1,-8l-1,-17h18l3,-4l2,7l-1,1l2,-1h3h-1h1l1,-4h21l2,2h4l1,-2h24v-11l-5,3v-7l-5,-2h52l17,-1v35h-3v52l5,2v4l6,1l1,6l-8,3h9l1,5l-9,2v3h10l-2,-1l2,-1v-1v1v-1v1v-1v3h2l-1,6l2,2l-8,-4h-10v-1l-5,1l-6,4h-1h1h-1l-2,2h-2v-11l-6,1l-3,2l-6,2l2,-5l-1,-1v-1l-4,-5h-34v33l1,2h-23v5h-8l-4,-3v-2h-34Z"/><path data-race-id="WI06" d="M451,748h27v-119h117v5l-4,-1l-2,1l-1,2v1l1,2v-1v1l2,2v1v-1h1l1,1v1v-1v1l2,2l1,19l17,-1v-17l17,-1l-1,-17h18v41l1,19h34v9h17l-1,-17v-37l-1,-16h22v-17h17l10,-1h28l17,-1l50,-1l12,-1v3l-3,12l-7,31l-3,16v4l-1,6l-4,16l-3,23l-4,40v25l2,27l4,22v1l-18,1h-36l-8,1h-32l-18,1h-3v9l-3,-3l-2,-6h-16v-35h3v-35l-17,1h-52l5,2v7l5,-3v11h-24l-1,2h-4l-2,-2h-21l-1,4h-1h1h-3l-2,1l1,-1l-2,-7l-3,4h-18l1,17l-1,8v10h-50v-2h-52v-5l6,-9l12,-3v-36l-20,-2l3,-5l-7,-1l-3,-8Z"/><path data-race-id="WI07" d="M24,343h1v-3h1v-5h1v-2l1,-2v-1l2,-2l1,-1l2,-1l2,-2h1l1,-1l4,-7v-1l2,-3v-1l-1,-2l2,-3l1,-1l3,-6l1,-1v-1l1,-1h1l1,-1h1v-1l2,-1v-1h1v-1h1l4,-1l6,-4h1l2,-1h2l6,-7l1,1h1l1,1h2l1,1l1,-1l1,-1h-1l1,-2h1v-3h1v-1l7,-1h1v1h2l1,1l1,-1h1v-2h1v-4l1,-1v-2l3,-2h3v-3l1,-1v-45l1,-19v-5l1,-8v-4l1,-29v-4h1v2l6,2h4l1,-1l2,-4v-3h-1l-1,-1v-1h1l2,-2l2,-1h1l2,-2v-1l8,-3l8,10l30,-17l35,-19l33,-20l22,-16l17,-10l1,-1l49,-31h37l51,2h6l-6,14l-54,120l-4,9h1v2l1,1v1l1,1l1,1v1h2v-1v1h1v-1h3v-2h1v-1h1l1,1v-1v2h1v-1v1h1v3l-1,1v1h6v2h1v1h1v-1h3l1,-1v2h2v1h1v2h1v2h1v4h2h-1h1v4h1l1,1v2h1v4h1v1h1v2h1v3h1v1l1,1v1l1,1v1h-1v1h1h-1v1l25,7l3,1h1l18,5l1,1l6,1l4,1l6,2l2,1l16,3l32,10l4,1l7,2l5,2h1l9,2l17,10h1l1,1h1v1h1l1,1h1v1l9,4l2,2v1l3,1h1v1l3,-1l-1,-1h1l1,1l1,-1v3h1l2,-2v1v-1h5v1l1,1l1,-1v1l1,-1h1l1,1h1v1l1,1v2h1l-1,1h3l1,1h1v-1h3v-3h1h-1l1,-1v-1l1,-1h1v2h1l1,-1h5v-1h1v-1h2l1,1v2h1v1l1,1h-1l2,1h2v-2h2l1,2h2v1h2v2h1l1,-1h3v-2h2v1h1l1,1h1v1h1l1,2h1v2h1v-1h1l3,2h1v-1h3l1,-1v-1l1,2l1,1v1h2v-1l1,1h2l1,-1l1,-1v1h2v1l2,1l1,1h1l1,1h1l1,1h4l1,1l-1,1l-1,1v2l1,3h1l2,1l1,1l-1,1v1h-1v-1l-1,1v3l-4,4h-1l1,4h1l1,1h1v2h1v1l2,1h3v13l-13,-1h-38v29l1,2v38h-35v34h6v17h-47v18h-34v69h-30l-2,-1h-71l-1,9v43l-16,-1l-1,7v28h26l-1,4l1,8l-3,2v5l-7,-2l-1,8h-4l-3,6l1,7l3,7l-1,3l6,4l1,13l-4,3h-6l-1,-5l-11,1l-6,8l-5,-3v-16h-18l-18,-1l-7,-8l-5,7l-4,1v-87h-34l-3,-8l-2,5l-9,-1l-3,3h-17v-30l1,-4h17l1,-14v-54l-26,-1l4,-5v-13h-9v6l-12,-1v12h-8l-2,-4l-5,6h-1v-1l-2,-1l-6,-4l-2,4h-16l1,-18h-18l1,-18l-1,-1v-16l-12,-1h-30l-2,-1h-25v-1v19h2v27l-1,2v23l-23,-1l-11,-2h-25l-1,-1h-23l-6,-1l1,-1v-7h1l2,-6v-3l-1,-1v-2h-1l-1,-4l1,-1h-1v-3l1,-1l1,-1v-1l-1,-1v-1l-1,-1l-1,-1h-1l-1,-6v-1l6,-5l3,-2v-1h-1v-4l-1,-1v-1l1,-5h-1v-1l-1,-1l1,-5l1,-2v-11l1,-4v-1l3,-2l4,-5v-2l1,-3v-1l2,-1h1l-1,-1l1,-1v-1l1,-2h2v-2h1l-1,-1v-3l1,-2l-1,-2v-1h-1v-1h-1v-1h-1v-1h-1v-1h-1v-3h-1v-2h-1l-1,-1l-1,-1v-6l-1,-1h-1v-1l-1,-1h-1l-1,-2l-1,-1h-3l-1,1h-5l-1,-1h-3l-1,-1h-1l-1,-5v-2h1v-1l-1,-3v-2Z"/><path data-race-id="WI08" d="M530,543v-69h34v-18h47v-17h-6v-34h35v-38l-1,-2v-29h38l13,1v-13h2v-2h3l1,-1h3l1,1v3h-1l3,2l1,1h8v1h2l3,1h1v3l1,1v1h2v1h3l1,1h1v2h-1h1v1l1,1h2v1l1,1v1l-1,1h-2v1h-2l-1,1h-1v3h1l1,1l1,1v2h2v1l2,1l1,1h-1l1,1v3l-1,1l-1,3v1h-5v-1h-1v1l-1,1h1v1h1l1,1l2,7l1,1l1,1l-1,1v3h-1v2l-1,1v1l-3,2v1h-2v1h-1v5l1,1v2h-1v3l-1,1h-1v2h1l-1,1l-1,1l-1,1v1h2l1,-1l-1,-2l1,1h1v3h1v1h2v-1l1,-1h7v1l1,-1l1,1l1,-1h1v-1h2v-2h1l1,-2l2,-1v-1h1v-1h2v1h1v1l2,1v1h1v1l1,3v3l-1,1h-1v2l-1,1v1h-1v1l-2,3v4h-1v3h-1v3h-1v1l-1,1h1v1h-1v3h-1l-1,2v1l1,2v2l1,1h1v1h1l1,1l1,2h2v1l1,2l1,1l2,3l1,1h4l3,2l22,3h1l4,-25l13,-8l17,-20l11,-20l42,-2h4l38,20l35,18l-24,23l-14,15l-1,3l-13,21l-7,11l-1,5l-3,7l-9,25l-4,15l-11,45l-3,12l-12,1l-50,1l-17,1h-28l-10,1h-17v17h-22l1,16v37l1,17h-17v-9h-34l-1,-19v-41h-18l1,17l-17,1v17l-17,1l-1,-19l-2,-2v-1v1v-1l-1,-1h-1v1v-1l-2,-2v-1v1l-1,-2v-1l1,-2l2,-1l4,1v-5h-64v-83Z"/></g>  <path class="districts-mesh" d="M716,886h10v8h5l3,8v1v-1M713,876l-2,1l2,1h-10v-3l9,-2l-1,-5h-9l8,-3l-1,-6l-6,-1v-4l-5,-2v-17h16l2,6l3,3v-9h3l18,-1h32l8,-1h36l18,-1M734,903h19l51,-2h26l14,-1M713,875v1v-1M357,972l1,-21v-116l17,-1v-34h18v-35h-18v-17h76l3,8l7,1l-3,5l20,2v36l-12,3l-6,9v5h52v2h50v-10l1,-8l-1,-17h18l3,-4l2,7l-1,1l2,-1h3h-1h1l1,-4h21l2,2h4l1,-2h24v-11l-5,3v-7l-5,-2h52l17,-1v35h-3v35M566,974l4,-1l2,-7l-3,-2l-3,-17l-13,1l3,-7h-1h1h-1v-5l-1,-6l5,-2l5,-1l2,-1l4,-10h4l2,-11h20v2l4,3h8v-5h23l-1,-2v-33h34l4,5v1l1,1l-2,5l6,-2l3,-2l6,-1v11h2l2,-2h1l6,-4l5,-1v1h10l8,4l-2,-2l1,-6h-2v-3v1M531,629h-53v119h-27M593,642v1l2,2l1,19l17,-1v-17l17,-1l-1,-17h18v41l1,19h34v9h17l-1,-17v-37l-1,-16h22v-17h17l10,-1h28l17,-1l50,-1l12,-1M690,324v13l-13,-1h-38v29l1,2v38h-35v34h6v17h-47v18h-34v69M562,819v86h14M34,498l6,1h23l1,1h25l11,2l23,1v-23l1,-2v-27h-2v-19v1h25l2,1h30l12,1v16l1,1l-1,18h18l-1,18h16l2,-4l6,4l2,1v1h1l5,-6l2,4h8v-12l12,1v-6h9v13l-4,5l26,1v54l-1,14h-17l-1,4v30h17l3,-3l9,1l2,-5l3,8h34v87l4,-1l5,-7l7,8l18,1h18v16l5,3l6,-8l11,-1l1,5h6l4,-3l-1,-13l-6,-4l1,-3l-3,-7l-1,-7l3,-6h4l1,-8l7,2v-5l3,-2l-1,-8l1,-4h-26v-28l1,-7l16,1v-43l1,-9h71l2,1h30l1,3v83h64v5l-4,-1l-2,1l-1,2v1l1,2v-1v1l2,2v1v-1h1l1,1v1"/></svg>