<svg version="1.1" xmlns="http://www.w3.org/2000/svg" width="1000" height="893" viewBox="0 0 1000 893">
  <path d="M440 24
v 86
h -1
v 139
h 199
l -1 14
v 113
h 1
l 1 1
h 1
v -2
h 1
l 1 -1
l 1 1
v -1
h 1
l 1 -1
h 1
v -1
h 1
l 2 -5
l 2 -1
l 4 -6
l 5 -1
l 3 -3
h 1
v -3
h 10
l 4 -8
l 2 -7
l 8 -2
l 3 -6
l 7 -3
v -1
l 1 -1
v -1
h 2
v 1
l 1 1
l 1 -1
v -1
l -1 -1
l 1 -1
h 1
v -1
l 1 -2
l 2 1
l 1 -1
h -1
v -1
h -1
v -1
h 1
l 1 -1
h 1
v -3
h -1
v -2
h 2
v 1
l -1 -1
v -2
l 1 -1
v 1
l 3 1
h 1
l 1 -1
h 1
v -1
h 1
v 1
h 2
l 2 -2
v 1
h 1
l 4 3
l 1 1
l 8 5
h 3
v -1
l -1 -1
v -1
h 1
l -1 -2
l 1 -1
l 2 -1
l 1 -2
l 2 -2
l 3 -3
v -1
l 1 -1
v -1
l 2 -1
l 1 -3
l 3 -2
l 1 -2
l 3 -3
l 1 -2
l 1 -1
h 2
l 2 1
l 1 -2
v -1
l -2 -1
v -4
l 1 -1
h 1
v -2
h 2
l 1 -3
v -1
l -1 -2
l 1 -2
l 5 -2
h 1
l -2 6
h 1
l 4 -1
l 3 3
v 1
l -2 1
l -1 -1
l -4 1
l -1 2
h 1
l 1 2
l 4 2
l 1 -1
l 1 -1
h 1
l 1 6
h 1
l 4 3
h 1
l 5 2
l 1 1
l 1 1
h 1
l 5 -1
v -1
l 7 1
v 1
l 3 2
l 9 -1
l 10 3
h 1
l 1 -1
l 3 -6
l -1 -1
h -1
h 7
l -6 -6
v -5
l 6 2
l 4 -2
l -6 -6
h 11
l 1 -4
l 3 -3
l 12 5
l 10 -9
v -4
l 6 -2
l 3 -4
l 12 3
l 9 3
l 11 12
l 1 2
v 1
l 1 1
v 1
h 7
v -1
l 1 -1
h 3
l 1 1
l -1 3
l 1 2
h 2
v -1
l -1 -8
l 3 2
l 1 1
l 1 1
h 3
l 1 1
h 2
l 1 -1
v -1
l -2 -2
h 3
v 1
h 1
l 3 1
h 3
l 1 1
l 1 1
v 4
l -1 4
h -1
l -1 1
h -8
l -1 1
l 3 3
l 1 1
l 1 1
v 4
l 1 1
h 4
v -4
h 2
l 1 1
v 3
l -1 1
h -1
l -1 1
l -1 1
v 1
l 1 1
l 3 1
h 5
l 2 -1
l 1 -1
h 3
v 2
l -3 1
h -1
l -1 1
l -1 1
v 2
h 1
v 1
h 1
l 2 1
l -1 1
l -3 -1
v 1
l 1 1
l 1 1
l 1 1
h -1
v 1
h -2
l -1 1
v 1
l 2 1
l 3 1
h 2
l 3 1
l 1 2
l 2 3
l 1 1
v 3
h -3
v 3
h 1
v 2
h 1
l -1 3
l -2 1
v 1
h -1
v 1
l 1 2
h 3
v 1
h 2
l 1 1
l 1 1
v 1
l -2 1
l -1 1
l -1 2
l -1 4
h -1
v 2
l -1 2
v 2
h -1
l -1 1
l 1 2
l -1 2
l -1 1
l -1 2
l -1 2
l -1 2
l -1 2
v 2
l -3 7
v 2
l -1 2
l -1 1
v 4
l -3 -3
l -16 -13
l -7 -5
l -14 -11
l -8 -6
l -2 -1
l -8 -7
l -9 -7
l -7 -6
l -4 -3
l -15 -11
l -1 -1
l -7 -6
l -1 1
l 1 1
v 4
l -1 1
v 1
h 1
v 2
l -1 1
l -1 1
v 2
l 1 2
l 1 2
l -1 1
h 2
l -1 1
l -1 2
v 2
h -1
v 1
l -2 1
l 2 1
l 4 1
v 1
l -1 1
v 1
l -1 1
l -1 2
v 1
l -1 1
h -1
v 2
l -2 2
l -1 1
l -1 1
v 1
l -1 1
v 1
l -1 1
h -1
v 1
h -1
l -2 4
l -1 1
h 1
l 1 1
h 1
l 1 2
v 1
l -1 1
h 1
l -1 1
l -2 4
l -3 5
h 1
v 1
h 1
l -1 1
v 1
h 1
v 1
h 1
l 1 1
l 1 1
l 1 1
l -1 1
l -1 1
l -3 1
l -1 4
v 1
l -4 5
h -1
l -1 1
l -1 1
l -1 -1
l -3 3
l -1 1
h -1
l -1 1
v 1
l -1 1
v 1
l -1 1
v 1
l -2 1
h -1
v 2
l -1 1
l -1 1
h -1
l -3 5
l 1 1
l 2 1
l 1 1
l -1 1
l -1 2
l -1 1
l -3 3
l -1 2
l -1 3
l -2 1
v 1
l -2 -2
v -1
h -2
l -1 -2
l -1 1
l -1 2
v 1
h -1
l -1 2
l -2 3
l -2 3
l -2 3
h -1
l -2 2
h -2
l -1 2
h -2
v -1
l 1 -5
v -1
l -2 1
l -2 1
v 1
l -2 3
l -1 1
v 1
l -1 2
l -3 1
l -2 1
l -1 3
l -2 2
l -6 13
l -2 5
l -2 4
l -2 5
l -6 -5
l -16 -14
l -3 -3
l -1 1
v 3
l -1 1
v 1
l -2 2
l -1 1
v 1
l -1 1
v 2
l -1 2
h -3
l -1 1
v 1
l 1 1
v 1
l -2 3
v 1
l -2 2
l -1 2
v 1
h -1
v 2
l -1 3
v 1
l -2 3
l 1 2
l 1 1
v 4
l -1 1
v 3
h -6
l -1 1
h -1
v 1
l -1 3
l -2 2
v 2
l -1 3
v 1
l -1 1
v 2
l -1 3
l -1 2
v 1
l -1 1
l -1 1
v 1
l -1 2
l -2 2
l -1 1
v 2
l -1 1
l -1 4
l 1 2
l -1 2
l -1 1
h -1
v 2
l -1 1
l -3 2
v 1
l -1 3
l -1 -1
v 2
l -1 1
l -1 2
h -1
l -2 1
v 3
h -2
l -1 1
h -2
l -1 1
l -11 -3
l -12 -5
l -9 -3
l -12 -23
l -4 -2
h -2
l -5 -3
h -1
l -10 -4
v 1
h -1
v 3
h -1
v 1
l 1 2
h -2
v 5
h -1
h 1
v 1
l -1 1
v 1
h 1
v 1
l 1 2
h -1
v 2
h -1
v -1
h -2
v 3
l -1 1
h -1
v 1
h -1
v 1
l 1 2
v 1
l -1 1
h 1
v 1
l 1 2
v 3
h -1
l 1 1
l -1 1
v 1
l 1 1
l -1 1
l -1 1
h 1
h -1
l -1 1
l -1 1
v 2
l -1 1
h -1
v 1
l -1 2
l -1 1
v 2
l -1 1
l 1 1
v 2
l -1 1
l -2 1
h -1
v -1
h -2
l -1 1
l -1 2
l 1 1
l -1 1
v 1
h -2
l -1 1
h -1
l -1 2
l -1 2
l -1 1
h -1
v 1
l 2 3
v 1
l 2 2
v 1
l 1 1
v 2
h -2
l -1 1
l -1 1
l -1 -1
l -1 1
v 2
h -2
l -1 1
h -1
v 1
h -2
v 1
l -1 1
v 1
l -1 1
l -1 1
l -2 1
l -1 2
l -2 1
l -2 3
l -3 2
l -1 1
v 3
h 1
v 2
h -1
v 2
h -1
v 1
l -1 2
v 1
l -1 1
h -2
v 1
l 1 1
h -1
l 1 1
v 3
h 3
l -1 2
l -2 2
l -2 2
v 1
l -1 3
v 1
l -1 1
v 2
l -1 1
l -1 2
v 3
h -1
l -1 3
h -1
l -1 2
v 1
l -1 1
v 1
h -1
l -1 1
l -1 1
l -1 2
h -1
v 1
l -2 1
l -1 1
h -1
v 2
l -1 1
l -1 1
h -1
l -1 1
h -1
v 1
h -1
l -1 2
l -1 1
l -1 1
v 1
h -1
v 1
h -1
l -1 1
v 1
h -1
l -1 1
v 1
h -1
h 1
l -1 1
h -1
l -1 1
v 1
l -1 1
h -1
v 1
h -1
l -1 -1
v 1
l -1 1
l -1 1
v 2
h -1
l -1 1
v 1
l -1 1
h -1
v 3
l 1 1
h -1
l -1 1
h -1
l -1 1
l -1 1
l -1 2
v 1
h -1
l -1 1
l -1 2
l -1 1
v 2
h 1
v 2
l 1 -1
v 2
h -3
v 1
h -1
l -1 1
h -1
v 3
h -1
v 1
l -1 1
l 1 1
l -1 1
v 2
h 1
l 1 1
v 1
l -1 1
h -1
l -1 1
v 1
h -1
l -1 2
l -1 1
h -1
l -2 1
v 1
l 4 6
l 10 10
l -1 2
l -2 2
v 1
h -1
l -1 1
l -1 2
l -2 1
l -3 1
l -4 2
l -6 4
l 2 5
v 1
h -2
l 4 3
l 6 -2
l -4 7
l -3 1
l -2 2
h -5
l -3 2
l 1 2
l -1 1
h -1
l -3 1
l -5 4
l -3 1
l -4 3
l -3 3
h -4
l -2 -2
l -1 -3
l 1 -3
l -4 -6
v 1
h -4
l -1 1
h -2
l -2 1
l -4 2
v 1
h -1
l -1 1
v 1
h -2
l -4 3
l -1 1
h -1
l -2 1
v 1
h -1
v 1
l -8 4
l -5 3
l -1 1
h -1
l -1 1
h -1
l -1 1
h -2
l -4 2
l -2 -3
l -1 -1
v -2
h -3
l -1 -1
h -1
v -1
l -1 -1
l -3 -3
l -3 -1
h -2
v -1
h -1
l -1 2
l 1 2
l -5 7
l 3 4
l 4 5
l -3 2
l -1 1
l -3 2
l -3 3
l -2 1
l -2 1
l -3 1
l -1 1
l -2 1
l -3 1
h -2
l -1 -1
v -2
h -2
l -9 3
h -5
l -6 1
l -3 1
l -7 3
l -4 1
l -7 5
l -6 2
l -1 -1
l -3 -3
l -11 -9
l -1 -1
l -4 -4
v -1
l -6 -7
l -1 1
v 2
h -1
v 2
h -3
v -1
v 1
h -1
v 1
h -1
v 3
h -1
l -1 1
h 1
v 1
h -1
v 2
h -1
v 1
h -1
v 2
h -1
l -1 1
h -1
v -1
h -1
v 1
h -1
v -1
h -1
v 1
l -2 1
v 1
h -2
v 1
h -2
v 1
h -4
v -2
l -1 1
v 1
l -1 1
v 3
l -1 1
h -1
v 1
h -2
v 1
h -1
v 1
h -2
l -2 2
l -1 1
l -12 1
h -12
l -1 -1
v -2
h -2
v -1
h -1
v -1
h -1
v -1
h -1
l -1 -1
v -1
h -1
v -1
h -3
l -1 -1
v -2
l 1 -2
h -1
v -1
h -1
v -1
h -1
l -1 -1
v -2
h -1
l -1 1
l -1 -1
h -1
v -1
h -3
v -1
h -3
v 1
h -5
l 1 -1
h -4
v -1
h -1
l 1 -2
v -1
h -1
v -1
h -1
l -1 -1
l 1 -1
v -1
l -1 -1
l -1 -1
h -1
v -1
h -1
l 1 -1
h -1
l -1 1
v -1
h -1
l -1 1
v -1
h -1
h 1
v -1
l -1 -1
v -1
h -2
v -1
h -2
v -2
h -1
v -3
h -1
v -1
h 1
v -1
h -1
v -2
l 1 -1
l -1 -1
h 1
v -5
h 1
h -1
l -1 -1
v -1
h -1
v -3
h 1
v -1
l -1 -1
v 1
l -1 -1
v -1
h -2
v -1
h -3
v -1
l -1 -1
l -1 -1
l -1 1
h -1
l 1 -1
h -1
l -1 -1
v -3
l 1 -1
v -1
h 3
v -1
h 2
v -1
h 3
v -2
l 1 -1
h 1
v -1
h 2
v -1
l -5 -3
v -2
h -2
v -2
h 1
l -1 -1
l -1 -1
l -4 2
l -1 1
v -2
h -1
v 2
l -3 -1
h -1
l -1 1
h -6
l -3 -4
h -5
l -1 -1
l -1 -1
h -4
v -1
l -1 -1
l -1 -1
l 2 -5
h -5
l -1 -7
l -4 -2
l 1 -1
l -7 2
l -4 -9
l -7 -1
l -5 -4
h -1
v -1
h 1
l -2 -6
v -1
l -1 -1
v -2
h -1
v -3
h -1
l -1 -1
v -2
l 1 -1
v -1
l 2 -2
h 1
l -1 -1
h -2
l -1 1
v -1
l 1 -1
v -1
l -3 -3
h -1
l -1 -2
h -2
v -1
l -3 -2
l -4 -1
l -1 -1
l -1 -6
l -2 -2
v -2
l 1 -1
l -1 -1
v -5
l -2 -2
h -1
v -1
l -1 -3
l -3 -2
h -1
v -1
l -3 -2
l -1 -1
l -4 -1
l 2 -3
v -1
h 1
l 3 -1
l -2 -11
h -3
l -1 -1
h -1
l -1 -1
l -1 -1
v -2
h -1
v -2
l -2 -9
h -1
l -1 -2
v -1
l -2 -2
l -2 -1
h -1
l -1 -1
v -4
l -1 -1
h -1
l -1 -2
l -2 -1
h -1
l -2 -2
l -1 -2
l -2 -4
v -3
l 3 -2
l 1 1
l 2 -1
l 1 -3
l 1 -5
h 1
v -3
l -2 -1
v -6
h 5
l 1 -10
v -2
l 1 -4
l -1 -6
h -1
l -2 -2
v -7
l 1 -1
l -1 -2
l 1 -4
l -1 -3
v -1
l 1 -1
l 1 1
v 1
l 2 1
l 1 1
h 4
v 1
h 2
v -1
h 4
l 1 -1
h 1
l 1 -1
l 4 -1
l 6 -2
l 7 -2
l 5 1
l 13 -3
l 5 -13
l 3 -21
l 5 -3
l 9 2
h 2
l 2 -1
l 5 -4
v -8
l -3 -12
l 1 -9
l -1 -3
l -1 -5
l -5 -3
v -5
l 11 -7
l 5 -6
l -1 -10
l 1 -4
l 5 -7
l 4 -7
l 1 -4
l 1 -1
l 3 -1
l 1 -1
l 2 -2
h 1
v -1
l 2 -4
l 5 -3
l 6 7
l 1 2
l 9 2
l 6 15
l -4 4
v 6
l 2 1
l 3 2
l 6 -4
l 1 -1
l 2 -3
v -2
l 2 -6
l 1 -1
h 5
l 4 5
l 5 -4
l -1 -1
l -3 -4
l 3 -15
l -8 -8
v -8
l 8 2
l 3 -4
l 1 -1
l 1 -12
l -2 -6
l -1 -3
l 6 -6
v -2
l 6 -2
l 1 -9
l 4 -4
h 11
l 9 2
v -6
l 1 -5
l 1 -6
l 2 -3
l 9 -5
l 8 -9
l 9 3
l 6 14
l 2 -1
h 4
l 18 -11
l 6 1
h 1
l 8 -12
l 9 -2
l 1 -3
l 2 -3
l 4 -6
l 1 -1
l 9 -10
l 1 -1
l 2 -1
l 5 -5
l 1 -1
l 9 -8
l 1 -1
l 5 -3
h 5
l 2 -1
h 1
l 2 -8
v -10
l 3 -1
h 2
l 2 -5
h -1
l -1 -3
l -1 -2
h -1
l -3 -3
v -5
l 8 -6
v -13
l 1 -1
h 3
v -1
l 2 -1
l 1 -1
l -3 -13
l 9 2
l -1 -11
l 5 -5
v -15
h 1
l -1 -8
v -3
l 2 -2
l 4 -3
l 1 -14
l 4 -7
h 1
l 5 -16
l 7 -5
l 2 -9
v -1
l -2 -9
l 1 -7
l -4 -5
l 2 -1
h 1
v -9
l 1 -2
h 1
v -1
l 1 -4
l 1 -1
v -1
l -4 -6
v -1
l -1 -2
l -1 -2
l -1 -5
l -7 -10
v -1
l 2 -4
h 1
l 4 -5
l 6 -2
l 4 4
Z"/>
<g class="districts">
<path data-race-id="WV01" d="M201 380
l 6 -6
v -2
l 6 -2
l 1 -9
l 4 -4
h 11
l 9 2
v -6
l 1 -5
l 1 -6
l 2 -3
l 9 -5
l 8 -9
l 9 3
l 6 14
l 2 -1
h 4
l 18 -11
l 6 1
h 1
l 8 -12
l 9 -2
l 1 -3
l 1 -1
l 1 -2
l 4 -6
l 1 -1
l 9 -10
l 1 -1
l 2 -1
l 5 -5
l 1 -1
l 9 -8
l 1 -1
l 5 -3
h 5
l 2 -1
h 1
l 2 -8
v -10
l 3 -1
h 2
l 2 -5
h -1
l -1 -3
l -1 -2
h -1
l -3 -3
v -5
l 8 -6
v -13
l 1 -1
h 3
v -1
l 2 -1
l 1 -1
l -3 -13
l 9 2
l -1 -11
l 5 -5
v -15
h 1
l -1 -8
v -3
l 2 -2
l 4 -3
l 1 -14
l 4 -7
h 1
l 5 -16
l 7 -5
l 2 -9
v -1
l -2 -9
l 1 -7
l -4 -5
l 2 -1
h 1
v -9
l 1 -2
h 1
v -1
l 1 -4
l 1 -1
v -1
l -4 -6
v -1
l -1 -2
l -1 -2
l -1 -5
l -7 -10
v -1
l 2 -4
h 1
l 4 -5
l 6 -2
l 4 4
l 11 -5
v 86
h -1
v 139
h 199
l -1 14
v 79
h -1
v 34
h 2
l 1 1
h 1
v -2
h 1
l 1 -1
l 1 1
v -1
h 1
l 1 -1
h 1
v -1
h 1
l 2 -5
l 2 -1
l 9 -7
l 3 -3
h 1
v -3
h 10
l 4 -8
l 3 -6
l 7 -2
l 3 -7
l 7 -3
v -1
l 1 -1
v -1
h 2
v 1
l 1 1
l 1 -1
v -1
l -1 -1
l 1 -1
h 1
v -1
l 1 -2
l 2 1
l 1 -1
h -1
v -1
h -1
v -1
h 1
l 1 -1
h 1
v -3
h -1
v -2
h 2
v 1
l -1 -1
v -2
l 1 -1
v 1
l 3 1
h 1
l 1 -1
h 1
v -1
h 1
v 1
h 2
l 2 -2
v 1
h 1
l 4 3
l 1 1
l 8 5
h 3
v -1
l -1 -1
v -1
h 1
l -1 -2
l 1 -1
l 2 -1
l 1 -2
l 2 -2
l 3 -3
v -1
l 1 -1
v -1
l 2 -1
l 1 -3
l 3 -2
l 1 -2
l 3 -3
l 1 -2
l 1 -1
h 2
l 2 1
l 1 -2
v -1
l -2 -1
v -4
l 1 -1
h 1
v -2
h 2
l 1 -3
v -1
l -1 -2
l 1 -2
l 5 -2
h 1
l -2 6
h 1
l 4 -1
l 3 3
v 1
l -2 1
l -1 -1
l -4 1
l -1 2
h 1
l 1 2
l 4 2
l 1 -1
l 1 -1
h 1
l 1 6
h 1
l 4 3
h 1
l 5 2
l 1 1
l 1 1
l -6 8
l -4 2
l -3 8
l -9 5
l -6 15
l -7 12
l -15 10
l -1 4
l -8 7
l -1 3
l -6 14
l -5 7
l -1 10
l -2 2
l -7 17
l 2 10
l 7 15
v 4
l -8 6
l 1 7
l -10 14
l -23 -21
l -9 -6
l -9 -9
l -2 -2
l -18 -2
h -13
l -31 -9
l -21 -6
l 2 -8
l -4 -9
l -6 -2
l 1 2
l -5 3
l -9 31
l -36 5
l 7 -6
l -1 -16
h -15
l -7 -12
l -9 -3
l -3 -3
l -4 2
l -9 -1
l -26 -6
l -6 -4
h -13
l -5 -3
l -5 -3
l -2 1
l -6 6
l -7 1
l -7 12
l -6 -1
l 2 21
l 22 26
l -7 5
l -5 -2
l -24 15
l -12 10
l -26 18
l -2 -8
l -11 -7
v -5
l 8 -6
l 2 -6
l -1 -11
l 1 -19
l -6 -5
v -6
l -11 -1
l -4 -5
l -7 -2
l -2 3
l -3 -2
h -14
l -1 -4
l -1 -11
l -4 -8
l -8 -3
l 5 -11
l -16 10
l -8 2
l -14 13
l -11 7
l -5 7
l -33 -18
h 1
l 1 -12
l -2 -6
Z"/>
<path data-race-id="WV02" d="M196 504
l -7 -10
l 4 -3
l -10 -16
l -6 -8
l -6 -13
l 3 2
l 6 -4
l 1 -1
l 2 -3
v -2
l 2 -6
l 1 -1
h 5
l 4 5
l 5 -4
l -1 -1
l -3 -4
l 3 -15
l -8 -8
v -8
l 8 2
l 3 -4
v -1
l 33 18
l 5 -7
l 11 -7
l 14 -13
l 8 -2
l 16 -10
l -5 11
l 8 3
l 4 8
l 1 11
l 1 4
h 14
l 3 2
l 2 -3
l 7 2
l 4 5
l 11 1
v 6
l 6 5
l -1 19
l 1 11
l -2 6
l -8 6
v 5
l 11 7
l 2 8
l 26 -18
l 12 -10
l 24 -15
l 5 2
l 7 -5
l -22 -26
l -2 -21
l 6 1
l 7 -12
l 7 -1
l 6 -6
l 2 -1
l 5 3
l 5 3
h 13
l 6 4
l 26 6
l 9 1
l 4 -2
l 3 3
l 9 3
l 7 12
h 15
l 1 16
l -7 6
l 36 -5
l 9 -31
l 5 -3
l -1 -2
l 6 2
l 4 9
l -2 8
l 21 6
l 31 9
h 13
l 18 2
l 2 2
l 9 9
l 9 6
l 23 21
l 10 -14
l -1 -7
l 8 -6
v -4
l -7 -15
l -2 -10
l 7 -17
l 2 -2
l 1 -10
l 5 -7
l 6 -14
l 1 -3
l 8 -7
l 1 -4
l 15 -10
l 7 -12
l 6 -15
l 9 -5
l 3 -8
l 4 -2
l 6 -8
h 1
l 5 -1
v -1
l 7 1
v 1
l 4 3
l 8 -2
l 10 3
h 1
l 1 -1
l 3 -6
l -1 -1
h -1
h 7
l -7 -7
l 1 -4
l 6 2
l 4 1
l -6 -11
l 6 2
h 5
l 1 -4
l 2 -2
l 18 5
v -4
l 11 -11
l 3 -5
l 12 3
l 9 3
l 11 12
l 1 2
v 1
l 1 1
v 1
h 7
v -1
l 1 -1
h 3
l 1 1
l -1 3
l 1 2
h 2
v -1
l -1 -8
l 3 2
l 1 1
l 1 1
h 3
l 1 1
h 2
l 1 -1
v -1
l -2 -2
h 3
v 1
h 1
l 3 1
h 3
l 1 1
l 1 1
v 4
l -1 4
h -1
l -1 1
h -8
l -1 1
l 3 3
l 1 1
l 1 1
v 4
l 1 1
h 4
v -4
h 2
l 1 1
v 3
l -1 1
h -1
l -1 1
l -1 1
v 1
l 1 1
l 3 1
h 5
l 2 -1
l 1 -1
h 3
v 2
l -3 1
h -1
l -1 1
l -1 1
v 2
h 1
v 1
h 1
l 2 1
l -1 1
l -3 -1
v 1
l 1 1
l 1 1
l 1 1
h -1
v 1
h -2
l -1 1
v 1
l 2 1
l 3 1
h 2
l 3 1
l 1 2
l 2 3
l 1 1
v 3
h -3
v 3
h 1
v 2
h 1
l -1 3
l -2 1
v 1
h -1
v 1
l 1 2
h 3
v 1
h 2
l 1 1
l 1 1
v 1
l -2 1
l -1 1
l -1 2
l -1 4
h -1
v 2
l -1 2
v 2
h -1
l -1 1
l 1 2
l -1 2
l -1 1
l -1 2
l -1 2
l -1 2
l -1 2
v 2
l -3 7
v 2
l -1 2
l -1 1
v 4
l -3 -3
l -16 -13
l -7 -5
l -14 -11
l -8 -6
l -2 -1
l -8 -7
l -9 -7
l -7 -6
l -4 -3
l -15 -11
l -1 -1
l -7 -6
l -1 1
l 1 1
v 4
l -1 1
v 1
h 1
v 2
l -1 1
l -1 1
v 2
l 1 2
l 1 2
l -1 1
h 2
l -1 1
l -1 2
v 2
h -1
v 1
l -2 1
l 2 1
l 4 1
v 1
l -1 1
v 1
l -1 1
l -1 2
v 1
l -1 1
h -1
v 2
l -2 2
l -1 1
l -1 1
v 1
l -1 1
v 1
l -1 1
h -1
v 1
h -1
l -2 4
l -1 1
h 1
l 1 1
h 1
l 1 2
v 1
l -1 1
h 1
l -1 1
l -2 4
l -3 5
h 1
v 1
h 1
l -1 1
v 1
h 1
v 1
h 1
l 1 1
l 1 1
l 1 1
l -1 1
l -1 1
l -3 1
l -1 4
v 1
l -4 5
h -1
l -1 1
l -1 1
l -1 -1
l -3 3
l -1 1
h -1
l -1 1
v 1
l -1 1
v 1
l -1 1
v 1
l -2 1
h -1
v 2
l -1 1
l -1 1
h -1
l -3 5
l 1 1
l 2 1
l 1 1
l -1 1
l -1 2
l -1 1
l -3 3
l -1 2
l -1 3
l -2 1
v 1
l -2 -2
v -1
h -2
l -1 -2
l -1 1
l -1 2
v 1
h -1
l -1 2
l -2 3
l -2 3
l -2 3
h -1
l -2 2
h -2
l -1 2
h -2
v -1
l 1 -5
v -1
l -2 1
l -2 1
v 1
l -2 3
l -1 1
v 1
l -1 2
l -3 1
l -2 1
l -1 3
l -2 2
l -6 13
l -2 5
l -2 4
l -2 5
l -6 -5
l -16 -14
l -3 -3
l -1 1
v 3
l -1 1
v 1
l -2 2
l -1 1
v 1
l -1 1
v 2
l -1 2
h -3
l -1 1
v 1
l 1 1
v 1
l -2 3
v 1
l -2 2
l -1 2
v 1
h -1
v 2
l -1 3
v 1
l -2 3
l 1 2
l 1 1
v 4
l -1 1
v 3
h -6
l -1 1
h -1
v 1
l -1 3
l -2 2
v 2
l -1 3
v 1
l -1 1
v 2
l -1 3
l -1 2
v 1
l -1 1
l -1 1
v 1
l -1 2
l -2 2
l -1 1
v 2
l -1 1
l -1 4
l 1 2
l -1 2
l -1 1
h -1
v 2
l -1 1
l -3 2
v 1
l -1 3
l -1 -1
v 2
l -1 1
l -1 2
h -1
l -2 1
v 3
h -2
l -1 1
h -2
l -1 1
l -11 -3
l -12 -5
l -9 -3
l -7 -15
l -5 -8
l -4 -2
h -2
l -5 -3
h -1
l -10 -4
l 4 -4
v -18
l -7 -3
l -3 6
l -4 -4
l -8 1
l 1 -10
l -7 -6
l -11 22
l -4 16
l -1 8
l -32 24
l -18 -3
l -26 21
l 13 -34
l -10 -22
l -9 -20
l -8 3
l -1 -4
l -1 -5
l -4 -3
l -7 1
h -11
l -1 -3
l -5 9
l -6 14
l -28 29
v 1
l -12 -4
l -7 4
l -7 -8
l -18 12
l 10 3
l 2 4
l -18 16
l -21 13
l -5 1
l -21 14
l -16 9
l -12 16
l -7 3
l -10 53
h -13
l -2 -5
l -2 -4
l 1 -8
l -2 -5
l -8 -1
l -6 -4
l 5 -9
l -5 -2
v -5
l -7 -1
l -6 -8
h -6
v -11
l -17 1
l -4 3
v -4
l -6 -3
l -1 5
h -5
v 7
l -4 -7
l 5 -2
v -23
l -14 -1
l -6 -2
l -15 13
l -5 -1
l -6 -6
l 1 -10
l -1 -9
v -25
l -1 -34
l 20 -11
l 20 -3
Z"/>
<path data-race-id="WV03" d="M29 627
l 2 -1
l 1 -3
l 1 -5
h 1
v -3
l -2 -1
v -6
h 1
l 6 -4
l -1 -6
v -2
l 1 -4
l -1 -6
h -1
l -2 -2
v -7
l 1 -1
l -1 -2
l 1 -4
l -1 -3
v -1
l 1 -1
l 1 1
v 1
l 2 1
l 1 1
h 4
v 1
h 2
v -1
h 4
l 1 -1
h 1
l 1 -1
l 4 -1
l 6 -2
l 7 -2
l 5 1
l 13 -3
l 5 -13
l 3 -21
l 5 -3
l 9 2
h 2
l 2 -1
l 5 -4
v -8
l -3 -12
l 1 -9
l -1 -3
l -1 -5
l -5 -3
v -5
l 11 -7
l 5 -6
l -1 -10
l 1 -4
l 5 -7
l 4 -7
l 1 -4
l 1 -1
l 3 -1
l 1 -1
l 2 -2
h 1
v -1
l 2 -4
l 5 -3
l 6 7
l 1 2
l 9 2
l 6 15
l -4 4
v 6
l 2 1
l 6 13
l 6 8
l 10 16
l -4 3
l 7 10
l -16 2
l -20 3
l -20 11
l 1 34
v 25
l 1 9
l -1 10
l 6 6
l 5 1
l 15 -13
l 6 2
l 14 1
v 23
l -5 2
l 4 7
v -7
h 5
l 1 -5
l 6 3
v 4
l 4 -3
l 17 -1
v 11
h 6
l 6 8
l 7 1
v 5
l 5 2
l -5 9
l 6 4
l 8 1
l 2 5
l -1 8
l 2 4
l 2 5
h 13
l 10 -53
l 7 -3
l 12 -16
l 16 -9
l 21 -14
l 5 -1
l 21 -13
l 18 -16
l -2 -4
l -10 -3
l 18 -12
l 7 8
l 7 -4
l 12 4
v -1
l 28 -29
l 6 -14
l 5 -9
l 1 3
h 11
l 7 -1
l 4 3
l 1 5
l 1 4
l 8 -3
l 9 20
l 10 22
l -13 34
l 26 -21
l 18 3
l 32 -24
l 1 -8
l 4 -16
l 11 -22
l 7 6
l -1 10
l 8 -1
l 4 4
l 3 -6
l 7 3
v 18
l -4 4
v 1
h -1
v 3
h -1
v 1
l 1 2
h -2
v 5
h -1
h 1
v 1
l -1 1
v 1
h 1
v 1
l 1 2
h -1
v 2
h -1
v -1
h -2
v 3
l -1 1
h -1
v 1
h -1
v 1
l 1 2
v 1
l -1 1
h 1
v 1
l 1 2
v 3
h -1
l 1 1
l -1 1
v 1
l 1 1
l -1 1
l -1 1
h 1
h -1
l -1 1
l -1 1
v 2
l -1 1
h -1
v 1
l -1 2
l -1 1
v 2
l -1 1
l 1 1
v 2
l -1 1
l -2 1
h -1
v -1
h -2
l -1 1
l -1 2
l 1 1
l -1 1
v 1
h -2
l -1 1
h -1
l -1 2
l -1 2
l -1 1
h -1
v 1
l 2 3
v 1
l 2 2
v 1
l 1 1
v 2
h -2
l -1 1
l -1 1
l -1 -1
l -1 1
v 2
h -2
l -1 1
h -1
v 1
h -2
v 1
l -1 1
v 1
l -1 1
l -1 1
l -2 1
l -1 2
l -2 1
l -2 3
l -3 2
l -1 1
v 3
h 1
v 2
h -1
v 2
h -1
v 1
l -1 2
v 1
l -1 1
h -2
v 1
l 1 1
h -1
l 1 1
v 3
h 3
l -1 2
l -2 2
l -2 2
v 1
l -1 3
v 1
l -1 1
v 2
l -1 1
l -1 2
v 3
h -1
l -1 3
h -1
l -1 2
v 1
l -1 1
v 1
h -1
l -1 1
l -1 1
l -1 2
h -1
v 1
l -2 1
l -1 1
h -1
v 2
l -1 1
l -1 1
h -1
l -1 1
h -1
v 1
h -1
l -1 2
l -1 1
l -1 1
v 1
h -1
v 1
h -1
l -1 1
v 1
h -1
l -1 1
v 1
h -1
h 1
l -1 1
h -1
l -1 1
v 1
l -1 1
h -1
v 1
h -1
l -1 -1
v 1
l -1 1
l -1 1
v 2
h -1
l -1 1
v 1
l -1 1
h -1
v 3
l 1 1
h -1
l -1 1
h -1
l -1 1
l -1 1
l -1 2
v 1
h -1
l -1 1
l -1 2
l -1 1
v 2
h 1
v 2
l 1 -1
v 2
h -3
v 1
h -1
l -1 1
h -1
v 3
h -1
v 1
l -1 1
l 1 1
l -1 1
v 2
h 1
l 1 1
v 1
l -1 1
h -1
l -1 1
v 1
h -1
l -1 2
l -1 1
h -1
l -2 1
v 1
l 4 10
l 10 6
l -1 2
l -2 2
v 1
h -1
l -1 1
l -1 2
l -2 1
l -3 1
l -4 2
l -6 4
l 2 5
v 1
h -2
l 4 3
l 6 -2
l -4 7
l -3 1
l -2 2
h -5
l -3 2
l 1 2
l -1 1
h -1
l -3 1
l -5 4
l -3 1
l -4 3
l -3 3
h -4
l -2 -2
l -1 -3
l 1 -3
l -4 -6
v 1
h -4
l -1 1
h -2
l -2 1
l -4 2
v 1
h -1
l -1 1
v 1
h -2
l -4 3
l -1 1
h -1
l -2 1
v 1
h -1
v 1
l -8 4
l -5 3
l -1 1
h -1
l -1 1
h -1
l -1 1
h -2
l -4 2
l -2 -3
l -1 -1
v -2
h -3
l -1 -1
h -1
v -1
l -1 -1
l -3 -3
l -3 -1
h -2
v -1
h -1
l -1 2
l 1 2
l -5 7
l 3 4
l 4 5
l -3 2
l -1 1
l -3 2
l -3 3
l -2 1
l -2 1
l -3 1
l -1 1
l -2 1
l -3 1
h -2
l -1 -1
v -2
h -2
l -9 3
h -5
l -6 1
l -3 1
l -7 3
l -4 1
l -7 5
l -6 2
l -1 -1
l -3 -3
l -11 -9
l -1 -1
l -4 -4
v -1
l -6 -7
l -1 1
v 2
h -1
v 2
h -3
v -1
v 1
h -1
v 1
h -1
v 3
h -1
l -1 1
h 1
v 1
h -1
v 2
h -1
v 1
h -1
v 2
h -1
l -1 1
h -1
v -1
h -1
v 1
h -1
v -1
h -1
v 1
l -2 1
v 1
h -2
v 1
h -2
v 1
h -4
v -2
l -1 1
v 1
l -1 1
v 3
l -1 1
h -1
v 1
h -2
v 1
h -1
v 1
h -2
l -2 2
l -1 1
l -12 1
h -12
l -1 -1
v -2
h -2
v -1
h -1
v -1
h -1
v -1
h -1
l -1 -1
v -1
h -1
v -1
h -3
l -1 -1
v -2
l 1 -2
h -1
v -1
h -1
v -1
h -1
l -1 -1
v -2
h -1
l -1 1
l -1 -1
h -1
v -1
h -3
v -1
h -3
v 1
h -5
l 1 -1
h -4
v -1
h -1
l 1 -2
v -1
h -1
v -1
h -1
l -1 -1
l 1 -1
v -1
l -1 -1
l -1 -1
h -1
v -1
h -1
l 1 -1
h -1
l -1 1
v -1
h -1
l -1 1
v -1
h -1
h 1
v -1
l -1 -1
v -1
h -2
v -1
h -2
v -2
h -1
v -3
h -1
v -1
h 1
v -1
h -1
v -2
l 1 -1
l -1 -1
h 1
v -5
h 1
h -1
l -1 -1
v -1
h -1
v -3
h 1
v -1
l -1 -1
v 1
l -1 -1
v -1
h -2
v -1
h -3
v -1
l -1 -1
l -1 -1
l -1 1
h -1
l 1 -1
h -1
l -1 -1
v -3
l 1 -1
v -1
h 3
v -1
h 2
v -1
h 3
v -2
l 1 -1
h 1
v -1
h 2
v -1
l -5 -3
v -2
h -2
v -2
h 1
l -1 -1
l -1 -1
l -4 2
l -1 1
v -2
h -1
v 2
l -3 -1
h -1
l -1 1
h -6
l -3 -5
l -5 1
l -1 -1
l -1 -1
h -4
v -1
l -1 -1
l -1 -1
h 3
l -1 -5
h -5
l -1 -7
l -4 -2
l 1 -1
l -7 1
l -3 -8
l -8 -1
l -5 -4
h -1
v -1
h 1
l -2 -6
v -1
l -1 -1
v -2
h -1
v -3
h -1
l -1 -1
v -2
l 1 -1
v -1
l 2 -2
h 1
l -1 -1
h -2
l -1 1
v -1
l 1 -1
v -1
l -3 -3
h -1
l -1 -2
h -2
v -1
l -3 -2
l -4 -1
l -1 -1
l -1 -6
l -2 -2
v -2
l 1 -1
l -1 -1
v -5
l -2 -2
h -1
v -1
l -1 -3
l -3 -2
h -1
v -1
l -3 -2
l -1 -1
l -4 -1
l 2 -3
v -1
h 1
l 3 -2
l -2 -10
h -3
l -1 -1
h -1
l -1 -1
l -1 -1
v -2
h -1
v -2
l -2 -9
h -1
l -1 -2
v -1
l -2 -2
l -2 -1
h -1
l -1 -1
v -4
l -1 -1
h -1
l -1 -2
l -2 -1
h -1
l -2 -2
l -1 -2
l -2 -4
v -3
l 3 -2
Z"/>
</g>
  <path class="districts-mesh" d="M794 293
l -6 8
l -4 2
l -3 8
l -9 5
l -6 15
l -7 12
l -15 10
l -1 4
l -8 7
l -1 3
l -6 14
l -5 7
l -1 10
l -2 2
l -7 17
l 2 10
l 7 15
v 4
l -8 6
l 1 7
l -10 14
l -23 -21
l -9 -6
l -9 -9
l -2 -2
l -18 -2
h -13
l -31 -9
l -21 -6
l 2 -8
l -4 -9
l -6 -2
l 1 2
l -5 3
l -9 31
l -36 5
l 7 -6
l -1 -16
h -15
l -7 -12
l -9 -3
l -3 -3
l -4 2
l -9 -1
l -26 -6
l -6 -4
h -13
l -5 -3
l -5 -3
l -2 1
l -6 6
l -7 1
l -7 12
l -6 -1
l 2 21
l 22 26
l -7 5
l -5 -2
l -24 15
l -12 10
l -26 18
l -2 -8
l -11 -7
v -5
l 8 -6
l 2 -6
l -1 -11
l 1 -19
l -6 -5
v -6
l -11 -1
l -4 -5
l -7 -2
l -2 3
l -3 -2
h -14
l -1 -4
l -1 -11
l -4 -8
l -8 -3
l 5 -11
l -16 10
l -8 2
l -14 13
l -11 7
l -5 7
l -33 -18
M606 529
l 4 -4
v -18
l -7 -3
l -3 6
l -4 -4
l -8 1
l 1 -10
l -7 -6
l -11 22
l -4 16
l -1 8
l -32 24
l -18 -3
l -26 21
l 13 -34
l -10 -22
l -9 -20
l -8 3
l -1 -4
l -1 -5
l -4 -3
l -7 1
h -11
l -1 -3
l -5 9
l -6 14
l -28 29
v 1
l -12 -4
l -7 4
l -7 -8
l -18 12
l 10 3
l 2 4
l -18 16
l -21 13
l -5 1
l -21 14
l -16 9
l -12 16
l -7 3
l -10 53
h -13
l -2 -5
l -2 -4
l 1 -8
l -2 -5
l -8 -1
l -6 -4
l 5 -9
l -5 -2
v -5
l -7 -1
l -6 -8
h -6
v -11
l -17 1
l -4 3
v -4
l -6 -3
l -1 5
h -5
v 7
l -4 -7
l 5 -2
v -23
l -14 -1
l -6 -2
l -15 13
l -5 -1
l -6 -6
l 1 -10
l -1 -9
v -25
l -1 -34
l 20 -11
l 20 -3
l 16 -2
l -7 -10
l 4 -3
l -10 -16
l -6 -8
l -6 -13"/>
</svg>