<svg version="1.1" xmlns="http://www.w3.org/2000/svg" width="1000" height="893" viewBox="0 0 1000 893"><path data-race-id="WV01" d="M201,380l6,-6v-2l6,-2l1,-9l4,-4h11l9,2v-6l1,-5l1,-6l2,-3l9,-5l8,-9l9,3l6,14l2,-1h4l18,-11l6,1h1l2,-5l8,-9l8,-3l1,-1l1,-2l4,-6l1,-1l9,-10l1,-1l2,-1l5,-5l1,-1l9,-8l1,-1l5,-3h5l2,-1h1l2,-8v-10l3,-1h2l2,-5h-1l-1,-3l-1,-2h-1l-3,-3v-5l8,-6v-13l1,-1h3v-1l2,-1l1,-1l-3,-13l9,2l-1,-11l5,-5v-15h1l-1,-8v-3l2,-2l4,-3l1,-14l4,-7h1l5,-16l7,-5l2,-9v-1l-2,-9l1,-7l-4,-5l2,-1h1v-9l1,-2h1v-1l1,-4l1,-1v-1l-4,-6v-1l-1,-2l-1,-2l-1,-5l-7,-10v-1l2,-4h1l4,-5l6,-2l4,4l11,-5v86h-1v139h199l-1,14v79h-1v34h2l1,1h1v-2h1l1,-1l1,1v-1h1l1,-1h1v-1h1l2,-5l2,-1l9,-7l3,-3h1v-3h10l4,-8l3,-6l7,-2l3,-7l7,-3v-1l1,-1v-1h2v1l1,1l1,-1v-1l-1,-1l1,-1h1v-1l1,-2l2,1l1,-1h-1v-1h-1v-1h1l1,-1h1v-3h-1v-2h2v1l-1,-1v-2l1,-1v1l3,1h1l1,-1h1v-1h1v1h2l2,-2v1h1l4,3l1,1l8,5h3v-1l-1,-1v-1h1l-1,-2l1,-1l2,-1l1,-2l2,-2l3,-3v-1l1,-1v-1l2,-1l1,-3l3,-2l1,-2l3,-3l1,-2l1,-1h2l2,1l1,-2v-1l-2,-1v-4l1,-1h1v-2h2l1,-3v-1l-1,-2l1,-2l5,-2h1l-2,6h1l4,-1l3,3v1l-2,1l-1,-1l-4,1l-1,2h1l1,2l4,2l1,-1l1,-1h1l1,6h1l4,3h1l5,2l1,1l1,1l-6,8l-4,2l-3,7l-9,6l-4,12l-11,17l-7,1l-7,11l-8,7l-1,3l-3,4l-4,12l-5,7v8l-2,2l-7,17l2,10l7,15v4l-8,6l1,7l-10,14l-25,-22l-7,-5l-9,-9l-2,-2l-18,-2h-11l-39,-10l-12,-5l-2,-13l-9,-6l1,2l-5,3l-9,31l-36,5l2,-5l5,-1l-1,-16h-15l-7,-12l-9,-3l-3,-3l-4,2l-9,-1l-31,-8l-1,-2h-13l-5,-3l-5,-3l-2,1l-6,6l-7,1l-7,12l-6,-1l2,21l22,26l-7,5l-5,-2l-16,9l-24,19l-22,15l-2,-8l-11,-7v-5l8,-6l2,-6l-1,-11l1,-19l-6,-5v-6h-7l-8,-6l-7,-2l-2,3l-9,-4l-8,2l-1,-4l-1,-11l-4,-8l-8,-3l5,-11l-16,10l-8,2l-14,13l-11,7l-5,7l-33,-18h1l1,-12l-2,-6Z"/><path data-race-id="WV02" d="M196,504l-7,-10l4,-3l-10,-16l-10,-14l-2,-7l3,2l6,-4l1,-1l2,-3v-2l2,-6l1,-1h5l4,5l5,-4l-1,-1l-3,-4l3,-15l-8,-8v-8l8,2l3,-4v-1l33,18l5,-7l11,-7l14,-13l8,-2l16,-10l-5,11l8,3l4,8l1,11l1,4l8,-2l9,4l2,-3l7,2l8,6h7v6l6,5l-1,19l1,11l-2,6l-8,6v5l11,7l2,8l22,-15l24,-19l16,-9l5,2l7,-5l-22,-26l-2,-21l6,1l7,-12l7,-1l6,-6l2,-1l5,3l5,3h13l1,2l31,8l9,1l4,-2l3,3l9,3l7,12h15l1,16l-5,1l-2,5l36,-5l9,-31l5,-3l-1,-2l9,6l2,13l12,5l39,10h11l18,2l2,2l9,9l7,5l25,22l10,-14l-1,-7l8,-6v-4l-7,-15l-2,-10l7,-17l2,-2v-8l5,-7l4,-12l3,-4l1,-3l8,-7l7,-11l7,-1l11,-17l4,-12l9,-6l3,-7l4,-2l6,-8h1l5,-1v-1l7,1v1l4,3l9,-1l9,2h1l1,-1l3,-6l-1,-1h-1h7l-7,-7l1,-4l6,2l4,-2l-5,-4l-1,-4l6,2h5l1,-4l2,-2l18,5v-4l11,-11l3,-5l12,3l9,3l11,12l1,2v1l1,1v1h7v-1l1,-1h3l1,1l-1,3l1,2h2v-1l-1,-8l3,2l1,1l1,1h3l1,1h2l1,-1v-1l-2,-2h3v1h1l3,1h3l1,1l1,1v4l-1,4h-1l-1,1h-8l-1,1l3,3l1,1l1,1v4l1,1h4v-4h2l1,1v3l-1,1h-1l-1,1l-1,1v1l1,1l3,1h5l2,-1l1,-1h3v2l-3,1h-1l-1,1l-1,1v2h1v1h1l2,1l-1,1l-3,-1v1l1,1l1,1l1,1h-1v1h-2l-1,1v1l2,1l3,1h2l3,1l1,2l2,3l1,1v3h-3v3h1v2h1l-1,3l-2,1v1h-1v1l1,2h3v1h2l1,1l1,1v1l-2,1l-1,1l-1,2l-1,4h-1v2l-1,2v2h-1l-1,1l1,2l-1,2l-1,1l-1,2l-1,2l-1,2l-1,2v2l-3,7v2l-1,2l-1,1v4l-3,-3l-16,-13l-7,-5l-14,-11l-8,-6l-2,-1l-8,-7l-9,-7l-7,-6l-4,-3l-15,-11l-1,-1l-7,-6l-1,1l1,1v4l-1,1v1h1v2l-1,1l-1,1v2l1,2l1,2l-1,1h2l-1,1l-1,2v2h-1v1l-2,1l2,1l4,1v1l-1,1v1l-1,1l-1,2v1l-1,1h-1v2l-2,2l-1,1l-1,1v1l-1,1v1l-1,1h-1v1h-1l-2,4l-1,1h1l1,1h1l1,2v1l-1,1h1l-1,1l-2,4l-3,5h1v1h1l-1,1v1h1v1h1l1,1l1,1l1,1l-1,1l-1,1l-3,1l-1,4v1l-4,5h-1l-1,1l-1,1l-1,-1l-3,3l-1,1h-1l-1,1v1l-1,1v1l-1,1v1l-2,1h-1v2l-1,1l-1,1h-1l-3,5l1,1l2,1l1,1l-1,1l-1,2l-1,1l-3,3l-1,2l-1,3l-2,1v1l-2,-2v-1h-2l-1,-2l-1,1l-1,2v1h-1l-1,2l-2,3l-2,3l-2,3h-1l-2,2h-2l-1,2h-2v-1l1,-5v-1l-2,1l-2,1v1l-2,3l-1,1v1l-1,2l-3,1l-2,1l-1,3l-2,2l-6,13l-2,5l-2,4l-2,5l-6,-5l-16,-14l-3,-3l-1,1v3l-1,1v1l-2,2l-1,1v1l-1,1v2l-1,2h-3l-1,1v1l1,1v1l-2,3v1l-2,2l-1,2v1h-1v2l-1,3v1l-2,3l1,2l1,1v4l-1,1v3h-6l-1,1h-1v1l-1,3l-2,2v2l-1,3v1l-1,1v2l-1,3l-1,2v1l-1,1l-1,1v1l-1,2l-2,2l-1,1v2l-1,1l-1,4l1,2l-1,2l-1,1h-1v2l-1,1l-3,2v1l-1,3l-1,-1v2l-1,1l-1,2h-1l-2,1v3h-2l-1,1h-2l-1,1l-11,-3l-12,-5l-9,-3l-12,-23l-4,-2h-2l-5,-3h-1l-10,-4l4,-4v-15l-1,-4l-6,-2l-3,6l-4,-4l-8,1l2,-9l-4,-5l-7,2l-4,8l-4,15l-3,1l-2,18l-32,24l-18,-3l-26,21l13,-34l-10,-22l-9,-20l-8,3l-1,-4l-1,-5l-4,-3l-7,1h-11l-1,-3l-11,23l-28,29v1l-12,-4l-7,4l-6,-9l-19,13l10,3l2,4l-18,16l-21,13l-5,1l-21,14l-16,9l-12,16l-7,3l-10,53h-13l-2,-5l-2,-4l1,-8l-5,-7l-5,1l-5,-4l4,-9l-5,-2v-5l-7,-1l-6,-8h-6v-11l-17,1l-4,3v-4l-6,-3l-1,5h-5l-2,6l-2,-6l5,-2v-23l-14,-1l-6,-2l-15,13l-11,-7l1,-10l-1,-9v-25l-1,-34l20,-11l20,-3Z"/><path data-race-id="WV03" d="M29,627l2,-1l1,-3l1,-5h1v-3l-2,-1v-6h1l6,-4l-1,-6v-2l1,-4l-1,-6h-1l-2,-2v-7l1,-1l-1,-2l1,-4l-1,-3v-1l1,-1l1,1v1l2,1l1,1h4v1h2v-1h4l1,-1h1l1,-1l4,-1l6,-2l7,-2l5,1l13,-3l5,-13l3,-21l5,-3l9,2h2l2,-1l5,-4v-8l-3,-12l1,-9l-1,-3l-1,-5l-5,-3v-5l11,-7l5,-6l-1,-10l1,-4l5,-7l4,-7l1,-4l1,-1l3,-1l1,-1l2,-2h1v-1l2,-4l5,-3l6,7l1,2l9,2l6,15l-4,4v6l2,1l2,7l10,14l10,16l-4,3l7,10l-16,2l-20,3l-20,11l1,34v25l1,9l-1,10l11,7l15,-13l6,2l14,1v23l-5,2l2,6l2,-6h5l1,-5l6,3v4l4,-3l17,-1v11h6l6,8l7,1v5l5,2l-4,9l5,4l5,-1l5,7l-1,8l2,4l2,5h13l10,-53l7,-3l12,-16l16,-9l21,-14l5,-1l21,-13l18,-16l-2,-4l-10,-3l19,-13l6,9l7,-4l12,4v-1l28,-29l11,-23l1,3h11l7,-1l4,3l1,5l1,4l8,-3l9,20l10,22l-13,34l26,-21l18,3l32,-24l2,-18l3,-1l4,-15l4,-8l7,-2l4,5l-2,9l8,-1l4,4l3,-6l6,2l1,4v15l-4,4v1h-1v3h-1v1l1,2h-2v5h-1h1v1l-1,1v1h1v1l1,2h-1v2h-1v-1h-2v3l-1,1h-1v1h-1v1l1,2v1l-1,1h1v1l1,2v3h-1l1,1l-1,1v1l1,1l-1,1l-1,1h1h-1l-1,1l-1,1v2l-1,1h-1v1l-1,2l-1,1v2l-1,1l1,1v2l-1,1l-2,1h-1v-1h-2l-1,1l-1,2l1,1l-1,1v1h-2l-1,1h-1l-1,2l-1,2l-1,1h-1v1l2,3v1l2,2v1l1,1v2h-2l-1,1l-1,1l-1,-1l-1,1v2h-2l-1,1h-1v1h-2v1l-1,1v1l-1,1l-1,1l-2,1l-1,2l-2,1l-2,3l-3,2l-1,1v3h1v2h-1v2h-1v1l-1,2v1l-1,1h-2v1l1,1h-1l1,1v3h3l-1,2l-2,2l-2,2v1l-1,3v1l-1,1v2l-1,1l-1,2v3h-1l-1,3h-1l-1,2v1l-1,1v1h-1l-1,1l-1,1l-1,2h-1v1l-2,1l-1,1h-1v2l-1,1l-1,1h-1l-1,1h-1v1h-1l-1,2l-1,1l-1,1v1h-1v1h-1l-1,1v1h-1l-1,1v1h-1h1l-1,1h-1l-1,1v1l-1,1h-1v1h-1l-1,-1v1l-1,1l-1,1v2h-1l-1,1v1l-1,1h-1v3l1,1h-1l-1,1h-1l-1,1l-1,1l-1,2v1h-1l-1,1l-1,2l-1,1v2h1v2l1,-1v2h-3v1h-1l-1,1h-1v3h-1v1l-1,1l1,1l-1,1v2h1l1,1v1l-1,1h-1l-1,1v1h-1l-1,2l-1,1h-1l-2,1v1l4,10l10,6l-1,2l-2,2v1h-1l-1,1l-1,2l-2,1l-3,1l-4,2l-6,4l2,5v1h-2l4,3l6,-2l-4,7l-3,1l-2,2h-5l-3,2l1,2l-1,1h-1l-3,1l-5,4l-3,1l-4,3l-3,3h-4l-2,-2l-1,-3l1,-3l-4,-6v1h-4l-1,1h-2l-2,1l-4,2v1h-1l-1,1v1h-2l-4,3l-1,1h-1l-2,1v1h-1v1l-8,4l-5,3l-1,1h-1l-1,1h-1l-1,1h-2l-4,2l-2,-3l-1,-1v-2h-3l-1,-1h-1v-1l-1,-1l-3,-3l-3,-1h-2v-1h-1l-1,2l1,2l-5,7l3,4l4,5l-3,2l-1,1l-3,2l-3,3l-2,1l-2,1l-3,1l-1,1l-2,1l-3,1h-2l-1,-1v-2h-2l-9,3h-5l-6,1l-3,1l-7,3l-4,1l-7,5l-6,2l-1,-1l-3,-3l-11,-9l-1,-1l-4,-4v-1l-6,-7l-1,1v2h-1v2h-3v-1v1h-1v1h-1v3h-1l-1,1h1v1h-1v2h-1v1h-1v2h-1l-1,1h-1v-1h-1v1h-1v-1h-1v1l-2,1v1h-2v1h-2v1h-4v-2l-1,1v1l-1,1v3l-1,1h-1v1h-2v1h-1v1h-2l-2,2l-1,1l-12,1h-12l-1,-1v-2h-2v-1h-1v-1h-1v-1h-1l-1,-1v-1h-1v-1h-3l-1,-1v-2l1,-2h-1v-1h-1v-1h-1l-1,-1v-2h-1l-1,1l-1,-1h-1v-1h-3v-1h-3v1h-5l1,-1h-4v-1h-1l1,-2v-1h-1v-1h-1l-1,-1l1,-1v-1l-1,-1l-1,-1h-1v-1h-1l1,-1h-1l-1,1v-1h-1l-1,1v-1h-1h1v-1l-1,-1v-1h-2v-1h-2v-2h-1v-3h-1v-1h1v-1h-1v-2l1,-1l-1,-1h1v-5h1h-1l-1,-1v-1h-1v-3h1v-1l-1,-1v1l-1,-1v-1h-2v-1h-3v-1l-1,-1l-1,-1l-1,1h-1l1,-1h-1l-1,-1v-3l1,-1v-1h3v-1h2v-1h3v-2l1,-1h1v-1h2v-1l-5,-3v-2h-2v-2h1l-1,-1l-1,-1l-4,2l-1,1v-2h-1v2l-3,-1h-1l-1,1h-6l-3,-5l-5,1l-1,-1l-1,-1h-4v-1l-1,-1l-1,-1h3l-1,-5h-5l-1,-7l-4,-2l1,-1l-7,1l-4,-8l-7,-1l-5,-4h-1v-1h1l-2,-6v-1l-1,-1v-2h-1v-3h-1l-1,-1v-2l1,-1v-1l2,-2h1l-1,-1h-2l-1,1v-1l1,-1v-1l-3,-3h-1l-1,-2h-2v-1l-3,-2l-4,-1l-1,-1l-1,-6l-2,-2v-2l1,-1l-1,-1v-5l-2,-2h-1v-1l-1,-3l-3,-2h-1v-1l-3,-2l-1,-1l-4,-1l2,-3v-1h1l3,-2l-2,-10h-3l-1,-1h-1l-1,-1l-1,-1v-2h-1v-2l-2,-9h-1l-1,-2v-1l-2,-2l-2,-1h-1l-1,-1v-4l-1,-1h-1l-1,-2l-2,-1h-1l-2,-2l-1,-2l-2,-4v-3l3,-2Z"/>  <path class="mesh" d="M794,293l-6,8l-4,2l-3,7l-9,6l-4,12l-11,17l-7,1l-7,11l-8,7l-1,3l-3,4l-4,12l-5,7v8l-2,2l-7,17l2,10l7,15v4l-8,6l1,7l-10,14l-25,-22l-7,-5l-9,-9l-2,-2l-18,-2h-11l-39,-10l-12,-5l-2,-13l-9,-6l1,2l-5,3l-9,31l-36,5l2,-5l5,-1l-1,-16h-15l-7,-12l-9,-3l-3,-3l-4,2l-9,-1l-31,-8l-1,-2h-13l-5,-3l-5,-3l-2,1l-6,6l-7,1l-7,12l-6,-1l2,21l22,26l-7,5l-5,-2l-16,9l-24,19l-22,15l-2,-8l-11,-7v-5l8,-6l2,-6l-1,-11l1,-19l-6,-5v-6h-7l-8,-6l-7,-2l-2,3l-9,-4l-8,2l-1,-4l-1,-11l-4,-8l-8,-3l5,-11l-16,10l-8,2l-14,13l-11,7l-5,7l-33,-18M606,529l4,-4v-15l-1,-4l-6,-2l-3,6l-4,-4l-8,1l2,-9l-4,-5l-7,2l-4,8l-4,15l-3,1l-2,18l-32,24l-18,-3l-26,21l13,-34l-10,-22l-9,-20l-8,3l-1,-4l-1,-5l-4,-3l-7,1h-11l-1,-3l-11,23l-28,29v1l-12,-4l-7,4l-6,-9l-19,13l10,3l2,4l-18,16l-21,13l-5,1l-21,14l-16,9l-12,16l-7,3l-10,53h-13l-2,-5l-2,-4l1,-8l-5,-7l-5,1l-5,-4l4,-9l-5,-2v-5l-7,-1l-6,-8h-6v-11l-17,1l-4,3v-4l-6,-3l-1,5h-5l-2,6l-2,-6l5,-2v-23l-14,-1l-6,-2l-15,13l-11,-7l1,-10l-1,-9v-25l-1,-34l20,-11l20,-3l16,-2l-7,-10l4,-3l-10,-16l-10,-14l-2,-7"/></svg>