<svg version="1.1" xmlns="http://www.w3.org/2000/svg" width="1000" height="768" viewBox="0 0 1000 768"><g class="districts"><path data-race-id="WY00" d="M99,23h45l19,1l18,-1h6l27,1l4,1h45l4,1h36l1,1h37l3,1h209l4,1h44l5,-1h100l1,-1l9,-1h47l3,-1h22l11,-1h16l4,-1h52l6,-1h15l3,-1l22,-1h27l1,10v13l1,8v21l1,1v22h1v21l1,2v18l1,3v19l1,3v21l1,3v20l1,2v21l1,11v12l1,2v43l1,2v20l1,1v20l1,1v18l1,3v18l1,12l1,15v22l1,11v10l2,25v21l1,1v21l1,9v13l1,19v2l1,14l1,13v22l1,4v11l1,13l1,30v7l1,5v24h1v12l1,24h-34l-19,2h-19l-39,2h-6l-3,1h-47l-66,3h-149l-48,1h-168l-11,-1h-70l-19,-1h-39l-9,-1l-69,-1h-15l-43,-2l-15,-1h-11l-40,-2h-11l2,-74l1,-20l1,-11l1,-35l1,-16l1,-25v-8l1,-24l1,-17l1,-13l1,-36l1,-19l1,-23l1,-18l1,-7v-16l1,-6v-20l1,-6v-16l1,-7v-13l1,-10v-38l1,-33l1,-12v-14l1,-3v-22l3,-51v-30l1,-16l1,-16v-21l1,-24l36,1Z"/></g></svg>