<svg version="1.1" xmlns="http://www.w3.org/2000/svg" width="1000" height="768" viewBox="0 0 1000 768">
  <path d="M303 26
l 1 1
h 37
l 3 1
h 209
l 4 1
h 44
l 5 -1
h 100
l 1 -1
l 9 -1
h 47
l 3 -1
h 22
l 11 -1
h 3
l 17 -1
h 52
l 6 -1
h 15
l 3 -1
l 22 -1
h 27
l 1 10
v 13
l 1 8
v 21
l 1 1
v 22
h 1
v 21
l 1 2
v 18
l 1 3
v 19
l 1 3
v 21
l 1 3
v 20
l 1 2
v 21
l 1 11
v 12
l 1 2
v 43
l 1 2
v 20
l 1 1
v 20
l 1 1
v 18
l 1 3
v 18
l 1 12
l 2 48
v 10
l 2 46
l 2 31
v 13
l 1 19
v 2
l 1 14
l 2 39
v 11
l 1 13
l 1 30
v 7
l 1 3
l 1 26
v 12
l 1 24
l -111 4
h -6
l -3 1
h -47
l -66 3
h -149
l -48 1
h -168
l -11 -1
h -70
l -58 -1
l -9 -1
l -69 -1
h -15
l -43 -2
l -15 -1
h -11
l -40 -2
h -11
l 2 -74
l 1 -20
l 1 -11
l 1 -35
l 1 -16
l 1 -25
v -8
l 1 -24
l 1 -17
l 1 -13
l 1 -36
l 1 -19
l 1 -23
l 1 -18
l 1 -7
v -16
l 1 -6
v -20
l 1 -6
v -16
l 1 -7
v -13
l 1 -31
v -17
l 1 -33
l 1 -12
v -14
l 1 -3
v -22
l 3 -51
v -30
l 1 -14
v -24
l 2 -39
l 33 1
l 13 3
h 45
l 19 1
l 18 -1
h 6
l 27 1
l 4 1
h 45
l 4 1
h 32
Z"/>
<g class="districts">
<path data-race-id="WY00" d="M99 23
h 45
l 19 1
l 18 -1
h 6
l 27 1
l 4 1
h 45
l 4 1
h 36
l 1 1
h 37
l 3 1
h 209
l 4 1
h 44
l 5 -1
h 100
l 1 -1
l 9 -1
h 47
l 3 -1
h 22
l 11 -1
h 16
l 4 -1
h 52
l 6 -1
h 15
l 3 -1
l 22 -1
h 27
l 1 10
v 13
l 1 8
v 21
l 1 1
v 22
h 1
v 21
l 1 2
v 18
l 1 3
v 19
l 1 3
v 21
l 1 3
v 20
l 1 2
v 21
l 1 11
v 12
l 1 2
v 43
l 1 2
v 20
l 1 1
v 20
l 1 1
v 18
l 1 3
v 18
l 1 12
l 1 15
v 22
l 1 11
v 10
l 2 25
v 21
l 1 1
v 21
l 1 9
v 13
l 1 19
v 2
l 1 14
l 1 13
v 22
l 1 4
v 11
l 1 13
l 1 30
v 7
l 1 5
v 24
h 1
v 12
l 1 24
h -34
l -19 2
h -19
l -39 2
h -6
l -3 1
h -47
l -66 3
h -149
l -48 1
h -168
l -11 -1
h -70
l -19 -1
h -39
l -9 -1
l -69 -1
h -15
l -43 -2
l -15 -1
h -11
l -40 -2
h -11
l 2 -74
l 1 -20
l 1 -11
l 1 -35
l 1 -16
l 1 -25
v -8
l 1 -24
l 1 -17
l 1 -13
l 1 -36
l 1 -19
l 1 -23
l 1 -18
l 1 -7
v -16
l 1 -6
v -20
l 1 -6
v -16
l 1 -7
v -13
l 1 -10
v -38
l 1 -33
l 1 -12
v -14
l 1 -3
v -22
l 3 -51
v -30
l 1 -16
l 1 -16
v -21
l 1 -24
l 36 1
Z"/>
</g>

</svg>